<svg width="2301" height="2303" viewBox="0 0 2301 2303" fill="none" xmlns="http://www.w3.org/2000/svg">
<path d="M1222.39 2289.48C1848.79 2248.97 2323.76 1708.33 2283.25 1081.92C2242.74 455.514 1702.1 -19.4517 1075.7 21.0562C449.288 61.5642 -25.6774 602.206 14.8305 1228.61C55.3384 1855.02 595.98 2329.99 1222.39 2289.48Z" fill="#FFDB43"/>
<path d="M939.025 794.303C934.216 921.998 826.612 1021.46 698.917 1016.65C571.222 1011.84 471.763 904.235 476.572 776.54C481.381 648.845 588.985 549.386 716.68 554.195C844.375 559.004 943.834 666.608 939.025 794.303Z" fill="white"/>
<path d="M888.781 792.09C884.994 891.939 800.881 969.833 700.781 965.902C600.932 962.115 523.038 878.001 526.969 777.901C530.756 678.052 614.869 600.158 714.969 604.09C814.819 607.876 892.713 691.99 888.781 792.09Z" fill="#111C33"/>
<path d="M650.806 702.475C649.579 735.89 621.541 761.855 588.271 760.377C554.856 759.15 528.891 731.113 530.369 697.842C531.847 664.572 559.633 638.463 592.904 639.941C626.174 641.418 652.283 669.205 650.806 702.475Z" fill="white"/>
<path d="M763.909 898.279C763.295 914.987 749.151 927.897 732.444 927.283C715.736 926.67 702.826 912.525 703.44 895.818C704.053 879.11 718.197 866.2 734.905 866.814C751.612 867.427 764.522 881.572 763.909 898.279Z" fill="white"/>
<path d="M847.483 820.75C846.87 837.457 832.725 850.367 816.018 849.754C799.31 849.14 786.4 834.996 787.014 818.289C787.627 801.581 801.772 788.671 818.479 789.285C835.187 789.898 848.096 804.042 847.483 820.75Z" fill="white"/>
<path d="M1848.52 829.282C1843.71 956.977 1736.1 1056.44 1608.41 1051.63C1480.71 1046.82 1381.26 939.213 1386.07 811.518C1390.87 683.823 1498.48 584.365 1626.17 589.174C1753.87 593.983 1853.33 701.587 1848.52 829.282Z" fill="white"/>
<path d="M1798.13 827.313C1794.34 927.162 1710.23 1005.06 1610.13 1001.12C1510.03 997.193 1432.39 913.224 1436.32 813.124C1440.1 713.275 1524.22 635.381 1624.32 639.313C1724.17 643.099 1802.06 727.213 1798.13 827.313Z" fill="#111C33"/>
<path d="M1560.15 737.711C1558.92 771.126 1530.89 797.091 1497.62 795.613C1464.2 794.386 1438.24 766.348 1439.71 733.078C1440.94 699.663 1468.98 673.698 1502.25 675.176C1535.66 676.403 1561.63 704.441 1560.15 737.711Z" fill="white"/>
<path d="M1673.26 933.502C1672.65 950.209 1658.5 963.119 1641.8 962.506C1625.09 961.892 1612.18 947.748 1612.79 931.041C1613.41 914.333 1627.55 901.423 1644.26 902.037C1660.96 902.65 1673.87 916.794 1673.26 933.502Z" fill="white"/>
<path d="M1756.83 855.971C1756.22 872.678 1742.07 885.588 1725.37 884.975C1708.66 884.361 1695.75 870.217 1696.36 853.509C1696.98 836.802 1711.12 823.892 1727.83 824.505C1744.54 825.119 1757.45 839.263 1756.83 855.971Z" fill="white"/>
<path d="M1712.59 1255.93C1705.08 1447.97 1603.37 1613.72 1453.08 1710.62C1358.8 1771.94 1244.77 1805.46 1123.94 1800.93C1003.25 1796.15 892.071 1754.05 802.86 1685.48C660.604 1577.25 571.823 1404.22 579.326 1212.18L1712.84 1256.07L1712.59 1255.93Z" fill="#111C33" stroke="#111C33" stroke-width="28.9722" stroke-linecap="round" stroke-linejoin="round"/>
<path d="M1453.09 1710.61C1358.81 1771.93 1244.77 1805.45 1123.94 1800.93C1003.25 1796.15 892.077 1754.04 802.866 1685.47C895.016 1618.58 1009.67 1581.07 1132.3 1585.96C1255.07 1590.6 1366.52 1636.88 1453.09 1710.61Z" fill="#D03E1D"/>
<path d="M1594.98 1251.6C1588.98 1317.05 1532.91 1366.65 1466.48 1364.09L816.007 1338.8C749.573 1336.24 697.633 1282.5 696.776 1216.77L1594.98 1251.6Z" fill="#FAEFD6" stroke="#111C33" stroke-width="28.9722" stroke-linecap="round" stroke-linejoin="round"/>
<path d="M1712.59 1255.93C1705.08 1447.97 1603.37 1613.72 1453.08 1710.62C1358.8 1771.94 1244.77 1805.46 1123.94 1800.93C1003.25 1796.15 892.071 1754.05 802.86 1685.48C660.604 1577.25 571.823 1404.22 579.326 1212.18L1712.84 1256.07L1712.59 1255.93Z" stroke="#111C33" stroke-width="57.9444" stroke-linecap="round" stroke-linejoin="round"/>
<path opacity="0.2" d="M1967.42 461.653C1932 288.32 1505.75 82.7013 1332.03 68.3798C262.966 -19.9314 -225.169 1162.2 233.01 1655.56C313.837 1742.7 103.397 1371.3 191.26 1008.2C296.732 572.3 667.936 164.031 1285.25 218.348C1594.76 245.492 1773.82 497.41 1913.13 516.286C1946.6 520.891 1974.38 497.117 1967.28 461.904L1967.42 461.653Z" fill="white"/>
<g style="mix-blend-mode:multiply" opacity="0.3">
<path d="M2201.67 816.739C2181.19 742.691 2058.4 734.023 2043.8 817.258C2006.48 1030.23 2059.28 1247.05 1988.06 1456.17C1867.54 1809.78 1486.88 2120.26 1016.15 2073.96C662.984 2039 337.395 1726.24 407.965 1832.89C665.618 2222.18 1265.95 2306.5 1664.15 2120.9C2152.89 1893.23 2338.74 1314.06 2201.52 816.99L2201.67 816.739Z" fill="#FFDB43"/>
</g>
</svg>
