<svg width="2216" height="2237" viewBox="0 0 2216 2237" fill="none" xmlns="http://www.w3.org/2000/svg">
<path d="M1885.93 1888.98C2314.68 1460.23 2314.68 765.084 1885.93 336.331C1457.18 -92.4215 762.031 -92.4216 333.279 336.331C-95.4742 765.084 -95.4741 1460.23 333.279 1888.98C762.031 2317.73 1457.18 2317.73 1885.93 1888.98Z" fill="#FFDB43"/>
<path d="M1683.83 175.625C1793.19 346.285 1856.56 549.274 1856.56 766.946C1856.56 1373.21 1365.06 1864.84 758.666 1864.84C548.078 1864.84 351.4 1805.46 184.347 1702.68C379.478 2007.29 720.927 2209.12 1109.52 2209.12C1715.78 2209.12 2207.41 1717.62 2207.41 1111.23C2207.41 715.426 1997.98 368.696 1683.96 175.497L1683.83 175.625Z" fill="#FFDB43"/>
<path d="M160.906 1228.44C160.906 665.451 617.244 209.113 1180.23 209.113C1509.31 209.113 1801.82 365.09 1988.19 607.105C1812.12 301.592 1482.26 95.8983 1104.37 95.8983C541.381 95.8983 85.043 552.236 85.043 1115.22C85.043 1349.12 163.869 1564.6 296.404 1736.55C210.237 1587.01 160.906 1413.52 160.906 1228.56V1228.44Z" fill="#FFE98A"/>
<path d="M785.975 846.286C785.975 921.634 749.782 982.685 705.088 982.685C660.395 982.685 624.202 921.634 624.202 846.286C624.202 770.938 660.395 709.887 705.088 709.887C749.782 709.887 785.975 770.938 785.975 846.286Z" fill="#303030"/>
<path d="M1594.84 846.286C1594.84 921.634 1558.64 982.685 1513.95 982.685C1469.25 982.685 1433.06 921.634 1433.06 846.286C1433.06 770.938 1469.25 709.887 1513.95 709.887C1558.64 709.887 1594.84 770.938 1594.84 846.286Z" fill="#303030"/>
<path d="M1412.2 410.815C1424.05 414.293 1435.51 417.513 1446.71 420.604C1471.44 427.559 1494.63 433.999 1517.17 441.856C1550.78 453.19 1581.05 466.07 1609.65 481.14C1639.79 497.111 1667.09 514.756 1693.24 535.364C1721.83 557.518 1748.36 583.536 1772.84 608.265C1774.25 609.682 1776.31 610.068 1778.12 609.296C1779.92 608.523 1781.08 606.72 1780.95 604.659C1779.15 567.178 1764.34 528.409 1738.06 492.603C1714.1 460.145 1681.9 432.84 1645.2 413.649C1610.55 395.488 1571.91 384.282 1533.01 381.449C1531.47 381.449 1530.05 381.191 1528.5 381.191C1484.84 378.873 1445.56 385.828 1411.42 401.928C1409.62 402.829 1408.59 404.633 1408.72 406.565C1408.85 408.497 1410.26 410.171 1412.2 410.815Z" fill="#414042"/>
<path d="M806.838 410.815C794.988 414.293 783.525 417.513 772.32 420.604C747.59 427.559 724.406 433.999 701.866 441.856C668.249 453.19 637.981 466.07 609.388 481.14C579.248 497.111 551.943 514.756 525.797 535.364C497.203 557.518 470.67 583.536 446.198 608.265C444.782 609.682 442.72 610.068 440.917 609.296C439.114 608.523 437.955 606.72 438.084 604.659C439.887 567.178 454.699 528.409 480.975 492.603C504.931 460.145 537.131 432.84 573.839 413.649C608.486 395.488 647.126 384.282 686.024 381.449C687.569 381.449 688.986 381.191 690.531 381.191C734.195 378.873 773.479 385.828 807.611 401.928C809.414 402.829 810.445 404.633 810.316 406.565C810.187 408.497 808.77 410.171 806.838 410.815Z" fill="#414042"/>
<path d="M1513.95 1598.74C1490.51 1356.33 1317.79 1168.16 1108.62 1168.54C899.316 1168.93 727.497 1357.88 705.086 1600.41L1513.95 1598.61V1598.74Z" fill="#695342"/>
<path d="M705.086 1600.41C705.086 1600.41 1045.63 1258.71 1513.95 1598.61L705.086 1600.41Z" fill="#FF6248"/>
</svg>
