<svg width="2301" height="2303" viewBox="0 0 2301 2303" fill="none" xmlns="http://www.w3.org/2000/svg">
<path d="M1707.69 2118.58C2247.71 1806.8 2432.73 1116.28 2120.95 576.267C1809.17 36.2496 1118.66 -148.774 578.64 163.005C38.6222 474.784 -146.402 1165.3 165.378 1705.32C477.157 2245.34 1167.67 2430.36 1707.69 2118.58Z" fill="#FFDB43"/>
<g style="mix-blend-mode:multiply" opacity="0.3">
<path d="M2225.89 1211.23C2231.92 1123.89 2208 1081.9 2168.48 1007.79C2147.1 967.929 2081.57 976.231 2071.32 1020.65C2007.82 1297 2019.22 1829.67 1378.42 2016.08C827.78 2176.38 300.933 1720.54 183.75 1531.7C177.571 1521.57 159.336 1527.85 163.737 1540C477.276 2415.12 2136.96 2481.24 2226.09 1211.29L2225.89 1211.23Z" fill="#FFDB43"/>
</g>
<path d="M827.403 1256.69C847.598 1387.47 722.66 1515.57 548.04 1542.63C373.613 1569.75 215.603 1485.42 195.408 1354.64C175.214 1223.86 300.152 1095.76 474.771 1068.69C649.391 1041.62 807.208 1125.91 827.403 1256.69Z" fill="#FF8847"/>
<path d="M1831.16 1344.3C2005.66 1317.29 2130.7 1189.29 2110.44 1058.41C2090.18 927.533 1932.29 843.335 1757.79 870.349C1583.28 897.364 1458.24 1025.36 1478.5 1156.24C1498.77 1287.12 1656.65 1371.32 1831.16 1344.3Z" fill="#FF8847"/>
<path d="M1723.97 726.482C1743.33 851.869 1657.45 969.329 1532.06 988.693C1406.67 1008.06 1289.21 922.174 1269.85 796.788C1250.48 671.401 1336.37 553.94 1461.75 534.576C1587.14 515.212 1704.6 601.095 1723.97 726.482Z" fill="white"/>
<path d="M1674.54 734.146C1689.8 832.367 1622.58 924.208 1524.35 939.473C1426.13 954.738 1334.29 887.511 1319.03 789.29C1303.76 691.069 1370.99 599.228 1469.21 583.963C1567.43 568.698 1659.27 635.925 1674.54 734.146Z" fill="#111C33"/>
<path d="M1425.42 691.801C1430.49 724.606 1408.02 755.202 1375.4 760.325C1342.6 765.396 1312 742.923 1306.88 710.311C1301.81 677.506 1324.28 646.91 1356.89 641.787C1389.7 636.716 1420.3 659.189 1425.42 691.801Z" fill="white"/>
<path d="M1572.89 861.017C1575.33 877.393 1564.41 892.673 1547.79 895.253C1531.41 897.692 1516.13 886.771 1513.55 870.15C1511.11 853.773 1522.04 838.494 1538.66 835.914C1555.03 833.475 1570.31 844.396 1572.89 861.017Z" fill="white"/>
<path d="M1639.71 769.907C1642.15 786.284 1631.23 801.563 1614.61 804.144C1598.23 806.583 1582.95 795.661 1580.37 779.04C1577.93 762.663 1588.86 747.385 1605.48 744.804C1621.85 742.365 1637.13 753.286 1639.71 769.907Z" fill="white"/>
<path d="M544.156 1177.25L828.665 850.482L475.728 735.432L665.768 880.898L544.156 1177.25Z" fill="#111C33" stroke="#111C33" stroke-width="19.9832" stroke-linecap="round" stroke-linejoin="round"/>
<path d="M1172.32 1329.85C1172.32 1329.85 1116.11 1190.66 1006.95 1276.85C897.741 1363.23 933.818 1431.65 806.702 1432.76C1014.39 1762.53 1453.83 1694.5 1551.98 1317.38C1430.46 1354.74 1444.25 1278.58 1314.05 1229.42C1183.85 1180.26 1172.27 1330.04 1172.27 1330.04L1172.32 1329.85Z" fill="#D03E1D"/>
<path opacity="0.2" d="M1938.86 627.864C1941.03 398.185 1725.62 210.751 1531.84 120.142C1311.37 17.2084 1058.06 13.6746 829.162 91.9862C338.062 260.168 -7.43109 754.309 98.2927 1278.53C100.48 1289.67 117.398 1286.76 117.63 1275.85C122.907 835.367 443.512 400.139 856.676 248.727C1044.12 179.994 1250.28 171.101 1437.13 246.615C1637.75 327.887 1738.49 483.145 1862.61 648.394C1885.93 679.47 1938.66 671.874 1939.16 627.529L1938.86 627.864Z" fill="white"/>
<g style="mix-blend-mode:multiply" opacity="0.5">
<path d="M1523.86 1335.1C1462.24 1344.24 1388.92 1374.66 1333.07 1395.48C1289.36 1411.91 1262.15 1444.75 1216.16 1455.81C1153.81 1470.75 1101.1 1440.49 1040.15 1435.54C965.217 1429.53 881.787 1476.06 814.732 1425.2C807.697 1419.8 799.458 1431.25 805.513 1437.22C846.27 1478.13 886.226 1477.25 942.215 1471.36C1004.56 1464.9 1053.41 1468.68 1113.96 1482.83C1144.96 1489.9 1177.59 1497.81 1209.65 1493.99C1271.57 1486.79 1308.56 1437.53 1367.38 1421.85C1405.21 1411.92 1443.38 1402.28 1478.44 1384.16C1492.13 1377.07 1533.48 1333.95 1538.77 1333.51C1534.11 1333.91 1529.2 1334.46 1524.44 1335.25L1523.86 1335.1Z" fill="#D03E1D"/>
</g>
<path opacity="0.1" d="M1048.46 1293.36C1014.18 1302.38 992.996 1331.25 989.609 1365.51C988.281 1378.19 1005.98 1377.76 1010.02 1368.08C1018.15 1348.54 1038.41 1331.63 1060.27 1331.9C1080.53 1331.95 1095.43 1348.14 1115.16 1350.95C1124.1 1352.31 1131.02 1347.34 1131.61 1338.19C1134.93 1296.46 1079.81 1285.21 1048.46 1293.36Z" fill="white"/>
<path opacity="0.1" d="M1316.23 1304.69C1299.48 1283.03 1279.24 1267.47 1249.97 1272.45C1230.43 1275.91 1212.81 1289.18 1209.85 1309.49C1208.15 1321.24 1223.54 1325.57 1227.8 1314.3C1233.39 1298.84 1251.63 1297.93 1264.68 1303.29C1277.67 1308.84 1290.65 1315.21 1303.65 1320.76C1314.57 1325.55 1323.63 1314.12 1316.28 1304.5L1316.23 1304.69Z" fill="white"/>
<path opacity="0.1" d="M1289.76 1512.34C1257.6 1525.04 1232.05 1548.6 1198.9 1559.58C1152.1 1575.18 1111.43 1575.65 1065.68 1554.91C1059.76 1552.29 1051.62 1557.97 1055.87 1564.49C1106.48 1641.98 1276.77 1630.3 1313.66 1543.57C1319.87 1528.89 1309.23 1504.53 1289.57 1512.29L1289.76 1512.34Z" fill="white"/>
</svg>
