<svg width="2193" height="2188" viewBox="0 0 2193 2188" fill="none" xmlns="http://www.w3.org/2000/svg">
<g style="mix-blend-mode:multiply" opacity="0.3">
<g opacity="0.75">
<path d="M730.503 364.29C798.292 333.105 870.053 309.348 944.941 294.093L730.503 364.29Z" fill="#66ADFA"/>
<path d="M258.307 829.504C323.251 694.205 418.236 576.474 534.352 484.784L258.307 829.504Z" fill="#66ADFA"/>
</g>
<path d="M817.854 1303.04C812.944 1431.03 670.514 1529.63 499.848 1522.85C329.085 1516.24 194.799 1407.01 199.709 1279.02C204.62 1151.03 347.05 1052.43 517.716 1059.21C688.478 1065.82 822.765 1175.05 817.854 1303.04Z" fill="#66ADFA"/>
<path d="M1755.39 1571.57C1926.11 1578.19 2068.53 1479.76 2073.49 1351.72C2078.45 1223.68 1944.08 1114.52 1773.37 1107.9C1602.65 1101.29 1460.23 1199.72 1455.27 1327.75C1450.31 1455.79 1584.68 1564.95 1755.39 1571.57Z" fill="#66ADFA"/>
</g>
<path d="M1034.93 2183.51C1637.27 2217.51 2153.11 1756.77 2187.11 1154.44C2221.1 552.098 1760.36 36.2516 1158.03 2.25935C555.69 -31.7329 39.8433 429.002 5.851 1031.34C-28.1412 1633.68 432.593 2149.52 1034.93 2183.51Z" fill="#FFDB43"/>
<g style="mix-blend-mode:multiply" opacity="0.4">
<path d="M2069.22 1454.9C2180.22 1153.97 1993.72 917.482 1899.03 1238.09C1880.14 1301.75 1870.37 1458.64 1727.23 1626.92C1491.72 1903.74 1062.24 2023.92 662.614 1799.66C365.632 1633.11 147.58 1303.17 163.723 1377.68C329.266 2136.53 1709.94 2428.67 2069.22 1454.9Z" fill="#FFDB43"/>
</g>
<path d="M775.387 1144.58C770.476 1272.56 628.046 1371.16 457.38 1364.38C286.617 1357.77 152.331 1248.54 157.241 1120.55C162.152 992.564 304.582 893.965 475.248 900.744C646.011 907.356 780.297 1016.59 775.387 1144.58Z" fill="#FF6248" fill-opacity="0.69"/>
<path d="M1713.03 1413.12C1883.74 1419.74 2026.16 1321.31 2031.12 1193.27C2036.09 1065.23 1901.72 956.072 1731 949.454C1560.29 942.836 1417.87 1041.27 1412.91 1169.3C1407.94 1297.34 1542.31 1406.5 1713.03 1413.12Z" fill="#FF6248" fill-opacity="0.69"/>
<path d="M912.411 630.773C907.644 753.486 804.46 849.07 681.747 844.303C559.034 839.536 463.45 736.352 468.217 613.639C472.984 490.926 576.168 395.341 698.881 400.109C821.594 404.876 917.178 508.059 912.411 630.773Z" fill="white"/>
<path d="M825.464 627.47C822.542 702.133 759.717 760.295 684.956 757.54C610.293 754.618 552.131 691.793 554.886 617.032C557.808 542.369 620.634 484.207 695.394 486.962C770.058 489.884 828.219 552.71 825.464 627.47Z" fill="#111C33"/>
<path d="M654.676 543.571C653.358 575.628 626.484 600.52 594.428 599.203C562.371 597.885 537.479 571.011 538.796 538.955C540.114 506.898 566.988 482.006 599.044 483.323C631.101 484.641 655.994 511.515 654.676 543.571Z" fill="white"/>
<path d="M725.634 710.672C725.107 726.665 711.622 739.195 695.461 738.571C679.468 738.044 666.938 724.559 667.562 708.399C668.089 692.406 681.574 679.876 697.734 680.5C713.727 681.026 726.257 694.512 725.634 710.672Z" fill="white"/>
<path d="M805.063 655.848C804.537 671.84 791.051 684.37 774.891 683.747C758.898 683.22 746.465 669.568 746.992 653.575C747.518 637.582 761.004 625.052 777.164 625.675C793.157 626.202 805.59 639.855 805.063 655.848Z" fill="white"/>
<path d="M1754.47 816.427C1671.3 559.892 1375.66 548.384 1272.78 797.735C1323.91 391.702 1734.93 407.537 1754.47 816.427Z" fill="#111C33" stroke="#111C33" stroke-width="19.3339" stroke-linecap="round" stroke-linejoin="round"/>
<path d="M1079.34 1538.4C850.078 1529.49 649.768 1388.84 556.539 1171.37C550.605 1157.67 550.41 1142.16 555.87 1127.67C561.234 1113.36 571.788 1102.04 584.736 1097.01C739.399 1035.61 917.393 1006.88 1099.47 1014C1281.55 1021.12 1456.93 1063.44 1606.29 1136.5C1618.83 1142.62 1628.58 1154.73 1632.81 1169.45C1637.04 1184.17 1635.67 1199.68 1628.64 1213.03C1518.95 1422.73 1308.35 1547.38 1079.08 1538.47L1079.34 1538.4Z" fill="#FAEFD6" stroke="#111C33" stroke-width="38.6677" stroke-linecap="round" stroke-linejoin="round"/>
<path d="M622.594 1288.97C931.194 1237.42 1247.4 1249.64 1551.07 1324.95" stroke="#111C33" stroke-width="38.6677" stroke-linecap="round" stroke-linejoin="round"/>
<path opacity="0.2" d="M1975.7 753.032C2006.96 421.251 1503.77 -63.2699 904.841 61.5459C430.298 160.393 10.1943 662.601 108.692 1161.72C110.801 1172.76 126.93 1169.57 127.384 1159.12C159.679 417.606 950.501 -35.3256 1508.82 299.968C1763.06 452.779 1799.73 639.826 1891.98 775.465C1918.16 814.023 1971.78 798.099 1975.96 752.961L1975.7 753.032Z" fill="white"/>
</svg>
