<svg width="2510" height="2260" viewBox="0 0 2510 2260" fill="none" xmlns="http://www.w3.org/2000/svg">
<path d="M1697.61 2099.42C2234.02 1789.73 2417.81 1103.82 2108.11 567.408C1798.41 30.9967 1112.51 -152.791 576.096 156.906C39.6851 466.603 -144.103 1152.51 165.594 1688.92C475.291 2225.33 1161.2 2409.12 1697.61 2099.42Z" fill="#FFDB43"/>
<path d="M1825.07 704.3C1844.3 828.85 1758.99 945.525 1634.44 964.76C1509.89 983.995 1393.22 898.686 1373.98 774.136C1354.75 649.587 1440.05 532.911 1564.6 513.676C1689.15 494.441 1805.83 579.75 1825.07 704.3Z" fill="white"/>
<path d="M1775.96 711.913C1791.13 809.478 1724.35 900.706 1626.78 915.869C1529.22 931.032 1437.99 864.254 1422.83 766.689C1407.67 669.124 1474.44 577.896 1572.01 562.733C1669.57 547.57 1760.8 614.348 1775.96 711.913Z" fill="#111C33"/>
<path d="M1454.16 736.437C1485.93 744.949 1518.58 726.097 1527.09 694.33C1535.61 662.562 1516.75 629.909 1484.99 621.397C1453.22 612.885 1420.57 631.737 1412.05 663.505C1403.54 695.272 1422.39 727.925 1454.16 736.437Z" fill="white"/>
<path d="M1675 837.937C1677.42 854.204 1666.57 869.381 1650.06 871.944C1633.8 874.367 1618.62 863.519 1616.06 847.008C1613.63 830.741 1624.48 815.564 1640.99 813.001C1657.26 810.578 1672.44 821.426 1675 837.937Z" fill="white"/>
<path d="M1741.19 747.384C1743.61 763.651 1732.76 778.828 1716.25 781.391C1699.99 783.814 1684.81 772.966 1682.25 756.456C1679.82 740.188 1690.67 725.011 1707.18 722.448C1723.45 720.025 1738.63 730.874 1741.19 747.384Z" fill="white"/>
<path d="M804.084 862.485C823.319 987.035 738.01 1103.71 613.46 1122.95C488.911 1142.18 372.235 1056.87 353 932.322C333.765 807.772 419.074 691.096 543.624 671.861C668.174 652.626 784.849 737.936 804.084 862.485Z" fill="white"/>
<path d="M754.983 870.098C770.146 967.664 703.369 1058.89 605.803 1074.05C508.238 1089.22 417.01 1022.44 401.847 924.875C386.685 827.309 453.462 736.082 551.027 720.919C648.593 705.756 739.82 772.533 754.983 870.098Z" fill="#111C33"/>
<path d="M507.532 828.036C512.569 860.622 490.246 891.014 457.852 896.103C425.267 901.14 394.874 878.817 389.786 846.423C384.697 814.029 407.072 783.445 439.466 778.356C472.051 773.319 502.443 795.642 507.532 828.036Z" fill="white"/>
<path d="M654.018 996.122C656.441 1012.39 645.593 1027.57 629.083 1030.13C612.816 1032.55 597.638 1021.7 595.075 1005.19C592.652 988.927 603.501 973.75 620.011 971.186C636.278 968.764 651.455 979.612 654.018 996.122Z" fill="white"/>
<path d="M720.448 905.429C722.871 921.696 712.023 936.873 695.512 939.436C679.245 941.859 664.068 931.011 661.505 914.501C659.082 898.233 669.93 883.056 686.441 880.493C702.708 878.07 717.885 888.919 720.448 905.429Z" fill="white"/>
<path d="M1983.33 883.987C2066.95 672.79 1963.52 433.795 1752.33 350.176C1541.13 266.558 1302.14 369.98 1218.52 581.177C1134.9 792.373 1238.32 1031.37 1449.52 1114.99C1660.71 1198.61 1899.71 1095.18 1983.33 883.987Z" stroke="#111C33" stroke-width="99.2489" stroke-linecap="round" stroke-linejoin="round"/>
<path d="M2003.22 643.762C2408.22 623.226 2243.74 1015.43 2227.62 1074.82C2207.48 1149.98 2182.74 1252.26 2383.4 1345.49C2458.18 1380.11 2513.81 1516.06 2309.58 1726.84" stroke="#111C33" stroke-width="99.2489" stroke-linecap="round" stroke-linejoin="round"/>
<path d="M2131.51 1097.55C2131.51 1097.55 2002.85 1464.21 1662.88 1297.29C1322.92 1130.37 1225.07 1242.45 1193.85 1312.17C1185.14 1331.62 1178.91 1355.64 1176.21 1381.84C1165.83 1357.69 1152.56 1336.66 1138.33 1320.73C1087.44 1263.73 960.368 1186.52 686.758 1448.38C413.34 1710.29 179.645 1399.84 179.645 1399.84C179.645 1399.84 205.263 1788.93 744.445 1763.05C1074.77 1747.37 1182.54 1623.56 1195.25 1506.34C1243.04 1614.08 1383.11 1699.5 1702.76 1614.78C2224.48 1476.13 2131.27 1097.69 2131.27 1097.69L2131.51 1097.55Z" fill="#111C33" stroke="#111C33" stroke-width="19.8498" stroke-linecap="round" stroke-linejoin="round"/>
<path opacity="0.2" d="M1593.45 146.774C1458.04 33.2219 1225.96 33.5067 1059.97 57.0523C864.935 84.7315 683.386 166.373 528.615 287.658C226.203 524.33 40.0866 917.518 98.9926 1302.79C100.998 1315.25 118.073 1310.58 119.262 1300C157.904 946.416 299.721 601.98 586.033 377.845C717.869 274.663 874.156 200.638 1038.91 170.187C1127.59 153.67 1219.56 150.162 1309.15 160.191C1396.95 169.95 1479.98 202.885 1568.2 208.028C1597.74 209.777 1616.91 166.62 1593.4 146.965L1593.45 146.774Z" fill="white"/>
<path opacity="0.1" d="M1186.61 678.1C1184.44 692.316 1204.94 698.631 1208.66 684.008C1254.76 505.041 1305.04 470.015 1399.91 412.002C1462.13 373.807 1241.79 320.314 1186.61 678.1Z" fill="white"/>
<path opacity="0.1" d="M2022.78 648.983C2020.6 635.657 1999.07 636.258 1996.64 649.169C1976.58 750.861 1979.71 856.505 1918.51 945.323C1842.02 1055.94 1613.16 1150.79 1689.8 1137.01C1920.26 1096.01 2060.02 871.242 2022.92 649.226L2022.78 648.983Z" fill="white"/>
<path opacity="0.1" d="M2443.85 1372.98C2414.89 1316.93 2361.77 1308.86 2313.42 1275.35C2148.91 1162.23 2323.02 938.853 2261.29 781.955C2257.73 772.987 2243.91 776.269 2246.63 786.041C2284.55 924.435 2183.42 1045.71 2204.91 1182.57C2233.86 1367.47 2396.73 1285.76 2415.46 1488.88C2420.32 1540.53 2494.77 1471.29 2444.04 1373.03L2443.85 1372.98Z" fill="white"/>
<g style="mix-blend-mode:multiply" opacity="0.3">
<path d="M2034.76 1602.83C2035.35 1556.13 1977.1 1518.13 1936.23 1546.42C1819.65 1627.18 1749.05 1756.43 1630.46 1839.33C1278.88 2085.43 785.546 2102.02 300.959 1724.75C221.732 1663.04 566.053 2220.97 1235.2 2160.24C1654.55 2122.18 2031.05 1849.05 2034.71 1603.02L2034.76 1602.83Z" fill="#FFDB43"/>
</g>
</svg>
