<svg width="2220" height="2255" viewBox="0 0 2220 2255" fill="none" xmlns="http://www.w3.org/2000/svg">
<g clip-path="url(#clip0_4227_845)">
<path d="M1895.59 1932.18C2327.65 1500.12 2327.65 799.607 1895.59 367.543C1463.53 -64.5198 763.013 -64.5198 330.95 367.543C-101.114 799.607 -101.114 1500.12 330.95 1932.18C763.013 2364.25 1463.53 2364.25 1895.59 1932.18Z" fill="#FFDB43"/>
<path d="M1691.99 205.671C1802.19 377.649 1866.04 582.205 1866.04 801.557C1866.04 1412.5 1370.75 1907.92 759.677 1907.92C547.463 1907.92 349.267 1848.09 180.924 1744.51C377.562 2051.48 721.647 2254.86 1113.24 2254.86C1724.18 2254.86 2219.6 1759.57 2219.6 1148.5C2219.6 749.639 2008.56 400.233 1692.12 205.542L1691.99 205.671Z" fill="#FFDB43"/>
<path d="M157.167 1266.61C157.167 699.279 617.028 239.418 1184.36 239.418C1515.98 239.418 1810.75 396.598 1998.56 640.482C1821.13 332.61 1488.73 125.328 1107.91 125.328C540.579 125.328 80.7178 585.19 80.7178 1152.52C80.7178 1388.23 160.152 1605.37 293.71 1778.65C206.878 1627.96 157.167 1453.12 157.167 1266.74V1266.61Z" fill="#FFE98A"/>
<path d="M787.063 881.51C787.063 957.44 750.591 1018.96 705.552 1018.96C660.513 1018.96 624.041 957.44 624.041 881.51C624.041 805.581 660.513 744.058 705.552 744.058C750.591 744.058 787.063 805.581 787.063 881.51Z" fill="#303030"/>
<path d="M1602.3 881.51C1602.3 957.44 1565.83 1018.96 1520.79 1018.96C1475.75 1018.96 1439.28 957.44 1439.28 881.51C1439.28 805.581 1475.75 744.058 1520.79 744.058C1565.83 744.058 1602.3 805.581 1602.3 881.51Z" fill="#303030"/>
<path d="M1113.23 1798.9C1223.55 1798.9 1312.99 1647.29 1312.99 1460.26C1312.99 1273.24 1223.55 1121.63 1113.23 1121.63C1002.91 1121.63 913.479 1273.24 913.479 1460.26C913.479 1647.29 1002.91 1798.9 1113.23 1798.9Z" fill="#695342"/>
<path d="M1281.84 1641.85C1136.08 1561.76 1017.45 1607.19 948.786 1652.62C984.869 1741.01 1044.96 1799.03 1113.24 1799.03C1181.51 1799.03 1246.4 1736.34 1281.84 1641.85Z" fill="#FF6248"/>
</g>
<defs>
<clipPath id="clip0_4227_845">
<rect width="2219.69" height="2255" fill="white"/>
</clipPath>
</defs>
</svg>
