<svg width="2306" height="2303" viewBox="0 0 2306 2303" fill="none" xmlns="http://www.w3.org/2000/svg">
<path d="M1939.57 1979.1C2398.01 1546.64 2419.06 824.427 1986.6 365.993C1554.14 -92.4402 831.931 -113.497 373.497 318.963C-84.9363 751.422 -105.992 1473.63 326.467 1932.07C758.926 2390.5 1481.14 2411.56 1939.57 1979.1Z" fill="#FFDB43"/>
<g style="mix-blend-mode:multiply" opacity="0.3">
<path d="M2161.87 999.692C2140.44 957.095 2083.4 973.87 2069.77 1012.02C2009.2 1180.93 1978.46 1367.39 1891.16 1525.57C1798.59 1693.47 1664.44 1824.6 1495.3 1913.36C1153.91 2092.78 744.29 2039 433.523 1823.31C421.005 1814.73 409.487 1832.94 417.992 1843.22C699.765 2177.21 1208.73 2293.37 1608.86 2112.27C1986.22 1941.53 2369.43 1412.75 2161.87 999.692Z" fill="#FFDB43"/>
</g>
<path opacity="0.2" d="M1978.5 522.014C1887.58 278.072 1586.92 126.318 1345.12 77.3996C1067.77 21.3959 791.779 90.4498 559.909 249.466C143.868 534.916 -77.0649 1186.94 227.708 1630.59C233.229 1638.48 245.877 1634.03 243.613 1623.99C189.761 1385.66 155.498 1164.01 217.653 923.136C277.606 690.725 426.39 498.182 626.96 367.781C823.73 239.889 1071.79 195.353 1301.92 241.225C1412.41 263.365 1518.4 306.086 1613.27 366.906C1713.79 431.322 1788.82 523.009 1883.18 594.615C1926.94 627.606 1996.21 572.207 1977.7 522.227L1978.5 522.014Z" fill="white"/>
<path opacity="0.1" d="M1655.35 1305.09C1628.23 1285.74 1590.01 1279.79 1557.97 1288.17C1490.17 1306.12 1446.37 1395.37 1488.89 1455.52C1494.67 1463.55 1507.84 1463.43 1510.7 1452.66C1519.84 1417.63 1531.67 1361.65 1574.64 1353.54C1592.69 1350.2 1605.11 1358.37 1619.57 1367.06C1623.56 1370.03 1627.99 1372.25 1632.6 1373.57C1633.61 1374.15 1634.08 1375.09 1635.44 1376.22C1641.29 1382.96 1644.73 1388.64 1652.5 1393.79C1661.78 1399.82 1675.33 1395.56 1680.71 1386.23C1695.4 1360.79 1677.22 1320.73 1655.35 1305.09Z" fill="white"/>
<path opacity="0.1" d="M1919.01 1206.77C1841.19 1198.45 1752.64 1282.01 1780.13 1362.38C1782.77 1370.61 1793.46 1374.78 1800.13 1367.88C1831.23 1336.12 1848.55 1262.49 1906.56 1273.14C1949.6 1281.2 1935.14 1344.05 1950.16 1373.89C1957.39 1388.13 1978.12 1390.03 1989.07 1379.22C2047.74 1320.06 1995.28 1214.87 1919.41 1206.66L1919.01 1206.77Z" fill="white"/>
<path d="M516.078 1209.34C516.078 1209.34 1120.46 1084.38 1779.04 1218.98C1779.04 1218.98 1852.44 1723.9 1112.1 1723.75C1112.1 1723.75 540.071 1747.82 516.007 1209.34H516.078Z" fill="#2C302F"/>
<mask id="mask0_4239_1507" style="mask-type:luminance" maskUnits="userSpaceOnUse" x="518" y="1156" width="1266" height="568">
<path d="M518.158 1209.34C518.158 1209.34 1122.54 1084.37 1781.12 1218.97C1781.12 1218.97 1854.52 1723.89 1114.18 1723.74C1114.18 1723.74 542.151 1747.81 518.087 1209.34H518.158Z" fill="white"/>
</mask>
<g mask="url(#mask0_4239_1507)">
<path d="M852.62 1163.57L873.113 1361.79C877.897 1407.92 894.892 1440.27 914.386 1440.27H1346.11C1364.6 1440.27 1381.02 1411.35 1386.81 1368.51C1394.95 1308.1 1405.73 1216.77 1411.23 1122.87L852.62 1163.57Z" fill="white"/>
<path d="M999.364 1953.89C1117.95 1953.89 1214.08 1865.65 1214.08 1756.81C1214.08 1647.96 1117.95 1559.73 999.364 1559.73C880.779 1559.73 784.646 1647.96 784.646 1756.81C784.646 1865.65 880.779 1953.89 999.364 1953.89Z" fill="#EF4747"/>
<path d="M1335.91 1950.68C1454.49 1950.68 1550.63 1862.45 1550.63 1753.6C1550.63 1644.76 1454.49 1556.52 1335.91 1556.52C1217.32 1556.52 1121.19 1644.76 1121.19 1753.6C1121.19 1862.45 1217.32 1950.68 1335.91 1950.68Z" fill="#EF4747"/>
<path d="M1103.55 1093.38V1474.19C1103.55 1505.11 1151.6 1505.18 1151.6 1474.19V1093.38C1151.6 1062.46 1103.55 1062.39 1103.55 1093.38Z" fill="#2C302F"/>
</g>
<path d="M834.969 765.416C834.969 840.247 799.025 900.879 754.638 900.879C710.251 900.879 674.307 840.247 674.307 765.416C674.307 690.585 710.251 629.953 754.638 629.953C799.025 629.953 834.969 690.585 834.969 765.416Z" fill="#303030"/>
<path d="M1638.41 765.416C1638.41 840.247 1602.47 900.879 1558.08 900.879C1513.69 900.879 1477.75 840.247 1477.75 765.416C1477.75 690.585 1513.69 629.953 1558.08 629.953C1602.47 629.953 1638.41 690.585 1638.41 765.416Z" fill="#303030"/>
</svg>
