<svg width="2211" height="2214" viewBox="0 0 2211 2214" fill="none" xmlns="http://www.w3.org/2000/svg">
<g clip-path="url(#clip0_4237_1412)">
<path d="M2016.11 1730.42C2361.44 1227.21 2233.45 539.32 1730.24 193.986C1227.02 -151.348 539.135 -23.3591 193.8 479.858C-151.534 983.074 -23.5448 1670.96 479.672 2016.29C982.888 2361.63 1670.77 2233.64 2016.11 1730.42Z" fill="#FFDB43"/>
<g style="mix-blend-mode:multiply" opacity="0.4">
<path d="M2098.4 1520.95C2228.1 1171.91 2087.89 945.745 1972.68 1260.68C1947.76 1328.5 1926.58 1517.73 1789.88 1675.49C1658.64 1826.92 1478.47 1971.55 1273.76 1989.32C820.191 2028.96 362.72 1756.93 187.176 1484.39C182.213 1476.56 167.017 1478.62 168.206 1489.47C206.933 1869.12 854.658 2177.36 1289.7 2141.26C1574.5 2117.78 1963.18 1884.63 2098.23 1520.85L2098.4 1520.95Z" fill="#FFDB43"/>
</g>
<path opacity="0.2" d="M1932.95 614.425C1902.13 158.493 1209.11 -24.3586 771.166 118.474C248.308 289.071 -34.5382 883.029 90.5368 1266.46C92.6915 1272.89 103.854 1272.34 103.256 1264.77C10.3712 228.259 1378.67 -199.512 1872.03 630.748C1887.78 657.455 1935.3 648.303 1932.95 614.425Z" fill="white"/>
<path d="M1612.8 778.47C1432.44 770.712 1364.13 958.614 1342.8 1104.71C1333.96 1166.13 1430.07 1170.87 1438.9 1109.88C1452.05 1019.81 1487.82 868.542 1607.63 876.084C1729.81 883.841 1720.97 1051.92 1715.59 1137.47C1711.71 1199.31 1807.81 1204.7 1811.69 1142.64C1820.74 1002.14 1798.33 786.227 1612.8 778.254V778.47Z" fill="#303030"/>
<path d="M632.769 706.082C452.409 698.325 384.1 886.227 362.767 1032.32C353.933 1093.74 450.038 1098.48 458.873 1037.5C472.018 947.424 507.788 796.154 627.597 803.696C749.777 811.454 740.942 979.531 735.555 1065.08C731.676 1126.92 827.782 1132.31 831.66 1070.25C840.711 929.754 818.3 713.84 632.769 705.867V706.082Z" fill="#303030"/>
<path d="M871.537 549.451C734.92 465.197 567.705 461.103 428.286 541.694C385.405 566.475 420.313 635.214 463.626 610.218C579.556 543.418 714.665 543.418 829.302 613.881C871.537 639.955 913.987 575.525 871.752 549.451H871.537Z" fill="#303030"/>
<path d="M1832.14 635.629C1701.34 542.54 1534.99 527.025 1390.4 598.135C1346.01 619.899 1376.17 690.793 1421 668.814C1541.02 609.771 1675.91 618.822 1785.59 696.827C1825.89 725.702 1872.65 664.289 1832.14 635.414V635.629Z" fill="#303030"/>
<path d="M1365.2 1260.96C1293.23 1256.01 1216.95 1274.97 1180.96 1343.92C1159.63 1384.86 1161.57 1428.82 1182.25 1464.16C1074.3 1538.94 1126.44 1763.04 1290.43 1720.8C1337.4 1708.74 1321.67 1634.61 1274.26 1646.68C1176.87 1671.67 1175.14 1521.48 1247.98 1516.53C1281.59 1514.15 1307.02 1468.04 1270.82 1447.14C1230.52 1407.06 1233.32 1374.09 1279.22 1348.02C1305.73 1336.17 1332.88 1332.5 1360.89 1337.03C1409.59 1340.26 1413.68 1264.62 1364.98 1261.39L1365.2 1260.96Z" fill="#303030"/>
</g>
<defs>
<clipPath id="clip0_4237_1412">
<rect width="2210.18" height="2214" fill="white"/>
</clipPath>
</defs>
</svg>
