<svg width="2239" height="2236" viewBox="0 0 2239 2236" fill="none" xmlns="http://www.w3.org/2000/svg">
<path d="M1911.16 1908.01C2347.34 1471.82 2347.34 764.622 1911.16 328.434C1474.97 -107.753 767.77 -107.753 331.582 328.434C-104.605 764.622 -104.605 1471.82 331.582 1908.01C767.77 2344.2 1474.97 2344.2 1911.16 1908.01Z" fill="#FFDB43"/>
<path d="M1705.66 164.967C1816.91 338.586 1881.38 545.095 1881.38 766.541C1881.38 1383.31 1381.35 1883.47 764.449 1883.47C550.209 1883.47 350.122 1823.06 180.172 1718.5C378.687 2028.39 726.057 2233.72 1121.38 2233.72C1738.16 2233.72 2238.31 1733.7 2238.31 1116.79C2238.31 714.127 2025.25 361.386 1705.79 164.836L1705.66 164.967Z" fill="#FFDB43"/>
<path d="M156.182 1236.04C156.182 663.293 620.433 199.042 1193.18 199.042C1527.97 199.042 1825.55 357.724 2015.15 603.935C1836.03 293.124 1500.45 83.8643 1116 83.8643C543.255 83.8643 79.0039 548.115 79.0039 1120.86C79.0039 1358.82 159.196 1578.04 294.03 1752.97C206.368 1600.84 156.182 1424.33 156.182 1236.17V1236.04Z" fill="#FFE98A"/>
<path d="M469.981 710.993L397.711 783.264L723.299 1108.85L795.569 1036.58L469.981 710.993Z" fill="#303030"/>
<path d="M795.491 783.414L723.221 711.144L397.633 1036.73L469.903 1109L795.491 783.414Z" fill="#303030"/>
<path d="M1519.32 710.968L1447.05 783.239L1772.64 1108.83L1844.91 1036.56L1519.32 710.968Z" fill="#303030"/>
<path d="M1844.96 783.315L1772.69 711.044L1447.1 1036.63L1519.37 1108.9L1844.96 783.315Z" fill="#303030"/>
<path d="M1121.38 1813.51C1232.76 1813.51 1323.04 1660.45 1323.04 1471.64C1323.04 1282.83 1232.76 1129.77 1121.38 1129.77C1010.01 1129.77 919.723 1282.83 919.723 1471.64C919.723 1660.45 1010.01 1813.51 1121.38 1813.51Z" fill="#695342"/>
<path d="M1291.59 1654.82C1144.44 1573.97 1024.68 1619.84 955.359 1665.7C991.787 1754.93 1052.46 1813.5 1121.38 1813.5C1190.3 1813.5 1255.82 1750.21 1291.59 1654.82Z" fill="#FF6248"/>
</svg>
