<svg width="2198" height="2169" viewBox="0 0 2198 2169" fill="none" xmlns="http://www.w3.org/2000/svg">
<g clip-path="url(#clip0_4227_59)">
<path d="M1651.19 2008.4C2161.58 1695.27 2321.48 1027.67 2008.35 517.287C1695.22 6.90166 1027.63 -153.004 517.24 160.129C6.85459 473.261 -153.051 1140.85 160.082 1651.24C473.214 2161.62 1140.81 2321.53 1651.19 2008.4Z" fill="#FFDB43"/>
<path d="M228.143 1326.25C200.369 1324.86 175.768 1308.2 155.929 1288.56C114.268 1247.29 98.3964 1184.4 93.8335 1125.88C89.2705 1067.35 95.8173 1013.99 130.536 966.572C149.184 941.178 179.934 917.371 209.891 927.489C234.095 935.623 246.792 962.802 248.974 988.196C251.156 1013.59 245.8 1039.18 247.387 1064.58C247.784 1069.93 247.784 1076.68 247.585 1084.42C255.323 1120.13 267.424 1154.84 283.891 1187.38C292.818 1205.04 302.936 1222.49 305.713 1241.94C311.665 1284.99 271.789 1328.43 228.342 1326.25H228.143Z" fill="#FFDB43"/>
<path d="M248.189 882.446C271.996 869.947 281.122 840.586 268.623 816.779C256.125 792.972 226.763 783.846 202.956 796.345C179.15 808.843 170.024 838.205 182.522 862.012C195.021 885.818 224.382 894.944 248.189 882.446Z" fill="#FFDB43"/>
<path d="M1671.63 297.388C1640.68 249.775 1596.44 214.461 1544.66 191.448C1544.26 191.448 1544.07 191.448 1543.67 191.25C1543.47 191.25 1543.27 190.853 1542.88 190.655C1381.39 122.607 1179.82 203.55 1128.44 376.347C1126.06 384.481 1137.17 388.647 1141.73 382.101C1142.72 380.712 1143.72 379.522 1144.71 378.133C1187.36 366.626 1229.82 354.525 1273.26 346.192C1319.29 337.265 1366.11 332.503 1412.73 327.147C1419.28 326.353 1423.44 317.426 1416.5 313.656C1370.47 288.064 1315.92 284.295 1264.93 293.619C1240.93 298.579 1216.92 306.514 1194.9 318.021C1243.31 270.209 1303.82 235.094 1371.67 222.794C1475.42 203.947 1580.37 239.855 1660.12 306.514C1666.08 311.474 1676.39 305.126 1671.63 297.785V297.388Z" fill="#1A6282"/>
<path d="M400.353 642.386C405.511 585.845 428.326 533.867 463.242 489.428C463.441 489.23 463.838 489.031 464.036 488.833C464.036 488.634 464.234 488.238 464.433 488.039C575.729 352.539 791.775 330.32 917.554 459.273C923.506 465.423 915.57 474.35 908.428 470.383C907.04 469.589 905.453 468.994 904.064 468.2C861.013 477.921 817.764 487.047 775.309 499.744C730.275 513.235 686.827 530.891 643.182 547.755C637.032 550.135 629.294 544.183 633.659 537.438C662.425 493.396 709.047 464.629 758.446 449.155C782.054 442.211 806.853 438.244 831.652 438.244C766.58 418.405 696.747 415.627 630.683 436.26C530.1 467.804 453.918 548.548 414.439 644.569C411.463 651.711 399.361 650.917 400.154 642.188L400.353 642.386Z" fill="#1A6282"/>
<path d="M710.821 1013.97C755.062 1050.28 815.571 1057.82 872.707 1060.39C1090.34 1069.92 1310.16 1026.07 1507.36 933.624C1574.61 902.08 1642.46 862.204 1680.55 798.521C1726.58 721.942 1720.43 630.485 1698.21 541.21C1673.01 553.708 1651.58 573.745 1630.95 593.188C1630.95 593.188 1459.74 814.194 1069.51 837.603C935.597 845.737 801.485 824.907 667.374 818.756C659.438 818.36 651.304 818.161 643.17 817.963C642.179 893.152 654.677 968.144 710.623 1013.97H710.821Z" fill="white"/>
<path d="M1880.34 619.77C1852.37 559.857 1783.92 515.021 1720.24 532.677C1712.7 534.86 1705.56 537.637 1698.62 541.208C1720.84 630.483 1726.99 721.941 1680.96 798.519C1674.02 810.026 1666.08 820.342 1657.35 830.261C1726.79 883.827 1780.95 953.858 1813.48 1033.61C1849.79 964.77 1876.37 890.77 1891.45 814.39C1904.15 749.517 1908.31 679.684 1880.34 619.77Z" fill="#BF3725"/>
<path d="M819.543 1055.64C779.865 1050.09 741.576 1038.98 711.024 1013.98C655.078 968.151 642.579 892.962 643.571 817.97C622.542 817.574 601.513 818.962 582.071 826.303C531.481 845.15 501.921 901.096 500.731 955.057C499.541 1009.02 521.959 1060.8 549.336 1107.22C613.813 1215.94 710.032 1304.22 821.923 1362.95C803.87 1313.15 793.951 1259.78 794.149 1204.43C794.347 1152.65 803.275 1102.66 819.543 1056.04V1055.64Z" fill="#BF3725"/>
<path d="M1082.8 1433.18C1012.18 1429.61 884.414 1395.68 821.723 1362.75C803.669 1312.95 793.75 1259.59 793.948 1204.24C794.147 1152.46 803.074 1102.46 819.342 1055.84C836.999 1058.22 855.052 1059.61 872.709 1060.4C1090.34 1069.93 1310.16 1026.08 1507.36 933.634C1562.71 907.843 1617.86 876.101 1657.14 830.273C1726.58 883.838 1780.74 953.869 1813.27 1033.62C1813.27 1033.62 1626.99 1460.56 1082.6 1432.98L1082.8 1433.18Z" fill="#A52920"/>
<path d="M1077.25 1433.17C1077.85 1325.44 1106.22 1289.54 1146.49 1250.06C1209.78 1187.96 1313.14 1196.09 1360.95 1225.85C1368.09 1139.75 1415.71 1107.61 1500.02 1089.16C1571.84 1073.49 1647.23 1081.23 1716.07 1107.22C1870.02 1148.08 1987.66 1258.39 2089.63 1388.93C2168.4 1489.91 2209.07 1616.88 2194.78 1744.05C2183.87 1841.06 2143.6 1922.4 2050.75 1974.57C1924.97 2045.4 1758.92 2037.46 1640.48 1954.93C1566.68 1903.55 1513.31 1828.16 1464.31 1752.78C1415.31 1677.39 1368.09 1599.22 1302.43 1537.72C1241.72 1480.78 1188.35 1433.17 1108.4 1433.96L1077.05 1432.97L1077.25 1433.17Z" fill="#FF6248"/>
<path d="M1694.04 1481.98C1686.3 1458.17 1673.21 1435.56 1659.52 1414.92C1625.2 1363.54 1579.77 1320.49 1527.79 1287.36C1487.12 1261.37 1442.28 1241.73 1396.26 1227.25C1390.11 1225.26 1384.95 1226.85 1381.18 1230.03C1380.39 1230.62 1379.79 1231.41 1379.19 1232.01C1378.6 1232.6 1378 1233.2 1377.61 1233.79C1377.21 1234.39 1376.42 1234.79 1376.02 1235.58C1372.05 1242.33 1373.44 1252.44 1379.59 1257.8C1379.99 1258 1380.19 1258.39 1380.58 1258.59C1381.18 1258.99 1381.77 1259.78 1382.57 1260.18C1402.8 1269.31 1422.05 1281.21 1440.7 1293.11C1489.1 1323.86 1533.74 1359.77 1575.01 1399.65C1607.14 1430.8 1636.9 1464.32 1664.28 1499.64C1675.39 1514.12 1699.79 1498.45 1694.44 1482.18L1694.04 1481.98Z" fill="#BF3725"/>
<path d="M2024.57 1475.24C2041.43 1473.65 2057.9 1481.78 2071.58 1491.9C2100.35 1513.33 2115.43 1550.03 2123.17 1585.14C2130.9 1620.26 2131.5 1653.19 2114.63 1684.73C2105.51 1701.8 2088.84 1718.66 2070 1715.29C2054.72 1712.51 2044.6 1697.04 2041.23 1681.96C2037.66 1666.68 2038.65 1650.81 2035.68 1635.53C2035.08 1632.36 2034.49 1628.19 2033.89 1623.63C2026.15 1602.8 2015.84 1582.76 2003.14 1564.31C1996.2 1554.39 1988.66 1544.67 1985.28 1533.17C1977.94 1507.57 1998.38 1477.81 2024.96 1475.43L2024.57 1475.24Z" fill="#FF8B7B"/>
<path d="M2050.55 1745.45C2037.26 1754.97 2034.28 1773.62 2043.81 1786.91C2053.33 1800.2 2071.98 1803.18 2085.27 1793.66C2098.56 1784.13 2101.54 1765.48 2092.02 1752.19C2082.49 1738.9 2063.84 1735.92 2050.55 1745.45Z" fill="#FF8B7B"/>
</g>
<defs>
<clipPath id="clip0_4227_59">
<rect width="2197.76" height="2168.6" fill="white"/>
</clipPath>
</defs>
</svg>
