<svg width="2214" height="2214" viewBox="0 0 2214 2214" fill="none" xmlns="http://www.w3.org/2000/svg">
<path d="M1107 2214C1718.38 2214 2214 1718.38 2214 1107C2214 495.621 1718.38 0 1107 0C495.621 0 0 495.621 0 1107C0 1718.38 495.621 2214 1107 2214Z" fill="#FFDB43"/>
<path d="M1107 2108.17C1655.6 2108.17 2100.33 1663.44 2100.33 1114.84C2100.33 566.239 1655.6 121.51 1107 121.51C558.399 121.51 113.67 566.239 113.67 1114.84C113.67 1663.44 558.399 2108.17 1107 2108.17Z" fill="#FFDB43"/>
<path d="M57.4395 1138.21C57.4395 1138.21 233.824 1797.91 939.663 1912.94C1797.31 2052.84 2054.5 1476.8 2054.5 1476.8C2054.5 1476.8 1902.99 2197.12 1008.71 2127.77C94.3745 2056.76 57.4395 1138.21 57.4395 1138.21Z" fill="#FFE98A"/>
<path d="M656.242 1184.34C656.242 1184.34 1565.9 1161.27 1584.45 1192.03C1602.99 1222.78 1522.03 1547.21 1170.62 1627.41C819.209 1707.61 532.924 1196.7 656.242 1184.34Z" fill="#261D2A"/>
<path d="M600.314 1029.97C597.902 1029.97 595.49 1029.97 592.927 1029.97C404.483 1023.63 358.351 811.069 360.311 699.66C360.613 678.856 378.251 661.971 398.603 662.574C419.407 662.876 435.991 680.062 435.689 700.866C435.689 710.967 433.88 949.161 595.49 954.588C627.3 955.644 652.928 945.845 674.185 924.437C737.201 860.818 745.04 712.475 742.628 660.765C741.723 639.961 757.854 622.323 778.658 621.418C799.463 620.514 817.101 636.644 818.006 657.449C818.458 666.343 826.599 877.552 727.854 977.503C693.331 1012.48 650.365 1030.12 600.314 1030.12V1029.97Z" fill="#261D2A"/>
<path d="M1568.01 1029.97C1517.96 1029.97 1475.15 1012.33 1440.47 977.352C1341.58 877.401 1349.87 666.343 1350.32 657.297C1351.23 636.493 1368.56 620.513 1389.67 621.267C1410.47 622.171 1426.61 639.81 1425.7 660.614C1423.44 712.474 1431.43 860.969 1494.29 924.286C1515.4 945.693 1541.18 955.492 1572.84 954.437C1734.45 949.01 1732.64 710.816 1732.64 700.715C1732.34 679.911 1748.92 662.725 1769.73 662.423C1790.38 662.423 1807.72 678.554 1808.02 699.358C1809.98 810.918 1764 1023.33 1575.4 1029.66C1572.99 1029.66 1570.58 1029.66 1568.01 1029.66V1029.97Z" fill="#261D2A"/>
<path d="M769.461 1467.01C769.461 1467.01 933.483 1337.81 1125.55 1348.36C1317.61 1358.76 1454.34 1473.79 1444.24 1486.75C1430.53 1504.39 1255.65 1672.49 1063.74 1637.51C871.824 1602.54 791.019 1523.69 769.461 1467.01Z" fill="#FF6248"/>
<path d="M655.186 1307.05C655.186 1307.05 1146.2 1291.67 1575.7 1307.05C1575.7 1307.05 1629.37 1199.71 1591.08 1168.96C1552.79 1138.2 609.205 1138.2 609.205 1168.96C609.205 1199.71 616.894 1291.67 655.186 1307.05Z" fill="#FFDB43"/>
</svg>
