<svg width="2261" height="2337" viewBox="0 0 2261 2337" fill="none" xmlns="http://www.w3.org/2000/svg">
<g clip-path="url(#clip0_4227_730)">
<path d="M1929.17 2005.02C2370.42 1563.77 2370.42 848.352 1929.17 407.099C1487.92 -34.1545 772.502 -34.1545 331.249 407.099C-110.004 848.352 -110.004 1563.77 331.249 2005.02C772.502 2446.27 1487.92 2446.27 1929.17 2005.02Z" fill="#FFDB43"/>
<path d="M1929.17 2005.02C2370.42 1563.77 2370.42 848.352 1929.17 407.099C1487.92 -34.1545 772.502 -34.1545 331.249 407.099C-110.004 848.352 -110.004 1563.77 331.249 2005.02C772.502 2446.27 1487.92 2446.27 1929.17 2005.02Z" fill="#FFDB43"/>
<path d="M2032.55 1168.96C2032.55 1229.39 2108.98 1278.49 2203.45 1278.49C2222.6 1278.49 2240.83 1276.44 2258.12 1272.72C2262.21 1203.73 2259.98 1133.81 2251.06 1064.07C2235.99 1061.29 2220 1059.61 2203.63 1059.61C2109.35 1059.61 2032.74 1108.71 2032.74 1169.14L2032.55 1168.96Z" fill="#EA643B"/>
<g style="mix-blend-mode:multiply" opacity="0.84">
<path d="M1567.28 1946.65C991.916 2188.03 329.709 1917.45 88.3314 1342.09C48.9076 1248.36 23.4309 1152.22 10.4137 1055.9C-15.6209 1248.74 7.62424 1450.69 88.3314 1643.16C329.709 2218.52 991.916 2489.28 1567.28 2247.72C2048.92 2045.58 2316.7 1548.88 2249.76 1054.78C2197.87 1438.6 1950.17 1785.79 1567.28 1946.65Z" fill="#BCBEC0"/>
</g>
<path d="M894.095 758.183C876.056 691.981 886.842 615.365 928.683 551.209C947.651 520.525 974.43 493.561 1005.11 471.617C1035.61 450.604 1071.32 435.727 1107.76 428.474C1180.47 414.899 1255.6 435.355 1304.88 475.894C1330.55 496.722 1351.93 521.455 1367.92 549.163C1382.61 578.545 1393.96 609.601 1396 642.33L1391.91 643.26C1373.32 583.194 1336.5 530.567 1286.29 496.536C1238.49 463.249 1174.34 447.628 1113.34 460.088C1050.86 471.431 992.84 511.599 956.02 563.668C916.038 619.271 896.326 688.262 898.744 757.068L894.095 758.183Z" fill="#262320"/>
<mask id="mask0_4227_730" style="mask-type:luminance" maskUnits="userSpaceOnUse" x="1747" y="490" width="369" height="573">
<path d="M1748.03 660.746C1741.71 810.258 1825.02 992.872 1939.2 1047.92C2058.21 1105.19 2135.76 989.711 2111.58 816.209C2090.94 667.998 2001.68 533.734 1912.23 499.145C1825.58 465.672 1753.24 531.503 1747.84 660.56L1748.03 660.746Z" fill="white"/>
</mask>
<g mask="url(#mask0_4227_730)">
<path d="M1748.03 660.746C1741.71 810.258 1825.02 992.872 1939.2 1047.92C2058.22 1105.19 2135.76 989.711 2111.59 816.209C2090.95 667.998 2001.69 533.734 1912.24 499.145C1825.58 465.672 1753.24 531.503 1747.85 660.56L1748.03 660.746Z" fill="white"/>
<path d="M1882.89 1034.21C1967.57 1031.28 2032.83 930.887 2028.65 809.975C2024.47 689.062 1952.43 593.416 1867.75 596.344C1783.07 599.271 1717.82 699.663 1722 820.576C1726.18 941.488 1798.21 1037.13 1882.89 1034.21Z" fill="#753BB0"/>
<path d="M2006.52 860.091C2009.5 843.726 1977.7 816.018 1969.7 837.031C1961.7 858.045 1894.76 1030.43 1816.1 921.086C1737.62 811.741 1808.66 747.026 1798.8 729.918C1788.95 712.809 1757.33 684.915 1753.99 701.838C1750.64 718.76 1707.5 896.539 1795.27 974.643C1883.04 1052.56 1981.42 1000.31 2006.52 860.091Z" fill="#8E48D7"/>
<path d="M1808.47 755.599C1786.16 807.482 1798.06 876.288 1835.07 909.389C1872.07 942.49 1920.05 927.241 1942.18 875.358C1964.5 823.475 1952.59 754.669 1915.59 721.568C1878.58 688.467 1830.6 703.716 1808.47 755.599Z" fill="#3B1E5A"/>
<path d="M2030.7 696.259C2069.38 727.5 2072.35 746.469 2061.57 759.486C2050.78 772.503 1953.15 789.426 1951.85 760.788C1950.55 732.15 1994.81 667.249 2030.88 696.259H2030.7Z" fill="#F0FFE6"/>
</g>
<path d="M2113.44 816.955C2114.74 752.985 2094.47 676.183 2055.05 609.237C2037.01 577.251 2013.95 548.055 1989.22 523.509C1964.67 500.077 1937.52 482.039 1911.12 471.439C1858.49 451.356 1809.58 464.931 1782.06 501.193C1767.55 519.789 1756.95 542.849 1750.44 569.069C1745.24 597.149 1742.45 627.461 1746.73 660.004L1749.7 661.306C1752.49 602.728 1769.41 553.262 1798.61 523.509C1826.32 494.499 1868.16 484.643 1912.79 502.495C1957.98 519.417 2004.47 564.42 2038.68 619.279C2075.5 677.67 2100.42 747.778 2110.28 815.653L2113.63 817.141L2113.44 816.955Z" fill="#262320"/>
<mask id="mask1_4227_730" style="mask-type:luminance" maskUnits="userSpaceOnUse" x="896" y="452" width="512" height="573">
<path d="M1393.95 642.88C1440.07 795.74 1364.01 972.031 1210.22 1015.55C1048.62 1061.29 904.133 933.723 896.322 757.618C889.628 607.175 988.745 480.536 1112.6 456.919C1231.8 434.045 1353.97 510.847 1393.77 642.88H1393.95Z" fill="white"/>
</mask>
<g mask="url(#mask1_4227_730)">
<path d="M1393.95 642.88C1440.07 795.74 1364.01 972.031 1210.22 1015.55C1048.62 1061.29 904.133 933.723 896.322 757.618C889.628 607.175 988.745 480.536 1112.6 456.919C1231.8 434.045 1353.97 510.847 1393.77 642.88H1393.95Z" fill="white"/>
<path d="M961.599 635.642C901.72 735.503 922.547 871.813 1008.09 940.246C1093.63 1008.68 1211.53 983.203 1271.22 883.342C1331.1 783.481 1310.28 647.172 1224.73 578.738C1139.19 510.304 1021.29 535.781 961.599 635.642Z" fill="#753BB0"/>
<path d="M1275.32 810.428C1279.78 794.249 1242.59 765.054 1231.43 785.695C1220.27 806.337 1127.85 975.19 1037.47 862.311C947.283 749.433 1038.4 688.066 1027.43 670.399C1016.27 652.733 979.082 623.351 974.061 640.274C969.04 657.196 905.441 832.557 1009.02 914.752C1112.42 996.761 1236.64 949.155 1275.5 810.428H1275.32Z" fill="#8E48D7"/>
<path d="M1037.66 696.452C1007.16 747.219 1017.76 816.583 1061.27 851.358C1104.79 886.132 1164.67 873.115 1195.16 822.348C1225.66 771.58 1215.06 702.217 1171.55 667.442C1128.03 632.667 1068.15 645.685 1037.66 696.452Z" fill="#3B1E5A"/>
<path d="M1314.55 647.926C1360.48 681.027 1362.9 700.181 1348.77 712.454C1334.63 724.913 1213.57 737.187 1213.57 708.549C1213.57 679.911 1271.97 617.242 1314.55 647.926Z" fill="#F0FFE6"/>
</g>
<path d="M1534.55 1566.74C1370.35 1552.05 1265.84 1499.24 1203.54 1433.78C1409.77 1427.83 1600.57 1465.95 1748.04 1539.04C1686.11 1561.72 1614.14 1573.81 1534.55 1566.74Z" fill="#EA643B"/>
<path d="M1165.98 1134.37C1233.85 1070.22 1461.84 1295.79 1615.82 1313.45C1772.02 1331.49 1942.92 1190.72 1990.53 1264.18C2025.86 1318.48 1925.63 1474.31 1748.03 1539.21C1600.57 1466.13 1409.77 1428.01 1203.54 1433.96C1094.38 1319.41 1122.27 1175.84 1165.98 1134.37Z" fill="#10011E"/>
<path d="M1573.79 1385.41C1317.35 1353.98 1211.53 1234.41 1182.71 1125.25C1266.02 1101.26 1472.81 1296.89 1616 1313.26C1753.98 1329.06 1903.68 1221.02 1968.95 1246.31C1894.76 1327.95 1754.17 1407.35 1573.97 1385.41H1573.79Z" fill="#EFEFEF"/>
<path d="M886.666 239.89C944.5 177.407 1013.31 130.916 1090.85 96.1417C1168.4 61.367 1261.01 39.0517 1327.95 100.791C1347.85 119.201 1375.37 95.9558 1364.21 72.5247C1313.26 -34.403 1176.02 -2.23172 1091.6 37.378C1002.33 79.2193 926.276 146.909 868.07 225.757C860.073 236.542 877.74 249.56 886.666 239.89Z" fill="#1C0F12"/>
<g style="mix-blend-mode:multiply" opacity="0.84">
<path d="M553.041 240.817C453.552 544.491 378.237 854.675 327.656 1170.25C325.424 1184.57 347.554 1188.29 349.785 1173.97C399.995 860.439 474.565 551.93 573.496 250.115C577.96 236.54 557.504 227.056 553.041 240.817Z" fill="#BCBEC0"/>
</g>
<path d="M759.836 1243.69C854.22 1243.69 930.734 1194.66 930.734 1134.16C930.734 1073.67 854.22 1024.63 759.836 1024.63C665.451 1024.63 588.938 1073.67 588.938 1134.16C588.938 1194.66 665.451 1243.69 759.836 1243.69Z" fill="#EA643B"/>
</g>
<defs>
<clipPath id="clip0_4227_730">
<rect width="2260.17" height="2336.04" fill="white"/>
</clipPath>
</defs>
</svg>
