<svg width="2251" height="2236" viewBox="0 0 2251 2236" fill="none" xmlns="http://www.w3.org/2000/svg">
<path d="M2210.64 1286.77C2307.93 687.367 1900.89 122.579 1301.49 25.282C702.085 -72.0151 137.297 335.023 40 934.428C-57.297 1533.83 349.742 2098.62 949.146 2195.92C1548.55 2293.21 2113.34 1886.18 2210.64 1286.77Z" fill="#FFDB43"/>
<path d="M1700.12 171.941C1809.64 342.855 1873.1 546.146 1873.1 764.141C1873.1 1371.3 1380.87 1863.66 773.579 1863.66C562.678 1863.66 365.708 1804.2 198.406 1701.26C393.828 2006.33 735.785 2208.46 1124.95 2208.46C1732.11 2208.46 2224.48 1716.23 2224.48 1108.94C2224.48 712.545 2014.73 365.3 1700.25 171.812L1700.12 171.941Z" fill="#FFDB43"/>
<path d="M174.935 1226.32C174.935 662.497 631.952 205.481 1195.77 205.481C1525.35 205.481 1818.29 361.689 2004.94 604.064C1828.61 298.097 1498.26 92.0972 1119.8 92.0972C555.976 92.0972 98.959 549.114 98.959 1112.94C98.959 1347.18 177.902 1562.99 310.634 1735.19C224.339 1585.43 174.935 1411.68 174.935 1226.45V1226.32Z" fill="#FFE98A"/>
<path d="M634.693 1400.83C662.434 1646.97 871.367 1838.31 1124.96 1838.31C1378.54 1838.31 1587.34 1646.97 1615.22 1400.83H634.693Z" fill="#695342"/>
<path d="M786.385 1703.67C874.748 1787.16 993.83 1838.45 1124.95 1838.45C1256.08 1838.45 1365.01 1791.49 1452.02 1714.36L1447.55 1703.81C1118.32 1543.32 790.85 1701.64 786.385 1703.81V1703.67Z" fill="#FF6248"/>
<path d="M965.957 829.37C965.957 829.37 965.957 828.288 965.957 827.611C965.957 721.115 888.961 623.55 773.127 623.55C681.11 623.55 627.659 689.721 609.526 751.562C591.258 689.586 537.942 623.55 445.925 623.55C330.092 623.55 253.095 721.115 253.095 827.611C253.095 828.152 253.095 828.694 253.095 829.37C252.418 852.51 253.094 1088.37 609.39 1280.53C965.822 1088.24 966.363 852.51 965.686 829.235L965.957 829.37Z" fill="#FF6248"/>
<path d="M1996.82 829.37C1996.82 829.37 1996.82 828.288 1996.82 827.611C1996.82 721.115 1919.82 623.55 1803.99 623.55C1711.97 623.55 1658.52 689.721 1640.39 751.562C1622.12 689.586 1568.8 623.55 1476.79 623.55C1360.95 623.55 1283.96 721.115 1283.96 827.611C1283.96 828.152 1283.96 828.694 1283.96 829.37C1283.28 852.51 1283.96 1088.37 1640.25 1280.53C1996.68 1088.24 1997.22 852.51 1996.55 829.235L1996.82 829.37Z" fill="#FF6248"/>
</svg>
