<svg width="3209" height="2409" viewBox="0 0 3209 2409" fill="none" xmlns="http://www.w3.org/2000/svg">
<path d="M2433.18 1991.05C2861.69 1562.54 2861.69 867.79 2433.18 439.279C2004.67 10.7685 1309.92 10.7685 881.405 439.279C452.894 867.79 452.894 1562.54 881.405 1991.05C1309.92 2419.57 2004.67 2419.57 2433.18 1991.05Z" fill="#FFDB43"/>
<path d="M2231.32 278.677C2340.61 449.241 2403.94 652.115 2403.94 869.664C2403.94 1475.58 1912.72 1966.93 1306.67 1966.93C1096.2 1966.93 899.635 1907.59 732.676 1804.87C927.697 2109.31 1268.95 2311.02 1657.32 2311.02C2263.24 2311.02 2754.59 1819.8 2754.59 1213.75C2754.59 818.173 2545.28 471.639 2231.45 278.548L2231.32 278.677Z" fill="#FFDB43"/>
<path d="M709.119 1330.89C709.119 768.225 1165.33 312.144 1727.87 312.144C2056.76 312.144 2349.1 468.033 2535.37 709.911C2359.53 404.442 2029.73 198.864 1652.05 198.864C1089.38 198.864 633.299 654.945 633.299 1217.61C633.299 1451.38 712.08 1666.74 844.54 1838.59C758.422 1689.14 709.119 1515.74 709.119 1330.89Z" fill="#FFE98A"/>
<path d="M2325.82 1390.64C2320 1581.65 2236.66 1752.64 2106.12 1873.24C1996.3 1975.08 1853.03 2041.23 1695.26 2053.54C1672.9 2055.3 1650.41 2055.97 1627.59 2055.57C1553.02 2054.23 1481.34 2040.86 1414.47 2017.43C1285.22 1972.22 1173.93 1889.71 1093.19 1782.74C1005.49 1666.3 953.904 1521.16 955.078 1364.61L2325.8 1390.45L2325.82 1390.64Z" fill="#4A1801"/>
<path d="M1695.78 2041.83C1695.73 2045.72 1695.49 2049.64 1695.44 2053.53C1673.08 2055.29 1650.59 2055.96 1627.77 2055.56C1553.19 2054.22 1481.51 2040.85 1414.65 2017.42C1285.39 1972.2 1174.11 1889.7 1093.37 1782.73C1158.93 1718.23 1249.4 1679.03 1348.66 1680.9C1406.72 1681.95 1461.4 1696.95 1509.3 1722.64C1622.45 1783.61 1698.46 1904.15 1695.92 2041.44L1695.78 2041.83Z" fill="#F3725F"/>
<path d="M2106.15 1873.24C1996.34 1975.07 1853.07 2041.23 1695.29 2053.54C1672.94 2055.3 1650.45 2055.97 1627.63 2055.57C1553.05 2054.23 1481.37 2040.86 1414.51 2017.43C1411.78 1999.08 1410.65 1980.16 1410.97 1961.06C1412.77 1868.47 1449.79 1784.87 1509 1722.85C1574.94 1654.04 1668.52 1611.67 1771.49 1613.62C1931.98 1616.69 2065.4 1725.96 2106.13 1873.05L2106.15 1873.24Z" fill="#F3725F"/>
<path d="M980.882 800.134L1233.78 970.684L975.725 1071.2" stroke="#4A1801" stroke-width="80.406" stroke-linecap="round" stroke-linejoin="round"/>
<path d="M2336.56 825.69L2077.37 986.508L2331.42 1096.94" stroke="#4A1801" stroke-width="80.406" stroke-linecap="round" stroke-linejoin="round"/>
<path d="M741.492 1638.21L753.68 1071.77L239.614 1375.09C188.343 1403.88 143.836 1446.43 112.555 1501.16C19.4986 1662.85 75.2591 1869.28 236.946 1962.33C398.633 2055.39 605.056 1999.63 698.113 1837.94C734.262 1774.99 747.914 1705.5 741.515 1638.4L741.492 1638.21Z" fill="#7CC4E8"/>
<path d="M2495.97 1681.95L2505.18 1115.33L3007.46 1437.82C3057.68 1468.57 3100.37 1512.69 3129.75 1568.51C3216.47 1733.57 3153.14 1937.9 2987.9 2024.64C2822.84 2111.37 2618.51 2048.03 2531.77 1882.79C2497.99 1818.65 2487.14 1748.6 2495.95 1681.77L2495.97 1681.95Z" fill="#7CC4E8"/>
</svg>
