<svg width="2224" height="2346" viewBox="0 0 2224 2346" fill="none" xmlns="http://www.w3.org/2000/svg">
<path d="M1897.88 1960.46C2331.82 1526.52 2331.82 822.962 1897.88 389.02C1463.94 -44.9223 760.38 -44.9224 326.438 389.02C-107.504 822.962 -107.504 1526.52 326.438 1960.46C760.38 2394.41 1463.94 2394.41 1897.88 1960.46Z" fill="#FFDB43"/>
<path d="M343.517 1427.36C360.304 1471.7 317.973 1528.62 249.186 1554.9C180.216 1580.99 110.699 1566.39 94.0951 1522.05C77.4913 1477.72 119.639 1420.79 188.427 1394.52C257.396 1368.42 326.914 1383.02 343.517 1427.36Z" fill="#D74F48"/>
<path d="M268.529 1273.14C211.601 1238.84 164.892 1172.79 148.47 1088.13C139.347 1046.35 139.165 1000 146.463 954.021C154.491 908.041 172.19 862.791 197.187 824.292C248.458 747.477 328.558 706.606 399.17 711.715C434.567 713.904 468.139 723.939 498.245 740.908C527.256 760.431 553.896 783.604 573.236 814.804L570.682 818.818C522.695 772.656 461.206 746.199 397.528 749.849C334.397 752.768 268.711 789.077 226.928 853.303C184.05 916.434 168.541 1002.01 179.488 1077.73C189.889 1154.18 224.008 1221.69 271.266 1268.95L268.711 1272.96L268.529 1273.14Z" fill="#4A0F00"/>
<mask id="mask0_4251_2391" style="mask-type:luminance" maskUnits="userSpaceOnUse" x="172" y="745" width="498" height="598">
<path d="M461.672 1340.53C596.939 1321.91 688.319 1174.09 665.777 1010.37C643.234 846.653 515.304 729.033 380.037 747.658C244.77 766.284 153.39 914.102 175.933 1077.82C198.476 1241.54 326.406 1359.16 461.672 1340.53Z" fill="white"/>
</mask>
<g mask="url(#mask0_4251_2391)">
<path d="M461.672 1340.53C596.939 1321.91 688.319 1174.09 665.777 1010.37C643.234 846.653 515.304 729.033 380.037 747.658C244.77 766.284 153.39 914.102 175.933 1077.82C198.476 1241.54 326.406 1359.16 461.672 1340.53Z" fill="#FFF8E6"/>
<path d="M503.681 1264.09C610.57 1261.63 694.687 1149.71 691.562 1014.11C688.438 878.506 599.255 770.577 492.366 773.04C385.478 775.503 301.361 887.426 304.486 1023.03C307.61 1158.63 396.793 1266.55 503.681 1264.09Z" fill="#3B86B0"/>
<path d="M335.498 1076.09C330.754 1058.02 368.888 1025 380.383 1048.17C391.878 1071.34 487.304 1260.37 579.264 1133.56C671.406 1006.75 577.622 938.331 588.934 918.443C600.247 898.737 638.381 865.712 643.672 884.506C648.964 903.299 714.649 1099.99 608.823 1192.32C502.996 1284.64 375.822 1231.54 335.316 1076.27L335.498 1076.09Z" fill="#48A5D7"/>
<path d="M578.531 947.626C609.914 1004.37 599.331 1082.28 554.811 1121.33C510.291 1160.37 448.984 1146.14 417.601 1089.4C386.218 1032.65 396.801 954.742 441.321 915.695C485.841 876.649 547.148 890.881 578.531 947.626Z" fill="#1E455A"/>
<path d="M286.043 1036.5C272.176 1097.98 282.941 1116.23 302.1 1116.6C321.44 1116.96 424.165 1039.78 405.007 1015.33C386.031 990.881 298.815 979.386 285.861 1036.68L286.043 1036.5Z" fill="#FFF8E6"/>
</g>
<path d="M1478.41 807.333C1508.88 743.654 1511.25 661.365 1475.31 584.185C1458.52 545.321 1430.79 508.829 1396.85 477.263C1362.19 446.245 1319.12 421.796 1273.69 407.746C1181.55 380.195 1085.21 399.718 1025 449.347C994.529 473.797 970.444 503.537 953.658 536.38C939.244 570.5 929.209 605.897 930.668 642.937L935.412 644.396C950.739 577.069 990.15 516.492 1049.45 478.358C1108.02 439.859 1188.48 426.175 1264.57 449.894C1340.84 471.972 1405.98 529.447 1441.56 596.227C1478.05 663.19 1487.72 738.363 1473.67 806.238L1478.41 807.698V807.333Z" fill="#4A0F00"/>
<mask id="mask1_4251_2391" style="mask-type:luminance" maskUnits="userSpaceOnUse" x="926" y="433" width="557" height="584">
<path d="M1338.52 988.59C1473.16 920.107 1522.27 746.563 1448.22 600.967C1374.16 455.371 1204.98 392.859 1070.34 461.342C935.703 529.825 886.592 703.37 960.649 848.966C1034.71 994.561 1203.89 1057.07 1338.52 988.59Z" fill="white"/>
</mask>
<g mask="url(#mask1_4251_2391)">
<path d="M1338.52 988.59C1473.16 920.107 1522.27 746.563 1448.22 600.967C1374.16 455.371 1204.98 392.859 1070.34 461.342C935.703 529.825 886.592 703.37 960.649 848.966C1034.71 994.561 1203.89 1057.07 1338.52 988.59Z" fill="#FFF8E6"/>
<path d="M1382.08 541.504C1481.34 622.881 1507.98 774.322 1441.56 879.784C1375.15 985.245 1240.86 1004.59 1141.6 923.209C1042.34 841.832 1015.7 690.391 1082.12 584.929C1148.53 479.467 1282.82 460.127 1382.08 541.504Z" fill="#3B86B0"/>
<path d="M1111.31 848.026C1100.73 832.882 1129.92 787.449 1149.08 804.783C1168.42 822.117 1326.98 963.34 1382.45 809.344C1437.92 655.349 1319.14 626.702 1324.61 603.895C1330.08 581.088 1359.28 535.473 1370.59 551.164C1381.9 566.856 1512.18 726.325 1431.53 853.135C1350.88 979.944 1202 978.484 1111.13 848.026H1111.31Z" fill="#48A5D7"/>
<path d="M1322.96 635.284C1373.5 676.702 1387.01 753.7 1353.25 807.344C1319.5 860.987 1251.26 870.84 1200.71 829.421C1150.17 788.003 1136.67 711.005 1170.43 657.362C1204.18 603.719 1272.42 593.866 1322.96 635.284Z" fill="#1E455A"/>
<path d="M1015.33 673.613C982.674 727.621 988.695 748.056 1009.13 754.077C1029.57 760.099 1161.3 717.768 1148.16 688.939C1135.03 660.111 1045.62 623.436 1015.15 673.613H1015.33Z" fill="#FFF8E6"/>
</g>
<g style="mix-blend-mode:multiply" opacity="0.84">
<path d="M1235.93 1985.47C678.152 2070.68 154.128 1724.92 1.40918 1197.06C2.50394 1245.05 6.15313 1293.58 13.634 1342.48C106.141 1949.16 673.043 2365.9 1279.72 2273.39C1886.4 2180.88 2303.14 1613.98 2210.63 1007.3C2203.15 958.586 2192.38 911.147 2179.06 864.984C2190.74 1414.37 1793.89 1900.63 1235.93 1985.83V1985.47Z" fill="#BCBEC0"/>
</g>
<path d="M1697.55 741.456C1724.55 780.32 1697.18 846.006 1636.61 887.789C1576.03 929.754 1505.05 932.126 1478.05 893.263C1451.05 854.399 1478.42 788.713 1538.99 746.93C1599.57 704.964 1670.55 702.592 1697.55 741.456Z" fill="#D74F48"/>
<path d="M1117.15 1368.6C1237.03 1346.88 1336.47 1361.3 1414.19 1394.32C1472.58 1281.2 1474.41 1164.24 1407.44 1087.79C1374.96 1050.75 1340.3 1035.61 1304.35 1034.51C1252.9 1178.29 1107.48 1326.81 889.44 1388.85C747.486 1429.17 630.347 1414.03 543.131 1373.7C529.082 1385.2 517.405 1399.43 509.376 1417.86C476.899 1492.3 538.023 1614.92 670.671 1678.59C736.539 1541.2 895.279 1408.74 1117.33 1368.6H1117.15Z" fill="#4A0F00"/>
<path d="M889.433 1388.84C1107.47 1326.8 1252.89 1178.28 1304.35 1034.5C1183.38 1030.85 1044.34 1192.69 896.914 1275.89C784.519 1339.21 622.495 1308.55 543.125 1373.69C630.523 1414.02 747.48 1429.34 889.433 1388.84Z" fill="#EFEFEF"/>
<path d="M1022.09 1696.47C1213.67 1641.92 1349.06 1520.58 1414.2 1394.32C1336.47 1361.29 1237.03 1346.88 1117.15 1368.59C895.098 1408.73 736.358 1541.2 670.49 1678.59C758.253 1720.92 877.217 1737.52 1022.09 1696.47Z" fill="#EA643B"/>
<path d="M84.9796 813.727C84.6147 769.39 98.4816 731.256 123.661 694.764C146.286 662.103 173.108 632.545 203.031 606.271C232.954 579.997 269.081 554.452 307.033 537.666C326.009 529.273 345.897 522.522 366.515 519.055C387.133 515.588 408.48 511.027 428.734 512.122C443.695 512.851 457.927 506.83 462.489 491.139C466.503 477.454 460.664 460.303 446.432 454.829C420.523 444.794 393.519 437.678 365.785 441.692C339.511 445.524 314.696 453.917 290.976 465.594C243.537 488.949 202.119 522.887 165.992 561.203C101.583 629.443 63.2669 720.673 66.9161 815.369C67.281 827.412 85.527 825.587 85.3445 813.727H84.9796Z" fill="#4A0F00"/>
<path d="M1366.93 142.992C1327.34 106.683 1287.38 66.1765 1240.49 39.1725C1201.26 16.5475 1155.83 3.95776 1110.76 0.85595C1016.25 -5.34768 925.746 32.0566 865.535 105.77C846.741 128.76 879.402 154.305 900.019 134.781C956.399 81.3206 1037.96 51.5797 1115.14 48.4779C1154.37 46.8358 1193.78 54.1342 1230.09 69.4608C1278.62 90.0787 1317.12 121.097 1355.99 155.764C1364.01 162.88 1374.78 150.108 1366.75 142.992H1366.93Z" fill="#4A0F00"/>
<path d="M945.588 2116.8C950.061 2103.03 969.538 2103.03 974.011 2116.8L991.911 2171.89C993.911 2178.05 999.648 2182.21 1006.12 2182.21H1064.05C1078.52 2182.21 1084.54 2200.74 1072.83 2209.25L1025.97 2243.29C1020.73 2247.1 1018.54 2253.84 1020.54 2260L1038.44 2315.09C1042.91 2328.86 1027.16 2340.3 1015.44 2331.8L968.583 2297.75C963.346 2293.94 956.254 2293.94 951.017 2297.75L904.155 2331.8C892.444 2340.3 876.687 2328.86 881.161 2315.09L899.06 2260C901.061 2253.84 898.869 2247.1 893.632 2243.29L846.77 2209.25C835.06 2200.74 841.078 2182.21 855.554 2182.21H913.477C919.951 2182.21 925.688 2178.05 927.689 2171.89L945.588 2116.8Z" fill="#D05D49"/>
</svg>
