<svg width="2254" height="2236" viewBox="0 0 2254 2236" fill="none" xmlns="http://www.w3.org/2000/svg">
<path d="M1909.34 1891.48C2341.01 1459.81 2341.01 759.931 1909.34 328.26C1477.67 -103.411 777.796 -103.411 346.125 328.26C-85.5458 759.931 -85.5459 1459.81 346.125 1891.48C777.796 2323.15 1477.67 2323.15 1909.34 1891.48Z" fill="#F94343"/>
<path d="M1706.03 166.451C1816.12 338.272 1879.93 542.643 1879.93 761.796C1879.93 1372.18 1385.08 1867.16 774.562 1867.16C562.541 1867.16 364.525 1807.38 196.335 1703.9C392.795 2010.58 736.568 2213.78 1127.8 2213.78C1738.19 2213.78 2233.16 1718.94 2233.16 1108.42C2233.16 709.925 2022.31 360.836 1706.16 166.321L1706.03 166.451Z" fill="#F94343"/>
<path d="M172.608 1226.43C172.608 659.614 632.052 200.17 1198.87 200.17C1530.19 200.17 1824.69 357.208 2012.33 600.871C1835.06 293.278 1502.96 86.1846 1122.49 86.1846C555.673 86.1846 96.2285 545.628 96.2285 1112.44C96.2285 1347.94 175.591 1564.89 309.028 1738C222.274 1587.45 172.608 1412.78 172.608 1226.56V1226.43Z" fill="#FF6248"/>
<path d="M1778.13 981.065C1778.13 980.027 1778.13 978.99 1778.13 977.953C1778.13 783.568 1637.56 605.651 1426.19 605.651C1258.26 605.651 1160.87 726.38 1127.67 839.328C1094.47 726.38 997.087 605.651 829.156 605.651C617.783 605.651 477.214 783.568 477.214 977.953C477.214 978.99 477.214 980.027 477.214 981.065C476.046 1023.34 477.214 1453.61 1127.41 1804.38C1777.74 1453.61 1778.78 1023.34 1777.61 981.065H1778.13Z" fill="white"/>
</svg>
