<svg width="2235" height="2393" viewBox="0 0 2235 2393" fill="none" xmlns="http://www.w3.org/2000/svg">
<path d="M1877.21 2073.85C2325.29 1654.98 2348.97 952.172 1930.1 504.088C1511.23 56.0039 808.429 32.3209 360.345 451.191C-87.7386 870.06 -111.422 1572.86 307.448 2020.95C726.318 2469.03 1429.12 2492.72 1877.21 2073.85Z" fill="#FFDB43"/>
<g style="mix-blend-mode:multiply" opacity="0.4">
<path d="M2134.2 935.249C2096.06 843.57 1972.39 856.731 1962.3 958.926C1941.04 1173.87 2017.37 1374.53 1933.92 1588.63C1859.09 1780.43 1694.93 1935.99 1515.72 2030.67C1145.06 2226.42 654.002 2200.03 353.54 1883.35C343.215 1872.67 328.231 1885.95 333.996 1898.33C530.959 2319.14 1192.82 2387.19 1572.32 2213.15C1786.46 2114.93 1979.92 1944.08 2085.51 1731.51C2195.24 1510.09 2231.08 1167.49 2134.27 934.975L2134.2 935.249Z" fill="#FFDB43"/>
</g>
<path d="M821.172 1086.23C730.304 1239.45 570.89 1312.77 464.711 1249.74C358.459 1186.99 346.235 1011.71 437.103 858.494C527.97 705.274 687.385 631.955 793.564 694.981C899.816 757.734 912.04 933.01 821.172 1086.23Z" fill="white"/>
<path d="M1526.95 1094.26C1614.27 1249.52 1772.12 1326.39 1879.76 1265.86C1987.4 1205.34 2003.45 1030.6 1916.13 875.347C1828.8 720.091 1670.95 643.22 1563.31 703.748C1455.67 764.276 1439.62 939.007 1526.95 1094.26Z" fill="white"/>
<path d="M1485.2 1437.07C1484.17 1534.96 1462.06 1625.14 1424.16 1698.79C1366.26 1814.25 1271.62 1889.69 1165.02 1888.38C1058.7 1887.14 965.733 1809.78 910.303 1692.96C874.001 1618.48 854.037 1527.86 855.066 1429.97C857.919 1178.74 1000.82 976.762 1175.24 978.666C1349.39 980.498 1487.78 1185.77 1484.93 1437L1485.2 1437.07Z" fill="#111C33" stroke="#111C33" stroke-width="28.3032" stroke-linecap="round" stroke-linejoin="round"/>
<path d="M1424.16 1698.79C1366.26 1814.25 1271.62 1889.69 1165.02 1888.38C1058.69 1887.14 965.733 1809.78 910.303 1692.96C968.199 1577.49 1062.84 1502.05 1169.44 1503.37C1275.76 1504.61 1368.73 1581.97 1424.16 1698.79Z" fill="#D03E1D" stroke="#111C33" stroke-width="28.3032" stroke-linecap="round" stroke-linejoin="round"/>
<path d="M1485.2 1437.07C1484.17 1534.96 1462.06 1625.14 1424.16 1698.79C1366.26 1814.25 1271.62 1889.69 1165.02 1888.38C1058.7 1887.14 965.733 1809.78 910.303 1692.96C874.001 1618.48 854.037 1527.86 855.066 1429.97C857.919 1178.74 1000.82 976.762 1175.24 978.666C1349.39 980.498 1487.78 1185.77 1484.93 1437L1485.2 1437.07Z" stroke="#111C33" stroke-width="56.6063" stroke-linecap="round" stroke-linejoin="round"/>
<path d="M1705.04 29.3945L1700.04 469.046" stroke="#111C33" stroke-width="56.6063" stroke-linecap="round" stroke-linejoin="round"/>
<path d="M1833.25 165.449L1828.19 605.374" stroke="#111C33" stroke-width="56.6063" stroke-linecap="round" stroke-linejoin="round"/>
<path d="M1964.19 46.4141L1959.2 486.065" stroke="#111C33" stroke-width="56.6063" stroke-linecap="round" stroke-linejoin="round"/>
<path d="M640.05 972.647C639.661 1008 610.621 1036.55 575.27 1036.16C539.919 1035.77 511.367 1006.73 511.755 971.381C512.144 936.03 541.185 907.478 576.536 907.866C611.886 908.255 640.439 937.296 640.05 972.647Z" fill="#111C33" stroke="#111C33" stroke-width="28.3032" stroke-linecap="round" stroke-linejoin="round"/>
<path d="M1732.35 984.902C1731.96 1020.25 1702.92 1048.81 1667.57 1048.42C1632.22 1048.03 1603.66 1018.99 1604.05 983.637C1604.44 948.286 1633.48 919.733 1668.83 920.122C1704.18 920.511 1732.74 949.552 1732.35 984.902Z" fill="#111C33" stroke="#111C33" stroke-width="28.3032" stroke-linecap="round" stroke-linejoin="round"/>
<path opacity="0.2" d="M1606.95 334.215C1450.3 124.928 844.884 88.9977 401.013 502.18C-265.771 1122.86 282.661 1942.29 229.018 1764.12C44.8467 1150.13 290.238 455.21 1051.97 369.23C1211.48 351.317 1711.56 474.177 1606.75 333.868L1606.95 334.215Z" fill="white"/>
</svg>
