<svg width="2233" height="2237" viewBox="0 0 2233 2237" fill="none" xmlns="http://www.w3.org/2000/svg">
<path d="M1906.03 1907.94C2340.22 1473.74 2340.22 769.771 1906.03 335.575C1471.83 -98.6216 767.86 -98.6218 333.664 335.574C-100.532 769.77 -100.532 1473.74 333.664 1907.94C767.86 2342.13 1471.83 2342.13 1906.03 1907.94Z" fill="#FFDB43"/>
<path d="M1702.01 173.122C1812.78 345.897 1876.97 551.402 1876.97 771.771C1876.97 1385.55 1379.09 1883.27 764.814 1883.27C551.49 1883.27 352.256 1823.16 183.031 1719.1C380.699 2027.49 726.586 2231.82 1120.23 2231.82C1734.37 2231.82 2232.38 1734.23 2232.38 1120.32C2232.38 719.613 2020.23 368.586 1702.14 172.991L1702.01 173.122Z" fill="#FFDB43"/>
<path d="M159.275 1238.99C159.275 669.024 621.544 207.03 1191.85 207.03C1525.21 207.03 1821.51 364.94 2010.31 609.954C1831.95 300.654 1497.81 92.4111 1115 92.4111C544.695 92.4111 82.4258 554.405 82.4258 1124.37C82.4258 1361.17 162.276 1579.32 296.534 1753.4C209.247 1602.01 159.275 1426.37 159.275 1239.12V1238.99Z" fill="#FFE98A"/>
<path d="M1120.24 1973.49C1283.24 1973.49 1415.37 1749.6 1415.37 1473.42C1415.37 1197.23 1283.24 973.346 1120.24 973.346C957.242 973.346 825.107 1197.23 825.107 1473.42C825.107 1749.6 957.242 1973.49 1120.24 1973.49Z" fill="#695342"/>
<path d="M1369.44 1741.51C1154.03 1623.24 978.675 1690.26 877.297 1757.42C930.53 1887.94 1019.51 1973.61 1120.24 1973.61C1220.96 1973.61 1316.99 1881.03 1369.44 1741.51Z" fill="#FF6248"/>
<path d="M839.502 976.967C932.424 787.736 898.991 580.99 764.827 515.186C630.663 449.383 446.573 549.441 353.651 738.672C260.729 927.903 294.162 1134.65 428.326 1200.45C562.49 1266.26 746.58 1166.2 839.502 976.967Z" fill="white"/>
<path d="M1812.24 1199.87C1946.4 1134.07 1979.84 927.324 1886.91 738.093C1793.99 548.862 1609.9 448.804 1475.74 514.607C1341.57 580.411 1308.14 787.157 1401.06 976.388C1493.99 1165.62 1678.08 1265.68 1812.24 1199.87Z" fill="white"/>
<path d="M1744.42 528.317C1726.41 528.317 1711.8 513.713 1711.8 495.718V88.3598C1711.8 70.3651 1726.41 55.7607 1744.42 55.7607C1762.42 55.7607 1777.03 70.3651 1777.03 88.3598V495.718C1777.03 513.713 1762.42 528.317 1744.42 528.317Z" fill="#414042"/>
<path d="M1894.84 462.35C1876.84 462.35 1862.22 447.746 1862.22 429.751V136.75C1862.22 118.756 1876.84 104.151 1894.84 104.151C1912.85 104.151 1927.46 118.756 1927.46 136.75V429.751C1927.46 447.746 1912.85 462.35 1894.84 462.35Z" fill="#414042"/>
<path d="M2046.72 678.803C2028.72 678.803 2014.1 664.199 2014.1 646.204V207.42C2014.1 189.426 2028.72 174.821 2046.72 174.821C2064.73 174.821 2079.34 189.426 2079.34 207.42V646.204C2079.34 664.199 2064.73 678.803 2046.72 678.803Z" fill="#414042"/>
</svg>
