<svg width="2440" height="2251" viewBox="0 0 2440 2251" fill="none" xmlns="http://www.w3.org/2000/svg">
<path d="M1931.29 1921.31C2369.67 1482.92 2369.68 772.156 1931.29 333.769C1492.9 -104.618 782.136 -104.617 343.75 333.769C-94.637 772.156 -94.6369 1482.92 343.75 1921.31C782.136 2359.69 1492.9 2359.69 1931.29 1921.31Z" fill="#FFDB43"/>
<path d="M1724.84 169.404C1836.64 343.899 1901.44 551.448 1901.44 774.011C1901.44 1393.89 1398.89 1896.57 778.878 1896.57C563.558 1896.57 362.461 1835.86 191.654 1730.77C391.171 2042.22 740.291 2248.59 1137.61 2248.59C1757.5 2248.59 2260.17 1746.04 2260.17 1126.03C2260.17 721.333 2046.04 366.813 1724.97 169.272L1724.84 169.404Z" fill="#FFDB43"/>
<path d="M167.546 1245.87C167.546 670.239 634.138 203.648 1209.77 203.648C1546.25 203.648 1845.33 363.129 2035.89 610.582C1855.86 298.204 1518.59 87.8887 1132.2 87.8887C556.57 87.8887 89.9785 554.48 89.9785 1130.11C89.9785 1369.27 170.575 1589.59 306.088 1765.41C217.985 1612.51 167.546 1435.12 167.546 1246.01V1245.87Z" fill="#FFE98A"/>
<path d="M1561.93 1270.23C1573.65 1268.91 1580.36 1283.4 1580.23 1294.2C1579.7 1344.11 1566.4 1395.08 1540.72 1445.65C1516.36 1492.13 1481.46 1535.33 1439.71 1570.62C1356.88 1639.89 1246.78 1679.8 1137.61 1680.19C1026.46 1682.3 915.439 1642.26 833.394 1571.28C748.188 1498.45 696.301 1394.94 694.72 1294.46C694.589 1283 702.227 1268.12 715.001 1270.49C725.537 1272.34 734.097 1286.69 741.867 1293.14C753.851 1303.15 766.231 1312.5 779.005 1321.46C804.422 1339.37 831.024 1355.44 858.548 1370.05C959.689 1424.05 1074.26 1453.15 1189.1 1443.14C1262.19 1436.82 1333.17 1414.83 1398.36 1381.38C1437.47 1361.36 1474.61 1337.39 1509.51 1310.66C1522.81 1300.52 1544.54 1273.39 1560.87 1270.23C1561.27 1270.23 1561.53 1270.23 1561.93 1270.1V1270.23Z" fill="#5E4939"/>
<path d="M793.497 926.514C793.497 1003.55 756.491 1065.98 710.794 1065.98C665.096 1065.98 628.09 1003.55 628.09 926.514C628.09 849.473 665.096 787.05 710.794 787.05C756.491 787.05 793.497 849.473 793.497 926.514Z" fill="#303030"/>
<path d="M1715.35 972.866C1683.61 893.454 1607.76 842.094 1522.29 842.094C1436.82 842.094 1363.47 891.874 1330.81 968.915C1324.49 983.665 1329.49 1000.39 1342.66 1009.48C1355.96 1018.56 1373.21 1017.11 1384.8 1005.92C1447.09 945.473 1545.47 897.01 1660.96 1009.21C1667.42 1015.53 1675.85 1018.83 1684.27 1018.83C1690.73 1018.83 1697.18 1016.98 1702.97 1013.03C1716.27 1004.21 1721.28 987.615 1715.35 972.734V972.866Z" fill="#303030"/>
<path d="M2035.9 96.585C1953.33 497.461 1639.24 591.754 1639.24 591.754C1639.24 591.754 1953.33 686.047 2035.9 1086.92C2118.48 686.047 2432.57 591.754 2432.57 591.754C2432.57 591.754 2118.48 497.461 2035.9 96.585Z" fill="white"/>
<path d="M2035.9 96.585C1953.33 497.461 1639.24 591.754 1639.24 591.754C1639.24 591.754 2060.79 653.519 2035.9 96.585Z" fill="#F1F2F2"/>
</svg>
