<svg width="2252" height="2252" viewBox="0 0 2252 2252" fill="none" xmlns="http://www.w3.org/2000/svg">
<path d="M2236.3 1307.75C2335.46 696.903 1920.65 121.333 1309.8 22.1784C698.953 -76.9761 123.383 337.833 24.2284 948.68C-74.9261 1559.53 339.883 2135.1 950.73 2234.25C1561.58 2333.41 2137.15 1918.6 2236.3 1307.75Z" fill="#FFDB43"/>
<path d="M1716.04 171.643C1827.65 345.82 1892.32 552.991 1892.32 775.148C1892.32 1393.9 1390.7 1895.66 771.812 1895.66C556.884 1895.66 356.154 1835.06 185.658 1730.16C384.811 2041.05 733.295 2247.04 1129.89 2247.04C1748.65 2247.04 2250.4 1745.41 2250.4 1126.52C2250.4 722.566 2036.66 368.693 1716.18 171.512L1716.04 171.643Z" fill="#FFDB43"/>
<path d="M161.741 1246.15C161.741 671.565 627.482 205.823 1202.07 205.823C1537.93 205.823 1836.46 365.014 2026.68 612.016C1846.98 300.207 1510.33 90.2754 1124.64 90.2754C550.056 90.2754 84.3145 556.017 84.3145 1130.6C84.3145 1369.32 164.765 1589.24 300.031 1764.74C212.088 1612.12 161.741 1435.05 161.741 1246.28V1246.15Z" fill="#FFE98A"/>
<path d="M653.637 1357.23C680.585 1596.34 883.549 1782.22 1129.89 1782.22C1376.24 1782.22 1579.07 1596.34 1606.15 1357.23H653.637Z" fill="#695342"/>
<path d="M800.996 1651.42C886.835 1732.53 1002.52 1782.35 1129.89 1782.35C1257.27 1782.35 1363.09 1736.73 1447.62 1661.8L1443.28 1651.55C1123.45 1495.65 805.334 1649.45 800.996 1651.55V1651.42Z" fill="#FF6248"/>
<path d="M642.907 513.097L736.872 691.192L935.287 725.523L794.945 869.923L823.608 1069.24L642.907 980.385L462.207 1069.24L490.87 869.923L350.527 725.523L548.943 691.192L642.907 513.097Z" fill="#FF6248"/>
<path d="M1616.75 513.097L1710.72 691.192L1909.13 725.523L1768.79 869.923L1797.46 1069.24L1616.75 980.385L1436.05 1069.24L1464.72 869.923L1324.37 725.523L1522.79 691.192L1616.75 513.097Z" fill="#FF6248"/>
</svg>
