<svg width="2224" height="2214" viewBox="0 0 2224 2214" fill="none" xmlns="http://www.w3.org/2000/svg">
<path d="M1895.7 1884.38C2325.83 1454.25 2325.83 756.874 1895.7 326.746C1465.58 -103.382 768.201 -103.382 338.073 326.746C-92.0545 756.874 -92.0545 1454.25 338.073 1884.38C768.201 2314.51 1465.58 2314.5 1895.7 1884.38Z" fill="#FFDB43"/>
<path d="M1693.18 165.565C1802.88 336.772 1866.45 540.412 1866.45 758.782C1866.45 1366.99 1373.37 1860.19 765.04 1860.19C553.776 1860.19 356.468 1800.63 188.879 1697.51C384.637 2003.1 727.18 2205.58 1117.02 2205.58C1725.22 2205.58 2218.43 1712.5 2218.43 1104.17C2218.43 707.096 2008.33 359.255 1693.31 165.436L1693.18 165.565Z" fill="#FFDB43"/>
<path d="M165.235 1221.75C165.235 656.963 623.037 199.161 1187.83 199.161C1517.97 199.161 1811.41 355.638 1998.38 598.429C1821.75 291.936 1490.83 85.583 1111.72 85.583C546.931 85.583 89.1289 543.385 89.1289 1108.17C89.1289 1342.83 168.207 1559 301.167 1731.5C214.724 1581.48 165.235 1407.43 165.235 1221.88V1221.75Z" fill="#FFE98A"/>
<path d="M665.42 1272.15C636.994 1244.62 591.64 1275.12 606.241 1311.81C687.645 1515.2 886.375 1658.75 1118.83 1658.75C1351.28 1658.75 1543.42 1519.85 1627.15 1321.89C1642.4 1285.84 1596.66 1254.57 1568.49 1281.84C1407.36 1438.05 1065.08 1660.43 665.42 1272.15Z" fill="#5E4939"/>
<path d="M832.621 947.693C801.481 869.777 727.054 819.384 643.195 819.384C559.336 819.384 487.364 868.227 455.319 943.945C449.246 958.417 454.027 974.828 467.077 983.743C480.128 992.659 497.055 991.237 508.426 980.254C569.544 920.945 666.195 873.395 779.385 983.485C785.717 989.687 793.986 992.917 802.256 992.917C808.587 992.917 814.919 991.108 820.604 987.232C833.655 978.575 838.565 962.294 832.75 947.693H832.621Z" fill="#303030"/>
<path d="M1778.85 947.693C1747.71 869.777 1673.28 819.384 1589.42 819.384C1505.56 819.384 1433.59 868.227 1401.55 943.816C1395.34 958.288 1400.25 974.698 1413.18 983.614C1426.23 992.53 1443.15 991.108 1454.52 980.125C1515.64 920.817 1612.16 873.266 1725.48 983.356C1731.82 989.558 1740.08 992.788 1748.35 992.788C1754.69 992.788 1761.02 990.979 1766.7 987.102C1779.75 978.445 1784.66 962.164 1778.85 947.563V947.693Z" fill="#303030"/>
<path d="M307.111 1459.64C413.298 1459.64 499.38 1373.55 499.38 1267.37C499.38 1161.18 413.298 1075.1 307.111 1075.1C200.924 1075.1 114.842 1161.18 114.842 1267.37C114.842 1373.55 200.924 1459.64 307.111 1459.64Z" fill="#FF8847"/>
<path d="M1926.67 1459.64C2032.86 1459.64 2118.94 1373.55 2118.94 1267.37C2118.94 1161.18 2032.86 1075.1 1926.67 1075.1C1820.48 1075.1 1734.4 1161.18 1734.4 1267.37C1734.4 1373.55 1820.48 1459.64 1926.67 1459.64Z" fill="#FF8847"/>
</svg>
