<svg width="2238" height="2248" viewBox="0 0 2238 2248" fill="none" xmlns="http://www.w3.org/2000/svg">
<path d="M1872.88 1916.44C2315.51 1498.89 2335.84 801.586 1918.29 358.96C1500.74 -83.6666 803.434 -103.997 360.807 313.551C-81.819 731.098 -102.149 1428.41 315.399 1871.03C732.946 2313.66 1430.26 2333.99 1872.88 1916.44Z" fill="#FFDB43"/>
<g style="mix-blend-mode:multiply" opacity="0.3">
<path d="M2087.51 970.807C2066.83 929.679 2011.75 945.875 1998.59 982.708C1940.11 1145.79 1910.43 1325.83 1826.14 1478.55C1736.76 1640.66 1607.24 1767.27 1443.93 1852.97C1114.31 2026.2 718.813 1974.28 418.761 1766.02C406.676 1757.75 395.554 1775.32 403.766 1785.25C675.824 2107.72 1167.24 2219.88 1553.57 2045.02C1917.92 1880.16 2287.92 1369.63 2087.51 970.807Z" fill="#FFDB43"/>
</g>
<path d="M1674.53 1329.36C1674.53 1329.36 1666.21 1178.63 1780.15 1148.1C1865.18 1125.52 1943.1 1181.53 1965.78 1266.95C1997.1 1384.59 1900.96 1493.82 1770.02 1688.04C1559.79 1584.82 1422.05 1538.05 1390.73 1420.41C1367.91 1335.24 1407.39 1247.77 1492.56 1224.95C1606.74 1194.56 1674.39 1329.61 1674.39 1329.61L1674.53 1329.36Z" fill="#FF6248"/>
<path d="M1022.3 1171.08C1407.81 972.391 1402.82 1403.42 1107.82 1392.01C1402.82 1403.42 1294.58 1772.89 1004.55 1630.41" stroke="#111C33" stroke-width="56.17" stroke-linecap="round" stroke-linejoin="round"/>
<path d="M1653.78 627.288L1403.06 888.552L1798.19 1038.85" stroke="#111C33" stroke-width="56.17" stroke-linecap="round" stroke-linejoin="round"/>
<path d="M884.746 800.463C880.415 912.44 786.215 999.77 674.238 995.44C562.261 991.109 474.93 896.909 479.26 784.932C483.591 672.955 577.792 585.624 689.769 589.954C801.746 594.285 889.076 688.486 884.746 800.463Z" fill="#111C33"/>
<path d="M684.075 743.616C682.329 791.577 641.821 829.159 593.758 827.029C545.797 825.283 508.216 784.775 510.346 736.712C512.093 688.751 552.599 651.17 600.663 653.3C648.623 655.046 686.205 695.553 684.075 743.616Z" fill="white"/>
<path d="M754.798 936.221C753.855 960.323 733.742 978.87 709.64 977.927C685.538 976.983 666.99 956.871 667.934 932.769C668.877 908.667 688.99 890.119 713.092 891.062C737.194 892.005 755.741 912.119 754.798 936.221Z" fill="white"/>
<path d="M853.054 864.88C852.111 888.982 831.998 907.53 807.896 906.586C783.794 905.643 765.246 885.53 766.19 861.428C767.133 837.326 787.246 818.779 811.348 819.722C835.45 820.666 853.997 840.778 853.054 864.88Z" fill="white"/>
<path opacity="0.2" d="M1910.47 509.599C1822.68 274.069 1532.39 127.547 1298.92 80.3154C1031.14 26.2427 764.666 92.9156 540.791 246.449C139.095 522.056 -74.2195 1151.59 220.045 1579.95C225.375 1587.57 237.587 1583.27 235.401 1573.58C183.406 1343.47 150.324 1129.46 210.337 896.889C268.222 672.493 411.876 486.588 605.529 360.684C795.515 237.202 1035.03 194.202 1257.22 238.492C1363.89 259.868 1466.23 301.116 1557.83 359.839C1654.88 422.034 1727.33 510.56 1818.43 579.696C1860.68 611.55 1927.56 558.062 1909.7 509.805L1910.47 509.599Z" fill="white"/>
<path opacity="0.1" d="M1598.46 1265.67C1572.27 1246.99 1535.37 1241.25 1504.44 1249.33C1438.98 1266.67 1396.69 1352.84 1437.74 1410.92C1443.32 1418.67 1456.03 1418.56 1458.79 1408.15C1467.62 1374.33 1479.04 1320.28 1520.53 1312.46C1537.96 1309.22 1549.95 1317.11 1563.91 1325.5C1567.77 1328.38 1572.04 1330.52 1576.5 1331.79C1577.47 1332.36 1577.92 1333.26 1579.24 1334.35C1584.89 1340.85 1588.21 1346.34 1595.71 1351.32C1604.67 1357.14 1617.75 1353.02 1622.95 1344.02C1637.13 1319.45 1619.57 1280.78 1598.46 1265.67Z" fill="white"/>
<path opacity="0.1" d="M1853.03 1170.75C1777.89 1162.71 1692.4 1243.39 1718.94 1320.99C1721.49 1328.94 1731.81 1332.96 1738.25 1326.3C1768.28 1295.64 1785 1224.54 1841.01 1234.82C1882.57 1242.6 1868.61 1303.29 1883.11 1332.1C1890.08 1345.85 1910.11 1347.68 1920.67 1337.25C1977.33 1280.12 1926.67 1178.56 1853.42 1170.64L1853.03 1170.75Z" fill="white"/>
</svg>
