<svg width="580" height="580" viewBox="0 0 580 580" fill="none" xmlns="http://www.w3.org/2000/svg">
<path d="M299.181 11.3399L356.23 60.9011C360.124 64.2836 365.224 65.9406 370.362 65.4927L445.647 58.9297C452.837 58.3029 459.391 63.0648 461.017 70.0964L478.04 143.725C479.201 148.75 482.353 153.088 486.773 155.746L551.538 194.688C557.723 198.407 560.227 206.112 557.409 212.756L527.903 282.329C525.889 287.077 525.889 292.439 527.903 297.188L557.409 366.76C560.227 373.404 557.723 381.109 551.538 384.828L486.773 423.77C482.353 426.428 479.201 430.766 478.04 435.791L461.017 509.42C459.391 516.451 452.837 521.213 445.647 520.587L370.362 514.024C365.224 513.576 360.124 515.233 356.23 518.615L299.181 568.176C293.733 572.909 285.631 572.909 280.183 568.176L223.133 518.615C219.24 515.233 214.14 513.576 209.002 514.024L133.717 520.587C126.527 521.213 119.973 516.451 118.347 509.42L101.324 435.791C100.163 430.766 97.0107 426.428 92.5906 423.77L27.8258 384.828C21.6407 381.109 19.1373 373.404 21.9551 366.76L51.4614 297.188C53.4751 292.439 53.4751 287.077 51.4614 282.329L21.9551 212.756C19.1373 206.112 21.6407 198.407 27.8258 194.688L92.5906 155.746C97.0107 153.088 100.163 148.75 101.324 143.725L118.347 70.0964C119.973 63.0648 126.527 58.3029 133.717 58.9297L209.002 65.4927C214.14 65.9406 219.24 64.2836 223.133 60.9011L280.183 11.3399C285.631 6.60676 293.733 6.60677 299.181 11.3399Z" fill="white" stroke="#2E7E24" stroke-width="4.544"/>
<path d="M298.462 36.4475L350.338 81.5142C353.878 84.5899 358.515 86.0967 363.188 85.6894L431.646 79.7216C438.183 79.1516 444.143 83.4817 445.621 89.8756L461.1 156.827C462.157 161.397 465.023 165.341 469.042 167.758L527.934 203.169C533.558 206.55 535.834 213.556 533.272 219.598L506.441 282.861C504.61 287.179 504.61 292.055 506.441 296.373L533.272 359.636C535.834 365.678 533.558 372.684 527.934 376.066L469.042 411.476C465.023 413.893 462.157 417.838 461.1 422.407L445.621 489.359C444.143 495.752 438.183 500.083 431.646 499.513L363.188 493.545C358.515 493.137 353.878 494.644 350.338 497.72L298.462 542.787C293.507 547.091 286.141 547.091 281.187 542.787L229.311 497.72C225.77 494.644 221.133 493.137 216.461 493.545L148.003 499.513C141.465 500.083 135.505 495.752 134.027 489.359L118.548 422.407C117.492 417.838 114.625 413.893 110.606 411.476L51.7147 376.066C46.0905 372.684 43.8141 365.678 46.3764 359.636L73.2068 296.373C75.038 292.055 75.038 287.179 73.2068 282.861L46.3764 219.598C43.8141 213.557 46.0905 206.55 51.7147 203.169L110.606 167.758C114.625 165.341 117.492 161.397 118.548 156.827L134.027 89.8756C135.505 83.4817 141.465 79.1516 148.003 79.7216L216.461 85.6894C221.133 86.0967 225.77 84.5899 229.311 81.5142L281.187 36.4475C286.141 32.1436 293.507 32.1436 298.462 36.4475Z" stroke="#2E7E24" stroke-width="4.13192"/>
<circle cx="289.681" cy="289.757" r="188.718" fill="#7DE470" stroke="#2E7E24" stroke-width="4.828"/>
<mask id="path-4-outside-1_4142_20" maskUnits="userSpaceOnUse" x="140.604" y="207.641" width="298" height="57" fill="black">
<rect fill="white" x="140.604" y="207.641" width="298" height="57"/>
<path d="M194.99 225.585H182.778V220.047H178.234V251.997H183.204V263.641H153.384V251.997H158.354V220.047H153.81V225.585H141.598V208.403H194.99V225.585ZM254.223 220.047H250.673V251.997H254.223V263.641H227.385V251.997H230.793V240.282H220.853V251.997H224.261V263.641H197.423V251.997H200.973V220.047H197.423V208.403H224.261V220.047H220.853V230.839H230.793V220.047H227.385V208.403H254.223V220.047ZM309.166 251.997H312.006V263.641H284.174V251.997H288.434L287.298 246.317H277.642L276.506 251.997H280.766V263.641H256.484V251.997H259.324L271.323 208.403H297.167L309.166 251.997ZM279.204 238.791H285.736L282.825 224.662H282.115L279.204 238.791ZM355.15 208.403H378.438V220.047H374.888V263.641H354.937L334.134 231.62V251.997H337.542V263.641H314.254V251.997H317.804V220.047H314.254V208.403H339.885L358.558 236.874V220.047H355.15V208.403ZM434.342 251.997H437.892V263.641H418.509L407.859 241.631L404.593 244.329V251.997H408.001V263.641H381.163V251.997H384.713V220.047H381.163V208.403H408.001V220.047H404.593V229.419L415.598 220.047H411.125V208.403H437.537V220.047H433.987L422.13 229.845L434.342 251.997Z"/>
</mask>
<path d="M194.99 225.585H182.778V220.047H178.234V251.997H183.204V263.641H153.384V251.997H158.354V220.047H153.81V225.585H141.598V208.403H194.99V225.585ZM254.223 220.047H250.673V251.997H254.223V263.641H227.385V251.997H230.793V240.282H220.853V251.997H224.261V263.641H197.423V251.997H200.973V220.047H197.423V208.403H224.261V220.047H220.853V230.839H230.793V220.047H227.385V208.403H254.223V220.047ZM309.166 251.997H312.006V263.641H284.174V251.997H288.434L287.298 246.317H277.642L276.506 251.997H280.766V263.641H256.484V251.997H259.324L271.323 208.403H297.167L309.166 251.997ZM279.204 238.791H285.736L282.825 224.662H282.115L279.204 238.791ZM355.15 208.403H378.438V220.047H374.888V263.641H354.937L334.134 231.62V251.997H337.542V263.641H314.254V251.997H317.804V220.047H314.254V208.403H339.885L358.558 236.874V220.047H355.15V208.403ZM434.342 251.997H437.892V263.641H418.509L407.859 241.631L404.593 244.329V251.997H408.001V263.641H381.163V251.997H384.713V220.047H381.163V208.403H408.001V220.047H404.593V229.419L415.598 220.047H411.125V208.403H437.537V220.047H433.987L422.13 229.845L434.342 251.997Z" fill="white"/>
<path d="M194.99 225.585V226.153H195.558V225.585H194.99ZM182.778 225.585H182.21V226.153H182.778V225.585ZM182.778 220.047H183.346V219.479H182.778V220.047ZM178.234 220.047V219.479H177.666V220.047H178.234ZM178.234 251.997H177.666V252.565H178.234V251.997ZM183.204 251.997H183.772V251.429H183.204V251.997ZM183.204 263.641V264.209H183.772V263.641H183.204ZM153.384 263.641H152.816V264.209H153.384V263.641ZM153.384 251.997V251.429H152.816V251.997H153.384ZM158.354 251.997V252.565H158.922V251.997H158.354ZM158.354 220.047H158.922V219.479H158.354V220.047ZM153.81 220.047V219.479H153.242V220.047H153.81ZM153.81 225.585V226.153H154.378V225.585H153.81ZM141.598 225.585H141.03V226.153H141.598V225.585ZM141.598 208.403V207.835H141.03V208.403H141.598ZM194.99 208.403H195.558V207.835H194.99V208.403ZM194.99 225.017H182.778V226.153H194.99V225.017ZM183.346 225.585V220.047H182.21V225.585H183.346ZM182.778 219.479H178.234V220.615H182.778V219.479ZM177.666 220.047V251.997H178.802V220.047H177.666ZM178.234 252.565H183.204V251.429H178.234V252.565ZM182.636 251.997V263.641H183.772V251.997H182.636ZM183.204 263.073H153.384V264.209H183.204V263.073ZM153.952 263.641V251.997H152.816V263.641H153.952ZM153.384 252.565H158.354V251.429H153.384V252.565ZM158.922 251.997V220.047H157.786V251.997H158.922ZM158.354 219.479H153.81V220.615H158.354V219.479ZM153.242 220.047V225.585H154.378V220.047H153.242ZM153.81 225.017H141.598V226.153H153.81V225.017ZM142.166 225.585V208.403H141.03V225.585H142.166ZM141.598 208.971H194.99V207.835H141.598V208.971ZM194.422 208.403V225.585H195.558V208.403H194.422ZM254.223 220.047V220.615H254.791V220.047H254.223ZM250.673 220.047V219.479H250.105V220.047H250.673ZM250.673 251.997H250.105V252.565H250.673V251.997ZM254.223 251.997H254.791V251.429H254.223V251.997ZM254.223 263.641V264.209H254.791V263.641H254.223ZM227.385 263.641H226.817V264.209H227.385V263.641ZM227.385 251.997V251.429H226.817V251.997H227.385ZM230.793 251.997V252.565H231.361V251.997H230.793ZM230.793 240.282H231.361V239.714H230.793V240.282ZM220.853 240.282V239.714H220.285V240.282H220.853ZM220.853 251.997H220.285V252.565H220.853V251.997ZM224.261 251.997H224.829V251.429H224.261V251.997ZM224.261 263.641V264.209H224.829V263.641H224.261ZM197.423 263.641H196.855V264.209H197.423V263.641ZM197.423 251.997V251.429H196.855V251.997H197.423ZM200.973 251.997V252.565H201.541V251.997H200.973ZM200.973 220.047H201.541V219.479H200.973V220.047ZM197.423 220.047H196.855V220.615H197.423V220.047ZM197.423 208.403V207.835H196.855V208.403H197.423ZM224.261 208.403H224.829V207.835H224.261V208.403ZM224.261 220.047V220.615H224.829V220.047H224.261ZM220.853 220.047V219.479H220.285V220.047H220.853ZM220.853 230.839H220.285V231.407H220.853V230.839ZM230.793 230.839V231.407H231.361V230.839H230.793ZM230.793 220.047H231.361V219.479H230.793V220.047ZM227.385 220.047H226.817V220.615H227.385V220.047ZM227.385 208.403V207.835H226.817V208.403H227.385ZM254.223 208.403H254.791V207.835H254.223V208.403ZM254.223 219.479H250.673V220.615H254.223V219.479ZM250.105 220.047V251.997H251.241V220.047H250.105ZM250.673 252.565H254.223V251.429H250.673V252.565ZM253.655 251.997V263.641H254.791V251.997H253.655ZM254.223 263.073H227.385V264.209H254.223V263.073ZM227.953 263.641V251.997H226.817V263.641H227.953ZM227.385 252.565H230.793V251.429H227.385V252.565ZM231.361 251.997V240.282H230.225V251.997H231.361ZM230.793 239.714H220.853V240.85H230.793V239.714ZM220.285 240.282V251.997H221.421V240.282H220.285ZM220.853 252.565H224.261V251.429H220.853V252.565ZM223.693 251.997V263.641H224.829V251.997H223.693ZM224.261 263.073H197.423V264.209H224.261V263.073ZM197.991 263.641V251.997H196.855V263.641H197.991ZM197.423 252.565H200.973V251.429H197.423V252.565ZM201.541 251.997V220.047H200.405V251.997H201.541ZM200.973 219.479H197.423V220.615H200.973V219.479ZM197.991 220.047V208.403H196.855V220.047H197.991ZM197.423 208.971H224.261V207.835H197.423V208.971ZM223.693 208.403V220.047H224.829V208.403H223.693ZM224.261 219.479H220.853V220.615H224.261V219.479ZM220.285 220.047V230.839H221.421V220.047H220.285ZM220.853 231.407H230.793V230.271H220.853V231.407ZM231.361 230.839V220.047H230.225V230.839H231.361ZM230.793 219.479H227.385V220.615H230.793V219.479ZM227.953 220.047V208.403H226.817V220.047H227.953ZM227.385 208.971H254.223V207.835H227.385V208.971ZM253.655 208.403V220.047H254.791V208.403H253.655ZM309.166 251.997L308.618 252.147L308.733 252.565H309.166V251.997ZM312.006 251.997H312.574V251.429H312.006V251.997ZM312.006 263.641V264.209H312.574V263.641H312.006ZM284.174 263.641H283.606V264.209H284.174V263.641ZM284.174 251.997V251.429H283.606V251.997H284.174ZM288.434 251.997V252.565H289.127L288.991 251.885L288.434 251.997ZM287.298 246.317L287.855 246.205L287.764 245.749H287.298V246.317ZM277.642 246.317V245.749H277.176L277.085 246.205L277.642 246.317ZM276.506 251.997L275.949 251.885L275.813 252.565H276.506V251.997ZM280.766 251.997H281.334V251.429H280.766V251.997ZM280.766 263.641V264.209H281.334V263.641H280.766ZM256.484 263.641H255.916V264.209H256.484V263.641ZM256.484 251.997V251.429H255.916V251.997H256.484ZM259.324 251.997V252.565H259.757L259.871 252.147L259.324 251.997ZM271.323 208.403V207.835H270.89L270.775 208.252L271.323 208.403ZM297.167 208.403L297.715 208.252L297.6 207.835H297.167V208.403ZM279.204 238.791L278.648 238.676L278.507 239.359H279.204V238.791ZM285.736 238.791V239.359H286.433L286.292 238.676L285.736 238.791ZM282.825 224.662L283.381 224.547L283.288 224.094H282.825V224.662ZM282.115 224.662V224.094H281.652L281.559 224.547L282.115 224.662ZM309.166 252.565H312.006V251.429H309.166V252.565ZM311.438 251.997V263.641H312.574V251.997H311.438ZM312.006 263.073H284.174V264.209H312.006V263.073ZM284.742 263.641V251.997H283.606V263.641H284.742ZM284.174 252.565H288.434V251.429H284.174V252.565ZM288.991 251.885L287.855 246.205L286.741 246.428L287.877 252.108L288.991 251.885ZM287.298 245.749H277.642V246.885H287.298V245.749ZM277.085 246.205L275.949 251.885L277.063 252.108L278.199 246.428L277.085 246.205ZM276.506 252.565H280.766V251.429H276.506V252.565ZM280.198 251.997V263.641H281.334V251.997H280.198ZM280.766 263.073H256.484V264.209H280.766V263.073ZM257.052 263.641V251.997H255.916V263.641H257.052ZM256.484 252.565H259.324V251.429H256.484V252.565ZM259.871 252.147L271.87 208.553L270.775 208.252L258.776 251.846L259.871 252.147ZM271.323 208.971H297.167V207.835H271.323V208.971ZM296.619 208.553L308.618 252.147L309.714 251.846L297.715 208.252L296.619 208.553ZM279.204 239.359H285.736V238.223H279.204V239.359ZM286.292 238.676L283.381 224.547L282.269 224.776L285.18 238.905L286.292 238.676ZM282.825 224.094H282.115V225.23H282.825V224.094ZM281.559 224.547L278.648 238.676L279.76 238.905L282.671 224.776L281.559 224.547ZM355.15 208.403V207.835H354.582V208.403H355.15ZM378.438 208.403H379.006V207.835H378.438V208.403ZM378.438 220.047V220.615H379.006V220.047H378.438ZM374.888 220.047V219.479H374.32V220.047H374.888ZM374.888 263.641V264.209H375.456V263.641H374.888ZM354.937 263.641L354.461 263.95L354.629 264.209H354.937V263.641ZM334.134 231.62L334.61 231.31L333.566 229.703V231.62H334.134ZM334.134 251.997H333.566V252.565H334.134V251.997ZM337.542 251.997H338.11V251.429H337.542V251.997ZM337.542 263.641V264.209H338.11V263.641H337.542ZM314.254 263.641H313.686V264.209H314.254V263.641ZM314.254 251.997V251.429H313.686V251.997H314.254ZM317.804 251.997V252.565H318.372V251.997H317.804ZM317.804 220.047H318.372V219.479H317.804V220.047ZM314.254 220.047H313.686V220.615H314.254V220.047ZM314.254 208.403V207.835H313.686V208.403H314.254ZM339.885 208.403L340.36 208.091L340.192 207.835H339.885V208.403ZM358.558 236.874L358.083 237.185L359.126 238.775V236.874H358.558ZM358.558 220.047H359.126V219.479H358.558V220.047ZM355.15 220.047H354.582V220.615H355.15V220.047ZM355.15 208.971H378.438V207.835H355.15V208.971ZM377.87 208.403V220.047H379.006V208.403H377.87ZM378.438 219.479H374.888V220.615H378.438V219.479ZM374.32 220.047V263.641H375.456V220.047H374.32ZM374.888 263.073H354.937V264.209H374.888V263.073ZM355.413 263.331L334.61 231.31L333.658 231.929L354.461 263.95L355.413 263.331ZM333.566 231.62V251.997H334.702V231.62H333.566ZM334.134 252.565H337.542V251.429H334.134V252.565ZM336.974 251.997V263.641H338.11V251.997H336.974ZM337.542 263.073H314.254V264.209H337.542V263.073ZM314.822 263.641V251.997H313.686V263.641H314.822ZM314.254 252.565H317.804V251.429H314.254V252.565ZM318.372 251.997V220.047H317.236V251.997H318.372ZM317.804 219.479H314.254V220.615H317.804V219.479ZM314.822 220.047V208.403H313.686V220.047H314.822ZM314.254 208.971H339.885V207.835H314.254V208.971ZM339.41 208.714L358.083 237.185L359.033 236.562L340.36 208.091L339.41 208.714ZM359.126 236.874V220.047H357.99V236.874H359.126ZM358.558 219.479H355.15V220.615H358.558V219.479ZM355.718 220.047V208.403H354.582V220.047H355.718ZM434.342 251.997L433.845 252.271L434.007 252.565H434.342V251.997ZM437.892 251.997H438.46V251.429H437.892V251.997ZM437.892 263.641V264.209H438.46V263.641H437.892ZM418.509 263.641L417.998 263.888L418.153 264.209H418.509V263.641ZM407.859 241.631L408.371 241.383L408.055 240.732L407.497 241.193L407.859 241.631ZM404.593 244.329L404.231 243.891L404.025 244.061V244.329H404.593ZM404.593 251.997H404.025V252.565H404.593V251.997ZM408.001 251.997H408.569V251.429H408.001V251.997ZM408.001 263.641V264.209H408.569V263.641H408.001ZM381.163 263.641H380.595V264.209H381.163V263.641ZM381.163 251.997V251.429H380.595V251.997H381.163ZM384.713 251.997V252.565H385.281V251.997H384.713ZM384.713 220.047H385.281V219.479H384.713V220.047ZM381.163 220.047H380.595V220.615H381.163V220.047ZM381.163 208.403V207.835H380.595V208.403H381.163ZM408.001 208.403H408.569V207.835H408.001V208.403ZM408.001 220.047V220.615H408.569V220.047H408.001ZM404.593 220.047V219.479H404.025V220.047H404.593ZM404.593 229.419H404.025V230.648L404.961 229.851L404.593 229.419ZM415.598 220.047L415.966 220.479L417.141 219.479H415.598V220.047ZM411.125 220.047H410.557V220.615H411.125V220.047ZM411.125 208.403V207.835H410.557V208.403H411.125ZM437.537 208.403H438.105V207.835H437.537V208.403ZM437.537 220.047V220.615H438.105V220.047H437.537ZM433.987 220.047V219.479H433.783L433.625 219.609L433.987 220.047ZM422.13 229.845L421.768 229.407L421.406 229.707L421.633 230.119L422.13 229.845ZM434.342 252.565H437.892V251.429H434.342V252.565ZM437.324 251.997V263.641H438.46V251.997H437.324ZM437.892 263.073H418.509V264.209H437.892V263.073ZM419.021 263.393L408.371 241.383L407.348 241.878L417.998 263.888L419.021 263.393ZM407.497 241.193L404.231 243.891L404.955 244.767L408.221 242.069L407.497 241.193ZM404.025 244.329V251.997H405.161V244.329H404.025ZM404.593 252.565H408.001V251.429H404.593V252.565ZM407.433 251.997V263.641H408.569V251.997H407.433ZM408.001 263.073H381.163V264.209H408.001V263.073ZM381.731 263.641V251.997H380.595V263.641H381.731ZM381.163 252.565H384.713V251.429H381.163V252.565ZM385.281 251.997V220.047H384.145V251.997H385.281ZM384.713 219.479H381.163V220.615H384.713V219.479ZM381.731 220.047V208.403H380.595V220.047H381.731ZM381.163 208.971H408.001V207.835H381.163V208.971ZM407.433 208.403V220.047H408.569V208.403H407.433ZM408.001 219.479H404.593V220.615H408.001V219.479ZM404.025 220.047V229.419H405.161V220.047H404.025ZM404.961 229.851L415.966 220.479L415.23 219.614L404.225 228.986L404.961 229.851ZM415.598 219.479H411.125V220.615H415.598V219.479ZM411.693 220.047V208.403H410.557V220.047H411.693ZM411.125 208.971H437.537V207.835H411.125V208.971ZM436.969 208.403V220.047H438.105V208.403H436.969ZM437.537 219.479H433.987V220.615H437.537V219.479ZM433.625 219.609L421.768 229.407L422.492 230.282L434.349 220.484L433.625 219.609ZM421.633 230.119L433.845 252.271L434.84 251.722L422.628 229.57L421.633 230.119Z" fill="black" mask="url(#path-4-outside-1_4142_20)"/>
<mask id="path-6-outside-2_4142_20" maskUnits="userSpaceOnUse" x="207.537" y="307.461" width="165" height="59" fill="black">
<rect fill="white" x="207.537" y="307.461" width="165" height="59"/>
<path d="M239.984 309.223H261.781V320.867H258.941L245.238 345.433V352.817H248.788V364.461H221.808V352.817H225.358V345.433L211.229 320.867H208.389V309.223H235.866V320.867H233.381L237.57 331.872H238.28L242.469 320.867H239.984V309.223ZM288.626 365.455C279.964 365.455 273.266 363.183 268.533 358.639C263.847 354.095 261.504 346.829 261.504 336.842C261.504 326.855 263.847 319.589 268.533 315.045C273.266 310.501 279.964 308.229 288.626 308.229C297.288 308.229 303.962 310.501 308.648 315.045C313.381 319.589 315.748 326.855 315.748 336.842C315.748 346.829 313.381 354.095 308.648 358.639C303.962 363.183 297.288 365.455 288.626 365.455ZM288.626 352.817C290.235 352.817 291.442 352.391 292.247 351.539C293.051 350.687 293.454 349.362 293.454 347.563V326.121C293.454 324.322 293.051 322.997 292.247 322.145C291.442 321.293 290.235 320.867 288.626 320.867C287.016 320.867 285.809 321.293 285.005 322.145C284.2 322.997 283.798 324.322 283.798 326.121V347.563C283.798 349.409 284.2 350.758 285.005 351.61C285.809 352.415 287.016 352.817 288.626 352.817ZM344.715 365.455C337.284 365.455 331.533 363.822 327.462 360.556C323.439 357.29 321.427 351.989 321.427 344.652V320.867H317.877V309.223H344.147V320.867H341.307V348.273C341.307 349.835 341.639 350.995 342.301 351.752C343.011 352.462 344.053 352.817 345.425 352.817C346.798 352.817 347.816 352.462 348.478 351.752C349.188 350.995 349.543 349.835 349.543 348.273V320.867H346.703V309.223H371.056V320.867H367.506V344.652C367.506 351.989 365.542 357.29 361.613 360.556C357.685 363.822 352.052 365.455 344.715 365.455Z"/>
</mask>
<path d="M239.984 309.223H261.781V320.867H258.941L245.238 345.433V352.817H248.788V364.461H221.808V352.817H225.358V345.433L211.229 320.867H208.389V309.223H235.866V320.867H233.381L237.57 331.872H238.28L242.469 320.867H239.984V309.223ZM288.626 365.455C279.964 365.455 273.266 363.183 268.533 358.639C263.847 354.095 261.504 346.829 261.504 336.842C261.504 326.855 263.847 319.589 268.533 315.045C273.266 310.501 279.964 308.229 288.626 308.229C297.288 308.229 303.962 310.501 308.648 315.045C313.381 319.589 315.748 326.855 315.748 336.842C315.748 346.829 313.381 354.095 308.648 358.639C303.962 363.183 297.288 365.455 288.626 365.455ZM288.626 352.817C290.235 352.817 291.442 352.391 292.247 351.539C293.051 350.687 293.454 349.362 293.454 347.563V326.121C293.454 324.322 293.051 322.997 292.247 322.145C291.442 321.293 290.235 320.867 288.626 320.867C287.016 320.867 285.809 321.293 285.005 322.145C284.2 322.997 283.798 324.322 283.798 326.121V347.563C283.798 349.409 284.2 350.758 285.005 351.61C285.809 352.415 287.016 352.817 288.626 352.817ZM344.715 365.455C337.284 365.455 331.533 363.822 327.462 360.556C323.439 357.29 321.427 351.989 321.427 344.652V320.867H317.877V309.223H344.147V320.867H341.307V348.273C341.307 349.835 341.639 350.995 342.301 351.752C343.011 352.462 344.053 352.817 345.425 352.817C346.798 352.817 347.816 352.462 348.478 351.752C349.188 350.995 349.543 349.835 349.543 348.273V320.867H346.703V309.223H371.056V320.867H367.506V344.652C367.506 351.989 365.542 357.29 361.613 360.556C357.685 363.822 352.052 365.455 344.715 365.455Z" fill="white"/>
<path d="M239.984 309.223V308.655H239.416V309.223H239.984ZM261.781 309.223H262.349V308.655H261.781V309.223ZM261.781 320.867V321.435H262.349V320.867H261.781ZM258.941 320.867V320.299H258.608L258.445 320.59L258.941 320.867ZM245.238 345.433L244.742 345.156L244.67 345.285V345.433H245.238ZM245.238 352.817H244.67V353.385H245.238V352.817ZM248.788 352.817H249.356V352.249H248.788V352.817ZM248.788 364.461V365.029H249.356V364.461H248.788ZM221.808 364.461H221.24V365.029H221.808V364.461ZM221.808 352.817V352.249H221.24V352.817H221.808ZM225.358 352.817V353.385H225.926V352.817H225.358ZM225.358 345.433H225.926V345.281L225.85 345.15L225.358 345.433ZM211.229 320.867L211.721 320.584L211.558 320.299H211.229V320.867ZM208.389 320.867H207.821V321.435H208.389V320.867ZM208.389 309.223V308.655H207.821V309.223H208.389ZM235.866 309.223H236.434V308.655H235.866V309.223ZM235.866 320.867V321.435H236.434V320.867H235.866ZM233.381 320.867V320.299H232.557L232.85 321.069L233.381 320.867ZM237.57 331.872L237.039 332.074L237.179 332.44H237.57V331.872ZM238.28 331.872V332.44H238.672L238.811 332.074L238.28 331.872ZM242.469 320.867L243 321.069L243.293 320.299H242.469V320.867ZM239.984 320.867H239.416V321.435H239.984V320.867ZM239.984 309.791H261.781V308.655H239.984V309.791ZM261.213 309.223V320.867H262.349V309.223H261.213ZM261.781 320.299H258.941V321.435H261.781V320.299ZM258.445 320.59L244.742 345.156L245.734 345.71L259.437 321.144L258.445 320.59ZM244.67 345.433V352.817H245.806V345.433H244.67ZM245.238 353.385H248.788V352.249H245.238V353.385ZM248.22 352.817V364.461H249.356V352.817H248.22ZM248.788 363.893H221.808V365.029H248.788V363.893ZM222.376 364.461V352.817H221.24V364.461H222.376ZM221.808 353.385H225.358V352.249H221.808V353.385ZM225.926 352.817V345.433H224.79V352.817H225.926ZM225.85 345.15L211.721 320.584L210.737 321.15L224.866 345.716L225.85 345.15ZM211.229 320.299H208.389V321.435H211.229V320.299ZM208.957 320.867V309.223H207.821V320.867H208.957ZM208.389 309.791H235.866V308.655H208.389V309.791ZM235.298 309.223V320.867H236.434V309.223H235.298ZM235.866 320.299H233.381V321.435H235.866V320.299ZM232.85 321.069L237.039 332.074L238.101 331.67L233.912 320.665L232.85 321.069ZM237.57 332.44H238.28V331.304H237.57V332.44ZM238.811 332.074L243 321.069L241.938 320.665L237.749 331.67L238.811 332.074ZM242.469 320.299H239.984V321.435H242.469V320.299ZM240.552 320.867V309.223H239.416V320.867H240.552ZM268.533 358.639L268.137 359.047L268.139 359.049L268.533 358.639ZM268.533 315.045L268.139 314.635L268.137 314.637L268.533 315.045ZM308.648 315.045L308.252 315.453L308.254 315.455L308.648 315.045ZM308.648 358.639L308.254 358.229L308.252 358.231L308.648 358.639ZM292.247 351.539L292.66 351.929L292.66 351.929L292.247 351.539ZM292.247 322.145L292.66 321.755L292.66 321.755L292.247 322.145ZM285.005 322.145L285.418 322.535L285.418 322.535L285.005 322.145ZM285.005 351.61L284.592 352L284.597 352.006L284.603 352.012L285.005 351.61ZM288.626 364.887C280.062 364.887 273.523 362.642 268.926 358.229L268.139 359.049C273.009 363.723 279.866 366.023 288.626 366.023V364.887ZM268.928 358.231C264.399 353.839 262.072 346.756 262.072 336.842H260.936C260.936 346.903 263.294 354.35 268.137 359.047L268.928 358.231ZM262.072 336.842C262.072 326.928 264.399 319.844 268.928 315.453L268.137 314.637C263.294 319.333 260.936 326.781 260.936 336.842H262.072ZM268.926 315.455C273.523 311.041 280.062 308.797 288.626 308.797V307.661C279.866 307.661 273.009 309.96 268.139 314.635L268.926 315.455ZM288.626 308.797C297.19 308.797 303.703 311.042 308.252 315.453L309.043 314.637C304.22 309.96 297.386 307.661 288.626 307.661V308.797ZM308.254 315.455C312.829 319.847 315.18 326.929 315.18 336.842H316.316C316.316 326.78 313.933 319.331 309.041 314.635L308.254 315.455ZM315.18 336.842C315.18 346.754 312.829 353.837 308.254 358.229L309.041 359.049C313.933 354.353 316.316 346.904 316.316 336.842H315.18ZM308.252 358.231C303.703 362.642 297.19 364.887 288.626 364.887V366.023C297.386 366.023 304.22 363.724 309.043 359.047L308.252 358.231ZM288.626 353.385C290.331 353.385 291.712 352.932 292.66 351.929L291.834 351.149C291.172 351.85 290.139 352.249 288.626 352.249V353.385ZM292.66 351.929C293.606 350.927 294.022 349.431 294.022 347.563H292.886C292.886 349.292 292.497 350.447 291.834 351.149L292.66 351.929ZM294.022 347.563V326.121H292.886V347.563H294.022ZM294.022 326.121C294.022 324.253 293.606 322.757 292.66 321.755L291.834 322.535C292.497 323.237 292.886 324.392 292.886 326.121H294.022ZM292.66 321.755C291.712 320.752 290.331 320.299 288.626 320.299V321.435C290.139 321.435 291.172 321.834 291.834 322.535L292.66 321.755ZM288.626 320.299C286.92 320.299 285.539 320.752 284.592 321.755L285.418 322.535C286.08 321.834 287.113 321.435 288.626 321.435V320.299ZM284.592 321.755C283.646 322.757 283.23 324.253 283.23 326.121H284.366C284.366 324.392 284.754 323.237 285.418 322.535L284.592 321.755ZM283.23 326.121V347.563H284.366V326.121H283.23ZM283.23 347.563C283.23 349.474 283.644 350.996 284.592 352L285.418 351.22C284.757 350.52 284.366 349.344 284.366 347.563H283.23ZM284.603 352.012C285.552 352.96 286.929 353.385 288.626 353.385V352.249C287.104 352.249 286.067 351.869 285.406 351.208L284.603 352.012ZM327.462 360.556L327.104 360.997L327.107 360.999L327.462 360.556ZM321.427 320.867H321.995V320.299H321.427V320.867ZM317.877 320.867H317.309V321.435H317.877V320.867ZM317.877 309.223V308.655H317.309V309.223H317.877ZM344.147 309.223H344.715V308.655H344.147V309.223ZM344.147 320.867V321.435H344.715V320.867H344.147ZM341.307 320.867V320.299H340.739V320.867H341.307ZM342.301 351.752L341.874 352.126L341.886 352.14L341.9 352.154L342.301 351.752ZM348.478 351.752L348.064 351.363L348.063 351.364L348.478 351.752ZM349.543 320.867H350.111V320.299H349.543V320.867ZM346.703 320.867H346.135V321.435H346.703V320.867ZM346.703 309.223V308.655H346.135V309.223H346.703ZM371.056 309.223H371.624V308.655H371.056V309.223ZM371.056 320.867V321.435H371.624V320.867H371.056ZM367.506 320.867V320.299H366.938V320.867H367.506ZM361.613 360.556L361.25 360.119L361.613 360.556ZM344.715 364.887C337.36 364.887 331.752 363.27 327.818 360.113L327.107 360.999C331.313 364.374 337.208 366.023 344.715 366.023V364.887ZM327.82 360.115C323.978 356.996 321.995 351.892 321.995 344.652H320.859C320.859 352.085 322.899 357.584 327.104 360.997L327.82 360.115ZM321.995 344.652V320.867H320.859V344.652H321.995ZM321.427 320.299H317.877V321.435H321.427V320.299ZM318.445 320.867V309.223H317.309V320.867H318.445ZM317.877 309.791H344.147V308.655H317.877V309.791ZM343.579 309.223V320.867H344.715V309.223H343.579ZM344.147 320.299H341.307V321.435H344.147V320.299ZM340.739 320.867V348.273H341.875V320.867H340.739ZM340.739 348.273C340.739 349.9 341.082 351.221 341.874 352.126L342.729 351.378C342.195 350.768 341.875 349.77 341.875 348.273H340.739ZM341.9 352.154C342.75 353.004 343.959 353.385 345.425 353.385V352.249C344.147 352.249 343.272 351.919 342.703 351.35L341.9 352.154ZM345.425 353.385C346.889 353.385 348.085 353.006 348.893 352.139L348.063 351.364C347.546 351.918 346.707 352.249 345.425 352.249V353.385ZM348.893 352.14C349.741 351.235 350.111 349.908 350.111 348.273H348.975C348.975 349.762 348.635 350.754 348.064 351.363L348.893 352.14ZM350.111 348.273V320.867H348.975V348.273H350.111ZM349.543 320.299H346.703V321.435H349.543V320.299ZM347.271 320.867V309.223H346.135V320.867H347.271ZM346.703 309.791H371.056V308.655H346.703V309.791ZM370.488 309.223V320.867H371.624V309.223H370.488ZM371.056 320.299H367.506V321.435H371.056V320.299ZM366.938 320.867V344.652H368.074V320.867H366.938ZM366.938 344.652C366.938 351.896 365 357.002 361.25 360.119L361.976 360.993C366.084 357.578 368.074 352.081 368.074 344.652H366.938ZM361.25 360.119C357.46 363.27 351.976 364.887 344.715 364.887V366.023C352.128 366.023 357.909 364.374 361.976 360.993L361.25 360.119Z" fill="black" mask="url(#path-6-outside-2_4142_20)"/>
</svg>
