<svg width="1261" height="288" viewBox="0 0 1261 288" fill="none" xmlns="http://www.w3.org/2000/svg">
<rect x="0.300781" y="0.511719" width="1259.79" height="287.423" fill="white"/>
<mask id="path-2-outside-1_4152_53" maskUnits="userSpaceOnUse" x="58.707" y="56.3281" width="1138" height="177" fill="black">
<rect fill="white" x="58.707" y="56.3281" width="1138" height="177"/>
<path d="M136.848 226.328H87.9688V129.528H63.3693V63.8226H161.448V129.528H136.848V226.328ZM224.171 165.948V226.328H175.292V63.8226H224.171V123.351H249.303V63.8226H298.076V226.328H249.303V165.948H224.171ZM365.272 198.64L358.989 226.328H309.47L348.979 63.8226H418.73L456.215 226.328H407.229L400.84 198.64H365.272ZM408.72 131.445C408.72 127.966 407.407 125.126 404.78 122.925C402.295 120.795 399.313 119.73 395.835 119.73C390.723 119.73 386.96 122.251 384.547 127.291C383.766 124.807 382.239 122.925 379.967 121.647C377.909 120.369 375.566 119.73 372.939 119.73C369.602 119.73 366.55 120.866 363.781 123.138C361.296 125.623 360.054 128.676 360.054 132.296C360.054 135.775 361.296 139.218 363.781 142.626C364.917 143.904 366.053 145.182 367.189 146.46C368.395 147.667 369.602 148.909 370.809 150.187C373.365 153.524 374.643 157.109 374.643 160.943C374.643 161.653 374.607 162.398 374.536 163.179C374.465 163.96 374.359 164.812 374.217 165.735C378.619 163.676 382.63 161.511 386.25 159.239C389.871 156.967 393.137 154.624 396.048 152.21C404.496 145.182 408.72 138.26 408.72 131.445ZM515.531 177.023V226.328H466.651V63.8226H501.58L527.564 118.133V63.8226H576.444V227.393H539.278L515.531 177.023ZM598.274 63.8226H647.154V118.133C653.685 117.991 659.578 113.767 664.831 105.461C670.085 97.1544 672.712 83.9495 672.712 65.846V63.8226H722.656V66.0589C722.656 102.479 715.379 128.711 700.825 144.756C717.367 164.137 725.638 190.689 725.638 224.411V226.328H672.712V224.624C672.712 206.734 670.475 192.783 666.003 182.773C661.601 172.692 655.318 167.439 647.154 167.013V226.328H598.274V63.8226ZM857.474 155.405V226.328H808.594V155.405L766.53 63.8226H816.049L833.087 100.669L850.126 63.8226H899.538L857.474 155.405ZM948.204 61.0539C962.758 61.0539 975.501 69.1827 986.435 85.4403C997.439 101.698 1002.94 121.115 1002.94 143.691C1002.94 168.823 997.581 189.305 986.861 205.136C976.069 220.684 962.19 228.458 945.223 228.458C930.811 228.458 917.925 220.897 906.566 205.775C895.349 190.37 889.741 169 889.741 141.668C889.741 131.941 891.125 122.215 893.894 112.489C896.663 102.763 900.567 94.0661 905.608 86.3988C910.648 78.6604 916.754 72.4839 923.924 67.8693C931.095 63.1837 939.188 60.9119 948.204 61.0539ZM971.1 130.593C971.1 127.114 969.822 124.274 967.266 122.073C964.781 119.872 961.8 118.772 958.321 118.772C953.209 118.772 949.411 121.328 946.926 126.439C946.216 123.955 944.69 122.073 942.347 120.795C940.288 119.447 937.981 118.772 935.425 118.772C932.018 118.772 928.965 119.943 926.267 122.286C923.782 124.771 922.54 127.824 922.54 131.445C922.54 134.923 923.782 138.331 926.267 141.668C927.403 143.017 928.539 144.33 929.675 145.608C930.882 146.815 932.053 148.057 933.189 149.335C935.816 152.672 937.129 156.221 937.129 159.984C937.129 160.765 937.094 161.546 937.023 162.327C936.952 163.108 936.845 163.924 936.703 164.776C941.034 162.788 945.01 160.659 948.63 158.387C952.322 156.115 955.623 153.737 958.534 151.252C966.911 144.294 971.1 137.408 971.1 130.593ZM1079.93 63.8226H1128.81V124.31C1128.81 141.845 1128.42 154.553 1127.64 162.433C1126.93 170.314 1125.12 178.585 1122.21 187.246C1119.37 195.836 1115.47 203.22 1110.5 209.396C1105.53 215.502 1099.85 220.258 1093.46 223.666C1087.14 227.074 1080.68 228.777 1074.08 228.777C1065.63 228.777 1057.39 226.151 1049.37 220.897C1041.42 215.644 1035.17 208.615 1030.63 199.812C1026.08 190.938 1023 181.353 1021.36 171.059C1019.73 160.765 1018.91 145.324 1018.91 124.736V63.8226H1067.79V139.112C1067.79 145.714 1068.18 150.471 1068.97 153.382C1069.75 156.221 1071.24 157.641 1073.44 157.641C1076.06 157.641 1077.8 156.008 1078.66 152.743C1079.51 149.406 1079.93 142.591 1079.93 132.296V63.8226ZM1162.36 179.685C1161.51 178.762 1158.17 169.746 1152.35 152.636C1146.67 135.882 1143.83 119.872 1143.83 104.609C1143.83 91.9718 1146.17 81.5712 1150.86 73.4068C1155.61 65.1715 1161.58 61.0539 1168.75 61.0539C1175.28 61.0539 1180.85 65.1715 1185.47 73.4068C1190.01 81.4292 1192.28 91.7588 1192.28 104.396C1192.28 118.808 1189.8 133.716 1184.83 149.122C1182.41 157.002 1180.25 163.463 1178.33 168.503C1176.41 173.473 1174.82 177.2 1173.54 179.685C1171.48 179.969 1169.74 180.217 1168.32 180.43C1166.97 180.643 1164.98 180.395 1162.36 179.685ZM1188.34 196.937C1188.34 194.168 1187.24 191.754 1185.04 189.695C1183.05 187.92 1180.6 187.033 1177.69 187.033C1173.29 187.033 1170.1 189.163 1168.11 193.422C1167.61 191.222 1166.3 189.624 1164.17 188.63C1162.68 187.565 1160.8 187.033 1158.52 187.033C1155.61 187.033 1152.99 187.991 1150.64 189.908C1148.59 191.967 1147.56 194.594 1147.56 197.788C1147.56 200.557 1148.59 203.397 1150.64 206.308C1151.78 207.444 1152.77 208.509 1153.63 209.503C1154.55 210.425 1155.51 211.455 1156.5 212.591C1158.7 215.502 1159.8 218.554 1159.8 221.749C1159.8 222.317 1159.77 222.956 1159.7 223.666C1159.62 224.305 1159.59 224.979 1159.59 225.689C1166.97 222.068 1173.08 218.27 1177.91 214.295C1184.86 208.473 1188.34 202.687 1188.34 196.937Z"/>
</mask>
<path d="M136.848 226.328H87.9688V129.528H63.3693V63.8226H161.448V129.528H136.848V226.328ZM224.171 165.948V226.328H175.292V63.8226H224.171V123.351H249.303V63.8226H298.076V226.328H249.303V165.948H224.171ZM365.272 198.64L358.989 226.328H309.47L348.979 63.8226H418.73L456.215 226.328H407.229L400.84 198.64H365.272ZM408.72 131.445C408.72 127.966 407.407 125.126 404.78 122.925C402.295 120.795 399.313 119.73 395.835 119.73C390.723 119.73 386.96 122.251 384.547 127.291C383.766 124.807 382.239 122.925 379.967 121.647C377.909 120.369 375.566 119.73 372.939 119.73C369.602 119.73 366.55 120.866 363.781 123.138C361.296 125.623 360.054 128.676 360.054 132.296C360.054 135.775 361.296 139.218 363.781 142.626C364.917 143.904 366.053 145.182 367.189 146.46C368.395 147.667 369.602 148.909 370.809 150.187C373.365 153.524 374.643 157.109 374.643 160.943C374.643 161.653 374.607 162.398 374.536 163.179C374.465 163.96 374.359 164.812 374.217 165.735C378.619 163.676 382.63 161.511 386.25 159.239C389.871 156.967 393.137 154.624 396.048 152.21C404.496 145.182 408.72 138.26 408.72 131.445ZM515.531 177.023V226.328H466.651V63.8226H501.58L527.564 118.133V63.8226H576.444V227.393H539.278L515.531 177.023ZM598.274 63.8226H647.154V118.133C653.685 117.991 659.578 113.767 664.831 105.461C670.085 97.1544 672.712 83.9495 672.712 65.846V63.8226H722.656V66.0589C722.656 102.479 715.379 128.711 700.825 144.756C717.367 164.137 725.638 190.689 725.638 224.411V226.328H672.712V224.624C672.712 206.734 670.475 192.783 666.003 182.773C661.601 172.692 655.318 167.439 647.154 167.013V226.328H598.274V63.8226ZM857.474 155.405V226.328H808.594V155.405L766.53 63.8226H816.049L833.087 100.669L850.126 63.8226H899.538L857.474 155.405ZM948.204 61.0539C962.758 61.0539 975.501 69.1827 986.435 85.4403C997.439 101.698 1002.94 121.115 1002.94 143.691C1002.94 168.823 997.581 189.305 986.861 205.136C976.069 220.684 962.19 228.458 945.223 228.458C930.811 228.458 917.925 220.897 906.566 205.775C895.349 190.37 889.741 169 889.741 141.668C889.741 131.941 891.125 122.215 893.894 112.489C896.663 102.763 900.567 94.0661 905.608 86.3988C910.648 78.6604 916.754 72.4839 923.924 67.8693C931.095 63.1837 939.188 60.9119 948.204 61.0539ZM971.1 130.593C971.1 127.114 969.822 124.274 967.266 122.073C964.781 119.872 961.8 118.772 958.321 118.772C953.209 118.772 949.411 121.328 946.926 126.439C946.216 123.955 944.69 122.073 942.347 120.795C940.288 119.447 937.981 118.772 935.425 118.772C932.018 118.772 928.965 119.943 926.267 122.286C923.782 124.771 922.54 127.824 922.54 131.445C922.54 134.923 923.782 138.331 926.267 141.668C927.403 143.017 928.539 144.33 929.675 145.608C930.882 146.815 932.053 148.057 933.189 149.335C935.816 152.672 937.129 156.221 937.129 159.984C937.129 160.765 937.094 161.546 937.023 162.327C936.952 163.108 936.845 163.924 936.703 164.776C941.034 162.788 945.01 160.659 948.63 158.387C952.322 156.115 955.623 153.737 958.534 151.252C966.911 144.294 971.1 137.408 971.1 130.593ZM1079.93 63.8226H1128.81V124.31C1128.81 141.845 1128.42 154.553 1127.64 162.433C1126.93 170.314 1125.12 178.585 1122.21 187.246C1119.37 195.836 1115.47 203.22 1110.5 209.396C1105.53 215.502 1099.85 220.258 1093.46 223.666C1087.14 227.074 1080.68 228.777 1074.08 228.777C1065.63 228.777 1057.39 226.151 1049.37 220.897C1041.42 215.644 1035.17 208.615 1030.63 199.812C1026.08 190.938 1023 181.353 1021.36 171.059C1019.73 160.765 1018.91 145.324 1018.91 124.736V63.8226H1067.79V139.112C1067.79 145.714 1068.18 150.471 1068.97 153.382C1069.75 156.221 1071.24 157.641 1073.44 157.641C1076.06 157.641 1077.8 156.008 1078.66 152.743C1079.51 149.406 1079.93 142.591 1079.93 132.296V63.8226ZM1162.36 179.685C1161.51 178.762 1158.17 169.746 1152.35 152.636C1146.67 135.882 1143.83 119.872 1143.83 104.609C1143.83 91.9718 1146.17 81.5712 1150.86 73.4068C1155.61 65.1715 1161.58 61.0539 1168.75 61.0539C1175.28 61.0539 1180.85 65.1715 1185.47 73.4068C1190.01 81.4292 1192.28 91.7588 1192.28 104.396C1192.28 118.808 1189.8 133.716 1184.83 149.122C1182.41 157.002 1180.25 163.463 1178.33 168.503C1176.41 173.473 1174.82 177.2 1173.54 179.685C1171.48 179.969 1169.74 180.217 1168.32 180.43C1166.97 180.643 1164.98 180.395 1162.36 179.685ZM1188.34 196.937C1188.34 194.168 1187.24 191.754 1185.04 189.695C1183.05 187.92 1180.6 187.033 1177.69 187.033C1173.29 187.033 1170.1 189.163 1168.11 193.422C1167.61 191.222 1166.3 189.624 1164.17 188.63C1162.68 187.565 1160.8 187.033 1158.52 187.033C1155.61 187.033 1152.99 187.991 1150.64 189.908C1148.59 191.967 1147.56 194.594 1147.56 197.788C1147.56 200.557 1148.59 203.397 1150.64 206.308C1151.78 207.444 1152.77 208.509 1153.63 209.503C1154.55 210.425 1155.51 211.455 1156.5 212.591C1158.7 215.502 1159.8 218.554 1159.8 221.749C1159.8 222.317 1159.77 222.956 1159.7 223.666C1159.62 224.305 1159.59 224.979 1159.59 225.689C1166.97 222.068 1173.08 218.27 1177.91 214.295C1184.86 208.473 1188.34 202.687 1188.34 196.937Z" fill="#FFDB43"/>
<path d="M136.848 226.328V230.225H140.745V226.328H136.848ZM87.9688 226.328H84.0715V230.225H87.9688V226.328ZM87.9688 129.528H91.866V125.63H87.9688V129.528ZM63.3693 129.528H59.472V133.425H63.3693V129.528ZM63.3693 63.8226V59.9254H59.472V63.8226H63.3693ZM161.448 63.8226H165.345V59.9254H161.448V63.8226ZM161.448 129.528V133.425H165.345V129.528H161.448ZM136.848 129.528V125.63H132.951V129.528H136.848ZM136.848 222.431H87.9688V230.225H136.848V222.431ZM91.866 226.328V129.528H84.0715V226.328H91.866ZM87.9688 125.63H63.3693V133.425H87.9688V125.63ZM67.2666 129.528V63.8226H59.472V129.528H67.2666ZM63.3693 67.7199H161.448V59.9254H63.3693V67.7199ZM157.55 63.8226V129.528H165.345V63.8226H157.55ZM161.448 125.63H136.848V133.425H161.448V125.63ZM132.951 129.528V226.328H140.745V129.528H132.951ZM224.171 165.948V162.05H220.274V165.948H224.171ZM224.171 226.328V230.225H228.068V226.328H224.171ZM175.292 226.328H171.394V230.225H175.292V226.328ZM175.292 63.8226V59.9254H171.394V63.8226H175.292ZM224.171 63.8226H228.068V59.9254H224.171V63.8226ZM224.171 123.351H220.274V127.248H224.171V123.351ZM249.303 123.351V127.248H253.2V123.351H249.303ZM249.303 63.8226V59.9254H245.406V63.8226H249.303ZM298.076 63.8226H301.973V59.9254H298.076V63.8226ZM298.076 226.328V230.225H301.973V226.328H298.076ZM249.303 226.328H245.406V230.225H249.303V226.328ZM249.303 165.948H253.2V162.05H249.303V165.948ZM220.274 165.948V226.328H228.068V165.948H220.274ZM224.171 222.431H175.292V230.225H224.171V222.431ZM179.189 226.328V63.8226H171.394V226.328H179.189ZM175.292 67.7199H224.171V59.9254H175.292V67.7199ZM220.274 63.8226V123.351H228.068V63.8226H220.274ZM224.171 127.248H249.303V119.454H224.171V127.248ZM253.2 123.351V63.8226H245.406V123.351H253.2ZM249.303 67.7199H298.076V59.9254H249.303V67.7199ZM294.179 63.8226V226.328H301.973V63.8226H294.179ZM298.076 222.431H249.303V230.225H298.076V222.431ZM253.2 226.328V165.948H245.406V226.328H253.2ZM249.303 162.05H224.171V169.845H249.303V162.05ZM365.272 198.64V194.743H362.16L361.471 197.778L365.272 198.64ZM358.989 226.328V230.225H362.101L362.789 227.191L358.989 226.328ZM309.47 226.328L305.683 225.407L304.512 230.225H309.47V226.328ZM348.979 63.8226V59.9254H345.915L345.192 62.902L348.979 63.8226ZM418.73 63.8226L422.528 62.9467L421.831 59.9254H418.73V63.8226ZM456.215 226.328V230.225H461.114L460.013 225.452L456.215 226.328ZM407.229 226.328L403.432 227.204L404.129 230.225H407.229V226.328ZM400.84 198.64L404.637 197.764L403.94 194.743H400.84V198.64ZM404.78 122.925L402.244 125.884L402.26 125.898L402.277 125.913L404.78 122.925ZM384.547 127.291L380.829 128.46L383.792 137.89L388.062 128.975L384.547 127.291ZM379.967 121.647L377.912 124.959L377.984 125.003L378.057 125.044L379.967 121.647ZM363.781 123.138L361.309 120.125L361.161 120.247L361.025 120.382L363.781 123.138ZM363.781 142.626L360.632 144.922L360.743 145.074L360.868 145.215L363.781 142.626ZM367.189 146.46L364.276 149.049L364.352 149.135L364.433 149.216L367.189 146.46ZM370.809 150.187L373.903 147.817L373.781 147.657L373.643 147.511L370.809 150.187ZM374.217 165.735L370.365 165.142L369.255 172.358L375.868 169.265L374.217 165.735ZM396.048 152.21L398.535 155.21L398.54 155.206L396.048 152.21ZM361.471 197.778L355.188 225.466L362.789 227.191L369.072 199.503L361.471 197.778ZM358.989 222.431H309.47V230.225H358.989V222.431ZM313.257 227.249L352.766 64.7433L345.192 62.902L305.683 225.407L313.257 227.249ZM348.979 67.7199H418.73V59.9254H348.979V67.7199ZM414.933 64.6986L452.418 227.204L460.013 225.452L422.528 62.9467L414.933 64.6986ZM456.215 222.431H407.229V230.225H456.215V222.431ZM411.027 225.452L404.637 197.764L397.042 199.517L403.432 227.204L411.027 225.452ZM400.84 194.743H365.272V202.538H400.84V194.743ZM412.617 131.445C412.617 126.833 410.809 122.892 407.283 119.938L402.277 125.913C404.005 127.36 404.823 129.099 404.823 131.445H412.617ZM407.316 119.966C404.078 117.191 400.18 115.833 395.835 115.833V123.628C398.447 123.628 400.512 124.4 402.244 125.884L407.316 119.966ZM395.835 115.833C392.609 115.833 389.614 116.639 387.01 118.383C384.427 120.113 382.47 122.605 381.032 125.608L388.062 128.975C389.037 126.937 390.168 125.649 391.348 124.859C392.507 124.082 393.948 123.628 395.835 123.628V115.833ZM388.265 126.123C387.186 122.692 385.013 120.014 381.878 118.251L378.057 125.044C379.465 125.836 380.345 126.921 380.829 128.46L388.265 126.123ZM382.023 118.336C379.295 116.643 376.229 115.833 372.939 115.833V123.628C374.903 123.628 376.522 124.096 377.912 124.959L382.023 118.336ZM372.939 115.833C368.632 115.833 364.719 117.327 361.309 120.125L366.253 126.151C368.38 124.406 370.572 123.628 372.939 123.628V115.833ZM361.025 120.382C357.785 123.623 356.156 127.677 356.156 132.296H363.951C363.951 129.674 364.807 127.623 366.537 125.894L361.025 120.382ZM356.156 132.296C356.156 136.763 357.766 140.992 360.632 144.922L366.93 140.33C364.826 137.444 363.951 134.787 363.951 132.296H356.156ZM360.868 145.215C361.625 146.067 361.815 146.28 362.572 147.132C363.035 147.653 362.961 147.57 363.424 148.091C363.887 148.611 363.813 148.528 364.276 149.049L370.101 143.871C369.344 143.019 369.155 142.806 368.398 141.954C367.935 141.433 368.008 141.516 367.546 140.995C367.083 140.475 367.157 140.558 366.694 140.037L360.868 145.215ZM364.433 149.216C365.613 150.395 366.794 151.611 367.976 152.863L373.643 147.511C372.411 146.207 371.178 144.938 369.944 143.704L364.433 149.216ZM367.715 152.557C369.803 155.283 370.746 158.049 370.746 160.943H378.54C378.54 156.169 376.927 151.765 373.903 147.817L367.715 152.557ZM370.746 160.943C370.746 161.523 370.717 162.15 370.655 162.826L378.418 163.532C378.498 162.645 378.54 161.782 378.54 160.943H370.746ZM370.655 162.826C370.593 163.513 370.497 164.284 370.365 165.142L378.069 166.327C378.221 165.339 378.338 164.406 378.418 163.532L370.655 162.826ZM375.868 169.265C380.395 167.147 384.549 164.907 388.322 162.54L384.179 155.937C380.71 158.114 376.842 160.204 372.566 162.204L375.868 169.265ZM388.322 162.54C392.069 160.189 395.477 157.747 398.535 155.21L393.56 149.21C390.797 151.502 387.673 153.745 384.179 155.937L388.322 162.54ZM398.54 155.206C407.34 147.885 412.617 139.972 412.617 131.445H404.823C404.823 136.548 401.652 142.478 393.555 149.214L398.54 155.206ZM515.531 177.023L519.056 175.361L511.633 177.023H515.531ZM515.531 226.328V230.225H519.428V226.328H515.531ZM466.651 226.328H462.754V230.225H466.651V226.328ZM466.651 63.8226V59.9254H462.754V63.8226H466.651ZM501.58 63.8226L505.096 62.1406L504.036 59.9254H501.58V63.8226ZM527.564 118.133L524.049 119.815L531.461 118.133H527.564ZM527.564 63.8226V59.9254H523.667V63.8226H527.564ZM576.444 63.8226H580.341V59.9254H576.444V63.8226ZM576.444 227.393V231.29H580.341V227.393H576.444ZM539.278 227.393L535.753 229.055L536.807 231.29H539.278V227.393ZM511.633 177.023V226.328H519.428V177.023H511.633ZM515.531 222.431H466.651V230.225H515.531V222.431ZM470.549 226.328V63.8226H462.754V226.328H470.549ZM466.651 67.7199H501.58V59.9254H466.651V67.7199ZM498.065 65.5046L524.049 119.815L531.08 116.451L505.096 62.1406L498.065 65.5046ZM531.461 118.133V63.8226H523.667V118.133H531.461ZM527.564 67.7199H576.444V59.9254H527.564V67.7199ZM572.546 63.8226V227.393H580.341V63.8226H572.546ZM576.444 223.496H539.278V231.29H576.444V223.496ZM542.803 225.731L519.056 175.361L512.006 178.685L535.753 229.055L542.803 225.731ZM598.274 63.8226V59.9254H594.377V63.8226H598.274ZM647.154 63.8226H651.051V59.9254H647.154V63.8226ZM647.154 118.133H643.257V122.116L647.238 122.029L647.154 118.133ZM672.712 63.8226V59.9254H668.814V63.8226H672.712ZM722.656 63.8226H726.553V59.9254H722.656V63.8226ZM700.825 144.756L697.939 142.138L695.635 144.678L697.861 147.286L700.825 144.756ZM725.638 226.328V230.225H729.535V226.328H725.638ZM672.712 226.328H668.814V230.225H672.712V226.328ZM666.003 182.773L662.431 184.333L662.438 184.348L662.444 184.363L666.003 182.773ZM647.154 167.013L647.357 163.121L643.257 162.907V167.013H647.154ZM647.154 226.328V230.225H651.051V226.328H647.154ZM598.274 226.328H594.377V230.225H598.274V226.328ZM598.274 67.7199H647.154V59.9254H598.274V67.7199ZM643.257 63.8226V118.133H651.051V63.8226H643.257ZM647.238 122.029C655.646 121.847 662.546 116.365 668.125 107.544L661.538 103.377C656.609 111.169 651.725 114.136 647.069 114.237L647.238 122.029ZM668.125 107.544C673.984 98.2811 676.609 84.156 676.609 65.846H668.814C668.814 83.743 666.186 96.0276 661.538 103.377L668.125 107.544ZM676.609 65.846V63.8226H668.814V65.846H676.609ZM672.712 67.7199H722.656V59.9254H672.712V67.7199ZM718.759 63.8226V66.0589H726.553V63.8226H718.759ZM718.759 66.0589C718.759 102.123 711.523 127.161 697.939 142.138L703.712 147.374C719.235 130.261 726.553 102.834 726.553 66.0589H718.759ZM697.861 147.286C713.629 165.761 721.74 191.313 721.74 224.411H729.535C729.535 190.065 721.105 162.514 703.79 142.226L697.861 147.286ZM721.74 224.411V226.328H729.535V224.411H721.74ZM725.638 222.431H672.712V230.225H725.638V222.431ZM676.609 226.328V224.624H668.814V226.328H676.609ZM676.609 224.624C676.609 206.49 674.355 191.912 669.561 181.183L662.444 184.363C666.596 193.655 668.814 206.977 668.814 224.624H676.609ZM669.574 181.214C664.82 170.325 657.507 163.65 647.357 163.121L646.951 170.905C653.129 171.227 658.382 175.059 662.431 184.333L669.574 181.214ZM643.257 167.013V226.328H651.051V167.013H643.257ZM647.154 222.431H598.274V230.225H647.154V222.431ZM602.172 226.328V63.8226H594.377V226.328H602.172ZM857.474 155.405L853.932 153.778L853.577 154.553V155.405H857.474ZM857.474 226.328V230.225H861.371V226.328H857.474ZM808.594 226.328H804.697V230.225H808.594V226.328ZM808.594 155.405H812.492V154.553L812.136 153.778L808.594 155.405ZM766.53 63.8226V59.9254H760.452L762.989 65.4493L766.53 63.8226ZM816.049 63.8226L819.586 62.1869L818.54 59.9254H816.049V63.8226ZM833.087 100.669L829.55 102.304L833.087 109.954L836.625 102.304L833.087 100.669ZM850.126 63.8226V59.9254H847.634L846.589 62.1869L850.126 63.8226ZM899.538 63.8226L903.079 65.4493L905.617 59.9254H899.538V63.8226ZM853.577 155.405V226.328H861.371V155.405H853.577ZM857.474 222.431H808.594V230.225H857.474V222.431ZM812.492 226.328V155.405H804.697V226.328H812.492ZM812.136 153.778L770.072 62.196L762.989 65.4493L805.053 157.032L812.136 153.778ZM766.53 67.7199H816.049V59.9254H766.53V67.7199ZM812.511 65.4584L829.55 102.304L836.625 99.0328L819.586 62.1869L812.511 65.4584ZM836.625 102.304L853.663 65.4584L846.589 62.1869L829.55 99.0328L836.625 102.304ZM850.126 67.7199H899.538V59.9254H850.126V67.7199ZM895.996 62.196L853.932 153.778L861.015 157.032L903.079 65.4493L895.996 62.196ZM948.204 61.0539L948.143 64.9506L948.174 64.9511H948.204V61.0539ZM986.435 85.4403L983.201 87.6152L983.207 87.6249L986.435 85.4403ZM986.861 205.136L990.062 207.359L990.075 207.34L990.088 207.322L986.861 205.136ZM906.566 205.775L903.416 208.069L903.433 208.093L903.45 208.116L906.566 205.775ZM893.894 112.489L890.145 111.422L893.894 112.489ZM905.608 86.3988L908.864 88.5396L908.869 88.5328L908.873 88.5259L905.608 86.3988ZM923.924 67.8693L926.033 71.1465L926.045 71.1392L926.056 71.1318L923.924 67.8693ZM967.266 122.073L964.682 124.991L964.703 125.009L964.723 125.027L967.266 122.073ZM946.926 126.439L943.179 127.51L945.978 137.305L950.431 128.143L946.926 126.439ZM942.347 120.795L940.211 124.055L940.343 124.141L940.481 124.217L942.347 120.795ZM926.267 122.286L923.712 119.344L923.608 119.434L923.511 119.53L926.267 122.286ZM926.267 141.668L923.141 143.995L923.211 144.089L923.286 144.178L926.267 141.668ZM929.675 145.608L926.762 148.197L926.838 148.283L926.919 148.364L929.675 145.608ZM933.189 149.335L936.251 146.924L936.179 146.833L936.102 146.746L933.189 149.335ZM936.703 164.776L932.859 164.136L931.651 171.384L938.329 168.318L936.703 164.776ZM948.63 158.387L946.588 155.068L946.573 155.077L946.559 155.086L948.63 158.387ZM958.534 151.252L956.044 148.254L956.024 148.271L956.004 148.288L958.534 151.252ZM948.204 64.9511C961.033 64.9511 972.715 72.0233 983.201 87.6152L989.669 83.2655C978.288 66.3421 964.483 57.1566 948.204 57.1566V64.9511ZM983.207 87.6249C993.712 103.145 999.043 121.773 999.043 143.691H1006.84C1006.84 120.456 1001.17 100.251 989.662 83.2558L983.207 87.6249ZM999.043 143.691C999.043 168.286 993.799 187.939 983.633 202.951L990.088 207.322C1001.36 190.67 1006.84 169.36 1006.84 143.691H999.043ZM983.659 202.914C973.498 217.554 960.75 224.561 945.223 224.561V232.355C963.63 232.355 978.641 223.814 990.062 207.359L983.659 202.914ZM945.223 224.561C932.401 224.561 920.556 217.91 909.682 203.435L903.45 208.116C915.295 223.884 929.22 232.355 945.223 232.355V224.561ZM909.717 203.481C899.155 188.975 893.638 168.521 893.638 141.668H885.843C885.843 169.48 891.543 191.764 903.416 208.069L909.717 203.481ZM893.638 141.668C893.638 132.316 894.968 122.949 897.642 113.556L890.145 111.422C887.282 121.481 885.843 131.566 885.843 141.668H893.638ZM897.642 113.556C900.313 104.172 904.062 95.8442 908.864 88.5396L902.351 84.2579C897.072 92.288 893.012 101.354 890.145 111.422L897.642 113.556ZM908.873 88.5259C913.639 81.2094 919.363 75.4396 926.033 71.1465L921.815 64.5921C914.145 69.5282 907.658 76.1114 902.342 84.2716L908.873 88.5259ZM926.056 71.1318C932.54 66.8949 939.861 64.8202 948.143 64.9506L948.266 57.1571C938.515 57.0035 929.65 59.4725 921.792 64.6068L926.056 71.1318ZM974.997 130.593C974.997 126.02 973.255 122.087 969.809 119.12L964.723 125.027C966.389 126.461 967.203 128.208 967.203 130.593H974.997ZM969.85 119.156C966.616 116.291 962.702 114.875 958.321 114.875V122.669C960.898 122.669 962.947 123.454 964.682 124.991L969.85 119.156ZM958.321 114.875C955.084 114.875 952.079 115.695 949.463 117.456C946.871 119.2 944.892 121.71 943.421 124.736L950.431 128.143C951.445 126.058 952.608 124.734 953.814 123.922C954.997 123.127 956.446 122.669 958.321 122.669V114.875ZM950.674 125.369C949.667 121.844 947.439 119.134 944.213 117.374L940.481 124.217C941.941 125.013 942.766 126.065 943.179 127.51L950.674 125.369ZM944.483 117.535C941.764 115.754 938.709 114.875 935.425 114.875V122.669C937.253 122.669 938.813 123.139 940.211 124.055L944.483 117.535ZM935.425 114.875C931.03 114.875 927.081 116.418 923.712 119.344L928.822 125.229C930.849 123.469 933.005 122.669 935.425 122.669V114.875ZM923.511 119.53C920.271 122.771 918.643 126.825 918.643 131.445H926.437C926.437 128.822 927.293 126.772 929.023 125.042L923.511 119.53ZM918.643 131.445C918.643 135.917 920.257 140.122 923.141 143.995L929.393 139.34C927.308 136.54 926.437 133.93 926.437 131.445H918.643ZM923.286 144.178C924.444 145.553 925.602 146.892 926.762 148.197L932.588 143.019C931.476 141.768 930.362 140.48 929.248 139.157L923.286 144.178ZM926.919 148.364C928.072 149.516 929.191 150.703 930.276 151.924L936.102 146.746C934.915 145.411 933.692 144.113 932.431 142.852L926.919 148.364ZM930.127 151.746C932.286 154.488 933.232 157.208 933.232 159.984H941.026C941.026 155.235 939.346 150.855 936.251 146.924L930.127 151.746ZM933.232 159.984C933.232 160.647 933.202 161.31 933.141 161.974L940.904 162.68C940.986 161.782 941.026 160.883 941.026 159.984H933.232ZM933.141 161.974C933.08 162.65 932.987 163.37 932.859 164.136L940.547 165.417C940.704 164.479 940.823 163.566 940.904 162.68L933.141 161.974ZM938.329 168.318C942.796 166.268 946.923 164.059 950.702 161.688L946.559 155.086C943.096 157.258 939.272 159.309 935.077 161.234L938.329 168.318ZM950.673 161.706C954.514 159.342 957.982 156.847 961.064 154.216L956.004 148.288C953.265 150.626 950.13 152.888 946.588 155.068L950.673 161.706ZM961.024 154.25C969.764 146.991 974.997 139.113 974.997 130.593H967.203C967.203 135.703 964.058 141.598 956.044 148.254L961.024 154.25ZM1079.93 63.8226V59.9254H1076.04V63.8226H1079.93ZM1128.81 63.8226H1132.71V59.9254H1128.81V63.8226ZM1127.64 162.433L1123.76 162.049L1123.76 162.066L1123.76 162.084L1127.64 162.433ZM1122.21 187.246L1118.52 186.004L1118.51 186.013L1118.51 186.023L1122.21 187.246ZM1110.5 209.396L1113.52 211.856L1113.53 211.848L1113.53 211.839L1110.5 209.396ZM1093.46 223.666L1091.62 220.227L1091.62 220.231L1091.61 220.236L1093.46 223.666ZM1049.37 220.897L1047.22 224.149L1047.23 224.153L1047.24 224.157L1049.37 220.897ZM1030.63 199.812L1027.16 201.588L1027.17 201.599L1030.63 199.812ZM1018.91 63.8226V59.9254H1015.02V63.8226H1018.91ZM1067.79 63.8226H1071.69V59.9254H1067.79V63.8226ZM1068.97 153.382L1065.2 154.392L1065.2 154.403L1065.21 154.415L1068.97 153.382ZM1078.66 152.743L1082.43 153.726L1082.43 153.717L1082.43 153.707L1078.66 152.743ZM1079.93 67.7199H1128.81V59.9254H1079.93V67.7199ZM1124.92 63.8226V124.31H1132.71V63.8226H1124.92ZM1124.92 124.31C1124.92 141.832 1124.52 154.375 1123.76 162.049L1131.52 162.818C1132.32 154.731 1132.71 141.858 1132.71 124.31H1124.92ZM1123.76 162.084C1123.08 169.618 1121.34 177.589 1118.52 186.004L1125.91 188.487C1128.9 179.581 1130.78 171.01 1131.52 162.783L1123.76 162.084ZM1118.51 186.023C1115.8 194.232 1112.1 201.188 1107.46 206.953L1113.53 211.839C1118.83 205.252 1122.95 197.441 1125.91 188.469L1118.51 186.023ZM1107.47 206.936C1102.8 212.675 1097.52 217.084 1091.62 220.227L1095.29 227.105C1102.18 223.432 1108.25 218.328 1113.52 211.856L1107.47 206.936ZM1091.61 220.236C1085.81 223.364 1079.98 224.88 1074.08 224.88V232.675C1081.38 232.675 1088.47 230.783 1095.31 227.096L1091.61 220.236ZM1074.08 224.88C1066.49 224.88 1058.98 222.533 1051.51 217.637L1047.24 224.157C1055.8 229.769 1064.77 232.675 1074.08 232.675V224.88ZM1051.52 217.645C1044.15 212.774 1038.34 206.26 1034.09 198.024L1027.17 201.599C1032 210.971 1038.69 218.513 1047.22 224.149L1051.52 217.645ZM1034.1 198.036C1029.75 189.544 1026.78 180.355 1025.21 170.449L1017.51 171.67C1019.21 182.351 1022.42 192.331 1027.16 201.588L1034.1 198.036ZM1025.21 170.449C1023.63 160.468 1022.81 145.276 1022.81 124.736H1015.02C1015.02 145.372 1015.83 161.063 1017.51 171.67L1025.21 170.449ZM1022.81 124.736V63.8226H1015.02V124.736H1022.81ZM1018.91 67.7199H1067.79V59.9254H1018.91V67.7199ZM1063.9 63.8226V139.112H1071.69V63.8226H1063.9ZM1063.9 139.112C1063.9 145.75 1064.28 150.949 1065.2 154.392L1072.73 152.372C1072.09 149.993 1071.69 145.679 1071.69 139.112H1063.9ZM1065.21 154.415C1065.71 156.239 1066.55 158.034 1067.98 159.399C1069.5 160.849 1071.41 161.539 1073.44 161.539V153.744C1073.31 153.744 1073.29 153.725 1073.32 153.738C1073.36 153.752 1073.37 153.77 1073.36 153.754C1073.3 153.699 1073 153.364 1072.72 152.348L1065.21 154.415ZM1073.44 161.539C1075.63 161.539 1077.71 160.824 1079.38 159.258C1080.96 157.771 1081.89 155.789 1082.43 153.726L1074.88 151.759C1074.57 152.962 1074.2 153.429 1074.05 153.575C1073.98 153.639 1073.93 153.666 1073.88 153.685C1073.82 153.706 1073.69 153.744 1073.44 153.744V161.539ZM1082.43 153.707C1083.43 149.817 1083.83 142.507 1083.83 132.296H1076.04C1076.04 142.674 1075.59 148.995 1074.88 151.779L1082.43 153.707ZM1083.83 132.296V63.8226H1076.04V132.296H1083.83ZM1162.36 179.685L1159.49 182.328L1160.26 183.154L1161.34 183.447L1162.36 179.685ZM1152.35 152.636L1148.66 153.887L1148.66 153.892L1152.35 152.636ZM1150.86 73.4068L1147.48 71.4576L1147.48 71.4669L1150.86 73.4068ZM1185.47 73.4068L1182.07 75.3119L1182.07 75.3197L1182.08 75.3275L1185.47 73.4068ZM1184.83 149.122L1181.12 147.926L1181.11 147.953L1181.1 147.981L1184.83 149.122ZM1178.33 168.503L1181.97 169.906L1181.97 169.897L1181.97 169.889L1178.33 168.503ZM1173.54 179.685L1174.07 183.546L1176.08 183.269L1177.01 181.467L1173.54 179.685ZM1168.32 180.43L1167.74 176.576L1167.73 176.579L1167.71 176.581L1168.32 180.43ZM1185.04 189.695L1187.7 186.849L1187.67 186.818L1187.64 186.788L1185.04 189.695ZM1168.11 193.422L1164.31 194.281L1166.82 205.403L1171.64 195.07L1168.11 193.422ZM1164.17 188.63L1161.9 191.802L1162.2 192.01L1162.52 192.162L1164.17 188.63ZM1150.64 189.908L1148.18 186.892L1148.03 187.015L1147.89 187.152L1150.64 189.908ZM1150.64 206.308L1147.46 208.558L1147.65 208.829L1147.89 209.064L1150.64 206.308ZM1153.63 209.503L1150.67 212.039L1150.76 212.152L1150.87 212.258L1153.63 209.503ZM1156.5 212.591L1159.61 210.24L1159.53 210.129L1159.43 210.024L1156.5 212.591ZM1159.7 223.666L1163.57 224.096L1163.57 224.075L1163.57 224.054L1159.7 223.666ZM1159.59 225.689H1155.69V231.941L1161.31 229.188L1159.59 225.689ZM1177.91 214.295L1180.38 217.303L1180.39 217.293L1180.41 217.284L1177.91 214.295ZM1165.22 177.042C1165.54 177.385 1165.61 177.621 1165.41 177.217C1165.28 176.956 1165.09 176.547 1164.84 175.962C1164.35 174.798 1163.7 173.113 1162.87 170.878C1161.22 166.419 1158.94 159.926 1156.04 151.381L1148.66 153.892C1151.57 162.456 1153.87 169.026 1155.56 173.583C1156.4 175.857 1157.1 177.668 1157.66 178.989C1157.94 179.646 1158.2 180.227 1158.44 180.702C1158.6 181.034 1158.96 181.754 1159.49 182.328L1165.22 177.042ZM1156.04 151.385C1150.47 134.971 1147.73 119.385 1147.73 104.609H1139.93C1139.93 120.36 1142.86 136.793 1148.66 153.887L1156.04 151.385ZM1147.73 104.609C1147.73 92.4278 1149.99 82.7523 1154.24 75.3467L1147.48 71.4669C1142.36 80.39 1139.93 91.5158 1139.93 104.609H1147.73ZM1154.23 75.3561C1158.55 67.8775 1163.42 64.9511 1168.75 64.9511V57.1566C1159.73 57.1566 1152.68 62.4655 1147.48 71.4576L1154.23 75.3561ZM1168.75 64.9511C1173.29 64.9511 1177.8 67.6988 1182.07 75.3119L1188.87 71.5017C1183.9 62.6442 1177.27 57.1566 1168.75 57.1566V64.9511ZM1182.08 75.3275C1186.19 82.5866 1188.38 92.1935 1188.38 104.396H1196.18C1196.18 91.3241 1193.83 80.2717 1188.86 71.4862L1182.08 75.3275ZM1188.38 104.396C1188.38 118.355 1185.98 132.859 1181.12 147.926L1188.54 150.319C1193.62 134.573 1196.18 119.26 1196.18 104.396H1188.38ZM1181.1 147.981C1178.7 155.817 1176.56 162.188 1174.69 167.118L1181.97 169.889C1183.93 164.738 1186.13 158.188 1188.55 150.263L1181.1 147.981ZM1174.7 167.101C1172.79 172.035 1171.25 175.606 1170.07 177.903L1177.01 181.467C1178.38 178.794 1180.04 174.912 1181.97 169.906L1174.7 167.101ZM1173.01 175.824C1170.94 176.11 1169.18 176.36 1167.74 176.576L1168.9 184.285C1170.3 184.075 1172.02 183.828 1174.07 183.546L1173.01 175.824ZM1167.71 176.581C1167.22 176.659 1165.89 176.604 1163.37 175.923L1161.34 183.447C1164.08 184.186 1166.73 184.627 1168.93 184.28L1167.71 176.581ZM1192.24 196.937C1192.24 192.987 1190.61 189.572 1187.7 186.849L1182.38 192.541C1183.87 193.936 1184.44 195.348 1184.44 196.937H1192.24ZM1187.64 186.788C1184.87 184.315 1181.47 183.136 1177.69 183.136V190.93C1179.74 190.93 1181.24 191.526 1182.44 192.602L1187.64 186.788ZM1177.69 183.136C1174.84 183.136 1172.16 183.836 1169.83 185.388C1167.52 186.929 1165.8 189.142 1164.58 191.774L1171.64 195.07C1172.4 193.443 1173.27 192.462 1174.16 191.873C1175.02 191.295 1176.15 190.93 1177.69 190.93V183.136ZM1171.91 192.564C1171.13 189.131 1168.99 186.578 1165.82 185.099L1162.52 192.162C1163.61 192.671 1164.09 193.312 1164.31 194.281L1171.91 192.564ZM1166.43 185.459C1164.14 183.819 1161.41 183.136 1158.52 183.136V190.93C1160.18 190.93 1161.22 191.312 1161.9 191.802L1166.43 185.459ZM1158.52 183.136C1154.68 183.136 1151.18 184.43 1148.18 186.892L1153.11 192.924C1154.79 191.553 1156.55 190.93 1158.52 190.93V183.136ZM1147.89 187.152C1145.02 190.017 1143.66 193.671 1143.66 197.788H1151.45C1151.45 195.517 1152.15 193.917 1153.4 192.664L1147.89 187.152ZM1143.66 197.788C1143.66 201.568 1145.07 205.178 1147.46 208.558L1153.83 204.057C1152.1 201.616 1151.45 199.547 1151.45 197.788H1143.66ZM1147.89 209.064C1148.97 210.144 1149.89 211.135 1150.67 212.039L1156.58 206.966C1155.66 205.882 1154.59 204.743 1153.4 203.552L1147.89 209.064ZM1150.87 212.258C1151.72 213.112 1152.62 214.077 1153.57 215.157L1159.43 210.024C1158.39 208.833 1157.37 207.739 1156.38 206.747L1150.87 212.258ZM1153.39 214.941C1155.16 217.276 1155.9 219.521 1155.9 221.749H1163.7C1163.7 217.588 1162.25 213.727 1159.61 210.24L1153.39 214.941ZM1155.9 221.749C1155.9 222.16 1155.88 222.666 1155.82 223.278L1163.57 224.054C1163.65 223.246 1163.7 222.474 1163.7 221.749H1155.9ZM1155.82 223.235C1155.73 224.031 1155.69 224.85 1155.69 225.689H1163.49C1163.49 225.108 1163.52 224.578 1163.57 224.096L1155.82 223.235ZM1161.31 229.188C1168.88 225.473 1175.26 221.521 1180.38 217.303L1175.43 211.286C1170.89 215.02 1165.06 218.664 1157.87 222.19L1161.31 229.188ZM1180.41 217.284C1187.74 211.148 1192.24 204.371 1192.24 196.937H1184.44C1184.44 201.003 1181.99 205.799 1175.4 211.306L1180.41 217.284Z" fill="#303030" mask="url(#path-2-outside-1_4152_53)"/>
<g filter="url(#filter0_d_4152_53)">
<mask id="path-4-outside-2_4152_53" maskUnits="userSpaceOnUse" x="49.707" y="47.3281" width="1157" height="201" fill="black">
<rect fill="white" x="49.707" y="47.3281" width="1157" height="201"/>
<path d="M136.848 226.328H87.9688V129.528H63.3693V63.8226H161.448V129.528H136.848V226.328ZM224.171 165.948V226.328H175.292V63.8226H224.171V123.351H249.303V63.8226H298.076V226.328H249.303V165.948H224.171ZM365.272 198.64L358.989 226.328H309.47L348.979 63.8226H418.73L456.215 226.328H407.229L400.84 198.64H365.272ZM408.72 131.445C408.72 127.966 407.407 125.126 404.78 122.925C402.295 120.795 399.313 119.73 395.835 119.73C390.723 119.73 386.96 122.251 384.547 127.291C383.766 124.807 382.239 122.925 379.967 121.647C377.909 120.369 375.566 119.73 372.939 119.73C369.602 119.73 366.55 120.866 363.781 123.138C361.296 125.623 360.054 128.676 360.054 132.296C360.054 135.775 361.296 139.218 363.781 142.626C364.917 143.904 366.053 145.182 367.189 146.46C368.395 147.667 369.602 148.909 370.809 150.187C373.365 153.524 374.643 157.109 374.643 160.943C374.643 161.653 374.607 162.398 374.536 163.179C374.465 163.96 374.359 164.812 374.217 165.735C378.619 163.676 382.63 161.511 386.25 159.239C389.871 156.967 393.137 154.624 396.048 152.21C404.496 145.182 408.72 138.26 408.72 131.445ZM515.531 177.023V226.328H466.651V63.8226H501.58L527.564 118.133V63.8226H576.444V227.393H539.278L515.531 177.023ZM598.274 63.8226H647.154V118.133C653.685 117.991 659.578 113.767 664.831 105.461C670.085 97.1544 672.712 83.9495 672.712 65.846V63.8226H722.656V66.0589C722.656 102.479 715.379 128.711 700.825 144.756C717.367 164.137 725.638 190.689 725.638 224.411V226.328H672.712V224.624C672.712 206.734 670.475 192.783 666.003 182.773C661.601 172.692 655.318 167.439 647.154 167.013V226.328H598.274V63.8226ZM857.474 155.405V226.328H808.594V155.405L766.53 63.8226H816.049L833.087 100.669L850.126 63.8226H899.538L857.474 155.405ZM948.204 61.0539C962.758 61.0539 975.501 69.1827 986.435 85.4403C997.439 101.698 1002.94 121.115 1002.94 143.691C1002.94 168.823 997.581 189.305 986.861 205.136C976.069 220.684 962.19 228.458 945.223 228.458C930.811 228.458 917.925 220.897 906.566 205.775C895.349 190.37 889.741 169 889.741 141.668C889.741 131.941 891.125 122.215 893.894 112.489C896.663 102.763 900.567 94.0661 905.608 86.3988C910.648 78.6604 916.754 72.4839 923.924 67.8693C931.095 63.1837 939.188 60.9119 948.204 61.0539ZM971.1 130.593C971.1 127.114 969.822 124.274 967.266 122.073C964.781 119.872 961.8 118.772 958.321 118.772C953.209 118.772 949.411 121.328 946.926 126.439C946.216 123.955 944.69 122.073 942.347 120.795C940.288 119.447 937.981 118.772 935.425 118.772C932.018 118.772 928.965 119.943 926.267 122.286C923.782 124.771 922.54 127.824 922.54 131.445C922.54 134.923 923.782 138.331 926.267 141.668C927.403 143.017 928.539 144.33 929.675 145.608C930.882 146.815 932.053 148.057 933.189 149.335C935.816 152.672 937.129 156.221 937.129 159.984C937.129 160.765 937.094 161.546 937.023 162.327C936.952 163.108 936.845 163.924 936.703 164.776C941.034 162.788 945.01 160.659 948.63 158.387C952.322 156.115 955.623 153.737 958.534 151.252C966.911 144.294 971.1 137.408 971.1 130.593ZM1079.93 63.8226H1128.81V124.31C1128.81 141.845 1128.42 154.553 1127.64 162.433C1126.93 170.314 1125.12 178.585 1122.21 187.246C1119.37 195.836 1115.47 203.22 1110.5 209.396C1105.53 215.502 1099.85 220.258 1093.46 223.666C1087.14 227.074 1080.68 228.777 1074.08 228.777C1065.63 228.777 1057.39 226.151 1049.37 220.897C1041.42 215.644 1035.17 208.615 1030.63 199.812C1026.08 190.938 1023 181.353 1021.36 171.059C1019.73 160.765 1018.91 145.324 1018.91 124.736V63.8226H1067.79V139.112C1067.79 145.714 1068.18 150.471 1068.97 153.382C1069.75 156.221 1071.24 157.641 1073.44 157.641C1076.06 157.641 1077.8 156.008 1078.66 152.743C1079.51 149.406 1079.93 142.591 1079.93 132.296V63.8226ZM1162.36 179.685C1161.51 178.762 1158.17 169.746 1152.35 152.636C1146.67 135.882 1143.83 119.872 1143.83 104.609C1143.83 91.9718 1146.17 81.5712 1150.86 73.4068C1155.61 65.1715 1161.58 61.0539 1168.75 61.0539C1175.28 61.0539 1180.85 65.1715 1185.47 73.4068C1190.01 81.4292 1192.28 91.7588 1192.28 104.396C1192.28 118.808 1189.8 133.716 1184.83 149.122C1182.41 157.002 1180.25 163.463 1178.33 168.503C1176.41 173.473 1174.82 177.2 1173.54 179.685C1171.48 179.969 1169.74 180.217 1168.32 180.43C1166.97 180.643 1164.98 180.395 1162.36 179.685ZM1188.34 196.937C1188.34 194.168 1187.24 191.754 1185.04 189.695C1183.05 187.92 1180.6 187.033 1177.69 187.033C1173.29 187.033 1170.1 189.163 1168.11 193.422C1167.61 191.222 1166.3 189.624 1164.17 188.63C1162.68 187.565 1160.8 187.033 1158.52 187.033C1155.61 187.033 1152.99 187.991 1150.64 189.908C1148.59 191.967 1147.56 194.594 1147.56 197.788C1147.56 200.557 1148.59 203.397 1150.64 206.308C1151.78 207.444 1152.77 208.509 1153.63 209.503C1154.55 210.425 1155.51 211.455 1156.5 212.591C1158.7 215.502 1159.8 218.554 1159.8 221.749C1159.8 222.317 1159.77 222.956 1159.7 223.666C1159.62 224.305 1159.59 224.979 1159.59 225.689C1166.97 222.068 1173.08 218.27 1177.91 214.295C1184.86 208.473 1188.34 202.687 1188.34 196.937Z"/>
</mask>
<path d="M136.848 226.328H87.9688V129.528H63.3693V63.8226H161.448V129.528H136.848V226.328ZM224.171 165.948V226.328H175.292V63.8226H224.171V123.351H249.303V63.8226H298.076V226.328H249.303V165.948H224.171ZM365.272 198.64L358.989 226.328H309.47L348.979 63.8226H418.73L456.215 226.328H407.229L400.84 198.64H365.272ZM408.72 131.445C408.72 127.966 407.407 125.126 404.78 122.925C402.295 120.795 399.313 119.73 395.835 119.73C390.723 119.73 386.96 122.251 384.547 127.291C383.766 124.807 382.239 122.925 379.967 121.647C377.909 120.369 375.566 119.73 372.939 119.73C369.602 119.73 366.55 120.866 363.781 123.138C361.296 125.623 360.054 128.676 360.054 132.296C360.054 135.775 361.296 139.218 363.781 142.626C364.917 143.904 366.053 145.182 367.189 146.46C368.395 147.667 369.602 148.909 370.809 150.187C373.365 153.524 374.643 157.109 374.643 160.943C374.643 161.653 374.607 162.398 374.536 163.179C374.465 163.96 374.359 164.812 374.217 165.735C378.619 163.676 382.63 161.511 386.25 159.239C389.871 156.967 393.137 154.624 396.048 152.21C404.496 145.182 408.72 138.26 408.72 131.445ZM515.531 177.023V226.328H466.651V63.8226H501.58L527.564 118.133V63.8226H576.444V227.393H539.278L515.531 177.023ZM598.274 63.8226H647.154V118.133C653.685 117.991 659.578 113.767 664.831 105.461C670.085 97.1544 672.712 83.9495 672.712 65.846V63.8226H722.656V66.0589C722.656 102.479 715.379 128.711 700.825 144.756C717.367 164.137 725.638 190.689 725.638 224.411V226.328H672.712V224.624C672.712 206.734 670.475 192.783 666.003 182.773C661.601 172.692 655.318 167.439 647.154 167.013V226.328H598.274V63.8226ZM857.474 155.405V226.328H808.594V155.405L766.53 63.8226H816.049L833.087 100.669L850.126 63.8226H899.538L857.474 155.405ZM948.204 61.0539C962.758 61.0539 975.501 69.1827 986.435 85.4403C997.439 101.698 1002.94 121.115 1002.94 143.691C1002.94 168.823 997.581 189.305 986.861 205.136C976.069 220.684 962.19 228.458 945.223 228.458C930.811 228.458 917.925 220.897 906.566 205.775C895.349 190.37 889.741 169 889.741 141.668C889.741 131.941 891.125 122.215 893.894 112.489C896.663 102.763 900.567 94.0661 905.608 86.3988C910.648 78.6604 916.754 72.4839 923.924 67.8693C931.095 63.1837 939.188 60.9119 948.204 61.0539ZM971.1 130.593C971.1 127.114 969.822 124.274 967.266 122.073C964.781 119.872 961.8 118.772 958.321 118.772C953.209 118.772 949.411 121.328 946.926 126.439C946.216 123.955 944.69 122.073 942.347 120.795C940.288 119.447 937.981 118.772 935.425 118.772C932.018 118.772 928.965 119.943 926.267 122.286C923.782 124.771 922.54 127.824 922.54 131.445C922.54 134.923 923.782 138.331 926.267 141.668C927.403 143.017 928.539 144.33 929.675 145.608C930.882 146.815 932.053 148.057 933.189 149.335C935.816 152.672 937.129 156.221 937.129 159.984C937.129 160.765 937.094 161.546 937.023 162.327C936.952 163.108 936.845 163.924 936.703 164.776C941.034 162.788 945.01 160.659 948.63 158.387C952.322 156.115 955.623 153.737 958.534 151.252C966.911 144.294 971.1 137.408 971.1 130.593ZM1079.93 63.8226H1128.81V124.31C1128.81 141.845 1128.42 154.553 1127.64 162.433C1126.93 170.314 1125.12 178.585 1122.21 187.246C1119.37 195.836 1115.47 203.22 1110.5 209.396C1105.53 215.502 1099.85 220.258 1093.46 223.666C1087.14 227.074 1080.68 228.777 1074.08 228.777C1065.63 228.777 1057.39 226.151 1049.37 220.897C1041.42 215.644 1035.17 208.615 1030.63 199.812C1026.08 190.938 1023 181.353 1021.36 171.059C1019.73 160.765 1018.91 145.324 1018.91 124.736V63.8226H1067.79V139.112C1067.79 145.714 1068.18 150.471 1068.97 153.382C1069.75 156.221 1071.24 157.641 1073.44 157.641C1076.06 157.641 1077.8 156.008 1078.66 152.743C1079.51 149.406 1079.93 142.591 1079.93 132.296V63.8226ZM1162.36 179.685C1161.51 178.762 1158.17 169.746 1152.35 152.636C1146.67 135.882 1143.83 119.872 1143.83 104.609C1143.83 91.9718 1146.17 81.5712 1150.86 73.4068C1155.61 65.1715 1161.58 61.0539 1168.75 61.0539C1175.28 61.0539 1180.85 65.1715 1185.47 73.4068C1190.01 81.4292 1192.28 91.7588 1192.28 104.396C1192.28 118.808 1189.8 133.716 1184.83 149.122C1182.41 157.002 1180.25 163.463 1178.33 168.503C1176.41 173.473 1174.82 177.2 1173.54 179.685C1171.48 179.969 1169.74 180.217 1168.32 180.43C1166.97 180.643 1164.98 180.395 1162.36 179.685ZM1188.34 196.937C1188.34 194.168 1187.24 191.754 1185.04 189.695C1183.05 187.92 1180.6 187.033 1177.69 187.033C1173.29 187.033 1170.1 189.163 1168.11 193.422C1167.61 191.222 1166.3 189.624 1164.17 188.63C1162.68 187.565 1160.8 187.033 1158.52 187.033C1155.61 187.033 1152.99 187.991 1150.64 189.908C1148.59 191.967 1147.56 194.594 1147.56 197.788C1147.56 200.557 1148.59 203.397 1150.64 206.308C1151.78 207.444 1152.77 208.509 1153.63 209.503C1154.55 210.425 1155.51 211.455 1156.5 212.591C1158.7 215.502 1159.8 218.554 1159.8 221.749C1159.8 222.317 1159.77 222.956 1159.7 223.666C1159.62 224.305 1159.59 224.979 1159.59 225.689C1166.97 222.068 1173.08 218.27 1177.91 214.295C1184.86 208.473 1188.34 202.687 1188.34 196.937Z" fill="#FFDB43"/>
<path d="M136.848 226.328V239.969H150.489V226.328H136.848ZM87.9688 226.328H74.3283V239.969H87.9688V226.328ZM87.9688 129.528H101.609V115.887H87.9688V129.528ZM63.3693 129.528H49.7289V143.168H63.3693V129.528ZM63.3693 63.8226V50.1822H49.7289V63.8226H63.3693ZM161.448 63.8226H175.088V50.1822H161.448V63.8226ZM161.448 129.528V143.168H175.088V129.528H161.448ZM136.848 129.528V115.887H123.208V129.528H136.848ZM136.848 212.688H87.9688V239.969H136.848V212.688ZM101.609 226.328V129.528H74.3283V226.328H101.609ZM87.9688 115.887H63.3693V143.168H87.9688V115.887ZM77.0097 129.528V63.8226H49.7289V129.528H77.0097ZM63.3693 77.4631H161.448V50.1822H63.3693V77.4631ZM147.807 63.8226V129.528H175.088V63.8226H147.807ZM161.448 115.887H136.848V143.168H161.448V115.887ZM123.208 129.528V226.328H150.489V129.528H123.208ZM224.171 165.948V152.307H210.531V165.948H224.171ZM224.171 226.328V239.969H237.811V226.328H224.171ZM175.292 226.328H161.651V239.969H175.292V226.328ZM175.292 63.8226V50.1822H161.651V63.8226H175.292ZM224.171 63.8226H237.811V50.1822H224.171V63.8226ZM224.171 123.351H210.531V136.992H224.171V123.351ZM249.303 123.351V136.992H262.943V123.351H249.303ZM249.303 63.8226V50.1822H235.662V63.8226H249.303ZM298.076 63.8226H311.716V50.1822H298.076V63.8226ZM298.076 226.328V239.969H311.716V226.328H298.076ZM249.303 226.328H235.662V239.969H249.303V226.328ZM249.303 165.948H262.943V152.307H249.303V165.948ZM210.531 165.948V226.328H237.811V165.948H210.531ZM224.171 212.688H175.292V239.969H224.171V212.688ZM188.932 226.328V63.8226H161.651V226.328H188.932ZM175.292 77.4631H224.171V50.1822H175.292V77.4631ZM210.531 63.8226V123.351H237.811V63.8226H210.531ZM224.171 136.992H249.303V109.711H224.171V136.992ZM262.943 123.351V63.8226H235.662V123.351H262.943ZM249.303 77.4631H298.076V50.1822H249.303V77.4631ZM284.435 63.8226V226.328H311.716V63.8226H284.435ZM298.076 212.688H249.303V239.969H298.076V212.688ZM262.943 226.328V165.948H235.662V226.328H262.943ZM249.303 152.307H224.171V179.588H249.303V152.307ZM365.272 198.64V185H354.38L351.969 195.622L365.272 198.64ZM358.989 226.328V239.969H369.881L372.291 229.347L358.989 226.328ZM309.47 226.328L296.216 223.106L292.116 239.969H309.47V226.328ZM348.979 63.8226V50.1822H338.257L335.724 60.6002L348.979 63.8226ZM418.73 63.8226L432.022 60.7567L429.582 50.1822H418.73V63.8226ZM456.215 226.328V239.969H473.36L469.507 223.262L456.215 226.328ZM407.229 226.328L393.938 229.395L396.378 239.969H407.229V226.328ZM400.84 198.64L414.131 195.573L411.691 185H400.84V198.64ZM404.78 122.925L395.903 133.282L395.961 133.332L396.02 133.381L404.78 122.925ZM384.547 127.291L371.534 131.381L381.907 164.386L396.849 133.183L384.547 127.291ZM379.967 121.647L372.774 133.237L373.024 133.392L373.28 133.536L379.967 121.647ZM363.781 123.138L355.128 112.593L354.61 113.019L354.136 113.493L363.781 123.138ZM363.781 142.626L352.759 150.663L353.148 151.195L353.586 151.688L363.781 142.626ZM367.189 146.46L356.994 155.522L357.26 155.822L357.543 156.105L367.189 146.46ZM370.809 150.187L381.638 141.893L381.21 141.333L380.726 140.821L370.809 150.187ZM374.217 165.735L360.735 163.661L356.85 188.917L379.996 178.09L374.217 165.735ZM396.048 152.21L404.755 162.71L404.763 162.703L404.771 162.696L396.048 152.21ZM351.969 195.622L345.687 223.31L372.291 229.347L378.574 201.659L351.969 195.622ZM358.989 212.688H309.47V239.969H358.989V212.688ZM322.725 229.551L362.233 67.045L335.724 60.6002L296.216 223.106L322.725 229.551ZM348.979 77.4631H418.73V50.1822H348.979V77.4631ZM405.439 66.8885L442.924 229.394L469.507 223.262L432.022 60.7567L405.439 66.8885ZM456.215 212.688H407.229V239.969H456.215V212.688ZM420.52 223.261L414.131 195.573L387.549 201.708L393.938 229.395L420.52 223.261ZM400.84 185H365.272V212.281H400.84V185ZM422.361 131.445C422.361 124.001 419.314 117.307 413.54 112.47L396.02 133.381C395.941 133.315 395.619 133.004 395.355 132.432C395.233 132.169 395.16 131.927 395.119 131.731C395.079 131.54 395.08 131.436 395.08 131.445H422.361ZM413.657 112.569C408.536 108.179 402.347 106.09 395.835 106.09V133.371C396.007 133.371 396.102 133.384 396.132 133.389C396.16 133.394 396.142 133.393 396.092 133.375C396.069 133.367 396.043 133.356 396.015 133.343C395.987 133.33 395.962 133.317 395.941 133.304C395.894 133.277 395.882 133.264 395.903 133.282L413.657 112.569ZM395.835 106.09C390.936 106.09 385.997 107.335 381.588 110.288C377.252 113.192 374.26 117.189 372.244 121.4L396.849 133.183C397.05 132.763 397.179 132.607 397.174 132.613C397.16 132.63 397.032 132.778 396.77 132.954C396.502 133.133 396.219 133.257 395.98 133.325C395.754 133.389 395.682 133.371 395.835 133.371V106.09ZM397.559 123.202C395.738 117.405 391.948 112.736 386.655 109.759L373.28 133.536C373.033 133.397 372.623 133.103 372.224 132.611C371.824 132.119 371.62 131.655 371.534 131.381L397.559 123.202ZM387.161 110.058C382.761 107.327 377.886 106.09 372.939 106.09V133.371C373.042 133.371 373.099 133.377 373.116 133.379C373.133 133.381 373.118 133.38 373.077 133.369C373.036 133.358 372.983 133.341 372.924 133.315C372.865 133.289 372.814 133.261 372.774 133.237L387.161 110.058ZM372.939 106.09C366.207 106.09 360.144 108.478 355.128 112.593L372.433 133.683C372.605 133.542 372.729 133.462 372.802 133.419C372.838 133.398 372.864 133.384 372.88 133.377C372.896 133.37 372.903 133.367 372.904 133.367C372.904 133.366 372.901 133.368 372.894 133.369C372.887 133.371 372.881 133.373 372.877 133.373C372.866 133.375 372.883 133.371 372.939 133.371V106.09ZM354.136 113.493C349.007 118.621 346.413 125.181 346.413 132.296H373.694C373.694 132.173 373.704 132.142 373.697 132.184C373.688 132.228 373.667 132.318 373.62 132.433C373.573 132.549 373.517 132.649 373.466 132.725C373.417 132.798 373.393 132.816 373.426 132.783L354.136 113.493ZM346.413 132.296C346.413 139.233 348.942 145.427 352.759 150.663L374.802 134.59C373.65 133.009 373.694 132.317 373.694 132.296H346.413ZM353.586 151.688C353.922 152.067 354.953 153.226 355.29 153.605C355.292 153.608 355.314 153.632 355.316 153.635C355.319 153.638 355.34 153.662 355.343 153.665C355.346 153.668 355.367 153.692 355.37 153.695C355.372 153.698 355.394 153.722 355.396 153.725C355.399 153.728 355.42 153.752 355.423 153.755C355.425 153.758 355.447 153.782 355.449 153.785C355.452 153.788 355.473 153.812 355.476 153.815C355.479 153.818 355.5 153.842 355.503 153.845C355.505 153.848 355.527 153.872 355.529 153.875C355.532 153.878 355.553 153.902 355.556 153.905C355.559 153.908 355.58 153.932 355.583 153.935C355.585 153.938 355.607 153.962 355.609 153.965C355.612 153.967 355.633 153.992 355.636 153.994C355.638 153.997 355.66 154.021 355.662 154.024C355.665 154.027 355.686 154.051 355.689 154.054C355.692 154.057 355.713 154.081 355.716 154.084C355.718 154.087 355.74 154.111 355.742 154.114C355.745 154.117 355.766 154.141 355.769 154.144C355.772 154.147 355.793 154.171 355.796 154.174C355.798 154.177 355.82 154.201 355.822 154.204C355.825 154.207 355.846 154.231 355.849 154.234C355.851 154.237 355.873 154.261 355.875 154.264C355.878 154.267 355.899 154.291 355.902 154.294C355.905 154.297 355.926 154.321 355.929 154.324C355.931 154.327 355.953 154.351 355.955 154.354C355.958 154.357 355.979 154.381 355.982 154.384C355.985 154.387 356.006 154.411 356.009 154.414C356.011 154.417 356.033 154.441 356.035 154.444C356.038 154.447 356.059 154.471 356.062 154.474C356.064 154.477 356.086 154.501 356.088 154.504C356.091 154.507 356.112 154.531 356.115 154.534C356.118 154.537 356.139 154.561 356.142 154.564C356.144 154.567 356.166 154.591 356.168 154.593C356.171 154.596 356.192 154.62 356.195 154.623C356.198 154.626 356.219 154.65 356.222 154.653C356.224 154.656 356.246 154.68 356.248 154.683C356.251 154.686 356.272 154.71 356.275 154.713C356.277 154.716 356.299 154.74 356.301 154.743C356.304 154.746 356.325 154.77 356.328 154.773C356.331 154.776 356.352 154.8 356.355 154.803C356.357 154.806 356.379 154.83 356.381 154.833C356.384 154.836 356.405 154.86 356.408 154.863C356.411 154.866 356.432 154.89 356.435 154.893C356.437 154.896 356.458 154.92 356.461 154.923C356.464 154.926 356.485 154.95 356.488 154.953C356.49 154.956 356.512 154.98 356.514 154.983C356.517 154.986 356.538 155.01 356.541 155.013C356.544 155.016 356.565 155.04 356.568 155.043C356.57 155.046 356.592 155.07 356.594 155.073C356.597 155.076 356.618 155.1 356.621 155.103C356.623 155.106 356.645 155.13 356.647 155.133C356.65 155.136 356.671 155.16 356.674 155.163C356.677 155.166 356.698 155.19 356.701 155.193C356.703 155.195 356.725 155.22 356.727 155.222C356.73 155.225 356.751 155.249 356.754 155.252C356.757 155.255 356.778 155.279 356.781 155.282C356.783 155.285 356.805 155.309 356.807 155.312C356.81 155.315 356.831 155.339 356.834 155.342C356.836 155.345 356.858 155.369 356.86 155.372C356.863 155.375 356.884 155.399 356.887 155.402C356.89 155.405 356.911 155.429 356.914 155.432C356.916 155.435 356.938 155.459 356.94 155.462C356.943 155.465 356.964 155.489 356.967 155.492C356.97 155.495 356.991 155.519 356.994 155.522L377.384 137.398C377.047 137.019 376.016 135.859 375.68 135.481C375.677 135.478 375.675 135.476 375.673 135.473C375.671 135.471 375.669 135.468 375.666 135.466C375.664 135.463 375.662 135.461 375.66 135.458C375.657 135.456 375.655 135.453 375.653 135.451C375.651 135.448 375.649 135.446 375.646 135.443C375.644 135.441 375.642 135.438 375.64 135.436C375.638 135.433 375.635 135.431 375.633 135.428C375.631 135.426 375.629 135.423 375.626 135.421C375.624 135.418 375.622 135.416 375.62 135.413C375.618 135.411 375.615 135.408 375.613 135.406C375.611 135.403 375.609 135.401 375.606 135.398C375.604 135.396 375.602 135.393 375.6 135.391C375.598 135.388 375.595 135.386 375.593 135.383C375.591 135.381 375.589 135.378 375.586 135.376C375.584 135.373 375.582 135.371 375.58 135.368C375.578 135.366 375.575 135.363 375.573 135.361C375.571 135.358 375.569 135.356 375.567 135.353C375.564 135.351 375.562 135.348 375.56 135.346C375.558 135.343 375.555 135.341 375.553 135.338C375.551 135.336 375.549 135.333 375.547 135.331C375.544 135.328 375.542 135.326 375.54 135.323C375.538 135.321 375.535 135.318 375.533 135.316C375.531 135.313 375.529 135.311 375.527 135.309C375.524 135.306 375.522 135.304 375.52 135.301C375.518 135.299 375.515 135.296 375.513 135.294C375.511 135.291 375.509 135.289 375.507 135.286C375.504 135.284 375.502 135.281 375.5 135.279C375.498 135.276 375.496 135.274 375.493 135.271C375.491 135.269 375.489 135.266 375.487 135.264C375.484 135.261 375.482 135.259 375.48 135.256C375.478 135.254 375.476 135.251 375.473 135.249C375.471 135.246 375.469 135.244 375.467 135.241C375.464 135.239 375.462 135.236 375.46 135.234C375.458 135.231 375.456 135.229 375.453 135.226C375.451 135.224 375.449 135.221 375.447 135.219C375.445 135.216 375.442 135.214 375.44 135.211C375.438 135.209 375.436 135.206 375.433 135.204C375.431 135.201 375.429 135.199 375.427 135.196C375.425 135.194 375.422 135.191 375.42 135.189C375.418 135.186 375.416 135.184 375.413 135.181C375.411 135.179 375.409 135.176 375.407 135.174C375.405 135.171 375.402 135.169 375.4 135.166C375.398 135.164 375.396 135.161 375.393 135.159C375.391 135.156 375.389 135.154 375.387 135.151C375.385 135.149 375.382 135.146 375.38 135.144C375.378 135.141 375.376 135.139 375.374 135.136C375.371 135.134 375.369 135.131 375.367 135.129C375.365 135.126 375.362 135.124 375.36 135.121C375.358 135.119 375.356 135.116 375.354 135.114C375.351 135.111 375.349 135.109 375.347 135.106C375.345 135.104 375.342 135.101 375.34 135.099C375.338 135.096 375.336 135.094 375.334 135.091C375.331 135.089 375.329 135.086 375.327 135.084C375.325 135.081 375.322 135.079 375.32 135.076C375.318 135.074 375.316 135.071 375.314 135.069C375.311 135.066 375.309 135.064 375.307 135.061C375.305 135.059 375.303 135.056 375.3 135.054C375.298 135.051 375.296 135.049 375.294 135.046C375.291 135.044 375.289 135.041 375.287 135.039C375.285 135.036 375.283 135.034 375.28 135.031C375.278 135.029 375.276 135.026 375.274 135.024C375.271 135.021 375.269 135.019 375.267 135.016C375.265 135.014 375.263 135.011 375.26 135.009C375.258 135.007 375.256 135.004 375.254 135.002C375.251 134.999 375.249 134.997 375.247 134.994C375.245 134.992 375.243 134.989 375.24 134.987C375.238 134.984 375.236 134.982 375.234 134.979C375.232 134.977 375.229 134.974 375.227 134.972C375.225 134.969 375.223 134.967 375.22 134.964C375.218 134.962 375.216 134.959 375.214 134.957C375.212 134.954 375.209 134.952 375.207 134.949C375.205 134.947 375.203 134.944 375.2 134.942C375.198 134.939 375.196 134.937 375.194 134.934C375.192 134.932 375.189 134.929 375.187 134.927C375.185 134.924 375.183 134.922 375.18 134.919C375.178 134.917 375.176 134.914 375.174 134.912C375.172 134.909 375.169 134.907 375.167 134.904C375.165 134.902 375.163 134.899 375.161 134.897C375.158 134.894 375.156 134.892 375.154 134.889C375.152 134.887 375.149 134.884 375.147 134.882C375.145 134.879 375.143 134.877 375.141 134.874C375.138 134.872 375.136 134.869 375.134 134.867C375.132 134.864 375.129 134.862 375.127 134.859C375.125 134.857 375.123 134.854 375.121 134.852C375.118 134.849 375.116 134.847 375.114 134.844C375.112 134.842 375.11 134.839 375.107 134.837C375.105 134.834 375.103 134.832 375.101 134.829C375.098 134.827 375.096 134.824 375.094 134.822C375.092 134.819 375.09 134.817 375.087 134.814C375.085 134.812 375.083 134.809 375.081 134.807C375.078 134.804 375.076 134.802 375.074 134.799C375.072 134.797 375.07 134.794 375.067 134.792C375.065 134.789 375.063 134.787 375.061 134.784C375.058 134.782 375.056 134.779 375.054 134.777C375.052 134.774 375.05 134.772 375.047 134.769C375.045 134.767 375.043 134.764 375.041 134.762C375.039 134.759 375.036 134.757 375.034 134.754C375.032 134.752 375.03 134.749 375.027 134.747C375.025 134.744 375.023 134.742 375.021 134.739C375.019 134.737 375.016 134.734 375.014 134.732C375.012 134.729 375.01 134.727 375.007 134.724C375.005 134.722 375.003 134.719 375.001 134.717C374.999 134.714 374.996 134.712 374.994 134.709C374.992 134.707 374.99 134.705 374.987 134.702C374.985 134.7 374.983 134.697 374.981 134.695C374.979 134.692 374.976 134.69 374.974 134.687C374.972 134.685 374.97 134.682 374.968 134.68C374.965 134.677 374.963 134.675 374.961 134.672C374.959 134.67 374.956 134.667 374.954 134.665C374.952 134.662 374.95 134.66 374.948 134.657C374.945 134.655 374.943 134.652 374.941 134.65C374.939 134.647 374.936 134.645 374.934 134.642C374.932 134.64 374.93 134.637 374.928 134.635C374.925 134.632 374.923 134.63 374.921 134.627C374.919 134.625 374.916 134.622 374.914 134.62C374.912 134.617 374.91 134.615 374.908 134.612C374.905 134.61 374.903 134.607 374.901 134.605C374.899 134.602 374.897 134.6 374.894 134.597C374.892 134.595 374.89 134.592 374.888 134.59C374.885 134.587 374.883 134.585 374.881 134.582C374.879 134.58 374.877 134.577 374.874 134.575C374.872 134.572 374.87 134.57 374.868 134.567C374.865 134.565 374.863 134.562 374.861 134.56C374.859 134.557 374.857 134.555 374.854 134.552C374.852 134.55 374.85 134.547 374.848 134.545C374.845 134.542 374.843 134.54 374.841 134.537C374.839 134.535 374.837 134.532 374.834 134.53C374.832 134.527 374.83 134.525 374.828 134.522C374.826 134.52 374.823 134.517 374.821 134.515C374.819 134.512 374.817 134.51 374.814 134.507C374.812 134.505 374.81 134.502 374.808 134.5C374.806 134.497 374.803 134.495 374.801 134.492C374.799 134.49 374.797 134.487 374.794 134.485C374.792 134.482 374.79 134.48 374.788 134.477C374.786 134.475 374.783 134.472 374.781 134.47C374.779 134.467 374.777 134.465 374.774 134.462C374.772 134.46 374.77 134.457 374.768 134.455C374.766 134.452 374.763 134.45 374.761 134.447C374.759 134.445 374.757 134.442 374.755 134.44C374.752 134.437 374.75 134.435 374.748 134.432C374.746 134.43 374.743 134.427 374.741 134.425C374.739 134.422 374.737 134.42 374.735 134.417C374.732 134.415 374.73 134.412 374.728 134.41C374.726 134.407 374.723 134.405 374.721 134.402C374.719 134.4 374.717 134.398 374.715 134.395C374.712 134.393 374.71 134.39 374.708 134.388C374.706 134.385 374.704 134.383 374.701 134.38C374.699 134.378 374.697 134.375 374.695 134.373C374.692 134.37 374.69 134.368 374.688 134.365C374.686 134.363 374.684 134.36 374.681 134.358C374.679 134.355 374.677 134.353 374.675 134.35C374.672 134.348 374.67 134.345 374.668 134.343C374.666 134.34 374.664 134.338 374.661 134.335C374.659 134.333 374.657 134.33 374.655 134.328C374.652 134.325 374.65 134.323 374.648 134.32C374.646 134.318 374.644 134.315 374.641 134.313C374.639 134.31 374.637 134.308 374.635 134.305C374.633 134.303 374.63 134.3 374.628 134.298C374.626 134.295 374.624 134.293 374.621 134.29C374.619 134.288 374.617 134.285 374.615 134.283C374.613 134.28 374.61 134.278 374.608 134.275C374.606 134.273 374.604 134.27 374.601 134.268C374.599 134.265 374.597 134.263 374.595 134.26C374.593 134.258 374.59 134.255 374.588 134.253C374.586 134.25 374.584 134.248 374.581 134.245C374.579 134.243 374.577 134.24 374.575 134.238C374.573 134.235 374.57 134.233 374.568 134.23C374.566 134.228 374.564 134.225 374.562 134.223C374.559 134.22 374.557 134.218 374.555 134.215C374.553 134.213 374.55 134.21 374.548 134.208C374.546 134.205 374.544 134.203 374.542 134.2C374.539 134.198 374.537 134.195 374.535 134.193C374.533 134.19 374.53 134.188 374.528 134.185C374.526 134.183 374.524 134.18 374.522 134.178C374.519 134.175 374.517 134.173 374.515 134.17C374.513 134.168 374.51 134.165 374.508 134.163C374.506 134.16 374.504 134.158 374.502 134.155C374.499 134.153 374.497 134.15 374.495 134.148C374.493 134.145 374.491 134.143 374.488 134.14C374.486 134.138 374.484 134.135 374.482 134.133C374.479 134.13 374.477 134.128 374.475 134.125C374.473 134.123 374.471 134.12 374.468 134.118C374.466 134.115 374.464 134.113 374.462 134.11C374.459 134.108 374.457 134.105 374.455 134.103C374.453 134.1 374.451 134.098 374.448 134.096C374.446 134.093 374.444 134.091 374.442 134.088C374.439 134.086 374.437 134.083 374.435 134.081C374.433 134.078 374.431 134.076 374.428 134.073C374.426 134.071 374.424 134.068 374.422 134.066C374.42 134.063 374.417 134.061 374.415 134.058C374.413 134.056 374.411 134.053 374.408 134.051C374.406 134.048 374.404 134.046 374.402 134.043C374.4 134.041 374.397 134.038 374.395 134.036C374.393 134.033 374.391 134.031 374.388 134.028C374.386 134.026 374.384 134.023 374.382 134.021C374.38 134.018 374.377 134.016 374.375 134.013C374.373 134.011 374.371 134.008 374.369 134.006C374.366 134.003 374.364 134.001 374.362 133.998C374.36 133.996 374.357 133.993 374.355 133.991C374.353 133.988 374.351 133.986 374.349 133.983C374.346 133.981 374.344 133.978 374.342 133.976C374.34 133.973 374.337 133.971 374.335 133.968C374.333 133.966 374.331 133.963 374.329 133.961C374.326 133.958 374.324 133.956 374.322 133.953C374.32 133.951 374.317 133.948 374.315 133.946C374.313 133.943 374.311 133.941 374.309 133.938C374.306 133.936 374.304 133.933 374.302 133.931C374.3 133.928 374.298 133.926 374.295 133.923C374.293 133.921 374.291 133.918 374.289 133.916C374.286 133.913 374.284 133.911 374.282 133.908C374.28 133.906 374.278 133.903 374.275 133.901C374.273 133.898 374.271 133.896 374.269 133.893C374.266 133.891 374.264 133.888 374.262 133.886C374.26 133.883 374.258 133.881 374.255 133.878C374.253 133.876 374.251 133.873 374.249 133.871C374.246 133.868 374.244 133.866 374.242 133.863C374.24 133.861 374.238 133.858 374.235 133.856C374.233 133.853 374.231 133.851 374.229 133.848C374.227 133.846 374.224 133.843 374.222 133.841C374.22 133.838 374.218 133.836 374.215 133.833C374.213 133.831 374.211 133.828 374.209 133.826C374.207 133.823 374.204 133.821 374.202 133.818C374.2 133.816 374.198 133.813 374.195 133.811C374.193 133.808 374.191 133.806 374.189 133.803C374.187 133.801 374.184 133.798 374.182 133.796C374.18 133.794 374.178 133.791 374.175 133.789C374.173 133.786 374.171 133.784 374.169 133.781C374.167 133.779 374.164 133.776 374.162 133.774C374.16 133.771 374.158 133.769 374.156 133.766C374.153 133.764 374.151 133.761 374.149 133.759C374.147 133.756 374.144 133.754 374.142 133.751C374.14 133.749 374.138 133.746 374.136 133.744C374.133 133.741 374.131 133.739 374.129 133.736C374.127 133.734 374.124 133.731 374.122 133.729C374.12 133.726 374.118 133.724 374.116 133.721C374.113 133.719 374.111 133.716 374.109 133.714C374.107 133.711 374.104 133.709 374.102 133.706C374.1 133.704 374.098 133.701 374.096 133.699C374.093 133.696 374.091 133.694 374.089 133.691C374.087 133.689 374.085 133.686 374.082 133.684C374.08 133.681 374.078 133.679 374.076 133.676C374.073 133.674 374.071 133.671 374.069 133.669C374.067 133.666 374.065 133.664 374.062 133.661C374.06 133.659 374.058 133.656 374.056 133.654C374.053 133.651 374.051 133.649 374.049 133.646C374.047 133.644 374.045 133.641 374.042 133.639C374.04 133.636 374.038 133.634 374.036 133.631C374.033 133.629 374.031 133.626 374.029 133.624C374.027 133.621 374.025 133.619 374.022 133.616C374.02 133.614 374.018 133.611 374.016 133.609C374.014 133.606 374.011 133.604 374.009 133.601C374.007 133.599 374.005 133.596 374.002 133.594C374 133.591 373.998 133.589 373.996 133.586C373.994 133.584 373.991 133.581 373.989 133.579C373.987 133.576 373.985 133.574 373.982 133.571C373.98 133.569 373.978 133.566 373.976 133.564L353.586 151.688ZM357.543 156.105C358.656 157.217 359.772 158.367 360.892 159.553L380.726 140.821C379.433 139.452 378.135 138.116 376.834 136.815L357.543 156.105ZM359.98 158.481C360.899 159.68 361.003 160.4 361.003 160.943H388.283C388.283 153.818 385.831 147.367 381.638 141.893L359.98 158.481ZM361.003 160.943C361.003 161.2 360.99 161.532 360.952 161.944L388.121 164.414C388.225 163.264 388.283 162.105 388.283 160.943H361.003ZM360.952 161.944C360.911 162.397 360.842 162.966 360.735 163.661L387.699 167.809C387.876 166.658 388.02 165.522 388.121 164.414L360.952 161.944ZM379.996 178.09C384.837 175.826 389.347 173.399 393.5 170.793L379.001 147.684C375.912 149.622 372.4 151.526 368.438 153.379L379.996 178.09ZM393.5 170.793C397.565 168.243 401.327 165.553 404.755 162.71L387.34 141.71C384.947 143.695 382.177 145.691 379.001 147.684L393.5 170.793ZM404.771 162.696C414.45 154.644 422.361 144.25 422.361 131.445H395.08C395.08 132.269 394.542 135.72 387.324 141.724L404.771 162.696ZM515.531 177.023L527.869 171.206L501.89 177.023H515.531ZM515.531 226.328V239.969H529.171V226.328H515.531ZM466.651 226.328H453.011V239.969H466.651V226.328ZM466.651 63.8226V50.1822H453.011V63.8226H466.651ZM501.58 63.8226L513.885 57.9357L510.176 50.1822H501.58V63.8226ZM527.564 118.133L515.26 124.02L541.205 118.133H527.564ZM527.564 63.8226V50.1822H513.924V63.8226H527.564ZM576.444 63.8226H590.084V50.1822H576.444V63.8226ZM576.444 227.393V241.033H590.084V227.393H576.444ZM539.278 227.393L526.94 233.21L530.629 241.033H539.278V227.393ZM501.89 177.023V226.328H529.171V177.023H501.89ZM515.531 212.688H466.651V239.969H515.531V212.688ZM480.292 226.328V63.8226H453.011V226.328H480.292ZM466.651 77.4631H501.58V50.1822H466.651V77.4631ZM489.276 69.7096L515.26 124.02L539.869 112.246L513.885 57.9357L489.276 69.7096ZM541.205 118.133V63.8226H513.924V118.133H541.205ZM527.564 77.4631H576.444V50.1822H527.564V77.4631ZM562.803 63.8226V227.393H590.084V63.8226H562.803ZM576.444 213.753H539.278V241.033H576.444V213.753ZM551.616 221.576L527.869 171.206L503.193 182.84L526.94 233.21L551.616 221.576ZM598.274 63.8226V50.1822H584.634V63.8226H598.274ZM647.154 63.8226H660.794V50.1822H647.154V63.8226ZM647.154 118.133H633.513V132.073L647.45 131.77L647.154 118.133ZM672.712 63.8226V50.1822H659.071V63.8226H672.712ZM722.656 63.8226H736.296V50.1822H722.656V63.8226ZM700.825 144.756L690.722 135.591L682.658 144.482L690.45 153.611L700.825 144.756ZM725.638 226.328V239.969H739.278V226.328H725.638ZM672.712 226.328H659.071V239.969H672.712V226.328ZM666.003 182.773L653.502 188.231L653.525 188.285L653.549 188.338L666.003 182.773ZM647.154 167.013L647.864 153.391L633.513 152.642V167.013H647.154ZM647.154 226.328V239.969H660.794V226.328H647.154ZM598.274 226.328H584.634V239.969H598.274V226.328ZM598.274 77.4631H647.154V50.1822H598.274V77.4631ZM633.513 63.8226V118.133H660.794V63.8226H633.513ZM647.45 131.77C660.547 131.486 669.967 122.859 676.359 112.752L653.303 98.1694C651.302 101.334 649.635 102.977 648.524 103.772C647.557 104.466 647.075 104.491 646.857 104.496L647.45 131.77ZM676.359 112.752C683.73 101.098 686.352 84.6722 686.352 65.846H659.071C659.071 83.2267 656.439 93.2108 653.303 98.1694L676.359 112.752ZM686.352 65.846V63.8226H659.071V65.846H686.352ZM672.712 77.4631H722.656V50.1822H672.712V77.4631ZM709.016 63.8226V66.0589H736.296V63.8226H709.016ZM709.016 66.0589C709.016 101.235 701.883 123.287 690.722 135.591L710.929 153.92C728.875 134.135 736.296 103.723 736.296 66.0589H709.016ZM690.45 153.611C704.284 169.82 711.997 192.872 711.997 224.411H739.278C739.278 188.506 730.45 158.455 711.201 135.901L690.45 153.611ZM711.997 224.411V226.328H739.278V224.411H711.997ZM725.638 212.688H672.712V239.969H725.638V212.688ZM686.352 226.328V224.624H659.071V226.328H686.352ZM686.352 224.624C686.352 205.881 684.053 189.734 678.457 177.209L653.549 188.338C656.898 195.833 659.071 207.587 659.071 224.624H686.352ZM678.504 177.315C672.867 164.406 662.981 154.179 647.864 153.391L646.443 180.634C647.655 180.698 650.335 180.978 653.502 188.231L678.504 177.315ZM633.513 167.013V226.328H660.794V167.013H633.513ZM647.154 212.688H598.274V239.969H647.154V212.688ZM611.915 226.328V63.8226H584.634V226.328H611.915ZM857.474 155.405L845.078 149.712L843.833 152.422V155.405H857.474ZM857.474 226.328V239.969H871.114V226.328H857.474ZM808.594 226.328H794.954V239.969H808.594V226.328ZM808.594 155.405H822.235V152.422L820.99 149.712L808.594 155.405ZM766.53 63.8226V50.1822H745.255L754.135 69.5159L766.53 63.8226ZM816.049 63.8226L828.43 58.0974L824.769 50.1822H816.049V63.8226ZM833.087 100.669L820.707 106.394L833.087 133.167L845.468 106.394L833.087 100.669ZM850.126 63.8226V50.1822H841.405L837.745 58.0974L850.126 63.8226ZM899.538 63.8226L911.933 69.5159L920.813 50.1822H899.538V63.8226ZM843.833 155.405V226.328H871.114V155.405H843.833ZM857.474 212.688H808.594V239.969H857.474V212.688ZM822.235 226.328V155.405H794.954V226.328H822.235ZM820.99 149.712L778.926 58.1294L754.135 69.5159L796.199 161.098L820.99 149.712ZM766.53 77.4631H816.049V50.1822H766.53V77.4631ZM803.668 69.5478L820.707 106.394L845.468 94.9434L828.43 58.0974L803.668 69.5478ZM845.468 106.394L862.507 69.5478L837.745 58.0974L820.707 94.9434L845.468 106.394ZM850.126 77.4631H899.538V50.1822H850.126V77.4631ZM887.142 58.1294L845.078 149.712L869.869 161.098L911.933 69.5159L887.142 58.1294ZM948.204 61.0539L947.989 74.6926L948.097 74.6943H948.204V61.0539ZM986.435 85.4403L975.116 93.0522L975.127 93.0692L975.138 93.0862L986.435 85.4403ZM986.861 205.136L998.066 212.914L998.111 212.849L998.155 212.784L986.861 205.136ZM906.566 205.775L895.539 213.804L895.599 213.886L895.66 213.968L906.566 205.775ZM893.894 112.489L880.775 108.754L893.894 112.489ZM905.608 86.3988L917.006 93.8919L917.022 93.8678L917.037 93.8437L905.608 86.3988ZM923.924 67.8693L931.306 79.3396L931.346 79.3139L931.386 79.2879L923.924 67.8693ZM967.266 122.073L958.222 132.284L958.293 132.347L958.365 132.41L967.266 122.073ZM946.926 126.439L933.811 130.187L943.606 164.47L959.194 132.403L946.926 126.439ZM942.347 120.795L934.872 132.205L935.332 132.507L935.816 132.77L942.347 120.795ZM926.267 122.286L917.323 111.987L916.961 112.302L916.622 112.641L926.267 122.286ZM926.267 141.668L915.327 149.815L915.571 150.142L915.833 150.454L926.267 141.668ZM929.675 145.608L919.48 154.67L919.746 154.97L920.03 155.253L929.675 145.608ZM933.189 149.335L943.907 140.898L943.655 140.577L943.384 140.273L933.189 149.335ZM936.703 164.776L923.248 162.534L919.02 187.902L942.394 177.173L936.703 164.776ZM948.63 158.387L941.481 146.77L941.431 146.801L941.38 146.832L948.63 158.387ZM958.534 151.252L949.819 140.758L949.748 140.817L949.678 140.877L958.534 151.252ZM948.204 74.6943C956.721 74.6943 965.749 79.1248 975.116 93.0522L997.754 77.8284C985.253 59.2406 968.795 47.4134 948.204 47.4134V74.6943ZM975.138 93.0862C984.395 106.762 989.3 123.419 989.3 143.691H1016.58C1016.58 118.81 1010.48 96.6344 997.731 77.7945L975.138 93.0862ZM989.3 143.691C989.3 166.942 984.343 184.526 975.566 197.488L998.155 212.784C1010.82 194.084 1016.58 170.704 1016.58 143.691H989.3ZM975.655 197.359C967.07 209.728 957.15 214.818 945.223 214.818V242.098C967.23 242.098 985.069 231.64 998.066 212.914L975.655 197.359ZM945.223 214.818C936.377 214.818 927.132 210.443 917.472 197.583L895.66 213.968C908.718 231.351 925.245 242.098 945.223 242.098V214.818ZM917.593 197.746C908.669 185.49 903.381 167.323 903.381 141.668H876.1C876.1 170.678 882.029 195.25 895.539 213.804L917.593 197.746ZM903.381 141.668C903.381 133.254 904.576 124.784 907.013 116.224L880.775 108.754C877.674 119.647 876.1 130.629 876.1 141.668H903.381ZM907.013 116.224C909.441 107.696 912.8 100.289 917.006 93.8919L894.21 78.9056C888.334 87.8428 883.884 97.8302 880.775 108.754L907.013 116.224ZM917.037 93.8437C921.116 87.582 925.885 82.8288 931.306 79.3396L916.542 56.399C907.623 62.139 900.181 69.7388 894.178 78.9538L917.037 93.8437ZM931.386 79.2879C936.153 76.1729 941.545 74.5911 947.989 74.6926L948.419 47.4151C936.831 47.2327 926.037 50.1945 916.463 56.4507L931.386 79.2879ZM984.74 130.593C984.74 123.286 981.838 116.621 976.167 111.737L958.365 132.41C958.259 132.318 957.949 131.998 957.702 131.451C957.461 130.915 957.459 130.556 957.459 130.593H984.74ZM976.31 111.862C971.203 107.339 964.957 105.132 958.321 105.132V132.412C958.47 132.412 958.54 132.424 958.546 132.425C958.551 132.426 958.511 132.419 958.444 132.394C958.375 132.369 958.31 132.337 958.258 132.305C958.207 132.274 958.195 132.26 958.222 132.284L976.31 111.862ZM958.321 105.132C953.38 105.132 948.431 106.406 944.024 109.372C939.7 112.281 936.701 116.274 934.659 120.476L959.194 132.403C959.416 131.946 959.567 131.755 959.587 131.731C959.598 131.716 959.495 131.843 959.254 132.006C959.006 132.173 958.734 132.294 958.495 132.363C958.267 132.428 958.186 132.412 958.321 132.412V105.132ZM960.042 122.692C958.292 116.567 954.312 111.784 948.879 108.821L935.816 132.77C935.585 132.644 935.122 132.333 934.656 131.759C934.185 131.177 933.927 130.594 933.811 130.187L960.042 122.692ZM949.823 109.386C945.454 106.524 940.529 105.132 935.425 105.132V132.412C935.49 132.412 935.411 132.419 935.246 132.37C935.076 132.321 934.942 132.251 934.872 132.205L949.823 109.386ZM935.425 105.132C928.561 105.132 922.371 107.604 917.323 111.987L935.211 132.585C935.347 132.467 935.435 132.409 935.47 132.388C935.503 132.368 935.501 132.373 935.467 132.386C935.432 132.399 935.396 132.408 935.37 132.413C935.344 132.418 935.359 132.412 935.425 132.412V105.132ZM916.622 112.641C911.493 117.769 908.899 124.329 908.899 131.445H936.18C936.18 131.321 936.191 131.29 936.183 131.332C936.175 131.377 936.153 131.466 936.106 131.581C936.059 131.697 936.003 131.797 935.952 131.873C935.903 131.946 935.879 131.964 935.912 131.932L916.622 112.641ZM908.899 131.445C908.899 138.4 911.442 144.598 915.327 149.815L937.207 133.521C936.122 132.064 936.18 131.447 936.18 131.445H908.899ZM915.833 150.454C917.045 151.893 918.261 153.298 919.48 154.67L939.87 136.546C938.817 135.361 937.761 134.14 936.701 132.881L915.833 150.454ZM920.03 155.253C921.047 156.271 922.035 157.319 922.994 158.397L943.384 140.273C942.071 138.796 940.716 137.359 939.32 135.963L920.03 155.253ZM922.471 157.772C923.461 159.03 923.489 159.673 923.489 159.984H950.77C950.77 152.77 948.17 146.313 943.907 140.898L922.471 157.772ZM923.489 159.984C923.489 160.351 923.472 160.72 923.438 161.092L950.607 163.562C950.715 162.372 950.77 161.179 950.77 159.984H923.489ZM923.438 161.092C923.401 161.504 923.34 161.983 923.248 162.534L950.158 167.019C950.35 165.866 950.503 164.712 950.607 163.562L923.438 161.092ZM942.394 177.173C947.202 174.966 951.705 172.561 955.88 169.941L941.38 146.832C938.314 148.757 934.866 150.611 931.013 152.379L942.394 177.173ZM955.779 170.004C959.994 167.41 963.878 164.624 967.39 161.626L949.678 140.877C947.368 142.849 944.65 144.82 941.481 146.77L955.779 170.004ZM967.249 161.745C976.896 153.733 984.74 143.374 984.74 130.593H957.459C957.459 131.442 956.926 134.856 949.819 140.758L967.249 161.745ZM1079.93 63.8226V50.1822H1066.29V63.8226H1079.93ZM1128.81 63.8226H1142.45V50.1822H1128.81V63.8226ZM1127.64 162.433L1114.07 161.088L1114.06 161.149L1114.06 161.21L1127.64 162.433ZM1122.21 187.246L1109.28 182.901L1109.27 182.933L1109.26 182.965L1122.21 187.246ZM1110.5 209.396L1121.08 218.007L1121.1 217.977L1121.12 217.947L1110.5 209.396ZM1093.46 223.666L1087.04 211.63L1087.01 211.645L1086.98 211.66L1093.46 223.666ZM1049.37 220.897L1041.85 232.278L1041.87 232.293L1041.9 232.308L1049.37 220.897ZM1030.63 199.812L1018.49 206.028L1018.5 206.048L1018.51 206.068L1030.63 199.812ZM1018.91 63.8226V50.1822H1005.27V63.8226H1018.91ZM1067.79 63.8226H1081.43V50.1822H1067.79V63.8226ZM1068.97 153.382L1055.79 156.916L1055.8 156.957L1055.81 156.999L1068.97 153.382ZM1078.66 152.743L1091.85 156.186L1091.86 156.152L1091.87 156.117L1078.66 152.743ZM1079.93 77.4631H1128.81V50.1822H1079.93V77.4631ZM1115.17 63.8226V124.31H1142.45V63.8226H1115.17ZM1115.17 124.31C1115.17 141.8 1114.78 153.929 1114.07 161.088L1141.22 163.779C1142.07 155.177 1142.45 141.89 1142.45 124.31H1115.17ZM1114.06 161.21C1113.46 167.879 1111.9 175.098 1109.28 182.901L1135.14 191.591C1138.34 182.071 1140.41 172.749 1141.23 163.657L1114.06 161.21ZM1109.26 182.965C1106.86 190.221 1103.68 196.108 1099.87 200.845L1121.12 217.947C1127.25 210.331 1131.88 201.452 1135.16 191.527L1109.26 182.965ZM1099.92 200.785C1095.99 205.607 1091.69 209.148 1087.04 211.63L1099.88 235.702C1108 231.368 1115.06 225.396 1121.08 218.007L1099.92 200.785ZM1086.98 211.66C1082.48 214.091 1078.22 215.137 1074.08 215.137V242.418C1083.13 242.418 1091.8 240.056 1099.93 235.672L1086.98 211.66ZM1074.08 215.137C1068.63 215.137 1062.95 213.487 1056.84 209.486L1041.9 232.308C1051.83 238.814 1062.63 242.418 1074.08 242.418V215.137ZM1056.89 209.516C1050.96 205.601 1046.27 200.371 1042.75 193.556L1018.51 206.068C1024.08 216.86 1031.87 225.686 1041.85 232.278L1056.89 209.516ZM1042.77 193.595C1038.91 186.06 1036.25 177.86 1034.84 168.922L1007.89 173.196C1009.74 184.847 1013.26 195.816 1018.49 206.028L1042.77 193.595ZM1034.84 168.922C1033.38 159.724 1032.55 145.157 1032.55 124.736H1005.27C1005.27 145.491 1006.09 161.806 1007.89 173.196L1034.84 168.922ZM1032.55 124.736V63.8226H1005.27V124.736H1032.55ZM1018.91 77.4631H1067.79V50.1822H1018.91V77.4631ZM1054.15 63.8226V139.112H1081.43V63.8226H1054.15ZM1054.15 139.112C1054.15 145.838 1054.51 152.145 1055.79 156.916L1082.14 149.847C1081.86 148.797 1081.43 145.59 1081.43 139.112H1054.15ZM1055.81 156.999C1056.59 159.834 1058.11 163.453 1061.26 166.454C1064.73 169.757 1069.1 171.282 1073.44 171.282V144.001C1075.57 144.001 1078.1 144.816 1080.08 146.699C1080.92 147.505 1081.43 148.289 1081.72 148.826C1082 149.353 1082.1 149.707 1082.12 149.765L1055.81 156.999ZM1073.44 171.282C1077.84 171.282 1082.38 169.801 1086.05 166.362C1089.42 163.199 1091.04 159.323 1091.85 156.186L1065.46 149.3C1065.46 149.296 1065.48 149.223 1065.53 149.093C1065.58 148.962 1065.66 148.761 1065.79 148.508C1066.06 148 1066.55 147.245 1067.38 146.472C1069.3 144.665 1071.66 144.001 1073.44 144.001V171.282ZM1091.87 156.117C1093.22 150.844 1093.57 142.297 1093.57 132.296H1066.29C1066.29 142.884 1065.8 147.968 1065.44 149.368L1091.87 156.117ZM1093.57 132.296V63.8226H1066.29V132.296H1093.57ZM1162.36 179.685L1152.33 188.937L1155 191.827L1158.8 192.853L1162.36 179.685ZM1152.35 152.636L1139.43 157.015L1139.43 157.023L1139.43 157.03L1152.35 152.636ZM1150.86 73.4068L1139.05 66.5845L1139.04 66.6008L1139.03 66.6171L1150.86 73.4068ZM1185.47 73.4068L1173.57 80.0747L1173.58 80.1019L1173.6 80.1291L1185.47 73.4068ZM1184.83 149.122L1171.85 144.934L1171.81 145.031L1171.79 145.127L1184.83 149.122ZM1178.33 168.503L1191.06 173.412L1191.07 173.382L1191.08 173.352L1178.33 168.503ZM1173.54 179.685L1175.4 193.197L1182.43 192.229L1185.67 185.923L1173.54 179.685ZM1168.32 180.43L1166.3 166.941L1166.25 166.949L1166.19 166.957L1168.32 180.43ZM1185.04 189.695L1194.36 179.734L1194.24 179.626L1194.13 179.52L1185.04 189.695ZM1168.11 193.422L1154.8 196.427L1163.59 235.354L1180.47 199.191L1168.11 193.422ZM1164.17 188.63L1156.24 199.73L1157.26 200.46L1158.4 200.991L1164.17 188.63ZM1150.64 189.908L1142.01 179.351L1141.48 179.782L1141 180.263L1150.64 189.908ZM1150.64 206.308L1139.51 214.185L1140.18 215.132L1141 215.953L1150.64 206.308ZM1153.63 209.503L1143.27 218.38L1143.61 218.777L1143.98 219.148L1153.63 209.503ZM1156.5 212.591L1167.38 204.364L1167.09 203.975L1166.77 203.608L1156.5 212.591ZM1159.7 223.666L1173.25 225.172L1173.26 225.098L1173.27 225.023L1159.7 223.666ZM1159.59 225.689H1145.95V247.57L1165.59 237.936L1159.59 225.689ZM1177.91 214.295L1186.58 224.824L1186.62 224.79L1186.66 224.756L1177.91 214.295ZM1172.38 170.433C1173.27 171.395 1173.77 172.238 1173.86 172.391C1174.03 172.675 1174.12 172.857 1174.12 172.859C1174.13 172.867 1174.03 172.675 1173.82 172.178C1173.42 171.212 1172.82 169.683 1172.01 167.496C1170.4 163.16 1168.16 156.764 1165.26 148.242L1139.43 157.03C1142.36 165.619 1144.69 172.285 1146.42 176.965C1147.28 179.287 1148.04 181.254 1148.68 182.773C1149 183.518 1149.35 184.316 1149.72 185.06C1149.84 185.301 1150.74 187.214 1152.33 188.937L1172.38 170.433ZM1165.27 148.257C1159.99 132.693 1157.47 118.168 1157.47 104.609H1130.19C1130.19 121.577 1133.35 139.07 1139.43 157.015L1165.27 148.257ZM1157.47 104.609C1157.47 93.5677 1159.53 85.7053 1162.69 80.1965L1139.03 66.6171C1132.82 77.4371 1130.19 90.3758 1130.19 104.609H1157.47ZM1162.67 80.2291C1165.9 74.6426 1168.03 74.6943 1168.75 74.6943V47.4134C1155.13 47.4134 1145.33 55.7004 1139.05 66.5845L1162.67 80.2291ZM1168.75 74.6943C1168.91 74.6943 1169.13 74.6756 1169.72 75.1129C1170.5 75.686 1171.88 77.0679 1173.57 80.0747L1197.37 66.739C1191.53 56.326 1182.25 47.4134 1168.75 47.4134V74.6943ZM1173.6 80.1291C1176.63 85.4802 1178.64 93.2802 1178.64 104.396H1205.92C1205.92 90.2374 1203.39 77.3781 1197.34 66.6846L1173.6 80.1291ZM1178.64 104.396C1178.64 117.223 1176.43 130.717 1171.85 144.934L1197.81 153.31C1203.16 136.716 1205.92 120.392 1205.92 104.396H1178.64ZM1171.79 145.127C1169.42 152.853 1167.35 159.001 1165.58 163.655L1191.08 173.352C1193.15 167.925 1195.41 161.152 1197.87 153.117L1171.79 145.127ZM1165.61 163.595C1163.74 168.438 1162.35 171.622 1161.41 173.447L1185.67 185.923C1187.29 182.778 1189.09 178.508 1191.06 173.412L1165.61 163.595ZM1171.68 166.173C1169.58 166.461 1167.79 166.717 1166.3 166.941L1170.34 193.92C1171.69 193.718 1173.38 193.477 1175.4 193.197L1171.68 166.173ZM1166.19 166.957C1166.75 166.869 1167.15 166.862 1167.34 166.864C1167.53 166.866 1167.59 166.879 1167.51 166.869C1167.43 166.859 1167.26 166.834 1166.98 166.776C1166.71 166.718 1166.35 166.635 1165.92 166.517L1158.8 192.853C1161.8 193.664 1166.12 194.587 1170.45 193.904L1166.19 166.957ZM1201.98 196.937C1201.98 190.036 1199.05 184.118 1194.36 179.734L1175.72 199.656C1175.7 199.632 1175.39 199.33 1175.1 198.708C1174.81 198.061 1174.7 197.417 1174.7 196.937H1201.98ZM1194.13 179.52C1189.4 175.3 1183.62 173.392 1177.69 173.392V200.673C1177.75 200.673 1177.5 200.679 1177.07 200.523C1176.62 200.361 1176.23 200.114 1175.96 199.87L1194.13 179.52ZM1177.69 173.392C1173.2 173.392 1168.58 174.512 1164.43 177.281C1160.33 180.013 1157.56 183.767 1155.75 187.654L1180.47 199.191C1180.64 198.818 1180.46 199.378 1179.56 199.98C1179.13 200.264 1178.69 200.456 1178.3 200.566C1178.11 200.618 1177.96 200.646 1177.86 200.66C1177.75 200.673 1177.69 200.673 1177.69 200.673V173.392ZM1181.41 190.418C1179.94 183.904 1175.71 178.962 1169.94 176.27L1158.4 200.991C1157.87 200.745 1157.02 200.213 1156.21 199.237C1155.4 198.245 1154.98 197.21 1154.8 196.427L1181.41 190.418ZM1172.1 177.531C1167.79 174.453 1162.95 173.392 1158.52 173.392V200.673C1158.6 200.673 1158.37 200.683 1157.92 200.557C1157.46 200.425 1156.86 200.17 1156.24 199.73L1172.1 177.531ZM1158.52 173.392C1152.33 173.392 1146.68 175.527 1142.01 179.351L1159.28 200.465C1159.37 200.396 1159.29 200.479 1159.05 200.566C1158.94 200.606 1158.82 200.635 1158.72 200.653C1158.62 200.671 1158.55 200.673 1158.52 200.673V173.392ZM1141 180.263C1136.12 185.141 1133.92 191.363 1133.92 197.788H1161.2C1161.2 197.67 1161.21 197.931 1161.03 198.399C1160.83 198.892 1160.55 199.297 1160.29 199.553L1141 180.263ZM1133.92 197.788C1133.92 204.093 1136.29 209.632 1139.51 214.185L1161.78 198.431C1161.33 197.797 1161.18 197.435 1161.15 197.346C1161.13 197.281 1161.2 197.45 1161.2 197.788H1133.92ZM1141 215.953C1141.94 216.895 1142.69 217.702 1143.27 218.38L1163.98 200.625C1162.86 199.315 1161.62 197.992 1160.29 196.663L1141 215.953ZM1143.98 219.148C1144.66 219.827 1145.41 220.631 1146.24 221.573L1166.77 203.608C1165.6 202.279 1164.44 201.024 1163.27 199.857L1143.98 219.148ZM1145.62 220.817C1145.99 221.312 1146.11 221.604 1146.14 221.689C1146.16 221.735 1146.16 221.751 1146.16 221.746C1146.16 221.74 1146.16 221.738 1146.16 221.749H1173.44C1173.44 215.172 1171.11 209.291 1167.38 204.364L1145.62 220.817ZM1146.16 221.749C1146.16 221.749 1146.16 221.752 1146.16 221.759C1146.16 221.765 1146.16 221.775 1146.16 221.787C1146.16 221.813 1146.16 221.849 1146.16 221.898C1146.15 221.995 1146.14 222.131 1146.12 222.309L1173.27 225.023C1173.37 223.971 1173.44 222.868 1173.44 221.749H1146.16ZM1146.14 222.16C1146.01 223.347 1145.95 224.527 1145.95 225.689H1173.23C1173.23 225.431 1173.24 225.262 1173.25 225.172L1146.14 222.16ZM1165.59 237.936C1173.65 233.986 1180.72 229.647 1186.58 224.824L1169.23 203.765C1165.44 206.894 1160.29 210.151 1153.58 213.442L1165.59 237.936ZM1186.66 224.756C1194.93 217.834 1201.98 208.582 1201.98 196.937H1174.7C1174.7 196.978 1174.7 197.092 1174.63 197.318C1174.56 197.556 1174.4 197.969 1174.04 198.56C1173.3 199.793 1171.84 201.583 1169.15 203.833L1186.66 224.756Z" fill="#303030" mask="url(#path-4-outside-2_4152_53)"/>
</g>
<defs>
<filter id="filter0_d_4152_53" x="59.4719" y="60.8398" width="1136.71" height="175.732" filterUnits="userSpaceOnUse" color-interpolation-filters="sRGB">
<feFlood flood-opacity="0" result="BackgroundImageFix"/>
<feColorMatrix in="SourceAlpha" type="matrix" values="0 0 0 0 0 0 0 0 0 0 0 0 0 0 0 0 0 0 127 0" result="hardAlpha"/>
<feOffset dy="3.89726"/>
<feGaussianBlur stdDeviation="1.94863"/>
<feComposite in2="hardAlpha" operator="out"/>
<feColorMatrix type="matrix" values="0 0 0 0 0 0 0 0 0 0 0 0 0 0 0 0 0 0 0.25 0"/>
<feBlend mode="normal" in2="BackgroundImageFix" result="effect1_dropShadow_4152_53"/>
<feBlend mode="normal" in="SourceGraphic" in2="effect1_dropShadow_4152_53" result="shape"/>
</filter>
</defs>
</svg>
