<svg width="665" height="664" viewBox="0 0 665 664" fill="none" xmlns="http://www.w3.org/2000/svg">
<path d="M309.507 17.8885C323.198 7.51131 342.122 7.51131 355.814 17.8885L365.784 25.4452C375.821 33.0525 388.955 35.244 400.918 31.308L412.802 27.3981C429.121 22.0288 447.02 28.1734 456.6 42.4341L463.576 52.8186C470.599 63.2727 482.31 69.61 494.903 69.7716L507.412 69.9322C524.591 70.1527 539.524 81.7761 543.955 98.3748L547.182 110.462C550.43 122.63 559.448 132.426 571.306 136.668L583.085 140.882C599.262 146.668 609.612 162.511 608.413 179.649L607.54 192.128C606.661 204.692 612.01 216.885 621.848 224.748L631.621 232.558C645.042 243.283 649.688 261.628 642.989 277.448L638.111 288.969C633.201 300.566 634.3 313.835 641.053 324.466L647.76 335.027C656.971 349.528 655.409 368.388 643.936 381.176L635.582 390.488C627.172 399.862 623.903 412.77 626.838 425.017L629.753 437.183C633.756 453.89 626.155 471.221 611.152 479.59L600.226 485.685C589.228 491.821 581.946 502.968 580.744 515.505L579.551 527.958C577.913 545.06 565.096 558.983 548.188 562.028L535.876 564.245C523.481 566.477 512.974 574.656 507.767 586.123L502.595 597.514C495.493 613.157 478.85 622.164 461.869 619.554L449.504 617.654C437.056 615.74 424.462 620.064 415.815 629.219L407.224 638.314C395.427 650.803 376.761 653.918 361.548 645.936L350.47 640.123C339.318 634.272 326.003 634.272 314.851 640.123L303.773 645.936C288.56 653.918 269.894 650.803 258.097 638.314L249.506 629.219C240.858 620.064 228.265 615.74 215.817 617.654L203.452 619.554C186.471 622.164 169.828 613.157 162.726 597.514L157.554 586.123C152.347 574.656 141.84 566.477 129.445 564.245L117.133 562.028C100.225 558.983 87.4078 545.06 85.7694 527.958L84.5764 515.505C83.3753 502.968 76.0927 491.821 65.0944 485.686L54.1692 479.59C39.1661 471.22 31.5644 453.89 35.5677 437.183L38.4829 425.017C41.4176 412.77 38.149 399.862 29.7389 390.488L21.3847 381.176C9.91222 368.388 8.34948 349.528 17.5606 335.027L24.2681 324.466C31.0206 313.835 32.1201 300.566 27.2096 288.969L22.3317 277.448C15.6331 261.628 20.2787 243.283 33.6995 232.558L43.4725 224.748C53.3109 216.885 58.6595 204.692 57.7806 192.129L56.9076 179.649C55.7088 162.511 66.0593 146.668 82.2354 140.882L94.0148 136.668C105.873 132.426 114.891 122.63 118.139 110.462L121.366 98.3748C125.797 81.7761 140.73 70.1527 157.909 69.9322L170.418 69.7716C183.011 69.61 194.721 63.2727 201.744 52.8186L208.721 42.4341C218.301 28.1734 236.2 22.0288 252.519 27.3981L264.403 31.308C276.366 35.244 289.5 33.0525 299.536 25.4452L309.507 17.8885Z" fill="#EFFFFD"/>
<path d="M312.278 55.5066C324.331 46.3716 340.99 46.3716 353.042 55.5066L361.819 62.1587C370.655 68.8554 382.216 70.7846 392.747 67.3197L403.208 63.8779C417.574 59.1513 433.33 64.5604 441.764 77.114L447.905 86.2555C454.087 95.4581 464.396 101.037 475.481 101.179L486.493 101.32C501.616 101.515 514.762 111.747 518.662 126.358L521.502 136.999C524.362 147.71 532.3 156.334 542.739 160.068L553.108 163.777C567.348 168.871 576.46 182.817 575.404 197.903L574.636 208.889C573.862 219.949 578.57 230.683 587.231 237.604L595.834 244.479C607.649 253.921 611.738 270.07 605.841 283.996L601.547 294.137C597.225 304.346 598.193 316.027 604.137 325.386L610.041 334.682C618.15 347.448 616.774 364.05 606.675 375.307L599.321 383.504C591.917 391.757 589.04 403.119 591.623 413.901L594.19 424.61C597.714 439.317 591.022 454.573 577.815 461.941L568.197 467.306C558.516 472.708 552.105 482.52 551.048 493.556L549.997 504.519C548.555 519.573 537.272 531.83 522.389 534.51L511.55 536.462C500.639 538.427 491.389 545.626 486.806 555.721L482.253 565.749C476.001 579.519 461.35 587.448 446.402 585.15L435.517 583.477C424.559 581.793 413.473 585.599 405.86 593.658L398.298 601.664C387.913 612.659 371.482 615.401 358.09 608.374L348.338 603.257C338.521 598.106 326.8 598.106 316.982 603.257L307.23 608.374C293.838 615.401 277.407 612.659 267.022 601.664L259.46 593.658C251.847 585.599 240.761 581.793 229.803 583.477L218.918 585.15C203.97 587.448 189.32 579.519 183.067 565.749L178.514 555.721C173.931 545.626 164.681 538.427 153.77 536.462L142.932 534.51C128.048 531.83 116.765 519.573 115.323 504.519L114.273 493.556C113.216 482.52 106.805 472.708 97.1229 467.306L87.5055 461.941C74.2983 454.573 67.6066 439.317 71.1307 424.61L73.6969 413.901C76.2803 403.119 73.403 391.757 65.9996 383.504L58.6454 375.307C48.5463 364.05 47.1706 347.448 55.2791 334.682L61.1837 325.386C67.1278 316.027 68.0958 304.346 63.7731 294.137L59.4791 283.996C53.5823 270.07 57.6718 253.921 69.4861 244.479L78.0892 237.604C86.7499 230.683 91.4583 219.949 90.6846 208.889L89.9161 197.903C88.8608 182.817 97.9723 168.871 112.212 163.777L122.581 160.068C133.02 156.334 140.959 147.71 143.818 136.999L146.658 126.358C150.559 111.747 163.705 101.515 178.827 101.32L189.839 101.179C200.925 101.037 211.233 95.4581 217.415 86.2555L223.557 77.114C231.99 64.5604 247.746 59.1513 262.112 63.8779L272.573 67.3197C283.104 70.7846 294.666 68.8554 303.501 62.1588L312.278 55.5066Z" fill="#C6E2DA"/>
<path d="M350.532 86.2957L358.343 92.216C366.324 98.2646 376.766 100.007 386.278 96.8775L395.588 93.8143C408.184 89.6702 421.998 94.4127 429.393 105.419L434.858 113.555C440.442 121.867 449.753 126.906 459.766 127.034L469.566 127.16C482.825 127.33 494.351 136.302 497.771 149.113L500.299 158.582C502.881 168.257 510.051 176.046 519.48 179.419L528.709 182.72C541.194 187.186 549.182 199.414 548.257 212.641L547.573 222.418C546.874 232.407 551.127 242.103 558.949 248.354L566.606 254.473C576.964 262.751 580.55 276.91 575.38 289.12L571.558 298.145C567.654 307.366 568.528 317.917 573.897 326.37L579.152 334.643C586.261 345.836 585.055 360.392 576.201 370.262L569.655 377.557C562.969 385.011 560.37 395.274 562.703 405.012L564.987 414.543C568.077 427.438 562.21 440.814 550.63 447.274L542.071 452.049C533.326 456.927 527.535 465.79 526.581 475.758L525.646 485.515C524.381 498.714 514.489 509.46 501.439 511.81L491.793 513.547C481.938 515.322 473.584 521.825 469.444 530.943L465.392 539.867C459.91 551.941 447.065 558.892 433.959 556.878L424.271 555.389C414.374 553.867 404.361 557.305 397.485 564.585L390.755 571.71C381.65 581.349 367.243 583.753 355.501 577.593L346.822 573.039C337.955 568.386 327.368 568.386 318.501 573.039L309.822 577.593C298.08 583.753 283.674 581.349 274.569 571.71L267.839 564.585C260.963 557.305 250.949 553.867 241.052 555.389L231.364 556.878C218.259 558.892 205.413 551.941 199.932 539.867L195.879 530.943C191.74 521.825 183.385 515.322 173.53 513.547L163.884 511.81C150.834 509.46 140.942 498.714 139.678 485.515L138.743 475.758C137.788 465.79 131.998 456.927 123.253 452.049L114.693 447.274C103.114 440.814 97.2467 427.438 100.336 414.543L102.62 405.012C104.954 395.274 102.355 385.011 95.668 377.557L89.1229 370.262C80.2683 360.392 79.0621 345.836 86.1714 334.643L91.4265 326.37C96.7953 317.917 97.6696 307.366 93.7652 298.145L89.9436 289.12C84.7735 276.91 88.3591 262.751 98.7174 254.473L106.374 248.354C114.197 242.103 118.449 232.407 117.751 222.418L117.067 212.641C116.141 199.414 124.13 187.186 136.615 182.72L145.844 179.419C155.272 176.046 162.442 168.257 165.025 158.582L167.553 149.113C170.972 136.301 182.498 127.33 195.757 127.16L205.558 127.034C215.57 126.906 224.881 121.867 230.465 113.555L235.931 105.419C243.325 94.4127 257.14 89.6702 269.735 93.8143L279.045 96.8775C288.557 100.007 299 98.2645 306.98 92.216L314.791 86.2957C325.359 78.2864 339.965 78.2864 350.532 86.2957Z" stroke="#548476" stroke-width="0.892562"/>
<path d="M200.463 305.215H175.458V255.695H162.874V222.082H213.048V255.695H200.463V305.215ZM245.135 274.326V305.215H220.13V222.082H245.135V252.535H257.992V222.082H282.942V305.215H257.992V274.326H245.135ZM317.318 291.051L314.104 305.215H288.772L308.983 222.082H344.666L363.842 305.215H338.782L335.513 291.051H317.318ZM339.545 256.675C339.545 254.896 338.873 253.443 337.529 252.317C336.258 251.227 334.732 250.683 332.953 250.683C330.338 250.683 328.413 251.972 327.178 254.551C326.779 253.279 325.998 252.317 324.836 251.663C323.782 251.01 322.584 250.683 321.24 250.683C319.533 250.683 317.972 251.264 316.555 252.426C315.284 253.697 314.648 255.259 314.648 257.111C314.648 258.891 315.284 260.652 316.555 262.395C317.136 263.049 317.717 263.703 318.298 264.357C318.916 264.974 319.533 265.61 320.151 266.263C321.458 267.97 322.112 269.804 322.112 271.766C322.112 272.129 322.094 272.51 322.057 272.91C322.021 273.309 321.967 273.745 321.894 274.217C324.146 273.164 326.198 272.056 328.05 270.894C329.902 269.732 331.573 268.533 333.062 267.298C337.384 263.703 339.545 260.162 339.545 256.675ZM394.186 279.992V305.215H369.181V222.082H387.049L400.342 249.866V222.082H425.347V305.76H406.334L394.186 279.992ZM436.515 222.082H461.52V249.866C464.861 249.793 467.876 247.632 470.563 243.383C473.251 239.133 474.595 232.378 474.595 223.117V222.082H500.145V223.226C500.145 241.857 496.422 255.277 488.977 263.485C497.439 273.4 501.67 286.983 501.67 304.234V305.215H474.595V304.343C474.595 295.191 473.451 288.054 471.163 282.933C468.911 277.776 465.697 275.089 461.52 274.871V305.215H436.515V222.082Z" fill="#548476"/>
<path d="M284.23 404.605V440.887H259.224V404.605L237.706 357.754H263.038L271.754 376.603L280.471 357.754H305.748L284.23 404.605ZM330.645 356.337C338.09 356.337 344.609 360.496 350.202 368.813C355.831 377.13 358.646 387.063 358.646 398.612C358.646 411.469 355.904 421.947 350.42 430.046C344.9 437.999 337.799 441.976 329.119 441.976C321.747 441.976 315.155 438.108 309.344 430.373C303.606 422.491 300.736 411.56 300.736 397.577C300.736 392.601 301.445 387.626 302.861 382.65C304.277 377.674 306.275 373.225 308.854 369.303C311.432 365.344 314.556 362.185 318.224 359.824C321.892 357.427 326.032 356.265 330.645 356.337ZM342.357 391.911C342.357 390.132 341.704 388.679 340.396 387.553C339.125 386.427 337.6 385.864 335.82 385.864C333.205 385.864 331.262 387.172 329.991 389.787C329.628 388.516 328.847 387.553 327.648 386.899C326.595 386.209 325.415 385.864 324.107 385.864C322.364 385.864 320.802 386.464 319.422 387.662C318.151 388.933 317.516 390.495 317.516 392.347C317.516 394.127 318.151 395.87 319.422 397.577C320.003 398.267 320.584 398.939 321.166 399.593C321.783 400.21 322.382 400.846 322.963 401.499C324.307 403.206 324.979 405.022 324.979 406.947C324.979 407.347 324.961 407.746 324.924 408.146C324.888 408.545 324.834 408.963 324.761 409.399C326.976 408.382 329.01 407.292 330.863 406.13C332.751 404.968 334.44 403.751 335.929 402.48C340.215 398.921 342.357 395.398 342.357 391.911ZM398.034 357.754H423.039V388.697C423.039 397.668 422.839 404.169 422.439 408.2C422.076 412.231 421.15 416.463 419.661 420.893C418.208 425.288 416.211 429.065 413.669 432.225C411.126 435.348 408.221 437.781 404.952 439.525C401.72 441.268 398.415 442.14 395.037 442.14C390.715 442.14 386.502 440.796 382.398 438.108C378.331 435.421 375.135 431.825 372.81 427.322C370.486 422.782 368.906 417.879 368.071 412.613C367.235 407.347 366.818 399.447 366.818 388.915V357.754H391.823V396.27C391.823 399.647 392.023 402.08 392.422 403.57C392.822 405.022 393.585 405.749 394.71 405.749C396.054 405.749 396.944 404.913 397.38 403.243C397.816 401.536 398.034 398.049 398.034 392.783V357.754Z" fill="#548476"/>
</svg>
