<svg width="623" height="623" viewBox="0 0 623 623" fill="none" xmlns="http://www.w3.org/2000/svg">
<circle cx="311.609" cy="311.672" r="310.705" fill="white"/>
<circle cx="311.413" cy="311.87" r="279.811" fill="#3D9FB6"/>
<path d="M116.273 354.602C110.947 354.602 106.632 352.995 103.326 349.781C100.112 346.567 98.5048 340.782 98.5048 332.426V289.45C98.5048 282.655 100.709 277.88 105.116 275.125C109.524 272.279 115.401 270.855 122.747 270.855C130.093 270.855 136.062 272.279 140.654 275.125C145.337 277.88 147.678 282.655 147.678 289.45V301.847H126.466V288.073C126.466 286.512 126.191 285.456 125.64 284.905C125.089 284.262 124.354 283.941 123.436 283.941C122.518 283.941 121.783 284.262 121.232 284.905C120.681 285.456 120.406 286.512 120.406 288.073V338.073C120.406 339.634 120.681 340.736 121.232 341.379C121.783 341.93 122.518 342.205 123.436 342.205C124.354 342.205 125.089 341.93 125.64 341.379C126.191 340.736 126.466 339.634 126.466 338.073V322.646H123.023V310.387H147.678V353.225H131.149L129.221 344.685C128.486 346.889 127.063 349.092 124.951 351.296C122.931 353.5 120.038 354.602 116.273 354.602ZM119.166 347.026V346.751C116.136 347.026 113.978 345.97 112.692 343.583C111.498 341.103 110.947 337.981 111.039 334.216L111.315 312.866L110.902 289.037C110.81 285.548 111.682 282.885 113.519 281.048C115.447 279.12 118.799 278.156 123.574 278.156C128.257 278.156 131.425 279.074 133.078 280.91C134.731 282.655 135.603 285.043 135.695 288.073L135.833 296.888H136.108L136.246 288.073C136.338 284.859 135.465 282.334 133.629 280.497C131.884 278.569 128.532 277.605 123.574 277.605C118.615 277.605 115.217 278.615 113.381 280.635C111.544 282.563 110.534 285.364 110.351 289.037L109.662 312.866L110.488 334.63C110.672 338.303 111.315 341.379 112.417 343.858C113.61 346.338 115.86 347.394 119.166 347.026ZM137.899 346.751H138.45L138.863 316.31L128.67 316.448V316.723L132.665 316.861H137.623L137.899 346.751ZM153.537 353.225V271.82H185.493C191.553 271.82 195.915 273.105 198.578 275.676C201.333 278.247 202.71 281.599 202.71 285.731V298.128C202.71 302.077 201.884 305.612 200.231 308.734C198.67 311.856 195.686 313.922 191.278 314.933C193.482 315.116 195.226 315.805 196.512 316.999C197.798 318.192 199.037 320.396 200.231 323.61L207.807 353.225H183.427L176.402 317.136V353.225H153.537ZM179.708 313.28H182.738C185.585 313.28 187.742 312.27 189.212 310.249C190.773 308.229 191.829 305.658 192.38 302.536C193.023 299.414 193.344 296.2 193.344 292.894C193.344 287.017 192.518 282.977 190.865 280.773C189.212 278.477 186.227 277.421 181.911 277.605L177.504 277.742V278.018L181.911 278.156C184.85 278.247 187.008 278.753 188.385 279.671C189.855 280.589 190.773 282.104 191.14 284.216C191.599 286.328 191.829 289.221 191.829 292.894C191.829 295.557 191.645 298.45 191.278 301.572C190.911 304.602 190.084 307.219 188.798 309.423C187.513 311.535 185.493 312.683 182.738 312.866L179.708 313.004V313.28ZM164.694 346.751H165.245L165.933 311.902L165.382 277.88H164.832L164.143 311.902L164.694 346.751ZM176.402 309.147H178.055C179.34 309.147 180.121 308.137 180.396 306.117C180.764 304.005 180.947 300.975 180.947 297.026C180.947 294.455 180.901 292.297 180.81 290.552C180.81 288.808 180.764 287.43 180.672 286.42C180.58 284.4 179.845 283.39 178.468 283.39H176.402V309.147ZM193.482 346.751H194.584C194.216 345.373 193.711 343.261 193.068 340.415C192.426 337.568 191.691 334.538 190.865 331.324C190.038 328.018 189.074 325.034 187.972 322.371C186.87 319.708 185.585 317.825 184.115 316.723H183.978C185.355 317.825 186.503 319.616 187.421 322.095C188.339 324.483 189.12 327.192 189.763 330.222C190.405 333.16 191.002 336.099 191.553 339.037C192.196 341.976 192.839 344.547 193.482 346.751ZM207.271 353.225L218.979 271.82H251.348L262.781 353.225H238.125L237.023 341.379H231.927L231.1 353.225H207.271ZM218.566 346.751H219.117L219.53 343.858C219.713 342.848 219.851 341.746 219.943 340.552L220.356 336.282L234.544 336.145L248.593 336.282L249.695 346.751H250.384L247.078 312.04L242.808 277.605L234.957 277.88L227.794 277.605L222.422 311.765L218.566 346.751ZM234.544 336.007L220.494 335.731L223.938 311.902L228.345 278.156L234.957 278.018L242.257 278.156L245.425 312.04L248.455 335.731L234.544 336.007ZM232.064 330.773H237.023L234.544 289.037L232.064 330.773ZM270.513 353.225V287.109H258.805V271.82H304.122V287.109H292.414V353.225H270.513ZM280.982 346.751H281.671L282.221 311.902L281.671 279.395L297.511 279.12V278.844L281.395 278.569L266.106 278.844V279.12L280.982 279.395L280.431 311.902L280.982 346.751ZM308.63 353.225V271.82H348.024V287.109H331.495V302.949H346.647V320.167H331.495V338.349H348.024V353.225H308.63ZM319.649 345.649L342.377 345.511V345.236L320.338 345.098L320.889 312.178L338.933 312.04V311.765L320.889 311.627L320.338 279.946L342.377 279.809V279.533L319.649 279.395L319.098 311.902L319.649 345.649ZM353.826 353.225V271.82H393.22V287.109H376.691V302.949H391.843V320.167H376.691V353.225H353.826ZM364.846 345.649H365.534L366.085 312.178L384.13 312.04V311.765L366.085 311.627L365.534 279.946L387.573 279.809V279.533L364.846 279.395L364.295 311.902L364.846 345.649ZM422.996 354.878C417.578 354.878 413.033 354.327 409.36 353.225C405.779 352.031 403.116 349.689 401.371 346.2C399.626 342.71 398.754 337.568 398.754 330.773V271.82H420.655V337.384C420.655 338.945 420.838 340.047 421.206 340.69C421.665 341.241 422.262 341.517 422.996 341.517C423.731 341.517 424.282 341.241 424.649 340.69C425.108 340.047 425.338 338.945 425.338 337.384V271.82H447.239V330.635C447.239 337.43 446.366 342.573 444.622 346.062C442.877 349.552 440.214 351.893 436.633 353.087C433.051 354.281 428.506 354.878 422.996 354.878ZM418.589 347.026H422.308C422.858 347.026 423.272 346.98 423.547 346.889C423.731 346.98 424.052 347.026 424.511 347.026H427.817C433.694 347.026 436.724 343.858 436.908 337.522L437.735 311.902L436.908 277.88H436.357L435.806 311.765L436.357 337.522C436.449 343.307 433.602 346.292 427.817 346.475H425.889C425.521 346.567 425.062 346.613 424.511 346.613H422.308L420.655 346.475H418.589C412.712 346.475 409.865 343.491 410.049 337.522L410.6 311.765L410.049 277.88H409.498L408.671 311.902L409.498 337.522C409.681 343.858 412.712 347.026 418.589 347.026ZM454.173 353.225V271.82H475.798V338.349H490.812V353.225H454.173ZM464.504 345.649L484.476 345.511V345.236L465.192 345.098L465.743 311.902L465.192 277.88H464.504L463.953 311.902L464.504 345.649ZM502.49 327.329L498.771 301.296L497.669 266.448H521.085L519.983 300.883L516.264 327.329H502.49ZM509.102 322.371H509.653L510.341 297.164L509.79 270.029H509.239L508.551 297.164L509.102 322.371ZM510.066 354.327C506.852 354.327 504.143 353.316 501.939 351.296C499.735 349.276 498.633 346.797 498.633 343.858C498.633 341.012 499.735 338.578 501.939 336.558C504.143 334.446 506.852 333.39 510.066 333.39C513.28 333.39 515.989 334.446 518.193 336.558C520.396 338.578 521.498 341.012 521.498 343.858C521.498 346.797 520.396 349.276 518.193 351.296C515.989 353.316 513.28 354.327 510.066 354.327ZM509.928 349.092C513.326 349.092 515.025 347.394 515.025 343.996C515.025 340.598 513.326 338.9 509.928 338.9C506.531 338.9 504.832 340.598 504.832 343.996C504.832 347.394 506.531 349.092 509.928 349.092ZM509.928 348.817C508.643 348.817 507.587 348.358 506.76 347.439C505.934 346.429 505.52 345.282 505.52 343.996C505.52 342.619 505.934 341.517 506.76 340.69C507.587 339.772 508.643 339.313 509.928 339.313C511.214 339.313 512.224 339.772 512.958 340.69C513.785 341.517 514.198 342.619 514.198 343.996C514.198 345.282 513.785 346.429 512.958 347.439C512.224 348.358 511.214 348.817 509.928 348.817Z" fill="black"/>
<path d="M145.926 142.643L151.467 172.718L181.542 178.259L151.467 183.799L145.926 213.874L140.386 183.799L110.311 178.259L140.386 172.718L145.926 142.643Z" fill="#D9D9D9"/>
<circle cx="311.413" cy="311.868" r="240.457" stroke="black" stroke-width="3.93546"/>
<path d="M125.069 439.773L128.284 457.22L145.731 460.435L128.284 463.649L125.069 481.096L121.855 463.649L104.408 460.435L121.855 457.22L125.069 439.773Z" fill="#D9D9D9"/>
<path d="M225.938 151.52C225.649 151.79 225.204 151.79 224.916 151.52L215.815 142.978C207.127 135.121 215.815 121.86 225.386 131.43H225.464C237.046 122.369 243.723 135.117 235.039 142.978L225.938 151.52Z" fill="black"/>
<path d="M425.223 248.228C424.8 248.625 424.147 248.625 423.724 248.228L410.379 235.703C397.641 224.181 410.379 204.737 424.413 218.771H424.528C441.51 205.483 451.301 224.176 438.567 235.703L425.223 248.228Z" fill="black"/>
<path d="M311.835 491.637C311.453 491.995 310.864 491.995 310.482 491.637L298.437 480.332C286.939 469.932 298.437 452.38 311.104 465.048H311.208C326.537 453.054 335.374 469.927 323.88 480.332L311.835 491.637Z" fill="black"/>
</svg>
