<svg width="1135" height="580" viewBox="0 0 1135 580" fill="none" xmlns="http://www.w3.org/2000/svg">
<rect x="0.419922" y="0.078125" width="1134.38" height="579.36" rx="289.68" fill="white"/>
<rect x="31.2773" y="24.8516" width="1073.1" height="530.247" rx="265.124" fill="#007CB2"/>
<rect x="57.1403" y="42.4548" width="1026.59" height="495.042" rx="247.521" stroke="white" stroke-width="3.0424" stroke-dasharray="12.17 12.17"/>
<g filter="url(#filter0_d_4139_858)">
<mask id="path-4-outside-1_4139_858" maskUnits="userSpaceOnUse" x="163.4" y="234.082" width="802" height="109" fill="black">
<rect fill="white" x="163.4" y="234.082" width="802" height="109"/>
<path d="M228.555 268.999V329.082H202.62V268.999H176.099V248.345H254.958V268.999H228.555ZM321.223 329.082V298.454H292.707V329.082H266.773V248.345H292.707V277.8H321.223V248.345H347.158V329.082H321.223ZM418.625 329.082L415.222 317.699H386.94L383.537 329.082H357.016L386.471 248.345H416.63L446.085 329.082H418.625ZM392.338 299.627H409.823L401.374 270.877H400.905L392.338 299.627ZM513.598 329.082L479.684 289.887V329.082H455.862V248.345H478.511L512.425 288.127V248.345H536.247V329.082H513.598ZM608.3 248.345H640.454L611.469 281.555L641.041 329.082H610.413L593.632 299.51L579.55 311.01V329.082H553.615V248.345H579.55V282.846L608.3 248.345ZM740.555 329.082H714.621V297.75L682.585 248.345H712.391L727.882 275.218H728.351L743.841 248.345H772.122L740.555 297.75V329.082ZM814.926 246.937C828.851 246.937 839.608 250.497 847.197 257.616C854.786 264.735 858.58 275.101 858.58 288.714C858.58 302.326 854.786 312.692 847.197 319.811C839.608 326.931 828.851 330.49 814.926 330.49C801 330.49 790.243 326.97 782.655 319.929C775.144 312.81 771.389 302.405 771.389 288.714C771.389 275.023 775.144 264.657 782.655 257.616C790.243 250.497 801 246.937 814.926 246.937ZM814.926 266.3C809.371 266.3 805.147 267.982 802.252 271.346C799.357 274.71 797.91 279.248 797.91 284.959V292.469C797.91 298.18 799.357 302.717 802.252 306.081C805.147 309.446 809.371 311.128 814.926 311.128C820.48 311.128 824.705 309.446 827.6 306.081C830.572 302.717 832.059 298.18 832.059 292.469V284.959C832.059 279.248 830.572 274.71 827.6 271.346C824.705 267.982 820.48 266.3 814.926 266.3ZM952.93 296.576C952.93 307.607 949.449 316.017 942.486 321.806C935.523 327.596 925.627 330.49 912.796 330.49C899.966 330.49 890.031 327.596 882.99 321.806C876.027 316.017 872.545 307.607 872.545 296.576V248.345H898.48V296.224C898.48 300.762 899.692 304.399 902.118 307.138C904.543 309.798 908.063 311.128 912.679 311.128C917.295 311.128 920.815 309.758 923.24 307.02C925.744 304.282 926.996 300.683 926.996 296.224V248.345H952.93V296.576Z"/>
</mask>
<path d="M228.555 268.999V329.082H202.62V268.999H176.099V248.345H254.958V268.999H228.555ZM321.223 329.082V298.454H292.707V329.082H266.773V248.345H292.707V277.8H321.223V248.345H347.158V329.082H321.223ZM418.625 329.082L415.222 317.699H386.94L383.537 329.082H357.016L386.471 248.345H416.63L446.085 329.082H418.625ZM392.338 299.627H409.823L401.374 270.877H400.905L392.338 299.627ZM513.598 329.082L479.684 289.887V329.082H455.862V248.345H478.511L512.425 288.127V248.345H536.247V329.082H513.598ZM608.3 248.345H640.454L611.469 281.555L641.041 329.082H610.413L593.632 299.51L579.55 311.01V329.082H553.615V248.345H579.55V282.846L608.3 248.345ZM740.555 329.082H714.621V297.75L682.585 248.345H712.391L727.882 275.218H728.351L743.841 248.345H772.122L740.555 297.75V329.082ZM814.926 246.937C828.851 246.937 839.608 250.497 847.197 257.616C854.786 264.735 858.58 275.101 858.58 288.714C858.58 302.326 854.786 312.692 847.197 319.811C839.608 326.931 828.851 330.49 814.926 330.49C801 330.49 790.243 326.97 782.655 319.929C775.144 312.81 771.389 302.405 771.389 288.714C771.389 275.023 775.144 264.657 782.655 257.616C790.243 250.497 801 246.937 814.926 246.937ZM814.926 266.3C809.371 266.3 805.147 267.982 802.252 271.346C799.357 274.71 797.91 279.248 797.91 284.959V292.469C797.91 298.18 799.357 302.717 802.252 306.081C805.147 309.446 809.371 311.128 814.926 311.128C820.48 311.128 824.705 309.446 827.6 306.081C830.572 302.717 832.059 298.18 832.059 292.469V284.959C832.059 279.248 830.572 274.71 827.6 271.346C824.705 267.982 820.48 266.3 814.926 266.3ZM952.93 296.576C952.93 307.607 949.449 316.017 942.486 321.806C935.523 327.596 925.627 330.49 912.796 330.49C899.966 330.49 890.031 327.596 882.99 321.806C876.027 316.017 872.545 307.607 872.545 296.576V248.345H898.48V296.224C898.48 300.762 899.692 304.399 902.118 307.138C904.543 309.798 908.063 311.128 912.679 311.128C917.295 311.128 920.815 309.758 923.24 307.02C925.744 304.282 926.996 300.683 926.996 296.224V248.345H952.93V296.576Z" fill="#FFDB43"/>
<path d="M228.555 268.999V256.829H216.385V268.999H228.555ZM228.555 329.082V341.252H240.724V329.082H228.555ZM202.62 329.082H190.451V341.252H202.62V329.082ZM202.62 268.999H214.79V256.829H202.62V268.999ZM176.099 268.999H163.93V281.169H176.099V268.999ZM176.099 248.345V236.176H163.93V248.345H176.099ZM254.958 248.345H267.128V236.176H254.958V248.345ZM254.958 268.999V281.169H267.128V268.999H254.958ZM216.385 268.999V329.082H240.724V268.999H216.385ZM228.555 316.912H202.62V341.252H228.555V316.912ZM214.79 329.082V268.999H190.451V329.082H214.79ZM202.62 256.829H176.099V281.169H202.62V256.829ZM188.269 268.999V248.345H163.93V268.999H188.269ZM176.099 260.515H254.958V236.176H176.099V260.515ZM242.789 248.345V268.999H267.128V248.345H242.789ZM254.958 256.829H228.555V281.169H254.958V256.829ZM321.223 329.082H309.054V341.252H321.223V329.082ZM321.223 298.454H333.393V286.284H321.223V298.454ZM292.707 298.454V286.284H280.538V298.454H292.707ZM292.707 329.082V341.252H304.877V329.082H292.707ZM266.773 329.082H254.604V341.252H266.773V329.082ZM266.773 248.345V236.176H254.604V248.345H266.773ZM292.707 248.345H304.877V236.176H292.707V248.345ZM292.707 277.8H280.538V289.97H292.707V277.8ZM321.223 277.8V289.97H333.393V277.8H321.223ZM321.223 248.345V236.176H309.054V248.345H321.223ZM347.158 248.345H359.327V236.176H347.158V248.345ZM347.158 329.082V341.252H359.327V329.082H347.158ZM333.393 329.082V298.454H309.054V329.082H333.393ZM321.223 286.284H292.707V310.623H321.223V286.284ZM280.538 298.454V329.082H304.877V298.454H280.538ZM292.707 316.912H266.773V341.252H292.707V316.912ZM278.943 329.082V248.345H254.604V329.082H278.943ZM266.773 260.515H292.707V236.176H266.773V260.515ZM280.538 248.345V277.8H304.877V248.345H280.538ZM292.707 289.97H321.223V265.631H292.707V289.97ZM333.393 277.8V248.345H309.054V277.8H333.393ZM321.223 260.515H347.158V236.176H321.223V260.515ZM334.988 248.345V329.082H359.327V248.345H334.988ZM347.158 316.912H321.223V341.252H347.158V316.912ZM418.625 329.082L406.965 332.568L409.561 341.252H418.625V329.082ZM415.222 317.699L426.881 314.213L424.285 305.53H415.222V317.699ZM386.94 317.699V305.53H377.877L375.281 314.213L386.94 317.699ZM383.537 329.082V341.252H392.601L395.197 332.568L383.537 329.082ZM357.016 329.082L345.584 324.911L339.622 341.252H357.016V329.082ZM386.471 248.345V236.176H377.956L375.038 244.175L386.471 248.345ZM416.63 248.345L428.062 244.175L425.144 236.176H416.63V248.345ZM446.085 329.082V341.252H463.478L457.517 324.911L446.085 329.082ZM392.338 299.627L380.675 296.152L376.014 311.797H392.338V299.627ZM409.823 299.627V311.797H426.084L421.499 296.196L409.823 299.627ZM401.374 270.877L413.05 267.445L410.482 258.707H401.374V270.877ZM400.905 270.877V258.707H391.833L389.242 267.401L400.905 270.877ZM430.284 325.596L426.881 314.213L403.562 321.185L406.965 332.568L430.284 325.596ZM415.222 305.53H386.94V329.869H415.222V305.53ZM375.281 314.213L371.877 325.596L395.197 332.568L398.6 321.185L375.281 314.213ZM383.537 316.912H357.016V341.252H383.537V316.912ZM368.449 333.253L397.903 252.516L375.038 244.175L345.584 324.911L368.449 333.253ZM386.471 260.515H416.63V236.176H386.471V260.515ZM405.197 252.516L434.652 333.253L457.517 324.911L428.062 244.175L405.197 252.516ZM446.085 316.912H418.625V341.252H446.085V316.912ZM392.338 311.797H409.823V287.458H392.338V311.797ZM421.499 296.196L413.05 267.445L389.698 274.308L398.148 303.059L421.499 296.196ZM401.374 258.707H400.905V283.046H401.374V258.707ZM389.242 267.401L380.675 296.152L404.001 303.102L412.568 274.352L389.242 267.401ZM513.598 329.082L504.395 337.045L508.035 341.252H513.598V329.082ZM479.684 289.887L488.887 281.924L467.515 257.224V289.887H479.684ZM479.684 329.082V341.252H491.854V329.082H479.684ZM455.862 329.082H443.693V341.252H455.862V329.082ZM455.862 248.345V236.176H443.693V248.345H455.862ZM478.511 248.345L487.772 240.45L484.128 236.176H478.511V248.345ZM512.425 288.127L503.164 296.022L524.594 321.16V288.127H512.425ZM512.425 248.345V236.176H500.255V248.345H512.425ZM536.247 248.345H548.416V236.176H536.247V248.345ZM536.247 329.082V341.252H548.416V329.082H536.247ZM522.801 321.119L488.887 281.924L470.481 297.85L504.395 337.045L522.801 321.119ZM467.515 289.887V329.082H491.854V289.887H467.515ZM479.684 316.912H455.862V341.252H479.684V316.912ZM468.032 329.082V248.345H443.693V329.082H468.032ZM455.862 260.515H478.511V236.176H455.862V260.515ZM469.25 256.241L503.164 296.022L521.686 280.232L487.772 240.45L469.25 256.241ZM524.594 288.127V248.345H500.255V288.127H524.594ZM512.425 260.515H536.247V236.176H512.425V260.515ZM524.077 248.345V329.082H548.416V248.345H524.077ZM536.247 316.912H513.598V341.252H536.247V316.912ZM608.3 248.345V236.176H602.6L598.951 240.555L608.3 248.345ZM640.454 248.345L649.623 256.348L667.229 236.176H640.454V248.345ZM611.469 281.555L602.3 273.553L596.378 280.338L601.136 287.985L611.469 281.555ZM641.041 329.082V341.252H662.946L651.374 322.653L641.041 329.082ZM610.413 329.082L599.828 335.088L603.326 341.252H610.413V329.082ZM593.632 299.51L604.216 293.504L597.101 280.965L585.934 290.084L593.632 299.51ZM579.55 311.01L571.852 301.584L567.38 305.236V311.01H579.55ZM579.55 329.082V341.252H591.719V329.082H579.55ZM553.615 329.082H541.446V341.252H553.615V329.082ZM553.615 248.345V236.176H541.446V248.345H553.615ZM579.55 248.345H591.719V236.176H579.55V248.345ZM579.55 282.846H567.38V316.459L588.899 290.637L579.55 282.846ZM608.3 260.515H640.454V236.176H608.3V260.515ZM631.286 240.343L602.3 273.553L620.637 289.558L649.623 256.348L631.286 240.343ZM601.136 287.985L630.708 335.511L651.374 322.653L621.802 275.126L601.136 287.985ZM641.041 316.912H610.413V341.252H641.041V316.912ZM620.997 323.076L604.216 293.504L583.047 305.516L599.828 335.088L620.997 323.076ZM585.934 290.084L571.852 301.584L587.247 320.436L601.329 308.936L585.934 290.084ZM567.38 311.01V329.082H591.719V311.01H567.38ZM579.55 316.912H553.615V341.252H579.55V316.912ZM565.785 329.082V248.345H541.446V329.082H565.785ZM553.615 260.515H579.55V236.176H553.615V260.515ZM567.38 248.345V282.846H591.719V248.345H567.38ZM588.899 290.637L617.649 256.136L598.951 240.555L570.201 275.055L588.899 290.637ZM740.555 329.082V341.252H752.725V329.082H740.555ZM714.621 329.082H702.451V341.252H714.621V329.082ZM714.621 297.75H726.791V294.149L724.832 291.128L714.621 297.75ZM682.585 248.345V236.176H660.189L672.374 254.967L682.585 248.345ZM712.391 248.345L722.935 242.268L719.423 236.176H712.391V248.345ZM727.882 275.218L717.338 281.296L720.85 287.388H727.882V275.218ZM728.351 275.218V287.388H735.383L738.894 281.296L728.351 275.218ZM743.841 248.345V236.176H736.809L733.298 242.268L743.841 248.345ZM772.122 248.345L782.377 254.898L794.34 236.176H772.122V248.345ZM740.555 297.75L730.3 291.197L728.386 294.194V297.75H740.555ZM740.555 316.912H714.621V341.252H740.555V316.912ZM726.791 329.082V297.75H702.451V329.082H726.791ZM724.832 291.128L692.795 241.724L672.374 254.967L704.41 304.371L724.832 291.128ZM682.585 260.515H712.391V236.176H682.585V260.515ZM701.848 254.423L717.338 281.296L738.425 269.141L722.935 242.268L701.848 254.423ZM727.882 287.388H728.351V263.049H727.882V287.388ZM738.894 281.296L754.385 254.423L733.298 242.268L717.808 269.141L738.894 281.296ZM743.841 260.515H772.122V236.176H743.841V260.515ZM761.867 241.793L730.3 291.197L750.81 304.302L782.377 254.898L761.867 241.793ZM728.386 297.75V329.082H752.725V297.75H728.386ZM847.197 319.811L838.871 310.936L838.871 310.936L847.197 319.811ZM782.655 319.929L774.282 328.761L774.33 328.806L774.377 328.85L782.655 319.929ZM782.655 257.616L790.978 266.494L790.981 266.491L782.655 257.616ZM802.252 271.346L811.477 279.283L811.477 279.283L802.252 271.346ZM827.6 306.081L818.481 298.023L818.427 298.083L818.375 298.144L827.6 306.081ZM827.6 271.346L818.375 279.283L818.427 279.344L818.481 279.405L827.6 271.346ZM814.926 259.107C826.827 259.107 834.213 262.122 838.871 266.491L855.523 248.741C845.004 238.872 830.875 234.768 814.926 234.768V259.107ZM838.871 266.491C843.312 270.658 846.41 277.375 846.41 288.714H870.749C870.749 272.828 866.259 258.812 855.523 248.741L838.871 266.491ZM846.41 288.714C846.41 300.053 843.312 306.769 838.871 310.936L855.523 328.687C866.259 318.615 870.749 304.6 870.749 288.714H846.41ZM838.871 310.936C834.213 315.306 826.827 318.321 814.926 318.321V342.66C830.875 342.66 845.004 338.555 855.523 328.687L838.871 310.936ZM814.926 318.321C802.991 318.321 795.587 315.327 790.932 311.008L774.377 328.85C784.899 338.612 799.009 342.66 814.926 342.66V318.321ZM791.027 311.097C786.653 306.95 783.559 300.191 783.559 288.714H759.219C759.219 304.618 763.636 318.669 774.282 328.761L791.027 311.097ZM783.559 288.714C783.559 277.227 786.655 270.546 790.978 266.494L774.331 248.738C763.633 258.768 759.219 272.818 759.219 288.714H783.559ZM790.981 266.491C795.639 262.122 803.024 259.107 814.926 259.107V234.768C798.976 234.768 784.848 238.872 774.328 248.741L790.981 266.491ZM814.926 254.13C806.792 254.13 798.797 256.704 793.027 263.408L811.477 279.283C811.612 279.126 811.757 279.002 812.093 278.868C812.494 278.708 813.359 278.47 814.926 278.47V254.13ZM793.027 263.408C787.741 269.552 785.74 277.189 785.74 284.959H810.08C810.08 281.306 810.974 279.868 811.477 279.283L793.027 263.408ZM785.74 284.959V292.469H810.08V284.959H785.74ZM785.74 292.469C785.74 300.238 787.741 307.875 793.027 314.019L811.477 298.144C810.974 297.56 810.08 296.122 810.08 292.469H785.74ZM793.027 314.019C798.797 320.724 806.792 323.297 814.926 323.297V298.958C813.359 298.958 812.494 298.719 812.093 298.56C811.757 298.426 811.612 298.301 811.477 298.144L793.027 314.019ZM814.926 323.297C823.06 323.297 831.055 320.724 836.824 314.019L818.375 298.144C818.24 298.301 818.094 298.426 817.759 298.56C817.357 298.719 816.493 298.958 814.926 298.958V323.297ZM836.719 314.14C842.146 307.998 844.228 300.316 844.228 292.469H819.889C819.889 296.044 818.999 297.437 818.481 298.023L836.719 314.14ZM844.228 292.469V284.959H819.889V292.469H844.228ZM844.228 284.959C844.228 277.112 842.146 269.429 836.719 263.287L818.481 279.405C818.999 279.991 819.889 281.383 819.889 284.959H844.228ZM836.824 263.408C831.055 256.704 823.06 254.13 814.926 254.13V278.47C816.493 278.47 817.357 278.708 817.759 278.868C818.094 279.002 818.24 279.126 818.375 279.283L836.824 263.408ZM942.486 321.806L934.705 312.449L934.705 312.449L942.486 321.806ZM882.99 321.806L875.209 331.164L875.235 331.185L875.261 331.206L882.99 321.806ZM872.545 248.345V236.176H860.376V248.345H872.545ZM898.48 248.345H910.649V236.176H898.48V248.345ZM902.118 307.138L893.008 315.207L893.066 315.272L893.125 315.337L902.118 307.138ZM923.24 307.02L914.259 298.809L914.194 298.879L914.13 298.951L923.24 307.02ZM926.996 248.345V236.176H914.826V248.345H926.996ZM952.93 248.345H965.1V236.176H952.93V248.345ZM940.76 296.576C940.76 304.857 938.283 309.474 934.705 312.449L950.266 331.164C960.614 322.56 965.1 310.357 965.1 296.576H940.76ZM934.705 312.449C930.683 315.794 923.95 318.321 912.796 318.321V342.66C927.303 342.66 940.364 339.398 950.266 331.164L934.705 312.449ZM912.796 318.321C901.654 318.321 894.844 315.798 890.718 312.406L875.261 331.206C885.217 339.393 898.279 342.66 912.796 342.66V318.321ZM890.77 312.449C887.192 309.474 884.715 304.857 884.715 296.576H860.376C860.376 310.357 864.862 322.56 875.209 331.164L890.77 312.449ZM884.715 296.576V248.345H860.376V296.576H884.715ZM872.545 260.515H898.48V236.176H872.545V260.515ZM886.31 248.345V296.224H910.649V248.345H886.31ZM886.31 296.224C886.31 302.991 888.168 309.743 893.008 315.207L911.228 299.069C911.216 299.056 910.649 298.532 910.649 296.224H886.31ZM893.125 315.337C898.467 321.197 905.668 323.297 912.679 323.297V298.958C911.518 298.958 910.991 298.789 910.878 298.746C910.826 298.726 910.853 298.731 910.923 298.778C910.995 298.826 911.062 298.885 911.11 298.938L893.125 315.337ZM912.679 323.297C919.799 323.297 927.037 321.088 932.351 315.089L914.13 298.951C914.166 298.911 914.226 298.855 914.299 298.804C914.371 298.755 914.406 298.745 914.37 298.759C914.29 298.79 913.803 298.958 912.679 298.958V323.297ZM932.222 315.232C937.175 309.815 939.165 303.075 939.165 296.224H914.826C914.826 298.292 914.313 298.75 914.259 298.809L932.222 315.232ZM939.165 296.224V248.345H914.826V296.224H939.165ZM926.996 260.515H952.93V236.176H926.996V260.515ZM940.76 248.345V296.576H965.1V248.345H940.76Z" fill="white" mask="url(#path-4-outside-1_4139_858)"/>
</g>
<g style="mix-blend-mode:luminosity">
<mask id="path-6-outside-2_4139_858" maskUnits="userSpaceOnUse" x="175.4" y="99.6172" width="778" height="85" fill="black">
<rect fill="white" x="175.4" y="99.6172" width="778" height="85"/>
<path d="M228.555 122.534V182.617H202.62V122.534H176.099V101.881H254.958V122.534H228.555ZM321.223 182.617V151.989H292.707V182.617H266.773V101.881H292.707V131.335H321.223V101.881H347.158V182.617H321.223ZM418.625 182.617L415.222 171.234H386.94L383.537 182.617H357.016L386.471 101.881H416.63L446.085 182.617H418.625ZM392.338 153.162H409.823L401.374 124.412H400.905L392.338 153.162ZM513.598 182.617L479.684 143.422V182.617H455.862V101.881H478.511L512.425 141.662V101.881H536.247V182.617H513.598ZM608.3 101.881H640.454L611.469 135.091L641.041 182.617H610.413L593.632 153.045L579.55 164.545V182.617H553.615V101.881H579.55V136.381L608.3 101.881ZM740.555 182.617H714.621V151.285L682.585 101.881H712.391L727.882 128.754H728.351L743.841 101.881H772.122L740.555 151.285V182.617ZM814.926 100.472C828.851 100.472 839.608 104.032 847.197 111.151C854.786 118.27 858.58 128.636 858.58 142.249C858.58 155.861 854.786 166.227 847.197 173.347C839.608 180.466 828.851 184.025 814.926 184.025C801 184.025 790.243 180.505 782.655 173.464C775.144 166.345 771.389 155.94 771.389 142.249C771.389 128.558 775.144 118.192 782.655 111.151C790.243 104.032 801 100.472 814.926 100.472ZM814.926 119.835C809.371 119.835 805.147 121.517 802.252 124.881C799.357 128.245 797.91 132.783 797.91 138.494V146.004C797.91 151.715 799.357 156.253 802.252 159.617C805.147 162.981 809.371 164.663 814.926 164.663C820.48 164.663 824.705 162.981 827.6 159.617C830.572 156.253 832.059 151.715 832.059 146.004V138.494C832.059 132.783 830.572 128.245 827.6 124.881C824.705 121.517 820.48 119.835 814.926 119.835ZM952.93 150.111C952.93 161.142 949.449 169.552 942.486 175.342C935.523 181.131 925.627 184.025 912.796 184.025C899.966 184.025 890.031 181.131 882.99 175.342C876.027 169.552 872.545 161.142 872.545 150.111V101.881H898.48V149.759C898.48 154.297 899.692 157.935 902.118 160.673C904.543 163.333 908.063 164.663 912.679 164.663C917.295 164.663 920.815 163.294 923.24 160.555C925.744 157.817 926.996 154.219 926.996 149.759V101.881H952.93V150.111Z"/>
</mask>
<path d="M228.555 122.534V122.099H228.12V122.534H228.555ZM228.555 182.617V183.052H228.989V182.617H228.555ZM202.62 182.617H202.186V183.052H202.62V182.617ZM202.62 122.534H203.055V122.099H202.62V122.534ZM176.099 122.534H175.665V122.969H176.099V122.534ZM176.099 101.881V101.446H175.665V101.881H176.099ZM254.958 101.881H255.393V101.446H254.958V101.881ZM254.958 122.534V122.969H255.393V122.534H254.958ZM228.12 122.534V182.617H228.989V122.534H228.12ZM228.555 182.183H202.62V183.052H228.555V182.183ZM203.055 182.617V122.534H202.186V182.617H203.055ZM202.62 122.099H176.099V122.969H202.62V122.099ZM176.534 122.534V101.881H175.665V122.534H176.534ZM176.099 102.315H254.958V101.446H176.099V102.315ZM254.524 101.881V122.534H255.393V101.881H254.524ZM254.958 122.099H228.555V122.969H254.958V122.099ZM321.223 182.617H320.789V183.052H321.223V182.617ZM321.223 151.989H321.658V151.554H321.223V151.989ZM292.707 151.989V151.554H292.273V151.989H292.707ZM292.707 182.617V183.052H293.142V182.617H292.707ZM266.773 182.617H266.339V183.052H266.773V182.617ZM266.773 101.881V101.446H266.339V101.881H266.773ZM292.707 101.881H293.142V101.446H292.707V101.881ZM292.707 131.335H292.273V131.77H292.707V131.335ZM321.223 131.335V131.77H321.658V131.335H321.223ZM321.223 101.881V101.446H320.789V101.881H321.223ZM347.158 101.881H347.592V101.446H347.158V101.881ZM347.158 182.617V183.052H347.592V182.617H347.158ZM321.658 182.617V151.989H320.789V182.617H321.658ZM321.223 151.554H292.707V152.424H321.223V151.554ZM292.273 151.989V182.617H293.142V151.989H292.273ZM292.707 182.183H266.773V183.052H292.707V182.183ZM267.208 182.617V101.881H266.339V182.617H267.208ZM266.773 102.315H292.707V101.446H266.773V102.315ZM292.273 101.881V131.335H293.142V101.881H292.273ZM292.707 131.77H321.223V130.901H292.707V131.77ZM321.658 131.335V101.881H320.789V131.335H321.658ZM321.223 102.315H347.158V101.446H321.223V102.315ZM346.723 101.881V182.617H347.592V101.881H346.723ZM347.158 182.183H321.223V183.052H347.158V182.183ZM418.625 182.617L418.208 182.742L418.301 183.052H418.625V182.617ZM415.222 171.234L415.638 171.11L415.545 170.8H415.222V171.234ZM386.94 171.234V170.8H386.617L386.524 171.11L386.94 171.234ZM383.537 182.617V183.052H383.861L383.954 182.742L383.537 182.617ZM357.016 182.617L356.608 182.468L356.395 183.052H357.016V182.617ZM386.471 101.881V101.446H386.167L386.063 101.732L386.471 101.881ZM416.63 101.881L417.038 101.732L416.934 101.446H416.63V101.881ZM446.085 182.617V183.052H446.706L446.493 182.468L446.085 182.617ZM392.338 153.162L391.922 153.038L391.755 153.597H392.338V153.162ZM409.823 153.162V153.597H410.404L410.24 153.04L409.823 153.162ZM401.374 124.412L401.791 124.289L401.7 123.977H401.374V124.412ZM400.905 124.412V123.977H400.581L400.488 124.288L400.905 124.412ZM419.041 182.493L415.638 171.11L414.805 171.359L418.208 182.742L419.041 182.493ZM415.222 170.8H386.94V171.669H415.222V170.8ZM386.524 171.11L383.121 182.493L383.954 182.742L387.357 171.359L386.524 171.11ZM383.537 182.183H357.016V183.052H383.537V182.183ZM357.424 182.766L386.879 102.03L386.063 101.732L356.608 182.468L357.424 182.766ZM386.471 102.315H416.63V101.446H386.471V102.315ZM416.221 102.03L445.676 182.766L446.493 182.468L417.038 101.732L416.221 102.03ZM446.085 182.183H418.625V183.052H446.085V182.183ZM392.338 153.597H409.823V152.728H392.338V153.597ZM410.24 153.04L401.791 124.289L400.957 124.534L409.406 153.285L410.24 153.04ZM401.374 123.977H400.905V124.846H401.374V123.977ZM400.488 124.288L391.922 153.038L392.755 153.287L401.321 124.536L400.488 124.288ZM513.598 182.617L513.27 182.902L513.4 183.052H513.598V182.617ZM479.684 143.422L480.013 143.138L479.25 142.256V143.422H479.684ZM479.684 182.617V183.052H480.119V182.617H479.684ZM455.862 182.617H455.428V183.052H455.862V182.617ZM455.862 101.881V101.446H455.428V101.881H455.862ZM478.511 101.881L478.841 101.599L478.711 101.446H478.511V101.881ZM512.425 141.662L512.094 141.944L512.859 142.842V141.662H512.425ZM512.425 101.881V101.446H511.99V101.881H512.425ZM536.247 101.881H536.681V101.446H536.247V101.881ZM536.247 182.617V183.052H536.681V182.617H536.247ZM513.927 182.333L480.013 143.138L479.355 143.707L513.27 182.902L513.927 182.333ZM479.25 143.422V182.617H480.119V143.422H479.25ZM479.684 182.183H455.862V183.052H479.684V182.183ZM456.297 182.617V101.881H455.428V182.617H456.297ZM455.862 102.315H478.511V101.446H455.862V102.315ZM478.18 102.163L512.094 141.944L512.755 141.38L478.841 101.599L478.18 102.163ZM512.859 141.662V101.881H511.99V141.662H512.859ZM512.425 102.315H536.247V101.446H512.425V102.315ZM535.812 101.881V182.617H536.681V101.881H535.812ZM536.247 182.183H513.598V183.052H536.247V182.183ZM608.3 101.881V101.446H608.097L607.966 101.602L608.3 101.881ZM640.454 101.881L640.782 102.166L641.41 101.446H640.454V101.881ZM611.469 135.091L611.141 134.805L610.93 135.047L611.1 135.32L611.469 135.091ZM641.041 182.617V183.052H641.823L641.41 182.388L641.041 182.617ZM610.413 182.617L610.035 182.832L610.16 183.052H610.413V182.617ZM593.632 153.045L594.01 152.831L593.756 152.383L593.357 152.708L593.632 153.045ZM579.55 164.545L579.275 164.209L579.115 164.339V164.545H579.55ZM579.55 182.617V183.052H579.984V182.617H579.55ZM553.615 182.617H553.181V183.052H553.615V182.617ZM553.615 101.881V101.446H553.181V101.881H553.615ZM579.55 101.881H579.984V101.446H579.55V101.881ZM579.55 136.381H579.115V137.582L579.884 136.66L579.55 136.381ZM608.3 102.315H640.454V101.446H608.3V102.315ZM640.127 101.595L611.141 134.805L611.796 135.376L640.782 102.166L640.127 101.595ZM611.1 135.32L640.672 182.847L641.41 182.388L611.838 134.861L611.1 135.32ZM641.041 182.183H610.413V183.052H641.041V182.183ZM610.791 182.403L594.01 152.831L593.254 153.26L610.035 182.832L610.791 182.403ZM593.357 152.708L579.275 164.209L579.825 164.882L593.907 153.382L593.357 152.708ZM579.115 164.545V182.617H579.984V164.545H579.115ZM579.55 182.183H553.615V183.052H579.55V182.183ZM554.05 182.617V101.881H553.181V182.617H554.05ZM553.615 102.315H579.55V101.446H553.615V102.315ZM579.115 101.881V136.381H579.984V101.881H579.115ZM579.884 136.66L608.634 102.159L607.966 101.602L579.216 136.103L579.884 136.66ZM740.555 182.617V183.052H740.99V182.617H740.555ZM714.621 182.617H714.186V183.052H714.621V182.617ZM714.621 151.285H715.056V151.156L714.986 151.048L714.621 151.285ZM682.585 101.881V101.446H681.785L682.22 102.117L682.585 101.881ZM712.391 101.881L712.768 101.664L712.643 101.446H712.391V101.881ZM727.882 128.754L727.505 128.971L727.63 129.188H727.882V128.754ZM728.351 128.754V129.188H728.602L728.728 128.971L728.351 128.754ZM743.841 101.881V101.446H743.59L743.465 101.664L743.841 101.881ZM772.122 101.881L772.489 102.115L772.916 101.446H772.122V101.881ZM740.555 151.285L740.189 151.051L740.121 151.158V151.285H740.555ZM740.555 182.183H714.621V183.052H740.555V182.183ZM715.056 182.617V151.285H714.186V182.617H715.056ZM714.986 151.048L682.949 101.644L682.22 102.117L714.256 151.521L714.986 151.048ZM682.585 102.315H712.391V101.446H682.585V102.315ZM712.015 102.098L727.505 128.971L728.258 128.537L712.768 101.664L712.015 102.098ZM727.882 129.188H728.351V128.319H727.882V129.188ZM728.728 128.971L744.218 102.098L743.465 101.664L727.974 128.537L728.728 128.971ZM743.841 102.315H772.122V101.446H743.841V102.315ZM771.756 101.647L740.189 151.051L740.922 151.519L772.489 102.115L771.756 101.647ZM740.121 151.285V182.617H740.99V151.285H740.121ZM847.197 173.347L846.9 173.03L846.9 173.03L847.197 173.347ZM782.655 173.464L782.356 173.779L782.359 173.783L782.655 173.464ZM782.655 111.151L782.952 111.468L782.952 111.468L782.655 111.151ZM802.252 124.881L802.581 125.165L802.581 125.165L802.252 124.881ZM827.6 159.617L827.274 159.329L827.27 159.333L827.6 159.617ZM827.6 124.881L827.27 125.165L827.274 125.169L827.6 124.881ZM814.926 100.907C828.779 100.907 839.416 104.447 846.9 111.468L847.494 110.834C839.801 103.617 828.924 100.038 814.926 100.038V100.907ZM846.9 111.468C854.376 118.482 858.145 128.718 858.145 142.249H859.015C859.015 128.555 855.195 118.059 847.494 110.834L846.9 111.468ZM858.145 142.249C858.145 155.78 854.376 166.016 846.9 173.03L847.494 173.664C855.195 166.439 859.015 155.943 859.015 142.249H858.145ZM846.9 173.03C839.416 180.051 828.779 183.591 814.926 183.591V184.46C828.924 184.46 839.801 180.881 847.494 173.664L846.9 173.03ZM814.926 183.591C801.071 183.591 790.434 180.089 782.95 173.145L782.359 173.783C790.052 180.921 800.929 184.46 814.926 184.46V183.591ZM782.954 173.148C775.555 166.135 771.824 155.861 771.824 142.249H770.954C770.954 156.019 774.733 166.554 782.356 173.779L782.954 173.148ZM771.824 142.249C771.824 128.637 775.555 118.403 782.952 111.468L782.357 110.834C774.733 117.982 770.954 128.479 770.954 142.249H771.824ZM782.952 111.468C790.436 104.447 801.073 100.907 814.926 100.907V100.038C800.928 100.038 790.051 103.617 782.357 110.834L782.952 111.468ZM814.926 119.4C809.279 119.4 804.92 121.114 801.923 124.598L802.581 125.165C805.373 121.92 809.463 120.27 814.926 120.27V119.4ZM801.923 124.598C798.942 128.061 797.475 132.709 797.475 138.494H798.345C798.345 132.856 799.772 128.429 802.581 125.165L801.923 124.598ZM797.475 138.494V146.004H798.345V138.494H797.475ZM797.475 146.004C797.475 151.789 798.942 156.437 801.923 159.9L802.581 159.333C799.772 156.068 798.345 151.642 798.345 146.004H797.475ZM801.923 159.9C804.92 163.383 809.279 165.097 814.926 165.097V164.228C809.463 164.228 805.373 162.578 802.581 159.333L801.923 159.9ZM814.926 165.097C820.572 165.097 824.932 163.383 827.929 159.9L827.27 159.333C824.478 162.578 820.388 164.228 814.926 164.228V165.097ZM827.925 159.904C830.986 156.441 832.493 151.791 832.493 146.004H831.624C831.624 151.639 830.159 156.064 827.274 159.329L827.925 159.904ZM832.493 146.004V138.494H831.624V146.004H832.493ZM832.493 138.494C832.493 132.706 830.986 128.057 827.925 124.593L827.274 125.169C830.159 128.434 831.624 132.859 831.624 138.494H832.493ZM827.929 124.598C824.932 121.114 820.572 119.4 814.926 119.4V120.27C820.388 120.27 824.478 121.92 827.27 125.165L827.929 124.598ZM942.486 175.342L942.208 175.007L942.208 175.007L942.486 175.342ZM882.99 175.342L882.712 175.676L882.713 175.677L882.99 175.342ZM872.545 101.881V101.446H872.111V101.881H872.545ZM898.48 101.881H898.914V101.446H898.48V101.881ZM902.118 160.673L901.792 160.961L901.796 160.966L902.118 160.673ZM923.24 160.555L922.92 160.262L922.915 160.267L923.24 160.555ZM926.996 101.881V101.446H926.561V101.881H926.996ZM952.93 101.881H953.365V101.446H952.93V101.881ZM952.495 150.111C952.495 161.044 949.05 169.319 942.208 175.007L942.764 175.676C949.847 169.786 953.365 161.24 953.365 150.111H952.495ZM942.208 175.007C935.35 180.709 925.567 183.591 912.796 183.591V184.46C925.686 184.46 935.696 181.552 942.764 175.676L942.208 175.007ZM912.796 183.591C900.026 183.591 890.202 180.709 883.266 175.006L882.713 175.677C889.859 181.552 899.906 184.46 912.796 184.46V183.591ZM883.267 175.007C876.426 169.319 872.98 161.044 872.98 150.111H872.111C872.111 161.24 875.628 169.786 882.712 175.676L883.267 175.007ZM872.98 150.111V101.881H872.111V150.111H872.98ZM872.545 102.315H898.48V101.446H872.545V102.315ZM898.045 101.881V149.759H898.914V101.881H898.045ZM898.045 149.759C898.045 154.376 899.281 158.125 901.792 160.961L902.443 160.385C900.104 157.744 898.914 154.217 898.914 149.759H898.045ZM901.796 160.966C904.326 163.74 907.978 165.097 912.679 165.097V164.228C908.149 164.228 904.76 162.926 902.439 160.38L901.796 160.966ZM912.679 165.097C917.384 165.097 921.037 163.698 923.566 160.844L922.915 160.267C920.593 162.889 917.205 164.228 912.679 164.228V165.097ZM923.561 160.849C926.152 158.015 927.43 154.304 927.43 149.759H926.561C926.561 154.133 925.336 157.62 922.92 160.262L923.561 160.849ZM927.43 149.759V101.881H926.561V149.759H927.43ZM926.996 102.315H952.93V101.446H926.996V102.315ZM952.495 101.881V150.111H953.365V101.881H952.495Z" fill="#FFDB43" mask="url(#path-6-outside-2_4139_858)"/>
</g>
<g style="mix-blend-mode:luminosity">
<mask id="path-8-outside-3_4139_858" maskUnits="userSpaceOnUse" x="175.4" y="384.297" width="778" height="85" fill="black">
<rect fill="white" x="175.4" y="384.297" width="778" height="85"/>
<path d="M228.555 407.214V467.297H202.62V407.214H176.099V386.56H254.958V407.214H228.555ZM321.223 467.297V436.669H292.707V467.297H266.773V386.56H292.707V416.015H321.223V386.56H347.158V467.297H321.223ZM418.625 467.297L415.222 455.914H386.94L383.537 467.297H357.016L386.471 386.56H416.63L446.085 467.297H418.625ZM392.338 437.842H409.823L401.374 409.091H400.905L392.338 437.842ZM513.598 467.297L479.684 428.102V467.297H455.862V386.56H478.511L512.425 426.342V386.56H536.247V467.297H513.598ZM608.3 386.56H640.454L611.469 419.77L641.041 467.297H610.413L593.632 437.725L579.55 449.225V467.297H553.615V386.56H579.55V421.061L608.3 386.56ZM740.555 467.297H714.621V435.964L682.585 386.56H712.391L727.882 413.433H728.351L743.841 386.56H772.122L740.555 435.964V467.297ZM814.926 385.152C828.851 385.152 839.608 388.712 847.197 395.831C854.786 402.95 858.58 413.316 858.58 426.929C858.58 440.541 854.786 450.907 847.197 458.026C839.608 465.145 828.851 468.705 814.926 468.705C801 468.705 790.243 465.185 782.655 458.144C775.144 451.024 771.389 440.619 771.389 426.929C771.389 413.238 775.144 402.872 782.655 395.831C790.243 388.712 801 385.152 814.926 385.152ZM814.926 404.515C809.371 404.515 805.147 406.197 802.252 409.561C799.357 412.925 797.91 417.462 797.91 423.173V430.684C797.91 436.395 799.357 440.932 802.252 444.296C805.147 447.66 809.371 449.342 814.926 449.342C820.48 449.342 824.705 447.66 827.6 444.296C830.572 440.932 832.059 436.395 832.059 430.684V423.173C832.059 417.462 830.572 412.925 827.6 409.561C824.705 406.197 820.48 404.515 814.926 404.515ZM952.93 434.791C952.93 445.822 949.449 454.232 942.486 460.021C935.523 465.81 925.627 468.705 912.796 468.705C899.966 468.705 890.031 465.81 882.99 460.021C876.027 454.232 872.545 445.822 872.545 434.791V386.56H898.48V434.439C898.48 438.976 899.692 442.614 902.118 445.352C904.543 448.012 908.063 449.342 912.679 449.342C917.295 449.342 920.815 447.973 923.24 445.235C925.744 442.497 926.996 438.898 926.996 434.439V386.56H952.93V434.791Z"/>
</mask>
<path d="M228.555 407.214V406.779H228.12V407.214H228.555ZM228.555 467.297V467.732H228.989V467.297H228.555ZM202.62 467.297H202.186V467.732H202.62V467.297ZM202.62 407.214H203.055V406.779H202.62V407.214ZM176.099 407.214H175.665V407.648H176.099V407.214ZM176.099 386.56V386.126H175.665V386.56H176.099ZM254.958 386.56H255.393V386.126H254.958V386.56ZM254.958 407.214V407.648H255.393V407.214H254.958ZM228.12 407.214V467.297H228.989V407.214H228.12ZM228.555 466.862H202.62V467.732H228.555V466.862ZM203.055 467.297V407.214H202.186V467.297H203.055ZM202.62 406.779H176.099V407.648H202.62V406.779ZM176.534 407.214V386.56H175.665V407.214H176.534ZM176.099 386.995H254.958V386.126H176.099V386.995ZM254.524 386.56V407.214H255.393V386.56H254.524ZM254.958 406.779H228.555V407.648H254.958V406.779ZM321.223 467.297H320.789V467.732H321.223V467.297ZM321.223 436.669H321.658V436.234H321.223V436.669ZM292.707 436.669V436.234H292.273V436.669H292.707ZM292.707 467.297V467.732H293.142V467.297H292.707ZM266.773 467.297H266.339V467.732H266.773V467.297ZM266.773 386.56V386.126H266.339V386.56H266.773ZM292.707 386.56H293.142V386.126H292.707V386.56ZM292.707 416.015H292.273V416.45H292.707V416.015ZM321.223 416.015V416.45H321.658V416.015H321.223ZM321.223 386.56V386.126H320.789V386.56H321.223ZM347.158 386.56H347.592V386.126H347.158V386.56ZM347.158 467.297V467.732H347.592V467.297H347.158ZM321.658 467.297V436.669H320.789V467.297H321.658ZM321.223 436.234H292.707V437.103H321.223V436.234ZM292.273 436.669V467.297H293.142V436.669H292.273ZM292.707 466.862H266.773V467.732H292.707V466.862ZM267.208 467.297V386.56H266.339V467.297H267.208ZM266.773 386.995H292.707V386.126H266.773V386.995ZM292.273 386.56V416.015H293.142V386.56H292.273ZM292.707 416.45H321.223V415.58H292.707V416.45ZM321.658 416.015V386.56H320.789V416.015H321.658ZM321.223 386.995H347.158V386.126H321.223V386.995ZM346.723 386.56V467.297H347.592V386.56H346.723ZM347.158 466.862H321.223V467.732H347.158V466.862ZM418.625 467.297L418.208 467.421L418.301 467.732H418.625V467.297ZM415.222 455.914L415.638 455.789L415.545 455.479H415.222V455.914ZM386.94 455.914V455.479H386.617L386.524 455.789L386.94 455.914ZM383.537 467.297V467.732H383.861L383.954 467.421L383.537 467.297ZM357.016 467.297L356.608 467.148L356.395 467.732H357.016V467.297ZM386.471 386.56V386.126H386.167L386.063 386.411L386.471 386.56ZM416.63 386.56L417.038 386.411L416.934 386.126H416.63V386.56ZM446.085 467.297V467.732H446.706L446.493 467.148L446.085 467.297ZM392.338 437.842L391.922 437.718L391.755 438.277H392.338V437.842ZM409.823 437.842V438.277H410.404L410.24 437.72L409.823 437.842ZM401.374 409.091L401.791 408.969L401.7 408.657H401.374V409.091ZM400.905 409.091V408.657H400.581L400.488 408.967L400.905 409.091ZM419.041 467.172L415.638 455.789L414.805 456.038L418.208 467.421L419.041 467.172ZM415.222 455.479H386.94V456.349H415.222V455.479ZM386.524 455.789L383.121 467.172L383.954 467.421L387.357 456.038L386.524 455.789ZM383.537 466.862H357.016V467.732H383.537V466.862ZM357.424 467.446L386.879 386.709L386.063 386.411L356.608 467.148L357.424 467.446ZM386.471 386.995H416.63V386.126H386.471V386.995ZM416.221 386.709L445.676 467.446L446.493 467.148L417.038 386.411L416.221 386.709ZM446.085 466.862H418.625V467.732H446.085V466.862ZM392.338 438.277H409.823V437.407H392.338V438.277ZM410.24 437.72L401.791 408.969L400.957 409.214L409.406 437.965L410.24 437.72ZM401.374 408.657H400.905V409.526H401.374V408.657ZM400.488 408.967L391.922 437.718L392.755 437.966L401.321 409.216L400.488 408.967ZM513.598 467.297L513.27 467.581L513.4 467.732H513.598V467.297ZM479.684 428.102L480.013 427.818L479.25 426.936V428.102H479.684ZM479.684 467.297V467.732H480.119V467.297H479.684ZM455.862 467.297H455.428V467.732H455.862V467.297ZM455.862 386.56V386.126H455.428V386.56H455.862ZM478.511 386.56L478.841 386.278L478.711 386.126H478.511V386.56ZM512.425 426.342L512.094 426.624L512.859 427.522V426.342H512.425ZM512.425 386.56V386.126H511.99V386.56H512.425ZM536.247 386.56H536.681V386.126H536.247V386.56ZM536.247 467.297V467.732H536.681V467.297H536.247ZM513.927 467.012L480.013 427.818L479.355 428.386L513.27 467.581L513.927 467.012ZM479.25 428.102V467.297H480.119V428.102H479.25ZM479.684 466.862H455.862V467.732H479.684V466.862ZM456.297 467.297V386.56H455.428V467.297H456.297ZM455.862 386.995H478.511V386.126H455.862V386.995ZM478.18 386.842L512.094 426.624L512.755 426.06L478.841 386.278L478.18 386.842ZM512.859 426.342V386.56H511.99V426.342H512.859ZM512.425 386.995H536.247V386.126H512.425V386.995ZM535.812 386.56V467.297H536.681V386.56H535.812ZM536.247 466.862H513.598V467.732H536.247V466.862ZM608.3 386.56V386.126H608.097L607.966 386.282L608.3 386.56ZM640.454 386.56L640.782 386.846L641.41 386.126H640.454V386.56ZM611.469 419.77L611.141 419.484L610.93 419.727L611.1 420L611.469 419.77ZM641.041 467.297V467.732H641.823L641.41 467.067L641.041 467.297ZM610.413 467.297L610.035 467.511L610.16 467.732H610.413V467.297ZM593.632 437.725L594.01 437.51L593.756 437.062L593.357 437.388L593.632 437.725ZM579.55 449.225L579.275 448.888L579.115 449.019V449.225H579.55ZM579.55 467.297V467.732H579.984V467.297H579.55ZM553.615 467.297H553.181V467.732H553.615V467.297ZM553.615 386.56V386.126H553.181V386.56H553.615ZM579.55 386.56H579.984V386.126H579.55V386.56ZM579.55 421.061H579.115V422.262L579.884 421.339L579.55 421.061ZM608.3 386.995H640.454V386.126H608.3V386.995ZM640.127 386.274L611.141 419.484L611.796 420.056L640.782 386.846L640.127 386.274ZM611.1 420L640.672 467.526L641.41 467.067L611.838 419.541L611.1 420ZM641.041 466.862H610.413V467.732H641.041V466.862ZM610.791 467.082L594.01 437.51L593.254 437.939L610.035 467.511L610.791 467.082ZM593.357 437.388L579.275 448.888L579.825 449.562L593.907 438.061L593.357 437.388ZM579.115 449.225V467.297H579.984V449.225H579.115ZM579.55 466.862H553.615V467.732H579.55V466.862ZM554.05 467.297V386.56H553.181V467.297H554.05ZM553.615 386.995H579.55V386.126H553.615V386.995ZM579.115 386.56V421.061H579.984V386.56H579.115ZM579.884 421.339L608.634 386.838L607.966 386.282L579.216 420.783L579.884 421.339ZM740.555 467.297V467.732H740.99V467.297H740.555ZM714.621 467.297H714.186V467.732H714.621V467.297ZM714.621 435.964H715.056V435.836L714.986 435.728L714.621 435.964ZM682.585 386.56V386.126H681.785L682.22 386.797L682.585 386.56ZM712.391 386.56L712.768 386.343L712.643 386.126H712.391V386.56ZM727.882 413.433L727.505 413.65L727.63 413.868H727.882V413.433ZM728.351 413.433V413.868H728.602L728.728 413.65L728.351 413.433ZM743.841 386.56V386.126H743.59L743.465 386.343L743.841 386.56ZM772.122 386.56L772.489 386.794L772.916 386.126H772.122V386.56ZM740.555 435.964L740.189 435.73L740.121 435.837V435.964H740.555ZM740.555 466.862H714.621V467.732H740.555V466.862ZM715.056 467.297V435.964H714.186V467.297H715.056ZM714.986 435.728L682.949 386.324L682.22 386.797L714.256 436.201L714.986 435.728ZM682.585 386.995H712.391V386.126H682.585V386.995ZM712.015 386.777L727.505 413.65L728.258 413.216L712.768 386.343L712.015 386.777ZM727.882 413.868H728.351V412.999H727.882V413.868ZM728.728 413.65L744.218 386.777L743.465 386.343L727.974 413.216L728.728 413.65ZM743.841 386.995H772.122V386.126H743.841V386.995ZM771.756 386.326L740.189 435.73L740.922 436.199L772.489 386.794L771.756 386.326ZM740.121 435.964V467.297H740.99V435.964H740.121ZM847.197 458.026L846.9 457.709L846.9 457.709L847.197 458.026ZM782.655 458.144L782.356 458.459L782.359 458.462L782.655 458.144ZM782.655 395.831L782.952 396.148L782.952 396.148L782.655 395.831ZM802.252 409.561L802.581 409.844L802.581 409.844L802.252 409.561ZM827.6 444.296L827.274 444.008L827.27 444.013L827.6 444.296ZM827.6 409.561L827.27 409.844L827.274 409.849L827.6 409.561ZM814.926 385.587C828.779 385.587 839.416 389.127 846.9 396.148L847.494 395.514C839.801 388.296 828.924 384.717 814.926 384.717V385.587ZM846.9 396.148C854.376 403.162 858.145 413.397 858.145 426.929H859.015C859.015 413.235 855.195 402.739 847.494 395.514L846.9 396.148ZM858.145 426.929C858.145 440.46 854.376 450.695 846.9 457.709L847.494 458.343C855.195 451.119 859.015 440.622 859.015 426.929H858.145ZM846.9 457.709C839.416 464.73 828.779 468.27 814.926 468.27V469.14C828.924 469.14 839.801 465.561 847.494 458.343L846.9 457.709ZM814.926 468.27C801.071 468.27 790.434 464.769 782.95 457.825L782.359 458.462C790.052 465.6 800.929 469.14 814.926 469.14V468.27ZM782.954 457.828C775.555 450.815 771.824 440.54 771.824 426.929H770.954C770.954 440.698 774.733 451.234 782.356 458.459L782.954 457.828ZM771.824 426.929C771.824 413.316 775.555 403.082 782.952 396.148L782.357 395.514C774.733 402.662 770.954 413.159 770.954 426.929H771.824ZM782.952 396.148C790.436 389.127 801.073 385.587 814.926 385.587V384.717C800.928 384.717 790.051 388.296 782.357 395.514L782.952 396.148ZM814.926 404.08C809.279 404.08 804.92 405.794 801.923 409.277L802.581 409.844C805.373 406.6 809.463 404.949 814.926 404.949V404.08ZM801.923 409.277C798.942 412.741 797.475 417.389 797.475 423.173H798.345C798.345 417.536 799.772 413.109 802.581 409.844L801.923 409.277ZM797.475 423.173V430.684H798.345V423.173H797.475ZM797.475 430.684C797.475 436.468 798.942 441.117 801.923 444.58L802.581 444.013C799.772 440.748 798.345 436.321 798.345 430.684H797.475ZM801.923 444.58C804.92 448.063 809.279 449.777 814.926 449.777V448.908C809.463 448.908 805.373 447.258 802.581 444.013L801.923 444.58ZM814.926 449.777C820.572 449.777 824.932 448.063 827.929 444.58L827.27 444.013C824.478 447.258 820.388 448.908 814.926 448.908V449.777ZM827.925 444.584C830.986 441.121 832.493 436.471 832.493 430.684H831.624C831.624 436.319 830.159 440.744 827.274 444.009L827.925 444.584ZM832.493 430.684V423.173H831.624V430.684H832.493ZM832.493 423.173C832.493 417.386 830.986 412.736 827.925 409.273L827.274 409.849C830.159 413.113 831.624 417.539 831.624 423.173H832.493ZM827.929 409.277C824.932 405.794 820.572 404.08 814.926 404.08V404.949C820.388 404.949 824.478 406.6 827.27 409.844L827.929 409.277ZM942.486 460.021L942.208 459.687L942.208 459.687L942.486 460.021ZM882.99 460.021L882.712 460.355L882.713 460.357L882.99 460.021ZM872.545 386.56V386.126H872.111V386.56H872.545ZM898.48 386.56H898.914V386.126H898.48V386.56ZM902.118 445.352L901.792 445.641L901.796 445.645L902.118 445.352ZM923.24 445.235L922.92 444.942L922.915 444.947L923.24 445.235ZM926.996 386.56V386.126H926.561V386.56H926.996ZM952.93 386.56H953.365V386.126H952.93V386.56ZM952.495 434.791C952.495 445.724 949.05 453.998 942.208 459.687L942.764 460.355C949.847 454.466 953.365 445.92 953.365 434.791H952.495ZM942.208 459.687C935.35 465.389 925.567 468.27 912.796 468.27V469.14C925.686 469.14 935.696 466.232 942.764 460.355L942.208 459.687ZM912.796 468.27C900.026 468.27 890.202 465.389 883.266 459.685L882.713 460.357C889.859 466.232 899.906 469.14 912.796 469.14V468.27ZM883.267 459.687C876.426 453.998 872.98 445.724 872.98 434.791H872.111C872.111 445.92 875.628 454.466 882.712 460.355L883.267 459.687ZM872.98 434.791V386.56H872.111V434.791H872.98ZM872.545 386.995H898.48V386.126H872.545V386.995ZM898.045 386.56V434.439H898.914V386.56H898.045ZM898.045 434.439C898.045 439.056 899.281 442.805 901.792 445.641L902.443 445.064C900.104 442.423 898.914 438.897 898.914 434.439H898.045ZM901.796 445.645C904.326 448.42 907.978 449.777 912.679 449.777V448.908C908.149 448.908 904.76 447.605 902.439 445.06L901.796 445.645ZM912.679 449.777C917.384 449.777 921.037 448.378 923.566 445.523L922.915 444.947C920.593 447.569 917.205 448.908 912.679 448.908V449.777ZM923.561 445.528C926.152 442.695 927.43 438.984 927.43 434.439H926.561C926.561 438.813 925.336 442.299 922.92 444.942L923.561 445.528ZM927.43 434.439V386.56H926.561V434.439H927.43ZM926.996 386.995H952.93V386.126H926.996V386.995ZM952.495 386.56V434.791H953.365V386.56H952.495Z" fill="#FFDB43" mask="url(#path-8-outside-3_4139_858)"/>
</g>
<defs>
<filter id="filter0_d_4139_858" x="174.361" y="246.938" width="780.307" height="87.0278" filterUnits="userSpaceOnUse" color-interpolation-filters="sRGB">
<feFlood flood-opacity="0" result="BackgroundImageFix"/>
<feColorMatrix in="SourceAlpha" type="matrix" values="0 0 0 0 0 0 0 0 0 0 0 0 0 0 0 0 0 0 127 0" result="hardAlpha"/>
<feOffset dy="1.73851"/>
<feGaussianBlur stdDeviation="0.869257"/>
<feComposite in2="hardAlpha" operator="out"/>
<feColorMatrix type="matrix" values="0 0 0 0 0 0 0 0 0 0 0 0 0 0 0 0 0 0 0.25 0"/>
<feBlend mode="normal" in2="BackgroundImageFix" result="effect1_dropShadow_4139_858"/>
<feBlend mode="normal" in="SourceGraphic" in2="effect1_dropShadow_4139_858" result="shape"/>
</filter>
</defs>
</svg>
