<svg width="720" height="571" viewBox="0 0 720 571" fill="none" xmlns="http://www.w3.org/2000/svg">
<path d="M0.503906 0.458984H412.504C581.908 0.458984 719.236 137.787 719.236 307.191V570.881H307.235C137.832 570.881 0.503906 433.553 0.503906 264.15V0.458984Z" fill="white"/>
<path d="M33.8177 27.2962H408.054C561.655 27.2962 686.173 151.814 686.173 305.416V544.236H311.937C158.336 544.236 33.8177 419.718 33.8177 266.117V27.2962Z" fill="#FFDB43" stroke="#2F2828" stroke-width="3.88924"/>
<g filter="url(#filter0_d_4138_617)">
<mask id="path-3-outside-1_4138_617" maskUnits="userSpaceOnUse" x="103.92" y="115.395" width="436" height="115" fill="black">
<rect fill="white" x="103.92" y="115.395" width="436" height="115"/>
<path d="M164.369 126.646C172.926 126.646 180.618 127.942 187.445 130.535C194.273 133.128 199.675 136.974 203.651 142.073C207.713 147.086 209.744 153.222 209.744 160.482H182.389C182.389 156.766 180.747 153.784 177.463 151.537C174.179 149.203 170.203 148.036 165.536 148.036C158.795 148.036 153.696 149.851 150.238 153.481C146.781 157.025 145.053 162.081 145.053 168.649V176.946C145.053 183.515 146.781 188.614 150.238 192.244C153.696 195.788 158.795 197.559 165.536 197.559C170.203 197.559 174.179 196.479 177.463 194.318C180.747 192.071 182.389 189.219 182.389 185.762H162.165V167.612H209.744V217.395H194.965L192.113 208.579C183.988 215.493 173.358 218.95 160.221 218.95C145.442 218.95 134.336 215.104 126.903 207.412C119.47 199.634 115.754 188.096 115.754 172.798C115.754 157.673 119.946 146.221 128.329 138.443C136.799 130.578 148.812 126.646 164.369 126.646ZM271.843 126.646C287.227 126.646 299.111 130.578 307.494 138.443C315.878 146.308 320.07 157.759 320.07 172.798C320.07 187.836 315.878 199.288 307.494 207.153C299.111 215.018 287.227 218.95 271.843 218.95C256.459 218.95 244.575 215.061 236.192 207.283C227.895 199.418 223.746 187.923 223.746 172.798C223.746 157.673 227.895 146.221 236.192 138.443C244.575 130.578 256.459 126.646 271.843 126.646ZM271.843 148.036C265.707 148.036 261.04 149.895 257.842 153.611C254.644 157.327 253.045 162.34 253.045 168.649V176.946C253.045 183.256 254.644 188.268 257.842 191.985C261.04 195.701 265.707 197.559 271.843 197.559C277.979 197.559 282.647 195.701 285.844 191.985C289.129 188.268 290.771 183.256 290.771 176.946V168.649C290.771 162.34 289.129 157.327 285.844 153.611C282.647 149.895 277.979 148.036 271.843 148.036ZM379.835 126.646C395.22 126.646 407.103 130.578 415.487 138.443C423.87 146.308 428.062 157.759 428.062 172.798C428.062 187.836 423.87 199.288 415.487 207.153C407.103 215.018 395.22 218.95 379.835 218.95C364.451 218.95 352.567 215.061 344.184 207.283C335.887 199.418 331.738 187.923 331.738 172.798C331.738 157.673 335.887 146.221 344.184 138.443C352.567 130.578 364.451 126.646 379.835 126.646ZM379.835 148.036C373.699 148.036 369.032 149.895 365.834 153.611C362.636 157.327 361.037 162.34 361.037 168.649V176.946C361.037 183.256 362.636 188.268 365.834 191.985C369.032 195.701 373.699 197.559 379.835 197.559C385.972 197.559 390.639 195.701 393.837 191.985C397.121 188.268 398.763 183.256 398.763 176.946V168.649C398.763 162.34 397.121 157.327 393.837 153.611C390.639 149.895 385.972 148.036 379.835 148.036ZM482.123 128.201C513.324 128.201 528.924 143.067 528.924 172.798C528.924 202.529 513.324 217.395 482.123 217.395H443.49V128.201H482.123ZM472.141 196.004H481.605C493.618 196.004 499.625 189.565 499.625 176.687V168.909C499.625 156.031 493.618 149.592 481.605 149.592H472.141V196.004Z"/>
</mask>
<path d="M187.445 130.535L183.579 140.715L183.579 140.715L187.445 130.535ZM203.651 142.073L195.063 148.769L195.126 148.849L195.19 148.929L203.651 142.073ZM209.744 160.482V171.372H220.634V160.482H209.744ZM182.389 160.482H171.5V171.372H182.389V160.482ZM177.463 151.537L171.156 160.414L171.234 160.47L171.314 160.524L177.463 151.537ZM150.238 153.481L158.033 161.086L158.079 161.039L158.124 160.992L150.238 153.481ZM150.238 192.244L142.353 199.754L142.398 199.802L142.444 199.849L150.238 192.244ZM177.463 194.318L183.448 203.416L183.531 203.362L183.612 203.306L177.463 194.318ZM182.389 185.762H193.279V174.872H182.389V185.762ZM162.165 185.762H151.276V196.652H162.165V185.762ZM162.165 167.612V156.722H151.276V167.612H162.165ZM209.744 167.612H220.634V156.722H209.744V167.612ZM209.744 217.395V228.284H220.634V217.395H209.744ZM194.965 217.395L184.604 220.747L187.042 228.284H194.965V217.395ZM192.113 208.579L202.474 205.227L197.46 189.728L185.055 200.286L192.113 208.579ZM126.903 207.412L119.03 214.935L119.051 214.957L119.072 214.979L126.903 207.412ZM128.329 138.443L135.736 146.426L135.739 146.423L128.329 138.443ZM164.369 137.535C171.827 137.535 178.179 138.664 183.579 140.715L191.312 120.354C183.057 117.219 174.024 115.756 164.369 115.756V137.535ZM183.579 140.715C188.791 142.694 192.465 145.437 195.063 148.769L212.239 135.377C206.885 128.51 199.755 123.561 191.312 120.354L183.579 140.715ZM195.19 148.929C197.484 151.76 198.854 155.387 198.854 160.482H220.634C220.634 151.057 217.942 142.411 212.111 135.217L195.19 148.929ZM209.744 149.592H182.389V171.372H209.744V149.592ZM193.279 160.482C193.279 152.88 189.615 146.656 183.612 142.549L171.314 160.524C171.558 160.691 171.666 160.8 171.692 160.827C171.705 160.841 171.701 160.838 171.685 160.816C171.668 160.794 171.645 160.759 171.619 160.712C171.593 160.664 171.569 160.613 171.548 160.56C171.527 160.507 171.514 160.46 171.505 160.425C171.487 160.351 171.5 160.359 171.5 160.482H193.279ZM183.771 142.659C178.363 138.818 172.094 137.146 165.536 137.146V158.926C168.313 158.926 169.994 159.589 171.156 160.414L183.771 142.659ZM165.536 137.146C156.881 137.146 148.5 139.516 142.353 145.971L158.124 160.992C158.891 160.186 160.708 158.926 165.536 158.926V137.146ZM142.444 145.877C136.421 152.05 134.163 160.197 134.163 168.649H155.943C155.943 163.965 157.141 162 158.033 161.086L142.444 145.877ZM134.163 168.649V176.946H155.943V168.649H134.163ZM134.163 176.946C134.163 185.416 136.427 193.533 142.353 199.754L158.124 184.734C157.135 183.696 155.943 181.614 155.943 176.946H134.163ZM142.444 199.849C148.605 206.164 156.953 208.449 165.536 208.449V186.67C160.637 186.67 158.786 185.411 158.033 184.639L142.444 199.849ZM165.536 208.449C171.926 208.449 178.076 206.95 183.448 203.416L171.478 185.221C170.281 186.008 168.481 186.67 165.536 186.67V208.449ZM183.612 203.306C189.344 199.384 193.279 193.4 193.279 185.762H171.5C171.5 185.762 171.5 185.736 171.506 185.688C171.512 185.639 171.523 185.575 171.543 185.498C171.585 185.336 171.65 185.183 171.72 185.06C171.788 184.942 171.829 184.909 171.786 184.953C171.74 185.001 171.6 185.135 171.314 185.331L183.612 203.306ZM182.389 174.872H162.165V196.652H182.389V174.872ZM173.055 185.762V167.612H151.276V185.762H173.055ZM162.165 178.502H209.744V156.722H162.165V178.502ZM198.854 167.612V217.395H220.634V167.612H198.854ZM209.744 206.505H194.965V228.284H209.744V206.505ZM205.326 214.042L202.474 205.227L181.751 211.931L184.604 220.747L205.326 214.042ZM185.055 200.286C179.326 205.161 171.392 208.06 160.221 208.06V229.84C175.324 229.84 188.651 225.825 199.171 216.872L185.055 200.286ZM160.221 208.06C147.239 208.06 139.431 204.706 134.734 199.845L119.072 214.979C129.241 225.503 143.644 229.84 160.221 229.84V208.06ZM134.776 199.889C129.967 194.856 126.644 186.478 126.644 172.798H104.864C104.864 189.713 108.973 204.411 119.03 214.935L134.776 199.889ZM126.644 172.798C126.644 159.678 130.227 151.537 135.736 146.426L120.922 130.46C109.664 140.906 104.864 155.668 104.864 172.798H126.644ZM135.739 146.423C141.583 140.997 150.593 137.535 164.369 137.535V115.756C147.032 115.756 132.015 120.159 120.919 130.463L135.739 146.423ZM307.494 207.153L300.044 199.211L300.044 199.211L307.494 207.153ZM236.192 207.283L228.7 215.186L228.742 215.226L228.785 215.265L236.192 207.283ZM236.192 138.443L243.64 146.387L243.642 146.385L236.192 138.443ZM257.842 153.611L266.096 160.714L266.096 160.714L257.842 153.611ZM285.844 191.985L277.684 184.774L277.637 184.827L277.59 184.882L285.844 191.985ZM285.844 153.611L277.59 160.714L277.637 160.768L277.684 160.822L285.844 153.611ZM271.843 137.535C285.416 137.535 294.283 140.98 300.044 146.385L314.945 130.501C303.939 120.176 289.038 115.756 271.843 115.756V137.535ZM300.044 146.385C305.611 151.608 309.18 159.794 309.18 172.798H330.96C330.96 155.725 326.145 141.008 314.945 130.501L300.044 146.385ZM309.18 172.798C309.18 185.802 305.611 193.988 300.044 199.211L314.945 215.095C326.145 204.588 330.96 189.871 330.96 172.798H309.18ZM300.044 199.211C294.283 204.616 285.416 208.06 271.843 208.06V229.84C289.038 229.84 303.939 225.42 314.945 215.095L300.044 199.211ZM271.843 208.06C258.24 208.06 249.357 204.643 243.599 199.3L228.785 215.265C239.793 225.479 254.677 229.84 271.843 229.84V208.06ZM243.683 199.379C238.193 194.174 234.636 185.942 234.636 172.798H212.856C212.856 189.903 217.597 204.661 228.7 215.186L243.683 199.379ZM234.636 172.798C234.636 159.646 238.195 151.491 243.64 146.387L228.744 130.498C217.594 140.951 212.856 155.7 212.856 172.798H234.636ZM243.642 146.385C249.403 140.98 258.27 137.535 271.843 137.535V115.756C254.648 115.756 239.747 120.176 228.741 130.501L243.642 146.385ZM271.843 137.146C263.399 137.146 255.357 139.802 249.587 146.508L266.096 160.714C266.722 159.987 268.015 158.926 271.843 158.926V137.146ZM249.587 146.508C244.249 152.712 242.155 160.499 242.155 168.649H263.935C263.935 164.182 265.039 161.943 266.096 160.714L249.587 146.508ZM242.155 168.649V176.946H263.935V168.649H242.155ZM242.155 176.946C242.155 185.097 244.249 192.884 249.587 199.088L266.096 184.882C265.039 183.653 263.935 181.414 263.935 176.946H242.155ZM249.587 199.088C255.357 205.794 263.399 208.449 271.843 208.449V186.67C268.015 186.67 266.722 185.609 266.096 184.882L249.587 199.088ZM271.843 208.449C280.288 208.449 288.329 205.794 294.099 199.088L277.59 184.882C276.964 185.609 275.671 186.67 271.843 186.67V208.449ZM294.004 199.196C299.485 192.994 301.661 185.167 301.661 176.946H279.881C279.881 181.345 278.772 183.543 277.684 184.774L294.004 199.196ZM301.661 176.946V168.649H279.881V176.946H301.661ZM301.661 168.649C301.661 160.429 299.485 152.602 294.004 146.4L277.684 160.822C278.772 162.053 279.881 164.251 279.881 168.649H301.661ZM294.099 146.508C288.329 139.802 280.288 137.146 271.843 137.146V158.926C275.671 158.926 276.964 159.987 277.59 160.714L294.099 146.508ZM415.487 207.153L408.036 199.211L408.036 199.211L415.487 207.153ZM344.184 207.283L336.692 215.186L336.734 215.226L336.777 215.265L344.184 207.283ZM344.184 138.443L351.632 146.387L351.635 146.385L344.184 138.443ZM365.834 153.611L374.089 160.714L374.089 160.714L365.834 153.611ZM393.837 191.985L385.677 184.774L385.629 184.827L385.582 184.882L393.837 191.985ZM393.837 153.611L385.582 160.714L385.629 160.768L385.677 160.822L393.837 153.611ZM379.835 137.535C393.408 137.535 402.275 140.98 408.036 146.385L422.938 130.501C411.932 120.176 397.031 115.756 379.835 115.756V137.535ZM408.036 146.385C413.603 151.608 417.172 159.794 417.172 172.798H438.952C438.952 155.725 434.137 141.008 422.938 130.501L408.036 146.385ZM417.172 172.798C417.172 185.802 413.603 193.988 408.036 199.211L422.938 215.095C434.137 204.588 438.952 189.871 438.952 172.798H417.172ZM408.036 199.211C402.275 204.616 393.408 208.06 379.835 208.06V229.84C397.031 229.84 411.932 225.42 422.938 215.095L408.036 199.211ZM379.835 208.06C366.233 208.06 357.349 204.643 351.591 199.3L336.777 215.265C347.785 225.479 362.67 229.84 379.835 229.84V208.06ZM351.676 199.379C346.185 194.174 342.628 185.942 342.628 172.798H320.849C320.849 189.903 325.589 204.661 336.692 215.186L351.676 199.379ZM342.628 172.798C342.628 159.646 346.188 151.491 351.632 146.387L336.736 130.498C325.586 140.951 320.849 155.7 320.849 172.798H342.628ZM351.635 146.385C357.396 140.98 366.262 137.535 379.835 137.535V115.756C362.64 115.756 347.739 120.176 336.733 130.501L351.635 146.385ZM379.835 137.146C371.391 137.146 363.35 139.802 357.579 146.508L374.089 160.714C374.714 159.987 376.007 158.926 379.835 158.926V137.146ZM357.579 146.508C352.241 152.712 350.148 160.499 350.148 168.649H371.927C371.927 164.182 373.031 161.943 374.089 160.714L357.579 146.508ZM350.148 168.649V176.946H371.927V168.649H350.148ZM350.148 176.946C350.148 185.097 352.241 192.884 357.579 199.088L374.089 184.882C373.031 183.653 371.927 181.414 371.927 176.946H350.148ZM357.579 199.088C363.35 205.794 371.391 208.449 379.835 208.449V186.67C376.007 186.67 374.714 185.609 374.089 184.882L357.579 199.088ZM379.835 208.449C388.28 208.449 396.321 205.794 402.091 199.088L385.582 184.882C384.957 185.609 383.664 186.67 379.835 186.67V208.449ZM401.997 199.196C407.478 192.994 409.653 185.167 409.653 176.946H387.873C387.873 181.345 386.764 183.543 385.677 184.774L401.997 199.196ZM409.653 176.946V168.649H387.873V176.946H409.653ZM409.653 168.649C409.653 160.429 407.478 152.602 401.997 146.4L385.677 160.822C386.764 162.053 387.873 164.251 387.873 168.649H409.653ZM402.091 146.508C396.321 139.802 388.28 137.146 379.835 137.146V158.926C383.664 158.926 384.957 159.987 385.582 160.714L402.091 146.508ZM443.49 217.395H432.6V228.284H443.49V217.395ZM443.49 128.201V117.311H432.6V128.201H443.49ZM472.141 196.004H461.251V206.894H472.141V196.004ZM472.141 149.592V138.702H461.251V149.592H472.141ZM482.123 139.091C496.173 139.091 504.688 142.447 509.711 147.234C514.637 151.928 518.034 159.748 518.034 172.798H539.814C539.814 156.116 535.411 141.639 524.736 131.467C514.16 121.388 499.275 117.311 482.123 117.311V139.091ZM518.034 172.798C518.034 185.847 514.637 193.668 509.711 198.362C504.688 203.149 496.173 206.505 482.123 206.505V228.284C499.275 228.284 514.16 224.207 524.736 214.129C535.411 203.957 539.814 189.48 539.814 172.798H518.034ZM482.123 206.505H443.49V228.284H482.123V206.505ZM454.38 217.395V128.201H432.6V217.395H454.38ZM443.49 139.091H482.123V117.311H443.49V139.091ZM472.141 206.894H481.605V185.114H472.141V206.894ZM481.605 206.894C489.492 206.894 497.354 204.744 503.083 198.603C508.679 192.604 510.515 184.624 510.515 176.687H488.735C488.735 181.628 487.568 183.306 487.157 183.746C486.88 184.044 485.732 185.114 481.605 185.114V206.894ZM510.515 176.687V168.909H488.735V176.687H510.515ZM510.515 168.909C510.515 160.972 508.679 152.992 503.083 146.993C497.354 140.851 489.492 138.702 481.605 138.702V160.482C485.732 160.482 486.88 161.552 487.157 161.85C487.568 162.29 488.735 163.968 488.735 168.909H510.515ZM481.605 138.702H472.141V160.482H481.605V138.702ZM461.251 149.592V196.004H483.031V149.592H461.251Z" fill="white" mask="url(#path-3-outside-1_4138_617)"/>
</g>
<g filter="url(#filter1_d_4138_617)">
<mask id="path-5-outside-2_4138_617" maskUnits="userSpaceOnUse" x="110.92" y="122.395" width="422" height="101" fill="black">
<rect fill="white" x="110.92" y="122.395" width="422" height="101"/>
<path d="M164.369 126.646C172.926 126.646 180.618 127.942 187.445 130.535C194.273 133.128 199.675 136.974 203.651 142.073C207.713 147.086 209.744 153.222 209.744 160.482H182.389C182.389 156.766 180.747 153.784 177.463 151.537C174.179 149.203 170.203 148.036 165.536 148.036C158.795 148.036 153.696 149.851 150.238 153.481C146.781 157.025 145.053 162.081 145.053 168.649V176.946C145.053 183.515 146.781 188.614 150.238 192.244C153.696 195.788 158.795 197.559 165.536 197.559C170.203 197.559 174.179 196.479 177.463 194.318C180.747 192.071 182.389 189.219 182.389 185.762H162.165V167.612H209.744V217.395H194.965L192.113 208.579C183.988 215.493 173.358 218.95 160.221 218.95C145.442 218.95 134.336 215.104 126.903 207.412C119.47 199.634 115.754 188.096 115.754 172.798C115.754 157.673 119.946 146.221 128.329 138.443C136.799 130.578 148.812 126.646 164.369 126.646ZM271.843 126.646C287.227 126.646 299.111 130.578 307.494 138.443C315.878 146.308 320.07 157.759 320.07 172.798C320.07 187.836 315.878 199.288 307.494 207.153C299.111 215.018 287.227 218.95 271.843 218.95C256.459 218.95 244.575 215.061 236.192 207.283C227.895 199.418 223.746 187.923 223.746 172.798C223.746 157.673 227.895 146.221 236.192 138.443C244.575 130.578 256.459 126.646 271.843 126.646ZM271.843 148.036C265.707 148.036 261.04 149.895 257.842 153.611C254.644 157.327 253.045 162.34 253.045 168.649V176.946C253.045 183.256 254.644 188.268 257.842 191.985C261.04 195.701 265.707 197.559 271.843 197.559C277.979 197.559 282.647 195.701 285.844 191.985C289.129 188.268 290.771 183.256 290.771 176.946V168.649C290.771 162.34 289.129 157.327 285.844 153.611C282.647 149.895 277.979 148.036 271.843 148.036ZM379.835 126.646C395.22 126.646 407.103 130.578 415.487 138.443C423.87 146.308 428.062 157.759 428.062 172.798C428.062 187.836 423.87 199.288 415.487 207.153C407.103 215.018 395.22 218.95 379.835 218.95C364.451 218.95 352.567 215.061 344.184 207.283C335.887 199.418 331.738 187.923 331.738 172.798C331.738 157.673 335.887 146.221 344.184 138.443C352.567 130.578 364.451 126.646 379.835 126.646ZM379.835 148.036C373.699 148.036 369.032 149.895 365.834 153.611C362.636 157.327 361.037 162.34 361.037 168.649V176.946C361.037 183.256 362.636 188.268 365.834 191.985C369.032 195.701 373.699 197.559 379.835 197.559C385.972 197.559 390.639 195.701 393.837 191.985C397.121 188.268 398.763 183.256 398.763 176.946V168.649C398.763 162.34 397.121 157.327 393.837 153.611C390.639 149.895 385.972 148.036 379.835 148.036ZM482.123 128.201C513.324 128.201 528.924 143.067 528.924 172.798C528.924 202.529 513.324 217.395 482.123 217.395H443.49V128.201H482.123ZM472.141 196.004H481.605C493.618 196.004 499.625 189.565 499.625 176.687V168.909C499.625 156.031 493.618 149.592 481.605 149.592H472.141V196.004Z"/>
</mask>
<path d="M164.369 126.646C172.926 126.646 180.618 127.942 187.445 130.535C194.273 133.128 199.675 136.974 203.651 142.073C207.713 147.086 209.744 153.222 209.744 160.482H182.389C182.389 156.766 180.747 153.784 177.463 151.537C174.179 149.203 170.203 148.036 165.536 148.036C158.795 148.036 153.696 149.851 150.238 153.481C146.781 157.025 145.053 162.081 145.053 168.649V176.946C145.053 183.515 146.781 188.614 150.238 192.244C153.696 195.788 158.795 197.559 165.536 197.559C170.203 197.559 174.179 196.479 177.463 194.318C180.747 192.071 182.389 189.219 182.389 185.762H162.165V167.612H209.744V217.395H194.965L192.113 208.579C183.988 215.493 173.358 218.95 160.221 218.95C145.442 218.95 134.336 215.104 126.903 207.412C119.47 199.634 115.754 188.096 115.754 172.798C115.754 157.673 119.946 146.221 128.329 138.443C136.799 130.578 148.812 126.646 164.369 126.646ZM271.843 126.646C287.227 126.646 299.111 130.578 307.494 138.443C315.878 146.308 320.07 157.759 320.07 172.798C320.07 187.836 315.878 199.288 307.494 207.153C299.111 215.018 287.227 218.95 271.843 218.95C256.459 218.95 244.575 215.061 236.192 207.283C227.895 199.418 223.746 187.923 223.746 172.798C223.746 157.673 227.895 146.221 236.192 138.443C244.575 130.578 256.459 126.646 271.843 126.646ZM271.843 148.036C265.707 148.036 261.04 149.895 257.842 153.611C254.644 157.327 253.045 162.34 253.045 168.649V176.946C253.045 183.256 254.644 188.268 257.842 191.985C261.04 195.701 265.707 197.559 271.843 197.559C277.979 197.559 282.647 195.701 285.844 191.985C289.129 188.268 290.771 183.256 290.771 176.946V168.649C290.771 162.34 289.129 157.327 285.844 153.611C282.647 149.895 277.979 148.036 271.843 148.036ZM379.835 126.646C395.22 126.646 407.103 130.578 415.487 138.443C423.87 146.308 428.062 157.759 428.062 172.798C428.062 187.836 423.87 199.288 415.487 207.153C407.103 215.018 395.22 218.95 379.835 218.95C364.451 218.95 352.567 215.061 344.184 207.283C335.887 199.418 331.738 187.923 331.738 172.798C331.738 157.673 335.887 146.221 344.184 138.443C352.567 130.578 364.451 126.646 379.835 126.646ZM379.835 148.036C373.699 148.036 369.032 149.895 365.834 153.611C362.636 157.327 361.037 162.34 361.037 168.649V176.946C361.037 183.256 362.636 188.268 365.834 191.985C369.032 195.701 373.699 197.559 379.835 197.559C385.972 197.559 390.639 195.701 393.837 191.985C397.121 188.268 398.763 183.256 398.763 176.946V168.649C398.763 162.34 397.121 157.327 393.837 153.611C390.639 149.895 385.972 148.036 379.835 148.036ZM482.123 128.201C513.324 128.201 528.924 143.067 528.924 172.798C528.924 202.529 513.324 217.395 482.123 217.395H443.49V128.201H482.123ZM472.141 196.004H481.605C493.618 196.004 499.625 189.565 499.625 176.687V168.909C499.625 156.031 493.618 149.592 481.605 149.592H472.141V196.004Z" fill="white"/>
<path d="M187.445 130.535L186.065 134.171L186.065 134.171L187.445 130.535ZM203.651 142.073L200.583 144.464L200.606 144.493L200.629 144.521L203.651 142.073ZM209.744 160.482V164.371H213.633V160.482H209.744ZM182.389 160.482H178.5V164.371H182.389V160.482ZM177.463 151.537L175.21 154.707L175.238 154.727L175.267 154.747L177.463 151.537ZM150.238 153.481L153.022 156.197L153.039 156.18L153.055 156.164L150.238 153.481ZM150.238 192.244L147.422 194.926L147.438 194.943L147.455 194.96L150.238 192.244ZM177.463 194.318L179.601 197.567L179.63 197.548L179.659 197.528L177.463 194.318ZM182.389 185.762H186.279V181.873H182.389V185.762ZM162.165 185.762H158.276V189.651H162.165V185.762ZM162.165 167.612V163.723H158.276V167.612H162.165ZM209.744 167.612H213.633V163.723H209.744V167.612ZM209.744 217.395V221.284H213.633V217.395H209.744ZM194.965 217.395L191.264 218.592L192.135 221.284H194.965V217.395ZM192.113 208.579L195.813 207.382L194.022 201.847L189.592 205.617L192.113 208.579ZM126.903 207.412L124.091 210.099L124.099 210.107L124.106 210.115L126.903 207.412ZM128.329 138.443L130.974 141.294L130.975 141.293L128.329 138.443ZM164.369 130.535C172.533 130.535 179.747 131.771 186.065 134.171L188.826 126.899C181.489 124.112 173.318 122.756 164.369 122.756V130.535ZM186.065 134.171C192.315 136.544 197.1 139.996 200.583 144.464L206.718 139.682C202.25 133.951 196.231 129.711 188.826 126.899L186.065 134.171ZM200.629 144.521C204.06 148.755 205.855 153.995 205.855 160.482H213.633C213.633 152.449 211.366 145.416 206.672 139.624L200.629 144.521ZM209.744 156.593H182.389V164.371H209.744V156.593ZM186.279 160.482C186.279 155.378 183.914 151.238 179.659 148.327L175.267 154.747C177.58 156.329 178.5 158.153 178.5 160.482H186.279ZM179.716 148.366C175.673 145.494 170.878 144.147 165.536 144.147V151.926C169.528 151.926 172.684 152.912 175.21 154.707L179.716 148.366ZM165.536 144.147C158.111 144.147 151.84 146.16 147.422 150.799L153.055 156.164C155.551 153.542 159.478 151.926 165.536 151.926V144.147ZM147.455 150.765C143.081 155.248 141.164 161.408 141.164 168.649H148.942C148.942 162.754 150.481 158.802 153.022 156.197L147.455 150.765ZM141.164 168.649V176.946H148.942V168.649H141.164ZM141.164 176.946C141.164 184.194 143.083 190.371 147.422 194.926L153.055 189.562C150.479 186.858 148.942 182.836 148.942 176.946H141.164ZM147.455 194.96C151.877 199.493 158.137 201.449 165.536 201.449V193.67C159.453 193.67 155.514 192.082 153.022 189.528L147.455 194.96ZM165.536 201.449C170.818 201.449 175.571 200.219 179.601 197.567L175.326 191.069C172.787 192.739 169.588 193.67 165.536 193.67V201.449ZM179.659 197.528C183.818 194.683 186.279 190.712 186.279 185.762H178.5C178.5 187.726 177.677 189.459 175.267 191.109L179.659 197.528ZM182.389 181.873H162.165V189.651H182.389V181.873ZM166.055 185.762V167.612H158.276V185.762H166.055ZM162.165 171.501H209.744V163.723H162.165V171.501ZM205.855 167.612V217.395H213.633V167.612H205.855ZM209.744 213.505H194.965V221.284H209.744V213.505ZM198.665 216.197L195.813 207.382L188.412 209.776L191.264 218.592L198.665 216.197ZM189.592 205.617C182.323 211.803 172.656 215.061 160.221 215.061V222.839C174.06 222.839 185.654 219.183 194.633 211.541L189.592 205.617ZM160.221 215.061C146.084 215.061 136.155 211.39 129.7 204.71L124.106 210.115C132.516 218.818 144.8 222.839 160.221 222.839V215.061ZM129.715 204.725C123.219 197.927 119.643 187.518 119.643 172.798H111.865C111.865 188.673 115.721 201.34 124.091 210.099L129.715 204.725ZM119.643 172.798C119.643 158.389 123.617 148.12 130.974 141.294L125.684 135.592C116.274 144.323 111.865 156.957 111.865 172.798H119.643ZM130.975 141.293C138.507 134.299 149.448 130.535 164.369 130.535V122.756C148.176 122.756 135.09 126.857 125.683 135.593L130.975 141.293ZM307.494 207.153L304.833 204.316L304.833 204.316L307.494 207.153ZM236.192 207.283L233.516 210.105L233.531 210.119L233.546 210.134L236.192 207.283ZM236.192 138.443L238.852 141.28L238.853 141.279L236.192 138.443ZM257.842 153.611L260.79 156.148L260.79 156.148L257.842 153.611ZM285.844 191.985L282.93 189.409L282.913 189.429L282.896 189.448L285.844 191.985ZM285.844 153.611L282.896 156.148L282.913 156.167L282.93 156.186L285.844 153.611ZM271.843 130.535C286.58 130.535 297.387 134.293 304.833 141.279L310.155 135.606C300.835 126.863 287.874 122.756 271.843 122.756V130.535ZM304.833 141.279C312.211 148.201 316.18 158.486 316.18 172.798H323.959C323.959 157.033 319.545 144.415 310.155 135.606L304.833 141.279ZM316.18 172.798C316.18 187.11 312.211 197.395 304.833 204.316L310.155 209.989C319.545 201.181 323.959 188.563 323.959 172.798H316.18ZM304.833 204.316C297.387 211.303 286.58 215.061 271.843 215.061V222.839C287.874 222.839 300.835 218.733 310.155 209.989L304.833 204.316ZM271.843 215.061C257.095 215.061 246.283 211.34 238.837 204.431L233.546 210.134C242.867 218.782 255.823 222.839 271.843 222.839V215.061ZM238.867 204.46C231.573 197.545 227.635 187.215 227.635 172.798H219.857C219.857 188.63 224.217 201.29 233.516 210.105L238.867 204.46ZM227.635 172.798C227.635 158.378 231.573 148.104 238.852 141.28L233.532 135.606C224.216 144.339 219.857 156.969 219.857 172.798H227.635ZM238.853 141.279C246.3 134.293 257.106 130.535 271.843 130.535V122.756C255.812 122.756 242.851 126.863 233.531 135.606L238.853 141.279ZM271.843 144.147C264.882 144.147 259.01 146.29 254.894 151.074L260.79 156.148C263.069 153.499 266.531 151.926 271.843 151.926V144.147ZM254.894 151.074C250.931 155.679 249.156 161.682 249.156 168.649H256.934C256.934 162.998 258.356 158.976 260.79 156.148L254.894 151.074ZM249.156 168.649V176.946H256.934V168.649H249.156ZM249.156 176.946C249.156 183.913 250.931 189.917 254.894 194.522L260.79 189.448C258.356 186.62 256.934 182.598 256.934 176.946H249.156ZM254.894 194.522C259.01 199.306 264.882 201.449 271.843 201.449V193.67C266.531 193.67 263.069 192.097 260.79 189.448L254.894 194.522ZM271.843 201.449C278.804 201.449 284.676 199.306 288.792 194.522L282.896 189.448C280.617 192.097 277.155 193.67 271.843 193.67V201.449ZM288.759 194.56C292.827 189.956 294.66 183.938 294.66 176.946H286.881C286.881 182.573 285.43 186.581 282.93 189.409L288.759 194.56ZM294.66 176.946V168.649H286.881V176.946H294.66ZM294.66 168.649C294.66 161.658 292.827 155.64 288.759 151.036L282.93 156.186C285.43 159.015 286.881 163.023 286.881 168.649H294.66ZM288.792 151.074C284.676 146.29 278.804 144.147 271.843 144.147V151.926C277.155 151.926 280.617 153.499 282.896 156.148L288.792 151.074ZM415.487 207.153L412.826 204.316L412.826 204.316L415.487 207.153ZM344.184 207.283L341.508 210.105L341.523 210.119L341.539 210.134L344.184 207.283ZM344.184 138.443L346.844 141.28L346.845 141.279L344.184 138.443ZM365.834 153.611L368.782 156.148L368.782 156.148L365.834 153.611ZM393.837 191.985L390.922 189.409L390.905 189.429L390.889 189.448L393.837 191.985ZM393.837 153.611L390.889 156.148L390.905 156.167L390.922 156.186L393.837 153.611ZM379.835 130.535C394.573 130.535 405.379 134.293 412.826 141.279L418.148 135.606C408.828 126.863 395.866 122.756 379.835 122.756V130.535ZM412.826 141.279C420.204 148.201 424.173 158.486 424.173 172.798H431.951C431.951 157.033 427.537 144.415 418.148 135.606L412.826 141.279ZM424.173 172.798C424.173 187.11 420.204 197.395 412.826 204.316L418.148 209.989C427.537 201.181 431.951 188.563 431.951 172.798H424.173ZM412.826 204.316C405.379 211.303 394.573 215.061 379.835 215.061V222.839C395.866 222.839 408.828 218.733 418.148 209.989L412.826 204.316ZM379.835 215.061C365.088 215.061 354.275 211.34 346.829 204.431L341.539 210.134C350.86 218.782 363.815 222.839 379.835 222.839V215.061ZM346.86 204.46C339.565 197.545 335.628 187.215 335.628 172.798H327.849C327.849 188.63 332.209 201.29 341.508 210.105L346.86 204.46ZM335.628 172.798C335.628 158.378 339.566 148.104 346.844 141.28L341.524 135.606C332.208 144.339 327.849 156.969 327.849 172.798H335.628ZM346.845 141.279C354.292 134.293 365.098 130.535 379.835 130.535V122.756C363.804 122.756 350.843 126.863 341.523 135.606L346.845 141.279ZM379.835 144.147C372.875 144.147 367.003 146.29 362.886 151.074L368.782 156.148C371.061 153.499 374.523 151.926 379.835 151.926V144.147ZM362.886 151.074C358.924 155.679 357.148 161.682 357.148 168.649H364.927C364.927 162.998 366.349 158.976 368.782 156.148L362.886 151.074ZM357.148 168.649V176.946H364.927V168.649H357.148ZM357.148 176.946C357.148 183.913 358.924 189.917 362.886 194.522L368.782 189.448C366.349 186.62 364.927 182.598 364.927 176.946H357.148ZM362.886 194.522C367.003 199.306 372.875 201.449 379.835 201.449V193.67C374.523 193.67 371.061 192.097 368.782 189.448L362.886 194.522ZM379.835 201.449C386.796 201.449 392.668 199.306 396.785 194.522L390.889 189.448C388.609 192.097 385.147 193.67 379.835 193.67V201.449ZM396.751 194.56C400.82 189.956 402.652 183.938 402.652 176.946H394.874C394.874 182.573 393.422 186.581 390.922 189.409L396.751 194.56ZM402.652 176.946V168.649H394.874V176.946H402.652ZM402.652 168.649C402.652 161.658 400.82 155.64 396.751 151.036L390.922 156.186C393.422 159.015 394.874 163.023 394.874 168.649H402.652ZM396.785 151.074C392.668 146.29 386.796 144.147 379.835 144.147V151.926C385.147 151.926 388.609 153.499 390.889 156.148L396.785 151.074ZM443.49 217.395H439.601V221.284H443.49V217.395ZM443.49 128.201V124.312H439.601V128.201H443.49ZM472.141 196.004H468.252V199.893H472.141V196.004ZM472.141 149.592V145.703H468.252V149.592H472.141ZM482.123 132.09C497.17 132.09 507.732 135.678 514.541 142.166C521.314 148.62 525.035 158.581 525.035 172.798H532.813C532.813 157.284 528.734 144.946 519.907 136.535C511.115 128.157 498.278 124.312 482.123 124.312V132.09ZM525.035 172.798C525.035 187.015 521.314 196.975 514.541 203.43C507.732 209.918 497.17 213.505 482.123 213.505V221.284C498.278 221.284 511.115 217.439 519.907 209.061C528.734 200.65 532.813 188.312 532.813 172.798H525.035ZM482.123 213.505H443.49V221.284H482.123V213.505ZM447.38 217.395V128.201H439.601V217.395H447.38ZM443.49 132.09H482.123V124.312H443.49V132.09ZM472.141 199.893H481.605V192.114H472.141V199.893ZM481.605 199.893C488.283 199.893 493.987 198.091 497.964 193.828C501.893 189.615 503.514 183.661 503.514 176.687H495.736C495.736 182.591 494.353 186.295 492.276 188.522C490.246 190.697 486.94 192.114 481.605 192.114V199.893ZM503.514 176.687V168.909H495.736V176.687H503.514ZM503.514 168.909C503.514 161.935 501.893 155.98 497.964 151.768C493.987 147.505 488.283 145.703 481.605 145.703V153.481C486.94 153.481 490.246 154.898 492.276 157.074C494.353 159.301 495.736 163.005 495.736 168.909H503.514ZM481.605 145.703H472.141V153.481H481.605V145.703ZM468.252 149.592V196.004H476.03V149.592H468.252Z" fill="#D84306" mask="url(#path-5-outside-2_4138_617)"/>
<path d="M187.445 130.535L186.065 134.171L186.065 134.171L187.445 130.535ZM203.651 142.073L200.583 144.464L200.606 144.493L200.629 144.521L203.651 142.073ZM209.744 160.482V164.371H213.633V160.482H209.744ZM182.389 160.482H178.5V164.371H182.389V160.482ZM177.463 151.537L175.21 154.707L175.238 154.727L175.267 154.747L177.463 151.537ZM150.238 153.481L153.022 156.197L153.039 156.18L153.055 156.164L150.238 153.481ZM150.238 192.244L147.422 194.926L147.438 194.943L147.455 194.96L150.238 192.244ZM177.463 194.318L179.601 197.567L179.63 197.548L179.659 197.528L177.463 194.318ZM182.389 185.762H186.279V181.873H182.389V185.762ZM162.165 185.762H158.276V189.651H162.165V185.762ZM162.165 167.612V163.723H158.276V167.612H162.165ZM209.744 167.612H213.633V163.723H209.744V167.612ZM209.744 217.395V221.284H213.633V217.395H209.744ZM194.965 217.395L191.264 218.592L192.135 221.284H194.965V217.395ZM192.113 208.579L195.813 207.382L194.022 201.847L189.592 205.617L192.113 208.579ZM126.903 207.412L124.091 210.099L124.099 210.107L124.106 210.115L126.903 207.412ZM128.329 138.443L130.974 141.294L130.975 141.293L128.329 138.443ZM164.369 130.535C172.533 130.535 179.747 131.771 186.065 134.171L188.826 126.899C181.489 124.112 173.318 122.756 164.369 122.756V130.535ZM186.065 134.171C192.315 136.544 197.1 139.996 200.583 144.464L206.718 139.682C202.25 133.951 196.231 129.711 188.826 126.899L186.065 134.171ZM200.629 144.521C204.06 148.755 205.855 153.995 205.855 160.482H213.633C213.633 152.449 211.366 145.416 206.672 139.624L200.629 144.521ZM209.744 156.593H182.389V164.371H209.744V156.593ZM186.279 160.482C186.279 155.378 183.914 151.238 179.659 148.327L175.267 154.747C177.58 156.329 178.5 158.153 178.5 160.482H186.279ZM179.716 148.366C175.673 145.494 170.878 144.147 165.536 144.147V151.926C169.528 151.926 172.684 152.912 175.21 154.707L179.716 148.366ZM165.536 144.147C158.111 144.147 151.84 146.16 147.422 150.799L153.055 156.164C155.551 153.542 159.478 151.926 165.536 151.926V144.147ZM147.455 150.765C143.081 155.248 141.164 161.408 141.164 168.649H148.942C148.942 162.754 150.481 158.802 153.022 156.197L147.455 150.765ZM141.164 168.649V176.946H148.942V168.649H141.164ZM141.164 176.946C141.164 184.194 143.083 190.371 147.422 194.926L153.055 189.562C150.479 186.858 148.942 182.836 148.942 176.946H141.164ZM147.455 194.96C151.877 199.493 158.137 201.449 165.536 201.449V193.67C159.453 193.67 155.514 192.082 153.022 189.528L147.455 194.96ZM165.536 201.449C170.818 201.449 175.571 200.219 179.601 197.567L175.326 191.069C172.787 192.739 169.588 193.67 165.536 193.67V201.449ZM179.659 197.528C183.818 194.683 186.279 190.712 186.279 185.762H178.5C178.5 187.726 177.677 189.459 175.267 191.109L179.659 197.528ZM182.389 181.873H162.165V189.651H182.389V181.873ZM166.055 185.762V167.612H158.276V185.762H166.055ZM162.165 171.501H209.744V163.723H162.165V171.501ZM205.855 167.612V217.395H213.633V167.612H205.855ZM209.744 213.505H194.965V221.284H209.744V213.505ZM198.665 216.197L195.813 207.382L188.412 209.776L191.264 218.592L198.665 216.197ZM189.592 205.617C182.323 211.803 172.656 215.061 160.221 215.061V222.839C174.06 222.839 185.654 219.183 194.633 211.541L189.592 205.617ZM160.221 215.061C146.084 215.061 136.155 211.39 129.7 204.71L124.106 210.115C132.516 218.818 144.8 222.839 160.221 222.839V215.061ZM129.715 204.725C123.219 197.927 119.643 187.518 119.643 172.798H111.865C111.865 188.673 115.721 201.34 124.091 210.099L129.715 204.725ZM119.643 172.798C119.643 158.389 123.617 148.12 130.974 141.294L125.684 135.592C116.274 144.323 111.865 156.957 111.865 172.798H119.643ZM130.975 141.293C138.507 134.299 149.448 130.535 164.369 130.535V122.756C148.176 122.756 135.09 126.857 125.683 135.593L130.975 141.293ZM307.494 207.153L304.833 204.316L304.833 204.316L307.494 207.153ZM236.192 207.283L233.516 210.105L233.531 210.119L233.546 210.134L236.192 207.283ZM236.192 138.443L238.852 141.28L238.853 141.279L236.192 138.443ZM257.842 153.611L260.79 156.148L260.79 156.148L257.842 153.611ZM285.844 191.985L282.93 189.409L282.913 189.429L282.896 189.448L285.844 191.985ZM285.844 153.611L282.896 156.148L282.913 156.167L282.93 156.186L285.844 153.611ZM271.843 130.535C286.58 130.535 297.387 134.293 304.833 141.279L310.155 135.606C300.835 126.863 287.874 122.756 271.843 122.756V130.535ZM304.833 141.279C312.211 148.201 316.18 158.486 316.18 172.798H323.959C323.959 157.033 319.545 144.415 310.155 135.606L304.833 141.279ZM316.18 172.798C316.18 187.11 312.211 197.395 304.833 204.316L310.155 209.989C319.545 201.181 323.959 188.563 323.959 172.798H316.18ZM304.833 204.316C297.387 211.303 286.58 215.061 271.843 215.061V222.839C287.874 222.839 300.835 218.733 310.155 209.989L304.833 204.316ZM271.843 215.061C257.095 215.061 246.283 211.34 238.837 204.431L233.546 210.134C242.867 218.782 255.823 222.839 271.843 222.839V215.061ZM238.867 204.46C231.573 197.545 227.635 187.215 227.635 172.798H219.857C219.857 188.63 224.217 201.29 233.516 210.105L238.867 204.46ZM227.635 172.798C227.635 158.378 231.573 148.104 238.852 141.28L233.532 135.606C224.216 144.339 219.857 156.969 219.857 172.798H227.635ZM238.853 141.279C246.3 134.293 257.106 130.535 271.843 130.535V122.756C255.812 122.756 242.851 126.863 233.531 135.606L238.853 141.279ZM271.843 144.147C264.882 144.147 259.01 146.29 254.894 151.074L260.79 156.148C263.069 153.499 266.531 151.926 271.843 151.926V144.147ZM254.894 151.074C250.931 155.679 249.156 161.682 249.156 168.649H256.934C256.934 162.998 258.356 158.976 260.79 156.148L254.894 151.074ZM249.156 168.649V176.946H256.934V168.649H249.156ZM249.156 176.946C249.156 183.913 250.931 189.917 254.894 194.522L260.79 189.448C258.356 186.62 256.934 182.598 256.934 176.946H249.156ZM254.894 194.522C259.01 199.306 264.882 201.449 271.843 201.449V193.67C266.531 193.67 263.069 192.097 260.79 189.448L254.894 194.522ZM271.843 201.449C278.804 201.449 284.676 199.306 288.792 194.522L282.896 189.448C280.617 192.097 277.155 193.67 271.843 193.67V201.449ZM288.759 194.56C292.827 189.956 294.66 183.938 294.66 176.946H286.881C286.881 182.573 285.43 186.581 282.93 189.409L288.759 194.56ZM294.66 176.946V168.649H286.881V176.946H294.66ZM294.66 168.649C294.66 161.658 292.827 155.64 288.759 151.036L282.93 156.186C285.43 159.015 286.881 163.023 286.881 168.649H294.66ZM288.792 151.074C284.676 146.29 278.804 144.147 271.843 144.147V151.926C277.155 151.926 280.617 153.499 282.896 156.148L288.792 151.074ZM415.487 207.153L412.826 204.316L412.826 204.316L415.487 207.153ZM344.184 207.283L341.508 210.105L341.523 210.119L341.539 210.134L344.184 207.283ZM344.184 138.443L346.844 141.28L346.845 141.279L344.184 138.443ZM365.834 153.611L368.782 156.148L368.782 156.148L365.834 153.611ZM393.837 191.985L390.922 189.409L390.905 189.429L390.889 189.448L393.837 191.985ZM393.837 153.611L390.889 156.148L390.905 156.167L390.922 156.186L393.837 153.611ZM379.835 130.535C394.573 130.535 405.379 134.293 412.826 141.279L418.148 135.606C408.828 126.863 395.866 122.756 379.835 122.756V130.535ZM412.826 141.279C420.204 148.201 424.173 158.486 424.173 172.798H431.951C431.951 157.033 427.537 144.415 418.148 135.606L412.826 141.279ZM424.173 172.798C424.173 187.11 420.204 197.395 412.826 204.316L418.148 209.989C427.537 201.181 431.951 188.563 431.951 172.798H424.173ZM412.826 204.316C405.379 211.303 394.573 215.061 379.835 215.061V222.839C395.866 222.839 408.828 218.733 418.148 209.989L412.826 204.316ZM379.835 215.061C365.088 215.061 354.275 211.34 346.829 204.431L341.539 210.134C350.86 218.782 363.815 222.839 379.835 222.839V215.061ZM346.86 204.46C339.565 197.545 335.628 187.215 335.628 172.798H327.849C327.849 188.63 332.209 201.29 341.508 210.105L346.86 204.46ZM335.628 172.798C335.628 158.378 339.566 148.104 346.844 141.28L341.524 135.606C332.208 144.339 327.849 156.969 327.849 172.798H335.628ZM346.845 141.279C354.292 134.293 365.098 130.535 379.835 130.535V122.756C363.804 122.756 350.843 126.863 341.523 135.606L346.845 141.279ZM379.835 144.147C372.875 144.147 367.003 146.29 362.886 151.074L368.782 156.148C371.061 153.499 374.523 151.926 379.835 151.926V144.147ZM362.886 151.074C358.924 155.679 357.148 161.682 357.148 168.649H364.927C364.927 162.998 366.349 158.976 368.782 156.148L362.886 151.074ZM357.148 168.649V176.946H364.927V168.649H357.148ZM357.148 176.946C357.148 183.913 358.924 189.917 362.886 194.522L368.782 189.448C366.349 186.62 364.927 182.598 364.927 176.946H357.148ZM362.886 194.522C367.003 199.306 372.875 201.449 379.835 201.449V193.67C374.523 193.67 371.061 192.097 368.782 189.448L362.886 194.522ZM379.835 201.449C386.796 201.449 392.668 199.306 396.785 194.522L390.889 189.448C388.609 192.097 385.147 193.67 379.835 193.67V201.449ZM396.751 194.56C400.82 189.956 402.652 183.938 402.652 176.946H394.874C394.874 182.573 393.422 186.581 390.922 189.409L396.751 194.56ZM402.652 176.946V168.649H394.874V176.946H402.652ZM402.652 168.649C402.652 161.658 400.82 155.64 396.751 151.036L390.922 156.186C393.422 159.015 394.874 163.023 394.874 168.649H402.652ZM396.785 151.074C392.668 146.29 386.796 144.147 379.835 144.147V151.926C385.147 151.926 388.609 153.499 390.889 156.148L396.785 151.074ZM443.49 217.395H439.601V221.284H443.49V217.395ZM443.49 128.201V124.312H439.601V128.201H443.49ZM472.141 196.004H468.252V199.893H472.141V196.004ZM472.141 149.592V145.703H468.252V149.592H472.141ZM482.123 132.09C497.17 132.09 507.732 135.678 514.541 142.166C521.314 148.62 525.035 158.581 525.035 172.798H532.813C532.813 157.284 528.734 144.946 519.907 136.535C511.115 128.157 498.278 124.312 482.123 124.312V132.09ZM525.035 172.798C525.035 187.015 521.314 196.975 514.541 203.43C507.732 209.918 497.17 213.505 482.123 213.505V221.284C498.278 221.284 511.115 217.439 519.907 209.061C528.734 200.65 532.813 188.312 532.813 172.798H525.035ZM482.123 213.505H443.49V221.284H482.123V213.505ZM447.38 217.395V128.201H439.601V217.395H447.38ZM443.49 132.09H482.123V124.312H443.49V132.09ZM472.141 199.893H481.605V192.114H472.141V199.893ZM481.605 199.893C488.283 199.893 493.987 198.091 497.964 193.828C501.893 189.615 503.514 183.661 503.514 176.687H495.736C495.736 182.591 494.353 186.295 492.276 188.522C490.246 190.697 486.94 192.114 481.605 192.114V199.893ZM503.514 176.687V168.909H495.736V176.687H503.514ZM503.514 168.909C503.514 161.935 501.893 155.98 497.964 151.768C493.987 147.505 488.283 145.703 481.605 145.703V153.481C486.94 153.481 490.246 154.898 492.276 157.074C494.353 159.301 495.736 163.005 495.736 168.909H503.514ZM481.605 145.703H472.141V153.481H481.605V145.703ZM468.252 149.592V196.004H476.03V149.592H468.252Z" fill="black" fill-opacity="0.2" mask="url(#path-5-outside-2_4138_617)"/>
</g>
<g filter="url(#filter2_d_4138_617)">
<mask id="path-7-outside-3_4138_617" maskUnits="userSpaceOnUse" x="274.381" y="336.531" width="307" height="112" fill="black">
<rect fill="white" x="274.381" y="336.531" width="307" height="112"/>
<path d="M324.607 348.338C355.808 348.338 371.408 363.204 371.408 392.935C371.408 422.666 355.808 437.531 324.607 437.531H285.974V348.338H324.607ZM314.625 416.14H324.089C336.102 416.14 342.109 409.702 342.109 396.824V389.045C342.109 376.168 336.102 369.729 324.089 369.729H314.625V416.14ZM441.071 437.531L437.311 424.956H406.068L402.308 437.531H373.009L405.549 348.338H438.867L471.407 437.531H441.071ZM412.031 404.991H431.348L422.014 373.229H421.495L412.031 404.991ZM526.551 437.531H497.901V402.917L462.508 348.338H495.437L512.55 378.026H513.069L530.181 348.338H561.425L526.551 402.917V437.531Z"/>
</mask>
<path d="M285.974 437.531H275.084V448.421H285.974V437.531ZM285.974 348.338V337.448H275.084V348.338H285.974ZM314.625 416.14H303.735V427.03H314.625V416.14ZM314.625 369.729V358.839H303.735V369.729H314.625ZM324.607 359.228C338.657 359.228 347.172 362.584 352.195 367.371C357.121 372.064 360.518 379.885 360.518 392.935H382.298C382.298 376.253 377.895 361.775 367.22 351.603C356.644 341.525 341.759 337.448 324.607 337.448V359.228ZM360.518 392.935C360.518 405.984 357.121 413.805 352.195 418.498C347.172 423.286 338.657 426.641 324.607 426.641V448.421C341.759 448.421 356.644 444.344 367.22 434.266C377.895 424.094 382.298 409.616 382.298 392.935H360.518ZM324.607 426.641H285.974V448.421H324.607V426.641ZM296.864 437.531V348.338H275.084V437.531H296.864ZM285.974 359.228H324.607V337.448H285.974V359.228ZM314.625 427.03H324.089V405.251H314.625V427.03ZM324.089 427.03C331.976 427.03 339.838 424.881 345.567 418.74C351.163 412.741 352.999 404.76 352.999 396.824H331.219C331.219 401.765 330.052 403.443 329.641 403.883C329.364 404.18 328.216 405.251 324.089 405.251V427.03ZM352.999 396.824V389.045H331.219V396.824H352.999ZM352.999 389.045C352.999 381.109 351.163 373.128 345.567 367.129C339.838 360.988 331.976 358.839 324.089 358.839V380.619C328.216 380.619 329.364 381.689 329.641 381.986C330.052 382.426 331.219 384.104 331.219 389.045H352.999ZM324.089 358.839H314.625V380.619H324.089V358.839ZM303.735 369.729V416.14H325.515V369.729H303.735ZM441.071 437.531L430.637 440.651L432.961 448.421H441.071V437.531ZM437.311 424.956L447.745 421.837L445.422 414.066H437.311V424.956ZM406.068 424.956V414.066H397.957L395.634 421.837L406.068 424.956ZM402.308 437.531V448.421H410.419L412.742 440.651L402.308 437.531ZM373.009 437.531L362.779 433.799L357.444 448.421H373.009V437.531ZM405.549 348.338V337.448H397.93L395.319 344.606L405.549 348.338ZM438.867 348.338L449.097 344.606L446.486 337.448H438.867V348.338ZM471.407 437.531V448.421H486.972L481.637 433.799L471.407 437.531ZM412.031 404.991L401.595 401.882L397.424 415.881H412.031V404.991ZM431.348 404.991V415.881H445.899L441.796 401.921L431.348 404.991ZM422.014 373.229L432.462 370.159L430.164 362.339H422.014V373.229ZM421.495 373.229V362.339H413.377L411.059 370.119L421.495 373.229ZM451.505 434.412L447.745 421.837L426.878 428.075L430.637 440.651L451.505 434.412ZM437.311 414.066H406.068V435.846H437.311V414.066ZM395.634 421.837L391.875 434.412L412.742 440.651L416.501 428.075L395.634 421.837ZM402.308 426.641H373.009V448.421H402.308V426.641ZM383.24 441.264L415.78 352.07L395.319 344.606L362.779 433.799L383.24 441.264ZM405.549 359.228H438.867V337.448H405.549V359.228ZM428.637 352.07L461.177 441.264L481.637 433.799L449.097 344.606L428.637 352.07ZM471.407 426.641H441.071V448.421H471.407V426.641ZM412.031 415.881H431.348V394.101H412.031V415.881ZM441.796 401.921L432.462 370.159L411.566 376.3L420.9 408.062L441.796 401.921ZM422.014 362.339H421.495V384.119H422.014V362.339ZM411.059 370.119L401.595 401.882L422.468 408.101L431.932 376.339L411.059 370.119ZM526.551 437.531V448.421H537.441V437.531H526.551ZM497.901 437.531H487.011V448.421H497.901V437.531ZM497.901 402.917H508.79V399.695L507.038 396.992L497.901 402.917ZM462.508 348.338V337.448H442.468L453.371 354.263L462.508 348.338ZM495.437 348.338L504.872 342.9L501.73 337.448H495.437V348.338ZM512.55 378.026L503.115 383.464L506.258 388.916H512.55V378.026ZM513.069 378.026V388.916H519.361L522.503 383.464L513.069 378.026ZM530.181 348.338V337.448H523.889L520.747 342.9L530.181 348.338ZM561.425 348.338L570.601 354.201L581.306 337.448H561.425V348.338ZM526.551 402.917L517.375 397.054L515.661 399.735V402.917H526.551ZM526.551 426.641H497.901V448.421H526.551V426.641ZM508.79 437.531V402.917H487.011V437.531H508.79ZM507.038 396.992L471.645 342.413L453.371 354.263L488.764 408.842L507.038 396.992ZM462.508 359.228H495.437V337.448H462.508V359.228ZM486.003 353.776L503.115 383.464L521.985 372.587L504.872 342.9L486.003 353.776ZM512.55 388.916H513.069V367.136H512.55V388.916ZM522.503 383.464L539.616 353.776L520.747 342.9L503.634 372.587L522.503 383.464ZM530.181 359.228H561.425V337.448H530.181V359.228ZM552.248 342.475L517.375 397.054L535.728 408.78L570.601 354.201L552.248 342.475ZM515.661 402.917V437.531H537.441V402.917H515.661Z" fill="white" mask="url(#path-7-outside-3_4138_617)"/>
</g>
<g filter="url(#filter3_d_4138_617)">
<mask id="path-9-outside-4_4138_617" maskUnits="userSpaceOnUse" x="281.381" y="343.531" width="288" height="98" fill="black">
<rect fill="white" x="281.381" y="343.531" width="288" height="98"/>
<path d="M324.607 348.338C355.808 348.338 371.408 363.204 371.408 392.935C371.408 422.666 355.808 437.531 324.607 437.531H285.974V348.338H324.607ZM314.625 416.14H324.089C336.102 416.14 342.109 409.702 342.109 396.824V389.045C342.109 376.168 336.102 369.729 324.089 369.729H314.625V416.14ZM441.071 437.531L437.311 424.956H406.068L402.308 437.531H373.009L405.549 348.338H438.867L471.407 437.531H441.071ZM412.031 404.991H431.348L422.014 373.229H421.495L412.031 404.991ZM526.551 437.531H497.901V402.917L462.508 348.338H495.437L512.55 378.026H513.069L530.181 348.338H561.425L526.551 402.917V437.531Z"/>
</mask>
<path d="M324.607 348.338C355.808 348.338 371.408 363.204 371.408 392.935C371.408 422.666 355.808 437.531 324.607 437.531H285.974V348.338H324.607ZM314.625 416.14H324.089C336.102 416.14 342.109 409.702 342.109 396.824V389.045C342.109 376.168 336.102 369.729 324.089 369.729H314.625V416.14ZM441.071 437.531L437.311 424.956H406.068L402.308 437.531H373.009L405.549 348.338H438.867L471.407 437.531H441.071ZM412.031 404.991H431.348L422.014 373.229H421.495L412.031 404.991ZM526.551 437.531H497.901V402.917L462.508 348.338H495.437L512.55 378.026H513.069L530.181 348.338H561.425L526.551 402.917V437.531Z" fill="white"/>
<path d="M285.974 437.531H282.085V441.42H285.974V437.531ZM285.974 348.338V344.449H282.085V348.338H285.974ZM314.625 416.14H310.736V420.03H314.625V416.14ZM314.625 369.729V365.84H310.736V369.729H314.625ZM324.607 352.227C339.654 352.227 350.216 355.815 357.025 362.303C363.798 368.757 367.519 378.718 367.519 392.935H375.297C375.297 377.42 371.218 365.083 362.391 356.672C353.599 348.294 340.762 344.449 324.607 344.449V352.227ZM367.519 392.935C367.519 407.152 363.798 417.112 357.025 423.566C350.216 430.054 339.654 433.642 324.607 433.642V441.42C340.762 441.42 353.599 437.575 362.391 429.198C371.218 420.787 375.297 408.449 375.297 392.935H367.519ZM324.607 433.642H285.974V441.42H324.607V433.642ZM289.864 437.531V348.338H282.085V437.531H289.864ZM285.974 352.227H324.607V344.449H285.974V352.227ZM314.625 420.03H324.089V412.251H314.625V420.03ZM324.089 420.03C330.767 420.03 336.471 418.227 340.448 413.964C344.377 409.752 345.998 403.798 345.998 396.824H338.22C338.22 402.728 336.837 406.431 334.76 408.658C332.73 410.834 329.424 412.251 324.089 412.251V420.03ZM345.998 396.824V389.045H338.22V396.824H345.998ZM345.998 389.045C345.998 382.072 344.377 376.117 340.448 371.905C336.471 367.642 330.767 365.84 324.089 365.84V373.618C329.424 373.618 332.73 375.035 334.76 377.211C336.837 379.438 338.22 383.141 338.22 389.045H345.998ZM324.089 365.84H314.625V373.618H324.089V365.84ZM310.736 369.729V416.14H318.514V369.729H310.736ZM441.071 437.531L437.345 438.645L438.174 441.42H441.071V437.531ZM437.311 424.956L441.038 423.842L440.208 421.067H437.311V424.956ZM406.068 424.956V421.067H403.171L402.342 423.842L406.068 424.956ZM402.308 437.531V441.42H405.205L406.035 438.645L402.308 437.531ZM373.009 437.531L369.356 436.198L367.45 441.42H373.009V437.531ZM405.549 348.338V344.449H402.828L401.896 347.005L405.549 348.338ZM438.867 348.338L442.521 347.005L441.588 344.449H438.867V348.338ZM471.407 437.531V441.42H476.966L475.061 436.198L471.407 437.531ZM412.031 404.991L408.304 403.881L406.814 408.88H412.031V404.991ZM431.348 404.991V408.88H436.545L435.079 403.895L431.348 404.991ZM422.014 373.229L425.745 372.133L424.924 369.34H422.014V373.229ZM421.495 373.229V369.34H418.596L417.768 372.119L421.495 373.229ZM444.797 436.417L441.038 423.842L433.585 426.07L437.345 438.645L444.797 436.417ZM437.311 421.067H406.068V428.845H437.311V421.067ZM402.342 423.842L398.582 436.417L406.035 438.645L409.794 426.07L402.342 423.842ZM402.308 433.642H373.009V441.42H402.308V433.642ZM376.663 438.864L409.203 349.671L401.896 347.005L369.356 436.198L376.663 438.864ZM405.549 352.227H438.867V344.449H405.549V352.227ZM435.213 349.671L467.753 438.864L475.061 436.198L442.521 347.005L435.213 349.671ZM471.407 433.642H441.071V441.42H471.407V433.642ZM412.031 408.88H431.348V401.102H412.031V408.88ZM435.079 403.895L425.745 372.133L418.282 374.326L427.616 406.088L435.079 403.895ZM422.014 369.34H421.495V377.118H422.014V369.34ZM417.768 372.119L408.304 403.881L415.759 406.102L425.222 374.34L417.768 372.119ZM526.551 437.531V441.42H530.441V437.531H526.551ZM497.901 437.531H494.011V441.42H497.901V437.531ZM497.901 402.917H501.79V401.766L501.164 400.801L497.901 402.917ZM462.508 348.338V344.449H455.351L459.245 350.454L462.508 348.338ZM495.437 348.338L498.807 346.396L497.685 344.449H495.437V348.338ZM512.55 378.026L509.181 379.968L510.303 381.915H512.55V378.026ZM513.069 378.026V381.915H515.316L516.438 379.968L513.069 378.026ZM530.181 348.338V344.449H527.934L526.812 346.396L530.181 348.338ZM561.425 348.338L564.702 350.432L568.525 344.449H561.425V348.338ZM526.551 402.917L523.274 400.823L522.662 401.781V402.917H526.551ZM526.551 433.642H497.901V441.42H526.551V433.642ZM501.79 437.531V402.917H494.011V437.531H501.79ZM501.164 400.801L465.772 346.222L459.245 350.454L494.637 405.033L501.164 400.801ZM462.508 352.227H495.437V344.449H462.508V352.227ZM492.068 350.28L509.181 379.968L515.92 376.084L498.807 346.396L492.068 350.28ZM512.55 381.915H513.069V374.137H512.55V381.915ZM516.438 379.968L533.551 350.28L526.812 346.396L509.699 376.084L516.438 379.968ZM530.181 352.227H561.425V344.449H530.181V352.227ZM558.148 346.244L523.274 400.823L529.829 405.011L564.702 350.432L558.148 346.244ZM522.662 402.917V437.531H530.441V402.917H522.662Z" fill="#D84306" mask="url(#path-9-outside-4_4138_617)"/>
<path d="M285.974 437.531H282.085V441.42H285.974V437.531ZM285.974 348.338V344.449H282.085V348.338H285.974ZM314.625 416.14H310.736V420.03H314.625V416.14ZM314.625 369.729V365.84H310.736V369.729H314.625ZM324.607 352.227C339.654 352.227 350.216 355.815 357.025 362.303C363.798 368.757 367.519 378.718 367.519 392.935H375.297C375.297 377.42 371.218 365.083 362.391 356.672C353.599 348.294 340.762 344.449 324.607 344.449V352.227ZM367.519 392.935C367.519 407.152 363.798 417.112 357.025 423.566C350.216 430.054 339.654 433.642 324.607 433.642V441.42C340.762 441.42 353.599 437.575 362.391 429.198C371.218 420.787 375.297 408.449 375.297 392.935H367.519ZM324.607 433.642H285.974V441.42H324.607V433.642ZM289.864 437.531V348.338H282.085V437.531H289.864ZM285.974 352.227H324.607V344.449H285.974V352.227ZM314.625 420.03H324.089V412.251H314.625V420.03ZM324.089 420.03C330.767 420.03 336.471 418.227 340.448 413.964C344.377 409.752 345.998 403.798 345.998 396.824H338.22C338.22 402.728 336.837 406.431 334.76 408.658C332.73 410.834 329.424 412.251 324.089 412.251V420.03ZM345.998 396.824V389.045H338.22V396.824H345.998ZM345.998 389.045C345.998 382.072 344.377 376.117 340.448 371.905C336.471 367.642 330.767 365.84 324.089 365.84V373.618C329.424 373.618 332.73 375.035 334.76 377.211C336.837 379.438 338.22 383.141 338.22 389.045H345.998ZM324.089 365.84H314.625V373.618H324.089V365.84ZM310.736 369.729V416.14H318.514V369.729H310.736ZM441.071 437.531L437.345 438.645L438.174 441.42H441.071V437.531ZM437.311 424.956L441.038 423.842L440.208 421.067H437.311V424.956ZM406.068 424.956V421.067H403.171L402.342 423.842L406.068 424.956ZM402.308 437.531V441.42H405.205L406.035 438.645L402.308 437.531ZM373.009 437.531L369.356 436.198L367.45 441.42H373.009V437.531ZM405.549 348.338V344.449H402.828L401.896 347.005L405.549 348.338ZM438.867 348.338L442.521 347.005L441.588 344.449H438.867V348.338ZM471.407 437.531V441.42H476.966L475.061 436.198L471.407 437.531ZM412.031 404.991L408.304 403.881L406.814 408.88H412.031V404.991ZM431.348 404.991V408.88H436.545L435.079 403.895L431.348 404.991ZM422.014 373.229L425.745 372.133L424.924 369.34H422.014V373.229ZM421.495 373.229V369.34H418.596L417.768 372.119L421.495 373.229ZM444.797 436.417L441.038 423.842L433.585 426.07L437.345 438.645L444.797 436.417ZM437.311 421.067H406.068V428.845H437.311V421.067ZM402.342 423.842L398.582 436.417L406.035 438.645L409.794 426.07L402.342 423.842ZM402.308 433.642H373.009V441.42H402.308V433.642ZM376.663 438.864L409.203 349.671L401.896 347.005L369.356 436.198L376.663 438.864ZM405.549 352.227H438.867V344.449H405.549V352.227ZM435.213 349.671L467.753 438.864L475.061 436.198L442.521 347.005L435.213 349.671ZM471.407 433.642H441.071V441.42H471.407V433.642ZM412.031 408.88H431.348V401.102H412.031V408.88ZM435.079 403.895L425.745 372.133L418.282 374.326L427.616 406.088L435.079 403.895ZM422.014 369.34H421.495V377.118H422.014V369.34ZM417.768 372.119L408.304 403.881L415.759 406.102L425.222 374.34L417.768 372.119ZM526.551 437.531V441.42H530.441V437.531H526.551ZM497.901 437.531H494.011V441.42H497.901V437.531ZM497.901 402.917H501.79V401.766L501.164 400.801L497.901 402.917ZM462.508 348.338V344.449H455.351L459.245 350.454L462.508 348.338ZM495.437 348.338L498.807 346.396L497.685 344.449H495.437V348.338ZM512.55 378.026L509.181 379.968L510.303 381.915H512.55V378.026ZM513.069 378.026V381.915H515.316L516.438 379.968L513.069 378.026ZM530.181 348.338V344.449H527.934L526.812 346.396L530.181 348.338ZM561.425 348.338L564.702 350.432L568.525 344.449H561.425V348.338ZM526.551 402.917L523.274 400.823L522.662 401.781V402.917H526.551ZM526.551 433.642H497.901V441.42H526.551V433.642ZM501.79 437.531V402.917H494.011V437.531H501.79ZM501.164 400.801L465.772 346.222L459.245 350.454L494.637 405.033L501.164 400.801ZM462.508 352.227H495.437V344.449H462.508V352.227ZM492.068 350.28L509.181 379.968L515.92 376.084L498.807 346.396L492.068 350.28ZM512.55 381.915H513.069V374.137H512.55V381.915ZM516.438 379.968L533.551 350.28L526.812 346.396L509.699 376.084L516.438 379.968ZM530.181 352.227H561.425V344.449H530.181V352.227ZM558.148 346.244L523.274 400.823L529.829 405.011L564.702 350.432L558.148 346.244ZM522.662 402.917V437.531H530.441V402.917H522.662Z" fill="black" fill-opacity="0.2" mask="url(#path-9-outside-4_4138_617)"/>
</g>
<path d="M176.816 308.281C193.769 279.285 166.748 266.092 151.119 263.119C130.562 246.857 120.756 261.649 118.423 271.078C100.013 264.711 95.4104 284.342 95.4104 294.953C84.8248 320.42 99.8211 332.731 108.642 335.704C115.009 357.642 139.613 348.361 151.119 340.977C183.643 343.049 181.802 320.043 176.816 308.281Z" fill="white"/>
<circle cx="136.929" cy="302.528" r="21.0946" fill="#FFDB43"/>
<path d="M570.382 258.29C577.458 246.187 566.179 240.68 559.656 239.439C551.075 232.651 546.982 238.825 546.008 242.761C538.324 240.103 536.403 248.297 536.403 252.727C531.984 263.357 538.244 268.495 541.926 269.736C544.583 278.893 554.853 275.019 559.656 271.937C573.231 272.802 572.463 263.199 570.382 258.29Z" fill="white"/>
<circle cx="553.731" cy="255.889" r="8.805" fill="#FFDB43"/>
<circle cx="632.114" cy="292.024" r="10.501" fill="white"/>
<circle cx="80.4916" cy="79.4116" r="8.16741" fill="white"/>
<circle cx="588.425" cy="488.3" r="8.16741" fill="white"/>
<circle cx="656.618" cy="412.72" r="5.70422" fill="white"/>
<circle cx="86.0636" cy="173.923" r="5.70422" fill="white"/>
<circle cx="615.782" cy="199.589" r="3.62996" fill="white"/>
<defs>
<filter id="filter0_d_4138_617" x="114.717" y="126.646" width="415.244" height="94.379" filterUnits="userSpaceOnUse" color-interpolation-filters="sRGB">
<feFlood flood-opacity="0" result="BackgroundImageFix"/>
<feColorMatrix in="SourceAlpha" type="matrix" values="0 0 0 0 0 0 0 0 0 0 0 0 0 0 0 0 0 0 127 0" result="hardAlpha"/>
<feOffset dy="1.03713"/>
<feGaussianBlur stdDeviation="0.518566"/>
<feComposite in2="hardAlpha" operator="out"/>
<feColorMatrix type="matrix" values="0 0 0 0 0 0 0 0 0 0 0 0 0 0 0 0 0 0 0.25 0"/>
<feBlend mode="normal" in2="BackgroundImageFix" result="effect1_dropShadow_4138_617"/>
<feBlend mode="normal" in="SourceGraphic" in2="effect1_dropShadow_4138_617" result="shape"/>
</filter>
<filter id="filter1_d_4138_617" x="114.717" y="126.646" width="415.244" height="94.379" filterUnits="userSpaceOnUse" color-interpolation-filters="sRGB">
<feFlood flood-opacity="0" result="BackgroundImageFix"/>
<feColorMatrix in="SourceAlpha" type="matrix" values="0 0 0 0 0 0 0 0 0 0 0 0 0 0 0 0 0 0 127 0" result="hardAlpha"/>
<feOffset dy="1.03713"/>
<feGaussianBlur stdDeviation="0.518566"/>
<feComposite in2="hardAlpha" operator="out"/>
<feColorMatrix type="matrix" values="0 0 0 0 1 0 0 0 0 0.858824 0 0 0 0 0.262745 0 0 0 1 0"/>
<feBlend mode="normal" in2="BackgroundImageFix" result="effect1_dropShadow_4138_617"/>
<feBlend mode="normal" in="SourceGraphic" in2="effect1_dropShadow_4138_617" result="shape"/>
</filter>
<filter id="filter2_d_4138_617" x="284.937" y="348.34" width="277.525" height="91.2657" filterUnits="userSpaceOnUse" color-interpolation-filters="sRGB">
<feFlood flood-opacity="0" result="BackgroundImageFix"/>
<feColorMatrix in="SourceAlpha" type="matrix" values="0 0 0 0 0 0 0 0 0 0 0 0 0 0 0 0 0 0 127 0" result="hardAlpha"/>
<feOffset dy="1.03713"/>
<feGaussianBlur stdDeviation="0.518566"/>
<feComposite in2="hardAlpha" operator="out"/>
<feColorMatrix type="matrix" values="0 0 0 0 0 0 0 0 0 0 0 0 0 0 0 0 0 0 0.25 0"/>
<feBlend mode="normal" in2="BackgroundImageFix" result="effect1_dropShadow_4138_617"/>
<feBlend mode="normal" in="SourceGraphic" in2="effect1_dropShadow_4138_617" result="shape"/>
</filter>
<filter id="filter3_d_4138_617" x="284.937" y="348.34" width="277.525" height="91.2657" filterUnits="userSpaceOnUse" color-interpolation-filters="sRGB">
<feFlood flood-opacity="0" result="BackgroundImageFix"/>
<feColorMatrix in="SourceAlpha" type="matrix" values="0 0 0 0 0 0 0 0 0 0 0 0 0 0 0 0 0 0 127 0" result="hardAlpha"/>
<feOffset dy="1.03713"/>
<feGaussianBlur stdDeviation="0.518566"/>
<feComposite in2="hardAlpha" operator="out"/>
<feColorMatrix type="matrix" values="0 0 0 0 1 0 0 0 0 0.858824 0 0 0 0 0.262745 0 0 0 1 0"/>
<feBlend mode="normal" in2="BackgroundImageFix" result="effect1_dropShadow_4138_617"/>
<feBlend mode="normal" in="SourceGraphic" in2="effect1_dropShadow_4138_617" result="shape"/>
</filter>
</defs>
</svg>
