<svg width="634" height="561" viewBox="0 0 634 561" fill="none" xmlns="http://www.w3.org/2000/svg">
<path d="M324.449 555.611C317.618 562.02 307.076 562.02 300.245 555.611L84.7722 353.378C-120.918 167.338 84.772 -146.637 311.377 79.9678H313.233C587.443 -134.583 745.528 167.253 539.922 353.378L324.449 555.611Z" fill="white"/>
<path d="M323.671 525.397C317.478 531.208 307.919 531.208 301.725 525.397L106.352 342.028C-80.152 173.342 106.351 -111.346 311.819 94.1216H313.501C562.133 -100.416 705.472 173.265 519.045 342.028L323.671 525.397Z" fill="#F9A0E4"/>
<path d="M123.613 260.336V204.946H113.804V192.138H151.769V204.946H141.96V260.336H123.613ZM132.383 254.912H132.96L133.421 225.718L132.96 198.484L146.23 198.254V198.023L132.729 197.792L119.92 198.023V198.254L132.383 198.484L131.921 225.718L132.383 254.912ZM155.545 260.336V192.138H173.893V218.563H178.047V192.138H196.395V260.336H178.047V232.064H173.893V260.336H155.545ZM164.2 254.912H164.662L165.239 225.948L175.739 225.833L186.24 225.948L186.817 254.912H187.279L187.74 225.718L187.164 197.215H186.702L186.24 225.487L175.739 225.602L165.239 225.487L164.777 197.215H164.315L163.738 225.718L164.2 254.912ZM199.66 260.336L209.469 192.138H236.587L246.164 260.336H225.509L224.586 250.412H220.316L219.624 260.336H199.66ZM209.123 254.912H209.584L209.931 252.489C210.084 251.643 210.2 250.72 210.277 249.72L210.623 246.142L222.509 246.027L234.279 246.142L235.202 254.912H235.779L233.009 225.833L229.432 196.984L222.855 197.215L216.854 196.984L212.354 225.602L209.123 254.912ZM222.509 245.912L210.738 245.681L213.623 225.718L217.316 197.446L222.855 197.33L228.971 197.446L231.625 225.833L234.163 245.681L222.509 245.912ZM220.431 241.527H224.586L222.509 206.562L220.431 241.527ZM249.416 260.336V192.138H265.341L273.649 223.871V192.138H289.689V260.336H273.88L265.456 232.064V260.336H249.416ZM257.263 254.912H257.84L258.186 225.718L257.84 198.715L267.879 225.141L281.265 254.912H281.611L281.958 225.718L281.611 197.215H281.034L280.688 225.718L281.15 253.758L269.495 225.833L257.609 197.215H257.263L256.917 225.718L257.263 254.912ZM295.507 260.336V192.138H313.854V219.948L319.624 192.138H340.741L329.202 224.91L340.972 260.336H320.547L313.854 229.641V260.336H295.507ZM304.161 254.912H304.623L305.2 225.718L304.738 197.215H304.277L303.7 225.718L304.161 254.912ZM328.74 254.912H329.202L325.278 240.373C325.048 239.373 324.701 238.065 324.24 236.449C323.778 234.834 323.278 233.18 322.74 231.487C322.278 229.795 321.893 228.372 321.586 227.218C321.278 225.987 321.124 225.333 321.124 225.256L328.509 197.215H327.932C327.548 198.677 327.125 200.1 326.663 201.485C326.278 202.869 325.894 204.254 325.509 205.639L323.432 213.14C322.663 215.755 321.97 218.063 321.355 220.063L319.509 225.256L321.355 230.449C321.97 232.603 322.701 235.103 323.547 237.949C324.394 240.719 325.201 243.373 325.971 245.912C326.817 248.912 327.74 251.912 328.74 254.912ZM368.271 260.336V232.064L355.462 192.138H373.579L377.272 206.447L378.31 212.447L379.349 206.447L383.157 192.138H399.774L386.619 233.103V260.336H368.271ZM377.503 254.912H377.733L378.31 232.872C378.31 232.718 378.541 231.949 379.003 230.564C379.464 229.102 380.003 227.372 380.618 225.371C381.311 223.371 381.964 221.409 382.58 219.486C383.272 217.486 383.772 215.909 384.08 214.755C384.926 212.139 385.811 209.408 386.734 206.562C387.657 203.639 388.657 200.523 389.734 197.215H389.388L377.618 231.256L366.078 197.215H365.732L371.271 214.755C371.656 215.909 372.156 217.486 372.771 219.486C373.387 221.409 374.002 223.41 374.618 225.487C375.31 227.487 375.849 229.218 376.233 230.679C376.695 232.064 376.926 232.795 376.926 232.872L377.503 254.912ZM419.268 261.721C414.652 261.721 410.767 261.144 407.613 259.99C404.536 258.836 402.19 256.72 400.574 253.643C399.036 250.489 398.266 246.065 398.266 240.373V206.677C398.266 200.985 400.19 196.984 404.036 194.676C407.883 192.292 412.96 191.099 419.268 191.099C425.576 191.099 430.5 192.292 434.039 194.676C437.654 196.984 439.462 200.985 439.462 206.677V240.257C439.462 246.027 438.731 250.45 437.27 253.528C435.885 256.605 433.693 258.759 430.692 259.99C427.692 261.144 423.884 261.721 419.268 261.721ZM415.114 255.143H418.23C418.691 255.143 419.037 255.105 419.268 255.028C419.422 255.105 419.691 255.143 420.076 255.143H422.845C427.769 255.143 430.308 252.489 430.462 247.181L430.923 225.718L430.462 203.446C430.385 201.062 429.577 199.369 428.038 198.369C426.577 197.292 424.615 196.83 422.153 196.984L419.268 197.1L415.806 196.984C413.345 196.907 411.344 197.369 409.806 198.369C408.344 199.369 407.575 201.062 407.498 203.446L407.036 225.718L407.498 247.181C407.652 252.489 410.191 255.143 415.114 255.143ZM418.23 254.797L416.845 254.682H415.114C410.267 254.528 407.883 252.028 407.96 247.181L408.537 225.602L407.96 203.446C407.883 201.215 408.575 199.677 410.037 198.831C411.498 197.984 413.422 197.523 415.806 197.446L419.268 197.33L422.153 197.446C424.538 197.523 426.461 197.984 427.923 198.831C429.384 199.677 430.077 201.215 430 203.446L429.423 225.602L430 247.181C430.077 252.028 427.692 254.528 422.845 254.682H421.23L420.076 254.797H418.23ZM419.268 251.104C419.884 251.104 420.345 250.835 420.653 250.297C420.961 249.912 421.115 249.027 421.115 247.643V205.754C421.115 204.446 420.961 203.523 420.653 202.985C420.345 202.523 419.884 202.292 419.268 202.292C418.73 202.292 418.268 202.523 417.883 202.985C417.576 203.523 417.422 204.446 417.422 205.754V247.643C417.422 249.027 417.576 249.912 417.883 250.297C418.191 250.835 418.653 251.104 419.268 251.104ZM465.018 261.721C460.479 261.721 456.671 261.259 453.594 260.336C450.593 259.336 448.362 257.374 446.901 254.451C445.439 251.527 444.708 247.219 444.708 241.527V192.138H463.056V247.066C463.056 248.373 463.21 249.297 463.518 249.835C463.902 250.297 464.402 250.527 465.018 250.527C465.633 250.527 466.095 250.297 466.402 249.835C466.787 249.297 466.979 248.373 466.979 247.066V192.138H485.327V241.411C485.327 247.104 484.596 251.412 483.135 254.335C481.673 257.259 479.442 259.22 476.442 260.221C473.442 261.221 469.634 261.721 465.018 261.721ZM461.325 255.143H464.441C464.902 255.143 465.249 255.105 465.479 255.028C465.633 255.105 465.902 255.143 466.287 255.143H469.057C473.98 255.143 476.519 252.489 476.673 247.181L477.365 225.718L476.673 197.215H476.211L475.749 225.602L476.211 247.181C476.288 252.028 473.903 254.528 469.057 254.682H467.441C467.133 254.759 466.749 254.797 466.287 254.797H464.441L463.056 254.682H461.325C456.402 254.682 454.017 252.181 454.171 247.181L454.632 225.602L454.171 197.215H453.709L453.017 225.718L453.709 247.181C453.863 252.489 456.402 255.143 461.325 255.143ZM496.906 238.642L493.791 216.832L492.868 187.637H512.485L511.561 216.486L508.446 238.642H496.906ZM502.445 234.488H502.907L503.484 213.37L503.022 190.638H502.561L501.984 213.37L502.445 234.488ZM503.253 261.259C500.561 261.259 498.291 260.413 496.445 258.72C494.598 257.028 493.675 254.951 493.675 252.489C493.675 250.104 494.598 248.066 496.445 246.373C498.291 244.604 500.561 243.719 503.253 243.719C505.946 243.719 508.215 244.604 510.061 246.373C511.908 248.066 512.831 250.104 512.831 252.489C512.831 254.951 511.908 257.028 510.061 258.72C508.215 260.413 505.946 261.259 503.253 261.259ZM503.138 256.874C505.984 256.874 507.407 255.451 507.407 252.604C507.407 249.758 505.984 248.335 503.138 248.335C500.291 248.335 498.868 249.758 498.868 252.604C498.868 255.451 500.291 256.874 503.138 256.874ZM503.138 256.643C502.061 256.643 501.176 256.259 500.484 255.489C499.791 254.643 499.445 253.682 499.445 252.604C499.445 251.451 499.791 250.527 500.484 249.835C501.176 249.066 502.061 248.681 503.138 248.681C504.215 248.681 505.061 249.066 505.676 249.835C506.369 250.527 506.715 251.451 506.715 252.604C506.715 253.682 506.369 254.643 505.676 255.489C505.061 256.259 504.215 256.643 503.138 256.643Z" fill="black"/>
<path d="M130.344 332.28L130.329 332.266L130.314 332.252C48.3364 258.106 49.7595 159.25 93.7507 101.584C115.743 72.756 148.36 54.2057 186.647 54.006C224.948 53.8061 269.268 71.9732 314.577 117.282L315.226 117.931L316.144 117.931L318.682 117.931L319.446 117.931L320.048 117.461C374.983 74.478 423.47 57.448 462.627 58.0902C501.712 58.7313 531.716 76.9721 549.932 105.06C586.422 161.324 575.899 257.869 493.729 332.253L493.715 332.266L493.7 332.28L320.248 495.073C315.601 499.433 308.442 499.433 303.796 495.073L130.344 332.28Z" stroke="black" stroke-width="4.43052"/>
</svg>
