<svg width="625" height="581" viewBox="0 0 625 581" fill="none" xmlns="http://www.w3.org/2000/svg">
<rect x="0.367188" y="0.855469" width="623.692" height="579.795" rx="109.961" fill="white"/>
<rect x="24.2715" y="23.0195" width="575.536" height="535.028" rx="97.4601" fill="#009D5A"/>
<rect x="71.2834" y="66.5022" width="482.055" height="447.785" rx="80.0245" fill="#009D5A" stroke="white" stroke-width="4.85586"/>
<mask id="path-4-outside-1_4146_142" maskUnits="userSpaceOnUse" x="116.326" y="183.574" width="392" height="83" fill="black">
<rect fill="white" x="116.326" y="183.574" width="392" height="83"/>
<path d="M190.241 211.652H174.542V204.533H168.7V245.606H175.089V260.574H136.755V245.606H143.144V204.533H137.303V211.652H121.604V189.565H190.241V211.652ZM266.386 204.533H261.823V245.606H266.386V260.574H231.886V245.606H236.267V230.546H223.489V245.606H227.87V260.574H193.369V245.606H197.932V204.533H193.369V189.565H227.87V204.533H223.489V218.407H236.267V204.533H231.886V189.565H266.386V204.533ZM337.017 245.606H340.668V260.574H304.889V245.606H310.365L308.905 238.304H296.492L295.032 245.606H300.508V260.574H269.293V245.606H272.944L288.369 189.565H321.592L337.017 245.606ZM298.5 228.629H306.897L303.155 210.466H302.242L298.5 228.629ZM396.13 189.565H426.068V204.533H421.504V260.574H395.856L369.114 219.411V245.606H373.495V260.574H343.558V245.606H348.121V204.533H343.558V189.565H376.507L400.511 226.165V204.533H396.13V189.565ZM497.934 245.606H502.497V260.574H477.58L463.889 232.28L459.691 235.748V245.606H464.072V260.574H429.571V245.606H434.134V204.533H429.571V189.565H464.072V204.533H459.691V216.581L473.838 204.533H468.088V189.565H502.041V204.533H497.477L482.235 217.129L497.934 245.606Z"/>
</mask>
<path d="M190.241 211.652H174.542V204.533H168.7V245.606H175.089V260.574H136.755V245.606H143.144V204.533H137.303V211.652H121.604V189.565H190.241V211.652ZM266.386 204.533H261.823V245.606H266.386V260.574H231.886V245.606H236.267V230.546H223.489V245.606H227.87V260.574H193.369V245.606H197.932V204.533H193.369V189.565H227.87V204.533H223.489V218.407H236.267V204.533H231.886V189.565H266.386V204.533ZM337.017 245.606H340.668V260.574H304.889V245.606H310.365L308.905 238.304H296.492L295.032 245.606H300.508V260.574H269.293V245.606H272.944L288.369 189.565H321.592L337.017 245.606ZM298.5 228.629H306.897L303.155 210.466H302.242L298.5 228.629ZM396.13 189.565H426.068V204.533H421.504V260.574H395.856L369.114 219.411V245.606H373.495V260.574H343.558V245.606H348.121V204.533H343.558V189.565H376.507L400.511 226.165V204.533H396.13V189.565ZM497.934 245.606H502.497V260.574H477.58L463.889 232.28L459.691 235.748V245.606H464.072V260.574H429.571V245.606H434.134V204.533H429.571V189.565H464.072V204.533H459.691V216.581L473.838 204.533H468.088V189.565H502.041V204.533H497.477L482.235 217.129L497.934 245.606Z" fill="black"/>
<path d="M190.241 211.652V216.868H195.456V211.652H190.241ZM174.542 211.652H169.326V216.868H174.542V211.652ZM174.542 204.533H179.757V199.318H174.542V204.533ZM168.7 204.533V199.318H163.485V204.533H168.7ZM168.7 245.606H163.485V250.821H168.7V245.606ZM175.089 245.606H180.305V240.39H175.089V245.606ZM175.089 260.574V265.79H180.305V260.574H175.089ZM136.755 260.574H131.54V265.79H136.755V260.574ZM136.755 245.606V240.39H131.54V245.606H136.755ZM143.144 245.606V250.821H148.36V245.606H143.144ZM143.144 204.533H148.36V199.318H143.144V204.533ZM137.303 204.533V199.318H132.087V204.533H137.303ZM137.303 211.652V216.868H142.518V211.652H137.303ZM121.604 211.652H116.388V216.868H121.604V211.652ZM121.604 189.565V184.349H116.388V189.565H121.604ZM190.241 189.565H195.456V184.349H190.241V189.565ZM190.241 206.437H174.542V216.868H190.241V206.437ZM179.757 211.652V204.533H169.326V211.652H179.757ZM174.542 199.318H168.7V209.749H174.542V199.318ZM163.485 204.533V245.606H173.916V204.533H163.485ZM168.7 250.821H175.089V240.39H168.7V250.821ZM169.874 245.606V260.574H180.305V245.606H169.874ZM175.089 255.359H136.755V265.79H175.089V255.359ZM141.971 260.574V245.606H131.54V260.574H141.971ZM136.755 250.821H143.144V240.39H136.755V250.821ZM148.36 245.606V204.533H137.929V245.606H148.36ZM143.144 199.318H137.303V209.749H143.144V199.318ZM132.087 204.533V211.652H142.518V204.533H132.087ZM137.303 206.437H121.604V216.868H137.303V206.437ZM126.82 211.652V189.565H116.388V211.652H126.82ZM121.604 194.78H190.241V184.349H121.604V194.78ZM185.025 189.565V211.652H195.456V189.565H185.025ZM266.386 204.533V209.749H271.602V204.533H266.386ZM261.823 204.533V199.318H256.607V204.533H261.823ZM261.823 245.606H256.607V250.821H261.823V245.606ZM266.386 245.606H271.602V240.39H266.386V245.606ZM266.386 260.574V265.79H271.602V260.574H266.386ZM231.886 260.574H226.67V265.79H231.886V260.574ZM231.886 245.606V240.39H226.67V245.606H231.886ZM236.267 245.606V250.821H241.482V245.606H236.267ZM236.267 230.546H241.482V225.33H236.267V230.546ZM223.489 230.546V225.33H218.273V230.546H223.489ZM223.489 245.606H218.273V250.821H223.489V245.606ZM227.87 245.606H233.085V240.39H227.87V245.606ZM227.87 260.574V265.79H233.085V260.574H227.87ZM193.369 260.574H188.153V265.79H193.369V260.574ZM193.369 245.606V240.39H188.153V245.606H193.369ZM197.932 245.606V250.821H203.148V245.606H197.932ZM197.932 204.533H203.148V199.318H197.932V204.533ZM193.369 204.533H188.153V209.749H193.369V204.533ZM193.369 189.565V184.349H188.153V189.565H193.369ZM227.87 189.565H233.085V184.349H227.87V189.565ZM227.87 204.533V209.749H233.085V204.533H227.87ZM223.489 204.533V199.318H218.273V204.533H223.489ZM223.489 218.407H218.273V223.622H223.489V218.407ZM236.267 218.407V223.622H241.482V218.407H236.267ZM236.267 204.533H241.482V199.318H236.267V204.533ZM231.886 204.533H226.67V209.749H231.886V204.533ZM231.886 189.565V184.349H226.67V189.565H231.886ZM266.386 189.565H271.602V184.349H266.386V189.565ZM266.386 199.318H261.823V209.749H266.386V199.318ZM256.607 204.533V245.606H267.038V204.533H256.607ZM261.823 250.821H266.386V240.39H261.823V250.821ZM261.171 245.606V260.574H271.602V245.606H261.171ZM266.386 255.359H231.886V265.79H266.386V255.359ZM237.101 260.574V245.606H226.67V260.574H237.101ZM231.886 250.821H236.267V240.39H231.886V250.821ZM241.482 245.606V230.546H231.051V245.606H241.482ZM236.267 225.33H223.489V235.761H236.267V225.33ZM218.273 230.546V245.606H228.704V230.546H218.273ZM223.489 250.821H227.87V240.39H223.489V250.821ZM222.654 245.606V260.574H233.085V245.606H222.654ZM227.87 255.359H193.369V265.79H227.87V255.359ZM198.584 260.574V245.606H188.153V260.574H198.584ZM193.369 250.821H197.932V240.39H193.369V250.821ZM203.148 245.606V204.533H192.717V245.606H203.148ZM197.932 199.318H193.369V209.749H197.932V199.318ZM198.584 204.533V189.565H188.153V204.533H198.584ZM193.369 194.78H227.87V184.349H193.369V194.78ZM222.654 189.565V204.533H233.085V189.565H222.654ZM227.87 199.318H223.489V209.749H227.87V199.318ZM218.273 204.533V218.407H228.704V204.533H218.273ZM223.489 223.622H236.267V213.191H223.489V223.622ZM241.482 218.407V204.533H231.051V218.407H241.482ZM236.267 199.318H231.886V209.749H236.267V199.318ZM237.101 204.533V189.565H226.67V204.533H237.101ZM231.886 194.78H266.386V184.349H231.886V194.78ZM261.171 189.565V204.533H271.602V189.565H261.171ZM337.017 245.606L331.988 246.99L333.043 250.821H337.017V245.606ZM340.668 245.606H345.883V240.39H340.668V245.606ZM340.668 260.574V265.79H345.883V260.574H340.668ZM304.889 260.574H299.673V265.79H304.889V260.574ZM304.889 245.606V240.39H299.673V245.606H304.889ZM310.365 245.606V250.821H316.727L315.479 244.583L310.365 245.606ZM308.905 238.304L314.019 237.281L313.181 233.088H308.905V238.304ZM296.492 238.304V233.088H292.216L291.378 237.281L296.492 238.304ZM295.032 245.606L289.917 244.583L288.67 250.821H295.032V245.606ZM300.508 245.606H305.723V240.39H300.508V245.606ZM300.508 260.574V265.79H305.723V260.574H300.508ZM269.293 260.574H264.077V265.79H269.293V260.574ZM269.293 245.606V240.39H264.077V245.606H269.293ZM272.944 245.606V250.821H276.918L277.972 246.99L272.944 245.606ZM288.369 189.565V184.349H284.395L283.34 188.18L288.369 189.565ZM321.592 189.565L326.62 188.18L325.566 184.349H321.592V189.565ZM298.5 228.629L293.392 227.577L292.1 233.845H298.5V228.629ZM306.897 228.629V233.845H313.297L312.005 227.577L306.897 228.629ZM303.155 210.466L308.263 209.413L307.405 205.25H303.155V210.466ZM302.242 210.466V205.25H297.991L297.134 209.413L302.242 210.466ZM337.017 250.821H340.668V240.39H337.017V250.821ZM335.452 245.606V260.574H345.883V245.606H335.452ZM340.668 255.359H304.889V265.79H340.668V255.359ZM310.104 260.574V245.606H299.673V260.574H310.104ZM304.889 250.821H310.365V240.39H304.889V250.821ZM315.479 244.583L314.019 237.281L303.791 239.327L305.251 246.628L315.479 244.583ZM308.905 233.088H296.492V243.519H308.905V233.088ZM291.378 237.281L289.917 244.583L300.146 246.628L301.606 239.327L291.378 237.281ZM295.032 250.821H300.508V240.39H295.032V250.821ZM295.292 245.606V260.574H305.723V245.606H295.292ZM300.508 255.359H269.293V265.79H300.508V255.359ZM274.508 260.574V245.606H264.077V260.574H274.508ZM269.293 250.821H272.944V240.39H269.293V250.821ZM277.972 246.99L293.397 190.949L283.34 188.18L267.915 244.222L277.972 246.99ZM288.369 194.78H321.592V184.349H288.369V194.78ZM316.563 190.949L331.988 246.99L342.045 244.222L326.62 188.18L316.563 190.949ZM298.5 233.845H306.897V223.413H298.5V233.845ZM312.005 227.577L308.263 209.413L298.046 211.518L301.789 229.681L312.005 227.577ZM303.155 205.25H302.242V215.681H303.155V205.25ZM297.134 209.413L293.392 227.577L303.608 229.681L307.35 211.518L297.134 209.413ZM396.13 189.565V184.349H390.915V189.565H396.13ZM426.068 189.565H431.283V184.349H426.068V189.565ZM426.068 204.533V209.749H431.283V204.533H426.068ZM421.504 204.533V199.318H416.288V204.533H421.504ZM421.504 260.574V265.79H426.719V260.574H421.504ZM395.856 260.574L391.483 263.416L393.025 265.79H395.856V260.574ZM369.114 219.411L373.487 216.569L363.898 201.809V219.411H369.114ZM369.114 245.606H363.898V250.821H369.114V245.606ZM373.495 245.606H378.71V240.39H373.495V245.606ZM373.495 260.574V265.79H378.71V260.574H373.495ZM343.558 260.574H338.342V265.79H343.558V260.574ZM343.558 245.606V240.39H338.342V245.606H343.558ZM348.121 245.606V250.821H353.337V245.606H348.121ZM348.121 204.533H353.337V199.318H348.121V204.533ZM343.558 204.533H338.342V209.749H343.558V204.533ZM343.558 189.565V184.349H338.342V189.565H343.558ZM376.507 189.565L380.868 186.704L379.323 184.349H376.507V189.565ZM400.511 226.165L396.15 229.025L405.727 243.627V226.165H400.511ZM400.511 204.533H405.727V199.318H400.511V204.533ZM396.13 204.533H390.915V209.749H396.13V204.533ZM396.13 194.78H426.068V184.349H396.13V194.78ZM420.852 189.565V204.533H431.283V189.565H420.852ZM426.068 199.318H421.504V209.749H426.068V199.318ZM416.288 204.533V260.574H426.719V204.533H416.288ZM421.504 255.359H395.856V265.79H421.504V255.359ZM400.23 257.733L373.487 216.569L364.74 222.252L391.483 263.416L400.23 257.733ZM363.898 219.411V245.606H374.329V219.411H363.898ZM369.114 250.821H373.495V240.39H369.114V250.821ZM368.279 245.606V260.574H378.71V245.606H368.279ZM373.495 255.359H343.558V265.79H373.495V255.359ZM348.773 260.574V245.606H338.342V260.574H348.773ZM343.558 250.821H348.121V240.39H343.558V250.821ZM353.337 245.606V204.533H342.906V245.606H353.337ZM348.121 199.318H343.558V209.749H348.121V199.318ZM348.773 204.533V189.565H338.342V204.533H348.773ZM343.558 194.78H376.507V184.349H343.558V194.78ZM372.146 192.425L396.15 229.025L404.873 223.304L380.868 186.704L372.146 192.425ZM405.727 226.165V204.533H395.296V226.165H405.727ZM400.511 199.318H396.13V209.749H400.511V199.318ZM401.346 204.533V189.565H390.915V204.533H401.346ZM497.934 245.606L493.366 248.124L494.853 250.821H497.934V245.606ZM502.497 245.606H507.713V240.39H502.497V245.606ZM502.497 260.574V265.79H507.713V260.574H502.497ZM477.58 260.574L472.885 262.846L474.31 265.79H477.58V260.574ZM463.889 232.28L468.584 230.008L465.69 224.027L460.567 228.259L463.889 232.28ZM459.691 235.748L456.369 231.727L454.475 233.292V235.748H459.691ZM459.691 245.606H454.475V250.821H459.691V245.606ZM464.072 245.606H469.287V240.39H464.072V245.606ZM464.072 260.574V265.79H469.287V260.574H464.072ZM429.571 260.574H424.355V265.79H429.571V260.574ZM429.571 245.606V240.39H424.355V245.606H429.571ZM434.134 245.606V250.821H439.35V245.606H434.134ZM434.134 204.533H439.35V199.318H434.134V204.533ZM429.571 204.533H424.355V209.749H429.571V204.533ZM429.571 189.565V184.349H424.355V189.565H429.571ZM464.072 189.565H469.287V184.349H464.072V189.565ZM464.072 204.533V209.749H469.287V204.533H464.072ZM459.691 204.533V199.318H454.475V204.533H459.691ZM459.691 216.581H454.475V227.873L463.072 220.552L459.691 216.581ZM473.838 204.533L477.219 208.504L488.006 199.318H473.838V204.533ZM468.088 204.533H462.872V209.749H468.088V204.533ZM468.088 189.565V184.349H462.872V189.565H468.088ZM502.041 189.565H507.256V184.349H502.041V189.565ZM502.041 204.533V209.749H507.256V204.533H502.041ZM497.477 204.533V199.318H495.601L494.155 200.513L497.477 204.533ZM482.235 217.129L478.912 213.108L475.581 215.862L477.667 219.647L482.235 217.129ZM497.934 250.821H502.497V240.39H497.934V250.821ZM497.282 245.606V260.574H507.713V245.606H497.282ZM502.497 255.359H477.58V265.79H502.497V255.359ZM482.275 258.303L468.584 230.008L459.194 234.552L472.885 262.846L482.275 258.303ZM460.567 228.259L456.369 231.727L463.012 239.769L467.211 236.301L460.567 228.259ZM454.475 235.748V245.606H464.906V235.748H454.475ZM459.691 250.821H464.072V240.39H459.691V250.821ZM458.856 245.606V260.574H469.287V245.606H458.856ZM464.072 255.359H429.571V265.79H464.072V255.359ZM434.786 260.574V245.606H424.355V260.574H434.786ZM429.571 250.821H434.134V240.39H429.571V250.821ZM439.35 245.606V204.533H428.919V245.606H439.35ZM434.134 199.318H429.571V209.749H434.134V199.318ZM434.786 204.533V189.565H424.355V204.533H434.786ZM429.571 194.78H464.072V184.349H429.571V194.78ZM458.856 189.565V204.533H469.287V189.565H458.856ZM464.072 199.318H459.691V209.749H464.072V199.318ZM454.475 204.533V216.581H464.906V204.533H454.475ZM463.072 220.552L477.219 208.504L470.456 200.562L456.309 212.61L463.072 220.552ZM473.838 199.318H468.088V209.749H473.838V199.318ZM473.303 204.533V189.565H462.872V204.533H473.303ZM468.088 194.78H502.041V184.349H468.088V194.78ZM496.825 189.565V204.533H507.256V189.565H496.825ZM502.041 199.318H497.477V209.749H502.041V199.318ZM494.155 200.513L478.912 213.108L485.557 221.149L500.8 208.554L494.155 200.513ZM477.667 219.647L493.366 248.124L502.501 243.088L486.802 214.611L477.667 219.647Z" fill="white" mask="url(#path-4-outside-1_4146_142)"/>
<rect x="195.084" y="300.316" width="233.83" height="105.18" fill="#FFDB43"/>
<mask id="path-7-outside-2_4146_142" maskUnits="userSpaceOnUse" x="202.949" y="309.316" width="217" height="81" fill="black">
<rect fill="white" x="202.949" y="309.316" width="217" height="81"/>
<path d="M247.661 314.307H275.681V329.275H272.03L254.415 360.856V370.348H258.978V385.316H224.295V370.348H228.859V360.856L210.695 329.275H207.044V314.307H242.367V329.275H239.172L244.557 343.423H245.47L250.855 329.275H247.661V314.307ZM310.19 386.594C299.055 386.594 290.445 383.674 284.36 377.832C278.337 371.991 275.325 362.651 275.325 349.812C275.325 336.973 278.337 327.632 284.36 321.791C290.445 315.95 299.055 313.029 310.19 313.029C321.326 313.029 329.905 315.95 335.929 321.791C342.014 327.632 345.056 336.973 345.056 349.812C345.056 362.651 342.014 371.991 335.929 377.832C329.905 383.674 321.326 386.594 310.19 386.594ZM310.19 370.348C312.259 370.348 313.811 369.8 314.845 368.705C315.88 367.61 316.397 365.906 316.397 363.594V336.03C316.397 333.717 315.88 332.014 314.845 330.918C313.811 329.823 312.259 329.275 310.19 329.275C308.122 329.275 306.57 329.823 305.536 330.918C304.501 332.014 303.984 333.717 303.984 336.03V363.594C303.984 365.967 304.501 367.701 305.536 368.796C306.57 369.831 308.122 370.348 310.19 370.348ZM382.295 386.594C372.741 386.594 365.348 384.495 360.116 380.296C354.943 376.098 352.357 369.283 352.357 359.852V329.275H347.794V314.307H381.564V329.275H377.914V364.506C377.914 366.514 378.34 368.005 379.191 368.979C380.104 369.891 381.443 370.348 383.207 370.348C384.972 370.348 386.28 369.891 387.132 368.979C388.045 368.005 388.501 366.514 388.501 364.506V329.275H384.85V314.307H416.157V329.275H411.593V359.852C411.593 369.283 409.068 376.098 404.017 380.296C398.967 384.495 391.726 386.594 382.295 386.594Z"/>
</mask>
<path d="M247.661 314.307H275.681V329.275H272.03L254.415 360.856V370.348H258.978V385.316H224.295V370.348H228.859V360.856L210.695 329.275H207.044V314.307H242.367V329.275H239.172L244.557 343.423H245.47L250.855 329.275H247.661V314.307ZM310.19 386.594C299.055 386.594 290.445 383.674 284.36 377.832C278.337 371.991 275.325 362.651 275.325 349.812C275.325 336.973 278.337 327.632 284.36 321.791C290.445 315.95 299.055 313.029 310.19 313.029C321.326 313.029 329.905 315.95 335.929 321.791C342.014 327.632 345.056 336.973 345.056 349.812C345.056 362.651 342.014 371.991 335.929 377.832C329.905 383.674 321.326 386.594 310.19 386.594ZM310.19 370.348C312.259 370.348 313.811 369.8 314.845 368.705C315.88 367.61 316.397 365.906 316.397 363.594V336.03C316.397 333.717 315.88 332.014 314.845 330.918C313.811 329.823 312.259 329.275 310.19 329.275C308.122 329.275 306.57 329.823 305.536 330.918C304.501 332.014 303.984 333.717 303.984 336.03V363.594C303.984 365.967 304.501 367.701 305.536 368.796C306.57 369.831 308.122 370.348 310.19 370.348ZM382.295 386.594C372.741 386.594 365.348 384.495 360.116 380.296C354.943 376.098 352.357 369.283 352.357 359.852V329.275H347.794V314.307H381.564V329.275H377.914V364.506C377.914 366.514 378.34 368.005 379.191 368.979C380.104 369.891 381.443 370.348 383.207 370.348C384.972 370.348 386.28 369.891 387.132 368.979C388.045 368.005 388.501 366.514 388.501 364.506V329.275H384.85V314.307H416.157V329.275H411.593V359.852C411.593 369.283 409.068 376.098 404.017 380.296C398.967 384.495 391.726 386.594 382.295 386.594Z" fill="black"/>
<path d="M247.661 314.307V310.83H244.184V314.307H247.661ZM275.681 314.307H279.158V310.83H275.681V314.307ZM275.681 329.275V332.752H279.158V329.275H275.681ZM272.03 329.275V325.798H269.988L268.994 327.582L272.03 329.275ZM254.415 360.856L251.378 359.162L250.938 359.951V360.856H254.415ZM254.415 370.348H250.938V373.825H254.415V370.348ZM258.978 370.348H262.455V366.871H258.978V370.348ZM258.978 385.316V388.793H262.455V385.316H258.978ZM224.295 385.316H220.818V388.793H224.295V385.316ZM224.295 370.348V366.871H220.818V370.348H224.295ZM228.859 370.348V373.825H232.336V370.348H228.859ZM228.859 360.856H232.336V359.927L231.873 359.122L228.859 360.856ZM210.695 329.275L213.709 327.542L212.707 325.798H210.695V329.275ZM207.044 329.275H203.567V332.752H207.044V329.275ZM207.044 314.307V310.83H203.567V314.307H207.044ZM242.367 314.307H245.844V310.83H242.367V314.307ZM242.367 329.275V332.752H245.844V329.275H242.367ZM239.172 329.275V325.798H234.128L235.923 330.512L239.172 329.275ZM244.557 343.423L241.308 344.659L242.16 346.9H244.557V343.423ZM245.47 343.423V346.9H247.867L248.72 344.659L245.47 343.423ZM250.855 329.275L254.105 330.512L255.899 325.798H250.855V329.275ZM247.661 329.275H244.184V332.752H247.661V329.275ZM247.661 317.784H275.681V310.83H247.661V317.784ZM272.204 314.307V329.275H279.158V314.307H272.204ZM275.681 325.798H272.03V332.752H275.681V325.798ZM268.994 327.582L251.378 359.162L257.451 362.549L275.067 330.969L268.994 327.582ZM250.938 360.856V370.348H257.892V360.856H250.938ZM254.415 373.825H258.978V366.871H254.415V373.825ZM255.501 370.348V385.316H262.455V370.348H255.501ZM258.978 381.839H224.295V388.793H258.978V381.839ZM227.772 385.316V370.348H220.818V385.316H227.772ZM224.295 373.825H228.859V366.871H224.295V373.825ZM232.336 370.348V360.856H225.381V370.348H232.336ZM231.873 359.122L213.709 327.542L207.681 331.009L225.844 362.589L231.873 359.122ZM210.695 325.798H207.044V332.752H210.695V325.798ZM210.522 329.275V314.307H203.567V329.275H210.522ZM207.044 317.784H242.367V310.83H207.044V317.784ZM238.89 314.307V329.275H245.844V314.307H238.89ZM242.367 325.798H239.172V332.752H242.367V325.798ZM235.923 330.512L241.308 344.659L247.807 342.186L242.422 328.038L235.923 330.512ZM244.557 346.9H245.47V339.946H244.557V346.9ZM248.72 344.659L254.105 330.512L247.605 328.038L242.22 342.186L248.72 344.659ZM250.855 325.798H247.661V332.752H250.855V325.798ZM251.138 329.275V314.307H244.184V329.275H251.138ZM284.36 377.832L281.94 380.328L281.946 380.334L281.953 380.34L284.36 377.832ZM284.36 321.791L281.953 319.283L281.946 319.289L281.94 319.295L284.36 321.791ZM335.929 321.791L333.509 324.287L333.515 324.293L333.521 324.299L335.929 321.791ZM335.929 377.832L333.521 375.324L333.515 375.33L333.509 375.336L335.929 377.832ZM314.845 368.705L317.373 371.092L317.373 371.092L314.845 368.705ZM314.845 330.918L317.373 328.531L317.373 328.531L314.845 330.918ZM305.536 330.918L308.063 333.306L308.063 333.306L305.536 330.918ZM305.536 368.796L303.008 371.184L303.042 371.22L303.077 371.255L305.536 368.796ZM310.19 383.117C299.657 383.117 292.02 380.365 286.768 375.324L281.953 380.34C288.871 386.982 298.454 390.071 310.19 390.071V383.117ZM286.781 375.336C281.718 370.427 278.802 362.201 278.802 349.812H271.847C271.847 363.1 274.955 373.555 281.94 380.328L286.781 375.336ZM278.802 349.812C278.802 337.422 281.718 329.197 286.781 324.287L281.94 319.295C274.955 326.068 271.847 336.523 271.847 349.812H278.802ZM286.768 324.299C292.02 319.258 299.657 316.506 310.19 316.506V309.552C298.454 309.552 288.871 312.641 281.953 319.283L286.768 324.299ZM310.19 316.506C320.726 316.506 328.323 319.259 333.509 324.287L338.35 319.295C331.487 312.64 321.925 309.552 310.19 309.552V316.506ZM333.521 324.299C338.636 329.21 341.579 337.431 341.579 349.812H348.533C348.533 336.515 345.391 326.055 338.337 319.283L333.521 324.299ZM341.579 349.812C341.579 362.192 338.636 370.413 333.521 375.324L338.337 380.34C345.391 373.568 348.533 363.109 348.533 349.812H341.579ZM333.509 375.336C328.323 380.364 320.726 383.117 310.19 383.117V390.071C321.925 390.071 331.487 386.983 338.35 380.328L333.509 375.336ZM310.19 373.825C312.848 373.825 315.466 373.112 317.373 371.092L312.317 366.317C312.156 366.489 311.671 366.871 310.19 366.871V373.825ZM317.373 371.092C319.273 369.08 319.874 366.333 319.874 363.594H312.92C312.92 365.479 312.486 366.139 312.317 366.317L317.373 371.092ZM319.874 363.594V336.03H312.92V363.594H319.874ZM319.874 336.03C319.874 333.29 319.273 330.543 317.373 328.531L312.317 333.306C312.486 333.484 312.92 334.144 312.92 336.03H319.874ZM317.373 328.531C315.466 326.511 312.848 325.798 310.19 325.798V332.752C311.671 332.752 312.156 333.135 312.317 333.306L317.373 328.531ZM310.19 325.798C307.533 325.798 304.915 326.511 303.008 328.531L308.063 333.306C308.225 333.135 308.71 332.752 310.19 332.752V325.798ZM303.008 328.531C301.108 330.543 300.507 333.29 300.507 336.03H307.461C307.461 334.144 307.895 333.484 308.063 333.306L303.008 328.531ZM300.507 336.03V363.594H307.461V336.03H300.507ZM300.507 363.594C300.507 366.364 301.094 369.158 303.008 371.184L308.063 366.409C307.908 366.244 307.461 365.569 307.461 363.594H300.507ZM303.077 371.255C304.993 373.171 307.586 373.825 310.19 373.825V366.871C308.658 366.871 308.147 366.49 307.994 366.338L303.077 371.255ZM360.116 380.296L357.924 382.996L357.932 383.002L357.94 383.008L360.116 380.296ZM352.357 329.275H355.834V325.798H352.357V329.275ZM347.794 329.275H344.317V332.752H347.794V329.275ZM347.794 314.307V310.83H344.317V314.307H347.794ZM381.564 314.307H385.041V310.83H381.564V314.307ZM381.564 329.275V332.752H385.041V329.275H381.564ZM377.914 329.275V325.798H374.437V329.275H377.914ZM379.191 368.979L376.575 371.268L376.651 371.355L376.733 371.437L379.191 368.979ZM387.132 368.979L384.595 366.601L384.59 366.606L387.132 368.979ZM388.501 329.275H391.978V325.798H388.501V329.275ZM384.85 329.275H381.373V332.752H384.85V329.275ZM384.85 314.307V310.83H381.373V314.307H384.85ZM416.157 314.307H419.634V310.83H416.157V314.307ZM416.157 329.275V332.752H419.634V329.275H416.157ZM411.593 329.275V325.798H408.116V329.275H411.593ZM404.017 380.296L401.795 377.623L404.017 380.296ZM382.295 383.117C373.205 383.117 366.693 381.116 362.291 377.584L357.94 383.008C364.004 387.874 372.278 390.071 382.295 390.071V383.117ZM362.307 377.597C358.246 374.3 355.834 368.691 355.834 359.852H348.88C348.88 369.875 351.641 377.896 357.924 382.996L362.307 377.597ZM355.834 359.852V329.275H348.88V359.852H355.834ZM352.357 325.798H347.794V332.752H352.357V325.798ZM351.271 329.275V314.307H344.317V329.275H351.271ZM347.794 317.784H381.564V310.83H347.794V317.784ZM378.087 314.307V329.275H385.041V314.307H378.087ZM381.564 325.798H377.914V332.752H381.564V325.798ZM374.437 329.275V364.506H381.391V329.275H374.437ZM374.437 364.506C374.437 366.912 374.932 369.392 376.575 371.268L381.808 366.689C381.747 366.619 381.391 366.117 381.391 364.506H374.437ZM376.733 371.437C378.507 373.212 380.867 373.825 383.207 373.825V366.871C382.018 366.871 381.701 366.571 381.65 366.52L376.733 371.437ZM383.207 373.825C385.528 373.825 387.93 373.219 389.674 371.351L384.59 366.606C384.59 366.607 384.548 366.659 384.367 366.723C384.166 366.793 383.801 366.871 383.207 366.871V373.825ZM389.669 371.357C391.429 369.479 391.978 366.962 391.978 364.506H385.024C385.024 366.067 384.66 366.531 384.595 366.601L389.669 371.357ZM391.978 364.506V329.275H385.024V364.506H391.978ZM388.501 325.798H384.85V332.752H388.501V325.798ZM388.327 329.275V314.307H381.373V329.275H388.327ZM384.85 317.784H416.157V310.83H384.85V317.784ZM412.68 314.307V329.275H419.634V314.307H412.68ZM416.157 325.798H411.593V332.752H416.157V325.798ZM408.116 329.275V359.852H415.07V329.275H408.116ZM408.116 359.852C408.116 368.716 405.75 374.334 401.795 377.623L406.24 382.97C412.385 377.862 415.07 369.85 415.07 359.852H408.116ZM401.795 377.623C397.591 381.117 391.261 383.117 382.295 383.117V390.071C392.191 390.071 400.343 387.873 406.24 382.97L401.795 377.623Z" fill="white" mask="url(#path-7-outside-2_4146_142)"/>
</svg>
