<svg width="380" height="619" viewBox="0 0 380 619" fill="none" xmlns="http://www.w3.org/2000/svg">
<path d="M0.507812 0.867188H379.231V618.639L189.87 458.807L0.507812 618.639V0.867188Z" fill="white"/>
<path d="M22.6348 0.867188H357.027V565.693L189.831 419.559L22.6348 565.693V0.867188Z" fill="#FFADBB"/>
<g filter="url(#filter0_d_4239_1553)">
<mask id="path-3-outside-1_4239_1553" maskUnits="userSpaceOnUse" x="110.035" y="276.285" width="160" height="70" fill="black">
<rect fill="white" x="110.035" y="276.285" width="160" height="70"/>
<path d="M127.54 334.504C125.452 334.504 123.802 333.897 122.588 332.683C121.375 331.47 120.768 329.819 120.768 327.732V290.088C121.302 289.99 122.151 289.869 123.316 289.723C124.481 289.529 125.598 289.432 126.666 289.432C127.782 289.432 128.753 289.529 129.578 289.723C130.452 289.869 131.18 290.16 131.763 290.597C132.345 291.034 132.782 291.641 133.073 292.418C133.365 293.194 133.51 294.214 133.51 295.476V324.237H150.185C150.524 324.771 150.84 325.499 151.131 326.421C151.422 327.295 151.568 328.217 151.568 329.188C151.568 331.13 151.155 332.513 150.33 333.339C149.505 334.115 148.413 334.504 147.054 334.504H127.54ZM153.71 312.15C153.71 308.364 154.293 305.014 155.458 302.102C156.671 299.189 158.298 296.762 160.336 294.82C162.424 292.83 164.851 291.325 167.618 290.306C170.433 289.287 173.467 288.777 176.719 288.777C179.972 288.777 182.981 289.287 185.748 290.306C188.564 291.325 191.015 292.83 193.102 294.82C195.19 296.762 196.816 299.189 197.981 302.102C199.194 305.014 199.801 308.364 199.801 312.15C199.801 315.936 199.219 319.31 198.054 322.271C196.889 325.183 195.262 327.635 193.175 329.625C191.136 331.567 188.709 333.047 185.894 334.067C183.078 335.086 180.02 335.596 176.719 335.596C173.418 335.596 170.36 335.086 167.545 334.067C164.729 332.999 162.302 331.47 160.264 329.479C158.225 327.489 156.623 325.038 155.458 322.125C154.293 319.213 153.71 315.888 153.71 312.15ZM166.817 312.15C166.817 316.567 167.715 319.868 169.511 322.053C171.307 324.237 173.71 325.329 176.719 325.329C179.777 325.329 182.205 324.237 184.001 322.053C185.797 319.868 186.695 316.567 186.695 312.15C186.695 307.781 185.797 304.505 184.001 302.32C182.253 300.136 179.85 299.044 176.792 299.044C173.783 299.044 171.355 300.136 169.511 302.32C167.715 304.456 166.817 307.733 166.817 312.15ZM203.773 300.354C203.433 299.82 203.118 299.092 202.826 298.17C202.535 297.247 202.389 296.277 202.389 295.257C202.389 293.364 202.802 292.005 203.627 291.18C204.501 290.354 205.617 289.942 206.977 289.942H238.723C239.063 290.476 239.379 291.204 239.67 292.126C239.961 293.049 240.107 294.019 240.107 295.039C240.107 296.932 239.67 298.291 238.796 299.116C237.971 299.942 236.879 300.354 235.519 300.354H227.437V333.994C226.903 334.14 226.054 334.285 224.889 334.431C223.772 334.576 222.656 334.649 221.539 334.649C220.423 334.649 219.428 334.552 218.554 334.358C217.729 334.212 217.025 333.921 216.442 333.484C215.86 333.047 215.423 332.441 215.132 331.664C214.84 330.887 214.695 329.868 214.695 328.606V300.354H203.773ZM258.795 292.053C258.795 293.17 258.771 294.796 258.722 296.932C258.674 299.019 258.577 301.301 258.431 303.776C258.286 306.204 258.091 308.655 257.849 311.131C257.606 313.558 257.315 315.669 256.975 317.465C256.781 317.611 256.489 317.757 256.101 317.902C255.713 318.048 255.3 318.169 254.863 318.266C254.426 318.363 253.99 318.436 253.553 318.485C253.116 318.533 252.727 318.557 252.388 318.557C250.98 318.557 249.791 318.339 248.82 317.902C247.897 317.465 247.315 316.616 247.072 315.354C246.83 314.237 246.611 312.538 246.417 310.257C246.271 307.975 246.126 305.5 245.98 302.83C245.834 300.16 245.713 297.514 245.616 294.893C245.567 292.272 245.543 290.039 245.543 288.194C246.514 287.66 247.606 287.248 248.82 286.957C250.082 286.617 251.32 286.447 252.533 286.447C254.524 286.447 256.053 286.908 257.121 287.83C258.237 288.753 258.795 290.16 258.795 292.053ZM245.398 328.751C245.398 326.761 246.004 325.135 247.218 323.873C248.48 322.562 250.203 321.907 252.388 321.907C254.572 321.907 256.271 322.562 257.485 323.873C258.747 325.135 259.378 326.761 259.378 328.751C259.378 330.742 258.747 332.392 257.485 333.703C256.271 334.965 254.572 335.596 252.388 335.596C250.203 335.596 248.48 334.965 247.218 333.703C246.004 332.392 245.398 330.742 245.398 328.751Z"/>
</mask>
<path d="M127.54 334.504C125.452 334.504 123.802 333.897 122.588 332.683C121.375 331.47 120.768 329.819 120.768 327.732V290.088C121.302 289.99 122.151 289.869 123.316 289.723C124.481 289.529 125.598 289.432 126.666 289.432C127.782 289.432 128.753 289.529 129.578 289.723C130.452 289.869 131.18 290.16 131.763 290.597C132.345 291.034 132.782 291.641 133.073 292.418C133.365 293.194 133.51 294.214 133.51 295.476V324.237H150.185C150.524 324.771 150.84 325.499 151.131 326.421C151.422 327.295 151.568 328.217 151.568 329.188C151.568 331.13 151.155 332.513 150.33 333.339C149.505 334.115 148.413 334.504 147.054 334.504H127.54ZM153.71 312.15C153.71 308.364 154.293 305.014 155.458 302.102C156.671 299.189 158.298 296.762 160.336 294.82C162.424 292.83 164.851 291.325 167.618 290.306C170.433 289.287 173.467 288.777 176.719 288.777C179.972 288.777 182.981 289.287 185.748 290.306C188.564 291.325 191.015 292.83 193.102 294.82C195.19 296.762 196.816 299.189 197.981 302.102C199.194 305.014 199.801 308.364 199.801 312.15C199.801 315.936 199.219 319.31 198.054 322.271C196.889 325.183 195.262 327.635 193.175 329.625C191.136 331.567 188.709 333.047 185.894 334.067C183.078 335.086 180.02 335.596 176.719 335.596C173.418 335.596 170.36 335.086 167.545 334.067C164.729 332.999 162.302 331.47 160.264 329.479C158.225 327.489 156.623 325.038 155.458 322.125C154.293 319.213 153.71 315.888 153.71 312.15ZM166.817 312.15C166.817 316.567 167.715 319.868 169.511 322.053C171.307 324.237 173.71 325.329 176.719 325.329C179.777 325.329 182.205 324.237 184.001 322.053C185.797 319.868 186.695 316.567 186.695 312.15C186.695 307.781 185.797 304.505 184.001 302.32C182.253 300.136 179.85 299.044 176.792 299.044C173.783 299.044 171.355 300.136 169.511 302.32C167.715 304.456 166.817 307.733 166.817 312.15ZM203.773 300.354C203.433 299.82 203.118 299.092 202.826 298.17C202.535 297.247 202.389 296.277 202.389 295.257C202.389 293.364 202.802 292.005 203.627 291.18C204.501 290.354 205.617 289.942 206.977 289.942H238.723C239.063 290.476 239.379 291.204 239.67 292.126C239.961 293.049 240.107 294.019 240.107 295.039C240.107 296.932 239.67 298.291 238.796 299.116C237.971 299.942 236.879 300.354 235.519 300.354H227.437V333.994C226.903 334.14 226.054 334.285 224.889 334.431C223.772 334.576 222.656 334.649 221.539 334.649C220.423 334.649 219.428 334.552 218.554 334.358C217.729 334.212 217.025 333.921 216.442 333.484C215.86 333.047 215.423 332.441 215.132 331.664C214.84 330.887 214.695 329.868 214.695 328.606V300.354H203.773ZM258.795 292.053C258.795 293.17 258.771 294.796 258.722 296.932C258.674 299.019 258.577 301.301 258.431 303.776C258.286 306.204 258.091 308.655 257.849 311.131C257.606 313.558 257.315 315.669 256.975 317.465C256.781 317.611 256.489 317.757 256.101 317.902C255.713 318.048 255.3 318.169 254.863 318.266C254.426 318.363 253.99 318.436 253.553 318.485C253.116 318.533 252.727 318.557 252.388 318.557C250.98 318.557 249.791 318.339 248.82 317.902C247.897 317.465 247.315 316.616 247.072 315.354C246.83 314.237 246.611 312.538 246.417 310.257C246.271 307.975 246.126 305.5 245.98 302.83C245.834 300.16 245.713 297.514 245.616 294.893C245.567 292.272 245.543 290.039 245.543 288.194C246.514 287.66 247.606 287.248 248.82 286.957C250.082 286.617 251.32 286.447 252.533 286.447C254.524 286.447 256.053 286.908 257.121 287.83C258.237 288.753 258.795 290.16 258.795 292.053ZM245.398 328.751C245.398 326.761 246.004 325.135 247.218 323.873C248.48 322.562 250.203 321.907 252.388 321.907C254.572 321.907 256.271 322.562 257.485 323.873C258.747 325.135 259.378 326.761 259.378 328.751C259.378 330.742 258.747 332.392 257.485 333.703C256.271 334.965 254.572 335.596 252.388 335.596C250.203 335.596 248.48 334.965 247.218 333.703C246.004 332.392 245.398 330.742 245.398 328.751Z" fill="#FF91A4"/>
<path d="M122.588 332.683L129.673 325.598L129.673 325.598L122.588 332.683ZM120.768 290.088L118.976 280.229L110.748 281.725V290.088H120.768ZM123.316 289.723L124.559 299.666L124.762 299.64L124.964 299.607L123.316 289.723ZM129.578 289.723L127.283 299.477L127.605 299.553L127.931 299.607L129.578 289.723ZM131.763 290.597L125.751 298.613L125.751 298.613L131.763 290.597ZM133.073 292.418L142.455 288.899L142.455 288.899L133.073 292.418ZM133.51 324.237H123.491V334.257H133.51V324.237ZM150.185 324.237L158.638 318.858L155.685 314.217H150.185V324.237ZM151.131 326.421L141.576 329.439L141.6 329.514L141.626 329.59L151.131 326.421ZM150.33 333.339L157.197 340.635L157.308 340.531L157.415 340.424L150.33 333.339ZM127.54 324.484C127.46 324.484 127.726 324.472 128.194 324.644C128.697 324.829 129.228 325.152 129.673 325.598L115.503 339.768C118.989 343.254 123.407 344.523 127.54 344.523V324.484ZM129.673 325.598C130.119 326.044 130.442 326.575 130.627 327.078C130.799 327.545 130.788 327.811 130.788 327.732H110.748C110.748 331.864 112.018 336.283 115.503 339.768L129.673 325.598ZM130.788 327.732V290.088H110.748V327.732H130.788ZM122.56 299.946C122.802 299.902 123.418 299.808 124.559 299.666L122.074 279.781C120.885 279.93 119.802 280.079 118.976 280.229L122.56 299.946ZM124.964 299.607C125.641 299.494 126.204 299.452 126.666 299.452V279.412C124.992 279.412 123.322 279.565 121.669 279.84L124.964 299.607ZM126.666 299.452C126.938 299.452 127.123 299.464 127.234 299.475C127.347 299.486 127.356 299.494 127.283 299.477L131.873 279.97C130.102 279.553 128.327 279.412 126.666 279.412V299.452ZM127.931 299.607C127.56 299.545 126.702 299.326 125.751 298.613L137.775 282.581C135.659 280.994 133.344 280.193 131.226 279.84L127.931 299.607ZM125.751 298.613C124.599 297.749 123.976 296.693 123.692 295.936L142.455 288.899C141.589 286.588 140.091 284.319 137.775 282.581L125.751 298.613ZM123.692 295.936C123.53 295.506 123.488 295.225 123.482 295.182C123.475 295.131 123.491 295.217 123.491 295.476H143.53C143.53 293.574 143.329 291.228 142.455 288.899L123.692 295.936ZM123.491 295.476V324.237H143.53V295.476H123.491ZM133.51 334.257H150.185V314.217H133.51V334.257ZM141.731 329.616C141.641 329.474 141.579 329.362 141.542 329.291C141.505 329.219 141.486 329.176 141.482 329.167C141.479 329.159 141.486 329.176 141.504 329.223C141.521 329.271 141.546 329.341 141.576 329.439L160.686 323.404C160.255 322.039 159.624 320.406 158.638 318.858L141.731 329.616ZM141.626 329.59C141.594 329.496 141.574 329.408 141.562 329.331C141.55 329.255 141.548 329.205 141.548 329.188H161.588C161.588 327.199 161.287 325.202 160.637 323.253L141.626 329.59ZM141.548 329.188C141.548 329.5 141.509 329.313 141.657 328.818C141.815 328.288 142.234 327.265 143.245 326.254L157.415 340.424C161.039 336.8 161.588 332.118 161.588 329.188H141.548ZM143.463 326.042C144.083 325.459 144.806 325.031 145.535 324.772C146.235 324.523 146.783 324.484 147.054 324.484V344.523C150.425 344.523 154.155 343.499 157.197 340.635L143.463 326.042ZM147.054 324.484H127.54V344.523H147.054V324.484ZM155.458 302.102L146.209 298.248L146.181 298.314L146.155 298.38L155.458 302.102ZM160.336 294.82L167.247 302.076L167.251 302.072L160.336 294.82ZM167.618 290.306L164.207 280.885L164.18 280.894L164.154 280.904L167.618 290.306ZM185.748 290.306L182.284 299.708L182.311 299.718L182.337 299.727L185.748 290.306ZM193.102 294.82L186.188 302.072L186.233 302.115L186.278 302.157L193.102 294.82ZM197.981 302.102L188.678 305.823L188.704 305.889L188.732 305.955L197.981 302.102ZM198.054 322.271L207.357 325.992L207.367 325.966L207.378 325.939L198.054 322.271ZM193.175 329.625L200.085 336.881L200.089 336.877L193.175 329.625ZM185.894 334.067L182.483 324.645L185.894 334.067ZM167.545 334.067L163.991 343.435L164.062 343.462L164.134 343.488L167.545 334.067ZM160.264 329.479L153.264 336.649L153.264 336.649L160.264 329.479ZM155.458 322.125L164.761 318.404L164.761 318.404L155.458 322.125ZM169.511 322.053L177.25 315.689L177.25 315.689L169.511 322.053ZM184.001 322.053L176.261 315.689L176.261 315.689L184.001 322.053ZM184.001 302.32L176.177 308.579L176.218 308.632L176.261 308.684L184.001 302.32ZM169.511 302.32L161.855 295.856L161.849 295.863L161.842 295.871L169.511 302.32ZM163.73 312.15C163.73 309.381 164.156 307.334 164.761 305.823L146.155 298.38C144.429 302.694 143.691 307.346 143.691 312.15H163.73ZM164.707 305.955C165.45 304.172 166.33 302.949 167.247 302.076L153.426 287.565C150.265 290.575 147.893 294.207 146.209 298.248L164.707 305.955ZM167.251 302.072C168.324 301.048 169.57 300.265 171.082 299.708L164.154 280.904C160.131 282.386 156.523 284.612 153.422 287.569L167.251 302.072ZM171.029 299.727C172.66 299.137 174.53 298.797 176.719 298.797V278.757C172.404 278.757 168.206 279.437 164.207 280.885L171.029 299.727ZM176.719 298.797C178.911 298.797 180.735 299.137 182.284 299.708L189.212 280.904C185.228 279.436 181.032 278.757 176.719 278.757V298.797ZM182.337 299.727C183.898 300.292 185.144 301.077 186.188 302.072L200.017 287.569C196.886 284.584 193.229 282.358 189.159 280.885L182.337 299.727ZM186.278 302.157C187.177 302.994 188.006 304.144 188.678 305.823L207.284 298.38C205.625 294.234 203.202 290.531 199.927 287.484L186.278 302.157ZM188.732 305.955C189.346 307.429 189.781 309.428 189.781 312.15H209.821C209.821 307.3 209.043 302.6 207.23 298.248L188.732 305.955ZM189.781 312.15C189.781 314.914 189.357 317.009 188.73 318.602L207.378 325.939C209.081 321.611 209.821 316.959 209.821 312.15H189.781ZM188.751 318.55C188.072 320.246 187.219 321.459 186.261 322.373L200.089 336.877C203.306 333.81 205.705 330.121 207.357 325.992L188.751 318.55ZM186.265 322.369C185.293 323.295 184.079 324.068 182.483 324.645L189.305 343.488C193.34 342.027 196.98 339.839 200.085 336.881L186.265 322.369ZM182.483 324.645C180.867 325.23 178.976 325.576 176.719 325.576V345.616C181.065 345.616 185.289 344.942 189.305 343.488L182.483 324.645ZM176.719 325.576C174.463 325.576 172.571 325.23 170.956 324.645L164.134 343.488C168.149 344.942 172.374 345.616 176.719 345.616V325.576ZM171.098 324.698C169.496 324.09 168.261 323.284 167.263 322.31L153.264 336.649C156.344 339.656 159.963 341.907 163.991 343.435L171.098 324.698ZM167.263 322.31C166.321 321.39 165.46 320.151 164.761 318.404L146.155 325.847C147.786 329.925 150.129 333.588 153.264 336.649L167.263 322.31ZM164.761 318.404C164.151 316.878 163.73 314.852 163.73 312.15H143.691C143.691 316.923 144.435 321.547 146.155 325.847L164.761 318.404ZM156.797 312.15C156.797 317.655 157.872 323.674 161.771 328.416L177.25 315.689C177.42 315.895 177.312 315.873 177.159 315.308C176.999 314.722 176.836 313.714 176.836 312.15H156.797ZM161.771 328.416C165.606 333.08 170.933 335.349 176.719 335.349V315.309C176.573 315.309 176.526 315.296 176.558 315.303C176.593 315.31 176.683 315.332 176.806 315.388C176.93 315.445 177.044 315.515 177.136 315.587C177.225 315.657 177.261 315.702 177.25 315.689L161.771 328.416ZM176.719 335.349C182.496 335.349 187.871 333.122 191.74 328.416L176.261 315.689C176.258 315.693 176.299 315.642 176.393 315.57C176.489 315.495 176.603 315.426 176.722 315.373C176.839 315.32 176.919 315.301 176.938 315.297C176.953 315.294 176.887 315.309 176.719 315.309V335.349ZM191.74 328.416C195.639 323.674 196.714 317.655 196.714 312.15H176.675C176.675 313.714 176.512 314.722 176.353 315.308C176.199 315.873 176.091 315.895 176.261 315.689L191.74 328.416ZM196.714 312.15C196.714 306.661 195.626 300.683 191.74 295.957L176.261 308.684C176.102 308.49 176.208 308.517 176.358 309.064C176.514 309.635 176.675 310.619 176.675 312.15H196.714ZM191.825 296.061C187.982 291.257 182.57 289.024 176.792 289.024V309.063C177.116 309.063 177.033 309.117 176.742 308.984C176.605 308.922 176.473 308.841 176.358 308.751C176.246 308.662 176.188 308.594 176.177 308.579L191.825 296.061ZM176.792 289.024C171.009 289.024 165.716 291.284 161.855 295.856L177.166 308.785C177.192 308.754 177.173 308.782 177.102 308.837C177.029 308.893 176.933 308.952 176.826 309C176.72 309.048 176.644 309.067 176.618 309.072C176.595 309.076 176.647 309.063 176.792 309.063V289.024ZM161.842 295.871C157.862 300.605 156.797 306.671 156.797 312.15H176.836C176.836 310.584 177 309.59 177.154 309.028C177.302 308.488 177.393 308.515 177.18 308.769L161.842 295.871ZM203.773 300.354L195.32 305.734L198.273 310.374H203.773V300.354ZM202.826 298.17L193.272 301.187L193.272 301.187L202.826 298.17ZM203.627 291.18L196.747 283.895L196.643 283.993L196.542 284.095L203.627 291.18ZM238.723 289.942L247.176 284.562L244.224 279.922H238.723V289.942ZM239.67 292.126L249.224 289.109L249.224 289.109L239.67 292.126ZM238.796 299.116L231.916 291.832L231.812 291.93L231.711 292.031L238.796 299.116ZM227.437 300.354V290.334H217.417V300.354H227.437ZM227.437 333.994L230.074 343.661L237.457 341.647V333.994H227.437ZM224.889 334.431L223.646 324.488L223.619 324.492L223.593 324.495L224.889 334.431ZM218.554 334.358L220.728 324.577L220.512 324.529L220.295 324.491L218.554 334.358ZM216.442 333.484L222.454 325.468L216.442 333.484ZM215.132 331.664L205.75 335.182L205.75 335.182L215.132 331.664ZM214.695 300.354H224.715V290.334H214.695V300.354ZM212.226 294.975C212.316 295.117 212.378 295.229 212.415 295.3C212.452 295.372 212.471 295.415 212.475 295.424C212.479 295.432 212.471 295.415 212.454 295.368C212.436 295.32 212.412 295.25 212.381 295.153L193.272 301.187C193.703 302.553 194.334 304.185 195.32 305.734L212.226 294.975ZM212.381 295.153C212.396 295.199 212.404 295.238 212.408 295.264C212.411 295.289 212.409 295.288 212.409 295.257H192.37C192.37 297.245 192.656 299.237 193.272 301.187L212.381 295.153ZM212.409 295.257C212.409 294.99 212.444 295.21 212.287 295.729C212.117 296.286 211.691 297.286 210.712 298.265L196.542 284.095C192.956 287.681 192.37 292.289 192.37 295.257H212.409ZM210.507 298.464C209.972 298.969 209.314 299.383 208.593 299.65C207.894 299.908 207.316 299.962 206.977 299.962V279.922C203.421 279.922 199.729 281.08 196.747 283.895L210.507 298.464ZM206.977 299.962H238.723V279.922H206.977V299.962ZM230.27 295.321C230.18 295.179 230.118 295.067 230.081 294.996C230.044 294.924 230.025 294.881 230.021 294.872C230.017 294.864 230.025 294.881 230.042 294.928C230.06 294.976 230.084 295.046 230.115 295.144L249.224 289.109C248.793 287.743 248.162 286.111 247.176 284.562L230.27 295.321ZM230.115 295.144C230.1 295.097 230.092 295.058 230.089 295.032C230.085 295.007 230.087 295.008 230.087 295.039H250.126C250.126 293.051 249.84 291.059 249.224 289.109L230.115 295.144ZM230.087 295.039C230.087 295.262 230.055 294.986 230.24 294.412C230.441 293.786 230.914 292.779 231.916 291.832L245.676 306.401C249.454 302.832 250.126 298.139 250.126 295.039H230.087ZM231.711 292.031C232.304 291.438 233.033 290.968 233.817 290.672C234.572 290.386 235.185 290.334 235.519 290.334V310.374C239.063 310.374 242.867 309.215 245.881 306.201L231.711 292.031ZM235.519 290.334H227.437V310.374H235.519V290.334ZM217.417 300.354V333.994H237.457V300.354H217.417ZM224.801 324.327C224.9 324.3 224.944 324.292 224.913 324.298C224.887 324.304 224.821 324.317 224.707 324.337C224.474 324.377 224.128 324.428 223.646 324.488L226.131 344.373C227.367 344.219 228.812 344.005 230.074 343.661L224.801 324.327ZM223.593 324.495C222.902 324.585 222.219 324.629 221.539 324.629V344.669C223.093 344.669 224.642 344.568 226.185 344.366L223.593 324.495ZM221.539 324.629C221.269 324.629 221.068 324.618 220.929 324.604C220.789 324.59 220.726 324.576 220.728 324.577L216.38 344.139C218.118 344.525 219.863 344.669 221.539 344.669V324.629ZM220.295 324.491C220.785 324.577 221.601 324.828 222.454 325.468L210.431 341.5C212.449 343.014 214.673 343.848 216.813 344.225L220.295 324.491ZM222.454 325.468C223.606 326.332 224.229 327.388 224.514 328.146L205.75 335.182C206.617 337.493 208.114 339.763 210.431 341.5L222.454 325.468ZM224.514 328.146C224.675 328.576 224.717 328.856 224.723 328.9C224.73 328.95 224.715 328.864 224.715 328.606H204.675C204.675 330.508 204.877 332.853 205.75 335.182L224.514 328.146ZM224.715 328.606V300.354H204.675V328.606H224.715ZM214.695 290.334H203.773V310.374H214.695V290.334ZM258.722 296.932L268.739 297.165L268.74 297.16L258.722 296.932ZM258.431 303.776L268.433 304.377L268.434 304.365L258.431 303.776ZM257.849 311.131L267.819 312.128L267.82 312.118L267.821 312.108L257.849 311.131ZM256.975 317.465L262.987 325.481L266.097 323.148L266.82 319.328L256.975 317.465ZM256.101 317.902L259.619 327.284L259.619 327.284L256.101 317.902ZM254.863 318.266L257.037 328.047L257.037 328.047L254.863 318.266ZM248.82 317.902L244.53 326.957L244.619 326.999L244.708 327.039L248.82 317.902ZM247.072 315.354L256.912 313.462L256.889 313.343L256.863 313.225L247.072 315.354ZM246.417 310.257L236.418 310.895L236.424 311.001L236.433 311.106L246.417 310.257ZM245.98 302.83L255.985 302.284L255.985 302.284L245.98 302.83ZM245.616 294.893L235.598 295.079L235.6 295.171L235.603 295.264L245.616 294.893ZM245.543 288.194L240.714 279.415L235.523 282.27V288.194H245.543ZM248.82 286.957L251.158 296.7L251.292 296.668L251.425 296.632L248.82 286.957ZM257.121 287.83L250.571 295.413L250.654 295.485L250.739 295.555L257.121 287.83ZM247.218 323.873L240 316.923L239.995 316.928L247.218 323.873ZM257.485 323.873L250.132 330.68L250.263 330.822L250.4 330.958L257.485 323.873ZM257.485 333.703L250.267 326.753L250.262 326.758L257.485 333.703ZM247.218 333.703L239.866 340.51L239.997 340.651L240.133 340.788L247.218 333.703ZM248.775 292.053C248.775 293.054 248.753 294.589 248.705 296.704L268.74 297.16C268.789 295.003 268.815 293.286 268.815 292.053H248.775ZM248.705 296.699C248.66 298.648 248.569 300.81 248.429 303.188L268.434 304.365C268.585 301.792 268.688 299.39 268.739 297.165L248.705 296.699ZM248.429 303.176C248.291 305.475 248.107 307.8 247.877 310.153L267.821 312.108C268.075 309.51 268.28 306.932 268.433 304.377L248.429 303.176ZM247.879 310.134C247.656 312.36 247.401 314.17 247.13 315.603L266.82 319.328C267.228 317.169 267.556 314.756 267.819 312.128L247.879 310.134ZM250.963 309.449C251.478 309.063 251.907 308.833 252.13 308.722C252.369 308.602 252.533 308.539 252.583 308.52L259.619 327.284C260.364 327.005 261.679 326.462 262.987 325.481L250.963 309.449ZM252.583 308.52C252.666 308.489 252.705 308.482 252.69 308.485L257.037 328.047C257.895 327.857 258.76 327.606 259.619 327.284L252.583 308.52ZM252.69 308.485C252.599 308.505 252.518 308.518 252.446 308.526L254.659 328.443C255.461 328.354 256.254 328.221 257.037 328.047L252.69 308.485ZM252.446 308.526C252.368 308.535 252.323 308.538 252.309 308.539C252.302 308.539 252.305 308.539 252.318 308.539C252.33 308.538 252.354 308.538 252.388 308.538V328.577C253.186 328.577 253.955 328.521 254.659 328.443L252.446 308.526ZM252.388 308.538C252.195 308.538 252.16 308.522 252.25 308.539C252.343 308.556 252.59 308.611 252.932 308.765L244.708 327.039C247.317 328.213 249.997 328.577 252.388 328.577V308.538ZM253.109 308.847C254.265 309.394 255.254 310.249 255.955 311.271C256.61 312.227 256.835 313.064 256.912 313.462L237.233 317.246C237.905 320.74 239.981 324.802 244.53 326.957L253.109 308.847ZM256.863 313.225C256.763 312.766 256.587 311.595 256.401 309.407L236.433 311.106C236.635 313.481 236.896 315.709 237.281 317.482L256.863 313.225ZM256.416 309.619C256.273 307.373 256.129 304.928 255.985 302.284L235.975 303.376C236.122 306.071 236.27 308.578 236.418 310.895L256.416 309.619ZM255.985 302.284C255.842 299.671 255.724 297.084 255.629 294.522L235.603 295.264C235.702 297.945 235.826 300.649 235.975 303.376L255.985 302.284ZM255.634 294.708C255.586 292.125 255.563 289.957 255.563 288.194H235.523C235.523 290.12 235.549 292.419 235.598 295.079L255.634 294.708ZM250.372 296.974C250.468 296.921 250.706 296.808 251.158 296.7L246.481 277.213C244.506 277.687 242.56 278.4 240.714 279.415L250.372 296.974ZM251.425 296.632C251.902 296.503 252.264 296.467 252.533 296.467V276.427C250.375 276.427 248.261 276.73 246.215 277.281L251.425 296.632ZM252.533 296.467C253.097 296.467 251.947 296.602 250.571 295.413L263.67 280.247C260.158 277.214 255.95 276.427 252.533 276.427V296.467ZM250.739 295.555C249.935 294.891 249.376 294.062 249.062 293.271C248.775 292.546 248.775 292.067 248.775 292.053H268.815C268.815 288.158 267.588 283.481 263.502 280.105L250.739 295.555ZM255.417 328.751C255.417 328.779 255.411 329.083 255.24 329.542C255.06 330.024 254.774 330.47 254.44 330.818L239.995 316.928C236.738 320.316 235.378 324.555 235.378 328.751H255.417ZM254.435 330.823C254.027 331.247 253.52 331.573 253.018 331.764C252.554 331.941 252.292 331.927 252.388 331.927V311.887C248.068 311.887 243.524 313.264 240 316.923L254.435 330.823ZM252.388 331.927C252.487 331.927 252.2 331.942 251.694 331.747C251.146 331.535 250.585 331.169 250.132 330.68L264.837 317.065C261.315 313.262 256.693 311.887 252.388 311.887V331.927ZM250.4 330.958C250.07 330.628 249.763 330.179 249.563 329.664C249.372 329.17 249.358 328.823 249.358 328.751H269.397C269.397 324.438 267.935 320.153 264.57 316.788L250.4 330.958ZM249.358 328.751C249.358 328.677 249.373 328.356 249.545 327.903C249.725 327.435 249.994 327.037 250.267 326.753L264.702 340.653C267.938 337.292 269.397 333.068 269.397 328.751H249.358ZM250.262 326.758C250.737 326.264 251.299 325.92 251.811 325.73C252.281 325.555 252.527 325.576 252.388 325.576V345.616C256.58 345.616 261.159 344.338 264.707 340.647L250.262 326.758ZM252.388 325.576C252.253 325.576 252.472 325.556 252.902 325.714C253.369 325.885 253.875 326.189 254.303 326.618L240.133 340.788C243.679 344.333 248.179 345.616 252.388 345.616V325.576ZM254.57 326.895C254.847 327.194 255.097 327.588 255.257 328.024C255.411 328.442 255.417 328.721 255.417 328.751H235.378C235.378 332.954 236.737 337.131 239.866 340.51L254.57 326.895Z" fill="white" mask="url(#path-3-outside-1_4239_1553)"/>
</g>
<g filter="url(#filter1_d_4239_1553)">
<mask id="path-5-outside-2_4239_1553" maskUnits="userSpaceOnUse" x="158.035" y="169.285" width="65" height="66" fill="black">
<rect fill="white" x="158.035" y="169.285" width="65" height="66"/>
<path d="M181.161 181.471C181.986 180.986 183.224 180.524 184.874 180.088C186.573 179.651 188.272 179.432 189.971 179.432C192.398 179.432 194.534 179.796 196.379 180.524C198.272 181.204 199.486 182.296 200.02 183.801C200.893 186.325 201.84 189.262 202.859 192.611C203.879 195.961 204.898 199.432 205.917 203.024C206.937 206.567 207.932 210.087 208.903 213.582C209.874 217.028 210.723 220.086 211.451 222.756C210.869 223.436 209.995 223.97 208.83 224.358C207.665 224.795 206.282 225.013 204.68 225.013C203.515 225.013 202.519 224.916 201.694 224.722C200.918 224.528 200.262 224.237 199.728 223.848C199.243 223.46 198.83 222.95 198.49 222.319C198.199 221.688 197.932 220.96 197.69 220.135L196.379 215.111H183.2C182.811 216.567 182.423 218.072 182.035 219.625C181.646 221.178 181.258 222.683 180.87 224.14C180.19 224.382 179.462 224.576 178.685 224.722C177.957 224.916 177.059 225.013 175.991 225.013C173.516 225.013 171.671 224.601 170.457 223.775C169.292 222.902 168.71 221.712 168.71 220.208C168.71 219.528 168.807 218.848 169.001 218.169C169.195 217.489 169.414 216.688 169.656 215.766C169.996 214.455 170.457 212.829 171.04 210.888C171.671 208.946 172.351 206.859 173.079 204.626C173.807 202.344 174.583 200.014 175.409 197.636C176.234 195.257 177.011 193.024 177.739 190.937C178.467 188.801 179.122 186.908 179.705 185.257C180.336 183.607 180.821 182.345 181.161 181.471ZM189.899 190.864C189.219 192.903 188.442 195.184 187.568 197.708C186.743 200.184 185.991 202.708 185.311 205.281H194.34C193.661 202.66 192.957 200.111 192.229 197.636C191.549 195.111 190.918 192.854 190.335 190.864H189.899Z"/>
</mask>
<path d="M181.161 181.471C181.986 180.986 183.224 180.524 184.874 180.088C186.573 179.651 188.272 179.432 189.971 179.432C192.398 179.432 194.534 179.796 196.379 180.524C198.272 181.204 199.486 182.296 200.02 183.801C200.893 186.325 201.84 189.262 202.859 192.611C203.879 195.961 204.898 199.432 205.917 203.024C206.937 206.567 207.932 210.087 208.903 213.582C209.874 217.028 210.723 220.086 211.451 222.756C210.869 223.436 209.995 223.97 208.83 224.358C207.665 224.795 206.282 225.013 204.68 225.013C203.515 225.013 202.519 224.916 201.694 224.722C200.918 224.528 200.262 224.237 199.728 223.848C199.243 223.46 198.83 222.95 198.49 222.319C198.199 221.688 197.932 220.96 197.69 220.135L196.379 215.111H183.2C182.811 216.567 182.423 218.072 182.035 219.625C181.646 221.178 181.258 222.683 180.87 224.14C180.19 224.382 179.462 224.576 178.685 224.722C177.957 224.916 177.059 225.013 175.991 225.013C173.516 225.013 171.671 224.601 170.457 223.775C169.292 222.902 168.71 221.712 168.71 220.208C168.71 219.528 168.807 218.848 169.001 218.169C169.195 217.489 169.414 216.688 169.656 215.766C169.996 214.455 170.457 212.829 171.04 210.888C171.671 208.946 172.351 206.859 173.079 204.626C173.807 202.344 174.583 200.014 175.409 197.636C176.234 195.257 177.011 193.024 177.739 190.937C178.467 188.801 179.122 186.908 179.705 185.257C180.336 183.607 180.821 182.345 181.161 181.471ZM189.899 190.864C189.219 192.903 188.442 195.184 187.568 197.708C186.743 200.184 185.991 202.708 185.311 205.281H194.34C193.661 202.66 192.957 200.111 192.229 197.636C191.549 195.111 190.918 192.854 190.335 190.864H189.899Z" fill="#FF91A4"/>
<path d="M181.161 181.471L176.081 172.835L173.083 174.598L171.822 177.839L181.161 181.471ZM184.874 180.088L182.379 170.383L182.345 170.392L182.31 170.401L184.874 180.088ZM196.379 180.524L192.7 189.844L192.846 189.902L192.994 189.955L196.379 180.524ZM200.02 183.801L209.488 180.523L209.475 180.487L209.462 180.45L200.02 183.801ZM202.859 192.611L212.445 189.694L212.445 189.694L202.859 192.611ZM205.917 203.024L196.278 205.759L196.283 205.776L196.288 205.794L205.917 203.024ZM208.903 213.582L199.249 216.263L199.253 216.281L199.258 216.298L208.903 213.582ZM211.451 222.756L219.059 229.277L222.515 225.244L221.118 220.12L211.451 222.756ZM208.83 224.358L205.661 214.852L205.485 214.911L205.312 214.976L208.83 224.358ZM201.694 224.722L199.264 234.443L199.332 234.459L199.399 234.475L201.694 224.722ZM199.728 223.848L193.469 231.672L193.649 231.816L193.835 231.952L199.728 223.848ZM198.49 222.319L189.393 226.518L189.522 226.798L189.668 227.07L198.49 222.319ZM197.69 220.135L187.994 222.664L188.033 222.814L188.077 222.962L197.69 220.135ZM196.379 215.111L206.074 212.581L204.12 205.091H196.379V215.111ZM183.2 215.111V205.091H175.502L173.518 212.529L183.2 215.111ZM182.035 219.625L172.314 217.195L172.314 217.195L182.035 219.625ZM180.87 224.14L184.24 233.576L189.195 231.806L190.551 226.721L180.87 224.14ZM178.685 224.722L176.839 214.874L176.468 214.943L176.104 215.041L178.685 224.722ZM170.457 223.775L164.446 231.791L164.631 231.931L164.823 232.061L170.457 223.775ZM169.001 218.169L159.367 215.416L159.367 215.416L169.001 218.169ZM169.656 215.766L179.346 218.316L179.351 218.298L179.356 218.281L169.656 215.766ZM171.04 210.888L161.511 207.791L161.475 207.899L161.443 208.008L171.04 210.888ZM173.079 204.626L182.605 207.732L182.614 207.702L182.624 207.672L173.079 204.626ZM175.409 197.636L165.942 194.351L165.942 194.351L175.409 197.636ZM177.739 190.937L187.199 194.237L187.211 194.203L187.223 194.17L177.739 190.937ZM179.705 185.257L170.346 181.679L170.299 181.8L170.256 181.922L179.705 185.257ZM189.899 190.864V180.844H182.677L180.393 187.695L189.899 190.864ZM187.568 197.708L178.1 194.431L178.081 194.485L178.063 194.54L187.568 197.708ZM185.311 205.281L175.624 202.722L172.301 215.301H185.311V205.281ZM194.34 205.281V215.301H207.289L204.039 202.766L194.34 205.281ZM192.229 197.636L182.553 200.24L182.583 200.352L182.616 200.463L192.229 197.636ZM190.335 190.864L199.952 188.049L197.843 180.844H190.335V190.864ZM186.241 190.107C186 190.249 185.946 190.247 186.206 190.15C186.446 190.061 186.843 189.931 187.438 189.774L182.31 170.401C180.352 170.92 178.079 171.659 176.081 172.835L186.241 190.107ZM187.37 189.792C188.28 189.557 189.141 189.452 189.971 189.452V169.412C187.404 169.412 184.867 169.744 182.379 170.383L187.37 189.792ZM189.971 189.452C191.413 189.452 192.257 189.669 192.7 189.844L200.058 171.204C196.812 169.923 193.384 169.412 189.971 169.412V189.452ZM192.994 189.955C192.991 189.954 192.562 189.801 192.006 189.301C191.402 188.757 190.881 188.008 190.577 187.152L209.462 180.45C207.67 175.399 203.686 172.502 199.764 171.094L192.994 189.955ZM190.551 187.079C191.373 189.453 192.28 192.265 193.274 195.529L212.445 189.694C211.399 186.258 210.414 183.197 209.488 180.523L190.551 187.079ZM193.274 195.529C194.273 198.814 195.275 202.224 196.278 205.759L215.557 200.288C214.521 196.639 213.484 193.108 212.445 189.694L193.274 195.529ZM196.288 205.794C197.299 209.308 198.286 212.798 199.249 216.263L218.557 210.9C217.578 207.375 216.574 203.826 215.547 200.254L196.288 205.794ZM199.258 216.298C200.224 219.725 201.065 222.756 201.785 225.392L221.118 220.12C220.381 217.417 219.524 214.331 218.547 210.865L199.258 216.298ZM203.844 216.235C204.326 215.673 204.802 215.319 205.134 215.117C205.299 215.016 205.432 214.95 205.519 214.91C205.607 214.871 205.657 214.854 205.661 214.852L211.998 233.864C214.271 233.106 216.934 231.756 219.059 229.277L203.844 216.235ZM205.312 214.976C205.435 214.93 205.462 214.936 205.356 214.952C205.248 214.969 205.03 214.994 204.68 214.994V235.033C207.154 235.033 209.787 234.7 212.348 233.74L205.312 214.976ZM204.68 214.994C204.37 214.994 204.159 214.98 204.032 214.968C203.903 214.955 203.898 214.947 203.989 214.969L199.399 234.475C201.197 234.898 203.007 235.033 204.68 235.033V214.994ZM204.124 215.001C204.337 215.055 204.92 215.235 205.622 215.745L193.835 231.952C195.604 233.238 197.498 234.001 199.264 234.443L204.124 215.001ZM205.988 216.024C206.703 216.597 207.11 217.193 207.313 217.569L189.668 227.07C190.55 228.707 191.783 230.323 193.469 231.672L205.988 216.024ZM207.588 218.12C207.543 218.023 207.438 217.769 207.302 217.308L188.077 222.962C188.427 224.151 188.855 225.353 189.393 226.518L207.588 218.12ZM207.385 217.606L206.074 212.581L186.684 217.64L187.994 222.664L207.385 217.606ZM196.379 205.091H183.2V225.13H196.379V205.091ZM173.518 212.529C173.116 214.039 172.714 215.594 172.314 217.195L191.755 222.055C192.132 220.549 192.507 219.095 192.881 217.692L173.518 212.529ZM172.314 217.195C171.938 218.701 171.562 220.155 171.188 221.558L190.551 226.721C190.954 225.212 191.355 223.656 191.755 222.055L172.314 217.195ZM177.5 214.704C177.36 214.753 177.146 214.816 176.839 214.874L180.532 234.57C181.778 234.336 183.02 234.011 184.24 233.576L177.5 214.704ZM176.104 215.041C176.215 215.011 176.296 214.995 176.341 214.987C176.386 214.979 176.403 214.977 176.389 214.979C176.374 214.98 176.334 214.984 176.266 214.988C176.198 214.991 176.107 214.994 175.991 214.994V235.033C177.6 235.033 179.428 234.894 181.267 234.403L176.104 215.041ZM175.991 214.994C175.647 214.994 175.388 214.979 175.205 214.962C175.021 214.944 174.938 214.926 174.938 214.926C174.94 214.926 174.968 214.932 175.019 214.948C175.069 214.963 175.146 214.989 175.245 215.029C175.442 215.109 175.74 215.251 176.092 215.49L164.823 232.061C168.489 234.554 172.743 235.033 175.991 235.033V214.994ZM176.469 215.76C177.025 216.176 177.673 216.856 178.145 217.821C178.612 218.775 178.73 219.641 178.73 220.208H158.69C158.69 224.743 160.66 228.952 164.446 231.791L176.469 215.76ZM178.73 220.208C178.73 220.496 178.687 220.742 178.635 220.921L159.367 215.416C158.927 216.955 158.69 218.56 158.69 220.208H178.73ZM178.635 220.921C178.854 220.156 179.091 219.284 179.346 218.316L159.967 213.216C159.736 214.092 159.537 214.823 159.367 215.416L178.635 220.921ZM179.356 218.281C179.652 217.136 180.075 215.64 180.637 213.767L161.443 208.008C160.84 210.018 160.34 211.775 159.957 213.251L179.356 218.281ZM180.569 213.984C181.199 212.046 181.877 209.962 182.605 207.732L163.553 201.519C162.824 203.755 162.143 205.845 161.511 207.791L180.569 213.984ZM182.624 207.672C183.326 205.474 184.076 203.223 184.875 200.92L165.942 194.351C165.091 196.805 164.288 199.214 163.533 201.579L182.624 207.672ZM184.875 200.92C185.699 198.546 186.473 196.318 187.199 194.237L168.278 187.636C167.548 189.73 166.769 191.968 165.942 194.351L184.875 200.92ZM187.223 194.17C187.942 192.059 188.585 190.201 189.153 188.592L170.256 181.922C169.659 183.615 168.992 185.543 168.255 187.704L187.223 194.17ZM189.064 188.836C189.693 187.19 190.17 185.949 190.499 185.103L171.822 177.839C171.472 178.74 170.979 180.023 170.346 181.679L189.064 188.836ZM180.393 187.695C179.728 189.69 178.964 191.935 178.1 194.431L197.037 200.986C197.92 198.434 198.71 196.115 199.404 194.032L180.393 187.695ZM178.063 194.54C177.169 197.221 176.357 199.948 175.624 202.722L194.999 207.84C195.625 205.468 196.317 203.147 197.074 200.877L178.063 194.54ZM185.311 215.301H194.34V195.261H185.311V215.301ZM204.039 202.766C203.334 200.045 202.601 197.393 201.841 194.808L182.616 200.463C183.312 202.83 183.987 205.274 184.641 207.795L204.039 202.766ZM201.904 195.031C201.21 192.453 200.559 190.124 199.952 188.049L180.719 193.678C181.277 195.584 181.888 197.769 182.553 200.24L201.904 195.031ZM190.335 180.844H189.899V200.884H190.335V180.844Z" fill="white" mask="url(#path-5-outside-2_4239_1553)"/>
</g>
<g filter="url(#filter2_d_4239_1553)">
<mask id="path-7-outside-3_4239_1553" maskUnits="userSpaceOnUse" x="46.0352" y="58.2852" width="287" height="68" fill="black">
<rect fill="white" x="46.0352" y="58.2852" width="287" height="68"/>
<path d="M57.7292 80.3542C57.3895 79.8202 57.0739 79.0921 56.7827 78.1698C56.4914 77.2475 56.3458 76.2766 56.3458 75.2573C56.3458 73.3641 56.7584 72.0049 57.5836 71.1797C58.4574 70.3545 59.5738 69.9419 60.933 69.9419H92.6796C93.0194 70.4758 93.3349 71.204 93.6262 72.1263C93.9174 73.0486 94.0631 74.0194 94.0631 75.0388C94.0631 76.932 93.6262 78.2911 92.7524 79.1164C91.9272 79.9416 90.835 80.3542 89.4758 80.3542H81.3936V113.994C80.8596 114.14 80.0101 114.285 78.8451 114.431C77.7286 114.576 76.6122 114.649 75.4957 114.649C74.3792 114.649 73.3841 114.552 72.5103 114.358C71.6851 114.212 70.9813 113.921 70.3988 113.484C69.8162 113.047 69.3794 112.441 69.0881 111.664C68.7969 110.887 68.6512 109.868 68.6512 108.606V80.3542H57.7292ZM139.693 113.994C139.159 114.14 138.309 114.285 137.144 114.431C136.028 114.576 134.911 114.649 133.795 114.649C132.678 114.649 131.683 114.552 130.809 114.358C129.984 114.212 129.28 113.921 128.698 113.484C128.115 113.047 127.678 112.441 127.387 111.664C127.096 110.887 126.95 109.868 126.95 108.606V97.2469H112.97V113.994C112.436 114.14 111.587 114.285 110.422 114.431C109.305 114.576 108.189 114.649 107.072 114.649C105.956 114.649 104.961 114.552 104.087 114.358C103.262 114.212 102.558 113.921 101.975 113.484C101.393 113.047 100.956 112.441 100.665 111.664C100.373 110.887 100.228 109.868 100.228 108.606V70.1603C100.762 70.0632 101.611 69.9419 102.776 69.7963C103.941 69.6021 105.058 69.505 106.126 69.505C107.242 69.505 108.213 69.6021 109.038 69.7963C109.912 69.9419 110.64 70.2331 111.223 70.67C111.805 71.1069 112.242 71.7137 112.533 72.4903C112.824 73.267 112.97 74.2864 112.97 75.5485V87.1986H126.95V70.1603C127.484 70.0632 128.334 69.9419 129.499 69.7963C130.664 69.6021 131.78 69.505 132.848 69.505C133.965 69.505 134.935 69.6021 135.761 69.7963C136.634 69.9419 137.362 70.2331 137.945 70.67C138.528 71.1069 138.964 71.7137 139.256 72.4903C139.547 73.267 139.693 74.2864 139.693 75.5485V113.994ZM158.542 71.471C159.367 70.9855 160.605 70.5244 162.256 70.0875C163.954 69.6506 165.653 69.4322 167.352 69.4322C169.78 69.4322 171.915 69.7963 173.76 70.5244C175.653 71.204 176.867 72.2962 177.401 73.801C178.274 76.3252 179.221 79.262 180.24 82.6114C181.26 85.9608 182.279 89.4316 183.299 93.0237C184.318 96.5673 185.313 100.087 186.284 103.582C187.255 107.028 188.104 110.086 188.832 112.756C188.25 113.436 187.376 113.97 186.211 114.358C185.046 114.795 183.663 115.013 182.061 115.013C180.896 115.013 179.901 114.916 179.075 114.722C178.299 114.528 177.643 114.237 177.109 113.848C176.624 113.46 176.211 112.95 175.872 112.319C175.58 111.688 175.313 110.96 175.071 110.135L173.76 105.111H160.581C160.192 106.567 159.804 108.072 159.416 109.625C159.027 111.178 158.639 112.683 158.251 114.14C157.571 114.382 156.843 114.576 156.066 114.722C155.338 114.916 154.44 115.013 153.372 115.013C150.897 115.013 149.052 114.601 147.838 113.775C146.673 112.902 146.091 111.712 146.091 110.208C146.091 109.528 146.188 108.848 146.382 108.169C146.576 107.489 146.795 106.688 147.038 105.766C147.377 104.455 147.838 102.829 148.421 100.888C149.052 98.9458 149.732 96.8585 150.46 94.6256C151.188 92.3441 151.965 90.0141 152.79 87.6355C153.615 85.2569 154.392 83.024 155.12 80.9367C155.848 78.8008 156.503 76.9077 157.086 75.2573C157.717 73.6068 158.202 72.3447 158.542 71.471ZM167.28 80.8639C166.6 82.9026 165.823 85.1841 164.95 87.7083C164.124 90.184 163.372 92.7082 162.692 95.2809H171.721C171.042 92.6596 170.338 90.1112 169.61 87.6355C168.93 85.1113 168.299 82.8541 167.717 80.8639H167.28ZM234.774 112.756C234.095 113.436 233.099 113.945 231.789 114.285C230.527 114.673 228.998 114.868 227.202 114.868C225.405 114.868 223.706 114.601 222.105 114.067C220.503 113.533 219.192 112.246 218.173 110.208L210.964 95.4993C210.236 93.9945 209.581 92.5868 208.998 91.2762C208.416 89.917 207.785 88.3636 207.105 86.6161L206.668 86.6889C206.862 89.3102 206.959 91.98 206.959 94.6984C207.008 97.4168 207.032 100.087 207.032 102.708V113.994C206.498 114.14 205.673 114.285 204.557 114.431C203.489 114.576 202.421 114.649 201.353 114.649C200.285 114.649 199.338 114.576 198.513 114.431C197.688 114.285 197.008 113.994 196.474 113.557C195.94 113.12 195.528 112.538 195.237 111.81C194.945 111.033 194.8 110.038 194.8 108.824V72.4175C195.479 71.4467 196.523 70.7186 197.931 70.2331C199.338 69.7477 200.843 69.505 202.445 69.505C204.241 69.505 205.94 69.7963 207.542 70.3788C209.192 70.9127 210.503 72.1748 211.474 74.1651L218.755 88.8733C219.483 90.3781 220.139 91.8101 220.721 93.1693C221.304 94.4799 221.935 96.009 222.614 97.7565L222.978 97.6837C222.784 95.0625 222.663 92.4412 222.614 89.8199C222.566 87.1986 222.541 84.5773 222.541 81.9561V70.1603C223.075 70.0147 223.876 69.8691 224.944 69.7234C226.061 69.5778 227.153 69.505 228.221 69.505C230.357 69.505 231.983 69.8933 233.099 70.67C234.216 71.3981 234.774 72.9515 234.774 75.3301V112.756ZM257.034 97.9022V113.994C256.5 114.14 255.65 114.285 254.485 114.431C253.32 114.576 252.18 114.649 251.063 114.649C249.947 114.649 248.952 114.552 248.078 114.358C247.253 114.212 246.549 113.921 245.966 113.484C245.384 113.047 244.947 112.441 244.656 111.664C244.364 110.887 244.219 109.868 244.219 108.606V70.1603C244.753 70.0632 245.602 69.9419 246.767 69.7963C247.932 69.6021 249.049 69.505 250.117 69.505C251.233 69.505 252.204 69.6021 253.029 69.7963C253.903 69.9419 254.631 70.2331 255.214 70.67C255.796 71.1069 256.233 71.7137 256.524 72.4903C256.815 73.267 256.961 74.2864 256.961 75.5485V87.1258L272.106 69.7234C275.407 69.7234 277.761 70.3545 279.169 71.6166C280.625 72.8301 281.354 74.2864 281.354 75.9854C281.354 77.2475 281.038 78.4368 280.407 79.5532C279.776 80.6697 278.757 81.9318 277.349 83.3395L268.247 92.4412C269.461 93.8004 270.723 95.2081 272.033 96.6643C273.393 98.1206 274.703 99.5526 275.965 100.96C277.276 102.32 278.514 103.63 279.679 104.892C280.892 106.154 281.936 107.247 282.81 108.169C282.81 109.237 282.616 110.183 282.227 111.009C281.839 111.834 281.305 112.538 280.625 113.12C279.994 113.703 279.266 114.14 278.441 114.431C277.616 114.722 276.742 114.868 275.82 114.868C273.83 114.868 272.203 114.382 270.941 113.411C269.679 112.392 268.466 111.203 267.301 109.844L257.034 97.9022ZM301.54 96.7372C299.404 96.009 297.462 95.2809 295.715 94.5528C293.967 93.7761 292.462 92.8538 291.2 91.7859C289.938 90.7179 288.943 89.4558 288.215 87.9996C287.535 86.4948 287.196 84.6744 287.196 82.5386C287.196 78.4125 288.773 75.1116 291.929 72.636C295.132 70.1603 299.598 68.9225 305.326 68.9225C307.413 68.9225 309.355 69.0681 311.151 69.3594C312.947 69.6506 314.476 70.1118 315.738 70.7428C317.049 71.3253 318.068 72.102 318.797 73.0729C319.525 73.9952 319.889 75.0874 319.889 76.3494C319.889 77.6115 319.598 78.7037 319.015 79.626C318.433 80.4998 317.729 81.2522 316.903 81.8833C315.836 81.2037 314.404 80.6212 312.608 80.1357C310.811 79.6018 308.845 79.3348 306.71 79.3348C304.525 79.3348 302.923 79.6503 301.904 80.2814C300.885 80.8639 300.375 81.6163 300.375 82.5386C300.375 83.2667 300.69 83.8735 301.321 84.3589C301.952 84.7958 302.899 85.2084 304.161 85.5967L308.02 86.8346C312.583 88.2908 316.078 90.1597 318.505 92.4412C320.981 94.6741 322.219 97.7323 322.219 101.616C322.219 105.742 320.593 109.091 317.34 111.664C314.088 114.188 309.307 115.45 302.996 115.45C300.763 115.45 298.676 115.256 296.734 114.868C294.841 114.528 293.166 114.018 291.71 113.339C290.302 112.61 289.186 111.737 288.361 110.717C287.584 109.649 287.196 108.436 287.196 107.077C287.196 105.669 287.608 104.48 288.433 103.509C289.259 102.489 290.157 101.713 291.128 101.179C292.487 102.247 294.137 103.169 296.079 103.946C298.069 104.722 300.229 105.111 302.559 105.111C304.938 105.111 306.613 104.747 307.583 104.018C308.554 103.29 309.04 102.441 309.04 101.47C309.04 100.499 308.651 99.771 307.875 99.2856C307.098 98.7517 306.006 98.242 304.598 97.7565L301.54 96.7372Z"/>
</mask>
<path d="M57.7292 80.3542C57.3895 79.8202 57.0739 79.0921 56.7827 78.1698C56.4914 77.2475 56.3458 76.2766 56.3458 75.2573C56.3458 73.3641 56.7584 72.0049 57.5836 71.1797C58.4574 70.3545 59.5738 69.9419 60.933 69.9419H92.6796C93.0194 70.4758 93.3349 71.204 93.6262 72.1263C93.9174 73.0486 94.0631 74.0194 94.0631 75.0388C94.0631 76.932 93.6262 78.2911 92.7524 79.1164C91.9272 79.9416 90.835 80.3542 89.4758 80.3542H81.3936V113.994C80.8596 114.14 80.0101 114.285 78.8451 114.431C77.7286 114.576 76.6122 114.649 75.4957 114.649C74.3792 114.649 73.3841 114.552 72.5103 114.358C71.6851 114.212 70.9813 113.921 70.3988 113.484C69.8162 113.047 69.3794 112.441 69.0881 111.664C68.7969 110.887 68.6512 109.868 68.6512 108.606V80.3542H57.7292ZM139.693 113.994C139.159 114.14 138.309 114.285 137.144 114.431C136.028 114.576 134.911 114.649 133.795 114.649C132.678 114.649 131.683 114.552 130.809 114.358C129.984 114.212 129.28 113.921 128.698 113.484C128.115 113.047 127.678 112.441 127.387 111.664C127.096 110.887 126.95 109.868 126.95 108.606V97.2469H112.97V113.994C112.436 114.14 111.587 114.285 110.422 114.431C109.305 114.576 108.189 114.649 107.072 114.649C105.956 114.649 104.961 114.552 104.087 114.358C103.262 114.212 102.558 113.921 101.975 113.484C101.393 113.047 100.956 112.441 100.665 111.664C100.373 110.887 100.228 109.868 100.228 108.606V70.1603C100.762 70.0632 101.611 69.9419 102.776 69.7963C103.941 69.6021 105.058 69.505 106.126 69.505C107.242 69.505 108.213 69.6021 109.038 69.7963C109.912 69.9419 110.64 70.2331 111.223 70.67C111.805 71.1069 112.242 71.7137 112.533 72.4903C112.824 73.267 112.97 74.2864 112.97 75.5485V87.1986H126.95V70.1603C127.484 70.0632 128.334 69.9419 129.499 69.7963C130.664 69.6021 131.78 69.505 132.848 69.505C133.965 69.505 134.935 69.6021 135.761 69.7963C136.634 69.9419 137.362 70.2331 137.945 70.67C138.528 71.1069 138.964 71.7137 139.256 72.4903C139.547 73.267 139.693 74.2864 139.693 75.5485V113.994ZM158.542 71.471C159.367 70.9855 160.605 70.5244 162.256 70.0875C163.954 69.6506 165.653 69.4322 167.352 69.4322C169.78 69.4322 171.915 69.7963 173.76 70.5244C175.653 71.204 176.867 72.2962 177.401 73.801C178.274 76.3252 179.221 79.262 180.24 82.6114C181.26 85.9608 182.279 89.4316 183.299 93.0237C184.318 96.5673 185.313 100.087 186.284 103.582C187.255 107.028 188.104 110.086 188.832 112.756C188.25 113.436 187.376 113.97 186.211 114.358C185.046 114.795 183.663 115.013 182.061 115.013C180.896 115.013 179.901 114.916 179.075 114.722C178.299 114.528 177.643 114.237 177.109 113.848C176.624 113.46 176.211 112.95 175.872 112.319C175.58 111.688 175.313 110.96 175.071 110.135L173.76 105.111H160.581C160.192 106.567 159.804 108.072 159.416 109.625C159.027 111.178 158.639 112.683 158.251 114.14C157.571 114.382 156.843 114.576 156.066 114.722C155.338 114.916 154.44 115.013 153.372 115.013C150.897 115.013 149.052 114.601 147.838 113.775C146.673 112.902 146.091 111.712 146.091 110.208C146.091 109.528 146.188 108.848 146.382 108.169C146.576 107.489 146.795 106.688 147.038 105.766C147.377 104.455 147.838 102.829 148.421 100.888C149.052 98.9458 149.732 96.8585 150.46 94.6256C151.188 92.3441 151.965 90.0141 152.79 87.6355C153.615 85.2569 154.392 83.024 155.12 80.9367C155.848 78.8008 156.503 76.9077 157.086 75.2573C157.717 73.6068 158.202 72.3447 158.542 71.471ZM167.28 80.8639C166.6 82.9026 165.823 85.1841 164.95 87.7083C164.124 90.184 163.372 92.7082 162.692 95.2809H171.721C171.042 92.6596 170.338 90.1112 169.61 87.6355C168.93 85.1113 168.299 82.8541 167.717 80.8639H167.28ZM234.774 112.756C234.095 113.436 233.099 113.945 231.789 114.285C230.527 114.673 228.998 114.868 227.202 114.868C225.405 114.868 223.706 114.601 222.105 114.067C220.503 113.533 219.192 112.246 218.173 110.208L210.964 95.4993C210.236 93.9945 209.581 92.5868 208.998 91.2762C208.416 89.917 207.785 88.3636 207.105 86.6161L206.668 86.6889C206.862 89.3102 206.959 91.98 206.959 94.6984C207.008 97.4168 207.032 100.087 207.032 102.708V113.994C206.498 114.14 205.673 114.285 204.557 114.431C203.489 114.576 202.421 114.649 201.353 114.649C200.285 114.649 199.338 114.576 198.513 114.431C197.688 114.285 197.008 113.994 196.474 113.557C195.94 113.12 195.528 112.538 195.237 111.81C194.945 111.033 194.8 110.038 194.8 108.824V72.4175C195.479 71.4467 196.523 70.7186 197.931 70.2331C199.338 69.7477 200.843 69.505 202.445 69.505C204.241 69.505 205.94 69.7963 207.542 70.3788C209.192 70.9127 210.503 72.1748 211.474 74.1651L218.755 88.8733C219.483 90.3781 220.139 91.8101 220.721 93.1693C221.304 94.4799 221.935 96.009 222.614 97.7565L222.978 97.6837C222.784 95.0625 222.663 92.4412 222.614 89.8199C222.566 87.1986 222.541 84.5773 222.541 81.9561V70.1603C223.075 70.0147 223.876 69.8691 224.944 69.7234C226.061 69.5778 227.153 69.505 228.221 69.505C230.357 69.505 231.983 69.8933 233.099 70.67C234.216 71.3981 234.774 72.9515 234.774 75.3301V112.756ZM257.034 97.9022V113.994C256.5 114.14 255.65 114.285 254.485 114.431C253.32 114.576 252.18 114.649 251.063 114.649C249.947 114.649 248.952 114.552 248.078 114.358C247.253 114.212 246.549 113.921 245.966 113.484C245.384 113.047 244.947 112.441 244.656 111.664C244.364 110.887 244.219 109.868 244.219 108.606V70.1603C244.753 70.0632 245.602 69.9419 246.767 69.7963C247.932 69.6021 249.049 69.505 250.117 69.505C251.233 69.505 252.204 69.6021 253.029 69.7963C253.903 69.9419 254.631 70.2331 255.214 70.67C255.796 71.1069 256.233 71.7137 256.524 72.4903C256.815 73.267 256.961 74.2864 256.961 75.5485V87.1258L272.106 69.7234C275.407 69.7234 277.761 70.3545 279.169 71.6166C280.625 72.8301 281.354 74.2864 281.354 75.9854C281.354 77.2475 281.038 78.4368 280.407 79.5532C279.776 80.6697 278.757 81.9318 277.349 83.3395L268.247 92.4412C269.461 93.8004 270.723 95.2081 272.033 96.6643C273.393 98.1206 274.703 99.5526 275.965 100.96C277.276 102.32 278.514 103.63 279.679 104.892C280.892 106.154 281.936 107.247 282.81 108.169C282.81 109.237 282.616 110.183 282.227 111.009C281.839 111.834 281.305 112.538 280.625 113.12C279.994 113.703 279.266 114.14 278.441 114.431C277.616 114.722 276.742 114.868 275.82 114.868C273.83 114.868 272.203 114.382 270.941 113.411C269.679 112.392 268.466 111.203 267.301 109.844L257.034 97.9022ZM301.54 96.7372C299.404 96.009 297.462 95.2809 295.715 94.5528C293.967 93.7761 292.462 92.8538 291.2 91.7859C289.938 90.7179 288.943 89.4558 288.215 87.9996C287.535 86.4948 287.196 84.6744 287.196 82.5386C287.196 78.4125 288.773 75.1116 291.929 72.636C295.132 70.1603 299.598 68.9225 305.326 68.9225C307.413 68.9225 309.355 69.0681 311.151 69.3594C312.947 69.6506 314.476 70.1118 315.738 70.7428C317.049 71.3253 318.068 72.102 318.797 73.0729C319.525 73.9952 319.889 75.0874 319.889 76.3494C319.889 77.6115 319.598 78.7037 319.015 79.626C318.433 80.4998 317.729 81.2522 316.903 81.8833C315.836 81.2037 314.404 80.6212 312.608 80.1357C310.811 79.6018 308.845 79.3348 306.71 79.3348C304.525 79.3348 302.923 79.6503 301.904 80.2814C300.885 80.8639 300.375 81.6163 300.375 82.5386C300.375 83.2667 300.69 83.8735 301.321 84.3589C301.952 84.7958 302.899 85.2084 304.161 85.5967L308.02 86.8346C312.583 88.2908 316.078 90.1597 318.505 92.4412C320.981 94.6741 322.219 97.7323 322.219 101.616C322.219 105.742 320.593 109.091 317.34 111.664C314.088 114.188 309.307 115.45 302.996 115.45C300.763 115.45 298.676 115.256 296.734 114.868C294.841 114.528 293.166 114.018 291.71 113.339C290.302 112.61 289.186 111.737 288.361 110.717C287.584 109.649 287.196 108.436 287.196 107.077C287.196 105.669 287.608 104.48 288.433 103.509C289.259 102.489 290.157 101.713 291.128 101.179C292.487 102.247 294.137 103.169 296.079 103.946C298.069 104.722 300.229 105.111 302.559 105.111C304.938 105.111 306.613 104.747 307.583 104.018C308.554 103.29 309.04 102.441 309.04 101.47C309.04 100.499 308.651 99.771 307.875 99.2856C307.098 98.7517 306.006 98.242 304.598 97.7565L301.54 96.7372Z" fill="#FF91A4"/>
<path d="M57.7292 80.3542L49.276 85.7335L52.2289 90.3739H57.7292V80.3542ZM56.7827 78.1698L47.228 81.187L47.228 81.187L56.7827 78.1698ZM57.5836 71.1797L50.7038 63.8952L50.5998 63.9935L50.4986 64.0947L57.5836 71.1797ZM92.6796 69.9419L101.133 64.5625L98.1799 59.9221H92.6796V69.9419ZM93.6262 72.1263L103.181 69.109L103.181 69.109L93.6262 72.1263ZM92.7524 79.1164L85.8726 71.8319L85.7686 71.9301L85.6674 72.0313L92.7524 79.1164ZM81.3936 80.3542V70.3344H71.3738V80.3542H81.3936ZM81.3936 113.994L84.0299 123.661L91.4133 121.647V113.994H81.3936ZM78.8451 114.431L77.6023 104.488L77.5757 104.492L77.5491 104.495L78.8451 114.431ZM72.5103 114.358L74.6839 104.577L74.4687 104.529L74.2516 104.491L72.5103 114.358ZM70.3988 113.484L76.4106 105.468L70.3988 113.484ZM69.0881 111.664L59.7063 115.182L59.7063 115.182L69.0881 111.664ZM68.6512 80.3542H78.671V70.3344H68.6512V80.3542ZM66.1825 74.9748C66.2729 75.1168 66.3344 75.2287 66.3714 75.3C66.4088 75.372 66.4278 75.4154 66.4314 75.4237C66.4352 75.4324 66.4275 75.4151 66.41 75.3676C66.3926 75.3204 66.368 75.2496 66.3373 75.1525L47.228 81.187C47.6592 82.5526 48.2903 84.1846 49.276 85.7335L66.1825 74.9748ZM66.3373 75.1525C66.352 75.1991 66.3601 75.238 66.3639 75.2636C66.3677 75.2886 66.3655 75.2884 66.3655 75.2573H46.326C46.326 77.2448 46.6123 79.2371 47.228 81.187L66.3373 75.1525ZM66.3655 75.2573C66.3655 74.9905 66.4003 75.2104 66.243 75.7286C66.0737 76.2862 65.6477 77.2857 64.6686 78.2648L50.4986 64.0947C46.9125 67.6807 46.326 72.2885 46.326 75.2573H66.3655ZM64.4634 78.4642C63.9286 78.9693 63.2703 79.3835 62.5496 79.6498C61.8501 79.9083 61.2727 79.9616 60.933 79.9616V59.9221C57.3773 59.9221 53.6849 61.0797 50.7038 63.8952L64.4634 78.4642ZM60.933 79.9616H92.6796V59.9221H60.933V79.9616ZM84.2263 75.3213C84.136 75.1793 84.0745 75.0674 84.0374 74.996C84.0001 74.9241 83.981 74.8807 83.9774 74.8724C83.9736 74.8636 83.9814 74.8809 83.9989 74.9284C84.0162 74.9756 84.0408 75.0464 84.0715 75.1435L103.181 69.109C102.75 67.7435 102.119 66.1114 101.133 64.5625L84.2263 75.3213ZM84.0715 75.1435C84.0568 75.097 84.0488 75.058 84.0449 75.0325C84.0412 75.0075 84.0433 75.0076 84.0433 75.0388H104.083C104.083 73.0513 103.797 71.0589 103.181 69.109L84.0715 75.1435ZM84.0433 75.0388C84.0433 75.2625 84.0117 74.9862 84.1963 74.4119C84.3975 73.7859 84.87 72.7787 85.8726 71.8319L99.6322 86.4008C103.411 82.8322 104.083 78.1391 104.083 75.0388H84.0433ZM85.6674 72.0313C86.2608 71.4379 86.9897 70.9676 87.7734 70.6715C88.5282 70.3864 89.1409 70.3344 89.4758 70.3344V90.3739C93.0197 90.3739 96.8234 89.2154 99.8375 86.2014L85.6674 72.0313ZM89.4758 70.3344H81.3936V90.3739H89.4758V70.3344ZM71.3738 80.3542V113.994H91.4133V80.3542H71.3738ZM78.7572 104.327C78.8564 104.3 78.9003 104.292 78.8697 104.298C78.8433 104.304 78.7769 104.317 78.663 104.337C78.4301 104.377 78.084 104.428 77.6023 104.488L80.0879 124.373C81.3233 124.219 82.768 124.005 84.0299 123.661L78.7572 104.327ZM77.5491 104.495C76.8587 104.585 76.1751 104.629 75.4957 104.629V124.669C77.0492 124.669 78.5985 124.568 80.141 124.366L77.5491 104.495ZM75.4957 104.629C75.2255 104.629 75.0244 104.618 74.8849 104.604C74.7451 104.59 74.6821 104.576 74.6839 104.577L70.3367 124.139C72.0739 124.525 73.8195 124.669 75.4957 124.669V104.629ZM74.2516 104.491C74.7411 104.577 75.5571 104.828 76.4106 105.468L64.3869 121.5C66.4054 123.014 68.6292 123.848 70.7691 124.225L74.2516 104.491ZM76.4106 105.468C77.5622 106.332 78.1858 107.388 78.4699 108.146L59.7063 115.182C60.5729 117.493 62.0703 119.763 64.3869 121.5L76.4106 105.468ZM78.4699 108.146C78.6312 108.576 78.6733 108.856 78.6795 108.9C78.6867 108.95 78.671 108.864 78.671 108.606H58.6315C58.6315 110.508 58.833 112.853 59.7063 115.182L78.4699 108.146ZM78.671 108.606V80.3542H58.6315V108.606H78.671ZM68.6512 70.3344H57.7292V90.3739H68.6512V70.3344ZM139.693 113.994L142.329 123.661L149.712 121.647V113.994H139.693ZM137.144 114.431L135.901 104.488L135.875 104.492L135.848 104.495L137.144 114.431ZM130.809 114.358L132.983 104.577L132.768 104.529L132.551 104.491L130.809 114.358ZM128.698 113.484L134.71 105.468L128.698 113.484ZM127.387 111.664L136.769 108.146L136.769 108.146L127.387 111.664ZM126.95 97.2469H136.97V87.2271H126.95V97.2469ZM112.97 97.2469V87.2271H102.95V97.2469H112.97ZM112.97 113.994L115.606 123.661L122.99 121.647V113.994H112.97ZM110.422 114.431L109.179 104.488L109.152 104.492L109.126 104.495L110.422 114.431ZM104.087 114.358L106.26 104.577L106.045 104.529L105.828 104.491L104.087 114.358ZM101.975 113.484L95.9634 121.5L95.9634 121.5L101.975 113.484ZM100.665 111.664L91.2828 115.182L91.2828 115.182L100.665 111.664ZM100.228 70.1603L98.4353 60.3022L90.208 61.7981V70.1603H100.228ZM102.776 69.7963L104.019 79.7386L104.222 79.7133L104.423 79.6797L102.776 69.7963ZM109.038 69.7963L106.743 79.5497L107.065 79.6253L107.391 79.6797L109.038 69.7963ZM111.223 70.67L105.211 78.6858L105.211 78.6858L111.223 70.67ZM112.533 72.4903L103.151 76.0085L103.151 76.0085L112.533 72.4903ZM112.97 87.1986H102.95V97.2184H112.97V87.1986ZM126.95 87.1986V97.2184H136.97V87.1986H126.95ZM126.95 70.1603L125.158 60.3022L116.93 61.7981V70.1603H126.95ZM129.499 69.7963L130.741 79.7386L130.944 79.7133L131.146 79.6797L129.499 69.7963ZM135.761 69.7963L133.466 79.5497L133.787 79.6253L134.113 79.6797L135.761 69.7963ZM137.945 70.67L131.933 78.6858L131.933 78.6858L137.945 70.67ZM139.256 72.4903L129.874 76.0085L129.874 76.0085L139.256 72.4903ZM137.056 104.327C137.155 104.3 137.199 104.292 137.169 104.298C137.142 104.304 137.076 104.317 136.962 104.337C136.729 104.377 136.383 104.428 135.901 104.488L138.387 124.373C139.622 124.219 141.067 124.005 142.329 123.661L137.056 104.327ZM135.848 104.495C135.158 104.585 134.474 104.629 133.795 104.629V124.669C135.348 124.669 136.897 124.568 138.44 124.366L135.848 104.495ZM133.795 104.629C133.524 104.629 133.323 104.618 133.184 104.604C133.044 104.59 132.981 104.576 132.983 104.577L128.636 124.139C130.373 124.525 132.118 124.669 133.795 124.669V104.629ZM132.551 104.491C133.04 104.577 133.856 104.828 134.71 105.468L122.686 121.5C124.704 123.014 126.928 123.848 129.068 124.225L132.551 104.491ZM134.71 105.468C135.861 106.332 136.485 107.388 136.769 108.146L118.005 115.182C118.872 117.493 120.369 119.763 122.686 121.5L134.71 105.468ZM136.769 108.146C136.93 108.576 136.972 108.856 136.978 108.9C136.986 108.95 136.97 108.864 136.97 108.606H116.93C116.93 110.508 117.132 112.853 118.005 115.182L136.769 108.146ZM136.97 108.606V97.2469H116.93V108.606H136.97ZM126.95 87.2271H112.97V107.267H126.95V87.2271ZM102.95 97.2469V113.994H122.99V97.2469H102.95ZM110.334 104.327C110.433 104.3 110.477 104.292 110.446 104.298C110.42 104.304 110.353 104.317 110.239 104.337C110.007 104.377 109.66 104.428 109.179 104.488L111.664 124.373C112.9 124.219 114.344 124.005 115.606 123.661L110.334 104.327ZM109.126 104.495C108.435 104.585 107.752 104.629 107.072 104.629V124.669C108.626 124.669 110.175 124.568 111.718 124.366L109.126 104.495ZM107.072 104.629C106.802 104.629 106.601 104.618 106.461 104.604C106.322 104.59 106.259 104.576 106.26 104.577L101.913 124.139C103.65 124.525 105.396 124.669 107.072 124.669V104.629ZM105.828 104.491C106.318 104.577 107.134 104.828 107.987 105.468L95.9634 121.5C97.9819 123.014 100.206 123.848 102.346 124.225L105.828 104.491ZM107.987 105.468C109.139 106.332 109.762 107.388 110.046 108.146L91.2828 115.182C92.1494 117.493 93.6467 119.763 95.9634 121.5L107.987 105.468ZM110.046 108.146C110.208 108.576 110.25 108.856 110.256 108.9C110.263 108.95 110.247 108.864 110.247 108.606H90.208C90.208 110.508 90.4095 112.853 91.2828 115.182L110.046 108.146ZM110.247 108.606V70.1603H90.208V108.606H110.247ZM102.02 80.0184C102.262 79.9744 102.878 79.8813 104.019 79.7386L101.533 59.8539C100.345 60.0025 99.2612 60.152 98.4353 60.3022L102.02 80.0184ZM104.423 79.6797C105.101 79.5668 105.664 79.5248 106.126 79.5248V59.4853C104.451 59.4853 102.782 59.6373 101.129 59.9128L104.423 79.6797ZM106.126 79.5248C106.397 79.5248 106.583 79.5367 106.694 79.5478C106.806 79.5591 106.816 79.5668 106.743 79.5497L111.333 60.0429C109.562 59.6262 107.787 59.4853 106.126 59.4853V79.5248ZM107.391 79.6797C107.02 79.6179 106.162 79.399 105.211 78.6858L117.234 62.6542C115.118 61.0672 112.804 60.2659 110.685 59.9128L107.391 79.6797ZM105.211 78.6858C104.059 77.8221 103.435 76.766 103.151 76.0085L121.915 68.9722C121.048 66.6613 119.551 64.3917 117.234 62.6542L105.211 78.6858ZM103.151 76.0085C102.99 75.5784 102.948 75.2981 102.942 75.2544C102.935 75.204 102.95 75.2902 102.95 75.5485H122.99C122.99 73.6464 122.788 71.3011 121.915 68.9722L103.151 76.0085ZM102.95 75.5485V87.1986H122.99V75.5485H102.95ZM112.97 97.2184H126.95V77.1789H112.97V97.2184ZM136.97 87.1986V70.1603H116.93V87.1986H136.97ZM128.743 80.0184C128.985 79.9744 129.6 79.8813 130.741 79.7386L128.256 59.8539C127.067 60.0025 125.984 60.152 125.158 60.3022L128.743 80.0184ZM131.146 79.6797C131.823 79.5668 132.386 79.5248 132.848 79.5248V59.4853C131.174 59.4853 129.504 59.6373 127.851 59.9128L131.146 79.6797ZM132.848 79.5248C133.12 79.5248 133.306 79.5367 133.417 79.5478C133.529 79.5591 133.539 79.5668 133.466 79.5497L138.056 60.0429C136.285 59.6262 134.509 59.4853 132.848 59.4853V79.5248ZM134.113 79.6797C133.742 79.6179 132.884 79.399 131.933 78.6858L143.957 62.6542C141.841 61.0672 139.526 60.2659 137.408 59.9128L134.113 79.6797ZM131.933 78.6858C130.782 77.8221 130.158 76.766 129.874 76.0085L148.637 68.9722C147.771 66.6613 146.273 64.3917 143.957 62.6542L131.933 78.6858ZM129.874 76.0085C129.713 75.5784 129.67 75.2981 129.664 75.2544C129.657 75.2041 129.673 75.2902 129.673 75.5485H149.712C149.712 73.6464 149.511 71.301 148.637 68.9722L129.874 76.0085ZM129.673 75.5485V113.994H149.712V75.5485H129.673ZM158.542 71.471L153.462 62.8346L150.464 64.598L149.204 67.8393L158.542 71.471ZM162.256 70.0875L159.76 60.3834L159.726 60.3923L159.692 60.4014L162.256 70.0875ZM173.76 70.5244L170.081 79.8443L170.227 79.9019L170.375 79.9549L173.76 70.5244ZM177.401 73.801L186.869 70.5234L186.857 70.4868L186.844 70.4503L177.401 73.801ZM180.24 82.6114L189.826 79.694L189.826 79.694L180.24 82.6114ZM183.299 93.0237L173.659 95.7591L173.664 95.7764L173.669 95.7937L183.299 93.0237ZM186.284 103.582L176.63 106.263L176.635 106.281L176.639 106.298L186.284 103.582ZM188.832 112.756L196.44 119.277L199.897 115.244L198.499 110.12L188.832 112.756ZM186.211 114.358L183.043 104.852L182.867 104.911L182.693 104.976L186.211 114.358ZM179.075 114.722L176.645 124.443L176.713 124.459L176.78 124.475L179.075 114.722ZM177.109 113.848L170.85 121.672L171.03 121.816L171.216 121.952L177.109 113.848ZM175.872 112.319L166.774 116.518L166.903 116.798L167.05 117.07L175.872 112.319ZM175.071 110.135L165.375 112.664L165.414 112.814L165.458 112.962L175.071 110.135ZM173.76 105.111L183.455 102.581L181.501 95.0909H173.76V105.111ZM160.581 105.111V95.0909H152.883L150.899 102.529L160.581 105.111ZM159.416 109.625L149.695 107.195L149.695 107.195L159.416 109.625ZM158.251 114.14L161.621 123.576L166.576 121.806L167.932 116.721L158.251 114.14ZM156.066 114.722L154.22 104.874L153.849 104.943L153.485 105.041L156.066 114.722ZM147.838 113.775L141.827 121.791L142.012 121.931L142.204 122.061L147.838 113.775ZM146.382 108.169L136.748 105.416L136.748 105.416L146.382 108.169ZM147.038 105.766L156.727 108.316L156.732 108.298L156.737 108.281L147.038 105.766ZM148.421 100.888L138.892 97.7906L138.857 97.8991L138.824 98.0084L148.421 100.888ZM150.46 94.6256L159.986 97.7319L159.996 97.702L160.005 97.672L150.46 94.6256ZM152.79 87.6355L143.324 84.3513L143.324 84.3513L152.79 87.6355ZM155.12 80.9367L164.58 84.2369L164.592 84.2034L164.604 84.1698L155.12 80.9367ZM157.086 75.2573L147.727 71.6788L147.68 71.8001L147.637 71.9225L157.086 75.2573ZM167.28 80.8639V70.8441H160.058L157.774 77.6953L167.28 80.8639ZM164.95 87.7083L155.481 84.4308L155.462 84.4852L155.444 84.5398L164.95 87.7083ZM162.692 95.2809L153.005 92.7219L149.682 105.301H162.692V95.2809ZM171.721 95.2809V105.301H184.67L181.42 92.7663L171.721 95.2809ZM169.61 87.6355L159.934 90.2404L159.964 90.3519L159.997 90.4627L169.61 87.6355ZM167.717 80.8639L177.333 78.0493L175.224 70.8441H167.717V80.8639ZM163.622 80.1073C163.382 80.2489 163.327 80.2474 163.587 80.1504C163.827 80.0612 164.224 79.9312 164.82 79.7737L159.692 60.4014C157.733 60.9199 155.46 61.6593 153.462 62.8346L163.622 80.1073ZM164.751 79.7916C165.661 79.5575 166.522 79.4519 167.352 79.4519V59.4124C164.785 59.4124 162.248 59.7438 159.76 60.3834L164.751 79.7916ZM167.352 79.4519C168.794 79.4519 169.638 79.6694 170.081 79.8443L177.439 61.2045C174.193 59.9231 170.765 59.4124 167.352 59.4124V79.4519ZM170.375 79.9549C170.373 79.9542 169.943 79.8011 169.387 79.3009C168.783 78.7569 168.262 78.0082 167.958 77.1517L186.844 70.4503C185.051 65.3986 181.067 62.5017 177.145 61.0939L170.375 79.9549ZM167.932 77.0785C168.754 79.4535 169.662 82.2655 170.655 85.5288L189.826 79.694C188.78 76.2585 187.795 73.1969 186.869 70.5234L167.932 77.0785ZM170.655 85.5288C171.655 88.8139 172.656 92.2238 173.659 95.7591L192.938 90.2883C191.902 86.6393 190.865 83.1077 189.826 79.694L170.655 85.5288ZM173.669 95.7937C174.68 99.3084 175.667 102.798 176.63 106.263L195.938 100.9C194.959 97.3749 193.955 93.8261 192.928 90.2536L173.669 95.7937ZM176.639 106.298C177.605 109.725 178.447 112.756 179.166 115.392L198.499 110.12C197.762 107.417 196.905 104.331 195.928 100.865L176.639 106.298ZM181.225 106.235C181.707 105.673 182.183 105.319 182.515 105.117C182.68 105.016 182.813 104.95 182.9 104.91C182.988 104.871 183.038 104.854 183.043 104.852L189.38 123.864C191.652 123.106 194.315 121.756 196.44 119.277L181.225 106.235ZM182.693 104.976C182.816 104.93 182.843 104.936 182.737 104.952C182.63 104.969 182.411 104.994 182.061 104.994V125.033C184.535 125.033 187.168 124.7 189.729 123.74L182.693 104.976ZM182.061 104.994C181.752 104.994 181.54 104.98 181.414 104.968C181.285 104.955 181.279 104.947 181.37 104.969L176.78 124.475C178.578 124.898 180.388 125.033 182.061 125.033V104.994ZM181.506 105.001C181.718 105.055 182.301 105.235 183.003 105.745L171.216 121.952C172.986 123.238 174.879 124.001 176.645 124.443L181.506 105.001ZM183.369 106.024C184.084 106.597 184.492 107.193 184.694 107.569L167.05 117.07C167.931 118.707 169.164 120.323 170.85 121.672L183.369 106.024ZM184.969 108.12C184.924 108.023 184.819 107.769 184.683 107.308L165.458 112.962C165.808 114.151 166.237 115.353 166.774 116.518L184.969 108.12ZM184.766 107.606L183.455 102.581L164.065 107.64L165.375 112.664L184.766 107.606ZM173.76 95.0909H160.581V115.13H173.76V95.0909ZM150.899 102.529C150.497 104.039 150.095 105.594 149.695 107.195L169.136 112.055C169.513 110.549 169.888 109.095 170.262 107.692L150.899 102.529ZM149.695 107.195C149.319 108.701 148.943 110.155 148.569 111.558L167.932 116.721C168.335 115.212 168.736 113.656 169.136 112.055L149.695 107.195ZM154.881 104.704C154.742 104.753 154.527 104.816 154.22 104.874L157.913 124.57C159.159 124.336 160.401 124.011 161.621 123.576L154.881 104.704ZM153.485 105.041C153.596 105.011 153.677 104.995 153.722 104.987C153.767 104.979 153.785 104.977 153.77 104.979C153.755 104.98 153.715 104.984 153.647 104.988C153.579 104.991 153.488 104.994 153.372 104.994V125.033C154.981 125.033 156.809 124.894 158.648 124.403L153.485 105.041ZM153.372 104.994C153.028 104.994 152.77 104.979 152.586 104.962C152.402 104.944 152.319 104.926 152.319 104.926C152.321 104.926 152.349 104.932 152.4 104.948C152.45 104.963 152.527 104.989 152.626 105.029C152.823 105.109 153.121 105.251 153.473 105.49L142.204 122.061C145.871 124.554 150.124 125.033 153.372 125.033V104.994ZM153.85 105.76C154.406 106.176 155.054 106.856 155.526 107.821C155.993 108.775 156.111 109.641 156.111 110.208H136.071C136.071 114.743 138.041 118.952 141.827 121.791L153.85 105.76ZM156.111 110.208C156.111 110.496 156.068 110.742 156.016 110.921L136.748 105.416C136.308 106.955 136.071 108.56 136.071 110.208H156.111ZM156.016 110.921C156.235 110.156 156.473 109.284 156.727 108.316L137.348 103.216C137.117 104.092 136.918 104.823 136.748 105.416L156.016 110.921ZM156.737 108.281C157.033 107.136 157.456 105.64 158.018 103.767L138.824 98.0084C138.221 100.018 137.721 101.775 137.338 103.251L156.737 108.281ZM157.95 103.984C158.58 102.046 159.259 99.9622 159.986 97.7319L140.934 91.5192C140.205 93.7549 139.524 95.8453 138.892 97.7906L157.95 103.984ZM160.005 97.672C160.707 95.474 161.457 93.2233 162.256 90.9197L143.324 84.3513C142.472 86.8048 141.669 89.2142 140.914 91.5792L160.005 97.672ZM162.256 90.9197C163.08 88.5458 163.854 86.3182 164.58 84.2369L145.659 77.6365C144.929 79.7298 144.15 81.9681 143.324 84.3513L162.256 90.9197ZM164.604 84.1698C165.323 82.0588 165.967 80.2006 166.534 78.592L147.637 71.9225C147.04 73.6147 146.373 75.5429 145.636 77.7036L164.604 84.1698ZM166.445 78.8357C167.074 77.1904 167.551 75.9494 167.88 75.1026L149.204 67.8393C148.853 68.74 148.36 70.0232 147.727 71.6788L166.445 78.8357ZM157.774 77.6953C157.109 79.6902 156.345 81.9345 155.481 84.4308L174.418 90.9859C175.302 88.4337 176.091 86.115 176.785 84.0324L157.774 77.6953ZM155.444 84.5398C154.55 87.2206 153.738 89.9482 153.005 92.7219L172.38 97.8399C173.006 95.4682 173.698 93.1474 174.455 90.8768L155.444 84.5398ZM162.692 105.301H171.721V85.2611H162.692V105.301ZM181.42 92.7663C180.715 90.0455 179.982 87.3926 179.222 84.8083L159.997 90.4627C160.693 92.8297 161.368 95.2738 162.022 97.7955L181.42 92.7663ZM179.285 85.0306C178.591 82.4534 177.94 80.1244 177.333 78.0493L158.1 83.6784C158.658 85.5838 159.269 87.7692 159.934 90.2404L179.285 85.0306ZM167.717 70.8441H167.28V90.8836H167.717V70.8441ZM234.774 112.756L241.859 119.841L244.794 116.906V112.756H234.774ZM231.789 114.285L229.274 104.586L229.057 104.642L228.842 104.708L231.789 114.285ZM222.105 114.067L225.273 104.561L225.273 104.561L222.105 114.067ZM218.173 110.208L209.175 114.617L209.193 114.653L209.211 114.689L218.173 110.208ZM210.964 95.4993L201.945 99.8635L201.956 99.8862L201.967 99.9089L210.964 95.4993ZM208.998 91.2762L199.789 95.2231L199.815 95.2845L199.842 95.3456L208.998 91.2762ZM207.105 86.6161L216.444 82.9845L213.492 75.3937L205.458 76.7327L207.105 86.6161ZM206.668 86.6889L205.021 76.8055L196 78.309L196.676 87.4291L206.668 86.6889ZM206.959 94.6984H196.94V94.7878L196.941 94.8773L206.959 94.6984ZM207.032 113.994L209.669 123.661L217.052 121.647V113.994H207.032ZM204.557 114.431L203.261 104.495L203.232 104.499L203.203 104.503L204.557 114.431ZM198.513 114.431L200.254 104.563L198.513 114.431ZM196.474 113.557L202.819 105.802L196.474 113.557ZM195.237 111.81L185.855 115.328L185.893 115.43L185.933 115.531L195.237 111.81ZM194.8 72.4175L186.591 66.6716L184.78 69.2591V72.4175H194.8ZM197.931 70.2331L194.664 60.7607L194.664 60.7607L197.931 70.2331ZM207.542 70.3788L204.118 79.7953L204.287 79.8567L204.458 79.912L207.542 70.3788ZM211.474 74.1651L202.468 78.5579L202.481 78.5842L202.494 78.6104L211.474 74.1651ZM218.755 88.8733L227.775 84.5091L227.755 84.4684L227.735 84.428L218.755 88.8733ZM220.721 93.1693L211.512 97.1163L211.538 97.1777L211.565 97.2387L220.721 93.1693ZM222.614 97.7565L213.276 101.388L216.326 109.232L224.579 107.582L222.614 97.7565ZM222.978 97.6837L224.943 107.509L233.625 105.773L232.971 96.9436L222.978 97.6837ZM222.614 89.8199L232.632 89.6344L232.632 89.6344L222.614 89.8199ZM222.541 70.1603L219.905 60.4936L212.522 62.5073V70.1603H222.541ZM224.944 69.7234L223.648 59.7878L223.619 59.7916L223.591 59.7956L224.944 69.7234ZM233.099 70.67L227.377 78.8953L227.5 78.9808L227.626 79.0627L233.099 70.67ZM227.689 105.671C228.686 104.674 229.527 104.521 229.274 104.586L234.303 123.984C236.672 123.37 239.503 122.198 241.859 119.841L227.689 105.671ZM228.842 104.708C228.843 104.708 228.719 104.746 228.433 104.782C228.149 104.818 227.745 104.848 227.202 104.848V124.887C229.663 124.887 232.245 124.628 234.735 123.862L228.842 104.708ZM227.202 104.848C226.414 104.848 225.79 104.733 225.273 104.561L218.936 123.572C221.623 124.468 224.397 124.887 227.202 124.887V104.848ZM225.273 104.561C226.041 104.817 226.603 105.221 226.939 105.551C227.239 105.845 227.263 105.984 227.135 105.727L209.211 114.689C210.991 118.249 214.031 121.937 218.936 123.572L225.273 104.561ZM227.17 105.798L219.961 91.0898L201.967 99.9089L209.175 114.617L227.17 105.798ZM219.984 91.1351C219.295 89.7124 218.686 88.4038 218.154 87.2068L199.842 95.3456C200.475 96.7698 201.177 98.2767 201.945 99.8635L219.984 91.1351ZM218.208 87.3292C217.68 86.0976 217.092 84.6527 216.444 82.9845L197.767 90.2477C198.477 92.0746 199.151 93.7364 199.789 95.2231L218.208 87.3292ZM205.458 76.7327L205.021 76.8055L208.315 96.5723L208.752 96.4995L205.458 76.7327ZM196.676 87.4291C196.851 89.7959 196.94 92.2186 196.94 94.6984H216.979C216.979 91.7414 216.874 88.8246 216.661 85.9488L196.676 87.4291ZM196.941 94.8773C196.989 97.5382 197.013 100.148 197.013 102.708H217.052C217.052 100.025 217.027 97.2953 216.978 94.5195L196.941 94.8773ZM197.013 102.708V113.994H217.052V102.708H197.013ZM204.396 104.327C204.533 104.29 204.519 104.301 204.272 104.345C204.047 104.385 203.717 104.436 203.261 104.495L205.853 124.366C207.059 124.209 208.445 123.994 209.669 123.661L204.396 104.327ZM203.203 104.503C202.579 104.588 201.964 104.629 201.353 104.629V124.669C202.878 124.669 204.398 124.565 205.91 124.359L203.203 104.503ZM201.353 104.629C200.718 104.629 200.374 104.585 200.254 104.563L196.772 124.298C198.303 124.568 199.851 124.669 201.353 124.669V104.629ZM200.254 104.563C200.759 104.652 201.768 104.942 202.819 105.802L190.129 121.312C192.249 123.046 194.617 123.918 196.772 124.298L200.254 104.563ZM202.819 105.802C203.767 106.578 204.289 107.461 204.54 108.088L185.933 115.531C186.767 117.614 188.114 119.663 190.129 121.312L202.819 105.802ZM204.618 108.291C204.769 108.694 204.813 108.965 204.823 109.03C204.833 109.099 204.819 109.041 204.819 108.824H184.78C184.78 110.733 184.994 113.034 185.855 115.328L204.618 108.291ZM204.819 108.824V72.4175H184.78V108.824H204.819ZM203.008 78.1635C202.195 79.3257 201.271 79.6801 201.197 79.7055L194.664 60.7607C191.775 61.7571 188.764 63.5677 186.591 66.6716L203.008 78.1635ZM201.197 79.7055C201.477 79.609 201.87 79.5248 202.445 79.5248V59.4853C199.816 59.4853 197.2 59.8864 194.664 60.7607L201.197 79.7055ZM202.445 79.5248C203.137 79.5248 203.671 79.6329 204.118 79.7953L210.966 60.9623C208.209 59.9596 205.346 59.4853 202.445 59.4853V79.5248ZM204.458 79.912C203.764 79.6876 203.198 79.3146 202.813 78.9432C202.462 78.6053 202.389 78.3958 202.468 78.5579L220.479 69.7722C218.663 66.0492 215.536 62.434 210.626 60.8455L204.458 79.912ZM202.494 78.6104L209.776 93.3187L227.735 84.428L220.454 69.7197L202.494 78.6104ZM209.736 93.2375C210.406 94.6221 210.996 95.9143 211.512 97.1163L229.931 89.2223C229.281 87.7059 228.561 86.1342 227.775 84.5091L209.736 93.2375ZM211.565 97.2387C212.067 98.3689 212.637 99.7461 213.276 101.388L231.953 94.1249C231.232 92.2719 230.54 90.591 229.877 89.0999L211.565 97.2387ZM224.579 107.582L224.943 107.509L221.013 87.8586L220.649 87.9314L224.579 107.582ZM232.971 96.9436C232.79 94.5064 232.677 92.0701 232.632 89.6344L212.596 90.0054C212.648 92.8123 212.778 95.6185 212.986 98.4239L232.971 96.9436ZM232.632 89.6344C232.585 87.0749 232.561 84.5155 232.561 81.9561H212.522C212.522 84.6392 212.547 87.3223 212.596 90.0054L232.632 89.6344ZM232.561 81.9561V70.1603H212.522V81.9561H232.561ZM225.178 79.827C225.07 79.8564 225.1 79.8428 225.335 79.8C225.552 79.7606 225.867 79.7101 226.298 79.6513L223.591 59.7956C222.414 59.956 221.088 60.1709 219.905 60.4936L225.178 79.827ZM226.24 79.659C226.95 79.5664 227.609 79.5248 228.221 79.5248V59.4853C226.697 59.4853 225.171 59.5892 223.648 59.7878L226.24 79.659ZM228.221 79.5248C228.71 79.5248 228.841 79.572 228.715 79.542C228.582 79.5101 228.052 79.3642 227.377 78.8953L238.821 62.4447C235.316 60.0062 231.323 59.4853 228.221 59.4853V79.5248ZM227.626 79.0627C225.956 77.9738 225.206 76.5484 224.926 75.7698C224.683 75.0941 224.754 74.8307 224.754 75.3301H244.794C244.794 72.1788 244.177 65.932 238.573 62.2774L227.626 79.0627ZM224.754 75.3301V112.756H244.794V75.3301H224.754ZM257.034 97.9022L264.632 91.37L247.014 70.8787V97.9022H257.034ZM257.034 113.994L259.67 123.661L267.054 121.647V113.994H257.034ZM254.485 114.431L255.728 124.373L255.728 124.373L254.485 114.431ZM248.078 114.358L250.251 104.577L250.036 104.529L249.819 104.491L248.078 114.358ZM245.966 113.484L239.954 121.5L239.954 121.5L245.966 113.484ZM244.656 111.664L235.274 115.182L235.274 115.182L244.656 111.664ZM244.219 70.1603L242.426 60.3022L234.199 61.7981V70.1603H244.219ZM246.767 69.7963L248.01 79.7386L248.213 79.7133L248.414 79.6797L246.767 69.7963ZM253.029 69.7963L250.734 79.5497L251.056 79.6253L251.382 79.6797L253.029 69.7963ZM255.214 70.67L249.202 78.6858L249.202 78.6858L255.214 70.67ZM256.524 72.4903L247.142 76.0085L247.142 76.0085L256.524 72.4903ZM256.961 87.1258H246.941V113.901L264.519 93.7037L256.961 87.1258ZM272.106 69.7234V59.7037H267.543L264.548 63.1456L272.106 69.7234ZM279.169 71.6166L272.481 79.077L272.615 79.198L272.755 79.314L279.169 71.6166ZM280.407 79.5532L271.684 74.6229L271.684 74.6229L280.407 79.5532ZM277.349 83.3395L284.434 90.4246L284.434 90.4246L277.349 83.3395ZM268.247 92.4412L261.162 85.3561L254.467 92.0515L260.773 99.1145L268.247 92.4412ZM272.033 96.6643L264.586 103.367L264.647 103.435L264.708 103.501L272.033 96.6643ZM275.965 100.96L268.505 107.649L268.626 107.784L268.753 107.915L275.965 100.96ZM279.679 104.892L272.316 111.688L272.386 111.763L272.456 111.837L279.679 104.892ZM282.81 108.169H292.83V104.176L290.084 101.278L282.81 108.169ZM282.227 111.009L273.161 106.742L273.161 106.742L282.227 111.009ZM280.625 113.12L274.105 105.513L273.965 105.633L273.829 105.758L280.625 113.12ZM270.941 113.411L264.645 121.206L264.738 121.281L264.832 121.353L270.941 113.411ZM267.301 109.844L274.908 103.323L274.903 103.317L274.898 103.311L267.301 109.844ZM247.014 97.9022V113.994H267.054V97.9022H247.014ZM254.398 104.327C254.497 104.3 254.541 104.292 254.51 104.298C254.484 104.304 254.417 104.317 254.303 104.337C254.07 104.377 253.724 104.428 253.243 104.488L255.728 124.373C256.964 124.219 258.408 124.005 259.67 123.661L254.398 104.327ZM253.243 104.488C252.469 104.585 251.744 104.629 251.063 104.629V124.669C252.616 124.669 254.172 124.568 255.728 124.373L253.243 104.488ZM251.063 104.629C250.793 104.629 250.592 104.618 250.452 104.604C250.313 104.59 250.25 104.576 250.251 104.577L245.904 124.139C247.641 124.525 249.387 124.669 251.063 124.669V104.629ZM249.819 104.491C250.309 104.577 251.125 104.828 251.978 105.468L239.954 121.5C241.973 123.014 244.197 123.848 246.337 124.225L249.819 104.491ZM251.978 105.468C253.13 106.332 253.753 107.388 254.037 108.146L235.274 115.182C236.14 117.493 237.638 119.763 239.954 121.5L251.978 105.468ZM254.037 108.146C254.199 108.576 254.241 108.856 254.247 108.9C254.254 108.95 254.239 108.864 254.239 108.606H234.199C234.199 110.508 234.401 112.853 235.274 115.182L254.037 108.146ZM254.239 108.606V70.1603H234.199V108.606H254.239ZM246.011 80.0184C246.253 79.9744 246.869 79.8813 248.01 79.7386L245.524 59.8539C244.336 60.0025 243.252 60.152 242.426 60.3022L246.011 80.0184ZM248.414 79.6797C249.092 79.5668 249.655 79.5248 250.117 79.5248V59.4853C248.442 59.4853 246.773 59.6373 245.12 59.9128L248.414 79.6797ZM250.117 79.5248C250.388 79.5248 250.574 79.5367 250.685 79.5478C250.797 79.5591 250.807 79.5668 250.734 79.5497L255.324 60.0429C253.553 59.6262 251.778 59.4853 250.117 59.4853V79.5248ZM251.382 79.6797C251.011 79.6179 250.153 79.399 249.202 78.6858L261.225 62.6542C259.109 61.0672 256.795 60.2659 254.676 59.9128L251.382 79.6797ZM249.202 78.6858C248.05 77.8221 247.427 76.766 247.142 76.0085L265.906 68.9722C265.039 66.6613 263.542 64.3917 261.225 62.6542L249.202 78.6858ZM247.142 76.0085C246.981 75.5784 246.939 75.2981 246.933 75.2544C246.926 75.204 246.941 75.2902 246.941 75.5485H266.981C266.981 73.6464 266.779 71.3011 265.906 68.9722L247.142 76.0085ZM246.941 75.5485V87.1258H266.981V75.5485H246.941ZM264.519 93.7037L279.664 76.3013L264.548 63.1456L249.403 80.5479L264.519 93.7037ZM272.106 79.7432C272.617 79.7432 273.008 79.7679 273.293 79.7997C273.58 79.8317 273.724 79.8669 273.753 79.8748C273.836 79.897 273.237 79.7556 272.481 79.077L285.858 64.1562C281.66 60.3927 276.197 59.7037 272.106 59.7037V79.7432ZM272.755 79.314C272.594 79.1798 272.193 78.7946 271.846 78.0999C271.483 77.3757 271.334 76.6217 271.334 75.9854H291.373C291.373 70.9452 289.026 66.7879 285.584 63.9192L272.755 79.314ZM271.334 75.9854C271.334 75.7715 271.362 75.5197 271.432 75.2545C271.502 74.9902 271.598 74.776 271.684 74.6229L289.13 84.4835C290.597 81.8884 291.373 79.0042 291.373 75.9854H271.334ZM271.684 74.6229C271.7 74.595 271.624 74.7324 271.374 75.0414C271.13 75.3436 270.771 75.7472 270.264 76.2545L284.434 90.4246C286.171 88.6875 287.878 86.6977 289.13 84.4835L271.684 74.6229ZM270.264 76.2545L261.162 85.3561L275.332 99.5262L284.434 90.4246L270.264 76.2545ZM260.773 99.1145C261.996 100.484 263.267 101.902 264.586 103.367L279.481 89.9615C278.179 88.5143 276.925 87.1165 275.721 85.7679L260.773 99.1145ZM264.708 103.501C266.024 104.911 267.29 106.294 268.505 107.649L283.426 94.2717C282.117 92.8116 280.761 91.3303 279.358 89.8277L264.708 103.501ZM268.753 107.915C270.018 109.227 271.205 110.485 272.316 111.688L287.041 98.096C285.822 96.7755 284.534 95.4118 283.178 94.0053L268.753 107.915ZM272.456 111.837C273.659 113.087 274.684 114.161 275.536 115.06L290.084 101.278C289.188 100.332 288.126 99.2213 286.901 97.9475L272.456 111.837ZM272.79 108.169C272.79 108.012 272.823 107.461 273.161 106.742L291.293 115.275C292.408 112.906 292.83 110.461 292.83 108.169H272.79ZM273.161 106.742C273.364 106.311 273.689 105.869 274.105 105.513L287.146 120.728C288.921 119.206 290.314 117.356 291.293 115.275L273.161 106.742ZM273.829 105.758C274.218 105.399 274.673 105.135 275.106 104.982L281.776 123.879C283.859 123.144 285.771 122.006 287.422 120.483L273.829 105.758ZM275.106 104.982C275.409 104.875 275.668 104.848 275.82 104.848V124.887C277.816 124.887 279.823 124.569 281.776 123.879L275.106 104.982ZM275.82 104.848C275.632 104.848 275.712 104.825 275.973 104.902C276.256 104.987 276.648 105.16 277.05 105.469L264.832 121.353C268.245 123.978 272.182 124.887 275.82 124.887V104.848ZM277.237 105.617C276.496 105.018 275.716 104.265 274.908 103.323L259.693 116.364C261.215 118.14 262.862 119.766 264.645 121.206L277.237 105.617ZM274.898 103.311L264.632 91.37L249.436 104.434L259.703 116.376L274.898 103.311ZM301.54 96.7372L298.307 106.221L298.339 106.232L298.371 106.243L301.54 96.7372ZM295.715 94.5528L291.645 103.709L291.753 103.757L291.861 103.802L295.715 94.5528ZM288.215 87.9996L279.083 92.1236L279.165 92.3037L279.253 92.4805L288.215 87.9996ZM291.929 72.636L285.802 64.7075L285.773 64.7302L285.743 64.7531L291.929 72.636ZM311.151 69.3594L312.755 59.4688L312.755 59.4688L311.151 69.3594ZM315.738 70.7428L311.258 79.7048L311.461 79.8066L311.669 79.899L315.738 70.7428ZM318.797 73.0729L310.781 79.0847L310.855 79.1841L310.932 79.2815L318.797 73.0729ZM319.015 79.626L327.352 85.184L327.421 85.0811L327.487 84.9765L319.015 79.626ZM316.903 81.8833L311.524 90.3365L317.43 94.0946L322.99 89.8425L316.903 81.8833ZM312.608 80.1357L309.752 89.74L309.872 89.7757L309.993 89.8084L312.608 80.1357ZM301.904 80.2814L306.875 88.9809L307.028 88.8935L307.178 88.8008L301.904 80.2814ZM301.321 84.3589L295.212 92.3008L295.411 92.454L295.618 92.5971L301.321 84.3589ZM304.161 85.5967L307.221 76.0558L307.165 76.0376L307.108 76.0201L304.161 85.5967ZM308.02 86.8346L304.96 96.3755L304.967 96.3777L304.974 96.38L308.02 86.8346ZM318.505 92.4412L311.643 99.7418L311.718 99.8125L311.794 99.8815L318.505 92.4412ZM317.34 111.664L323.484 119.579L323.52 119.551L323.557 119.522L317.34 111.664ZM296.734 114.868L298.699 105.042L298.602 105.023L298.504 105.006L296.734 114.868ZM291.71 113.339L287.107 122.238L287.288 122.332L287.473 122.418L291.71 113.339ZM288.361 110.717L280.257 116.611L280.41 116.82L280.573 117.022L288.361 110.717ZM288.433 103.509L296.068 109.998L296.146 109.907L296.221 109.813L288.433 103.509ZM291.128 101.179L297.318 93.3001L292.106 89.2052L286.299 92.3993L291.128 101.179ZM296.079 103.946L292.358 113.249L292.397 113.264L292.436 113.28L296.079 103.946ZM307.583 104.018L313.595 112.034L313.595 112.034L307.583 104.018ZM307.875 99.2856L302.198 107.542L302.379 107.666L302.564 107.782L307.875 99.2856ZM304.598 97.7565L307.864 88.2841L307.816 88.2673L307.767 88.251L304.598 97.7565ZM304.773 87.2534C302.808 86.5836 301.078 85.9325 299.569 85.3038L291.861 103.802C293.847 104.629 296 105.434 298.307 106.221L304.773 87.2534ZM299.784 85.3966C298.772 84.9469 298.106 84.5038 297.673 84.1369L284.728 99.4348C286.819 101.204 289.162 102.605 291.645 103.709L299.784 85.3966ZM297.673 84.1369C297.43 83.9316 297.289 83.7421 297.177 83.5186L279.253 92.4805C280.598 95.1696 282.447 97.5043 284.728 99.4348L297.673 84.1369ZM297.347 83.8756C297.398 83.988 297.215 83.6529 297.215 82.5386H277.176C277.176 85.6959 277.673 89.0015 279.083 92.1236L297.347 83.8756ZM297.215 82.5386C297.215 81.7787 297.353 81.4272 297.419 81.2891C297.481 81.1598 297.631 80.8979 298.114 80.5189L285.743 64.7531C280.087 69.191 277.176 75.4388 277.176 82.5386H297.215ZM298.055 80.5645C298.907 79.9064 300.918 78.9422 305.326 78.9422V58.9027C298.278 58.9027 291.358 60.4143 285.802 64.7075L298.055 80.5645ZM305.326 78.9422C306.953 78.9422 308.352 79.0561 309.547 79.2499L312.755 59.4688C310.358 59.0801 307.874 58.9027 305.326 58.9027V78.9422ZM309.547 79.2499C310.617 79.4233 311.12 79.6362 311.258 79.7048L320.219 61.7809C317.832 60.5873 315.278 59.8779 312.755 59.4688L309.547 79.2499ZM311.669 79.899C311.696 79.911 311.592 79.8679 311.414 79.7322C311.229 79.592 311.001 79.3788 310.781 79.0847L326.812 67.061C324.886 64.4931 322.396 62.7368 319.808 61.5867L311.669 79.899ZM310.932 79.2815C310.593 78.8511 310.303 78.3298 310.11 77.7522C309.921 77.1832 309.869 76.6922 309.869 76.3494H329.909C329.909 73.0127 328.892 69.69 326.661 66.8642L310.932 79.2815ZM309.869 76.3494C309.869 76.021 309.964 75.1932 310.543 74.2756L327.487 84.9765C329.231 82.2143 329.909 79.202 329.909 76.3494H309.869ZM310.678 74.0681C310.685 74.0575 310.703 74.0324 310.733 74.0006C310.763 73.9686 310.793 73.9424 310.817 73.924L322.99 89.8425C324.702 88.5332 326.164 86.9666 327.352 85.184L310.678 74.0681ZM322.283 73.43C320.061 72.016 317.581 71.1008 315.222 70.463L309.993 89.8084C310.573 89.9651 310.983 90.1079 311.253 90.2179C311.528 90.3298 311.596 90.3821 311.524 90.3365L322.283 73.43ZM315.463 70.5314C312.621 69.6866 309.68 69.315 306.71 69.315V89.3545C308.011 89.3545 309.002 89.517 309.752 89.74L315.463 70.5314ZM306.71 69.315C303.976 69.315 300.067 69.6342 296.63 71.7619L307.178 88.8008C306.756 89.0619 306.404 89.2108 306.181 89.2914C305.958 89.3719 305.822 89.3992 305.806 89.4023C305.789 89.4058 305.852 89.3925 306.013 89.3791C306.172 89.3658 306.401 89.3545 306.71 89.3545V69.315ZM296.933 71.5818C293.78 73.3834 290.355 77.0111 290.355 82.5386H310.395C310.395 84.0491 309.939 85.5935 309.053 86.9021C308.236 88.1072 307.32 88.7268 306.875 88.9809L296.933 71.5818ZM290.355 82.5386C290.355 86.6974 292.381 90.1226 295.212 92.3008L307.431 76.417C308.084 76.9195 308.883 77.7287 309.501 78.9171C310.134 80.1335 310.395 81.4003 310.395 82.5386H290.355ZM295.618 92.5971C297.489 93.8922 299.569 94.6672 301.214 95.1734L307.108 76.0201C306.931 75.9657 306.793 75.9189 306.69 75.8814C306.586 75.8437 306.527 75.8193 306.508 75.811C306.488 75.8022 306.524 75.8169 306.604 75.8599C306.645 75.8821 306.702 75.9137 306.771 75.9557C306.84 75.9976 306.926 76.0522 307.025 76.1207L295.618 92.5971ZM301.101 95.1377L304.96 96.3755L311.081 77.2936L307.221 76.0558L301.101 95.1377ZM304.974 96.38C308.691 97.5664 310.674 98.831 311.643 99.7418L325.368 85.1405C321.483 81.4884 316.475 79.0152 311.067 77.2892L304.974 96.38ZM311.794 99.8815C311.918 99.993 311.959 100.061 312.003 100.169C312.061 100.312 312.199 100.738 312.199 101.616H332.239C332.239 95.4092 330.152 89.4524 325.216 85.0008L311.794 99.8815ZM312.199 101.616C312.199 102.661 311.988 103.122 311.124 103.806L323.557 119.522C329.197 115.06 332.239 108.823 332.239 101.616H312.199ZM311.197 103.748C310.42 104.352 308.204 105.43 302.996 105.43V125.47C310.41 125.47 317.756 124.024 323.484 119.579L311.197 103.748ZM302.996 105.43C301.341 105.43 299.918 105.286 298.699 105.042L294.769 124.693C297.434 125.226 300.186 125.47 302.996 125.47V105.43ZM298.504 105.006C297.302 104.79 296.482 104.509 295.947 104.259L287.473 122.418C289.85 123.528 292.38 124.266 294.964 124.73L298.504 105.006ZM296.313 104.439C296.1 104.328 296.005 104.257 295.992 104.247C295.982 104.239 296.049 104.289 296.148 104.413L280.573 117.022C282.431 119.317 284.721 121.004 287.107 122.238L296.313 104.439ZM296.464 104.824C296.681 105.122 296.887 105.505 297.03 105.952C297.172 106.397 297.215 106.789 297.215 107.077H277.176C277.176 110.487 278.197 113.777 280.257 116.611L296.464 104.824ZM297.215 107.077C297.215 107.36 297.172 107.834 296.971 108.413C296.766 109.006 296.449 109.55 296.068 109.998L280.799 97.0195C278.269 99.9955 277.176 103.558 277.176 107.077H297.215ZM296.221 109.813C296.377 109.621 296.311 109.763 295.956 109.958L286.299 92.3993C284.002 93.6625 282.14 95.358 280.646 97.2044L296.221 109.813ZM284.937 109.057C287.185 110.824 289.708 112.189 292.358 113.249L299.8 94.6426C298.566 94.1489 297.788 93.6696 297.318 93.3001L284.937 109.057ZM292.436 113.28C295.689 114.549 299.096 115.13 302.559 115.13V95.0909C301.362 95.0909 300.45 94.8957 299.721 94.6115L292.436 113.28ZM302.559 115.13C305.347 115.13 309.875 114.825 313.595 112.034L301.572 96.0027C302.111 95.5984 302.586 95.3641 302.9 95.2348C303.212 95.1059 303.419 95.0577 303.471 95.0466C303.543 95.0308 303.286 95.0909 302.559 95.0909V115.13ZM313.595 112.034C316.389 109.939 319.059 106.377 319.059 101.47H299.02C299.02 100.198 299.361 98.9409 299.976 97.8641C300.554 96.8523 301.218 96.2679 301.572 96.0027L313.595 112.034ZM319.059 101.47C319.059 97.2946 317.097 93.2341 313.185 90.7889L302.564 107.782C301.632 107.2 300.627 106.26 299.907 104.911C299.202 103.588 299.02 102.339 299.02 101.47H319.059ZM313.551 91.0289C311.728 89.7758 309.694 88.9149 307.864 88.2841L301.332 107.229C301.779 107.383 302.07 107.505 302.236 107.583C302.411 107.664 302.371 107.661 302.198 107.542L313.551 91.0289ZM307.767 88.251L304.708 87.2316L298.371 106.243L301.43 107.262L307.767 88.251Z" fill="white" mask="url(#path-7-outside-3_4239_1553)"/>
</g>
<path d="M32.8398 0.867188V546.019L190.019 404.975L347.197 546.019V0.867188" stroke="white" stroke-width="1.4922" stroke-dasharray="9.95 9.95"/>
<defs>
<filter id="filter0_d_4239_1553" x="118.658" y="286.445" width="142.828" height="53.3712" filterUnits="userSpaceOnUse" color-interpolation-filters="sRGB">
<feFlood flood-opacity="0" result="BackgroundImageFix"/>
<feColorMatrix in="SourceAlpha" type="matrix" values="0 0 0 0 0 0 0 0 0 0 0 0 0 0 0 0 0 0 127 0" result="hardAlpha"/>
<feOffset dy="2.10942"/>
<feGaussianBlur stdDeviation="1.05471"/>
<feComposite in2="hardAlpha" operator="out"/>
<feColorMatrix type="matrix" values="0 0 0 0 0 0 0 0 0 0 0 0 0 0 0 0 0 0 0.25 0"/>
<feBlend mode="normal" in2="BackgroundImageFix" result="effect1_dropShadow_4239_1553"/>
<feBlend mode="normal" in="SourceGraphic" in2="effect1_dropShadow_4239_1553" result="shape"/>
</filter>
<filter id="filter1_d_4239_1553" x="166.6" y="179.434" width="46.961" height="49.797" filterUnits="userSpaceOnUse" color-interpolation-filters="sRGB">
<feFlood flood-opacity="0" result="BackgroundImageFix"/>
<feColorMatrix in="SourceAlpha" type="matrix" values="0 0 0 0 0 0 0 0 0 0 0 0 0 0 0 0 0 0 127 0" result="hardAlpha"/>
<feOffset dy="2.10942"/>
<feGaussianBlur stdDeviation="1.05471"/>
<feComposite in2="hardAlpha" operator="out"/>
<feColorMatrix type="matrix" values="0 0 0 0 0 0 0 0 0 0 0 0 0 0 0 0 0 0 0.25 0"/>
<feBlend mode="normal" in2="BackgroundImageFix" result="effect1_dropShadow_4239_1553"/>
<feBlend mode="normal" in="SourceGraphic" in2="effect1_dropShadow_4239_1553" result="shape"/>
</filter>
<filter id="filter2_d_4239_1553" x="54.2363" y="68.9219" width="270.092" height="50.7462" filterUnits="userSpaceOnUse" color-interpolation-filters="sRGB">
<feFlood flood-opacity="0" result="BackgroundImageFix"/>
<feColorMatrix in="SourceAlpha" type="matrix" values="0 0 0 0 0 0 0 0 0 0 0 0 0 0 0 0 0 0 127 0" result="hardAlpha"/>
<feOffset dy="2.10942"/>
<feGaussianBlur stdDeviation="1.05471"/>
<feComposite in2="hardAlpha" operator="out"/>
<feColorMatrix type="matrix" values="0 0 0 0 0 0 0 0 0 0 0 0 0 0 0 0 0 0 0.25 0"/>
<feBlend mode="normal" in2="BackgroundImageFix" result="effect1_dropShadow_4239_1553"/>
<feBlend mode="normal" in="SourceGraphic" in2="effect1_dropShadow_4239_1553" result="shape"/>
</filter>
</defs>
</svg>
