<svg width="588" height="587" viewBox="0 0 588 587" fill="none" xmlns="http://www.w3.org/2000/svg">
<path d="M260.164 20.1386C281.167 8.0128 307.043 8.01277 328.045 20.1386L514.087 127.55C535.089 139.675 548.027 162.085 548.027 186.336V401.158C548.027 425.41 535.089 447.819 514.087 459.945L328.045 567.356C307.043 579.482 281.167 579.482 260.164 567.356L74.1229 459.945C53.1205 447.819 40.1823 425.41 40.1823 401.158V186.336C40.1823 162.085 53.1204 139.675 74.1229 127.55L260.164 20.1386Z" fill="white"/>
<path d="M261.796 33.2976C281.789 21.755 306.42 21.7551 326.413 33.2976L503.506 135.543C523.498 147.085 535.814 168.417 535.814 191.502V395.992C535.814 419.077 523.498 440.409 503.506 451.951L326.413 554.196C306.42 565.739 281.789 565.739 261.796 554.196L84.7027 451.951C64.7104 440.409 52.3946 419.077 52.3946 395.992V191.502C52.3946 168.417 64.7104 147.085 84.7027 135.543L261.796 33.2976Z" fill="#D3BCB1"/>
<path d="M71.4044 404.367C70.5057 401.014 69.8932 397.565 69.5865 394.054L70.5621 393.969C70.4133 392.265 70.3377 390.546 70.3377 388.817V382.875H69.3584V370.991H70.3377V359.107H69.3584V347.224H70.3377V335.34H69.3584V323.456H70.3377V311.572H69.3584V299.689H70.3377V287.805H69.3584V275.921H70.3377V264.037H69.3584V252.154H70.3377V240.27H69.3584V228.386H70.3377V216.502H69.3584V204.619H70.3377V198.677C70.3377 196.947 70.4133 195.229 70.5621 193.525L69.5865 193.439C69.8932 189.928 70.5057 186.479 71.4044 183.126L72.3503 183.38C73.2441 180.045 74.4257 176.806 75.875 173.699L74.9874 173.285C76.4658 170.116 78.2181 167.08 80.2239 164.215L81.0261 164.777C82.9924 161.968 85.2062 159.326 87.6475 156.884L86.955 156.192C89.4095 153.737 92.0903 151.482 94.9776 149.461L95.5392 150.263C96.9404 149.282 98.3911 148.357 99.889 147.493L105.035 144.522L104.545 143.674L114.837 137.732L115.326 138.58L125.618 132.638L125.128 131.79L135.42 125.848L135.91 126.696L146.201 120.754L145.712 119.906L156.003 113.964L156.493 114.812L166.785 108.87L166.295 108.022L176.587 102.08L177.076 102.929L187.368 96.9867L186.878 96.1386L197.17 90.1967L197.659 91.0449L207.951 85.103L207.461 84.2549L217.753 78.313L218.243 79.1611L228.534 73.2192L228.045 72.3711L238.336 66.4293L238.826 67.2774L249.117 61.3355L248.628 60.4874L258.919 54.5455L259.409 55.3936L264.555 52.4227C266.053 51.5579 267.579 50.764 269.129 50.0409L268.715 49.1534C271.909 47.6635 275.202 46.4694 278.556 45.571L278.809 46.517C282.144 45.6236 285.539 45.0276 288.955 44.7291L288.87 43.7535C292.354 43.449 295.859 43.449 299.343 43.7535L299.257 44.7291C302.673 45.0276 306.068 45.6236 309.403 46.517L309.657 45.571C313.01 46.4694 316.303 47.6635 319.497 49.1534L319.083 50.0409C320.633 50.764 322.16 51.5579 323.657 52.4227L328.803 55.3936L329.293 54.5455L339.585 60.4874L339.095 61.3355L349.386 67.2774L349.876 66.4293L360.168 72.3711L359.678 73.2192L369.97 79.1611L370.459 78.313L380.751 84.2549L380.261 85.103L390.553 91.0449L391.043 90.1968L401.334 96.1386L400.845 96.9867L411.136 102.929L411.626 102.08L421.917 108.022L421.428 108.87L431.719 114.812L432.209 113.964L442.501 119.906L442.011 120.754L452.303 126.696L452.792 125.848L463.084 131.79L462.594 132.638L472.886 138.58L473.376 137.732L483.667 143.674L483.178 144.522L488.323 147.493C489.821 148.357 491.272 149.282 492.673 150.263L493.235 149.461C496.122 151.482 498.803 153.737 501.257 156.192L500.565 156.884C503.006 159.326 505.22 161.968 507.186 164.777L507.988 164.215C509.994 167.08 511.747 170.115 513.225 173.285L512.337 173.699C513.787 176.806 514.968 180.045 515.862 183.38L516.808 183.126C517.707 186.479 518.319 189.928 518.626 193.439L517.65 193.525C517.799 195.229 517.875 196.947 517.875 198.677V204.619H518.854V216.502H517.875V228.386H518.854V240.27H517.875V252.154H518.854V264.037H517.875V275.921H518.854V287.805H517.875V299.689H518.854V311.572H517.875V323.456H518.854V335.34H517.875V347.224H518.854V359.107H517.875V370.991H518.854V382.875H517.875V388.817C517.875 390.546 517.799 392.265 517.65 393.969L518.626 394.054C518.319 397.565 517.707 401.014 516.808 404.367L515.862 404.114C514.968 407.449 513.787 410.687 512.337 413.795L513.225 414.209C511.747 417.378 509.994 420.413 507.988 423.278L507.186 422.717C505.22 425.525 503.006 428.168 500.565 430.609L501.257 431.302C498.803 433.757 496.122 436.012 493.235 438.033L492.673 437.23C491.272 438.211 489.821 439.136 488.323 440.001L483.178 442.972L483.667 443.82L473.376 449.762L472.886 448.914L462.594 454.856L463.084 455.704L452.792 461.646L452.303 460.798L442.011 466.739L442.501 467.587L432.209 473.529L431.719 472.681L421.428 478.623L421.917 479.471L411.626 485.413L411.136 484.565L400.845 490.507L401.334 491.355L391.043 497.297L390.553 496.449L380.261 502.391L380.751 503.239L370.459 509.181L369.97 508.332L359.678 514.274L360.168 515.122L349.876 521.064L349.386 520.216L339.095 526.158L339.585 527.006L329.293 532.948L328.803 532.1L323.657 535.071C322.16 535.936 320.633 536.73 319.083 537.453L319.497 538.34C316.303 539.83 313.01 541.024 309.657 541.923L309.403 540.977C306.068 541.87 302.673 542.466 299.257 542.764L299.343 543.74C295.859 544.045 292.354 544.045 288.87 543.74L288.955 542.764C285.539 542.466 282.144 541.87 278.809 540.977L278.556 541.923C275.202 541.024 271.909 539.83 268.715 538.34L269.129 537.453C267.579 536.73 266.053 535.936 264.555 535.071L259.409 532.1L258.919 532.948L248.628 527.006L249.117 526.158L238.826 520.216L238.336 521.064L228.045 515.122L228.534 514.274L218.243 508.332L217.753 509.181L207.461 503.239L207.951 502.391L197.659 496.449L197.17 497.297L186.878 491.355L187.368 490.507L177.076 484.565L176.587 485.413L166.295 479.471L166.785 478.623L156.493 472.681L156.003 473.529L145.712 467.587L146.201 466.739L135.91 460.798L135.42 461.646L125.128 455.704L125.618 454.856L115.326 448.914L114.837 449.762L104.545 443.82L105.035 442.972L99.889 440.001C98.3911 439.136 96.9404 438.211 95.5392 437.231L94.9776 438.033C92.0904 436.012 89.4096 433.757 86.955 431.302L87.6475 430.609C85.2062 428.168 82.9924 425.525 81.0261 422.717L80.2239 423.278C78.2181 420.413 76.4658 417.378 74.9874 414.209L75.875 413.795C74.4257 410.687 73.2441 407.449 72.3503 404.114L71.4044 404.367Z" stroke="#9F7966" stroke-width="1.95861" stroke-dasharray="11.36 11.36"/>
<mask id="path-4-outside-1_4239_1543" maskUnits="userSpaceOnUse" x="123.859" y="205.781" width="339" height="68" fill="black">
<rect fill="white" x="123.859" y="205.781" width="339" height="68"/>
<path d="M187.058 227.958H173.316V221.727H168.203V257.679H173.795V270.781H140.24V257.679H145.833V221.727H140.72V227.958H126.978V208.624H187.058V227.958ZM253.711 221.727H249.716V257.679H253.711V270.781H223.511V257.679H227.346V244.496H216.161V257.679H219.996V270.781H189.796V257.679H193.791V221.727H189.796V208.624H219.996V221.727H216.161V233.87H227.346V221.727H223.511V208.624H253.711V221.727ZM315.536 257.679H318.732V270.781H287.413V257.679H292.207L290.929 251.287H280.063L278.785 257.679H283.579V270.781H256.255V257.679H259.451L272.953 208.624H302.034L315.536 257.679ZM281.821 242.819H289.171L285.895 226.92H285.096L281.821 242.819ZM367.28 208.624H393.485V221.727H389.49V270.781H367.04L343.632 234.749V257.679H347.466V270.781H321.261V257.679H325.256V221.727H321.261V208.624H350.103L371.115 240.661V221.727H367.28V208.624ZM456.392 257.679H460.387V270.781H438.576L426.592 246.014L422.917 249.05V257.679H426.751V270.781H396.552V257.679H400.546V221.727H396.552V208.624H426.751V221.727H422.917V232.273L435.3 221.727H430.267V208.624H459.987V221.727H455.992L442.65 232.752L456.392 257.679Z"/>
</mask>
<path d="M187.058 227.958H173.316V221.727H168.203V257.679H173.795V270.781H140.24V257.679H145.833V221.727H140.72V227.958H126.978V208.624H187.058V227.958ZM253.711 221.727H249.716V257.679H253.711V270.781H223.511V257.679H227.346V244.496H216.161V257.679H219.996V270.781H189.796V257.679H193.791V221.727H189.796V208.624H219.996V221.727H216.161V233.87H227.346V221.727H223.511V208.624H253.711V221.727ZM315.536 257.679H318.732V270.781H287.413V257.679H292.207L290.929 251.287H280.063L278.785 257.679H283.579V270.781H256.255V257.679H259.451L272.953 208.624H302.034L315.536 257.679ZM281.821 242.819H289.171L285.895 226.92H285.096L281.821 242.819ZM367.28 208.624H393.485V221.727H389.49V270.781H367.04L343.632 234.749V257.679H347.466V270.781H321.261V257.679H325.256V221.727H321.261V208.624H350.103L371.115 240.661V221.727H367.28V208.624ZM456.392 257.679H460.387V270.781H438.576L426.592 246.014L422.917 249.05V257.679H426.751V270.781H396.552V257.679H400.546V221.727H396.552V208.624H426.751V221.727H422.917V232.273L435.3 221.727H430.267V208.624H459.987V221.727H455.992L442.65 232.752L456.392 257.679Z" fill="white"/>
<path d="M187.058 227.958V230.178H189.277V227.958H187.058ZM173.316 227.958H171.097V230.178H173.316V227.958ZM173.316 221.727H175.535V219.507H173.316V221.727ZM168.203 221.727V219.507H165.984V221.727H168.203ZM168.203 257.679H165.984V259.898H168.203V257.679ZM173.795 257.679H176.015V255.459H173.795V257.679ZM173.795 270.781V273.001H176.015V270.781H173.795ZM140.24 270.781H138.021V273.001H140.24V270.781ZM140.24 257.679V255.459H138.021V257.679H140.24ZM145.833 257.679V259.898H148.052V257.679H145.833ZM145.833 221.727H148.052V219.507H145.833V221.727ZM140.72 221.727V219.507H138.5V221.727H140.72ZM140.72 227.958V230.178H142.939V227.958H140.72ZM126.978 227.958H124.759V230.178H126.978V227.958ZM126.978 208.624V206.405H124.759V208.624H126.978ZM187.058 208.624H189.277V206.405H187.058V208.624ZM187.058 225.739H173.316V230.178H187.058V225.739ZM175.535 227.958V221.727H171.097V227.958H175.535ZM173.316 219.507H168.203V223.946H173.316V219.507ZM165.984 221.727V257.679H170.422V221.727H165.984ZM168.203 259.898H173.795V255.459H168.203V259.898ZM171.576 257.679V270.781H176.015V257.679H171.576ZM173.795 268.562H140.24V273.001H173.795V268.562ZM142.459 270.781V257.679H138.021V270.781H142.459ZM140.24 259.898H145.833V255.459H140.24V259.898ZM148.052 257.679V221.727H143.613V257.679H148.052ZM145.833 219.507H140.72V223.946H145.833V219.507ZM138.5 221.727V227.958H142.939V221.727H138.5ZM140.72 225.739H126.978V230.178H140.72V225.739ZM129.197 227.958V208.624H124.759V227.958H129.197ZM126.978 210.843H187.058V206.405H126.978V210.843ZM184.839 208.624V227.958H189.277V208.624H184.839ZM253.711 221.727V223.946H255.93V221.727H253.711ZM249.716 221.727V219.507H247.497V221.727H249.716ZM249.716 257.679H247.497V259.898H249.716V257.679ZM253.711 257.679H255.93V255.459H253.711V257.679ZM253.711 270.781V273.001H255.93V270.781H253.711ZM223.511 270.781H221.292V273.001H223.511V270.781ZM223.511 257.679V255.459H221.292V257.679H223.511ZM227.346 257.679V259.898H229.565V257.679H227.346ZM227.346 244.496H229.565V242.277H227.346V244.496ZM216.161 244.496V242.277H213.942V244.496H216.161ZM216.161 257.679H213.942V259.898H216.161V257.679ZM219.996 257.679H222.215V255.459H219.996V257.679ZM219.996 270.781V273.001H222.215V270.781H219.996ZM189.796 270.781H187.577V273.001H189.796V270.781ZM189.796 257.679V255.459H187.577V257.679H189.796ZM193.791 257.679V259.898H196.01V257.679H193.791ZM193.791 221.727H196.01V219.507H193.791V221.727ZM189.796 221.727H187.577V223.946H189.796V221.727ZM189.796 208.624V206.405H187.577V208.624H189.796ZM219.996 208.624H222.215V206.405H219.996V208.624ZM219.996 221.727V223.946H222.215V221.727H219.996ZM216.161 221.727V219.507H213.942V221.727H216.161ZM216.161 233.87H213.942V236.09H216.161V233.87ZM227.346 233.87V236.09H229.565V233.87H227.346ZM227.346 221.727H229.565V219.507H227.346V221.727ZM223.511 221.727H221.292V223.946H223.511V221.727ZM223.511 208.624V206.405H221.292V208.624H223.511ZM253.711 208.624H255.93V206.405H253.711V208.624ZM253.711 219.507H249.716V223.946H253.711V219.507ZM247.497 221.727V257.679H251.935V221.727H247.497ZM249.716 259.898H253.711V255.459H249.716V259.898ZM251.492 257.679V270.781H255.93V257.679H251.492ZM253.711 268.562H223.511V273.001H253.711V268.562ZM225.73 270.781V257.679H221.292V270.781H225.73ZM223.511 259.898H227.346V255.459H223.511V259.898ZM229.565 257.679V244.496H225.127V257.679H229.565ZM227.346 242.277H216.161V246.716H227.346V242.277ZM213.942 244.496V257.679H218.38V244.496H213.942ZM216.161 259.898H219.996V255.459H216.161V259.898ZM217.777 257.679V270.781H222.215V257.679H217.777ZM219.996 268.562H189.796V273.001H219.996V268.562ZM192.015 270.781V257.679H187.577V270.781H192.015ZM189.796 259.898H193.791V255.459H189.796V259.898ZM196.01 257.679V221.727H191.571V257.679H196.01ZM193.791 219.507H189.796V223.946H193.791V219.507ZM192.015 221.727V208.624H187.577V221.727H192.015ZM189.796 210.843H219.996V206.405H189.796V210.843ZM217.777 208.624V221.727H222.215V208.624H217.777ZM219.996 219.507H216.161V223.946H219.996V219.507ZM213.942 221.727V233.87H218.38V221.727H213.942ZM216.161 236.09H227.346V231.651H216.161V236.09ZM229.565 233.87V221.727H225.127V233.87H229.565ZM227.346 219.507H223.511V223.946H227.346V219.507ZM225.73 221.727V208.624H221.292V221.727H225.73ZM223.511 210.843H253.711V206.405H223.511V210.843ZM251.492 208.624V221.727H255.93V208.624H251.492ZM315.536 257.679L313.396 258.268L313.845 259.898H315.536V257.679ZM318.732 257.679H320.951V255.459H318.732V257.679ZM318.732 270.781V273.001H320.951V270.781H318.732ZM287.413 270.781H285.194V273.001H287.413V270.781ZM287.413 257.679V255.459H285.194V257.679H287.413ZM292.207 257.679V259.898H294.914L294.383 257.243L292.207 257.679ZM290.929 251.287L293.105 250.852L292.748 249.068H290.929V251.287ZM280.063 251.287V249.068H278.244L277.887 250.852L280.063 251.287ZM278.785 257.679L276.609 257.243L276.078 259.898H278.785V257.679ZM283.579 257.679H285.798V255.459H283.579V257.679ZM283.579 270.781V273.001H285.798V270.781H283.579ZM256.255 270.781H254.036V273.001H256.255V270.781ZM256.255 257.679V255.459H254.036V257.679H256.255ZM259.451 257.679V259.898H261.142L261.59 258.268L259.451 257.679ZM272.953 208.624V206.405H271.262L270.813 208.035L272.953 208.624ZM302.034 208.624L304.174 208.035L303.725 206.405H302.034V208.624ZM281.821 242.819L279.647 242.371L279.098 245.038H281.821V242.819ZM289.171 242.819V245.038H291.894L291.345 242.371L289.171 242.819ZM285.895 226.92L288.069 226.472L287.704 224.7H285.895V226.92ZM285.096 226.92V224.7H283.288L282.923 226.472L285.096 226.92ZM315.536 259.898H318.732V255.459H315.536V259.898ZM316.512 257.679V270.781H320.951V257.679H316.512ZM318.732 268.562H287.413V273.001H318.732V268.562ZM289.633 270.781V257.679H285.194V270.781H289.633ZM287.413 259.898H292.207V255.459H287.413V259.898ZM294.383 257.243L293.105 250.852L288.753 251.722L290.031 258.114L294.383 257.243ZM290.929 249.068H280.063V253.506H290.929V249.068ZM277.887 250.852L276.609 257.243L280.961 258.114L282.239 251.722L277.887 250.852ZM278.785 259.898H283.579V255.459H278.785V259.898ZM281.359 257.679V270.781H285.798V257.679H281.359ZM283.579 268.562H256.255V273.001H283.579V268.562ZM258.474 270.781V257.679H254.036V270.781H258.474ZM256.255 259.898H259.451V255.459H256.255V259.898ZM261.59 258.268L275.092 209.213L270.813 208.035L257.311 257.09L261.59 258.268ZM272.953 210.843H302.034V206.405H272.953V210.843ZM299.894 209.213L313.396 258.268L317.676 257.09L304.174 208.035L299.894 209.213ZM281.821 245.038H289.171V240.599H281.821V245.038ZM291.345 242.371L288.069 226.472L283.722 227.368L286.997 243.266L291.345 242.371ZM285.895 224.7H285.096V229.139H285.895V224.7ZM282.923 226.472L279.647 242.371L283.994 243.266L287.27 227.368L282.923 226.472ZM367.28 208.624V206.405H365.061V208.624H367.28ZM393.485 208.624H395.704V206.405H393.485V208.624ZM393.485 221.727V223.946H395.704V221.727H393.485ZM389.49 221.727V219.507H387.271V221.727H389.49ZM389.49 270.781V273.001H391.71V270.781H389.49ZM367.04 270.781L365.179 271.99L365.836 273.001H367.04V270.781ZM343.632 234.749L345.493 233.54L341.412 227.26V234.749H343.632ZM343.632 257.679H341.412V259.898H343.632V257.679ZM347.466 257.679H349.686V255.459H347.466V257.679ZM347.466 270.781V273.001H349.686V270.781H347.466ZM321.261 270.781H319.042V273.001H321.261V270.781ZM321.261 257.679V255.459H319.042V257.679H321.261ZM325.256 257.679V259.898H327.475V257.679H325.256ZM325.256 221.727H327.475V219.507H325.256V221.727ZM321.261 221.727H319.042V223.946H321.261V221.727ZM321.261 208.624V206.405H319.042V208.624H321.261ZM350.103 208.624L351.959 207.407L351.301 206.405H350.103V208.624ZM371.115 240.661L369.259 241.879L373.334 248.092V240.661H371.115ZM371.115 221.727H373.334V219.507H371.115V221.727ZM367.28 221.727H365.061V223.946H367.28V221.727ZM367.28 210.843H393.485V206.405H367.28V210.843ZM391.266 208.624V221.727H395.704V208.624H391.266ZM393.485 219.507H389.49V223.946H393.485V219.507ZM387.271 221.727V270.781H391.71V221.727H387.271ZM389.49 268.562H367.04V273.001H389.49V268.562ZM368.901 269.572L345.493 233.54L341.771 235.958L365.179 271.99L368.901 269.572ZM341.412 234.749V257.679H345.851V234.749H341.412ZM343.632 259.898H347.466V255.459H343.632V259.898ZM345.247 257.679V270.781H349.686V257.679H345.247ZM347.466 268.562H321.261V273.001H347.466V268.562ZM323.481 270.781V257.679H319.042V270.781H323.481ZM321.261 259.898H325.256V255.459H321.261V259.898ZM327.475 257.679V221.727H323.037V257.679H327.475ZM325.256 219.507H321.261V223.946H325.256V219.507ZM323.481 221.727V208.624H319.042V221.727H323.481ZM321.261 210.843H350.103V206.405H321.261V210.843ZM348.247 209.841L369.259 241.879L372.971 239.444L351.959 207.407L348.247 209.841ZM373.334 240.661V221.727H368.896V240.661H373.334ZM371.115 219.507H367.28V223.946H371.115V219.507ZM369.499 221.727V208.624H365.061V221.727H369.499ZM456.392 257.679L454.448 258.75L455.081 259.898H456.392V257.679ZM460.387 257.679H462.606V255.459H460.387V257.679ZM460.387 270.781V273.001H462.606V270.781H460.387ZM438.576 270.781L436.578 271.748L437.184 273.001H438.576V270.781ZM426.592 246.014L428.589 245.048L427.358 242.503L425.178 244.303L426.592 246.014ZM422.917 249.05L421.503 247.339L420.697 248.005V249.05H422.917ZM422.917 257.679H420.697V259.898H422.917V257.679ZM426.751 257.679H428.971V255.459H426.751V257.679ZM426.751 270.781V273.001H428.971V270.781H426.751ZM396.552 270.781H394.332V273.001H396.552V270.781ZM396.552 257.679V255.459H394.332V257.679H396.552ZM400.546 257.679V259.898H402.766V257.679H400.546ZM400.546 221.727H402.766V219.507H400.546V221.727ZM396.552 221.727H394.332V223.946H396.552V221.727ZM396.552 208.624V206.405H394.332V208.624H396.552ZM426.751 208.624H428.971V206.405H426.751V208.624ZM426.751 221.727V223.946H428.971V221.727H426.751ZM422.917 221.727V219.507H420.697V221.727H422.917ZM422.917 232.273H420.697V237.078L424.355 233.962L422.917 232.273ZM435.3 221.727L436.739 223.416L441.329 219.507H435.3V221.727ZM430.267 221.727H428.047V223.946H430.267V221.727ZM430.267 208.624V206.405H428.047V208.624H430.267ZM459.987 208.624H462.206V206.405H459.987V208.624ZM459.987 221.727V223.946H462.206V221.727H459.987ZM455.992 221.727V219.507H455.194L454.579 220.016L455.992 221.727ZM442.65 232.752L441.237 231.041L439.819 232.213L440.707 233.823L442.65 232.752ZM456.392 259.898H460.387V255.459H456.392V259.898ZM458.167 257.679V270.781H462.606V257.679H458.167ZM460.387 268.562H438.576V273.001H460.387V268.562ZM440.573 269.815L428.589 245.048L424.594 246.981L436.578 271.748L440.573 269.815ZM425.178 244.303L421.503 247.339L424.33 250.761L428.005 247.725L425.178 244.303ZM420.697 249.05V257.679H425.136V249.05H420.697ZM422.917 259.898H426.751V255.459H422.917V259.898ZM424.532 257.679V270.781H428.971V257.679H424.532ZM426.751 268.562H396.552V273.001H426.751V268.562ZM398.771 270.781V257.679H394.332V270.781H398.771ZM396.552 259.898H400.546V255.459H396.552V259.898ZM402.766 257.679V221.727H398.327V257.679H402.766ZM400.546 219.507H396.552V223.946H400.546V219.507ZM398.771 221.727V208.624H394.332V221.727H398.771ZM396.552 210.843H426.751V206.405H396.552V210.843ZM424.532 208.624V221.727H428.971V208.624H424.532ZM426.751 219.507H422.917V223.946H426.751V219.507ZM420.697 221.727V232.273H425.136V221.727H420.697ZM424.355 233.962L436.739 223.416L433.861 220.037L421.478 230.583L424.355 233.962ZM435.3 219.507H430.267V223.946H435.3V219.507ZM432.486 221.727V208.624H428.047V221.727H432.486ZM430.267 210.843H459.987V206.405H430.267V210.843ZM457.768 208.624V221.727H462.206V208.624H457.768ZM459.987 219.507H455.992V223.946H459.987V219.507ZM454.579 220.016L441.237 231.041L444.064 234.463L457.406 223.437L454.579 220.016ZM440.707 233.823L454.448 258.75L458.335 256.607L444.594 231.681L440.707 233.823Z" fill="#9F7966" mask="url(#path-4-outside-1_4239_1543)"/>
<mask id="path-6-outside-2_4239_1543" maskUnits="userSpaceOnUse" x="192.213" y="307.742" width="189" height="70" fill="black">
<rect fill="white" x="192.213" y="307.742" width="189" height="70"/>
<path d="M230.724 311.585H255.252V324.688H252.056L236.636 352.331V360.64H240.631V373.742H210.271V360.64H214.266V352.331L198.367 324.688H195.172V311.585H226.09V324.688H223.294L228.008 337.071H228.807L233.52 324.688H230.724V311.585ZM285.459 374.861C275.712 374.861 268.175 372.304 262.849 367.191C257.576 362.078 254.939 353.902 254.939 342.664C254.939 331.425 257.576 323.249 262.849 318.136C268.175 313.023 275.712 310.467 285.459 310.467C295.206 310.467 302.716 313.023 307.989 318.136C313.315 323.249 315.978 331.425 315.978 342.664C315.978 353.902 313.315 362.078 307.989 367.191C302.716 372.304 295.206 374.861 285.459 374.861ZM285.459 360.64C287.27 360.64 288.628 360.16 289.533 359.202C290.439 358.243 290.892 356.752 290.892 354.728V330.6C290.892 328.576 290.439 327.084 289.533 326.126C288.628 325.167 287.27 324.688 285.459 324.688C283.648 324.688 282.29 325.167 281.384 326.126C280.479 327.084 280.026 328.576 280.026 330.6V354.728C280.026 356.805 280.479 358.323 281.384 359.281C282.29 360.187 283.648 360.64 285.459 360.64ZM348.574 374.861C340.212 374.861 333.74 373.023 329.16 369.348C324.633 365.673 322.369 359.708 322.369 351.452V324.688H318.374V311.585H347.935V324.688H344.739V355.526C344.739 357.284 345.112 358.589 345.858 359.441C346.657 360.24 347.828 360.64 349.373 360.64C350.918 360.64 352.063 360.24 352.808 359.441C353.607 358.589 354.007 357.284 354.007 355.526V324.688H350.811V311.585H378.215V324.688H374.22V351.452C374.22 359.708 372.009 365.673 367.589 369.348C363.168 373.023 356.83 374.861 348.574 374.861Z"/>
</mask>
<path d="M230.724 311.585H255.252V324.688H252.056L236.636 352.331V360.64H240.631V373.742H210.271V360.64H214.266V352.331L198.367 324.688H195.172V311.585H226.09V324.688H223.294L228.008 337.071H228.807L233.52 324.688H230.724V311.585ZM285.459 374.861C275.712 374.861 268.175 372.304 262.849 367.191C257.576 362.078 254.939 353.902 254.939 342.664C254.939 331.425 257.576 323.249 262.849 318.136C268.175 313.023 275.712 310.467 285.459 310.467C295.206 310.467 302.716 313.023 307.989 318.136C313.315 323.249 315.978 331.425 315.978 342.664C315.978 353.902 313.315 362.078 307.989 367.191C302.716 372.304 295.206 374.861 285.459 374.861ZM285.459 360.64C287.27 360.64 288.628 360.16 289.533 359.202C290.439 358.243 290.892 356.752 290.892 354.728V330.6C290.892 328.576 290.439 327.084 289.533 326.126C288.628 325.167 287.27 324.688 285.459 324.688C283.648 324.688 282.29 325.167 281.384 326.126C280.479 327.084 280.026 328.576 280.026 330.6V354.728C280.026 356.805 280.479 358.323 281.384 359.281C282.29 360.187 283.648 360.64 285.459 360.64ZM348.574 374.861C340.212 374.861 333.74 373.023 329.16 369.348C324.633 365.673 322.369 359.708 322.369 351.452V324.688H318.374V311.585H347.935V324.688H344.739V355.526C344.739 357.284 345.112 358.589 345.858 359.441C346.657 360.24 347.828 360.64 349.373 360.64C350.918 360.64 352.063 360.24 352.808 359.441C353.607 358.589 354.007 357.284 354.007 355.526V324.688H350.811V311.585H378.215V324.688H374.22V351.452C374.22 359.708 372.009 365.673 367.589 369.348C363.168 373.023 356.83 374.861 348.574 374.861Z" fill="white"/>
<path d="M230.724 311.585V309.366H228.505V311.585H230.724ZM255.252 311.585H257.471V309.366H255.252V311.585ZM255.252 324.688V326.907H257.471V324.688H255.252ZM252.056 324.688V322.468H250.753L250.118 323.606L252.056 324.688ZM236.636 352.331L234.698 351.25L234.417 351.754V352.331H236.636ZM236.636 360.64H234.417V362.859H236.636V360.64ZM240.631 360.64H242.85V358.42H240.631V360.64ZM240.631 373.742V375.961H242.85V373.742H240.631ZM210.271 373.742H208.052V375.961H210.271V373.742ZM210.271 360.64V358.42H208.052V360.64H210.271ZM214.266 360.64V362.859H216.485V360.64H214.266ZM214.266 352.331H216.485V351.738L216.19 351.224L214.266 352.331ZM198.367 324.688L200.291 323.581L199.651 322.468H198.367V324.688ZM195.172 324.688H192.952V326.907H195.172V324.688ZM195.172 311.585V309.366H192.952V311.585H195.172ZM226.09 311.585H228.31V309.366H226.09V311.585ZM226.09 324.688V326.907H228.31V324.688H226.09ZM223.294 324.688V322.468H220.075L221.22 325.477L223.294 324.688ZM228.008 337.071L225.934 337.861L226.478 339.29H228.008V337.071ZM228.807 337.071V339.29H230.337L230.881 337.861L228.807 337.071ZM233.52 324.688L235.595 325.477L236.74 322.468H233.52V324.688ZM230.724 324.688H228.505V326.907H230.724V324.688ZM230.724 313.804H255.252V309.366H230.724V313.804ZM253.032 311.585V324.688H257.471V311.585H253.032ZM255.252 322.468H252.056V326.907H255.252V322.468ZM250.118 323.606L234.698 351.25L238.574 353.412L253.994 325.769L250.118 323.606ZM234.417 352.331V360.64H238.856V352.331H234.417ZM236.636 362.859H240.631V358.42H236.636V362.859ZM238.412 360.64V373.742H242.85V360.64H238.412ZM240.631 371.523H210.271V375.961H240.631V371.523ZM212.491 373.742V360.64H208.052V373.742H212.491ZM210.271 362.859H214.266V358.42H210.271V362.859ZM216.485 360.64V352.331H212.047V360.64H216.485ZM216.19 351.224L200.291 323.581L196.444 325.794L212.342 353.437L216.19 351.224ZM198.367 322.468H195.172V326.907H198.367V322.468ZM197.391 324.688V311.585H192.952V324.688H197.391ZM195.172 313.804H226.09V309.366H195.172V313.804ZM223.871 311.585V324.688H228.31V311.585H223.871ZM226.09 322.468H223.294V326.907H226.09V322.468ZM221.22 325.477L225.934 337.861L230.082 336.282L225.368 323.898L221.22 325.477ZM228.008 339.29H228.807V334.852H228.008V339.29ZM230.881 337.861L235.595 325.477L231.446 323.898L226.733 336.282L230.881 337.861ZM233.52 322.468H230.724V326.907H233.52V322.468ZM232.943 324.688V311.585H228.505V324.688H232.943ZM262.849 367.191L261.304 368.784L261.312 368.792L262.849 367.191ZM262.849 318.136L261.312 316.535L261.304 316.543L262.849 318.136ZM307.989 318.136L306.444 319.73L306.452 319.737L307.989 318.136ZM307.989 367.191L306.452 365.59L306.444 365.598L307.989 367.191ZM289.533 359.202L291.147 360.725L291.147 360.725L289.533 359.202ZM289.533 326.126L291.147 324.602L291.147 324.602L289.533 326.126ZM281.384 326.126L282.998 327.649L282.998 327.649L281.384 326.126ZM281.384 359.281L279.771 360.805L279.793 360.828L279.815 360.851L281.384 359.281ZM285.459 372.641C276.096 372.641 269.18 370.192 264.386 365.59L261.312 368.792C267.17 374.416 275.328 377.08 285.459 377.08V372.641ZM264.394 365.598C259.734 361.079 257.159 353.615 257.159 342.664H252.72C252.72 354.189 255.418 363.076 261.304 368.784L264.394 365.598ZM257.159 342.664C257.159 331.712 259.734 324.248 264.394 319.73L261.304 316.543C255.418 322.251 252.72 331.138 252.72 342.664H257.159ZM264.386 319.737C269.18 315.135 276.096 312.686 285.459 312.686V308.247C275.328 308.247 267.17 310.911 261.312 316.535L264.386 319.737ZM285.459 312.686C294.823 312.686 301.706 315.135 306.444 319.73L309.534 316.543C303.725 310.911 295.588 308.247 285.459 308.247V312.686ZM306.452 319.737C311.159 324.256 313.759 331.718 313.759 342.664H318.197C318.197 331.133 315.471 322.243 309.526 316.535L306.452 319.737ZM313.759 342.664C313.759 353.61 311.159 361.071 306.452 365.59L309.526 368.792C315.471 363.085 318.197 354.194 318.197 342.664H313.759ZM306.444 365.598C301.706 370.192 294.823 372.641 285.459 372.641V377.08C295.588 377.08 303.725 374.416 309.534 368.784L306.444 365.598ZM285.459 362.859C287.645 362.859 289.684 362.274 291.147 360.725L287.92 357.678C287.572 358.047 286.894 358.42 285.459 358.42V362.859ZM291.147 360.725C292.605 359.182 293.111 357.024 293.111 354.728H288.672C288.672 356.479 288.273 357.304 287.92 357.678L291.147 360.725ZM293.111 354.728V330.6H288.672V354.728H293.111ZM293.111 330.6C293.111 328.303 292.605 326.146 291.147 324.602L287.92 327.649C288.273 328.023 288.672 328.848 288.672 330.6H293.111ZM291.147 324.602C289.684 323.053 287.645 322.468 285.459 322.468V326.907C286.894 326.907 287.572 327.281 287.92 327.649L291.147 324.602ZM285.459 322.468C283.272 322.468 281.233 323.053 279.771 324.602L282.998 327.649C283.346 327.281 284.023 326.907 285.459 326.907V322.468ZM279.771 324.602C278.313 326.146 277.807 328.303 277.807 330.6H282.245C282.245 328.848 282.645 328.023 282.998 327.649L279.771 324.602ZM277.807 330.6V354.728H282.245V330.6H277.807ZM277.807 354.728C277.807 357.058 278.304 359.253 279.771 360.805L282.998 357.758C282.653 357.393 282.245 356.551 282.245 354.728H277.807ZM279.815 360.851C281.283 362.319 283.306 362.859 285.459 362.859V358.42C283.99 358.42 283.296 358.055 282.953 357.712L279.815 360.851ZM329.16 369.348L327.761 371.071L327.771 371.079L329.16 369.348ZM322.369 324.688H324.588V322.468H322.369V324.688ZM318.374 324.688H316.155V326.907H318.374V324.688ZM318.374 311.585V309.366H316.155V311.585H318.374ZM347.935 311.585H350.154V309.366H347.935V311.585ZM347.935 324.688V326.907H350.154V324.688H347.935ZM344.739 324.688V322.468H342.52V324.688H344.739ZM345.858 359.441L344.187 360.903L344.236 360.958L344.288 361.011L345.858 359.441ZM352.808 359.441L351.189 357.923L351.186 357.927L352.808 359.441ZM354.007 324.688H356.226V322.468H354.007V324.688ZM350.811 324.688H348.592V326.907H350.811V324.688ZM350.811 311.585V309.366H348.592V311.585H350.811ZM378.215 311.585H380.434V309.366H378.215V311.585ZM378.215 324.688V326.907H380.434V324.688H378.215ZM374.22 324.688V322.468H372.001V324.688H374.22ZM367.589 369.348L366.17 367.641L367.589 369.348ZM348.574 372.641C340.508 372.641 334.598 370.866 330.549 367.617L327.771 371.079C332.883 375.18 339.916 377.08 348.574 377.08V372.641ZM330.559 367.625C326.74 364.526 324.588 359.33 324.588 351.452H320.15C320.15 360.085 322.525 366.82 327.761 371.071L330.559 367.625ZM324.588 351.452V324.688H320.15V351.452H324.588ZM322.369 322.468H318.374V326.907H322.369V322.468ZM320.594 324.688V311.585H316.155V324.688H320.594ZM318.374 313.804H347.935V309.366H318.374V313.804ZM345.716 311.585V324.688H350.154V311.585H345.716ZM347.935 322.468H344.739V326.907H347.935V322.468ZM342.52 324.688V355.526H346.958V324.688H342.52ZM342.52 355.526C342.52 357.538 342.937 359.474 344.187 360.903L347.528 357.98C347.287 357.704 346.958 357.03 346.958 355.526H342.52ZM344.288 361.011C345.637 362.36 347.461 362.859 349.373 362.859V358.42C348.196 358.42 347.676 358.121 347.427 357.872L344.288 361.011ZM349.373 362.859C351.273 362.859 353.116 362.364 354.431 360.955L351.186 357.927C351.009 358.116 350.562 358.42 349.373 358.42V362.859ZM354.427 360.959C355.767 359.53 356.226 357.57 356.226 355.526H351.788C351.788 356.998 351.447 357.648 351.189 357.923L354.427 360.959ZM356.226 355.526V324.688H351.788V355.526H356.226ZM354.007 322.468H350.811V326.907H354.007V322.468ZM353.03 324.688V311.585H348.592V324.688H353.03ZM350.811 313.804H378.215V309.366H350.811V313.804ZM375.995 311.585V324.688H380.434V311.585H375.995ZM378.215 322.468H374.22V326.907H378.215V322.468ZM372.001 324.688V351.452H376.439V324.688H372.001ZM372.001 351.452C372.001 359.346 369.892 364.547 366.17 367.641L369.007 371.055C374.127 366.799 376.439 360.069 376.439 351.452H372.001ZM366.17 367.641C362.29 370.867 356.533 372.641 348.574 372.641V377.08C357.127 377.08 364.046 375.179 369.007 371.055L366.17 367.641Z" fill="#9F7966" mask="url(#path-6-outside-2_4239_1543)"/>
</svg>
