<svg width="539" height="563" viewBox="0 0 539 563" fill="none" xmlns="http://www.w3.org/2000/svg">
<path d="M246.94 8.04696C260.164 -1.59899 278.104 -1.59899 291.327 8.04697L335.33 40.1449C341.794 44.8605 349.593 47.3945 357.595 47.3793L412.06 47.2756C428.428 47.2444 442.942 57.7893 447.97 73.3656L464.702 125.197C467.161 132.812 471.981 139.446 478.463 144.137L522.588 176.067C535.848 185.663 541.391 202.725 536.304 218.282L519.375 270.05C516.887 277.655 516.887 285.855 519.375 293.461L536.304 345.228C541.391 360.785 535.848 377.847 522.588 387.443L478.463 419.373C471.981 424.064 467.161 430.698 464.702 438.313L447.97 490.145C442.942 505.721 428.428 516.266 412.06 516.235L357.595 516.131C349.593 516.116 341.794 518.65 335.33 523.365L291.327 555.463C278.104 565.109 260.164 565.109 246.94 555.463L202.938 523.365C196.473 518.65 188.674 516.116 180.673 516.131L126.207 516.235C109.839 516.266 95.3255 505.721 90.2973 490.145L73.5651 438.313C71.1069 430.698 66.2871 424.064 59.8045 419.373L15.68 387.443C2.41991 377.847 -3.12385 360.785 1.96371 345.228L18.8931 293.461C21.3803 285.855 21.3803 277.655 18.8931 270.05L1.96371 218.282C-3.12385 202.725 2.4199 185.663 15.68 176.067L59.8045 144.137C66.287 139.446 71.1069 132.812 73.5651 125.197L90.2973 73.3656C95.3255 57.7893 109.839 47.2444 126.207 47.2756L180.673 47.3793C188.674 47.3945 196.473 44.8605 202.938 40.1449L246.94 8.04696Z" fill="white"/>
<path fill-rule="evenodd" clip-rule="evenodd" d="M334.049 41.9005L290.047 9.80264C277.586 0.713312 260.681 0.713312 248.221 9.80264L204.218 41.9005C197.381 46.8883 189.132 49.5685 180.668 49.5524L126.203 49.4487C110.78 49.4193 97.1034 59.3557 92.3653 74.0332L75.6332 125.865C73.0331 133.919 67.9351 140.936 61.0785 145.898L16.954 177.828C4.45908 186.87 -0.764773 202.947 4.02921 217.606L20.9586 269.374C23.5893 277.419 23.5893 286.092 20.9586 294.136L4.02921 345.904C-0.764773 360.563 4.45908 376.641 16.954 385.682L61.0785 417.612C67.9351 422.574 73.0331 429.591 75.6332 437.645L92.3653 489.477C97.1034 504.155 110.78 514.091 126.203 514.061L180.668 513.958C189.132 513.942 197.381 516.622 204.218 521.61L248.221 553.708C260.681 562.797 277.586 562.797 290.047 553.708L334.049 521.61C340.887 516.622 349.136 513.942 357.599 513.958L412.065 514.061C427.488 514.091 441.164 504.155 445.902 489.477L462.634 437.645C465.234 429.591 470.332 422.574 477.189 417.612L521.314 385.682C533.809 376.641 539.032 360.563 534.238 345.904L517.309 294.136C514.678 286.092 514.678 277.419 517.309 269.374L534.238 217.606C539.032 202.947 533.809 186.87 521.314 177.828L477.189 145.898C470.332 140.936 465.234 133.919 462.634 125.865L445.902 74.0332C441.164 59.3557 427.488 49.4193 412.065 49.4487L357.599 49.5524C349.136 49.5685 340.887 46.8883 334.049 41.9005ZM291.327 8.04697C278.104 -1.59899 260.164 -1.59899 246.94 8.04696L202.938 40.1449C196.473 44.8605 188.674 47.3945 180.673 47.3793L126.207 47.2756C109.839 47.2444 95.3256 57.7893 90.2973 73.3656L73.5651 125.197C71.1069 132.812 66.2871 139.446 59.8045 144.137L15.68 176.067C2.4199 185.663 -3.12385 202.725 1.96371 218.282L18.8931 270.05C21.3803 277.655 21.3803 285.855 18.8931 293.461L1.96371 345.228C-3.12385 360.785 2.4199 377.847 15.68 387.443L59.8045 419.373C66.2871 424.064 71.1069 430.698 73.5651 438.313L90.2973 490.145C95.3256 505.721 109.839 516.266 126.207 516.235L180.673 516.131C188.674 516.116 196.473 518.65 202.938 523.365L246.94 555.463C260.164 565.109 278.104 565.109 291.327 555.463L335.33 523.365C341.794 518.65 349.593 516.116 357.595 516.131L412.06 516.235C428.428 516.266 442.942 505.721 447.97 490.145L464.702 438.313C467.161 430.698 471.981 424.064 478.463 419.373L522.588 387.443C535.848 377.847 541.391 360.785 536.304 345.228L519.375 293.461C516.887 285.855 516.887 277.655 519.375 270.05L536.304 218.282C541.391 202.725 535.848 185.663 522.588 176.067L478.463 144.137C471.981 139.446 467.161 132.812 464.702 125.197L447.97 73.3656C442.942 57.7893 428.428 47.2444 412.06 47.2756L357.595 47.3793C349.593 47.3945 341.794 44.8605 335.33 40.1449L291.327 8.04697Z" fill="#9F4D2C"/>
<path d="M460.803 281.753C460.803 387.61 374.989 473.425 269.132 473.425C163.275 473.425 77.4609 387.61 77.4609 281.753C77.4609 175.896 163.275 90.082 269.132 90.082C374.989 90.082 460.803 175.896 460.803 281.753Z" fill="#9F4D2C"/>
<path fill-rule="evenodd" clip-rule="evenodd" d="M269.132 470.632C373.447 470.632 458.01 386.068 458.01 281.753C458.01 177.439 373.447 92.8751 269.132 92.8751C164.818 92.8751 80.254 177.439 80.254 281.753C80.254 386.068 164.818 470.632 269.132 470.632ZM269.132 473.425C374.989 473.425 460.803 387.61 460.803 281.753C460.803 175.896 374.989 90.082 269.132 90.082C163.275 90.082 77.4609 175.896 77.4609 281.753C77.4609 387.61 163.275 473.425 269.132 473.425Z" fill="#9F4D2C"/>
<g filter="url(#filter0_f_4146_180)">
<path d="M336.064 468.212C336.064 472.052 332.951 475.166 329.11 475.166C325.27 475.166 322.156 472.052 322.156 468.212C322.156 464.371 325.27 461.258 329.11 461.258C332.951 461.258 336.064 464.371 336.064 468.212Z" fill="white"/>
</g>
<g filter="url(#filter1_f_4146_180)">
<path d="M430.382 363.028C430.382 364.948 428.825 366.505 426.905 366.505C424.984 366.505 423.428 364.948 423.428 363.028C423.428 361.108 424.984 359.551 426.905 359.551C428.825 359.551 430.382 361.108 430.382 363.028Z" fill="white"/>
</g>
<g filter="url(#filter2_f_4146_180)">
<path d="M477.321 285.448C477.321 289.168 474.305 292.184 470.584 292.184C466.864 292.184 463.848 289.168 463.848 285.448C463.848 281.727 466.864 278.711 470.584 278.711C474.305 278.711 477.321 281.727 477.321 285.448Z" fill="white"/>
</g>
<g filter="url(#filter3_f_4146_180)">
<path d="M366.925 97.2563C366.925 100.977 363.909 103.993 360.188 103.993C356.467 103.993 353.451 100.977 353.451 97.2563C353.451 93.5357 356.467 90.5195 360.188 90.5195C363.909 90.5195 366.925 93.5357 366.925 97.2563Z" fill="white"/>
</g>
<path d="M143.526 409.97C143.526 412.131 141.775 413.882 139.615 413.882C137.454 413.882 135.703 412.131 135.703 409.97C135.703 407.81 137.454 406.059 139.615 406.059C141.775 406.059 143.526 407.81 143.526 409.97Z" fill="white"/>
<path d="M210.894 164.841C210.894 167.002 209.142 168.753 206.982 168.753C204.822 168.753 203.07 167.002 203.07 164.841C203.07 162.681 204.822 160.93 206.982 160.93C209.142 160.93 210.894 162.681 210.894 164.841Z" fill="white"/>
<g filter="url(#filter4_f_4146_180)">
<path d="M111.364 295.228C111.364 300.989 106.694 305.659 100.933 305.659C95.1721 305.659 90.502 300.989 90.502 295.228C90.502 289.467 95.1721 284.797 100.933 284.797C106.694 284.797 111.364 289.467 111.364 295.228Z" fill="white"/>
</g>
<path d="M78.3327 363.901C78.3327 365.341 77.1652 366.509 75.725 366.509C74.2847 366.509 73.1172 365.341 73.1172 363.901C73.1172 362.461 74.2847 361.293 75.725 361.293C77.1652 361.293 78.3327 362.461 78.3327 363.901Z" fill="white"/>
<path d="M185.253 94.8656C185.253 96.3058 184.085 97.4734 182.645 97.4734C181.205 97.4734 180.037 96.3058 180.037 94.8656C180.037 93.4254 181.205 92.2578 182.645 92.2578C184.085 92.2578 185.253 93.4254 185.253 94.8656Z" fill="white"/>
<path d="M296.08 101.386C296.08 102.106 295.497 102.69 294.777 102.69C294.056 102.69 293.473 102.106 293.473 101.386C293.473 100.666 294.056 100.082 294.777 100.082C295.497 100.082 296.08 100.666 296.08 101.386Z" fill="white"/>
<path d="M418.725 249.283H422.397V261.329H402.345L391.327 238.559L387.948 241.35V249.283H391.474V261.329H363.709V249.283H367.382V216.23H363.709V204.184H391.474V216.23H387.948V225.925L399.333 216.23H394.706V204.184H422.03V216.23H418.357L406.091 226.366L418.725 249.283Z" fill="white"/>
<path d="M336.799 204.184H360.891V216.23H357.218V261.329H336.578L315.057 228.202V249.283H318.583V261.329H294.49V249.283H298.163V216.23H294.49V204.184H321.006L340.324 233.638V216.23H336.799V204.184Z" fill="white"/>
<path d="M289.226 249.283H292.164V261.329H263.371V249.283H267.778L266.603 243.407H256.613L255.438 249.283H259.845V261.329H234.725V249.283H237.663L250.076 204.184H276.813L289.226 249.283ZM258.229 235.621H264.987L261.975 221.004H261.241L258.229 235.621Z" fill="white"/>
<path d="M232.385 216.23H228.712V249.283H232.385V261.329H204.62V249.283H208.146V237.164H197.862V249.283H201.388V261.329H173.623V249.283H177.296V216.23H173.623V204.184H201.388V216.23H197.862V227.395H208.146V216.23H204.62V204.184H232.385V216.23Z" fill="white"/>
<path d="M171.105 221.959H158.471V216.23H153.771V249.283H158.912V261.329H128.062V249.283H133.204V216.23H128.503V221.959H115.869V204.184H171.105V221.959Z" fill="white"/>
<path fill-rule="evenodd" clip-rule="evenodd" d="M422.963 248.713V261.895H401.986L391.129 239.456L388.514 241.616V248.713H392.04V261.895H363.139V248.713H366.811V216.795H363.139V203.613H392.04V216.795H388.514V224.693L397.788 216.795H394.136V203.613H422.596V216.795H418.559L406.813 226.502L419.058 248.713H422.963ZM418.722 249.281L406.089 226.364L418.355 216.227H422.028V204.181H394.704V216.227H399.331L387.946 225.923V216.227H391.472V204.181H363.707V216.227H367.379V249.281H363.707V261.327H391.472V249.281H387.946V241.348L391.325 238.557L402.343 261.327H422.395V249.281H418.722Z" fill="black"/>
<path fill-rule="evenodd" clip-rule="evenodd" d="M336.228 203.613H361.457V216.795H357.784V261.895H336.268L315.623 230.117V248.713H319.148V261.895H293.92V248.713H297.593V216.795H293.92V203.613H321.311L339.754 231.734V216.795H336.228V203.613ZM340.322 216.227V233.636L321.004 204.181H294.488V216.227H298.161V249.281H294.488V261.327H318.58V249.281H315.055V228.2L336.576 261.327H357.216V216.227H360.889V204.181H336.796V216.227H340.322Z" fill="black"/>
<path fill-rule="evenodd" clip-rule="evenodd" d="M292.73 248.713V261.895H262.801V248.713H267.083L266.135 243.973H257.077L256.129 248.713H260.411V261.895H234.154V248.713H237.228L249.641 203.613H277.243L289.657 248.713H292.73ZM289.224 249.281L276.81 204.181H250.074L237.66 249.281H234.722V261.327H259.843V249.281H255.436L256.611 243.405H266.601L267.776 249.281H263.369V261.327H292.162V249.281H289.224ZM264.985 235.619L261.973 221.002H261.239L258.227 235.619H264.985ZM258.924 235.051H264.288L261.606 222.034L258.924 235.051Z" fill="black"/>
<path fill-rule="evenodd" clip-rule="evenodd" d="M232.951 216.795H229.278V248.713H232.951V261.895H204.05V248.713H207.575V237.729H198.428V248.713H201.954V261.895H173.053V248.713H176.725V216.795H173.053V203.613H201.954V216.795H198.428V226.824H207.575V216.795H204.05V203.613H232.951V216.795ZM208.143 216.227V227.392H197.86V216.227H201.386V204.181H173.621V216.227H177.293V249.281H173.621V261.327H201.386V249.281H197.86V237.161H208.143V249.281H204.618V261.327H232.383V249.281H228.71V216.227H232.383V204.181H204.618V216.227H208.143Z" fill="black"/>
<path fill-rule="evenodd" clip-rule="evenodd" d="M171.671 222.525H157.901V216.795H154.336V248.713H159.478V261.895H127.492V248.713H132.634V216.795H129.069V222.525H115.299V203.613H171.671V222.525ZM128.501 216.227H133.202V249.281H128.06V261.327H158.91V249.281H153.768V216.227H158.469V221.957H171.103V204.181H115.867V221.957H128.501V216.227Z" fill="black"/>
<path d="M325.863 363.178C318.175 363.178 312.225 361.489 308.014 358.11C303.851 354.731 301.77 349.247 301.77 341.657V317.05H298.098V305.004H325.275V317.05H322.337V345.403C322.337 347.019 322.68 348.218 323.365 349.002C324.1 349.736 325.177 350.104 326.597 350.104C328.017 350.104 329.07 349.736 329.756 349.002C330.49 348.218 330.857 347.019 330.857 345.403V317.05H327.919V305.004H353.113V317.05H349.441V341.657C349.441 349.247 347.409 354.731 343.344 358.11C339.28 361.489 333.453 363.178 325.863 363.178Z" fill="white"/>
<path d="M267.836 363.179C258.875 363.179 251.946 360.829 247.049 356.128C242.201 351.427 239.777 343.91 239.777 333.578C239.777 323.246 242.201 315.729 247.049 311.028C251.946 306.327 258.875 303.977 267.836 303.977C276.797 303.977 283.702 306.327 288.55 311.028C293.446 315.729 295.895 323.246 295.895 333.578C295.895 343.91 293.446 351.427 288.55 356.128C283.702 360.829 276.797 363.179 267.836 363.179ZM267.836 350.105C269.501 350.105 270.75 349.664 271.582 348.782C272.415 347.901 272.831 346.53 272.831 344.669V322.487C272.831 320.626 272.415 319.255 271.582 318.373C270.75 317.492 269.501 317.051 267.836 317.051C266.171 317.051 264.923 317.492 264.09 318.373C263.258 319.255 262.841 320.626 262.841 322.487V344.669C262.841 346.579 263.258 347.974 264.09 348.856C264.923 349.688 266.171 350.105 267.836 350.105Z" fill="white"/>
<path d="M217.514 305.004H240.064V317.05H237.126L222.95 342.465V350.104H226.622V362.15H198.711V350.104H202.383V342.465L187.766 317.05H184.828V305.004H213.254V317.05H210.683L215.017 328.435H215.752L220.085 317.05H217.514V305.004Z" fill="white"/>
<path fill-rule="evenodd" clip-rule="evenodd" d="M308.015 358.108C312.227 361.486 318.176 363.176 325.864 363.176C333.454 363.176 339.281 361.486 343.346 358.108C347.41 354.729 349.442 349.244 349.442 341.654V317.048H353.115V305.002H327.921V317.048H330.859V345.4C330.859 347.016 330.492 348.216 329.757 348.999C329.072 349.734 328.019 350.101 326.599 350.101C325.179 350.101 324.101 349.734 323.367 348.999C322.681 348.216 322.338 347.016 322.338 345.4V317.048H325.277V305.002H298.099V317.048H301.772V341.654C301.772 349.244 303.853 354.729 308.015 358.108ZM301.204 317.616H297.531V304.434H325.845V317.616H322.906V345.4C322.906 346.94 323.233 347.974 323.782 348.611C324.376 349.197 325.283 349.533 326.599 349.533C327.928 349.533 328.802 349.19 329.342 348.612L329.343 348.611C329.939 347.975 330.291 346.943 330.291 345.4V317.616H327.353V304.434H353.683V317.616H350.01V341.654C350.01 349.337 347.952 355.017 343.709 358.544C339.506 362.038 333.53 363.744 325.864 363.744C318.101 363.744 312.007 362.038 307.66 358.551L307.657 358.549C303.314 355.022 301.204 349.341 301.204 341.654V317.616Z" fill="black"/>
<path fill-rule="evenodd" clip-rule="evenodd" d="M246.657 356.535L246.655 356.533C241.65 351.68 239.211 343.981 239.211 333.576C239.211 323.17 241.65 315.471 246.655 310.618L246.657 310.616C251.69 305.784 258.778 303.406 267.838 303.406C276.896 303.406 283.961 305.784 288.946 310.617C294 315.47 296.464 323.169 296.464 333.576C296.464 343.981 294 351.68 288.946 356.533C283.962 361.367 276.897 363.745 267.838 363.745C258.778 363.745 251.69 361.367 246.657 356.535ZM288.551 356.125C293.448 351.424 295.896 343.908 295.896 333.576C295.896 323.243 293.448 315.727 288.551 311.026C283.703 306.325 276.799 303.974 267.838 303.974C258.877 303.974 251.948 306.325 247.051 311.026C242.203 315.727 239.779 323.243 239.779 333.576C239.779 343.908 242.203 351.424 247.051 356.125C251.948 360.826 258.877 363.177 267.838 363.177C276.799 363.177 283.703 360.826 288.551 356.125ZM267.838 349.534C269.407 349.534 270.481 349.121 271.171 348.39C271.862 347.658 272.264 346.458 272.264 344.667V322.484C272.264 320.693 271.862 319.493 271.171 318.761C270.481 318.03 269.407 317.617 267.838 317.617C266.269 317.617 265.194 318.03 264.505 318.761C263.814 319.493 263.411 320.693 263.411 322.484V344.667C263.411 346.507 263.814 347.728 264.499 348.458C265.188 349.143 266.265 349.534 267.838 349.534ZM264.092 348.854C263.259 347.972 262.843 346.577 262.843 344.667V322.484C262.843 320.623 263.259 319.252 264.092 318.371C264.924 317.489 266.173 317.049 267.838 317.049C269.503 317.049 270.751 317.489 271.584 318.371C272.416 319.252 272.832 320.623 272.832 322.484V344.667C272.832 346.528 272.416 347.899 271.584 348.78C270.751 349.662 269.503 350.102 267.838 350.102C266.173 350.102 264.924 349.686 264.092 348.854Z" fill="black"/>
<path fill-rule="evenodd" clip-rule="evenodd" d="M217.516 305.002V317.048H220.087L215.753 328.433H215.019L210.685 317.048H213.256V305.002H184.83V317.048H187.768L202.385 342.462V350.101H198.712V362.147H226.624V350.101H222.951V342.462L237.128 317.048H240.066V305.002H217.516ZM237.461 317.616H240.634V304.434H216.948V317.616H219.263L215.386 327.801L211.509 317.616H213.824V304.434H184.262V317.616H187.439L201.817 342.614V349.533H198.144V362.715H227.192V349.533H223.519V342.61L237.461 317.616Z" fill="black"/>
<defs>
<filter id="filter0_f_4146_180" x="319.983" y="459.085" width="18.2545" height="18.2525" filterUnits="userSpaceOnUse" color-interpolation-filters="sRGB">
<feFlood flood-opacity="0" result="BackgroundImageFix"/>
<feBlend mode="normal" in="SourceGraphic" in2="BackgroundImageFix" result="shape"/>
<feGaussianBlur stdDeviation="1.08657" result="effect1_foregroundBlur_4146_180"/>
</filter>
<filter id="filter1_f_4146_180" x="419.081" y="355.204" width="15.6457" height="15.6457" filterUnits="userSpaceOnUse" color-interpolation-filters="sRGB">
<feFlood flood-opacity="0" result="BackgroundImageFix"/>
<feBlend mode="normal" in="SourceGraphic" in2="BackgroundImageFix" result="shape"/>
<feGaussianBlur stdDeviation="2.17314" result="effect1_foregroundBlur_4146_180"/>
</filter>
<filter id="filter2_f_4146_180" x="461.675" y="276.538" width="17.8189" height="17.8189" filterUnits="userSpaceOnUse" color-interpolation-filters="sRGB">
<feFlood flood-opacity="0" result="BackgroundImageFix"/>
<feBlend mode="normal" in="SourceGraphic" in2="BackgroundImageFix" result="shape"/>
<feGaussianBlur stdDeviation="1.08657" result="effect1_foregroundBlur_4146_180"/>
</filter>
<filter id="filter3_f_4146_180" x="351.278" y="88.3464" width="17.8189" height="17.8189" filterUnits="userSpaceOnUse" color-interpolation-filters="sRGB">
<feFlood flood-opacity="0" result="BackgroundImageFix"/>
<feBlend mode="normal" in="SourceGraphic" in2="BackgroundImageFix" result="shape"/>
<feGaussianBlur stdDeviation="1.08657" result="effect1_foregroundBlur_4146_180"/>
</filter>
<filter id="filter4_f_4146_180" x="88.3288" y="282.624" width="25.2076" height="25.2096" filterUnits="userSpaceOnUse" color-interpolation-filters="sRGB">
<feFlood flood-opacity="0" result="BackgroundImageFix"/>
<feBlend mode="normal" in="SourceGraphic" in2="BackgroundImageFix" result="shape"/>
<feGaussianBlur stdDeviation="1.08657" result="effect1_foregroundBlur_4146_180"/>
</filter>
</defs>
</svg>
