<svg width="527" height="527" viewBox="0 0 527 527" fill="none" xmlns="http://www.w3.org/2000/svg">
<circle cx="263.194" cy="263.752" r="262.861" fill="#EFEFEF"/>
<circle cx="263.439" cy="263.507" r="249.425" fill="white"/>
<circle cx="122.217" cy="209.758" r="3.68017" fill="#D9D9D9"/>
<circle cx="59.0157" cy="272.637" r="4.48834" fill="#D9D9D9"/>
<circle cx="262.705" cy="132.425" r="5.37449" fill="#D9D9D9"/>
<circle cx="204.317" cy="74.04" r="4.64161" fill="#D9D9D9"/>
<circle cx="131.762" cy="124.613" r="5.86308" fill="#D9D9D9"/>
<circle cx="108.556" cy="370.126" r="4.64161" fill="#D9D9D9"/>
<circle cx="226.548" cy="401.64" r="4.8859" fill="#D9D9D9"/>
<circle cx="335.503" cy="369.882" r="4.8859" fill="#D9D9D9"/>
<circle cx="289.332" cy="462.47" r="5.61879" fill="#D9D9D9"/>
<circle cx="152.411" cy="429.107" r="4.6508" transform="rotate(2.69646 152.411 429.107)" fill="#D9D9D9"/>
<circle cx="417.397" cy="387.176" r="4.69542" fill="#D9D9D9"/>
<circle cx="62.6811" cy="183.433" r="3.71824" fill="#D9D9D9"/>
<circle cx="323.408" cy="183.433" r="3.71824" fill="#D9D9D9"/>
<circle cx="308.571" cy="73.7444" r="4.93971" fill="#D9D9D9"/>
<circle cx="418.076" cy="125.097" r="5.37449" fill="#D9D9D9"/>
<circle cx="319.66" cy="243.503" r="3.63222" fill="#D9D9D9"/>
<circle cx="398.495" cy="211.729" r="5.41266" fill="#D9D9D9"/>
<circle cx="129.617" cy="300.207" r="3.71824" fill="#D9D9D9"/>
<circle cx="268.079" cy="313.694" r="4.8859" fill="#D9D9D9"/>
<circle cx="383.874" cy="298.55" r="5.37449" fill="#D9D9D9"/>
<circle cx="464.438" cy="272.674" r="4.45123" fill="#D9D9D9"/>
<path d="M139.93 231.535H116.496V185.126H104.702V153.625H151.724V185.126H139.93V231.535ZM181.795 202.587V231.535H158.361V153.625H181.795V182.165H193.844V153.625H217.227V231.535H193.844V202.587H181.795ZM249.443 218.261L246.43 231.535H222.69L241.631 153.625H275.072L293.044 231.535H269.558L266.495 218.261H249.443ZM270.273 186.045C270.273 184.377 269.643 183.016 268.384 181.961C267.193 180.94 265.763 180.429 264.095 180.429C261.645 180.429 259.841 181.638 258.684 184.054C258.309 182.863 257.577 181.961 256.488 181.348C255.501 180.736 254.378 180.429 253.119 180.429C251.519 180.429 250.055 180.974 248.728 182.063C247.537 183.254 246.941 184.718 246.941 186.454C246.941 188.122 247.537 189.772 248.728 191.406C249.272 192.019 249.817 192.631 250.362 193.244C250.94 193.823 251.519 194.418 252.098 195.031C253.323 196.631 253.936 198.349 253.936 200.187C253.936 200.528 253.918 200.885 253.884 201.26C253.85 201.634 253.799 202.042 253.731 202.485C255.842 201.498 257.765 200.46 259.5 199.371C261.236 198.281 262.802 197.158 264.198 196.001C268.248 192.631 270.273 189.313 270.273 186.045ZM321.481 207.897V231.535H298.047V153.625H314.793L327.25 179.663V153.625H350.684V232.046H332.866L321.481 207.897ZM361.151 153.625H384.585V179.663C387.716 179.595 390.541 177.57 393.06 173.588C395.579 169.606 396.838 163.275 396.838 154.595V153.625H420.783V154.698C420.783 172.158 417.294 184.735 410.317 192.427C418.247 201.719 422.212 214.449 422.212 230.616V231.535H396.838V230.718C396.838 222.141 395.766 215.453 393.622 210.654C391.511 205.821 388.499 203.302 384.585 203.098V231.535H361.151V153.625Z" fill="#303030"/>
<path d="M191.306 323.587V357.59H167.871V323.587L147.705 279.68H171.445L179.614 297.345L187.783 279.68H211.472L191.306 323.587Z" fill="#303030"/>
<path d="M266.467 370.765C265.37 371.795 263.676 371.795 262.578 370.765L227.959 338.273C194.912 308.382 227.959 257.937 264.367 294.345H264.665C308.721 259.874 334.12 308.369 301.086 338.273L266.467 370.765Z" fill="#9F4D2C"/>
<path d="M351.753 279.68H375.187V308.679C375.187 317.086 375 323.179 374.625 326.957C374.285 330.735 373.417 334.7 372.021 338.853C370.66 342.971 368.788 346.511 366.405 349.472C364.023 352.399 361.3 354.68 358.237 356.313C355.207 357.947 352.11 358.764 348.945 358.764C344.894 358.764 340.946 357.505 337.1 354.986C333.288 352.467 330.293 349.098 328.114 344.877C325.936 340.623 324.455 336.028 323.672 331.092C322.89 326.157 322.498 318.754 322.498 308.884V279.68H345.932V315.776C345.932 318.941 346.12 321.222 346.494 322.617C346.868 323.979 347.583 324.659 348.638 324.659C349.898 324.659 350.731 323.877 351.14 322.311C351.548 320.711 351.753 317.444 351.753 312.508V279.68Z" fill="#303030"/>
</svg>
