<svg width="483" height="513" viewBox="0 0 483 513" fill="none" xmlns="http://www.w3.org/2000/svg">
<path d="M0.171875 0.679688H482.52V271.641C482.52 404.838 374.543 512.815 241.346 512.815V512.815C108.149 512.815 0.171875 404.838 0.171875 271.641V0.679688Z" fill="white"/>
<path d="M20.0293 21.582H462.661V270.232C462.661 392.462 363.574 491.548 241.345 491.548V491.548C119.116 491.548 20.0293 392.462 20.0293 270.233V21.582Z" fill="#B3D1FF"/>
<path d="M36.1952 283.548C35.98 280.405 35.8354 277.242 35.7631 274.061L36.808 274.038C36.7722 272.462 36.7542 270.882 36.7542 269.297V264.485H35.709V254.86H36.7542V245.236H35.709V235.611H36.7542V225.987H35.709V216.362H36.7542V206.738H35.709V197.113H36.7542V187.489H35.709V177.864H36.7542V168.24H35.709V158.615H36.7542V148.991H35.709V139.366H36.7542V129.742H35.709V120.117H36.7542V110.493H35.709V100.868H36.7542V91.2435H35.709V81.6189H36.7542V71.9944H35.709V62.3699H36.7542V52.7454H35.709V43.1209H36.7542V39.3538H40.6042V38.3086H50.3945V39.3538H60.1847V38.3086H69.975V39.3538H79.7652V38.3086H89.5555V39.3538H99.3457V38.3086H109.136V39.3538H118.926V38.3086H128.716V39.3538H138.507V38.3086H148.297V39.3538H158.087V38.3086H167.878V39.3538H177.668V38.3086H187.458V39.3538H197.248V38.3086H207.039V39.3538H216.829V38.3086H226.619V39.3538H236.409V38.3086H246.2V39.3538H255.99V38.3086H265.78V39.3538H275.57V38.3086H285.361V39.3538H295.151V38.3086H304.941V39.3538H314.731V38.3086H324.522V39.3538H334.312V38.3086H344.102V39.3538H353.893V38.3086H363.683V39.3538H373.473V38.3086H383.263V39.3538H393.054V38.3086H402.844V39.3538H412.634V38.3086H422.424V39.3538H432.215V38.3086H442.005V39.3538H445.855V43.1208H446.9V52.7453H445.855V62.3698H446.9V71.9944H445.855V81.6189H446.9V91.2434H445.855V100.868H446.9V110.492H445.855V120.117H446.9V129.742H445.855V139.366H446.9V148.991H445.855V158.615H446.9V168.24H445.855V177.864H446.9V187.489H445.855V197.113H446.9V206.738H445.855V216.362H446.9V225.987H445.855V235.611H446.9V245.236H445.855V254.86H446.9V264.485H445.855V269.297C445.855 270.882 445.837 272.462 445.801 274.038L446.846 274.061C446.774 277.242 446.629 280.405 446.414 283.548L445.371 283.477C445.155 286.633 444.867 289.77 444.51 292.885L445.548 293.004C445.185 296.162 444.751 299.298 444.247 302.411L443.216 302.244C442.71 305.364 442.134 308.461 441.49 311.533L442.513 311.747C441.86 314.856 441.137 317.939 440.346 320.994L439.334 320.732C438.542 323.79 437.681 326.821 436.753 329.822L437.751 330.131C436.813 333.165 435.806 336.168 434.733 339.139L433.75 338.784C432.677 341.754 431.538 344.692 430.334 347.596L431.299 347.997C430.084 350.927 428.803 353.824 427.458 356.684L426.512 356.24C425.169 359.095 423.762 361.914 422.293 364.696L423.217 365.184C421.736 367.988 420.192 370.753 418.588 373.478L417.687 372.948C416.087 375.665 414.425 378.343 412.704 380.978L413.58 381.549C411.847 384.203 410.055 386.814 408.205 389.381L407.357 388.77C405.514 391.327 403.613 393.84 401.656 396.307L402.475 396.957C400.507 399.438 398.482 401.874 396.403 404.261L395.615 403.574C393.545 405.951 391.422 408.279 389.246 410.556L390.002 411.278C387.815 413.568 385.576 415.808 383.286 417.995L382.564 417.239C380.286 419.415 377.958 421.538 375.582 423.608L376.268 424.396C373.881 426.475 371.446 428.499 368.964 430.468L368.314 429.649C365.848 431.605 363.334 433.506 360.777 435.35L361.388 436.197C358.821 438.047 356.21 439.84 353.557 441.572L352.985 440.697C350.35 442.418 347.673 444.079 344.955 445.68L345.486 446.58C342.76 448.185 339.995 449.729 337.191 451.21L336.703 450.286C333.922 451.755 331.102 453.162 328.247 454.505L328.692 455.45C325.831 456.796 322.935 458.077 320.004 459.292L319.604 458.327C316.699 459.531 313.762 460.67 310.792 461.743L311.147 462.726C308.175 463.799 305.172 464.805 302.139 465.744L301.83 464.745C298.828 465.674 295.798 466.535 292.739 467.327L293.001 468.339C289.946 469.13 286.863 469.853 283.755 470.505L283.54 469.482C280.469 470.127 277.372 470.703 274.251 471.208L274.418 472.24C271.306 472.744 268.17 473.178 265.012 473.541L264.893 472.502C261.777 472.86 258.64 473.148 255.484 473.364L255.555 474.407C252.412 474.622 249.249 474.766 246.069 474.839L246.045 473.794C244.469 473.83 242.889 473.848 241.304 473.848C239.72 473.848 238.14 473.83 236.564 473.794L236.54 474.839C233.36 474.766 230.197 474.622 227.054 474.407L227.125 473.364C223.969 473.148 220.832 472.86 217.716 472.502L217.597 473.541C214.439 473.178 211.303 472.744 208.191 472.24L208.358 471.208C205.237 470.703 202.14 470.127 199.069 469.482L198.854 470.505C195.746 469.853 192.663 469.13 189.608 468.339L189.87 467.327C186.811 466.535 183.781 465.674 180.779 464.745L180.47 465.744C177.437 464.805 174.434 463.799 171.462 462.726L171.817 461.743C168.847 460.67 165.91 459.531 163.005 458.327L162.605 459.292C159.674 458.077 156.778 456.796 153.917 455.45L154.362 454.505C151.507 453.162 148.687 451.755 145.906 450.286L145.418 451.21C142.614 449.729 139.849 448.185 137.123 446.58L137.654 445.68C134.936 444.079 132.259 442.418 129.624 440.697L129.052 441.572C126.399 439.84 123.788 438.048 121.221 436.198L121.832 435.35C119.275 433.506 116.761 431.605 114.295 429.649L113.645 430.468C111.163 428.499 108.728 426.475 106.341 424.396L107.027 423.608C104.651 421.538 102.323 419.415 100.045 417.239L99.3233 417.995C97.0334 415.808 94.7939 413.568 92.6069 411.278L93.3627 410.557C91.1871 408.279 89.0636 405.951 86.994 403.574L86.2058 404.261C84.127 401.874 82.1024 399.438 80.1339 396.957L80.9528 396.307C78.9962 393.84 77.0953 391.327 75.2521 388.77L74.4042 389.381C72.5542 386.814 70.7619 384.203 69.0293 381.549L69.9045 380.978C68.1839 378.343 66.5224 375.665 64.922 372.948L64.0214 373.478C62.4165 370.753 60.8727 367.988 59.3918 365.184L60.316 364.696C58.8468 361.914 57.4399 359.095 56.0971 356.24L55.1513 356.684C53.8061 353.824 52.525 350.927 51.3097 347.997L52.2751 347.596C51.0708 344.692 49.9315 341.754 48.859 338.784L47.8759 339.139C46.8028 336.168 45.7962 333.165 44.858 330.131L45.8565 329.822C44.9281 326.821 44.0669 323.79 43.2748 320.732L42.263 320.994C41.4718 317.939 40.749 314.856 40.0965 311.747L41.1193 311.533C40.4746 308.461 39.8987 305.364 39.3935 302.244L38.3617 302.411C37.8577 299.298 37.4236 296.162 37.0611 293.004L38.0994 292.885C37.7417 289.77 37.454 286.633 37.2379 283.477L36.1952 283.548Z" stroke="white" stroke-width="2.09035" stroke-dasharray="9.71 9.71"/>
<g filter="url(#filter0_d_4154_292)">
<path d="M71.9873 110.725C73.2903 110.035 75.2448 109.115 77.8507 107.965C80.4567 106.816 83.5226 105.589 87.0483 104.286C90.574 102.907 94.4446 101.527 98.6602 100.147C102.952 98.7678 107.436 97.5414 112.112 96.4684C116.787 95.3187 121.539 94.3989 126.368 93.7091C131.273 93.0193 136.102 92.6744 140.854 92.6744C144.533 92.6744 147.369 93.0576 149.362 93.8241C151.431 94.5139 152.964 95.3953 153.96 96.4684C154.957 97.4648 155.57 98.4995 155.8 99.5725C156.03 100.646 156.145 101.527 156.145 102.217V102.332C156.145 105.168 151.201 106.586 141.314 106.586H141.199C139.283 106.586 136.293 106.931 132.231 107.62C128.246 108.234 123.723 109 118.665 109.92C119.508 111.453 120.236 113.905 120.849 117.278C121.539 120.574 122.114 124.406 122.574 128.775C123.11 133.144 123.57 137.819 123.953 142.801C124.337 147.706 124.72 152.535 125.103 157.287C125.486 161.963 125.87 166.37 126.253 170.509C126.713 174.571 127.211 177.905 127.747 180.511C128.131 182.274 128.361 183.845 128.437 185.225C128.591 186.604 128.667 187.869 128.667 189.019C128.667 195.84 125.716 199.251 119.815 199.251C118.818 199.251 117.707 198.944 116.48 198.331C115.254 197.795 114.066 196.607 112.916 194.767C111.767 192.928 110.694 190.245 109.697 186.719C108.777 183.194 108.088 178.441 107.628 172.463C107.245 167.098 106.976 161.771 106.823 156.482C106.67 151.117 106.593 146.02 106.593 141.191C106.593 134.676 106.67 128.928 106.823 123.946C106.976 118.887 107.13 114.902 107.283 111.989C104.217 112.526 101.228 113.062 98.3153 113.599C95.4027 114.059 92.6435 114.519 90.0375 114.978C87.5082 115.362 85.2088 115.668 83.1393 115.898C81.0699 116.128 79.422 116.243 78.1957 116.243H77.9657C76.4328 116.243 75.0532 115.86 73.8268 115.093C72.6005 114.327 71.9873 113.062 71.9873 111.299V110.725ZM168.61 99.2276C168.61 97.7714 169.223 96.66 170.449 95.8935C171.676 95.0504 173.055 94.6289 174.588 94.6289C176.198 94.6289 177.654 95.1654 178.957 96.2384C180.337 97.2348 181.027 98.8827 181.027 101.182C181.027 101.795 180.95 103.941 180.797 107.62C180.643 111.299 180.413 115.936 180.107 121.532C179.877 127.05 179.532 133.22 179.072 140.042C178.612 146.787 178.114 153.57 177.578 160.391C179.034 158.398 180.758 156.674 182.751 155.218C184.744 153.685 186.967 152.918 189.419 152.918C192.945 152.918 195.819 153.455 198.042 154.528C200.265 155.524 201.989 156.866 203.216 158.552C204.519 160.238 205.362 162.154 205.745 164.3C206.205 166.446 206.435 168.592 206.435 170.739C206.435 173.498 206.243 176.104 205.86 178.556C205.477 181.009 205.285 182.887 205.285 184.19C205.285 185.263 205.515 185.799 205.975 185.799C207.125 185.799 208.389 185.416 209.769 184.65C211.225 183.807 212.682 182.734 214.138 181.431C215.671 180.051 217.165 178.518 218.622 176.832C220.078 175.069 221.496 173.268 222.875 171.428C226.018 167.213 229.237 162.422 232.533 157.057C232.993 156.367 233.453 155.716 233.913 155.103C234.296 154.643 234.717 154.221 235.177 153.838C235.714 153.378 236.212 153.148 236.672 153.148C236.825 153.148 237.055 153.225 237.362 153.378C237.975 153.761 238.396 154.336 238.626 155.103C238.856 155.793 238.971 156.559 238.971 157.402C238.971 157.862 238.933 158.322 238.856 158.782C238.856 159.165 238.818 159.548 238.741 159.931C238.665 160.315 238.588 160.66 238.511 160.966C236.212 167.174 233.491 172.693 230.348 177.522C228.969 179.591 227.436 181.622 225.75 183.615C224.14 185.608 222.339 187.371 220.346 188.904C218.353 190.437 216.207 191.663 213.908 192.583C211.608 193.579 209.156 194.077 206.55 194.077C203.254 194.077 200.495 193.579 198.272 192.583C196.049 191.586 194.286 190.207 192.983 188.444C191.68 186.681 190.722 184.611 190.109 182.235C189.573 179.859 189.304 177.292 189.304 174.532C189.304 172.156 189.381 169.972 189.534 167.979C189.764 165.986 189.879 164.454 189.879 163.38C189.879 162.307 189.726 161.771 189.419 161.771C188.346 161.771 187.197 162.307 185.97 163.38C184.821 164.377 183.633 165.68 182.406 167.289C181.18 168.822 179.992 170.509 178.842 172.348C177.769 174.188 176.811 175.912 175.968 177.522C175.508 181.354 175.01 184.956 174.473 188.329C174.014 191.625 173.515 194.537 172.979 197.066C172.442 199.596 171.867 201.627 171.254 203.16C170.641 204.769 169.99 205.766 169.3 206.149C168.227 207.069 167.154 207.874 166.081 208.563C165.161 209.177 164.165 209.713 163.091 210.173C162.018 210.709 160.984 210.978 159.987 210.978C158.914 210.978 157.956 210.48 157.113 209.483C156.347 208.563 155.963 206.686 155.963 203.85C155.963 201.244 156.117 197.335 156.423 192.123C156.73 186.987 157.113 181.162 157.573 174.647C158.109 168.056 158.761 161.081 159.527 153.723C160.294 146.365 161.137 139.275 162.057 132.454C163.053 125.556 164.088 119.194 165.161 113.369C166.234 107.544 167.384 102.83 168.61 99.2276ZM238.46 169.244C238.46 171.927 238.882 173.268 239.725 173.268C240.338 173.268 241.066 172.693 241.909 171.543C242.829 170.317 243.787 168.822 244.783 167.059C245.78 165.22 246.815 163.189 247.888 160.966C248.961 158.667 249.919 156.444 250.762 154.298C251.682 152.075 252.448 150.082 253.061 148.319C253.674 146.48 254.096 145.062 254.326 144.066C254.326 143.606 254.364 143.261 254.441 143.031C251.452 145.024 248.769 147.323 246.393 149.929C244.4 152.152 242.561 154.911 240.874 158.207C239.265 161.426 238.46 165.105 238.46 169.244ZM296.06 149.584C296.903 149.584 297.516 149.967 297.899 150.734C298.282 151.424 298.474 152.19 298.474 153.033C298.474 154.03 298.282 155.064 297.899 156.137C297.593 157.21 297.248 158.207 296.864 159.127C296.405 160.2 295.868 161.273 295.255 162.346C293.722 165.258 291.844 168.516 289.621 172.118C287.475 175.721 285.138 179.131 282.608 182.35C280.156 185.493 277.588 188.137 274.905 190.283C272.299 192.429 269.77 193.502 267.317 193.502C263.485 193.502 260.266 191.05 257.66 186.144C255.054 181.162 253.751 173.651 253.751 163.61C252.601 166.753 251.337 169.627 249.957 172.233C248.577 174.839 247.159 177.1 245.703 179.016C244.247 180.932 242.791 182.427 241.334 183.5C239.878 184.573 238.537 185.11 237.31 185.11C236.391 185.11 235.433 185.033 234.436 184.88C233.516 184.726 232.635 184.228 231.792 183.385C230.949 182.465 230.259 181.086 229.722 179.246C229.186 177.33 228.918 174.609 228.918 171.083C228.918 164.415 229.991 158.82 232.137 154.298C234.283 149.699 236.812 146.02 239.725 143.261C242.714 140.425 245.741 138.394 248.807 137.167C251.873 135.941 254.326 135.328 256.165 135.328C257.315 135.328 258.12 135.558 258.58 136.018C258.733 136.018 258.886 136.018 259.04 136.018C259.27 135.941 259.461 135.903 259.614 135.903C260.228 135.903 261.109 136.171 262.259 136.708C263.485 137.167 264.673 138.049 265.823 139.352C266.972 140.655 267.969 142.418 268.812 144.64C269.732 146.863 270.192 149.661 270.192 153.033C270.192 158.245 270.192 162.576 270.192 166.025C270.268 169.474 270.307 172.233 270.307 174.303C270.383 176.372 270.498 177.828 270.651 178.671C270.805 179.514 270.996 179.936 271.226 179.936C272.223 179.936 273.449 179.246 274.905 177.867C276.362 176.487 277.856 174.762 279.389 172.693C280.999 170.624 282.608 168.362 284.218 165.91C285.827 163.457 287.284 161.158 288.587 159.012L292.496 152.458C292.496 152.382 292.611 152.19 292.841 151.884C293.07 151.577 293.339 151.27 293.645 150.964C293.952 150.581 294.297 150.274 294.68 150.044C295.14 149.737 295.6 149.584 296.06 149.584ZM295.893 138.202C296.277 136.899 296.928 135.941 297.848 135.328C298.844 134.638 299.956 134.293 301.182 134.293C302.868 134.293 304.44 135.021 305.896 136.478C307.429 137.857 308.195 140.08 308.195 143.146L307.39 153.608C308.617 151.539 309.92 149.546 311.299 147.63C312.756 145.637 314.25 143.912 315.783 142.456C317.316 140.923 318.887 139.735 320.497 138.892C322.106 137.972 323.716 137.512 325.326 137.512C327.318 137.512 328.928 137.934 330.154 138.777C331.381 139.62 332.3 140.923 332.914 142.686C333.603 144.449 334.063 146.672 334.293 149.354C334.523 152.037 334.638 155.256 334.638 159.012C334.638 162.231 334.6 165.757 334.523 169.589C334.447 173.421 334.408 177.675 334.408 182.35C334.408 184.803 334.178 186.873 333.718 188.559C333.258 190.245 332.645 191.586 331.879 192.583C331.112 193.579 330.193 194.269 329.12 194.652C328.123 195.112 327.012 195.342 325.785 195.342C324.483 195.342 323.294 194.346 322.221 192.353C321.148 190.437 320.612 188.022 320.612 185.11C320.612 182.35 320.727 179.361 320.957 176.142C321.187 172.923 321.417 169.78 321.647 166.715C321.877 163.572 322.106 160.621 322.336 157.862C322.566 155.103 322.681 152.765 322.681 150.849C322.681 149.316 322.605 148.128 322.451 147.285C322.298 146.442 321.992 146.02 321.532 146.02C321.148 146.02 320.535 146.595 319.692 147.745C318.849 148.818 317.699 150.619 316.243 153.148C314.863 155.678 313.139 159.012 311.069 163.151C309 167.213 306.586 172.233 303.826 178.212C303.29 180.588 302.677 182.81 301.987 184.88C301.374 186.949 300.684 188.789 299.917 190.398C299.151 191.931 298.27 193.119 297.273 193.962C296.353 194.882 295.357 195.342 294.284 195.342C291.218 195.342 289.034 194.805 287.731 193.732C286.428 192.736 285.776 190.896 285.776 188.214C285.776 186.298 286.083 183.922 286.696 181.086C287.232 178.173 287.961 174.686 288.88 170.624C289.8 166.561 290.873 161.848 292.1 156.482C293.326 151.117 294.591 145.024 295.893 138.202ZM395.216 130.959C396.059 131.112 396.864 131.342 397.63 131.649C398.244 131.956 398.78 132.377 399.24 132.914C399.777 133.45 400.045 134.178 400.045 135.098C400.045 135.558 399.585 136.363 398.665 137.512C397.745 138.662 396.519 140.08 394.986 141.766C393.53 143.376 391.805 145.177 389.813 147.17C387.896 149.086 385.865 151.04 383.719 153.033C381.65 155.026 379.542 156.981 377.396 158.897C375.326 160.813 373.41 162.537 371.647 164.07C374.177 165.833 376.208 167.864 377.741 170.164C379.274 172.386 380.692 174.532 381.995 176.602C383.298 178.671 384.639 180.434 386.019 181.891C387.398 183.27 389.199 183.96 391.422 183.96C393.262 183.96 395.025 183.653 396.711 183.04C398.397 182.35 400.007 181.507 401.539 180.511C403.072 179.438 404.529 178.25 405.908 176.947C407.288 175.567 408.553 174.188 409.702 172.808C412.385 169.589 414.799 165.871 416.945 161.656C417.405 160.813 417.903 160.008 418.44 159.242C418.9 158.628 419.36 158.092 419.82 157.632C420.356 157.095 420.931 156.827 421.544 156.827C421.927 156.827 422.272 156.981 422.579 157.287C422.962 157.67 423.192 158.13 423.269 158.667C423.422 159.127 423.499 159.663 423.499 160.276C423.499 160.889 423.46 161.503 423.384 162.116C423.307 162.652 423.192 163.151 423.039 163.61C422.885 164.147 422.732 164.645 422.579 165.105C420.433 170.7 417.75 175.682 414.531 180.051C413.151 181.891 411.58 183.73 409.817 185.57C408.054 187.332 406.062 188.942 403.839 190.398C401.693 191.778 399.317 192.889 396.711 193.732C394.105 194.575 391.307 194.997 388.318 194.997C385.252 194.997 382.493 194.077 380.04 192.238C377.588 190.398 375.365 188.252 373.372 185.799C371.456 183.347 369.808 180.856 368.428 178.326C367.049 175.721 365.937 173.689 365.094 172.233C364.021 175.299 362.91 178.173 361.76 180.856C360.687 183.538 359.614 185.876 358.541 187.869C357.545 189.785 356.548 191.318 355.552 192.468C354.632 193.617 353.751 194.192 352.907 194.192C350.685 194.192 349.113 193.081 348.194 190.858C347.351 188.635 346.929 185.685 346.929 182.005C346.929 178.863 347.197 175.337 347.734 171.428C348.27 167.519 348.96 163.495 349.803 159.357C350.646 155.218 351.528 151.155 352.448 147.17C353.444 143.184 354.402 139.505 355.322 136.133C356.242 132.76 357.046 129.886 357.736 127.51C358.426 125.057 358.886 123.371 359.116 122.451C359.576 120.535 360.227 118.926 361.07 117.623C361.99 116.32 362.986 115.247 364.059 114.404C365.209 113.56 366.359 112.947 367.509 112.564C368.735 112.181 369.923 111.989 371.073 111.989C372.912 111.989 374.368 112.334 375.441 113.024C376.514 113.714 377.319 114.557 377.856 115.553C378.469 116.473 378.852 117.469 379.005 118.542C379.159 119.539 379.235 120.382 379.235 121.072C379.235 121.532 379.005 122.758 378.546 124.751C378.162 126.744 377.588 129.273 376.821 132.339C376.131 135.328 375.25 138.739 374.177 142.571C373.18 146.327 372.107 150.197 370.958 154.183C373.027 151.424 375.25 148.664 377.626 145.905C380.002 143.146 382.34 140.655 384.639 138.432C386.938 136.209 389.008 134.408 390.847 133.029C392.763 131.649 394.22 130.959 395.216 130.959Z" fill="white"/>
</g>
<g filter="url(#filter1_d_4154_292)">
<path d="M156.018 257.333C156.018 257.103 156.056 256.835 156.133 256.528C156.209 256.222 156.401 255.915 156.708 255.609C157.014 255.225 157.436 254.919 157.972 254.689C158.585 254.459 159.39 254.344 160.387 254.344C161.69 254.344 162.648 254.651 163.261 255.264C163.874 255.8 164.372 256.912 164.755 258.598C166.442 266.186 167.898 272.547 169.124 277.683C170.351 282.818 171.424 287.11 172.343 290.559C173.263 294.008 174.03 296.844 174.643 299.067C175.256 301.213 175.792 303.091 176.252 304.701C177.095 300.102 178.13 295.005 179.356 289.41C180.659 283.738 182.307 277.989 184.3 272.164C185.603 268.179 186.983 264.998 188.439 262.622C189.972 260.169 191.467 258.291 192.923 256.988C194.456 255.685 195.912 254.804 197.292 254.344C198.671 253.884 199.936 253.654 201.086 253.654C203.155 253.654 205.071 254.076 206.834 254.919C208.597 255.685 209.478 257.18 209.478 259.403C209.478 260.246 209.325 261.166 209.019 262.162C208.789 263.082 208.29 264.155 207.524 265.381C206.604 266.991 205.646 269.06 204.65 271.589C203.73 274.042 202.81 276.763 201.89 279.752C200.971 282.741 200.013 285.884 199.016 289.18C198.096 292.399 197.138 295.58 196.142 298.722C195.222 301.788 194.264 304.701 193.268 307.46C192.271 310.219 191.275 312.595 190.279 314.588C190.509 315.508 190.623 316.581 190.623 317.807C190.623 319.57 190.47 321.716 190.164 324.245C189.934 326.698 189.819 329.725 189.819 333.328C189.819 335.934 189.627 338.425 189.244 340.801C188.937 343.1 188.209 345.17 187.059 347.009C185.91 348.772 184.262 350.19 182.116 351.263C179.97 352.336 177.134 352.873 173.608 352.873C172.535 352.873 171.654 352.336 170.964 351.263C170.274 350.19 169.699 348.772 169.239 347.009C168.856 345.246 168.588 343.215 168.434 340.916C168.281 338.54 168.204 336.125 168.204 333.673C168.204 330.76 168.281 327.963 168.434 325.28C168.588 322.597 168.741 320.145 168.894 317.922C166.978 316.006 165.254 313.017 163.721 308.954C162.188 304.892 160.77 299.22 159.467 291.939C157.934 282.665 156.976 275.307 156.593 269.865C156.209 264.346 156.018 260.706 156.018 258.943V257.333ZM231.464 297.342C229.932 297.342 228.82 297.611 228.13 298.147C227.441 298.684 227.019 299.144 226.866 299.527C227.632 302.363 228.82 305.007 230.43 307.46C232.039 309.912 233.917 312.059 236.063 313.898C235.91 311.752 235.68 309.683 235.373 307.69C235.067 305.62 234.684 303.857 234.224 302.401C233.841 300.868 233.381 299.642 232.844 298.722C232.384 297.802 231.924 297.342 231.464 297.342ZM225.946 338.616C228.552 338.616 230.545 337.543 231.924 335.397C233.381 333.175 234.415 330.645 235.029 327.809C232.576 326.736 230.506 325.472 228.82 324.015C227.134 322.559 225.716 320.95 224.566 319.187C224.413 321.486 224.298 323.555 224.221 325.395C224.145 327.234 224.106 328.806 224.106 330.109C224.106 333.711 224.298 336.049 224.681 337.122C225.141 338.118 225.563 338.616 225.946 338.616ZM228.935 290.444C232.538 290.674 235.757 291.709 238.593 293.549C239.819 294.315 241.007 295.311 242.157 296.538C243.306 297.687 244.341 299.144 245.261 300.907C246.181 302.593 246.909 304.624 247.445 307C247.982 309.299 248.25 311.944 248.25 314.933C248.25 315.853 248.212 316.734 248.135 317.577C248.135 318.42 248.097 319.263 248.02 320.106C249.246 320.413 250.626 320.566 252.159 320.566C255.148 320.566 257.869 319.761 260.322 318.152C262.774 316.542 264.652 313.898 265.955 310.219C266.032 309.683 266.224 309.223 266.53 308.839C266.76 308.456 267.028 308.15 267.335 307.92C267.641 307.613 268.025 307.46 268.485 307.46C268.561 307.46 268.638 307.498 268.715 307.575C268.791 307.575 268.868 307.575 268.944 307.575C269.558 307.805 269.864 308.38 269.864 309.299C269.864 309.836 269.788 310.372 269.634 310.909C269.558 311.445 269.443 311.944 269.289 312.403C269.059 312.94 268.868 313.477 268.715 314.013C268.715 314.013 268.523 314.435 268.14 315.278C267.833 316.044 267.297 317.041 266.53 318.267C265.764 319.493 264.767 320.835 263.541 322.291C262.315 323.67 260.858 324.973 259.172 326.2C257.563 327.349 255.685 328.346 253.539 329.189C251.469 329.955 249.131 330.339 246.525 330.339H246.41C245.261 334.554 243.766 338.003 241.927 340.686C240.164 343.292 238.286 345.361 236.293 346.894C234.377 348.351 232.576 349.347 230.89 349.883C229.203 350.497 227.9 350.803 226.981 350.803C225.908 350.803 224.336 350.497 222.267 349.883C220.198 349.27 218.128 348.121 216.059 346.434C213.989 344.672 212.188 342.257 210.655 339.191C209.122 336.125 208.356 332.14 208.356 327.234C208.356 322.329 208.701 317.999 209.39 314.243C210.157 310.411 211 307.192 211.92 304.586C212.993 301.52 214.219 298.914 215.599 296.768C215.369 296.691 215.177 296.538 215.024 296.308C214.641 295.925 214.449 295.311 214.449 294.468C214.449 293.472 214.986 292.705 216.059 292.169C217.132 291.632 218.435 291.249 219.968 291.019C221.5 290.713 223.072 290.559 224.681 290.559C226.368 290.483 227.785 290.444 228.935 290.444ZM279.793 307.92C279.793 309.989 279.64 312.365 279.333 315.048C279.026 317.73 278.643 320.375 278.183 322.981C277.8 325.587 277.455 328.039 277.149 330.339C276.842 332.561 276.689 334.363 276.689 335.742C276.689 337.275 276.957 338.042 277.494 338.042C277.647 338.042 277.762 338.003 277.838 337.927C279.678 337.007 281.479 335.436 283.242 333.213C285.005 330.914 286.691 328.384 288.301 325.625C289.91 322.789 291.443 319.838 292.899 316.772C294.356 313.706 295.659 310.871 296.808 308.265C298.035 305.659 299.069 303.474 299.913 301.711C300.832 299.872 301.56 298.799 302.097 298.492C302.404 298.339 303.093 298.071 304.166 297.687C305.316 297.228 306.581 296.998 307.96 296.998C308.803 296.998 309.647 297.151 310.49 297.457C311.333 297.687 312.061 298.147 312.674 298.837C313.364 299.45 313.9 300.332 314.284 301.481C314.744 302.631 314.973 304.126 314.973 305.965C314.973 307.881 314.897 309.951 314.744 312.174C314.667 314.32 314.552 316.504 314.399 318.727C314.322 320.873 314.245 322.981 314.169 325.05C314.092 327.12 314.054 329.036 314.054 330.799C314.054 333.251 314.169 335.206 314.399 336.662C314.705 338.118 315.242 338.846 316.008 338.846C317.081 338.846 318.308 338.118 319.687 336.662C321.143 335.129 322.6 333.213 324.056 330.914C325.589 328.614 327.084 326.085 328.54 323.326C329.996 320.566 331.337 317.922 332.564 315.393C332.947 314.55 333.407 313.63 333.943 312.633C334.48 311.637 335.016 310.717 335.553 309.874C336.166 308.954 336.741 308.226 337.278 307.69C337.891 307.077 338.466 306.77 339.002 306.77C339.769 306.77 340.228 307.115 340.382 307.805C340.535 308.418 340.612 308.993 340.612 309.529C340.612 311.139 340.305 313.132 339.692 315.508C339.155 317.807 338.542 319.838 337.852 321.601C336.703 324.59 335.131 328.001 333.139 331.833C331.146 335.589 328.923 339.153 326.47 342.525C324.018 345.821 321.45 348.58 318.767 350.803C316.161 353.103 313.709 354.252 311.409 354.252C309.34 354.252 307.654 353.754 306.351 352.758C305.048 351.761 304.013 350.458 303.247 348.849C302.557 347.239 302.059 345.4 301.752 343.33C301.445 341.261 301.292 339.153 301.292 337.007C301.292 335.014 301.369 333.098 301.522 331.258C301.675 329.342 301.867 327.656 302.097 326.2C302.404 324.514 302.71 322.904 303.017 321.371C301.101 327.273 298.648 332.561 295.659 337.237C294.356 339.23 292.899 341.184 291.29 343.1C289.68 344.94 287.841 346.626 285.771 348.159C283.778 349.615 281.556 350.765 279.103 351.608C276.65 352.528 274.006 352.988 271.17 352.988C268.871 352.988 266.955 352.336 265.422 351.033C263.965 349.807 262.777 348.121 261.858 345.974C261.015 343.828 260.401 341.376 260.018 338.616C259.635 335.857 259.443 332.983 259.443 329.994C259.443 326.698 259.597 323.364 259.903 319.991C260.286 316.619 260.708 313.553 261.168 310.794C261.628 308.035 262.088 305.697 262.548 303.781C263.084 301.865 263.506 300.677 263.812 300.217C264.195 299.527 264.847 299.029 265.767 298.722C266.686 298.339 267.683 298.147 268.756 298.147C269.982 298.147 271.247 298.377 272.55 298.837C273.853 299.22 275.041 299.833 276.114 300.677C277.187 301.443 278.068 302.439 278.758 303.666C279.448 304.892 279.793 306.31 279.793 307.92Z" fill="white"/>
</g>
<path d="M372.461 291.062C372.038 291.459 371.386 291.459 370.964 291.062L357.635 278.553C344.911 267.044 357.635 247.622 371.652 261.64H371.767C388.729 248.368 398.508 267.039 385.79 278.553L372.461 291.062Z" fill="white"/>
<defs>
<filter id="filter0_d_4154_292" x="70.9711" y="92.6758" width="353.544" height="120.335" filterUnits="userSpaceOnUse" color-interpolation-filters="sRGB">
<feFlood flood-opacity="0" result="BackgroundImageFix"/>
<feColorMatrix in="SourceAlpha" type="matrix" values="0 0 0 0 0 0 0 0 0 0 0 0 0 0 0 0 0 0 127 0" result="hardAlpha"/>
<feOffset dy="1.01722"/>
<feGaussianBlur stdDeviation="0.508609"/>
<feComposite in2="hardAlpha" operator="out"/>
<feColorMatrix type="matrix" values="0 0 0 0 0 0 0 0 0 0 0 0 0 0 0 0 0 0 0.25 0"/>
<feBlend mode="normal" in2="BackgroundImageFix" result="effect1_dropShadow_4154_292"/>
<feBlend mode="normal" in="SourceGraphic" in2="effect1_dropShadow_4154_292" result="shape"/>
</filter>
<filter id="filter1_d_4154_292" x="155" y="253.652" width="186.628" height="102.636" filterUnits="userSpaceOnUse" color-interpolation-filters="sRGB">
<feFlood flood-opacity="0" result="BackgroundImageFix"/>
<feColorMatrix in="SourceAlpha" type="matrix" values="0 0 0 0 0 0 0 0 0 0 0 0 0 0 0 0 0 0 127 0" result="hardAlpha"/>
<feOffset dy="1.01722"/>
<feGaussianBlur stdDeviation="0.508609"/>
<feComposite in2="hardAlpha" operator="out"/>
<feColorMatrix type="matrix" values="0 0 0 0 0 0 0 0 0 0 0 0 0 0 0 0 0 0 0.25 0"/>
<feBlend mode="normal" in2="BackgroundImageFix" result="effect1_dropShadow_4154_292"/>
<feBlend mode="normal" in="SourceGraphic" in2="effect1_dropShadow_4154_292" result="shape"/>
</filter>
</defs>
</svg>
