<svg width="1346" height="581" viewBox="0 0 1346 581" fill="none" xmlns="http://www.w3.org/2000/svg">
<ellipse cx="672.813" cy="290.756" rx="672.805" ry="289.811" fill="white"/>
<ellipse cx="672.596" cy="291.024" rx="639.122" ry="275.302" fill="#5D59EA"/>
<ellipse cx="674.334" cy="290.623" rx="611.74" ry="241.002" stroke="black" stroke-width="3.47703" stroke-dasharray="21.73 21.73"/>
<path d="M151.512 331C151.733 330.08 151.917 328.977 152.064 327.689C152.248 326.365 152.34 325.004 152.34 323.606C152.34 322.319 152.248 321.068 152.064 319.854C151.88 318.603 151.696 317.537 151.512 316.654C153.94 316.654 155.871 316.378 157.306 315.826C158.777 315.238 159.899 314.281 160.672 312.957C161.444 311.596 161.941 309.793 162.162 307.55C162.419 305.306 162.548 302.528 162.548 299.218C162.548 296.68 162.235 294.638 161.61 293.093C160.985 291.511 160.249 290.628 159.403 290.445C160.138 290.224 160.782 289.635 161.334 288.679C161.886 287.722 162.327 286.49 162.658 284.982C163.026 283.437 163.302 281.653 163.486 279.63C163.67 277.607 163.762 275.399 163.762 273.008C163.762 271.537 163.523 270.342 163.044 269.422C162.566 268.502 161.923 267.785 161.113 267.27C160.304 266.718 159.348 266.35 158.244 266.166C157.177 265.983 156.019 265.891 154.768 265.891H153.719C153.903 265.008 154.087 263.996 154.271 262.856C154.455 261.679 154.547 260.446 154.547 259.159C154.547 257.798 154.455 256.418 154.271 255.021C154.124 253.623 153.94 252.464 153.719 251.544C154.382 251.802 155.375 252.041 156.699 252.262C158.06 252.482 159.605 252.685 161.334 252.869C163.1 253.053 164.957 253.2 166.907 253.31C168.857 253.42 170.769 253.476 172.645 253.476C174.779 253.476 176.784 253.42 178.66 253.31C180.573 253.2 182.32 253.053 183.902 252.869C185.483 252.685 186.863 252.482 188.04 252.262C189.254 252.041 190.229 251.802 190.964 251.544C191.001 252.685 191.295 254.211 191.847 256.124C192.399 258 193.116 260.079 193.999 262.359C194.882 264.64 195.875 267.031 196.979 269.532C198.119 272.034 199.259 274.443 200.4 276.761C201.577 279.078 202.717 281.23 203.821 283.216C204.961 285.203 205.973 286.821 206.855 288.072C207.738 286.821 208.731 285.203 209.835 283.216C210.975 281.23 212.116 279.078 213.256 276.761C214.433 274.443 215.573 272.034 216.677 269.532C217.817 267.031 218.829 264.64 219.712 262.359C220.595 260.079 221.312 258 221.864 256.124C222.415 254.211 222.71 252.685 222.747 251.544C223.445 251.802 224.402 252.059 225.616 252.317C226.83 252.538 228.227 252.74 229.809 252.924C231.391 253.071 233.138 253.2 235.051 253.31C236.964 253.42 238.969 253.476 241.065 253.476C242.941 253.476 244.854 253.42 246.804 253.31C248.753 253.2 250.593 253.053 252.322 252.869C254.087 252.685 255.632 252.482 256.957 252.262C258.318 252.041 259.329 251.802 259.991 251.544C259.771 252.464 259.568 253.623 259.384 255.021C259.237 256.418 259.164 257.798 259.164 259.159C259.164 260.446 259.256 261.679 259.44 262.856C259.623 263.996 259.807 265.008 259.991 265.891H258.943C257.692 265.891 256.515 265.983 255.412 266.166C254.345 266.35 253.407 266.718 252.598 267.27C251.788 267.785 251.145 268.502 250.666 269.422C250.188 270.342 249.949 271.537 249.949 273.008C249.949 275.399 250.023 277.607 250.17 279.63C250.354 281.653 250.63 283.437 250.997 284.982C251.365 286.49 251.825 287.722 252.377 288.679C252.929 289.635 253.572 290.224 254.308 290.445C253.462 290.628 252.726 291.511 252.101 293.093C251.476 294.638 251.163 296.68 251.163 299.218C251.163 301.02 251.347 302.657 251.715 304.129C252.119 305.6 252.45 307.071 252.708 308.543C252.965 310.088 253.333 311.375 253.811 312.405C254.29 313.435 254.933 314.263 255.743 314.888C256.589 315.514 257.619 315.973 258.833 316.268C260.083 316.525 261.573 316.654 263.302 316.654C263.118 317.537 262.934 318.603 262.75 319.854C262.566 321.068 262.474 322.319 262.474 323.606C262.474 325.004 262.548 326.365 262.695 327.689C262.879 328.977 263.081 330.08 263.302 331C262.235 330.779 260.893 330.595 259.274 330.448C257.655 330.264 255.89 330.117 253.977 330.007C252.064 329.86 250.078 329.768 248.018 329.731C245.995 329.657 244.045 329.621 242.169 329.621C240.293 329.621 238.325 329.657 236.265 329.731C234.242 329.768 232.274 329.86 230.361 330.007C228.448 330.117 226.683 330.264 225.064 330.448C223.445 330.595 222.121 330.779 221.091 331C221.312 330.08 221.496 328.977 221.643 327.689C221.827 326.365 221.919 325.004 221.919 323.606C221.919 322.319 221.827 321.068 221.643 319.854C221.459 318.603 221.275 317.537 221.091 316.654C224.77 316.654 227.455 316.029 229.147 314.778C230.839 313.49 231.685 311.265 231.685 308.101C231.685 305.563 231.612 302.915 231.465 300.156C231.354 297.397 231.17 294.767 230.913 292.265C230.692 289.727 230.398 287.428 230.03 285.368C229.699 283.271 229.313 281.635 228.871 280.457C228.062 280.457 227.142 281.046 226.112 282.223C225.119 283.4 224.071 284.908 222.967 286.748C221.9 288.587 220.852 290.61 219.822 292.817C218.792 295.024 217.872 297.176 217.063 299.273C216.254 301.37 215.592 303.264 215.077 304.956C214.562 306.648 214.286 307.881 214.249 308.653C213.219 308.322 212.06 308.101 210.773 307.991C209.486 307.881 208.18 307.825 206.855 307.825C205.531 307.825 204.225 307.881 202.938 307.991C201.65 308.101 200.492 308.322 199.462 308.653C199.425 307.917 199.149 306.722 198.634 305.067C198.119 303.411 197.457 301.572 196.648 299.549C195.838 297.489 194.919 295.374 193.889 293.203C192.895 291.033 191.866 289.065 190.799 287.299C189.732 285.497 188.684 284.007 187.654 282.83C186.624 281.653 185.704 281.046 184.895 281.009C184.527 282.186 184.214 283.805 183.957 285.865C183.736 287.925 183.552 290.205 183.405 292.707C183.295 295.208 183.221 297.838 183.184 300.597C183.147 303.319 183.129 305.968 183.129 308.543C183.129 310.125 183.331 311.449 183.736 312.516C184.177 313.546 184.821 314.373 185.667 314.999C186.55 315.587 187.654 316.01 188.978 316.268C190.302 316.525 191.884 316.654 193.723 316.654C193.539 317.537 193.355 318.603 193.171 319.854C192.987 321.068 192.895 322.319 192.895 323.606C192.895 325.004 192.969 326.365 193.116 327.689C193.3 328.977 193.502 330.08 193.723 331C192.656 330.779 191.314 330.595 189.695 330.448C188.077 330.264 186.311 330.117 184.398 330.007C182.485 329.86 180.517 329.768 178.494 329.731C176.471 329.657 174.521 329.621 172.645 329.621C170.769 329.621 168.801 329.657 166.741 329.731C164.718 329.768 162.75 329.86 160.837 330.007C158.925 330.117 157.14 330.264 155.485 330.448C153.867 330.595 152.542 330.779 151.512 331ZM268.544 331C268.765 330.08 268.93 328.958 269.04 327.634C269.151 326.273 269.206 324.875 269.206 323.441C269.206 322.116 269.151 320.884 269.04 319.744C268.967 318.567 268.838 317.537 268.654 316.654C270.53 316.58 272.13 316.249 273.455 315.661C274.779 315.035 275.864 314.355 276.71 313.619C277.593 312.258 278.494 310.731 279.414 309.039C280.333 307.347 281.161 305.618 281.897 303.853C282.669 302.05 283.295 300.266 283.773 298.5C284.251 296.698 284.49 295.024 284.49 293.479C284.49 292.854 284.398 292.229 284.214 291.603C284.03 290.978 283.718 290.592 283.276 290.445C284.38 290.15 285.483 289.341 286.587 288.017C287.69 286.692 288.757 285.056 289.787 283.106C290.817 281.156 291.774 278.986 292.656 276.595C293.539 274.204 294.312 271.795 294.974 269.367C295.636 266.902 296.151 264.511 296.519 262.194C296.887 259.876 297.071 257.816 297.071 256.014C297.071 255.388 297.034 254.782 296.96 254.193C296.887 253.604 296.85 253.108 296.85 252.703C296.85 252.519 296.85 252.354 296.85 252.207C296.887 252.059 296.905 251.839 296.905 251.544C297.751 251.875 298.799 252.17 300.05 252.427C301.338 252.648 302.772 252.85 304.354 253.034C305.936 253.181 307.628 253.292 309.43 253.365C311.233 253.439 313.109 253.476 315.058 253.476C316.751 253.476 318.479 253.439 320.245 253.365C322.011 253.292 323.721 253.181 325.377 253.034C327.032 252.85 328.577 252.648 330.012 252.427C331.446 252.17 332.642 251.875 333.598 251.544V251.765V252.262C333.598 252.666 333.543 253.181 333.433 253.807C333.359 254.395 333.322 255.057 333.322 255.793C333.322 257.485 333.469 259.472 333.764 261.752C334.095 264.033 334.536 266.406 335.088 268.87C335.64 271.298 336.302 273.726 337.074 276.154C337.884 278.545 338.766 280.752 339.723 282.775C340.679 284.761 341.709 286.453 342.813 287.851C343.916 289.212 345.075 290.077 346.289 290.445C345.774 290.628 345.406 290.996 345.185 291.548C345.001 292.063 344.909 292.707 344.909 293.479C344.909 295.024 345.13 296.698 345.572 298.5C346.05 300.266 346.657 302.05 347.392 303.853C348.165 305.618 348.993 307.329 349.875 308.984C350.795 310.64 351.696 312.129 352.579 313.454C353.131 313.785 353.793 314.134 354.565 314.502C355.338 314.87 356.147 315.219 356.993 315.55C357.839 315.881 358.685 316.157 359.531 316.378C360.378 316.562 361.168 316.654 361.904 316.654C361.72 317.537 361.573 318.567 361.463 319.744C361.389 320.884 361.352 322.116 361.352 323.441C361.352 324.875 361.408 326.273 361.518 327.634C361.628 328.958 361.794 330.08 362.014 331C360.69 330.853 359.164 330.706 357.435 330.559C355.706 330.375 353.848 330.228 351.862 330.117C349.875 329.97 347.815 329.86 345.682 329.786C343.548 329.676 341.415 329.621 339.281 329.621C335.382 329.621 331.667 329.749 328.135 330.007C324.641 330.228 321.68 330.559 319.252 331C319.362 330.375 319.454 329.4 319.528 328.076C319.638 326.715 319.693 325.206 319.693 323.551C319.693 322.852 319.675 322.153 319.638 321.454C319.601 320.719 319.565 320.038 319.528 319.413C319.491 318.787 319.436 318.236 319.362 317.757C319.325 317.242 319.289 316.875 319.252 316.654C319.914 316.654 320.613 316.635 321.349 316.599C322.084 316.525 322.802 316.415 323.501 316.268C324.236 316.12 324.935 315.918 325.597 315.661C326.259 315.403 326.848 315.054 327.363 314.612C327.289 313.141 327.05 311.89 326.646 310.86C326.241 309.793 325.469 308.911 324.328 308.212C323.225 307.513 321.661 306.998 319.638 306.667C317.652 306.336 315.04 306.17 311.803 306.17C308.897 306.17 306.469 306.28 304.52 306.501C302.607 306.722 301.043 307.145 299.829 307.77C298.652 308.359 297.769 309.205 297.181 310.308C296.629 311.375 296.28 312.791 296.133 314.557C296.684 314.999 297.346 315.348 298.119 315.605C298.891 315.863 299.682 316.084 300.492 316.268C301.338 316.415 302.165 316.525 302.975 316.599C303.821 316.635 304.575 316.654 305.237 316.654C305.163 316.875 305.09 317.224 305.016 317.702C304.979 318.18 304.943 318.751 304.906 319.413C304.869 320.038 304.832 320.719 304.795 321.454C304.795 322.19 304.795 322.889 304.795 323.551C304.795 325.206 304.832 326.715 304.906 328.076C305.016 329.4 305.126 330.375 305.237 331C302.441 330.485 299.609 330.136 296.74 329.952C293.87 329.731 290.946 329.621 287.966 329.621C284.508 329.621 281.143 329.731 277.869 329.952C274.632 330.136 271.523 330.485 268.544 331ZM303.857 290.003C303.857 291.07 303.968 291.953 304.188 292.652C304.446 293.351 304.869 293.902 305.458 294.307C306.083 294.712 306.911 295.006 307.941 295.19C309.007 295.337 310.35 295.411 311.968 295.411C313.587 295.411 314.911 295.337 315.941 295.19C317.008 295.006 317.836 294.712 318.424 294.307C319.05 293.902 319.473 293.351 319.693 292.652C319.951 291.953 320.08 291.07 320.08 290.003C320.08 288.716 319.749 287.134 319.086 285.258C318.424 283.382 317.652 281.414 316.769 279.354C315.886 277.294 314.985 275.234 314.065 273.174C313.146 271.114 312.447 269.256 311.968 267.601C311.417 269.256 310.681 271.114 309.761 273.174C308.842 275.234 307.941 277.294 307.058 279.354C306.212 281.414 305.458 283.382 304.795 285.258C304.17 287.134 303.857 288.716 303.857 290.003ZM367.863 331C368.084 330.08 368.268 328.977 368.415 327.689C368.599 326.365 368.691 325.004 368.691 323.606C368.691 322.319 368.599 321.068 368.415 319.854C368.231 318.603 368.047 317.537 367.863 316.654C369.519 316.654 370.972 316.525 372.222 316.268C373.473 316.01 374.521 315.587 375.367 314.999C376.213 314.373 376.839 313.546 377.243 312.516C377.685 311.449 377.906 310.125 377.906 308.543C377.906 305.195 377.814 302.4 377.63 300.156C377.483 297.912 377.243 296.109 376.912 294.748C376.618 293.351 376.232 292.339 375.754 291.714C375.275 291.052 374.724 290.628 374.098 290.445C374.76 290.224 375.331 289.838 375.809 289.286C376.287 288.697 376.673 287.759 376.968 286.472C377.299 285.184 377.538 283.474 377.685 281.34C377.832 279.17 377.906 276.393 377.906 273.008C377.906 271.537 377.666 270.342 377.188 269.422C376.71 268.502 376.066 267.785 375.257 267.27C374.448 266.718 373.491 266.35 372.388 266.166C371.321 265.983 370.162 265.891 368.912 265.891H367.863C368.047 265.008 368.231 263.996 368.415 262.856C368.599 261.679 368.691 260.446 368.691 259.159C368.691 257.798 368.599 256.418 368.415 255.021C368.268 253.623 368.084 252.464 367.863 251.544C369.298 252.059 371.339 252.519 373.988 252.924C376.636 253.292 380.076 253.476 384.306 253.476C387.065 253.476 389.75 253.329 392.362 253.034C394.974 252.703 397.383 252.335 399.59 251.931C399.59 253.696 399.958 255.701 400.694 257.945C401.43 260.189 402.423 262.543 403.673 265.008C404.924 267.472 406.34 269.992 407.922 272.567C409.541 275.105 411.214 277.57 412.943 279.961C414.709 282.352 416.456 284.614 418.185 286.748C419.951 288.844 421.588 290.684 423.096 292.265C424.641 293.81 425.984 295.043 427.124 295.962C428.264 296.882 429.11 297.342 429.662 297.342H429.772C429.809 297.342 429.846 297.36 429.883 297.397C429.956 297.397 430.03 297.397 430.103 297.397C430.398 296.293 430.618 294.896 430.766 293.203C430.95 291.511 431.078 289.599 431.152 287.465C431.262 285.331 431.336 283.051 431.373 280.623C431.409 278.158 431.428 275.62 431.428 273.008C431.428 271.537 431.189 270.342 430.71 269.422C430.232 268.502 429.588 267.785 428.779 267.27C427.97 266.718 427.014 266.35 425.91 266.166C424.843 265.983 423.684 265.891 422.434 265.891H421.385C421.569 265.008 421.753 263.996 421.937 262.856C422.121 261.679 422.213 260.446 422.213 259.159C422.213 257.798 422.121 256.418 421.937 255.021C421.79 253.623 421.606 252.464 421.385 251.544C422.084 251.802 423.188 252.041 424.696 252.262C426.204 252.482 427.933 252.685 429.883 252.869C431.832 253.053 433.892 253.2 436.063 253.31C438.27 253.42 440.422 253.476 442.518 253.476C444.652 253.476 446.804 253.42 448.974 253.31C451.181 253.2 453.241 253.053 455.154 252.869C457.104 252.685 458.814 252.482 460.286 252.262C461.757 252.041 462.86 251.802 463.596 251.544C463.375 252.464 463.173 253.623 462.989 255.021C462.842 256.418 462.769 257.798 462.769 259.159C462.769 260.446 462.86 261.679 463.044 262.856C463.228 263.996 463.412 265.008 463.596 265.891H462.437C461.113 265.891 459.899 265.983 458.796 266.166C457.692 266.35 456.754 266.718 455.982 267.27C455.209 267.785 454.602 268.502 454.161 269.422C453.756 270.342 453.554 271.537 453.554 273.008C453.554 276.393 453.646 279.188 453.83 281.395C454.05 283.603 454.345 285.368 454.713 286.692C455.117 288.017 455.577 288.955 456.092 289.507C456.644 290.058 457.251 290.371 457.913 290.445C457.288 290.776 456.736 291.291 456.258 291.99C455.779 292.688 455.375 293.792 455.044 295.3C454.749 296.808 454.51 298.813 454.326 301.315C454.179 303.816 454.106 307.035 454.106 310.971C454.106 313.619 454.216 316.047 454.437 318.254C454.657 320.424 454.915 322.356 455.209 324.048C455.54 325.703 455.89 327.119 456.258 328.296C456.625 329.437 456.956 330.338 457.251 331C456.331 330.706 455.301 330.467 454.161 330.283C453.021 330.099 451.862 329.97 450.685 329.896C449.508 329.786 448.367 329.713 447.264 329.676C446.16 329.639 445.204 329.621 444.394 329.621C443.512 329.621 442.518 329.639 441.415 329.676C440.311 329.713 439.171 329.786 437.994 329.896C436.854 329.97 435.695 330.099 434.518 330.283C433.341 330.467 432.255 330.706 431.262 331C431.262 329.161 430.729 326.972 429.662 324.434C428.632 321.896 427.253 319.229 425.524 316.433C423.832 313.637 421.9 310.805 419.73 307.936C417.597 305.067 415.426 302.363 413.219 299.825C411.049 297.25 408.952 294.951 406.929 292.928C404.906 290.868 403.177 289.267 401.742 288.127C401.043 289.782 400.584 292.376 400.363 295.907C400.142 299.438 400.032 303.65 400.032 308.543C400.032 310.125 400.197 311.449 400.528 312.516C400.896 313.546 401.485 314.373 402.294 314.999C403.103 315.587 404.133 316.01 405.384 316.268C406.671 316.525 408.235 316.654 410.074 316.654C409.89 317.537 409.706 318.603 409.522 319.854C409.338 321.068 409.246 322.319 409.246 323.606C409.246 325.004 409.32 326.365 409.467 327.689C409.651 328.977 409.853 330.08 410.074 331C409.007 330.779 407.665 330.595 406.046 330.448C404.428 330.264 402.662 330.117 400.749 330.007C398.836 329.86 396.868 329.768 394.845 329.731C392.822 329.657 390.872 329.621 388.996 329.621C387.12 329.621 385.152 329.657 383.092 329.731C381.069 329.768 379.101 329.86 377.188 330.007C375.275 330.117 373.491 330.264 371.836 330.448C370.218 330.595 368.893 330.779 367.863 331ZM492.288 331C492.509 330.08 492.693 328.977 492.84 327.689C493.024 326.365 493.116 325.004 493.116 323.606C493.116 322.319 493.024 321.068 492.84 319.854C492.656 318.603 492.472 317.537 492.288 316.654C493.944 316.654 495.397 316.525 496.647 316.268C497.898 316.01 498.947 315.587 499.793 314.999C500.639 314.373 501.264 313.546 501.669 312.516C502.11 311.449 502.331 310.125 502.331 308.543C502.331 306.704 502.055 304.901 501.503 303.135C500.951 301.37 500.068 299.714 498.855 298.169C497.641 296.588 496.059 295.153 494.109 293.866C492.197 292.541 489.861 291.401 487.102 290.445C487.617 290.261 487.966 289.911 488.15 289.396C488.371 288.844 488.481 288.182 488.481 287.41C488.481 285.975 488.279 284.541 487.874 283.106C487.47 281.635 486.789 280.163 485.833 278.692C484.876 277.184 483.589 275.657 481.97 274.112C480.352 272.53 478.31 270.912 475.846 269.256C475.367 268.925 474.705 268.576 473.859 268.208C473.05 267.803 472.167 267.436 471.211 267.104C470.254 266.773 469.298 266.498 468.341 266.277C467.385 266.019 466.539 265.891 465.803 265.891C465.987 265.008 466.116 263.996 466.19 262.856C466.3 261.679 466.355 260.428 466.355 259.104C466.355 257.669 466.3 256.29 466.19 254.965C466.116 253.604 465.987 252.464 465.803 251.544C467.164 251.765 468.746 251.986 470.549 252.207C472.388 252.427 474.337 252.648 476.397 252.869C478.457 253.053 480.591 253.2 482.798 253.31C485.042 253.42 487.286 253.476 489.53 253.476C491.81 253.476 494.054 253.439 496.261 253.365C498.468 253.292 500.565 253.181 502.551 253.034C504.575 252.85 506.451 252.648 508.18 252.427C509.945 252.17 511.509 251.875 512.87 251.544C512.759 252.17 512.649 253.163 512.539 254.524C512.465 255.848 512.428 257.338 512.428 258.993C512.428 259.656 512.428 260.354 512.428 261.09C512.465 261.826 512.502 262.525 512.539 263.187C512.575 263.812 512.612 264.364 512.649 264.842C512.723 265.32 512.796 265.67 512.87 265.891C511.656 265.891 510.479 265.927 509.338 266.001C508.198 266.075 507.205 266.258 506.359 266.553C505.513 266.847 504.832 267.288 504.317 267.877C503.802 268.429 503.545 269.22 503.545 270.25C503.545 271.316 504.041 272.604 505.034 274.112C506.028 275.583 507.223 277.202 508.621 278.968C510.019 280.733 511.49 282.591 513.035 284.541C514.58 286.453 515.904 288.366 517.008 290.279C518.259 288.513 519.693 286.674 521.312 284.761C522.93 282.848 524.457 280.991 525.892 279.188C527.326 277.349 528.54 275.639 529.533 274.057C530.526 272.475 531.023 271.114 531.023 269.974C531.023 268.944 530.729 268.153 530.14 267.601C529.552 267.049 528.798 266.645 527.878 266.387C526.958 266.13 525.928 265.983 524.788 265.946C523.648 265.909 522.507 265.891 521.367 265.891C521.404 265.67 521.441 265.32 521.477 264.842C521.551 264.327 521.606 263.757 521.643 263.132C521.68 262.506 521.716 261.844 521.753 261.145C521.79 260.41 521.808 259.692 521.808 258.993C521.808 257.338 521.753 255.848 521.643 254.524C521.569 253.163 521.477 252.17 521.367 251.544C524.494 252.243 527.676 252.74 530.913 253.034C534.187 253.329 537.497 253.476 540.845 253.476C544.302 253.476 547.631 253.329 550.832 253.034C554.069 252.74 557.177 252.243 560.157 251.544C559.936 252.464 559.789 253.604 559.715 254.965C559.642 256.29 559.605 257.669 559.605 259.104C559.605 260.428 559.642 261.679 559.715 262.856C559.826 263.996 559.973 265.008 560.157 265.891C559.642 265.891 558.961 266.001 558.115 266.222C557.306 266.442 556.441 266.737 555.522 267.104C554.602 267.472 553.683 267.895 552.763 268.374C551.843 268.852 551.034 269.348 550.335 269.863C548.459 271.224 546.749 272.641 545.204 274.112C543.695 275.547 542.39 277.018 541.286 278.526C540.219 280.034 539.373 281.543 538.748 283.051C538.159 284.522 537.865 285.975 537.865 287.41C537.865 288.035 537.957 288.66 538.141 289.286C538.325 289.911 538.638 290.297 539.079 290.445C536.651 290.812 534.518 291.64 532.678 292.928C530.839 294.178 529.313 295.668 528.099 297.397C526.885 299.126 525.965 300.983 525.34 302.97C524.751 304.919 524.457 306.777 524.457 308.543C524.457 310.125 524.622 311.449 524.954 312.516C525.321 313.546 525.91 314.373 526.719 314.999C527.528 315.587 528.558 316.01 529.809 316.268C531.097 316.525 532.66 316.654 534.499 316.654C534.315 317.537 534.131 318.603 533.947 319.854C533.764 321.068 533.672 322.319 533.672 323.606C533.672 325.004 533.745 326.365 533.892 327.689C534.076 328.977 534.279 330.08 534.499 331C533.432 330.779 532.09 330.595 530.471 330.448C528.853 330.264 527.087 330.117 525.174 330.007C523.261 329.86 521.293 329.768 519.27 329.731C517.247 329.657 515.297 329.621 513.421 329.621C511.545 329.621 509.577 329.657 507.517 329.731C505.494 329.768 503.526 329.86 501.613 330.007C499.701 330.117 497.917 330.264 496.261 330.448C494.643 330.595 493.318 330.779 492.288 331Z" fill="black"/>
<path d="M633.377 331C633.598 330.08 633.782 328.977 633.929 327.689C634.113 326.365 634.205 325.004 634.205 323.606C634.205 322.319 634.113 321.068 633.929 319.854C633.745 318.603 633.561 317.537 633.377 316.654C635.915 316.654 638.031 316.525 639.723 316.268C641.415 316.01 642.776 315.587 643.806 314.999C644.873 314.373 645.627 313.546 646.068 312.516C646.51 311.449 646.73 310.125 646.73 308.543C646.73 305.453 646.638 302.804 646.454 300.597C646.307 298.39 646.068 296.569 645.737 295.135C645.443 293.7 645.057 292.615 644.578 291.879C644.1 291.107 643.548 290.628 642.923 290.445C643.585 290.224 644.155 289.838 644.634 289.286C645.112 288.697 645.498 287.759 645.792 286.472C646.123 285.184 646.362 283.474 646.51 281.34C646.657 279.17 646.73 276.393 646.73 273.008C646.73 270.949 646.638 269.348 646.454 268.208C646.307 267.068 646.142 266.111 645.958 265.339C644.597 264.934 643.125 264.658 641.544 264.511C639.999 264.327 638.766 264.235 637.847 264.235C634.573 264.235 632.163 265.063 630.618 266.718C629.11 268.374 628.356 270.93 628.356 274.388C628.356 276.338 628.485 278.287 628.742 280.237C629.037 282.15 629.386 283.713 629.791 284.927C628.246 284.412 626.719 284.062 625.211 283.878C623.703 283.658 622.103 283.547 620.411 283.547C618.387 283.547 616.475 283.676 614.672 283.934C612.87 284.191 611.38 284.522 610.203 284.927C610.313 284.375 610.442 283.511 610.589 282.333C610.773 281.156 610.92 279.777 611.03 278.195C611.178 276.577 611.306 274.829 611.417 272.953C611.527 271.04 611.582 269.109 611.582 267.16C611.582 264.033 611.435 261.09 611.141 258.331C610.846 255.572 610.534 253.31 610.203 251.544C610.828 251.728 611.785 251.912 613.072 252.096C614.396 252.243 615.904 252.39 617.597 252.538C619.289 252.685 621.091 252.814 623.004 252.924C624.917 253.034 626.793 253.145 628.632 253.255C630.508 253.329 632.255 253.384 633.874 253.42C635.492 253.457 636.853 253.476 637.957 253.476C639.943 253.476 642.022 253.439 644.192 253.365C646.362 253.255 648.386 253.126 650.262 252.979C652.138 252.795 653.756 252.593 655.117 252.372C656.515 252.115 657.416 251.839 657.821 251.544C658.226 251.839 659.108 252.115 660.469 252.372C661.867 252.593 663.504 252.795 665.38 252.979C667.256 253.126 669.261 253.255 671.395 253.365C673.565 253.439 675.643 253.476 677.63 253.476C678.733 253.476 680.094 253.457 681.713 253.42C683.331 253.384 685.06 253.329 686.899 253.255C688.775 253.145 690.67 253.034 692.583 252.924C694.496 252.814 696.298 252.685 697.99 252.538C699.682 252.39 701.172 252.243 702.459 252.096C703.784 251.912 704.759 251.728 705.384 251.544C705.237 252.39 705.071 253.402 704.887 254.579C704.74 255.72 704.593 256.97 704.446 258.331C704.336 259.692 704.225 261.127 704.115 262.635C704.041 264.107 704.004 265.615 704.004 267.16C704.004 269.109 704.06 271.04 704.17 272.953C704.28 274.829 704.391 276.577 704.501 278.195C704.648 279.777 704.795 281.156 704.942 282.333C705.126 283.511 705.274 284.375 705.384 284.927C704.207 284.522 702.717 284.191 700.915 283.934C699.112 283.676 697.199 283.547 695.176 283.547C693.484 283.547 691.884 283.658 690.376 283.878C688.867 284.062 687.341 284.412 685.796 284.927C686.201 283.713 686.532 282.15 686.789 280.237C687.083 278.287 687.231 276.338 687.231 274.388C687.231 270.93 686.458 268.374 684.913 266.718C683.405 265.063 681.014 264.235 677.74 264.235C676.82 264.235 675.57 264.327 673.988 264.511C672.443 264.658 670.99 264.934 669.629 265.339C669.445 266.111 669.261 267.068 669.077 268.208C668.93 269.348 668.856 270.949 668.856 273.008C668.856 276.393 668.93 279.17 669.077 281.34C669.224 283.474 669.445 285.184 669.739 286.472C670.07 287.759 670.475 288.697 670.953 289.286C671.431 289.838 672.002 290.224 672.664 290.445C672.038 290.628 671.487 291.107 671.008 291.879C670.53 292.615 670.125 293.7 669.794 295.135C669.5 296.569 669.261 298.39 669.077 300.597C668.93 302.804 668.856 305.453 668.856 308.543C668.856 310.125 669.059 311.449 669.463 312.516C669.905 313.546 670.659 314.373 671.726 314.999C672.792 315.587 674.209 316.01 675.974 316.268C677.777 316.525 680.039 316.654 682.761 316.654C682.577 317.537 682.393 318.603 682.209 319.854C682.025 321.068 681.933 322.319 681.933 323.606C681.933 325.004 682.007 326.365 682.154 327.689C682.301 328.977 682.504 330.08 682.761 331C681.658 330.779 680.113 330.595 678.126 330.448C676.14 330.264 673.97 330.117 671.615 330.007C669.261 329.86 666.87 329.768 664.442 329.731C662.014 329.657 659.807 329.621 657.821 329.621C655.835 329.621 653.646 329.657 651.255 329.731C648.901 329.768 646.565 329.86 644.247 330.007C641.967 330.117 639.851 330.264 637.902 330.448C635.989 330.595 634.481 330.779 633.377 331ZM713.329 331C713.55 330.08 713.734 328.977 713.881 327.689C714.065 326.365 714.157 325.004 714.157 323.606C714.157 322.319 714.065 321.068 713.881 319.854C713.697 318.603 713.513 317.537 713.329 316.654C715.169 316.654 716.714 316.525 717.964 316.268C719.252 316.01 720.3 315.587 721.109 314.999C721.919 314.373 722.489 313.546 722.82 312.516C723.188 311.449 723.372 310.125 723.372 308.543C723.372 305.453 723.28 302.804 723.096 300.597C722.949 298.39 722.71 296.569 722.379 295.135C722.084 293.7 721.698 292.615 721.22 291.879C720.742 291.107 720.19 290.628 719.565 290.445C720.227 290.224 720.797 289.838 721.275 289.286C721.753 288.697 722.139 287.759 722.434 286.472C722.765 285.184 723.004 283.474 723.151 281.34C723.298 279.17 723.372 276.393 723.372 273.008C723.372 271.537 723.151 270.342 722.71 269.422C722.305 268.502 721.716 267.785 720.944 267.27C720.171 266.718 719.233 266.35 718.13 266.166C717.026 265.983 715.794 265.891 714.433 265.891H713.329C713.513 265.008 713.697 263.996 713.881 262.856C714.065 261.679 714.157 260.446 714.157 259.159C714.157 257.798 714.065 256.418 713.881 255.021C713.734 253.623 713.55 252.464 713.329 251.544C714.028 251.802 715.114 252.041 716.585 252.262C718.093 252.482 719.804 252.685 721.716 252.869C723.666 253.053 725.744 253.2 727.951 253.31C730.159 253.42 732.311 253.476 734.407 253.476C736.504 253.476 738.638 253.42 740.808 253.31C743.015 253.2 745.075 253.053 746.988 252.869C748.937 252.685 750.666 252.482 752.174 252.262C753.683 252.041 754.805 251.802 755.54 251.544C755.32 252.464 755.117 253.623 754.933 255.021C754.786 256.418 754.713 257.798 754.713 259.159C754.713 260.446 754.805 261.679 754.988 262.856C755.172 263.996 755.356 265.008 755.54 265.891H754.492C753.241 265.891 752.064 265.983 750.96 266.166C749.894 266.35 748.956 266.718 748.146 267.27C747.337 267.785 746.693 268.502 746.215 269.422C745.737 270.342 745.498 271.537 745.498 273.008C745.498 275.547 745.535 277.699 745.608 279.464C745.682 281.23 745.811 282.756 745.995 284.044C748.091 284.449 750.482 284.743 753.168 284.927C755.853 285.111 758.63 285.203 761.499 285.203C764.369 285.203 767.127 285.111 769.776 284.927C772.461 284.706 774.852 284.393 776.949 283.989C777.133 282.701 777.262 281.175 777.335 279.409C777.409 277.607 777.446 275.473 777.446 273.008C777.446 271.537 777.225 270.342 776.784 269.422C776.379 268.502 775.79 267.785 775.018 267.27C774.245 266.718 773.307 266.35 772.204 266.166C771.1 265.983 769.868 265.891 768.507 265.891H767.403C767.587 265.008 767.771 263.996 767.955 262.856C768.139 261.679 768.231 260.446 768.231 259.159C768.231 257.798 768.139 256.418 767.955 255.021C767.808 253.623 767.624 252.464 767.403 251.544C768.102 251.802 769.187 252.041 770.659 252.262C772.167 252.482 773.878 252.685 775.79 252.869C777.74 253.053 779.818 253.2 782.025 253.31C784.233 253.42 786.384 253.476 788.481 253.476C790.578 253.476 792.711 253.42 794.882 253.31C797.089 253.2 799.149 253.053 801.062 252.869C803.011 252.685 804.74 252.482 806.248 252.262C807.757 252.041 808.878 251.802 809.614 251.544C809.393 252.464 809.191 253.623 809.007 255.021C808.86 256.418 808.786 257.798 808.786 259.159C808.786 260.446 808.878 261.679 809.062 262.856C809.246 263.996 809.43 265.008 809.614 265.891H808.566C807.315 265.891 806.138 265.983 805.034 266.166C803.968 266.35 803.03 266.718 802.22 267.27C801.411 267.785 800.767 268.502 800.289 269.422C799.811 270.342 799.572 271.537 799.572 273.008C799.572 276.393 799.645 279.17 799.793 281.34C799.94 283.474 800.16 285.184 800.455 286.472C800.786 287.759 801.19 288.697 801.669 289.286C802.147 289.838 802.717 290.224 803.379 290.445C802.754 290.628 802.202 291.107 801.724 291.879C801.246 292.615 800.841 293.7 800.51 295.135C800.216 296.569 799.976 298.39 799.793 300.597C799.645 302.804 799.572 305.453 799.572 308.543C799.572 310.125 799.774 311.449 800.179 312.516C800.62 313.546 801.264 314.373 802.11 314.999C802.956 315.587 804.004 316.01 805.255 316.268C806.506 316.525 807.959 316.654 809.614 316.654C809.43 317.537 809.246 318.603 809.062 319.854C808.878 321.068 808.786 322.319 808.786 323.606C808.786 325.004 808.86 326.365 809.007 327.689C809.191 328.977 809.393 330.08 809.614 331C808.547 330.779 807.205 330.595 805.586 330.448C803.968 330.264 802.202 330.117 800.289 330.007C798.376 329.86 796.39 329.768 794.33 329.731C792.307 329.657 790.357 329.621 788.481 329.621C786.605 329.621 784.637 329.657 782.577 329.731C780.554 329.768 778.586 329.86 776.673 330.007C774.76 330.117 772.995 330.264 771.376 330.448C769.758 330.595 768.433 330.779 767.403 331C767.624 330.08 767.808 328.977 767.955 327.689C768.139 326.365 768.231 325.004 768.231 323.606C768.231 322.319 768.139 321.068 767.955 319.854C767.771 318.603 767.587 317.537 767.403 316.654C769.243 316.654 770.788 316.525 772.038 316.268C773.326 316.01 774.374 315.587 775.183 314.999C775.993 314.373 776.563 313.546 776.894 312.516C777.262 311.449 777.446 310.125 777.446 308.543C777.446 304.165 777.28 300.616 776.949 297.894C774.852 297.452 772.48 297.121 769.831 296.9C767.183 296.643 764.405 296.514 761.499 296.514C758.741 296.514 756 296.624 753.278 296.845C750.556 297.066 748.128 297.379 745.995 297.783C745.663 300.505 745.498 304.092 745.498 308.543C745.498 310.125 745.7 311.449 746.105 312.516C746.546 313.546 747.19 314.373 748.036 314.999C748.882 315.587 749.931 316.01 751.181 316.268C752.432 316.525 753.885 316.654 755.54 316.654C755.356 317.537 755.172 318.603 754.988 319.854C754.805 321.068 754.713 322.319 754.713 323.606C754.713 325.004 754.786 326.365 754.933 327.689C755.117 328.977 755.32 330.08 755.54 331C754.473 330.779 753.131 330.595 751.512 330.448C749.894 330.264 748.128 330.117 746.215 330.007C744.302 329.86 742.316 329.768 740.256 329.731C738.233 329.657 736.283 329.621 734.407 329.621C732.531 329.621 730.563 329.657 728.503 329.731C726.48 329.768 724.512 329.86 722.599 330.007C720.686 330.117 718.921 330.264 717.302 330.448C715.684 330.595 714.359 330.779 713.329 331ZM813.808 331C814.028 330.08 814.194 328.958 814.304 327.634C814.415 326.273 814.47 324.875 814.47 323.441C814.47 322.116 814.415 320.884 814.304 319.744C814.231 318.567 814.102 317.537 813.918 316.654C815.794 316.58 817.394 316.249 818.718 315.661C820.043 315.035 821.128 314.355 821.974 313.619C822.857 312.258 823.758 310.731 824.678 309.039C825.597 307.347 826.425 305.618 827.161 303.853C827.933 302.05 828.558 300.266 829.037 298.5C829.515 296.698 829.754 295.024 829.754 293.479C829.754 292.854 829.662 292.229 829.478 291.603C829.294 290.978 828.981 290.592 828.54 290.445C829.644 290.15 830.747 289.341 831.851 288.017C832.954 286.692 834.021 285.056 835.051 283.106C836.081 281.156 837.037 278.986 837.92 276.595C838.803 274.204 839.576 271.795 840.238 269.367C840.9 266.902 841.415 264.511 841.783 262.194C842.15 259.876 842.334 257.816 842.334 256.014C842.334 255.388 842.298 254.782 842.224 254.193C842.15 253.604 842.114 253.108 842.114 252.703C842.114 252.519 842.114 252.354 842.114 252.207C842.15 252.059 842.169 251.839 842.169 251.544C843.015 251.875 844.063 252.17 845.314 252.427C846.601 252.648 848.036 252.85 849.618 253.034C851.2 253.181 852.892 253.292 854.694 253.365C856.497 253.439 858.373 253.476 860.322 253.476C862.014 253.476 863.743 253.439 865.509 253.365C867.275 253.292 868.985 253.181 870.64 253.034C872.296 252.85 873.841 252.648 875.275 252.427C876.71 252.17 877.905 251.875 878.862 251.544V251.765V252.262C878.862 252.666 878.807 253.181 878.696 253.807C878.623 254.395 878.586 255.057 878.586 255.793C878.586 257.485 878.733 259.472 879.027 261.752C879.358 264.033 879.8 266.406 880.352 268.87C880.903 271.298 881.566 273.726 882.338 276.154C883.147 278.545 884.03 280.752 884.987 282.775C885.943 284.761 886.973 286.453 888.077 287.851C889.18 289.212 890.339 290.077 891.553 290.445C891.038 290.628 890.67 290.996 890.449 291.548C890.265 292.063 890.173 292.707 890.173 293.479C890.173 295.024 890.394 296.698 890.835 298.5C891.314 300.266 891.921 302.05 892.656 303.853C893.429 305.618 894.256 307.329 895.139 308.984C896.059 310.64 896.96 312.129 897.843 313.454C898.395 313.785 899.057 314.134 899.829 314.502C900.602 314.87 901.411 315.219 902.257 315.55C903.103 315.881 903.949 316.157 904.795 316.378C905.641 316.562 906.432 316.654 907.168 316.654C906.984 317.537 906.837 318.567 906.727 319.744C906.653 320.884 906.616 322.116 906.616 323.441C906.616 324.875 906.671 326.273 906.782 327.634C906.892 328.958 907.058 330.08 907.278 331C905.954 330.853 904.427 330.706 902.699 330.559C900.97 330.375 899.112 330.228 897.126 330.117C895.139 329.97 893.079 329.86 890.946 329.786C888.812 329.676 886.679 329.621 884.545 329.621C880.646 329.621 876.931 329.749 873.399 330.007C869.905 330.228 866.944 330.559 864.516 331C864.626 330.375 864.718 329.4 864.792 328.076C864.902 326.715 864.957 325.206 864.957 323.551C864.957 322.852 864.939 322.153 864.902 321.454C864.865 320.719 864.828 320.038 864.792 319.413C864.755 318.787 864.7 318.236 864.626 317.757C864.589 317.242 864.553 316.875 864.516 316.654C865.178 316.654 865.877 316.635 866.612 316.599C867.348 316.525 868.065 316.415 868.764 316.268C869.5 316.12 870.199 315.918 870.861 315.661C871.523 315.403 872.112 315.054 872.627 314.612C872.553 313.141 872.314 311.89 871.91 310.86C871.505 309.793 870.732 308.911 869.592 308.212C868.489 307.513 866.925 306.998 864.902 306.667C862.916 306.336 860.304 306.17 857.067 306.17C854.161 306.17 851.733 306.28 849.783 306.501C847.871 306.722 846.307 307.145 845.093 307.77C843.916 308.359 843.033 309.205 842.445 310.308C841.893 311.375 841.544 312.791 841.396 314.557C841.948 314.999 842.61 315.348 843.383 315.605C844.155 315.863 844.946 316.084 845.755 316.268C846.601 316.415 847.429 316.525 848.238 316.599C849.084 316.635 849.839 316.654 850.501 316.654C850.427 316.875 850.354 317.224 850.28 317.702C850.243 318.18 850.206 318.751 850.17 319.413C850.133 320.038 850.096 320.719 850.059 321.454C850.059 322.19 850.059 322.889 850.059 323.551C850.059 325.206 850.096 326.715 850.17 328.076C850.28 329.4 850.39 330.375 850.501 331C847.705 330.485 844.873 330.136 842.003 329.952C839.134 329.731 836.21 329.621 833.23 329.621C829.772 329.621 826.406 329.731 823.133 329.952C819.896 330.136 816.787 330.485 813.808 331ZM849.121 290.003C849.121 291.07 849.232 291.953 849.452 292.652C849.71 293.351 850.133 293.902 850.721 294.307C851.347 294.712 852.174 295.006 853.204 295.19C854.271 295.337 855.614 295.411 857.232 295.411C858.851 295.411 860.175 295.337 861.205 295.19C862.272 295.006 863.1 294.712 863.688 294.307C864.313 293.902 864.736 293.351 864.957 292.652C865.215 291.953 865.343 291.07 865.343 290.003C865.343 288.716 865.012 287.134 864.35 285.258C863.688 283.382 862.916 281.414 862.033 279.354C861.15 277.294 860.249 275.234 859.329 273.174C858.409 271.114 857.711 269.256 857.232 267.601C856.681 269.256 855.945 271.114 855.025 273.174C854.106 275.234 853.204 277.294 852.322 279.354C851.475 281.414 850.721 283.382 850.059 285.258C849.434 287.134 849.121 288.716 849.121 290.003ZM913.127 331C913.348 330.08 913.532 328.977 913.679 327.689C913.863 326.365 913.955 325.004 913.955 323.606C913.955 322.319 913.863 321.068 913.679 319.854C913.495 318.603 913.311 317.537 913.127 316.654C914.782 316.654 916.235 316.525 917.486 316.268C918.737 316.01 919.785 315.587 920.631 314.999C921.477 314.373 922.103 313.546 922.507 312.516C922.949 311.449 923.169 310.125 923.169 308.543C923.169 305.195 923.077 302.4 922.893 300.156C922.746 297.912 922.507 296.109 922.176 294.748C921.882 293.351 921.496 292.339 921.017 291.714C920.539 291.052 919.987 290.628 919.362 290.445C920.024 290.224 920.594 289.838 921.073 289.286C921.551 288.697 921.937 287.759 922.231 286.472C922.562 285.184 922.802 283.474 922.949 281.34C923.096 279.17 923.169 276.393 923.169 273.008C923.169 271.537 922.93 270.342 922.452 269.422C921.974 268.502 921.33 267.785 920.521 267.27C919.712 266.718 918.755 266.35 917.652 266.166C916.585 265.983 915.426 265.891 914.175 265.891H913.127C913.311 265.008 913.495 263.996 913.679 262.856C913.863 261.679 913.955 260.446 913.955 259.159C913.955 257.798 913.863 256.418 913.679 255.021C913.532 253.623 913.348 252.464 913.127 251.544C914.562 252.059 916.603 252.519 919.252 252.924C921.9 253.292 925.34 253.476 929.57 253.476C932.329 253.476 935.014 253.329 937.626 253.034C940.238 252.703 942.647 252.335 944.854 251.931C944.854 253.696 945.222 255.701 945.958 257.945C946.693 260.189 947.687 262.543 948.937 265.008C950.188 267.472 951.604 269.992 953.186 272.567C954.804 275.105 956.478 277.57 958.207 279.961C959.973 282.352 961.72 284.614 963.449 286.748C965.215 288.844 966.852 290.684 968.36 292.265C969.905 293.81 971.247 295.043 972.388 295.962C973.528 296.882 974.374 297.342 974.926 297.342H975.036C975.073 297.342 975.11 297.36 975.147 297.397C975.22 297.397 975.294 297.397 975.367 297.397C975.662 296.293 975.882 294.896 976.029 293.203C976.213 291.511 976.342 289.599 976.416 287.465C976.526 285.331 976.6 283.051 976.636 280.623C976.673 278.158 976.692 275.62 976.692 273.008C976.692 271.537 976.452 270.342 975.974 269.422C975.496 268.502 974.852 267.785 974.043 267.27C973.234 266.718 972.277 266.35 971.174 266.166C970.107 265.983 968.948 265.891 967.698 265.891H966.649C966.833 265.008 967.017 263.996 967.201 262.856C967.385 261.679 967.477 260.446 967.477 259.159C967.477 257.798 967.385 256.418 967.201 255.021C967.054 253.623 966.87 252.464 966.649 251.544C967.348 251.802 968.452 252.041 969.96 252.262C971.468 252.482 973.197 252.685 975.147 252.869C977.096 253.053 979.156 253.2 981.326 253.31C983.534 253.42 985.685 253.476 987.782 253.476C989.916 253.476 992.068 253.42 994.238 253.31C996.445 253.2 998.505 253.053 1000.42 252.869C1002.37 252.685 1004.08 252.482 1005.55 252.262C1007.02 252.041 1008.12 251.802 1008.86 251.544C1008.64 252.464 1008.44 253.623 1008.25 255.021C1008.11 256.418 1008.03 257.798 1008.03 259.159C1008.03 260.446 1008.12 261.679 1008.31 262.856C1008.49 263.996 1008.68 265.008 1008.86 265.891H1007.7C1006.38 265.891 1005.16 265.983 1004.06 266.166C1002.96 266.35 1002.02 266.718 1001.25 267.27C1000.47 267.785 999.866 268.502 999.425 269.422C999.02 270.342 998.818 271.537 998.818 273.008C998.818 276.393 998.91 279.188 999.094 281.395C999.314 283.603 999.609 285.368 999.976 286.692C1000.38 288.017 1000.84 288.955 1001.36 289.507C1001.91 290.058 1002.51 290.371 1003.18 290.445C1002.55 290.776 1002 291.291 1001.52 291.99C1001.04 292.688 1000.64 293.792 1000.31 295.3C1000.01 296.808 999.774 298.813 999.59 301.315C999.443 303.816 999.369 307.035 999.369 310.971C999.369 313.619 999.48 316.047 999.701 318.254C999.921 320.424 1000.18 322.356 1000.47 324.048C1000.8 325.703 1001.15 327.119 1001.52 328.296C1001.89 329.437 1002.22 330.338 1002.51 331C1001.59 330.706 1000.56 330.467 999.425 330.283C998.284 330.099 997.126 329.97 995.948 329.896C994.771 329.786 993.631 329.713 992.527 329.676C991.424 329.639 990.467 329.621 989.658 329.621C988.775 329.621 987.782 329.639 986.679 329.676C985.575 329.713 984.435 329.786 983.258 329.896C982.117 329.97 980.959 330.099 979.781 330.283C978.604 330.467 977.519 330.706 976.526 331C976.526 329.161 975.993 326.972 974.926 324.434C973.896 321.896 972.516 319.229 970.788 316.433C969.095 313.637 967.164 310.805 964.994 307.936C962.86 305.067 960.69 302.363 958.483 299.825C956.313 297.25 954.216 294.951 952.193 292.928C950.17 290.868 948.441 289.267 947.006 288.127C946.307 289.782 945.847 292.376 945.627 295.907C945.406 299.438 945.296 303.65 945.296 308.543C945.296 310.125 945.461 311.449 945.792 312.516C946.16 313.546 946.749 314.373 947.558 314.999C948.367 315.587 949.397 316.01 950.648 316.268C951.935 316.525 953.499 316.654 955.338 316.654C955.154 317.537 954.97 318.603 954.786 319.854C954.602 321.068 954.51 322.319 954.51 323.606C954.51 325.004 954.584 326.365 954.731 327.689C954.915 328.977 955.117 330.08 955.338 331C954.271 330.779 952.928 330.595 951.31 330.448C949.691 330.264 947.926 330.117 946.013 330.007C944.1 329.86 942.132 329.768 940.109 329.731C938.086 329.657 936.136 329.621 934.26 329.621C932.384 329.621 930.416 329.657 928.356 329.731C926.333 329.768 924.365 329.86 922.452 330.007C920.539 330.117 918.755 330.264 917.1 330.448C915.481 330.595 914.157 330.779 913.127 331ZM1016.64 331C1016.86 330.08 1017.04 328.977 1017.19 327.689C1017.38 326.365 1017.47 325.004 1017.47 323.606C1017.47 322.319 1017.38 321.068 1017.19 319.854C1017.01 318.603 1016.82 317.537 1016.64 316.654C1018.3 316.654 1019.75 316.525 1021 316.268C1022.25 316.01 1023.3 315.587 1024.14 314.999C1024.99 314.373 1025.62 313.546 1026.02 312.516C1026.46 311.449 1026.68 310.125 1026.68 308.543C1026.68 305.453 1026.59 302.804 1026.41 300.597C1026.26 298.39 1026.02 296.569 1025.69 295.135C1025.39 293.7 1025.01 292.615 1024.53 291.879C1024.05 291.107 1023.5 290.628 1022.88 290.445C1023.54 290.224 1024.11 289.838 1024.59 289.286C1025.06 288.697 1025.45 287.759 1025.74 286.472C1026.08 285.184 1026.31 283.474 1026.46 281.34C1026.61 279.17 1026.68 276.393 1026.68 273.008C1026.68 271.537 1026.44 270.342 1025.97 269.422C1025.49 268.502 1024.84 267.785 1024.03 267.27C1023.22 266.718 1022.27 266.35 1021.16 266.166C1020.1 265.983 1018.94 265.891 1017.69 265.891H1016.64C1016.82 265.008 1017.01 263.996 1017.19 262.856C1017.38 261.679 1017.47 260.446 1017.47 259.159C1017.47 257.798 1017.38 256.418 1017.19 255.021C1017.04 253.623 1016.86 252.464 1016.64 251.544C1017.34 251.802 1018.44 252.041 1019.95 252.262C1021.46 252.482 1023.19 252.685 1025.14 252.869C1027.09 253.053 1029.15 253.2 1031.32 253.31C1033.52 253.42 1035.68 253.476 1037.77 253.476C1039.91 253.476 1042.06 253.42 1044.23 253.31C1046.44 253.2 1048.5 253.053 1050.41 252.869C1052.36 252.685 1054.07 252.482 1055.54 252.262C1057.01 252.041 1058.12 251.802 1058.85 251.544C1058.63 252.464 1058.43 253.623 1058.24 255.021C1058.1 256.418 1058.02 257.798 1058.02 259.159C1058.02 260.446 1058.12 261.679 1058.3 262.856C1058.48 263.996 1058.67 265.008 1058.85 265.891H1057.69C1056.37 265.891 1055.15 265.983 1054.05 266.166C1052.95 266.35 1052.01 266.718 1051.24 267.27C1050.46 267.785 1049.86 268.502 1049.42 269.422C1049.01 270.342 1048.81 271.537 1048.81 273.008C1048.81 275.657 1048.85 277.919 1048.92 279.795C1049.03 281.635 1049.18 283.198 1049.36 284.485C1050.17 284.743 1051.16 284.872 1052.34 284.872C1053 284.872 1053.68 284.872 1054.38 284.872C1055.12 284.872 1055.91 284.853 1056.75 284.816C1057.6 284.78 1058.54 284.761 1059.57 284.761C1060.63 284.724 1061.85 284.669 1063.21 284.596C1065.16 283.419 1066.93 282.094 1068.51 280.623C1070.13 279.152 1071.49 277.717 1072.59 276.319C1073.73 274.885 1074.61 273.56 1075.24 272.346C1075.86 271.132 1076.18 270.194 1076.18 269.532C1076.18 268.797 1076.07 268.19 1075.85 267.711C1075.62 267.233 1075.22 266.865 1074.63 266.608C1074.08 266.314 1073.29 266.13 1072.26 266.056C1071.23 265.946 1069.92 265.891 1068.34 265.891C1068.64 265.008 1068.84 263.904 1068.95 262.58C1069.1 261.219 1069.17 259.968 1069.17 258.828C1069.17 257.614 1069.1 256.326 1068.95 254.965C1068.8 253.604 1068.56 252.464 1068.23 251.544C1068.97 251.875 1070.09 252.17 1071.6 252.427C1073.11 252.648 1074.78 252.85 1076.62 253.034C1078.49 253.181 1080.46 253.292 1082.52 253.365C1084.58 253.439 1086.53 253.476 1088.37 253.476C1089.99 253.476 1091.7 253.42 1093.5 253.31C1095.3 253.2 1097.03 253.053 1098.69 252.869C1100.38 252.648 1101.93 252.427 1103.32 252.207C1104.72 251.986 1105.84 251.765 1106.69 251.544C1106.47 251.986 1106.3 252.538 1106.19 253.2C1106.08 253.825 1105.99 254.506 1105.92 255.241C1105.88 255.94 1105.86 256.658 1105.86 257.393C1105.86 258.129 1105.86 258.791 1105.86 259.38C1105.86 260.52 1105.92 261.679 1106.03 262.856C1106.17 263.996 1106.4 265.008 1106.69 265.891C1105.11 265.891 1103.62 266.185 1102.22 266.773C1100.82 267.325 1099.54 268.061 1098.36 268.981C1097.22 269.9 1096.19 270.967 1095.27 272.181C1094.35 273.358 1093.58 274.59 1092.95 275.878C1092.33 277.128 1091.85 278.379 1091.52 279.63C1091.18 280.844 1091.02 281.947 1091.02 282.94C1089.92 283.198 1088.79 283.566 1087.65 284.044C1086.51 284.522 1085.39 285.056 1084.29 285.644C1083.18 286.233 1082.12 286.876 1081.09 287.575C1080.06 288.274 1079.12 288.973 1078.27 289.672C1079.45 290.849 1081 291.971 1082.91 293.038C1084.82 294.105 1086.77 295.061 1088.76 295.907C1090.78 296.716 1092.67 297.379 1094.44 297.894C1096.24 298.372 1097.62 298.611 1098.58 298.611C1098.36 299.714 1098.25 300.818 1098.25 301.921C1098.25 303.871 1098.54 305.747 1099.13 307.55C1099.76 309.315 1100.6 310.879 1101.67 312.24C1102.74 313.564 1103.99 314.631 1105.42 315.44C1106.86 316.249 1108.4 316.654 1110.06 316.654C1109.76 317.537 1109.58 318.603 1109.5 319.854C1109.47 321.068 1109.45 322.319 1109.45 323.606C1109.45 325.004 1109.47 326.365 1109.5 327.689C1109.58 328.977 1109.78 330.08 1110.11 331C1109.74 330.853 1108.95 330.706 1107.74 330.559C1106.52 330.375 1105.13 330.228 1103.54 330.117C1102 329.97 1100.4 329.86 1098.74 329.786C1097.09 329.676 1095.62 329.621 1094.33 329.621C1093.45 329.621 1092.4 329.639 1091.18 329.676C1090.01 329.676 1088.74 329.694 1087.38 329.731C1086.05 329.768 1084.71 329.823 1083.35 329.896C1081.99 329.933 1080.7 330.007 1079.49 330.117C1078.31 330.228 1077.26 330.356 1076.34 330.503C1075.42 330.651 1074.74 330.816 1074.3 331C1074.71 330.228 1075 329.345 1075.18 328.351C1075.37 327.322 1075.46 326.273 1075.46 325.206C1075.46 323.477 1075.24 321.822 1074.8 320.24C1074.39 318.622 1073.82 317.426 1073.09 316.654C1074.04 316.102 1074.8 315.514 1075.35 314.888C1075.94 314.226 1076.38 313.527 1076.67 312.791C1076.97 312.056 1077.15 311.246 1077.22 310.364C1077.34 309.481 1077.39 308.543 1077.39 307.55C1077.39 306.078 1076.91 304.607 1075.96 303.135C1075 301.627 1073.75 300.303 1072.2 299.163C1070.66 297.985 1068.91 297.029 1066.96 296.293C1065.05 295.558 1063.1 295.19 1061.11 295.19C1060.63 295.19 1060.08 295.19 1059.46 295.19C1058.87 295.153 1058.21 295.135 1057.47 295.135C1056.22 295.135 1054.9 295.227 1053.5 295.411C1052.1 295.558 1050.76 295.907 1049.47 296.459C1049.03 299.291 1048.81 303.319 1048.81 308.543C1048.81 310.125 1048.97 311.449 1049.31 312.516C1049.67 313.546 1050.26 314.373 1051.07 314.999C1051.88 315.587 1052.91 316.01 1054.16 316.268C1055.45 316.525 1057.01 316.654 1058.85 316.654C1058.67 317.537 1058.48 318.603 1058.3 319.854C1058.12 321.068 1058.02 322.319 1058.02 323.606C1058.02 325.004 1058.1 326.365 1058.24 327.689C1058.43 328.977 1058.63 330.08 1058.85 331C1057.78 330.779 1056.44 330.595 1054.82 330.448C1053.2 330.264 1051.44 330.117 1049.53 330.007C1047.61 329.86 1045.65 329.768 1043.62 329.731C1041.6 329.657 1039.65 329.621 1037.77 329.621C1035.9 329.621 1033.93 329.657 1031.87 329.731C1029.85 329.768 1027.88 329.86 1025.97 330.007C1024.05 330.117 1022.27 330.264 1020.61 330.448C1018.99 330.595 1017.67 330.779 1016.64 331ZM1123.02 331C1123.1 330.706 1123.19 330.172 1123.3 329.4C1123.45 328.627 1123.57 327.726 1123.68 326.696C1123.79 325.629 1123.89 324.507 1123.96 323.33C1124.07 322.116 1124.13 320.939 1124.13 319.799C1124.13 316.746 1124 314.061 1123.74 311.743C1123.52 309.426 1123.28 307.844 1123.02 306.998C1125.12 307.329 1127.09 307.55 1128.93 307.66C1130.77 307.77 1132.57 307.825 1134.33 307.825C1137.57 307.825 1140.44 307.55 1142.94 306.998C1142.94 308.616 1143.33 310.161 1144.1 311.633C1144.87 313.067 1145.94 314.318 1147.3 315.385C1148.7 316.452 1150.35 317.298 1152.27 317.923C1154.22 318.548 1156.37 318.861 1158.72 318.861C1160.3 318.861 1161.9 318.787 1163.52 318.64C1165.14 318.456 1166.59 318.088 1167.88 317.537C1169.21 316.985 1170.27 316.194 1171.08 315.164C1171.89 314.134 1172.3 312.755 1172.3 311.026C1172.3 309.775 1171.91 308.488 1171.14 307.163C1170.4 305.802 1169.22 304.588 1167.61 303.522C1166.02 302.455 1163.96 301.572 1161.43 300.873C1158.92 300.174 1155.91 299.825 1152.38 299.825C1149.36 299.825 1146.36 299.917 1143.38 300.101C1140.44 300.248 1137.24 300.763 1133.78 301.646C1133.71 300.542 1133.3 299.328 1132.57 298.004C1131.87 296.68 1130.95 295.447 1129.81 294.307C1128.71 293.13 1127.42 292.155 1125.95 291.383C1124.51 290.573 1123.04 290.169 1121.53 290.169H1120.98C1121.42 289.985 1121.81 289.562 1122.14 288.9C1122.47 288.237 1122.73 287.428 1122.91 286.472C1123.13 285.515 1123.3 284.467 1123.41 283.327C1123.52 282.15 1123.57 280.954 1123.57 279.74C1123.57 276.687 1123.41 273.946 1123.08 271.519C1122.78 269.091 1122.34 267.362 1121.75 266.332H1122.14C1123.21 266.332 1124.38 266.056 1125.67 265.504C1126.96 264.953 1128.25 264.235 1129.53 263.352C1130.86 262.433 1132.14 261.421 1133.4 260.318C1134.65 259.177 1135.75 258.019 1136.71 256.841C1137.7 255.664 1138.51 254.524 1139.13 253.42C1139.76 252.28 1140.11 251.287 1140.18 250.441C1140.73 250.772 1141.41 251.121 1142.22 251.489C1143.07 251.82 1144.1 252.151 1145.31 252.482C1146.56 252.777 1148.04 253.016 1149.73 253.2C1151.42 253.384 1153.43 253.476 1155.74 253.476C1157.1 253.476 1158.54 253.402 1160.05 253.255C1161.59 253.108 1163.08 252.905 1164.52 252.648C1165.95 252.354 1167.29 252.023 1168.54 251.655C1169.79 251.287 1170.81 250.882 1171.58 250.441C1171.87 251.581 1172.37 252.758 1173.07 253.972C1173.77 255.149 1174.59 256.161 1175.55 257.007C1176.51 256.198 1177.21 255.278 1177.65 254.248C1178.09 253.218 1178.4 252.317 1178.59 251.544C1179.14 251.875 1179.97 252.151 1181.07 252.372C1182.17 252.556 1183.61 252.648 1185.37 252.648C1188.06 252.648 1190.56 252.28 1192.88 251.544C1192.8 251.839 1192.71 252.409 1192.6 253.255C1192.49 254.101 1192.38 255.076 1192.27 256.179C1192.16 257.283 1192.07 258.46 1191.99 259.711C1191.92 260.961 1191.88 262.157 1191.88 263.297C1191.88 266.498 1191.99 269.312 1192.21 271.739C1192.47 274.13 1192.69 275.767 1192.88 276.65C1191 276.319 1189.24 276.098 1187.58 275.988C1185.92 275.878 1184.27 275.823 1182.61 275.823C1179.38 275.823 1176.53 276.098 1174.06 276.65C1174.06 274.958 1173.68 273.358 1172.9 271.85C1172.13 270.342 1171.05 269.017 1169.65 267.877C1168.29 266.737 1166.63 265.854 1164.68 265.228C1162.77 264.566 1160.63 264.235 1158.28 264.235C1156.66 264.235 1155.04 264.364 1153.43 264.621C1151.84 264.842 1150.39 265.265 1149.07 265.891C1147.78 266.479 1146.73 267.27 1145.92 268.263C1145.11 269.256 1144.71 270.525 1144.71 272.07C1144.71 273.358 1145.02 274.609 1145.64 275.823C1146.31 277.036 1147.37 278.122 1148.85 279.078C1150.32 280.034 1152.25 280.807 1154.64 281.395C1157.07 281.984 1160.05 282.278 1163.58 282.278C1165.05 282.278 1166.65 282.278 1168.38 282.278C1170.11 282.242 1171.82 282.186 1173.51 282.113C1175.2 282.002 1176.8 281.855 1178.31 281.671C1179.82 281.487 1181.12 281.23 1182.23 280.899C1182.34 282.002 1182.8 283.253 1183.61 284.651C1184.42 286.049 1185.43 287.373 1186.64 288.624C1187.89 289.838 1189.29 290.868 1190.84 291.714C1192.38 292.523 1193.93 292.928 1195.47 292.928H1196.02C1195.58 293.111 1195.19 293.534 1194.86 294.197C1194.53 294.859 1194.26 295.668 1194.04 296.624C1193.85 297.581 1193.7 298.648 1193.59 299.825C1193.48 300.965 1193.43 302.142 1193.43 303.356C1193.43 304.864 1193.47 306.317 1193.54 307.715C1193.61 309.113 1193.72 310.4 1193.87 311.578C1194.05 312.755 1194.26 313.803 1194.48 314.723C1194.7 315.605 1194.96 316.286 1195.25 316.764H1194.86C1193.8 316.764 1192.62 317.022 1191.33 317.537C1190.04 318.052 1188.74 318.751 1187.41 319.633C1186.09 320.479 1184.8 321.454 1183.55 322.558C1182.3 323.625 1181.18 324.728 1180.19 325.868C1179.19 327.009 1178.38 328.131 1177.76 329.234C1177.17 330.301 1176.86 331.257 1176.82 332.104C1176.27 331.772 1175.57 331.46 1174.72 331.166C1173.91 330.871 1172.88 330.614 1171.63 330.393C1170.42 330.136 1168.97 329.952 1167.27 329.841C1165.58 329.694 1163.58 329.621 1161.26 329.621C1159.9 329.621 1158.5 329.676 1157.07 329.786C1155.67 329.86 1154.31 330.007 1152.98 330.228C1151.7 330.411 1150.48 330.669 1149.34 331C1148.24 331.294 1147.3 331.662 1146.53 332.104C1146.2 330.963 1145.68 329.86 1144.98 328.793C1144.32 327.726 1143.51 326.807 1142.56 326.034C1141.56 326.77 1140.84 327.597 1140.4 328.517C1140 329.4 1139.7 330.228 1139.52 331C1139.23 330.853 1138.75 330.706 1138.09 330.559C1137.46 330.375 1136.74 330.228 1135.93 330.117C1135.12 329.97 1134.26 329.86 1133.34 329.786C1132.42 329.676 1131.52 329.621 1130.64 329.621C1129.2 329.621 1127.8 329.749 1126.44 330.007C1125.08 330.264 1123.94 330.595 1123.02 331Z" fill="white"/>
</svg>
