<svg width="707" height="563" viewBox="0 0 707 563" fill="none" xmlns="http://www.w3.org/2000/svg">
<path d="M321.174 23.9179C337.809 -1.16952 374.643 -1.16952 391.278 23.9179L422.299 70.7021C433.235 87.1954 454.19 93.8333 472.628 86.645L538.352 61.0215C570.586 48.4543 603.362 78.0143 594.178 111.371L591.672 120.47C584.697 145.805 602.404 171.262 628.584 173.534L662.888 176.512C700.53 179.78 712.894 228.723 681.32 249.476V249.476C657.383 265.21 657.383 300.31 681.32 316.044V316.044C712.894 336.796 700.53 385.74 662.888 389.008L628.584 391.986C602.404 394.258 584.697 419.715 591.672 445.05L594.178 454.149C603.362 487.505 570.586 517.066 538.352 504.498L472.628 478.875C454.19 471.687 433.235 478.324 422.299 494.818L391.278 541.602C374.643 566.689 337.809 566.689 321.174 541.602L290.153 494.818C279.216 478.324 258.261 471.687 239.824 478.875L174.1 504.498C141.865 517.066 109.09 487.506 118.274 454.149L120.78 445.05C127.755 419.715 110.048 394.258 83.8681 391.986L49.5637 389.008C11.9218 385.74 -0.442249 336.796 31.1317 316.044V316.044C55.0691 300.31 55.0691 265.21 31.1317 249.476V249.476C-0.442249 228.724 11.9218 179.78 49.5636 176.512L83.868 173.534C110.048 171.262 127.755 145.805 120.78 120.47L118.274 111.371C109.09 78.0144 141.865 48.4543 174.1 61.0215L239.824 86.645C258.261 93.8333 279.216 87.1954 290.153 70.7021L321.174 23.9179Z" fill="white"/>
<path d="M323.44 41.9169C338.899 18.6022 373.131 18.6022 388.59 41.9169L417.42 85.3954C427.583 100.723 447.057 106.892 464.192 100.212L525.272 76.3988C555.229 64.7196 585.688 92.1909 577.153 123.19L574.825 131.646C568.342 155.192 584.798 178.849 609.128 180.961L641.009 183.729C675.991 186.765 687.481 232.251 658.138 251.537V251.537C635.892 266.159 635.892 298.779 658.138 313.401V313.401C687.481 332.687 675.991 378.173 641.009 381.209L609.128 383.977C584.798 386.089 568.342 409.747 574.825 433.292L577.153 441.748C585.688 472.747 555.229 500.219 525.272 488.539L464.193 464.726C447.057 458.046 427.583 464.215 417.42 479.543L388.59 523.021C373.131 546.336 338.899 546.336 323.44 523.021L294.611 479.543C284.447 464.215 264.973 458.046 247.838 464.726L186.758 488.539C156.801 500.219 126.342 472.747 134.877 441.748L137.205 433.292C143.688 409.747 127.232 386.089 102.902 383.977L71.0218 381.209C36.0397 378.173 24.5492 332.687 53.8921 313.401V313.401C76.1381 298.779 76.1381 266.159 53.8921 251.537V251.537C24.5492 232.251 36.0397 186.765 71.0217 183.729L102.902 180.961C127.232 178.849 143.688 155.192 137.205 131.646L134.877 123.19C126.342 92.1909 156.801 64.7196 186.758 76.3988L247.838 100.212C264.973 106.892 284.447 100.723 294.611 85.3954L323.44 41.9169Z" fill="#FF5E9D"/>
<path d="M243.088 110.122L252.418 113.759L252.023 114.772L256.688 116.591C257.998 117.101 259.322 117.532 260.655 117.886L260.933 116.835C263.58 117.537 266.263 117.924 268.932 118.01L268.896 119.096C271.696 119.186 274.482 118.956 277.2 118.422L276.99 117.356C279.642 116.835 282.229 116.015 284.698 114.914L285.14 115.907C287.67 114.778 290.08 113.363 292.317 111.677L291.663 110.809C293.795 109.202 295.766 107.342 297.526 105.244L298.359 105.942C299.245 104.886 300.079 103.771 300.856 102.599L303.058 99.2788L302.152 98.6783L306.556 92.0369L307.461 92.6374L311.865 85.9961L310.96 85.3956L315.363 78.7542L316.269 79.3547L320.673 72.7134L319.767 72.1129L324.171 65.4715L325.076 66.072L327.278 62.7513C328.082 61.5386 328.943 60.3975 329.853 59.3278L329.026 58.6235C330.985 56.3225 333.169 54.3391 335.517 52.6735L336.146 53.5597C338.505 51.8862 341.035 50.5434 343.669 49.5315L343.279 48.5172C346.042 47.4556 348.915 46.7473 351.825 46.3923L351.956 47.4709C354.792 47.1249 357.664 47.1249 360.5 47.4709L360.631 46.3923C363.541 46.7473 366.414 47.4556 369.177 48.5172L368.787 49.5315C371.421 50.5434 373.951 51.8862 376.31 53.5597L376.939 52.6735C379.287 54.3391 381.471 56.3224 383.43 58.6235L382.602 59.3278C383.513 60.3975 384.374 61.5386 385.178 62.7513L387.379 66.072L388.285 65.4715L392.689 72.1129L391.783 72.7133L396.187 79.3547L397.092 78.7542L401.496 85.3956L400.591 85.9961L404.994 92.6374L405.9 92.0369L410.304 98.6783L409.398 99.2788L411.6 102.599C412.376 103.771 413.211 104.886 414.097 105.942L414.93 105.244C416.69 107.342 418.66 109.202 420.793 110.809L420.139 111.677C422.376 113.363 424.786 114.778 427.316 115.907L427.758 114.914C430.227 116.015 432.813 116.835 435.466 117.356L435.256 118.422C437.974 118.956 440.759 119.186 443.559 119.096L443.524 118.01C446.193 117.924 448.875 117.537 451.522 116.835L451.801 117.886C453.134 117.532 454.458 117.101 455.767 116.591L460.432 114.772L460.038 113.759L469.368 110.122L469.762 111.134L479.092 107.497L478.698 106.485L488.028 102.847L488.422 103.86L497.752 100.222L497.357 99.2097L506.687 95.5723L507.082 96.5846L511.747 94.7659C513.279 94.1687 514.811 93.687 516.336 93.3143L516.078 92.2588C519.4 91.4472 522.698 91.1357 525.907 91.2663L525.863 92.3519C529.117 92.4842 532.277 93.0854 535.274 94.0916L535.62 93.0615C538.771 94.1197 541.745 95.6116 544.464 97.4665L543.851 98.364C546.501 100.172 548.901 102.336 550.972 104.786L551.802 104.085C553.926 106.598 555.716 109.402 557.093 112.428L556.104 112.878C557.413 115.755 558.336 118.838 558.803 122.06L559.878 121.905C560.338 125.084 560.368 128.396 559.902 131.784L558.826 131.636C558.612 133.191 558.29 134.765 557.854 136.35L557.32 138.287L558.368 138.576L557.301 142.451L556.253 142.162L555.72 144.1C555.234 145.863 554.885 147.628 554.665 149.384L555.743 149.52C555.299 153.065 555.398 156.57 555.978 159.945L554.907 160.129C555.523 163.709 556.663 167.146 558.257 170.341L559.229 169.856C560.79 172.981 562.798 175.869 565.186 178.419L564.393 179.162C566.834 181.768 569.66 184.032 572.802 185.854L573.347 184.914C576.31 186.632 579.561 187.944 583.04 188.761L582.791 189.819C584.514 190.223 586.291 190.51 588.113 190.668L591.765 190.985L591.859 189.903L599.164 190.537L599.07 191.619L606.374 192.253L606.468 191.171L613.773 191.805L613.679 192.887L617.331 193.204C619.08 193.356 620.76 193.627 622.37 194.005L622.618 192.947C626.185 193.785 629.426 195.137 632.313 196.892L631.748 197.82C634.703 199.616 637.275 201.85 639.434 204.398L640.263 203.695C642.542 206.384 644.373 209.408 645.722 212.629L644.719 213.049C646.031 216.183 646.872 219.509 647.205 222.89L648.287 222.783C648.63 226.258 648.455 229.789 647.726 233.237L646.663 233.013C645.973 236.28 644.77 239.467 643.023 242.451L643.961 243C642.253 245.916 640.043 248.645 637.303 251.076L636.582 250.263C635.345 251.36 633.994 252.396 632.528 253.36C631.301 254.167 630.144 255.032 629.059 255.949L629.761 256.779C627.565 258.634 625.673 260.705 624.084 262.934L623.199 262.303C621.497 264.69 620.132 267.25 619.103 269.915L620.117 270.306C619.104 272.932 618.427 275.664 618.089 278.431L617.01 278.298C616.659 281.166 616.659 284.07 617.01 286.937L618.089 286.805C618.427 289.572 619.104 292.303 620.117 294.929L619.103 295.32C620.132 297.985 621.497 300.546 623.199 302.933L624.084 302.302C625.673 304.53 627.565 306.602 629.761 308.457L629.059 309.286C630.144 310.203 631.301 311.068 632.528 311.875C633.995 312.839 635.345 313.875 636.582 314.972L637.303 314.16C640.043 316.591 642.253 319.319 643.961 322.235L643.023 322.784C644.77 325.768 645.973 328.956 646.663 332.222L647.726 331.998C648.455 335.447 648.63 338.978 648.287 342.452L647.205 342.346C646.872 345.727 646.031 349.053 644.719 352.187L645.722 352.606C644.373 355.827 642.542 358.852 640.263 361.54L639.434 360.838C637.275 363.385 634.703 365.619 631.748 367.415L632.313 368.343C629.426 370.099 626.185 371.45 622.618 372.288L622.37 371.23C620.76 371.609 619.08 371.879 617.331 372.031L613.679 372.348L613.773 373.431L606.468 374.065L606.374 372.982L599.07 373.616L599.164 374.699L591.859 375.333L591.765 374.25L588.113 374.567C586.291 374.726 584.514 375.012 582.791 375.416L583.04 376.474C579.561 377.291 576.31 378.603 573.347 380.321L572.802 379.381C569.66 381.203 566.834 383.467 564.393 386.074L565.186 386.817C562.798 389.366 560.79 392.254 559.229 395.38L558.257 394.894C556.663 398.089 555.523 401.527 554.907 405.106L555.978 405.29C555.398 408.666 555.299 412.171 555.743 415.716L554.665 415.851C554.885 417.607 555.234 419.372 555.72 421.135L556.254 423.073L557.301 422.785L558.368 426.66L557.32 426.948L557.854 428.886C558.29 430.471 558.612 432.044 558.826 433.6L559.902 433.452C560.368 436.839 560.338 440.152 559.878 443.331L558.803 443.175C558.336 446.398 557.413 449.48 556.104 452.357L557.093 452.807C555.716 455.833 553.926 458.638 551.802 461.151L550.972 460.449C548.901 462.899 546.501 465.063 543.851 466.871L544.464 467.769C541.745 469.624 538.771 471.116 535.62 472.174L535.274 471.144C532.277 472.15 529.117 472.751 525.863 472.883L525.907 473.969C522.698 474.1 519.4 473.788 516.078 472.977L516.336 471.921C514.811 471.548 513.279 471.067 511.747 470.469L507.082 468.651L506.687 469.663L497.357 466.026L497.752 465.013L488.422 461.376L488.028 462.388L478.698 458.751L479.092 457.738L469.762 454.101L469.368 455.113L460.038 451.476L460.432 450.464L455.767 448.645C454.458 448.134 453.134 447.703 451.801 447.35L451.522 448.4C448.875 447.698 446.193 447.312 443.524 447.225L443.559 446.139C440.759 446.049 437.974 446.279 435.256 446.813L435.466 447.879C432.813 448.401 430.227 449.22 427.758 450.321L427.316 449.329C424.786 450.457 422.376 451.872 420.139 453.558L420.793 454.426C418.66 456.033 416.69 457.893 414.93 459.992L414.097 459.293C413.211 460.35 412.376 461.465 411.6 462.636L409.398 465.957L410.304 466.557L405.9 473.198L404.994 472.598L400.591 479.239L401.496 479.84L397.092 486.481L396.187 485.881L391.783 492.522L392.689 493.122L388.285 499.764L387.379 499.163L385.178 502.484C384.374 503.697 383.513 504.838 382.602 505.908L383.43 506.612C381.471 508.913 379.287 510.896 376.939 512.562L376.31 511.676C373.951 513.349 371.421 514.692 368.787 515.704L369.177 516.718C366.414 517.78 363.541 518.488 360.631 518.843L360.5 517.764C357.664 518.11 354.792 518.11 351.956 517.764L351.825 518.843C348.915 518.488 346.042 517.78 343.279 516.718L343.669 515.704C341.035 514.692 338.505 513.349 336.146 511.676L335.517 512.562C333.169 510.896 330.985 508.913 329.026 506.612L329.853 505.908C328.943 504.838 328.082 503.697 327.278 502.484L325.076 499.163L324.171 499.764L319.767 493.122L320.673 492.522L316.269 485.881L315.363 486.481L310.96 479.84L311.865 479.239L307.461 472.598L306.556 473.198L302.152 466.557L303.058 465.957L300.856 462.636C300.079 461.465 299.245 460.35 298.359 459.293L297.526 459.992C295.766 457.893 293.795 456.033 291.663 454.426L292.317 453.558C290.08 451.872 287.67 450.457 285.14 449.329L284.698 450.321C282.229 449.22 279.642 448.401 276.99 447.879L277.2 446.813C274.482 446.279 271.696 446.049 268.897 446.139L268.932 447.225C266.263 447.312 263.58 447.698 260.933 448.4L260.655 447.35C259.322 447.703 257.998 448.134 256.688 448.645L252.023 450.464L252.418 451.476L243.088 455.113L242.693 454.101L233.363 457.738L233.758 458.751L224.428 462.388L224.034 461.376L214.704 465.013L215.098 466.026L205.768 469.663L205.374 468.651L200.709 470.469C199.177 471.067 197.645 471.548 196.12 471.921L196.378 472.977C193.056 473.788 189.758 474.1 186.549 473.969L186.593 472.883C183.339 472.751 180.178 472.15 177.182 471.144L176.836 472.174C173.684 471.116 170.71 469.624 167.992 467.769L168.605 466.871C165.955 465.063 163.555 462.899 161.484 460.449L160.654 461.151C158.529 458.638 156.739 455.833 155.363 452.807L156.352 452.357C155.043 449.48 154.119 446.398 153.653 443.175L152.578 443.331C152.118 440.152 152.088 436.839 152.554 433.452L153.63 433.6C153.844 432.044 154.165 430.471 154.602 428.886L155.135 426.948L154.088 426.66L155.155 422.785L156.202 423.073L156.736 421.135C157.221 419.372 157.571 417.607 157.791 415.851L156.713 415.716C157.157 412.171 157.058 408.666 156.478 405.29L157.548 405.106C156.933 401.527 155.793 398.089 154.199 394.894L153.226 395.38C151.666 392.254 149.658 389.366 147.27 386.816L148.063 386.074C145.622 383.467 142.796 381.203 139.654 379.381L139.109 380.321C136.146 378.603 132.894 377.291 129.416 376.474L129.665 375.416C127.941 375.012 126.165 374.726 124.343 374.567L120.691 374.25L120.597 375.333L113.292 374.699L113.386 373.616L106.081 372.982L105.987 374.065L98.6828 373.431L98.7768 372.348L95.1245 372.031C93.3759 371.879 91.6956 371.609 90.0859 371.23L89.8374 372.288C86.271 371.45 83.0303 370.099 80.143 368.343L80.7074 367.415C77.753 365.619 75.1804 363.385 73.0215 360.838L72.1926 361.54C69.9136 358.852 68.0824 355.827 66.7341 352.606L67.7364 352.187C66.4245 349.053 65.5842 345.727 65.2504 342.346L64.169 342.453C63.8259 338.978 64.0011 335.447 64.7296 331.998L65.7927 332.223C66.4829 328.956 67.6859 325.768 69.4329 322.784L68.4952 322.235C70.2025 319.319 72.4125 316.591 75.1531 314.16L75.8742 314.972C77.1111 313.875 78.4613 312.839 79.928 311.875C81.1551 311.068 82.3113 310.203 83.3963 309.286L82.6951 308.457C84.8904 306.602 86.7827 304.53 88.372 302.302L89.2566 302.933C90.9589 300.546 92.3241 297.985 93.3526 295.32L92.3389 294.929C93.3523 292.303 94.0284 289.572 94.3672 286.805L95.4458 286.937C95.7969 284.07 95.7969 281.166 95.4458 278.298L94.3672 278.431C94.0284 275.664 93.3523 272.932 92.3389 270.306L93.3526 269.915C92.3241 267.25 90.9589 264.69 89.2566 262.303L88.372 262.934C86.7827 260.705 84.8904 258.634 82.6951 256.779L83.3963 255.949C82.3113 255.032 81.1551 254.167 79.928 253.36C78.4613 252.396 77.1111 251.36 75.8742 250.263L75.1531 251.076C72.4125 248.645 70.2025 245.916 68.4952 243L69.4329 242.451C67.6859 239.467 66.4829 236.28 65.7927 233.013L64.7296 233.237C64.0011 229.789 63.8259 226.258 64.169 222.783L65.2503 222.89C65.5842 219.509 66.4244 216.183 67.7363 213.049L66.734 212.629C68.0823 209.408 69.9136 206.384 72.1926 203.695L73.0215 204.398C75.1803 201.85 77.7529 199.616 80.7074 197.82L80.1429 196.892C83.0302 195.137 86.271 193.785 89.8373 192.947L90.0859 194.005C91.6955 193.627 93.3759 193.356 95.1244 193.204L98.7768 192.887L98.6828 191.805L105.987 191.171L106.081 192.253L113.386 191.619L113.292 190.537L120.597 189.903L120.691 190.985L124.343 190.668C126.165 190.51 127.941 190.223 129.665 189.819L129.416 188.761C132.894 187.944 136.146 186.632 139.109 184.914L139.654 185.854C142.796 184.032 145.622 181.768 148.063 179.162L147.27 178.419C149.658 175.869 151.666 172.981 153.226 169.856L154.198 170.341C155.793 167.146 156.933 163.709 157.548 160.129L156.478 159.945C157.058 156.57 157.157 153.065 156.713 149.52L157.791 149.384C157.571 147.628 157.221 145.863 156.736 144.1L156.202 142.162L155.155 142.451L154.088 138.576L155.135 138.287L154.602 136.35C154.165 134.765 153.844 133.191 153.63 131.636L152.554 131.784C152.088 128.396 152.118 125.084 152.578 121.905L153.653 122.06C154.119 118.838 155.043 115.755 156.352 112.878L155.363 112.428C156.739 109.402 158.529 106.598 160.654 104.085L161.484 104.786C163.555 102.336 165.955 100.172 168.605 98.364L167.992 97.4665C170.71 95.6116 173.684 94.1197 176.836 93.0615L177.182 94.0916C180.178 93.0854 183.339 92.4842 186.593 92.3519L186.549 91.2662C189.758 91.1357 193.056 91.4472 196.378 92.2587L196.12 93.3143C197.645 93.687 199.177 94.1687 200.709 94.7659L205.374 96.5846L205.768 95.5723L215.098 99.2097L214.704 100.222L224.033 103.86L224.428 102.847L233.758 106.485L233.363 107.497L242.693 111.134L243.088 110.122Z" stroke="white" stroke-width="2.17314" stroke-dasharray="9.56 9.56"/>
<g filter="url(#filter0_d_4146_39)">
<mask id="path-4-outside-1_4146_39" maskUnits="userSpaceOnUse" x="177.418" y="197.328" width="358" height="163" fill="black">
<rect fill="white" x="177.418" y="197.328" width="358" height="163"/>
<path d="M312.228 214.734H308.678V246.684H312.228V258.328H285.39V246.684H288.798V221.834L276.728 258.328H266.22L253.795 222.189V246.684H257.203V258.328H233.915V246.684H237.465V214.734H233.915V203.09H266.433L273.817 225.242L280.917 203.09H312.228V214.734ZM341.592 259.322C334.161 259.322 328.41 257.689 324.339 254.423C320.316 251.157 318.304 245.856 318.304 238.519V214.734H314.754V203.09H341.024V214.734H338.184V242.14C338.184 243.702 338.516 244.862 339.178 245.619C339.888 246.329 340.93 246.684 342.302 246.684C343.675 246.684 344.693 246.329 345.355 245.619C346.065 244.862 346.42 243.702 346.42 242.14V214.734H343.58V203.09H367.933V214.734H364.383V238.519C364.383 245.856 362.419 251.157 358.49 254.423C354.562 257.689 348.929 259.322 341.592 259.322ZM398.055 259.322C389.109 259.322 382.198 257.05 377.323 252.506C372.495 247.962 370.081 240.696 370.081 230.709C370.081 211.634 379.358 202.096 397.913 202.096C402.41 202.096 406.575 202.64 410.409 203.729C414.29 204.818 417.178 206.025 419.071 207.35V225.1H402.031V219.988C402.031 218.189 401.629 216.864 400.824 216.012C400.019 215.16 398.812 214.734 397.203 214.734C395.594 214.734 394.387 215.16 393.582 216.012C392.777 216.864 392.375 218.189 392.375 219.988V241.43C392.375 243.229 392.777 244.554 393.582 245.406C394.387 246.258 395.594 246.684 397.203 246.684C398.812 246.684 400.019 246.258 400.824 245.406C401.629 244.554 402.031 243.229 402.031 241.43V235.679H419.071V254.068C417.13 255.393 414.243 256.6 410.409 257.689C406.622 258.778 402.504 259.322 398.055 259.322ZM478.546 214.734H474.996V246.684H478.546V258.328H451.708V246.684H455.116V234.969H445.176V246.684H448.584V258.328H421.746V246.684H425.296V214.734H421.746V203.09H448.584V214.734H445.176V225.526H455.116V214.734H451.708V203.09H478.546V214.734ZM208.991 356.322C200.329 356.322 193.631 354.05 188.898 349.506C184.212 344.962 181.869 337.696 181.869 327.709C181.869 317.722 184.212 310.456 188.898 305.912C193.631 301.368 200.329 299.096 208.991 299.096C217.653 299.096 224.327 301.368 229.013 305.912C233.746 310.456 236.113 317.722 236.113 327.709C236.113 337.696 233.746 344.962 229.013 349.506C224.327 354.05 217.653 356.322 208.991 356.322ZM208.991 343.684C210.6 343.684 211.807 343.258 212.612 342.406C213.416 341.554 213.819 340.229 213.819 338.43V316.988C213.819 315.189 213.416 313.864 212.612 313.012C211.807 312.16 210.6 311.734 208.991 311.734C207.381 311.734 206.174 312.16 205.37 313.012C204.565 313.864 204.163 315.189 204.163 316.988V338.43C204.163 340.276 204.565 341.625 205.37 342.477C206.174 343.282 207.381 343.684 208.991 343.684ZM238.526 343.684H242.076V311.734H238.526V300.09H271.115C277.032 300.09 281.647 301.297 284.96 303.711C288.273 306.125 289.93 309.58 289.93 314.077C289.93 316.87 289.267 319.236 287.942 321.177C286.617 323.07 285.055 324.514 283.256 325.508C281.505 326.455 279.801 327.094 278.144 327.425V328.135C281.505 328.466 284.534 329.531 287.232 331.33C289.93 333.129 291.279 336.347 291.279 340.986C291.279 345.956 289.409 349.601 285.67 351.92C281.931 354.192 277.079 355.328 271.115 355.328H238.526V343.684ZM265.79 323.378C267.163 323.378 268.18 323.023 268.843 322.313C269.553 321.556 269.908 320.396 269.908 318.834V316.278C269.908 314.716 269.553 313.58 268.843 312.87C268.18 312.113 267.163 311.734 265.79 311.734H261.956V323.378H265.79ZM266.287 343.684C267.66 343.684 268.677 343.329 269.34 342.619C270.05 341.862 270.405 340.702 270.405 339.14V336.016C270.405 334.454 270.05 333.318 269.34 332.608C268.677 331.851 267.66 331.472 266.287 331.472H261.956V343.684H266.287ZM293.579 355.328V343.684H297.129V311.734H293.579V300.09H323.541V311.734H317.009V343.684H323.399V337.152H337.528V355.328H293.579ZM339.965 355.328V343.684H343.515V311.734H339.965V300.09H366.945V311.734H363.395V343.684H366.945V355.328H339.965ZM423.313 337.578H419.763V351.778C417.68 352.961 414.627 354.026 410.604 354.973C406.628 355.872 402.321 356.322 397.682 356.322C388.831 356.322 381.896 354.003 376.879 349.364C371.862 344.678 369.353 337.46 369.353 327.709C369.353 317.722 371.838 310.456 376.808 305.912C381.825 301.368 388.973 299.096 398.25 299.096C402.747 299.096 406.959 299.569 410.888 300.516C414.817 301.463 417.775 302.528 419.763 303.711V320.68H402.013V317.343C402.013 315.355 401.587 313.935 400.735 313.083C399.93 312.184 398.629 311.734 396.83 311.734C395.031 311.734 393.706 312.184 392.854 313.083C392.049 313.935 391.647 315.355 391.647 317.343V338.075C391.647 340.063 392.049 341.507 392.854 342.406C393.706 343.258 395.031 343.684 396.83 343.684C398.629 343.684 399.93 343.258 400.735 342.406C401.587 341.507 402.013 340.063 402.013 338.075V337.578H398.179V326.999H423.313V337.578ZM425.317 355.328V343.684H428.867V311.734H425.317V300.09H473.242V321.532H457.338V311.734H448.747V322.952H454.995V331.046H448.747V343.684H457.338V332.466H473.242V355.328H425.317ZM475.932 343.684H479.482V311.805H475.932V300.09H504.758C512.663 300.09 518.935 302.267 523.573 306.622C528.259 310.929 530.602 317.958 530.602 327.709C530.602 337.46 528.259 344.512 523.573 348.867C518.935 353.174 512.663 355.328 504.758 355.328H475.932V343.684ZM503.48 343.684C505.09 343.684 506.297 343.258 507.101 342.406C507.906 341.554 508.308 340.229 508.308 338.43V316.988C508.308 313.485 506.699 311.734 503.48 311.734H499.362V343.684H503.48Z"/>
</mask>
<path d="M312.228 214.734H308.678V246.684H312.228V258.328H285.39V246.684H288.798V221.834L276.728 258.328H266.22L253.795 222.189V246.684H257.203V258.328H233.915V246.684H237.465V214.734H233.915V203.09H266.433L273.817 225.242L280.917 203.09H312.228V214.734ZM341.592 259.322C334.161 259.322 328.41 257.689 324.339 254.423C320.316 251.157 318.304 245.856 318.304 238.519V214.734H314.754V203.09H341.024V214.734H338.184V242.14C338.184 243.702 338.516 244.862 339.178 245.619C339.888 246.329 340.93 246.684 342.302 246.684C343.675 246.684 344.693 246.329 345.355 245.619C346.065 244.862 346.42 243.702 346.42 242.14V214.734H343.58V203.09H367.933V214.734H364.383V238.519C364.383 245.856 362.419 251.157 358.49 254.423C354.562 257.689 348.929 259.322 341.592 259.322ZM398.055 259.322C389.109 259.322 382.198 257.05 377.323 252.506C372.495 247.962 370.081 240.696 370.081 230.709C370.081 211.634 379.358 202.096 397.913 202.096C402.41 202.096 406.575 202.64 410.409 203.729C414.29 204.818 417.178 206.025 419.071 207.35V225.1H402.031V219.988C402.031 218.189 401.629 216.864 400.824 216.012C400.019 215.16 398.812 214.734 397.203 214.734C395.594 214.734 394.387 215.16 393.582 216.012C392.777 216.864 392.375 218.189 392.375 219.988V241.43C392.375 243.229 392.777 244.554 393.582 245.406C394.387 246.258 395.594 246.684 397.203 246.684C398.812 246.684 400.019 246.258 400.824 245.406C401.629 244.554 402.031 243.229 402.031 241.43V235.679H419.071V254.068C417.13 255.393 414.243 256.6 410.409 257.689C406.622 258.778 402.504 259.322 398.055 259.322ZM478.546 214.734H474.996V246.684H478.546V258.328H451.708V246.684H455.116V234.969H445.176V246.684H448.584V258.328H421.746V246.684H425.296V214.734H421.746V203.09H448.584V214.734H445.176V225.526H455.116V214.734H451.708V203.09H478.546V214.734ZM208.991 356.322C200.329 356.322 193.631 354.05 188.898 349.506C184.212 344.962 181.869 337.696 181.869 327.709C181.869 317.722 184.212 310.456 188.898 305.912C193.631 301.368 200.329 299.096 208.991 299.096C217.653 299.096 224.327 301.368 229.013 305.912C233.746 310.456 236.113 317.722 236.113 327.709C236.113 337.696 233.746 344.962 229.013 349.506C224.327 354.05 217.653 356.322 208.991 356.322ZM208.991 343.684C210.6 343.684 211.807 343.258 212.612 342.406C213.416 341.554 213.819 340.229 213.819 338.43V316.988C213.819 315.189 213.416 313.864 212.612 313.012C211.807 312.16 210.6 311.734 208.991 311.734C207.381 311.734 206.174 312.16 205.37 313.012C204.565 313.864 204.163 315.189 204.163 316.988V338.43C204.163 340.276 204.565 341.625 205.37 342.477C206.174 343.282 207.381 343.684 208.991 343.684ZM238.526 343.684H242.076V311.734H238.526V300.09H271.115C277.032 300.09 281.647 301.297 284.96 303.711C288.273 306.125 289.93 309.58 289.93 314.077C289.93 316.87 289.267 319.236 287.942 321.177C286.617 323.07 285.055 324.514 283.256 325.508C281.505 326.455 279.801 327.094 278.144 327.425V328.135C281.505 328.466 284.534 329.531 287.232 331.33C289.93 333.129 291.279 336.347 291.279 340.986C291.279 345.956 289.409 349.601 285.67 351.92C281.931 354.192 277.079 355.328 271.115 355.328H238.526V343.684ZM265.79 323.378C267.163 323.378 268.18 323.023 268.843 322.313C269.553 321.556 269.908 320.396 269.908 318.834V316.278C269.908 314.716 269.553 313.58 268.843 312.87C268.18 312.113 267.163 311.734 265.79 311.734H261.956V323.378H265.79ZM266.287 343.684C267.66 343.684 268.677 343.329 269.34 342.619C270.05 341.862 270.405 340.702 270.405 339.14V336.016C270.405 334.454 270.05 333.318 269.34 332.608C268.677 331.851 267.66 331.472 266.287 331.472H261.956V343.684H266.287ZM293.579 355.328V343.684H297.129V311.734H293.579V300.09H323.541V311.734H317.009V343.684H323.399V337.152H337.528V355.328H293.579ZM339.965 355.328V343.684H343.515V311.734H339.965V300.09H366.945V311.734H363.395V343.684H366.945V355.328H339.965ZM423.313 337.578H419.763V351.778C417.68 352.961 414.627 354.026 410.604 354.973C406.628 355.872 402.321 356.322 397.682 356.322C388.831 356.322 381.896 354.003 376.879 349.364C371.862 344.678 369.353 337.46 369.353 327.709C369.353 317.722 371.838 310.456 376.808 305.912C381.825 301.368 388.973 299.096 398.25 299.096C402.747 299.096 406.959 299.569 410.888 300.516C414.817 301.463 417.775 302.528 419.763 303.711V320.68H402.013V317.343C402.013 315.355 401.587 313.935 400.735 313.083C399.93 312.184 398.629 311.734 396.83 311.734C395.031 311.734 393.706 312.184 392.854 313.083C392.049 313.935 391.647 315.355 391.647 317.343V338.075C391.647 340.063 392.049 341.507 392.854 342.406C393.706 343.258 395.031 343.684 396.83 343.684C398.629 343.684 399.93 343.258 400.735 342.406C401.587 341.507 402.013 340.063 402.013 338.075V337.578H398.179V326.999H423.313V337.578ZM425.317 355.328V343.684H428.867V311.734H425.317V300.09H473.242V321.532H457.338V311.734H448.747V322.952H454.995V331.046H448.747V343.684H457.338V332.466H473.242V355.328H425.317ZM475.932 343.684H479.482V311.805H475.932V300.09H504.758C512.663 300.09 518.935 302.267 523.573 306.622C528.259 310.929 530.602 317.958 530.602 327.709C530.602 337.46 528.259 344.512 523.573 348.867C518.935 353.174 512.663 355.328 504.758 355.328H475.932V343.684ZM503.48 343.684C505.09 343.684 506.297 343.258 507.101 342.406C507.906 341.554 508.308 340.229 508.308 338.43V316.988C508.308 313.485 506.699 311.734 503.48 311.734H499.362V343.684H503.48Z" fill="white"/>
<path d="M312.228 214.734V218.646H316.14V214.734H312.228ZM308.678 214.734V210.822H304.767V214.734H308.678ZM308.678 246.684H304.767V250.596H308.678V246.684ZM312.228 246.684H316.14V242.772H312.228V246.684ZM312.228 258.328V262.24H316.14V258.328H312.228ZM285.39 258.328H281.479V262.24H285.39V258.328ZM285.39 246.684V242.772H281.479V246.684H285.39ZM288.798 246.684V250.596H292.71V246.684H288.798ZM288.798 221.834H292.71L285.084 220.606L288.798 221.834ZM276.728 258.328V262.24H279.555L280.442 259.556L276.728 258.328ZM266.22 258.328L262.521 259.6L263.429 262.24H266.22V258.328ZM253.795 222.189L257.494 220.917L249.884 222.189H253.795ZM253.795 246.684H249.884V250.596H253.795V246.684ZM257.203 246.684H261.115V242.772H257.203V246.684ZM257.203 258.328V262.24H261.115V258.328H257.203ZM233.915 258.328H230.004V262.24H233.915V258.328ZM233.915 246.684V242.772H230.004V246.684H233.915ZM237.465 246.684V250.596H241.377V246.684H237.465ZM237.465 214.734H241.377V210.822H237.465V214.734ZM233.915 214.734H230.004V218.646H233.915V214.734ZM233.915 203.09V199.178H230.004V203.09H233.915ZM266.433 203.09L270.144 201.853L269.253 199.178H266.433V203.09ZM273.817 225.242L270.106 226.479L273.89 237.831L277.542 226.436L273.817 225.242ZM280.917 203.09V199.178H278.063L277.192 201.896L280.917 203.09ZM312.228 203.09H316.14V199.178H312.228V203.09ZM312.228 210.822H308.678V218.646H312.228V210.822ZM304.767 214.734V246.684H312.59V214.734H304.767ZM308.678 250.596H312.228V242.772H308.678V250.596ZM308.317 246.684V258.328H316.14V246.684H308.317ZM312.228 254.416H285.39V262.24H312.228V254.416ZM289.302 258.328V246.684H281.479V258.328H289.302ZM285.39 250.596H288.798V242.772H285.39V250.596ZM292.71 246.684V221.834H284.887V246.684H292.71ZM285.084 220.606L273.014 257.1L280.442 259.556L292.512 223.062L285.084 220.606ZM276.728 254.416H266.22V262.24H276.728V254.416ZM269.919 257.056L257.494 220.917L250.096 223.461L262.521 259.6L269.919 257.056ZM249.884 222.189V246.684H257.707V222.189H249.884ZM253.795 250.596H257.203V242.772H253.795V250.596ZM253.292 246.684V258.328H261.115V246.684H253.292ZM257.203 254.416H233.915V262.24H257.203V254.416ZM237.827 258.328V246.684H230.004V258.328H237.827ZM233.915 250.596H237.465V242.772H233.915V250.596ZM241.377 246.684V214.734H233.554V246.684H241.377ZM237.465 210.822H233.915V218.646H237.465V210.822ZM237.827 214.734V203.09H230.004V214.734H237.827ZM233.915 207.002H266.433V199.178H233.915V207.002ZM262.722 204.327L270.106 226.479L277.528 224.005L270.144 201.853L262.722 204.327ZM277.542 226.436L284.642 204.284L277.192 201.896L270.092 224.048L277.542 226.436ZM280.917 207.002H312.228V199.178H280.917V207.002ZM308.317 203.09V214.734H316.14V203.09H308.317ZM324.339 254.423L321.874 257.46L321.883 257.467L321.891 257.474L324.339 254.423ZM318.304 214.734H322.216V210.822H318.304V214.734ZM314.754 214.734H310.843V218.646H314.754V214.734ZM314.754 203.09V199.178H310.843V203.09H314.754ZM341.024 203.09H344.936V199.178H341.024V203.09ZM341.024 214.734V218.646H344.936V214.734H341.024ZM338.184 214.734V210.822H334.273V214.734H338.184ZM339.178 245.619L336.235 248.195L336.32 248.293L336.412 248.385L339.178 245.619ZM345.355 245.619L342.502 242.944L342.496 242.95L345.355 245.619ZM346.42 214.734H350.332V210.822H346.42V214.734ZM343.58 214.734H339.669V218.646H343.58V214.734ZM343.58 203.09V199.178H339.669V203.09H343.58ZM367.933 203.09H371.845V199.178H367.933V203.09ZM367.933 214.734V218.646H371.845V214.734H367.933ZM364.383 214.734V210.822H360.472V214.734H364.383ZM358.49 254.423L355.99 251.415L358.49 254.423ZM341.592 255.41C334.682 255.41 329.922 253.887 326.787 251.372L321.891 257.474C326.898 261.491 333.64 263.234 341.592 263.234V255.41ZM326.805 251.386C324.031 249.135 322.216 245.19 322.216 238.519H314.393C314.393 246.522 316.601 253.179 321.874 257.46L326.805 251.386ZM322.216 238.519V214.734H314.393V238.519H322.216ZM318.304 210.822H314.754V218.646H318.304V210.822ZM318.666 214.734V203.09H310.843V214.734H318.666ZM314.754 207.002H341.024V199.178H314.754V207.002ZM337.113 203.09V214.734H344.936V203.09H337.113ZM341.024 210.822H338.184V218.646H341.024V210.822ZM334.273 214.734V242.14H342.096V214.734H334.273ZM334.273 242.14C334.273 244.149 334.683 246.422 336.235 248.195L342.122 243.043C342.239 243.176 342.232 243.241 342.194 243.107C342.153 242.962 342.096 242.659 342.096 242.14H334.273ZM336.412 248.385C338.092 250.065 340.282 250.596 342.302 250.596V242.772C341.944 242.772 341.782 242.725 341.754 242.715C341.743 242.712 341.764 242.718 341.805 242.743C341.848 242.768 341.897 242.805 341.944 242.853L336.412 248.385ZM342.302 250.596C344.301 250.596 346.549 250.073 348.215 248.288L342.496 242.95C342.563 242.878 342.633 242.822 342.698 242.781C342.761 242.741 342.802 242.726 342.807 242.724C342.81 242.723 342.775 242.736 342.691 242.748C342.606 242.761 342.479 242.772 342.302 242.772V250.596ZM348.209 248.294C349.873 246.52 350.332 244.206 350.332 242.14H342.509C342.509 242.639 342.45 242.917 342.414 243.036C342.382 243.141 342.385 243.068 342.502 242.944L348.209 248.294ZM350.332 242.14V214.734H342.509V242.14H350.332ZM346.42 210.822H343.58V218.646H346.42V210.822ZM347.492 214.734V203.09H339.669V214.734H347.492ZM343.58 207.002H367.933V199.178H343.58V207.002ZM364.022 203.09V214.734H371.845V203.09H364.022ZM367.933 210.822H364.383V218.646H367.933V210.822ZM360.472 214.734V238.519H368.295V214.734H360.472ZM360.472 238.519C360.472 245.218 358.687 249.173 355.99 251.415L360.991 257.431C366.151 253.141 368.295 246.493 368.295 238.519H360.472ZM355.99 251.415C353.014 253.889 348.406 255.41 341.592 255.41V263.234C349.453 263.234 356.109 261.489 360.991 257.431L355.99 251.415ZM377.323 252.506L374.642 255.355L374.649 255.361L374.656 255.368L377.323 252.506ZM410.409 203.729L409.341 207.492L409.353 207.495L410.409 203.729ZM419.071 207.35H422.983V205.313L421.314 204.146L419.071 207.35ZM419.071 225.1V229.012H422.983V225.1H419.071ZM402.031 225.1H398.119V229.012H402.031V225.1ZM400.824 216.012L403.668 213.326L403.668 213.326L400.824 216.012ZM393.582 216.012L396.426 218.698L396.426 218.698L393.582 216.012ZM393.582 245.406L396.426 242.72L396.426 242.72L393.582 245.406ZM400.824 245.406L403.668 248.092L403.668 248.092L400.824 245.406ZM402.031 235.679V231.767H398.119V235.679H402.031ZM419.071 235.679H422.983V231.767H419.071V235.679ZM419.071 254.068L421.277 257.298L422.983 256.134V254.068H419.071ZM410.409 257.689L409.341 253.926L409.328 253.93L410.409 257.689ZM398.055 255.41C389.753 255.41 383.923 253.31 379.99 249.645L374.656 255.368C380.474 260.79 388.465 263.234 398.055 263.234V255.41ZM380.004 249.658C376.285 246.157 373.993 240.162 373.993 230.709H366.169C366.169 241.231 368.705 249.767 374.642 255.355L380.004 249.658ZM373.993 230.709C373.993 221.748 376.173 215.75 379.843 211.977C383.494 208.224 389.267 206.008 397.913 206.008V198.184C388.005 198.184 379.862 200.737 374.235 206.522C368.628 212.286 366.169 220.595 366.169 230.709H373.993ZM397.913 206.008C402.094 206.008 405.895 206.514 409.341 207.492L411.478 199.966C407.255 198.767 402.726 198.184 397.913 198.184V206.008ZM409.353 207.495C413.076 208.54 415.469 209.603 416.828 210.555L421.314 204.146C418.887 202.446 415.504 201.096 411.466 199.963L409.353 207.495ZM415.159 207.35V225.1H422.983V207.35H415.159ZM419.071 221.188H402.031V229.012H419.071V221.188ZM405.943 225.1V219.988H398.119V225.1H405.943ZM405.943 219.988C405.943 217.709 405.447 215.21 403.668 213.326L397.98 218.698C397.898 218.611 397.929 218.593 397.986 218.781C398.048 218.985 398.119 219.366 398.119 219.988H405.943ZM403.668 213.326C401.881 211.435 399.474 210.822 397.203 210.822V218.646C397.673 218.646 397.92 218.709 398.013 218.742C398.086 218.768 398.043 218.765 397.98 218.698L403.668 213.326ZM397.203 210.822C394.932 210.822 392.525 211.435 390.738 213.326L396.426 218.698C396.363 218.765 396.32 218.768 396.393 218.742C396.486 218.709 396.733 218.646 397.203 218.646V210.822ZM390.738 213.326C388.96 215.21 388.463 217.709 388.463 219.988H396.287C396.287 219.366 396.358 218.985 396.42 218.781C396.477 218.593 396.508 218.611 396.426 218.698L390.738 213.326ZM388.463 219.988V241.43H396.287V219.988H388.463ZM388.463 241.43C388.463 243.709 388.96 246.209 390.738 248.092L396.426 242.72C396.508 242.807 396.477 242.825 396.42 242.637C396.358 242.434 396.287 242.053 396.287 241.43H388.463ZM390.738 248.092C392.525 249.984 394.932 250.596 397.203 250.596V242.772C396.733 242.772 396.486 242.709 396.393 242.676C396.32 242.65 396.363 242.654 396.426 242.72L390.738 248.092ZM397.203 250.596C399.474 250.596 401.881 249.984 403.668 248.092L397.98 242.72C398.043 242.654 398.086 242.65 398.013 242.676C397.92 242.709 397.673 242.772 397.203 242.772V250.596ZM403.668 248.092C405.447 246.209 405.943 243.709 405.943 241.43H398.119C398.119 242.053 398.048 242.434 397.986 242.637C397.929 242.825 397.898 242.807 397.98 242.72L403.668 248.092ZM405.943 241.43V235.679H398.119V241.43H405.943ZM402.031 239.591H419.071V231.767H402.031V239.591ZM415.159 235.679V254.068H422.983V235.679H415.159ZM416.865 250.838C415.432 251.817 413.01 252.884 409.341 253.926L411.478 261.452C415.476 260.317 418.829 258.97 421.277 257.298L416.865 250.838ZM409.328 253.93C405.935 254.905 402.185 255.41 398.055 255.41V263.234C402.824 263.234 407.31 262.65 411.49 261.448L409.328 253.93ZM478.546 214.734V218.646H482.458V214.734H478.546ZM474.996 214.734V210.822H471.085V214.734H474.996ZM474.996 246.684H471.085V250.596H474.996V246.684ZM478.546 246.684H482.458V242.772H478.546V246.684ZM478.546 258.328V262.24H482.458V258.328H478.546ZM451.708 258.328H447.797V262.24H451.708V258.328ZM451.708 246.684V242.772H447.797V246.684H451.708ZM455.116 246.684V250.596H459.028V246.684H455.116ZM455.116 234.969H459.028V231.057H455.116V234.969ZM445.176 234.969V231.057H441.265V234.969H445.176ZM445.176 246.684H441.265V250.596H445.176V246.684ZM448.584 246.684H452.496V242.772H448.584V246.684ZM448.584 258.328V262.24H452.496V258.328H448.584ZM421.746 258.328H417.835V262.24H421.746V258.328ZM421.746 246.684V242.772H417.835V246.684H421.746ZM425.296 246.684V250.596H429.208V246.684H425.296ZM425.296 214.734H429.208V210.822H425.296V214.734ZM421.746 214.734H417.835V218.646H421.746V214.734ZM421.746 203.09V199.178H417.835V203.09H421.746ZM448.584 203.09H452.496V199.178H448.584V203.09ZM448.584 214.734V218.646H452.496V214.734H448.584ZM445.176 214.734V210.822H441.265V214.734H445.176ZM445.176 225.526H441.265V229.438H445.176V225.526ZM455.116 225.526V229.438H459.028V225.526H455.116ZM455.116 214.734H459.028V210.822H455.116V214.734ZM451.708 214.734H447.797V218.646H451.708V214.734ZM451.708 203.09V199.178H447.797V203.09H451.708ZM478.546 203.09H482.458V199.178H478.546V203.09ZM478.546 210.822H474.996V218.646H478.546V210.822ZM471.085 214.734V246.684H478.908V214.734H471.085ZM474.996 250.596H478.546V242.772H474.996V250.596ZM474.635 246.684V258.328H482.458V246.684H474.635ZM478.546 254.416H451.708V262.24H478.546V254.416ZM455.62 258.328V246.684H447.797V258.328H455.62ZM451.708 250.596H455.116V242.772H451.708V250.596ZM459.028 246.684V234.969H451.205V246.684H459.028ZM455.116 231.057H445.176V238.881H455.116V231.057ZM441.265 234.969V246.684H449.088V234.969H441.265ZM445.176 250.596H448.584V242.772H445.176V250.596ZM444.673 246.684V258.328H452.496V246.684H444.673ZM448.584 254.416H421.746V262.24H448.584V254.416ZM425.658 258.328V246.684H417.835V258.328H425.658ZM421.746 250.596H425.296V242.772H421.746V250.596ZM429.208 246.684V214.734H421.385V246.684H429.208ZM425.296 210.822H421.746V218.646H425.296V210.822ZM425.658 214.734V203.09H417.835V214.734H425.658ZM421.746 207.002H448.584V199.178H421.746V207.002ZM444.673 203.09V214.734H452.496V203.09H444.673ZM448.584 210.822H445.176V218.646H448.584V210.822ZM441.265 214.734V225.526H449.088V214.734H441.265ZM445.176 229.438H455.116V221.614H445.176V229.438ZM459.028 225.526V214.734H451.205V225.526H459.028ZM455.116 210.822H451.708V218.646H455.116V210.822ZM455.62 214.734V203.09H447.797V214.734H455.62ZM451.708 207.002H478.546V199.178H451.708V207.002ZM474.635 203.09V214.734H482.458V203.09H474.635ZM188.898 349.506L186.175 352.314L186.182 352.321L186.189 352.328L188.898 349.506ZM188.898 305.912L186.189 303.09L186.182 303.097L186.175 303.104L188.898 305.912ZM229.013 305.912L226.29 308.72L226.297 308.727L226.304 308.734L229.013 305.912ZM229.013 349.506L226.304 346.684L226.297 346.691L226.29 346.698L229.013 349.506ZM212.612 342.406L215.455 345.092L215.455 345.092L212.612 342.406ZM212.612 313.012L215.456 310.326L215.455 310.326L212.612 313.012ZM205.37 313.012L208.213 315.698L208.213 315.698L205.37 313.012ZM205.37 342.477L202.526 345.163L202.564 345.204L202.604 345.243L205.37 342.477ZM208.991 352.41C201.005 352.41 195.402 350.328 191.607 346.684L186.189 352.328C191.86 357.772 199.652 360.234 208.991 360.234V352.41ZM191.621 346.698C188.016 343.203 185.78 337.191 185.78 327.709H177.957C177.957 338.202 180.407 346.722 186.175 352.314L191.621 346.698ZM185.78 327.709C185.78 318.228 188.016 312.216 191.621 308.72L186.175 303.104C180.407 308.697 177.957 317.216 177.957 327.709H185.78ZM191.607 308.734C195.402 305.09 201.005 303.008 208.991 303.008V295.184C199.652 295.184 191.86 297.646 186.189 303.09L191.607 308.734ZM208.991 303.008C216.979 303.008 222.547 305.091 226.29 308.72L231.736 303.104C226.106 297.645 218.327 295.184 208.991 295.184V303.008ZM226.304 308.734C229.946 312.231 232.201 318.237 232.201 327.709H240.024C240.024 317.206 237.546 308.681 231.722 303.09L226.304 308.734ZM232.201 327.709C232.201 337.181 229.946 343.187 226.304 346.684L231.722 352.328C237.546 346.737 240.024 338.212 240.024 327.709H232.201ZM226.29 346.698C222.547 350.327 216.979 352.41 208.991 352.41V360.234C218.327 360.234 226.106 357.773 231.736 352.314L226.29 346.698ZM208.991 347.596C211.262 347.596 213.669 346.984 215.455 345.092L209.768 339.72C209.831 339.654 209.873 339.65 209.801 339.676C209.708 339.709 209.461 339.772 208.991 339.772V347.596ZM215.455 345.092C217.234 343.209 217.73 340.709 217.73 338.43H209.907C209.907 339.053 209.836 339.434 209.774 339.637C209.717 339.825 209.685 339.807 209.768 339.72L215.455 345.092ZM217.73 338.43V316.988H209.907V338.43H217.73ZM217.73 316.988C217.73 314.709 217.234 312.21 215.456 310.326L209.768 315.698C209.685 315.611 209.717 315.593 209.774 315.781C209.836 315.985 209.907 316.366 209.907 316.988H217.73ZM215.455 310.326C213.669 308.435 211.262 307.822 208.991 307.822V315.646C209.461 315.646 209.708 315.709 209.801 315.742C209.873 315.768 209.831 315.765 209.768 315.698L215.455 310.326ZM208.991 307.822C206.719 307.822 204.313 308.435 202.526 310.326L208.213 315.698C208.15 315.765 208.108 315.768 208.18 315.742C208.274 315.709 208.52 315.646 208.991 315.646V307.822ZM202.526 310.326C200.747 312.21 200.251 314.709 200.251 316.988H208.074C208.074 316.366 208.146 315.985 208.207 315.781C208.265 315.593 208.296 315.611 208.213 315.698L202.526 310.326ZM200.251 316.988V338.43H208.074V316.988H200.251ZM200.251 338.43C200.251 340.723 200.733 343.264 202.526 345.163L208.213 339.791C208.308 339.891 208.274 339.913 208.213 339.708C208.148 339.489 208.074 339.085 208.074 338.43H200.251ZM202.604 345.243C204.401 347.04 206.778 347.596 208.991 347.596V339.772C208.5 339.772 208.23 339.71 208.115 339.671C208.019 339.639 208.06 339.636 208.136 339.711L202.604 345.243ZM238.526 343.684V339.772H234.614V343.684H238.526ZM242.076 343.684V347.596H245.988V343.684H242.076ZM242.076 311.734H245.988V307.822H242.076V311.734ZM238.526 311.734H234.614V315.646H238.526V311.734ZM238.526 300.09V296.178H234.614V300.09H238.526ZM287.942 321.177L291.147 323.42L291.16 323.402L291.172 323.383L287.942 321.177ZM283.256 325.508L285.116 328.949L285.132 328.941L285.148 328.932L283.256 325.508ZM278.144 327.425L277.377 323.589L274.232 324.218V327.425H278.144ZM278.144 328.135H274.232V331.68L277.76 332.028L278.144 328.135ZM287.232 331.33L289.402 328.075L289.402 328.075L287.232 331.33ZM285.67 351.92L287.701 355.263L287.717 355.254L287.732 355.244L285.67 351.92ZM238.526 355.328H234.614V359.24H238.526V355.328ZM268.843 322.313L265.989 319.638L265.983 319.644L268.843 322.313ZM268.843 312.87L265.899 315.446L265.985 315.544L266.077 315.636L268.843 312.87ZM261.956 311.734V307.822H258.044V311.734H261.956ZM261.956 323.378H258.044V327.29H261.956V323.378ZM269.34 342.619L266.486 339.944L266.48 339.95L269.34 342.619ZM269.34 332.608L266.396 335.184L266.482 335.282L266.574 335.374L269.34 332.608ZM261.956 331.472V327.56H258.044V331.472H261.956ZM261.956 343.684H258.044V347.596H261.956V343.684ZM238.526 347.596H242.076V339.772H238.526V347.596ZM245.988 343.684V311.734H238.164V343.684H245.988ZM242.076 307.822H238.526V315.646H242.076V307.822ZM242.438 311.734V300.09H234.614V311.734H242.438ZM238.526 304.002H271.115V296.178H238.526V304.002ZM271.115 304.002C276.557 304.002 280.25 305.119 282.657 306.873L287.264 300.55C283.043 297.475 277.507 296.178 271.115 296.178V304.002ZM282.657 306.873C284.851 308.471 286.018 310.69 286.018 314.077H293.842C293.842 308.471 291.696 303.779 287.264 300.55L282.657 306.873ZM286.018 314.077C286.018 316.234 285.515 317.795 284.712 318.971L291.172 323.383C293.02 320.678 293.842 317.506 293.842 314.077H286.018ZM284.738 318.934C283.711 320.4 282.579 321.413 281.364 322.084L285.148 328.932C287.53 327.615 289.522 325.741 291.147 323.42L284.738 318.934ZM281.396 322.067C279.928 322.861 278.591 323.347 277.377 323.589L278.911 331.261C281.011 330.841 283.082 330.049 285.116 328.949L281.396 322.067ZM274.232 327.425V328.135H282.056V327.425H274.232ZM277.76 332.028C280.51 332.299 282.921 333.157 285.062 334.585L289.402 328.075C286.147 325.906 282.5 324.634 278.528 324.242L277.76 332.028ZM285.062 334.585C286.249 335.376 287.367 337.048 287.367 340.986H295.191C295.191 335.647 293.612 330.882 289.402 328.075L285.062 334.585ZM287.367 340.986C287.367 344.811 286.031 347.093 283.608 348.596L287.732 355.244C292.788 352.108 295.191 347.102 295.191 340.986H287.367ZM283.639 348.577C280.695 350.366 276.613 351.416 271.115 351.416V359.24C277.545 359.24 283.166 358.019 287.701 355.263L283.639 348.577ZM271.115 351.416H238.526V359.24H271.115V351.416ZM242.438 355.328V343.684H234.614V355.328H242.438ZM265.79 327.29C267.789 327.29 270.037 326.767 271.703 324.982L265.983 319.644C266.05 319.572 266.121 319.516 266.186 319.475C266.248 319.435 266.29 319.42 266.294 319.418C266.298 319.417 266.263 319.43 266.178 319.442C266.093 319.455 265.966 319.466 265.79 319.466V327.29ZM271.697 324.988C273.361 323.214 273.82 320.9 273.82 318.834H265.996C265.996 319.333 265.938 319.611 265.902 319.73C265.87 319.835 265.873 319.762 265.989 319.638L271.697 324.988ZM273.82 318.834V316.278H265.996V318.834H273.82ZM273.82 316.278C273.82 314.24 273.372 311.867 271.609 310.104L266.077 315.636C265.909 315.468 265.885 315.345 265.908 315.421C265.938 315.515 265.996 315.777 265.996 316.278H273.82ZM271.787 310.294C270.139 308.411 267.861 307.822 265.79 307.822V315.646C266.129 315.646 266.245 315.694 266.219 315.684C266.202 315.678 266.154 315.658 266.089 315.614C266.022 315.569 265.957 315.512 265.899 315.446L271.787 310.294ZM265.79 307.822H261.956V315.646H265.79V307.822ZM258.044 311.734V323.378H265.868V311.734H258.044ZM261.956 327.29H265.79V319.466H261.956V327.29ZM266.287 347.596C268.286 347.596 270.534 347.073 272.2 345.288L266.48 339.95C266.547 339.878 266.618 339.822 266.683 339.781C266.745 339.741 266.787 339.726 266.791 339.724C266.795 339.723 266.76 339.736 266.675 339.748C266.59 339.761 266.463 339.772 266.287 339.772V347.596ZM272.194 345.294C273.858 343.52 274.317 341.206 274.317 339.14H266.493C266.493 339.639 266.435 339.917 266.399 340.036C266.367 340.141 266.37 340.068 266.486 339.944L272.194 345.294ZM274.317 339.14V336.016H266.493V339.14H274.317ZM274.317 336.016C274.317 333.978 273.869 331.605 272.106 329.842L266.574 335.374C266.406 335.206 266.382 335.083 266.405 335.159C266.435 335.253 266.493 335.515 266.493 336.016H274.317ZM272.284 330.032C270.636 328.149 268.358 327.56 266.287 327.56V335.384C266.626 335.384 266.742 335.432 266.716 335.422C266.699 335.416 266.651 335.396 266.586 335.352C266.519 335.307 266.454 335.25 266.396 335.184L272.284 330.032ZM266.287 327.56H261.956V335.384H266.287V327.56ZM258.044 331.472V343.684H265.868V331.472H258.044ZM261.956 347.596H266.287V339.772H261.956V347.596ZM293.579 355.328H289.667V359.24H293.579V355.328ZM293.579 343.684V339.772H289.667V343.684H293.579ZM297.129 343.684V347.596H301.041V343.684H297.129ZM297.129 311.734H301.041V307.822H297.129V311.734ZM293.579 311.734H289.667V315.646H293.579V311.734ZM293.579 300.09V296.178H289.667V300.09H293.579ZM323.541 300.09H327.453V296.178H323.541V300.09ZM323.541 311.734V315.646H327.453V311.734H323.541ZM317.009 311.734V307.822H313.097V311.734H317.009ZM317.009 343.684H313.097V347.596H317.009V343.684ZM323.399 343.684V347.596H327.311V343.684H323.399ZM323.399 337.152V333.24H319.487V337.152H323.399ZM337.528 337.152H341.44V333.24H337.528V337.152ZM337.528 355.328V359.24H341.44V355.328H337.528ZM297.491 355.328V343.684H289.667V355.328H297.491ZM293.579 347.596H297.129V339.772H293.579V347.596ZM301.041 343.684V311.734H293.217V343.684H301.041ZM297.129 307.822H293.579V315.646H297.129V307.822ZM297.491 311.734V300.09H289.667V311.734H297.491ZM293.579 304.002H323.541V296.178H293.579V304.002ZM319.629 300.09V311.734H327.453V300.09H319.629ZM323.541 307.822H317.009V315.646H323.541V307.822ZM313.097 311.734V343.684H320.921V311.734H313.097ZM317.009 347.596H323.399V339.772H317.009V347.596ZM327.311 343.684V337.152H319.487V343.684H327.311ZM323.399 341.064H337.528V333.24H323.399V341.064ZM333.616 337.152V355.328H341.44V337.152H333.616ZM337.528 351.416H293.579V359.24H337.528V351.416ZM339.965 355.328H336.053V359.24H339.965V355.328ZM339.965 343.684V339.772H336.053V343.684H339.965ZM343.515 343.684V347.596H347.426V343.684H343.515ZM343.515 311.734H347.426V307.822H343.515V311.734ZM339.965 311.734H336.053V315.646H339.965V311.734ZM339.965 300.09V296.178H336.053V300.09H339.965ZM366.945 300.09H370.856V296.178H366.945V300.09ZM366.945 311.734V315.646H370.856V311.734H366.945ZM363.395 311.734V307.822H359.483V311.734H363.395ZM363.395 343.684H359.483V347.596H363.395V343.684ZM366.945 343.684H370.856V339.772H366.945V343.684ZM366.945 355.328V359.24H370.856V355.328H366.945ZM343.876 355.328V343.684H336.053V355.328H343.876ZM339.965 347.596H343.515V339.772H339.965V347.596ZM347.426 343.684V311.734H339.603V343.684H347.426ZM343.515 307.822H339.965V315.646H343.515V307.822ZM343.876 311.734V300.09H336.053V311.734H343.876ZM339.965 304.002H366.945V296.178H339.965V304.002ZM363.033 300.09V311.734H370.856V300.09H363.033ZM366.945 307.822H363.395V315.646H366.945V307.822ZM359.483 311.734V343.684H367.306V311.734H359.483ZM363.395 347.596H366.945V339.772H363.395V347.596ZM363.033 343.684V355.328H370.856V343.684H363.033ZM366.945 351.416H339.965V359.24H366.945V351.416ZM423.313 337.578V341.49H427.225V337.578H423.313ZM419.763 337.578V333.666H415.851V337.578H419.763ZM419.763 351.778L421.695 355.179L423.675 354.055V351.778H419.763ZM410.604 354.973L411.467 358.788L411.484 358.785L411.5 358.781L410.604 354.973ZM376.879 349.364L374.209 352.223L374.216 352.23L374.224 352.236L376.879 349.364ZM376.808 305.912L374.182 303.013L374.175 303.019L374.169 303.025L376.808 305.912ZM410.888 300.516L409.972 304.319L409.972 304.319L410.888 300.516ZM419.763 303.711H423.675V301.487L421.764 300.35L419.763 303.711ZM419.763 320.68V324.592H423.675V320.68H419.763ZM402.013 320.68H398.101V324.592H402.013V320.68ZM400.735 313.083L397.82 315.691L397.892 315.772L397.969 315.849L400.735 313.083ZM392.854 313.083L390.014 310.393L390.01 310.397L392.854 313.083ZM392.854 342.406L389.939 345.014L390.011 345.095L390.088 345.172L392.854 342.406ZM400.735 342.406L397.895 339.716L397.891 339.72L400.735 342.406ZM402.013 337.578H405.925V333.666H402.013V337.578ZM398.179 337.578H394.267V341.49H398.179V337.578ZM398.179 326.999V323.087H394.267V326.999H398.179ZM423.313 326.999H427.225V323.087H423.313V326.999ZM423.313 333.666H419.763V341.49H423.313V333.666ZM415.851 337.578V351.778H423.675V337.578H415.851ZM417.831 348.377C416.224 349.29 413.591 350.252 409.708 351.165L411.5 358.781C415.664 357.801 419.137 356.633 421.695 355.179L417.831 348.377ZM409.741 351.158C406.084 351.985 402.069 352.41 397.682 352.41V360.234C402.572 360.234 407.172 359.76 411.467 358.788L409.741 351.158ZM397.682 352.41C389.515 352.41 383.635 350.283 379.535 346.492L374.224 352.236C380.157 357.722 388.146 360.234 397.682 360.234V352.41ZM379.549 346.505C375.609 342.826 373.265 336.841 373.265 327.709H365.441C365.441 338.079 368.114 346.531 374.209 352.223L379.549 346.505ZM373.265 327.709C373.265 318.286 375.612 312.305 379.448 308.799L374.169 303.025C368.064 308.607 365.441 317.158 365.441 327.709H373.265ZM379.434 308.811C383.502 305.127 389.581 303.008 398.25 303.008V295.184C388.365 295.184 380.149 297.609 374.182 303.013L379.434 308.811ZM398.25 303.008C402.472 303.008 406.375 303.452 409.972 304.319L411.804 296.713C407.544 295.687 403.021 295.184 398.25 295.184V303.008ZM409.972 304.319C413.758 305.231 416.273 306.186 417.762 307.072L421.764 300.35C419.278 298.87 415.875 297.694 411.804 296.713L409.972 304.319ZM415.851 303.711V320.68H423.675V303.711H415.851ZM419.763 316.768H402.013V324.592H419.763V316.768ZM405.925 320.68V317.343H398.101V320.68H405.925ZM405.925 317.343C405.925 314.958 405.441 312.257 403.501 310.317L397.969 315.849C397.843 315.723 397.878 315.68 397.947 315.911C398.02 316.156 398.101 316.609 398.101 317.343H405.925ZM403.65 310.475C401.802 308.409 399.191 307.822 396.83 307.822V315.646C397.42 315.646 397.742 315.722 397.878 315.769C397.989 315.807 397.921 315.805 397.82 315.691L403.65 310.475ZM396.83 307.822C394.447 307.822 391.885 308.418 390.014 310.393L395.694 315.773C395.628 315.842 395.604 315.823 395.744 315.776C395.905 315.721 396.243 315.646 396.83 315.646V307.822ZM390.01 310.397C388.177 312.339 387.735 315.003 387.735 317.343H395.559C395.559 316.594 395.637 316.12 395.712 315.853C395.785 315.596 395.826 315.634 395.698 315.769L390.01 310.397ZM387.735 317.343V338.075H395.559V317.343H387.735ZM387.735 338.075C387.735 340.443 388.189 343.058 389.939 345.014L395.769 339.798C395.852 339.89 395.795 339.879 395.717 339.599C395.636 339.309 395.559 338.822 395.559 338.075H387.735ZM390.088 345.172C391.967 347.051 394.5 347.596 396.83 347.596V339.772C395.563 339.772 395.445 339.465 395.62 339.64L390.088 345.172ZM396.83 347.596C399.136 347.596 401.719 347.061 403.579 345.092L397.891 339.72C398.007 339.598 398.075 339.603 397.939 339.647C397.782 339.698 397.438 339.772 396.83 339.772V347.596ZM403.575 345.096C405.43 343.138 405.925 340.487 405.925 338.075H398.101C398.101 338.807 398.021 339.273 397.942 339.542C397.867 339.797 397.815 339.801 397.895 339.716L403.575 345.096ZM405.925 338.075V337.578H398.101V338.075H405.925ZM402.013 333.666H398.179V341.49H402.013V333.666ZM402.091 337.578V326.999H394.267V337.578H402.091ZM398.179 330.911H423.313V323.087H398.179V330.911ZM419.401 326.999V337.578H427.225V326.999H419.401ZM425.317 355.328H421.406V359.24H425.317V355.328ZM425.317 343.684V339.772H421.406V343.684H425.317ZM428.867 343.684V347.596H432.779V343.684H428.867ZM428.867 311.734H432.779V307.822H428.867V311.734ZM425.317 311.734H421.406V315.646H425.317V311.734ZM425.317 300.09V296.178H421.406V300.09H425.317ZM473.242 300.09H477.154V296.178H473.242V300.09ZM473.242 321.532V325.444H477.154V321.532H473.242ZM457.338 321.532H453.427V325.444H457.338V321.532ZM457.338 311.734H461.25V307.822H457.338V311.734ZM448.747 311.734V307.822H444.836V311.734H448.747ZM448.747 322.952H444.836V326.864H448.747V322.952ZM454.995 322.952H458.907V319.04H454.995V322.952ZM454.995 331.046V334.958H458.907V331.046H454.995ZM448.747 331.046V327.134H444.836V331.046H448.747ZM448.747 343.684H444.836V347.596H448.747V343.684ZM457.338 343.684V347.596H461.25V343.684H457.338ZM457.338 332.466V328.554H453.427V332.466H457.338ZM473.242 332.466H477.154V328.554H473.242V332.466ZM473.242 355.328V359.24H477.154V355.328H473.242ZM429.229 355.328V343.684H421.406V355.328H429.229ZM425.317 347.596H428.867V339.772H425.317V347.596ZM432.779 343.684V311.734H424.956V343.684H432.779ZM428.867 307.822H425.317V315.646H428.867V307.822ZM429.229 311.734V300.09H421.406V311.734H429.229ZM425.317 304.002H473.242V296.178H425.317V304.002ZM469.331 300.09V321.532H477.154V300.09H469.331ZM473.242 317.62H457.338V325.444H473.242V317.62ZM461.25 321.532V311.734H453.427V321.532H461.25ZM457.338 307.822H448.747V315.646H457.338V307.822ZM444.836 311.734V322.952H452.659V311.734H444.836ZM448.747 326.864H454.995V319.04H448.747V326.864ZM451.084 322.952V331.046H458.907V322.952H451.084ZM454.995 327.134H448.747V334.958H454.995V327.134ZM444.836 331.046V343.684H452.659V331.046H444.836ZM448.747 347.596H457.338V339.772H448.747V347.596ZM461.25 343.684V332.466H453.427V343.684H461.25ZM457.338 336.378H473.242V328.554H457.338V336.378ZM469.331 332.466V355.328H477.154V332.466H469.331ZM473.242 351.416H425.317V359.24H473.242V351.416ZM475.932 343.684V339.772H472.021V343.684H475.932ZM479.482 343.684V347.596H483.394V343.684H479.482ZM479.482 311.805H483.394V307.893H479.482V311.805ZM475.932 311.805H472.021V315.717H475.932V311.805ZM475.932 300.09V296.178H472.021V300.09H475.932ZM523.573 306.622L520.896 309.474L520.911 309.488L520.926 309.502L523.573 306.622ZM523.573 348.867L526.235 351.734L526.236 351.733L523.573 348.867ZM475.932 355.328H472.021V359.24H475.932V355.328ZM507.101 342.406L504.258 339.72L504.258 339.72L507.101 342.406ZM499.362 311.734V307.822H495.451V311.734H499.362ZM499.362 343.684H495.451V347.596H499.362V343.684ZM475.932 347.596H479.482V339.772H475.932V347.596ZM483.394 343.684V311.805H475.571V343.684H483.394ZM479.482 307.893H475.932V315.717H479.482V307.893ZM479.844 311.805V300.09H472.021V311.805H479.844ZM475.932 304.002H504.758V296.178H475.932V304.002ZM504.758 304.002C511.921 304.002 517.148 305.955 520.896 309.474L526.251 303.77C520.721 298.579 513.405 296.178 504.758 296.178V304.002ZM520.926 309.502C524.462 312.752 526.691 318.475 526.691 327.709H534.514C534.514 317.442 532.057 309.107 526.221 303.742L520.926 309.502ZM526.691 327.709C526.691 336.939 524.463 342.7 520.911 346.002L526.236 351.733C532.055 346.325 534.514 337.981 534.514 327.709H526.691ZM520.912 346.001C517.165 349.48 511.932 351.416 504.758 351.416V359.24C513.394 359.24 520.705 356.869 526.235 351.734L520.912 346.001ZM504.758 351.416H475.932V359.24H504.758V351.416ZM479.844 355.328V343.684H472.021V355.328H479.844ZM503.48 347.596C505.752 347.596 508.159 346.984 509.945 345.092L504.258 339.72C504.321 339.654 504.363 339.65 504.291 339.676C504.197 339.709 503.951 339.772 503.48 339.772V347.596ZM509.945 345.092C511.724 343.209 512.22 340.709 512.22 338.43H504.397C504.397 339.053 504.325 339.434 504.264 339.637C504.207 339.825 504.175 339.807 504.258 339.72L509.945 345.092ZM512.22 338.43V316.988H504.397V338.43H512.22ZM512.22 316.988C512.22 314.712 511.704 312.275 509.982 310.401C508.202 308.464 505.782 307.822 503.48 307.822V315.646C503.941 315.646 504.176 315.71 504.259 315.74C504.32 315.762 504.277 315.756 504.221 315.694C504.108 315.571 504.397 315.762 504.397 316.988H512.22ZM503.48 307.822H499.362V315.646H503.48V307.822ZM495.451 311.734V343.684H503.274V311.734H495.451ZM499.362 347.596H503.48V339.772H499.362V347.596Z" fill="#D51569" mask="url(#path-4-outside-1_4146_39)"/>
</g>
<defs>
<filter id="filter0_d_4146_39" x="180.131" y="202.098" width="352.209" height="157.7" filterUnits="userSpaceOnUse" color-interpolation-filters="sRGB">
<feFlood flood-opacity="0" result="BackgroundImageFix"/>
<feColorMatrix in="SourceAlpha" type="matrix" values="0 0 0 0 0 0 0 0 0 0 0 0 0 0 0 0 0 0 127 0" result="hardAlpha"/>
<feOffset dy="1.73851"/>
<feGaussianBlur stdDeviation="0.869257"/>
<feComposite in2="hardAlpha" operator="out"/>
<feColorMatrix type="matrix" values="0 0 0 0 0 0 0 0 0 0 0 0 0 0 0 0 0 0 0.25 0"/>
<feBlend mode="normal" in2="BackgroundImageFix" result="effect1_dropShadow_4146_39"/>
<feBlend mode="normal" in="SourceGraphic" in2="effect1_dropShadow_4146_39" result="shape"/>
</filter>
</defs>
</svg>
