<svg width="710" height="711" viewBox="0 0 710 711" fill="none" xmlns="http://www.w3.org/2000/svg">
<path d="M350.962 2.28686C353.409 1.10831 356.26 1.10831 358.707 2.28686L628.35 132.14C630.798 133.319 632.575 135.548 633.179 138.196L699.776 429.974C700.38 432.622 699.746 435.401 698.052 437.525L511.453 671.512C509.76 673.636 507.191 674.873 504.475 674.873H205.194C202.477 674.873 199.909 673.636 198.215 671.512L11.6164 437.525C9.92283 435.401 9.28847 432.622 9.8929 429.974L76.4893 138.196C77.0937 135.548 78.8711 133.319 81.3184 132.14L350.962 2.28686Z" fill="white"/>
<path d="M352.095 28.4076C353.686 27.6415 355.539 27.6415 357.129 28.4076L608.548 149.485C610.139 150.251 611.295 151.699 611.687 153.421L673.783 425.478C674.176 427.2 673.763 429.006 672.663 430.387L498.675 648.56C497.574 649.94 495.905 650.744 494.139 650.744H215.085C213.319 650.744 211.65 649.94 210.549 648.56L36.5617 430.387C35.4609 429.006 35.0486 427.2 35.4415 425.478L97.5369 153.421C97.9297 151.699 99.0851 150.251 100.676 149.485L352.095 28.4076Z" fill="#007CB2"/>
<path d="M112.105 185.356L114.719 173.9L115.527 174.084L116.834 168.356C117.171 166.88 118.162 165.638 119.525 164.981L124.819 162.432L124.46 161.686L135.047 156.587L135.407 157.333L145.994 152.235L145.635 151.489L156.222 146.39L156.582 147.136L167.169 142.037L166.81 141.291L177.398 136.192L177.757 136.939L188.344 131.84L187.985 131.094L198.573 125.995L198.932 126.741L209.52 121.642L209.16 120.896L219.748 115.798L220.107 116.544L230.695 111.445L230.335 110.699L240.923 105.6L241.282 106.346L251.87 101.248L251.511 100.501L262.098 95.4028L262.457 96.149L273.045 91.0503L272.686 90.3041L283.273 85.2054L283.633 85.9516L294.22 80.8529L293.861 80.1067L304.448 75.008L304.808 75.7542L315.395 70.6554L315.036 69.9093L325.624 64.8106L325.983 65.5567L336.57 60.458L336.211 59.7119L346.799 54.6131L347.158 55.3593L352.452 52.81C353.815 52.1533 355.404 52.1533 356.768 52.81L362.061 55.3594L362.421 54.6132L373.008 59.7119L372.649 60.4581L383.237 65.5568L383.596 64.8106L394.183 69.9093L393.824 70.6555L404.412 75.7542L404.771 75.008L415.359 80.1067L414.999 80.8529L425.587 85.9516L425.946 85.2054L436.534 90.3041L436.174 91.0503L446.762 96.149L447.121 95.4028L457.709 100.502L457.35 101.248L467.937 106.346L468.296 105.6L478.884 110.699L478.525 111.445L489.112 116.544L489.472 115.798L500.059 120.896L499.7 121.643L510.287 126.741L510.647 125.995L521.234 131.094L520.875 131.84L531.462 136.939L531.822 136.192L542.409 141.291L542.05 142.037L552.638 147.136L552.997 146.39L563.585 151.489L563.225 152.235L573.813 157.333L574.172 156.587L584.76 161.686L584.4 162.432L589.694 164.982C591.058 165.638 592.048 166.88 592.385 168.356L593.692 174.084L594.5 173.9L597.115 185.357L596.307 185.541L598.922 196.997L599.73 196.813L602.345 208.27L601.537 208.454L604.152 219.911L604.96 219.727L607.574 231.183L606.767 231.368L609.382 242.824L610.189 242.64L612.804 254.097L611.997 254.281L614.612 265.738L615.419 265.553L618.034 277.01L617.227 277.194L619.842 288.651L620.649 288.467L623.264 299.923L622.456 300.108L625.071 311.564L625.879 311.38L628.494 322.837L627.686 323.021L630.301 334.478L631.109 334.293L633.724 345.75L632.916 345.934L635.531 357.391L636.339 357.207L638.953 368.663L638.146 368.848L640.761 380.304L641.568 380.12L644.183 391.577L643.376 391.761L645.991 403.218L646.798 403.034L649.413 414.49L648.606 414.674L649.913 420.403C650.25 421.878 649.896 423.427 648.953 424.61L645.289 429.204L645.937 429.721L638.61 438.908L637.962 438.392L630.636 447.579L631.283 448.096L623.956 457.283L623.309 456.767L615.982 465.954L616.63 466.471L609.303 475.658L608.655 475.142L601.328 484.33L601.976 484.846L594.649 494.033L594.002 493.517L586.675 502.705L587.322 503.221L579.995 512.409L579.348 511.892L572.021 521.08L572.669 521.596L565.342 530.784L564.694 530.267L557.367 539.455L558.015 539.971L550.688 549.159L550.041 548.642L542.714 557.83L543.361 558.346L536.034 567.534L535.387 567.017L528.06 576.205L528.708 576.721L521.381 585.909L520.733 585.393L513.406 594.58L514.054 595.096L506.727 604.284L506.08 603.768L498.753 612.955L499.4 613.472L492.073 622.659L491.426 622.143L487.763 626.737C486.819 627.92 485.388 628.609 483.874 628.609H477.998V629.437H466.247V628.609H454.496V629.437H442.745V628.609H430.993V629.437H419.242V628.609H407.491V629.437H395.739V628.609H383.988V629.437H372.237V628.609H360.485V629.437H348.734V628.609H336.983V629.437H325.231V628.609H313.48V629.437H301.729V628.609H289.977V629.437H278.226V628.609H266.475V629.437H254.723V628.609H242.972V629.437H231.221V628.609H225.345C223.832 628.609 222.4 627.92 221.457 626.737L217.793 622.143L217.146 622.659L209.819 613.471L210.467 612.955L203.14 603.768L202.492 604.284L195.165 595.096L195.813 594.58L188.486 585.393L187.839 585.909L180.512 576.721L181.159 576.205L173.832 567.017L173.185 567.534L165.858 558.346L166.506 557.83L159.179 548.642L158.531 549.159L151.204 539.971L151.852 539.455L144.525 530.267L143.878 530.784L136.551 521.596L137.198 521.08L129.871 511.892L129.224 512.408L121.897 503.221L122.545 502.705L115.218 493.517L114.57 494.033L107.243 484.846L107.891 484.329L100.564 475.142L99.9167 475.658L92.5898 466.471L93.2373 465.954L85.9105 456.767L85.263 457.283L77.9362 448.096L78.5837 447.579L71.2569 438.392L70.6094 438.908L63.2825 429.721L63.93 429.204L60.2666 424.61C59.3229 423.427 58.9695 421.878 59.3063 420.403L60.6137 414.674L59.8063 414.49L62.4212 403.033L63.2287 403.218L65.8436 391.761L65.0361 391.577L67.6511 380.12L68.4585 380.304L71.0734 368.848L70.266 368.663L72.8809 357.207L73.6883 357.391L76.3032 345.934L75.4958 345.75L78.1107 334.293L78.9181 334.478L81.5331 323.021L80.7256 322.837L83.3405 311.38L84.148 311.564L86.7629 300.108L85.9554 299.923L88.5704 288.467L89.3778 288.651L91.9927 277.194L91.1853 277.01L93.8002 265.553L94.6076 265.738L97.2225 254.281L96.4151 254.097L99.03 242.64L99.8374 242.824L102.452 231.367L101.645 231.183L104.26 219.727L105.067 219.911L107.682 208.454L106.875 208.27L109.49 196.813L110.297 196.997L112.912 185.541L112.105 185.356Z" stroke="white" stroke-width="1.6564" stroke-dasharray="12.01 12.01"/>
<g filter="url(#filter0_d_4149_394)">
<mask id="path-4-outside-1_4149_394" maskUnits="userSpaceOnUse" x="126.678" y="239.637" width="457" height="224" fill="black">
<rect fill="white" x="126.678" y="239.637" width="457" height="224"/>
<path d="M167.768 323.074C154.837 323.074 144.847 319.789 137.799 313.221C130.82 306.652 127.331 296.149 127.331 281.712C127.331 254.138 140.741 240.351 167.563 240.351C174.063 240.351 180.084 241.138 185.627 242.711C191.237 244.285 195.411 246.03 198.148 247.946V273.604H173.516V266.215C173.516 263.614 172.934 261.699 171.771 260.467C170.608 259.235 168.863 258.62 166.537 258.62C164.21 258.62 162.466 259.235 161.302 260.467C160.139 261.699 159.558 263.614 159.558 266.215V297.21C159.558 299.81 160.139 301.726 161.302 302.957C162.466 304.189 164.21 304.805 166.537 304.805C168.863 304.805 170.608 304.189 171.771 302.957C172.934 301.726 173.516 299.81 173.516 297.21V288.897H198.148V315.479C195.343 317.395 191.169 319.139 185.627 320.713C180.153 322.287 174.2 323.074 167.768 323.074ZM284.122 258.62H278.99V304.805H284.122V321.637H245.327V304.805H250.253V287.87H235.884V304.805H240.811V321.637H202.015V304.805H207.147V258.62H202.015V241.788H240.811V258.62H235.884V274.22H250.253V258.62H245.327V241.788H284.122V258.62ZM288.211 321.637V304.805H293.343V258.62H288.211V241.788H357.489V272.783H334.499V258.62H322.081V274.836H331.112V286.536H322.081V304.805H334.499V288.589H357.489V321.637H288.211ZM361.378 321.637V304.805H366.51V258.62H361.378V241.788H430.656V272.783H407.666V258.62H395.247V274.836H404.279V286.536H395.247V304.805H407.666V288.589H430.656V321.637H361.378ZM434.545 304.805H439.676V258.62H434.545V241.788H481.654C490.48 241.788 497.22 243.601 501.872 247.227C506.525 250.854 508.851 256.738 508.851 264.88C508.851 269.465 507.928 273.433 506.08 276.786C504.233 280.138 501.599 282.465 498.178 283.765L498.28 284.791C504.849 285.818 508.133 289.854 508.133 296.902V304.805H512.957V321.637H480.422V297.518C480.422 294.849 480.011 292.831 479.19 291.462C478.438 290.094 477.206 289.17 475.496 288.691C473.853 288.212 471.493 287.973 468.414 287.973V304.805H475.188V321.637H434.545V304.805ZM473.956 275.452C475.94 275.452 477.411 274.938 478.369 273.912C479.396 272.817 479.909 271.141 479.909 268.883V265.188C479.909 262.93 479.396 261.288 478.369 260.262C477.411 259.167 475.94 258.62 473.956 258.62H468.414V275.452H473.956ZM548.448 323.074C541.879 323.074 535.653 322.526 529.769 321.431C523.953 320.268 519.471 318.968 516.324 317.531V297.21H538.903C538.903 299.331 539.382 300.87 540.34 301.828C541.298 302.786 543.043 303.265 545.574 303.265C547.695 303.265 549.201 302.957 550.09 302.342C551.048 301.657 551.527 300.665 551.527 299.365C551.527 298.27 551.082 297.347 550.193 296.594C549.303 295.773 547.764 294.952 545.574 294.131L536.748 291.052C529.153 288.178 523.679 284.791 520.326 280.891C517.042 276.991 515.4 271.723 515.4 265.086C515.4 257.012 518.034 250.888 523.303 246.714C528.64 242.472 537.5 240.351 549.885 240.351C555.838 240.351 561.414 240.967 566.614 242.198C571.883 243.361 576.125 244.935 579.341 246.919V265.291H558.814C558.814 261.87 556.693 260.159 552.451 260.159C550.398 260.159 548.927 260.433 548.038 260.98C547.216 261.459 546.806 262.349 546.806 263.649C546.806 264.812 547.285 265.736 548.243 266.42C549.269 267.104 550.911 267.822 553.169 268.575L562.098 271.654C569.351 274.117 574.62 277.333 577.904 281.302C581.257 285.202 582.933 290.333 582.933 296.697C582.933 305.386 579.991 311.955 574.106 316.402C568.291 320.85 559.738 323.074 548.448 323.074ZM299.635 399.62H294.503V445.805H299.635V462.637H260.839V445.805H265.766V409.883L248.318 462.637H233.128L215.167 410.396V445.805H220.094V462.637H186.43V445.805H191.561V399.62H186.43V382.788H233.436L244.11 414.809L254.373 382.788H299.635V399.62ZM379.03 445.805H383.135V462.637H342.903V445.805H349.061L347.419 437.594H333.46L331.818 445.805H337.976V462.637H302.876V445.805H306.981L324.326 382.788H361.685L379.03 445.805ZM335.718 426.715H345.161L340.953 406.291H339.926L335.718 426.715ZM450.622 407.625H432.969V399.62H426.4V445.805H433.585V462.637H390.478V445.805H397.663V399.62H391.094V407.625H373.441V382.788H450.622V407.625ZM454.139 462.637V445.805H459.271V399.62H454.139V382.788H523.417V413.783H500.427V399.62H488.008V415.836H497.04V427.536H488.008V445.805H500.427V429.589H523.417V462.637H454.139Z"/>
</mask>
<path d="M167.768 323.074C154.837 323.074 144.847 319.789 137.799 313.221C130.82 306.652 127.331 296.149 127.331 281.712C127.331 254.138 140.741 240.351 167.563 240.351C174.063 240.351 180.084 241.138 185.627 242.711C191.237 244.285 195.411 246.03 198.148 247.946V273.604H173.516V266.215C173.516 263.614 172.934 261.699 171.771 260.467C170.608 259.235 168.863 258.62 166.537 258.62C164.21 258.62 162.466 259.235 161.302 260.467C160.139 261.699 159.558 263.614 159.558 266.215V297.21C159.558 299.81 160.139 301.726 161.302 302.957C162.466 304.189 164.21 304.805 166.537 304.805C168.863 304.805 170.608 304.189 171.771 302.957C172.934 301.726 173.516 299.81 173.516 297.21V288.897H198.148V315.479C195.343 317.395 191.169 319.139 185.627 320.713C180.153 322.287 174.2 323.074 167.768 323.074ZM284.122 258.62H278.99V304.805H284.122V321.637H245.327V304.805H250.253V287.87H235.884V304.805H240.811V321.637H202.015V304.805H207.147V258.62H202.015V241.788H240.811V258.62H235.884V274.22H250.253V258.62H245.327V241.788H284.122V258.62ZM288.211 321.637V304.805H293.343V258.62H288.211V241.788H357.489V272.783H334.499V258.62H322.081V274.836H331.112V286.536H322.081V304.805H334.499V288.589H357.489V321.637H288.211ZM361.378 321.637V304.805H366.51V258.62H361.378V241.788H430.656V272.783H407.666V258.62H395.247V274.836H404.279V286.536H395.247V304.805H407.666V288.589H430.656V321.637H361.378ZM434.545 304.805H439.676V258.62H434.545V241.788H481.654C490.48 241.788 497.22 243.601 501.872 247.227C506.525 250.854 508.851 256.738 508.851 264.88C508.851 269.465 507.928 273.433 506.08 276.786C504.233 280.138 501.599 282.465 498.178 283.765L498.28 284.791C504.849 285.818 508.133 289.854 508.133 296.902V304.805H512.957V321.637H480.422V297.518C480.422 294.849 480.011 292.831 479.19 291.462C478.438 290.094 477.206 289.17 475.496 288.691C473.853 288.212 471.493 287.973 468.414 287.973V304.805H475.188V321.637H434.545V304.805ZM473.956 275.452C475.94 275.452 477.411 274.938 478.369 273.912C479.396 272.817 479.909 271.141 479.909 268.883V265.188C479.909 262.93 479.396 261.288 478.369 260.262C477.411 259.167 475.94 258.62 473.956 258.62H468.414V275.452H473.956ZM548.448 323.074C541.879 323.074 535.653 322.526 529.769 321.431C523.953 320.268 519.471 318.968 516.324 317.531V297.21H538.903C538.903 299.331 539.382 300.87 540.34 301.828C541.298 302.786 543.043 303.265 545.574 303.265C547.695 303.265 549.201 302.957 550.09 302.342C551.048 301.657 551.527 300.665 551.527 299.365C551.527 298.27 551.082 297.347 550.193 296.594C549.303 295.773 547.764 294.952 545.574 294.131L536.748 291.052C529.153 288.178 523.679 284.791 520.326 280.891C517.042 276.991 515.4 271.723 515.4 265.086C515.4 257.012 518.034 250.888 523.303 246.714C528.64 242.472 537.5 240.351 549.885 240.351C555.838 240.351 561.414 240.967 566.614 242.198C571.883 243.361 576.125 244.935 579.341 246.919V265.291H558.814C558.814 261.87 556.693 260.159 552.451 260.159C550.398 260.159 548.927 260.433 548.038 260.98C547.216 261.459 546.806 262.349 546.806 263.649C546.806 264.812 547.285 265.736 548.243 266.42C549.269 267.104 550.911 267.822 553.169 268.575L562.098 271.654C569.351 274.117 574.62 277.333 577.904 281.302C581.257 285.202 582.933 290.333 582.933 296.697C582.933 305.386 579.991 311.955 574.106 316.402C568.291 320.85 559.738 323.074 548.448 323.074ZM299.635 399.62H294.503V445.805H299.635V462.637H260.839V445.805H265.766V409.883L248.318 462.637H233.128L215.167 410.396V445.805H220.094V462.637H186.43V445.805H191.561V399.62H186.43V382.788H233.436L244.11 414.809L254.373 382.788H299.635V399.62ZM379.03 445.805H383.135V462.637H342.903V445.805H349.061L347.419 437.594H333.46L331.818 445.805H337.976V462.637H302.876V445.805H306.981L324.326 382.788H361.685L379.03 445.805ZM335.718 426.715H345.161L340.953 406.291H339.926L335.718 426.715ZM450.622 407.625H432.969V399.62H426.4V445.805H433.585V462.637H390.478V445.805H397.663V399.62H391.094V407.625H373.441V382.788H450.622V407.625ZM454.139 462.637V445.805H459.271V399.62H454.139V382.788H523.417V413.783H500.427V399.62H488.008V415.836H497.04V427.536H488.008V445.805H500.427V429.589H523.417V462.637H454.139Z" fill="white"/>
<path d="M137.799 313.221L137.493 313.546L137.495 313.547L137.799 313.221ZM185.627 242.711L185.505 243.141L185.506 243.141L185.627 242.711ZM198.148 247.946H198.594V247.713L198.404 247.58L198.148 247.946ZM198.148 273.604V274.05H198.594V273.604H198.148ZM173.516 273.604H173.07V274.05H173.516V273.604ZM171.771 260.467L172.096 260.161L172.096 260.161L171.771 260.467ZM161.302 260.467L161.627 260.773L161.627 260.773L161.302 260.467ZM161.302 302.957L161.627 302.651L161.627 302.651L161.302 302.957ZM171.771 302.957L172.096 303.264L172.096 303.264L171.771 302.957ZM173.516 288.897V288.45H173.07V288.897H173.516ZM198.148 288.897H198.594V288.45H198.148V288.897ZM198.148 315.479L198.4 315.847L198.594 315.714V315.479H198.148ZM185.627 320.713L185.505 320.284L185.503 320.284L185.627 320.713ZM167.768 322.627C154.91 322.627 145.044 319.363 138.104 312.894L137.495 313.547C144.65 320.216 154.763 323.52 167.768 323.52V322.627ZM138.105 312.896C131.253 306.446 127.777 296.088 127.777 281.712H126.884C126.884 296.21 130.388 306.858 137.493 313.546L138.105 312.896ZM127.777 281.712C127.777 267.991 131.114 257.782 137.709 251.002C144.301 244.225 154.224 240.797 167.563 240.797V239.905C154.08 239.905 143.887 243.371 137.069 250.38C130.253 257.387 126.884 267.859 126.884 281.712H127.777ZM167.563 240.797C174.027 240.797 180.007 241.58 185.505 243.141L185.749 242.282C180.162 240.696 174.099 239.905 167.563 239.905V240.797ZM185.506 243.141C191.099 244.71 195.216 246.438 197.892 248.311L198.404 247.58C195.606 245.622 191.376 243.86 185.747 242.282L185.506 243.141ZM197.702 247.946V273.604H198.594V247.946H197.702ZM198.148 273.158H173.516V274.05H198.148V273.158ZM173.962 273.604V266.215H173.07V273.604H173.962ZM173.962 266.215C173.962 263.56 173.37 261.51 172.096 260.161L171.447 260.773C172.499 261.887 173.07 263.669 173.07 266.215H173.962ZM172.096 260.161C170.82 258.81 168.939 258.173 166.537 258.173V259.066C168.788 259.066 170.395 259.66 171.447 260.773L172.096 260.161ZM166.537 258.173C164.135 258.173 162.253 258.81 160.978 260.161L161.627 260.773C162.678 259.66 164.286 259.066 166.537 259.066V258.173ZM160.978 260.161C159.704 261.51 159.111 263.56 159.111 266.215H160.004C160.004 263.669 160.575 261.887 161.627 260.773L160.978 260.161ZM159.111 266.215V297.21H160.004V266.215H159.111ZM159.111 297.21C159.111 299.865 159.704 301.915 160.978 303.264L161.627 302.651C160.575 301.537 160.004 299.755 160.004 297.21H159.111ZM160.978 303.264C162.253 304.614 164.135 305.251 166.537 305.251V304.359C164.286 304.359 162.678 303.764 161.627 302.651L160.978 303.264ZM166.537 305.251C168.939 305.251 170.82 304.614 172.096 303.264L171.447 302.651C170.395 303.764 168.788 304.359 166.537 304.359V305.251ZM172.096 303.264C173.37 301.915 173.962 299.865 173.962 297.21H173.07C173.07 299.755 172.499 301.537 171.447 302.651L172.096 303.264ZM173.962 297.21V288.897H173.07V297.21H173.962ZM173.516 289.343H198.148V288.45H173.516V289.343ZM197.702 288.897V315.479H198.594V288.897H197.702ZM197.896 315.11C195.149 316.986 191.028 318.715 185.505 320.284L185.749 321.142C191.31 319.563 195.536 317.803 198.4 315.847L197.896 315.11ZM185.503 320.284C180.074 321.845 174.164 322.627 167.768 322.627V323.52C174.237 323.52 180.231 322.729 185.75 321.142L185.503 320.284ZM284.122 258.62V259.066H284.568V258.62H284.122ZM278.99 258.62V258.173H278.544V258.62H278.99ZM278.99 304.805H278.544V305.251H278.99V304.805ZM284.122 304.805H284.568V304.359H284.122V304.805ZM284.122 321.637V322.083H284.568V321.637H284.122ZM245.327 321.637H244.88V322.083H245.327V321.637ZM245.327 304.805V304.359H244.88V304.805H245.327ZM250.253 304.805V305.251H250.699V304.805H250.253ZM250.253 287.87H250.699V287.424H250.253V287.87ZM235.884 287.87V287.424H235.438V287.87H235.884ZM235.884 304.805H235.438V305.251H235.884V304.805ZM240.811 304.805H241.257V304.359H240.811V304.805ZM240.811 321.637V322.083H241.257V321.637H240.811ZM202.015 321.637H201.569V322.083H202.015V321.637ZM202.015 304.805V304.359H201.569V304.805H202.015ZM207.147 304.805V305.251H207.593V304.805H207.147ZM207.147 258.62H207.593V258.173H207.147V258.62ZM202.015 258.62H201.569V259.066H202.015V258.62ZM202.015 241.788V241.341H201.569V241.788H202.015ZM240.811 241.788H241.257V241.341H240.811V241.788ZM240.811 258.62V259.066H241.257V258.62H240.811ZM235.884 258.62V258.173H235.438V258.62H235.884ZM235.884 274.22H235.438V274.666H235.884V274.22ZM250.253 274.22V274.666H250.699V274.22H250.253ZM250.253 258.62H250.699V258.173H250.253V258.62ZM245.327 258.62H244.88V259.066H245.327V258.62ZM245.327 241.788V241.341H244.88V241.788H245.327ZM284.122 241.788H284.568V241.341H284.122V241.788ZM284.122 258.173H278.99V259.066H284.122V258.173ZM278.544 258.62V304.805H279.437V258.62H278.544ZM278.99 305.251H284.122V304.359H278.99V305.251ZM283.676 304.805V321.637H284.568V304.805H283.676ZM284.122 321.19H245.327V322.083H284.122V321.19ZM245.773 321.637V304.805H244.88V321.637H245.773ZM245.327 305.251H250.253V304.359H245.327V305.251ZM250.699 304.805V287.87H249.807V304.805H250.699ZM250.253 287.424H235.884V288.317H250.253V287.424ZM235.438 287.87V304.805H236.331V287.87H235.438ZM235.884 305.251H240.811V304.359H235.884V305.251ZM240.364 304.805V321.637H241.257V304.805H240.364ZM240.811 321.19H202.015V322.083H240.811V321.19ZM202.461 321.637V304.805H201.569V321.637H202.461ZM202.015 305.251H207.147V304.359H202.015V305.251ZM207.593 304.805V258.62H206.701V304.805H207.593ZM207.147 258.173H202.015V259.066H207.147V258.173ZM202.461 258.62V241.788H201.569V258.62H202.461ZM202.015 242.234H240.811V241.341H202.015V242.234ZM240.364 241.788V258.62H241.257V241.788H240.364ZM240.811 258.173H235.884V259.066H240.811V258.173ZM235.438 258.62V274.22H236.331V258.62H235.438ZM235.884 274.666H250.253V273.774H235.884V274.666ZM250.699 274.22V258.62H249.807V274.22H250.699ZM250.253 258.173H245.327V259.066H250.253V258.173ZM245.773 258.62V241.788H244.88V258.62H245.773ZM245.327 242.234H284.122V241.341H245.327V242.234ZM283.676 241.788V258.62H284.568V241.788H283.676ZM288.211 321.637H287.765V322.083H288.211V321.637ZM288.211 304.805V304.359H287.765V304.805H288.211ZM293.343 304.805V305.251H293.789V304.805H293.343ZM293.343 258.62H293.789V258.173H293.343V258.62ZM288.211 258.62H287.765V259.066H288.211V258.62ZM288.211 241.788V241.341H287.765V241.788H288.211ZM357.489 241.788H357.935V241.341H357.489V241.788ZM357.489 272.783V273.229H357.935V272.783H357.489ZM334.499 272.783H334.053V273.229H334.499V272.783ZM334.499 258.62H334.946V258.173H334.499V258.62ZM322.081 258.62V258.173H321.634V258.62H322.081ZM322.081 274.836H321.634V275.282H322.081V274.836ZM331.112 274.836H331.559V274.389H331.112V274.836ZM331.112 286.536V286.982H331.559V286.536H331.112ZM322.081 286.536V286.09H321.634V286.536H322.081ZM322.081 304.805H321.634V305.251H322.081V304.805ZM334.499 304.805V305.251H334.946V304.805H334.499ZM334.499 288.589V288.142H334.053V288.589H334.499ZM357.489 288.589H357.935V288.142H357.489V288.589ZM357.489 321.637V322.083H357.935V321.637H357.489ZM288.658 321.637V304.805H287.765V321.637H288.658ZM288.211 305.251H293.343V304.359H288.211V305.251ZM293.789 304.805V258.62H292.897V304.805H293.789ZM293.343 258.173H288.211V259.066H293.343V258.173ZM288.658 258.62V241.788H287.765V258.62H288.658ZM288.211 242.234H357.489V241.341H288.211V242.234ZM357.043 241.788V272.783H357.935V241.788H357.043ZM357.489 272.337H334.499V273.229H357.489V272.337ZM334.946 272.783V258.62H334.053V272.783H334.946ZM334.499 258.173H322.081V259.066H334.499V258.173ZM321.634 258.62V274.836H322.527V258.62H321.634ZM322.081 275.282H331.112V274.389H322.081V275.282ZM330.666 274.836V286.536H331.559V274.836H330.666ZM331.112 286.09H322.081V286.982H331.112V286.09ZM321.634 286.536V304.805H322.527V286.536H321.634ZM322.081 305.251H334.499V304.359H322.081V305.251ZM334.946 304.805V288.589H334.053V304.805H334.946ZM334.499 289.035H357.489V288.142H334.499V289.035ZM357.043 288.589V321.637H357.935V288.589H357.043ZM357.489 321.19H288.211V322.083H357.489V321.19ZM361.378 321.637H360.932V322.083H361.378V321.637ZM361.378 304.805V304.359H360.932V304.805H361.378ZM366.51 304.805V305.251H366.956V304.805H366.51ZM366.51 258.62H366.956V258.173H366.51V258.62ZM361.378 258.62H360.932V259.066H361.378V258.62ZM361.378 241.788V241.341H360.932V241.788H361.378ZM430.656 241.788H431.102V241.341H430.656V241.788ZM430.656 272.783V273.229H431.102V272.783H430.656ZM407.666 272.783H407.22V273.229H407.666V272.783ZM407.666 258.62H408.112V258.173H407.666V258.62ZM395.247 258.62V258.173H394.801V258.62H395.247ZM395.247 274.836H394.801V275.282H395.247V274.836ZM404.279 274.836H404.725V274.389H404.279V274.836ZM404.279 286.536V286.982H404.725V286.536H404.279ZM395.247 286.536V286.09H394.801V286.536H395.247ZM395.247 304.805H394.801V305.251H395.247V304.805ZM407.666 304.805V305.251H408.112V304.805H407.666ZM407.666 288.589V288.142H407.22V288.589H407.666ZM430.656 288.589H431.102V288.142H430.656V288.589ZM430.656 321.637V322.083H431.102V321.637H430.656ZM361.824 321.637V304.805H360.932V321.637H361.824ZM361.378 305.251H366.51V304.359H361.378V305.251ZM366.956 304.805V258.62H366.063V304.805H366.956ZM366.51 258.173H361.378V259.066H366.51V258.173ZM361.824 258.62V241.788H360.932V258.62H361.824ZM361.378 242.234H430.656V241.341H361.378V242.234ZM430.21 241.788V272.783H431.102V241.788H430.21ZM430.656 272.337H407.666V273.229H430.656V272.337ZM408.112 272.783V258.62H407.22V272.783H408.112ZM407.666 258.173H395.247V259.066H407.666V258.173ZM394.801 258.62V274.836H395.693V258.62H394.801ZM395.247 275.282H404.279V274.389H395.247V275.282ZM403.833 274.836V286.536H404.725V274.836H403.833ZM404.279 286.09H395.247V286.982H404.279V286.09ZM394.801 286.536V304.805H395.693V286.536H394.801ZM395.247 305.251H407.666V304.359H395.247V305.251ZM408.112 304.805V288.589H407.22V304.805H408.112ZM407.666 289.035H430.656V288.142H407.666V289.035ZM430.21 288.589V321.637H431.102V288.589H430.21ZM430.656 321.19H361.378V322.083H430.656V321.19ZM434.545 304.805V304.359H434.098V304.805H434.545ZM439.676 304.805V305.251H440.123V304.805H439.676ZM439.676 258.62H440.123V258.173H439.676V258.62ZM434.545 258.62H434.098V259.066H434.545V258.62ZM434.545 241.788V241.341H434.098V241.788H434.545ZM501.872 247.227L501.598 247.579L501.598 247.579L501.872 247.227ZM506.08 276.786L505.69 276.57L505.69 276.57L506.08 276.786ZM498.178 283.765L498.019 283.348L497.7 283.469L497.734 283.809L498.178 283.765ZM498.28 284.791L497.836 284.836L497.87 285.179L498.211 285.232L498.28 284.791ZM508.133 304.805H507.687V305.251H508.133V304.805ZM512.957 304.805H513.403V304.359H512.957V304.805ZM512.957 321.637V322.083H513.403V321.637H512.957ZM480.422 321.637H479.976V322.083H480.422V321.637ZM479.19 291.462L478.799 291.677L478.803 291.685L478.808 291.692L479.19 291.462ZM475.496 288.691L475.371 289.12L475.375 289.121L475.496 288.691ZM468.414 287.973V287.527H467.968V287.973H468.414ZM468.414 304.805H467.968V305.251H468.414V304.805ZM475.188 304.805H475.634V304.359H475.188V304.805ZM475.188 321.637V322.083H475.634V321.637H475.188ZM434.545 321.637H434.098V322.083H434.545V321.637ZM478.369 273.912L478.044 273.607L478.043 273.608L478.369 273.912ZM478.369 260.262L478.033 260.556L478.043 260.567L478.054 260.577L478.369 260.262ZM468.414 258.62V258.173H467.968V258.62H468.414ZM468.414 275.452H467.968V275.898H468.414V275.452ZM434.545 305.251H439.676V304.359H434.545V305.251ZM440.123 304.805V258.62H439.23V304.805H440.123ZM439.676 258.173H434.545V259.066H439.676V258.173ZM434.991 258.62V241.788H434.098V258.62H434.991ZM434.545 242.234H481.654V241.341H434.545V242.234ZM481.654 242.234C490.428 242.234 497.054 244.038 501.598 247.579L502.147 246.875C497.385 243.164 490.532 241.341 481.654 241.341V242.234ZM501.598 247.579C506.105 251.092 508.405 256.82 508.405 264.88H509.298C509.298 256.656 506.945 250.615 502.147 246.875L501.598 247.579ZM508.405 264.88C508.405 269.404 507.494 273.296 505.69 276.57L506.471 277.001C508.362 273.571 509.298 269.525 509.298 264.88H508.405ZM505.69 276.57C503.891 279.835 501.336 282.087 498.019 283.348L498.336 284.182C501.861 282.843 504.575 280.442 506.471 277.001L505.69 276.57ZM497.734 283.809L497.836 284.836L498.724 284.747L498.622 283.72L497.734 283.809ZM498.211 285.232C501.418 285.733 503.769 286.959 505.324 288.87C506.881 290.785 507.687 293.445 507.687 296.902H508.579C508.579 293.312 507.743 290.429 506.016 288.307C504.287 286.181 501.711 284.876 498.349 284.35L498.211 285.232ZM507.687 296.902V304.805H508.579V296.902H507.687ZM508.133 305.251H512.957V304.359H508.133V305.251ZM512.511 304.805V321.637H513.403V304.805H512.511ZM512.957 321.19H480.422V322.083H512.957V321.19ZM480.868 321.637V297.518H479.976V321.637H480.868ZM480.868 297.518C480.868 294.817 480.455 292.703 479.573 291.233L478.808 291.692C479.568 292.959 479.976 294.882 479.976 297.518H480.868ZM479.581 291.247C478.763 289.759 477.425 288.768 475.616 288.262L475.375 289.121C476.988 289.573 478.113 290.429 478.799 291.677L479.581 291.247ZM475.62 288.263C473.918 287.766 471.507 287.527 468.414 287.527V288.419C471.479 288.419 473.789 288.658 475.371 289.12L475.62 288.263ZM467.968 287.973V304.805H468.86V287.973H467.968ZM468.414 305.251H475.188V304.359H468.414V305.251ZM474.741 304.805V321.637H475.634V304.805H474.741ZM475.188 321.19H434.545V322.083H475.188V321.19ZM434.991 321.637V304.805H434.098V321.637H434.991ZM473.956 275.898C476.012 275.898 477.623 275.366 478.696 274.217L478.043 273.608C477.2 274.511 475.869 275.005 473.956 275.005V275.898ZM478.695 274.217C479.83 273.006 480.355 271.198 480.355 268.883H479.463C479.463 271.083 478.961 272.628 478.044 273.607L478.695 274.217ZM480.355 268.883V265.188H479.463V268.883H480.355ZM480.355 265.188C480.355 262.876 479.831 261.093 478.685 259.946L478.054 260.577C478.96 261.484 479.463 262.985 479.463 265.188H480.355ZM478.705 259.968C477.635 258.745 476.02 258.173 473.956 258.173V259.066C475.861 259.066 477.188 259.589 478.033 260.556L478.705 259.968ZM473.956 258.173H468.414V259.066H473.956V258.173ZM467.968 258.62V275.452H468.86V258.62H467.968ZM468.414 275.898H473.956V275.005H468.414V275.898ZM529.769 321.431L529.681 321.869L529.687 321.87L529.769 321.431ZM516.324 317.531H515.877V317.818L516.138 317.937L516.324 317.531ZM516.324 297.21V296.764H515.877V297.21H516.324ZM538.903 297.21H539.349V296.764H538.903V297.21ZM540.34 301.828L540.024 302.144L540.024 302.144L540.34 301.828ZM550.09 302.342L550.344 302.709L550.35 302.705L550.09 302.342ZM550.193 296.594L549.89 296.922L549.897 296.929L549.905 296.935L550.193 296.594ZM545.574 294.131L545.731 293.713L545.721 293.71L545.574 294.131ZM536.748 291.052L536.59 291.469L536.601 291.473L536.748 291.052ZM520.326 280.891L519.985 281.179L519.988 281.182L520.326 280.891ZM523.303 246.714L523.58 247.064L523.58 247.063L523.303 246.714ZM566.614 242.198L566.511 242.633L566.518 242.634L566.614 242.198ZM579.341 246.919H579.787V246.67L579.575 246.54L579.341 246.919ZM579.341 265.291V265.737H579.787V265.291H579.341ZM558.814 265.291H558.368V265.737H558.814V265.291ZM548.038 260.98L548.262 261.366L548.271 261.36L548.038 260.98ZM548.243 266.42L547.983 266.783L547.989 266.787L547.995 266.791L548.243 266.42ZM553.169 268.575L553.315 268.153L553.31 268.152L553.169 268.575ZM562.098 271.654L561.953 272.076L561.955 272.077L562.098 271.654ZM577.904 281.302L577.56 281.586L577.566 281.593L577.904 281.302ZM574.106 316.402L573.837 316.046L573.835 316.048L574.106 316.402ZM548.448 322.627C541.904 322.627 535.705 322.082 529.85 320.993L529.687 321.87C535.601 322.97 541.855 323.52 548.448 323.52V322.627ZM529.856 320.994C524.054 319.833 519.611 318.541 516.509 317.125L516.138 317.937C519.331 319.395 523.852 320.703 529.681 321.869L529.856 320.994ZM516.77 317.531V297.21H515.877V317.531H516.77ZM516.324 297.656H538.903V296.764H516.324V297.656ZM538.457 297.21C538.457 299.384 538.946 301.066 540.024 302.144L540.656 301.513C539.818 300.675 539.349 299.278 539.349 297.21H538.457ZM540.024 302.144C541.114 303.234 543.017 303.712 545.574 303.712V302.819C543.069 302.819 541.482 302.339 540.656 301.513L540.024 302.144ZM545.574 303.712C547.713 303.712 549.337 303.406 550.344 302.709L549.836 301.975C549.065 302.509 547.678 302.819 545.574 302.819V303.712ZM550.35 302.705C551.438 301.927 551.973 300.792 551.973 299.365H551.081C551.081 300.539 550.658 301.388 549.831 301.978L550.35 302.705ZM551.973 299.365C551.973 298.13 551.463 297.085 550.481 296.253L549.905 296.935C550.701 297.609 551.081 298.411 551.081 299.365H551.973ZM550.496 296.266C549.54 295.384 547.934 294.539 545.731 293.713L545.418 294.549C547.594 295.365 549.066 296.162 549.89 296.922L550.496 296.266ZM545.721 293.71L536.895 290.63L536.601 291.473L545.427 294.552L545.721 293.71ZM536.906 290.634C529.344 287.773 523.949 284.42 520.665 280.6L519.988 281.182C523.41 285.162 528.962 288.583 536.59 291.469L536.906 290.634ZM520.668 280.604C517.469 276.806 515.846 271.65 515.846 265.086H514.954C514.954 271.795 516.615 277.176 519.985 281.179L520.668 280.604ZM515.846 265.086C515.846 257.117 518.44 251.136 523.58 247.064L523.026 246.364C517.628 250.64 514.954 256.906 514.954 265.086H515.846ZM523.58 247.063C528.796 242.918 537.529 240.797 549.885 240.797V239.905C537.472 239.905 528.483 242.026 523.025 246.365L523.58 247.063ZM549.885 240.797C555.807 240.797 561.349 241.41 566.511 242.632L566.717 241.764C561.48 240.524 555.868 239.905 549.885 239.905V240.797ZM566.518 242.634C571.757 243.791 575.947 245.35 579.106 247.299L579.575 246.54C576.303 244.52 572.009 242.932 566.71 241.762L566.518 242.634ZM578.895 246.919V265.291H579.787V246.919H578.895ZM579.341 264.845H558.814V265.737H579.341V264.845ZM559.26 265.291C559.26 263.483 558.695 262.056 557.503 261.095C556.33 260.148 554.62 259.713 552.451 259.713V260.605C554.524 260.605 555.995 261.025 556.943 261.789C557.872 262.539 558.368 263.678 558.368 265.291H559.26ZM552.451 259.713C550.381 259.713 548.804 259.985 547.804 260.6L548.271 261.36C549.05 260.881 550.415 260.605 552.451 260.605V259.713ZM547.813 260.595C546.806 261.182 546.36 262.256 546.36 263.649H547.252C547.252 262.442 547.627 261.736 548.262 261.366L547.813 260.595ZM546.36 263.649C546.36 264.958 546.91 266.016 547.983 266.783L548.502 266.057C547.66 265.455 547.252 264.666 547.252 263.649H546.36ZM547.995 266.791C549.072 267.509 550.761 268.243 553.028 268.998L553.31 268.152C551.062 267.402 549.466 266.699 548.49 266.048L547.995 266.791ZM553.024 268.997L561.953 272.076L562.244 271.232L553.315 268.153L553.024 268.997ZM561.955 272.077C569.165 274.525 574.348 277.705 577.56 281.586L578.248 281.017C574.891 276.961 569.537 273.709 562.242 271.232L561.955 272.077ZM577.566 281.593C580.833 285.394 582.487 290.414 582.487 296.697H583.379C583.379 290.253 581.68 285.01 578.242 281.011L577.566 281.593ZM582.487 296.697C582.487 305.275 579.589 311.699 573.837 316.046L574.376 316.758C580.392 312.211 583.379 305.498 583.379 296.697H582.487ZM573.835 316.048C568.129 320.411 559.69 322.627 548.448 322.627V323.52C559.786 323.52 568.452 321.288 574.378 316.757L573.835 316.048ZM299.635 399.62V400.066H300.081V399.62H299.635ZM294.503 399.62V399.173H294.057V399.62H294.503ZM294.503 445.805H294.057V446.251H294.503V445.805ZM299.635 445.805H300.081V445.359H299.635V445.805ZM299.635 462.637V463.083H300.081V462.637H299.635ZM260.839 462.637H260.393V463.083H260.839V462.637ZM260.839 445.805V445.359H260.393V445.805H260.839ZM265.766 445.805V446.251H266.212V445.805H265.766ZM265.766 409.883H266.212L265.342 409.743L265.766 409.883ZM248.318 462.637V463.083H248.64L248.742 462.777L248.318 462.637ZM233.128 462.637L232.706 462.782L232.81 463.083H233.128V462.637ZM215.167 410.396L215.589 410.251L214.721 410.396H215.167ZM215.167 445.805H214.721V446.251H215.167V445.805ZM220.094 445.805H220.54V445.359H220.094V445.805ZM220.094 462.637V463.083H220.54V462.637H220.094ZM186.43 462.637H185.983V463.083H186.43V462.637ZM186.43 445.805V445.359H185.983V445.805H186.43ZM191.561 445.805V446.251H192.008V445.805H191.561ZM191.561 399.62H192.008V399.173H191.561V399.62ZM186.43 399.62H185.983V400.066H186.43V399.62ZM186.43 382.788V382.341H185.983V382.788H186.43ZM233.436 382.788L233.859 382.647L233.758 382.341H233.436V382.788ZM244.11 414.809L243.686 414.951L244.118 416.246L244.535 414.946L244.11 414.809ZM254.373 382.788V382.341H254.048L253.948 382.651L254.373 382.788ZM299.635 382.788H300.081V382.341H299.635V382.788ZM299.635 399.173H294.503V400.066H299.635V399.173ZM294.057 399.62V445.805H294.949V399.62H294.057ZM294.503 446.251H299.635V445.359H294.503V446.251ZM299.188 445.805V462.637H300.081V445.805H299.188ZM299.635 462.19H260.839V463.083H299.635V462.19ZM261.285 462.637V445.805H260.393V462.637H261.285ZM260.839 446.251H265.766V445.359H260.839V446.251ZM266.212 445.805V409.883H265.319V445.805H266.212ZM265.342 409.743L247.894 462.497L248.742 462.777L266.189 410.023L265.342 409.743ZM248.318 462.19H233.128V463.083H248.318V462.19ZM233.55 462.492L215.589 410.251L214.745 410.541L232.706 462.782L233.55 462.492ZM214.721 410.396V445.805H215.613V410.396H214.721ZM215.167 446.251H220.094V445.359H215.167V446.251ZM219.647 445.805V462.637H220.54V445.805H219.647ZM220.094 462.19H186.43V463.083H220.094V462.19ZM186.876 462.637V445.805H185.983V462.637H186.876ZM186.43 446.251H191.561V445.359H186.43V446.251ZM192.008 445.805V399.62H191.115V445.805H192.008ZM191.561 399.173H186.43V400.066H191.561V399.173ZM186.876 399.62V382.788H185.983V399.62H186.876ZM186.43 383.234H233.436V382.341H186.43V383.234ZM233.013 382.929L243.686 414.951L244.533 414.668L233.859 382.647L233.013 382.929ZM244.535 414.946L254.798 382.924L253.948 382.651L243.685 414.673L244.535 414.946ZM254.373 383.234H299.635V382.341H254.373V383.234ZM299.188 382.788V399.62H300.081V382.788H299.188ZM379.03 445.805L378.6 445.923L378.69 446.251H379.03V445.805ZM383.135 445.805H383.582V445.359H383.135V445.805ZM383.135 462.637V463.083H383.582V462.637H383.135ZM342.903 462.637H342.457V463.083H342.903V462.637ZM342.903 445.805V445.359H342.457V445.805H342.903ZM349.061 445.805V446.251H349.605L349.498 445.717L349.061 445.805ZM347.419 437.594L347.856 437.507L347.785 437.148H347.419V437.594ZM333.46 437.594V437.148H333.095L333.023 437.507L333.46 437.594ZM331.818 445.805L331.381 445.717L331.274 446.251H331.818V445.805ZM337.976 445.805H338.423V445.359H337.976V445.805ZM337.976 462.637V463.083H338.423V462.637H337.976ZM302.876 462.637H302.429V463.083H302.876V462.637ZM302.876 445.805V445.359H302.429V445.805H302.876ZM306.981 445.805V446.251H307.321L307.411 445.923L306.981 445.805ZM324.326 382.788V382.341H323.986L323.896 382.669L324.326 382.788ZM361.685 382.788L362.115 382.669L362.025 382.341H361.685V382.788ZM335.718 426.715L335.281 426.625L335.171 427.161H335.718V426.715ZM345.161 426.715V427.161H345.708L345.598 426.625L345.161 426.715ZM340.953 406.291L341.39 406.201L341.316 405.845H340.953V406.291ZM339.926 406.291V405.845H339.563L339.489 406.201L339.926 406.291ZM379.03 446.251H383.135V445.359H379.03V446.251ZM382.689 445.805V462.637H383.582V445.805H382.689ZM383.135 462.19H342.903V463.083H383.135V462.19ZM343.349 462.637V445.805H342.457V462.637H343.349ZM342.903 446.251H349.061V445.359H342.903V446.251ZM349.498 445.717L347.856 437.507L346.981 437.682L348.623 445.892L349.498 445.717ZM347.419 437.148H333.46V438.04H347.419V437.148ZM333.023 437.507L331.381 445.717L332.256 445.892L333.898 437.682L333.023 437.507ZM331.818 446.251H337.976V445.359H331.818V446.251ZM337.53 445.805V462.637H338.423V445.805H337.53ZM337.976 462.19H302.876V463.083H337.976V462.19ZM303.322 462.637V445.805H302.429V462.637H303.322ZM302.876 446.251H306.981V445.359H302.876V446.251ZM307.411 445.923L324.756 382.906L323.896 382.669L306.551 445.686L307.411 445.923ZM324.326 383.234H361.685V382.341H324.326V383.234ZM361.254 382.906L378.6 445.923L379.46 445.686L362.115 382.669L361.254 382.906ZM335.718 427.161H345.161V426.269H335.718V427.161ZM345.598 426.625L341.39 406.201L340.516 406.381L344.724 426.805L345.598 426.625ZM340.953 405.845H339.926V406.737H340.953V405.845ZM339.489 406.201L335.281 426.625L336.156 426.805L340.364 406.381L339.489 406.201ZM450.622 407.625V408.071H451.068V407.625H450.622ZM432.969 407.625H432.522V408.071H432.969V407.625ZM432.969 399.62H433.415V399.173H432.969V399.62ZM426.4 399.62V399.173H425.954V399.62H426.4ZM426.4 445.805H425.954V446.251H426.4V445.805ZM433.585 445.805H434.031V445.359H433.585V445.805ZM433.585 462.637V463.083H434.031V462.637H433.585ZM390.478 462.637H390.032V463.083H390.478V462.637ZM390.478 445.805V445.359H390.032V445.805H390.478ZM397.663 445.805V446.251H398.109V445.805H397.663ZM397.663 399.62H398.109V399.173H397.663V399.62ZM391.094 399.62V399.173H390.648V399.62H391.094ZM391.094 407.625V408.071H391.54V407.625H391.094ZM373.441 407.625H372.995V408.071H373.441V407.625ZM373.441 382.788V382.341H372.995V382.788H373.441ZM450.622 382.788H451.068V382.341H450.622V382.788ZM450.622 407.179H432.969V408.071H450.622V407.179ZM433.415 407.625V399.62H432.522V407.625H433.415ZM432.969 399.173H426.4V400.066H432.969V399.173ZM425.954 399.62V445.805H426.846V399.62H425.954ZM426.4 446.251H433.585V445.359H426.4V446.251ZM433.138 445.805V462.637H434.031V445.805H433.138ZM433.585 462.19H390.478V463.083H433.585V462.19ZM390.925 462.637V445.805H390.032V462.637H390.925ZM390.478 446.251H397.663V445.359H390.478V446.251ZM398.109 445.805V399.62H397.216V445.805H398.109ZM397.663 399.173H391.094V400.066H397.663V399.173ZM390.648 399.62V407.625H391.54V399.62H390.648ZM391.094 407.179H373.441V408.071H391.094V407.179ZM373.887 407.625V382.788H372.995V407.625H373.887ZM373.441 383.234H450.622V382.341H373.441V383.234ZM450.175 382.788V407.625H451.068V382.788H450.175ZM454.139 462.637H453.693V463.083H454.139V462.637ZM454.139 445.805V445.359H453.693V445.805H454.139ZM459.271 445.805V446.251H459.717V445.805H459.271ZM459.271 399.62H459.717V399.173H459.271V399.62ZM454.139 399.62H453.693V400.066H454.139V399.62ZM454.139 382.788V382.341H453.693V382.788H454.139ZM523.417 382.788H523.863V382.341H523.417V382.788ZM523.417 413.783V414.229H523.863V413.783H523.417ZM500.427 413.783H499.981V414.229H500.427V413.783ZM500.427 399.62H500.873V399.173H500.427V399.62ZM488.008 399.62V399.173H487.562V399.62H488.008ZM488.008 415.836H487.562V416.282H488.008V415.836ZM497.04 415.836H497.487V415.389H497.04V415.836ZM497.04 427.536V427.982H497.487V427.536H497.04ZM488.008 427.536V427.09H487.562V427.536H488.008ZM488.008 445.805H487.562V446.251H488.008V445.805ZM500.427 445.805V446.251H500.873V445.805H500.427ZM500.427 429.589V429.142H499.981V429.589H500.427ZM523.417 429.589H523.863V429.142H523.417V429.589ZM523.417 462.637V463.083H523.863V462.637H523.417ZM454.586 462.637V445.805H453.693V462.637H454.586ZM454.139 446.251H459.271V445.359H454.139V446.251ZM459.717 445.805V399.62H458.825V445.805H459.717ZM459.271 399.173H454.139V400.066H459.271V399.173ZM454.586 399.62V382.788H453.693V399.62H454.586ZM454.139 383.234H523.417V382.341H454.139V383.234ZM522.971 382.788V413.783H523.863V382.788H522.971ZM523.417 413.337H500.427V414.229H523.417V413.337ZM500.873 413.783V399.62H499.981V413.783H500.873ZM500.427 399.173H488.008V400.066H500.427V399.173ZM487.562 399.62V415.836H488.455V399.62H487.562ZM488.008 416.282H497.04V415.389H488.008V416.282ZM496.594 415.836V427.536H497.487V415.836H496.594ZM497.04 427.09H488.008V427.982H497.04V427.09ZM487.562 427.536V445.805H488.455V427.536H487.562ZM488.008 446.251H500.427V445.359H488.008V446.251ZM500.873 445.805V429.589H499.981V445.805H500.873ZM500.427 430.035H523.417V429.142H500.427V430.035ZM522.971 429.589V462.637H523.863V429.589H522.971ZM523.417 462.19H454.139V463.083H523.417V462.19Z" fill="black" mask="url(#path-4-outside-1_4149_394)"/>
</g>
<defs>
<filter id="filter0_d_4149_394" x="124.817" y="240.352" width="460.63" height="227.311" filterUnits="userSpaceOnUse" color-interpolation-filters="sRGB">
<feFlood flood-opacity="0" result="BackgroundImageFix"/>
<feColorMatrix in="SourceAlpha" type="matrix" values="0 0 0 0 0 0 0 0 0 0 0 0 0 0 0 0 0 0 127 0" result="hardAlpha"/>
<feOffset dy="2.5131"/>
<feGaussianBlur stdDeviation="1.25655"/>
<feComposite in2="hardAlpha" operator="out"/>
<feColorMatrix type="matrix" values="0 0 0 0 0 0 0 0 0 0 0 0 0 0 0 0 0 0 0.25 0"/>
<feBlend mode="normal" in2="BackgroundImageFix" result="effect1_dropShadow_4149_394"/>
<feBlend mode="normal" in="SourceGraphic" in2="effect1_dropShadow_4149_394" result="shape"/>
</filter>
</defs>
</svg>
