<svg width="703" height="600" viewBox="0 0 703 600" fill="none" xmlns="http://www.w3.org/2000/svg">
<path d="M316.152 25.9393C337.253 10.9573 365.52 10.9573 386.62 25.9393L510.286 113.746L634.48 180.409C662.973 195.703 674.53 230.609 660.792 259.884L610.435 367.202C609.141 369.96 608.056 372.811 607.188 375.731L571.455 496.066C563.423 523.117 537.849 541.098 509.677 539.504L351.386 530.549L193.096 539.504C164.923 541.098 139.35 523.117 131.317 496.066L95.5841 375.731C94.717 372.811 93.6319 369.96 92.3379 367.202L41.9802 259.884C28.2431 230.609 39.7998 195.703 68.2927 180.409L192.487 113.746L316.152 25.9393Z" fill="white"/>
<path d="M497.237 129.266L497.304 129.313L497.376 129.352L501.468 131.549L502.087 130.395L510.272 134.789L509.653 135.942L517.838 140.335L518.457 139.182L526.642 143.575L526.023 144.728L534.208 149.122L534.827 147.969L543.011 152.362L542.393 153.515L550.577 157.908L551.196 156.755L559.381 161.148L558.762 162.302L566.947 166.695L567.566 165.542L575.751 169.935L575.132 171.088L583.317 175.481L583.936 174.328L592.12 178.721L591.501 179.875L599.686 184.268L600.305 183.115L608.49 187.508L607.871 188.661L611.963 190.858C613.507 191.686 614.995 192.578 616.425 193.529L617.15 192.439C620.151 194.433 622.908 196.68 625.407 199.136L624.49 200.07C626.984 202.521 629.215 205.186 631.168 208.02L632.246 207.277C634.268 210.212 635.999 213.323 637.423 216.563L636.225 217.09C637.621 220.266 638.714 223.568 639.489 226.949L640.765 226.657C641.556 230.106 642.023 233.636 642.152 237.198L640.844 237.245C640.968 240.684 640.768 244.154 640.229 247.61L641.523 247.811C640.983 251.274 640.111 254.722 638.893 258.113L637.661 257.671C637.08 259.287 636.419 260.891 635.675 262.477L633.739 266.602L634.924 267.158L631.052 275.41L629.867 274.854L625.995 283.105L627.18 283.661L623.308 291.912L622.123 291.356L618.251 299.608L619.436 300.164L615.564 308.415L614.379 307.859L610.508 316.111L611.692 316.666L607.821 324.918L606.636 324.362L602.764 332.613L603.949 333.169L600.077 341.421L598.892 340.865L595.02 349.116L596.205 349.672L592.333 357.923L591.148 357.367L589.212 361.493C587.991 364.097 586.966 366.788 586.147 369.545L584.774 374.171L586.028 374.544L583.281 383.796L582.026 383.424L579.279 392.676L580.533 393.049L577.786 402.301L576.531 401.928L573.784 411.18L575.039 411.553L572.291 420.805L571.037 420.433L568.289 429.685L569.544 430.058L566.796 439.31L565.542 438.937L562.794 448.19L564.049 448.562L561.302 457.814L560.047 457.442L557.3 466.694L558.554 467.067L555.807 476.319L554.552 475.946L553.178 480.572C552.74 482.05 552.243 483.498 551.691 484.913L552.91 485.389C551.759 488.341 550.374 491.156 548.781 493.817L547.658 493.145C546.076 495.788 544.283 498.274 542.307 500.586L543.301 501.436C541.259 503.825 539.025 506.031 536.628 508.035L535.788 507.031C533.44 508.994 530.931 510.758 528.289 512.304L528.95 513.434C526.253 515.011 523.421 516.367 520.482 517.481L520.018 516.257C517.174 517.335 514.228 518.18 511.205 518.775L511.458 520.059C508.415 520.658 505.297 521.009 502.13 521.093L502.095 519.785C500.576 519.825 499.046 519.803 497.507 519.716L492.943 519.458L492.869 520.765L483.741 520.248L483.815 518.941L474.687 518.425L474.613 519.732L465.485 519.215L465.559 517.909L456.431 517.392L456.358 518.699L447.23 518.182L447.304 516.876L438.176 516.359L438.102 517.666L428.974 517.15L429.048 515.843L419.92 515.327L419.846 516.633L410.718 516.117L410.792 514.81L401.664 514.294L401.59 515.6L392.462 515.084L392.536 513.777L383.408 513.261L383.335 514.568L374.207 514.051L374.281 512.745L365.153 512.228L365.079 513.535L355.951 513.018L356.025 511.712L351.461 511.454L351.387 511.449L351.313 511.454L346.749 511.712L346.823 513.018L337.695 513.535L337.621 512.228L328.493 512.745L328.567 514.051L319.439 514.568L319.365 513.261L310.238 513.777L310.312 515.084L301.184 515.6L301.11 514.294L291.982 514.81L292.056 516.117L282.928 516.633L282.854 515.327L273.726 515.843L273.8 517.15L264.672 517.666L264.598 516.359L255.47 516.876L255.544 518.182L246.416 518.699L246.342 517.392L237.215 517.909L237.289 519.215L228.161 519.732L228.087 518.425L218.959 518.941L219.033 520.248L209.905 520.765L209.831 519.458L205.267 519.716C203.728 519.803 202.198 519.825 200.679 519.785L200.644 521.093C197.477 521.009 194.359 520.658 191.316 520.059L191.568 518.775C188.546 518.18 185.599 517.335 182.755 516.257L182.292 517.481C179.353 516.367 176.521 515.011 173.824 513.434L174.485 512.304C171.843 510.758 169.334 508.994 166.986 507.031L166.146 508.035C163.749 506.031 161.515 503.825 159.473 501.436L160.467 500.586C158.491 498.274 156.698 495.788 155.116 493.145L153.993 493.817C152.4 491.156 151.015 488.341 149.864 485.389L151.083 484.913C150.531 483.498 150.034 482.05 149.595 480.572L148.222 475.946L146.967 476.319L144.22 467.067L145.474 466.694L142.727 457.442L141.472 457.814L138.725 448.562L139.98 448.19L137.232 438.937L135.977 439.31L133.23 430.058L134.485 429.685L131.737 420.433L130.483 420.805L127.735 411.553L128.99 411.181L126.242 401.928L124.988 402.301L122.24 393.049L123.495 392.676L120.748 383.424L119.493 383.796L116.746 374.544L118 374.171L116.627 369.545C115.808 366.788 114.783 364.097 113.562 361.493L111.626 357.367L110.441 357.923L106.569 349.672L107.754 349.116L103.882 340.865L102.697 341.421L98.8252 333.169L100.01 332.613L96.1382 324.362L94.9533 324.918L91.0815 316.666L92.2663 316.111L88.3945 307.859L87.2096 308.415L83.3377 300.164L84.5226 299.608L80.6507 291.356L79.4659 291.912L75.594 283.661L76.7788 283.105L72.907 274.854L71.7221 275.41L67.8503 267.158L69.0351 266.602L67.0992 262.477C66.3551 260.891 65.6935 259.287 65.1127 257.671L63.881 258.113C62.6627 254.722 61.791 251.274 61.2513 247.811L62.5445 247.61C62.006 244.154 61.8062 240.684 61.9301 237.245L60.6222 237.198C60.7505 233.636 61.2181 230.106 62.009 226.657L63.2847 226.949C64.0599 223.568 65.1533 220.266 66.5489 217.09L65.3507 216.563C66.7745 213.323 68.5057 210.212 70.5283 207.277L71.606 208.02C73.5589 205.186 75.7899 202.521 78.2839 200.07L77.3665 199.136C79.8658 196.68 82.6231 194.433 85.6242 192.439L86.3485 193.529C87.7794 192.578 89.2673 191.686 90.8105 190.858L94.903 188.661L94.284 187.508L102.469 183.115L103.088 184.268L111.273 179.875L110.654 178.721L118.838 174.328L119.457 175.481L127.642 171.088L127.023 169.935L135.208 165.542L135.827 166.695L144.012 162.302L143.393 161.148L151.578 156.755L152.197 157.908L160.381 153.515L159.762 152.362L167.947 147.969L168.566 149.122L176.751 144.728L176.132 143.575L184.317 139.182L184.936 140.335L193.121 135.942L192.502 134.789L200.686 130.395L201.305 131.549L205.398 129.352L205.47 129.313L205.537 129.266L209.612 126.373L208.854 125.305L217.004 119.519L217.762 120.586L225.912 114.799L225.154 113.732L233.304 107.945L234.062 109.012L242.211 103.225L241.454 102.158L249.604 96.3715L250.361 97.4387L258.511 91.6519L257.754 90.5847L265.904 84.7979L266.661 85.8651L274.811 80.0783L274.054 79.0112L282.204 73.2244L282.961 74.2915L291.111 68.5047L290.354 67.4376L298.504 61.6508L299.261 62.718L307.411 56.9312L306.653 55.864L314.803 50.0772L315.561 51.1444L319.636 48.251C320.794 47.4288 321.976 46.6567 323.179 45.9348L322.505 44.8126C325.007 43.311 327.597 42.021 330.251 40.9424L330.744 42.1549C333.374 41.0861 336.068 40.2299 338.801 39.5864L338.501 38.3124C341.322 37.6481 344.183 37.2051 347.057 36.9833L347.158 38.2882C349.973 38.071 352.801 38.071 355.616 38.2882L355.716 36.9833C358.591 37.2051 361.452 37.6481 364.273 38.3124L363.973 39.5863C366.706 40.2299 369.4 41.0861 372.03 42.1549L372.523 40.9423C375.177 42.0209 377.767 43.311 380.269 44.8126L379.595 45.9347C380.798 46.6567 381.98 47.4288 383.138 48.251L387.213 51.1444L387.97 50.0772L396.12 55.864L395.363 56.9311L403.513 62.7179L404.27 61.6508L412.42 67.4376L411.663 68.5047L419.813 74.2915L420.57 73.2243L428.72 79.0111L427.963 80.0783L436.113 85.8651L436.87 84.7979L445.02 90.5847L444.263 91.6519L452.412 97.4387L453.17 96.3715L461.32 102.158L460.562 103.225L468.712 109.012L469.47 107.945L477.62 113.732L476.862 114.799L485.012 120.586L485.77 119.519L493.92 125.305L493.162 126.373L497.237 129.266Z" fill="#FFDBFC" stroke="#805C7D" stroke-width="2.6176" stroke-dasharray="9.49 9.49"/>
<g filter="url(#filter0_d_4147_313)">
<mask id="path-3-outside-1_4147_313" maskUnits="userSpaceOnUse" x="153.703" y="207.68" width="396" height="181" fill="black">
<rect fill="white" x="153.703" y="207.68" width="396" height="181"/>
<path d="M302.669 226.404H298.738V261.785H302.669V274.68H272.949V261.785H276.723V234.266L263.357 274.68H251.72L237.961 234.66V261.785H241.735V274.68H215.946V261.785H219.877V226.404H215.946V213.509H251.956L260.133 238.04L267.995 213.509H302.669V226.404ZM335.187 275.78C326.957 275.78 320.589 273.972 316.081 270.355C311.625 266.739 309.398 260.868 309.398 252.743V226.404H305.466V213.509H334.558V226.404H331.413V256.753C331.413 258.483 331.78 259.767 332.513 260.606C333.3 261.392 334.453 261.785 335.973 261.785C337.493 261.785 338.62 261.392 339.354 260.606C340.14 259.767 340.533 258.483 340.533 256.753V226.404H337.388V213.509H364.357V226.404H360.425V252.743C360.425 260.868 358.25 266.739 353.899 270.355C349.549 273.972 343.311 275.78 335.187 275.78ZM397.713 275.78C387.806 275.78 380.154 273.264 374.755 268.232C369.408 263.2 366.735 255.154 366.735 244.095C366.735 222.971 377.009 212.409 397.556 212.409C402.536 212.409 407.148 213.011 411.394 214.217C415.692 215.423 418.89 216.759 420.986 218.227V237.883H402.116V232.222C402.116 230.23 401.671 228.763 400.78 227.819C399.889 226.876 398.552 226.404 396.77 226.404C394.988 226.404 393.651 226.876 392.76 227.819C391.869 228.763 391.423 230.23 391.423 232.222V255.967C391.423 257.959 391.869 259.426 392.76 260.37C393.651 261.313 394.988 261.785 396.77 261.785C398.552 261.785 399.889 261.313 400.78 260.37C401.671 259.426 402.116 257.959 402.116 255.967V249.598H420.986V269.962C418.837 271.43 415.64 272.766 411.394 273.972C407.201 275.178 402.64 275.78 397.713 275.78ZM486.849 226.404H482.918V261.785H486.849V274.68H457.129V261.785H460.903V248.812H449.895V261.785H453.669V274.68H423.949V261.785H427.88V226.404H423.949V213.509H453.669V226.404H449.895V238.355H460.903V226.404H457.129V213.509H486.849V226.404ZM188.344 383.78C178.752 383.78 171.335 381.264 166.093 376.232C160.904 371.2 158.31 363.154 158.31 352.095C158.31 341.035 160.904 332.989 166.093 327.957C171.335 322.925 178.752 320.409 188.344 320.409C197.937 320.409 205.327 322.925 210.517 327.957C215.758 332.989 218.379 341.035 218.379 352.095C218.379 363.154 215.758 371.2 210.517 376.232C205.327 381.264 197.937 383.78 188.344 383.78ZM188.344 369.785C190.127 369.785 191.463 369.313 192.354 368.37C193.245 367.426 193.691 365.959 193.691 363.967V340.222C193.691 338.23 193.245 336.763 192.354 335.819C191.463 334.876 190.127 334.404 188.344 334.404C186.562 334.404 185.226 334.876 184.334 335.819C183.443 336.763 182.998 338.23 182.998 340.222V363.967C182.998 366.011 183.443 367.505 184.334 368.449C185.226 369.34 186.562 369.785 188.344 369.785ZM221.052 369.785H224.983V334.404H221.052V321.509H257.141C263.693 321.509 268.803 322.846 272.472 325.519C276.142 328.193 277.976 332.019 277.976 336.999C277.976 340.091 277.242 342.712 275.775 344.861C274.307 346.958 272.577 348.556 270.585 349.657C268.646 350.706 266.759 351.413 264.924 351.78V352.566C268.646 352.933 272.001 354.113 274.988 356.104C277.976 358.096 279.47 361.661 279.47 366.797C279.47 372.301 277.4 376.337 273.259 378.906C269.118 381.422 263.745 382.68 257.141 382.68H221.052V369.785ZM251.244 347.298C252.764 347.298 253.891 346.905 254.625 346.119C255.411 345.28 255.804 343.996 255.804 342.266V339.436C255.804 337.706 255.411 336.448 254.625 335.662C253.891 334.823 252.764 334.404 251.244 334.404H246.998V347.298H251.244ZM251.794 369.785C253.314 369.785 254.441 369.392 255.175 368.606C255.961 367.767 256.354 366.483 256.354 364.753V361.294C256.354 359.564 255.961 358.306 255.175 357.52C254.441 356.681 253.314 356.262 251.794 356.262H246.998V369.785H251.794ZM282.017 382.68V369.785H285.948V334.404H282.017V321.509H315.197V334.404H307.963V369.785H315.039V362.552H330.686V382.68H282.017ZM333.384 382.68V369.785H337.315V334.404H333.384V321.509H363.262V334.404H359.33V369.785H363.262V382.68H333.384ZM425.684 363.023H421.753V378.748C419.446 380.059 416.065 381.238 411.61 382.287C407.207 383.282 402.437 383.78 397.3 383.78C387.498 383.78 379.819 381.212 374.263 376.075C368.707 370.886 365.929 362.892 365.929 352.095C365.929 341.035 368.681 332.989 374.184 327.957C379.741 322.925 387.655 320.409 397.929 320.409C402.909 320.409 407.574 320.933 411.924 321.981C416.275 323.03 419.551 324.209 421.753 325.519V344.311H402.096V340.615C402.096 338.414 401.625 336.841 400.681 335.898C399.79 334.902 398.348 334.404 396.357 334.404C394.365 334.404 392.897 334.902 391.954 335.898C391.063 336.841 390.617 338.414 390.617 340.615V363.574C390.617 365.775 391.063 367.374 391.954 368.37C392.897 369.313 394.365 369.785 396.357 369.785C398.348 369.785 399.79 369.313 400.681 368.37C401.625 367.374 402.096 365.775 402.096 363.574V363.023H397.851V351.308H425.684V363.023ZM427.903 382.68V369.785H431.834V334.404H427.903V321.509H480.975V345.254H463.363V334.404H453.849V346.827H460.768V355.79H453.849V369.785H463.363V357.362H480.975V382.68H427.903ZM483.954 369.785H487.885V334.483H483.954V321.509H515.876C524.629 321.509 531.575 323.921 536.711 328.743C541.901 333.513 544.495 341.297 544.495 352.095C544.495 362.892 541.901 370.702 536.711 375.525C531.575 380.295 524.629 382.68 515.876 382.68H483.954V369.785ZM514.461 369.785C516.243 369.785 517.579 369.313 518.47 368.37C519.362 367.426 519.807 365.959 519.807 363.967V340.222C519.807 336.343 518.025 334.404 514.461 334.404H509.9V369.785H514.461Z"/>
</mask>
<path d="M302.669 226.404H298.738V261.785H302.669V274.68H272.949V261.785H276.723V234.266L263.357 274.68H251.72L237.961 234.66V261.785H241.735V274.68H215.946V261.785H219.877V226.404H215.946V213.509H251.956L260.133 238.04L267.995 213.509H302.669V226.404ZM335.187 275.78C326.957 275.78 320.589 273.972 316.081 270.355C311.625 266.739 309.398 260.868 309.398 252.743V226.404H305.466V213.509H334.558V226.404H331.413V256.753C331.413 258.483 331.78 259.767 332.513 260.606C333.3 261.392 334.453 261.785 335.973 261.785C337.493 261.785 338.62 261.392 339.354 260.606C340.14 259.767 340.533 258.483 340.533 256.753V226.404H337.388V213.509H364.357V226.404H360.425V252.743C360.425 260.868 358.25 266.739 353.899 270.355C349.549 273.972 343.311 275.78 335.187 275.78ZM397.713 275.78C387.806 275.78 380.154 273.264 374.755 268.232C369.408 263.2 366.735 255.154 366.735 244.095C366.735 222.971 377.009 212.409 397.556 212.409C402.536 212.409 407.148 213.011 411.394 214.217C415.692 215.423 418.89 216.759 420.986 218.227V237.883H402.116V232.222C402.116 230.23 401.671 228.763 400.78 227.819C399.889 226.876 398.552 226.404 396.77 226.404C394.988 226.404 393.651 226.876 392.76 227.819C391.869 228.763 391.423 230.23 391.423 232.222V255.967C391.423 257.959 391.869 259.426 392.76 260.37C393.651 261.313 394.988 261.785 396.77 261.785C398.552 261.785 399.889 261.313 400.78 260.37C401.671 259.426 402.116 257.959 402.116 255.967V249.598H420.986V269.962C418.837 271.43 415.64 272.766 411.394 273.972C407.201 275.178 402.64 275.78 397.713 275.78ZM486.849 226.404H482.918V261.785H486.849V274.68H457.129V261.785H460.903V248.812H449.895V261.785H453.669V274.68H423.949V261.785H427.88V226.404H423.949V213.509H453.669V226.404H449.895V238.355H460.903V226.404H457.129V213.509H486.849V226.404ZM188.344 383.78C178.752 383.78 171.335 381.264 166.093 376.232C160.904 371.2 158.31 363.154 158.31 352.095C158.31 341.035 160.904 332.989 166.093 327.957C171.335 322.925 178.752 320.409 188.344 320.409C197.937 320.409 205.327 322.925 210.517 327.957C215.758 332.989 218.379 341.035 218.379 352.095C218.379 363.154 215.758 371.2 210.517 376.232C205.327 381.264 197.937 383.78 188.344 383.78ZM188.344 369.785C190.127 369.785 191.463 369.313 192.354 368.37C193.245 367.426 193.691 365.959 193.691 363.967V340.222C193.691 338.23 193.245 336.763 192.354 335.819C191.463 334.876 190.127 334.404 188.344 334.404C186.562 334.404 185.226 334.876 184.334 335.819C183.443 336.763 182.998 338.23 182.998 340.222V363.967C182.998 366.011 183.443 367.505 184.334 368.449C185.226 369.34 186.562 369.785 188.344 369.785ZM221.052 369.785H224.983V334.404H221.052V321.509H257.141C263.693 321.509 268.803 322.846 272.472 325.519C276.142 328.193 277.976 332.019 277.976 336.999C277.976 340.091 277.242 342.712 275.775 344.861C274.307 346.958 272.577 348.556 270.585 349.657C268.646 350.706 266.759 351.413 264.924 351.78V352.566C268.646 352.933 272.001 354.113 274.988 356.104C277.976 358.096 279.47 361.661 279.47 366.797C279.47 372.301 277.4 376.337 273.259 378.906C269.118 381.422 263.745 382.68 257.141 382.68H221.052V369.785ZM251.244 347.298C252.764 347.298 253.891 346.905 254.625 346.119C255.411 345.28 255.804 343.996 255.804 342.266V339.436C255.804 337.706 255.411 336.448 254.625 335.662C253.891 334.823 252.764 334.404 251.244 334.404H246.998V347.298H251.244ZM251.794 369.785C253.314 369.785 254.441 369.392 255.175 368.606C255.961 367.767 256.354 366.483 256.354 364.753V361.294C256.354 359.564 255.961 358.306 255.175 357.52C254.441 356.681 253.314 356.262 251.794 356.262H246.998V369.785H251.794ZM282.017 382.68V369.785H285.948V334.404H282.017V321.509H315.197V334.404H307.963V369.785H315.039V362.552H330.686V382.68H282.017ZM333.384 382.68V369.785H337.315V334.404H333.384V321.509H363.262V334.404H359.33V369.785H363.262V382.68H333.384ZM425.684 363.023H421.753V378.748C419.446 380.059 416.065 381.238 411.61 382.287C407.207 383.282 402.437 383.78 397.3 383.78C387.498 383.78 379.819 381.212 374.263 376.075C368.707 370.886 365.929 362.892 365.929 352.095C365.929 341.035 368.681 332.989 374.184 327.957C379.741 322.925 387.655 320.409 397.929 320.409C402.909 320.409 407.574 320.933 411.924 321.981C416.275 323.03 419.551 324.209 421.753 325.519V344.311H402.096V340.615C402.096 338.414 401.625 336.841 400.681 335.898C399.79 334.902 398.348 334.404 396.357 334.404C394.365 334.404 392.897 334.902 391.954 335.898C391.063 336.841 390.617 338.414 390.617 340.615V363.574C390.617 365.775 391.063 367.374 391.954 368.37C392.897 369.313 394.365 369.785 396.357 369.785C398.348 369.785 399.79 369.313 400.681 368.37C401.625 367.374 402.096 365.775 402.096 363.574V363.023H397.851V351.308H425.684V363.023ZM427.903 382.68V369.785H431.834V334.404H427.903V321.509H480.975V345.254H463.363V334.404H453.849V346.827H460.768V355.79H453.849V369.785H463.363V357.362H480.975V382.68H427.903ZM483.954 369.785H487.885V334.483H483.954V321.509H515.876C524.629 321.509 531.575 323.921 536.711 328.743C541.901 333.513 544.495 341.297 544.495 352.095C544.495 362.892 541.901 370.702 536.711 375.525C531.575 380.295 524.629 382.68 515.876 382.68H483.954V369.785ZM514.461 369.785C516.243 369.785 517.579 369.313 518.47 368.37C519.362 367.426 519.807 365.959 519.807 363.967V340.222C519.807 336.343 518.025 334.404 514.461 334.404H509.9V369.785H514.461Z" fill="white"/>
<path d="M302.669 226.404V230.736H307.001V226.404H302.669ZM298.738 226.404V222.072H294.406V226.404H298.738ZM298.738 261.785H294.406V266.117H298.738V261.785ZM302.669 261.785H307.001V257.453H302.669V261.785ZM302.669 274.68V279.011H307.001V274.68H302.669ZM272.949 274.68H268.617V279.011H272.949V274.68ZM272.949 261.785V257.453H268.617V261.785H272.949ZM276.723 261.785V266.117H281.055V261.785H276.723ZM276.723 234.266H281.055L272.61 232.906L276.723 234.266ZM263.357 274.68V279.011H266.486L267.469 276.04L263.357 274.68ZM251.72 274.68L247.624 276.088L248.629 279.011H251.72V274.68ZM237.961 234.66L242.057 233.251L233.629 234.66H237.961ZM237.961 261.785H233.629V266.117H237.961V261.785ZM241.735 261.785H246.066V257.453H241.735V261.785ZM241.735 274.68V279.011H246.066V274.68H241.735ZM215.946 274.68H211.614V279.011H215.946V274.68ZM215.946 261.785V257.453H211.614V261.785H215.946ZM219.877 261.785V266.117H224.209V261.785H219.877ZM219.877 226.404H224.209V222.072H219.877V226.404ZM215.946 226.404H211.614V230.736H215.946V226.404ZM215.946 213.509V209.178H211.614V213.509H215.946ZM251.956 213.509L256.065 212.14L255.078 209.178H251.956V213.509ZM260.133 238.04L256.024 239.41L260.214 251.981L264.258 239.363L260.133 238.04ZM267.995 213.509V209.178H264.835L263.87 212.187L267.995 213.509ZM302.669 213.509H307.001V209.178H302.669V213.509ZM302.669 222.072H298.738V230.736H302.669V222.072ZM294.406 226.404V261.785H303.07V226.404H294.406ZM298.738 266.117H302.669V257.453H298.738V266.117ZM298.337 261.785V274.68H307.001V261.785H298.337ZM302.669 270.348H272.949V279.011H302.669V270.348ZM277.281 274.68V261.785H268.617V274.68H277.281ZM272.949 266.117H276.723V257.453H272.949V266.117ZM281.055 261.785V234.266H272.391V261.785H281.055ZM272.61 232.906L259.244 273.319L267.469 276.04L280.835 235.627L272.61 232.906ZM263.357 270.348H251.72V279.011H263.357V270.348ZM255.816 273.271L242.057 233.251L233.864 236.068L247.624 276.088L255.816 273.271ZM233.629 234.66V261.785H242.292V234.66H233.629ZM237.961 266.117H241.735V257.453H237.961V266.117ZM237.403 261.785V274.68H246.066V261.785H237.403ZM241.735 270.348H215.946V279.011H241.735V270.348ZM220.277 274.68V261.785H211.614V274.68H220.277ZM215.946 266.117H219.877V257.453H215.946V266.117ZM224.209 261.785V226.404H215.545V261.785H224.209ZM219.877 222.072H215.946V230.736H219.877V222.072ZM220.277 226.404V213.509H211.614V226.404H220.277ZM215.946 217.841H251.956V209.178H215.946V217.841ZM247.847 214.879L256.024 239.41L264.242 236.671L256.065 212.14L247.847 214.879ZM264.258 239.363L272.121 214.832L263.87 212.187L256.008 236.718L264.258 239.363ZM267.995 217.841H302.669V209.178H267.995V217.841ZM298.337 213.509V226.404H307.001V213.509H298.337ZM316.081 270.355L313.351 273.718L313.36 273.726L313.37 273.734L316.081 270.355ZM309.398 226.404H313.729V222.072H309.398V226.404ZM305.466 226.404H301.135V230.736H305.466V226.404ZM305.466 213.509V209.178H301.135V213.509H305.466ZM334.558 213.509H338.889V209.178H334.558V213.509ZM334.558 226.404V230.736H338.889V226.404H334.558ZM331.413 226.404V222.072H327.081V226.404H331.413ZM332.513 260.606L329.253 263.458L329.348 263.567L329.45 263.669L332.513 260.606ZM339.354 260.606L336.194 257.643L336.187 257.65L339.354 260.606ZM340.533 226.404H344.865V222.072H340.533V226.404ZM337.388 226.404H333.056V230.736H337.388V226.404ZM337.388 213.509V209.178H333.056V213.509H337.388ZM364.357 213.509H368.688V209.178H364.357V213.509ZM364.357 226.404V230.736H368.688V226.404H364.357ZM360.425 226.404V222.072H356.094V226.404H360.425ZM353.899 270.355L351.13 267.024L353.899 270.355ZM335.187 271.449C327.534 271.449 322.263 269.762 318.792 266.977L313.37 273.734C318.914 278.182 326.38 280.112 335.187 280.112V271.449ZM318.811 266.992C315.74 264.499 313.729 260.13 313.729 252.743H305.066C305.066 261.605 307.511 268.978 313.351 273.718L318.811 266.992ZM313.729 252.743V226.404H305.066V252.743H313.729ZM309.398 222.072H305.466V230.736H309.398V222.072ZM309.798 226.404V213.509H301.135V226.404H309.798ZM305.466 217.841H334.558V209.178H305.466V217.841ZM330.226 213.509V226.404H338.889V213.509H330.226ZM334.558 222.072H331.413V230.736H334.558V222.072ZM327.081 226.404V256.753H335.744V226.404H327.081ZM327.081 256.753C327.081 258.978 327.535 261.494 329.253 263.458L335.773 257.753C335.902 257.901 335.895 257.972 335.853 257.824C335.807 257.663 335.744 257.327 335.744 256.753H327.081ZM329.45 263.669C331.31 265.529 333.736 266.117 335.973 266.117V257.453C335.576 257.453 335.397 257.401 335.366 257.39C335.354 257.386 335.377 257.393 335.423 257.421C335.469 257.449 335.524 257.49 335.576 257.543L329.45 263.669ZM335.973 266.117C338.186 266.117 340.676 265.538 342.521 263.561L336.187 257.65C336.261 257.571 336.34 257.508 336.411 257.463C336.48 257.419 336.526 257.402 336.531 257.4C336.535 257.399 336.497 257.413 336.403 257.427C336.309 257.441 336.168 257.453 335.973 257.453V266.117ZM342.514 263.568C344.356 261.603 344.865 259.041 344.865 256.753H336.201C336.201 257.305 336.137 257.613 336.096 257.746C336.061 257.861 336.064 257.781 336.194 257.643L342.514 263.568ZM344.865 256.753V226.404H336.201V256.753H344.865ZM340.533 222.072H337.388V230.736H340.533V222.072ZM341.72 226.404V213.509H333.056V226.404H341.72ZM337.388 217.841H364.357V209.178H337.388V217.841ZM360.025 213.509V226.404H368.688V213.509H360.025ZM364.357 222.072H360.425V230.736H364.357V222.072ZM356.094 226.404V252.743H364.757V226.404H356.094ZM356.094 252.743C356.094 260.162 354.117 264.541 351.13 267.024L356.669 273.686C362.383 268.936 364.757 261.574 364.757 252.743H356.094ZM351.13 267.024C347.835 269.764 342.732 271.449 335.187 271.449V280.112C343.891 280.112 351.263 278.181 356.669 273.686L351.13 267.024ZM374.755 268.232L371.786 271.387L371.794 271.394L371.801 271.401L374.755 268.232ZM411.394 214.217L410.211 218.384L410.224 218.388L411.394 214.217ZM420.986 218.227H425.318V215.972L423.47 214.678L420.986 218.227ZM420.986 237.883V242.215H425.318V237.883H420.986ZM402.116 237.883H397.784V242.215H402.116V237.883ZM400.78 227.819L403.929 224.845L403.929 224.845L400.78 227.819ZM392.76 227.819L395.909 230.793L395.909 230.793L392.76 227.819ZM392.76 260.37L395.909 257.396L395.909 257.396L392.76 260.37ZM400.78 260.37L403.929 263.344L403.929 263.344L400.78 260.37ZM402.116 249.598V245.267H397.784V249.598H402.116ZM420.986 249.598H425.318V245.267H420.986V249.598ZM420.986 269.962L423.429 273.539L425.318 272.249V269.962H420.986ZM411.394 273.972L410.211 269.805L410.204 269.807L410.197 269.809L411.394 273.972ZM397.713 271.449C388.52 271.449 382.063 269.123 377.708 265.064L371.801 271.401C378.244 277.406 387.093 280.112 397.713 280.112V271.449ZM377.724 265.078C373.605 261.202 371.067 254.562 371.067 244.095H362.403C362.403 255.747 365.211 265.199 371.786 271.387L377.724 265.078ZM371.067 244.095C371.067 234.171 373.481 227.529 377.545 223.35C381.588 219.194 387.981 216.74 397.556 216.74V208.077C386.584 208.077 377.566 210.904 371.335 217.31C365.126 223.693 362.403 232.894 362.403 244.095H371.067ZM397.556 216.74C402.186 216.74 406.396 217.301 410.211 218.384L412.577 210.05C407.901 208.722 402.885 208.077 397.556 208.077V216.74ZM410.224 218.388C414.348 219.544 416.997 220.722 418.502 221.776L423.47 214.678C420.782 212.797 417.037 211.301 412.564 210.046L410.224 218.388ZM416.654 218.227V237.883H425.318V218.227H416.654ZM420.986 233.551H402.116V242.215H420.986V233.551ZM406.448 237.883V232.222H397.784V237.883H406.448ZM406.448 232.222C406.448 229.699 405.899 226.93 403.929 224.845L397.63 230.793C397.539 230.697 397.574 230.677 397.637 230.886C397.705 231.111 397.784 231.533 397.784 232.222H406.448ZM403.929 224.845C401.95 222.75 399.285 222.072 396.77 222.072V230.736C397.291 230.736 397.564 230.806 397.667 230.843C397.747 230.871 397.7 230.867 397.63 230.793L403.929 224.845ZM396.77 222.072C394.255 222.072 391.589 222.75 389.611 224.845L395.909 230.793C395.839 230.867 395.792 230.871 395.872 230.843C395.976 230.806 396.249 230.736 396.77 230.736V222.072ZM389.611 224.845C387.641 226.93 387.091 229.699 387.091 232.222H395.755C395.755 231.533 395.834 231.111 395.902 230.886C395.966 230.677 396 230.697 395.909 230.793L389.611 224.845ZM387.091 232.222V255.967H395.755V232.222H387.091ZM387.091 255.967C387.091 258.491 387.641 261.259 389.611 263.344L395.909 257.396C396 257.492 395.966 257.512 395.902 257.303C395.834 257.078 395.755 256.656 395.755 255.967H387.091ZM389.611 263.344C391.589 265.439 394.255 266.117 396.77 266.117V257.453C396.249 257.453 395.976 257.383 395.872 257.347C395.792 257.318 395.839 257.322 395.909 257.396L389.611 263.344ZM396.77 266.117C399.285 266.117 401.95 265.439 403.929 263.344L397.63 257.396C397.7 257.322 397.747 257.318 397.667 257.347C397.564 257.383 397.291 257.453 396.77 257.453V266.117ZM403.929 263.344C405.899 261.259 406.448 258.491 406.448 255.967H397.784C397.784 256.656 397.705 257.078 397.637 257.303C397.574 257.512 397.539 257.492 397.63 257.396L403.929 263.344ZM406.448 255.967V249.598H397.784V255.967H406.448ZM402.116 253.93H420.986V245.267H402.116V253.93ZM416.654 249.598V269.962H425.318V249.598H416.654ZM418.543 266.385C416.956 267.469 414.274 268.651 410.211 269.805L412.577 278.139C417.005 276.882 420.718 275.391 423.429 273.539L418.543 266.385ZM410.197 269.809C406.439 270.889 402.287 271.449 397.713 271.449V280.112C402.994 280.112 407.962 279.466 412.591 278.135L410.197 269.809ZM486.849 226.404V230.736H491.181V226.404H486.849ZM482.918 226.404V222.072H478.586V226.404H482.918ZM482.918 261.785H478.586V266.117H482.918V261.785ZM486.849 261.785H491.181V257.453H486.849V261.785ZM486.849 274.68V279.011H491.181V274.68H486.849ZM457.129 274.68H452.797V279.011H457.129V274.68ZM457.129 261.785V257.453H452.797V261.785H457.129ZM460.903 261.785V266.117H465.234V261.785H460.903ZM460.903 248.812H465.234V244.48H460.903V248.812ZM449.895 248.812V244.48H445.563V248.812H449.895ZM449.895 261.785H445.563V266.117H449.895V261.785ZM453.669 261.785H458.001V257.453H453.669V261.785ZM453.669 274.68V279.011H458.001V274.68H453.669ZM423.949 274.68H419.617V279.011H423.949V274.68ZM423.949 261.785V257.453H419.617V261.785H423.949ZM427.88 261.785V266.117H432.212V261.785H427.88ZM427.88 226.404H432.212V222.072H427.88V226.404ZM423.949 226.404H419.617V230.736H423.949V226.404ZM423.949 213.509V209.178H419.617V213.509H423.949ZM453.669 213.509H458.001V209.178H453.669V213.509ZM453.669 226.404V230.736H458.001V226.404H453.669ZM449.895 226.404V222.072H445.563V226.404H449.895ZM449.895 238.355H445.563V242.687H449.895V238.355ZM460.903 238.355V242.687H465.234V238.355H460.903ZM460.903 226.404H465.234V222.072H460.903V226.404ZM457.129 226.404H452.797V230.736H457.129V226.404ZM457.129 213.509V209.178H452.797V213.509H457.129ZM486.849 213.509H491.181V209.178H486.849V213.509ZM486.849 222.072H482.918V230.736H486.849V222.072ZM478.586 226.404V261.785H487.249V226.404H478.586ZM482.918 266.117H486.849V257.453H482.918V266.117ZM482.517 261.785V274.68H491.181V261.785H482.517ZM486.849 270.348H457.129V279.011H486.849V270.348ZM461.46 274.68V261.785H452.797V274.68H461.46ZM457.129 266.117H460.903V257.453H457.129V266.117ZM465.234 261.785V248.812H456.571V261.785H465.234ZM460.903 244.48H449.895V253.144H460.903V244.48ZM445.563 248.812V261.785H454.227V248.812H445.563ZM449.895 266.117H453.669V257.453H449.895V266.117ZM449.337 261.785V274.68H458.001V261.785H449.337ZM453.669 270.348H423.949V279.011H453.669V270.348ZM428.281 274.68V261.785H419.617V274.68H428.281ZM423.949 266.117H427.88V257.453H423.949V266.117ZM432.212 261.785V226.404H423.548V261.785H432.212ZM427.88 222.072H423.949V230.736H427.88V222.072ZM428.281 226.404V213.509H419.617V226.404H428.281ZM423.949 217.841H453.669V209.178H423.949V217.841ZM449.337 213.509V226.404H458.001V213.509H449.337ZM453.669 222.072H449.895V230.736H453.669V222.072ZM445.563 226.404V238.355H454.227V226.404H445.563ZM449.895 242.687H460.903V234.023H449.895V242.687ZM465.234 238.355V226.404H456.571V238.355H465.234ZM460.903 222.072H457.129V230.736H460.903V222.072ZM461.46 226.404V213.509H452.797V226.404H461.46ZM457.129 217.841H486.849V209.178H457.129V217.841ZM482.517 213.509V226.404H491.181V213.509H482.517ZM166.093 376.232L163.078 379.342L163.086 379.35L163.094 379.357L166.093 376.232ZM166.093 327.957L163.094 324.832L163.086 324.839L163.078 324.847L166.093 327.957ZM210.517 327.957L207.501 331.066L207.509 331.074L207.517 331.082L210.517 327.957ZM210.517 376.232L207.517 373.108L207.509 373.115L207.501 373.123L210.517 376.232ZM192.354 368.37L195.503 371.344L195.503 371.344L192.354 368.37ZM192.354 335.819L195.503 332.845L195.503 332.845L192.354 335.819ZM184.334 335.819L187.484 338.793L187.484 338.793L184.334 335.819ZM184.334 368.449L181.185 371.423L181.228 371.468L181.271 371.512L184.334 368.449ZM188.344 379.449C179.502 379.449 173.297 377.143 169.093 373.108L163.094 379.357C169.374 385.386 178.003 388.112 188.344 388.112V379.449ZM169.109 373.123C165.117 369.252 162.641 362.594 162.641 352.095H153.978C153.978 363.715 156.691 373.149 163.078 379.342L169.109 373.123ZM162.641 352.095C162.641 341.595 165.117 334.937 169.109 331.066L163.078 324.847C156.691 331.04 153.978 340.475 153.978 352.095H162.641ZM169.093 331.082C173.297 327.046 179.502 324.74 188.344 324.74V316.077C178.003 316.077 169.374 318.803 163.094 324.832L169.093 331.082ZM188.344 324.74C197.19 324.74 203.357 327.047 207.501 331.066L213.532 324.847C207.298 318.802 198.683 316.077 188.344 316.077V324.74ZM207.517 331.082C211.551 334.954 214.047 341.605 214.047 352.095H222.711C222.711 340.464 219.966 331.023 213.516 324.832L207.517 331.082ZM214.047 352.095C214.047 362.584 211.551 369.235 207.517 373.108L213.516 379.357C219.966 373.166 222.711 363.725 222.711 352.095H214.047ZM207.501 373.123C203.357 377.142 197.19 379.449 188.344 379.449V388.112C198.683 388.112 207.298 385.387 213.532 379.342L207.501 373.123ZM188.344 374.117C190.86 374.117 193.525 373.439 195.503 371.344L189.205 365.396C189.275 365.322 189.322 365.318 189.242 365.347C189.138 365.383 188.865 365.453 188.344 365.453V374.117ZM195.503 371.344C197.473 369.259 198.023 366.491 198.023 363.967H189.359C189.359 364.656 189.28 365.078 189.212 365.303C189.148 365.512 189.114 365.492 189.205 365.396L195.503 371.344ZM198.023 363.967V340.222H189.359V363.967H198.023ZM198.023 340.222C198.023 337.699 197.473 334.93 195.503 332.845L189.205 338.793C189.114 338.697 189.148 338.677 189.212 338.886C189.28 339.111 189.359 339.533 189.359 340.222H198.023ZM195.503 332.845C193.525 330.75 190.86 330.072 188.344 330.072V338.736C188.865 338.736 189.138 338.806 189.242 338.843C189.322 338.871 189.275 338.867 189.205 338.793L195.503 332.845ZM188.344 330.072C185.829 330.072 183.164 330.75 181.185 332.845L187.484 338.793C187.414 338.867 187.367 338.871 187.447 338.843C187.55 338.806 187.823 338.736 188.344 338.736V330.072ZM181.185 332.845C179.216 334.93 178.666 337.699 178.666 340.222H187.33C187.33 339.533 187.409 339.111 187.477 338.886C187.54 338.677 187.575 338.697 187.484 338.793L181.185 332.845ZM178.666 340.222V363.967H187.33V340.222H178.666ZM178.666 363.967C178.666 366.506 179.199 369.32 181.185 371.423L187.484 365.474C187.588 365.585 187.551 365.61 187.483 365.382C187.411 365.14 187.33 364.692 187.33 363.967H178.666ZM181.271 371.512C183.261 373.502 185.894 374.117 188.344 374.117V365.453C187.801 365.453 187.503 365.384 187.375 365.342C187.269 365.306 187.314 365.302 187.397 365.386L181.271 371.512ZM221.052 369.785V365.453H216.72V369.785H221.052ZM224.983 369.785V374.117H229.315V369.785H224.983ZM224.983 334.404H229.315V330.072H224.983V334.404ZM221.052 334.404H216.72V338.736H221.052V334.404ZM221.052 321.509V317.178H216.72V321.509H221.052ZM275.775 344.861L279.323 347.345L279.338 347.325L279.352 347.304L275.775 344.861ZM270.585 349.657L272.645 353.468L272.663 353.458L272.681 353.449L270.585 349.657ZM264.924 351.78L264.075 347.532L260.593 348.229V351.78H264.924ZM264.924 352.566H260.593V356.492L264.499 356.877L264.924 352.566ZM274.988 356.104L277.391 352.5L277.391 352.5L274.988 356.104ZM273.259 378.906L275.508 382.608L275.525 382.597L275.542 382.587L273.259 378.906ZM221.052 382.68H216.72V387.011H221.052V382.68ZM254.625 346.119L251.464 343.156L251.458 343.163L254.625 346.119ZM254.625 335.662L251.365 338.514L251.46 338.623L251.562 338.725L254.625 335.662ZM246.998 334.404V330.072H242.666V334.404H246.998ZM246.998 347.298H242.666V351.63H246.998V347.298ZM255.175 368.606L252.015 365.643L252.008 365.65L255.175 368.606ZM255.175 357.52L251.915 360.372L252.01 360.481L252.112 360.583L255.175 357.52ZM246.998 356.262V351.93H242.666V356.262H246.998ZM246.998 369.785H242.666V374.117H246.998V369.785ZM221.052 374.117H224.983V365.453H221.052V374.117ZM229.315 369.785V334.404H220.651V369.785H229.315ZM224.983 330.072H221.052V338.736H224.983V330.072ZM225.383 334.404V321.509H216.72V334.404H225.383ZM221.052 325.841H257.141V317.178H221.052V325.841ZM257.141 325.841C263.167 325.841 267.257 327.079 269.922 329.02L275.023 322.018C270.35 318.613 264.219 317.178 257.141 317.178V325.841ZM269.922 329.02C272.352 330.791 273.644 333.248 273.644 336.999H282.308C282.308 330.79 279.932 325.594 275.023 322.018L269.922 329.02ZM273.644 336.999C273.644 339.387 273.087 341.116 272.198 342.418L279.352 347.304C281.398 344.308 282.308 340.795 282.308 336.999H273.644ZM272.226 342.377C271.089 344.001 269.836 345.122 268.49 345.866L272.681 353.449C275.319 351.991 277.525 349.915 279.323 347.345L272.226 342.377ZM268.526 345.847C266.9 346.725 265.419 347.264 264.075 347.532L265.774 356.028C268.099 355.563 270.392 354.686 272.645 353.468L268.526 345.847ZM260.593 351.78V352.566H269.256V351.78H260.593ZM264.499 356.877C267.544 357.177 270.214 358.128 272.586 359.709L277.391 352.5C273.787 350.098 269.748 348.689 265.35 348.255L264.499 356.877ZM272.586 359.709C273.899 360.584 275.138 362.436 275.138 366.797H283.802C283.802 360.885 282.053 355.608 277.391 352.5L272.586 359.709ZM275.138 366.797C275.138 371.033 273.659 373.56 270.976 375.225L275.542 382.587C281.141 379.114 283.802 373.57 283.802 366.797H275.138ZM271.009 375.204C267.75 377.184 263.229 378.348 257.141 378.348V387.011C264.261 387.011 270.486 385.659 275.508 382.608L271.009 375.204ZM257.141 378.348H221.052V387.011H257.141V378.348ZM225.383 382.68V369.785H216.72V382.68H225.383ZM251.244 351.63C253.457 351.63 255.947 351.051 257.791 349.075L251.458 343.163C251.532 343.084 251.61 343.021 251.682 342.976C251.751 342.932 251.797 342.915 251.802 342.914C251.806 342.912 251.767 342.926 251.674 342.94C251.58 342.954 251.439 342.967 251.244 342.967V351.63ZM257.785 349.082C259.627 347.116 260.136 344.554 260.136 342.266H251.472C251.472 342.818 251.408 343.126 251.367 343.259C251.332 343.375 251.335 343.294 251.464 343.156L257.785 349.082ZM260.136 342.266V339.436H251.472V342.266H260.136ZM260.136 339.436C260.136 337.179 259.64 334.551 257.688 332.599L251.562 338.725C251.376 338.539 251.348 338.403 251.375 338.487C251.407 338.591 251.472 338.881 251.472 339.436H260.136ZM257.885 332.809C256.059 330.724 253.537 330.072 251.244 330.072V338.736C251.618 338.736 251.747 338.789 251.718 338.778C251.7 338.771 251.647 338.749 251.574 338.7C251.501 338.651 251.428 338.587 251.365 338.514L257.885 332.809ZM251.244 330.072H246.998V338.736H251.244V330.072ZM242.666 334.404V347.298H251.33V334.404H242.666ZM246.998 351.63H251.244V342.967H246.998V351.63ZM251.794 374.117C254.007 374.117 256.497 373.538 258.342 371.561L252.008 365.65C252.082 365.571 252.161 365.508 252.232 365.463C252.302 365.419 252.347 365.402 252.353 365.4C252.356 365.399 252.318 365.413 252.224 365.427C252.13 365.441 251.989 365.453 251.794 365.453V374.117ZM258.335 371.568C260.178 369.603 260.686 367.041 260.686 364.753H252.023C252.023 365.305 251.958 365.613 251.918 365.746C251.882 365.861 251.885 365.781 252.015 365.643L258.335 371.568ZM260.686 364.753V361.294H252.023V364.753H260.686ZM260.686 361.294C260.686 359.037 260.19 356.409 258.238 354.457L252.112 360.583C251.926 360.397 251.899 360.261 251.925 360.345C251.957 360.449 252.023 360.738 252.023 361.294H260.686ZM258.435 354.667C256.61 352.581 254.087 351.93 251.794 351.93V360.593C252.169 360.593 252.297 360.647 252.269 360.636C252.25 360.629 252.197 360.607 252.125 360.558C252.051 360.508 251.979 360.445 251.915 360.372L258.435 354.667ZM251.794 351.93H246.998V360.593H251.794V351.93ZM242.666 356.262V369.785H251.33V356.262H242.666ZM246.998 374.117H251.794V365.453H246.998V374.117ZM282.017 382.68H277.685V387.011H282.017V382.68ZM282.017 369.785V365.453H277.685V369.785H282.017ZM285.948 369.785V374.117H290.28V369.785H285.948ZM285.948 334.404H290.28V330.072H285.948V334.404ZM282.017 334.404H277.685V338.736H282.017V334.404ZM282.017 321.509V317.178H277.685V321.509H282.017ZM315.197 321.509H319.528V317.178H315.197V321.509ZM315.197 334.404V338.736H319.528V334.404H315.197ZM307.963 334.404V330.072H303.631V334.404H307.963ZM307.963 369.785H303.631V374.117H307.963V369.785ZM315.039 369.785V374.117H319.371V369.785H315.039ZM315.039 362.552V358.22H310.708V362.552H315.039ZM330.686 362.552H335.017V358.22H330.686V362.552ZM330.686 382.68V387.011H335.017V382.68H330.686ZM286.349 382.68V369.785H277.685V382.68H286.349ZM282.017 374.117H285.948V365.453H282.017V374.117ZM290.28 369.785V334.404H281.616V369.785H290.28ZM285.948 330.072H282.017V338.736H285.948V330.072ZM286.349 334.404V321.509H277.685V334.404H286.349ZM282.017 325.841H315.197V317.178H282.017V325.841ZM310.865 321.509V334.404H319.528V321.509H310.865ZM315.197 330.072H307.963V338.736H315.197V330.072ZM303.631 334.404V369.785H312.295V334.404H303.631ZM307.963 374.117H315.039V365.453H307.963V374.117ZM319.371 369.785V362.552H310.708V369.785H319.371ZM315.039 366.883H330.686V358.22H315.039V366.883ZM326.354 362.552V382.68H335.017V362.552H326.354ZM330.686 378.348H282.017V387.011H330.686V378.348ZM333.384 382.68H329.052V387.011H333.384V382.68ZM333.384 369.785V365.453H329.052V369.785H333.384ZM337.315 369.785V374.117H341.647V369.785H337.315ZM337.315 334.404H341.647V330.072H337.315V334.404ZM333.384 334.404H329.052V338.736H333.384V334.404ZM333.384 321.509V317.178H329.052V321.509H333.384ZM363.262 321.509H367.593V317.178H363.262V321.509ZM363.262 334.404V338.736H367.593V334.404H363.262ZM359.33 334.404V330.072H354.999V334.404H359.33ZM359.33 369.785H354.999V374.117H359.33V369.785ZM363.262 369.785H367.593V365.453H363.262V369.785ZM363.262 382.68V387.011H367.593V382.68H363.262ZM337.716 382.68V369.785H329.052V382.68H337.716ZM333.384 374.117H337.315V365.453H333.384V374.117ZM341.647 369.785V334.404H332.984V369.785H341.647ZM337.315 330.072H333.384V338.736H337.315V330.072ZM337.716 334.404V321.509H329.052V334.404H337.716ZM333.384 325.841H363.262V317.178H333.384V325.841ZM358.93 321.509V334.404H367.593V321.509H358.93ZM363.262 330.072H359.33V338.736H363.262V330.072ZM354.999 334.404V369.785H363.662V334.404H354.999ZM359.33 374.117H363.262V365.453H359.33V374.117ZM358.93 369.785V382.68H367.593V369.785H358.93ZM363.262 378.348H333.384V387.011H363.262V378.348ZM425.684 363.023V367.355H430.016V363.023H425.684ZM421.753 363.023V358.692H417.421V363.023H421.753ZM421.753 378.748L423.892 382.515L426.084 381.269V378.748H421.753ZM411.61 382.287L412.566 386.512L412.584 386.507L412.602 386.503L411.61 382.287ZM374.263 376.075L371.306 379.241L371.314 379.248L371.322 379.256L374.263 376.075ZM374.184 327.957L371.277 324.746L371.269 324.753L371.261 324.76L374.184 327.957ZM411.924 321.981L410.91 326.192L410.91 326.192L411.924 321.981ZM421.753 325.519H426.084V323.057L423.968 321.797L421.753 325.519ZM421.753 344.311V348.642H426.084V344.311H421.753ZM402.096 344.311H397.765V348.642H402.096V344.311ZM400.681 335.898L397.453 338.786L397.533 338.876L397.618 338.961L400.681 335.898ZM391.954 335.898L388.809 332.919L388.804 332.924L391.954 335.898ZM391.954 368.37L388.725 371.258L388.806 371.348L388.891 371.433L391.954 368.37ZM400.681 368.37L397.536 365.391L397.532 365.396L400.681 368.37ZM402.096 363.023H406.428V358.692H402.096V363.023ZM397.851 363.023H393.519V367.355H397.851V363.023ZM397.851 351.308V346.977H393.519V351.308H397.851ZM425.684 351.308H430.016V346.977H425.684V351.308ZM425.684 358.692H421.753V367.355H425.684V358.692ZM417.421 363.023V378.748H426.084V363.023H417.421ZM419.613 374.982C417.834 375.993 414.917 377.058 410.618 378.07L412.602 386.503C417.213 385.418 421.059 384.125 423.892 382.515L419.613 374.982ZM410.654 378.062C406.604 378.978 402.159 379.449 397.3 379.449V388.112C402.715 388.112 407.809 387.587 412.566 386.512L410.654 378.062ZM397.3 379.449C388.256 379.449 381.745 377.093 377.204 372.895L371.322 379.256C377.893 385.331 386.74 388.112 397.3 388.112V379.449ZM377.22 372.909C372.857 368.835 370.261 362.207 370.261 352.095H361.597C361.597 363.578 364.557 372.937 371.306 379.241L377.22 372.909ZM370.261 352.095C370.261 341.659 372.86 335.037 377.107 331.154L371.261 324.76C364.501 330.941 361.597 340.41 361.597 352.095H370.261ZM377.092 331.167C381.597 327.087 388.329 324.74 397.929 324.74V316.077C386.982 316.077 377.884 318.762 371.277 324.746L377.092 331.167ZM397.929 324.74C402.605 324.74 406.926 325.233 410.91 326.192L412.939 317.77C408.221 316.633 403.213 316.077 397.929 316.077V324.74ZM410.91 326.192C415.103 327.203 417.887 328.26 419.537 329.242L423.968 321.797C421.215 320.158 417.447 318.856 412.939 317.77L410.91 326.192ZM417.421 325.519V344.311H426.084V325.519H417.421ZM421.753 339.979H402.096V348.642H421.753V339.979ZM406.428 344.311V340.615H397.765V344.311H406.428ZM406.428 340.615C406.428 337.974 405.892 334.983 403.744 332.835L397.618 338.961C397.479 338.822 397.517 338.774 397.593 339.03C397.675 339.301 397.765 339.802 397.765 340.615H406.428ZM403.909 333.009C401.863 330.722 398.971 330.072 396.357 330.072V338.736C397.01 338.736 397.367 338.82 397.517 338.872C397.64 338.914 397.565 338.912 397.453 338.786L403.909 333.009ZM396.357 330.072C393.718 330.072 390.881 330.732 388.809 332.919L395.098 338.877C395.026 338.953 394.999 338.932 395.154 338.879C395.332 338.819 395.706 338.736 396.357 338.736V330.072ZM388.804 332.924C386.774 335.073 386.285 338.024 386.285 340.615H394.949C394.949 339.785 395.035 339.261 395.119 338.966C395.2 338.68 395.245 338.722 395.103 338.872L388.804 332.924ZM386.285 340.615V363.574H394.949V340.615H386.285ZM386.285 363.574C386.285 366.196 386.787 369.092 388.725 371.258L395.182 365.482C395.273 365.584 395.211 365.572 395.124 365.261C395.035 364.941 394.949 364.401 394.949 363.574H386.285ZM388.891 371.433C390.972 373.514 393.776 374.117 396.357 374.117V365.453C394.953 365.453 394.823 365.113 395.017 365.307L388.891 371.433ZM396.357 374.117C398.911 374.117 401.771 373.525 403.83 371.344L397.532 365.396C397.66 365.26 397.735 365.265 397.584 365.314C397.41 365.371 397.03 365.453 396.357 365.453V374.117ZM403.826 371.349C405.88 369.181 406.428 366.245 406.428 363.574H397.765C397.765 364.384 397.676 364.901 397.588 365.198C397.504 365.481 397.447 365.485 397.536 365.391L403.826 371.349ZM406.428 363.574V363.023H397.765V363.574H406.428ZM402.096 358.692H397.851V367.355H402.096V358.692ZM402.182 363.023V351.308H393.519V363.023H402.182ZM397.851 355.64H425.684V346.977H397.851V355.64ZM421.352 351.308V363.023H430.016V351.308H421.352ZM427.903 382.68H423.571V387.011H427.903V382.68ZM427.903 369.785V365.453H423.571V369.785H427.903ZM431.834 369.785V374.117H436.166V369.785H431.834ZM431.834 334.404H436.166V330.072H431.834V334.404ZM427.903 334.404H423.571V338.736H427.903V334.404ZM427.903 321.509V317.178H423.571V321.509H427.903ZM480.975 321.509H485.307V317.178H480.975V321.509ZM480.975 345.254V349.586H485.307V345.254H480.975ZM463.363 345.254H459.031V349.586H463.363V345.254ZM463.363 334.404H467.695V330.072H463.363V334.404ZM453.849 334.404V330.072H449.518V334.404H453.849ZM453.849 346.827H449.518V351.158H453.849V346.827ZM460.768 346.827H465.1V342.495H460.768V346.827ZM460.768 355.79V360.122H465.1V355.79H460.768ZM453.849 355.79V351.458H449.518V355.79H453.849ZM453.849 369.785H449.518V374.117H453.849V369.785ZM463.363 369.785V374.117H467.695V369.785H463.363ZM463.363 357.362V353.031H459.031V357.362H463.363ZM480.975 357.362H485.307V353.031H480.975V357.362ZM480.975 382.68V387.011H485.307V382.68H480.975ZM432.235 382.68V369.785H423.571V382.68H432.235ZM427.903 374.117H431.834V365.453H427.903V374.117ZM436.166 369.785V334.404H427.503V369.785H436.166ZM431.834 330.072H427.903V338.736H431.834V330.072ZM432.235 334.404V321.509H423.571V334.404H432.235ZM427.903 325.841H480.975V317.178H427.903V325.841ZM476.643 321.509V345.254H485.307V321.509H476.643ZM480.975 340.922H463.363V349.586H480.975V340.922ZM467.695 345.254V334.404H459.031V345.254H467.695ZM463.363 330.072H453.849V338.736H463.363V330.072ZM449.518 334.404V346.827H458.181V334.404H449.518ZM453.849 351.158H460.768V342.495H453.849V351.158ZM456.437 346.827V355.79H465.1V346.827H456.437ZM460.768 351.458H453.849V360.122H460.768V351.458ZM449.518 355.79V369.785H458.181V355.79H449.518ZM453.849 374.117H463.363V365.453H453.849V374.117ZM467.695 369.785V357.362H459.031V369.785H467.695ZM463.363 361.694H480.975V353.031H463.363V361.694ZM476.643 357.362V382.68H485.307V357.362H476.643ZM480.975 378.348H427.903V387.011H480.975V378.348ZM483.954 369.785V365.453H479.622V369.785H483.954ZM487.885 369.785V374.117H492.217V369.785H487.885ZM487.885 334.483H492.217V330.151H487.885V334.483ZM483.954 334.483H479.622V338.814H483.954V334.483ZM483.954 321.509V317.178H479.622V321.509H483.954ZM536.711 328.743L533.747 331.901L533.763 331.917L533.78 331.932L536.711 328.743ZM536.711 375.525L539.659 378.699L539.66 378.698L536.711 375.525ZM483.954 382.68H479.622V387.011H483.954V382.68ZM518.47 368.37L515.321 365.396L515.321 365.396L518.47 368.37ZM509.9 334.404V330.072H505.569V334.404H509.9ZM509.9 369.785H505.569V374.117H509.9V369.785ZM483.954 374.117H487.885V365.453H483.954V374.117ZM492.217 369.785V334.483H483.554V369.785H492.217ZM487.885 330.151H483.954V338.814H487.885V330.151ZM488.286 334.483V321.509H479.622V334.483H488.286ZM483.954 325.841H515.876V317.178H483.954V325.841ZM515.876 325.841C523.808 325.841 529.596 328.005 533.747 331.901L539.676 325.585C533.553 319.837 525.451 317.178 515.876 317.178V325.841ZM533.78 331.932C537.695 335.531 540.164 341.869 540.164 352.095H548.827C548.827 340.725 546.106 331.495 539.643 325.554L533.78 331.932ZM540.164 352.095C540.164 362.315 537.697 368.695 533.763 372.352L539.66 378.698C546.104 372.709 548.827 363.469 548.827 352.095H540.164ZM533.764 372.351C529.615 376.203 523.82 378.348 515.876 378.348V387.011C525.439 387.011 533.535 384.386 539.659 378.699L533.764 372.351ZM515.876 378.348H483.954V387.011H515.876V378.348ZM488.286 382.68V369.785H479.622V382.68H488.286ZM514.461 374.117C516.976 374.117 519.641 373.439 521.62 371.344L515.321 365.396C515.391 365.322 515.438 365.318 515.358 365.347C515.255 365.383 514.982 365.453 514.461 365.453V374.117ZM521.62 371.344C523.589 369.259 524.139 366.491 524.139 363.967H515.475C515.475 364.656 515.396 365.078 515.328 365.303C515.265 365.512 515.23 365.492 515.321 365.396L521.62 371.344ZM524.139 363.967V340.222H515.475V363.967H524.139ZM524.139 340.222C524.139 337.702 523.568 335.003 521.66 332.928C519.689 330.782 517.009 330.072 514.461 330.072V338.736C514.97 338.736 515.231 338.806 515.323 338.84C515.39 338.864 515.343 338.857 515.281 338.789C515.156 338.653 515.475 338.864 515.475 340.222H524.139ZM514.461 330.072H509.9V338.736H514.461V330.072ZM505.569 334.404V369.785H514.232V334.404H505.569ZM509.9 374.117H514.461V365.453H509.9V374.117Z" fill="#906C8D" mask="url(#path-3-outside-1_4147_313)"/>
</g>
<defs>
<filter id="filter0_d_4147_313" x="156.385" y="212.41" width="390.036" height="175.222" filterUnits="userSpaceOnUse" color-interpolation-filters="sRGB">
<feFlood flood-opacity="0" result="BackgroundImageFix"/>
<feColorMatrix in="SourceAlpha" type="matrix" values="0 0 0 0 0 0 0 0 0 0 0 0 0 0 0 0 0 0 127 0" result="hardAlpha"/>
<feOffset dy="1.92522"/>
<feGaussianBlur stdDeviation="0.96261"/>
<feComposite in2="hardAlpha" operator="out"/>
<feColorMatrix type="matrix" values="0 0 0 0 0 0 0 0 0 0 0 0 0 0 0 0 0 0 0.25 0"/>
<feBlend mode="normal" in2="BackgroundImageFix" result="effect1_dropShadow_4147_313"/>
<feBlend mode="normal" in="SourceGraphic" in2="effect1_dropShadow_4147_313" result="shape"/>
</filter>
</defs>
</svg>
