<svg width="592" height="592" viewBox="0 0 592 592" fill="none" xmlns="http://www.w3.org/2000/svg">
<circle cx="295.993" cy="295.669" r="295.357" fill="white"/>
<circle cx="296.19" cy="295.669" r="266.628" fill="#FFC9E6"/>
<circle cx="296.191" cy="295.669" r="191.657" fill="white" stroke="#881553" stroke-width="5.90319"/>
<path d="M209.707 239.69H198.594V234.651H194.46V263.723H198.982V274.318H171.848V263.723H176.37V234.651H172.235V239.69H161.123V224.055H209.707V239.69ZM263.605 234.651H260.375V263.723H263.605V274.318H239.184V263.723H242.285V253.063H233.241V263.723H236.342V274.318H211.921V263.723H215.151V234.651H211.921V224.055H236.342V234.651H233.241V244.471H242.285V234.651H239.184V224.055H263.605V234.651ZM313.6 263.723H316.184V274.318H290.859V263.723H294.735L293.701 258.555H284.915L283.881 263.723H287.758V274.318H265.663V263.723H268.247L279.165 224.055H302.682L313.6 263.723ZM286.336 251.706H292.28L289.631 238.85H288.985L286.336 251.706ZM355.443 224.055H376.633V234.651H373.403V274.318H355.249L336.319 245.181V263.723H339.42V274.318H318.23V263.723H321.46V234.651H318.23V224.055H341.552L358.544 249.962V234.651H355.443V224.055ZM427.503 263.723H430.733V274.318H413.096L403.405 254.291L400.433 256.746V263.723H403.534V274.318H379.113V263.723H382.343V234.651H379.113V224.055H403.534V234.651H400.433V243.178L410.447 234.651H406.377V224.055H430.41V234.651H427.18L416.39 243.566L427.503 263.723Z" fill="#EA3283"/>
<path d="M239.726 318.899H259.56V329.494H256.976L244.507 351.848V358.567H247.737V369.162H223.187V358.567H226.417V351.848L213.561 329.494H210.976V318.899H235.979V329.494H233.718L237.529 339.508H238.175L241.987 329.494H239.726V318.899ZM283.987 370.067C276.105 370.067 270.01 367.999 265.703 363.864C261.439 359.73 259.307 353.118 259.307 344.031C259.307 334.943 261.439 328.331 265.703 324.197C270.01 320.062 276.105 317.994 283.987 317.994C291.869 317.994 297.942 320.062 302.206 324.197C306.513 328.331 308.666 334.943 308.666 344.031C308.666 353.118 306.513 359.73 302.206 363.864C297.942 367.999 291.869 370.067 283.987 370.067ZM283.987 358.567C285.451 358.567 286.549 358.179 287.282 357.404C288.014 356.629 288.38 355.423 288.38 353.786V334.275C288.38 332.638 288.014 331.432 287.282 330.657C286.549 329.882 285.451 329.494 283.987 329.494C282.522 329.494 281.424 329.882 280.692 330.657C279.96 331.432 279.594 332.638 279.594 334.275V353.786C279.594 355.466 279.96 356.693 280.692 357.469C281.424 358.201 282.522 358.567 283.987 358.567ZM335.025 370.067C328.263 370.067 323.03 368.581 319.326 365.609C315.665 362.637 313.834 357.813 313.834 351.137V329.494H310.604V318.899H334.508V329.494H331.924V354.432C331.924 355.853 332.225 356.909 332.828 357.598C333.474 358.244 334.422 358.567 335.671 358.567C336.92 358.567 337.846 358.244 338.449 357.598C339.095 356.909 339.418 355.853 339.418 354.432V329.494H336.834V318.899H358.993V329.494H355.763V351.137C355.763 357.813 353.976 362.637 350.401 365.609C346.826 368.581 341.701 370.067 335.025 370.067ZM364.307 355.013L361.335 322.129V318.899H380.652V322.129L377.616 355.013H364.307ZM363.661 369.162V358.567H378.262V369.162H363.661Z" fill="#EA3283"/>
</svg>
