<svg width="468" height="730" viewBox="0 0 468 730" fill="none" xmlns="http://www.w3.org/2000/svg">
<rect x="-0.00195312" y="0.839844" width="467.931" height="728.777" rx="51.8662" fill="white"/>
<rect x="15.8984" y="17.8789" width="436.509" height="687.889" rx="48.3635" fill="#FFDBFC"/>
<rect x="32.9346" y="37.5615" width="402.436" height="649.274" rx="43.6877" stroke="#B784B3" stroke-width="2.27151"/>
<g filter="url(#filter0_d_4149_371)">
<mask id="path-4-outside-1_4149_371" maskUnits="userSpaceOnUse" x="79.4805" y="135.488" width="309" height="83" fill="black">
<rect fill="white" x="79.4805" y="135.488" width="309" height="83"/>
<path d="M93.8475 162.081C93.4229 161.414 93.0285 160.504 92.6645 159.351C92.3005 158.199 92.1185 156.985 92.1185 155.711C92.1185 153.345 92.6342 151.646 93.6655 150.615C94.7576 149.584 96.1529 149.068 97.8516 149.068H137.529C137.953 149.735 138.348 150.645 138.712 151.798C139.076 152.951 139.258 154.164 139.258 155.438C139.258 157.804 138.712 159.503 137.62 160.534C136.588 161.566 135.223 162.081 133.524 162.081H123.423V204.124C122.756 204.306 121.694 204.488 120.238 204.67C118.843 204.852 117.447 204.943 116.052 204.943C114.657 204.943 113.413 204.822 112.321 204.579C111.29 204.397 110.41 204.033 109.682 203.487C108.954 202.941 108.408 202.183 108.044 201.212C107.68 200.242 107.498 198.967 107.498 197.39V162.081H93.8475ZM196.285 204.124C195.618 204.306 194.556 204.488 193.1 204.67C191.705 204.852 190.309 204.943 188.914 204.943C187.519 204.943 186.275 204.822 185.183 204.579C184.152 204.397 183.272 204.033 182.544 203.487C181.816 202.941 181.27 202.183 180.906 201.212C180.542 200.242 180.36 198.967 180.36 197.39V183.194H162.887V204.124C162.22 204.306 161.158 204.488 159.702 204.67C158.307 204.852 156.912 204.943 155.516 204.943C154.121 204.943 152.877 204.822 151.785 204.579C150.754 204.397 149.874 204.033 149.146 203.487C148.418 202.941 147.872 202.183 147.508 201.212C147.144 200.242 146.962 198.967 146.962 197.39V149.341C147.629 149.22 148.691 149.068 150.147 148.886C151.603 148.643 152.999 148.522 154.333 148.522C155.729 148.522 156.942 148.643 157.973 148.886C159.065 149.068 159.975 149.432 160.703 149.978C161.431 150.524 161.977 151.282 162.341 152.253C162.705 153.224 162.887 154.498 162.887 156.075V170.636H180.36V149.341C181.027 149.22 182.089 149.068 183.545 148.886C185.001 148.643 186.396 148.522 187.731 148.522C189.126 148.522 190.34 148.643 191.371 148.886C192.463 149.068 193.373 149.432 194.101 149.978C194.829 150.524 195.375 151.282 195.739 152.253C196.103 153.224 196.285 154.498 196.285 156.075V204.124ZM219.843 150.979C220.875 150.372 222.422 149.796 224.484 149.25C226.608 148.704 228.731 148.431 230.855 148.431C233.888 148.431 236.557 148.886 238.863 149.796C241.229 150.645 242.746 152.01 243.413 153.891C244.505 157.046 245.688 160.716 246.962 164.902C248.236 169.088 249.51 173.426 250.784 177.916C252.058 182.344 253.302 186.743 254.515 191.111C255.728 195.418 256.79 199.24 257.7 202.577C256.972 203.427 255.88 204.094 254.424 204.579C252.968 205.125 251.239 205.398 249.237 205.398C247.781 205.398 246.537 205.277 245.506 205.034C244.535 204.792 243.716 204.428 243.049 203.942C242.442 203.457 241.927 202.82 241.502 202.031C241.138 201.243 240.804 200.333 240.501 199.301L238.863 193.022H222.391C221.906 194.842 221.421 196.723 220.935 198.664C220.45 200.606 219.965 202.486 219.479 204.306C218.63 204.61 217.72 204.852 216.749 205.034C215.839 205.277 214.717 205.398 213.382 205.398C210.288 205.398 207.983 204.883 206.466 203.851C205.01 202.759 204.282 201.273 204.282 199.392C204.282 198.543 204.403 197.693 204.646 196.844C204.889 195.995 205.162 194.994 205.465 193.841C205.89 192.203 206.466 190.171 207.194 187.744C207.983 185.317 208.832 182.708 209.742 179.918C210.652 177.066 211.623 174.154 212.654 171.182C213.686 168.209 214.656 165.418 215.566 162.809C216.476 160.14 217.295 157.774 218.023 155.711C218.812 153.648 219.419 152.071 219.843 150.979ZM230.764 162.718C229.914 165.266 228.944 168.118 227.852 171.273C226.82 174.367 225.88 177.521 225.03 180.737H236.315C235.465 177.461 234.586 174.276 233.676 171.182C232.826 168.027 232.038 165.206 231.31 162.718H230.764ZM315.118 202.577C314.269 203.427 313.025 204.064 311.387 204.488C309.81 204.974 307.899 205.216 305.654 205.216C303.409 205.216 301.286 204.883 299.284 204.215C297.282 203.548 295.644 201.94 294.37 199.392L285.361 181.01C284.451 179.129 283.632 177.37 282.904 175.732C282.175 174.033 281.387 172.092 280.537 169.908L279.991 169.999C280.234 173.275 280.355 176.611 280.355 180.009C280.416 183.406 280.446 186.743 280.446 190.019V204.124C279.779 204.306 278.748 204.488 277.352 204.67C276.018 204.852 274.683 204.943 273.348 204.943C272.014 204.943 270.831 204.852 269.799 204.67C268.768 204.488 267.919 204.124 267.251 203.578C266.584 203.032 266.068 202.304 265.704 201.394C265.34 200.424 265.158 199.18 265.158 197.663V152.162C266.007 150.949 267.312 150.039 269.071 149.432C270.831 148.825 272.711 148.522 274.713 148.522C276.958 148.522 279.081 148.886 281.083 149.614C283.146 150.281 284.784 151.859 285.998 154.346L295.098 172.729C296.008 174.609 296.827 176.399 297.555 178.098C298.283 179.736 299.072 181.647 299.921 183.831L300.376 183.74C300.133 180.464 299.982 177.188 299.921 173.912C299.86 170.636 299.83 167.359 299.83 164.083V149.341C300.497 149.159 301.498 148.977 302.833 148.795C304.228 148.613 305.593 148.522 306.928 148.522C309.597 148.522 311.63 149.007 313.025 149.978C314.421 150.888 315.118 152.829 315.118 155.802V202.577ZM342.939 184.013V204.124C342.271 204.306 341.209 204.488 339.753 204.67C338.297 204.852 336.872 204.943 335.476 204.943C334.081 204.943 332.837 204.822 331.745 204.579C330.714 204.397 329.834 204.033 329.106 203.487C328.378 202.941 327.832 202.183 327.468 201.212C327.104 200.242 326.922 198.967 326.922 197.39V149.341C327.59 149.22 328.651 149.068 330.107 148.886C331.563 148.643 332.959 148.522 334.293 148.522C335.689 148.522 336.902 148.643 337.933 148.886C339.025 149.068 339.935 149.432 340.663 149.978C341.391 150.524 341.937 151.282 342.302 152.253C342.666 153.224 342.848 154.498 342.848 156.075V170.545L361.776 148.795C365.901 148.795 368.844 149.584 370.603 151.161C372.423 152.678 373.333 154.498 373.333 156.621C373.333 158.199 372.939 159.685 372.15 161.08C371.361 162.476 370.087 164.053 368.328 165.812L356.953 177.188C358.47 178.886 360.047 180.646 361.685 182.466C363.384 184.286 365.022 186.076 366.599 187.835C368.237 189.534 369.784 191.172 371.24 192.749C372.757 194.326 374.061 195.691 375.153 196.844C375.153 198.179 374.911 199.362 374.425 200.393C373.94 201.425 373.273 202.304 372.423 203.032C371.634 203.76 370.724 204.306 369.693 204.67C368.662 205.034 367.57 205.216 366.417 205.216C363.93 205.216 361.897 204.61 360.32 203.396C358.743 202.122 357.226 200.636 355.77 198.937L342.939 184.013Z"/>
</mask>
<path d="M93.8475 162.081C93.4229 161.414 93.0285 160.504 92.6645 159.351C92.3005 158.199 92.1185 156.985 92.1185 155.711C92.1185 153.345 92.6342 151.646 93.6655 150.615C94.7576 149.584 96.1529 149.068 97.8516 149.068H137.529C137.953 149.735 138.348 150.645 138.712 151.798C139.076 152.951 139.258 154.164 139.258 155.438C139.258 157.804 138.712 159.503 137.62 160.534C136.588 161.566 135.223 162.081 133.524 162.081H123.423V204.124C122.756 204.306 121.694 204.488 120.238 204.67C118.843 204.852 117.447 204.943 116.052 204.943C114.657 204.943 113.413 204.822 112.321 204.579C111.29 204.397 110.41 204.033 109.682 203.487C108.954 202.941 108.408 202.183 108.044 201.212C107.68 200.242 107.498 198.967 107.498 197.39V162.081H93.8475ZM196.285 204.124C195.618 204.306 194.556 204.488 193.1 204.67C191.705 204.852 190.309 204.943 188.914 204.943C187.519 204.943 186.275 204.822 185.183 204.579C184.152 204.397 183.272 204.033 182.544 203.487C181.816 202.941 181.27 202.183 180.906 201.212C180.542 200.242 180.36 198.967 180.36 197.39V183.194H162.887V204.124C162.22 204.306 161.158 204.488 159.702 204.67C158.307 204.852 156.912 204.943 155.516 204.943C154.121 204.943 152.877 204.822 151.785 204.579C150.754 204.397 149.874 204.033 149.146 203.487C148.418 202.941 147.872 202.183 147.508 201.212C147.144 200.242 146.962 198.967 146.962 197.39V149.341C147.629 149.22 148.691 149.068 150.147 148.886C151.603 148.643 152.999 148.522 154.333 148.522C155.729 148.522 156.942 148.643 157.973 148.886C159.065 149.068 159.975 149.432 160.703 149.978C161.431 150.524 161.977 151.282 162.341 152.253C162.705 153.224 162.887 154.498 162.887 156.075V170.636H180.36V149.341C181.027 149.22 182.089 149.068 183.545 148.886C185.001 148.643 186.396 148.522 187.731 148.522C189.126 148.522 190.34 148.643 191.371 148.886C192.463 149.068 193.373 149.432 194.101 149.978C194.829 150.524 195.375 151.282 195.739 152.253C196.103 153.224 196.285 154.498 196.285 156.075V204.124ZM219.843 150.979C220.875 150.372 222.422 149.796 224.484 149.25C226.608 148.704 228.731 148.431 230.855 148.431C233.888 148.431 236.557 148.886 238.863 149.796C241.229 150.645 242.746 152.01 243.413 153.891C244.505 157.046 245.688 160.716 246.962 164.902C248.236 169.088 249.51 173.426 250.784 177.916C252.058 182.344 253.302 186.743 254.515 191.111C255.728 195.418 256.79 199.24 257.7 202.577C256.972 203.427 255.88 204.094 254.424 204.579C252.968 205.125 251.239 205.398 249.237 205.398C247.781 205.398 246.537 205.277 245.506 205.034C244.535 204.792 243.716 204.428 243.049 203.942C242.442 203.457 241.927 202.82 241.502 202.031C241.138 201.243 240.804 200.333 240.501 199.301L238.863 193.022H222.391C221.906 194.842 221.421 196.723 220.935 198.664C220.45 200.606 219.965 202.486 219.479 204.306C218.63 204.61 217.72 204.852 216.749 205.034C215.839 205.277 214.717 205.398 213.382 205.398C210.288 205.398 207.983 204.883 206.466 203.851C205.01 202.759 204.282 201.273 204.282 199.392C204.282 198.543 204.403 197.693 204.646 196.844C204.889 195.995 205.162 194.994 205.465 193.841C205.89 192.203 206.466 190.171 207.194 187.744C207.983 185.317 208.832 182.708 209.742 179.918C210.652 177.066 211.623 174.154 212.654 171.182C213.686 168.209 214.656 165.418 215.566 162.809C216.476 160.14 217.295 157.774 218.023 155.711C218.812 153.648 219.419 152.071 219.843 150.979ZM230.764 162.718C229.914 165.266 228.944 168.118 227.852 171.273C226.82 174.367 225.88 177.521 225.03 180.737H236.315C235.465 177.461 234.586 174.276 233.676 171.182C232.826 168.027 232.038 165.206 231.31 162.718H230.764ZM315.118 202.577C314.269 203.427 313.025 204.064 311.387 204.488C309.81 204.974 307.899 205.216 305.654 205.216C303.409 205.216 301.286 204.883 299.284 204.215C297.282 203.548 295.644 201.94 294.37 199.392L285.361 181.01C284.451 179.129 283.632 177.37 282.904 175.732C282.175 174.033 281.387 172.092 280.537 169.908L279.991 169.999C280.234 173.275 280.355 176.611 280.355 180.009C280.416 183.406 280.446 186.743 280.446 190.019V204.124C279.779 204.306 278.748 204.488 277.352 204.67C276.018 204.852 274.683 204.943 273.348 204.943C272.014 204.943 270.831 204.852 269.799 204.67C268.768 204.488 267.919 204.124 267.251 203.578C266.584 203.032 266.068 202.304 265.704 201.394C265.34 200.424 265.158 199.18 265.158 197.663V152.162C266.007 150.949 267.312 150.039 269.071 149.432C270.831 148.825 272.711 148.522 274.713 148.522C276.958 148.522 279.081 148.886 281.083 149.614C283.146 150.281 284.784 151.859 285.998 154.346L295.098 172.729C296.008 174.609 296.827 176.399 297.555 178.098C298.283 179.736 299.072 181.647 299.921 183.831L300.376 183.74C300.133 180.464 299.982 177.188 299.921 173.912C299.86 170.636 299.83 167.359 299.83 164.083V149.341C300.497 149.159 301.498 148.977 302.833 148.795C304.228 148.613 305.593 148.522 306.928 148.522C309.597 148.522 311.63 149.007 313.025 149.978C314.421 150.888 315.118 152.829 315.118 155.802V202.577ZM342.939 184.013V204.124C342.271 204.306 341.209 204.488 339.753 204.67C338.297 204.852 336.872 204.943 335.476 204.943C334.081 204.943 332.837 204.822 331.745 204.579C330.714 204.397 329.834 204.033 329.106 203.487C328.378 202.941 327.832 202.183 327.468 201.212C327.104 200.242 326.922 198.967 326.922 197.39V149.341C327.59 149.22 328.651 149.068 330.107 148.886C331.563 148.643 332.959 148.522 334.293 148.522C335.689 148.522 336.902 148.643 337.933 148.886C339.025 149.068 339.935 149.432 340.663 149.978C341.391 150.524 341.937 151.282 342.302 152.253C342.666 153.224 342.848 154.498 342.848 156.075V170.545L361.776 148.795C365.901 148.795 368.844 149.584 370.603 151.161C372.423 152.678 373.333 154.498 373.333 156.621C373.333 158.199 372.939 159.685 372.15 161.08C371.361 162.476 370.087 164.053 368.328 165.812L356.953 177.188C358.47 178.886 360.047 180.646 361.685 182.466C363.384 184.286 365.022 186.076 366.599 187.835C368.237 189.534 369.784 191.172 371.24 192.749C372.757 194.326 374.061 195.691 375.153 196.844C375.153 198.179 374.911 199.362 374.425 200.393C373.94 201.425 373.273 202.304 372.423 203.032C371.634 203.76 370.724 204.306 369.693 204.67C368.662 205.034 367.57 205.216 366.417 205.216C363.93 205.216 361.897 204.61 360.32 203.396C358.743 202.122 357.226 200.636 355.77 198.937L342.939 184.013Z" fill="#B784B3"/>
<path d="M93.8475 162.081L83.2826 168.804L86.9733 174.604H93.8475V162.081ZM92.6645 159.351L80.7231 163.122L80.7231 163.122L92.6645 159.351ZM93.6655 150.615L85.0672 141.511L84.9371 141.634L84.8107 141.76L93.6655 150.615ZM137.529 149.068L148.093 142.345L144.403 136.545H137.529V149.068ZM138.712 151.798L150.653 148.027L150.653 148.027L138.712 151.798ZM137.62 160.534L129.021 151.43L128.891 151.553L128.765 151.679L137.62 160.534ZM123.423 162.081V149.559H110.901V162.081H123.423ZM123.423 204.124L126.718 216.206L135.946 213.689V204.124H123.423ZM120.238 204.67L118.685 192.244L118.652 192.248L118.618 192.253L120.238 204.67ZM112.321 204.579L115.038 192.355L114.769 192.295L114.497 192.247L112.321 204.579ZM109.682 203.487L117.196 193.469L109.682 203.487ZM108.044 201.212L96.3185 205.609L96.3185 205.609L108.044 201.212ZM107.498 162.081H120.021V149.559H107.498V162.081ZM104.412 155.358C104.525 155.536 104.602 155.675 104.649 155.765C104.695 155.855 104.719 155.909 104.724 155.919C104.728 155.93 104.719 155.909 104.697 155.849C104.675 155.79 104.644 155.702 104.606 155.58L80.7231 163.122C81.262 164.829 82.0508 166.869 83.2826 168.804L104.412 155.358ZM104.606 155.58C104.624 155.638 104.634 155.687 104.639 155.719C104.644 155.75 104.641 155.75 104.641 155.711H79.5958C79.5958 158.195 79.9535 160.685 80.7231 163.122L104.606 155.58ZM104.641 155.711C104.641 155.378 104.685 155.653 104.488 156.3C104.276 156.997 103.744 158.246 102.52 159.47L84.8107 141.76C80.3288 146.242 79.5958 152.001 79.5958 155.711H104.641ZM102.264 159.719C101.596 160.35 100.773 160.868 99.8721 161.201C98.9978 161.524 98.2762 161.591 97.8516 161.591V136.545C93.4077 136.545 88.7929 137.992 85.0672 141.511L102.264 159.719ZM97.8516 161.591H137.529V136.545H97.8516V161.591ZM126.964 155.791C126.851 155.614 126.774 155.474 126.728 155.385C126.681 155.295 126.657 155.241 126.653 155.23C126.648 155.219 126.657 155.241 126.679 155.3C126.701 155.359 126.732 155.448 126.77 155.569L150.653 148.027C150.114 146.32 149.325 144.281 148.093 142.345L126.964 155.791ZM126.77 155.569C126.752 155.511 126.742 155.462 126.737 155.43C126.732 155.399 126.735 155.399 126.735 155.438H151.78C151.78 152.954 151.423 150.464 150.653 148.027L126.77 155.569ZM126.735 155.438C126.735 155.718 126.695 155.372 126.926 154.655C127.178 153.872 127.768 152.614 129.021 151.43L146.218 169.638C150.94 165.178 151.78 159.313 151.78 155.438H126.735ZM128.765 151.679C129.506 150.938 130.417 150.35 131.397 149.98C132.34 149.624 133.106 149.559 133.524 149.559V174.604C137.954 174.604 142.707 173.156 146.474 169.389L128.765 151.679ZM133.524 149.559H123.423V174.604H133.524V149.559ZM110.901 162.081V204.124H135.946V162.081H110.901ZM120.128 192.043C120.252 192.009 120.307 191.999 120.269 192.007C120.236 192.014 120.153 192.03 120.011 192.055C119.72 192.105 119.287 192.169 118.685 192.244L121.791 217.096C123.335 216.903 125.141 216.636 126.718 216.206L120.128 192.043ZM118.618 192.253C117.756 192.365 116.901 192.421 116.052 192.421V217.466C117.994 217.466 119.93 217.339 121.858 217.088L118.618 192.253ZM116.052 192.421C115.714 192.421 115.463 192.406 115.289 192.389C115.114 192.372 115.035 192.354 115.038 192.355L109.604 216.804C111.776 217.286 113.957 217.466 116.052 217.466V192.421ZM114.497 192.247C115.109 192.355 116.129 192.669 117.196 193.469L102.168 213.505C104.691 215.397 107.47 216.439 110.145 216.911L114.497 192.247ZM117.196 193.469C118.635 194.549 119.414 195.868 119.769 196.815L96.3185 205.609C97.4016 208.497 99.2729 211.334 102.168 213.505L117.196 193.469ZM119.769 196.815C119.971 197.353 120.023 197.703 120.031 197.758C120.04 197.821 120.021 197.713 120.021 197.39H94.9752C94.9752 199.767 95.227 202.699 96.3185 205.609L119.769 196.815ZM120.021 197.39V162.081H94.9752V197.39H120.021ZM107.498 149.559H93.8475V174.604H107.498V149.559ZM196.285 204.124L199.58 216.206L208.808 213.689V204.124H196.285ZM193.1 204.67L191.547 192.244L191.514 192.248L191.48 192.253L193.1 204.67ZM185.183 204.579L187.9 192.355L187.631 192.295L187.359 192.247L185.183 204.579ZM182.544 203.487L190.058 193.469L182.544 203.487ZM180.906 201.212L192.631 196.815L192.631 196.815L180.906 201.212ZM180.36 183.194H192.883V170.671H180.36V183.194ZM162.887 183.194V170.671H150.365V183.194H162.887ZM162.887 204.124L166.182 216.206L175.41 213.689V204.124H162.887ZM159.702 204.67L158.149 192.244L158.116 192.248L158.083 192.253L159.702 204.67ZM151.785 204.579L154.502 192.355L154.233 192.295L153.962 192.247L151.785 204.579ZM149.146 203.487L141.633 213.505L141.633 213.505L149.146 203.487ZM147.508 201.212L135.783 205.609L135.783 205.609L147.508 201.212ZM146.962 149.341L144.722 137.02L134.439 138.89V149.341H146.962ZM150.147 148.886L151.7 161.312L151.954 161.28L152.206 161.238L150.147 148.886ZM157.973 148.886L155.105 161.076L155.507 161.17L155.915 161.238L157.973 148.886ZM160.703 149.978L153.19 159.996L153.19 159.996L160.703 149.978ZM162.341 152.253L150.616 156.65L150.616 156.65L162.341 152.253ZM162.887 170.636H150.365V183.158H162.887V170.636ZM180.36 170.636V183.158H192.883V170.636H180.36ZM180.36 149.341L178.12 137.02L167.837 138.89V149.341H180.36ZM183.545 148.886L185.098 161.312L185.352 161.28L185.604 161.238L183.545 148.886ZM191.371 148.886L188.503 161.076L188.905 161.17L189.312 161.238L191.371 148.886ZM194.101 149.978L186.588 159.996L186.588 159.996L194.101 149.978ZM195.739 152.253L184.014 156.65L184.014 156.65L195.739 152.253ZM192.99 192.043C193.114 192.009 193.169 191.999 193.131 192.007C193.098 192.014 193.015 192.03 192.873 192.055C192.582 192.105 192.149 192.169 191.547 192.244L194.653 217.096C196.197 216.903 198.003 216.636 199.58 216.206L192.99 192.043ZM191.48 192.253C190.618 192.365 189.763 192.421 188.914 192.421V217.466C190.856 217.466 192.792 217.339 194.72 217.088L191.48 192.253ZM188.914 192.421C188.576 192.421 188.325 192.406 188.151 192.389C187.976 192.372 187.897 192.354 187.9 192.355L182.466 216.804C184.638 217.286 186.819 217.466 188.914 217.466V192.421ZM187.359 192.247C187.971 192.355 188.991 192.669 190.058 193.469L175.03 213.505C177.553 215.397 180.332 216.439 183.007 216.911L187.359 192.247ZM190.058 193.469C191.497 194.549 192.276 195.868 192.631 196.815L169.181 205.609C170.264 208.497 172.135 211.334 175.03 213.505L190.058 193.469ZM192.631 196.815C192.833 197.353 192.885 197.703 192.893 197.758C192.902 197.821 192.883 197.713 192.883 197.39H167.837C167.837 199.767 168.089 202.699 169.181 205.609L192.631 196.815ZM192.883 197.39V183.194H167.837V197.39H192.883ZM180.36 170.671H162.887V195.716H180.36V170.671ZM150.365 183.194V204.124H175.41V183.194H150.365ZM159.593 192.043C159.716 192.009 159.771 191.999 159.733 192.007C159.7 192.014 159.617 192.03 159.475 192.055C159.184 192.105 158.751 192.169 158.149 192.244L161.256 217.096C162.8 216.903 164.605 216.636 166.182 216.206L159.593 192.043ZM158.083 192.253C157.22 192.365 156.366 192.421 155.516 192.421V217.466C157.458 217.466 159.394 217.339 161.322 217.088L158.083 192.253ZM155.516 192.421C155.179 192.421 154.927 192.406 154.753 192.389C154.578 192.372 154.5 192.354 154.502 192.355L149.069 216.804C151.24 217.286 153.421 217.466 155.516 217.466V192.421ZM153.962 192.247C154.573 192.355 155.593 192.669 156.66 193.469L141.633 213.505C144.155 215.397 146.935 216.439 149.609 216.911L153.962 192.247ZM156.66 193.469C158.099 194.549 158.878 195.868 159.234 196.815L135.783 205.609C136.866 208.497 138.737 211.334 141.633 213.505L156.66 193.469ZM159.234 196.815C159.435 197.353 159.488 197.703 159.495 197.758C159.504 197.821 159.485 197.713 159.485 197.39H134.439C134.439 199.767 134.691 202.699 135.783 205.609L159.234 196.815ZM159.485 197.39V149.341H134.439V197.39H159.485ZM149.202 161.662C149.505 161.607 150.274 161.49 151.7 161.312L148.594 136.46C147.108 136.646 145.754 136.833 144.722 137.02L149.202 161.662ZM152.206 161.238C153.052 161.097 153.756 161.045 154.333 161.045V135.999C152.241 135.999 150.154 136.189 148.088 136.534L152.206 161.238ZM154.333 161.045C154.673 161.045 154.905 161.06 155.044 161.074C155.184 161.088 155.196 161.097 155.105 161.076L160.842 136.696C158.628 136.175 156.409 135.999 154.333 135.999V161.045ZM155.915 161.238C155.451 161.161 154.378 160.888 153.19 159.996L168.217 139.96C165.573 137.977 162.68 136.975 160.032 136.534L155.915 161.238ZM153.19 159.996C151.751 158.917 150.971 157.597 150.616 156.65L174.067 147.856C172.984 144.968 171.112 142.131 168.217 139.96L153.19 159.996ZM150.616 156.65C150.415 156.113 150.362 155.762 150.354 155.708C150.345 155.645 150.365 155.752 150.365 156.075H175.41C175.41 153.698 175.158 150.767 174.067 147.856L150.616 156.65ZM150.365 156.075V170.636H175.41V156.075H150.365ZM162.887 183.158H180.36V158.113H162.887V183.158ZM192.883 170.636V149.341H167.837V170.636H192.883ZM182.6 161.662C182.903 161.607 183.672 161.49 185.098 161.312L181.992 136.46C180.506 136.646 179.152 136.833 178.12 137.02L182.6 161.662ZM185.604 161.238C186.45 161.097 187.154 161.045 187.731 161.045V135.999C185.639 135.999 183.552 136.189 181.486 136.534L185.604 161.238ZM187.731 161.045C188.071 161.045 188.303 161.06 188.442 161.074C188.582 161.088 188.594 161.097 188.503 161.076L194.239 136.696C192.026 136.175 189.807 135.999 187.731 135.999V161.045ZM189.312 161.238C188.849 161.161 187.776 160.888 186.588 159.996L201.615 139.96C198.97 137.977 196.077 136.975 193.43 136.534L189.312 161.238ZM186.588 159.996C185.148 158.917 184.369 157.597 184.014 156.65L207.465 147.856C206.382 144.968 204.51 142.131 201.615 139.96L186.588 159.996ZM184.014 156.65C183.812 156.113 183.76 155.762 183.752 155.708C183.743 155.645 183.763 155.752 183.763 156.075H208.808C208.808 153.698 208.556 150.767 207.465 147.856L184.014 156.65ZM183.763 156.075V204.124H208.808V156.075H183.763ZM219.843 150.979L213.494 140.185L209.748 142.389L208.172 146.44L219.843 150.979ZM224.484 149.25L221.366 137.122L221.323 137.133L221.28 137.144L224.484 149.25ZM238.863 149.796L234.265 161.444L234.447 161.516L234.632 161.582L238.863 149.796ZM243.413 153.891L255.247 149.795L255.231 149.749L255.215 149.703L243.413 153.891ZM246.962 164.902L258.942 161.256L258.942 161.256L246.962 164.902ZM250.784 177.916L238.737 181.334L238.743 181.356L238.749 181.378L250.784 177.916ZM254.515 191.111L242.449 194.463L242.455 194.484L242.462 194.506L254.515 191.111ZM257.7 202.577L267.208 210.727L271.528 205.687L269.782 199.282L257.7 202.577ZM254.424 204.579L250.464 192.699L250.244 192.773L250.027 192.854L254.424 204.579ZM245.506 205.034L242.469 217.183L242.553 217.204L242.638 217.224L245.506 205.034ZM243.049 203.942L235.226 213.721L235.451 213.901L235.683 214.07L243.049 203.942ZM241.502 202.031L230.132 207.279L230.293 207.629L230.476 207.968L241.502 202.031ZM240.501 199.301L228.384 202.462L228.432 202.649L228.487 202.835L240.501 199.301ZM238.863 193.022L250.98 189.861L248.538 180.499H238.863V193.022ZM222.391 193.022V180.499H212.771L210.292 189.795L222.391 193.022ZM220.935 198.664L208.787 195.627L208.787 195.627L220.935 198.664ZM219.479 204.306L223.691 216.099L229.885 213.887L231.579 207.533L219.479 204.306ZM216.749 205.034L214.442 192.726L213.978 192.813L213.523 192.934L216.749 205.034ZM206.466 203.851L198.952 213.869L199.185 214.043L199.424 214.207L206.466 203.851ZM204.646 196.844L192.605 193.404L192.605 193.404L204.646 196.844ZM205.465 193.841L217.575 197.028L217.581 197.006L217.587 196.984L205.465 193.841ZM207.194 187.744L195.285 183.873L195.241 184.009L195.2 184.146L207.194 187.744ZM209.742 179.918L221.648 183.8L221.66 183.763L221.672 183.725L209.742 179.918ZM212.654 171.182L200.823 167.077L200.823 167.077L212.654 171.182ZM215.566 162.809L227.39 166.934L227.405 166.892L227.419 166.85L215.566 162.809ZM218.023 155.711L206.326 151.239L206.269 151.39L206.215 151.543L218.023 155.711ZM230.764 162.718V150.196H221.738L218.884 158.758L230.764 162.718ZM227.852 171.273L216.018 167.176L215.994 167.244L215.971 167.313L227.852 171.273ZM225.03 180.737L212.923 177.539L208.77 193.259H225.03V180.737ZM236.315 180.737V193.259H252.498L248.437 177.594L236.315 180.737ZM233.676 171.182L221.584 174.437L221.621 174.577L221.662 174.715L233.676 171.182ZM231.31 162.718L243.328 159.201L240.692 150.196H231.31V162.718ZM226.193 161.773C225.892 161.95 225.823 161.948 226.149 161.827C226.448 161.715 226.945 161.553 227.689 161.356L221.28 137.144C218.832 137.792 215.991 138.717 213.494 140.185L226.193 161.773ZM227.603 161.378C228.741 161.086 229.817 160.954 230.855 160.954V135.908C227.645 135.908 224.475 136.322 221.366 137.122L227.603 161.378ZM230.855 160.954C232.656 160.954 233.711 161.225 234.265 161.444L243.461 138.148C239.404 136.547 235.12 135.908 230.855 135.908V160.954ZM234.632 161.582C234.629 161.581 234.092 161.39 233.398 160.765C232.642 160.085 231.991 159.149 231.611 158.079L255.215 149.703C252.974 143.39 247.995 139.769 243.094 138.01L234.632 161.582ZM231.579 157.987C232.607 160.956 233.741 164.47 234.982 168.549L258.942 161.256C257.635 156.963 256.403 153.136 255.247 149.795L231.579 157.987ZM234.982 168.549C236.231 172.654 237.483 176.916 238.737 181.334L262.831 174.497C261.537 169.936 260.241 165.523 258.942 161.256L234.982 168.549ZM238.749 181.378C240.013 185.77 241.246 190.132 242.449 194.463L266.581 187.759C265.357 183.354 264.103 178.919 262.819 174.454L238.749 181.378ZM242.462 194.506C243.668 198.789 244.72 202.577 245.619 205.872L269.782 199.282C268.86 195.904 267.789 192.047 266.569 187.716L242.462 194.506ZM248.192 194.428C248.795 193.725 249.39 193.283 249.805 193.029C250.011 192.903 250.177 192.821 250.286 192.772C250.396 192.722 250.459 192.701 250.464 192.699L258.384 216.459C261.224 215.513 264.552 213.826 267.208 210.727L248.192 194.428ZM250.027 192.854C250.181 192.796 250.215 192.803 250.082 192.824C249.948 192.845 249.675 192.876 249.237 192.876V217.921C252.33 217.921 255.62 217.505 258.821 216.305L250.027 192.854ZM249.237 192.876C248.851 192.876 248.586 192.859 248.428 192.844C248.267 192.828 248.26 192.818 248.374 192.844L242.638 217.224C244.885 217.753 247.147 217.921 249.237 217.921V192.876ZM248.543 192.886C248.809 192.952 249.538 193.177 250.414 193.815L235.683 214.07C237.895 215.678 240.262 216.631 242.469 217.183L248.543 192.886ZM250.872 194.164C251.766 194.879 252.275 195.625 252.528 196.094L230.476 207.968C231.578 210.015 233.118 212.035 235.226 213.721L250.872 194.164ZM252.872 196.784C252.816 196.662 252.684 196.344 252.515 195.768L228.487 202.835C228.924 204.321 229.46 205.823 230.132 207.279L252.872 196.784ZM252.618 196.14L250.98 189.861L226.746 196.183L228.384 202.462L252.618 196.14ZM238.863 180.499H222.391V205.545H238.863V180.499ZM210.292 189.795C209.788 191.682 209.287 193.626 208.787 195.627L233.084 201.701C233.555 199.819 234.024 198.002 234.491 196.249L210.292 189.795ZM208.787 195.627C208.316 197.509 207.847 199.326 207.38 201.08L231.579 207.533C232.082 205.646 232.584 203.702 233.084 201.701L208.787 195.627ZM215.268 192.513C215.094 192.575 214.825 192.654 214.442 192.726L219.057 217.342C220.615 217.05 222.166 216.644 223.691 216.099L215.268 192.513ZM213.523 192.934C213.662 192.897 213.763 192.877 213.819 192.867C213.876 192.857 213.897 192.855 213.879 192.857C213.861 192.859 213.811 192.864 213.726 192.868C213.641 192.872 213.527 192.876 213.382 192.876V217.921C215.393 217.921 217.677 217.747 219.976 217.134L213.523 192.934ZM213.382 192.876C212.952 192.876 212.629 192.857 212.4 192.836C212.17 192.814 212.066 192.791 212.066 192.791C212.068 192.791 212.103 192.799 212.167 192.819C212.23 192.838 212.326 192.87 212.45 192.92C212.696 193.02 213.068 193.197 213.508 193.496L199.424 214.207C204.007 217.322 209.322 217.921 213.382 217.921V192.876ZM213.98 193.833C214.674 194.354 215.484 195.203 216.074 196.409C216.658 197.601 216.805 198.685 216.805 199.392H191.759C191.759 205.06 194.222 210.321 198.952 213.869L213.98 193.833ZM216.805 199.392C216.805 199.752 216.751 200.06 216.687 200.284L192.605 193.404C192.056 195.327 191.759 197.333 191.759 199.392H216.805ZM216.687 200.284C216.96 199.328 217.257 198.238 217.575 197.028L193.355 190.654C193.067 191.749 192.817 192.662 192.605 193.404L216.687 200.284ZM217.587 196.984C217.958 195.553 218.486 193.684 219.189 191.342L195.2 184.146C194.446 186.657 193.822 188.853 193.343 190.698L217.587 196.984ZM219.104 191.614C219.891 189.192 220.739 186.587 221.648 183.8L197.836 176.035C196.925 178.83 196.075 181.442 195.285 183.873L219.104 191.614ZM221.672 183.725C222.549 180.978 223.486 178.165 224.485 175.286L200.823 167.077C199.759 170.143 198.756 173.155 197.812 176.11L221.672 183.725ZM224.485 175.286C225.514 172.319 226.483 169.535 227.39 166.934L203.742 158.685C202.83 161.301 201.857 164.098 200.823 167.077L224.485 175.286ZM227.419 166.85C228.319 164.212 229.123 161.889 229.832 159.879L206.215 151.543C205.468 153.658 204.634 156.068 203.713 158.769L227.419 166.85ZM229.72 160.184C230.506 158.127 231.103 156.576 231.515 155.518L208.172 146.44C207.734 147.566 207.118 149.17 206.326 151.239L229.72 160.184ZM218.884 158.758C218.052 161.252 217.098 164.056 216.018 167.176L239.685 175.369C240.789 172.179 241.776 169.281 242.644 166.678L218.884 158.758ZM215.971 167.313C214.855 170.663 213.839 174.072 212.923 177.539L237.138 183.935C237.921 180.971 238.786 178.07 239.732 175.233L215.971 167.313ZM225.03 193.259H236.315V168.214H225.03V193.259ZM248.437 177.594C247.555 174.194 246.639 170.878 245.69 167.648L221.662 174.715C222.532 177.673 223.376 180.728 224.193 183.879L248.437 177.594ZM245.768 167.926C244.901 164.705 244.087 161.794 243.328 159.201L219.291 166.236C219.988 168.617 220.752 171.349 221.584 174.437L245.768 167.926ZM231.31 150.196H230.764V175.241H231.31V150.196ZM315.118 202.577L323.973 211.432L327.641 207.764V202.577H315.118ZM311.387 204.488L308.244 192.366L307.973 192.437L307.704 192.519L311.387 204.488ZM299.284 204.215L303.244 192.335L303.244 192.335L299.284 204.215ZM294.37 199.392L283.125 204.903L283.147 204.948L283.169 204.992L294.37 199.392ZM285.361 181.01L274.088 186.464L274.102 186.493L274.116 186.521L285.361 181.01ZM282.904 175.732L271.393 180.665L271.426 180.741L271.46 180.818L282.904 175.732ZM280.537 169.908L292.209 165.369L288.519 155.882L278.479 157.555L280.537 169.908ZM279.991 169.999L277.933 157.646L266.659 159.525L267.503 170.924L279.991 169.999ZM280.355 180.009H267.833V180.121L267.835 180.232L280.355 180.009ZM280.446 204.124L283.741 216.206L292.969 213.689V204.124H280.446ZM277.352 204.67L275.733 192.253L275.697 192.258L275.66 192.262L277.352 204.67ZM269.799 204.67L271.975 192.338L269.799 204.67ZM267.251 203.578L275.181 193.886L267.251 203.578ZM265.704 201.394L253.979 205.791L254.027 205.919L254.077 206.045L265.704 201.394ZM265.158 152.162L254.899 144.981L252.635 148.215V152.162H265.158ZM269.071 149.432L264.989 137.593L264.989 137.593L269.071 149.432ZM281.083 149.614L276.804 161.383L277.015 161.46L277.229 161.529L281.083 149.614ZM285.998 154.346L274.743 159.836L274.759 159.869L274.775 159.902L285.998 154.346ZM295.098 172.729L306.37 167.274L306.346 167.223L306.321 167.173L295.098 172.729ZM297.555 178.098L286.045 183.031L286.078 183.107L286.111 183.184L297.555 178.098ZM299.921 183.831L288.25 188.37L292.062 198.173L302.377 196.11L299.921 183.831ZM300.376 183.74L302.832 196.019L313.682 193.849L312.864 182.815L300.376 183.74ZM299.921 173.912L312.441 173.68L312.441 173.68L299.921 173.912ZM299.83 149.341L296.535 137.26L287.307 139.776V149.341H299.83ZM302.833 148.795L301.213 136.378L301.177 136.382L301.141 136.387L302.833 148.795ZM313.025 149.978L305.874 160.258L306.028 160.365L306.184 160.467L313.025 149.978ZM306.263 193.722C307.51 192.476 308.56 192.285 308.244 192.366L314.53 216.61C317.49 215.843 321.028 214.377 323.973 211.432L306.263 193.722ZM307.704 192.519C307.706 192.519 307.55 192.566 307.193 192.611C306.838 192.656 306.333 192.694 305.654 192.694V217.739C308.73 217.739 311.957 217.415 315.07 216.457L307.704 192.519ZM305.654 192.694C304.669 192.694 303.89 192.551 303.244 192.335L295.324 216.095C298.682 217.215 302.149 217.739 305.654 217.739V192.694ZM303.244 192.335C304.204 192.655 304.906 193.16 305.326 193.572C305.701 193.94 305.731 194.114 305.57 193.792L283.169 204.992C285.394 209.442 289.194 214.052 295.324 216.095L303.244 192.335ZM305.615 193.881L296.605 175.499L274.116 186.521L283.125 204.903L305.615 193.881ZM296.633 175.555C295.773 173.777 295.012 172.142 294.347 170.646L271.46 180.818C272.251 182.598 273.129 184.481 274.088 186.464L296.633 175.555ZM294.414 170.799C293.754 169.259 293.019 167.454 292.209 165.369L268.866 174.446C269.754 176.73 270.597 178.806 271.393 180.665L294.414 170.799ZM278.479 157.555L277.933 157.646L282.05 182.351L282.596 182.26L278.479 157.555ZM267.503 170.924C267.722 173.882 267.833 176.91 267.833 180.009H292.878C292.878 176.313 292.746 172.668 292.48 169.073L267.503 170.924ZM267.835 180.232C267.894 183.558 267.924 186.82 267.924 190.019H292.969C292.969 186.666 292.938 183.254 292.876 179.785L267.835 180.232ZM267.924 190.019V204.124H292.969V190.019H267.924ZM277.152 192.043C277.322 191.996 277.305 192.011 276.996 192.065C276.716 192.115 276.303 192.178 275.733 192.253L278.972 217.088C280.48 216.891 282.212 216.623 283.741 216.206L277.152 192.043ZM275.66 192.262C274.881 192.369 274.112 192.421 273.348 192.421V217.466C275.254 217.466 277.154 217.336 279.044 217.078L275.66 192.262ZM273.348 192.421C272.555 192.421 272.124 192.364 271.975 192.338L267.623 217.002C269.537 217.34 271.472 217.466 273.348 217.466V192.421ZM271.975 192.338C272.606 192.449 273.867 192.811 275.181 193.886L259.321 213.27C261.97 215.438 264.93 216.527 267.623 217.002L271.975 192.338ZM275.181 193.886C276.365 194.855 277.018 195.96 277.331 196.743L254.077 206.045C255.119 208.649 256.802 211.209 259.321 213.27L275.181 193.886ZM277.429 196.997C277.618 197.501 277.673 197.839 277.685 197.92C277.698 198.006 277.681 197.934 277.681 197.663H252.635C252.635 200.049 252.904 202.924 253.979 205.791L277.429 196.997ZM277.681 197.663V152.162H252.635V197.663H277.681ZM275.417 159.343C274.4 160.796 273.246 161.239 273.153 161.271L264.989 137.593C261.378 138.839 257.615 141.102 254.899 144.981L275.417 159.343ZM273.153 161.271C273.503 161.15 273.995 161.045 274.713 161.045V135.999C271.427 135.999 268.158 136.501 264.989 137.593L273.153 161.271ZM274.713 161.045C275.578 161.045 276.246 161.18 276.804 161.383L285.363 137.845C281.917 136.592 278.338 135.999 274.713 135.999V161.045ZM277.229 161.529C276.362 161.248 275.655 160.782 275.173 160.318C274.734 159.896 274.644 159.634 274.743 159.836L297.253 148.856C294.983 144.203 291.074 139.685 284.938 137.699L277.229 161.529ZM274.775 159.902L283.875 178.284L306.321 167.173L297.22 148.79L274.775 159.902ZM283.825 178.183C284.663 179.913 285.401 181.528 286.045 183.031L309.065 173.165C308.253 171.27 307.353 169.305 306.37 167.274L283.825 178.183ZM286.111 183.184C286.739 184.596 287.452 186.317 288.25 188.37L311.592 179.292C310.691 176.976 309.826 174.875 308.998 173.012L286.111 183.184ZM302.377 196.11L302.832 196.019L297.92 171.46L297.465 171.551L302.377 196.11ZM312.864 182.815C312.639 179.769 312.498 176.724 312.441 173.68L287.4 174.143C287.465 177.651 287.628 181.159 287.887 184.665L312.864 182.815ZM312.441 173.68C312.382 170.481 312.353 167.282 312.353 164.083H287.307C287.307 167.437 287.338 170.79 287.4 174.143L312.441 173.68ZM312.353 164.083V149.341H287.307V164.083H312.353ZM303.125 161.422C302.99 161.459 303.027 161.442 303.321 161.389C303.593 161.339 303.986 161.276 304.525 161.203L301.141 136.387C299.67 136.588 298.014 136.856 296.535 137.26L303.125 161.422ZM304.453 161.213C305.34 161.097 306.163 161.045 306.928 161.045V135.999C305.023 135.999 303.117 136.129 301.213 136.378L304.453 161.213ZM306.928 161.045C307.539 161.045 307.703 161.104 307.546 161.066C307.379 161.026 306.716 160.844 305.874 160.258L320.176 139.698C315.795 136.65 310.805 135.999 306.928 135.999V161.045ZM306.184 160.467C304.098 159.106 303.16 157.325 302.81 156.352C302.507 155.507 302.596 155.178 302.596 155.802H327.641C327.641 151.864 326.869 144.056 319.866 139.489L306.184 160.467ZM302.596 155.802V202.577H327.641V155.802H302.596ZM342.939 184.013L352.434 175.849L330.416 150.239V184.013H342.939ZM342.939 204.124L346.233 216.206L355.461 213.689V204.124H342.939ZM339.753 204.67L341.307 217.096L341.307 217.096L339.753 204.67ZM331.745 204.579L334.462 192.355L334.193 192.295L333.922 192.247L331.745 204.579ZM329.106 203.487L321.593 213.505L321.593 213.505L329.106 203.487ZM327.468 201.212L315.743 205.609L315.743 205.609L327.468 201.212ZM326.922 149.341L324.682 137.02L314.399 138.89V149.341H326.922ZM330.107 148.886L331.66 161.312L331.914 161.28L332.166 161.238L330.107 148.886ZM337.933 148.886L335.065 161.076L335.467 161.17L335.875 161.238L337.933 148.886ZM340.663 149.978L333.15 159.996L333.15 159.996L340.663 149.978ZM342.302 152.253L330.576 156.65L330.576 156.65L342.302 152.253ZM342.848 170.545H330.325V204.009L352.294 178.766L342.848 170.545ZM361.776 148.795V136.272H356.073L352.33 140.574L361.776 148.795ZM370.603 151.161L362.244 160.485L362.412 160.636L362.586 160.781L370.603 151.161ZM372.15 161.08L361.248 154.918L361.248 154.918L372.15 161.08ZM368.328 165.812L377.183 174.667L377.183 174.667L368.328 165.812ZM356.953 177.188L348.098 168.333L339.73 176.701L347.612 185.528L356.953 177.188ZM361.685 182.466L352.377 190.843L352.453 190.927L352.53 191.01L361.685 182.466ZM366.599 187.835L357.275 196.194L357.427 196.364L357.585 196.527L366.599 187.835ZM371.24 192.749L362.038 201.243L362.125 201.337L362.213 201.429L371.24 192.749ZM375.153 196.844H387.676V191.854L384.244 188.232L375.153 196.844ZM374.425 200.393L363.094 195.061L363.094 195.061L374.425 200.393ZM372.423 203.032L364.274 193.524L364.099 193.674L363.929 193.831L372.423 203.032ZM360.32 203.396L352.451 213.138L352.567 213.231L352.685 213.322L360.32 203.396ZM355.77 198.937L365.278 190.788L365.272 190.78L365.265 190.773L355.77 198.937ZM330.416 184.013V204.124H355.461V184.013H330.416ZM339.644 192.043C339.768 192.009 339.822 191.999 339.784 192.007C339.751 192.014 339.668 192.03 339.526 192.055C339.235 192.105 338.802 192.169 338.2 192.244L341.307 217.096C342.851 216.903 344.656 216.636 346.233 216.206L339.644 192.043ZM338.2 192.244C337.233 192.365 336.327 192.421 335.476 192.421V217.466C337.417 217.466 339.362 217.339 341.307 217.096L338.2 192.244ZM335.476 192.421C335.139 192.421 334.887 192.406 334.713 192.389C334.538 192.372 334.46 192.354 334.462 192.355L329.029 216.804C331.2 217.286 333.381 217.466 335.476 217.466V192.421ZM333.922 192.247C334.533 192.355 335.553 192.669 336.62 193.469L321.593 213.505C324.115 215.397 326.895 216.439 329.569 216.911L333.922 192.247ZM336.62 193.469C338.059 194.549 338.838 195.868 339.194 196.815L315.743 205.609C316.826 208.497 318.697 211.334 321.593 213.505L336.62 193.469ZM339.194 196.815C339.395 197.353 339.448 197.703 339.455 197.758C339.464 197.821 339.445 197.713 339.445 197.39H314.399C314.399 199.767 314.651 202.699 315.743 205.609L339.194 196.815ZM339.445 197.39V149.341H314.399V197.39H339.445ZM329.162 161.662C329.465 161.607 330.234 161.49 331.66 161.312L328.554 136.46C327.068 136.646 325.714 136.833 324.682 137.02L329.162 161.662ZM332.166 161.238C333.012 161.097 333.716 161.045 334.293 161.045V135.999C332.201 135.999 330.114 136.189 328.049 136.534L332.166 161.238ZM334.293 161.045C334.633 161.045 334.865 161.06 335.004 161.074C335.144 161.088 335.156 161.097 335.065 161.076L340.802 136.696C338.588 136.175 336.369 135.999 334.293 135.999V161.045ZM335.875 161.238C335.411 161.161 334.338 160.888 333.15 159.996L348.177 139.96C345.533 137.977 342.64 136.975 339.992 136.534L335.875 161.238ZM333.15 159.996C331.711 158.917 330.931 157.597 330.576 156.65L354.027 147.856C352.944 144.968 351.072 142.131 348.177 139.96L333.15 159.996ZM330.576 156.65C330.375 156.113 330.322 155.762 330.314 155.708C330.305 155.645 330.325 155.752 330.325 156.075H355.37C355.37 153.698 355.118 150.767 354.027 147.856L330.576 156.65ZM330.325 156.075V170.545H355.37V156.075H330.325ZM352.294 178.766L371.222 157.016L352.33 140.574L333.401 162.323L352.294 178.766ZM361.776 161.318C362.415 161.318 362.903 161.349 363.259 161.388C363.618 161.428 363.798 161.472 363.835 161.482C363.938 161.51 363.19 161.333 362.244 160.485L378.963 141.837C373.716 137.133 366.888 136.272 361.776 136.272V161.318ZM362.586 160.781C362.385 160.614 361.884 160.132 361.45 159.264C360.997 158.359 360.811 157.416 360.811 156.621H385.856C385.856 150.322 382.922 145.126 378.62 141.541L362.586 160.781ZM360.811 156.621C360.811 156.354 360.846 156.039 360.933 155.708C361.021 155.377 361.14 155.11 361.248 154.918L383.052 167.242C384.885 163.999 385.856 160.394 385.856 156.621H360.811ZM361.248 154.918C361.268 154.884 361.173 155.055 360.861 155.441C360.556 155.819 360.107 156.324 359.473 156.958L377.183 174.667C379.354 172.496 381.488 170.009 383.052 167.242L361.248 154.918ZM359.473 156.958L348.098 168.333L365.808 186.043L377.183 174.667L359.473 156.958ZM347.612 185.528C349.14 187.24 350.729 189.012 352.377 190.843L370.993 174.089C369.365 172.28 367.799 170.533 366.294 168.847L347.612 185.528ZM352.53 191.01C354.175 192.772 355.756 194.5 357.275 196.194L375.923 179.475C374.287 177.651 372.592 175.799 370.84 173.921L352.53 191.01ZM357.585 196.527C359.166 198.167 360.65 199.739 362.038 201.243L380.442 184.255C378.918 182.605 377.309 180.9 375.613 179.142L357.585 196.527ZM362.213 201.429C363.716 202.991 364.998 204.333 366.062 205.457L384.244 188.232C383.125 187.05 381.798 185.661 380.267 184.069L362.213 201.429ZM362.631 196.844C362.631 196.648 362.672 195.959 363.094 195.061L385.756 205.725C387.149 202.764 387.676 199.709 387.676 196.844H362.631ZM363.094 195.061C363.348 194.523 363.753 193.97 364.274 193.524L380.573 212.54C382.792 210.638 384.532 208.327 385.756 205.725L363.094 195.061ZM363.929 193.831C364.415 193.382 364.984 193.053 365.525 192.862L373.861 216.479C376.465 215.56 378.854 214.138 380.917 212.234L363.929 193.831ZM365.525 192.862C365.904 192.728 366.227 192.694 366.417 192.694V217.739C368.912 217.739 371.42 217.341 373.861 216.479L365.525 192.862ZM366.417 192.694C366.183 192.694 366.283 192.664 366.609 192.762C366.962 192.867 367.453 193.084 367.955 193.47L352.685 213.322C356.95 216.603 361.871 217.739 366.417 217.739V192.694ZM368.188 193.654C367.262 192.906 366.287 191.965 365.278 190.788L346.262 207.087C348.164 209.306 350.223 211.338 352.451 213.138L368.188 193.654ZM365.265 190.773L352.434 175.849L333.443 192.177L346.274 207.101L365.265 190.773Z" fill="white" mask="url(#path-4-outside-1_4149_371)"/>
</g>
<g filter="url(#filter1_d_4149_371)">
<mask id="path-6-outside-2_4149_371" maskUnits="userSpaceOnUse" x="131.754" y="240.492" width="197" height="85" fill="black">
<rect fill="white" x="131.754" y="240.492" width="197" height="85"/>
<path d="M180.608 310.128C179.94 310.31 178.909 310.492 177.514 310.674C176.118 310.856 174.753 310.947 173.419 310.947C170.628 310.947 168.535 310.492 167.139 309.582C165.744 308.611 165.046 306.609 165.046 303.576V291.291C163.53 289.046 161.892 286.559 160.132 283.829C158.373 281.099 156.644 278.308 154.945 275.456C153.246 272.605 151.669 269.814 150.213 267.084C148.757 264.294 147.574 261.745 146.664 259.44C147.453 258.348 148.514 257.347 149.849 256.437C151.244 255.527 152.943 255.072 154.945 255.072C157.311 255.072 159.222 255.557 160.678 256.528C162.195 257.499 163.621 259.319 164.955 261.988L172.508 277.185H173.055C173.904 275.305 174.632 273.606 175.239 272.089C175.906 270.512 176.543 268.965 177.15 267.448C177.756 265.871 178.393 264.263 179.061 262.625C179.728 260.926 180.486 258.985 181.336 256.801C182.428 256.255 183.641 255.83 184.976 255.527C186.31 255.224 187.584 255.072 188.798 255.072C190.921 255.072 192.711 255.648 194.167 256.801C195.684 257.893 196.442 259.561 196.442 261.806C196.442 262.534 196.29 263.414 195.987 264.445C195.684 265.477 194.986 267.054 193.894 269.177C192.802 271.24 191.194 274.061 189.071 277.64C187.008 281.22 184.187 285.891 180.608 291.655V310.128ZM199.861 282.828C199.861 278.095 200.589 273.909 202.045 270.269C203.562 266.629 205.594 263.596 208.142 261.169C210.751 258.682 213.784 256.801 217.242 255.527C220.761 254.253 224.553 253.616 228.618 253.616C232.682 253.616 236.444 254.253 239.902 255.527C243.421 256.801 246.484 258.682 249.093 261.169C251.702 263.596 253.734 266.629 255.19 270.269C256.707 273.909 257.465 278.095 257.465 282.828C257.465 287.56 256.737 291.776 255.281 295.477C253.825 299.117 251.793 302.181 249.184 304.668C246.636 307.095 243.603 308.945 240.084 310.219C236.565 311.493 232.743 312.13 228.618 312.13C224.492 312.13 220.67 311.493 217.151 310.219C213.633 308.884 210.599 306.973 208.051 304.486C205.503 301.999 203.501 298.935 202.045 295.295C200.589 291.655 199.861 287.499 199.861 282.828ZM216.241 282.828C216.241 288.348 217.364 292.474 219.608 295.204C221.853 297.934 224.856 299.299 228.618 299.299C232.44 299.299 235.473 297.934 237.718 295.204C239.963 292.474 241.085 288.348 241.085 282.828C241.085 277.367 239.963 273.272 237.718 270.542C235.534 267.812 232.531 266.447 228.709 266.447C224.947 266.447 221.914 267.812 219.608 270.542C217.364 273.212 216.241 277.307 216.241 282.828ZM315.445 290.108C315.445 293.384 314.869 296.387 313.716 299.117C312.624 301.786 311.016 304.092 308.893 306.033C306.769 307.914 304.191 309.37 301.158 310.401C298.124 311.433 294.696 311.948 290.874 311.948C287.052 311.948 283.625 311.433 280.591 310.401C277.558 309.37 274.979 307.914 272.856 306.033C270.733 304.092 269.095 301.786 267.942 299.117C266.85 296.387 266.304 293.384 266.304 290.108V255.345C266.971 255.224 268.033 255.072 269.489 254.89C270.945 254.647 272.34 254.526 273.675 254.526C275.07 254.526 276.284 254.647 277.315 254.89C278.407 255.072 279.317 255.436 280.045 255.982C280.773 256.528 281.319 257.286 281.683 258.257C282.047 259.228 282.229 260.502 282.229 262.079V289.835C282.229 292.747 283.018 295.022 284.595 296.66C286.233 298.298 288.326 299.117 290.874 299.117C293.483 299.117 295.576 298.298 297.154 296.66C298.731 295.022 299.52 292.747 299.52 289.835V255.345C300.187 255.224 301.249 255.072 302.705 254.89C304.161 254.647 305.556 254.526 306.891 254.526C308.286 254.526 309.499 254.647 310.531 254.89C311.623 255.072 312.533 255.436 313.261 255.982C313.989 256.528 314.535 257.286 314.899 258.257C315.263 259.228 315.445 260.502 315.445 262.079V290.108Z"/>
</mask>
<path d="M180.608 310.128C179.94 310.31 178.909 310.492 177.514 310.674C176.118 310.856 174.753 310.947 173.419 310.947C170.628 310.947 168.535 310.492 167.139 309.582C165.744 308.611 165.046 306.609 165.046 303.576V291.291C163.53 289.046 161.892 286.559 160.132 283.829C158.373 281.099 156.644 278.308 154.945 275.456C153.246 272.605 151.669 269.814 150.213 267.084C148.757 264.294 147.574 261.745 146.664 259.44C147.453 258.348 148.514 257.347 149.849 256.437C151.244 255.527 152.943 255.072 154.945 255.072C157.311 255.072 159.222 255.557 160.678 256.528C162.195 257.499 163.621 259.319 164.955 261.988L172.508 277.185H173.055C173.904 275.305 174.632 273.606 175.239 272.089C175.906 270.512 176.543 268.965 177.15 267.448C177.756 265.871 178.393 264.263 179.061 262.625C179.728 260.926 180.486 258.985 181.336 256.801C182.428 256.255 183.641 255.83 184.976 255.527C186.31 255.224 187.584 255.072 188.798 255.072C190.921 255.072 192.711 255.648 194.167 256.801C195.684 257.893 196.442 259.561 196.442 261.806C196.442 262.534 196.29 263.414 195.987 264.445C195.684 265.477 194.986 267.054 193.894 269.177C192.802 271.24 191.194 274.061 189.071 277.64C187.008 281.22 184.187 285.891 180.608 291.655V310.128ZM199.861 282.828C199.861 278.095 200.589 273.909 202.045 270.269C203.562 266.629 205.594 263.596 208.142 261.169C210.751 258.682 213.784 256.801 217.242 255.527C220.761 254.253 224.553 253.616 228.618 253.616C232.682 253.616 236.444 254.253 239.902 255.527C243.421 256.801 246.484 258.682 249.093 261.169C251.702 263.596 253.734 266.629 255.19 270.269C256.707 273.909 257.465 278.095 257.465 282.828C257.465 287.56 256.737 291.776 255.281 295.477C253.825 299.117 251.793 302.181 249.184 304.668C246.636 307.095 243.603 308.945 240.084 310.219C236.565 311.493 232.743 312.13 228.618 312.13C224.492 312.13 220.67 311.493 217.151 310.219C213.633 308.884 210.599 306.973 208.051 304.486C205.503 301.999 203.501 298.935 202.045 295.295C200.589 291.655 199.861 287.499 199.861 282.828ZM216.241 282.828C216.241 288.348 217.364 292.474 219.608 295.204C221.853 297.934 224.856 299.299 228.618 299.299C232.44 299.299 235.473 297.934 237.718 295.204C239.963 292.474 241.085 288.348 241.085 282.828C241.085 277.367 239.963 273.272 237.718 270.542C235.534 267.812 232.531 266.447 228.709 266.447C224.947 266.447 221.914 267.812 219.608 270.542C217.364 273.212 216.241 277.307 216.241 282.828ZM315.445 290.108C315.445 293.384 314.869 296.387 313.716 299.117C312.624 301.786 311.016 304.092 308.893 306.033C306.769 307.914 304.191 309.37 301.158 310.401C298.124 311.433 294.696 311.948 290.874 311.948C287.052 311.948 283.625 311.433 280.591 310.401C277.558 309.37 274.979 307.914 272.856 306.033C270.733 304.092 269.095 301.786 267.942 299.117C266.85 296.387 266.304 293.384 266.304 290.108V255.345C266.971 255.224 268.033 255.072 269.489 254.89C270.945 254.647 272.34 254.526 273.675 254.526C275.07 254.526 276.284 254.647 277.315 254.89C278.407 255.072 279.317 255.436 280.045 255.982C280.773 256.528 281.319 257.286 281.683 258.257C282.047 259.228 282.229 260.502 282.229 262.079V289.835C282.229 292.747 283.018 295.022 284.595 296.66C286.233 298.298 288.326 299.117 290.874 299.117C293.483 299.117 295.576 298.298 297.154 296.66C298.731 295.022 299.52 292.747 299.52 289.835V255.345C300.187 255.224 301.249 255.072 302.705 254.89C304.161 254.647 305.556 254.526 306.891 254.526C308.286 254.526 309.499 254.647 310.531 254.89C311.623 255.072 312.533 255.436 313.261 255.982C313.989 256.528 314.535 257.286 314.899 258.257C315.263 259.228 315.445 260.502 315.445 262.079V290.108Z" fill="#B784B3"/>
<path d="M180.608 310.128L183.903 322.21L193.13 319.693V310.128H180.608ZM177.514 310.674L175.894 298.257L177.514 310.674ZM167.139 309.582L159.988 319.862L160.142 319.969L160.299 320.071L167.139 309.582ZM165.046 291.291H177.569V287.457L175.422 284.28L165.046 291.291ZM160.132 283.829L149.606 290.612L149.606 290.612L160.132 283.829ZM154.945 275.456L144.187 281.866L144.187 281.866L154.945 275.456ZM150.213 267.084L139.111 272.877L139.137 272.927L139.164 272.977L150.213 267.084ZM146.664 259.44L136.512 252.108L132.5 257.664L135.016 264.038L146.664 259.44ZM149.849 256.437L143.008 245.948L142.901 246.018L142.795 246.09L149.849 256.437ZM160.678 256.528L153.732 266.948L153.829 267.012L153.928 267.075L160.678 256.528ZM164.955 261.988L176.169 256.415L176.163 256.401L176.156 256.388L164.955 261.988ZM172.508 277.185L161.294 282.759L164.748 289.708H172.508V277.185ZM173.055 277.185V289.708H181.14L184.467 282.34L173.055 277.185ZM175.239 272.089L163.706 267.21L163.657 267.324L163.612 267.439L175.239 272.089ZM177.15 267.448L188.777 272.099L188.808 272.022L188.838 271.944L177.15 267.448ZM179.061 262.625L190.658 267.35L190.687 267.277L190.716 267.204L179.061 262.625ZM181.336 256.801L175.735 245.6L171.415 247.76L169.664 252.262L181.336 256.801ZM184.976 255.527L187.751 267.738L187.751 267.738L184.976 255.527ZM194.167 256.801L186.394 266.619L186.618 266.797L186.85 266.964L194.167 256.801ZM195.987 264.445L183.973 260.912L183.973 260.912L195.987 264.445ZM193.894 269.177L204.961 275.036L204.996 274.971L205.03 274.905L193.894 269.177ZM189.071 277.64L178.301 271.251L178.26 271.319L178.221 271.388L189.071 277.64ZM180.608 291.655L169.97 285.048L168.085 288.083V291.655H180.608ZM177.313 298.047C177.484 298 177.467 298.015 177.157 298.069C176.877 298.119 176.464 298.182 175.894 298.257L179.133 323.092C180.641 322.895 182.373 322.627 183.903 322.21L177.313 298.047ZM175.894 298.257C175.007 298.372 174.183 298.425 173.419 298.425V323.47C175.323 323.47 177.23 323.34 179.133 323.092L175.894 298.257ZM173.419 298.425C173.057 298.425 172.794 298.41 172.618 298.393C172.441 298.377 172.38 298.361 172.416 298.369C172.451 298.377 172.618 298.415 172.88 298.518C173.144 298.621 173.53 298.799 173.98 299.093L160.299 320.071C164.683 322.931 169.666 323.47 173.419 323.47V298.425ZM174.291 299.302C176.248 300.664 177.092 302.362 177.395 303.232C177.66 303.993 177.569 304.242 177.569 303.576H152.524C152.524 307.58 153.291 315.203 159.988 319.862L174.291 299.302ZM177.569 303.576V291.291H152.524V303.576H177.569ZM175.422 284.28C173.965 282.123 172.378 279.713 170.658 277.045L149.606 290.612C151.405 293.404 153.094 295.969 154.67 298.302L175.422 284.28ZM170.658 277.045C168.98 274.441 167.329 271.775 165.703 269.047L144.187 281.866C145.959 284.84 147.765 287.756 149.606 290.612L170.658 277.045ZM165.703 269.047C164.099 266.353 162.619 263.735 161.262 261.191L139.164 272.977C140.719 275.894 142.394 278.857 144.187 281.866L165.703 269.047ZM161.315 261.292C160.011 258.791 159.025 256.649 158.312 254.842L135.016 264.038C136.123 266.842 137.503 269.796 139.111 272.877L161.315 261.292ZM156.816 266.772C156.711 266.918 156.64 266.984 156.642 266.982C156.647 266.978 156.723 266.907 156.903 266.784L142.795 246.09C140.493 247.66 138.301 249.631 136.512 252.108L156.816 266.772ZM156.69 266.926C156.219 267.233 155.766 267.414 155.41 267.509C155.068 267.601 154.89 267.595 154.945 267.595V242.549C151.01 242.549 146.818 243.464 143.008 245.948L156.69 266.926ZM154.945 267.595C155.688 267.595 154.941 267.754 153.732 266.948L167.625 246.108C163.503 243.361 158.935 242.549 154.945 242.549V267.595ZM153.928 267.075C153.562 266.842 153.317 266.631 153.181 266.501C153.046 266.373 152.998 266.307 153.027 266.343C153.055 266.379 153.139 266.491 153.27 266.704C153.4 266.916 153.564 267.206 153.755 267.588L176.156 256.388C174.403 252.882 171.717 248.725 167.429 245.981L153.928 267.075ZM153.741 267.562L161.294 282.759L183.723 271.612L176.169 256.415L153.741 267.562ZM172.508 289.708H173.055V264.663H172.508V289.708ZM184.467 282.34C185.373 280.334 186.176 278.463 186.866 276.74L163.612 267.439C163.087 268.749 162.434 270.276 161.642 272.031L184.467 282.34ZM186.772 276.969C187.469 275.319 188.138 273.696 188.777 272.099L165.523 262.797C164.948 264.234 164.342 265.705 163.706 267.21L186.772 276.969ZM188.838 271.944C189.413 270.446 190.02 268.915 190.658 267.35L167.463 257.9C166.767 259.611 166.099 261.295 165.462 262.953L188.838 271.944ZM190.716 267.204C191.39 265.489 192.154 263.534 193.007 261.34L169.664 252.262C168.819 254.436 168.066 256.364 167.405 258.046L190.716 267.204ZM186.936 268.002C187.03 267.955 187.279 267.846 187.751 267.738L182.2 243.316C180.003 243.815 177.826 244.555 175.735 245.6L186.936 268.002ZM187.751 267.738C188.289 267.616 188.628 267.595 188.798 267.595V242.549C186.541 242.549 184.332 242.831 182.2 243.316L187.751 267.738ZM188.798 267.595C188.723 267.595 188.388 267.583 187.894 267.424C187.38 267.259 186.856 266.985 186.394 266.619L201.94 246.983C197.96 243.832 193.318 242.549 188.798 242.549V267.595ZM186.85 266.964C185.873 266.26 185.016 265.248 184.473 264.053C183.966 262.937 183.919 262.079 183.919 261.806H208.965C208.965 256.451 206.948 250.573 201.484 246.638L186.85 266.964ZM183.919 261.806C183.919 261.319 183.968 260.996 183.988 260.884C184.008 260.765 184.015 260.768 183.973 260.912L208.001 267.979C208.497 266.291 208.965 264.153 208.965 261.806H183.919ZM183.973 260.912C184.038 260.69 184.027 260.787 183.784 261.336C183.563 261.835 183.231 262.53 182.758 263.45L205.03 274.905C206.156 272.716 207.337 270.235 208.001 267.979L183.973 260.912ZM182.827 263.318C181.875 265.115 180.387 267.734 178.301 271.251L199.841 284.03C202.001 280.388 203.729 277.365 204.961 275.036L182.827 263.318ZM178.221 271.388C176.256 274.797 173.516 279.338 169.97 285.048L191.246 298.262C194.858 292.445 197.76 287.643 199.921 283.893L178.221 271.388ZM168.085 291.655V310.128H193.13V291.655H168.085ZM202.045 270.269L190.486 265.453L190.451 265.535L190.418 265.618L202.045 270.269ZM208.142 261.169L216.779 270.237L216.784 270.232L208.142 261.169ZM217.242 255.527L212.979 243.752L212.946 243.764L212.913 243.776L217.242 255.527ZM239.902 255.527L235.573 267.278L235.606 267.29L235.639 267.302L239.902 255.527ZM249.093 261.169L240.451 270.232L240.507 270.285L240.564 270.338L249.093 261.169ZM255.19 270.269L243.563 274.92L243.596 275.003L243.631 275.086L255.19 270.269ZM255.281 295.477L266.908 300.128L266.921 300.095L266.934 300.062L255.281 295.477ZM249.184 304.668L257.82 313.736L257.826 313.731L249.184 304.668ZM240.084 310.219L235.821 298.445L240.084 310.219ZM217.151 310.219L212.71 321.928L212.799 321.962L212.888 321.994L217.151 310.219ZM208.051 304.486L199.304 313.447L199.304 313.447L208.051 304.486ZM202.045 295.295L213.672 290.644L213.672 290.644L202.045 295.295ZM219.608 295.204L229.281 287.251L229.281 287.251L219.608 295.204ZM237.718 295.204L228.045 287.251L228.045 287.251L237.718 295.204ZM237.718 270.542L227.939 278.365L227.992 278.431L228.045 278.496L237.718 270.542ZM219.608 270.542L210.041 262.463L210.032 262.473L210.024 262.483L219.608 270.542ZM212.384 282.828C212.384 279.367 212.916 276.809 213.672 274.92L190.418 265.618C188.262 271.01 187.338 276.824 187.338 282.828H212.384ZM213.604 275.086C214.533 272.856 215.633 271.328 216.779 270.237L199.506 252.101C195.555 255.864 192.59 260.402 190.486 265.453L213.604 275.086ZM216.784 270.232C218.126 268.953 219.683 267.973 221.572 267.278L212.913 243.776C207.886 245.629 203.376 248.411 199.501 252.106L216.784 270.232ZM221.506 267.302C223.544 266.563 225.881 266.139 228.618 266.139V241.093C223.225 241.093 217.978 241.942 212.979 243.752L221.506 267.302ZM228.618 266.139C231.357 266.139 233.636 266.564 235.573 267.278L244.231 243.776C239.251 241.942 234.008 241.093 228.618 241.093V266.139ZM235.639 267.302C237.59 268.008 239.147 268.988 240.451 270.232L257.735 252.106C253.822 248.375 249.252 245.594 244.165 243.752L235.639 267.302ZM240.564 270.338C241.688 271.384 242.724 272.822 243.563 274.92L266.817 265.618C264.744 260.436 261.715 255.808 257.622 252L240.564 270.338ZM243.631 275.086C244.398 276.927 244.943 279.425 244.943 282.828H269.988C269.988 276.766 269.016 270.892 266.75 265.453L243.631 275.086ZM244.943 282.828C244.943 286.282 244.412 288.9 243.628 290.892L266.934 300.062C269.063 294.652 269.988 288.837 269.988 282.828H244.943ZM243.654 290.826C242.806 292.946 241.74 294.463 240.542 295.605L257.826 313.731C261.845 309.899 264.844 305.288 266.908 300.128L243.654 290.826ZM240.548 295.6C239.333 296.757 237.815 297.722 235.821 298.445L244.347 321.994C249.39 320.168 253.939 317.433 257.82 313.736L240.548 295.6ZM235.821 298.445C233.802 299.176 231.438 299.608 228.618 299.608V324.653C234.048 324.653 239.329 323.811 244.347 321.994L235.821 298.445ZM228.618 299.608C225.798 299.608 223.434 299.176 221.415 298.445L212.888 321.994C217.907 323.811 223.187 324.653 228.618 324.653V299.608ZM221.593 298.511C219.59 297.751 218.046 296.743 216.799 295.525L199.304 313.447C203.152 317.204 207.676 320.018 212.71 321.928L221.593 298.511ZM216.799 295.525C215.622 294.376 214.545 292.827 213.672 290.644L190.418 299.946C192.457 305.043 195.384 309.621 199.304 313.447L216.799 295.525ZM213.672 290.644C212.909 288.737 212.384 286.205 212.384 282.828H187.338C187.338 288.793 188.269 294.572 190.418 299.946L213.672 290.644ZM203.719 282.828C203.719 289.707 205.062 297.23 209.936 303.157L229.281 287.251C229.493 287.509 229.359 287.48 229.167 286.775C228.967 286.042 228.764 284.782 228.764 282.828H203.719ZM209.936 303.157C214.729 308.987 221.386 311.822 228.618 311.822V286.776C228.435 286.776 228.377 286.76 228.416 286.768C228.459 286.777 228.573 286.805 228.726 286.875C228.881 286.945 229.024 287.034 229.138 287.123C229.25 287.21 229.295 287.267 229.281 287.251L209.936 303.157ZM228.618 311.822C235.837 311.822 242.555 309.038 247.391 303.157L228.045 287.251C228.041 287.256 228.093 287.192 228.21 287.101C228.33 287.009 228.472 286.922 228.62 286.855C228.767 286.79 228.867 286.766 228.891 286.761C228.91 286.758 228.828 286.776 228.618 286.776V311.822ZM247.391 303.157C252.264 297.23 253.608 289.707 253.608 282.828H228.562C228.562 284.782 228.359 286.042 228.16 286.775C227.968 287.48 227.833 287.509 228.045 287.251L247.391 303.157ZM253.608 282.828C253.608 275.968 252.247 268.496 247.391 262.589L228.045 278.496C227.846 278.254 227.978 278.287 228.166 278.971C228.361 279.684 228.562 280.915 228.562 282.828H253.608ZM247.496 262.719C242.694 256.716 235.93 253.925 228.709 253.925V278.97C229.114 278.97 229.01 279.037 228.646 278.871C228.475 278.794 228.31 278.692 228.167 278.58C228.026 278.469 227.953 278.383 227.939 278.365L247.496 262.719ZM228.709 253.925C221.481 253.925 214.865 256.75 210.041 262.463L229.176 278.622C229.208 278.584 229.184 278.619 229.096 278.687C229.004 278.757 228.885 278.83 228.751 278.891C228.619 278.95 228.523 278.974 228.491 278.981C228.462 278.986 228.527 278.97 228.709 278.97V253.925ZM210.024 262.483C205.049 268.399 203.719 275.98 203.719 282.828H228.764C228.764 280.87 228.968 279.628 229.16 278.926C229.345 278.251 229.46 278.285 229.193 278.602L210.024 262.483ZM313.716 299.117L302.179 294.246L302.152 294.311L302.126 294.375L313.716 299.117ZM308.893 306.033L317.196 315.407L317.27 315.342L317.343 315.275L308.893 306.033ZM301.158 310.401L305.189 322.257L301.158 310.401ZM280.591 310.401L276.56 322.257L276.56 322.257L280.591 310.401ZM272.856 306.033L264.406 315.275L264.479 315.342L264.553 315.407L272.856 306.033ZM267.942 299.117L256.315 303.768L256.378 303.925L256.445 304.081L267.942 299.117ZM266.304 255.345L264.064 243.024L253.781 244.894V255.345H266.304ZM269.489 254.89L271.042 267.316L271.296 267.284L271.548 267.242L269.489 254.89ZM277.315 254.89L274.447 267.08L274.849 267.174L275.256 267.242L277.315 254.89ZM280.045 255.982L287.559 245.964L287.559 245.964L280.045 255.982ZM281.683 258.257L269.958 262.654L269.958 262.654L281.683 258.257ZM284.595 296.66L275.575 305.346L275.657 305.431L275.74 305.515L284.595 296.66ZM297.154 296.66L288.133 287.974L288.133 287.974L297.154 296.66ZM299.52 255.345L297.279 243.024L286.997 244.894V255.345H299.52ZM302.705 254.89L304.258 267.316L304.511 267.284L304.763 267.242L302.705 254.89ZM310.531 254.89L307.663 267.08L308.065 267.174L308.472 267.242L310.531 254.89ZM313.261 255.982L305.747 266L305.747 266L313.261 255.982ZM314.899 258.257L303.174 262.654L303.174 262.654L314.899 258.257ZM302.922 290.108C302.922 291.888 302.616 293.213 302.179 294.246L325.252 303.988C327.121 299.561 327.968 294.88 327.968 290.108H302.922ZM302.126 294.375C301.733 295.335 301.196 296.102 300.443 296.791L317.343 315.275C320.836 312.081 323.515 308.237 325.306 303.858L302.126 294.375ZM300.59 296.659C299.863 297.303 298.789 297.98 297.127 298.545L305.189 322.257C309.593 320.76 313.676 318.525 317.196 315.407L300.59 296.659ZM297.127 298.545C295.614 299.059 293.582 299.426 290.874 299.426V324.471C295.811 324.471 300.634 323.806 305.189 322.257L297.127 298.545ZM290.874 299.426C288.166 299.426 286.135 299.059 284.622 298.545L276.56 322.257C281.114 323.806 285.938 324.471 290.874 324.471V299.426ZM284.622 298.545C282.96 297.98 281.886 297.303 281.159 296.659L264.553 315.407C268.073 318.525 272.155 320.76 276.56 322.257L284.622 298.545ZM281.306 296.791C280.503 296.057 279.897 295.214 279.438 294.152L256.445 304.081C258.292 308.358 260.962 312.126 264.406 315.275L281.306 296.791ZM279.569 294.466C279.132 293.375 278.827 291.972 278.827 290.108H253.781C253.781 294.795 254.567 299.399 256.315 303.768L279.569 294.466ZM278.827 290.108V255.345H253.781V290.108H278.827ZM268.544 267.666C268.846 267.611 269.616 267.494 271.042 267.316L267.936 242.464C266.45 242.65 265.096 242.837 264.064 243.024L268.544 267.666ZM271.548 267.242C272.394 267.101 273.098 267.049 273.675 267.049V242.003C271.583 242.003 269.496 242.193 267.43 242.538L271.548 267.242ZM273.675 267.049C274.015 267.049 274.247 267.064 274.385 267.077C274.526 267.092 274.538 267.101 274.447 267.08L280.183 242.7C277.97 242.179 275.751 242.003 273.675 242.003V267.049ZM275.256 267.242C274.793 267.165 273.72 266.892 272.532 266L287.559 245.964C284.914 243.98 282.021 242.979 279.374 242.538L275.256 267.242ZM272.532 266C271.092 264.921 270.313 263.601 269.958 262.654L293.409 253.86C292.325 250.972 290.454 248.135 287.559 245.964L272.532 266ZM269.958 262.654C269.756 262.116 269.704 261.766 269.696 261.712C269.687 261.649 269.707 261.756 269.707 262.079H294.752C294.752 259.702 294.5 256.771 293.409 253.86L269.958 262.654ZM269.707 262.079V289.835H294.752V262.079H269.707ZM269.707 289.835C269.707 295.039 271.17 300.772 275.575 305.346L293.616 287.974C294.159 288.537 294.489 289.15 294.653 289.623C294.8 290.048 294.752 290.178 294.752 289.835H269.707ZM275.74 305.515C279.973 309.747 285.37 311.64 290.874 311.64V286.594C290.955 286.594 291.368 286.611 291.957 286.841C292.569 287.081 293.086 287.441 293.45 287.805L275.74 305.515ZM290.874 311.64C296.339 311.64 301.882 309.803 306.174 305.346L288.133 287.974C288.583 287.507 289.181 287.098 289.837 286.841C290.459 286.598 290.865 286.594 290.874 286.594V311.64ZM306.174 305.346C310.579 300.772 312.042 295.039 312.042 289.835H286.997C286.997 290.178 286.949 290.048 287.096 289.623C287.26 289.15 287.59 288.537 288.133 287.974L306.174 305.346ZM312.042 289.835V255.345H286.997V289.835H312.042ZM301.76 267.666C302.062 267.611 302.831 267.494 304.258 267.316L301.151 242.464C299.666 242.65 298.312 242.837 297.279 243.024L301.76 267.666ZM304.763 267.242C305.61 267.101 306.314 267.049 306.891 267.049V242.003C304.798 242.003 302.712 242.193 300.646 242.538L304.763 267.242ZM306.891 267.049C307.23 267.049 307.463 267.064 307.601 267.077C307.741 267.092 307.754 267.101 307.663 267.08L313.399 242.7C311.186 242.179 308.967 242.003 306.891 242.003V267.049ZM308.472 267.242C308.009 267.165 306.936 266.892 305.747 266L320.774 245.964C318.13 243.98 315.237 242.979 312.59 242.538L308.472 267.242ZM305.747 266C304.308 264.921 303.529 263.601 303.174 262.654L326.624 253.86C325.541 250.972 323.67 248.135 320.774 245.964L305.747 266ZM303.174 262.654C302.972 262.116 302.919 261.766 302.912 261.712C302.903 261.649 302.922 261.756 302.922 262.079H327.968C327.968 259.702 327.716 256.771 326.624 253.86L303.174 262.654ZM302.922 262.079V290.108H327.968V262.079H302.922Z" fill="white" mask="url(#path-6-outside-2_4149_371)"/>
</g>
<path d="M229.219 546.832C227.796 548.167 225.6 548.167 224.177 546.832L179.294 504.707C136.448 465.954 179.294 400.553 226.496 447.755H226.883C284.001 403.064 316.931 465.937 274.103 504.707L229.219 546.832Z" fill="#B784B3"/>
<path d="M331.548 547.303L331.548 547.303L331.546 547.301C326.102 542.377 326.114 535.776 328.959 531.911C330.381 529.979 332.509 528.73 335.025 528.705C337.542 528.68 340.465 529.88 343.472 532.887L343.507 532.922H343.556H343.655H343.696L343.728 532.896C347.372 530.046 350.616 528.921 353.256 528.976C355.894 529.03 357.941 530.26 359.202 532.146C361.728 535.922 361.121 542.366 355.669 547.301L355.669 547.301L355.668 547.303L344.172 558.092C344.172 558.092 344.172 558.092 344.172 558.092C343.853 558.391 343.362 558.391 343.043 558.092C343.043 558.092 343.043 558.092 343.043 558.092L331.548 547.303Z" fill="#B784B3" stroke="#B784B3" stroke-width="0.23719"/>
<path d="M77.7544 498.64L77.7545 498.64L77.7519 498.638C69.0624 490.778 69.0807 480.242 73.6213 474.073C75.8909 470.989 79.2887 468.995 83.3042 468.956C87.3212 468.916 91.9876 470.831 96.7868 475.631L96.8423 475.686H96.9207H97.0787H97.1439L97.1953 475.646C103.011 471.096 108.189 469.301 112.403 469.388C116.613 469.474 119.88 471.438 121.894 474.448C125.926 480.475 124.956 490.761 116.255 498.638L116.255 498.638L116.252 498.64L97.9042 515.86C97.3954 516.338 96.6111 516.338 96.1023 515.86L77.7544 498.64Z" fill="#B784B3" stroke="#B784B3" stroke-width="0.378585"/>
<path d="M351.094 424.441L351.094 424.441L351.092 424.438C342.402 416.579 342.421 406.043 346.961 399.874C349.231 396.79 352.629 394.796 356.644 394.756C360.661 394.716 365.327 396.632 370.127 401.431L370.182 401.487H370.261H370.419H370.484L370.535 401.447C376.351 396.896 381.528 395.101 385.743 395.188C389.953 395.275 393.22 397.238 395.234 400.249C399.265 406.276 398.296 416.562 389.594 424.438L389.594 424.438L389.592 424.441L371.244 441.661C370.735 442.139 369.951 442.139 369.442 441.661L351.094 424.441Z" fill="#B784B3" stroke="#B784B3" stroke-width="0.378585"/>
<path d="M139.399 572.698L139.399 572.698L148.124 580.887C148.366 581.114 148.739 581.114 148.981 580.887M139.399 572.698L148.981 580.887M139.399 572.698L139.398 572.697C135.265 568.96 135.274 563.95 137.433 561.016C138.513 559.55 140.128 558.601 142.038 558.582C143.948 558.564 146.167 559.475 148.449 561.757L148.476 561.783H148.513H148.588H148.619L148.644 561.764C151.409 559.6 153.871 558.747 155.876 558.788C157.877 558.829 159.431 559.763 160.389 561.194C162.306 564.061 161.845 568.952 157.707 572.697L157.706 572.698L148.981 580.887M139.399 572.698L149.042 580.953L148.981 580.887" fill="#B784B3" stroke="#B784B3" stroke-width="0.180031"/>
<defs>
<filter id="filter0_d_4149_371" x="89.4828" y="148.43" width="288.306" height="62.2415" filterUnits="userSpaceOnUse" color-interpolation-filters="sRGB">
<feFlood flood-opacity="0" result="BackgroundImageFix"/>
<feColorMatrix in="SourceAlpha" type="matrix" values="0 0 0 0 0 0 0 0 0 0 0 0 0 0 0 0 0 0 127 0" result="hardAlpha"/>
<feOffset dy="2.63635"/>
<feGaussianBlur stdDeviation="1.31818"/>
<feComposite in2="hardAlpha" operator="out"/>
<feColorMatrix type="matrix" values="0 0 0 0 0 0 0 0 0 0 0 0 0 0 0 0 0 0 0.25 0"/>
<feBlend mode="normal" in2="BackgroundImageFix" result="effect1_dropShadow_4149_371"/>
<feBlend mode="normal" in="SourceGraphic" in2="effect1_dropShadow_4149_371" result="shape"/>
</filter>
<filter id="filter1_d_4149_371" x="144.028" y="253.617" width="174.054" height="63.7844" filterUnits="userSpaceOnUse" color-interpolation-filters="sRGB">
<feFlood flood-opacity="0" result="BackgroundImageFix"/>
<feColorMatrix in="SourceAlpha" type="matrix" values="0 0 0 0 0 0 0 0 0 0 0 0 0 0 0 0 0 0 127 0" result="hardAlpha"/>
<feOffset dy="2.63635"/>
<feGaussianBlur stdDeviation="1.31818"/>
<feComposite in2="hardAlpha" operator="out"/>
<feColorMatrix type="matrix" values="0 0 0 0 0 0 0 0 0 0 0 0 0 0 0 0 0 0 0.25 0"/>
<feBlend mode="normal" in2="BackgroundImageFix" result="effect1_dropShadow_4149_371"/>
<feBlend mode="normal" in="SourceGraphic" in2="effect1_dropShadow_4149_371" result="shape"/>
</filter>
</defs>
</svg>
