<svg width="1324" height="288" viewBox="0 0 1324 288" fill="none" xmlns="http://www.w3.org/2000/svg">
<rect x="0.286133" y="0.507812" width="1323.71" height="287.423" fill="white"/>
<rect x="21.1895" y="24.5508" width="246.139" height="239.345" fill="#7DE470"/>
<g filter="url(#filter0_d_4152_168)">
<mask id="path-3-outside-1_4152_168" maskUnits="userSpaceOnUse" x="89.2617" y="40.6836" width="109" height="174" fill="black">
<rect fill="white" x="89.2617" y="40.6836" width="109" height="174"/>
<path d="M168.403 208.684H119.523V111.883H94.924V46.1781H193.002V111.883H168.403V208.684Z"/>
</mask>
<path d="M168.403 208.684H119.523V111.883H94.924V46.1781H193.002V111.883H168.403V208.684Z" fill="#FFDB43"/>
<path d="M168.403 208.684V213.909H173.629V208.684H168.403ZM119.523 208.684H114.298V213.909H119.523V208.684ZM119.523 111.883H124.749V106.657H119.523V111.883ZM94.924 111.883H89.6981V117.109H94.924V111.883ZM94.924 46.1781V40.9522H89.6981V46.1781H94.924ZM193.002 46.1781H198.228V40.9522H193.002V46.1781ZM193.002 111.883V117.109H198.228V111.883H193.002ZM168.403 111.883V106.657H163.177V111.883H168.403ZM168.403 203.458H119.523V213.909H168.403V203.458ZM124.749 208.684V111.883H114.298V208.684H124.749ZM119.523 106.657H94.924V117.109H119.523V106.657ZM100.15 111.883V46.1781H89.6981V111.883H100.15ZM94.924 51.404H193.002V40.9522H94.924V51.404ZM187.776 46.1781V111.883H198.228V46.1781H187.776ZM193.002 106.657H168.403V117.109H193.002V106.657ZM163.177 111.883V208.684H173.629V111.883H163.177Z" fill="white" mask="url(#path-3-outside-1_4152_168)"/>
</g>
<rect x="280.915" y="24.5508" width="246.139" height="239.345" fill="#FFDB43"/>
<g filter="url(#filter1_d_4152_168)">
<mask id="path-6-outside-2_4152_168" maskUnits="userSpaceOnUse" x="335.605" y="38.6836" width="137" height="177" fill="black">
<rect fill="white" x="335.605" y="38.6836" width="137" height="177"/>
<path d="M391.347 148.303V208.684H342.468V46.1781H391.347V105.707H416.479V46.1781H465.252V208.684H416.479V148.303H391.347Z"/>
</mask>
<path d="M391.347 148.303V208.684H342.468V46.1781H391.347V105.707H416.479V46.1781H465.252V208.684H416.479V148.303H391.347Z" fill="#FF5E9D"/>
<path d="M391.347 148.303V141.509H384.553V148.303H391.347ZM391.347 208.684V215.477H398.141V208.684H391.347ZM342.468 208.684H335.674V215.477H342.468V208.684ZM342.468 46.1781V39.3845H335.674V46.1781H342.468ZM391.347 46.1781H398.141V39.3845H391.347V46.1781ZM391.347 105.707H384.553V112.5H391.347V105.707ZM416.479 105.707V112.5H423.273V105.707H416.479ZM416.479 46.1781V39.3845H409.685V46.1781H416.479ZM465.252 46.1781H472.045V39.3845H465.252V46.1781ZM465.252 208.684V215.477H472.045V208.684H465.252ZM416.479 208.684H409.685V215.477H416.479V208.684ZM416.479 148.303H423.273V141.509H416.479V148.303ZM384.553 148.303V208.684H398.141V148.303H384.553ZM391.347 201.89H342.468V215.477H391.347V201.89ZM349.261 208.684V46.1781H335.674V208.684H349.261ZM342.468 52.9717H391.347V39.3845H342.468V52.9717ZM384.553 46.1781V105.707H398.141V46.1781H384.553ZM391.347 112.5H416.479V98.913H391.347V112.5ZM423.273 105.707V46.1781H409.685V105.707H423.273ZM416.479 52.9717H465.252V39.3845H416.479V52.9717ZM458.458 46.1781V208.684H472.045V46.1781H458.458ZM465.252 201.89H416.479V215.477H465.252V201.89ZM423.273 208.684V148.303H409.685V208.684H423.273ZM416.479 141.509H391.347V155.097H416.479V141.509Z" fill="white" mask="url(#path-6-outside-2_4152_168)"/>
</g>
<rect x="539.074" y="24.5508" width="246.139" height="239.345" fill="#46A5FF"/>
<g filter="url(#filter2_d_4152_168)">
<mask id="path-9-outside-3_4152_168" maskUnits="userSpaceOnUse" x="579.72" y="38.6836" width="165" height="177" fill="black">
<rect fill="white" x="579.72" y="38.6836" width="165" height="177"/>
<path d="M644.947 180.996L638.664 208.684H589.146L628.654 46.1781H698.406L735.89 208.684H686.905L680.515 180.996H644.947ZM688.395 113.8C688.395 110.321 687.082 107.482 684.455 105.281C681.97 103.151 678.989 102.086 675.51 102.086C670.398 102.086 666.636 104.606 664.222 109.647C663.441 107.162 661.915 105.281 659.643 104.003C657.584 102.725 655.241 102.086 652.614 102.086C649.278 102.086 646.225 103.222 643.456 105.494C640.971 107.978 639.729 111.031 639.729 114.652C639.729 118.131 640.971 121.574 643.456 124.982C644.592 126.259 645.728 127.537 646.864 128.815C648.071 130.022 649.278 131.265 650.485 132.542C653.04 135.879 654.318 139.464 654.318 143.298C654.318 144.008 654.283 144.753 654.212 145.534C654.141 146.315 654.034 147.167 653.892 148.09C658.294 146.031 662.305 143.866 665.926 141.594C669.547 139.322 672.812 136.98 675.723 134.566C684.171 127.537 688.395 120.615 688.395 113.8Z"/>
</mask>
<path d="M644.947 180.996L638.664 208.684H589.146L628.654 46.1781H698.406L735.89 208.684H686.905L680.515 180.996H644.947ZM688.395 113.8C688.395 110.321 687.082 107.482 684.455 105.281C681.97 103.151 678.989 102.086 675.51 102.086C670.398 102.086 666.636 104.606 664.222 109.647C663.441 107.162 661.915 105.281 659.643 104.003C657.584 102.725 655.241 102.086 652.614 102.086C649.278 102.086 646.225 103.222 643.456 105.494C640.971 107.978 639.729 111.031 639.729 114.652C639.729 118.131 640.971 121.574 643.456 124.982C644.592 126.259 645.728 127.537 646.864 128.815C648.071 130.022 649.278 131.265 650.485 132.542C653.04 135.879 654.318 139.464 654.318 143.298C654.318 144.008 654.283 144.753 654.212 145.534C654.141 146.315 654.034 147.167 653.892 148.09C658.294 146.031 662.305 143.866 665.926 141.594C669.547 139.322 672.812 136.98 675.723 134.566C684.171 127.537 688.395 120.615 688.395 113.8Z" fill="#8C7BF9"/>
<path d="M644.947 180.996V174.202H639.522L638.322 179.492L644.947 180.996ZM638.664 208.684V215.477H644.089L645.289 210.187L638.664 208.684ZM589.146 208.684L582.544 207.079L580.502 215.477H589.146V208.684ZM628.654 46.1781V39.3845H623.314L622.053 44.5732L628.654 46.1781ZM698.406 46.1781L705.025 44.6511L703.811 39.3845H698.406V46.1781ZM735.89 208.684V215.477H744.43L742.51 207.157L735.89 208.684ZM686.905 208.684L680.285 210.211L681.5 215.477H686.905V208.684ZM680.515 180.996L687.135 179.468L685.92 174.202H680.515V180.996ZM684.455 105.281L680.034 110.439L680.063 110.464L680.092 110.488L684.455 105.281ZM664.222 109.647L657.741 111.684L662.907 128.122L670.349 112.581L664.222 109.647ZM659.643 104.003L656.06 109.775L656.185 109.852L656.312 109.924L659.643 104.003ZM643.456 105.494L639.147 100.242L638.889 100.454L638.652 100.69L643.456 105.494ZM643.456 124.982L637.967 128.984L638.16 129.25L638.379 129.495L643.456 124.982ZM646.864 128.815L641.786 133.329L641.919 133.478L642.06 133.619L646.864 128.815ZM650.485 132.542L655.878 128.411L655.665 128.133L655.424 127.878L650.485 132.542ZM653.892 148.09L647.178 147.057L645.242 159.636L656.771 154.244L653.892 148.09ZM675.723 134.566L680.06 139.795L680.068 139.788L675.723 134.566ZM638.322 179.492L632.039 207.18L645.289 210.187L651.572 182.499L638.322 179.492ZM638.664 201.89H589.146V215.477H638.664V201.89ZM595.747 210.289L635.255 47.783L622.053 44.5732L582.544 207.079L595.747 210.289ZM628.654 52.9717H698.406V39.3845H628.654V52.9717ZM691.786 47.7051L729.271 210.211L742.51 207.157L705.025 44.6511L691.786 47.7051ZM735.89 201.89H686.905V215.477H735.89V201.89ZM693.524 207.156L687.135 179.468L673.895 182.524L680.285 210.211L693.524 207.156ZM680.515 174.202H644.947V187.79H680.515V174.202ZM695.189 113.8C695.189 108.347 693.012 103.587 688.818 100.073L680.092 110.488C681.152 111.376 681.602 112.296 681.602 113.8H695.189ZM688.877 100.123C685.079 96.8675 680.5 95.2923 675.51 95.2923V108.88C677.478 108.88 678.862 109.434 680.034 110.439L688.877 100.123ZM675.51 95.2923C671.787 95.2923 668.214 96.2285 665.074 98.3317C661.97 100.411 659.705 103.35 658.095 106.713L670.349 112.581C671.153 110.903 671.976 110.062 672.635 109.621C673.258 109.204 674.121 108.88 675.51 108.88V95.2923ZM670.703 107.61C669.404 103.476 666.75 100.206 662.973 98.0816L656.312 109.924C657.079 110.356 657.478 110.849 657.741 111.684L670.703 107.61ZM663.226 98.2306C660.001 96.2291 656.397 95.2923 652.614 95.2923V108.88C654.086 108.88 655.167 109.221 656.06 109.775L663.226 98.2306ZM652.614 95.2923C647.587 95.2923 643.035 97.0516 639.147 100.242L647.765 110.746C649.415 109.392 650.969 108.88 652.614 108.88V95.2923ZM638.652 100.69C634.851 104.491 632.935 109.291 632.935 114.652H646.523C646.523 112.772 647.092 111.466 648.26 110.297L638.652 100.69ZM632.935 114.652C632.935 119.853 634.818 124.666 637.967 128.984L648.945 120.979C647.124 118.481 646.523 116.408 646.523 114.652H632.935ZM638.379 129.495C638.547 129.684 638.636 129.785 638.805 129.974C638.973 130.164 639.062 130.264 639.23 130.453C639.399 130.643 639.488 130.743 639.656 130.933C639.825 131.122 639.914 131.223 640.082 131.412C640.251 131.601 640.766 132.181 640.934 132.37C641.103 132.56 641.618 133.139 641.786 133.329L651.942 124.302C651.773 124.112 651.684 124.012 651.516 123.823C651.347 123.633 651.258 123.533 651.09 123.343C650.921 123.154 650.832 123.053 650.664 122.864C650.495 122.675 650.406 122.574 650.238 122.385C650.069 122.196 649.554 121.616 649.386 121.427C649.217 121.237 648.702 120.657 648.534 120.468L638.379 129.495ZM642.06 133.619C643.22 134.779 644.382 135.975 645.546 137.207L655.424 127.878C654.174 126.554 652.922 125.265 651.668 124.011L642.06 133.619ZM645.091 136.673C646.832 138.946 647.525 141.103 647.525 143.298H661.112C661.112 137.825 659.249 132.813 655.878 128.411L645.091 136.673ZM647.525 143.298C647.525 143.783 647.5 144.322 647.446 144.919L660.978 146.149C661.065 145.185 661.112 144.233 661.112 143.298H647.525ZM647.446 144.919C647.39 145.537 647.302 146.248 647.178 147.057L660.607 149.123C660.766 148.087 660.892 147.093 660.978 146.149L647.446 144.919ZM656.771 154.244C661.391 152.083 665.651 149.787 669.537 147.349L662.315 135.84C658.959 137.945 655.197 139.98 651.014 141.936L656.771 154.244ZM669.537 147.349C673.378 144.938 676.891 142.423 680.06 139.795L671.386 129.336C668.733 131.537 665.715 133.707 662.315 135.84L669.537 147.349ZM680.068 139.788C689.129 132.25 695.189 123.599 695.189 113.8H681.602C681.602 117.632 679.214 122.825 671.378 129.343L680.068 139.788Z" fill="white" mask="url(#path-9-outside-3_4152_168)"/>
</g>
<rect x="796.709" y="25.0703" width="246.139" height="239.345" fill="#EFEFEF"/>
<g filter="url(#filter3_d_4152_168)">
<mask id="path-12-outside-4_4152_168" maskUnits="userSpaceOnUse" x="857.671" y="39.2031" width="124" height="178" fill="black">
<rect fill="white" x="857.671" y="39.2031" width="124" height="178"/>
<path d="M913.412 159.898V209.203H864.533V46.6976H899.462L925.446 101.008V46.6976H974.325V210.268H937.16L913.412 159.898Z"/>
</mask>
<path d="M913.412 159.898V209.203H864.533V46.6976H899.462L925.446 101.008V46.6976H974.325V210.268H937.16L913.412 159.898Z" fill="#BC632C"/>
<path d="M913.412 159.898L919.557 157.001L906.619 159.898H913.412ZM913.412 209.203V215.997H920.206V209.203H913.412ZM864.533 209.203H857.739V215.997H864.533V209.203ZM864.533 46.6976V39.904H857.739V46.6976H864.533ZM899.462 46.6976L905.59 43.7656L903.743 39.904H899.462V46.6976ZM925.446 101.008L919.318 103.94L932.24 101.008H925.446ZM925.446 46.6976V39.904H918.652V46.6976H925.446ZM974.325 46.6976H981.119V39.904H974.325V46.6976ZM974.325 210.268V217.062H981.119V210.268H974.325ZM937.16 210.268L931.015 213.165L932.852 217.062H937.16V210.268ZM906.619 159.898V209.203H920.206V159.898H906.619ZM913.412 202.409H864.533V215.997H913.412V202.409ZM871.327 209.203V46.6976H857.739V209.203H871.327ZM864.533 53.4913H899.462V39.904H864.533V53.4913ZM893.334 49.6296L919.318 103.94L931.574 98.0761L905.59 43.7656L893.334 49.6296ZM932.24 101.008V46.6976H918.652V101.008H932.24ZM925.446 53.4913H974.325V39.904H925.446V53.4913ZM967.532 46.6976V210.268H981.119V46.6976H967.532ZM974.325 203.474H937.16V217.062H974.325V203.474ZM943.305 207.371L919.557 157.001L907.267 162.795L931.015 213.165L943.305 207.371Z" fill="white" mask="url(#path-12-outside-4_4152_168)"/>
</g>
<rect x="1063.23" y="24.5508" width="239.868" height="239.868" fill="#FC5E75"/>
<g filter="url(#filter4_d_4152_168)">
<mask id="path-15-outside-5_4152_168" maskUnits="userSpaceOnUse" x="1117.44" y="41.8242" width="139" height="172" fill="black">
<rect fill="white" x="1117.44" y="41.8242" width="139" height="172"/>
<path d="M1125.03 48.459H1172.66V101.386C1179.03 101.247 1184.77 97.1309 1189.89 89.0362C1195.01 80.9415 1197.57 68.073 1197.57 50.4308V48.459L1246.24 48.459V50.6383C1246.24 86.1304 1239.15 111.694 1224.97 127.33C1241.09 146.218 1249.15 172.093 1249.15 204.956V206.824H1197.57V205.164C1197.57 187.729 1195.39 174.134 1191.03 164.379C1186.74 154.555 1180.62 149.435 1172.66 149.02V206.824H1125.03V48.459Z"/>
</mask>
<path d="M1125.03 48.459H1172.66V101.386C1179.03 101.247 1184.77 97.1309 1189.89 89.0362C1195.01 80.9415 1197.57 68.073 1197.57 50.4308V48.459L1246.24 48.459V50.6383C1246.24 86.1304 1239.15 111.694 1224.97 127.33C1241.09 146.218 1249.15 172.093 1249.15 204.956V206.824H1197.57V205.164C1197.57 187.729 1195.39 174.134 1191.03 164.379C1186.74 154.555 1180.62 149.435 1172.66 149.02V206.824H1125.03V48.459Z" fill="#0E4896"/>
<path d="M1125.03 48.459V41.8384H1118.41V48.459H1125.03ZM1172.66 48.459H1179.28V41.8384H1172.66V48.459ZM1172.66 101.386H1166.04V108.152L1172.81 108.005L1172.66 101.386ZM1197.57 48.459V41.8384L1190.95 41.8384V48.459H1197.57ZM1246.24 48.459H1252.86V41.8384H1246.24V48.459ZM1224.97 127.33L1220.06 122.882L1216.15 127.197L1219.93 131.628L1224.97 127.33ZM1249.15 206.824V213.445H1255.77V206.824H1249.15ZM1197.57 206.824H1190.95V213.445H1197.57V206.824ZM1191.03 164.379L1184.96 167.028L1184.97 167.054L1184.99 167.08L1191.03 164.379ZM1172.66 149.02L1173.01 142.408L1166.04 142.045V149.02H1172.66ZM1172.66 206.824V213.445H1179.28V206.824H1172.66ZM1125.03 206.824H1118.41V213.445H1125.03V206.824ZM1125.03 55.0795H1172.66V41.8384H1125.03V55.0795ZM1166.04 48.459V101.386H1179.28V48.459H1166.04ZM1172.81 108.005C1182.36 107.797 1189.81 101.544 1195.48 92.5751L1184.29 85.4973C1179.73 92.7178 1175.7 94.6977 1172.52 94.7668L1172.81 108.005ZM1195.48 92.5751C1201.63 82.8556 1204.19 68.4238 1204.19 50.4308H1190.95C1190.95 67.7222 1188.39 79.0274 1184.29 85.4973L1195.48 92.5751ZM1204.19 50.4308V48.459H1190.95V50.4308H1204.19ZM1197.57 55.0795L1246.24 55.0795V41.8384H1197.57V55.0795ZM1239.62 48.459V50.6383H1252.86V48.459H1239.62ZM1239.62 50.6383C1239.62 85.5265 1232.6 109.062 1220.06 122.882L1229.87 131.778C1245.7 114.327 1252.86 86.7343 1252.86 50.6383H1239.62ZM1219.93 131.628C1234.74 148.976 1242.53 173.153 1242.53 204.956H1255.77C1255.77 171.033 1247.44 143.46 1230 123.032L1219.93 131.628ZM1242.53 204.956V206.824H1255.77V204.956H1242.53ZM1249.15 200.204H1197.57V213.445H1249.15V200.204ZM1204.19 206.824V205.164H1190.95V206.824H1204.19ZM1204.19 205.164C1204.19 187.315 1201.98 172.654 1197.08 161.678L1184.99 167.08C1188.8 175.614 1190.95 188.143 1190.95 205.164H1204.19ZM1197.1 161.73C1192.21 150.533 1184.34 142.999 1173.01 142.408L1172.32 155.631C1176.9 155.87 1181.27 158.576 1184.96 167.028L1197.1 161.73ZM1166.04 149.02V206.824H1179.28V149.02H1166.04ZM1172.66 200.204H1125.03V213.445H1172.66V200.204ZM1131.65 206.824V48.459H1118.41V206.824H1131.65Z" fill="#EFEFEF" mask="url(#path-15-outside-5_4152_168)"/>
</g>
<defs>
<filter id="filter0_d_4152_168" x="92.8335" y="46.1797" width="102.259" height="166.685" filterUnits="userSpaceOnUse" color-interpolation-filters="sRGB">
<feFlood flood-opacity="0" result="BackgroundImageFix"/>
<feColorMatrix in="SourceAlpha" type="matrix" values="0 0 0 0 0 0 0 0 0 0 0 0 0 0 0 0 0 0 127 0" result="hardAlpha"/>
<feOffset dy="2.09035"/>
<feGaussianBlur stdDeviation="1.04517"/>
<feComposite in2="hardAlpha" operator="out"/>
<feColorMatrix type="matrix" values="0 0 0 0 0 0 0 0 0 0 0 0 0 0 0 0 0 0 0.25 0"/>
<feBlend mode="normal" in2="BackgroundImageFix" result="effect1_dropShadow_4152_168"/>
<feBlend mode="normal" in="SourceGraphic" in2="effect1_dropShadow_4152_168" result="shape"/>
</filter>
<filter id="filter1_d_4152_168" x="340.377" y="46.1797" width="126.965" height="166.685" filterUnits="userSpaceOnUse" color-interpolation-filters="sRGB">
<feFlood flood-opacity="0" result="BackgroundImageFix"/>
<feColorMatrix in="SourceAlpha" type="matrix" values="0 0 0 0 0 0 0 0 0 0 0 0 0 0 0 0 0 0 127 0" result="hardAlpha"/>
<feOffset dy="2.09035"/>
<feGaussianBlur stdDeviation="1.04517"/>
<feComposite in2="hardAlpha" operator="out"/>
<feColorMatrix type="matrix" values="0 0 0 0 0 0 0 0 0 0 0 0 0 0 0 0 0 0 0.25 0"/>
<feBlend mode="normal" in2="BackgroundImageFix" result="effect1_dropShadow_4152_168"/>
<feBlend mode="normal" in="SourceGraphic" in2="effect1_dropShadow_4152_168" result="shape"/>
</filter>
<filter id="filter2_d_4152_168" x="587.055" y="46.1797" width="150.926" height="166.685" filterUnits="userSpaceOnUse" color-interpolation-filters="sRGB">
<feFlood flood-opacity="0" result="BackgroundImageFix"/>
<feColorMatrix in="SourceAlpha" type="matrix" values="0 0 0 0 0 0 0 0 0 0 0 0 0 0 0 0 0 0 127 0" result="hardAlpha"/>
<feOffset dy="2.09035"/>
<feGaussianBlur stdDeviation="1.04517"/>
<feComposite in2="hardAlpha" operator="out"/>
<feColorMatrix type="matrix" values="0 0 0 0 0 0 0 0 0 0 0 0 0 0 0 0 0 0 0.25 0"/>
<feBlend mode="normal" in2="BackgroundImageFix" result="effect1_dropShadow_4152_168"/>
<feBlend mode="normal" in="SourceGraphic" in2="effect1_dropShadow_4152_168" result="shape"/>
</filter>
<filter id="filter3_d_4152_168" x="862.443" y="46.6992" width="113.973" height="167.751" filterUnits="userSpaceOnUse" color-interpolation-filters="sRGB">
<feFlood flood-opacity="0" result="BackgroundImageFix"/>
<feColorMatrix in="SourceAlpha" type="matrix" values="0 0 0 0 0 0 0 0 0 0 0 0 0 0 0 0 0 0 127 0" result="hardAlpha"/>
<feOffset dy="2.09035"/>
<feGaussianBlur stdDeviation="1.04517"/>
<feComposite in2="hardAlpha" operator="out"/>
<feColorMatrix type="matrix" values="0 0 0 0 0 0 0 0 0 0 0 0 0 0 0 0 0 0 0.25 0"/>
<feBlend mode="normal" in2="BackgroundImageFix" result="effect1_dropShadow_4152_168"/>
<feBlend mode="normal" in="SourceGraphic" in2="effect1_dropShadow_4152_168" result="shape"/>
</filter>
<filter id="filter4_d_4152_168" x="1122.99" y="48.4609" width="128.193" height="162.437" filterUnits="userSpaceOnUse" color-interpolation-filters="sRGB">
<feFlood flood-opacity="0" result="BackgroundImageFix"/>
<feColorMatrix in="SourceAlpha" type="matrix" values="0 0 0 0 0 0 0 0 0 0 0 0 0 0 0 0 0 0 127 0" result="hardAlpha"/>
<feOffset dy="2.03709"/>
<feGaussianBlur stdDeviation="1.01855"/>
<feComposite in2="hardAlpha" operator="out"/>
<feColorMatrix type="matrix" values="0 0 0 0 0 0 0 0 0 0 0 0 0 0 0 0 0 0 0.25 0"/>
<feBlend mode="normal" in2="BackgroundImageFix" result="effect1_dropShadow_4152_168"/>
<feBlend mode="normal" in="SourceGraphic" in2="effect1_dropShadow_4152_168" result="shape"/>
</filter>
</defs>
</svg>
