<svg width="961" height="581" viewBox="0 0 961 581" fill="none" xmlns="http://www.w3.org/2000/svg">
<rect x="0.00195312" y="0.078125" width="925.759" height="530.247" fill="#C6E2DE"/>
<rect x="0.00195312" y="16.5938" width="925.759" height="541.982" fill="#8B9E9C"/>
<rect x="46.5078" y="76.1367" width="912.72" height="503.3" fill="#C6E2DE"/>
<rect x="46.5078" y="76.1367" width="912.72" height="503.3" stroke="black" stroke-width="2.60777" stroke-dasharray="12.6 12.6"/>
<path d="M270.123 211.353V289.238H236.505V211.353H202.126V184.58H304.35V211.353H270.123ZM390.249 289.238V249.535H353.284V289.238H319.666V184.58H353.284V222.762H390.249V184.58H423.868V289.238H390.249ZM516.51 289.238L512.099 274.483H475.438L471.026 289.238H436.647L474.829 184.58H513.924L552.106 289.238H516.51ZM482.435 251.056H505.101L494.149 213.787H493.54L482.435 251.056ZM639.624 289.238L595.661 238.43V289.238H564.781V184.58H594.14L638.103 236.148V184.58H668.983V289.238H639.624ZM762.386 184.58H804.067L766.493 227.63L804.828 289.238H765.124L743.371 250.904L725.117 265.812V289.238H691.498V184.58H725.117V229.303L762.386 184.58Z" fill="#243331"/>
<path d="M384.364 468.742H350.746V428.126L309.217 364.084H347.856L367.936 398.919H368.544L388.624 364.084H425.285L384.364 428.126V468.742ZM480.771 362.258C498.822 362.258 512.766 366.872 522.604 376.101C532.441 385.33 537.359 398.767 537.359 416.413C537.359 434.059 532.441 447.496 522.604 456.725C512.766 465.953 498.822 470.568 480.771 470.568C462.719 470.568 448.775 466.004 438.938 456.877C429.202 447.648 424.334 434.16 424.334 416.413C424.334 398.666 429.202 385.228 438.938 376.101C448.775 366.872 462.719 362.258 480.771 362.258ZM480.771 387.358C473.57 387.358 468.094 389.538 464.342 393.899C460.589 398.26 458.713 404.142 458.713 411.545V421.281C458.713 428.684 460.589 434.566 464.342 438.927C468.094 443.287 473.57 445.468 480.771 445.468C487.971 445.468 493.447 443.287 497.2 438.927C501.053 434.566 502.98 428.684 502.98 421.281V411.545C502.98 404.142 501.053 398.26 497.2 393.899C493.447 389.538 487.971 387.358 480.771 387.358ZM659.665 426.605C659.665 440.904 655.152 451.806 646.126 459.311C637.1 466.815 624.272 470.568 607.64 470.568C591.008 470.568 578.129 466.815 569.001 459.311C559.976 451.806 555.463 440.904 555.463 426.605V364.084H589.081V426.149C589.081 432.031 590.653 436.746 593.797 440.296C596.941 443.744 601.504 445.468 607.488 445.468C613.471 445.468 618.035 443.693 621.179 440.144C624.424 436.594 626.046 431.929 626.046 426.149V364.084H659.665V426.605ZM686.439 431.321L678.073 364.084H714.429L705.758 431.321H686.439ZM681.115 468.742V440.6H711.235V468.742H681.115Z" fill="#243331"/>
</svg>
