<svg width="1458" height="1441" viewBox="0 0 1458 1441" fill="none" xmlns="http://www.w3.org/2000/svg">
<g clip-path="url(#clip0_4173_800)">
<path d="M1269.26 1036.65C1269.42 1033.99 1268.51 1031.16 1266.06 1028.7C1260.24 1022.88 1254.15 1017.44 1247.96 1012.16C1189.89 911.917 1210.44 788.301 1236.22 679.524C1263.76 563.38 1296.27 440.138 1249.83 324.261C1248.65 321.272 1244.22 318.924 1241.72 322.126C1159.84 425.086 1114.47 554.573 1117.89 686.462C1120.34 780.402 1147.78 879.412 1198.96 961.182C1169.93 932.52 1139.66 905.299 1108.65 879.519C1078.6 854.539 1047.75 830.734 1016.26 807.73C1002.44 749.284 990.588 692.227 991.122 631.54C991.389 600.315 992.403 569.305 997.473 538.401C1002.7 506.696 1014.29 477.447 1021.92 446.489C1022.24 445.155 1020.48 444.408 1019.73 445.582C987.492 497.089 972.761 571.386 971.587 631.54C970.519 687.103 979.379 746.722 1002.76 797.962C985.464 785.526 967.957 773.25 950.343 761.187C921.628 731.297 894.247 701.407 871.989 665.753C845.248 623 827.368 576.19 816.159 527.139C794.542 432.452 800.68 326.076 753.497 238.755C752.536 236.993 749.441 238.221 750.188 240.142C770.524 292.663 780.238 346.145 785.736 402.081C788.564 430.637 790.166 459.353 793.101 487.908C782.533 468.907 767.161 451.613 753.23 436.668C729.212 410.888 699.589 390.232 668.151 374.487C665.215 372.992 661.639 376.889 664.415 379.29C689.501 401.014 712.826 424.018 735.617 448.144C756.593 470.348 773.78 498.423 796.838 518.492C798.866 531.942 801.428 545.339 804.79 558.576C819.308 615.581 848.237 674.133 889.016 720.195C765.56 639.439 637.834 564.661 517.901 478.674C405.867 398.345 297.303 305.953 216.12 193.653C214.625 191.571 211.209 193.546 212.651 195.681C279.689 293.304 361.406 375.127 451.076 448.251C358.791 415.105 243.928 427.541 155.913 463.836C153.244 464.957 154.152 469.067 157.141 468.32C207.74 455.189 258.98 445.956 311.394 446.543C364.182 447.13 414.087 456.31 466.074 463.889C467.302 464.05 468.476 463.676 469.437 463.035C544.055 522.228 623.69 575.816 704.552 627.697C675.73 621.879 645.146 621.292 616.804 621.986C571.649 623.053 527.402 629.778 484.115 642.802C441.628 655.612 400.21 673.706 361.299 695.002C316.144 719.715 273.017 748.644 219.536 748.377C218.041 748.377 217.614 750.779 219.162 751.099C258.446 758.091 293.673 743.146 327.887 724.999C370.32 702.528 411.151 680.217 457.801 667.087C503.596 654.171 551.153 646.271 598.657 643.442C599.458 643.442 600.258 643.442 601.059 643.335C567.326 657.533 538.13 689.932 516.62 715.605C480.912 758.145 447.66 798.336 404.319 833.456C399.836 837.086 404.64 845.039 409.977 843.171C454.598 827.532 485.129 787.821 513.257 751.9C529.537 731.084 545.442 709.894 563.643 690.679C581.844 671.464 602.713 658.067 623.636 642.855C660.945 643.122 698.094 647.712 735.296 647.178C849.999 720.088 964.755 793.265 1069.96 877.811C1000.2 850.857 922.108 842.21 850.639 849.789C690.462 866.816 547.097 952.215 410.991 1032.12C408.963 1033.29 409.177 1036.01 410.991 1037.24C531.512 1120.13 679.199 1070.44 801.695 1019.84C876.152 989.097 953.172 956.592 1035.05 955.578C1106.3 954.671 1174.68 980.024 1229.07 1024.8C1246.68 1043.86 1263.76 1063.45 1280.2 1083.84C1362.82 1186 1421.32 1304.17 1444.01 1434.03C1445.07 1440.06 1455.54 1438.73 1454.84 1432.59C1437.55 1281.96 1365.44 1149.81 1269.1 1036.6L1269.26 1036.65Z" fill="#65794F"/>
<path d="M248.943 39.6119C241.738 21.5712 226.686 -2.18058 203.361 4.11764C187.402 8.441 181.851 23.9731 179.983 39.2916C172.51 29.7375 161.889 24.0264 148.599 31.5523C127.676 43.4015 132.64 66.3526 141.126 84.7136C123.512 71.8502 99.6006 48.5255 85.136 72.1171C74.034 90.2645 85.4029 116.952 98.2662 136.754C84.7624 130.99 70.0309 128.855 58.1817 139.743C44.1442 152.66 46.3859 174.543 56.9007 188.848C91.0072 235.284 184.573 226.477 212.915 212.012C277.872 178.92 272.001 97.6303 248.89 39.5051L248.943 39.6119Z" fill="white" stroke="#F4D8A9" stroke-width="11.5483" stroke-miterlimit="10"/>
<path d="M243.403 99.4075C238.688 87.6024 228.839 72.0603 213.576 76.1816C203.133 79.0106 199.501 89.1741 198.278 99.198C193.389 92.9462 186.438 89.2091 177.742 94.1337C164.051 101.887 167.299 116.906 172.852 128.92C161.326 120.503 145.679 105.24 136.214 120.678C128.95 132.553 136.389 150.016 144.806 162.973C135.97 159.201 126.33 157.804 118.577 164.929C109.391 173.381 110.858 187.701 117.738 197.061C140.056 227.447 201.282 221.684 219.828 212.219C262.333 190.565 258.491 137.372 243.368 99.3377L243.403 99.4075Z" fill="#F4D8A9"/>
<path d="M809.617 119.624C807.7 103.476 800.676 81.0106 780.452 81.0497C766.612 81.0878 758.758 92.4436 753.929 104.425C749.957 95.0808 742.606 88.162 730.23 91.3676C710.746 96.4153 709.787 116.048 712.671 132.732C701.216 118.516 686.936 94.4758 670.129 110.417C657.221 122.685 660.632 146.726 666.742 165.524C657.072 157.937 645.624 153.019 633.684 159.256C619.536 166.659 616.607 184.838 622.01 198.682C639.526 243.617 717.087 256.768 743.137 251.213C802.827 238.529 815.691 171.53 809.597 119.526L809.617 119.624Z" fill="#F4D8A9" stroke="#F4D8A9" stroke-width="9.66675" stroke-miterlimit="10"/>
<path d="M792.183 166.771C790.928 156.205 786.332 141.504 773.099 141.53C764.042 141.555 758.903 148.986 755.743 156.826C753.144 150.711 748.334 146.184 740.235 148.282C727.486 151.585 726.858 164.431 728.745 175.349C721.25 166.046 711.905 150.316 700.908 160.747C692.461 168.774 694.693 184.506 698.691 196.806C692.364 191.842 684.873 188.624 677.06 192.705C667.802 197.549 665.885 209.445 669.421 218.504C680.883 247.907 731.635 256.512 748.681 252.878C787.74 244.578 796.158 200.737 792.17 166.707L792.183 166.771Z" fill="#F4D8A9"/>
<path d="M1118.5 406.048C1124.91 391.105 1130.06 368.137 1112.52 358.059C1100.52 351.172 1088.04 357.08 1077.87 365.041C1079.1 354.963 1076.19 345.296 1063.87 341.884C1044.47 336.513 1033.83 353.036 1027.98 368.927C1025.17 350.887 1024.82 322.928 1002.3 328.33C984.986 332.501 975.919 355.026 971.812 374.361C967.231 362.956 959.775 352.973 946.316 352.404C930.362 351.74 918.736 366.02 916.493 380.711C909.195 428.384 969.79 478.553 995.127 486.767C1053.16 505.627 1097.8 454.037 1118.53 405.953L1118.5 406.048Z" fill="white" stroke="#F4D8A9" stroke-width="9.66675" stroke-miterlimit="10"/>
<path d="M1079.82 438.165C1084.02 428.387 1087.39 413.358 1075.91 406.763C1068.06 402.256 1059.89 406.122 1053.24 411.332C1054.04 404.737 1052.14 398.411 1044.08 396.179C1031.39 392.664 1024.42 403.476 1020.59 413.874C1018.75 402.07 1018.53 383.775 1003.79 387.31C992.458 390.039 986.525 404.778 983.838 417.43C980.84 409.967 975.961 403.435 967.155 403.063C956.715 402.628 949.107 411.973 947.64 421.585C942.864 452.781 982.515 485.609 999.094 490.984C1037.07 503.326 1066.28 469.567 1079.84 438.103L1079.82 438.165Z" fill="#F4D8A9"/>
<path d="M172.67 332.405C159.896 322.342 139.043 311.424 124.771 325.752C115.011 335.565 117.488 349.148 122.545 361.035C113.129 357.236 103.039 357.542 96.5542 368.56C86.346 385.907 99.5503 400.467 113.387 410.225C95.2348 408.272 68.1382 401.371 67.5264 424.528C67.0737 442.33 86.4849 456.918 104.098 465.889C91.8958 467.362 80.323 471.98 76.2904 484.833C71.5204 500.071 82.3045 514.997 95.9139 520.966C140.074 540.354 204.216 494.809 218.708 472.461C251.947 421.285 213.668 364.813 172.586 332.35L172.67 332.405Z" fill="#F4D8A9" stroke="#F4D8A9" stroke-width="9.66675" stroke-miterlimit="10"/>
<path d="M193.68 378.066C185.321 371.481 171.676 364.337 162.337 373.712C155.95 380.134 157.571 389.022 160.88 396.8C154.719 394.315 148.116 394.514 143.873 401.724C137.193 413.075 145.834 422.603 154.888 428.988C143.01 427.71 125.279 423.195 124.879 438.347C124.582 449.996 137.284 459.542 148.809 465.412C140.825 466.376 133.252 469.398 130.613 477.808C127.492 487.78 134.549 497.547 143.454 501.452C172.35 514.139 214.322 484.336 223.805 469.713C245.555 436.225 220.507 399.272 193.625 378.03L193.68 378.066Z" fill="#F4D8A9"/>
<path d="M293.683 770.768C277.535 772.685 255.07 779.71 255.109 799.933C255.147 813.774 266.503 821.627 278.484 826.456C269.14 830.428 262.221 837.779 265.427 850.155C270.474 869.639 290.107 870.598 306.791 867.714C292.575 879.169 268.535 893.45 284.476 910.256C296.744 923.164 320.785 919.754 339.583 913.643C331.996 923.313 327.079 934.761 333.315 946.701C340.718 960.849 358.897 963.778 372.741 958.375C417.676 940.859 430.827 863.298 425.272 837.249C412.588 777.558 345.589 764.694 293.585 770.788L293.683 770.768Z" fill="white" stroke="#F4D8A9" stroke-width="9.66675" stroke-miterlimit="10"/>
<path d="M340.831 788.199C330.265 789.453 315.564 794.05 315.59 807.283C315.615 816.34 323.046 821.479 330.886 824.639C324.771 827.238 320.244 832.048 322.342 840.146C325.645 852.896 338.491 853.524 349.409 851.636C340.106 859.132 324.376 868.477 334.807 879.474C342.834 887.921 358.566 885.689 370.866 881.69C365.902 888.018 362.684 895.509 366.765 903.322C371.609 912.58 383.505 914.497 392.564 910.961C421.968 899.499 430.573 848.747 426.938 831.701C418.638 792.642 374.797 784.224 340.767 788.212L340.831 788.199Z" fill="#F4D8A9"/>
</g>
<defs>
<clipPath id="clip0_4173_800">
<rect width="1457.56" height="1440.27" fill="white" transform="translate(0.111328 0.4375)"/>
</clipPath>
</defs>
</svg>
