<svg width="806" height="1303" viewBox="0 0 806 1303" fill="none" xmlns="http://www.w3.org/2000/svg">
<path d="M261.417 1301.31C261.417 1301.31 98.5475 680.918 497.001 374.652C533.849 346.273 568.364 314.946 598.579 279.565C638.867 232.268 694.63 165.437 737.988 108.557" stroke="#C9973D" stroke-width="12.6166" stroke-miterlimit="10"/>
<path d="M233.779 1098.25C233.779 1098.25 272.716 937.807 404.51 863.606" stroke="#C9973D" stroke-width="12.6166" stroke-miterlimit="10"/>
<path d="M72.2599 803.887C72.2599 803.887 220.144 955.607 228.742 1052.17" stroke="#C9973D" stroke-width="12.6166" stroke-miterlimit="10"/>
<path d="M235.994 875.029C236.731 877.486 378.228 561.637 688.736 532.522" stroke="#C9973D" stroke-width="12.6166" stroke-miterlimit="10"/>
<path d="M279.35 674.656C279.35 674.656 264.855 571.585 238.816 513.968" stroke="#C9973D" stroke-width="12.6166" stroke-miterlimit="10"/>
<path d="M432.274 430.922C432.274 430.922 479.563 349.595 452.295 187.801" stroke="#C9973D" stroke-width="12.6166" stroke-miterlimit="10"/>
<path d="M572.416 305.254C572.416 305.254 611.598 219.381 571.556 84.3688" stroke="#C9973D" stroke-width="12.6166" stroke-miterlimit="10"/>
<path d="M304.034 617.539C304.034 617.539 387.065 509.676 540.846 458.939" stroke="#C9973D" stroke-width="12.6166" stroke-miterlimit="10"/>
<path d="M326.265 735.844C326.265 735.844 446.023 675.77 540.846 670.365" stroke="#C9973D" stroke-width="12.6166" stroke-miterlimit="10"/>
<path d="M490.366 596.148C490.366 596.148 566.519 554.011 594.523 495.78" stroke="#C9973D" stroke-width="12.6166" stroke-miterlimit="10"/>
<path d="M101.372 842.832C101.372 842.832 -14.2089 835.584 2.37282 752.537C18.9546 669.613 66.9808 713.839 86.6332 756.222C106.286 798.483 101.372 842.832 101.372 842.832Z" fill="#70B799"/>
<path d="M258.711 561.043C258.711 561.043 164.748 550.109 188.085 472.836C211.422 395.563 305.999 479.47 258.711 561.043Z" fill="#70B799"/>
<path d="M453.523 255.133C453.523 255.133 328.853 119.26 422.816 94.9357C516.779 70.6113 484.844 241.128 453.523 255.133Z" fill="#70B799"/>
<path d="M583.352 131.773C583.352 131.773 476.368 31.1589 541.958 4.86889C607.548 -21.4211 606.935 82.1419 583.352 131.773Z" fill="#70B799"/>
<path d="M686.399 168.645C686.399 168.645 687.997 -10.9628 774.345 17.2928C860.692 45.5485 745.111 161.888 686.399 168.645Z" fill="#70B799"/>
<path d="M462.732 492.115C462.732 492.115 486.315 407.102 538.271 412.508C590.227 417.913 615.284 496.415 462.732 492.115Z" fill="#70B799"/>
<path d="M340.274 910.652C340.274 910.652 333.273 841.979 398.863 833.379C464.453 824.657 458.188 882.028 434.482 896.279C410.776 910.652 340.274 910.652 340.274 910.652Z" fill="#70B799"/>
<path d="M475.746 687.819C475.746 687.819 516.402 618.163 574.99 629.097C633.579 640.031 618.717 702.439 565.41 710.055C512.103 717.795 475.746 687.819 475.746 687.819Z" fill="#70B799"/>
<path d="M619.951 548.12C619.951 548.12 665.274 459.422 729.145 489.151C793.138 518.758 763.168 590.38 619.951 548.12Z" fill="#70B799"/>
<path d="M574.63 529.32C574.63 529.32 564.435 451.802 611.232 450.45C658.03 448.976 636.658 516.298 574.63 529.32Z" fill="#70B799"/>
</svg>
