<svg width="698" height="407" viewBox="0 0 698 407" fill="none" xmlns="http://www.w3.org/2000/svg">
    <path
        d="M697.52 7.52237C697.52 7.52237 688.888 8.80625 673.276 11.1324C669.383 11.7489 665.056 12.4406 660.316 13.1944C655.603 13.9751 650.486 15.0709 644.92 15.9222C633.84 17.7185 621.144 19.3043 607.226 21.4026C603.785 22.024 600.271 22.658 596.67 23.3044C594.857 23.5642 593.081 24.064 591.279 24.5636C589.477 25.0498 587.655 25.5357 585.819 26.0349C583.983 26.534 582.128 27.0331 580.252 27.5384C578.422 28.1907 576.571 28.8494 574.707 29.5146C570.992 30.8918 567.126 32.0411 563.407 33.8109C548.218 40.0615 532.831 48.6791 517.098 58.5575C501.338 68.3956 485.074 79.3331 467.721 90.0124C450.388 100.712 431.927 111.1 412.307 120.344C392.654 129.514 372.513 136.483 353.741 143.673C334.894 150.982 316.968 158.706 300.17 166.67C266.543 182.53 237.275 198.923 213.355 213.73C189.396 228.491 170.739 241.605 157.987 250.85C151.562 255.412 146.697 259.126 143.316 261.545C139.943 263.971 138.093 265.162 137.955 264.988C137.81 264.813 139.378 263.28 142.489 260.518C145.607 257.764 150.23 253.714 156.439 248.824C168.759 238.921 187.097 225.158 210.876 209.81C234.615 194.415 263.836 177.482 297.568 161.211C314.414 153.035 332.429 145.132 351.397 137.677C370.498 130.271 390.125 123.443 409.523 114.39C428.862 105.276 447.134 95.1129 464.438 84.646C481.762 74.1992 498.15 63.4828 514.201 53.8342C530.212 44.1518 546.056 35.6789 561.715 29.6531C577.36 23.6337 592.622 19.7931 606.775 18.1566C620.816 16.4523 633.5 15.2857 644.61 13.869C650.154 13.2171 655.281 12.3145 660.067 11.6943C664.838 11.0739 669.196 10.5623 673.121 10.1257C688.819 8.45944 697.5 7.53546 697.5 7.53546L697.52 7.52237Z"
        fill="#84765D" />
    <path
        d="M246.823 292.923C251.348 262.339 255.183 231.541 273.989 205.384C279.224 210.472 273.517 216.899 276.101 222.318C276.494 225.31 275.991 228.14 274.538 230.786C271.433 238.445 269.611 246.319 270.505 254.661C270.64 255.76 270.621 256.865 270.522 257.962C269.364 262.308 269.902 266.647 270.62 270.994C269.713 275.509 267.578 279.652 266.744 284.189L266.835 284.343C262.048 285.123 260.771 282.027 260.086 278.26C259.649 274.981 262.755 271.5 259.54 268.471C256.774 271.382 257.976 275.222 256.963 278.465C256.436 281.042 255.325 283.419 254.38 285.851C252.861 288.45 254.397 292.26 251.129 294.168C249.461 294.556 247.979 294.307 246.83 292.917L246.823 292.923Z"
        fill="#AE8D48" />
    <path
        d="M164.861 313.441C175.067 290.977 181.353 266.828 194.057 245.436C197.09 244.338 199.422 245.328 201.251 247.837C201.452 253.236 197.29 256.565 195.101 260.841C190.855 266.318 190.03 273.071 188.197 279.44C187.588 281.55 186.051 284.009 189.868 284.869C198.286 286.764 195.332 291.643 192.851 296.395C189.019 300.586 187.391 307.024 180.768 308.376C183.197 309.587 188.391 304.412 188.32 311.586C183.559 315.52 178.804 319.455 174.043 323.39C170.178 320.819 168.282 316.426 164.861 313.447L164.861 313.441Z"
        fill="#7D5B18" />
    <path
        d="M451.73 160.468C450.971 135.297 457.743 112.903 475.996 94.7528C479.654 94.5086 481.716 97.477 482.182 103.658C482.243 104.73 482.119 105.787 481.848 106.829C480.571 109.75 478.614 112.298 477.218 115.157C470.171 124.897 466.935 136.076 464.885 147.72C459.483 151.901 461.12 161.708 452.471 163.251C452.231 163.295 451.844 162.812 451.614 162.51C451.207 161.967 451.282 161.262 451.729 160.475L451.73 160.468Z"
        fill="#9B7C2A" />
    <path
        d="M145.771 270.659C140.979 279.252 136.187 287.845 131.395 296.438C128.39 298.01 127.742 303.2 121.428 298.739C116.058 294.947 111.707 304.637 106.112 306.952C105.101 307.453 104.052 307.828 102.958 308.109C99.0338 308.485 95.7579 310.46 92.286 312.106C88.7204 313.804 85.3174 314.007 85.4586 308.365C90.5035 300.979 96.9572 295.019 104.24 289.901C111.555 285.535 117.961 279.721 125.74 276.066C127.582 275.041 129.474 274.196 131.655 274.399C136.684 276.431 137.943 270.761 141.417 269.587C143.065 269.166 144.581 269.302 145.778 270.666L145.771 270.659Z"
        fill="#724E13" />
    <path
        d="M167.957 226.42C162.011 229.736 155.879 232.491 148.89 232.561C148.312 228.848 147.912 225.21 143.342 223.803C140.987 223.078 138.206 221.757 139.969 218.169C143.39 215.092 147.536 214.491 152.365 214.717C148.628 213.205 144.314 215.202 141.576 211.731C141.609 204.444 147.506 204.322 152.205 203.721C160.409 202.672 168.053 200.452 174.99 195.916C177.93 195.442 180.865 195.48 183.794 195.991C186.063 196.681 188.054 197.814 189.571 199.688C184.029 206.209 183.395 217.45 170.878 217.267C163.126 217.156 168.737 223.24 167.964 226.42L167.957 226.42Z"
        fill="#796225" />
    <path
        d="M475.739 113.722C476.074 110.471 477.519 107.951 480.504 106.439C490.042 101.997 496.422 94.3002 501.893 85.668C498.177 109.1 503.33 133.501 494.204 156.349C492 157.662 489.906 160.521 487.129 158.215C485.15 156.57 485.776 154.087 486.958 151.844C490.438 145.22 484.725 138.776 486.529 131.961C487.272 129.154 486.496 125.844 487.891 122.951C489.206 120.117 489.963 117.217 488.872 114.17C487.428 112.338 485.89 113.619 484.367 114.095C481.436 114.955 478.493 116.287 475.739 113.715L475.739 113.722Z"
        fill="#665010" />
    <path
        d="M204.955 95.7566C205.686 95.2854 206.416 94.8209 207.147 94.3496C209.338 92.9226 211.62 95.483 213.824 94.1759C216.207 93.4831 217.59 94.8091 218.769 96.5855C224.222 103.1 229.918 109.325 237.492 113.493C238.422 116.172 237.166 117.809 234.897 118.962C216.324 113.955 197.744 108.955 178.208 103.692C182.881 96.8546 189.073 96.6822 195.023 96.0015C198.368 97.4953 201.681 97.5579 204.948 95.7565L204.955 95.7566Z"
        fill="#997816" />
    <path
        d="M33.3228 226.761C27.3172 227.008 21.6234 226.115 16.7271 222.268C15.9713 221.395 15.4029 220.417 15.0489 219.308C14.4326 215.388 16.6107 212.77 19.2059 210.342C20.8962 209.742 22.5799 209.134 24.2702 208.534C29.7084 210.283 35.082 208.784 40.4721 208.224C44.6984 208.197 48.9237 208.269 53.1422 208.342C54.932 208.388 56.7214 208.46 58.4732 208.932C61.3356 210.101 63.3832 212.14 64.7645 214.863C65.092 215.958 65.2062 217.084 65.0939 218.228C64.2541 226.924 57.2068 225.656 51.5589 226.666C45.4839 227.172 39.3976 225.05 33.3228 226.761Z"
        fill="#A2844B" />
    <path
        d="M299.552 69.0181C294.524 66.8871 289.496 64.7627 284.468 62.6317C284.528 54.6396 287.044 50.2811 296.475 52.0873C307.792 54.2533 319.58 49.2037 330.933 53.553C333.002 58.4803 341.686 57.3635 341.14 64.7048C339.05 70.9047 334.074 70.0786 329.247 69.6402C319.383 67.8892 309.507 66.6439 299.545 69.018L299.552 69.0181Z"
        fill="#BE993F" />
    <path
        d="M382.744 62.9059C387.743 63.4128 392.4 64.8143 396.391 68.0122C396.047 75.2626 404.426 74.5616 406.77 79.3655C408.074 81.283 409.043 83.3366 409.37 85.6628C409.437 87.5003 408.967 89.1258 407.555 90.3949C404.413 92.3373 400.933 92.2463 397.441 92.062C391.052 90.8612 384.325 90.7016 378.929 86.2905C376.858 84.5909 374.519 83.0748 374.226 80.0302C376.544 75.51 372.526 72.2785 371.837 68.3578C373.862 63.3019 377.202 60.8891 382.757 62.9061L382.744 62.9059Z"
        fill="#785E0A" />
    <path
        d="M490.103 123.343C490.336 130.726 486.278 138.542 492.852 145.395C493.714 146.296 492.263 151.158 490.594 152.318C488.428 153.825 486.118 154.459 488.74 156.91C489.623 157.731 492.337 156.596 494.21 156.35C491.235 161.309 488.259 166.268 485.277 171.227C477.954 172.066 479.946 184.081 471.073 183.072C467.479 181.243 466.884 178.375 468.194 174.835C468.961 172.847 470.145 171.09 471.348 169.352C473.649 166.489 473.982 162.773 475.534 159.575C482.921 146.731 480.954 132.401 482.082 118.571C481.723 115.492 483.416 113.401 485.5 111.493C487.093 111.278 488.677 108.799 490.272 111.485C490.408 115.44 492.482 119.422 490.103 123.343Z"
        fill="#8E7824" />
    <path
        d="M279.569 165.871C274.595 169.091 268.947 167.726 263.57 168.253C248.548 170.206 234.343 165.593 219.891 162.86C218.752 162.389 217.761 161.706 216.885 160.838C213.056 154.314 218.396 154.086 222.329 152.871C228.673 151.529 234.815 146.644 241.569 151.642C248.901 159.808 258.541 155.201 267.175 156.22C271.205 157.135 275.379 157.626 279.134 159.311C282.876 160.989 283.155 163.441 279.562 165.871L279.569 165.871Z"
        fill="#443905" />
    <path
        d="M374.26 101.549C363.079 98.5587 354.073 91.3731 344.155 85.9546C343.668 84.2323 344.691 83.2451 345.845 82.3326C347.873 76.9906 341.697 78.2812 340.328 75.5843C339.181 73.3224 334.34 72.3447 338.288 68.6008C343.602 66.4158 348.383 68.0516 353.04 70.6112C356.042 73.0197 357.462 76.5158 359.291 79.7035C360.017 81.4883 361.184 82.4527 363.262 81.65C370.063 78.1035 371.801 86.5544 376.811 87.2543C381.18 90.0703 388.842 88.6695 389.086 96.7847C385.232 101.748 379.318 100.299 374.267 101.549L374.26 101.549Z"
        fill="#7A5F08" />
    <path
        d="M139.581 218.677C141.908 223.833 151.388 219.837 151.562 228.337C151.618 231.086 149.179 230.847 148.894 232.561C135.651 236.809 122.13 234.766 108.677 234.373C105.056 233.236 101.125 232.434 106.358 227.879C109.859 224.829 114.68 225.787 118.229 223.223C124.838 221.272 130.642 216.29 138.205 217.896C138.668 218.148 139.131 218.412 139.588 218.677L139.581 218.677Z"
        fill="#66561E" />
    <path
        d="M121.687 147.449C111.985 145.553 102.659 142.031 92.6794 141.15C91.2167 141.021 86.5449 140.405 87.0128 137.149C87.373 134.624 90.3629 133.239 93.3555 133.438C102.868 133.821 112.302 131.088 121.854 132.683C127.071 134.01 131.739 136.79 136.894 138.303C142.429 140.32 148.091 142.252 152.236 146.662C155.644 150.286 156.453 153.603 149.869 154.416C140.742 151.056 131.977 146.163 121.687 147.442L121.687 147.449Z"
        fill="#C19443" />
    <path
        d="M380.037 209.325L376.363 216.772C375.764 217.318 375.123 217.563 374.438 217.516C373.726 217.468 373.375 217.371 373.37 217.225C371.203 208.363 364.483 211.937 359.052 211.978C358.356 211.092 357.907 210.096 357.746 208.976C358.231 202.945 360.733 197.462 362.373 191.749C364.939 188.323 362.491 183.918 364.519 180.373C365.393 177.767 366.478 175.276 368.179 173.092C369.344 171.853 370.691 170.963 372.461 170.949C377.993 174.509 376.939 182.744 383.06 185.905C383.072 186.697 383.083 187.489 383.101 188.274C381.269 195.176 377.537 201.797 380.044 209.331L380.037 209.325Z"
        fill="#AC8134" />
    <path
        d="M103.317 305.7C104.075 305.782 104.827 305.77 105.58 305.672C108.835 303.764 112.23 301.824 115.928 301.465C119.639 301.099 124.664 299.81 124.685 306.472C122.337 312.529 117.806 316.686 112.642 320.29C109.345 319.356 106.172 316.167 102.665 319.815C98.5613 323.837 95.6519 329.456 89.0034 330.062C84.513 325.608 77.074 334.671 73.3475 326.671C73.2799 325.546 73.4447 324.463 73.8553 323.416C81.0284 313.112 94.1632 312.722 103.317 305.707L103.317 305.7Z"
        fill="#A98648" />
    <path
        d="M451.73 160.467C455.781 163.04 456.185 159.537 456.43 157.231C456.949 152.298 459.124 148.814 463.664 146.814C464.522 147.509 465.084 148.4 465.352 149.468C464.995 154.189 462.592 158.515 462.673 163.335C460.257 169.418 456.236 174.465 452.234 179.58C454.485 178.839 455.96 175.96 458.905 176.91C459.694 177.751 460.243 178.722 460.537 179.836C461.083 183.436 459.519 186.567 458.359 189.782C456.229 193.546 457.6 199.051 452.649 201.426C447.988 199.226 439.621 203.015 439.56 193.351C440.901 181.38 448.029 171.554 451.743 160.461L451.73 160.467Z"
        fill="#BA9D55" />
    <path
        d="M410.503 42.6655C400.489 37.5454 390.469 32.4185 380.456 27.2984C378.992 23.549 385.158 21.4597 382.552 17.5048C380.803 14.3047 375.181 14.1904 375.802 9.1126C378.916 9.13312 382.03 9.14702 385.151 9.16761C388.622 10.6761 392.891 11.002 394.299 15.5627C394.524 16.2972 393.571 18.3167 396.568 16.8252C405.461 12.403 406.342 18.3356 405.801 25.1779C404.638 33.0516 412.943 31.2251 415.831 34.9501C416.563 39.2573 414.144 41.3873 410.503 42.6655Z"
        fill="#816423" />
    <path
        d="M218.067 160.552C233.56 161.179 248.306 166.244 263.571 168.254C243.262 175.347 222.397 172.458 201.648 171.661C201.075 166.816 204.604 165.397 208.058 165.415C212.464 165.436 214.97 162.628 218.06 160.552L218.067 160.552Z"
        fill="#836614" />
    <path
        d="M234.903 118.961C235.741 117.187 236.579 115.412 237.41 113.644C237.813 113.283 238.216 112.921 238.613 112.559C239.648 112.218 240.707 112.11 241.791 112.215C246.792 113.826 251.715 115.756 257.021 116.267C260.179 116.514 265.705 121.825 264.19 112.445C263.704 109.418 266.912 108.102 269.922 107.915C270.462 107.907 271 107.927 271.533 107.932C272.582 108.143 273.509 108.613 274.326 109.294C277.086 113.756 281.264 114.533 286.045 113.733C289.278 113.855 292.572 113.851 294.6 117.047C294.486 121.425 289.765 122.871 288.527 126.552C284.238 128.129 279.259 125.712 275.252 128.896C269.606 130.279 264.395 124.779 258.638 127.877C250.724 124.91 242.81 121.935 234.896 118.968L234.903 118.961Z"
        fill="#9C7C2C" />
    <path
        d="M118.394 223.332C117.578 225.473 119.879 231.174 113.825 227.328C112.584 230.03 102.826 226.49 108.664 234.373C100.593 234.832 92.4983 235.595 84.7122 232.496C85.8545 229.035 88.7899 228.993 93.1836 228.868C87.3519 227.806 83.6006 228.837 80.3993 231.917C76.4739 231.808 72.5553 231.692 68.63 231.583C66.5301 230.069 62.4214 232.134 61.8017 229.139C60.9227 224.897 65.6916 224.543 68.0826 222.539C82.4253 215.72 97.2527 218.197 112.065 220.235C113.899 220.441 115.637 220.953 117.211 221.941C117.605 222.405 117.999 222.868 118.393 223.338L118.394 223.332Z"
        fill="#78672C" />
    <path
        d="M167.956 226.419C162.755 221.199 164.56 213.132 171.336 213.039C174.651 212.989 177.9 213.47 181.338 212.436C177.644 208.835 173.006 205.078 182.556 203.891C185.375 203.542 187.779 202.789 189.429 200.365C191.374 196.566 193.783 195.301 197.111 198.938C199.809 202.361 193.155 205.357 196.698 208.829C198.246 210.27 199.334 211.846 198.577 214.074C198.759 215.68 198.005 216.55 196.445 216.793C192.699 215.488 190.143 219.153 186.696 219.116C180.454 221.55 174.212 223.992 167.963 226.426L167.956 226.419Z"
        fill="#5B4B13" />
    <path
        d="M193.461 259.448C195.819 255.554 198.177 251.66 200.542 247.766C197.756 242.045 201.667 237.369 202.96 232.285C207.701 224.018 214.479 217.689 222.099 212.162C227.853 219.132 226.778 225.017 219.291 229.881C212.764 231.58 205.231 232.696 212.196 242.195C212.926 242.969 213.256 243.884 213.211 244.948C212.466 247.995 210.562 250.437 208.99 253.062C207.179 255.571 205.355 258.08 204.02 260.901C201.929 264.072 201.315 268.511 196.692 269.533C191.416 267.512 191.063 263.914 193.454 259.442L193.461 259.448Z"
        fill="#A57D3B" />
    <path
        d="M463.351 219.944C462.297 223.819 461.244 227.694 460.19 231.563C457.887 233.475 456.208 232.418 454.745 230.446C454.44 229.77 454.619 228.587 454.269 228.337C452.651 227.155 453.662 229.043 453.662 229.103C453.664 232.537 454.026 235.962 454.055 239.409C454.373 245.669 455.495 252.05 451.262 257.607C444.215 257.551 443.228 252.236 442.086 247.052C442.01 243.697 445.598 242.325 446.336 239.399C442.572 237.248 435.02 237.712 439.891 229.845C443.54 226.604 445.621 222.473 446.73 217.787C448.783 213.184 447.545 207.74 450.434 203.366C452.342 201.729 454.319 201.644 456.366 203.097C458.491 205.41 458.828 208.708 460.798 211.125C461.381 211.983 461.817 212.906 462.126 213.895C462.436 215.928 462.92 217.936 463.338 219.951L463.351 219.944Z"
        fill="#A0802B" />
    <path
        d="M420.312 14.2593C431.734 17.0921 442.643 21.3101 453.263 26.3303C453.84 30.2365 450.845 30.8894 448.218 31.8791C443.678 32.0428 439.463 30.9788 435.623 28.5079C432.709 27.2451 430.238 23.1387 426.547 27.1782C425.583 28.9513 424.441 30.5294 422.424 31.1997C417.868 30.9572 413.437 30.1504 409.246 28.2214C407.642 27.605 406.22 26.7644 405.291 25.2569C405.3 12.7852 405.421 12.7 420.312 14.266L420.312 14.2593Z"
        fill="#816423" />
    <path
        d="M501.891 85.6712C500.79 98.8032 492.732 104.765 480.502 106.449C480.603 105.752 480.677 105.054 480.718 104.355C485.978 92.4264 490.08 79.9327 497.757 69.1749L497.791 69.1353C500.727 67.8029 503.014 63.7748 507.033 66.8931C508.393 73.9956 500.743 78.6309 501.884 85.6712L501.891 85.6712Z"
        fill="#4C3D08" />
    <path
        d="M326.144 249.261C334.205 230.115 336.088 209.285 342.344 189.647C344.021 190.298 344.711 191.743 345.3 193.273C348.689 197.975 349.761 202.858 346.536 208.127C343.663 212.828 343.643 218.338 342.296 223.475C340.736 226.792 339.568 230.16 340.979 233.856C341.201 234.85 341.237 235.848 341.106 236.859C340.843 237.807 340.487 238.742 340.091 239.643C338.847 243.23 340.681 247.835 336.559 250.492C334.262 251.765 331.832 252.511 329.171 252.408C327.451 252.037 326.599 250.836 326.137 249.254L326.144 249.261Z"
        fill="#CAA66B" />
    <path
        d="M326.144 249.263C326.889 249.923 327.641 250.583 328.386 251.237C333.521 253.323 338.505 252.791 343.356 250.321C346.091 249.18 348.069 246.533 351.247 246.234C352.819 246.704 353.787 247.726 354.122 249.34C348.931 256.691 342.529 262.744 334.838 267.426C329.763 266.532 327.762 270.051 325.832 273.684C323.414 275.72 320.996 277.764 318.585 279.801C312.403 279.734 315.143 275.631 315.342 272.671C315.635 266.478 324.14 263.423 321.657 256.155C323.153 253.855 324.649 251.556 326.151 249.256L326.144 249.263Z"
        fill="#A17527" />
    <path
        d="M238.999 201.276C239.774 200.386 240.549 199.503 241.324 198.613C245.07 192.564 250.728 189.957 257.614 189.553C256.69 196.211 254.062 202.292 251.221 208.304C247.38 212.082 243.743 216.043 240.212 220.117C237.374 223.394 234.155 222.62 230.848 220.681C227.019 218.443 228.068 215.646 229.882 212.857C232.562 208.727 233.903 203.517 238.992 201.276L238.999 201.276Z"
        fill="#38300A" />
    <path
        d="M175.182 197.736C170.626 204.242 163.486 204.703 156.558 205.986C151.45 206.928 145.217 205.397 142.056 211.552C143.466 214.069 141.893 215.483 140.102 216.821C139.086 217.236 138.04 217.351 136.957 217.186C134.435 215.928 132.625 214.051 131.83 211.294C131.888 210.237 132.257 209.282 132.912 208.444C136.205 206.097 138.819 203.151 140.695 199.538C141.628 198.277 142.829 197.365 144.292 196.788C146.613 195.802 149.432 197.27 151.556 195.31C156.069 195.232 160.582 195.161 165.095 195.084C168.758 194.831 173.241 191.426 175.182 197.729L175.182 197.736Z"
        fill="#968047" />
    <path
        d="M314.836 159.215C312.384 168.093 310.641 177.231 305.338 185.06C303.042 187.504 301.679 191.083 297.636 191.405C289.09 189.003 291.714 183.281 293.591 177.778C299.11 171.489 301.635 162.638 309.91 158.715C311.642 157.982 313.321 157.774 314.836 159.215Z"
        fill="#544B0F" />
    <path
        d="M493.123 62.1488C487.941 66.232 482.092 63.7194 476.507 63.8185C471.224 61.8777 469.94 55.6877 465.176 53.1736C463.879 51.8551 463.264 50.2645 463.258 48.4276C464.035 43.651 467.425 42.8027 471.47 42.9066C478.359 44.6319 484.91 48.0971 492.362 47.0666C493.58 47.0399 494.784 47.1063 495.994 47.2126C499.841 47.7868 504.174 48.3663 504.917 52.9132C505.697 57.6867 500.319 57.0493 497.941 59.1198C496.537 60.3424 494.503 60.7529 493.13 62.1489L493.123 62.1488Z"
        fill="#4D3907" />
    <path
        d="M193.46 259.447C193.183 263.484 193.782 267.097 198.075 268.907C204.261 270.492 197.155 276.404 201.27 278.659C201.633 279.621 201.808 280.614 201.79 281.639C201.91 285.307 197.541 288.694 201.139 292.573C201.804 293.292 202.32 294.11 202.723 294.993C202.202 295.859 201.68 296.725 201.158 297.598C195.34 301.767 191.861 300.853 190.719 294.856C192.672 289.027 192.655 288.787 187.446 289.197C183.723 289.489 181.512 287.788 183.269 284.752C187.908 276.757 185.601 266.043 193.46 259.447Z"
        fill="#9E7631" />
    <path
        d="M301.215 109.925C318.048 112.804 333.678 119.196 349.101 126.225C340.191 131.599 330.564 125.817 321.449 128.021C320.235 127.668 319.124 127.091 318.107 126.347C309.792 121.099 300.575 117.984 291.214 115.287C288.971 114.644 286.339 115.001 286.863 111.447C291.357 108.201 296.643 112.371 301.221 109.925L301.215 109.925Z"
        fill="#745F0E" />
    <path
        d="M469.036 89.8986C464.403 93.0826 461.707 99.276 454.868 99.042C451.378 95.6366 447.577 93.8649 442.469 95.4332C438.87 96.5388 434.995 97.2754 431.303 95.3053C429.016 93.224 427.65 90.3076 425.088 88.4562C423.971 87.1464 423.387 85.7558 424.469 84.1303C427.336 81.8721 430.793 82.8414 433.992 82.3903C445.723 84.9801 457.455 87.5699 469.186 90.1664L469.036 89.9052L469.036 89.8986Z"
        fill="#423909" />
    <path
        d="M293.594 177.778C295.416 181.611 292.788 187.119 298.064 189.659C297.255 197.35 288.661 202.448 290.909 211.157C290.742 213.039 290.41 214.832 288.404 215.696C284.766 215.483 282.277 219.802 278.294 218.248C273.425 211.879 276.914 206.247 279.527 200.286C281.54 195.696 283.824 191.281 286.175 186.875C287.997 183.314 288.876 178.978 293.594 177.784L293.594 177.778Z"
        fill="#705E16" />
    <path
        d="M50.8206 366.963C46.6842 375.863 43.1232 385.102 35.813 392.11C32.2669 392.617 30.4552 391.526 31.6888 387.633C36.4333 375.432 41.2043 363.252 48.7756 352.426C57.4868 356.141 53.2339 361.679 50.8206 366.963Z"
        fill="#643F0D" />
    <path
        d="M217.56 229.189C224.766 225.035 222.582 218.369 222.097 212.168C223.064 208.971 228.409 208.843 227.566 204.381L227.565 204.481C228.914 204.635 230.277 204.796 231.639 204.951C233.814 206.984 232.799 209.116 231.785 211.202C226.965 221.086 227.858 222.832 238.563 224.379C234.107 230.806 229.652 237.233 225.196 243.661C222.619 245.043 221.078 243.536 219.667 241.69C220.851 237.457 215.339 235.807 215.848 231.819C216.106 230.737 216.694 229.879 217.56 229.196L217.56 229.189Z"
        fill="#6B5110" />
    <path
        d="M241.808 153.667C234.877 148.401 229.309 156.153 222.879 155.651C218.67 151.652 213.637 154.818 209.033 154.096C205.064 153.7 200.727 154.199 198.459 149.715C198.647 143.462 203.407 145.19 206.835 145.141C210.988 145.086 215.212 144.607 219.291 145.962C231.57 147.133 244.156 144.601 256.167 149.031C255.086 156.034 249.201 153.701 245.057 154.754C243.825 154.833 242.737 154.469 241.808 153.66L241.808 153.667Z"
        fill="#7D6317" />
    <path
        d="M388.449 136.6C389.547 143.906 385.536 150.485 385.438 157.618C384.591 163.984 384.051 170.76 374.629 165.7C373.535 165.342 372.596 164.759 371.76 163.965C368.824 160.366 368.794 156.392 370.21 152.221C374.824 145.317 375.075 133.274 388.449 136.6Z"
        fill="#403701" />
    <path
        d="M278.912 217.844C282.456 218.807 283.408 208.343 288.399 215.691C285.784 224.248 283.175 232.811 280.56 241.368C276.488 247.806 273.025 248.491 270.169 243.424C271.223 238.877 269.12 233.983 271.75 229.626C274.391 227.824 273.703 225.008 273.93 222.475C274.604 219.867 276.225 218.281 278.912 217.837L278.912 217.844Z"
        fill="#63540D" />
    <path
        d="M246.823 292.921C248.58 292.974 250.329 293.026 252.086 293.072C254.855 287.525 258.333 284.029 264.631 288.769C259.745 299.284 252.475 308.09 244.71 316.544C240.027 313.851 241.071 309.051 240.418 304.871C242.557 300.888 244.69 296.905 246.83 292.921L246.823 292.921Z"
        fill="#BF9E57" />
    <path
        d="M493.112 50.097C485.572 50.654 478.48 49.2393 471.967 45.2886C468.288 42.7463 463.203 43.3765 459.899 39.9865C458.684 39.1613 457.482 38.3164 456.253 37.4978C453.52 35.4649 450.268 33.9987 448.673 30.7004C450.206 29.2463 451.733 27.7854 453.266 26.3313C459.294 27.7211 465.28 29.2237 470.397 32.9729C476.086 41.1273 487.865 39.3053 493.729 47.2021C494.176 48.305 493.966 49.2677 493.112 50.097Z"
        fill="#8F7032" />
    <path
        d="M497.765 69.1662C497.907 69.5272 498.281 69.9972 498.166 70.2288C492.564 81.708 490.88 95.1996 480.718 104.346C475.623 102.88 483.02 95.254 475.984 94.745C476.152 93.9748 476.32 93.2046 476.488 92.4345C476.471 89.12 479.085 87.458 480.938 85.3219C486.54 79.9388 492.149 74.5492 497.751 69.1661L497.765 69.1662Z"
        fill="#665010" />
    <path
        d="M346.165 141.58C342.413 144.46 338.111 142.271 334.112 142.873C332.78 144.116 331.231 144.026 329.625 143.629C327.92 139.391 329.459 134.35 326.361 130.423C326.573 129.208 327.143 128.229 328.143 127.495C340.348 125.664 351.943 127.314 362.778 133.408L362.884 133.469C362.181 140.589 356.205 138.148 352.405 138.719C349.792 139.117 347.135 138.01 346.158 141.566L346.165 141.58Z"
        fill="#272800" />
    <path
        d="M470.472 182.089C476.802 182.011 475.207 175.099 478.75 172.442C480.971 170.776 482.05 166.409 485.285 171.229C478.931 185.176 472.583 199.122 466.229 213.076C464.327 214.2 462.482 214.346 460.749 212.737C459.419 210.786 460.06 208.75 460.448 206.724C462.321 202.152 459.477 196.291 464.243 192.483C468.401 190.851 469.854 187.586 469.713 183.359C469.964 182.935 470.221 182.512 470.485 182.096L470.472 182.089Z"
        fill="#7E6A14" />
    <path
        d="M459.69 276.462C458.657 284.503 464.894 291.2 464.315 300.943C453.566 290.691 447.967 279.156 443.482 266.915C444.561 263.706 447.021 262.701 450.129 262.722C451.219 262.893 452.212 263.317 453.104 263.952C451.62 270.045 458.209 271.907 459.69 276.455L459.69 276.462Z"
        fill="#6E5E17" />
    <path
        d="M410.801 25.7102C414.737 27.3036 418.673 28.897 422.602 30.4903C425.711 29.1797 429.618 24.2308 430.702 32.2487C426.279 36.9258 428.303 41.7662 430.393 46.6072C430.095 48.9399 429.142 50.8662 426.98 52.0207C420.92 49.8984 415.6 46.4732 410.497 42.6643C412.155 40.1866 413.812 37.7089 415.463 35.2245C412.435 32.7758 408.805 30.6133 410.801 25.7035L410.801 25.7102Z"
        fill="#916E2E" />
    <path
        d="M337.186 69.7133C341.248 72.5326 345.229 75.4841 349.407 78.1117C351.311 79.3103 352.695 81.1422 351.726 82.689C351.049 83.7731 348.323 83.5704 346.508 83.9434C335.257 78.1976 324.564 70.7208 310.895 72.489C307.114 71.3299 303.333 70.1641 299.552 69.005C308.423 60.5228 318.271 66.1071 327.798 67.0424C330.307 70.1244 334.56 67.0493 337.186 69.7066L337.186 69.7133Z"
        fill="#936F0A" />
    <path
        d="M329.678 142.498C331.155 142.62 332.631 142.743 334.113 142.865C321.398 146.887 308.64 145.71 295.863 143.222C297.647 133.298 308.102 134.55 313.622 129.412C318.471 129.079 322.827 129.932 325.674 134.401C325.934 135.496 325.909 136.594 325.605 137.675C324.357 141.029 319.774 139.542 318.209 142.713C320.813 140.105 323.885 140.358 327.002 140.778C328.002 141.182 328.895 141.757 329.678 142.498Z"
        fill="#65580C" />
    <path
        d="M149.75 152.622C153.121 152.306 154.057 150.666 151.05 148.75C146.258 145.703 141.087 143.251 136.078 140.548C141.719 131.645 146.812 139.986 152.152 141.022C156.045 143.493 160.504 144.72 164.69 146.556C166.163 147.61 167.181 148.859 166.447 150.821C164.749 152.12 162.844 151.72 160.882 151.612C165.615 152.715 171.044 152.201 174.165 157.107C174.873 158.705 174.909 160.316 174.233 161.926C169.228 166.217 164.181 159.72 159.158 161.975C156.446 162.318 153.865 162.251 152.008 159.795C150.975 157.494 148.005 155.798 149.75 152.622Z"
        fill="#9F7B28" />
    <path
        d="M375.795 9.10359C378.818 11.3925 381.835 13.6814 384.858 15.9703C384.164 16.7414 383.313 17.258 382.345 17.5603C379.841 18.345 376.766 16.4681 374.667 19.2005C373.77 20.8612 372.401 21.9778 370.735 22.7649C364.652 21.5076 359.001 19.1834 353.705 15.958C354.059 13.3664 348.401 12.2534 351.972 8.87813C359.911 8.95105 367.856 9.02401 375.795 9.09693L375.795 9.10359Z"
        fill="#A88A53" />
    <path
        d="M330.204 55.5367C320.677 49.7098 310.363 56.2796 301.163 54.0633C291.645 51.7704 287.876 55.5961 284.466 62.6334C282.487 62.2393 280.501 61.8516 278.522 61.4575C278.089 58.4779 275.379 56.1459 276.073 52.8524C297.32 48.2516 318.62 49.1484 339.95 52.142C340.891 53.1971 341.031 54.35 340.379 55.6007C338.439 57.7026 335.976 57.8223 333.384 57.4614C332.157 57.102 331.092 56.4581 330.197 55.5433L330.204 55.5367Z"
        fill="#B1932C" />
    <path
        d="M50.8206 366.96C51.3343 361.948 52.7744 356.806 48.7757 352.423C52.1021 344.567 55.4285 336.71 58.7483 328.846C62.4187 326.077 65.0963 328.323 67.7666 330.628C69.2897 335.003 65.7516 337.84 64.5284 341.394C60.5988 347.807 58.9804 355.27 55.3554 361.819C53.846 363.533 52.33 365.247 50.8206 366.96Z"
        fill="#7E5D1C" />
    <path
        d="M145.773 270.662C144.302 270.659 142.831 270.65 141.36 270.647C139.128 271.482 138.512 270.037 138.065 268.329C136.576 257.718 146.04 254.014 151.161 247.561C155.424 245.417 158.928 240.797 165.499 243.637C157.787 252.138 151.472 261.187 145.779 270.662L145.773 270.662Z"
        fill="#6B531A" />
    <path
        d="M100.958 276.87C107.577 269.735 115.252 264.135 124.452 260.761C128.193 259.463 129.485 261.847 130.452 264.739C130.179 267.784 128.089 269.678 126.085 271.633C124.452 273.079 122.59 274.184 120.695 275.248C115.378 278.198 111.81 285.62 103.858 281.926C101.927 280.794 99.7012 279.825 100.964 276.877L100.958 276.87Z"
        fill="#8B6E24" />
    <path
        d="M105.806 291.552C99.4242 297.007 93.0427 302.454 86.6611 307.909C85.9143 308.653 85.0253 309.009 83.9745 308.945C80.1763 307.539 79.8134 303.582 77.914 300.759C79.0743 297.491 81.4011 295.267 84.354 293.609C89.1247 291.87 92.4278 286.768 98.2898 287.491C101.191 288.115 103.984 288.944 105.806 291.559L105.806 291.552Z"
        fill="#9F7D3C" />
    <path
        d="M420.311 14.2615C415.112 17.4128 403.699 12.4839 405.955 25.3128C405.49 25.8402 405.029 26.0148 404.572 25.8368C404.108 25.6588 403.877 25.4832 403.879 25.3102C402.888 17.3066 402.279 16.3683 396.93 19.8507C393.465 22.1025 393.753 19.4768 393.47 18.562C392.088 14.108 388.224 12.0096 385.14 9.16098C397.344 7.54988 409.252 7.97203 420.311 14.2615Z"
        fill="#675115" />
    <path
        d="M467.19 52.2591C475.331 52.0547 471.932 61.1486 476.508 63.8204C464.364 64.933 452.571 63.6802 441.353 58.587C443.992 50.8491 451.35 55.3546 456.022 52.9031C457.097 52.6019 458.204 52.4143 459.31 52.2799C461.935 51.3967 464.563 53.9276 467.197 52.2592L467.19 52.2591Z"
        fill="#614C0E" />
    <path
        d="M453.081 264.628C452.391 264.508 451.699 264.427 451.001 264.393C448.901 262.26 448.679 260.028 450.628 257.674C451.129 251.343 452.303 245.02 451.001 238.651C454.426 236.452 449.234 229.773 455.888 229.247C456.774 231.04 458.366 231.516 460.189 231.556C459.403 242.635 458.624 253.714 457.838 264.786C456.201 265.993 454.61 266.076 453.075 264.615L453.081 264.628Z"
        fill="#AE8A2C" />
    <path
        d="M431.32 94.322C435.172 93.8846 439.709 94.5995 442.744 92.7889C450.929 87.8998 453.04 92.7344 454.875 99.0435C452.67 99.1726 450.459 99.3083 448.255 99.4374C437.709 101.086 427.221 104.067 416.449 100.749C415.303 100.237 414.434 99.4361 413.807 98.3512C413.275 96.4087 413.594 94.6752 415.027 93.1934C416.1 92.4596 417.263 91.9598 418.525 91.6608C423.111 90.9852 427.577 90.9338 431.32 94.322Z"
        fill="#282402" />
    <path
        d="M339.807 55.4666C339.859 54.3558 339.911 53.2449 339.963 52.1341C354.72 53.7518 369.338 55.9072 382.738 62.9076C377.798 63.1334 374.758 66.0553 372.531 70.1174C365.706 72.2394 363.593 65.2551 358.957 63.155C355.174 60.9709 350.768 61.0163 346.721 59.7744C344.123 58.8078 341.416 58.013 339.807 55.4666Z"
        fill="#947614" />
    <path
        d="M345.449 183.146C350.207 168.509 358.898 156.318 369.136 145.089C370.621 146.21 370.977 147.771 370.845 149.507C368.077 160.484 361.907 169.754 355.842 179.086C352.756 181.395 350.019 184.626 345.449 183.139L345.449 183.146Z"
        fill="#A17B35" />
    <path
        d="M64.0505 215.654C61.9788 214.613 60.3171 213.197 59.6436 210.867C60.4192 208.693 62.5647 207.844 64.0319 206.336C65.5576 206.186 67.0833 206.03 68.6156 205.88C73.7247 206.688 78.8008 205.618 83.9059 205.56C90.3485 206.748 97.7958 207.348 90.6327 216.734C89.3937 217.459 88.0649 217.864 86.6395 217.975C79.0028 218.272 71.0986 221.141 64.0571 215.66L64.0505 215.654Z"
        fill="#C2AC7A" />
    <path
        d="M99.5157 197.299C103.53 196.564 107.544 195.829 111.559 195.094C113.144 196.848 115.807 197.369 116.866 199.73C116.9 202.126 116.694 204.493 116.123 206.843C112.212 210.361 107.648 211.463 102.532 210.615C97.1011 208.22 91.25 207.718 85.4622 206.909C84.7599 206.01 84.5645 204.996 84.7961 203.894C89.224 200.628 95.3347 201.12 99.5091 197.299L99.5157 197.299Z"
        fill="#917A42" />
    <path
        d="M149.751 152.622C149.629 155.29 154.856 156.272 152.009 159.795C141.064 157.732 131.855 151.416 121.69 147.446C132.328 142.211 141.305 145.969 149.751 152.622Z"
        fill="#946F1A" />
    <path
        d="M164.862 313.441C171.988 313 173.158 318.064 174.045 323.384C169.69 328.508 165.342 333.632 160.731 339.065C156.382 328.896 163.74 321.741 164.862 313.441Z"
        fill="#6F5B0D" />
    <path
        d="M312.652 131.058C309.582 138.599 300.053 137.231 295.862 143.228C291.27 142.013 286.684 140.799 282.092 139.584C280.137 136.389 273.06 134.176 280.095 129.234C282.281 128.306 284.47 128.37 286.664 129.219C293.822 133.762 301.03 130.639 308.238 129.34C309.976 129.239 311.537 129.595 312.659 131.058L312.652 131.058Z"
        fill="#8A711B" />
    <path
        d="M310.892 72.4941C321.464 67.3115 334.602 71.5338 346.506 83.9485C345.72 84.6121 344.934 85.2823 344.155 85.9527C333.07 81.4665 321.984 76.9804 310.892 72.5008L310.892 72.4941Z"
        fill="#826B05" />
    <path
        d="M369.232 150.147C369.197 148.463 369.169 146.779 369.134 145.088C375.843 137.661 381.448 128.964 392.617 124.526C392.381 129.708 391.382 133.424 388.453 136.593C377.191 136.098 377.874 147.959 371.733 152.757C371.161 153.343 370.552 153.589 369.908 153.489C369.237 153.389 368.906 153.252 368.907 153.079C368.36 152.028 368.503 151.058 369.232 150.147Z"
        fill="#6E5613" />
    <path
        d="M152.104 143.325C146.479 144.016 142.481 135.301 136.075 140.549C131.181 138.905 126.288 137.261 121.387 135.624C121.132 133.372 120.99 131.127 121.64 128.918C127.52 127.997 133.301 127.607 138.347 131.702C143.232 135.994 151.112 134.163 155.248 139.985C155.015 141.859 153.905 142.918 152.11 143.332L152.104 143.325Z"
        fill="#B8853A" />
    <path
        d="M441.831 231.358C435.681 235.697 442.715 235.181 443.742 235.565C452.783 238.944 449.354 242.201 443.873 245.609C441.622 247.587 442.139 251.44 438.989 252.81C435.998 245.124 435.354 237.051 435.01 228.928C436.754 225.779 435.997 219.502 442.811 222.69C444.48 225.81 443.478 228.62 441.831 231.364L441.831 231.358Z"
        fill="#8C772C" />
    <path
        d="M354.126 249.344C353.343 248.563 352.56 247.776 351.776 246.996C349.479 237.294 354.7 231.468 362.145 226.77C366.527 224.056 366.442 216.495 373.291 216.469C374.315 216.567 375.338 216.671 376.362 216.769C371.269 229.212 363.685 239.951 354.126 249.344Z"
        fill="#A2802F" />
    <path
        d="M129.619 265.798C128.661 263.332 126.868 261.722 124.443 260.757C132.528 254.696 142.235 251.92 151.153 247.551C149.255 255.69 140.068 259.629 139.168 268.345C138.374 269.088 137.447 269.284 136.405 269.013C134.168 267.891 131.652 267.338 129.612 265.798L129.619 265.798Z"
        fill="#8C6D2B" />
    <path
        d="M219.291 145.964C212.959 148.704 204.246 141.515 199.474 150.727C197.854 153.398 195.344 154.163 192.41 154.018C187.802 153.083 183.715 150.696 179.272 149.236C175.605 148.032 171.852 146.114 173.539 140.882C188.788 142.578 204.043 144.268 219.291 145.964Z"
        fill="#986F1D" />
    <path
        d="M238.565 224.37C235.271 223.149 230.886 228.02 228.305 222.361C226.498 218.395 226.748 214.964 229.257 211.344C230.514 209.528 230.873 207.096 231.636 204.941C233.479 202.499 235.348 200.096 238.996 201.274C236.967 205.471 234.938 209.669 232.89 213.859C232.175 215.322 227.728 216.079 232.008 218.448C234.184 219.657 235.932 221.719 238.84 218.702C242.562 214.856 245.669 210.045 251.218 208.295C248.386 214.746 243.786 219.801 238.559 224.363L238.565 224.37Z"
        fill="#51420F" />
    <path
        d="M279.833 130.59C276.609 134.588 282.8 136.22 282.098 139.579C273.39 137.462 265.892 132.928 258.646 127.871C256.976 124.219 258.332 122.47 262.069 123.423C266.569 124.57 270.902 126.347 275.304 127.859C277.815 127.114 279.098 128.406 279.833 130.597L279.833 130.59Z"
        fill="#866B15" />
    <path
        d="M405.527 79.9034C402.383 78.3918 399.306 76.7079 396.073 75.4016C389.029 72.5499 392.554 70.3122 396.386 68.0112C403.454 72.9262 412.788 72.5284 419.638 77.9536C420.414 81.8486 417.368 83.486 415.129 85.6113C413.611 86.2936 412.079 86.3302 410.542 85.6879C408.537 84.0556 407.949 81.1875 405.527 79.91L405.527 79.9034Z"
        fill="#4A4003" />
    <path
        d="M190.72 294.856C192.205 303.384 197.661 296.755 201.159 297.598C198.543 303.786 193.205 307.475 188.315 311.581C186.278 307.965 183.876 310.428 181.407 310.967C179.513 311.379 176.931 315.623 175.501 310.69C174.763 308.139 175.913 306.462 179.094 306.416C186.569 306.318 185.857 297.745 190.713 294.856L190.72 294.856Z"
        fill="#9C7930" />
    <path
        d="M173.538 140.888C176.453 150.017 188.058 145.931 192.225 153.163C191.828 153.558 191.431 153.953 191.041 154.355C189.019 155.485 186.813 155.7 184.557 155.702C178.411 154.205 171.243 156.043 166.382 150.247C165.472 149.459 164.562 148.664 163.652 147.875C161.876 145.939 160.201 143.964 161.118 141.033C163.954 137.836 167.967 141.566 170.978 139.376C171.832 139.878 172.685 140.386 173.538 140.888Z"
        fill="#A77C2E" />
    <path
        d="M278.912 217.842C277.837 220.014 276.407 221.808 273.93 222.48C268.322 216.769 276.064 211.09 273.976 205.39C276.788 198.393 280.484 191.978 286.163 186.875C285.879 197.7 275.339 206.124 278.906 217.849L278.912 217.842Z"
        fill="#8F762C" />
    <path
        d="M124.683 306.47C118.605 299.29 111.853 308.188 105.578 305.67C107.399 301.025 111.874 298.917 115.483 296.308C118.213 294.334 122.833 288.721 125.101 297.956C125.828 300.919 128.79 295.348 131.394 296.441C129.822 300.23 128.085 303.912 124.676 306.47L124.683 306.47Z"
        fill="#967535" />
    <path
        d="M218.067 160.553C216.61 164.157 217.881 170.347 210.216 167.695C206.894 166.548 203.509 168.168 201.654 171.662C199.666 172.139 197.856 172.073 196.687 170.044C195.539 168.574 193.492 167.653 193.757 165.307C194.972 163.13 195.698 160.649 197.7 158.927C198.697 158.379 199.74 158.005 200.854 157.75C206.877 157.077 212.852 156.63 218.1 160.567L218.073 160.566L218.067 160.553Z"
        fill="#B48438" />
    <path
        d="M424.153 105.723C413.958 106.917 403.765 106.673 393.573 105.704C393.092 104.653 393.096 103.635 393.587 102.562C394.576 100.41 400.279 99.8399 395.863 95.8588C402.703 93.4973 409.036 94.398 414.804 98.8531L414.764 98.9125C416.718 102.807 423.949 99.4315 424.153 105.73L424.153 105.723Z"
        fill="#66510A" />
    <path
        d="M121.637 128.917C122.989 131.208 123.278 133.46 121.391 135.63C112.149 133.599 102.366 138.444 93.3564 133.442C102.172 128.12 111.799 127.845 121.637 128.924L121.637 128.917Z"
        fill="#A17A29" />
    <path
        d="M290.907 211.158C282.717 200.474 293.765 196.195 298.062 189.66C300.487 188.129 302.913 186.591 305.339 185.06C302.352 194.764 296.851 203.083 290.907 211.158Z"
        fill="#816925" />
    <path
        d="M318.362 272.743C317.517 275.123 314.902 277.563 318.578 279.8C313.616 285.05 308.647 290.293 301.686 297.658C303.768 285.462 308.247 277.518 313.335 269.813C315.639 269.705 317.075 271.092 318.362 272.736L318.362 272.743Z"
        fill="#B98E4B" />
    <path
        d="M244.064 153.627C247.123 149.521 253.178 153.334 256.166 149.04C265.78 149.903 275.867 149.481 282.396 158.709C276.829 161.464 271.818 157.13 266.444 157.464C259.012 156.026 250.877 158.673 244.057 153.627L244.064 153.627Z"
        fill="#443905" />
    <path
        d="M395.842 96.399C402.703 101.365 393.282 102.347 393.565 105.698C386.704 106.302 380.249 105.008 374.257 101.548C378.166 97.0255 384.177 98.1889 388.984 96.1048C391.355 94.1606 393.642 94.3519 395.842 96.399Z"
        fill="#8F6A15" />
    <path
        d="M345.45 183.146C348.666 181.777 350.781 178.173 354.831 178.49C359.787 174.371 363.635 175.511 366.584 180.954C365.791 184.113 365.004 187.272 364.211 190.431C362.28 191.781 360.21 191.206 358.157 190.898C353.612 189.025 347.578 190.657 344.529 185.2C344.598 184.408 344.905 183.72 345.443 183.14L345.45 183.146Z"
        fill="#906B20" />
    <path
        d="M194.256 165.158C195.063 166.784 195.878 168.416 196.685 170.042C183.699 169.568 171.085 167.382 159.165 161.975C164.052 155.625 168.522 163.154 173.242 162.394C178.963 158.929 184.615 161.845 190.305 162.533C191.924 162.956 193.354 163.67 194.256 165.164L194.256 165.158Z"
        fill="#8D701D" />
    <path
        d="M362.781 133.414C350.957 131.323 339.45 124.629 327.049 130.99C322.642 132.333 317.992 134.039 320.061 126.109C329.75 122.52 339.415 126.046 349.096 126.218C354.396 127.22 359.112 129.315 362.787 133.408L362.781 133.414Z"
        fill="#4A4208" />
    <path
        d="M492.925 47.9844C487.241 45.5068 481.545 43.0558 475.882 40.5452C472.617 39.0989 469.466 37.494 470.4 32.972C479.326 35.3716 488.011 38.4009 496.169 42.8087C496.017 45.1163 495.211 47.0109 492.925 47.9844Z"
        fill="#7B6122" />
    <path
        d="M438.984 252.806C439.286 249.508 440.52 246.839 443.867 245.604C444.305 250.641 447.93 253.901 450.624 257.677C450.746 259.921 450.868 262.159 450.99 264.396C448.486 265.234 445.981 266.079 443.476 266.917C440.38 262.724 439.195 257.919 438.984 252.806Z"
        fill="#7E6C1E" />
    <path
        d="M424.148 105.723C421.937 102.192 414.767 105.475 414.759 98.9059C425.924 99.0804 437.09 99.2616 448.255 99.4361C440.66 103.227 432.765 105.843 424.148 105.716L424.148 105.723Z"
        fill="#423909" />
    <path
        d="M196.246 210.018C175.83 206.202 202.677 203.712 196.518 200.298C200.217 197.949 204.017 196.153 208.502 198.092C212.258 198.406 214.86 200.863 217.632 203.016C218.588 205.056 217.395 205.868 215.705 206.396C209.029 206.556 202.464 207.363 196.246 210.024L196.246 210.018Z"
        fill="#443708" />
    <path
        d="M344.534 185.206C349.528 186.145 354.523 187.084 359.517 188.017C361.451 195.612 358.477 202.294 355.602 208.992C354.243 210.341 352.616 210.696 350.783 210.29C346.717 207.85 348.104 204.504 349.186 201.109C350.964 195.511 347.311 194.806 343.16 194.634C342.892 192.974 342.617 191.308 342.349 189.648C343.077 188.165 343.805 186.688 344.534 185.206Z"
        fill="#9B7529" />
    <path
        d="M493.124 62.1494C494.821 57.1898 499.468 55.7961 503.576 53.8043C502.043 49.7347 498.567 50.5554 495.623 50.164C495.07 44.0619 500.109 47.0782 502.577 45.8938C506.52 47.4473 510.463 49.0008 514.4 50.5543C514.652 57.3653 508.266 56.4774 504.732 58.8947C500.861 59.9774 496.995 61.0668 493.124 62.1494Z"
        fill="#7D5C29" />
    <path
        d="M451.868 203.154C450.903 208.661 452.508 214.655 448.714 219.618C447.414 221.022 445.89 221.072 444.234 220.368C443.45 219.561 443.015 218.591 442.874 217.485C442.945 215.822 443.613 214.365 444.46 212.97C445.345 210.537 447.825 207.723 442.857 206.81C441.89 206.979 440.945 207.015 439.98 206.965C438.997 206.775 438.17 206.313 437.486 205.594C437.073 201.33 436.381 197.017 439.549 193.357C440.128 201.303 450.228 194.152 451.546 200.928C452.591 201.532 452.656 202.278 451.874 203.154L451.868 203.154Z"
        fill="#C9AA67" />
    <path
        d="M170.984 139.369C168.685 144.528 164.673 140.745 161.474 141.182C159.091 143.06 156.863 142.889 154.784 140.684C149.728 136.909 141.663 138.638 138.344 131.694C149.74 132.064 160.376 135.653 170.984 139.369Z"
        fill="#947426" />
    <path
        d="M240.411 304.873C243.603 308.115 243.802 312.464 244.703 316.546C243.034 318.891 241.358 321.235 239.688 323.586C236.905 324.907 234.863 329.137 230.892 325.84C234.063 318.853 237.233 311.86 240.404 304.873L240.411 304.873Z"
        fill="#A08332" />
    <path
        d="M258.856 97.546C262.571 98.0389 266.006 99.2009 268.894 101.701C268.795 104.03 268.048 106.058 266.155 107.548C265.177 108.103 264.128 108.465 263.028 108.672C258.111 107.933 251.772 111.924 248.818 104.525C249.138 103.803 249.701 103.416 250.493 103.425C250.188 102.696 249.591 103.156 249.277 103.259C246.706 104.102 244.244 104.029 241.871 102.606C240.085 100.936 238.814 99.1186 239.96 96.5355C246.45 93.3716 252.464 99.0738 258.863 97.5395L258.856 97.546Z"
        fill="#886D22" />
    <path
        d="M62.6998 340.629C62.6703 336.609 66.2205 334.491 67.693 331.273C68.6974 330.712 69.6485 330.762 70.5387 331.524C71.0057 335.701 74.2984 337.075 77.4969 338.54C80.3589 345.872 70.1473 344.889 70.0018 350.318C68.9725 352.557 67.0057 353.494 64.7895 354.109C61.5264 350.013 61.1298 345.477 62.6998 340.636L62.6998 340.629Z"
        fill="#AE8B4B" />
    <path
        d="M68.7874 225.044C65.284 227.142 62.9782 229.273 68.6366 231.577C63.018 231.736 57.2803 233.045 51.9834 229.932C50.6976 228.215 50.7027 226.524 52.1115 224.876C55.3516 221.291 62.5449 224.43 64.0271 217.864C64.457 218.115 64.8869 218.36 65.3302 218.604C67.1476 220.394 68.5432 222.412 68.7874 225.044Z"
        fill="#A18A53" />
    <path
        d="M116.176 204.313C113.532 202.673 116.026 201.017 116.163 199.368C115.525 195.607 118.336 195.984 120.391 196.186C124.546 196.597 128.624 196.728 132.625 195.347C133.497 195.363 134.375 195.379 135.247 195.396C138.046 197.442 141.907 194.922 144.567 197.567C143.713 198.349 142.86 199.132 142.012 199.921C137.251 204.475 130.872 204.765 124.998 206.412C121.764 206.949 118.671 206.855 116.169 204.306L116.176 204.313Z"
        fill="#88733E" />
    <path
        d="M89.0054 329.235C93.6321 326.045 97.6269 322.215 100.759 317.523C106.581 318.259 104.715 322.817 105.097 326.256C98.8961 329.735 92.689 333.215 86.4886 336.695C85.058 335.448 84.8023 333.868 85.1742 332.102C85.898 330.406 87.1336 329.395 89.0055 329.229L89.0054 329.235Z"
        fill="#97782C" />
    <path
        d="M373.952 164.781C374.712 164.649 375.478 164.631 376.243 164.706C381.645 167.886 380.456 174.408 383.403 178.833C383.284 181.187 383.172 183.542 383.053 185.897C371.497 187.422 375.665 176.2 371.541 171.703C370.044 168.592 371.451 166.497 373.952 164.781Z"
        fill="#916B1E" />
    <path
        d="M216.46 96.6613C215.904 96.3491 215.362 95.9839 214.772 95.7645C214.666 95.7235 214.334 96.3188 214.104 96.6157C210.061 96.9246 210.135 95.0619 211.841 92.3385C221.455 93.2482 231.014 88.1345 240.654 92.0659C237.573 92.698 236.458 94.2897 238.149 97.243C230.807 101.05 223.629 98.9886 216.453 96.6612L216.46 96.6613Z"
        fill="#927313" />
    <path
        d="M196.247 210.016C200.862 200.483 208.733 204.981 215.682 205.495C216.431 206.415 216.243 207.152 215.245 207.727C209.75 210.003 204.908 214.01 198.565 214.061C197.795 212.708 197.017 211.362 196.24 210.009L196.247 210.016Z"
        fill="#3E3412" />
    <path
        d="M414.924 84.7136C414.564 81.1093 418.068 80.2089 419.636 77.9565C424.577 78.9153 429.608 79.5955 433.99 82.3917C431.462 85.9181 427.69 84.586 424.333 84.8557C423.29 88.345 421.787 91.3235 417.319 90.2767C414.14 89.5367 412.567 87.9224 414.931 84.7137L414.924 84.7136Z"
        fill="#554706" />
    <path
        d="M62.8008 321.539C63.8513 316.732 67.307 313.508 70.3861 310.041C74.7943 307.354 77.6374 308.463 78.8602 313.527C78.9316 316.137 77.8903 318.262 76.0343 320.032C73.4478 321.648 71.245 324.099 68.3996 325.047C65.8348 325.897 61.9698 326.967 62.8007 321.545L62.8008 321.539Z"
        fill="#836825" />
    <path
        d="M98.5793 288.989C93.3867 289.133 90.0936 295.146 84.3537 293.6C88.8051 286.947 94.5732 281.605 100.954 276.87C101.895 279.076 103.792 279.636 105.933 279.772C106.104 284.932 102.638 287.197 98.5793 288.989Z"
        fill="#90702B" />
    <path
        d="M457.839 54.572C453.246 59.6066 446.085 54.1115 441.351 58.5856C436.161 57.2714 431.134 55.5996 426.98 52.0206C427.035 50.0446 427.454 48.2523 429.408 47.2353C431.828 46.8889 434.091 47.4592 436.29 48.3882C442.708 53.1098 451.705 48.8618 457.839 54.572Z"
        fill="#775D1C" />
    <path
        d="M271.579 246.053C273.936 247.143 276.21 247.9 276.213 243.954C276.217 240.526 277.695 239.857 280.554 241.372C279.726 245.303 278.898 249.24 278.076 253.171C275.236 254.891 274.082 257.554 273.549 260.716C273.165 263.007 271.881 266.022 269.385 264.797C266.724 263.49 267.458 260.263 268.936 257.771C268.957 257.059 268.951 256.347 268.932 255.634C267.158 251.708 267.341 248.323 271.585 246.053L271.579 246.053Z"
        fill="#705E14" />
    <path
        d="M62.6988 340.63C63.1887 345.154 65.8518 349.343 64.7885 354.103C61.646 356.678 58.4968 359.246 55.3542 361.82C55.6454 354.01 57.9455 346.894 62.6988 340.63Z"
        fill="#9D7633" />
    <path
        d="M264.623 288.777C259.435 287.276 255.976 290.806 252.078 293.079C251.326 290.629 248.459 288.049 252.515 285.89C256.453 283.663 255.228 276.323 261.7 276.606C261.619 280.365 263.751 282.664 266.814 284.348C266.079 285.824 265.351 287.3 264.616 288.777L264.623 288.777Z"
        fill="#B6954B" />
    <path
        d="M370.739 22.7737C371.534 21.2517 372.329 19.7297 373.131 18.2011C375.628 14.9805 379.869 19.166 382.385 16.0321C383.211 16.0078 384.036 15.9902 384.862 15.9659C391.15 22.7625 383.064 23.9591 380.453 27.2916C377.215 25.7856 373.977 24.2731 370.739 22.7671L370.739 22.7737Z"
        fill="#B2945D" />
    <path
        d="M219.785 240.701C221.591 241.685 223.398 242.67 225.204 243.654C221.635 250.544 218.06 257.426 214.491 264.315C209.082 264.15 210.383 260.178 210.298 256.976C210.516 255.9 210.893 254.866 211.37 253.873C214.213 250.031 215.073 245.048 218.379 241.451C218.841 241.196 219.317 240.948 219.785 240.701Z"
        fill="#825F1D" />
    <path
        d="M62.7992 321.54C68.1487 328.998 70.0268 316.008 74.7072 319.519C76.1274 321.105 74.7192 322.701 74.7219 324.285L74.656 325.455L74.6433 326.626C73.4573 328.59 72.6264 330.944 69.8088 331.173C69.1027 331.238 68.3969 331.27 67.698 331.276C64.7186 330.472 61.7393 329.661 58.7599 328.85C60.1107 326.415 60.0062 323.173 62.8124 321.54L62.7992 321.54Z"
        fill="#8B6C2A" />
    <path
        d="M77.141 314.859C77.0448 310.233 73.813 309.998 70.3852 310.04C72.8945 306.946 75.4038 303.852 77.9198 300.752C83.3901 300.159 82.4959 305.287 84.3772 307.93C84.5557 312.943 82.4573 315.582 77.141 314.859Z"
        fill="#8B6C2A" />
    <path
        d="M346.16 141.581C345.73 134.675 345.902 134.138 350.126 135.502C354.974 137.072 359.025 136.69 362.88 133.477C368.02 137.52 362.622 138.226 360.732 139.457C356.294 142.35 351.045 140.962 346.16 141.575L346.16 141.581Z"
        fill="#4A4208" />
    <path
        d="M212.391 254.88C212.722 258.105 211.152 261.755 214.485 264.313C214.636 266.285 214.457 268.113 212.416 269.142C210.641 270.787 208.587 271.15 206.305 270.467C205.305 269.983 204.535 269.256 204.04 268.253C203.175 265.768 204.714 263.122 203.517 260.667C203.281 260.258 203.06 259.837 202.838 259.415C202.828 256.074 204.602 253.857 207.361 252.27C209.477 252.293 211.294 252.905 212.398 254.88L212.391 254.88Z"
        fill="#946E27" />
    <path
        d="M205.215 269.025C207.617 269.064 210.012 269.104 212.414 269.143C213.092 274.162 210.35 278.391 209.202 282.991C205.844 283.986 202.82 283.594 200.381 280.825C200.376 280.047 200.391 279.275 200.406 278.496C200.244 274.442 201.809 271.264 205.221 269.025L205.215 269.025Z"
        fill="#A88341" />
    <path
        d="M105.099 326.256C100.18 325.071 104.275 319.406 100.762 317.517C106.491 310.838 109.993 313.724 112.644 320.282C110.961 323.318 108.378 325.234 105.099 326.256Z"
        fill="#A6853E" />
    <path
        d="M175.182 197.735C172.491 194.311 168.445 196.044 165.102 195.09C176.582 193.218 188.062 191.386 199.521 195.217C194.932 197.963 189.739 197.573 184.715 198.051C181.535 197.944 178.355 197.836 175.182 197.735Z"
        fill="#A88B4E" />
    <path
        d="M237.788 96.8577C236.991 95.478 236.188 94.0983 235.391 92.7187C237.143 92.5048 238.903 92.2843 240.655 92.0704C247.208 92.2946 253.16 94.5023 258.857 97.5523C252.437 102.893 246.36 96.2054 240.076 97.0222C239.531 97.5421 239.01 97.6895 238.513 97.4711C238.03 97.2595 237.786 97.0572 237.788 96.8642L237.788 96.8577Z"
        fill="#786010" />
    <path
        d="M200.375 280.825C203.601 280.381 206.479 281.35 209.197 282.99C208.661 283.85 208.126 284.716 207.591 285.575C204.462 288.17 203.997 292.943 200.037 294.863C189.921 289.942 200.185 285.501 200.369 280.825L200.375 280.825Z"
        fill="#B89457" />
    <path
        d="M437.479 205.594C438.125 205.521 438.778 205.488 439.43 205.482C443.048 208.729 440.746 214.221 444.017 217.604C443.883 218.262 443.769 218.919 443.669 219.584C443.344 220.758 442.596 221.555 441.493 222.029C439.332 224.328 437.17 226.628 435.009 228.92C434.616 221.016 433.471 213.031 437.479 205.594Z"
        fill="#998033" />
    <path
        d="M80.4054 231.911C82.9099 223.746 90.4216 223.308 97.837 231.136C93.4068 232.159 88.7287 229.666 84.7182 232.497C83.2828 232.302 81.8474 232.107 80.4054 231.911Z"
        fill="#66561E" />
    <path
        d="M380.035 209.322C369.84 200.672 379.971 194.979 383.092 188.265C384.025 195.569 383.223 202.615 380.035 209.322Z"
        fill="#916B1E" />
    <path
        d="M383.41 178.833C379.138 175.08 377.376 170.056 376.25 164.707C382.066 165.914 383.834 161.867 385.444 157.619C384.768 164.693 384.086 171.76 383.41 178.833Z"
        fill="#68520F" />
    <path
        d="M268.935 257.771C269.032 259.27 269.129 260.768 269.288 263.232C273.657 260.531 270.36 251.591 278.082 253.172C275.744 257.639 277.466 263.334 273.769 267.38C272.41 268.703 271.005 269.939 268.911 269.764C265.474 265.753 265.591 261.755 268.942 257.765L268.935 257.771Z"
        fill="#866D1F" />
    <path
        d="M318.361 272.743C316.186 272.62 314.14 272.292 313.334 269.82C316.106 265.265 318.877 260.717 321.655 256.161C327.07 257.591 326.118 260.722 323.508 263.915C321.302 266.613 318.39 268.811 318.367 272.743L318.361 272.743Z"
        fill="#8A661D" />
    <path
        d="M86.4961 331.651C86.4911 333.335 86.4862 335.012 86.4879 336.696C82.3347 342.86 76.2108 346.64 70.0016 350.313C66.977 343.252 78.0119 344.417 76.925 338.488C79.4751 335.315 81.0419 330.76 86.4961 331.651Z"
        fill="#A4853D" />
    <path
        d="M52.1107 224.874C52.0724 226.557 52.0275 228.247 51.9825 229.931C45.7225 229.091 39.107 230.35 33.3161 226.76C39.2006 222.338 45.721 224.332 52.104 224.874L52.1107 224.874Z"
        fill="#84703A" />
    <path
        d="M265.399 156.342C271.306 155.395 276.729 157.896 282.39 158.71C285.258 159.965 286.234 163.317 285.721 165.141C285.161 167.125 281.789 166.31 279.564 165.873C280.106 163.743 281.328 161.573 277.446 161.098C273.385 160.602 269.398 159.48 265.374 158.631C264.304 157.854 264.313 157.089 265.399 156.342Z"
        fill="#242300" />
    <path
        d="M202.958 232.285C203.2 237.612 203.7 242.974 200.54 247.765C198.379 246.99 196.218 246.214 194.057 245.432C195.87 240.267 198.859 235.901 202.958 232.278L202.958 232.285Z"
        fill="#96722B" />
    <path
        d="M184.723 198.051C189.229 194.859 194.574 196.048 199.528 195.217C202.636 195.816 206.206 194.957 208.501 198.089C204.506 198.825 200.512 199.56 196.518 200.295C194.121 196.709 191.785 199.718 189.423 200.358C187.52 200.271 185.754 199.912 184.723 198.051Z"
        fill="#745B21" />
    <path
        d="M453.081 264.632C454.67 264.689 456.254 264.746 457.844 264.803C458.767 268.647 460.61 272.34 459.694 276.47C457.179 272.696 445.13 274.255 453.081 264.632Z"
        fill="#7E6C1E" />
    <path
        d="M16.4075 219.853C16.5119 220.66 16.6229 221.466 16.7273 222.273C13.111 222.506 9.85601 221.34 6.86124 219.497C4.98377 218.338 1.98033 217.294 2.74794 214.634C3.74412 211.151 7.30407 213.04 9.72589 212.487C13.9113 213.165 14.904 216.742 16.4142 219.853L16.4075 219.853Z"
        fill="#67531F" />
    <path
        d="M54.3966 210.552C49.7851 210.502 45.1737 210.445 40.569 210.388C39.1398 209.008 39.1281 207.637 40.5936 206.282C46.8093 206.297 53.025 206.317 59.2407 206.332C60.3429 210.863 55.5687 208.634 54.3966 210.552Z"
        fill="#74581D" />
    <path
        d="M85.524 204.021C85.4693 204.765 85.4214 205.504 85.38 206.249C85.132 207.637 83.7592 207.808 82.8929 208.524C78.0387 208.152 72.7253 210.224 68.6065 205.873C71.9537 202.23 77.0637 204.168 80.874 202C82.2057 203.166 84.5201 202.093 85.5174 204.021L85.524 204.021Z"
        fill="#7C632A" />
    <path
        d="M257.617 189.558C252.187 192.58 246.757 195.596 241.327 198.618C240.218 198.387 239.116 198.148 238.007 197.917C243.689 193.127 248.995 187.454 257.617 189.558Z"
        fill="#8B745E" />
    <path
        d="M301.21 109.925C296.86 113.398 291.754 111.033 287.048 111.747C285.244 113.065 283.583 112.741 282.028 111.294C281.084 109.433 281.156 107.71 282.709 106.183C288.879 107.428 295.041 108.68 301.21 109.925Z"
        fill="#645208" />
    <path
        d="M504.731 58.8935C506.891 54.8773 512.883 55.3084 514.399 50.5531C517.209 49.7917 520.025 49.037 522.836 48.2756C517.364 53.2341 513.367 60.3849 504.731 58.8935Z"
        fill="#A59382" />
    <path
        d="M85.5286 204.022C83.9786 203.347 82.4286 202.678 80.8853 202.002C87.0983 200.432 93.3112 198.869 99.5175 197.3C96.2147 202.375 91.1612 203.804 85.5286 204.022Z"
        fill="#67531F" />
    <path
        d="M276.082 52.8449C277.13 55.6448 285.955 56.2397 278.531 61.4499C276.123 60.6983 273.709 59.9468 271.301 59.1886C269.122 57.0552 269.498 54.923 271.298 52.7863C272.895 52.8036 274.492 52.821 276.082 52.8382L276.082 52.8449Z"
        fill="#C1953B" />
    <path
        d="M132.63 195.349C128.164 200.864 120.945 195.142 116.168 199.37C113.266 199.411 111.501 198.234 111.562 195.087C118.583 195.17 125.609 195.259 132.63 195.342L132.63 195.349Z"
        fill="#766026" />
    <path
        d="M268.9 269.764C269.933 267.778 271.709 267.292 273.758 267.381C273.601 273.894 270.879 279.342 266.727 284.188C265.319 279.062 268.043 274.553 268.9 269.764Z"
        fill="#B6954B" />
    <path
        d="M351.966 8.88658C350.624 11.7137 356.896 12.6803 353.699 15.9665C349.225 14.9396 344.757 13.9127 340.283 12.8792C338.854 10.2482 341.216 9.68154 342.618 8.59868C345.671 10.6151 348.783 10.8752 351.966 8.88658Z"
        fill="#A08348" />
    <path
        d="M16.4062 219.856C14.1767 217.402 11.9473 214.942 9.71789 212.489C12.3276 209.343 15.8582 210.253 19.2048 210.343C18.2719 213.514 17.339 216.685 16.4062 219.856Z"
        fill="#846A31" />
    <path
        d="M480.952 85.3213C481.048 88.6831 479.849 91.2324 476.502 92.4339C474.016 91.5883 471.529 90.7426 469.043 89.897C469.043 89.897 469.186 90.1582 469.193 90.1582C472.157 86.2107 476.483 85.5855 480.958 85.3213L480.952 85.3213Z"
        fill="#8E7957" />
    <path
        d="M271.3 52.7897C271.303 54.926 271.3 57.0556 271.304 59.192C268.156 59.1578 265.008 59.1236 261.861 59.0961C260.065 58.3711 258.959 57.2809 259.807 55.1738C263.636 54.3768 267.471 53.58 271.3 52.7897Z"
        fill="#D6A65C" />
    <path
        d="M31.689 387.63C33.0637 389.122 34.4384 390.614 35.8131 392.107C35.7758 395.547 34.1602 397.845 29.8834 399.463C28.8668 395.019 27.1458 391.101 31.689 387.63Z"
        fill="#7F4716" />
    <path
        d="M325.832 273.69C323.465 269.797 325.802 267.939 328.76 265.769C331.907 263.46 333.39 264.774 334.838 267.432C331.834 269.516 328.837 271.606 325.832 273.69Z"
        fill="#876110" />
    <path
        d="M282.709 106.184L282.469 111.172C282.132 111.588 281.801 112.004 281.464 112.419C277.748 113.876 275.411 111.482 272.972 109.365L273.05 108.861C271.577 107.254 271.807 105.679 273.148 104.13C276.279 105.095 280.013 103.233 282.716 106.184L282.709 106.184Z"
        fill="#785F11" />
    <path
        d="M204.953 95.7541C201.796 102.129 198.502 102.712 195.028 95.999C198.266 93.1725 201.571 92.8157 204.953 95.7541Z"
        fill="#A48025" />
    <path
        d="M40.5945 206.284C40.5796 207.654 40.5781 209.025 40.5698 210.396C35.1246 209.905 29.3855 211.959 24.2716 208.536C29.7104 207.783 35.1558 207.037 40.5945 206.284Z"
        fill="#846529" />
    <path
        d="M502.582 45.8941C500.264 47.3198 497.945 48.7387 495.627 50.1643C494.789 50.1419 493.951 50.1195 493.112 50.0971C493.12 49.3851 493.054 48.6856 492.929 47.9854C493.279 45.8063 493.926 43.8102 496.166 42.8096C499.013 42.3614 500.409 44.9388 502.582 45.8941Z"
        fill="#624D10" />
    <path
        d="M186.689 219.11C189.519 216.565 192.252 213.646 196.438 216.786C193.456 218.671 192.109 227.454 186.689 219.11Z"
        fill="#D0C7AF" />
    <path
        d="M230.899 325.839C233.829 325.085 236.759 324.332 239.695 323.585C238.317 325.447 237.111 327.477 235.509 329.116C234.331 330.315 233.011 332.949 231.165 331.419C230.202 330.616 230.931 327.769 230.899 325.839Z"
        fill="#B3934C" />
    <path
        d="M342.628 8.59639C341.847 10.0254 341.072 11.4545 340.292 12.8769C337.998 12.619 333.659 14.5086 334.522 10.3518C335.211 7.0384 339.699 8.5912 342.628 8.58973L342.628 8.59639Z"
        fill="#C4AD84" />
    <path
        d="M273.147 104.13C273.117 105.707 273.086 107.29 273.049 108.867C272.303 108.972 271.55 109.004 270.799 108.963C269.061 108.458 267.105 108.377 266.04 106.542C266.011 104.352 266.775 102.636 268.888 101.708C270.683 101.86 272.573 101.848 273.147 104.136L273.147 104.13Z"
        fill="#725A0F" />
    <path
        d="M144.569 197.574C141.407 197.074 137.811 198.446 135.249 195.403C140.687 195.376 146.117 195.348 151.555 195.314C149.855 198.018 147.048 197.275 144.569 197.574Z"
        fill="#766026" />
    <path
        d="M460.741 212.737C462.57 212.85 464.392 212.963 466.221 213.076C465.397 215.423 466.011 218.371 463.351 219.946C459.459 218.632 458.747 216.176 460.748 212.737L460.741 212.737Z"
        fill="#8F741B" />
    <path
        d="M259.809 55.1749C260.493 56.4801 261.178 57.792 261.862 59.0972C258.755 59.0635 255.647 59.0297 251.834 58.9883C254.24 56.2791 256.949 55.5831 259.809 55.1749Z"
        fill="#E8C595" />
    <path
        d="M200.043 294.856C202.17 291.445 203.09 287.05 207.598 285.568C207.376 289.432 205.514 292.447 202.731 294.985C201.833 294.942 200.941 294.899 200.043 294.856Z"
        fill="#9C7930" />
    <path
        d="M314.836 159.214C313.194 159.049 311.552 158.885 309.91 158.714C312.77 155.145 316.983 155.796 321.012 155.554C318.949 156.769 316.892 157.992 314.829 159.207L314.836 159.214Z"
        fill="#A39180" />
    <path
        d="M507.047 66.8916C503.964 67.6367 500.888 68.382 497.805 69.1338C500.607 67.2276 501.741 58.4618 507.047 66.8916Z"
        fill="#665010" />
    <path
        d="M215.243 207.732C215.225 206.954 215.366 206.21 215.68 205.501C216.328 204.67 216.983 203.845 217.631 203.013C220.939 203.502 224.249 203.984 227.557 204.472L227.559 204.372C223.46 205.492 219.355 206.612 215.243 207.732Z"
        fill="#9E8A73" />
    <path
        d="M54.3958 210.552C56.0083 209.145 57.6275 207.738 59.24 206.332C60.8373 206.329 62.4279 206.327 64.0251 206.331C64.1714 209.4 62.5396 210.747 59.6367 210.862C57.8941 210.763 56.145 210.657 54.3958 210.552Z"
        fill="#A28448" />
    <path
        d="M211.839 92.3441C211.833 94.1675 212.255 95.776 214.102 96.6213C210.005 101.295 209.563 94.8084 207.146 94.3496C207.756 91.4479 209.898 92.1233 211.839 92.3441Z"
        fill="#A48025" />
    <path
        d="M424.565 115.073C422.469 115.629 420.367 116.185 417.063 117.055C419.098 112.312 421.931 113.114 424.565 115.073Z"
        fill="#AB9A8A" />
    <path
        d="M293.575 165.704C292.24 169.164 290.627 170.597 288.358 171.211C288.157 171.262 287.284 170.168 287.369 169.736C287.889 167.167 289.867 166.436 293.569 165.711L293.575 165.704Z"
        fill="#A5917B" />
    <path
        d="M261.709 276.599C257.87 278.933 258.397 285.581 252.517 285.89C253.253 283.642 253.99 281.393 254.72 279.145C257.684 274.006 256.389 267.583 259.745 262.562C268.138 266.16 263.88 271.525 261.708 276.606L261.709 276.599Z"
        fill="#CAAC80" />
    <path
        d="M271.578 246.054C269.809 249.003 268.863 252.174 268.925 255.628C264.434 246.376 269.215 238.122 271.743 229.631C271.684 235.107 271.624 240.577 271.572 246.054L271.578 246.054Z"
        fill="#866D1F" />
    <path
        d="M259.743 262.563C259.273 268.454 259.978 274.697 254.718 279.146C254.691 273.103 253.788 266.797 259.743 262.563Z"
        fill="#B6954B" />
    <path
        d="M463.814 148.979C463.742 148.259 463.69 147.54 463.658 146.814C463.197 134.144 467.309 123.141 475.737 113.723C478.986 112.979 482.242 112.236 485.491 111.493C484.661 113.82 483.83 116.147 483.006 118.474C480.537 126.48 474.63 132.911 472.671 141.155C470.497 144.639 471.688 151.966 463.814 148.979Z"
        fill="#806812" />
    <path
        d="M98.5796 288.989C101.029 285.914 103.478 282.839 105.927 279.771C113.801 283.99 113.911 271.998 120.21 272.925C122.356 273.907 124.793 274.353 126.416 276.293C126.651 276.709 126.88 277.13 127.101 277.552C119.996 282.213 112.898 286.875 105.793 291.543C103.139 291.381 100.259 291.862 98.5663 288.988L98.5796 288.989Z"
        fill="#A68245" />
    <path
        d="M77.1448 314.859C80.2829 313.31 82.6906 310.993 84.3811 307.923C85.147 307.872 85.9058 307.86 86.6707 307.902C87.2507 312.706 90.214 311.321 92.0252 309.391C95.264 305.925 98.9986 305.214 103.326 305.7C95.9419 315.197 83.2757 316.563 74.7331 324.283C72.0017 322.703 74.5214 321.107 74.7183 319.518C75.5272 317.963 76.3426 316.415 77.1515 314.859L77.1448 314.859Z"
        fill="#735114" />
    <path
        d="M129.621 265.8C132.71 264.496 136.163 262.131 136.702 268.239C139.34 273.519 136.126 274.689 131.869 275.128C130.283 275.936 128.703 276.751 127.117 277.559L126.848 277.263C125.252 275.263 125.533 272.703 124.819 270.44C126.419 268.893 128.027 267.347 129.627 265.807L129.621 265.8Z"
        fill="#A68245" />
    <path
        d="M131.868 275.127C133.391 272.768 137.074 271.929 136.701 268.238C137.526 268.274 138.351 268.31 139.176 268.345C139.906 269.112 140.63 269.872 141.36 270.638C135.844 281.034 135.683 281.112 131.868 275.127Z"
        fill="#7E581E" />
    <path
        d="M139.532 216.475C140.375 214.834 141.212 213.192 142.055 211.544C147.776 211.726 153.503 212.021 160.459 209.441C155.79 221.43 146.19 216.288 139.575 218.672C138.451 217.961 138.433 217.228 139.526 216.468L139.532 216.475Z"
        fill="#978248" />
    <path
        d="M490.108 123.344C490.843 119.399 487.545 115.403 490.277 111.487C493.594 115.489 493.598 119.442 490.108 123.344Z"
        fill="#806812" />
    <path
        d="M237.786 96.8587C238.551 96.9136 239.309 96.9684 240.074 97.0166C240.862 98.6091 241.65 100.202 242.438 101.794C243.91 103.514 246.876 102.461 248.029 104.79C248.397 106.431 248.506 108.036 247.386 109.468C245.245 113.531 239.021 107.58 237.606 113.448C237.606 113.448 237.424 113.639 237.424 113.646C227.423 111.714 219.796 106.846 216.465 96.667C223.599 94.302 230.68 97.3871 237.793 96.8588L237.786 96.8587Z"
        fill="#A48025" />
    <path
        d="M64.0512 215.655C71.9102 215.72 79.7625 215.785 87.6214 215.857C80.2865 222.686 72.3849 222.866 64.0403 217.884L64.0271 217.871C64.0351 217.132 64.0431 216.4 64.0511 215.661L64.0512 215.655Z"
        fill="#A18A53" />
    <path
        d="M50.0127 218.224C43.779 216.792 37.5748 218.169 31.7404 216.136C38.0689 215.565 44.4609 214.058 50.0127 218.224Z"
        fill="#B2925B" />
    <path
        d="M337.184 69.7117C333.921 69.2902 330.104 70.8327 327.796 67.0541C331.944 66.2207 337.772 70.1107 339.641 62.857C343.413 59.3508 347.014 62.2915 350.679 63.1233C352.786 63.9913 354.744 65.0907 356.35 66.7453C356.972 67.7104 357.253 68.7783 357.254 69.923C356.742 71.6811 355.87 72.9228 353.741 72.3007C348.22 71.4354 342.698 70.5768 337.184 69.7117Z"
        fill="#7E6210" />
    <path
        d="M351.36 65.4877C347.457 64.6067 343.546 63.7324 339.643 62.8515C338.506 57.8212 329.067 63.4952 330.205 55.5281C330.95 55.6094 331.695 55.6641 332.446 55.6922C336.294 58.0367 340.845 55.7103 344.765 57.563C346.751 60.3798 355.157 57.8555 351.36 65.4877Z"
        fill="#D4AF68" />
    <path
        d="M320.884 60.7052C318.048 63.2366 315.339 62.1091 312.083 61.6212C315.522 56.8868 318.089 61.9659 320.884 60.7052Z"
        fill="#DAB46D" />
    <path
        d="M395.84 96.397C393.551 96.2989 391.27 96.2009 388.981 96.1028C385.589 91.028 378.612 93.1218 374.75 88.9936C372.942 83.936 374.556 82.3763 379.56 84.2941C384.404 88.0137 390.415 87.8926 395.963 89.3039C401.449 94.0221 409.575 88.5334 414.818 94.1806C414.807 95.7378 414.797 97.295 414.794 98.8456C408.474 98.0249 402.16 97.211 395.84 96.3903L395.84 96.397Z"
        fill="#3A3302" />
    <path
        d="M379.565 84.2955C376.549 84.4158 374.856 85.8882 374.756 88.9951C369.835 89.8068 369.733 79.0177 363.036 84.1293C361.026 84.0742 359.384 83.3509 358.352 81.5361C355.697 79.0183 352.688 76.6763 353.754 72.3088C354.527 71.5452 355.294 70.7816 356.068 70.018C360.309 67.9876 363.05 71.1985 366.226 72.8968C368.747 74.781 371.709 76.0044 374.095 78.0934C374.39 78.5292 374.685 78.9717 374.973 79.414C376.506 81.0412 378.039 82.6684 379.572 84.2956L379.565 84.2955Z"
        fill="#4E4204" />
    <path
        d="M365.589 74.5882C362.411 73.0629 359.24 71.5378 356.062 70.0125C356.07 69.2472 356.052 68.4817 356.007 67.7158C356.209 64.3971 358.48 62.4586 360.816 60.5739C365.43 62.8868 367.035 68.9072 372.539 70.1183C377.388 72.1608 381.029 74.523 374.967 79.4152L374.92 79.448C372.272 76.9369 368.516 76.5567 365.589 74.5949L365.589 74.5882Z"
        fill="#9B731D" />
    <path
        d="M414.921 84.711C417.933 92.9495 421.162 86.722 424.33 84.8531C425.106 85.6535 425.883 86.4473 426.653 87.2476C426.815 94.397 421.483 92.6752 417.4 92.9902C413.789 92.7447 409.637 93.9042 407.731 89.2582C407.747 87.7476 407.763 86.2371 407.787 84.72C408.312 84.1001 408.84 83.8929 409.377 84.0917C409.914 84.2905 410.185 84.4931 410.183 84.6927C411.76 84.7032 413.337 84.7071 414.914 84.7176L414.921 84.711Z"
        fill="#685309" />
    <path
        d="M407.735 89.2466C410.651 90.9953 413.726 92.1667 417.211 91.8318C418.241 92.5684 418.293 93.3078 417.22 94.0482C416.421 94.0927 415.628 94.1373 414.829 94.1819C408.537 92.5895 400.801 96.5651 395.975 89.3052C399.895 89.2879 403.815 89.2705 407.742 89.2533L407.735 89.2466Z"
        fill="#4E4204" />
    <path
        d="M410.194 84.6873C409.395 84.6986 408.597 84.7033 407.798 84.7146C405.946 83.6297 405.553 81.8551 405.534 79.9049C410.599 78.0765 409.535 82.2244 410.194 84.6873Z"
        fill="#554706" />
    <path
        d="M470.845 139.533C472.745 131.268 475.425 123.457 483.006 118.475C483.763 118.663 485.015 118.63 485.203 119.064C487.664 124.681 480.273 156.938 475.682 161.101C475.178 160.923 474.674 160.744 474.17 160.572C469.116 155.999 473.336 149.123 470.077 144.096C469.788 142.483 469.732 140.911 470.845 139.533Z"
        fill="#A88C3C" />
    <path
        d="M473.404 170.5C472.443 171.974 471.482 173.447 470.521 174.928C468.948 176.348 467.256 176.51 465.444 175.405C463.744 173.237 463.651 170.774 464.132 168.203C464.997 165.138 465.882 162.066 468.619 160.02C470.577 159.342 472.351 159.574 473.845 161.128C474.902 164.307 474.589 167.425 473.41 170.5L473.404 170.5Z"
        fill="#C1A660" />
    <path
        d="M466.031 174.871C467.528 174.887 469.019 174.903 470.516 174.926C469.405 177.31 469 179.695 470.478 182.087L470.478 182.107C469.188 184.994 469.452 188.937 465.229 189.843C462.459 189.407 461.649 187.335 461.162 184.98C461.129 183.815 461.168 182.658 461.24 181.494C461.541 178.343 462.713 175.826 466.031 174.871Z"
        fill="#A78B3B" />
    <path
        d="M473.4 170.5C473.308 167.305 473.21 164.109 473.118 160.914C473.578 160.22 474.053 159.979 474.557 160.177C475.067 160.383 475.324 160.592 475.322 160.811L475.691 161.095C477.521 164.862 476.144 167.848 473.406 170.5L473.4 170.5Z"
        fill="#A88C3C" />
    <path
        d="M218.094 160.56C211.116 160.298 204.131 160.036 197.152 159.78C195.303 159.727 194.141 158.802 193.662 157.027C193.694 155.922 194.149 155.042 195.087 154.434C200.119 151.973 206.101 153.901 211.057 151.033C215.205 152.063 221.249 148.236 222.886 155.667C220.158 156.19 215.507 154.848 218.101 160.567L218.094 160.56Z"
        fill="#836614" />
    <path
        d="M265.404 156.341C265.396 157.106 265.388 157.865 265.38 158.63C257.412 157.512 247.782 164.289 241.808 153.669C242.56 153.617 243.312 153.605 244.064 153.627C251.175 154.529 258.293 155.432 265.411 156.341L265.404 156.341Z"
        fill="#2A2801" />
    <path
        d="M358.351 81.5271C359.912 82.3893 361.473 83.2581 363.034 84.1202C361.978 85.8324 360.282 86.9121 358.514 86.101C356.05 84.9761 358.087 83.0882 358.351 81.5271Z"
        fill="#936F0A" />
    <path
        d="M139.532 216.476C139.571 217.209 139.583 217.941 139.581 218.679C132.295 219.199 126.378 225.99 118.394 223.334L118.27 223.166C115.461 217.626 119.887 217.021 123.322 215.714C124.509 215.448 125.716 215.268 126.922 215.128C130.505 214.315 134.079 213.682 137.257 216.352C138.016 216.386 138.774 216.428 139.532 216.489L139.532 216.476Z"
        fill="#796225" />
    <path
        d="M349.989 209.271C351.507 209.248 353.018 209.224 354.536 209.201C356.03 210.674 357.596 208.016 359.087 209.283C359.184 210.096 359.289 210.91 359.386 211.722C361.966 215.065 359.89 218.01 358.62 221.025C355.056 227.501 353.046 234.84 347.927 240.475C346.923 240.99 345.855 241.244 344.724 241.278C342.312 240.919 340.527 239.762 339.802 237.312C339.824 236.54 339.759 235.774 339.601 235.013C338.751 232.336 340.088 229.928 340.522 227.403C341.215 225.428 342.491 223.831 343.818 222.275C346.692 219.358 347.77 215.643 348.445 211.75C348.682 210.754 349.197 209.928 349.976 209.264L349.989 209.271Z"
        fill="#87691D" />
    <path
        d="M356.513 220.875C357.471 217.824 358.423 214.773 359.381 211.716C362.972 211.389 363.626 204.434 368.366 207.361C371.453 209.271 375.463 211.391 373.285 216.465C369.046 219.554 369.081 226.07 363.786 228.308C361.021 226.162 353.944 228.235 356.513 220.875Z"
        fill="#C7A45D" />
    <path
        d="M366.584 180.961C362.87 179.177 359.043 177.918 354.831 178.497C357.368 167.897 365.049 159.921 369.228 150.157C369.265 151.009 369.309 151.868 369.353 152.727C370.793 159.844 369.578 166.945 369.214 174.055C368.337 176.362 367.461 178.661 366.584 180.968L366.584 180.961Z"
        fill="#7B5A11" />
    <path
        d="M359.081 209.275C357.584 208.008 355.91 216.934 354.53 209.193C354.551 201.746 356.67 194.794 359.512 188.017C361.08 188.819 362.642 189.628 364.211 190.43C364.357 197.214 361.981 203.317 359.081 209.269L359.081 209.275Z"
        fill="#806015" />
    <path
        d="M369.216 174.048C365.234 166.917 367.754 159.823 369.355 152.719C370.147 152.728 370.938 152.743 371.73 152.758C371.365 156.967 371.793 161.032 373.956 164.775C373.152 167.082 372.348 169.39 371.544 171.697C370.771 172.481 369.997 173.264 369.223 174.048L369.216 174.048Z"
        fill="#68520F" />
    <path
        d="M86.4954 331.651C83.211 333.798 81.8999 338.709 76.9243 338.482C68.192 342.233 67.4504 338.206 69.803 331.163C71.4166 329.65 73.0303 328.13 74.6507 326.617C77.0753 330.098 79.1123 327.591 81.1776 326.169C85.3215 323.313 87.2828 325.943 89.0041 329.229C88.1701 330.039 87.3361 330.841 86.4955 331.644L86.4954 331.651Z"
        fill="#BEA16C" />
    <path
        d="M466.03 174.874C465.165 177.273 464.294 179.673 463.43 182.073C460.692 183.494 460.042 180.898 458.711 179.619C458.613 178.846 458.535 178.073 458.477 177.294C455.32 171.955 460.686 168.134 460.944 163.405C458.786 157.977 461.006 153.423 463.822 148.988C470.549 149.101 467.011 141.569 470.853 139.534C470.902 141.178 470.95 142.816 471.006 144.46C473.808 148.704 471.35 152.63 470.288 156.645C466.9 159.736 467.569 164.289 466.19 168.107C466.139 170.363 466.088 172.625 466.037 174.88L466.03 174.874Z"
        fill="#9C7D25" />
    <path
        d="M463.357 184.379C463.415 186.343 463.822 188.144 465.74 189.183C466.968 190.767 467.11 192.333 465.669 193.868C460.974 197.89 466.328 203.705 463.14 207.996C459.63 210.706 457.874 208.198 456.138 205.637C455.279 203.837 453.694 203.281 451.866 203.155C451.641 202.427 451.536 201.687 451.537 200.928C455.663 197.892 452.028 191.903 456.121 188.852C460.848 191.1 458.479 181.884 463.35 184.379L463.357 184.379Z"
        fill="#997B29" />
    <path
        d="M460.943 163.404C462.273 168.417 459.657 172.727 458.476 177.293C456.188 180.223 453.907 183.153 451.626 186.083C449.647 175.207 456.447 169.911 460.943 163.397L460.943 163.404Z"
        fill="#C6AA63" />
    <path
        d="M463.353 184.379C459.273 187.496 462.134 192.472 459.932 196.727C455.331 195.665 456.671 191.74 456.117 188.852C456.976 185.774 457.841 182.695 458.707 179.61C460.282 180.426 461.85 181.248 463.425 182.064L463.433 183.215L463.347 184.365L463.353 184.379Z"
        fill="#866C18" />
    <path
        d="M403.878 25.3143C404.569 25.435 405.261 25.4358 405.954 25.3169C407.57 25.4476 409.186 25.5783 410.801 25.709C412.358 28.8804 413.907 32.0519 415.463 35.2299C409.948 33.8523 399.929 37.7432 403.878 25.3143Z"
        fill="#A27D3D" />
    <path
        d="M282.472 111.173C284.001 111.362 285.523 111.558 287.051 111.748C298.11 115.642 310.464 116.022 320.049 123.913C318.995 124.753 317.849 125.453 316.625 126.025C308.248 126.447 299.024 129.481 294.141 118.893C291.784 115.353 288.095 116.717 284.872 116.37C283.514 115.13 281.045 114.478 282.426 111.778L282.479 111.179L282.472 111.173Z"
        fill="#937621" />
    <path
        d="M294.131 118.892C301.094 124.858 309.615 123.446 317.743 123.874C316.214 132.309 306.688 125.784 303.652 131.408C298.504 131.704 292.676 134.662 289.403 127.719C289.363 127.113 289.33 126.5 289.297 125.888C284.889 119.391 291.227 120.325 294.138 118.892L294.131 118.892Z"
        fill="#7C6817" />
    <path
        d="M266.044 106.542C267.625 107.351 269.214 108.16 270.796 108.969C264.493 111.463 264.676 115.425 268.805 120.042C263.907 121.892 260.03 120.426 256.239 118.328C255.193 115.994 256.586 114.538 258.073 113.11C260.782 111.802 261.357 108.534 263.704 106.882C264.484 106.771 265.264 106.66 266.044 106.548L266.044 106.542Z"
        fill="#A7883E" />
    <path
        d="M258.552 113.846C257.784 115.335 257.016 116.831 256.247 118.32C250.295 118.522 244.82 117.178 240.103 113.36C241.54 106.64 247.627 111.784 250.689 109.209C254.088 109.439 256.856 110.733 258.545 113.846L258.552 113.846Z"
        fill="#C9AA6D" />
    <path
        d="M279.833 130.589C278.326 129.68 276.812 128.765 275.304 127.851C278.765 118.631 284.611 126.381 289.301 125.88L289.315 125.893C290.988 128.726 290.88 130.649 286.908 130.585C284.552 130.587 282.189 130.588 279.833 130.589Z"
        fill="#AC893C" />
    <path
        d="M282.415 111.771C283.23 113.304 284.046 114.83 284.861 116.363C278.459 118.177 273.84 116.955 272.971 109.366C276.117 110.165 279.269 110.971 282.415 111.771Z"
        fill="#A7883E" />
    <path
        d="M251.805 111.18C247.923 112.016 243.431 109.585 240.095 113.362C239.263 113.386 238.424 113.417 237.592 113.442C237.782 111.873 231.516 109.795 237.855 108.799C240.842 108.332 243.953 108.646 247.002 108.606C249.608 107.589 251.977 107.003 251.799 111.18L251.805 111.18Z"
        fill="#BB974F" />
    <path
        d="M64.0404 217.879C72.0194 218.544 80.1157 220.649 87.6216 215.852C88.3883 215.727 89.1544 215.662 89.933 215.664C90.839 214.969 91.8605 214.667 92.9978 214.733C99.0468 215.391 105.194 215.584 110.904 218.095C111.95 218.572 112.868 219.228 113.698 220.015C114.378 221.074 114.268 222.078 113.492 223.041C98.5366 222.539 83.3887 217.716 68.7876 225.045C65.6209 223.706 63.9961 221.345 64.0404 217.879Z"
        fill="#9E8B53" />
    <path
        d="M113.493 223.038C113.528 222.24 113.564 221.442 113.599 220.643C112.429 216.185 115.485 214.282 118.573 212.378C119.729 211.978 120.915 211.845 122.132 211.938C125.429 212.906 127.802 214.382 125.596 218.338C122.286 218.628 118.563 218.288 118.27 223.157C116.68 223.119 115.083 223.075 113.493 223.038Z"
        fill="#8E7B40" />
    <path
        d="M217.56 229.187C217.499 229.892 217.432 230.604 217.344 231.308C214.837 234.841 218.078 240.966 212.113 242.951C208.593 243.492 204.559 246.097 206.133 238.387C207.588 231.269 209.267 226.761 217.56 229.194L217.56 229.187Z"
        fill="#B08C4E" />
    <path
        d="M205.216 269.025C204.737 272.753 203.251 275.972 200.402 278.496C197.603 279.431 195.126 280.169 195.956 275.467C196.367 273.135 200.889 272.186 198.077 268.901C198.483 265.145 199.896 261.9 202.832 259.409L202.916 259.583C206.324 262.049 202.459 266.153 204.999 268.823L205.216 269.025Z"
        fill="#8F6A1F" />
    <path
        d="M212.112 242.943C213.852 239.062 214.094 234.506 217.343 231.3C221.513 234.642 222.324 237.774 219.777 240.697L219.576 240.834C217.529 242.376 216.6 245.174 213.863 245.95C213.379 245.758 212.889 245.567 212.405 245.382C212.308 244.569 212.21 243.756 212.112 242.943Z"
        fill="#825F1D" />
    <path
        d="M212.391 254.879C210.289 254.829 208.431 254.31 207.362 252.269C207.882 249.126 209.247 246.599 212.408 245.382L212.487 245.443C215.208 248.634 214.422 251.773 212.365 254.905L212.392 254.872L212.391 254.879Z"
        fill="#825F1D" />
    <path
        d="M455.891 229.254C451.97 231.195 454.925 236.711 451.004 238.651C451.221 235.22 450.788 231.568 451.853 228.425C452.679 225.985 450.515 220.551 455.111 221.426C459.653 222.287 455.095 226.583 455.884 229.254L455.891 229.254Z"
        fill="#C39D48" />
    <path
        d="M441.492 222.031C442.22 221.214 442.954 220.396 443.675 219.586C445.352 219.604 447.036 219.609 448.719 219.627C447.975 224.451 446.569 228.888 441.83 231.365C441.717 228.256 441.605 225.147 441.492 222.038L441.492 222.031Z"
        fill="#BA9E5A" />
    <path
        d="M456.133 205.638C458.467 206.422 460.801 207.212 463.135 207.996C462.339 209.572 461.537 211.154 460.741 212.729C456.012 212.438 456.016 209.077 456.133 205.638Z"
        fill="#8F741B" />
    <path
        d="M429.765 32.8254C429.071 26.8549 424.942 31.422 422.609 30.4916C423.411 28.943 424.207 27.3944 425.009 25.8458C428.95 23.2931 432.877 24.4272 436.801 25.9006C439.868 29.7008 445.212 27.8821 448.675 30.7015C452.709 30.579 454.673 34.1941 457.784 35.7453C454.157 44.9964 447.514 37.7501 442.34 38.599C440.552 38.3733 438.813 37.9417 437.096 37.3906C434.358 36.3493 431.486 35.5062 429.765 32.8254Z"
        fill="#744C14" />
    <path
        d="M436.796 25.8994C432.863 25.8833 428.937 25.8607 425.004 25.8446C424.645 23.9374 422.717 20.7485 426.828 21.4986C430.302 22.1353 434.174 22.8761 436.796 25.8994Z"
        fill="#937230" />
    <path
        d="M349.983 209.27L349.884 210.4L349.872 211.532C349.266 215.877 346.168 219.225 345.118 223.393C344.13 224.912 343.142 226.432 342.154 227.952C338.196 227.736 338.684 225.705 340.235 223.246C338.693 217.546 340.965 212.333 343.636 207.883C346.632 202.898 346.628 198.945 343.154 194.648C346.365 193.758 348.22 189.618 352.506 190.823C351.661 196.996 350.822 203.136 349.983 209.277L349.983 209.27Z"
        fill="#B78E42" />
    <path
        d="M344.877 239.953C345.564 239.834 346.258 239.715 346.951 239.596C351.822 237.832 354.31 239.743 351.706 244.213C350.16 246.872 347.667 249.7 344.771 251.632C339.183 256.915 333.698 257.581 328.39 251.241C330.667 250.554 332.943 249.873 335.22 249.185C339.91 250.574 338.863 245.898 340.553 244.119C341.545 242.266 343.221 241.12 344.877 239.953Z"
        fill="#C69A4D" />
    <path
        d="M342.359 244.487C340.097 246.24 341.168 253.053 335.213 249.188C340.967 246.369 332.806 240.464 337.81 237.477C340.293 239.187 342.469 241.094 342.359 244.487Z"
        fill="#B78E42" />
    <path
        d="M340.24 223.242C340.882 224.813 341.523 226.383 342.159 227.948C342.706 230.809 341.02 232.86 339.606 235.014C333.842 230.766 337.803 227.042 340.24 223.235L340.24 223.242Z"
        fill="#C69A4D" />
    <path
        d="M342.361 244.488C340.842 242.149 339.33 239.809 337.812 237.47C338.471 237.378 339.137 237.325 339.81 237.312C341.497 238.189 343.185 239.073 344.872 239.95C344.037 241.458 343.196 242.973 342.361 244.481L342.361 244.488Z"
        fill="#A17527" />
    <path
        d="M344.771 251.635C343.056 247.184 355.654 245.318 346.952 239.6C350.141 233.359 353.336 227.118 356.525 220.883C358.235 224.056 364.235 223.037 363.799 228.316C357.115 232.822 354.184 239.745 351.783 247C349.293 248.317 348.368 251.987 344.778 251.642L344.771 251.635Z"
        fill="#B08D3A" />
    <path
        d="M125.373 204.256C130.555 201.398 136.165 200.181 142.018 199.925C141.411 205.589 139.316 209.732 132.6 209.167C132.102 209.095 131.597 209.023 131.092 208.964C129.156 208.237 127.471 207.128 126.064 205.608C125.829 205.16 125.594 204.705 125.366 204.25L125.373 204.256Z"
        fill="#AA9560" />
    <path
        d="M125.587 218.34C125.361 215.303 123.714 213.734 120.694 213.575C122.57 206.973 127.068 207.009 132.331 208.969L132.602 209.165C132.481 209.89 132.373 210.62 132.279 211.351C131.879 214.448 129.22 216.023 127.604 218.302C126.938 218.368 126.266 218.381 125.594 218.34L125.587 218.34Z"
        fill="#AA9560" />
    <path
        d="M127.6 218.302C127.874 215.117 129.443 212.811 132.28 211.358C134.633 212.322 136.352 213.931 137.258 216.344C134.043 216.994 130.821 217.651 127.606 218.302L127.6 218.302Z"
        fill="#978248" />
    <path
        d="M460.289 37.9523C464.182 40.3905 468.976 41.3942 471.962 45.2799C468.53 45.1561 465.13 45.0859 464.851 49.8613C464.131 50.6255 463.256 50.9487 462.206 50.771C460.243 50.1973 458.502 49.2732 457.243 47.5958C456.927 46.614 456.945 45.636 457.228 44.6541C458.555 42.5655 458.267 39.7272 460.282 37.9523L460.289 37.9523Z"
        fill="#715014" />
    <path
        d="M484.324 52.5309C486.656 52.8624 489.354 53.2377 489.176 56.2173C489.02 58.9309 486.228 59.8057 484.062 60.1149C480.476 60.6216 481.205 57.1823 480.753 55.3139C480.059 52.4447 482.414 52.5701 484.324 52.5309Z"
        fill="#372B02" />
    <path
        d="M462.544 49.8172C463.315 49.8322 464.081 49.8472 464.852 49.8622C465.629 50.656 466.412 51.4565 467.189 52.2502C465.488 55.0469 462.706 54.4975 460.116 54.5493C458.788 51.8728 458.121 49.5429 462.544 49.8172Z"
        fill="#775D1C" />
    <path
        d="M303.753 130.384C305.444 121.818 314.541 129.177 317.753 123.875C318.519 123.843 319.284 123.858 320.049 123.92L320.037 125.024C320.037 125.024 320.065 126.129 320.065 126.123C320.145 130.968 323.585 131.006 327.053 130.997L327.066 131.01C328.607 133.776 328.685 135.786 324.666 135.703C321.307 132.498 317.016 131.693 312.664 131.06C311.08 131.076 309.489 131.086 307.905 131.095C306.332 131.976 304.857 132.28 303.753 130.384Z"
        fill="#4F4704" />
    <path
        d="M417.214 94.0496C417.209 93.3108 417.204 92.572 417.205 91.8333C421.202 92.0497 424.874 91.5972 426.652 87.2441C431.455 87.4559 431.424 90.863 431.32 94.3225C426.616 94.2315 421.912 94.1405 417.208 94.0495L417.214 94.0496Z"
        fill="#554706" />
    <path
        d="M211.05 151.028C206.89 157.186 200.198 154.418 194.648 155.682C192.46 156.144 191.63 155.323 192.246 153.14L192.226 153.166C194.644 152.354 197.055 151.548 199.473 150.736C203.332 150.831 207.191 150.933 211.05 151.028Z"
        fill="#AA8738" />
    <path
        d="M460.291 37.9533C459.248 40.2513 464.108 44.377 458.07 45.1367C454.154 45.3404 450.828 43.3809 447.267 42.2508C444.589 40.6112 440.649 40.0493 441.337 35.4714C446.844 33.9606 452.208 41.3661 457.779 35.7431C458.616 36.4843 459.454 37.2188 460.291 37.96L460.291 37.9533Z"
        fill="#81541B" />
    <path
        d="M324.656 135.696C326.551 134.692 326.989 132.94 327.057 131.004C334.952 133.239 333.62 137.577 329.674 142.506C328.748 142.569 327.822 142.639 326.896 142.708C325.546 141.429 323.051 140.717 324.591 138.018C324.6 137.246 324.621 136.474 324.656 135.703L324.656 135.696Z"
        fill="#4A4208" />
    <path
        d="M465.665 193.868C465.688 192.305 465.712 190.741 465.735 189.184C467.312 186.825 468.888 184.473 470.471 182.114C473.549 187.944 474.168 192.776 465.665 193.875L465.665 193.868Z"
        fill="#8E7824" />
    <path
        d="M448.567 40.1369C452.402 40.5313 455.572 42.1962 458.069 45.1383L457.991 46.2555L458.018 47.3738C457.998 54.1619 452.98 52.8895 448.797 53.2234C443.475 53.6514 438.873 51.5583 434.216 49.5378C432.328 49.3642 430.467 49.1443 429.416 47.2362C427.046 42.3722 416.806 37.3162 429.772 32.825C432.359 32.9929 435.084 32.7097 437.05 34.9738C436.435 37.6159 430.669 41.5464 438.857 41.9747C442.276 42.1516 445.704 42.7079 448.573 40.137L448.567 40.1369Z"
        fill="#A58243" />
    <path
        d="M324.596 138.012C325.364 139.578 326.132 141.143 326.901 142.702C323.8 142.668 320.705 142.635 317.278 142.598C318.521 138.445 321.781 138.587 324.602 138.012L324.596 138.012Z"
        fill="#4F4704" />
    <path
        d="M166.38 150.242C172.626 151.201 178.878 152.168 185.123 153.127C186.419 155.105 193.113 154.019 188.623 159.295C183.308 160.941 178.142 161.044 173.333 157.718C168.51 155.782 163.692 153.853 156.834 151.103C161.437 150.687 163.909 150.461 166.38 150.235L166.38 150.242Z"
        fill="#856C18" />
    <path
        d="M173.341 157.723C178.779 157.703 184.216 157.682 189.647 157.661C191.331 156.381 192.993 156.546 194.63 157.762C195.468 158.436 196.306 159.111 197.144 159.779L196.852 160.361C195.057 162.605 192.163 163.106 189.97 164.712C184.394 163.94 178.819 163.16 173.237 162.388C173.267 160.831 173.304 159.274 173.334 157.723L173.341 157.723Z"
        fill="#AD8839" />
    <path
        d="M154.786 140.685C157.014 140.849 159.248 141.013 161.476 141.184C162.204 143.415 162.932 145.646 163.659 147.87C159.07 148.226 155.186 146.806 152.109 143.325C153.004 142.443 153.892 141.568 154.786 140.685Z"
        fill="#C39B55" />
    <path
        d="M382.384 16.0369C380.51 21.9263 376.321 17.941 373.13 18.2058C370.07 14.4058 372.063 13.509 375.697 14.0609C377.976 14.4051 380.162 15.3606 382.391 16.0437L382.384 16.0369Z"
        fill="#C7AD80" />
    <path
        d="M344.226 58.0573C340.259 57.4885 335.856 59.0512 332.446 55.6932C334.895 55.62 337.352 55.5402 339.802 55.4669C342.435 55.6619 345.186 55.4722 347.124 57.8159C346.252 59.0576 345.286 59.1403 344.226 58.0573Z"
        fill="#BE993F" />
    <path
        d="M124.81 270.439C131.013 271.066 126.486 274.896 126.846 277.263C123.522 277.513 121.417 275.913 120.218 272.925C121.751 272.097 123.277 271.268 124.81 270.439Z"
        fill="#B2935C" />
    <path
        d="M434.21 49.5358C442.167 49.1165 450.91 57.2775 458.012 47.3719C459.901 47.4856 461.599 47.9632 462.551 49.8237C460.636 50.8344 460.198 52.6066 460.124 54.5558C459.365 54.5741 458.599 54.5792 457.841 54.5709C449.833 53.519 440.857 57.0086 434.21 49.5358Z"
        fill="#81541B" />
    <path
        d="M344.23 58.0568C345.195 57.9741 346.155 57.898 347.127 57.8154C351.816 58.1125 356.617 57.8586 360.814 60.5662C360.895 64.081 358.922 66.2091 356.004 67.7081C354.455 66.9659 352.912 66.2238 351.363 65.4815C352.195 59.9269 346.087 61.0252 344.23 58.0501L344.23 58.0568Z"
        fill="#C0933A" />
    <path
        d="M92.5377 215.917C91.6667 215.834 90.8025 215.751 89.9316 215.662C94.9748 205.994 86.4423 209.721 82.8947 208.531C83.7215 207.775 84.5484 207.012 85.3752 206.256C90.8176 207.619 97.2996 202.119 101.939 208.765C103.689 210.694 110.55 210.708 104.487 215.567C100.539 216.982 96.5874 218.057 92.531 215.917L92.5377 215.917Z"
        fill="#AC9764" />
    <path
        d="M104.109 213.706C106.885 210.522 101.517 210.916 101.946 208.765C107.164 208.782 111.982 207.549 116.177 204.314C119.245 204.294 122.307 204.274 125.375 204.254L125.725 204.464C125.427 210.524 117.448 209.206 116.221 214.377C113.867 216.009 111.604 217.834 108.511 217.747C106.435 217.066 103.531 217.287 104.115 213.713L104.109 213.706Z"
        fill="#A18D59" />
    <path
        d="M303.755 130.384C305.136 130.619 306.525 130.853 307.907 131.095C300.833 134.112 293.737 137.862 286.908 130.594C288.796 129.589 289.241 127.837 289.315 125.901C292.951 131.192 298.222 131.209 303.755 130.384Z"
        fill="#9C7C2C" />
    <path
        d="M194.63 157.761C192.973 157.73 191.31 157.698 189.647 157.66C188.139 156.146 186.631 154.633 185.124 153.119C187.5 153.125 189.869 153.124 192.245 153.13C193.047 153.977 193.843 154.824 194.646 155.671L194.608 156.716L194.63 157.761Z"
        fill="#986F1D" />
    <path
        d="M189.97 164.72C191.215 161.612 193.54 160.2 196.852 160.362C198.484 163.315 197.965 165.099 194.258 165.152C192.829 165.01 191.399 164.862 189.97 164.713L189.97 164.72Z"
        fill="#C89852" />
    <path
        d="M441.8 205.41C443.206 203.363 446.369 201.367 447.385 202.769C450.159 206.599 450.07 211.137 446.507 214.979C442.516 212.979 440.887 209.82 441.8 205.41Z"
        fill="#DCC38C" />
    <path
        d="M441.804 205.411C443.374 208.602 444.943 211.787 446.512 214.979C445.684 215.855 444.856 216.724 444.021 217.6C435.01 216.391 440.153 209.825 439.435 205.478C440.22 205.453 441.012 205.429 441.805 205.404L441.804 205.411Z"
        fill="#CBB171" />
    <path
        d="M251.807 111.179C250.205 110.323 248.611 109.467 247.01 108.611C247.026 107.114 247.035 105.616 247.045 104.119C247.597 103.553 248.131 103.379 248.641 103.611C249.138 103.836 249.388 104.051 249.386 104.251C253.327 109.684 259.433 103.249 263.706 106.869C262.308 109.429 266.752 116.312 258.553 113.847C256.306 112.958 254.053 112.068 251.807 111.179Z"
        fill="#957A2F" />
    <path
        d="M249.385 104.252C248.607 104.177 247.829 104.135 247.043 104.12C245.222 103.907 243.36 103.78 242.43 101.794C246.323 101.836 250.209 101.878 254.528 101.925C253.116 105.064 250.973 103.81 249.385 104.252Z"
        fill="#746014" />
    <path
        d="M212.363 254.914C212.398 251.76 212.445 248.606 212.486 245.452C214.957 244.081 215.928 240.405 219.577 240.844C217.912 245.91 218.145 251.955 212.363 254.914Z"
        fill="#96702E" />
    <path
        d="M204.999 268.822C201.712 266.331 203.188 262.76 202.917 259.582C206.853 259.048 207.548 262.128 204.999 268.822Z"
        fill="#815F14" />
    <path
        d="M365.587 74.5868C369.506 74.656 373.093 75.3539 374.918 79.4466C371.081 79.2186 367.834 77.8656 365.587 74.5868Z"
        fill="#785E0A" />
    <path
        d="M468.315 156.13C469.209 152.24 470.103 148.349 470.997 144.459C478.889 148.212 470.903 156.151 475.312 160.825C474.579 160.896 473.846 160.928 473.108 160.92C471.59 160.911 470.08 160.907 468.562 160.898C467.021 159.39 467.099 157.794 468.308 156.136L468.315 156.13Z"
        fill="#C1A55B" />
    <path
        d="M468.309 156.129C468.392 157.714 468.474 159.306 468.563 160.89C468.223 163.442 468.552 166.221 466.176 168.099C466.433 164.028 464.671 159.597 468.309 156.129Z"
        fill="#A88C3C" />
    <path
        d="M345.12 223.387C344.752 218.651 345.875 214.51 349.881 211.526C352.555 217.185 348.794 220.265 345.12 223.387Z"
        fill="#9B7529" />
    <path
        d="M104.109 213.708C105.718 214.478 107.334 215.247 108.942 216.017C110.642 217.047 112.314 218.09 111.322 220.542C105.314 217.961 98.1988 219.893 92.5319 215.918C96.5631 216.082 100.5 215.785 104.103 213.715L104.109 213.708Z"
        fill="#8E7B40" />
    <path
        d="M111.323 220.54C110.528 219.034 109.732 217.528 108.943 216.016C111.348 215.177 113.753 214.338 116.158 213.499C117.03 212.896 117.74 213.05 118.289 213.961C116.721 216.187 115.16 218.419 113.592 220.645C112.833 220.65 112.074 220.622 111.323 220.54Z"
        fill="#7B692F" />
    <path
        d="M118.298 213.961C117.595 213.76 116.884 213.606 116.167 213.499C115.636 206.558 122.791 207.734 125.728 204.458C129.003 204.394 131.257 205.823 132.341 208.969C128.367 210.27 124.044 210.683 120.705 213.575C119.905 213.699 119.105 213.83 118.305 213.961L118.298 213.961Z"
        fill="#BCAA78" />
    <path
        d="M448.572 40.1365C448.154 44.9237 446.21 46.8458 441.043 45.2457C437.832 44.2525 433.229 44.7016 431.909 41.8256C431.044 39.9461 432.434 35.1495 437.041 34.9733C438.477 35.1353 439.906 35.3039 441.335 35.4658C443.747 37.0227 446.16 38.573 448.565 40.1298L448.572 40.1365Z"
        fill="#C3A16B" />
</svg>
