<svg width="752" height="1475" viewBox="0 0 752 1475" fill="none" xmlns="http://www.w3.org/2000/svg">
<path d="M376.896 590.912C484.157 882.291 475.079 1161.93 330.428 1441.03C323.634 1454.15 343.368 1464.83 352.177 1454.04C528.42 1238.71 592.361 803.184 415.571 569.246C400.093 548.796 368.153 567.145 376.896 590.912Z" fill="#7EA567"/>
<path d="M657.908 92.9825C666.463 81.7651 716.038 5.22705 742.371 12.9664C710.895 111.67 711.867 217.013 688.138 317.355C657.994 445.172 573.586 556.022 438.187 580.742C308.913 604.179 186.545 530.885 137.458 411.179C98.6919 316.801 92.8363 198.15 12.4808 126.057L13.0755 124.7C37.5598 135.151 62.2705 144.883 87.0111 154.726C95.9267 158.267 114.651 170.022 126.027 167.992C155.106 162.956 171.174 101.086 194.561 107.219C213.184 112.113 219.434 155.782 244.468 152.189C265.947 149.19 287.141 107.57 300.544 85.8295C317.217 99.991 333.89 114.152 350.563 128.314C350.117 132.686 354.982 136.534 359.082 134.177C365.987 135.802 372.758 128.656 370.655 122.151C392.285 98.9246 413.501 75.2698 434.747 51.7268C444.013 76.9179 457.475 98.7683 475.498 119.756C478.577 123.423 485.3 122.581 488.288 119.204C512.856 90.3982 537.435 61.4097 562.002 32.6038C578.924 61.5538 608.911 119.589 636.827 113.786C647.554 111.57 652.077 100.954 658.091 92.9935L657.908 92.9825Z" fill="#FECD69"/>
<path d="M406.831 605.168C406.831 605.168 600.073 567.988 630.644 504.909C661.395 441.965 418.989 582.139 418.989 582.139C418.989 582.139 565.86 443.473 558.862 401.602C551.865 359.731 400.906 553.954 400.906 553.954C400.906 553.954 415.343 351.989 381.603 327.026C348.18 302.018 358.966 540.328 358.966 540.328C358.966 540.328 203.989 376.463 193.325 404.274C182.662 432.085 361.314 581.257 361.314 581.257C361.314 581.257 151.002 489.841 156.958 528.96C162.734 567.945 277.572 595.252 406.65 605.033L406.831 605.168Z" fill="#7EA567"/>
<path d="M281.047 1077.13C275.024 1140.24 327.539 1207.64 354.549 1233.46C396.18 1273.24 412.819 1253.85 414.97 1244.05C470.903 1191.27 352.158 1066.38 289.652 1015.82C289.293 1009.96 287.071 1014.03 281.047 1077.13Z" fill="#7EA567"/>
<path d="M639.678 759.338C599.881 787.545 525.648 838.024 507.703 870.795C480.046 921.305 472.065 947.375 482.088 946.916C547.544 987.283 649.222 851.188 681.876 777.727C688.804 753.478 691.396 722.682 639.678 759.338Z" fill="#7EA567"/>
</svg>
