<svg width="918" height="1825" viewBox="0 0 918 1825" fill="none" xmlns="http://www.w3.org/2000/svg">
<path d="M397.047 384.055C530.43 478.173 717.166 771.269 397.047 1190.7C76.9278 1610.14 153.185 1774.66 231.329 1804.5" stroke="#60AB73" stroke-width="42.7287"/>
<path d="M843.389 1136.45C705.228 1089.09 496.626 1169.29 422.288 1216.35C197.459 1361.08 254.573 1412.17 311.233 1419.63C667.333 1440.16 822.84 1240.09 843.389 1136.45Z" fill="#60AB73"/>
<path d="M175.832 714.338C134.422 824.669 204.549 991.251 245.694 1050.62C372.241 1230.16 416.911 1184.55 423.427 1139.3C441.381 854.93 266.448 730.747 175.832 714.338Z" fill="#60AB73"/>
<path d="M273.479 886.984C295.903 924.28 367.491 1052.08 369.33 1091.39" stroke="#45A079" stroke-width="5.77415" stroke-linecap="round"/>
<g clip-path="url(#clip0_4168_666)">
<path d="M644.089 752.275C675.912 686.266 658.891 606.328 620.596 546.757C666.638 563.596 717.444 569.451 765.632 565.232C821.567 560.359 880.993 537.338 906.269 483.658C919.943 454.672 919.58 420.85 913.288 390.082C905.941 354.187 891.831 317.746 868.191 289.415C828.186 241.481 765.487 230.68 706.497 240.318C652.491 249.155 600.375 271.922 553.532 301.016C572.626 257.411 579.208 208.204 574.153 161.035C568.08 104.373 541.749 46.1471 489.96 17.8525C462.502 2.83242 431.08 -1.2772 400.203 1.45043C381.001 3.15974 362.489 8.32404 344.051 13.7066C328.121 18.3617 312.883 25.2353 299.172 34.582C277.278 49.5294 263.277 72.3323 258.767 98.2993C254.148 124.775 259.967 152.161 267.859 177.437C282.006 222.824 305.719 264.284 328.812 305.599C327.249 305.235 325.648 304.908 324.012 304.617C323.757 304.58 323.539 304.58 323.284 304.544C308.664 279.923 234.982 260.538 221.853 257.265C198.941 251.555 175.738 246.755 152.099 249.373C116.203 253.374 81.8351 270.467 55.1771 294.47C27.7917 319.128 8.662 351.968 2.15207 388.337C-4.24876 424.159 4.04322 464.346 21.0272 496.242C52.013 554.504 115.767 575.161 178.248 574.543C238.91 573.961 300.409 557.886 356.525 533.774C327.83 586.944 312.519 649.207 316.447 708.96C318.593 741.437 328.412 774.059 348.779 799.808C370.818 827.666 404.058 842.286 438.572 847.159C518.364 858.434 607.576 827.884 644.017 752.275H644.089Z" fill="#FFDB8A"/>
<path d="M595.173 480.359C609.102 452.537 607.611 420.387 598.155 391.474C591.5 371.145 579.571 352.778 563.86 338.304C554.404 329.612 542.148 322.12 529.237 318.847C505.634 302.627 472.03 305.027 445.008 312.628C406.167 323.611 378.309 353.833 368.344 392.82C351.432 459.229 390.565 530.656 458.683 544.658C511.744 555.568 570.77 529.019 595.173 480.322V480.359Z" fill="#45A079"/>
<path d="M662.313 402.738C681.698 392.955 700.864 382.99 719.994 372.661C741.887 360.805 763.017 354.114 788.002 358.078C811.351 361.751 835.099 376.662 826.225 403.247C810.951 448.999 757.344 449.362 718.212 442.961C697.263 439.543 676.788 433.578 656.567 427.25C648.021 424.559 639.11 421.031 630.055 418.449C641.365 415.503 653.512 407.139 662.277 402.738H662.313Z" fill="white"/>
<path d="M430.899 259.265C421.116 239.88 411.151 220.714 400.823 201.585C388.967 179.691 382.275 158.561 386.239 133.576C389.912 110.227 404.823 86.4788 431.408 95.3527C477.16 110.627 477.523 164.234 471.123 203.367C467.704 224.315 461.74 244.79 455.411 265.011C452.72 273.557 449.192 282.468 446.61 291.523C443.665 280.213 435.3 268.066 430.899 259.301V259.265Z" fill="white"/>
<path d="M301.935 425.219C282.55 435.002 263.384 444.967 244.254 455.296C222.361 467.152 201.231 473.844 176.246 469.88C152.897 466.207 129.149 451.295 138.023 424.71C153.297 378.959 206.904 378.595 246.037 384.996C266.985 388.415 287.46 394.379 307.681 400.707C316.227 403.398 325.138 406.926 334.193 409.508C322.883 412.454 310.736 420.819 301.971 425.219H301.935Z" fill="white"/>
<path d="M493.375 612.364C503.158 631.748 513.123 650.915 523.451 670.044C535.307 691.938 541.999 713.068 538.035 738.053C534.362 761.402 519.451 785.15 492.866 776.276C447.114 761.002 446.75 707.395 453.151 668.262C456.57 647.314 462.534 626.839 468.862 606.618C471.554 598.071 475.081 589.161 477.664 580.105C480.609 591.416 488.974 603.563 493.375 612.328V612.364Z" fill="white"/>
<path d="M554.66 375.863C562.624 370.481 562.661 359.898 558.151 352.369C555.751 348.333 551.386 346.405 547.022 346.369C540.694 344.914 534.111 347.714 530.002 352.66C524.51 359.316 526.365 368.917 532.075 374.7C538.185 380.846 547.786 380.519 554.623 375.9L554.66 375.863Z" fill="white"/>
<path d="M514.332 343.578C515.641 335.14 510.586 328.958 503.93 326.266C500.585 321.43 494.438 319.829 488.001 322.048C479.564 324.957 474.763 334.013 475.418 342.56C476.181 352.306 484.983 359.325 494.366 360.053C504.803 360.853 512.768 353.725 514.332 343.578Z" fill="white"/>
<path d="M507.933 396.66C515.388 392.659 520.625 383.967 515.607 376.002C512.77 371.493 506.187 369.674 501.205 369.892C494.804 370.183 490.04 375.711 488.876 381.639C487.748 387.386 490.549 392.004 494.731 394.659C495.204 395.241 495.713 395.823 496.404 396.296C499.786 398.733 504.296 398.623 507.933 396.66Z" fill="white"/>
<path d="M565.683 415.259C570.811 405.585 564.919 393.474 555.427 389.219C550.335 386.964 544.807 388.055 541.061 392.165C537.206 396.42 537.424 403.766 538.261 409.003C538.843 412.858 540.734 416.532 543.898 418.277C545.971 420.932 548.662 422.932 552.19 423.623C558.082 424.787 563.173 420.059 565.719 415.259H565.683Z" fill="white"/>
<path d="M448.218 349.578C451.891 346.196 454.109 341.65 453.564 336.595C452.982 331.139 448.545 327.175 443.308 326.339C440.107 325.793 437.125 326.63 434.507 328.194C433.707 328.557 432.943 328.957 432.215 329.394C428.179 331.94 426.142 336.74 426.106 341.323C426.033 346.123 429.633 351.106 434.143 352.706C439.016 354.379 444.435 353.033 448.218 349.578Z" fill="white"/>
<path d="M472.034 389.977C478.326 386.195 480.762 378.448 478.799 371.575C476.689 364.301 469.415 360.664 462.215 361.501C459.232 361.828 456.468 363.065 454.25 364.883C454.032 364.992 453.813 365.065 453.595 365.21C449.195 367.793 447.74 373.684 447.704 378.376C447.667 383.031 449.813 387.977 453.704 390.668C459.305 394.56 466.47 393.359 472.034 389.977Z" fill="white"/>
<path d="M422.687 392.849C424.396 391.758 425.888 390.304 426.833 388.703C427.633 387.576 428.361 386.339 428.87 384.994C431.306 378.593 429.779 370.374 423.887 366.373C418.978 363.027 412.722 362.809 407.303 364.955C400.903 367.464 397.629 373.283 397.557 379.902C397.557 382.63 398.357 385.03 399.739 387.067C401.775 391.94 406.43 395.468 411.995 395.868C415.923 396.159 419.669 395.031 422.724 392.886L422.687 392.849Z" fill="white"/>
<path d="M459.237 435.989C462.583 425.188 457.855 414.75 448.363 409.113C437.962 402.967 426.07 407.586 420.614 417.841C418.359 422.06 418.141 426.752 419.341 431.007C419.632 439.226 426.688 447.045 434.071 449.736C444.726 453.591 456.073 446.318 459.274 435.989H459.237Z" fill="white"/>
<path d="M395.918 431.255C400.61 429.145 403.483 424.563 403.41 419.035C403.337 411.325 397.737 405.215 390.427 403.651C383.553 402.197 376.207 406.488 373.697 412.889C371.151 419.435 373.37 429.291 379.407 433.328C385.008 437.11 391.336 435.437 395.918 431.255Z" fill="white"/>
<path d="M515.748 429.047C517.821 420.101 511.893 411.009 503.31 408.172C494.654 405.299 485.126 409.336 480.689 417.191C477.27 423.265 478.434 430.502 482.507 435.703C485.417 441.194 491.272 444.94 498.036 444.54C506.51 443.995 513.857 437.23 515.748 429.047Z" fill="white"/>
<path d="M548.043 463.559C554.59 460.322 555.572 452.503 551.898 446.757C548.552 441.52 541.752 439.592 536.114 442.029C533.423 443.193 531.75 445.92 532.078 448.83C532.15 449.375 532.259 449.921 532.332 450.466C531.641 453.23 532.114 456.394 533.787 459.086C536.624 463.704 543.097 465.996 548.043 463.559Z" fill="white"/>
<path d="M586.234 395.694C588.38 394.276 590.525 391.875 591.471 389.439C592.271 387.439 592.635 384.784 591.58 382.783C590.162 380.128 588.016 378.383 584.961 377.983C582.852 377.692 580.742 377.983 578.742 378.492C576.96 378.928 575.542 379.437 574.378 380.929C573.323 382.274 572.814 384.02 573.032 385.729C573.105 386.238 573.25 386.748 573.432 387.257C572.923 389.148 572.959 391.184 573.687 393.039C574.923 396.312 578.16 397.694 581.433 397.585C583.179 397.513 584.925 396.494 586.307 395.585L586.234 395.694Z" fill="white"/>
<path d="M590.702 455.737C593.466 454.319 595.83 451.846 597.248 448.427C597.43 447.991 597.539 447.518 597.648 447.082C597.757 446.9 597.83 446.754 597.903 446.573C598.666 445.045 598.739 443.59 598.412 442.318C598.521 437.117 596.484 431.88 592.411 428.643C587.792 424.97 580.773 424.57 575.572 427.225C569.063 430.571 566.226 437.044 566.626 444.209C567.062 452.173 572.918 460.065 581.501 459.483C584.956 459.265 588.047 457.847 590.665 455.737H590.702Z" fill="white"/>
<path d="M568.737 497.637C573.319 489.745 566.373 476.434 556.553 478.907C553.753 479.598 551.753 480.507 549.789 482.762C548.261 484.508 547.352 487.126 547.17 489.381C546.734 494.473 549.28 499.31 553.898 501.092C554.408 501.492 554.953 501.892 555.571 502.183C560.408 504.583 566.191 501.965 568.737 497.637Z" fill="white"/>
<path d="M532.992 478.585C530.046 472.767 523.79 470.221 517.644 470.657C514.48 470.584 511.352 471.239 509.061 472.403C500.915 476.767 499.424 486.623 503.824 494.297C513.025 510.408 541.211 494.878 532.955 478.585H532.992Z" fill="white"/>
<path d="M488.731 464.464C488.731 462.137 487.53 459.955 485.785 458.391C483.748 455.627 480.439 454.281 476.802 454.281C472.619 454.281 468.946 457.591 467.019 460.973C462.654 468.683 470.037 477.521 478.147 476.939C484.475 476.502 488.658 470.32 488.731 464.464Z" fill="white"/>
<path d="M489.308 527.096C495.746 521.786 497.71 512.621 495.018 504.947C492.509 497.783 485.126 493.2 477.671 493.855C467.451 494.764 455.413 511.057 465.487 519.24C469.524 528.332 480.362 534.515 489.308 527.096Z" fill="white"/>
<path d="M411.195 468.673C419.123 464.491 418.396 451.834 410.286 448.161C408.904 447.543 407.376 447.216 405.885 447.216C404.758 446.634 403.521 446.343 402.212 446.634C397.629 447.688 394.283 449.798 392.974 454.526C392.647 455.617 392.647 456.78 392.901 457.944C392.647 461.617 394.902 465.145 397.811 467.182C399.157 468.127 400.757 468.564 402.284 468.491C405.194 469.764 408.431 470.128 411.195 468.673Z" fill="white"/>
<path d="M442.578 498.695C445.742 493.239 445.851 485.493 442.287 480.183C437.705 473.346 429.194 474.11 422.83 477.746C420.466 479.092 418.939 480.765 418.029 482.62H417.993C414.538 486.984 414.574 492.767 415.993 497.822C417.375 502.732 421.703 506.732 426.758 507.532C433.086 508.587 439.559 503.895 442.578 498.695Z" fill="white"/>
</g>
<defs>
<clipPath id="clip0_4168_666">
<rect width="917.427" height="848.8" fill="white" transform="translate(0.0478516 0.652344)"/>
</clipPath>
</defs>
</svg>
