<svg width="1092" height="2036" viewBox="0 0 1092 2036" fill="none" xmlns="http://www.w3.org/2000/svg">
<path d="M781.019 1269.9C658.862 1228.02 474.423 1298.94 408.695 1340.55C209.908 1468.51 260.406 1513.69 310.503 1520.28C625.357 1538.43 762.851 1361.53 781.019 1269.9Z" fill="#60AB73"/>
<path d="M13.7046 498.392C-28.1713 620.685 42.7447 805.328 84.3521 871.129C212.322 1070.14 257.493 1019.58 264.083 969.429C282.239 654.227 105.339 516.581 13.7046 498.392Z" fill="#60AB73"/>
<path d="M535.035 522.066C393.569 670.847 135.233 1050.86 233.625 1380.68C332.016 1710.5 274.621 1949.24 233.625 2027.39" stroke="#60AB73" stroke-width="33.4901"/>
<path d="M1089.64 662.44C1100.75 595.224 1068.25 521.947 1007.96 479.616C992.078 468.413 975.595 459.827 958.654 453.17C949.012 449.359 939.187 446.145 929.178 443.62C937.763 439.855 946.441 435.953 954.935 431.913C969.994 424.566 985.834 414.925 1001.17 403.768C1061.22 359.233 1111.77 287.976 1071.32 220.026C1067.37 213.277 1062.6 206.573 1056.72 200.054C1053.23 196.105 1049.79 192.524 1046.07 189.173C981.243 129.257 889.096 158.87 817.243 197.85C821.696 184.535 824.359 170.257 825.323 155.794C826.563 136.465 824.635 116.631 819.538 97.99C808.841 58.1379 783.864 23.4279 745.619 8.46041C734.141 3.91506 721.515 1.25213 707.603 0.747087C704.665 0.609349 701.727 0.655262 698.788 0.747087C627.256 3.27228 580.976 71.9576 554.577 133.94C551.546 140.918 548.792 147.943 546.404 154.646C544.843 158.824 543.466 162.956 542.042 166.997C536.625 152.902 529.646 139.082 520.739 125.584C519.683 123.931 518.581 122.461 517.387 120.946C487.544 79.7627 434.653 51.6183 383.965 52.7202C373.176 52.9038 362.478 54.4189 352.148 57.4492C334.931 62.4996 318.586 71.6821 304.399 85.7773C228.918 160.707 277.907 295.598 325.978 371.767C364.177 432.372 416.242 481.452 479.326 510.607C479.877 510.882 480.519 511.112 481.025 511.387C485.616 513.499 490.253 515.474 494.936 517.448C497.186 522.314 499.39 527.181 501.777 531.956C505.129 538.889 508.618 545.638 512.199 552.387C558.617 637.785 629.598 707.021 716.097 753.025C813.386 804.677 945.339 835.347 1037.12 755.413C1055.99 739.068 1069.53 720.198 1078.49 700.042C1083.9 687.875 1087.53 675.295 1089.69 662.44H1089.64Z" fill="#FFC543"/>
<path d="M913.531 628.438C921.163 582.269 898.836 531.938 857.429 502.862C846.518 495.167 835.196 489.27 823.56 484.697C816.937 482.08 810.188 479.872 803.314 478.138C809.211 475.552 815.171 472.871 821.005 470.096C831.349 465.05 842.229 458.428 852.762 450.765C894.011 420.175 928.732 371.231 900.949 324.558C898.237 319.922 894.957 315.318 890.92 310.84C888.524 308.128 886.158 305.668 883.604 303.366C839.075 262.212 775.783 282.552 726.429 309.326C729.488 300.181 731.317 290.373 731.979 280.439C732.831 267.163 731.506 253.539 728.006 240.736C720.658 213.362 703.502 189.521 677.233 179.241C669.349 176.118 660.677 174.289 651.121 173.943C649.103 173.848 647.085 173.879 645.066 173.943C595.934 175.677 564.145 222.855 546.012 265.428C543.931 270.222 542.039 275.047 540.399 279.651C539.327 282.521 538.381 285.359 537.403 288.134C533.682 278.453 528.888 268.96 522.77 259.689C522.045 258.553 521.288 257.544 520.468 256.504C499.97 228.216 463.64 208.884 428.825 209.641C421.414 209.767 414.066 210.808 406.97 212.889C395.144 216.358 383.918 222.665 374.173 232.347C322.328 283.814 355.977 376.466 388.995 428.784C415.233 470.412 450.995 504.123 494.325 524.149C494.703 524.338 495.145 524.496 495.492 524.685C498.645 526.135 501.83 527.492 505.047 528.848C506.592 532.19 508.106 535.533 509.746 538.813C512.048 543.575 514.445 548.211 516.905 552.846C548.787 611.503 597.542 659.059 656.955 690.658C723.78 726.136 814.414 747.202 877.454 692.298C890.416 681.071 899.719 668.11 905.868 654.266C909.59 645.909 912.081 637.268 913.563 628.438H913.531Z" fill="#FFE3A6"/>
</svg>
