<svg width="812" height="946" viewBox="0 0 812 946" fill="none" xmlns="http://www.w3.org/2000/svg">
<path d="M496.816 868.85C496.816 868.85 294.865 959.743 142.392 695.58C418.889 663.945 496.816 868.85 496.816 868.85Z" fill="#1A5A6D"/>
<path d="M195.439 723.743C195.439 723.743 331.396 801.79 459.764 855.136" stroke="#217E85" stroke-width="9.07403" stroke-miterlimit="10" stroke-linecap="round"/>
<path d="M328.182 311.118C328.182 311.118 434.904 363.604 499.296 229.726C373.872 190.815 328.182 311.118 328.182 311.118Z" fill="#FF907F"/>
<path d="M324.709 432.419C324.709 432.419 431.431 484.905 495.822 351.027C370.399 312.115 324.709 432.419 324.709 432.419Z" fill="#FF907F"/>
<path d="M339.88 585.971C339.88 585.971 457.764 601.742 476.211 454.392C344.935 457.373 339.88 585.971 339.88 585.971Z" fill="#FF907F"/>
<path d="M392.271 720.932C392.271 720.932 510.149 705.084 489.082 558.085C363.262 595.53 392.271 720.932 392.271 720.932Z" fill="#FF907F"/>
<path d="M395.774 717.227C395.774 717.227 337.473 613.545 208.646 687.434C289.992 790.537 395.774 717.227 395.774 717.227Z" fill="#FF907F"/>
<path d="M347.587 582.263C347.587 582.263 315.109 467.836 172.572 509.664C227.569 628.868 347.587 582.263 347.587 582.263Z" fill="#FF907F"/>
<path d="M326.409 432.474C326.409 432.474 330.836 324.566 196.075 320.254C209.757 438.617 326.409 432.474 326.409 432.474Z" fill="#FF907F"/>
<path d="M331.142 312.525C331.142 312.525 367.145 210.699 239.611 166.947C217.854 284.091 331.142 312.525 331.142 312.525Z" fill="#FF907F"/>
<path d="M475.823 855.865C475.823 855.865 205.05 520.331 384.927 139.769" stroke="#1A6D7B" stroke-width="18.3634" stroke-miterlimit="10" stroke-linecap="round"/>
<path d="M362.311 188.742C362.311 188.742 455.622 176.895 439.8 60.5402C340.108 89.453 362.311 188.742 362.311 188.742Z" fill="#FF907F"/>
<path d="M477.092 883.197C477.092 883.197 386.2 681.246 650.363 528.772C681.997 805.27 477.092 883.197 477.092 883.197Z" fill="#1A5A6D"/>
<path d="M622.196 581.818C622.196 581.818 544.149 717.774 490.803 846.143" stroke="#217E85" stroke-width="9.07403" stroke-miterlimit="10" stroke-linecap="round"/>
</svg>
