<svg width="920" height="1104" viewBox="0 0 920 1104" fill="none" xmlns="http://www.w3.org/2000/svg">
<path d="M49.1556 1102.94C219.737 977.146 325.828 834.814 390.908 715.573C512.774 492.565 521.642 299.603 521.754 297.585L505.746 296.969C505.722 298.791 496.83 488.686 376.467 708.567C312.444 825.466 208.54 965.027 41.5113 1088.66" fill="#67AAA7"/>
<path d="M443.853 587.129C525.92 593.103 634.362 379.156 625.901 307.678C624.538 299.774 600.235 299.964 597.511 284.252C594.055 264.542 603.117 246.736 600.393 231.023C600.2 206.679 600.644 186.336 592.657 163.352C584.382 116.028 565.496 54.4527 542.176 13.9525C474.756 115.07 385.664 207.836 357.785 326.284C338.239 423.025 399.208 493.586 429.344 573.51" fill="#97B4B3"/>
<path d="M383.546 703.696C425.051 715.006 471.819 626.59 492.642 601.226C532.039 556.532 612.581 475.128 674.54 471.155C677.431 503.256 847.347 496.76 874.958 507.658C922.129 529.195 885.769 544.048 863.027 569.296C838.142 598.462 835.333 624.363 798.766 641.238C813.992 665.758 795.957 667.139 779.676 676.601C753.281 691.733 745.472 685.425 742.534 715.358C739.87 735.213 751.593 743.668 740.974 763.261C726.302 786.848 696.027 795.806 669.926 798.942C575.682 811.856 492.87 777.244 408.252 740.499L383.451 703.7L383.546 703.696Z" fill="#7DABA9"/>
<path d="M382.923 721.835C343.831 703.719 364.673 605.873 365.009 573.071C363.621 513.491 354.149 399.293 309.196 356.288C286.256 378.955 160.298 264.548 132.17 255.109C82.2388 241.254 100.547 276.008 101.789 309.994C102.153 348.426 87.6923 370.088 104.819 406.421C77.4185 415.458 90.3577 428.083 96.7041 445.858C107.306 474.491 117.267 474.674 100.347 499.5C89.6229 516.413 75.2246 515.35 70.7246 537.195C67.0203 564.665 84.332 591.116 102.313 610.255C166.252 680.891 251.816 707.628 340.235 733.965L382.824 721.743L382.923 721.835Z" fill="#7DABA9"/>
<path d="M143.554 315.634C143.554 315.634 164.882 337.134 192.528 373.245C199.487 382.271 206.767 392.147 214.085 402.981C221.494 413.715 228.937 425.31 236.124 437.683C239.809 443.77 243.41 450.148 246.732 456.728C250.237 463.11 253.566 469.882 256.612 476.761C259.942 483.533 262.801 490.515 265.572 497.692C268.625 504.763 270.831 512.154 273.127 519.446C277.725 534.126 281.455 548.648 285.655 562.96C289.756 577.18 293.754 591.212 298.111 604.655C306.628 631.356 315.826 655.922 327.076 674.271C332.422 683.648 338.641 690.881 344.237 696.893C347.4 699.453 350.09 702.127 352.94 704.028C355.879 705.734 358.351 707.746 360.98 708.889C363.513 710.036 365.848 710.999 367.893 711.877C369.93 712.564 371.856 712.872 373.308 713.294C376.209 714.042 377.757 714.461 377.757 714.461L373.429 735.82C373.429 735.82 371.396 735.229 367.425 734.043C365.484 733.352 363.068 732.776 360.347 731.732C357.715 730.494 354.688 728.983 351.272 727.296C347.856 725.609 344.593 722.957 340.852 720.324C337.203 717.591 333.907 714.077 330.132 710.583C323.421 702.985 316.553 693.86 311.158 683.238C299.611 662.217 291.416 636.365 283.917 608.761C280.213 594.909 276.781 580.663 273.242 566.133C269.707 551.699 266.627 536.672 262.809 522.345C260.902 515.23 259.087 508.014 256.419 501.025C254.038 494.024 251.561 487.026 248.614 480.239C245.854 473.349 242.915 466.754 239.784 460.165C236.845 453.57 233.626 447.177 230.224 440.983C223.702 428.489 216.825 416.679 209.982 405.731C203.134 394.687 196.417 384.501 189.928 375.265C164.06 338.125 143.745 315.627 143.745 315.627L143.554 315.634Z" fill="#408C86"/>
<path d="M369.889 711.794C369.889 711.794 371.793 711.527 375.321 711.196C378.937 710.67 384.266 709.885 391.017 708.757C404.515 706.404 423.882 702.382 446.594 695.831C469.307 689.281 495.557 680.194 522.332 667.444C535.672 661.07 549.364 653.916 562.438 645.636C569.072 641.539 575.702 637.348 582.023 632.593C588.356 628.125 594.96 623.263 601.373 618.409C607.686 613.462 614.302 608.888 621.116 604.497C627.727 599.826 634.652 595.815 641.477 591.711C655.131 583.599 669.114 576.53 682.836 570.141C696.665 564.036 710.234 558.612 723.37 554.356C736.506 550.1 749.095 546.537 760.962 544.056C772.725 541.388 783.665 539.711 793.386 538.657C803.107 537.604 811.612 537.269 818.703 537.469C825.697 537.673 831.263 538.03 834.932 538.844C838.593 539.467 840.619 539.867 840.619 539.867C840.619 539.867 838.597 539.563 834.939 539.035C831.278 538.413 825.72 538.248 818.729 538.139C811.745 538.222 803.248 538.749 793.538 540.09C783.924 541.427 773.087 543.291 761.53 546.335C749.866 549.095 737.483 553.034 724.553 557.665C711.623 562.297 698.353 567.996 684.825 574.473C671.401 581.137 657.812 588.479 644.647 596.859C638.02 601.147 631.386 605.243 625.065 609.998C618.641 614.565 612.22 619.228 606.01 624.362C593.562 633.96 581.275 645.182 567.933 653.952C554.901 663.286 541.438 671.39 528.04 678.724C501.241 693.297 474.875 704.306 451.841 712.403C428.711 720.504 409.007 725.69 395.069 729.019C388.05 730.637 382.545 731.813 378.745 732.538C374.85 733.266 372.759 733.636 372.759 733.636L369.801 711.989L369.889 711.794Z" fill="#408C86"/>
<path d="M517.182 137.663C517.182 137.663 518.874 166.071 518.544 208.748C518.329 230.041 517.875 254.986 516.434 281.601C515.093 308.307 512.859 336.678 509.862 365.079C508.026 379.245 506.669 393.392 504.536 407.282C502.307 421.176 500.648 434.951 498.007 448.094C495.366 461.237 493.382 474.066 490.409 486.072C487.532 498.074 485.304 509.57 482.263 519.853C479.322 530.227 476.633 539.729 474.285 548.162C471.842 556.6 469.062 563.804 467.094 569.73C462.971 581.685 460.654 588.487 460.654 588.487L440.519 580.267C440.519 580.267 443.038 573.745 447.57 562.445C449.74 556.798 452.726 549.97 455.567 541.9C458.312 533.835 461.302 524.705 464.641 514.698C467.984 504.787 470.704 493.655 474.17 482.013C477.64 470.467 480.208 457.903 483.434 445.024C486.759 432.238 489.003 418.727 491.816 405.098C494.63 391.469 496.568 377.491 499.08 363.49C503.338 335.518 507.016 307.378 509.516 280.914C512.207 254.443 513.815 229.644 515.085 208.405C517.429 165.84 517.174 137.471 517.174 137.471L517.182 137.663Z" fill="#408C86"/>
</svg>
