<svg width="331" height="333" viewBox="0 0 331 333" fill="none" xmlns="http://www.w3.org/2000/svg">
    <path
        d="M316.744 178.802C311.706 178.735 307.137 181.857 303.814 185.636C295.68 194.868 293.281 207.585 285.711 217.192C277.724 227.349 265.37 232.227 255.655 240.602C249.317 246.069 243.367 252.728 241.022 260.956C240.594 262.457 240.42 263.998 240.379 265.579C239.75 263.529 239.133 261.478 238.463 259.442C236.118 252.273 233.519 245.184 230.705 238.203C236.346 225.42 251.97 219.993 262.288 211.712C275.018 201.501 284.679 187.432 289.395 171.794C291.017 166.421 292.062 160.592 290.307 155.272C288.565 149.939 283.232 145.45 277.698 146.348C267.554 147.983 265.986 161.758 266.388 169.824C266.924 180.37 261.953 187.19 253.524 193.756C249.84 196.637 245.887 199.237 242.148 202.051C238.785 204.583 235.609 207.303 232.956 210.559C229.807 214.419 228.507 220.18 228.145 225.018C227.931 227.859 228.842 231.557 229.392 235.001C225.425 225.433 221.03 216.053 216.22 206.888C217.962 201.407 221.111 196.691 222.879 191.063C225.063 184.095 227.851 176.243 232.071 170.186C237.056 163.017 244.265 158.22 248.339 150.194C252.6 141.792 253.484 131.046 248.178 123.26C247.428 122.161 246.49 121.076 245.217 120.701C243.086 120.058 240.821 121.652 239.816 123.635C238.812 125.619 238.691 127.923 238.316 130.108C235.274 147.862 215.751 158.783 211.262 176.229C209.265 183.961 210.418 192.014 212.401 199.786C204.347 185.261 195.249 171.325 185.172 158.1C186.043 152.217 189.956 147.299 193.105 142.328C204.173 124.841 221.807 112.313 234.658 96.1794C237.646 92.4141 240.634 88.488 242.054 83.8919C244.145 77.1518 242.59 69.6747 239.147 63.5109C236.252 58.3386 231.495 53.6085 225.586 53.1395C217.332 52.4963 210.779 60.2547 207.965 68.04C206.036 73.3597 205.125 79.0546 205.285 84.7092C205.594 95.1074 204.374 100.99 200.14 110.464C196.308 119.039 189.527 125.324 184.837 133.444C180.871 140.305 181.26 148.425 183.605 156.036C182.064 154.039 180.496 152.056 178.901 150.087C174.051 144.097 168.999 138.268 163.746 132.613C161.803 121.116 167.552 105.372 172.483 96.367C175.994 89.9619 191.189 66.8876 173.461 65.0652C169.267 64.6364 165.528 67.7854 163.09 71.2291C150.936 88.3942 156.484 112.996 163.09 131.93C154.956 123.22 146.353 114.952 137.335 107.167C135.232 97.774 137.094 86.5182 138.113 78.1166C138.528 74.7532 139.104 71.4703 139.707 68.241C141.865 56.8646 144.464 46.051 142.079 33.8305C139.144 18.7558 128.746 4.27069 113.832 0.585763C110.549 -0.23162 106.811 -0.41922 104.05 1.52374C99.6956 4.60568 99.9904 11.1849 101.773 16.2098C105.055 25.5226 111.595 33.2409 117.048 41.4683C129.885 60.8309 125.235 84.1331 133.744 104.099C132.351 100.843 124.78 96.8092 121.939 94.6385C117.732 91.4225 113.444 88.3004 109.089 85.2988C99.8162 78.8938 90.1818 73.4535 80.7216 67.4638C69.1308 60.1341 60.287 49.0392 51.0278 39.11C44.8237 32.4637 37.6415 26.2998 28.945 23.6199C20.2486 20.9399 9.78344 22.4809 3.78036 29.3148C2.1992 31.1103 0.953029 33.2811 0.604636 35.6528C-0.266346 41.6157 4.57095 46.8282 9.50205 50.2987C20.396 57.9634 33.2866 61.9163 46.0967 64.9982C54.8333 67.0886 63.6236 69.1254 72.0118 72.3949C80.7886 75.8252 88.547 80.9841 96.426 86.0626C99.3338 87.9386 102.201 89.8547 105.055 91.8111C107.347 93.3923 110.844 97.171 113.484 97.841C106.556 96.0722 99.6152 96.0588 92.6339 96.836C79.2744 98.2966 64.5749 102.397 51.1082 99.3551C45.8823 98.176 41.2326 95.2816 36.1809 93.4727C31.1426 91.6637 25.0725 91.1277 20.798 94.357C16.8719 97.3184 15.5319 102.933 16.8049 107.69C18.0779 112.447 21.5618 116.373 25.6219 119.147C35.8325 126.114 45.8153 128.433 57.6473 124.252C69.8008 119.951 80.0114 111.509 91.6155 105.881C100.808 101.419 109.477 100.601 118.857 101.888C124.753 106.444 130.502 111.174 136.049 116.145C142.896 122.269 149.476 128.687 155.787 135.36C150.44 132.613 144.598 130.536 138.488 129.129C124.981 126.021 110.469 125.444 96.8548 128.218C87.1802 130.188 66.7859 136.405 66.6385 148.881C66.5715 155.018 72.186 160.176 78.2426 161.181C84.2993 162.186 90.4766 159.842 95.6221 156.505C108.164 148.371 118.348 138.362 134.227 137.049C143.004 136.312 152.397 138.027 160.959 140.961C168.785 149.604 176.154 158.649 183.042 168.069C165.475 158.703 149.998 159.091 131.158 164.397C127.205 165.51 122.716 167.305 121.591 171.258C120.224 176.042 125.168 180.691 130.113 181.16C135.057 181.629 139.801 179.338 144.384 177.422C152.075 174.219 160.262 171.928 168.597 171.754C175.846 171.606 182.077 173.523 188.522 175.801C193.065 182.393 197.366 189.133 201.426 196.034C198.559 193.408 194.914 191.438 190.238 190.138C180.201 187.351 167.699 187.07 158.065 191.518C147.251 196.517 137.148 197.146 125.235 198.701C115.963 199.907 110.389 193.287 101.987 190.647C96.9889 189.08 90.3158 190.433 88.6006 195.391C87.9172 197.374 88.1584 199.558 88.748 201.568C90.4766 207.464 95.0325 212.248 100.366 215.316C105.699 218.385 111.769 219.912 117.825 220.971C128.358 222.793 139.52 223.236 149.435 219.243C160.638 214.74 169.495 204.905 181.313 202.386C192.381 200.027 204.669 205.293 210.592 214.941C210.297 213.467 209.949 212.074 209.587 210.72C209.922 211.363 210.283 212.007 210.618 212.663C214.491 220.18 218.055 227.832 221.338 235.617C217.787 232.535 213.808 229.909 209.694 227.591C202.203 223.383 194.137 220.1 185.722 218.385C183.672 217.97 181.595 217.648 179.504 217.434C175.015 216.965 170.352 217.005 166.172 218.72C159.19 221.587 154.474 230.927 160.195 237.453C165.515 243.523 176.168 239.034 182.667 237.56C199.256 233.821 211.021 240.816 225.425 245.761C229.539 256.494 233.103 267.441 236.065 278.536C233.586 275.227 230.986 272.051 227.851 269.478C221.017 263.85 209.774 259.978 201.051 259.388C193.051 258.839 184.904 261.023 176.985 260.929C174.412 260.902 171.867 260.621 169.361 259.951C161.147 257.726 152.892 251.241 145.094 254.618C140.042 256.815 137.376 262.966 138.421 268.366C139.466 273.766 143.7 278.228 148.739 280.439C157.891 284.459 165.85 281.31 174.694 278.577C184.328 275.602 194.298 273.471 204.414 273.27C215.536 273.056 227.837 276.486 237.271 283.186C241.089 298.381 243.796 313.871 245.324 329.509C245.806 334.427 253.31 332.832 252.828 327.981C251.086 310.2 247.843 292.593 243.166 275.361C244.091 273.337 245.056 271.327 246.181 269.424C253.23 257.552 268.331 245.841 281.195 241.111C298.695 234.666 317.589 224.951 328.04 208.818C334.151 199.384 330.626 178.99 316.677 178.802H316.744Z"
        fill="#75A072" />
</svg>
