<svg width="821" height="1968" viewBox="0 0 821 1968" fill="none" xmlns="http://www.w3.org/2000/svg">
<path d="M374.603 526.648C507.985 620.767 694.722 913.863 374.603 1333.3C54.4835 1752.73 130.741 1917.26 208.884 1947.09" stroke="#60AB73" stroke-width="42.7287"/>
<path d="M619.389 411.941C618.306 374.208 612.429 322.788 595.496 279.487C557.144 169.766 465.98 88.1137 381.931 10.791C356.569 -12.4831 318.371 4.5279 316.284 38.0086C312.804 92.5984 308.319 147.188 304.994 201.855C303.371 200.618 301.824 199.458 300.123 198.376C268.189 161.106 232.775 126.852 193.959 96.3872C171.767 78.9123 139.215 94.5315 145.71 124.455C160.169 191.34 176.407 257.837 192.258 324.412C147.102 285.982 95.8366 255.208 39.7003 234.176C14.6477 224.82 -2.36327 251.806 0.884285 272.992C20.8335 403.358 47.5099 541.302 149.267 634.785C198.908 680.405 296.566 724.015 372.111 708.087C380.229 708.551 388.039 708.628 395.23 708.242C462.191 704.453 520.802 662.699 559.386 610.197C600.599 553.983 621.399 481.609 619.466 411.941H619.389Z" fill="#FFE6E6"/>
<path d="M820.945 1279.04C682.784 1231.68 474.183 1311.88 399.844 1358.94C175.015 1503.67 232.129 1554.76 288.79 1562.22C644.89 1582.75 800.396 1382.68 820.945 1279.04Z" fill="#60AB73"/>
<path d="M153.389 856.928C111.978 967.259 182.106 1133.84 223.251 1193.21C349.798 1372.75 394.467 1327.14 400.984 1281.89C418.938 997.52 244.004 873.337 153.389 856.928Z" fill="#60AB73"/>
<path d="M251.035 1029.58C273.459 1066.87 345.046 1194.68 346.886 1233.98" stroke="#49A460" stroke-width="5.77415" stroke-linecap="round"/>
<path d="M409.824 1477.07C497.995 1462.29 621.102 1358.8 647.719 1366.63" stroke="#49A460" stroke-width="6.92898" stroke-linecap="round"/>
</svg>
