<svg width="966" height="1644" viewBox="0 0 966 1644" fill="none" xmlns="http://www.w3.org/2000/svg">
<path d="M450.64 1120.89C433.229 1055.3 457.895 899.955 472.404 830.48L516.342 854.152C506.35 922.086 488.911 1069.04 499.095 1113.38C511.825 1168.81 475.689 1266.38 467.476 1298.71C459.263 1331.04 450.64 1442.47 467.476 1482.31C480.945 1514.18 494.168 1602.97 499.095 1643.39H467.687C467.653 1643.52 467.58 1643.51 467.476 1643.39H467.687C468.198 1641.5 460.459 1610.51 424.77 1495.01C377.137 1340.86 472.404 1202.87 450.64 1120.89Z" fill="#36A37D"/>
<path d="M931.033 1247.47C931.033 1247.47 814.716 1212.94 642.231 1358.85C469.745 1504.77 463.221 1643.04 463.221 1643.04C463.221 1643.04 600.7 1659.59 773.186 1513.68C945.672 1367.76 931.033 1247.31 931.033 1247.31V1247.47Z" fill="#66C2A2"/>
<path d="M463.221 1643.04C495.841 1612.01 529.256 1582.1 562.83 1552.34C596.404 1522.43 630.456 1493.31 664.666 1464.35C699.036 1435.55 733.406 1406.59 768.412 1378.58L820.922 1336.42C838.743 1322.73 856.246 1308.73 874.386 1295.36C858.156 1310.96 841.448 1325.91 825.059 1341.19L774.777 1386.06C741.203 1415.98 707.151 1445.09 672.941 1474.05C638.571 1502.86 604.201 1531.81 569.195 1559.82C534.188 1587.98 499.182 1615.99 463.221 1643.04Z" fill="#36A37D"/>
<path d="M766.185 1379.23L793.872 1296.96L780.028 1382.57C779.392 1386.55 775.732 1389.09 771.754 1388.45C767.776 1387.82 765.23 1384.16 765.867 1380.18C765.867 1379.86 766.026 1379.38 766.185 1379.07V1379.23Z" fill="#36A37D"/>
<path d="M711.596 1425.34L739.282 1343.08L725.439 1428.68C724.803 1432.66 721.143 1435.21 717.165 1434.57C713.187 1433.94 710.641 1430.28 711.277 1426.3C711.277 1425.98 711.437 1425.5 711.596 1425.18V1425.34Z" fill="#36A37D"/>
<path d="M657.178 1471.53L684.865 1389.27L671.022 1475.03C670.385 1479.01 666.725 1481.55 662.747 1480.92C658.769 1480.28 656.224 1476.62 656.86 1472.64C656.86 1472.33 657.019 1471.85 657.178 1471.53Z" fill="#36A37D"/>
<path d="M602.607 1517.53L630.294 1435.26L616.45 1520.87C615.814 1524.85 612.154 1527.39 608.176 1526.76C604.198 1526.12 601.652 1522.46 602.289 1518.48C602.289 1518.16 602.448 1517.69 602.607 1517.37V1517.53Z" fill="#36A37D"/>
<path d="M548.19 1563.64L575.877 1481.38L562.033 1566.99C561.397 1570.96 557.737 1573.51 553.759 1572.87C549.781 1572.24 547.235 1568.58 547.872 1564.6C547.872 1564.28 548.031 1563.8 548.19 1563.48V1563.64Z" fill="#36A37D"/>
<path d="M773.027 1374.45L859.747 1375.09L773.982 1388.77C770.004 1389.41 766.344 1386.71 765.708 1382.89C765.071 1378.91 767.776 1375.25 771.595 1374.61C771.913 1374.61 772.391 1374.61 772.709 1374.61L773.027 1374.45Z" fill="#36A37D"/>
<path d="M718.609 1420.57L805.329 1421.21L719.563 1434.89C715.585 1435.53 711.926 1432.82 711.289 1429C710.653 1425.03 713.358 1421.37 717.177 1420.73C717.495 1420.73 717.972 1420.73 718.29 1420.73L718.609 1420.57Z" fill="#36A37D"/>
<path d="M664.02 1466.76L750.74 1467.39L664.975 1481.08C660.997 1481.72 657.337 1479.01 656.7 1475.19C656.064 1471.37 658.769 1467.55 662.588 1466.92C662.906 1466.92 663.383 1466.92 663.702 1466.92L664.02 1466.76Z" fill="#36A37D"/>
<path d="M609.603 1512.75L696.323 1513.39L610.558 1527.07C606.58 1527.71 602.92 1525.01 602.283 1521.19C601.647 1517.37 604.352 1513.55 608.171 1512.91C608.489 1512.91 608.966 1512.91 609.285 1512.91L609.603 1512.75Z" fill="#36A37D"/>
<path d="M555.032 1558.87L641.752 1559.51L555.986 1573.19C552.008 1573.83 548.349 1571.12 547.712 1567.3C547.076 1563.33 549.781 1559.67 553.6 1559.03C553.918 1559.03 554.395 1559.03 554.713 1559.03L555.032 1558.87Z" fill="#36A37D"/>
<path d="M0.44302 1247.47C0.44302 1247.47 116.759 1212.94 289.245 1358.85C461.73 1504.77 468.254 1643.04 468.254 1643.04C468.254 1643.04 330.775 1659.59 158.29 1513.68C-14.196 1367.92 0.44302 1247.47 0.44302 1247.47Z" fill="#66C2A2"/>
<path d="M468.249 1643.04C435.629 1612.01 402.214 1582.1 368.64 1552.34C335.066 1522.43 301.014 1493.31 266.803 1464.35C232.434 1435.55 198.064 1406.59 163.058 1378.58L110.548 1336.42C92.7268 1322.73 75.2236 1308.73 57.084 1295.36C73.3142 1310.96 90.0217 1325.91 106.411 1341.19L156.693 1386.06C190.267 1415.98 224.319 1445.09 258.529 1474.05C292.899 1502.86 327.269 1531.81 362.275 1559.82C397.281 1587.98 432.288 1615.99 468.249 1643.04Z" fill="#36A37D"/>
<path d="M165.277 1379.23L137.59 1296.96L151.434 1382.57C152.07 1386.55 155.73 1389.09 159.708 1388.45C163.686 1387.82 166.232 1384.16 165.595 1380.18C165.595 1379.86 165.436 1379.38 165.277 1379.07V1379.23Z" fill="#36A37D"/>
<path d="M219.848 1425.34L192.162 1343.08L206.005 1428.68C206.641 1432.66 210.301 1435.21 214.279 1434.57C218.257 1433.94 220.803 1430.28 220.167 1426.3C220.167 1425.98 220.008 1425.5 219.848 1425.18V1425.34Z" fill="#36A37D"/>
<path d="M274.266 1471.53L246.579 1389.27L260.423 1475.03C261.059 1479.01 264.719 1481.55 268.697 1480.92C272.675 1480.28 275.221 1476.62 274.584 1472.64C274.584 1472.33 274.425 1471.85 274.266 1471.53Z" fill="#36A37D"/>
<path d="M328.854 1517.53L301.167 1435.26L315.011 1520.87C315.647 1524.85 319.307 1527.39 323.285 1526.76C327.263 1526.12 329.809 1522.46 329.173 1518.48C329.173 1518.16 329.013 1517.69 328.854 1517.37V1517.53Z" fill="#36A37D"/>
<path d="M383.273 1563.64L355.586 1481.38L369.429 1566.99C370.066 1570.96 373.726 1573.51 377.704 1572.87C381.682 1572.24 384.227 1568.58 383.591 1564.6C383.591 1564.28 383.432 1563.8 383.273 1563.48V1563.64Z" fill="#36A37D"/>
<path d="M158.44 1374.45L71.7197 1375.09L157.485 1388.77C161.463 1389.41 165.123 1386.71 165.759 1382.89C166.396 1378.91 163.691 1375.25 159.872 1374.61C159.554 1374.61 159.076 1374.61 158.758 1374.61L158.44 1374.45Z" fill="#36A37D"/>
<path d="M212.856 1420.57L126.136 1421.21L211.902 1434.89C215.88 1435.53 219.539 1432.82 220.176 1429C220.812 1425.03 218.107 1421.37 214.288 1420.73C213.97 1420.73 213.493 1420.73 213.175 1420.73L212.856 1420.57Z" fill="#36A37D"/>
<path d="M267.429 1466.76L180.708 1467.39L266.474 1481.08C270.452 1481.72 274.112 1479.01 274.748 1475.19C275.385 1471.37 272.68 1467.55 268.861 1466.92C268.542 1466.92 268.065 1466.92 267.747 1466.92L267.429 1466.76Z" fill="#36A37D"/>
<path d="M321.847 1512.75L235.126 1513.39L320.892 1527.07C324.87 1527.71 328.53 1525.01 329.166 1521.19C329.803 1517.21 327.098 1513.55 323.279 1512.91C322.96 1512.91 322.483 1512.91 322.165 1512.91L321.847 1512.75Z" fill="#36A37D"/>
<path d="M376.435 1558.87L289.715 1559.51L375.481 1573.19C379.459 1573.83 383.118 1571.12 383.755 1567.3C384.391 1563.33 381.686 1559.67 377.868 1559.03C377.549 1559.03 377.072 1559.03 376.754 1559.03L376.435 1558.87Z" fill="#36A37D"/>
<path d="M309.65 238.004C307.249 293.344 248.245 352.98 283.37 420.576C318.494 488.298 382.679 476.422 399.483 508.767L439.409 488.046L479.335 467.325C462.53 434.98 509.153 389.368 474.028 321.646C438.903 253.924 350.839 268.075 309.523 238.004H309.65Z" fill="#ED864A"/>
<path d="M689.203 255.082C640.053 280.731 558.938 259.378 517.875 323.689C476.812 388 519.139 437.654 499.555 468.23L537.585 492.489L575.616 516.748C595.2 486.045 657.995 503.608 699.058 439.297C740.121 374.986 683.896 305.747 689.203 255.082Z" fill="#ED864A"/>
<path d="M864.325 592.151C817.577 562.459 795.466 481.47 719.278 478.059C643.091 474.647 621.233 536.179 584.971 534.536L582.949 579.516L580.928 624.496C617.316 626.138 633.488 689.312 709.676 692.723C785.863 696.135 817.703 612.872 864.325 592.024V592.151Z" fill="#ED864A"/>
<path d="M659.888 912.439C662.289 857.098 721.293 797.462 686.169 729.866C651.044 662.144 586.859 674.021 570.055 641.676L530.129 662.397L490.203 683.118C507.008 715.463 460.385 761.074 495.51 828.796C530.635 896.519 618.699 882.368 660.015 912.439H659.888Z" fill="#ED864A"/>
<path d="M280.337 895.498C329.486 869.849 410.601 891.202 451.664 826.891C492.727 762.58 450.4 712.926 469.984 682.349L431.954 658.091L393.923 633.832C374.339 664.534 311.544 646.972 270.481 711.283C229.419 775.594 285.643 844.832 280.337 895.498Z" fill="#ED864A"/>
<path d="M105.223 558.307C151.972 587.999 174.083 668.988 250.27 672.399C326.458 675.811 348.316 614.279 384.578 615.922L386.599 570.942L388.621 525.962C352.233 524.32 336.06 461.146 259.873 457.735C183.685 454.323 151.845 537.586 105.223 558.434V558.307Z" fill="#ED864A"/>
<path d="M484.77 195.312C457.1 243.325 377.375 269.099 377.375 345.287C377.375 421.475 439.79 440.553 439.79 476.941H529.876C529.876 440.553 592.292 421.475 592.292 345.287C592.292 269.099 507.639 240.924 484.77 195.312Z" fill="#FABF9D"/>
<path d="M813.779 385.332C758.439 385.332 696.149 329.108 630.196 367.265C564.116 405.422 578.899 468.974 547.312 487.168L569.802 526.21L592.292 565.251C623.752 547.057 671.512 591.531 737.591 553.375C803.671 515.218 785.73 427.911 813.779 385.332Z" fill="#FABF9D"/>
<path d="M813.779 765.261C785.982 717.375 803.671 635.376 737.591 597.219C671.512 559.062 623.879 603.536 592.292 585.342L569.802 624.384L547.312 663.425C578.773 681.619 564.116 745.172 630.196 783.329C696.276 821.486 762.861 762.229 813.779 765.261Z" fill="#FABF9D"/>
<path d="M484.773 955.187C512.443 907.175 592.169 881.4 592.169 805.213C592.169 729.025 529.753 709.947 529.753 673.559H439.667C439.667 709.947 377.251 729.025 377.251 805.213C377.251 881.4 461.904 909.576 484.647 955.187H484.773Z" fill="#FABF9D"/>
<path d="M155.76 765.261C211.1 765.261 273.39 821.486 339.343 783.329C405.423 745.172 390.64 681.619 422.227 663.425L399.737 624.384L377.247 585.342C345.787 603.536 298.028 559.062 231.948 597.219C165.868 635.376 183.809 722.682 155.76 765.261Z" fill="#FABF9D"/>
<path d="M155.76 385.357C183.557 433.243 165.868 515.243 231.948 553.4C298.028 591.557 345.661 547.082 377.247 565.276L399.737 526.235L422.227 487.194C390.767 468.999 405.423 405.447 339.343 367.29C273.263 329.133 206.678 388.39 155.76 385.357Z" fill="#FABF9D"/>
<path d="M484.771 278.582C463.166 316.107 400.876 336.197 400.876 395.706C400.876 455.216 449.647 470.125 449.647 498.553H520.022C520.022 470.125 568.666 455.216 568.666 395.706C568.666 336.197 502.586 314.212 484.771 278.582Z" fill="#E3715F"/>
<path d="M741.636 426.924C698.426 426.924 649.782 383.082 598.232 412.773C546.682 442.591 558.18 492.12 533.542 506.397L551.104 536.847L568.667 567.296C593.304 553.145 630.577 587.891 682.127 558.073C733.676 528.255 719.652 460.154 741.636 426.924Z" fill="#E3715F"/>
<path d="M741.636 723.6C719.905 686.201 733.676 622.143 682.127 592.451C630.577 562.633 593.304 597.379 568.667 583.228L551.104 613.677L533.542 644.127C558.18 658.278 546.682 707.933 598.232 737.751C649.782 767.569 701.837 721.326 741.636 723.6Z" fill="#E3715F"/>
<path d="M484.764 871.924C506.37 834.399 568.659 814.31 568.659 754.8C568.659 695.29 519.889 680.381 519.889 651.953H449.513C449.513 680.381 400.743 695.29 400.743 754.8C400.743 814.31 466.823 836.294 484.638 871.924H484.764Z" fill="#E3715F"/>
<path d="M227.901 723.6C271.112 723.6 319.756 767.442 371.306 737.751C422.856 707.933 411.358 658.404 435.996 644.127L418.433 613.677L400.871 583.228C376.233 597.379 338.961 562.633 287.411 592.451C235.861 622.269 249.886 690.37 227.901 723.6Z" fill="#E3715F"/>
<path d="M227.901 426.91C249.633 464.308 235.861 528.367 287.411 558.058C338.961 587.876 376.233 553.131 400.871 567.282L418.433 536.832L435.996 506.382C411.358 492.231 422.856 442.577 371.306 412.759C319.756 382.941 267.701 429.184 227.901 426.91Z" fill="#E3715F"/>
<path d="M602.205 602.917C617.512 538.059 577.344 473.072 512.486 457.765C447.629 442.457 382.642 482.625 367.334 547.483C352.026 612.34 392.194 677.327 457.052 692.635C521.91 707.943 586.897 667.775 602.205 602.917Z" fill="#78281B"/>
</svg>
