<svg width="943" height="662" viewBox="0 0 943 662" fill="none" xmlns="http://www.w3.org/2000/svg">
<g clip-path="url(#clip0_4187_1909)">
<path d="M737.436 502.199C633.169 490.734 563.768 343.358 563.768 343.358C563.768 343.358 663.552 214.425 767.82 225.89C872.088 237.354 949.956 308.467 941.489 384.73C933.187 460.993 841.704 513.663 737.436 502.199Z" fill="#638069"/>
<path opacity="0.49" d="M563.768 343.362C586.348 338.709 609.26 336.549 632.006 335.386C654.919 334.223 677.665 334.722 700.577 336.051C723.49 337.879 746.236 340.703 768.816 345.854C791.064 351.005 814.309 358.315 832.572 372.77C810.656 365.792 788.574 363.466 766.326 361.14C744.078 359.146 721.663 357.152 699.249 355.823C676.835 354.161 654.255 352.832 631.84 350.838C609.26 349.011 586.68 346.851 563.934 343.362H563.768Z" fill="#2B412E"/>
<path d="M218.917 160.254C321.193 183.681 373.16 338.202 373.16 338.202C373.16 338.202 259.263 454.674 156.822 431.08C54.5462 407.653 -14.5228 327.9 2.74447 253.132C20.0117 178.364 116.642 136.66 219.083 160.254H218.917Z" fill="#638069"/>
<path opacity="0.49" d="M373.157 338.206C350.244 340.199 327.332 339.701 304.42 338.206C281.673 336.71 258.927 333.553 236.347 329.566C213.933 325.246 191.518 319.763 169.768 311.954C148.184 304.145 126.102 294.342 109.665 277.727C130.585 287.197 152.169 292.182 174.085 297C196.001 301.486 217.917 305.972 240.166 309.96C262.248 314.28 284.496 318.267 306.578 322.753C328.826 327.24 350.909 331.892 373.157 338.039V338.206Z" fill="#2B412E"/>
<path d="M545.835 101.776C636.654 24.6817 792.225 58.5765 792.225 58.5765C792.225 58.5765 800.361 217.749 709.542 294.843C618.722 371.938 508.312 391.377 463.151 338.043C417.991 284.708 455.016 178.87 545.835 101.776Z" fill="#F6F6F6"/>
<path opacity="0.29" d="M641.47 283.884C575.555 339.711 474.276 328.413 474.276 328.413C474.276 328.413 479.589 226.396 545.504 170.569C611.418 114.742 686.132 94.8041 712.697 126.04C739.262 157.277 707.384 228.057 641.47 283.884Z" fill="#F7C7C9"/>
<path d="M377.985 560.193C287.165 637.287 131.594 603.392 131.594 603.392C131.594 603.392 123.459 444.219 214.278 367.125C305.097 290.031 415.508 270.592 460.668 323.926C505.829 377.261 468.804 483.099 377.985 560.193Z" fill="#F6F6F6"/>
<path opacity="0.29" d="M282.182 378.095C348.096 322.269 449.375 333.567 449.375 333.567C449.375 333.567 444.062 435.584 378.148 491.41C312.233 547.237 237.519 567.175 210.954 535.939C184.389 504.703 216.267 433.922 282.182 378.095Z" fill="#F7C7C9"/>
<path d="M690.955 414.984C767.993 505.869 734.123 661.553 734.123 661.553C734.123 661.553 575.065 669.694 498.027 578.809C420.988 487.925 401.562 377.434 454.858 332.241C508.154 287.048 613.916 324.1 690.955 414.984Z" fill="#F6F6F6"/>
<path opacity="0.29" d="M508.816 510.689C453.029 444.727 464.319 343.375 464.319 343.375C464.319 343.375 566.262 348.692 622.049 414.654C677.835 480.616 697.759 555.384 666.545 581.968C635.331 608.552 564.602 576.651 508.816 510.689Z" fill="#F7C7C9"/>
<path d="M232.872 246.998C155.834 156.114 189.704 0.430133 189.704 0.430133C189.704 0.430133 348.762 -7.71127 425.801 83.1734C502.839 174.058 522.265 284.549 468.969 329.742C415.673 374.935 309.911 337.883 232.872 246.998Z" fill="#F6F6F6"/>
<path opacity="0.29" d="M414.842 151.124C470.628 217.086 459.338 318.438 459.338 318.438C459.338 318.438 357.395 313.121 301.608 247.159C245.822 181.197 225.898 106.429 257.112 79.8448C288.326 53.2606 359.055 85.1616 414.842 151.124Z" fill="#F7C7C9"/>
<path d="M506.658 372.268C483.082 392.206 447.883 389.381 427.959 365.788C408.035 342.194 410.858 306.97 434.434 287.032C458.011 267.094 493.21 269.919 513.133 293.512C533.057 317.106 530.235 352.33 506.658 372.268Z" fill="#EE808A"/>
</g>
<defs>
<clipPath id="clip0_4187_1909">
<rect width="942.062" height="661.448" fill="white" transform="translate(0.0908203 0.265625)"/>
</clipPath>
</defs>
</svg>
