<svg width="422" height="498" viewBox="0 0 422 498" fill="none" xmlns="http://www.w3.org/2000/svg">
    <path
        d="M317.632 350.429C314.849 348.739 312.226 349.337 310.137 351.493C293.951 368.247 272.381 376.828 253.307 389.209C248.824 392.119 243.006 393.701 240.852 399.524C240.608 401.825 239.054 403.245 237.459 404.638C235.841 405.846 234.419 407.354 232.451 408.049C224.791 409.176 223.566 416.985 218.925 421.266C215.682 424.252 213.781 428.621 209.822 431.043C208.016 431.393 206.987 430.998 207.77 428.884C224.63 402.421 249.038 384.981 276.427 370.943C281.491 368.344 287.25 366.391 290.768 361.324C291.535 359.74 292.915 358.714 294.155 357.552C296.447 355.676 298.096 352.852 301.457 352.548C319.915 336.609 336.904 319.661 341.783 294.322C341.708 292.437 342.338 290.841 343.762 289.574C346.004 288.786 347.043 290.103 347.812 291.891C345.205 308.171 335.712 320.809 325.942 333.311C323.186 336.836 320.582 340.476 317.909 344.069C317.705 346.183 319.668 348.392 317.626 350.423L317.632 350.429Z"
        fill="#945E53" />
    <path
        d="M207.777 428.884C208.459 429.606 209.148 430.321 209.83 431.043C204.389 435.814 199.446 441.351 193.431 445.233C160.757 466.318 126.788 484.725 88.3385 493.251C86.2488 494.099 85.3735 493.31 85.509 491.155C116.717 483.008 145.357 468.868 173.419 453.413C176.956 451.463 181.118 450.118 183.063 446.003C187.056 441.619 192.692 439.041 196.127 434.044C198.111 432.275 199.444 428.862 203.095 431.211C204.656 430.438 206.21 429.664 207.77 428.891L207.777 428.884Z"
        fill="#965F56" />
    <path
        d="M353.955 246.082C354.711 245.372 355.467 244.655 356.23 243.945C365.066 238.829 370.015 247.474 376.776 249.715C379.581 250.841 382.013 252.453 383.678 255.057C384.609 259.141 386.451 262.858 388.451 266.525C388.579 267.528 388.458 268.486 388.069 269.419C387.202 270.742 386.035 271.649 384.491 272.051C373.612 268.079 361.64 268.171 351.045 263.095C348.439 256.812 347.695 250.848 353.961 246.089L353.955 246.082Z"
        fill="#3F2E1A" />
    <path
        d="M295.011 359.744C293.599 360.268 292.194 360.792 290.782 361.323C288.533 360.156 286.285 358.989 284.036 357.823C283.214 356.235 281.002 355.288 281.776 352.982C282.265 351.738 285.565 350.176 281.422 349.38C279.546 349.021 277.611 348.891 275.975 347.724C275.279 346.968 274.946 346.07 274.901 345.045C275.251 342.984 276.154 341.261 277.938 340.086C279.926 339.357 281.985 340.147 283.998 339.85C283.986 329.646 276.475 323.423 271.311 315.95C288.132 318.909 298.026 329.298 300.653 346.755C299.568 351.431 292.834 353.649 295.011 359.744Z"
        fill="#645137" />
    <path
        d="M358.759 116.181C346.142 118.971 333.741 115.565 321.245 114.885C319.167 116.146 317.619 114.869 316.018 113.798C313.823 111.819 311.908 109.672 311.894 106.459C312.563 103.293 312.249 99.6292 316.057 98.0063C319.645 98.9523 323.37 97.8327 326.971 98.6822C331.756 100.256 336.81 100.581 341.661 101.871C342.875 102.842 343.267 104.118 343.028 105.62C342.659 106.533 342.054 107.234 341.248 107.745C340.435 108.263 338.72 108.776 339.134 109.542C340.032 111.219 342.145 110.543 343.744 110.849C344.667 110.888 345.583 111.022 346.479 111.199C350.416 113.214 357.015 108.706 358.752 116.168L358.759 116.181Z"
        fill="#674C35" />
    <path
        d="M339.962 152.05C343.845 148.933 348.498 150.405 352.813 149.877C356.439 149.839 356.392 151.897 355.436 154.474C355.201 155.749 354.967 157.025 354.733 158.293C354.271 159.55 353.81 160.808 352.732 161.7C352.008 162.216 351.228 162.658 350.428 163.052C345.314 164.916 344.5 170.58 340.936 173.811C340.08 174.198 339.18 174.339 338.243 174.28C334.283 170.042 331.189 171.581 328.495 175.759C326.21 176.334 324.761 175.344 323.879 173.296C323.475 164.94 324.419 157.334 334.308 154.773C335.595 155.502 335.359 157.906 335.469 157.843C337.712 156.546 339.954 155.119 339.969 152.057L339.962 152.05Z"
        fill="#4B3824" />
    <path
        d="M327.572 296.027C318.647 297.304 312.677 289.737 304.639 288.356C302.154 289.559 299.732 290.19 297.674 287.583C297.692 283.406 301.239 281.745 303.607 279.243C308.841 277.729 310.465 271.237 316.041 270.166C316.98 269.847 317.949 269.678 318.932 269.592C320.445 269.569 321.86 269.912 323.087 270.828C323.612 271.655 323.821 272.554 323.68 273.533C318.09 278.436 322.699 280.335 326.362 282.505C331.03 286.625 336.508 290.696 327.579 296.04L327.572 296.027Z"
        fill="#6B563B" />
    <path
        d="M258.269 451.675C256.781 455.434 255.293 459.2 253.169 464.583C247.62 450.618 246.22 437.284 242.638 424.558C244.652 423.092 246.226 424.19 247.78 425.432C248.414 426.134 248.918 426.927 249.333 427.776C250.071 429.241 250.295 430.924 251.755 433.056C254.025 430.348 253.158 426.463 255.516 424.25C256.564 423.874 257.529 424.008 258.451 424.625C266.302 433.707 260.217 442.675 258.262 451.675L258.269 451.675Z"
        fill="#3F301C" />
    <path
        d="M271.311 315.95C283.067 318.818 282.365 331.858 289.571 338.484C290.279 339.137 290.246 341.236 289.811 342.376C289.014 344.442 287.193 343.952 285.487 343.364C282.904 342.47 280.288 341.672 277.685 340.832C273.282 342.915 268.853 345.04 270.21 336.707C273.562 334.415 276.863 333.224 280.115 333.134C275.03 325.97 268.422 323.783 260.144 327.056C256.222 325.13 250.554 324.667 252.464 317.876L252.444 317.876C258.183 317.327 263.714 315.259 269.566 315.521C270.225 315.369 270.804 315.508 271.318 315.949L271.311 315.95Z"
        fill="#4D3C25" />
    <path
        d="M265.523 134.377C268.438 117.22 283.402 107.243 300.835 110.836C296.221 113.149 296.106 119.817 290.679 121.354C279.709 122.399 277.578 124.534 280.126 131.959C278.217 140.745 274.611 141.348 265.523 134.377Z"
        fill="#6F563D" />
    <path
        d="M201.675 372.393C214.779 377.278 218.619 386.423 214.084 401.939C212.054 403.901 212.04 409.764 206.871 405.69C202.838 401.088 207.179 394.478 203.064 389.877C202.045 386.578 199.151 384.276 198.127 381.101C196.96 377.473 194.931 373.001 201.675 372.393Z"
        fill="#47361F" />
    <path
        d="M268.006 428.385C268.219 434.204 266.042 439.16 262.546 443.649C259.451 440.524 262.326 436.461 260.977 433.221C259.685 430.124 261.933 424.733 255.827 424.44L255.827 424.433C253.134 425.514 250.65 427.481 247.441 426.538C246.318 424.534 244.285 422.911 244.828 420.228C248.69 416.541 245.435 414.552 242.928 412.384C241.479 409.385 247.444 408.613 245.042 405.322C249.382 404.54 254.015 404.725 257.642 401.549C258.357 402.133 259.072 402.71 259.787 403.295C261.305 408.921 263.769 414.193 265.911 419.586C267.021 422.423 265.414 425.908 268.02 428.391L268.006 428.385Z"
        fill="#7B6951" />
    <path
        d="M276.211 30.4376C272.159 22.0101 278.759 16.9861 282.419 11.0229C291.492 9.4476 291.159 16.332 292.25 21.9284C291.466 23.9183 289.083 24.3633 287.893 26.33C289.529 25.5214 290.291 24.0753 291.597 23.2495C300.476 27.4011 296.184 35.4352 297.12 41.9415C294.953 46.4989 292.396 44.2346 289.851 42.3693C284.235 39.6213 279.489 35.8594 276.204 30.4376L276.211 30.4376Z"
        fill="#987D66" />
    <path
        d="M327.571 296.027C332.718 290.818 329.426 287.268 325.179 283.914C319.521 276.577 325.305 275.621 330.514 274.321C331.517 274.159 332.528 274.141 333.54 274.247C338.849 275.175 342.935 277.747 345.089 282.905C345.47 283.851 345.714 284.825 345.828 285.843C345.9 287.411 345.468 288.833 344.511 290.088C343.604 291.502 342.69 292.915 341.783 294.335C337.275 296.839 332.427 296.505 327.564 296.04L327.571 296.027Z"
        fill="#2E2110" />
    <path
        d="M344.518 290.081C344.406 288.616 344.294 287.152 344.182 285.694C345.631 281.482 344.188 276.474 347.741 272.844C347.423 258.983 348.218 245.082 345.761 231.291C344.839 226.099 345.037 220.819 349.696 216.972C351.433 216.582 352.414 216.929 351.644 218.981C349.369 228.281 346.866 237.596 353.954 246.095C351.044 251.382 349.802 256.845 352.223 262.689C353.252 264.983 355.186 266.291 357.128 267.77C359.764 269.772 359.022 271.851 356.216 273.285C353.08 271.46 350.436 270.648 350.616 275.917C350.805 281.441 349.601 286.731 347.812 291.911C346.712 291.303 345.618 290.702 344.518 290.094L344.518 290.081Z"
        fill="#8C5349" />
    <path
        d="M295.583 42.2755C292.568 36.3692 297.77 28.5526 291.207 23.4751C289.209 18.6659 289.267 12.4106 282.426 11.0104C286.848 2.94743 292.158 -2.46205 301.658 4.51102C300.393 5.92809 298.94 6.42511 297.175 5.45293C298.324 6.74815 300.104 6.53665 301.488 7.25139C303.715 8.39758 304.481 9.88264 302.466 11.9338C296.491 14.2677 299.219 19.1793 299.159 23.2671C299.372 27.7719 300.458 32.2054 300.031 36.7513C299.369 39.2561 299.541 42.447 295.576 42.2687L295.583 42.2755Z"
        fill="#7F654B" />
    <path
        d="M317.633 350.428C318.203 348.33 315.103 346.072 317.917 344.074C321.116 343.4 324.315 342.726 327.515 342.053C330.562 341.319 333.117 343.48 336.049 343.518C336.886 343.949 337.553 344.554 338.077 345.333C341.025 352.094 333.586 356.631 334.212 363.058C334.335 364.33 331.444 364.161 329.879 363.221C325.794 358.957 321.71 354.692 317.633 350.428Z"
        fill="#1F120A" />
    <path
        d="M310.586 63.4328C310.758 64.1053 310.551 64.6304 309.956 65.0014C302.693 67.2938 306.056 59.9852 303.585 57.954C303.608 56.8528 305.002 56.5903 305.08 55.523C304.708 56.0912 304.294 56.6322 303.825 57.1945C302.756 60.199 309.098 66.5105 299.925 65.7887C298.089 64.5833 297.778 62.543 297.126 60.6852C297.728 53.2131 301.438 46.8847 304.617 40.3693C306.697 38.5445 308.642 38.3933 310.791 40.4692C311.187 40.8572 311.143 39.2957 311.584 38.7474C312.784 37.0352 313.424 34.4343 316.459 35.7371C320.858 42.4545 316.614 48.472 314.932 54.6963C313.559 57.649 309.897 59.4561 310.586 63.4328Z"
        fill="#5A412C" />
    <path
        d="M396.583 147.936C409 154.823 412.696 167.266 418.571 182.142C405.474 172.104 401.885 156.736 388.033 152.093C389.79 148.462 393.292 148.411 396.59 147.936L396.583 147.936Z"
        fill="#6D593E" />
    <path
        d="M85.5151 491.147C86.4583 491.845 87.3946 492.544 88.3447 493.243C68.0344 496.692 47.5774 497.974 26.9998 496.967C21.5199 496.702 16.0691 495.947 10.6001 495.42C11.4432 490.554 14.7541 493.271 17.1831 493.28C39.9968 493.616 62.7832 493.334 85.5151 491.147Z"
        fill="#9B665D" />
    <path
        d="M396.583 147.936C394.361 150.608 391.176 151.309 388.026 152.093C381.511 152.278 375.934 148.684 369.737 147.586C368.643 146.958 367.352 146.566 366.863 145.202C366.974 142.07 369.614 141.127 371.662 139.674C381.623 137.428 390.096 139.678 396.576 147.929L396.583 147.936Z"
        fill="#3A2B16" />
    <path
        d="M395.972 249.663C401.212 261.023 404.128 272.676 400.462 285.162C400.067 284.857 399.678 284.551 399.276 284.26C395.539 276.366 388.831 269.907 387.852 260.676C386.939 258.263 385.882 255.866 386.479 253.177C388.683 249.424 391.814 248.152 395.972 249.67L395.972 249.663Z"
        fill="#998067" />
    <path
        d="M377.088 251.988C369.32 251.417 364.895 242.188 356.23 243.945C364.471 234.004 376.623 232.032 387.594 238.852C388.385 240.811 388.463 244.23 386.516 243.666C378.303 241.276 378.874 247.758 377.088 251.988Z"
        fill="#56422A" />
    <path
        d="M373.159 98.3037C378.681 101.266 379.693 104.599 373.982 108.472C367.767 110.953 361.621 112.132 355.758 107.564C354.961 106.932 354.251 106.196 353.596 105.412C351.134 102.342 351.665 99.1434 353.179 95.9071C354.567 91.8877 349.677 90.0885 349.818 86.509C350.365 84.9068 351.377 84.2906 353.002 85.0372C358.997 87.8638 365.318 90.1708 369.9 95.3243C368.307 98.2311 363.987 97.1002 362.515 100.384C366.981 104.287 369.628 98.9259 373.159 98.3037Z"
        fill="#4C3822" />
    <path
        d="M303.766 258.488C314.637 248.664 325.772 248.87 337.413 259.109C338.658 261.683 340.177 264.165 339.996 267.194C335.889 269.832 332.929 266.533 329.585 265.192C327.276 264.191 326.502 261.247 323.833 260.663C322.984 260.473 322.163 260.241 321.328 260.015C317.623 259.071 314.102 259.232 310.914 261.619C308.484 262.869 306.073 263.246 303.714 261.454C303.174 260.455 303.184 259.464 303.752 258.481L303.766 258.488Z"
        fill="#715B3E" />
    <path
        d="M290.048 119.481C293.547 116.479 293.042 108.482 300.836 110.835C302.589 110.755 304.336 110.674 306.09 110.594C309.811 109.832 311.335 111.433 310.927 115.098L310.706 115.031C309.235 119.12 309.79 123.401 309.504 127.608C308.663 129.448 307.285 130.494 305.213 130.482C302.522 129.774 301.655 127.141 299.889 125.46C298.518 124.649 296.929 124.659 295.426 124.344C293.37 123.809 291.273 123.377 289.674 121.804C289.245 120.942 289.368 120.163 290.048 119.474L290.048 119.481Z"
        fill="#6B533A" />
    <path
        d="M181.125 439.748C180.162 438.424 179.198 437.099 178.242 435.781C180.999 430.371 186.671 426.664 187.413 420.071C189.513 415.019 188.487 408.473 194.447 405.258C195.518 405.088 196.539 405.263 197.5 405.762C199.044 407.26 200.627 409.892 199.738 411.113C196.55 415.488 201.446 417.742 201.729 421.076C202.204 425.647 201.524 429.693 196.709 431.774C193.444 431.512 193.116 429.121 192.985 427.058C190.168 432.015 189.391 439.255 181.132 439.755L181.125 439.748Z"
        fill="#382915" />
    <path
        d="M201.675 372.393C197.412 375.975 198.181 379.703 202.174 382.475C205.723 384.942 205.255 388.181 205.359 391.517C205.532 395.534 204.84 399.071 200.39 400.542C199.392 400.484 198.63 400.024 198.05 399.218C197.124 397.508 196.891 395.625 196.726 393.728C196.144 390.101 197.003 386.046 193.52 383.316C189.209 380.383 182.155 379.019 186.42 371.116C191.57 370.738 196.818 369.203 201.675 372.386L201.675 372.393Z"
        fill="#634F33" />
    <path
        d="M351.231 371.197C351.17 371.886 351.115 372.575 351.053 373.257C348.979 374.916 348.921 377.201 349.097 379.553C348.613 385.826 345.376 390.794 341.807 396.88C340.718 389.508 339.829 383.531 338.947 377.561C340.696 370.545 334.08 363.624 338.698 356.57C339.602 356.169 340.497 356.2 341.395 356.583C347.721 359.399 347.228 366.808 351.238 371.197L351.231 371.197Z"
        fill="#5B4129" />
    <path
        d="M355.056 177.227C355.194 188.909 350.442 197.636 339.644 202.698C335.454 203.396 336.432 200.901 337.096 198.603C338.27 196.368 340.136 194.566 341.178 192.271C341.472 190.155 339.323 189.882 338.45 188.659C337.619 187.519 337.351 186.242 337.543 184.864C337.822 183.987 338.338 183.273 339.068 182.722C339.89 182.355 340.748 182.147 341.649 182.075C342.529 182.024 343.409 182.015 344.276 181.972C349.224 180.722 347.052 173.176 352.626 172.512C354.837 173.369 353.865 175.856 355.049 177.234L355.056 177.227Z"
        fill="#5D4935" />
    <path
        d="M377.089 251.989C379.896 246.09 372.178 247.693 371.747 243.362C374.134 240.02 377.917 240.476 381.891 241.521C384.485 242.202 387.381 243.355 387.588 238.853C390.41 240.316 392.593 242.392 393.781 245.4C394.955 248.394 392.551 248.785 390.727 249.43C388.472 250.231 385.702 250.508 387.398 254.075C388.197 256.09 388.995 258.098 389.801 260.112C389.447 260.425 389.092 260.739 388.738 261.059C384.436 262.219 384.581 258.358 383.223 256.191C381.178 254.795 379.127 253.392 377.082 251.996L377.089 251.989Z"
        fill="#745D43" />
    <path
        d="M195.362 431.258C200.142 429.102 199.29 424.749 199.455 420.783C201.584 417.823 200.839 414.377 201.238 411.09C201.674 407.452 202.224 403.463 207.569 404.025C211.301 408.19 211.668 401.856 214.091 401.933C213.629 412.886 205.422 420.941 203.109 431.197C199.725 430.73 199.743 434.322 197.837 435.615C195.669 434.922 194.588 433.62 195.368 431.251L195.362 431.258Z"
        fill="#614E34" />
    <path
        d="M174.493 429.38C172.623 421.136 175.194 413.718 178.758 406.49C181.532 405.312 183.801 406.451 185.978 408.051C188.466 410.31 188.978 413.256 188.874 416.409C189.659 426.9 182.744 428.886 174.493 429.387L174.493 429.38Z"
        fill="#523E23" />
    <path
        d="M301.484 10.8911C302.392 6.93185 295.319 9.58696 296.955 5.51683C297.29 4.68758 300.03 4.82375 301.658 4.51754C310.728 8.56391 313.014 17.1339 315.641 25.4871C313.178 28.1347 317.714 33.4194 312.087 34.8757C310.008 34.8151 308.49 33.799 307.344 32.1253C306.456 26.8434 306.322 21.3814 302.005 17.2022C300.351 15.6027 299.265 13.1852 301.477 10.8911L301.484 10.8911Z"
        fill="#71593F" />
    <path
        d="M265.523 134.377C270.083 132.223 276.652 143.087 279.854 132.161C280.18 131.806 280.5 131.452 280.826 131.091C282.611 130.081 284.51 129.985 286.474 130.343C287.434 130.608 288.305 131.039 289.096 131.637C292.959 136.515 289.147 139.749 286.618 143.271C284.666 144.75 282.556 145.695 280.032 145.171C274.138 142.185 270.727 148.847 265.608 148.915C265.578 144.071 265.547 139.221 265.523 134.377Z"
        fill="#483621" />
    <path
        d="M340.522 356.537C337.088 363.027 341.314 369.017 341.965 375.21C342.348 378.915 341.256 378.452 338.941 377.561C335.918 372.776 332.902 367.998 329.879 363.214C330.538 363.062 331.774 362.85 331.766 362.774C330.979 356.025 337.871 351.143 336.277 344.237C344.161 346.101 343.936 350.769 340.528 356.53L340.522 356.537Z"
        fill="#342213" />
    <path
        d="M356.223 273.264C359.34 268.057 348.921 267.954 352.23 262.669C363.725 263.703 374.937 265.931 385.542 270.656C386.938 273.187 385.721 275.168 384.2 277.09C383.373 277.608 382.473 277.817 381.495 277.69C380.61 277.341 379.793 276.861 379.031 276.305C373.158 269.459 366.767 272.21 360.352 275.292C358.706 275.164 356.919 275.321 356.223 273.264Z"
        fill="#624B30" />
    <path
        d="M318.751 271.362C318.084 271.41 317.424 271.458 316.757 271.507C310.772 271.632 307.554 275.746 304.455 280.038C304.333 284.147 300.552 284.504 298.1 286.229C297.063 287.727 295.55 288.376 293.811 288.628C290.484 285.003 290.94 281.261 293.501 277.47C296.239 276.829 296.144 273.686 298.049 272.31C300.097 270.121 299.839 266.511 302.656 264.789C303.549 264.621 304.396 264.749 305.219 265.112C308.378 267.116 311.811 267.086 315.327 266.43C316.269 266.324 317.178 266.417 318.082 266.69C319.817 268.034 320.507 269.527 318.751 271.369L318.751 271.362Z"
        fill="#8F7A60" />
    <path
        d="M276.034 346.844C278.112 346.856 280.196 346.8 282.275 346.894C284.926 347.018 288.799 346.275 288.858 349.963C288.919 353.698 284.912 352.88 282.33 353.334C280.078 353.819 278.132 355.209 275.83 355.529C265.712 354.645 263.693 346.499 260.971 338.98C261.547 335.533 262.304 335.498 266.363 338.709C267.58 340.582 268.845 342.419 270.71 343.741C272.388 344.942 273.761 346.661 276.041 346.837L276.034 346.844Z"
        fill="#7E6950" />
    <path
        d="M367.772 145.337C368.427 146.087 369.082 146.837 369.736 147.587C362.197 146.524 363.09 151.572 363.47 156.24C361.083 158.24 361.055 153.665 359.036 154.65C357.838 154.593 356.633 154.537 355.435 154.481C354.894 152.76 354.722 150.828 352.813 149.885C349.233 141.886 340.917 138.258 335.892 131.596C336.161 130.382 336.918 129.693 338.134 129.487C346.49 134.938 352.479 142.987 360.026 149.389C361.993 148.02 360.477 144.581 363.352 143.78C365.03 143.728 366.508 144.235 367.772 145.344L367.772 145.337Z"
        fill="#9F6D64" />
    <path
        d="M195.361 431.258C196.181 432.708 197.002 434.165 197.829 435.615C193.924 440.514 190.083 445.509 183.069 445.989C182.421 443.911 181.773 441.826 181.132 439.748C185.643 437.526 187.133 432.755 189.958 429.134C194.533 423.271 194.617 427.894 195.361 431.258Z"
        fill="#23190B" />
    <path
        d="M359.043 154.65C361.811 151.586 361.685 156.583 363.477 156.241C368.713 169.163 369.224 182.348 365.657 195.755C361.651 195.618 363.118 193.126 363.625 191.042C362.911 178.809 365.406 166.17 359.043 154.643L359.043 154.65Z"
        fill="#99635A" />
    <path
        d="M305.771 40.1725C304.937 47.8741 300.478 54.2792 298.159 61.4529C298.939 63.6396 299.262 65.5354 295.872 65.1308C295.009 60.9082 294.536 56.5301 291.117 53.346C290.708 52.4558 290.602 51.528 290.764 50.563C295.888 47.1165 297.586 40.5136 302.982 37.312C304.622 37.5767 305.5 38.5858 305.778 40.1793L305.771 40.1725Z"
        fill="#3A2717" />
    <path
        d="M329.26 263.002C332.701 264.369 336.135 265.736 339.576 267.11C341.039 267.487 342.482 267.912 343.492 269.161C343.911 269.686 344.117 270.29 344.11 270.957C345.038 272.833 345.726 274.725 344.757 276.799C340.839 277.818 337.214 276.074 333.459 275.549C332.763 275.508 332.068 275.468 331.373 275.427C328.474 275.23 325.292 276.248 322.999 273.465C322.977 272.756 322.963 272.055 322.942 271.346C325.434 268.856 328.62 266.896 329.253 263.002L329.26 263.002Z"
        fill="#5C482E" />
    <path
        d="M291.599 50.7596C291.436 51.6214 291.273 52.4832 291.11 53.3382C284.107 47.0268 277.412 40.5195 276.211 30.4311C277.007 28.8882 279.378 25.9801 279.327 27.0609C278.924 35.8039 287.054 36.1721 291.124 40.3332C289.606 43.8792 293.192 47.1991 291.599 50.7527L291.599 50.7596Z"
        fill="#675039" />
    <path
        d="M328.155 200.893C325.36 196.195 323.32 191.317 324.499 185.67C325.929 182.95 325.377 179.543 327.484 177.058C328.584 176.337 329.482 175.337 330.694 174.774C334.111 175.185 335.037 178.822 337.735 180.183C338.688 181.143 339.551 182.132 338.7 183.593L338.631 183.559C337.837 184.662 337.356 185.995 336.237 186.867C333.117 188.558 332.907 190.789 335.019 193.444C335.789 194.605 336.077 195.882 335.865 197.254C335.592 198.11 335.083 198.796 334.373 199.348C332.459 200.482 330.35 200.89 328.149 200.886L328.155 200.893Z"
        fill="#88725B" />
    <path
        d="M316.71 89.4744C320.74 85.3927 325.549 82.6927 331.143 81.3881C335.59 80.2883 340.474 78.1517 341.248 85.6643C341.08 86.6982 340.615 87.6114 339.873 88.3555C334.342 89.8177 328.41 90.3759 324.186 95.0032C321.433 94.9497 318.466 96.1233 316.128 93.6297C315.679 92.155 316.022 90.789 316.717 89.4743L316.71 89.4744Z"
        fill="#60442E" />
    <path
        d="M295.865 65.1305C297.689 64.5676 297.782 62.9221 298.152 61.4526C298.798 62.6705 299.437 63.8954 300.083 65.1134C302.634 67.5635 302.4 70.8275 302.667 73.9486C297.778 82.0303 303.775 90.1895 302.484 98.2951C303.24 100.172 302.309 100.636 300.65 100.503C297.39 88.9428 296.693 77.0325 295.872 65.1373L295.865 65.1305Z"
        fill="#8E5349" />
    <path
        d="M265.608 148.915C267.121 141.626 275.399 144.229 278.896 139.829C279.243 141.429 279.59 143.021 279.937 144.621C281.511 148.32 280.206 151.196 277.383 153.641C273.47 153.848 269.827 156.136 265.751 155.196C265.701 153.104 265.658 151.006 265.608 148.915Z"
        fill="#3B2A15" />
    <path
        d="M354.506 104.295C360.229 109.285 367.256 108.158 373.982 108.472C370.105 113.412 364.331 114.602 358.76 116.182C355.82 110.818 349.522 117.139 346.337 112.611C347.579 108.387 355.433 110.65 354.506 104.295Z"
        fill="#725E44" />
    <path
        d="M276.126 153.084C277.397 150.263 278.667 147.442 279.938 144.621C281.994 143.836 284.043 143.057 286.099 142.272C287.748 142.061 289.438 141.163 290.995 142.571C291.416 143.364 291.631 144.202 291.62 145.11C291.464 146.02 291.129 146.856 290.635 147.632C288.719 149.909 287.878 152.361 289.339 155.208C287.429 157.416 285.434 159.46 282.12 158.972C280.339 156.5 275.491 160.019 274.869 155.264C274.873 154.294 275.312 153.574 276.133 153.077L276.126 153.084Z"
        fill="#725B42" />
    <path
        d="M360.353 275.298C367.179 263.666 374.213 268.959 381.261 275.042C379.145 277.315 376.039 277.733 373.502 279.239C371.143 280.578 368.707 280.625 366.233 279.612C364.271 278.174 362.315 276.743 360.353 275.305L360.353 275.298Z"
        fill="#80694F" />
    <path
        d="M186.42 371.117C186.743 374.981 185.241 379.992 192.547 378.601C195.617 378.018 194.442 381.436 194.914 383.172C194.234 385.244 192.751 386.828 191.635 388.636C189.311 391.406 189.29 395.294 187.035 398.104C184.774 399.023 183.497 397.922 182.616 395.977C186.531 388.098 182.354 378.977 186.413 371.117L186.42 371.117Z"
        fill="#7A6647" />
    <path
        d="M245.258 405.56C247.389 408.592 244.494 410.075 243.256 412.063C246.752 414.104 247.956 416.72 245.304 420.291C246.014 422.376 246.731 424.453 247.441 426.537C245.838 425.88 244.234 425.216 242.638 424.558C239.73 420.928 242.021 415.647 238.694 412.145C237.921 409.298 235.027 406.968 236.601 403.546C238.025 402.203 239.442 400.86 240.866 399.517L240.941 399.461C242.291 401.552 246.175 401.855 245.258 405.56Z"
        fill="#65553D" />
    <path
        d="M340.522 356.537C340.192 352.061 342.022 346.839 336.27 344.244C335.245 343.622 335.286 342.975 336.229 342.311C344.175 344.828 350.051 349.328 351.37 358.176C348.772 362.388 347.291 362.211 340.636 356.914L340.515 356.55L340.522 356.537Z"
        fill="#4A341F" />
    <path
        d="M174.493 429.38C177.598 429.56 174.773 417.473 182.994 425.794C185.415 428.246 186.405 420.412 186.869 416.746C190.802 416.491 190.137 418.645 189.095 420.996C188.864 428.409 184.791 433 178.242 435.773C175.709 434.39 174.475 432.249 174.486 429.38L174.493 429.38Z"
        fill="#624D30" />
    <path
        d="M373.158 98.3039C370.582 100.044 372.833 106.633 367.489 104.935C364.458 103.976 358.069 106.198 358.734 100.803C359.374 95.6078 364.636 94.1141 369.906 95.3244C370.99 96.3176 372.074 97.3107 373.158 98.3039Z"
        fill="#342310" />
    <path
        d="M264.093 420.045C262.287 414.552 255.966 410.229 259.78 403.294C267.083 404.091 268.082 409.481 268.529 415.277C269.485 419.127 269.461 422.073 264.093 420.051L264.093 420.045Z"
        fill="#574A33" />
    <path
        d="M338.141 129.481C337.391 130.184 336.642 130.887 335.899 131.589C327.579 126.93 319.829 121.459 312.6 115.246C312.95 114.492 313.487 113.909 314.191 113.475C315.293 112.885 316.51 112.838 317.72 112.735C318.898 113.452 320.068 114.169 321.246 114.893C324.158 122.906 333.481 123.496 338.141 129.481Z"
        fill="#9D6960" />
    <path
        d="M363.625 191.042C364.302 192.61 364.979 194.179 365.656 195.754C364.058 205.342 358.215 212.374 351.651 218.974C351.004 218.306 350.35 217.639 349.703 216.965C355.28 208.827 361.272 200.913 363.625 191.042Z"
        fill="#9B655C" />
    <path
        d="M245.258 405.56C243.772 403.559 240.304 402.963 240.941 399.461C246.496 400.241 252.462 397.722 257.643 401.548C255.513 409.036 251.335 410.223 245.265 405.56L245.258 405.56Z"
        fill="#9B9078" />
    <path
        d="M316.711 89.4742C316.81 91.0351 316.902 92.5961 317.001 94.1639C318.153 95.0325 318.227 96.167 317.813 97.4237C317.528 97.7226 317.242 98.0146 316.956 98.3067C313.555 100.132 316.276 104.933 312.841 106.745C311.961 107.47 310.979 107.673 309.882 107.361C306.167 105.515 303.378 103.315 306.702 98.8417C310.034 95.7238 313.372 92.599 316.704 89.4812L316.711 89.4742Z"
        fill="#44311D" />
    <path
        d="M340.641 356.908C344.154 357.861 347.42 360.937 351.375 358.17C354.277 362.543 353.332 366.881 351.231 371.197C348.993 371.021 344.861 371.409 345.571 368.897C347.223 363.051 341.567 361.116 340.648 356.901L340.641 356.908Z"
        fill="#73583E" />
    <path
        d="M400.027 291.386C396.646 295.041 399.79 304.751 389.869 302.345C386.827 299.686 384.978 296.575 386.055 292.353C386.682 289.841 387.44 287.377 389.174 285.363C394.333 284.579 395.137 291.665 400.02 291.386L400.027 291.386Z"
        fill="#644C2F" />
    <path
        d="M265.32 340.826C264.184 339.469 263.934 336.031 260.972 338.98C258.678 334.869 256.392 330.757 254.098 326.646C258.215 324.876 261.503 328.646 265.408 328.316C267.376 329.066 269.06 330.197 270.215 332.015C270.864 333.481 270.989 334.952 270.248 336.425C268.494 337.765 269.128 341.777 265.32 340.833L265.32 340.826Z"
        fill="#A08B72" />
    <path
        d="M255.827 424.445C256.65 420.239 257.922 419.558 260.066 423.815C263.243 430.147 261.404 437.081 262.553 443.647C261.123 446.325 259.699 448.996 258.269 451.674C257.004 442.64 263.706 432.887 255.827 424.445Z"
        fill="#65553D" />
    <path
        d="M388.062 291.457C387.469 295.283 388.449 298.85 389.869 302.345C386.076 301.449 383.435 299 381.242 295.94C381.522 295.091 381.857 294.262 382.22 293.453C384.679 287.778 377.175 284.822 378.398 279.484C378.995 278.039 380.031 277.113 381.583 276.801C382.217 276.891 382.851 277.001 383.486 277.132C385.153 277.321 386.38 278.209 387.344 279.534C389.607 283.384 389.278 287.392 388.062 291.457Z"
        fill="#90775C" />
    <path
        d="M400.027 291.386C390.727 298.861 392.862 287.946 389.956 285.128C389.245 284.33 389.168 283.478 389.715 282.564C392.703 280.131 395.7 279.122 398.681 282.572C399.137 283.427 399.477 284.332 399.666 285.293L400.456 285.168C400.313 287.241 400.163 289.314 400.02 291.393L400.027 291.386Z"
        fill="#4E381D" />
    <path
        d="M290.36 146.479C290.34 145.818 290.34 145.165 290.346 144.504C293.541 142.096 294.694 137.846 298.222 135.723C299.092 135.398 299.973 135.375 300.863 135.613C302.471 136.786 302.882 138.543 303.156 140.364C300.357 145.073 297.732 149.924 292.488 152.484C289.565 151.262 288.321 149.452 290.354 146.479L290.36 146.479Z"
        fill="#7A644D" />
    <path
        d="M302.668 73.9412C299.142 71.7766 300.165 68.2772 300.083 65.106C307.052 64.9772 299.88 58.1929 304.02 56.7385L304.041 56.7589C306.352 59.2598 304.941 64.4422 309.963 65.0015C308.524 68.7874 306.009 71.704 302.675 73.9411L302.668 73.9412Z"
        fill="#614B32" />
    <path
        d="M182.623 395.976C183.945 396.677 185.259 397.379 186.581 398.081C187.863 398.941 188.469 400.228 188.89 401.648C189.384 403.542 189.845 405.45 189.467 407.436C188.236 409.478 186.709 410.134 184.682 408.456C182.707 407.803 180.732 407.143 178.757 406.489C178.881 402.552 180.869 399.311 182.623 395.976Z"
        fill="#624D30" />
    <path
        d="M306.715 98.8348C305.17 103.007 308.542 104.362 310.977 106.256C311.104 109.846 315.864 110.959 315.554 114.788C314.571 114.942 313.582 115.091 312.6 115.245C312.042 115.238 311.484 115.188 310.926 115.105C310.055 112.809 308.103 111.674 306.089 110.601C303.923 107.424 301.25 104.521 300.65 100.495C301.261 99.7595 301.873 99.0237 302.484 98.2878C303.89 98.4725 305.302 98.6502 306.708 98.8349L306.715 98.8348Z"
        fill="#96655B" />
    <path
        d="M339.769 87.517C340.397 80.5469 335.357 81.5498 331.144 81.3879C339.375 76.9521 346.144 81.305 353.009 85.0444C352.123 85.8519 351.237 86.6526 350.351 87.4601C350.065 87.7659 349.773 88.0787 349.487 88.3913C348.699 88.7299 347.882 88.8693 347.028 88.8508C346.202 88.7495 345.388 88.5654 344.58 88.3606C342.994 87.9852 341.238 88.5336 339.769 87.5238L339.769 87.517Z"
        fill="#685138" />
    <path
        d="M295.011 359.743C288.756 351.876 297.245 350.417 300.654 346.755C300.922 348.685 301.197 350.616 301.465 352.547C300.295 355.827 297.695 357.823 295.004 359.744L295.011 359.743Z"
        fill="#332511" />
    <path
        d="M265.277 330.318C261.548 329.092 257.826 327.865 254.098 326.638C251.804 324.516 247.926 323.435 247.711 319.99C247.579 317.927 250.383 317.595 252.464 317.876C253.143 322.912 257.804 323.771 261.083 326.076C261.587 325.644 262.122 325.446 262.686 325.488C263.272 325.53 263.562 325.609 263.57 325.719C265.062 326.908 266.279 328.202 265.283 330.318L265.277 330.318Z"
        fill="#7E6B52" />
    <path
        d="M303.157 140.372C301.263 139.539 300.73 137.934 300.696 136.049C300.747 133.083 299.925 129.541 304.827 129.758C306.161 129.056 307.495 128.353 308.823 127.651C310.186 128.999 310.146 130.41 309.033 131.881C309.576 136.444 305.517 137.822 303.157 140.372Z"
        fill="#674F36" />
    <path
        d="M269.558 315.52C264.407 320.35 258.481 319.553 252.436 317.889C257.877 315.162 263.297 312.311 269.558 315.52Z"
        fill="#7E6B52" />
    <path
        d="M366.233 279.606C368.516 278.763 370.791 277.913 373.074 277.07C373.515 277.203 373.964 277.336 374.413 277.462C377.351 280.08 378.987 283.228 378.39 287.287C377.737 288.629 376.735 289.534 375.231 289.818C372.23 286.416 369.235 283.008 366.233 279.606Z"
        fill="#967D62" />
    <path
        d="M304.099 265.283C300.808 267.128 303.481 271.909 299.983 273.646C298.151 272.86 297.007 271.414 296.191 269.661C296.632 264.523 302.264 262.908 303.765 258.489C303.878 259.396 303.991 260.296 304.104 261.203C305.384 262.566 305.22 263.923 304.105 265.283L304.099 265.283Z"
        fill="#816C53" />
    <path
        d="M275.864 155.075C276.97 156.859 278.352 156.782 280.182 156.089C284.431 154.482 282.575 157.254 282.119 158.972C276.77 159.427 271.515 164.203 266.062 159.286C268.977 157.053 271.729 154.458 275.864 155.068L275.864 155.075Z"
        fill="#3B2A15" />
    <path
        d="M275.865 155.074C273.359 158.252 270.212 159.937 266.063 159.293C265.959 157.925 265.862 156.563 265.758 155.202C269.023 153.544 272.019 150.601 276.133 153.083C276.057 153.751 275.975 154.413 275.872 155.074L275.865 155.074Z"
        fill="#251A09" />
    <path
        d="M387.397 254.074C379.333 243.68 393.46 249.62 393.78 245.398C394.511 246.822 395.234 248.239 395.965 249.662C393.111 251.13 390.251 252.606 387.397 254.074Z"
        fill="#937C62" />
    <path
        d="M339.962 152.052C342.975 159.733 334.894 158.794 331.768 161.902C332.617 159.526 333.459 157.15 334.308 154.768C336.19 153.86 338.08 152.952 339.962 152.052Z"
        fill="#362816" />
    <path
        d="M264.093 420.044C267.341 420.099 268.06 417.8 268.529 415.277C271.811 419.783 269.09 424.051 268.014 428.39C262.631 427.525 264.567 423.225 264.093 420.051L264.093 420.044Z"
        fill="#77694F" />
    <path
        d="M328.273 177.537C328.011 180.712 326.787 183.436 324.499 185.669C326.216 181.446 318.765 177.692 323.873 173.296C325.318 173.976 326.756 174.656 328.202 175.336C329.007 176.043 329.07 176.778 328.273 177.544L328.273 177.537Z"
        fill="#5A452E" />
    <path
        d="M343.731 277.435C343.859 275.273 343.988 273.118 344.116 270.956C345.327 271.584 346.531 272.211 347.742 272.831C348.674 277.7 348.102 282.158 344.183 285.681C343.969 284.995 343.755 284.302 343.548 283.609C342.859 281.525 342.307 279.446 343.731 277.428L343.731 277.435Z"
        fill="#AD998D" />
    <path
        d="M328.154 200.892C329.64 198.275 332.186 198.276 334.718 198.249C336.027 201.022 333.87 203.962 335.145 206.735C334.091 207.944 332.431 210.342 332.085 210.167C328.328 208.252 328.358 204.488 328.161 200.898L328.154 200.892Z"
        fill="#735D46" />
    <path
        d="M335.145 206.73C326.017 204.349 335.127 201.06 334.718 198.243C336.102 196.99 337.493 197.113 338.895 198.213C338.437 199.828 336.88 201.619 339.637 202.698C338.138 204.042 336.638 205.386 335.138 206.73L335.145 206.73Z"
        fill="#654F39" />
    <path
        d="M236.594 403.553C237.525 406.364 240.295 408.722 238.687 412.152C236.608 410.784 234.537 409.416 232.458 408.048C232.539 405.357 233.879 403.822 236.594 403.553Z"
        fill="#584D34" />
    <path
        d="M290.361 146.479C291.07 148.481 291.779 150.482 292.495 152.484C291.445 153.389 290.388 154.302 289.338 155.208C281.866 151.385 285.314 148.837 290.361 146.479Z"
        fill="#836C55" />
    <path
        d="M375.225 289.819C375.959 289.026 376.701 288.234 377.436 287.435C383.298 287.373 385.323 290.2 383.73 295.77C382.898 295.827 382.073 295.884 381.241 295.941C378.537 294.587 376.703 292.37 375.225 289.819Z"
        fill="#8D7457" />
    <path
        d="M355.057 177.227C354.348 175.886 353.639 174.551 352.93 173.21C349.534 168.98 350.053 164.66 352.614 160.291C353.323 159.63 354.025 158.962 354.733 158.301C354.841 164.61 354.949 170.918 355.05 177.234L355.057 177.227Z"
        fill="#89725C" />
    <path
        d="M275.83 355.529C277.407 353.062 278.572 349.369 282.33 353.327C282.903 354.828 283.469 356.322 284.035 357.823C281.249 357.233 278.172 357.706 275.83 355.529Z"
        fill="#857056" />
    <path
        d="M17.1835 493.281C14.9821 493.985 12.297 493.181 10.6005 495.422C8.60162 495.752 5.73033 496.216 5.2618 494.205C4.61284 491.398 7.6348 491.517 9.45318 491.691C12.0568 491.938 14.611 492.723 17.1835 493.281Z"
        fill="#AE837C" />
    <path
        d="M309.033 131.88C308.963 130.47 308.893 129.06 308.823 127.651C307.503 123.158 308.064 118.947 310.699 115.046C310.456 120.691 313.051 126.615 309.026 131.887L309.033 131.88Z"
        fill="#775F46" />
    <path
        d="M312.179 33.8081C315.676 32.0027 310.839 26.7419 315.642 25.48C316.854 28.8251 317.138 32.2418 316.452 35.7308C315.05 37.1562 313.64 38.5748 312.238 40.0002C310.4 37.9554 310.378 35.8914 312.173 33.8082L312.179 33.8081Z"
        fill="#604B33" />
    <path
        d="M296.191 269.66C297.458 270.988 298.724 272.317 299.983 273.645C296.569 272.8 297.995 280.148 293.501 277.477C294.395 274.874 295.297 272.27 296.191 269.667L296.191 269.66Z"
        fill="#745F46" />
    <path
        d="M293.811 288.63C294.736 286.934 296.25 286.278 298.1 286.231C299.702 288.719 302.29 288.175 304.639 288.357C301.073 290.184 297.506 291.9 293.811 288.636L293.811 288.63Z"
        fill="#6A563E" />
    <path
        d="M367.773 145.337C366.087 145.403 364.356 145.621 363.352 143.774C365.541 141.232 367.905 139.033 371.662 139.674C370.368 141.56 369.067 143.452 367.773 145.337Z"
        fill="#55432B" />
    <path
        d="M349.091 379.56C347.2 378.376 345.921 376.469 346.54 374.502C346.793 373.694 349.476 373.652 351.047 373.257C351.589 375.728 351.013 377.854 349.091 379.553L349.091 379.56Z"
        fill="#73583E" />
    <path
        d="M343.498 269.16C341.847 269.136 340.445 268.641 339.582 267.109C338.859 264.44 338.143 261.778 337.419 259.109C340.64 261.738 342.561 265.151 343.498 269.16Z"
        fill="#7C664B" />
    <path
        d="M336.235 342.313C336.256 342.96 336.269 343.599 336.269 344.246C332.869 345.438 329.918 344.829 327.507 342.048C330.504 339.133 333.369 340.706 336.228 342.306L336.235 342.313Z"
        fill="#342213" />
    <path
        d="M310.587 63.4332C308.03 58.5267 312.163 56.9554 314.933 54.6967C314.141 57.9322 313.516 61.2554 310.587 63.4332Z"
        fill="#614B32" />
    <path
        d="M398.129 283.171C395.362 281.115 392.657 283.05 389.928 283.299C387.699 282.689 386.98 280.392 385.295 279.171C384.696 278.489 384.09 277.815 383.485 277.133C384.171 274.979 384.856 272.818 385.535 270.657C386.196 269.962 386.856 269.274 387.516 268.585C390.297 267.441 390.404 269.683 390.992 271.308C390.827 274.592 393.081 275.559 395.716 276.178C397.937 278.026 400.515 279.746 398.129 283.164L398.129 283.171Z"
        fill="#644C2F" />
    <path
        d="M398.129 283.17C398.193 280.107 396.781 278.051 393.921 276.973C390.072 277.984 390.921 274.383 389.775 272.744C389.709 270.983 389.279 269.433 387.523 268.591C387.427 267.966 387.338 267.341 387.262 266.715C386.201 263.94 387.784 262.107 389.534 260.327L389.8 260.11C389.786 269.799 401.749 274.792 399.672 285.286C399.155 284.583 398.646 283.873 398.129 283.163L398.129 283.17Z"
        fill="#745D43" />
    <path
        d="M389.534 260.327C388.779 262.454 388.024 264.582 387.269 266.716C383.882 263.986 381.085 261.029 383.236 256.183C385.498 257.315 386.358 260.588 389.541 260.327L389.534 260.327Z"
        fill="#624B30" />
    <path
        d="M265.32 340.826C266.688 339.421 268.056 338.017 269.424 336.606C269.886 336.064 270.311 335.901 270.719 336.124C271.107 336.333 271.302 336.538 271.304 336.744C269.762 343.82 275.761 339.153 277.678 340.839C277.114 342.235 276.551 343.631 275.995 345.027C273.798 345.491 271.606 345.087 269.416 344.98C268.053 343.597 266.683 342.215 265.32 340.833L265.32 340.826Z"
        fill="#836E54" />
    <path
        d="M269.415 344.973C271.63 342.321 273.817 342.215 275.994 345.02L275.962 345.936L276.034 346.843C272.565 350.685 271.139 347.294 269.415 344.973Z"
        fill="#99866C" />
    <path
        d="M323.207 94.1265C327.02 89.6618 330.558 84.5738 337.733 87.6837C338.443 88.4331 338.603 89.2915 338.221 90.2589C335.291 92.2853 334.128 94.2793 338.346 96.1683C338.515 97.1917 338.297 98.1092 337.625 98.9145C334.381 100.58 330.942 100.767 327.414 100.295C324.206 98.1894 319.369 104.653 316.962 98.3073L316.962 98.321C318.515 96.1371 320.109 94.0079 323.207 94.1334L323.207 94.1265Z"
        fill="#7A5D46" />
    <path
        d="M354.506 104.295C357.213 112.4 350.318 111.083 346.337 112.611C345.696 112.528 345.048 112.466 344.401 112.418C342.389 110.877 340.665 109.231 342.053 106.374L342.108 106.415C344.34 104.052 347.32 103.435 350.335 102.874C351.896 102.836 353.358 103.138 354.574 104.212L354.506 104.302L354.506 104.295Z"
        fill="#8D785E" />
    <path
        d="M327.408 100.288C330.566 98.2664 334.127 98.0291 337.725 97.9636C339.39 96.5973 341.25 96.1442 343.12 97.3354C344.907 98.4794 344.463 100.012 343.405 101.482C342.967 101.748 342.53 102.014 342.085 102.273C336.746 104.917 332.025 102.923 327.401 100.288L327.408 100.288Z"
        fill="#543D26" />
    <path
        d="M342.053 106.375C342.838 108.389 343.616 110.411 344.401 112.426C339.525 115.223 336.367 112.043 332.94 109.389C335.189 105.34 338.92 106.807 342.053 106.375Z"
        fill="#795C45" />
    <path
        d="M350.41 104.186C348.282 107.298 344.987 106.081 342.108 106.414C342.1 105.031 342.099 103.655 342.091 102.272C345.404 100.558 348.788 98.52 350.41 104.18L350.41 104.186Z"
        fill="#816A50" />
    <path
        d="M315.547 114.788C316.014 110.874 307.341 111.867 310.97 106.256C311.565 106.531 312.186 106.697 312.84 106.738C314.464 108.737 316.089 110.736 317.713 112.735C316.991 113.417 316.269 114.106 315.547 114.788Z"
        fill="#E9DFDC" />
    <path
        d="M340.55 173.122C342.224 167.489 343.802 161.775 350.898 160.647C351.451 169.373 351.825 178.039 342.944 183.473L342.999 183.506C341.693 182.364 340.449 181.166 339.915 179.438C339.424 177.262 340.221 175.217 340.55 173.122Z"
        fill="#89725C" />
    <path
        d="M342.943 183.471C350.919 177.717 347.886 168.123 350.897 160.646C351.473 160.537 352.043 160.421 352.613 160.291C352.714 164.597 352.821 168.903 352.929 173.21C350.863 175.041 349.841 177.316 349.63 180.084C349.28 184.774 347.254 186.467 342.936 183.471L342.943 183.471Z"
        fill="#654F39" />
    <path
        d="M328.273 177.538C328.251 176.802 328.223 176.066 328.201 175.33C328.239 174.992 328.221 174.635 328.314 174.317C329.257 171.053 329.879 166.711 333.409 166.075C338.388 165.176 335.055 172.099 338.686 173.224C340.88 175.678 339.399 177.565 337.747 179.426C336.934 179.944 336.048 180.126 335.104 179.964C332.586 179.419 334.846 173.87 330.335 175.404C329.648 176.113 328.967 176.829 328.28 177.538L328.273 177.538Z"
        fill="#58442E" />
    <path
        d="M336.563 179.431C337.271 177.359 337.978 175.287 338.686 173.222C339.305 173.181 339.931 173.147 340.549 173.12C343.997 175.058 341.385 177.267 340.829 179.385C339.419 180.777 338 180.571 336.563 179.431Z"
        fill="#735D46" />
    <path
        d="M323.005 273.464C325.897 273.688 329.132 272.442 331.379 275.425C329.421 278.329 321.763 277.075 325.179 283.906C321.899 282.173 318.613 280.446 315.25 278.672C316.837 274.533 320.858 275.475 322.998 273.464L323.005 273.464Z"
        fill="#3B2C17" />
    <path
        d="M329.259 263.001C330.755 268.503 326.571 269.71 322.948 271.345C321.544 271.353 320.147 271.354 318.744 271.362C318.746 269.662 318.352 268.153 316.746 267.234C316.66 261.751 322.728 262.265 324.839 258.926C328.7 257.694 327.262 262.203 329.252 263.001L329.259 263.001Z"
        fill="#7C664B" />
    <path
        d="M304.455 280.039C303.941 270.542 310.681 271.503 316.757 271.508C312.023 273.443 311.872 281.977 304.455 280.039Z"
        fill="#7C664B" />
    <path
        d="M247.441 426.543C249.788 424.048 252.114 421.464 255.834 424.438C255.596 429.278 257.181 434.773 250.958 437.688C248.712 434.243 247.339 430.639 247.441 426.543Z"
        fill="#65553D" />
    <path
        d="M271.304 336.744C270.678 336.73 270.051 336.681 269.424 336.612C269.315 335.395 269.213 334.179 269.11 332.962C268.195 329.655 265.821 327.753 262.842 326.429C262.229 326.436 261.643 326.311 261.083 326.083C266.498 319.51 272.224 322.89 277.31 326.18C279.513 327.609 280.409 331.06 282.077 333.891C278.276 334.895 274.79 335.819 271.304 336.744Z"
        fill="#382A17" />
    <path
        d="M290.049 119.482C290.09 120.183 290.132 120.892 290.174 121.593C290.879 123.189 290.024 124.319 289.045 125.424C286.523 128.382 282.885 129.838 279.917 132.195L279.848 132.161C274.335 132.089 271.074 130.183 275.898 125.04C279.484 121.217 283.417 116.387 290.049 119.489L290.049 119.482Z"
        fill="#947C66" />
    <path
        d="M207.569 404.032C203.843 405.654 203.264 408.818 203.473 412.374C203.683 415.915 203.111 419.093 199.454 420.79C196.826 416.297 197.86 411.194 197.052 406.4C196.847 403.925 197.008 401.577 199.303 399.977C203.535 398.742 202.388 393.655 205.365 391.525C212.821 394.508 204.302 400.316 207.569 404.039L207.569 404.032Z"
        fill="#56432A" />
    <path
        d="M245.304 420.298C244.621 417.552 243.938 414.807 243.256 412.062C247.446 411.412 250.268 413.44 250.66 417.337C251.022 420.987 247.502 419.965 245.311 420.298L245.304 420.298Z"
        fill="#8B7F66" />
    <path
        d="M291.599 50.7595C289.224 47.3854 286.147 44.0395 291.131 40.3399C292.429 41.4133 292.693 44.8716 295.583 42.2745C298.016 40.7419 297.508 38.2564 297.621 35.9776C299.124 34.2346 298.517 29.5689 303.071 32.0392C303.841 32.6159 304.426 33.346 304.828 34.2225C305.16 35.6983 304.947 37.0286 303.754 38.0871C297.717 40.4079 299.478 50.2151 291.592 50.7595L291.599 50.7595Z"
        fill="#5A412C" />
    <path
        d="M291.201 23.4739C290.544 26.4053 293.104 31.0503 287.527 31.3913C284.88 31.5501 282.732 29.481 283.301 26.7295C284.224 22.261 287.483 21.965 291.194 23.4809L291.201 23.4739Z"
        fill="#AE9582" />
    <path
        d="M343.73 277.435C343.67 279.493 343.609 281.558 343.548 283.616C341.609 279.15 337.027 277.988 333.465 275.548C336.982 275.662 340.994 273.088 343.73 277.435Z"
        fill="#3B2C17" />
    <path
        d="M301.485 10.8913C302.876 18.0946 313.669 22.336 308.064 31.7464C307.878 34.9961 306.313 35.3086 303.853 33.7176L303.867 33.7518C301.123 30.6638 298.995 27.1908 297.461 23.3538C297.64 18.8243 289.921 11.7429 301.485 10.8844L301.485 10.8913Z"
        fill="#8F765E" />
    <path
        d="M297.461 23.3604C301.592 25.5943 302.9 29.5713 303.867 33.7584C300.762 31.6375 299.436 34.4934 297.615 35.9851C297.57 31.7814 297.512 27.5709 297.461 23.3673L297.461 23.3604Z"
        fill="#675039" />
    <path
        d="M303.859 33.7178C305.558 33.6998 307.096 33.3257 308.063 31.7467C309.433 32.434 310.802 33.1214 312.179 33.8156C312.201 35.8796 312.223 37.9436 312.245 40.0077C310.242 45.8019 307.874 37.9621 305.778 40.1793C305.104 39.4846 304.436 38.7829 303.768 38.0881C303.8 36.6359 303.833 35.1768 303.873 33.7245L303.859 33.7178Z"
        fill="#675039" />
    <path
        d="M304.02 56.7387C304.173 54.2806 304.677 51.805 307.423 51.2187C309.421 50.7916 308.932 52.7028 309.006 53.8992C309.265 58.197 305.899 56.1615 304.041 56.7591L304.02 56.7387Z"
        fill="#614B32" />
    <path
        d="M350.41 104.187C348.183 101.176 344.969 102.435 342.084 102.28C344.28 97.1512 340.362 98.2041 337.725 97.9705C337.773 97.3232 337.8 96.6761 337.814 96.0291C339.062 94.3439 340.889 93.9736 342.807 93.8089C346.434 93.9012 349.979 94.6688 353.562 95.1608C353.923 95.4322 354.284 95.7036 354.644 95.9819C354.322 98.7239 352.61 101.453 354.573 104.212C353.183 104.206 351.8 104.2 350.41 104.194L350.41 104.187Z"
        fill="#685138" />
    <path
        d="M350.35 87.4528C350.627 90.8766 361.623 88.8887 354.652 95.974L354.388 95.7842C350.992 94.1136 347.657 92.4149 350.132 87.6684L350.357 87.4527L350.35 87.4528Z"
        fill="#685138" />
    <path
        d="M324.846 258.934C325.502 264.968 319.157 264.189 316.753 267.242L316.513 267.354C312.315 267.296 308.26 266.389 304.217 265.372L304.106 265.284C304.105 263.921 304.105 262.559 304.104 261.203C306.436 261.186 308.883 261.531 310.44 259.141C314.542 257.24 318.678 257.375 322.851 258.886C323.518 258.899 324.186 258.913 324.846 258.934Z"
        fill="#8F7A60" />
    <path
        d="M322.851 258.879C318.716 258.964 314.575 259.049 310.44 259.134C314.504 255.623 318.649 255.847 322.851 258.879Z"
        fill="#7C664B" />
    <path
        d="M304.827 129.75C303.452 131.85 302.071 133.942 300.696 136.042L300.572 136.029C299.087 134.793 297.074 135.763 295.509 134.824C293.378 133.738 291.506 132.423 291.183 129.784C291.402 127.133 292.858 125.521 295.368 124.8C298.288 125.643 299.311 123.526 300.433 121.553C303.46 123.448 302.826 127.301 304.827 129.743L304.827 129.75Z"
        fill="#775F46" />
    <path
        d="M296.207 125.492C294.867 126.93 293.534 128.369 292.193 129.807C291.252 131.269 289.926 132.026 288.171 131.997C287.427 131.984 286.677 131.971 285.934 131.952C283.322 128.339 286.893 126.327 288.069 123.7C288.77 122.997 289.472 122.295 290.166 121.586C292.464 121.541 294.861 121.164 296.373 123.557C297.027 124.265 296.965 124.906 296.194 125.485L296.207 125.492Z"
        fill="#4E3A23" />
    <path
        d="M296.208 125.492C296.283 124.851 296.339 124.211 296.387 123.563C297.735 122.895 299.084 122.221 300.432 121.553C300.149 124.074 301.766 128.64 296.208 125.492Z"
        fill="#8A6F59" />
    <path
        d="M199.296 399.97C199.156 402.325 199.499 404.846 197.046 406.393C196.391 406.331 195.744 406.269 195.089 406.2C192.98 404.53 190.908 407.07 188.801 406.267C187.098 405.335 186.758 403.756 186.774 402.008C191.938 393.194 192.007 393.187 199.11 399.862L199.29 399.977L199.296 399.97Z"
        fill="#6B5538" />
    <path
        d="M188.808 406.26C190.879 403.658 192.969 403.477 195.096 406.194C190.762 410.175 192.668 416.699 189.094 420.989C188.945 419.263 188.598 417.636 186.868 416.739C187.146 413.709 186.174 411.008 184.682 408.45C186.394 408.35 187.959 407.975 188.815 406.26L188.808 406.26Z"
        fill="#56432A" />
    <path
        d="M199.116 399.855C194.16 395.724 190.368 398.282 186.781 402.001C186.719 400.688 186.65 399.381 186.581 398.074C186.677 394.069 185.963 389.755 190.556 387.422C194.05 388.644 196.602 391.163 199.154 393.675C199.142 395.733 199.129 397.79 199.116 399.848L199.116 399.855Z"
        fill="#846D50" />
    <path
        d="M199.154 393.682C195.239 393.042 191.317 392.41 190.555 387.429C190.796 384.77 192.274 383.372 194.914 383.179C200.158 385.139 198.282 389.969 199.147 393.689L199.154 393.682Z"
        fill="#958065" />
    <path
        d="M338.895 198.212C337.499 198.227 336.102 198.234 334.712 198.242C334.718 196.866 334.717 195.497 334.724 194.12C332.03 190.564 334.034 188.079 336.651 185.74C337.311 185.01 337.977 184.281 338.637 183.558C338.728 184.961 338.811 186.364 338.902 187.767C339.7 189.719 341.588 190.587 343.033 191.893C343.016 194.886 341.662 197.006 338.902 198.205L338.895 198.212Z"
        fill="#735D46" />
    <path
        d="M336.563 179.432C337.987 179.417 339.405 179.402 340.829 179.387C342.49 180.27 342.871 181.815 342.992 183.506C341.561 183.535 340.13 183.564 338.699 183.593C338.024 182.884 337.356 182.176 336.681 181.474C335.635 180.831 335.656 180.143 336.591 179.411L336.563 179.439L336.563 179.432Z"
        fill="#654F39" />
    <path
        d="M343.032 191.899C340.307 191.873 338.876 190.546 338.902 187.773C339.012 190.414 346.51 185.67 343.032 191.899Z"
        fill="#654F39" />
    <path
        d="M288.171 131.997C289.007 130.33 290.523 129.929 292.194 129.808C293.64 131.217 295.086 132.626 296.532 134.028C295.774 137.779 295.854 142.155 290.359 142.433C288.93 142.641 287.425 144.769 286.092 142.272C285.585 138.603 291.188 136.17 288.171 131.997Z"
        fill="#654F38" />
    <path
        d="M288.077 123.708C287.363 126.461 286.655 129.207 285.941 131.96C283.933 132.036 281.925 132.119 279.916 132.195C281.791 128.549 284.353 125.57 288.077 123.708Z"
        fill="#654F38" />
    <path
        d="M381.59 276.808C380.869 277.587 380.154 278.358 379.433 279.136C376.649 280.673 375.203 277.991 373.164 277.159L373.074 277.07C375.231 274.089 378.422 275.252 381.261 275.043C381.405 275.627 381.515 276.217 381.59 276.808Z"
        fill="#967D62" />
    <path
        d="M304.21 265.365C309.047 261.461 312.793 264.311 316.507 267.348C311.941 269.57 307.252 272.537 304.21 265.365Z"
        fill="#A28F77" />
    <path
        d="M336.652 185.747C336.007 188.541 335.369 191.334 334.724 194.128C330.389 196.1 330.353 193.321 330.473 190.306C330.635 186.189 331.797 183.486 336.645 185.747L336.652 185.747Z"
        fill="#9D8874" />
    <path
        d="M336.591 179.403C336.625 180.091 336.66 180.779 336.681 181.467C332.036 182.087 333.047 176.792 330.328 175.396C335.96 171.187 333.422 179.753 336.591 179.403Z"
        fill="#735D46" />
    <path
        d="M337.671 89.6113C337.699 88.9711 337.719 88.3241 337.733 87.684C338.414 87.6424 339.095 87.5871 339.768 87.518C341.867 86.2366 343.951 82.2787 346.105 87.4717C344.573 93.5981 343.482 93.8779 337.671 89.6182L337.671 89.6113Z"
        fill="#836E54" />
    <path
        d="M323.207 94.1268C321.123 95.525 319.046 96.9162 316.962 98.3145C316.975 96.9313 316.988 95.5412 317.001 94.158C319.065 93.5375 321.121 90.8116 323.207 94.1268Z"
        fill="#6A4A33" />
    <path
        d="M290.359 142.432C292.414 139.631 294.476 136.829 296.532 134.028C298.204 134.037 299.748 134.296 300.571 136.028C295.948 137.392 297.416 146.101 290.34 144.504C290.346 143.816 290.352 143.121 290.352 142.433L290.359 142.432Z"
        fill="#836C55" />
    <path
        d="M385.296 279.171C387.614 279.676 389.02 281.203 389.929 283.299L389.939 284.221C389.939 284.221 389.956 285.136 389.963 285.135C389.787 287.38 390.357 289.852 388.068 291.465C388.435 287.078 386.721 283.161 385.303 279.178L385.296 279.171Z"
        fill="#624B30" />
    <path
        d="M262.834 326.429C267.279 326.348 269.427 328.465 269.103 332.955C267.828 332.081 266.552 331.2 265.27 330.319C264.458 329.02 263.639 327.721 262.827 326.422L262.834 326.429Z"
        fill="#4D3C25" />
    <path
        d="M373.164 277.159C375.255 277.818 377.34 278.477 379.432 279.136C380.332 284.817 390.001 288.238 383.73 295.77C383.507 291.575 380.73 289.313 377.435 287.442C376.009 284.017 374.59 280.585 373.164 277.159Z"
        fill="#A2896F" />
    <path
        d="M337.671 89.6114C340.707 89.7857 344.433 92.6913 346.105 87.4717C346.766 87.5473 347.427 87.616 348.089 87.6847C351.057 92.5456 346.895 93.8625 344.039 95.8263C341.969 95.8963 339.898 95.9595 337.828 96.0296L328.987 96.123C329.108 89.3166 335.087 91.9369 337.678 89.6182L337.671 89.6114Z"
        fill="#937D65" />
    <path
        d="M344.033 95.8259C345.27 93.0536 348.464 91.2583 348.083 87.6843C348.763 87.6083 349.444 87.6011 350.126 87.6627C350.114 91.117 353.189 92.9561 354.382 95.7784C350.94 98.9387 347.478 96.2711 344.026 95.8191L344.033 95.8259Z"
        fill="#836E54" />
    <path
        d="M389.783 272.745C391.167 274.155 392.545 275.565 393.929 276.974C389.741 278.484 389.115 277.844 389.783 272.745Z"
        fill="#624B30" />
</svg>
