<svg width="782" height="1122" viewBox="0 0 782 1122" fill="none" xmlns="http://www.w3.org/2000/svg">
<g clip-path="url(#clip0_4187_1645)">
<path d="M20.4404 1080.73C20.4404 1080.73 -32.0682 754.386 34.1792 704.512C100.615 654.638 128.281 865.99 128.281 865.99C128.281 865.99 131.104 353.325 227.84 289.713C324.576 226.1 283.172 461.166 283.172 461.166C283.172 461.166 496.217 -105.89 692.513 18.7007C888.808 143.103 532.164 353.325 532.164 353.325C532.164 353.325 767.229 226.1 781.156 314.556C795.083 403.011 427.147 613.233 427.147 613.233C427.147 613.233 609.703 591.025 606.88 676.846C604.057 762.666 266.61 865.99 266.61 865.99C266.61 865.99 399.293 828.914 391.012 887.069C382.731 945.223 64.6681 1028.79 64.6681 1121.19C64.6681 1121.19 24.0162 1105.2 20.4404 1080.73Z" fill="#52966D"/>
<path d="M183.142 838.063L186.281 839.529L186.304 839.479L186.326 839.428L183.142 838.063ZM510.099 268.872C511.452 267.519 511.452 265.325 510.099 263.972C508.746 262.619 506.552 262.619 505.2 263.972L510.099 268.872ZM186.326 839.428C221.873 756.512 279.71 636.943 340.268 526.499C400.905 415.914 464.019 314.952 510.099 268.872L505.2 263.972C458.316 310.856 394.772 412.687 334.193 523.168C273.536 633.79 215.6 753.56 179.958 836.698L186.326 839.428ZM180.003 836.597C167.846 862.633 149.582 895.428 132.269 926.225C115.018 956.913 98.6539 985.714 90.4939 1003.49L96.7912 1006.38C104.799 988.936 120.963 960.477 138.309 929.621C155.593 898.875 173.994 865.845 186.281 839.529L180.003 836.597Z" fill="#5FBB84"/>
<path d="M576.284 421.131C578.178 420.856 579.489 419.097 579.214 417.204C578.938 415.311 577.18 413.999 575.286 414.275L576.284 421.131ZM340.667 529.319C372.782 512.307 423.149 486.469 469.854 464.253C493.209 453.144 515.616 442.956 534.352 435.234C553.219 427.457 568 422.337 576.284 421.131L575.286 414.275C566.025 415.623 550.478 421.093 531.712 428.828C512.815 436.617 490.284 446.862 466.878 457.996C420.058 480.266 369.6 506.151 337.423 523.196L340.667 529.319Z" fill="#5FBB84"/>
<path d="M227.025 744.517C278.203 726.809 392.119 691.395 438.359 691.395" stroke="#5FBB84" stroke-width="6.92898"/>
<path d="M217.787 758.958C210.665 683.124 200.695 523.719 217.787 492.77" stroke="#5FBB84" stroke-width="6.92898" stroke-linecap="round"/>
</g>
<defs>
<clipPath id="clip0_4187_1645">
<rect width="780.665" height="1120.37" fill="white" transform="translate(0.679688 0.8125)"/>
</clipPath>
</defs>
</svg>
