<svg width="550" height="573" viewBox="0 0 550 573" fill="none" xmlns="http://www.w3.org/2000/svg">
    <g clip-path="url(#clip0_2396_24329)">
        <path
            d="M120.457 350.154C126.117 347.665 132.198 347.222 139.015 346.506C133.885 342.144 128.164 339.946 123.155 336.649C122.346 334.71 123.494 333.646 124.913 332.702C130.96 333.164 135.157 337.774 140.506 339.471C137.833 334.874 134.059 330.603 132.644 325.053C133.389 323.231 134.634 322.61 136.485 323.445C145.077 339.06 155.326 353.364 169.699 364.65C166.628 358.99 166.921 352.506 164.804 346.579C162.291 339.54 162.576 332.426 165.336 325.537C167.155 320.995 170.646 316.092 175.129 316.524C178.638 316.862 178.989 323.06 179.759 327.008C181.322 335.029 178.965 342.243 174.072 348.446C170.381 353.127 170.64 357.638 173.039 362.461C176.785 369.991 181.369 376.987 186.462 383.686C189.56 387.761 192.207 392.176 195.565 397.191C194.48 387.58 193.299 378.812 194.264 369.973C194.372 368.98 193.81 368.276 193.332 367.481C187.25 357.373 190.113 339.601 198.883 332.094C201.021 330.265 202.547 330.262 203.951 332.773C208.843 341.54 211.39 357.694 201.272 367.217C198.809 369.536 198.508 372.566 198.379 375.633C198.014 384.423 199.794 392.952 201.886 401.398C203.095 406.276 204.573 411.109 206.283 415.834C209.441 424.547 213.45 432.939 216.918 441.843C216.938 439.426 216.879 437.004 216.991 434.59C218.142 409.733 219.409 384.884 222.176 360.138C222.577 356.536 221.077 353.222 219.676 350.043C216.296 342.367 212.795 334.737 209.114 327.201C206.51 321.872 201.787 318.546 196.513 316.449C183.921 311.447 170.984 307.386 158.478 302.08C152.095 299.372 144.683 300.11 137.94 298.004C128.768 295.139 119.058 293.247 111.385 287.243C104.559 281.9 97.0129 278.154 89.5529 273.987C79.4029 268.312 74.4476 258.825 74.1544 247.093C74.0647 243.472 75.8865 241.936 79.3801 242.941C83.8132 244.218 88.1079 246.074 91.1408 249.676C97.3031 256.994 101.997 265.138 103.397 274.79C103.646 276.511 104.529 277.484 105.626 278.565C112.38 285.205 120.881 288.495 129.703 291.115C134.57 292.561 139.514 293.758 144.915 294.117C143.24 292.658 141.57 291.194 139.89 289.739C130.243 281.383 121.414 272.389 116.95 260.038C116.291 258.213 114.813 257.693 113.269 256.95C101.389 251.242 94.9223 232.296 100.759 220.513C102.985 216.015 104.388 215.64 108.35 218.88C115.283 224.551 118.016 232.423 119.18 240.906C119.756 245.109 120.213 249.412 119.336 253.667C119.071 254.962 119.366 256.097 119.974 257.176C126.75 269.187 134.453 280.406 147.071 288.415C142.429 277.813 140.36 267.363 141.114 256.403C141.281 253.992 139.15 252.358 138.09 250.372C131.65 238.287 134.305 223.472 144.36 216.067C147.842 213.5 149.336 213.697 150.725 217.839C155.022 230.627 156.749 243.211 146.106 254.172C145.5 254.794 144.906 255.704 144.834 256.529C143.878 267.606 146.575 277.814 152.1 287.343C151.661 281.899 152.222 276.684 154.116 271.618C155.659 270.64 157.02 270.304 157.626 272.618C154.965 281.153 153.897 289.722 161.4 296.303C165.957 300.297 172.116 301.916 177.71 304.293C186.228 307.913 195.338 310.076 204.228 315.279C202.035 309.429 200.085 304.309 198.187 299.167C188.016 271.585 177.791 244.031 164.982 217.522C161.394 210.095 157.318 202.983 152.601 196.214C151.208 194.215 149.689 193.084 147.152 192.687C140.545 191.655 134.002 190.216 127.434 188.939C126.178 187.674 126.328 186.426 127.472 185.183C133.43 186.54 139.322 188.291 146.304 188.512C142.288 182.894 138.405 178.251 132.781 175.338C133.15 172.682 134.891 172.013 137.253 172.246C141.205 175.526 144.818 179.144 148.389 183.881C149.504 177.884 148.025 172.655 147.959 167.416C148.529 165.161 149.609 165.68 150.814 166.891C151.437 173.715 152.067 180.539 152.679 187.366C152.789 188.585 152.936 189.699 153.721 190.782C168.5 211.152 176.985 234.596 186.237 257.665C188.82 264.111 191.408 270.553 194.363 276.962C194.847 267.532 197.093 258.377 197.63 249.06C198.056 241.652 194.208 235.256 191.361 228.699C189.644 224.749 187.134 221.908 183.132 219.55C172.896 213.517 166.611 204.741 168.213 191.994C168.896 186.553 170.448 185.4 175.769 186.636C178.169 187.195 180.366 188.242 182.143 190.035C190.096 198.071 194.154 207.531 192.603 218.985C192.348 220.869 192.37 222.513 193.447 224.214C195.47 227.404 197.283 230.727 199.666 233.91C201.277 224.861 201.895 215.879 201.169 206.791C200.794 202.093 199.459 198.529 195.4 195.201C185.185 186.826 182.295 172.03 187.861 161.667C190.202 157.308 191.912 156.797 195.627 160.073C205.604 168.874 207.317 180.445 205.336 192.707C204.602 197.262 204.07 201.477 204.884 206.103C207.081 218.578 205.626 231.051 203.999 243.487C202.42 255.586 200.921 267.694 199.379 279.798C198.609 285.83 199.472 291.551 201.764 297.245C207.579 311.687 213.584 326.039 220.631 339.928C221.495 341.635 222.599 343.218 223.66 344.978C225.259 343.385 225.33 341.842 225.469 340.354C227.816 315.431 231.348 290.595 232.111 265.549C232.86 240.996 232.556 216.461 229.197 192.028C227.144 177.09 220.452 164.195 212.914 151.572C209.476 145.813 205.683 140.266 202.289 134.486C196.561 124.722 186.58 119.805 178.288 112.959C176.711 111.657 175.813 113.344 174.582 113.525C173.969 110.505 175.772 108.995 178.135 107.839C181.379 112.435 186.869 113.839 191.488 116.775C188.427 112.153 185.359 107.534 182.311 102.904C181.413 101.539 180.039 101.734 178.688 101.516C177.09 101.258 175.347 100.978 174.391 99.3284C174.245 99.023 174.226 98.572 174.383 98.5612C177.876 98.3075 181.305 98.658 184.655 99.6972C183.855 102.61 186.372 104.04 187.667 105.865C190.194 109.422 192.626 113.103 196.963 117.083C196.027 109.278 196.085 102.503 194.004 95.9303C195.33 92.9063 197.399 93.1491 199.75 94.6137C198.389 96.0884 197.602 97.511 197.98 99.8236C199.308 107.928 199.693 116.229 201.562 124.192C203.021 130.413 207.586 135.332 211.804 140.928C214.177 134.481 216.204 128.321 220.172 123.105C221.285 121.646 219.698 120.606 219.033 119.507C214.43 111.882 212.212 103.872 215.065 95.0478C215.485 93.75 215.972 92.4438 216.637 91.2575C217.608 89.5245 218.687 87.7056 221.023 87.7151C223.39 87.7257 224.427 89.6201 225.282 91.3771C227.384 95.6793 228.619 100.229 228.397 105.074C228.26 108.093 228.014 111.106 227.728 115.44C233.461 110.247 240.168 108.334 244.94 103.252C251.179 96.6084 258.62 92.1722 267.94 91.2708C270.451 91.0276 272.772 91.496 275.166 91.9409C282.625 93.3279 283.411 95.2653 278.876 101.492C272.994 109.572 264.002 111.29 255.479 109.882C239.616 107.26 230.945 116.432 222.496 127.151C230.506 122.454 240.005 123.371 248.434 119.125C259.365 113.624 271.077 113.656 281.265 122.687C286.107 126.977 286.114 129.95 280.174 132.033C266.884 136.698 253.936 136.57 241.966 128.038C240.699 127.135 239.345 127.142 238.034 127.361C230.75 128.571 224.414 131.559 219.566 137.355C215.903 141.731 215.531 146.622 217.834 151.497C220.346 156.811 223.467 161.837 226.804 167.859C227.131 162.063 227.341 157.119 228.432 152.293C230.54 149.798 232.786 148.944 235.326 151.725C233.124 152.588 232.376 154.249 231.938 156.557C230.159 165.88 231.516 175.148 232.669 184.307C233.482 190.761 234.43 197.265 236.057 203.85C238.722 197.95 244.149 193.466 243.31 185.859C241.845 172.616 249.794 163.994 260.595 159.093C264.315 157.404 266.021 158.878 265.888 162.862C265.466 175.518 260.902 185.696 248.784 191.285C247.73 191.773 247.068 192.454 246.509 193.386C241.919 201.018 237.924 209.083 236.806 217.873C235.995 224.246 237.297 230.891 237.732 238.754C241.706 231.765 244.871 225.788 249.302 220.665C251.217 220.418 252.275 220.979 251.64 223.143C241.676 234.506 238.664 248.453 237.343 262.862C235.02 288.252 235.131 313.795 232.792 339.191C232.148 346.168 231.845 353.179 231.387 360.17C232.46 360.102 232.285 358.561 232.804 357.638C237.135 349.924 241.096 341.977 245.826 334.522C250.063 327.846 252.198 320.659 252.696 312.991C253.22 304.929 253.371 296.829 252.773 288.742C252.469 284.639 249.339 282.054 247.505 278.792C243.18 271.105 244.038 258.765 249.619 251.998C252.639 248.337 254.143 248.38 257.088 252.112C260.458 256.382 261.87 261.306 261.694 266.636C261.475 273.227 260.672 279.733 257.165 285.563C256.343 286.931 256.127 288.398 256.311 289.968C257.322 298.634 257.223 307.32 256.533 316.045C258.285 316.316 258.55 314.809 259.214 313.967C261.676 310.859 263.659 307.27 266.498 304.579C275.139 296.383 276.209 286.121 275.363 275.174C275.257 273.805 275.208 272.43 275.204 271.059C275.197 265.857 274.874 260.993 273.221 255.706C269.994 245.38 271.137 234.771 279.106 226.178C282.666 222.338 284.257 222.591 286.364 227.216C291.518 238.529 290.022 249.403 282.76 259.096C280.064 262.696 278.754 266.009 278.947 270.263C279.198 275.683 279.356 281.108 279.591 287.51C283.892 282.45 287.646 278.115 291.314 273.709C296.583 267.379 301.411 260.631 307.113 254.728C315.7 245.836 316.714 235.089 316.129 223.737C315.961 220.49 316.576 216.825 312.684 215.005C315.563 214.455 318.212 212.517 321.356 213.566C319.201 216.005 318.761 218.65 319.354 221.944C320.32 227.325 320.185 232.832 319.226 239.166C328.359 230.78 333.509 221.281 335.02 209.921C335.712 204.718 333.222 200.556 329.739 196.843C324.697 191.465 318.696 187.25 312.923 182.768C309.544 180.145 306.081 177.665 303.39 174.282C302.326 172.944 300.96 172.197 299.292 171.601C288.216 167.638 281.314 152.382 285.383 141.188C286.631 137.759 288.261 136.901 291.891 138.857C302.895 144.784 305.249 155.027 305.485 165.986C305.581 170.399 307.145 173.238 310.146 175.749C315.636 180.35 321.249 184.804 326.735 189.411C330.002 192.155 332.882 195.301 335.822 199.26C336.46 195.516 336.444 192.272 335.966 189.098C334.836 181.564 333.902 173.996 331.773 166.626C331.134 164.419 330.151 162.887 328.454 161.449C317.648 152.272 315.058 136.293 322.122 124.048C323.908 120.95 325.557 120.347 328.575 122.58C339.609 130.741 343.357 151.097 335.678 162.632C334.88 163.83 334.84 164.666 335.218 165.931C339.879 181.618 342.132 197.497 338.447 213.701C339.46 213.994 339.83 213.443 340.162 212.983C347.222 203.214 353.503 192.936 359.886 182.722C364.144 175.905 363.202 168.323 363.714 160.953C364.041 156.239 363.942 151.5 364.034 146.771C365.364 145.557 366.381 145.817 367.107 147.429C367.048 153.565 366.99 159.701 366.929 165.834C367.338 165.927 367.75 166.018 368.16 166.111C370.772 161.07 373.385 156.028 375.995 150.983C377.705 149.463 378.449 149.979 378.414 152.133C376.142 158.654 372.477 164.632 370.583 171.934C376.861 168.064 380.721 162.294 386.091 158.274C387.485 158.605 388.361 159.264 387.74 160.875C380.995 167.251 374.632 174.045 367.07 179.524C366.248 180.119 365.612 181.069 365.102 181.973C351.399 206.189 334.602 228.186 316.834 249.49C315.897 250.614 315.017 251.788 313.678 253.492C316.826 253.297 318.334 251.348 320.291 250.419C326.75 247.348 333.158 244.091 340.257 242.791C352.234 240.602 358.8 232.631 363.01 222.002C364.52 220.968 365.836 220.639 366.416 222.948C364.267 227.836 361.61 232.434 358.229 236.747C371.432 236.97 379.358 229.232 385.661 219.241C388.626 214.54 390.597 209.967 389.413 203.539C387.494 193.12 392.07 184.145 400.237 177.304C402.497 175.413 405.542 173.579 408.17 174.906C410.901 176.288 410.809 179.818 410.384 182.764C409.015 192.252 405.082 200.59 398.353 207.373C396.144 209.602 394.232 211.781 393.244 214.723C391.529 219.825 388.066 223.924 385.527 228.746C394.86 224.905 404.6 221.608 409.802 211.943C413.557 204.962 418.871 199.764 425.746 196.045C429.036 194.266 432.583 193.49 436.328 193.692C441.63 193.979 442.391 195.564 440.241 200.266C435.404 210.845 426.962 216.274 415.812 217.923C412.218 218.454 409.356 219.879 406.544 222.248C399.25 228.4 390.862 232.744 381.802 235.765C380.232 236.289 378.689 236.886 376.906 237.533C389.414 242.58 410.044 242.529 422.05 237.56C423.634 236.903 424.682 236.018 425.508 234.285C429.743 225.39 436.922 219.823 446.212 216.835C448.685 216.039 451.187 215.911 453.081 217.841C455.099 219.895 453.079 221.821 452.246 223.642C448.234 232.4 441.018 237.278 431.917 239.055C425.033 240.401 418.384 242.605 411.506 243.875C402.356 245.568 393.24 244.797 384.221 243.028C372.991 240.83 362.031 240.469 350.902 244.204C338.05 248.522 324.972 252.021 313.391 259.521C304.372 265.36 290.145 279.475 283.906 289.899C291.896 287.672 298.495 283.723 305.023 279.658C305.65 279.27 305.816 278.108 306.155 277.287C310.574 266.678 318.22 259.884 329.601 257.679C333.337 256.956 338.516 256.111 340.308 258.965C342.087 261.797 338.158 265.469 336.043 268.366C329.304 277.602 320.128 282.317 308.691 282.557C307.625 282.579 306.576 282.446 305.591 283.053C299.284 286.937 293.041 290.938 284.95 293.385C296.526 297.559 307.255 300.036 318.544 299.82C320.697 299.781 321.839 298.686 323.183 297.437C331.924 289.322 341.93 287.998 352.883 292.029C354.761 292.719 356.298 293.927 357.798 295.267C360.614 297.787 360.445 300.173 357.813 302.612C351.503 308.465 337.128 310.851 329.328 307.149C323.538 304.401 317.903 302.195 311.121 302.453C301.616 302.811 292.542 299.485 283.469 296.907C279.985 295.918 277.596 296.458 275.262 299.546C267.068 310.383 258.949 321.259 251.952 332.926C251.517 333.653 250.613 334.243 251.198 335.839C257.482 332.098 264.526 329.805 270.494 325.981C274.563 323.371 277.196 318.313 281.347 315.137C289.271 309.072 302.121 308.133 308.698 313.313C313.414 317.026 313.371 318.484 309.071 322.582C299.207 331.977 287.356 331.763 275.145 329.772C273.801 329.553 272.682 329.091 271.233 329.647C261.293 333.476 252.176 338.713 244.664 346.27C240.189 350.771 238.782 357.22 235.996 362.793C227.127 380.523 227.907 399.813 227.357 418.8C227.075 428.526 225.769 438.269 226.938 448.962C230.043 443.443 232.32 438.103 236.412 434.405C249.528 422.546 250.254 408.149 245.921 392.473C246.598 391.568 247.505 391.52 248.497 391.784C248.939 391.994 249.284 392.309 249.536 392.731C252.005 401.32 252.46 410.004 250.72 418.87C254.613 413.308 255.501 406.425 259.088 400.843C262.375 395.726 262.813 390.555 261.93 384.478C260.357 373.628 263.403 363.623 270.659 355.144C271.447 354.223 272.318 353.327 273.297 352.618C278.976 348.503 282.706 349.97 283.674 356.974C285.663 371.382 283.222 384.125 269.422 392.179C268.327 392.819 267.486 393.569 266.949 394.75C264.567 400.006 262.133 405.24 259.588 410.765C272.332 405.843 292.799 390.202 300.015 380.213C301.521 378.13 302.302 376.022 302.321 373.468C302.426 359.43 308.921 348.087 317.495 337.613C320.311 334.176 324.306 332.531 327.975 330.406C330.2 329.117 331.914 330.053 332.428 332.484C334.739 343.426 331.795 365.323 318.466 374.199C316.297 375.644 314.074 377.378 311.477 377.402C306.672 377.445 304.168 380.127 302.123 383.975C300.932 386.218 299.23 388.191 297.23 391.037C311.552 386.305 325.118 381.999 338.078 376.003C342.089 374.149 345.97 371.98 350.067 370.349C357.408 367.423 360.305 361.241 362.501 354.385C363.337 351.777 362.071 349.565 361.277 347.337C358.719 340.155 358.246 333.077 361.495 325.973C362.925 322.848 364.689 319.135 368.128 319.162C371.35 319.186 373.093 322.814 374.129 325.946C377.323 335.606 375.316 344.343 368.973 352.064C366.693 354.837 365.138 357.773 364.172 361.596C377.532 355.631 386.147 346.722 386.671 331.7C386.746 329.576 387.147 327.46 387.396 325.342C388.397 324.37 389.485 323.947 390.766 324.83C390.889 330.331 389.965 335.715 389.007 341.231C392.889 337.261 396.649 333.282 398.737 328.04C400.446 327.325 402.075 326.752 401.579 329.739C392.686 345.474 382.152 359.682 364.89 368.365C368.885 368.791 383.954 365.954 386.114 364.238C387.487 363.15 388.445 361.455 389.37 359.899C394.859 350.685 402.733 344.607 413.019 341.638C413.892 341.387 414.788 341.078 415.679 341.063C417.339 341.035 419.258 340.827 420.289 342.423C421.287 343.969 419.88 345.292 419.191 346.556C412.22 359.361 401.719 366.052 387.036 368.522C367.767 371.762 348.475 375.513 330.49 384.148C317.05 390.599 302.235 393.867 288.997 400.955C285.183 402.998 281.374 405.057 277.726 407.526C286.653 407.963 295.204 410.18 304.151 406.313C314.747 401.727 330.291 406.837 337.427 415.598C341.56 420.672 339.715 426.572 333.378 428.407C322.467 431.571 312.584 429.798 303.942 422.175C303.257 421.571 302.418 421.095 301.865 420.392C292.14 408.057 279.244 410.698 267.169 414.283C260.178 416.36 255.286 423.122 249.997 428.389C239.379 438.968 230.919 450.904 227.175 465.735C225.724 471.484 226.087 477.315 226.651 483.035C229.093 507.925 231.301 532.837 236.607 557.326C237.591 561.868 235.656 565.252 231.943 565.734C228.041 566.243 224.512 563.412 224.05 559.264C221.109 532.77 218.163 506.299 217.24 479.605C216.814 467.257 211.776 455.601 208.528 443.705C206.608 436.677 202.84 430.583 199.074 424.479C192.266 413.448 181.416 412.033 169.899 412.311C168.231 412.351 166.57 412.712 164.907 412.924C162.457 412.238 161.979 410.854 163.437 408.779C170.172 407.981 176.847 405.841 183.712 408.225C184.062 406.184 182.517 405.991 181.655 405.441C173.684 400.343 165.386 395.873 156.541 392.445C154.66 391.715 153.424 391.619 151.727 393.208C142.708 401.634 125.877 401.266 115.378 389.196C113.254 386.756 114.869 384.5 116.819 382.878C122.292 378.33 128.716 376.633 135.636 378.01C142.988 379.474 150.031 381.831 155.544 387.441C156.633 388.548 158.459 388.992 160.009 389.58C174.639 395.138 185.029 401.556 195.892 411.937C195.475 408.947 193.839 407.005 192.755 404.866C182.181 384.054 166.121 367.9 148.584 353.03C145.849 350.709 142.372 350.716 139.018 350.851C132.908 351.099 126.952 352.354 121.076 354.003C119.783 352.892 119.047 351.694 120.458 350.149L120.457 350.154Z"
            fill="#737B78" />
        <path
            d="M251.645 223.152C251.286 221.926 250.541 221.069 249.307 220.673C248.987 217.99 247.984 215.388 248.804 212.595C250.198 207.849 253.024 206.505 258.338 208.226C263.643 209.945 265.593 213.249 263.899 217.662C261.115 224.922 257.359 226.606 251.645 223.152Z"
            fill="#E6C943" />
        <path
            d="M125.32 333.027C124.599 334.235 123.877 335.442 123.157 336.652C117.294 340.525 111.439 338.477 109.333 331.816C108.382 328.805 110.756 325.002 114.805 323.051C116.803 322.09 118.984 322.295 121.068 322.302C123.933 322.309 125.92 323.988 126.885 326.642C127.76 329.043 128.018 331.436 125.322 333.03L125.32 333.027Z"
            fill="#EACC47" />
        <path
            d="M127.479 185.183C127.465 186.436 127.453 187.687 127.442 188.938C125.773 192.777 123.255 194.851 118.857 193.123C115.213 191.694 111.707 190.358 112.664 185.168C113.436 180.962 116.305 177.924 120.534 177.715C125.75 177.457 126.48 181.466 127.482 185.181L127.479 185.183Z"
            fill="#ECCE4D" />
        <path
            d="M235.336 151.731C232.967 151.056 230.708 151.71 228.442 152.299C223.277 146.905 223.373 140.604 228.476 137.753C231.224 136.215 233.585 136.426 236.132 137.993C238.734 139.597 239.241 142.179 239 144.762C238.747 147.45 238.076 150.213 235.339 151.73L235.336 151.731Z"
            fill="#EBCD42" />
        <path
            d="M120.457 350.153C120.662 351.438 120.867 352.724 121.07 354.006C119.279 355.123 118.797 357.433 116.599 358.351C112.726 359.97 109.574 359.334 107.651 356.003C104.951 351.328 105.348 347.755 108.844 345.214C111.827 343.049 115.603 343.835 118.376 347.25C119.125 348.172 119.764 349.181 120.453 350.152L120.457 350.153Z"
            fill="#E9CA43" />
        <path
            d="M132.999 325.019C127.86 325.515 125.228 322.908 124.387 318.071C125.387 315.787 124.875 312.697 127.659 311.373C130.143 310.192 132.537 309.457 135.309 311.349C138.03 313.205 138.554 315.468 138.222 318.387C138.014 320.221 137.8 322.013 136.492 323.449C135.325 323.971 134.164 324.494 133 325.022L132.999 325.019Z"
            fill="#EDCF4B" />
        <path
            d="M401.568 329.765C401.335 328 399.975 328.127 398.725 328.065C395.332 323.472 395.892 319.029 400.19 316.415C403.869 314.178 408.35 315.374 410.301 319.12C412.907 324.119 408.459 329.539 401.568 329.765Z"
            fill="#DEC254" />
        <path
            d="M390.757 324.854C389.634 325.025 388.51 325.194 387.387 325.366C386.455 324.394 385.414 323.509 384.615 322.438C381.217 317.908 381.332 315.239 384.939 312.286C387.83 309.921 392.451 310.174 394.722 312.823C397.181 315.694 396.497 320 392.994 323.316C392.346 323.929 391.508 324.345 390.757 324.854Z"
            fill="#E9CC4B" />
        <path
            d="M387.737 160.88C387.188 160.013 386.638 159.146 386.088 158.28C386.215 156.92 386.283 155.549 386.482 154.197C387.201 149.375 389.713 147.122 393.937 147.446C397.277 147.7 400.168 150.933 400.005 154.228C399.827 157.812 395.679 161.466 391.8 161.364C390.443 161.327 389.09 161.048 387.737 160.88Z"
            fill="#E2C553" />
        <path
            d="M184.661 99.6936C181.175 101.321 177.81 99.6205 174.397 99.3248C171.685 95.8136 171.636 92.4523 174.745 89.0835C176.752 86.911 178.749 86.5563 181.652 87.5093C184.497 88.4394 185.692 90.0645 185.771 92.7238C185.843 95.0886 186.53 97.616 184.663 99.6964L184.661 99.6936Z"
            fill="#E7CA4C" />
        <path
            d="M137.255 172.244C135.822 173.359 133.837 173.669 132.784 175.337C128.753 176.533 125.099 174.916 124.006 171.45C122.843 167.764 124.525 164.053 127.869 162.925C132.09 161.502 135.215 163.087 136.854 167.343C137.484 168.977 137.588 170.573 137.253 172.246L137.255 172.244Z"
            fill="#EBCD4A" />
        <path
            d="M248.719 392.257C247.783 392.332 246.848 392.41 245.912 392.485C243.053 390.784 238.606 390.59 238.244 386.346C237.627 379.125 239.929 376.972 246.946 378.648C251.471 381.271 252.264 383.344 250.387 388.154C249.852 389.526 249.794 391.103 248.719 392.257Z"
            fill="#E4C649" />
        <path
            d="M367.098 147.434C366.175 146.734 365.107 146.718 364.028 146.774C360.107 145.225 358.439 142.344 359.094 138.19C359.534 135.394 361.417 134.114 364.082 133.718C367.222 133.252 369.274 134.697 370.746 137.331C372.204 139.943 371.786 142.265 369.851 144.418C368.942 145.431 368.017 146.431 367.1 147.437L367.098 147.434Z"
            fill="#E8CA50" />
        <path
            d="M366.41 222.956C365.478 221.906 364.194 222.125 363.002 222.007C361.692 219.627 359.18 217.503 361.35 214.37C362.437 213.107 363.683 212.009 364.928 210.908C366.771 209.277 368.615 207.387 371.224 209.395C373.671 211.282 375.872 213.404 374.024 216.952C371.982 219.588 370.881 223.413 366.409 222.961L366.41 222.956Z"
            fill="#EECF43" />
        <path
            d="M375.352 141.417C377.338 138.061 379.928 135.457 384.036 137.515C387.066 139.034 390.269 141.089 388.151 145.539C387.724 145.718 387.425 146.019 387.152 146.404C384.564 150.066 381.153 151.694 378.396 150.07C375.158 148.164 374.202 145.066 375.355 141.415L375.352 141.417Z"
            fill="#E0C653" />
        <path
            d="M321.36 213.571C318.624 214.992 315.879 216.365 312.688 215.011C309.455 212.485 308.428 209.31 310.912 205.894C313.061 202.939 316.698 202.47 319.566 204.003C323.524 206.121 323.087 209.926 321.362 213.57L321.36 213.571Z"
            fill="#EACB4D" />
        <path
            d="M199.753 94.6124C197.792 94.8519 195.786 94.9019 194.007 95.929C190.173 93.7241 188.696 89.1025 190.721 85.6519C192.346 82.883 196.159 82.4706 199.543 84.7011C203.206 87.1145 203.279 90.583 199.756 94.6108L199.753 94.6124Z"
            fill="#F1D038" />
        <path
            d="M178.141 107.835C176.954 109.731 175.772 111.628 174.585 113.524C170.062 114.096 166.333 112.171 165.824 108.663C165.323 105.207 166.416 102.336 170.122 101.173C173.566 100.088 176.25 102.345 178.14 107.84L178.141 107.835Z"
            fill="#EFCF43" />
        <path
            d="M150.818 166.889C149.778 166.581 148.769 166.453 147.962 167.414C142.12 166.947 140.38 165.361 140.171 160.321C139.977 155.594 142.208 152.755 146.665 151.983C150.933 151.244 153.202 153.974 154.726 157.146C156.642 161.139 155.331 163.875 150.818 166.889Z"
            fill="#E3CB6E" />
        <path
            d="M163.437 408.779C163.392 410.352 163.814 411.758 164.907 412.924C164.521 413.919 164.2 414.944 163.744 415.903C162.405 418.708 160.972 421.343 157.225 421.411C154.217 421.464 152.298 420.17 151.316 417.389C150.053 413.813 149.327 410.215 152.237 407.078C155.473 403.594 159.618 404.28 163.437 408.779Z"
            fill="#D9C46D" />
        <path
            d="M157.634 272.621C156.73 271.35 155.416 271.526 154.124 271.621C153.674 268.862 152.082 266.327 153.342 263.262C154.578 260.252 156.729 258.802 159.627 259.247C162.544 259.693 165.03 261.398 165.418 264.749C165.782 267.902 164.644 270.439 161.57 271.7C160.34 272.205 158.952 272.329 157.635 272.624L157.634 272.621Z"
            fill="#D9C571" />
        <path
            d="M375.352 141.417C375.412 144.673 375.742 148.107 379.244 149.305C382.667 150.476 385.347 148.698 387.064 145.55C387.347 145.031 387.783 145.184 388.151 145.54C386.798 150.542 382.561 151.275 378.41 152.139C377.959 151.004 377.323 150.263 375.991 150.99C375.696 147.805 372.468 144.815 375.356 141.418L375.352 141.417Z"
            fill="#938962" />
        <path
            d="M374.026 216.951C374.761 213.591 372.835 211.389 370.368 209.907C367.638 208.265 366.111 211.019 364.253 212.341C363.29 213.026 362.319 213.696 361.354 214.371C365.338 207.224 370.017 205.786 373.874 210.528C375.581 212.626 376.071 214.76 374.026 216.951Z"
            fill="#E7D57C" />
        <path
            d="M248.721 392.256C248.924 390.761 248.774 389.093 249.4 387.804C251.292 383.92 249.769 381.157 246.944 378.649C252.679 380.222 254.246 383.656 251.554 388.717C250.848 390.044 250.199 391.403 249.525 392.745C249.257 392.582 248.989 392.419 248.718 392.258L248.721 392.256Z"
            fill="#EBD583" />
        <path
            d="M325.229 340.79C323.569 351.236 319.466 359.212 313.056 367.093C313.504 359.181 318.639 348.03 325.229 340.79Z"
            fill="#E6EAE8" />
        <path
            d="M328.158 419.107C319.895 419.433 312.422 416.855 305.175 413.386C313.349 413.252 321.832 411.812 328.158 419.107Z"
            fill="#E7EBE9" />
        <path
            d="M196.566 364.593C194.834 357.576 196.924 346.216 201.124 339.653C201.518 348.572 201.494 356.576 196.566 364.593Z"
            fill="#E5E9E7" />
        <path
            d="M254.98 125.443C261.17 122.849 267.303 122.274 274.287 126.186C267.054 129.345 261.003 128.457 254.98 125.443Z"
            fill="#E4E8E6" />
        <path
            d="M269.497 382.516C269.258 374.081 271.673 366.456 275.976 359.39C275.087 367.462 274.687 375.668 269.497 382.516Z"
            fill="#E6EAE8" />
        <path
            d="M394.955 203.851C395.457 196.15 397.685 189.223 403.392 182.413C402.388 191.172 399.178 197.746 394.955 203.851Z"
            fill="#E2E7E5" />
        <path
            d="M350.505 299.265C344.265 302.637 337.887 302.237 331.451 300.479C337.682 297.911 344.034 297.368 350.505 299.265Z"
            fill="#DDE1DF" />
        <path
            d="M143.041 388.776C135.919 391.36 127.771 390.635 122.813 386.908C129.962 385.564 136.092 386.535 143.041 388.776Z"
            fill="#E6E9E7" />
        <path
            d="M80.2282 250.321C86.1281 255.763 90.7535 261.612 94.2869 268.466C89.255 266.408 81.6714 256.759 80.2282 250.321Z"
            fill="#E4E9E7" />
        <path
            d="M278.642 324.439C285.313 320.758 290.94 318.08 298.505 319.822C292.101 322.956 286.542 325.874 278.642 324.439Z"
            fill="#E2E7E5" />
        <path
            d="M192.276 167.206C196.395 173.37 198.81 179.092 199.592 185.715C194.659 182.446 191.812 175.509 192.276 167.206Z"
            fill="#E3E8E6" />
        <path
            d="M172.628 324.86C173.233 331.332 172.7 337.564 169.179 343.221C168.67 336.803 168.116 330.385 172.628 324.86Z"
            fill="#E3E8E6" />
        <path
            d="M142.932 246.872C140.771 238.666 141.521 230.773 145.514 223.254C144.447 231.103 144.26 239.035 142.932 246.872Z"
            fill="#DDE1DF" />
        <path
            d="M395.271 360.85C398.073 355.79 405.418 349.601 411.391 347.261C408.947 352.069 401.233 358.57 395.271 360.85Z"
            fill="#E3EAE9" />
        <path
            d="M175.06 195.713C179.831 200.74 183.593 206.391 186.549 213.995C179.809 208.728 176.957 202.517 175.06 195.713Z"
            fill="#E1E6E4" />
        <path
            d="M314.617 275.3C317.874 269.383 323.027 265.939 329.208 263.808C325.108 268.592 320.64 272.924 314.617 275.3Z"
            fill="#E2E7E5" />
        <path
            d="M367.305 327.23C368.427 333.944 368.025 340.206 367.154 347.379C364.339 341.089 364.498 332.596 367.305 327.23Z"
            fill="#DBE1DE" />
        <path
            d="M107.247 231.089C111.041 236.329 112.549 242.094 113.954 248.164C109.821 245.251 106.837 237.659 107.247 231.089Z"
            fill="#E4E9E7" />
        <path
            d="M327.925 141.326C331.026 146.292 332.096 151.769 331.666 157.601C328.337 152.714 327.514 147.193 327.925 141.326Z"
            fill="#E0E5E3" />
        <path
            d="M251.508 105.358C257.471 101.624 262.961 99.7781 268.954 98.0358C265.847 102.345 258.687 105.435 251.508 105.358Z"
            fill="#E3E8E6" />
        <path
            d="M253.499 276.996C250.719 271.689 251.195 266.485 253.704 261.303C255.172 266.539 253.765 271.796 253.499 276.996Z"
            fill="#DEE6E3" />
        <path
            d="M433.194 199.508C429.846 204.017 425.239 206.881 420.372 209.427C423.341 204.512 427.915 201.557 433.194 199.508Z"
            fill="#E2E7E5" />
        <path
            d="M282.164 233.742C283.105 238.688 282.726 243.386 279.623 248.37C279.105 242.722 280.428 238.198 282.164 233.742Z"
            fill="#D9DEDC" />
        <path
            d="M256.593 170.517C255.522 174.684 254.068 178.554 250.661 182.238C250.597 176.676 253.493 173.495 256.593 170.517Z"
            fill="#E3E8E6" />
        <path
            d="M293.434 152.909C296.442 156.404 298.19 160.499 299.241 164.927C295.339 161.857 294.193 157.476 293.434 152.909Z"
            fill="#DEE5E2" />
        <path
            d="M220.696 98.1332C222.591 102.805 222.195 107.327 223.233 112.225C220.275 108.7 219.537 104.322 220.696 98.1332Z"
            fill="#C8CDCB" />
        <path
            d="M444.05 222.938C441.264 226.355 438.19 228.598 434.901 230.981C436.038 227.329 438.713 224.952 444.05 222.938Z"
            fill="#CDD6D4" />
        <path
            d="M153.003 159.253C152.85 163.352 149.34 166.093 145.156 166.008C142.783 165.959 142.21 164.024 142.203 162.163C142.171 155.773 143.656 153.588 148.137 154.069C151.366 154.414 152.719 157.011 153.004 159.256L153.003 159.253Z"
            fill="#F4D237" />
        <path
            d="M162.138 412.759C161.839 417.26 160.212 419.697 156.521 419.464C151.789 419.162 152.557 414.943 152.575 412.144C152.59 409.745 153.13 406.191 157.108 406.792C160.914 407.368 161.657 410.536 162.14 412.762L162.138 412.759Z"
            fill="#EECC3E" />
        <path
            d="M154.896 265.891C154.141 261.628 156.724 261.097 159.163 260.919C161.997 260.709 164.086 262.544 164.139 265.139C164.197 268.091 162.45 270.208 158.924 270.038C155.728 269.882 153.01 269.525 154.896 265.891Z"
            fill="#ECCA43" />
    </g>
    <defs>
        <clipPath id="clip0_2396_24329">
            <rect width="442.226" height="379.09" fill="white"
                transform="translate(221.113 572.524) rotate(-120)" />
        </clipPath>
    </defs>
</svg>
