<svg width="347" height="394" viewBox="0 0 347 394" fill="none" xmlns="http://www.w3.org/2000/svg">
    <g clip-path="url(#clip0_2395_14928)">
        <path
            d="M84.0469 191.742C84.0469 191.742 88.0174 191.828 100.594 189.424C113.171 187.02 122.207 193.523 141.179 172.147C160.152 150.771 153.97 134.202 154.7 130.21C155.43 126.239 154.829 117.268 154.829 117.268C154.829 117.268 148.97 112.268 123.237 122.312C97.5036 132.356 78.9389 169.185 84.0254 191.72L84.0469 191.742Z"
            fill="#DDB059" />
        <path
            d="M70.5222 155.276C57.323 129.951 39.8957 131.024 33.6932 126.453C27.4906 121.881 19.0131 115.829 19.0131 115.829C19.0131 115.829 21.889 126.345 15.0855 146.734C8.282 167.123 6.02847 178.069 23.6703 196.57C41.3122 215.07 61.3793 214.083 61.3793 214.083C61.3793 214.083 83.7214 180.58 70.5222 155.276Z"
            fill="#DDB059" />
        <path
            d="M81.4213 141.865C81.4213 141.865 100.222 128.73 102.69 103.362C105.158 77.9935 89.8989 70.7607 84.5333 60.7808C79.1678 50.801 73.1155 37.7091 73.1155 37.7091C73.1155 37.7091 66.6554 44.2979 59.2295 52.4106C51.7821 60.5233 46.0732 76.7701 47.0605 96.8372C48.0263 116.904 81.4213 141.865 81.4213 141.865Z"
            fill="#DDB059" />
        <path
            d="M68.7231 47.7946C68.7231 47.7946 72.9297 64.5565 73.359 82.1125C73.8097 99.6685 84.5622 119.628 81.4287 141.863C78.2953 164.098 74.5179 208.052 65.0746 228.355"
            stroke="#9F513F" stroke-opacity="0.37" stroke-width="3.21932" stroke-miterlimit="10" />
        <path
            d="M139.154 126.54C139.154 126.54 128.767 134.567 120.31 143.86C111.854 153.153 100.136 162.704 92.8175 173.435C85.4989 184.145 73.5659 207.581 71.1193 209.771"
            stroke="#9F513F" stroke-opacity="0.37" stroke-width="3.21932" stroke-miterlimit="10" />
        <path
            d="M25.4702 126.84C25.4702 126.84 30.5138 134.931 36.9954 149.826C43.4769 164.699 57.7278 202.516 58.8224 207.709C59.9169 212.903 66.6775 223.141 66.6775 223.141"
            stroke="#9F513F" stroke-opacity="0.37" stroke-width="3.21932" stroke-miterlimit="10" />
        <path d="M66.4878 152.488C66.4878 152.488 62.1525 187.214 55.1987 196.356" stroke="#9F513F"
            stroke-opacity="0.37" stroke-width="1.60966" stroke-miterlimit="10" />
        <path d="M13.775 160.32C13.775 160.32 36.8039 181.053 49.4236 181.353" stroke="#9F513F"
            stroke-opacity="0.37" stroke-width="1.60966" stroke-miterlimit="10" />
        <path d="M48.4157 137.139C48.4157 137.139 44.8959 160.017 42.3634 161.241" stroke="#9F513F"
            stroke-opacity="0.37" stroke-width="1.60966" stroke-miterlimit="10" />
        <path d="M138.623 168.948C138.623 168.948 99.6478 178.241 92.179 175.108" stroke="#9F513F"
            stroke-opacity="0.37" stroke-width="1.60966" stroke-miterlimit="10" />
        <path d="M116.749 129.821C116.749 129.821 105.396 149.481 106.469 158.667" stroke="#9F513F"
            stroke-opacity="0.37" stroke-width="1.60966" stroke-miterlimit="10" />
        <path d="M150.037 142.998C150.037 142.998 122.115 148.557 117.565 147.612" stroke="#9F513F"
            stroke-opacity="0.37" stroke-width="1.60966" stroke-miterlimit="10" />
        <path d="M84.7506 65.8448C84.7506 65.8448 80.5225 85.3753 75.2858 89.4531" stroke="#9F513F"
            stroke-opacity="0.37" stroke-width="1.60966" stroke-miterlimit="10" />
        <path d="M51.4679 88.0573C51.4679 88.0573 68.7664 109.67 79.476 111.751" stroke="#9F513F"
            stroke-opacity="0.37" stroke-width="1.60966" stroke-miterlimit="10" />
        <path d="M100.14 97.4561C100.14 97.4561 91.5766 117.91 83.2922 122.459" stroke="#9F513F"
            stroke-opacity="0.37" stroke-width="1.60966" stroke-miterlimit="10" />
        <path d="M56.5065 58.4209C56.5065 58.4209 65.9283 75.7623 71.1866 76.7495" stroke="#9F513F"
            stroke-opacity="0.37" stroke-width="1.60966" stroke-miterlimit="10" />
        <path
            d="M16.548 26.8697C16.548 26.8697 11.1825 29.3164 11.6332 33.5444C12.0839 37.7725 13.0926 37.9656 13.3716 39.8328C13.6506 41.7 14.1872 45.413 15.9041 46.3788C15.9041 46.3788 16.7197 47.6021 22.772 45.9281C28.8243 44.254 28.6956 36.8067 28.6956 36.8067C28.6956 36.8067 29.9833 40.5625 32.988 41.8932C36.0141 43.2238 41.8304 43.3097 41.8304 43.3097C41.8304 43.3097 40.9075 42.6015 42.3669 40.026C43.8264 37.4505 46.595 32.5786 44.5561 27.8355C42.5172 23.0924 39.2764 20.1091 39.2764 20.1091C39.2764 20.1091 44.2985 17.2761 45.0068 14.6577C45.7365 12.0394 43.3971 4.4847 42.9893 3.8623C42.5816 3.26136 40.3066 0.256659 36.5507 1.54439C32.7948 2.83211 26.7425 8.8415 26.7425 8.8415C26.7425 8.8415 29.1677 6.24459 23.9739 4.05545C18.78 1.86631 15.711 1.26539 13.2214 0.986385C10.7317 0.707374 5.25891 1.00784 5.25891 1.00784C5.25891 1.00784 3.94972 3.3043 5.51645 8.90591C7.08319 14.5075 9.59426 16.7181 9.59426 16.7181C9.59426 16.7181 4.03557 15.8382 2.44737 17.9629C0.859172 20.0877 -0.0422373 24.6806 -0.0422373 24.6806C-0.0422373 24.6806 2.5976 30.7114 5.70961 31.5484C8.84308 32.3855 16.4836 26.8912 16.4836 26.8912L16.548 26.8697Z"
            fill="#DDB059" />
        <path
            d="M13.547 28.3496C13.547 28.3496 10.2848 30.646 11.594 34.6809C12.9032 38.7158 13.5899 41.9136 14.4484 44.2745C15.3069 46.6353 17.1312 47.5153 20.05 46.8285C22.9474 46.1202 28.9568 45.4978 28.7207 36.8271"
            stroke="#9F513F" stroke-opacity="0.44" stroke-width="1.60966" stroke-miterlimit="10" />
        <path
            d="M20.9274 26.1379C24.6404 28.2412 29.2333 26.5028 29.7055 22.983C30.1776 19.4632 29.5552 14.5698 23.2453 15.3425C16.9355 16.1151 17.193 24.0132 20.906 26.1379L20.9274 26.1379Z"
            fill="#9F513F" fill-opacity="0.44" />
        <path
            d="M14.5745 19.874C14.5745 19.874 1.74014 15.7533 5.30285 1.00883C5.30285 1.00883 21.2707 0.772734 25.0695 4.72177C28.8683 8.6708 26.3572 10.9243 26.3572 10.9243"
            stroke="#9F513F" stroke-opacity="0.44" stroke-width="1.60966" stroke-miterlimit="10" />
        <path d="M18.0078 30.7979C18.0078 30.7979 20.433 29.8321 20.9696 28.4799" stroke="#9F513F"
            stroke-opacity="0.44" stroke-width="1.60966" stroke-miterlimit="10" />
        <path d="M25.7566 36.4409C25.7566 36.4409 24.8338 31.3115 25.1772 30.0238" stroke="#9F513F"
            stroke-opacity="0.44" stroke-width="1.60966" stroke-miterlimit="10" />
        <path d="M29.4264 26.954L31.9589 29.6367" stroke="#9F513F" stroke-opacity="0.44"
            stroke-width="1.60966" stroke-miterlimit="10" />
        <path d="M31.2959 20.3462C31.2959 20.3462 32.3905 19.6379 34.4079 19.6809" stroke="#9F513F"
            stroke-opacity="0.44" stroke-width="1.60966" stroke-miterlimit="10" />
        <path d="M17.9183 16.3545C17.9183 16.3545 16.6306 16.0111 15.2999 14.7878" stroke="#9F513F"
            stroke-opacity="0.44" stroke-width="1.60966" stroke-miterlimit="10" />
        <path d="M10.9487 25.7734C10.9487 25.7734 15.8206 25.7305 17.3444 24.3999" stroke="#9F513F"
            stroke-opacity="0.44" stroke-width="1.60966" stroke-miterlimit="10" />
        <path d="M29.5522 15.8384C29.5522 15.8384 31.9345 13.9926 32.6857 11.9752" stroke="#9F513F"
            stroke-opacity="0.44" stroke-width="1.60966" stroke-miterlimit="10" />
        <path
            d="M41.8488 43.3076C41.8488 43.3076 40.8187 42.7281 42.3854 40.0239C43.9521 37.3197 46.6349 33.9716 45.0682 29.8079C43.5229 25.6443 41.7845 20.8367 37.1057 19.4417"
            stroke="#9F513F" stroke-opacity="0.44" stroke-width="1.60966" stroke-miterlimit="10" />
        <path
            d="M177.233 229.983C177.233 229.983 178.392 240.435 183.693 242.732C188.994 245.028 194.982 242.732 194.982 242.732C194.982 242.732 191.763 242.732 191.527 248.72C191.291 254.708 197.279 261.382 197.279 261.382C197.279 261.382 200.047 261.618 203.953 259.301C207.881 257.004 209.491 251.918 209.491 251.918C209.491 251.918 209.727 255.845 213.418 256.983C217.11 258.142 229.086 258.592 229.086 258.592C229.086 258.592 228.85 252.132 229.086 249.149C229.322 246.144 231.382 241.766 227.927 238.783C224.471 235.778 219.621 233.954 219.621 233.954C219.621 233.954 223.999 235.327 226.532 231.421C229.064 227.494 230.459 221.055 230.459 221.055C230.459 221.055 226.317 218.973 221.939 218.759C217.56 218.523 212.946 221.055 212.946 221.055C212.946 221.055 214.792 217.6 213.397 214.38C212.023 211.161 206.937 204.701 206.937 204.701C206.937 204.701 202.322 207.92 198.867 213.694C195.412 219.445 197.257 226.142 197.257 226.142C197.257 226.142 193.115 223.609 189.188 224.06C185.26 224.51 177.212 229.962 177.212 229.962L177.233 229.983Z"
            fill="#DDB059" />
        <path
            d="M207.237 240.521C207.237 240.521 209.92 243.203 211.573 241.358C213.225 239.49 212.195 237.43 212.195 237.43C212.195 237.43 215.929 237.645 215.092 235.563C214.255 233.503 212.603 233.503 212.603 233.503C212.603 233.503 214.47 233.095 214.663 231.013C214.856 228.931 211.551 225.626 208.868 225.841C206.186 226.055 203.288 225.626 201.829 228.953C200.369 232.258 198.717 233.91 200.369 237.43C202.022 240.95 206.786 240.95 207.194 240.542L207.237 240.521Z"
            fill="#9F513F" fill-opacity="0.44" />
        <path
            d="M197.283 261.409C197.283 261.409 208.143 260.164 209.259 252.674C209.259 252.674 210.783 257.867 216.663 257.953C222.523 258.039 229.09 258.64 229.09 258.64C229.09 258.64 229.154 253.596 229.154 252.759"
            stroke="#9F513F" stroke-opacity="0.44" stroke-width="1.60966" stroke-linecap="round"
            stroke-linejoin="round" />
        <path d="M208.995 250.701C208.995 250.701 208.223 244.67 207.729 242.953" stroke="#9F513F"
            stroke-opacity="0.44" stroke-width="1.60966" stroke-miterlimit="10" />
        <path
            d="M210.776 225.03C210.776 225.03 215.283 220.437 214.017 215.844C212.751 211.251 208.072 207.431 207.643 205.714C207.213 204.019 197.019 210.393 196.933 219.064C196.847 227.734 199.229 228.593 199.229 228.593"
            stroke="#9F513F" stroke-opacity="0.44" stroke-width="1.60966" stroke-miterlimit="10" />
        <path d="M199.215 238.293C199.215 238.293 197.347 239.645 195.137 240.418" stroke="#9F513F"
            stroke-opacity="0.44" stroke-width="1.60966" stroke-miterlimit="10" />
        <path d="M198.61 231.662C198.61 231.662 195.627 229.279 191.892 229.022" stroke="#9F513F"
            stroke-opacity="0.44" stroke-width="1.60966" stroke-miterlimit="10" />
        <path d="M197.255 234.623L192.748 234.881" stroke="#9F513F" stroke-opacity="0.44"
            stroke-width="1.60966" stroke-miterlimit="10" />
        <path d="M217.328 231.49C217.328 231.49 220.655 230.975 221.234 230.309" stroke="#9F513F"
            stroke-opacity="0.44" stroke-width="1.60966" stroke-miterlimit="10" />
        <path
            d="M119.651 348.457C119.651 348.457 228.035 376.916 281.54 307.293C286.497 300.854 291.97 294.823 298.151 289.544C306.414 282.504 318.09 272.76 328.027 265.184"
            stroke="#DDB059" stroke-width="4.29243" stroke-miterlimit="10" />
        <path d="M155.13 353.266C155.13 353.266 183.16 346.463 196.123 323.434" stroke="#DDB059"
            stroke-width="4.29243" stroke-miterlimit="10" />
        <path d="M206.554 381.49C206.554 381.49 180.048 355.649 163.179 354.147" stroke="#DDB059"
            stroke-width="4.29243" stroke-miterlimit="10" />
        <path d="M194.125 352.9C193.696 352.771 248.875 328.047 253.962 273.79" stroke="#DDB059"
            stroke-width="4.29243" stroke-miterlimit="10" />
        <path d="M229.133 345.327C229.133 345.327 247.139 347.86 257.205 352.41" stroke="#DDB059"
            stroke-width="4.29243" stroke-miterlimit="10" />
        <path d="M271.714 318.605C271.714 318.605 285.922 310.342 314.187 315.107" stroke="#DDB059"
            stroke-width="4.29243" stroke-miterlimit="10" />
        <path d="M293.662 294.094C293.662 294.094 308.664 287.248 332.251 294.245" stroke="#DDB059"
            stroke-width="4.29243" stroke-miterlimit="10" />
        <path d="M239.109 341.009C239.109 341.009 257.953 326.501 266.817 299.63" stroke="#DDB059"
            stroke-width="4.29243" stroke-miterlimit="10" />
        <path d="M218.444 337.105C218.444 337.105 228.939 316.18 229.883 299.611" stroke="#DDB059"
            stroke-width="4.29243" stroke-miterlimit="10" />
        <path d="M242.84 308.454C242.84 308.454 250.202 295.147 260.375 290.254" stroke="#DDB059"
            stroke-width="4.29243" stroke-miterlimit="10" />
        <path
            d="M199.748 376.424C199.748 376.424 201.015 396.62 215.523 393.722C230.01 390.825 222.284 382.433 214.879 378.999C207.496 375.565 199.748 376.424 199.748 376.424Z"
            fill="#9F513F" fill-opacity="0.44" />
        <path
            d="M248.985 348.932C248.985 348.932 250.896 365.35 264.395 361.273C277.895 357.195 263.236 340.669 248.985 348.932Z"
            fill="#9F513F" fill-opacity="0.44" />
        <path
            d="M302.423 314.892C302.423 314.892 326.16 336.676 330.409 320.258C334.659 303.839 304.869 309.419 302.423 314.892Z"
            fill="#9F513F" fill-opacity="0.44" />
        <path
            d="M323.969 292.207C323.969 292.207 341.546 310.901 346.139 299.44C350.732 287.979 332.639 288.087 323.969 292.207Z"
            fill="#9F513F" fill-opacity="0.44" />
        <path
            d="M317.53 274.18C317.53 274.18 348.908 273.901 343.971 258.813C339.035 243.725 318.71 263.921 317.53 274.18Z"
            fill="#9F513F" fill-opacity="0.44" />
        <path
            d="M261.02 313.262C261.02 313.262 275.872 309.141 274.928 300.063C273.983 290.984 260.269 286.606 261.02 313.262Z"
            fill="#9F513F" fill-opacity="0.44" />
        <path
            d="M187.902 334.68C187.902 334.68 199.899 335.903 201.402 324.442C202.925 312.982 192.903 314.076 190.413 318.218C187.902 322.361 187.902 334.68 187.902 334.68Z"
            fill="#9F513F" fill-opacity="0.44" />
        <path
            d="M226.835 311.006C226.835 311.006 239.005 303.902 237.094 293.665C235.184 283.428 224.281 286.024 222.951 295.339C221.599 304.654 226.835 311.006 226.835 311.006Z"
            fill="#9F513F" fill-opacity="0.44" />
        <path
            d="M251.234 285.811C251.234 285.811 266.73 277.892 261.536 266.731C256.364 255.549 243.851 260.786 251.234 285.811Z"
            fill="#9F513F" fill-opacity="0.44" />
        <path
            d="M254.519 293.711C254.519 293.711 268.061 295.492 268.297 287.315C268.555 279.138 256.794 282.873 254.519 293.711Z"
            fill="#9F513F" fill-opacity="0.44" />
        <path
            d="M113.941 270.252C113.941 270.252 112.782 243.317 100.076 233.295C87.3708 223.272 87.8644 221.49 73.077 220.546C58.2896 219.602 54.4693 220.89 45.1977 232.243C35.9261 243.618 27.0193 250.829 29.0153 259.092C31.0112 267.355 44.3178 279.46 44.3178 279.46C44.3178 279.46 17.7262 267.977 9.80665 280.104C1.88713 292.23 2.20906 302.338 5.94347 314.164C9.67788 325.99 29.2943 333.244 29.2943 333.244C29.2943 333.244 15.4297 340.262 21.8254 353.59C28.2426 366.918 37.7074 380.289 50.3486 380.632C62.9898 380.976 77.348 372.155 77.348 372.155C77.348 372.155 73.5706 388.874 89.3024 387.758C105.034 386.642 129.265 372.777 134.63 361.509C140.017 350.242 133.192 344.147 133.192 344.147C133.192 344.147 138.944 349.963 148.667 342.58C158.389 335.197 163.347 326.891 167.875 313.091C172.404 299.269 176.117 285.619 168.712 281.67C161.308 277.721 155.105 280.662 155.105 280.662C155.105 280.662 165.944 276.283 161.394 260.38C156.844 244.476 154.397 236.492 140.94 232.05C127.483 227.607 113.211 258.835 113.962 270.231L113.941 270.252Z"
            fill="#DDB059" />
        <path
            d="M107.568 291.8C107.568 291.8 114.029 282.142 115.102 265.402C115.939 252.374 129.996 227.607 143.088 233.681C156.18 239.754 162.426 253.683 160.151 257.461C157.876 261.238 146.909 233.466 137.015 239.862C127.12 246.258 124.652 255.315 120.789 271.84C116.926 288.366 109.436 302.016 109.436 302.016"
            stroke="#9F513F" stroke-opacity="0.44" stroke-width="2.14621" stroke-miterlimit="10" />
        <path
            d="M146.907 284.524C146.907 284.524 161.415 276.734 168.691 281.691C175.967 286.649 172.211 299.612 169.743 306.888C167.275 314.164 159.827 337.665 148.646 342.601C137.464 347.537 134.051 343.91 133.171 344.168C132.291 344.425 137.399 348.718 135.876 356.015C134.373 363.312 126.776 372.583 116.002 378.571C105.206 384.559 89.732 390.955 83.3148 387.027C76.8976 383.121 74.408 380.739 76.8332 375.374C79.2585 370.008 96.8789 380.589 106.966 372.734C117.053 364.879 114.478 358.397 121.367 344.597C128.256 330.797 147.057 338.802 155.342 322.512C163.626 306.201 139.653 292.444 146.864 284.524L146.907 284.524Z"
            stroke="#9F513F" stroke-opacity="0.44" stroke-width="2.14621" stroke-miterlimit="10" />
        <path
            d="M105.38 304.59C105.38 304.59 97.3744 294.31 89.7339 305.341C82.0934 316.373 86.4502 328.756 100.25 320.558C111.432 313.905 107.869 307.552 106.088 305.384C105.68 304.869 105.358 304.59 105.358 304.59L105.38 304.59Z"
            fill="#F7F5EF" />
        <path d="M73.7009 297.613C73.7009 297.613 18.8437 254.152 6.05225 284.757" stroke="#9F513F"
            stroke-opacity="0.44" stroke-width="2.14621" stroke-miterlimit="10" />
        <path
            d="M78.0181 323.972C78.0181 323.972 26.5304 322.555 21.7444 340.154C16.9583 357.753 26.4875 358.118 29.3205 364.063C32.1535 370.03 33.1193 377.327 45.9107 379.323C58.7022 381.319 84.607 382.821 95.2736 332.729"
            stroke="#9F513F" stroke-opacity="0.44" stroke-width="2.14621" stroke-miterlimit="10" />
        <path d="M98.6191 245.268C98.4474 245.869 105.186 271.022 101.495 286.132" stroke="#9F513F"
            stroke-opacity="0.44" stroke-width="2.14621" stroke-miterlimit="10" />
        <path d="M61.8956 272.59C61.8956 272.59 82.6066 289.244 84.066 297.078" stroke="#9F513F"
            stroke-opacity="0.44" stroke-width="2.14621" stroke-miterlimit="10" />
        <path d="M87.7149 337.51C87.7149 337.51 79.731 354.423 68.678 360.754" stroke="#9F513F"
            stroke-opacity="0.44" stroke-width="2.14621" stroke-miterlimit="10" />
        <path d="M111.041 317.981C111.041 317.981 121.299 328.626 122.072 329.678" stroke="#9F513F"
            stroke-opacity="0.44" stroke-width="2.14621" stroke-miterlimit="10" />
        <path d="M104.862 329.034C104.862 329.034 112.738 341.354 112.588 348.951" stroke="#9F513F"
            stroke-opacity="0.44" stroke-width="2.14621" stroke-miterlimit="10" />
        <path d="M34.1708 317.638C34.1708 317.638 61.1701 317.359 71.5793 318.904" stroke="#9F513F"
            stroke-opacity="0.44" stroke-width="2.14621" stroke-miterlimit="10" />
        <path
            d="M111.728 306.8C111.728 306.8 127.824 307.529 133.383 302.572C138.942 297.635 145.81 289.952 145.81 289.952"
            stroke="#9F513F" stroke-opacity="0.44" stroke-width="2.14621" stroke-miterlimit="10" />
        <path d="M57.4354 231.811C57.4354 231.811 78.8546 257.029 80.2926 268.876" stroke="#9F513F"
            stroke-opacity="0.44" stroke-width="2.14621" stroke-miterlimit="10" />
        <path
            d="M93.0636 304.826C92.5056 306.629 95.2957 307.938 96.3044 305.77C97.3131 303.602 93.6217 303.023 93.0636 304.826Z"
            stroke="#9F513F" stroke-opacity="0.44" stroke-width="1.07311" stroke-miterlimit="10" />
        <path
            d="M99.259 306.115C98.7009 307.918 101.491 309.227 102.5 307.059C103.508 304.892 99.817 304.312 99.259 306.115Z"
            stroke="#9F513F" stroke-opacity="0.44" stroke-width="1.07311" stroke-miterlimit="10" />
        <path
            d="M94.1115 311.692C93.5535 313.495 96.3436 314.805 97.3523 312.637C98.361 310.469 94.6695 309.89 94.1115 311.692Z"
            stroke="#9F513F" stroke-opacity="0.44" stroke-width="1.07311" stroke-miterlimit="10" />
        <path
            d="M100.852 311.864C100.294 313.667 103.084 314.976 104.093 312.809C105.101 310.641 101.41 310.062 100.852 311.864Z"
            stroke="#9F513F" stroke-opacity="0.44" stroke-width="1.07311" stroke-miterlimit="10" />
        <path
            d="M87.7148 318.28C87.1568 320.083 89.9468 321.392 90.9556 319.225C91.9643 317.057 88.2728 316.478 87.7148 318.28Z"
            stroke="#9F513F" stroke-opacity="0.44" stroke-width="1.07311" stroke-miterlimit="10" />
        <path
            d="M93.1894 319.829C92.6314 321.632 95.4214 322.941 96.4302 320.774C97.4389 318.606 93.7474 318.026 93.1894 319.829Z"
            stroke="#9F513F" stroke-opacity="0.44" stroke-width="1.07311" stroke-miterlimit="10" />
        <path
            d="M88.1004 310.363C87.5424 312.166 90.3325 313.475 91.3412 311.307C92.3499 309.14 88.6584 308.56 88.1004 310.363Z"
            stroke="#9F513F" stroke-opacity="0.44" stroke-width="1.07311" stroke-miterlimit="10" />
        <path
            d="M98.186 316.995C97.6279 318.798 100.418 320.107 101.427 317.94C102.435 315.772 98.744 315.192 98.186 316.995Z"
            stroke="#9F513F" stroke-opacity="0.44" stroke-width="1.07311" stroke-miterlimit="10" />
    </g>
    <defs>
        <clipPath id="clip0_2395_14928">
            <rect width="393.809" height="346.871" fill="white"
                transform="translate(0 394) rotate(-90)" />
        </clipPath>
    </defs>
</svg>
