<svg width="660" height="632" viewBox="0 0 660 632" fill="none" xmlns="http://www.w3.org/2000/svg">
<path d="M539.741 158.619C671.165 155.889 703.533 311.882 591.999 393.778C673.895 589.548 489.043 620.747 416.117 520.912C390.378 669.105 164.19 674.564 154.83 502.193C-28.8511 511.162 -47.5701 286.923 92.8232 215.947C20.6766 52.1545 158.729 -49.6303 303.022 75.5537C359.18 -54.31 551.441 -9.8526 539.741 158.619Z" fill="#FF907F"/>
<path d="M385.29 170.345C444.957 195.694 506.964 297.869 426.237 396.534C345.121 495.2 171.58 437.092 176.65 317.368C181.719 197.644 286.625 128.227 385.29 170.345Z" fill="#F9CDCE"/>
</svg>
