<svg width="779" height="612" viewBox="0 0 779 612" fill="none" xmlns="http://www.w3.org/2000/svg">
    <path
        d="M583.286 437.76C602.852 452.305 616.172 484.915 614.947 505.824C613.721 526.733 605.381 546.734 593.879 564.244C582.377 581.754 567.792 596.972 552.93 611.715C542.93 579.106 532.732 542.939 538.384 509.302C543.167 480.804 559.728 454.44 583.326 437.76H583.286Z"
        fill="#495434" />
    <g opacity="0.3">
        <mask id="mask0_2396_24340" style="mask-type:luminance" maskUnits="userSpaceOnUse" x="536"
            y="437" width="80" height="175">
            <path
                d="M583.285 437.768C602.851 452.313 616.171 484.922 614.946 505.832C613.72 526.741 605.38 546.742 593.878 564.252C582.376 581.762 567.791 596.98 552.929 611.723C542.929 579.114 532.731 542.947 538.383 509.31C543.166 480.812 559.727 454.448 583.325 437.768H583.285Z"
                fill="white" />
        </mask>
        <g mask="url(#mask0_2396_24340)">
            <path
                d="M539.929 518.158C537.201 533.415 536.055 548.316 537.201 563.771C538.268 578.317 539.059 596.064 547.794 608.238C551.391 613.258 558.624 611.361 559.178 605.155C560.443 591.202 555.304 576.775 554 562.822C552.656 548.632 552.103 534.087 552.498 519.857C552.695 512.822 541.233 510.964 539.929 518.158Z"
                fill="#899667" />
        </g>
    </g>
    <path
        d="M607.556 443.413C619.533 445.389 630.521 452.899 636.727 463.334C645.581 478.157 644.514 496.576 643.17 513.77C629.77 504.718 615.857 494.481 609.019 479.856C603.92 468.947 603.248 454.678 607.596 443.413H607.556Z"
        fill="#899667" />
    <g opacity="0.3">
        <mask id="mask1_2396_24340" style="mask-type:luminance" maskUnits="userSpaceOnUse" x="604"
            y="443" width="41" height="71">
            <path
                d="M607.557 443.413C619.533 445.389 630.521 452.899 636.727 463.334C645.581 478.157 644.514 496.576 643.17 513.77C629.77 504.718 615.857 494.481 609.019 479.856C603.92 468.947 603.248 454.678 607.596 443.413H607.557Z"
                fill="white" />
        </mask>
        <g mask="url(#mask1_2396_24340)">
            <path
                d="M620.52 473.693C623.88 465.59 622.536 456.222 622.219 447.645C621.943 440.174 621.627 422.467 609.176 425.668C597.753 428.633 601.626 444.048 603.405 452.032C605.263 460.293 607.595 469.147 613.326 475.59C615.698 478.278 619.413 476.42 620.52 473.693Z"
                fill="#495434" />
        </g>
    </g>
    <path
        d="M630.164 481.474C621.428 467.838 613.76 453.411 607.594 438.43C604.709 431.434 602.179 424.28 599.926 417.047C598.74 413.134 597.634 409.22 596.645 405.268C595.776 401.829 595.381 398.114 593.641 394.991C593.207 394.161 592.06 394.596 592.021 395.426C591.467 402.54 595.183 411.078 597.317 417.798C599.649 425.15 602.298 432.343 605.302 439.458C611.665 454.557 619.571 468.787 629.018 482.186C629.492 482.897 630.638 482.265 630.164 481.514V481.474Z"
        fill="#1C1C1C" />
    <path
        d="M568.225 560.683C572.099 471.947 591.862 384.198 628.898 303.367C639.254 280.797 651.309 259.256 663.365 237.556C664.195 236.054 661.982 234.749 661.033 236.212C637.04 273.248 618.858 314.988 604.194 356.53C589.372 398.586 578.779 442.144 572.613 486.334C569.174 510.999 567.514 535.821 567.237 560.723C567.237 561.316 568.146 561.316 568.146 560.723L568.225 560.683Z"
        fill="#1C1C1C" />
    <path
        d="M182.291 485.225C159.208 501.549 130.235 509.376 102.053 506.925C65.0169 503.723 31.7752 483.842 -0.00390625 464.474C30.6685 450.56 63.3963 439.612 97.0727 441.193C114.464 442.023 159.524 451.39 182.291 485.225Z"
        fill="#899667" />
    <g opacity="0.3">
        <mask id="mask2_2396_24340" style="mask-type:luminance" maskUnits="userSpaceOnUse" x="-1"
            y="441" width="184" height="67">
            <path
                d="M182.292 485.229C159.209 501.553 130.236 509.379 102.054 506.929C65.0179 503.727 31.7762 483.845 -0.00292969 464.478C30.6695 450.564 63.3973 439.616 97.0737 441.197C114.465 442.027 159.525 451.394 182.292 485.229Z"
                fill="white" />
        </mask>
        <g mask="url(#mask2_2396_24340)">
            <path
                d="M94.8181 493.22C103.395 499.346 112.644 502.153 123 503.694C133.277 505.236 143.475 506.382 153.87 506.303C163.357 506.184 172.843 505.512 182.29 504.327C194.029 502.825 205.452 501.323 216.362 496.619C223.081 493.694 226.559 483.536 224.385 476.856C222.172 470.018 215.294 463.259 207.508 464.01C197.389 464.959 187.626 467.962 177.586 469.623C170.867 470.769 162.289 471.678 152.961 472.073C134.463 472.864 115.332 470.69 97.2292 474.959C88.1777 477.093 88.2962 488.556 94.8576 493.259L94.8181 493.22Z"
                fill="#495434" />
            <path
                d="M106.281 466.535C108.851 472.938 114.74 475.388 120.946 477.76C127.705 480.369 135.373 481.713 142.448 483.294C149.365 484.875 156.559 485.586 163.555 486.653C171.974 487.918 180.512 489.578 188.536 486.1C193.911 483.768 194.346 475.349 190.393 471.713C184.899 466.653 176.954 465.27 169.8 463.965C162.093 462.542 154.345 460.764 146.559 459.934C139.602 459.222 132.448 458.195 125.491 458.076C119.088 457.957 111.42 458.432 107.032 463.57C106.36 464.321 105.847 465.507 106.242 466.535H106.281Z"
                fill="#495434" />
        </g>
    </g>
    <path
        d="M92.9999 474.045C155.293 488.551 221.46 490.33 284.702 481.357C346.917 472.543 407.195 451.871 461.425 420.17C511.07 391.158 556.683 355.268 597.474 314.754C637.949 274.516 673.562 229.337 703.247 180.601C733.089 131.589 757.002 78.9792 773.564 24.0377C775.619 17.1601 777.2 10.243 778.465 3.20735C779.058 -0.0733365 774.631 -1.3382 773.445 1.8239C763.801 28.188 756.014 55.0658 745.461 81.1137C734.749 107.478 722.377 133.17 708.464 158.032C680.875 207.4 647.317 253.409 608.739 294.753C570.122 336.098 526.445 372.699 478.816 403.214C426.562 436.732 369.131 460.566 308.181 472.503C245.69 484.717 181.341 484.44 118.415 475.349C110.154 474.163 101.854 473.096 93.5928 471.871C92.1698 471.673 91.4979 473.768 92.9604 474.084L92.9999 474.045Z"
        fill="#1C1C1C" />
    <path
        d="M180.474 437.524C198.379 451.714 219.407 461.596 241.146 468.473C251.977 471.912 263.123 474.56 274.428 476.102C280.119 476.892 285.851 477.446 291.582 477.762C297.116 478.078 303.598 478.948 308.894 477.09C310.278 476.616 310.357 474.639 308.894 474.205C303.993 472.703 298.38 473.335 293.282 473.098C287.313 472.821 281.305 472.268 275.376 471.438C264.467 469.936 253.676 467.762 243.083 464.718C221.146 458.394 200.948 448.038 181.62 436.062C180.75 435.508 179.643 436.852 180.474 437.524Z"
        fill="#1C1C1C" />
    <path
        d="M174.702 458.941C183.003 459.89 191.659 459.218 199.999 459.534C208.378 459.85 216.877 461.629 225.217 461.234C226.679 461.155 226.956 459.139 225.572 458.704C217.628 456.056 208.299 456.214 199.999 456.095C191.738 455.977 182.607 455.977 174.623 458.388C174.307 458.467 174.386 458.902 174.702 458.941Z"
        fill="#1C1C1C" />
    <path
        d="M215.968 431.871C222.213 437.8 228.735 443.61 234.466 450.053C237.589 453.571 240.514 457.286 243.202 461.199C245.375 464.361 247.115 468.235 250.119 470.685C251.067 471.476 252.293 470.685 252.095 469.539C251.463 465.468 248.498 461.832 246.127 458.551C243.518 454.875 240.672 451.357 237.668 447.997C231.502 441.12 224.901 435.191 216.758 430.843C216.126 430.487 215.415 431.357 215.968 431.871Z"
        fill="#1C1C1C" />
    <path
        d="M320.952 492.265C316.683 516.297 300.082 538.472 276.841 551.199C253.599 563.926 224.073 567.009 198.381 559.341C213.164 539.143 235.654 514.044 258.224 500.843C276.09 490.408 299.766 490.763 320.912 492.226L320.952 492.265Z"
        fill="#495434" />
    <path
        d="M595.341 281.392C580.321 300.641 555.301 312.499 528.778 312.894C502.256 313.29 474.746 302.183 455.615 283.408C478.145 272.459 509.727 260.799 535.854 259.692C556.526 258.822 577.277 270.206 595.301 281.392H595.341Z"
        fill="#899667" />
    <g opacity="0.3">
        <mask id="mask3_2396_24340" style="mask-type:luminance" maskUnits="userSpaceOnUse" x="455"
            y="259" width="141" height="54">
            <path
                d="M595.337 281.402C580.317 300.651 555.297 312.509 528.774 312.904C502.252 313.299 474.742 302.192 455.611 283.417C478.141 272.469 509.723 260.808 535.85 259.702C556.522 258.832 577.273 270.216 595.297 281.402H595.337Z"
                fill="white" />
        </mask>
        <g mask="url(#mask3_2396_24340)">
            <path
                d="M517.903 305.112C524.504 306.653 530.433 308.907 537.271 309.223C544.228 309.539 551.461 308.59 558.378 307.76C565.493 306.891 572.528 305.902 579.485 304.124C586.56 302.266 594.347 300.606 600.592 296.693C605.217 293.768 607.351 287.997 605.098 282.898C602.687 277.444 597.667 275.704 592.054 276.495C585.73 277.404 579.564 280.368 573.437 282.226C567.232 284.084 561.026 286.139 554.781 287.839C548.813 289.499 542.765 290.566 536.797 292.068C530.196 293.728 524.346 296.97 517.903 298.985C515.018 299.895 514.701 304.401 517.903 305.152V305.112Z"
                fill="#495434" />
            <path
                d="M530.473 289.893C535.769 290.289 540.789 291.751 546.125 292.028C551.343 292.265 556.521 292.621 561.778 292.423C566.995 292.226 572.212 292.186 577.43 291.87C582.805 291.554 588.972 291.83 592.687 287.324C595.296 284.162 595.928 279.498 592.687 276.375C588.3 272.146 583.122 272.66 577.43 273.016C571.896 273.371 566.363 273.964 560.829 274.478C555.532 274.952 550.315 275.901 545.097 276.81C539.682 277.759 534.702 279.814 529.326 280.881C523.99 281.949 525.69 289.538 530.552 289.893H530.473Z"
                fill="#495434" />
            <path
                d="M523.556 276.416C535.967 279.894 548.892 281.12 561.185 284.993C566.995 286.811 572.924 288.471 578.576 290.883C585.177 293.728 591.383 297.167 598.458 293.768C600.316 292.898 601.422 290.566 601.422 288.59C601.383 280.408 593.833 275.863 587.272 272.661C580.434 269.341 573.319 266.337 565.849 264.874C558.576 263.451 550.671 262.107 543.2 262.503C535.651 262.898 529.129 264.716 522.409 268.036C518.773 269.855 519.88 275.388 523.516 276.416H523.556Z"
                fill="#495434" />
        </g>
    </g>
    <g opacity="0.3">
        <mask id="mask4_2396_24340" style="mask-type:luminance" maskUnits="userSpaceOnUse" x="198"
            y="491" width="123" height="73">
            <path
                d="M320.954 492.263C316.685 516.295 300.084 538.47 276.842 551.197C253.601 563.924 224.075 567.008 198.383 559.339C213.166 539.141 235.656 514.042 258.226 500.841C276.092 490.406 299.768 490.761 320.914 492.224L320.954 492.263Z"
                fill="white" />
        </mask>
        <g mask="url(#mask4_2396_24340)">
            <path
                d="M264.392 548.351C272.613 551.157 281.744 546.098 289.017 542.738C296.645 539.26 304.195 535.228 311.151 530.485C318.464 525.465 325.341 519.615 331.705 513.449C338.108 507.243 349.334 497.559 345.302 487.52C343.405 482.777 340.361 480.484 335.302 479.931C325.658 478.864 319.768 489.852 314.314 496.057C309.057 502.026 303.325 507.402 297.357 512.619C291.665 517.639 285.894 522.342 279.57 526.572C273.325 530.722 264.985 533.963 261.388 540.959C259.846 543.963 261.19 547.244 264.392 548.351Z"
                fill="#899667" />
            <path
                d="M267.236 528.626C287.118 522.499 307.592 513.685 324.272 500.997C335.142 492.736 323.403 477.123 312.731 486.017C297.236 498.942 281.584 510.444 263.283 519.219C258.026 521.748 261.702 530.326 267.236 528.626Z"
                fill="#899667" />
            <path
                d="M271.069 509.099C284.112 506.214 297.275 503.526 310.2 500.166C322.809 496.925 337.67 494.593 347.868 486.213C353.679 481.391 348.264 473.605 342.374 472.933C335.457 472.142 329.409 474.118 322.848 476.174C316.642 478.111 310.358 479.889 304.192 482.024C291.82 486.253 279.567 490.878 267.314 495.463C258.855 498.625 262.057 511.115 271.069 509.139V509.099Z"
                fill="#899667" />
        </g>
    </g>
    <path
        d="M254.627 534.043C273.6 526.493 291.505 517.007 308.146 505.149C316.169 499.418 323.917 493.291 331.348 486.769C335.103 483.449 338.739 480.05 342.257 476.493C345.775 472.935 349.925 469.378 352.297 464.951C352.81 464.042 351.743 462.777 350.795 463.449C347.04 465.939 344.075 469.576 340.873 472.738C337.316 476.255 333.64 479.655 329.964 482.975C322.256 489.932 314.154 496.453 305.735 502.501C289.568 514.122 272.256 524.399 254.232 532.897C253.639 533.173 254.074 534.241 254.706 534.003L254.627 534.043Z"
        fill="#1C1C1C" />
    <path
        d="M189.724 433.33C188.775 429.101 184.072 426.097 179.842 427.006C175.613 427.915 172.57 432.618 173.479 436.848C174.388 441.077 179.052 444.16 183.281 443.29C187.511 442.421 190.594 437.757 189.764 433.528V433.369L189.724 433.33Z"
        fill="#F7C1BB" />
    <path
        d="M622.931 225.502C619.413 244.396 602.259 263.566 588.346 268.428C574.432 273.329 558.938 272.578 544.116 268.744C529.293 264.91 515.024 258.112 500.992 250.957C519.095 234.277 539.491 216.49 563.009 211.391C582.93 207.083 605.026 212.261 622.971 225.502H622.931Z"
        fill="#495434" />
    <g opacity="0.3">
        <mask id="mask5_2396_24340" style="mask-type:luminance" maskUnits="userSpaceOnUse" x="500"
            y="209" width="123" height="63">
            <path
                d="M622.932 225.498C619.414 244.392 602.26 263.562 588.347 268.424C574.433 273.325 558.939 272.574 544.117 268.74C529.294 264.906 515.025 258.108 500.993 250.953C519.096 234.273 539.492 216.486 563.01 211.387C582.931 207.079 605.027 212.257 622.972 225.498H622.932Z"
                fill="white" />
        </mask>
        <g mask="url(#mask5_2396_24340)">
            <path
                d="M579.651 262.968C590.718 262.573 601.271 257.632 610.916 252.493C620.284 247.513 635.501 238.699 637.399 227.197C638.545 220.359 632.892 211.623 624.869 214.667C614.513 218.58 608.149 230.319 600.797 238.106C593.682 245.616 585.184 251.308 577.793 258.462C576.172 260.003 577.358 263.047 579.651 262.968Z"
                fill="#899667" />
            <path
                d="M581.467 248.862C589.175 247.756 596.685 246.372 604.274 244.593C611.626 242.854 619.729 241.827 626.725 239.02C637.397 234.751 633.563 218.941 621.903 221.51C614.195 223.17 606.566 227.004 599.215 229.811C591.744 232.656 584.59 235.739 577.436 239.257C571.586 242.103 576.092 249.692 581.507 248.902L581.467 248.862Z"
                fill="#899667" />
            <path
                d="M556.885 238.148C560.837 240.994 568.149 238.662 572.655 238.03C578.466 237.16 584.197 237.042 590.047 236.804C595.897 236.567 601.668 236.923 607.478 236.923C614.119 236.923 620.482 237.753 626.648 234.828C632.064 232.259 631.984 224.789 628.427 220.915C623.091 215.026 613.249 213.879 605.699 213.444C598.348 213.049 589.889 214.116 582.893 216.251C578.071 217.713 545.224 229.848 556.885 238.227V238.148Z"
                fill="#899667" />
        </g>
    </g>
    <path
        d="M182.649 456.896C181.701 452.666 176.997 449.662 172.768 450.572C168.538 451.481 165.495 456.184 166.404 460.414C167.313 464.643 171.977 467.726 176.206 466.856C180.436 465.987 183.519 461.323 182.689 457.093V456.935L182.649 456.896Z"
        fill="#F7C1BB" />
    <path
        d="M187.116 461.474C186.483 458.707 183.44 456.731 180.673 457.363C177.906 457.956 175.93 460.999 176.523 463.766C177.116 466.533 180.159 468.549 182.926 467.956C185.693 467.403 187.709 464.359 187.155 461.592V461.474H187.116Z"
        fill="#F7C1BB" />
    <path
        d="M185.731 454.319C185.256 452.184 182.885 450.643 180.75 451.117C178.616 451.591 177.074 453.963 177.549 456.097C177.983 458.232 180.355 459.773 182.489 459.338C184.624 458.904 186.205 456.532 185.77 454.398V454.319H185.731Z"
        fill="#EFACA8" />
    <path
        d="M221.383 437.328C220.908 435.194 218.537 433.652 216.402 434.127C214.268 434.601 212.726 436.973 213.201 439.107C213.675 441.241 216.007 442.783 218.141 442.348C220.276 441.913 221.857 439.542 221.422 437.407V437.328H221.383Z"
        fill="#EFACA8" />
    <path
        d="M195.377 438.076C194.744 435.309 191.701 433.333 188.934 433.965C186.167 434.558 184.191 437.602 184.784 440.368C185.377 443.135 188.42 445.151 191.187 444.558C193.954 444.005 195.97 440.961 195.416 438.194V438.076H195.377Z"
        fill="#F7C1BB" />
    <path
        d="M222.253 430.844C221.621 428.077 218.578 426.101 215.811 426.733C213.044 427.326 211.068 430.37 211.66 433.136C212.253 435.903 215.297 437.919 218.064 437.326C220.831 436.773 222.846 433.729 222.293 430.962V430.844H222.253Z"
        fill="#F7C1BB" />
    <path
        d="M228.26 431.714C227.628 428.947 224.584 426.971 221.817 427.603C219.05 428.196 217.074 431.24 217.667 434.007C218.26 436.773 221.303 438.789 224.07 438.196C226.837 437.643 228.853 434.599 228.3 431.833V431.714H228.26Z"
        fill="#F7C1BB" />
    <path
        d="M175.218 510.366C189.21 508.509 202.965 504.042 216.285 499.418C223.242 497.006 230.12 494.358 236.997 491.71C242.729 489.496 249.408 487.52 254.27 483.686C255.179 482.975 254.152 481.71 253.243 481.907C247.235 483.133 241.543 486.769 235.969 489.22C229.013 492.263 221.938 494.951 214.783 497.402C201.7 501.947 188.261 505.228 175.139 509.655C174.783 509.773 174.783 510.445 175.218 510.366Z"
        fill="#1C1C1C" />
    <path
        d="M183.951 508.984C183.319 506.217 180.275 504.24 177.508 504.873C174.741 505.466 172.765 508.509 173.358 511.276C173.951 514.043 176.994 516.059 179.761 515.466C182.528 514.912 184.544 511.869 183.991 509.102V508.984H183.951Z"
        fill="#F7C1BB" />
    <path
        d="M190.001 510.289C189.527 508.154 187.155 506.613 185.02 507.087C182.886 507.561 181.345 509.933 181.819 512.068C182.254 514.202 184.625 515.743 186.76 515.309C188.894 514.874 190.475 512.502 190.04 510.368V510.289H190.001Z"
        fill="#F7C1BB" />
    <path
        d="M186.916 506.135C186.441 504.001 184.07 502.46 181.936 502.934C179.801 503.408 178.26 505.78 178.734 507.914C179.208 510.048 181.54 511.59 183.675 511.155C185.809 510.72 187.39 508.349 186.955 506.214V506.135H186.916Z"
        fill="#EFACA8" />
    <path
        d="M239.725 382.697C260.516 399.101 281.544 415.662 305.734 426.413C329.924 437.165 357.909 441.71 382.968 433.212C373.364 405.623 349.885 382.737 322.019 373.922C294.153 365.108 267.354 368.507 239.725 382.697Z"
        fill="#899667" />
    <path
        d="M504.984 426.337C518.502 451.001 520.557 478.946 510.596 503.334C500.636 527.722 478.817 548.394 450.398 560.331C435.615 510.37 457.275 457.326 504.984 426.337Z"
        fill="#899667" />
    <path
        d="M521.35 362.696C502.852 379.573 478.266 389.652 453.207 390.601C420.281 391.866 388.858 378.032 358.818 364.514C384.273 348.901 411.823 335.659 441.586 333.367C456.962 332.181 497.595 335.462 521.311 362.696H521.35Z"
        fill="#899667" />
    <path
        d="M620.836 197.278C608.622 217.397 580.677 231.943 562.574 231.508C544.471 231.073 527.04 223.523 511.743 212.733C496.407 201.942 483.008 187.95 470.004 173.641C497.988 162.376 529.056 150.795 558.226 155.143C582.93 158.858 605.974 174.353 620.836 197.278Z"
        fill="#495434" />
    <path
        d="M593.328 342.698C607.162 368.667 611.392 399.616 604.989 428.351C598.585 457.087 581.629 483.332 558.071 500.961C551.391 472.621 547.043 447.64 550.126 418.707C553.249 389.734 567.083 355.307 593.328 342.698Z"
        fill="#899667" />
    <path
        d="M502.967 285.663C526.129 292.066 551.782 291.315 575.3 287.283C587.553 285.188 599.569 281.947 611.23 277.639C622.929 273.291 635.301 268.232 645.38 260.761C647.001 259.575 645.657 257.164 643.799 258.034C632.534 263.33 621.941 269.536 610.241 273.963C598.897 278.271 587.158 281.552 575.221 283.765C551.031 288.232 527.434 287.046 503.204 284.121C502.295 284.003 502.176 285.426 503.006 285.663H502.967Z"
        fill="#1C1C1C" />
    <g opacity="0.3">
        <mask id="mask6_2396_24340" style="mask-type:luminance" maskUnits="userSpaceOnUse" x="470"
            y="154" width="151" height="78">
            <path
                d="M620.839 197.283C608.625 217.402 580.68 231.947 562.577 231.513C544.474 231.078 527.043 223.528 511.746 212.738C496.41 201.947 483.01 187.955 470.006 173.646C497.991 162.381 529.058 150.8 558.229 155.148C582.933 158.863 605.977 174.358 620.839 197.283Z"
                fill="white" />
        </mask>
        <g mask="url(#mask6_2396_24340)">
            <path
                d="M522.457 157.324C530.283 164.596 541.785 166.059 551.469 170.051C561.232 174.043 570.758 178.233 579.81 183.767C588.545 189.103 596.569 195.308 603.921 202.423C607.913 206.297 611.786 210.289 615.779 214.162C620.285 218.51 623.842 222.463 630.285 223.688C635.146 224.637 638.467 221.672 639.099 216.969C640.008 210.131 636.807 205.269 632.972 199.933C629.178 194.715 625.146 190.249 620.324 186.02C611.272 178.035 601.351 170.881 590.758 165.031C580.402 159.3 569.019 154.003 557.438 151.355C546.607 148.865 533.327 145.387 523.247 151.355C521.232 152.541 520.678 155.584 522.496 157.244L522.457 157.324Z"
                fill="#899667" />
        </g>
    </g>
    <path
        d="M536.684 242.899C566.171 243.334 595.697 237.286 623.405 227.405C637.042 222.543 650.283 216.772 663.05 209.934C669.453 206.496 675.738 202.78 681.825 198.827C686.963 195.468 695.224 191.317 698.228 185.784C698.782 184.756 697.873 183.57 696.726 183.847C693.406 184.598 690.521 187.128 687.754 189.025C684.987 190.922 682.22 192.859 679.414 194.717C673.564 198.551 667.596 202.187 661.469 205.626C648.702 212.82 635.342 219.065 621.587 224.085C594.195 234.124 565.618 239.302 536.645 241.753C535.933 241.832 535.933 242.86 536.645 242.86L536.684 242.899Z"
        fill="#1C1C1C" />
    <path
        d="M510.677 183.21C523.128 187.123 537.12 187.874 550.045 189.653C563.247 191.511 576.449 193.368 589.611 195.187C602.892 197.044 616.173 198.902 629.493 200.76C634.987 201.511 640.639 202.025 646.015 203.329C651.628 204.673 654.75 207.479 659.138 210.839C659.889 211.392 660.719 210.483 660.561 209.732C658.703 200.997 645.106 199.653 638.11 198.665C623.525 196.649 608.9 194.673 594.315 192.696C580.125 190.76 565.935 188.823 551.745 186.886C545.341 186.017 538.899 185.147 532.495 184.357C525.302 183.447 518.068 182.024 510.795 182.262C510.282 182.262 510.163 183.013 510.677 183.171V183.21Z"
        fill="#1C1C1C" />
    <path
        d="M325.337 538.671C333.756 529.264 341.069 518.829 349.448 509.342C357.867 499.856 366.682 490.726 375.773 481.872C384.666 473.215 393.915 464.915 403.52 457.049C408.619 452.859 413.757 448.788 419.054 444.836C423.916 441.199 430.279 437.879 434.034 433.017C434.864 431.95 434.153 430.013 432.572 430.527C426.722 432.345 421.544 437.286 416.761 440.962C412.137 444.519 407.552 448.116 403.085 451.832C392.888 460.29 383.046 469.184 373.638 478.512C364.429 487.642 355.693 497.287 347.432 507.287C339.448 516.931 330.673 527.05 324.428 537.959C324.112 538.513 324.902 539.185 325.337 538.671Z"
        fill="#1C1C1C" />
    <path
        d="M348.105 545.75C356.762 534.168 364.272 521.757 370.675 508.792C373.6 502.863 376.327 496.816 378.817 490.729C381.545 484.049 384.825 476.974 385.932 469.82C386.09 468.713 384.588 467.843 383.995 468.989C381.031 474.839 379.331 481.361 376.959 487.448C374.193 494.484 371.189 501.361 367.868 508.16C361.663 520.887 354.588 533.141 346.999 545.078C346.524 545.789 347.631 546.382 348.105 545.75Z"
        fill="#1C1C1C" />
    <path
        d="M409.369 522.977C421.346 507.047 431.702 490.091 440.121 472.027C443.994 463.727 447.552 455.229 450.753 446.612C454.271 437.165 457.987 427.244 459.568 417.283C459.765 415.939 458.026 415.426 457.512 416.73C454.073 425.702 451.702 435.11 448.421 444.201C444.982 453.687 441.148 463.015 436.84 472.146C428.658 489.577 419.172 506.455 408.539 522.502C408.183 523.016 409.014 523.49 409.369 522.977Z"
        fill="#1C1C1C" />
    <path
        d="M355.774 544.476C354.825 540.247 350.121 537.243 345.892 538.152C341.663 539.061 338.619 543.764 339.528 547.994C340.437 552.223 345.102 555.306 349.331 554.437C353.56 553.567 356.643 548.903 355.813 544.674V544.515L355.774 544.476Z"
        fill="#F7C1BB" />
    <path
        d="M354.547 537.171C353.914 534.404 350.871 532.427 348.104 533.06C345.337 533.653 343.361 536.696 343.954 539.463C344.547 542.23 347.59 544.246 350.357 543.653C353.124 543.1 355.14 540.056 354.586 537.289V537.171H354.547Z"
        fill="#F7C1BB" />
    <path
        d="M326.799 534.68C325.099 536.063 324.823 538.87 326.206 540.569C327.59 542.269 330.396 542.546 332.096 541.162C333.795 539.779 334.111 536.973 332.728 535.273C331.345 533.573 328.578 533.257 326.839 534.601H326.759L326.799 534.68Z"
        fill="#EFACA8" />
    <path
        d="M316.285 539.305C314.586 540.688 314.309 543.495 315.692 545.194C317.076 546.894 319.882 547.171 321.582 545.787C323.281 544.404 323.598 541.597 322.214 539.898C320.831 538.198 318.064 537.882 316.325 539.226H316.246L316.285 539.305Z"
        fill="#F7C1BB" />
    <path
        d="M320.634 536.849C318.46 538.667 318.104 542.264 319.883 544.477C321.661 546.651 325.298 547.046 327.511 545.268C329.725 543.489 330.12 539.853 328.341 537.679C326.563 535.505 322.966 535.07 320.752 536.809L320.673 536.888L320.634 536.849Z"
        fill="#F7C1BB" />
    <path
        d="M318.658 531.081C316.484 532.9 316.128 536.497 317.907 538.71C319.686 540.923 323.322 541.279 325.536 539.501C327.749 537.722 328.145 534.085 326.366 531.911C324.587 529.738 320.99 529.303 318.777 531.042L318.698 531.121L318.658 531.081Z"
        fill="#F7C1BB" />
    <path
        d="M411.426 519.544C409.094 517.924 405.536 518.517 403.876 520.849C402.216 523.181 402.848 526.738 405.141 528.398C407.433 530.059 411.03 529.466 412.69 527.173C414.351 524.881 413.797 521.284 411.505 519.624L411.426 519.544Z"
        fill="#F7C1BB" />
    <path
        d="M416.762 516.414C414.983 515.149 412.177 515.623 410.912 517.402C409.647 519.18 410.082 521.947 411.861 523.252C413.64 524.556 416.406 524.082 417.711 522.303C419.015 520.524 418.58 517.757 416.802 516.453H416.723L416.762 516.414Z"
        fill="#F7C1BB" />
    <path
        d="M411.662 515.465C409.883 514.2 407.077 514.675 405.812 516.453C404.547 518.232 404.982 520.999 406.761 522.303C408.539 523.568 411.306 523.133 412.61 521.355C413.915 519.576 413.48 516.809 411.701 515.505H411.622L411.662 515.465Z"
        fill="#EFACA8" />
    <path
        d="M407.947 494.322C414.864 487.326 420.911 479.539 427.591 472.306C434.271 465.112 442.058 458.748 448.501 451.396C449.41 450.369 448.185 448.471 446.959 449.38C439.015 455.072 432.137 463.096 425.536 470.25C418.817 477.563 412.058 485.033 406.998 493.61C406.642 494.203 407.433 494.796 407.907 494.322H407.947Z"
        fill="#1C1C1C" />
    <path
        d="M410.319 490.645C408.541 489.38 405.734 489.854 404.47 491.633C403.205 493.412 403.64 496.179 405.418 497.483C407.197 498.748 409.964 498.313 411.268 496.534C412.572 494.756 412.138 491.989 410.359 490.685H410.28L410.319 490.645Z"
        fill="#F7C1BB" />
    <path
        d="M416.605 413.771C425.736 412.941 434.945 412.624 444.115 412.743C448.542 412.822 453.009 413.02 457.436 413.296C461.546 413.533 465.973 414.601 470.005 413.533C470.756 413.336 470.914 412.269 470.203 411.873C466.645 409.976 462.337 410.095 458.384 409.818C453.641 409.502 448.898 409.383 444.115 409.462C434.787 409.581 425.538 410.45 416.328 411.873C415.261 412.031 415.498 413.889 416.605 413.771Z"
        fill="#1C1C1C" />
    <path
        d="M286.325 457.922C296.759 459.701 307.155 461.638 317.629 463.258C322.728 464.049 327.827 464.76 332.887 465.511C337.59 466.223 342.847 467.725 347.59 467.171C348.381 467.092 349.013 465.867 348.065 465.432C343.638 463.535 338.42 463.416 333.677 462.705C328.262 461.914 322.847 461.084 317.432 460.333C307.115 458.91 296.799 457.764 286.483 456.499C285.692 456.381 285.494 457.764 286.285 457.922H286.325Z"
        fill="#1C1C1C" />
    <path
        d="M522.612 442.031C527.751 427.643 532.138 412.9 536.723 398.354C538.976 391.2 541.189 384.046 543.482 376.931C544.668 373.215 545.854 369.5 547.079 365.784C548.107 362.583 549.569 359.381 549.332 355.982C549.292 355.191 548.146 354.44 547.514 355.231C543.64 360.172 542.771 368.275 541.031 374.243C538.857 381.753 536.604 389.224 534.391 396.694C529.964 411.635 525.3 426.615 521.426 441.714C521.229 442.505 522.375 442.782 522.652 442.031H522.612Z"
        fill="#1C1C1C" />
    <path
        d="M502.534 329.417C517.791 332.975 533.286 333.844 548.859 331.947C556.25 331.038 563.523 329.576 570.677 327.56C577.081 325.742 585.579 323.963 590.638 319.417C591.271 318.864 590.796 317.52 589.887 317.639C583.405 318.429 576.923 322.263 570.638 324.161C563.246 326.374 555.658 327.995 547.989 328.943C533.088 330.801 517.791 330.366 502.969 327.916C501.981 327.757 501.546 329.18 502.534 329.417Z"
        fill="#1C1C1C" />
    <path
        d="M489.571 344.239C500.243 344.832 510.757 343.883 521.231 341.63C526.488 340.484 531.706 339.061 536.804 337.322C541.152 335.859 546.133 334.357 549.73 331.472C550.836 330.602 549.611 329.1 548.465 329.298C543.88 330.168 539.453 332.658 534.986 334.199C530.164 335.899 525.263 337.282 520.322 338.429C510.243 340.761 499.887 341.946 489.571 342.539C488.464 342.618 488.464 344.199 489.571 344.239Z"
        fill="#1C1C1C" />
    <path
        d="M492.85 339.773C491.072 338.509 488.265 338.983 487 340.762C485.736 342.54 486.17 345.307 487.949 346.611C489.728 347.876 492.494 347.441 493.799 345.663C495.103 343.884 494.668 341.117 492.89 339.813H492.811L492.85 339.773Z"
        fill="#F7C1BB" />
    <path
        d="M507.87 324.242C506.921 320.013 502.217 317.009 497.988 317.918C493.759 318.827 490.715 323.531 491.624 327.76C492.534 331.99 497.198 335.073 501.427 334.203C505.656 333.334 508.739 328.669 507.909 324.44V324.282L507.87 324.242Z"
        fill="#F7C1BB" />
    <path
        d="M513.522 328.987C512.889 326.22 509.846 324.243 507.079 324.876C504.312 325.469 502.336 328.512 502.929 331.279C503.521 334.046 506.565 336.062 509.332 335.469C512.099 334.915 514.114 331.872 513.561 329.105V328.987H513.522Z"
        fill="#EFACA8" />
    <path
        d="M522.019 435.106C517.79 436.055 514.786 440.719 515.695 444.948C516.604 449.177 521.268 452.221 525.537 451.351C529.767 450.482 532.85 445.818 531.98 441.549C531.11 437.28 526.486 434.197 522.217 435.066H522.059L522.019 435.106Z"
        fill="#F7C1BB" />
    <path
        d="M526.605 430.683C523.838 431.276 521.862 434.359 522.454 437.126C523.047 439.893 526.091 441.869 528.858 441.315C531.625 440.723 533.64 437.719 533.087 434.912C532.534 432.106 529.49 430.13 526.723 430.683H526.605Z"
        fill="#EFACA8" />
    <g opacity="0.3">
        <mask id="mask7_2396_24340" style="mask-type:luminance" maskUnits="userSpaceOnUse" x="239"
            y="369" width="144" height="69">
            <path
                d="M239.721 382.71C260.512 399.114 281.54 415.675 305.73 426.427C329.92 437.178 357.905 441.723 382.965 433.225C373.36 405.636 349.881 382.75 322.015 373.936C294.149 365.121 267.35 368.521 239.721 382.71Z"
                fill="white" />
        </mask>
        <g mask="url(#mask7_2396_24340)">
            <path
                d="M310.28 419.192C331.387 431.327 356.525 441.129 381.269 438.995C386.052 438.599 389.49 436.07 391.071 431.524C391.704 429.785 391.664 427.848 391.071 426.109C389.451 421.445 386.012 419.153 381.269 418.639C358.739 416.228 336.406 415.714 314.469 409.271C308.58 407.532 304.944 416.109 310.28 419.192Z"
                fill="#495434" />
            <path
                d="M330.439 397.731C333.325 402.237 336.171 405.874 340.281 409.352C344.511 412.989 349.491 415.835 354.115 418.957C358.384 421.803 362.574 424.847 366.962 427.534C371.863 430.538 377.515 434.175 383.088 435.598C392.812 438.088 399.413 426.27 392.733 419.036C388.978 415.005 383.444 412.119 378.74 409.313C374.037 406.506 369.056 404.135 364.234 401.605C359.57 399.154 354.946 396.309 350.044 394.372C344.708 392.277 339.965 391.407 334.313 391.012C330.993 390.775 328.74 394.965 330.479 397.692L330.439 397.731Z"
                fill="#495434" />
            <path
                d="M326.407 415.203C333.482 418.207 339.016 424.887 347.04 425.125C353.522 425.322 357.909 418.761 356.447 412.792C353.719 401.923 340.36 399.037 330.755 399.156C326.96 399.195 323.442 401.804 322.454 405.48C321.545 408.84 322.968 413.741 326.407 415.203Z"
                fill="#495434" />
        </g>
    </g>
    <path
        d="M519.45 432.028C517.316 432.503 515.774 434.874 516.249 437.009C516.723 439.143 519.055 440.685 521.229 440.25C523.363 439.815 524.905 437.443 524.47 435.309C524.035 433.175 521.703 431.594 519.529 432.028H519.45Z"
        fill="#F7C1BB" />
    <path
        d="M459.213 457.323C464.273 449.734 468.028 440.643 471.625 432.263C475.063 424.239 478.779 416.018 480.874 407.48C481.111 406.531 479.728 405.859 479.253 406.808C475.419 414.713 472.652 423.172 469.253 431.275C465.696 439.773 461.269 448.192 458.265 456.927C458.067 457.52 458.937 457.797 459.253 457.323H459.213Z"
        fill="#1C1C1C" />
    <path
        d="M627.159 391.278C631.546 385.032 634.234 376.85 637.277 369.854C640.242 363.016 643.088 356.139 645.776 349.182C651.349 334.636 656.369 319.933 660.795 304.992C665.222 290.09 669.136 275.031 672.495 259.853C675.816 244.912 679.333 229.536 680.44 214.279C680.598 212.105 677.12 211.67 676.646 213.765C673.286 228.587 671.31 243.765 668.147 258.667C664.906 273.884 661.112 288.983 656.803 303.885C652.574 318.51 647.91 333.055 642.771 347.403C640.202 354.558 637.594 361.712 634.866 368.827C632.099 376.02 628.068 383.412 626.289 390.882C626.171 391.436 626.882 391.712 627.159 391.238V391.278Z"
        fill="#1C1C1C" />
    <path
        d="M630.243 384.915C627.792 386.022 626.567 389.263 627.673 391.714C628.78 394.164 631.982 395.39 634.432 394.322C636.883 393.255 638.148 390.014 637.081 387.563C636.013 385.113 632.812 383.808 630.361 384.876H630.243V384.915Z"
        fill="#EFACA8" />
    <path
        d="M629.295 396.613C631.943 394.36 632.338 389.933 630.085 387.285C627.832 384.636 623.445 384.202 620.757 386.415C618.069 388.629 617.674 393.056 619.848 395.743C622.062 398.431 626.488 398.866 629.176 396.692L629.295 396.613Z"
        fill="#F7C1BB" />
    <path
        d="M621.786 378.079C618.624 379.502 617.043 383.652 618.466 386.853C619.889 390.016 624.039 391.636 627.201 390.213C630.363 388.83 631.984 384.68 630.64 381.478C629.257 378.316 625.146 376.656 621.944 378H621.826L621.786 378.079Z"
        fill="#F7C1BB" />
    <path
        d="M665.064 372.741C668.344 359.697 668.977 345.824 668.74 332.464C668.621 325.586 668.147 318.748 667.396 311.91C666.684 305.388 666.21 298.313 663.957 292.107C663.443 290.645 660.992 290.764 661.071 292.503C661.388 299.301 663.206 306.1 663.996 312.859C664.747 319.381 665.222 325.902 665.38 332.464C665.775 345.903 664.51 359.184 663.838 372.583C663.838 373.294 664.906 373.413 665.064 372.741Z"
        fill="#1C1C1C" />
    <path
        d="M667.794 367.636C665.462 366.016 661.904 366.609 660.244 368.941C658.584 371.273 659.216 374.83 661.509 376.49C663.801 378.15 667.398 377.557 669.059 375.265C670.719 372.972 670.165 369.375 667.873 367.715L667.794 367.636Z"
        fill="#F7C1BB" />
    <path
        d="M293.797 394.874C313.125 400.368 332.019 407.76 350.003 416.732C358.699 421.041 367.158 425.823 375.34 431.001C379.45 433.61 383.482 436.258 387.474 439.025C391.624 441.91 395.577 445.507 400.202 447.602C401.387 448.156 402.336 446.851 401.546 445.863C398.7 442.227 394.47 439.539 390.715 436.851C386.565 433.847 382.296 430.922 377.948 428.195C369.253 422.74 360.241 417.72 351.031 413.254C332.849 404.4 313.837 398.036 294.113 393.728C293.362 393.57 293.046 394.676 293.797 394.874Z"
        fill="#1C1C1C" />
    <g opacity="0.3">
        <mask id="mask8_2396_24340" style="mask-type:luminance" maskUnits="userSpaceOnUse" x="358"
            y="333" width="164" height="58">
            <path
                d="M521.35 362.689C502.851 379.566 478.266 389.646 453.206 390.594C420.281 391.859 388.857 378.025 358.817 364.507C384.272 348.894 411.822 335.653 441.585 333.36C456.961 332.174 497.594 335.455 521.31 362.689H521.35Z"
                fill="white" />
        </mask>
        <g mask="url(#mask8_2396_24340)">
            <path
                d="M446.205 379.648C453.952 381.506 461.778 383.443 469.802 383.482C478.103 383.522 486.324 383.206 494.585 382.099C502.767 381.032 511.265 380.004 519.21 377.751C523.044 376.644 526.799 375.103 530.515 373.601C534.823 371.901 539.408 370.518 542.728 367.118C546.799 362.968 545.653 353.64 538.934 352.731C531.068 351.624 522.056 354.588 514.269 356.209C506.759 357.751 499.368 359.885 491.779 361.268C484.506 362.573 477.194 363.917 469.842 364.786C461.857 365.735 454.15 367.711 446.245 369.134C440.908 370.083 441.264 378.383 446.245 379.569L446.205 379.648Z"
                fill="#495434" />
            <path
                d="M451.145 363.797C453.793 366.208 455.967 366.168 459.485 366.405L472.212 367.314C476.125 367.591 480.039 367.947 483.952 368.382C488.181 368.816 492.371 369.765 496.442 368.065C500.909 366.208 503.794 358.658 497.984 356.128C490.395 352.769 481.264 355.259 473.161 355.694C469.248 355.891 465.335 356.089 461.422 356.287C457.39 356.484 454.307 356.168 451.145 358.856C449.761 360.042 449.84 362.571 451.145 363.757V363.797Z"
                fill="#495434" />
            <path
                d="M420.514 345.3C427.115 349.331 434.625 350.833 442.174 352.414C449.526 353.956 456.76 355.814 463.914 358.067C471.108 360.32 478.262 362.573 485.298 365.26C493.401 368.383 500.832 372.573 509.725 371.387C516.523 370.478 519.488 360.912 516.128 355.655C510.95 347.632 500.397 344.746 491.78 341.821C484.389 339.331 476.879 337.157 469.171 335.695C461.147 334.193 453.044 333.046 444.902 332.335C440.712 331.94 436.562 332.098 432.372 332.335C427.945 332.572 424.546 333.639 420.514 335.497C416.482 337.355 417.154 343.284 420.514 345.339V345.3Z"
                fill="#495434" />
        </g>
    </g>
    <path
        d="M400.793 358.865C423.283 358.035 445.418 356.533 467.948 357.877C479.292 358.549 490.596 359.735 501.822 361.435C513.205 363.174 524.47 366.178 535.854 367.719C537.593 367.956 538.305 365.664 536.605 365.031C525.933 361.118 514.075 359.419 502.849 357.719C491.584 356.019 480.24 354.794 468.896 354.122C446.445 352.778 422.69 352.936 400.634 357.561C399.923 357.719 400.081 358.865 400.793 358.826V358.865Z"
        fill="#1C1C1C" />
    <g opacity="0.3">
        <mask id="mask9_2396_24340" style="mask-type:luminance" maskUnits="userSpaceOnUse" x="445"
            y="426" width="72" height="135">
            <path
                d="M504.982 426.339C518.5 451.003 520.555 478.948 510.594 503.336C500.634 527.724 478.815 548.396 450.396 560.333C435.613 510.372 457.273 457.327 504.982 426.339Z"
                fill="white" />
        </mask>
        <g mask="url(#mask9_2396_24340)">
            <path
                d="M479.848 521.756C484.551 522.112 487.951 518.752 490.599 515.353C493.721 511.361 496.725 507.329 499.255 502.942C504.156 494.404 508.267 485.432 511.825 476.261C515.145 467.724 517.753 458.988 519.414 449.976C521.271 439.779 524.236 427.249 520.599 417.13C516.093 404.521 499.65 404.64 495.065 417.13C491.666 426.34 493.089 437.407 491.943 447.091C491.034 454.68 489.334 464.68 487.239 473.02C485.026 481.874 481.903 490.293 478.662 498.831C476.567 504.325 468.425 520.966 479.887 521.796L479.848 521.756Z"
                fill="#495434" />
            <path
                d="M483.129 494.881C487.082 490.533 490.56 486.304 493.287 481.047C496.094 475.671 498.347 469.901 500.797 464.367C504.039 457.094 516.687 436.185 504.829 431.204C492.971 426.264 488.07 449.584 485.659 456.936C481.746 468.912 477.833 479.98 477.872 492.707C477.872 495.276 481.271 496.858 483.09 494.881H483.129Z"
                fill="#495434" />
            <path
                d="M471.269 491.085C481.309 487.013 486.21 474.562 491.546 465.788C494.51 460.886 497.119 455.748 499.807 450.689C502.89 444.878 507.277 438.87 506.961 432.032C506.684 426.024 499.491 420.332 493.799 424.483C488.226 428.554 486.328 434.048 483.68 440.175C481.19 445.866 478.542 451.558 476.328 457.369C474.312 462.665 472.376 468.041 470.399 473.377C468.423 478.673 467.04 484.207 468.66 489.662C468.937 490.65 470.162 491.559 471.229 491.124L471.269 491.085Z"
                fill="#495434" />
        </g>
    </g>
    <path
        d="M473.086 511.914C484.075 492.388 492.019 470.49 498.778 449.225C502.178 438.474 505.221 427.644 507.869 416.695C509.213 411.082 510.478 405.43 511.624 399.778C512.731 394.442 514.391 388.671 514.233 383.177C514.194 381.833 512.415 381.675 511.941 382.86C510.043 387.88 509.609 393.651 508.581 398.908C507.474 404.6 506.249 410.252 504.905 415.865C502.336 426.814 499.371 437.723 496.012 448.474C489.292 470.055 480.478 490.609 472.217 511.558C472.019 512.032 472.81 512.349 473.047 511.914H473.086Z"
        fill="#1C1C1C" />
    <g opacity="0.3">
        <mask id="mask10_2396_24340" style="mask-type:luminance" maskUnits="userSpaceOnUse" x="549"
            y="342" width="59" height="159">
            <path
                d="M593.326 342.697C607.16 368.666 611.39 399.615 604.986 428.35C598.583 457.086 581.626 483.331 558.069 500.96C551.389 472.62 547.041 447.639 550.124 418.706C553.246 389.733 567.081 355.306 593.326 342.697Z"
                fill="white" />
        </mask>
        <g mask="url(#mask10_2396_24340)">
            <path
                d="M596.21 428.308C599.569 421.549 602.534 414.593 605.063 407.439C607.672 400.008 608.7 391.944 609.648 384.157C610.558 376.885 611.032 369.691 610.676 362.339C610.241 353.406 610.083 343.287 603.601 336.449C597.277 329.73 587.988 334.078 584.984 341.351C582.296 347.912 584.826 355.54 585.538 362.339C586.289 369.256 586.842 376.252 587.039 383.248C587.395 396.529 586.921 410.403 585.063 423.565C584.194 429.771 592.85 435.107 596.249 428.269L596.21 428.308Z"
                fill="#495434" />
            <path
                d="M585.025 409.808C590.954 395.341 597.279 380.598 599.255 364.985C599.848 360.163 595.026 355.775 590.678 355.261C585.935 354.708 581.033 357.475 579.808 362.337C576.053 377.277 576.804 393.444 577.12 408.74C577.199 413.563 583.365 413.839 585.025 409.808Z"
                fill="#495434" />
            <path
                d="M569.687 403.292C574.984 403.094 577.988 398.746 580.557 394.636C583.68 389.695 586.407 384.675 589.055 379.458C594.549 368.825 602.218 356.414 599.727 344.121C598.423 337.718 589.095 333.409 583.601 337.56C580.28 340.05 577.711 342.224 575.814 345.939C574.272 348.943 573.324 352.343 572.257 355.505C570.241 361.394 568.739 367.323 567.197 373.331C565.814 378.786 557.948 403.687 569.727 403.252L569.687 403.292Z"
                fill="#495434" />
        </g>
    </g>
    <path
        d="M570.44 453.172C573.405 424.911 578.741 396.808 586.409 369.456C590.164 356.017 594.551 342.736 599.492 329.653C602.022 323.012 604.67 316.411 607.476 309.85C609.848 304.356 613.959 298.19 614.512 292.221C614.631 291.036 613.01 290.522 612.259 291.273C608.03 295.462 606.054 302.854 603.801 308.269C600.994 314.989 598.346 321.787 595.856 328.625C590.954 342.025 586.686 355.661 583.049 369.416C575.776 396.848 571.152 424.793 569.136 453.093C569.057 453.963 570.401 453.923 570.48 453.093L570.44 453.172Z"
        fill="#1C1C1C" />
</svg>
