<svg width="575" height="1436" viewBox="0 0 575 1436" fill="none" xmlns="http://www.w3.org/2000/svg">
<g clip-path="url(#clip0_4177_1092)">
<path d="M310.176 1010.51C167.214 1074.8 41.2203 926.645 19.4038 872.854C0.242155 825.585 -4.31739 772.313 6.36002 722.447C7.80292 715.579 9.59211 708.768 11.6122 702.016C28.7537 759.443 48.2617 817.043 80.9865 867.256C113.711 917.469 161.385 960.236 219.158 976.108C244.553 983.091 273.007 985.631 294.997 998.617C300.48 1001.85 305.616 1005.77 310.176 1010.56V1010.51Z" fill="#58898F"/>
<path d="M294.997 998.551C253.903 1006.17 210.097 1002.13 172.813 983.314C155.787 974.714 140.377 963.228 126.063 950.646C101.188 928.83 79.4864 903.435 61.5945 875.616C30.8897 827.885 15.5374 777.153 6.24512 722.381C7.68801 715.512 9.4772 708.702 11.4973 701.949C28.6388 759.376 48.1468 816.977 80.8716 867.189C113.596 917.402 161.27 960.17 219.043 976.041C244.438 983.025 272.892 985.564 294.882 998.551H294.997Z" fill="#4F7D83"/>
<path d="M301.297 1074.74C302.047 1075.61 302.913 1076.42 303.779 1077.23C323.806 1095.46 374.654 1103.54 432.889 1056.62C494.702 1006.76 575.793 838.86 567.771 829.395C567.251 829.395 566.732 829.452 566.27 829.51C542.837 831.588 525.984 853.116 513.691 873.432C486.911 917.526 465.845 965.431 433.235 1005.43C400.626 1045.42 352.837 1077.63 301.355 1074.8L301.297 1074.74Z" fill="#58898F"/>
<path d="M301.297 1074.75C302.047 1075.62 302.913 1076.43 303.779 1077.23C308.28 1078.33 313.186 1078.27 317.861 1077.87C369.517 1073.54 415.055 1040.76 448.299 1000.99C481.543 961.226 504.803 914.361 531.525 869.92C540.356 855.202 550.456 839.677 565.173 830.154C565.52 829.923 565.924 829.692 566.27 829.461C542.837 831.539 525.984 853.067 513.691 873.383C486.911 917.477 465.845 965.382 433.235 1005.38C400.626 1045.38 352.837 1077.58 301.355 1074.75H301.297Z" fill="#4F7D83"/>
<path d="M194.868 1433.55C246.928 1351.88 290.965 1128.52 300.373 967.382C308.684 825.171 279.71 406.27 301.411 406.27C315.61 406.789 334.079 770.571 323.113 967.902C310.011 1203.09 230.306 1458.95 194.868 1433.49V1433.55Z" fill="#4F7D83"/>
</g>
<g clip-path="url(#clip1_4177_1092)">
<path d="M247.557 445.262C247.557 445.262 301.396 501.522 311.845 501.522C322.294 501.522 379.262 442.074 379.262 442.074L247.557 445.203V445.262Z" fill="#4F7D83"/>
<path d="M310.322 444.174C279.683 444.528 248.69 439.628 220.707 427.113C192.725 414.598 167.931 394.113 152.759 367.488C161.673 401.374 182.04 429.356 213.741 444.351C245.443 459.346 278.443 458.755 310.322 444.174Z" fill="#4F7D83"/>
<path d="M306.306 444.119C336.944 445.417 368.056 441.462 396.392 429.773C424.729 418.085 450.113 398.367 466.112 372.215C456.194 405.805 434.942 433.138 402.827 447.188C370.712 461.239 337.712 459.645 306.306 444.119Z" fill="#4F7D83"/>
<path d="M46.6084 101.443C80.6122 84.9727 119.988 79.1874 157.475 85.2089C194.962 91.2304 230.323 108.941 257.066 135.152L223.416 220.339L46.6084 101.443Z" fill="url(#paint0_linear_4177_1092)"/>
<path d="M573.257 101.443C539.254 84.9727 499.878 79.1874 462.391 85.2089C424.904 91.2304 389.542 108.941 362.8 135.152L396.449 220.339L573.257 101.502V101.443Z" fill="url(#paint1_linear_4177_1092)"/>
<path d="M213.142 164.366C215.799 96.4174 251.573 35.5529 311.966 0.722656C370.351 41.9877 403.056 94.5873 408.31 164.602C413.564 234.558 210.486 232.374 213.142 164.425V164.366Z" fill="url(#paint2_linear_4177_1092)"/>
<g style="mix-blend-mode:screen" opacity="0.2">
<path d="M263.439 86.1961C239.589 113.352 213.378 141.275 206.648 176.283C205.408 182.599 204.877 189.093 206.353 195.351C210.308 212.116 227.664 222.743 244.725 227.583C276.072 236.557 311.316 231.834 339.003 214.891C356.89 203.97 372.062 187.204 376.136 167.073C381.272 141.57 368.166 116.127 353.762 94.2248C339.357 72.323 322.65 50.3032 319.522 24.4461C319.049 20.4318 319.522 -1.41091 310.312 3.13474C307.538 4.55157 302.933 28.5195 300.985 32.77C291.835 52.4875 277.843 69.7845 263.439 86.1371V86.1961Z" fill="#EE9DE5"/>
</g>
<path d="M350.105 87.6755C351.049 85.7274 352.289 83.7793 354.178 82.7166C356.126 81.654 359.019 82.0082 360.023 83.8973C360.613 84.9599 360.495 86.2587 360.259 87.4984C359.314 92.3392 356.599 96.6487 354.71 101.253C352.053 107.865 351.286 115.008 351.108 122.034C350.99 125.753 353.352 138.268 347.212 138.504C340.541 138.74 343.847 113.71 344.201 109.636C344.969 102.08 346.563 94.5825 349.987 87.7346L350.105 87.6755Z" fill="#69F870"/>
<path d="M284.987 56.7966C284.042 54.8485 282.803 52.9004 280.914 51.8377C278.966 50.7751 276.073 51.1293 275.069 53.0184C274.479 54.081 274.597 55.3798 274.833 56.6195C275.778 61.4603 278.493 65.7698 280.382 70.3745C283.039 76.9864 283.806 84.1295 283.983 91.1546C284.102 94.8738 281.74 107.389 287.88 107.625C294.551 107.861 291.245 82.8308 290.89 78.7574C290.123 71.201 288.529 63.7036 285.105 56.8557L284.987 56.7966Z" fill="#69F870"/>
<path d="M311.968 0.722656C311.968 0.722656 324.602 110.645 290.066 196.894L311.968 0.722656Z" fill="#D366CB"/>
<path d="M311.609 448.616C191.415 448.616 154.518 374.469 154.518 274.347C154.518 180.246 82.3191 121.152 45.7178 103.029C158.178 97.5387 432.039 206.752 311.609 448.616Z" fill="url(#paint3_linear_4177_1092)"/>
<path d="M308.298 448.612C428.492 448.612 465.388 374.465 465.388 274.343C465.388 180.242 537.587 121.089 574.188 103.025C478.907 84.1929 208.825 200.727 308.298 448.612Z" fill="url(#paint4_linear_4177_1092)"/>
<g opacity="0.4">
<path d="M321.293 449.724C396.444 400.135 420.53 299.186 437.177 237.495C465.691 131.883 526.969 113.582 572.602 101.716C572.602 101.716 452.822 77.3939 412.147 282.774C395.853 364.891 321.293 449.724 321.293 449.724Z" fill="#D366CB"/>
<path d="M298.565 449.724C223.414 400.135 199.328 299.186 182.681 237.495C154.167 131.883 92.8894 113.641 47.2559 101.716C47.2559 101.716 167.037 77.3939 207.711 282.774C224.005 364.891 298.565 449.724 298.565 449.724Z" fill="#D366CB"/>
</g>
<g style="mix-blend-mode:multiply" opacity="0.16">
<path d="M253.818 439.652C260.371 442.25 267.16 444.316 274.008 445.851C188.585 432.332 157.946 370.582 154.817 288.938C163.85 303.46 170.166 319.635 175.834 335.457C187.463 367.985 198.798 403.051 226.544 424.539C234.75 430.915 244.077 435.815 253.877 439.652H253.818Z" fill="#E48DD9"/>
</g>
<g style="mix-blend-mode:multiply" opacity="0.16">
<path d="M468.41 241.406C466.462 251.855 465.34 262.836 465.34 274.406C465.34 368.271 432.93 439.289 329.856 447.79C341.545 445.96 352.998 442.772 363.86 438.168C398.395 423.527 426.378 395.014 439.719 360.833C448.338 338.695 450.936 314.904 454.832 291.585C457.666 274.525 461.385 257.227 468.351 241.465L468.41 241.406Z" fill="#E48DD9"/>
</g>
<g opacity="0.6">
<path d="M321.293 449.75C384.637 406.006 411.497 329.733 430.447 258.361C435.17 240.769 440.365 221.405 447.331 204.462C461.441 169.691 485.408 137.517 519.471 120.279C536.178 111.483 554.42 106.229 572.661 101.684C554.597 106.583 536.473 112.192 520.003 121.224C467.757 148.144 445.265 204.699 432.632 258.892C413.15 330.088 385.936 407.305 321.352 449.691L321.293 449.75Z" fill="#D366CB"/>
</g>
<g opacity="0.6">
<path d="M298.389 449.762C233.865 407.375 206.65 330.217 187.11 258.962C182.505 241.37 177.487 222.125 170.639 205.182C156.825 170.588 133.329 138.65 99.7387 121.294C83.2681 112.203 65.1446 106.595 47.0801 101.754C65.3217 106.3 83.5633 111.554 100.27 120.35C153.047 147.033 176.188 203.942 189.294 258.431C208.244 329.804 235.105 406.076 298.448 449.821L298.389 449.762Z" fill="#D366CB"/>
</g>
<path d="M374.96 413.982C344.852 460.678 274.424 460.206 244.789 413.215C217.751 370.297 204.468 318.465 206.475 267.931C209.722 185.696 256.596 111.844 311.32 48.9727C364.215 116.626 406.602 179.793 412.919 264.448C416.933 318.051 403.296 370.061 374.96 413.982Z" fill="url(#paint5_linear_4177_1092)"/>
<g style="mix-blend-mode:multiply" opacity="0.15">
<path d="M374.959 413.972C344.793 460.668 274.424 460.196 244.789 413.204C217.751 370.345 204.468 318.454 206.475 267.921C208.128 226.301 220.939 186.808 240.302 149.793C244.198 159.711 224.717 236.692 224.068 258.534C220.171 395.494 295.676 431.328 305.771 431.328C371.949 431.328 394.736 321.996 394.5 261.663C394.382 227.482 389.246 197.965 383.874 159.12C399.459 191.412 409.967 225.652 412.86 264.438C416.874 318.041 403.237 370.05 374.9 413.972H374.959Z" fill="#DD90D4"/>
</g>
<path style="mix-blend-mode:multiply" opacity="0.2" d="M310.317 448.753C285.05 448.753 259.724 436.947 244.789 413.215C217.751 370.356 204.468 318.465 206.475 267.931C209.722 185.755 256.596 111.844 311.32 48.9727C311.438 49.1498 311.616 49.3269 311.734 49.504C308.487 116.154 303.882 182.508 300.045 249.158C296.149 315.985 300.045 385.114 310.376 448.753H310.317Z" fill="url(#paint6_linear_4177_1092)"/>
<path d="M311.325 48.9727C310.381 106.59 304.477 190.655 301.644 249.335C297.747 315.867 301.053 382.694 310.322 448.694C298.515 382.989 294.737 315.808 298.397 249.158C301.644 190.183 307.96 106.826 311.325 48.9727Z" fill="#D366CB"/>
<path d="M306.889 447.903C349.866 431.255 386.939 399.908 410.612 360.414C408.664 386.684 390.068 420.57 369.17 436.627C346.855 453.747 329.263 453.57 306.889 447.903Z" fill="#58898F"/>
<path d="M310.14 447.903C267.163 431.255 230.09 399.908 206.417 360.414C208.365 386.684 226.961 420.57 247.859 436.627C270.174 453.747 287.766 453.57 310.14 447.903Z" fill="#58898F"/>
</g>
<defs>
<linearGradient id="paint0_linear_4177_1092" x1="46.6084" y1="151.564" x2="257.066" y2="151.564" gradientUnits="userSpaceOnUse">
<stop stop-color="#D17FC8"/>
<stop offset="1" stop-color="#EA8DDF"/>
</linearGradient>
<linearGradient id="paint1_linear_4177_1092" x1="362.8" y1="0.730714" x2="573.257" y2="0.730714" gradientUnits="userSpaceOnUse">
<stop stop-color="#D17FC8"/>
<stop offset="1" stop-color="#EA8DDF"/>
</linearGradient>
<linearGradient id="paint2_linear_4177_1092" x1="310.726" y1="0.722656" x2="310.726" y2="216.198" gradientUnits="userSpaceOnUse">
<stop stop-color="#F9ADEB"/>
<stop offset="0.35" stop-color="#F6A8E9"/>
<stop offset="0.73" stop-color="#F09BE4"/>
<stop offset="1" stop-color="#EA8DDF"/>
</linearGradient>
<linearGradient id="paint3_linear_4177_1092" x1="193.658" y1="102.852" x2="193.658" y2="448.616" gradientUnits="userSpaceOnUse">
<stop stop-color="#F9ADEB"/>
<stop offset="0.36" stop-color="#F5A6E7"/>
<stop offset="0.87" stop-color="#EC93E0"/>
<stop offset="1" stop-color="#EA8DDF"/>
</linearGradient>
<linearGradient id="paint4_linear_4177_1092" x1="430.381" y1="101.077" x2="430.381" y2="0.71829" gradientUnits="userSpaceOnUse">
<stop stop-color="#F9ADEB"/>
<stop offset="0.36" stop-color="#F5A6E7"/>
<stop offset="0.87" stop-color="#EC93E0"/>
<stop offset="1" stop-color="#EA8DDF"/>
</linearGradient>
<linearGradient id="paint5_linear_4177_1092" x1="309.963" y1="48.9727" x2="309.963" y2="448.753" gradientUnits="userSpaceOnUse">
<stop stop-color="#F9ADEB"/>
<stop offset="1" stop-color="#EA8DDF"/>
</linearGradient>
<linearGradient id="paint6_linear_4177_1092" x1="206.239" y1="248.863" x2="311.734" y2="248.863" gradientUnits="userSpaceOnUse">
<stop stop-color="#F9ADEB"/>
<stop offset="0.36" stop-color="#F5A6E7"/>
<stop offset="0.87" stop-color="#EC93E0"/>
<stop offset="1" stop-color="#EA8DDF"/>
</linearGradient>
<clipPath id="clip0_4177_1092">
<rect width="567.577" height="1029.01" fill="white" transform="translate(0.711914 406.332)"/>
</clipPath>
<clipPath id="clip1_4177_1092">
<rect width="528.417" height="500.848" fill="white" transform="translate(45.7285 0.714844)"/>
</clipPath>
</defs>
</svg>
