<svg width="808" height="1218" viewBox="0 0 808 1218" fill="none" xmlns="http://www.w3.org/2000/svg">
<path fill-rule="evenodd" clip-rule="evenodd" d="M209.797 281.49C241.402 380.052 280.99 417.114 304.286 403.104C357.233 371.255 330.759 100.414 279.931 29.8733C222.912 -49.2203 128.912 28.8958 209.797 281.409V281.49Z" fill="#FFF20F"/>
<path fill-rule="evenodd" clip-rule="evenodd" d="M178.841 569.11C267.14 623.115 321.308 625.233 329.861 599.493C349.166 540.763 152.124 353.007 67.5728 332.888C-27.2418 310.243 -47.4429 430.798 178.841 569.11Z" fill="#FFF20F"/>
<path fill-rule="evenodd" clip-rule="evenodd" d="M499.207 406.768C456.035 500.85 412.293 532.862 390.87 516.245C342.078 478.287 400.808 212.496 459.701 148.635C525.761 76.9537 609.742 165.741 499.207 406.768Z" fill="#FFF20F"/>
<path fill-rule="evenodd" clip-rule="evenodd" d="M592.555 616.354C549.383 710.436 505.641 742.448 484.219 725.831C435.427 687.872 494.156 422.082 553.049 358.221C619.109 286.54 703.09 375.326 592.555 616.354Z" fill="#FFF20F"/>
<path fill-rule="evenodd" clip-rule="evenodd" d="M275.69 847.037C378.324 859.988 428.664 839.706 425.813 812.744C419.296 751.326 162.547 660.992 77.1816 677.364C-18.529 695.692 12.5872 813.884 275.69 847.118V847.037Z" fill="#FFF20F"/>
<path fill-rule="evenodd" clip-rule="evenodd" d="M569.343 828.957C541.567 894.122 545.477 931.021 563.723 934.198C605.428 941.447 713.031 789.369 718.326 730.151C724.272 663.683 640.617 661.973 569.343 828.957Z" fill="#FFF20F"/>
<path fill-rule="evenodd" clip-rule="evenodd" d="M464.097 953.663C531.542 975.249 556.957 1002.37 547.345 1018.34C525.596 1054.59 340.121 1036.5 291.899 1001.72C237.731 962.705 291.166 898.355 464.097 953.663Z" fill="#FFF20F"/>
<path fill-rule="evenodd" clip-rule="evenodd" d="M234.717 67.9101C234.717 63.3485 238.464 59.6016 243.025 59.6016C247.587 59.6016 251.334 63.3485 251.334 67.9101C251.334 273.749 315.684 501.744 414.49 704.406C518.183 917.006 659.672 1101.42 804.419 1202.59C808.166 1205.2 809.062 1210.41 806.455 1214.16C803.849 1217.9 798.636 1218.8 794.889 1216.19C647.779 1113.4 504.336 926.617 399.502 711.656C299.719 506.876 234.717 276.356 234.717 67.9101Z" fill="#C9B800"/>
<path fill-rule="evenodd" clip-rule="evenodd" d="M68.1395 404.896C64.8812 401.638 64.8812 396.425 68.1395 393.166C71.3977 389.908 76.6109 389.908 79.8691 393.166C260.375 571.962 384.107 638.104 384.432 638.348C388.505 640.548 389.971 645.516 387.772 649.589C385.573 653.662 380.523 655.128 376.531 653.01C376.205 652.848 250.438 585.484 68.1395 404.977V404.896Z" fill="#C9B800"/>
<path fill-rule="evenodd" clip-rule="evenodd" d="M363.337 603.323C361.463 607.478 356.494 609.351 352.34 607.396C348.186 605.523 346.312 600.554 348.267 596.4C357.472 576.361 384.923 513.07 412.943 439.434C430.049 394.552 447.236 346.004 460.595 301.53C495.54 184.396 495.458 181.871 495.458 181.871C495.702 177.309 499.694 173.807 504.255 174.051C508.817 174.295 512.319 178.205 512.075 182.848C512.075 182.848 512.075 187.41 476.479 306.254C463.039 351.299 445.689 400.254 428.501 445.38C400.481 518.935 372.704 582.878 363.337 603.323Z" fill="#C9B800"/>
<path fill-rule="evenodd" clip-rule="evenodd" d="M106.343 740.659C102.515 738.134 101.456 732.921 104.063 729.092C106.588 725.264 111.801 724.205 115.629 726.812C171.915 764.281 410.174 803.706 454.078 810.711C467.193 770.472 535.371 560.316 557.446 479.593C582.127 389.584 584.001 384.127 584.001 384.127C585.385 379.728 590.028 377.366 594.427 378.751C598.825 380.136 601.188 384.779 599.803 389.177C599.803 389.177 598.092 394.309 573.493 483.992C548.649 574.408 467.926 821.871 467.682 822.604C466.46 826.432 462.631 828.876 458.559 828.224C457.744 828.061 171.345 783.912 106.425 740.659H106.343Z" fill="#C9B800"/>
<path fill-rule="evenodd" clip-rule="evenodd" d="M326.274 988.527C321.712 987.794 318.698 983.477 319.432 978.997C320.165 974.435 324.482 971.421 328.962 972.154C444.792 991.867 512.156 1005.06 550.929 1012.72C567.22 1015.9 577.891 1018.18 584.489 1019.56C581.149 1014.02 576.913 1006.77 572.352 998.953C561.437 980.463 548.322 958.062 539.118 943.482C537 940.142 537.57 935.825 540.258 933.137C579.194 888.662 612.102 830.421 645.173 771.936C651.608 760.614 657.962 749.291 662.116 742.042C664.397 738.05 669.447 736.665 673.439 738.946C677.43 741.227 678.815 746.277 676.534 750.269C669.284 762.894 664.397 771.529 659.591 780.163C627.09 837.589 594.834 894.69 556.305 939.816C564.858 953.664 576.588 973.621 586.525 990.563C594.101 1003.51 600.617 1014.51 604.038 1019.97C608.03 1026.24 609.17 1030.97 602.246 1035.36C596.952 1038.7 584.244 1036.26 547.671 1029.01C508.816 1021.35 441.045 1008.08 326.192 988.527H326.274Z" fill="#C9B800"/>
</svg>
