<svg width="287" height="481" viewBox="0 0 287 481" fill="none" xmlns="http://www.w3.org/2000/svg">
    <g clip-path="url(#clip0_2395_5345)">
        <path
            d="M150.945 72.3009C150.945 72.3009 135.925 81.7709 120.135 77.7509C104.345 73.7309 102.005 69.4609 101.735 65.3109C101.455 61.1609 106.095 61.4309 106.095 61.4309C106.095 61.4309 102.665 58.1309 105.515 53.6409C108.355 49.1509 114.715 46.4209 124.235 51.6209C133.755 56.8209 150.025 61.3809 151.485 63.0209C152.945 64.6509 156.765 70.0409 150.945 72.2909V72.3009Z"
            fill="#A9814F" />
        <mask id="mask0_2395_5345" style="mask-type:luminance" maskUnits="userSpaceOnUse" x="101"
            y="48" width="54" height="31">
            <path
                d="M150.945 72.3009C150.945 72.3009 135.925 81.7709 120.135 77.7509C104.345 73.7309 102.005 69.4609 101.735 65.3109C101.455 61.1609 106.095 61.4309 106.095 61.4309C106.095 61.4309 102.665 58.1309 105.515 53.6409C108.355 49.1509 114.715 46.4209 124.235 51.6209C133.755 56.8209 150.025 61.3809 151.485 63.0209C152.945 64.6509 156.765 70.0409 150.945 72.2909V72.3009Z"
                fill="white" />
        </mask>
        <g mask="url(#mask0_2395_5345)">
            <path
                d="M95.2855 60.8115C102.955 67.1115 111.835 71.5715 121.385 74.2115C111.395 73.7315 101.455 68.7115 95.2855 60.8115Z"
                fill="#D3B794" />
            <path
                d="M97.1555 55.2314C107.265 60.7814 117.645 67.0314 128.855 69.9914C117.315 69.2014 105.895 62.4914 97.1555 55.2314Z"
                fill="#D3B794" />
            <path
                d="M99.0255 49.6514C109.455 54.2514 119.715 60.1414 129.725 65.6114C118.725 62.0414 108.545 56.1614 99.0255 49.6514Z"
                fill="#D3B794" />
            <path
                d="M104.995 44.8311C117.425 52.0311 129.545 60.8811 141.605 68.6511C134.855 65.8311 128.715 61.7811 122.605 57.8111C116.555 53.7411 110.615 49.5111 104.995 44.8311Z"
                fill="#D3B794" />
        </g>
        <path
            d="M156.935 66.5209C156.935 66.5209 161.395 46.1109 170.775 34.9109C180.155 23.7109 192.115 27.2609 191.865 33.0209L191.625 38.7809C191.625 38.7809 199.205 40.8509 197.505 47.3409C195.805 53.8309 166.475 71.4509 160.205 71.2809C153.935 71.1109 156.935 66.5209 156.935 66.5209Z"
            fill="#A9814F" />
        <mask id="mask1_2395_5345" style="mask-type:luminance" maskUnits="userSpaceOnUse" x="156"
            y="27" width="42" height="45">
            <path
                d="M156.935 66.5209C156.935 66.5209 161.395 46.1109 170.775 34.9109C180.155 23.7109 192.115 27.2609 191.865 33.0209L191.625 38.7809C191.625 38.7809 199.205 40.8509 197.505 47.3409C195.805 53.8309 166.475 71.4509 160.205 71.2809C153.935 71.1109 156.935 66.5209 156.935 66.5209Z"
                fill="white" />
        </mask>
        <g mask="url(#mask1_2395_5345)">
            <path
                d="M196.355 24.0605C191.845 25.3505 187.745 27.9105 183.765 30.3305C179.775 32.8305 176.125 35.7605 172.945 39.2905C176.615 31.8305 188.065 24.3905 196.355 24.0605Z"
                fill="#D3B794" />
            <path
                d="M201.875 30.0708C197.055 30.8108 192.805 33.4508 188.595 35.7908C185.565 37.5708 182.265 39.7008 179.275 41.6008C178.245 42.2608 177.205 42.9308 176.125 43.5408C182.105 37.6308 193.115 29.3908 201.865 30.0708H201.875Z"
                fill="#D3B794" />
            <path
                d="M202.215 36.2705C193.815 39.6405 185.245 42.7205 178.455 48.9505C183.705 41.1505 193.235 37.5405 202.215 36.2705Z"
                fill="#D3B794" />
            <path
                d="M205.985 44.601C200.615 45.241 195.625 47.561 190.785 49.851C186.135 52.091 181.095 55.061 176.665 57.751L167.455 63.501C177.075 55.171 192.875 44.381 205.985 44.601Z"
                fill="#D3B794" />
        </g>
        <path
            d="M155.455 67.2604C156.595 61.0604 151.365 27.5804 158.815 18.5204C166.765 8.86045 171.635 20.3004 171.635 20.3004C171.635 20.3004 180.365 20.4704 182.345 27.3204C184.325 34.1704 161.035 70.1904 159.285 69.4904C157.535 68.7904 155.445 67.2704 155.445 67.2704L155.455 67.2604Z"
            fill="#D3B794" />
        <path
            d="M155.455 67.2604C156.595 61.0604 151.365 27.5804 158.815 18.5204C166.765 8.86045 171.635 20.3004 171.635 20.3004C171.635 20.3004 180.365 20.4704 182.345 27.3204C184.325 34.1704 161.035 70.1904 159.285 69.4904C157.535 68.7904 155.445 67.2704 155.445 67.2704L155.455 67.2604Z"
            fill="#A9814F" />
        <path
            d="M155.455 67.2604C156.595 61.0604 151.365 27.5804 158.815 18.5204C166.765 8.86045 171.635 20.3004 171.635 20.3004C171.635 20.3004 180.365 20.4704 182.345 27.3204C184.325 34.1704 161.035 70.1904 159.285 69.4904C157.535 68.7904 155.445 67.2704 155.445 67.2704L155.455 67.2604Z"
            fill="#A9814F" />
        <mask id="mask2_2395_5345" style="mask-type:luminance" maskUnits="userSpaceOnUse" x="154"
            y="14" width="29" height="56">
            <path
                d="M155.455 67.2604C156.595 61.0604 151.365 27.5804 158.815 18.5204C166.765 8.86045 171.635 20.3004 171.635 20.3004C171.635 20.3004 180.365 20.4704 182.345 27.3204C184.325 34.1704 161.035 70.1904 159.285 69.4904C157.535 68.7904 155.445 67.2704 155.445 67.2704L155.455 67.2604Z"
                fill="white" />
        </mask>
        <g mask="url(#mask2_2395_5345)">
            <path
                d="M157.815 46.61C157.175 35.27 158.655 3.71 171.685 0C169.705 0.78 168.165 2.26 167.015 3.97C163.575 9.2 162.235 15.51 161.015 21.58C159.445 29.84 158.605 38.22 157.825 46.61H157.815Z"
                fill="#D3B794" />
            <path
                d="M163.675 36.7204C166.395 24.9404 172.165 13.4204 181.115 5.15039C180.265 6.42039 179.265 7.55039 178.475 8.85039C172.435 17.5104 167.855 27.0404 163.675 36.7204Z"
                fill="#D3B794" />
            <path
                d="M172.665 32.8899C174.765 27.3399 177.505 22.0799 180.585 17.0099C183.745 12.0399 187.135 6.91992 191.965 3.41992C184.275 12.3599 179.105 23.0599 172.665 32.8899Z"
                fill="#D3B794" />
        </g>
        <path
            d="M182.435 27.7305C178.775 28.2705 174.565 30.3805 170.775 34.9105C161.395 46.1105 156.935 66.5205 156.935 66.5205C156.935 66.5205 156.555 67.1005 156.345 67.8605C157.115 68.3605 158.265 69.0605 159.295 69.4805C161.005 70.1705 183.465 35.5105 182.435 27.7305Z"
            fill="#EFDA95" />
        <path
            d="M149.755 70.7106C149.755 70.7106 104.005 41.6306 112.975 30.5406C121.955 19.4506 123.005 24.5606 126.305 24.0506C129.605 23.5506 140.575 15.8006 143.935 23.6606C147.295 31.5206 155.215 67.5806 155.215 67.5806L149.745 70.7106H149.755Z"
            fill="#A9814F" />
        <path
            d="M150.625 65.1903C142.255 58.2303 134.145 56.9503 124.585 51.8203C131.865 58.3603 140.505 64.5003 145.535 67.9203C148.075 69.6503 151.375 69.7803 154.045 68.2503C153.915 66.1403 151.585 65.9903 150.615 65.1903H150.625Z"
            fill="#EFDA95" />
        <mask id="mask3_2395_5345" style="mask-type:luminance" maskUnits="userSpaceOnUse" x="111"
            y="20" width="45" height="51">
            <path
                d="M149.755 70.7106C149.755 70.7106 104.005 41.6306 112.975 30.5406C121.955 19.4506 123.005 24.5606 126.305 24.0506C129.605 23.5506 140.575 15.8006 143.935 23.6606C147.295 31.5206 155.215 67.5806 155.215 67.5806L149.745 70.7106H149.755Z"
                fill="white" />
        </mask>
        <g mask="url(#mask3_2395_5345)">
            <path
                d="M147.245 64.2307C133.435 54.5007 106.945 31.6007 99.9455 16.7207L101.085 18.4907C102.965 21.4307 105.325 24.0407 107.635 26.6507C112.335 31.7807 117.405 36.7207 122.435 41.5207C130.595 49.2007 138.775 56.8907 147.255 64.2207L147.245 64.2307Z"
                fill="#D3B794" />
            <path
                d="M150.765 59.5702C143.665 42.0802 137.325 24.0802 134.005 5.4502C139.215 22.9802 145.825 41.9502 150.765 59.5702Z"
                fill="#D3B794" />
            <path
                d="M134.015 36.5104C130.545 31.5004 128.505 25.6104 126.255 19.9804C124.195 14.2504 122.205 8.44039 121.255 2.40039C124.365 10.6104 127.855 19.6804 130.815 27.9904C131.765 30.4804 132.855 34.1404 134.015 36.5104Z"
                fill="#D3B794" />
            <path
                d="M137.085 47.4004C131.025 41.1204 125.365 34.4804 119.855 27.7204C114.465 20.8704 108.885 14.0804 104.705 6.40039C115.125 20.0204 127.065 33.4604 137.085 47.4004Z"
                fill="#D3B794" />
            <path
                d="M129.435 44.8203C123.375 38.5403 117.715 31.9003 112.205 25.1403C106.815 18.2903 101.235 11.5003 97.0555 3.82031C107.475 17.4403 119.415 30.8803 129.435 44.8203Z"
                fill="#D3B794" />
        </g>
        <path
            d="M145.535 70.7107C142.465 72.8207 153.155 79.8807 157.245 79.3107C161.335 78.7407 168.095 68.0906 168.095 68.0906C168.095 68.0906 155.045 64.1707 145.535 70.7007V70.7107Z"
            fill="#605A19" />
        <path d="M107.725 250.13C107.725 250.13 116.335 299.86 143.115 313.25" stroke="#907B3A"
            stroke-width="0.93" stroke-linecap="round" stroke-linejoin="round" />
        <path d="M120.165 287.43C120.165 287.43 130.685 263.52 127.815 237.7" stroke="#907B3A"
            stroke-width="0.93" stroke-linecap="round" stroke-linejoin="round" />
        <path d="M119.205 241.53C119.205 241.53 119.205 261.61 125.895 264.48" stroke="#907B3A"
            stroke-width="0.93" stroke-linecap="round" stroke-linejoin="round" />
        <path d="M135.465 260.65C134.505 264.48 132.545 272.82 124.195 276.53" stroke="#907B3A"
            stroke-width="0.93" stroke-linecap="round" stroke-linejoin="round" />
        <path d="M96.9555 283.28C96.9555 283.28 114.505 309.93 132.755 306.83" stroke="#907B3A"
            stroke-width="0.93" stroke-linecap="round" stroke-linejoin="round" />
        <path d="M106.375 272.44C106.375 272.44 114.865 289.97 112.365 300.69" stroke="#907B3A"
            stroke-width="0.93" stroke-linecap="round" stroke-linejoin="round" />
        <path d="M47.0255 434.479C47.0255 434.479 65.7155 472.029 95.4755 475.249" stroke="#907B3A"
            stroke-width="0.93" stroke-linecap="round" stroke-linejoin="round" />
        <path d="M64.9655 459.04C64.9655 459.04 66.5055 432.96 54.8155 409.76" stroke="#907B3A"
            stroke-width="0.93" stroke-linecap="round" stroke-linejoin="round" />
        <path d="M48.0855 416.34C48.0855 416.34 55.0755 435.17 62.3555 435.53" stroke="#907B3A"
            stroke-width="0.93" stroke-linecap="round" stroke-linejoin="round" />
        <path d="M41.7655 463.229C41.7655 463.229 67.4955 482.099 83.5255 472.839" stroke="#907B3A"
            stroke-width="0.93" stroke-linecap="round" stroke-linejoin="round" />
        <path d="M46.8155 449.79C46.8155 449.79 60.8755 463.26 62.2655 474.19" stroke="#907B3A"
            stroke-width="0.93" stroke-linecap="round" stroke-linejoin="round" />
        <path d="M177.955 340.11C177.955 340.11 188.435 369 170.055 392.63" stroke="#907B3A"
            stroke-width="0.93" stroke-linecap="round" stroke-linejoin="round" />
        <path d="M197.875 346C197.875 346 193.545 377.61 175.735 382.69" stroke="#907B3A"
            stroke-width="0.93" stroke-linecap="round" stroke-linejoin="round" />
        <path d="M188.025 337.45C188.025 337.45 188.655 351.27 180.405 355.04" stroke="#907B3A"
            stroke-width="0.93" stroke-linecap="round" stroke-linejoin="round" />
        <path d="M171.465 348.44C171.465 348.44 171.365 367.91 178.245 376.51" stroke="#907B3A"
            stroke-width="0.93" stroke-linecap="round" stroke-linejoin="round" />
        <path
            d="M116.905 96.1696C118.185 89.4796 122.665 84.8896 122.665 84.8896C122.665 84.8896 130.335 89.0297 133.675 94.7297C137.025 100.42 130.635 105.8 130.635 105.8C130.635 105.8 113.575 113.58 116.905 96.1696Z"
            fill="#A9814F" />
        <path d="M123.335 85.5996C123.335 85.5996 133.385 95.6496 132.125 103.19" stroke="#D3B794"
            stroke-width="0.94" stroke-linecap="round" stroke-linejoin="round" />
        <path
            d="M123.335 107.26C123.335 107.26 117.605 93.6096 122.665 84.8896C122.665 84.8896 122.075 105.06 127.105 108.83"
            stroke="#D3B794" stroke-width="0.94" stroke-linecap="round" stroke-linejoin="round" />
        <path
            d="M130.045 109.639C130.045 109.639 127.165 110.309 123.015 109.749C120.965 109.469 117.005 107.689 117.005 107.689C117.005 107.689 117.975 106.259 123.215 105.899C127.845 105.589 128.385 107.949 128.385 107.949C128.385 107.949 124.735 103.899 126.115 99.8994L131.085 105.799C131.765 99.2794 136.335 98.6494 136.335 98.6494C136.335 98.6494 133.925 106.499 130.045 109.639Z"
            fill="#605A19" />
        <path d="M146.565 140.87C145.275 139.35 134.115 129.54 128.385 107.96" stroke="#605A19"
            stroke-width="1.88" stroke-miterlimit="10" />
        <path
            d="M177.125 294.63C173.785 288.69 168.075 285.77 168.075 285.77C168.075 285.77 162.125 292.14 160.755 298.6C159.385 305.06 167.155 308.13 167.155 308.13C167.155 308.13 185.795 310.09 177.115 294.63H177.125Z"
            fill="#A9814F" />
        <path d="M167.665 286.64C167.665 286.64 161.335 299.36 164.915 306.11" stroke="#D3B794"
            stroke-width="0.94" stroke-linecap="round" stroke-linejoin="round" />
        <path
            d="M174.555 307.19C174.555 307.19 175.655 292.43 168.075 285.77C168.075 285.77 175.045 304.71 171.475 309.88"
            stroke="#D3B794" stroke-width="0.94" stroke-linecap="round" stroke-linejoin="round" />
        <path
            d="M168.945 311.58C168.945 311.58 171.895 311.3 175.645 309.45C177.505 308.53 180.685 305.59 180.685 305.59C180.685 305.59 179.315 304.54 174.235 305.87C169.745 307.04 169.985 309.46 169.985 309.46C169.985 309.46 172.155 304.46 169.585 301.1L166.745 308.27C164.035 302.3 159.495 303.16 159.495 303.16C159.495 303.16 164.275 309.83 168.955 311.58H168.945Z"
            fill="#605A19" />
        <path d="M156.615 364.449L163.195 346.429C163.195 346.429 171.085 326.699 169.975 309.449"
            stroke="#605A19" stroke-width="1.88" stroke-miterlimit="10" />
        <path
            d="M140.015 272.37C140.015 272.37 135.515 261.5 128.685 251.83C121.975 242.34 112.665 238.04 112.665 238.04C112.665 238.04 110.985 250.36 122.155 260.71C133.325 271.07 140.015 272.37 140.015 272.37Z"
            fill="#605A19" />
        <path
            d="M140.755 286.57C140.755 286.57 138.745 282.54 145.775 267.92C152.805 253.29 165.875 251.13 165.875 251.13C165.875 251.13 164.425 261.97 156.875 271.78C149.175 281.78 140.755 286.58 140.755 286.58V286.57Z"
            fill="#605A19" />
        <path d="M164.315 251.72C164.315 251.72 147.165 265.01 141.235 285.16" stroke="#907B3A"
            stroke-width="0.93" stroke-linecap="round" stroke-linejoin="round" />
        <path d="M112.665 238.04C112.665 238.04 137.855 267.58 140.015 272.37" stroke="#907B3A"
            stroke-width="0.93" stroke-linecap="round" stroke-linejoin="round" />
        <path
            d="M136.045 374.66C136.045 374.66 137.575 360.1 134.825 342.62C132.115 325.46 122.485 313.53 122.485 313.53C122.485 313.53 112.085 328.93 120.195 350.2C128.305 371.47 132.285 378.9 132.285 378.9L136.055 374.66"
            fill="#605A19" />
        <path d="M122.385 314.84C122.385 314.84 131.805 369.01 135.575 373.25" stroke="#907B3A"
            stroke-width="0.93" stroke-linecap="round" stroke-linejoin="round" />
        <path d="M108.195 459.53C111.965 419.98 184.135 297.59 160.645 142.91" stroke="#605A19"
            stroke-width="1.88" stroke-miterlimit="10" />
        <path d="M105.375 411.979C105.375 411.979 104.765 462.449 80.4455 479.919" stroke="#907B3A"
            stroke-width="0.93" stroke-linecap="round" stroke-linejoin="round" />
        <path d="M99.0155 450.78C99.0155 450.78 84.8355 428.84 83.5755 402.89" stroke="#907B3A"
            stroke-width="0.93" stroke-linecap="round" stroke-linejoin="round" />
        <path d="M92.6755 405.3C92.6755 405.3 95.8655 425.13 89.7055 429.02" stroke="#907B3A"
            stroke-width="0.93" stroke-linecap="round" stroke-linejoin="round" />
        <path d="M79.6555 426.77C81.2055 430.4 84.4655 438.32 93.2955 440.66" stroke="#907B3A"
            stroke-width="0.93" stroke-linecap="round" stroke-linejoin="round" />
        <path d="M121.275 443C121.275 443 108.175 472.1 89.6655 471.93" stroke="#907B3A"
            stroke-width="0.93" stroke-linecap="round" stroke-linejoin="round" />
        <path d="M110.255 433.79C110.255 433.79 104.655 452.44 108.825 462.64" stroke="#907B3A"
            stroke-width="0.93" stroke-linecap="round" stroke-linejoin="round" />
        <path d="M147.375 412.63C147.375 412.63 167.815 458.78 197.055 465.25" stroke="#907B3A"
            stroke-width="0.93" stroke-linecap="round" stroke-linejoin="round" />
        <path d="M168.505 445.78C168.505 445.78 172.895 420.03 163.835 395.68" stroke="#907B3A"
            stroke-width="0.93" stroke-linecap="round" stroke-linejoin="round" />
        <path d="M156.415 401.489C156.415 401.489 161.295 420.969 168.495 422.129" stroke="#907B3A"
            stroke-width="0.93" stroke-linecap="round" stroke-linejoin="round" />
        <path d="M176.835 416.09C176.835 420.03 176.965 428.6 169.765 434.23" stroke="#907B3A"
            stroke-width="0.93" stroke-linecap="round" stroke-linejoin="round" />
        <path d="M144.985 447.399C144.985 447.399 168.485 468.979 185.435 461.539" stroke="#907B3A"
            stroke-width="0.93" stroke-linecap="round" stroke-linejoin="round" />
        <path d="M151.485 434.6C151.485 434.6 163.985 449.53 164.165 460.55" stroke="#907B3A"
            stroke-width="0.93" stroke-linecap="round" stroke-linejoin="round" />
        <path d="M195.975 79.0703C195.975 79.0703 175.535 125.22 146.295 131.69" stroke="#907B3A"
            stroke-width="0.93" stroke-linecap="round" stroke-linejoin="round" />
        <path d="M174.835 112.22C174.835 112.22 170.445 86.4701 179.505 62.1201" stroke="#907B3A"
            stroke-width="0.93" stroke-linecap="round" stroke-linejoin="round" />
        <path d="M186.935 67.9297C186.935 67.9297 182.055 87.4097 174.855 88.5697" stroke="#907B3A"
            stroke-width="0.93" stroke-linecap="round" stroke-linejoin="round" />
        <path d="M166.505 82.5303C166.505 86.4703 166.375 95.0403 173.575 100.67" stroke="#907B3A"
            stroke-width="0.93" stroke-linecap="round" stroke-linejoin="round" />
        <path d="M198.365 113.84C198.365 113.84 174.865 135.42 157.915 127.98" stroke="#907B3A"
            stroke-width="0.93" stroke-linecap="round" stroke-linejoin="round" />
        <path d="M191.855 101.04C191.855 101.04 179.355 115.97 179.175 126.99" stroke="#907B3A"
            stroke-width="0.93" stroke-linecap="round" stroke-linejoin="round" />
        <path
            d="M157.245 79.3203C156.715 81.7603 111.615 292.2 166.475 385.72C199.015 441.19 197.555 477.01 197.555 477.01"
            stroke="#605A19" stroke-width="1.88" stroke-miterlimit="10" />
        <path d="M67.4055 364.35C65.4655 376 65.4655 463.41 100.425 477.01" stroke="#605A19"
            stroke-width="1.88" stroke-miterlimit="10" />
        <path
            d="M167.115 167.07C167.115 167.07 175.145 145.28 187.185 134.39C199.225 123.5 211.845 129.23 210.695 135.54L209.545 141.85C209.545 141.85 217.575 145.29 214.705 152.17C211.835 159.05 176.865 173.96 169.985 172.81C163.105 171.66 167.115 167.08 167.115 167.08V167.07Z"
            fill="#A9814F" />
        <path
            d="M153.935 166.49C152.215 166.49 149.925 144.7 138.455 132.09C126.985 119.48 122.405 129.22 122.405 129.22C122.405 129.22 110.935 128.07 110.935 134.38C110.935 140.69 116.095 145.85 116.095 145.85C116.095 145.85 112.655 152.73 126.985 157.32C141.315 161.91 147.055 171.65 150.495 171.08C153.935 170.51 153.935 166.49 153.935 166.49Z"
            fill="#A9814F" />
        <path
            d="M151.635 173.95C143.035 171.08 127.555 161.34 116.085 157.32C104.925 153.42 107.485 164.2 107.485 164.2C107.485 164.2 94.8755 161.33 97.7355 172.23C100.605 183.12 109.205 191.15 127.555 189.43C145.905 187.71 153.355 181.4 153.355 181.4L151.635 173.95Z"
            fill="#A9814F" />
        <path
            d="M153.355 181.98C153.355 181.98 121.815 192.87 117.235 201.48C112.645 210.08 115.515 218.11 118.955 218.68C122.395 219.25 125.835 218.11 125.835 218.11C125.835 218.11 126.985 227.28 131.565 226.71C136.155 226.14 151.065 224.42 156.225 209.51C161.385 194.6 159.095 188.87 159.095 186.57C159.095 184.27 153.365 181.98 153.365 181.98H153.355Z"
            fill="#A9814F" />
        <path
            d="M163.035 186.3C161.535 188.38 152.415 212.46 157.265 221.96C162.115 231.46 174.005 233.38 175.685 230.17C177.365 226.96 175.465 224.33 175.465 224.33C175.465 224.33 181.345 231.09 183.975 229.19C186.605 227.29 192.815 224.81 184.915 209.01C177.015 193.21 169.245 183.82 169.245 183.82L163.035 186.3Z"
            fill="#A9814F" />
        <path
            d="M170.555 176.24C176.195 175.09 202.775 159.25 212.985 162.48C223.875 165.92 215.855 173.95 215.855 173.95C215.855 173.95 218.685 181.4 213.565 185.42C208.435 189.43 169.985 181.98 169.985 180.26C169.985 178.54 170.555 176.25 170.555 176.25V176.24Z"
            fill="#D3B794" />
        <path
            d="M170.555 176.24C176.195 175.09 202.775 159.25 212.985 162.48C223.875 165.92 215.855 173.95 215.855 173.95C215.855 173.95 218.685 181.4 213.565 185.42C208.435 189.43 169.985 181.98 169.985 180.26C169.985 178.54 170.555 176.25 170.555 176.25V176.24Z"
            fill="#A9814F" />
        <path
            d="M172.275 182.55C172.275 182.55 218.715 185.99 216.425 198.03C214.135 210.07 211.265 206.63 208.975 208.35C206.685 210.07 201.525 220.39 195.785 215.8C190.055 211.21 169.405 187.13 169.405 187.13L172.275 182.54V182.55Z"
            fill="#A9814F" />
        <path
            d="M157.375 163.05C157.375 163.05 145.905 147 149.345 129.22C152.785 111.45 157.375 108.58 161.955 108C166.545 107.43 166.545 112.59 166.545 112.59C166.545 112.59 169.985 108.58 175.145 111.44C180.305 114.31 183.745 121.19 178.585 132.08C173.425 142.97 169.415 161.32 167.695 163.04C165.975 164.76 160.245 169.35 157.375 163.04V163.05Z"
            fill="#A9814F" />
        <mask id="mask4_2395_5345" style="mask-type:luminance" maskUnits="userSpaceOnUse" x="148"
            y="107" width="34" height="60">
            <path
                d="M157.375 163.05C157.375 163.05 145.905 147 149.345 129.22C152.785 111.45 157.375 108.58 161.955 108C166.545 107.43 166.545 112.59 166.545 112.59C166.545 112.59 169.985 108.58 175.145 111.44C180.305 114.31 183.745 121.19 178.585 132.08C173.425 142.97 169.415 161.32 167.695 163.04C165.975 164.76 160.245 169.35 157.375 163.04V163.05Z"
                fill="white" />
        </mask>
        <g mask="url(#mask4_2395_5345)">
            <path
                d="M166.545 100.55C160.045 109.46 155.675 119.6 153.355 130.37C153.245 119.25 158.175 107.91 166.545 100.55Z"
                fill="#D3B794" />
            <path
                d="M172.855 102.28C167.645 110.15 165.015 119.41 162.575 128.44C160.455 136.22 158.315 148.16 156.805 156.18C157.615 139.46 161.635 115.18 172.855 102.28Z"
                fill="#D3B794" />
            <path
                d="M179.165 104C175.295 108.74 172.935 114.5 170.655 120.12C168.495 125.55 166.505 131.88 164.815 137.49C163.795 140.94 162.435 145.89 161.385 149.29C163.225 135.16 168.465 113.9 179.165 103.99V104Z"
                fill="#D3B794" />
            <path
                d="M184.895 110.3C180.765 119.69 175.695 128.39 170.565 137.25C173.505 127.46 178.775 118.44 184.895 110.3Z"
                fill="#D3B794" />
        </g>
        <mask id="mask5_2395_5345" style="mask-type:luminance" maskUnits="userSpaceOnUse" x="165"
            y="128" width="51" height="45">
            <path
                d="M167.115 167.07C167.115 167.07 175.145 145.28 187.185 134.39C199.225 123.5 211.845 129.23 210.695 135.54L209.545 141.85C209.545 141.85 217.575 145.29 214.705 152.17C211.835 159.05 176.865 173.96 169.985 172.81C163.105 171.66 167.115 167.08 167.115 167.08V167.07Z"
                fill="white" />
        </mask>
        <g mask="url(#mask5_2395_5345)">
            <path
                d="M217.005 126.36C204.135 125.05 192.675 134.45 184.205 143.08C181.615 145.82 178.135 149.89 175.725 152.74C177.965 149.05 180.435 145.5 183.215 142.18C191.155 132.93 204.105 122.99 217.015 126.36H217.005Z"
                fill="#D3B794" />
            <path
                d="M228.475 128.65C213.265 130.81 199.365 138.38 187.235 147.52C185.475 148.83 183.815 150.27 182.035 151.59C183.555 149.99 185.095 148.4 186.695 146.88C198.055 136.64 212.885 128.63 228.485 128.66L228.475 128.65Z"
                fill="#D3B794" />
            <path
                d="M221.595 140.69C211.835 143.11 201.925 145.19 193.495 151.01C200.465 143.23 211.515 140.71 221.595 140.69Z"
                fill="#D3B794" />
            <path
                d="M224.455 150.44C215.905 150.83 207.755 153.14 199.795 156.17C206.635 150.97 215.995 148.41 224.455 150.44Z"
                fill="#D3B794" />
        </g>
        <mask id="mask6_2395_5345" style="mask-type:luminance" maskUnits="userSpaceOnUse" x="169"
            y="162" width="50" height="25">
            <path
                d="M170.555 176.24C176.195 175.09 202.775 159.25 212.985 162.48C223.875 165.92 215.855 173.95 215.855 173.95C215.855 173.95 218.685 181.4 213.565 185.42C208.435 189.43 169.985 181.98 169.985 180.26C169.985 178.54 170.555 176.25 170.555 176.25V176.24Z"
                fill="white" />
        </mask>
        <g mask="url(#mask6_2395_5345)">
            <path
                d="M175.445 174.89C188.895 168.76 219.895 158.28 233.055 167.06C230.845 165.91 228.425 165.35 225.995 165.13C218.645 164.47 211.295 165.78 204.095 167.23C194.425 169.27 184.925 172.03 175.445 174.89Z"
                fill="#D3B794" />
            <path
                d="M199.225 172.8C210.105 170.87 221.935 171.85 231.905 176.81C221.145 174.13 210.295 173.25 199.225 172.8Z"
                fill="#D3B794" />
            <path
                d="M186.615 177.391C195.175 177.451 203.705 178.191 212.195 179.281C219.595 180.361 227.115 181.421 234.155 184.051C235.175 184.371 236.125 184.931 237.065 185.421C231.035 183.371 224.565 182.811 218.295 181.841C208.475 180.481 196.355 179.021 186.605 177.391H186.615Z"
                fill="#D3B794" />
        </g>
        <mask id="mask7_2395_5345" style="mask-type:luminance" maskUnits="userSpaceOnUse" x="169"
            y="182" width="48" height="35">
            <path
                d="M172.275 182.55C172.275 182.55 218.715 185.99 216.425 198.03C214.135 210.07 211.265 206.63 208.975 208.35C206.685 210.07 201.525 220.39 195.785 215.8C190.055 211.21 169.405 187.13 169.405 187.13L172.275 182.54V182.55Z"
                fill="white" />
        </mask>
        <g mask="url(#mask7_2395_5345)">
            <path
                d="M174.575 183.12C184.645 184.67 194.435 187.59 204.145 190.64C213.705 193.97 223.685 197.12 231.915 203.19C223.015 198.3 213.175 195.56 203.615 192.27C194.115 189.23 184.165 185.92 174.575 183.12Z"
                fill="#D3B794" />
            <path
                d="M170.555 184.271C184.965 196.961 198.855 210.411 210.695 225.551C197.085 211.991 183.325 198.651 170.555 184.271Z"
                fill="#D3B794" />
            <path
                d="M198.085 202.04C202.825 204.29 206.805 207.91 210.805 211.26C214.685 214.78 218.545 218.39 221.595 222.68C213.465 216.15 205.815 209.01 198.085 202.04Z"
                fill="#D3B794" />
            <path
                d="M206.105 199.18C215.455 202.51 224.605 206.85 232.485 212.94C223.405 208.9 214.435 204.64 206.105 199.18Z"
                fill="#D3B794" />
        </g>
        <mask id="mask8_2395_5345" style="mask-type:luminance" maskUnits="userSpaceOnUse" x="155"
            y="183" width="34" height="49">
            <path
                d="M163.035 186.3C161.535 188.38 152.415 212.46 157.265 221.96C162.115 231.46 174.005 233.38 175.685 230.17C177.365 226.96 175.465 224.33 175.465 224.33C175.465 224.33 181.345 231.09 183.975 229.19C186.605 227.29 192.815 224.81 184.915 209.01C177.015 193.21 169.245 183.82 169.245 183.82L163.035 186.3Z"
                fill="white" />
        </mask>
        <g mask="url(#mask8_2395_5345)">
            <path
                d="M163.035 186.3C162.945 195.67 162.595 205.02 162.485 214.37C162.405 219.04 162.405 223.71 162.535 228.36C162.765 233 162.785 237.72 164.255 242.18C158.495 229.96 160.995 200.07 163.045 186.29L163.035 186.3Z"
                fill="#D3B794" />
            <path
                d="M165.975 206.06C166.845 212.89 167.475 219.71 168.485 226.51C168.955 229.88 169.545 233.25 170.345 236.56C171.235 239.78 172.035 243.27 174.575 245.63C166.115 240.15 165.275 215.54 165.975 206.07V206.06Z"
                fill="#D3B794" />
            <path
                d="M173.425 212.37C175.775 222.65 177.545 234.39 181.265 244.21C181.465 244.64 181.935 245.69 182.135 246.1C182.775 247.23 184.175 249.07 184.985 250.12C186.105 251.68 187.265 253.21 188.335 254.8C186.955 253.45 185.675 252.04 184.335 250.66C183.155 249.36 181.455 247.67 180.665 246.11C178.745 242.64 177.665 238.9 176.685 235.17C174.865 227.69 173.755 220.06 173.435 212.37H173.425Z"
                fill="#D3B794" />
            <path
                d="M169.415 187.14C170.015 189.24 171.675 192.29 172.585 194.32C175.865 201.23 179.395 208.81 182.405 215.79C184.465 220.62 186.475 225.47 188.285 230.41C189.955 235.35 192.105 240.36 192.355 245.63C191.425 240.48 188.935 235.75 187.035 230.91L180.825 216.48C177.735 209.25 174.625 202.01 171.815 194.66C171.105 192.5 169.725 189.4 169.415 187.15V187.14Z"
                fill="#D3B794" />
        </g>
        <mask id="mask9_2395_5345" style="mask-type:luminance" maskUnits="userSpaceOnUse" x="114"
            y="181" width="46" height="46">
            <path
                d="M153.355 181.98C153.355 181.98 121.815 192.87 117.235 201.48C112.645 210.08 115.515 218.11 118.955 218.68C122.395 219.25 125.835 218.11 125.835 218.11C125.835 218.11 126.985 227.28 131.565 226.71C136.155 226.14 151.065 224.42 156.225 209.51C161.385 194.6 159.095 188.87 159.095 186.57C159.095 184.27 153.365 181.98 153.365 181.98H153.355Z"
                fill="white" />
        </mask>
        <g mask="url(#mask9_2395_5345)">
            <path
                d="M118.385 232.43C136.575 222.73 154.125 207.35 157.375 185.99C157.295 187.98 157.095 189.97 156.745 191.93C152.945 211.26 136.065 225.56 118.385 232.43Z"
                fill="#D3B794" />
            <path
                d="M112.075 231.861C119.695 221.461 128.205 211.701 137.635 202.911C140.005 200.751 142.515 198.601 145.215 196.851C146.075 196.201 147.095 195.771 148.055 195.301C147.175 195.941 146.275 196.491 145.485 197.221C141.515 200.641 137.765 204.711 134.145 208.511C127.315 215.751 119.065 224.821 112.075 231.851V231.861Z"
                fill="#D3B794" />
            <path
                d="M101.175 231.291C106.105 222.991 116.735 209.481 126.405 207.211C121.135 209.831 117.195 214.261 113.115 218.381C109.085 222.591 105.225 226.991 101.175 231.291Z"
                fill="#D3B794" />
            <path
                d="M155.075 181.98C139.855 190.42 110.225 204.01 100.605 217.53C108.725 202.31 139.095 188.21 155.075 181.98Z"
                fill="#D3B794" />
        </g>
        <mask id="mask10_2395_5345" style="mask-type:luminance" maskUnits="userSpaceOnUse" x="97"
            y="156" width="57" height="34">
            <path
                d="M151.635 173.95C143.035 171.08 127.555 161.34 116.085 157.32C104.925 153.42 107.485 164.2 107.485 164.2C107.485 164.2 94.8755 161.33 97.7355 172.23C100.605 183.12 109.205 191.15 127.555 189.43C145.905 187.71 153.355 181.4 153.355 181.4L151.635 173.95Z"
                fill="white" />
        </mask>
        <g mask="url(#mask10_2395_5345)">
            <path
                d="M82.2555 164.2C83.9255 165.14 85.2255 166.59 86.7655 167.71C91.1755 171.24 95.9555 174.3 101.035 176.76C106.055 179.22 111.515 181.17 116.885 182.75C118.695 183.31 120.555 183.71 122.385 184.27C120.485 184.08 118.575 183.87 116.695 183.57C104.435 181.43 92.5455 175.65 84.2355 166.24C83.6955 165.68 82.8955 164.66 82.2455 164.2H82.2555Z"
                fill="#D3B794" />
            <path
                d="M89.1355 162.48C85.0255 162.12 77.2655 163.24 84.7655 167.15C97.3455 172.78 111.355 174.63 124.685 177.96C115.425 177.17 106.235 175.7 97.2355 173.31C92.7555 172.04 88.2555 170.68 84.1055 168.32C83.0955 167.68 82.0555 167.04 81.2355 166.02C80.8455 165.55 80.4255 164.82 80.6255 163.98C81.7255 161.23 86.8555 162.04 89.1355 162.48Z"
                fill="#D3B794" />
            <path
                d="M93.1555 156.17C101.995 159.08 110.645 162.51 119.215 166.12C127.675 169.92 136.475 173.35 144.195 178.53C140.665 176.65 135.135 174.66 131.395 173.06C118.505 167.75 105.675 162.37 93.1555 156.17Z"
                fill="#D3B794" />
            <path
                d="M104.625 149.87C112.215 153.58 119.485 157.84 126.605 162.36C133.575 167.04 140.955 171.54 146.485 177.96C145.675 177.27 144.925 176.56 144.065 175.95C131.475 167.01 117.235 158.83 104.635 149.87H104.625Z"
                fill="#D3B794" />
        </g>
        <mask id="mask11_2395_5345" style="mask-type:luminance" maskUnits="userSpaceOnUse" x="110"
            y="125" width="44" height="47">
            <path
                d="M153.935 166.49C152.215 166.49 149.925 144.7 138.455 132.09C126.985 119.48 122.405 129.22 122.405 129.22C122.405 129.22 110.935 128.07 110.935 134.38C110.935 140.69 116.095 145.85 116.095 145.85C116.095 145.85 112.655 152.73 126.985 157.32C141.315 161.91 147.055 171.65 150.495 171.08C153.935 170.51 153.935 166.49 153.935 166.49Z"
                fill="white" />
        </mask>
        <g mask="url(#mask11_2395_5345)">
            <path
                d="M105.765 141.84C108.205 144.01 111.455 145.14 114.275 146.75C123.085 151.28 131.925 155.8 140.165 161.34C134.025 158.84 128.115 155.9 122.255 152.82C117.885 150.46 113.535 148.04 109.455 145.19C108.155 144.18 106.625 143.28 105.765 141.84Z"
                fill="#D3B794" />
            <path
                d="M100.605 129.8C106.895 138.03 114.905 145.38 124.955 148.47C125.985 148.72 127.105 149 128.125 149.3C127.075 149.28 125.875 149.2 124.815 149.12C114.125 147.51 105.045 139.44 100.605 129.8Z"
                fill="#D3B794" />
            <path
                d="M97.7355 120.05C104.735 124.3 111.355 129.1 117.805 134.13C124.125 139.28 130.675 144.42 135.575 151.01C123.735 140.14 109.815 130.65 97.7355 120.05Z"
                fill="#D3B794" />
            <path
                d="M111.505 118.899C116.525 123.199 121.095 127.949 125.525 132.839C129.815 137.819 134.345 142.789 137.305 148.719C129.035 138.749 119.335 129.229 111.505 118.899Z"
                fill="#D3B794" />
            <path
                d="M124.115 117.18C130.355 125.41 136.025 134.03 141.415 142.82C146.605 151.7 152.135 160.61 155.175 170.51C153.125 165.78 150.465 161.38 147.895 156.93C140.035 143.63 131.785 130.62 124.115 117.18Z"
                fill="#D3B794" />
        </g>
        <path
            d="M160.365 169.9C160.365 169.9 161.655 158.78 166.725 158.86C171.805 158.94 166.385 170.61 166.385 170.61C166.385 170.61 174.565 163.21 176.965 166.6C179.375 169.99 167.315 177.1 167.315 177.1C167.315 177.1 177.405 174.96 176.635 180.29C175.865 185.62 166.725 180.81 166.725 180.81C166.725 180.81 174.595 189.58 168.615 190.21C162.635 190.85 162.395 182.78 162.395 182.78C162.395 182.78 160.835 192.57 157.595 192.2C154.355 191.83 157.145 181.83 157.145 181.83C157.145 181.83 153.315 187.66 149.325 185.24C145.335 182.82 153.915 176.57 153.915 176.57C153.915 176.57 144.725 173.63 146.025 170.83C147.325 168.02 155.995 171.07 155.995 171.07C155.995 171.07 151.415 162.35 154.865 162.25C158.325 162.15 160.345 169.91 160.345 169.91L160.365 169.9Z"
            fill="#596042" />
        <path
            d="M158.215 170.759C158.215 170.759 154.655 162.529 158.215 160.549C161.775 158.569 162.685 168.839 162.685 168.839C162.685 168.839 165.395 160.429 168.425 161.819C171.455 163.209 165.935 172.969 165.935 172.969C165.935 172.969 172.075 167.449 173.685 171.449C175.285 175.459 167.015 175.779 167.015 175.779C167.015 175.779 175.985 178.709 172.095 181.549C168.195 184.389 164.805 178.879 164.805 178.879C164.805 178.879 167.635 186.299 165.245 187.339C162.845 188.379 160.775 180.319 160.775 180.319C160.775 180.319 160.455 185.899 156.715 185.819C152.975 185.739 156.435 177.959 156.435 177.959C156.435 177.959 148.885 179.599 148.665 177.129C148.445 174.659 155.685 173.299 155.685 173.299C155.685 173.299 149.015 169.079 151.375 167.629C153.735 166.179 158.235 170.749 158.235 170.749L158.215 170.759Z"
            fill="#D69D2D" />
        <path
            d="M163.105 169.65C163.105 171.39 161.695 172.8 159.955 172.8C158.215 172.8 156.805 171.39 156.805 169.65C156.805 167.91 158.215 166.5 159.955 166.5C161.695 166.5 163.105 167.91 163.105 169.65Z"
            fill="#FFC727" />
        <path
            d="M170.195 176.45C170.195 178.15 168.815 179.53 167.115 179.53C165.415 179.53 164.035 178.15 164.035 176.45C164.035 174.75 165.415 173.37 167.115 173.37C168.815 173.37 170.195 174.75 170.195 176.45Z"
            fill="#FFC727" />
        <path
            d="M166.185 181.19C166.185 182.89 164.805 184.27 163.105 184.27C161.405 184.27 160.025 182.89 160.025 181.19C160.025 179.49 161.405 178.11 163.105 178.11C164.805 178.11 166.185 179.49 166.185 181.19Z"
            fill="#FFC727" />
        <path
            d="M163.885 175.67C163.885 177.37 162.505 178.75 160.805 178.75C159.105 178.75 157.725 177.37 157.725 175.67C157.725 173.97 159.105 172.59 160.805 172.59C162.505 172.59 163.885 173.97 163.885 175.67Z"
            fill="#FFC727" />
        <path
            d="M169.415 171.08C169.415 172.78 168.035 174.16 166.335 174.16C164.635 174.16 163.255 172.78 163.255 171.08C163.255 169.38 164.635 168 166.335 168C168.035 168 169.415 169.38 169.415 171.08Z"
            fill="#FFC727" />
        <path
            d="M158.725 176.82C158.725 178.52 157.345 179.9 155.645 179.9C153.945 179.9 152.565 178.52 152.565 176.82C152.565 175.12 153.945 173.74 155.645 173.74C157.345 173.74 158.725 175.12 158.725 176.82Z"
            fill="#FFC727" />
        <path
            d="M63.2355 350.48C63.2355 350.48 51.5855 335.33 49.2855 322.16C46.9855 308.99 56.5155 302.73 60.4055 306.3L64.2955 309.87C64.2955 309.87 70.2155 305.79 73.7455 310.81C77.2755 315.83 72.3055 346.72 68.4855 351.01C64.6655 355.3 63.2355 350.49 63.2355 350.49V350.48Z"
            fill="#A9814F" />
        <path
            d="M57.0455 359.41C56.2855 360.61 40.1155 352.64 26.2955 355.09C12.4755 357.54 17.2555 365.01 17.2555 365.01C17.2555 365.01 11.4255 372.49 15.8155 375.26C20.2055 378.03 26.0655 376.7 26.0655 376.7C26.0655 376.7 29.3455 382.12 38.8355 374.15C48.3255 366.18 57.6255 366.47 58.7355 363.82C59.8455 361.17 57.0555 359.41 57.0555 359.41H57.0455Z"
            fill="#A9814F" />
        <path
            d="M61.2255 364.28C55.4555 369.01 41.8755 375.51 34.0455 381.73C26.4255 387.78 35.0655 390.74 35.0655 390.74C35.0655 390.74 27.5355 398.26 36.3755 401.05C45.2155 403.84 54.5855 401.37 61.4355 387.84C68.2955 374.31 67.1755 366.35 67.1755 366.35L61.2355 364.28H61.2255Z"
            fill="#A9814F" />
        <path
            d="M67.5755 366.61C67.5755 366.61 61.3155 393.35 65.2955 400.32C69.2655 407.29 76.1155 408.82 78.0255 406.67C79.9355 404.53 80.6455 401.63 80.6455 401.63C80.6455 401.63 87.5355 404.86 89.1555 401.41C90.7655 397.96 96.1155 386.83 87.9955 376.69C79.8855 366.55 74.8855 365.63 73.2855 364.63C71.6855 363.62 67.5755 366.61 67.5755 366.61Z"
            fill="#A9814F" />
        <path
            d="M74.8355 361.76C75.6255 363.72 88.3855 380.64 97.1355 381.43C105.875 382.22 112.435 374.79 110.935 372.21C109.435 369.63 106.775 369.8 106.775 369.8C106.775 369.8 114.065 368.67 113.895 366.01C113.725 363.35 114.725 357.93 100.255 356.5C85.7855 355.07 75.8355 356.36 75.8355 356.36L74.8355 361.77V361.76Z"
            fill="#A9814F" />
        <path
            d="M71.1355 352.11C72.8155 347.68 73.4555 322.22 80.1755 316.53C87.3555 310.45 89.4155 319.57 89.4155 319.57C89.4155 319.57 95.8455 320.87 96.3955 326.2C96.9455 331.53 74.8755 355.03 73.6755 354.28C72.4755 353.52 71.1355 352.12 71.1355 352.12V352.11Z"
            fill="#D3B794" />
        <path
            d="M71.1355 352.11C72.8155 347.68 73.4555 322.22 80.1755 316.53C87.3555 310.45 89.4155 319.57 89.4155 319.57C89.4155 319.57 95.8455 320.87 96.3955 326.2C96.9455 331.53 74.8755 355.03 73.6755 354.28C72.4755 353.52 71.1355 352.12 71.1355 352.12V352.11Z"
            fill="#A9814F" />
        <path
            d="M76.2755 353.68C76.2755 353.68 99.0555 322.85 106.435 329.73C113.815 336.61 110.155 337.1 110.345 339.45C110.535 341.8 115.455 349.93 109.745 351.9C104.035 353.88 78.2055 357.68 78.2055 357.68L76.2655 353.67L76.2755 353.68Z"
            fill="#A9814F" />
        <path
            d="M56.1655 355.51C56.1655 355.51 39.9555 356.45 29.0855 346.25C18.2155 336.05 18.2355 331.6 19.8555 328.16C21.4655 324.71 25.0655 326.98 25.0655 326.98C25.0655 326.98 23.7855 322.82 28.0455 320.49C32.3055 318.16 38.6055 318.78 43.9255 327.15C49.2455 335.52 60.2555 346.37 60.7055 348.33C61.1455 350.28 61.8255 356.29 56.1755 355.52L56.1655 355.51Z"
            fill="#A9814F" />
        <mask id="mask12_2395_5345" style="mask-type:luminance" maskUnits="userSpaceOnUse" x="19"
            y="319" width="42" height="37">
            <path
                d="M56.1655 355.51C56.1655 355.51 39.9555 356.45 29.0855 346.25C18.2155 336.05 18.2355 331.6 19.8555 328.16C21.4655 324.71 25.0655 326.98 25.0655 326.98C25.0655 326.98 23.7855 322.82 28.0455 320.49C32.3055 318.16 38.6055 318.78 43.9255 327.15C49.2455 335.52 60.2555 346.37 60.7055 348.33C61.1455 350.28 61.8255 356.29 56.1755 355.52L56.1655 355.51Z"
                fill="white" />
        </mask>
        <g mask="url(#mask12_2395_5345)">
            <path
                d="M16.6755 321.69C20.0255 330.12 25.1655 337.62 31.6455 343.96C23.8555 339.16 18.1255 330.75 16.6755 321.69Z"
                fill="#D3B794" />
            <path
                d="M20.6355 318.05C23.8455 325.14 29.1155 331.02 34.3355 336.69C38.9055 341.66 46.1055 348.23 51.1155 352.88C39.6955 344.83 24.8155 331.7 20.6355 318.04V318.05Z"
                fill="#D3B794" />
            <path
                d="M24.6055 314.41C26.4955 319.97 30.1455 324.74 33.5955 329.43C37.0155 333.84 41.2455 338.71 44.9855 342.88C46.1055 344.14 47.2555 345.37 48.3455 346.67C39.1755 339.01 26.9555 326.43 24.6055 314.41Z"
                fill="#D3B794" />
            <path
                d="M31.5155 313.19C36.2355 320.18 40.0755 327.54 43.9855 335C38.4555 328.66 34.4855 321.03 31.5155 313.19Z"
                fill="#D3B794" />
        </g>
        <mask id="mask13_2395_5345" style="mask-type:luminance" maskUnits="userSpaceOnUse" x="48"
            y="305" width="27" height="48">
            <path
                d="M63.2355 350.48C63.2355 350.48 51.5855 335.33 49.2855 322.16C46.9855 308.99 56.5155 302.73 60.4055 306.3L64.2955 309.87C64.2955 309.87 70.2155 305.79 73.7455 310.81C77.2755 315.83 72.3055 346.72 68.4855 351.01C64.6655 355.3 63.2355 350.49 63.2355 350.49V350.48Z"
                fill="white" />
        </mask>
        <g mask="url(#mask13_2395_5345)">
            <path
                d="M56.7855 297.881C50.1955 306.451 51.7355 318.211 54.0255 328.061C54.7955 331.071 56.1055 335.271 57.0255 338.201C51.1755 326.741 46.3555 308.071 56.7855 297.881Z"
                fill="#D3B794" />
            <path
                d="M63.4155 290.9C58.6355 301.61 57.5255 313.61 58.2655 325.2C58.3955 327.83 58.7555 330.69 58.9955 333.31C55.3055 319.42 55.6255 303.38 63.4155 290.91V290.9Z"
                fill="#D3B794" />
            <path
                d="M68.7755 300.98C66.1755 308.84 63.2755 316.65 63.6255 325.07C61.2655 316.8 64.3655 308 68.7755 300.98Z"
                fill="#D3B794" />
            <path
                d="M76.8255 303.261C73.3455 309.391 71.3755 316.061 69.9955 322.941C69.3755 315.891 71.7055 308.251 76.8255 303.261Z"
                fill="#D3B794" />
        </g>
        <mask id="mask14_2395_5345" style="mask-type:luminance" maskUnits="userSpaceOnUse" x="71"
            y="314" width="26" height="41">
            <path
                d="M71.1355 352.11C72.8155 347.68 73.4555 322.22 80.1755 316.53C87.3555 310.45 89.4155 319.57 89.4155 319.57C89.4155 319.57 95.8455 320.87 96.3955 326.2C96.9455 331.53 74.8755 355.03 73.6755 354.28C72.4755 353.52 71.1355 352.12 71.1355 352.12V352.11Z"
                fill="white" />
        </mask>
        <g mask="url(#mask14_2395_5345)">
            <path
                d="M72.3355 348.12C74.0055 335.97 80.2155 309.98 92.1755 304.57C90.4055 305.61 88.9555 307.04 87.7355 308.64C84.0455 313.46 81.7355 319.16 79.5855 324.81C76.7555 332.44 74.5155 340.27 72.3455 348.12H72.3355Z"
                fill="#D3B794" />
            <path
                d="M81.3155 330.64C84.7455 322.21 90.6255 314.41 98.4555 309.65C91.8755 315.96 86.4955 323.13 81.3155 330.64Z"
                fill="#D3B794" />
            <path
                d="M78.9755 341.44C82.7755 335.5 87.0355 329.89 91.5155 324.46C96.1255 319.19 100.625 313.48 106.705 309.83C101.325 314.33 97.1755 320.08 92.5955 325.36C88.6155 330.11 83.0555 336.88 78.9655 341.44H78.9755Z"
                fill="#D3B794" />
        </g>
        <mask id="mask15_2395_5345" style="mask-type:luminance" maskUnits="userSpaceOnUse" x="76"
            y="328" width="37" height="30">
            <path
                d="M76.2755 353.68C76.2755 353.68 99.0555 322.85 106.435 329.73C113.815 336.61 110.155 337.1 110.345 339.45C110.535 341.8 115.455 349.93 109.745 351.9C104.035 353.88 78.2055 357.68 78.2055 357.68L76.2655 353.67L76.2755 353.68Z"
                fill="white" />
        </mask>
        <g mask="url(#mask15_2395_5345)">
            <path
                d="M77.6855 352.34C83.1855 346.01 89.5155 340.47 95.8955 335.05C102.415 329.86 108.975 324.29 116.825 321.22C109.515 325.27 103.285 330.92 96.8055 336.13C90.5255 341.41 83.8455 346.89 77.6855 352.33V352.34Z"
                fill="#D3B794" />
            <path
                d="M76.7255 355.64C91.8855 351.17 107.345 347.41 123.085 345.81C107.675 349.33 92.3355 353.06 76.7255 355.64Z"
                fill="#D3B794" />
            <path
                d="M101.175 344.27C104.825 341.96 109.095 340.78 113.175 339.46C117.325 338.3 121.535 337.2 125.865 336.96C117.755 339.74 109.365 341.97 101.175 344.27Z"
                fill="#D3B794" />
            <path
                d="M102.705 337.429C109.125 332.379 116.165 327.919 123.865 325.109C117.065 329.659 110.165 334.029 102.705 337.429Z"
                fill="#D3B794" />
        </g>
        <mask id="mask16_2395_5345" style="mask-type:luminance" maskUnits="userSpaceOnUse" x="74"
            y="355" width="40" height="27">
            <path
                d="M74.8355 361.76C75.6255 363.72 88.3855 380.64 97.1355 381.43C105.875 382.22 112.435 374.79 110.935 372.21C109.435 369.63 106.775 369.8 106.775 369.8C106.775 369.8 114.065 368.67 113.895 366.01C113.725 363.35 114.725 357.93 100.255 356.5C85.7855 355.07 75.8355 356.36 75.8355 356.36L74.8355 361.77V361.76Z"
                fill="white" />
        </mask>
        <g mask="url(#mask16_2395_5345)">
            <path
                d="M74.8355 361.761C81.3255 365.941 87.6755 370.281 94.1355 374.471C100.575 378.421 106.995 383.281 114.275 385.451C102.985 383.961 83.7255 369.361 74.8355 361.771V361.761Z"
                fill="#D3B794" />
            <path
                d="M89.8755 368.391C96.2855 371.371 102.545 374.621 109.085 377.271C112.925 378.651 117.035 380.691 121.195 379.771C113.535 383.231 96.2655 373.081 89.8755 368.391Z"
                fill="#D3B794" />
            <path
                d="M97.5455 365.971C105.735 368.851 114.685 372.761 123.155 374.491C123.545 374.541 124.475 374.671 124.855 374.711C125.915 374.761 127.815 374.591 128.905 374.491C130.485 374.401 132.055 374.261 133.635 374.211C132.095 374.581 130.545 374.851 128.995 375.181C127.575 375.431 125.645 375.881 124.215 375.741C120.955 375.561 117.875 374.671 114.855 373.711C108.845 371.701 103.045 369.121 97.5555 365.971H97.5455Z"
                fill="#D3B794" />
            <path
                d="M78.2155 357.69C79.9455 358.2 82.7955 358.38 84.6055 358.64C90.8555 359.39 97.6855 360.26 103.865 361.23C108.135 361.92 112.395 362.64 116.625 363.55C120.805 364.56 125.225 365.26 129.005 367.4C125.015 365.79 120.625 365.45 116.425 364.64L103.645 362.63C97.2555 361.61 90.8555 360.6 84.4955 359.32C82.6755 358.87 79.9155 358.47 78.2155 357.69Z"
                fill="#D3B794" />
        </g>
        <mask id="mask17_2395_5345" style="mask-type:luminance" maskUnits="userSpaceOnUse" x="63"
            y="364" width="30" height="44">
            <path
                d="M67.5755 366.61C67.5755 366.61 61.3155 393.35 65.2955 400.32C69.2655 407.29 76.1155 408.82 78.0255 406.67C79.9355 404.53 80.6455 401.63 80.6455 401.63C80.6455 401.63 87.5355 404.86 89.1555 401.41C90.7655 397.96 96.1155 386.83 87.9955 376.69C79.8855 366.55 74.8855 365.63 73.2855 364.63C71.6855 363.62 67.5755 366.61 67.5755 366.61Z"
                fill="white" />
        </mask>
        <g mask="url(#mask17_2395_5345)">
            <path
                d="M87.3555 413.11C88.5855 396.19 85.5755 377.22 72.1355 365.58C87.1055 375.75 90.6655 396.35 87.3555 413.11Z"
                fill="#D3B794" />
            <path
                d="M84.1855 417.25C80.2855 407.38 77.2255 397.17 75.2555 386.75C74.7955 384.16 74.3855 381.46 74.3655 378.81C74.2955 377.93 74.4355 377.03 74.5355 376.15C74.5955 377.04 74.5855 377.91 74.7455 378.78C75.1155 381.37 75.7455 383.97 76.3455 386.51C78.7455 396.39 81.9155 407.33 84.1955 417.24L84.1855 417.25Z"
                fill="#D3B794" />
            <path
                d="M79.0055 424.58C75.3455 417.31 70.6655 404.4 73.3155 396.44C72.8255 401.26 74.1855 405.95 75.2555 410.6C76.4155 415.26 77.7955 419.87 79.0055 424.58Z"
                fill="#D3B794" />
            <path
                d="M68.3255 365.41C67.6655 374.42 66.8455 383.38 66.5655 392.36C66.4755 401.23 65.8555 410.54 69.1655 418.94C62.1055 406.32 65.6455 379.5 68.3255 365.41Z"
                fill="#D3B794" />
        </g>
        <mask id="mask18_2395_5345" style="mask-type:luminance" maskUnits="userSpaceOnUse" x="30"
            y="364" width="38" height="39">
            <path
                d="M61.2255 364.28C55.4555 369.01 41.8755 375.51 34.0455 381.73C26.4255 387.78 35.0655 390.74 35.0655 390.74C35.0655 390.74 27.5355 398.26 36.3755 401.05C45.2155 403.84 54.5855 401.37 61.4355 387.84C68.2955 374.31 67.1755 366.35 67.1755 366.35L61.2355 364.28H61.2255Z"
                fill="white" />
        </mask>
        <g mask="url(#mask18_2395_5345)">
            <path
                d="M23.9955 408.311C26.8355 407.051 29.9355 406.361 32.7655 405.031C36.6855 403.361 40.3855 401.251 43.9055 398.851C44.5055 398.411 46.0955 397.251 46.7255 396.801C47.7355 395.971 49.3855 394.741 50.3355 393.861C52.0855 392.411 53.8855 390.681 55.5855 389.171C47.8555 399.581 36.8155 406.401 23.9955 408.311Z"
                fill="#D3B794" />
            <path
                d="M25.8155 402.761C23.7555 405.471 21.1355 411.361 27.1455 407.861C36.5855 401.571 44.0255 392.631 52.1955 384.811C45.1655 393.751 37.5855 402.921 27.6755 408.831C26.0655 409.751 22.2955 410.911 22.7655 407.681C23.2155 405.711 24.4755 404.171 25.8155 402.761Z"
                fill="#D3B794" />
            <path
                d="M23.1855 397.2C29.0955 392.31 35.2755 387.8 41.5455 383.43C47.9055 379.21 54.1555 374.59 61.1455 371.49C48.4455 379.95 36.2955 389.35 23.1755 397.21L23.1855 397.2Z"
                fill="#D3B794" />
            <path
                d="M23.8255 386.451C29.7355 382.791 35.8955 379.601 42.1755 376.631C48.4955 373.831 54.8655 370.671 61.7655 369.641C55.1655 371.721 49.0755 375.091 42.7755 377.911C37.2255 380.481 29.4155 384.161 23.8255 386.451Z"
                fill="#D3B794" />
        </g>
        <mask id="mask19_2395_5345" style="mask-type:luminance" maskUnits="userSpaceOnUse" x="14"
            y="354" width="45" height="25">
            <path
                d="M57.0455 359.41C56.2855 360.61 40.1155 352.64 26.2955 355.09C12.4755 357.54 17.2555 365.01 17.2555 365.01C17.2555 365.01 11.4255 372.49 15.8155 375.26C20.2055 378.03 26.0655 376.7 26.0655 376.7C26.0655 376.7 29.3455 382.12 38.8355 374.15C48.3255 366.18 57.6255 366.47 58.7355 363.82C59.8455 361.17 57.0555 359.41 57.0555 359.41H57.0455Z"
                fill="white" />
        </mask>
        <g mask="url(#mask19_2395_5345)">
            <path
                d="M18.7355 382.129C20.0555 381.849 21.2055 381.039 22.3855 380.409C30.5955 375.629 38.6955 370.589 47.4155 366.729C40.7355 371.439 33.7155 375.639 26.4155 379.319C24.2655 380.349 22.0855 381.429 19.7655 382.029C19.4155 382.109 19.1755 382.149 18.7355 382.129Z"
                fill="#D3B794" />
            <path
                d="M8.09547 380.43C17.5855 379.59 26.9755 376.75 33.7455 369.82C28.4955 378.2 17.5655 381.67 8.09547 380.43Z"
                fill="#D3B794" />
            <path
                d="M0.0454712 378.149C6.07547 375.139 12.3255 372.639 18.6555 370.359C25.0155 368.219 31.4755 365.919 38.2155 365.399C25.4555 368.869 12.7355 374.399 0.0454712 378.159V378.149Z"
                fill="#D3B794" />
            <path
                d="M5.28547 368.069C10.4855 366.469 15.7955 365.359 21.1455 364.429C26.4955 363.629 31.9455 362.659 37.3755 363.189C26.7955 364.569 15.9455 367.139 5.28547 368.069Z"
                fill="#D3B794" />
            <path
                d="M9.62547 358.53C18.0955 357.8 26.5855 357.64 35.0755 357.74C43.5355 358.02 52.1655 358.08 60.3955 360.32C43.5855 358.51 26.5355 359.49 9.62547 358.53Z"
                fill="#D3B794" />
        </g>
        <path
            d="M62.2455 356.43C62.2455 356.43 55.0655 350.66 57.3555 347.16C59.6455 343.66 65.3855 352.56 65.3855 352.56C65.3855 352.56 63.8255 343.62 67.2355 343.43C70.6555 343.24 70.3155 354.75 70.3155 354.75C70.3155 354.75 73.2555 346.79 76.6255 349.66C79.9955 352.53 72.6455 356.79 72.6455 356.79C72.6455 356.79 82.2055 355.16 80.0255 359.6C77.8455 364.04 72.1255 360.67 72.1255 360.67C72.1255 360.67 78.2555 366.05 76.5755 368.15C74.8955 370.25 69.1555 363.91 69.1555 363.91C69.1555 363.91 71.5355 369.14 68.0955 370.85C64.6555 372.57 64.0755 363.85 64.0755 363.85C64.0755 363.85 57.9955 368.96 56.6155 366.82C55.2355 364.68 61.1555 359.98 61.1555 359.98C61.1555 359.98 53.0755 359.34 54.5155 356.89C55.9655 354.44 62.2455 356.44 62.2455 356.44V356.43Z"
            fill="#596042" />
        <path
            d="M61.8955 358.3C61.8955 358.3 54.6055 357.16 54.7855 353.82C54.9755 350.48 62.5155 354.35 62.5155 354.35C62.5155 354.35 57.8555 348.77 60.1455 347.27C62.4455 345.77 66.8155 353.9 66.8155 353.9C66.8155 353.9 65.6655 347.2 69.1555 347.84C72.6455 348.48 69.2455 354.38 69.2455 354.38C69.2455 354.38 75.2255 349.42 75.4955 353.38C75.7555 357.34 70.4355 357.28 70.4355 357.28C70.4355 357.28 76.8455 358.56 76.5155 360.69C76.1855 362.82 69.6655 360.72 69.6655 360.72C69.6655 360.72 73.4055 363.39 71.7055 365.96C70.0055 368.53 66.1155 362.71 66.1155 362.71C66.1155 362.71 63.9455 368.69 62.1255 367.76C60.3055 366.83 62.5355 361.19 62.5355 361.19C62.5355 361.19 56.6655 363.98 56.6955 361.7C56.7155 359.42 61.8855 358.29 61.8855 358.29L61.8955 358.3Z"
            fill="#D69D2D" />
        <path
            d="M63.2655 354.41C64.4755 355.17 64.8455 356.78 64.0755 357.99C63.3155 359.2 61.7055 359.57 60.4955 358.8C59.2855 358.04 58.9155 356.43 59.6855 355.22C60.4455 354.01 62.0555 353.64 63.2655 354.41Z"
            fill="#FFC727" />
        <path
            d="M71.1155 352.459C72.2955 353.209 72.6555 354.769 71.9055 355.949C71.1555 357.129 69.5955 357.489 68.4155 356.739C67.2355 355.989 66.8755 354.429 67.6255 353.249C68.3755 352.069 69.9355 351.709 71.1155 352.459Z"
            fill="#FFC727" />
        <path
            d="M72.6555 357.33C73.8355 358.08 74.1955 359.64 73.4455 360.82C72.6955 362 71.1355 362.36 69.9555 361.61C68.7755 360.86 68.4155 359.3 69.1655 358.12C69.9155 356.94 71.4755 356.58 72.6555 357.33Z"
            fill="#FFC727" />
        <path
            d="M67.8055 356.51C68.9855 357.26 69.3455 358.82 68.5955 360C67.8455 361.18 66.2855 361.54 65.1055 360.79C63.9255 360.04 63.5655 358.48 64.3155 357.3C65.0655 356.12 66.6255 355.76 67.8055 356.51Z"
            fill="#FFC727" />
        <path
            d="M67.0355 350.65C68.2155 351.4 68.5755 352.96 67.8255 354.14C67.0755 355.32 65.5155 355.68 64.3355 354.93C63.1555 354.18 62.7955 352.62 63.5455 351.44C64.2955 350.26 65.8555 349.9 67.0355 350.65Z"
            fill="#FFC727" />
        <path
            d="M66.3355 360.6C67.5155 361.35 67.8755 362.91 67.1255 364.09C66.3755 365.27 64.8155 365.63 63.6355 364.88C62.4555 364.13 62.0955 362.57 62.8455 361.39C63.5955 360.21 65.1555 359.85 66.3355 360.6Z"
            fill="#FFC727" />
        <path
            d="M183.625 418.94C183.625 418.94 190.525 409 195.475 394.68C200.345 380.63 197.865 367.73 197.865 367.73C197.865 367.73 183.805 375.18 181.365 394.52C178.925 413.86 183.615 418.94 183.615 418.94H183.625Z"
            fill="#605A19" />
        <path d="M197.865 367.73C197.865 367.73 181.265 404.33 183.625 418.94" stroke="#907B3A"
            stroke-width="0.93" stroke-linecap="round" stroke-linejoin="round" />
        <path
            d="M109.315 448.13C109.315 448.13 122.515 440.91 133.885 430.88C145.035 421.04 149.215 408.59 149.215 408.59C149.215 408.59 133.315 408.16 121.675 423.8C110.045 439.44 109.315 448.13 109.315 448.13Z"
            fill="#605A19" />
        <path d="M110.145 444.84C110.145 444.84 142.605 407.66 149.225 408.58" stroke="#907B3A"
            stroke-width="0.93" stroke-linecap="round" stroke-linejoin="round" />
    </g>
    <defs>
        <clipPath id="clip0_2395_5345">
            <rect width="286.09" height="480.38" fill="white" transform="translate(0.0454712)" />
        </clipPath>
    </defs>
</svg>
