<svg width="879" height="1340" viewBox="0 0 879 1340" fill="none" xmlns="http://www.w3.org/2000/svg">
<g clip-path="url(#clip0_4177_1145)">
<path d="M678.635 794.587C683.723 802.772 693.899 806.09 702.969 803.214C733.719 793.481 810.261 758.085 854.505 641.281C896.316 530.671 873.751 458.554 859.372 428.689C854.505 418.734 843.002 414.089 832.604 418.071C802.297 429.574 739.25 468.288 693.015 596.374C648.771 719.151 664.92 773.128 678.414 794.365L678.635 794.587Z" fill="#7EA567"/>
<path d="M698.976 1032.88C705.17 1025.36 705.17 1014.74 699.64 1006.99C680.836 980.89 623.319 919.17 498.551 913.639C380.42 908.33 318.921 952.353 295.029 975.139C287.065 982.881 286.401 995.27 293.259 1003.9C313.611 1029.12 370.022 1077.12 506.294 1080.88C636.813 1084.64 683.048 1052.34 698.976 1032.88Z" fill="#7EA567"/>
<path d="M450.314 506.563C645.651 747.914 727.06 1015.59 679.94 1326.4C677.728 1341 699.85 1344.76 704.717 1331.71C802.275 1071.12 722.636 638.189 479.957 473.601C458.72 459.222 434.386 486.875 450.314 506.563Z" fill="#7EA567"/>
<path d="M404.96 576.257C546.54 533.34 655.823 362.559 628.613 220.535C628.613 220.535 586.36 -17.2758 416.021 1.52784C299.217 14.3586 322.445 112.138 322.445 112.138C322.445 112.138 202.322 1.97029 79.7667 102.847C-42.789 203.944 114.719 348.4 114.719 348.4C114.719 348.4 4.33078 317.208 0.79126 456.356C-0.978498 523.607 211.392 635.101 404.96 576.257Z" fill="#F4D8A9"/>
<path d="M525.737 527.784C525.737 527.784 655.593 385.097 642.541 317.625C629.71 250.153 521.755 502.565 521.755 502.565C521.755 502.565 555.602 307.449 525.516 278.691C495.43 249.932 491.006 491.062 491.006 491.062C491.006 491.062 383.714 324.041 342.567 324.262C301.641 324.262 450.08 504.999 450.08 504.999C450.08 504.999 232.178 467.391 240.142 495.486C248.106 523.581 475.963 535.748 475.963 535.748C475.963 535.748 257.176 587.514 284.829 614.724C312.26 641.934 418.445 595.92 525.516 527.784H525.737Z" fill="#7EA567"/>
</g>
<defs>
<clipPath id="clip0_4177_1145">
<rect width="877.579" height="1339.26" fill="white" transform="translate(0.805664 0.402344)"/>
</clipPath>
</defs>
</svg>
