<svg width="615" height="1440" viewBox="0 0 615 1440" fill="none" xmlns="http://www.w3.org/2000/svg">
<path d="M300.654 519.172C257.733 649.475 191.523 958.007 270.051 1149.71C348.58 1341.41 323.173 1416.28 300.654 1429.76" stroke="#36A346" stroke-width="21.9418"/>
<path d="M331.894 529.771C317.083 609.146 409.697 637.921 532.295 567.191C443.369 456.986 346.705 450.396 331.894 529.771Z" fill="#36A346"/>
<path d="M263.105 530.36C270.662 450.018 175.932 429.646 60.1045 511.136C158.582 612.878 255.428 610.702 263.105 530.36Z" fill="#36A346"/>
<path d="M282.272 163.714C282.272 163.714 255.31 119.946 230.343 99.0897C230.343 99.0897 164.691 153.86 191.109 271.199C217.527 388.538 276.529 355.773 276.529 355.773C276.529 355.773 301.677 220.963 282.211 163.774L282.272 163.714Z" fill="#9D4BC2"/>
<path d="M414.715 201.012C414.715 201.012 453.586 167.34 483.692 154.887C483.692 154.887 529.878 226.825 469.485 330.865C409.093 434.904 362.605 385.877 362.605 385.877C362.605 385.877 379.048 249.737 414.775 200.952L414.715 201.012Z" fill="#9D4BC2"/>
<path d="M236.994 267.988C236.994 267.988 264.439 143.818 355.905 45.5818C355.905 45.5818 454.745 135.596 437.879 311.574L301.497 459.442L236.933 267.927L236.994 267.988Z" fill="#9D4BC2"/>
<path d="M532.951 209.254C407.692 279.621 392.579 288.809 330.736 376.648C268.893 464.485 286.787 558.792 286.787 558.792C286.787 558.792 381.698 543.8 443.481 456.022C505.263 368.245 508.891 350.955 532.951 209.254Z" fill="#B46CD3"/>
<path d="M132.515 160.047C121.513 303.32 120.787 320.972 159.538 421.143C198.288 521.313 286.67 558.794 286.67 558.794C286.67 558.794 326.871 471.56 288.121 371.39C249.371 271.22 237.038 258.645 132.455 159.986L132.515 160.047Z" fill="#B46CD3"/>
<path d="M361.591 136.502C278.589 253.841 268.917 268.591 250.721 374.444C232.524 480.297 289.169 557.858 289.169 557.858C289.169 557.858 368.422 503.632 386.619 397.779C404.815 291.926 400.583 274.758 361.531 136.441L361.591 136.502Z" fill="#BD8AD3"/>
<path d="M297.2 508.847C217.402 496.756 191.77 590.217 266.55 710.457C373.733 617.904 376.937 520.998 297.2 508.847Z" fill="#66C274"/>
<path d="M297.199 508.84C318.962 575.459 300.766 651.085 266.55 710.45C267.88 701.745 269.874 693.342 271.628 684.939C284.323 626.904 296.534 568.628 297.199 508.84Z" fill="#36A346"/>
<path d="M345.254 538.773C397.667 511.63 463.802 521.302 512.346 552.435C519.238 557.03 525.827 562.047 532.356 567.125C517.726 559.629 503.52 551.71 488.044 546.148C442.946 528.375 391.984 524.567 345.254 538.773Z" fill="#66C274"/>
<path d="M60.1458 511.216C117.636 491.932 186.251 494.652 238.059 527.962C181.596 505.111 119.813 502.934 60.1458 511.216Z" fill="#66C274"/>
</svg>
