<svg width="937" height="1595" viewBox="0 0 937 1595" fill="none" xmlns="http://www.w3.org/2000/svg">
<g clip-path="url(#clip0_4173_783)">
<path d="M937.002 1588.07C937.002 1493.7 881.823 1413.77 819.321 1347.71C754.396 1279.07 682.044 1218.27 616.087 1150.71C616.86 1147.77 615.777 1144.22 611.961 1142.98C610.311 1142.46 608.661 1141.89 607.01 1141.33C599.224 1133.18 591.488 1124.93 583.907 1116.57C436.729 953.77 319.615 756.878 293.933 535.594C280.835 422.967 292.18 307.864 333.281 201.838C336.684 193.123 323.121 188.172 319.615 196.887C269.489 321.272 261.393 456.951 284.393 587.731C163.308 503.673 94.9788 356.597 113.905 209.419C115.142 199.62 99.9295 198.228 98.6403 208.026C78.8376 361.961 152.53 523.218 284.96 605.522C285.94 606.141 286.868 606.451 287.848 606.605C298.11 657.968 313.065 708.506 332.146 757.136C374.33 864.607 436.316 963.723 508.462 1053.56C518.827 1066.45 529.399 1079.08 540.228 1091.51C476.282 1040.87 425.435 973.572 359.168 925.304C315.025 893.176 264.436 874.714 217.404 847.692C163.927 817.008 120.97 776.836 91.9362 722.017C89.2031 716.912 82.7053 718.872 81.1583 723.1C80.4879 723.771 79.9722 724.647 79.7143 725.833C58.0552 845.423 154.232 937.474 246.954 994.355C354.579 1060.36 473.137 1114.41 594.273 1150.87C644.45 1203.37 697.463 1252.92 750.734 1302.79C833.658 1380.45 917.045 1469.1 923.285 1588.59C923.698 1596.32 936.899 1595.91 936.899 1588.12L937.002 1588.07Z" fill="#60AB73"/>
<path d="M513.568 164.375C529.039 142.767 536.877 109.711 518.519 87.0725C508.463 74.6958 493.146 69.7967 478.965 72.2721C479.738 60.9784 474.943 48.7049 466.073 40.4022C448.745 24.2611 426.467 29.6758 407.18 40.5054C407.748 24.3126 397.898 7.70731 379.539 2.85979C348.134 -5.49444 326.99 14.927 314.923 40.4538C309.972 32.409 302.546 25.6019 293.676 21.4247C265.932 8.37771 236.899 27.3552 223.645 51.9538C205.287 85.8348 215.652 124.77 226.224 159.321C289.241 365.237 282.486 317.433 280.114 348.374C279.65 354.098 286.508 357.863 290.995 354.098C330.084 321.764 369.277 289.43 408.47 257.148C443.021 228.682 487.268 201.144 513.619 164.323L513.568 164.375Z" fill="#FF5EB0"/>
<path d="M273.306 89.4961C287.694 141.375 291.871 192.738 288.622 246.112C265.931 196.502 261.187 142.973 273.306 89.4961Z" fill="#FFFEF6"/>
<path d="M333.799 278.818C372.888 226.475 415.278 182.796 470.509 147.574C454.884 175.112 436.783 200.794 413.834 223.123C389.545 246.794 362.574 262.832 333.799 278.818Z" fill="#FFFEF6"/>
<path d="M317.19 150.026C319.82 123.777 328.123 101.035 337.044 77.2617C339.571 101.19 342.304 124.396 339.674 149.046C337.044 174.006 330.908 198.243 321.728 221.449C318.17 197.779 314.663 174.882 317.139 150.026H317.19Z" fill="#FFFEF6"/>
<path d="M435.234 79.4453C425.127 106.983 409.243 130.654 387.12 150.147C397.073 121.423 413.111 99.9183 435.234 79.4453Z" fill="#FFFEF6"/>
<path d="M323.071 340.27C325.34 335.371 321.73 329.44 316.006 330.73C301.721 333.927 287.024 330.575 275.885 321.034C273.203 318.714 267.892 318.198 266.087 322.221C257.887 340.734 261.703 362.806 277.741 375.956C277.999 376.162 278.309 376.368 278.618 376.523C280.372 378.276 283.053 379.153 285.941 377.761C302.495 369.819 315.439 356.978 323.122 340.27H323.071Z" fill="white"/>
<path d="M127.259 342.206C135.768 312.811 149.124 285.428 168.359 261.5C183.263 242.935 204.561 225.35 203.272 199.204C202.137 177.184 178.106 163.002 162.171 172.13C170.835 132.525 146.339 118.24 122.514 140.467C119.523 143.251 116.79 146.346 114.315 149.594C112.097 133.969 100.752 120.664 81.2073 120.406C62.5908 120.148 51.3487 132.886 49.2859 147.841C40.8801 140.26 30.6178 135.619 18.8084 140.003C3.28606 145.778 -1.50988 164.034 1.79055 178.783C7.46318 203.845 30.7209 226.639 45.315 246.699C66.871 276.352 87.1378 308.273 111.324 335.811C112.613 337.255 114.418 337.616 116.12 337.255C116.017 337.513 115.965 337.822 115.862 338.08C113.696 345.506 125.041 349.683 127.207 342.206H127.259Z" fill="#FF5EB0"/>
<path d="M47.2754 195.801C64.087 217.047 75.9995 240.511 82.5488 266.451C67.2327 244.688 56.0937 221.328 47.2754 195.801Z" fill="#FFFEF6"/>
<path d="M132.103 179.508C144.686 204.158 145.099 231.748 131.072 255.315C127.204 229.736 128.545 205.138 132.103 179.508Z" fill="#FFFEF6"/>
<path d="M106.838 257.274C91.264 234.583 85.9008 209.933 85.4883 182.344C98.2259 205.911 105.755 230.613 106.838 257.274Z" fill="#FFFEF6"/>
<path d="M124.212 370.416C132.515 356.08 139.735 340.558 142.984 324.21C144.221 318.022 136.486 314.928 133.185 319.105C128.286 319.569 123.49 321.374 118.54 321.89C112.919 322.508 107.401 322.096 101.883 320.91C100.284 320.549 98.8918 320.91 97.8088 321.58C95.0241 321.065 91.8784 322.405 92.2394 325.912C93.838 340.094 103.739 354.894 112.816 365.569C110.753 371.654 120.499 376.914 124.212 370.416Z" fill="white"/>
</g>
<defs>
<clipPath id="clip0_4173_783">
<rect width="936.189" height="1593.18" fill="white" transform="translate(0.814453 0.976562)"/>
</clipPath>
</defs>
</svg>
