<svg width="736" height="1670" viewBox="0 0 736 1670" fill="none" xmlns="http://www.w3.org/2000/svg">
<g clip-path="url(#clip0_4177_873)">
<path d="M409.387 1026.68C424.845 834.426 556.564 656.169 735.879 584.98C736.53 682.041 704.8 779.021 646.954 856.962C589.108 934.904 505.39 993.319 409.468 1026.68H409.387Z" fill="#679576"/>
<path d="M405.16 1024.65C439.331 993.81 472.362 961.836 503.523 928.072C534.927 894.553 564.623 859.487 592.529 822.957C647.934 749.653 695.366 670.166 733.198 586.285L733.686 586.529C697.319 671.142 650.944 751.443 596.109 825.642C568.854 862.823 539.239 898.377 507.591 931.896C475.617 965.091 441.772 996.658 405.567 1025.13L405.242 1024.73L405.16 1024.65Z" fill="#4E6D72"/>
<path d="M506.696 931.388C505.719 919.753 505.882 908.2 506.045 896.729C506.289 885.176 507.509 873.704 508.404 862.152C510.113 839.127 511.903 816.103 513.937 793.078H514.506C514.099 816.184 513.53 839.29 512.798 862.314C512.472 873.867 512.472 885.42 511.577 896.892C510.438 908.363 509.462 919.916 507.265 931.306H506.696V931.388Z" fill="#4E6D72"/>
<path d="M579.514 848.107C579.351 836.879 580.328 825.815 581.141 814.75C582.199 803.685 584.151 792.783 585.86 781.8C589.114 759.833 592.531 737.947 596.03 715.98H596.599C594.647 738.191 592.531 760.24 590.253 782.288C589.196 793.352 588.382 804.417 586.674 815.401C584.802 826.303 583.012 837.286 580.084 848.107H579.514Z" fill="#4E6D72"/>
<path d="M642.889 757.623C643.051 747.616 644.434 737.853 645.655 728.09C647.038 718.327 649.397 708.727 651.431 699.045C655.418 679.763 659.486 660.4 663.716 641.199H664.286C661.601 660.807 658.754 680.333 655.825 699.859C654.36 709.622 653.221 719.466 651.187 729.066C648.991 738.667 646.794 748.348 643.54 757.705H642.97L642.889 757.623Z" fill="#4E6D72"/>
<path d="M599.523 815.779C606.032 812.118 612.785 809.27 619.294 806.097C625.884 803.006 632.718 800.484 639.308 797.392C652.407 791.127 665.098 783.724 677.14 775.344L677.465 775.751C666.4 785.432 654.278 793.975 641.342 801.297C634.914 804.958 628.406 808.701 621.409 811.142C614.331 813.501 607.253 815.616 599.686 816.267L599.523 815.779Z" fill="#4E6D72"/>
<path d="M667.058 716.628C670.068 711.991 673.892 708.248 677.634 704.425C681.458 700.682 685.933 697.753 690.163 694.58C698.543 688.072 707.086 681.726 715.71 675.461L716.035 675.868C708.469 683.353 700.74 690.675 693.011 697.916C689.187 701.577 685.526 705.482 681.214 708.655C676.821 711.665 672.509 714.838 667.464 717.035L667.139 716.628H667.058Z" fill="#4E6D72"/>
<path d="M528.58 905.197C535.984 903.163 543.225 901.861 550.466 899.909C557.625 898.119 564.947 896.898 572.107 894.783C586.345 890.552 600.176 884.613 613.193 877.047L613.518 877.535C601.396 886.484 587.89 893.725 573.571 899.014C566.412 901.698 559.171 904.221 551.605 905.36C544.038 906.336 536.309 906.905 528.743 905.766V905.197H528.58Z" fill="#4E6D72"/>
<path d="M406.458 1269.02C432.493 1170.42 401.333 1058.71 323.879 973.367C246.345 888.022 124.226 830.746 0.397777 821.715C-1.55483 920.81 38.799 1023.08 112.673 1106.14C186.546 1189.21 293.37 1252.59 406.377 1269.02H406.458Z" fill="#679576"/>
<path d="M7.315 820.258C47.9943 849.466 86.5582 881.439 123.739 915.041C160.595 948.967 195.741 984.846 228.854 1022.43C295.487 1097.2 355.042 1178.32 405.402 1264.8L404.833 1265.13C352.845 1179.7 292.233 1099.64 225.031 1025.85C191.185 989.077 155.957 953.767 119.427 919.759C83.1412 885.426 45.3094 852.801 6.9082 820.746L7.315 820.258Z" fill="#4E6D72"/>
<path d="M57.1835 948.297C66.7838 949.761 76.0587 951.877 85.415 953.422C94.6898 955.131 103.965 957.409 113.321 958.792C132.115 961.477 151.234 962.209 170.353 960.989V961.64C151.478 964.731 132.033 965.464 112.751 963.836C103.07 963.104 93.3881 962.209 83.9505 959.606C74.5943 956.921 65.4007 953.748 56.9395 948.866L57.1835 948.297Z" fill="#4E6D72"/>
<path d="M189.309 986.81C188.902 978.186 189.065 969.968 188.496 961.67C188.089 953.371 188.251 945.154 187.275 936.856C185.323 920.34 181.011 903.987 174.258 888.529L174.827 888.203C183.207 902.929 189.146 919.201 192.319 936.042C193.947 944.422 195.33 953.046 194.842 961.67C194.191 970.294 193.052 978.837 189.879 986.891H189.228L189.309 986.81Z" fill="#4E6D72"/>
<path d="M125.611 1044.74C146.845 1048.64 167.998 1051.33 189.314 1052.46C210.549 1053.77 232.028 1053.93 253.344 1051.65L251.472 1053.44C256.598 1025.37 258.388 996.49 256.273 967.852H256.923C260.34 996.408 260.096 1025.53 255.784 1054.17L255.54 1055.8L253.913 1056.04C232.434 1058.81 210.712 1060.44 188.989 1059.14C167.348 1057.59 145.706 1053.36 125.529 1045.47L125.692 1044.82L125.611 1044.74Z" fill="#4E6D72"/>
<path d="M198.997 1138.03C209.329 1138.44 219.418 1139.66 229.588 1140.31C239.676 1141.12 249.764 1142.59 259.853 1143.24C280.111 1144.38 300.614 1143.89 320.953 1141.69V1142.34C300.939 1146.41 280.355 1148.45 259.69 1148.36C249.358 1148.36 239.025 1148.36 228.774 1146.66C218.604 1144.87 208.434 1142.67 198.834 1138.68L198.997 1138.03Z" fill="#4E6D72"/>
<path d="M346.498 1174.59C344.627 1164.58 343.813 1154.66 342.674 1144.73C341.698 1134.81 341.616 1124.88 340.884 1114.87C339.338 1095.02 336.979 1075.09 333.725 1055.32L334.375 1055.16C339.42 1074.6 343.244 1094.37 346.01 1114.3C347.393 1124.23 348.939 1134.24 349.101 1144.33C349.101 1154.41 348.939 1164.5 347.149 1174.51H346.498V1174.59Z" fill="#4E6D72"/>
<path d="M351.548 1649.88C395.97 1466.75 424.446 1279.21 428.758 1090.22C430.629 1008.94 432.581 921.562 424.039 835.973C415.659 750.465 396.702 666.991 360.254 596.86C359.115 594.663 356.511 596.372 356.999 598.731C395.157 773.652 406.14 953.373 395.319 1132.44C389.461 1228.93 376.607 1324.78 358.952 1419.48C354.152 1443.97 349.921 1468.62 344.307 1492.94L336.416 1529.55L327.629 1565.92C320.632 1595.86 310.055 1624.01 314.611 1653.71C318.11 1677.22 345.609 1674.78 351.63 1649.88H351.548Z" fill="#4E6D72"/>
<path d="M525.411 572.463C462.439 692.06 299.478 712.807 206.892 614.282C127.974 530.157 64.9213 431.062 22.7775 323.669C9.6788 290.393 -1.54869 254.921 3.00739 219.448C7.56348 183.976 32.0524 148.829 67.2807 142.646C123.906 132.72 164.016 195.041 186.715 247.843C168.084 196.505 157.995 139.147 175.732 87.4847C193.468 35.822 245.619 -6.72849 299.641 1.00057C340.483 6.85839 373.514 39.4018 391.251 76.6641C408.987 113.926 414.031 155.745 418.831 196.749C426.235 159.894 434.127 121.818 455.849 91.1459C477.572 60.4737 517.194 39.0764 553.073 50.3039C582.118 59.3347 601.969 87.4847 609.454 116.937C616.939 146.388 614.173 177.386 611.081 207.651C600.912 307.316 587.732 407.468 555.188 502.169C546.971 526.17 537.371 549.846 525.411 572.545V572.463Z" fill="#FFC17E"/>
</g>
<defs>
<clipPath id="clip0_4177_873">
<rect width="735.482" height="1669.88" fill="white" transform="translate(0.400391 0.0898438)"/>
</clipPath>
</defs>
</svg>
