<svg width="755" height="702" viewBox="0 0 755 702" fill="none" xmlns="http://www.w3.org/2000/svg">
<path d="M41.9491 470.118C48.5883 476.093 56.5557 481.405 59.8753 489.704C66.1826 504.31 56.8872 521.572 58.879 537.507C61.2027 555.432 77.8011 568.711 95.3951 574.354C112.657 579.998 131.247 579.666 149.173 582.654C205.607 591.948 251.418 631.452 301.876 658.341C343.372 680.583 389.514 694.525 436.321 699.504C460.555 702.16 485.452 702.16 508.025 693.197C530.931 683.902 549.521 665.976 567.115 648.714C591.68 624.481 614.253 597.592 645.126 581.326C668.695 569.043 698.904 566.387 713.178 541.49C717.494 531.863 716.83 520.908 715.834 510.617C713.842 486.052 710.191 461.487 714.838 437.254C722.805 396.422 753.678 361.234 754.342 319.739C754.674 289.53 739.071 261.645 720.813 237.744C702.555 213.842 680.978 192.265 666.371 166.04C656.413 148.114 649.773 128.528 640.147 110.27C617.905 69.1065 579.065 38.234 535.246 22.6317C491.427 7.02948 442.629 6.03365 397.482 16.9884C387.855 19.3122 378.228 22.2998 368.269 21.6359C358.31 20.972 348.683 16.9884 339.388 13.6687C282.954 -6.58102 216.23 -3.9253 168.095 30.9308C131.247 57.4879 109.006 99.6472 92.7393 142.139C76.4732 184.63 64.8548 228.781 43.2772 268.948C30.3306 293.182 13.7325 316.087 5.43342 342.312C-8.17706 387.127 6.76079 439.577 42.2808 470.45L41.9491 470.118ZM304.532 445.553C293.909 435.594 295.237 417.668 302.54 405.053C314.159 385.135 336.4 373.517 358.974 369.201C381.547 365.218 404.784 367.541 427.69 370.197C435.657 371.193 457.567 377.5 465.202 374.845C474.829 371.193 478.148 363.558 482.796 354.595C501.386 319.407 514 308.452 514 325.714C514 368.205 483.792 430.614 470.182 440.573C434.662 465.802 382.211 450.2 338.724 452.856C326.773 453.52 313.495 453.852 304.532 445.553ZM370.924 317.083C361.961 317.083 352.002 316.751 345.363 322.394C352.002 289.53 374.908 260.649 405.448 246.375C414.411 242.059 424.702 239.072 434.661 240.068C451.591 241.395 466.198 254.01 473.169 269.612C480.14 284.551 483.46 306.46 476.488 321.398C467.194 319.739 425.035 300.153 430.678 285.547C422.047 308.12 394.826 317.083 370.924 317.083ZM427.026 617.51C410.428 615.85 394.826 609.874 379.224 603.567C366.941 598.588 354.658 592.944 344.367 584.313C321.794 565.723 312.167 532.859 320.798 504.974C342.376 529.539 366.941 552.777 397.813 564.064C428.354 575.35 462.214 574.354 494.082 566.387C515.328 561.408 539.562 546.138 560.143 546.138C514 604.231 455.243 620.165 427.026 617.51ZM587.696 341.648C587.696 302.145 583.049 256.334 571.098 218.822C591.68 224.133 605.622 248.699 613.921 268.284C622.22 287.87 623.88 309.448 625.54 330.361C626.868 346.296 628.196 362.562 629.523 378.496C630.519 390.447 631.515 402.397 628.528 414.016C624.876 428.291 615.581 440.241 606.618 451.86C590.684 472.11 573.754 493.355 549.521 502.65C539.23 506.634 527.943 508.294 516.988 510.949C486.115 518.253 442.629 542.154 412.42 522.568C430.678 500.991 462.214 491.032 487.112 477.753C521.304 459.163 545.537 426.631 568.442 395.094C575.414 385.799 582.385 375.841 585.372 364.554C587.364 357.251 587.696 349.615 587.696 341.98V341.648ZM242.787 237.744C248.762 212.847 265.692 192.265 281.958 172.679C296.233 155.417 311.171 137.491 331.089 127.2C356.65 113.922 387.191 114.254 416.071 114.918C440.637 115.581 465.866 116.245 488.771 124.876C509.021 132.18 531.927 148.114 535.91 170.023C503.71 163.384 480.14 139.815 442.296 142.47C433.001 143.134 424.038 144.794 414.743 146.786C363.289 158.073 314.491 182.306 274.323 216.498C263.7 225.461 253.409 235.752 249.426 248.699C244.778 251.686 241.459 243.055 242.787 237.744ZM152.493 254.674C163.116 225.461 179.714 195.916 208.262 183.302C193.988 242.723 184.693 306.792 208.262 363.226C222.205 397.086 259.053 424.971 269.344 458.499C275.983 480.077 260.713 528.543 228.512 514.269C217.225 509.29 211.914 493.023 219.881 483.728C205.939 496.343 182.37 493.023 167.763 480.409C153.489 468.126 146.517 449.204 141.87 430.614C127.595 372.521 131.911 310.444 152.493 254.342V254.674Z" fill="#F7E4C0"/>
</svg>
