<svg width="1327" height="798" viewBox="0 0 1327 798" fill="none" xmlns="http://www.w3.org/2000/svg">
<path d="M1147.11 234.772C1195.84 185.098 1258.63 149.479 1326.25 133.171C1251.01 128.88 1174.48 156.989 1119.96 209.023C1083.04 244.213 1056.63 290.024 1043.75 339.269C1041.39 348.174 1031.84 394.522 1057.71 377.57C1065.33 372.528 1068.97 352.251 1072.73 343.882C1078.21 331.652 1084.43 319.635 1091.19 308.048C1106.76 281.549 1125.54 256.873 1147.11 234.879V234.772Z" fill="#3B6861"/>
<path d="M1258.41 280.579C1219.23 280.257 1179.63 279.935 1141.1 287.123C1102.57 294.311 1064.57 309.761 1036.34 337.011C1018.2 354.499 1004.79 376.708 997.275 400.633C995.128 407.499 986.435 429.064 999.207 430.136C1005.75 430.673 1024.64 407.713 1030.01 403.1C1071.98 367.052 1118.88 336.904 1169 313.623C1197.88 300.212 1227.71 289.162 1258.41 280.579Z" fill="#29564E"/>
<path d="M0.60733 509.963C62.7517 552.127 130.585 596.115 205.716 593.647C250.044 592.252 292.546 574.335 329.468 549.66C352.115 534.532 372.83 516.83 392.9 498.484C413.508 479.494 427.783 468.98 398.052 454.603C357.267 434.755 305.211 428.533 260.347 427.46C213.337 426.28 166.004 433.039 121.14 447.308C108.689 451.278 -0.143921 509.427 0.500061 509.963H0.60733Z" fill="#29564E"/>
<path d="M401.379 448.489C344.279 455.141 288.253 478.851 248.111 520.156C221.386 547.622 202.603 581.524 181.244 613.174C159.885 644.824 134.341 675.615 99.6729 691.922C223.854 681.73 345.889 645.467 455.474 586.352C480.589 572.834 505.275 557.921 526.526 538.932C541.445 525.628 554.647 510.179 564.414 492.691C578.152 468.015 560.872 466.62 538.762 460.612C494.22 448.703 447.424 443.339 401.379 448.703V448.489Z" fill="#3B6861"/>
<path d="M747.419 542.808C761.587 556.434 773.178 572.527 786.702 586.796C800.118 600.85 816.218 613.403 835.108 617.587C835.323 617.695 835.537 617.802 835.752 617.802C836.289 617.909 836.825 618.016 837.362 618.016C850.134 620.269 865.053 617.373 871.708 606.322C872.888 604.391 873.747 602.352 874.284 600.207C876.001 593.77 875.142 586.581 872.996 580.144C870.098 571.668 865.161 563.944 861.082 556.005C858.184 550.318 855.823 544.418 853.891 538.41C851.959 532.723 850.564 526.823 849.49 520.922C845.948 500.323 847.344 478.865 853.784 459.017C854.428 457.086 855.072 455.155 855.823 453.224C857.111 450.005 858.506 446.679 860.009 443.568C864.195 434.985 868.381 424.471 864.731 415.352H864.624C864.087 413.85 863.336 412.455 862.37 411.167C861.726 410.309 860.975 409.451 860.116 408.592C857.862 406.447 855.501 405.267 852.925 404.837C852.066 404.623 851.1 404.516 850.134 404.516H849.812C848.632 404.73 847.558 404.837 846.485 404.945C842.729 405.696 838.865 407.627 835.537 409.88C833.498 411.275 831.566 412.777 829.849 414.279C826.522 417.176 823.302 420.18 820.082 423.398C816.003 427.26 812.032 431.445 808.168 435.629C807.202 436.809 806.236 437.989 805.163 439.169C795.503 450.327 786.809 462.451 779.189 475.11C779.189 475.11 779.189 475.218 779.082 475.218C766.417 496.675 756.864 519.742 747.419 542.808Z" fill="#FDF6CD"/>
<path d="M1025.29 419.089C1047.29 421.664 1069.19 428.423 1086.79 441.726C1094.73 447.734 1101.6 455.03 1107.94 462.862C1135.2 496.765 1149.58 540.859 1147.65 584.418C1146.36 612.098 1138.1 640.422 1118.78 660.377C1097.1 682.8 1065.22 691.383 1034.95 699C1010.16 705.223 983.647 711.445 959.498 703.184C941.788 697.176 927.298 683.658 917.317 667.78C907.442 651.901 901.861 633.663 898.212 615.316C888.767 567.252 892.631 515.432 915.707 472.089C924.723 455.137 940.285 428.637 958.639 420.376C976.241 412.544 1006.72 416.836 1025.29 418.982V419.089Z" fill="#C1B18A"/>
<path d="M1210.55 625.738C1204.32 638.72 1196.49 650.95 1191.55 664.468C1185.43 681.527 1184.25 700.195 1176.2 716.503C1164.07 741.071 1138.21 756.091 1111.91 763.494C1057.07 778.944 995.029 765.425 951.667 728.626C988.374 722.511 1027.66 714.786 1053.52 687.964C1065.97 675.09 1074.13 658.675 1080.89 642.153C1098.92 598.058 1107.94 550.423 1107.51 502.895C1135.31 520.49 1163.32 543.234 1194.34 554.607C1225.47 565.979 1222.78 600.633 1210.55 625.952V625.738Z" fill="#E0D6B8"/>
<path d="M852.918 426.602C853.348 435.399 854.313 444.411 855.816 453.209C861.397 487.326 873.848 520.156 887.801 543.437C887.908 543.652 888.015 543.759 888.123 543.974C888.015 543.759 888.015 543.652 887.908 543.437C873.311 501.703 899.607 455.569 938.246 437.438C943.934 434.648 949.945 432.61 956.063 431.215C960.893 430.142 965.83 429.499 970.767 429.069C1003.07 426.709 1035.59 439.476 1061.35 460.612C1067.36 465.547 1073.05 470.911 1078.31 476.597C1081.42 480.138 1084.54 483.786 1087.33 487.541C1095.59 498.484 1102.25 510.929 1107.08 524.018C1123.28 568.113 1118.99 619.718 1084.43 649.973C1089.37 646.862 1094.41 643.75 1099.35 640.639C1114.7 630.876 1130.05 620.791 1144.32 609.633C1162.78 595.149 1179.42 579.164 1192.83 559.959L1196.05 555.131C1220.42 516.615 1227.61 464.045 1201.21 427.138C1185.54 405.252 1160.85 391.948 1137.13 379.396C1135.41 378.537 1133.69 377.572 1131.98 376.606C1066.18 340.772 960.356 264.277 889.089 323.285C865.369 342.918 854.85 372.637 852.918 404.823C852.489 411.903 852.489 419.199 852.918 426.602Z" fill="#FDF6CD"/>
<path d="M826.094 660.267C824.269 670.352 826.952 680.115 832.211 689.02C836.934 697.174 843.803 704.577 851.102 710.477C882.549 736.119 925.696 746.955 965.623 739.23C967.233 739.016 968.843 738.694 970.453 738.265C995.139 732.578 1018 719.811 1036.14 702.109C1037.64 700.714 1039.25 699.212 1040.65 697.603C1042.9 695.35 1044.94 692.882 1046.98 690.415C1054.39 681.403 1060.72 671.532 1065.66 660.911C1020.58 668.85 972.707 659.302 934.283 634.626C929.775 631.836 925.482 628.725 921.296 625.506C921.188 625.506 921.081 625.506 921.081 625.399C921.081 625.399 921.01 625.327 920.866 625.184C911.851 618.211 903.586 610.379 896.073 601.796C879.759 583.128 867.094 561.241 858.722 537.424C856.039 529.806 854 522.94 849.492 520.902C846.594 519.4 842.837 519.829 837.363 523.047C835.002 524.335 832.855 526.159 830.923 528.304C827.167 532.059 824.054 536.78 821.586 541.823C818.58 547.616 816.541 553.839 815.468 559.096C810.531 582.806 830.387 597.397 835.109 617.567C835.861 620.678 836.29 623.897 836.183 627.223C835.861 638.81 828.133 648.895 826.094 660.267Z" fill="#FDF6CD"/>
<path d="M942.226 530.994C942.763 568.652 960.258 607.383 992.457 627.016C953.174 637.208 909.276 627.982 877.506 602.769C845.629 577.557 826.631 537.002 827.597 496.448C828.134 471.987 835.969 447.418 851.425 428.428C866.88 409.438 890.386 396.671 914.857 396.135C928.917 395.813 943.192 399.89 955.106 407.507C968.737 416.197 975.499 423.815 967.878 438.942C953.174 467.802 941.904 498.057 942.334 530.994H942.226Z" fill="#E0D6B8"/>
<path d="M1008.34 561.356C978.5 584.959 937.714 594.078 900.685 585.495C915.282 618.754 933.421 652.013 962.508 673.685C991.594 695.357 1034.2 702.652 1064.15 682.053C1078.1 672.505 1087.87 658.129 1097.1 644.074C1112.02 621.115 1126.4 597.404 1133.59 571.012C1140.78 544.619 1139.93 514.901 1125.54 491.619C1117.28 478.316 1104.18 467.802 1089.37 462.759C1081.97 460.292 1072.84 458.468 1065.01 459.863C1054.38 461.794 1056.85 464.69 1055.78 474.775C1052.24 508.356 1034.85 540.435 1008.34 561.356Z" fill="#EAE0C5"/>
<g style="mix-blend-mode:soft-light">
<path d="M779.083 475.203C789.816 491.188 800.441 507.281 815.253 519.298C819.976 523.053 824.913 526.379 830.172 529.168C830.494 529.383 830.923 529.597 831.245 529.704C838.436 533.459 846.057 536.463 853.892 538.395C855.824 539.038 857.756 539.575 859.688 540.004C868.918 542.15 878.363 543.222 887.808 543.437H887.916C888.882 543.544 889.848 543.544 890.814 543.544C892.102 543.544 893.39 543.544 894.678 543.437C910.777 543.437 926.769 540.862 942.547 537.429C951.885 535.283 961.115 532.816 970.346 530.241C998.466 522.302 1026.59 512.86 1051.27 497.304C1052.24 496.767 1053.2 496.124 1054.17 495.48C1062.76 490.545 1070.91 484 1078.32 476.597C1082.72 472.413 1086.8 467.8 1090.77 463.187C1093.56 459.646 1096.24 456.106 1098.82 452.565C1099.57 451.6 1100.22 450.741 1100.86 449.776C1115.24 429.069 1127.37 402.999 1131.99 376.606C1066.19 340.772 960.364 264.277 889.096 323.285C865.376 342.918 854.858 372.637 852.926 404.823C852.067 404.608 851.101 404.501 850.135 404.501H849.813C848.633 404.715 847.559 404.823 846.486 404.93C842.73 405.681 838.866 407.612 835.538 409.865C833.499 411.26 831.567 412.762 829.85 414.264C826.523 417.161 823.303 420.165 820.083 423.383C816.004 427.246 812.033 431.43 808.169 435.614C807.203 436.794 806.237 437.974 805.164 439.154C795.504 450.312 786.81 462.436 779.19 475.095C779.19 475.095 779.19 475.203 779.083 475.203Z" fill="#353535"/>
</g>
<path d="M593.401 241.643C607.569 255.268 619.161 271.361 632.684 285.63C646.101 299.685 662.2 312.238 681.09 316.422C681.305 316.529 681.52 316.636 681.734 316.636C694.829 319.318 710.714 316.636 717.69 305.157C718.871 303.225 719.729 301.187 720.266 299.041C721.983 292.604 721.125 285.416 718.978 278.979C716.188 270.503 711.143 262.778 707.064 254.732C703.63 248.08 700.839 241.106 698.8 233.918C697.405 229.305 696.331 224.584 695.473 219.756C691.609 197.119 693.648 173.516 701.805 152.058C703.093 148.84 704.489 145.514 705.991 142.403C710.177 133.712 714.363 123.091 710.606 114.079C709.748 111.719 708.245 109.465 706.099 107.427C703.845 105.281 701.483 104.101 698.907 103.672C690.858 102.063 681.949 107.749 675.831 113.113C655.868 130.601 638.802 151.2 625.171 173.945C621.093 180.811 617.336 187.892 613.794 195.08C606.281 210.208 599.841 225.979 593.401 241.643Z" fill="#FDF6CD"/>
<path d="M871.275 117.933C893.277 120.508 915.173 127.267 932.775 140.57C940.717 146.578 947.587 153.874 953.919 161.706C981.181 195.608 995.563 239.703 993.631 283.262C992.343 310.942 984.079 339.265 964.759 359.221C943.079 381.644 911.202 390.226 880.934 397.844C856.141 404.066 829.63 410.289 805.481 402.028C787.771 396.02 773.282 382.502 763.3 366.623C753.426 350.745 747.845 332.506 744.195 314.16C734.75 266.096 738.614 214.276 761.69 170.932C770.706 153.981 786.269 127.481 804.622 119.22C822.225 111.388 852.706 115.68 871.275 117.825V117.933Z" fill="#C1B18A"/>
<path d="M1056.53 324.578C1050.31 337.559 1042.47 349.79 1037.53 363.308C1031.42 380.367 1030.23 399.035 1022.19 415.342C1010.06 439.911 984.19 454.931 957.894 462.334C903.048 477.783 841.011 464.265 797.65 427.466C834.357 421.35 873.64 413.626 899.506 386.804C911.957 373.93 920.114 357.515 926.876 340.993C944.907 296.898 953.923 249.262 953.494 201.734C981.292 219.329 1009.31 242.074 1040.32 253.447C1071.45 264.819 1068.77 299.473 1056.53 324.792V324.578Z" fill="#E0D6B8"/>
<path d="M983.117 78.136C1006.94 90.6886 1031.52 103.992 1047.19 125.879C1074.67 164.395 1065.76 219.862 1038.93 258.7C1011.99 297.538 970.667 323.608 930.525 348.713C975.39 309.446 969.164 233.916 933.316 186.281C903.049 146.049 851.208 119.12 802.051 129.956C754.181 140.577 716.83 194.542 734.111 242.714C699.765 186.281 674.864 71.9133 735.077 22.025C808.169 -38.5921 917.86 43.6969 983.01 78.136H983.117Z" fill="#FDF6CD"/>
<path d="M672.076 359.117C668.534 378.429 681.843 396.882 697.084 409.22C726.815 433.574 767.171 444.517 805.166 439.153C807.312 438.831 809.459 438.509 811.606 438.08L816.436 437.114C826.632 434.754 836.506 431.214 845.844 426.6C848.205 425.42 850.567 424.24 852.821 422.845C856.684 420.7 860.441 418.339 864.09 415.764C864.09 415.764 864.162 415.693 864.305 415.55C864.305 415.55 864.627 415.55 864.734 415.335C867.096 413.726 869.457 412.009 871.711 410.078C871.818 410.078 871.925 410.078 871.925 409.971C875.682 407.074 879.224 403.963 882.551 400.53C883.946 399.242 885.342 397.847 886.63 396.453C888.884 394.2 891.03 391.732 892.962 389.265C900.475 380.252 906.808 370.382 911.638 359.761C895.216 362.657 878.473 363.194 861.944 361.477C832.964 358.688 804.629 349.139 780.265 333.475C775.757 330.579 771.464 327.575 767.385 324.356C767.385 324.356 767.385 324.356 767.278 324.356C767.063 324.249 766.849 324.034 766.741 323.927C764.488 322.21 762.234 320.386 760.087 318.562C753.647 312.876 747.637 306.975 742.055 300.538C726.493 282.943 714.364 262.344 706.1 240.029C705.563 238.848 705.134 237.561 704.704 236.381C702.021 228.763 699.982 221.897 695.474 219.859C692.683 218.357 688.82 218.786 683.346 222.004L682.38 222.648C680.34 223.936 678.516 225.438 676.906 227.261C668.963 235.415 663.49 248.29 661.45 258.053C656.513 281.763 676.369 296.461 681.092 316.524C681.843 319.528 682.272 322.747 682.165 326.073C681.843 337.767 674.115 347.852 672.076 359.224V359.117Z" fill="#FDF6CD"/>
<path d="M788.209 229.842C788.745 267.5 806.24 306.23 838.439 325.864C799.156 336.056 755.258 326.829 723.488 301.617C691.719 276.405 672.614 235.85 673.58 195.296C674.116 170.834 681.952 146.266 697.407 127.276C712.863 108.286 736.368 95.519 760.84 94.9825C774.9 94.6607 789.175 98.7376 800.981 106.355C814.612 115.045 821.374 122.663 813.753 137.79C799.049 166.65 787.779 196.905 788.209 229.842Z" fill="#E0D6B8"/>
<path d="M854.32 260.09C824.482 283.693 783.697 292.813 746.668 284.23C761.265 317.489 779.403 350.748 808.49 372.419C837.577 394.091 880.187 401.387 910.132 380.788C924.085 371.239 933.852 356.863 943.083 342.808C958.001 319.849 972.384 296.139 979.575 269.746C986.766 243.353 985.907 213.742 971.525 190.354C963.261 177.05 950.166 166.536 935.355 161.494C927.949 159.026 918.826 157.202 910.991 158.597C900.365 160.528 902.834 163.425 901.76 173.51C898.218 207.091 880.831 239.169 854.32 260.09Z" fill="#EAE0C5"/>
<g style="mix-blend-mode:soft-light">
<path d="M593.394 241.637C607.562 255.262 619.154 271.355 632.677 285.624C646.093 299.679 662.193 312.231 681.083 316.416C681.835 319.42 682.264 322.638 682.157 325.964C681.835 337.658 674.107 347.743 672.067 359.116C668.526 378.427 681.835 396.881 697.076 409.219C726.806 433.573 767.162 444.516 805.157 439.152C795.498 450.309 786.804 462.433 779.183 475.093C766.411 496.55 756.859 519.724 747.414 542.791C761.581 556.416 773.173 572.509 786.696 586.778C800.113 600.833 816.212 613.385 835.103 617.57C835.854 620.681 836.283 623.9 836.176 627.225C835.854 638.812 828.126 648.897 826.087 660.27C824.262 670.355 826.945 680.118 832.205 689.023C838 675.075 841.113 660.055 840.791 644.82C840.576 635.808 839.288 626.904 837.357 617.999C831.883 592.464 821.794 567.145 821.579 541.825C821.579 535.602 822.116 529.487 823.404 523.264C824.477 518.329 826.087 513.394 827.911 508.566C834.566 491.186 844.87 474.449 848.412 457.069C849.7 450.846 850.022 444.516 849.056 438.079C848.734 436.362 848.412 434.646 847.982 433.036C847.446 430.783 846.694 428.637 845.836 426.599C844.655 423.702 843.26 420.913 841.542 418.338C839.825 415.334 837.786 412.544 835.532 409.862C834.459 408.468 833.385 407.287 832.205 406C819.325 391.624 801.615 379.607 788.521 365.016C777.359 352.571 769.416 337.766 762.225 322.638C761.474 321.243 760.723 319.849 760.079 318.454C754.068 305.794 748.272 293.027 741.081 281.011C740.759 280.367 740.33 279.831 739.9 279.187C730.777 264.489 719.293 251.292 706.091 239.92C703.73 237.882 701.261 235.843 698.793 233.912C693.534 229.835 688.06 226.08 682.371 222.54C680.01 221.145 677.649 219.75 675.18 218.355C666.057 213.313 656.397 209.021 646.63 205.481C635.897 201.619 624.842 198.078 613.787 195.074C606.274 210.202 599.834 225.973 593.394 241.637Z" fill="#353535"/>
</g>
<path d="M710.708 334.561C737.326 350.118 761.583 369.966 782.083 393.033C801.51 414.812 817.502 439.273 833.494 463.627C820.292 482.295 810.633 503.323 798.29 522.635C785.947 541.947 770.062 560.078 748.918 568.983C734.428 574.991 715.645 575.42 705.127 563.833C698.043 556.001 696.433 544.629 697.828 534.115C699.224 523.708 703.195 513.838 706.093 503.753C718.651 460.194 709.635 411.057 682.48 374.794C674.001 363.529 664.985 348.616 674.752 334.776C683.446 322.331 699.975 328.339 710.708 334.669V334.561Z" fill="#FDF6CD"/>
<path d="M487.783 383.268C463.205 391.1 439.485 403.652 422.312 422.857C414.584 431.547 408.252 441.417 402.778 451.717C378.95 496.67 372.189 550.313 384.102 599.772C391.615 631.207 407.5 661.891 433.904 680.452C463.742 701.373 502.166 704.162 538.444 706.201C568.174 707.917 599.944 709.205 625.811 694.399C644.808 683.563 658.439 664.895 666.274 644.618C674.109 624.234 676.471 602.133 676.578 580.354C676.793 523.17 660.908 464.698 624.952 420.067C610.892 402.687 587.172 375.65 564.417 370.286C542.522 365.136 508.498 376.83 487.783 383.375V383.268Z" fill="#C1B18A"/>
<path d="M321.203 660.934C331.185 674.453 342.884 686.683 351.471 701.06C362.204 719.191 367.785 740.434 380.557 757.278C399.877 782.705 432.827 794.292 464.597 796.974C530.82 802.553 598.975 773.371 640.512 721.552C597.043 722.624 550.354 722.41 514.828 697.412C497.762 685.396 484.668 668.445 473.291 650.957C442.916 604.502 421.987 551.824 412.005 497.215C384.099 523.607 356.945 555.793 323.994 575.534C290.829 595.49 301.669 634.542 321.096 660.827L321.203 660.934Z" fill="#E0D6B8"/>
<path d="M350.932 362.353C326.46 381.986 301.13 402.693 288.036 431.231C265.067 481.441 287.499 543.024 326.89 581.647C366.28 620.27 419.409 640.977 470.927 660.825C410.822 625.742 401.27 537.874 431.752 475.326C457.511 422.541 510.962 380.27 569.671 381.879C626.879 383.488 681.617 437.132 672.494 496.032C699.434 423.828 702.654 287.252 622.585 243.372C525.451 190.158 417.906 308.495 350.825 362.353H350.932Z" fill="#FDF6CD"/>
<path d="M750.526 579.932C753.424 593.128 764.587 602.999 769.416 615.659C777.681 637.009 766.518 661.041 751.814 678.636C720.152 716.508 670.458 738.716 621.193 736.893C571.821 735.069 523.952 709.427 495.08 669.302C548.423 668.444 601.122 646.879 639.761 610.187C675.61 576.177 697.505 530.687 704.803 482.087C707.057 466.959 707.916 454.514 726.055 460.844C740.545 465.886 753.531 483.803 759.22 497.321C771.778 527.254 743.979 550.857 750.419 579.932H750.526Z" fill="#FDF6CD"/>
<path d="M607.672 493.14C615.4 536.484 603.915 584.656 571.394 614.267C618.619 617.271 666.918 596.994 697.829 561.16C728.741 525.219 741.62 474.58 731.531 428.339C725.521 400.444 711.138 373.945 689.243 355.599C667.348 337.252 637.617 327.811 609.496 332.639C593.29 335.429 577.834 343.153 565.92 354.526C552.289 367.507 546.171 377.807 558.192 393.363C581.376 423.189 601.017 455.375 607.779 493.14H607.672Z" fill="#E0D6B8"/>
<path d="M538.654 542.479C578.044 562.971 626.772 564.365 667.343 546.341C657.898 587.647 644.589 629.703 616.039 661.031C587.489 692.359 540.263 710.061 501.41 693.11C483.378 685.278 468.889 671.009 455.258 656.847C433.148 633.887 411.359 609.855 397.299 581.21C383.239 552.564 377.658 518.339 388.927 488.514C395.367 471.455 408.14 456.435 424.025 447.423C431.967 442.917 442.056 438.84 451.394 438.625C463.951 438.411 461.805 442.38 465.239 453.753C476.724 491.411 503.664 524.348 538.654 542.586V542.479Z" fill="#EAE0C5"/>
</svg>
