<svg width="1271" height="1723" viewBox="0 0 1271 1723" fill="none" xmlns="http://www.w3.org/2000/svg">
<path d="M635.799 1718.3C678.713 1648.87 686.444 1564.98 670.501 1487.95C653.947 1407.93 629.623 1330.29 611.818 1250.6C609.979 1239.57 608.141 1232.21 607.406 1228.17C606.426 1227.04 607.259 1224.19 606.303 1223.02C604.279 1213.49 605.14 1214.97 603.362 1205.38C569.115 1018.67 559.557 826.05 641.288 651.574C682.867 562.758 743.554 483.236 822.005 423.922C828.472 419.058 820.745 409.249 814.202 414.066C720.764 482.782 653.11 578.919 610.561 685.592C559.703 568.69 576.313 429.415 657.164 329.742C662.53 323.097 651.971 315.155 646.567 321.777C561.999 426.021 542.886 578.168 602.888 698.939C603.328 699.84 603.87 700.49 604.52 701.049C588.714 743.504 576.735 787.485 568.659 831.938C550.824 930.186 551.356 1031.29 563.583 1130.19C565.346 1144.39 567.379 1158.49 569.694 1172.56C545.678 1106.22 538.872 1033.59 512.069 967.947C494.202 924.237 465.379 887.65 443.066 846.383C417.675 799.492 404.339 750.403 407.907 696.871C408.218 691.872 402.546 690.359 399.485 692.766C398.687 692.955 397.909 693.365 397.18 694.121C326.865 772.253 355.763 883.71 398.113 967.72C447.276 1065.22 509.923 1158.9 582.464 1240.8C595.507 1302.24 611.973 1362.81 628.488 1423.72C654.179 1518.57 675.216 1621.7 625.473 1712.45C622.259 1718.32 632.159 1724.02 635.7 1718.29L635.799 1718.3Z" fill="#639B71"/>
<path d="M1076.9 1105.37C1093.19 1110.89 1111.01 1146.41 1051.9 1244.35C994.318 1339.74 762.12 1440.54 644.536 1482.3L644.885 1481.55C674.154 1418.64 761.116 1231.73 850.422 1244.35C951.894 1258.69 1036.45 1158.56 1076.9 1105.37Z" fill="#639B71"/>
<g clip-path="url(#clip0_4183_1276)">
<path d="M712.912 396.993C716.2 410.504 708.648 423.913 697.551 431.723C696.369 432.031 695.342 432.699 694.52 433.675C691.078 435.679 687.327 437.168 683.525 437.99C683.114 438.042 682.703 438.042 682.292 438.093C680.494 437.322 679.004 437.579 677.515 438.607C671.093 438.71 664.568 437.22 658.814 434.291C657.94 433.315 656.707 432.596 655.423 432.339C653.368 431.003 651.467 429.462 649.618 427.767C649.463 425.558 647.871 423.554 645.713 423.502C643.247 420.369 641.398 416.772 640.267 412.868C635.798 396.941 645.816 381.734 659.944 376.083C662.359 378.754 666.161 378.189 668.061 376.134C669.397 377.316 671.298 377.881 673.25 377.008C689.023 370.226 708.854 380.039 712.964 396.941L712.912 396.993Z" fill="#B8BCFE"/>
<path d="M643.815 434.97C645.151 436.203 646.589 437.436 648.028 438.515C628.505 474.015 608.828 510.287 594.135 548.304C570.862 607.181 497.908 608.619 444.118 605.999C426.034 605.126 408.104 603.122 390.174 600.81L391.818 588.686C394.695 588.943 397.469 589.097 400.295 589.251C402.864 589.405 403.583 584.987 400.86 584.627C398.034 584.216 395.26 583.856 392.434 583.497L393.102 578.77C399.37 579.592 405.689 580.363 411.957 580.877C414.731 581.133 415.348 576.407 412.625 575.996C409.748 575.534 406.871 575.123 404.045 574.763L405.484 563.101C405.895 563.563 406.511 563.871 407.231 563.614C491.024 534.073 572.814 488.246 643.815 434.867V434.97Z" fill="#B8BCFE"/>
<path d="M631.698 415.961C632.931 420.328 634.986 424.387 637.606 428.034C563.112 478.588 486.768 520.973 405.851 560.532C404.721 561.046 404.824 562.484 405.44 563.203L404.002 574.866C388.281 572.708 372.303 571.578 356.479 570.088C354.63 569.831 354.116 573.067 356.017 573.376C368.295 575.122 380.728 577.178 393.11 578.873L392.442 583.599C372.765 581.133 352.78 579.644 333.052 578.462C331.202 578.411 330.689 581.544 332.589 581.853C352.112 584.627 372.097 587.196 391.774 588.737L390.13 600.862C361.771 597.163 333.566 592.59 305.104 590.176C383.503 499.96 507.061 431.579 625.276 416.629C625.79 416.68 626.252 416.783 626.92 416.68C628.461 416.423 630.003 416.218 631.595 415.961H631.698Z" fill="#B8BCFE"/>
<path d="M655.784 370.851C651.879 372.135 648.283 374.19 644.995 376.656C644.944 375.526 644.327 374.499 642.991 373.882C561.356 337.508 478.846 302.727 394.642 272.724C392.946 272.159 391.713 274.933 393.409 275.703C475.25 310.69 557.451 344.804 638.881 380.869C639.292 381.023 639.703 381.023 640.114 381.126C634.36 387.394 630.661 395.46 630.25 404.297C606.72 406.917 582.933 411.592 559.301 418.168C500.989 427.621 460.351 376.708 423.875 338.022C390.532 302.573 357.138 267.175 323.795 231.777C353.387 232.702 382.98 233.627 412.623 234.603C447.61 235.733 483.059 235.631 516.248 248.218C575.33 270.566 618.537 321.736 655.835 370.851H655.784ZM553.701 300.056C556.578 301.751 560.071 297.487 557.4 295.329C544.453 284.797 525.701 274.83 509.158 271.799C507.617 271.491 506.486 273.597 508.028 274.47C515.631 278.735 523.903 281.714 531.506 285.979C539.213 290.243 546.251 295.38 553.752 300.004L553.701 300.056ZM544.761 281.56C547.227 283.513 550.669 280.276 548.255 278.015C533.407 264.144 513.936 256.489 493.899 254.074C491.793 253.817 491.279 257.517 493.437 257.876C513.011 260.959 529.297 269.23 544.761 281.56Z" fill="#B8BCFE"/>
<path d="M650.244 18.4648C718.06 102.824 746.317 216.62 712.974 318.498C704.908 333.192 698.075 348.964 692.681 365.969C687.44 364.788 681.994 364.839 676.651 366.072C675.624 275.137 671.976 185.435 683.022 94.8603C683.69 89.8255 674.751 88.5411 674.031 93.6273C661.136 183.997 664.219 276.781 671.668 367.613C670.538 368.024 669.459 368.384 668.38 368.898C668.329 368.898 668.329 368.949 668.226 369H666.787C657.54 356.722 648.087 344.443 638.12 332.421C610.582 287.159 596.095 235.835 600.616 181.325C603.493 147.007 614.538 115.873 630.722 85.6127C642.949 62.8533 646.237 43.5361 650.244 18.5162V18.4648Z" fill="#B8BCFE"/>
<path d="M935.581 206.554C939.383 203.471 934.297 196.741 930.341 199.721C856.463 256.234 781.506 313.107 710.556 373.268C710.145 373.679 709.991 374.09 709.837 374.552C707.679 372.754 705.367 371.11 702.85 369.774C710.813 354.516 717.337 338.692 722.681 322.611C776.163 226.025 885.849 176.037 986.237 135.039C959.316 224.022 909.636 322.56 828.052 365.253C805.858 372.086 783.817 379.484 761.777 385.649C748.368 387.19 734.394 387.396 719.752 386.112C719.598 386.112 719.495 386.163 719.341 386.112C717.697 383.029 715.591 380.255 713.279 377.737C713.433 377.686 713.638 377.635 713.844 377.48C790.239 324.872 864.066 265.687 935.581 206.554ZM854.921 229.21C858.415 226.95 855.23 221.299 851.633 223.559C836.015 233.166 820.346 243.339 805.601 254.23C803.905 255.515 805.344 258.186 807.348 257.159C823.479 248.682 839.509 239.075 854.921 229.262V229.21ZM837.197 225.871C839.406 224.844 837.865 221.299 835.553 222.018C816.03 227.875 797.74 242.209 785.307 258.135C783.972 259.779 786.129 262.194 787.722 260.55C802.364 244.983 818.188 235.17 837.197 225.922V225.871Z" fill="#B8BCFE"/>
<path d="M1096.33 419.185C1035.76 445.797 970.406 456.227 904.543 460.953C841.556 465.474 771.018 471.023 718.152 429.871C716.971 428.998 715.789 428.689 714.607 428.638C716.611 426.069 718.255 423.295 719.642 420.469C766.137 422.113 812.683 421.034 859.076 416.822C903.053 412.763 955.764 395.603 999.023 403.156C1005.19 404.286 1007.86 395.244 1001.64 393.754C961.107 383.787 910.605 401.82 870.224 406.135C820.955 411.376 771.48 413.893 721.954 414.561C723.598 409.115 724.163 403.413 723.239 397.607C762.489 400.536 797.271 392.932 827.839 377.93C862.877 367.295 897.864 356.096 934.906 355.685C997.995 354.965 1041.15 398.224 1096.33 419.185Z" fill="#B8BCFE"/>
<path d="M890.213 580.715C907.938 633.888 909.479 693.125 913.692 749.278C876.753 711.877 816.233 708.332 778.163 670.519C720.777 613.492 717.591 526.565 706.186 450.426C708.96 465.479 717.078 478.58 724.63 492.195C738.039 516.238 752.63 539.563 768.042 562.322C797.172 605.426 829.231 646.373 863.447 685.572C867.505 690.196 874.287 683.415 870.228 678.791C837.605 641.595 806.985 602.755 778.882 561.963C766.193 543.519 754.068 524.767 742.2 505.809C729.511 485.67 712.557 463.989 709.063 440.048C708.755 437.788 705.107 438.353 705.107 440.614C705.107 442.463 705.364 444.364 705.518 446.162C705.107 443.593 704.696 441.076 704.285 438.559C705.621 437.634 706.957 436.606 708.19 435.527C708.447 436.401 708.909 437.274 709.834 438.096C725.966 451.608 743.998 460.599 763.059 466.455C819.675 489.626 869.201 517.574 890.213 580.663V580.715ZM868.79 570.697C870.228 573.111 873.722 571.467 873.157 568.847C869.714 551.739 854.456 535.556 840.636 525.846C838.632 524.51 836.166 527.644 838.067 529.236C845.054 535.093 851.425 541.31 856.614 548.759C861.546 555.746 864.526 563.504 868.79 570.697ZM865.81 584.568C867.608 589.243 874.184 586.572 872.129 581.896C864.526 564.583 852.863 549.787 838.067 538.073C836.218 536.532 833.495 539.049 835.396 540.693C848.959 552.869 859.131 567.665 865.81 584.568Z" fill="#B8BCFE"/>
<path d="M717.899 587.247C723.551 642.733 703.103 685.991 667.448 726.886C647.463 749.902 618.899 773.689 605.181 800.61C582.679 740.244 573.996 677.823 586.943 612.576C598.913 552.363 628.403 497.392 657.636 443.961C664.674 446.992 672.329 448.328 679.83 447.865C674.692 453.26 671.661 474.016 670.12 479.975C667.346 490.815 664.726 501.604 662.157 512.496C657.482 532.43 653.166 552.466 649.159 572.503C641.504 611.034 634.774 649.771 630.509 688.92C630.253 690.872 633.541 691.283 633.9 689.382C642.377 645.559 650.289 601.684 659.999 558.169C664.88 536.334 669.966 514.602 675.36 492.922C679.111 478.228 685.841 462.096 686.92 446.787C689.334 446.221 691.646 445.451 693.958 444.423C701.202 491.124 704.644 540.496 718.002 586.169C717.951 586.477 717.899 586.836 717.899 587.145V587.247Z" fill="#B8BCFE"/>
<path d="M1113.96 412.557C1118.63 413.893 1120.18 421.137 1115.35 423.5C1046.14 457.203 970.467 469.019 894.328 474.054C864.993 476.006 834.167 477.548 804.421 474.516C843.261 491.881 876.552 517.929 894.945 559.646C922.893 623.146 912.669 702.11 918.629 769.977C919.194 776.297 910.46 777.632 907.532 773.008C887.033 741.207 859.393 729.082 826.461 714.954C797.896 702.778 773.853 686.646 754.792 661.78C742.668 645.905 733.574 628.797 726.484 610.816C728.334 643.748 719.651 675.498 700.385 703.754C674.338 741.978 627.895 773.265 610.375 817.14C608.218 822.586 601.231 822.689 599.124 817.14C574.772 753.383 562.648 688.188 574.207 619.344C576.416 605.832 579.653 592.629 583.506 579.579C559.359 609.275 514.92 617.495 476.285 618.676C414.326 620.526 354.32 605.37 292.874 601.414C287.326 601.003 285.117 595.044 288.559 590.882C348.411 518.186 436.675 459.052 529.819 427.302C498.993 423.655 471.045 402.693 448.285 379.78C399.53 330.87 352.984 279.546 305.41 229.558C301.968 225.91 304.382 219.18 309.674 219.385C352.984 220.67 396.293 221.646 439.552 223.598C470.428 224.985 500.226 228.787 528.637 241.631C560.798 256.119 588.027 278.21 612.276 303.436C598.61 273.124 591.264 239.73 590.493 206.747C589.722 175.305 594.809 143.76 606.163 114.374C620.548 77.1263 639.505 47.4826 641.509 6.12528C641.663 2.01523 647.109 -0.964552 650.192 2.58036C719.189 81.8529 753.559 188.252 731.981 288.845C793.221 205.257 897.873 159.327 993.38 120.333C997.439 118.638 1001.24 123.416 1000.16 127.115C976.889 209.727 933.682 302.049 864.89 354.811C889.756 348.543 914.878 344.228 940.309 344.433C1007.66 345.153 1052.36 394.782 1114.01 412.609L1113.96 412.557ZM904.552 460.953C970.416 456.227 1035.77 445.798 1096.34 419.185C1041.16 398.224 998.004 355.017 934.915 355.685C897.873 356.096 862.886 367.244 827.848 377.93C797.228 392.932 762.499 400.536 723.248 397.607C724.172 403.413 723.607 409.115 721.963 414.561C771.438 413.893 820.964 411.427 870.233 406.136C910.614 401.82 961.065 383.787 1001.65 393.754C1007.87 395.295 1005.15 404.286 999.032 403.156C955.773 395.604 903.062 412.814 859.085 416.822C812.693 421.034 766.198 422.062 719.651 420.469C718.264 423.346 716.62 426.069 714.616 428.638C715.849 428.689 717.031 428.998 718.161 429.871C771.027 471.023 841.566 465.423 904.552 460.953ZM828.054 365.241C909.69 322.547 959.318 224.009 986.239 135.027C885.851 176.024 776.164 226.013 722.682 322.599C717.339 338.679 710.815 354.503 702.852 369.762C705.369 371.097 707.629 372.741 709.839 374.54L713.281 377.776C715.644 380.294 717.75 383.017 719.343 386.15C719.497 386.202 719.6 386.15 719.754 386.15C734.396 387.435 748.37 387.178 761.779 385.688C783.819 379.472 805.911 372.125 828.054 365.292V365.241ZM913.697 749.273C909.484 693.12 907.943 633.883 890.218 580.71C869.206 517.621 819.731 489.672 763.064 466.502C744.003 460.645 725.97 451.654 709.839 438.142C708.914 437.32 708.451 436.447 708.195 435.574C706.962 436.704 705.626 437.68 704.29 438.605C704.701 441.122 705.112 443.64 705.523 446.208C705.369 444.41 705.112 442.509 705.112 440.66C705.112 438.399 708.811 437.783 709.068 440.095C712.51 464.036 729.464 485.716 742.205 505.855C754.073 524.813 766.198 543.565 778.887 562.009C806.99 602.801 837.558 641.641 870.233 678.837C874.292 683.461 867.459 690.242 863.452 685.619C829.235 646.419 797.177 605.473 768.047 562.369C752.686 539.609 738.044 516.285 724.635 492.241C717.083 478.626 708.965 465.526 706.191 450.473C717.596 526.611 720.782 613.539 778.168 670.566C816.237 708.378 876.809 711.923 913.697 749.324V749.273ZM667.454 726.925C703.057 686.03 723.556 642.72 717.905 587.286C717.905 586.926 717.956 586.567 718.007 586.31C704.65 540.637 701.207 491.265 693.964 444.564C691.703 445.541 689.34 446.311 686.925 446.928C685.795 462.238 679.065 478.421 675.366 493.063C669.92 514.692 664.834 536.475 660.004 558.31C650.294 601.825 642.382 645.7 633.905 689.523C633.546 691.373 630.258 690.962 630.515 689.061C634.779 649.913 641.509 611.175 649.164 572.644C653.12 552.556 657.487 532.571 662.162 512.637C664.731 501.745 667.351 490.957 670.125 480.116C671.667 474.157 674.698 453.401 679.835 448.007C672.334 448.469 664.679 447.133 657.641 444.102C628.46 497.533 598.97 552.505 586.948 612.717C574.001 677.964 582.684 740.385 605.187 800.751C618.852 773.831 647.417 750.044 667.454 727.027V726.925ZM712.972 318.489C746.315 216.611 718.059 102.814 650.243 18.4554C646.184 43.4753 642.948 62.7925 630.72 85.5519C614.537 115.812 603.44 146.946 600.614 181.265C596.093 235.774 610.581 287.098 638.118 332.36C648.085 344.331 657.538 356.661 666.786 368.94H668.224C668.224 368.94 668.327 368.837 668.378 368.837C669.406 368.323 670.536 367.964 671.667 367.552C664.166 276.772 661.134 183.988 674.03 93.5665C674.8 88.4803 683.688 89.7647 683.021 94.7995C671.975 185.375 675.571 275.128 676.65 366.011C681.993 364.778 687.439 364.727 692.679 365.908C698.074 348.955 704.906 333.131 712.972 318.437V318.489ZM697.508 431.772C708.606 423.911 716.158 410.554 712.87 397.042C708.76 380.139 688.929 370.327 673.156 377.108C671.153 377.982 669.303 377.417 667.967 376.235C666.015 378.29 662.213 378.855 659.85 376.184C645.773 381.835 635.755 397.093 640.173 412.968C641.304 416.873 643.153 420.469 645.619 423.603C647.777 423.655 649.369 425.658 649.524 427.867C651.322 429.563 653.274 431.104 655.329 432.44C656.613 432.697 657.846 433.365 658.72 434.392C664.525 437.32 670.999 438.862 677.421 438.708C678.962 437.68 680.4 437.423 682.199 438.194C682.61 438.143 683.02 438.142 683.431 438.091C687.233 437.269 690.984 435.728 694.426 433.776C695.248 432.851 696.275 432.132 697.457 431.823L697.508 431.772ZM645.054 376.646C648.342 374.18 651.887 372.125 655.843 370.841C618.493 321.777 575.337 270.555 516.255 248.207C483.067 235.62 447.618 235.671 412.631 234.592C383.038 233.668 353.446 232.743 323.802 231.767C357.145 267.165 390.539 302.562 423.882 338.012C460.41 376.697 500.997 427.662 559.308 418.157C582.941 411.581 606.779 406.906 630.258 404.286C630.669 395.449 634.419 387.383 640.122 381.116C639.711 381.064 639.3 381.064 638.889 380.859C557.459 344.742 475.258 310.68 393.416 275.693C391.721 274.922 392.954 272.148 394.649 272.713C478.854 302.717 561.363 337.498 642.999 373.872C644.335 374.437 644.951 375.516 645.003 376.646H645.054ZM648.034 438.554C646.595 437.423 645.157 436.19 643.821 435.009C572.82 488.439 491.03 534.215 407.236 563.756C406.517 564.013 405.901 563.704 405.49 563.242C404.822 562.471 404.77 561.084 405.901 560.571C486.817 521.011 563.161 478.626 637.656 428.073C635.036 424.425 632.981 420.418 631.748 416C630.155 416.257 628.614 416.462 627.073 416.719C626.405 416.822 625.942 416.719 625.428 416.668C507.213 431.566 383.655 499.999 305.256 590.214C333.667 592.68 361.872 597.253 390.282 600.9C408.161 603.264 426.143 605.216 444.227 606.089C498.017 608.709 570.97 607.271 594.243 548.395C608.937 510.377 628.562 474.105 648.137 438.605L648.034 438.554Z" fill="#A0A3DD"/>
<path d="M930.287 199.724C934.243 196.745 939.381 203.475 935.527 206.557C864.013 265.691 790.186 324.927 713.79 377.484C713.534 377.587 713.379 377.638 713.225 377.741L709.783 374.504C709.886 374.042 710.091 373.631 710.502 373.22C781.452 313.059 856.409 256.186 930.287 199.673V199.724Z" fill="white"/>
<path d="M873.211 568.809C873.725 571.429 870.283 573.073 868.844 570.659C864.58 563.466 861.6 555.657 856.668 548.721C851.479 541.22 845.109 535.055 838.122 529.198C836.272 527.606 838.687 524.472 840.69 525.808C854.51 535.518 869.769 551.701 873.211 568.809Z" fill="white"/>
<path d="M872.131 581.839C874.186 586.514 867.61 589.186 865.812 584.51C859.133 567.608 848.961 552.812 835.398 540.636C833.548 538.992 836.22 536.474 838.069 538.016C852.865 549.729 864.528 564.525 872.131 581.839Z" fill="white"/>
<path d="M851.63 223.545C855.175 221.336 858.411 226.936 854.918 229.197C839.557 239.009 823.476 248.617 807.344 257.094C805.341 258.121 803.902 255.45 805.597 254.165C820.342 243.274 836.012 233.101 851.63 223.494V223.545Z" fill="white"/>
<path d="M835.552 222.014C837.812 221.294 839.405 224.839 837.196 225.867C818.187 235.114 802.312 244.927 787.721 260.494C786.128 262.138 783.97 259.723 785.306 258.079C797.791 242.153 816.029 227.819 835.552 221.962V222.014Z" fill="white"/>
<path d="M557.405 295.318C560.077 297.476 556.583 301.74 553.706 300.044C546.205 295.421 539.218 290.283 531.461 286.019C523.857 281.755 515.586 278.775 507.982 274.511C506.389 273.637 507.571 271.531 509.112 271.839C525.655 274.87 544.459 284.837 557.354 295.369L557.405 295.318Z" fill="white"/>
<path d="M548.253 278.008C550.668 280.269 547.226 283.506 544.76 281.553C529.296 269.223 513.061 260.952 493.436 257.869C491.278 257.51 491.791 253.811 493.898 254.067C513.883 256.482 533.406 264.137 548.253 278.008Z" fill="white"/>
<path d="M412.576 576.091C415.351 576.502 414.683 581.177 411.909 580.971C405.641 580.458 399.322 579.687 393.054 578.865C380.672 577.17 368.239 575.115 355.961 573.368C354.111 573.06 354.573 569.874 356.423 570.08C372.195 571.621 388.173 572.7 403.945 574.858C406.822 575.217 409.699 575.628 412.525 576.091H412.576Z" fill="white"/>
<path d="M400.914 584.678C403.585 585.038 402.918 589.456 400.349 589.302C397.523 589.148 394.749 588.942 391.872 588.737C372.144 587.144 352.21 584.575 332.687 581.852C330.838 581.544 331.3 578.41 333.15 578.462C352.878 579.643 372.863 581.133 392.54 583.599C395.365 583.959 398.14 584.318 400.965 584.729L400.914 584.678Z" fill="white"/>
</g>
<defs>
<clipPath id="clip0_4183_1276">
<rect width="831.462" height="820.365" fill="white" transform="translate(286.809 0.945312)"/>
</clipPath>
</defs>
</svg>
