<svg width="465" height="465" viewBox="0 0 465 465" fill="none" xmlns="http://www.w3.org/2000/svg">
    <g clip-path="url(#clip0_2396_24343)">
        <path
            d="M216.18 170.591C222.95 178.523 231.652 190.386 242.191 193.629C249.988 195.994 257.676 192.602 264.162 188.143C260.244 193.521 256.082 198.764 251.461 203.817C247.258 208.398 242.867 212.817 238.327 217.059C238.165 217.032 237.962 217.019 237.773 217.127C237.746 217.1 233.746 210.587 225.274 204.331C216.788 198.088 203.857 192.102 185.967 193.075C184.724 193.156 184.305 194.629 185.345 195.345C195.574 202.439 200.682 215.492 212.437 220.546C219.558 223.586 227.449 223.532 234.435 220.654C226.139 228.085 217.342 235.017 208.127 241.287C208.073 241.179 205.952 213.492 157.335 207.304C156.078 207.155 154.848 208.601 155.97 209.641C166.077 218.83 169.374 233.477 181.697 240.53C188.399 244.368 196.007 245.678 203.371 244.449C203.1 244.638 202.817 244.841 202.546 245.003C193.628 250.732 184.548 255.677 175.306 259.947C176.671 233.882 145.241 220.235 123.986 228.761C123 229.153 122.73 230.369 123.689 231.004C134.229 237.976 138.634 250.624 148.808 257.934C154.173 261.785 160.469 263.677 166.861 263.663C154.132 268.96 141.106 273.095 127.729 276.392C128.459 266.23 123.932 256.299 115.987 249.84C105.623 241.422 93.8541 244.219 81.5715 242.557C80.8553 242.462 80.1797 243.381 80.4365 244.016C87.2061 262.055 96.2458 277.121 114.136 279.391C108.961 280.432 103.732 281.364 98.4483 282.188C98.3537 281.986 78.1799 268.325 66.1 268.892C54.0201 269.46 43.5481 276.148 34.2652 283.35C33.4545 283.999 34.1706 285.31 35.0759 285.323C47.9936 285.539 56.8712 297.038 69.5997 298.119C81.1256 299.079 91.8813 292.458 100.583 285.269C105.394 284.891 110.19 284.31 114.987 283.54C109.934 285.729 105.312 288.647 101.799 292.971C93.9622 302.565 92.6515 315.739 91.53 327.617C91.4489 328.643 92.7326 328.954 93.3947 328.4C103.232 319.969 118.311 318.996 125.756 307.659C130.661 300.187 131.472 288.215 127.378 280.283C127.486 280.175 150.714 274.595 161.618 270.176C161.78 270.419 130.256 280.702 142.174 319.617C142.485 320.658 143.917 320.793 144.403 319.928C150.403 309.199 162.523 305.7 167.82 293.809C172.887 282.472 163.469 269.595 163.347 269.473C171.414 266.109 179.278 262.325 186.832 258.231C181.711 263.001 178.373 269.365 177.535 276.554C177.022 281.04 177.508 285.607 179.103 289.85C182.089 297.755 189.156 303.335 188.642 312.442C188.575 313.672 190.372 314.172 190.953 313.077C200.249 295.214 217.423 269.014 193.682 254.407C197.709 252.083 201.668 249.664 205.492 247.165C207.073 246.151 208.667 245.07 210.221 244.003C203.1 257.285 220.761 279.27 224.815 290.35C225.179 291.363 226.923 291.674 227.152 290.363C229.125 279.256 237.192 270 235.962 258.258C235.003 249.029 229.422 240.179 220.869 236.382C227.422 231.45 233.868 226.14 240.097 220.505C236.881 235.909 255.65 253.542 261.649 265.758C262.325 267.109 264.405 266.163 264.054 264.758C262.014 256.475 266.621 249.462 267.527 241.476C268.054 236.949 267.473 232.207 265.986 227.883C263.311 220.289 257.987 213.695 250.812 210.222C258.338 202.561 265.351 194.359 271.594 185.765C265.622 204.844 287.16 218.086 295.862 232.139C296.605 233.342 298.213 232.761 298.375 231.491C299.645 220.762 304.483 205.574 298.497 195.589C293.605 187.454 283.89 182.549 274.648 181.414C280.701 172.55 285.917 163.281 289.944 153.687C290.606 152.079 288.065 151.133 287.214 152.525C280.553 163.348 274.202 173.942 267.054 184.117C266.932 184.184 266.811 184.279 266.689 184.346C262.406 162.362 233.598 167.686 217.072 168.429C215.964 168.483 215.478 169.726 216.18 170.537L216.18 170.591Z"
            fill="#ECB240" />
        <path
            d="M329.573 92.7037C335.127 96.0142 341.423 97.2033 347.882 99.4193C360.368 103.716 368.88 113.148 371.691 125.741C364.651 121.323 357.665 116.796 350.787 112.134C342.667 106.635 334.343 101.446 329.573 92.7037Z"
            fill="#BF9561" />
        <path
            d="M249.093 94.8724C258.403 97.237 268.131 97.1559 277.468 100.088C294.305 105.385 304.628 120.816 313.316 135.341C300.831 129.964 288.9 123.545 277.63 115.87C268.375 109.56 259.673 99.3179 249.093 94.8724Z"
            fill="#BF9561" />
        <path
            d="M254.083 155.118C232.234 146.998 208.668 140.106 193.008 122.23C200.872 125.202 210.006 124.797 218.83 126.459C234.909 129.486 247.489 140.498 254.083 155.118Z"
            fill="#BF9561" />
        <path
            d="M134.723 149.224C146.208 149.115 158.369 148.494 168.841 152.372C182.124 157.277 193.853 166.519 201.163 178.64C188.488 176.37 176.233 172.654 164.531 167.168C153.937 162.195 144.844 154.858 134.723 149.224Z"
            fill="#BF9561" />
        <path
            d="M96.7916 236.094C103.048 227.189 109.466 216.717 117.546 210.339C128.329 201.827 144.436 203.313 157.88 204.975C137.909 216.109 117.519 226.446 96.7916 236.094Z"
            fill="#BF9561" />
        <path
            d="M174.252 214.842C177.198 201.654 187.886 192.668 198.709 185.655C199.277 185.277 202.952 182.818 204.493 181.926C203.52 183.007 202.02 186.128 201.56 186.885C198.358 192.33 195.129 197.776 191.913 203.235C185.616 213.882 179.333 224.543 173.05 235.205C173.414 228.408 172.766 221.544 174.252 214.842Z"
            fill="#BF9561" />
        <path
            d="M228.811 192.658C231.959 181.051 243.525 170.916 253.173 163.241C250.119 173.078 247.066 182.942 243.998 192.793C240.674 203.494 238.445 218.506 229.054 225.735C228.473 224.695 228.662 222.884 228.567 220.763C228.432 217.682 228.297 214.574 228.162 211.494C227.892 205.332 227.176 198.698 228.811 192.658Z"
            fill="#BF9561" />
        <path
            d="M283.702 182.844C284.689 165.562 294.755 156.063 309.538 148.901C311.592 147.901 319.118 144.185 319.118 144.185C315.645 150.604 308.457 163.549 304.755 169.818C297.309 182.425 289.864 195.005 282.432 207.598C282.189 208.004 283.203 191.722 283.702 182.844Z"
            fill="#BF9561" />
        <path
            d="M350.274 151C353.084 145.082 357.192 139.542 362.678 135.84C363.516 135.272 367.732 132.651 369.38 132.137L369.867 132.056C369.867 132.056 369.988 132.07 370.029 132.11C370.988 133.151 368.218 137.083 367.745 138.042C361.476 150.23 353.936 161.553 345.423 172.282C345.234 172.174 345.072 172.066 344.923 171.917C342.721 169.58 349.112 153.432 350.274 151Z"
            fill="#BF9561" />
        <path
            d="M327.747 93.832C331.571 100.818 337.516 105.547 344.029 110.114C352.96 116.424 362.122 122.397 371.337 128.288C370.743 128.396 370.121 128.504 369.513 128.599C369.391 128.504 369.243 128.437 369.04 128.423C349.15 127.126 332.233 112.965 327.76 93.8185L327.747 93.832Z"
            fill="#F2CE95" />
        <path
            d="M246.013 96.2211C253.85 98.8154 259.715 105.409 266.133 110.395C270.443 113.733 274.875 116.895 279.442 119.895C289.82 126.732 302.697 134.177 314.426 139.447C298.711 141.568 281.983 142.946 268.889 132.123C257.918 123.07 252.337 108.923 246.013 96.2211Z"
            fill="#F2CE95" />
        <path
            d="M186.859 118.894C187.102 119.057 187.318 119.246 187.561 119.408C203.965 141.595 230.571 148.662 255.122 158.296C253.541 158.823 251.961 159.35 250.366 159.89C236.989 160.728 222.882 161.107 211.073 153.783C198.749 146.162 192.115 132.15 186.859 118.894Z"
            fill="#F2CE95" />
        <path
            d="M129.44 149.211L129.602 149.211C142.331 155.454 153.195 164.723 166.275 170.56C176.22 174.992 186.583 178.195 197.218 180.37C184.827 184.086 171.125 186.221 159.262 179.951C147.033 173.479 138.088 160.048 129.44 149.211Z"
            fill="#F2CE95" />
        <path
            d="M126.82 240.281C116.834 239.889 107.227 237.525 97.3498 238.051C118.618 228.296 139.494 217.797 160.141 206.771C155.628 224.985 148.48 241.132 126.82 240.281Z"
            fill="#F2CE95" />
        <path
            d="M172.568 240.092C172.636 239.727 195.12 201.758 205.998 183.368C211.321 196.556 212.47 211.73 200.998 222.256C192.675 229.904 181.392 233.052 172.568 240.092Z"
            fill="#F2CE95" />
        <path
            d="M243.016 203.885C247.177 190.562 251.326 177.252 255.501 163.942C262.96 174.239 265.108 186.711 260.487 199.007C256.555 209.425 244.57 224.031 232.909 226.477C232.436 226.572 232.017 226.639 231.638 226.666C238.151 220.964 240.408 212.222 243.016 203.885Z"
            fill="#F2CE95" />
        <path
            d="M306.848 171.023C311.563 163.064 320.684 152.808 322.089 143.079C327.346 157.983 327.224 173.455 317.617 186.872C312.239 194.385 305.145 199.533 296.619 202.898C292.754 204.411 289.038 205.587 285.458 207.195C292.592 195.142 299.713 183.075 306.848 171.023Z"
            fill="#F2CE95" />
        <path
            d="M347.53 172.608C357.529 160.042 365.893 146.516 372.839 132.031C376.433 144.84 372.649 158.109 361.299 165.919C359.07 167.446 351.827 172.23 347.53 172.608Z"
            fill="#F2CE95" />
        <g style="mix-blend-mode:multiply" opacity="0.3">
            <path
                d="M329.573 92.7037C335.127 96.0142 341.423 97.2033 347.882 99.4193C360.368 103.716 368.88 113.148 371.691 125.741C364.651 121.323 357.665 116.796 350.787 112.134C342.667 106.635 334.343 101.446 329.573 92.7037Z"
                fill="#BF9561" />
        </g>
        <g style="mix-blend-mode:multiply" opacity="0.3">
            <path
                d="M249.093 94.8724C258.403 97.237 268.131 97.1559 277.468 100.088C294.305 105.385 304.628 120.816 313.316 135.341C300.831 129.964 288.9 123.545 277.63 115.87C268.375 109.56 259.673 99.3179 249.093 94.8724Z"
                fill="#BF9561" />
        </g>
        <g style="mix-blend-mode:multiply" opacity="0.3">
            <path
                d="M254.083 155.118C232.234 146.998 208.668 140.106 193.008 122.23C200.872 125.202 210.006 124.797 218.83 126.459C234.909 129.486 247.489 140.498 254.083 155.118Z"
                fill="#BF9561" />
        </g>
        <g style="mix-blend-mode:multiply" opacity="0.3">
            <path
                d="M134.723 149.224C146.208 149.115 158.369 148.494 168.841 152.372C182.124 157.277 193.853 166.519 201.163 178.64C188.488 176.37 176.233 172.654 164.531 167.168C153.937 162.195 144.844 154.858 134.723 149.224Z"
                fill="#BF9561" />
        </g>
        <g style="mix-blend-mode:multiply" opacity="0.3">
            <path
                d="M96.7949 236.092C104.848 232.336 112.847 228.444 120.806 224.485C131.751 217.324 142.966 210.703 154.438 204.582C141.764 203.149 127.414 202.555 117.536 210.351C109.456 216.729 103.037 227.201 96.7813 236.106L96.7949 236.092Z"
                fill="#BF9561" />
        </g>
        <g style="mix-blend-mode:multiply" opacity="0.3">
            <path
                d="M369.904 134.045C370.228 133.207 370.363 132.478 370.025 132.113C369.985 132.072 369.931 132.072 369.863 132.059C369.701 132.086 369.539 132.113 369.377 132.14C367.971 132.572 364.742 134.531 363.283 135.45C365.485 134.977 367.701 134.518 369.904 134.045Z"
                fill="#BF9561" />
        </g>
        <g style="mix-blend-mode:multiply" opacity="0.3">
            <path
                d="M327.747 93.832C331.571 100.818 337.516 105.547 344.029 110.114C352.96 116.424 362.122 122.397 371.337 128.288C370.743 128.396 370.121 128.504 369.513 128.599C369.391 128.504 369.243 128.437 369.04 128.423C349.15 127.126 332.233 112.965 327.76 93.8185L327.747 93.832Z"
                fill="#F2CE95" />
        </g>
        <g style="mix-blend-mode:multiply" opacity="0.3">
            <path
                d="M246.013 96.2211C253.85 98.8154 259.715 105.409 266.133 110.395C270.443 113.733 274.875 116.895 279.442 119.895C289.82 126.732 302.697 134.177 314.426 139.447C298.711 141.568 281.983 142.946 268.889 132.123C257.918 123.07 252.337 108.923 246.013 96.2211Z"
                fill="#F2CE95" />
        </g>
        <g style="mix-blend-mode:multiply" opacity="0.3">
            <path
                d="M186.859 118.894C187.102 119.057 187.318 119.246 187.561 119.408C203.965 141.595 230.571 148.662 255.122 158.296C253.541 158.823 251.961 159.35 250.366 159.89C236.989 160.728 222.882 161.107 211.073 153.783C198.749 146.162 192.115 132.15 186.859 118.894Z"
                fill="#F2CE95" />
        </g>
        <g style="mix-blend-mode:multiply" opacity="0.3">
            <path
                d="M129.44 149.211L129.602 149.211C142.331 155.454 153.195 164.723 166.275 170.56C176.22 174.992 186.583 178.195 197.218 180.37C184.827 184.086 171.125 186.221 159.262 179.951C147.033 173.479 138.088 160.048 129.44 149.211Z"
                fill="#F2CE95" />
        </g>
        <g style="mix-blend-mode:multiply" opacity="0.3">
            <path
                d="M101.203 237.975C102.081 237.367 102.959 236.759 103.851 236.164C105.459 234.989 107.081 233.854 108.702 232.719C104.919 234.502 101.149 236.3 97.3383 238.056C98.622 237.989 99.9057 237.975 101.189 237.989L101.203 237.975Z"
                fill="#F2CE95" />
        </g>
        <path
            d="M246.699 224.582C260.563 215.772 278.466 200.787 292.952 214.921C288.479 223.258 283.088 231.406 272.291 231.014C263.86 230.717 254.631 227.785 246.699 224.582Z"
            fill="#E4861F" />
        <path
            d="M252.862 267.328C246.092 265.288 239.877 262.288 232.999 261.005C248.052 252.276 265.185 250.924 281.616 256.573C280.103 257.41 278.67 258.572 277.103 259.194C273.954 260.451 270.495 260.991 267.104 260.869C266.428 260.842 266.266 261.923 266.942 262.058C270.509 262.815 273.927 262.748 277.414 261.64C278.94 261.167 280.967 260.464 282.562 259.383C274.981 267.72 264.32 270.787 252.862 267.328Z"
            fill="#E4861F" />
        <path
            d="M301.545 208.998C301.545 208.728 301.559 208.471 301.559 208.201C307.018 213.363 313.787 216.862 321.3 217.7C321.868 217.754 321.962 216.876 321.435 216.727C314.45 214.876 308.396 211.822 303.167 206.782C313.815 204.62 326.273 204.566 332.542 215.025C336.245 221.213 338.812 228.402 341.596 235.185C326.773 228.821 306.14 227.78 301.37 209.931C301.37 209.931 301.383 209.863 301.383 209.836C301.505 209.525 301.532 209.336 301.545 208.998Z"
            fill="#E4861F" />
        <path
            d="M196.677 322.648C203.649 315.135 213.067 310.474 223.526 310.555C235.308 310.636 244.605 313.5 251.212 324.54C247.875 324.797 244.686 324.959 241.308 324.337C237.781 323.702 234.511 322.405 231.187 321.108C230.674 320.892 230.255 321.689 230.647 322.027C235.579 326.391 243.267 328.431 249.996 327.567C240.835 333.999 229.957 334.715 218.769 330.31C211.351 327.378 204.554 323.797 196.677 322.648Z"
            fill="#E4861F" />
        <path
            d="M240.562 300.331C231.752 297.844 224.51 291.899 215.997 288.656C233.603 282.454 251.886 278.333 267.357 290.994C265.627 291.102 263.898 291.102 262.182 290.953C258.358 290.615 254.804 289.521 251.102 288.548C250.548 288.399 250.359 289.102 250.751 289.413C253.885 291.764 257.831 293.007 261.682 293.507C263.938 293.791 267.235 294.223 269.857 293.601C261.722 300.304 251.21 303.33 240.562 300.331Z"
            fill="#E4861F" />
        <path
            d="M167.558 356.961C168.153 355.124 177.436 351.489 179.381 350.57C184.111 348.327 189.097 347.016 194.353 347.435C204.933 348.286 213.689 354.718 218.513 363.947C218.31 364.15 218.108 364.352 217.878 364.528C217.783 364.515 217.716 364.474 217.621 364.488C208.649 364.704 200.947 361.92 193.245 357.515C192.61 357.15 191.921 358.029 192.461 358.542C198.299 364.136 206.23 366.879 214.216 367.298C205.42 372.095 196.447 374.149 186.34 370.149C182.611 368.69 166.383 360.569 167.558 356.961Z"
            fill="#E4861F" />
        <path
            d="M293.029 244.81L293.083 244.81C295.759 251.837 300.353 257.944 306.893 261.809C307.298 262.052 307.798 261.444 307.42 261.12C302.083 256.62 298.002 251.485 295.489 245.027C306.42 246.256 316.351 251.539 321.162 262.268C323.837 268.241 324.31 274.686 327.175 280.253C313.595 273.618 291.192 267.457 291.124 251.715C291.786 249.432 292.421 247.121 293.029 244.81Z"
            fill="#E4861F" />
        <path
            d="M146.7 413.082C150.956 403.232 156.618 393.327 166.239 387.976C175.157 383.004 185.48 383.463 195.344 384.058C192.331 386.45 189.304 388.855 186.196 391.206C185.521 391.719 186.075 392.841 186.872 392.395C190.952 390.206 194.912 387.787 198.803 385.22C192.56 397.786 185.412 409.285 169.468 410.501C161.563 411.109 153.983 410.177 146.7 413.082Z"
            fill="#E4861F" />
        <path
            d="M280.535 283.895C282.926 290.773 287.21 296.867 293.263 301.002C293.696 301.299 294.196 300.637 293.817 300.286C288.507 295.03 284.656 289.368 282.345 282.22C293.628 283.882 303.425 289.544 306.83 301.326C308.708 307.853 308.519 314.609 310.14 321.122C296.722 312.109 270.671 302.786 280.535 283.895Z"
            fill="#E4861F" />
        <path
            d="M217.555 372.578C217.555 372.578 219.365 370.443 220.676 368.673C216.866 377.375 217.933 389.388 219.744 398.143C219.811 398.427 220.271 398.373 220.244 398.076C219.73 392.86 219.717 387.604 220.298 382.375C220.784 377.862 222.216 373.484 222.933 369.038C231.743 377.227 235.418 388.82 229.297 400.265C225.338 407.683 219.406 413.561 216.028 421.236C212.312 413.169 208.731 404.67 208.393 395.711C208.191 390.077 209.528 384.604 212.366 379.713C213.825 377.172 215.69 374.821 217.555 372.578Z"
            fill="#E4861F" />
        <path
            d="M278.037 333.904C273.01 327.121 269.483 320.108 268.105 311.758C290.522 315.906 290.4 338.512 291.035 357.551C286.806 352.727 280.604 350.902 275.023 347.106C264.119 339.66 261.079 325.459 266.038 313.744C267.632 321.608 271.159 329.08 276.983 334.715C277.496 335.228 278.51 334.539 278.037 333.904Z"
            fill="#E4861F" />
        <path
            d="M247.604 342.937C247.793 345.153 248.374 347.437 248.847 349.423C249.59 352.544 250.414 356.666 252.725 359.03C252.833 359.138 252.995 359.057 252.995 358.922C253.117 355.801 251.63 352.504 251.036 349.45C250.536 346.869 250.522 344.072 250.076 341.437C258.522 346.91 263.832 356.436 261.67 366.921C260.116 374.448 255.616 380.461 254.644 387.919C244.712 375.096 234.794 357.071 247.604 342.937Z"
            fill="#E4861F" />
        <g style="mix-blend-mode:multiply" opacity="0.3">
            <path
                d="M301.545 208.998C301.545 208.728 301.559 208.471 301.559 208.201C307.018 213.363 313.787 216.862 321.3 217.7C321.868 217.754 321.962 216.876 321.435 216.727C314.45 214.876 308.396 211.822 303.167 206.782C313.815 204.62 326.273 204.566 332.542 215.025C336.245 221.213 338.812 228.402 341.596 235.185C326.773 228.821 306.14 227.78 301.37 209.931C301.37 209.931 301.383 209.863 301.383 209.836C301.505 209.525 301.532 209.336 301.545 208.998Z"
                fill="#E4861F" />
        </g>
        <g style="mix-blend-mode:multiply" opacity="0.3">
            <path
                d="M293.029 244.81L293.083 244.81C295.759 251.837 300.353 257.944 306.893 261.809C307.298 262.052 307.798 261.444 307.42 261.12C302.083 256.62 298.002 251.485 295.489 245.027C306.42 246.256 316.351 251.539 321.162 262.268C323.837 268.241 324.31 274.686 327.175 280.253C313.595 273.618 291.192 267.457 291.124 251.715C291.786 249.432 292.421 247.121 293.029 244.81Z"
                fill="#E4861F" />
        </g>
        <g style="mix-blend-mode:multiply" opacity="0.3">
            <path
                d="M186.07 392.308C176.679 399.213 166.774 405.496 156.397 411.063C160.653 410.725 165.004 410.86 169.45 410.522C185.394 409.306 192.542 397.807 198.785 385.241C194.893 387.808 190.934 390.227 186.854 392.416C186.529 392.605 186.245 392.51 186.07 392.308Z"
                fill="#E4861F" />
        </g>
        <g style="mix-blend-mode:multiply" opacity="0.3">
            <path
                d="M280.535 283.895C282.926 290.773 287.21 296.867 293.263 301.002C293.696 301.299 294.196 300.637 293.817 300.286C288.507 295.03 284.656 289.368 282.345 282.22C293.628 283.882 303.425 289.544 306.83 301.326C308.708 307.853 308.519 314.609 310.14 321.122C296.722 312.109 270.671 302.786 280.535 283.895Z"
                fill="#E4861F" />
        </g>
        <g style="mix-blend-mode:multiply" opacity="0.3">
            <path
                d="M217.555 372.578C217.555 372.578 219.365 370.443 220.676 368.673C216.866 377.375 217.933 389.388 219.744 398.143C219.811 398.427 220.271 398.373 220.244 398.076C219.73 392.86 219.717 387.604 220.298 382.375C220.784 377.862 222.216 373.484 222.933 369.038C231.743 377.227 235.418 388.82 229.297 400.265C225.338 407.683 219.406 413.561 216.028 421.236C212.312 413.169 208.731 404.67 208.393 395.711C208.191 390.077 209.528 384.604 212.366 379.713C213.825 377.172 215.69 374.821 217.555 372.578Z"
                fill="#E4861F" />
        </g>
        <g style="mix-blend-mode:multiply" opacity="0.3">
            <path
                d="M278.037 333.904C273.01 327.121 269.483 320.108 268.105 311.758C290.522 315.906 290.4 338.512 291.035 357.551C286.806 352.727 280.604 350.902 275.023 347.106C264.119 339.66 261.079 325.459 266.038 313.744C267.632 321.608 271.159 329.08 276.983 334.715C277.496 335.228 278.51 334.539 278.037 333.904Z"
                fill="#E4861F" />
        </g>
        <g style="mix-blend-mode:multiply" opacity="0.3">
            <path
                d="M247.604 342.937C247.793 345.153 248.374 347.437 248.847 349.423C249.59 352.544 250.414 356.666 252.725 359.03C252.833 359.138 252.995 359.057 252.995 358.922C253.117 355.801 251.63 352.504 251.036 349.45C250.536 346.869 250.522 344.072 250.076 341.437C258.522 346.91 263.832 356.436 261.67 366.921C260.116 374.448 255.616 380.461 254.644 387.919C244.712 375.096 234.794 357.071 247.604 342.937Z"
                fill="#E4861F" />
        </g>
        <path
            d="M201.08 379.39C200.19 380.044 199.999 381.296 200.653 382.186C201.307 383.076 202.559 383.267 203.449 382.612L201.08 379.39ZM296.217 188.043C297.043 227.059 287.934 315.538 201.08 379.39L203.449 382.612C291.794 317.664 301.056 227.61 300.216 187.959L296.217 188.043Z"
            fill="#DD7317" />
    </g>
    <defs>
        <clipPath id="clip0_2396_24343">
            <rect width="271.14" height="385.432" fill="white"
                transform="translate(191.725 464.267) rotate(-135)" />
        </clipPath>
    </defs>
</svg>
