<svg width="889" height="1472" viewBox="0 0 889 1472" fill="none" xmlns="http://www.w3.org/2000/svg">
<g clip-path="url(#clip0_4187_1524)">
<path d="M120.449 617.271C84.4959 530.528 209.284 485.635 225.073 480.309C208.333 480.309 75.9357 476.885 82.7839 383.294C90.0124 285.137 312.196 306.442 444.403 444.737H444.784C444.784 444.737 444.784 444.927 444.784 445.117C444.784 445.117 444.784 445.117 444.974 445.307H444.593C362.606 618.223 158.304 708.199 120.639 617.462L120.449 617.271Z" fill="#52966D"/>
<mask id="mask0_4187_1524" style="mask-type:luminance" maskUnits="userSpaceOnUse" x="82" y="322" width="363" height="332">
<path d="M120.452 617.295C84.4998 530.552 209.288 485.658 225.077 480.332C208.337 480.332 75.9396 476.908 82.7878 383.317C90.0164 285.16 312.2 306.466 444.407 444.76H444.788C444.788 444.76 444.788 444.95 444.788 445.14C444.788 445.14 444.788 445.14 444.978 445.331H444.597C362.61 618.246 158.307 708.223 120.643 617.485L120.452 617.295Z" fill="white"/>
</mask>
<g mask="url(#mask0_4187_1524)">
<path d="M224.311 480.497L458.099 442.832L368.122 325.653L114.931 273.531L0.605469 338.398C0.605469 338.398 33.7048 441.12 35.7973 441.501C37.8897 441.881 96.6695 481.448 96.6695 481.448L224.121 480.497H224.311Z" fill="#A8FA9D"/>
</g>
<path d="M769.119 272.61C805.072 359.353 680.284 404.246 664.495 409.573C681.235 409.573 813.632 412.997 806.784 506.588C799.555 604.744 577.371 583.439 445.164 445.145H444.784C444.784 445.145 444.784 444.955 444.784 444.764C444.784 444.764 444.784 444.764 444.594 444.574H444.974C526.962 271.659 731.264 181.682 768.929 272.42L769.119 272.61Z" fill="#52966D"/>
<mask id="mask1_4187_1524" style="mask-type:luminance" maskUnits="userSpaceOnUse" x="444" y="236" width="364" height="332">
<path d="M769.119 272.614C805.072 359.357 680.284 404.25 664.495 409.576C681.235 409.576 813.632 413.001 806.784 506.592C799.555 604.748 577.371 583.443 445.164 445.149H444.784C444.784 445.149 444.784 444.958 444.784 444.768C444.784 444.768 444.784 444.768 444.594 444.578H444.974C526.962 271.663 731.264 181.686 768.929 272.424L769.119 272.614Z" fill="white"/>
</mask>
<g mask="url(#mask1_4187_1524)">
<path d="M665.244 409.578L430.506 447.243L521.244 566.705L774.434 618.827L888.76 553.96C888.76 553.96 855.661 451.238 853.568 450.857C851.476 450.477 792.696 410.91 792.696 410.91L665.435 409.578H665.244Z" fill="#A8FA9D"/>
</g>
<path d="M272.439 120.644C359.182 84.6912 404.075 209.479 409.401 225.268C409.401 208.528 412.825 76.131 506.416 82.9792C604.573 90.2078 583.268 312.392 444.973 444.598V444.979C444.973 444.979 444.783 444.979 444.593 444.979C444.593 444.979 444.593 444.979 444.403 445.169V444.789C271.487 362.611 181.511 158.309 272.439 120.644Z" fill="#52966D"/>
<mask id="mask2_4187_1524" style="mask-type:luminance" maskUnits="userSpaceOnUse" x="236" y="82" width="332" height="364">
<path d="M272.439 120.656C359.182 84.7029 404.075 209.491 409.401 225.28C409.401 208.54 412.825 76.1428 506.416 82.9909C604.573 90.2195 583.268 312.403 444.973 444.61V444.991C444.973 444.991 444.783 444.991 444.593 444.991C444.593 444.991 444.593 444.991 444.403 445.181V444.8C271.487 362.623 181.511 158.32 272.439 120.656Z" fill="white"/>
</mask>
<g mask="url(#mask2_4187_1524)">
<path d="M409.207 224.542L446.872 458.329L564.051 368.352L616.173 115.162L551.306 0.835938C551.306 0.835938 448.584 33.9352 448.203 36.0277C447.823 38.1202 408.256 96.9 408.256 96.9L409.207 224.351V224.542Z" fill="#A8FA9D"/>
</g>
<path d="M617.127 769.357C530.384 805.31 485.491 680.712 480.164 664.733C480.164 681.473 476.74 813.87 383.149 807.022C284.993 799.793 306.298 577.61 444.592 445.403V445.022C444.592 445.022 444.782 445.022 444.972 445.022C444.972 445.022 444.972 445.022 445.163 444.832V445.212C618.078 527.2 708.055 731.502 617.317 769.167L617.127 769.357Z" fill="#52966D"/>
<mask id="mask3_4187_1524" style="mask-type:luminance" maskUnits="userSpaceOnUse" x="322" y="444" width="332" height="364">
<path d="M617.129 769.385C530.386 805.337 485.492 680.739 480.166 664.76C480.166 681.5 476.742 813.897 383.151 807.049C284.994 799.821 306.3 577.637 444.594 445.43V445.05C444.594 445.05 444.784 445.05 444.974 445.05C444.974 445.05 444.974 445.05 445.165 444.859V445.24C618.08 527.227 708.057 731.53 617.319 769.194L617.129 769.385Z" fill="white"/>
</mask>
<g mask="url(#mask3_4187_1524)">
<path d="M480.935 666.7L442.509 430.82L323.048 521.558L270.926 774.749L335.793 889.074C335.793 889.074 438.515 855.975 438.895 853.883C439.276 851.79 478.843 793.01 478.843 793.01L480.745 666.891L480.935 666.7Z" fill="#A8FA9D"/>
</g>
<path d="M455.816 452.954L468.941 594.862L436.793 455.997L294.885 469.123L433.75 436.975L420.624 295.066L452.772 433.931L594.681 420.806L455.816 452.954Z" fill="#41821F"/>
<path d="M409.205 466.637C420.999 487.181 447.25 494.219 467.795 482.425C488.339 470.631 495.378 444.38 483.584 423.836C471.79 403.291 445.538 396.253 424.994 408.047C404.45 419.841 397.411 446.092 409.205 466.637Z" fill="white"/>
<path d="M404.068 1421.97C417.764 1350.83 429.368 1277.59 439.45 1204.93C449.342 1132.07 458.282 1059.02 464.369 985.595C470.266 912.168 475.212 838.741 475.593 764.933C475.973 691.316 473.5 617.508 463.989 543.891C480.348 616.176 489.669 689.984 496.137 764.172C502.415 838.36 504.507 912.739 505.268 987.117C505.839 1061.5 503.936 1136.06 500.512 1210.44C497.088 1285.01 492.333 1359.01 484.914 1434.15C482.631 1456.78 462.657 1473.33 440.021 1471.05C417.384 1468.77 400.834 1448.79 403.117 1426.16C403.117 1424.83 403.497 1423.69 403.687 1422.54V1421.97H404.068Z" fill="#52966D"/>
<g clip-path="url(#clip1_4187_1524)">
<path d="M472.047 1215.97C446.845 1212.94 424.74 1203.82 403.944 1193.06C393.539 1187.6 383.558 1181.45 374.015 1174.78C364.326 1168.29 355.427 1160.68 347.485 1152.01C331.593 1134.6 319.827 1112.72 303.992 1095.95C288.222 1079.02 269.895 1065.13 250.009 1051.86C245.041 1048.59 240.066 1045.23 235.317 1041.69C230.489 1038.16 225.587 1034.72 221.13 1030.83C216.593 1026.95 212.137 1023.07 207.899 1018.92C203.662 1014.77 199.65 1010.44 195.479 1006.13C179.194 988.836 163.086 970.801 151.23 949.729C139.382 928.738 129.816 906.174 124.091 882.305C118.532 858.502 115.954 833.712 120.012 809.146C120.272 807.509 121.79 806.407 123.426 806.667C124.248 806.837 124.931 807.262 125.388 807.867C139.729 827.833 151.854 846.46 164.344 864.651L201.557 918.118C213.539 936.031 224.783 954.735 236.661 973.303C242.643 982.624 249.078 991.582 254.849 1001.24C260.772 1010.81 266.184 1020.99 272.129 1030.8C283.646 1050.77 298.131 1068.7 316.13 1082.54C333.991 1096.63 357.031 1104.45 376.661 1115.72C386.513 1121.31 395.561 1127.86 404.032 1135.19C412.721 1142.25 421.046 1149.76 429.238 1157.59C445.55 1173.35 461.299 1190.04 474.989 1210.87L474.996 1210.95C475.923 1212.33 475.605 1214.21 474.153 1215.14C473.541 1215.52 472.834 1215.74 472.099 1215.65L472.047 1215.97Z" fill="#52966D"/>
</g>
<path d="M446.363 1451.4C451.589 1426.56 462.602 1405.34 475.143 1385.56C481.494 1375.67 488.488 1366.27 495.964 1357.34C503.28 1348.26 511.641 1340.06 520.966 1332.9C539.697 1318.6 562.528 1308.79 580.616 1294.48C598.864 1280.25 614.299 1263.21 629.252 1244.56C632.95 1239.89 636.728 1235.23 640.668 1230.81C644.607 1226.31 648.465 1221.72 652.726 1217.62C656.987 1213.44 661.248 1209.34 665.749 1205.49C670.251 1201.63 674.914 1198.01 679.577 1194.23C698.227 1179.52 717.601 1165.05 739.628 1155.08C761.575 1145.11 784.888 1137.56 809.166 1133.94C833.364 1130.48 858.285 1130.08 882.402 1136.27C884.01 1136.67 884.975 1138.28 884.573 1139.89C884.332 1140.69 883.849 1141.33 883.206 1141.74C862.063 1154.28 842.448 1164.73 823.235 1175.58L766.72 1207.98C747.828 1218.35 728.213 1227.91 708.678 1238.12C698.87 1243.27 689.384 1248.9 679.255 1253.8C669.206 1258.86 658.595 1263.37 648.305 1268.43C627.403 1278.16 608.27 1291.02 592.915 1307.74C577.32 1324.3 567.512 1346.57 554.569 1365.14C548.138 1374.47 540.822 1382.91 532.783 1390.71C524.985 1398.74 516.786 1406.38 508.264 1413.86C491.141 1428.73 473.133 1442.96 451.187 1454.78H451.106C449.659 1455.58 447.81 1455.1 447.006 1453.57C446.685 1452.93 446.524 1452.2 446.685 1451.48L446.363 1451.4Z" fill="#52966D"/>
</g>
<defs>
<clipPath id="clip0_4187_1524">
<rect width="887.974" height="1470.45" fill="white" transform="translate(0.597656 0.777344)"/>
</clipPath>
<clipPath id="clip1_4187_1524">
<rect width="438.21" height="323.653" fill="white" transform="translate(153.229 1243.95) rotate(-95.014)"/>
</clipPath>
</defs>
</svg>
