<svg width="343" height="383" viewBox="0 0 343 383" fill="none" xmlns="http://www.w3.org/2000/svg">
    <path
        d="M169.382 381.331C174.143 383.125 180.219 383.019 185.371 382.024C207.348 377.778 227.85 366.23 242.862 349.636C257.874 333.043 267.344 311.492 269.387 289.214C284.719 294.117 300.957 284.328 312.025 272.638C324.87 259.047 334.304 242.258 339.207 224.208C341.943 214.117 343.276 203.457 341.215 193.206C339.136 182.973 333.309 173.184 324.266 167.943C322.863 167.125 321.264 166.415 319.683 166.734C318.279 167.019 317.16 168.067 316.165 169.115C302.272 183.808 299.127 205.482 289.125 223.035C287.615 225.7 285.376 228.578 282.321 228.507C277.524 228.4 276.227 221.792 276.991 217.048C278.927 204.967 285.145 191.358 292.785 181.818C295.912 177.909 323.484 152.326 317.799 146.25C315.348 143.639 312.807 141.116 310.231 138.646C301.65 130.492 292.465 123.012 282.8 116.208C278.838 127.685 270.186 137.545 260.593 145.291C243.004 159.504 227.263 171.549 216.462 192.247C211.398 183.168 215.396 171.904 219.482 162.329C224.652 150.248 230.142 137.776 239.948 129.035C245.882 123.758 253.22 120.01 258.23 113.863C259.918 111.784 261.374 109.155 260.824 106.543C260.486 104.944 259.438 103.612 258.336 102.404C251.798 95.2616 243.377 93.1119 234.743 89.914C224.687 86.2009 214.845 82.3635 204.452 79.6275C196.12 77.4245 187.681 75.7012 179.224 74.1022C173.77 73.0718 165.669 69.3409 160.268 71.5439C156.714 73.0007 154.707 76.7672 153.676 80.4625C151.242 89.2745 152.948 98.6194 153.499 107.751C154.05 116.883 153.055 126.956 146.623 133.459C148.453 122.55 146.623 111.073 141.507 101.284C137.598 93.8048 131.611 86.0766 133.636 77.8864C134.631 73.8358 137.492 70.5313 139.286 66.7649C141.08 62.9985 141.524 57.8996 138.344 55.1814C137.012 54.0444 135.289 53.5469 133.601 53.085C123.687 50.2957 113.792 47.5242 103.878 44.7349C99.4367 43.4913 93.9647 42.4964 90.8201 45.872C88.0486 48.8567 88.7593 53.6002 89.9673 57.4732C92.9165 66.9958 97.8199 77.3357 93.6094 86.3786C88.4217 78.0996 81.4041 64.473 80.8178 54.5596C80.5513 49.9937 81.7772 45.41 81.1731 40.8797C79.9473 31.5525 71.5439 25.0146 63.5314 20.0756C50.2957 11.9388 36.2072 5.18769 21.568 0C24.304 9.11399 23.7355 19.1873 20.0046 27.946C17.8549 33.0093 14.6748 37.6996 13.5555 43.0827C12.0454 50.3668 14.6037 58.024 18.8143 64.1355C21.7812 68.4526 44.4862 86.272 42.1233 91.282C32.6185 88.7592 24.2507 85.8279 15.794 80.9422C15.19 91.7972 10.8728 102.102 9.57591 112.903C8.27899 123.687 11.0683 136.301 20.5909 141.542C25.139 144.029 30.4688 144.438 35.5854 145.309C46.0141 147.067 56.0697 150.94 64.9883 156.608C48.377 162.329 29.9891 162.737 13.1469 157.763C10.7129 157.034 7.7993 156.306 5.8628 157.94C4.74354 158.882 4.28162 160.392 3.90853 161.813C1.33245 171.46 0.0177661 181.463 0 191.465C0 197.825 0.710642 204.736 5.08109 209.338C10.784 215.342 28.4435 218.54 36.7047 218.043C50.2424 217.226 61.9858 209 74.4576 204.612C91.282 198.696 110.292 199.175 126.796 205.944C121.786 203.883 105.406 211.061 100.13 212.571C90.3404 215.36 80.6579 218.54 71.1175 222.076C53.9555 228.454 35.7453 234.352 19.2584 242.098C14.9768 244.106 10.3931 246.842 9.09622 251.39C8.29675 254.215 8.9008 257.217 9.62921 260.06C12.756 272.336 17.8194 284.115 24.5882 294.828C29.2785 302.272 35.6565 309.734 44.3619 311.013C51.7703 312.114 59.1432 308.348 64.7573 303.373C70.3714 298.399 74.7418 292.198 80.0716 286.94C90.9267 276.209 105.371 269.724 120.152 265.869C113.294 284.719 97.891 301.614 81.8127 313.322C77.7088 316.307 73.3561 319.078 70.0871 322.969C66.8182 326.842 64.7395 332.154 66.1253 337.04C67.0314 340.22 69.2521 342.832 71.5439 345.212C83.9446 358.182 99.863 367.775 117.132 372.661C123.883 374.58 131.433 375.699 137.651 372.448C145.309 368.45 148.4 359.336 151.847 351.413C157.23 338.994 165.597 327.215 177.767 321.299C170.963 324.604 170.625 339.136 168.955 345.745C166.841 354.166 158.758 365.981 162.222 374.686C163.537 377.991 166.148 380.087 169.364 381.313L169.382 381.331ZM112.015 230.284C113.099 231.794 113.632 233.801 113.436 236.449C113.347 237.692 112.886 238.882 112.335 240.002C109.172 246.593 103.185 251.55 96.5053 254.552C89.843 257.555 82.4878 258.763 75.2038 259.313C72.5388 259.509 69.6963 259.58 67.44 258.159C64.0822 256.062 63.3005 251.283 64.5796 247.552C67.5466 238.9 75.6834 232.007 84.1401 229.147C90.3227 227.05 106.987 223.231 112.015 230.301V230.284ZM50.4379 191.856C42.7096 193.135 32.352 191.714 28.5678 191.394C24.6593 191.074 10.4464 187.29 16.4158 180.326C17.9615 178.513 21.5858 179.064 23.6999 178.673C27.9816 177.874 32.05 176.47 36.4027 175.955C42.2832 175.262 48.3948 175.6 53.8667 177.874C56.6204 179.011 59.463 181.089 59.6051 184.074C59.8539 188.818 55.7677 190.985 50.4201 191.873L50.4379 191.856ZM187.894 121.804C174.427 110.345 203.333 91.7262 206.157 102.048C207.65 107.502 202.888 118.926 198.323 121.857C195.178 123.865 190.719 124.238 187.894 121.822V121.804ZM108.799 114.84C106.952 109.03 108.142 98.9214 112.175 94.2134C112.992 93.2718 113.987 92.4191 115.177 92.0637C117.096 91.4952 119.228 92.348 120.667 93.7515C122.106 95.155 123.03 96.9849 123.865 98.8148C126.192 103.86 128.307 109.119 128.733 114.644C129.124 119.85 128.04 128.431 121.129 128.076C115.302 127.774 110.345 119.726 108.782 114.84H108.799ZM239.238 209.711C236.857 211.558 233.855 212.571 231.172 211.416C228.845 210.403 227.37 207.934 226.997 205.411C226.624 202.888 227.192 200.33 227.956 197.914C231.741 186.082 241.121 176.293 252.527 171.514C255.529 170.252 264.963 165.757 266.331 169.257C268.285 174.285 258.283 183.257 255.494 186.384C249.613 192.957 246.913 200.845 241.423 207.561C240.783 208.343 240.037 209.071 239.22 209.711H239.238ZM45.3035 123.954C41.1995 123.172 26.1694 116.794 37.6285 112.69C41.3239 111.358 53.7956 118.429 49.9759 123.066C48.91 124.362 46.9379 124.274 45.2857 123.954H45.3035ZM206.335 319.878C208.929 314.939 208.982 310.444 213.726 306.642C217.314 303.764 221.276 301.348 225.469 299.465C226.73 298.896 228.134 298.381 229.449 298.772C230.763 299.163 231.652 300.389 232.327 301.579C236.91 309.787 235.649 320.304 231.119 328.548C230.213 330.218 229.147 331.835 227.708 333.078C226.428 334.18 224.901 334.961 223.355 335.601C218.665 337.537 209.302 341.588 205.767 336.205C203.226 332.314 204.292 323.786 206.335 319.896V319.878Z"
        fill="#455A64" />
    <path
        d="M173.468 264.678C186.17 255.44 200.916 249.169 216.373 246.415C213.335 244.034 210.279 241.689 207.223 239.379C192.637 228.364 177.607 217.865 162.826 207.063C161.991 207.329 161.031 207.116 160.498 206.068C160.321 205.73 160.196 205.375 160.054 205.02C152.912 199.761 145.841 194.431 138.913 188.924C138.326 189.457 137.474 189.634 136.585 189.101C123.723 181.355 108.213 183.612 94.1243 185.726C92.934 185.904 91.9036 184.66 91.868 183.576C91.8147 182.262 92.8452 181.498 94.0177 181.32C105.672 179.561 118.162 177.962 129.55 181.284C121.875 174.853 114.431 168.155 107.342 161.049C100.307 153.996 93.6446 146.534 87.5331 138.646C86.6093 138.486 85.7387 137.829 85.6499 136.621C85.6499 136.461 85.6499 136.301 85.6144 136.141C81.7236 130.971 78.0816 125.623 74.7238 120.08C74.4573 120.116 74.1908 120.116 73.9243 120.045C72.1655 119.601 70.3711 119.263 68.5589 119.05C68.5234 119.05 68.4879 119.05 68.4701 119.05C68.3813 119.05 68.328 119.05 68.2569 119.032C68.097 119.032 67.8661 118.997 67.6529 118.979C67.2087 118.943 66.7646 118.926 66.3382 118.89C65.3966 118.854 64.4728 118.837 63.5312 118.872C62.3764 118.908 61.2571 117.913 61.2749 116.723C61.2926 115.532 62.1987 114.502 63.4246 114.466C66.2494 114.395 69.0742 114.608 71.8634 115.106C69.9092 111.606 68.0615 108.053 66.356 104.411C65.1656 101.87 68.932 99.5783 70.1401 102.154C74.4573 111.375 79.5917 120.027 85.3479 128.235C85.3479 121.271 85.9164 114.324 87.1245 107.466C87.6042 104.677 91.8858 105.708 91.4061 108.479C89.9138 117.078 89.4518 125.801 89.9493 134.506C107.627 157.691 130.296 177.109 153.499 194.716C155.204 196.012 156.927 197.292 158.651 198.571C158.402 195.515 158.562 192.353 158.562 189.475C158.58 183.736 158.882 177.998 159.432 172.295C160.569 160.676 162.772 149.217 166.077 138.006C166.876 135.288 171.158 136.301 170.358 139.019C167.232 149.643 165.029 160.534 163.909 171.549C163.341 177.038 163.039 182.564 162.986 188.089C162.95 190.843 162.986 193.614 163.092 196.368C163.163 198.34 163.163 200.401 163.75 202.302C187.254 219.588 211.487 235.986 233.748 254.8C238.491 233.161 248.263 212.766 262.049 195.444C266.1 190.363 270.488 185.584 275.196 181.107C277.239 179.152 280.437 182.19 278.376 184.145C262.387 199.37 250.022 218.344 242.702 239.202C240.623 245.136 238.953 251.194 237.674 257.341C237.621 257.59 237.532 257.785 237.425 257.98C243.004 262.813 248.44 267.787 253.699 273.011C270.399 289.569 285.074 308.312 295.236 329.613C296.444 332.136 292.678 334.446 291.452 331.87C275.587 298.647 249.222 272.584 220.743 249.844C220.494 250.039 220.192 250.181 219.801 250.234C203.865 252.722 188.782 258.94 175.742 268.427C173.45 270.097 171.194 266.313 173.485 264.643L173.468 264.678Z"
        fill="#89B28B" />
</svg>
