<svg width="657" height="822" viewBox="0 0 657 822" fill="none" xmlns="http://www.w3.org/2000/svg">
<path d="M494.638 697.289C487.75 674.474 472.25 655.328 456.521 637.443C414.729 590.093 367.656 546.412 312.547 515.571C257.437 484.731 193.372 467.304 130.57 474.412C160.307 542.284 220.812 588.602 288.092 619.901C355.372 651.201 426.67 667.71 494.638 697.289Z" fill="#256146"/>
<path d="M500.497 707.255C515.308 663.115 543.896 625.052 565.021 583.664C595.102 524.849 610.372 458.697 609.109 392.659C608.535 361.016 603.828 328.456 587.295 301.398C565.366 330.175 532.185 342.787 509.108 370.646C471.679 415.818 462.379 478.416 466.857 536.887C471.335 595.358 492.23 649.243 500.382 707.255H500.497Z" fill="#256146"/>
<path d="M191.879 154.07C229.996 187.777 259.159 230.197 286.484 273.076C390.159 435.762 483.271 637.2 541.022 821.097" stroke="#472438" stroke-width="3.73369" stroke-miterlimit="10"/>
<path d="M293.597 75.0821C379.476 18.5602 485.103 -7.3504 587.515 3.19729C602.326 4.68772 617.366 7.09537 630.455 13.9743C643.543 20.9679 654.68 33.3499 656.517 48.025C659.388 70.7254 640.214 90.5596 619.777 100.878C591.763 114.98 559.731 118.305 528.502 120.254C441.475 125.757 354.218 122.088 267.19 117.846C274.194 103.63 280.394 83.7954 293.597 74.9674V75.0821Z" fill="#FBF1F1"/>
<path d="M270.186 116.355C337.925 121.973 406.812 121.629 472.369 139.4C537.927 157.056 601.992 196.61 628.743 258.979C634.943 273.424 638.961 289.934 633.221 304.494C628.054 317.793 615.31 327.309 601.648 331.322C587.985 335.449 573.174 334.761 559.052 332.698C507.157 325.131 459.855 298.991 416.112 270.099C363.183 235.246 313.585 195.922 263.871 156.597C266.167 143.298 266.397 129.196 270.186 116.355Z" fill="#FBF1F1"/>
<path d="M268.689 149.25C349.631 213.453 427.933 284.421 479.598 373.962C494.983 400.56 508.072 429.452 509.794 460.177C511.172 484.942 502.676 513.145 480.287 523.922C459.277 534.126 433.788 525.413 414.155 512.801C365.705 481.731 335.395 429.566 311.284 377.286C282.466 314.803 260.308 249.453 238.034 184.332C249.171 171.606 256.174 160.944 268.574 149.365L268.689 149.25Z" fill="#FBF1F1"/>
<path d="M236.087 181.477C260.542 293.832 285.112 406.876 288.786 521.754C289.704 550.646 288.556 582.174 270.301 604.76C264.905 611.524 257.671 617.371 249.06 618.518C244.353 619.205 239.531 618.288 235.053 616.913C204.858 607.282 190.162 573.805 180.862 543.537C169.725 507.308 161.115 470.047 158.704 432.213C153.652 351.845 177.074 272.622 200.151 195.464C212.321 191.107 223.687 185.833 235.857 181.477H236.087Z" fill="#FBF1F1"/>
<path d="M142.626 488.741C138.378 513.276 131.949 539.531 112.546 555.123C94.9795 569.339 69.1466 571.288 48.4805 562.116C27.8144 552.945 12.5444 533.684 5.7705 512.13C-0.314524 492.639 0.0301633 471.659 2.44121 451.251C10.7077 380.627 43.3141 313.329 92.3387 261.851C105.542 247.979 152.041 195.699 172.477 214.731C185.796 227.113 173.281 254.284 170.64 269.074C166.507 291.775 163.522 314.704 160.881 337.52C155.026 387.965 151.122 438.64 142.511 488.741H142.626Z" fill="#FBF1F1"/>
<path d="M336.542 89.5282C341.594 96.8658 343.431 106.152 342.972 115.095C341.709 144.789 318.861 168.521 296.817 188.47C250.893 229.973 198.768 269.641 137.458 278.584C134.014 279.043 130.34 279.501 127.01 278.584C119.433 276.52 115.07 268.495 113.233 260.813C107.722 237.998 116.907 214.266 127.7 193.4C148.595 153.158 178.217 115.439 216.908 90.9041C247.104 71.7577 310.365 51.1209 336.542 89.4136V89.5282Z" fill="#EBB529"/>
</svg>
