<svg width="1282" height="1777" viewBox="0 0 1282 1777" fill="none" xmlns="http://www.w3.org/2000/svg">
<g clip-path="url(#clip0_4161_481)">
<path d="M545.449 654.352C339.165 782.508 -31.048 1187.26 138.365 1781.03" stroke="#73957E" stroke-width="28.7837"/>
<path d="M1281.14 691.79C1280.91 691.079 1280.49 690.31 1279.84 689.658C1187.82 589.404 1079.04 550.32 985.828 557.427C972.741 558.433 959.536 560.328 946.33 563.171C833.581 587.627 707.153 721.517 587.061 676.216C581.317 674.084 575.573 671.478 569.888 668.458C566.276 666.563 562.545 664.432 558.933 662.122C557.275 661.056 555.617 659.99 554.018 658.924C548.274 655.016 541.937 660.227 542.056 665.379C538.325 664.905 534.298 668.044 533.706 672.189C533.706 672.189 533.706 672.229 533.706 672.308C533.469 673.847 533.706 675.564 534.831 677.282C535.66 678.644 536.549 680.065 537.437 681.309C537.674 681.723 537.97 682.138 538.207 682.552C539.273 684.151 540.398 685.809 541.523 687.408C543.299 689.954 545.076 692.382 546.971 694.81C547.267 695.225 547.682 695.639 547.978 696.054C550.228 698.955 552.537 701.738 554.847 704.462C559.525 709.91 564.499 715.062 569.651 719.918C645.034 791.156 762.876 797.492 861.887 771.97C988.789 739.282 1135.23 627.836 1266.46 703.633C1267.82 704.462 1269.95 704.166 1272.26 703.278C1277.12 701.383 1282.45 696.409 1281.08 691.908L1281.14 691.79Z" fill="#CE6B69"/>
<path d="M985.826 557.481C1069.62 484.822 1148.44 391.022 1216.71 273.95C1218.25 271.404 1219.73 268.739 1221.27 266.133C1222.99 263.113 1222.22 260.448 1220.33 258.672C1220.15 258.317 1219.85 257.961 1219.61 257.665C1219.5 257.547 1219.38 257.488 1219.32 257.369C1215.35 253.046 967.41 241.617 806.576 298.525C783.837 306.519 761.512 315.994 739.72 327.127C712.007 341.28 685.655 358.275 661.613 377.935C658.711 380.185 655.987 382.554 653.145 384.923C643.374 393.272 634.018 401.977 625.076 411.215C615.957 420.571 607.37 430.342 599.258 440.527C573.557 472.682 553.305 508.864 540.574 548.006C539.508 551.382 538.442 554.757 537.494 558.132C537.494 558.132 537.494 558.172 537.494 558.251C532.638 574.95 529.145 592.123 527.19 609.77C526.361 617.29 525.829 624.811 525.592 632.45C525.592 632.746 525.592 633.042 525.592 633.338L525.296 633.516C523.697 634.878 522.631 636.95 522.749 639.615C522.808 640.444 522.868 641.332 522.986 642.102C523.282 645.063 523.697 647.846 524.348 650.511C524.526 651.518 524.763 652.583 525.118 653.531C525.651 655.485 526.243 657.321 526.954 659.038C526.954 659.157 527.072 659.275 527.131 659.453C527.368 660.282 527.723 661.051 528.138 661.821C528.138 661.881 528.138 661.94 528.138 661.94C529.737 665.552 531.632 668.809 533.823 671.947L533.941 672.066C536.191 675.264 538.738 678.224 541.699 680.948C543.238 682.488 544.896 683.909 546.614 685.271C549.278 687.403 552.239 689.416 555.259 691.252C579.42 705.642 613.292 709.965 642.841 710.379C654.152 710.557 664.87 710.142 674.226 709.55C748.958 704.517 819.663 675.027 882.197 635.055C918.497 611.901 953.079 585.846 985.886 557.363L985.826 557.481Z" fill="#D0564D"/>
<path d="M806.519 298.533C829.673 204.082 829.555 103.236 802.552 5.1723C802.315 4.22483 801.959 3.45501 801.545 2.92206C801.012 2.09302 800.242 1.50085 799.413 1.14554C795.505 -0.690183 789.642 2.27067 788.458 6.83038C788.043 8.60689 787.57 10.3834 787.096 12.1599C785.971 16.2459 784.846 20.2134 783.602 24.181C742.209 156.176 615.07 235.586 537.141 344.604C480.411 424.074 449.026 540.257 503.861 624.938C505.756 627.898 507.769 630.8 509.901 633.643C511.263 635.419 512.507 637.196 513.691 638.735C521.744 650.105 525.297 656.145 526.896 659.224C526.896 659.343 527.015 659.461 527.074 659.639C527.785 661.06 527.962 661.771 528.081 662.008C528.081 662.067 528.081 662.126 528.081 662.126C531.693 664.613 550.465 656.5 576.935 638.084C644.738 590.769 763.113 475.711 806.519 298.533Z" fill="#E3AFA7"/>
<path d="M513.635 638.735C512.45 637.195 511.207 635.419 509.845 633.642C507.713 630.8 505.7 627.898 503.805 624.938C514.108 602.494 525.478 580.288 537.44 558.259C537.44 558.259 537.44 558.22 537.44 558.141C564.502 508.576 594.94 459.959 624.963 411.223C699.872 289.651 772.295 166.835 783.487 24.181C784.73 20.2134 785.915 16.2459 786.98 12.1599C787.454 10.3242 787.928 8.60689 788.342 6.83038C789.468 2.27067 795.389 -0.690183 799.298 1.14554C794.56 140.838 731.849 260.753 661.44 378.003C615.251 454.807 565.686 530.546 527.018 609.837C522.34 619.43 517.839 629.083 513.516 638.794L513.635 638.735Z" fill="#CE6B69"/>
<path d="M1216.65 273.897C971.668 353.663 794.077 561.929 558.926 662.065C550.635 665.559 542.227 668.993 533.818 672.191C533.818 672.191 533.778 672.191 533.699 672.191C533.699 672.191 533.699 672.132 533.699 672.073C531.508 668.934 529.613 665.677 528.014 662.124C528.014 662.124 528.014 662.065 528.014 662.006C527.659 661.236 527.304 660.466 527.008 659.637C527.008 659.519 526.889 659.341 526.83 659.222C543.825 652.709 560.525 645.662 576.928 638.023C803.255 533.386 978.478 332.818 1219.55 257.672C1219.85 257.968 1220.08 258.323 1220.26 258.679C1222.16 260.455 1222.93 263.12 1221.21 266.14C1219.67 268.745 1218.25 271.351 1216.65 273.957V273.897Z" fill="#E5B995"/>
<path d="M1272.32 703.149C1174.91 624.568 1029.95 650.446 915.836 681.357C798.882 713.038 672.572 751.351 554.908 704.392C552.598 701.668 550.23 698.885 548.039 695.984C547.743 695.569 547.328 695.154 547.032 694.74C545.137 692.312 543.361 689.825 541.584 687.338C540.459 685.739 539.334 684.14 538.268 682.482C537.972 682.068 537.735 681.653 537.498 681.238C568.291 694.977 611.638 707.472 642.845 710.432C752.574 720.973 865.205 676.56 971.618 652.222C1074.95 628.535 1196.29 624.568 1281.2 691.779C1282.57 696.28 1277.24 701.254 1272.38 703.149H1272.32Z" fill="#E5B995"/>
</g>
<defs>
<clipPath id="clip0_4161_481">
<rect width="1281.16" height="1776.04" fill="white" transform="translate(0.166016 0.550781)"/>
</clipPath>
</defs>
</svg>
