<svg width="244" height="150" viewBox="0 0 244 150" fill="none" xmlns="http://www.w3.org/2000/svg">
    <path
        d="M1 101.414C1 101.414 116.611 131.77 173.683 57.5049C178.972 50.6369 184.81 44.2039 191.403 38.5722C200.217 31.0632 212.671 20.6697 223.27 12.5884"
        stroke="#DDB059" stroke-width="4.57864" stroke-miterlimit="10" />
    <path d="M38.8453 106.543C38.8453 106.543 68.7439 99.2863 82.5714 74.7219" stroke="#DDB059"
        stroke-width="4.57864" stroke-miterlimit="10" />
    <path d="M93.6975 136.649C93.6975 136.649 65.4244 109.086 47.4303 107.483" stroke="#DDB059"
        stroke-width="4.57864" stroke-miterlimit="10" />
    <path d="M80.4402 106.154C79.9824 106.016 138.841 79.6435 144.266 21.7694" stroke="#DDB059"
        stroke-width="4.57864" stroke-miterlimit="10" />
    <path d="M117.782 98.0722C117.782 98.0722 136.989 100.774 147.726 105.627" stroke="#DDB059"
        stroke-width="4.57864" stroke-miterlimit="10" />
    <path d="M163.202 69.5713C163.202 69.5713 178.357 60.7574 208.508 65.8397" stroke="#DDB059"
        stroke-width="4.57864" stroke-miterlimit="10" />
    <path d="M186.614 43.4267C186.614 43.4267 202.616 36.1237 227.776 43.5869" stroke="#DDB059"
        stroke-width="4.57864" stroke-miterlimit="10" />
    <path d="M128.424 93.4692C128.424 93.4692 148.524 77.9934 157.979 49.3311" stroke="#DDB059"
        stroke-width="4.57864" stroke-miterlimit="10" />
    <path d="M106.38 89.3037C106.38 89.3037 117.575 66.9828 118.582 49.3093" stroke="#DDB059"
        stroke-width="4.57864" stroke-miterlimit="10" />
    <path d="M132.403 58.7402C132.403 58.7402 140.256 44.5464 151.107 39.3268" stroke="#DDB059"
        stroke-width="4.57864" stroke-miterlimit="10" />
    <path
        d="M86.4382 131.245C86.4382 131.245 87.7889 152.787 103.265 149.697C118.718 146.606 110.476 137.655 102.578 133.992C94.7026 130.329 86.4382 131.245 86.4382 131.245Z"
        fill="#9F513F" fill-opacity="0.44" />
    <path
        d="M138.958 101.92C138.958 101.92 140.996 119.433 155.396 115.083C169.796 110.733 154.16 93.1057 138.958 101.92Z"
        fill="#9F513F" fill-opacity="0.44" />
    <path
        d="M195.959 65.6102C195.959 65.6102 221.279 88.8468 225.812 71.3335C230.345 53.8202 198.569 59.7724 195.959 65.6102Z"
        fill="#9F513F" fill-opacity="0.44" />
    <path
        d="M218.941 41.4133C218.941 41.4133 237.691 61.3533 242.59 49.1283C247.489 36.9034 228.19 37.0178 218.941 41.4133Z"
        fill="#9F513F" fill-opacity="0.44" />
    <path
        d="M212.073 22.1816C212.073 22.1816 245.543 21.884 240.278 5.7901C235.012 -10.3038 213.333 11.2387 212.073 22.1816Z"
        fill="#9F513F" fill-opacity="0.44" />
    <path
        d="M151.796 63.8701C151.796 63.8701 167.638 59.4746 166.631 49.7908C165.623 40.107 150.995 35.4368 151.796 63.8701Z"
        fill="#9F513F" fill-opacity="0.44" />
    <path
        d="M73.8021 86.7189C73.8021 86.7189 86.5994 88.0238 88.2019 75.7988C89.8274 63.5739 79.1362 64.7414 76.4806 69.1598C73.8021 73.5782 73.8021 86.7189 73.8021 86.7189Z"
        fill="#9F513F" fill-opacity="0.44" />
    <path
        d="M115.332 61.4658C115.332 61.4658 128.312 53.8882 126.275 42.9681C124.237 32.048 112.607 34.8181 111.188 44.7538C109.746 54.6894 115.332 61.4658 115.332 61.4658Z"
        fill="#9F513F" fill-opacity="0.44" />
    <path
        d="M141.357 34.5889C141.357 34.5889 157.886 26.1413 152.346 14.2368C146.829 2.30945 133.482 7.89539 141.357 34.5889Z"
        fill="#9F513F" fill-opacity="0.44" />
    <path
        d="M144.861 43.0149C144.861 43.0149 159.306 44.9151 159.558 36.1928C159.833 27.4705 147.287 31.4539 144.861 43.0149Z"
        fill="#9F513F" fill-opacity="0.44" />
</svg>
