<svg width="321" height="316" viewBox="0 0 321 316" fill="none" xmlns="http://www.w3.org/2000/svg">
    <path
        d="M58.6792 238.264C59.2485 246.821 46.4234 250.517 34.1675 245.004C21.9116 239.491 18.2356 222.336 18.2356 222.336C18.2356 222.336 25.7386 220.958 32.789 222.796C37.4184 224.002 58.062 229.076 58.6792 238.264Z"
        fill="#83A768" />
    <path
        d="M42.4468 243.928C43.7978 243.441 45.1627 243.002 46.5275 242.577C47.8923 242.145 49.2708 241.768 50.6493 241.363L50.4573 241.679L50.0184 239.492C49.8812 238.758 49.7166 238.038 49.5932 237.304C49.3325 235.837 49.0788 234.376 48.8867 232.895C49.3051 234.328 49.6617 235.768 50.0184 237.215C50.2035 237.935 50.3476 238.662 50.5122 239.389L50.9922 241.569L51.0471 241.823L50.8002 241.884C49.4148 242.248 48.0363 242.632 46.6441 242.968C45.2518 243.311 43.8596 243.64 42.4536 243.914L42.4468 243.928Z"
        fill="#D1D668" />
    <path
        d="M34.6335 241.171C36.451 240.698 38.2822 240.259 40.1134 239.841C41.0324 239.635 41.9445 239.409 42.8636 239.217L45.6137 238.62L45.4217 238.949C44.8525 237.276 44.3655 235.576 43.8374 233.889C43.3505 232.189 42.8636 230.488 42.4521 228.767C43.1105 230.413 43.7003 232.079 44.2832 233.752C44.8319 235.432 45.4148 237.105 45.9155 238.799L45.9978 239.073L45.7235 239.128L42.9596 239.683C42.0405 239.875 41.1147 240.033 40.1888 240.204C38.3439 240.554 36.4922 240.876 34.6335 241.171Z"
        fill="#D1D668" />
    <path
        d="M28.1953 238.414C30.095 237.941 31.9948 237.502 33.9014 237.084C34.8547 236.878 35.808 236.652 36.7613 236.46L39.6281 235.863L39.4361 236.193C38.8669 234.52 38.3799 232.819 37.8518 231.132C37.3649 229.432 36.8779 227.731 36.4664 226.01C37.1248 227.656 37.7147 229.322 38.2976 230.995C38.8463 232.675 39.4292 234.348 39.9299 236.042L40.0122 236.316L39.7379 236.371L36.8642 236.926C35.9041 237.118 34.9439 237.276 33.9837 237.447C32.0634 237.797 30.1362 238.119 28.2021 238.414H28.1953Z"
        fill="#D1D668" />
    <path
        d="M26.3562 232.444C27.4192 232.266 28.4891 232.135 29.559 232.019C30.6289 231.889 31.6988 231.799 32.7687 231.717L32.5218 232.039C32.2818 230.819 32.0692 229.585 31.8771 228.357C31.6988 227.123 31.5136 225.889 31.4039 224.641C31.7537 225.841 32.0349 227.061 32.3092 228.275C32.5767 229.496 32.8236 230.716 33.043 231.943L33.0979 232.245L32.7961 232.266C31.7262 232.334 30.6495 232.403 29.5727 232.423C28.496 232.458 27.4192 232.478 26.3424 232.458L26.3562 232.444Z"
        fill="#D1D668" />
    <path
        d="M132.508 291.713C132.508 291.713 130.986 285.432 120.239 270.69C113.319 261.187 94.5337 252.582 88.1074 259.007C81.6811 265.431 85.5424 279.152 96.0562 288.497C106.57 297.843 132.508 291.713 132.508 291.713Z"
        fill="#6BA43D" />
    <path
        d="M75.2414 243.334C75.5569 246.063 76.6337 248.723 78.0533 251.198C79.4799 253.673 81.2699 255.963 83.1902 258.137C87.0515 262.484 91.5231 266.31 96.1662 269.882C100.823 273.448 105.713 276.725 110.706 279.824C115.712 282.91 120.829 285.831 126.075 288.498C120.747 285.989 115.534 283.232 110.425 280.298C105.322 277.349 100.316 274.209 95.5078 270.767C90.7138 267.311 86.0707 263.595 81.9694 259.255C79.9257 257.081 77.9916 254.77 76.4005 252.186C74.8162 249.607 73.5268 246.748 73.0605 243.615L75.2414 243.334Z"
        fill="#D1D668" />
    <path d="M77.0667 176.392C77.0667 176.392 69.7145 226.014 74.001 242.552" stroke="#D1D668"
        stroke-width="1.48925" stroke-miterlimit="10" />
    <path
        d="M73.5803 225.563C72.9973 228.23 72.1263 230.87 70.7409 233.27C69.383 235.67 67.4558 237.795 65.1171 239.297C62.7784 240.805 60.0693 241.655 57.3328 241.889C56.647 241.95 55.9612 241.971 55.2753 241.95C54.9324 241.937 54.5895 241.923 54.2397 241.889C54.0614 241.875 53.9037 241.854 53.7048 241.82L53.2041 241.703C51.8668 241.415 50.5842 241.025 49.3086 240.586C44.2197 238.817 39.4463 236.355 34.8032 233.716C30.167 231.055 25.6679 228.175 21.3128 225.097C25.7502 228.059 30.3247 230.815 35.0158 233.338C39.7138 235.841 44.5352 238.165 49.5829 239.763C50.8449 240.161 52.1205 240.504 53.403 240.75L53.8831 240.846C54.0134 240.86 54.1849 240.881 54.3426 240.888C54.6581 240.915 54.9873 240.922 55.3096 240.922C55.9543 240.922 56.6059 240.894 57.2505 240.819C59.8224 240.538 62.3257 239.674 64.4449 238.234C66.5642 236.801 68.2856 234.819 69.4996 232.55C70.7341 230.294 71.4953 227.785 71.9891 225.234L73.6008 225.556L73.5803 225.563Z"
        fill="#D1D668" />
    <path
        d="M69.7349 262.875C82.8686 268.847 78.6918 292.125 67.9448 301.08C57.1978 310.035 43.4674 310.631 39.8805 316C39.8805 316 38.79 296.315 39.8805 287.943C41.6705 274.216 57.7259 257.417 69.7349 262.875Z"
        fill="#83A768" />
    <path
        d="M75.0976 242.498C75.221 245.933 75.0084 249.396 74.4186 252.79C73.8288 256.184 72.8618 259.503 71.593 262.677C69.0485 269.04 65.393 274.848 61.5524 280.374C57.8009 285.962 54.2071 291.667 50.6544 297.399C47.1018 303.131 43.6041 308.898 40.1475 314.685C43.4326 308.795 46.7658 302.932 50.1538 297.097C53.5418 291.262 56.9778 285.455 60.5785 279.736C64.2683 274.094 67.7043 268.32 70.0224 262.074C72.3611 255.848 73.3419 249.204 72.9098 242.608L75.1044 242.498H75.0976Z"
        fill="#D1D668" />
    <path
        d="M71.0857 281.956C70.5439 280.05 70.0295 278.13 69.5357 276.21C69.0282 274.29 68.5755 272.364 68.0954 270.437L68.3355 270.615C65.8528 270.732 63.3769 270.78 60.8942 270.862C58.4115 270.903 55.9288 270.951 53.446 270.931C55.9219 270.725 58.3978 270.588 60.8805 270.451C63.3632 270.348 65.8391 270.211 68.3218 270.142H68.5207L68.5618 270.32C69.0007 272.254 69.474 274.181 69.8786 276.121C70.3038 278.055 70.7153 279.995 71.0857 281.949V281.956Z"
        fill="#D1D668" />
    <path
        d="M56.758 303.446C56.2985 301.629 55.8801 299.799 55.4755 297.975C55.0571 296.151 54.7005 294.306 54.3164 292.476L54.5771 292.668C53.5209 292.777 52.4647 292.839 51.4085 292.928L48.24 293.175C46.1207 293.312 44.0083 293.456 41.8823 293.532C43.9878 293.237 46.0933 293.011 48.2056 292.784L51.3742 292.476C52.4304 292.38 53.4866 292.263 54.5428 292.188L54.7622 292.174L54.8034 292.38C55.1463 294.224 55.5304 296.055 55.8458 297.899C56.175 299.744 56.4974 301.588 56.7717 303.446H56.758Z"
        fill="#D1D668" />
    <path
        d="M50.6948 306.756C50.3999 305.487 50.1736 304.205 49.9473 302.93C49.7278 301.648 49.5289 300.366 49.3574 299.076L49.6798 299.268C48.6647 299.632 47.6497 299.988 46.6278 300.311C45.6059 300.647 44.5772 300.962 43.5347 301.243C44.5155 300.791 45.5099 300.372 46.5044 299.975C47.4988 299.563 48.507 299.186 49.5152 298.809L49.7964 298.706L49.8375 299.001C50.0296 300.283 50.201 301.572 50.345 302.861C50.4822 304.15 50.6262 305.446 50.6948 306.749V306.756Z"
        fill="#D1D668" />
    <path
        d="M67.2334 295.182C66.5819 292.076 65.9852 288.963 65.3953 285.85C65.0867 284.293 64.8192 282.73 64.5381 281.174L63.6876 276.491L63.9688 276.689C61.3009 277.128 58.6399 277.594 55.9651 278.013C53.2972 278.431 50.6225 278.842 47.9409 279.206C50.5882 278.643 53.2424 278.143 55.9034 277.642C58.5576 277.142 61.2255 276.689 63.8865 276.209L64.1266 276.168L64.1677 276.415L64.9701 281.105C65.2308 282.668 65.5188 284.225 65.7657 285.795C66.2801 288.922 66.7807 292.055 67.2334 295.195V295.182Z"
        fill="#D1D668" />
    <path
        d="M62.2651 302.347C61.6136 299.241 61.0169 296.128 60.4271 293.015C60.1185 291.458 59.851 289.895 59.5698 288.339L58.7194 283.656L59.0006 283.854C56.3327 284.293 53.6716 284.759 50.9969 285.178C48.329 285.596 45.6542 286.007 42.9726 286.371C45.6199 285.809 48.2741 285.308 50.9351 284.807C53.5893 284.307 56.2572 283.854 58.9182 283.374L59.1583 283.333L59.1994 283.58L60.0087 288.27C60.2693 289.833 60.5574 291.397 60.8043 292.96C61.3187 296.087 61.8193 299.22 62.272 302.36L62.2651 302.347Z"
        fill="#D1D668" />
    <path
        d="M66.8097 185.669C74.8682 195.858 61.9334 212.766 49.6433 215.516C37.3531 218.258 26.1123 213.082 21.0303 215.907C21.0303 215.907 28.2658 199.698 32.5866 193.451C39.6781 183.201 59.4438 176.358 66.8097 185.669Z"
        fill="#83A768" />
    <path
        d="M79.4914 171.564C78.1746 174.368 76.5835 177.049 74.7111 179.524C72.8388 181.992 70.7059 184.255 68.374 186.278C63.7172 190.323 58.3951 193.464 53.0525 196.309C47.751 199.244 42.5181 202.329 37.3195 205.449C32.114 208.575 26.9428 211.75 21.7922 214.966C26.8468 211.606 31.9288 208.281 37.0451 205.003C42.1615 201.733 47.2984 198.489 52.5381 195.397C57.8122 192.401 62.9491 189.192 67.3727 185.14C71.8032 181.122 75.3284 176.205 77.7014 170.748L79.5051 171.564H79.4914Z"
        fill="#D1D668" />
    <path
        d="M60.0333 201.499C60.3831 199.744 60.7672 198.002 61.1581 196.261C61.5422 194.519 61.9742 192.784 62.3857 191.05L62.5023 191.296C60.4723 190.371 58.4628 189.383 56.4464 188.43C54.4438 187.443 52.4343 186.463 50.4522 185.42C52.5166 186.277 54.5604 187.189 56.5973 188.094C58.6274 189.034 60.6643 189.946 62.6807 190.912L62.8384 190.988L62.7972 191.152C62.3514 192.88 61.9331 194.615 61.4599 196.336C61.0004 198.064 60.534 199.785 60.0265 201.499H60.0333Z"
        fill="#D1D668" />
    <path
        d="M39.7042 212.806C40.0883 211.16 40.5066 209.528 40.9318 207.896C41.3502 206.264 41.8234 204.646 42.2692 203.014L42.3927 203.275C41.5011 202.925 40.6301 202.541 39.7454 202.178L37.1049 201.067C35.356 200.306 33.6003 199.545 31.872 198.736C33.6757 199.367 35.4589 200.052 37.2421 200.738L39.9031 201.794C40.7878 202.151 41.6794 202.493 42.5573 202.87L42.7356 202.946L42.6807 203.131C42.2007 204.749 41.748 206.374 41.2405 207.979C40.7467 209.59 40.2392 211.201 39.6974 212.799L39.7042 212.806Z"
        fill="#D1D668" />
    <path
        d="M33.4933 212.958C33.7813 211.82 34.1242 210.702 34.4671 209.585C34.8375 208.474 35.1873 207.363 35.5851 206.259L35.7634 206.54C34.8032 206.396 33.843 206.293 32.8897 206.122C31.9364 205.971 30.9762 205.8 30.0298 205.601C31.0037 205.642 31.9639 205.717 32.9309 205.807C33.8979 205.882 34.8581 206.012 35.8182 206.115L36.0789 206.143L35.9966 206.396C35.6262 207.507 35.2147 208.597 34.8169 209.701C34.3986 210.791 33.9733 211.882 33.5001 212.958H33.4933Z"
        fill="#D1D668" />
    <path
        d="M51.4935 210.503L52.6595 206.382L53.8665 202.275C54.2643 200.904 54.6895 199.546 55.101 198.175L56.3492 194.081L56.4933 194.356C54.1751 193.608 51.857 192.881 49.5458 192.12L46.0823 190.968L42.6326 189.775L46.144 190.77L49.6418 191.805C51.9736 192.497 54.2917 193.231 56.6236 193.944L56.8362 194.006L56.7676 194.218L55.4851 198.305C55.053 199.663 54.6347 201.027 54.1889 202.385L52.8652 206.457L51.4935 210.517V210.503Z"
        fill="#D1D668" />
    <path
        d="M44.5756 214.192L45.7415 210.072L46.9486 205.964C47.3463 204.593 47.7716 203.235 48.1831 201.864L49.4313 197.771L49.5753 198.045C47.2572 197.298 44.9391 196.571 42.6278 195.81L39.1643 194.658L35.7146 193.465L39.2261 194.459L42.7238 195.494C45.0557 196.187 47.3738 196.921 49.7056 197.634L49.9182 197.695L49.8496 197.908L48.5671 201.994C48.135 203.352 47.7167 204.717 47.2709 206.074L45.9472 210.147L44.5756 214.206V214.192Z"
        fill="#D1D668" />
    <path
        d="M83.671 211.079C73.0885 220.377 83.5955 240.953 96.1737 246.274C108.759 251.595 121.755 248.262 126.632 252.267C126.632 252.267 122.071 233.562 118.676 226.047C113.107 213.726 93.3412 202.577 83.671 211.079Z"
        fill="#83A768" />
    <path
        d="M75.0416 194.987C76.3584 200.637 78.8823 205.978 82.4349 210.613C85.9738 215.276 90.3358 219.253 94.876 223.058C99.3613 226.946 103.73 230.957 108.065 234.995C112.399 239.034 116.699 243.114 120.958 247.228C116.576 243.237 112.166 239.288 107.722 235.372C103.271 231.464 98.7989 227.583 94.2176 223.84C89.5813 220.171 85.0274 216.222 81.269 211.525C77.4901 206.849 74.6919 201.316 73.1762 195.46L75.0485 194.994L75.0416 194.987Z"
        fill="#D1D668" />
    <path
        d="M87.8221 229.299C87.6163 227.372 87.4517 225.445 87.3008 223.512C87.1294 221.585 87.0265 219.652 86.8893 217.718L86.8756 217.533L87.0608 217.485C89.3995 216.847 91.7519 216.271 94.0975 215.661C96.4499 215.092 98.8091 214.516 101.182 214.002C98.864 214.729 96.5322 215.387 94.2003 216.045C91.8616 216.676 89.5229 217.334 87.1774 217.924L87.3488 217.684C87.4449 219.617 87.5752 221.551 87.6437 223.484C87.726 225.418 87.7946 227.352 87.8289 229.292L87.8221 229.299Z"
        fill="#D1D668" />
    <path
        d="M107.306 245.325C107.038 243.515 106.812 241.698 106.599 239.881C106.373 238.064 106.208 236.24 106.009 234.423L105.989 234.218L106.195 234.17C107.203 233.943 108.225 233.751 109.24 233.539L112.285 232.928C114.322 232.544 116.359 232.161 118.402 231.838C116.4 232.366 114.383 232.839 112.36 233.306L109.329 233.978C108.314 234.197 107.306 234.43 106.291 234.629L106.476 234.375C106.633 236.199 106.819 238.016 106.949 239.84C107.093 241.664 107.216 243.488 107.306 245.318V245.325Z"
        fill="#D1D668" />
    <path
        d="M113.91 246.695C113.608 245.461 113.375 244.213 113.135 242.965C112.908 241.717 112.703 240.463 112.518 239.208L112.476 238.92L112.764 238.941C113.814 239.002 114.863 239.071 115.906 239.174C116.955 239.263 117.997 239.372 119.04 239.516C117.984 239.551 116.934 239.544 115.885 239.516C114.836 239.51 113.786 239.462 112.737 239.407L112.984 239.132C113.183 240.387 113.361 241.642 113.526 242.897C113.677 244.158 113.827 245.42 113.91 246.688V246.695Z"
        fill="#D1D668" />
    <path
        d="M95.1725 240.564C94.6992 237.5 94.2877 234.435 93.8762 231.363C93.6636 229.827 93.4853 228.291 93.2864 226.755L92.7103 222.148L92.6829 221.908L92.9229 221.88C95.5428 221.572 98.1627 221.243 100.789 220.961C103.416 220.673 106.036 220.392 108.67 220.166C106.064 220.591 103.45 220.961 100.831 221.325C98.2176 221.688 95.5977 222.01 92.9778 222.36L93.1835 222.093L93.7185 226.707C93.89 228.243 94.082 229.779 94.2397 231.322C94.5689 234.4 94.8981 237.479 95.1656 240.564H95.1725Z"
        fill="#D1D668" />
    <path
        d="M101.839 245.851C101.366 242.786 100.955 239.721 100.543 236.649C100.331 235.113 100.152 233.577 99.9534 232.041L99.3773 227.434L99.3499 227.194L99.5899 227.166C102.21 226.858 104.83 226.529 107.456 226.248C110.083 225.96 112.703 225.678 115.337 225.452C112.73 225.877 110.117 226.248 107.498 226.611C104.885 226.974 102.265 227.297 99.6448 227.646L99.8505 227.379L100.385 231.993C100.557 233.529 100.749 235.065 100.907 236.608C101.236 239.687 101.565 242.765 101.833 245.851H101.839Z"
        fill="#D1D668" />
    <path d="M122.406 281.148L110.919 280.689L116.892 291.255" stroke="#D1D668"
        stroke-width="0.372312" stroke-miterlimit="10" />
    <path d="M116.431 274.717L102.646 275.176L106.781 291.255" stroke="#D1D668"
        stroke-width="0.372312" stroke-miterlimit="10" />
    <path d="M97.1248 285.283L96.6653 270.123L114.593 268.745" stroke="#D1D668"
        stroke-width="0.372312" stroke-miterlimit="10" />
    <path d="M89.7744 278.393L89.3149 265.063L108.621 264.145" stroke="#D1D668"
        stroke-width="0.372312" stroke-miterlimit="10" />
    <path
        d="M95.5696 177.133C97.6065 178.402 101.056 179.266 103.738 178.991C103.738 178.991 109.43 169.481 98.6559 171.998C95.1512 172.821 93.8344 173.911 93.855 174.987C90.6865 174.905 86.7292 174.658 83.0051 174.014L82.7445 173.822L82.6211 173.945C80.7282 173.602 78.9107 173.157 77.299 172.574L76.5789 174.548C78.0397 175.076 79.6514 175.501 81.318 175.837C81.2288 175.995 81.1602 176.119 81.1602 176.119L81.0436 176.317L80.1795 187.35C78.4443 187.391 76.8944 189.036 77.6008 193.569C78.8627 201.625 84.898 192.636 83.5675 189.599C83.2863 188.961 82.8062 188.426 82.237 188.028L82.9846 178.443C84.3014 180.726 86.8869 184.429 91.7084 190.517C90.8373 192.478 94.6917 196.928 97.051 196.812C100.37 196.647 103.443 191.512 95.4599 189.825C94.7535 189.674 94.1705 189.612 93.6767 189.612C89.5 184.333 85.3918 178.69 84.171 176.331C88.2998 176.935 92.4971 177.099 95.5559 177.12L95.5696 177.133Z"
        fill="#A6BD38" />
    <path
        d="M100.914 175.927C104.103 166.472 116.345 168.748 119.678 171.731C123.011 174.714 115.584 174.686 115.584 174.686C115.584 174.686 122.812 177.127 120.762 179.534C118.711 181.941 112.593 179.877 112.593 179.877C112.593 179.877 119.452 183.428 117.024 186.946C114.596 190.463 98.2869 183.723 100.914 175.934V175.927Z"
        fill="#EF9C3A" />
    <path
        d="M77.8072 193.891C84.014 192.54 84.8576 210.58 83.2801 212.321C81.7027 214.063 79.6864 208.214 79.6864 208.214C79.6864 208.214 77.2037 215.523 75.0707 214.378C72.9378 213.233 73.3218 204.08 73.3218 204.08C73.3218 204.08 71.1477 209.681 69.3371 207.597C65.8531 203.586 72.876 194.96 77.8072 193.891Z"
        fill="#EF9C3A" />
    <path
        d="M107.64 180.742C106.096 180.31 104.629 179.686 103.236 178.863C102.537 178.452 101.865 177.986 101.248 177.314C101.097 177.136 100.953 176.944 100.829 176.697C100.713 176.464 100.603 176.148 100.637 175.785C100.637 175.613 100.719 175.408 100.795 175.25C100.877 175.106 100.973 174.969 101.069 174.88C101.268 174.667 101.46 174.537 101.659 174.407C103.23 173.536 104.78 173.255 106.357 172.981C107.934 172.734 109.519 172.61 111.117 172.665C109.601 173.159 108.085 173.57 106.583 174.002C105.836 174.228 105.095 174.434 104.375 174.688C103.662 174.928 102.928 175.195 102.365 175.545C102.084 175.703 101.892 175.936 101.933 175.915C101.892 175.97 102.023 176.258 102.215 176.512C102.612 177.046 103.223 177.526 103.813 178.006C105.026 178.946 106.33 179.817 107.626 180.742H107.64Z"
        fill="#F0D182" />
    <path
        d="M113.223 179.379C111.22 179.249 109.238 178.961 107.276 178.577C106.289 178.398 105.315 178.158 104.341 177.918C103.36 177.644 102.414 177.397 101.392 176.904C101.262 176.835 101.125 176.753 100.967 176.623C100.891 176.554 100.788 176.472 100.686 176.287C100.638 176.184 100.576 176.06 100.583 175.868C100.583 175.69 100.665 175.512 100.74 175.409C101.042 175.073 101.186 175.073 101.365 174.984C101.522 174.929 101.673 174.888 101.817 174.86C102.38 174.751 102.894 174.716 103.408 174.703C104.437 174.696 105.438 174.723 106.44 174.812C108.442 174.977 110.424 175.258 112.379 175.717C110.376 175.82 108.381 175.827 106.405 175.861C105.418 175.896 104.43 175.889 103.47 175.971C102.997 176.005 102.51 176.047 102.098 176.143C101.989 176.163 101.906 176.191 101.831 176.218L101.756 176.252C101.756 176.252 101.756 176.252 101.756 176.245C101.776 176.225 101.797 176.204 101.817 176.177C101.858 176.122 101.913 176.005 101.913 175.889C101.913 175.759 101.886 175.697 101.858 175.649C101.817 175.573 101.804 175.58 101.824 175.594C101.858 175.621 101.934 175.669 102.023 175.717C102.784 176.108 103.772 176.403 104.691 176.698C105.624 177.007 106.577 177.267 107.523 177.562C109.423 178.131 111.33 178.7 113.223 179.372V179.379Z"
        fill="#F0D182" />
    <path
        d="M96.4711 193.117C98.8373 190.512 108.988 194.167 108.837 199.576C108.686 204.986 103.117 200.845 103.117 200.845C103.117 200.845 105.449 206.803 102.966 206.927C100.483 207.05 93.3163 196.594 96.4711 193.117Z"
        fill="#EF9C3A" />
    <path
        d="M74.8931 199.397C75.3321 198.081 75.9356 196.84 76.7106 195.667C77.1015 195.077 77.5336 194.522 78.144 194.015C78.3086 193.891 78.4732 193.775 78.6926 193.679C78.8984 193.583 79.1796 193.507 79.4882 193.555C79.6391 193.569 79.8106 193.644 79.9409 193.713C80.0575 193.795 80.174 193.884 80.2495 193.967C80.4209 194.145 80.5307 194.323 80.6335 194.495C81.3194 195.893 81.4977 197.244 81.6623 198.629C81.8063 200 81.8475 201.379 81.724 202.764C81.3605 201.427 81.0725 200.096 80.7639 198.78C80.5993 198.129 80.4552 197.47 80.2701 196.833C80.0917 196.202 79.8929 195.557 79.6185 195.057C79.4951 194.803 79.303 194.632 79.3168 194.666C79.2687 194.632 79.015 194.728 78.7887 194.885C78.3086 195.208 77.8628 195.715 77.4238 196.202C76.5597 197.21 75.7435 198.307 74.8863 199.383L74.8931 199.397Z"
        fill="#F0D182" />
    <path
        d="M75.8246 204.293C76.0235 202.565 76.3664 200.865 76.7779 199.178C76.9768 198.335 77.2237 197.498 77.4775 196.662C77.7587 195.825 78.0124 195.016 78.4857 194.152C78.5542 194.042 78.6297 193.926 78.7463 193.796C78.808 193.734 78.8835 193.652 79.0481 193.569C79.1441 193.528 79.2469 193.487 79.4115 193.501C79.5624 193.501 79.7133 193.583 79.8025 193.652C80.0837 193.926 80.0768 194.056 80.1385 194.214C80.1797 194.351 80.2071 194.488 80.2208 194.611C80.2894 195.105 80.2963 195.551 80.2894 195.996C80.2551 196.888 80.1865 197.752 80.0631 198.616C79.8299 200.344 79.5007 202.044 79.0206 203.717C79.0206 201.975 79.1029 200.254 79.1578 198.54C79.1715 197.683 79.2195 196.826 79.1921 195.99C79.1784 195.578 79.1715 195.153 79.1098 194.79C79.0961 194.694 79.0755 194.625 79.0549 194.557C79.0549 194.509 78.9657 194.426 79.0892 194.557C79.1303 194.598 79.2332 194.646 79.3361 194.653C79.4458 194.653 79.5007 194.639 79.5487 194.618C79.6173 194.584 79.6104 194.577 79.6036 194.591C79.583 194.618 79.535 194.687 79.487 194.755C79.1098 195.4 78.8149 196.236 78.52 197.025C78.2113 197.82 77.9439 198.636 77.6489 199.445C77.0728 201.063 76.4968 202.695 75.8246 204.3V204.293Z"
        fill="#F0D182" />
    <path
        d="M98.5831 199.192C97.6847 198.28 96.9166 197.259 96.2719 196.127C95.9495 195.558 95.6752 194.969 95.5106 194.256C95.4763 194.071 95.4489 193.885 95.4694 193.659C95.4832 193.447 95.5312 193.193 95.7026 192.953C95.7712 192.836 95.9084 192.727 96.025 192.644C96.1416 192.576 96.265 192.521 96.3679 192.493C96.5874 192.425 96.7794 192.411 96.9646 192.397C98.4048 192.425 99.5913 192.843 100.798 193.289C101.992 193.748 103.144 194.297 104.228 194.976C102.972 194.708 101.759 194.393 100.545 194.091C99.9342 193.954 99.3376 193.796 98.734 193.68C98.1373 193.563 97.527 193.453 96.9989 193.474C96.7382 193.474 96.5119 193.556 96.5531 193.556C96.5051 193.577 96.4776 193.831 96.5119 194.084C96.5736 194.612 96.8068 195.195 97.0194 195.764C97.4858 196.902 98.0482 198.027 98.5763 199.192H98.5831Z"
        fill="#F0D182" />
    <path
        d="M103.007 200.481C101.663 199.59 100.408 198.596 99.1942 197.547C98.5838 197.026 98.0008 196.477 97.4179 195.915C96.8418 195.332 96.2931 194.784 95.7719 194.029C95.7102 193.92 95.6484 193.824 95.5867 193.659C95.5593 193.611 95.525 193.44 95.525 193.316C95.525 193.241 95.5661 193.076 95.6347 192.973C95.6964 192.857 95.7925 192.802 95.8953 192.74C96.2794 192.596 96.348 192.679 96.5194 192.685C96.6497 192.713 96.7732 192.74 96.8761 192.781C97.3082 192.932 97.6785 193.111 98.042 193.309C98.7553 193.714 99.448 194.132 100.106 194.598C101.43 195.51 102.692 196.505 103.872 197.602C102.438 196.868 101.053 196.08 99.6674 195.312C98.9679 194.941 98.282 194.544 97.5825 194.215C97.2396 194.05 96.8829 193.879 96.5606 193.783C96.4783 193.755 96.4097 193.741 96.3411 193.728H96.2725C96.2725 193.728 96.3343 193.714 96.3686 193.693C96.4371 193.659 96.4646 193.611 96.5194 193.549C96.5674 193.495 96.5812 193.371 96.5812 193.351C96.6017 193.33 96.5606 193.255 96.5812 193.296C96.588 193.323 96.6292 193.392 96.6703 193.453C97.0407 194.029 97.6099 194.626 98.1312 195.202C98.6592 195.785 99.2148 196.347 99.7566 196.937C100.854 198.088 101.944 199.254 102.994 200.475L103.007 200.481Z"
        fill="#F0D182" />
    <path
        d="M223.591 53.9093C231.396 57.4679 239.386 46.7853 238.563 33.3738C237.74 19.9623 222.987 10.4591 222.987 10.4591C222.987 10.4591 219.044 16.9934 218.269 24.2271C217.761 28.9856 215.203 50.0833 223.584 53.9093H223.591Z"
        fill="#83A768" />
    <path
        d="M234.633 40.7231C233.879 41.9436 233.076 43.1298 232.26 44.3091C231.451 45.4885 230.601 46.6404 229.778 47.806L229.627 48.0186L229.407 47.8746L227.542 46.6541C226.924 46.2427 226.294 45.8519 225.683 45.4199C224.455 44.5834 223.228 43.7332 222.041 42.8349C223.358 43.5343 224.641 44.2954 225.916 45.0565C226.561 45.4268 227.185 45.8381 227.816 46.229L229.709 47.4152L229.345 47.4837C230.21 46.3455 231.053 45.1868 231.938 44.0623C232.816 42.9309 233.707 41.8133 234.64 40.7231H234.633Z"
        fill="#D1D668" />
    <path
        d="M234.82 32.441C233.887 34.0728 232.927 35.691 231.953 37.2886C231.466 38.0908 230.986 38.8999 230.485 39.6884L228.99 42.0745L228.839 42.3145L228.613 42.143C227.2 41.0734 225.849 39.9352 224.471 38.8313C223.113 37.6931 221.761 36.5549 220.458 35.355C221.926 36.3492 223.346 37.4051 224.765 38.461C226.158 39.5512 227.577 40.6072 228.942 41.7316L228.565 41.7933L230.094 39.4278C230.602 38.6393 231.13 37.8645 231.651 37.0829C232.687 35.5196 233.75 33.9631 234.833 32.4341L234.82 32.441Z"
        fill="#D1D668" />
    <path
        d="M234.515 25.4543C233.554 27.1547 232.574 28.8414 231.566 30.5213C231.065 31.3578 230.571 32.2012 230.057 33.0308L228.52 35.5266L228.37 35.7666L228.136 35.5952C226.724 34.5256 225.372 33.3874 223.994 32.2835C222.636 31.1453 221.285 30.0071 219.982 28.8072C221.449 29.8014 222.869 30.8573 224.289 31.9132C225.681 33.0034 227.101 34.0593 228.466 35.1838L228.088 35.2524L229.659 32.7771C230.173 31.9475 230.722 31.1384 231.257 30.3225C232.32 28.6837 233.41 27.0587 234.521 25.4543H234.515Z"
        fill="#D1D668" />
    <path
        d="M229.577 21.6218C229.22 22.6435 228.823 23.6377 228.404 24.6319C228 25.6329 227.561 26.6066 227.115 27.5871L226.992 27.8613L226.731 27.7036C225.661 27.0591 224.605 26.4009 223.562 25.7152C222.52 25.0227 221.484 24.337 220.483 23.5828C221.615 24.1245 222.705 24.7347 223.796 25.3381C224.879 25.9552 225.956 26.586 227.019 27.2442L226.635 27.3608C227.094 26.3872 227.554 25.4204 228.055 24.4605C228.541 23.5005 229.042 22.5475 229.591 21.615L229.577 21.6218Z"
        fill="#D1D668" />
    <path
        d="M242.703 72.9445C243.643 87.3365 266.9 91.663 279.08 84.779C291.26 77.895 296.672 65.2651 302.968 63.8115C302.968 63.8115 284.937 55.8305 276.721 53.89C263.244 50.7086 241.846 59.7799 242.71 72.9377L242.703 72.9445Z"
        fill="#83A768" />
    <path
        d="M258.458 131.241C258.458 131.241 252.382 129.033 238.905 116.74C230.222 108.813 223.734 89.2034 230.826 83.5261C237.917 77.8489 251.133 83.1902 259.267 94.6681C267.401 106.146 258.458 131.241 258.458 131.241Z"
        fill="#6BA43D" />
    <path
        d="M217.169 66.884C220.227 67.6931 222.93 69.2907 225.323 71.142C227.717 73.0138 229.802 75.1874 231.736 77.4569C235.597 82.0097 238.786 87.0356 241.694 92.178C244.588 97.3342 247.16 102.648 249.533 108.044C251.892 113.447 254.06 118.932 255.966 124.5C253.888 118.994 251.55 113.584 249.033 108.27C246.502 102.963 243.779 97.7456 240.748 92.7265C237.709 87.7212 234.397 82.853 230.501 78.5402C228.554 76.3941 226.475 74.3646 224.164 72.671C221.867 70.9911 219.336 69.6267 216.654 69.0164L217.169 66.884Z"
        fill="#D1D668" />
    <path d="M159.204 49.2145C159.204 49.2145 208.227 59.8834 222.191 69.7432" stroke="#D1D668"
        stroke-width="1.48925" stroke-miterlimit="10" />
    <path
        d="M222.623 68.7436C228.638 71.4794 235.208 72.9124 241.854 72.9261C248.52 72.9741 255.139 71.8016 261.723 70.3412C268.348 68.9973 274.994 67.8385 281.653 66.7346C288.312 65.6307 294.972 64.5885 301.645 63.5943C295.006 64.7736 288.374 66.0078 281.756 67.3037C275.138 68.5996 268.526 69.9435 261.976 71.4725C255.447 73.1044 248.719 74.4757 241.868 74.5991C238.445 74.6677 235.003 74.3934 231.614 73.7489C228.233 73.1044 224.921 72.0759 221.745 70.7457L222.623 68.7367V68.7436Z"
        fill="#D1D668" />
    <path
        d="M206.702 61.7277C209.26 62.1665 211.88 62.3379 214.431 61.9882C216.983 61.6591 219.445 60.7472 221.537 59.273C223.635 57.7988 225.323 55.7624 226.495 53.4586C226.79 52.8827 227.051 52.2862 227.277 51.6828C227.387 51.3811 227.497 51.0725 227.586 50.7708C227.634 50.62 227.675 50.4554 227.709 50.3252L227.792 49.8452C228.018 48.563 228.148 47.2397 228.224 45.9232C228.512 40.6368 228.045 35.3092 227.359 30.0296C226.653 24.75 225.7 19.4979 224.493 14.3006C225.837 19.4636 226.934 24.6952 227.785 29.9679C228.608 35.2406 229.225 40.5751 229.081 45.9644C229.04 47.3083 228.951 48.6521 228.745 50.0029L228.676 50.5103C228.635 50.7091 228.594 50.8668 228.546 51.0382C228.457 51.3742 228.354 51.7033 228.237 52.0256C228.011 52.677 227.75 53.3146 227.449 53.9317C226.262 56.407 224.513 58.6422 222.271 60.2947C220.042 61.954 217.374 63.003 214.644 63.4281C211.908 63.8738 209.13 63.7572 206.435 63.3596L206.702 61.7345V61.7277Z"
        fill="#D1D668" />
    <path
        d="M260.083 80.9619C258.389 79.9266 256.723 78.8569 255.063 77.7736C253.39 76.704 251.757 75.5863 250.105 74.4893L249.947 74.3864L250.022 74.2013C250.962 71.9044 251.97 69.6348 252.937 67.3516C253.945 65.082 254.947 62.8125 256.016 60.5704C255.159 62.9016 254.233 65.2055 253.314 67.5093C252.361 69.7994 251.442 72.1032 250.454 74.3796L250.372 74.0916C252.004 75.2161 253.65 76.32 255.262 77.4788C256.887 78.617 258.499 79.7757 260.09 80.9551L260.083 80.9619Z"
        fill="#D1D668" />
    <path
        d="M285.26 75.1601C283.62 74.2482 282.009 73.2951 280.397 72.3352C278.778 71.3821 277.201 70.3811 275.596 69.4074L275.418 69.2977L275.507 69.0989C275.953 68.139 276.433 67.1928 276.899 66.2397L278.305 63.3873C279.265 61.4949 280.225 59.6025 281.241 57.7375C280.418 59.6985 279.54 61.6252 278.662 63.5588L277.311 66.4385C276.851 67.3985 276.419 68.3584 275.946 69.3115L275.857 69.0029C277.434 70.0177 279.032 70.9982 280.589 72.0335C282.16 73.0552 283.723 74.0905 285.26 75.167V75.1601Z"
        fill="#D1D668" />
    <path
        d="M290.492 70.6631C289.299 70.1351 288.14 69.5455 286.98 68.9626C285.828 68.3661 284.683 67.7559 283.544 67.1182L283.284 66.9742L283.476 66.748C284.182 65.9389 284.889 65.1298 285.629 64.3482C286.356 63.5597 287.097 62.7711 287.865 62.0169C287.234 62.8946 286.569 63.7379 285.897 64.5744C285.232 65.4178 284.539 66.2406 283.846 67.0634L283.778 66.6931C284.923 67.3102 286.048 67.9547 287.173 68.6061C288.29 69.2712 289.401 69.9363 290.492 70.6631Z"
        fill="#D1D668" />
    <path
        d="M273.821 82.0303C271.043 80.5013 268.293 78.9174 265.543 77.3335C264.165 76.5519 262.807 75.7359 261.435 74.9337L257.334 72.5202L257.121 72.3968L257.244 72.1842C258.637 69.8667 260.001 67.5354 261.407 65.2248C262.813 62.9141 264.226 60.6103 265.687 58.3339C264.405 60.7131 263.074 63.0649 261.737 65.4167C260.399 67.7686 259.028 70.0929 257.67 72.431L257.58 72.0951L261.661 74.5429C263.019 75.3657 264.384 76.1679 265.735 77.0044C268.444 78.6568 271.146 80.3161 273.814 82.0303H273.821Z"
        fill="#D1D668" />
    <path
        d="M282.275 79.9248C279.498 78.3958 276.747 76.8119 273.997 75.228C272.619 74.4464 271.261 73.6304 269.889 72.8282L265.788 70.4147L265.575 70.2913L265.699 70.0787C267.091 67.7612 268.456 65.43 269.862 63.1193C271.268 60.8086 272.68 58.5048 274.141 56.2284C272.859 58.6076 271.528 60.9594 270.191 63.3113C268.853 65.6631 267.482 67.9875 266.124 70.3256L266.035 69.9896L270.115 72.4374C271.473 73.2602 272.838 74.0624 274.189 74.8989C276.898 76.5513 279.6 78.2107 282.268 79.9248H282.275Z"
        fill="#D1D668" />
    <path
        d="M189.317 67.6681C201.758 61.0583 217.292 78.1586 217.82 91.8101C218.349 105.455 210.633 116.439 212.656 122.411C212.656 122.411 196.765 111.53 190.936 105.702C181.375 96.1367 177.932 73.7156 189.31 67.6749L189.317 67.6681Z"
        fill="#83A768" />
    <path
        d="M178.407 52.3151C183.352 55.8051 187.535 60.3784 190.574 65.5689C193.639 70.7456 195.724 76.4023 197.521 82.0384C199.407 87.6403 201.451 93.201 203.536 98.7411C205.628 104.281 207.761 109.808 209.948 115.313C207.61 109.869 205.312 104.411 203.063 98.9262C200.82 93.4409 198.612 87.9419 196.561 82.3744C194.606 76.7863 192.432 71.2941 189.319 66.3368C186.239 61.3795 182.138 57.1284 177.31 53.8989L178.407 52.3151Z"
        fill="#D1D668" />
    <path
        d="M204.893 77.9874C203.089 77.2743 201.306 76.527 199.523 75.7659C197.733 75.0185 195.97 74.2163 194.201 73.4415L194.482 73.3661C193.096 75.3545 191.656 77.3018 190.237 79.2696C188.789 81.2169 187.349 83.1642 185.854 85.0771C187.171 83.0407 188.543 81.0386 189.907 79.0434C191.306 77.0618 192.678 75.0665 194.098 73.1055L194.208 72.9478L194.379 73.0233C196.135 73.8323 197.911 74.6208 199.653 75.4573C201.409 76.2801 203.151 77.1235 204.886 77.9943L204.893 77.9874Z"
        fill="#D1D668" />
    <path
        d="M212.991 101.874C211.311 101.147 209.644 100.379 207.991 99.6042C206.332 98.8362 204.692 98.0203 203.046 97.2249L203.348 97.1427C202.799 98.0203 202.223 98.8842 201.661 99.755L199.96 102.354C198.808 104.075 197.656 105.796 196.449 107.482C197.477 105.679 198.554 103.91 199.631 102.148L201.277 99.515C201.832 98.6443 202.367 97.7598 202.944 96.8958L203.06 96.7176L203.245 96.8135C204.878 97.6432 206.524 98.4386 208.142 99.2956C209.768 100.139 211.386 100.989 212.984 101.881L212.991 101.874Z"
        fill="#D1D668" />
    <path
        d="M211.943 108.533C210.784 108.005 209.659 107.416 208.535 106.833C207.417 106.236 206.299 105.626 205.201 104.995L205.544 104.858C205.222 105.859 204.893 106.853 204.529 107.841C204.179 108.828 203.816 109.815 203.411 110.789C203.645 109.761 203.912 108.746 204.2 107.738C204.474 106.723 204.783 105.722 205.092 104.714L205.181 104.44L205.435 104.584C206.546 105.201 207.643 105.839 208.727 106.49C209.81 107.155 210.894 107.813 211.943 108.533Z"
        fill="#D1D668" />
    <path
        d="M212.835 88.847C210.044 87.5031 207.273 86.1112 204.516 84.7124C203.13 84.0199 201.759 83.3 200.38 82.5938L196.251 80.4614L196.574 80.3585C195.326 82.6829 194.098 85.021 192.829 87.3385C191.567 89.6561 190.292 91.9667 188.975 94.2568C190.12 91.8776 191.307 89.5189 192.507 87.1671C193.7 84.8153 194.935 82.4841 196.149 80.1391L196.258 79.9266L196.471 80.0362L200.579 82.2029C201.944 82.9297 203.322 83.6428 204.68 84.3833C207.41 85.8507 210.133 87.3248 212.828 88.847H212.835Z"
        fill="#D1D668" />
    <path
        d="M215.426 96.9524C212.634 95.6085 209.864 94.2167 207.107 92.8179C205.721 92.1254 204.35 91.4055 202.971 90.6992L198.842 88.5668L199.165 88.464C197.916 90.7884 196.689 93.1264 195.42 95.444C194.158 97.7615 192.882 100.072 191.566 102.362C192.711 99.9831 193.897 97.6244 195.098 95.2726C196.291 92.9208 197.526 90.5895 198.739 88.2446L198.849 88.032L199.062 88.1417L203.17 90.3084C204.535 91.0352 205.913 91.7483 207.271 92.4888C210.001 93.9561 212.724 95.4303 215.419 96.9524H215.426Z"
        fill="#D1D668" />
    <path d="M249.062 120.044L249.872 108.573L259.72 115.676" stroke="#D1D668"
        stroke-width="0.372312" stroke-miterlimit="10" />
    <path d="M243.327 113.4L245.295 99.7489L260.829 105.625" stroke="#D1D668"
        stroke-width="0.372312" stroke-miterlimit="10" />
    <path d="M255.953 95.3809L240.926 93.2554L237.586 110.911" stroke="#D1D668"
        stroke-width="0.372312" stroke-miterlimit="10" />
    <path d="M249.91 87.3165L236.714 85.3898L233.676 104.472" stroke="#D1D668"
        stroke-width="0.372312" stroke-miterlimit="10" />
    <path
        d="M122.736 134.633C127.16 149.964 121.426 166.468 129.979 171.871C129.979 171.871 114.019 169.698 103.986 157.513C82.4642 131.383 90.7559 123.752 92.1893 121.153C93.6227 118.554 95.6871 113.59 95.6871 113.59C95.6871 113.59 118.313 119.302 122.736 134.633Z"
        fill="#83A768" />
    <path
        d="M127.014 97.6537C127.014 97.6537 137.247 88.9115 137.22 78.0986C137.192 67.2858 149.64 44.7687 165.003 48.4507C180.366 52.1396 191.01 44.8167 191.01 44.8167C191.01 44.8167 193.52 81.431 158.837 95.4321C138.756 103.537 127.008 97.6468 127.008 97.6468L127.014 97.6537Z"
        fill="#6BA43D" />
    <path
        d="M36.6156 127.157C23.1253 120.958 16.4932 109.151 16.4932 109.151C16.4932 109.151 -13.9715 102.343 7.90661 95.6369C29.7847 88.9312 46.039 101.04 53.9329 106.032C61.8269 111.016 68.8635 113.025 68.8635 113.025C68.8635 113.025 50.106 133.362 36.6156 127.164V127.157Z"
        fill="#83A768" />
    <path
        d="M67.8416 143.287C74.8645 136.287 87.8268 144.645 92.3464 159.503C96.8592 174.361 84.7131 190.604 84.7131 190.604C84.7131 190.604 77.8067 185.119 74.0484 177.584C71.5794 172.633 60.3043 150.802 67.8416 143.287Z"
        fill="#6BA43D" />
    <path
        d="M85.1248 153.113C83.6708 152.311 82.258 151.453 80.8451 150.583C79.4323 149.726 78.0469 148.821 76.6616 147.915L77.0868 147.84C76.0512 149.211 75.0087 150.576 73.9319 151.92L72.3065 153.922C71.7441 154.573 71.2023 155.245 70.6262 155.883C71.0857 155.149 71.5795 154.45 72.0528 153.73L73.5341 151.618C74.5217 150.212 75.5505 148.834 76.5792 147.456L76.7576 147.216L77.0045 147.381C78.383 148.299 79.7615 149.211 81.1058 150.171C82.4569 151.124 83.8079 152.084 85.1179 153.099L85.1248 153.113Z"
        fill="#D1D668" />
    <path
        d="M88.6616 162.013C87.7632 161.402 86.8784 160.772 85.9869 160.154C85.0953 159.537 84.2243 158.886 83.3395 158.255C82.4617 157.618 81.5701 156.994 80.7059 156.342L78.0929 154.395L78.525 154.313C77.5031 156.082 76.392 157.803 75.3221 159.537C74.2111 161.252 73.1 162.973 71.9135 164.639C72.8463 162.815 73.8544 161.032 74.8626 159.256C75.9119 157.501 76.9201 155.725 78.0175 153.997L78.1958 153.716L78.4495 153.915L81.0283 155.897C81.8924 156.548 82.736 157.24 83.5864 157.905C84.4369 158.584 85.2942 159.243 86.1309 159.935C86.9745 160.621 87.818 161.3 88.6479 162.006L88.6616 162.013Z"
        fill="#D1D668" />
    <path
        d="M91.1541 169.711C90.2213 169.067 89.3092 168.408 88.3901 167.75C87.4711 167.099 86.5658 166.42 85.6537 165.755C84.7484 165.083 83.8294 164.425 82.9309 163.739L80.2356 161.696L80.6745 161.613C79.6526 163.382 78.5416 165.103 77.4717 166.838C76.3606 168.552 75.2496 170.273 74.0631 171.939C74.9958 170.116 76.004 168.333 77.0122 166.557C78.0615 164.802 79.0697 163.026 80.167 161.298L80.3453 161.017L80.5991 161.216L83.267 163.3C84.1585 163.986 85.0296 164.706 85.9143 165.412C86.7922 166.125 87.6837 166.818 88.5479 167.544C89.4189 168.264 90.2899 168.977 91.1541 169.711Z"
        fill="#D1D668" />
    <path
        d="M87.3459 175.85C85.4188 174.259 83.6081 172.559 81.8318 170.817L82.2982 170.79C80.5219 173.059 78.6907 175.288 76.6949 177.386C78.2724 174.959 80.0144 172.662 81.8044 170.406L82.0239 170.131L82.2708 170.378C84.0197 172.14 85.7411 173.937 87.3391 175.85H87.3459Z"
        fill="#D1D668" />
    <path
        d="M122.006 48.7616C122.006 48.7616 114.092 92.5547 83.956 107.79C76.1169 111.753 69.0323 113.694 62.8323 114.256"
        stroke="#D1D668" stroke-width="2.0291" stroke-miterlimit="10" />
    <path d="M163.914 83.4428C163.914 83.4428 134.107 113.475 105.09 88.6264" stroke="#D1D668"
        stroke-width="1.44271" stroke-miterlimit="10" />
    <path
        d="M110.493 154.325C108.539 150.088 106.652 145.816 104.828 141.524C103.004 137.225 101.241 132.898 99.5815 128.531C97.9218 124.163 96.3512 119.754 95.0207 115.249C94.3623 112.994 93.7588 110.717 93.3198 108.372C93.1072 107.2 92.9289 106.007 92.8672 104.779C92.8329 104.162 92.826 103.538 92.8878 102.887C92.9495 102.242 93.0524 101.564 93.3679 100.857L95.295 101.763C95.1167 102.112 95.0001 102.606 94.9384 103.113C94.8698 103.621 94.8493 104.162 94.863 104.718C94.8835 105.822 95.0001 106.946 95.1647 108.077C95.4939 110.333 96.0015 112.596 96.5638 114.838C97.7092 119.329 99.1014 123.772 100.59 128.181C102.078 132.59 103.676 136.971 105.329 141.332C106.989 145.686 108.703 150.026 110.5 154.332L110.493 154.325Z"
        fill="#D1D668" />
    <path
        d="M82.8181 110.306C80.7538 115.421 78.4219 120.33 75.8981 125.178C73.3742 130.011 70.6103 134.729 67.5652 139.254C66.0289 141.51 64.4309 143.718 62.7232 145.85C61.0086 147.976 59.198 150.019 57.2708 151.946C55.3299 153.866 53.245 155.641 51.0023 157.191C48.7596 158.734 46.3455 160.043 43.7599 160.887C46.3043 159.927 48.643 158.521 50.7965 156.903C52.95 155.271 54.9252 153.434 56.7633 151.459C58.5876 149.47 60.2816 147.372 61.8796 145.206C63.4707 143.025 64.9521 140.776 66.3718 138.486C69.1837 133.885 71.7076 129.113 73.9914 124.231C76.2684 119.356 78.3739 114.358 80.1502 109.332L82.8181 110.306Z"
        fill="#D1D668" />
    <path
        d="M84.8901 182.244C82.8669 173.653 80.7751 165.068 78.601 156.518C77.5174 152.24 76.4064 147.968 75.2542 143.71C74.102 139.452 72.9223 135.208 71.6261 131.012L73.6699 130.422C74.8084 134.714 75.8165 139.02 76.8041 143.326C77.7849 147.639 78.7245 151.952 79.6366 156.278C81.4678 164.918 83.2098 173.577 84.8901 182.244Z"
        fill="#D1D668" />
    <path
        d="M63.7192 115.529C59.4945 115.975 55.2629 116.098 51.0793 115.762C46.9026 115.399 42.7533 114.816 38.6932 113.877C34.633 112.958 30.6277 111.813 26.7048 110.462C22.7887 109.098 18.9274 107.569 15.2033 105.766C19.0234 107.356 22.9533 108.659 26.9174 109.784C30.8884 110.901 34.9142 111.806 38.9606 112.485C43.0139 113.178 47.1015 113.52 51.1753 113.637C55.2561 113.733 59.3093 113.37 63.2803 112.725L63.7192 115.529Z"
        fill="#D1D668" />
    <path
        d="M23.4759 117.799C23.4759 116.462 23.6679 115.125 24.004 113.815C24.196 113.171 24.4086 112.519 24.7378 111.916C25.0601 111.312 25.4579 110.73 25.9997 110.257V110.682C24.4497 109.482 22.9272 108.241 21.3909 107.02C19.8478 105.807 18.3527 104.545 16.837 103.297L14.5738 101.425L12.3379 99.5123C10.8428 98.2438 9.36826 96.9479 7.91429 95.6315C9.49857 96.7902 11.076 97.9627 12.6191 99.1695L14.951 100.966L17.2485 102.803C18.7779 104.031 20.321 105.238 21.823 106.499C23.3318 107.754 24.8544 108.981 26.3495 110.257L26.6033 110.476L26.3495 110.682C25.8626 111.073 25.4648 111.58 25.1356 112.135C24.7995 112.691 24.5595 113.301 24.34 113.925C24.1137 114.542 23.9491 115.186 23.8051 115.831C23.6679 116.482 23.5513 117.134 23.4759 117.799Z"
        fill="#D1D668" />
    <path
        d="M34.1599 123.025C34.8115 121.25 35.4836 119.481 36.1831 117.718C36.8895 115.963 37.5616 114.194 38.2955 112.453L38.3846 112.816L33.7896 109.141L29.2493 105.404C27.7268 104.17 26.2454 102.881 24.7503 101.612C23.2551 100.344 21.7806 99.0479 20.3129 97.7383C21.8903 98.9039 23.4677 100.076 25.0109 101.283C26.5609 102.49 28.1177 103.676 29.6402 104.91L34.2285 108.585L38.7687 112.329L38.947 112.48L38.8579 112.693C38.124 114.434 37.3216 116.148 36.5535 117.876C35.7785 119.604 34.9761 121.311 34.1599 123.019V123.025Z"
        fill="#D1D668" />
    <path
        d="M46.9086 123.276C47.2721 122.515 47.6562 121.768 48.0334 121.014C48.4174 120.266 48.7878 119.505 49.1787 118.765L51.5243 114.294L51.5791 114.658L47.1966 110.592C45.7358 109.234 44.3093 107.842 42.869 106.471C41.4219 105.1 40.0091 103.701 38.5894 102.295C37.1629 100.903 35.7707 99.4771 34.3853 98.0372C35.901 99.3331 37.4098 100.643 38.8843 101.98C40.3657 103.31 41.854 104.64 43.308 106.005C44.7619 107.362 46.2365 108.706 47.6767 110.084L51.9975 114.219L52.1689 114.383L52.0524 114.582L49.5148 118.95C49.0964 119.677 48.6506 120.397 48.2186 121.117C47.7865 121.836 47.3475 122.556 46.9017 123.276H46.9086Z"
        fill="#D1D668" />
    <path
        d="M163.2 82.6534C165.463 80.6993 167.706 78.7246 169.88 76.6608C172.068 74.6175 174.187 72.4988 176.279 70.3458C178.37 68.1929 180.394 65.985 182.383 63.7292C184.365 61.4734 186.306 59.1764 188.137 56.7972C186.443 59.2861 184.639 61.6928 182.794 64.0721C180.942 66.4444 179.036 68.7825 177.067 71.0658C175.099 73.349 173.09 75.6048 171.011 77.7921C168.947 79.9999 166.8 82.1255 164.633 84.2373L163.207 82.6603L163.2 82.6534Z"
        fill="#D1D668" />
    <path d="M181.256 75.3828L172.258 74.4777L165.29 56.39" stroke="#D1D668" stroke-width="0.479352"
        stroke-miterlimit="10" />
    <path d="M172.917 84.3391L160.346 86.2178L152.61 60.9169" stroke="#D1D668"
        stroke-width="0.479352" stroke-miterlimit="10" />
    <path d="M161.971 91.8606L149.399 93.7393L143.817 74.3762" stroke="#D1D668"
        stroke-width="0.479352" stroke-miterlimit="10" />
    <path
        d="M114.936 130.326C113.447 129.538 111.966 128.729 110.498 127.906L106.102 125.417L101.74 122.88C100.279 122.044 98.8459 121.152 97.4056 120.295L97.8171 120.158C96.9804 122.071 96.1231 123.977 95.2384 125.87C94.3742 127.769 93.4758 129.654 92.5568 131.533C93.3043 129.579 94.0656 127.639 94.868 125.705C95.6499 123.772 96.4592 121.845 97.2822 119.925L97.4125 119.623L97.6937 119.788C99.1476 120.638 100.615 121.468 102.049 122.345L106.376 124.944L110.677 127.598C112.103 128.489 113.523 129.394 114.936 130.32V130.326Z"
        fill="#D1D668" />
    <path
        d="M117.727 140.008C116.259 139.515 114.798 139 113.344 138.466C111.897 137.924 110.436 137.41 108.996 136.847L104.668 135.174C103.221 134.626 101.795 134.023 100.361 133.453L100.718 133.323L99.3325 135.785L97.9128 138.219C96.9732 139.844 95.9994 141.455 95.0049 143.06C95.8348 141.366 96.6783 139.686 97.5562 138.027L98.8593 135.524L100.204 133.042L100.327 132.823L100.567 132.919C102.007 133.481 103.461 134.016 104.888 134.605L109.188 136.347C110.621 136.93 112.041 137.547 113.468 138.143C114.894 138.747 116.307 139.371 117.72 140.015L117.727 140.008Z"
        fill="#D1D668" />
    <path
        d="M118.388 149.867C116.324 148.9 114.3 147.851 112.277 146.802C110.261 145.739 108.265 144.642 106.283 143.531L106.715 143.374C106.16 144.765 105.583 146.15 104.994 147.522C104.411 148.9 103.8 150.271 103.162 151.629C103.615 150.196 104.095 148.777 104.603 147.371C105.096 145.958 105.618 144.553 106.146 143.147L106.269 142.825L106.578 142.99C108.581 144.073 110.569 145.177 112.538 146.322C114.499 147.474 116.468 148.626 118.381 149.86L118.388 149.867Z"
        fill="#D1D668" />
    <path
        d="M121.07 162.203C120.055 161.449 119.054 160.681 118.066 159.892C117.086 159.104 116.084 158.329 115.11 157.527C113.156 155.936 111.229 154.297 109.315 152.652L109.795 152.357C110.124 153.79 110.426 155.23 110.721 156.677C111.023 158.117 111.297 159.563 111.551 161.017C111.126 159.604 110.714 158.192 110.337 156.766C109.953 155.347 109.576 153.92 109.219 152.494L109 151.617L109.699 152.199C111.64 153.811 113.567 155.436 115.467 157.102C116.42 157.931 117.353 158.782 118.293 159.625C119.232 160.468 120.158 161.332 121.07 162.203Z"
        fill="#D1D668" />
    <path
        d="M80.802 88.1382C68.6216 98.5671 47.1138 83.4277 43.136 68.398C39.1582 53.3684 45.0015 39.2506 41.2637 33.1208C41.2637 33.1208 61.6192 41.2596 69.5406 46.2924C82.5372 54.5408 91.9331 78.6006 80.7951 88.1382H80.802Z"
        fill="#83A768" />
    <path
        d="M96.7366 102.481C93.5681 101.144 90.5161 99.492 87.6905 97.5173C84.8648 95.5494 82.2587 93.273 79.92 90.7772C75.222 85.7856 71.5048 80.0192 68.1099 74.2048C64.6259 68.4453 60.9704 62.7817 57.2737 57.1388C53.5771 51.5026 49.8256 45.8939 46.0329 40.3195C49.9833 45.7842 53.8926 51.2832 57.7538 56.8165C61.6082 62.3498 65.4283 67.9173 69.0906 73.5946C72.6501 79.3199 76.4359 84.8737 81.1202 89.6116C85.777 94.3564 91.3871 98.0521 97.5459 100.445L96.716 102.481H96.7366Z"
        fill="#D1D668" />
    <path
        d="M60.9269 80.5389C63.1079 80.8886 65.2751 81.2726 67.4423 81.6771C69.6164 82.0611 71.7699 82.5136 73.9372 82.9387L73.6423 83.0964C74.6916 80.5458 75.8026 78.0226 76.8931 75.4856C78.011 72.9624 79.1289 70.4392 80.3154 67.9502C79.3621 70.542 78.3334 73.0995 77.3115 75.6639C76.2484 78.2077 75.2265 80.772 74.1292 83.3021L74.0401 83.501L73.8343 83.453C71.6808 82.9867 69.5204 82.5548 67.3669 82.0542C65.2134 81.5743 63.0667 81.0737 60.9269 80.5389Z"
        fill="#D1D668" />
    <path
        d="M45.9953 56.0146C48.0459 56.4054 50.0829 56.8442 52.113 57.2967C54.1499 57.7356 56.1731 58.243 58.2032 58.7092L57.8877 58.8806C58.2717 57.7699 58.7038 56.6659 59.1084 55.562L60.3498 52.2503C61.2003 50.0493 62.0575 47.8552 62.9766 45.6817C62.2839 47.9375 61.5226 50.1727 60.7613 52.4011L59.5817 55.7334C59.1839 56.8442 58.8067 57.9618 58.3815 59.0589L58.2923 59.2852L58.066 59.2234C56.0496 58.7092 54.0196 58.2292 52.0101 57.6807C49.9937 57.1459 47.9842 56.6042 45.9885 56.0077L45.9953 56.0146Z"
        fill="#D1D668" />
    <path
        d="M45.5085 48.3547C46.9281 48.6563 48.3204 49.0266 49.7195 49.3969C51.1117 49.7808 52.4971 50.1785 53.8825 50.6105L53.5327 50.8436C53.6425 49.6506 53.7591 48.4644 53.9168 47.2782C54.0608 46.092 54.2186 44.9058 54.4243 43.7264C54.4243 44.9264 54.3763 46.1194 54.3077 47.3125C54.2597 48.5055 54.1637 49.6986 54.0677 50.8916L54.0403 51.2207L53.7179 51.1247C52.3325 50.7133 50.954 50.2814 49.5823 49.8288C48.2175 49.3626 46.8458 48.8963 45.5016 48.3615L45.5085 48.3547Z"
        fill="#D1D668" />
    <path
        d="M49.4112 70.4464C52.8472 71.2486 56.2696 72.1057 59.685 72.9765C61.3996 73.4016 63.1005 73.861 64.8013 74.3066L69.9176 75.6505L69.5816 75.8425L70.7886 71.5023C71.1933 70.0555 71.5842 68.6019 72.0094 67.1621C72.8393 64.2754 73.676 61.3888 74.5745 58.5159C73.8955 61.4437 73.1616 64.3577 72.4141 67.2718C72.0506 68.7322 71.6528 70.179 71.2687 71.6326L70.1097 75.9865L70.0411 76.2539L69.7736 76.1853L64.671 74.8003C62.9701 74.3341 61.2693 73.8884 59.5684 73.3947C56.1735 72.4416 52.7786 71.4817 49.4043 70.4601L49.4112 70.4464Z"
        fill="#D1D668" />
    <path
        d="M44.5142 62.087C47.9503 62.8892 51.3726 63.7463 54.788 64.6171C56.5026 65.0422 58.2035 65.5016 59.9044 65.9473L65.0207 67.2911L64.6846 67.4831L65.8917 63.1429C66.2963 61.6962 66.6873 60.2426 67.1125 58.8027C67.9423 55.9161 68.779 53.0294 69.6775 50.1565C68.9985 53.0843 68.2647 55.9983 67.5171 58.9124C67.1536 60.3728 66.7559 61.8196 66.3718 63.2732L65.2127 67.6271L65.1441 67.8945L64.8767 67.826L59.774 66.4409C58.0732 65.9747 56.3723 65.529 54.6714 65.0353C51.2766 64.0823 47.8817 63.1224 44.5074 62.1007L44.5142 62.087Z"
        fill="#D1D668" />
    <path
        d="M66.9967 107.167C66.9967 107.167 66.7086 97.6984 70.7071 98.96C76.5504 100.804 71.4272 107.668 71.4272 107.668C71.4272 107.668 78.7656 101.278 80.8025 107.586C81.6667 110.267 74.438 112.282 74.438 112.282C74.438 112.282 80.3499 117.391 76.4887 121.169C72.6274 124.946 68.4507 114.819 68.4507 114.819C68.4507 114.819 65.1724 121.36 61.6746 119.639C58.1769 117.918 65.7279 112.344 65.7279 112.344C65.7279 112.344 56.7298 110.26 57.6899 105.995C58.6501 101.723 67.0036 107.16 67.0036 107.16L66.9967 107.167Z"
        fill="#EF9C3A" />
    <path
        d="M75.6379 108.562L72.6614 109.837C71.6875 110.276 70.7205 110.728 69.8564 111.284C69.0059 111.846 68.2104 112.566 67.4491 113.3C66.6878 114.047 65.9608 114.829 65.227 115.638C65.6796 114.643 66.29 113.725 66.9827 112.874C67.6823 112.024 68.471 111.249 69.4174 110.612C70.3776 110.015 71.3995 109.59 72.442 109.261C73.4844 108.932 74.5475 108.678 75.6379 108.562Z"
        fill="#F0D182" />
    <path
        d="M70.8517 105.057C70.4813 106.058 70.1247 107.045 69.8435 108.046C69.5692 109.04 69.3497 110.055 69.4046 111.029C69.4731 112.002 69.7406 113.038 70.0081 114.032C70.2893 115.033 70.6253 116.034 70.9683 117.042C70.3236 116.185 69.8229 115.232 69.4114 114.238C69.0068 113.23 68.6982 112.208 68.5953 111.077C68.5473 109.925 68.8353 108.848 69.24 107.847C69.6446 106.846 70.1796 105.907 70.8448 105.064L70.8517 105.057Z"
        fill="#F0D182" />
    <path
        d="M68.5195 105.166C68.6429 106.229 68.7733 107.271 68.979 108.286C69.1848 109.294 69.4522 110.302 69.9392 111.138C70.4467 111.975 71.1531 112.777 71.8389 113.545C72.5453 114.313 73.2929 115.047 74.061 115.794C73.1009 115.321 72.2161 114.697 71.4 113.998C70.5839 113.284 69.8432 112.516 69.2396 111.55C68.6772 110.549 68.444 109.452 68.348 108.375C68.2589 107.299 68.3 106.215 68.5126 105.166H68.5195Z"
        fill="#F0D182" />
    <path
        d="M63.3619 108.746C64.2466 109.336 65.1314 109.884 66.0435 110.351C66.9557 110.796 67.9159 111.18 68.8555 111.18C69.2875 111.18 69.843 111.057 70.3437 110.981L71.8937 110.741C72.9224 110.57 73.9581 110.426 74.9868 110.179C74.0815 110.748 73.0459 111.077 72.0309 111.365C71.5234 111.509 71.0021 111.619 70.4877 111.736C69.9597 111.825 69.4864 111.962 68.8623 111.982C67.6758 111.962 66.6471 111.468 65.7418 110.892C64.8365 110.303 64.034 109.583 63.3688 108.753L63.3619 108.746Z"
        fill="#F0D182" />
    <path
        d="M64.4448 107.73C64.9934 107.833 65.5078 108.018 66.0016 108.237C66.4954 108.457 66.9686 108.717 67.4281 109.012C67.8808 109.314 68.3197 109.643 68.7038 110.04C68.9027 110.239 69.081 110.452 69.2388 110.699C69.3073 110.829 69.3828 110.952 69.4171 111.11C69.4582 111.247 69.4582 111.439 69.3485 111.542C69.3759 111.398 69.2936 111.295 69.2113 111.206C69.129 111.117 69.033 111.035 68.937 110.959C68.7381 110.801 68.5186 110.664 68.306 110.527L66.9892 109.691C66.1182 109.108 65.2403 108.518 64.4516 107.737L64.4448 107.73Z"
        fill="#F0D182" />
    <path
        d="M69.7261 109.137C69.5546 109.645 69.0334 109.919 68.5739 109.761C68.1144 109.603 67.8743 109.062 68.0526 108.561C68.2241 108.054 68.7453 107.78 69.2048 107.937C69.6643 108.095 69.9044 108.637 69.7261 109.137Z"
        fill="#D1D668" />
    <path
        d="M71.5776 109.944C71.4062 110.451 70.8849 110.726 70.4254 110.568C69.9659 110.41 69.7259 109.868 69.9042 109.368C70.0757 108.861 70.5969 108.586 71.0564 108.744C71.5159 108.902 71.7559 109.443 71.5776 109.944Z"
        fill="#D1D668" />
    <path
        d="M71.2217 112.21C71.0502 112.717 70.529 112.991 70.0695 112.833C69.61 112.676 69.3699 112.134 69.5482 111.634C69.7197 111.126 70.2409 110.852 70.7004 111.01C71.16 111.167 71.4 111.709 71.2217 112.21Z"
        fill="#D1D668" />
    <path
        d="M68.9495 112.62C68.778 113.127 68.2568 113.401 67.7973 113.244C67.3377 113.086 67.0977 112.544 67.276 112.044C67.4475 111.536 67.9687 111.262 68.4282 111.42C68.8877 111.577 69.1278 112.119 68.9495 112.62Z"
        fill="#D1D668" />
    <path
        d="M68.0271 110.598C67.8556 111.106 67.3344 111.38 66.8749 111.222C66.4154 111.064 66.1754 110.523 66.3537 110.022C66.5251 109.515 67.0464 109.241 67.5059 109.398C67.9654 109.556 68.2054 110.098 68.0271 110.598Z"
        fill="#D1D668" />
    <path
        d="M99.3946 91.5162C99.3946 91.5162 104.552 85.2835 106.404 88.3484C109.106 92.8258 101.946 94.3411 101.946 94.3411C101.946 94.3411 110.258 94.3822 108.002 99.5795C107.042 101.787 101.267 98.9967 101.267 98.9967C101.267 98.9967 102.172 105.606 97.5634 105.853C92.9546 106.1 95.9928 97.2483 95.9928 97.2483C95.9928 97.2483 90.3484 101.177 88.9287 96.5146C87.509 91.8522 95.643 94.1217 95.643 94.1217C95.643 94.1217 88.3252 87.9508 94.0725 85.5167C99.1545 83.3637 99.3877 91.523 99.3877 91.523L99.3946 91.5162Z"
        fill="#EF9C3A" />
    <path
        d="M104.155 97.2822L101.528 96.4251C100.657 96.1577 99.7858 95.8972 98.9079 95.7669C98.0437 95.6503 97.1316 95.6572 96.2263 95.7052C95.321 95.76 94.402 95.8355 93.483 95.952C94.3403 95.5749 95.2455 95.3144 96.1714 95.1704C97.0973 95.0195 98.0438 94.9647 99.0108 95.095C99.9641 95.2527 100.856 95.5544 101.713 95.9315C102.57 96.3017 103.386 96.7542 104.155 97.2891V97.2822Z"
        fill="#F0D182" />
    <path
        d="M103.062 92.3389C102.253 92.7641 101.471 93.2097 100.731 93.6829C99.9968 94.1628 99.2767 94.6908 98.7692 95.3421C98.2617 96.0072 97.8502 96.8163 97.4592 97.6117C97.082 98.4139 96.7185 99.2367 96.3756 100.087C96.4579 99.175 96.6568 98.2768 96.9654 97.4128C97.274 96.5421 97.6513 95.7124 98.2274 94.9239C98.8446 94.156 99.6402 93.628 100.463 93.2166C101.286 92.7983 102.164 92.5104 103.062 92.3321V92.3389Z"
        fill="#F0D182" />
    <path
        d="M101.506 91.0912C100.978 91.8385 100.484 92.5859 100.038 93.347C99.5995 94.1081 99.2017 94.9034 99.044 95.7194C98.8931 96.5422 98.8931 97.4541 98.9068 98.3317C98.9342 99.2231 98.9822 100.121 99.0645 101.026C98.7216 100.176 98.4953 99.2848 98.3718 98.3729C98.2484 97.4541 98.2141 96.5422 98.3718 95.5822C98.5776 94.6223 99.044 93.7858 99.5926 93.0453C100.134 92.2979 100.786 91.6397 101.506 91.0843V91.0912Z"
        fill="#F0D182" />
    <path
        d="M96.1795 90.4736C96.4058 91.3512 96.6733 92.2014 96.9956 93.0174C97.3248 93.8196 97.7295 94.6081 98.3262 95.1361C98.6073 95.376 99.0257 95.6092 99.3961 95.8491L100.521 96.5691C101.282 97.0353 102.016 97.5427 102.818 97.9541C101.92 97.7964 101.069 97.4399 100.253 97.0422C99.8418 96.8502 99.4509 96.6239 99.0531 96.4114C98.6622 96.1714 98.285 95.9931 97.8735 95.6503C97.1259 94.9646 96.7419 94.0733 96.4881 93.1888C96.2412 92.2974 96.1383 91.3855 96.1726 90.4804L96.1795 90.4736Z"
        fill="#F0D182" />
    <path
        d="M97.4484 90.4404C98.0245 91.2015 98.3743 92.0585 98.6349 92.943C98.7515 93.3887 98.8475 93.8481 98.8749 94.3212C98.8886 94.5612 98.8818 94.8012 98.8406 95.0411C98.8132 95.1646 98.7858 95.288 98.724 95.4045C98.6692 95.5143 98.5663 95.6377 98.436 95.6445C98.6006 95.4731 98.532 95.2468 98.4977 95.0411C98.4566 94.8286 98.3948 94.616 98.34 94.4035L97.9696 93.1213C97.7364 92.2574 97.5101 91.3797 97.4484 90.4335V90.4404Z"
        fill="#F0D182" />
    <path
        d="M100.04 94.3218C99.6423 94.5481 99.1554 94.4384 98.9496 94.075C98.7439 93.7116 98.8947 93.2316 99.2925 93.0122C99.6903 92.7859 100.177 92.8957 100.383 93.2591C100.589 93.6224 100.438 94.1024 100.04 94.3218Z"
        fill="#D1D668" />
    <path
        d="M100.766 95.8853C100.368 96.1116 99.8809 96.0018 99.6752 95.6384C99.4694 95.275 99.6203 94.7951 100.018 94.5757C100.416 94.3494 100.903 94.4591 101.109 94.8225C101.314 95.1859 101.163 95.6659 100.766 95.8853Z"
        fill="#D1D668" />
    <path
        d="M99.2635 97.1333C98.8657 97.3596 98.3787 97.2499 98.173 96.8865C97.9672 96.5231 98.1181 96.0431 98.5159 95.8237C98.9137 95.5975 99.4006 95.7072 99.6064 96.0706C99.8121 96.434 99.6613 96.9139 99.2635 97.1333Z"
        fill="#D1D668" />
    <path
        d="M97.5745 96.1128C97.1767 96.3391 96.6898 96.2294 96.484 95.866C96.2783 95.5026 96.4291 95.0226 96.8269 94.8032C97.2247 94.577 97.7117 94.6867 97.9174 95.0501C98.1232 95.4135 97.9723 95.8934 97.5745 96.1128Z"
        fill="#D1D668" />
    <path
        d="M98.1241 94.2945C97.7263 94.5207 97.2393 94.411 97.0336 94.0476C96.8278 93.6842 96.9787 93.2043 97.3765 92.9849C97.7743 92.7586 98.2612 92.8683 98.467 93.2317C98.6727 93.5951 98.5219 94.0751 98.1241 94.2945Z"
        fill="#D1D668" />
    <path
        d="M91.6539 117.31C91.6539 117.31 95.1723 107.32 100.577 113.278C105.981 119.237 94.9048 120.903 94.9048 120.903C94.9048 120.903 105.919 121.822 102.614 127.574C99.3078 133.327 94.0406 126.834 94.0406 126.834C94.0406 126.834 95.1928 135.247 89.3221 135.555C83.4513 135.864 87.3263 124.598 87.3263 124.598C87.3263 124.598 78.1361 131.064 78.3282 123.666C78.5271 116.268 86.8737 120.622 86.8737 120.622C86.8737 120.622 78.6231 111.969 84.8779 109.665C91.1327 107.361 91.6402 117.31 91.6402 117.31H91.6539Z"
        fill="#EF9C3A" />
    <path
        d="M97.709 124.651L94.3621 123.554C93.2511 123.211 92.14 122.889 91.029 122.718C89.9316 122.567 88.7657 122.581 87.6135 122.636C86.4613 122.697 85.2954 122.814 84.1158 122.944C85.1994 122.457 86.3584 122.142 87.5381 121.95C88.7177 121.758 89.9248 121.689 91.1524 121.854C92.3663 122.06 93.5048 122.437 94.5953 122.924C95.6858 123.403 96.7351 123.966 97.7021 124.651H97.709Z"
        fill="#F0D182" />
    <path
        d="M96.3152 118.349C95.2933 118.898 94.292 119.453 93.3455 120.063C92.4128 120.68 91.4938 121.345 90.8491 122.182C90.2044 123.032 89.6763 124.061 89.1825 125.069C88.6956 126.09 88.2498 127.139 87.804 128.216C87.9 127.057 88.1675 125.912 88.5516 124.808C88.9425 123.697 89.4294 122.641 90.1564 121.64C90.9451 120.667 91.9602 119.995 93.0095 119.467C94.0588 118.939 95.1698 118.555 96.3152 118.342V118.349Z"
        fill="#F0D182" />
    <path
        d="M94.3347 116.766C93.6763 117.719 93.0316 118.665 92.4624 119.639C91.9068 120.612 91.3993 121.62 91.1936 122.655C91.0084 123.704 91.0015 124.863 91.0221 125.981C91.0495 127.112 91.1318 128.25 91.221 129.409C90.7752 128.333 90.5009 127.195 90.3431 126.036C90.1922 124.87 90.1374 123.704 90.3431 122.484C90.6037 121.257 91.2004 120.201 91.9 119.255C92.5995 118.308 93.4157 117.458 94.3416 116.752L94.3347 116.766Z"
        fill="#F0D182" />
    <path
        d="M87.5571 115.982C87.852 117.093 88.1812 118.183 88.5927 119.218C89.0179 120.24 89.5254 121.241 90.2936 121.913C90.6502 122.215 91.1851 122.516 91.6515 122.818L93.0849 123.737C94.0519 124.333 94.9915 124.964 96.0134 125.499C94.8612 125.314 93.7845 124.834 92.7489 124.34C92.2276 124.093 91.727 123.812 91.2194 123.538C90.7256 123.229 90.2387 123.003 89.7175 122.571C88.7641 121.7 88.2772 120.562 87.9549 119.438C87.6463 118.306 87.5022 117.141 87.5571 115.989V115.982Z"
        fill="#F0D182" />
    <path
        d="M89.17 115.936C89.5403 116.416 89.8283 116.937 90.0684 117.465C90.3153 118 90.5073 118.555 90.6788 119.118C90.8297 119.687 90.9531 120.27 90.9805 120.873C91.0011 121.175 90.9943 121.483 90.9394 121.792C90.9051 121.949 90.8708 122.107 90.7885 122.251C90.7199 122.395 90.5896 122.553 90.425 122.553C90.5485 122.457 90.5553 122.313 90.5553 122.182C90.5553 122.052 90.5347 121.915 90.5073 121.785C90.4593 121.517 90.377 121.243 90.3016 120.976L89.8283 119.344C89.5334 118.24 89.2454 117.129 89.1631 115.929L89.17 115.936Z"
        fill="#F0D182" />
    <path
        d="M92.4694 120.871C91.9619 121.159 91.3447 121.015 91.0772 120.555C90.8166 120.096 91.0086 119.486 91.5161 119.198C92.0236 118.91 92.6409 119.054 92.9084 119.513C93.169 119.973 92.977 120.583 92.4694 120.871Z"
        fill="#D1D668" />
    <path
        d="M93.3952 122.861C92.8877 123.149 92.2705 123.005 92.003 122.546C91.7424 122.086 91.9344 121.476 92.4419 121.188C92.9494 120.9 93.5667 121.044 93.8341 121.504C94.0948 121.963 93.9027 122.573 93.3952 122.861Z"
        fill="#D1D668" />
    <path
        d="M91.483 124.452C90.9755 124.74 90.3582 124.596 90.0908 124.137C89.8301 123.677 90.0222 123.067 90.5297 122.779C91.0372 122.491 91.6545 122.635 91.9219 123.094C92.1894 123.554 91.9905 124.164 91.483 124.452Z"
        fill="#D1D668" />
    <path
        d="M89.3361 123.156C88.8286 123.444 88.2114 123.3 87.9439 122.841C87.6764 122.381 87.8753 121.771 88.3828 121.483C88.8903 121.195 89.5076 121.339 89.7751 121.798C90.0357 122.258 89.8436 122.868 89.3361 123.156Z"
        fill="#D1D668" />
    <path
        d="M90.0346 120.844C89.5271 121.132 88.9099 120.988 88.6424 120.528C88.3818 120.069 88.5738 119.459 89.0813 119.171C89.5888 118.883 90.2061 119.027 90.4736 119.486C90.7342 119.945 90.5421 120.556 90.0346 120.844Z"
        fill="#D1D668" />
</svg>
