<svg width="776" height="910" viewBox="0 0 776 910" fill="none" xmlns="http://www.w3.org/2000/svg">
<path d="M596.334 90.0665C606.147 73.3938 606.825 31.8283 606.825 31.8283C606.825 31.8283 554.176 34.7567 526.284 74.5843C516.363 88.714 511.902 114.689 516.37 132.141C516.37 132.141 560.253 151.297 596.321 90.0162L596.334 90.0665Z" fill="#74B486"/>
<path d="M595.113 129.519C580.616 127.885 559.218 134.957 547.788 145.238C547.788 145.238 550.316 185.083 610.646 187.119C627.067 187.678 658.714 171.587 658.714 171.587C658.714 171.587 636.11 134.09 595.163 129.507L595.113 129.519Z" fill="#3D835B"/>
<path d="M517.2 222.223C501.633 229.695 484.855 249.95 479.98 267.302C479.98 267.302 508.087 305.174 569.61 269.584C586.33 259.893 607.674 224.239 607.674 224.239C607.674 224.239 561.061 201.276 517.2 222.223Z" fill="#42AA94"/>
<path d="M462.238 412.509C444.563 422.871 426.717 448.644 422.759 469.619C422.759 469.619 460.007 511.659 529.376 463.268C548.227 450.146 569.824 405.752 569.824 405.752C569.824 405.752 512.132 383.235 462.288 412.497L462.238 412.509Z" fill="#42AA94"/>
<path d="M184.262 208.38C184.262 208.38 173.088 256.295 179.595 277.997C203.437 357.86 259.351 347.305 259.351 347.305C269.51 328.403 271.841 297.397 264.512 278.581C243.854 225.49 184.262 208.38 184.262 208.38Z" fill="#3D835B"/>
<path d="M131.025 400.169C101.54 478.58 152.451 503.08 152.451 503.08C172.017 493.847 192.702 470.194 198.327 450.725C214.14 395.746 177.075 346.805 177.075 346.805C177.075 346.805 139.075 378.855 131.076 400.156L131.025 400.169Z" fill="#42AA94"/>
<path d="M468.68 547.868C410.528 514.222 378.473 546.695 378.473 546.695C382.9 563.14 403.525 586.036 418.213 593.084C459.693 612.902 504.356 590.894 504.356 590.894C504.356 590.894 484.494 557.041 468.68 547.868Z" fill="#3D835B"/>
<path d="M383.506 807.214C325.305 773.581 293.312 806.091 293.312 806.091C297.74 822.536 318.364 845.433 333.053 852.481C374.533 872.298 419.196 850.291 419.196 850.291C419.196 850.291 399.334 816.438 383.519 807.265L383.506 807.214Z" fill="#42AA94"/>
<path d="M366.312 704.528C302.081 726.023 305.844 770.963 305.844 770.963C321.364 778.336 352.577 777.885 367.656 771.446C410.265 753.386 422.876 705.857 422.876 705.857C422.876 705.857 383.785 698.662 366.312 704.528Z" fill="#74B486"/>
<path d="M501.132 347.361C515.818 353.553 550.283 349.869 550.283 349.869C550.283 349.869 543.128 307.821 507.683 289.423C495.111 282.91 473.238 281.963 459.125 287.354C459.125 287.354 447.179 324.594 501.132 347.361Z" fill="#74B486"/>
<path d="M367.613 258.559C378.21 247.953 386.049 227.71 385.016 213.674C381.08 161.066 324.754 145.432 324.754 145.432C324.754 145.432 317.8 180.606 321.047 198.099C331.504 255.108 367.6 258.509 367.6 258.509L367.613 258.559Z" fill="#74B486"/>
<path d="M473.103 115.458C473.103 115.458 506.09 91.9597 476.245 40.4435C468.148 26.4267 437.728 8.63141 437.728 8.63141C437.728 8.63141 417.338 47.6325 434.815 84.3378C440.996 97.34 458.259 111.394 473.103 115.458Z" fill="#74B486"/>
<path d="M559.365 73.4985C375.155 273.352 269.843 528.326 211.397 788.635C203.25 824.807 196.123 861.203 189.715 897.685L192.732 909.613C224.911 721.814 277.535 537.144 364.055 366.231C416.926 261.716 483.224 163.711 563.027 77.1776C565.249 74.7414 561.65 71.0999 559.378 73.5489L559.365 73.4985Z" fill="#004E2C"/>
<path d="M197.257 884.521C209.786 848.526 239.701 820.503 268.506 796.563C298.467 771.688 331.322 750.419 364.266 729.716C367.082 727.932 364.564 723.482 361.698 725.278C328.339 746.246 295.372 767.919 264.857 792.934C235.272 817.179 204.983 846.474 192.254 883.162C191.167 886.275 196.183 887.684 197.219 884.584L197.257 884.521Z" fill="#004E2C"/>
<path d="M259.444 803.889C294.521 798.819 330.025 815.756 362.526 826.117C365.727 827.128 367.162 822.213 363.961 821.202C330.35 810.48 294.457 793.694 258.133 798.919C254.823 799.382 256.133 804.352 259.381 803.852L259.444 803.889Z" fill="#004E2C"/>
<path d="M223.554 742.932C200.719 688.009 182.891 630.442 170.334 571.904C157.69 513.025 150.6 450.276 159.983 393.586C160.696 389.417 155.472 387.185 154.793 391.273C145.408 447.746 152.372 509.149 164.209 568.014C176.445 628.881 195.516 689.035 219.12 745.939C220.793 750.012 225.227 747.005 223.504 742.945L223.554 742.932Z" fill="#004E2C"/>
<path d="M250.21 658C275.324 596.813 320.825 545.516 372.108 503.949C423.515 462.243 484.315 429.086 548.964 413.055C552.185 412.24 550.938 407.308 547.717 408.123C481.859 424.459 421.125 458.296 368.522 500.358C316.358 542.041 270.559 594.912 245.258 656.629C243.995 659.679 248.997 661.038 250.223 658.05L250.21 658Z" fill="#004E2C"/>
<path d="M323.084 548.485C347.105 542.891 372.582 544.533 396.803 547.35C422.182 550.301 448.55 555.68 471.698 566.533C474.673 567.922 477.368 563.546 474.38 562.106C451.346 551.278 425.898 546.148 400.756 542.655C375.01 539.1 347.456 537.501 321.874 543.49C318.59 544.267 319.888 549.187 323.122 548.422L323.084 548.485Z" fill="#004E2C"/>
<path d="M302.231 504.177C304.161 455.28 288.665 406.934 270.347 362.249C251.155 315.588 226.238 270.215 195.09 230.274C193.043 227.686 189.351 231.297 191.398 233.886C220.776 271.49 243.898 313.997 262.792 357.573C282.573 403.174 299.032 453.846 297.081 504.14C296.952 507.44 302.165 507.513 302.244 504.227L302.231 504.177Z" fill="#004E2C"/>
<path d="M361.752 370.672C371.74 340.085 372.556 307.107 370.466 275.345C368.337 243.218 362.316 210.522 349.504 180.83C348.212 177.837 343.711 180.368 345.004 183.361C357.461 212.286 362.862 244.014 365.303 275.258C367.668 306.415 366.651 339.23 356.8 369.3C355.776 372.451 360.728 373.822 361.765 370.722L361.752 370.672Z" fill="#004E2C"/>
<path d="M383.952 328.207C423.486 286.345 483.221 255.545 541.32 251.934C544.643 251.736 544.793 246.611 541.469 246.809C481.936 250.462 420.841 281.605 380.303 324.578C378.018 326.977 381.629 330.668 383.952 328.207Z" fill="#004E2C"/>
<path d="M439.027 284.931C465.945 284.227 492.693 294.705 511.004 314.17C513.277 316.594 516.969 312.983 514.696 310.559C495.564 290.176 467.329 279.111 439.126 279.819C435.777 279.916 435.678 285.029 438.977 284.944L439.027 284.931Z" fill="#004E2C"/>
<path d="M465.479 197.322C482.385 145.815 479.592 87.7773 460.604 37.4776C459.463 34.4463 454.417 35.669 455.571 38.7506C474.255 88.2705 477.132 145.162 460.514 195.9C459.49 199.051 464.442 200.422 465.479 197.322Z" fill="#004E2C"/>
<path d="M492.067 161.424C524.862 132.298 581.209 141.875 618.492 155.685C621.618 156.822 623.052 151.908 619.926 150.771C580.703 136.274 522.746 127.318 488.418 157.795C485.931 160.031 489.58 163.66 492.067 161.424Z" fill="#004E2C"/>
</svg>
