<svg width="816" height="820" viewBox="0 0 816 820" fill="none" xmlns="http://www.w3.org/2000/svg">
<g clip-path="url(#clip0_4177_857)">
<path d="M752.611 358.896C778.677 331.616 794.746 293.125 788.113 256.129C777.836 198.859 715.054 162.797 656.757 166.254C661.802 128.884 652.179 88.244 625.086 62.1784C583.138 21.8188 511.107 29.5731 465.983 66.6628C448.045 33.4969 416.468 6.21683 379.191 1.07845C321.548 -6.86268 267.829 41.6249 253.067 98.2405C219.061 81.8911 177.487 78.5278 144.321 96.2785C93.0304 123.746 78.0824 194.562 99.4767 248.935C62.387 255.662 26.6986 277.336 10.3492 311.25C-15.0624 363.661 14.5533 429.712 63.7883 461.197C37.7228 488.477 21.6536 526.968 28.2868 563.964C38.5636 621.234 101.345 657.296 159.642 653.839C154.597 691.209 164.22 731.849 191.313 757.915C233.261 798.274 305.292 790.52 350.416 753.43C368.354 786.596 399.932 813.876 437.208 819.015C494.851 826.956 548.571 778.468 563.332 721.852C597.339 738.202 638.913 741.565 672.079 723.814C723.369 696.347 738.317 625.531 716.923 571.158C754.012 564.431 789.701 542.757 806.05 508.843C831.462 456.432 801.846 390.381 752.611 358.896Z" fill="#D67851"/>
<path d="M429.073 375.989C387.872 291.159 352.838 203.153 335.18 106.084C335.087 105.524 332.378 105.524 332.284 106.084C325.838 154.946 321.634 206.703 327.146 258.834C332.471 310.685 347.886 362.816 377.689 406.353C385.256 417.47 434.211 386.546 429.166 375.896L429.073 375.989Z" fill="#CC4423"/>
<path d="M436.931 377.56C439.266 275.073 425.253 172.492 405.26 71.2194C405.166 70.5655 402.457 70.7523 402.364 71.4063C392.087 174.267 365.087 278.716 377.232 380.643C378.727 393.536 436.651 390.546 436.931 377.654V377.56Z" fill="#CC4423"/>
<path d="M456.359 411.282C491.673 328.32 511.666 239.566 525.68 149.691C525.68 149.131 523.157 148.29 522.971 148.757C480.182 229.196 421.231 304.964 399.65 392.597C396.94 403.621 451.968 421.745 456.452 411.282H456.359Z" fill="#CC4423"/>
<path d="M491.303 416.045C541.285 372.789 579.683 318.042 613.223 259.745C613.41 259.372 611.448 257.596 611.074 257.783C555.299 295.62 486.725 322.527 447.3 375.592C442.348 382.319 484.95 421.464 491.303 416.045Z" fill="#CC4423"/>
<path d="M445.059 450.155C545.398 440.346 641.999 399.145 723.372 341.782C723.84 341.409 722.625 338.98 722.065 339.166C674.511 354.301 624.716 361.775 576.321 368.035C527.74 374.388 480.654 379.62 434.782 391.204C423.291 394.1 432.353 451.37 445.153 450.062L445.059 450.155Z" fill="#CC4423"/>
<path d="M444.781 452.775C529.424 494.256 629.856 499.955 719.17 477.813C719.731 477.72 719.544 475.01 718.983 474.917C673.112 470.713 628.828 457.073 587.441 441.658C545.867 426.149 507.189 409.333 466.642 397.187C456.552 394.198 434.037 447.544 444.874 452.869L444.781 452.775Z" fill="#CC4423"/>
<path d="M418.989 460.723C435.993 503.418 463.46 541.91 497.373 572.927C531.193 603.944 571.366 627.58 613.407 642.528C613.874 642.715 615.275 640.38 614.808 640.006C580.241 611.885 553.708 575.729 532.127 539.761C510.359 503.605 493.169 467.917 472.428 434.19C467.29 425.876 414.505 449.792 418.896 460.817L418.989 460.723Z" fill="#CC4423"/>
<path d="M400.483 463.234C416.832 567.122 449.344 668.208 487.461 766.958C487.742 767.519 490.357 766.958 490.264 766.304C481.575 660.641 489.143 550.493 458.686 449.687C454.856 436.981 398.427 450.061 400.483 463.234Z" fill="#CC4423"/>
<path d="M409.824 387.924C355.357 485.273 315.278 590.47 281.084 697.254C280.898 697.908 283.327 699.029 283.7 698.469C345.267 604.577 422.437 517.131 463.824 413.523C469.056 400.443 416.738 375.592 409.824 387.924Z" fill="#CC4423"/>
<path d="M393.389 399.146C280.719 435.956 173.187 488.274 68.9243 545.73C68.2703 546.104 69.298 548.626 69.952 548.44C185.425 519.011 307.999 504.903 415.438 454.641C428.984 448.288 407.59 394.475 393.296 399.146H393.389Z" fill="#CC4423"/>
<path d="M381.153 383.071C290.157 374.103 199.255 367.563 106.297 351.961C105.736 351.961 104.896 354.483 105.363 354.67C147.03 376.905 190.193 400.168 236.345 417.358C282.31 434.549 331.264 445.479 380.312 442.77C392.738 442.116 392.645 384.193 381.247 382.978L381.153 383.071Z" fill="#CC4423"/>
<path d="M343.968 360.816C281.092 318.027 219.806 273.37 164.872 214.325C164.498 213.951 162.256 215.446 162.443 215.82C176.924 253.47 193.833 292.989 218.591 328.677C243.068 364.272 275.674 395.757 315.566 413.32C325.843 417.898 351.815 366.047 343.968 360.722V360.816Z" fill="#CC4423"/>
<path d="M494.103 238.446C575.382 279.46 657.316 378.117 623.122 467.805C581.361 577.206 458.881 632.046 349.481 590.378C271.471 560.576 191.966 462.386 213.827 372.885C239.146 269.37 367.512 190.893 469.905 227.983C477.847 230.879 485.975 234.429 494.103 238.446Z" fill="#EEE435"/>
</g>
<defs>
<clipPath id="clip0_4177_857">
<rect width="814.386" height="819.618" fill="white" transform="translate(0.90625 0.222656)"/>
</clipPath>
</defs>
</svg>
