<svg width="770" height="1642" viewBox="0 0 770 1642" fill="none" xmlns="http://www.w3.org/2000/svg">
<path d="M431.594 998.356C447.052 806.106 578.771 627.849 758.086 556.66C758.737 653.721 727.007 750.7 669.161 828.642C611.315 906.583 527.597 964.999 431.675 998.356H431.594Z" fill="#7ABD5B"/>
<path d="M427.367 996.325C461.538 965.49 494.569 933.516 525.73 899.752C557.134 866.232 586.83 831.167 614.736 794.637C670.141 721.333 717.573 641.846 755.405 557.965L755.893 558.209C719.526 642.822 673.152 723.123 618.316 797.322C591.061 834.503 561.446 870.056 529.798 903.576C497.824 936.77 463.979 968.337 427.774 996.813L427.449 996.406L427.367 996.325Z" fill="#A1DA86"/>
<path d="M528.903 903.067C527.926 891.433 528.089 879.88 528.252 868.409C528.496 856.856 529.716 845.384 530.611 833.831C532.32 810.807 534.11 787.782 536.144 764.758H536.713C536.306 787.864 535.737 810.969 535.005 833.994C534.679 845.547 534.679 857.1 533.784 868.571C532.645 880.043 531.669 891.596 529.472 902.986H528.903V903.067Z" fill="#A1DA86"/>
<path d="M601.721 819.787C601.558 808.559 602.535 797.494 603.348 786.429C604.406 775.365 606.358 764.463 608.067 753.479C611.321 731.512 614.738 709.627 618.237 687.66H618.806C616.854 709.871 614.738 731.919 612.46 753.967C611.403 765.032 610.589 776.097 608.881 787.08C607.009 797.982 605.219 808.966 602.291 819.787H601.721Z" fill="#A1DA86"/>
<path d="M665.096 729.303C665.258 719.296 666.641 709.533 667.862 699.77C669.245 690.007 671.604 680.407 673.638 670.725C677.625 651.443 681.693 632.08 685.923 612.879H686.493C683.808 632.486 680.961 652.012 678.032 671.538C676.567 681.301 675.428 691.146 673.394 700.746C671.198 710.346 669.001 720.028 665.747 729.384H665.177L665.096 729.303Z" fill="#A1DA86"/>
<path d="M621.73 787.459C628.239 783.798 634.992 780.95 641.501 777.777C648.091 774.685 654.925 772.163 661.515 769.072C674.614 762.807 687.305 755.403 699.347 747.023L699.672 747.43C688.607 757.112 676.485 765.655 663.549 772.977C657.121 776.638 650.613 780.38 643.616 782.821C636.538 785.181 629.46 787.296 621.893 787.947L621.73 787.459Z" fill="#A1DA86"/>
<path d="M689.266 688.308C692.276 683.671 696.1 679.928 699.842 676.104C703.666 672.362 708.141 669.433 712.371 666.26C720.751 659.751 729.294 653.405 737.918 647.141L738.243 647.547C730.677 655.032 722.948 662.355 715.219 669.596C711.395 673.257 707.734 677.162 703.422 680.335C699.029 683.345 694.717 686.518 689.672 688.715L689.347 688.308H689.266Z" fill="#A1DA86"/>
<path d="M550.787 876.877C558.191 874.843 565.432 873.541 572.673 871.588C579.832 869.798 587.154 868.578 594.314 866.463C608.552 862.232 622.383 856.293 635.4 848.727L635.725 849.215C623.603 858.164 610.097 865.405 595.778 870.693C588.619 873.378 581.378 875.9 573.812 877.039C566.245 878.016 558.516 878.585 550.95 877.446V876.877H550.787Z" fill="#A1DA86"/>
<path d="M428.665 1240.71C454.7 1142.1 423.54 1030.4 346.086 945.051C268.552 859.706 146.433 802.429 22.6048 793.398C20.6522 892.493 61.0061 994.761 134.88 1077.83C208.753 1160.9 315.577 1224.27 428.584 1240.71H428.665Z" fill="#7ABD5B"/>
<path d="M29.522 791.941C70.2013 821.149 108.765 853.123 145.946 886.724C182.802 920.651 217.948 956.53 251.061 994.118C317.694 1068.89 377.249 1150 427.61 1236.48L427.04 1236.81C375.052 1151.38 314.44 1071.33 247.238 997.535C213.392 960.76 178.164 925.451 141.634 891.443C105.348 857.11 67.5165 824.485 29.1152 792.43L29.522 791.941Z" fill="#A1DA86"/>
<path d="M79.3906 919.98C88.9909 921.445 98.2657 923.56 107.622 925.106C116.897 926.815 126.172 929.093 135.528 930.476C154.322 933.161 173.441 933.893 192.56 932.672V933.323C173.685 936.415 154.24 937.147 134.958 935.52C125.277 934.788 115.595 933.893 106.158 931.289C96.8013 928.604 87.6078 925.431 79.1465 920.55L79.3906 919.98Z" fill="#A1DA86"/>
<path d="M211.516 958.493C211.109 949.869 211.272 941.652 210.703 933.354C210.296 925.055 210.459 916.838 209.482 908.539C207.53 892.023 203.218 875.67 196.465 860.212L197.034 859.887C205.414 874.613 211.353 890.884 214.526 907.726C216.154 916.105 217.537 924.729 217.049 933.354C216.398 941.978 215.259 950.52 212.086 958.575H211.435L211.516 958.493Z" fill="#A1DA86"/>
<path d="M147.818 1016.42C169.052 1020.32 190.205 1023.01 211.521 1024.15C232.756 1025.45 254.235 1025.61 275.551 1023.33L273.679 1025.12C278.805 997.056 280.595 968.173 278.48 939.535H279.13C282.548 968.092 282.303 997.218 277.991 1025.86L277.747 1027.48L276.12 1027.73C254.641 1030.49 232.919 1032.12 211.196 1030.82C189.555 1029.27 167.913 1025.04 147.736 1017.15L147.899 1016.5L147.818 1016.42Z" fill="#A1DA86"/>
<path d="M221.204 1109.71C231.536 1110.12 241.625 1111.34 251.795 1111.99C261.883 1112.81 271.971 1114.27 282.06 1114.92C302.318 1116.06 322.821 1115.57 343.16 1113.38V1114.03C323.146 1118.09 302.562 1120.13 281.897 1120.05C271.565 1120.05 261.232 1120.05 250.981 1118.34C240.811 1116.55 230.641 1114.35 221.041 1110.37L221.204 1109.71Z" fill="#A1DA86"/>
<path d="M368.705 1146.27C366.834 1136.27 366.02 1126.34 364.881 1116.42C363.905 1106.49 363.823 1096.56 363.091 1086.56C361.545 1066.71 359.186 1046.77 355.932 1027L356.582 1026.84C361.627 1046.28 365.451 1066.05 368.217 1085.99C369.6 1095.91 371.146 1105.92 371.308 1116.01C371.308 1126.1 371.146 1136.19 369.356 1146.19H368.705V1146.27Z" fill="#A1DA86"/>
<path d="M373.753 1621.58C418.175 1438.44 446.651 1250.91 450.963 1061.91C452.834 980.636 454.787 893.257 446.244 807.668C437.864 722.16 418.907 638.686 382.459 568.555C381.32 566.358 378.716 568.067 379.204 570.426C417.362 745.347 428.345 925.068 417.524 1104.14C411.666 1200.63 398.812 1296.47 381.157 1391.17C376.357 1415.66 372.126 1440.31 366.512 1464.64L358.621 1501.25L349.834 1537.62C342.837 1567.56 332.26 1595.71 336.817 1625.4C340.315 1648.92 367.814 1646.47 373.835 1621.58H373.753Z" fill="#7DB563"/>
<g clip-path="url(#clip0_4187_1822)">
<path d="M599.821 354.18C644.761 348.511 772.022 348.511 757.317 424.809C743.321 497.327 642.044 476.067 593.443 465.556C541.948 454.395 491.988 438.391 442.915 419.08C441.793 418.608 440.789 418.549 439.844 418.667C441.793 414.769 443.328 410.577 444.568 406.207C506.043 409.455 567.813 411.581 629.348 411.935C635.489 411.935 635.371 402.723 629.348 402.427C568.286 400.301 506.929 399.829 445.808 400.419C446.399 397.112 446.871 393.805 446.989 390.38C446.989 389.849 446.93 389.376 446.93 388.786C447.521 388.786 448.052 388.845 448.702 388.668C467.599 382.88 487.382 376.916 507.342 370.302C538.227 365.046 568.758 358.137 599.821 354.18ZM717.397 451.678C732.633 445.478 746.156 429.592 744.739 412.289C744.384 408.274 739.01 408.392 738.538 412.289C736.589 427.702 730.152 440.399 715.448 447.072C712.85 448.253 714.68 452.8 717.338 451.737L717.397 451.678ZM726.964 404.199C729.267 399.947 722.594 396.168 720.586 400.419C716.157 409.691 711.373 418.903 707.417 428.352C706.118 431.423 710.96 433.194 712.613 430.596C717.81 422.033 722.298 412.998 727.023 404.258L726.964 404.199Z" fill="#DAFFCC"/>
<path d="M467.592 442.828C561.074 484.579 734.987 566.368 641.151 660.973C585.522 717.133 517.433 665.52 489.855 609.478C463.281 555.562 445.269 496.094 424.01 439.934C423.833 439.462 423.537 439.166 423.242 438.812C425.841 436.804 428.203 434.442 430.447 432.021V432.198C451.942 484.52 482.709 536.369 517.669 580.896C520.858 584.911 527.649 579.715 524.815 575.404C493.221 527.629 463.812 479.795 434.817 430.367C434.403 429.6 433.518 429.304 432.75 429.304C433.222 428.832 433.695 428.36 434.108 427.828C434.699 428.123 435.289 428.36 435.939 428.714C436.588 430.072 437.769 431.194 439.423 431.962C448.694 435.741 458.143 439.344 467.592 442.946V442.828Z" fill="#DAFFCC"/>
<path d="M472.905 603.935C486.015 644.092 501.842 706.866 467.886 733.736C436.233 758.775 361.057 757.594 339.739 718.264C319.306 680.587 341.333 620.648 350.073 581.672C360.054 537.382 371.215 493.328 383.38 449.51C385.329 449.805 387.336 449.982 389.344 449.982C390.407 450.041 391.47 449.923 392.592 449.923C392.769 504.607 392.533 559.409 394.954 614.034C395.072 617.104 399.62 617.104 399.738 614.034C402.159 558.996 401.864 503.839 402.159 448.742C405.761 447.915 409.363 446.793 412.67 445.258C428.851 488.603 444.678 532.126 461.331 575.353C464.933 584.92 468.772 594.428 472.964 603.935H472.905Z" fill="#DAFFCC"/>
<path d="M352.966 433.625C357.513 438.467 363.005 442.424 369.029 445.259C357.808 462.207 272.476 569.744 264.858 579.783C263.322 581.791 266.747 584.508 268.401 582.559C290.31 556.398 312.16 530.237 333.833 503.899C341.746 494.155 354.029 482.758 364.186 470.829C347.061 531.359 330.939 593.07 321.608 655.077C321.49 656.258 321.313 657.498 321.136 658.679C300.408 698.009 268.106 722.516 220.036 709.111C165.765 694.052 128.798 635.943 158.561 582.736C178.816 546.595 216.788 520.198 249.74 496.754C282.574 473.191 317.12 452.463 352.907 433.684L352.966 433.625ZM252.752 671.789C257.594 671.435 257.299 664.998 252.752 664.407C233.914 661.986 218.796 655.786 207.28 640.018C205.331 637.243 200.962 639.664 202.733 642.735C212.595 659.565 232.614 673.265 252.752 671.848V671.789ZM225.823 684.427C230.784 684.604 230.547 677.458 225.823 676.868C201.021 673.974 182.891 655.549 179.761 630.806C179.348 628.03 175.391 627.853 175.273 630.806C174.269 658.148 198.717 683.541 225.823 684.427Z" fill="#DAFFCC"/>
<path d="M340.327 411.816C341.449 415.536 342.867 419.079 344.697 422.386C296.805 447.543 250.152 476.539 207.929 510.613C168.481 518.231 129.86 522.423 89.5258 511.912C67.9121 506.243 46.5346 497.089 30.5901 481.027C-2.89345 447.248 21.5548 405.32 59.4674 390.497C98.3248 375.32 145.214 373.371 186.433 372.013C237.751 370.36 288.36 375.084 338.792 384.296C338.91 384.296 338.969 384.237 339.146 384.237C338.615 386.659 338.142 389.08 337.965 391.619C337.67 394.985 337.847 398.292 338.142 401.481C280.506 410.634 221.039 419.374 164.938 434.61C162.103 435.378 162.516 440.102 165.587 439.866C223.814 435.024 282.868 422.918 340.387 411.756L340.327 411.816Z" fill="#DAFFCC"/>
<path d="M364.666 351.934C359.941 354.415 355.748 357.663 351.969 361.442C308.801 324.947 263.861 290.4 216.677 259.22C213.429 257.094 210.712 262.114 213.665 264.417C258.664 298.255 302.836 332.919 345.591 369.532C345.001 370.477 344.233 371.363 343.701 372.367C343.229 372.19 342.816 371.895 342.225 371.777C333.308 370.005 324.273 368.41 315.237 366.993C263.447 348.568 212.189 330.734 163.705 303.983C139.552 290.696 115.576 275.991 96.6792 255.677C68.0972 225.028 38.3931 160.305 99.0414 144.301C161.461 127.825 226.302 176.013 267.699 216.524C308.269 256.09 338.741 301.916 364.666 351.934ZM126.088 184.222C130.458 182.627 128.805 175.954 124.139 177.135C111.088 180.383 100.813 193.611 101.344 207.134C101.463 210.146 106.482 211.209 107.014 207.902C108.903 196.682 115.281 188.178 126.088 184.222ZM97.0335 175.895C99.6319 172.647 95.7344 168.809 92.5454 171.407C79.4945 181.564 78.4316 201.465 85.8133 215.166C87.4668 218.355 92.014 215.579 90.5967 212.39C84.4551 199.28 88.5298 186.584 97.0335 175.895Z" fill="#DAFFCC"/>
<path d="M460.799 11.1574C552.45 17.8895 514.597 118.576 494.4 171.784C471.724 231.428 442.846 288.533 414.087 345.461C408.418 343.808 402.394 342.922 396.194 342.626C401.981 297.509 409.304 254.577 425.721 211.881C427.965 206.094 418.575 203.555 416.449 209.342C400.623 251.506 389.58 297.155 390.82 342.508C388.458 342.567 386.155 342.626 383.851 342.922C381.43 343.217 379.895 344.575 379.068 346.347C378.182 346.524 377.296 346.878 376.47 347.115C376.411 346.937 376.411 346.642 376.293 346.347C373.222 339.497 369.915 332.764 366.49 326.032C353.793 269.754 345.644 212.708 350.191 154.776C354.856 94.7776 384.619 5.60629 460.799 11.1574ZM497.058 70.4474C497.943 74.8764 505.62 73.9316 505.089 69.3844C502.372 47.4164 483.239 28.5192 461.153 26.2161C457.846 25.8618 457.196 31.2356 460.385 32.0033C480.227 36.7277 493.042 50.5463 497.058 70.4474ZM485.837 87.3958C486.487 92.0611 494.4 90.9391 494.046 86.2738C492.747 68.9711 481.467 51.314 466.113 43.1645C463.751 41.8653 460.799 45.1724 463.102 47.0621C476.684 58.0461 483.357 70.2112 485.837 87.3958Z" fill="#DAFFCC"/>
<path d="M703.806 123.538C735.223 153.656 718.51 208.694 698.609 239.52C682.015 265.327 658.216 285.169 632.174 300.995C581.86 331.467 524.519 349.656 468.949 369.025C464.106 369.793 459.323 370.443 454.481 371.033C452.237 371.328 451.41 373.513 451.882 375.049C449.934 375.816 447.926 376.466 445.918 377.175C444.501 370.738 441.725 365.246 438.064 360.758C487.433 323.967 535.798 284.224 581.919 243.654C586.466 239.638 579.97 233.556 575.423 237.158C527.117 274.834 479.106 314.755 433.93 356.329C431.627 354.262 429.147 352.372 426.371 350.719C426.725 350.541 426.962 350.246 427.139 349.774C452.532 291.96 480.878 236.449 520.798 187.08C538.278 165.408 557.766 142.318 581.21 126.786C612.036 106.354 673.452 94.3659 703.865 123.42L703.806 123.538Z" fill="#DAFFCC"/>
<path d="M435.177 387.259C435.472 412.594 418.996 437.691 391.89 438.282C386.28 438.4 381.083 437.396 376.241 435.506C376.182 435.506 376.182 435.447 376.123 435.447C375.532 434.975 374.824 434.798 374.233 434.621C363.603 429.896 355.395 420.743 351.556 409.582C357.698 408.283 355.336 399.72 349.549 399.779C349.43 398.716 349.253 397.712 349.194 396.531C348.781 373.618 367.501 357.792 388.347 353.953C410.551 354.426 434.881 358.914 435.236 387.2L435.177 387.259Z" fill="#A7F866"/>
<path d="M678.886 343.322C720.401 349.699 778.038 374.797 768.707 426.351C758.845 481.035 697.488 493.791 651.013 488.948C616.88 485.405 582.629 478.437 549.027 469.283C581.92 485.818 613.337 505.011 640.679 528.751C686.445 568.376 693.709 630.205 646.997 673.551C604.183 713.235 545.248 701.542 507.807 660.795C502.906 655.48 498.477 649.693 494.402 643.787C503.024 677.507 504.619 714.593 485.485 738.333C461.686 767.741 402.751 767.564 370.153 757.584C330.351 745.36 318.481 711.109 319.78 674.614C305.548 707.566 278.974 729.711 237.991 726.167C194.763 722.447 153.189 695.696 138.721 653.59C121.477 603.395 151.181 559.695 187.618 527.569C188.681 526.625 189.862 525.739 190.925 524.794C148.465 536.723 99.9817 532.707 60.6519 516.113C24.8652 501.054 -11.2167 466.331 4.25544 424.402C22.2669 375.565 84.2734 368.774 128.446 363.4C169.96 358.38 211.712 357.435 253.344 360.152C202.027 343.676 151.89 318.578 111.615 287.929C87.6985 269.681 66.6163 246.768 56.1638 218.068C48.723 197.754 41.9908 163.384 58.2306 145.373C76.5373 124.999 119.174 126.594 142.914 130.255C177.815 135.57 209.704 152.223 237.813 173.069C281.986 205.844 320.489 248.658 349.72 296.197C335.252 234.131 332.122 166.219 346.65 106.516C359.819 51.5956 405.762 -9.7023 469.718 1.34076C491.686 5.17926 512.709 18.2302 524.52 37.3636C540.051 62.5205 532.551 90.6892 524.697 117.204C516.252 146.082 505.918 174.25 494.461 202.006C510.051 180.569 527.295 160.373 545.661 142.007C584.814 102.854 670.914 67.6582 715.913 118.74C760.144 169.054 716.327 249.131 675.048 285.272C643.572 312.909 603.947 333.46 562.668 350.231C601.112 342.554 639.793 337.239 678.945 343.322H678.886ZM757.31 424.816C772.014 348.577 644.753 348.577 599.813 354.187C568.751 358.144 538.22 365.053 507.335 370.309C487.375 376.923 467.592 382.888 448.695 388.675C448.104 388.852 447.573 388.793 446.923 388.793C446.923 389.384 446.982 389.856 446.982 390.387C446.864 393.813 446.391 397.12 445.801 400.427C506.922 399.836 568.279 400.308 629.34 402.434C635.364 402.73 635.482 411.942 629.34 411.942C567.806 411.588 506.036 409.462 444.561 406.214C443.38 410.584 441.785 414.777 439.836 418.674C440.781 418.556 441.785 418.615 442.907 419.088C491.922 438.398 541.882 454.402 593.435 465.563C642.037 476.075 743.314 497.275 757.31 424.816ZM698.61 239.564C718.511 208.679 735.165 153.7 703.807 123.582C673.394 94.5277 611.919 106.516 581.152 126.948C557.767 142.479 538.22 165.629 520.74 187.242C480.82 236.611 452.474 292.063 427.081 349.936C426.963 350.408 426.667 350.703 426.313 350.88C429.089 352.475 431.569 354.365 433.872 356.491C479.048 314.917 527.059 274.996 575.365 237.32C579.912 233.777 586.467 239.8 581.861 243.816C535.74 284.386 487.375 324.129 438.006 360.92C441.726 365.408 444.443 370.9 445.86 377.337C447.868 376.569 449.876 375.919 451.824 375.211C451.352 373.675 452.238 371.431 454.423 371.195C459.265 370.604 464.049 369.896 468.891 369.187C524.461 349.817 581.802 331.57 632.116 301.157C658.159 285.331 681.957 265.489 698.551 239.682L698.61 239.564ZM641.21 661.031C735.047 566.427 561.133 484.637 467.651 442.886C458.143 439.343 448.754 435.682 439.482 431.902C437.829 431.135 436.648 430.013 435.998 428.654C435.407 428.3 434.817 428.064 434.167 427.768C433.754 428.3 433.282 428.772 432.809 429.245C433.636 429.245 434.463 429.599 434.876 430.308C463.871 479.736 493.221 527.628 524.874 575.344C527.709 579.655 520.917 584.911 517.728 580.836C482.769 536.309 452.002 484.46 430.506 432.138V431.961C428.262 434.383 425.959 436.745 423.301 438.753C423.597 439.166 423.833 439.402 424.069 439.875C445.328 496.035 463.34 555.502 489.914 609.418C517.492 665.519 585.581 717.073 641.21 660.913V661.031ZM494.461 171.829C514.658 118.563 552.511 17.8758 460.86 11.2028C384.68 5.71075 354.858 94.882 350.252 154.822C345.705 212.813 353.795 269.799 366.551 326.078C369.976 332.81 373.283 339.542 376.354 346.392C376.472 346.688 376.472 346.924 376.531 347.16C377.417 346.983 378.302 346.629 379.129 346.392C379.956 344.621 381.491 343.203 383.913 342.967C386.275 342.672 388.578 342.613 390.881 342.554C389.582 297.2 400.684 251.552 416.51 209.387C418.636 203.6 428.026 206.139 425.782 211.927C409.365 254.623 402.042 297.555 396.255 342.672C402.455 342.967 408.479 343.794 414.148 345.507C442.848 288.52 471.785 231.474 494.461 171.829ZM467.887 733.726C501.843 706.916 486.017 644.083 472.907 603.926C468.714 594.418 464.875 584.911 461.273 575.344C444.62 532.117 428.793 488.594 412.613 445.248C409.306 446.784 405.762 447.965 402.101 448.733C401.806 503.83 402.101 559.045 399.68 614.024C399.562 617.095 395.015 617.095 394.896 614.024C392.475 559.399 392.771 504.598 392.534 449.914C391.471 449.914 390.408 450.032 389.286 449.973C387.279 449.973 385.271 449.796 383.322 449.5C371.157 493.259 359.996 537.313 350.016 581.663C341.276 620.579 319.19 680.578 339.681 718.254C361 757.584 436.175 758.765 467.828 733.726H467.887ZM391.885 438.28C418.991 437.69 435.466 412.592 435.171 387.258C434.817 359.03 410.487 354.483 388.283 354.01C367.436 357.849 348.716 373.675 349.13 396.588C349.189 397.71 349.307 398.714 349.484 399.836C355.271 399.777 357.634 408.399 351.492 409.639C355.33 420.8 363.539 429.953 374.169 434.678C374.759 434.796 375.468 435.032 376.058 435.505C376.117 435.505 376.117 435.564 376.176 435.564C381.019 437.453 386.275 438.457 391.826 438.339L391.885 438.28ZM369.031 445.189C363.007 442.355 357.515 438.398 352.968 433.556C317.182 452.335 282.635 473.122 249.801 496.625C216.849 520.07 178.878 546.526 158.622 582.608C128.859 635.815 165.827 693.924 220.097 708.983C268.108 722.388 300.469 697.881 321.197 658.551C321.375 657.37 321.552 656.13 321.67 654.949C331 592.942 347.063 531.231 364.248 470.701C354.09 482.689 341.866 494.027 333.894 503.771C312.221 530.109 290.371 556.27 268.462 582.43C266.809 584.379 263.325 581.663 264.919 579.655C272.537 569.616 357.87 462.079 369.09 445.13L369.031 445.189ZM351.964 361.392C355.744 357.613 359.996 354.424 364.661 351.884C338.677 301.866 308.265 255.981 267.695 216.474C226.298 175.963 161.457 127.775 99.0368 144.251C38.3885 160.255 68.0926 224.919 96.6747 255.627C115.572 275.941 139.607 290.586 163.701 303.933C212.184 330.684 263.443 348.518 315.233 366.943C324.268 368.36 333.244 369.955 342.221 371.726C342.811 371.845 343.224 372.14 343.697 372.317C344.228 371.313 344.996 370.427 345.587 369.482C302.832 332.928 258.659 298.204 213.66 264.367C210.708 262.063 213.483 257.044 216.672 259.17C263.856 290.35 308.796 324.897 351.964 361.392ZM344.701 422.336C342.87 419.029 341.453 415.485 340.331 411.765C282.812 422.926 223.818 435.032 165.531 439.875C162.461 440.17 162.047 435.386 164.882 434.619C221.042 419.324 280.509 410.584 338.087 401.49C337.732 398.242 337.614 394.994 337.91 391.628C338.087 389.088 338.559 386.667 339.091 384.246C338.973 384.246 338.914 384.305 338.736 384.305C288.304 375.092 237.636 370.309 186.377 372.022C145.158 373.38 98.2691 375.329 59.4117 390.506C21.5582 405.328 -2.94912 447.256 30.5344 481.035C46.4789 497.098 67.8564 506.251 89.4701 511.92C129.804 522.491 168.425 518.239 207.873 510.621C250.097 476.547 296.749 447.552 344.642 422.395L344.701 422.336Z" fill="#7AB45E"/>
<path d="M744.734 412.296C746.151 429.658 732.628 445.544 717.392 451.685C714.794 452.748 712.904 448.26 715.502 447.02C730.148 440.347 736.644 427.65 738.592 412.237C739.065 408.34 744.439 408.221 744.793 412.237L744.734 412.296Z" fill="#7AB45E"/>
<path d="M720.525 400.43C722.533 396.179 729.206 399.958 726.902 404.21C722.178 412.95 717.69 422.044 712.493 430.548C710.899 433.146 706.056 431.434 707.297 428.304C711.253 418.914 716.037 409.702 720.466 400.371L720.525 400.43Z" fill="#7AB45E"/>
<path d="M505.096 69.3609C505.628 73.908 497.951 74.8529 497.065 70.4239C493.108 50.5227 480.234 36.6451 460.392 31.9798C457.144 31.2121 457.853 25.8382 461.16 26.1925C483.246 28.4956 502.38 47.3929 505.096 69.3609Z" fill="#7AB45E"/>
<path d="M494.053 86.2555C494.407 90.9798 486.494 92.0427 485.845 87.3775C483.364 70.1338 476.691 57.9687 463.109 47.0437C460.806 45.154 463.759 41.847 466.121 43.1462C481.475 51.2956 492.754 68.9527 494.053 86.2555Z" fill="#7AB45E"/>
<path d="M252.757 664.399C257.304 664.989 257.599 671.485 252.757 671.78C232.56 673.198 212.6 659.497 202.738 642.667C200.966 639.655 205.336 637.234 207.285 639.95C218.801 655.777 233.919 661.918 252.757 664.34V664.399Z" fill="#7AB45E"/>
<path d="M225.822 676.922C230.546 677.453 230.783 684.658 225.822 684.48C198.716 683.595 174.268 658.261 175.272 630.86C175.39 627.907 179.347 628.084 179.76 630.86C182.949 655.603 201.02 674.028 225.822 676.922Z" fill="#7AB45E"/>
<path d="M124.135 177.207C128.8 176.026 130.454 182.64 126.084 184.293C115.277 188.25 108.84 196.754 107.009 207.974C106.478 211.34 101.517 210.277 101.34 207.206C100.809 193.683 111.084 180.455 124.135 177.207Z" fill="#7AB45E"/>
<path d="M92.4802 171.408C95.7281 168.868 99.6257 172.707 96.9683 175.896C88.4055 186.584 84.3898 199.281 90.5314 212.391C91.9487 215.58 87.4606 218.296 85.748 215.166C78.3663 201.466 79.4293 181.565 92.4802 171.408Z" fill="#7AB45E"/>
</g>
<defs>
<clipPath id="clip0_4187_1822">
<rect width="769.117" height="763.566" fill="white" transform="translate(0.595703 0.0390625)"/>
</clipPath>
</defs>
</svg>
