<svg width="202" height="311" viewBox="0 0 202 311" fill="none" xmlns="http://www.w3.org/2000/svg">
    <g opacity="0.5">
        <path
            d="M63.6323 1.92609C63.6011 2.35168 63.5887 2.88396 63.6551 3.50361C63.7016 4.1297 63.7403 4.85551 63.9114 5.64933C64.4221 8.86932 66.1833 13.374 69.4658 18.1415C71.0835 20.5416 73.0198 23.025 75.1277 25.6434C76.1717 26.9458 77.2551 28.302 78.3714 29.6917C79.4542 31.101 80.5163 32.5701 81.6382 34.0597C82.9886 35.9511 84.3177 37.962 85.6127 40.0525C85.9185 40.6947 86.3371 41.3781 86.8419 42.0757C87.6458 43.4288 88.4294 44.8083 89.1927 46.2275C89.1981 46.3407 89.2037 46.4406 89.2157 46.5605C89.2621 47.1866 89.3144 47.886 89.3727 48.6519C89.4242 49.4178 89.4152 50.2496 89.4454 51.1484C89.4659 52.9388 89.6301 54.9704 89.4992 57.2185C89.467 58.3428 89.4344 59.5137 89.401 60.7446C89.3744 61.9688 89.2009 63.238 89.1068 64.5481C89.0531 65.2064 88.9926 65.8712 88.9387 66.5495C88.9084 66.8886 88.8781 67.2277 88.8544 67.5735C88.804 67.919 88.7537 68.2579 88.7033 68.6101C88.5019 69.9988 88.2934 71.4274 88.0778 72.8958C87.0428 78.7278 85.4832 85.0665 83.1572 91.4967C80.765 97.9063 77.8929 103.765 74.9552 108.917C74.1827 110.187 73.4306 111.423 72.6988 112.626C72.5159 112.924 72.3328 113.228 72.1567 113.519C71.9606 113.803 71.7645 114.087 71.5685 114.364C71.183 114.926 70.7977 115.481 70.4258 116.022C69.6621 117.099 68.9914 118.19 68.2289 119.153C67.473 120.123 66.7508 121.054 66.0623 121.945C64.7314 123.767 63.3112 125.236 62.1516 126.607C61.5587 127.28 61.0258 127.933 60.5007 128.486C59.9624 129.033 59.471 129.54 59.0269 129.987C57.2635 131.805 56.2876 132.813 56.2876 132.813C56.2876 132.813 57.3557 131.899 59.2902 130.257C59.7739 129.843 60.3113 129.382 60.8958 128.876C61.4737 128.364 62.0526 127.758 62.705 127.126C63.9768 125.842 65.5158 124.454 66.979 122.707C67.7337 121.85 68.5221 120.953 69.3508 120.017C70.1795 119.088 70.9232 118.024 71.7599 116.969C72.1716 116.434 72.5835 115.893 73.0087 115.345C73.218 115.068 73.4339 114.791 73.6499 114.513C73.8461 114.223 74.0423 113.925 74.2452 113.628C75.0368 112.432 75.8554 111.21 76.6943 109.948C79.8847 104.811 82.9641 98.8685 85.4112 92.3065C87.792 85.7238 89.3269 79.2118 90.2637 73.2257C90.4464 71.7236 90.6288 70.2548 90.8039 68.8325C90.8478 68.4736 90.8916 68.1214 90.9286 67.7757C90.9457 67.4232 90.9695 67.0707 90.9865 66.7249C91.0273 66.0332 91.0614 65.348 91.102 64.6763C91.1565 63.3325 91.2838 62.0362 91.2574 60.7847C91.2377 59.5333 91.2175 58.3352 91.1965 57.1969C91.2214 54.9078 90.9309 52.8549 90.7842 51.0498C90.6996 50.2569 90.6411 49.5176 90.5488 48.8244C91.5846 50.8854 92.5731 52.9991 93.501 55.1921C96.8756 63.1151 99.2322 71.0204 100.737 78.3374C100.775 78.5242 100.806 78.7043 100.844 78.8844C100.407 79.8978 99.7778 81.4483 98.9901 83.5028C98.6135 84.4837 98.2023 85.5707 97.7502 86.7571C97.3179 87.957 96.891 89.27 96.4166 90.6757C95.4874 93.5007 94.3546 96.6962 93.3637 100.306C92.845 102.104 92.2988 103.988 91.7318 105.952C91.1714 107.915 90.7029 109.993 90.154 112.124C89.0229 116.384 88.101 120.999 87.0767 125.846C85.2007 135.576 83.5663 146.353 82.5441 157.749C82.1691 162.257 81.9081 166.68 81.748 170.997C81.6072 171.708 81.4663 172.425 81.3185 173.169C81.0654 174.41 80.7055 175.684 80.3916 177.012C79.7969 179.681 78.9015 182.459 78.0376 185.405C76.1308 191.241 73.6931 197.543 70.5958 203.912C67.4389 210.253 63.9686 216.045 60.5523 221.153C58.7748 223.656 57.1313 226.08 55.3979 228.198C54.5478 229.267 53.7707 230.343 52.9483 231.312C52.1192 232.275 51.3238 233.205 50.5688 234.088C49.0917 235.896 47.5849 237.377 46.3256 238.741C45.6861 239.413 45.1067 240.059 44.5483 240.618C43.9766 241.171 43.452 241.671 42.9812 242.125C41.098 243.948 40.0621 244.962 40.0621 244.962C40.0621 244.962 41.19 244.049 43.231 242.407C43.7413 241.994 44.3054 241.534 44.9298 241.028C45.5344 240.509 46.1665 239.91 46.8587 239.286C48.2235 238.016 49.8492 236.623 51.4518 234.903C52.2728 234.06 53.1277 233.171 54.0229 232.249C54.9115 231.32 55.7546 230.278 56.671 229.237C58.5368 227.18 60.3064 224.797 62.2034 222.322C65.8588 217.264 69.5291 211.434 72.7472 204.973C75.9056 198.486 78.3251 192.03 80.1469 186.06C80.6387 184.282 81.1166 182.563 81.5474 180.891C81.527 183.992 81.5539 187.027 81.6152 189.963C81.8144 194.91 81.9629 199.616 82.3678 204C82.5503 206.191 82.6737 208.316 82.8979 210.348C83.1287 212.38 83.3538 214.326 83.5598 216.185C83.9387 219.909 84.5147 223.243 84.9486 226.183C85.179 227.65 85.3704 229.016 85.5898 230.269C85.8291 231.517 86.0429 232.664 86.238 233.691C87.0254 237.792 87.4666 240.06 87.4666 240.06C87.4666 240.06 87.1588 237.767 86.6114 233.628C86.4696 232.595 86.3156 231.449 86.143 230.189C85.9903 228.929 85.8654 227.557 85.7017 226.085C85.4077 223.133 84.9782 219.788 84.7524 216.072C84.6128 214.213 84.4676 212.268 84.3099 210.237C84.1589 208.212 84.1153 206.095 83.9993 203.905C83.734 199.536 83.725 194.851 83.6387 189.931C83.6457 180.089 83.9961 169.278 84.9442 157.968C85.2466 154.637 85.595 151.36 85.976 148.143C85.9685 151.896 86.1704 155.978 86.7032 160.23C87.3061 164.768 88.2648 169.031 89.3547 172.843C89.9398 174.733 90.4859 176.536 91.127 178.173C91.4375 178.995 91.715 179.797 92.0262 180.552C92.3442 181.301 92.6557 182.023 92.9477 182.712C93.5117 184.096 94.1377 185.294 94.6519 186.357C95.1594 187.428 95.6487 188.325 96.0601 189.048C96.8763 190.495 97.3268 191.298 97.3268 191.298C97.3268 191.298 96.9966 190.443 96.4012 188.892C96.0901 188.123 95.7277 187.181 95.3538 186.066C94.9732 184.957 94.4876 183.707 94.0704 182.292C93.8451 181.59 93.6135 180.856 93.369 180.088C93.1244 179.32 92.9269 178.506 92.683 177.678C92.1885 176.022 91.7756 174.221 91.3102 172.339C90.4596 168.549 89.6665 164.361 89.0757 159.936C88.5182 155.498 88.2649 151.249 88.1739 147.368C88.175 145.431 88.1418 143.587 88.2337 141.865C88.2697 141 88.2722 140.168 88.3208 139.37C88.376 138.572 88.4243 137.801 88.4722 137.069C88.8886 131.204 89.4604 127.576 89.0886 127.499C89.0753 127.499 89.0552 127.512 89.0418 127.518C89.1128 127.106 89.1839 126.688 89.2548 126.283C90.2123 121.462 91.0609 116.859 92.0987 112.611C92.601 110.48 93.0228 108.408 93.5299 106.444C94.0438 104.479 94.5302 102.588 95.0022 100.79C95.8867 97.1721 96.9 93.9553 97.7029 91.109C98.111 89.6892 98.4915 88.3623 98.8441 87.1416C99.2233 85.9345 99.5747 84.8269 99.885 83.832C100.381 82.2401 100.768 80.9333 101.059 79.9249C102.343 86.6405 103.002 92.8303 103.144 98.0894C103.255 99.5082 103.181 100.858 103.207 102.136C103.193 103.414 103.26 104.626 103.174 105.75C103.043 108.004 103.015 109.954 102.852 111.543C102.544 114.721 102.372 116.476 102.372 116.476C102.372 116.476 102.677 114.736 103.224 111.587C103.501 110.013 103.655 108.058 103.926 105.798C104.078 104.668 104.084 103.45 104.178 102.16C104.225 100.87 104.373 99.507 104.342 98.0758C104.484 92.3406 104.033 85.481 102.744 77.9799C101.434 70.4853 99.1731 62.3681 95.7205 54.2712C94.7927 52.0716 93.791 49.9444 92.742 47.8765C92.9729 48.0587 93.1972 48.2409 93.4348 48.4232C94.9 49.5505 96.4312 50.7251 98.0948 51.9677C101.416 54.4329 105.181 57.0028 109.254 59.4961C113.319 62.016 117.396 64.0701 120.956 66.0321C124.528 67.9942 127.608 69.951 129.949 71.9197C132.284 73.8884 133.867 75.8289 134.802 77.2766C135.294 77.9874 135.6 78.5897 135.815 78.9913C136.031 79.393 136.148 79.6073 136.148 79.6073C136.148 79.6073 136.064 79.38 135.909 78.9524C135.754 78.5181 135.528 77.8768 135.131 77.0939C134.376 75.5084 132.989 73.3171 130.764 71.0435C128.539 68.7765 125.503 66.4875 121.979 64.2996C118.449 62.0983 114.506 59.9458 110.5 57.4598C106.481 55.0003 102.727 52.5238 99.3786 50.1847C96.0436 47.8059 92.938 45.7624 90.6232 43.8139C90.577 43.7801 90.5441 43.7398 90.4979 43.706C88.2712 39.7686 85.8885 36.109 83.4422 32.7881C82.2739 31.2847 81.1521 29.7951 80.0293 28.392C78.8795 27.0219 77.756 25.6919 76.6785 24.4024C74.5101 21.8499 72.5261 19.4658 70.8671 17.1917C67.5021 12.6696 65.6107 8.50286 64.8384 5.47303C64.6003 4.72507 64.4945 4.0385 64.3812 3.44497C64.2412 2.85114 64.1801 2.34467 64.138 1.93159C64.0272 1.10515 63.9322 0.664872 63.8524 0.664005C63.7725 0.663137 63.7078 1.10172 63.6587 1.95304L63.6323 1.92609Z"
            fill="#263324" />
        <path
            d="M77.4522 201.878C75.0857 222.463 72.7921 243.069 57.1534 258.925C53.8824 256.773 53.7366 256.718 55.2635 252.775C57.7147 246.452 60.75 240.276 58.2311 233.221C57.9396 232.492 57.8545 231.746 57.9827 230.969C58.2371 230.219 58.6435 229.572 59.1888 228.992C59.7999 228.493 60.4634 228.061 61.153 227.682C65.4025 224.301 67.4981 219.466 69.8383 214.786C72.1956 210.366 72.0334 204.468 77.4589 201.878L77.4522 201.878Z"
            fill="#889B80" />
        <path
            d="M51.1043 265.553C44.8487 271.661 39.8499 279.081 32.2583 283.81C30.2383 284.134 28.1961 284.045 27.6828 281.67C27.2519 279.676 29.3538 279.166 30.5491 278.181C36.5682 270.566 37.5318 260.893 41.0462 252.267C41.2879 251.464 41.7015 250.756 42.2408 250.123C42.9574 249.712 43.7375 249.581 44.5478 249.729C45.4959 256.807 51.5587 248.228 53.4011 252.614C53.4259 257.066 52.0692 261.271 51.0977 265.546L51.1043 265.553Z"
            fill="#AEBEA7" />
        <path
            d="M44.4248 250.594C43.9141 250.428 43.3968 250.27 42.8795 250.104C40.4883 249.672 40.9782 248.067 41.4013 246.488C43.3356 242.423 46.6438 241.141 51.0837 241.661C48.0169 240.33 44.472 240.119 42.2258 237.366C42.0323 230.675 44.351 224.917 48.6913 219.907C50.0272 221.904 49.4328 223.941 48.8583 225.978C49.6674 226.233 46.6135 228.609 49.3892 227.335C56.218 224.214 57.592 224.555 58.7996 231.011C58.7008 231.529 58.6152 232.053 58.5496 232.579C59.7286 238.608 59.6195 244.37 55.1741 249.253C51.6996 250.526 47.9671 249.813 44.4182 250.58L44.4248 250.594Z"
            fill="#C7D3C1" />
        <path
            d="M46.6611 226.205C47.3428 224.103 48.0179 222.007 48.6995 219.905C51.6076 213.188 56.7342 208.698 63.1446 205.494C67.189 206.902 69.7767 209.459 69.8937 214.006C69.7654 214.79 69.5178 215.526 69.1772 216.241C67.4236 218.997 65.8952 221.855 64.83 224.952C63.7786 226.777 62.8528 228.684 61.2466 230.124C60.7559 229.952 60.2651 229.8 59.7675 229.662C58.4155 225.461 59.9045 221.957 61.4347 218.939C57.3206 221.496 54.1249 228.343 46.6611 226.212L46.6611 226.205Z"
            fill="#96AC8C" />
        <path
            d="M54.0675 248.939C57.5614 244.039 58.0695 238.315 58.5577 232.583C59.8596 232.81 61.1549 233.037 62.4502 233.264C57.4506 237.083 65.5582 243.068 59.7922 247.597C57.4496 249.435 54.01 254.236 57.1535 258.922C55.1397 261.13 53.1258 263.337 51.1053 265.545C48.51 260.625 51.4241 256.418 52.8362 252.014C52.2858 250.604 52.7426 249.597 54.0675 248.939Z"
            fill="#9FB097" />
        <path
            d="M42.3193 251.66C40.8579 261.826 38.263 271.568 31.6717 279.788C28.1605 277.088 26.8632 273.98 29.8672 270.072C30.079 269.569 30.3503 269.099 30.6811 268.67C33.4172 265.525 33.5246 261.154 35.6707 257.797C37.2956 255.252 38.095 251.501 42.3193 251.66Z"
            fill="#A8BAA0" />
        <path
            d="M29.8654 270.073C27.6416 273.836 31.9464 276.385 31.6699 279.79C30.7503 280.512 29.8239 281.24 28.9043 281.962C30.0224 282.574 31.1405 283.191 32.2652 283.802C32.1096 284.034 31.9868 284.312 31.7853 284.483C28.7764 287.006 25.7951 292.497 21.7456 289.112C18.0721 286.037 21.792 281.166 24.0962 277.97C25.9882 275.342 26.4418 271.56 29.872 270.074L29.8654 270.073Z"
            fill="#B9C7B3" />
        <path
            d="M68.9408 213.456C68.6632 209.6 63.6699 209.173 63.1441 205.494C68.614 202.492 74.6567 200.049 75.5559 192.631C76.0592 192.863 76.5625 193.095 77.0657 193.333C76.1931 197.689 75.2541 202.038 73.751 206.235C72.4317 208.829 72.3943 212.276 68.9474 213.457L68.9408 213.456Z"
            fill="#81977A" />
        <path
            d="M42.233 237.365C46.4436 236.944 50.0296 240.724 54.4861 238.503C53.5125 246.645 45.2187 241.876 42.5146 246.352C42.3315 246.057 42.155 245.762 41.9652 245.474C41.5371 243.832 42.2023 242.023 41.1809 240.474C41.5316 239.44 41.8823 238.399 42.233 237.365Z"
            fill="#B8C8B0" />
        <path
            d="M42.3168 251.661C36.1891 255.794 35.6172 263.728 30.6786 268.672C33.6254 260.838 36.5722 253.003 39.519 245.175C40.8491 244.644 41.8365 245.028 42.4882 246.299L42.5141 246.359C42.0274 247.672 41.8871 248.941 42.8861 250.104C42.6808 250.62 42.4955 251.137 42.3168 251.661Z"
            fill="#B8C8B0" />
        <path
            d="M68.939 213.457C69.9987 210.866 71.0517 208.276 72.1113 205.692C74.7315 204.642 73.6607 200.91 76.3271 199.894C76.6636 200.164 77.034 200.374 77.4384 200.518C77.4867 200.971 77.4883 201.431 77.4435 201.883C75.3429 207.171 73.2358 212.452 71.1352 217.74C69.8484 218.571 68.5974 219.789 67.0782 218.115C67.0185 216.877 67.3894 215.809 68.3633 214.995C68.7011 214.532 68.8929 214.022 68.939 213.457Z"
            fill="#374733" />
        <path
            d="M42.4828 246.299C41.4953 245.922 40.5011 245.552 39.5136 245.175C40.0696 243.611 40.6256 242.046 41.175 240.481C44.3017 241.82 43.3856 244.059 42.4762 246.299L42.4828 246.299Z"
            fill="#AFC1A7" />
        <path
            d="M46.6595 226.205C53.7135 226.249 56.169 218.309 62.5931 216.902C63.0281 221.585 61.0484 225.543 59.7592 229.655C59.468 230.125 59.1503 230.58 58.8062 231.016C54.8918 224.997 52.9368 225.455 45.6788 234.387C43.4312 231.162 45.9795 228.76 46.6595 226.205Z"
            fill="#B8C8B0" />
        <path
            d="M67.6717 218.095C68.831 217.974 69.9836 217.854 71.1429 217.74C67.7117 221.762 66.8603 227.842 61.2453 230.117C62.0395 228.076 62.827 226.041 63.6211 224C65.9314 222.688 65.0246 219.171 67.6784 218.095L67.6717 218.095Z"
            fill="#65795F" />
        <path
            d="M54.066 248.939C53.6555 249.966 53.2452 250.986 52.8347 252.013C52.2946 252.114 51.7534 252.308 51.2144 252.295C47.1554 252.245 50.5994 259.29 46.1672 258.05C42.2459 256.956 48.3519 252.377 44.4248 250.584C47.044 246.567 50.5646 247.789 54.066 248.939Z"
            fill="#B8C8B0" />
        <path
            d="M67.6723 218.094C66.2142 219.989 66.315 222.958 63.6151 224C65.013 220.901 64.942 217.027 68.3648 214.994C68.1339 216.03 67.9031 217.065 67.6722 218.101L67.6723 218.094Z"
            fill="#81977A" />
        <path
            d="M88.0429 170.546C90.0539 185.755 92.0115 200.983 103.785 212.531C106.179 210.9 106.293 210.855 105.106 207.954C103.213 203.308 100.887 198.77 102.661 193.512C102.867 192.969 102.919 192.417 102.819 191.843C102.619 191.296 102.311 190.813 101.903 190.396C101.441 190.032 100.952 189.72 100.429 189.448C97.2413 186.998 95.6294 183.446 93.8366 180.006C92.035 176.766 92.0824 172.394 88.0363 170.54L88.0429 170.546Z"
            fill="#889B80" />
        <path
            d="M108.345 217.366C113.055 221.81 116.843 227.241 122.529 230.651C124.031 230.867 125.536 230.77 125.888 229.01C126.184 227.529 124.623 227.173 123.726 226.464C119.175 220.898 118.34 213.754 115.627 207.409C115.434 206.822 115.12 206.299 114.719 205.835C114.184 205.537 113.606 205.451 113.005 205.577C112.389 210.828 107.792 204.549 106.485 207.822C106.523 211.117 107.581 214.217 108.352 217.366L108.345 217.366Z"
            fill="#AEBEA7" />
        <path
            d="M113.105 206.202C113.486 206.073 113.86 205.95 114.241 205.821C116.008 205.474 115.622 204.292 115.288 203.124C113.803 200.14 111.338 199.228 108.058 199.671C110.312 198.651 112.937 198.447 114.563 196.381C114.617 191.424 112.833 187.192 109.558 183.536C108.59 185.029 109.06 186.532 109.509 188.034C108.915 188.234 111.205 189.956 109.132 189.048C104.038 186.823 103.024 187.092 102.206 191.888C102.289 192.275 102.358 192.655 102.413 193.048C101.613 197.525 101.766 201.793 105.122 205.356C107.714 206.256 110.469 205.681 113.105 206.202Z"
            fill="#C7D3C1" />
        <path
            d="M111.143 188.183C110.614 186.633 110.085 185.09 109.556 183.54C107.32 178.605 103.462 175.342 98.6756 173.047C95.6956 174.139 93.8112 176.069 93.7879 179.436C93.8881 180.016 94.0819 180.557 94.3491 181.079C95.6848 183.097 96.8466 185.193 97.6737 187.478C98.4711 188.817 99.1879 190.216 100.394 191.261C100.755 191.131 101.116 191.009 101.483 190.9C102.429 187.775 101.286 185.201 100.112 182.985C103.193 184.822 105.641 189.86 111.143 188.183Z"
            fill="#96AC8C" />
        <path
            d="M105.943 205.106C103.293 201.517 102.847 197.286 102.413 193.055C101.453 193.238 100.499 193.427 99.5391 193.609C103.289 196.379 97.3569 200.906 101.687 204.188C103.449 205.525 106.047 209.027 103.786 212.536C105.306 214.143 106.826 215.757 108.345 217.364C110.202 213.691 107.993 210.612 106.89 207.366C107.281 206.318 106.929 205.576 105.943 205.106Z"
            fill="#9FB097" />
        <path
            d="M114.68 206.968C115.889 214.475 117.934 221.658 122.92 227.662C125.491 225.62 126.408 223.301 124.13 220.448C123.968 220.08 123.758 219.738 123.509 219.416C121.444 217.124 121.313 213.889 119.682 211.429C118.452 209.565 117.809 206.796 114.68 206.968Z"
            fill="#A8BAA0" />
        <path
            d="M124.132 220.448C125.826 223.208 122.67 225.15 122.922 227.662C123.615 228.189 124.308 228.715 125.001 229.235C124.178 229.706 123.361 230.169 122.537 230.639C122.655 230.807 122.746 231.014 122.904 231.136C125.167 232.964 127.439 236.995 130.395 234.438C133.076 232.112 130.26 228.554 128.515 226.219C127.078 224.3 126.696 221.5 124.139 220.448L124.132 220.448Z"
            fill="#B9C7B3" />
        <path
            d="M94.4858 179.014C94.6434 176.154 98.3345 175.775 98.6769 173.043C94.5875 170.889 90.0808 169.157 89.3217 163.678C88.9538 163.854 88.5791 164.036 88.2178 164.218C88.9215 167.434 89.6654 170.636 90.8364 173.73C91.8405 175.638 91.9193 178.188 94.4858 179.014Z"
            fill="#81977A" />
        <path
            d="M114.561 196.384C111.443 196.123 108.83 198.963 105.506 197.383C106.332 203.395 112.408 199.768 114.469 203.044C114.597 202.826 114.726 202.608 114.862 202.39C115.154 201.168 114.643 199.838 115.381 198.675C115.11 197.914 114.839 197.152 114.561 196.384Z"
            fill="#B8C8B0" />
        <path
            d="M114.681 206.967C119.267 209.952 119.796 215.814 123.51 219.415C121.23 213.653 118.95 207.892 116.67 202.124C115.676 201.747 114.954 202.045 114.484 202.992L114.464 203.038C114.839 204.001 114.962 204.947 114.234 205.818C114.39 206.199 114.539 206.58 114.674 206.96L114.681 206.967Z"
            fill="#B8C8B0" />
        <path
            d="M94.4845 179.017C93.6666 177.111 92.8555 175.205 92.0376 173.307C90.0891 172.56 90.8313 169.786 88.8426 169.066C88.5942 169.269 88.3261 169.433 88.0254 169.543C87.9951 169.882 87.9981 170.221 88.0411 170.555C89.6627 174.439 91.2842 178.33 92.9124 182.221C93.8776 182.817 94.8196 183.705 95.9247 182.446C95.9547 181.528 95.6637 180.747 94.9381 180.153C94.6821 179.817 94.5332 179.436 94.4911 179.023L94.4845 179.017Z"
            fill="#374733" />
        <path
            d="M114.491 202.998C115.219 202.706 115.948 202.421 116.676 202.13C116.243 200.98 115.816 199.825 115.383 198.675C113.089 199.702 113.79 201.353 114.491 202.998Z"
            fill="#AFC1A7" />
        <path
            d="M111.144 188.181C105.919 188.297 104.005 182.453 99.2242 181.489C98.9602 184.961 100.479 187.872 101.485 190.898C101.707 191.246 101.95 191.575 102.206 191.897C105.03 187.396 106.484 187.704 111.97 194.226C113.594 191.808 111.676 190.063 111.144 188.181Z"
            fill="#B8C8B0" />
        <path
            d="M95.4873 182.434C94.6296 182.358 93.7718 182.289 92.9141 182.213C95.5044 185.15 96.2142 189.643 100.396 191.252C99.7868 189.755 99.1709 188.251 98.5616 186.753C96.8348 185.81 97.4622 183.194 95.4873 182.434Z"
            fill="#65795F" />
        <path
            d="M88.844 169.064C89.8665 170.512 89.7953 172.781 92.039 173.304C90.7675 170.276 89.496 167.247 88.2178 164.219C86.967 166.022 88.522 167.463 88.844 169.064Z"
            fill="#263323" />
        <path
            d="M105.942 205.108C106.26 205.864 106.571 206.619 106.889 207.368C107.288 207.432 107.692 207.57 108.092 207.561C111.101 207.474 108.634 212.731 111.906 211.755C114.797 210.895 110.221 207.584 113.104 206.204C111.113 203.261 108.527 204.211 105.949 205.109L105.942 205.108Z"
            fill="#B8C8B0" />
        <path
            d="M95.4883 182.434C96.5914 183.817 96.5542 186.013 98.5626 186.753C97.4892 184.479 97.4939 181.604 94.9342 180.145C95.1189 180.906 95.3036 181.673 95.4883 182.434Z"
            fill="#81977A" />
        <path
            d="M127.149 87.6129C124.083 81.3504 123.167 74.9781 126.087 68.3813C126.275 67.6579 126.746 67.2038 127.447 66.9852C133.106 69.2096 139.698 68.3095 144.88 72.1459C147.019 74.352 149.805 75.8264 151.844 78.098C154.75 81.3307 156.077 84.7526 151.829 88.0606C149.569 89.0144 147.951 90.2413 150.02 92.8193C151.202 94.2897 152.471 95.681 152.729 97.6604C152.721 98.4523 152.48 99.1552 151.994 99.7821C150.002 101.864 146.999 99.5282 144.969 101.356C141.273 104.684 139.233 101.933 136.777 99.4505C134.269 96.9009 132.548 93.5946 129.368 91.6966L129.302 91.6227C130.553 89.2271 128.188 88.7755 127.143 87.6195L127.149 87.6129Z"
            fill="#2E442C" />
        <path
            d="M186.949 105.685C191.069 110.548 195.183 115.411 200.045 121.154C192.782 120.795 186.305 122.748 180.549 118.373C182.31 115.597 184.449 112.858 181.503 109.559C181.442 107.209 182.57 105.67 184.703 104.802C185.596 104.725 186.344 105.019 186.949 105.678L186.949 105.685Z"
            fill="#B1C5AA" />
        <path
            d="M129.374 91.6886C134.301 92.1614 136.347 96.17 138.893 99.5186C139.916 100.861 141.792 102.771 142.485 100.935C144.89 94.5325 148.784 99.3798 151.954 99.1547C155.759 99.2892 157.721 101.853 159.42 104.786C160.37 106.76 160.416 108.684 159.038 110.505C156.611 112.143 154.868 110.294 153.21 109.118C149.4 106.421 145.279 104.633 140.682 103.891C135.515 101.119 131.651 97.1373 129.381 91.682L129.374 91.6886Z"
            fill="#364E33" />
        <path
            d="M175.746 117.117C169.683 115.887 163.238 116.11 157.814 112.437C158.09 112.187 158.372 111.944 158.647 111.694C163.267 112.27 162.326 106.975 165.083 105.581C167.171 104.519 169.348 103.824 171.723 103.856C173.696 104.211 175.193 105.451 176.705 106.619C182.572 111.155 182.408 112.804 175.752 117.111L175.746 117.117Z"
            fill="#63805C" />
        <path
            d="M175.745 117.117C182.207 110.326 174.778 108.089 171.596 104.467C171.09 103.843 170.878 103.135 170.967 102.338C171.235 101.575 171.727 101.008 172.423 100.61C173.585 100.256 174.729 100.335 175.862 100.747C179.756 102.566 180.906 106.339 182.358 109.902C189.411 114.357 186.922 116.786 180.549 118.387C178.95 117.971 177.344 117.547 175.744 117.131L175.745 117.117Z"
            fill="#7C9876" />
        <path
            d="M150.882 87.0658C154.648 84.1052 153.24 81.4213 150.121 79.3642C147.372 77.5508 146.176 74.8824 144.888 72.1465C148.171 73.2403 152.124 72.5844 154.605 75.8191C156.19 77.5135 158.439 78.789 158.323 81.5829C158.07 83.9827 158.045 86.2585 159.7 88.3595C161.072 90.1114 161.835 92.1295 159.52 93.9079C156.873 94.365 154.568 93.3018 152.23 92.3247C150.295 90.946 148.566 89.5098 150.889 87.0526L150.882 87.0658Z"
            fill="#506D48" />
        <path
            d="M157.228 81.2042C156.356 79.4111 155.477 77.618 154.598 75.8248C162.446 79.3441 170.483 82.6259 174.302 91.2791C172.391 93.8672 170.421 93.2202 168.424 91.4017C166.243 88.8557 162.811 87.9798 160.542 85.546C159.064 84.3853 157.948 82.9423 157.221 81.2107L157.228 81.2042Z"
            fill="#809B7A" />
        <path
            d="M168.863 90.336C170.463 91.9307 172.319 92.0041 174.31 91.2671C177.471 91.2681 178.691 93.5308 179.79 95.9452C180.113 99.2497 176.278 99.4077 175.374 101.78C174.332 101.563 173.289 101.338 172.247 101.121C169.48 99.7198 167.588 97.4432 166.547 94.6367C165.823 92.6789 165.29 90.244 168.863 90.336Z"
            fill="#93AC8C" />
        <path
            d="M175.374 101.785C172.384 96.4616 179.473 98.768 179.79 95.9496C181.79 97.4288 183.247 99.3148 184.02 101.699C183.645 103.133 184.511 104.273 184.93 105.522C184.076 106.977 183.222 108.432 182.361 109.887C180.034 107.186 177.701 104.486 175.374 101.785Z"
            fill="#A5BC9E" />
        <path
            d="M140.683 103.9C148.331 101.274 152.69 107.411 158.214 110.459C158.688 110.937 158.61 111.355 158.067 111.715L157.82 112.438C151.407 111.004 145.422 108.696 140.689 103.9L140.683 103.9Z"
            fill="#45603F" />
        <path
            d="M127.15 87.6135C127.675 87.6458 128.194 87.7113 128.719 87.7104C130.423 87.7222 132.969 86.1926 133.535 88.6079C134.266 91.7305 130.044 89.5616 129.316 91.6168C127.956 90.6237 127.272 89.2719 127.157 87.6136L127.15 87.6135Z"
            fill="#364E33" />
        <path
            d="M184.93 105.522C182.903 104.655 180.762 103.82 184.02 101.699C184.997 103.027 185.974 104.356 186.951 105.684C186.28 105.63 185.602 105.576 184.93 105.529L184.93 105.522Z"
            fill="#9AB292" />
        <path
            d="M150.884 87.0652C150.427 89.2698 151.385 90.5247 153.516 91.0004C157.539 93.1671 157.257 95.2471 153.402 97.2683C153.028 97.3574 152.648 97.4398 152.268 97.5155C147.486 92.8849 147.027 89.3992 150.89 87.0586L150.884 87.0652Z"
            fill="#364E33" />
        <path
            d="M157.612 105.353C155.725 103.29 153.837 101.226 151.95 99.1557L152.125 98.3391L152.267 97.5154L152.32 97.5558C155.775 95.5968 158.318 96.7958 160.314 99.8722C160.579 100.6 160.671 101.354 160.582 102.125C160.113 103.677 158.958 104.596 157.613 105.347L157.612 105.353Z"
            fill="#476542" />
        <path
            d="M157.612 105.354C157.893 104 158.418 102.841 159.874 102.384C162.684 102.794 165.988 102.55 165.854 106.881C166.263 113.328 163.317 114.381 158.068 111.722C158.16 111.303 158.211 110.891 158.215 110.465C158.647 108.686 159.332 106.884 157.612 105.361L157.612 105.354Z"
            fill="#53714C" />
        <path
            d="M165.853 106.875C164.919 103.97 160.819 105.276 159.872 102.378L159.913 102.332C160.995 100.759 162.149 99.2746 164.157 98.7973C164.917 98.6658 165.683 98.6608 166.447 98.7623C168.924 99.2284 170.497 100.829 171.646 102.952C171.587 103.45 171.568 103.956 171.596 104.455C169.684 105.26 167.772 106.064 165.853 106.868L165.853 106.875Z"
            fill="#476542" />
        <path
            d="M171.648 102.957C169.589 101.969 167.523 100.989 165.464 100.001C164.563 98.3543 162.475 97.6261 162.037 95.6115C163.578 91.6751 157.009 87.9767 161.692 83.948C162.508 87.8434 169.233 85.1213 168.87 90.3417C164.226 95.7418 173.418 96.8133 172.246 101.126C172.047 101.737 171.847 102.347 171.654 102.957L171.648 102.957Z"
            fill="#6D8A65" />
        <path
            d="M161.684 83.9474C159.028 88.2776 166.319 91.6578 162.837 96.0656C161.561 96.5309 160.736 95.8963 160.054 94.9173C159.971 94.557 159.896 94.1901 159.813 93.8232C160.031 92.1551 160.027 90.0588 158.516 89.4567C153.149 87.3087 155.878 84.2171 157.228 81.2103C158.716 82.1249 160.196 83.0394 161.684 83.954L161.684 83.9474Z"
            fill="#5C7B55" />
        <path
            d="M163.762 99.7158C162.854 101.143 161.574 102.021 159.906 102.336C158.939 98.2592 155.514 98.0822 152.311 97.5616C152.336 95.3058 157.076 93.9131 153.514 90.9994C155.995 91.0929 157.965 92.3255 159.812 93.823C159.245 97.0512 165.147 95.9374 163.762 99.7158Z"
            fill="#3C5739" />
        <path
            d="M163.763 99.7155C163.077 97.3322 158.784 97.3587 159.814 93.8227C160.817 94.5657 161.828 95.3154 162.831 96.0584C164.915 96.5669 165.719 97.9266 165.45 100C164.886 99.9074 164.321 99.8081 163.756 99.7155L163.763 99.7155Z"
            fill="#506D48" />
        <path
            d="M146.355 181.801C144.684 180.611 143.013 179.422 141.342 178.233C140.889 171.566 143.601 164.534 139.07 158.329C138.992 157.549 139.126 156.799 139.453 156.084C140.727 154.593 142.479 153.861 144.198 153.087C147.636 152.06 146.609 149.866 145.581 147.672C145.675 143.287 147.711 139.682 150.151 136.241C153.288 142.125 150.976 148.489 151.748 154.587C152.397 155.559 152.866 157.041 152.327 157.714C146.566 164.846 151.14 174.486 146.355 181.801Z"
            fill="#B6CEAF" />
        <path
            d="M139.847 158.016C144.591 161.754 145.333 171.845 141.344 178.23C138.583 177.588 135.359 179.064 133.025 176.43L132.923 175.989C135.968 170.166 136.263 163.794 136.619 157.428C137.815 156.969 138.905 157.074 139.84 158.022L139.847 158.016Z"
            fill="#A0B998" />
        <path
            d="M150.151 136.239C148.99 140.166 147.829 144.087 146.668 148.014C146.254 150.013 145.984 152.193 142.982 151.062C141.13 148.766 140.827 146.054 140.89 143.24C141.465 138.787 144.237 134.784 143.549 130.085C142.958 126.91 139.059 125.005 140.145 121.196C140.218 119.986 140.298 118.775 140.377 117.558C145.685 122.714 149.642 128.574 150.157 136.239L150.151 136.239Z"
            fill="#A1BD99" />
        <path
            d="M146.357 181.801C147.02 175.865 147.717 169.916 146.124 164.029C145.657 162.307 146.522 161.052 147.854 160.993C152.575 160.785 151.415 157.292 151.75 154.587C155.351 162.499 149.783 170.225 151.288 178.101C149.603 179.434 150.001 182.08 148.051 183.243C147.484 182.765 146.924 182.286 146.357 181.807L146.357 181.801Z"
            fill="#C7DBC1" />
        <path
            d="M148.044 183.236C148.05 180.847 147.97 178.403 151.281 178.093C150.568 180.036 153.662 184.382 148.044 183.236Z"
            fill="#DAE6D3" />
        <path
            d="M141.666 142.975C143.248 145.541 143.457 148.378 143.312 151.285C143.156 151.603 143.006 151.921 142.863 152.245C141.928 153.699 140.156 154.525 139.796 156.405C139.817 156.937 139.831 157.476 139.845 158.009C138.741 157.997 137.636 157.985 136.531 157.973C136.139 158.568 135.778 158.75 135.441 158.527C135.117 158.31 134.953 158.089 134.955 157.876C134.386 155.115 133.811 152.353 133.242 149.585C136.786 147.414 131.49 140.528 138.31 140.09C139.97 140.427 141.212 141.253 141.679 142.975L141.666 142.975Z"
            fill="#A4C09D" />
        <path
            d="M143.312 151.288C144.429 150.195 145.545 149.109 146.669 148.017C152.55 151.854 149.982 153.57 144.999 154.681C143.769 153.915 142.339 153.261 143.258 151.367L143.312 151.288Z"
            fill="#A4C09D" />
        <path
            d="M143.259 151.365C143.839 152.469 144.42 153.574 145 154.678C143.27 155.252 141.533 155.832 139.797 156.412C136.97 151.995 140.669 152.062 143.259 151.365Z"
            fill="#C1D7BA" />
        <path
            d="M134.95 157.877C135.475 157.923 136 157.955 136.532 157.981C139.852 164.892 138.774 170.923 132.923 175.991C127.296 170.779 128.018 166.188 134.042 161.788C134.86 161.191 134.669 159.219 134.95 157.877Z"
            fill="#8EA987" />
        <path
            d="M131.521 146.276C130.595 140.216 132.988 138.672 138.39 141.233C135.001 141.382 136.145 143.358 136.844 145.123C138.289 148.765 135.914 149.299 133.235 149.596C131.892 148.889 131.666 147.602 131.521 146.283L131.521 146.276Z"
            fill="#A1BD99" />
        <path
            d="M128.118 154.469C129.785 154.793 131.531 155.138 131.134 157.417C131.042 157.948 129.92 158.834 129.602 158.711C127.621 157.924 128.347 156.009 128.098 154.495L128.118 154.469Z"
            fill="#95B08D" />
        <path
            d="M108.284 157.608C101.39 152.722 98.1856 145.632 96.3684 137.706C96.611 137.423 96.8538 137.133 97.0966 136.843C99.8793 135.535 102.712 135.712 104.348 138.299C106.265 141.334 107.437 138.253 108.948 138.209C110.582 137.874 112.09 138.077 113.389 139.182C114.487 140.472 114.677 141.952 114.261 143.544C114.64 144.786 111.357 144.917 113.368 146.649C115.101 147.021 116.422 147.927 117.365 149.381C117.873 150.412 118.074 151.499 118.042 152.636C116.835 158.313 112.358 157.573 108.271 157.608L108.284 157.608Z"
            fill="#344D32" />
        <path
            d="M106.668 97.5623C121.123 98.7975 132.053 105.984 140.372 117.568C141.026 118.653 141.227 119.773 140.668 120.965C138.249 122.47 137.223 120.169 135.709 119.181C132.707 116.187 128.881 114.867 124.872 113.959C121.535 109.317 115.714 108.442 111.477 105.148C109.084 103.119 106.12 101.45 106.668 97.569L106.668 97.5623Z"
            fill="#90B087" />
        <path
            d="M95.139 120.93C95.3703 113.106 97.7422 106.13 103.222 100.373C109.634 100.702 110.577 105.784 111.997 110.451C112.22 112.557 112.111 114.632 111.245 116.606C107.119 117.772 102.207 117.206 99.562 121.783C97.9255 122.338 96.4372 122.108 95.139 120.93Z"
            fill="#426140" />
        <path
            d="M133.025 176.431C130.223 175.203 127.428 173.968 124.626 172.74C122.687 168.02 122.162 163.056 122.024 158.024C122.866 155.87 124.011 154.012 126.543 153.687C126.812 153.43 127.683 154.764 127.599 153.292C127.414 151.347 126.796 149.41 127.742 147.497C128.787 146.204 130.034 145.433 131.772 145.897C133.112 146.89 133.863 148.289 134.512 149.774C135.462 152.373 136.372 154.992 136.608 157.783C136.841 163.855 131.686 166.74 129.117 170.985C131.725 171.093 133.931 171.976 133.694 175.5C133.471 175.811 133.241 176.128 133.018 176.438L133.025 176.431Z"
            fill="#7E9B78" />
        <path
            d="M123.29 157.971C124.408 162.828 126.346 167.614 124.627 172.733C119.71 171.429 116.305 168.098 113.292 164.252C115.315 161.232 117.582 158.368 119.268 155.112C121.311 155.088 123.686 154.588 123.29 157.971Z"
            fill="#65805D" />
        <path
            d="M118.329 156.12C123.081 162.814 114.718 161.385 113.296 164.258C110.804 162.661 109.064 160.499 108.29 157.609C110.213 154.588 114.959 156.37 116.529 152.76C117.872 152.249 118.502 153.028 118.957 154.111C119.015 154.863 118.808 155.533 118.329 156.12Z"
            fill="#415C3D" />
        <path
            d="M95.1393 120.929C96.7633 120.913 98.3874 120.898 100.011 120.882C100.907 121.77 101.095 122.864 100.949 124.053C100.841 125.39 99.6544 126.788 100.539 128.035C104.119 133.046 101.318 135.411 96.9322 137.22L96.3679 137.713C94.0779 132.258 94.1123 126.635 95.1392 120.942L95.1393 120.929Z"
            fill="#344D32" />
        <path
            d="M110.165 110.848C109.462 106.295 107.265 102.724 103.224 100.384L102.911 99.8613L102.99 99.2566C103.763 98.5662 104.536 97.8758 105.309 97.1854C105.781 97.2504 106.238 97.3751 106.669 97.5661C108.522 99.7292 110.369 101.892 112.222 104.055C113.315 105.771 114.434 107.473 114.718 109.56C114.061 113.04 112.827 114.504 110.158 110.848L110.165 110.848Z"
            fill="#374A33" />
        <path
            d="M96.9402 137.213C97.9694 134.369 103.505 132.067 97.4625 128.341C95.8164 127.325 98.256 125.135 99.9964 124.209C103.248 123.213 105.081 125.469 107.097 127.308C106.144 131.091 110.363 133.625 109.537 137.383C109.229 138.099 108.81 138.746 108.271 139.306C105.692 142.133 105.631 142.172 103.771 139.464C102.028 136.936 99.1943 138.01 96.9402 137.213Z"
            fill="#2A3E28" />
        <path
            d="M113.187 144.372C113.158 142.728 113.129 141.084 113.094 139.44C113.363 139.196 113.632 138.96 113.901 138.716C114.989 138.362 116.013 138.486 116.964 139.136C118.421 141.055 119.052 143.591 121.293 144.939C122.487 145.937 123.493 147.06 123.708 148.692C123.546 149.529 123.094 150.143 122.344 150.548C120.212 151.343 118.278 151.082 116.606 149.46C114.908 148.89 113.211 148.325 111.513 147.755C110.683 148.152 109.68 147.981 109.676 147.136C109.66 144.913 112.222 145.593 113.187 144.372Z"
            fill="#4A6845" />
        <path
            d="M108.272 139.307C108.251 138.768 108.25 138.222 108.256 137.683C111.821 134.887 106.067 131.497 108.834 128.645C112.228 128.01 113.84 130.337 115.479 132.631C116.069 135.259 115.081 137.398 113.396 139.316C113.396 139.316 113.102 139.44 113.095 139.44C111.485 139.396 109.875 139.351 108.265 139.307L108.272 139.307Z"
            fill="#415C3D" />
        <path
            d="M116.605 149.452C118.788 149.449 120.965 149.453 123.147 149.45C125.478 154.853 123.309 156.04 118.326 154.595C117.728 153.983 117.122 153.364 116.523 152.752C116.548 151.655 116.58 150.55 116.605 149.452Z"
            fill="#5B7853" />
        <path
            d="M113.188 144.372C113.464 145.912 109.782 145.493 111.514 147.748C110.517 148.828 109.039 149.571 108.653 147.717C107.862 143.921 110.989 144.601 113.188 144.372Z"
            fill="#415C3D" />
        <path
            d="M113.454 109.295C112.687 107.629 111.459 106.072 112.226 104.05C117.041 106.206 123.547 105.831 125.196 112.717C126.826 113.979 129.99 113.754 129.501 117.102C129.285 118.604 128.598 119.941 127.972 121.279C126.916 127.15 131.789 122.731 133.21 124.297C134.68 125.584 134.743 127.149 134.132 128.859C131.493 132.225 127.906 131.607 124.37 131.202C121.761 130.581 119.889 128.897 118.254 126.883C114.638 121.58 117.47 114.503 113.454 109.295Z"
            fill="#72946A" />
        <path
            d="M133.452 127.821C133.4 126.45 133.121 125.196 131.777 124.475C129.572 124.145 127.907 123.016 126.783 121.087C126.812 119.69 127.131 118.435 128.497 117.718C131.312 116.471 134.092 119.676 136.915 117.783C137.987 118.919 139.06 120.062 140.139 121.199C141.337 124.26 145.435 125.615 145.052 129.598C141.695 134.739 138.352 131.242 135.003 129.582C134.457 129.023 133.944 128.432 133.452 127.821Z"
            fill="#80A07A" />
        <path
            d="M136.923 117.783C134.063 124.899 131.305 118.481 128.505 117.718C128.765 115.145 126.197 114.452 125.191 112.717C130.219 111.814 133.602 114.725 136.923 117.783Z"
            fill="#6D8D65" />
        <path
            d="M106.636 127.633C103.766 127.768 102.29 125.197 99.9978 124.2C100.003 123.089 100.009 121.984 100.014 120.873C101.615 114.388 104.884 113.033 110.072 117.608C113.396 118.582 114.789 120.86 114.532 124.238C113.781 127.258 111.163 127.476 108.781 128.049C107.972 128.386 107.261 128.219 106.636 127.626L106.636 127.633Z"
            fill="#415C3D" />
        <path
            d="M113.372 124.32C113.624 121.421 110.998 119.935 110.071 117.609C110.096 115.353 110.133 113.097 110.158 110.835C111.964 111.826 113.516 112.289 113.449 109.287C122.348 112.851 116.307 120.698 118.316 126.244C118.889 126.776 119.282 127.412 119.46 128.179C119.488 129.87 118.935 131.162 117.12 131.588C111.927 131.205 113.547 127.29 113.366 124.313L113.372 124.32Z"
            fill="#4A6845" />
        <path
            d="M141.666 142.978C140.574 142.394 139.483 141.809 138.391 141.225C133.001 138.684 133.907 144.717 131.521 146.268C130.41 146.815 129.3 147.369 128.189 147.916C127.426 148.353 126.727 148.293 126.095 147.667C124.75 144.078 125.913 140.577 128.641 138.797C132.843 136.054 133.264 131.659 135.102 127.853C138.31 129.059 141.135 132.463 145.059 129.598C148.008 135.087 143.981 138.817 141.673 142.978L141.666 142.978Z"
            fill="#89A882" />
        <path
            d="M126.619 147.803C127.137 147.855 127.663 147.894 128.188 147.919C128.331 150.104 129.877 152.304 128.117 154.474L128.09 154.5C125.516 154.319 124.903 156.848 123.28 157.982C122.13 156.013 120.172 156.205 118.322 156.131L118.231 155.372L118.319 154.614C121.977 154.82 123.613 153.127 123.14 149.469C123.159 148.936 123.138 148.404 123.084 147.877C123.333 147.64 123.582 147.404 123.837 147.167C124.899 146.812 125.843 146.956 126.619 147.816L126.619 147.803Z"
            fill="#6C8964" />
        <path
            d="M106.634 127.637C107.193 127.643 107.752 127.649 108.311 127.649C108.884 128.181 108.931 128.734 108.359 129.3C108.788 132.1 113.615 134.954 108.261 137.684C108.712 134.175 102.956 131.67 106.64 127.644L106.634 127.637Z"
            fill="#344D32" />
        <path
            d="M116.64 131.006C118.092 130.29 118.319 128.968 118.341 127.551C122.441 128.76 123.521 132.259 124.614 135.765C124.65 139.791 126.189 143.967 123.486 147.738L123.092 147.86C122.047 147.27 121.002 146.68 119.957 146.083C118.066 144.279 118.82 141.099 116.548 139.49C115.497 139.432 114.446 139.374 113.402 139.316C112.995 136.903 113.923 134.797 114.938 132.711C114.568 131.21 114.936 130.442 116.64 131.006Z"
            fill="#61805A" />
        <path
            d="M116.547 139.489C121.195 139.873 119.471 143.548 119.956 146.082C116.841 144.903 116.477 142.31 116.547 139.489Z"
            fill="#54734E" />
        <path
            d="M116.641 131.006C116.075 131.572 115.51 132.145 114.938 132.711C112.741 131.569 110.551 130.434 108.36 129.292C108.333 128.74 108.319 128.194 108.312 127.641C110.001 126.535 111.683 125.428 113.372 124.315C115.51 126.029 113.613 129.715 116.641 130.999L116.641 131.006Z"
            fill="#426140" />
        <path
            d="M123.486 147.74C123.967 143.931 121.818 140.155 123.357 136.338C125.013 133.98 121.03 131.847 123.079 129.473C126.52 128.839 130.391 130.904 133.452 127.829C134.004 127.835 134.55 127.841 135.096 127.854C135.588 132.771 135.428 137.115 130 139.877C127.384 141.207 127.217 144.912 126.613 147.814C125.568 147.789 124.524 147.771 123.479 147.746L123.486 147.74Z"
            fill="#799973" />
        <path
            d="M126.792 121.086C129.207 121.112 130.872 122.242 131.786 124.474C130.277 127.36 128.468 128.545 125.669 125.812C123.318 123.511 124.464 122.192 126.792 121.086Z"
            fill="#799973" />
        <path
            d="M123.085 129.467C122.455 131.783 126.558 133.91 123.364 136.331C121.692 133.405 120.02 130.478 118.348 127.552C118.352 127.113 118.351 126.68 118.329 126.247C120.996 125.724 121.608 128.233 123.092 129.467L123.085 129.467Z"
            fill="#4F674A" />
        <path
            d="M86.2906 249.758C84.1933 251.067 82.3471 252.544 81.3067 248.46C80.5215 245.383 79.0688 242.499 79.8167 239.199C80.6846 237.106 80.9043 234.653 83.0952 233.299C85.2512 233.322 85.4605 234.888 85.6228 236.487C84.4996 240.029 84.7425 243.392 86.9516 246.498C86.9859 247.011 86.9738 247.516 86.915 248.028C87.2261 248.79 87.0468 249.374 86.2907 249.752L86.2906 249.758Z"
            fill="#7E9878" />
        <path
            d="M84.0446 237.176C83.7259 235.888 83.4072 234.594 83.0951 233.299C83.4387 232.305 83.7822 231.31 84.1258 230.316C84.6106 230.414 85.0885 230.532 85.5661 230.677C86.2426 230.279 86.72 230.444 87.0049 231.172C86.9719 231.757 86.9456 232.336 86.9126 232.921C87.7073 233.895 89.0091 234.748 87.7219 236.225C87.6169 239.158 87.5051 242.099 87.4 245.033C82.1518 244.177 85.1676 239.791 84.0513 237.176L84.0446 237.176Z"
            fill="#465B41" />
        <path
            d="M87.443 231.854C86.8253 231.741 86.2 231.721 85.5738 231.78C85.3991 230.095 85.2243 228.416 85.0496 226.73C86.5281 227.245 88.0067 227.754 89.4852 228.269C89.4296 229.713 88.9763 230.999 87.443 231.861L87.443 231.854Z"
            fill="#738B6B" />
        <path
            d="M84.0436 237.176C85.9889 239.44 84.3705 243.229 87.3923 245.032C87.2605 245.53 87.1088 246.014 86.9505 246.498C82.0461 244.615 81.6025 241.342 84.0369 237.176L84.0436 237.176Z"
            fill="#6E8967" />
        <path
            d="M87.7163 236.234C87.4488 235.133 87.1747 234.025 86.9072 232.924C88.4139 233.293 90.6675 232.905 90.4548 235.332C90.3413 236.595 88.8124 236.418 87.7164 236.227L87.7163 236.234Z"
            fill="#738B6B" />
        <path
            d="M89.5005 228.323C96.6362 233.099 102.2 239.256 105.922 247.023C106.909 250.501 104.601 252.253 102.286 254.011C100.068 255.365 98.6814 254.358 97.8186 252.299C96.664 249.531 96.0972 246.57 94.9818 243.264C92.6242 245.867 92.0951 251.079 86.9222 248.8C86.3492 248.241 85.9838 247.572 85.7791 246.811C85.641 246.051 85.6027 245.285 85.6244 244.513C85.9583 241.955 85.5678 239.308 86.4998 236.829C87.1855 235.592 87.1789 234.354 86.427 233.115C86.1881 232.44 86.1954 231.768 86.4356 231.099C87.2205 229.909 88.0581 228.78 89.5005 228.33L89.5005 228.323Z"
            fill="#55704F" />
        <path
            d="M90.0645 286.669C82.4732 280.957 78.0942 272.983 74.3259 264.536C72.9422 261.427 74.3168 258.64 74.8143 255.724C82.3605 259.466 82.5168 267.747 86.043 273.968C86.8686 278.229 91.5667 274.587 93.0868 277.398C93.9427 278.253 94.5105 279.277 94.8974 280.419C94.4671 283.276 99.553 285.601 95.7315 288.801C93.4176 289.221 91.6796 288.091 90.0578 286.676L90.0645 286.669Z"
            fill="#CEDDC9" />
        <path
            d="M85.8624 275.316C78.6405 273.58 83.296 265.285 78.4741 261.939C76.6774 260.695 76.003 257.839 74.8215 255.716C75.1721 254.07 75.516 252.43 75.8667 250.783C80.3576 250.293 82.71 253.06 84.6359 256.502C86.4375 262.81 93.3643 267.205 91.5773 274.879C89.7136 275.511 87.8665 276.462 85.8624 275.316Z"
            fill="#BBCDB5" />
        <path
            d="M109.436 261.685C110.907 269.627 110.961 277.574 109.543 285.532C108.372 289.219 106.358 287.78 105.033 285.942C103.44 283.735 102.41 281.115 101.975 278.342C101.395 274.742 101.526 271.216 103.167 267.866C104.778 265.328 105.824 262.192 109.436 261.685Z"
            fill="#7D9477" />
        <path
            d="M90.0656 286.667C92.2834 287.124 94.5012 287.581 96.7191 288.037C101.601 288.902 105.356 291.253 107.254 296.052C107.598 296.787 107.79 297.555 107.854 298.361C107.732 300.442 107.417 302.429 105.368 303.598C99.3442 298.787 94.3688 293.037 90.0588 286.674L90.0656 286.667Z"
            fill="#D8E2D3" />
        <path
            d="M83.0673 257.459C82.366 253.405 77.9878 253.318 75.8723 250.792C77.0528 246.885 76.7812 242.477 79.8249 239.202C82.9154 242.037 80.9307 248.298 86.6826 249.346C88.3938 250.496 89.4078 252.117 89.9857 254.053C90.3189 256.466 90.9976 258.929 88.9785 261.004C85.8287 261.788 84.7597 259.108 83.0739 257.459L83.0673 257.459Z"
            fill="#90A88A" />
        <path
            d="M109.436 261.683C107.85 263.635 106.258 265.595 104.673 267.547C104.47 267.239 104.267 266.924 104.051 266.616C103.62 263.383 103.51 260.054 101.424 257.283C100.714 255.898 101.828 254.373 101.098 252.98C102.598 250.907 105.464 249.933 105.921 247.016C108.387 251.595 110.76 256.193 109.436 261.676L109.436 261.683Z"
            fill="#587253" />
        <path
            d="M104.112 277.68C105.767 280.4 103.786 285.636 109.537 285.532C111.11 289.01 109.105 292.296 108.968 295.675C109.101 297.56 108.193 297.816 106.689 297.134L106.656 297.121C105.579 291.578 99.9873 287.984 100.06 281.928C100.145 280.179 100.635 278.6 101.926 277.343C102.758 276.767 103.489 276.875 104.112 277.673L104.112 277.68Z"
            fill="#A2B49B" />
        <path
            d="M106.688 297.14C107.446 296.656 108.21 296.165 108.967 295.681C110.583 300.051 110.169 304.532 110.582 309.341C106.826 308.349 106.12 305.959 105.374 303.601C105.81 301.45 106.252 299.298 106.688 297.147L106.688 297.14Z"
            fill="#B3C2AE" />
        <path
            d="M86.2919 249.76C86.4978 249.183 86.7036 248.613 86.9161 248.036C90.1548 248.87 91.0205 246.982 92.1405 244.359C92.7892 242.836 91.4441 239.234 95.3182 239.775C99.1591 240.309 95.7475 243.753 97.4238 245.049C100.05 247.087 96.9589 251.699 101.098 252.982C102.272 253.926 102.318 255.185 102.078 256.526C101.799 257.635 101.276 258.594 100.396 259.343C95.4052 261.785 93.8723 255.858 90.1866 255.133C89.5581 254.793 89.0507 254.328 88.6445 253.738C87.8603 252.412 87.0827 251.086 86.2985 249.76L86.2919 249.76Z"
            fill="#668060" />
        <path
            d="M102.537 277.343C102.153 279.009 101.775 280.676 101.391 282.335C96.8929 289.008 95.6232 282.752 93.3933 280.338C92.9478 279.688 92.5024 279.038 92.0501 278.394C91.4635 277.256 91.2372 276.036 91.2177 274.764C90.3114 268.139 84.8963 263.648 83.0602 257.459C85.0119 258.525 86.9568 259.598 88.9085 260.664C89.9979 260.855 90.7825 261.529 91.4927 262.316C92.6163 263.645 93.8338 264.903 94.9168 266.293C95.3227 266.916 95.635 267.571 95.8936 268.273C96.5404 272.446 100.474 274.213 102.53 277.343L102.537 277.343Z"
            fill="#A6BBA0" />
        <path
            d="M93.3932 280.335C96.1103 280.784 97.7139 285.719 101.391 282.332C102.647 287.437 107.63 291.218 106.654 297.117C105.064 292.208 98.9743 292.215 96.7237 288.031C95.6804 285.438 92.0294 283.967 93.3932 280.335Z"
            fill="#BACBB5" />
        <path
            d="M91.2186 274.762C92.3456 275.78 92.2918 277.063 92.0511 278.392C90.7138 275.902 86.029 280.157 85.862 275.316C87.6476 275.13 89.433 274.949 91.2186 274.762Z"
            fill="#BACBB5" />
        <path
            d="M102.537 277.341C96.8058 276.254 93.6379 273.192 94.5439 266.985C96.9491 266.739 97.8945 263.634 100.574 263.91C102.666 264.299 103.734 265.841 104.667 267.528C104.667 267.528 104.674 267.541 104.667 267.541C103.759 270.879 103.037 274.225 104.111 277.671C103.587 277.552 103.062 277.44 102.531 277.334L102.537 277.341Z"
            fill="#9BB295" />
        <path
            d="M90.3424 262.276C89.8624 261.738 89.3892 261.2 88.9091 260.669C88.8211 258.359 88.733 256.049 88.6382 253.745C89.2095 253.845 89.7873 253.951 90.3652 254.05C91.5439 255.214 92.3076 256.587 92.4691 258.259C92.4374 259.956 92.0483 261.469 90.3424 262.282L90.3424 262.276Z"
            fill="#62785D" />
        <path
            d="M104.667 267.536C103.179 266.614 101.692 265.693 100.205 264.772C98.1458 262.533 100.587 260.171 100.013 257.888C100.697 257.437 101.38 256.985 102.071 256.533C106.726 259.306 106.177 263.306 104.667 267.536Z"
            fill="#7D9477" />
        <path
            d="M100.012 257.888C102.017 260.133 100.461 262.472 100.203 264.772C98.0466 264.828 97.9813 270.218 94.5425 266.986L94.5761 266.96C92.4291 264.268 93.5756 260.427 91.3684 257.761C91.0358 256.52 90.7031 255.285 90.3705 254.043C95.11 251.499 95.074 260.943 100.019 257.888L100.012 257.888Z"
            fill="#7F9878" />
        <path
            d="M91.3642 257.761C96.3103 259.478 95.4978 263.203 94.5719 266.96C92.0086 266.439 90.7022 264.781 90.3435 262.275C90.6859 260.768 91.0217 259.268 91.3642 257.761Z"
            fill="#96AE8E" />
        <path
            d="M24.6351 138.739C20.609 147.906 11.5179 151.594 2.14374 158.68C9.56493 158.614 14.7765 158.564 19.988 158.514C23.9089 157.192 21.0923 149.981 27.0568 150.452C28.2243 150.191 29.2873 149.744 30.1615 148.915C31.4146 143.837 32.2123 139.008 24.6284 138.739L24.6351 138.739Z"
            fill="#CDDFC7" />
        <path
            d="M45.1714 155.499C49.7029 153.718 54.6919 152.714 57.6622 148.234C54.1068 144.695 59.3823 143.042 59.3858 140.267C59.8454 137.17 64.2492 134.283 59.92 130.915C57.6458 130.744 56.2802 132.094 55.1172 133.778C54.3317 135.028 53.7646 136.372 53.3504 137.745C52.8616 138.02 53.7272 140.432 51.8504 138.601C51.3564 138.123 50.8064 137.911 50.1403 137.963C47.7363 138.716 46.7766 140.669 45.9751 142.776C45.0589 146.247 43.0756 149.32 42.2257 152.818C42.46 154.531 42.5662 156.389 45.1647 155.499L45.1714 155.499Z"
            fill="#6B8B64" />
        <path
            d="M24.6348 138.739C29.1601 140.591 29.6902 144.484 29.6783 148.643C32.2085 149.749 33.8283 147.677 35.8267 146.9C38.1296 145.647 40.8248 145.051 42.6051 142.9C44.2972 140.297 46.8936 137.756 43.2662 134.728C42.537 134.461 41.7789 134.406 41.0189 134.531C37.5022 136.622 34.2697 135.835 31.1935 133.526C29.0117 135.266 26.8233 136.999 24.6415 138.739L24.6348 138.739Z"
            fill="#C3D7BC" />
        <path
            d="M59.7779 131.715C61.5328 134.968 57.4577 137 58.0307 140.001C58.429 141.936 59.5672 143.139 61.5262 143.533C63.921 139.34 69.2696 137.082 69.4707 131.441C67.9212 127.045 64.7312 127.25 61.1706 128.482C60.462 128.774 59.845 129.206 59.3133 129.76C58.9856 130.521 59.1448 131.175 59.7779 131.715Z"
            fill="#61805A" />
        <path
            d="M31.1877 133.525C33.4385 140.744 37.0038 140.31 41.3512 135.259C42.1185 133.245 43.707 131.591 43.9643 129.351C44.0036 128.181 43.7353 127.146 42.6779 126.469C38.2833 127.899 34.2025 129.844 31.1877 133.525Z"
            fill="#ABC3A3" />
        <path
            d="M63.1764 120.224C57.8468 120.119 52.9177 121.736 48.0972 123.773C47.172 125.627 47.7585 127.39 48.3847 129.167C49.2234 130.993 50.5069 132.305 52.5387 132.74C53.31 132.801 54.0567 132.683 54.7848 132.431C56.4991 131.458 57.4353 129.825 58.4176 128.225C58.8168 127.623 59.1764 126.988 59.5359 126.367C60.4116 124.779 61.7953 123.616 62.9745 122.278C63.3808 121.63 63.4614 120.946 63.183 120.23L63.1764 120.224Z"
            fill="#73916B" />
        <path
            d="M62.5072 120.602C62.5155 121.061 62.5105 121.527 62.4922 121.986C60.671 123.61 59.4443 125.653 58.4091 127.825L58.4092 127.812C57.8455 130.082 58.0541 131.708 61.063 131.022C61.5367 130.907 62.0042 130.766 62.4653 130.591C65.33 127.255 70.2202 125.531 70.6899 120.278C70.962 119.123 71.2341 117.968 71.4996 116.807C69.8125 117.114 68.1322 117.416 66.4451 117.723C65.1303 118.681 63.8221 119.638 62.5073 120.595L62.5072 120.602Z"
            fill="#3D5238" />
        <path
            d="M45.1695 155.5C43.7401 154.759 43.2279 153.516 43.2578 151.985C42.9467 151.829 42.6357 151.666 42.3246 151.503C39.6417 152.199 36.9903 153.055 34.2058 153.298C33.1261 153.446 32.0589 153.667 31.0043 153.949C28.4786 155.492 23.8417 153.485 23.3418 158.458C30.8108 158.891 38.2734 159.305 45.1695 155.5Z"
            fill="#90AD88" />
        <path
            d="M23.3421 158.459C25.2202 155.272 29.0009 157.056 31.4551 155.366C31.9902 151.439 27.21 151.606 26.3626 148.742C17.3186 147.492 22.2116 155.325 19.994 158.522C21.1122 158.501 22.2305 158.48 23.342 158.466L23.3421 158.459Z"
            fill="#B2C9AA" />
        <path
            d="M70.6437 120.831C67.5417 123.958 63.7977 126.147 61.3595 130.041C64.3612 128.795 67.0863 129.118 69.4702 131.44C71.5337 128.341 71.071 124.376 70.6437 120.831Z"
            fill="#4C6A46" />
        <path
            d="M61.5258 143.539C60.8719 141.861 59.7135 140.678 58.0303 140.007C57.3789 141.165 57.0153 142.771 56.0302 143.399C49.6505 147.45 56.6387 146.813 57.6547 148.242C58.9428 146.679 60.231 145.109 61.5191 143.546L61.5258 143.539Z"
            fill="#5B7B54" />
        <path
            d="M49.565 128.422C49.076 126.873 48.587 125.324 48.0981 123.768C45.9073 123.884 44.244 125.07 42.6783 126.457C42.7449 127.676 42.8115 128.895 42.8715 130.113C43.4326 134.206 45.2734 130.785 46.5514 130.759C47.1335 130.472 47.6829 130.139 48.2257 129.792C48.716 129.378 49.1603 128.917 49.5584 128.416L49.565 128.422Z"
            fill="#8EAB87" />
        <path
            d="M26.356 148.742C23.4048 154.526 30.346 152.698 31.4484 155.365C32.5271 155.317 33.6124 155.269 34.6911 155.214C35.8848 151.926 37.7374 148.639 34.7118 145.345C33.036 146.445 31.3537 147.545 29.6779 148.645C28.5728 148.679 27.4611 148.707 26.356 148.742Z"
            fill="#A9C2A1" />
        <path
            d="M43.2515 151.986C46.8378 150.222 46.269 146.222 47.8771 143.385C47.2617 142.446 46.895 141.278 45.6478 140.911C44.4325 140.679 43.3712 140.967 42.5226 141.896C42.2614 142.658 42.0184 143.587 41.3556 143.953C39.1128 145.18 35.7013 145.548 36.2884 149.089C36.9442 153.049 40.8652 150.496 42.9473 151.816L43.2581 151.993L43.2515 151.986Z"
            fill="#90AD88" />
        <path
            d="M46.3711 141.795C46.8777 142.326 47.3777 142.857 47.8844 143.389C48.1747 141.169 49.0727 139.375 51.2982 138.514C54.3176 136.863 55.0801 134.675 52.9153 131.783C51.8027 130.667 50.6836 129.543 49.571 128.426C48.9916 128.46 48.4189 128.494 47.8462 128.527C46.2156 132.822 43.814 137.035 46.3777 141.795L46.3711 141.795Z"
            fill="#9BB694" />
        <path
            d="M59.9059 130.217C58.3967 129.469 58.0056 128.1 57.8689 126.588C56.7789 128.293 55.689 129.999 54.599 131.697C53.5794 133.663 53.4164 135.192 56.3587 135.117C57.5025 133.978 58.6396 132.846 59.7833 131.707C59.7688 131.201 59.8074 130.709 59.906 130.211L59.9059 130.217Z"
            fill="#465D41" />
        <path
            d="M56.351 135.123C54.9546 134.403 54.7294 133.076 54.5912 131.703C54.0252 131.731 53.4659 131.758 52.8999 131.785C53.299 134.252 52.2246 136.37 51.2828 138.516C51.3236 139.048 51.3378 139.581 51.3319 140.12C53.3046 141.093 53.7962 139.341 54.6859 138.306C55.2364 137.247 55.7937 136.189 56.3443 135.13L56.351 135.123Z"
            fill="#647B5F" />
        <path
            d="M54.6993 138.301C53.5814 138.901 52.4634 139.508 51.3454 140.115C51.3001 141.219 49.8288 143.106 52.0447 143.124C55.2189 143.152 54.5639 140.349 54.6992 138.308L54.6993 138.301Z"
            fill="#86A380" />
        <path
            d="M42.9419 151.811C39.1024 149.32 39.1077 148.827 43.1026 141.923C42.558 141.198 42.0061 141.165 41.4654 141.925C39.2169 143.065 36.9683 144.205 34.7198 145.346C35.4627 148.641 33.0378 151.929 34.6991 155.222C37.4597 154.114 41.3032 155.633 42.9486 151.811L42.9419 151.811Z"
            fill="#A1BB99" />
        <path
            d="M41.4651 141.923C42.0111 141.896 42.5568 141.895 43.1022 141.921C44.1941 141.879 45.2794 141.838 46.3713 141.796C44.9442 137.162 50.244 133.273 47.8398 128.529L47.1011 128.527L46.3686 128.559C45.4646 130.905 43.8857 132.898 42.9222 135.21C45.214 138.05 42.1346 139.721 41.4651 141.923Z"
            fill="#ABC3A3" />
        <path
            d="M42.9216 135.209C45.8838 133.93 46.4038 131.387 46.3681 128.552C44.7951 128.155 45.0739 131.898 42.8771 130.118C41.4506 131.56 39.5796 132.864 41.3572 135.252C41.8768 135.211 42.4027 135.197 42.9216 135.209Z"
            fill="#9CB794" />
        <path
            d="M57.8574 126.601C60.2174 125.608 61.8204 123.855 62.9099 121.578C59.7665 121.783 58.1043 123.475 57.8574 126.601Z"
            fill="#465D41" />
    </g>
</svg>
