<svg width="168" height="331" viewBox="0 0 168 331" fill="none" xmlns="http://www.w3.org/2000/svg">
    <path
        d="M72.5947 93.8443C76.5744 100.799 80.5541 107.7 83.9576 114.962C87.2942 122.078 90.2287 129.367 92.8819 136.777C98.2418 151.718 102.329 167.101 105.531 182.631C108.734 198.188 110.985 213.919 112.499 229.731C114.013 245.596 114.71 261.569 114.053 277.501C113.692 286.264 112.888 295.001 111.534 303.657C110.167 312.367 108.318 321.358 104.928 329.519C104.325 330.979 101.967 330.323 102.248 328.741C103.588 321.05 105.411 313.452 106.576 305.721C107.742 297.976 108.613 290.19 109.109 282.378C110.074 266.888 109.618 251.331 108.345 235.868C105.772 204.647 100.346 173.559 90.6575 143.731C87.9374 135.37 84.8286 127.129 81.4519 119.009C78.0886 110.916 74.5912 102.782 70.3703 95.1173C69.6735 93.8443 71.8711 92.5847 72.5947 93.8577V93.8443Z"
        fill="#28532A" />
    <path
        d="M107.97 310.947C107.97 310.947 80.5275 232.987 62.5183 240.022C44.4957 247.057 64.287 281.588 107.97 310.947Z"
        fill="#28532A" />
    <path
        d="M111.896 272.222C111.896 272.222 137.476 194.959 160.953 205.37C184.429 215.782 139.285 268.188 111.896 272.222Z"
        fill="#28532A" />
    <path
        d="M109.189 220.539C108.975 218.676 83.0597 145.969 48.5688 163.617C14.0913 181.264 109.189 220.539 109.189 220.539Z"
        fill="#28532A" />
    <path
        d="M98.8717 162.196C98.8717 162.196 113.25 92.2631 146.454 92.4775C179.659 92.6919 137.651 149.319 98.8717 162.196Z"
        fill="#28532A" />
    <path
        d="M71.0947 85.4696C71.0947 85.4696 108.199 32.5675 102.182 14.7459C96.1522 -3.07576 73.4531 16.997 69.9424 41.0495C69.9424 41.0495 72.7965 -1.34719 48.8244 0.0329806C24.8523 1.41315 44.9385 46.5702 44.9385 46.5702C44.9385 46.5702 11.466 5.87526 1.75116 35.7164C-7.97704 65.5576 71.1082 85.4696 71.1082 85.4696H71.0947Z"
        fill="#FF725E" />
    <path
        d="M74.9131 100.772C75.1409 101.201 103.227 71.5878 90.7114 64.4056C78.196 57.2099 74.4441 70.1004 74.4441 70.1004C74.4441 70.1004 58.552 56.9017 55.7916 74.9511C55.7916 74.9511 36.7104 66.6567 39.7254 82.5086C42.7269 98.3605 74.9131 100.786 74.9131 100.786V100.772Z"
        fill="#28532A" />
</svg>
