<svg width="1472" height="1394" viewBox="0 0 1472 1394" fill="none" xmlns="http://www.w3.org/2000/svg">
<path fill-rule="evenodd" clip-rule="evenodd" d="M33.7384 277.088C90.798 223.404 475.682 16.2313 475.682 16.2313C768.113 135.293 956.325 4.83984 956.325 4.83984C956.325 4.83984 985.602 23.5079 1030.53 52.193C1031.13 51.1642 1031.43 50.6283 1031.43 50.6283C1031.43 50.6283 1031.13 51.1656 1030.54 52.2007C1145.41 125.54 1362.56 264.344 1454.31 324.064C1455.98 325.155 1457.04 327.279 1457.55 330.302C1466.05 341.712 1452.22 381.687 1430.44 429.195C1405.62 490.645 1368.93 562.592 1341.88 597.498C1328.04 621.686 1318.73 637.274 1318.73 637.274L1318.75 637.197L1296.95 633.154C1275.48 625.438 1290.95 619.857 1290.95 619.857L1293.56 614.429C1283.08 605.726 1270.94 588.946 1253.23 564.464C1238.04 543.459 1218.74 516.783 1192.87 484.674C1259.5 836.674 1250.14 1257.96 1222.32 1306.71C1223.34 1308.12 1223.91 1309.87 1223.81 1311.74C1223.6 1316.09 1219.89 1319.44 1215.53 1319.22C1056.41 1311.22 843.025 1328.8 669.089 1348.45C668.347 1348.54 667.607 1348.62 666.867 1348.7C605.937 1357.87 541.431 1366.57 473.092 1373.22C465.054 1374.34 457.369 1375.42 450.064 1376.46C422.466 1380.39 400.302 1383.71 385.042 1386.05C377.412 1387.22 371.508 1388.14 367.514 1388.77C365.517 1389.08 363.998 1389.32 362.979 1389.49C362.47 1389.57 362.085 1389.63 361.829 1389.67L361.541 1389.72L361.469 1389.73L361.452 1389.73C361.448 1389.73 361.447 1389.73 360.187 1381.94L361.447 1389.73C357.142 1390.43 353.088 1387.5 352.393 1383.2C351.948 1380.45 352.983 1377.8 354.913 1376.06C241.13 1239.51 277.829 480.695 277.829 480.695C277.829 480.695 226.164 556.425 185.64 570.685L190.175 580.304C190.008 580.238 188.353 580.681 173.126 590.641C136.256 614.764 17.6831 290.7 17.6831 290.7L33.7384 277.088ZM190.191 580.337C190.191 580.337 190.202 580.314 190.175 580.304L190.191 580.337ZM920.671 1309.4C1007.33 1303.52 1093.49 1300.27 1170.37 1301.85C1096.95 1290.86 1014.25 1296.75 920.671 1309.4Z" fill="white"/>
<path d="M500.082 72.6394C500.082 72.6394 94.4407 290.985 89.7064 319.528C85.0419 348.091 177.125 560.453 213.783 579.242C250.441 598.03 319.222 497.212 319.222 497.212C319.222 497.212 284.647 1212.11 394.525 1320.97C745.4 1301.72 994.613 1207.63 1176.77 1256.44C1206.4 1264.37 1221.03 846.145 1155.68 500.849C1236.98 601.759 1247.26 643.965 1278.32 618.665C1320.52 584.17 1416.91 368.587 1394.66 354.033C1277.98 278.087 939.443 62.2263 939.443 62.2263C939.443 62.2263 767.396 181.475 500.082 72.6394Z" fill="#E1E9FF"/>
<path d="M75.5911 316.704C75.5911 316.704 183.98 612.935 217.684 590.884C233.81 580.336 233.283 581.465 233.283 581.465L103.887 307.026C103.887 307.026 108.818 292.807 91.0599 303.589L75.5911 316.704Z" fill="#A2B9F2"/>
<path d="M1281.36 636.889C1281.36 636.889 1443.07 366.034 1404.68 353.729C1386.31 347.836 1387.5 347.558 1387.5 347.558L1255.96 620.968C1255.96 620.968 1241.82 626.07 1261.45 633.123L1281.38 636.819L1281.36 636.889Z" fill="#A2B9F2"/>
<path d="M319.273 497.294C319.273 497.294 333.214 475.103 352.367 440.71C371.571 406.405 395.778 359.842 415.641 311.368C420.676 299.268 425.363 287.075 429.664 274.927C431.675 268.816 433.737 262.794 435.729 256.753C437.494 250.725 439.328 244.716 440.986 238.809C444.161 226.958 446.806 215.413 448.586 204.309C449.467 198.792 450.329 193.344 450.698 188.064C450.952 185.442 451.206 182.82 451.423 180.338C451.5 177.818 451.508 175.28 451.567 172.83C451.842 167.898 451.518 163.253 451.226 158.766C451.161 154.266 450.339 150.086 449.669 146.171C449.177 142.153 448.098 138.651 447.051 135.308C446.588 133.689 446.125 132.071 445.643 130.522C445.055 129.094 444.378 127.717 443.752 126.429C442.499 123.852 441.577 121.438 440.436 119.563C439.206 117.739 438.129 116.18 437.275 114.905C435.568 112.356 434.663 110.993 434.663 110.993C434.663 110.993 435.568 112.356 437.364 114.854C438.218 116.129 439.364 117.707 440.613 119.461C441.754 121.336 442.746 123.768 444.017 126.276C444.643 127.564 445.32 128.941 445.978 130.388C446.46 131.936 446.942 133.485 447.474 135.122C448.54 138.396 449.739 142.005 450.251 145.953C450.99 149.887 451.882 154.086 452.016 158.605C452.378 163.11 452.684 167.824 452.497 172.706C452.438 175.155 452.43 177.694 452.353 180.213C452.117 182.765 451.863 185.387 451.679 188.028C451.379 193.327 450.517 198.775 449.618 204.361C447.908 215.484 445.244 227.099 442.189 239.057C440.602 244.983 438.768 250.991 437.054 257.107C435.062 263.149 433.069 269.19 431.04 275.371C426.808 287.537 422.154 299.888 417.188 312.006C397.098 360.494 372.542 406.964 353.148 441.143C333.684 475.303 319.222 497.206 319.222 497.206L319.273 497.294Z" fill="#A2B9F2"/>
<path d="M1155.68 500.834C1155.68 500.834 1139.51 478.644 1117.31 444.08C1095.13 409.447 1066.97 362.301 1042.93 312.895C1036.97 300.54 1031.37 287.982 1026.1 275.586C1020.85 263.12 1016.19 250.665 1011.9 238.531C1007.85 226.313 1004.16 214.416 1001.48 202.94C1000.2 197.141 998.767 191.602 998.002 186.092C997.079 180.615 996.169 175.365 995.766 170.176C995.546 167.652 995.256 165.108 995.018 162.653C995.007 160.185 994.977 157.786 994.929 155.457C994.88 153.128 994.902 150.817 994.904 148.576C995.116 146.391 995.328 144.207 995.521 142.092C995.714 139.977 995.87 138.001 996.095 136.044C996.53 134.143 996.876 132.293 997.274 130.532C997.998 126.99 998.649 123.727 999.851 120.912C1000.9 118.128 1001.87 115.623 1002.67 113.449C1003.81 111.437 1004.87 109.704 1005.61 108.334C1007.25 105.56 1008.1 104.069 1008.1 104.069C1008.1 104.069 1007.25 105.56 1005.68 108.352C1004.92 109.793 1003.95 111.474 1002.81 113.486C1002.01 115.661 1001.11 118.184 1000.13 120.986C998.946 123.732 998.366 127.014 997.711 130.574C997.383 132.354 996.967 134.186 996.602 136.105C996.446 138.081 996.291 140.056 996.116 142.102C995.942 144.147 995.8 146.35 995.588 148.535C995.604 150.706 995.652 153.035 995.7 155.365C995.749 157.694 995.778 160.093 995.859 162.58C996.098 165.035 996.337 167.49 996.627 170.033C996.978 175.134 997.958 180.402 998.881 185.88C999.665 191.32 1001.16 196.877 1002.47 202.606C1005.23 214.032 1008.92 225.928 1012.99 238.076C1017.3 250.141 1022.05 262.545 1027.39 274.96C1032.73 287.374 1038.37 299.794 1044.41 312.097C1068.16 361.498 1096.06 408.797 1117.99 443.514C1139.81 478.351 1155.54 500.797 1155.54 500.797L1155.68 500.834Z" fill="#A2B9F2"/>
<path d="M500.081 72.6185C500.081 72.6185 703.256 187.431 939.443 62.2054" stroke="#A2B9F2" stroke-width="14.4342" stroke-miterlimit="10" stroke-linecap="round"/>
<path d="M394.506 1321.03C394.506 1321.03 884.587 1241.8 1176.75 1256.5" stroke="#A2B9F2" stroke-width="14.4342" stroke-miterlimit="10" stroke-linecap="round"/>
<path d="M697.839 390.853C697.839 390.853 497.649 387.87 470.09 543.145C452.627 641.501 537.897 623.03 548.584 589.282C559.27 555.534 567.897 487.089 697.839 390.853Z" fill="#625FF9"/>
<path d="M776.448 391.683C776.448 391.683 920.026 352.748 1013.75 521.915C1055.19 596.752 960.719 608.276 948.216 575.188C935.731 542.031 911.254 480.854 776.448 391.683Z" fill="#625FF9"/>
<path d="M559.864 559.749C562.266 650.053 645.997 720.981 746.897 718.354C847.815 715.657 927.635 640.286 925.283 550.071C922.951 459.785 807.359 374.194 737.897 376.054C665.808 377.958 557.531 469.464 559.864 559.749Z" fill="white"/>
<path d="M812.931 587.346C813.395 603.46 789.181 617.146 758.845 617.983C728.528 618.751 703.597 606.393 703.202 590.297C702.808 574.202 727.041 560.447 757.288 559.66C787.605 558.892 812.536 571.251 812.931 587.346Z" fill="#2129B7"/>
<path d="M695.716 536.804C695.871 543.196 690.862 548.504 684.47 548.659C678.077 548.814 672.7 543.787 672.615 537.413C672.459 531.02 677.468 525.713 683.861 525.558C690.253 525.402 695.542 530.481 695.716 536.804Z" fill="#2129B7"/>
<path d="M832.134 533.25C832.289 539.642 827.281 544.95 820.8 545.156C814.477 545.33 809.118 540.233 808.944 533.91C808.789 527.517 813.798 522.21 820.209 521.985C826.602 521.83 831.979 526.857 832.134 533.25Z" fill="#2129B7"/>
<path d="M758.845 617.997L759.645 648.472C759.645 648.472 728.606 658.909 717.792 639.872" stroke="#625FF9" stroke-width="1.80428" stroke-miterlimit="10"/>
<path d="M759.645 648.463C759.645 648.463 785.818 656.746 797.522 638.439" stroke="#625FF9" stroke-width="1.80428" stroke-miterlimit="10"/>
</svg>
