<svg width="1107" height="1022" viewBox="0 0 1107 1022" fill="none" xmlns="http://www.w3.org/2000/svg">
<path fill-rule="evenodd" clip-rule="evenodd" d="M257.727 2.45727C317.745 -8.49847 390.422 34.548 415.2 91.692C511.905 68.2379 634.767 62.4084 746.578 97.3685C774.954 45.1934 842.735 7.58109 899.281 17.903C926.092 22.765 950.125 37.768 970.406 55.9659C983.742 68.0516 995.967 81.6654 1003.61 97.9186C1011.8 115.144 1014.44 134.453 1016.53 153.485C1019.86 183.908 1021.11 215.719 1008.89 243.641C1002.39 258.478 992.396 270.846 980.136 280.676C982.486 284.753 984.787 288.901 987.036 293.121C1043.3 398.697 1096.36 509.691 1105.67 628.881C1115.12 748.07 1072.75 878.096 973.005 943.942C907.298 987.284 826.032 998.397 747.823 1006.73C560.147 1026.87 362.47 1037.15 190.214 959.778C125.757 930.884 64.634 887.959 31.1553 825.724C0.177016 767.796 -3.71263 698.755 2.53859 633.326C15.8797 494.065 74.1024 359.959 164.549 253.468C157.859 246.019 152.276 237.542 148.122 228.057C135.759 200.135 137.148 168.323 140.482 137.9C142.565 118.869 145.205 99.5595 153.401 82.3339C161.041 66.0808 173.266 52.467 186.602 40.3813C206.884 22.3222 230.916 7.31933 257.727 2.45727Z" fill="white"/>
<g clip-path="url(#clip0_4094_1507)">
<path d="M732.66 155.739C727.688 198.131 747.081 241.518 778.782 270.111C796.683 286.272 818.314 298.206 841.562 304.795C893.153 319.34 957.425 300.444 978.931 251.339C989.871 226.351 988.752 197.883 985.769 170.657C983.904 153.626 981.542 136.346 974.207 120.931C967.37 106.386 956.43 94.2026 944.496 83.3871C926.345 67.1016 904.839 53.6754 880.846 49.3243C818.19 37.8872 740.119 92.2135 732.66 155.615V155.739Z" fill="#F8C9DA"/>
<path d="M421.74 155.713C426.712 198.105 407.319 241.491 375.618 270.084C357.716 286.245 336.085 298.179 312.838 304.768C261.247 319.313 196.975 300.417 175.468 251.312C164.404 226.325 165.647 197.856 168.631 170.631C170.496 153.599 172.858 136.319 180.192 120.904C187.03 106.359 197.97 94.1759 209.904 83.3604C228.054 67.1992 249.561 53.773 273.554 49.422C336.21 37.9848 414.281 92.3112 421.74 155.713Z" fill="#F8C9DA"/>
<path d="M378.608 170.023C381.716 196.254 369.657 223.106 350.14 240.759C339.075 250.704 325.649 258.163 311.353 262.142C279.403 271.092 239.746 259.407 226.32 229.073C219.483 213.658 220.229 196.005 222.093 179.222C223.212 168.656 224.704 158.089 229.304 148.516C233.531 139.565 240.368 131.982 247.703 125.269C258.891 115.199 272.193 106.87 287.111 104.26C325.898 97.1735 374.133 130.739 378.732 170.023H378.608Z" fill="#F2F9FD"/>
<path d="M934.394 170.433C937.502 196.664 925.443 223.516 905.926 241.169C894.861 251.115 881.435 258.574 867.139 262.552C835.19 271.503 795.533 259.817 782.106 229.484C775.269 214.068 776.015 196.415 777.88 179.633C778.998 169.066 780.49 158.499 785.09 148.926C789.317 139.976 796.154 132.392 803.489 125.679C814.677 115.61 827.979 107.28 842.897 104.67C881.684 97.5836 929.919 131.149 934.518 170.433H934.394Z" fill="#F2F9FD"/>
<path d="M941.632 315.585C991.981 410.065 1039.47 509.394 1047.8 616.058C1056.25 722.722 1018.34 839.082 929.076 898.008C870.275 936.795 797.549 946.74 727.559 954.199C559.607 972.225 382.705 981.424 228.552 912.18C170.869 886.322 116.17 847.908 86.2098 792.214C58.4872 740.374 55.0063 678.589 60.6006 620.036C76.7617 451.338 166.518 291.094 301.775 189.155C409.93 107.603 795.933 42.2124 941.632 315.585Z" fill="#F8C9DA"/>
<path d="M799.79 516.62C765.479 507.917 730.297 512.02 698.597 527.559C694.246 529.797 690.267 523.457 694.121 520.473C723.833 496.605 768.711 492.253 802.525 509.409C806.503 511.398 804.141 517.738 799.79 516.62Z" fill="#262851"/>
<path d="M292.832 515.985C325.03 496.84 369.659 498.456 400.117 520.46C404.095 523.319 400.366 529.659 396.014 527.67C364.065 513.996 329.132 512.131 296.064 522.946C291.837 524.438 289.102 518.222 292.832 515.985Z" fill="#262851"/>
<path d="M732.159 606.758C735.267 626.152 765.475 637.464 799.414 631.994C833.352 626.525 858.464 606.261 855.356 586.868C852.248 567.474 822.04 556.161 788.101 561.631C754.038 567.101 729.051 587.365 732.159 606.758Z" fill="#F4A3A6"/>
<path d="M380.717 600.143C379.474 619.785 350.508 633.957 316.073 631.72C281.637 629.482 254.785 611.705 256.028 592.063C257.271 572.421 286.237 558.249 320.672 560.486C355.108 562.724 381.961 580.501 380.717 600.143Z" fill="#F4A3A6"/>
<path d="M522.312 549.448C520.323 544.724 519.204 538.508 522.934 535.027C525.047 533.038 528.031 532.416 530.89 532.044C540.463 530.676 550.159 530.427 559.732 531.049C563.337 531.298 567.191 531.795 570.174 533.784C575.893 537.513 577.385 545.718 575.023 552.059C572.661 558.523 567.315 563.247 561.721 567.101C557.991 569.587 553.391 572.446 549.04 573.317C544.814 574.187 541.83 571.949 538.473 569.587C531.387 564.49 525.669 557.404 522.188 549.448H522.312Z" fill="#262851"/>
</g>
<defs>
<clipPath id="clip0_4094_1507">
<rect width="990.555" height="919.197" fill="white" transform="translate(58.3667 47.9414)"/>
</clipPath>
</defs>
</svg>
