<svg width="1361" height="1417" viewBox="0 0 1361 1417" fill="none" xmlns="http://www.w3.org/2000/svg">
<mask id="path-1-inside-1_4490_1599" fill="white">
<path fill-rule="evenodd" clip-rule="evenodd" d="M660.52 1265.32C619.466 1315.28 565.892 1353.77 501.141 1373.94C414.657 1400.83 303.492 1391.8 236.271 1366.72C178.682 1345.25 131.528 1313.54 93.0012 1267.79C83.3696 1256.35 74.1393 1243.91 65.511 1230.47C8.32333 1142.18 -1.10762 1047.47 0.0963268 943.126C0.581846 905.891 3.22922 862.441 7.72666 815.364C11.5246 773.229 17.8002 719.186 28.3759 653.425C32.7122 625.745 37.479 597.829 42.6291 570.068C42.7407 567.337 43.1682 565.551 43.7017 563.322C44.0564 561.84 44.4581 560.162 44.8448 557.881C46.2498 549.263 49.3603 533.616 53.6734 513.672C67.4032 447.175 83.2056 383.178 100.402 327.314C106.144 307.803 111.856 289.884 117.283 274.952C124.223 255.834 131.75 237.74 139.798 220.662C142.112 215.623 144.439 210.768 146.778 206.108C267.659 -35.0692 499.064 -59.5858 636.924 106.385C671.424 148.273 700.162 202.253 720.021 267.925C722.952 261.053 725.964 254.331 729.052 247.76C731.45 242.521 733.863 237.479 736.288 232.647C790.178 125.193 866.035 60.757 945.776 37.0409C1045.71 6.36704 1151.41 40.4914 1228.08 134.952C1265.85 181.08 1296.46 241.658 1315.65 316.144C1321.04 336.692 1325.6 358.296 1329.24 380.948H1328.84C1332.1 401.22 1335.02 421.682 1337.64 442.139C1346.03 504.841 1351.37 564.574 1355.32 629.382C1355.52 632.615 1355.72 635.14 1355.88 637.196L1355.88 637.199L1355.88 637.202V637.204C1356.3 642.663 1356.46 644.816 1355.85 648.15C1359.08 701.545 1360.94 755.57 1360.94 809.139C1360.94 909.067 1354.32 1007.39 1337.86 1096.68C1315.56 1218.88 1246.56 1327.56 1139.06 1381.06C1123.7 1388.7 1107.56 1395.21 1090.65 1400.48L1090.65 1400.48C1079.84 1403.84 1068.64 1406.64 1057.2 1408.92C1037.7 1412.8 1017.47 1415.16 997.174 1416.2C934.057 1419.43 870.286 1409.86 825.778 1393.26C768.189 1371.79 721.035 1340.08 682.508 1294.33L682.51 1294.33C674.896 1285.29 667.533 1275.62 660.52 1265.32Z"/>
</mask>
<path fill-rule="evenodd" clip-rule="evenodd" d="M660.52 1265.32C619.466 1315.28 565.892 1353.77 501.141 1373.94C414.657 1400.83 303.492 1391.8 236.271 1366.72C178.682 1345.25 131.528 1313.54 93.0012 1267.79C83.3696 1256.35 74.1393 1243.91 65.511 1230.47C8.32333 1142.18 -1.10762 1047.47 0.0963268 943.126C0.581846 905.891 3.22922 862.441 7.72666 815.364C11.5246 773.229 17.8002 719.186 28.3759 653.425C32.7122 625.745 37.479 597.829 42.6291 570.068C42.7407 567.337 43.1682 565.551 43.7017 563.322C44.0564 561.84 44.4581 560.162 44.8448 557.881C46.2498 549.263 49.3603 533.616 53.6734 513.672C67.4032 447.175 83.2056 383.178 100.402 327.314C106.144 307.803 111.856 289.884 117.283 274.952C124.223 255.834 131.75 237.74 139.798 220.662C142.112 215.623 144.439 210.768 146.778 206.108C267.659 -35.0692 499.064 -59.5858 636.924 106.385C671.424 148.273 700.162 202.253 720.021 267.925C722.952 261.053 725.964 254.331 729.052 247.76C731.45 242.521 733.863 237.479 736.288 232.647C790.178 125.193 866.035 60.757 945.776 37.0409C1045.71 6.36704 1151.41 40.4914 1228.08 134.952C1265.85 181.08 1296.46 241.658 1315.65 316.144C1321.04 336.692 1325.6 358.296 1329.24 380.948H1328.84C1332.1 401.22 1335.02 421.682 1337.64 442.139C1346.03 504.841 1351.37 564.574 1355.32 629.382C1355.52 632.615 1355.72 635.14 1355.88 637.196L1355.88 637.199L1355.88 637.202V637.204C1356.3 642.663 1356.46 644.816 1355.85 648.15C1359.08 701.545 1360.94 755.57 1360.94 809.139C1360.94 909.067 1354.32 1007.39 1337.86 1096.68C1315.56 1218.88 1246.56 1327.56 1139.06 1381.06C1123.7 1388.7 1107.56 1395.21 1090.65 1400.48L1090.65 1400.48C1079.84 1403.84 1068.64 1406.64 1057.2 1408.92C1037.7 1412.8 1017.47 1415.16 997.174 1416.2C934.057 1419.43 870.286 1409.86 825.778 1393.26C768.189 1371.79 721.035 1340.08 682.508 1294.33L682.51 1294.33C674.896 1285.29 667.533 1275.62 660.52 1265.32Z" fill="white"/>
<path d="M501.141 1373.94L503.516 1381.58L503.521 1381.58L501.141 1373.94ZM660.52 1265.32L667.132 1260.82L661.12 1251.99L654.339 1260.24L660.52 1265.32ZM236.271 1366.72L239.068 1359.22L239.066 1359.22L236.271 1366.72ZM93.0012 1267.79L99.1205 1262.64H99.1205L93.0012 1267.79ZM65.511 1230.47L72.2437 1226.15L72.2347 1226.13L72.2255 1226.12L65.511 1230.47ZM0.0963268 943.126L-7.903 943.022L-7.90314 943.034L0.0963268 943.126ZM7.72666 815.364L15.6904 816.125L15.6924 816.103L15.6944 816.082L7.72666 815.364ZM28.3759 653.425L36.2744 654.695L36.277 654.679L36.2795 654.663L28.3759 653.425ZM42.6291 570.068L50.4949 571.527L50.5991 570.965L50.6225 570.394L42.6291 570.068ZM43.7017 563.322L35.9214 561.46L35.9214 561.46L43.7017 563.322ZM44.8448 557.881L52.7323 559.217L52.7365 559.193L52.7405 559.168L44.8448 557.881ZM53.6734 513.672L61.4927 515.363L61.5006 515.327L61.5082 515.29L53.6734 513.672ZM100.402 327.314L108.048 329.668L108.062 329.621L108.076 329.573L100.402 327.314ZM117.283 274.952L124.801 277.684L124.802 277.682L117.283 274.952ZM139.798 220.662L147.035 224.072L147.052 224.036L147.069 224L139.798 220.662ZM146.778 206.108L153.928 209.696L153.93 209.692L146.778 206.108ZM636.924 106.385L643.099 101.299L643.089 101.286L643.078 101.273L636.924 106.385ZM720.021 267.925L712.364 270.24L718.739 291.323L727.38 271.063L720.021 267.925ZM729.052 247.76L736.292 251.163L736.31 251.126L736.327 251.089L729.052 247.76ZM736.288 232.647L743.438 236.235L743.439 236.233L736.288 232.647ZM945.776 37.0409L948.057 44.709L948.09 44.699L948.123 44.6888L945.776 37.0409ZM1228.08 134.952L1221.87 139.994L1221.88 140.007L1221.89 140.021L1228.08 134.952ZM1315.65 316.144L1307.9 318.139L1307.9 318.158L1307.91 318.176L1315.65 316.144ZM1329.24 380.948V388.948H1338.63L1337.14 379.68L1329.24 380.948ZM1328.84 380.948V372.948H1319.45L1320.94 382.218L1328.84 380.948ZM1337.64 442.139L1329.71 443.156L1329.71 443.177L1329.71 443.199L1337.64 442.139ZM1355.32 629.382L1347.34 629.869L1347.34 629.881L1355.32 629.382ZM1355.88 637.196L1347.9 637.809L1347.91 637.944L1347.92 638.079L1355.88 637.196ZM1355.88 637.199L1347.92 638.083L1347.93 638.17L1347.95 638.257L1355.88 637.199ZM1355.88 637.202H1363.88V636.671L1363.81 636.145L1355.88 637.202ZM1355.88 637.204H1347.88V637.511L1347.9 637.816L1355.88 637.204ZM1355.85 648.15L1347.98 646.706L1347.8 647.663L1347.86 648.634L1355.85 648.15ZM1337.86 1096.68L1329.99 1095.23L1329.99 1095.25L1337.86 1096.68ZM1139.06 1381.06L1135.49 1373.89L1139.06 1381.06ZM1090.65 1400.48L1088.27 1392.84L1088.24 1392.85L1088.2 1392.86L1090.65 1400.48ZM1090.65 1400.48L1093.02 1408.12L1093.06 1408.11L1093.1 1408.1L1090.65 1400.48ZM1057.2 1408.92L1058.76 1416.76L1057.2 1408.92ZM997.174 1416.2L996.765 1408.21H996.765L997.174 1416.2ZM825.778 1393.26L828.575 1385.76L828.573 1385.76L825.778 1393.26ZM682.508 1294.33L676.178 1289.44L672.231 1294.55L676.389 1299.49L682.508 1294.33ZM682.51 1294.33L688.841 1299.22L692.787 1294.11L688.63 1289.18L682.51 1294.33ZM503.521 1381.58C569.886 1360.9 624.743 1321.46 666.701 1270.4L654.339 1260.24C614.189 1309.11 561.898 1346.63 498.761 1366.3L503.521 1381.58ZM233.475 1374.21C302.19 1399.85 415.178 1409.04 503.516 1381.58L498.766 1366.3C414.136 1392.61 304.794 1383.75 239.068 1359.22L233.475 1374.21ZM86.882 1272.94C126.384 1319.85 174.73 1352.31 233.477 1374.21L239.066 1359.22C182.635 1338.18 136.672 1307.23 99.1205 1262.64L86.882 1272.94ZM58.7783 1234.79C67.5957 1248.53 77.0314 1261.25 86.882 1272.94L99.1205 1262.64C89.7078 1251.46 80.683 1239.3 72.2437 1226.15L58.7783 1234.79ZM-7.90314 943.034C-9.11229 1047.83 0.297273 1144.5 58.7965 1234.82L72.2255 1226.12C16.3494 1139.86 6.89704 1047.11 8.09579 943.219L-7.90314 943.034ZM-0.237077 814.603C-4.74905 861.832 -7.41386 905.51 -7.90299 943.022L8.09565 943.231C8.57756 906.272 11.2075 863.049 15.6904 816.125L-0.237077 814.603ZM20.4774 652.155C9.87118 718.106 3.57295 772.333 -0.241034 814.646L15.6944 816.082C19.4763 774.125 25.7293 720.266 36.2744 654.695L20.4774 652.155ZM34.7633 568.609C29.5994 596.444 24.82 624.434 20.4723 652.187L36.2795 654.663C40.6044 627.056 45.3587 599.213 50.4949 571.527L34.7633 568.609ZM35.9214 561.46C35.3743 563.746 34.7814 566.178 34.6358 569.741L50.6225 570.394C50.7 568.497 50.9621 567.356 51.4819 565.184L35.9214 561.46ZM36.9573 556.544C36.6183 558.544 36.2705 560.002 35.9214 561.46L51.4819 565.185C51.8423 563.679 52.2978 561.781 52.7323 559.217L36.9573 556.544ZM45.8542 511.981C41.5377 531.94 38.3895 547.758 36.949 556.593L52.7405 559.168C54.1102 550.767 57.1828 535.292 61.4927 515.363L45.8542 511.981ZM92.7556 324.961C75.4664 381.127 59.6051 445.38 45.8387 512.055L61.5082 515.29C75.2014 448.97 90.9447 385.229 108.048 329.668L92.7556 324.961ZM109.764 272.22C104.26 287.365 98.495 305.456 92.727 325.056L108.076 329.573C113.792 310.149 119.453 292.403 124.801 277.684L109.764 272.22ZM132.562 217.251C124.404 234.561 116.784 252.883 109.763 272.222L124.802 277.682C131.662 258.786 139.095 240.919 147.035 224.072L132.562 217.251ZM139.628 202.519C137.244 207.269 134.877 212.208 132.528 217.324L147.069 224C149.346 219.038 151.633 214.267 153.928 209.696L139.628 202.519ZM643.078 101.273C572.551 16.3651 477.479 -20.3919 384.126 -4.3181C290.865 11.74 200.923 80.2264 139.626 202.523L153.93 209.692C213.514 90.812 299.715 26.4516 386.841 11.4499C473.877 -3.53624 563.437 30.4337 630.77 111.496L643.078 101.273ZM727.679 265.609C707.555 199.061 678.356 144.107 643.099 101.299L630.749 111.471C664.492 152.44 692.77 205.446 712.364 270.24L727.679 265.609ZM721.812 244.357C718.682 251.017 715.631 257.827 712.663 264.786L727.38 271.063C730.273 264.279 733.245 257.646 736.292 251.163L721.812 244.357ZM729.138 229.058C726.666 233.983 724.212 239.112 721.778 244.431L736.327 251.089C738.688 245.93 741.059 240.975 743.438 236.235L729.138 229.058ZM943.495 29.3729C861.196 53.8497 783.791 120.084 729.137 229.06L743.439 236.233C796.566 130.302 870.873 67.6644 948.057 44.709L943.495 29.3729ZM1234.29 129.91C1155.83 33.2495 1046.87 -2.35713 943.429 29.3931L948.123 44.6888C1044.55 15.0912 1146.98 47.7333 1221.87 139.994L1234.29 129.91ZM1323.39 314.149C1303.96 238.696 1272.88 177.029 1234.27 129.884L1221.89 140.021C1258.83 185.132 1288.97 244.621 1307.9 318.139L1323.39 314.149ZM1337.14 379.68C1333.46 356.781 1328.85 334.921 1323.38 314.112L1307.91 318.176C1313.24 338.462 1317.74 359.812 1321.34 382.217L1337.14 379.68ZM1328.84 388.948H1329.24V372.948H1328.84V388.948ZM1345.58 441.122C1342.95 420.589 1340.01 400.042 1336.74 379.678L1320.94 382.218C1324.18 402.398 1327.09 422.775 1329.71 443.156L1345.58 441.122ZM1363.31 628.894C1359.34 563.94 1353.99 504.011 1345.57 441.078L1329.71 443.199C1338.07 505.671 1343.39 565.208 1347.34 629.869L1363.31 628.894ZM1363.85 636.583C1363.69 634.531 1363.5 632.055 1363.31 628.883L1347.34 629.881C1347.54 633.175 1347.74 635.748 1347.9 637.809L1363.85 636.583ZM1363.83 636.316L1363.83 636.312L1347.92 638.079L1347.92 638.083L1363.83 636.316ZM1363.81 636.145L1363.81 636.142L1347.95 638.257L1347.95 638.259L1363.81 636.145ZM1363.88 637.204V637.202H1347.88V637.204H1363.88ZM1363.72 649.595C1364.55 645.078 1364.26 641.9 1363.85 636.592L1347.9 637.816C1348.33 643.427 1348.37 644.554 1347.98 646.706L1363.72 649.595ZM1368.94 809.139C1368.94 755.388 1367.08 701.2 1363.83 647.666L1347.86 648.634C1351.09 701.89 1352.94 755.752 1352.94 809.139H1368.94ZM1345.73 1098.13C1362.3 1008.22 1368.94 909.388 1368.94 809.139H1352.94C1352.94 908.745 1346.34 1006.56 1329.99 1095.23L1345.73 1098.13ZM1142.62 1388.22C1252.86 1333.37 1323.09 1222.23 1345.73 1098.12L1329.99 1095.25C1308.04 1215.54 1240.27 1321.76 1135.49 1373.89L1142.62 1388.22ZM1093.03 1408.12C1110.35 1402.72 1126.89 1396.05 1142.62 1388.22L1135.49 1373.89C1120.52 1381.35 1104.77 1387.7 1088.27 1392.84L1093.03 1408.12ZM1093.1 1408.1L1093.1 1408.1L1088.2 1392.86L1088.2 1392.86L1093.1 1408.1ZM1058.76 1416.76C1070.45 1414.44 1081.92 1411.57 1093.02 1408.12L1088.27 1392.84C1077.75 1396.11 1066.83 1398.84 1055.64 1401.07L1058.76 1416.76ZM997.584 1424.19C1018.22 1423.13 1038.84 1420.73 1058.76 1416.76L1055.64 1401.07C1036.56 1404.87 1016.72 1407.19 996.765 1408.21L997.584 1424.19ZM822.982 1400.75C868.666 1417.8 933.551 1427.47 997.584 1424.19L996.765 1408.21C934.563 1411.4 871.906 1401.93 828.575 1385.76L822.982 1400.75ZM676.389 1299.49C715.891 1346.39 764.237 1378.85 822.984 1400.75L828.573 1385.76C772.142 1364.72 726.179 1333.77 688.628 1289.18L676.389 1299.49ZM676.18 1289.44L676.178 1289.44L688.839 1299.22L688.841 1299.22L676.18 1289.44ZM653.908 1269.83C661.076 1280.35 668.604 1290.24 676.391 1299.48L688.63 1289.18C681.189 1280.34 673.99 1270.89 667.132 1260.82L653.908 1269.83Z" fill="#BCBEC0" mask="url(#path-1-inside-1_4490_1599)"/>
<path d="M677.162 1018.02C656.219 1132.8 585.142 1233.07 473.993 1267.7C402.916 1289.8 311.556 1282.38 256.311 1261.76C208.982 1244.12 170.228 1218.06 138.565 1180.46C130.649 1171.06 123.063 1160.84 115.972 1149.79C68.9728 1077.23 61.222 999.389 62.2115 913.636C64.3553 749.22 117.786 437.375 182.761 307.92C318.812 36.4775 625.216 98.9785 671.226 440.178C685.408 545.556 696.127 664.951 696.127 781.708C696.127 863.833 690.685 944.639 677.162 1018.02Z" fill="#C1B9F7"/>
<path d="M669.745 429.787C699.759 616.465 695.141 822.768 695.141 823.428C695.801 834.642 690.194 920.065 690.194 920.56C689.864 927.321 687.885 933.753 688.05 940.514C688.05 942.163 687.226 942.658 685.741 943.153C657.542 952.718 620.272 952.553 594.216 938.37C589.763 935.897 589.104 934.578 587.949 935.402C586.795 936.227 587.949 937.876 587.949 939.195C587.949 946.451 588.444 953.707 586.96 961.128C568.325 1049.85 482.901 1051.33 451.898 993.451C449.754 989.658 451.898 995.594 437.221 1013.24C427.492 1024.95 412.155 1036.82 395.499 1043.58C373.236 1052.32 357.24 1049.19 340.419 1040.45C319.31 1029.4 298.367 1005.65 291.77 983.556C291.605 982.896 291.44 982.072 290.781 982.072C289.297 981.907 273.135 1009.94 239.659 1014.06C215.252 1017.03 192.824 1005.49 179.631 988.833C167.098 973.002 160.667 950.904 160.667 937.546C160.667 930.949 159.347 924.188 161.656 917.592C162.645 914.953 161.986 911.82 163.14 908.851C165.944 901.101 153.081 919.571 104.762 913.964C91.734 912.479 76.3973 907.367 65.5132 902.255C63.8641 901.431 62.8747 900.771 63.0396 898.792C64.3589 887.908 62.5448 778.407 103.772 575.073C118.285 503.502 141.702 414.78 152.916 381.303C270.167 31.363 612.191 69.2924 670.075 429.787H669.745Z" fill="#937FEB"/>
<path d="M669.743 429.805C681.122 500.717 687.389 563.713 691.676 633.964C692.501 647.157 693.16 646.003 690.852 654.578C639.894 851.151 457.503 993.469 275.937 901.449C176.496 850.987 118.118 744.784 100.142 632.975C95.3601 603.126 97.339 606.754 98.9881 597.025C103.935 566.681 134.609 430.3 158.521 364.501C278.74 33.3607 612.849 75.9076 669.743 429.805Z" fill="#5D54C6"/>
<path d="M549.361 773.193C523.14 802.218 472.512 829.428 423.039 835.529C342.563 845.589 271.487 809.968 230.424 761.979C207.172 734.769 192.495 695.026 186.063 648.686C162.976 486.414 239.164 244.985 383.791 189.575C386.429 188.586 389.068 187.597 391.706 186.772C445.632 168.962 498.733 212.498 532.54 254.385C627.034 372.131 649.461 663.033 549.526 773.193H549.361Z" fill="#D2CDF7"/>
<path d="M1295.85 1018.02C1274.91 1132.8 1203.83 1233.06 1092.68 1267.7C1021.6 1289.79 930.242 1282.37 874.996 1261.76C827.667 1244.11 788.912 1218.06 757.249 1180.46C749.333 1171.06 741.747 1160.83 734.656 1149.78C687.656 1077.22 679.905 999.383 680.895 913.629C683.039 749.211 736.47 437.363 801.446 307.907C937.498 36.6262 1243.9 98.963 1289.92 440.166C1304.1 545.545 1314.82 664.941 1314.82 781.699C1314.82 863.825 1309.37 944.632 1295.85 1018.02Z" fill="#C1B9F7"/>
<path d="M1288.43 429.79C1318.45 616.47 1313.83 822.775 1313.83 823.435C1314.49 834.649 1308.88 920.073 1308.88 920.568C1308.55 927.329 1306.57 933.761 1306.74 940.522C1306.74 942.172 1305.92 942.666 1304.43 943.161C1276.23 952.726 1238.96 952.561 1212.9 938.379C1208.45 935.905 1207.79 934.586 1206.64 935.41C1205.48 936.235 1206.64 937.884 1206.64 939.203C1206.64 946.459 1207.13 953.715 1205.65 961.136C1187.01 1049.86 1101.59 1051.34 1070.59 993.459C1068.44 989.666 1070.59 995.603 1055.91 1013.25C1046.18 1024.96 1030.84 1036.83 1014.19 1043.59C991.922 1052.33 975.926 1049.2 959.105 1040.46C937.996 1029.41 917.052 1005.66 910.456 983.565C910.291 982.905 910.126 982.08 909.466 982.08C907.982 981.915 891.821 1009.95 858.343 1014.07C833.937 1017.04 811.509 1005.5 798.316 988.842C785.782 973.01 779.351 950.912 779.351 937.554C779.351 930.958 778.031 924.196 780.34 917.6C781.33 914.961 780.67 911.828 781.824 908.859C784.628 901.108 771.765 919.579 723.445 913.972C710.417 912.487 695.081 907.375 684.196 902.263C682.547 901.438 681.558 900.779 681.723 898.8C683.042 887.915 681.228 778.414 722.456 575.077C736.968 503.505 760.386 414.783 771.6 381.305C888.852 31.362 1230.88 69.2917 1288.76 429.79H1288.43Z" fill="#937FEB"/>
<path d="M1288.27 429.808C1299.65 500.721 1305.91 563.717 1310.2 633.97C1311.03 647.163 1311.68 646.008 1309.38 654.584C1258.42 851.159 1076.03 993.478 894.622 901.457C795.18 850.994 736.801 744.791 718.826 632.98C714.043 603.131 716.022 606.759 717.671 597.029C722.619 566.685 753.292 430.303 777.205 364.503C897.426 33.3596 1231.54 75.9069 1288.43 429.808H1288.27Z" fill="#5D54C6"/>
<path d="M1167.88 773.085C1141.66 802.109 1091.03 829.32 1041.56 835.422C961.081 845.481 890.004 809.86 848.941 761.871C825.688 734.66 811.011 694.917 804.58 648.576C781.492 486.303 857.681 244.871 1002.31 189.461C1004.95 188.471 1007.59 187.482 1010.23 186.657C1064.15 168.847 1117.25 212.219 1151.06 254.271C1245.55 372.019 1267.98 662.924 1168.05 773.085H1167.88Z" fill="#D2CDF7"/>
</svg>
