<svg width="1111" height="1022" viewBox="0 0 1111 1022" fill="none" xmlns="http://www.w3.org/2000/svg">
<path fill-rule="evenodd" clip-rule="evenodd" d="M706.034 8.07572C718.029 13.2675 728.592 20.6076 737.364 29.917C743.988 36.7201 749.717 44.2392 754.193 51.9374C756.699 56.055 758.668 60.1726 760.28 64.1112C763.323 71.9884 765.471 78.6124 766.904 84.6993C768.515 91.5024 769.589 98.3054 770.126 104.929C771.2 119.073 770.484 133.753 767.978 148.612C765.471 163.471 761.175 177.793 755.267 191.579C749.001 206.08 741.482 218.97 733.067 229.89C727.518 237.051 722.863 242.243 718.208 246.719C713.374 251.553 708.183 255.849 702.633 259.788C701.221 260.796 699.796 261.768 698.356 262.702C698.465 262.773 698.574 262.844 698.683 262.914C691.164 267.748 683.108 271.686 674.873 274.73C671.113 275.983 667.354 276.878 662.699 277.952C662.43 277.952 662.207 277.997 661.983 278.042C661.759 278.086 661.535 278.131 661.267 278.131C648.914 277.773 637.814 275.446 628.326 271.149C621.702 268.285 616.868 265.778 612.392 262.735C607.559 259.333 603.262 256.111 599.144 252.351C589.656 243.758 581.242 233.195 574.259 221.201C569.068 212.249 564.592 202.582 561.011 192.198C556.357 179.666 553.134 166.776 551.523 153.707C549.733 139.027 549.554 127.032 550.628 115.754C552.06 102.506 554.925 91.0479 559.4 80.4853C562.444 72.9661 565.487 67.2373 568.352 62.4035C571.932 56.6747 575.334 51.8409 578.735 47.5443C594.669 27.4933 615.078 12.9921 637.814 5.65194L637.815 5.65169C639.963 4.93567 642.111 4.21966 644.259 3.68265C644.19 3.78565 644.123 3.88701 644.058 3.98689C653.739 1.43735 663.153 0.260003 672.198 0.55658C684.193 1.09366 695.651 3.60004 706.034 8.07572ZM315.199 90.3096C302.488 88.8774 289.598 89.9515 277.245 93.7111C266.324 96.9336 255.941 102.304 246.452 109.645C237.86 116.447 230.162 125.04 223.538 135.601H223.387C210.676 155.831 204.231 180 204.947 205.78C204.947 211.329 205.663 217.058 206.558 223.861C207.632 229.948 209.064 236.393 211.392 243.554C214.793 254.475 219.985 265.217 227.504 276.137C233.949 285.805 242.005 294.756 252.568 304.603C261.877 313.196 272.619 321.073 284.435 328.055C293.744 333.605 303.233 338.081 313.258 341.661C326.327 346.316 339.396 349.001 352.465 349.538H356.941C360.879 349.538 364.818 349.359 369.115 349.001C374.664 348.285 380.214 347.211 386.838 345.063C397.043 342.198 406.889 336.827 416.736 329.308L417.81 328.055C420.495 324.475 422.823 321.252 425.15 317.851C430.342 308.899 434.46 299.053 437.145 288.669C437.145 288.401 437.234 288.132 437.324 287.864C437.413 287.595 437.503 287.326 437.503 287.058C437.225 287.079 436.948 287.103 436.67 287.129C438.195 281.078 439.147 275.013 439.802 268.8C440.518 262.355 440.697 255.373 440.339 246.242C439.802 232.457 437.295 217.777 432.64 202.56C428.344 188.237 422.257 174.452 414.738 161.562C407.219 148.493 398.267 136.857 388.242 126.831C383.587 122.176 378.395 117.701 372.845 113.404C367.833 109.645 362.104 105.885 354.585 101.946C350.646 99.9771 346.707 98.1868 342.053 96.5755C333.638 93.5321 324.508 91.5628 315.02 90.4886L315.199 90.3096ZM608.626 341.677C614.471 341.145 620.141 340.964 625.983 340.961C644.365 340.974 662.568 343.122 680.416 347.406C707.449 353.851 734.84 364.771 761.873 379.989C816.835 410.781 868.036 456.612 909.75 512.111C930.875 540.039 948.778 569.22 963.1 598.939C978.675 631.164 989.596 661.419 996.578 691.317C1004.99 727.122 1007.68 756.304 1005.35 783.695C1002.84 812.16 994.43 838.835 981.182 860.676C980.981 861.004 980.78 861.331 980.578 861.657C980.842 861.554 981.106 861.451 981.369 861.347C968.121 882.83 950.398 901.091 930.168 914.339C919.638 921.179 908.476 926.932 896.702 931.555C886.802 935.473 876.467 938.557 865.767 940.78C863.854 941.183 861.928 941.559 859.989 941.909C858.863 942.108 857.738 942.297 856.612 942.478C845.744 944.277 834.601 945.177 823.459 945.177C808.957 945.177 794.456 943.745 780.313 940.702C766.349 937.658 752.743 933.54 739.853 928.349C732.155 925.305 725.352 922.262 719.086 918.86C716.05 917.183 712.943 915.398 709.734 913.555L709.725 913.549L709.723 913.549C705.821 911.308 701.767 908.979 697.504 906.649C683.382 931.274 666.411 952.335 646.947 969.121C636.384 978.073 626.537 985.413 616.691 991.321C605.77 997.945 594.671 1003.32 583.929 1007.43C581.205 1008.5 578.45 1009.5 575.67 1010.45C554.234 1017.82 531.11 1021.62 508.55 1021.62C487.067 1021.62 466.12 1018.4 446.427 1011.78C423.333 1004.08 402.387 992.978 384.126 978.476C367.111 965.052 352.001 948.496 339.984 930.472C338.163 927.754 336.408 925 334.723 922.216C321.296 899.838 311.45 875.669 305.721 850.426C300.708 828.943 298.023 806.565 297.485 783.828C296.59 736.744 303.393 687.87 318.074 638.458C333.291 587.077 354.595 539.993 381.449 498.459C410.631 453.344 443.93 417.002 480.63 390.506C500.323 376.183 520.911 364.905 541.499 356.848V356.669C542.148 356.42 542.794 356.17 543.437 355.922C547.406 354.387 551.279 352.889 555.285 351.657C554.779 352.064 554.275 352.473 553.772 352.883C571.872 346.875 590.189 343.14 608.626 341.677ZM625.983 340.961L626.171 340.961H625.813L625.983 340.961ZM39.5019 396.942C50.0645 389.243 61.7013 383.873 74.2332 381.008L74.4122 380.65C83.7216 378.323 93.0311 377.249 101.982 377.249C106.816 377.249 111.292 377.607 115.588 378.144C124.003 379.397 130.806 380.829 136.714 382.798C143.338 384.947 149.604 387.453 155.691 390.318C168.401 396.405 180.754 404.461 192.212 414.128C203.67 423.796 213.874 434.716 222.826 446.711C232.135 459.422 239.654 472.312 244.667 485.202C247.392 492.317 249.349 498.28 250.862 503.74L250.935 503.689C251.293 504.764 251.651 505.838 251.83 506.912C253.442 513.715 254.516 520.16 255.232 527.142C256.127 537.884 255.769 548.446 253.8 558.651C253.692 559.061 253.584 559.473 253.475 559.89L253.475 559.891C252.678 562.937 251.815 566.237 250.398 570.646C250.309 570.914 250.219 571.138 250.13 571.362C250.04 571.585 249.951 571.809 249.861 572.078C243.237 582.64 235.718 590.876 227.125 597.142C221.217 601.438 216.383 604.303 211.728 606.63C206.357 609.136 201.166 611.106 196.153 612.717C183.8 616.655 170.552 618.625 156.588 618.625C146.383 618.625 135.642 617.551 124.9 615.581C111.473 613.075 98.583 609.136 86.9463 604.124C73.3402 598.395 62.7776 592.487 53.6472 585.684C42.9056 577.807 34.4913 569.571 27.6883 560.441C23.2126 554.533 19.632 548.983 16.5886 543.433C13.7241 537.884 11.2178 532.334 9.06944 526.963C-0.0609462 502.973 -2.20927 477.909 2.80349 454.636V454.457C4.77279 445.864 7.63722 437.807 11.2178 430.467C11.2289 430.512 11.2393 430.556 11.2491 430.6C12.6579 427.743 14.1997 424.996 15.8703 422.363C22.3153 412.159 30.3716 403.745 39.5019 396.942ZM1100.97 214.685C1095.78 203.048 1088.44 192.485 1078.95 183.534C1070.71 175.657 1060.69 169.57 1049.59 165.094C1039.38 161.156 1027.93 158.828 1015.57 158.47C1010.05 158.304 1004.52 158.533 999.009 159.151L999.109 159.051C980.848 161.2 962.587 167.466 945.759 177.849V177.67C940.925 180.535 935.912 184.115 930.899 188.054C926.245 191.813 921.411 196.468 916.219 202.018C908.521 210.611 901.897 220.458 896.168 232.273C891.155 242.478 887.396 253.936 884.173 268.258C881.309 280.79 879.877 294.038 879.877 307.823C879.877 318.444 880.696 328.738 882.493 338.233C882.524 338.419 882.555 338.606 882.587 338.792C882.635 339.077 882.684 339.361 882.734 339.646C885.241 353.252 889.716 366.142 895.624 377.42C897.952 382.075 900.995 386.73 904.576 391.564C907.557 395.539 910.998 399.36 915.607 403.738C915.982 404.106 916.365 404.478 916.756 404.856C917.343 405.402 917.942 405.941 918.552 406.472C925.937 413.048 934.978 418.402 945.394 422.535L945.472 422.535L945.58 422.579L947.191 422.937C951.664 423.474 955.601 423.832 959.538 424.19L959.54 424.19L959.541 424.19L959.544 424.191C962.408 424.191 965.452 424.191 968.495 423.832L968.304 423.565C975.698 422.92 983.104 421.52 990.33 419.492C996.954 417.702 1003.22 415.374 1009.31 412.51C1015.21 409.824 1021.48 406.423 1029 401.589C1040.64 394.249 1052.09 384.582 1062.84 372.945C1073.04 362.024 1081.81 349.85 1089.33 336.781C1096.85 323.712 1102.4 310.106 1105.98 296.5C1107.59 290.055 1109.02 283.252 1109.74 276.449C1110.46 270.183 1110.64 263.38 1110.46 254.966C1110.28 250.669 1109.74 246.194 1108.85 241.36C1107.23 232.588 1104.37 223.636 1100.43 214.864L1100.97 214.685Z" fill="white"/>
<path d="M631.885 396.168C626.873 396.168 622.013 396.32 617.001 396.775C597.864 398.294 578.88 402.699 560.199 409.989C542.733 416.823 525.268 426.391 508.561 438.541C477.578 460.867 449.329 491.698 424.422 530.123C401.64 565.358 383.567 605.302 370.658 648.89C358.204 690.808 352.432 732.422 353.344 772.214C353.799 791.654 356.077 810.638 360.178 828.56C365.038 849.974 373.391 870.478 384.782 889.462C395.565 907.383 409.994 923.938 426.548 936.999C442.039 949.301 459.809 958.718 479.401 965.248C496.107 970.868 513.877 973.601 532.102 973.601C553.668 973.601 575.842 969.501 595.89 961.603C605.003 957.958 614.419 953.402 623.532 947.934C631.885 942.922 640.39 936.695 649.199 929.102C665.601 914.977 680.029 897.056 692.18 875.945C698.862 879.59 704.937 883.235 710.709 886.424C716.024 889.31 721.795 891.892 728.326 894.474C739.261 898.878 750.804 902.371 762.65 904.953C774.648 907.535 786.95 908.75 799.252 908.75C809.58 908.75 819.908 907.839 829.931 906.017C851.65 902.22 871.697 894.322 889.315 882.628C906.781 871.237 921.816 855.442 933.055 837.065C944.294 818.536 951.432 795.906 953.559 771.758C955.533 748.521 953.255 723.765 946.117 693.39C940.194 668.026 930.929 642.359 917.716 615.022C905.566 589.81 890.378 565.054 872.457 541.362C837.07 494.28 793.633 455.4 747.007 429.277C724.074 416.368 700.837 407.103 677.903 401.636C662.716 397.99 647.224 396.168 631.581 396.168H631.885Z" fill="#FFDEB3"/>
<path d="M90.2819 408.286C80.4878 410.524 71.3934 414.722 63.1384 420.738C56.0027 426.055 49.7066 432.631 44.6696 440.606C40.0524 447.882 36.6945 456.277 34.7357 465.651C30.6781 483.84 32.497 503.288 39.6327 522.037C41.3117 526.374 43.2705 530.711 45.5091 534.909C47.7478 539.106 50.686 543.444 54.1838 548.061C59.5006 555.197 66.0766 561.633 74.4715 567.789C81.6072 573.106 89.8621 577.583 100.356 582.06C109.45 585.978 119.524 589.056 130.018 591.015C138.413 592.554 146.668 593.393 154.783 593.393C165.696 593.393 176.05 591.854 185.564 588.916C189.482 587.797 193.399 586.118 197.737 584.159C201.514 582.34 205.152 580.101 209.629 576.743C216.345 571.846 222.222 565.41 227.398 557.295C227.398 556.875 227.678 556.596 227.818 556.176C227.818 556.036 227.818 555.896 227.818 555.756C228.798 552.818 229.637 549.88 230.477 546.802C232.016 538.826 232.296 530.571 231.596 522.177C231.036 516.86 230.197 511.683 228.938 506.506C227.678 501.609 225.999 496.292 223.481 489.716C219.563 479.642 213.687 469.569 206.411 459.635C199.416 450.26 191.44 441.726 182.486 434.17C173.531 426.615 163.877 420.319 153.943 415.561C149.186 413.323 144.289 411.364 139.112 409.685C134.495 408.146 129.178 407.027 122.602 406.047C119.244 405.627 115.746 405.348 111.969 405.348C104.973 405.348 97.6974 406.187 90.4218 408.006L90.2819 408.286Z" fill="#FFDEB3"/>
<path d="M34.4568 465.826C30.5392 484.015 32.2182 503.603 39.3539 522.352C41.0328 526.549 42.9916 530.886 45.2303 535.224C47.6088 539.561 50.4071 543.899 53.905 548.516C59.2218 555.651 65.7978 562.087 74.1927 568.244C81.3283 573.56 89.5833 578.178 100.217 582.655C109.311 586.573 119.385 589.651 129.879 591.609C138.274 593.149 146.669 593.988 154.644 593.988C165.557 593.988 175.911 592.449 185.565 589.371C189.483 588.112 193.54 586.573 197.738 584.614C201.375 582.795 205.153 580.556 209.77 577.198C216.486 572.301 222.363 565.865 227.539 557.61C227.679 557.19 227.819 556.911 227.959 556.491C229.218 552.573 229.918 549.775 230.618 547.117C232.157 539.141 232.436 530.886 231.737 522.492C231.177 517.035 230.338 511.998 229.078 506.681C228.939 505.842 228.659 505.002 228.379 504.163C224.741 506.681 220.963 509.06 217.046 511.298C205.853 517.874 193.96 523.471 181.367 527.109C169.055 530.747 156.043 532.845 143.171 532.286C136.735 532.006 130.159 531.446 123.723 530.187C116.867 528.788 110.011 526.969 103.575 524.45C98.258 522.352 93.2211 519.973 88.464 517.035C83.567 514.097 78.9498 510.739 74.6124 506.961C69.9952 503.043 65.6578 498.846 61.8801 494.229C58.2424 489.891 54.8844 485.134 52.0861 480.237C46.4895 470.443 42.432 459.81 41.1727 448.616C41.1727 448.057 41.1727 447.497 41.0328 446.938C38.2345 452.674 35.9959 458.97 34.4568 465.686V465.826Z" fill="#FECF91"/>
<path d="M311.916 126.727C302.714 125.69 293.382 126.467 284.439 129.189C276.533 131.522 269.016 135.41 262.147 140.724C255.926 145.649 250.353 151.87 245.557 159.517C236.355 174.163 231.819 191.66 232.208 210.194C232.208 214.471 232.726 218.878 233.374 223.284C234.022 227.691 235.189 232.357 236.873 237.541C239.336 245.317 243.095 253.094 248.409 261.13C252.945 267.999 258.777 274.479 266.554 281.737C273.293 288.088 281.07 293.791 289.624 298.716C296.493 302.734 303.362 305.974 310.361 308.566C319.822 311.936 329.413 313.88 338.615 314.269C342.374 314.398 346.262 314.269 350.669 313.88C354.428 313.491 358.445 312.584 363.37 311.158C370.758 308.955 377.886 305.196 384.885 299.753C385.145 299.493 385.404 299.234 385.533 298.975C385.533 298.845 385.663 298.716 385.793 298.586C387.607 296.383 389.292 294.05 390.847 291.587C394.606 285.107 397.457 277.979 399.531 270.461C400.827 265.666 401.605 260.87 402.123 255.945C402.642 251.279 402.771 246.225 402.512 239.615C402.123 229.635 400.309 219.007 396.939 207.99C393.828 197.622 389.422 187.642 383.978 178.31C378.535 168.849 372.054 160.425 364.796 153.166C361.426 149.797 357.668 146.557 353.65 143.446C350.021 140.724 345.873 138.002 340.43 135.151C337.579 133.725 334.727 132.429 331.357 131.263C325.266 129.059 318.656 127.634 311.787 126.856L311.916 126.727Z" fill="#FFDEB3"/>
<path d="M245.449 159.516C236.246 174.162 231.581 191.659 232.099 210.322C232.099 214.34 232.617 218.488 233.265 223.413C234.043 227.819 235.08 232.485 236.765 237.67C239.227 245.576 242.986 253.352 248.43 261.258C253.095 268.257 258.928 274.737 266.575 281.866C273.314 288.087 281.091 293.79 289.645 298.844C296.384 302.862 303.254 306.102 310.512 308.695C319.973 312.064 329.434 314.008 338.896 314.397C339.933 314.397 340.969 314.397 342.136 314.397C344.987 314.397 347.839 314.268 350.949 314.008C354.967 313.49 358.985 312.712 363.78 311.157C371.168 309.083 378.296 305.195 385.425 299.752L386.202 298.844C388.147 296.252 389.831 293.919 391.516 291.457C395.275 284.976 398.256 277.848 400.2 270.331C400.2 269.942 400.459 269.553 400.459 269.164C398.774 269.294 397.089 269.553 395.405 269.683C375.056 271.238 354.06 268.775 335.007 261.258C326.064 257.759 317.51 253.352 309.604 248.038C301.828 242.724 294.44 236.633 288.089 229.634C281.739 222.635 275.906 214.859 271.37 206.564C266.575 198.01 262.816 188.937 260.094 179.605C257.373 169.755 255.558 159.516 255.04 149.277C255.04 148.759 255.04 148.24 255.04 147.852C251.799 151.351 248.818 155.239 246.226 159.516H245.449Z" fill="#FECF91"/>
<path d="M1072.75 235.39C1068.78 226.482 1063.16 218.396 1055.89 211.544C1049.59 205.513 1041.91 200.854 1033.42 197.427C1025.61 194.412 1016.83 192.631 1007.38 192.357C989.15 191.808 970.785 196.879 953.928 207.295C950.091 209.625 946.253 212.366 942.553 215.244C938.99 218.259 935.289 221.685 931.452 225.934C925.559 232.238 920.625 239.913 916.102 249.095C912.265 256.907 909.387 265.678 906.92 276.642C904.727 286.236 903.631 296.24 903.631 306.793C903.631 315.153 904.316 323.239 905.687 331.051C907.605 341.467 911.032 351.334 915.554 359.968C917.336 363.532 919.666 367.095 922.407 370.795C924.874 374.085 927.752 377.237 931.726 380.937C937.619 386.556 945.02 391.079 953.654 394.505C954.065 394.505 954.339 394.505 954.75 394.642C954.887 394.642 955.024 394.642 955.162 394.642C958.177 395.053 961.192 395.327 964.207 395.601C972.156 395.601 980.242 394.368 988.054 392.175C993.124 390.805 997.921 389.023 1002.58 386.83C1007.1 384.774 1011.9 382.17 1017.66 378.47C1026.56 372.851 1035.34 365.45 1043.56 356.542C1051.37 348.182 1058.09 338.863 1063.84 328.858C1069.6 318.853 1073.85 308.438 1076.59 298.022C1077.82 293.088 1078.92 287.88 1079.47 282.672C1080.01 277.876 1080.15 272.668 1080.01 266.226C1079.88 262.937 1079.47 259.511 1078.78 255.811C1077.55 249.095 1075.35 242.243 1072.34 235.527L1072.75 235.39Z" fill="#FFDEB3"/>
<path d="M953.933 207.054C950.233 209.247 946.396 211.988 942.558 215.003C938.995 217.881 935.295 221.444 931.32 225.693C925.427 232.271 920.356 239.809 915.971 248.854C912.133 256.666 909.255 265.437 906.788 276.401C904.595 285.995 903.499 296.136 903.499 306.689C903.499 315.186 904.184 323.409 905.692 330.947C907.611 341.5 911.037 351.23 915.559 359.864C917.341 363.428 919.671 366.991 922.412 370.691C924.879 373.981 927.757 377.133 931.731 380.97C937.624 386.452 945.025 390.975 953.796 394.538L955.03 394.812C958.456 395.223 961.471 395.497 964.486 395.771C966.679 395.771 969.009 395.771 971.339 395.497C968.598 391.66 965.994 387.686 963.664 383.437C958.456 374.118 954.344 364.25 951.466 353.971C945.71 333.277 944.477 311.486 947.492 290.106C949 279.142 951.466 268.315 955.03 257.762C958.593 247.484 962.979 237.479 968.324 228.023C973.668 218.566 979.836 209.521 986.962 201.298C989.429 198.42 992.033 195.542 994.774 192.801C980.795 194.445 966.816 199.242 953.933 207.191V207.054Z" fill="#FECF91"/>
<path d="M720.68 55.0164C714.035 47.9646 706.034 42.4046 696.948 38.4718C689.083 35.0816 680.403 33.183 671.318 32.7762C663.045 32.5049 654.366 33.8611 645.416 36.7089C628.329 42.269 612.869 53.2535 600.664 68.4419C597.816 71.9678 595.24 75.7649 592.799 79.6976C590.358 83.6304 588.188 88.1055 586.018 93.3944C582.763 101.26 580.594 109.939 579.509 119.974C578.559 128.518 578.831 137.604 580.187 148.588C581.407 158.217 583.713 167.981 587.239 177.745C589.951 185.61 593.341 192.933 597.274 199.578C602.563 208.664 608.936 216.665 616.124 223.174C618.972 225.887 622.226 228.328 626.023 231.04C629.414 233.21 633.075 235.244 638.093 237.413C645.416 240.668 653.824 242.431 663.045 242.702C663.452 242.702 663.723 242.702 664.13 242.567C664.266 242.567 664.401 242.567 664.537 242.431C667.52 241.753 670.368 241.075 673.216 240.261C680.675 237.549 687.727 233.888 694.371 229.141C698.575 226.158 702.508 222.903 706.17 219.242C709.696 215.851 713.221 211.919 717.425 206.494C723.799 198.222 729.495 188.458 734.241 177.473C738.716 167.031 741.971 156.182 743.87 144.927C745.768 133.671 746.311 122.551 745.497 111.837C745.09 106.82 744.276 101.667 743.056 96.5134C741.971 91.9026 740.344 86.885 738.038 80.9181C736.818 77.9347 735.326 74.8156 733.427 71.6966C730.037 65.8653 725.698 60.1696 720.68 55.0164Z" fill="#FFDEB3"/>
<path d="M645.272 36.6323C628.049 42.1924 612.589 53.1769 600.52 68.3654C597.943 71.62 595.367 75.2815 592.655 79.6211C590.485 83.2826 588.179 87.6222 585.874 93.3178C582.484 101.319 580.314 109.998 579.229 120.033C578.415 128.577 578.551 137.663 579.907 148.783C581.128 158.682 583.569 168.446 587.095 177.939C589.807 185.805 593.197 193.128 597.13 199.908C602.419 208.994 608.792 216.995 615.98 223.505C619.099 226.352 622.353 228.793 626.015 231.37C629.405 233.675 633.067 235.574 638.084 237.744C645.272 240.998 653.68 242.761 663.037 243.033C663.444 243.033 663.715 242.897 664.122 242.897C667.648 242.083 670.495 241.405 673.343 240.456C679.581 238.151 685.684 235.167 691.38 231.506C685.277 227.573 679.446 222.962 674.292 217.809C661.003 204.79 650.696 188.788 643.373 171.701C639.576 162.886 636.593 153.936 634.287 144.579C632.117 135.357 630.49 125.865 629.948 116.236C629.405 106.743 629.405 97.1149 630.761 87.7578C631.982 78.6718 633.745 69.7215 636.864 61.178C639.847 52.7701 643.644 44.6334 648.662 37.3104C649.204 36.6323 649.611 35.9543 650.154 35.1406C648.526 35.5475 646.899 36.0899 645.272 36.6323Z" fill="#FECF91"/>
<path d="M560.055 409.647C542.59 416.481 525.124 426.049 508.418 438.199C477.283 460.677 449.034 491.508 424.278 529.781C401.497 565.016 383.423 604.959 370.514 648.548C358.06 690.466 352.289 731.928 353.048 771.871C353.504 791.16 355.782 810.144 360.034 828.369C364.894 849.784 373.248 870.287 384.638 889.272C395.573 907.345 410.002 923.9 426.556 936.961C442.048 949.263 459.969 958.831 479.409 965.21C496.267 970.829 514.037 973.563 532.11 973.563C553.677 973.563 575.851 969.463 596.05 961.565C605.163 958.072 614.579 953.515 623.843 947.896C632.197 942.884 640.55 936.657 649.511 929.063C666.065 914.787 680.493 896.866 692.492 875.907C695.377 877.729 698.415 879.4 701.3 881.07C704.49 882.893 707.679 884.716 710.869 886.386C716.64 889.424 722.411 892.006 728.486 894.436C739.269 898.84 750.812 902.333 762.81 904.915C775.112 907.345 787.414 908.712 799.412 908.712C809.588 908.712 819.916 907.801 830.243 905.978C852.114 902.029 872.009 894.132 889.779 882.589C906.941 871.35 921.977 855.859 933.216 837.634C916.965 844.013 900.258 848.873 883.096 852.518C858.037 857.833 832.218 860.719 806.551 860.415C793.793 860.415 781.035 859.504 768.43 857.833C756.431 856.163 744.585 853.885 732.891 850.695C721.804 847.506 710.717 843.557 700.237 838.545C690.669 833.989 681.556 828.673 673.051 822.446C666.369 830.648 658.927 838.09 650.422 844.316C641.461 850.999 631.589 856.618 621.11 860.871C610.63 865.123 599.695 868.009 588.456 869.224C582.685 869.984 576.762 870.287 570.991 870.287C565.827 870.287 560.663 869.832 555.651 869.224C544.564 867.857 533.629 864.668 523.453 859.656C513.733 854.948 504.621 848.721 496.723 841.279C480.472 825.939 468.474 806.651 460.121 785.996C451.312 764.43 445.996 741.648 443.414 718.411C442.199 707.324 441.44 696.085 441.592 684.846C441.592 671.937 442.503 659.027 444.174 646.27C447.515 619.843 453.59 593.569 462.247 568.357C471.056 542.538 482.447 517.479 496.419 493.938C510.088 470.701 526.187 448.831 545.02 429.542C553.525 420.885 562.334 412.836 571.75 405.242C567.801 406.457 564.004 407.976 560.055 409.495V409.647Z" fill="#FECF91"/>
</svg>
