<svg width="1140" height="1271" viewBox="0 0 1140 1271" fill="none" xmlns="http://www.w3.org/2000/svg">
<path fill-rule="evenodd" clip-rule="evenodd" d="M575.056 161.433C575.056 161.433 614.317 -121.781 771.093 63.3698C771.093 63.3698 825.523 159.202 703.546 176.691C643.467 185.261 620.903 188.55 613.473 189.68L570.684 187.488L575.056 161.344V161.433ZM614.228 189.719L613.473 189.68C605.818 190.844 614.228 189.719 614.228 189.719ZM566.36 161.523C566.36 161.523 527.545 -121.691 372.554 63.4603C372.554 63.4603 318.749 159.293 439.297 176.782C498.666 185.351 520.962 188.639 528.301 189.77L527.545 189.809C527.545 189.809 535.865 190.935 528.301 189.77L570.643 187.578L566.271 161.434L566.36 161.523ZM223.5 290.808H265.176V561.431H0.139648V708.378H68.2896V1270.58H1071.31V708.378H1139.69V561.431H874.455V290.808H915.695V201.598H223.5V290.808Z" fill="white"/>
<path d="M566.453 195.614C566.453 195.614 530.429 -67.2388 386.58 104.601C386.58 104.601 336.643 193.544 448.526 209.775C560.408 225.924 530.429 221.866 530.429 221.866L570.428 219.796L566.371 195.531L566.453 195.614Z" fill="#FF5E9D" stroke="#FFFBDD" stroke-width="6.21108" stroke-miterlimit="10"/>
<path d="M574.524 195.528C574.524 195.528 610.962 -67.3248 756.467 104.515C756.467 104.515 806.984 193.458 693.777 209.689C580.569 225.838 610.879 221.78 610.879 221.78L570.466 219.71L574.524 195.445V195.528Z" fill="#FF5E9D" stroke="#FFFBDD" stroke-width="6.21108" stroke-miterlimit="10"/>
<path d="M590.094 212.429L618.417 214.499C618.417 214.499 757.876 115.453 709.347 115.453C709.347 115.453 636.553 127.627 590.094 212.512V212.429Z" fill="#34A0EF"/>
<path d="M554.485 201.582L526.577 203.652C526.577 203.652 388.608 104.523 436.558 104.523C436.558 104.523 508.523 116.697 554.485 201.582Z" fill="#34A0EF"/>
<path d="M852.398 306.773H286.922V632.521H852.398V306.773Z" fill="#4698FF"/>
<path d="M890.673 232.805H248.242V315.602H890.673V232.805Z" fill="#FFE843"/>
<path d="M1035.1 688.664H104.191V1224.93H1035.1V688.664Z" fill="#FF5E9D"/>
<path d="M1098.56 566.77H40.9402V703.153H1098.56V566.77Z" fill="#FFE843"/>
<ellipse cx="189.375" cy="825.872" rx="37.4717" ry="41.8289" fill="#FFFBDD"/>
<ellipse cx="414.786" cy="772.427" rx="37.4717" ry="43.5717" fill="#FFFBDD"/>
<ellipse cx="701.778" cy="841.559" rx="37.4717" ry="40.086" fill="#FFFBDD"/>
<ellipse cx="969.019" cy="772.427" rx="37.4717" ry="43.5717" fill="#FFFBDD"/>
<path d="M352.662 938.701C354.608 932.881 362.839 932.881 364.784 938.701L368.376 949.448C369.517 952.862 373.251 954.66 376.632 953.424L386.712 949.738C392.265 947.707 397.361 953.66 394.498 958.834L387.854 970.843C386.282 973.684 387.091 977.253 389.735 979.139L400.622 986.904C405.323 990.257 403.519 997.632 397.8 998.435L385.884 1000.11C382.515 1000.58 380.107 1003.61 380.408 1007L381.54 1019.76C382.076 1025.81 374.67 1029.12 370.515 1024.7L363.383 1017.1C360.858 1014.41 356.588 1014.41 354.064 1017.1L346.932 1024.7C342.777 1029.12 335.371 1025.81 335.907 1019.76L337.039 1007C337.339 1003.61 334.932 1000.58 331.563 1000.11L319.647 998.435C313.928 997.632 312.124 990.257 316.825 986.904L327.712 979.139C330.356 977.253 331.165 973.684 329.593 970.843L322.949 958.834C320.086 953.66 325.181 947.707 330.735 949.738L340.815 953.424C344.195 954.66 347.929 952.862 349.07 949.448L352.662 938.701Z" fill="#FFFBDD"/>
<path d="M573.749 1013.55C577.055 1003.66 591.045 1003.66 594.351 1013.55L600.456 1031.82C602.395 1037.62 608.741 1040.68 614.486 1038.58L631.617 1032.31C641.056 1028.86 649.716 1038.98 644.85 1047.77L633.558 1068.18C630.886 1073.01 632.261 1079.08 636.755 1082.28L655.258 1095.48C663.247 1101.18 660.181 1113.71 650.462 1115.08L630.211 1117.92C624.484 1118.73 620.393 1123.88 620.904 1129.64L622.827 1151.32C623.739 1161.59 611.152 1167.23 604.09 1159.71L591.969 1146.8C587.679 1142.23 580.422 1142.23 576.132 1146.8L564.01 1159.71C556.949 1167.23 544.362 1161.59 545.273 1151.32L547.197 1129.64C547.708 1123.88 543.616 1118.73 537.89 1117.92L517.638 1115.08C507.919 1113.71 504.853 1101.18 512.843 1095.48L531.346 1082.28C535.839 1079.08 537.214 1073.01 534.542 1068.18L523.25 1047.77C518.385 1038.98 527.045 1028.86 536.483 1032.31L553.614 1038.58C559.359 1040.68 565.705 1037.62 567.645 1031.82L573.749 1013.55Z" fill="#FFFBDD"/>
<path d="M846.476 938.701C848.421 932.881 856.652 932.881 858.598 938.701L862.19 949.448C863.331 952.862 867.065 954.66 870.445 953.424L880.525 949.738C886.079 947.707 891.174 953.66 888.311 958.834L881.667 970.843C880.095 973.684 880.904 977.253 883.548 979.139L894.435 986.904C899.136 990.257 897.332 997.632 891.613 998.435L879.697 1000.11C876.328 1000.58 873.921 1003.61 874.221 1007L875.353 1019.76C875.889 1025.81 868.483 1029.12 864.328 1024.7L857.196 1017.1C854.672 1014.41 850.402 1014.41 847.877 1017.1L840.745 1024.7C836.59 1029.12 829.184 1025.81 829.72 1019.76L830.852 1007C831.153 1003.61 828.745 1000.58 825.376 1000.11L813.46 998.435C807.741 997.632 805.937 990.257 810.638 986.904L821.525 979.139C824.169 977.253 824.978 973.684 823.406 970.843L816.762 958.834C813.899 953.66 818.995 947.707 824.548 949.738L834.628 953.424C838.009 954.66 841.743 952.862 842.884 949.448L846.476 938.701Z" fill="#FFFBDD"/>
</svg>
