<svg width="1140" height="1169" viewBox="0 0 1140 1169" fill="none" xmlns="http://www.w3.org/2000/svg">
<path fill-rule="evenodd" clip-rule="evenodd" d="M941.743 1124.49C973.017 1110.5 1002.73 1092.28 1029 1070.31L1029.08 1070.39C1058.79 1045.53 1084.27 1015.82 1102.73 981.808C1139.39 914.256 1146.82 833.257 1132.98 757.653C1130.58 744.473 1127.57 731.441 1124.01 718.564C1123.42 716.016 1122.76 713.379 1122.03 710.652C1115.25 685.301 1102.38 651.992 1081.09 608.654C1080.9 608.266 1080.49 608.06 1080.08 608.115C1074.51 597.025 1068.18 585.128 1061.02 572.373C1060.76 571.901 1060.16 571.733 1059.69 571.997C1059.6 572.051 1059.51 572.118 1059.44 572.195C1054.32 563.598 1049.03 555.102 1043.62 546.711C981.892 451.119 903.455 368.06 825.166 285.158C807.662 266.623 790.165 248.096 772.865 229.438C767.933 224.118 763.002 218.775 758.064 213.423C695.366 145.482 631.472 76.2449 548.631 36.1655C436.202 -18.2509 297.268 -9.80701 188.592 51.7242C60.4471 124.201 -18.3629 251.017 3.68512 399.567C23.3876 532.559 98.2884 652.573 168.498 764.298C187.296 794.221 204.127 825.568 220.939 856.882C255.173 920.643 289.332 984.267 339.879 1035.44C377.276 1073.28 421.771 1102.07 470.255 1123.04C470.374 1123.21 470.547 1123.34 470.76 1123.41C471.209 1123.56 471.66 1123.7 472.113 1123.84C503.21 1137.13 535.925 1147.23 569.442 1154.44C569.501 1154.48 569.563 1154.51 569.63 1154.54C569.649 1154.54 569.667 1154.55 569.687 1154.55C569.71 1154.56 569.734 1154.57 569.758 1154.57C583.719 1157.6 598.71 1160.37 614.204 1162.34C652.192 1167.63 690.731 1169.51 728.69 1168.43C801.637 1166.4 875.13 1154.36 941.743 1124.49Z" fill="white"/>
<g clip-path="url(#clip0_4490_809)">
<path d="M971.994 1009.95C948.976 1029.2 922.942 1045.16 895.539 1057.43C837.17 1083.6 772.773 1094.15 708.855 1095.93C585.403 1099.42 454.964 1067.22 368.164 979.396C302.122 912.533 268.005 821.417 217.995 741.811C156.474 643.913 90.8436 538.753 73.5796 422.22C54.2603 292.055 123.316 180.935 235.601 117.428C330.827 63.5122 452.566 56.1133 551.081 103.795C629.385 141.68 688.371 209.297 747.562 273.147C830.525 362.618 918.626 448.665 984.805 551.153C1021.32 607.74 1051.05 669.74 1063.11 735.987C1075.24 802.235 1068.73 873.209 1036.6 932.4C1020.43 962.201 998.096 988.234 972.063 1010.02L971.994 1009.95Z" fill="#966DCA"/>
<path d="M651.312 333.29C670.015 389.809 667.48 449.616 646.859 502.436C625.485 557.516 584.38 605.267 527.724 634.314C499.567 648.701 470.04 657.196 440.376 660.347C382.487 666.444 324.323 651.989 276.368 620.338C241.497 597.457 211.833 565.326 191.555 525.455C142.983 430.366 161.069 318.834 228.755 244.161C248.485 222.238 272.531 203.535 300.346 189.286C329.53 174.419 360.29 165.719 391.05 162.979C489.839 153.798 588.696 204.426 636.515 298.145C642.406 309.586 647.339 321.369 651.244 333.221L651.312 333.29Z" fill="#FFECA1"/>
<path d="M354.534 504.549C356.932 518.798 347.273 532.226 333.023 534.624C318.773 537.022 305.346 527.362 302.948 513.112C300.55 498.863 310.21 485.435 324.459 483.037C338.709 480.639 352.137 490.299 354.534 504.549Z" fill="#282000"/>
<path d="M552.391 375.213C554.789 389.462 545.129 402.89 530.88 405.288C516.63 407.686 503.203 398.026 500.805 383.776C498.407 369.527 508.067 356.099 522.316 353.701C536.566 351.303 549.994 360.963 552.391 375.213Z" fill="#282000"/>
<path d="M439.959 494.005C447.632 503.048 462.499 504.076 472.158 497.157C481.818 490.237 485.791 476.947 482.846 465.438" stroke="#282000" stroke-width="6.16573" stroke-linecap="round" stroke-linejoin="round"/>
<path d="M351.819 959.949C443.9 1010.56 649.484 1064.87 735.169 877.252C842.275 642.731 905.646 758.507 964.108 686.836C1010.88 629.499 1005 586.19 996.221 571.488" stroke="white" stroke-width="1.71619" stroke-linecap="round"/>
<path d="M483.107 1055.67C587.8 1089.02 786.418 1085.64 743.344 805.284C739.071 755.605 784.281 669.958 999.308 724.804C1035.2 738.572 1085.46 727.698 999.308 574.062" stroke="white" stroke-width="1.71619" stroke-linecap="round"/>
<path d="M569.774 1082.95C670.941 1104.87 832.657 1111.23 795.386 834.25C791.688 785.169 830.809 700.554 1016.87 754.739C1047.93 768.341 1091.41 757.599 1016.87 605.812" stroke="white" stroke-width="1.71619" stroke-linecap="round"/>
<path d="M815.782 530.124C819.493 533.444 838.464 538.697 841.451 532.724C842.611 530.403 830.453 524.492 828.129 524.492C825.373 524.492 826.505 537.285 826.505 539.872" stroke="#DDA2BA" stroke-width="2.57428" stroke-linecap="round"/>
<path d="M825.53 524.276C817.492 522.278 805.552 520.985 804.302 510.629C803.218 501.648 809.118 493.654 816.703 489.672C831.692 481.803 837.928 499.936 839.718 511.712C840.261 515.284 840.152 526.156 840.152 522.543C840.152 516.198 848.426 511.006 853.69 515.286C861.439 521.588 871.967 537.505 867.228 548.212C864.08 555.324 846.064 566.321 841.776 555.143C840.979 553.064 840.271 546.992 844.267 547.454C853.59 548.529 855.268 557.43 851.199 564.566C845.757 574.11 829.878 580.239 819.302 577.184C810.843 574.74 806.768 561.752 805.493 554.169C804.814 550.128 804.785 545.73 806.143 541.822C807.108 539.046 811.687 531.637 811.071 534.511C809.631 541.232 800.559 548.413 793.58 547.67C785.753 546.838 787.606 523.286 788.706 518.644C790.612 510.595 795.7 504.447 804.194 504.781C807.963 504.928 809.163 509.44 809.934 512.525C810.509 514.823 812.858 514.025 812.858 516.478" stroke="white" stroke-opacity="0.88" stroke-width="2.57428" stroke-linecap="round"/>
<path d="M822.037 522.359C819.959 523.662 815.843 524.938 816.069 527.883C816.344 531.448 819.737 535.717 822.926 537.126C829.164 539.883 836.027 538.089 836.027 530.825C836.027 526.111 835.119 522.444 830.309 520.36C827.195 519.011 824.642 519.122 822.648 521.97C820.934 524.419 820.556 527.614 821.621 530.408C823.512 535.373 832.274 538.188 831.697 530.492C831.386 526.346 827.585 526.268 824.147 525.967C819.737 525.581 821.634 532.631 823.73 534.378C826.887 537.008 833.214 534.126 831.308 529.742C829.351 525.241 820.797 533.748 826.09 534.239C828.278 534.442 831.153 533.854 833.029 532.685C835.024 531.441 832.3 527.982 831.17 527.078C829.947 526.1 826.421 524.932 825.257 526.633C824.673 527.488 824.049 529.636 825.368 530.075C828.563 531.14 828.171 529.21 826.923 526.8C823.659 520.5 818.019 528.931 819.706 533.184C821.722 538.269 831.242 539.042 832.752 533.129C833.549 530.006 829.931 525.453 826.59 526.467C823.62 527.368 827.976 536.094 830.309 536.737C836.261 538.379 832.538 531.463 831.253 529.354C830.242 527.696 827.962 522.547 825.035 523.969C823.094 524.911 822.367 534.15 824.98 534.85C830.08 536.216 831.858 530.048 830.198 526.411C829.913 525.788 824.44 519.622 824.064 521.693C823.836 522.942 824.254 526.986 826.145 526.856C828.214 526.713 828.739 521.449 829.976 522.303C831.75 523.529 837.086 530.138 835.444 532.601C833.824 535.032 830.439 527.399 831.641 525.745C832.96 523.933 838.301 536.225 835.694 536.626C833.345 536.988 833.186 530.141 834.75 531.796C835.709 532.811 836.219 534.271 836.416 535.627C836.676 537.423 836.144 537.666 836.055 535.488C836.044 535.212 835.71 531.36 836.471 531.907C837.394 532.571 838.026 533.606 838.026 534.739C838.026 534.807 838.026 530.312 838.026 533.406C838.026 534.887 838.232 536.555 837.915 538.014C837.535 539.761 836.633 537.277 836.582 536.82C836.135 532.798 836.841 537.583 836.027 539.124C834.28 542.435 833.786 529.856 833.918 530.742C834.277 533.165 834.084 535.969 833.14 538.236C832.77 539.125 829.558 544.853 827.811 543.455C825.742 541.799 825.96 536.05 826.756 533.85C827.939 530.581 829.836 536.859 829.92 537.542C829.952 537.795 830.45 541.98 829.365 541.734C827.455 541.3 826.716 536.264 825.646 536.182C825.308 536.156 826.174 541.911 826.645 542.511C828.316 544.637 831.159 538.62 831.475 537.681C833.908 530.441 825.803 537.365 828.255 537.931C831.456 538.67 842.926 535.569 838.192 530.297C835.698 527.52 832.485 535.03 835.083 534.489C839.488 533.571 837.279 526.488 833.501 526.023C829.333 525.51 815.823 529.764 821.926 535.738C825.973 539.699 829.571 531.604 826.59 528.132C821.909 522.682 809.085 530.323 814.099 537.098C816.31 540.086 822.013 539.441 824.646 537.514C826.858 535.897 827.203 533.176 826.756 530.686C826.571 529.654 826.296 528.399 824.98 528.493C822.234 528.689 822.551 532.983 822.87 534.794C824.335 543.115 834.302 537.529 830.281 532.851C826.192 528.095 815.599 532.623 821.038 538.181C823.181 540.37 825.99 541.846 828.949 540.484C830.453 539.793 832.187 538.29 831.586 536.404C830.905 534.27 828.634 533.532 826.59 533.573C822.814 533.648 820.313 535.919 820.178 539.707C819.938 546.4 830.088 541.647 828.033 535.266C827.286 532.945 824.915 532.14 822.703 531.963C819.994 531.746 819.724 533.949 819.761 536.238C819.861 542.419 828.685 542.788 827.2 536.848C825.698 530.839 814.97 527.558 814.182 535.571C813.445 543.065 823.366 545.453 828.422 541.289C832.545 537.893 828.656 533.732 824.369 534.572C818.663 535.69 819.588 544.117 825.701 541.4C831.639 538.761 826.957 532.521 822.37 532.018C818.637 531.609 817.763 533.637 817.763 537.07C817.763 538.718 818.365 541.965 820.566 542.094C824.734 542.34 823.79 535.651 819.706 536.071C818.936 536.15 815.195 536.953 815.625 538.458C815.756 538.916 816.525 535.933 816.541 535.849" stroke="white" stroke-width="2.57428" stroke-linecap="round"/>
<path d="M436.413 852.347C434.334 853.65 430.218 854.927 430.445 857.871C430.719 861.436 434.113 865.705 437.301 867.114C443.54 869.871 450.403 868.078 450.403 860.813C450.403 856.1 449.494 852.433 444.685 850.349C441.57 848.999 439.017 849.11 437.023 851.958C435.309 854.408 434.932 857.603 435.996 860.397C437.888 865.361 446.65 868.177 446.072 860.48C445.761 856.335 441.96 856.256 438.522 855.956C434.113 855.57 436.01 862.619 438.106 864.366C441.262 866.996 447.59 864.114 445.684 859.731C443.727 855.229 435.173 863.736 440.465 864.227C442.653 864.43 445.529 863.842 447.405 862.673C449.399 861.43 446.675 857.97 445.545 857.066C444.323 856.088 440.797 854.92 439.633 856.622C439.048 857.476 438.425 859.624 439.744 860.064C442.938 861.128 442.547 859.199 441.298 856.788C438.034 850.488 432.395 858.919 434.081 863.173C436.097 868.257 445.617 869.031 447.127 863.117C447.925 859.994 444.306 855.441 440.965 856.455C437.996 857.357 442.352 866.082 444.685 866.726C450.636 868.367 446.914 861.451 445.628 859.342C444.618 857.684 442.338 852.535 439.411 853.957C437.47 854.9 436.743 864.138 439.355 864.838C444.456 866.204 446.234 860.036 444.573 856.4C444.289 855.776 438.816 849.61 438.439 851.681C438.212 852.931 438.63 856.974 440.521 856.844C442.589 856.701 443.114 851.437 444.351 852.292C446.126 853.517 451.462 860.126 449.82 862.59C448.199 865.02 444.814 857.387 446.017 855.734C447.335 853.921 452.676 866.213 450.069 866.614C447.72 866.976 447.562 860.129 449.126 861.785C450.084 862.799 450.595 864.259 450.791 865.615C451.051 867.411 450.519 867.654 450.43 865.476C450.419 865.2 450.085 861.348 450.847 861.896C451.769 862.559 452.401 863.594 452.401 864.727C452.401 864.795 452.401 860.301 452.401 863.395C452.401 864.875 452.607 866.544 452.29 868.002C451.91 869.749 451.008 867.266 450.958 866.809C450.511 862.787 451.216 867.571 450.403 869.113C448.655 872.423 448.162 859.844 448.293 860.73C448.652 863.153 448.459 865.957 447.516 868.224C447.146 869.113 443.934 874.841 442.186 873.443C440.117 871.788 440.336 866.038 441.132 863.839C442.314 860.569 444.212 866.848 444.296 867.53C444.327 867.783 444.826 871.968 443.741 871.722C441.831 871.288 441.091 866.253 440.021 866.17C439.683 866.144 440.549 871.899 441.021 872.499C442.691 874.625 445.535 868.609 445.85 867.669C448.283 860.429 440.178 867.353 442.63 867.919C445.832 868.658 457.301 865.557 452.568 860.286C450.073 857.508 446.861 865.018 449.459 864.477C453.863 863.56 451.655 856.476 447.877 856.011C443.708 855.498 430.198 859.753 436.302 865.726C440.349 869.687 443.946 861.592 440.965 858.121C436.285 852.67 423.46 860.311 428.474 867.086C430.685 870.074 436.389 869.429 439.022 867.503C441.233 865.885 441.579 863.164 441.132 860.674C440.946 859.642 440.671 858.387 439.355 858.482C436.61 858.678 436.927 862.971 437.245 864.782C438.71 873.103 448.678 867.517 444.657 862.839C440.568 858.083 429.974 862.611 435.413 868.169C437.556 870.358 440.365 871.834 443.324 870.473C444.828 869.781 446.563 868.278 445.961 866.392C445.281 864.258 443.01 863.52 440.965 863.561C437.189 863.637 434.688 865.907 434.553 869.696C434.314 876.388 444.463 871.635 442.408 865.254C441.661 862.933 439.291 862.128 437.079 861.951C434.369 861.734 434.1 863.937 434.137 866.226C434.236 872.408 443.061 872.776 441.576 866.837C440.073 860.827 429.346 857.546 428.557 865.56C427.82 873.053 437.741 875.441 442.797 871.278C446.921 867.882 443.032 863.721 438.744 864.56C433.039 865.678 433.964 874.106 440.077 871.389C446.015 868.75 441.333 862.509 436.746 862.007C433.013 861.598 432.138 863.625 432.138 867.059C432.138 868.706 432.741 871.953 434.942 872.083C439.109 872.328 438.165 865.639 434.081 866.059C433.311 866.138 429.571 866.941 430.001 868.446C430.132 868.904 430.9 865.921 430.917 865.837" stroke="white" stroke-opacity="0.56" stroke-width="2.57428" stroke-linecap="round"/>
<path d="M435.38 859.557C438.589 845.514 440.287 829.975 448.12 817.485C456.075 804.797 467.089 809.344 473.155 820.151C479.047 830.648 480.708 848.879 469.896 857.038C465.404 860.428 456.594 856.449 455.378 851.261C454.102 845.813 458.89 841.467 463.823 840.298C472.992 838.127 482.704 843.066 488.266 850.224C501.494 867.249 486.627 895.251 471.526 905.925C460.048 914.037 446.966 897.979 443.379 888.296C442.38 885.6 437.607 871.08 442.342 869.186C447.238 867.228 449.116 879.494 449.749 881.926C456.351 907.275 428.87 919.714 411.381 900.74C399.58 887.938 399.346 867.441 405.9 852.15C410.981 840.293 427.979 824.916 439.527 839.558C444.281 845.585 444.486 860.655 435.38 862.964C422.533 866.221 414.471 845.246 415.232 836.002C416.231 823.882 431.657 796.276 447.527 809.041C455.222 815.231 454.045 829.471 454.045 838.224" stroke="white" stroke-opacity="0.22" stroke-width="2.57428" stroke-linecap="round"/>
<path d="M88.4966 367.543C89.0064 364.366 92.5516 313.541 102.693 314.879C107.646 315.532 116.799 324.24 118.978 328.499C125.913 342.054 108.448 368.172 95.6686 373.058C91.4073 374.687 91.5918 369.449 92.6789 367.055C95.7114 360.376 102.23 355.509 109.395 354.201C135.146 349.5 127.38 378.472 120.019 391.372C116.118 398.207 105.266 418.68 94.4437 413.969C85.5805 410.111 91.5282 388.856 95.8569 382.91C99.1021 378.452 107.132 374.509 108.893 382.39C111.496 394.034 91.1916 406.591 81.7778 407.104C69.6676 407.765 46.9334 393.572 40.1062 384.277C32.4049 373.792 42.3581 355.255 51.0668 348.392C64.2117 338.034 93.7966 339.636 78.1057 359.979C73.6595 365.744 70.0998 365.56 64.789 360.883C54.6885 351.989 73.1003 329.598 79.7488 323.347C85.5564 317.886 93.2718 320.219 97.7707 326.898C98.9569 328.659 97.1338 339.104 96.6969 341.719" stroke="white" stroke-opacity="0.62" stroke-width="4.13588" stroke-linecap="round"/>
<path d="M648.539 225.449C645.854 218.538 635.185 202.316 648.687 201.673C658.323 201.214 662.771 207.347 664.686 216.413C666.852 226.664 661.792 235.092 650.983 235.893C649.003 236.04 653.778 232.854 655.649 232.19C660.912 230.322 666.682 228.874 672.241 230.264C678.844 231.914 678.259 237.998 678.908 243.67C680.159 254.623 671.55 258.174 662.019 260.855C650.829 264.002 646.824 261.965 645.354 250.04C644.765 245.269 643.446 230.782 651.872 230.782C655.058 230.782 654.14 240.935 653.872 243.078C652.992 250.112 640.435 252.524 634.613 251.818C619.99 250.046 626.367 217.292 642.317 220.412C650.711 222.055 639.935 247.514 634.613 229.671C632.287 221.872 630.778 210.097 639.354 205.302C648.651 200.104 656.714 202.96 663.205 209.45" stroke="white" stroke-opacity="0.62" stroke-width="2.57428" stroke-linecap="round"/>
<path d="M898.775 804.851C900.484 807.038 909.812 820.689 908.404 810.48C907.623 804.821 903.788 800.803 898.997 806.332C898.297 807.139 894.307 812.522 898.034 810.924C903.161 808.727 887.002 815.388 881.59 814.035C868.864 810.854 878.145 781.799 887.812 778.778C899.061 775.262 905.674 789.739 902.626 798.629C901.985 800.499 901.562 794.526 902.33 792.703C903.744 789.345 905.977 788.585 909.292 789C916.964 789.958 917.797 802.271 918.477 808.258C919.94 821.132 914.143 826.183 901.071 826.183C893.425 826.183 902.175 815.851 910.181 818.776C913.449 819.97 914.849 823.852 914.774 827.072C914.623 833.534 906.507 832.555 901.663 832.775C888.305 833.382 882.821 823.669 887.812 813.687" stroke="white" stroke-opacity="0.62" stroke-width="2.57428" stroke-linecap="round"/>
<path d="M763.092 1022.43C759.029 1021.42 752.995 1020.76 752.363 1015.53C751.815 1010.99 754.797 1006.95 758.631 1004.94C766.206 1000.96 769.359 1010.13 770.263 1016.08C770.538 1017.88 770.482 1023.38 770.482 1021.55C770.482 1018.34 774.665 1015.72 777.325 1017.88C781.242 1021.07 786.563 1029.11 784.168 1034.53C782.577 1038.12 773.47 1043.68 771.303 1038.03C770.9 1036.98 770.542 1033.91 772.562 1034.14C777.274 1034.69 778.122 1039.19 776.066 1042.79C773.315 1047.62 765.29 1050.71 759.945 1049.17C755.669 1047.93 753.609 1041.37 752.965 1037.54C752.622 1035.49 752.607 1033.27 753.294 1031.3C753.781 1029.89 756.095 1026.15 755.784 1027.6C755.056 1031 750.471 1034.63 746.944 1034.25C742.988 1033.83 743.924 1021.93 744.48 1019.58C745.444 1015.51 748.015 1012.41 752.308 1012.57C754.213 1012.65 754.82 1014.93 755.209 1016.49C755.5 1017.65 756.688 1017.25 756.688 1018.49" stroke="white" stroke-opacity="0.88" stroke-width="1.30111" stroke-linecap="round"/>
<path d="M765.508 1020.45C767.274 1021.21 767.999 1022.4 768.264 1023.9C768.607 1024.25 768.871 1024.7 769.018 1025.17C769.178 1025.2 769.338 1025.3 769.492 1025.47C770.368 1026.44 770.146 1027.27 769.432 1027.91C769.449 1028.41 769.452 1028.91 769.352 1029.37C769.16 1030.25 768.704 1029 768.678 1028.77C768.665 1028.65 768.654 1028.54 768.644 1028.45C768.638 1028.46 768.632 1028.46 768.626 1028.46C768.637 1028.65 768.625 1028.78 768.603 1028.84C768.586 1029.24 768.534 1029.67 768.398 1029.93C768.029 1030.63 767.771 1029.93 767.6 1028.91C767.432 1028.96 767.262 1029.02 767.092 1029.07C767.046 1029.21 766.995 1029.35 766.939 1029.48C766.752 1029.93 765.128 1032.83 764.245 1032.12C764.157 1032.05 764.077 1031.96 764.005 1031.87C763.882 1031.85 763.764 1031.78 763.656 1031.64C763.647 1031.63 763.639 1031.62 763.63 1031.6C761.192 1032.72 757.702 1031.72 757.364 1028.97C757.347 1028.95 757.331 1028.93 757.315 1028.91C756.126 1027.3 756.921 1025.6 758.344 1024.53C759.07 1023.98 759.96 1023.6 760.834 1023.48C760.903 1022.69 761.173 1021.92 761.636 1021.26C762.643 1019.82 763.934 1019.76 765.508 1020.45Z" fill="white" fill-opacity="0.37"/>
<path d="M761.327 1021.46C760.276 1022.12 758.196 1022.76 758.311 1024.25C758.449 1026.05 760.164 1028.21 761.776 1028.92C764.929 1030.31 768.398 1029.41 768.398 1025.74C768.398 1023.35 767.939 1021.5 765.508 1020.45C763.934 1019.76 762.643 1019.82 761.636 1021.26C760.769 1022.5 760.579 1024.11 761.117 1025.53C762.072 1028.03 766.501 1029.46 766.209 1025.57C766.052 1023.47 764.131 1023.43 762.393 1023.28C760.165 1023.09 761.123 1026.65 762.183 1027.53C763.778 1028.86 766.976 1027.4 766.013 1025.19C765.024 1022.91 760.7 1027.21 763.375 1027.46C764.481 1027.56 765.934 1027.27 766.883 1026.68C767.891 1026.05 766.514 1024.3 765.943 1023.84C765.325 1023.35 763.543 1022.76 762.954 1023.62C762.659 1024.05 762.344 1025.13 763.01 1025.36C764.625 1025.89 764.427 1024.92 763.796 1023.7C762.147 1020.52 759.296 1024.78 760.148 1026.93C761.168 1029.5 765.979 1029.89 766.742 1026.9C767.145 1025.32 765.316 1023.02 763.628 1023.53C762.127 1023.99 764.329 1028.4 765.508 1028.72C768.516 1029.55 766.634 1026.06 765.985 1024.99C765.474 1024.15 764.322 1021.55 762.842 1022.27C761.861 1022.75 761.494 1027.42 762.814 1027.77C765.392 1028.46 766.291 1025.34 765.452 1023.5C765.308 1023.19 762.541 1020.07 762.351 1021.12C762.236 1021.75 762.447 1023.8 763.403 1023.73C764.449 1023.66 764.714 1021 765.339 1021.43C766.236 1022.05 768.933 1025.39 768.103 1026.63C767.284 1027.86 765.573 1024 766.181 1023.17C766.847 1022.25 769.547 1028.46 768.229 1028.67C767.042 1028.85 766.962 1025.39 767.752 1026.23C768.237 1026.74 768.495 1027.48 768.594 1028.16C768.726 1029.07 768.457 1029.19 768.412 1028.09C768.406 1027.95 768.237 1026.01 768.622 1026.28C769.089 1026.62 769.408 1027.14 769.408 1027.71C769.408 1027.75 769.408 1025.48 769.408 1027.04C769.408 1027.79 769.512 1028.63 769.352 1029.37C769.16 1030.25 768.704 1029 768.678 1028.77C768.453 1026.73 768.809 1029.15 768.398 1029.93C767.515 1031.6 767.265 1025.25 767.332 1025.69C767.513 1026.92 767.416 1028.34 766.939 1029.48C766.752 1029.93 765.128 1032.83 764.245 1032.12C763.199 1031.28 763.31 1028.38 763.712 1027.26C764.31 1025.61 765.269 1028.79 765.311 1029.13C765.327 1029.26 765.579 1031.37 765.031 1031.25C764.065 1031.03 763.692 1028.48 763.151 1028.44C762.98 1028.43 763.418 1031.34 763.656 1031.64C764.5 1032.72 765.937 1029.68 766.097 1029.2C767.327 1025.54 763.23 1029.04 764.47 1029.33C766.088 1029.7 771.884 1028.13 769.492 1025.47C768.231 1024.06 766.608 1027.86 767.921 1027.59C770.147 1027.12 769.031 1023.54 767.121 1023.31C765.014 1023.05 758.186 1025.2 761.271 1028.22C763.316 1030.22 765.135 1026.13 763.628 1024.37C761.262 1021.62 754.781 1025.48 757.315 1028.91C758.432 1030.42 761.315 1030.09 762.646 1029.12C763.763 1028.3 763.938 1026.92 763.712 1025.67C763.618 1025.14 763.479 1024.51 762.814 1024.56C761.427 1024.66 761.587 1026.83 761.748 1027.74C762.488 1031.95 767.526 1029.12 765.494 1026.76C763.427 1024.36 758.073 1026.64 760.822 1029.45C761.905 1030.56 763.325 1031.31 764.82 1030.62C765.58 1030.27 766.457 1029.51 766.153 1028.56C765.809 1027.48 764.661 1027.1 763.628 1027.12C761.719 1027.16 760.455 1028.31 760.387 1030.22C760.266 1033.61 765.396 1031.21 764.357 1027.98C763.98 1026.81 762.782 1026.4 761.664 1026.31C760.294 1026.2 760.158 1027.31 760.177 1028.47C760.227 1031.6 764.687 1031.78 763.936 1028.78C763.177 1025.74 757.755 1024.08 757.357 1028.13C756.984 1031.92 761.999 1033.13 764.554 1031.02C766.638 1029.31 764.672 1027.2 762.505 1027.63C759.622 1028.19 760.089 1032.45 763.179 1031.08C766.18 1029.75 763.814 1026.59 761.495 1026.34C759.609 1026.13 759.166 1027.16 759.166 1028.89C759.166 1029.72 759.471 1031.37 760.583 1031.43C762.69 1031.56 762.213 1028.17 760.148 1028.39C759.759 1028.43 757.869 1028.83 758.086 1029.59C758.152 1029.83 758.541 1028.32 758.549 1028.27" stroke="white" stroke-width="1.30111" stroke-linecap="round"/>
</g>
<defs>
<clipPath id="clip0_4490_809">
<rect width="998.436" height="1024.13" fill="white" transform="translate(70.3638 72.0781)"/>
</clipPath>
</defs>
</svg>
