<svg width="821" height="1231" viewBox="0 0 821 1231" fill="none" xmlns="http://www.w3.org/2000/svg">
<path fill-rule="evenodd" clip-rule="evenodd" d="M424.053 327.251L424.61 330.584L350.858 334.401C338.073 332.431 299.237 326.703 195.827 311.778C-14.1493 281.315 79.5708 114.39 79.5708 114.39C295.068 -143.04 381.628 119.339 407.785 235.702C432.84 122.1 519.744 -151.77 740.893 109.406C740.893 109.406 835.701 276.33 623.238 306.793C518.59 321.721 479.286 327.449 466.345 329.418L424.053 327.251ZM467.66 329.485L466.345 329.418C453.012 331.446 467.66 329.485 467.66 329.485ZM349.541 334.469C349.541 334.469 364.033 336.431 350.858 334.401L349.541 334.469ZM365.594 340.363H0.613281V529.979H365.594V548.964H39.158V1224.43H365.594V1230.53H460.921V1224.43H781.303V548.964H460.921V529.979H820.159V340.363H460.921V335.341H365.594V340.363Z" fill="white"/>
<g opacity="0.9">
<path d="M752.724 571.621H67.3701V1195.4H752.724V571.621Z" fill="#61F2B9" stroke="#2BA4FC" stroke-width="10.7647" stroke-miterlimit="10"/>
<path d="M788.607 378.98H31.7754V554.087H788.607V378.98Z" fill="#5EFFC0" stroke="#2BA4FC" stroke-width="10.7647" stroke-miterlimit="10"/>
</g>
<g opacity="0.9">
<path d="M400.071 323.438C400.071 323.438 463.224 -132.124 715.405 165.699C715.405 165.699 802.958 319.85 606.754 347.982C410.549 375.97 463.081 368.937 463.081 368.937L393.038 365.349L400.071 323.295V323.438Z" fill="#FFA046" stroke="#F29D4C" stroke-width="10.7647" stroke-miterlimit="10"/>
<path d="M427.056 352.737L476.143 356.325C476.143 356.325 717.847 184.664 633.738 184.664C633.738 184.664 507.576 205.763 427.056 352.881V352.737Z" fill="#FFDB43"/>
<path d="M416.436 328.04C416.436 328.04 354.001 -127.523 104.69 170.301C104.69 170.301 18.1419 324.452 212.05 352.584C405.959 380.572 354.001 373.539 354.001 373.539L423.326 369.951L416.293 327.896L416.436 328.04Z" fill="#FFA046" stroke="#F29D4C" stroke-width="10.7647" stroke-miterlimit="10"/>
<path d="M365.341 333.928L316.972 337.516C316.972 337.516 77.8513 165.711 160.955 165.711C160.955 165.711 285.682 186.81 365.341 333.928Z" fill="#FFDB43"/>
</g>
<rect x="368.825" y="374.34" width="88.0329" height="826.684" fill="#FFDB43"/>
</svg>
