<svg width="1082" height="1021" viewBox="0 0 1082 1021" fill="none" xmlns="http://www.w3.org/2000/svg">
<path fill-rule="evenodd" clip-rule="evenodd" d="M842.101 175.01C790.719 176.063 746.147 204.025 721.612 245.164C669.516 219.631 612.957 205.169 555.729 206.336C506.624 207.336 458.467 219.804 413.543 240.771C406.103 244.24 398.751 247.943 391.499 251.866C365.349 211.75 319.727 185.607 268.275 186.641C189.064 188.264 126.036 253.84 127.659 333.051C128.703 384.019 156.225 428.287 196.821 452.943C184.111 478.178 174.089 504.218 167.204 530.48C165.174 538.214 163.415 545.967 161.941 553.724C121.75 765.004 299.892 920.43 569.934 914.963C814.092 910.049 977.83 776.861 971.189 596.712C971.243 598.145 971.285 599.575 971.318 601.002L971.298 600.118C971.208 596.152 971.117 592.123 970.746 588.141C969.654 571.675 967.149 554.833 963.166 537.676L963.195 537.565C955.323 503.752 941.986 470.235 924.208 438.245C963.802 411.999 989.537 366.683 988.512 315.626C986.889 236.415 921.423 173.417 842.101 175.01Z" fill="white"/>
<path d="M431.179 371.977C432.637 444.557 374.993 504.458 302.515 505.943C230.037 507.428 170.034 449.757 168.549 377.279C167.064 304.801 224.735 244.798 297.213 243.313C369.793 241.855 429.694 299.499 431.179 371.977Z" fill="#6FA5EF"/>
<path d="M364.091 373.243C364.821 408.717 336.596 438.065 301.122 438.795C265.649 439.525 236.3 411.3 235.571 375.827C234.841 340.353 263.066 311.005 298.539 310.275C334.013 309.545 363.361 337.77 364.091 373.243Z" fill="#5A6371"/>
<g style="mix-blend-mode:multiply" opacity="0.4">
<path d="M255.618 395.69C254.946 362.845 281.041 335.757 313.757 335.159C333.357 334.749 350.879 344.126 361.938 358.522C354.682 330.337 328.983 309.623 298.537 310.285C263.063 311.014 234.838 340.363 235.568 375.836C236.021 398.932 248.775 418.791 267.291 429.741C260.155 420.207 255.887 408.502 255.618 395.69Z" fill="#5A6371"/>
</g>
<path d="M693.601 366.638C695.059 439.218 754.988 496.76 827.567 495.302C900.046 493.817 957.689 433.916 956.232 361.336C954.747 288.858 894.845 231.214 822.265 232.672C749.787 234.157 692.116 294.16 693.601 366.638Z" fill="#6FA5EF"/>
<path d="M760.701 365.334C761.431 400.808 790.78 429.033 826.253 428.303C861.727 427.573 889.952 398.225 889.222 362.751C888.492 327.278 859.144 299.053 823.67 299.783C788.197 300.512 759.972 329.861 760.701 365.334Z" fill="#5A6371"/>
<g style="mix-blend-mode:multiply" opacity="0.4">
<path d="M870.072 383.45C869.4 350.605 842.285 324.612 809.44 325.284C789.84 325.694 772.681 335.687 762.25 350.64C768.368 322.118 793.223 300.469 823.643 299.909C859.116 299.179 888.465 327.404 889.195 362.878C889.648 385.973 877.775 406.311 859.719 418.023C866.391 408.16 870.314 396.363 870.045 383.552L870.072 383.45Z" fill="#5A6371"/>
</g>
<path d="M933.039 564.506C977.524 756.083 820.421 904.75 573.231 909.725C326.142 914.727 163.142 772.512 199.917 579.191C229.976 421.09 388.788 264.823 560.234 261.329C731.681 257.836 896.569 407.634 933.067 564.405L933.039 564.506Z" fill="#6D9EE9"/>
<g style="mix-blend-mode:multiply" opacity="0.4">
<g style="mix-blend-mode:multiply" opacity="0.3">
<path d="M348.715 757.77C131.817 522.501 463.964 279.298 464.507 278.899C332.994 324.342 224.223 451.117 199.924 579.185C163.177 772.405 326.177 914.62 573.239 909.72C791.744 905.334 939.892 788.456 940.456 629.094C934.731 816.254 558.271 985.085 348.688 757.872L348.715 757.77Z" fill="#6D9EE9"/>
</g>
<path d="M940.497 622.448C940.394 617.956 940.19 613.437 939.782 608.863C940.318 613.362 940.394 617.956 940.497 622.448Z" fill="#6D9EE9"/>
</g>
<path d="M751.366 511.918C755.692 536.814 738.917 560.411 714.048 564.635C689.18 568.86 665.556 552.186 661.331 527.318C657.106 502.449 673.78 478.825 698.648 474.601C723.415 470.349 747.039 487.022 751.366 511.918Z" fill="#162130"/>
<path d="M655.899 537.834C661.32 547.671 673.66 551.195 683.496 545.774C693.333 540.352 696.857 528.013 691.408 518.278C685.987 508.441 673.674 504.815 663.811 510.338C653.974 515.76 650.45 528.099 655.899 537.834Z" fill="#E5E9FD"/>
<path d="M724.422 502.736C728.011 509.251 736.186 511.659 742.802 508.097C749.317 504.507 751.725 496.333 748.135 489.818C744.546 483.303 736.372 480.895 729.728 484.559C723.213 488.149 720.805 496.323 724.496 502.865L724.422 502.736Z" fill="#E5E9FD"/>
<path d="M484.695 517.235C489.022 542.13 472.246 565.727 447.378 569.952C422.509 574.177 398.885 557.503 394.66 532.634C390.436 507.766 407.109 484.142 431.978 479.917C456.745 475.665 480.369 492.339 484.695 517.235Z" fill="#162130"/>
<path d="M389.327 543.178C394.748 553.015 407.088 556.539 416.925 551.117C426.761 545.696 430.285 533.356 424.836 523.621C419.415 513.785 407.103 510.159 397.239 515.682C387.402 521.104 383.905 533.342 389.327 543.178Z" fill="#E5E9FD"/>
<path d="M457.856 508.068C461.445 514.583 469.619 516.991 476.236 513.429C482.751 509.839 485.159 501.665 481.495 495.021C477.905 488.506 469.731 486.098 463.087 489.762C456.572 493.352 454.164 501.526 457.856 508.068Z" fill="#E5E9FD"/>
<path d="M516.746 650.394C507.996 679.464 506.55 711.283 516.457 739.991C526.364 768.7 548.347 793.793 576.912 803.99C602.366 813.101 631.22 809.847 655.951 798.783C670.559 792.203 684.299 782.802 693.7 769.857C701.727 758.866 706.499 745.704 709.175 732.398C715.322 702.46 711.706 671.148 702.667 641.933C695.797 619.732 685.383 598.11 668.823 581.84C608.947 523.048 535.62 587.48 516.746 650.321V650.394Z" fill="#FFFCFD" fill-opacity="0.33"/>
<path d="M657.763 645.183C657.402 645.906 657.112 646.629 656.606 647.425C656.461 647.859 656.244 648.365 655.955 648.726C650.098 659.284 639.901 668.902 628.331 673.892C627.897 674.181 627.391 674.326 626.885 674.543C618.424 678.014 609.312 678.882 600.779 675.917C600.345 675.772 599.839 675.555 599.405 675.41C597.453 674.615 595.645 673.675 593.837 672.445C586.244 667.528 580.531 660.297 576.048 652.487C575.831 652.125 575.614 651.764 575.397 651.33C575.397 651.185 575.252 651.185 575.252 651.04C569.395 640.482 567.587 627.827 573.951 617.197C578.868 608.953 588.847 605.338 597.67 602.734C597.814 602.734 598.031 602.734 598.176 602.59C616.399 597.383 639.757 597.817 652.918 613.292C660.366 622.042 662.608 634.625 657.763 645.111V645.183Z" fill="#052800"/>
<path d="M600.858 675.915C600.424 675.77 599.918 675.553 599.484 675.409C599.846 669.841 598.833 663.622 596.519 657.041C595.362 653.57 593.482 649.376 589.866 647.568C586.684 645.904 582.273 646.411 579.236 648.797C578.007 649.737 576.922 651.039 576.054 652.557C575.837 652.196 575.62 651.834 575.403 651.4C575.403 651.256 575.259 651.256 575.259 651.111C576.127 649.737 577.211 648.652 578.368 647.64C581.984 644.82 586.829 644.241 590.517 646.194C594.567 648.291 596.592 652.847 597.821 656.462C600.28 663.477 601.292 669.913 600.786 675.843L600.858 675.915Z" fill="#E0FFE8"/>
<path d="M657.556 648.299L656.471 649.239C656.471 649.239 656.182 648.878 656.037 648.805C652.422 645.045 645.841 644.25 640.562 646.998C635.934 649.456 632.101 654.446 630.293 660.737C629.064 665.004 628.63 669.487 628.413 673.971C627.979 674.26 627.473 674.405 626.967 674.622C627.111 669.849 627.545 665.076 628.919 660.376C630.944 653.651 634.849 648.444 639.983 645.768C645.624 642.876 652.566 643.599 656.76 647.504C657.05 647.721 657.339 648.082 657.628 648.372L657.556 648.299Z" fill="#E0FFE8"/>
<path d="M590.806 680.102C594.711 688.128 602.304 697.891 611.922 698.759C622.697 699.771 629.784 688.924 634.846 681.042" stroke="#052800" stroke-width="3.90499" stroke-linecap="round" stroke-linejoin="round"/>
</svg>
