<svg width="1030" height="1094" viewBox="0 0 1030 1094" fill="none" xmlns="http://www.w3.org/2000/svg">
<path fill-rule="evenodd" clip-rule="evenodd" d="M845.375 0.172484C740.471 26.3985 631.033 60.1954 522.563 96.0618C450.074 120.027 378.027 144.915 308.055 169.087L308.044 169.091L308.028 169.096C280.793 178.505 253.874 187.804 227.364 196.898C227.587 197.56 227.81 198.224 228.034 198.888C234.695 218.729 242.41 239.633 250.505 261.221L251.479 263.842L251.479 263.844L251.489 263.871L251.501 263.903L251.515 263.941C253.51 269.308 255.522 274.721 257.54 280.175L257.657 280.246C288.974 363.487 322.954 454.976 322.954 534.057C320.708 597.533 283.456 618.478 235.098 628.816C226.593 630.634 217.745 632.124 208.684 633.46C207.203 633.679 205.716 633.893 204.224 634.104L204.1 634.018C197.039 635.009 189.864 635.927 182.635 636.851C122.216 644.578 58.0445 652.785 25.0711 708.192C-20.5028 784.836 -0.377526 863.789 56.7135 930.102C93.6647 973.036 146.106 1010.68 206.245 1038.97C305.165 1085.5 424.913 1106.74 530.81 1084.63C603.351 1069.51 675.546 1051.78 741.556 1026.64C886.781 971.347 1002.07 880.253 1025.25 702.466C1049.73 502.081 972.109 310.236 896.023 126.931L896.111 126.77C891.45 115.429 886.759 104.145 882.087 92.9068L882.062 92.8445L882.036 92.7821L882.021 92.7461C875.396 76.8099 868.809 60.9652 862.396 45.1783C856.833 28.3206 851.101 11.4628 845.538 0.168151L845.467 0.185939L845.377 0.00390625V0.00836764L845.375 0.00390625V0.172484Z" fill="white"/>
<mask id="mask0_4629_3" style="mask-type:luminance" maskUnits="userSpaceOnUse" x="105" y="89" width="887" height="941">
<path d="M832.829 89.3911C658.794 132.9 470.257 200.628 301.154 258.639C330.16 345.657 383.385 456.893 383.385 548.696C378.599 684.008 188.902 594.67 127.12 698.511C20.8139 877.331 330.16 1070.8 562.205 1022.36C761.91 980.737 958.568 916.054 987.574 693.58C1011.79 495.326 919.846 306.789 847.331 127.969C842.545 113.466 837.615 98.963 832.829 89.2461" fill="white"/>
</mask>
<g mask="url(#mask0_4629_3)">
<path d="M832.83 89.3911C658.795 132.9 470.258 200.628 301.155 258.639C330.161 345.657 383.386 456.893 383.386 548.696C378.6 684.008 188.903 594.67 127.121 698.511C20.8149 877.331 330.161 1070.8 562.206 1022.36C761.911 980.737 958.569 916.054 987.575 693.58C1011.79 495.326 919.847 306.789 847.332 127.969C842.546 113.466 837.615 98.963 832.83 89.2461" fill="#469E6F"/>
<path d="M281.134 634.691C224.283 642.668 158.875 645.133 127.114 698.504C34.1506 854.845 258.945 1022.35 471.992 1029.6C500.417 872.828 409.629 723.304 281.134 634.691Z" fill="#EBE7E6"/>
<path d="M337.84 337.821C416.591 404.679 508.974 272.413 590.19 254.864C623.401 247.613 655.743 245.872 689.389 252.254C717.96 257.62 751.752 272.703 780.757 272.413C825.136 272.123 855.592 236.446 876.476 198.303C866.759 174.663 856.897 151.314 847.47 128.109C842.684 113.606 837.753 99.1036 832.968 89.3867C658.788 132.895 470.251 200.624 301.148 258.635C308.689 281.114 317.826 305.189 327.108 330.279C330.734 332.455 334.359 334.92 337.84 337.966V337.821Z" fill="#73E3FF"/>
<path d="M301.441 433.248C327.982 473.276 367.284 489.084 413.403 474.726C459.522 460.369 502.741 427.012 546.83 403.372C566.409 392.785 588.018 382.343 610.497 380.893C636.747 379.153 664.013 382.633 690.263 384.954C736.817 389.014 786.417 395.541 831.956 381.328C891.708 362.619 922.744 308.814 940.147 251.963C944.208 238.475 923.324 232.819 919.118 246.161C904.325 294.601 878.945 343.185 827.895 359.864C785.982 373.496 739.718 367.55 696.644 363.78C653.571 360.009 608.177 353.047 566.409 370.161C524.64 387.274 487.078 415.41 446.905 436.729C426.601 447.461 404.122 458.193 380.772 458.918C353.942 459.643 334.508 443.835 320.295 422.371C312.609 410.769 293.755 421.646 301.441 433.393V433.248Z" fill="#73E3FF"/>
</g>
</svg>
