<svg width="1418" height="1106" viewBox="0 0 1418 1106" fill="none" xmlns="http://www.w3.org/2000/svg">
<path d="M1026.43 1072.69C941.106 1072.69 862.343 1041.33 804.243 983.958C753.68 934.124 717.458 863.869 699.712 780.73C683.911 706.586 683.668 630.011 685.613 558.298L734.232 559.757C732.287 628.553 732.53 701.724 747.116 770.764C762.917 844.665 794.52 906.411 838.277 949.439C888.111 998.544 956.907 1025.04 1030.08 1024.07C1110.79 1023.1 1188.82 989.792 1243.76 932.908C1333.71 839.803 1357.29 687.868 1298.7 578.961C1258.35 503.845 1183.47 451.822 1088.18 432.375C973.438 409.038 850.188 436.021 766.321 503.116L735.934 465.193C830.741 389.347 969.548 358.717 1097.9 384.971C1207.54 407.336 1294.08 468.11 1341.48 556.11C1409.79 682.763 1382.81 859.25 1278.77 966.698C1214.83 1032.82 1124.4 1071.47 1030.81 1072.69C1029.35 1072.69 1027.89 1072.69 1026.43 1072.69Z" fill="#E3B1DF"/>
<path fill-rule="evenodd" clip-rule="evenodd" d="M644.735 355.719C605.411 314.269 572.476 264.232 540.784 216.083L540.73 216.001C539.229 213.72 537.73 211.442 536.233 209.17C466.179 102.509 375.582 -10.4731 236.001 1.64152C191.756 5.59194 149.882 23.7639 115.118 51.1534C-21.3032 158.868 -31.0475 358.233 61.919 488.86C114.855 563.391 200.71 613.693 291.833 622.121C333.715 625.866 375.596 621.137 417.548 616.4L417.55 616.4L417.552 616.4C440.495 613.809 463.46 611.216 486.457 610.006C492.394 609.657 498.381 609.423 504.397 609.321C461.701 704.777 429.088 802.56 410.574 897.549V898.865H410.311C403.463 936.263 417.948 982.614 465.616 964.442C480.101 958.912 492.216 948.114 503.54 937.316C567.115 877.142 621.919 809.041 672.21 737.467C674.476 754.894 677.377 772.278 681.055 789.541C700.281 879.61 739.522 955.721 794.301 1009.71C857.244 1071.86 942.573 1105.84 1035.01 1105.84H1039.75C1141.15 1104.52 1239.12 1062.65 1308.38 991.012C1421.1 874.606 1450.33 683.406 1376.33 546.195C1324.97 450.858 1231.22 385.018 1112.44 360.788C1042.93 346.571 970.595 347.751 902.796 362.751C910.291 348.216 917.513 333.537 924.392 318.68C926.607 313.901 929.02 308.795 931.562 303.416C957.737 248.033 997.615 163.659 976.011 107.728C945.197 27.9296 848.28 105.621 815.624 139.858C755.388 203.398 697.414 276.641 644.735 355.719ZM732.411 778.743C724.784 742.642 720.777 705.499 718.909 668.349C749.161 621.993 778.15 574.814 806.954 527.938L806.956 527.934L807.039 527.799C809.902 523.14 812.763 518.483 815.624 513.831C833.282 485.076 850.833 456.213 867.663 426.949C940.642 401.994 1023.13 396.12 1101.91 412.144C1205.14 433.213 1286.26 489.572 1329.98 570.951C1393.45 688.936 1367.9 853.537 1270.46 954.405C1210.94 1016.03 1126.4 1052.11 1038.96 1053.17C959.692 1054.22 885.16 1025.51 831.171 972.313C783.766 925.698 749.529 858.805 732.411 778.743Z" fill="white"/>
<path d="M700.94 485.157C710.145 459.516 697.872 431.903 674.204 418.316C608.677 380.402 563.751 310.274 521.017 245.405C462.723 156.649 387.335 62.6329 271.184 72.7139C234.367 76.0011 199.522 91.1226 170.594 113.914C57.0735 203.547 48.9649 369.445 126.325 478.144C170.375 540.164 241.818 582.022 317.644 589.034C371.556 593.856 425.467 581.802 479.597 578.953C516.853 576.762 556.519 580.049 590.488 594.294C621.827 607.662 657.767 592.322 668.944 560.326C668.944 560.106 668.944 559.887 669.163 559.668C676.834 537.972 691.736 511.455 701.159 485.595L700.94 485.157Z" fill="#9FD6AA"/>
<path d="M456.352 839.314C450.654 870.434 462.707 909.004 502.374 893.883C514.427 889.281 524.508 880.295 533.932 871.31C640.439 770.501 717.361 642.954 793.626 518.915C826.06 466.099 858.056 412.846 884.135 356.524C904.955 311.598 946.813 232.046 927.089 180.983C901.448 114.581 820.801 179.23 793.626 207.72C637.809 372.083 500.182 614.465 456.571 838.218C456.571 838.657 456.571 838.876 456.571 839.314H456.352Z" fill="#E3B1DF"/>
<path d="M290.083 199.707C298.849 232.36 324.928 257.562 351.665 278.163C366.129 289.339 381.908 300.078 399.878 303.584C417.848 307.091 438.668 301.612 448.749 286.271C460.802 267.863 453.57 242.879 442.613 224.032C423.546 191.16 391.55 164.642 354.514 155.657C317.258 146.672 276.715 150.178 290.083 199.707Z" fill="#FFE0FE"/>
</svg>
