<svg width="808" height="1264" viewBox="0 0 808 1264" fill="none" xmlns="http://www.w3.org/2000/svg">
<path fill-rule="evenodd" clip-rule="evenodd" d="M798.769 305.364C800.119 310.224 801.064 315.354 801.739 320.215C804.432 334.355 806.051 348.495 806.997 362.636C807.004 362.632 807.012 362.629 807.019 362.626V362.761C808.909 393.138 807.289 423.516 802.159 453.353C800.943 460.374 799.458 467.394 797.838 474.28C790.953 504.927 780.017 534.63 765.571 562.712C761.655 570.948 757.335 578.643 752.745 586.339C751.665 588.229 750.449 590.119 749.234 592.009C749.224 592.012 749.213 592.015 749.203 592.018C741.511 604.43 732.742 616.572 723.703 628.309C717.762 635.87 711.417 643.025 705.071 650.181C692.38 663.817 678.744 676.778 663.758 688.659H663.623C655.387 695.274 646.882 701.755 637.971 707.695H637.836C636.408 708.703 634.928 709.659 633.429 710.627C632.517 711.215 631.599 711.809 630.68 712.421C525.507 780.331 399.947 790.862 290.453 751.574C289.351 751.206 288.252 750.827 287.158 750.437L176.388 1037.5C176.992 1037.8 177.596 1038.11 178.199 1038.42C195.211 1047.65 210.036 1061.26 221.215 1078.39L221.093 1078.52C256.818 1133.93 241.022 1208.17 185.368 1244.14C130.08 1279.86 55.5922 1263.82 19.8672 1208.41C-15.8577 1153.12 0.060544 1078.64 55.4707 1042.91C86.562 1022.83 123.178 1018.9 155.602 1029.16L266.449 741.898C198.703 712.496 139.139 663.95 96.173 597.392C63.3654 546.763 44.1939 491.408 37.3083 435.514C37.1733 434.569 37.072 433.725 36.9708 432.881L36.9707 432.881C36.8695 432.037 36.7682 431.193 36.6333 430.248C35.5532 420.528 34.8781 410.942 34.4731 401.221C34.4731 400.646 34.4586 400.056 34.4438 399.456C34.4136 398.227 34.3823 396.956 34.4731 395.686C33.9357 374.323 35.2701 353.228 38.3432 332.135C38.273 331.993 38.2029 331.851 38.1329 331.709C39.618 321.448 41.6431 311.322 43.9383 301.196H43.8033C45.4234 293.366 47.5836 285.805 50.0138 278.109C57.5744 252.052 67.9702 226.94 81.0663 203.043C84.3065 196.833 87.9518 190.622 91.7321 184.412C96.3225 176.986 101.048 169.966 106.178 162.675C106.227 162.766 106.276 162.856 106.326 162.946C106.362 162.895 106.398 162.844 106.434 162.792C118.315 146.051 131.816 130.12 146.667 115.268C150.177 111.623 153.823 108.113 157.603 104.738C173.939 89.3464 192.031 75.3053 211.337 62.8843C390.631 -53.0899 630.14 -1.5158 745.845 177.913C771.902 218.147 789.318 261.215 798.769 305.364ZM149.165 1046.2C148.62 1048.93 149.447 1051.61 151.313 1053.63L151.464 1053.62C152.826 1055.18 154.608 1056.31 156.948 1056.88C161.298 1058 166.005 1056.73 168.986 1053.92C183.551 1061.89 195.956 1073.14 205.661 1087.99C235.918 1134.9 222.552 1197.72 175.404 1228.1L175.526 1228.46C128.743 1258.72 65.7993 1245.23 35.4209 1198.21C5.16411 1151.42 18.8951 1088.48 65.6778 1058.1C91.6115 1041.43 122.04 1038.05 149.165 1046.2Z" fill="white"/>
<path d="M177.883 1041.19C176.509 1039.05 176.14 1036.25 177.1 1033.63L282.356 747.712C283.891 743.457 288.432 741.406 292.344 743.049C296.358 744.689 298.303 749.514 296.766 753.662L191.51 1039.58C189.975 1043.83 185.434 1045.88 181.522 1044.24C179.978 1043.63 178.833 1042.57 177.985 1041.18L177.883 1041.19Z" fill="#D69FA0"/>
<path d="M213.968 1085.52C204.078 1070.37 190.963 1058.33 175.914 1050.16C171.076 1047.68 166.239 1045.32 160.972 1043.71C131.088 1032.53 96.4736 1035.32 67.342 1054.13C18.3235 1085.74 4.24141 1151.63 35.8455 1200.55C67.4495 1249.56 133.345 1263.75 182.256 1232.15C231.49 1200.33 245.464 1134.65 213.86 1085.63L213.968 1085.52ZM173.549 1218.28C132.163 1245.05 76.4792 1233.12 49.605 1191.52C22.8383 1150.13 34.9855 1094.45 76.3717 1067.57C101.956 1051.12 132.485 1049.3 158.392 1059.94H158.499H158.607C161.187 1060.69 163.229 1061.87 165.594 1063.06C165.594 1063.06 165.702 1063.06 165.809 1063.06C165.809 1063.06 165.881 1063.06 166.024 1063.06H166.132H166.239C179.784 1070.15 191.286 1080.36 200.208 1094.02C226.975 1135.51 215.15 1191.09 173.441 1217.96L173.549 1218.28Z" fill="#D69FA0"/>
<path d="M762.606 307.937C763.813 312.283 764.658 316.871 765.262 321.217C767.676 333.894 769.125 346.571 769.97 359.247C771.66 386.412 770.212 413.576 765.624 440.258C764.537 446.536 763.209 452.814 761.761 458.971C755.603 486.377 745.824 512.938 732.906 538.05C729.405 545.414 725.541 552.296 721.436 559.178C720.471 560.868 719.384 562.558 718.297 564.248C711.416 575.356 703.568 586.221 695.479 596.725C690.167 603.486 684.493 609.885 678.818 616.283C667.47 628.477 655.276 640.067 641.875 650.692H641.754C634.389 656.607 626.783 662.403 618.815 667.715H618.694C616.642 669.163 614.469 670.492 612.296 671.94C518.246 732.668 405.967 742.085 308.054 706.952C302.259 705.021 296.584 702.727 291.152 700.191H291.031C228.613 674.113 173.68 630.047 134.322 569.078C104.985 523.804 87.8408 474.304 81.6835 424.321C81.442 422.631 81.3213 421.303 81.0798 419.613C80.114 410.92 79.5103 402.348 79.1481 393.656C79.1481 392.086 79.0274 390.396 79.1481 388.706C78.6652 369.509 79.8725 350.555 82.6493 331.6C83.9774 322.424 85.7884 313.37 87.8408 304.315H87.72C89.1688 297.312 91.1005 290.551 93.2737 283.67C100.035 260.369 109.331 237.913 121.042 216.543C123.939 210.99 127.199 205.436 130.579 199.883C134.684 193.242 138.91 186.964 143.498 180.445C154.122 165.474 166.195 151.228 179.475 137.948C182.615 134.688 185.874 131.549 189.255 128.531C203.863 114.767 220.041 102.211 237.306 91.1041C397.636 -12.6037 611.813 33.5155 715.279 193.967C738.58 229.945 754.154 268.458 762.606 307.937Z" fill="#65B0CC"/>
<path d="M769.768 359.263C771.459 386.427 770.01 413.592 765.422 440.273C764.336 446.551 763.008 452.829 761.559 458.987C755.401 486.393 745.622 512.953 732.704 538.065C729.203 545.43 725.34 552.312 721.235 559.193C720.269 560.884 719.182 562.574 718.096 564.264C681.756 574.768 643.605 579.355 605.695 581.408C495.468 587.686 382.222 573.077 282.982 524.785C197.987 483.495 123.738 415.765 82.2062 331.495C83.5342 322.319 85.3452 313.265 87.3976 304.21H87.2769C88.7256 297.207 90.6573 290.446 92.8305 283.565C99.5914 260.264 108.888 237.808 120.599 216.438C123.496 210.885 126.756 205.331 130.136 199.778C134.241 193.137 138.467 186.859 143.055 180.34C198.711 282.84 303.264 357.331 416.269 389.084C532.412 421.56 659.179 407.797 769.768 359.142V359.263Z" fill="#E0FFF9"/>
</svg>
