<svg width="1139" height="1516" viewBox="0 0 1139 1516" fill="none" xmlns="http://www.w3.org/2000/svg">
<g clip-path="url(#clip0_4106_115)">
<path d="M1111.26 527.109H27.4635C27.4635 527.109 -12.5819 557.657 27.4635 591.541H1111.26C1111.26 591.541 1151.3 553.293 1111.26 527.109Z" fill="#FF948E"/>
<g opacity="0.9">
<path opacity="0.9" d="M722.608 1208.35L734.416 1202.19C637.64 1012.49 412.513 913.402 410.202 912.375L405.068 924.953C407.122 925.98 628.142 1023.27 722.608 1208.61V1208.35Z" stroke="#FF948E" stroke-width="19.2526" stroke-miterlimit="10"/>
</g>
<g opacity="0.9">
<path opacity="0.9" d="M418.42 1208.35L406.611 1202.19C503.388 1012.49 728.771 913.402 731.082 912.375L736.216 924.953C734.162 925.98 513.142 1023.27 418.42 1208.61V1208.35Z" stroke="#FF948E" stroke-width="19.2526" stroke-miterlimit="10"/>
</g>
<path d="M492.863 11.0977V527.067H24.383C24.383 527.067 -4.62416 58.8441 492.863 11.0977Z" fill="#FFDFDF"/>
<path d="M1113.83 591.492H25.4183C25.4183 591.492 -5.64253 924.177 384.03 930.851C773.959 937.525 820.678 930.851 820.678 930.851C820.678 930.851 953.906 937.525 1060.44 778.114C1060.44 778.114 1112.55 705.724 1113.57 591.492H1113.83Z" fill="#FFDFDF"/>
</g>
<circle cx="757.268" cy="1348.26" r="166.856" fill="white"/>
<circle cx="757.268" cy="1348.26" r="137.927" stroke="#CC9179" stroke-width="6.51626"/>
<path d="M871.588 1422.87L770.1 1361.04" stroke="#CC9179" stroke-width="10.268"/>
<path d="M693.093 1463.77L770.104 1361.09" stroke="#CC9179" stroke-width="10.268"/>
<path d="M770.103 1361.1L847.113 1245.58" stroke="#CC9179" stroke-width="10.268"/>
<path d="M770.102 1361.1L641.752 1271.25" stroke="#CC9179" stroke-width="10.268"/>
<circle cx="372.217" cy="1348.26" r="166.856" fill="white"/>
<circle cx="372.216" cy="1348.26" r="137.927" stroke="#CC9179" stroke-width="6.51626"/>
<path d="M486.537 1422.87L385.048 1361.04" stroke="#CC9179" stroke-width="10.268"/>
<path d="M308.042 1463.77L385.052 1361.09" stroke="#CC9179" stroke-width="10.268"/>
<path d="M385.052 1361.1L462.062 1245.58" stroke="#CC9179" stroke-width="10.268"/>
<path d="M385.051 1361.1L256.701 1271.25" stroke="#CC9179" stroke-width="10.268"/>
<defs>
<clipPath id="clip0_4106_115">
<rect width="1138.73" height="1220.87" fill="white" transform="translate(0 0.574219)"/>
</clipPath>
</defs>
</svg>
