<svg width="844" height="1081" viewBox="0 0 844 1081" fill="none" xmlns="http://www.w3.org/2000/svg">
<g clip-path="url(#clip0_4094_1413)" filter="url(#filter0_d_4094_1413)">
<path d="M800.42 706.596C779.649 641.417 738.285 585.818 695.489 533.889C669.435 502.284 640.785 466.382 643.829 424.66C646.336 389.922 670.509 361.54 682.507 329.04C685.103 321.967 687.073 314.625 688.595 307.194C695.31 304.777 701.935 301.733 708.381 298.599C717.245 294.212 726.109 289.288 733.271 282.215C740.434 275.142 745.716 265.383 745.627 255.087C745.627 251.326 744.821 247.387 742.493 244.522C737.927 239.06 729.869 239.687 722.975 240.403C713.664 241.388 704.084 241.567 695.041 238.971C692.892 238.344 690.744 237.449 688.684 236.464C682.507 202.173 668.002 169.405 645.799 143.44C621.535 114.969 588.767 95.0931 553.67 85.2446C460.646 59.1908 352.761 112.641 314.441 205.396C276.121 298.152 275.763 394.757 373.801 469.605L432.802 518.937C385.708 513.028 342.106 542.395 299.22 563.703C256.335 585.012 200.019 596.92 165.46 562.897C152.388 550.005 144.509 532.278 132.064 518.848C119.53 505.418 98.3107 497.002 83.8961 508.193C78.3451 512.491 74.7638 519.027 71.5407 525.384C21.0447 625.391 17.2843 749.93 61.6026 853.16C105.921 956.301 197.423 1035.81 302.264 1062.13C381.948 1082.18 465.929 1072.69 545.612 1052.37C635.323 1029.54 720.558 979.311 777.679 903.298C818.237 849.31 821.371 772.134 800.599 706.865L800.42 706.596Z" fill="#FDFEFF"/>
<path d="M640.431 319.624C656.628 320.944 672.385 314.518 687.085 307.124C695.272 302.987 703.458 298.586 710.06 291.983C716.662 285.381 721.504 276.403 721.504 266.896C721.504 263.375 720.799 259.766 718.599 257.125C714.373 252.019 706.891 252.635 700.553 253.252C691.927 254.132 683.124 254.396 674.761 251.931C666.399 249.466 658.564 244.009 654.603 235.91C654.603 235.91 656.892 272.794 648.001 293.392L640.431 319.624Z" fill="#D39A22"/>
<path d="M432.243 510.82C388.67 505.363 348.353 532.475 308.741 552.193C269.041 571.911 217.017 582.914 185.063 551.401C173.003 539.517 165.697 523.056 154.165 510.644C142.546 498.232 123.004 490.398 109.624 500.785C104.518 504.746 101.173 510.82 98.1801 516.718C51.4377 609.146 48.0046 724.374 88.9373 819.795C129.958 915.217 214.552 988.632 311.558 1013.1C385.237 1031.68 462.965 1022.87 536.555 1004.12C619.477 982.998 698.349 936.607 751.165 866.186C788.665 816.274 791.57 744.884 772.38 684.586C753.19 624.287 714.986 572.967 675.286 524.905C651.167 495.68 624.67 462.405 627.487 423.849C629.864 391.719 652.223 365.487 663.314 335.382C671.589 312.847 673.526 288.024 671.061 263.992C667.188 227.109 652.927 191.282 629.336 163.641C606.889 137.321 576.608 118.923 544.126 109.769C458.035 85.7372 358.3 135.12 322.913 220.859C287.438 306.597 287.174 395.945 377.842 465.222L432.419 510.82H432.243Z" fill="#FFDB43"/>
<path d="M577.66 285.995C577.66 293.478 571.938 299.464 564.808 299.464C557.678 299.464 551.956 293.39 551.956 285.995C551.956 278.601 557.678 272.527 564.808 272.527C571.938 272.527 577.66 278.601 577.66 285.995Z" fill="#262751"/>
<path d="M573.442 644.628C514.552 602.991 449.676 656.335 394.483 679.663C374.061 688.025 352.318 693.131 330.311 694.891C297.301 697.532 263.675 692.515 232.865 680.103C223.887 677.286 213.675 669.011 204.609 670.772C186.475 679.046 194.926 708.976 204.256 722.532C215.612 740.049 233.041 753.253 250.559 765.665L245.453 771.827C239.995 765.929 228.728 772.883 225.911 781.51C222.566 789.873 228.024 799.996 235.858 805.982C253.464 819.978 278.287 816.457 297.741 828.781C300.206 830.277 300.206 834.062 297.741 835.559C289.731 840.752 281.984 846.914 277.143 854.485C259.89 884.766 311.826 892.16 331.632 898.41C408.744 916.632 492.985 897.53 554.869 847.97C586.118 823.675 611.91 792.601 630.748 757.743C632.068 754.838 636.998 757.126 635.325 760.119C616.576 795.858 590.608 827.9 558.918 853.076C527.404 878.516 490.081 896.649 450.556 905.716C411.032 914.695 369.571 914.783 329.959 905.804C309.889 900.083 289.555 897.09 272.83 882.741C254.432 863.551 275.911 838.728 293.428 828.869V835.647C274.59 824.291 248.974 827.548 230.665 812.584C220.806 805.189 213.059 791.457 218.165 778.781C222.39 766.193 239.643 755.366 250.911 766.281C252.495 767.778 252.583 770.331 251.087 771.915C249.678 773.411 247.39 773.588 245.805 772.443C228.2 759.767 209.978 746.211 197.566 726.933C185.859 709.24 177.144 673.941 202.584 663.818C215.612 661.353 224.327 669.98 235.418 673.589C284.889 693.747 342.195 693.923 391.754 673.765C447.916 649.557 516.313 597.093 576.171 641.195C578.372 643.219 575.819 646.74 573.266 644.892L573.442 644.628Z" fill="#F7F7F7"/>
</g>
<defs>
<filter id="filter0_d_4094_1413" x="-3.48469" y="0.746094" width="850.926" height="1079.61" filterUnits="userSpaceOnUse" color-interpolation-filters="sRGB">
<feFlood flood-opacity="0" result="BackgroundImageFix"/>
<feColorMatrix in="SourceAlpha" type="matrix" values="0 0 0 0 0 0 0 0 0 0 0 0 0 0 0 0 0 0 127 0" result="hardAlpha"/>
<feOffset dy="3.70979"/>
<feGaussianBlur stdDeviation="1.85489"/>
<feComposite in2="hardAlpha" operator="out"/>
<feColorMatrix type="matrix" values="0 0 0 0 0 0 0 0 0 0 0 0 0 0 0 0 0 0 0.25 0"/>
<feBlend mode="normal" in2="BackgroundImageFix" result="effect1_dropShadow_4094_1413"/>
<feBlend mode="normal" in="SourceGraphic" in2="effect1_dropShadow_4094_1413" result="shape"/>
</filter>
<clipPath id="clip0_4094_1413">
<rect width="843.507" height="1072.19" fill="white" transform="translate(0.225098 0.746094)"/>
</clipPath>
</defs>
</svg>
