<svg width="998" height="1625" viewBox="0 0 998 1625" fill="none" xmlns="http://www.w3.org/2000/svg">
<path fill-rule="evenodd" clip-rule="evenodd" d="M432.626 274.26C432.743 274.706 432.858 275.142 432.971 275.568C430.952 276.567 429.101 277.459 427.435 278.262C423.049 277.097 420.266 277.723 419.844 278.888C420.496 275.167 421.066 269.726 421.796 262.759L421.796 262.759C422.012 260.69 422.243 258.488 422.494 256.156C422.953 252.019 423.465 247.454 424.098 242.506C427.065 252.584 429.289 261.271 431.08 268.265C431.301 269.129 431.515 269.966 431.724 270.778C428.778 270.877 427.279 271.155 427.255 271.567L427.12 272.223C427.095 272.839 428.98 273.43 432.626 274.26ZM419.734 279.496C419.719 279.577 419.704 279.657 419.688 279.736L419.737 279.755C419.731 279.667 419.73 279.581 419.734 279.496ZM426.597 290.268C425.135 290.253 423.545 290.186 421.831 290.056C420.722 291.438 419.457 293.052 418.15 294.97C413.755 301.45 409.272 311.931 405.207 326.443C401.449 339.138 398.214 354.624 394.569 372.072C389.946 394.201 384.664 419.486 376.821 446.233C369.611 470.039 360.988 492.897 348.577 512.131C336.671 531.395 320.275 546.891 303.55 554.355C286.908 562.128 272.04 562.301 262.625 561.178C253.045 559.436 248.268 557.071 248.544 555.008L248.503 554.854C248.464 552.577 252.404 551.454 258.726 549.651C267.062 547.275 279.54 543.718 292.504 534.778C315.665 519.79 333.436 482.218 346.384 437.155C349.881 425.247 353.109 413.457 356.248 401.996L356.248 401.994L356.248 401.994L356.249 401.993C365.009 370.004 373.067 340.576 384.298 318.292C390.933 304.767 398.925 293.814 406.995 287.811C398.884 285.982 389.511 283.019 379.2 278.825C364.936 282.63 345.09 288.848 321.142 299.844C295.756 311.61 266.817 330.376 237.908 357.355C209.181 384.44 180.929 420.238 157.212 464.283C133.602 508.144 113.832 559.972 103.314 617.386C98.4168 645.996 95.5484 676.389 98.7011 706.099C99.5881 713.461 100.909 720.707 102.809 727.798C103.62 730.239 104.386 732.71 105.155 735.191L105.156 735.194L105.156 735.195C106.675 740.096 108.207 745.039 110.122 749.879C115.746 764.503 122.567 778.961 130.507 792.964C140.259 810.3 151.983 826.829 165.42 842.213C190.025 864.419 216.652 882.33 244.633 896.411C319.678 930.539 410.072 943.908 499.235 934.457C568.19 925.645 634.38 903.772 689.928 874.302C722.736 855.537 753.144 832.472 779.92 804.955C796.768 779.799 809.169 752.348 816.703 724.183C824.174 693.022 827.823 661.49 826.068 630.629C826.265 625.049 825.558 619.464 824.857 613.93V613.929V613.929V613.928V613.928V613.927L824.857 613.926C824.595 611.853 824.333 609.787 824.12 607.731C823.715 604.903 823.434 602.041 823.154 599.187L823.153 599.182C822.694 594.503 822.237 589.846 821.237 585.394C820.345 581.772 819.491 578.141 818.642 574.53L818.638 574.515C817.816 571.02 816.998 567.543 816.155 564.111C815.689 562.374 815.296 560.618 814.903 558.862C814.51 557.106 814.117 555.35 813.652 553.614L809.741 543.649C789.614 489.949 753.682 447.308 716.748 414.241C679.487 381.107 640.556 356.796 605.57 337.942C570.294 319.165 538.411 305.529 511.765 296.383C488.376 287.776 469.164 282.552 454.99 279.186C452.189 280.23 449.509 281.138 446.961 281.913C444.592 282.633 442.345 283.243 440.228 283.756C440.161 284.101 440.091 284.425 440.02 284.726C447.265 290.128 455.018 298.626 462.577 309.253C475.421 326.96 487.701 350.545 501.13 376.335L501.131 376.336L501.131 376.337C507.484 388.538 514.094 401.232 521.142 414.031C542.935 453.927 567.419 485.314 591.663 497.874C604.738 505.207 616.649 508.198 624.786 510.241C631.456 511.916 635.591 512.954 635.751 515.225C635.981 517.318 631.561 519.994 622.314 521.974C613.295 523.562 599.128 523.878 582.728 518.33C566.369 512.937 548.704 501.431 533.683 485.571C518.353 469.793 505.173 450.291 493.404 429.251C478.149 401.509 466.817 374.851 457.226 352.292C452.188 340.44 447.63 329.719 443.237 320.566C436.994 307.16 431.466 297.042 426.973 290.788C426.847 290.613 426.721 290.439 426.597 290.268ZM368.705 274.269C354.802 276.8 336.977 280.844 316.565 289.128C289.45 299.651 258.175 317.802 226.794 344.822C195.637 372.094 164.924 408.551 139.047 453.795C113.132 498.894 91.4625 552.317 79.2496 612.666C73.5437 642.889 69.8278 674.75 72.8697 708.677C73.7387 717.13 75.1582 725.901 77.4459 734.439C78.1591 736.77 78.8487 739.108 79.5383 741.445L79.5385 741.446L79.539 741.448L79.5392 741.449L79.5395 741.449L79.5397 741.45L79.5412 741.455C81.2676 747.307 82.9939 753.16 85.0895 758.913C88.3378 767.832 92.0297 776.631 96.116 785.325C55.9374 867.131 75.0055 936.831 144.58 943.066C-6.8495 995.738 94.4411 1099.18 136.805 1097.1C-11.7598 1140.06 72.5905 1252.01 144.29 1260.48C37.1234 1313.22 91.9939 1440.69 203.066 1412.42C127.102 1475.86 257.843 1608.2 349.422 1505.94C366.717 1603.88 522.379 1615.86 536.309 1504.58C568.85 1634.06 722.039 1561.37 696.335 1466.67C820.361 1562.2 895.397 1464.37 831.398 1394.36C965.234 1424.45 964.413 1255.65 886.26 1230.52C1007.77 1197.3 947.455 1085.37 862.372 1093.75C958.1 1011.93 873.572 924.047 818.515 933.165C939.487 874.881 873.019 760.067 840.865 738.884C841.65 736.131 842.39 733.371 843.086 730.608C851.122 696.349 854.469 661.95 852.132 628.919C852.188 622.762 851.389 616.834 850.589 610.906C850.298 608.751 850.007 606.595 849.758 604.429C849.313 601.51 848.974 598.603 848.636 595.708L848.636 595.704C848.042 590.619 847.453 585.566 846.303 580.538C845.227 576.522 844.235 572.523 843.251 568.561C842.286 564.671 841.329 560.817 840.311 557.017C839.961 555.71 839.643 554.393 839.326 553.082C838.696 550.476 838.072 547.892 837.209 545.441L832.737 534.541C809.544 475.768 770.059 431.442 730.539 397.983C690.69 364.456 649.917 340.794 613.127 322.733C576.231 304.856 543.134 292.476 515.351 284.875C496.861 279.354 480.829 276.017 467.728 273.858C482.463 267.065 499.477 257.151 517.45 243.803C544.635 223.428 574.182 195.792 600.977 159.116C613.905 140.572 626.758 119.895 634.522 94.4494C638.27 81.8455 640.82 67.2428 637.326 51.111C635.832 43.0603 631.657 34.8993 626.338 28.0389C620.443 21.4988 614.065 16.248 606.823 12.7202C592.327 5.00465 575.684 3.49862 561.355 5.68098C546.872 7.90476 533.835 13.055 522.254 19.3067C498.977 32.0062 481.099 49.3905 466.531 67.3792C441.256 98.9479 426.744 132.775 418.577 162.951C406.369 132.795 387.614 99.3963 358.798 68.6941C342.24 51.4232 322.547 34.8262 297.809 22.8957C285.439 16.9304 271.772 12.307 256.49 10.9334C241.322 9.36369 223.9 12.3746 209.384 21.8983C202.709 26.6697 195.437 32.9266 190.962 41.5825C186.096 50.012 184.735 59.1591 184.487 67.5109C184.652 84.2034 189.659 97.9413 195.148 110.39C206.55 135.008 221.947 154.745 237.197 172.698C268.346 207.933 301.289 234.401 330.924 253.471C344.214 261.961 356.944 268.852 368.705 274.269ZM403.246 272.606C403.831 272.314 404.099 272.033 404.036 271.739C403.985 271.316 402.682 271.102 400.155 271.08C384.577 263.26 365.139 251.556 343.934 235.237C317.463 214.988 287.5 187.887 259.713 154.07C246.032 137.023 232.554 118.264 223.59 97.7976C219.227 87.6985 216.018 76.9588 216.1 67.9886C216.26 63.6373 216.853 59.6671 218.747 56.8397C220.094 53.8274 223.081 51.37 226.954 48.5093C241.769 38.2429 265.085 41.7721 284.81 51.0693C304.844 60.2835 322.667 74.2329 337.944 89.1958C368.469 119.627 388.812 154.112 402.674 184.202C405.636 190.823 408.311 197.236 410.735 203.406C408.258 224.789 408.846 242.764 410.07 256.17C410.99 265.395 412.309 272.501 413.641 277.314C412.81 276.968 411.961 276.608 411.094 276.234C408.621 275.15 406 273.942 403.246 272.606ZM431.562 201.606C433.114 195.307 434.934 188.753 437.088 181.985C446.444 151.97 462.281 117.071 488.938 86.066C502.23 70.739 518.256 56.3366 536.845 46.5503C555.124 36.8468 576.904 32.1707 592.308 40.8028C600.81 45.3189 604.971 50.3352 606.774 58.303C608.691 66.0749 607.775 76.2628 604.952 86.1333C599.233 106.225 588.492 125.508 577.212 142.782C553.838 177.381 527.363 205.354 503.572 226.643C479.584 247.818 457.928 262.238 442.308 270.732L442.191 270.795L441.957 270.922C441.705 270.911 441.457 270.901 441.212 270.891C441.246 266.956 441.122 262.371 440.787 257.175C439.867 242.914 437.481 223.841 431.562 201.606Z" fill="white"/>
<path d="M144.253 800.063C99.5395 878.723 114.771 948.286 180.662 954.191C45.2532 1001.29 135.827 1093.78 173.709 1091.93C40.8624 1130.34 116.289 1230.45 180.402 1238.02C84.5739 1285.18 133.639 1399.17 232.96 1373.89C165.033 1430.62 281.942 1548.95 363.832 1457.51C379.297 1545.09 518.49 1555.8 530.947 1456.3C560.044 1572.08 697.026 1507.08 674.042 1422.4C784.946 1507.82 852.044 1420.35 794.816 1357.74C914.492 1384.65 913.758 1233.7 843.874 1211.23C952.529 1181.53 898.594 1081.44 822.513 1088.93C908.113 1015.76 832.528 937.184 783.295 945.338C899.701 889.253 822.017 774.635 797.338 768.801C736.665 924.492 324.912 1069.49 144.253 800.063Z" fill="#71AEE8"/>
<path d="M157.493 825.69C225.007 901.247 184.828 1001.81 186.169 1174.37C187.509 1346.93 292.774 1480.98 583.833 1413.66C874.891 1346.34 836.048 1191.98 788.544 1079.94C741.039 967.906 754.518 844.567 789.098 780.624C645.007 998.824 287.178 995.573 157.53 825.828L157.493 825.69Z" fill="#FFDB43"/>
<path d="M429.766 279.6C429.82 278.696 437.315 278.466 451.948 279.435C466.351 281.206 487.514 284.426 513.929 292.314C540.472 299.575 572.091 311.403 607.34 328.482C642.488 345.736 681.44 368.342 719.51 400.372C757.266 432.337 794.988 474.684 817.146 530.833L821.418 541.246C822.657 544.767 823.381 548.574 824.381 552.306C826.344 559.634 828.068 567.173 830.106 574.777C831.83 582.317 832.235 589.913 833.406 597.601C834.3 605.363 835.748 612.977 835.675 620.998C837.907 652.554 834.71 685.417 827.032 718.147C810.598 783.451 767.875 846.316 706.575 886.301C691.828 897.069 675.334 905.193 658.989 913.87C650.686 917.724 641.959 921.1 633.445 924.715C629.169 926.454 624.93 928.33 620.479 929.967L607.217 934.114C571.874 946.547 534.615 952.382 497.033 957.562C459.171 960.595 421.189 962.622 384.054 957.31C347.004 952.865 310.539 943.965 277.303 928.866C210.222 899.72 155.941 849.215 123.565 790.322C115.47 775.598 108.482 760.579 102.877 745.188C100.074 737.493 97.9626 729.613 95.5746 721.807C93.389 713.65 92.0328 705.271 91.2026 697.195C88.2965 664.783 91.8465 634.344 97.2977 605.471C108.965 547.815 129.667 496.778 154.426 453.693C179.147 410.469 208.489 375.639 238.255 349.585C268.235 323.771 298.113 306.43 324.018 296.377C349.811 285.909 371.28 282.528 385.475 280.206C399.967 278.99 407.462 278.76 407.583 279.764C408.186 282.567 377.21 284.199 328.391 306.615C304.138 317.855 276.491 335.783 248.872 361.558C221.429 387.433 194.437 421.634 171.78 463.712C149.223 505.615 130.336 555.129 120.288 609.979C115.609 637.312 112.869 666.348 115.881 694.732C116.728 701.766 117.99 708.688 119.806 715.462C122.11 722.402 124.036 729.591 126.792 736.558C132.165 750.528 138.681 764.341 146.267 777.719C176.544 831.544 226.717 877.223 288.336 903.683C349.901 931.047 422.006 936.917 493.855 929.667C529.705 924.655 565.268 919.127 598.472 907.562L611.08 903.739L623.115 898.885C631.114 895.556 639.187 892.504 646.973 888.936C662.148 880.869 677.509 873.493 691.022 863.649C747.624 827.145 785.985 771.228 801.827 712.009C808.965 682.239 812.451 652.115 810.774 622.632C811.033 615.302 809.659 607.965 808.913 600.756C807.89 593.621 807.697 586.264 806.159 579.416C804.482 572.604 802.943 565.756 801.303 559.083C800.414 555.765 799.802 552.373 798.912 549.055L795.176 539.535C775.947 488.232 741.62 447.495 706.335 415.904C670.737 384.25 633.544 361.024 600.12 343.012C566.419 325.073 535.96 312.046 510.503 303.308C459.708 284.616 429.539 282.624 429.638 280.227L429.766 279.6Z" fill="#FFDB43"/>
<path d="M422.497 280.667C422.079 278.556 430.816 275.77 444.784 268.175C458.752 260.58 478.117 247.686 499.566 228.75C520.841 209.714 544.515 184.7 565.416 153.762C575.502 138.316 585.107 121.073 590.221 103.107C592.746 94.2805 593.564 85.1705 591.85 78.2209C590.238 71.096 586.517 66.6105 578.915 62.5722C565.141 54.8533 545.665 59.0347 529.319 67.7116C512.697 76.4625 498.367 89.3411 486.481 103.047C462.644 130.771 448.483 161.978 440.116 188.817C431.51 215.869 428.846 239.106 427.067 255.141C425.325 271.314 424.682 280.526 422.497 280.667C420.764 280.835 417.628 271.895 415.957 255.154C414.425 238.376 414.008 213.594 420.657 183.659C427.204 153.9 440.466 118.784 466.445 86.3368C479.471 70.2513 495.458 54.7062 516.272 43.3503C526.628 37.76 538.286 33.1547 551.237 31.1662C564.05 29.2147 578.932 30.5614 591.894 37.4606C598.37 40.6152 604.073 45.3104 609.345 51.1586C614.1 57.2933 617.834 64.5908 619.17 71.7898C622.294 86.2148 620.014 99.2726 616.662 110.543C609.72 133.296 598.226 151.786 586.666 168.368C562.707 201.163 536.285 225.876 511.976 244.096C487.63 262.177 465.249 273.212 448.945 278.173C432.503 283.172 422.628 282.261 422.46 280.528L422.497 280.667Z" fill="#FFDB43"/>
<path d="M429.771 279.615C429.801 281.385 419.698 283.499 401.928 279.667C384.433 275.76 360.312 265.924 333.674 248.909C307.175 231.856 277.717 208.188 249.864 176.681C236.227 160.627 222.46 142.979 212.264 120.965C207.355 109.833 202.878 97.549 202.731 82.6225C202.952 75.1543 204.169 66.975 208.521 59.4373C212.522 51.6972 219.024 46.1023 224.994 41.8356C237.974 33.3195 253.552 30.6272 267.116 32.0308C280.781 33.2591 293.002 37.3933 304.063 42.7275C326.184 53.3958 343.793 68.2369 358.6 83.6806C388.048 115.057 405.746 149.582 416.384 179.33C427.197 209.18 430.787 234.742 431.914 252.221C433.041 269.7 431.504 279.447 429.771 279.615C424.885 280.183 422.22 241.482 397.834 186.968C385.438 160.061 367.247 129.225 339.952 102.013C326.291 88.6333 310.354 76.1597 292.439 67.9203C274.801 59.6069 253.952 56.451 240.705 65.6312C237.241 68.1892 234.57 70.3867 233.366 73.0803C231.672 75.6085 231.142 79.1587 230.999 83.0496C230.926 91.0708 233.795 100.674 237.697 109.705C245.712 128.006 257.764 144.78 269.998 160.024C294.845 190.263 321.638 214.497 345.308 232.604C369.016 250.849 390.253 262.643 405.363 269.263C420.611 275.846 429.805 277.531 429.771 279.615Z" fill="#FFDB43"/>
<path d="M271.483 522.238C271.404 517.518 290.443 518.343 310.83 504.286C331.539 490.884 347.431 457.287 359.009 416.992C370.863 376.623 379.271 337.771 392.911 310.704C399.524 297.226 407.643 286.604 415.686 281.782C423.867 276.923 429.474 277.939 429.882 279.46C430.437 281.534 427.011 284.23 423.182 289.849C419.252 295.644 415.244 305.016 411.608 317.993C403.987 343.743 398.769 382.334 386.226 425.11C379.779 446.396 372.068 466.836 360.97 484.035C350.323 501.261 335.662 515.117 320.706 521.792C305.825 528.743 292.53 528.897 284.112 527.893C275.545 526.336 271.273 524.22 271.52 522.376L271.483 522.238Z" fill="#FFDB43"/>
<path d="M617.762 486.803C617.967 488.675 614.014 491.067 605.746 492.838C597.681 494.258 585.013 494.541 570.348 489.58C555.72 484.757 539.924 474.468 526.492 460.286C512.784 446.178 500.999 428.739 490.475 409.925C469.667 372.085 457.021 336.503 445.615 312.739C440.032 300.751 435.089 291.703 431.072 286.112C427.055 280.52 424.055 277.619 424.679 275.526C425.138 273.921 430.476 273.38 438.327 277.796C446.003 282.111 454.588 290.924 462.909 302.623C479.827 325.947 495.653 360.677 515.278 396.315C534.765 431.99 556.659 460.056 578.338 471.288C599.613 483.22 617.443 482.295 617.762 486.803Z" fill="#FFDB43"/>
<path d="M414.764 1224.93C414.679 1225.18 414.508 1225.61 414.253 1226.21C414.082 1226.72 413.613 1227.19 412.846 1227.61V1252.67C414.125 1252.76 415.105 1252.93 415.787 1253.18C416.469 1253.35 417.108 1253.57 417.705 1253.82C418.387 1253.99 419.154 1254.16 420.006 1254.33C420.944 1254.5 422.18 1254.59 423.714 1254.59C425.248 1254.59 426.612 1253.74 427.805 1252.03C429.084 1250.24 430.149 1247.94 431.002 1245.13C431.854 1242.32 432.493 1239.2 432.92 1235.8C433.346 1232.3 433.559 1228.81 433.559 1225.31C433.559 1222.58 433.388 1219.94 433.047 1217.38C432.792 1214.83 432.366 1212.61 431.769 1210.74C431.172 1208.77 430.405 1207.24 429.467 1206.13C428.615 1204.94 427.55 1204.34 426.271 1204.34C422.947 1204.34 420.56 1205.11 419.111 1206.64C417.662 1208.09 416.639 1209.93 416.043 1212.14C415.531 1214.27 415.275 1216.53 415.275 1218.92C415.275 1221.22 415.105 1223.22 414.764 1224.93ZM420.518 1264.95C417.364 1264.95 414.807 1264.35 412.846 1263.16V1301.77C412.846 1303.98 412.718 1305.86 412.463 1307.39C412.292 1309.01 411.781 1310.38 410.928 1311.49C410.161 1312.59 408.968 1313.4 407.348 1313.92C405.814 1314.43 403.726 1314.68 401.083 1314.68C398.526 1314.68 396.438 1314.09 394.818 1312.89C393.199 1311.7 391.963 1309.95 391.111 1307.65C390.258 1305.35 389.662 1302.49 389.321 1299.08C389.065 1295.67 388.937 1291.71 388.937 1287.19C388.937 1282.93 389.065 1278.46 389.321 1273.77C389.576 1269.08 389.832 1264.43 390.088 1259.83C390.429 1255.14 390.727 1250.63 390.983 1246.28C391.239 1241.93 391.366 1237.97 391.366 1234.39C391.366 1232.17 391.281 1229.96 391.111 1227.74C390.94 1225.44 390.855 1222.67 390.855 1219.43C390.855 1215 391.153 1211.2 391.75 1208.05C392.432 1204.81 393.284 1202.21 394.307 1200.25C395.33 1198.29 396.523 1196.84 397.887 1195.9C399.251 1194.97 400.7 1194.5 402.234 1194.5C404.706 1194.5 406.752 1194.88 408.371 1195.65C410.076 1196.42 411.269 1197.05 411.951 1197.57C413.571 1196.54 415.403 1195.73 417.449 1195.14C419.58 1194.54 422.009 1194.24 424.737 1194.24C429.169 1194.24 433.261 1194.75 437.011 1195.78C440.761 1196.8 444 1198.46 446.728 1200.76C449.456 1202.98 451.587 1205.92 453.121 1209.58C454.655 1213.16 455.422 1217.51 455.422 1222.63C455.422 1225.27 455.209 1228.17 454.783 1231.32C454.442 1234.39 453.803 1237.5 452.865 1240.65C451.928 1243.81 450.606 1246.83 448.902 1249.73C447.197 1252.63 445.066 1255.23 442.509 1257.53C439.952 1259.75 436.841 1261.54 433.175 1262.9C429.595 1264.26 425.376 1264.95 420.518 1264.95ZM460.83 1280.16C460.83 1283.14 461.299 1284.64 462.237 1284.64C462.918 1284.64 463.728 1284 464.666 1282.72C465.689 1281.35 466.754 1279.69 467.862 1277.73C468.97 1275.69 470.121 1273.43 471.314 1270.96C472.508 1268.4 473.573 1265.93 474.511 1263.54C475.534 1261.07 476.386 1258.85 477.068 1256.89C477.75 1254.85 478.219 1253.27 478.474 1252.16C478.474 1251.65 478.517 1251.27 478.602 1251.01C475.278 1253.23 472.295 1255.78 469.652 1258.68C467.436 1261.15 465.39 1264.22 463.515 1267.89C461.725 1271.47 460.83 1275.56 460.83 1280.16ZM524.886 1258.3C525.824 1258.3 526.506 1258.72 526.932 1259.58C527.358 1260.34 527.571 1261.2 527.571 1262.13C527.571 1263.24 527.358 1264.39 526.932 1265.59C526.591 1266.78 526.207 1267.89 525.781 1268.91C525.27 1270.1 524.673 1271.3 523.991 1272.49C522.286 1275.73 520.198 1279.35 517.726 1283.36C515.339 1287.36 512.74 1291.16 509.927 1294.74C507.199 1298.23 504.344 1301.17 501.361 1303.56C498.462 1305.95 495.65 1307.14 492.922 1307.14C488.66 1307.14 485.08 1304.41 482.182 1298.96C479.284 1293.42 477.835 1285.06 477.835 1273.9C476.556 1277.39 475.15 1280.59 473.616 1283.49C472.082 1286.38 470.505 1288.9 468.885 1291.03C467.266 1293.16 465.646 1294.82 464.027 1296.02C462.407 1297.21 460.915 1297.81 459.552 1297.81C458.529 1297.81 457.463 1297.72 456.355 1297.55C455.332 1297.38 454.352 1296.82 453.415 1295.89C452.477 1294.86 451.71 1293.33 451.113 1291.28C450.516 1289.15 450.218 1286.13 450.218 1282.21C450.218 1274.79 451.411 1268.57 453.798 1263.54C456.185 1258.43 458.998 1254.33 462.237 1251.27C465.561 1248.11 468.928 1245.85 472.337 1244.49C475.747 1243.13 478.474 1242.44 480.52 1242.44C481.799 1242.44 482.694 1242.7 483.205 1243.21C483.375 1243.21 483.546 1243.21 483.716 1243.21C483.972 1243.13 484.185 1243.08 484.356 1243.08C485.038 1243.08 486.018 1243.38 487.296 1243.98C488.66 1244.49 489.981 1245.47 491.26 1246.92C492.538 1248.37 493.647 1250.33 494.584 1252.8C495.607 1255.27 496.118 1258.38 496.118 1262.13C496.118 1267.93 496.118 1272.75 496.118 1276.58C496.204 1280.42 496.246 1283.49 496.246 1285.79C496.332 1288.09 496.459 1289.71 496.63 1290.65C496.8 1291.58 497.013 1292.05 497.269 1292.05C498.377 1292.05 499.741 1291.28 501.361 1289.75C502.98 1288.22 504.642 1286.3 506.347 1284C508.137 1281.7 509.927 1279.18 511.717 1276.45C513.507 1273.73 515.126 1271.17 516.575 1268.78L520.923 1261.49C520.923 1261.41 521.05 1261.2 521.306 1260.85C521.562 1260.51 521.86 1260.17 522.201 1259.83C522.542 1259.41 522.926 1259.06 523.352 1258.81C523.863 1258.47 524.375 1258.3 524.886 1258.3ZM520.738 1292.82C521.249 1283.27 521.547 1275.35 521.633 1269.04C521.803 1262.73 522.102 1257.7 522.528 1253.95C523.039 1250.2 523.849 1247.56 524.957 1246.02C526.15 1244.49 528.026 1243.72 530.583 1243.72C532.799 1243.72 534.546 1244.32 535.825 1245.51C537.189 1246.62 538.211 1247.98 538.893 1249.6C539.575 1251.22 540.001 1252.93 540.172 1254.72C540.428 1256.42 540.555 1257.87 540.555 1259.06C540.555 1259.49 540.513 1259.83 540.428 1260.09C540.428 1260.34 540.428 1260.56 540.428 1260.73V1261.37C541.621 1259.24 542.942 1257.36 544.391 1255.74C545.584 1254.29 546.991 1253.01 548.61 1251.9C550.23 1250.71 551.977 1250.11 553.852 1250.11C556.41 1250.11 558.498 1250.54 560.117 1251.39C561.737 1252.16 562.973 1253.31 563.825 1254.85C564.678 1256.29 565.232 1258.13 565.487 1260.34C565.828 1262.47 565.999 1264.95 565.999 1267.76C566.084 1267.59 566.425 1266.91 567.022 1265.71C567.704 1264.52 568.556 1263.11 569.579 1261.49C570.602 1259.79 571.838 1258 573.287 1256.12C574.736 1254.25 576.398 1252.54 578.273 1251.01C580.148 1249.39 582.194 1248.07 584.41 1247.05C586.711 1246.02 589.183 1245.51 591.826 1245.51C593.019 1245.51 593.999 1245.9 594.766 1246.66C595.619 1247.43 596.258 1248.45 596.684 1249.73C597.196 1251.01 597.537 1252.54 597.707 1254.33C597.878 1256.04 597.963 1257.91 597.963 1259.96C597.963 1262.09 597.878 1264.31 597.707 1266.61C597.622 1268.91 597.451 1271.17 597.196 1273.38C597.025 1275.6 596.855 1277.77 596.684 1279.91C596.599 1281.95 596.556 1283.83 596.556 1285.53C596.556 1287.75 596.727 1289.54 597.068 1290.9C597.494 1292.26 598.176 1292.95 599.113 1292.95C600.903 1292.95 602.736 1292.01 604.611 1290.13C606.572 1288.17 608.49 1285.79 610.365 1282.97C612.24 1280.08 614.073 1276.96 615.863 1273.64C617.738 1270.23 619.443 1267.08 620.977 1264.18C621.659 1262.73 622.426 1261.41 623.278 1260.22C623.96 1259.28 624.685 1258.38 625.452 1257.53C626.219 1256.68 626.943 1256.25 627.625 1256.25C628.307 1256.25 628.691 1256.55 628.776 1257.15C628.947 1257.66 629.032 1258.13 629.032 1258.55C629.032 1259.49 628.861 1260.56 628.52 1261.75C628.265 1262.94 627.924 1264.09 627.498 1265.2C627.071 1266.48 626.56 1267.8 625.963 1269.17C622.98 1276.07 619.826 1282.21 616.502 1287.58C615.053 1289.88 613.519 1292.14 611.899 1294.35C610.28 1296.57 608.575 1298.53 606.785 1300.23C605.08 1301.94 603.29 1303.35 601.415 1304.45C599.625 1305.48 597.835 1305.99 596.045 1305.99C592.635 1305.99 589.823 1305.52 587.606 1304.58C585.39 1303.64 583.6 1302.32 582.236 1300.62C580.958 1298.91 580.02 1296.91 579.424 1294.61C578.912 1292.31 578.657 1289.79 578.657 1287.07C578.657 1282.97 579.04 1278.63 579.807 1274.02C580.66 1269.42 581.555 1264.82 582.492 1260.22C580.958 1260.39 579.168 1261.62 577.122 1263.92C575.332 1265.88 573.159 1269.08 570.602 1273.51C568.044 1277.86 565.146 1284.17 561.907 1292.44C561.566 1293.37 561.098 1294.18 560.501 1294.86C559.99 1295.55 559.265 1296.14 558.327 1296.65C557.475 1297.08 556.367 1297.29 555.003 1297.29H554.875C554.62 1297.29 554.108 1297.25 553.341 1297.17C552.659 1297 551.935 1296.61 551.167 1296.02C550.486 1295.33 549.846 1294.35 549.25 1293.07C548.653 1291.8 548.355 1290.01 548.355 1287.7C548.355 1286.34 548.482 1284.76 548.738 1282.97C548.994 1281.18 549.463 1279.18 550.145 1276.96C550.741 1274.92 551.295 1272.87 551.807 1270.83C552.233 1269.12 552.617 1267.38 552.957 1265.59C553.384 1263.71 553.597 1262.09 553.597 1260.73C553.597 1258.77 553.128 1257.79 552.19 1257.79C551.764 1257.79 550.997 1258.68 549.889 1260.47C548.781 1262.18 547.588 1264.78 546.309 1268.27C545.116 1271.68 543.965 1275.94 542.857 1281.06C541.834 1286.09 541.195 1291.92 540.939 1298.57C540.854 1299.68 540.513 1300.75 539.916 1301.77C539.405 1302.71 538.595 1303.64 537.487 1304.58C536.464 1305.43 534.93 1306.2 532.884 1306.88C532.628 1306.97 532.33 1307.05 531.989 1307.14C531.733 1307.22 531.435 1307.27 531.094 1307.27C530.753 1307.27 530.37 1307.27 529.943 1307.27C529.006 1307.27 527.983 1307.1 526.875 1306.76C525.852 1306.5 524.872 1305.99 523.934 1305.22C522.997 1304.37 522.187 1303.18 521.505 1301.64C520.908 1300.02 520.61 1297.93 520.61 1295.38C520.61 1294.95 520.61 1294.52 520.61 1294.1C520.61 1293.67 520.652 1293.24 520.738 1292.82Z" fill="#FFFCFC"/>
<g opacity="0.9">
<path d="M520.154 1028.75C520.154 1028.75 519.605 1001.84 544.999 1008.54C544.999 1008.54 559.604 1009.67 560.154 1032.66C560.154 1032.66 574.174 1017.51 585.961 1027.06C585.961 1027.06 599.981 1041.67 581.494 1057.34C562.972 1073.04 579.226 1058.47 579.226 1058.47C579.226 1058.47 597.748 1050.64 602.249 1066.89C602.249 1066.89 610.668 1092.7 580.36 1091.56C580.36 1091.56 599.432 1104.45 588.229 1117.92C588.229 1117.92 575.892 1137.58 557.37 1120.74C557.37 1120.74 561.838 1145.41 530.429 1144.31C530.429 1144.31 515.996 1138.71 518.093 1121.29C520.189 1103.9 515.825 1120.74 515.825 1120.74C515.825 1120.74 509.673 1149.36 485.55 1134.21C485.55 1134.21 463.248 1118.5 491.701 1097.75C491.701 1097.75 464.794 1102.8 465.344 1080.36C465.344 1080.36 465.928 1051.77 490.567 1059.61C490.567 1059.61 470.396 1049.5 482.148 1031.53C493.935 1013.59 482.698 1028.71 482.698 1028.71C482.698 1028.71 496.581 1005.72 520.12 1028.71L520.154 1028.75Z" fill="white"/>
<path d="M567.441 1076.44C567.441 1095.03 552.355 1110.08 533.764 1110.08C515.173 1110.08 500.122 1095 500.122 1076.44C500.122 1057.88 515.173 1042.8 533.764 1042.8C552.355 1042.8 567.441 1057.85 567.441 1076.44Z" fill="#FFDB43"/>
</g>
<g opacity="0.9">
<path d="M717.476 1149.08C717.476 1149.08 717.254 1138.2 727.525 1140.91C727.525 1140.91 733.431 1141.37 733.654 1150.67C733.654 1150.67 739.324 1144.54 744.091 1148.4C744.091 1148.4 749.762 1154.31 742.284 1160.65C734.793 1167 741.367 1161.1 741.367 1161.1C741.367 1161.1 748.858 1157.94 750.679 1164.51C750.679 1164.51 754.084 1174.95 741.826 1174.49C741.826 1174.49 749.539 1179.7 745.008 1185.15C745.008 1185.15 740.019 1193.1 732.528 1186.29C732.528 1186.29 734.335 1196.27 721.632 1195.82C721.632 1195.82 715.794 1193.56 716.642 1186.51C717.49 1179.48 715.725 1186.29 715.725 1186.29C715.725 1186.29 713.237 1197.86 703.481 1191.74C703.481 1191.74 694.461 1185.38 705.968 1176.99C705.968 1176.99 695.086 1179.03 695.309 1169.96C695.309 1169.96 695.545 1158.39 705.51 1161.56C705.51 1161.56 697.352 1157.48 702.105 1150.21C706.872 1142.95 702.327 1149.07 702.327 1149.07C702.327 1149.07 707.942 1139.77 717.462 1149.07L717.476 1149.08Z" fill="white"/>
<path d="M736.601 1168.37C736.601 1175.89 730.499 1181.98 722.98 1181.98C715.461 1181.98 709.374 1175.88 709.374 1168.37C709.374 1160.87 715.461 1154.77 722.98 1154.77C730.499 1154.77 736.601 1160.85 736.601 1168.37Z" fill="#FFDB43"/>
</g>
<g opacity="0.9">
<path d="M286.713 1279.51C286.713 1279.51 286.491 1268.63 296.761 1271.34C296.761 1271.34 302.668 1271.8 302.89 1281.1C302.89 1281.1 308.561 1274.97 313.328 1278.83C313.328 1278.83 318.998 1284.74 311.521 1291.08C304.03 1297.43 310.604 1291.53 310.604 1291.53C310.604 1291.53 318.095 1288.37 319.916 1294.94C319.916 1294.94 323.321 1305.38 311.063 1304.92C311.063 1304.92 318.776 1310.13 314.245 1315.58C314.245 1315.58 309.256 1323.53 301.765 1316.72C301.765 1316.72 303.571 1326.7 290.869 1326.25C290.869 1326.25 285.031 1323.99 285.879 1316.94C286.727 1309.91 284.962 1316.72 284.962 1316.72C284.962 1316.72 282.474 1328.29 272.717 1322.17C272.717 1322.17 263.698 1315.81 275.205 1307.42C275.205 1307.42 264.323 1309.46 264.545 1300.39C264.545 1300.39 264.782 1288.82 274.747 1291.99C274.747 1291.99 266.588 1287.91 271.342 1280.64C276.109 1273.38 271.564 1279.5 271.564 1279.5C271.564 1279.5 277.179 1270.2 286.699 1279.5L286.713 1279.51Z" fill="white"/>
<path d="M305.837 1298.8C305.837 1306.32 299.736 1312.41 292.217 1312.41C284.698 1312.41 278.611 1306.31 278.611 1298.8C278.611 1291.3 284.698 1285.2 292.217 1285.2C299.736 1285.2 305.837 1291.28 305.837 1298.8Z" fill="#FFDB43"/>
</g>
<g opacity="0.9">
<path d="M302.512 1083.9C302.512 1083.9 302.2 1068.63 316.61 1072.44C316.61 1072.44 324.898 1073.08 325.21 1086.12C325.21 1086.12 333.165 1077.53 339.853 1082.95C339.853 1082.95 347.809 1091.23 337.319 1100.13C326.808 1109.04 336.032 1100.77 336.032 1100.77C336.032 1100.77 346.542 1096.32 349.096 1105.55C349.096 1105.55 353.873 1120.19 336.675 1119.55C336.675 1119.55 347.497 1126.86 341.14 1134.5C341.14 1134.5 334.14 1145.66 323.63 1136.1C323.63 1136.1 326.165 1150.1 308.343 1149.48C308.343 1149.48 300.153 1146.3 301.342 1136.41C302.532 1126.55 300.055 1136.1 300.055 1136.1C300.055 1136.1 296.565 1152.34 282.877 1143.75C282.877 1143.75 270.222 1134.83 286.367 1123.06C286.367 1123.06 271.099 1125.92 271.411 1113.19C271.411 1113.19 271.742 1096.97 285.723 1101.41C285.723 1101.41 274.277 1095.68 280.946 1085.48C287.634 1075.3 281.258 1083.88 281.258 1083.88C281.258 1083.88 289.136 1070.84 302.493 1083.88L302.512 1083.9Z" fill="white"/>
<path d="M329.344 1110.96C329.344 1121.51 320.784 1130.05 310.235 1130.05C299.686 1130.05 291.145 1121.49 291.145 1110.96C291.145 1100.44 299.686 1091.88 310.235 1091.88C320.784 1091.88 329.344 1100.42 329.344 1110.96Z" fill="#FFDB43"/>
</g>
<g opacity="0.9">
<path d="M704.432 1295.42C704.432 1295.42 704.219 1285.04 714.013 1287.62C714.013 1287.62 719.645 1288.06 719.857 1296.93C719.857 1296.93 725.264 1291.08 729.809 1294.77C729.809 1294.77 735.216 1300.4 728.086 1306.44C720.943 1312.5 727.212 1306.88 727.212 1306.88C727.212 1306.88 734.354 1303.86 736.09 1310.13C736.09 1310.13 739.337 1320.08 727.649 1319.64C727.649 1319.64 735.004 1324.61 730.684 1329.81C730.684 1329.81 725.926 1337.39 718.783 1330.89C718.783 1330.89 720.506 1340.41 708.394 1339.98C708.394 1339.98 702.828 1337.82 703.636 1331.1C704.445 1324.4 702.762 1330.89 702.762 1330.89C702.762 1330.89 700.39 1341.93 691.087 1336.09C691.087 1336.09 682.486 1330.03 693.459 1322.03C693.459 1322.03 683.083 1323.97 683.295 1315.32C683.295 1315.32 683.52 1304.3 693.022 1307.32C693.022 1307.32 685.243 1303.42 689.775 1296.49C694.32 1289.57 689.987 1295.4 689.987 1295.4C689.987 1295.4 695.341 1286.54 704.418 1295.4L704.432 1295.42Z" fill="white"/>
<path d="M722.667 1313.81C722.667 1320.97 716.849 1326.78 709.68 1326.78C702.511 1326.78 696.707 1320.96 696.707 1313.81C696.707 1306.65 702.511 1300.83 709.68 1300.83C716.849 1300.83 722.667 1306.64 722.667 1313.81Z" fill="#FFDB43"/>
</g>
</svg>
