<svg width="1283" height="374" viewBox="0 0 1283 374" fill="none" xmlns="http://www.w3.org/2000/svg">
<path d="M1.24561 187.328C458.13 280.683 864.338 228.386 1282.13 23.2302" stroke="#806151" stroke-width="3.79077" stroke-miterlimit="10"/>
<path d="M235.583 237.674C229.649 245.798 226.637 249.906 220.52 258.031C213.4 267.525 209.839 272.181 202.627 281.584C194.046 292.721 189.573 298.29 180.809 309.427C173.323 318.739 169.581 323.395 162.003 332.615C160.908 333.893 160.452 334.532 159.356 335.81C154.7 341.379 148.219 344.391 141.372 345.03C136.168 345.487 130.782 344.665 126.035 342.474C119.828 339.735 114.533 334.806 111.977 328.05C111.338 326.498 111.155 325.768 110.516 324.216C106.225 312.988 104.126 307.419 100.018 296.19C95.1794 282.953 92.7146 276.289 88.1501 262.961C84.2247 251.732 82.3076 246.163 78.656 234.844C75.4608 225.258 73.9089 220.42 70.8051 210.743C66.1493 196.228 76.0999 182.443 89.8846 179.796C93.0797 179.157 96.5488 179.157 100.018 179.887C146.941 189.199 170.585 193.124 217.781 199.058C221.342 199.514 224.628 200.61 227.367 202.253C239.508 209.1 244.621 225.349 235.583 237.674Z" fill="#D9847F"/>
<g opacity="0.58">
<path d="M104.303 180.72C97.9124 213.584 94.626 230.016 88.1444 262.972C84.219 251.743 82.3019 246.174 78.6503 234.854C83.1235 212.854 85.4057 201.807 89.9702 179.898C93.1653 179.259 96.6344 179.259 100.103 179.989C101.838 180.263 102.659 180.537 104.394 180.811L104.303 180.72Z" fill="#FEEFEC"/>
<path d="M135.052 186.453C125.284 241.501 120.354 269.07 110.586 324.118C106.296 312.889 104.196 307.321 100.088 296.092C108.487 251.177 112.595 228.811 120.993 183.897C126.653 184.992 129.483 185.449 135.052 186.453Z" fill="#FEEFEC"/>
<path d="M165.828 191.681C156.06 252.936 151.222 283.701 141.454 344.956C136.251 345.412 130.864 344.591 126.117 342.4C136.342 281.236 141.454 250.562 151.77 189.307C157.43 190.22 160.26 190.676 165.92 191.589L165.828 191.681Z" fill="#FEEFEC"/>
<path d="M196.693 196.26C190.303 241.539 187.108 264.088 180.809 309.276C173.323 318.588 169.58 323.244 162.003 332.464C170.219 277.142 174.327 249.482 182.543 194.16C188.203 195.073 191.033 195.347 196.602 196.168L196.693 196.26Z" fill="#FEEFEC"/>
<path d="M227.362 202.255C224.624 224.53 223.346 235.667 220.607 257.942C213.486 267.436 209.926 272.092 202.714 281.494C207.096 248.265 209.196 231.742 213.486 198.421C215.221 198.695 216.042 198.786 217.868 198.969C221.429 199.425 224.715 200.521 227.454 202.164L227.362 202.255Z" fill="#FEEFEC"/>
</g>
<path d="M435.499 249.018C430.569 257.782 428.013 262.164 422.901 270.928C416.967 281.061 413.954 286.264 407.838 296.398C400.535 308.448 396.883 314.473 389.397 326.523C383.098 336.656 379.903 341.677 373.422 351.628C372.6 352.997 372.052 353.727 371.231 355.097C367.305 361.213 361.28 364.865 354.616 366.234C349.504 367.33 344.118 367.056 339.097 365.504C332.706 363.495 326.955 359.205 323.578 352.723C322.847 351.263 322.482 350.532 321.752 349.072C316.274 338.482 313.536 333.187 308.15 322.506C301.851 309.817 298.747 303.609 292.63 290.92C287.518 280.148 284.962 274.853 280.032 264.081C275.833 254.952 273.733 250.296 269.625 241.076C263.418 227.2 271.634 212.411 284.962 208.212C287.975 207.207 291.444 206.842 295.004 207.116C342.383 211.042 366.119 212.137 413.407 212.685C416.967 212.776 420.253 213.506 423.266 214.693C436.046 220.171 442.893 235.599 435.407 248.927L435.499 249.018Z" fill="#FFC99E"/>
<g opacity="0.58">
<path d="M299.377 207.459C296.73 240.78 295.451 257.577 292.713 290.989C287.601 280.217 285.044 274.922 280.115 264.15C282.032 241.784 283.036 230.555 285.044 208.281C288.057 207.277 291.526 206.911 295.086 207.185C296.821 207.277 297.642 207.368 299.468 207.55L299.377 207.459Z" fill="#FEEFEC"/>
<path d="M330.332 209.762C326.955 265.54 325.22 293.566 321.842 349.344C316.365 338.755 313.626 333.46 308.24 322.779C311.435 277.225 312.987 254.494 316.182 208.941C321.842 209.306 324.672 209.58 330.424 209.854L330.332 209.762Z" fill="#FEEFEC"/>
<path d="M361.275 211.313C358.627 273.298 357.349 304.337 354.611 366.414C349.498 367.509 344.112 367.235 339.091 365.684C342.287 303.698 343.839 272.751 347.034 210.765C352.694 211.13 355.524 211.221 361.184 211.404L361.275 211.313Z" fill="#FEEFEC"/>
<path d="M392.309 212.426C391.213 258.071 390.574 280.985 389.479 326.629C383.18 336.763 379.984 341.783 373.503 351.734C375.329 295.865 376.242 267.93 378.159 211.97C383.819 212.152 386.649 212.243 392.309 212.426Z" fill="#FEEFEC"/>
<path d="M423.272 214.88C423.09 237.338 422.999 248.566 422.816 271.024C416.882 281.157 413.87 286.36 407.753 296.493C408.21 262.99 408.483 246.284 409.031 212.689C410.766 212.781 411.587 212.689 413.322 212.781C416.882 212.872 420.169 213.602 423.181 214.789L423.272 214.88Z" fill="#FEEFEC"/>
</g>
<path d="M636.437 237.392C632.603 246.704 630.503 251.36 626.578 260.58C621.922 271.444 619.457 276.83 614.528 287.602C608.685 300.382 605.764 306.773 599.739 319.553C594.627 330.325 592.07 335.62 586.776 346.392C586.045 347.853 585.68 348.583 584.95 350.044C581.755 356.526 576.095 360.907 569.705 363.098C564.775 364.742 559.389 365.198 554.277 364.103C547.704 362.825 541.496 359.173 537.388 353.239C536.475 351.961 536.019 351.139 535.106 349.861C528.442 339.911 525.155 334.981 518.674 325.031C511.005 313.163 507.171 307.32 499.777 295.361C493.478 285.228 490.374 280.299 484.257 270.165C479.054 261.493 476.406 257.202 471.294 248.621C463.535 235.567 470.016 219.956 482.705 214.205C485.627 212.927 488.913 212.014 492.473 211.923C539.761 210.279 563.406 208.728 610.42 203.889C613.889 203.524 617.358 203.889 620.462 204.802C633.79 208.819 642.371 223.425 636.437 237.392Z" fill="white"/>
<g opacity="0.58">
<path d="M496.957 211.836C498.143 245.34 498.783 262.046 499.969 295.549C493.67 285.416 490.566 280.486 484.45 270.353C483.811 247.987 483.537 236.758 482.898 214.21C485.819 212.932 489.106 212.019 492.666 211.928C494.401 211.836 495.313 211.836 497.048 211.745L496.957 211.836Z" fill="#D9847F"/>
<path d="M527.793 210.361C530.805 266.139 532.357 294.165 535.37 349.943C528.705 339.992 525.419 335.063 518.937 325.112C516.838 279.559 515.834 256.645 513.734 211.091C519.394 210.909 522.224 210.635 527.884 210.452L527.793 210.361Z" fill="#D9847F"/>
<path d="M558.74 208.455C563.213 270.44 565.404 301.296 569.968 363.191C565.039 364.834 559.653 365.29 554.541 364.195C550.615 302.209 548.607 271.353 544.681 209.368C550.341 209.002 553.08 208.82 558.831 208.363L558.74 208.455Z" fill="#D9847F"/>
<path d="M589.501 205.979C593.609 251.533 595.709 274.264 599.725 319.726C594.613 330.498 592.057 335.793 586.762 346.565C582.198 290.879 579.824 262.944 575.351 207.166C580.92 206.71 583.75 206.436 589.41 205.888L589.501 205.979Z" fill="#D9847F"/>
<path d="M620.448 204.796C622.913 227.162 624.008 238.299 626.473 260.665C621.817 271.529 619.352 276.915 614.423 287.687C611.045 254.366 609.402 237.751 606.115 204.339C607.758 204.157 608.763 204.065 610.406 203.883C613.875 203.518 617.344 203.883 620.448 204.796Z" fill="#D9847F"/>
</g>
<path d="M831.805 203.457C828.884 213.134 827.515 217.972 824.593 227.649C821.124 238.969 819.39 244.538 815.738 255.858C811.448 269.277 809.165 275.941 804.692 289.361C800.858 300.681 798.941 306.249 794.833 317.478C794.285 318.939 794.011 319.76 793.464 321.404C791.09 328.159 785.886 333.18 779.861 336.101C775.114 338.292 769.911 339.296 764.707 338.84C757.952 338.292 751.47 335.462 746.723 329.985C745.628 328.707 745.171 328.068 744.076 326.79C736.316 317.752 732.482 313.188 724.905 303.967C715.867 293.104 711.485 287.626 702.722 276.672C695.327 267.451 691.676 262.704 684.372 253.393C678.165 245.359 675.152 241.434 669.127 233.4C659.907 221.259 664.654 205.009 676.521 197.889C679.26 196.245 682.455 195.059 685.924 194.511C732.665 187.573 755.943 183.282 802.136 173.24C805.605 172.51 808.983 172.419 812.178 173.058C825.871 175.431 836.005 189.034 831.805 203.64L831.805 203.457Z" fill="#D9847F"/>
<g opacity="0.58">
<path d="M690.202 193.86C695.223 226.998 697.687 243.521 702.708 276.66C695.314 267.439 691.662 262.692 684.359 253.381C681.164 231.197 679.703 220.06 676.508 197.877C679.247 196.233 682.442 195.047 685.911 194.499C687.646 194.225 688.467 194.134 690.202 193.86Z" fill="#FEEFEC"/>
<path d="M720.711 188.925C730.022 244.064 734.678 271.725 743.989 326.864C736.23 317.826 732.396 313.262 724.819 304.042C717.515 258.944 713.955 236.396 706.743 191.39C712.403 190.477 715.051 190.021 720.711 189.108L720.711 188.925Z" fill="#FEEFEC"/>
<path d="M751.192 183.451C762.603 244.523 768.355 274.923 779.766 335.996C775.019 338.187 769.815 339.191 764.612 338.734C753.657 277.57 748.18 247.079 737.316 186.007C742.885 185.002 745.623 184.455 751.192 183.451Z" fill="#FEEFEC"/>
<path d="M781.6 177.522C790.82 222.345 795.385 244.62 804.696 289.352C800.862 300.672 798.945 306.241 794.837 317.469C783.974 262.604 778.587 235.126 767.724 180.261C773.201 179.165 776.123 178.618 781.6 177.522Z" fill="#FEEFEC"/>
<path d="M812.264 172.992C817.194 194.901 819.659 205.947 824.588 227.857C821.119 239.177 819.385 244.745 815.733 256.065C808.704 223.292 805.144 206.952 798.023 174.27C799.666 173.905 800.579 173.722 802.222 173.357C805.691 172.627 809.069 172.535 812.264 173.174L812.264 172.992Z" fill="#FEEFEC"/>
</g>
<path d="M1023.78 147.11C1022.05 157.06 1021.14 161.99 1019.31 172.032C1017.12 183.717 1015.93 189.468 1013.65 201.062C1010.82 214.847 1009.36 221.785 1006.35 235.569C1003.79 247.254 1002.42 253.006 999.774 264.599C999.409 266.243 999.226 266.973 998.861 268.616C997.126 275.645 992.653 281.214 986.902 284.774C982.52 287.513 977.316 289.065 972.113 289.339C965.357 289.522 958.511 287.422 953.307 282.583C952.12 281.397 951.573 280.849 950.295 279.753C941.531 271.537 937.149 267.521 928.659 259.213C918.526 249.445 913.414 244.516 903.463 234.565C895.064 226.166 890.865 221.967 882.466 213.568C875.346 206.448 871.968 202.705 864.939 195.493C854.44 184.447 857.27 167.741 868.225 159.342C870.781 157.334 873.885 155.873 877.263 154.869C923.09 142.636 945.821 135.79 990.827 120.362C994.205 119.175 997.583 118.718 1000.78 118.992C1014.75 119.814 1026.34 132.138 1023.78 147.11Z" fill="#FFC99E"/>
<g opacity="0.58">
<path d="M881.56 153.883C890.324 186.199 894.614 202.358 903.287 234.765C894.888 226.367 890.689 222.167 882.29 213.769L868.14 159.451C870.696 157.443 873.8 155.982 877.178 154.978C878.913 154.522 879.643 154.339 881.377 153.883H881.56Z" fill="#FEEFEC"/>
<path d="M911.415 145.399C926.934 199.077 934.694 226.008 950.213 279.686C941.45 271.47 937.068 267.453 928.578 259.146C916.254 215.236 910.137 193.235 897.813 149.142C903.29 147.681 906.029 146.768 911.507 145.308L911.415 145.399Z" fill="#FEEFEC"/>
<path d="M941.163 136.613C959.421 195.952 968.641 225.621 986.991 284.868C982.609 287.606 977.405 289.158 972.202 289.432C954.4 230.003 945.454 200.242 927.652 140.812C933.13 139.169 935.777 138.348 941.254 136.705L941.163 136.613Z" fill="#FEEFEC"/>
<path d="M970.743 127.151C984.984 170.605 992.196 192.24 1006.35 235.603C1003.79 247.288 1002.42 253.039 999.773 264.633C982.793 211.32 974.303 184.755 957.232 131.533C962.618 129.798 965.357 128.885 970.743 127.151Z" fill="#FEEFEC"/>
<path d="M1000.78 119.026C1008.17 140.296 1011.91 150.795 1019.31 172.065C1017.12 183.75 1015.93 189.502 1013.65 201.095C1002.88 169.327 997.489 153.533 986.717 121.765C988.36 121.217 989.182 120.943 990.825 120.395C994.203 119.209 997.581 118.752 1000.78 119.026Z" fill="#FEEFEC"/>
</g>
<path d="M1210.93 67.8854C1210.29 78.0185 1210.01 83.0394 1209.19 93.1726C1208.37 104.949 1207.91 110.883 1206.82 122.75C1205.54 136.809 1204.9 143.838 1203.44 157.897C1202.16 169.765 1201.52 175.699 1200.15 187.657C1199.97 189.301 1199.88 190.122 1199.7 191.765C1198.88 198.977 1195.04 205.002 1189.56 209.202C1185.46 212.397 1180.44 214.679 1175.32 215.41C1168.57 216.505 1161.54 215.136 1155.7 210.936C1154.33 209.932 1153.69 209.476 1152.41 208.563C1142.73 201.442 1137.89 197.882 1128.4 190.761C1117.17 182.271 1111.51 177.889 1100.47 169.217C1091.15 161.914 1086.5 158.171 1077.28 150.776C1069.43 144.386 1065.5 141.191 1057.65 134.801C1045.97 125.124 1046.79 108.235 1056.92 98.4674C1059.2 96.1852 1062.12 94.3594 1065.41 93.0813C1109.78 75.5537 1131.69 66.0596 1174.87 45.3368C1178.06 43.7849 1181.44 42.9633 1184.73 42.7807C1198.69 41.9591 1211.75 52.8225 1210.93 68.0679L1210.93 67.8854Z" fill="white"/>
<g opacity="0.58">
<path d="M1069.53 91.3373C1081.85 122.467 1088.06 137.986 1100.48 169.207C1091.16 161.904 1086.51 158.161 1077.29 150.767C1069.16 129.862 1065.06 119.363 1056.93 98.4579C1059.21 96.1757 1062.13 94.3498 1065.42 93.0718C1066.97 92.4327 1067.89 92.0676 1069.44 91.4286L1069.53 91.3373Z" fill="#D9847F"/>
<path d="M1098.38 79.446C1120.02 131.025 1130.79 156.768 1152.43 208.347C1142.75 201.227 1137.91 197.666 1128.42 190.546C1111.16 148.278 1102.49 127.191 1085.24 84.9235C1090.53 82.7325 1093.18 81.7283 1098.38 79.446Z" fill="#D9847F"/>
<path d="M1127.14 67.1316C1152.15 123.914 1164.66 152.305 1189.67 209.087C1185.56 212.282 1180.54 214.565 1175.43 215.295C1150.87 158.239 1138.64 129.756 1113.99 72.7916C1119.19 70.5093 1121.84 69.3226 1127.04 67.0403L1127.14 67.1316Z" fill="#D9847F"/>
<path d="M1155.61 54.3717C1174.78 95.8172 1184.37 116.54 1203.54 157.985C1202.26 169.853 1201.62 175.787 1200.25 187.746C1177.25 136.806 1165.65 111.336 1142.65 60.3968C1147.85 58.1146 1150.41 56.8366 1155.7 54.463L1155.61 54.3717Z" fill="#D9847F"/>
<path d="M1184.74 42.5919C1194.51 62.7669 1199.53 72.9001 1209.3 93.0751C1208.48 104.852 1208.02 110.785 1206.92 122.653C1192.59 92.4361 1185.38 77.1907 1171.05 46.9738C1172.69 46.2435 1173.42 45.8784 1174.97 45.0568C1178.17 43.5048 1181.55 42.6832 1184.83 42.5006L1184.74 42.5919Z" fill="#D9847F"/>
</g>
</svg>
