<svg width="1483" height="1051" viewBox="0 0 1483 1051" fill="none" xmlns="http://www.w3.org/2000/svg">
<path fill-rule="evenodd" clip-rule="evenodd" d="M480.137 125.448C473.788 102.672 455.749 83.5245 433.376 75.815C411.004 68.1056 383.895 72.2878 364.848 86.3462C361.422 43.5664 323.328 7.84105 280.85 1.79444C238.373 -4.25217 194.535 16.5079 167.426 49.7642C161.43 57.1209 157.399 64.8807 153.569 73.5979C127.015 61.6055 96.6808 53.3922 68.8664 62.059C36.7185 72.0863 15.2027 102.219 0.741211 132.653L480.137 125.448ZM1392.01 284.439C1441.35 314.043 1489.41 388.697 1481.68 437.18L1198.16 441.616V693.193L1251.31 800.811L1386.55 820.484L1288.68 915.876L1311.82 1050.61L1190.8 986.965L1069.79 1050.61L1092.93 915.876L995.061 820.484L1130.3 800.811L1189.89 680.155V441.745L780.22 448.154V473.372L837.674 589.693L972.909 609.366L875.037 704.758L898.183 839.496L777.166 776.012L656.149 839.496L679.295 704.758L581.423 609.366L716.658 589.693L771.954 477.74V448.284L244.074 456.542V664.436L301.054 779.953L436.288 799.626L338.417 895.018L361.562 1029.76L240.545 966.107L119.529 1029.76L142.674 895.018L44.8023 799.626L180.037 779.953L235.808 666.887V456.672L35.3641 459.808C81.2071 363.438 149.412 268.025 251.321 236.273C339.493 208.83 427.857 209.568 512.036 247.542C524.175 219.939 544.748 187.172 563.756 163.877C649.691 58.5719 788.658 26.3013 923.311 45.4477C997.717 61.3345 1127.15 139.2 1138.02 274.66C1198.39 230.145 1329.8 241.963 1392.01 284.439ZM1440.76 172.574C1452.76 176.709 1462.43 186.979 1465.84 199.196L1208.7 203.061C1216.46 186.736 1228 170.573 1245.24 165.195C1260.16 160.546 1276.43 164.952 1290.67 171.384C1292.73 166.709 1294.89 162.546 1298.11 158.6C1312.65 140.762 1336.16 129.627 1358.94 132.87C1381.73 136.113 1402.16 155.276 1404 178.222C1414.22 170.682 1428.76 168.438 1440.76 172.574Z" fill="white"/>
<path d="M772.417 223.949V548.337" stroke="white" stroke-width="7.1169" stroke-linecap="round" stroke-linejoin="round"/>
<path d="M240.019 696.758L288.694 795.437L397.48 811.262L318.75 887.998L337.368 996.385L240.019 945.183L142.671 996.385L161.289 887.998L82.5591 811.262L191.345 795.437L240.019 696.758Z" fill="#8C7BF9"/>
<path d="M772.628 503.688L821.485 602.602L930.678 618.487L851.653 695.51L870.341 804.303L772.628 753.044L674.914 804.303L693.603 695.51L614.578 618.487L723.771 602.602L772.628 503.688Z" fill="#FF5E9D"/>
<path d="M1190.36 713.918L1239.7 813.806L1349.96 829.848L1270.16 907.628L1289.03 1017.49L1190.36 965.593L1091.68 1017.49L1110.56 907.628L1030.75 829.848L1141.02 813.806L1190.36 713.918Z" fill="#FFDB43"/>
<path d="M1449.63 426.029C1431.7 361.692 1380.74 307.604 1317.54 285.826C1254.35 264.048 1177.77 275.862 1123.96 315.575C1114.29 194.73 1006.68 93.8121 886.687 76.7316C766.696 59.651 642.862 118.294 566.285 212.237C549.346 233.019 537.959 254.939 527.142 279.563C452.129 245.687 366.442 222.486 287.872 246.968C197.06 275.293 136.282 360.411 95.4307 446.383L1449.63 426.029Z" fill="#C8D8F9"/>
<path d="M517.613 181.142C512.147 161.533 496.616 145.047 477.354 138.41C458.092 131.772 434.752 135.373 418.353 147.477C415.403 110.645 382.606 79.8864 346.034 74.6805C309.463 69.4745 271.72 87.3482 248.38 115.981C243.217 122.315 239.747 128.996 236.449 136.501C213.587 126.176 187.47 119.104 163.523 126.566C135.845 135.199 117.32 161.142 104.87 187.345L517.613 181.142Z" fill="#C8D8F9"/>
<path d="M1379.14 244.637C1376.21 234.119 1367.88 225.277 1357.54 221.716C1347.21 218.156 1334.69 220.087 1325.9 226.58C1324.32 206.824 1306.72 190.325 1287.11 187.533C1267.49 184.741 1247.25 194.328 1234.73 209.686C1231.96 213.083 1230.1 216.667 1228.33 220.692C1216.06 215.154 1202.06 211.361 1189.21 215.364C1174.37 219.994 1164.43 233.91 1157.75 247.965L1379.14 244.637Z" fill="#C8D8F9"/>
</svg>
