<svg width="993" height="1475" viewBox="0 0 993 1475" fill="none" xmlns="http://www.w3.org/2000/svg">
<path d="M170.781 1033.46C170.781 1033.46 50.4562 1008.65 13.8608 1077.11C-22.7347 1145.49 31.5361 1200.92 31.5361 1200.92L43.3197 1197.35C43.3197 1197.35 -1.49104 1139.18 28.3828 1084.08C58.2566 1029.06 160.491 1049.48 160.491 1049.48C160.491 1049.48 176.175 1050.22 170.698 1033.38" fill="white"/>
<path d="M34.1059 1166.06H32.2803C14.4524 1166.06 0 1180.51 0 1198.34V1200.17C0 1218 14.4524 1232.45 32.2803 1232.45H34.1059C51.9339 1232.45 66.3863 1218 66.3863 1200.17V1198.34C66.3863 1180.51 51.9339 1166.06 34.1059 1166.06Z" fill="white"/>
<path d="M34.1059 1166.06H32.2803C14.4524 1166.06 0 1180.51 0 1198.34V1200.17C0 1218 14.4524 1232.45 32.2803 1232.45H34.1059C51.9339 1232.45 66.3863 1218 66.3863 1200.17V1198.34C66.3863 1180.51 51.9339 1166.06 34.1059 1166.06Z" stroke="white"/>
<path fill-rule="evenodd" clip-rule="evenodd" d="M676.605 546.693L681.917 596.994C701.785 798.261 668.106 1336.32 624.493 1416.68C580.879 1497.04 491.311 1448.82 408.688 1382.27C360.303 1343.29 319.796 1375.85 273.825 1412.81C241.219 1439.02 205.865 1467.43 163 1474.1C59.7017 1490.18 -78.0837 1138.93 126.252 1028.68C213.827 981.47 272.726 1005.94 321.024 1026C385.418 1052.76 430.969 1071.68 500.518 902.448C622.15 606.201 485.173 332.246 485.173 332.246C423.953 404.127 252.569 381.189 296.909 290.894C341.33 200.598 500.518 229.674 500.518 229.674C569.411 154.724 626.027 176.127 626.027 176.127C626.027 176.127 693.305 46.0946 766.801 61.3593C839.856 76.6126 822.1 197.68 712.184 194.61C728.72 195.284 844.15 201.94 921.598 258.325C922.521 258.659 923.004 258.853 923.004 258.853H923.085C929.213 263.587 934.863 268.46 940.061 273.456C968.114 299.424 988.279 333.919 991.813 379.736C995.156 423.094 986.48 463.041 969.455 496.8C954.609 531.499 925.753 560.154 893.092 579.084C888.998 581.481 884.822 583.713 880.574 585.774C849.761 600.894 816.813 607.372 789.698 602.334C751.405 598.499 712.219 581.079 676.605 546.693Z" fill="white"/>
<g clip-path="url(#clip0_4604_7881)">
<path d="M702.119 567.879C828.813 690.34 1004.74 579.167 992.044 414.451C979.345 249.809 733.087 244.165 733.087 244.165C835.793 248.398 852.725 135.814 785.146 121.704C717.566 107.668 655.705 227.233 655.705 227.233C655.705 227.233 603.646 207.553 540.299 276.469C540.299 276.469 393.926 249.734 353.081 332.761C312.31 415.788 469.897 436.878 526.189 370.784C526.189 370.784 652.14 622.686 540.299 895.084C428.384 1167.41 384.049 909.862 196.162 1011.16C8.27575 1112.53 134.969 1435.5 229.952 1420.72C324.935 1405.94 379.816 1275.02 455.862 1336.28C531.833 1397.48 614.191 1441.81 654.294 1367.92C694.396 1294.03 725.364 799.284 707.095 614.22L702.193 567.805L702.119 567.879Z" fill="#EFB8FE"/>
<path d="M170.837 1043.93C170.837 1043.93 63.1553 1021.72 30.4051 1082.99C-2.34504 1144.18 46.2233 1193.79 46.2233 1193.79L56.7687 1190.6C56.7687 1190.6 16.6664 1138.54 43.4012 1089.23C70.1361 1039.99 161.629 1058.26 161.629 1058.26C161.629 1058.26 175.664 1058.93 170.763 1043.85" fill="#EFB8FE"/>
<path d="M48.5223 1162.59H46.8885C30.9338 1162.59 18 1175.53 18 1191.48V1193.12C18 1209.07 30.9338 1222 46.8885 1222H48.5223C64.4769 1222 77.4108 1209.07 77.4108 1193.12V1191.48C77.4108 1175.53 64.4769 1162.59 48.5223 1162.59Z" fill="#EFB8FE"/>
<path d="M48.5223 1162.59H46.8885C30.9338 1162.59 18 1175.53 18 1191.48V1193.12C18 1209.07 30.9338 1222 46.8885 1222H48.5223C64.4769 1222 77.4108 1209.07 77.4108 1193.12V1191.48C77.4108 1175.53 64.4769 1162.59 48.5223 1162.59Z" stroke="white"/>
<path d="M591.83 356.325C591.83 334.343 609.653 316.52 631.635 316.52C653.617 316.52 671.441 334.343 671.441 356.325C671.441 378.307 653.617 396.13 631.635 396.13C609.653 396.13 591.83 378.307 591.83 356.325Z" fill="#F1FDC4"/>
<path d="M591.83 356.325C591.83 334.343 609.653 316.52 631.635 316.52C653.617 316.52 671.441 334.343 671.441 356.325C671.441 378.307 653.617 396.13 631.635 396.13C609.653 396.13 591.83 378.307 591.83 356.325Z" fill="#E495FA"/>
<path d="M717.413 293.583C717.413 271.601 735.236 253.777 757.218 253.777C779.2 253.777 797.023 271.601 797.023 293.583C797.023 315.565 779.2 333.388 757.218 333.388C735.236 333.388 717.413 315.565 717.413 293.583Z" fill="#E495FA"/>
<path d="M605.494 356.309C605.494 341.827 617.228 330.094 631.709 330.094C646.191 330.094 657.924 341.827 657.924 356.309C657.924 370.79 646.191 382.524 631.709 382.524C617.228 382.524 605.494 370.79 605.494 356.309Z" fill="#F1FDC4"/>
<path d="M731.077 293.567C731.077 279.085 742.81 267.352 757.292 267.352C771.773 267.352 783.507 279.085 783.507 293.567C783.507 308.048 771.773 319.782 757.292 319.782C742.81 319.782 731.077 308.048 731.077 293.567Z" fill="#F1FDC4"/>
<path d="M633.054 365.741C633.054 356.235 640.777 348.512 650.283 348.512C659.789 348.512 667.512 356.235 667.512 365.741C667.512 375.247 659.789 382.97 650.283 382.97C640.777 382.97 633.054 375.247 633.054 365.741Z" fill="#1C2600"/>
<path d="M758.636 302.999C758.636 293.493 766.36 285.77 775.865 285.77C785.371 285.77 793.094 293.493 793.094 302.999C793.094 312.504 785.371 320.228 775.865 320.228C766.36 320.228 758.636 312.504 758.636 302.999Z" fill="#1C2600"/>
<path d="M837.663 493.505C849.841 487.362 861.754 481.002 873.605 474.336" stroke="#1C2600" stroke-width="13" stroke-linecap="round"/>
<path d="M883.19 438.391C882.649 450.292 878.864 459.024 873.605 469.541" stroke="#1C2600" stroke-width="13" stroke-linecap="round"/>
</g>
<defs>
<clipPath id="clip0_4604_7881">
<rect width="974.708" height="1421.25" fill="white" transform="translate(18)"/>
</clipPath>
</defs>
</svg>
