<svg width="1338" height="1520" viewBox="0 0 1338 1520" fill="none" xmlns="http://www.w3.org/2000/svg">
<path fill-rule="evenodd" clip-rule="evenodd" d="M1165.62 655.344C1162.98 620.515 1154.86 582.78 1142.09 546.98C1128.21 506.189 1107.75 468 1081.82 433.422C1070.62 417.781 1059.45 404.098 1049.25 392.825C1037.39 379.515 1026.98 369.367 1019.6 362.514C1012.09 355.793 1007.74 352.235 1007.47 352.499C1007.21 352.762 1010.9 356.979 1017.89 364.228C1018.86 365.279 1019.9 366.398 1020.99 367.583C935.594 291.983 818.573 245.363 689.472 245.363H684.2C425.24 247.735 221.367 438.167 216.095 672.351C211.335 885.992 298.763 980.187 430.515 1020.39C414.386 1054.39 404.018 1092.25 407.634 1128.32C409.581 1147.63 416.901 1164.48 427.915 1178.74C427.846 1179.51 427.778 1180.28 427.711 1181.04L427.702 1181.03L427.702 1181.03L427.701 1181.03C425.105 1178.54 423.651 1177.15 423.318 1177.43H423.447C423.187 1177.56 424.475 1180.03 427.461 1183.95C426.608 1194.09 425.945 1204.32 425.51 1214.58C405.377 1217.03 389.868 1234.1 389.868 1254.91C389.868 1255.85 389.899 1256.78 389.961 1257.71C383.28 1252.88 375.074 1250.04 366.205 1250.04C343.76 1250.04 325.566 1268.24 325.566 1290.68C325.566 1294.45 326.079 1298.1 327.039 1301.56C323.396 1300.5 319.538 1299.93 315.542 1299.93C293.036 1299.93 274.903 1318.06 274.903 1340.57C274.903 1363.07 293.036 1381.2 315.542 1381.2C320.068 1381.2 324.416 1380.47 328.476 1379.1C325.331 1415.61 337.728 1453.21 365.666 1481.15C415.89 1531.37 497.318 1531.37 547.541 1481.15C548.423 1480.26 549.289 1479.37 550.139 1478.47C628.391 1509.6 719.082 1511.48 800.913 1498.09C823.104 1494.48 846.039 1489.26 867.759 1481.4C912.412 1526.03 984.253 1532.06 1036.07 1492.94C1037.74 1491.67 1039.38 1490.37 1040.97 1489.04C1045.04 1486.85 1050.76 1482.89 1056.31 1477.55C1066.34 1468.29 1074.83 1454.92 1078.17 1447.33C1081.78 1440 1087.69 1421.74 1087.69 1405.02C1087.87 1400.29 1087.63 1395.79 1087.16 1391.78C1087.22 1387.55 1087.06 1383.32 1086.69 1379.09C1090.76 1380.46 1095.12 1381.2 1099.66 1381.2C1122.17 1381.2 1140.3 1363.07 1140.3 1340.56C1140.3 1330.89 1136.95 1322.03 1131.35 1315.07C1131.94 1313.51 1130.63 1309.46 1127.43 1305.6C1123.83 1301.1 1117.78 1297.62 1114.44 1296.59C1111.1 1295.44 1103 1294.41 1096.18 1296.59C1093 1297.43 1090.35 1298.83 1088.51 1300.22C1089.25 1297.16 1089.64 1293.96 1089.64 1290.68C1089.64 1268.24 1071.44 1250.04 1049 1250.04C1041.41 1250.04 1034.3 1252.12 1028.22 1255.75C1029.06 1253.72 1029.78 1251.14 1030.08 1248.22C1031.11 1240.89 1028.54 1232.15 1025.96 1228.29C1023.78 1224.17 1015.93 1216.33 1007.19 1213.76C998.443 1210.8 990.727 1212.6 990.855 1214.14C990.855 1214.35 990.979 1214.56 991.208 1214.77C989.129 1214.44 986.996 1214.27 984.823 1214.27C983.021 1214.27 981.246 1214.39 979.507 1214.61C978.289 1205.63 976.898 1196.65 975.346 1187.69C986.21 1177.98 995.651 1167.08 1002.97 1155.24C1004.05 1155.07 1007.54 1152.35 1011.43 1147.08C1015.93 1141.29 1020.43 1132.16 1023.52 1121.62C1026.61 1111.2 1028.28 1099.5 1028.28 1088.69C1028.28 1078.3 1026.49 1069.22 1025.21 1062.7L1025.06 1061.94C1023.52 1055.51 1020.43 1044.97 1014.77 1033.78C1009.24 1022.46 1001.14 1010.63 992.012 1000.99C989.97 998.786 987.896 996.701 985.822 994.733C1002.25 987.144 1019.44 977.438 1036.07 965.437C1070.6 940.661 1101.7 905.738 1122.39 869.496C1143.35 833.255 1153.76 796.75 1159.16 771.579C1164.43 746.408 1169.84 703.973 1165.62 655.344ZM978.603 997.956C978.106 998.17 977.609 998.382 977.114 998.592C994.05 1020.23 1007.84 1044.41 1014.83 1069.91C1014.66 1069.03 1014.48 1068.18 1014.32 1067.36L1014.19 1066.74C1014.03 1065.96 1013.88 1065.22 1013.75 1064.52L1013.7 1064.33L1013.52 1063.67C1011.97 1057.69 1009.54 1048.34 1005 1038.28C1000.37 1027.61 993.683 1016.16 985.71 1006.39C983.389 1003.41 980.995 1000.6 978.603 997.956Z" fill="white"/>
<g filter="url(#filter0_d_4490_1114)">
<path d="M1109.44 675.86C1109.44 933.689 923.774 1005.62 694.695 1005.62C692.039 1005.62 689.268 1005.62 686.613 1005.62C461.113 1004.81 273.485 966.135 279.951 675.976C284.57 470.798 463.191 303.953 690.076 301.875C691.578 301.875 693.078 301.875 694.695 301.875C923.774 301.875 1109.44 469.412 1109.44 676.091V675.86Z" fill="#F6F6F6"/>
<path d="M823.432 659.587C823.432 693.648 851.027 721.128 884.974 721.128C909.798 721.128 931.274 706.465 940.973 685.219L909.105 666.283L945.938 651.389C941.897 621.368 916.149 598.16 884.974 598.16C851.027 598.16 823.432 625.756 823.432 659.702V659.587Z" fill="#DAACF8"/>
<path d="M566.872 659.587C566.872 693.648 539.276 721.128 505.33 721.128C480.505 721.128 459.029 706.465 449.33 685.219L481.198 666.283L444.365 651.389C448.406 621.368 474.155 598.16 505.33 598.16C539.276 598.16 566.872 625.756 566.872 659.702V659.587Z" fill="#DAACF8"/>
<path d="M608.103 743.296C609.604 743.296 610.412 754.958 618.148 764.888C625.538 775.279 639.047 780.706 646.206 781.168C649.785 781.745 655.789 782.092 662.486 780.475C669.183 778.859 676.341 774.933 681.653 769.391C687.08 763.964 690.428 757.267 692.16 752.187C693.892 746.991 694.354 743.296 695.162 743.296C695.739 743.296 696.778 746.991 696.201 752.995C695.624 758.884 692.968 767.197 687.31 774.24C681.884 781.399 673.455 787.057 665.257 789.712C657.059 792.368 649.323 792.252 644.82 791.56C640.317 790.982 633.736 789.135 627.501 785.209C621.266 781.283 615.492 775.51 612.028 768.929C604.639 755.766 606.948 743.065 608.218 743.296H608.103Z" fill="#EFB8FE"/>
<path d="M695.153 743.296C696.654 743.296 697.462 754.958 705.198 764.888C712.587 775.279 726.097 780.706 733.255 781.168C736.835 781.745 742.839 782.092 749.536 780.475C756.233 778.859 763.391 774.933 768.703 769.391C774.129 763.964 777.478 757.267 779.21 752.187C780.942 746.991 781.404 743.296 782.212 743.296C782.789 743.296 783.828 746.991 783.251 752.995C782.674 758.884 780.018 767.197 774.36 774.24C768.934 781.399 760.505 787.057 752.307 789.712C744.109 792.368 736.373 792.252 731.87 791.56C727.367 790.982 720.785 789.135 714.55 785.209C708.315 781.283 702.542 775.51 699.078 768.929C691.689 755.766 693.998 743.065 695.268 743.296H695.153Z" fill="#EFB8FE"/>
<path d="M871.47 979.409C871.354 978.485 886.942 976.638 910.381 969.479C933.82 962.551 964.995 948.695 993.861 926.642C1022.73 904.819 1048.47 874.684 1065.45 843.855C1082.65 813.026 1091.31 782.082 1095.81 760.721C1100.32 739.361 1105.28 703.336 1102.17 661.77C1099.39 620.203 1087.96 573.671 1069.26 533.028C1050.78 492.27 1026.54 457.515 1006.79 433.73C996.978 421.837 988.434 412.485 982.43 406.019C976.31 399.668 973.077 395.973 973.308 395.742C973.539 395.512 977.35 398.629 983.931 404.518C990.397 410.522 999.518 419.412 1009.91 431.074C1030.81 454.167 1056.33 488.806 1076.07 529.911C1096.05 570.9 1108.63 618.471 1111.86 661.077C1115.56 703.683 1110.82 740.862 1106.21 762.915C1101.47 784.969 1092.35 816.952 1073.99 848.704C1055.86 880.457 1028.62 911.054 998.364 932.761C968.113 954.584 935.783 967.747 911.651 973.635C899.643 976.753 889.482 978.254 882.554 979.062C875.511 979.755 871.701 979.986 871.585 979.64L871.47 979.409Z" fill="#EFB8FE"/>
<path d="M948.014 1351.78C921.573 1407.44 858.645 1428.68 801.26 1438.04C718.704 1451.54 626.103 1447.73 550.59 1408.82C540.198 1403.51 530.845 1396.93 522.648 1389.43C403.143 1280.77 501.633 967.061 505.559 963.02C505.559 963.02 640.074 932.538 722.283 926.188C804.378 932.538 893.977 954.707 893.977 954.707C899.635 960.365 902.406 973.527 905.292 980.686C907.948 987.498 910.604 994.195 913.259 1001.01C940.162 1072.02 960.484 1147.53 965.68 1223.27C968.566 1266.11 966.719 1312.07 948.129 1351.55L948.014 1351.78Z" fill="#F6F6F6"/>
<path d="M906.914 971.074L904.72 975L866.04 1044.51C840.176 1052.71 815.236 1066.91 796.531 1086.88C783.369 1100.85 773.67 1118.75 772.284 1137.92C771.707 1145.89 772.746 1153.16 775.055 1159.74C784.408 1186.76 815.236 1202.69 844.795 1203.5C914.073 1205.35 1010.25 1143.92 995.936 1065.29C988.893 1026.38 963.376 990.241 934.51 962.184L906.914 971.19V971.074Z" fill="#F6F6F6"/>
<path d="M957.135 1152.91C957.135 1152.91 953.44 1159.84 944.665 1168.61C936.005 1177.39 922.149 1187.66 905.176 1195.29C888.319 1202.91 868.459 1207.41 850.1 1207.64C831.857 1208.1 815.115 1203.83 804.723 1198.29C799.527 1195.63 792.83 1191.48 786.48 1184.89C780.014 1178.43 774.125 1169.08 771.47 1158.11C766.043 1135.71 774.818 1110.07 789.828 1092.64C804.954 1074.97 823.89 1064.7 837.515 1057.77C851.255 1050.96 860.376 1047.49 860.723 1048.07C861.069 1048.76 852.525 1053.5 839.593 1061.35C826.777 1069.2 808.995 1080.4 795.717 1097.26C782.554 1113.77 775.857 1137.32 780.938 1155.68C785.903 1174.27 800.913 1184.55 809.688 1188.94C818.579 1193.67 833.243 1197.83 850.331 1197.94C867.304 1198.17 886.125 1194.82 902.521 1188.36C935.889 1175.77 956.326 1151.76 957.366 1152.91H957.135Z" fill="#EFB8FE"/>
<path d="M956.201 1077.3C954.816 1076.61 956.432 1070.26 957.472 1062.98C958.511 1055.59 958.742 1047.16 958.742 1042.78C958.857 1038.39 958.973 1028.34 957.472 1019.34C956.201 1010.33 953.43 1002.48 954.816 1001.79C955.971 1001.09 961.282 1008.02 964.63 1017.49C968.21 1026.73 969.48 1038.16 969.249 1043.12C969.249 1048.09 967.748 1057.44 964.63 1064.94C961.628 1072.56 957.472 1077.99 956.201 1077.41V1077.3Z" fill="#EFB8FE"/>
<path d="M965.428 1098.18C963.465 1096.33 966.929 1086.75 967.737 1083.4C968.43 1081.78 970.046 1078.2 971.547 1074.62C973.048 1071.16 974.318 1067.81 975.82 1067.81C977.205 1067.81 978.706 1071.39 978.937 1075.78C979.283 1080.17 978.36 1085.13 977.551 1087.09C976.397 1091.48 967.853 1100.37 965.428 1098.18Z" fill="#EFB8FE"/>
<path d="M982.414 1130.28C981.49 1129.36 991.074 1116.66 993.845 1098.3C995.577 1089.29 996.154 1079.48 995.692 1070.7C995.23 1062.04 993.383 1054.08 992.344 1048.76C990.958 1043.45 988.764 1034.68 984.492 1025.21C980.336 1015.63 974.331 1005.35 967.173 996.576C953.202 978.679 936.229 967.132 937.152 965.747C937.73 964.592 956.435 974.06 972.83 991.726C981.028 1000.39 988.303 1011.01 993.267 1021.17C998.348 1031.21 1001.12 1040.68 1002.5 1046.46C1003.66 1052.34 1005.39 1060.77 1005.39 1070.47C1005.39 1080.17 1003.89 1090.68 1001.12 1100.03C998.348 1109.5 994.307 1117.7 990.265 1122.89C986.34 1128.2 982.876 1130.63 982.414 1130.17V1130.28Z" fill="#EFB8FE"/>
<path d="M631.639 1197.15C588.456 1210.77 526.568 1201.65 486.848 1171.4C465.834 1155.47 450.939 1133.53 448.168 1106.05C443.55 1059.98 464.333 1010.67 489.273 972.688L507.632 990.931L567.211 1050.28C594.46 1051.09 621.709 1058.82 645.264 1072.91C661.775 1082.72 676.554 1096 683.136 1114.13C697.107 1152.12 666.74 1186.06 631.639 1197.15Z" fill="#F6F6F6"/>
<path d="M462.249 1150.14C462.942 1149.56 469.061 1157.06 480.839 1166.19C492.5 1175.42 510.628 1185.58 532.104 1191.01C574.71 1202.9 627.939 1194.36 649.415 1180.39C654.842 1177.15 661.769 1172.19 667.889 1164.57C674.008 1157.06 679.089 1146.67 679.204 1135.01C679.435 1123.35 674.47 1110.88 666.272 1100.37C658.19 1089.86 646.875 1081.67 634.982 1075.09C611.081 1062.38 585.91 1053.96 569.63 1043.33C561.432 1038.25 555.312 1033.06 551.502 1029.25C547.692 1025.32 545.96 1022.78 546.191 1022.55C546.768 1021.97 555.081 1030.98 571.708 1039.87C588.104 1049.22 613.044 1056.15 638.446 1068.62C651.031 1074.97 663.617 1083.4 673.085 1094.95C682.553 1106.26 688.903 1120.58 688.903 1135.01C689.019 1149.44 683.015 1162.03 675.971 1170.92C669.044 1179.93 661.077 1185.7 654.842 1189.39C629.901 1205.1 574.479 1212.26 530.141 1198.05C507.972 1191.47 489.614 1179.81 478.298 1169.3C466.868 1158.8 461.903 1150.37 462.364 1150.14H462.249Z" fill="#EFB8FE"/>
<path d="M573.776 1422.83C618.867 1377.74 618.867 1304.63 573.776 1259.54C528.684 1214.45 455.577 1214.45 410.486 1259.54C365.395 1304.63 365.395 1377.74 410.486 1422.83C455.577 1467.92 528.685 1467.92 573.776 1422.83Z" fill="#F6F6F6"/>
<path d="M401.972 1296.62C401.972 1316.71 385.691 1333.1 365.485 1333.1C345.279 1333.1 328.999 1316.82 328.999 1296.62C328.999 1276.41 345.279 1260.13 365.485 1260.13C385.691 1260.13 401.972 1276.41 401.972 1296.62Z" fill="#F6F6F6"/>
<path d="M410.971 1288.32C431.122 1288.32 447.458 1271.98 447.458 1251.83C447.458 1231.68 431.122 1215.34 410.971 1215.34C390.82 1215.34 374.485 1231.68 374.485 1251.83C374.485 1271.98 390.82 1288.32 410.971 1288.32Z" fill="#F6F6F6"/>
<path d="M505.189 1219.72C505.189 1239.81 488.908 1256.2 468.702 1256.2C448.496 1256.2 432.216 1239.92 432.216 1219.72C432.216 1199.51 448.496 1183.23 468.702 1183.23C488.908 1183.23 505.189 1199.51 505.189 1219.72Z" fill="#F6F6F6"/>
<path d="M550.578 1350.4C550.578 1382.62 524.368 1408.83 492.154 1408.83C459.94 1408.83 433.729 1382.62 433.729 1350.4C433.729 1318.19 459.94 1291.98 492.154 1291.98C524.368 1291.98 550.578 1318.19 550.578 1350.4Z" fill="#DAACF8"/>
<path d="M381.783 1296.6C381.783 1307.11 373.354 1315.54 362.847 1315.54C352.34 1315.54 343.911 1307.11 343.911 1296.6C343.911 1286.1 352.34 1277.67 362.847 1277.67C373.354 1277.67 381.783 1286.1 381.783 1296.6Z" fill="#DAACF8"/>
<path d="M429.929 1251.82C429.929 1262.33 421.5 1270.75 410.993 1270.75C400.486 1270.75 392.057 1262.33 392.057 1251.82C392.057 1241.31 400.486 1232.88 410.993 1232.88C421.5 1232.88 429.929 1241.31 429.929 1251.82Z" fill="#DAACF8"/>
<path d="M487.662 1219.71C487.662 1230.21 479.234 1238.64 468.726 1238.64C458.219 1238.64 449.791 1230.21 449.791 1219.71C449.791 1209.2 458.219 1200.77 468.726 1200.77C479.234 1200.77 487.662 1209.2 487.662 1219.71Z" fill="#DAACF8"/>
<path d="M569.057 1422.58C568.018 1421.42 574.946 1412.99 580.95 1402.03C587.185 1391.06 591.919 1377.55 593.997 1370.27C596.307 1363.11 600.579 1346.37 600.579 1330.9C601.156 1315.43 597.923 1301.92 599.424 1301.46C600.694 1301 606.583 1314.16 607.968 1330.67C609.931 1347.07 606.583 1365.65 604.043 1373.39C601.849 1381.24 595.498 1395.56 587.185 1406.18C579.103 1416.92 569.981 1423.73 569.057 1422.69V1422.58Z" fill="#EFB8FE"/>
<path d="M1012.38 1433.4C1063.27 1394.97 1073.37 1322.56 1034.94 1271.67C996.51 1220.78 924.104 1210.69 873.216 1249.12C822.329 1287.55 812.23 1359.95 850.66 1410.84C889.09 1461.73 961.497 1471.83 1012.38 1433.4Z" fill="#F6F6F6"/>
<path d="M1032.99 1296.6C1032.99 1316.69 1049.27 1333.08 1069.48 1333.08C1089.69 1333.08 1105.97 1316.8 1105.97 1296.6C1105.97 1276.39 1089.69 1260.11 1069.48 1260.11C1049.27 1260.11 1032.99 1276.39 1032.99 1296.6Z" fill="#F6F6F6"/>
<path d="M1023.99 1288.3C1044.14 1288.3 1060.48 1271.96 1060.48 1251.81C1060.48 1231.66 1044.14 1215.32 1023.99 1215.32C1003.84 1215.32 987.508 1231.66 987.508 1251.81C987.508 1271.96 1003.84 1288.3 1023.99 1288.3Z" fill="#F6F6F6"/>
<path d="M929.891 1219.7C929.891 1239.79 946.171 1256.18 966.377 1256.18C986.583 1256.18 1002.86 1239.9 1002.86 1219.7C1002.86 1199.49 986.583 1183.21 966.377 1183.21C946.171 1183.21 929.891 1199.49 929.891 1219.7Z" fill="#F6F6F6"/>
<path d="M942.806 1408.81C975.073 1408.81 1001.23 1382.65 1001.23 1350.38C1001.23 1318.11 975.073 1291.96 942.806 1291.96C910.539 1291.96 884.382 1318.11 884.382 1350.38C884.382 1382.65 910.539 1408.81 942.806 1408.81Z" fill="#DAACF8"/>
<path d="M1053.2 1296.6C1053.2 1307.1 1061.63 1315.53 1072.14 1315.53C1082.65 1315.53 1091.07 1307.1 1091.07 1296.6C1091.07 1286.09 1082.65 1277.66 1072.14 1277.66C1061.63 1277.66 1053.2 1286.09 1053.2 1296.6Z" fill="#DAACF8"/>
<path d="M1005.05 1251.81C1005.05 1262.32 1013.48 1270.75 1023.99 1270.75C1034.5 1270.75 1042.93 1262.32 1042.93 1251.81C1042.93 1241.3 1034.5 1232.88 1023.99 1232.88C1013.48 1232.88 1005.05 1241.3 1005.05 1251.81Z" fill="#DAACF8"/>
<path d="M947.436 1219.7C947.436 1230.2 955.865 1238.63 966.372 1238.63C976.879 1238.63 985.308 1230.2 985.308 1219.7C985.308 1209.19 976.879 1200.76 966.372 1200.76C955.865 1200.76 947.436 1209.19 947.436 1219.7Z" fill="#DAACF8"/>
<path d="M1011.74 1431.6C1010.82 1430.33 1018.21 1423.75 1025.02 1414.74C1031.95 1405.73 1037.84 1394.3 1040.61 1388.18C1043.61 1382.18 1049.38 1367.75 1051.35 1353.89C1053.66 1340.15 1052.39 1327.68 1053.89 1327.34C1055.16 1326.99 1059.31 1339.46 1058.74 1354.47C1058.74 1369.48 1053.42 1385.87 1050.19 1392.46C1047.19 1399.27 1039.57 1411.28 1030.56 1419.59C1021.79 1428.02 1012.55 1432.64 1011.74 1431.48V1431.6Z" fill="#EFB8FE"/>
<path d="M1097.65 1274.22C1096.38 1275.02 1093.37 1272.6 1089.68 1270.87C1086.1 1269.02 1081.83 1267.75 1079.63 1267.06C1077.44 1266.25 1072.36 1264.63 1067.4 1264.4C1062.43 1263.94 1057.81 1265.09 1057 1263.82C1056.31 1262.67 1060.24 1258.74 1066.36 1257.13C1072.48 1255.16 1079.75 1256.09 1082.75 1257.13C1085.75 1258.05 1091.18 1261.17 1094.41 1265.21C1097.76 1269.25 1098.8 1273.52 1097.53 1274.22H1097.65Z" fill="#EFB8FE"/>
<path d="M1001.93 1224.55C1000.54 1224.09 1000.89 1219.12 999.621 1213.93C998.582 1208.73 995.926 1203.54 994.31 1201.11C992.924 1198.57 988.998 1192.91 983.341 1189.45C977.914 1185.76 971.794 1184.48 971.794 1183.1C971.679 1181.71 978.607 1180.1 986.458 1182.75C994.31 1185.06 1001.35 1192.11 1003.32 1195.8C1005.63 1199.26 1007.93 1207.12 1007.01 1213.7C1006.32 1220.39 1003.2 1225.13 1001.93 1224.55Z" fill="#EFB8FE"/>
<path d="M865.904 1422.54C864.98 1423.58 855.859 1416.77 847.776 1406.03C839.463 1395.41 833.112 1381.09 830.919 1373.24C828.378 1365.51 825.03 1346.92 826.993 1330.52C828.379 1314.01 834.267 1300.85 835.537 1301.31C837.038 1301.77 833.805 1315.28 834.383 1330.75C834.383 1346.22 838.655 1363.08 840.964 1370.12C843.042 1377.28 847.776 1390.91 854.011 1401.88C860.015 1412.96 867.059 1421.39 865.904 1422.43V1422.54Z" fill="#EFB8FE"/>
</g>
<path d="M933.849 322.905C922.51 329.622 903.896 339.891 899.872 353.777C900.433 363.723 904.134 368.227 908.189 377.812C912.2 387.292 922.895 390.442 926.377 401.203C928.456 407.631 935.036 411.559 937.098 418.259C938.33 422.262 938.41 424.442 941.971 427.356C958.087 440.542 975.635 450.941 992.329 463.256C1001.45 469.987 1010.69 480.583 1017.83 489.409C1027.67 501.566 1030.32 519.164 1037.33 532.944C1046.15 550.297 1055.09 564.018 1067.7 577.778C1069.23 579.445 1077.1 583.162 1079.4 580.865C1079.91 580.349 1078.14 579.941 1077.94 579.24C1077.49 577.693 1077.89 575.94 1077.77 574.367C1077.3 567.702 1071.93 562.602 1071.93 556.011V546.752C1071.93 525.492 1070.2 504.609 1076.15 484.211C1078.93 474.672 1076.11 464.55 1079.07 455.134C1082.26 445.023 1087.38 435.953 1088.82 425.244C1092.83 395.399 1090.44 360.162 1082.16 331.515C1078.74 319.692 1071.29 305.101 1060.23 298.539C1046.03 290.117 1022.85 294.81 1007.6 297.239C981.565 301.386 956.64 309.405 933.849 322.905Z" fill="#F6F6F6"/>
<path d="M899.411 355.719C902.166 340.844 921.987 329.931 933.849 322.905C956.64 309.405 981.565 301.386 1007.6 297.239C1022.85 294.81 1046.03 290.117 1060.23 298.539C1071.29 305.101 1078.74 319.692 1082.16 331.515C1090.44 360.162 1092.83 395.399 1088.82 425.244C1087.38 435.953 1082.26 445.023 1079.07 455.134C1076.11 464.55 1078.93 474.672 1076.15 484.211C1070.2 504.609 1071.93 525.492 1071.93 546.752C1071.93 549.838 1071.93 552.924 1071.93 556.011C1071.93 562.602 1077.3 567.702 1077.77 574.367C1077.89 575.94 1077.49 577.693 1077.94 579.24C1078.14 579.941 1079.91 580.349 1079.4 580.865C1077.1 583.162 1069.23 579.445 1067.7 577.778C1055.09 564.018 1046.15 550.297 1037.33 532.944C1030.32 519.164 1027.67 501.566 1017.83 489.409C1010.69 480.583 1001.45 469.987 992.329 463.256C975.635 450.941 958.087 440.542 941.971 427.356C938.41 424.442 938.33 422.262 937.098 418.259C935.036 411.559 928.456 407.631 926.377 401.203C922.895 390.442 912.2 387.292 908.189 377.812C903.785 367.402 899.799 362.985 899.799 351.079" stroke="#EFB8FE" stroke-width="11" stroke-linecap="round"/>
<path d="M434.87 323.178C446.209 329.895 464.823 340.164 468.847 354.05C468.285 363.996 464.584 368.501 460.53 378.085C456.519 387.565 445.823 390.716 442.342 401.476C440.262 407.904 433.683 411.832 431.621 418.533C430.389 422.536 430.308 424.716 426.748 427.629C410.632 440.815 393.083 451.215 376.39 463.529C367.265 470.261 358.032 480.856 350.887 489.683C341.045 501.84 338.4 519.437 331.393 533.217C322.57 550.571 313.63 564.291 301.017 578.052C299.489 579.719 291.618 583.435 289.321 581.138C288.806 580.623 290.583 580.214 290.783 579.514C291.225 577.967 290.833 576.213 290.945 574.64C291.421 567.976 296.793 562.875 296.793 556.284V547.025C296.793 525.766 298.519 504.882 292.57 484.484C289.787 474.946 292.61 464.824 289.646 455.407C286.463 445.296 281.338 436.227 279.899 425.518C275.89 395.673 278.283 360.435 286.559 331.788C289.975 319.965 297.427 305.374 308.489 298.812C322.686 290.39 345.872 295.083 361.121 297.512C387.153 301.659 412.079 309.678 434.87 323.178Z" fill="#F6F6F6"/>
<path d="M469.308 355.992C466.553 341.118 446.731 330.205 434.87 323.178C412.079 309.678 387.153 301.659 361.121 297.512C345.872 295.083 322.686 290.39 308.489 298.812C297.427 305.374 289.975 319.965 286.559 331.788C278.283 360.435 275.89 395.673 279.899 425.518C281.338 436.227 286.463 445.296 289.646 455.407C292.61 464.824 289.787 474.946 292.57 484.484C298.519 504.882 296.793 525.766 296.793 547.025C296.793 550.111 296.793 553.198 296.793 556.284C296.793 562.875 291.421 567.976 290.945 574.64C290.833 576.213 291.225 577.967 290.783 579.514C290.583 580.214 288.806 580.623 289.321 581.138C291.618 583.435 299.489 579.719 301.017 578.052C313.63 564.291 322.57 550.571 331.393 533.217C338.4 519.437 341.045 501.84 350.887 489.683C358.032 480.856 367.265 470.261 376.39 463.529C393.083 451.215 410.632 440.815 426.748 427.629C430.308 424.716 430.389 422.536 431.621 418.533C433.683 411.832 440.262 407.904 442.342 401.476C445.823 390.716 456.519 387.565 460.53 378.085C464.934 367.675 468.92 363.258 468.92 351.353" stroke="#EFB8FE" stroke-width="11" stroke-linecap="round"/>
<path d="M944.938 431.094C943.997 439.163 940.724 455.805 952.436 458.271C960.488 459.966 967.216 452.017 965.556 444.214C963.369 433.939 943.765 427.355 940.721 439.528" stroke="#F2787D" stroke-width="17.8588" stroke-linecap="round"/>
<path d="M947.047 435.309H951.264" stroke="#F2787D" stroke-width="17.8588" stroke-linecap="round"/>
<path d="M956.523 340.945C937.422 327.721 930.339 334.424 925.216 352.253C924.186 355.837 918.231 356.386 916.121 353.311C906.355 339.078 889.519 332.155 873.323 346.091C860.945 356.742 869.444 375.71 871.608 388.691C871.967 390.844 868.484 385.102 866.319 384.832C863.638 384.497 858.364 383.753 856.169 385.832C840.163 400.996 852.632 464.076 877.04 464.457C885.759 464.593 896.622 466 904.916 462.742C910.762 460.445 917.905 449.876 923.929 449.876C926.881 449.876 925.529 461.087 925.788 463.028C926.628 469.331 930.211 476.467 932.792 482.184C942.042 502.664 964.362 505.726 983.684 498.48C999.019 492.73 1000.27 479.556 1000.27 465.029C1000.27 457.059 997.694 448.596 997.694 441.299C997.694 437.525 1021.19 435.507 1025.43 433.579C1037.8 427.955 1030.23 401.263 1026 392.408C1015.98 371.453 1003.72 367.261 981.969 370.679C970.509 372.48 966.001 347.506 956.523 340.945Z" fill="#DAACF8"/>
<ellipse cx="943.415" cy="404.977" rx="12.8135" ry="15.2542" fill="white"/>
<path d="M417.523 340.945C398.422 327.721 391.339 334.424 386.216 352.253C385.186 355.837 379.231 356.386 377.121 353.311C367.355 339.078 350.519 332.155 334.323 346.091C321.945 356.742 330.444 375.71 332.608 388.691C332.967 390.844 329.484 385.102 327.319 384.832C324.638 384.497 319.364 383.753 317.169 385.832C301.163 400.996 313.632 464.076 338.04 464.457C346.759 464.593 357.622 466 365.916 462.742C371.762 460.445 378.905 449.876 384.929 449.876C387.881 449.876 386.529 461.087 386.788 463.028C387.628 469.331 391.211 476.467 393.792 482.184C403.042 502.664 425.362 505.726 444.684 498.48C460.019 492.73 461.267 479.556 461.267 465.029C461.267 457.059 458.694 448.596 458.694 441.299C458.694 437.525 482.186 435.507 486.427 433.579C498.801 427.955 491.234 401.263 486.999 392.408C476.977 371.453 464.723 367.261 442.969 370.679C431.509 372.48 427.001 347.506 417.523 340.945Z" fill="#DAACF8"/>
<ellipse cx="404.415" cy="404.977" rx="12.8135" ry="15.2542" fill="white"/>
<defs>
<filter id="filter0_d_4490_1114" x="264.361" y="292.564" width="864.255" height="1185.71" filterUnits="userSpaceOnUse" color-interpolation-filters="sRGB">
<feFlood flood-opacity="0" result="BackgroundImageFix"/>
<feColorMatrix in="SourceAlpha" type="matrix" values="0 0 0 0 0 0 0 0 0 0 0 0 0 0 0 0 0 0 127 0" result="hardAlpha"/>
<feOffset dy="6.11678"/>
<feGaussianBlur stdDeviation="7.71394"/>
<feComposite in2="hardAlpha" operator="out"/>
<feColorMatrix type="matrix" values="0 0 0 0 0 0 0 0 0 0 0 0 0 0 0 0 0 0 0.25 0"/>
<feBlend mode="normal" in2="BackgroundImageFix" result="effect1_dropShadow_4490_1114"/>
<feBlend mode="normal" in="SourceGraphic" in2="effect1_dropShadow_4490_1114" result="shape"/>
</filter>
</defs>
</svg>
