<svg width="1150" height="1034" viewBox="0 0 1150 1034" fill="none" xmlns="http://www.w3.org/2000/svg">
<path fill-rule="evenodd" clip-rule="evenodd" d="M1061.68 1.013C893.941 -1.05569 761.34 127.336 730.344 160.005C687.414 145.003 641.347 136.841 593.465 136.841H555.727C515.478 136.841 476.511 142.607 439.612 153.353C399.563 112.909 273.312 -0.294404 115.981 0.999278C112.568 1.02589 109.14 1.10633 105.698 1.24253C105.698 1.24253 105.591 1.42752 105.393 1.79677C104.527 3.39132 101.938 8.44779 99.0237 16.8788C97.7913 20.3963 96.4895 24.5031 95.2129 29.1948C94.7916 30.7368 94.375 32.3388 93.9687 33.9979C93.901 34.2725 93.8336 34.5488 93.7663 34.8268L93.7676 34.8273C90.3566 49.19 87.4928 68.0998 87.3073 91.4539C87.293 93.2394 87.2945 95.0508 87.3125 96.8882C87.9196 158.717 107.332 249.912 181.842 368.723C171.737 388.909 163.223 410.014 156.466 431.871C152.5 444.522 149.119 457.428 146.353 470.554C146.317 470.804 146.267 471.069 146.214 471.349C146.136 471.76 146.052 472.202 146 472.675L145.999 472.676C145.381 475.769 144.762 478.862 144.232 481.955C141.227 498.747 139.106 515.716 138.311 533.126C137.957 540.197 137.78 547.267 137.78 554.514C137.78 554.593 137.779 554.67 137.778 554.747C137.776 554.813 137.774 554.879 137.771 554.945C137.768 555.03 137.765 555.116 137.761 555.201L137.761 555.202C137.741 555.653 137.722 556.105 137.78 556.635C142.194 621.353 114.203 648.238 82.3209 658.304C44.8846 670.09 2.14655 658.718 0.156453 658.177L0.0921594 658.112L0.0842138 658.068V658.096L-0.00341797 658.184C-0.00341797 658.184 0.0327313 658.194 0.103861 658.213C18.5018 759.885 67.1001 838.154 134.686 896.022C167.475 930.844 213.963 959.921 270.349 982.281C270.88 982.369 271.233 982.546 271.675 982.811C353.78 1015.25 456.565 1033.1 568.189 1033.1C569.249 1033.1 570.31 1033.08 571.37 1033.05C572.034 1033.04 572.697 1033.03 573.361 1033.02C573.758 1033.01 574.155 1033.01 574.552 1033.01C575.613 1033.01 576.673 1033.03 577.734 1033.05C578.794 1033.08 579.855 1033.1 580.915 1033.1C666.997 1033.1 748.041 1022.41 818.215 1002.7C901.999 979.099 970.316 942.687 1014.33 896.111C1082.03 838.222 1130.55 759.918 1149.02 658.193L1149.01 658.195L1149.02 658.157L1149.01 658.16L1149.02 658.099C1149.02 658.099 1011.63 696.332 1010.71 570.694V570.608C1010.71 566.101 1010.79 561.505 1011.24 556.733V554.612C1011.24 497.471 999.612 442.915 978.612 393.192C1097.8 215.388 1095.79 95.5241 1083.45 38.841L1083.53 38.8095C1078.23 13.9748 1070.72 1.2481 1070.72 1.2481C1067.69 1.12711 1064.68 1.04917 1061.68 1.013Z" fill="white"/>
<path d="M236.673 417.516L269.759 384.675L401.121 254.211L438.537 216.959L462.064 193.513C462.064 193.513 322.777 32.5778 141.092 39.8485C141.092 39.8485 138.069 44.9952 134.638 55.1251C133.168 59.4549 131.534 64.7649 130.063 70.8919C117.646 123.175 113.071 240.65 236.673 417.516Z" fill="#FF8EBA"/>
<path d="M236.673 417.508L269.759 384.667L401.121 254.203C359.703 208.128 256.606 103.888 134.638 55.1172C133.168 59.4469 131.534 64.757 130.063 70.884C117.646 123.168 113.071 240.642 236.673 417.508Z" fill="#FF8EBA"/>
<path d="M712.125 193.513L735.653 216.959L772.66 253.721L778.95 259.93L904.349 384.675L937.435 417.516C1058.26 244.653 1056.63 128.567 1044.86 74.5681C1043.15 66.6439 1041.27 60.1084 1039.47 54.7984C1036.04 44.9135 1033.02 39.8485 1033.02 39.8485C851.331 32.5778 712.125 193.513 712.125 193.513Z" fill="#FF8EBA"/>
<path d="M772.66 253.72L778.95 259.928L904.349 384.674L937.435 417.514C1058.26 244.652 1056.63 128.566 1044.86 74.5666C1043.15 66.6424 1041.27 60.1069 1039.47 54.7969C917.584 103.241 814.569 207.236 772.66 253.72Z" fill="#FF8EBA"/>
<path d="M43.4668 647.01C60.459 741.038 105.39 813.418 167.885 866.927C198.194 899.115 241.164 925.992 293.284 946.66C293.774 946.742 294.101 946.905 294.51 947.15C370.403 977.131 465.412 993.633 568.59 993.633C570.551 993.633 572.511 993.552 574.472 993.552C576.433 993.552 578.393 993.633 580.354 993.633C659.923 993.633 734.835 983.749 799.7 965.531C877.145 943.719 940.294 910.061 980.977 867.009C1043.55 813.5 1088.4 741.12 1105.48 647.091C1105.48 647.091 979.261 682.219 977.627 567.359V566.133C977.627 561.967 977.709 557.719 978.118 553.308V551.347C978.118 338.945 804.356 165.184 591.954 165.184H557.071C371.219 165.184 214.941 298.18 178.832 473.657C178.751 474.229 178.587 474.882 178.505 475.617C177.934 478.477 177.362 481.336 176.872 484.195C174.094 499.717 172.133 515.402 171.398 531.496C171.071 538.031 170.908 544.566 170.908 551.265C170.908 551.919 170.826 552.491 170.908 553.226C171.235 558.127 171.398 562.866 171.398 567.359C169.764 682.219 43.5485 647.091 43.5485 647.091L43.4668 647.01Z" fill="#FF8EBA"/>
<path d="M43.4668 646.975C60.459 741.004 105.39 813.384 167.885 866.893C198.194 899.08 241.164 925.957 293.284 946.625C293.774 946.707 294.101 946.87 294.51 947.115C370.403 977.097 465.412 993.599 568.59 993.599C570.551 993.599 572.511 993.517 574.472 993.517C576.433 993.517 578.393 993.599 580.354 993.599C659.923 993.599 734.835 983.714 799.7 965.496C877.145 943.684 940.294 910.027 980.977 866.975C1043.55 813.466 1088.4 741.085 1105.48 647.057C1105.48 647.057 979.261 682.185 977.627 567.324C871.508 618.627 729.852 649.998 574.472 649.998C419.092 649.998 277.436 618.627 171.316 567.324C169.683 682.185 43.4668 647.057 43.4668 647.057L43.4668 646.975Z" fill="#FF8EBA"/>
<path d="M329.883 567.417C329.883 592.579 350.225 612.92 375.386 612.92C400.548 612.92 420.889 592.579 420.889 567.417C420.889 542.256 400.548 521.914 375.386 521.914C350.225 521.914 329.883 542.256 329.883 567.417Z" fill="#414966"/>
<path d="M368.933 553.625C372.609 562.366 382.576 566.451 391.317 562.775C400.058 559.098 404.143 549.132 400.467 540.391C396.79 531.65 386.824 527.565 378.083 531.241C369.341 534.917 365.257 544.884 368.933 553.625Z" fill="white"/>
<path d="M707.306 562.694C707.306 587.856 727.647 608.198 752.809 608.198C777.97 608.198 798.312 587.856 798.312 562.694C798.312 537.533 777.97 517.191 752.809 517.191C727.647 517.191 707.306 537.533 707.306 562.694Z" fill="#414966"/>
<path d="M727.321 547.246C730.997 555.987 740.963 560.072 749.705 556.396C758.446 552.72 762.53 542.753 758.854 534.012C755.178 525.271 745.212 521.186 736.47 524.862C727.729 528.538 723.645 538.505 727.321 547.246Z" fill="white"/>
<path d="M513.285 645.839C513.285 653.11 532.565 667.651 546.779 677.373C555.684 683.5 567.448 683.5 576.271 677.373C590.485 667.651 609.765 653.11 609.765 645.839C609.765 634.32 588.198 624.926 561.566 624.926C534.934 624.926 513.367 634.239 513.367 645.839H513.285Z" fill="#414966"/>
<path d="M643.748 732.84C615.646 752.038 583.377 757.185 549.883 752.692C530.685 750.159 502.909 745.339 487.796 731.37C479.872 724.017 491.472 711.927 499.396 719.279C510.588 729.654 532.4 733.004 546.778 735.373C577.904 740.601 608.538 736.598 634.925 718.544C643.83 712.417 652.571 726.795 643.748 732.84Z" fill="#414966"/>
</svg>
