<svg width="1774" height="1388" viewBox="0 0 1774 1388" fill="none" xmlns="http://www.w3.org/2000/svg">
<g filter="url(#filter0_d_4106_4)">
<path d="M1068.04 30.5C1068.04 30.5 544.682 182.501 552.093 282.463C565.761 466.741 853.13 670.452 809.655 813.396C766.179 956.504 1033.95 998.663 1286.9 1120.03C1396.09 1172.4 1471.18 1172.4 1547.59 1127.77C1630.1 1079.36 1879.43 746.041 1298.92 697.296C1088.3 679.675 1164.21 31.9821 1068.2 30.5H1068.04Z" fill="#F9EFEF"/>
<mask id="mask0_4106_4" style="mask-type:luminance" maskUnits="userSpaceOnUse" x="539" y="30" width="1133" height="1131">
<path d="M1068.04 30.4883C1068.04 30.4883 513.391 96.0315 540.728 278.005C568.724 464.753 853.129 670.276 809.653 813.384C766.177 956.493 1033.95 998.651 1286.9 1120.02C1396.08 1172.39 1471.18 1172.39 1547.59 1127.76C1630.1 1079.34 1879.42 746.03 1298.92 697.284C1088.29 679.663 1164.21 31.9704 1068.2 30.4883H1068.04Z" fill="white"/>
</mask>
<g mask="url(#mask0_4106_4)">
<path d="M1356.73 987.621C1384.89 1200.06 1499.5 1360.3 1612.97 1345.31C1726.44 1330.32 1795.6 1145.88 1767.61 933.441C1739.45 721.001 1624.83 560.766 1511.36 575.752C1397.9 590.738 1328.73 775.182 1356.73 987.621Z" fill="#8C7BF9"/>
<path d="M729.289 973.008C797.138 1066.05 892.488 1112.16 942.222 1075.93C991.791 1039.7 977.135 934.802 909.286 841.757C841.437 748.712 746.087 702.601 696.517 738.831C646.784 775.061 661.44 879.963 729.454 973.008H729.289Z" fill="#8C7BF9"/>
<path d="M785.117 111.697C565.267 211.823 407.831 338.134 433.192 394.126C458.718 449.953 591.451 437.437 877.174 314.42C1099 218.905 1254.46 87.9829 1229.1 31.9911C1203.74 -24.0006 1004.8 11.5706 785.117 111.532V111.697Z" fill="#8C7BF9"/>
</g>
</g>
<g filter="url(#filter1_d_4106_4)">
<path d="M676.263 16.4961C676.263 16.4961 138.248 103.448 133.308 203.574C124.415 388.018 384.777 625.324 324.174 762.009C263.571 898.695 524.262 973.296 760.415 1124.64C862.353 1190.02 936.954 1199.07 1018.31 1164C1106.08 1126.12 1394.27 825.576 823.982 706.512C617.142 663.365 771.449 29.6706 676.263 16.4961Z" fill="#F9EFEF"/>
<mask id="mask1_4106_4" style="mask-type:luminance" maskUnits="userSpaceOnUse" x="122" y="16" width="1048" height="1169">
<path d="M676.264 16.5099C676.264 16.5099 117.829 13.875 122.605 197.824C127.71 386.549 384.778 625.338 324.175 762.023C263.572 898.709 524.263 973.31 760.416 1124.65C862.354 1190.03 936.955 1199.09 1018.31 1164.01C1106.08 1126.13 1394.28 825.59 823.983 706.526C617.143 663.379 771.45 29.6844 676.264 16.5099Z" fill="white"/>
</mask>
<g mask="url(#mask1_4106_4)">
<path d="M845.887 1001.61C847.863 1216.02 942.225 1388.94 1056.68 1387.95C1171.13 1386.96 1262.37 1212.4 1260.39 997.985C1258.41 783.569 1164.22 610.654 1049.76 611.807C935.309 612.795 844.075 787.522 846.051 1001.77L845.887 1001.61Z" fill="#8C7BF9"/>
<path d="M224.872 910.551C280.864 1011.17 369.792 1068.64 423.643 1038.67C477.329 1008.87 475.517 902.975 419.525 802.355C363.534 701.734 274.441 644.261 220.755 674.233C166.904 704.04 168.715 809.93 224.707 910.551H224.872Z" fill="#8C7BF9"/>
<path d="M385.601 62.6141C155.047 135.074 -16.5513 241.294 1.72838 299.92C20.3374 358.547 153.4 362.17 452.132 275.053C684.004 207.369 854.285 96.3738 835.84 37.7471C817.561 -21.0442 615.661 -9.84582 385.436 62.6141H385.601Z" fill="#8C7BF9"/>
</g>
</g>
<path d="M202.062 396.034C283.294 424.351 454.599 463.995 489.952 396.034C534.144 311.083 595.069 321.38 632.396 348.41C662.258 370.034 696.61 325.956 710.053 301.215" stroke="#8C7BF9" stroke-width="6.86475" stroke-linecap="round"/>
<path d="M710.053 395.893C777.701 424.167 920.358 463.752 949.8 395.893C986.601 311.068 1037.34 321.35 1068.42 348.339C1093.29 369.931 1121.9 325.92 1133.09 301.215" stroke="#8C7BF9" stroke-width="6.86475" stroke-linecap="round"/>
<path d="M1001.03 1028.95C972.052 1051.33 1054.84 1043.31 1073.83 1028.95C1073.83 1005.86 1065.52 943.185 1032.33 950.529C1010.87 955.276 1065.24 979.365 1001.03 1028.95Z" fill="white"/>
<path d="M1503.17 988.015C1469.38 1014.12 1565.92 1004.76 1588.06 988.015C1588.06 961.086 1578.38 888.001 1539.67 896.565C1514.65 902.101 1578.05 930.193 1503.17 988.015Z" fill="white"/>
<defs>
<filter id="filter0_d_4106_4" x="535.75" y="30.4883" width="1140.14" height="1137.85" filterUnits="userSpaceOnUse" color-interpolation-filters="sRGB">
<feFlood flood-opacity="0" result="BackgroundImageFix"/>
<feColorMatrix in="SourceAlpha" type="matrix" values="0 0 0 0 0 0 0 0 0 0 0 0 0 0 0 0 0 0 127 0" result="hardAlpha"/>
<feOffset dy="4"/>
<feGaussianBlur stdDeviation="2"/>
<feComposite in2="hardAlpha" operator="out"/>
<feColorMatrix type="matrix" values="0 0 0 0 0 0 0 0 0 0 0 0 0 0 0 0 0 0 0.25 0"/>
<feBlend mode="normal" in2="BackgroundImageFix" result="effect1_dropShadow_4106_4"/>
<feBlend mode="normal" in="SourceGraphic" in2="effect1_dropShadow_4106_4" result="shape"/>
</filter>
<filter id="filter1_d_4106_4" x="118.574" y="16.4961" width="1054.56" height="1175.71" filterUnits="userSpaceOnUse" color-interpolation-filters="sRGB">
<feFlood flood-opacity="0" result="BackgroundImageFix"/>
<feColorMatrix in="SourceAlpha" type="matrix" values="0 0 0 0 0 0 0 0 0 0 0 0 0 0 0 0 0 0 127 0" result="hardAlpha"/>
<feOffset dy="4"/>
<feGaussianBlur stdDeviation="2"/>
<feComposite in2="hardAlpha" operator="out"/>
<feColorMatrix type="matrix" values="0 0 0 0 0 0 0 0 0 0 0 0 0 0 0 0 0 0 0.25 0"/>
<feBlend mode="normal" in2="BackgroundImageFix" result="effect1_dropShadow_4106_4"/>
<feBlend mode="normal" in="SourceGraphic" in2="effect1_dropShadow_4106_4" result="shape"/>
</filter>
</defs>
</svg>
