<svg width="1163" height="1108" viewBox="0 0 1163 1108" fill="none" xmlns="http://www.w3.org/2000/svg">
<g clip-path="url(#clip0_4094_1306)">
<path opacity="0.49" d="M1035.28 781.17C1035.28 1006.76 852.406 1107.82 626.821 1107.82C401.236 1107.82 218.362 1006.76 218.362 781.17C218.362 555.585 401.236 372.711 626.821 372.711C852.406 372.711 1035.28 555.585 1035.28 781.17Z" fill="#FFC4C0"/>
<path opacity="0.49" d="M1053.36 372.675C1113.82 372.675 1162.84 323.657 1162.84 263.191C1162.84 202.725 1113.82 153.707 1053.36 153.707C992.89 153.707 943.872 202.725 943.872 263.191C943.872 323.657 992.89 372.675 1053.36 372.675Z" fill="#FFC4C0"/>
<path opacity="0.49" d="M109.484 482.097C169.95 482.097 218.968 433.079 218.968 372.613C218.968 312.147 169.95 263.129 109.484 263.129C49.0176 263.129 0 312.147 0 372.613C0 433.079 49.0176 482.097 109.484 482.097Z" fill="#FFC4C0"/>
<path opacity="0.49" d="M697.231 110.402C697.231 170.558 648.505 219.886 587.748 219.886C526.99 219.886 478.264 171.16 478.264 110.402C478.264 49.6443 526.99 0.917969 587.748 0.917969C648.505 0.917969 697.231 49.6443 697.231 110.402Z" fill="#FFC4C0"/>
</g>
<defs>
<clipPath id="clip0_4094_1306">
<rect width="1162.82" height="1106.27" fill="white" transform="translate(0 0.917969)"/>
</clipPath>
</defs>
</svg>
