<svg width="2051" height="1601" viewBox="0 0 2051 1601" fill="none" xmlns="http://www.w3.org/2000/svg">
<rect width="2051" height="1500" fill="white"/>
<path d="M1001.32 436.148C1001.32 436.148 1052.9 395.683 1109.17 336.113C1144.6 298.773 1190.1 255.008 1200.17 205.338C1222.05 98.3555 1150.85 53.8953 1082.77 54.59C1017.47 55.1111 998.537 122.496 998.537 122.496C998.537 122.496 978.565 55.4584 913.09 56.1531C845.01 56.8478 774.499 102.35 798.119 209.159C809.06 258.481 855.431 301.552 891.381 338.197C948.867 396.725 1001.32 436.148 1001.32 436.148Z" fill="#FFDB43"/>
<path d="M1364.95 287.112C1364.95 287.112 1386.43 270.268 1409.85 245.47C1424.6 229.927 1443.54 211.709 1447.73 191.033C1456.84 146.499 1427.2 127.991 1398.86 128.281C1371.68 128.498 1363.8 156.548 1363.8 156.548C1363.8 156.548 1355.48 128.642 1328.23 128.931C1299.89 129.221 1270.54 148.162 1280.37 192.623C1284.92 213.155 1304.23 231.084 1319.19 246.338C1343.12 270.701 1364.95 287.112 1364.95 287.112Z" fill="#FCFCFC"/>
<path d="M619.288 1074.74C619.288 1074.74 640.759 1057.9 664.183 1033.1C678.931 1017.56 697.872 999.338 702.065 978.661C711.174 934.128 681.534 915.62 653.194 915.91C626.011 916.126 618.131 944.177 618.131 944.177C618.131 944.177 609.817 916.271 582.562 916.56C554.223 916.849 524.871 935.791 534.703 980.252C539.258 1000.78 558.56 1018.71 573.525 1033.97C597.455 1058.33 619.288 1074.74 619.288 1074.74Z" fill="#ACD3F8"/>
<path d="M1365.74 793.906C1365.74 793.906 1404.23 763.711 1446.22 719.259C1472.66 691.396 1506.61 658.739 1514.13 621.674C1530.46 541.844 1477.33 508.667 1426.52 509.186C1377.8 509.574 1363.67 559.857 1363.67 559.857C1363.67 559.857 1348.77 509.834 1299.91 510.352C1249.11 510.87 1196.49 544.824 1214.12 624.525C1222.28 661.33 1256.88 693.47 1283.71 720.815C1326.61 764.488 1365.74 793.906 1365.74 793.906Z" fill="#ACD3F8"/>
<path d="M1003.55 1074.74C1003.55 1074.74 1054.7 1034.62 1110.49 975.552C1145.62 938.528 1190.74 895.133 1200.73 845.883C1222.43 739.805 1151.82 695.721 1084.32 696.41C1019.57 696.927 1000.8 763.742 1000.8 763.742C1000.8 763.742 980.996 697.271 916.076 697.96C848.572 698.649 778.658 743.766 802.077 849.671C812.926 898.577 858.904 941.283 894.55 977.618C951.55 1035.65 1003.55 1074.74 1003.55 1074.74Z" fill="#FF9CC3" fill-opacity="0.68"/>
<path d="M1380.73 1274.88C1380.73 1274.88 1415.73 1247.42 1453.91 1207C1477.95 1181.66 1508.82 1151.97 1515.66 1118.26C1530.5 1045.67 1482.19 1015.51 1436 1015.98C1391.69 1016.33 1378.84 1062.05 1378.84 1062.05C1378.84 1062.05 1365.29 1016.57 1320.87 1017.04C1274.67 1017.51 1226.83 1048.38 1242.85 1120.86C1250.28 1154.32 1281.74 1183.55 1306.14 1208.41C1345.14 1248.13 1380.73 1274.88 1380.73 1274.88Z" fill="#F4E2E2"/>
<path d="M593.099 573.903C593.099 573.903 628.098 546.446 666.278 506.026C690.318 480.69 721.192 450.994 728.027 417.292C742.875 344.701 694.56 314.534 648.366 315.005C604.058 315.359 591.213 361.081 591.213 361.081C591.213 361.081 577.662 315.595 533.235 316.066C487.042 316.537 439.198 347.412 455.225 419.884C462.649 453.351 494.112 482.576 518.505 507.44C557.511 547.153 593.099 573.903 593.099 573.903Z" fill="#F4E2E2"/>
<path d="M1027.99 1600.91C1027.99 1600.91 1065.17 1571.74 1105.73 1528.8C1131.27 1501.88 1164.06 1470.34 1171.33 1434.53C1187.1 1357.42 1135.77 1325.37 1086.7 1325.87C1039.63 1326.24 1025.98 1374.82 1025.98 1374.82C1025.98 1374.82 1011.59 1326.49 964.39 1327C915.317 1327.5 864.491 1360.3 881.516 1437.29C889.403 1472.84 922.828 1503.89 948.742 1530.3C990.179 1572.49 1027.99 1600.91 1027.99 1600.91Z" fill="#ACEDFB" fill-opacity="0.63"/>
</svg>
