<svg width="1328" height="743" viewBox="0 0 1328 743" fill="none" xmlns="http://www.w3.org/2000/svg">
<path fill-rule="evenodd" clip-rule="evenodd" d="M609.752 17.6719C604.96 17.6719 600.018 17.9714 594.626 18.4207C576.655 19.9182 558.235 24.5607 539.965 32.1983C527.236 37.4398 513.907 44.6281 500.13 53.314C470.029 72.9321 442.923 97.9415 419.561 127.593C405.184 145.714 393.952 163.535 386.015 180.607C380.774 169.375 374.334 158.593 366.846 148.26C353.818 130.289 338.542 113.965 321.47 99.8883C290.171 73.5311 255.278 55.7101 220.834 48.372C211.099 46.2754 202.264 45.0774 193.728 44.7778C192.211 44.7778 190.732 44.7394 189.273 44.7015C187.851 44.6646 186.446 44.6281 185.042 44.6281C178.752 44.6281 172.911 44.9276 167.67 45.6764C153.743 47.3237 140.564 50.7681 128.284 55.8598L128.284 55.86C125.438 57.058 122.593 58.256 119.898 59.6038C103.724 67.6906 90.2457 77.1253 79.4633 87.758C66.4344 100.637 56.1012 113.666 48.1641 127.294C38.5797 143.767 31.5411 159.342 26.7489 175.216C21.0582 194.235 17.7635 211.757 16.5655 228.979C15.0679 248.597 15.6669 267.616 18.3625 285.886C21.0582 303.857 25.8504 322.277 33.6377 343.842C47.7148 382.629 67.0335 421.716 91.1443 459.754C116.453 499.739 144.458 537.028 174.409 570.723C205.409 605.617 238.505 637.964 272.649 667.017C306.944 696.22 341.987 721.379 376.581 741.895C377.629 742.494 378.527 742.794 379.576 742.794C380.474 742.794 381.672 742.494 382.87 742.045L382.871 742.045C383.919 742.495 384.967 742.944 386.165 742.944C386.914 742.944 387.663 742.794 388.411 742.494C457.449 708.35 519.149 665.969 571.863 616.249C597.921 591.839 623.08 563.984 646.442 533.284C664.413 509.922 679.389 487.459 692.268 464.845C711.586 430.851 727.76 396.257 740.489 361.813C755.914 319.581 765.648 281.543 769.991 245.452C775.083 203.37 772.388 167.129 761.605 134.632C755.615 116.362 747.079 99.439 736.296 84.6131C730.456 76.5263 724.465 69.6375 718.026 63.4974C709.639 55.7101 702.601 49.8696 695.862 45.2271C679.838 34.1451 663.514 26.5075 647.49 22.6138C637.606 20.068 628.921 18.7202 620.085 18.1211C619.008 18.0722 617.932 18.0073 616.85 17.942C614.621 17.8076 612.37 17.6719 610.051 17.6719H609.752ZM1234.47 202.99C1231.77 202.99 1228.93 203.14 1225.78 203.439C1215.45 204.338 1204.82 207.034 1194.33 211.377C1187 214.372 1179.36 218.415 1171.57 223.507C1154.35 234.739 1138.77 249.115 1125.3 266.187C1117.06 276.521 1110.62 286.854 1105.98 296.588C1102.98 290.149 1099.24 283.859 1095.05 278.018C1087.56 267.685 1078.87 258.4 1068.99 250.164C1051.02 235.038 1030.95 224.855 1011.18 220.661C1005.64 219.463 1000.55 218.715 995.607 218.565H990.516C989.802 218.565 989.093 218.571 988.394 218.584C988.4 218.574 988.407 218.563 988.414 218.553C986.997 218.553 985.621 218.636 984.287 218.758C983.062 218.844 981.881 218.963 980.761 219.123L980.626 218.853C972.689 219.901 965.051 221.848 958.013 224.693C957.532 224.912 957.052 225.117 956.575 225.321C955.417 225.817 954.281 226.303 953.221 226.94C943.936 231.582 936.148 236.973 930.008 243.113C922.521 250.451 916.68 257.939 912.038 265.876C909.547 270.118 907.358 274.268 905.459 278.383C903.067 283.526 901.128 288.611 899.613 293.743C896.319 304.675 894.372 314.709 893.773 324.593C892.874 335.824 893.324 346.757 894.821 357.24C896.319 367.573 899.164 378.206 903.657 390.486C911.744 412.799 922.826 435.113 936.603 457.127C951.13 480.04 967.154 501.455 984.376 520.774C1002.2 540.841 1021.22 559.411 1040.83 576.034C1060.45 592.807 1080.67 607.184 1100.59 619.014C1101.19 619.314 1101.78 619.464 1102.38 619.464C1102.51 619.464 1102.63 619.457 1102.75 619.445C1103.25 619.414 1103.77 619.279 1104.38 619.04C1104.96 619.33 1105.55 619.613 1106.13 619.613C1106.31 619.613 1106.49 619.613 1106.67 619.594C1106.99 619.576 1107.3 619.514 1107.62 619.302C1134.13 606.124 1158.84 590.998 1181.3 573.776L1181.29 573.774C1181.24 573.754 1181.19 573.734 1181.14 573.714C1192.25 565.213 1202.85 556.244 1212.9 546.832C1227.88 532.904 1242.26 516.731 1255.73 499.209C1266.07 485.731 1274.6 472.852 1281.94 459.823C1293.02 440.355 1302.31 420.437 1309.65 400.669C1318.48 376.408 1324.02 354.544 1326.57 333.878C1329.42 309.767 1327.92 288.951 1321.78 270.231C1318.33 259.748 1313.39 250.014 1307.25 241.478C1303.81 236.835 1300.36 232.942 1296.77 229.347C1291.98 224.855 1287.93 221.56 1284.04 218.864C1274.75 212.575 1265.47 208.082 1256.18 205.836C1250.49 204.338 1245.55 203.589 1240.46 203.29C1239.6 203.29 1238.7 203.255 1237.76 203.219C1236.76 203.18 1235.71 203.14 1234.62 203.14L1234.47 202.99Z" fill="white"/>
<path d="M567.256 84.6016C563.291 84.6016 559.202 84.8494 554.742 85.2211C539.874 86.46 524.634 90.3009 509.519 96.6197C498.987 100.956 487.96 106.903 476.562 114.089C451.658 130.32 429.233 151.011 409.904 175.543C398.01 190.535 388.718 205.279 382.151 219.403C377.815 210.111 372.487 201.19 366.292 192.641C355.513 177.773 342.875 164.268 328.751 152.622C302.856 130.816 273.988 116.072 245.491 110.001C237.438 108.266 230.128 107.275 223.065 107.027C220.587 107.027 218.233 106.903 215.879 106.903C210.675 106.903 205.843 107.151 201.507 107.771C189.984 109.133 179.081 111.983 168.922 116.196C166.568 117.187 164.214 118.178 161.983 119.293C148.602 125.984 137.451 133.789 128.531 142.586C117.752 153.241 109.203 164.021 102.636 175.295C94.7064 188.924 88.8832 201.81 84.9184 214.943C80.2103 230.678 77.4845 245.174 76.4933 259.422C75.2543 275.653 75.7499 291.388 77.9801 306.504C80.2103 321.372 84.175 336.611 90.6178 354.453C102.264 386.542 118.247 418.88 138.195 450.35C159.134 483.431 182.303 514.282 207.082 542.159C232.729 571.027 260.111 597.789 288.36 621.826C316.733 645.986 345.725 666.801 374.345 683.775C375.213 684.271 375.956 684.518 376.823 684.518C377.567 684.518 378.558 684.271 379.549 683.899C380.417 684.271 381.284 684.642 382.275 684.642C382.894 684.642 383.514 684.518 384.133 684.271C441.251 656.022 492.297 620.958 535.909 579.824C557.468 559.629 578.283 536.584 597.611 511.184C612.479 491.856 624.868 473.271 635.524 454.563C651.507 426.438 664.888 397.817 675.419 369.32C688.181 334.381 696.234 302.911 699.827 273.051C704.04 238.236 701.809 208.252 692.889 181.366C687.933 166.251 680.871 152.25 671.95 139.984C667.118 133.294 662.162 127.594 656.834 122.515C649.896 116.072 644.073 111.24 638.497 107.399C625.24 98.2304 611.735 91.9116 598.478 88.6902C590.301 86.5839 583.115 85.4689 575.805 84.9733C573.079 84.8494 570.353 84.6016 567.503 84.6016L567.256 84.6016Z" fill="#7FEBD0"/>
<path d="M201.631 106.678C190.108 108.041 179.205 111.015 169.046 115.227C166.691 116.218 164.337 117.209 162.107 118.448C148.85 125.139 137.575 132.945 128.655 141.741C117.875 152.397 109.45 163.052 102.76 174.574C94.7064 188.203 89.0071 201.213 85.0423 214.222C80.3342 229.833 77.6084 244.453 76.4933 258.826C75.2543 275.056 75.7499 290.915 77.9801 305.783C80.2103 320.899 84.2989 336.138 90.7417 353.732C102.388 385.822 118.371 418.159 138.319 449.629C159.134 482.71 182.427 513.685 207.206 541.438C232.977 570.306 260.359 597.069 288.484 621.105C316.98 645.265 345.973 666.204 374.593 683.178C375.461 683.798 376.328 684.045 377.195 684.045C378.062 684.045 378.93 683.798 380.045 683.302C380.912 683.921 381.779 684.169 382.647 684.169C383.266 684.169 383.886 684.045 384.505 683.674C422.79 664.841 458.225 642.787 490.686 618.007C484.491 615.777 478.296 613.299 472.225 610.697C436.543 595.458 403.214 575.262 372.859 551.226C342.008 526.818 314.131 498.693 290.094 467.595C266.43 436.992 245.987 403.787 230.251 368.476C222.941 352.121 216.499 335.271 211.171 318.173C206.587 303.181 202.622 287.942 199.525 272.578C196.055 255.604 193.454 238.382 192.091 221.16C190.728 203.691 190.604 186.097 192.586 168.627C194.445 152.644 197.914 136.662 204.357 121.918C206.711 116.466 209.56 111.138 212.782 106.059C208.941 106.059 205.224 106.43 201.755 106.802L201.631 106.678Z" fill="#54C69E"/>
<path d="M1215.32 245.93C1213.09 245.93 1210.73 246.054 1208.13 246.301C1199.58 247.045 1190.78 249.275 1182.11 252.868C1176.04 255.346 1169.72 258.691 1163.28 262.904C1149.03 272.196 1136.15 284.09 1124.99 298.215C1118.18 306.764 1112.85 315.313 1109.01 323.366C1106.53 318.039 1103.44 312.835 1099.97 308.003C1093.77 299.454 1086.59 291.772 1078.41 284.958C1063.54 272.444 1046.94 264.019 1030.58 260.55C1026 259.559 1021.79 258.939 1017.7 258.815C1016.34 258.815 1014.85 258.815 1013.49 258.815C1010.51 258.815 1007.66 258.939 1005.18 259.311C998.618 260.178 992.299 261.789 986.476 264.143C985.113 264.762 983.75 265.258 982.511 266.001C974.829 269.842 968.387 274.302 963.307 279.382C957.112 285.453 952.28 291.648 948.439 298.215C943.855 306.02 940.51 313.454 938.279 321.012C935.554 330.057 933.943 338.358 933.447 346.535C932.704 355.828 933.076 364.872 934.315 373.545C935.554 382.094 937.908 390.891 941.625 401.051C948.315 419.512 957.484 437.972 968.882 456.186C980.901 475.142 994.158 492.86 1008.41 508.842C1023.15 525.445 1038.89 540.808 1055.12 554.561C1071.35 568.438 1088.07 580.332 1104.55 590.12C1105.05 590.368 1105.54 590.492 1106.04 590.492C1106.53 590.492 1107.03 590.368 1107.65 590.12C1108.14 590.368 1108.64 590.616 1109.14 590.616C1109.51 590.616 1109.88 590.616 1110.25 590.368C1143.08 574.137 1172.32 553.942 1197.48 530.401C1209.87 518.878 1221.76 505.497 1232.91 491.001C1241.46 479.85 1248.52 469.195 1254.59 458.416C1263.76 442.309 1271.44 425.83 1277.51 409.476C1284.82 389.404 1289.41 371.315 1291.51 354.217C1293.87 334.269 1292.63 317.047 1287.55 301.56C1284.7 292.887 1280.61 284.834 1275.53 277.772C1272.68 273.931 1269.83 270.709 1266.86 267.736C1262.89 264.019 1259.55 261.293 1256.33 259.063C1248.65 253.859 1240.96 250.142 1233.28 248.284C1228.57 247.045 1224.49 246.425 1220.27 246.177C1218.79 246.177 1217.18 246.054 1215.44 246.054L1215.32 245.93Z" fill="#7FEBD0"/>
<path d="M1005.3 259.052C998.737 259.92 992.418 261.53 986.595 263.885C985.232 264.504 983.869 265 982.63 265.743C974.948 269.584 968.505 274.044 963.426 279.124C957.231 285.195 952.399 291.39 948.558 297.957C943.973 305.762 940.628 313.196 938.398 320.754C935.672 329.675 934.062 338.1 933.566 346.401C932.823 355.693 933.194 364.862 934.433 373.411C935.796 382.084 938.026 390.881 941.743 400.916C948.434 419.377 957.602 437.838 969.001 455.927C981.019 475.008 994.276 492.725 1008.52 508.708C1023.27 525.311 1039 540.674 1055.23 554.427C1071.59 568.303 1088.19 580.321 1104.67 589.986C1105.17 590.357 1105.66 590.481 1106.16 590.481C1106.65 590.481 1107.15 590.357 1107.77 590.109C1108.26 590.481 1108.76 590.605 1109.25 590.605C1109.63 590.605 1110 590.605 1110.37 590.357C1132.3 579.454 1152.74 566.94 1171.33 552.692C1167.73 551.329 1164.14 549.966 1160.67 548.48C1140.23 539.683 1121.02 528.16 1103.55 514.284C1085.84 500.283 1069.85 484.176 1055.98 466.335C1042.35 448.741 1030.7 429.661 1021.66 409.341C1017.45 399.925 1013.73 390.261 1010.75 380.473C1008.15 371.924 1005.92 363.127 1004.06 354.33C1002.08 344.542 1000.6 334.755 999.852 324.843C999.108 314.807 998.984 304.647 1000.1 294.735C1001.21 285.567 1003.2 276.398 1006.91 267.849C1008.28 264.752 1009.89 261.654 1011.75 258.805C1009.52 258.805 1007.41 259.052 1005.43 259.3L1005.3 259.052Z" fill="#54C69E"/>
</svg>
