<svg width="1264" height="836" viewBox="0 0 1264 836" fill="none" xmlns="http://www.w3.org/2000/svg">
<mask id="path-1-outside-1_4101_2243" maskUnits="userSpaceOnUse" x="341.387" y="74.9298" width="523.126" height="762.389" fill="black">
<rect fill="white" x="341.387" y="74.9298" width="523.126" height="762.389"/>
<path d="M629.351 176.777C625.104 194.583 619.147 221.658 611.481 258.002C604.42 293.996 596.56 334.896 587.9 380.701C609.977 380.459 630.706 370.898 650.085 352.018C669.943 333.265 684.469 306.689 693.663 272.289C698.133 255.567 698.539 241.598 694.882 230.382C691.702 219.294 686.212 210.148 678.411 202.944C671.216 195.39 663.032 189.619 653.859 185.631C644.687 181.644 636.517 178.693 629.351 176.777ZM566.143 490.834C558.572 528.74 550.889 566.103 543.095 602.925C535.301 639.748 527.604 674.292 520.004 706.559C529.497 705.513 539.788 703.4 550.876 700.221C562.57 696.691 573.755 691.234 584.431 683.849C595.585 676.592 605.578 666.977 614.409 655.004C623.718 643.159 630.798 628.158 635.651 610.002C641.142 589.458 642.203 572.081 638.835 557.87C635.944 543.788 630.614 532.125 622.846 522.883C615.078 513.64 605.955 506.594 595.477 501.746C584.999 496.898 575.221 493.26 566.143 490.834ZM683.538 430.835C701.15 439.637 714.762 450.954 724.375 464.786C734.594 478.267 741.785 493.498 745.948 510.481C750.24 526.985 751.695 544.523 750.315 563.095C749.412 581.794 746.534 600.222 741.682 618.377C734.148 646.566 721.916 672.22 704.987 695.339C688.058 718.457 666.4 737.24 640.015 751.688C613.629 766.136 582.834 775.055 547.63 778.443C512.299 782.31 472.353 778.544 427.791 767.146L420.625 765.23C394.824 758.335 376.879 747.907 366.788 733.948C356.698 719.989 354.015 704.171 358.739 686.493C360.272 680.759 364.469 666.012 371.332 642.251C378.673 618.617 387.354 589.967 397.376 556.3C407.398 522.633 418.49 485.924 430.65 446.173C442.81 406.423 454.412 367.803 465.455 330.314C476.627 292.347 486.729 257.422 495.763 225.538C505.402 193.304 512.648 168.11 517.5 149.954C521.587 134.665 529.143 123.631 540.169 116.852C551.324 109.595 563.75 105.237 577.449 103.78C591.627 102.45 606.073 102.984 620.79 105.381C635.984 107.906 649.792 110.829 662.215 114.149C679.893 118.874 697.776 125.702 715.866 134.632C734.433 143.69 750.132 155.82 762.962 171.023C776.269 186.354 785.561 205.219 790.836 227.617C796.112 250.015 794.535 276.981 786.107 308.515C776.274 345.304 761.971 372.964 743.197 391.494C724.9 410.151 705.014 423.265 683.538 430.835Z"/>
</mask>
<path d="M629.351 176.777C625.104 194.583 619.147 221.658 611.481 258.002C604.42 293.996 596.56 334.896 587.9 380.701C609.977 380.459 630.706 370.898 650.085 352.018C669.943 333.265 684.469 306.689 693.663 272.289C698.133 255.567 698.539 241.598 694.882 230.382C691.702 219.294 686.212 210.148 678.411 202.944C671.216 195.39 663.032 189.619 653.859 185.631C644.687 181.644 636.517 178.693 629.351 176.777ZM566.143 490.834C558.572 528.74 550.889 566.103 543.095 602.925C535.301 639.748 527.604 674.292 520.004 706.559C529.497 705.513 539.788 703.4 550.876 700.221C562.57 696.691 573.755 691.234 584.431 683.849C595.585 676.592 605.578 666.977 614.409 655.004C623.718 643.159 630.798 628.158 635.651 610.002C641.142 589.458 642.203 572.081 638.835 557.87C635.944 543.788 630.614 532.125 622.846 522.883C615.078 513.64 605.955 506.594 595.477 501.746C584.999 496.898 575.221 493.26 566.143 490.834ZM683.538 430.835C701.15 439.637 714.762 450.954 724.375 464.786C734.594 478.267 741.785 493.498 745.948 510.481C750.24 526.985 751.695 544.523 750.315 563.095C749.412 581.794 746.534 600.222 741.682 618.377C734.148 646.566 721.916 672.22 704.987 695.339C688.058 718.457 666.4 737.24 640.015 751.688C613.629 766.136 582.834 775.055 547.63 778.443C512.299 782.31 472.353 778.544 427.791 767.146L420.625 765.23C394.824 758.335 376.879 747.907 366.788 733.948C356.698 719.989 354.015 704.171 358.739 686.493C360.272 680.759 364.469 666.012 371.332 642.251C378.673 618.617 387.354 589.967 397.376 556.3C407.398 522.633 418.49 485.924 430.65 446.173C442.81 406.423 454.412 367.803 465.455 330.314C476.627 292.347 486.729 257.422 495.763 225.538C505.402 193.304 512.648 168.11 517.5 149.954C521.587 134.665 529.143 123.631 540.169 116.852C551.324 109.595 563.75 105.237 577.449 103.78C591.627 102.45 606.073 102.984 620.79 105.381C635.984 107.906 649.792 110.829 662.215 114.149C679.893 118.874 697.776 125.702 715.866 134.632C734.433 143.69 750.132 155.82 762.962 171.023C776.269 186.354 785.561 205.219 790.836 227.617C796.112 250.015 794.535 276.981 786.107 308.515C776.274 345.304 761.971 372.964 743.197 391.494C724.9 410.151 705.014 423.265 683.538 430.835Z" fill="white"/>
<path d="M629.351 176.777L629.659 175.623L628.473 175.306L628.189 176.5L629.351 176.777ZM611.481 258.002L610.312 257.756L610.31 257.764L610.308 257.772L611.481 258.002ZM587.9 380.701L586.727 380.48L586.456 381.912L587.914 381.896L587.9 380.701ZM650.085 352.018L649.265 351.149L649.259 351.156L649.252 351.162L650.085 352.018ZM694.882 230.382L693.733 230.711L693.739 230.732L693.746 230.752L694.882 230.382ZM678.411 202.944L677.546 203.767L677.573 203.795L677.601 203.821L678.411 202.944ZM653.859 185.631L654.336 184.536L654.336 184.536L653.859 185.631ZM566.143 490.834L566.452 489.68L565.221 489.351L564.972 490.6L566.143 490.834ZM543.095 602.925L544.263 603.173L544.263 603.173L543.095 602.925ZM520.004 706.559L518.841 706.285L518.453 707.931L520.134 707.746L520.004 706.559ZM550.876 700.221L551.206 701.369L551.214 701.367L551.222 701.364L550.876 700.221ZM584.431 683.849L583.78 682.848L583.765 682.857L583.752 682.867L584.431 683.849ZM614.409 655.004L613.47 654.266L613.458 654.28L613.448 654.295L614.409 655.004ZM638.835 557.87L637.664 558.111L637.668 558.128L637.672 558.146L638.835 557.87ZM622.846 522.883L621.932 523.651L621.932 523.651L622.846 522.883ZM683.538 430.835L683.141 429.708L680.485 430.644L683.004 431.903L683.538 430.835ZM724.375 464.786L723.394 465.467L723.409 465.487L723.423 465.507L724.375 464.786ZM745.948 510.481L744.788 510.765L744.79 510.773L744.792 510.781L745.948 510.481ZM750.315 563.095L749.123 563.006L749.122 563.022L749.122 563.037L750.315 563.095ZM704.987 695.339L704.023 694.633L704.023 694.633L704.987 695.339ZM640.015 751.688L640.588 752.736L640.588 752.736L640.015 751.688ZM547.63 778.443L547.516 777.254L547.508 777.255L547.5 777.256L547.63 778.443ZM427.791 767.146L427.483 768.3L427.495 768.303L427.791 767.146ZM371.332 642.251L370.191 641.896L370.188 641.908L370.185 641.919L371.332 642.251ZM397.376 556.3L398.521 556.641L398.521 556.641L397.376 556.3ZM430.65 446.173L429.507 445.824L429.507 445.824L430.65 446.173ZM465.455 330.314L466.601 330.651L466.601 330.651L465.455 330.314ZM495.763 225.538L494.619 225.196L494.616 225.204L494.614 225.212L495.763 225.538ZM540.169 116.852L540.795 117.869L540.808 117.861L540.821 117.853L540.169 116.852ZM577.449 103.78L577.338 102.59L577.33 102.591L577.323 102.592L577.449 103.78ZM620.79 105.381L620.986 104.203L620.982 104.202L620.79 105.381ZM715.866 134.632L715.337 135.703L715.342 135.705L715.866 134.632ZM762.962 171.023L762.049 171.794L762.054 171.8L762.06 171.806L762.962 171.023ZM790.836 227.617L791.999 227.343L791.999 227.343L790.836 227.617ZM743.197 391.494L742.358 390.643L742.351 390.65L742.344 390.657L743.197 391.494ZM628.189 176.5C623.938 194.322 617.979 221.409 610.312 257.756L612.649 258.249C620.315 221.906 626.269 194.844 630.512 177.054L628.189 176.5ZM610.308 257.772C603.247 293.77 595.386 334.672 586.727 380.48L589.074 380.923C597.733 335.12 605.592 294.223 612.653 258.232L610.308 257.772ZM587.914 381.896C610.363 381.649 631.372 371.917 650.919 352.873L649.252 351.162C630.04 369.879 609.591 379.269 587.887 379.507L587.914 381.896ZM650.906 352.886C670.966 333.942 685.583 307.148 694.817 272.597L692.509 271.98C683.355 306.23 668.92 332.589 649.265 351.149L650.906 352.886ZM694.817 272.597C699.32 255.75 699.772 241.527 696.017 230.012L693.746 230.752C697.305 241.668 696.945 255.383 692.509 271.98L694.817 272.597ZM696.03 230.053C692.796 218.773 687.197 209.431 679.222 202.066L677.601 203.821C685.227 210.864 690.609 219.814 693.733 230.711L696.03 230.053ZM679.276 202.12C671.976 194.455 663.661 188.59 654.336 184.536L653.383 186.727C662.403 190.648 670.456 196.324 677.546 203.767L679.276 202.12ZM654.336 184.536C645.126 180.533 636.899 177.558 629.659 175.623L629.042 177.931C636.136 179.827 644.248 182.756 653.383 186.727L654.336 184.536ZM564.972 490.6C557.401 528.501 549.719 565.861 541.926 602.678L544.263 603.173C552.058 566.346 559.742 528.978 567.315 491.068L564.972 490.6ZM541.926 602.678C534.134 639.492 526.439 674.028 518.841 706.285L521.166 706.833C528.769 674.556 536.468 640.003 544.263 603.173L541.926 602.678ZM520.134 707.746C529.707 706.691 540.066 704.563 551.206 701.369L550.547 699.073C539.511 702.237 529.287 704.334 519.873 705.371L520.134 707.746ZM551.222 701.364C563.042 697.797 574.338 692.283 585.111 684.832L583.752 682.867C573.171 690.185 562.098 695.586 550.531 699.077L551.222 701.364ZM585.082 684.851C596.37 677.507 606.464 667.788 615.37 655.713L613.448 654.295C604.691 666.167 594.8 675.678 583.78 682.848L585.082 684.851ZM615.348 655.742C624.778 643.742 631.921 628.585 636.805 610.311L634.497 609.694C629.676 627.731 622.657 642.575 613.47 654.266L615.348 655.742ZM636.805 610.311C642.325 589.656 643.427 572.065 639.997 557.595L637.672 558.146C640.979 572.096 639.959 589.259 634.497 609.694L636.805 610.311ZM640.005 557.63C637.081 543.39 631.679 531.536 623.761 522.114L621.932 523.651C629.55 532.715 634.806 544.186 637.664 558.111L640.005 557.63ZM623.761 522.114C615.885 512.743 606.623 505.587 595.979 500.662L594.976 502.83C605.288 507.601 614.272 514.536 621.932 523.651L623.761 522.114ZM595.979 500.662C585.452 495.791 575.609 492.128 566.452 489.68L565.835 491.988C574.834 494.393 584.546 498.004 594.976 502.83L595.979 500.662ZM683.004 431.903C700.467 440.631 713.914 451.826 723.394 465.467L725.356 464.104C715.611 450.082 701.833 438.643 684.072 429.766L683.004 431.903ZM723.423 465.507C733.54 478.854 740.662 493.936 744.788 510.765L747.108 510.196C742.907 493.061 735.647 477.68 725.327 464.064L723.423 465.507ZM744.792 510.781C749.048 527.147 750.495 544.553 749.123 563.006L751.506 563.183C752.895 544.493 751.432 526.822 747.104 510.18L744.792 510.781ZM749.122 563.037C748.223 581.651 745.359 599.995 740.528 618.069L742.836 618.686C747.71 600.448 750.601 581.937 751.508 563.152L749.122 563.037ZM740.528 618.069C733.031 646.118 720.863 671.636 704.023 694.633L705.951 696.044C722.969 672.804 735.264 647.015 742.836 618.686L740.528 618.069ZM704.023 694.633C687.203 717.603 665.681 736.272 639.441 750.641L640.588 752.736C667.12 738.208 688.913 719.311 705.951 696.044L704.023 694.633ZM639.441 750.641C613.22 764.999 582.587 773.879 547.516 777.254L547.745 779.632C583.082 776.231 614.038 767.274 640.588 752.736L639.441 750.641ZM547.5 777.256C512.347 781.103 472.548 777.361 428.087 765.989L427.495 768.303C472.157 779.727 512.251 783.517 547.76 779.631L547.5 777.256ZM428.1 765.992L420.933 764.076L420.316 766.384L427.483 768.3L428.1 765.992ZM420.933 764.076C395.26 757.215 377.618 746.891 367.756 733.248L365.82 734.648C376.14 748.923 394.389 759.455 420.316 766.384L420.933 764.076ZM367.756 733.248C357.891 719.601 355.255 704.157 359.893 686.801L357.586 686.184C352.775 704.184 355.505 720.378 365.82 734.648L367.756 733.248ZM359.893 686.801C361.422 681.082 365.616 666.348 372.48 642.582L370.185 641.919C363.323 665.676 359.122 680.437 357.586 686.184L359.893 686.801ZM372.473 642.605C379.815 618.965 388.498 590.31 398.521 556.641L396.231 555.959C386.21 589.623 377.53 618.269 370.191 641.896L372.473 642.605ZM398.521 556.641C408.542 522.977 419.632 486.271 431.792 446.523L429.507 445.824C417.347 485.577 406.255 522.289 396.231 555.959L398.521 556.641ZM431.792 446.523C443.953 406.769 455.556 368.145 466.601 330.651L464.31 329.976C453.267 367.461 441.666 406.077 429.507 445.824L431.792 446.523ZM466.601 330.651C477.774 292.681 487.877 257.752 496.912 225.864L494.614 225.212C485.581 257.091 475.48 292.013 464.309 329.977L466.601 330.651ZM496.907 225.88C506.548 193.643 513.797 168.435 518.654 150.262L516.346 149.646C511.498 167.784 504.256 192.966 494.619 225.196L496.907 225.88ZM518.654 150.262C522.68 135.199 530.084 124.454 540.795 117.869L539.544 115.834C528.202 122.807 520.493 134.131 516.346 149.646L518.654 150.262ZM540.821 117.853C551.811 110.702 564.057 106.406 577.576 104.967L577.323 102.592C563.443 104.069 550.836 108.487 539.518 115.85L540.821 117.853ZM577.561 104.969C591.632 103.649 605.977 104.178 620.598 106.56L620.982 104.202C606.17 101.789 591.621 101.25 577.338 102.59L577.561 104.969ZM620.594 106.559C635.758 109.08 649.528 111.995 661.906 115.303L662.523 112.995C650.057 109.664 636.211 106.733 620.986 104.203L620.594 106.559ZM661.906 115.303C679.501 120.006 697.311 126.804 715.337 135.703L716.395 133.561C698.242 124.599 680.284 117.743 662.523 112.995L661.906 115.303ZM715.342 135.705C733.766 144.693 749.33 156.723 762.049 171.794L763.874 170.253C750.933 154.918 735.101 142.686 716.39 133.558L715.342 135.705ZM762.06 171.806C775.224 186.972 784.436 205.655 789.673 227.891L791.999 227.343C786.685 204.782 777.314 185.736 763.864 170.24L762.06 171.806ZM789.673 227.891C794.889 250.034 793.35 276.788 784.953 308.206L787.261 308.823C795.72 277.174 797.334 249.997 791.999 227.343L789.673 227.891ZM784.953 308.206C775.152 344.876 760.928 372.315 742.358 390.643L744.036 392.344C763.014 373.612 777.396 345.732 787.261 308.823L784.953 308.206ZM742.344 390.657C724.156 409.204 704.421 422.208 683.141 429.708L683.935 431.961C705.607 424.323 725.644 411.099 744.049 392.33L742.344 390.657Z" fill="#C9A924" mask="url(#path-1-outside-1_4101_2243)"/>
<path d="M984.135 816.365C959.606 817.307 938.128 812.867 919.703 803.046C901.797 793.707 886.01 780.777 872.341 764.256C859.153 747.215 848.122 727.585 839.247 705.365C830.353 682.645 823.173 658.856 817.707 633.999C812.221 608.641 807.977 582.985 804.976 557.03C802.455 530.555 800.734 505.304 799.811 481.275C798.889 457.246 798.698 432.687 799.239 407.599C800.28 382.492 803.112 358.319 807.735 335.08C812.839 311.32 820.003 288.986 829.227 268.077C838.451 247.168 851.025 228.637 866.949 212.484C883.374 196.312 903.438 183.509 927.14 174.076C951.324 164.124 980.186 158.503 1013.73 157.216C1039.76 156.216 1060.2 159.693 1075.04 167.646C1089.88 175.599 1101.03 185.198 1108.48 196.443C1116.41 207.168 1121.34 218.008 1123.27 228.964C1125.67 239.4 1126.97 247.121 1127.16 252.127C1127.4 258.134 1125.84 263.207 1122.48 267.347C1119.63 271.467 1115.76 274.874 1110.85 277.57C1106.42 279.745 1101.47 281.439 1096 282.652C1091.03 283.845 1086.8 284.509 1083.29 284.644C1074.78 284.97 1068.89 281.687 1065.62 274.794C1062.33 267.4 1058.75 259.265 1054.9 250.389C1051.05 241.512 1045.49 233.704 1038.21 226.965C1031.42 219.706 1020.01 216.384 1003.99 216.999C993.977 217.383 985.698 223.717 979.151 236.001C972.603 248.284 967.471 264.775 963.754 285.473C960.017 305.67 957.657 329.073 956.673 355.682C955.689 382.291 955.754 410.113 956.869 439.148C958.33 477.194 961.311 515.683 965.814 554.615C970.798 593.027 977.15 627.877 984.868 659.166C992.568 689.953 1001.31 715.186 1011.09 734.865C1021.35 754.023 1032.24 763.381 1043.75 762.939C1056.26 762.459 1065.69 759.841 1072.02 755.086C1078.34 749.83 1083.89 744.102 1088.66 737.903C1093.94 731.684 1099.24 726.216 1104.58 721.499C1110.39 716.263 1118.81 713.433 1129.82 713.01C1143.84 712.472 1151.08 718.46 1151.56 730.976C1151.83 737.984 1148.9 746.369 1142.75 756.13C1136.59 765.391 1126.66 774.295 1112.95 782.843C1099.74 791.372 1082.48 798.803 1061.16 805.136C1039.85 811.469 1014.17 815.212 984.135 816.365Z" fill="white"/>
<path d="M196.636 175.467C193.457 187.125 190.012 200.107 186.303 214.413C183.124 228.19 179.15 244.616 174.381 263.692C169.612 282.767 164.313 305.022 158.485 330.456C152.656 355.361 145.768 384.769 137.82 418.681C149.477 416.561 159.809 415.237 168.817 414.707C178.355 414.177 186.303 413.912 192.662 413.912C195.841 413.912 198.491 414.177 200.61 414.707C203.259 414.707 205.379 414.707 206.969 414.707H212.532C209.353 373.376 206.174 332.046 202.994 290.716C200.345 249.385 198.226 210.969 196.636 175.467ZM24.9559 665.074C24.9559 638.05 26.2806 609.436 28.9299 579.233C32.1092 549.03 35.8183 518.298 40.0573 487.035C44.8262 455.242 49.8601 423.45 55.1588 391.657C60.9875 359.335 66.8161 327.542 72.6448 296.279C80.063 253.889 87.4813 217.063 94.8996 185.8C102.318 154.007 110.001 126.984 117.949 104.729C125.897 82.474 133.846 64.1933 141.794 49.8866C149.742 35.5799 157.69 24.7174 165.638 17.2992C172.527 10.9406 180.21 6.70161 188.688 4.5821C197.166 1.93272 206.969 0.608026 218.096 0.608026C224.454 0.608026 231.873 1.93272 240.351 4.5821C249.359 7.23148 259.691 12.2653 271.349 19.6836C279.827 25.5122 287.51 41.4085 294.398 67.3725C301.816 93.3365 308.705 125.129 315.063 162.75C321.422 199.842 327.251 240.642 332.549 285.152C338.378 329.662 343.942 373.376 349.24 416.296C354.539 458.687 360.103 498.427 365.932 535.519C371.76 572.08 378.119 601.488 385.007 623.743C388.716 635.93 391.101 646.793 392.16 656.331C393.75 665.868 394.545 674.611 394.545 682.559C394.545 702.165 390.571 717.001 382.623 727.069C375.204 737.667 360.898 742.965 339.703 742.965C331.755 742.965 322.747 740.316 312.679 735.017C302.611 730.248 292.279 719.121 281.681 701.635C271.613 684.679 261.281 659.51 250.683 626.128C240.616 592.215 231.343 546.646 222.865 489.419C210.678 489.419 195.311 489.419 176.766 489.419C158.75 488.889 140.734 488.095 122.718 487.035L85.3618 657.92C83.2423 666.928 81.3877 674.081 79.7981 679.38C78.7384 684.679 77.1487 688.653 75.0292 691.302C72.9097 693.952 70.2603 695.806 67.0811 696.866C63.9018 697.926 59.3978 698.456 53.5692 698.456C47.2107 698.456 42.1769 697.131 38.4677 694.482C34.7586 692.362 31.8443 689.713 29.7247 686.534C27.6052 682.824 26.2806 679.115 25.7507 675.406C25.2208 671.167 24.9559 667.723 24.9559 665.074Z" fill="white"/>
<path d="M169.628 199.611C166.931 209.502 164.009 220.517 160.861 232.656C158.164 244.345 154.792 258.282 150.746 274.468C146.699 290.653 142.203 309.536 137.258 331.116C132.312 352.247 126.468 377.2 119.724 405.973C129.615 404.175 138.382 403.051 146.025 402.602C154.117 402.152 160.861 401.927 166.256 401.927C168.954 401.927 171.202 402.152 173 402.602C175.248 402.602 177.047 402.602 178.395 402.602H183.116C180.419 367.533 177.721 332.465 175.024 297.397C172.776 262.329 170.977 229.733 169.628 199.611ZM23.9605 615.034C23.9605 592.105 25.0845 567.827 27.3324 542.2C30.03 516.573 33.1771 490.497 36.7739 463.971C40.8202 436.995 45.0913 410.02 49.5873 383.044C54.5328 355.619 59.4783 328.644 64.4238 302.118C70.7181 266.15 77.0124 234.904 83.3067 208.378C89.601 181.402 96.1201 158.473 102.864 139.59C109.608 120.707 116.352 105.196 123.096 93.0572C129.84 80.9182 136.583 71.7015 143.327 65.4072C149.172 60.0121 155.691 56.4154 162.885 54.617C170.078 52.369 178.395 51.2451 187.837 51.2451C193.232 51.2451 199.526 52.369 206.72 54.617C214.363 56.8649 223.13 61.1361 233.021 67.4304C240.214 72.3759 246.734 85.8637 252.578 107.894C258.873 129.924 264.717 156.899 270.112 188.82C275.507 220.292 280.453 254.91 284.949 292.676C289.894 330.442 294.615 367.533 299.111 403.95C303.607 439.918 308.328 473.637 313.273 505.109C318.219 536.13 323.614 561.083 329.459 579.966C332.606 590.306 334.629 599.523 335.528 607.616C336.877 615.708 337.551 623.127 337.551 629.871C337.551 646.505 334.179 659.094 327.435 667.636C321.141 676.628 309.002 681.124 291.018 681.124C284.275 681.124 276.631 678.876 268.089 674.38C259.547 670.334 250.78 660.892 241.788 646.056C233.246 631.669 224.479 610.313 215.487 581.989C206.945 553.215 199.077 514.55 191.883 465.994C181.543 465.994 168.504 465.994 152.769 465.994C137.483 465.544 122.196 464.87 106.91 463.971L75.214 608.964C73.4157 616.608 71.8421 622.677 70.4933 627.173C69.5941 631.669 68.2453 635.041 66.447 637.289C64.6486 639.537 62.4006 641.11 59.7031 642.01C57.0055 642.909 53.184 643.358 48.2385 643.358C42.8434 643.358 38.5722 642.234 35.4251 639.986C32.278 638.188 29.8052 635.94 28.0068 633.242C26.2085 630.095 25.0845 626.948 24.6349 623.801C24.1853 620.204 23.9605 617.282 23.9605 615.034Z" fill="#EA3283"/>
<mask id="path-6-outside-2_4101_2243" maskUnits="userSpaceOnUse" x="315.176" y="97.39" width="469.048" height="684.243" fill="black">
<rect fill="white" x="315.176" y="97.39" width="469.048" height="684.243"/>
<path d="M573.776 189.561C569.97 205.517 564.632 229.779 557.763 262.347C551.435 294.602 544.392 331.252 536.632 372.298C556.416 372.081 574.99 363.513 592.357 346.595C610.151 329.791 623.168 305.976 631.407 275.149C635.412 260.165 635.776 247.647 632.499 237.596C629.649 227.66 624.73 219.465 617.739 213.009C611.292 206.24 603.958 201.069 595.738 197.495C587.519 193.922 580.198 191.278 573.776 189.561ZM517.136 470.989C510.351 504.956 503.466 538.438 496.482 571.434C489.498 604.431 482.6 635.386 475.79 664.3C484.297 663.363 493.519 661.47 503.455 658.621C513.934 655.458 523.956 650.568 533.523 643.951C543.519 637.448 552.473 628.831 560.387 618.102C568.728 607.487 575.073 594.045 579.422 577.776C584.342 559.366 585.293 543.794 582.275 531.06C579.684 518.441 574.908 507.99 567.947 499.708C560.987 491.425 552.811 485.111 543.422 480.767C534.032 476.422 525.27 473.163 517.136 470.989ZM622.334 417.223C638.116 425.111 650.314 435.252 658.928 447.647C668.085 459.727 674.529 473.376 678.26 488.594C682.105 503.384 683.409 519.099 682.172 535.742C681.363 552.498 678.785 569.011 674.436 585.281C667.685 610.541 656.724 633.53 641.554 654.246C626.384 674.963 606.976 691.794 583.332 704.741C559.688 717.688 532.092 725.68 500.546 728.717C468.885 732.181 433.089 728.807 393.158 718.593L386.736 716.876C363.616 710.697 347.535 701.353 338.493 688.844C329.45 676.335 327.046 662.16 331.28 646.319C332.653 641.182 336.415 627.966 342.565 606.674C349.142 585.496 356.922 559.822 365.903 529.653C374.884 499.484 384.823 466.589 395.719 430.968C406.616 395.348 417.012 360.74 426.909 327.146C436.92 293.124 445.972 261.827 454.068 233.256C462.705 204.371 469.198 181.794 473.547 165.525C477.208 151.824 483.98 141.936 493.86 135.862C503.856 129.358 514.991 125.454 527.267 124.148C539.971 122.956 552.917 123.434 566.105 125.583C579.72 127.846 592.094 130.465 603.226 133.44C619.067 137.674 635.093 143.792 651.303 151.795C667.941 159.911 682.009 170.782 693.505 184.405C705.43 198.143 713.756 215.048 718.484 235.119C723.211 255.19 721.799 279.354 714.246 307.612C705.435 340.579 692.617 365.364 675.794 381.969C659.398 398.689 641.578 410.44 622.334 417.223Z"/>
</mask>
<path d="M573.776 189.561C569.97 205.517 564.632 229.779 557.763 262.347C551.435 294.602 544.392 331.252 536.632 372.298C556.416 372.081 574.99 363.513 592.357 346.595C610.151 329.791 623.168 305.976 631.407 275.149C635.412 260.165 635.776 247.647 632.499 237.596C629.649 227.66 624.73 219.465 617.739 213.009C611.292 206.24 603.958 201.069 595.738 197.495C587.519 193.922 580.198 191.278 573.776 189.561ZM517.136 470.989C510.351 504.956 503.466 538.438 496.482 571.434C489.498 604.431 482.6 635.386 475.79 664.3C484.297 663.363 493.519 661.47 503.455 658.621C513.934 655.458 523.956 650.568 533.523 643.951C543.519 637.448 552.473 628.831 560.387 618.102C568.728 607.487 575.073 594.045 579.422 577.776C584.342 559.366 585.293 543.794 582.275 531.06C579.684 518.441 574.908 507.99 567.947 499.708C560.987 491.425 552.811 485.111 543.422 480.767C534.032 476.422 525.27 473.163 517.136 470.989ZM622.334 417.223C638.116 425.111 650.314 435.252 658.928 447.647C668.085 459.727 674.529 473.376 678.26 488.594C682.105 503.384 683.409 519.099 682.172 535.742C681.363 552.498 678.785 569.011 674.436 585.281C667.685 610.541 656.724 633.53 641.554 654.246C626.384 674.963 606.976 691.794 583.332 704.741C559.688 717.688 532.092 725.68 500.546 728.717C468.885 732.181 433.089 728.807 393.158 718.593L386.736 716.876C363.616 710.697 347.535 701.353 338.493 688.844C329.45 676.335 327.046 662.16 331.28 646.319C332.653 641.182 336.415 627.966 342.565 606.674C349.142 585.496 356.922 559.822 365.903 529.653C374.884 499.484 384.823 466.589 395.719 430.968C406.616 395.348 417.012 360.74 426.909 327.146C436.92 293.124 445.972 261.827 454.068 233.256C462.705 204.371 469.198 181.794 473.547 165.525C477.208 151.824 483.98 141.936 493.86 135.862C503.856 129.358 514.991 125.454 527.267 124.148C539.971 122.956 552.917 123.434 566.105 125.583C579.72 127.846 592.094 130.465 603.226 133.44C619.067 137.674 635.093 143.792 651.303 151.795C667.941 159.911 682.009 170.782 693.505 184.405C705.43 198.143 713.756 215.048 718.484 235.119C723.211 255.19 721.799 279.354 714.246 307.612C705.435 340.579 692.617 365.364 675.794 381.969C659.398 398.689 641.578 410.44 622.334 417.223Z" fill="#FFDB43"/>
<path d="M573.776 189.561L574.084 188.407L572.899 188.09L572.614 189.284L573.776 189.561ZM557.763 262.347L556.594 262.101L556.592 262.109L556.59 262.117L557.763 262.347ZM536.632 372.298L535.459 372.077L535.188 373.509L536.645 373.493L536.632 372.298ZM592.357 346.595L591.536 345.726L591.53 345.733L591.523 345.739L592.357 346.595ZM632.499 237.596L631.35 237.926L631.356 237.946L631.363 237.967L632.499 237.596ZM617.739 213.009L616.875 213.833L616.901 213.861L616.929 213.887L617.739 213.009ZM595.738 197.495L596.215 196.4L596.215 196.4L595.738 197.495ZM517.136 470.989L517.444 469.835L516.214 469.506L515.964 470.755L517.136 470.989ZM496.482 571.434L497.65 571.682L497.65 571.682L496.482 571.434ZM475.79 664.3L474.627 664.027L474.239 665.673L475.92 665.488L475.79 664.3ZM503.455 658.621L503.784 659.769L503.792 659.767L503.8 659.764L503.455 658.621ZM533.523 643.951L532.872 642.949L532.858 642.959L532.844 642.968L533.523 643.951ZM560.387 618.102L559.447 617.364L559.436 617.378L559.425 617.393L560.387 618.102ZM582.275 531.06L581.104 531.301L581.108 531.318L581.112 531.336L582.275 531.06ZM567.947 499.708L567.033 500.476L567.033 500.476L567.947 499.708ZM622.334 417.223L621.937 416.097L619.281 417.033L621.8 418.292L622.334 417.223ZM658.928 447.647L657.947 448.328L657.961 448.348L657.976 448.368L658.928 447.647ZM678.26 488.594L677.1 488.878L677.102 488.887L677.104 488.895L678.26 488.594ZM682.172 535.742L680.981 535.653L680.98 535.669L680.979 535.684L682.172 535.742ZM641.554 654.246L640.59 653.54L640.59 653.54L641.554 654.246ZM583.332 704.741L583.906 705.789L583.906 705.789L583.332 704.741ZM500.546 728.717L500.432 727.528L500.424 727.528L500.416 727.529L500.546 728.717ZM393.158 718.593L392.849 719.747L392.862 719.75L393.158 718.593ZM342.565 606.674L341.424 606.319L341.42 606.331L341.417 606.342L342.565 606.674ZM365.903 529.653L367.048 529.994L367.048 529.994L365.903 529.653ZM395.719 430.968L394.577 430.619L394.577 430.619L395.719 430.968ZM426.909 327.146L428.055 327.483L428.055 327.483L426.909 327.146ZM454.068 233.256L452.923 232.914L452.921 232.922L452.918 232.93L454.068 233.256ZM493.86 135.862L494.486 136.879L494.499 136.871L494.512 136.863L493.86 135.862ZM527.267 124.148L527.156 122.958L527.148 122.959L527.141 122.96L527.267 124.148ZM566.105 125.583L566.3 124.405L566.297 124.404L566.105 125.583ZM651.303 151.795L650.774 152.866L650.779 152.868L651.303 151.795ZM693.505 184.405L692.592 185.175L692.598 185.182L692.603 185.188L693.505 184.405ZM718.484 235.119L719.646 234.845L719.646 234.845L718.484 235.119ZM675.794 381.969L674.955 381.119L674.948 381.126L674.941 381.133L675.794 381.969ZM572.614 189.284C568.804 205.256 563.464 229.53 556.594 262.101L558.931 262.594C565.801 230.027 571.136 205.778 574.938 189.838L572.614 189.284ZM556.59 262.117C550.263 294.375 543.219 331.028 535.459 372.077L537.806 372.52C545.565 331.476 552.608 294.828 558.935 262.577L556.59 262.117ZM536.645 373.493C556.801 373.272 575.656 364.532 593.19 347.45L591.523 345.739C574.324 362.495 556.03 370.891 536.619 371.104L536.645 373.493ZM593.177 347.463C611.174 330.467 624.281 306.434 632.561 275.458L630.253 274.841C622.054 305.517 609.128 329.114 591.536 345.726L593.177 347.463ZM632.561 275.458C636.599 260.348 637.009 247.576 633.634 237.226L631.363 237.967C634.542 247.717 634.224 259.981 630.253 274.841L632.561 275.458ZM633.647 237.267C630.743 227.14 625.715 218.748 618.55 212.131L616.929 213.887C623.745 220.181 628.556 228.181 631.35 237.926L633.647 237.267ZM618.604 212.185C612.051 205.305 604.587 200.039 596.215 196.4L595.262 198.591C603.329 202.098 610.532 207.174 616.875 213.833L618.604 212.185ZM596.215 196.4C587.958 192.811 580.58 190.143 574.084 188.407L573.468 190.715C579.817 192.412 587.08 195.034 595.262 198.591L596.215 196.4ZM515.964 470.755C509.18 504.718 502.297 538.195 495.313 571.187L497.65 571.682C504.636 538.681 511.521 505.194 518.307 471.223L515.964 470.755ZM495.313 571.187C488.331 604.176 481.435 635.122 474.627 664.027L476.952 664.574C483.765 635.65 490.665 604.686 497.65 571.682L495.313 571.187ZM475.92 665.488C484.507 664.542 493.796 662.633 503.784 659.769L503.126 657.473C493.242 660.307 484.087 662.185 475.659 663.113L475.92 665.488ZM503.8 659.764C514.405 656.564 524.54 651.617 534.203 644.933L532.844 642.968C523.373 649.519 513.462 654.353 503.11 657.477L503.8 659.764ZM534.175 644.952C544.303 638.362 553.359 629.642 561.348 618.811L559.425 617.393C551.587 628.021 542.734 636.533 532.872 642.949L534.175 644.952ZM561.326 618.84C569.789 608.071 576.196 594.473 580.576 578.084L578.268 577.468C573.951 593.618 567.668 606.904 559.447 617.364L561.326 618.84ZM580.576 578.084C585.526 559.564 586.517 543.779 583.437 530.785L581.112 531.336C584.069 543.809 583.159 559.167 578.268 577.468L580.576 578.084ZM583.445 530.82C580.822 518.043 575.973 507.4 568.862 498.939L567.033 500.476C573.844 508.58 578.546 518.839 581.104 531.301L583.445 530.82ZM568.862 498.939C561.794 490.529 553.479 484.104 543.924 479.683L542.92 481.851C552.144 486.118 560.18 492.321 567.033 500.476L568.862 498.939ZM543.924 479.683C534.485 475.316 525.658 472.03 517.444 469.835L516.827 472.143C524.883 474.296 533.58 477.529 542.92 481.851L543.924 479.683ZM621.8 418.292C637.433 426.105 649.465 436.124 657.947 448.328L659.909 446.965C651.163 434.38 638.798 424.117 622.868 416.155L621.8 418.292ZM657.976 448.368C667.031 460.314 673.406 473.814 677.1 488.878L679.42 488.31C675.651 472.939 669.138 459.14 659.88 446.925L657.976 448.368ZM677.104 488.895C680.913 503.546 682.209 519.13 680.981 535.653L683.363 535.83C684.609 519.069 683.297 503.221 679.416 488.293L677.104 488.895ZM680.979 535.684C680.175 552.356 677.609 568.785 673.283 584.972L675.59 585.589C679.961 569.238 682.552 552.641 683.365 535.799L680.979 535.684ZM673.283 584.972C666.569 610.092 655.671 632.946 640.59 653.54L642.518 654.952C657.777 634.114 668.801 610.99 675.59 585.589L673.283 584.972ZM640.59 653.54C625.528 674.109 606.257 690.826 582.758 703.694L583.906 705.789C607.696 692.762 627.239 675.817 642.518 654.952L640.59 653.54ZM582.758 703.694C559.279 716.55 531.845 724.504 500.432 727.528L500.661 729.906C532.34 726.856 560.097 718.826 583.906 705.789L582.758 703.694ZM500.416 727.529C468.933 730.975 433.285 727.624 393.454 717.436L392.862 719.75C432.894 729.99 468.838 733.388 500.676 729.904L500.416 727.529ZM393.466 717.439L387.044 715.722L386.427 718.03L392.849 719.747L393.466 717.439ZM387.044 715.722C364.052 709.577 348.274 700.337 339.461 688.144L337.525 689.544C346.796 702.369 363.181 711.817 386.427 718.03L387.044 715.722ZM339.461 688.144C330.643 675.947 328.286 662.147 332.434 646.628L330.126 646.011C325.806 662.174 328.257 676.724 337.525 689.544L339.461 688.144ZM332.434 646.628C333.804 641.504 337.561 628.302 343.712 607.005L341.417 606.342C335.269 627.63 331.503 640.859 330.126 646.011L332.434 646.628ZM343.705 607.028C350.285 585.844 358.066 560.166 367.048 529.994L364.758 529.312C355.778 559.478 348 585.147 341.424 606.319L343.705 607.028ZM367.048 529.994C376.028 499.828 385.965 466.936 396.861 431.318L394.577 430.619C383.68 466.242 373.74 499.139 364.758 529.312L367.048 529.994ZM396.861 431.318C407.759 395.693 418.157 361.082 428.055 327.483L425.763 326.808C415.868 360.399 405.473 395.002 394.577 430.619L396.861 431.318ZM428.055 327.483C438.066 293.458 447.12 262.157 455.217 233.581L452.918 232.93C444.825 261.497 435.773 292.79 425.763 326.809L428.055 327.483ZM455.212 233.598C463.851 204.709 470.348 182.119 474.701 165.833L472.393 165.216C468.049 181.469 461.56 204.033 452.923 232.914L455.212 233.598ZM474.701 165.833C478.302 152.358 484.921 142.76 494.486 136.879L493.235 134.844C483.038 141.113 476.115 151.29 472.393 165.216L474.701 165.833ZM494.512 136.863C504.343 130.466 515.298 126.622 527.394 125.335L527.141 122.96C514.684 124.285 503.368 128.251 493.209 134.86L494.512 136.863ZM527.379 125.337C539.977 124.155 552.821 124.629 565.913 126.762L566.297 124.404C553.014 122.24 539.966 121.757 527.156 122.958L527.379 125.337ZM565.909 126.761C579.494 129.019 591.829 131.63 602.917 134.594L603.534 132.286C592.359 129.299 579.947 126.673 566.3 124.405L565.909 126.761ZM602.917 134.594C618.675 138.806 634.627 144.895 650.774 152.866L651.831 150.724C635.558 142.69 619.459 136.542 603.534 132.286L602.917 134.594ZM650.779 152.868C667.274 160.915 681.207 171.684 692.592 185.175L694.418 183.635C682.81 169.879 668.608 158.908 651.826 150.721L650.779 152.868ZM692.603 185.188C704.385 198.761 712.632 215.484 717.321 235.393L719.646 234.845C714.881 214.611 706.475 197.525 694.407 183.622L692.603 185.188ZM717.321 235.393C721.988 255.209 720.614 279.162 713.092 307.303L715.4 307.92C722.983 279.547 724.434 255.172 719.646 234.845L717.321 235.393ZM713.092 307.303C704.313 340.151 691.574 364.716 674.955 381.119L676.633 382.819C693.66 366.013 706.557 341.007 715.4 307.92L713.092 307.303ZM674.941 381.133C658.654 397.741 640.985 409.382 621.937 416.097L622.731 418.35C642.171 411.497 660.142 399.636 676.647 382.806L674.941 381.133Z" fill="#FDB359" mask="url(#path-6-outside-2_4101_2243)"/>
<path d="M999.764 787.717C978.065 788.55 959.066 784.623 942.766 775.936C926.927 767.674 912.961 756.235 900.869 741.621C889.203 726.546 879.445 709.181 871.594 689.525C863.726 669.426 857.375 648.382 852.539 626.393C847.686 603.961 843.932 581.265 841.277 558.306C839.047 534.886 837.524 512.548 836.708 491.291C835.892 470.035 835.724 448.31 836.202 426.117C837.123 403.907 839.629 382.523 843.718 361.965C848.233 340.947 854.57 321.19 862.73 302.693C870.89 284.197 882.013 267.804 896.1 253.515C910.63 239.208 928.378 227.883 949.346 219.539C970.739 210.735 996.271 205.763 1025.94 204.624C1048.97 203.74 1067.05 206.815 1080.18 213.851C1093.31 220.886 1103.17 229.377 1109.76 239.325C1116.78 248.812 1121.14 258.402 1122.84 268.093C1124.97 277.325 1126.12 284.155 1126.29 288.583C1126.49 293.897 1125.11 298.385 1122.15 302.047C1119.63 305.692 1116.2 308.706 1111.85 311.091C1107.94 313.015 1103.56 314.514 1098.72 315.586C1094.33 316.642 1090.58 317.229 1087.48 317.348C1079.95 317.637 1074.74 314.733 1071.84 308.635C1068.93 302.095 1065.77 294.898 1062.37 287.046C1058.96 279.194 1054.04 272.287 1047.6 266.325C1041.59 259.903 1031.5 256.965 1017.33 257.509C1008.47 257.849 1001.15 263.452 995.355 274.318C989.563 285.184 985.023 299.772 981.734 318.082C978.429 335.949 976.341 356.651 975.471 380.19C974.6 403.729 974.658 428.341 975.644 454.026C976.936 487.682 979.574 521.73 983.557 556.169C987.966 590.149 993.585 620.978 1000.41 648.656C1007.22 675.892 1014.96 698.213 1023.61 715.621C1032.68 732.569 1042.31 740.847 1052.5 740.456C1063.57 740.031 1071.91 737.715 1077.51 733.509C1083.1 728.859 1088.01 723.792 1092.23 718.308C1096.9 712.807 1101.59 707.97 1106.31 703.798C1111.45 699.165 1118.9 696.662 1128.64 696.288C1141.04 695.812 1147.45 701.109 1147.87 712.181C1148.11 718.38 1145.51 725.798 1140.08 734.433C1134.63 742.625 1125.84 750.502 1113.71 758.063C1102.03 765.608 1086.76 772.181 1067.9 777.784C1049.05 783.386 1026.34 786.697 999.764 787.717Z" fill="#8C7BF9"/>
</svg>
