<svg width="1047" height="1172" viewBox="0 0 1047 1172" fill="none" xmlns="http://www.w3.org/2000/svg">
<g clip-path="url(#clip0_4090_2647)">
<path d="M385.421 44.8921C362.804 16.3723 329.926 -0.838846 282.982 4.12591C192.568 13.6141 47.4317 58.8485 9.36853 263.396C-28.6946 468 71.2073 682.091 90.2389 855.747C109.27 1029.4 156.822 1131.68 235.375 1160.25C313.874 1188.83 380.512 1160.25 406.659 1096.04C432.807 1031.83 380.512 741.558 397.171 613.136C413.831 484.659 425.691 363.354 430.49 234.877C432.752 174.252 423.87 93.2708 385.476 44.8921H385.421Z" fill="#F24045"/>
<path d="M36.7292 589.304C36.7292 589.304 24.8138 644.027 35.5156 666.644C46.2174 689.262 77.1644 768.918 103.312 797.493C129.46 826.068 144.961 851.002 159.193 833.184C173.481 815.366 152.077 776.09 129.46 743.984C106.843 711.879 71.1515 676.188 61.6633 623.837C52.1751 571.486 55.7056 538.223 55.7056 538.223L36.674 589.36L36.7292 589.304Z" fill="#E25AD6"/>
<path d="M382.881 542.912C381.667 548.87 392.369 667.803 381.667 692.793C370.965 717.782 319.828 773.663 317.456 787.95C315.084 802.238 321.042 821.269 336.488 810.568C351.934 799.866 385.253 767.76 398.327 695.165C411.401 622.624 403.071 580.975 403.071 580.975L382.826 542.912H382.881Z" fill="#E25AD6"/>
<path d="M303.557 167.466C303.557 167.466 279.781 173.81 275.037 184.898C270.293 195.986 267.093 219.761 267.093 219.761C267.093 219.761 203.655 224.505 154.504 270.512C105.353 316.519 43.5137 435.452 37.1699 489.347C30.826 543.243 35.5701 643.2 35.5701 643.2C35.5701 643.2 81.5768 416.421 159.248 345.039C236.974 273.656 259.15 283.2 259.15 283.2C259.15 283.2 298.812 410.077 330.532 468.771C362.251 527.466 374.939 551.241 384.427 576.617C393.915 601.992 397.115 703.494 397.115 703.494C397.115 703.494 420.89 616.28 414.546 544.898C408.203 473.515 376.483 429.108 340.02 348.238C303.557 267.368 287.669 262.624 292.469 240.393C297.213 218.217 303.557 167.466 303.557 167.466Z" fill="#FF87F1"/>
<path d="M385.421 44.8921C362.804 16.3723 329.926 -0.838846 282.982 4.12591C192.568 13.6141 47.4317 58.8485 9.36853 263.396C-28.6946 468 71.2073 682.091 90.2389 855.747C109.27 1029.4 156.822 1131.68 235.375 1160.25C313.874 1188.83 380.512 1160.25 406.659 1096.04C432.807 1031.83 380.512 741.558 397.171 613.136C413.831 484.659 425.691 363.354 430.49 234.877C432.752 174.252 423.87 93.2708 385.476 44.8921H385.421Z" fill="#05DB5F"/>
<path d="M36.7292 589.304C36.7292 589.304 24.8138 644.027 35.5156 666.644C46.2174 689.262 77.1644 768.918 103.312 797.493C129.46 826.068 144.961 851.002 159.193 833.184C173.481 815.366 152.077 776.09 129.46 743.984C106.843 711.879 71.1515 676.188 61.6633 623.837C52.1751 571.486 55.7056 538.223 55.7056 538.223L36.674 589.36L36.7292 589.304Z" fill="#D605D8"/>
<path d="M382.881 542.912C381.667 548.87 392.369 667.803 381.667 692.793C370.965 717.782 319.828 773.663 317.456 787.95C315.084 802.238 321.042 821.269 336.488 810.568C351.934 799.866 385.253 767.76 398.327 695.165C411.401 622.624 403.071 580.975 403.071 580.975L382.826 542.912H382.881Z" fill="#D605D8"/>
<path d="M303.556 167.466C303.556 167.466 279.78 173.81 275.036 184.898C270.292 195.986 267.092 219.761 267.092 219.761C267.092 219.761 204.481 225.443 154.503 270.512C103.09 316.85 28.8393 437.824 37.1691 489.347C45.8298 542.967 35.5693 643.2 35.5693 643.2C35.5693 643.2 81.5761 416.421 159.247 345.039C236.973 273.656 259.149 283.2 259.149 283.2C259.149 283.2 298.812 410.077 330.531 468.771C362.25 527.466 374.938 551.241 384.426 576.617C393.914 601.992 397.114 703.494 397.114 703.494C397.114 703.494 420.89 616.28 414.546 544.898C408.202 473.515 376.483 429.108 340.019 348.238C303.556 267.368 287.669 262.624 292.468 240.393C297.212 218.217 303.556 167.466 303.556 167.466Z" fill="#FF2CED"/>
<path d="M661.514 41.6938C684.131 13.1741 717.064 -4.03709 763.953 0.927667C854.367 10.4159 999.448 55.6503 1037.51 260.253C1075.57 464.856 975.672 678.948 956.641 852.604C937.609 1026.26 890.058 1128.53 811.505 1157.11C733.006 1185.68 666.368 1157.11 640.221 1092.9C614.073 1028.69 666.368 738.415 649.709 609.993C633.049 481.571 621.189 360.21 616.39 231.734C614.128 171.108 623.009 90.1278 661.403 41.749L661.514 41.6938Z" fill="#05DB5F"/>
<path d="M1010.21 586.162C1010.21 586.162 1022.12 640.885 1011.42 663.502C1000.72 686.119 969.773 765.776 943.625 794.351C917.478 822.926 901.976 847.86 887.744 830.042C873.457 812.224 894.86 772.947 917.477 740.842C940.095 708.737 975.786 673.046 985.274 620.695C994.762 568.344 991.232 535.081 991.232 535.081L1010.26 586.218L1010.21 586.162Z" fill="#D605D8"/>
<path d="M664.053 539.77C665.267 545.727 654.565 664.661 665.267 689.65C675.968 714.639 727.105 770.52 729.477 784.808C731.85 799.095 725.892 818.127 710.446 807.425C695 796.723 661.681 764.618 648.607 692.022C635.533 619.481 643.863 577.833 643.863 577.833L664.108 539.77H664.053Z" fill="#D605D8"/>
<path d="M743.379 164.268C743.379 164.268 767.155 170.612 771.899 181.7C776.643 192.788 779.843 216.563 779.843 216.563C779.843 216.563 843.281 221.308 892.432 267.314C941.584 313.321 1003.42 432.255 1009.77 486.15C1016.11 540.045 1011.37 640.002 1011.37 640.002C1011.37 640.002 965.359 413.223 887.688 341.841C810.018 270.459 787.786 280.002 787.786 280.002C787.786 280.002 748.124 406.879 716.404 465.574C684.685 524.268 671.997 548.044 662.509 573.419C653.021 598.794 649.821 700.296 649.821 700.296C649.821 700.296 626.046 613.082 632.39 541.7C638.733 470.318 670.453 425.911 706.916 345.04C743.379 264.17 759.267 259.426 754.467 237.195C749.723 215.019 743.379 164.268 743.379 164.268Z" fill="#FF2CED"/>
</g>
<defs>
<clipPath id="clip0_4090_2647">
<rect width="1045.3" height="1171.24" fill="white" transform="translate(0.81543 0.0996094)"/>
</clipPath>
</defs>
</svg>
