<svg width="877" height="1387" viewBox="0 0 877 1387" fill="none" xmlns="http://www.w3.org/2000/svg">
<g clip-path="url(#clip0_4090_3672)">
<path d="M874.039 791.256C868.406 772.779 851.055 758.02 831 751.147C853.646 741.12 871.56 722.192 874.94 699.884C880.799 660.676 840.014 621.243 795.285 622.933C819.847 602.766 827.057 567.952 812.185 541.363C797.313 514.773 761.598 498.775 728.587 503.845C758.218 488.071 771.175 452.131 758.218 423.852C758.669 422.162 759.232 420.472 759.57 418.669C813.312 421.035 857.477 356.252 835.507 307.017C818.72 269.386 769.259 254.627 731.742 268.26C756.528 242.347 767.119 202.125 756.303 167.424C741.769 120.892 692.872 88.6699 644.087 89.9092C610.851 90.6979 579.192 106.02 555.644 129.568C548.321 127.314 540.66 125.962 532.886 125.737C528.154 66.1366 480.609 9.46554 420.445 1.69158C346.085 -7.88505 271.388 59.4893 273.416 134.525C240.292 98.5845 173.255 104.105 146.441 145.003C119.626 185.901 141.258 249.557 187.564 265.668C139.23 267.358 102.501 318.396 105.318 366.73C107.796 408.867 133.822 446.16 167.735 471.96C151.623 482.664 138.779 497.197 131.681 513.872C117.711 546.433 125.935 585.528 152.187 611.554C96.5296 611.779 44.8159 653.127 38.9572 702.137C33.0986 751.147 73.8837 801.058 128.301 811.649C101.036 835.421 99.5716 878.46 125.26 903.697C150.947 928.822 199.507 931.976 229.025 910.344C221.702 945.496 249.305 983.465 288.4 992.253C327.495 1001.04 372.224 979.296 384.842 945.384C406.249 977.831 453.569 994.957 494.467 985.155C535.477 975.353 566.46 939.525 566.46 901.894C571.53 930.962 604.316 954.171 637.553 952.143C670.789 950.115 699.632 923.188 700.082 893.67C740.98 901.106 785.596 900.993 822.325 883.304C859.054 865.616 884.742 826.859 873.926 791.143L874.039 791.256Z" fill="#998A30"/>
<path d="M556.66 706.301C523.086 758.24 471.147 856.823 475.766 943.238C476.217 952.364 477.231 963.856 478.808 976.925C479.935 987.516 481.399 999.12 483.089 1011.63C499.088 1128.91 534.24 1315.26 534.24 1315.26H320.85C354.875 1254.87 373.353 1185.36 382.479 1117.08C385.521 1094.44 387.549 1072.02 388.675 1050.05C396.449 907.973 370.536 786.745 370.536 786.745C303.387 786.745 277.136 758.916 250.997 740.326C239.956 732.439 248.293 717.568 259.109 725.792C303.5 759.141 359.269 761.282 359.269 761.282C321.864 665.741 274.206 642.532 247.054 626.533C233.647 618.647 241.646 602.085 255.504 608.845C393.858 662.924 416.278 804.997 416.278 804.997C454.923 608.732 527.142 517.134 527.142 517.134C533.902 507.558 546.746 516.458 539.873 526.148C485.568 607.38 467.204 736.834 496.159 740.664C516.101 743.255 540.662 698.189 540.662 698.189C546.408 687.035 562.294 695.26 556.66 706.301Z" fill="#4E1D4F"/>
<path d="M483.089 1011.63C456.95 1006.9 431.938 997.771 408.842 979.406C432.164 979.406 455.486 984.702 478.807 976.928C479.934 987.518 481.399 999.123 483.089 1011.63Z" fill="#642168"/>
<path d="M487.708 1069.54C456.387 1095.57 420.221 1109.65 382.478 1117.09C385.52 1094.44 387.548 1072.02 388.675 1050.05C418.982 1059.85 450.866 1069.54 487.708 1069.54Z" fill="#642168"/>
<path d="M483.314 870.567C486.469 857.273 490.299 843.978 494.806 831.021C469.343 836.88 442.304 844.429 420.108 866.624C442.754 862.117 463.485 864.934 483.314 870.567Z" fill="#642168"/>
<path d="M341.352 708.889C348.675 701.566 357.351 696.721 366.364 693.341C362.421 688.046 358.252 682.863 353.745 677.681C349.126 687.821 333.015 692.215 341.352 708.889Z" fill="#642168"/>
<path d="M499.086 765.218C476.327 750.121 453.681 729.841 441.288 704.491C436.556 720.152 432.049 737.052 427.655 754.74C446.133 769.049 467.201 778.062 499.198 765.218H499.086Z" fill="#642168"/>
<path d="M691.857 1302.2C672.591 1291.94 638.227 1295.66 617.046 1299.49C640.368 1265.02 625.947 1208.12 589.668 1191.78C553.502 1175.33 506.633 1204.4 500.887 1246.88C506.746 1200.23 492.099 1149.53 458.75 1119.9C425.401 1090.27 373.349 1085.99 339.324 1114.72C311.834 1137.93 301.243 1182.43 313.411 1217.02C296.962 1198.32 269.809 1190.32 247.726 1200.68C218.095 1214.65 204.35 1258.82 220.011 1289.8C198.829 1269.97 176.183 1250.59 149.369 1242.03C122.667 1233.47 90.7825 1237.75 71.6292 1259.95C54.166 1280.23 53.3773 1316.5 71.4039 1334.87C0.762184 1322.93 -10.0538 1386.36 8.53615 1386.36C93.3738 1386.36 607.47 1384.44 712.7 1384.44C734.219 1384.44 736.923 1326.31 691.744 1302.31L691.857 1302.2Z" fill="#DD6480"/>
</g>
<defs>
<clipPath id="clip0_4090_3672">
<rect width="875.979" height="1385.46" fill="white" transform="translate(0.536133 0.900391)"/>
</clipPath>
</defs>
</svg>
