<svg width="969" height="942" viewBox="0 0 969 942" fill="none" xmlns="http://www.w3.org/2000/svg">
<g clip-path="url(#clip0_4090_3335)">
<path d="M966.147 644.135C939.612 679.788 726.204 566.067 489.438 389.951C252.773 213.939 82.3954 42.229 108.931 6.57563C135.466 -29.0777 348.873 84.6441 585.64 260.759C822.305 436.874 992.682 608.482 966.147 644.238V644.135Z" fill="#B9D6EF"/>
<path d="M966.147 644.135C939.612 679.788 726.204 566.067 489.438 389.951C252.773 213.939 82.3954 42.229 108.931 6.57563C135.466 -29.0777 348.873 84.6441 585.64 260.759C822.305 436.874 992.682 608.482 966.147 644.238V644.135Z" fill="#96BBE2"/>
<path d="M619.038 445.279C648.134 409.728 674.874 371.923 693.418 344.261C659.506 316.906 623.443 288.834 585.536 260.763C548.448 233.203 511.975 207.078 476.629 182.899L405.63 288.425C254.718 166.302 154.315 59.6491 108.416 7.50098C87.9261 40.7979 218.757 178.391 412.289 330.84C413.212 331.557 414.134 332.274 415.056 332.991C421.715 338.216 428.477 343.441 435.239 348.769C436.98 350.101 438.62 351.433 440.361 352.765C446.508 357.477 452.758 362.293 459.008 367.005C461.057 368.542 463.003 370.079 465.052 371.616C473.146 377.66 481.24 383.808 489.436 389.852C498.042 396.204 506.545 402.556 515.151 408.703C517.508 410.445 519.864 412.084 522.221 413.826C528.675 418.436 535.027 423.047 541.379 427.657C543.735 429.296 546.092 431.038 548.346 432.677C555.415 437.697 562.382 442.615 569.349 447.533C570.68 448.455 572.115 449.479 573.447 450.401C774.663 591.068 942.684 675.386 966.043 643.933C966.248 643.728 966.35 643.319 966.453 643.114C837.056 581.13 721.08 513.205 618.935 445.074L619.038 445.279Z" fill="#7CA7CE"/>
<path d="M247.754 43.0461C240.07 53.3938 226.854 56.6723 218.35 50.3202C209.847 43.9682 209.129 30.4445 216.813 20.0969C224.497 9.7492 237.714 6.47073 246.217 12.8228C254.721 19.1748 255.438 32.6985 247.754 43.0461Z" fill="#F8F879"/>
<path d="M318.033 79.925C310.349 90.2727 297.133 93.5512 288.629 87.1991C280.126 80.8471 279.409 67.3234 287.195 56.9758C294.879 46.6281 308.095 43.3496 316.599 49.7017C325.102 56.0537 325.819 69.5774 318.135 79.925H318.033Z" fill="#F8F879"/>
<path d="M392.511 118.144C384.827 128.491 371.611 131.77 363.107 125.418C354.604 119.066 353.886 105.542 361.673 95.1945C369.357 84.8469 382.573 81.5684 391.077 87.9204C399.58 94.2724 400.297 107.796 392.613 118.144H392.511Z" fill="#F8F879"/>
<path d="M460.961 169.06C453.277 179.407 440.06 182.686 431.557 176.334C423.053 169.982 422.336 156.458 430.02 146.111C437.704 135.763 450.92 132.484 459.424 138.836C467.927 145.188 468.645 158.712 460.961 169.06Z" fill="#F8F879"/>
<path d="M356.154 938.889C345.191 953.642 257.083 906.617 159.241 833.876C61.5016 761.237 -8.88296 690.34 2.07942 675.587C13.0418 660.834 101.151 707.859 198.992 780.6C296.732 853.341 367.116 924.238 356.154 938.991V938.889Z" fill="#96BBE2"/>
<path d="M13.759 673.332C8.02164 672.512 3.92355 673.127 2.07942 675.585C-8.88296 690.339 61.5016 761.235 159.241 833.976C256.98 906.717 345.191 953.64 356.154 938.99C357.691 936.941 357.486 933.765 356.154 929.872C327.262 925.978 252.472 883.358 170.92 822.604C86.5 759.801 22.6723 698.535 13.8614 673.434L13.759 673.332Z" fill="#7CA7CE"/>
<path d="M701.731 292.516C633.088 384.826 158.838 938.374 109.148 901.492C59.459 864.506 453.182 251.126 521.928 158.816C590.571 66.507 686.568 21.5305 736.258 58.5157C785.947 95.501 770.477 200.207 701.834 292.619L701.731 292.516Z" fill="#B9D6EF"/>
<path d="M736.144 58.4131C725.284 50.3194 712.068 46.4262 697.519 45.8115C721.186 65.4823 740.959 98.7793 728.46 154.308C705.818 254.916 306.255 725.786 179.112 807.236C179.112 807.236 144.381 826.189 142.741 783.262C111.903 847.089 96.7404 892.066 109.137 901.287C158.826 938.169 633.077 384.723 701.72 292.311C770.363 200.002 785.833 95.1934 736.144 58.2082V58.4131Z" fill="#96BBE2"/>
<g clip-path="url(#clip1_4090_3335)">
<path d="M210.979 457.968C206.114 464.505 166.988 443.655 123.58 411.367C80.1904 379.097 48.9538 347.616 53.8187 341.08C58.6835 334.543 97.8092 355.393 141.217 387.681C184.607 419.97 215.844 451.432 210.979 457.987V457.968Z" fill="#B9D6EF"/>
<path d="M210.979 457.968C206.114 464.505 166.988 443.655 123.58 411.367C80.1904 379.097 48.9538 347.616 53.8187 341.08C58.6835 334.543 97.8092 355.393 141.217 387.681C184.607 419.97 215.844 451.432 210.979 457.987V457.968Z" fill="#96BBE2"/>
<path d="M147.341 421.51C152.675 414.992 157.577 408.061 160.977 402.99C154.76 397.975 148.148 392.828 141.198 387.681C134.399 382.629 127.712 377.839 121.232 373.406L108.215 392.753C80.547 370.363 62.1394 350.81 53.7244 341.249C49.9678 347.354 73.9541 372.58 109.436 400.529C109.605 400.661 109.774 400.792 109.943 400.924C111.164 401.882 112.404 402.84 113.643 403.816C113.963 404.06 114.263 404.305 114.582 404.549C115.709 405.413 116.855 406.296 118.001 407.16C118.377 407.441 118.734 407.723 119.109 408.005C120.593 409.113 122.077 410.24 123.58 411.348C125.157 412.513 126.716 413.678 128.294 414.805C128.726 415.124 129.158 415.424 129.59 415.744C130.774 416.589 131.938 417.434 133.103 418.279C133.535 418.58 133.967 418.899 134.38 419.2C135.676 420.12 136.953 421.022 138.231 421.923C138.475 422.092 138.738 422.28 138.982 422.449C175.872 448.239 206.677 463.698 210.96 457.931C210.997 457.893 211.016 457.818 211.035 457.781C187.311 446.417 166.049 433.964 147.322 421.473L147.341 421.51Z" fill="#7CA7CE"/>
<path d="M79.2705 347.766C77.8617 349.663 75.4387 350.264 73.8797 349.1C72.3206 347.935 72.1892 345.456 73.5979 343.559C75.0067 341.662 77.4297 341.06 78.9887 342.225C80.5477 343.39 80.6792 345.869 79.2705 347.766Z" fill="#F8F879"/>
<path d="M92.1553 354.527C90.7466 356.424 88.3235 357.025 86.7645 355.86C85.2055 354.696 85.074 352.216 86.5015 350.319C87.9103 348.422 90.3333 347.821 91.8923 348.986C93.4514 350.15 93.5828 352.63 92.1741 354.527H92.1553Z" fill="#F8F879"/>
<path d="M105.81 361.534C104.401 363.431 101.978 364.032 100.419 362.867C98.8601 361.703 98.7286 359.223 100.156 357.326C101.565 355.429 103.988 354.828 105.547 355.993C107.106 357.157 107.237 359.637 105.829 361.534H105.81Z" fill="#F8F879"/>
<path d="M118.359 370.87C116.951 372.767 114.528 373.368 112.969 372.203C111.41 371.039 111.278 368.559 112.687 366.662C114.096 364.765 116.519 364.164 118.078 365.329C119.637 366.493 119.768 368.972 118.359 370.87Z" fill="#F8F879"/>
<path d="M99.144 512.009C97.1342 514.714 80.9806 506.092 63.0425 492.756C45.1232 479.438 32.219 466.44 34.2289 463.736C36.2387 461.031 52.3923 469.652 70.3304 482.988C88.2497 496.325 101.154 509.323 99.144 512.028V512.009Z" fill="#96BBE2"/>
<path d="M36.3702 463.321C35.3183 463.17 34.567 463.283 34.2289 463.734C32.219 466.439 45.1232 479.437 63.0425 492.773C80.9618 506.109 97.1342 514.712 99.144 512.026C99.4258 511.65 99.3882 511.068 99.144 510.354C93.8471 509.64 80.1353 501.826 65.1838 490.688C49.7063 479.174 38.0043 467.941 36.3889 463.339L36.3702 463.321Z" fill="#7CA7CE"/>
<path d="M162.501 393.503C149.917 410.427 62.9685 511.913 53.8586 505.151C44.7487 498.371 116.933 385.915 129.537 368.991C142.121 352.067 159.721 343.821 168.831 350.602C177.941 357.383 175.105 376.579 162.52 393.522L162.501 393.503Z" fill="#B9D6EF"/>
<path d="M168.81 350.583C166.819 349.099 164.396 348.385 161.729 348.272C166.068 351.879 169.693 357.983 167.402 368.164C163.251 386.609 89.9956 472.937 66.6855 487.87C66.6855 487.87 60.318 491.345 60.0175 483.475C54.3637 495.177 51.5837 503.423 53.8565 505.113C62.9664 511.875 149.914 410.408 162.499 393.465C175.084 376.541 177.92 357.326 168.81 350.545V350.583Z" fill="#96BBE2"/>
</g>
<g clip-path="url(#clip2_4090_3335)">
<path d="M992.148 253.762C987.283 260.299 948.158 239.449 904.75 207.161C861.36 174.891 830.123 143.41 834.988 136.874C839.853 130.337 878.979 151.186 922.387 183.475C965.777 215.764 997.013 247.226 992.148 253.781V253.762Z" fill="#B9D6EF"/>
<path d="M992.148 253.762C987.283 260.299 948.158 239.449 904.75 207.161C861.36 174.891 830.123 143.41 834.988 136.874C839.853 130.337 878.979 151.186 922.387 183.475C965.777 215.764 997.013 247.226 992.148 253.781V253.762Z" fill="#96BBE2"/>
<path d="M928.51 217.304C933.844 210.786 938.747 203.855 942.147 198.784C935.929 193.769 929.318 188.622 922.368 183.475C915.568 178.423 908.881 173.633 902.401 169.2L889.384 188.547C861.717 166.157 843.309 146.604 834.894 137.043C831.137 143.148 855.124 168.374 890.605 196.323C890.774 196.455 890.943 196.586 891.112 196.718C892.333 197.676 893.573 198.633 894.813 199.61C895.132 199.854 895.433 200.099 895.752 200.343C896.879 201.207 898.025 202.09 899.17 202.954C899.546 203.235 899.903 203.517 900.279 203.799C901.763 204.907 903.246 206.034 904.749 207.142C906.327 208.307 907.886 209.471 909.464 210.598C909.896 210.918 910.328 211.218 910.76 211.538C911.943 212.383 913.108 213.228 914.272 214.073C914.704 214.374 915.136 214.693 915.55 214.994C916.846 215.914 918.123 216.816 919.4 217.717C919.644 217.886 919.907 218.074 920.151 218.243C957.042 244.033 987.847 259.491 992.129 253.725C992.167 253.687 992.186 253.612 992.204 253.575C968.481 242.211 947.218 229.757 928.491 217.267L928.51 217.304Z" fill="#7CA7CE"/>
<path d="M860.44 143.56C859.031 145.457 856.608 146.058 855.049 144.894C853.49 143.729 853.359 141.25 854.767 139.353C856.176 137.455 858.599 136.854 860.158 138.019C861.717 139.184 861.849 141.663 860.44 143.56Z" fill="#F8F879"/>
<path d="M873.325 150.321C871.916 152.218 869.493 152.819 867.934 151.654C866.375 150.49 866.244 148.01 867.671 146.113C869.08 144.216 871.503 143.615 873.062 144.78C874.621 145.944 874.752 148.424 873.344 150.321H873.325Z" fill="#F8F879"/>
<path d="M886.979 157.328C885.571 159.225 883.147 159.826 881.588 158.661C880.029 157.497 879.898 155.017 881.326 153.12C882.734 151.223 885.157 150.622 886.716 151.787C888.275 152.951 888.407 155.43 886.998 157.328H886.979Z" fill="#F8F879"/>
<path d="M899.529 166.664C898.12 168.561 895.697 169.162 894.138 167.997C892.579 166.833 892.447 164.353 893.856 162.456C895.265 160.559 897.688 159.958 899.247 161.122C900.806 162.287 900.938 164.766 899.529 166.664Z" fill="#F8F879"/>
<path d="M880.314 307.802C878.304 310.507 862.15 301.885 844.212 288.549C826.293 275.231 813.389 262.233 815.398 259.529C817.408 256.824 833.562 265.445 851.5 278.781C869.419 292.118 882.323 305.116 880.314 307.82V307.802Z" fill="#96BBE2"/>
<path d="M817.54 259.115C816.488 258.964 815.737 259.077 815.398 259.528C813.389 262.233 826.293 275.231 844.212 288.567C862.131 301.903 878.304 310.506 880.314 307.82C880.595 307.444 880.558 306.862 880.314 306.148C875.017 305.434 861.305 297.62 846.353 286.482C830.876 274.968 819.174 263.735 817.558 259.133L817.54 259.115Z" fill="#7CA7CE"/>
<path d="M943.671 189.297C931.086 206.221 844.138 307.707 835.028 300.945C825.918 294.164 898.103 181.709 910.706 164.785C923.291 147.861 940.891 139.615 950.001 146.396C959.111 153.177 956.275 172.373 943.69 189.316L943.671 189.297Z" fill="#B9D6EF"/>
<path d="M949.98 146.377C947.989 144.893 945.566 144.179 942.899 144.066C947.238 147.673 950.863 153.777 948.571 163.958C944.42 182.403 871.165 268.731 847.855 283.664C847.855 283.664 841.488 287.139 841.187 279.269C835.533 290.971 832.753 299.217 835.026 300.907C844.136 307.669 931.084 206.202 943.669 189.259C956.254 172.335 959.09 153.12 949.98 146.339V146.377Z" fill="#96BBE2"/>
</g>
</g>
<defs>
<clipPath id="clip0_4090_3335">
<rect width="967.967" height="941.637" fill="white" transform="translate(0.954468 0.0166016)"/>
</clipPath>
<clipPath id="clip1_4090_3335">
<rect width="177.465" height="172.638" fill="white" transform="translate(34.0226 339.877)"/>
</clipPath>
<clipPath id="clip2_4090_3335">
<rect width="177.465" height="172.638" fill="white" transform="translate(815.192 135.67)"/>
</clipPath>
</defs>
</svg>
