<svg width="1661" height="917" viewBox="0 0 1661 917" fill="none" xmlns="http://www.w3.org/2000/svg">
<g clip-path="url(#clip0_4090_2519)">
<path d="M696.08 6.80786C621.078 21.5116 546.204 62.6564 512.283 126.695C461.658 222.399 481.327 475.651 481.327 475.651C481.327 475.651 137.982 661.383 101.416 683.89C64.8497 706.397 0.101562 731.742 0.101562 731.742C0.101562 731.742 62.0121 889.356 188.671 903.415C315.33 917.474 436.313 925.922 517.958 897.804C599.538 869.687 664.286 844.342 754.379 852.79C844.407 861.238 1021.76 858.401 1151.19 818.997C1280.62 779.594 1460.74 681.117 1514.2 605.148C1567.66 529.178 1660.53 413.805 1660.53 413.805L1111.78 354.732C1111.78 354.732 1069.54 157.715 982.352 81.7455C929.792 36.0219 858.208 11.7091 789.719 2.87395C760.699 -0.866477 728.454 0.552307 696.209 6.87235L696.08 6.80786Z" fill="#E0CE55"/>
<path d="M475.009 494.676C475.009 494.676 624.175 536.918 732.518 521.44C840.862 505.962 933.728 487.647 987.19 459.529C1040.65 431.412 1105.4 373.693 1105.4 373.693H1122.3C1122.3 373.693 1068.83 444.052 987.19 475.007C905.61 505.962 783.143 546.785 662.159 542.528C541.176 538.336 459.531 503.125 459.531 503.125L475.009 494.676Z" fill="#A08A24"/>
<path d="M937.599 483.391C937.599 483.391 856.342 490.807 825.709 522.407C795.076 554.072 780.308 588.897 797.204 609.985C814.101 631.073 851.054 614.177 883.75 587.8C916.447 561.424 943.919 509.703 943.919 509.703L937.599 483.326V483.391ZM883.75 561.488C864.725 579.803 823.258 609.34 815.519 603.729C807.781 598.119 802.879 574.902 826.805 545.366C850.731 515.829 921.799 494.032 921.799 494.032C921.799 494.032 928.119 503.189 928.119 507.381C928.119 511.573 902.775 543.238 883.815 561.553L883.75 561.488Z" fill="#A08A24"/>
<path d="M962.362 505.447C962.362 505.447 1017.57 524.858 1059.55 522.021C1101.47 519.247 1140.1 506.543 1138.16 479.586C1136.23 452.629 1101.79 437.022 1057.81 434.572C1013.83 432.057 949.142 481.779 949.142 481.779L962.362 505.447ZM972.294 492.871C969.456 489.775 967.908 478.748 967.908 478.748C967.908 478.748 1034.91 446.567 1072.51 452.049C1110.11 457.53 1122.23 477.909 1120.36 487.325C1118.49 496.74 1067.93 503.125 1041.56 502.609C1015.18 502.029 975.131 495.966 972.229 492.871H972.294Z" fill="#A08A24"/>
<path d="M951.978 474.235L936.5 481.264C936.5 481.264 946.367 571.293 937.919 607.923C929.471 644.489 901.353 734.582 901.353 734.582L932.308 666.351L914.703 757.798C914.703 757.798 939.338 692.341 946.367 649.455C953.397 606.569 953.397 521.442 953.397 521.442C953.397 521.442 998.411 588.254 1032.2 627.657C1066 667.061 1087.08 705.755 1087.08 703.626C1087.08 701.498 1069.48 650.873 1069.48 653.002C1069.48 655.13 1106.04 695.888 1106.04 695.888C1106.04 695.888 1048.33 595.992 1012.47 560.781C976.613 525.634 964.618 498.161 964.618 498.161L951.978 474.235Z" fill="#A08A24"/>
</g>
<defs>
<clipPath id="clip0_4090_2519">
<rect width="1660.36" height="915.696" fill="white" transform="translate(0.102051 0.745605)"/>
</clipPath>
</defs>
</svg>
