<svg width="993" height="775" viewBox="0 0 993 775" fill="none" xmlns="http://www.w3.org/2000/svg">
<g clip-path="url(#clip0_4090_2787)">
<path d="M51.6506 187.533C51.6506 187.533 31.9582 85.766 51.6506 75.5802C126.482 36.7839 800.054 -22.7914 823.503 9.07865C846.908 40.9487 856.098 119.22 856.098 119.22L51.6506 187.533Z" fill="#2DFF7E"/>
<path d="M51.6525 187.533C51.6525 187.533 -23.6314 664 7.55959 721.221C38.7959 778.487 494.257 782.154 494.257 765.54C494.257 748.926 510.78 471.919 534.683 470.063C558.54 468.207 608.156 756.305 619.157 758.161C630.157 760.017 986.477 710.13 992 687.993C997.523 665.856 931.384 233.709 856.1 119.176C815.674 87.7583 70.0321 141.358 51.6525 187.488V187.533Z" fill="#32A8B3"/>
<path d="M992.315 615.563C992.315 615.563 989.599 614.477 984.664 612.802C984.936 614.658 985.162 616.423 985.434 618.234C989.825 616.559 992.315 615.518 992.315 615.518V615.563Z" fill="#3FD5E3"/>
<path d="M199.954 203.287C199.954 203.287 85.1952 327.327 65.9102 393.24L98.7761 412.978L233.952 225.334L199.954 203.242V203.287Z" fill="#2DFF7E"/>
<path d="M691.634 167.614L678.823 203.287C678.823 203.287 879.052 281.966 902.819 323.569C901.959 316.552 910.243 280.563 910.243 280.563C910.243 280.563 796.706 180.743 691.634 167.66V167.614Z" fill="#2DFF7E"/>
<path d="M362.024 60.3249C362.024 60.3249 295.884 168.973 308.288 221.984C320.692 274.995 373.024 327.644 362.024 370.56H406.117C406.117 370.56 362.024 268.703 349.62 242.039C337.216 215.42 362.024 107.813 377.189 93.7342C392.355 79.6552 372.753 41.3568 362.024 60.2797V60.3249Z" fill="#78F9FF"/>
<path d="M530.113 39.772C530.113 39.772 643.967 123.838 626.538 194.912C609.109 265.986 592.45 308.495 600.281 335.249H568.683C568.683 335.249 547.542 273.365 558.588 240.137C569.634 206.909 599.014 189.344 589.824 163.495C580.634 137.646 534.731 79.4737 534.731 76.7123C534.731 73.9508 511.779 41.5828 530.158 39.772H530.113Z" fill="#78F9FF"/>
</g>
<defs>
<clipPath id="clip0_4090_2787">
<rect width="992.317" height="774.162" fill="white" transform="translate(0 0.0249023)"/>
</clipPath>
</defs>
</svg>
