<svg width="1361" height="762" viewBox="0 0 1361 762" fill="none" xmlns="http://www.w3.org/2000/svg">
<g filter="url(#filter0_d_4090_3633)">
<path d="M92.2698 451.064H89.3935C81.2997 451.064 74.7445 444.509 74.7445 436.415V379.692C74.7445 371.598 81.2997 365.043 89.3935 365.043H92.2698L92.2698 451.064Z" fill="#4F381D"/>
<path d="M1230.28 480.225C1237.56 480.225 1243.46 471.301 1243.46 460.292C1243.46 449.283 1237.56 440.358 1230.28 440.358C1223 440.358 1217.1 449.283 1217.1 460.292C1217.1 471.301 1223 480.225 1230.28 480.225Z" fill="#991953"/>
<path d="M1221.78 485.447V435.212C1227.47 435.212 1232.02 439.827 1232.02 445.446V475.213C1232.02 480.898 1227.4 485.447 1221.78 485.447Z" fill="#3A2612"/>
<path d="M1261.31 382.906C1261.31 401.769 1251.21 417.087 1238.77 417.087C1226.33 417.087 1216.23 401.769 1216.23 382.906C1216.23 364.043 1226.33 348.725 1238.77 348.725C1251.21 348.725 1261.31 364.043 1261.31 382.906Z" fill="#FFBA00"/>
<path d="M1224.26 355.54V587.517H89.9253V338.818C89.9253 330.657 90.9287 322.563 92.8685 314.67L139.893 126.039C150.93 81.6232 190.796 50.4521 236.55 50.4521H990.006C1023.59 50.4521 1054.96 67.3755 1073.35 95.4696L1088.4 118.413L1208 300.958C1210.81 305.306 1213.35 309.854 1215.49 314.603C1221.25 327.38 1224.26 341.36 1224.26 355.474V355.54Z" fill="#991953"/>
<path d="M1082.45 109.388H145.58L146.65 94.0029H1081.78L1082.45 109.388Z" fill="#3A2612"/>
<path d="M1224.26 355.541V587.518H89.9253V338.818C89.9253 330.658 90.9287 322.564 92.8685 314.671H1215.49C1221.25 327.447 1224.26 341.427 1224.26 355.541Z" fill="#047C98"/>
<path d="M1224.26 559.963V587.522H89.9253V557.956C89.9253 557.02 90.9287 556.017 92.8685 555.08H1215.49C1221.25 556.619 1224.26 558.291 1224.26 559.963Z" fill="#991953"/>
<path d="M422.841 587.522H168.456C168.456 517.287 225.38 460.296 295.682 460.296C365.984 460.296 422.908 517.22 422.908 587.522H422.841Z" fill="#3A2612"/>
<path d="M1151.88 587.522H897.499C897.499 517.287 954.423 460.296 1024.72 460.296C1095.03 460.296 1151.95 517.22 1151.95 587.522H1151.88Z" fill="#3A2612"/>
<path d="M385.815 628.11C408.241 578.327 386.063 519.79 336.28 497.364C286.496 474.938 227.959 497.116 205.534 546.899C183.108 596.683 205.286 655.22 255.069 677.646C304.852 700.071 363.389 677.894 385.815 628.11Z" fill="#4F381D"/>
<path d="M344.249 587.52C344.249 614.343 322.51 636.082 295.687 636.082C268.864 636.082 247.124 614.343 247.124 587.52C247.124 560.696 268.864 538.957 295.687 538.957C322.51 538.957 344.249 560.696 344.249 587.52Z" fill="white"/>
<path d="M328.124 587.52C328.124 605.447 313.608 619.962 295.682 619.962C277.755 619.962 263.24 605.447 263.24 587.52C263.24 569.593 277.755 555.078 295.682 555.078C313.608 555.078 328.124 569.593 328.124 587.52Z" fill="#FFBA00"/>
<path d="M1060.74 679.611C1111.58 659.706 1136.66 602.353 1116.75 551.509C1096.85 500.665 1039.5 475.584 988.653 495.489C937.809 515.394 912.728 572.747 932.633 623.591C952.538 674.435 1009.89 699.516 1060.74 679.611Z" fill="#4F381D"/>
<path d="M1024.73 636.082C1051.55 636.082 1073.29 614.34 1073.29 587.52C1073.29 560.699 1051.55 538.957 1024.73 538.957C997.905 538.957 976.162 560.699 976.162 587.52C976.162 614.34 997.905 636.082 1024.73 636.082Z" fill="white"/>
<path d="M1024.72 619.963C1042.64 619.963 1057.17 605.438 1057.17 587.521C1057.17 569.604 1042.64 555.079 1024.72 555.079C1006.81 555.079 992.283 569.604 992.283 587.521C992.283 605.438 1006.81 619.963 1024.72 619.963Z" fill="#FFBA00"/>
<path d="M1075.36 105.44H148.12C131.531 105.44 152.066 48.1143 168.655 48.1143H1042.78C1075.36 48.1143 1107.93 105.44 1075.36 105.44Z" fill="#FFBA00"/>
<path d="M1269.81 587.521H1191.68C1173.96 587.521 1173.96 501.031 1191.68 501.031H1269.81C1291.55 501.031 1291.55 587.521 1269.81 587.521Z" fill="#FFBA00"/>
<path d="M139.025 587.521H60.8969C43.1709 587.521 43.1709 501.031 60.8969 501.031H139.025C160.765 501.031 160.765 587.521 139.025 587.521Z" fill="#FFBA00"/>
<path d="M1208 301.025H1166.06C1156.77 301.025 1148.14 296.142 1143.32 288.182L1065.66 158.548C1055.09 140.889 1067.8 118.48 1088.4 118.48L1208 301.025Z" fill="#D9F7FF"/>
<path d="M569.334 291.193H178.291C163.776 291.193 152.873 277.882 155.749 263.701L179.161 147.512C181.302 136.809 190.733 129.05 201.703 129.05H569.334C582.044 129.05 592.278 139.351 592.278 151.993V268.182C592.278 280.892 581.977 291.126 569.334 291.126V291.193Z" fill="white"/>
<path d="M834.156 128.983H642.247C633.861 128.983 627.063 135.782 627.063 144.168V275.942C627.063 284.328 633.861 291.126 642.247 291.126H834.156C842.542 291.126 849.341 284.328 849.341 275.942V144.168C849.341 135.782 842.542 128.983 834.156 128.983Z" fill="white"/>
<path d="M1089.07 291.193H901.446C894.49 291.193 888.804 285.574 888.804 278.551V141.626C888.804 134.669 894.423 128.983 901.446 128.983H1008.81C1013.29 128.983 1017.43 131.325 1019.71 135.204L1099.98 272.129C1104.93 280.558 1098.84 291.126 1089.07 291.126V291.193Z" fill="white"/>
<g opacity="0.2">
<path d="M1104.66 143.303C1093.02 150.661 1081.38 158.019 1069.74 165.377L1102.65 220.294C1117.44 216.013 1132.35 212.133 1147.4 208.588L1104.66 143.303Z" fill="#047C98"/>
</g>
<g opacity="0.2">
<path d="M569.335 128.983H412.142C332.609 183.232 251.738 236.008 170.599 289.722C173.007 290.591 175.482 291.126 178.225 291.126H347.86C422.978 235.206 500.036 182.095 578.633 130.99C575.756 129.719 572.612 128.983 569.268 128.983H569.335Z" fill="#047C98"/>
</g>
<g opacity="0.2">
<path d="M849.335 144.168C849.335 135.806 842.512 128.983 834.15 128.983H810.203C748.731 178.416 688.596 229.319 628.662 282.698C631.137 287.715 636.221 291.193 642.241 291.193H692.944C743.179 244.57 795.822 201.627 849.335 160.088V144.168Z" fill="#047C98"/>
</g>
<g opacity="0.2">
<path d="M1046.13 180.289C993.689 213.4 941.18 246.645 889.072 281.093C890.276 286.846 895.36 291.194 901.447 291.194H947.534C987.067 263.501 1029.88 243.902 1074.63 228.985L1046.13 180.356V180.289Z" fill="#047C98"/>
</g>
<path d="M1224.26 339.893H1227.13C1235.23 339.893 1241.78 346.448 1241.78 354.542V411.265C1241.78 419.359 1235.23 425.914 1227.13 425.914H1224.26V339.893Z" fill="#3A2612"/>
<path d="M1031.81 373.407H89.9253V348.725H1031.81C1049.87 348.725 1049.87 373.407 1031.81 373.407Z" fill="#991953"/>
<path d="M774.15 420.427H89.9253V395.744H774.15C792.21 395.744 792.21 420.427 774.15 420.427Z" fill="#991953"/>
<path d="M890.075 546.851H874.957C868.803 546.851 863.786 541.834 863.786 535.68V131.058C863.786 122.697 870.609 115.874 878.971 115.874H1021.72C1027.2 115.874 1032.28 118.884 1034.96 123.7L1124.19 284.439C1125.46 286.646 1126.13 289.255 1126.13 291.796V421.966C1126.13 426.113 1124.53 429.993 1121.52 432.869C1118.57 435.745 1114.63 437.284 1110.55 437.15C1086.2 436.481 1023.86 437.016 971.28 457.284C917.901 477.819 904.389 520.496 901.045 537.887C900.041 543.105 895.426 546.918 890.075 546.918V546.851ZM878.971 121.025C873.419 121.025 868.937 125.506 868.937 131.058V535.747C868.937 539.024 871.613 541.767 874.957 541.767H890.075C892.951 541.767 895.426 539.76 895.961 536.951C899.439 518.757 913.62 474.007 969.407 452.535C1022.85 431.932 1086 431.397 1110.68 432.066C1113.36 432.2 1115.96 431.13 1117.9 429.257C1119.84 427.317 1120.91 424.775 1120.91 422.033V291.863C1120.91 290.191 1120.45 288.452 1119.64 286.98L1030.41 126.242C1028.67 123.031 1025.26 121.092 1021.65 121.092H878.904L878.971 121.025Z" fill="#3A2612"/>
</g>
<defs>
<filter id="filter0_d_4090_3633" x="20.8461" y="21.358" width="1318.78" height="718.595" filterUnits="userSpaceOnUse" color-interpolation-filters="sRGB">
<feFlood flood-opacity="0" result="BackgroundImageFix"/>
<feColorMatrix in="SourceAlpha" type="matrix" values="0 0 0 0 0 0 0 0 0 0 0 0 0 0 0 0 0 0 127 0" result="hardAlpha"/>
<feOffset dx="13.3781" dy="13.3781"/>
<feGaussianBlur stdDeviation="20.0672"/>
<feColorMatrix type="matrix" values="0 0 0 0 0 0 0 0 0 0 0 0 0 0 0 0 0 0 0.4 0"/>
<feBlend mode="normal" in2="BackgroundImageFix" result="effect1_dropShadow_4090_3633"/>
<feBlend mode="normal" in="SourceGraphic" in2="effect1_dropShadow_4090_3633" result="shape"/>
</filter>
</defs>
</svg>
