<svg width="1000" height="1000" viewBox="0 0 1000 1000" fill="none" xmlns="http://www.w3.org/2000/svg">
<g clip-path="url(#clip0_4231_2)">
<path d="M15.9551 673.511C17.563 673.511 19.1927 673.256 20.8006 672.732L159.712 627.319C182.462 641.477 298.572 719.972 302.61 849.418C302.647 850.466 303.156 851.382 303.389 852.379L255.589 946.619C251.689 954.302 254.759 963.694 262.449 967.594C264.705 968.744 267.12 969.289 269.492 969.289C275.181 969.289 280.674 966.168 283.425 960.741L333.997 861.044C375.875 850.953 521.705 820.469 601.954 862.507L643.111 988.402C645.265 994.986 651.376 999.17 657.946 999.17C659.554 999.17 661.184 998.915 662.791 998.391C670.984 995.707 675.458 986.896 672.781 978.704L661.817 945.164C679.067 906.021 766.213 723.217 891.366 715.862L946.674 743.916C948.93 745.065 951.345 745.611 953.717 745.611C959.407 745.611 964.9 742.49 967.65 737.062C971.549 729.379 968.479 719.987 960.789 716.087L904.396 687.487C892.705 614.143 878.285 443.75 927.212 376.415L988.436 356.401C996.628 353.716 1001.1 344.905 998.425 336.713C995.733 328.513 986.923 324.046 978.738 326.724L898.867 352.836C760.16 311.067 706.495 184.502 694.403 150.504L743.942 52.8372C747.842 45.1543 744.772 35.7616 737.082 31.8619C729.399 27.9404 720.013 31.0398 716.106 38.7227L666.516 136.491C519.726 225.325 406.825 131.049 390.92 116.592L356.442 11.054C353.75 2.85447 344.91 -1.61269 336.754 1.06469C328.562 3.74936 324.087 12.56 326.765 20.7522L362.349 129.608C360.909 190.686 329.508 240.502 268.575 277.592C225.861 303.595 182.492 314.363 173.048 316.509L52.8711 255.547C45.1954 251.64 35.7954 254.725 31.8958 262.408C27.9961 270.091 31.0664 279.484 38.7566 283.384L144.237 336.888C148.166 368.893 162.156 521.089 89.5614 617.424L11.1024 643.077C2.91014 645.762 -1.5643 654.573 1.11309 662.765C3.26664 669.349 9.37807 673.533 15.9478 673.533L15.9551 673.511ZM358.792 445.7L459.114 496.592L365.012 527.36C369.647 494.301 365.303 466.443 358.792 445.707V445.7ZM696.79 582.16L540.432 502.849L733.713 439.661C713.524 470.466 693.938 517.597 696.783 582.16H696.79ZM543.466 583.134L526.317 530.678L572.422 554.062C560.207 562.763 550.727 573.123 543.466 583.127V583.134ZM496.648 540.384L517.376 603.782C502.745 600.727 484.112 598.493 466.098 600.618L496.655 540.384H496.648ZM605.781 570.992L632.794 584.691C601.364 605.659 584.827 646.577 576.191 683.216L556.409 622.699C562.353 609.53 577.472 582.88 605.788 570.984L605.781 570.992ZM530.734 473.187L596.999 342.548C606.384 367.568 624.348 399.53 658.382 431.455L530.734 473.187ZM502.905 459.073L461.02 330.951C483.989 343.756 514.939 356.939 545.328 356.939C548.573 356.939 551.804 356.641 555.027 356.328L502.905 459.08V459.073ZM473.235 468.771L371.08 416.955C394.449 408.486 422.787 395.157 442.86 375.87L473.235 468.771ZM468.819 526.269L407.428 647.297C386.671 608.424 351.982 586.481 318.762 575.328L468.819 526.269ZM445.567 641.084L445.596 641.113C463.515 623.484 509.14 632.884 528.886 638.989L558.992 731.067C499.136 716.131 434.37 730.26 393.729 743.29L445.574 641.084H445.567ZM598.098 750.253C599.582 725.123 609.629 614.281 668.845 602.982L755.882 647.13C690.693 679.884 641.678 761.064 617.29 808.959L598.098 750.246V750.253ZM806.352 637.744L729.413 598.719C716.652 484.246 782.335 427.81 791.022 420.934L827.051 409.155C808.309 453.347 782.786 538.317 806.352 637.744ZM692.817 420.192C631.383 369.54 620.171 317.746 618.193 300.75L635.785 266.068C661.751 325.865 716.63 376.001 748.984 401.829L692.817 420.192ZM574.685 317.542C536.125 342.606 469.736 302.635 445.588 283.762L440.335 267.69C472.042 277.301 525.284 289.044 590.4 286.57L574.692 317.535L574.685 317.542ZM431.416 340.896C413.474 370.755 358.915 389.73 331.05 396.656L291.515 376.605C326.365 359.056 382.444 325.909 412.398 282.736L431.416 340.904V340.896ZM247.527 389.279L313.974 422.986C314.004 423.03 314.018 423.081 314.047 423.117C314.396 423.575 347.413 468.713 331.225 538.405L245.388 566.466C274.09 503.067 260.58 431.6 247.527 389.279ZM197.275 615.038L256.891 595.546L256.92 596.572C257.975 596.631 361.425 594.477 388.658 682.78L389.552 682.503L328.293 803.277C307.885 707.487 236.643 643.783 197.275 615.03V615.038ZM352.316 824.885L373.037 784.04C398.901 773.345 496.233 737.586 570.931 767.649L589.156 823.401C511.992 798.031 407.807 813.412 352.316 824.885ZM647.637 901.816L631.376 852.081C644.086 823.204 708.707 685.785 793.671 666.301L846.309 693.002C747.718 725.24 678.507 840.287 647.637 901.816ZM870.413 670.237L844.184 656.93C801.303 526.473 858.066 413.957 868.084 395.725L884.302 390.421C850.31 474.213 862.286 608.497 870.413 670.23V670.237ZM851.111 368.434L785.027 390.042C760.545 372.145 672.817 303.333 655.611 226.969L675.545 187.667C697.619 237.162 748.89 323.159 851.111 368.434ZM459.768 191.356C503.618 206.474 568.173 215.314 642.515 183.789L606.748 254.296C518.394 261.208 449.241 238.559 428.178 230.571L407.305 166.713C421.536 175.284 439.084 184.233 459.768 191.363V191.356ZM382.532 191.392L398.807 241.178C382.677 293.911 296.448 341.26 256.367 358.772L213.492 337.026C263.723 319.572 351.56 277.578 382.532 191.392ZM177.391 353.687L206.872 368.638C215.1 387.962 260.259 503.708 200.426 581.163L136.197 602.16C183.576 513.704 181.597 404.266 177.399 353.687H177.391Z" fill="#CCCCCC"/>
</g>
<defs>
<clipPath id="clip0_4231_2">
<rect width="998.869" height="998.869" fill="white" transform="translate(0.341431 0.285645)"/>
</clipPath>
</defs>
</svg>
