<svg width="1183" height="1514" viewBox="0 0 1183 1514" fill="none" xmlns="http://www.w3.org/2000/svg">
<g clip-path="url(#clip0_4090_2478)">
<path d="M282.173 444.818C282.173 444.818 34.9148 579.325 5.79875 764.769C-23.3173 950.213 63.9657 1248.34 107.607 1335.63C151.249 1422.91 162.127 1459.26 234.884 1484.72C307.577 1510.19 838.44 1528.37 925.723 1495.6C1013.01 1462.9 1067.53 1379.27 1103.87 1237.47C1140.22 1095.66 1202.03 830.231 1176.56 750.243C1151.1 670.256 1082.05 535.749 987.472 481.164C892.959 426.645 805.676 415.702 631.11 408.472C456.609 401.176 282.043 444.818 282.043 444.818H282.173Z" fill="#ACCE91"/>
<path d="M494.776 616.127L494.906 615.671C494.906 615.671 494.906 615.866 494.776 616.127Z" stroke="#23201F" stroke-width="6.51366" stroke-miterlimit="10"/>
<path d="M1080.29 612.088C1089.41 640.293 1082.11 669.018 1056.64 686.995C1023.69 710.184 951.644 699.958 914.126 692.662C860.518 682.24 809.777 660.811 756.495 649.216C728.617 643.159 697.547 645.894 674.814 663.09C666.542 669.343 659.637 677.29 651.235 683.348C642.832 689.471 632.15 693.639 622.119 690.904C588.899 681.85 609.221 605.575 614.237 583.037C606.421 617.886 591.439 651.105 570.53 679.961C562.063 691.685 551.315 703.41 537.05 705.755C518.095 708.881 499.987 693.314 494.06 675.01C488.133 656.707 491.715 636.84 496.731 618.276C501.746 599.712 508.13 581.214 507.934 561.998C498.098 590.789 488.067 620.035 469.894 644.461C451.786 668.822 423.908 687.973 393.554 687.973C365.22 687.973 339.426 671.623 318.452 652.603C274.289 612.479 251.556 541.35 289.401 488.394C289.336 488.524 262.109 526.629 238.529 564.734C214.885 602.904 147.598 635.668 111.252 639.25C95.3589 640.814 93.7305 618.081 96.8571 591.961C67.741 624.464 41.6864 661.332 24.4252 701.456C89.9526 751.35 193.585 815.184 334.801 857.393C596.585 935.557 1171.09 786.459 1171.09 786.459C1171.09 786.459 1175.19 779.294 1180.34 767.635C1179.43 761.121 1178.12 755.193 1176.5 750.113C1159.37 696.31 1122.5 617.951 1071.5 555.745L1080.16 611.958L1080.29 612.088Z" fill="#88AF66"/>
<path d="M1176.63 750.242C1168.55 724.904 1156.11 694.095 1139.89 662.048C1129.08 677.811 1125.76 696.57 1085.76 719.889C1027.6 753.825 884.556 715.069 792.453 702.953C700.35 690.838 714.876 710.249 625.182 727.184C535.489 744.12 479.732 758.71 399.745 744.12C319.757 729.594 234.884 608.375 234.884 608.375C234.884 608.375 150.011 690.773 99.1395 700.478C76.5371 704.777 58.7548 684.259 45.9229 660.093C26.3168 692.466 11.661 727.575 5.79875 764.703C-23.3173 950.147 63.9657 1248.28 107.607 1335.56C151.249 1422.84 162.127 1459.19 234.884 1484.66C307.576 1510.13 838.44 1528.3 925.723 1495.54C1013.01 1462.84 1067.52 1379.2 1103.87 1237.4C1140.22 1095.6 1202.03 830.165 1176.56 750.177L1176.63 750.242Z" fill="#7BBE27"/>
<path d="M963.24 468.072C877.324 424.821 790.693 415.116 631.238 408.472C456.738 401.176 282.171 444.818 282.171 444.818C282.171 444.818 278.589 446.772 272.466 450.42C293.31 474.455 341.706 502.334 453.741 509.694C660.42 523.242 850.097 523.242 927.87 484.877C940.963 478.429 952.688 472.957 963.24 468.137V468.072Z" fill="#D7EAC5"/>
<path d="M135.481 0C135.481 0 273.636 67.8723 309.982 104.219C346.328 140.565 508.779 516.273 508.779 516.273L453.674 509.629L276.111 121.219L130.661 46.0516L135.481 0Z" fill="#FDB59F"/>
</g>
<defs>
<clipPath id="clip0_4090_2478">
<rect width="1182.62" height="1513.25" fill="white"/>
</clipPath>
</defs>
</svg>
