<svg width="1359" height="1083" viewBox="0 0 1359 1083" fill="none" xmlns="http://www.w3.org/2000/svg">
<g clip-path="url(#clip0_4230_1066)">
<path d="M637.875 0.614158C620.558 10.1936 594.504 38.4055 594.504 38.4055C611.716 43.1952 688.351 133.463 658.981 165.622C649.77 177.307 605.557 191.992 605.557 191.992L629.138 264.417L778.04 257.101C815.463 137.147 747.617 43.7742 637.875 0.561523V0.614158Z" fill="url(#paint0_linear_4230_1066)"/>
<mask id="mask0_4230_1066" style="mask-type:luminance" maskUnits="userSpaceOnUse" x="77" y="171" width="1167" height="861">
<path d="M782.942 263.732C829.471 183.36 953.688 270.68 961.056 302.787C1048.38 186.36 1341.97 319.63 1210.44 737.545C1165.65 895.922 942.003 1061.77 852.209 1004.3C852.209 1004.3 829.155 1020.45 759.467 1029.72C689.78 1039.03 653.62 1015.61 653.62 1015.61C614.092 1031.88 538.457 1035.77 504.139 977.505C472.453 989.663 378.027 968.399 359.184 927.344C-8.93911 938.503 -41.2565 90.25 413.503 190.15C446.399 202.992 455.084 227.046 455.084 227.046C482.191 177.675 588.459 132.094 626.356 225.467C663.779 173.307 761.047 197.045 782.942 263.68V263.732Z" fill="white"/>
</mask>
<g mask="url(#mask0_4230_1066)">
<path d="M1330.75 158.729H53.4259V1043.09H1330.75V158.729Z" fill="#E86300"/>
<path d="M1335.96 704.228V921.818H1357.54C1323.28 971.084 1278.59 1015.82 1229.53 1052.4V1048.3H203.274V1064.67C129.059 1017.4 63.214 958.767 12.2115 889.606H48.1606V291.366H31.6861C87.2678 228.257 157.271 177.834 233.749 140.042V153.411H1024.52V129.989C1153.69 186.255 1259.59 262.996 1340.07 370.58H1335.96V704.176V704.228Z" fill="#E86300"/>
<path d="M1335.96 703.333V918.344H1349.49C1304.75 982.505 1243.59 1038.24 1170.38 1082.93V1048.3H208.907V1059.46C135.535 1012.72 70.5317 954.872 20.1081 886.5H48.1621V295.366H39.3722C109.639 215.993 200.222 158.201 300.227 118.831V153.411H1020.37V135.937C1166.38 199.729 1286.12 291.471 1365.39 424.056H1335.96V703.281V703.333Z" fill="#E86400"/>
<path d="M1335.96 702.443V914.875H1341.39C1297.17 978.246 1236.75 1033.35 1164.43 1077.46V1048.3H214.488V1054.3C142.01 1008.14 77.7439 950.929 27.952 883.399H48.1109V299.423H47.0056C116.377 220.998 205.961 163.837 304.703 125.046V153.468H1016.26V141.941C1160.53 204.997 1278.86 295.633 1357.18 426.64H1336.02V702.496L1335.96 702.443Z" fill="#E96500"/>
<path d="M1335.97 701.602V862.978H1362.97C1316.13 949.825 1247.39 1017.25 1158.49 1072.09V1048.36H220.126V1049.2C148.543 1003.56 85.0662 947.14 35.8533 880.4H48.117V348.847H19.0103C85.7505 251.895 195.072 175.207 309.235 131.152V153.469H1012.11V147.89C1154.59 210.156 1271.55 299.687 1348.87 429.115H1336.02V701.602H1335.97Z" fill="#E96600"/>
<path d="M1335.97 700.707V860.136H1354.49C1308.23 945.93 1240.33 1012.51 1152.54 1066.67V1048.36H283.019V1077.25C190.12 1028.41 105.168 960.72 43.7442 877.295H48.1128V352.321H27.1118C93.0098 256.58 200.962 180.787 313.758 137.311V153.469H942.947V128.942C1123.01 189.629 1290.91 311.898 1366.49 482.328H1335.97V700.707Z" fill="#EA6700"/>
<path d="M1335.97 699.81V807.236H1368.76C1326.91 915.505 1248.96 998.035 1146.59 1061.2V1048.35H287.916V1071.67C179.016 1014.3 81.853 931.769 20.0078 826.237H48.1671V355.74H35.2191C100.328 261.209 206.964 186.363 318.338 143.414V153.414H939.685V135.15C1117.48 195.101 1283.33 315.791 1357.97 484.115H1336.02V699.757L1335.97 699.81Z" fill="#EA6800"/>
<path d="M1335.97 698.97V804.975H1360.02C1318.7 911.928 1241.75 993.353 1140.7 1055.72V1048.3H292.811V1066.09C185.28 1009.41 89.3801 927.981 28.2718 823.713H48.1149V359.216H43.2199C107.539 265.896 212.755 191.998 322.76 149.627V153.469H869.629V121.731C1070.27 172.365 1265.75 298.371 1349.23 486.012H1335.92V698.917L1335.97 698.97Z" fill="#EB6900"/>
<path d="M1335.97 698.072V802.762H1351.28C1310.49 908.293 1234.49 988.718 1134.75 1050.35V1048.35H297.706V1060.56C176.805 997.824 64.5892 894.661 11.5866 772.444H48.1673V408.742H23.1661C108.223 251.734 273.389 157.361 450.871 118.78V153.466H867.208V128.254C1065.27 178.204 1258.28 302.632 1340.71 487.904H1336.02V698.072H1335.97Z" fill="#EB6A00"/>
<path d="M1366.76 697.177C1353.13 858.764 1230.91 999.402 1076.54 1073.62V1048.35H360.872V1082.72C212.654 1018.98 83.7 912.977 20.2232 770.601H48.1719V411.636H31.5922C115.544 256.629 278.604 163.466 453.824 125.359V153.466H864.739V134.728C1093.17 192.362 1319.81 352.844 1362.87 591.119H1335.97V697.177H1366.71H1366.76Z" fill="#EC6B00"/>
<path d="M1357.71 696.283C1344.29 855.712 1223.7 994.561 1071.27 1067.78V1048.3H364.977V1076.67C218.706 1013.77 91.4367 909.136 28.7494 768.655H48.1188V461.956H18.4857C88.805 281.421 267.445 172.994 456.718 131.992V153.414H725.889V117.413C1050.17 148.309 1379.13 365.32 1357.66 696.231L1357.71 696.283Z" fill="#EC6C00"/>
<path d="M1348.6 695.387C1335.34 852.71 1216.33 989.664 1066.01 1061.93V1048.3H369.133V1070.77C224.81 1008.72 99.2251 905.45 37.38 766.811H48.1173V464.165H27.2216C96.6461 286.051 272.865 179.098 459.664 138.622V153.465H725.256V124.306C1045.22 154.781 1369.87 368.949 1348.6 695.439V695.387Z" fill="#ED6D00"/>
<path d="M1339.55 694.544C1325.71 869.71 1176.28 1016.66 1006.9 1079.93V1048.35H373.291V1064.88C230.915 1003.66 107.014 901.817 46.0114 765.074H48.1168V565.748H12.7466C31.7476 345.421 247.021 187.834 462.558 145.253V153.464H724.571V131.095C1090.96 166.675 1366.29 418.898 1339.55 694.544Z" fill="#ED6E00"/>
<path d="M1330.49 693.65C1316.81 866.395 1169.43 1011.4 1002.37 1073.77V1048.3H377.394V1058.88C177.015 974.242 1.11186 792.128 21.7971 566.591C120.644 -104.495 1390.08 73.0925 1330.49 693.65Z" fill="#ED6F00"/>
<path d="M1321.44 692.756C1307.97 863.133 1162.65 1006.14 997.849 1067.62V1048.3H381.555V1052.93C183.809 972.033 7.74715 781.235 30.8536 567.487C128.332 -94.3353 1380.13 80.8313 1321.44 692.756Z" fill="#EE7000"/>
<path d="M1312.39 691.915C1299.07 859.871 1155.8 1000.88 993.371 1061.51V1048.35H442.607V1068.83C225.807 1000.09 14.9544 801.289 39.9556 568.33C101.117 -56.2801 1372.55 67.147 1312.39 691.915Z" fill="#EE7100"/>
<path d="M1303.28 691.021C1290.17 856.608 1148.9 995.562 988.789 1055.35V1048.3H504.87V1079.99C269.279 1025.3 22.9515 822.027 49.0054 569.225C109.324 -46.4893 1362.6 75.1483 1303.28 691.021Z" fill="#EF7200"/>
<path d="M1294.23 690.125C1276.54 895.398 1075.95 1042.14 875.154 1081.88V1048.3H507.346V1073.51C275.124 1019.61 32.4277 819.236 58.0606 570.119C117.537 -36.7011 1352.7 83.1997 1294.23 690.125Z" fill="#EF7300"/>
<path d="M1285.18 689.283C1267.71 891.556 1070.12 1036.14 872.215 1075.3V1048.35H509.828V1067.04C281.08 1013.88 41.8576 816.5 67.122 571.014C125.704 -26.9628 1342.76 91.2009 1285.18 689.283Z" fill="#F07400"/>
<path d="M1276.13 688.386C1258.92 887.606 1064.27 1030.14 869.317 1068.62V1048.3H632.358V1081.41C300.973 1049.25 52.0135 821.129 76.1726 571.906C133.965 -17.2809 1332.81 99.3039 1276.13 688.386Z" fill="#F07500"/>
<path d="M1267.07 687.493C1250.12 883.713 1058.43 1024.04 866.417 1061.98V1048.3H633.037V1074.56C306.705 1042.88 61.4297 818.183 85.273 572.697C142.171 -7.48926 1322.91 107.306 1267.07 687.493Z" fill="#F17600"/>
<path d="M1257.96 686.6C1170.01 1283.37 41.4285 1125.41 94.3259 573.595C150.434 2.35568 1312.91 115.256 1257.96 686.6Z" fill="#F17700"/>
<path d="M1248.91 685.753C1162.33 1273.2 51.2753 1117.67 103.383 574.484C158.649 12.1407 1303.02 123.251 1248.91 685.753Z" fill="#F17800"/>
<path d="M1239.86 684.862C1185.49 1238.36 59.1706 1128.94 112.436 575.383C166.808 21.8822 1293.13 131.309 1239.86 684.862Z" fill="#F27900"/>
<path d="M1230.81 683.969C1177.33 1228.58 69.1218 1120.89 121.493 576.227C174.969 31.6212 1283.18 139.311 1230.81 683.969Z" fill="#F27A00"/>
<path d="M1221.75 683.07C1169.17 1218.78 79.0116 1112.88 130.593 577.117C183.175 41.4592 1273.28 147.359 1221.75 683.07Z" fill="#F37B00"/>
<path d="M1212.7 682.228C1160.96 1209.04 88.9618 1104.88 139.648 578.013C191.335 51.2496 1263.39 155.36 1212.7 682.228Z" fill="#F37C00"/>
<path d="M1203.59 681.332C1152.75 1199.2 98.8533 1096.88 148.698 578.854C199.542 60.9857 1253.44 163.359 1203.59 681.332Z" fill="#F47E00"/>
<path d="M1194.54 680.442C1144.53 1189.47 108.745 1088.83 157.747 579.752C207.75 70.7799 1243.54 171.416 1194.54 680.442Z" fill="#F47F00"/>
<path d="M1185.49 679.599C1136.38 1179.73 118.696 1080.83 166.804 580.7C215.911 80.5698 1233.59 179.469 1185.49 679.599Z" fill="#F58000"/>
<path d="M1176.44 678.703C1128.23 1169.94 128.598 1072.83 175.863 581.54C224.129 90.3581 1223.7 187.468 1176.44 678.703Z" fill="#F58100"/>
<path d="M1167.38 677.81C1120.06 1160.15 138.541 1064.78 184.965 582.384C232.335 100.097 1213.8 195.417 1167.38 677.81Z" fill="#F68200"/>
<path d="M1158.28 676.966C1111.8 1150.36 148.44 1056.77 193.968 583.33C240.444 109.938 1203.81 203.521 1158.28 676.966Z" fill="#F68300"/>
<path d="M1149.23 676.071C1103.59 1140.57 158.335 1048.77 203.074 584.172C248.708 119.675 1193.91 211.469 1149.23 676.071Z" fill="#F68400"/>
<path d="M1140.17 675.175C1095.43 1130.83 168.281 1040.72 212.125 585.065C256.864 129.464 1184.02 219.521 1140.17 675.175Z" fill="#F78500"/>
<path d="M1131.11 674.284C1087.27 1121.04 178.22 1032.67 221.17 585.911C265.067 139.258 1174.06 227.525 1131.11 674.284Z" fill="#F78600"/>
<path d="M1122.07 673.384C1079.12 1111.2 188.126 1024.67 230.286 586.801C273.288 148.99 1164.17 235.521 1122.07 673.384Z" fill="#F88700"/>
<path d="M1113.01 672.547C1070.85 1101.46 198.067 1016.67 239.332 587.7C281.439 158.784 1154.27 243.578 1113.01 672.547Z" fill="#F88800"/>
<path d="M1103.96 671.65C1062.75 1091.67 207.967 1008.67 248.39 588.541C289.603 168.52 1144.33 251.577 1103.96 671.65Z" fill="#F98900"/>
<path d="M1094.85 670.756C1054.48 1081.88 217.859 1000.61 257.44 589.436C297.81 178.311 1134.38 259.578 1094.85 670.756Z" fill="#F98A00"/>
<path d="M1085.8 669.913C1046.32 1072.14 227.81 992.666 266.496 590.33C305.972 188.152 1124.49 267.63 1085.8 669.913Z" fill="#FA8B00"/>
<path d="M1076.74 669.021C1038.11 1062.36 237.702 984.615 275.546 591.228C314.179 197.945 1114.53 275.686 1076.74 669.021Z" fill="#FA8C00"/>
<path d="M1067.69 668.122C1029.95 1052.56 247.65 976.559 284.652 592.066C322.391 207.626 1104.69 283.63 1067.69 668.122Z" fill="#FA8D00"/>
<path d="M1058.64 667.284C1021.8 1042.83 257.601 968.562 293.708 593.017C330.605 217.472 1094.75 291.739 1058.64 667.284Z" fill="#FB8E00"/>
<path d="M1049.53 666.389C1013.53 1033.04 267.489 960.562 302.701 593.859C338.703 227.262 1084.79 299.687 1049.53 666.389Z" fill="#FB8F00"/>
<path d="M1040.47 665.492C1005.37 1023.25 277.384 952.506 311.807 594.699C346.914 236.997 1074.9 307.738 1040.47 665.492Z" fill="#FC9000"/>
<path d="M1031.43 664.597C997.164 1013.46 287.286 944.505 320.867 595.593C355.132 246.786 1064.96 315.737 1031.43 664.597Z" fill="#FC9100"/>
<path d="M1022.37 663.756C989.001 1003.67 297.23 936.506 329.968 596.489C363.338 256.578 1055.11 323.739 1022.37 663.756Z" fill="#FD9200"/>
<path d="M1013.32 662.859C980.846 993.875 307.181 928.451 339.024 597.382C371.5 266.366 1045.16 331.79 1013.32 662.859Z" fill="#FD9300"/>
<path d="M1004.22 661.965C972.585 984.087 317.079 920.452 348.028 598.278C379.661 276.157 1035.22 339.844 1004.22 661.965Z" fill="#FE9400"/>
<path d="M995.164 661.074C964.426 974.3 326.973 912.402 357.133 599.123C387.871 285.897 1025.32 347.795 995.164 661.074Z" fill="#FE9500"/>
<path d="M986.102 660.231C956.206 964.614 336.859 904.401 366.177 600.017C396.073 295.686 1015.37 355.847 986.102 660.231Z" fill="#FF9700"/>
<path d="M977.052 659.336C948.051 954.772 346.811 896.348 375.233 600.912C404.235 305.477 1005.42 363.848 977.052 659.336Z" fill="#FF9800"/>
</g>
<path d="M739.567 194.153C749.884 185.311 752.094 143.677 752.41 134.308C750.2 127.571 744.726 110.675 742.199 104.254L764.095 143.624C764.095 143.624 758.568 168.994 758.253 172.784C757.937 176.573 759.937 195.206 759.937 195.206L750.463 209.312L739.567 194.153Z" fill="#4FAB58"/>
<path d="M728.459 200.047L739.143 167.098L736.933 144.413L748.933 175.677C733.564 202.994 749.302 197.152 741.512 210.468L728.406 200.047H728.459Z" fill="#4FAB58"/>
<path d="M678.3 58.7236C686.037 66.4608 700.828 83.5669 706.144 93.0411L674.353 64.1975C667.352 60.3026 652.983 52.8812 645.772 49.46L678.3 58.7236Z" fill="#4FAB58"/>
<path d="M678.823 82.5151L700.772 112.517C700.772 112.517 700.193 137.097 702.087 139.307C703.982 141.571 695.192 156.203 695.192 156.203C697.719 116.148 695.192 117.675 678.823 82.5151Z" fill="#4FAB58"/>
<path d="M739.353 69.0371C739.353 69.0371 775.986 128.04 774.565 145.883C773.354 189.306 783.302 193.833 768.196 224.992L783.671 258.625C789.829 214.36 797.04 113.618 739.353 69.0371Z" fill="#4FAB58"/>
<path d="M738.457 169.252C710.509 161.62 667.506 184.831 641.505 177.463C623.031 185.621 605.556 192.042 605.556 192.042L629.136 264.467L778.038 257.151C778.038 257.151 791.302 242.361 787.091 193.832C770.933 184.516 758.248 172.778 738.405 169.252H738.457Z" fill="#428F6D"/>
<path d="M598.72 173.993C598.72 173.993 622.3 193.573 629.511 210.995C684.356 155.308 772.255 183.625 790.256 252.997L775.466 281.472L677.935 208.573L599.983 231.101L598.72 174.045V173.993Z" fill="#FEFFCA"/>
<path d="M1026.53 262.417C971.105 268.207 961 302.787 961 302.787C953.052 270.049 829.414 183.676 782.885 263.733C760.779 196.677 663.406 173.623 626.299 225.52C588.244 131.831 481.713 178.202 455.08 227.099C400.235 141.569 218.121 170.728 127.853 311.261C211.278 232.678 375.023 218.572 414.92 312.788C443.026 260.417 542.61 182.255 593.192 292.945C632.667 233.678 727.514 265.364 776.938 348C776.938 348 795.518 323.999 825.782 311.682C860.784 298.734 956.894 295.313 971.947 336.315C996.054 313.946 1080.37 280.628 1124.64 289.523C1086.32 266.891 1048.21 260.153 1026.48 262.417H1026.53Z" fill="#EF5B2D"/>
<path d="M887.153 918.818C859.993 952.399 715.723 1020.4 657.457 958.82C630.35 994.612 506.134 988.822 493.186 916.345C432.235 937.925 356.179 905.923 338.915 844.499C320.019 853.868 190.96 860.868 147.169 796.444C213.646 894.028 290.597 938.188 358.863 927.345C377.812 968.768 472.974 989.611 503.818 977.506C538.241 1036.14 614.56 1031.67 653.299 1015.61C653.299 1015.61 689.459 1039.03 759.146 1029.72C828.834 1020.46 851.888 1004.3 851.888 1004.3C896.89 1030.14 1009.37 1007.56 1097.43 908.607C1012.26 977.663 942.787 968.084 887.1 918.818H887.153Z" fill="#EF5B2D"/>
<path d="M307.338 683.491C308.917 701.334 314.181 813.339 338.971 844.499C347.498 867.184 348.761 910.239 358.972 927.345C308.549 893.87 295.654 725.23 307.338 683.491Z" fill="#EF5B2D"/>
<path d="M953.951 313.053C974.109 328.79 989.268 404.583 991.268 420.532C989.689 412.11 992.058 333.264 986.321 321.053L953.951 313V313.053Z" fill="#EF5B2D"/>
<path d="M774.993 343.631C774.993 343.631 771.046 392.528 770.046 405.003C763.677 440.162 753.466 468.374 753.782 496.323C753.782 496.323 780.204 426.688 781.573 410.108C782.889 393.476 795.521 325.736 809.943 313.472C824.364 301.208 774.993 343.631 774.993 343.631Z" fill="#EF5B2D"/>
<path d="M616.248 269.205C593.615 278.1 542.139 410.001 539.402 408.369C535.822 356.683 559.876 297.943 583.93 255.888L616.248 269.205Z" fill="#EF5B2D"/>
<path d="M419.186 305.682C414.923 318.314 391.396 343.105 389.711 354.368C388.027 365.632 379.974 315.524 404.659 292.944C411.765 286.418 419.186 305.734 419.186 305.734V305.682Z" fill="#EF5B2D"/>
<path d="M492.817 864.708C492.29 872.392 498.817 953.396 503.238 951.922L481.079 937.132C481.079 937.132 471.184 883.182 492.869 864.708H492.817Z" fill="#EF5B2D"/>
<path d="M696.939 902.869C696.939 902.869 689.043 932.87 654.094 962.608C647.305 968.398 661.358 985.346 661.358 985.346C685.306 965.082 692.938 929.186 696.886 902.869H696.939Z" fill="#EF5B2D"/>
<path d="M887.153 918.819C892.626 916.45 934.681 841.657 934.681 831.867C943.576 871.501 908.785 916.135 896.574 946.083L884.837 947.505L887.153 918.819Z" fill="#EF5B2D"/>
<path d="M1013.38 954.924L996.798 956.976L1002.22 942.765L1013.38 954.924Z" fill="#EF5B2D"/>
<path d="M1003.37 903.556L995.057 917.03L987.741 904.609L1003.37 903.556Z" fill="#EF5B2D"/>
<path d="M1017.05 910.821L1008.05 900.873L1019.9 897.873L1017.05 910.821Z" fill="#EF5B2D"/>
<path d="M973.21 942.824L964.209 932.929L976.052 929.876L973.21 942.824Z" fill="#EF5B2D"/>
<path d="M1048.16 919.87L1040 910.291L1051.16 907.817L1048.16 919.87Z" fill="#EF5B2D"/>
<path d="M957.788 956.923L949.63 947.344L960.788 944.923L957.788 956.923Z" fill="#EF5B2D"/>
<path d="M1075.74 896.552L1062.43 906.342L1060.27 891.446L1075.74 896.552Z" fill="#EF5B2D"/>
<path d="M1074.22 883.552L1058 875.815L1071.16 866.025L1074.22 883.552Z" fill="#EF5B2D"/>
<path d="M1074.22 850.764L1062.37 851.764L1066.64 841.816L1074.22 850.764Z" fill="#EF5B2D"/>
<path d="M1091.16 842.55L1080.16 853.393L1076.11 839.866L1091.16 842.55Z" fill="#EF5B2D"/>
<path d="M1083 831.129L1066.85 829.076L1075.32 816.917L1083 831.129Z" fill="#EF5B2D"/>
<path d="M1103.85 804.867L1088.79 826.605L1077.74 805.183L1103.85 804.867Z" fill="#EF5B2D"/>
<path d="M1120.28 810.921L1108.28 814.974L1110.12 803.553L1120.28 810.921Z" fill="#EF5B2D"/>
<path d="M1117.59 783.34L1110.48 793.077L1105.64 783.182L1117.59 783.34Z" fill="#EF5B2D"/>
<path d="M1182.7 722.911L1166.86 741.965L1158.28 721.069L1182.7 722.911Z" fill="#EF5B2D"/>
<path d="M1118.17 772.229L1104.8 774.808L1108.43 762.965L1118.17 772.229Z" fill="#EF5B2D"/>
<path d="M1144.37 752.336L1136.9 773.443L1123.06 758.389L1144.37 752.336Z" fill="#EF5B2D"/>
<path d="M1036.32 849.87L1031 864.871L1021.16 854.186L1036.32 849.87Z" fill="#EF5B2D"/>
<path d="M1169.96 757.337L1160.06 772.18L1152.27 757.916L1169.96 757.337Z" fill="#EF5B2D"/>
<path d="M1160.11 748.703L1142.74 741.966L1155.59 730.913L1160.11 748.703Z" fill="#EF5B2D"/>
<path d="M1165.86 699.544L1170.49 676.279L1187.28 689.964L1165.86 699.544Z" fill="#EF5B2D"/>
<path d="M1139.69 707.547L1136.59 719.547L1128.22 711.968L1139.69 707.547Z" fill="#EF5B2D"/>
<path d="M1175.64 536.852L1172.53 548.852L1164.22 541.273L1175.64 536.852Z" fill="#EF5B2D"/>
<path d="M1182.43 713.758L1166.27 709.126L1176.91 698.073L1182.43 713.758Z" fill="#EF5B2D"/>
<path d="M1152.96 677.02L1149.17 691.178L1139.38 682.072L1152.96 677.02Z" fill="#EF5B2D"/>
<path d="M1195.96 667.12L1195.91 680.647L1185.07 674.805L1195.96 667.12Z" fill="#EF5B2D"/>
<path d="M1197.07 660.908L1180.59 664.592L1184.64 649.802L1197.07 660.908Z" fill="#EF5B2D"/>
<path d="M1187.8 639.964L1173.8 637.122L1182.06 627.068L1187.8 639.964Z" fill="#EF5B2D"/>
<path d="M1214.7 623.754L1201.8 636.228L1197.28 620.49L1214.7 623.754Z" fill="#EF5B2D"/>
<path d="M1204.75 598.434L1205.86 611.75L1194.65 606.96L1204.75 598.434Z" fill="#EF5B2D"/>
<path d="M1201.22 578.802L1185.01 583.118L1188.49 568.169L1201.22 578.802Z" fill="#EF5B2D"/>
<path d="M1217.59 547.013L1214.22 564.54L1201.54 554.329L1217.59 547.013Z" fill="#EF5B2D"/>
<path d="M1193.96 546.75L1188.59 560.804L1179.54 550.488L1193.96 546.75Z" fill="#EF5B2D"/>
<path d="M1205.9 529.855L1208.43 545.382L1194.85 540.803L1205.9 529.855Z" fill="#EF5B2D"/>
<path d="M1222.65 513.587L1213.65 532.536L1202.22 517.219L1222.65 513.587Z" fill="#EF5B2D"/>
<path d="M1191.54 518.537L1178.85 526.748L1177.64 513.01L1191.54 518.537Z" fill="#EF5B2D"/>
<path d="M1190.8 391.9L1178.11 400.111L1176.9 386.426L1190.8 391.9Z" fill="#EF5B2D"/>
<path d="M1187.54 481.794L1195.07 497.637L1179.06 496.953L1187.54 481.794Z" fill="#EF5B2D"/>
<path d="M1207.22 475.746L1212.38 488.536L1199.85 487.22L1207.22 475.746Z" fill="#EF5B2D"/>
<path d="M1058.8 289.788L1063.95 302.631L1051.43 301.262L1058.8 289.788Z" fill="#EF5B2D"/>
<path d="M1168.8 400.688L1173.91 413.531L1161.38 412.163L1168.8 400.688Z" fill="#EF5B2D"/>
<path d="M1205.96 453.585L1198.86 476.166L1183.75 460.796L1205.96 453.585Z" fill="#EF5B2D"/>
<path d="M1189.64 453.428L1174.74 459.376L1176.27 444.849L1189.64 453.428Z" fill="#EF5B2D"/>
<path d="M1196.59 427.796L1185.27 434.796L1184.43 422.69L1196.59 427.796Z" fill="#EF5B2D"/>
<path d="M1184.12 406.688L1193.23 420.846L1177.96 422.162L1184.12 406.688Z" fill="#EF5B2D"/>
<path d="M1177.85 363.266L1187.01 377.372L1171.75 378.687L1177.85 363.266Z" fill="#EF5B2D"/>
<path d="M1167.8 361.738L1158.95 378.37L1149.32 364.159L1167.8 361.738Z" fill="#EF5B2D"/>
<path d="M1143.06 381.164L1148.12 392.269L1136.96 391.638L1143.06 381.164Z" fill="#EF5B2D"/>
<path d="M1032.1 321.316L1019.95 322.211L1024.42 312L1032.1 321.316Z" fill="#EF5B2D"/>
<path d="M1159.64 336.896L1159.32 353.318L1146.27 346.054L1159.64 336.896Z" fill="#EF5B2D"/>
<path d="M1140.49 320.054L1140.12 336.476L1127.07 329.212L1140.49 320.054Z" fill="#EF5B2D"/>
<path d="M1137.22 354.053L1125.85 365.159L1121.74 351.211L1137.22 354.053Z" fill="#EF5B2D"/>
<path d="M1125.21 331.685L1129.06 350.212L1112.48 345.37L1125.21 331.685Z" fill="#EF5B2D"/>
<path d="M1114.69 295.364L1118.43 313.891L1101.9 309.049L1114.69 295.364Z" fill="#EF5B2D"/>
<path d="M1094.43 283.893L1098.22 302.42L1081.69 297.577L1094.43 283.893Z" fill="#EF5B2D"/>
<path d="M1121.59 323.631L1114.91 337.579L1106.49 326.21L1121.59 323.631Z" fill="#EF5B2D"/>
<path d="M1091.79 316.476L1100.42 327.845L1087.53 329.95L1091.79 316.476Z" fill="#EF5B2D"/>
<path d="M1081.85 312.157L1077.16 323.368L1070.16 314.842L1081.85 312.157Z" fill="#EF5B2D"/>
<path d="M1047.11 316.788L1059.22 325.999L1046.59 331.789L1047.11 316.788Z" fill="#EF5B2D"/>
<path d="M869.737 302.474L888.369 315.527L869.895 325.001L869.737 302.474Z" fill="#EF5B2D"/>
<path d="M964.8 336.897L964.484 358.582L947.168 349.055L964.8 336.897Z" fill="#EF5B2D"/>
<path d="M948.535 307.207L948.956 327.102L932.797 318.944L948.535 307.207Z" fill="#EF5B2D"/>
<path d="M910.111 298.788L929.901 309.42L912.901 320.842L910.111 298.788Z" fill="#EF5B2D"/>
<path d="M845.159 365.952L831.211 372.373L831.948 358.373L845.159 365.952Z" fill="#EF5B2D"/>
<path d="M823.008 319.894L823.903 335.315L811.166 329.473L823.008 319.894Z" fill="#EF5B2D"/>
<path d="M927.64 332.315L938.114 343.632L924.534 347.211L927.64 332.315Z" fill="#EF5B2D"/>
<path d="M841.901 321.103L854.48 310.945L857.322 325.419L841.901 321.103Z" fill="#EF5B2D"/>
<path d="M954.591 383.846L967.171 373.688L970.013 388.162L954.591 383.846Z" fill="#EF5B2D"/>
<path d="M837.738 320.001L850.371 332.423L835.001 337.265L837.738 320.001Z" fill="#EF5B2D"/>
<path d="M827.11 361.162L810.32 348.846L827.426 340.582L827.11 361.162Z" fill="#EF5B2D"/>
<path d="M803.106 367.264L818.738 380.633L801.263 387.475L803.106 367.264Z" fill="#EF5B2D"/>
<path d="M754.58 394.264L739.263 398.107L742.684 384.106L754.58 394.264Z" fill="#EF5B2D"/>
<path d="M751.58 340.261L758.686 357.893L741.422 356.104L751.58 340.261Z" fill="#EF5B2D"/>
<path d="M744.89 338.051L731.152 344.841L731.573 330.893L744.89 338.051Z" fill="#EF5B2D"/>
<path d="M748.055 309.577L740.686 323.946L732.265 311.84L748.055 309.577Z" fill="#EF5B2D"/>
<path d="M710.79 340.684L703.421 355.053L694.999 343L710.79 340.684Z" fill="#EF5B2D"/>
<path d="M727.214 299.469L714.634 313.733L708.528 297.522L727.214 299.469Z" fill="#EF5B2D"/>
<path d="M707.305 271.628L719.727 285.523L703.2 289.576L707.305 271.628Z" fill="#EF5B2D"/>
<path d="M698.211 281.574L689.684 295.943L681.789 282.943L698.211 281.574Z" fill="#EF5B2D"/>
<path d="M670.414 254.1L684.573 270.469L665.308 274.89L670.414 254.1Z" fill="#EF5B2D"/>
<path d="M639.147 273.892L654.464 271.103L650.148 284.682L639.147 273.892Z" fill="#EF5B2D"/>
<path d="M619.459 263.101L638.092 269.365L625.091 281.681L619.459 263.101Z" fill="#EF5B2D"/>
<path d="M639.619 255.415L653.199 262.889L641.356 270.626L639.619 255.415Z" fill="#EF5B2D"/>
<path d="M665.414 302.735L678.994 310.262L667.151 317.947L665.414 302.735Z" fill="#EF5B2D"/>
<path d="M615.359 285.207L624.254 299.787L608.727 300.734L615.359 285.207Z" fill="#EF5B2D"/>
<path d="M543.975 308.21L529.764 304.104L539.185 294.419L543.975 308.21Z" fill="#EF5B2D"/>
<path d="M431.554 323.844L420.869 328.423L421.711 317.843L431.554 323.844Z" fill="#EF5B2D"/>
<path d="M557.09 274.63L539.089 278.946L543.299 262.629L557.09 274.63Z" fill="#EF5B2D"/>
<path d="M448.865 301.315L435.443 298.578L443.391 288.894L448.865 301.315Z" fill="#EF5B2D"/>
<path d="M471.452 296.632L458.135 292.316L467.294 283.421L471.452 296.632Z" fill="#EF5B2D"/>
<path d="M462.979 277.576L450.926 268.049L463.769 262.417L462.979 277.576Z" fill="#EF5B2D"/>
<path d="M491.188 273.944L475.24 279.576L477.556 264.365L491.188 273.944Z" fill="#EF5B2D"/>
<path d="M503.086 263.894L489.243 265.368L493.98 253.578L503.086 263.894Z" fill="#EF5B2D"/>
<path d="M518.5 273.525L510.974 261.471L523.922 260.577L518.5 273.525Z" fill="#EF5B2D"/>
<path d="M529.564 253.421L512.826 251.316L521.669 238.631L529.564 253.421Z" fill="#EF5B2D"/>
<path d="M505.299 247.839L498.351 233.68L512.72 234.101L505.299 247.839Z" fill="#EF5B2D"/>
<path d="M559.401 252.84L540.768 250.576L550.558 236.523L559.401 252.84Z" fill="#EF5B2D"/>
<path d="M262.073 831.18L264.81 846.76L251.072 842.286L262.073 831.18Z" fill="#EF5B2D"/>
<path d="M208.655 784.862L198.602 795.705L194.181 782.967L208.655 784.862Z" fill="#EF5B2D"/>
<path d="M217.236 829.442L225.973 846.917L208.13 846.496L217.236 829.442Z" fill="#EF5B2D"/>
<path d="M227.081 802.601L225.344 818.18L213.502 810.18L227.081 802.601Z" fill="#EF5B2D"/>
<path d="M205.711 804.708L200.395 822.288L188.5 810.498L205.711 804.708Z" fill="#EF5B2D"/>
<path d="M181.594 770.075L177.015 794.919L158.962 780.602L181.594 770.075Z" fill="#EF5B2D"/>
<path d="M215.28 754.757L220.228 765.653L209.385 764.968L215.28 754.757Z" fill="#EF5B2D"/>
<path d="M186.023 734.337L200.602 758.391L175.022 759.865L186.023 734.337Z" fill="#EF5B2D"/>
<path d="M171.911 746.019L163.121 761.862L154.121 748.019L171.911 746.019Z" fill="#EF5B2D"/>
<path d="M164.808 723.708L161.071 740.498L149.123 730.287L164.808 723.708Z" fill="#EF5B2D"/>
<path d="M125.126 637.596L121.389 654.387L109.441 644.228L125.126 637.596Z" fill="#EF5B2D"/>
<path d="M161.07 674.172L148.701 692.647L139.069 674.857L161.07 674.172Z" fill="#EF5B2D"/>
<path d="M140.442 702.123L126.81 709.544L126.652 695.386L140.442 702.123Z" fill="#EF5B2D"/>
<path d="M157.332 641.594L143.016 656.226L137.331 638.488L157.332 641.594Z" fill="#EF5B2D"/>
<path d="M129.067 663.173L130.699 682.963L114.067 675.858L129.067 663.173Z" fill="#EF5B2D"/>
<path d="M135.232 606.909L130.706 627.804L115.758 615.278L135.232 606.909Z" fill="#EF5B2D"/>
<path d="M158.599 604.065L167.336 617.75L152.599 618.961L158.599 604.065Z" fill="#EF5B2D"/>
<path d="M118.97 601.91L105.706 610.278L104.653 595.962L118.97 601.91Z" fill="#EF5B2D"/>
<path d="M137.914 573.905L136.598 594.012L120.966 584.38L137.914 573.905Z" fill="#EF5B2D"/>
<path d="M129.284 572.01L116.021 576.747L117.863 564.009L129.284 572.01Z" fill="#EF5B2D"/>
<path d="M122.697 556.117L102.328 561.223L106.907 542.643L122.697 556.117Z" fill="#EF5B2D"/>
<path d="M146.915 509.115L127.072 515.168L130.651 496.641L146.915 509.115Z" fill="#EF5B2D"/>
<path d="M122.071 510.43L113.702 529.221L102.123 514.43L122.071 510.43Z" fill="#EF5B2D"/>
<path d="M130.228 480.005L119.543 493.532L113.175 479.163L130.228 480.005Z" fill="#EF5B2D"/>
<path d="M133.493 441.687L130.282 460.214L116.755 449.74L133.493 441.687Z" fill="#EF5B2D"/>
<path d="M151.339 462.798L151.445 478.799L138.497 472.061L151.339 462.798Z" fill="#EF5B2D"/>
<path d="M319.923 251.208L319.976 261.42L311.765 257.156L319.923 251.208Z" fill="#EF5B2D"/>
<path d="M159.444 531.639L159.549 541.85L151.286 537.586L159.444 531.639Z" fill="#EF5B2D"/>
<path d="M125.858 383.897L125.963 394.055L117.7 389.792L125.858 383.897Z" fill="#EF5B2D"/>
<path d="M99.8069 449.69L99.9122 459.901L91.6486 455.638L99.8069 449.69Z" fill="#EF5B2D"/>
<path d="M152.706 455.058L134.916 451.689L145.232 438.794L152.706 455.058Z" fill="#EF5B2D"/>
<path d="M133.125 412.264L136.283 437.581L114.545 429.318L133.125 412.264Z" fill="#EF5B2D"/>
<path d="M167.283 693.225L170.388 718.489L148.703 710.226L167.283 693.225Z" fill="#EF5B2D"/>
<path d="M163.388 410.687L153.861 424.846L146.545 411.108L163.388 410.687Z" fill="#EF5B2D"/>
<path d="M158.912 384.422L155.017 398.528L145.332 389.37L158.912 384.422Z" fill="#EF5B2D"/>
<path d="M148.232 372.947L128.862 371.736L138.126 356.63L148.232 372.947Z" fill="#EF5B2D"/>
<path d="M174.709 368.37L164.656 380.161L159.445 367.002L174.709 368.37Z" fill="#EF5B2D"/>
<path d="M169.287 353.423L151.233 357.634L155.496 341.317L169.287 353.423Z" fill="#EF5B2D"/>
<path d="M151.076 323.683L136.286 325.525L141.076 312.84L151.076 323.683Z" fill="#EF5B2D"/>
<path d="M187.705 329.841L167.546 335.736L171.441 316.999L187.705 329.841Z" fill="#EF5B2D"/>
<path d="M176.856 300.368L161.592 300.789L167.803 288.314L176.856 300.368Z" fill="#EF5B2D"/>
<path d="M195.289 302.786L176.235 293.785L191.657 282.258L195.289 302.786Z" fill="#EF5B2D"/>
<path d="M218.394 286.051L199.499 290.893L203.657 273.577L218.394 286.051Z" fill="#EF5B2D"/>
<path d="M228.555 307.948L213.396 303.158L223.712 293.052L228.555 307.948Z" fill="#EF5B2D"/>
<path d="M255.601 282.947L239.6 279.105L249.548 267.841L255.601 282.947Z" fill="#EF5B2D"/>
<path d="M261.924 275.472L253.398 259.945L269.556 259.734L261.924 275.472Z" fill="#EF5B2D"/>
<path d="M279.188 259.469L268.345 249.311L281.188 244.89L279.188 259.469Z" fill="#EF5B2D"/>
<path d="M288.608 247.732L275.291 235.889L290.502 230.205L288.608 247.732Z" fill="#EF5B2D"/>
<path d="M231.339 267.416L217.601 257.152L231.76 250.468L231.339 267.416Z" fill="#EF5B2D"/>
<path d="M393.914 861.605L402.809 870.764L391.65 874.027L393.914 861.605Z" fill="#EF5B2D"/>
<path d="M393.234 839.814L403.603 853.92L387.812 856.236L393.234 839.814Z" fill="#EF5B2D"/>
<path d="M382.333 836.658L377.859 852.291L367.121 842.027L382.333 836.658Z" fill="#EF5B2D"/>
<path d="M409.489 813.602L399.436 824.181L395.173 811.549L409.489 813.602Z" fill="#EF5B2D"/>
<path d="M376.336 803.865L376.178 822.498L361.23 814.392L376.336 803.865Z" fill="#EF5B2D"/>
<path d="M521.248 915.763L525.038 931.29L510.879 927.711L521.248 915.763Z" fill="#EF5B2D"/>
<path d="M566.932 944.185L543.141 959.081L541.299 933.553L566.932 944.185Z" fill="#EF5B2D"/>
<path d="M523.463 947.816L534.674 953.553L525.253 960.132L523.463 947.816Z" fill="#EF5B2D"/>
<path d="M595.197 948.239L606.408 953.923L597.039 960.555L595.197 948.239Z" fill="#EF5B2D"/>
<path d="M548.833 976.606L562.254 959.448L570.36 977.554L548.833 976.606Z" fill="#EF5B2D"/>
<path d="M852.516 910.553L866.043 913.079L858.201 922.922L852.516 910.553Z" fill="#EF5B2D"/>
<path d="M779.669 965.87L793.827 975.396L780.143 982.765L779.669 965.87Z" fill="#EF5B2D"/>
<path d="M789.518 936.184L805.572 931.236L802.729 946.237L789.518 936.184Z" fill="#EF5B2D"/>
<path d="M789.675 949.767L812.834 952.504L800.729 969.979L789.675 949.767Z" fill="#EF5B2D"/>
<path d="M749.931 959.608L766.511 962.24L757.3 974.451L749.931 959.608Z" fill="#EF5B2D"/>
<path d="M750.042 948.238L765.675 939.132L766.359 955.606L750.042 948.238Z" fill="#EF5B2D"/>
<path d="M729.669 940.447L725.406 964.764L707.668 950.921L729.669 940.447Z" fill="#EF5B2D"/>
<path d="M744.037 973.241L748.827 990.505L732.826 986.978L744.037 973.241Z" fill="#EF5B2D"/>
<path d="M705.881 967.66L714.67 978.292L702.354 980.871L705.881 967.66Z" fill="#EF5B2D"/>
<path d="M415.02 238.943C374.386 280.366 363.228 326.316 362.543 386.213C362.543 386.213 393.598 257.154 415.02 238.943Z" fill="#EF5B2D"/>
<path d="M588.887 520.587L391.403 390.265L326.031 477.585L586.308 541.904L588.887 520.587Z" fill="#FEFFCA"/>
<path d="M391.403 390.265L359.454 474.006L586.308 541.904L326.031 477.585L391.403 390.265Z" fill="#EF5B2D"/>
<path d="M715.578 536.012L938.642 457.061L981.065 557.54L712.947 557.382L715.578 536.012Z" fill="#FEFFCA"/>
<path d="M938.642 457.061L949.432 546.013L712.947 557.382L981.065 557.54L938.642 457.061Z" fill="#EF5B2D"/>
<path d="M333.928 558.748C333.928 558.748 469.408 648.489 609.31 664.016C804.004 685.596 954.485 627.12 954.485 627.12L846.269 744.073L839.742 693.702L760.686 780.601L720.579 705.65L616.679 795.075L565.045 715.492L498.831 774.285L431.722 662.279L422.248 713.756L333.875 558.643L333.928 558.748Z" fill="#FEFFCA"/>
<path d="M333.928 558.745L344.35 565.851L426.775 689.594L422.301 713.858L333.928 558.745Z" fill="#EF5B2D"/>
<path d="M431.777 662.384L440.777 663.49L512.518 762.284L498.885 774.39L431.777 662.384Z" fill="#EF5B2D"/>
<path d="M565.095 715.597L610.361 774.232L711.471 702.123L720.629 705.755L616.677 796.549L565.095 715.597Z" fill="#EF5B2D"/>
<path d="M839.739 693.754L761.103 782.759L750.261 761.126L830.317 694.386L839.739 693.754Z" fill="#EF5B2D"/>
<path d="M843.215 720.703L939.536 632.277L954.484 627.119L841.531 750.441L843.215 720.703Z" fill="#EF5B2D"/>
</g>
<defs>
<linearGradient id="paint0_linear_4230_1066" x1="791.149" y1="177.939" x2="551.863" y2="108.849" gradientUnits="userSpaceOnUse">
<stop stop-color="#94CB65"/>
<stop offset="1" stop-color="#749948"/>
</linearGradient>
<clipPath id="clip0_4230_1066">
<rect width="1357.23" height="1082.32" fill="white" transform="translate(0.963776 0.561523)"/>
</clipPath>
</defs>
</svg>
