<svg width="1119" height="857" viewBox="0 0 1119 857" fill="none" xmlns="http://www.w3.org/2000/svg">
<g clip-path="url(#clip0_4090_3552)">
<path d="M183.212 732.022C215.447 749.431 258.037 748.073 293.885 747.987C308.945 747.912 323.464 747.525 335.629 748.302C338.88 748.497 342.311 748.796 345.922 749.199C383.676 753.097 424.003 749.831 460.117 762.393C482.806 770.327 506.481 774.265 530.445 774.165C547.039 774.135 566.142 778.918 581.857 779.581C631.696 781.687 682.301 785.797 731.875 783.785C734.96 783.644 738.006 783.361 741.015 782.935C825.188 786.123 908.856 763.552 978.571 715.627C1033.22 677.983 1103.47 611.026 1072.22 537.604C1046.45 476.956 954.089 440.929 893.317 465.667C836.939 488.618 828.629 572.716 897.463 580.623C913.804 582.489 913.622 556.796 897.281 554.93C891.309 554.245 885.431 552.774 880.656 550.017C866.961 542.11 866.759 523.734 873.886 511.39C885.642 491.028 917.496 483.711 938.759 484.335C948.578 484.598 958.352 486.397 967.813 488.736C991.879 494.701 1016.24 506.604 1033.32 524.875C1080.58 575.348 1034.9 636.788 993.309 671.999C943.517 714.128 884.116 740.86 821.185 751.858C814.548 752.951 808.742 752.602 803.607 749.637C801.805 748.597 800.069 747.234 798.451 745.459C798.901 745.719 799.442 746.031 799.892 746.291C800.229 746.125 800.423 745.997 800.759 745.831C800.268 743.144 798.331 740.465 799.233 737.862C800.919 733.069 802.207 727.926 802.953 722.471C808.514 684.957 796.013 640.86 783.444 603.33C739.735 473.461 752.48 459.917 729.775 446.808C726.802 445.092 723.427 443.864 719.583 443.446C705.756 384.167 659.51 340.049 629.761 288.996C689.804 335.435 770.793 343.512 842.703 304.061C857.256 296.126 844.425 273.822 830.015 281.719C755.22 322.628 668.761 305.506 616.387 240.791C638.155 246.992 661.321 246.191 682.463 236.414C707.2 224.988 727.921 196.587 714.857 168.863C694.557 125.788 632.687 144.727 601.996 177.703C580.799 133.27 536.093 85.2346 492.536 118.23C470.512 134.946 475.507 163.539 489.923 183.514C503.095 201.69 521.675 213.619 542.358 220.034C499.826 234.401 454.267 233.204 411.201 216.869C395.793 211.097 389.411 235.883 404.767 241.746C449.108 258.577 496.421 260.065 540.765 247.345C511.451 278.352 475.457 299.497 433.931 322.733C404.32 339.274 379.902 360.134 368.84 389.907C364.795 391.295 360.822 393.807 357.14 397.687C292.145 466.358 241.517 545.726 208.372 634.346C200.039 656.685 187.151 685.043 193.14 707.961C124.193 670.077 60.9146 608.436 62.7993 524.232C63.7626 481.781 83.4702 437.659 120.618 415.139C152.643 395.667 191.695 391.905 222.774 370.326C267.224 339.528 293.143 282.774 285.511 228.994C278.83 181.89 242.725 141.223 192.384 156.006C176.491 160.646 183.155 185.516 199.048 180.877C273.59 158.923 266.147 271.273 245.104 308.137C223.541 345.901 188.492 360.624 149.135 374.901C101.442 392.174 65.5642 419.152 47.6018 468.366C6.37283 581.391 88.4145 680.654 183.032 731.918L183.212 732.022ZM693.13 185.27C695.412 203.166 673.968 214.09 659.643 217.472C644.18 221.158 628.445 219.282 614.046 213.011C613.669 210.751 613.15 208.529 612.593 206.165C625.709 181.783 688.792 151.171 693.13 185.27ZM540.951 141.738L580.957 190.423C580.593 191.054 580.087 191.722 579.761 192.495C578.38 195.302 576.82 198.005 575.311 200.618C574.396 200.33 573.377 200.222 572.449 200.166C553.833 198.909 535.975 192.804 521.668 180.339C517.285 176.487 511.024 171.31 507.875 165.528C503.05 156.615 499.522 146.289 504.567 137.55C509.977 128.18 524.041 131.494 534.853 137.736C537.015 138.985 539.073 140.413 540.899 141.828L540.951 141.738ZM691.976 435.916C658.969 446.893 637.564 478.142 620.138 508.325C616.289 514.992 612.582 521.621 609.03 527.98C572.166 593.911 547.251 665.78 535.495 741.282C535.123 743.59 534.984 745.912 535.076 748.248C518.183 748.586 501.714 746.525 485.446 742.659C478.661 739.222 471.928 735.695 465.232 732.31C481.612 711.014 479.006 679.116 477.895 653.367C474.214 567.15 451.795 484.051 414.55 406.447C410.165 397.188 403.218 392.576 395.739 391.381C417.394 347.423 481.855 331.902 519.334 304.648C544.489 286.255 565.26 264.01 582.394 238.704C600.888 313.411 670.982 363.25 692.066 435.969L691.976 435.916Z" fill="#D70A79"/>
</g>
<defs>
<clipPath id="clip0_4090_3552">
<rect width="1118.08" height="855.835" fill="white" transform="translate(0.203613 0.277344)"/>
</clipPath>
</defs>
</svg>
