<svg width="718" height="1031" viewBox="0 0 718 1031" fill="none" xmlns="http://www.w3.org/2000/svg">
<g clip-path="url(#clip0_4090_3305)">
<path d="M50.0746 228.171L-0.000732422 304.705L48.6541 380.261H293.437V228.171H50.0746Z" fill="#B67F48"/>
<path d="M137.881 415.332L105.918 464.164L136.993 512.375H293.257V415.332H137.881Z" fill="#B67F48"/>
<path d="M293.435 228.171H256.056V380.261H293.435V228.171Z" fill="#9F6F41"/>
<path d="M293.169 415.332H256.056V512.375H293.169V415.332Z" fill="#9F6F41"/>
<path d="M717.833 244.859L667.758 168.414H330.371V320.416H669.09L717.833 244.859Z" fill="#B67F48"/>
<path d="M631.533 416.127L592.645 356.641H330.371V474.815H593.711L631.533 416.127Z" fill="#B67F48"/>
<path d="M370.058 168.414H330.371V320.505H370.058V168.414Z" fill="#9F6F41"/>
<path d="M370.058 356.641H330.371V474.904H370.058V356.641Z" fill="#9F6F41"/>
<path d="M334.987 72.4395H283.491V977.88H334.987V72.4395Z" fill="#C59951"/>
<path d="M299.472 72.4395H283.491V977.88H299.472V72.4395Z" fill="#B2874B"/>
<path d="M425.372 971.217H193.108V1031.06H425.372V971.217Z" fill="#E7C080"/>
<path d="M425.372 1011.17H193.108V1031.06H425.372V1011.17Z" fill="#C59951"/>
<path d="M353.726 44.4708C353.726 68.6206 334.105 88.3311 309.955 88.3311C285.805 88.3311 266.183 68.7094 266.183 44.4708C266.183 20.2322 285.805 0.699219 309.955 0.699219C334.105 0.699219 353.726 20.3209 353.726 44.4708Z" fill="#E7C080"/>
<path d="M325.403 36.9197C325.403 49.4385 315.192 59.6489 302.673 59.6489C290.154 59.6489 279.944 49.4385 279.944 36.9197C279.944 24.4008 290.154 14.1904 302.673 14.1904C315.192 14.1904 325.403 24.4008 325.403 36.9197Z" fill="#F7D09A"/>
<path d="M445.326 207.622C445.369 209.245 445.479 211.702 445.655 214.991C445.874 218.238 446.137 221.922 446.444 226.045C448.33 225.519 449.888 224.225 451.116 222.163C452.388 220.102 453.024 217.492 453.024 214.334C453.024 212.798 452.739 211.592 452.169 210.715C451.642 209.837 450.962 209.179 450.129 208.741C449.339 208.258 448.506 207.951 447.629 207.82C446.751 207.688 445.984 207.622 445.326 207.622ZM447.102 235.981C447.321 239.402 447.519 242.78 447.694 246.114C447.87 249.448 448.001 252.584 448.089 255.523C448.879 255.216 449.712 254.799 450.589 254.273C451.511 253.702 452.344 252.979 453.09 252.101C453.879 251.224 454.515 250.171 454.998 248.943C455.524 247.715 455.787 246.267 455.787 244.6C455.787 242.714 455.48 241.201 454.866 240.06C454.296 238.92 453.572 238.043 452.695 237.428C451.818 236.814 450.875 236.42 449.866 236.244C448.857 236.069 447.936 235.981 447.102 235.981ZM455.787 228.151C457.498 228.502 458.924 229.16 460.064 230.125C461.249 231.046 462.214 232.187 462.959 233.546C463.705 234.862 464.231 236.332 464.539 237.955C464.889 239.578 465.065 241.223 465.065 242.89C465.065 245.478 464.604 247.956 463.683 250.325C462.762 252.694 461.336 254.799 459.406 256.641C457.476 258.484 455.042 259.953 452.103 261.05C449.164 262.19 445.655 262.783 441.575 262.826H440.917C438.548 262.826 436.772 262.344 435.588 261.379C434.403 260.414 433.811 259.12 433.811 257.497C433.811 256.97 433.833 255.611 433.877 253.417C433.965 251.224 434.052 248.57 434.14 245.456C434.228 242.341 434.337 238.942 434.469 235.257C434.601 231.573 434.71 227.997 434.798 224.532C434.886 221.023 434.952 217.799 434.995 214.86C435.083 211.877 435.127 209.552 435.127 207.885C435.127 206.482 435.522 205.363 436.311 204.53C437.101 203.652 438.066 202.994 439.206 202.556C440.391 202.117 441.641 201.832 442.957 201.7C444.317 201.569 445.567 201.503 446.707 201.503C448.33 201.503 450.019 201.678 451.774 202.029C453.572 202.38 455.195 203.06 456.643 204.069C458.134 205.078 459.362 206.482 460.327 208.28C461.293 210.079 461.775 212.425 461.775 215.32C461.775 218.698 461.183 221.396 459.999 223.414C458.858 225.431 457.454 227.011 455.787 228.151ZM483.271 230.52C483.271 229.511 482.964 229.006 482.35 229.006C481.999 229.006 481.648 229.138 481.297 229.401C480.947 229.664 480.683 229.971 480.508 230.322C480.157 231.156 479.96 232.121 479.916 233.217C479.916 234.27 479.85 235.367 479.718 236.507C479.85 236.463 480.113 236.376 480.508 236.244C480.903 236.113 481.297 235.849 481.692 235.455C482.087 235.016 482.438 234.424 482.745 233.678C483.096 232.888 483.271 231.836 483.271 230.52ZM501.234 236.31C501.804 236.31 502.09 236.639 502.09 237.297C502.09 238.394 501.629 240.017 500.708 242.166C499.918 244.008 498.843 246.07 497.484 248.351C496.168 250.588 494.632 252.694 492.878 254.667C491.123 256.598 489.193 258.221 487.088 259.537C484.982 260.896 482.811 261.576 480.574 261.576C479.872 261.576 478.951 261.445 477.81 261.181C476.67 260.918 475.551 260.26 474.454 259.208C473.358 258.155 472.393 256.576 471.559 254.47C470.77 252.365 470.375 249.469 470.375 245.785C470.375 244.732 470.441 243.504 470.572 242.1C470.704 240.653 470.923 239.183 471.23 237.692C471.537 236.156 471.954 234.665 472.481 233.217C473.007 231.77 473.687 230.476 474.52 229.335C475.354 228.151 476.341 227.208 477.481 226.506C478.666 225.804 480.025 225.453 481.561 225.453C481.868 225.453 482.328 225.497 482.942 225.585C483.556 225.629 484.171 225.826 484.785 226.177C485.399 226.484 485.947 226.967 486.43 227.625C486.912 228.239 487.153 229.116 487.153 230.257C487.153 232.055 486.89 233.612 486.364 234.928C485.881 236.2 485.245 237.253 484.456 238.086C483.666 238.92 482.811 239.534 481.89 239.929C480.968 240.324 480.113 240.521 479.323 240.521C479.236 241.486 479.17 242.451 479.126 243.416C479.082 244.337 479.06 245.236 479.06 246.114C479.06 248.439 479.236 250.391 479.587 251.97C479.981 253.549 480.661 254.339 481.626 254.339C482.679 254.339 483.907 253.944 485.311 253.154C486.715 252.365 488.162 251.312 489.654 249.996C491.189 248.68 492.658 247.145 494.062 245.39C495.51 243.635 496.804 241.793 497.944 239.863C498.471 238.942 499.019 238.13 499.589 237.428C500.203 236.683 500.752 236.31 501.234 236.31ZM501.7 245.39C501.7 246.925 501.942 247.693 502.424 247.693C502.775 247.693 503.192 247.364 503.674 246.706C504.201 246.004 504.749 245.149 505.319 244.14C505.889 243.087 506.482 241.925 507.096 240.653C507.71 239.337 508.258 238.065 508.741 236.836C509.267 235.564 509.706 234.424 510.057 233.415C510.408 232.362 510.649 231.551 510.78 230.98C510.78 230.717 510.802 230.52 510.846 230.388C509.136 231.529 507.6 232.845 506.24 234.336C505.1 235.608 504.047 237.187 503.082 239.073C502.161 240.916 501.7 243.021 501.7 245.39ZM534.665 234.139C535.148 234.139 535.498 234.358 535.718 234.797C535.937 235.191 536.047 235.63 536.047 236.113C536.047 236.683 535.937 237.275 535.718 237.889C535.542 238.503 535.345 239.073 535.126 239.6C534.862 240.214 534.555 240.828 534.204 241.442C533.327 243.109 532.252 244.973 530.98 247.035C529.752 249.097 528.414 251.049 526.967 252.891C525.563 254.689 524.094 256.203 522.558 257.431C521.067 258.659 519.619 259.273 518.216 259.273C516.022 259.273 514.18 257.87 512.689 255.062C511.197 252.211 510.451 247.912 510.451 242.166C509.793 243.964 509.07 245.609 508.28 247.101C507.491 248.592 506.679 249.886 505.846 250.983C505.012 252.079 504.179 252.935 503.345 253.549C502.512 254.163 501.744 254.47 501.042 254.47C500.516 254.47 499.968 254.426 499.397 254.339C498.871 254.251 498.367 253.966 497.884 253.483C497.402 252.957 497.007 252.167 496.7 251.114C496.393 250.018 496.239 248.461 496.239 246.443C496.239 242.627 496.853 239.424 498.081 236.836C499.31 234.204 500.757 232.099 502.424 230.52C504.135 228.897 505.868 227.734 507.622 227.032C509.377 226.331 510.78 225.98 511.833 225.98C512.491 225.98 512.952 226.111 513.215 226.374C513.303 226.374 513.39 226.374 513.478 226.374C513.61 226.331 513.719 226.309 513.807 226.309C514.158 226.309 514.663 226.462 515.32 226.769C516.022 227.032 516.702 227.537 517.36 228.283C518.018 229.028 518.588 230.037 519.071 231.309C519.597 232.581 519.861 234.182 519.861 236.113C519.861 239.095 519.861 241.574 519.861 243.548C519.904 245.522 519.926 247.101 519.926 248.285C519.97 249.469 520.036 250.303 520.124 250.785C520.211 251.268 520.321 251.509 520.453 251.509C521.023 251.509 521.725 251.114 522.558 250.325C523.392 249.535 524.247 248.548 525.124 247.364C526.046 246.18 526.967 244.886 527.888 243.482C528.809 242.078 529.642 240.762 530.388 239.534L532.625 235.784C532.625 235.74 532.691 235.63 532.823 235.455C532.954 235.279 533.108 235.104 533.283 234.928C533.459 234.709 533.656 234.533 533.875 234.402C534.139 234.226 534.402 234.139 534.665 234.139ZM563.916 233.02C564.135 233.02 564.267 233.196 564.31 233.546C564.398 233.853 564.442 234.117 564.442 234.336C564.442 235.082 564.267 235.959 563.916 236.968C563.565 237.933 563.192 238.876 562.797 239.797C562.315 240.894 561.788 241.99 561.218 243.087C560.297 244.886 559.156 246.75 557.797 248.68C556.481 250.566 554.945 252.299 553.191 253.878C551.436 255.457 549.484 256.751 547.335 257.76C545.185 258.769 542.838 259.273 540.294 259.273C538.715 259.273 537.377 259.054 536.281 258.615C535.184 258.177 534.285 257.628 533.583 256.97C532.881 256.269 532.333 255.501 531.938 254.667C531.543 253.834 531.258 253.023 531.083 252.233C530.907 251.4 530.798 250.654 530.754 249.996C530.754 249.338 530.754 248.833 530.754 248.483C530.754 248.132 530.776 247.386 530.819 246.245C530.907 245.061 531.061 243.701 531.28 242.166C531.499 240.631 531.828 239.008 532.267 237.297C532.706 235.586 533.276 234.029 533.978 232.625C534.723 231.178 535.623 229.993 536.675 229.072C537.772 228.107 539.088 227.625 540.623 227.625C542.422 227.625 543.869 227.8 544.966 228.151C546.106 228.502 546.984 228.919 547.598 229.401C548.212 229.84 548.629 230.3 548.848 230.783C549.067 231.265 549.177 231.638 549.177 231.901C549.177 232.121 549.089 232.318 548.914 232.494C548.738 232.625 548.541 232.691 548.322 232.691C548.146 232.691 547.927 232.625 547.664 232.494C547.444 232.406 547.247 232.296 547.071 232.165C546.896 232.033 546.677 231.923 546.414 231.836C546.194 231.704 545.909 231.594 545.558 231.507C545.207 231.419 544.747 231.375 544.176 231.375C543.65 231.375 543.036 231.858 542.334 232.823C541.676 233.744 541.062 234.972 540.492 236.507C539.921 238.043 539.439 239.775 539.044 241.705C538.649 243.592 538.452 245.5 538.452 247.43C538.452 248.57 538.562 249.535 538.781 250.325C539.044 251.071 539.373 251.685 539.768 252.167C540.163 252.606 540.601 252.935 541.084 253.154C541.566 253.33 542.071 253.417 542.597 253.417C543.913 253.417 545.317 252.935 546.808 251.97C548.344 251.005 549.835 249.798 551.283 248.351C552.774 246.86 554.178 245.258 555.494 243.548C556.853 241.837 558.06 240.258 559.112 238.81C559.814 237.714 560.494 236.749 561.152 235.915C561.679 235.169 562.205 234.511 562.731 233.941C563.302 233.327 563.696 233.02 563.916 233.02ZM567.104 205.319C567.104 204.486 567.455 203.85 568.157 203.411C568.858 202.929 569.648 202.687 570.525 202.687C571.446 202.687 572.28 202.994 573.026 203.608C573.815 204.179 574.21 205.122 574.21 206.438C574.21 206.789 574.166 208.017 574.078 210.122C573.991 212.228 573.859 214.882 573.684 218.084C573.552 221.242 573.355 224.773 573.091 228.677C572.828 232.538 572.543 236.42 572.236 240.324C573.069 239.183 574.056 238.196 575.197 237.363C576.337 236.485 577.609 236.047 579.013 236.047C581.031 236.047 582.676 236.354 583.948 236.968C585.22 237.538 586.207 238.306 586.909 239.271C587.655 240.236 588.137 241.332 588.356 242.561C588.62 243.789 588.751 245.017 588.751 246.245C588.751 247.825 588.642 249.316 588.422 250.72C588.203 252.123 588.093 253.198 588.093 253.944C588.093 254.558 588.225 254.865 588.488 254.865C589.146 254.865 589.87 254.646 590.659 254.207C591.493 253.724 592.326 253.11 593.16 252.365C594.037 251.575 594.892 250.698 595.726 249.733C596.559 248.724 597.371 247.693 598.16 246.64C599.959 244.228 601.801 241.486 603.687 238.415C603.951 238.021 604.214 237.648 604.477 237.297C604.696 237.034 604.937 236.792 605.201 236.573C605.508 236.31 605.793 236.178 606.056 236.178C606.144 236.178 606.275 236.222 606.451 236.31C606.802 236.529 607.043 236.858 607.175 237.297C607.306 237.692 607.372 238.13 607.372 238.613C607.372 238.876 607.35 239.139 607.306 239.402C607.306 239.622 607.284 239.841 607.24 240.06C607.197 240.28 607.153 240.477 607.109 240.653C605.793 244.206 604.236 247.364 602.437 250.127C601.648 251.312 600.77 252.474 599.805 253.615C598.884 254.755 597.853 255.764 596.713 256.641C595.572 257.519 594.344 258.221 593.028 258.747C591.712 259.317 590.308 259.602 588.817 259.602C586.931 259.602 585.352 259.317 584.08 258.747C582.808 258.177 581.799 257.387 581.053 256.378C580.307 255.369 579.759 254.185 579.408 252.825C579.101 251.465 578.947 249.996 578.947 248.417C578.947 247.057 578.991 245.807 579.079 244.666C579.211 243.526 579.276 242.648 579.276 242.034C579.276 241.42 579.189 241.113 579.013 241.113C578.399 241.113 577.741 241.42 577.039 242.034C576.381 242.605 575.701 243.35 575 244.271C574.298 245.149 573.618 246.114 572.96 247.167C572.346 248.219 571.797 249.206 571.315 250.127C571.052 252.321 570.767 254.382 570.459 256.312C570.196 258.199 569.911 259.866 569.604 261.313C569.297 262.761 568.968 263.923 568.617 264.8C568.266 265.722 567.893 266.292 567.499 266.511C566.884 267.037 566.27 267.498 565.656 267.893C565.13 268.244 564.56 268.551 563.946 268.814C563.331 269.121 562.739 269.275 562.169 269.275C561.555 269.275 561.007 268.989 560.524 268.419C560.085 267.893 559.866 266.818 559.866 265.195C559.866 263.704 559.954 261.467 560.129 258.484C560.305 255.545 560.524 252.211 560.787 248.483C561.094 244.71 561.467 240.718 561.906 236.507C562.344 232.296 562.827 228.239 563.353 224.335C563.924 220.387 564.516 216.746 565.13 213.412C565.744 210.079 566.402 207.381 567.104 205.319Z" fill="white"/>
<path d="M112.756 259.7C112.8 259.13 112.91 258.603 113.085 258.121C113.26 257.726 113.502 257.375 113.809 257.068C114.16 256.717 114.642 256.542 115.256 256.542C115.563 256.542 115.87 256.607 116.177 256.739C116.528 256.827 116.835 257.002 117.099 257.265C117.406 257.529 117.647 257.901 117.822 258.384C117.998 258.866 118.086 259.502 118.086 260.292C118.086 266.521 118.151 271.763 118.283 276.018C118.458 280.273 118.656 283.826 118.875 286.677C119.095 289.484 119.336 291.765 119.599 293.52C119.906 295.231 120.169 296.7 120.389 297.928C120.608 299.113 120.783 300.209 120.915 301.218C121.09 302.227 121.178 303.412 121.178 304.771C121.178 308.895 120.652 312.031 119.599 314.18C118.59 316.286 117.23 317.339 115.519 317.339C114.774 317.339 114.094 317.032 113.48 316.418C112.866 315.847 112.339 314.816 111.901 313.325C111.462 311.834 111.111 309.838 110.848 307.337C110.629 304.837 110.519 301.679 110.519 297.863C110.519 297.248 110.519 296.634 110.519 296.02C110.563 295.362 110.585 294.704 110.585 294.046C109.356 294.573 107.821 295.077 105.979 295.56C104.136 296.042 101.921 296.327 99.3333 296.415C99.2894 299.793 99.1139 302.973 98.8069 305.956C98.5437 308.939 98.0612 311.57 97.3593 313.851C96.7014 316.089 95.7802 317.865 94.5958 319.181C93.4553 320.497 91.9639 321.155 90.1216 321.155C89.5075 321.155 89.003 320.387 88.6082 318.852C88.2134 317.317 87.8845 315.299 87.6213 312.799C87.4019 310.254 87.2484 307.337 87.1607 304.048C87.073 300.758 87.0291 297.336 87.0291 293.783C87.0291 289.704 87.073 285.668 87.1607 281.676C87.2484 277.641 87.3361 274.022 87.4239 270.82C87.5555 267.091 87.709 263.494 87.8845 260.029C88.3231 259.722 88.7837 259.437 89.2662 259.174C89.7049 258.954 90.1874 258.757 90.7138 258.581C91.284 258.362 91.9201 258.252 92.6219 258.252C94.2449 258.252 95.5389 258.691 96.504 259.568C97.469 260.446 98.1928 261.542 98.6753 262.858C99.1578 264.13 99.4649 265.512 99.5964 267.003C99.7719 268.451 99.8596 269.767 99.8596 270.951C99.8596 273.057 99.7938 275.535 99.6622 278.386C99.5745 281.238 99.4868 284.593 99.3991 288.453C101.11 288.366 102.974 288.146 104.992 287.796C107.054 287.445 108.984 286.874 110.782 286.085C110.958 281.698 111.155 277.882 111.374 274.636C111.594 271.346 111.813 268.583 112.032 266.345C112.252 263.757 112.493 261.542 112.756 259.7ZM140.216 285.361C139.339 285.361 138.703 285.515 138.308 285.822C137.913 286.129 137.672 286.392 137.584 286.611C138.023 288.234 138.703 289.748 139.624 291.151C140.545 292.555 141.62 293.783 142.848 294.836C142.76 293.608 142.629 292.423 142.453 291.283C142.278 290.098 142.059 289.09 141.795 288.256C141.576 287.379 141.313 286.677 141.006 286.151C140.743 285.624 140.479 285.361 140.216 285.361ZM137.058 308.982C138.549 308.982 139.69 308.368 140.479 307.14C141.313 305.868 141.905 304.42 142.256 302.797C140.852 302.183 139.668 301.46 138.703 300.626C137.738 299.793 136.926 298.871 136.268 297.863C136.181 299.179 136.115 300.363 136.071 301.416C136.027 302.468 136.005 303.368 136.005 304.113C136.005 306.175 136.115 307.513 136.334 308.127C136.597 308.697 136.839 308.982 137.058 308.982ZM138.769 281.413C140.83 281.545 142.673 282.137 144.296 283.19C144.998 283.628 145.677 284.199 146.335 284.9C146.993 285.558 147.586 286.392 148.112 287.401C148.638 288.366 149.055 289.528 149.362 290.888C149.669 292.204 149.823 293.717 149.823 295.428C149.823 295.954 149.801 296.459 149.757 296.941C149.757 297.424 149.735 297.906 149.691 298.389C150.393 298.564 151.183 298.652 152.06 298.652C153.771 298.652 155.328 298.192 156.731 297.27C158.135 296.349 159.21 294.836 159.956 292.73C159.999 292.423 160.109 292.16 160.285 291.941C160.416 291.721 160.57 291.546 160.745 291.414C160.921 291.239 161.14 291.151 161.403 291.151C161.447 291.151 161.491 291.173 161.535 291.217C161.579 291.217 161.622 291.217 161.666 291.217C162.017 291.349 162.193 291.678 162.193 292.204C162.193 292.511 162.149 292.818 162.061 293.125C162.017 293.432 161.951 293.717 161.864 293.98C161.732 294.288 161.622 294.595 161.535 294.902C161.535 294.902 161.425 295.143 161.206 295.625C161.03 296.064 160.723 296.634 160.285 297.336C159.846 298.038 159.276 298.806 158.574 299.639C157.872 300.429 157.039 301.174 156.074 301.876C155.152 302.534 154.078 303.104 152.849 303.587C151.665 304.026 150.327 304.245 148.836 304.245H148.77C148.112 306.658 147.257 308.631 146.204 310.167C145.195 311.658 144.12 312.843 142.98 313.72C141.883 314.553 140.852 315.123 139.887 315.431C138.922 315.781 138.177 315.957 137.65 315.957C137.036 315.957 136.137 315.781 134.952 315.431C133.768 315.08 132.584 314.422 131.399 313.457C130.215 312.448 129.184 311.066 128.307 309.311C127.43 307.557 126.991 305.276 126.991 302.468C126.991 299.661 127.188 297.183 127.583 295.033C128.022 292.84 128.504 290.998 129.031 289.506C129.645 287.752 130.347 286.26 131.136 285.032C131.005 284.988 130.895 284.9 130.807 284.769C130.588 284.549 130.478 284.199 130.478 283.716C130.478 283.146 130.785 282.707 131.399 282.4C132.013 282.093 132.759 281.874 133.636 281.742C134.514 281.567 135.413 281.479 136.334 281.479C137.299 281.435 138.111 281.413 138.769 281.413ZM179.653 271.807C180.135 271.807 180.574 271.916 180.969 272.136C181.363 272.311 181.583 272.75 181.627 273.452C181.627 273.89 181.517 274.307 181.298 274.702C181.122 275.097 180.925 275.294 180.705 275.294C179.17 275.733 177.328 276.084 175.178 276.347C173.073 276.566 170.836 276.72 168.467 276.807C168.16 280.536 167.941 284.484 167.809 288.651C167.678 292.818 167.568 296.941 167.48 301.021C167.392 305.056 167.305 308.939 167.217 312.667C167.173 316.352 167.085 319.576 166.954 322.339C166.866 323.392 166.647 324.357 166.296 325.234C165.989 326.112 165.572 326.857 165.046 327.472C164.519 328.13 163.905 328.634 163.203 328.985C162.545 329.336 161.865 329.511 161.164 329.511C160.593 329.511 160.023 329.402 159.453 329.182C158.926 328.963 158.4 328.59 157.874 328.064C157.523 327.713 157.26 326.375 157.084 324.05C156.953 321.725 156.887 318.764 156.887 315.167C156.887 312.492 156.931 309.575 157.018 306.416C157.106 303.258 157.216 300.012 157.347 296.678C157.479 293.301 157.632 289.923 157.808 286.545C158.027 283.124 158.247 279.856 158.466 276.741C156.316 276.61 154.386 276.391 152.676 276.084C150.965 275.733 149.627 275.294 148.662 274.768C148.487 274.68 148.289 274.504 148.07 274.241C147.85 273.978 147.697 273.737 147.609 273.517C147.522 273.342 147.478 273.145 147.478 272.925C147.478 272.794 147.522 272.574 147.609 272.267C147.697 271.96 147.807 271.653 147.938 271.346C148.07 271.039 148.201 270.776 148.333 270.557C148.465 270.293 148.574 270.162 148.662 270.162C148.75 270.118 148.903 270.096 149.123 270.096C149.298 270.096 149.495 270.118 149.715 270.162C149.934 270.162 150.175 270.184 150.439 270.228C151.886 270.578 153.312 270.886 154.715 271.149C156.075 271.368 157.457 271.587 158.861 271.807C159.036 269.438 159.233 267.245 159.453 265.227C159.716 263.209 159.957 261.476 160.177 260.029C160.44 258.537 160.681 257.397 160.9 256.607C161.164 255.774 161.427 255.357 161.69 255.357C162.041 255.226 162.414 255.094 162.809 254.962C163.159 254.875 163.532 254.787 163.927 254.699C164.366 254.612 164.826 254.568 165.309 254.568C165.879 254.568 166.449 254.677 167.02 254.897C167.634 255.072 168.182 255.423 168.665 255.949C169.147 256.432 169.542 257.112 169.849 257.989C170.156 258.866 170.309 260.007 170.309 261.411C170.309 262.112 170.266 262.858 170.178 263.648C170.09 264.437 169.959 265.315 169.783 266.28C169.564 267.245 169.388 268.254 169.257 269.306C169.125 270.315 168.993 271.39 168.862 272.53H169.191C171.121 272.53 173.007 272.465 174.849 272.333C175.858 272.245 176.823 272.136 177.745 272.004C178.71 271.872 179.346 271.807 179.653 271.807ZM191.426 287.203C191.426 286.194 191.119 285.69 190.505 285.69C190.154 285.69 189.803 285.822 189.452 286.085C189.102 286.348 188.838 286.655 188.663 287.006C188.312 287.839 188.115 288.804 188.071 289.901C188.071 290.954 188.005 292.05 187.873 293.191C188.005 293.147 188.268 293.059 188.663 292.928C189.058 292.796 189.452 292.533 189.847 292.138C190.242 291.7 190.593 291.107 190.9 290.362C191.251 289.572 191.426 288.519 191.426 287.203ZM209.389 292.994C209.959 292.994 210.245 293.323 210.245 293.98C210.245 295.077 209.784 296.7 208.863 298.85C208.073 300.692 206.999 302.754 205.639 305.035C204.323 307.272 202.787 309.377 201.033 311.351C199.278 313.281 197.348 314.904 195.243 316.22C193.137 317.58 190.966 318.26 188.729 318.26C188.027 318.26 187.106 318.128 185.965 317.865C184.825 317.602 183.706 316.944 182.61 315.891C181.513 314.838 180.548 313.259 179.714 311.154C178.925 309.048 178.53 306.153 178.53 302.468C178.53 301.416 178.596 300.187 178.727 298.784C178.859 297.336 179.078 295.867 179.385 294.375C179.692 292.84 180.109 291.349 180.636 289.901C181.162 288.453 181.842 287.159 182.675 286.019C183.509 284.835 184.496 283.892 185.636 283.19C186.821 282.488 188.18 282.137 189.716 282.137C190.023 282.137 190.483 282.181 191.097 282.269C191.712 282.312 192.326 282.51 192.94 282.861C193.554 283.168 194.102 283.65 194.585 284.308C195.067 284.922 195.308 285.8 195.308 286.94C195.308 288.739 195.045 290.296 194.519 291.612C194.036 292.884 193.4 293.937 192.611 294.77C191.821 295.604 190.966 296.218 190.045 296.612C189.123 297.007 188.268 297.205 187.479 297.205C187.391 298.17 187.325 299.135 187.281 300.1C187.237 301.021 187.215 301.92 187.215 302.797C187.215 305.122 187.391 307.074 187.742 308.653C188.137 310.233 188.816 311.022 189.781 311.022C190.834 311.022 192.062 310.627 193.466 309.838C194.87 309.048 196.317 307.995 197.809 306.679C199.344 305.364 200.814 303.828 202.217 302.074C203.665 300.319 204.959 298.477 206.099 296.547C206.626 295.625 207.174 294.814 207.744 294.112C208.358 293.366 208.907 292.994 209.389 292.994ZM213.211 256.015C213.299 255.84 213.43 255.664 213.606 255.489C213.781 255.357 214.001 255.248 214.264 255.16C214.527 255.028 214.856 254.962 215.251 254.962C215.646 254.962 216.106 255.05 216.633 255.226C217.203 255.357 217.861 255.62 218.607 256.015C219.528 256.498 220.186 257.551 220.58 259.174C220.975 260.797 221.173 262.902 221.173 265.49C221.173 269.219 220.844 273.781 220.186 279.176C219.528 284.528 218.76 290.449 217.883 296.941C217.795 297.599 217.685 298.367 217.554 299.244C217.422 300.122 217.312 301.043 217.225 302.008C217.137 302.929 217.049 303.894 216.962 304.903C216.918 305.868 216.896 306.789 216.896 307.666C216.896 309.202 217.005 310.496 217.225 311.548C217.488 312.601 217.97 313.128 218.672 313.128C219.33 313.128 220.251 312.623 221.436 311.614C222.62 310.562 223.87 309.246 225.186 307.666C226.502 306.087 227.796 304.355 229.068 302.468C230.34 300.538 231.415 298.696 232.292 296.941C232.687 296.196 233.082 295.538 233.477 294.967C233.828 294.485 234.201 294.046 234.595 293.652C234.99 293.213 235.407 292.994 235.846 292.994C236.196 292.994 236.416 293.147 236.503 293.454C236.635 293.761 236.701 294.024 236.701 294.244C236.701 294.682 236.635 295.187 236.503 295.757C236.372 296.283 236.24 296.788 236.109 297.27C235.933 297.841 235.736 298.411 235.517 298.981C233.894 302.841 232.095 306.285 230.121 309.311C229.288 310.627 228.367 311.899 227.358 313.128C226.393 314.356 225.34 315.452 224.199 316.418C223.103 317.383 221.94 318.15 220.712 318.72C219.484 319.335 218.212 319.642 216.896 319.642C214.966 319.642 213.299 319.378 211.895 318.852C210.535 318.326 209.395 317.47 208.474 316.286C207.596 315.145 206.938 313.632 206.5 311.746C206.105 309.86 205.908 307.557 205.908 304.837C205.908 299.924 206.544 293.498 207.816 285.558C209.088 277.575 210.886 267.727 213.211 256.015Z" fill="white"/>
<path d="M402.869 386.113C402.913 385.543 403.022 385.016 403.198 384.534C403.373 384.139 403.615 383.788 403.922 383.481C404.273 383.13 404.755 382.955 405.369 382.955C405.676 382.955 405.983 383.02 406.29 383.152C406.641 383.24 406.948 383.415 407.211 383.678C407.519 383.942 407.76 384.315 407.935 384.797C408.111 385.28 408.198 385.916 408.198 386.705C408.198 392.934 408.264 398.176 408.396 402.431C408.571 406.686 408.769 410.239 408.988 413.09C409.207 415.897 409.449 418.178 409.712 419.933C410.019 421.644 410.282 423.113 410.501 424.341C410.721 425.526 410.896 426.622 411.028 427.631C411.203 428.64 411.291 429.825 411.291 431.184C411.291 435.308 410.765 438.444 409.712 440.593C408.703 442.699 407.343 443.752 405.632 443.752C404.887 443.752 404.207 443.445 403.593 442.831C402.978 442.26 402.452 441.23 402.013 439.738C401.575 438.247 401.224 436.251 400.961 433.751C400.741 431.25 400.632 428.092 400.632 424.276C400.632 423.662 400.632 423.047 400.632 422.433C400.676 421.775 400.698 421.117 400.698 420.459C399.469 420.986 397.934 421.49 396.092 421.973C394.249 422.455 392.034 422.74 389.446 422.828C389.402 426.206 389.227 429.386 388.92 432.369C388.657 435.352 388.174 437.984 387.472 440.264C386.814 442.502 385.893 444.278 384.709 445.594C383.568 446.91 382.077 447.568 380.234 447.568C379.62 447.568 379.116 446.8 378.721 445.265C378.326 443.73 377.997 441.712 377.734 439.212C377.515 436.668 377.361 433.751 377.274 430.461C377.186 427.171 377.142 423.749 377.142 420.196C377.142 416.117 377.186 412.081 377.274 408.089C377.361 404.054 377.449 400.435 377.537 397.233C377.668 393.504 377.822 389.907 377.997 386.442C378.436 386.135 378.897 385.85 379.379 385.587C379.818 385.367 380.3 385.17 380.827 384.994C381.397 384.775 382.033 384.665 382.735 384.665C384.358 384.665 385.652 385.104 386.617 385.981C387.582 386.859 388.306 387.955 388.788 389.271C389.271 390.543 389.578 391.925 389.709 393.417C389.885 394.864 389.972 396.18 389.972 397.364C389.972 399.47 389.907 401.948 389.775 404.8C389.687 407.651 389.6 411.006 389.512 414.867C391.223 414.779 393.087 414.56 395.105 414.209C397.166 413.858 399.096 413.287 400.895 412.498C401.07 408.111 401.268 404.295 401.487 401.049C401.706 397.759 401.926 394.996 402.145 392.759C402.364 390.171 402.606 387.955 402.869 386.113ZM454.122 443.16C454.122 442.458 454.012 441.756 453.793 441.054C453.618 440.308 453.355 439.541 453.004 438.751C451.995 439.76 451.205 440.835 450.635 441.975C450.065 443.16 449.78 444.454 449.78 445.857C449.78 446.778 449.977 447.524 450.372 448.094C450.81 448.665 451.271 448.95 451.753 448.95C452.324 448.95 452.85 448.511 453.333 447.634C453.859 446.757 454.122 445.265 454.122 443.16ZM452.872 405.194C453.705 405.194 454.473 405.26 455.175 405.392C455.789 405.479 456.337 405.633 456.82 405.852C457.302 406.072 457.544 406.379 457.544 406.773C457.544 407.519 457.324 407.98 456.886 408.155C456.447 408.331 456.096 408.418 455.833 408.418C455.701 408.418 455.504 408.396 455.241 408.353C454.978 408.309 454.649 408.287 454.254 408.287C453.815 408.287 453.333 408.353 452.806 408.484C452.324 408.572 451.841 408.769 451.359 409.076C450.92 409.383 450.547 409.844 450.24 410.458C449.933 411.028 449.78 411.796 449.78 412.761C449.78 413.945 450.043 415.196 450.569 416.512C451.095 417.784 451.775 419.143 452.609 420.591C453.442 421.995 454.341 423.464 455.307 424.999C456.272 426.491 457.215 428.026 458.136 429.605C459.89 428.684 461.667 427.807 463.465 426.973C465.264 426.14 466.953 425.306 468.532 424.473C470.111 423.596 471.515 422.697 472.743 421.775C474.015 420.81 475.024 419.758 475.77 418.617C475.857 418.529 476.011 418.288 476.23 417.893C476.493 417.498 476.844 417.301 477.283 417.301C477.502 417.301 477.744 417.389 478.007 417.564C478.314 417.696 478.467 417.937 478.467 418.288C478.467 418.639 478.336 419.143 478.073 419.801C477.853 420.459 477.436 421.337 476.822 422.433C476.208 423.486 475.309 424.495 474.125 425.46C472.94 426.381 471.58 427.28 470.045 428.158C468.554 429.035 466.931 429.912 465.176 430.79C463.465 431.667 461.799 432.588 460.176 433.553C460.79 434.913 461.272 436.295 461.623 437.698C462.018 439.058 462.215 440.44 462.215 441.844C462.215 444.607 461.842 446.822 461.097 448.489C460.351 450.156 459.452 451.428 458.399 452.305C457.39 453.227 456.337 453.819 455.241 454.082C454.188 454.345 453.333 454.477 452.675 454.477C451.885 454.477 451.03 454.411 450.108 454.279C449.231 454.148 448.398 453.775 447.608 453.161C446.862 452.547 446.248 451.604 445.766 450.332C445.283 449.059 445.042 447.283 445.042 445.002C445.042 442.721 445.568 440.725 446.621 439.014C447.674 437.26 449.034 435.681 450.701 434.277C449.692 432.566 448.573 430.833 447.345 429.079C446.161 427.28 445.042 425.504 443.989 423.749C442.98 421.995 442.125 420.284 441.423 418.617C440.721 416.95 440.37 415.371 440.37 413.88C440.37 411.73 440.875 410.063 441.884 408.879C442.893 407.695 444.077 406.839 445.437 406.313C446.797 405.743 448.178 405.414 449.582 405.326C450.986 405.238 452.082 405.194 452.872 405.194ZM496.303 398.22C496.786 398.22 497.224 398.329 497.619 398.549C498.014 398.724 498.233 399.163 498.277 399.865C498.277 400.303 498.167 400.72 497.948 401.115C497.773 401.51 497.575 401.707 497.356 401.707C495.821 402.146 493.978 402.497 491.829 402.76C489.723 402.979 487.486 403.133 485.118 403.22C484.81 406.949 484.591 410.897 484.46 415.064C484.328 419.231 484.218 423.354 484.131 427.434C484.043 431.47 483.955 435.352 483.867 439.08C483.823 442.765 483.736 445.989 483.604 448.752C483.516 449.805 483.297 450.77 482.946 451.647C482.639 452.525 482.222 453.271 481.696 453.885C481.17 454.543 480.556 455.047 479.854 455.398C479.196 455.749 478.516 455.924 477.814 455.924C477.244 455.924 476.673 455.815 476.103 455.595C475.577 455.376 475.05 455.003 474.524 454.477C474.173 454.126 473.91 452.788 473.734 450.463C473.603 448.138 473.537 445.177 473.537 441.58C473.537 438.905 473.581 435.988 473.669 432.829C473.756 429.671 473.866 426.425 473.998 423.091C474.129 419.714 474.283 416.336 474.458 412.958C474.678 409.537 474.897 406.269 475.116 403.155C472.967 403.023 471.037 402.804 469.326 402.497C467.615 402.146 466.277 401.707 465.312 401.181C465.137 401.093 464.94 400.917 464.72 400.654C464.501 400.391 464.347 400.15 464.26 399.93C464.172 399.755 464.128 399.558 464.128 399.338C464.128 399.207 464.172 398.987 464.26 398.68C464.347 398.373 464.457 398.066 464.589 397.759C464.72 397.452 464.852 397.189 464.983 396.97C465.115 396.706 465.225 396.575 465.312 396.575C465.4 396.531 465.554 396.509 465.773 396.509C465.948 396.509 466.146 396.531 466.365 396.575C466.584 396.575 466.826 396.597 467.089 396.641C468.536 396.992 469.962 397.299 471.366 397.562C472.726 397.781 474.107 398 475.511 398.22C475.686 395.851 475.884 393.658 476.103 391.64C476.366 389.622 476.608 387.89 476.827 386.442C477.09 384.951 477.331 383.81 477.551 383.02C477.814 382.187 478.077 381.77 478.34 381.77C478.691 381.639 479.064 381.507 479.459 381.376C479.81 381.288 480.183 381.2 480.577 381.112C481.016 381.025 481.477 380.981 481.959 380.981C482.529 380.981 483.1 381.09 483.67 381.31C484.284 381.485 484.832 381.836 485.315 382.363C485.797 382.845 486.192 383.525 486.499 384.402C486.806 385.28 486.96 386.42 486.96 387.824C486.96 388.526 486.916 389.271 486.828 390.061C486.741 390.85 486.609 391.728 486.433 392.693C486.214 393.658 486.039 394.667 485.907 395.719C485.775 396.728 485.644 397.803 485.512 398.944H485.841C487.771 398.944 489.658 398.878 491.5 398.746C492.509 398.658 493.474 398.549 494.395 398.417C495.36 398.286 495.996 398.22 496.303 398.22ZM505.187 411.774C504.31 411.774 503.673 411.928 503.279 412.235C502.884 412.542 502.643 412.805 502.555 413.024C502.994 414.647 503.673 416.161 504.595 417.564C505.516 418.968 506.591 420.196 507.819 421.249C507.731 420.021 507.599 418.836 507.424 417.696C507.248 416.512 507.029 415.503 506.766 414.669C506.547 413.792 506.283 413.09 505.976 412.564C505.713 412.037 505.45 411.774 505.187 411.774ZM502.029 435.395C503.52 435.395 504.66 434.781 505.45 433.553C506.283 432.281 506.876 430.833 507.227 429.21C505.823 428.596 504.639 427.873 503.673 427.039C502.708 426.206 501.897 425.285 501.239 424.276C501.151 425.592 501.085 426.776 501.042 427.829C500.998 428.881 500.976 429.781 500.976 430.526C500.976 432.588 501.085 433.926 501.305 434.54C501.568 435.11 501.809 435.395 502.029 435.395ZM503.739 407.826C505.801 407.958 507.643 408.55 509.266 409.603C509.968 410.041 510.648 410.612 511.306 411.313C511.964 411.971 512.556 412.805 513.083 413.814C513.609 414.779 514.026 415.941 514.333 417.301C514.64 418.617 514.793 420.13 514.793 421.841C514.793 422.368 514.771 422.872 514.728 423.354C514.728 423.837 514.706 424.32 514.662 424.802C515.364 424.977 516.153 425.065 517.03 425.065C518.741 425.065 520.298 424.605 521.702 423.683C523.106 422.762 524.18 421.249 524.926 419.143C524.97 418.836 525.08 418.573 525.255 418.354C525.387 418.135 525.54 417.959 525.716 417.827C525.891 417.652 526.111 417.564 526.374 417.564C526.418 417.564 526.461 417.586 526.505 417.63C526.549 417.63 526.593 417.63 526.637 417.63C526.988 417.762 527.163 418.091 527.163 418.617C527.163 418.924 527.119 419.231 527.032 419.538C526.988 419.845 526.922 420.13 526.834 420.394C526.703 420.701 526.593 421.008 526.505 421.315C526.505 421.315 526.396 421.556 526.176 422.039C526.001 422.477 525.694 423.047 525.255 423.749C524.816 424.451 524.246 425.219 523.544 426.052C522.843 426.842 522.009 427.587 521.044 428.289C520.123 428.947 519.048 429.518 517.82 430C516.636 430.439 515.298 430.658 513.806 430.658H513.741C513.083 433.071 512.227 435.045 511.174 436.58C510.166 438.071 509.091 439.256 507.95 440.133C506.854 440.966 505.823 441.537 504.858 441.844C503.893 442.195 503.147 442.37 502.621 442.37C502.007 442.37 501.107 442.195 499.923 441.844C498.739 441.493 497.554 440.835 496.37 439.87C495.186 438.861 494.155 437.479 493.277 435.724C492.4 433.97 491.961 431.689 491.961 428.881C491.961 426.074 492.159 423.596 492.554 421.446C492.992 419.253 493.475 417.411 494.001 415.919C494.615 414.165 495.317 412.673 496.107 411.445C495.975 411.401 495.865 411.313 495.778 411.182C495.558 410.963 495.449 410.612 495.449 410.129C495.449 409.559 495.756 409.12 496.37 408.813C496.984 408.506 497.73 408.287 498.607 408.155C499.484 407.98 500.384 407.892 501.305 407.892C502.27 407.848 503.081 407.826 503.739 407.826ZM524.752 409.405C524.752 410.327 525.038 411.401 525.608 412.629C525.695 411.752 525.761 410.941 525.805 410.195C525.893 409.449 525.937 408.791 525.937 408.221C525.937 407.695 525.871 407.234 525.739 406.839C525.608 406.401 525.454 406.181 525.279 406.181C525.147 406.181 525.016 406.423 524.884 406.905C524.796 407.344 524.752 408.177 524.752 409.405ZM524.16 422.433C524.204 422.389 524.226 422.302 524.226 422.17C524.226 422.082 524.226 421.995 524.226 421.907C524.226 421.775 524.248 421.644 524.292 421.512C523.59 420.591 522.844 419.648 522.055 418.683C521.309 417.718 520.629 416.731 520.015 415.722C519.401 414.669 518.896 413.573 518.502 412.432C518.063 411.248 517.844 409.998 517.844 408.682C517.844 408.418 517.887 407.958 517.975 407.3C518.019 406.598 518.151 405.896 518.37 405.194C518.589 404.449 518.896 403.791 519.291 403.22C519.686 402.65 520.19 402.365 520.805 402.365C521.331 402.365 522.12 402.211 523.173 401.904C524.226 401.597 525.279 401.444 526.332 401.444C526.902 401.444 527.428 401.532 527.911 401.707C528.437 401.839 528.898 402.102 529.292 402.497C529.687 402.891 529.994 403.418 530.214 404.076C530.477 404.734 530.608 405.589 530.608 406.642C530.608 409.098 530.411 411.292 530.016 413.222C529.665 415.108 529.227 416.753 528.7 418.156C529.27 419.121 529.841 420.13 530.411 421.183C530.981 422.236 531.486 423.333 531.924 424.473C532.363 425.614 532.714 426.82 532.977 428.092C533.24 429.364 533.372 430.68 533.372 432.04C533.372 434.672 533.109 436.997 532.582 439.014C532.1 440.988 531.551 442.699 530.937 444.147C530.367 445.594 529.819 446.8 529.292 447.765C528.81 448.774 528.569 449.608 528.569 450.266C528.569 450.88 528.613 451.362 528.7 451.713C528.788 452.108 528.876 452.437 528.963 452.7C529.095 452.963 529.227 453.205 529.358 453.424C529.49 453.643 529.599 453.928 529.687 454.279C529.731 454.455 529.753 454.718 529.753 455.069C529.753 455.595 529.665 456.034 529.49 456.385C529.314 456.78 529.117 457.087 528.898 457.306C528.634 457.569 528.349 457.789 528.042 457.964C527.955 458.008 527.823 458.052 527.647 458.096C527.472 458.14 527.143 458.161 526.661 458.161C526.134 458.161 525.52 458.03 524.818 457.767C524.116 457.503 523.436 456.955 522.778 456.122C522.164 455.332 521.638 454.17 521.199 452.634C520.805 451.099 520.607 449.038 520.607 446.449C520.607 445.177 520.958 443.708 521.66 442.041C522.406 440.374 523.195 438.729 524.029 437.106C524.906 435.439 525.695 433.882 526.397 432.435C527.143 430.943 527.516 429.759 527.516 428.881C527.516 427.96 527.362 427.083 527.055 426.25C526.748 425.372 526.353 424.517 525.871 423.683L525.805 423.749L524.16 422.433ZM553.184 413.616C553.184 412.608 552.877 412.103 552.263 412.103C551.912 412.103 551.561 412.235 551.21 412.498C550.859 412.761 550.596 413.068 550.421 413.419C550.07 414.252 549.872 415.217 549.829 416.314C549.829 417.367 549.763 418.464 549.631 419.604C549.763 419.56 550.026 419.472 550.421 419.341C550.815 419.209 551.21 418.946 551.605 418.551C552 418.113 552.351 417.52 552.658 416.775C553.009 415.985 553.184 414.932 553.184 413.616ZM571.147 419.407C571.717 419.407 572.002 419.736 572.002 420.394C572.002 421.49 571.542 423.113 570.621 425.263C569.831 427.105 568.756 429.167 567.397 431.448C566.081 433.685 564.545 435.79 562.791 437.764C561.036 439.694 559.106 441.317 557 442.633C554.895 443.993 552.724 444.673 550.486 444.673C549.785 444.673 548.863 444.541 547.723 444.278C546.582 444.015 545.464 443.357 544.367 442.304C543.271 441.251 542.306 439.672 541.472 437.567C540.683 435.461 540.288 432.566 540.288 428.881C540.288 427.829 540.354 426.601 540.485 425.197C540.617 423.749 540.836 422.28 541.143 420.788C541.45 419.253 541.867 417.762 542.393 416.314C542.92 414.867 543.6 413.573 544.433 412.432C545.267 411.248 546.254 410.305 547.394 409.603C548.578 408.901 549.938 408.55 551.473 408.55C551.781 408.55 552.241 408.594 552.855 408.682C553.469 408.725 554.083 408.923 554.698 409.274C555.312 409.581 555.86 410.063 556.342 410.721C556.825 411.335 557.066 412.213 557.066 413.353C557.066 415.152 556.803 416.709 556.277 418.025C555.794 419.297 555.158 420.35 554.369 421.183C553.579 422.017 552.724 422.631 551.802 423.025C550.881 423.42 550.026 423.618 549.236 423.618C549.149 424.583 549.083 425.548 549.039 426.513C548.995 427.434 548.973 428.333 548.973 429.21C548.973 431.535 549.149 433.487 549.5 435.066C549.894 436.646 550.574 437.435 551.539 437.435C552.592 437.435 553.82 437.04 555.224 436.251C556.628 435.461 558.075 434.408 559.567 433.093C561.102 431.777 562.571 430.241 563.975 428.487C565.423 426.732 566.717 424.89 567.857 422.96C568.383 422.039 568.932 421.227 569.502 420.525C570.116 419.779 570.664 419.407 571.147 419.407Z" fill="white"/>
</g>
<defs>
<clipPath id="clip0_4090_3305">
<rect width="717.836" height="1030.27" fill="white" transform="translate(0 0.698242)"/>
</clipPath>
</defs>
</svg>
