<svg width="1442" height="1294" viewBox="0 0 1442 1294" fill="none" xmlns="http://www.w3.org/2000/svg">
<g clip-path="url(#clip0_4090_2576)">
<path d="M734.276 640.47C743.869 606.169 743.868 568.379 740.38 531.171C733.694 460.825 704.044 393.095 661.313 336.992C596.199 251.53 503.76 191.067 408.124 142.231C279.349 76.8264 145.342 28.5722 3.48659 0.375488C-7.26886 96.3025 9.00966 192.811 28.1951 287.575C34.8809 320.423 41.8574 353.27 52.3221 385.246C76.1585 458.79 116.564 525.648 156.388 591.925C175.283 623.029 194.178 654.423 219.758 680.294C242.432 703.259 269.466 721.281 297.953 736.397C354.347 766.047 418.007 784.651 481.668 779.128C526.725 775.059 568.584 767.21 611.606 752.966C634.861 745.408 658.406 737.56 678.173 723.025C708.114 700.933 725.264 672.446 734.276 640.761V640.47Z" fill="#7CA534"/>
<path d="M849.396 647.157C778.759 632.913 702.89 629.425 638.357 663.145C618.881 673.319 600.568 687.272 589.231 706.167C565.394 745.41 580.51 786.978 586.033 832.616C590.975 872.44 604.637 910.52 618.299 948.31C628.183 975.925 638.357 1003.83 654.054 1028.83C672.658 1058.48 698.239 1083.19 723.819 1107.32C748.237 1130.57 772.945 1153.83 800.561 1173.01C860.733 1214.58 932.533 1234.64 1002.88 1253.53C1067.7 1270.97 1133.4 1288.41 1200.55 1291.9C1281.65 1295.97 1362.17 1279.98 1441.82 1264C1430.19 1193.36 1424.96 1124.76 1397.05 1058.77C1327.87 893.951 1175.55 777.385 1013.63 701.516C979.624 685.528 944.742 670.993 908.697 661.11C889.511 655.878 869.744 650.936 849.396 646.866V647.157Z" fill="#7CA534"/>
<path d="M579.935 707.039C556.389 657.04 555.517 598.612 570.052 545.126C588.946 476.233 630.805 413.153 684.873 366.643C734 324.203 804.055 286.704 865.681 266.356C938.353 242.52 1011.61 218.393 1087.77 211.416C1091.55 211.125 1070.62 342.807 1067.42 354.725C1054.63 402.979 1035.73 449.489 1012.19 493.383C988.642 537.568 960.445 580.88 927.598 618.67C858.705 698.609 777.021 753.258 666.851 739.886C634.003 735.817 597.086 742.503 580.226 706.748L579.935 707.039Z" fill="#A0BC39"/>
<path d="M193.313 1225.33C184.011 1130.86 195.639 1034.35 226.742 944.817C238.37 911.678 252.613 879.412 272.671 850.924C309.588 798.601 364.528 760.811 423.829 736.975C483.129 712.848 546.789 701.802 610.45 694.534C631.961 692.209 646.495 712.266 657.542 730.87C668.588 749.474 672.367 771.567 672.657 793.078C674.111 850.052 654.344 905.283 629.926 956.735C615.392 987.257 599.113 1017.49 577.602 1043.36C519.465 1113.42 430.514 1148.3 345.343 1180.56C293.6 1200.04 244.474 1205.85 193.022 1225.33H193.313Z" fill="#A0BC39"/>
<path d="M1415.65 1256.73C1415.65 1256.73 1412.74 1256.43 1411.58 1255.56L604.051 712.267C600.853 709.942 599.691 705.582 602.016 702.093C604.342 698.896 608.702 697.733 612.19 700.059L1419.72 1243.35C1422.92 1245.68 1423.79 1250.04 1421.76 1253.53C1420.3 1255.56 1417.98 1256.73 1415.65 1256.73Z" fill="#546D1D"/>
<path d="M854.923 876.798C851.725 876.798 848.819 874.472 847.946 871.274C847.074 867.495 849.4 863.426 853.179 862.554L1148.81 788.719C1152.59 787.556 1156.66 790.173 1157.53 793.951C1158.4 797.73 1156.08 801.8 1152.3 802.672L856.667 876.507C856.667 876.507 855.504 876.507 854.923 876.507V876.798Z" fill="#546D1D"/>
<path d="M1085.43 1035.23C1082.23 1035.23 1079.32 1033.19 1078.45 1029.99C1077.29 1026.21 1079.32 1022.15 1083.39 1020.98C1161.59 997.146 1311 951.799 1316.24 950.055C1320.01 948.601 1324.08 950.927 1325.54 954.706C1326.7 958.485 1324.66 962.554 1320.89 964.008C1314.2 966.333 1096.77 1032.32 1087.75 1035.23C1087.17 1035.23 1086.3 1035.52 1085.72 1035.52L1085.43 1035.23Z" fill="#546D1D"/>
<path d="M955.482 1232.89C952.284 1232.89 949.378 1230.86 948.506 1227.66L845.311 872.44C844.149 868.661 846.474 864.591 850.253 863.428C854.032 862.266 858.102 864.591 859.264 868.37L962.459 1223.59C963.621 1227.37 961.296 1231.44 957.517 1232.6C956.935 1232.6 956.063 1232.6 955.482 1232.6V1232.89Z" fill="#546D1D"/>
<path d="M1209.85 1279.4C1207.23 1279.4 1204.62 1277.95 1203.45 1275.33L1081.37 1036.39C1079.62 1032.9 1081.07 1028.54 1084.56 1026.51C1088.05 1024.76 1092.41 1026.21 1094.45 1029.7L1216.53 1268.65C1218.28 1272.14 1216.83 1276.5 1213.34 1278.53C1212.17 1279.11 1211.01 1279.4 1210.14 1279.4H1209.85Z" fill="#546D1D"/>
<path d="M226.442 284.665C222.663 284.665 219.465 281.758 219.174 277.979L206.094 69.8467C206.094 65.7771 209 62.2888 212.779 62.2888C217.14 61.7075 220.337 65.1957 220.628 68.9747L234 277.107C234 281.177 231.093 284.665 227.314 284.665C227.314 284.665 227.023 284.665 226.732 284.665H226.442Z" fill="#546D1D"/>
<path d="M222.094 284.959C222.094 284.959 220.641 284.959 220.059 284.668L29.0775 224.787C25.2986 223.624 23.2638 219.554 24.4265 215.775C25.5893 211.996 29.6589 209.962 33.4379 211.124L224.42 271.006C228.199 272.169 230.524 276.238 229.071 280.017C228.199 283.215 225.292 284.959 222.094 284.959Z" fill="#546D1D"/>
<path d="M430.809 533.496C427.031 533.496 423.833 530.299 423.542 526.52L410.171 166.939C410.171 162.869 413.078 159.672 417.147 159.381C421.798 159.381 424.414 162.288 424.705 166.357L438.077 525.938C438.077 530.008 435.17 533.205 431.1 533.496H430.809Z" fill="#546D1D"/>
<path d="M430.786 533.496L105.797 486.695C101.728 486.114 99.1113 482.335 99.6927 478.556C100.274 474.486 104.053 471.58 107.832 472.452L431.949 518.962C436.019 519.543 438.635 523.322 438.053 527.101C437.472 530.589 434.565 533.205 430.786 533.205V533.496Z" fill="#546D1D"/>
<path d="M596.789 734.942L591.557 728.547L5.53035 20.4317C2.91416 17.2342 3.49554 12.8738 6.40241 10.2576C9.59998 7.64146 13.9603 8.22283 16.5765 11.1297L597.661 712.85L1065.38 225.076C1068.28 222.169 1072.65 222.169 1075.55 225.076C1078.46 227.983 1078.46 232.343 1075.55 235.25L596.789 734.942Z" fill="#546D1D"/>
<path d="M867.992 449.199C863.051 448.618 860.144 445.13 860.725 441.06L881.655 276.531C882.236 272.461 885.724 269.845 889.794 270.136C893.863 270.717 896.48 274.205 896.189 278.275L875.259 442.804C874.678 446.583 871.771 449.199 867.992 449.199Z" fill="#546D1D"/>
<path d="M867.993 449.198C864.505 449.198 861.307 446.581 860.726 442.803C860.144 438.733 863.051 435.245 867.121 434.663L1028.74 414.024C1032.52 413.734 1036.3 416.35 1036.88 420.42C1037.46 424.489 1034.56 427.977 1030.49 428.559L868.865 449.198C868.865 449.198 868.283 449.198 867.993 449.198Z" fill="#546D1D"/>
<path d="M712.469 602.392C708.399 602.392 705.202 599.194 705.202 595.124L707.527 357.632C707.527 353.563 710.725 350.365 714.794 350.365C718.864 350.365 722.062 353.563 722.062 357.632L719.736 595.124C719.736 599.194 716.539 602.392 712.469 602.392Z" fill="#546D1D"/>
<path d="M714.505 605.587C710.727 605.587 707.529 602.68 707.238 598.901C706.948 594.832 709.854 591.343 713.924 591.053L948.8 569.251C952.869 568.67 956.358 571.867 956.648 575.937C956.939 580.007 954.032 583.495 949.963 583.785L715.087 605.587H714.505Z" fill="#546D1D"/>
<path d="M205.803 1218.36C204.059 1218.36 202.606 1217.77 201.152 1216.61C197.955 1214 197.664 1209.34 200.28 1206.44L627.01 699.188C629.626 695.99 634.277 695.7 637.184 698.316C640.381 700.932 640.672 705.583 638.056 708.49L211.326 1216.03C209.873 1217.77 207.838 1218.65 205.803 1218.65V1218.36Z" fill="#546D1D"/>
<path d="M293.008 857.611C289.229 857.611 286.031 854.704 285.741 850.925C285.45 846.856 288.357 843.367 292.427 843.077L525.558 820.984C529.628 820.403 533.116 823.601 533.407 827.67C533.697 831.74 530.791 835.228 526.721 835.519L293.589 857.611H293.008Z" fill="#546D1D"/>
<path d="M219.771 1030.86C216.283 1030.86 213.085 1028.25 212.504 1024.76C211.922 1020.69 214.539 1017.2 218.608 1016.62L379.068 992.493C382.847 991.911 386.626 994.528 387.207 998.597C387.788 1002.67 385.172 1006.16 381.103 1006.74L220.643 1030.86C220.643 1030.86 219.771 1030.86 219.48 1030.86H219.771Z" fill="#546D1D"/>
<path d="M383.997 1154.99C379.637 1154.99 376.73 1151.5 376.73 1147.43L381.381 995.109C381.381 991.039 384.288 988.132 388.939 988.132C393.009 988.132 396.206 991.621 395.916 995.69L391.265 1148.01C391.265 1151.79 387.776 1154.99 383.997 1154.99Z" fill="#546D1D"/>
<path d="M526.135 1086.39C522.065 1086.39 518.868 1083.19 518.868 1079.12L520.612 830.873C520.612 826.803 523.809 823.605 527.879 823.605C531.949 823.605 535.146 826.803 535.146 830.873L533.402 1079.12C533.402 1083.19 530.205 1086.39 526.135 1086.39Z" fill="#546D1D"/>
<path d="M527.318 634.369C528.48 621.579 531.678 608.208 539.527 598.033C547.666 587.859 561.619 581.464 573.828 585.825C583.42 589.022 589.816 597.743 595.048 606.463C613.361 635.242 626.442 667.508 633.419 700.937C654.348 700.356 675.568 699.484 696.498 698.902C708.416 698.611 720.625 698.03 732.253 701.518C743.88 704.716 754.636 712.274 758.996 723.611C764.228 737.273 758.124 753.261 747.368 763.435C736.613 773.609 722.369 778.551 708.126 782.039C677.894 789.597 646.209 791.632 615.396 787.562C546.794 778.551 520.923 696.577 527.027 634.951L527.318 634.369Z" fill="#546D1D"/>
</g>
<defs>
<clipPath id="clip0_4090_2576">
<rect width="1441.81" height="1292.69" fill="white" transform="translate(0 0.375488)"/>
</clipPath>
</defs>
</svg>
