<svg width="1205" height="1164" viewBox="0 0 1205 1164" fill="none" xmlns="http://www.w3.org/2000/svg">
<g clip-path="url(#clip0_4090_2974)">
<path d="M533.478 115.544C522.333 105.298 593.337 11.6449 606.279 4.63444C647.263 -17.8351 680.159 67.7289 693.101 95.0519C693.101 95.0519 764.644 9.12835 801.494 15.2401C801.494 15.2401 821.987 6.97127 828.098 127.768C827.739 120.218 873.577 95.9506 881.126 92.3555C897.484 84.0867 928.942 70.605 946.917 82.6487C970.465 98.4672 960.579 167.314 959.141 191.221C982.329 176.302 1047.22 137.834 1075.08 154.551C1106.9 173.785 1050.64 262.045 1038.95 281.279C1045.06 271.033 1094.14 270.134 1106.18 270.674C1127.03 271.573 1158.85 274.988 1158.85 299.255C1158.85 329.274 1118.23 368.102 1100.43 387.695C1100.43 387.695 1198.58 414.299 1204.87 463.373C1204.87 463.373 1210.98 483.865 1108.7 514.603C1108.7 514.603 1200.73 551.453 1194.62 596.392C1194.62 596.392 1204.87 618.862 1082.09 665.958C1089.82 662.902 1123.62 693.82 1128.83 698.494C1151.84 718.806 1180.96 753.679 1149.14 778.845C1121.64 800.416 1073.65 800.416 1041.11 798.978C1041.11 798.978 1131.17 874.655 1094.32 927.863C1094.32 927.863 1057.47 950.332 989.879 919.594C989.879 919.594 1036.98 997.429 989.879 1060.88C989.879 1060.88 948.895 1081.37 889.575 1017.92C889.575 1017.92 907.91 1112.11 864.948 1128.47C864.948 1128.47 813.718 1128.47 766.801 1060.88C766.801 1060.88 770.936 1146.81 719.705 1157.05C719.705 1157.05 686.99 1157.05 658.229 1085.51C658.229 1085.51 631.625 1163.34 592.797 1163.34C592.797 1163.34 551.813 1165.32 529.343 1083.53C529.343 1083.53 476.135 1159.21 431.196 1153.1C431.196 1153.1 396.324 1138.72 390.212 1056.93C369.18 1081.19 296.739 1135.66 264.922 1107.8C238.677 1084.79 269.595 1013.07 279.662 987.362C279.662 987.362 195.716 1038.59 152.754 1001.74C152.754 1001.74 136.396 979.273 193.738 895.327C193.738 895.327 79.0538 917.796 62.6959 878.969C62.6959 878.969 50.4725 856.5 120.038 780.822C92.895 779.204 26.2054 776.149 10.5666 749.185C-1.65683 727.794 23.3293 697.056 37.7098 683.574C46.6976 675.305 87.6821 640.612 99.3662 643.848C99.1865 643.848 -0.937801 617.244 1.21927 576.259C1.21927 576.259 -17.1159 549.656 103.501 512.806C94.1533 515.682 59.1008 484.045 52.4498 478.652C36.2718 465.17 -0.758045 432.095 16.4986 407.828C35.373 381.583 112.129 390.931 140.171 394.166C129.925 393.088 111.23 350.126 107.635 342.217C94.5128 312.917 87.5023 273.37 127.228 265.101C158.506 258.63 200.03 271.213 230.229 277.505C221.601 275.707 216.028 221.421 215.669 213.152C215.129 194.637 218.545 163.179 237.958 153.293C268.337 138.014 329.814 173.426 354.98 185.29C332.33 174.504 377.449 67.3694 386.976 54.0674C424.725 1.75834 504.357 89.2997 533.118 115.724L533.478 115.544Z" fill="#F9EC5D"/>
<path d="M1028.72 565.841C1028.72 651.405 1002.3 735.711 955.203 807.074C877.908 924.095 766.099 980.359 631.282 999.773C582.208 1006.78 530.978 1005.88 483.163 991.863C421.147 973.708 361.288 942.61 310.597 902.524C241.57 847.878 189.621 771.302 169.847 685.019C150.254 599.276 150.793 514.431 183.149 433.36C205.259 377.636 237.436 326.046 277.701 281.466C357.513 192.847 482.264 138.201 603.06 138.201C837.642 138.201 1028.72 331.439 1028.72 566.021V565.841Z" fill="#E2CF33"/>
<path d="M914.563 589.382C913.304 654.993 894.789 719.705 855.602 772.733C792.868 857.578 690.946 905.393 587.766 916.898C560.802 919.954 533.479 918.875 507.055 913.483C391.472 890.294 303.571 791.608 272.833 680.698C238.679 557.565 276.248 443.24 367.384 354.62C403.336 319.568 445.938 290.986 492.495 271.932C595.495 229.33 708.202 234.903 796.103 309.142C838.346 344.734 869.264 392.01 888.857 443.42C906.294 489.437 915.461 539.589 914.383 589.562L914.563 589.382Z" fill="#F9EC5D"/>
<path d="M827.394 587.408C826.495 635.403 813.014 683.038 784.253 721.686C738.235 783.882 663.456 818.934 587.959 827.383C568.186 829.54 548.233 828.821 528.819 824.866C444.154 807.789 379.621 735.527 357.152 654.277C332.166 564.04 359.668 480.273 426.538 415.202C452.962 389.496 484.06 368.645 518.213 354.624C593.711 323.526 676.219 327.481 740.752 381.947C771.67 408.011 794.499 442.704 808.7 480.273C821.462 513.888 828.113 550.918 827.394 587.408Z" fill="#EDDA3A"/>
<path d="M385.358 284.517C377.808 269.058 355.878 276.068 347.789 286.854C344.733 290.988 343.115 296.56 344.733 301.414C346.89 307.705 353.721 311.121 360.372 311.84C367.921 312.738 375.831 310.581 381.223 305.189C386.616 299.796 388.593 291.168 385.358 284.517Z" fill="#F9EC5D"/>
<path d="M456.369 192.483C449.179 196.258 442.169 203.089 443.247 211.178C444.505 219.806 454.392 224.48 463.02 225.379C473.266 226.457 483.692 224.48 492.86 219.806C496.994 217.649 501.129 214.593 502.746 210.279C511.015 186.192 468.053 186.551 456.369 192.483Z" fill="#F9EC5D"/>
<path d="M466.249 264.203C462.654 245.689 407.828 257.912 429.219 275.888C431.377 277.685 434.073 278.584 436.949 278.944C443.6 280.022 450.431 279.303 456.722 276.786C462.115 274.629 467.508 269.776 466.429 264.203H466.249Z" fill="#F9EC5D"/>
<path d="M688.07 178.999C682.497 179.179 676.925 179.898 672.251 182.774C667.578 185.65 664.162 191.043 665.061 196.435C666.499 203.805 674.768 207.58 682.138 209.198C691.485 211.535 701.192 212.613 710.899 213.872C716.292 214.591 722.763 214.77 726.178 210.456C742.356 190.144 698.675 178.46 688.07 178.819V178.999Z" fill="#F9EC5D"/>
<path d="M781.184 239.76C773.094 230.952 748.648 221.425 742.895 236.704C734.627 258.994 779.206 270.678 784.779 251.804C786.037 247.67 784.239 242.996 781.184 239.76Z" fill="#F9EC5D"/>
<path d="M234.01 393.996C231.673 399.748 230.775 407.298 235.808 411.072C237.965 412.69 240.661 413.05 243.357 413.23C253.424 413.769 263.131 409.994 272.118 405.5C279.668 401.725 287.218 396.872 290.813 389.322C299.082 372.065 280.747 364.695 266.726 367.212C252.166 369.908 239.583 380.873 234.01 393.996Z" fill="#F9EC5D"/>
<path d="M260.075 448.812C247.493 436.409 213.878 442.88 217.114 464.63C218.192 471.821 226.102 476.494 233.472 476.315C240.842 476.315 247.672 472.719 254.144 469.124C258.817 466.608 264.03 463.372 264.39 457.979C264.749 454.384 262.592 451.149 260.075 448.632V448.812Z" fill="#F9EC5D"/>
<path d="M921.753 372.598C931.999 383.203 951.772 383.743 953.57 365.228C954.828 352.106 940.088 338.085 928.224 335.568C923.73 334.669 918.877 335.029 915.282 337.905C912.405 340.242 910.967 344.196 910.788 347.971C910.248 357.139 915.282 365.947 921.753 372.598Z" fill="#F9EC5D"/>
<path d="M936.324 457.085C939.739 457.804 943.514 457.804 946.39 455.647C962.748 443.423 948.188 423.47 932.549 419.696C905.406 413.045 916.191 452.771 936.503 457.085H936.324Z" fill="#F9EC5D"/>
<path d="M196.09 646.366C197.888 651.22 200.764 656.253 205.797 657.871C210.83 659.489 216.582 656.433 219.638 652.119C222.694 647.805 223.593 642.232 224.132 636.839C224.851 629.469 224.851 621.92 222.694 614.909C219.459 604.483 208.493 591.721 198.247 601.787C188.541 611.314 191.956 635.401 196.09 646.546V646.366Z" fill="#F9EC5D"/>
<path d="M223.043 552.713C225.021 557.207 229.694 559.005 237.424 554.151C247.311 548.219 262.77 519.458 241.019 520.177C226.639 520.717 218.909 543.006 223.043 552.533V552.713Z" fill="#F9EC5D"/>
<path d="M934.169 688.069C934.169 688.069 934.169 688.788 934.169 689.327C936.326 715.931 965.985 696.877 974.793 686.091C977.849 682.316 980.546 678.182 981.624 673.508C984.321 660.386 972.457 656.072 961.671 657.51C948.909 659.308 933.989 674.587 934.169 688.248V688.069Z" fill="#F9EC5D"/>
<path d="M978.735 599.991C981.252 600.53 983.588 601.788 985.206 603.945C995.992 617.787 967.59 624.258 957.703 622.64C953.749 622.101 949.255 619.944 948.716 615.989C948.356 613.473 949.974 611.136 951.592 609.338C956.265 603.945 969.567 597.834 978.735 599.991Z" fill="#F9EC5D"/>
<path d="M598.011 963.102C617.424 948.182 592.438 938.475 579.676 937.396C571.766 936.677 562.419 936.498 555.408 940.812C527.546 958.068 566.733 968.854 580.395 968.135C586.686 967.955 593.157 966.697 598.011 962.922V963.102Z" fill="#F9EC5D"/>
<path d="M700.122 935.956C690.055 934.158 666.867 939.371 667.586 953.212C668.305 966.514 691.853 965.256 700.841 962.38C712.165 958.785 716.12 945.123 705.694 938.113C704.076 937.034 702.099 936.315 700.122 935.956Z" fill="#F9EC5D"/>
<path d="M289.025 843.92C298.732 854.166 323.538 862.794 327.852 842.661C330.369 830.797 329.47 818.214 323.898 807.429C317.247 794.487 293.878 775.972 279.857 789.993C267.814 802.036 279.318 833.674 288.845 843.92H289.025Z" fill="#F9EC5D"/>
<path d="M342.758 864.771C341.679 873.04 344.915 885.264 349.229 888.859C352.285 891.375 356.599 892.813 360.194 891.195C364.508 889.398 366.486 884.185 366.845 879.511C367.564 870.344 357.138 848.234 345.814 857.761C344.016 859.199 343.117 861.715 342.758 864.592V864.771Z" fill="#F9EC5D"/>
<path d="M886.521 811.204C882.027 814.799 873.758 821.989 873.039 828.28C870.342 849.492 900.002 837.448 908.99 832.055C928.224 820.551 920.854 795.924 898.744 803.834C894.969 805.092 890.655 807.788 886.521 811.204Z" fill="#F9EC5D"/>
<path d="M846.981 832.42C840.33 830.263 830.623 835.476 825.41 838.711C820.736 841.588 816.063 846.261 816.961 851.654C817.86 858.485 826.668 861.181 833.499 860.102C838.532 859.383 843.386 857.586 847.7 854.71C856.688 848.778 859.024 836.375 846.801 832.6L846.981 832.42Z" fill="#F9EC5D"/>
</g>
<defs>
<clipPath id="clip0_4090_2974">
<rect width="1204.55" height="1162.48" fill="white" transform="translate(0.329102 0.86377)"/>
</clipPath>
</defs>
</svg>
