<svg width="1344" height="1167" viewBox="0 0 1344 1167" fill="none" xmlns="http://www.w3.org/2000/svg">
<g clip-path="url(#clip0_4090_2998)">
<path d="M198.772 174.918C280.237 105.767 379.07 53.9824 480.112 25.722C706.669 -37.7454 937.804 22.0908 1126.63 157.077C1320.98 296.169 1384.6 557.774 1317.82 779.437C1231.3 1066.78 867.232 1188.82 597.416 1163.71C559.683 1160.24 520.529 1146.03 485.006 1134.03C195.772 1035.52 -86.6737 745.493 24.9468 419.315C57.7857 323.166 121.885 240.122 198.772 174.76V174.918Z" fill="#F29556"/>
<path d="M221.349 191.178C298.868 125.185 392.964 75.6107 489.27 48.6134C705.091 -12.0122 925.017 45.14 1104.84 174.127C1289.88 306.904 1350.5 556.826 1286.88 768.7C1204.46 1043.25 857.918 1159.77 600.891 1135.77C565.052 1132.45 527.635 1118.88 493.849 1107.35C218.508 1013.25 -50.3604 736.335 55.8922 424.681C87.1523 332.796 148.251 253.54 221.349 191.178Z" fill="#FFD288"/>
<path d="M707.296 1054.77C662.932 1054.77 617.463 1050.35 571.52 1041.04C546.733 1035.99 522.104 1029.67 498.58 1022.25C355.068 976.623 229.238 886 161.666 779.747C56.9921 614.764 80.6739 376.051 216.924 224.329C236.816 202.226 259.077 181.386 283.233 162.282C328.386 126.444 380.171 96.7627 437.007 73.8702C509.158 44.9783 583.361 29.822 657.722 28.7168C660.406 28.7168 663.248 28.7168 665.932 28.7168C778.184 28.7168 887.436 60.2926 991.005 122.497C1211.56 255.273 1257.03 469.199 1257.35 471.41C1276.61 559.664 1268.24 647.761 1233.35 726.069C1141.31 932.416 939.22 1054.77 707.296 1054.77ZM657.722 36.6107C584.466 37.558 511.052 52.5565 439.849 81.1326C383.644 103.709 332.649 133.075 287.969 168.282C264.287 187.069 242.184 207.752 222.607 229.539C88.7258 378.735 65.2018 613.501 168.139 775.485C234.606 880.316 359.015 969.676 500.79 1014.67C524.156 1022.09 548.47 1028.41 572.941 1033.3C855.702 1089.98 1117.94 965.255 1225.93 722.753C1260.19 646.024 1268.24 559.664 1249.45 472.988C1248.98 470.778 1204.14 260.01 986.742 129.286C881.91 66.292 771.237 35.032 657.722 36.6107Z" fill="#FFE9CC"/>
<path d="M726.875 960.998C622.044 960.998 518.948 932.895 432.589 891.689C419.011 885.216 407.802 879.375 397.539 873.533C116.357 712.654 175.719 458.627 176.351 456.101C195.139 269.172 326.178 126.133 527 74.1912C564.26 64.5606 603.887 59.5085 644.778 59.3506C645.725 59.3506 646.673 59.3506 647.462 59.3506C830.918 59.3506 1019.9 154.867 1118.73 297.748C1150.46 343.691 1169.73 384.266 1177.62 421.841C1211.09 527.778 1201.93 635.925 1151.73 725.758C1134.36 756.86 1112.26 786.226 1086.21 812.907C981.376 920.265 852.705 960.998 726.717 960.998H726.875ZM644.778 67.2445C604.519 67.4024 565.523 72.2967 528.895 81.9273C331.546 133.08 202.559 273.435 184.087 457.522C183.298 460.521 125.672 708.865 401.486 866.744C411.591 872.428 422.484 878.111 435.904 884.584C623.622 974.26 891.701 1001.1 1080.68 807.54C1106.26 781.332 1127.89 752.598 1144.94 722.127C1194.04 634.188 1203.04 528.251 1170.04 424.051C1162.31 387.108 1143.36 347.48 1112.26 302.326C1014.85 161.498 828.391 67.4024 647.462 67.4024C646.515 67.4024 645.725 67.4024 644.778 67.4024V67.2445Z" fill="#FFE9CC"/>
<path d="M710.774 893.266C670.357 893.266 635.624 884.741 595.996 875.11C523.214 857.428 346.547 798.855 279.764 639.239C148.251 325.375 386.49 193.704 395.332 189.126C658.832 11.5116 940.804 180.916 943.646 182.652C1200.04 349.373 1114.79 653.921 1111 666.71C1100.89 700.812 1080.37 730.809 1064.9 750.07C1012.64 814.958 927.384 860.585 818.132 881.741C788.608 887.425 757.506 891.214 726.088 892.95C720.878 893.266 715.826 893.424 710.774 893.424V893.266ZM661.358 115.87C579.892 115.87 488.638 135.605 399.594 195.756C396.752 197.177 156.618 325.059 287.027 636.239C352.546 792.539 526.213 850.007 597.89 867.532C641.781 878.268 679.514 887.425 725.615 885.056C756.717 883.478 787.345 879.689 816.553 874.005C923.911 853.165 1007.59 808.643 1058.74 745.176C1073.74 726.546 1093.63 697.338 1103.42 664.657C1107.05 652.027 1190.88 352.846 939.383 189.441C937.646 188.336 817.184 116.028 661.358 116.028V115.87Z" fill="#FFE9CC"/>
<path d="M722.454 836.902C623.779 836.902 518.632 808.484 438.113 757.015C354.438 703.494 307.232 628.817 289.865 521.618C281.971 472.833 284.655 423.101 297.917 377.948C308.811 340.688 332.335 275.168 367.384 255.591C718.665 60.7686 958.957 277.537 961.325 279.747C1063.47 369.58 1094.89 560.929 1027.16 680.76C986.585 752.595 918.54 802.169 830.443 824.114C796.499 832.639 759.871 836.586 722.454 836.586V836.902ZM371.331 262.696C337.545 281.484 314.021 351.266 305.495 380.316C292.707 424.364 289.865 472.833 297.601 520.512C314.652 625.186 360.595 698.284 442.218 750.384C551.629 820.325 706.824 847.006 828.391 816.694C914.435 795.222 980.744 747.069 1020.21 677.128C1086.37 560.14 1055.74 373.527 955.957 285.746C953.589 283.536 717.086 70.5571 371.173 262.538L371.331 262.696Z" fill="#FFE9CC"/>
<path d="M718.973 783.693C632.14 783.693 546.096 762.063 480.26 730.645C434.002 708.7 396.9 679.65 369.903 644.443C369.429 643.812 324.591 568.346 328.538 557.452L329.328 555.4L332.17 554.294C334.222 553.821 958.318 428.623 964.633 427.36L966.528 427.044L967.949 428.465C1014.21 470.461 1030.31 535.191 1010.73 601.5C996.051 651.548 957.686 716.91 908.428 741.855C850.329 771.378 784.335 783.535 718.973 783.535V783.693ZM336.117 561.557C339.116 574.977 372.113 634.497 376.06 639.707C402.426 673.809 438.58 702.069 483.576 723.541C597.406 777.851 771.863 802.322 904.797 734.908C952.003 710.91 988.789 647.917 1003 599.29C1021.47 536.612 1006.79 475.513 964.002 435.569C893.43 449.779 377.165 553.347 336.117 561.557Z" fill="#FFE9CC"/>
<path d="M356.49 242.015C356.49 242.015 332.809 467.94 332.809 551.773C332.809 551.773 625.358 781.961 986.744 568.982C986.744 568.982 1003.95 319.533 995.269 242.015H356.49Z" fill="#F29556"/>
<path d="M393.596 156.601C300.921 244.382 393.912 365.949 485.956 403.367C574.052 439.205 673.358 455.309 766.98 433.995C840.394 417.26 914.597 375.896 963.066 317.322C985.011 290.641 1000.48 251.645 994.326 217.069C978.223 126.92 823.817 81.4511 749.772 63.9265C620.942 33.6137 490.692 65.3474 394.07 156.128C394.07 156.128 393.754 156.286 393.754 156.444L393.596 156.601Z" fill="#FFE9CC"/>
<path d="M664.195 127.551C643.828 127.551 622.83 122.341 609.41 114.131C597.412 106.553 589.991 93.9227 590.465 81.9239C590.781 76.2402 593.78 70.3987 597.885 67.2411C600.885 65.0308 604.516 64.2414 607.99 65.1887C610.042 65.8202 611.305 67.8726 610.831 70.083C610.2 72.1354 608.147 73.3984 605.937 72.9248C605.464 72.9248 604.2 72.4511 602.622 73.7142C600.253 75.4508 598.517 79.0821 598.359 82.3975C597.885 91.7124 603.885 101.501 613.515 107.5C634.671 120.604 678.404 125.341 701.296 111.289C709.822 106.079 716.453 94.87 712.821 85.2393C708.401 73.3984 692.139 70.3987 687.245 69.7672C685.035 69.4514 683.614 67.5569 683.772 65.3466C684.087 63.1363 685.982 61.5575 688.192 61.8732C695.928 62.8205 714.4 66.9254 720.242 82.3975C725.452 96.4488 716.61 111.132 705.401 117.92C694.349 124.709 679.509 127.551 664.195 127.551Z" fill="#F29556"/>
<path d="M681.09 188.49C668.618 188.49 655.987 187.701 643.673 186.911C630.569 185.964 617.623 184.859 605.15 181.859C583.047 176.649 562.681 165.598 546.261 149.968C535.21 139.548 527.947 128.654 524.316 117.444C519.738 103.393 521.474 88.5526 528.737 77.8168C530 76.0802 532.368 75.6065 534.262 76.7117C535.999 77.9747 536.473 80.3429 535.368 82.2375C529.368 91.0787 528.105 103.235 531.894 115.076C535.052 125.023 541.683 134.811 551.787 144.284C567.259 158.967 586.363 169.229 607.045 174.281C619.044 177.123 631.516 178.228 644.304 179.175C677.932 181.701 713.455 182.964 744.715 170.492C772.502 159.44 801.867 131.654 800.604 96.7623C800.604 94.552 802.183 92.8154 804.394 92.6575C806.604 92.6575 808.341 94.3942 808.498 96.4466C809.919 135.285 778.028 165.755 747.715 177.754C726.559 186.122 703.825 188.648 681.09 188.648V188.49Z" fill="#F29556"/>
<path d="M651.09 270.589C585.254 270.589 529.839 255.433 482.475 224.489C460.846 210.437 430.059 176.809 429.112 146.496C429.112 144.286 430.691 142.549 432.901 142.392C435.111 142.392 436.848 144.128 437.006 146.181C437.638 170.81 463.372 202.544 486.738 217.858C545.153 255.907 616.672 269.484 705.558 259.38C782.761 250.539 857.754 213.437 911.591 157.39C913.169 155.811 915.695 155.811 917.116 157.39C918.695 158.969 918.695 161.337 917.116 162.916C862.017 220.226 785.129 258.275 706.19 267.274C686.929 269.484 668.457 270.589 650.774 270.589H651.09Z" fill="#F29556"/>
<path d="M667.982 356.953C611.146 356.953 551.941 345.112 493.052 321.588C441.426 301.064 401.167 259.858 382.695 208.863C381.906 206.81 383.011 204.6 385.063 203.811C387.116 203.021 389.326 204.126 390.115 206.179C407.956 255.121 446.478 294.591 496.052 314.326C580.991 348.27 666.877 357.585 744.396 341.481C830.598 323.483 906.853 274.541 953.27 207.284C954.533 205.547 957.059 205.074 958.796 206.337C960.532 207.6 961.006 209.968 959.743 211.863C912.221 280.856 834.229 330.903 745.975 349.375C720.714 354.585 694.664 357.269 668.14 357.269L667.982 356.953Z" fill="#F29556"/>
<path d="M676.676 498.57C648.258 498.57 620.155 496.202 592.527 491.466C506.798 476.625 427.069 439.05 348.919 376.53C347.182 375.109 347.025 372.741 348.288 371.004C349.551 369.267 352.235 369.11 353.813 370.373C431.016 431.945 509.482 469.047 593.79 483.73C687.254 499.991 787.034 488.15 882.393 449.47L893.286 445.049C931.177 429.893 954.07 420.736 980.593 386.634C981.856 384.897 984.382 384.582 986.119 386.003C987.856 387.266 988.172 389.792 986.751 391.528C958.964 427.367 934.019 437.313 896.128 452.47L885.234 456.89C816.557 484.677 745.669 498.886 676.36 498.886L676.676 498.57Z" fill="#FFD288"/>
<path d="M698.621 564.557C696.253 564.557 694.043 564.557 691.674 564.557C659.309 563.925 622.681 563.294 586.843 558.241C544.847 552.242 505.377 535.349 467.328 518.772C453.593 512.772 439.384 506.615 425.332 501.089C396.441 489.722 374.653 475.355 352.234 452.778C350.656 451.199 350.656 448.673 352.234 447.252C353.813 445.674 356.339 445.674 357.76 447.252C379.39 468.882 400.388 482.775 428.174 493.669C442.383 499.195 456.75 505.352 470.486 511.351C508.061 527.613 547.057 544.348 588.106 550.19C623.471 555.242 659.783 555.873 691.99 556.347C745.669 557.136 800.295 546.243 836.607 536.77C884.603 524.297 928.651 498.09 969.068 471.724C970.962 470.461 973.331 471.092 974.594 472.829C975.857 474.723 975.225 477.092 973.489 478.355C932.44 505.194 887.76 531.718 838.66 544.506C803.295 553.663 751.037 564.399 698.779 564.399L698.621 564.557Z" fill="#FFD288"/>
<path d="M1004.27 544.038C1005.06 563.773 1000.79 585.086 988.796 601.19C964.956 633.555 931.012 656.763 894.068 673.183C789.71 719.915 660.881 714.073 660.881 714.073C589.835 707.758 517.684 695.128 451.375 667.973C446.955 666.236 442.534 664.342 438.113 662.447C407.801 649.185 378.277 632.292 353.964 609.715C347.806 604.19 341.807 598.19 336.913 591.401C324.125 574.193 318.125 542.459 320.967 517.514C321.756 510.252 323.177 503.779 325.388 498.253C326.966 494.464 332.65 479.623 337.386 478.676C337.86 478.518 338.492 478.676 339.123 478.834C352.701 483.886 361.384 502.989 369.752 513.725C379.698 526.671 390.75 535.196 404.959 543.564C436.219 562.036 470.952 574.351 505.843 583.981C566.469 600.716 630.252 610.978 693.088 614.136C715.191 614.136 737.136 612.557 759.082 609.873C815.287 602.611 870.86 585.718 919.96 556.826C935.59 547.669 950.589 537.091 964.482 525.408C973.481 517.672 983.428 495.095 994.321 506.305C1001.43 513.567 1003.48 530.302 1004.11 541.196C1004.11 542.143 1004.11 543.09 1004.11 544.038H1004.27Z" fill="#D22553"/>
<path opacity="0.69" d="M506.158 174.597C512.947 174.123 519.578 172.86 524.788 171.755C545.312 167.334 566.626 148.073 576.73 130.075C582.888 119.023 585.571 103.235 578.783 91.8679C570.731 78.606 553.838 80.3427 540.102 82.0794C509.789 86.0263 444.743 124.391 469.688 162.913C476.793 173.807 491.949 175.702 506 174.754L506.158 174.597Z" fill="white"/>
<path d="M456.743 632.604C455.796 640.813 454.849 648.865 453.901 657.075C453.428 660.706 452.954 664.653 451.375 667.969C446.955 666.232 442.534 664.337 438.113 662.443C407.801 649.181 378.277 632.288 353.964 609.711C347.806 604.185 341.807 598.186 336.913 591.397C324.125 574.188 318.125 542.455 320.967 517.51C321.756 523.825 322.862 530.14 326.177 536.613C337.386 559.348 357.595 576.557 379.54 589.029C401.643 601.659 425.641 610.027 449.165 619.342C451.691 620.447 454.375 621.552 455.796 623.762C457.375 626.288 457.217 629.604 456.743 632.604Z" fill="#B91C4A"/>
<path d="M1004.26 544.031C1005.05 563.766 1000.79 585.08 988.791 601.184C964.951 633.549 931.007 656.757 894.063 673.176C887.274 660.388 885.064 640.18 894.379 631.654C900.22 626.444 916.008 625.181 923.586 621.076C933.375 615.708 942.374 608.762 950.742 601.341C970.95 583.659 988.948 563.293 1004.1 541.189C1004.1 542.137 1004.1 543.084 1004.1 544.031H1004.26Z" fill="#B91C4A"/>
<path opacity="0.67" d="M786.231 601.978C791.441 599.926 815.123 589.822 818.439 597.873C822.544 607.82 778.338 633.396 771.391 639.554C796.178 629.291 822.702 620.608 849.225 624.555C864.382 626.765 842.91 638.291 838.489 639.711C818.281 646.027 798.23 652.5 778.022 658.815C795.704 662.288 812.597 669.393 827.28 679.813C831.385 682.655 835.332 685.812 837.858 690.075C838.332 690.864 838.647 691.654 838.647 692.443C838.647 694.338 836.279 695.285 834.385 695.601C826.806 696.864 819.228 695.916 811.65 694.653C787.337 690.549 763.497 683.602 740.92 673.971C731.447 670.024 722.922 664.656 722.606 653.289C722.606 646.027 724.185 640.185 729.553 635.291C745.341 620.766 766.339 609.872 786.074 602.136L786.231 601.978Z" fill="#D22553"/>
</g>
<defs>
<clipPath id="clip0_4090_2998">
<rect width="1343.39" height="1166.57" fill="white" transform="translate(0 0.299805)"/>
</clipPath>
</defs>
</svg>
