<svg width="946" height="833" viewBox="0 0 946 833" fill="none" xmlns="http://www.w3.org/2000/svg">
<g clip-path="url(#clip0_4090_3323)">
<path d="M460.25 329.319C431.952 321.278 401.953 339.834 392.985 370.916C388.655 385.915 386.954 412.049 389.428 436.171C392.366 476.531 407.52 493.85 414.633 496.633C422.984 499.881 458.859 470.191 477.26 438.027C485.765 424.265 492.414 410.348 495.352 400.296C504.321 369.215 488.548 337.515 460.25 329.474V329.319ZM442.004 394.575C429.324 390.864 421.901 377.565 425.458 364.885C429.169 352.051 442.467 344.783 455.147 348.339C467.982 352.051 475.25 365.349 471.693 378.029C468.137 390.864 454.838 398.132 442.004 394.575Z" fill="white"/>
<path d="M765.502 412.048C765.502 616.783 599.58 782.86 394.689 782.86C189.799 782.86 24.0316 616.783 24.0316 412.048C24.0316 207.312 189.954 41.2354 394.689 41.2354C599.425 41.2354 765.502 207.312 765.502 412.048Z" fill="white"/>
<path d="M436.281 19.5784C370.407 12.6199 306.698 22.6711 249.174 45.5569V78.3394C305.925 52.8247 369.943 41.3818 435.972 48.1857C575.761 62.8759 687.098 155.656 735.344 277.972C721.736 287.868 696.221 280.446 688.954 277.199C679.521 273.024 675.5 265.137 669.624 266.065C663.748 267.148 658.336 279.673 656.79 294.982C655.089 310.445 604.214 328.073 585.813 322.816C567.566 317.558 557.515 295.291 560.453 283.229C563.391 271.168 575.916 261.117 583.029 270.859C590.142 280.601 606.843 270.859 612.564 263.282C618.286 255.705 598.493 240.55 585.503 239.932C572.514 239.468 557.978 243.643 557.205 251.684C556.432 259.725 548.546 264.828 536.948 265.91C525.351 267.148 523.34 255.55 533.082 248.282C542.824 241.169 520.712 233.901 506.795 232.355C493.032 230.963 491.64 244.726 492.104 255.395C492.568 266.065 485.61 278.436 469.218 269.467C452.982 260.344 456.384 243.489 470.919 230.19C485.455 217.046 492.104 184.882 476.95 172.666C461.796 160.45 435.354 178.078 432.879 186.892C430.251 195.707 414.014 194.779 406.901 184.109C399.788 173.594 394.685 183.645 388.036 191.995C381.386 200.346 398.396 202.201 407.674 231.736C416.952 261.426 403.654 286.168 400.097 296.528C396.54 306.734 376.747 307.971 360.511 298.074C344.429 288.178 343.965 261.117 344.738 252.921C345.666 244.88 332.367 238.54 331.44 247.509C330.512 256.478 325.1 260.808 318.141 264.983C311.182 269.158 302.368 259.261 315.358 245.035C328.347 230.809 294.791 223.231 291.389 255.705C287.987 288.178 248.092 292.971 250.102 305.497C251.648 315.084 254.122 318.641 249.329 322.507V359C259.38 363.175 265.565 365.186 264.174 376.938C262.318 394.566 264.328 412.658 300.513 408.638C336.697 404.463 357.727 412.658 348.759 459.358C339.944 506.057 287.833 510.542 264.328 508.067C258.607 507.449 253.813 509.304 249.174 512.552V776.821C282.111 789.965 317.059 799.089 354.016 803.109C570.504 825.84 764.415 668.732 787.146 452.245C809.723 236.221 652.614 42.3096 436.281 19.5784ZM563.545 734.452C399.169 816.253 256.751 748.678 256.751 748.678C256.751 748.678 262.782 729.658 270.05 720.225C277.163 710.638 270.668 703.834 260.926 707.855C251.184 712.03 252.422 699.814 260.926 697.494C269.431 695.329 280.101 692.237 261.236 684.041C242.525 675.845 249.947 654.042 261.854 638.733C273.761 623.424 278.091 651.722 307.626 654.815C337.161 657.908 317.832 626.053 312.574 607.806C307.317 589.714 338.862 574.405 366.696 574.251C394.53 574.096 394.994 589.56 395.149 607.033C395.303 624.661 360.82 648.784 404.736 653.423C448.652 658.062 422.983 636.723 439.065 630.228C455.147 623.579 450.508 599.456 485.146 574.251C519.784 549.045 550.556 560.488 561.535 563.736C572.514 566.828 585.503 561.107 573.442 538.066C561.38 515.181 579.627 508.841 606.843 514.717C634.058 520.747 635.141 549.664 635.141 549.664C636.842 562.189 652.151 564.818 658.336 544.87C664.521 524.923 673.49 528.943 684.778 529.098C696.067 529.252 705.809 535.438 711.994 524.768C718.334 514.098 735.189 509.614 742.148 522.758C706.427 627.29 648.285 689.299 563.236 733.988L563.545 734.452Z" fill="#8C9941"/>
<path d="M210.522 566.373C192.276 588.331 141.71 541.322 146.349 515.962C150.988 490.602 147.896 462.459 121.299 451.789C94.5469 441.119 93.7737 411.275 124.391 402.461C155.163 393.646 149.906 405.089 158.72 378.183C167.534 351.277 185.317 371.07 185.317 371.07C226.759 373.389 210.832 335.968 231.243 350.04C238.047 354.679 244.078 357.307 249.181 359.318V322.824C247.789 323.906 245.779 325.143 242.841 326.535C230.006 332.566 192.894 318.804 185.008 308.134C177.122 297.464 159.029 297.309 152.071 300.557C145.112 303.959 135.061 283.238 138.618 272.877C142.174 262.517 135.37 257.723 115.886 262.362C98.1035 266.537 84.3411 232.982 82.3308 227.569C120.835 161.85 179.75 109.584 249.181 78.3475V45.7197C117.587 98.2953 18.9309 219.838 3.15818 370.451C-15.7072 549.981 89.2893 713.584 249.181 777.293V513.024C234.645 523.539 224.285 549.672 210.522 566.373Z" fill="#A4B250"/>
<path d="M67.1748 13.0914C40.887 29.9465 34.7016 67.0587 53.2577 95.8206C62.2265 109.738 82.0197 129.531 102.895 144.376C137.069 170.354 161.656 170.354 168.769 166.488C177.12 162.004 178.511 112.676 165.677 75.409C160.574 58.8631 154.234 44.0182 148.203 34.5856C129.647 5.82364 93.308 -3.76368 67.1748 13.0914ZM106.452 73.2441C94.545 80.8211 78.7723 77.4192 71.1953 65.667C63.6182 53.7602 67.0202 37.9875 78.7724 30.4104C90.5245 22.8334 106.452 26.0807 114.029 37.9875C121.761 49.7397 118.204 65.667 106.452 73.2441Z" fill="#EF7F5F"/>
<path d="M927.4 149.782C916.575 149.163 907.452 158.287 906.679 170.193C906.37 175.915 907.916 185.502 910.854 193.852C915.184 208.079 922.142 213.027 924.926 213.336C928.173 213.8 938.533 200.192 942.554 187.203C944.41 181.636 945.647 176.069 945.956 172.204C946.574 160.297 938.379 150.246 927.554 149.782H927.4ZM926.317 174.678C921.369 174.368 917.658 170.193 917.967 165.4C918.276 160.451 922.452 156.74 927.245 157.049C932.193 157.359 935.905 161.379 935.595 166.327C935.286 171.121 931.266 174.987 926.317 174.678Z" fill="#EF7F5F"/>
<path d="M927.4 303.025C916.575 302.406 907.452 311.53 906.679 323.436C906.369 329.158 907.916 338.745 910.854 347.095C915.184 361.322 922.142 366.27 924.926 366.579C928.173 367.043 938.533 353.435 942.554 340.446C944.409 334.725 945.647 329.313 945.956 325.447C946.574 313.54 938.379 303.489 927.554 303.025H927.4ZM926.317 327.921C921.369 327.612 917.658 323.436 917.967 318.643C918.276 313.695 922.451 309.983 927.245 310.293C932.193 310.602 935.905 314.622 935.595 319.571C935.286 324.519 931.266 328.23 926.317 327.921Z" fill="#EF7F5F"/>
<path d="M927.4 456.42C916.575 455.802 907.452 464.925 906.679 476.832C906.369 482.553 907.916 492.141 910.854 500.491C915.184 514.717 922.142 519.666 924.926 519.975C928.173 520.439 938.533 506.831 942.554 493.842C944.409 488.12 945.647 482.708 945.956 478.842C946.574 466.935 938.379 456.884 927.554 456.42H927.4ZM926.317 481.316C921.369 481.007 917.658 476.832 917.967 472.038C918.276 467.09 922.451 463.379 927.245 463.688C932.193 463.997 935.905 468.018 935.595 472.966C935.286 477.76 931.266 481.626 926.317 481.316Z" fill="#EF7F5F"/>
<path d="M650.913 3.18647C616.43 -6.71011 579.627 16.0211 568.802 53.9064C563.545 72.1533 561.38 104.317 564.473 133.698C568.029 182.871 586.585 204.211 595.245 207.458C605.451 211.324 649.212 175.14 671.789 135.862C682.149 119.007 690.345 101.998 693.747 89.7815C704.571 51.8962 685.396 13.083 650.913 3.18647ZM628.646 82.823C613.028 78.3386 604.059 62.102 608.543 46.484C613.028 30.866 629.264 21.8972 644.882 26.3816C660.5 30.866 669.469 47.1025 664.985 62.7206C660.5 78.184 644.264 87.3074 628.646 82.823Z" fill="#CE6249"/>
<path d="M602.517 824.758C623.547 809.604 627.104 778.832 610.713 755.637C602.672 744.503 585.662 728.885 567.57 717.597C538.189 697.494 517.778 698.422 512.211 701.824C505.407 705.845 506.18 746.823 518.396 777.131C523.19 790.584 529.221 802.646 534.478 810.223C551.024 833.263 581.487 839.912 602.517 824.758ZM567.57 776.512C577.157 769.708 590.301 771.873 597.105 781.461C603.909 790.893 601.744 804.192 592.311 810.996C582.724 817.8 569.58 815.635 562.776 806.202C555.972 796.615 558.137 783.471 567.724 776.667L567.57 776.512Z" fill="#B74E3D"/>
</g>
<defs>
<clipPath id="clip0_4090_3323">
<rect width="944.814" height="831.931" fill="white" transform="translate(0.988037 0.870117)"/>
</clipPath>
</defs>
</svg>
