<svg width="477" height="1321" viewBox="0 0 477 1321" fill="none" xmlns="http://www.w3.org/2000/svg">
<g clip-path="url(#clip0_4090_2666)">
<path d="M418.47 1293.57C365.397 1311.17 309.483 1320.43 253.569 1320.89H229.278C173.272 1320.43 117.449 1311.17 64.3764 1293.57C36.2359 1284.22 13.6868 1256.26 44.9439 1233.62C47.8771 1231.61 50.8103 1229.86 54.0185 1228.4C62.7265 1224.36 72.3511 1222.26 81.7924 1220.24C108.466 1214.46 135.14 1208.6 161.814 1202.82C169.514 1201.17 177.488 1199.16 184.271 1194.94C191.696 1190.27 194.446 1183.94 197.196 1175.97C198.479 1172.21 199.762 1168.27 200.862 1164.51C203.154 1156.81 205.079 1149.2 206.729 1141.32C209.937 1126.93 211.954 1112.44 213.054 1097.78C215.254 1066.98 213.054 1035.72 206.271 1005.56C204.254 996.582 201.871 987.782 198.938 979.074C198.754 978.433 196.188 969.725 195.546 969.725H285.742C272.543 1005.84 264.843 1044.15 265.393 1082.56C265.76 1108.23 269.61 1134.08 277.859 1158.46C279.876 1164.42 282.259 1170.37 285.009 1176.15C287.392 1180.92 289.409 1186.51 293.167 1190.45C300.317 1197.97 311.225 1200.53 321.032 1202.73C347.706 1208.51 374.38 1214.37 401.146 1220.15C408.571 1221.71 416.179 1223.45 423.328 1226.01C423.878 1226.2 424.337 1226.38 424.703 1226.56C429.47 1228.4 433.87 1230.6 437.811 1233.53C469.16 1256.17 446.611 1284.13 418.47 1293.48V1293.57Z" fill="#D9D0EF"/>
<path d="M239.634 1214.19C234.226 1214.37 228.635 1214.46 223.502 1212.72C219.835 1211.44 216.535 1209.33 212.869 1208.05C208.194 1206.4 202.969 1206.12 198.111 1207.31C193.069 1208.6 187.936 1212.45 188.303 1217.58C188.578 1221.61 192.153 1224.64 195.636 1226.65C209.569 1235.09 226.435 1237.2 242.751 1237.38C251.275 1237.47 259.892 1237.1 268.141 1235.09C276.391 1232.98 284.366 1229.04 290.14 1222.9C293.532 1219.32 296.19 1214.65 295.824 1209.79C294.632 1194.57 279.783 1206.4 272.999 1208.96C262.458 1213 250.817 1213.82 239.634 1214.19Z" fill="#A68CDD"/>
<path d="M418.47 1293.57C365.397 1311.17 309.483 1320.43 253.569 1320.89H229.278C173.272 1320.43 117.449 1311.17 64.3764 1293.57C36.2359 1284.22 13.6868 1256.26 44.9439 1233.62C47.8771 1231.61 50.8103 1229.86 54.0185 1228.4C52.5519 1229.96 46.5021 1236.46 46.2272 1237.01C39.6274 1246.91 39.5358 1258.19 47.9687 1266.16C54.6601 1272.4 63.4598 1276.52 71.8011 1280C90.042 1287.52 109.291 1292.1 128.54 1295.86C147.79 1299.71 167.314 1302.55 186.746 1304.84C197.563 1306.04 208.287 1307.69 219.103 1308.6C236.153 1310.16 252.835 1309.7 269.793 1308.6C296.192 1306.95 322.591 1304.11 348.623 1299.25C376.397 1294.21 404.996 1287.25 429.836 1273.5C438.544 1268.64 445.969 1261.76 444.869 1250.95C444.136 1244.9 440.744 1239.67 436.344 1235.64C434.328 1233.81 431.945 1231.97 429.745 1230.23C428.736 1229.41 426.628 1227.66 424.978 1226.75C429.561 1228.49 433.961 1230.69 437.903 1233.62C469.251 1256.26 446.702 1284.22 418.562 1293.57H418.47Z" fill="#A68CDD"/>
<path d="M302.882 1293.29C334.506 1292.28 367.046 1291.09 395.92 1278.17C403.895 1274.59 411.869 1269.83 416.453 1262.4C434.877 1232.7 375.938 1224.82 359.897 1223.26C357.605 1223.08 355.038 1222.99 353.205 1224.45C350.18 1227.11 352.105 1232.34 355.313 1234.72C358.522 1237.1 362.738 1238.02 365.763 1240.68C370.438 1244.8 370.896 1252.87 366.771 1257.45C363.655 1260.94 358.797 1262.13 354.214 1263.14C320.848 1270.38 286.475 1272.58 252.743 1278.17C247.885 1278.99 240.552 1278.99 236.885 1283.21C230.285 1290.91 240.277 1293.38 246.418 1293.66C265.209 1294.67 284.091 1293.93 302.882 1293.38V1293.29Z" fill="#A68CDD"/>
<path d="M174.646 944.976C174.646 944.976 167.496 965.325 197.745 976.874C197.745 976.874 238.993 988.424 280.791 980.724C280.791 980.724 312.69 970.824 308.84 945.526L174.554 944.976H174.646Z" fill="#A68CDD"/>
<path d="M33.7657 230.188C41.0987 230.188 56.1314 297.377 57.5064 303.06C63.9228 330.193 68.3226 357.783 70.4308 385.557C74.5557 439.73 72.4474 495.369 54.7565 547.25C54.7565 547.25 -13.4407 746.434 44.8569 846.621C85.6469 916.652 158.519 954.692 239.274 953.684C290.33 953.042 344.961 938.743 389.143 912.71C447.44 878.429 472.373 822.972 476.039 757.067C478.239 717.927 473.472 678.512 465.223 640.197C461.648 623.514 457.248 607.015 452.573 590.607C443.499 558.525 433.416 526.718 426.358 494.086C416.275 447.613 419.391 406.09 426.174 359.433C432.499 315.893 442.307 272.353 458.623 231.38C458.623 231.38 34.1323 230.28 33.8573 230.28L33.7657 230.188Z" fill="#D9D0EF"/>
<path d="M459.265 235.23C459.632 256.588 430.483 266.029 414.625 269.42C385.018 275.745 354.403 275.378 324.337 276.57C279.422 278.312 234.324 278.22 189.501 275.47C157.602 273.545 125.795 270.887 94.2633 265.387C74.3724 261.996 38.6239 258.879 33.6741 233.58C32.4825 227.347 34.6824 222.397 38.9906 218.547C40.6405 217.081 42.5654 215.706 44.7653 214.514C59.3397 206.448 83.9054 204.431 93.4383 203.24C129.828 198.382 168.235 197.007 204.717 196.365C239.916 195.815 275.022 196.182 310.221 198.473C327.362 199.573 344.686 201.132 361.827 203.24C379.61 205.44 397.301 207.64 414.992 210.664C422.416 211.856 438.916 215.523 449.549 222.214C455.14 225.605 459.082 230.005 459.173 235.322L459.265 235.23Z" fill="#D9D0EF"/>
<path d="M268.604 343.942C246.696 211.122 366.133 159.058 366.133 159.058C366.133 159.516 366.408 160.066 366.5 160.433C403.715 312.501 268.604 343.942 268.604 343.942Z" fill="#39BC7C"/>
<path d="M268.606 343.942C327.728 274.37 358.894 184.54 366.502 160.433C403.717 312.501 268.606 343.942 268.606 343.942Z" fill="#34A57F"/>
<path d="M457.519 763.943C447.528 868.53 362.832 898.229 362.832 898.229C245.136 974.126 114.15 890.53 114.15 890.53C40.4533 845.34 40.4533 712.245 40.4533 712.245C39.9949 682.088 47.2363 639.832 55.3026 603.808C64.1023 563.385 73.5436 530.661 73.5436 530.661C86.0097 484.921 85.6431 435.148 84.7264 388.125C84.3598 371.626 73.5436 312.778 88.9429 303.704C97.1926 298.846 107.825 301.321 116.717 305.079C125.7 308.745 134.683 313.695 144.307 313.053C156.957 312.228 167.04 302.42 178.864 297.837C194.63 291.604 213.329 295.454 227.262 305.079C233.129 309.112 238.353 313.97 244.678 317.27C253.203 321.67 265.394 319.653 277.677 315.895C289.868 312.32 302.059 306.912 310.675 304.804C324.517 301.229 339.824 303.429 351.924 310.945C355.59 313.145 359.348 315.987 363.657 315.895C369.156 315.803 375.756 311.77 380.156 308.745C384.831 305.629 388.314 304.07 394.089 303.062C404.813 301.229 414.438 304.804 416.638 316.445C419.204 329.461 414.529 343.577 411.596 356.135C404.355 387.025 404.08 419.474 406.646 451.006C410.038 493.079 418.288 535.153 430.204 575.759C431.762 580.984 433.412 586.3 435.062 591.525C435.612 593.175 436.162 594.917 436.712 596.567C466.502 683.463 457.703 763.851 457.703 763.851L457.519 763.943Z" fill="#F8F993"/>
<path opacity="0.78" d="M457.519 763.942C447.528 868.529 362.832 898.228 362.832 898.228C245.137 974.125 114.15 890.528 114.15 890.528C40.4533 845.338 40.4533 712.244 40.4533 712.244C39.9949 682.087 47.2363 639.83 55.3027 603.807C56.8609 602.982 58.5109 602.524 60.0691 602.524C72.5353 602.249 75.3768 625.073 76.5684 634.147C81.1516 671.179 83.0765 708.761 91.7845 745.059C97.3759 767.975 105.992 791.166 123.408 807.298C138.899 821.506 159.707 828.656 180.331 832.964C229.645 843.414 283.91 839.289 326.35 811.973C340.741 802.715 353.482 791.074 364.757 778.241C396.197 742.584 416.271 697.395 422.963 650.463C424.704 638.272 425.621 625.989 425.529 613.706C425.529 605.182 421.221 591.066 423.696 583.183C424.979 579.058 427.271 576.858 430.112 575.85C431.67 581.074 433.32 586.391 434.97 591.616C435.52 593.266 436.07 595.007 436.62 596.657C466.411 683.553 457.611 763.942 457.611 763.942H457.519Z" fill="#E5E16A"/>
<path d="M223.596 709.951L223.138 711.051L192.247 792.448C189.406 799.964 175.565 809.039 169.24 813.805C163.832 818.022 158.149 821.871 151.916 824.713C148.341 826.363 144.491 827.738 140.549 828.105C129.733 829.204 121.025 831.954 110.759 836.354C85.3683 847.354 77.7603 844.604 77.7603 844.604C82.1601 836.446 86.5599 789.056 86.5599 789.056C95.9095 716.459 223.596 709.859 223.596 709.859V709.951Z" fill="#39BC7C"/>
<path d="M223.138 711.143L192.247 792.54C189.406 800.056 175.565 809.131 169.24 813.898C163.832 818.114 158.149 821.964 151.916 824.805C148.341 826.455 144.491 827.83 140.549 828.197C129.733 829.297 121.025 832.047 110.759 836.447C85.3683 847.446 77.7603 844.696 77.7603 844.696C77.7603 844.696 161.357 742.859 223.138 711.052V711.143Z" fill="#34A57F"/>
<path d="M337.263 706.103C332.313 706.103 329.288 705.553 329.288 705.553C277.591 634.056 410.227 560.268 410.227 560.268C410.227 560.818 410.502 561.368 410.593 561.734C444.875 698.129 363.754 706.745 337.355 706.012L337.263 706.103Z" fill="#39BC7C"/>
<path d="M337.264 706.102C366.046 662.012 400.878 583.732 410.502 561.824C444.784 698.219 363.663 706.835 337.264 706.102Z" fill="#34A57F"/>
<path d="M212.967 427.905C212.967 427.905 212.05 510.401 210.584 508.201C210.034 507.376 200.042 506.735 187.943 506.185C169.335 505.543 146.053 505.268 146.053 505.268C97.6549 440.737 128.454 359.249 128.454 359.249C181.251 366.582 212.967 427.813 212.967 427.813V427.905Z" fill="#39BC7C"/>
<path d="M212.966 427.905C212.966 427.905 212.05 510.401 210.583 508.201C210.033 507.376 200.042 506.735 187.942 506.185C162.918 417.913 128.453 359.341 128.453 359.341C181.251 366.674 212.966 427.905 212.966 427.905Z" fill="#34A57F"/>
<path d="M118.55 198.198L249.445 459.071L252.745 452.471L114.059 170.699L118.55 198.198Z" fill="#72A843"/>
<path d="M180.241 491.337C180.791 466.863 193.166 443.581 212.965 427.815C232.306 412.507 256.871 405.265 281.07 402.516C303.711 399.949 327.452 403.891 348.076 413.515C359.717 418.923 370.625 426.165 379.333 435.606C383.733 440.464 387.583 445.78 390.608 451.555C407.382 482.996 408.94 526.352 398.124 559.901C394.274 571.817 387.308 582.541 378.875 591.799C371.267 600.232 364.575 609.49 355.317 616.273C336.893 629.748 315.627 638.823 292.62 637.356C276.487 636.256 261.271 631.031 247.888 621.865C230.931 610.315 216.906 594.824 204.899 578.325C196.007 566.042 187.941 552.751 185.191 537.902C182.533 523.144 179.875 506.278 180.15 491.337H180.241Z" fill="#26C446"/>
<path d="M258.158 420.664C284.282 413.056 307.839 414.064 333.78 420.664C368.062 429.372 389.511 461.545 395.377 494.911C398.585 513.427 396.844 533.134 389.786 550.642C381.994 570.074 374.57 582.999 358.345 596.015C334.971 614.897 306.372 634.055 276.032 617.372C264.483 610.956 254.4 603.073 245.05 593.723C206.918 555.683 174.378 489.502 218.193 443.946C229.101 432.58 242.942 425.064 258.158 420.755V420.664Z" fill="#5DF984"/>
<path d="M290.234 521.216C290.234 521.216 267.135 493.167 262.185 446.969C262.185 446.969 257.235 433.77 288.034 434.87C288.034 434.87 306.183 433.22 306.183 446.969C306.183 446.969 300.133 495.917 290.234 521.216Z" fill="#33E25A"/>
<path d="M324.331 450.82C324.331 450.82 297.933 494.269 290.233 521.217C290.233 521.217 331.481 505.268 355.68 482.169C355.68 482.169 366.13 473.369 345.781 454.67C345.781 454.67 332.031 440.371 324.331 450.82Z" fill="#33E25A"/>
<path d="M290.236 527.268L257.238 594.365C257.238 594.365 258.338 608.114 284.736 616.364C313.702 620.397 306.827 590.148 303.711 571.999C301.144 556.783 297.753 540.834 290.236 527.268Z" fill="#33E25A"/>
<path d="M289.229 521.586C292.437 532.31 296.379 542.943 300.687 553.393C304.445 562.559 308.478 571.542 313.337 580.25C318.378 589.508 321.495 601.333 334.877 596.2C346.427 591.8 363.751 580.617 362.101 567.784C360.635 556.326 345.144 548.443 336.069 541.935C322.778 532.311 306.829 523.053 289.321 521.586H289.229Z" fill="#33E25A"/>
<path d="M296.286 519.019C305.728 514.161 315.444 509.761 325.252 505.636C338.268 500.137 352.109 491.429 366.683 491.429C382.174 491.429 380.524 512.603 378.6 522.869C377.683 527.727 376.4 537.26 372.641 540.927C366.5 546.885 353.209 538.543 346.334 536.252C329.56 530.66 312.877 524.886 296.195 519.019H296.286Z" fill="#33E25A"/>
<path d="M289.226 521.586C288.035 521.586 283.635 512.053 282.993 510.953C278.135 502.978 273.002 495.187 267.594 487.579C261.728 479.329 255.495 471.079 248.253 463.93C245.32 461.088 241.562 456.138 237.437 455.772C232.029 455.405 226.071 461.913 222.588 465.305C215.254 472.454 198.664 516.819 217.913 517.644C226.896 518.011 236.52 518.011 245.778 518.652C260.261 519.661 274.835 520.577 289.318 521.586H289.226Z" fill="#33E25A"/>
<path d="M223.598 529.194C225.248 527.911 227.631 526.994 231.023 526.444C250.089 523.328 269.98 522.961 289.229 521.586L291.337 525.161C291.887 526.169 284.371 536.069 283.729 537.077C278.504 545.235 273.921 554.676 268.971 563.384C265.488 569.434 259.163 582.633 252.38 585.2C245.322 587.95 235.148 573.1 231.298 568.334C225.982 561.826 224.148 552.385 221.948 544.502C219.932 537.26 219.657 532.219 223.598 529.194Z" fill="#33E25A"/>
<path d="M305.363 521.218C305.363 529.193 298.671 535.701 290.422 535.701C282.172 535.701 275.48 529.193 275.48 521.218C275.48 513.243 282.172 506.735 290.422 506.735C298.671 506.735 305.363 513.243 305.363 521.218Z" fill="#AEFFC0"/>
<path d="M70.2454 550.733C75.7451 538.817 83.1698 527.726 93.0694 517.826C109.019 501.785 129.001 490.236 151 484.92C163.283 481.895 175.291 480.061 188.124 480.886C200.315 481.711 212.414 484.553 223.506 489.686C229.922 492.619 235.972 496.286 241.563 500.594C274.837 525.984 292.803 567.783 286.936 609.306C283.178 635.705 273.279 660.729 254.213 679.886C215.989 718.385 152.009 725.901 104.711 699.961C51.1795 670.537 46.5964 601.973 70.337 550.642L70.2454 550.733Z" fill="#26C446"/>
<path d="M68.0442 582.999C63.461 613.065 69.2358 650.921 92.0598 672.829C112.134 692.078 142.108 700.236 169.332 701.428C174.006 701.611 178.773 701.611 183.448 701.336C219.38 699.044 251.553 676.22 263.011 641.664C274.011 608.482 274.377 570.625 256.228 539.826C252.103 532.86 247.153 526.443 241.195 520.944C231.846 512.236 220.021 506.002 207.922 501.969C193.897 497.294 179.048 495.37 164.29 496.928C150.357 498.486 136.516 501.694 123.684 507.561C94.4431 521.035 73.1773 550.551 68.0442 582.541C68.0442 582.724 68.0442 582.908 68.0442 582.999Z" fill="#5DF984"/>
<path d="M162.548 600.507C162.914 599.407 155.398 591.707 154.665 590.791C148.89 583.458 143.299 576.033 137.982 568.333C132.299 560.083 126.616 551.559 122.583 542.393C117.45 530.935 124.324 523.877 134.774 518.744C141.557 515.444 151.915 513.427 159.065 516.635C165.848 519.66 165.573 527.818 166.489 534.418C169.423 556.142 169.789 579.516 162.639 600.507H162.548Z" fill="#33E25A"/>
<path d="M164.745 603.257C163.37 614.44 163.462 626.081 164.47 637.264C165.845 652.021 168.045 674.479 181.611 683.645C193.619 691.711 212.96 674.754 220.201 666.504C231.567 653.58 212.593 638.822 203.977 629.564C193.344 618.198 180.328 606.923 164.745 603.257Z" fill="#33E25A"/>
<path d="M190.6 517.002C189.316 517.735 188.125 518.744 186.933 520.027C180.792 526.902 178.959 536.251 176.117 544.684C170.067 562.833 165.667 581.624 162.459 600.415C175.659 594.824 188.033 585.932 198.666 576.4C208.382 567.692 218.74 556.875 224.423 544.959C230.015 533.135 220.848 524.335 210.399 519.294C203.524 515.902 196.558 513.427 190.508 516.91L190.6 517.002Z" fill="#33E25A"/>
<path d="M159.801 604.356C155.217 605.364 147.426 619.664 144.951 623.055C139.268 630.847 133.86 639.005 128.727 647.163C122.86 656.604 112.044 670.262 124.602 678.695C132.118 683.736 156.501 691.619 163.559 683.003C169.15 676.128 164.567 659.17 164.75 651.104C165.117 635.155 165.3 619.205 164.75 603.348L159.801 604.448V604.356Z" fill="#33E25A"/>
<path d="M165.852 601.056C175.569 594.732 185.926 589.232 196.468 584.465C206.642 579.791 250.732 557.883 252.565 579.974C253.207 587.307 252.107 595.007 251.74 602.34C251.465 608.756 254.949 624.614 247.616 628.372C242.482 631.03 228.366 625.622 222.958 624.43C212.6 622.047 202.334 619.114 192.435 615.356C189.96 614.439 165.761 601.056 165.852 601.056Z" fill="#33E25A"/>
<path d="M99.0238 546.883C103.515 545.692 108.007 548.533 113.232 551.833C121.39 557.058 129.089 563.016 136.147 569.707C140.914 574.107 145.405 578.874 149.622 583.732C151.18 585.565 161.171 600.598 162.455 600.506C150.355 601.973 137.981 601.973 125.881 601.148C115.248 600.414 104.615 598.856 94.4406 595.923C79.4996 591.615 82.7995 578.69 85.8243 566.866C87.1993 561.641 89.0325 556.416 92.3324 552.108C94.5323 549.083 96.7322 547.525 99.0238 546.975V546.883Z" fill="#33E25A"/>
<path d="M81.2485 611.322C81.2485 611.322 81.9818 610.497 82.3485 610.13C89.0399 604.356 103.064 605.272 111.314 604.172C128.272 601.789 145.413 600.689 162.553 600.506C153.204 613.614 141.746 625.53 129.922 636.346C124.605 641.113 119.105 645.696 113.422 650.004C109.664 652.754 104.256 659.078 99.4894 658.987C90.5981 658.987 85.0984 644.779 82.8068 637.996C80.6069 631.488 76.757 617.555 81.3402 611.322H81.2485Z" fill="#33E25A"/>
<path d="M163.102 615.813C170.645 615.813 176.76 609.698 176.76 602.155C176.76 594.612 170.645 588.497 163.102 588.497C155.559 588.497 149.444 594.612 149.444 602.155C149.444 609.698 155.559 615.813 163.102 615.813Z" fill="#AEFFC0"/>
<path d="M119.649 341.101C119.649 345.042 116.349 348.342 112.316 348.342C108.283 348.342 104.983 345.134 104.983 341.101C104.983 337.068 108.283 333.859 112.316 333.859C116.349 333.859 119.649 337.068 119.649 341.101Z" fill="#DDD962"/>
<path d="M206.459 490.235C206.459 494.176 203.159 497.476 199.126 497.476C195.093 497.476 191.793 494.268 191.793 490.235C191.793 486.201 195.093 482.993 199.126 482.993C203.159 482.993 206.459 486.201 206.459 490.235Z" fill="#DDD962"/>
<path d="M160.169 353.657C166.092 353.657 170.893 348.856 170.893 342.933C170.893 337.01 166.092 332.208 160.169 332.208C154.246 332.208 149.444 337.01 149.444 342.933C149.444 348.856 154.246 353.657 160.169 353.657Z" fill="#FFFED4"/>
<path d="M420.396 760.184C426.319 760.184 431.121 755.382 431.121 749.459C431.121 743.536 426.319 738.734 420.396 738.734C414.473 738.734 409.672 743.536 409.672 749.459C409.672 755.382 414.473 760.184 420.396 760.184Z" fill="#FFFED4"/>
<path d="M272.912 342.565C272.912 348.523 268.146 353.29 262.188 353.29C256.23 353.29 251.463 348.523 251.463 342.565C251.463 336.607 256.23 331.841 262.188 331.841C268.146 331.841 272.912 336.607 272.912 342.565Z" fill="#FFFED4"/>
<path d="M109.387 717.378C115.31 717.378 120.112 712.576 120.112 706.653C120.112 700.73 115.31 695.929 109.387 695.929C103.464 695.929 98.6626 700.73 98.6626 706.653C98.6626 712.576 103.464 717.378 109.387 717.378Z" fill="#FFFED4"/>
<path d="M227.081 835.163C233.004 835.163 237.806 830.361 237.806 824.438C237.806 818.515 233.004 813.714 227.081 813.714C221.158 813.714 216.357 818.515 216.357 824.438C216.357 830.361 221.158 835.163 227.081 835.163Z" fill="#FFFED4"/>
<path d="M302.794 387.85C305.376 387.85 307.469 385.757 307.469 383.175C307.469 380.593 305.376 378.5 302.794 378.5C300.212 378.5 298.119 380.593 298.119 383.175C298.119 385.757 300.212 387.85 302.794 387.85Z" fill="#FFFED4"/>
<path d="M393.445 326.251C396.027 326.251 398.12 324.158 398.12 321.576C398.12 318.994 396.027 316.901 393.445 316.901C390.864 316.901 388.771 318.994 388.771 321.576C388.771 324.158 390.864 326.251 393.445 326.251Z" fill="#FFFED4"/>
<path d="M355.772 370.982C355.772 375.749 351.922 379.69 347.064 379.69C342.206 379.69 338.356 375.841 338.356 370.982C338.356 366.124 342.206 362.274 347.064 362.274C351.922 362.274 355.772 366.124 355.772 370.982Z" fill="#FFFED4"/>
<path d="M127.536 452.196C127.536 456.963 123.686 460.904 118.828 460.904C113.97 460.904 110.12 457.054 110.12 452.196C110.12 447.338 113.97 443.488 118.828 443.488C123.686 443.488 127.536 447.338 127.536 452.196Z" fill="#FFFED4"/>
<path d="M192.892 361.815C192.892 366.948 188.493 370.981 182.993 370.981C177.493 370.981 173.093 366.856 173.093 361.815C173.093 356.773 177.493 352.648 182.993 352.648C188.493 352.648 192.892 356.773 192.892 361.815Z" fill="#DDD962"/>
<path d="M423.607 653.488C423.607 658.621 419.207 662.654 413.708 662.654C408.208 662.654 403.808 658.529 403.808 653.488C403.808 648.446 408.208 644.321 413.708 644.321C419.207 644.321 423.607 648.446 423.607 653.488Z" fill="#DDD962"/>
<path d="M258.06 892.821C258.06 897.954 253.66 901.987 248.16 901.987C242.661 901.987 238.261 897.862 238.261 892.821C238.261 887.779 242.661 883.654 248.16 883.654C253.66 883.654 258.06 887.779 258.06 892.821Z" fill="#DDD962"/>
<path d="M415.444 818.939C415.444 823.98 411.044 828.105 405.544 828.105C400.045 828.105 395.645 823.98 395.645 818.939C395.645 813.897 400.045 809.772 405.544 809.772C411.044 809.772 415.444 813.897 415.444 818.939Z" fill="#DDD962"/>
<path d="M393.63 415.898C393.63 421.031 389.23 425.064 383.73 425.064C378.23 425.064 373.83 420.939 373.83 415.898C373.83 410.856 378.23 406.731 383.73 406.731C389.23 406.731 393.63 410.856 393.63 415.898Z" fill="#DDD962"/>
<path d="M112.223 749.458C112.223 754.5 107.823 758.625 102.324 758.625C96.8239 758.625 92.4241 754.5 92.4241 749.458C92.4241 744.417 96.8239 740.292 102.324 740.292C107.823 740.292 112.223 744.417 112.223 749.458Z" fill="#DDD962"/>
<path d="M317.735 361.084C317.735 364.933 314.435 368.05 310.402 368.05C306.369 368.05 303.069 364.933 303.069 361.084C303.069 357.234 306.369 354.117 310.402 354.117C314.435 354.117 317.735 357.234 317.735 361.084Z" fill="#DDD962"/>
<path d="M156.503 331.11C156.503 335.144 152.653 338.443 147.979 338.443C143.304 338.443 139.454 335.144 139.454 331.11C139.454 327.077 143.304 323.777 147.979 323.777C152.653 323.777 156.503 327.077 156.503 331.11Z" fill="#DDD962"/>
<path d="M333.04 343.117C333.04 346.233 330.382 348.708 327.082 348.708C323.782 348.708 321.124 346.233 321.124 343.117C321.124 340 323.782 337.525 327.082 337.525C330.382 337.525 333.04 340 333.04 343.117Z" fill="#DDD962"/>
<path d="M370.896 380.881C370.896 383.998 368.238 386.473 364.938 386.473C361.638 386.473 358.98 383.998 358.98 380.881C358.98 377.765 361.638 375.29 364.938 375.29C368.238 375.29 370.896 377.765 370.896 380.881Z" fill="#DDD962"/>
<path d="M396.659 710.503C396.659 713.619 394.001 716.094 390.701 716.094C387.401 716.094 384.743 713.619 384.743 710.503C384.743 707.386 387.401 704.911 390.701 704.911C394.001 704.911 396.659 707.386 396.659 710.503Z" fill="#DDD962"/>
<path d="M398.309 778.241C401.6 778.241 404.267 775.738 404.267 772.65C404.267 769.562 401.6 767.059 398.309 767.059C395.019 767.059 392.351 769.562 392.351 772.65C392.351 775.738 395.019 778.241 398.309 778.241Z" fill="#DDD962"/>
<path d="M81.5224 794.19C81.5224 797.307 78.8642 799.782 75.5643 799.782C72.2644 799.782 69.6062 797.307 69.6062 794.19C69.6062 791.074 72.2644 788.599 75.5643 788.599C78.8642 788.599 81.5224 791.074 81.5224 794.19Z" fill="#DDD962"/>
<path d="M313.15 658.436C313.15 661.553 310.492 664.028 307.192 664.028C303.892 664.028 301.234 661.553 301.234 658.436C301.234 655.32 303.892 652.845 307.192 652.845C310.492 652.845 313.15 655.32 313.15 658.436Z" fill="#DDD962"/>
<path d="M391.797 359.984C391.797 363.101 389.139 365.575 385.839 365.575C382.539 365.575 379.881 363.101 379.881 359.984C379.881 356.867 382.539 354.393 385.839 354.393C389.139 354.393 391.797 356.867 391.797 359.984Z" fill="#DDD962"/>
<path d="M278.409 345.317C278.409 348.434 275.751 350.908 272.451 350.908C269.151 350.908 266.493 348.434 266.493 345.317C266.493 342.2 269.151 339.726 272.451 339.726C275.751 339.726 278.409 342.2 278.409 345.317Z" fill="#DDD962"/>
<path d="M251.188 413.054C251.188 416.171 248.53 418.646 245.23 418.646C241.93 418.646 239.272 416.171 239.272 413.054C239.272 409.938 241.93 407.463 245.23 407.463C248.53 407.463 251.188 409.938 251.188 413.054Z" fill="#DDD962"/>
<path d="M224.602 500.684C224.602 503.801 221.944 506.276 218.644 506.276C215.344 506.276 212.686 503.801 212.686 500.684C212.686 497.568 215.344 495.093 218.644 495.093C221.944 495.093 224.602 497.568 224.602 500.684Z" fill="#DDD962"/>
<path d="M262.282 397.565C262.282 400.132 260.173 402.24 257.607 402.24C255.04 402.24 252.932 400.132 252.932 397.565C252.932 394.999 255.04 392.891 257.607 392.891C260.173 392.891 262.282 394.999 262.282 397.565Z" fill="#FFFED4"/>
<path d="M77.2083 696.477C79.7901 696.477 81.8831 694.384 81.8831 691.802C81.8831 689.22 79.7901 687.127 77.2083 687.127C74.6264 687.127 72.5334 689.22 72.5334 691.802C72.5334 694.384 74.6264 696.477 77.2083 696.477Z" fill="#FFFED4"/>
<path d="M421.035 685.754C425.338 685.754 428.826 682.265 428.826 677.962C428.826 673.659 425.338 670.171 421.035 670.171C416.732 670.171 413.244 673.659 413.244 677.962C413.244 682.265 416.732 685.754 421.035 685.754Z" fill="#FFFED4"/>
<path d="M242.752 787.774C242.752 792.082 239.269 795.565 234.961 795.565C230.653 795.565 227.17 792.082 227.17 787.774C227.17 783.466 230.653 779.982 234.961 779.982C239.269 779.982 242.752 783.466 242.752 787.774Z" fill="#FFFED4"/>
<path d="M161.542 868.712C161.542 871.278 159.434 873.387 156.868 873.387C154.301 873.387 152.193 871.278 152.193 868.712C152.193 866.145 154.301 864.037 156.868 864.037C159.434 864.037 161.542 866.145 161.542 868.712Z" fill="#FFFED4"/>
<path d="M201.965 334.775C204.546 334.775 206.639 332.682 206.639 330.101C206.639 327.519 204.546 325.426 201.965 325.426C199.383 325.426 197.29 327.519 197.29 330.101C197.29 332.682 199.383 334.775 201.965 334.775Z" fill="#FFFED4"/>
<path d="M105.076 465.854C105.076 468.42 102.968 470.528 100.401 470.528C97.8348 470.528 95.7266 468.42 95.7266 465.854C95.7266 463.287 97.8348 461.179 100.401 461.179C102.968 461.179 105.076 463.287 105.076 465.854Z" fill="#FFFED4"/>
<path d="M112.414 434.505C112.414 437.621 109.756 440.096 106.456 440.096C103.156 440.096 100.498 437.621 100.498 434.505C100.498 431.388 103.156 428.913 106.456 428.913C109.756 428.913 112.414 431.388 112.414 434.505Z" fill="#DDD962"/>
<path d="M60.8014 59.6968C62.8179 42.9225 64.1012 25.9648 64.6512 9.09885C65.3845 -12.0753 26.7944 12.4904 19.9197 16.7069C12.22 21.565 -1.0711 28.1647 0.762161 39.3476C1.86212 45.8557 8.64517 49.5222 14.6949 51.9054C26.6111 56.6719 38.8023 60.5217 51.2684 63.4549C52.6434 63.8216 53.1933 61.255 52.5517 59.9718C51.9101 58.6885 50.4434 58.0468 49.1602 57.4969C39.9939 53.7387 30.9193 49.9805 21.753 46.2223C19.2781 45.214 16.8032 44.2057 14.7866 42.3725C12.8617 40.5392 11.5784 37.7893 12.22 35.2228C12.8617 32.6562 15.2449 31.0063 17.5365 29.5397C27.1611 23.3066 37.244 17.7152 47.6019 12.7654C49.2518 12.0321 51.0851 11.2071 52.8267 11.5737C56.4932 12.3987 57.3182 17.0735 57.4098 20.8317C57.5015 30.9146 56.8598 40.9975 55.5766 51.0805C55.2099 53.5554 54.9349 56.3052 56.3099 58.4135C57.6848 60.5217 60.5264 62.1717 60.8014 59.6968Z" fill="#72A843"/>
<path d="M58.5104 56.3031C53.744 57.5864 49.3442 59.6947 45.586 62.4446C32.3865 72.2525 28.17 90.3101 32.5699 105.526C37.3363 121.842 57.5938 129.45 73.3598 125.875C87.7509 122.667 99.6671 110.934 103.609 96.8181C106.083 87.8352 105.534 77.8439 100.95 69.7776C92.9757 55.7532 74.0015 51.995 58.4188 56.3031H58.5104Z" fill="#D6F95F"/>
<path d="M174.097 120.376C174.189 121.75 174.005 123.309 173.547 124.959C172.905 127.892 171.622 130.917 170.98 133.392C169.239 140.083 167.497 146.958 165.847 153.649C164.564 158.507 163.281 163.365 161.997 168.315C159.064 179.315 156.223 190.314 153.473 201.497C151.639 208.464 149.898 215.338 148.065 222.305C146.69 227.529 146.69 234.679 140.915 236.421C135.782 237.979 127.165 233.121 121.024 229.913C119.557 229.088 118.183 228.446 116.991 227.988C106.45 223.588 95.9084 219.096 85.3672 214.697C72.8094 209.472 60.1599 204.064 47.6938 198.839C43.6606 197.189 35.4109 195.172 29.9112 191.689C27.9862 190.498 26.3363 189.031 25.4197 187.381C25.2364 186.923 25.1447 186.281 25.053 185.823C23.8614 177.023 35.2276 164.282 39.9941 157.682C55.3018 137.058 76.7509 122.025 101.408 114.967C113.599 111.576 126.249 110.018 138.99 110.109C145.59 110.109 152.189 110.659 158.514 111.576C165.022 112.584 173.455 111.851 173.914 120.559L174.097 120.376Z" fill="#5DF984"/>
<path d="M174.101 120.376C174.101 121.751 173.917 123.309 173.459 124.959C85.1876 98.1015 37.1562 178.673 30.0982 191.598C28.0816 190.406 26.4317 188.939 25.6067 187.289C25.3317 186.74 25.2401 186.19 25.1484 185.731C24.0484 176.932 35.2313 164.19 40.0894 157.591C55.3055 136.967 76.8463 121.934 101.412 114.876C113.695 111.484 126.344 109.834 138.994 110.018C145.593 110.018 152.101 110.568 158.518 111.393C165.026 112.401 173.367 111.668 173.917 120.376H174.101Z" fill="#34A57F"/>
<path d="M82.9873 86.1858C83.1706 89.3023 83.2623 92.4189 82.7123 95.4438C81.5207 101.219 77.8542 106.168 74.2793 110.935C73.4544 112.035 72.5377 113.318 72.6294 114.693C72.6294 116.526 74.4627 118.084 76.2959 118.359C78.1292 118.726 80.0541 118.176 81.7957 117.443C92.0619 113.135 99.4866 102.685 100.22 91.5939C100.678 83.9859 96.6451 68.7698 88.2121 65.8366C75.471 61.5285 82.8956 80.8693 83.079 86.0941L82.9873 86.1858Z" fill="#C9E545"/>
<path d="M459.265 235.23C459.632 256.588 430.483 266.029 414.625 269.421C385.018 275.745 354.403 275.379 324.337 276.57C279.422 278.312 234.324 278.22 189.501 275.47C157.602 273.546 125.795 270.887 94.2633 265.388C74.3724 261.996 38.6239 258.88 33.6741 233.581C32.4825 227.347 34.6824 222.398 38.9906 218.548C39.7239 222.214 37.9823 226.706 39.5405 230.831C47.3319 251.73 95.4549 252.921 114.154 255.488C158.244 261.446 202.792 263.921 247.249 263.921C247.249 263.921 390.334 267.587 430.666 252.921C430.666 252.921 465.223 245.588 449.09 222.856L449.732 222.123C455.323 225.514 459.265 229.914 459.357 235.23H459.265Z" fill="#EDE6FF"/>
<path d="M156.681 168.774C155.581 179.682 154.573 190.59 153.473 201.406C151.64 208.372 149.898 215.247 148.065 222.213C146.69 227.438 146.69 234.588 140.915 236.329C135.782 237.888 127.166 233.029 121.025 229.821C113.966 224.688 105.442 220.93 97.9255 216.622C91.8757 213.23 85.7343 209.839 80.8762 204.889C74.1848 198.198 68.2267 184.265 83.2594 188.481C96.3672 192.056 108.1 199.297 119.65 206.447C109.292 191.414 98.6588 175.648 96.3672 157.591C96.0922 155.024 96.0005 152.366 97.6505 150.35C99.3921 148.425 102.509 148.333 105.075 148.975C113.966 151.449 118.733 160.799 122.399 169.14C127.258 180.14 132.116 191.139 137.066 202.231C137.341 191.506 135.599 180.69 136.882 169.965C137.524 162.999 140.64 152.366 146.048 147.508C157.598 137.058 157.323 162.907 156.773 168.682L156.681 168.774Z" fill="#33E25A"/>
<path d="M39.7214 86.0929C39.1714 89.9427 39.9964 94.5259 43.4795 96.3591C45.5878 97.4591 48.246 97.2757 50.3543 96.2675C52.5542 95.2592 54.2958 93.5176 55.854 91.776C58.2373 89.1177 60.3455 86.0929 62.0871 82.9763C65.662 76.5599 66.4869 63.8188 55.854 65.927C47.5127 67.577 40.7297 78.3015 39.7214 86.0929Z" fill="#DEFFA6"/>
<path d="M131.932 540.834C130.466 540.651 129.549 539.551 129.641 538.267C130.282 532.493 134.407 527.268 139.907 525.435C145.498 523.51 151.823 525.068 155.948 529.193C156.865 530.109 156.773 531.576 155.948 532.401C155.031 533.318 153.565 533.226 152.74 532.401C149.898 529.559 145.315 528.459 141.465 529.743C137.615 531.026 134.682 534.784 134.316 538.726C134.224 539.917 133.216 540.742 132.024 540.742L131.932 540.834Z" fill="#26C446"/>
<path d="M216.169 545.784C215.161 545.784 214.244 545.142 213.969 544.134C212.411 538.542 210.578 532.951 206.178 530.567C204.528 529.651 202.511 529.193 199.945 529.193C197.286 529.193 194.17 529.651 191.42 530.659C190.228 531.117 188.945 530.476 188.487 529.284C188.028 528.093 188.67 526.809 189.862 526.351C193.162 525.159 196.553 524.609 200.036 524.609C203.244 524.609 206.086 525.343 208.378 526.534C214.336 529.743 216.627 536.709 218.369 542.942C218.736 544.134 218.002 545.417 216.811 545.784C216.627 545.784 216.444 545.784 216.169 545.784Z" fill="#26C446"/>
<path d="M237.989 616.455C237.53 616.455 236.98 616.272 236.614 615.997C235.606 615.264 235.422 613.797 236.156 612.789C242.755 604.081 243.855 591.706 238.905 581.99C238.355 580.89 238.814 579.515 239.914 578.874C241.014 578.324 242.389 578.782 243.03 579.882C248.713 591.157 247.43 605.456 239.822 615.447C239.364 615.997 238.722 616.364 237.989 616.364V616.455Z" fill="#26C446"/>
<path d="M94.9984 589.047C93.8068 589.047 92.7985 588.13 92.7068 586.939C92.3402 581.53 91.9735 575.389 93.4402 569.523C95.1817 562.739 99.4899 557.423 104.898 555.406C106.09 554.948 107.373 555.59 107.831 556.781C108.29 557.973 107.648 559.256 106.548 559.715C102.515 561.273 99.2149 565.398 97.84 570.714C96.5567 575.847 96.8317 581.347 97.1983 586.663C97.1983 587.947 96.3734 589.047 95.0901 589.138C95.0901 589.138 94.9984 589.138 94.9068 589.138L94.9984 589.047Z" fill="#26C446"/>
<path d="M103.154 648.262C103.154 648.262 102.512 648.262 102.145 648.079C90.9624 642.671 84.821 628.555 88.5792 616.639C88.9459 615.447 90.2291 614.714 91.4208 615.172C92.6124 615.539 93.254 616.822 92.8874 618.014C89.8625 627.822 94.9039 639.463 104.07 643.954C105.17 644.504 105.72 645.879 105.17 646.979C104.804 647.804 103.979 648.262 103.154 648.262Z" fill="#26C446"/>
<path d="M146.415 678.144C144.673 678.144 142.932 677.961 141.282 677.686C134.315 676.403 128.266 672.003 125.607 666.228C125.057 665.036 125.607 663.753 126.707 663.203C127.807 662.653 129.182 663.203 129.732 664.303C131.749 668.703 136.515 672.186 142.107 673.194C147.056 674.111 152.465 673.378 158.514 671.086C159.706 670.628 160.989 671.178 161.448 672.369C161.906 673.561 161.356 674.844 160.164 675.303C155.306 677.136 150.723 678.144 146.415 678.144Z" fill="#26C446"/>
<path d="M187.944 677.961C186.753 677.961 185.744 677.045 185.653 675.853C185.653 674.57 186.478 673.47 187.761 673.378C198.485 672.645 208.477 664.67 211.593 654.404C211.96 653.212 213.335 652.479 214.435 652.846C215.626 653.213 216.36 654.496 215.993 655.687C212.326 667.879 200.777 677.045 188.127 677.87C188.127 677.87 188.036 677.87 187.944 677.87V677.961Z" fill="#26C446"/>
<path d="M370.26 836.538C370.26 836.538 369.343 836.447 368.976 836.172C367.968 835.438 367.693 834.063 368.427 832.963C373.743 825.264 374.11 814.264 369.435 806.106C368.793 805.006 369.16 803.631 370.26 802.99C371.36 802.348 372.735 802.715 373.376 803.814C379.059 813.531 378.509 826.272 372.185 835.53C371.726 836.171 370.993 836.538 370.26 836.538Z" fill="#26C446"/>
<path d="M220.209 487.761C220.209 487.761 219.567 487.761 219.292 487.578C218.101 487.119 217.551 485.744 218.101 484.553C221.492 476.67 227.817 469.887 235.517 466.037C236.617 465.487 237.992 465.945 238.633 467.045C239.183 468.145 238.725 469.52 237.625 470.162C230.934 473.553 225.342 479.511 222.317 486.386C221.951 487.211 221.126 487.761 220.209 487.761Z" fill="#26C446"/>
<path d="M269.52 449.813C268.787 449.813 268.053 449.447 267.595 448.713C266.953 447.613 267.228 446.238 268.328 445.505C276.486 440.28 286.478 438.539 295.919 440.83C297.111 441.105 297.935 442.389 297.66 443.58C297.385 444.772 296.194 445.597 294.911 445.322C286.844 443.397 277.861 444.955 270.895 449.447C270.528 449.722 270.07 449.813 269.703 449.813H269.52Z" fill="#26C446"/>
<path d="M348.901 480.52C347.893 480.52 347.068 479.878 346.701 478.961C343.86 470.162 337.169 462.829 328.644 459.254C327.452 458.795 326.902 457.42 327.452 456.229C327.911 455.037 329.286 454.487 330.477 455.037C340.193 459.162 347.893 467.595 351.101 477.586C351.468 478.778 350.826 480.061 349.635 480.428C349.36 480.428 349.176 480.52 348.901 480.52Z" fill="#26C446"/>
<path d="M363.287 533.408C362.645 533.408 362.095 533.133 361.637 532.675C360.812 531.758 360.812 530.291 361.728 529.466C364.845 526.533 366.862 521.95 367.412 516.542C367.962 511.409 367.228 506.184 366.587 501.051C366.403 499.768 367.32 498.668 368.511 498.484C369.886 498.301 370.895 499.218 371.078 500.409C371.811 505.817 372.545 511.317 371.903 517C371.261 523.508 368.695 529.1 364.753 532.766C364.295 533.225 363.745 533.408 363.195 533.408H363.287Z" fill="#26C446"/>
<path d="M328.825 588.04C327.817 588.04 326.9 588.04 325.984 587.857C324.7 587.674 323.875 586.482 324.059 585.29C324.242 584.007 325.25 583.182 326.625 583.366C331.575 584.099 336.983 582.266 341.75 578.507C346.424 574.749 349.816 569.524 352.474 564.85C353.116 563.75 354.491 563.383 355.591 564.025C356.691 564.666 357.057 566.041 356.416 567.141C353.574 572.091 349.908 577.774 344.683 581.991C339.825 585.932 334.233 588.04 328.917 588.04H328.825Z" fill="#26C446"/>
<path d="M355.772 479.971C355.772 484.737 351.922 488.679 347.064 488.679C342.206 488.679 338.356 484.829 338.356 479.971C338.356 475.113 342.206 471.263 347.064 471.263C351.922 471.263 355.772 475.113 355.772 479.971Z" fill="#FFFED4"/>
<path d="M291.429 544.958C283.454 544.958 275.48 542.024 271.447 534.508C266.405 525.159 264.48 512.234 274.105 503.984C279.696 499.218 287.854 497.385 295.371 499.31C302.245 501.051 308.662 505.726 312.787 512.142C316.178 517.367 316.911 523.05 315.17 530.017C313.52 536.341 308.387 541.475 301.329 543.583C298.212 544.499 294.821 545.049 291.429 545.049V544.958ZM277.13 507.468C267.597 515.626 273.463 528.642 275.48 532.4C279.788 540.466 291.062 541.841 299.954 539.183C305.454 537.533 309.487 533.683 310.678 528.917C312.145 523.234 311.595 518.834 308.845 514.709C305.362 509.209 299.954 505.268 294.179 503.801C288.038 502.243 281.438 503.801 277.038 507.559L277.13 507.468Z" fill="#26C446"/>
<path d="M163.562 625.438C155.679 625.438 148.804 621.955 145.138 615.813C141.379 609.672 140.463 601.972 142.663 595.189C145.229 587.306 150.912 581.898 158.245 580.248C165.945 578.598 173.92 581.348 179.786 587.673C185.653 593.997 187.761 603.255 185.286 611.23C182.903 618.746 175.845 624.154 166.77 625.163C165.67 625.254 164.57 625.346 163.562 625.346V625.438ZM162.737 584.373C161.637 584.373 160.445 584.464 159.345 584.739C153.571 586.023 149.171 590.331 147.154 596.564C145.321 602.155 146.146 608.388 149.171 613.43C153.112 619.846 160.629 621.405 166.403 620.671C172.086 620.03 178.869 616.821 181.069 609.855C183.086 603.53 181.253 595.922 176.578 590.789C172.728 586.664 167.778 584.373 162.828 584.373H162.737Z" fill="#26C446"/>
<path d="M72.5347 1233.9C69.6015 1236.19 67.4016 1239.03 67.5849 1241.96C68.6848 1257.64 100.584 1251.68 109.841 1250.21C115.25 1249.39 127.807 1248.01 129.641 1240.4C134.59 1220.42 90.3173 1225.74 81.976 1228.58C79.4094 1229.5 75.5596 1231.33 72.443 1233.81L72.5347 1233.9Z" fill="#EDE6FF"/>
<path opacity="0.71" d="M92.7014 370.89C93.8014 379.048 94.8096 387.298 97.1012 395.364C98.4762 400.222 100.401 405.172 104.801 408.93C107.001 410.855 109.934 412.505 113.234 413.055C123.408 414.888 131.566 407.28 135.966 400.314C150.357 377.306 149.899 342.108 133.033 318.734C126.708 310.026 102.968 291.235 89.7682 302.601C83.0768 308.376 86.1017 320.2 87.0183 327.259C88.8516 341.833 90.7765 356.316 92.6097 370.89H92.7014Z" fill="#EDE6FF"/>
<path opacity="0.71" d="M436.436 687.218C441.203 731.583 446.519 819.488 402.154 848.361C347.065 884.293 346.148 796.664 347.89 766.781C350.273 724.983 356.506 682.91 349.723 641.203C345.323 614.163 326.074 561.64 342.024 536.433C366.314 497.843 395.28 543.399 405.363 566.956C419.387 599.68 431.67 642.853 436.436 687.218Z" fill="#EDE6FF"/>
</g>
<defs>
<clipPath id="clip0_4090_2666">
<rect width="476.005" height="1320.22" fill="white" transform="translate(0.581299 0.573242)"/>
</clipPath>
</defs>
</svg>
