<svg width="1953" height="1374" viewBox="0 0 1953 1374" fill="none" xmlns="http://www.w3.org/2000/svg">
<path d="M750.436 1225.58C621.26 1145.97 717.335 1070.08 586.624 987.811C455.914 905.541 287.258 799.697 287.258 604.318C287.258 409.019 536.649 285.978 655.734 376.321C742.686 442.282 820.595 609.888 831.575 757.15C842.475 904.411 968.987 898.517 999.828 1002.75C1044.88 1154.85 874.446 1301.87 750.436 1225.5V1225.58Z" fill="#79B8F3"/>
<mask id="mask0_4090_3419" style="mask-type:luminance" maskUnits="userSpaceOnUse" x="287" y="346" width="721" height="901">
<path d="M750.438 1225.58C621.261 1145.97 717.337 1070.08 586.626 987.813C455.915 905.543 287.259 799.699 287.259 604.32C287.259 409.021 536.651 285.98 655.735 376.323C742.687 442.284 820.597 609.89 831.577 757.152C842.476 904.413 968.989 898.519 999.83 1002.75C1044.88 1154.85 874.448 1301.87 750.438 1225.5V1225.58Z" fill="white"/>
</mask>
<g mask="url(#mask0_4090_3419)">
<path opacity="0.24" d="M190.054 517.689C403.679 664.223 662.678 280.246 791.048 476.756C919.498 673.266 724.441 396.424 512.268 579.209C300.177 761.994 226.142 578.079 149.201 619.658C72.2606 661.236 194.736 859.603 293.233 911.758C391.731 963.994 395.525 723.483 604.226 686.829C812.927 650.176 836.582 798.325 908.518 715.168C980.453 632.01 922.646 716.379 945.414 771.602C968.181 826.825 1026.47 798.163 908.114 828.116C789.837 858.069 679.794 686.749 582.266 777.172C484.738 867.596 360.163 972.794 369.044 1004.36C377.925 1035.93 485.384 1111.82 499.754 1112.87C514.125 1113.92 559.095 937.028 715.802 934.445C872.51 931.861 951.63 957.939 994.662 893.108C1037.69 828.278 1046.09 883.016 1063.29 937.271C1080.56 991.525 927.733 1074.2 786.769 1058.7C645.805 1043.11 599.786 1087.68 601.723 1155.26C603.661 1222.83 713.703 1146.29 841.992 1155.26C970.28 1164.3 1017.19 1059.26 1051.18 1092.28C1085.17 1125.22 935.968 1320.6 935.968 1320.6C935.968 1320.6 554.493 1328.76 510.573 1308.09C466.653 1287.42 239.706 1106.65 198.127 1081.87C156.548 1057.08 22.8506 895.369 7.1072 835.705C-8.6362 776.042 2.90896 612.068 26.4837 581.147C49.9777 550.225 189.973 517.527 189.973 517.527L190.054 517.689Z" fill="#16F9D0"/>
<path opacity="0.1" d="M345.389 504.61C312.207 727.036 426.124 895.773 490.067 960.684C554.009 1025.6 358.145 945.425 311.318 901.505C264.492 857.666 167.448 734.302 168.74 707.014C170.032 679.725 192.476 619.335 199.581 599.151C206.685 578.967 345.389 504.529 345.389 504.529V504.61Z" fill="#00BF97"/>
<path opacity="0.17" d="M604.305 1029.47C671.477 1045.62 690.046 1224.45 829.718 1154.85C1039.23 1050.46 877.514 821.496 956.392 853.79C1035.27 886.084 1177.36 949.784 1118.59 1092.12C1059.81 1234.46 835.208 1386.97 788.382 1372.68C741.555 1358.31 602.933 1246.73 575.079 1219.12C547.225 1191.51 604.386 1029.47 604.386 1029.47H604.305Z" fill="#00BF97"/>
<path opacity="0.39" d="M510.977 425.248C506.456 425.571 505.325 419.031 509.685 417.901C588.564 396.668 660.337 430.576 704.257 463.759C755.121 502.269 791.129 612.07 799.525 674.64C807.921 737.209 805.015 802.121 835.129 843.78C865.324 885.52 825.36 869.777 787.253 805.512C749.146 741.246 756.816 716.864 732.999 642.103C709.182 567.261 722.181 527.297 642.979 464.97C595.265 427.509 544.724 422.745 510.896 425.167L510.977 425.248Z" fill="white"/>
</g>
<path opacity="0.1" d="M797.344 919.106L783.134 912.405C783.134 912.405 799.362 821.82 736.711 706.933C677.936 599.313 604.548 645.251 559.982 625.552C553.604 622.726 546.176 623.534 540.201 627.005C534.146 630.477 529.706 636.451 528.899 643.394C523.328 691.674 446.387 731.638 509.28 836.917C576.452 949.22 662.758 981.272 662.758 981.272L661.305 996.854C506.535 922.739 447.84 806.964 466.086 732.93C484.252 659.461 511.702 630.154 486.916 560.479C486.593 559.51 486.916 558.461 487.804 557.977L507.261 546.835C508.15 546.351 509.28 546.593 509.926 547.319C557.479 604.076 596.555 595.357 669.136 616.913C742.121 638.712 812.118 748.108 797.424 919.106H797.344Z" fill="#00BF97"/>
<path d="M803.965 915.309L788.383 907.962C788.383 907.962 806.145 808.496 737.439 682.468C672.932 564.272 592.358 614.812 543.513 593.175C536.489 590.107 528.415 590.995 521.795 594.79C515.175 598.584 510.25 605.124 509.362 612.713C503.226 665.756 418.777 709.515 487.806 825.128C561.517 948.411 656.219 983.53 656.219 983.53L654.686 1000.65C484.818 919.265 420.391 792.188 440.414 710.968C460.355 630.394 490.47 598.181 463.262 521.643C462.858 520.594 463.262 519.383 464.231 518.898L485.545 506.707C486.514 506.142 487.725 506.384 488.451 507.272C540.687 569.519 583.558 559.993 663.163 583.648C743.333 607.627 820.032 727.599 803.965 915.309Z" fill="#31FFC6"/>
<mask id="mask1_4090_3419" style="mask-type:luminance" maskUnits="userSpaceOnUse" x="287" y="346" width="721" height="901">
<path d="M750.438 1225.58C621.261 1145.97 717.337 1070.08 586.626 987.813C455.915 905.543 287.259 799.699 287.259 604.32C287.259 409.021 536.651 285.98 655.735 376.323C742.687 442.284 820.597 609.89 831.577 757.152C842.476 904.413 968.989 898.519 999.83 1002.75C1044.88 1154.85 874.448 1301.87 750.438 1225.5V1225.58Z" fill="white"/>
</mask>
<g mask="url(#mask1_4090_3419)">
<path d="M324.07 797.111C244.949 540.292 364.76 462.221 448.806 419.027C532.851 375.834 634.417 360.01 732.106 463.109C829.796 566.289 677.529 276.045 623.275 271.039C569.021 265.953 420.871 324.728 343.123 299.378C265.375 274.027 184.317 541.019 188.031 561.606C191.745 582.194 246.564 729.293 246.564 729.293L324.151 797.03L324.07 797.111Z" fill="#D7EEFF"/>
</g>
<path d="M1105.1 908.126C1248.09 857.182 1169.77 762.883 1314.77 709.679C1459.78 656.474 1646.76 587.93 1687.45 396.91C1728.14 205.89 1509.83 33.6815 1374.52 97.2203C1275.7 143.643 1164.61 291.389 1123.27 433.16C1081.93 574.932 959.458 542.88 907.545 638.39C831.815 777.82 967.854 957.052 1105.1 908.126Z" fill="#79B8F3"/>
<mask id="mask2_4090_3419" style="mask-type:luminance" maskUnits="userSpaceOnUse" x="885" y="83" width="808" height="834">
<path d="M1105.11 908.123C1248.09 857.179 1169.78 762.881 1314.78 709.676C1459.78 656.471 1646.76 587.927 1687.45 396.907C1728.14 205.887 1509.83 33.6786 1374.52 97.2173C1275.7 143.64 1164.61 291.386 1123.27 433.157C1081.94 574.929 959.459 542.877 907.547 638.387C831.817 777.817 967.856 957.049 1105.11 908.123Z" fill="white"/>
</mask>
<g mask="url(#mask2_4090_3419)">
<path opacity="0.24" d="M1800.56 332.4C1561.1 431.22 1387.76 1.78872 1221.2 167.296C1054.64 332.804 1303.07 102.627 1472.53 325.538C1641.99 548.448 1752.6 383.99 1819.21 440.666C1885.82 497.342 1724.75 665.837 1617.45 696.436C1510.23 726.954 1556.58 491.045 1360.07 411.682C1163.56 332.319 1109.63 472.395 1056.58 376.078C1003.54 279.761 1042.45 374.302 1008.71 423.55C974.959 472.799 923.934 432.673 1033.41 486.605C1142.89 540.536 1286.19 395.858 1362.73 504.609C1439.35 613.359 1539.22 742.132 1523.96 771.197C1508.7 800.181 1387.76 852.094 1373.55 850.075C1359.34 848.057 1352.07 665.676 1199.32 630.556C1046.57 595.436 963.737 604.478 935.156 532.139C906.576 459.8 886.957 511.552 858.781 561.043C830.604 610.533 962.848 723.24 1103.97 737.369C1245.1 751.497 1280.87 804.702 1264.8 870.34C1248.81 935.978 1157.1 838.288 1029.78 820.365C902.458 802.522 878.399 690.058 838.274 715.247C798.148 740.437 903.427 962.54 903.427 962.54C903.427 962.54 1274.89 1049.98 1322.12 1038.83C1369.35 1027.69 1628.92 898.193 1674.77 882.612C1720.63 867.03 1885.01 736.723 1912.86 681.661C1940.72 626.6 1963.48 463.837 1946.93 428.637C1930.38 393.436 1800.32 332.4 1800.32 332.4H1800.56Z" fill="#16F9D0"/>
<path opacity="0.1" d="M1651.36 287.272C1637.55 511.717 1491.02 653.084 1414.89 703.302C1338.83 753.439 1547.13 715.816 1602.03 682.634C1656.93 649.451 1777.55 549.017 1781.99 522.051C1786.43 495.085 1777.07 431.385 1774.24 410.152C1771.49 388.918 1651.36 287.272 1651.36 287.272Z" fill="#00BF97"/>
<path opacity="0.1" d="M1288.94 746.652C1219.83 748.428 1164.53 919.506 1042.37 822.382C859.185 676.735 1064.98 486.361 981.176 501.539C897.373 516.717 745.106 549.415 772.96 700.875C800.814 852.334 988.765 1048.28 1037.53 1044C1086.29 1039.72 1245.18 959.389 1278.12 938.237C1311.06 917.084 1288.94 746.652 1288.94 746.652Z" fill="#00BF97"/>
<path opacity="0.39" d="M1505.96 175.124C1510.31 176.416 1512.82 170.199 1508.78 168.181C1436.04 130.962 1358.77 149.208 1308.96 172.54C1251.15 199.587 1193.11 299.537 1171.87 358.958C1150.64 418.46 1139.98 482.484 1101.79 517.038C1063.61 551.593 1105.99 544.569 1156.61 489.588C1207.23 434.688 1204.81 409.257 1243.65 341.035C1282.48 272.814 1278.12 230.993 1368.54 186.588C1422.96 159.865 1473.5 165.678 1505.96 175.205V175.124Z" fill="white"/>
</g>
<path opacity="0.1" d="M1123.03 598.584L1138.28 594.95C1138.28 594.95 1141.27 502.912 1226.53 403.608C1306.46 310.52 1368.62 370.829 1416.34 360.818C1423.12 359.365 1430.22 361.706 1435.39 366.389C1440.56 371.071 1443.71 377.772 1443.06 384.716C1438.46 433.157 1505.39 488.218 1421.99 578.077C1332.94 673.91 1241.87 687.312 1241.87 687.312L1240.01 702.894C1406.81 662.607 1488.35 561.607 1485.93 485.393C1483.43 409.744 1462.68 375.431 1501.51 312.377C1502.08 311.489 1501.92 310.358 1501.19 309.712L1484.48 294.776C1483.75 294.131 1482.62 294.131 1481.81 294.776C1423.52 340.392 1387.03 323.68 1311.62 329.735C1235.65 335.871 1144.5 428.313 1123.27 598.584H1123.03Z" fill="#00BF97"/>
<path d="M1117.3 593.501L1134.01 589.545C1134.01 589.545 1137.32 488.545 1230.81 379.552C1318.57 277.422 1386.79 343.544 1439.11 332.645C1446.61 331.111 1454.37 333.695 1460.02 338.781C1465.75 343.867 1469.14 351.295 1468.41 358.884C1463.41 412.008 1536.88 472.479 1445.24 571.137C1347.47 676.336 1247.52 691.029 1247.52 691.029L1245.5 708.145C1428.61 663.902 1518.07 553.053 1515.32 469.411C1512.58 386.415 1489.81 348.712 1532.36 279.521C1532.92 278.553 1532.76 277.342 1531.95 276.615L1513.63 260.226C1512.82 259.499 1511.53 259.499 1510.72 260.226C1446.7 310.282 1406.73 291.955 1323.98 298.575C1240.58 305.276 1140.55 406.76 1117.21 593.663L1117.3 593.501Z" fill="#31FFC6"/>
<mask id="mask3_4090_3419" style="mask-type:luminance" maskUnits="userSpaceOnUse" x="885" y="83" width="808" height="834">
<path d="M1105.11 908.123C1248.09 857.179 1169.78 762.881 1314.78 709.676C1459.78 656.471 1646.76 587.927 1687.45 396.907C1728.14 205.887 1509.83 33.6786 1374.52 97.2173C1275.7 143.64 1164.61 291.386 1123.27 433.157C1081.94 574.929 959.459 542.877 907.547 638.387C831.817 777.817 967.856 957.049 1105.11 908.123Z" fill="white"/>
</mask>
<g mask="url(#mask3_4090_3419)">
<path d="M1611.32 577.752C1742.19 343.054 1641.27 241.731 1568.04 181.987C1494.82 122.243 1398.82 85.5888 1281.76 166.163C1164.69 246.737 1374.04 -5.39993 1428.21 0.89743C1482.38 7.27552 1615.03 95.5193 1696.33 86.9613C1777.63 78.4034 1801.37 356.375 1793.46 375.752C1785.54 395.128 1701.26 527.615 1701.26 527.615L1611.24 577.752H1611.32Z" fill="#D7EEFF"/>
</g>
</svg>
