<svg width="1041" height="1039" viewBox="0 0 1041 1039" fill="none" xmlns="http://www.w3.org/2000/svg">
<path d="M513.771 98.9462C281.61 100.521 94.3661 269.545 95.522 476.438C96.9494 729.637 183.38 811.125 310.926 836.868C310.217 841.021 309.862 845.301 309.872 849.656C310.093 889.526 341.763 921.633 380.588 921.372C412.631 921.156 439.522 898.959 447.84 868.814C449.384 907.468 480.488 938.201 518.477 937.943C556.466 937.684 587.239 906.545 588.348 867.87C596.986 897.902 624.134 919.75 656.177 919.534C695.002 919.273 726.311 886.734 726.09 846.864C726.057 842.516 725.651 838.243 724.906 834.085C852.151 806.612 937.66 723.979 936.256 470.774C935.088 263.835 745.932 97.371 513.771 98.9462Z" fill="#D9D9D9"/>
<path d="M458.996 492.567C460.325 409.817 396.055 341.686 315.446 340.392C234.836 339.097 168.412 405.13 167.083 487.88C165.754 570.629 230.024 638.761 310.634 640.055C391.243 641.35 457.667 575.317 458.996 492.567Z" fill="#48444C"/>
<path d="M517.347 732.791C487.934 732.992 447.885 722.897 463.868 691.683C486.958 646.601 504.581 624.023 516.739 623.949C529.158 623.871 547.033 646.209 570.366 690.964C586.572 722.046 546.76 732.59 517.347 732.791Z" fill="#48444C"/>
<path d="M864.811 489.814C866.14 407.064 801.87 338.933 721.26 337.638C640.651 336.344 574.227 402.376 572.898 485.126C571.569 567.876 635.839 636.007 716.448 637.302C797.058 638.596 863.482 572.564 864.811 489.814Z" fill="#48444C"/>
</svg>
