<svg width="1364" height="975" viewBox="0 0 1364 975" fill="none" xmlns="http://www.w3.org/2000/svg">
<g clip-path="url(#clip0_4090_2927)">
<path d="M517.509 900.56L1324.87 633.34C1324.87 633.34 1297.15 542.48 1277.53 502.04C1257.91 461.601 510.607 618.682 510.607 618.682L517.509 900.503V900.56Z" fill="#57574D"/>
<path d="M614.645 794.868L620.805 750.493L556.752 747.014C516.883 744.219 478.098 784.487 467.717 841.639C456.652 902.726 482.318 959.934 524.982 969.402C526.693 969.801 528.404 969.972 530.116 970.144V970.429L602.325 974.25L596.507 936.606C608.713 920.578 618.01 899.76 622.288 875.975C627.649 846.316 624.341 817.683 614.645 794.868Z" fill="#665B3D"/>
<path d="M688.519 873.318C697.207 811.809 669.205 756.996 625.974 750.889C582.743 744.783 540.654 789.695 531.965 851.204C523.277 912.713 551.28 967.526 594.51 973.633C637.741 979.739 679.83 934.827 688.519 873.318Z" fill="#8A7C52"/>
<path d="M650.751 869.986C645.903 896.736 627.48 915.159 609.628 911.223C591.775 907.231 581.166 882.363 586.014 855.612C590.862 828.862 609.285 810.439 627.138 814.374C644.991 818.31 655.6 843.235 650.751 869.986Z" fill="#BFB69F"/>
<path d="M646.644 863.085C645.902 876.318 637.233 886.641 627.194 886.071C617.156 885.501 609.627 874.321 610.311 861.089C611.053 847.856 619.722 837.532 629.761 838.103C639.799 838.673 647.328 849.852 646.644 863.085Z" fill="#F2E7C9"/>
<path d="M1227.11 618.454L1233.27 574.079L1169.22 570.6C1129.35 567.862 1090.56 608.073 1080.18 665.224C1069.12 726.311 1094.78 783.52 1137.45 792.988C1139.16 793.387 1140.87 793.558 1142.58 793.729V794.014L1214.79 797.836L1208.97 760.191C1221.18 744.164 1230.47 723.345 1234.75 699.561C1240.11 669.901 1236.81 641.269 1227.11 618.454Z" fill="#665B3D"/>
<path d="M1300.94 696.901C1309.63 635.392 1281.62 580.579 1238.39 574.472C1195.16 568.366 1153.07 613.278 1144.38 674.787C1135.7 736.296 1163.7 791.109 1206.93 797.216C1250.16 803.322 1292.25 758.41 1300.94 696.901Z" fill="#8A7C52"/>
<path d="M1263.22 693.572C1258.37 720.322 1239.94 738.745 1222.09 734.809C1204.24 730.817 1193.63 705.949 1198.48 679.198C1203.33 652.448 1221.75 634.025 1239.6 637.96C1257.45 641.896 1268.06 666.821 1263.22 693.572Z" fill="#BFB69F"/>
<path d="M1259.16 686.671C1258.42 699.903 1249.75 710.227 1239.71 709.657C1229.67 709.086 1222.14 697.907 1222.83 684.675C1223.57 671.442 1232.24 661.118 1242.28 661.689C1252.32 662.259 1259.85 673.438 1259.16 686.671Z" fill="#F2E7C9"/>
<path d="M201.527 759.846L207.687 715.471L143.634 711.992C103.765 709.254 64.98 749.466 54.5992 806.617C43.534 867.704 69.2008 924.912 111.865 934.38C113.576 934.78 115.287 934.951 116.998 935.122V935.407L189.207 939.228L183.389 901.584C195.595 885.556 204.892 864.738 209.17 840.953C214.532 811.294 211.223 782.661 201.527 759.846Z" fill="#665B3D"/>
<path d="M275.401 838.294C284.089 776.785 256.087 721.972 212.856 715.866C169.625 709.759 127.536 754.672 118.848 816.181C110.159 877.69 138.162 932.503 181.393 938.61C224.624 944.716 266.713 899.803 275.401 838.294Z" fill="#8A7C52"/>
<path d="M237.633 834.964C232.785 861.715 214.362 880.138 196.509 876.202C178.656 872.266 168.047 847.341 172.896 820.591C177.744 793.84 196.167 775.417 214.019 779.353C231.872 783.345 242.481 808.214 237.633 834.964Z" fill="#BFB69F"/>
<path d="M233.581 828.062C232.839 841.295 224.169 851.619 214.131 851.048C204.092 850.478 196.563 839.299 197.248 826.066C197.989 812.834 206.659 802.51 216.697 803.08C226.736 803.651 234.265 814.83 233.581 828.062Z" fill="#F2E7C9"/>
<path d="M179.625 169.398C179.625 169.398 202.211 138.199 218.353 134.777C234.494 131.354 848.956 66.617 868.634 65.4763C888.312 64.3356 1254.38 61.997 1262.48 65.4763C1270.58 68.9556 1278.62 72.4348 1282.1 81.6749C1285.63 90.9149 583.334 291.914 508.273 276.856C433.212 261.856 179.625 169.455 179.625 169.455V169.398Z" fill="#FFAE2B"/>
<path d="M574.089 186.738C574.089 186.738 1278.61 76.9984 1282.09 81.6184C1285.57 86.2385 1356.98 311.992 1357.95 333.039C1358.92 354.028 503.249 569.059 503.249 569.059C503.249 569.059 524.41 302.238 574.089 186.738Z" fill="#F8FFB8"/>
<path d="M503.254 560.96L38.1724 531.7C38.1724 531.7 11.9923 711.881 21.2324 810.441C62.8125 822.761 489.394 870.501 489.394 870.501L503.254 560.96Z" fill="#FF952B"/>
<path d="M503.253 560.96L1357.96 333.039C1357.96 333.039 1371.82 591.76 1344.1 630.26C1339.48 639.5 1307.14 641.04 1307.14 641.04C1307.14 641.04 1299.44 560.96 1223.98 571.74C1223.98 571.74 1150.05 587.14 1151.59 701.1L697.293 824.301C697.293 824.301 701.913 718.839 601.072 748.042C527.95 771.941 537.19 870.501 537.19 870.501H489.45C489.45 870.501 478.67 636.42 503.31 560.96H503.253Z" fill="#FFAE2B"/>
<path d="M38.1675 531.698C38.1675 531.698 139.808 192.897 175.228 171.337C210.648 149.777 572.549 171.337 574.089 186.737C575.629 202.137 509.409 467.018 503.249 560.959L38.1675 531.698Z" fill="#F3FF94"/>
<path d="M47.4098 526.337L246.071 536.718L347.711 170.596C347.711 170.596 199.072 167.516 175.23 171.394C142.092 183.885 40.2231 524.968 40.2231 524.968L47.4098 526.337Z" fill="#28CBEB"/>
<path d="M355.81 169.4C355.81 169.4 264.893 499.76 261.243 536.72L503.252 552.918C503.252 552.918 499.601 512.479 563.141 189.078C533.139 182.119 355.81 169.457 355.81 169.457V169.4Z" fill="#28CBEB"/>
<path d="M490.362 857.209C490.362 857.209 12.7326 781.578 3.49257 804.678C-5.74746 827.778 8.39777 861.259 19.2348 870.499C30.0719 879.739 491.332 942.423 489.393 928.221C487.054 911.452 484.202 908.029 490.362 857.209Z" fill="#909184"/>
<path d="M487.053 929.647C487.053 929.647 541.751 931.301 556.752 909.741C571.753 888.181 561.771 860.86 552.931 856.24C544.09 851.62 490.361 857.21 490.361 857.21C490.361 857.21 481.235 888.751 487.053 929.647Z" fill="#AFB0A0"/>
<path d="M88.1925 734.98C111.157 734.98 129.773 712.227 129.773 684.16C129.773 656.093 111.157 633.34 88.1925 633.34C65.2284 633.34 46.6123 656.093 46.6123 684.16C46.6123 712.227 65.2284 734.98 88.1925 734.98Z" fill="#F8FFB8"/>
<path d="M370.582 762.699C393.546 762.699 412.162 739.946 412.162 711.879C412.162 683.812 393.546 661.059 370.582 661.059C347.618 661.059 329.002 683.812 329.002 711.879C329.002 739.946 347.618 762.699 370.582 762.699Z" fill="#F8FFB8"/>
<path d="M78.5519 643.72C78.5519 643.72 74.3882 690.661 105.188 722.26C90.1875 732.299 57.5052 726.424 52.8282 694.54C46.6681 652.561 78.5519 643.72 78.5519 643.72Z" fill="#ECFF42"/>
<path d="M92.4693 643.72C92.4693 643.72 130.969 644.86 122.129 693.399C109.01 701.498 87.5071 691.118 92.4693 643.72Z" fill="white"/>
<path d="M363.052 670.358C363.052 670.358 358.888 717.3 389.688 748.899C374.688 758.937 342.005 753.062 337.328 721.179C331.168 679.199 363.052 670.358 363.052 670.358Z" fill="#ECFF42"/>
<path d="M376.286 670.358C376.286 670.358 414.786 671.499 405.945 720.038C392.827 728.137 371.323 717.699 376.286 670.358Z" fill="white"/>
<path d="M141.519 578.3C141.519 578.3 213.728 591.589 220.629 608.929C227.531 626.268 222.968 700.302 236.2 696.481C249.49 692.659 240.82 609.499 268.541 606.59C296.261 603.681 377.311 592.73 375.485 580.581C373.66 568.432 136.271 556.512 131.879 557.481C113 561.702 127.373 574.25 141.519 578.243V578.3Z" fill="#ECFF42"/>
<path d="M580.993 192.5L527.892 543.279L763.512 473.18L748.512 169.4L580.993 192.5Z" fill="#2AD5F5"/>
<path d="M763.51 169.398L779.652 463.939L1346.77 325.281L1277.47 89.7173L763.51 169.398Z" fill="#2AD5F5"/>
<path d="M1357.96 606.588C1357.96 606.588 1312.16 610.638 1315.58 631.97C1319.06 653.359 1350.03 642.351 1357.96 637.731C1365.89 633.111 1366.23 610.011 1357.96 606.531V606.588Z" fill="#AFB0A0"/>
<path d="M697.292 824.3V854.416L1150.45 726.766L1151.59 701.1L697.292 824.3Z" fill="#F8FFB8"/>
</g>
<defs>
<clipPath id="clip0_4090_2927">
<rect width="1363.48" height="973.854" fill="white" transform="translate(0.524902 0.45459)"/>
</clipPath>
</defs>
</svg>
