<svg width="1501" height="1407" viewBox="0 0 1501 1407" fill="none" xmlns="http://www.w3.org/2000/svg">
<g clip-path="url(#clip0_4090_2541)">
<path d="M1478.72 732.525C1474.45 737.501 1468.76 742.715 1461.89 747.692C1385.58 805.045 1168.73 866.901 1168.73 866.901C1115.64 881.832 1069.43 915.485 1056.15 971.179C1051.65 989.428 1051.18 1008.62 1053.07 1027.11C1060.18 1096.08 1064.69 1162.91 1064.21 1232.35C1064.21 1236.38 1064.21 1240.41 1064.21 1244.44V1273.82C1064.21 1325.25 1062.32 1395.64 1004.73 1405.83C977.235 1410.81 950.928 1396.35 929.361 1381.42C927.702 1380.23 925.807 1378.81 923.911 1377.39C923.437 1377.39 923.2 1377.15 922.963 1376.68C862.529 1329.99 718.435 1157.7 718.435 1157.7C646.388 1061.71 566.521 1060.29 566.521 1060.29C512.249 1045.83 344.456 1132.1 344.456 1132.1C215.056 1200.83 101.535 1200.83 101.535 1200.83C79.4943 1200.83 47.0259 1199.41 24.9853 1186.37C13.6095 1179.74 5.07761 1170.26 2.23366 1156.04C1.28567 1151.3 0.81168 1146.79 1.04868 1142.05C1.52267 1105.79 29.4882 1070.95 47.2629 1042.28C66.9335 1009.81 88.9741 979 111.726 948.902C138.506 913.589 166.472 878.988 195.859 846.046C230.935 801.727 279.282 744.848 288.288 686.31C300.137 609.287 217.189 559.281 168.605 516.858C167.657 515.91 166.709 515.199 165.761 514.251C115.518 470.17 42.286 408.077 31.6211 336.742C28.5402 316.36 33.7541 300.718 43.7079 289.105C58.8757 271.331 85.6562 262.799 113.385 260.903C117.414 260.903 121.206 260.429 125.235 260.429C154.622 259.955 184.009 264.695 212.686 270.62C256.767 279.389 300.848 291.712 342.797 307.591C389.485 330.817 441.387 343.14 493.289 347.88C537.607 351.909 580.741 353.094 621.267 332.239C657.527 313.516 692.603 278.915 719.146 248.342C752.089 210.423 783.372 170.844 812.759 130.081C837.881 94.7688 875.8 30.5429 922.252 8.0283C932.205 3.52538 942.396 0.444437 952.824 0.207441C1007.81 -1.45153 1024.87 63.9593 1029.85 117.046C1030.32 120.601 1030.56 124.156 1030.8 127.711C1031.74 140.272 1031.98 151.648 1031.98 160.891C1031.98 183.168 1031.27 205.683 1028.43 227.723C1022.03 328.21 1050.7 422.534 1050.7 422.534C1103.55 545.535 1271.35 571.13 1271.35 571.13C1299.55 576.818 1330.83 585.113 1358.32 593.171C1373.97 597.674 1388.19 602.177 1400.27 605.969C1421.6 612.605 1435.82 617.582 1435.82 617.582C1551 670.195 1478.95 732.525 1478.95 732.525H1478.72Z" fill="#FCA22B"/>
<path d="M508.696 588.903C514.383 602.886 516.753 618.291 515.805 633.222C512.25 683.465 471.961 724.702 466.036 774.471C465.088 782.292 465.088 790.587 468.169 797.934C471.961 807.414 480.256 814.05 489.262 819.026C521.493 836.801 560.835 832.772 597.095 826.136C633.355 819.5 670.801 810.732 706.113 820.685C754.697 833.957 787.64 878.512 831.01 904.108C841.912 910.507 854.235 915.958 866.559 914.299C883.623 911.929 896.421 896.998 903.294 880.882C913.484 856.709 913.484 829.691 917.039 803.622C920.594 777.552 928.889 750.061 950.219 734.656C971.548 719.251 1002.83 718.066 1017.76 696.5C1028.9 680.147 1025.58 657.158 1014.68 640.569C1003.78 623.979 986.479 612.84 969.178 603.36C951.878 593.643 933.629 585.112 919.172 571.603C902.109 555.961 890.733 533.92 887.652 510.932C883.86 482.492 891.681 450.261 874.854 427.035C862.767 410.209 840.49 403.099 819.871 405.232C799.252 407.365 780.293 416.845 762.755 427.746C717.015 456.66 674.83 497.66 621.032 502.637C598.043 504.77 575.054 499.793 551.829 499.319C530.973 498.845 508.696 500.03 496.372 519.701C479.782 545.77 499.453 564.73 509.406 589.14L508.696 588.903Z" fill="#FFEBC2" fill-opacity="0.5"/>
<path d="M0.81543 1142.05C1.28942 1105.79 29.2549 1070.95 47.0296 1042.27C66.7003 1009.81 88.7409 978.997 111.492 948.898C138.273 913.586 166.239 878.985 195.626 846.042C230.701 801.724 279.049 744.845 288.054 686.307C299.904 609.283 216.956 559.277 168.371 516.855C167.424 515.907 166.476 515.196 165.528 514.248C115.284 470.167 42.0527 408.074 31.3879 336.738C28.3069 316.357 33.5209 300.715 43.4747 289.102C45.8446 301.9 47.2666 318.253 51.0585 324.651C115.758 436.039 269.332 469.219 338.772 577.763C382.853 646.729 382.142 720.197 356.072 788.215C321.708 877.563 243.499 957.193 165.291 1003.41C116.232 1032.32 44.8967 1067.16 13.3762 1115.98C7.9253 1124.28 1.28942 1132.1 1.05243 1141.81L0.81543 1142.05Z" fill="#FFEBC2"/>
<path d="M329.768 746.507C307.49 801.727 268.386 848.178 234.258 896.999C228.096 905.768 221.935 915.485 221.935 926.15C221.935 936.814 231.177 948.19 241.605 946.294C245.871 945.583 249.426 942.739 252.744 940.132C300.143 902.924 340.432 855.762 366.265 801.016C392.098 746.27 402.762 684.177 392.572 624.454C388.78 602.65 380.959 577.766 361.999 564.731C341.143 550.274 315.785 557.621 324.791 584.402C333.56 610.708 344.935 631.327 345.883 660.003C346.831 689.391 340.669 719.252 329.768 746.507Z" fill="#FCA22B"/>
<path d="M922.722 1376.68C862.288 1329.99 718.195 1157.7 718.195 1157.7C646.148 1061.71 566.281 1060.29 566.281 1060.29C512.009 1045.83 344.215 1132.1 344.215 1132.1C214.816 1200.83 101.295 1200.83 101.295 1200.83C79.2541 1200.83 46.7857 1199.41 24.7451 1186.37C49.6297 1184 81.6241 1192.53 104.376 1189.45C141.584 1184.48 177.844 1171.44 209.365 1151.06C238.989 1132.1 264.348 1106.98 291.602 1084.23C358.909 1028.06 440.199 985.399 527.65 977.341C614.865 969.284 708.241 999.619 763.461 1067.64C826.028 1144.19 832.427 1253.44 887.884 1335.44C898.075 1350.37 909.688 1364.12 922.722 1376.68Z" fill="#FFEBC2"/>
<path d="M365.074 1077.11C376.686 1079.96 389.01 1076.64 400.149 1072.61C450.866 1054.83 499.213 1027.11 552.774 1021.66C626.954 1014.31 703.504 1055.31 738.579 1120.96C743.319 1129.96 747.822 1139.68 755.88 1146.08C784.556 1168.36 791.903 1130.2 787.874 1111C783.608 1090.62 774.603 1070 764.412 1051.99C747.348 1022.13 726.492 993.69 698.053 974.493C667.006 953.875 628.85 946.054 591.642 942.973C515.803 936.574 435.224 949.135 375.028 995.823C354.883 1011.46 320.044 1065.74 365.074 1077.11Z" fill="#FDCC59"/>
<path d="M922.026 8.02856C870.361 50.6878 849.268 119.18 830.071 180.562C809.69 247.157 774.14 303.325 720.105 348.829C661.804 398.361 582.174 425.852 507.52 409.5C456.092 398.361 411.063 368.262 365.323 342.43C330.484 322.996 294.224 305.695 257.252 290.765C211.749 272.753 169.801 263.984 125.009 260.429C154.396 259.955 183.784 264.695 212.46 270.62C256.541 279.389 300.623 291.713 342.571 307.591C389.259 330.817 441.161 343.141 493.063 347.881C537.382 351.91 580.515 353.095 621.041 332.239C657.301 313.516 692.377 278.915 718.92 248.342C751.863 210.423 783.146 170.845 812.534 130.081C837.655 94.769 875.575 30.5432 922.026 8.02856Z" fill="#FFEBC2"/>
<path d="M411.534 400.491C415.563 410.681 425.042 417.317 434.522 422.768C507.991 464.005 601.367 455.237 677.917 420.161C701.143 409.496 723.657 396.462 741.195 377.976C753.045 365.652 779.825 330.577 766.554 313.039C756.363 299.53 735.507 309.01 724.605 315.646C710.86 324.178 699.958 336.502 687.16 346.456C657.061 370.155 618.668 380.346 581.223 387.693C560.367 391.722 539.038 395.277 517.945 392.907C501.829 391.011 392.574 352.38 411.297 400.254L411.534 400.491Z" fill="#FCA22B"/>
<path d="M1358.09 593.168C1330.83 590.561 1303.34 589.85 1276.32 589.376C1197.4 587.48 1112.32 582.74 1050.94 533.208C1004.25 495.762 978.419 436.513 973.442 377.027C968.229 317.541 981.974 257.582 1003.78 202.124C1009.7 186.72 1018.71 145.719 1029.61 117.043C1030.08 120.598 1030.32 124.153 1030.56 127.708C1031.51 140.269 1031.74 151.644 1031.74 160.887C1031.74 183.165 1031.03 205.679 1028.19 227.72C1021.79 328.206 1050.47 422.531 1050.47 422.531C1103.32 545.531 1271.11 571.127 1271.11 571.127C1299.31 576.815 1330.6 585.11 1358.09 593.168Z" fill="#FFEBC2"/>
<path d="M983.396 519.228C1015.39 567.575 1064.45 602.887 1117.3 626.35C1152.37 641.992 1190.53 652.656 1228.92 651.234C1238.88 650.76 1250.02 648.864 1255.7 640.57C1261.16 632.749 1259.02 621.373 1253.33 613.789C1247.65 606.205 1239.11 601.228 1230.58 596.488C1160.43 559.043 1079.38 534.395 1028.66 473.25C1008.28 448.603 1005.91 418.504 999.038 388.406C995.009 370.631 986.003 342.903 962.304 352.857C946.188 359.73 947.373 389.117 947.373 403.337C947.373 444.337 960.882 484.863 983.396 518.991V519.228Z" fill="#FDCC59"/>
<path d="M1063.04 1256.52C1063.04 1252.97 1063.75 1249.41 1063.98 1246.09V1273.82C1062.8 1267.9 1062.56 1261.97 1063.04 1256.52Z" fill="#FFEBC2"/>
<path d="M1461.9 747.691C1385.58 805.044 1168.73 866.9 1168.73 866.9C1115.65 881.831 1069.43 915.484 1056.16 971.179C1051.66 989.427 1051.18 1008.62 1053.08 1027.11C1060.19 1096.08 1064.69 1162.91 1064.22 1232.35C1063.51 1192.53 1051.42 1153.19 1037.91 1115.51C1022.03 1070.01 1004.02 1024.03 1002.12 975.918C1000.23 927.808 1017.53 875.669 1058.29 849.837C1100.71 822.819 1154.99 830.64 1205.23 828.27C1264.72 825.426 1321.83 806.94 1376.34 783.952C1402.65 772.813 1437.01 748.639 1461.9 747.691Z" fill="#FFEBC2"/>
<path d="M958.281 1002.23C956.148 988.479 955.911 975.445 956.622 966.913C960.888 921.884 979.848 878.987 1014.21 851.259C1086.02 793.669 1153.33 760.726 1244.1 746.033C1252.39 744.611 1260.92 743.9 1268.75 746.27C1276.57 748.877 1283.68 755.749 1283.91 764.044C1283.91 774.946 1273.49 782.53 1264.01 787.981C1210.68 818.316 1150.96 843.912 1096.69 871.166C1075.59 881.831 1055.21 894.392 1040.28 912.878C1020.61 937.288 1012.55 970.468 1018.71 1001.04C1022.51 1019.29 1036.49 1064.32 1003.31 1065.5C975.582 1066.45 962.547 1032.09 958.044 1001.51L958.281 1002.23Z" fill="#FDCC59"/>
<path d="M861.584 284.129C865.139 279.152 869.405 274.412 870.59 268.487C871.538 263.984 870.59 259.244 870.116 254.741C867.746 238.863 868.931 221.325 878.174 208.29C882.914 201.654 889.787 196.44 893.579 189.331C896.897 183.406 897.845 176.77 899.03 170.134C901.874 153.544 904.718 136.481 912.065 121.313C921.781 101.879 953.302 81.7345 945.007 118.232C939.556 142.168 929.602 165.157 920.359 187.909C917.989 193.834 915.62 199.995 916.568 206.157C917.278 210.66 919.886 214.926 921.07 219.429C926.284 236.73 912.302 253.793 898.556 265.406C895.475 268.013 892.394 270.857 891.683 274.649C891.209 277.967 892.631 281.048 893.816 284.129C902.111 304.748 895.238 354.043 867.035 359.02C829.827 365.419 851.394 297.401 861.348 284.129H861.584Z" fill="#FFEBC2"/>
<path d="M866.088 1060.53C871.302 1076.88 886.233 1088.02 900.452 1097.5C891.684 1112.67 887.181 1131.39 892.158 1148.22C897.135 1165.04 913.724 1178.79 931.262 1177.37C925.574 1192.77 927.944 1210.31 934.106 1225.48C940.268 1240.64 949.985 1254.15 959.701 1267.42C961.834 1270.27 964.441 1273.35 967.996 1273.35C971.314 1273.35 973.684 1270.51 975.343 1267.66C988.141 1247.28 983.401 1217.42 964.678 1202.25C961.597 1199.64 957.805 1197.27 955.909 1193.72C952.355 1187.08 955.909 1179.03 957.568 1171.68C963.73 1145.13 940.742 1115.98 913.724 1115.75C916.094 1099.87 918.227 1083.52 915.146 1067.64C912.776 1055.31 899.504 1025.45 883.389 1025.69C867.51 1025.69 862.059 1048.68 865.851 1061L866.088 1060.53Z" fill="#FFEBC2"/>
<path d="M1364.72 691.288C1364.01 682.993 1354.77 675.173 1336.76 673.277C1314.95 670.907 1279.88 673.277 1261.16 685.6C1259.02 687.022 1256.89 688.444 1254.52 688.681C1250.73 689.155 1247.17 686.548 1243.86 684.178C1216.36 665.456 1174.89 671.381 1154.03 697.45C1143.37 688.444 1129.62 682.282 1115.64 682.993C1101.66 683.467 1087.68 691.525 1081.99 704.086C1076.77 716.173 1086.96 726.364 1099.29 730.63C1111.61 734.896 1125.36 730.63 1136.73 724.231C1140.29 722.335 1143.61 720.202 1147.4 719.254C1154.03 717.595 1160.91 719.965 1167.78 721.624C1194.8 728.26 1224.66 722.572 1247.41 706.456C1273.95 716.884 1303.58 715.225 1332.02 713.329C1354.3 711.907 1365.67 701.242 1364.72 691.051V691.288Z" fill="#FFEBC2"/>
<path d="M194.914 1050.57C194.914 1021.18 218.851 993.693 247.764 990.139C252.03 989.665 256.296 989.428 259.851 987.058C262.458 985.399 264.354 982.555 266.013 979.711C281.655 954.826 299.904 925.913 329.054 923.069C331.661 922.832 334.268 922.832 336.638 924.017C340.193 925.676 342.089 929.468 343.037 933.023C347.54 948.901 339.245 966.202 326.684 976.867C314.123 987.532 298.008 992.982 282.366 998.196C279.996 1033.03 249.66 1064.08 214.585 1066.69C205.816 1080.2 193.255 1091.34 178.799 1098.45C161.735 1106.74 131.4 1103.66 139.22 1078.54C145.382 1058.87 176.666 1048.44 194.44 1050.57H194.914Z" fill="#FFEBC2"/>
<path d="M196.099 367.787C198.469 368.735 200.602 369.683 202.261 371.578C204.631 374.422 204.394 378.688 204.631 382.243C205.342 394.567 213.163 405.943 223.354 413.053C233.545 420.163 246.106 423.481 258.429 424.666C260.799 424.903 263.406 425.14 265.539 426.325C268.383 427.983 270.042 431.064 271.701 433.908C285.447 456.897 310.805 472.539 337.586 474.435C340.667 474.435 343.748 474.435 346.355 473.487C348.488 472.539 350.147 470.643 351.332 468.747C359.153 457.371 353.702 440.544 342.8 432.012C332.135 423.244 317.678 420.874 303.933 419.689C300.852 419.452 297.297 418.978 294.927 417.082C292.557 415.186 291.609 411.868 290.424 409.024C281.655 386.272 258.192 369.92 233.545 369.92C229.99 369.92 225.961 369.92 223.354 367.55C221.695 365.891 220.984 363.284 220.273 360.914C215.296 343.376 191.834 320.15 172.163 331.763C144.908 348.116 181.643 362.336 195.862 368.024L196.099 367.787Z" fill="#FFEBC2"/>
<path d="M747.593 696.028C745.697 696.028 743.564 696.028 741.431 696.028C723.657 694.843 708.015 689.393 696.165 680.15C681.945 669.248 673.65 652.895 673.65 636.542C673.65 627.063 676.494 617.346 681.945 607.392C690.714 591.513 704.223 579.426 719.865 573.265C740.957 564.97 761.339 566.866 777.218 578.478C795.466 591.987 804.946 615.924 803.05 642.941C801.391 665.219 787.882 685.127 769.397 692.237C762.998 694.843 755.888 696.028 747.593 696.028ZM745.46 579.9C738.824 579.9 731.714 581.322 724.605 584.166C711.57 589.38 700.194 599.571 692.61 613.08C688.107 621.138 685.737 628.959 685.737 636.542C685.737 648.866 692.61 661.901 703.512 670.67C716.31 680.624 731.714 683.468 742.379 684.179C751.385 684.653 758.969 683.942 765.131 681.335C779.351 675.647 790.015 660.005 791.437 642.23C793.096 619.716 785.038 598.86 770.345 588.195C762.998 582.744 754.466 580.137 745.46 580.137V579.9Z" fill="#FFEBC2"/>
<path d="M548.751 540.553C543.3 544.108 540.456 551.455 545.196 557.617C549.225 562.831 557.283 563.542 562.971 560.224C571.266 555.247 568.185 543.16 560.364 539.368C556.335 537.472 552.069 538.183 548.751 540.553Z" fill="#FFEBC2"/>
<path d="M635.964 578.004C631.935 560.94 598.993 567.339 605.629 586.062C607.525 591.749 613.45 595.541 619.375 595.778C625.3 595.778 631.225 592.223 634.305 587.247C635.964 584.403 636.912 581.085 635.964 578.004Z" fill="#FFEBC2"/>
<path d="M790.48 546.479C794.509 537.71 787.162 527.283 777.445 527.52C764.41 527.757 760.855 546.479 772.231 552.641C778.63 556.196 787.636 553.115 790.717 546.479H790.48Z" fill="#FFEBC2"/>
<path d="M812.522 502.634C822.238 496.709 815.129 484.622 805.412 483.911C794.036 483.2 785.978 499.553 799.724 503.582C803.99 504.767 808.73 504.767 812.522 502.397V502.634Z" fill="#FFEBC2"/>
<path d="M842.624 444.575C839.78 433.91 822.717 435.806 821.295 445.997C820.347 452.396 826.272 458.558 832.67 458.321C839.069 457.847 844.046 450.974 842.624 444.812V444.575Z" fill="#FFEBC2"/>
<path d="M667.954 682.755C668.902 657.87 631.694 661.899 632.168 684.177C632.168 687.495 634.064 690.576 636.434 692.946C644.017 700.293 657.763 699.582 664.636 691.287C666.532 688.917 667.954 685.836 668.191 682.518L667.954 682.755Z" fill="#FFEBC2"/>
<path d="M601.836 724.229C600.888 712.379 585.009 706.691 576.003 714.986C561.309 728.258 585.246 748.402 598.281 734.182C600.651 731.575 602.31 727.784 602.073 724.229H601.836Z" fill="#FFEBC2"/>
<path d="M523.626 782.291C542.349 772.1 517.464 745.793 506.562 765.227C499.69 777.314 512.25 788.452 523.626 782.291Z" fill="#FFEBC2"/>
<path d="M815.368 735.841C822.004 727.546 815.842 710.008 797.593 712.378C787.402 713.8 781.241 720.199 786.691 730.39C789.061 734.656 793.564 737.026 798.067 738.448C806.599 741.292 812.287 739.396 815.131 735.841H815.368Z" fill="#FFEBC2"/>
<path d="M846.659 787.742C853.532 764.516 810.636 763.805 818.22 787.742C820.116 793.667 826.041 798.17 832.44 798.407C838.839 798.644 844.763 794.141 846.659 787.979V787.742Z" fill="#FFEBC2"/>
<path d="M863.247 864.532C870.357 851.26 858.744 844.15 846.895 850.786C828.646 861.214 853.53 882.544 863.247 864.532Z" fill="#FFEBC2"/>
<path d="M850.208 639.386C838.596 624.692 810.867 644.125 826.983 655.027C829.59 656.923 832.908 657.16 836.226 657.16C840.965 657.16 845.705 655.501 849.023 652.183C852.341 648.865 853.289 642.94 850.208 639.386Z" fill="#FFEBC2"/>
<path d="M893.583 640.806C899.982 637.725 907.092 639.147 906.855 651.234C906.144 675.644 867.276 653.13 893.583 640.806Z" fill="#FFEBC2"/>
<path d="M986.008 665.691C986.482 653.13 972.736 651.945 966.811 662.136C958.753 676.356 985.297 684.177 986.008 665.691Z" fill="#FFEBC2"/>
<path opacity="0.44" d="M701.614 621.61C694.267 645.31 716.544 669.483 738.822 673.749C790.724 683.703 799.256 603.124 747.828 596.488C728.394 593.882 707.775 601.465 701.614 621.61Z" fill="#FFFDFE"/>
</g>
<defs>
<clipPath id="clip0_4090_2541">
<rect width="1500.18" height="1406.57" fill="white" transform="translate(0.816406 0.205566)"/>
</clipPath>
</defs>
</svg>
