<svg width="1031" height="859" viewBox="0 0 1031 859" fill="none" xmlns="http://www.w3.org/2000/svg">
<path d="M1021.09 114.157C1021.09 114.157 1015.41 133.683 1005.94 165.978C996.533 198.086 983.467 242.893 968.503 293.654C961.905 316.015 954.971 339.447 947.893 363.598C943.166 379.545 938.363 395.775 933.535 412.098C928.328 429.835 923.002 447.64 917.701 465.352C912.308 483.594 906.932 501.587 901.665 519.358C900.123 524.548 898.581 529.739 896.954 535.057C889.126 561.632 880.936 589.372 872.147 616.901C835.134 733.181 787.588 844.874 706.497 842.883C573.764 839.573 80.6346 913.598 47.3298 579.536C45.6912 563.044 44.1307 546.826 42.7082 530.847C38.9345 490.108 35.8436 450.966 33.1462 413.747C32.7287 408.335 32.4398 403.007 31.997 397.689C30.5454 377.109 29.3192 357.194 28.2586 337.98C27.0761 318.279 26.1189 299.244 25.2332 280.885C23.7715 250.357 22.6276 222.034 21.8014 195.917C20.544 157.468 19.9337 124.14 19.5551 96.7288C18.9695 40.1359 19.6922 8.42657 19.6922 8.42657L1021.09 114.157Z" fill="#F1B57E"/>
<path d="M23.1473 348.13L928.458 422.308C923.251 440.044 917.925 457.85 912.624 475.561L26.8857 407.839C25.4341 387.258 24.2079 367.344 23.1473 348.13Z" fill="#0BD0C6"/>
<path d="M968.537 293.714C961.939 316.075 955.004 339.507 947.927 363.658C713.329 343.201 287.751 305.846 25.2922 280.85C23.8305 250.323 22.6866 222 21.8604 195.883L968.562 293.62L968.537 293.714Z" fill="#0BD0C6"/>
<path d="M1021.09 114.156C1021.09 114.156 1015.41 133.682 1005.95 165.978L19.6168 96.6937C18.9715 40.1353 19.6941 8.42591 19.6941 8.42591L1021.09 114.156Z" fill="#EF5799"/>
<path d="M595.96 417.253C535.227 452.317 452.968 451.477 388.53 409.375C296.179 348.991 272.526 217.414 280.368 123.15C280.92 116.382 286.919 111.326 293.687 111.878C300.455 112.429 305.51 118.428 304.959 125.196C297.668 212.692 318.745 334.291 402.089 388.728C475.98 436.997 576.214 423.875 625.544 359.405C665.221 307.593 693.112 221.024 700.215 162.301C701.015 155.549 707.151 150.732 713.963 151.497C720.715 152.297 725.532 158.434 724.767 165.245C717.337 227.262 687.596 319.04 645.197 374.413C631.676 392.093 614.925 406.383 596.054 417.278L595.96 417.253Z" fill="#FFF2E6"/>
<path d="M330.653 113.706C328.725 134.088 313.945 149.31 297.696 147.783C281.446 146.256 269.752 128.484 271.715 108.161C273.642 87.7794 288.423 72.5576 304.672 74.0847C320.921 75.6118 332.615 93.3842 330.653 113.706Z" fill="#FFF2E6"/>
<path d="M744.066 148.611C742.138 168.993 727.358 184.215 711.109 182.687C694.8 181.195 683.166 163.388 685.094 143.006C687.021 122.624 701.802 107.402 718.051 108.929C734.3 110.456 745.994 128.229 744.032 148.551L744.066 148.611Z" fill="#FFF2E6"/>
<path opacity="0.3" d="M345.788 788.69C302.05 784.253 268.26 764.895 270.21 745.489C272.161 726.083 309.218 713.893 353.004 718.379C396.741 722.816 430.531 742.173 428.581 761.579C426.631 780.986 389.573 793.176 345.788 788.69Z" fill="white"/>
<path d="M123.648 230.313L139.81 255.2L168.473 247.52L149.798 270.581L165.96 295.468L138.257 284.833L119.582 307.895L121.135 278.261L93.4316 267.627L122.095 259.946L123.648 230.313Z" fill="#7D7BF9"/>
<path d="M785.877 137.439L799.814 168.12L830.702 154.645L805.829 177.382L828.189 202.594L798.879 185.964L781.811 215.021L788.569 182.007L755.661 174.753L789.147 170.979L785.877 137.439Z" fill="#F9F9F9"/>
<path d="M684.069 647.963L698.006 678.645L728.894 665.17L704.021 687.906L726.381 713.118L697.071 696.489L680.003 725.545L686.761 692.531L653.852 685.277L687.339 681.503L684.069 647.963Z" fill="#F9F9F9"/>
<path d="M292.208 617.049L306.146 647.731L337.033 634.256L312.16 656.992L334.521 682.204L305.211 665.575L288.142 694.631L294.901 661.617L261.992 654.363L295.479 650.589L292.208 617.049Z" fill="#F9F9F9"/>
</svg>
