<svg width="944" height="1333" viewBox="0 0 944 1333" fill="none" xmlns="http://www.w3.org/2000/svg">
<g clip-path="url(#clip0_4090_3234)">
<path d="M888.941 576.676L887.199 588.918V589.018L791.995 1257.44C791.995 1298.74 685.743 1332.24 554.607 1332.24C423.471 1332.24 317.269 1298.74 317.269 1257.44L222.015 589.018V588.918L220.273 576.676H888.941Z" fill="#0083C5"/>
<g style="mix-blend-mode:multiply" opacity="0.5">
<path d="M688.575 1068.47C676.93 1179.25 604.867 1274.8 501.054 1315.32C490.503 1319.45 479.355 1323.38 467.81 1327.06C494.684 1330.39 523.947 1332.24 554.603 1332.24C685.739 1332.24 791.991 1298.74 791.991 1257.44L887.195 589.018V588.918L888.937 576.676H740.383L688.575 1068.47Z" fill="#0083C5"/>
</g>
<path d="M554.607 1294.61C435.515 1294.61 366.638 1266.55 354.693 1253.36L263.62 614.302H845.594L754.57 1253.36C742.626 1266.55 673.699 1294.61 554.607 1294.61Z" fill="#B3F3FF"/>
<g style="mix-blend-mode:multiply" opacity="0.5">
<path d="M845.589 614.302H736.4L688.574 1068.47C678.571 1163.33 624.276 1247.04 543.703 1294.56C547.286 1294.61 550.919 1294.66 554.602 1294.66C673.744 1294.66 742.671 1266.6 754.565 1253.41L845.589 614.352V614.302Z" fill="#B3F3FF"/>
</g>
<path d="M827.676 740.36L754.618 1253.41C742.674 1266.59 673.747 1294.66 554.605 1294.66C435.464 1294.66 366.636 1266.59 354.692 1253.41L291.239 808.391C348.421 746.979 430.885 704.826 554.605 704.826C750.637 704.826 827.676 740.36 827.676 740.36Z" fill="#E49A10"/>
<g style="mix-blend-mode:multiply" opacity="0.5">
<path d="M827.328 740.21C827.328 740.21 827.178 740.16 827.079 740.111C826.88 740.011 826.631 739.912 826.332 739.812C826.183 739.762 826.034 739.712 825.884 739.613C825.486 739.464 824.989 739.265 824.441 739.066C824.292 739.016 824.192 738.966 824.093 738.916C823.396 738.618 822.55 738.319 821.605 737.971C821.455 737.921 821.306 737.871 821.157 737.821C820.36 737.523 819.465 737.224 818.469 736.876C818.171 736.776 817.872 736.677 817.573 736.577C816.628 736.229 815.583 735.88 814.488 735.532C814.189 735.432 813.891 735.333 813.542 735.233C810.556 734.238 807.122 733.193 803.141 731.999C803.141 731.999 803.091 731.999 803.042 731.999C801.15 731.451 799.06 730.854 796.92 730.306C796.572 730.207 796.223 730.107 795.875 730.008C793.884 729.46 791.844 728.913 789.654 728.366C789.306 728.266 788.958 728.167 788.609 728.117C780.945 726.176 772.087 724.185 761.934 722.194C761.486 722.095 761.038 722.045 760.64 721.946C757.654 721.349 754.519 720.751 751.284 720.204C750.836 720.104 750.338 720.055 749.891 719.955C742.426 718.611 734.363 717.317 725.704 716.023C723.116 740.658 702.761 759.47 678.027 760.415C649.411 761.56 619.053 761.013 589.293 757.529C474.531 744.092 358.126 762.854 291.239 808.49L354.692 1253.51C366.636 1266.69 435.513 1294.76 554.605 1294.76C673.697 1294.76 742.625 1266.69 754.618 1253.51L827.676 740.459C827.676 740.459 827.527 740.359 827.378 740.31L827.328 740.21Z" fill="#E49A10"/>
</g>
<path d="M827.676 740.362L754.618 1253.41C742.674 1266.6 673.747 1294.67 554.605 1294.67C435.464 1294.67 366.636 1266.6 354.692 1253.41L291.239 808.045C314.281 798.191 338.568 790.975 363.003 786.048C428.795 772.86 496.577 774.751 563.613 776.543C630.749 778.334 698.531 779.877 764.223 765.843C784.628 761.463 804.982 755.541 822.451 744.045C824.192 742.9 825.934 741.656 827.626 740.362H827.676Z" fill="#FDAB12"/>
<path d="M554.655 696.266C739.302 696.266 888.989 642.747 888.989 576.726C888.989 510.706 739.302 457.187 554.655 457.187C370.008 457.187 220.321 510.706 220.321 576.726C220.321 642.747 370.008 696.266 554.655 696.266Z" fill="#0083C5"/>
<g style="mix-blend-mode:multiply" opacity="0.5">
<path d="M554.657 457.187C536.044 457.187 517.829 457.734 500.013 458.779C658.669 468.085 779.702 517.355 779.702 576.726C779.702 636.098 658.669 685.318 500.013 694.674C517.779 695.719 536.044 696.266 554.657 696.266C739.292 696.266 888.99 642.767 888.99 576.726C888.99 510.686 739.292 457.187 554.657 457.187Z" fill="#0083C5"/>
</g>
<path d="M554.657 662.576C705.222 662.576 827.28 624.141 827.28 576.729C827.28 529.316 705.222 490.881 554.657 490.881C404.092 490.881 282.034 529.316 282.034 576.729C282.034 624.141 404.092 662.576 554.657 662.576Z" fill="#B3F3FF"/>
<g style="mix-blend-mode:multiply" opacity="0.5">
<path d="M498.819 654.016C480.007 649.886 467.366 632.219 469.456 613.009C474.184 569.811 469.655 529.251 462.389 495.907C357.232 507.802 282.034 539.503 282.034 576.679C282.034 623.31 400.031 661.183 547.142 662.477C528.231 659.939 511.857 656.853 498.868 653.967L498.819 654.016Z" fill="#B3F3FF"/>
</g>
<g style="mix-blend-mode:multiply" opacity="0.5">
<path d="M719.682 508.396C757.504 527.756 779.75 551.295 779.75 576.726C779.75 602.157 757.504 625.697 719.731 645.056C785.125 629.38 827.327 604.596 827.327 576.726C827.327 548.857 785.125 524.073 719.731 508.396H719.682Z" fill="#B3F3FF"/>
</g>
<path d="M735.41 877.965C735.41 886.127 728.791 892.746 720.629 892.746C712.468 892.746 705.849 886.127 705.849 877.965C705.849 869.804 712.468 863.185 720.629 863.185C728.791 863.185 735.41 869.804 735.41 877.965Z" fill="#E49A10"/>
<path d="M757.407 795.155C757.407 803.317 750.788 809.936 742.626 809.936C734.465 809.936 727.846 803.317 727.846 795.155C727.846 786.993 734.465 780.374 742.626 780.374C750.788 780.374 757.407 786.993 757.407 795.155Z" fill="#E49A10"/>
<path d="M701.269 815.756C701.269 821.28 696.79 825.759 691.266 825.759C685.742 825.759 681.263 821.28 681.263 815.756C681.263 810.232 685.742 805.753 691.266 805.753C696.79 805.753 701.269 810.232 701.269 815.756Z" fill="#E49A10"/>
<path d="M326.327 817.35C325.431 809.238 331.303 801.923 339.415 801.027C347.527 800.131 354.843 806.003 355.739 814.115C356.635 822.227 350.762 829.543 342.65 830.439C334.538 831.335 327.222 825.462 326.327 817.35Z" fill="#E49A10"/>
<path d="M370.517 917.484C369.92 912.009 373.901 907.032 379.376 906.435C384.85 905.838 389.827 909.819 390.424 915.294C391.021 920.768 387.04 925.745 381.566 926.342C376.091 926.939 371.115 922.958 370.517 917.484Z" fill="#E49A10"/>
<path d="M399.035 845.418C398.438 839.944 402.419 834.967 407.893 834.37C413.368 833.773 418.344 837.754 418.942 843.228C419.539 848.703 415.557 853.679 410.083 854.277C404.609 854.874 399.632 850.892 399.035 845.418Z" fill="#E49A10"/>
<path d="M617.661 1125.51L518.027 1043.29L579.987 934.949L679.62 1017.16L617.661 1125.51Z" fill="#B3F3FF"/>
<path d="M617.658 1125.5L707.537 1115L769.497 1006.61L679.618 1017.11L617.658 1125.5Z" fill="#A1DCE6"/>
<path d="M579.987 934.947L669.866 924.446L769.499 1006.61L679.621 1017.11L579.987 934.947Z" fill="#AAE7F2"/>
<g style="mix-blend-mode:multiply" opacity="0.5">
<path d="M630.05 1103.85L617.658 1125.5L668.371 1119.58L630.05 1103.85Z" fill="#A1DCE6"/>
</g>
<g style="mix-blend-mode:multiply" opacity="0.5">
<path d="M630.053 1103.85L581.978 1017.51L532.957 1017.21L518.027 1043.29L617.661 1125.5L630.053 1103.85Z" fill="#B3F3FF"/>
</g>
<path d="M551.867 1231.26L422.622 1252.01L381.664 1132.33L510.909 1111.57L551.867 1231.26Z" fill="#B3F3FF"/>
<path d="M551.865 1231.26L604.071 1155.86L563.113 1036.12L510.907 1111.57L551.865 1231.26Z" fill="#A1DCE6"/>
<path d="M381.664 1132.32L433.869 1056.88L563.114 1036.12L510.909 1111.57L381.664 1132.32Z" fill="#AAE7F2"/>
<g style="mix-blend-mode:multiply" opacity="0.5">
<path d="M551.865 1231.26L535.044 1182.04C510.36 1207.67 480.45 1231.96 445.563 1248.33L551.915 1231.26H551.865Z" fill="#B3F3FF"/>
</g>
<g style="mix-blend-mode:multiply" opacity="0.5">
<path d="M573.019 1200.75L604.074 1155.86L589.442 1113.07C575.955 1133.82 557.741 1158.5 535.047 1182.04L551.868 1231.26L573.019 1200.7V1200.75Z" fill="#A1DCE6"/>
</g>
<path d="M554.604 696.265C579.637 696.265 604.023 695.27 627.513 693.429L424.962 1126.7L355.338 1092.56L549.478 696.216C551.121 696.315 552.862 696.315 554.604 696.315V696.265Z" fill="#1FCAEB"/>
<g style="mix-blend-mode:multiply" opacity="0.5">
<path d="M601.882 695.023L583.866 731.253C570.18 758.774 541.913 775.745 511.207 775.397H510.709L355.387 1092.51L394.752 1111.82L424.961 1126.65L627.512 693.381C619.101 694.078 610.492 694.575 601.882 695.023Z" fill="#1FCAEB"/>
</g>
<path d="M424.961 1126.7C419.785 1137.2 400.027 1138.1 380.817 1128.64C361.607 1119.19 350.211 1103.01 355.337 1092.51C360.513 1082.01 380.27 1081.12 399.48 1090.57C418.69 1100.03 430.087 1116.2 424.961 1126.7Z" fill="#1CB4D2"/>
<g style="mix-blend-mode:multiply" opacity="0.5">
<path d="M424.961 1126.7C419.785 1137.2 400.027 1138.1 380.817 1128.64C361.607 1119.19 350.211 1103.01 355.337 1092.51C360.513 1082.01 380.27 1081.12 399.48 1090.57C418.69 1100.03 430.087 1116.2 424.961 1126.7Z" fill="#1CB4D2"/>
</g>
<path d="M943.037 18.4426L729.636 474.904L714.507 507.253L644.137 657.797C619.552 660.485 593.275 662.077 565.953 662.475L647.521 496.005L663.297 463.657L889.985 0.974418C911.783 0.277682 929.351 6.399 943.037 18.4426Z" fill="#1FCAEB"/>
<g style="mix-blend-mode:multiply" opacity="0.5">
<path d="M729.635 474.905L943.036 18.4435C939.104 15.0096 934.824 12.0733 930.245 9.63477L639.259 616.641C628.459 639.185 605.218 653.767 580.335 651.975C577.498 651.776 574.612 651.328 571.775 650.681L566.002 662.476C593.324 662.078 619.601 660.535 644.186 657.798L714.556 507.253L729.685 474.905H729.635Z" fill="#1FCAEB"/>
</g>
<path d="M453.429 565.031C453.429 568.963 453.33 572.845 453.131 576.677C451.787 603.999 445.516 629.927 435.215 653.865C420.036 651.526 405.653 648.839 392.166 645.653C329.809 631.072 287.855 608.279 282.63 582.3C282.231 580.409 282.032 578.518 282.032 576.677H220.321L222.063 588.919V589.019L225.149 610.767L244.707 747.924L250.729 789.977C242.965 790.873 235.152 791.271 227.189 791.271C102.225 791.271 0.949219 689.996 0.949219 565.031C0.949219 440.067 102.225 338.841 227.14 338.841C328.962 338.841 415.009 406.026 443.376 498.443C449.946 519.494 453.38 541.84 453.38 565.031H453.429Z" fill="#FDAB12"/>
<g style="mix-blend-mode:multiply" opacity="0.5">
<path d="M392.168 645.704C405.654 648.889 419.987 651.576 435.216 653.915C445.518 629.977 451.788 604.049 453.132 576.727C453.331 572.895 453.431 568.963 453.431 565.081C453.431 541.89 449.947 519.545 443.428 498.493C426.507 443.302 388.983 397.168 339.813 368.9C332.348 403.886 306.569 471.022 218.033 526.761C205.691 534.524 198.127 548.011 198.226 562.643C198.475 606.537 197.53 702.985 186.282 787.639C199.57 790.077 213.206 791.371 227.191 791.371C235.153 791.371 242.967 790.973 250.73 790.077L244.708 748.024L225.15 610.867L222.065 589.119V589.019L220.323 576.776H282.034C282.034 578.668 282.233 580.559 282.631 582.4C287.906 608.378 329.81 631.172 392.168 645.753V645.704Z" fill="#FDAB12"/>
</g>
<path d="M239.135 510.835C251.775 473.013 264.565 436.085 276.957 402.891C279.645 395.774 275.514 387.812 268.049 386.07C241.125 379.65 213.107 379.65 186.183 386.07C178.767 387.812 174.637 395.774 177.274 402.891C189.666 436.085 202.456 472.963 215.097 510.786C218.929 522.282 235.253 522.282 239.085 510.786L239.135 510.835Z" fill="#E49A10"/>
<path d="M186.182 527.556C159.756 497.696 134.176 468.184 111.632 440.862C106.804 434.99 97.8462 434.592 92.6207 440.166C73.6097 460.272 59.6252 484.558 51.6626 511.084C49.4728 518.399 54.2504 525.914 61.815 527.208C96.7513 533.031 135.122 540.446 174.189 548.409C186.083 550.847 194.245 536.713 186.182 527.606V527.556Z" fill="#E49A10"/>
<path d="M174.189 581.751C135.122 589.714 96.7513 597.129 61.815 602.952C54.3002 604.196 49.5226 611.76 51.6626 619.076C59.5755 645.602 73.6098 669.888 92.6207 689.994C97.8462 695.518 106.804 695.17 111.632 689.297C134.176 661.975 159.756 632.464 186.182 602.603C194.245 593.496 186.083 579.412 174.189 581.801V581.751Z" fill="#E49A10"/>
<path d="M244.657 747.973C225.149 749.914 205.391 748.67 186.181 744.041C178.816 742.25 174.685 734.337 177.323 727.17C189.715 693.976 202.455 657.099 215.146 619.276C216.788 614.299 220.769 611.462 225.099 610.766L244.657 747.923V747.973Z" fill="#E49A10"/>
<path d="M402.616 619.077C399.928 628.234 396.445 637.142 392.165 645.702C329.807 631.12 287.853 608.327 282.628 582.349C320.849 590.013 358.323 597.328 392.463 602.952C399.978 604.246 404.806 611.761 402.616 619.077Z" fill="#E49A10"/>
<path d="M280.142 548.312C319.209 540.349 357.58 532.934 392.516 527.111C400.031 525.867 404.808 518.303 402.668 510.987C394.756 484.461 380.721 460.175 361.71 440.069C356.485 434.545 347.527 434.893 342.699 440.766C320.155 468.088 294.575 497.6 268.149 527.46C260.086 536.567 268.248 550.651 280.142 548.262V548.312Z" fill="#E49A10"/>
<g style="mix-blend-mode:multiply" opacity="0.5">
<path d="M229.279 519.247C232.863 518.65 236.247 516.56 238.188 512.977C235.301 515.067 232.315 517.207 229.279 519.247Z" fill="#E49A10"/>
</g>
<g style="mix-blend-mode:multiply" opacity="0.5">
<path d="M244.657 747.976L234.853 679.397L225.049 610.818C220.769 611.515 216.788 614.352 215.096 619.328C208.626 638.588 202.156 657.549 195.737 675.963C194.642 698.259 193.099 721.749 190.909 745.139C208.576 748.822 226.692 749.817 244.558 748.026L244.657 747.976Z" fill="#E49A10"/>
</g>
<g style="mix-blend-mode:multiply" opacity="0.5">
<path d="M402.619 511.035C394.706 484.509 380.671 460.223 361.661 440.117C356.435 434.593 347.477 434.941 342.65 440.814C320.105 468.136 294.525 497.647 268.099 527.508C260.037 536.615 268.198 550.699 280.093 548.31C319.16 540.347 357.53 532.932 392.466 527.109C399.981 525.865 404.759 518.301 402.619 510.985V511.035Z" fill="#E49A10"/>
</g>
<g style="mix-blend-mode:multiply" opacity="0.5">
<path d="M392.463 602.952C358.323 597.328 320.849 590.013 282.628 582.349C284.917 593.695 294.273 604.445 309.203 614.199C311.343 615.593 313.583 616.937 315.972 618.28C325.427 623.655 336.675 628.682 349.465 633.31C362.255 637.888 376.588 642.069 392.165 645.702C396.445 637.142 399.928 628.234 402.616 619.077C404.806 611.761 399.978 604.246 392.463 602.952Z" fill="#E49A10"/>
</g>
<g style="mix-blend-mode:screen" opacity="0.5">
<path d="M129.098 421.506C125.913 423.845 120.937 426.931 114.915 431.161C111.979 433.401 108.793 435.839 105.31 438.527C101.926 441.314 98.5415 444.548 94.809 447.833C91.2258 451.267 87.7421 455.199 83.9101 459.18C82.218 461.32 80.4264 463.51 78.6348 465.749C77.739 466.844 76.8432 467.989 75.8976 469.133C75.1014 470.328 74.2553 471.572 73.459 472.766C66.4419 482.371 60.669 493.718 55.7918 505.861C45.938 530.247 42.4045 558.962 43.4994 585.787C44.5943 612.711 49.9193 637.843 56.2397 657.053C58.3299 663.025 54.3983 664.916 51.5119 658.944C42.9022 640.033 34.6907 615.05 30.56 586.981C26.4294 559.012 26.8773 527.659 35.1883 498.993C43.1013 470.278 58.4295 445.195 74.0065 427.976C78.0376 423.796 81.7203 419.665 85.4031 416.181C89.2351 412.797 92.7686 409.712 95.9537 406.875C102.573 401.5 108.147 397.718 111.829 395.08C132.234 381.842 153.036 374.925 168.315 371.839C183.792 369.301 193.795 370.197 195.089 374.327C196.383 378.558 188.868 385.127 176.377 392.691C164.084 400.754 146.865 410.01 129.098 421.556V421.506Z" fill="#FDAB12"/>
</g>
<g style="mix-blend-mode:multiply" opacity="0.5">
<path d="M822.497 744.045C805.029 755.541 784.624 761.513 764.27 765.843C749.489 768.978 734.659 771.317 719.679 773.059L688.574 1068.43C678.571 1163.28 624.276 1246.99 543.703 1294.52C547.286 1294.57 550.919 1294.62 554.602 1294.62C635.772 1294.62 693.601 1281.58 726.049 1269.09C741.178 1263.26 750.783 1257.54 754.615 1253.36L827.673 740.362C825.981 741.656 824.239 742.9 822.547 744.045H822.497Z" fill="#FDAB12"/>
</g>
<g style="mix-blend-mode:multiply" opacity="0.5">
<path d="M735.407 877.965C735.407 869.804 728.788 863.185 720.626 863.185C716.247 863.185 712.415 865.126 709.677 868.112L707.886 885.331C710.424 889.76 715.152 892.746 720.626 892.746C728.788 892.746 735.407 886.127 735.407 877.965Z" fill="#E49A10"/>
</g>
<g style="mix-blend-mode:multiply" opacity="0.5">
<path d="M742.623 780.321C734.461 780.321 727.842 786.94 727.842 795.102C727.842 803.264 734.461 809.883 742.623 809.883C750.784 809.883 757.403 803.264 757.403 795.102C757.403 786.94 750.784 780.321 742.623 780.321Z" fill="#E49A10"/>
</g>
<g style="mix-blend-mode:screen" opacity="0.5">
<path d="M400.427 855.57C400.676 858.606 400.925 862.338 401.174 866.767C401.473 871.197 401.771 876.223 402.169 881.897C402.816 893.194 403.413 906.879 404.011 922.357C404.956 937.785 405.952 954.954 407.096 973.269C407.843 982.426 408.589 991.831 409.385 1001.44C410.231 1011.04 410.779 1020.99 412.023 1030.9C415.905 1070.81 421.777 1112.67 429.193 1151.63C436.707 1190.5 445.865 1226.58 456.166 1254C457.809 1258.28 456.117 1261.67 453.429 1263.31C450.742 1264.9 446.711 1264.21 444.123 1260.12C427.849 1234.1 411.426 1199.61 396.048 1161.54C380.819 1123.46 366.636 1081.91 355.289 1041.95C352.203 1031.99 349.815 1022.04 347.177 1012.34C344.639 1002.63 342.101 993.125 339.811 983.869C335.631 965.306 331.699 947.887 328.166 932.211C325.13 916.485 322.542 902.5 320.552 890.855C319.606 885.032 318.71 879.806 317.964 875.278C317.367 870.749 316.968 866.867 316.67 863.732C315.177 846.96 314.928 830.935 315.774 816.254C316.72 801.573 319.208 788.335 322.244 777.187C328.514 754.842 338.169 740.907 349.815 740.36C361.41 739.812 372.757 752.602 381.665 773.504C386.194 783.955 389.827 796.447 393.112 810.332C396.496 824.167 398.984 839.445 400.427 855.62V855.57Z" fill="#FDAB12"/>
</g>
<g style="mix-blend-mode:screen" opacity="0.5">
<path d="M722.569 361.334C737.051 331.922 811.85 190.086 848.927 119.965C851.863 114.441 853.804 115.386 851.216 121.11C818.171 193.222 751.234 338.939 736.752 368.351C717.343 407.767 698.432 438.124 694.5 436.233C690.569 434.292 703.16 400.799 722.569 361.384V361.334Z" fill="#1FCAEB"/>
</g>
</g>
<defs>
<clipPath id="clip0_4090_3234">
<rect width="942.086" height="1331.31" fill="white" transform="translate(0.948242 0.926758)"/>
</clipPath>
</defs>
</svg>
