<svg width="975" height="1315" viewBox="0 0 975 1315" fill="none" xmlns="http://www.w3.org/2000/svg">
<path d="M651.98 1271.55C591.247 1284.66 526.917 1272.08 471.095 1244.94C476.632 1202.94 482.282 1160.91 487.819 1118.9C491 1094.45 494.325 1070.07 497.506 1045.61C550.108 1045.75 603.57 1042.75 656.173 1042.89C658.181 1075.81 659.031 1109.41 658.799 1143.05C658.442 1186.22 656.147 1229.43 651.98 1271.55Z" fill="#8F5027"/>
<path d="M566.209 787.605C648.298 710.245 713.096 620.119 763.03 522.66C762.674 521.782 762.347 521.018 761.99 520.14C758.573 511.93 755.24 503.575 752.02 495.191C743.46 472.784 736.006 449.959 729.74 426.572C752.075 427.28 774.699 423.164 797.257 420.162C812.419 418.168 818.317 399.309 806.993 388.837C804.704 386.652 802.446 384.58 800.187 382.508C797.58 380.043 795.116 377.661 792.623 375.166C788.795 371.325 784.967 367.483 781.366 363.581C770.223 351.965 759.783 339.796 749.881 327.362C722.766 293.378 699.623 256.505 679.225 216.707C677.692 213.71 676.19 210.828 674.77 207.801C672.737 203.844 670.786 199.743 668.866 195.755C665.587 188.968 662.422 182.15 659.34 175.189C650.246 154.872 641.711 133.918 633.508 112.389C626.764 94.4841 602.489 91.9845 592.356 108.206C579.056 129.413 565.937 149.476 552.719 168.715C548.879 174.367 544.896 179.936 541.026 185.475C538.464 189.082 535.902 192.689 533.226 196.326C530.301 200.395 527.263 204.495 524.307 208.45C496.597 245.808 467.861 279.79 436.162 312.255C429.183 319.357 421.976 326.52 414.709 333.456C411.034 336.996 407.358 340.536 403.539 343.993C399.751 347.563 395.931 351.02 392.112 354.477C387.113 358.98 382.084 363.37 376.971 367.903C365.392 377.82 370.586 396.749 385.511 399.32L444.985 409.666C433.533 430.5 421.884 451.508 409.894 472.607C406.517 478.623 403.14 484.638 399.619 490.57C397.541 494.169 395.494 497.881 393.416 501.48C391.089 505.51 388.762 509.541 386.322 513.602C364.154 551.665 341.184 589.456 317.115 626.325C314.084 630.909 310.971 635.637 307.94 640.221C305.19 644.486 302.295 648.669 299.431 652.965C297.262 656.223 294.979 659.512 292.697 662.8C285.351 673.529 277.861 684.175 270.31 694.594C262.343 705.733 268.934 721.246 282.45 723.099L355.4 732.877C347.531 749.83 339.715 766.526 331.467 782.972C328.514 788.752 325.447 794.563 322.38 800.373C320.28 804.343 318.15 808.199 316.02 812.055C314.191 815.222 312.393 818.502 310.565 821.669C290.566 856.474 266.373 891.064 233.506 926.883C226.814 934.152 219.895 941.481 212.409 948.963C208.288 953.109 204.023 957.172 199.561 961.41C198.971 961.933 198.298 962.6 197.739 963.236C195.772 964.98 194.412 967.17 193.537 969.351C192.412 971.964 192.059 974.736 192.191 977.499C328.876 945.863 464.321 889.616 566.414 787.915L566.209 787.605Z" fill="#10A367"/>
<path d="M950.864 1011.65C950.164 1009.04 948.753 1006.49 946.578 1004.28C943.038 1000.6 939.725 996.866 936.381 993.016C904.381 956.692 877.793 913.32 856.45 868.177C854.233 863.539 852.048 859.014 850.058 854.315C848.487 850.72 846.946 847.24 845.374 843.645C843.507 839.4 841.783 835.238 840.06 831.077C832.983 813.748 826.648 796.463 821.116 779.451C842.742 782.052 864.371 781.488 886.1 781.75C900.984 781.899 909.678 764.846 900.639 752.91C890.023 738.72 879.551 724.613 869.533 710.384C865.998 705.368 862.578 700.323 859.044 695.308C857.375 692.713 855.623 690.262 853.841 687.697C847 677.606 840.386 667.454 833.999 657.241C810.447 619.748 789.331 581.358 771.477 541.973C769.822 538.522 768.251 534.928 766.71 531.447C765.435 528.504 764.189 525.674 763.028 522.7C713.093 620.159 648.296 710.285 566.206 787.645C464.113 889.346 328.555 945.623 191.984 977.229C192.339 983.096 195.458 988.831 201.412 991.981C439.426 1118.27 699.626 1095.76 938.187 1034.27C940.344 1033.69 942.296 1032.8 943.93 1031.63C948.045 1028.83 950.539 1024.51 951.343 1019.79C951.84 1017.1 951.708 1014.34 950.864 1011.65Z" fill="#0E915C"/>
<path d="M673.886 68.6178C661.199 63.5 644.668 60.3854 631.016 58.933C633.53 59.2328 626.448 24.6271 623.558 20.6558C616.028 10.2624 604.13 13.0855 597.025 22.8983C594.629 26.2172 583.24 55.9164 585.951 56.0418C575.54 55.7893 561.635 57.9334 551.584 60.3832C549.086 61.0525 546.589 61.7217 544.645 63.0944C542.701 64.467 541.257 66.8006 541.835 68.9576C542.535 71.5687 545.3 73.2613 548.088 74.5829C559.125 79.8996 571.409 83.0571 583.796 83.875C580.472 89.6329 577.512 96.7531 575.536 103.001C574.292 106.985 573.222 111.166 574.43 115.222C575.525 119.309 579.467 123.12 584.229 123.183C588.537 123.367 592.085 120.713 595.178 118.18C601.562 112.941 607.597 107.309 613.169 101.314C618.893 107.689 625.103 115.881 630.796 122.143C633.238 124.896 636.08 127.784 640.025 128.431C645.258 129.34 650.151 125.352 651.357 120.77C652.48 116.333 650.832 111.542 648.934 107.184C646.178 100.986 642.514 95.0324 638.343 89.4577C650.039 88.149 662.723 84.6285 673.636 80.8527C676.981 79.7131 680.825 77.7098 680.715 74.5755C680.666 71.6684 677.098 69.7042 674.083 68.4435L673.886 68.6178ZM618.748 68.5476C614.884 72.7465 608.117 73.8296 603.109 71.0344C598.215 68.2087 595.625 61.7236 597.36 56.3916C599.065 50.9461 604.844 47.0856 610.47 47.6466C615.097 48.1105 619.34 51.2322 621.011 55.6516C622.682 60.071 621.742 65.1901 618.664 68.6915L618.748 68.5476Z" fill="#E09F27"/>
<path d="M620.66 26.6523C620.076 25.8354 618.487 26.2613 618.503 27.2303C618.528 28.6839 618.779 30.0766 618.917 31.4998C619.003 33.1804 621.993 32.9876 621.908 31.307C621.905 29.4824 621.623 27.9761 620.63 26.5388L620.66 26.6523Z" fill="#F2AA16"/>
<path d="M621.989 38.2086C621.178 37.4525 619.68 38.2189 620.211 39.2934C620.742 40.3678 620.639 42.7073 622.425 42.1071C622.765 42.0158 623.128 41.5536 623.151 41.1826C623.104 40.1 622.944 39.0478 621.989 38.2086Z" fill="#F2AA16"/>
<path d="M625.132 47.9866C624.798 46.7378 622.973 46.7399 622.854 48.1104C622.673 49.2538 622.69 50.2229 622.88 51.3886C623.033 51.9562 623.525 52.4326 624.154 52.5076C624.154 52.5076 624.381 52.4467 624.494 52.4163C625.062 52.2642 625.652 51.7411 625.613 51.143C625.566 50.0605 625.52 48.9779 625.246 47.9561L625.132 47.9866Z" fill="#F2AA16"/>
<path d="M627.01 56.3611C626.645 54.9988 624.707 55.0314 624.618 56.5154C624.551 57.6284 624.598 58.711 624.758 59.7631C624.927 61.2998 627.463 61.2286 627.521 59.6311C627.475 58.5485 627.428 57.4659 627.154 56.4442L627.01 56.3611Z" fill="#F2AA16"/>
<path d="M634.322 62.7871C633.663 62.5986 633.004 62.4101 632.232 62.2521C630.914 61.8751 629.402 63.4971 630.562 64.6465C631.403 65.5161 632.38 65.9844 633.576 65.9072C635.257 65.8219 636.155 63.2695 634.209 62.8175L634.322 62.7871Z" fill="#F2AA16"/>
<path d="M650.75 64.5865C649.175 64.1569 647.29 63.932 645.662 63.7598C643.89 63.5045 642.992 66.057 644.462 67.0016C646.106 68.1429 648.34 68.761 650.414 68.327C652.117 67.8707 652.697 65.0385 650.75 64.5865Z" fill="#F2AA16"/>
<path d="M660.082 67.2711C660.082 67.2711 659.196 67.1434 658.764 66.8941C657.355 66.1765 655.768 68.427 656.897 69.4629C657.708 70.219 658.458 70.748 659.685 70.7844C661.994 70.7741 662.255 67.6621 659.968 67.3015L660.082 67.2711Z" fill="#F2AA16"/>
<path d="M670.686 70.9295C669.77 70.6883 669.141 70.6133 668.172 70.6296C667.234 70.7595 666.547 72.282 667.327 72.9246C667.964 73.4841 668.57 73.9301 669.373 74.2017C671.554 75.0773 672.776 71.4645 670.542 70.8464L670.686 70.9295Z" fill="#F2AA16"/>
<path d="M671.508 76.2754C670.653 76.2613 669.828 76.3607 669.033 76.5736C666.815 76.9245 667.501 80.3912 669.719 80.0402C670.967 79.7056 671.732 79.3792 672.571 78.4242C673.214 77.6437 672.621 76.3422 671.652 76.3585L671.508 76.2754Z" fill="#F2AA16"/>
<path d="M661.393 78.5108C660.075 78.1339 658.622 78.1583 657.26 78.5233C655.443 79.0101 655.431 81.6902 657.43 81.8846C658.801 82.0041 660.224 81.8661 661.556 81.3876C662.744 80.8259 662.711 78.8878 661.393 78.5108Z" fill="#F2AA16"/>
<path d="M649.931 80.2673C648.356 79.8377 646.933 79.9756 645.374 80.515C644.155 80.9632 644.218 83.0148 645.536 83.3918C647.111 83.8214 648.535 83.6835 650.094 83.1441C651.312 82.6959 651.218 80.5308 649.931 80.2673Z" fill="#F2AA16"/>
<path d="M641.187 82.5837C639.922 81.9493 638.46 81.4892 637.424 82.6185C637.031 82.9673 637.039 83.4518 637.274 83.8755C638.207 85.0857 639.744 84.9173 640.962 84.4692C641.757 84.2562 641.763 82.9162 641.073 82.6142L641.187 82.5837Z" fill="#F2AA16"/>
<path d="M632.716 84.0282L632.149 84.1803C629.372 85.1678 632.958 89.9256 634.582 86.4486C634.551 86.3351 634.748 86.1607 634.831 86.0168C635.549 84.6077 633.852 83.724 632.716 84.0282Z" fill="#F2AA16"/>
<path d="M637.431 92.1253C636.498 90.915 635.452 89.7352 634.157 88.9873C633.262 88.3751 632.052 89.3078 632.47 90.4126C633.092 91.8276 634.025 93.0379 635.071 94.2177C635.594 94.8076 636.223 94.8825 636.874 94.5865C637.328 94.4648 637.464 94.0634 637.63 93.7755C637.879 93.3436 637.697 92.6625 637.348 92.2692L637.431 92.1253Z" fill="#F2AA16"/>
<path d="M640.821 100.692C640.517 99.5568 640.13 98.5655 639.402 97.6654C638.818 96.8484 637.085 97.1912 637.162 98.3873C637.239 99.5834 637.482 100.492 638.014 101.566C638.31 102.217 638.999 102.519 639.711 102.45C639.938 102.389 640.165 102.328 640.475 102.123C640.898 101.888 641.057 101.116 640.935 100.662L640.821 100.692Z" fill="#F2AA16"/>
<path d="M643.755 109.272C643.512 108.363 643.216 107.713 642.662 107.009C641.934 106.109 640.262 106.679 640.309 107.761C640.264 108.503 640.303 109.102 640.629 109.866C641.177 111.909 644.53 111.254 643.869 109.241L643.755 109.272Z" fill="#F2AA16"/>
<path d="M641.819 115.394C641.819 115.394 641.041 116.576 640.739 117.265C639.719 119.364 643.445 120.555 643.972 117.981C644.078 117.466 644.153 116.837 644.145 116.353C644.15 115.013 642.514 114.356 641.736 115.538L641.819 115.394Z" fill="#F2AA16"/>
<path d="M639.667 120.876C639.477 119.711 639.006 118.863 638.112 118.251C636.725 117.163 634.933 119.103 636.154 120.479C636.503 120.873 636.851 121.266 637.117 121.803C637.853 123.188 639.866 122.527 639.698 120.99L639.667 120.876Z" fill="#F2AA16"/>
<path d="M631.639 113.617C631.312 112.853 630.903 112.232 630.266 111.673C629.311 110.834 627.791 111.971 628.095 113.106C628.308 113.901 628.604 114.552 629.158 115.255C630.265 116.662 632.405 115.115 631.752 113.587L631.639 113.617Z" fill="#F2AA16"/>
<path d="M624.731 103.804C623.663 102.996 621.946 104.307 622.765 105.548C623.03 106.085 623.266 106.509 623.448 107.19C623.874 108.78 626.009 108.573 626.211 107.058C626.361 105.801 625.8 104.613 624.762 103.918L624.731 103.804Z" fill="#F2AA16"/>
<path d="M619.403 97.572C618.282 97.0206 617.133 98.1804 617.323 99.3461C617.597 100.368 618.068 101.215 618.848 101.858C619.803 102.697 621.165 102.332 621.429 101.045C621.715 99.3862 620.926 98.2591 619.517 97.5416L619.403 97.572Z" fill="#F2AA16"/>
<path d="M613.859 94.9199C613.109 94.3909 612.337 94.2328 611.428 94.4762C609.354 94.9102 610.153 98.3464 612.053 97.7158C612.394 97.6245 612.734 97.5333 612.961 97.4724C614.157 97.3953 615.072 95.8119 613.89 95.0335L613.859 94.9199Z" fill="#F2AA16"/>
<path d="M603.846 100.786C602.719 101.575 601.509 102.508 601.791 104.014C601.912 104.468 602.231 104.748 602.746 104.853C604.26 105.056 605.122 103.73 605.786 102.578C606.648 101.252 605.087 99.967 603.846 100.786Z" fill="#F2AA16"/>
<path d="M597.953 107.314C596.424 107.967 594.707 109.279 595.451 111.148C596.226 113.131 598.948 110.576 599.652 110.022C600.915 108.832 599.625 106.744 597.983 107.428L597.953 107.314Z" fill="#F2AA16"/>
<path d="M589.92 113.342C589.209 113.411 588.641 113.563 587.99 113.859C585.833 114.437 586.436 118.048 588.676 117.326C589.471 117.113 590.265 116.9 590.969 116.346C592.55 115.436 591.828 113.196 590.034 113.311L589.92 113.342Z" fill="#F2AA16"/>
<path d="M582.153 116.189C582.153 116.189 581.517 115.63 581.115 115.494C579.069 114.217 577.302 117.611 579.597 118.456C579.998 118.592 580.4 118.728 580.801 118.863C582.346 119.179 583.457 117.422 582.07 116.333L582.153 116.189Z" fill="#F2AA16"/>
<path d="M578.212 108.705C578.212 108.705 577.523 108.403 577.213 108.607C576.396 109.191 576.434 109.789 576.451 110.758C576.475 112.212 578.474 112.406 578.707 111.006C578.835 110.12 578.993 109.347 578.212 108.705Z" fill="#F2AA16"/>
<path d="M582.202 99.9826C581.822 99.4758 581.451 99.4535 580.74 99.5225C580.286 99.6442 579.779 100.023 579.53 100.455C579.228 101.145 579.009 101.69 578.707 102.379C578.133 103.871 580.406 105.088 581.237 103.648C581.652 102.928 581.955 102.239 582.37 101.519C582.589 100.974 582.437 100.406 582.088 100.013L582.202 99.9826Z" fill="#F2AA16"/>
<path d="M584.269 91.1638C583.717 92.285 583.446 93.0878 583.553 94.3975C583.714 95.4496 585.175 95.9097 585.848 95.2427C586.718 94.4013 587.103 93.568 587.283 92.4246C587.569 90.7662 584.986 89.7548 584.186 91.3078L584.269 91.1638Z" fill="#F2AA16"/>
<path d="M588.361 83.2364C588.089 84.0393 587.787 84.7286 587.773 85.5841C587.57 87.0985 589.486 87.4369 590.325 86.482C590.885 85.8454 591.187 85.1561 591.572 84.3228C592.539 82.4819 589.236 81.055 588.474 83.206L588.361 83.2364Z" fill="#F2AA16"/>
<path d="M566.933 75.4793C566.933 75.4793 565.79 75.299 565.244 75.0801C563.608 74.4234 562.536 76.7792 563.892 77.7543C564.673 78.3968 565.62 78.7515 566.702 78.7048C568.754 78.6418 569.076 75.7569 566.933 75.4793Z" fill="#F2AA16"/>
<path d="M579.314 76.3144C578.459 76.3002 577.717 76.2557 576.892 76.3551C575.355 76.5235 575.169 79.007 576.6 79.3536C577.373 79.5116 578.145 79.6697 578.917 79.8277C581.174 80.0749 581.427 76.4784 579.201 76.3448L579.314 76.3144Z" fill="#F2AA16"/>
<path d="M588.841 77.0163C588.841 77.0163 588.099 76.9718 587.645 77.0935C585.48 77.1869 585.355 79.8975 587.414 80.319C587.816 80.4548 588.187 80.477 588.558 80.4993C590.845 80.86 591.037 77.0364 588.841 77.0163Z" fill="#F2AA16"/>
<path d="M554.938 70.3341C554.271 69.6611 553.695 69.3287 552.779 69.0875C550.544 68.4694 549.261 71.8551 551.496 72.4732C552.412 72.7144 553.071 72.9029 553.979 72.6595C555.001 72.3858 555.635 71.1207 554.794 70.251L554.938 70.3341Z" fill="#F2AA16"/>
<path d="M550.709 64.1152C549.181 64.7681 548.782 66.4569 549.745 67.7806C550.472 68.6807 551.918 68.1717 552.015 67.1722C551.954 66.9452 552.007 66.6877 552.204 66.5134C553.239 65.384 552.268 63.5758 550.74 64.2287L550.709 64.1152Z" fill="#F2AA16"/>
<path d="M562.349 61.2569C561.668 61.4394 561.1 61.5915 560.419 61.774C559.117 62.3661 559.604 64.1825 560.861 64.3324C561.603 64.377 562.232 64.4519 562.913 64.2694C564.903 63.9794 564.309 60.8533 562.318 61.1434L562.349 61.2569Z" fill="#F2AA16"/>
<path d="M573.929 60.3306C572.846 60.3773 572.674 62.0052 573.424 62.5343C574.637 63.4262 576.007 63.5457 577.309 62.9536C577.763 62.832 578.095 62.2562 578.087 61.7716C578.107 59.5761 575.238 60.223 573.815 60.361L573.929 60.3306Z" fill="#F2AA16"/>
<path d="M588.075 60.4626C587.37 59.1916 586.204 59.3822 584.894 59.4898C583.698 59.5669 583.504 61.5659 584.678 61.8598C585.995 62.2367 587.056 62.561 587.978 61.4621C588.175 61.2877 588.167 60.8032 588.075 60.4626Z" fill="#F2AA16"/>
<path d="M592.528 49.8976C591.038 51.1486 590.73 53.178 591.444 54.9336C591.922 56.2655 593.852 55.7483 594.002 54.4914C594.069 53.3784 594.454 52.5451 594.778 51.4848C595.155 50.167 593.624 48.9954 592.528 49.8976Z" fill="#F2AA16"/>
<path d="M597.403 41.1671C597.403 41.1671 597.168 40.7434 596.91 40.6907C594.994 40.3523 594.088 42.4203 594.03 44.0178C593.94 45.5018 595.826 45.7267 596.377 44.6055C596.815 43.5148 597.654 42.5598 597.433 41.2806L597.403 41.1671Z" fill="#F2AA16"/>
<path d="M601.304 31.3423C601.304 31.3423 600.895 30.722 600.524 30.6997C598.608 30.3613 597.907 32.7394 598.302 34.2153C598.576 35.237 600.121 35.5532 600.528 34.3489C600.852 33.2886 601.578 32.3641 601.304 31.3423Z" fill="#F2AA16"/>
<path d="M606.213 22.7558C604.834 22.1518 603.488 23.4859 602.679 24.5543C601.87 25.6228 603.545 26.8776 604.467 25.7787C605.08 24.8846 606.184 24.4669 606.539 23.5201C606.705 23.2322 606.387 22.9524 606.213 22.7558Z" fill="#F2AA16"/>
<path d="M613.175 19.7752C612.076 18.8529 610.631 19.3618 609.443 19.9235C608.028 20.546 608.802 22.5287 610.225 22.3907C611.535 22.2831 612.928 22.0316 613.418 20.6834C613.554 20.282 613.349 19.9718 613.175 19.7752Z" fill="#F2AA16"/>
<path d="M619.037 23.0537C619.037 23.0537 618.567 22.2064 618.165 22.0706C617.877 21.9044 617.62 21.8517 617.219 21.7159C616.446 21.5578 615.629 22.1417 615.986 23.0195C616.108 23.4737 616.426 23.7534 616.631 24.0636C616.979 24.4568 617.381 24.5926 617.835 24.4709C617.835 24.4709 618.062 24.4101 618.176 24.3797C618.63 24.258 618.993 23.7958 618.871 23.3416C618.84 23.2281 618.81 23.1146 618.78 23.0011L619.037 23.0537Z" fill="#F2AA16"/>
</svg>
