<svg width="949" height="964" viewBox="0 0 949 964" fill="none" xmlns="http://www.w3.org/2000/svg">
<g clip-path="url(#clip0_4090_3482)">
<path d="M769.252 346.003C766.92 343.069 763.065 340.65 759.159 342.086C731.541 352.294 709.324 391.257 696.915 416.452C683.44 443.901 674.018 474.111 681.831 504.204C681.09 504.814 680.378 505.316 679.637 505.926C675.261 509.545 680.364 517.436 685.47 515.398C722.411 500.991 749.303 479.273 763.134 441.874C771.438 419.505 785.711 367.098 769.212 345.935L769.252 346.003Z" fill="#CB2522"/>
<path d="M584.377 38.4017C646.449 59.4793 701.513 149.805 712.764 211.88C714.791 223.277 712.901 235.933 711.42 248.353C598.519 281.665 583.261 139.307 600.178 65.6132C600.926 62.1764 597.748 58.0919 594.021 60.153C544.402 87.6166 520.376 172.973 541.611 225.369C569.017 292.869 653.956 299.925 716.116 292.449C716.537 292.388 716.878 292.191 717.327 292.023C722.366 298.858 729.693 305.555 736.203 310.994C737.404 312.759 739.005 314.112 740.926 314.915C741.78 315.606 742.634 316.297 743.38 316.958C748.515 321.279 754.895 315.137 752.876 309.746C808.27 252.539 823.343 162.243 781.812 92.5167C738.703 20.0582 661.336 4.3505 584.724 24.1773C578.149 25.8793 578.607 36.4515 584.632 38.5278L584.377 38.4017Z" fill="#CB2522"/>
<path d="M776.404 296.705C763.433 281.337 716.438 304.827 720.101 317.009C723.983 329.884 724.029 342.424 723.826 356.11C723.75 365.443 726.026 373.326 735.062 377.307C745.373 381.917 755.8 377.263 765.535 373.464C773.406 370.377 787.188 368.065 791.297 359.41C795.125 351.371 790.19 339.195 788.472 331.172C786.193 320.285 783.789 305.554 776.335 296.745L776.404 296.705Z" fill="#F44E4A"/>
<path d="M722.693 434.445C721.336 437.142 720.425 439.034 719.861 442C718.859 447.678 722.718 453.1 728.54 453.563C734.186 454.036 739.311 449.348 738.962 443.539C738.782 440.546 738.196 438.426 737.215 435.623C734.888 429.226 725.883 428.141 722.654 434.377L722.693 434.445Z" fill="#F44E4A"/>
<path d="M748.069 405.674C740.078 410.287 747.352 422.57 755.342 417.957C763.333 413.343 756.059 401.06 748.069 405.674Z" fill="#F44E4A"/>
<path d="M781.456 169.037C777.223 165.016 771.902 165.265 766.982 167.468L766.094 167.981C760.822 170.205 759.109 178.752 762.268 183.12C762.426 183.394 762.623 183.735 762.849 183.969C768.784 192.198 782.367 191.277 784.863 180.457C785.823 176.442 784.453 171.86 781.417 168.969L781.456 169.037Z" fill="#F44E4A"/>
<path d="M763.123 117.877C748.507 126.315 760.916 149.384 775.532 140.946C790.147 132.508 777.739 109.438 763.123 117.877Z" fill="#F44E4A"/>
<path d="M728.694 84.1179C726.035 84.5602 724.231 85.6931 722.056 87.131C718.662 89.4546 717.707 94.7411 719.035 98.6187C721.369 108.654 734.951 111.832 740.996 103.06C747.138 94.1405 739.056 82.5067 728.694 84.1179Z" fill="#F44E4A"/>
<path d="M681.525 51.1539C676.92 45.0704 669.55 44.1348 663.199 47.802C657.188 51.272 655.783 60.8254 659.847 66.1287C664.452 72.2121 671.822 73.1477 678.174 69.4806C684.184 66.0106 685.589 56.4571 681.525 51.1539Z" fill="#F44E4A"/>
<path d="M143.727 355.915C139.336 353.988 132.816 357.206 133.779 362.66C141.158 407.301 157.922 446.433 191.018 478.047C215.794 501.717 255.735 528.469 291.461 517.95C295.349 516.798 297.129 512.31 296.027 508.667C294.657 504.085 293.218 499.543 291.848 494.961C285.484 421.322 203.462 381.62 143.727 355.915Z" fill="#CB2522"/>
<path d="M390.299 86.1602C322.485 45.3584 243.876 38.3818 181.907 95.5593C122.248 150.584 110.953 241.431 147.763 311.97C144.292 316.525 148.679 324.282 154.81 321.653C155.669 321.248 156.704 320.832 157.739 320.417C159.773 320.153 161.667 319.333 163.353 317.995C171.134 314.596 180.027 310.281 186.822 305.174C187.156 305.437 187.421 305.739 187.891 305.923C245.314 330.777 328.793 348.238 374.241 291.31C409.572 247.144 410.792 158.563 371.082 118.018C368.144 114.979 363.873 117.991 363.625 121.504C358.825 196.944 303.656 329.148 204.867 264.978C206.954 252.663 208.697 239.909 213.943 229.596C242.363 173.301 320.929 102.443 386.389 99.8919C392.697 99.6193 396.125 89.6264 390.367 86.1208L390.299 86.1602Z" fill="#CB2522"/>
<path d="M175.582 304.471C153.001 290.28 128.05 301.953 123.213 327.33C121.063 338.588 115.428 358.324 120.76 369.452C125.479 379.203 138.99 384.151 148.838 385.751C158.187 387.274 172.185 387.388 178.349 378.821C182.422 373.1 182.92 361.976 184.426 355.278C186.076 348.042 188.147 340.745 188.623 333.367C189.402 321.626 185.862 310.92 175.582 304.471Z" fill="#F44E4A"/>
<path d="M170.478 220.721C167.703 219.227 164.183 219.439 161.49 221.084C155.911 224.67 155.264 230.962 155.242 237.076C155.2 251.671 178.956 250.705 177.903 236.105C177.465 229.983 176.215 223.875 170.41 220.761L170.478 220.721Z" fill="#F44E4A"/>
<path d="M164.676 157.51C162.716 159.005 160.943 160.666 159.504 162.59C154.68 168.745 156.863 178.047 164.047 181.185C171.594 184.477 178.741 179.349 180.733 171.915C181.3 169.585 181.378 167.354 181.338 164.918C181.351 156.897 170.554 153.023 164.676 157.51Z" fill="#F44E4A"/>
<path d="M217.531 95.1191C204.896 102.414 215.501 122.518 228.204 115.183C240.908 107.849 230.234 87.7848 217.531 95.1191Z" fill="#F44E4A"/>
<path d="M341.482 256.495C338.669 259.668 336.755 262.503 335.563 267.38C334.044 273.265 338.552 279.496 344.309 280.634C350.496 281.888 356.152 277.804 357.563 271.889C358.141 269.734 358.553 267.766 358.415 265.478C358.381 264.314 358.17 263.161 357.891 262.047C356.159 259.678 355.862 258.848 357.01 259.733C355.356 252.765 345.784 251.644 341.482 256.495Z" fill="#F44E4A"/>
<path d="M369.062 197.32C358.066 203.669 369.524 219.729 380.451 213.419C391.379 207.11 379.99 191.011 369.062 197.32Z" fill="#F44E4A"/>
<path d="M207.219 420.792C203.381 422.189 200.999 425.476 198.686 428.724C194.4 435.023 196.61 443.582 203.355 447.064C209.914 450.38 218.567 447.388 220.961 440.178C222.187 436.465 223.51 432.605 222.319 428.648C220.204 421.673 214.27 418.178 207.219 420.792Z" fill="#F44E4A"/>
<g style="mix-blend-mode:multiply">
<path d="M184.315 355.241C185.965 348.005 188.036 340.708 188.512 333.331C189.118 324.602 187.116 316.561 181.933 310.265C180.612 312.393 179.313 314.874 178.073 317.775C175.682 323.254 175.842 330.629 174.85 336.483C172.595 350.716 165.891 367.336 174.173 379.947C182.772 393.104 207.748 404.819 219.63 414.989C248.656 440.028 284.274 477.745 288.349 518.557C289.395 518.318 290.411 518.186 291.418 517.878C295.306 516.726 297.086 512.238 295.984 508.594C294.613 504.013 293.175 499.471 291.804 494.889C286.738 435.799 232.879 398.506 180.921 372.864C182.695 367.104 183.26 360.039 184.344 355.134L184.315 355.241Z" fill="#E8DDDD"/>
</g>
<g style="mix-blend-mode:multiply">
<path d="M259.193 308.281C242.933 307.561 228.283 301.904 212.419 300.136C200.43 298.771 191.896 297.869 184.579 306.647C185.33 306.213 186.082 305.78 186.754 305.209C187.088 305.472 187.353 305.774 187.824 305.958C245.247 330.812 328.725 348.273 374.173 291.345C407.501 249.702 410.425 168.332 377.21 125.313C415.588 209.609 359.272 312.697 259.233 308.349L259.193 308.281Z" fill="#E8DDDD"/>
</g>
<g style="mix-blend-mode:multiply">
<path d="M781.595 92.4579C754.363 46.7117 713.509 23.5832 667.791 17.7416C742.89 55.7035 804.051 151.069 783.285 228.351C780.485 238.801 774.976 247.081 769.412 256.213C754.176 281.401 763.219 297.853 768.351 323.302C773.543 349.172 762.663 375.123 752.742 398.79C737.226 435.796 712.24 465.703 679.163 477.97C678.84 486.717 679.544 495.508 681.804 504.311C681.063 504.921 680.351 505.423 679.611 506.033C675.235 509.652 680.337 517.543 685.444 515.505C722.385 501.098 749.276 479.38 763.108 441.981C769.101 425.863 778.115 394.158 776.579 369.73C782.702 367.56 788.783 364.687 791.294 359.413C795.122 351.375 790.186 339.198 788.468 331.175C786.189 320.288 783.786 305.558 776.332 296.748C774.129 294.195 771.042 292.79 767.332 292.2C810.197 235.215 819.017 155.541 781.458 92.5368L781.595 92.4579Z" fill="#E8DDDD"/>
</g>
<path d="M115.642 618.001C97.2055 609.886 79.5294 636.21 72.9181 649.679C67.8769 659.875 57.7799 692.386 73.9845 698.056C88.5626 703.117 99.6164 672.421 104.71 663.105C108.98 655.359 131.069 624.848 115.573 618.041L115.642 618.001Z" fill="#F44E4A"/>
<path d="M147.533 681.277C133.296 691.318 123.776 706.375 118.078 722.688C112.851 737.452 108.743 754.941 119.133 768.521C121.278 771.29 125.337 771.223 127.94 769.264C139.941 760.241 142.719 744.705 147.218 731.362C152.045 717.01 156.832 702.589 159.397 687.631C160.54 680.779 152.185 678.135 147.504 681.384L147.533 681.277Z" fill="#F44E4A"/>
<path d="M219.434 733.101C206.802 747.498 195.295 760.06 191.763 779.493C189.137 794.031 188.775 820.375 206.593 825.842C222.393 830.653 223.678 807.327 223.399 797.38C222.939 779.706 222.232 757.348 231.436 741.744C235.698 734.457 224.992 726.796 219.474 733.169L219.434 733.101Z" fill="#F44E4A"/>
<path d="M793.027 680.867C788.715 679.076 783.157 683.014 783.188 687.64C783.458 702.146 790.112 715.879 791.233 730.44C792.238 743.064 787.68 760.721 795.027 771.869C796.623 774.317 799.548 776.544 802.634 775.581C821.302 769.903 823.175 744.599 821.392 728.417C819.305 710.135 811.206 688.22 792.959 680.906L793.027 680.867Z" fill="#F44E4A"/>
<path d="M838.914 584.799C829.141 577.966 818.221 592.649 826.172 600.899C834.387 609.451 841.978 618.181 848.342 628.258C854.114 637.31 856.99 648.126 863.093 656.804C869.236 665.551 883.019 665.607 886.431 654.167C895.664 623.156 860.266 599.7 838.914 584.799Z" fill="#F44E4A"/>
<path d="M819.35 508.952C806.606 511.484 812.3 529.232 823.424 529.73C845.418 530.601 856.945 548.988 874.635 558.809C882.461 563.215 891.115 556.124 890.981 548.005C890.426 513.448 846.208 503.736 819.458 508.981L819.35 508.952Z" fill="#F44E4A"/>
<path d="M201.914 590.145C183.051 578.452 157.589 585.139 137.72 591.419C123.986 595.706 92.8511 609.128 100.924 629.419C107.126 645.053 130.949 639.312 142.503 635.191C163.256 627.763 189.88 622.773 205.124 605.958C209.865 600.762 207.308 593.496 201.914 590.145Z" fill="#CB2522"/>
<path d="M223.094 625.087C201.033 626.623 182.032 643.239 165.069 656.129C148.886 668.477 131.137 680.637 136.519 703.209C138.753 712.756 149.253 715.801 157.599 714.169C174.644 710.885 188.687 692.305 199.823 680.048C212.156 666.552 226.805 652.176 230.282 633.594C231.085 629.306 227.876 624.694 223.123 624.979L223.094 625.087Z" fill="#CB2522"/>
<path d="M263.932 652.139C238.742 653.934 227.494 678.458 218.263 698.904C208.063 721.458 196.085 744.401 198.849 769.851C199.358 774.202 204.574 776.927 208.512 776.02C233.509 770.421 243.38 746.509 251.51 724.786C259.301 703.896 272.904 680.926 270.894 658.046C270.646 655.093 266.857 651.999 263.904 652.247L263.932 652.139Z" fill="#CB2522"/>
<path d="M837.743 509.896C817.345 502.64 787.226 511.197 766.54 516.219C745.717 521.32 719.872 529.867 708.896 549.499C705.897 554.873 708.682 560.642 714.751 561.691C737.6 565.619 762.826 554.424 785.418 551.125C806.543 548.125 831.761 550.322 844.576 530.72C849.463 523.255 846.189 512.851 837.636 509.867L837.743 509.896Z" fill="#CB2522"/>
<path d="M832.907 580.073C793.777 575.073 759.266 581.702 722.085 592.696C709.483 596.421 710.864 616.477 724.909 616.199C760.483 615.513 796.86 619.371 832.442 620.592C859.17 621.461 858.081 583.297 832.907 580.073Z" fill="#CB2522"/>
<path d="M707.624 625.998C694.782 619.844 686.121 638.595 696.126 646.934C712.07 660.039 727.992 670.425 745.628 681.097C760.919 690.39 772.668 703.641 787.754 713.053C796.161 718.307 810.153 714.782 810.58 703.061C812.628 648.88 743.503 643.348 707.595 626.106L707.624 625.998Z" fill="#CB2522"/>
<path d="M387.88 368.396C373.728 373.38 368.918 391.547 366.266 404.461C362.801 421.487 363.403 437.986 369.989 454.127C371.651 458.267 379.023 457.471 378.982 452.668C379.002 450.653 378.905 448.433 378.807 446.213C385.784 451.2 390.633 448.4 394.225 442.32C394.344 442.524 394.365 442.877 394.415 443.121C397.029 452.539 410.843 450.756 409.673 440.686C409.595 440.549 409.652 440.334 409.642 440.158C409.799 440.431 409.997 440.772 410.223 441.006C413.203 444.749 418.195 445.509 422.278 444.063C422.712 444.814 423.106 445.497 423.54 446.249C426.981 452.367 435.303 449.747 434.96 442.843C434.142 423.918 431.629 404.424 421.558 387.928C414.7 376.68 402.413 363.284 387.812 368.436L387.88 368.396Z" fill="#284256"/>
<path d="M581.999 367.873C566.984 367.891 556.44 383.541 549.663 394.83C540.769 409.709 535.89 425.548 536.828 442.946C537.024 447.386 544.192 449.075 545.756 444.53C546.383 442.619 547.068 440.494 547.753 438.368C552.695 445.35 558.217 444.347 563.557 439.716C563.539 440 563.521 440.283 563.463 440.499C562.812 450.254 576.412 453.148 578.715 443.258C578.773 443.042 578.802 442.935 578.86 442.719C579.018 442.992 579.039 443.345 579.168 443.725C580.782 448.257 585.234 450.605 589.577 450.556C589.698 451.397 589.887 452.198 590.077 452.999C591.34 459.919 600.047 460.174 602.052 453.552C607.498 435.383 611.609 416.162 607.544 397.291C604.757 384.421 597.611 367.784 582.096 367.726L581.999 367.873Z" fill="#284256"/>
<path d="M533.659 416.634C475.099 408.737 415.05 413.719 358.05 428.871C289.188 447.137 177.749 494.812 183.899 584.328C186.94 627.922 225.402 660.628 259.018 683.838C349.329 746.255 464.68 757.881 570.803 739.958C656.076 725.511 791.426 676.508 760.135 564.898C734.253 472.75 619.185 428.178 533.659 416.634Z" fill="#F44E4A"/>
<path d="M383.563 383C383.563 383 383.311 383.51 383.185 383.765C380.131 389.99 385.683 397.713 392.141 398.173L392.992 398.228C401.936 398.893 408.543 388.886 403.48 381.063C398.231 373.075 387.459 374.923 383.563 383Z" fill="white"/>
<path d="M576.158 378.265C569.533 382.089 567.455 392.213 571.855 398.415C576.639 405.124 584.903 406.818 592.006 402.717C598.631 398.892 600.708 388.769 596.308 382.567C591.524 375.858 583.261 374.164 576.158 378.265Z" fill="white"/>
<path d="M266.965 531.364C262.297 524.225 251.503 523.353 244.713 527.365C237.757 531.563 233.917 541.156 237.736 548.877C237.973 549.287 238.21 549.696 238.378 550.146C242.958 559.34 253.805 563.459 262.975 557.891C272.321 552.313 273.416 541.117 267.743 532.554C267.507 532.144 267.27 531.735 267.005 531.432L266.965 531.364Z" fill="#CB2522"/>
<path d="M288.12 491.198C288.12 491.198 287.653 491.65 287.351 491.916C283.794 495.062 282.595 500.398 284.688 504.654C286.544 508.5 291.91 511.958 296.305 510.422C296.579 510.265 296.931 510.243 297.243 510.154C303.758 508.032 308.317 501.575 304.902 494.713C301.881 488.535 293.284 486.578 288.052 491.237L288.12 491.198Z" fill="#CB2522"/>
<path d="M344.604 472.156C334.154 478.189 341.393 495.774 351.979 489.662C362.565 483.55 355.19 466.044 344.604 472.156Z" fill="#CB2522"/>
<path d="M588.026 644.239C588.026 644.239 587.371 644.525 587.059 644.615C579.17 647.985 576.073 657.605 580.4 664.942C584.698 672.386 594.488 674.201 601.351 669.055C601.625 668.897 601.927 668.632 602.16 668.406C615.01 658.801 602.689 637.776 587.986 644.17L588.026 644.239Z" fill="#CB2522"/>
<path d="M642.02 584.92C635.941 588.43 633.251 597.177 637.112 603.234C641.013 609.36 648.938 611.887 655.426 608.141C661.505 604.632 664.195 595.885 660.334 589.827C656.433 583.702 648.508 581.174 642.02 584.92Z" fill="#CB2522"/>
<path d="M660.421 633.674C654.001 637.38 651.274 646.695 655.333 653.094C659.538 659.59 667.855 662.165 674.753 658.182C681.173 654.476 683.9 645.161 679.841 638.762C675.635 632.266 667.319 629.691 660.421 633.674Z" fill="#CB2522"/>
<path d="M711.618 580.077C705.198 583.784 702.313 592.825 706.304 599.264C710.294 605.702 718.729 608.482 725.49 604.578C731.91 600.871 734.795 591.83 730.805 585.391C726.814 578.953 718.38 576.173 711.618 580.077Z" fill="#CB2522"/>
<path d="M491.939 436.812C486.202 440.124 483.74 447.374 486.926 453.366C489.954 459.085 497.743 461.691 503.48 458.379C509.217 455.067 511.679 447.817 508.493 441.825C505.464 436.106 497.676 433.5 491.939 436.812Z" fill="#CB2522"/>
<path d="M600.536 461.809C587.832 469.143 598.243 489.541 611.015 482.167C623.786 474.793 613.307 454.435 600.536 461.809Z" fill="#CB2522"/>
<path d="M401.651 654.403C394.932 659.01 395.88 667.751 401.82 672.518C402.046 672.752 402.301 672.878 402.527 673.112C405.756 675.709 411.163 675.137 414.244 672.903C417.804 670.393 419.331 666.414 418.647 662.074C418.626 661.722 418.536 661.409 418.515 661.057C417.307 653.286 407.687 650.189 401.612 654.334L401.651 654.403Z" fill="#CB2522"/>
<path d="M749.483 234.94C746.03 232.745 740.418 233.435 737.674 236.567C733.742 241.114 733.302 245.557 733.504 251.269C733.8 258.565 739.764 264.319 747.233 263.376C754.458 262.483 759.405 255.438 757.564 248.305C756.17 242.736 754.555 238.204 749.415 234.979L749.483 234.94Z" fill="#F44E4A"/>
<path d="M719.403 100.04C719.167 99.6305 719.135 99.1025 719.006 98.7215C718.967 98.6532 718.888 98.5166 718.848 98.4483L719.335 100.08L719.403 100.04Z" fill="#F44E4A"/>
<path d="M566.805 200.712C562.772 200.035 557.991 202.795 556.56 206.627C554.55 211.976 555.809 215.893 558.53 220.606C561.606 225.933 567.313 229.195 573.445 226.565C578.541 224.351 582.48 216.978 579.404 211.651C576.328 206.323 573.726 201.816 566.834 200.604L566.805 200.712Z" fill="#F44E4A"/>
<path d="M557.423 134.466C544.173 142.116 556.754 162.172 569.936 154.562C583.117 146.951 570.605 126.856 557.423 134.466Z" fill="#F44E4A"/>
<path d="M614.564 255.19C603.226 261.736 611.185 280.727 622.591 274.141C633.997 267.556 625.97 248.605 614.564 255.19Z" fill="#F44E4A"/>
<g style="mix-blend-mode:multiply">
<path d="M693.644 476.079C701.543 488.184 707.774 501.342 711.78 515.694C743.07 627.303 607.721 676.307 522.447 690.753C416.324 708.677 300.973 697.051 210.662 634.633C206.57 631.805 202.4 628.84 198.219 625.699C213.066 649.364 237.117 668.625 259.047 683.739C349.358 746.156 464.709 757.782 570.832 739.858C656.105 725.412 791.455 676.408 760.165 564.799C749.788 527.899 725.095 498.536 693.673 475.972L693.644 476.079Z" fill="#E8DDDD"/>
</g>
</g>
<defs>
<clipPath id="clip0_4090_3482">
<rect width="948.1" height="963.4" fill="white" transform="translate(0.00830078 0.495117)"/>
</clipPath>
</defs>
</svg>
