<svg width="934" height="946" viewBox="0 0 934 946" fill="none" xmlns="http://www.w3.org/2000/svg">
<g clip-path="url(#clip0_4090_3203)">
<path d="M272.408 591.723L256.247 587.724C270.909 529.077 304.73 478.261 335.387 435.276C423.69 310.819 507.328 226.348 598.297 169.367L607.127 183.529C517.991 239.177 436.019 322.315 348.882 444.94C319.226 486.759 286.403 536.075 272.408 591.889V591.723Z" fill="#A33329"/>
<path d="M680.088 665.672C640.435 536.55 644.267 383.935 692.084 199.332L694.084 191.335C706.913 141.518 720.075 89.8693 752.897 49.5498L765.892 60.0462C735.403 97.7 722.574 147.35 710.245 195.5L708.246 203.497C661.262 385.102 657.263 534.717 696.083 660.841L680.088 665.672Z" fill="#A33329"/>
<path d="M787.728 12.9138C790.56 8.91515 793.226 4.91651 797.391 2.25076C801.39 -0.248384 807.221 -0.581603 810.72 2.75059C815.218 7.41566 812.886 15.2463 809.22 20.7444C799.89 35.2395 785.395 45.5693 769.734 52.5669C760.237 56.8987 742.243 66.3955 732.58 60.8974C754.906 49.5679 773.066 33.5734 787.728 12.9138Z" fill="#A33329"/>
<path d="M774.89 51.2388C774.89 51.2388 773.724 52.9049 771.558 56.2371C747.067 91.3918 585.289 302.153 308.05 175.03C306.884 174.53 305.718 173.864 304.551 173.53C304.551 173.53 306.884 170.698 311.549 165.533C347.703 126.213 521.644 -42.3958 767.559 48.7397C770.059 49.5728 772.391 50.4058 774.89 51.4055V51.2388Z" fill="#6C971B"/>
<path d="M774.89 51.2361C774.89 51.2361 773.724 52.9022 771.558 56.2344L308.05 175.027C306.884 174.527 305.718 173.861 304.551 173.528C304.551 173.528 306.884 170.695 311.549 165.53L767.559 48.5703C770.059 49.4034 772.391 50.2364 774.89 51.2361Z" fill="#3D6609"/>
<path d="M486.325 127.046C486.325 127.046 485.659 127.046 485.159 127.046L403.52 104.22C401.355 103.554 400.022 101.222 400.688 99.0556C401.355 96.8897 403.687 95.5568 405.853 96.2232L487.492 119.049C489.658 119.715 490.99 122.048 490.324 124.214C489.824 126.046 488.158 127.213 486.325 127.213V127.046Z" fill="#3D6609"/>
<path d="M593.962 97.7122C593.962 97.7122 592.795 97.7122 592.295 97.3789L503.492 59.3919C501.327 58.5589 500.327 56.0597 501.327 53.8938C502.16 51.7279 504.659 50.7282 506.825 51.7279L595.628 89.7149C597.794 90.5479 598.793 93.0471 597.794 95.213C597.127 96.7125 595.628 97.7122 593.962 97.7122Z" fill="#3D6609"/>
<path d="M708.579 71.0523C708.579 71.0523 707.412 71.0523 706.913 70.7191C674.924 56.5573 625.94 35.2313 622.775 34.2316C620.609 33.5652 619.443 31.2326 620.109 29.0667C620.775 26.9008 623.108 25.7345 625.274 26.401C629.439 27.7338 702.081 59.5563 710.411 63.2217C712.577 64.2214 713.41 66.5539 712.577 68.7198C711.911 70.2193 710.411 71.219 708.745 71.219L708.579 71.0523Z" fill="#3D6609"/>
<path d="M413.014 189.851C412.014 189.851 411.014 189.517 410.181 188.684C408.515 187.185 408.349 184.519 410.015 182.853C414.18 178.521 478.491 127.872 485.822 122.04C487.655 120.708 490.32 120.874 491.653 122.707C493.153 124.54 492.82 127.205 490.987 128.538C462.497 150.864 419.012 185.352 416.179 188.351C415.346 189.184 414.18 189.684 413.18 189.684L413.014 189.851Z" fill="#3D6609"/>
<path d="M509.644 189.68C509.644 189.68 507.978 189.514 507.311 188.847C505.479 187.514 504.979 185.015 506.312 183.016C510.31 177.185 585.285 102.544 593.782 94.0464C595.448 92.3804 598.114 92.3804 599.613 94.0464C601.279 95.7125 601.279 98.3783 599.613 99.8778C566.458 132.866 516.142 183.516 513.143 187.681C512.31 188.847 510.977 189.514 509.81 189.514L509.644 189.68Z" fill="#3D6609"/>
<path d="M642.099 147.036C640.932 147.036 639.766 146.537 639.1 145.704C637.6 144.037 637.6 141.372 639.433 139.872C648.597 131.542 705.244 65.5643 705.744 64.8978C707.243 63.2318 709.909 62.8985 711.575 64.398C713.241 65.8975 713.574 68.5633 712.075 70.2294C709.742 72.8951 654.428 137.373 645.098 145.87C644.265 146.537 643.265 147.036 642.265 147.036H642.099Z" fill="#3D6609"/>
<path d="M613.948 608.536C579.127 599.205 540.64 603.537 509.817 622.198C468.998 647.022 453.17 696.172 454.336 742.323C458.001 886.94 629.11 965.413 755.9 940.922C810.214 930.425 862.03 896.27 894.852 851.286C923.509 811.966 939.337 761.816 932.006 713.666C924.675 665.349 892.02 620.365 846.369 604.537C807.715 591.208 768.895 597.373 733.574 615.033C690.922 636.359 656.434 620.032 613.948 608.702V608.536Z" fill="#F03A4B"/>
<path d="M404.531 591.533C351.716 574.538 283.739 598.697 239.921 554.712C205.599 520.224 185.106 492.733 131.458 494.899C63.3144 497.898 4.33459 562.209 0.669176 629.353C-2.16319 680.336 14.831 731.152 43.8211 772.471C57.6497 792.131 76.1433 815.623 96.9696 827.952C123.46 843.446 154.95 860.607 185.606 864.939C249.917 873.936 317.228 876.102 374.874 841.947C421.858 814.123 455.18 765.473 465.01 711.492C474.507 660.009 457.18 608.693 404.531 591.866V591.533Z" fill="#F03A4B"/>
<path d="M68.4671 541.567C67.4675 542.734 66.6344 544.067 65.8014 545.399C35.4784 594.216 129.946 577.222 152.772 565.059C177.263 552.064 176.93 521.741 147.607 514.577C123.282 508.745 84.6283 521.074 68.6337 541.567H68.4671Z" fill="#FF929B"/>
<path d="M503.813 676.344C506.646 679.01 510.478 680.509 514.31 681.676C540.134 689.506 573.29 687.007 595.449 671.512C642.766 638.19 594.449 611.033 555.629 620.696C536.469 625.362 476.823 651.019 503.813 676.511V676.344Z" fill="#FF929B"/>
<path d="M431.512 721.991C411.519 772.64 375.364 817.125 326.548 837.784C277.898 858.444 217.252 855.945 166.436 842.116C161.271 840.783 155.94 838.951 152.274 834.952C143.61 825.622 149.775 808.794 160.605 802.297C171.434 795.799 184.596 796.299 197.092 795.632C224.25 794.466 251.24 787.302 275.732 775.139C293.892 765.976 311.22 753.647 322.882 736.486C333.046 721.324 338.377 703.33 344.542 686.17C354.871 656.846 380.696 613.528 417.85 624.691C453.005 635.354 441.342 696.999 431.679 721.824L431.512 721.991Z" fill="#DB2340"/>
<path d="M907.18 736.678C894.851 805.488 857.697 859.302 795.385 891.458C759.564 909.952 717.412 918.949 677.425 919.115C660.265 919.115 629.109 921.781 623.777 899.455C621.278 889.292 628.442 878.796 638.439 872.298C648.269 865.8 660.598 862.301 672.427 858.636C721.244 843.974 772.726 821.482 791.886 781.662C799.05 766.501 801.05 750.173 804.382 734.345C810.38 706.022 829.707 672.2 870.193 670.034C911.678 667.701 911.512 713.019 907.347 736.678H907.18Z" fill="#DB2340"/>
</g>
<defs>
<clipPath id="clip0_4090_3203">
<rect width="933.514" height="944.843" fill="white" transform="translate(0.328613 0.414062)"/>
</clipPath>
</defs>
</svg>
