<svg width="503" height="489" viewBox="0 0 503 489" fill="none" xmlns="http://www.w3.org/2000/svg">
    <path
        d="M335.36 224.405C351.037 242.809 372.8 247.797 379.193 237.089C404.397 254.373 428.889 252.175 452.689 231.246C454.521 229.658 456.333 227.947 458.165 226.095C465.454 232.895 479.257 227.54 489.538 214.022C502.344 197.226 509.653 167.787 492.002 133.645C490.963 131.65 489.864 129.634 488.663 127.598C479.074 111.454 468.65 102.191 458.43 97.3044C428.482 82.9514 400.366 106.527 400.468 107.097C400.387 106.466 357.267 87.3897 332.938 123.995C328.398 130.815 324.509 139.57 321.679 150.767C313.291 183.87 322.168 208.892 335.381 224.385L335.36 224.405Z"
        fill="#FEA13A" />
    <g style="mix-blend-mode:soft-light" opacity="0.2">
        <path
            d="M335.36 224.405C351.037 242.809 372.8 247.797 379.193 237.089C404.397 254.373 428.889 252.175 452.689 231.246C454.521 229.658 456.333 227.947 458.165 226.095C465.454 232.895 479.257 227.54 489.538 214.022C502.344 197.226 509.653 167.787 492.002 133.645C490.963 131.65 489.864 129.634 488.663 127.598C479.074 111.454 468.65 102.191 458.43 97.3044C428.482 82.9514 400.366 106.527 400.468 107.097C400.387 106.466 357.267 87.3897 332.938 123.995C328.398 130.815 324.509 139.57 321.679 150.767C313.291 183.87 322.168 208.892 335.381 224.385L335.36 224.405Z"
            fill="#FFFFF2" />
    </g>
    <g style="mix-blend-mode:multiply" opacity="0.3">
        <path
            d="M335.36 224.392C351.037 242.796 372.8 247.784 379.193 237.075C404.397 254.36 428.889 252.161 452.689 231.232C454.521 229.644 456.333 227.934 458.165 226.081C465.454 232.881 479.257 227.527 489.538 214.009C482.576 212.136 472.946 212.115 459.997 214.457C353.134 233.716 332.938 124.002 332.938 124.002C328.398 130.822 324.509 139.577 321.679 150.774C313.291 183.877 322.168 208.899 335.381 224.392H335.36Z"
            fill="#606060" />
    </g>
    <g style="mix-blend-mode:multiply" opacity="0.3">
        <path
            d="M457.862 222.334C457.862 222.334 484.777 140.308 426.855 111.521C426.855 111.521 463.664 150.977 457.862 222.334Z"
            fill="#606060" />
    </g>
    <path opacity="0.2"
        d="M451.646 101.929C451.646 101.929 478.662 109.36 485.279 146.128C485.279 146.128 469.012 108.24 439.797 104.311L451.646 101.929Z"
        fill="#FFFFF2" />
    <g style="mix-blend-mode:multiply" opacity="0.3">
        <path
            d="M378.658 234.426C378.658 234.426 330.285 163.353 378.007 119.195C378.007 119.195 353.515 167.568 378.658 234.426Z"
            fill="#606060" />
    </g>
    <path
        d="M409.139 102.723L424.184 105.879C424.184 105.879 403.439 128.559 381.695 110.806L394.521 104.597C394.521 104.597 390.104 69.8235 410.076 60.6824C413.374 60.8249 415.145 62.1279 416.122 64.0212C416.122 64.0212 398.471 78.2114 409.159 102.723H409.139Z"
        fill="#578E43" />
    <g style="mix-blend-mode:multiply" opacity="0.2">
        <path
            d="M409.139 102.733L424.184 105.888C424.184 105.888 403.439 128.568 381.695 110.815C399.428 117.147 402.624 104.504 402.624 104.504C397.046 78.3429 412.356 64.336 412.356 64.336C410.015 63.2977 410.076 60.6714 410.076 60.6714C413.374 60.8139 415.145 62.1169 416.122 64.0102C416.122 64.0102 398.471 78.2004 409.159 102.713L409.139 102.733Z"
            fill="#606060" />
    </g>
    <path
        d="M26.0266 228.58C38.996 243.806 57.0016 247.933 62.2905 239.073C83.1426 253.373 103.405 251.554 123.095 234.239C124.611 232.925 126.11 231.51 127.626 229.978C133.656 235.603 145.076 231.173 153.582 219.989C164.176 206.094 170.223 181.738 155.62 153.492C154.761 151.841 153.851 150.173 152.858 148.489C144.924 135.132 136.3 127.468 127.845 123.426C103.068 111.551 79.8076 131.056 79.8918 131.528C79.8245 131.006 44.1501 115.223 24.0222 145.508C20.2661 151.15 17.049 158.393 14.7078 167.657C7.76828 195.044 15.112 215.745 26.0434 228.563L26.0266 228.58Z"
        fill="#FF951F" />
    <g style="mix-blend-mode:soft-light" opacity="0.2">
        <path
            d="M26.0266 228.58C38.996 243.806 57.0016 247.933 62.2905 239.073C83.1426 253.373 103.405 251.554 123.095 234.239C124.611 232.925 126.11 231.51 127.626 229.978C133.656 235.603 145.076 231.173 153.582 219.989C164.176 206.094 170.223 181.738 155.62 153.492C154.761 151.841 153.851 150.173 152.858 148.489C144.924 135.132 136.3 127.468 127.845 123.426C103.068 111.551 79.8076 131.056 79.8918 131.528C79.8245 131.006 44.1501 115.223 24.0222 145.508C20.2661 151.15 17.049 158.393 14.7078 167.657C7.76828 195.044 15.112 215.745 26.0434 228.563L26.0266 228.58Z"
            fill="#FFFFF2" />
    </g>
    <g style="mix-blend-mode:multiply" opacity="0.3">
        <path
            d="M26.0266 228.564C38.996 243.79 57.0016 247.917 62.2905 239.057C83.1426 253.357 103.405 251.538 123.095 234.223C124.611 232.909 126.11 231.494 127.626 229.962C133.656 235.587 145.076 231.158 153.582 219.974C147.821 218.424 139.854 218.407 129.142 220.344C40.7309 236.278 24.0222 145.509 24.0222 145.509C20.2661 151.151 17.049 158.394 14.7078 167.658C7.76828 195.045 15.112 215.746 26.0434 228.564H26.0266Z"
            fill="#606060" />
    </g>
    <g style="mix-blend-mode:multiply" opacity="0.3">
        <path
            d="M127.371 226.867C127.371 226.867 149.638 159.005 101.719 135.189C101.719 135.189 132.172 167.831 127.371 226.867Z"
            fill="#606060" />
    </g>
    <path opacity="0.2"
        d="M122.233 127.25C122.233 127.25 144.584 133.398 150.058 163.818C150.058 163.818 136.6 132.472 112.43 129.221L122.233 127.25Z"
        fill="#FFFFF2" />
    <g style="mix-blend-mode:multiply" opacity="0.3">
        <path
            d="M61.8459 236.873C61.8459 236.873 21.8259 178.073 61.3069 141.54C61.3069 141.54 41.0442 181.56 61.8459 236.873Z"
            fill="#606060" />
    </g>
    <path
        d="M87.0643 127.915L99.5116 130.526C99.5116 130.526 82.3482 149.29 64.3594 134.602L74.9707 129.465C74.9707 129.465 71.3157 100.696 87.8391 93.1335C90.5677 93.2514 92.0331 94.3294 92.8416 95.8959C92.8416 95.8959 78.2384 107.636 87.0812 127.915H87.0643Z"
        fill="#578E43" />
    <g style="mix-blend-mode:multiply" opacity="0.2">
        <path
            d="M87.0643 127.921L99.5116 130.532C99.5116 130.532 82.3482 149.295 64.3594 134.608C79.03 139.846 81.6744 129.386 81.6744 129.386C77.0593 107.743 89.7256 96.1544 89.7256 96.1544C87.7886 95.2954 87.8391 93.1226 87.8391 93.1226C90.5677 93.2405 92.0331 94.3184 92.8416 95.8849C92.8416 95.8849 78.2384 107.625 87.0812 127.904L87.0643 127.921Z"
            fill="#606060" />
    </g>
    <path
        d="M135.306 216.59C156.043 240.936 184.832 247.534 193.288 233.368C226.629 256.233 259.027 253.324 290.509 225.639C292.933 223.539 295.33 221.276 297.754 218.826C307.395 227.821 325.654 220.738 339.255 202.856C356.194 180.638 365.862 141.695 342.513 96.5321C341.14 93.8928 339.685 91.2266 338.096 88.5335C325.412 67.1773 311.623 54.9236 298.104 48.4602C258.488 29.4738 221.297 60.66 221.431 61.414C221.324 60.5792 164.284 35.3448 132.101 83.7668C126.096 92.7886 120.952 104.369 117.208 119.181C106.113 162.971 117.855 196.069 135.333 216.564L135.306 216.59Z"
        fill="#FE882D" />
    <g style="mix-blend-mode:soft-light" opacity="0.2">
        <path
            d="M135.306 216.59C156.043 240.936 184.832 247.534 193.288 233.368C226.629 256.233 259.027 253.324 290.509 225.639C292.933 223.539 295.33 221.276 297.754 218.826C307.395 227.821 325.654 220.738 339.255 202.856C356.194 180.638 365.862 141.695 342.513 96.5321C341.14 93.8928 339.685 91.2266 338.096 88.5335C325.412 67.1773 311.623 54.9236 298.104 48.4602C258.488 29.4738 221.297 60.66 221.431 61.414C221.324 60.5792 164.284 35.3448 132.101 83.7668C126.096 92.7886 120.952 104.369 117.208 119.181C106.113 162.971 117.855 196.069 135.333 216.564L135.306 216.59Z"
            fill="#FFFFF2" />
    </g>
    <g style="mix-blend-mode:multiply" opacity="0.3">
        <path
            d="M135.306 216.582C156.043 240.928 184.832 247.526 193.288 233.36C226.629 256.225 259.027 253.316 290.509 225.631C292.933 223.531 295.33 221.268 297.754 218.818C307.395 227.813 325.654 220.73 339.254 202.848C330.044 200.37 317.306 200.343 300.178 203.44C158.817 228.917 132.101 83.7856 132.101 83.7856C126.096 92.8075 120.952 104.388 117.208 119.2C106.113 162.99 117.855 196.088 135.333 216.582H135.306Z"
            fill="#606060" />
    </g>
    <g style="mix-blend-mode:multiply" opacity="0.3">
        <path
            d="M297.352 213.844C297.352 213.844 332.955 105.339 256.336 67.2583C256.336 67.2583 305.027 119.451 297.352 213.844Z"
            fill="#606060" />
    </g>
    <path opacity="0.2"
        d="M289.131 54.5679C289.131 54.5679 324.868 64.3977 333.621 113.035C333.621 113.035 312.103 62.9165 273.457 57.7188L289.131 54.5679Z"
        fill="#FFFFF2" />
    <g style="mix-blend-mode:multiply" opacity="0.3">
        <path
            d="M192.587 229.842C192.587 229.842 128.599 135.826 191.725 77.4128C191.725 77.4128 159.327 141.401 192.587 229.842Z"
            fill="#606060" />
    </g>
    <path
        d="M232.905 55.6345L252.807 59.8088C252.807 59.8088 225.364 89.8099 196.602 66.3261L213.568 58.1121C213.568 58.1121 207.724 12.114 234.143 0.0219727C238.506 0.21049 240.849 1.93407 242.142 4.43866C242.142 4.43866 218.793 23.2096 232.931 55.6345H232.905Z"
        fill="#578E43" />
    <g style="mix-blend-mode:multiply" opacity="0.2">
        <path
            d="M232.905 55.6395L252.807 59.8138C252.807 59.8138 225.364 89.8149 196.602 66.3311C220.058 74.7066 224.287 57.9825 224.287 57.9825C216.908 23.3761 237.16 4.84758 237.16 4.84758C234.063 3.4741 234.143 0 234.143 0C238.506 0.188517 240.849 1.9121 242.142 4.41668C242.142 4.41668 218.793 23.1876 232.931 55.6125L232.905 55.6395Z"
            fill="#606060" />
    </g>
    <g opacity="0.1">
        <path
            d="M323.36 264.265C339.037 245.86 360.8 240.872 367.193 251.581C392.397 234.296 416.889 236.495 440.689 257.424C442.521 259.012 444.333 260.722 446.165 262.575C453.454 255.775 467.257 261.129 477.538 274.648C490.344 291.444 497.653 320.883 480.002 355.025C478.963 357.02 477.864 359.035 476.663 361.071C467.074 377.216 456.65 386.479 446.43 391.365C416.482 405.718 388.366 382.143 388.468 381.573C388.387 382.204 345.267 401.28 320.938 364.675C316.398 357.854 312.509 349.1 309.679 337.903C301.291 304.799 310.168 279.778 323.381 264.285L323.36 264.265Z"
            fill="#FEA13A" />
        <g style="mix-blend-mode:soft-light" opacity="0.2">
            <path
                d="M323.36 264.265C339.037 245.86 360.8 240.872 367.193 251.581C392.397 234.296 416.889 236.495 440.689 257.424C442.521 259.012 444.333 260.722 446.165 262.575C453.454 255.775 467.257 261.129 477.538 274.648C490.344 291.444 497.653 320.883 480.002 355.025C478.963 357.02 477.864 359.035 476.663 361.071C467.074 377.216 456.65 386.479 446.43 391.365C416.482 405.718 388.366 382.143 388.468 381.573C388.387 382.204 345.267 401.28 320.938 364.675C316.398 357.854 312.509 349.1 309.679 337.903C301.291 304.799 310.168 279.778 323.381 264.285L323.36 264.265Z"
                fill="#FFFFF2" />
        </g>
        <g style="mix-blend-mode:multiply" opacity="0.3">
            <path
                d="M323.36 264.278C339.037 245.874 360.8 240.886 367.193 251.594C392.397 234.31 416.889 236.509 440.689 257.437C442.521 259.025 444.333 260.736 446.165 262.588C453.454 255.788 467.257 261.143 477.538 274.661C470.576 276.534 460.946 276.554 447.997 274.213C341.134 254.954 320.938 364.668 320.938 364.668C316.398 357.847 312.509 349.093 309.679 337.896C301.291 304.792 310.168 279.771 323.381 264.278H323.36Z"
                fill="#606060" />
        </g>
        <g style="mix-blend-mode:multiply" opacity="0.3">
            <path
                d="M445.862 266.335C445.862 266.335 472.777 348.361 414.855 377.149C414.855 377.149 451.664 337.693 445.862 266.335Z"
                fill="#606060" />
        </g>
        <path opacity="0.2"
            d="M439.646 386.741C439.646 386.741 466.662 379.31 473.279 342.542C473.279 342.542 457.012 380.43 427.797 384.359L439.646 386.741Z"
            fill="#FFFFF2" />
        <g style="mix-blend-mode:multiply" opacity="0.3">
            <path
                d="M366.658 254.243C366.658 254.243 318.285 325.316 366.007 369.475C366.007 369.475 341.515 321.102 366.658 254.243Z"
                fill="#606060" />
        </g>
        <path
            d="M397.139 385.946L412.184 382.791C412.184 382.791 391.439 360.111 369.695 377.864L382.521 384.073C382.521 384.073 378.104 418.846 398.076 427.987C401.374 427.845 403.145 426.542 404.122 424.648C404.122 424.648 386.471 410.458 397.159 385.946H397.139Z"
            fill="#578E43" />
        <g style="mix-blend-mode:multiply" opacity="0.2">
            <path
                d="M397.139 385.937L412.184 382.781C412.184 382.781 391.439 360.101 369.695 377.854C387.428 371.523 390.624 384.166 390.624 384.166C385.046 410.327 400.356 424.334 400.356 424.334C398.015 425.372 398.076 427.998 398.076 427.998C401.374 427.856 403.145 426.553 404.122 424.659C404.122 424.659 386.471 410.469 397.159 385.957L397.139 385.937Z"
                fill="#606060" />
        </g>
        <path
            d="M14.0266 260.09C26.996 244.864 45.0016 240.737 50.2905 249.597C71.1426 235.297 91.4053 237.116 111.095 254.431C112.611 255.745 114.11 257.159 115.626 258.692C121.656 253.066 133.076 257.496 141.582 268.68C152.176 282.576 158.223 306.932 143.62 335.178C142.761 336.829 141.851 338.496 140.858 340.181C132.924 353.537 124.3 361.201 115.845 365.244C91.0684 377.118 67.8076 357.614 67.8918 357.142C67.8245 357.664 32.1501 373.446 12.0222 343.162C8.2661 337.519 5.04901 330.277 2.70777 321.013C-4.23172 293.625 3.11201 272.925 14.0434 260.107L14.0266 260.09Z"
            fill="#FF951F" />
        <g style="mix-blend-mode:soft-light" opacity="0.2">
            <path
                d="M14.0266 260.09C26.996 244.864 45.0016 240.737 50.2905 249.597C71.1426 235.297 91.4053 237.116 111.095 254.431C112.611 255.745 114.11 257.159 115.626 258.692C121.656 253.066 133.076 257.496 141.582 268.68C152.176 282.576 158.223 306.932 143.62 335.178C142.761 336.829 141.851 338.496 140.858 340.181C132.924 353.537 124.3 361.201 115.845 365.244C91.0684 377.118 67.8076 357.614 67.8918 357.142C67.8245 357.664 32.1501 373.446 12.0222 343.162C8.2661 337.519 5.04901 330.277 2.70777 321.013C-4.23172 293.625 3.11201 272.925 14.0434 260.107L14.0266 260.09Z"
                fill="#FFFFF2" />
        </g>
        <g style="mix-blend-mode:multiply" opacity="0.3">
            <path
                d="M14.0266 260.106C26.996 244.879 45.0016 240.753 50.2905 249.613C71.1426 235.312 91.4053 237.132 111.095 254.447C112.611 255.76 114.11 257.175 115.626 258.708C121.656 253.082 133.076 257.512 141.582 268.696C135.821 270.246 127.854 270.263 117.142 268.326C28.7309 252.392 12.0222 343.161 12.0222 343.161C8.2661 337.518 5.04901 330.276 2.70777 321.012C-4.23172 293.624 3.11201 272.924 14.0434 260.106H14.0266Z"
                fill="#606060" />
        </g>
        <g style="mix-blend-mode:multiply" opacity="0.3">
            <path
                d="M115.371 261.802C115.371 261.802 137.638 329.664 89.7188 353.481C89.7188 353.481 120.172 320.838 115.371 261.802Z"
                fill="#606060" />
        </g>
        <path opacity="0.2"
            d="M110.233 361.419C110.233 361.419 132.584 355.271 138.058 324.852C138.058 324.852 124.6 356.198 100.43 359.449L110.233 361.419Z"
            fill="#FFFFF2" />
        <g style="mix-blend-mode:multiply" opacity="0.3">
            <path
                d="M49.8459 251.796C49.8459 251.796 9.8259 310.597 49.3069 347.13C49.3069 347.13 29.0442 307.11 49.8459 251.796Z"
                fill="#606060" />
        </g>
        <path
            d="M75.0643 360.754L87.5116 358.144C87.5116 358.144 70.3482 339.38 52.3594 354.068L62.9707 359.205C62.9707 359.205 59.3157 387.973 75.8391 395.536C78.5677 395.418 80.0331 394.34 80.8416 392.774C80.8416 392.774 66.2384 381.034 75.0812 360.754H75.0643Z"
            fill="#578E43" />
        <g style="mix-blend-mode:multiply" opacity="0.2">
            <path
                d="M75.0643 360.749L87.5116 358.138C87.5116 358.138 70.3482 339.374 52.3594 354.062C67.03 348.823 69.6744 359.283 69.6744 359.283C65.0593 380.927 77.7256 392.515 77.7256 392.515C75.7886 393.374 75.8391 395.547 75.8391 395.547C78.5677 395.429 80.0331 394.351 80.8416 392.785C80.8416 392.785 66.2384 381.045 75.0812 360.765L75.0643 360.749Z"
                fill="#606060" />
        </g>
        <path
            d="M123.306 272.079C144.043 247.734 172.832 241.135 181.288 255.301C214.629 232.437 247.027 235.345 278.509 263.03C280.933 265.131 283.33 267.393 285.754 269.844C295.395 260.849 313.654 267.932 327.255 285.814C344.194 308.032 353.862 346.974 330.513 392.138C329.14 394.777 327.685 397.443 326.096 400.136C313.412 421.492 299.623 433.746 286.104 440.209C246.488 459.196 209.297 428.01 209.431 427.256C209.324 428.091 152.284 453.325 120.101 404.903C114.096 395.881 108.952 384.301 105.208 369.489C94.1128 325.699 105.855 292.601 123.333 272.106L123.306 272.079Z"
            fill="#FE882D" />
        <g style="mix-blend-mode:soft-light" opacity="0.2">
            <path
                d="M123.306 272.079C144.043 247.734 172.832 241.135 181.288 255.301C214.629 232.437 247.027 235.345 278.509 263.03C280.933 265.131 283.33 267.393 285.754 269.844C295.395 260.849 313.654 267.932 327.255 285.814C344.194 308.032 353.862 346.974 330.513 392.138C329.14 394.777 327.685 397.443 326.096 400.136C313.412 421.492 299.623 433.746 286.104 440.209C246.488 459.196 209.297 428.01 209.431 427.256C209.324 428.091 152.284 453.325 120.101 404.903C114.096 395.881 108.952 384.301 105.208 369.489C94.1128 325.699 105.855 292.601 123.333 272.106L123.306 272.079Z"
                fill="#FFFFF2" />
        </g>
        <g style="mix-blend-mode:multiply" opacity="0.3">
            <path
                d="M123.306 272.087C144.043 247.742 172.832 241.144 181.288 255.309C214.629 232.445 247.027 235.353 278.509 263.038C280.933 265.139 283.33 267.401 285.754 269.852C295.395 260.857 313.654 267.94 327.254 285.822C318.044 288.3 305.306 288.327 288.178 285.23C146.817 259.753 120.101 404.884 120.101 404.884C114.096 395.862 108.952 384.282 105.208 369.47C94.1128 325.68 105.855 292.582 123.333 272.087H123.306Z"
                fill="#606060" />
        </g>
        <g style="mix-blend-mode:multiply" opacity="0.3">
            <path
                d="M285.352 274.826C285.352 274.826 320.955 383.331 244.336 421.411C244.336 421.411 293.027 369.219 285.352 274.826Z"
                fill="#606060" />
        </g>
        <path opacity="0.2"
            d="M277.131 434.102C277.131 434.102 312.868 424.272 321.621 375.635C321.621 375.635 300.103 425.753 261.457 430.951L277.131 434.102Z"
            fill="#FFFFF2" />
        <g style="mix-blend-mode:multiply" opacity="0.3">
            <path
                d="M180.587 258.827C180.587 258.827 116.599 352.843 179.725 411.257C179.725 411.257 147.327 347.269 180.587 258.827Z"
                fill="#606060" />
        </g>
        <path
            d="M220.905 433.035L240.807 428.861C240.807 428.861 213.364 398.86 184.602 422.344L201.568 430.558C201.568 430.558 195.724 476.556 222.143 488.648C226.506 488.459 228.849 486.736 230.142 484.231C230.142 484.231 206.793 465.46 220.931 433.035H220.905Z"
            fill="#578E43" />
        <g style="mix-blend-mode:multiply" opacity="0.2">
            <path
                d="M220.905 433.03L240.807 428.856C240.807 428.856 213.364 398.855 184.602 422.339C208.058 413.963 212.287 430.687 212.287 430.687C204.908 465.294 225.16 483.822 225.16 483.822C222.063 485.196 222.143 488.67 222.143 488.67C226.506 488.481 228.849 486.758 230.142 484.253C230.142 484.253 206.793 465.482 220.931 433.057L220.905 433.03Z"
                fill="#606060" />
        </g>
    </g>
</svg>
