<svg width="338" height="345" viewBox="0 0 338 345" fill="none" xmlns="http://www.w3.org/2000/svg">
    <g clip-path="url(#clip0_2397_56600)">
        <path
            d="M336.323 248.872C334.36 248.554 332.166 248.707 330.482 247.852C321.983 243.5 313.054 244.136 304.634 246.772C276.519 255.59 252.017 270.49 232.579 292.875C222.237 304.78 217.033 318.891 217.55 334.818C217.663 338.402 218.406 341.959 218.79 345C215.237 340.151 211.935 334.52 207.573 329.889C192.929 314.353 174.473 307.927 153.345 308.45C141.312 308.749 129.963 311.584 119.654 317.851C112.634 322.118 106.031 326.894 103.392 335.387C102.895 336.997 101.317 338.276 100.237 339.707C99.9714 339.555 99.7128 339.402 99.4476 339.243C100.316 336.262 101.417 333.327 102.013 330.299C104.022 320.077 102.67 310.067 99.2819 300.368C92.911 282.11 83.1194 265.826 69.3767 252.172C58.531 241.393 45.312 235.51 29.819 235.994C24.8271 236.153 19.8816 237.57 14.7305 238.445C14.346 235.808 16.6066 234.404 18.6949 234.231C23.9984 233.787 26.0602 230.064 28.1816 226.162C35.0563 213.515 38.8947 199.861 40.8106 185.73C42.0834 176.369 42.8458 166.862 42.7795 157.422C42.7066 146.06 40.7443 134.871 36.5545 124.158C31.4167 111.014 22.1555 102.548 8.55193 98.7382C5.86702 97.9896 3.3147 96.7309 0 95.4324C3.78539 93.9881 6.76862 94.2531 9.47341 95.6974C12.6688 97.4066 15.7912 99.3345 18.6817 101.507C25.4569 106.609 33.0409 106.642 40.4592 104.336C68.5414 95.6179 90.3852 78.8899 104.015 52.5161C110.121 40.7038 111.46 28.282 106.389 15.4694C104.745 11.3222 104.234 6.72452 103.724 2.20631C107.794 5.9229 109.14 10.8254 109.829 15.7411C111.321 26.3741 117.685 32.9129 126.887 37.2721C140.126 43.5459 154.2 46.3217 168.692 44.9106C187.181 43.1153 202.992 34.8341 216.675 22.4322C217.411 21.7631 217.71 20.5773 218.107 19.5901C220.766 12.9983 223.398 6.3999 226.792 0.00683594C226.082 4.06792 225.85 8.28138 224.571 12.157C221.071 22.7767 223.364 32.0914 229.092 41.3862C237.538 55.0865 249.67 64.5403 263.074 72.689C276.817 81.043 291.409 87.4361 307.213 90.7684C317.555 92.948 327.95 93.1468 338 91.04C334.732 93.7165 330.946 96.2804 327.797 99.4802C319.458 107.953 314.167 118.368 309.818 129.292C303.693 144.682 300.027 160.615 299.835 177.204C299.503 206.036 311.038 229.064 334.181 246.289C334.964 246.872 335.726 247.475 336.495 248.064C336.442 248.329 336.382 248.601 336.323 248.872ZM317.502 101.958C311.204 105.052 305.052 108.444 298.608 111.14C292.125 113.85 285.343 115.85 278.7 118.196C265.713 122.78 257.267 131.499 253.701 144.987C249.577 160.575 249.962 176.071 253.787 191.613C257.042 204.837 263.539 215.383 277.063 220.286C279.23 221.074 281.285 222.187 283.467 222.949C293.51 226.46 303.574 229.899 313.63 233.357C312.371 230.793 310.826 228.812 309.288 226.825C301.963 217.358 296.487 207.049 295.101 194.952C293.61 181.934 294.392 169.009 296.951 156.183C300.332 139.243 305.529 122.979 314.691 108.152C315.984 106.059 316.753 103.641 317.502 101.958ZM213.228 319.832C213.632 319.693 214.037 319.554 214.435 319.415C214.614 318.911 214.819 318.414 214.978 317.904C220.865 298.341 232.254 282.646 248.43 270.304C262.796 259.34 279.051 252.039 295.897 245.904C301.505 243.857 307.193 242.029 313.073 240.022C312.59 239.584 312.391 239.319 312.125 239.187C300.285 233.304 288.478 227.361 276.579 221.591C271.348 219.054 265.872 217.815 259.939 219.067C245.692 222.061 233.667 229.236 223.086 238.856C218.724 242.824 215.581 248.13 211.213 252.092C205.803 256.995 203.264 263.083 201.905 269.867C199.591 281.454 201.408 292.716 205.518 303.581C207.633 309.173 210.629 314.426 213.228 319.832ZM309.746 97.6517C270.513 87.6878 237.525 69.9264 218.3 32.5551C217.186 35.861 216.463 38.7627 215.257 41.4524C211.975 48.7928 208.508 56.0471 205.074 63.3213C199.154 75.8424 200.526 87.1843 210.192 97.4265C216.099 103.687 222.914 108.662 230.544 112.525C247.509 121.117 264.818 123.197 282.18 113.949C291.389 109.047 300.179 103.343 309.746 97.6517ZM36.1435 114.267C35.9844 114.519 35.8187 114.771 35.6595 115.022C42.985 126.702 45.4777 139.786 46.2533 153.136C47.3604 172.136 45.8224 191.004 40.7045 209.428C39.0869 215.244 36.9523 220.915 35.043 226.692C37.3434 225.546 39.5179 224.201 41.8713 223.34C47.8643 221.154 53.9235 219.166 59.9696 217.146C71.4716 213.297 79.8644 205.89 83.5437 194.349C85.8905 186.989 87.5744 179.152 87.8661 171.467C88.2174 162.066 86.7391 152.599 86.1756 143.152C85.8375 137.487 83.8951 133.956 77.8557 131.697C67.6862 127.888 58.1531 122.409 48.209 117.964C44.3971 116.255 40.1742 115.473 36.1435 114.267ZM39.0869 109.066C44.7153 111.988 50.0851 114.704 55.3754 117.553C60.3209 120.216 65.0676 123.27 70.1125 125.728C82.5559 131.803 94.5021 131.161 105.845 122.714C112.189 117.99 117.738 112.584 122.339 106.145C128.206 97.9233 130.566 88.9532 127.205 79.2675C122.75 66.4218 117.758 53.7615 112.998 41.0218C112.634 40.982 112.276 40.9423 111.911 40.9025C100.515 77.4391 72.5721 96.2009 39.0869 109.066ZM118.819 39.6306C118.859 39.4848 118.699 39.7233 118.759 39.8889C124.308 56.5771 129.843 73.2654 135.505 89.9138C135.817 90.828 137.063 91.7622 138.064 92.0537C148.77 95.1806 159.643 96.3201 170.674 94.0875C184.284 91.3315 194.719 84.5476 199.618 70.8804C201.693 65.0835 204.093 59.3994 205.922 53.5297C207.825 47.4215 209.224 41.1477 210.868 34.8606C180.731 54.6957 150.136 53.3044 118.819 39.6306ZM40.5719 230.429C42.4215 231.058 43.7474 231.528 45.0799 231.966C56.0383 235.55 65.7305 241.26 74.1167 249.19C87.7003 262.03 95.7816 278.181 101.954 295.452C103.936 301.004 105.573 306.682 107.509 312.757C108.371 311.213 109.127 310.133 109.611 308.941C114.238 297.546 118.971 286.184 123.32 274.683C124.533 271.47 125.296 267.753 125.011 264.375C124.089 253.437 119.389 243.943 112.653 235.358C106.515 227.534 97.956 222.883 90.0273 217.305C84.5646 213.462 79.0357 213.714 73.0825 214.469C60.5795 216.053 51.5767 224.585 40.5719 230.429ZM114.974 314.433C145.999 298.082 175.865 299.944 205.306 317.58C202.309 305.708 199.439 293.657 194.062 282.368C187.678 268.972 178.218 260.188 162.513 259.545C150.726 259.062 140.477 262.222 132.542 271.112C121.543 283.428 117.99 298.844 114.974 314.433ZM254.569 214.264C249.895 211.746 245.619 209.487 241.39 207.155C235.695 204.022 230.206 200.451 224.293 197.821C220.706 196.224 216.443 195.244 212.552 195.416C202.316 195.866 194.546 201.643 188.116 209.03C178.576 219.988 178.026 228.196 184.264 240.114C187.387 246.083 189.17 252.755 191.503 259.134C192.949 263.076 194.288 267.065 195.68 271.026C195.985 271.006 196.297 270.993 196.602 270.973C205.836 241.804 227.574 225.38 254.569 214.264ZM255.225 207.877C253.104 200.987 250.896 194.323 249 187.572C246.117 177.31 244.386 166.816 246.72 156.276C248.013 150.433 250.731 144.914 252.673 139.203C253.588 136.514 254.178 133.711 254.934 130.909C249.962 133.135 245.646 135.261 241.178 137.01C237.598 138.408 233.865 139.429 230.166 140.482C217.053 144.218 209.695 153.321 206.632 166.12C204.762 173.938 205.094 181.669 211.591 187.532C214.494 190.149 217.882 192.501 221.455 194.051C232.526 198.867 243.796 203.24 255.225 207.877ZM252.401 125.907C245.009 123.25 238.466 121.382 232.347 118.587C220.441 113.161 211.591 103.813 202.913 94.3591C201.03 92.312 199.16 90.2583 197.755 88.7279C194.341 96.4327 190.94 104.045 187.605 111.677C186.459 114.294 185.431 116.963 184.417 119.633C182.62 124.363 183.807 128.696 186.982 132.24C195.806 142.098 206.035 147.074 219.075 141.992C230.385 137.6 241.032 131.479 252.401 125.907ZM128.259 256.696C131.017 250.92 133.47 245.176 136.426 239.717C142.38 228.739 143.633 217.702 137.898 206.267C132.091 194.674 122.365 189.99 111.288 195.058C101.702 199.444 92.8978 205.532 82.8476 211.389C107.9 217.775 120.642 234.894 128.259 256.696ZM84.5381 204.903C94.2303 200.272 103.777 195.76 113.257 191.123C114.337 190.593 115.517 189.533 115.922 188.453C119.084 179.9 122.604 171.434 122.942 162.099C123.081 158.17 122.743 154.606 118.984 152.367C114.178 149.505 109.451 146.464 104.479 143.927C100.25 141.774 95.7087 140.224 91.3333 138.415C91.5984 150.035 92.9309 161.251 91.8106 172.215C90.6902 183.127 87.117 193.779 84.5381 204.903ZM187.267 263.07C187.426 262.222 187.605 261.877 187.519 261.612C184.828 253.119 182.255 244.586 179.358 236.159C177.237 230.005 174.731 223.963 169.819 219.365C168.977 218.577 167.856 217.715 166.789 217.609C159.172 216.854 151.899 218.179 147.272 224.718C144.229 229.024 142.214 234.198 140.49 239.24C138.13 246.123 136.486 253.252 134.451 260.592C135.551 260.241 136.274 260.035 136.977 259.79C146.125 256.65 155.552 254.842 165.205 255.232C171.98 255.504 178.947 255.935 184.105 261.539C184.801 262.301 186.081 262.52 187.267 263.07ZM137.494 99.5995C139.297 104.297 141.955 108.583 142.466 113.114C143.613 123.337 150.468 126.391 158.9 128.166C160.412 128.484 161.903 128.902 163.428 129.133C173.339 130.664 179.544 126.974 182.925 117.566C183.369 116.327 183.747 115.069 184.112 113.803C186.081 106.98 188.063 100.149 189.965 93.3058C190.144 92.6565 189.853 91.8814 189.786 91.1593C189.024 91.305 188.162 91.2785 187.506 91.6363C183.674 93.7165 180.108 96.6116 176.037 97.8505C170.952 99.3941 165.476 100.083 160.146 100.249C152.808 100.474 145.442 99.8644 137.494 99.5995ZM93.4348 134.447C95.7153 135.765 97.3262 136.911 99.0963 137.686C105.739 140.595 112.375 143.523 119.144 146.113C120.721 146.716 123.075 146.583 124.6 145.835C139.118 138.693 144.236 119.163 135.624 104.177C134.458 102.15 132.992 100.295 131.295 97.824C123.313 115.168 109.325 125.291 93.4348 134.447ZM165.914 172.262C164.701 189.155 172.152 202.485 178.808 216.616C184.867 204.525 194.513 196.847 207.016 191.083C192.982 184.65 179.736 178.589 165.914 172.262ZM156.295 171.553C149.009 160.893 137.958 159.933 128.882 156.534C126.549 166.756 124.354 176.363 122.16 185.975C122.399 186.28 122.644 186.585 122.883 186.89C133.834 181.861 144.786 176.84 156.295 171.553ZM207.971 151.996C195.627 157.528 183.555 162.94 171.37 168.399C179.816 176.859 191.238 179.967 203.078 183.816C198.855 171.964 205.1 162.357 207.971 151.996ZM181.453 131.419C179.219 137.077 177.025 142.443 174.983 147.869C172.941 153.288 171.058 158.773 169.109 164.226C169.434 164.365 169.766 164.511 170.091 164.65C181.089 159.416 193.128 156.176 203.364 147.451C192.803 145.795 188.48 136.838 181.453 131.419ZM175.401 133.022C165.914 133.022 157.846 133.022 149.162 133.022C154.412 144.053 153.749 156.786 163.097 166.134C167.26 154.931 171.218 144.285 175.401 133.022ZM158.608 176.197C146.51 177.336 138.256 186.141 126.801 187.936C132.8 195.893 143.739 199.338 144.945 210.779C151.687 200.12 154.637 188.34 158.608 176.197ZM143.049 132.452C138.952 139.501 131.05 142.854 129.101 151.141C137.169 154.924 145.045 158.614 153.431 162.55C151.376 151.758 148.883 141.847 143.049 132.452ZM160.962 185.843C158.522 195.793 151.203 203.565 152.43 213.151C158.86 213.151 164.926 213.151 171.576 213.151C167.598 203.737 166.961 194.197 160.962 185.843Z"
            fill="#EFEFEF" />
    </g>
    <defs>
        <clipPath id="clip0_2397_56600">
            <rect width="338" height="345" fill="white" />
        </clipPath>
    </defs>
</svg>
