<svg width="236" height="482" viewBox="0 0 236 482" fill="none" xmlns="http://www.w3.org/2000/svg">
    <path
        d="M112.628 479.989C107.987 479.989 103.473 477.625 100.228 473.484C97.1456 469.543 95.4414 464.38 95.4414 458.952V366.12C95.4414 354.518 103.146 345.082 112.619 345.082H124.086C129.561 345.082 134.682 348.279 137.91 353.697H137.919L138.326 354.407C139.668 356.839 140.565 359.536 140.992 362.445C141.173 363.6 141.263 364.843 141.263 366.131V458.963C141.263 470.564 133.558 480 124.086 480H112.628V479.989Z"
        fill="#755941" />
    <path
        d="M124.105 346.691C129.562 346.691 134.402 350.11 137.239 355.306C137.239 355.306 137.239 355.306 137.248 355.306C138.463 357.504 139.306 360.013 139.705 362.722C139.877 363.821 139.959 364.953 139.959 366.119V458.951C139.959 469.63 132.825 478.367 124.105 478.367H112.638C108.16 478.367 104.09 476.058 101.198 472.361C98.4606 468.864 96.7836 464.135 96.7836 458.94V366.108C96.7836 355.428 103.918 346.691 112.638 346.691H124.105ZM124.105 343.449H112.638C102.44 343.449 94.1367 353.618 94.1367 366.108V458.94C94.1367 464.79 95.9678 470.352 99.2855 474.593C102.775 479.045 107.643 481.598 112.638 481.598H124.105C134.302 481.598 142.606 471.429 142.606 458.94V366.108C142.606 364.72 142.506 363.366 142.307 362.1C141.853 359.014 140.892 356.105 139.442 353.485L138.653 352.064H138.581C135.091 346.635 129.779 343.449 124.105 343.449Z"
        fill="#151A28" />
    <path
        d="M139.96 366.106V458.938C139.96 469.618 132.826 478.355 124.106 478.355H112.639C108.161 478.355 104.091 476.046 101.199 472.349C104.2 469.407 107.309 466.587 109.947 463.168C119.646 450.578 121.667 432.05 123.217 414.82C123.598 410.502 123.943 405.85 122.229 402.031C120.126 397.391 115.648 395.359 112.358 391.895C105.949 385.134 104.961 371.968 110.246 363.875L107.699 355.238C111.95 354.139 116.355 355.193 120.607 356.237C123.834 357.025 127.097 357.858 130.297 358.846C133.533 359.867 136.706 361.099 139.733 362.687C139.878 363.808 139.96 364.94 139.96 366.106Z"
        fill="#331B0E" />
    <path
        d="M139.957 366.107V458.939C139.957 469.619 132.823 478.356 124.103 478.356H120.078C128.336 458.584 134.074 439.056 134.373 416.486C134.527 404.174 133.195 391.807 130.294 379.995C129.351 376.176 128.254 372.357 128.091 368.372C127.946 365.008 128.59 361.444 130.276 358.869C130.602 358.38 130.965 357.925 131.364 357.525C133.013 355.827 135.107 355.161 137.247 355.294C137.247 355.294 137.247 355.294 137.256 355.294C138.47 357.492 139.313 360.001 139.712 362.71C139.875 363.809 139.957 364.941 139.957 366.107Z"
        fill="#260F05" />
    <path
        d="M188.637 425.593C187.214 425.593 185.746 425.082 184.504 424.138C175.62 417.422 166.746 410.716 157.863 404.022L158.533 407.719C158.823 409.351 158.515 410.972 157.654 412.282C156.639 413.836 154.98 414.768 153.24 414.768C152.043 414.768 150.901 414.324 149.931 413.492C147.184 411.149 144.746 408.407 142.715 405.41C142.625 407.053 142.244 408.718 141.347 410.294C140.123 412.459 138.029 413.803 135.872 413.803C135.4 413.803 134.929 413.736 134.467 413.603C130.94 412.57 130.016 408.507 129.517 406.331C129.517 406.331 126.227 391.844 125.728 389.645L125.493 390.856C125.239 392.143 124.305 392.998 123.172 392.998C122.039 392.998 121.105 392.143 120.851 390.867C120.208 387.392 119.174 383.628 118.177 379.987C118.123 379.809 118.078 379.621 118.023 379.443L117.842 380.087C116.727 384.15 115.576 388.347 114.968 392.088C114.778 393.276 113.926 394.108 112.884 394.108C111.868 394.108 111.016 393.309 110.799 392.154L110.318 389.645C109.802 391.899 106.529 406.331 106.529 406.331C106.031 408.507 105.106 412.57 101.589 413.603C101.127 413.736 100.655 413.803 100.184 413.803C98.235 413.803 96.3314 412.704 95.0805 410.872C94.9173 410.672 94.7723 410.45 94.6454 410.195C93.7842 408.663 93.4126 407.042 93.3219 405.432C91.79 407.697 90.0133 409.817 88.0191 411.771C86.8679 412.892 85.4719 413.481 83.9762 413.481C81.9911 413.481 80.0422 412.382 78.8909 410.628C77.921 409.14 77.5675 407.308 77.9029 405.465L78.1658 404.022C69.9713 410.206 61.7768 416.389 53.6004 422.584C51.017 424.516 48.8505 425.448 46.9741 425.448C45.415 425.448 44.0825 424.804 43.0129 423.539C41.5263 421.74 41.0005 419.054 41.6441 416.511L49.1315 386.814C39.6227 392.61 12.8274 408.951 12.8274 408.951C11.513 409.762 9.71822 410.861 7.73305 410.861C6.73594 410.861 5.77508 410.583 4.85954 410.039C4.07998 409.573 3.40013 408.929 2.83812 408.13C2.03136 406.964 1.50561 405.499 1.36964 404.011C0.925465 399.37 3.34574 395.674 5.47594 392.421C37.3474 344.295 63.6532 292.095 83.7043 237.242C84.7105 234.489 85.7076 231.58 86.7682 228.494C92.2342 212.574 98.4344 194.534 110.101 184.265C110.146 184.21 110.264 184.099 110.4 183.988C112.195 182.456 113.69 181.645 115.068 181.434C115.34 181.39 115.63 181.368 115.902 181.368C116.129 181.368 116.346 181.379 116.555 181.412C117.062 181.501 117.534 181.534 118.014 181.534C118.495 181.534 118.975 181.49 119.446 181.412C119.682 181.379 119.9 181.356 120.126 181.356C121.758 181.356 123.535 182.189 125.538 183.921C125.538 183.921 125.801 184.165 125.855 184.232C137.521 194.379 143.749 212.519 149.242 228.516C150.303 231.602 151.3 234.511 152.306 237.253C172.33 292.04 198.645 344.229 230.507 392.388C232.655 395.64 235.094 399.315 234.641 404.033C234.414 406.609 233.109 408.873 231.16 410.05C230.244 410.605 229.274 410.883 228.277 410.883C226.301 410.883 224.497 409.773 223.183 408.962C219.04 406.442 186.879 386.826 186.879 386.826C189.163 395.896 191.447 404.966 193.732 414.025C195.635 421.452 193.179 424.194 190.777 425.182C190.106 425.459 189.381 425.593 188.637 425.593Z"
        fill="#347075" />
    <path
        d="M120.126 182.976C121.395 182.976 122.927 183.653 124.776 185.241C124.839 185.307 124.93 185.374 124.994 185.441C138.708 197.386 144.972 221.132 151.109 237.907C171.178 292.805 197.566 345.149 229.491 393.397C231.567 396.527 233.725 399.847 233.335 403.832C233.163 405.775 232.184 407.618 230.579 408.584C229.791 409.061 229.029 409.25 228.286 409.25C226.69 409.25 225.186 408.362 223.79 407.507C215.496 402.455 207.21 397.393 198.916 392.342C194.193 389.455 189.453 386.569 184.73 383.694C187.313 393.974 189.906 404.243 192.489 414.501C193.341 417.831 193.858 422.205 190.377 423.649C189.824 423.871 189.235 423.982 188.646 423.982C187.431 423.982 186.208 423.526 185.201 422.771C175.439 415.378 165.667 408.006 155.904 400.646L157.255 408.084C157.772 410.948 155.605 413.169 153.248 413.169C152.378 413.169 151.49 412.869 150.692 412.192C146.314 408.45 142.724 403.677 140.349 398.292C141.292 401.967 142.226 405.93 140.268 409.405C139.325 411.07 137.639 412.214 135.88 412.214C135.518 412.214 135.146 412.169 134.783 412.058C132.173 411.292 131.384 408.45 130.813 405.93C129.082 398.337 127.369 390.765 125.646 383.194C125.175 385.625 124.704 388.079 124.232 390.521C124.114 391.121 123.652 391.42 123.199 391.42C122.736 391.42 122.283 391.121 122.165 390.521C121.186 385.204 119.283 379.164 118.059 374.291C117.823 375.234 117.542 376.211 117.27 377.221C116.01 381.884 114.451 387.18 113.699 391.798C113.626 392.275 113.264 392.508 112.91 392.508C112.557 392.508 112.203 392.275 112.122 391.82C111.569 388.934 111.007 386.047 110.454 383.194C108.722 390.765 107.009 398.337 105.287 405.93C104.707 408.45 103.918 411.292 101.317 412.058C100.954 412.158 100.582 412.214 100.22 412.214C98.5972 412.214 97.0381 411.237 96.0772 409.783C95.9684 409.672 95.8869 409.538 95.8234 409.394C93.8745 405.919 94.7991 401.956 95.7418 398.281C93.7113 402.9 90.7834 407.052 87.2391 410.515C86.2692 411.459 85.1361 411.87 84.0212 411.87C81.2383 411.87 78.6186 409.261 79.2441 405.819L80.1868 400.635C71.104 407.485 62.0211 414.334 52.9655 421.206C51.2251 422.505 49.0314 423.837 47.0372 423.837C45.9313 423.837 44.8798 423.426 43.9915 422.383C42.7949 420.94 42.4958 418.864 42.9671 416.999C45.7681 405.886 48.5691 394.806 51.3611 383.694C40.9366 390.044 30.4851 396.427 20.0335 402.8C17.45 404.376 14.8847 405.93 12.3013 407.507C10.8962 408.373 9.40056 409.25 7.80518 409.25C7.06187 409.25 6.30044 409.061 5.51181 408.584C4.86821 408.195 4.3334 407.684 3.90736 407.074C3.26376 406.152 2.85585 404.998 2.75614 403.832C2.37542 399.847 4.55095 396.527 6.59957 393.397C38.5436 345.149 64.9128 292.793 84.982 237.907C91.0916 221.21 97.3372 197.564 110.943 185.585C111.07 185.452 111.179 185.363 111.306 185.252C112.847 183.942 114.17 183.22 115.303 183.043C115.53 183.009 115.748 182.987 115.965 182.987C116.137 182.987 116.31 182.998 116.473 183.02C116.999 183.109 117.533 183.154 118.068 183.154C118.603 183.154 119.147 183.109 119.682 183.02C119.79 182.987 119.954 182.976 120.126 182.976ZM120.126 179.734C119.854 179.734 119.573 179.757 119.31 179.79C118.857 179.868 118.431 179.901 118.014 179.901C117.597 179.901 117.189 179.868 116.79 179.801L116.736 179.79L116.681 179.779C116.437 179.745 116.174 179.734 115.902 179.734C115.557 179.734 115.213 179.768 114.877 179.823C113.309 180.067 111.623 180.978 109.729 182.576L109.711 182.588L109.647 182.643C109.511 182.765 109.384 182.876 109.248 183.02C97.3372 193.567 90.8016 212.584 85.5531 227.871C84.4925 230.946 83.4954 233.855 82.4983 236.586C62.4925 291.306 36.2411 343.384 4.47843 391.365C2.26665 394.74 -0.452765 398.892 0.0639226 404.221C0.227087 406.008 0.852552 407.773 1.83154 409.183C2.52046 410.16 3.34534 410.937 4.28807 411.503C5.3849 412.158 6.54518 412.491 7.74172 412.491C10.0351 412.491 11.9931 411.281 13.4253 410.404L17.305 408.04L21.1575 405.697L22.0277 405.164C30.34 400.091 38.6523 395.017 46.9556 389.955L44.5807 399.369L40.3746 416.044C39.586 419.175 40.2387 422.483 42.0697 424.692C43.3932 426.257 45.0883 427.079 46.9737 427.079C49.0949 427.079 51.488 426.069 54.2799 423.982C61.6676 418.375 69.0644 412.791 76.4612 407.218C76.5247 408.817 76.996 410.338 77.8572 411.648C79.2713 413.812 81.5646 415.111 83.9758 415.111C85.7706 415.111 87.4476 414.401 88.8345 413.046C90.1852 411.725 91.4361 410.327 92.5873 408.861C92.823 409.627 93.1402 410.382 93.5482 411.137C93.7023 411.448 93.8926 411.736 94.092 411.981C95.5968 414.146 97.8539 415.433 100.165 415.433C100.736 415.433 101.308 415.356 101.851 415.2C106.139 413.935 107.245 409.105 107.78 406.785C108.532 403.499 109.275 400.224 110.019 396.949C110.191 396.194 110.363 395.428 110.535 394.673C111.152 395.339 111.977 395.739 112.865 395.739C114.551 395.739 115.938 394.362 116.246 392.408C116.645 389.966 117.289 387.302 117.996 384.593C118.594 386.869 119.138 389.111 119.528 391.232C119.926 393.263 121.413 394.651 123.144 394.651C123.933 394.651 124.667 394.362 125.275 393.863C125.51 394.906 125.746 395.939 125.982 396.982C126.725 400.257 127.468 403.532 128.212 406.807C128.746 409.128 129.843 413.957 134.113 415.211C134.684 415.378 135.255 415.456 135.835 415.456C138.418 415.456 140.929 413.846 142.398 411.248C142.842 410.471 143.168 409.683 143.422 408.883C145.135 411.059 147.048 413.069 149.142 414.856C150.338 415.877 151.744 416.421 153.212 416.421C155.351 416.421 157.391 415.267 158.66 413.335C159.775 411.637 160.174 409.549 159.802 407.44C167.797 413.468 175.783 419.508 183.778 425.558C185.229 426.657 186.942 427.257 188.61 427.257C189.498 427.257 190.359 427.09 191.175 426.757C193.133 425.947 197.402 423.049 194.973 413.568C192.997 405.73 191.012 397.859 189.036 389.999C189.543 390.31 190.06 390.621 190.568 390.932C192.952 392.386 195.327 393.829 197.702 395.284C201.844 397.804 205.987 400.335 210.129 402.855C214.281 405.386 218.432 407.917 222.584 410.449C224.007 411.326 225.965 412.536 228.259 412.536C229.455 412.536 230.615 412.203 231.712 411.548C234.078 410.116 235.655 407.385 235.936 404.232C236.453 398.87 233.716 394.74 231.513 391.409C199.714 343.361 173.463 291.284 153.493 236.63C152.496 233.899 151.499 231.002 150.438 227.927C145.163 212.551 138.591 193.434 126.562 182.909C126.516 182.865 126.48 182.832 126.435 182.787L126.38 182.732L126.272 182.643C124.069 180.678 122.048 179.734 120.126 179.734Z"
        fill="#151A28" />
    <path
        d="M192.479 414.501C193.332 417.831 193.848 422.205 190.367 423.649C188.654 424.348 186.696 423.893 185.201 422.771C175.438 415.378 165.666 408.006 155.903 400.646L157.254 408.084C157.961 412.003 153.646 414.712 150.691 412.181C146.313 408.439 142.723 403.666 140.348 398.281C141.291 401.956 142.225 405.919 140.267 409.394C139.134 411.403 136.913 412.658 134.774 412.058C132.163 411.292 131.374 408.45 130.803 405.93C129.072 398.337 127.359 390.765 125.636 383.194C125.165 385.625 124.694 388.079 124.222 390.521C123.987 391.72 122.382 391.72 122.146 390.521C121.167 385.204 119.264 379.164 118.04 374.291C117.804 375.234 117.523 376.211 117.252 377.221C117.252 377.044 117.233 376.888 117.233 376.7C115.284 333.836 122.727 290.751 118.385 248.087C116.273 227.305 111.396 206.312 110.906 185.596C111.033 185.463 111.142 185.374 111.269 185.263C112.81 183.953 114.133 183.231 115.266 183.054C115.674 182.987 116.082 182.987 116.445 183.032C117.496 183.209 118.584 183.209 119.654 183.032C121.022 182.832 122.708 183.464 124.802 185.263C124.866 185.33 124.957 185.396 125.02 185.463C125.002 189.815 125.301 194.366 126.09 199.462C131.22 232.678 144.872 263.729 159.13 293.548C174.414 325.521 190.866 357.96 198.943 392.364C194.22 389.478 189.479 386.591 184.756 383.716C187.304 393.963 189.887 404.243 192.479 414.501Z"
        fill="#1A3C49" />
    <path
        d="M233.335 403.832C233.163 405.775 232.184 407.617 230.579 408.583C228.105 410.071 225.839 408.761 223.781 407.506C210.764 399.569 197.729 391.62 184.721 383.682C187.305 393.962 189.897 404.231 192.481 414.489C193.333 417.82 193.849 422.194 190.368 423.637C188.655 424.337 186.697 423.881 185.202 422.76C175.439 415.366 165.667 407.995 155.905 400.635L157.255 408.073C157.962 411.991 153.647 414.7 150.692 412.169C146.314 408.428 142.724 403.654 140.349 398.27C141.292 401.945 142.226 405.908 140.268 409.383C139.135 411.392 136.914 412.646 134.775 412.047C132.164 411.281 131.375 408.439 130.804 405.919C129.073 398.325 127.36 390.754 125.637 383.183C125.166 385.614 124.695 388.067 124.223 390.51C123.988 391.709 122.383 391.709 122.148 390.51C121.169 385.192 119.265 379.153 118.041 374.279C116.691 379.553 114.579 386.18 113.681 391.786C113.536 392.73 112.267 392.73 112.104 391.809C111.551 388.922 110.989 386.036 110.436 383.183C108.705 390.754 106.991 398.325 105.269 405.919C104.689 408.439 103.9 411.281 101.299 412.047C99.1595 412.658 96.9387 411.392 95.8056 409.383C93.8567 405.908 94.7813 401.945 95.724 398.27C93.6935 402.888 90.7656 407.04 87.2213 410.504C83.822 413.812 78.356 410.615 79.2262 405.819L80.169 400.635C71.0861 407.484 62.0033 414.334 52.9477 421.206C50.2373 423.237 46.4483 425.302 43.9736 422.383C42.7771 420.939 42.4779 418.863 42.9493 416.998C45.7503 405.886 48.5513 394.806 51.3432 383.693C40.9188 390.044 30.4672 396.427 20.0156 402.799C35.063 384.704 69.953 367.985 80.6222 354.929C98.806 332.681 98.0808 372.57 108.977 352.631C119.9 332.692 150.457 371.804 141.718 342.673C132.998 313.509 209.867 392.997 180.289 355.695C157.727 327.253 128.085 228.326 115.286 183.031C115.694 182.965 116.101 182.965 116.464 183.009C117.516 183.187 118.603 183.187 119.673 183.009C121.042 182.809 122.728 183.442 124.822 185.24C138.691 197.141 144.991 221.054 151.146 237.907C171.215 292.804 197.602 345.149 229.528 393.396C231.558 396.538 233.716 399.846 233.335 403.832Z"
        fill="#163349" />
    <path
        d="M96.0305 409.761C95.9217 409.65 95.8401 409.517 95.7767 409.373C93.8278 405.898 94.7524 401.934 95.6951 398.26C93.6646 402.878 90.7367 407.03 87.1924 410.494C83.7931 413.802 78.3271 410.605 79.1973 405.809L80.1401 400.624C71.0572 407.474 61.9744 414.324 52.9188 421.196C50.2084 423.227 46.4194 425.292 43.9447 422.373C42.7482 420.929 42.449 418.853 42.9204 416.988C45.7214 405.876 48.5224 394.796 51.3143 383.683C40.8899 390.034 30.4383 396.417 19.9867 402.789C17.4033 404.366 14.838 405.92 12.2545 407.496C10.2059 408.762 7.93974 410.061 5.45601 408.573C4.81242 408.185 4.2776 407.674 3.85156 407.063C23.3225 396.062 41.2888 382.14 57.0795 365.865C56.0552 370.916 55.049 375.957 54.0247 381.008C60.1615 380.242 65.9266 376.811 69.7519 371.705C66.679 383.517 62.6361 395.051 57.6959 406.142C68.6823 400.147 77.892 390.633 83.7841 379.165C83.358 385.97 83.5484 392.032 83.1042 398.837C90.0025 397.394 94.7252 390.855 98.7861 384.794C98.9221 393.197 98.1516 401.701 96.0305 409.761Z"
        fill="#1A3C49" />
    <path
        d="M85.0898 265.895C91.6799 263.963 95.1879 256.525 97.4178 249.698C99.6296 242.926 108.042 221.721 101.85 216.06C94.2271 230.969 90.4108 249.853 85.0898 265.895Z"
        fill="#1A3C49" />
    <path
        d="M70.3516 303.474C74.8023 302.175 77.1682 297.146 78.673 292.539C80.1686 287.965 85.8431 273.655 81.6643 269.825C76.5246 279.894 73.9412 292.65 70.3516 303.474Z"
        fill="#1A3C49" />
    <path
        d="M188.637 351.965C187.214 351.965 185.746 351.455 184.504 350.511C175.62 343.795 166.746 337.089 157.863 330.384L158.533 334.081C158.823 335.713 158.515 337.333 157.654 338.643C156.639 340.198 154.98 341.13 153.24 341.13C152.043 341.13 150.901 340.686 149.931 339.853C147.184 337.511 144.746 334.769 142.715 331.771C142.625 333.414 142.244 335.08 141.347 336.656C140.123 338.821 138.029 340.164 135.872 340.164C135.4 340.164 134.929 340.098 134.467 339.964C130.94 338.932 130.016 334.869 129.517 332.693C129.517 332.693 126.227 318.205 125.728 316.007L125.493 317.217C125.239 318.505 124.305 319.36 123.172 319.36C122.039 319.36 121.105 318.505 120.851 317.228C120.208 313.753 119.174 309.99 118.177 306.349C118.123 306.171 118.078 305.982 118.023 305.805L117.842 306.449C116.727 310.512 115.576 314.708 114.968 318.449C114.778 319.637 113.926 320.47 112.884 320.47C111.868 320.47 111.016 319.671 110.799 318.516L110.318 316.007C109.802 318.261 106.529 332.693 106.529 332.693C106.031 334.869 105.106 338.932 101.589 339.964C101.127 340.098 100.655 340.164 100.184 340.164C98.235 340.164 96.3314 339.065 95.0805 337.233C94.9173 337.034 94.7723 336.812 94.6454 336.556C93.7842 335.024 93.4126 333.403 93.3219 331.794C91.79 334.058 90.0133 336.179 88.0191 338.133C86.8679 339.254 85.4719 339.842 83.9762 339.842C81.9911 339.842 80.0422 338.743 78.8909 336.989C77.921 335.502 77.5675 333.67 77.9029 331.827L78.1658 330.384C69.9713 336.567 61.7768 342.751 53.6004 348.946C51.017 350.877 48.8505 351.81 46.9741 351.81C45.415 351.81 44.0825 351.166 43.0129 349.9C41.5263 348.102 41.0005 345.415 41.6441 342.873L49.1315 313.176C39.6227 318.971 12.8274 335.313 12.8274 335.313C11.513 336.123 9.71822 337.222 7.73305 337.222C6.73594 337.222 5.77508 336.945 4.85954 336.401C4.07998 335.935 3.40013 335.291 2.83812 334.491C2.03136 333.326 1.50561 331.86 1.36964 330.373C0.925465 325.732 3.34574 322.035 5.47594 318.783C37.3474 270.646 63.6532 218.457 83.7043 163.604C84.7105 160.851 85.7076 157.942 86.7682 154.856C92.2342 138.936 98.4344 120.896 110.101 110.627C110.155 110.56 110.282 110.449 110.418 110.327C112.195 108.817 113.69 108.007 115.059 107.785C115.331 107.74 115.621 107.718 115.893 107.718C116.12 107.718 116.337 107.729 116.546 107.763C117.053 107.851 117.525 107.885 118.005 107.885C118.486 107.885 118.966 107.84 119.437 107.763C119.673 107.729 119.891 107.707 120.117 107.707C121.749 107.707 123.526 108.54 125.529 110.272L125.837 110.56C137.512 120.718 143.74 138.858 149.242 154.856C150.303 157.942 151.3 160.851 152.306 163.593C172.33 218.368 198.645 270.568 230.507 318.727C232.655 321.98 235.094 325.654 234.641 330.373C234.414 332.948 233.109 335.213 231.16 336.39C230.244 336.945 229.274 337.222 228.277 337.222C226.301 337.222 224.497 336.112 223.183 335.302L186.879 313.165C189.163 322.235 191.447 331.305 193.732 340.364C195.635 347.791 193.179 350.533 190.777 351.521C190.106 351.821 189.381 351.965 188.637 351.965Z"
        fill="#82E6A7" />
    <path
        d="M120.126 109.339C121.395 109.339 122.927 110.016 124.776 111.604C124.839 111.67 124.93 111.737 124.994 111.804C138.708 123.749 144.972 147.495 151.109 164.27C171.178 219.168 197.566 271.512 229.491 319.759C231.567 322.89 233.725 326.21 233.335 330.195C233.163 332.138 232.184 333.981 230.579 334.947C229.791 335.424 229.029 335.613 228.286 335.613C226.69 335.613 225.186 334.736 223.79 333.87C215.496 328.818 207.21 323.756 198.916 318.705C194.193 315.818 189.453 312.932 184.73 310.057C187.313 320.337 189.906 330.606 192.489 340.864C193.341 344.194 193.858 348.568 190.377 350.011C189.824 350.245 189.235 350.344 188.646 350.344C187.431 350.344 186.208 349.889 185.201 349.134C175.439 341.741 165.667 334.369 155.904 327.009L157.255 334.447C157.772 337.311 155.605 339.531 153.248 339.531C152.378 339.531 151.49 339.232 150.692 338.555C146.314 334.813 142.724 330.04 140.349 324.655C141.292 328.33 142.226 332.293 140.268 335.768C139.325 337.433 137.639 338.577 135.88 338.577C135.518 338.577 135.146 338.532 134.783 338.421C132.173 337.655 131.384 334.813 130.813 332.293C129.082 324.7 127.369 317.128 125.646 309.557C125.175 311.988 124.704 314.442 124.232 316.884C124.114 317.484 123.652 317.783 123.199 317.783C122.736 317.783 122.283 317.484 122.165 316.884C121.186 311.566 119.283 305.527 118.059 300.654C117.823 301.597 117.542 302.574 117.27 303.584C116.01 308.247 114.451 313.543 113.699 318.161C113.626 318.638 113.264 318.871 112.91 318.871C112.557 318.871 112.203 318.638 112.122 318.183C111.569 315.297 111.007 312.41 110.454 309.557C108.722 317.128 107.009 324.7 105.287 332.293C104.707 334.813 103.918 337.655 101.317 338.421C100.954 338.521 100.582 338.577 100.22 338.577C98.5972 338.577 97.0381 337.6 96.0772 336.145C95.9684 336.034 95.8869 335.901 95.8234 335.757C93.8745 332.282 94.7991 328.319 95.7418 324.644C93.7113 329.262 90.7834 333.415 87.2391 336.878C86.2692 337.822 85.1361 338.233 84.0212 338.233C81.2383 338.233 78.6186 335.624 79.2441 332.182L80.1868 326.998C71.104 333.847 62.0211 340.697 52.9655 347.569C51.2251 348.868 49.0314 350.2 47.0372 350.2C45.9313 350.2 44.8798 349.789 43.9915 348.746C42.7949 347.303 42.4958 345.227 42.9671 343.362C45.7681 332.249 48.5691 321.169 51.3611 310.057C40.9366 316.407 30.4851 322.79 20.0335 329.163C17.45 330.739 14.8847 332.293 12.3013 333.87C10.8962 334.736 9.40056 335.613 7.80518 335.613C7.06187 335.613 6.30044 335.424 5.51181 334.947C4.86821 334.558 4.3334 334.047 3.90736 333.437C3.26376 332.515 2.85585 331.361 2.75614 330.195C2.37542 326.21 4.55095 322.89 6.59957 319.759C38.5436 271.512 64.9128 219.156 84.982 164.27C91.0916 147.573 97.3372 123.927 110.943 111.948C111.07 111.815 111.179 111.726 111.306 111.615C112.847 110.305 114.17 109.583 115.303 109.406C115.53 109.372 115.748 109.35 115.965 109.35C116.137 109.35 116.31 109.361 116.473 109.383C116.999 109.472 117.533 109.517 118.068 109.517C118.603 109.517 119.147 109.472 119.682 109.383C119.79 109.35 119.954 109.339 120.126 109.339ZM120.126 106.108C119.854 106.108 119.573 106.131 119.31 106.164C118.857 106.242 118.431 106.275 118.014 106.275C117.597 106.275 117.189 106.242 116.79 106.175L116.736 106.164L116.681 106.153C116.437 106.12 116.174 106.108 115.902 106.108C115.557 106.108 115.213 106.142 114.877 106.197C113.309 106.441 111.623 107.352 109.729 108.95L109.711 108.962L109.647 109.017C109.511 109.139 109.384 109.25 109.248 109.394C97.3372 119.941 90.8016 138.958 85.5531 154.245C84.4925 157.32 83.4954 160.229 82.4983 162.96C62.4925 217.68 36.2411 269.758 4.47843 317.739C2.26665 321.114 -0.452765 325.266 0.0639226 330.595C0.227087 332.382 0.852552 334.147 1.83154 335.557C2.52046 336.534 3.34534 337.311 4.28807 337.877C5.3849 338.532 6.54518 338.865 7.74172 338.865C10.0351 338.865 11.9931 337.655 13.4253 336.778L17.314 334.414L21.1575 332.071L21.7739 331.694C30.1769 326.565 38.5708 321.436 46.9647 316.329L44.5897 325.743L40.3837 342.418C39.5951 345.549 40.2477 348.857 42.0788 351.066C43.4022 352.631 45.0973 353.453 46.9828 353.453C49.1039 353.453 51.497 352.443 54.2889 350.356C61.6767 344.749 69.0735 339.165 76.4703 333.592C76.5337 335.191 77.0051 336.712 77.8662 338.022C79.2803 340.186 81.5737 341.485 83.9849 341.485C85.7797 341.485 87.4567 340.775 88.8436 339.42C90.1942 338.099 91.4451 336.701 92.5964 335.235C92.832 336.001 93.1493 336.756 93.5572 337.511C93.7113 337.822 93.9017 338.11 94.1011 338.366C95.6058 340.531 97.8629 341.818 100.174 341.818C100.746 341.818 101.317 341.741 101.86 341.585C106.148 340.32 107.254 335.491 107.789 333.17C108.541 329.884 109.284 326.609 110.028 323.334C110.2 322.579 110.372 321.813 110.544 321.058C111.161 321.724 111.986 322.124 112.874 322.124C114.56 322.124 115.947 320.748 116.255 318.794C116.654 316.351 117.298 313.687 118.005 310.978C118.603 313.254 119.147 315.496 119.537 317.617C119.935 319.648 121.422 321.036 123.153 321.036C123.942 321.036 124.676 320.748 125.284 320.248C125.519 321.291 125.755 322.324 125.991 323.367C126.734 326.642 127.477 329.917 128.221 333.192C128.755 335.513 129.852 340.342 134.122 341.596C134.693 341.763 135.264 341.841 135.844 341.841C138.427 341.841 140.938 340.231 142.407 337.633C142.851 336.856 143.177 336.068 143.431 335.268C145.144 337.444 147.057 339.454 149.151 341.241C150.348 342.262 151.753 342.806 153.221 342.806C155.36 342.806 157.4 341.652 158.669 339.72C159.784 338.022 160.183 335.935 159.811 333.825C167.806 339.853 175.792 345.893 183.787 351.943C185.238 353.042 186.951 353.642 188.619 353.642C189.507 353.642 190.368 353.475 191.184 353.142C193.142 352.332 197.411 349.434 194.982 339.953C193.006 332.116 191.03 324.245 189.045 316.385C189.552 316.695 190.069 317.006 190.577 317.317C192.961 318.771 195.336 320.215 197.711 321.669C201.862 324.2 206.014 326.731 210.156 329.262C214.299 331.794 218.442 334.314 222.584 336.845C224.007 337.722 225.965 338.932 228.259 338.932C229.455 338.932 230.615 338.599 231.712 337.944C234.078 336.512 235.655 333.781 235.936 330.628C236.453 325.266 233.716 321.136 231.513 317.806C199.714 269.758 173.463 217.68 153.493 163.027C152.496 160.296 151.499 157.398 150.438 154.323C145.163 138.947 138.591 119.83 126.562 109.306C126.516 109.261 126.48 109.228 126.435 109.184L126.38 109.128L126.272 109.039C124.069 107.041 122.048 106.108 120.126 106.108Z"
        fill="#151A28" />
    <path
        d="M192.479 340.864C193.332 344.194 193.848 348.569 190.367 350.012C188.654 350.711 186.696 350.256 185.201 349.135C175.438 341.741 165.666 334.37 155.903 327.009L157.254 334.447C157.961 338.366 153.646 341.075 150.691 338.544C146.313 334.803 142.723 330.029 140.348 324.644C141.291 328.319 142.225 332.282 140.267 335.757C139.134 337.767 136.913 339.021 134.774 338.422C132.163 337.656 131.374 334.814 130.803 332.294C129.072 324.7 127.359 317.129 125.636 309.557C125.165 311.989 124.694 314.442 124.222 316.884C123.987 318.083 122.382 318.083 122.146 316.884C121.167 311.567 119.264 305.527 118.04 300.654C117.804 301.598 117.523 302.574 117.252 303.585C117.252 303.407 117.233 303.252 117.233 303.063C115.284 260.199 122.727 217.114 118.385 174.45C116.273 153.668 111.396 132.675 110.906 111.959C111.033 111.826 111.142 111.737 111.269 111.626C112.81 110.316 114.133 109.595 115.266 109.417C115.674 109.35 116.082 109.35 116.445 109.395C117.496 109.572 118.584 109.572 119.654 109.395C121.022 109.195 122.708 109.828 124.802 111.626C124.866 111.693 124.957 111.759 125.02 111.826C125.002 116.178 125.301 120.73 126.09 125.825C131.22 159.041 144.872 190.093 159.13 219.912C174.414 251.884 190.866 284.323 198.943 318.727C194.22 315.841 189.479 312.954 184.756 310.079C187.304 320.326 189.887 330.606 192.479 340.864Z"
        fill="#44BFA3" />
    <path
        d="M233.335 330.206C233.163 332.149 232.184 333.991 230.579 334.957C228.105 336.445 225.839 335.135 223.781 333.88C210.764 325.943 197.729 317.994 184.721 310.056C187.305 320.336 189.897 330.605 192.481 340.863C193.333 344.194 193.849 348.568 190.368 350.011C188.655 350.711 186.697 350.255 185.202 349.134C175.439 341.74 165.667 334.369 155.905 327.009L157.255 334.447C157.962 338.366 153.647 341.074 150.692 338.543C146.314 334.802 142.724 330.028 140.349 324.644C141.292 328.319 142.226 332.282 140.268 335.757C139.135 337.766 136.914 339.021 134.775 338.421C132.164 337.655 131.375 334.813 130.804 332.293C129.073 324.699 127.36 317.128 125.637 309.557C125.166 311.988 124.695 314.441 124.223 316.884C123.988 318.083 122.383 318.083 122.148 316.884C121.169 311.566 119.265 305.527 118.041 300.653C116.691 305.927 114.579 312.554 113.681 318.161C113.536 319.104 112.267 319.104 112.104 318.183C111.551 315.296 110.989 312.41 110.436 309.557C108.705 317.128 106.991 324.699 105.269 332.293C104.689 334.813 103.9 337.655 101.299 338.421C99.1595 339.032 96.9387 337.766 95.8056 335.757C93.8567 332.282 94.7813 328.319 95.724 324.644C93.6935 329.262 90.7656 333.414 87.2213 336.878C83.822 340.186 78.356 336.989 79.2262 332.193L80.169 327.009C71.0861 333.858 62.0033 340.708 52.9477 347.58C50.2373 349.611 46.4483 351.676 43.9736 348.757C42.7771 347.313 42.4779 345.237 42.9493 343.372C45.7503 332.26 48.5513 321.18 51.3432 310.067C40.9188 316.418 30.4672 322.801 20.0156 329.173C35.063 311.078 69.953 294.359 80.6222 281.303C98.806 259.055 98.0808 298.944 108.977 279.005C119.9 259.067 150.457 298.178 141.718 269.047C132.998 239.883 209.867 319.371 180.289 282.069C157.727 253.627 128.085 154.7 115.286 109.405C115.694 109.339 116.101 109.339 116.464 109.383C117.516 109.561 118.603 109.561 119.673 109.383C121.042 109.183 122.728 109.816 124.822 111.615C138.691 123.515 144.991 147.428 151.146 164.281C171.215 219.178 197.602 271.523 229.528 319.77C231.558 322.901 233.716 326.209 233.335 330.206Z"
        fill="#114B51" />
    <path
        d="M96.0305 336.123C95.9217 336.012 95.8401 335.879 95.7767 335.735C93.8278 332.26 94.7524 328.297 95.6951 324.622C93.6646 329.24 90.7367 333.392 87.1924 336.856C83.7931 340.164 78.3271 336.967 79.1973 332.171L80.1401 326.987C71.0572 333.836 61.9744 340.686 52.9188 347.558C50.2084 349.59 46.4194 351.655 43.9447 348.735C42.7482 347.292 42.449 345.216 42.9204 343.351C45.7214 332.238 48.5224 321.158 51.3143 310.046C40.8899 316.396 30.4383 322.779 19.9867 329.152C17.4033 330.728 14.838 332.282 12.2545 333.859C10.2059 335.124 7.93974 336.423 5.45601 334.936C4.81242 334.547 4.2776 334.036 3.85156 333.426C23.3225 322.424 41.2888 308.503 57.0795 292.228C56.0552 297.279 55.049 302.319 54.0247 307.37C60.1615 306.604 65.9266 303.174 69.7519 298.067C66.679 309.879 62.6361 321.414 57.6959 332.504C68.6823 326.509 77.892 316.995 83.7841 305.527C83.358 312.333 83.5484 318.394 83.1042 325.199C90.0025 323.756 94.7252 317.217 98.7861 311.156C98.9221 319.56 98.1516 328.064 96.0305 336.123Z"
        fill="#45BC9F" />
    <path
        d="M85.0898 192.259C91.6799 190.327 95.1879 182.889 97.4178 176.062C99.6296 169.29 108.042 148.086 101.85 142.424C94.2271 157.333 90.4108 176.217 85.0898 192.259Z"
        fill="#D6F8CF" />
    <path
        d="M70.3516 229.837C74.8023 228.538 77.1682 223.509 78.673 218.901C80.1686 214.328 85.8431 200.018 81.6643 196.188C76.5246 206.257 73.9412 219.012 70.3516 229.837Z"
        fill="#D6F8CF" />
    <path
        d="M202.461 277.161C201.546 277.883 200.503 278.393 199.461 278.704C196.769 279.515 193.968 279.17 191.221 278.86C189.118 278.615 187.006 278.349 184.903 278.049C180.18 277.394 175.449 276.55 170.871 275.174C166.901 273.986 163.03 272.365 159.368 270.123C157.038 268.69 154.772 266.981 152.243 266.237C149.696 265.493 146.768 265.859 144.937 268.124C143.876 269.445 143.287 271.222 142.245 272.52C139.879 275.462 135.818 275.118 132.863 273.109C129.935 271.111 127.768 267.791 125.357 264.949C124.351 263.784 123.163 262.618 121.786 262.64C120.453 262.684 119.474 263.761 118.785 265.216V265.238C118.268 266.315 117.924 267.569 117.743 268.713C117.28 271.499 116.9 274.752 114.924 276.184C112.503 277.916 109.485 275.784 107.454 273.42C105.442 271.044 103.257 268.169 100.474 268.302C96.631 268.457 94.4827 274.108 90.8568 275.64C88.0921 276.806 84.9557 275.285 82.889 272.787C80.8041 270.3 79.535 266.959 78.3294 263.728C72.2289 268.191 65.9108 272.21 59.4295 275.751C54.4439 278.46 47.582 283.378 42.0253 283.511C38.055 283.622 36.242 279.403 35.0273 275.029C47.3191 251.183 58.523 226.76 68.603 201.792C71.0595 198.117 73.5704 194.498 76.2083 191.046C79.8523 186.25 83.8861 181.665 88.2009 177.635C91.9355 174.16 95.8968 171.085 100.048 168.642C104.998 165.701 110.192 163.658 115.594 162.858C117.516 162.57 119.474 162.437 121.459 162.481C124.741 162.548 127.959 163.092 131.095 164.046C132.89 164.59 134.648 165.256 136.389 166.045H136.398C145.889 170.352 154.527 178.09 161.879 186.816C161.879 186.816 161.897 186.816 161.897 186.838C162.096 187.371 162.296 187.893 162.504 188.426C163.039 189.813 163.583 191.212 164.136 192.6C171.66 211.872 179.872 230.823 188.737 249.462C189.617 251.327 190.496 253.181 191.412 255.047C192.291 256.889 193.206 258.721 194.122 260.586C195.019 262.451 195.935 264.283 196.868 266.126C197.784 267.969 198.718 269.801 199.651 271.643C200.404 273.12 201.174 274.608 201.945 276.084C202.099 276.473 202.28 276.828 202.461 277.161Z"
        fill="#2A4165" />
    <path
        d="M177.796 271.269C176.545 271.269 175.267 270.825 174.188 270.003C169.674 266.584 165.15 263.164 160.627 259.756L152.043 253.273L152.505 255.837C152.768 257.303 152.487 258.746 151.717 259.923C150.81 261.299 149.36 262.121 147.819 262.121C146.767 262.121 145.761 261.732 144.9 261C142.697 259.112 140.73 256.947 139.062 254.561C138.935 255.804 138.591 257.047 137.92 258.235C136.832 260.134 134.983 261.31 133.098 261.31C132.69 261.31 132.282 261.255 131.892 261.144C128.783 260.234 127.976 256.703 127.541 254.805C126.879 251.885 124.885 243.104 124.55 241.627L124.541 241.694C124.287 242.904 123.417 243.692 122.374 243.692C121.323 243.692 120.452 242.893 120.217 241.705C119.691 238.841 118.839 235.754 118.014 232.757L117.987 232.868C117.244 235.577 116.464 238.386 115.956 241.006C115.82 241.616 115.721 242.171 115.639 242.715C115.449 243.848 114.642 244.625 113.672 244.625C112.72 244.625 111.913 243.87 111.714 242.782C111.642 242.393 111.569 242.005 111.496 241.616L108.487 254.805C108.052 256.703 107.245 260.234 104.163 261.133C103.755 261.244 103.347 261.299 102.939 261.299C101.616 261.299 100.302 260.722 99.2501 259.678C99.0869 259.534 98.96 259.39 98.8603 259.268H98.117L98.1079 258.191C97.4553 257.003 97.1199 255.771 96.9839 254.55C95.7421 256.326 94.328 257.991 92.7507 259.523C91.7445 260.5 90.5208 261.022 89.2155 261.022C87.4751 261.022 85.7618 260.056 84.7466 258.502C83.8854 257.181 83.5772 255.56 83.8673 253.917L83.9851 253.273L79.0268 257.014C73.8871 260.9 68.7383 264.774 63.6168 268.671C61.405 270.336 59.5377 271.146 57.8969 271.146C56.5191 271.146 55.3498 270.58 54.407 269.459C53.0745 267.849 52.6213 265.529 53.1924 263.253L59.3926 238.663C54.7062 241.516 29.0803 257.147 29.0803 257.147C27.6843 258.013 26.2883 258.79 24.693 258.79C23.8137 258.79 22.9616 258.546 22.1548 258.058C21.475 257.658 20.8767 257.092 20.3782 256.392C19.653 255.349 19.1998 254.061 19.091 252.751C18.7012 248.766 20.7589 245.602 22.5809 242.815C35.0177 224.031 46.548 204.359 56.8998 184.254C65.747 167.091 73.8689 149.373 81.0572 131.554C83.7132 125.027 86.3148 118.266 88.8076 111.449C89.6687 109.107 90.5208 106.609 91.4182 104.022C96.0593 90.5228 101.326 75.2247 111.234 66.5099C111.243 66.4877 111.351 66.3878 111.46 66.2879C113.056 64.9335 114.361 64.2341 115.53 64.0676C115.739 64.0232 115.993 64.001 116.237 64.001C116.446 64.001 116.654 64.0121 116.845 64.0454C117.234 64.112 117.633 64.1453 118.032 64.1453C118.431 64.1453 118.83 64.112 119.229 64.0454C119.428 64.0121 119.628 64.001 119.836 64.001C121.25 64.001 122.782 64.7226 124.522 66.1991L124.622 66.2879L124.704 66.3878C124.722 66.3989 124.74 66.4211 124.758 66.4322C125.302 66.9096 125.828 67.4092 126.344 67.9087C126.344 67.9087 126.897 68.4638 127.042 68.6082C127.178 68.7303 127.287 68.8635 127.387 68.9856C127.523 69.1188 127.731 69.3631 127.94 69.6073C128.275 69.9848 128.602 70.3733 128.937 70.773C129.399 71.3392 129.862 71.9164 130.315 72.5159C130.759 73.1154 131.203 73.7482 131.62 74.3588C131.711 74.492 131.783 74.603 131.847 74.7141C132.119 75.1137 132.382 75.5356 132.644 75.9574C132.925 76.4015 133.197 76.8567 133.46 77.3118L133.569 77.4895C133.85 77.9668 134.131 78.4442 134.394 78.9327C134.693 79.4878 134.992 80.0317 135.273 80.5979L135.482 80.9976C135.618 81.2529 135.754 81.5083 135.881 81.7747C136.56 83.1069 137.231 84.5279 137.848 85.96C137.984 86.2487 138.129 86.5706 138.256 86.9148C138.573 87.6142 138.899 88.3913 139.216 89.1795C139.624 90.1786 140.041 91.2111 140.44 92.2657V92.2546L140.54 92.4767L140.603 92.6543C140.703 92.9429 140.812 93.2427 140.93 93.5313L140.975 93.6201L141.075 93.9643L141.6 95.352C141.682 95.574 141.745 95.7628 141.827 95.9626C142.045 96.5621 142.235 97.0839 142.416 97.6167L142.625 98.2162C142.661 98.305 142.697 98.4161 142.733 98.5604L143.749 101.436C143.93 101.935 144.093 102.446 144.265 102.957C144.61 103.989 144.936 104.944 145.272 105.865C145.942 107.841 146.595 109.706 147.239 111.472C148.272 114.269 149.314 117.078 150.375 119.864H150.855L150.865 121.13L151.182 121.963C151.562 122.951 151.952 123.95 152.351 124.949C157.726 138.704 163.682 152.47 170.054 165.87C170.716 167.28 171.333 168.578 171.976 169.877C172.475 170.91 172.973 171.931 173.481 172.964L173.934 173.885C174.587 175.228 175.239 176.549 175.91 177.859C176.518 179.069 177.125 180.28 177.732 181.479L177.914 181.845C178.457 182.911 179.001 183.965 179.554 185.031C179.69 185.331 179.808 185.553 179.926 185.764C180.968 187.773 182.011 189.749 183.053 191.703L184.794 194.956C186.978 199.019 189.281 203.16 191.819 207.601C193.178 209.988 194.556 212.385 195.952 214.75C197.104 216.704 198.264 218.647 199.424 220.579L200.847 222.943C202.134 225.064 203.44 227.173 204.754 229.271C205.887 231.081 206.984 232.812 208.099 234.544C208.579 235.31 209.06 236.065 209.558 236.809C210.846 238.807 212.124 240.772 213.429 242.748C215.278 245.557 217.363 248.732 216.964 252.795C216.765 255.038 215.586 257.058 213.891 258.069C213.094 258.546 212.242 258.79 211.371 258.79C209.767 258.79 208.38 258.013 206.975 257.147C203.467 255.016 199.959 252.873 196.451 250.719C192.952 248.566 189.453 246.434 185.936 244.292C182.854 242.427 179.763 240.539 176.672 238.663C178.557 246.157 180.452 253.65 182.328 261.122C183.987 267.594 181.82 270.003 179.708 270.88C179.083 271.146 178.448 271.269 177.796 271.269Z"
        fill="#82E6A7" />
    <path
        d="M116.22 65.6217C116.374 65.6217 116.529 65.6328 116.665 65.655C117.109 65.7327 117.562 65.766 118.015 65.766C118.468 65.766 118.931 65.7327 119.384 65.655C119.52 65.6328 119.665 65.6217 119.819 65.6217C120.889 65.6217 122.176 66.1989 123.744 67.5311C123.798 67.5978 123.862 67.6422 123.916 67.7088C124.46 68.175 124.986 68.6746 125.503 69.1853C125.738 69.4295 125.974 69.6516 126.201 69.8958C126.282 69.9624 126.346 70.0401 126.427 70.14C126.627 70.351 126.826 70.573 127.026 70.8061C127.352 71.1836 127.669 71.5499 127.986 71.9385C128.44 72.4936 128.884 73.0598 129.319 73.637C129.754 74.2143 130.18 74.836 130.588 75.4355C130.651 75.5354 130.724 75.6242 130.769 75.7241C131.05 76.1238 131.313 76.5457 131.576 76.9675C131.839 77.3894 132.102 77.8224 132.356 78.2664C132.664 78.7882 132.981 79.3211 133.271 79.854C133.561 80.3868 133.851 80.9197 134.132 81.4748C134.332 81.8634 134.54 82.2408 134.73 82.6294C135.419 83.9727 136.063 85.3493 136.67 86.7592C136.806 87.0478 136.933 87.3365 137.051 87.6473C137.396 88.4133 137.713 89.1682 138.012 89.9343C138.42 90.9334 138.828 91.9548 139.227 92.9983C139.281 93.1093 139.317 93.2203 139.372 93.3425C139.489 93.6866 139.625 94.0419 139.752 94.3749C139.78 94.4193 139.789 94.4859 139.807 94.5414C139.988 95.041 140.187 95.5628 140.378 96.0624C140.459 96.2844 140.541 96.4953 140.632 96.7285C140.894 97.4612 141.148 98.1828 141.402 98.8933C141.429 98.971 141.466 99.0598 141.484 99.1375C141.828 100.126 142.182 101.114 142.526 102.102C142.707 102.623 142.88 103.134 143.052 103.656C143.378 104.644 143.714 105.61 144.058 106.553C144.72 108.496 145.382 110.372 146.025 112.149C147.176 115.268 148.337 118.399 149.524 121.507C149.524 121.507 149.533 121.507 149.533 121.518C149.678 121.907 149.823 122.284 149.968 122.673C150.349 123.672 150.748 124.682 151.147 125.682C156.576 139.581 162.496 153.258 168.895 166.713C169.53 168.056 170.164 169.4 170.826 170.743C171.461 172.075 172.122 173.396 172.784 174.74C173.428 176.083 174.089 177.415 174.769 178.736C175.431 180.068 176.102 181.39 176.782 182.722C177.326 183.788 177.878 184.853 178.431 185.93C178.549 186.185 178.685 186.452 178.812 186.696C179.845 188.683 180.888 190.659 181.93 192.624C182.511 193.712 183.091 194.789 183.671 195.877C185.973 200.151 188.321 204.37 190.714 208.566C192.074 210.964 193.461 213.362 194.866 215.738C196.017 217.692 197.177 219.635 198.337 221.577C198.809 222.366 199.289 223.143 199.761 223.942C201.057 226.074 202.362 228.194 203.686 230.303C204.792 232.069 205.906 233.834 207.04 235.599C207.511 236.365 208 237.12 208.508 237.886C209.786 239.873 211.073 241.849 212.379 243.825C214.119 246.478 215.959 249.276 215.633 252.662C215.488 254.294 214.654 255.87 213.294 256.681C212.632 257.081 211.98 257.247 211.345 257.247C209.995 257.247 208.726 256.503 207.538 255.782C204.021 253.65 200.522 251.508 197.005 249.354C193.506 247.2 189.998 245.069 186.49 242.926C182.483 240.495 178.468 238.052 174.461 235.61C176.655 244.303 178.848 253.006 181.033 261.688C181.758 264.519 182.193 268.215 179.247 269.437C178.776 269.625 178.277 269.714 177.779 269.714C176.754 269.714 175.721 269.337 174.869 268.693C166.593 262.432 158.326 256.203 150.068 249.953L151.201 256.248C151.636 258.679 149.805 260.555 147.811 260.555C147.077 260.555 146.324 260.3 145.653 259.723C141.937 256.548 138.9 252.507 136.888 247.944C137.677 251.063 138.483 254.416 136.824 257.358C136.027 258.757 134.585 259.734 133.09 259.734C132.782 259.734 132.482 259.689 132.174 259.612C129.972 258.968 129.292 256.548 128.802 254.416C127.334 247.988 125.892 241.583 124.424 235.177C124.025 237.231 123.635 239.307 123.236 241.372C123.128 241.871 122.738 242.127 122.357 242.127C121.967 242.127 121.587 241.871 121.487 241.372C120.653 236.876 119.04 231.758 118.015 227.628C117.906 228.016 117.807 228.438 117.698 228.838C117.58 229.26 117.462 229.682 117.344 230.104C117.254 230.448 117.163 230.803 117.063 231.158C116.22 234.244 115.269 237.564 114.661 240.672C114.525 241.272 114.426 241.871 114.335 242.449C114.271 242.848 113.963 243.048 113.664 243.048C113.365 243.048 113.066 242.859 112.993 242.471C112.531 240.028 112.051 237.586 111.588 235.177C110.12 241.583 108.669 247.999 107.201 254.416C106.712 256.548 106.05 258.968 103.847 259.612C103.539 259.701 103.231 259.734 102.932 259.734C101.862 259.734 100.819 259.234 100.031 258.424C99.9221 258.346 99.8314 258.235 99.7408 258.113C99.6229 257.98 99.5141 257.835 99.4235 257.691C99.4235 257.691 99.4144 257.691 99.4144 257.68C99.3328 257.58 99.2694 257.469 99.2059 257.358C97.5562 254.416 98.3357 251.063 99.1244 247.944C97.4021 251.863 94.9365 255.371 91.9179 258.313C91.1021 259.112 90.1412 259.456 89.2076 259.456C86.8508 259.456 84.6208 257.236 85.1557 254.327L85.9624 249.942C78.2756 255.748 70.5796 261.543 62.92 267.361C61.4424 268.471 59.5841 269.592 57.8981 269.592C56.9554 269.592 56.067 269.248 55.3237 268.36C54.3085 267.128 54.0547 265.385 54.4535 263.797C56.8194 254.394 59.1944 245.002 61.5603 235.599C52.7312 240.972 43.875 246.379 35.0369 251.763C32.8433 253.106 30.6768 254.416 28.4832 255.759C27.3048 256.492 26.0357 257.225 24.6851 257.225C24.0505 257.225 23.4069 257.058 22.7362 256.659C22.1923 256.337 21.7481 255.893 21.3765 255.382C20.8326 254.605 20.4881 253.639 20.4156 252.651C20.0893 249.265 21.9385 246.467 23.6698 243.814C36.161 224.963 47.6278 205.38 58.025 185.175C66.8903 167.968 74.976 150.349 82.2459 132.331C84.9562 125.659 87.5487 118.932 90.0143 112.171C95.1903 98.0384 100.484 78.0222 112.005 67.8753C112.114 67.7643 112.205 67.6866 112.313 67.5867C113.619 66.4876 114.734 65.8659 115.695 65.7216C115.858 65.6328 116.039 65.6217 116.22 65.6217ZM116.22 62.38C115.912 62.38 115.613 62.4022 115.314 62.4577C113.936 62.6797 112.459 63.4568 110.8 64.8556L110.754 64.889L110.709 64.9334C110.573 65.0555 110.464 65.1554 110.365 65.2664C100.212 74.2698 94.6555 90.4116 90.1866 103.401C89.2892 106.009 88.4371 108.485 87.5941 110.794C85.1103 117.6 82.5088 124.338 79.8709 130.844C72.7008 148.618 64.5969 166.291 55.777 183.399C45.4523 203.449 33.9583 223.065 21.6031 241.727L21.5396 241.816C19.6632 244.702 17.3155 248.288 17.7778 252.984C17.9047 254.549 18.4667 256.159 19.355 257.436C19.9896 258.335 20.7329 259.023 21.5668 259.523C22.5549 260.111 23.5973 260.411 24.676 260.411C26.7156 260.411 28.4922 259.323 29.6616 258.59C30.7493 257.924 31.8371 257.258 32.9249 256.603C34.0217 255.937 35.1095 255.271 36.2063 254.605L45.1078 249.176C49.1416 246.712 53.1754 244.258 57.2092 241.805C56.6291 244.092 56.0489 246.39 55.4778 248.677C54.2904 253.373 53.1029 258.08 51.9245 262.776C51.2174 265.596 51.8066 268.593 53.4655 270.591C54.662 272.012 56.194 272.756 57.8981 272.756C59.7836 272.756 61.8866 271.868 64.3069 270.047C69.6097 266.028 74.9216 262.021 80.2335 258.002L82.5178 256.281C82.681 257.436 83.0798 258.535 83.7144 259.501C84.9925 261.455 87.0502 262.62 89.2166 262.62C90.8302 262.62 92.3349 261.976 93.5768 260.766C94.5739 259.789 95.5075 258.779 96.3687 257.713C96.4865 258.024 96.6225 258.335 96.7766 258.635V260.855L98.3539 260.866C98.3901 260.9 98.4173 260.933 98.4536 260.955C99.7408 262.209 101.327 262.909 102.941 262.909C103.448 262.909 103.956 262.842 104.454 262.698C108.307 261.566 109.286 257.28 109.757 255.227L111.597 247.156C111.715 246.656 111.824 246.157 111.942 245.646C112.449 246.012 113.048 246.223 113.682 246.223C115.287 246.223 116.628 244.913 116.946 243.037C117.045 242.393 117.136 241.905 117.236 241.449L117.245 241.405L117.254 241.361C117.471 240.25 117.734 239.096 118.033 237.93C118.387 239.329 118.695 240.706 118.94 242.016C119.321 243.958 120.744 245.291 122.393 245.291C122.946 245.291 123.472 245.146 123.943 244.869C124.052 245.346 124.161 245.835 124.27 246.312C124.941 249.276 125.611 252.24 126.291 255.215C126.763 257.28 127.742 261.554 131.594 262.687C132.12 262.831 132.618 262.898 133.126 262.898C135.438 262.898 137.695 261.466 139.027 259.145C139.29 258.679 139.517 258.202 139.698 257.713C141.058 259.379 142.553 260.911 144.176 262.298C145.255 263.22 146.524 263.708 147.847 263.708C149.778 263.708 151.618 262.665 152.769 260.911C153.603 259.645 154.002 258.135 153.939 256.57C155.888 258.046 157.836 259.512 159.794 260.988C164.363 264.441 168.941 267.894 173.518 271.357C174.796 272.323 176.319 272.867 177.815 272.867C178.604 272.867 179.374 272.723 180.099 272.423C181.885 271.679 185.747 269.059 183.58 260.622C182.003 254.361 180.426 248.077 178.839 241.782C181.006 243.104 183.181 244.425 185.348 245.735C188.856 247.866 192.355 249.998 195.854 252.151C199.371 254.305 202.879 256.448 206.396 258.579C207.556 259.29 209.324 260.389 211.373 260.389C212.451 260.389 213.503 260.089 214.491 259.49C216.576 258.246 218.035 255.726 218.289 252.929C218.751 248.221 216.376 244.613 214.473 241.716C213.167 239.74 211.889 237.775 210.62 235.799C210.113 235.033 209.641 234.289 209.179 233.556C208.028 231.769 206.922 230.015 205.816 228.261C204.511 226.185 203.196 224.053 201.918 221.944L201.202 220.767L200.495 219.601C199.335 217.67 198.183 215.738 197.032 213.784C195.609 211.364 194.222 208.966 192.908 206.657C190.37 202.216 188.085 198.086 185.901 194.034L185.203 192.735L184.16 190.782C183.127 188.839 182.084 186.885 181.06 184.898C180.933 184.665 180.834 184.476 180.752 184.287L180.716 184.209L180.679 184.132C180.127 183.066 179.574 182.011 179.039 180.957C178.359 179.624 177.697 178.314 177.045 176.993C176.365 175.661 175.721 174.362 175.077 173.03L174.606 172.064C174.108 171.054 173.609 170.044 173.129 169.033C172.458 167.679 171.841 166.358 171.216 165.037C164.852 151.648 158.915 137.927 153.558 124.216C153.159 123.217 152.769 122.218 152.389 121.23L152.198 120.741V118.221L151.228 118.21C150.385 115.99 149.488 113.581 148.445 110.75C147.802 108.985 147.149 107.12 146.506 105.232L146.496 105.188L146.478 105.143C146.143 104.233 145.826 103.301 145.508 102.346C145.327 101.802 145.146 101.269 144.955 100.725C144.792 100.248 144.611 99.7481 144.439 99.2485C144.285 98.8156 144.131 98.3715 143.976 97.9385C143.922 97.7609 143.877 97.6277 143.841 97.5389V97.5278L143.614 96.8839C143.433 96.3732 143.251 95.8514 143.061 95.3296L143.034 95.263L143.007 95.1964C142.934 95.0299 142.88 94.8745 142.816 94.708L142.499 93.8642L142.281 93.2758C142.245 93.1426 142.191 92.9983 142.118 92.8207C142.009 92.5431 141.91 92.2656 141.81 91.9881L141.747 91.8215L141.674 91.655C141.647 91.5884 141.62 91.5218 141.592 91.4663C141.194 90.4338 140.786 89.4236 140.378 88.4244C140.042 87.5807 139.716 86.8147 139.399 86.1042C139.263 85.7711 139.118 85.4492 138.973 85.1272C138.365 83.7284 137.695 82.2852 136.979 80.8975C136.852 80.6311 136.707 80.3646 136.571 80.0982C136.498 79.965 136.435 79.8429 136.362 79.7096C136.081 79.1435 135.773 78.5773 135.465 78.0111C135.193 77.5115 134.894 77.0008 134.613 76.5124L134.504 76.3236C134.25 75.8796 133.96 75.4022 133.67 74.947C133.407 74.5252 133.135 74.1033 132.863 73.6926C132.791 73.5704 132.7 73.4372 132.618 73.3151C132.165 72.6601 131.73 72.0162 131.268 71.4056C130.851 70.8505 130.389 70.2621 129.854 69.6072C129.509 69.1853 129.165 68.7856 128.811 68.386C128.63 68.175 128.431 67.953 128.231 67.731C128.14 67.62 128.014 67.4756 127.859 67.3313C127.714 67.187 127.578 67.0427 127.424 66.8872L127.198 66.6541C126.717 66.1878 126.155 65.6439 125.557 65.1221C125.548 65.111 125.548 65.111 125.539 65.0999L125.457 65L125.267 64.8334C123.3 63.1571 121.523 62.3467 119.828 62.3467C119.574 62.3467 119.311 62.3689 119.067 62.4022C118.713 62.4577 118.369 62.491 118.024 62.491C117.689 62.491 117.353 62.4688 117.027 62.4133C116.746 62.4022 116.483 62.38 116.22 62.38Z"
        fill="#151A28" />
    <path
        d="M181.051 261.62C181.776 264.44 182.211 268.148 179.256 269.369C177.806 269.957 176.147 269.58 174.878 268.625C166.611 262.364 158.344 256.125 150.077 249.886L151.219 256.18C151.817 259.5 148.164 261.787 145.662 259.655C141.955 256.491 138.918 252.439 136.906 247.887C137.703 250.996 138.501 254.36 136.833 257.29C135.872 258.989 133.996 260.055 132.183 259.544C129.98 258.9 129.31 256.491 128.82 254.36C127.352 247.932 125.91 241.515 124.442 235.109C124.043 237.174 123.644 239.25 123.245 241.315C123.046 242.325 121.686 242.325 121.487 241.315C120.653 236.808 119.048 231.701 118.015 227.582C117.815 228.382 117.58 229.203 117.344 230.058C117.344 229.903 117.326 229.769 117.326 229.614C115.676 193.323 121.976 156.854 118.305 120.74C116.51 103.155 112.386 85.3704 111.969 67.8409C112.078 67.7299 112.168 67.6522 112.277 67.5523C113.582 66.4421 114.697 65.8315 115.658 65.6872C116.003 65.6317 116.347 65.6317 116.655 65.665C117.544 65.8204 118.468 65.8204 119.366 65.665C120.526 65.4985 121.949 66.0314 123.726 67.5523C123.78 67.6078 123.853 67.6633 123.907 67.7188C123.889 71.4046 124.143 75.2568 124.813 79.5643C129.155 107.685 140.713 133.973 152.778 159.219C165.713 186.295 179.646 213.739 186.481 242.881C182.483 240.438 178.467 237.996 174.47 235.553C176.673 244.235 178.866 252.939 181.051 261.62Z"
        fill="#44BFA3" />
    <path
        d="M215.64 252.606C215.495 254.238 214.661 255.814 213.301 256.624C211.217 257.89 209.286 256.791 207.554 255.714C204.037 253.583 200.538 251.44 197.021 249.286C189.498 244.701 181.983 240.127 174.477 235.542C176.671 244.235 178.865 252.939 181.049 261.62C181.774 264.451 182.21 268.148 179.264 269.369C177.813 269.946 176.145 269.58 174.885 268.625C166.609 262.364 158.342 256.136 150.084 249.886L151.217 256.18C151.816 259.5 148.163 261.798 145.67 259.655C141.953 256.48 138.917 252.439 136.904 247.876C137.693 250.996 138.5 254.349 136.841 257.29C135.88 258.978 134.004 260.044 132.191 259.544C129.988 258.9 129.308 256.48 128.819 254.349C127.35 247.921 125.909 241.515 124.44 235.109C124.041 237.163 123.652 239.239 123.253 241.304C123.044 242.303 121.694 242.303 121.494 241.304C120.66 236.808 119.047 231.69 118.022 227.56C117.914 227.949 117.814 228.371 117.705 228.77C117.506 229.514 117.297 230.291 117.071 231.08C116.228 234.166 115.276 237.485 114.669 240.594C114.533 241.193 114.433 241.793 114.342 242.37C114.206 243.158 113.137 243.158 112.992 242.381C112.529 239.939 112.049 237.496 111.587 235.087C110.118 241.493 108.668 247.91 107.199 254.326C106.71 256.458 106.048 258.878 103.845 259.522C102.467 259.91 101.044 259.378 100.029 258.345C99.9203 258.267 99.8296 258.156 99.739 258.034C99.6211 257.901 99.5124 257.757 99.4217 257.612C99.4217 257.612 99.4126 257.612 99.4126 257.601C99.3311 257.501 99.2676 257.39 99.2042 257.279C97.5544 254.337 98.3339 250.985 99.1226 247.865C97.4003 251.784 94.9347 255.292 91.9161 258.234C89.0517 261.032 84.4106 258.312 85.1539 254.249L85.9606 249.863C78.2738 255.67 70.5778 261.465 62.9182 267.282C60.6157 269.014 57.4068 270.757 55.3219 268.281C54.3067 267.049 54.0529 265.306 54.4517 263.718C56.8176 254.315 59.1926 244.923 61.5585 235.52C52.7294 240.893 43.8732 246.3 35.0352 251.684C42.015 243.302 54.0257 235.254 64.9396 227.882C73.968 221.799 82.2532 216.181 86.3323 211.185C101.724 192.346 101.117 226.128 110.345 209.231C112.139 205.945 114.578 204.558 117.27 204.258C128.411 203.059 144.02 220.666 138.055 200.794C130.686 176.115 195.752 243.402 170.706 211.829C166.065 205.968 161.071 196.598 156.022 185.208C145.924 162.516 135.608 131.798 127.323 105.031C122.655 89.9444 118.639 76.1117 115.684 65.654C116.028 65.5874 116.373 65.5874 116.672 65.6429C117.56 65.7872 118.485 65.7872 119.391 65.6429C120.542 65.4653 121.966 65.9981 123.751 67.5191C124.359 68.0408 124.939 68.5848 125.51 69.1732C125.746 69.4174 125.981 69.6395 126.208 69.8837C126.289 69.9503 126.353 70.028 126.434 70.1279C126.634 70.3389 126.833 70.5609 127.033 70.794C127.359 71.1715 127.676 71.5378 127.994 71.9264C128.447 72.4815 128.891 73.0477 129.326 73.625C129.761 74.2022 130.187 74.8239 130.595 75.4234C130.659 75.5233 130.731 75.6122 130.776 75.7121C131.058 76.1117 131.32 76.5336 131.583 76.9554C131.846 77.3773 132.109 77.8103 132.363 78.2543C132.671 78.7761 132.988 79.309 133.278 79.8419C133.568 80.3747 133.858 80.9076 134.139 81.4627C134.339 81.8513 134.547 82.2287 134.738 82.6173C135.427 83.9606 136.07 85.3372 136.678 86.7471C136.814 87.0357 136.94 87.3244 137.058 87.6352C137.403 88.4012 137.72 89.1562 138.019 89.9222C138.427 90.9213 138.835 91.9427 139.234 92.9862C139.288 93.0972 139.324 93.2082 139.379 93.3304C139.497 93.6745 139.633 94.0298 139.76 94.3628C139.787 94.4072 139.796 94.4738 139.814 94.5293C139.995 95.0289 140.195 95.5507 140.385 96.0503C140.467 96.2723 140.548 96.4832 140.639 96.7164C140.893 97.4491 141.156 98.1596 141.409 98.8812C141.437 98.9589 141.473 99.0477 141.491 99.1254C141.835 100.113 142.189 101.102 142.533 102.09C142.715 102.611 142.887 103.122 143.059 103.644C143.385 104.632 143.721 105.598 144.065 106.541C144.727 108.484 145.389 110.36 146.032 112.137C147.184 115.256 148.344 118.387 149.531 121.495C149.531 121.495 149.54 121.495 149.54 121.506C149.685 121.895 149.83 122.272 149.976 122.661C150.356 123.66 150.755 124.67 151.154 125.669C156.584 139.569 162.503 153.246 168.903 166.701C169.537 168.044 170.181 169.388 170.833 170.731C171.468 172.063 172.13 173.384 172.791 174.728C173.435 176.06 174.097 177.403 174.777 178.724C175.438 180.056 176.109 181.377 176.789 182.71C177.333 183.775 177.886 184.841 178.439 185.918C178.557 186.173 178.692 186.44 178.819 186.684C179.853 188.671 180.895 190.647 181.938 192.612C182.518 193.711 183.098 194.799 183.678 195.865C185.981 200.139 188.328 204.358 190.721 208.554C192.081 210.952 193.468 213.35 194.873 215.726C196.024 217.68 197.184 219.623 198.345 221.565C198.816 222.354 199.297 223.153 199.768 223.93C201.064 226.062 202.369 228.182 203.693 230.291C204.799 232.056 205.914 233.822 207.047 235.587C207.518 236.353 208.008 237.108 208.515 237.874C209.784 239.861 211.081 241.837 212.386 243.813C214.135 246.422 215.976 249.22 215.64 252.606Z"
        fill="#24798D" />
    <path
        d="M99.4064 257.613C99.3158 257.513 99.2433 257.402 99.1889 257.291C97.5391 254.349 98.3187 250.996 99.1164 247.888C97.3941 251.796 94.9194 255.304 91.919 258.246C89.0455 261.054 84.4134 258.346 85.1567 254.282L85.9544 249.897C78.2676 255.692 70.5807 261.498 62.9029 267.316C60.6095 269.036 57.4006 270.791 55.3067 268.304C54.2914 267.083 54.0376 265.329 54.4365 263.741C56.8024 254.338 59.1773 244.946 61.5432 235.543C52.7142 240.927 43.867 246.323 35.0199 251.718C32.8353 253.05 30.6598 254.371 28.4752 255.703C26.7347 256.769 24.8221 257.879 22.7191 256.614C22.1752 256.292 21.722 255.848 21.3594 255.337C37.839 246.023 53.0586 234.233 66.42 220.467C65.5498 224.741 64.6977 229.015 63.8366 233.289C69.0306 232.645 73.9165 229.737 77.1526 225.407C74.551 235.399 71.1246 245.168 66.9457 254.56C76.2461 249.486 84.0418 241.438 89.0364 231.724C88.6738 237.486 88.837 242.615 88.4563 248.376C94.303 247.155 98.3005 241.627 101.736 236.486C101.854 243.592 101.201 250.785 99.4064 257.613Z"
        fill="#45BC9F" />
    <path
        d="M90.1406 135.816C95.7154 134.185 98.6886 127.879 100.574 122.106C102.45 116.366 109.566 98.4262 104.327 93.6191C97.8819 106.242 94.6458 122.239 90.1406 135.816Z"
        fill="#D6F8CF" />
    <path
        d="M77.668 167.633C81.4298 166.534 83.4331 162.271 84.7112 158.375C85.9803 154.5 90.7846 142.388 87.2494 139.146C82.8892 147.661 80.7046 158.463 77.668 167.633Z"
        fill="#D6F8CF" />
    <path
        d="M178.809 186.65C178.147 187.172 177.395 187.538 176.643 187.771C174.703 188.349 172.681 188.116 170.696 187.882C169.173 187.705 167.66 187.505 166.137 187.305C162.728 186.839 159.32 186.217 156.011 185.229C153.147 184.374 150.355 183.209 147.708 181.588C146.031 180.555 144.39 179.323 142.568 178.79C140.728 178.257 138.616 178.513 137.293 180.145C136.522 181.099 136.105 182.376 135.353 183.32C133.649 185.44 130.712 185.196 128.591 183.741C126.479 182.298 124.92 179.9 123.17 177.847C122.445 177.003 121.584 176.159 120.596 176.181C119.635 176.215 118.928 176.992 118.429 178.046V178.057C118.058 178.835 117.804 179.745 117.677 180.566C117.35 182.576 117.069 184.918 115.637 185.951C113.897 187.194 111.712 185.662 110.244 183.964C108.793 182.243 107.216 180.178 105.213 180.278C102.439 180.389 100.889 184.474 98.2784 185.573C96.2841 186.417 94.027 185.318 92.5313 183.519C91.0266 181.721 90.1111 179.312 89.2409 176.981C84.8445 180.2 80.2849 183.098 75.6076 185.651C72.0089 187.605 67.0595 191.157 63.0529 191.246C60.1885 191.324 58.8741 188.282 58.0039 185.129C66.8692 167.922 74.9549 150.303 82.2248 132.285C83.9924 129.632 85.8053 127.023 87.7089 124.536C90.3377 121.073 93.2475 117.776 96.3657 114.856C99.0579 112.347 101.913 110.127 104.914 108.361C108.485 106.241 112.238 104.764 116.136 104.187C117.523 103.976 118.937 103.876 120.369 103.91C122.735 103.954 125.065 104.343 127.322 105.042C128.618 105.431 129.887 105.919 131.138 106.485H131.147C137.991 109.594 144.227 115.178 149.53 121.472C149.53 121.472 149.539 121.472 149.539 121.484C149.684 121.872 149.829 122.25 149.974 122.638C150.355 123.637 150.754 124.647 151.153 125.647C156.583 139.546 162.502 153.223 168.901 166.678C169.536 168.022 170.17 169.365 170.832 170.708C171.467 172.04 172.128 173.361 172.79 174.705C173.434 176.048 174.096 177.38 174.775 178.701C175.437 180.034 176.108 181.355 176.788 182.687C177.332 183.753 177.885 184.818 178.438 185.895C178.546 186.151 178.682 186.406 178.809 186.65Z"
        fill="#2A4165" />
    <path
        d="M161.687 177.936C160.681 177.936 159.657 177.525 158.787 176.77C153.638 172.252 148.498 167.733 143.359 163.226L143.576 164.592C143.794 165.99 143.513 167.356 142.787 168.433C142.053 169.51 140.938 170.154 139.805 170.154C138.926 170.154 138.092 169.787 137.394 169.088C136.007 167.711 134.738 166.146 133.632 164.447C133.496 165.191 133.26 165.935 132.907 166.656C132.064 168.388 130.586 169.465 129.054 169.465C128.71 169.465 128.366 169.41 128.03 169.299C125.565 168.455 124.957 165.369 124.631 163.715L122.673 153.723C122.31 154.223 121.785 154.522 121.204 154.522C120.262 154.522 119.464 153.723 119.274 152.591C118.965 150.637 118.503 148.561 118.023 146.507C117.47 148.883 116.935 151.281 116.636 153.457C116.491 154.533 115.738 155.311 114.841 155.311C114.17 155.311 113.581 154.878 113.264 154.212L111.405 163.715C111.079 165.369 110.472 168.455 108.015 169.299C107.671 169.41 107.326 169.465 106.982 169.465C105.595 169.465 104.262 168.588 103.392 167.123C103.274 166.956 103.166 166.756 103.084 166.557C102.758 165.879 102.54 165.18 102.404 164.469C101.634 165.646 100.782 166.768 99.857 167.822C99.0412 168.744 98.0441 169.232 96.9745 169.232C95.6873 169.232 94.4273 168.499 93.6024 167.278C92.8319 166.135 92.5056 164.703 92.6869 163.215C87.9642 167.356 83.2505 171.486 78.5369 175.638C76.8327 177.114 75.3824 177.825 74.0952 177.825C72.9712 177.825 71.9831 177.281 71.2217 176.237C70.2155 174.827 69.871 172.829 70.2971 170.875L74.6753 150.726L53.2736 165.89C52.4034 166.512 51.2159 167.356 49.829 167.356C49.1129 167.356 48.4149 167.123 47.7532 166.668C47.2093 166.29 46.7379 165.779 46.3572 165.136C45.8224 164.236 45.4779 163.126 45.3873 161.994C45.0972 158.552 46.6291 155.843 47.9798 153.446C67.6683 118.908 83.9304 81.4514 96.3218 42.085C96.9473 40.1089 97.5727 37.9996 98.2163 35.8126C101.616 24.3335 105.468 11.3112 112.765 3.85093C112.783 3.81763 112.874 3.72881 112.974 3.6289C114.143 2.47433 115.158 1.84153 116.11 1.66391C116.309 1.6306 116.518 1.6084 116.717 1.6084C116.881 1.6084 117.035 1.6195 117.189 1.6417C117.497 1.69721 117.76 1.73052 118.023 1.73052C118.286 1.73052 118.548 1.70831 118.811 1.65281C118.993 1.6195 119.165 1.6084 119.328 1.6084C120.479 1.6084 121.694 2.2634 123.035 3.60669C123.035 3.60669 123.226 3.80652 123.262 3.86203C130.532 11.2002 134.403 24.2891 137.82 35.8348C138.464 38.0218 139.089 40.1311 139.715 42.1072C152.088 81.4181 168.35 118.875 188.038 153.434C189.335 155.699 190.939 158.519 190.649 162.016C190.504 163.992 189.616 165.735 188.283 166.668C187.621 167.123 186.923 167.356 186.207 167.356C184.82 167.356 183.624 166.501 182.763 165.879L161.37 150.726L165.349 169.077C166.582 174.672 164.887 176.781 163.246 177.569C162.748 177.825 162.222 177.936 161.687 177.936Z"
        fill="#82E6A7" />
    <path
        d="M119.318 3.24168C120.106 3.24168 121.049 3.73015 122.191 4.87362C122.228 4.91803 122.282 4.97353 122.327 5.01794C130.812 13.5995 134.683 30.6516 138.472 42.6969C150.881 82.1188 167.198 119.72 186.941 154.368C188.219 156.622 189.56 158.998 189.315 161.862C189.207 163.25 188.599 164.582 187.611 165.281C187.122 165.625 186.65 165.759 186.188 165.759C185.2 165.759 184.275 165.126 183.405 164.504C178.275 160.874 173.153 157.233 168.022 153.613C165.104 151.537 162.167 149.472 159.248 147.396C160.843 154.779 162.448 162.162 164.043 169.522C164.569 171.92 164.886 175.062 162.738 176.094C162.393 176.261 162.031 176.338 161.668 176.338C160.916 176.338 160.163 176.017 159.538 175.473C153.501 170.166 147.464 164.87 141.418 159.575L142.252 164.915C142.569 166.969 141.227 168.567 139.777 168.567C139.242 168.567 138.689 168.356 138.2 167.868C135.489 165.181 133.268 161.751 131.8 157.888C132.38 160.53 132.96 163.372 131.746 165.87C131.165 167.057 130.123 167.89 129.026 167.89C128.8 167.89 128.573 167.857 128.346 167.779C126.733 167.224 126.243 165.192 125.89 163.372C124.82 157.921 123.76 152.481 122.69 147.041C122.4 148.784 122.11 150.549 121.82 152.303C121.747 152.736 121.466 152.947 121.176 152.947C120.895 152.947 120.605 152.736 120.533 152.303C119.925 148.484 118.747 144.144 117.994 140.647C117.849 141.324 117.677 142.023 117.505 142.756C116.725 146.109 115.765 149.905 115.302 153.225C115.257 153.569 115.039 153.736 114.813 153.736C114.595 153.736 114.378 153.569 114.323 153.236C113.979 151.16 113.634 149.095 113.29 147.041C112.22 152.481 111.16 157.921 110.09 163.372C109.736 165.181 109.247 167.224 107.633 167.779C107.407 167.857 107.18 167.89 106.954 167.89C105.947 167.89 104.987 167.191 104.388 166.147C104.325 166.069 104.27 165.97 104.234 165.87C103.029 163.372 103.6 160.53 104.18 157.888C102.929 161.207 101.116 164.182 98.9223 166.68C98.324 167.357 97.617 167.657 96.9371 167.657C95.2148 167.657 93.5923 165.781 93.982 163.316L94.5622 159.597C88.9421 164.515 83.331 169.433 77.729 174.373C76.6503 175.306 75.2997 176.261 74.0669 176.261C73.378 176.261 72.7344 175.972 72.1814 175.217C71.4381 174.185 71.2568 172.697 71.5469 171.354C73.2783 163.372 75.0096 155.412 76.741 147.43C70.296 151.993 63.8329 156.578 57.3697 161.151C55.7743 162.284 54.188 163.405 52.5836 164.537C51.7134 165.159 50.7888 165.792 49.8007 165.792C49.3384 165.792 48.867 165.659 48.3775 165.315C47.9787 165.037 47.6524 164.671 47.3895 164.227C46.9906 163.56 46.7459 162.739 46.6734 161.895C46.4377 159.031 47.7793 156.655 49.0483 154.402C68.8003 119.753 85.1077 82.1521 97.5173 42.7302C101.297 30.7404 105.159 13.7549 113.571 5.15116C113.652 5.05125 113.716 4.98464 113.797 4.90693C114.749 3.96329 115.565 3.45261 116.272 3.31939C116.408 3.29719 116.544 3.28608 116.68 3.28608C116.789 3.28608 116.898 3.29719 116.997 3.30829C117.324 3.3749 117.65 3.4082 117.985 3.4082C118.321 3.4082 118.647 3.3749 118.982 3.30829C119.109 3.25278 119.218 3.24168 119.318 3.24168ZM119.318 0C119.091 0 118.865 0.0222024 118.638 0.0555074C118.393 0.0999139 118.203 0.122117 118.013 0.122117C117.822 0.122117 117.632 0.0999142 117.451 0.0666092L117.396 0.0555074L117.342 0.0444055C117.142 0.0111005 116.934 0 116.716 0C116.435 0 116.163 0.0222029 115.891 0.0777111C114.722 0.299744 113.498 1.03245 112.175 2.34244L112.157 2.35355L112.111 2.39795C112.012 2.49787 111.93 2.58668 111.84 2.6977C104.316 10.4577 100.418 23.6354 96.9734 35.281C96.3207 37.4902 95.7043 39.5662 95.0879 41.5201C82.7327 80.7644 66.5251 118.099 46.9181 152.503C45.495 155.034 43.7455 158.132 44.0809 162.173C44.1897 163.594 44.6066 164.948 45.2865 166.092C45.7941 166.924 46.4014 167.59 47.1085 168.079C47.9606 168.678 48.8761 168.978 49.8279 168.978C51.5683 168.978 53.0005 167.957 53.9433 167.28L56.3363 165.592L58.7204 163.905L59.1373 163.605C63.6153 160.43 68.1023 157.255 72.5712 154.08L71.6194 158.476L69.0179 170.466C68.483 172.941 68.9272 175.495 70.2144 177.293C71.2478 178.703 72.5803 179.447 74.085 179.447C75.6532 179.447 77.3574 178.636 79.2791 176.96C83.3854 173.341 87.4917 169.744 91.589 166.147C91.7975 166.924 92.1328 167.657 92.5679 168.301C93.6376 169.888 95.2783 170.843 96.9553 170.843C98.3512 170.843 99.6928 170.188 100.735 169.011C101.17 168.523 101.587 168.012 101.986 167.49C102.095 167.712 102.213 167.923 102.349 168.123C103.464 169.977 105.186 171.076 106.972 171.076C107.434 171.076 107.887 170.999 108.331 170.854C111.558 169.755 112.311 165.925 112.673 164.082L114.06 157.011C114.069 156.944 114.088 156.877 114.097 156.822C114.332 156.888 114.577 156.922 114.822 156.922C116.363 156.922 117.659 155.567 117.913 153.702C117.94 153.513 117.967 153.325 117.994 153.136C118.393 154.923 119.671 156.133 121.176 156.133C121.376 156.133 121.566 156.111 121.747 156.078C121.811 156.389 121.865 156.7 121.928 157.022L123.315 164.093C123.678 165.936 124.43 169.766 127.63 170.854C128.092 171.01 128.555 171.087 129.017 171.087C131.011 171.087 132.915 169.711 134.003 167.502C134.791 168.523 135.634 169.478 136.523 170.355C137.456 171.287 138.58 171.776 139.768 171.776C141.291 171.776 142.786 170.91 143.765 169.467C144.336 168.623 144.708 167.613 144.862 166.547C149.24 170.388 153.619 174.218 157.988 178.07C159.076 179.025 160.381 179.547 161.659 179.547C162.357 179.547 163.046 179.391 163.68 179.092C165.448 178.248 168.158 175.761 166.581 168.656C165.53 163.805 164.478 158.942 163.418 154.08L166.681 156.389C169.246 158.209 171.812 160.019 174.377 161.84C176.942 163.66 179.498 165.47 182.064 167.28C182.997 167.946 184.421 168.967 186.17 168.967C187.122 168.967 188.037 168.667 188.898 168.068C190.612 166.869 191.736 164.648 191.926 162.139C192.261 158.076 190.421 154.846 189.08 152.492C169.446 118.044 153.238 80.6978 140.91 41.509C140.294 39.5551 139.677 37.4791 139.025 35.2699C135.562 23.5577 131.637 10.2912 124.032 2.55338C124.013 2.53117 123.995 2.50897 123.977 2.49787L123.932 2.44236L123.832 2.34244C122.282 0.777113 120.795 0 119.318 0Z"
        fill="#151A28" />
    <path
        d="M164.06 169.509C164.585 171.907 164.903 175.049 162.754 176.082C161.694 176.581 160.479 176.259 159.554 175.449C153.517 170.142 147.48 164.847 141.434 159.551L142.268 164.891C142.703 167.711 140.038 169.654 138.207 167.833C135.497 165.146 133.276 161.716 131.807 157.853C132.388 160.495 132.968 163.337 131.753 165.835C131.055 167.278 129.677 168.177 128.354 167.744C126.74 167.189 126.251 165.158 125.897 163.337C124.828 157.886 123.767 152.446 122.697 147.006C122.407 148.749 122.117 150.515 121.827 152.269C121.682 153.123 120.694 153.123 120.549 152.269C119.942 148.45 118.763 144.109 118.011 140.612C117.866 141.289 117.694 141.988 117.521 142.721C117.521 142.588 117.512 142.477 117.512 142.344C116.307 111.559 120.912 80.6186 118.228 49.9781C116.923 35.0575 113.905 19.9703 113.605 5.09413C113.687 4.99421 113.751 4.9276 113.832 4.84989C114.784 3.90625 115.6 3.39557 116.307 3.26235C116.561 3.21795 116.805 3.21795 117.032 3.25125C117.676 3.38447 118.355 3.38447 119.017 3.25125C119.86 3.10693 120.903 3.5621 122.199 4.84989C122.235 4.89429 122.289 4.9498 122.335 4.99421C122.326 8.11377 122.507 11.3888 122.996 15.0412C126.169 38.8986 134.608 61.2018 143.428 82.6058C152.874 105.575 163.053 128.866 168.048 153.579C165.129 151.503 162.192 149.438 159.273 147.362C160.86 154.766 162.464 162.149 164.06 169.509Z"
        fill="#44BFA3" />
    <path
        d="M189.325 161.861C189.216 163.249 188.609 164.581 187.62 165.28C186.089 166.346 184.684 165.413 183.414 164.503C175.365 158.808 167.306 153.091 159.257 147.395C160.852 154.778 162.457 162.161 164.052 169.521C164.578 171.919 164.895 175.061 162.747 176.093C161.686 176.593 160.472 176.271 159.547 175.46C153.51 170.154 147.473 164.858 141.427 159.563L142.261 164.903C142.696 167.723 140.031 169.665 138.2 167.845C135.489 165.158 133.269 161.728 131.8 157.864C132.38 160.507 132.96 163.349 131.746 165.846C131.048 167.29 129.67 168.189 128.346 167.756C126.733 167.201 126.243 165.169 125.89 163.349C124.82 157.898 123.76 152.458 122.69 147.018C122.4 148.761 122.11 150.526 121.82 152.28C121.675 153.135 120.687 153.135 120.542 152.28C119.934 148.461 118.756 144.12 118.004 140.623C117.17 144.409 115.864 149.172 115.311 153.202C115.221 153.879 114.441 153.879 114.332 153.213C113.988 151.137 113.643 149.072 113.299 147.018C112.229 152.458 111.169 157.898 110.099 163.349C109.746 165.158 109.256 167.201 107.643 167.756C106.319 168.189 104.95 167.29 104.243 165.846C103.038 163.349 103.609 160.507 104.189 157.864C102.938 161.184 101.125 164.159 98.9315 166.657C96.8285 169.033 93.4473 166.735 93.9912 163.293L94.5714 159.574C88.9512 164.492 83.3402 169.41 77.7382 174.35C76.0612 175.805 73.7226 177.292 72.1906 175.194C71.4473 174.162 71.266 172.674 71.5561 171.331C73.2874 163.349 75.0188 155.389 76.7502 147.407C70.3052 151.969 63.842 156.554 57.3789 161.128C66.6793 148.128 88.2623 136.127 94.8524 126.758C106.102 110.782 105.648 139.424 112.393 125.103C119.146 110.782 138.046 138.881 132.634 117.954C127.241 97.0162 174.776 154.09 156.483 127.313C142.533 106.886 124.195 35.8351 116.281 3.30727C116.535 3.26287 116.78 3.26287 117.006 3.29617C117.65 3.42939 118.33 3.42939 118.992 3.29617C119.835 3.15185 120.877 3.60702 122.173 4.89481C130.749 13.4431 134.646 30.6173 138.454 42.7181C150.863 82.14 167.18 119.741 186.923 154.39C188.228 156.61 189.569 158.997 189.325 161.861Z"
        fill="#24798D" />
    <path
        d="M104.425 166.113C104.361 166.035 104.307 165.935 104.271 165.835C103.065 163.337 103.636 160.495 104.216 157.853C102.965 161.173 101.152 164.148 98.9586 166.646C96.8556 169.022 93.4744 166.723 94.0183 163.282L94.5985 159.563C88.9784 164.481 83.3673 169.399 77.7653 174.339C76.0884 175.794 73.7497 177.281 72.2177 175.183C71.4744 174.15 71.2931 172.663 71.5832 171.32C73.3146 163.337 75.0459 155.378 76.7773 147.396C70.3323 151.958 63.8691 156.543 57.406 161.117C55.8106 162.25 54.2243 163.371 52.6199 164.503C51.3508 165.414 49.9548 166.346 48.4138 165.28C48.015 165.003 47.6887 164.636 47.4258 164.192C59.4637 156.299 70.577 146.296 80.3397 134.606C79.7052 138.237 79.0888 141.856 78.4542 145.486C82.2433 144.931 85.8148 142.478 88.1807 138.803C86.2771 147.285 83.7843 155.566 80.7295 163.537C87.5189 159.23 93.2206 152.402 96.8646 144.165C96.6018 149.05 96.7196 153.402 96.4386 158.297C100.708 157.265 103.627 152.569 106.138 148.217C106.201 154.212 105.73 160.318 104.425 166.113Z"
        fill="#45BC9F" />
    <path
        d="M97.6523 62.7907C101.731 61.403 103.898 56.0631 105.276 51.1562C106.645 46.2937 111.848 31.0622 108.022 26.999C103.3 37.701 100.943 51.2672 97.6523 62.7907Z"
        fill="#D6F8CF" />
    <path
        d="M88.543 89.7783C91.2896 88.8457 92.758 85.2377 93.6917 81.9294C94.6163 78.6433 98.1243 68.3632 95.5409 65.6211C92.3501 72.8483 90.7638 82.0071 88.543 89.7783Z"
        fill="#D6F8CF" />
    <path
        d="M108.494 98.2712C112.219 98.2712 115.238 94.5732 115.238 90.0116C115.238 85.4499 112.219 81.752 108.494 81.752C104.769 81.752 101.75 85.4499 101.75 90.0116C101.75 94.5732 104.769 98.2712 108.494 98.2712Z"
        fill="#FA9C1F" />
    <path
        d="M108.494 99.07C104.415 99.07 101.098 95.0068 101.098 90.0111C101.098 85.0154 104.415 80.9521 108.494 80.9521C112.574 80.9521 115.891 85.0154 115.891 90.0111C115.891 95.0068 112.574 99.07 108.494 99.07ZM108.494 82.5619C105.141 82.5619 102.412 85.9035 102.412 90.0111C102.412 94.1187 105.141 97.4603 108.494 97.4603C111.848 97.4603 114.577 94.1187 114.577 90.0111C114.577 85.9035 111.848 82.5619 108.494 82.5619Z"
        fill="#151A28" />
    <path
        d="M135.764 45.9821C139.488 45.9821 142.508 42.2842 142.508 37.7225C142.508 33.1608 139.488 29.4629 135.764 29.4629C132.039 29.4629 129.02 33.1608 129.02 37.7225C129.02 42.2842 132.039 45.9821 135.764 45.9821Z"
        fill="#F92121" />
    <path
        d="M135.764 46.7917C131.685 46.7917 128.367 42.7285 128.367 37.7328C128.367 32.737 131.685 28.6738 135.764 28.6738C139.843 28.6738 143.161 32.737 143.161 37.7328C143.161 42.7285 139.843 46.7917 135.764 46.7917ZM135.764 30.2725C132.41 30.2725 129.682 33.6141 129.682 37.7217C129.682 41.8293 132.41 45.1709 135.764 45.1709C139.118 45.1709 141.846 41.8293 141.846 37.7217C141.846 33.6141 139.109 30.2725 135.764 30.2725Z"
        fill="#151A28" />
    <path
        d="M149.24 161.65C152.965 161.65 155.984 157.952 155.984 153.39C155.984 148.829 152.965 145.131 149.24 145.131C145.516 145.131 142.496 148.829 142.496 153.39C142.496 157.952 145.516 161.65 149.24 161.65Z"
        fill="#FA9C1F" />
    <path
        d="M149.241 162.46C145.161 162.46 141.844 158.396 141.844 153.401C141.844 148.405 145.161 144.342 149.241 144.342C153.32 144.342 156.637 148.405 156.637 153.401C156.637 158.396 153.32 162.46 149.241 162.46ZM149.241 145.94C145.887 145.94 143.158 149.282 143.158 153.39C143.158 157.497 145.887 160.839 149.241 160.839C152.594 160.839 155.323 157.497 155.323 153.39C155.323 149.282 152.594 145.94 149.241 145.94Z"
        fill="#151A28" />
    <path
        d="M47.416 175.894C51.1407 175.894 54.1601 172.196 54.1601 167.635C54.1601 163.073 51.1407 159.375 47.416 159.375C43.6913 159.375 40.6719 163.073 40.6719 167.635C40.6719 172.196 43.6913 175.894 47.416 175.894Z"
        fill="#79DBC8" />
    <path
        d="M47.4163 176.693C43.3372 176.693 40.0195 172.63 40.0195 167.634C40.0195 162.638 43.3372 158.575 47.4163 158.575C51.4954 158.575 54.8131 162.638 54.8131 167.634C54.8131 172.63 51.4954 176.693 47.4163 176.693ZM47.4163 160.185C44.0624 160.185 41.3339 163.527 41.3339 167.634C41.3339 171.742 44.0624 175.083 47.4163 175.083C50.7703 175.083 53.4987 171.742 53.4987 167.634C53.4987 163.527 50.7612 160.185 47.4163 160.185Z"
        fill="#151A28" />
    <path
        d="M120.342 216.071C124.066 216.071 127.086 212.373 127.086 207.811C127.086 203.25 124.066 199.552 120.342 199.552C116.617 199.552 113.598 203.25 113.598 207.811C113.598 212.373 116.617 216.071 120.342 216.071Z"
        fill="#F92121" />
    <path
        d="M120.342 216.87C116.263 216.87 112.945 212.807 112.945 207.811C112.945 202.815 116.263 198.752 120.342 198.752C124.421 198.752 127.739 202.815 127.739 207.811C127.739 212.807 124.43 216.87 120.342 216.87ZM120.342 200.362C116.988 200.362 114.26 203.703 114.26 207.811C114.26 211.919 116.988 215.26 120.342 215.26C123.696 215.26 126.425 211.919 126.425 207.811C126.425 203.703 123.696 200.362 120.342 200.362Z"
        fill="#151A28" />
    <path
        d="M179.752 257.491C183.477 257.491 186.496 253.793 186.496 249.231C186.496 244.67 183.477 240.972 179.752 240.972C176.027 240.972 173.008 244.67 173.008 249.231C173.008 253.793 176.027 257.491 179.752 257.491Z"
        fill="#FA9C1F" />
    <path
        d="M179.752 258.3C175.673 258.3 172.355 254.237 172.355 249.242C172.355 244.246 175.673 240.183 179.752 240.183C183.831 240.183 187.149 244.246 187.149 249.242C187.149 254.237 183.84 258.3 179.752 258.3ZM179.752 241.792C176.398 241.792 173.67 245.134 173.67 249.242C173.67 253.349 176.398 256.691 179.752 256.691C183.106 256.691 185.835 253.349 185.835 249.242C185.835 245.134 183.106 241.792 179.752 241.792Z"
        fill="#151A28" />
    <path
        d="M58.0683 286.167C61.793 286.167 64.8125 282.469 64.8125 277.907C64.8125 273.345 61.793 269.647 58.0683 269.647C54.3437 269.647 51.3242 273.345 51.3242 277.907C51.3242 282.469 54.3437 286.167 58.0683 286.167Z"
        fill="#FA9C1F" />
    <path
        d="M58.0687 286.966C53.9896 286.966 50.6719 282.902 50.6719 277.907C50.6719 272.911 53.9896 268.848 58.0687 268.848C62.1478 268.848 65.4655 272.911 65.4655 277.907C65.4655 282.902 62.1478 286.966 58.0687 286.966ZM58.0687 270.457C54.7147 270.457 51.9863 273.799 51.9863 277.907C51.9863 282.014 54.7147 285.356 58.0687 285.356C61.4226 285.356 64.1511 282.014 64.1511 277.907C64.1511 273.799 61.4226 270.457 58.0687 270.457Z"
        fill="#151A28" />
    <path
        d="M120.342 333.872C124.066 333.872 127.086 330.174 127.086 325.612C127.086 321.05 124.066 317.353 120.342 317.353C116.617 317.353 113.598 321.05 113.598 325.612C113.598 330.174 116.617 333.872 120.342 333.872Z"
        fill="#FF83DF" />
    <path
        d="M120.342 334.67C116.263 334.67 112.945 330.606 112.945 325.611C112.945 320.615 116.263 316.552 120.342 316.552C124.421 316.552 127.739 320.615 127.739 325.611C127.739 330.606 124.43 334.67 120.342 334.67ZM120.342 318.161C116.988 318.161 114.26 321.503 114.26 325.611C114.26 329.718 116.988 333.06 120.342 333.06C123.696 333.06 126.425 329.718 126.425 325.611C126.425 321.503 123.696 318.161 120.342 318.161Z"
        fill="#151A28" />
    <path
        d="M189.354 377.932C193.078 377.932 196.098 374.234 196.098 369.673C196.098 365.111 193.078 361.413 189.354 361.413C185.629 361.413 182.609 365.111 182.609 369.673C182.609 374.234 185.629 377.932 189.354 377.932Z"
        fill="#21F944" />
    <path
        d="M189.354 378.742C185.275 378.742 181.957 374.679 181.957 369.683C181.957 364.687 185.275 360.624 189.354 360.624C193.433 360.624 196.751 364.687 196.751 369.683C196.751 374.679 193.442 378.742 189.354 378.742ZM189.354 362.234C186 362.234 183.271 365.575 183.271 369.683C183.271 373.791 186 377.132 189.354 377.132C192.708 377.132 195.436 373.791 195.436 369.683C195.436 365.575 192.708 362.234 189.354 362.234Z"
        fill="#151A28" />
    <path
        d="M46.6738 401.079C50.3985 401.079 53.418 397.381 53.418 392.819C53.418 388.258 50.3985 384.56 46.6738 384.56C42.9491 384.56 39.9297 388.258 39.9297 392.819C39.9297 397.381 42.9491 401.079 46.6738 401.079Z"
        fill="#79DBC8" />
    <path
        d="M46.6741 401.878C42.595 401.878 39.2773 397.814 39.2773 392.819C39.2773 387.823 42.595 383.76 46.6741 383.76C50.7532 383.76 54.0709 387.823 54.0709 392.819C54.0709 397.814 50.7532 401.878 46.6741 401.878ZM46.6741 385.37C43.3202 385.37 40.5917 388.711 40.5917 392.819C40.5917 396.926 43.3202 400.268 46.6741 400.268C50.0281 400.268 52.7566 396.926 52.7566 392.819C52.7566 388.711 50.0281 385.37 46.6741 385.37Z"
        fill="#151A28" />
    <path
        d="M142.498 401.079C146.223 401.079 149.242 397.381 149.242 392.819C149.242 388.258 146.223 384.56 142.498 384.56C138.773 384.56 135.754 388.258 135.754 392.819C135.754 397.381 138.773 401.079 142.498 401.079Z"
        fill="#FA9C1F" />
    <path
        d="M142.498 401.878C138.419 401.878 135.102 397.814 135.102 392.819C135.102 387.823 138.419 383.76 142.498 383.76C146.577 383.76 149.895 387.823 149.895 392.819C149.904 397.814 146.577 401.878 142.498 401.878ZM142.498 385.37C139.144 385.37 136.416 388.711 136.416 392.819C136.416 396.926 139.144 400.268 142.498 400.268C145.852 400.268 148.581 396.926 148.581 392.819C148.581 388.711 145.852 385.37 142.498 385.37Z"
        fill="#151A28" />
</svg>
