<svg width="331" height="106" viewBox="0 0 331 106" fill="none" xmlns="http://www.w3.org/2000/svg">
    <g clip-path="url(#clip0_2397_55684)">
        <path
            d="M171.856 74.304C171.856 81.8176 167.285 89.2197 160.44 91.2263C123.14 102.129 75.9624 102.084 20.0228 86.8564C7.40349 83.4229 -0.533729 72.9885 0.0236605 62.6211C0.135138 60.347 0.670232 58.0282 1.67353 55.821C5.70903 46.8581 14.9617 41.8862 24.5711 41.8862C27.8262 41.8862 31.126 42.4436 34.292 43.6253C81.7369 61.2165 122.984 65.0959 156.382 58.385C158.768 57.8944 161.109 58.2289 163.227 59.2099C167.307 61.0827 170.54 65.3635 171.566 71.0711C171.744 72.1413 171.833 73.2115 171.833 74.304H171.856Z"
            fill="#578E43" />
        <g style="mix-blend-mode:multiply" opacity="0.3">
            <path
                d="M171.856 74.3153C171.856 81.8289 167.285 89.231 160.44 91.2376C123.14 102.14 75.9624 102.096 20.0228 86.8677C7.40349 83.4342 -0.533729 72.9999 0.0236605 62.6324C51.9946 94.5374 138.702 87.5812 153.93 80.023C162.224 75.8983 163.695 66.7348 163.25 59.2212C167.33 61.094 170.562 65.3748 171.588 71.0824C171.766 72.1526 171.856 73.2228 171.856 74.3153Z"
                fill="#606060" />
        </g>
        <g style="mix-blend-mode:soft-light" opacity="0.6">
            <path
                d="M47.2463 54.203C46.6666 56.4325 39.9334 56.5886 32.1968 54.582C24.4602 52.5754 18.6634 49.1419 19.2431 46.9123C19.8228 44.6828 26.556 44.5267 34.2926 46.5333C42.0291 48.5399 47.826 51.9734 47.2463 54.203Z"
                fill="#FFFFF2" />
        </g>
        <path
            d="M165.388 25.5753C162.712 32.5984 164.34 41.1376 170.025 45.463C200.972 68.9625 245.072 85.7511 302.751 91.4587C315.771 92.7519 326.897 85.818 330.085 75.941C330.799 73.7561 331.111 71.415 330.955 68.9848C330.375 59.1525 323.508 51.2375 314.523 47.804C311.491 46.6446 308.213 45.9758 304.824 45.9535C254.213 45.463 214.304 34.3821 185.499 16.2112C183.447 14.9181 181.129 14.383 178.81 14.539C174.328 14.8289 169.78 17.6827 166.793 22.6546C166.235 23.591 165.767 24.5497 165.388 25.5753Z"
            fill="#578E43" />
        <g style="mix-blend-mode:multiply" opacity="0.3">
            <path
                d="M165.388 25.5859C162.712 32.609 164.34 41.1482 170.025 45.4735C200.972 68.973 245.072 85.7616 302.751 91.4693C315.771 92.7624 326.897 85.8285 330.085 75.9516C270.155 87.2108 191.63 49.7989 180.103 37.3133C173.816 30.4909 175.733 21.4166 178.81 14.5496C174.328 14.8394 169.78 17.6932 166.793 22.6651C166.235 23.6016 165.767 24.5603 165.388 25.5859Z"
                fill="#606060" />
        </g>
        <g style="mix-blend-mode:soft-light" opacity="0.6">
            <path
                d="M316.351 54.7903C316.218 57.0867 309.64 58.5582 301.681 58.09C293.699 57.6218 287.345 55.3922 287.479 53.0958C287.612 50.7994 294.19 49.3279 302.149 49.7961C310.131 50.2643 316.485 52.4938 316.351 54.7903Z"
                fill="#FFFFF2" />
        </g>
        <path
            d="M95.2709 18.7348C95.2709 18.7348 102.829 4.66627 117.187 5.22366C117.187 5.22366 102.584 14.6101 101.893 18.4226C101.893 18.4226 108.67 18.6679 111.859 26.8504C111.859 26.8504 100.778 19.7604 93.1528 23.4614C93.1528 23.4614 77.9249 28.5894 76.1413 38.7785C76.1413 38.7785 73.0199 28.4333 86.0405 20.9643C86.0405 20.9643 77.1446 15.3681 70.4336 15.3681C70.4336 15.3681 80.3105 9.92802 90.455 17.4193C90.455 17.4193 93.1751 19.7827 95.2486 18.7348H95.2709Z"
            fill="#578E43" />
        <path
            d="M99.4871 5.81473C98.8628 6.84032 98.1939 8.02199 97.6142 9.29284C97.525 9.4935 97.4359 9.69416 97.3467 9.89482C97.2129 10.1624 97.1014 10.4522 96.99 10.742C96.9008 10.965 96.8116 11.188 96.7447 11.4109C96.544 11.9237 96.3657 12.4588 96.2319 12.9939C96.0758 13.529 95.9421 14.0641 95.8306 14.6215C95.786 14.889 95.7191 15.1789 95.6745 15.4464C95.6299 15.6917 95.5853 15.9592 95.563 16.2045C95.563 16.2491 95.563 16.2713 95.563 16.3159C95.5407 16.5835 95.5185 16.851 95.4962 17.1409C95.4962 17.1855 95.4962 17.2301 95.4962 17.2746C95.4962 17.5199 95.4962 17.7429 95.4962 17.9881C95.4962 18.2334 95.4962 18.4786 95.4962 18.7239C95.4962 18.7907 95.4962 18.8576 95.4962 18.9245C95.4962 19.1921 95.5185 19.4373 95.563 19.6826C96.0981 21.6446 90.9033 22.2466 90.7695 18.3671C90.7695 18.3671 90.7695 18.2334 90.7249 17.9881C90.7249 17.9212 90.7249 17.832 90.7026 17.7429C90.6357 16.8956 90.5242 15.2458 90.5688 13.2614C90.5688 13.1277 90.5688 12.9939 90.5688 12.8601C90.5688 12.6595 90.5688 12.4365 90.5688 12.2359C90.6357 10.4968 90.8141 8.57938 91.2154 6.72885C91.26 6.52819 91.3046 6.32753 91.3492 6.14916C91.4607 5.68095 91.5721 5.25734 91.7059 4.81143C91.7728 4.58847 91.8397 4.38781 91.9289 4.16486C92.1518 3.51829 92.4417 2.89401 92.7315 2.31432C92.8207 2.13596 92.9322 1.9576 93.0214 1.80153C93.0214 1.77923 93.0659 1.73464 93.0882 1.71234C93.6233 0.909704 94.426 0.352315 95.3401 0.129359C95.9198 -0.00441438 96.5218 -0.02671 97.1237 0.129359C99.6431 0.709044 100.892 3.58517 99.5317 5.81473H99.4871Z"
            fill="#578E43" />
        <g style="mix-blend-mode:multiply" opacity="0.2">
            <path
                d="M99.4871 5.81473C98.8628 6.84032 98.1939 8.02199 97.6142 9.29284C97.525 9.4935 97.4136 9.69416 97.3467 9.89482C97.2129 10.1624 97.1014 10.4522 96.99 10.742C96.9008 10.965 96.8116 11.188 96.7447 11.4109C96.544 11.9237 96.3657 12.4588 96.2319 12.9939C96.0758 13.529 95.9421 14.0641 95.8306 14.6215C95.786 14.889 95.7191 15.1789 95.6745 15.4464C95.6299 15.6917 95.5853 15.9369 95.563 16.2045C95.563 16.2491 95.563 16.2713 95.563 16.3159C95.5407 16.5835 95.5185 16.851 95.4962 17.1409C95.4962 17.1855 95.4962 17.2301 95.4962 17.2746C95.4962 17.5199 95.4962 17.7429 95.4962 17.9881C95.4962 18.2334 95.4962 18.4786 95.4962 18.7239C95.4962 18.7907 95.4962 18.8576 95.4962 18.9245C95.4962 19.1921 95.5185 19.4373 95.563 19.6826C96.0981 21.6446 90.9033 22.2466 90.7695 18.3671C90.7695 18.3671 90.7695 18.2334 90.7249 17.9881C90.7249 17.9212 90.7249 17.832 90.7026 17.7429C90.6357 16.8956 90.5242 15.2458 90.5688 13.2614C90.5688 13.1277 90.5688 12.9939 90.5688 12.8601C90.5688 12.6595 90.5688 12.4365 90.5688 12.2359C90.6357 10.4968 90.8141 8.57938 91.2154 6.72885C91.26 6.52819 91.3046 6.32753 91.3492 6.14916C91.4607 5.68095 91.5721 5.25734 91.7059 4.81143C91.7728 4.58847 91.8397 4.38781 91.9289 4.16486C92.1518 3.51829 92.4417 2.89401 92.7315 2.31432C92.8207 2.13596 92.9322 1.9576 93.0214 1.80153C93.0214 1.77923 93.0659 1.73464 93.0882 1.71234C93.6233 0.909704 94.426 0.352315 95.3401 0.129359C95.9198 -0.00441438 96.5218 -0.02671 97.1237 0.129359C99.6431 0.709044 100.892 3.58517 99.5317 5.81473H99.4871Z"
                fill="#606060" />
        </g>
        <path
            d="M141.914 47.736C147.243 69.6971 132.461 92.1265 108.872 97.8565C106.42 98.4584 103.967 98.8374 101.537 99.0381C91.7046 99.8408 82.2513 97.4997 74.4701 92.7731C65.6634 87.3998 59.0416 78.9498 56.4999 68.5155C51.149 46.5766 65.9532 24.125 89.542 18.395C101.805 15.4074 114.045 17.5255 123.699 23.3446C127.065 25.3513 130.12 27.8261 132.773 30.6799C137.121 35.4066 140.354 41.1811 141.937 47.736H141.914Z"
            fill="#ED3902" />
        <g style="mix-blend-mode:multiply" opacity="0.3">
            <path
                d="M141.913 47.7456C147.241 69.7067 132.46 92.1361 108.871 97.866C106.418 98.468 103.966 98.847 101.536 99.0477C91.7032 99.8503 82.2499 97.5093 74.4688 92.7826C118.681 86.7851 123.519 41.3468 123.675 23.3542C127.042 25.3608 130.096 27.8357 132.749 30.6895C137.097 35.4162 140.33 41.1907 141.913 47.7456Z"
                fill="#606060" />
        </g>
        <g style="mix-blend-mode:soft-light" opacity="0.6">
            <path
                d="M84.2132 27.8859C86.9779 30.6059 85.1274 36.9602 80.1109 42.0882C75.0721 47.2161 68.7401 49.1781 65.9755 46.4581C63.2108 43.738 65.0614 37.3838 70.0779 32.2558C75.1167 27.1278 81.4486 25.1658 84.2132 27.8859Z"
                fill="#FFFFF2" />
        </g>
        <path
            d="M247.326 23.7113C247.326 23.7113 258.541 13.4776 271.249 18.5387C271.249 18.5387 255.219 22.329 253.368 25.5395C253.368 25.5395 259.343 27.9029 259.655 36.2414C259.655 36.2414 251.963 26.3868 243.959 27.3009C243.959 27.3009 228.709 27.0779 223.871 35.6394C223.871 35.6394 224.339 25.3835 238.363 22.7972C238.363 22.7972 232.165 14.9714 226.168 12.8533C226.168 12.8533 236.736 11.092 243.447 21.0135C243.447 21.0135 245.119 24.0011 247.326 23.7113Z"
            fill="#578E43" />
        <path
            d="M255.177 13.4703C254.286 14.2061 253.327 15.031 252.39 15.9897C252.234 16.1458 252.101 16.3019 251.945 16.4579C251.744 16.6586 251.543 16.8816 251.365 17.1045C251.209 17.2606 251.075 17.439 250.919 17.6173C250.585 18.0186 250.25 18.4423 249.96 18.8659C249.648 19.2895 249.358 19.7354 249.068 20.2036C248.935 20.4266 248.801 20.6495 248.667 20.8948C248.556 21.1177 248.444 21.3184 248.333 21.5413C248.333 21.5636 248.31 21.6082 248.288 21.6305C248.177 21.8758 248.065 22.0987 247.976 22.344C247.976 22.3886 247.931 22.4332 247.931 22.4555C247.842 22.6561 247.753 22.8791 247.686 23.0797C247.597 23.3027 247.53 23.5256 247.463 23.7263C247.463 23.7932 247.419 23.8601 247.396 23.927C247.329 24.1722 247.263 24.3952 247.218 24.6181C247.062 26.5355 242.224 25.4431 243.338 21.9204C243.338 21.9204 243.361 21.7866 243.428 21.5636C243.428 21.4967 243.472 21.4299 243.472 21.3407C243.673 20.5603 244.097 19.0665 244.765 17.2829C244.81 17.1714 244.855 17.0599 244.899 16.9262C244.966 16.7478 245.033 16.5471 245.122 16.3688C245.724 14.8304 246.482 13.1805 247.441 11.6421C247.53 11.486 247.642 11.3077 247.753 11.1516C247.998 10.7726 248.244 10.4158 248.489 10.0814C248.623 9.90305 248.756 9.74698 248.89 9.56862C249.314 9.05582 249.737 8.58761 250.206 8.164C250.339 8.03022 250.495 7.91875 250.629 7.80727C250.651 7.80727 250.674 7.76268 250.718 7.74038C251.454 7.18299 252.346 6.93774 253.238 7.02692C253.795 7.09381 254.353 7.27217 254.843 7.58431C256.917 8.89975 257.117 11.8874 255.222 13.4258L255.177 13.4703Z"
            fill="#578E43" />
        <g style="mix-blend-mode:multiply" opacity="0.2">
            <path
                d="M255.177 13.4703C254.286 14.2061 253.327 15.031 252.39 15.9897C252.234 16.1458 252.078 16.3019 251.945 16.4579C251.744 16.6586 251.543 16.8816 251.365 17.1045C251.209 17.2606 251.075 17.439 250.919 17.6173C250.585 18.0186 250.25 18.4423 249.96 18.8659C249.648 19.2895 249.358 19.7354 249.068 20.2036C248.935 20.4266 248.801 20.6495 248.667 20.8948C248.556 21.1177 248.444 21.3184 248.333 21.5413C248.333 21.5636 248.31 21.6082 248.288 21.6305C248.177 21.8535 248.065 22.0987 247.976 22.344C247.976 22.3886 247.931 22.4332 247.931 22.4555C247.842 22.6561 247.753 22.8791 247.686 23.0797C247.597 23.3027 247.53 23.5256 247.463 23.7263C247.463 23.7932 247.419 23.8601 247.396 23.927C247.329 24.1722 247.263 24.3952 247.218 24.6181C247.062 26.5355 242.224 25.4431 243.338 21.9204C243.338 21.9204 243.361 21.7866 243.428 21.5636C243.428 21.4967 243.472 21.4299 243.472 21.3407C243.673 20.5603 244.097 19.0665 244.765 17.2829C244.81 17.1714 244.855 17.0599 244.899 16.9262C244.966 16.7478 245.033 16.5471 245.122 16.3688C245.724 14.8304 246.482 13.1805 247.441 11.6421C247.53 11.486 247.642 11.3077 247.753 11.1516C247.998 10.7726 248.244 10.4158 248.489 10.0814C248.623 9.90305 248.756 9.74698 248.89 9.56862C249.314 9.05582 249.737 8.58761 250.206 8.164C250.339 8.03022 250.495 7.91875 250.629 7.80727C250.651 7.80727 250.674 7.76268 250.718 7.74038C251.454 7.18299 252.346 6.93774 253.238 7.02692C253.795 7.09381 254.353 7.27217 254.843 7.58431C256.917 8.89975 257.117 11.8874 255.222 13.4258L255.177 13.4703Z"
                fill="#606060" />
        </g>
        <path
            d="M279.945 64.4316C277.782 85.7908 257.449 101.219 234.484 98.9006C232.099 98.6553 229.78 98.2317 227.55 97.6297C218.498 95.2441 210.762 90.1607 205.277 83.4497C199.101 75.8692 195.824 66.193 196.827 56.0262C198.967 34.6893 219.323 19.2385 242.265 21.5572C254.194 22.7612 264.472 28.5358 271.294 36.7851C273.68 39.6612 275.642 42.8272 277.091 46.2161C279.499 51.8346 280.569 58.0105 279.923 64.4093L279.945 64.4316Z"
            fill="#ED3902" />
        <g style="mix-blend-mode:multiply" opacity="0.3">
            <path
                d="M279.945 64.4391C277.783 85.7983 257.449 101.227 234.485 98.9081C232.099 98.6628 229.78 98.2392 227.551 97.6372C218.499 95.2516 210.762 90.1682 205.277 83.4573C246.769 92.0633 265.475 52.89 271.295 36.8149C273.68 39.6911 275.642 42.857 277.091 46.246C279.499 51.8644 280.569 58.0403 279.923 64.4391H279.945Z"
                fill="#606060" />
        </g>
        <g style="mix-blend-mode:soft-light" opacity="0.6">
            <path
                d="M234.53 28.432C236.157 31.7317 232.501 36.8597 226.347 39.8473C220.216 42.8572 213.928 42.612 212.301 39.2899C210.673 35.9902 214.33 30.8622 220.483 27.8746C226.615 24.8647 232.902 25.11 234.53 28.432Z"
                fill="#FFFFF2" />
        </g>
        <path
            d="M171.185 30.2435C171.185 30.2435 165.143 24.2683 159.279 31.113C155.31 35.7282 167.573 35.9512 167.573 35.9512L171.185 30.2435Z"
            fill="#6B3915" />
        <path
            d="M170.826 105.426C170.336 105.47 169.845 105.515 169.377 105.559C166.189 105.782 163.179 105.738 160.392 105.426C157.27 105.091 154.372 104.422 151.697 103.486C143.113 100.498 136.937 94.746 132.879 88.0796C127.439 79.1391 125.722 68.4818 127.015 60.4108C127.127 59.7865 127.238 59.1845 127.35 58.5603C127.461 57.9806 127.573 57.4232 127.706 56.8658C127.706 56.8658 127.706 56.8212 127.706 56.7989C135.131 22.6644 163.067 30.8692 165.676 31.7164C167.147 30.9583 177.18 26.0979 187.659 29.2862C188.217 29.4423 188.774 29.6429 189.309 29.8659C190.491 30.3341 191.695 30.8915 192.876 31.5826C198.762 35.0384 204.359 41.7048 208.238 53.6998C208.327 53.9674 208.416 54.2349 208.461 54.4802C208.506 54.5694 208.528 54.6362 208.55 54.7254C214.548 75.1036 205.005 102.014 170.826 105.426Z"
            fill="#FE882D" />
        <g style="mix-blend-mode:multiply" opacity="0.3">
            <path
                d="M170.826 105.418C170.335 105.463 169.845 105.507 169.377 105.552C166.188 105.775 163.179 105.73 160.392 105.418C157.27 105.084 154.372 104.415 151.696 103.478C143.113 100.491 136.937 94.7385 132.879 88.0722C139.924 92.0408 145.9 93.9136 159.143 89.8112C193.991 78.9979 195.529 44.1722 192.876 31.5752C198.762 35.031 204.359 41.6974 208.238 53.6924C208.327 53.9599 208.416 54.2275 208.461 54.4727C208.505 54.5619 208.528 54.6288 208.55 54.718C214.548 75.0961 205.005 102.007 170.826 105.418Z"
                fill="#606060" />
        </g>
        <g style="mix-blend-mode:multiply" opacity="0.3">
            <path
                d="M176.827 43.3315C171.387 45.2712 174.441 53.253 179.904 51.3133C185.344 49.3736 182.289 41.3917 176.827 43.3315Z"
                fill="#606060" />
            <path
                d="M178.031 34.7272C175.512 35.619 176.939 39.2978 179.458 38.4059C181.978 37.5141 180.551 33.8353 178.031 34.7272Z"
                fill="#606060" />
            <path
                d="M172.1 38.9245C170.851 39.3704 171.542 41.221 172.813 40.775C174.062 40.3291 173.37 38.4786 172.1 38.9245Z"
                fill="#606060" />
            <path
                d="M186.146 45.2138C184.898 45.6597 185.589 47.5103 186.86 47.0644C188.108 46.6184 187.417 44.7679 186.146 45.2138Z"
                fill="#606060" />
            <path
                d="M187.217 36.8831C183.449 38.2209 185.567 43.7502 189.357 42.4124C193.125 41.0747 191.007 35.5454 187.217 36.8831Z"
                fill="#606060" />
        </g>
        <g style="mix-blend-mode:soft-light" opacity="0.6">
            <path
                d="M151.139 51.465C147.95 57.574 141.953 61.0075 137.739 59.1124C133.525 57.2173 132.678 50.7293 135.866 44.6203C139.054 38.5113 145.052 35.0778 149.266 36.9729C153.48 38.868 154.327 45.3561 151.139 51.465Z"
                fill="#FFFFF2" />
        </g>
    </g>
    <defs>
        <clipPath id="clip0_2397_55684">
            <rect width="331" height="105.726" fill="white" />
        </clipPath>
    </defs>
</svg>
