<svg width="298" height="354" viewBox="0 0 298 354" fill="none" xmlns="http://www.w3.org/2000/svg">
    <path
        d="M146.19 353.052C144.085 353.052 141.669 352.864 139.728 351.488C139.277 351.169 138.86 350.8 138.507 350.383C134.912 346.214 137.025 339.474 139.261 334.06C146.845 315.723 147.287 298.925 147.787 279.474C147.852 276.878 147.926 274.241 148.008 271.563C148.36 260.695 154.248 256.829 159.629 256.829C165.903 256.829 173.585 261.972 176.132 271.808C177.491 277.05 177.762 282.586 178.032 287.943C178.114 289.63 178.204 291.366 178.319 293.069C178.458 295.019 178.638 296.968 178.859 298.852C179.801 306.853 181.521 314.724 183.97 322.258C185.452 326.812 187.205 331.259 189.178 335.469C190.784 338.892 191.685 341.873 191.84 344.347C192.02 347.066 191.316 349.17 189.735 350.604C188.073 352.102 185.984 352.266 183.822 352.299L147.09 353.036C146.796 353.044 146.493 353.052 146.19 353.052Z"
        fill="#7A2822" />
    <path
        d="M159.637 257.776C165.853 257.776 172.904 263.124 175.222 272.043C176.983 278.824 176.885 286.056 177.376 293.132C177.515 295.081 177.696 297.03 177.925 298.963C178.875 307.022 180.603 314.958 183.076 322.558C184.567 327.136 186.319 331.592 188.326 335.875C189.522 338.422 190.717 341.575 190.906 344.409C191.053 346.571 190.603 348.545 189.104 349.896C187.638 351.223 185.656 351.313 183.813 351.346C171.561 351.592 159.317 351.837 147.073 352.083C146.779 352.091 146.484 352.091 146.181 352.091C144.117 352.091 141.963 351.903 140.276 350.707C139.899 350.445 139.547 350.134 139.227 349.757C135.902 345.9 138.089 339.364 140.137 334.417C148.826 313.418 148.228 294.057 148.965 271.592C149.277 261.977 154.125 257.776 159.637 257.776ZM159.637 255.876C153.806 255.876 147.442 259.987 147.057 271.535C146.967 274.221 146.901 276.883 146.836 279.455C146.336 298.808 145.894 315.531 138.376 333.697C136.033 339.356 133.847 346.448 137.786 351.01C138.187 351.485 138.662 351.911 139.186 352.279C141.324 353.803 143.928 354.008 146.181 354.008C146.492 354.008 146.803 354.008 147.106 353.999L183.846 353.262C185.623 353.23 188.31 353.18 190.373 351.321C192.183 349.675 192.994 347.316 192.798 344.294C192.626 341.706 191.7 338.611 190.046 335.081C188.089 330.904 186.352 326.498 184.878 321.985C182.446 314.508 180.734 306.694 179.809 298.758C179.587 296.891 179.407 294.966 179.268 293.017C179.153 291.33 179.063 289.594 178.981 287.915C178.711 282.51 178.441 276.924 177.057 271.584C174.387 261.265 166.271 255.876 159.637 255.876Z"
        fill="#161616" />
    <path
        d="M183.078 322.561C181.595 321.791 180.309 320.538 179.097 319.252C176.034 316 173.241 312.372 170.785 308.457C169.663 306.664 167.82 304.584 166.206 305.738C165.404 306.312 165.093 307.499 164.97 308.597C164.634 311.668 165.297 314.821 164.83 317.868C164.364 320.914 161.964 324.002 159.466 323.068C156.223 321.848 156.182 315.435 152.93 314.272C150.482 327.147 146.19 339.514 140.285 350.709C139.909 350.447 139.556 350.136 139.237 349.759C135.912 345.902 138.099 339.366 140.146 334.42C148.836 313.421 148.238 294.06 148.975 271.595C149.646 251.12 170.866 255.223 175.232 272.045C176.992 278.826 176.894 286.058 177.386 293.134C178.073 303.191 180.006 313.134 183.078 322.561Z"
        fill="#4C0F0E" />
    <path
        d="M190.907 344.413C189.138 344.348 187.36 343.889 186.017 343.398C181.89 341.899 178.237 338.574 175.985 334.209C174.797 331.907 173.986 329.008 174.871 326.527C175.289 325.347 176.058 324.364 176.402 323.152C176.935 321.301 176.361 319.221 175.403 317.624C174.445 316.035 173.143 314.79 171.963 313.423C167.352 308.066 164.674 300.45 164.715 292.8C164.723 291.793 164.805 290.687 165.403 289.975C166.337 288.861 167.942 289.312 169.113 290.049C172.512 292.178 175.035 295.978 177.917 298.976C178.867 307.035 180.596 314.971 183.069 322.571C184.56 327.149 186.312 331.604 188.319 335.888C189.523 338.426 190.718 341.58 190.907 344.413Z"
        fill="#AD6D40" />
    <path
        d="M119.147 315.587C119.008 315.587 118.86 315.579 118.721 315.571C116.313 315.399 114.421 313.941 113.389 311.467C112.325 308.912 112.218 305.259 113.136 302.155L113.275 301.697C114.339 298.126 115.527 294.138 114.061 291.64C108.549 294.924 103.054 298.216 97.5501 301.5L96.5592 302.09C94.8475 303.106 93.144 304.121 91.4405 305.137C88.2382 307.045 84.61 309.199 80.4496 309.428C80.253 309.436 80.0565 309.444 79.8599 309.444C75.8141 309.444 71.0721 306.996 70.2531 302.467C69.4833 298.249 72.3006 294.834 74.7903 291.82C75.0524 291.5 75.3145 291.181 75.5684 290.87C77.0753 289.011 78.7379 285.669 77.7878 283.507C61.5472 293.744 43.0217 300.788 24.103 303.9L19.1808 304.711C19.1808 304.711 33.4804 290.067 38.8775 284.531C36.7645 284.736 34.6351 284.842 32.5057 284.842C24.3404 284.842 16.0604 283.27 8.55841 280.28L4.57812 278.7L8.5994 277.225C32.3584 268.487 59.2868 258.585 79.131 240.223C84.1186 235.604 88.9917 230.191 93.6108 224.122C94.2496 223.295 94.872 222.451 95.4862 221.608C96.6246 220.068 97.7548 218.463 98.8441 216.849C99.1799 216.358 99.5075 215.875 99.8269 215.383C102.8 210.944 105.683 206.219 108.664 200.92C109.098 200.175 109.499 199.446 109.9 198.709L109.917 198.676L109.991 198.545C110.417 197.775 110.834 197.013 111.252 196.235C112.448 194.049 113.692 191.673 115.077 188.954C115.289 188.537 116.035 187.063 116.035 187.063C116.551 186.063 117.059 185.064 117.542 184.065C119.327 180.47 121.055 176.882 122.529 173.803C122.98 172.845 123.438 171.87 123.897 170.912C124.814 168.987 125.715 167.063 126.608 165.163L127.345 163.59C128.885 160.306 130.416 157.063 131.94 153.869C133.995 149.585 137.566 143.762 142.939 140.339C144.904 139.094 147.009 138.234 149.188 137.8C149.785 137.677 150.367 137.595 150.916 137.546C151.473 137.489 152.054 137.464 152.627 137.464C152.93 137.464 153.25 137.473 153.561 137.497C154.896 137.571 156.288 137.8 157.689 138.185C158.033 138.275 158.385 138.39 158.737 138.496L158.827 138.521C159.188 138.644 159.507 138.758 159.826 138.881L159.908 138.914L159.99 138.955C159.998 138.955 160.031 138.963 160.064 138.979C160.416 139.119 160.776 139.274 161.128 139.438C161.399 139.553 161.694 139.692 161.997 139.856C162.054 139.88 162.111 139.905 162.169 139.938C162.545 140.126 162.865 140.29 163.168 140.47C163.233 140.503 163.282 140.536 163.323 140.56C163.651 140.74 163.979 140.937 164.298 141.133L164.421 141.207C164.707 141.379 165.051 141.6 165.379 141.83C165.567 141.952 165.764 142.083 165.969 142.231H165.977L166.403 142.542C169.261 144.598 172.136 147.276 174.945 150.494C176.214 151.952 177.5 153.5 178.753 155.081L178.876 155.204L178.933 155.31L179.023 155.425C179.154 155.589 179.285 155.761 179.408 155.924C187.574 166.399 194.289 178.234 200.776 189.675C206.583 199.913 212.586 210.502 219.596 220.011C222.471 223.917 225.321 227.381 228.294 230.6C244.215 247.807 265.714 259.412 288.842 263.286L292.88 263.958L289.497 266.251C282.724 270.845 274.305 272.983 262.995 272.983C259.743 272.983 256.443 272.811 253.298 272.565C260.374 277.864 267.45 283.163 274.526 288.47L278.105 291.156L273.642 291.418C271.43 291.55 269.178 291.615 266.95 291.615C243.748 291.615 220.735 284.621 201.529 271.828L211.668 297.102L208.294 295.956C196.312 291.877 185.109 285.366 175.584 277.004L180.145 296.791C181.644 303.253 179.572 305.841 177.582 306.873C176.829 307.266 176.018 307.463 175.182 307.463C171.726 307.463 168.86 304.08 167.459 302.057L151.579 279.24L126.821 310.558C125.519 312.196 122.841 315.587 119.147 315.587Z"
        fill="#508653" />
    <path
        d="M152.636 139.102C152.906 139.102 153.192 139.11 153.463 139.127C154.749 139.2 156.01 139.413 157.263 139.757C157.623 139.856 157.975 139.97 158.336 140.085C158.647 140.191 158.95 140.306 159.261 140.421C159.31 140.445 159.376 140.462 159.425 140.494C159.761 140.625 160.097 140.765 160.424 140.928C160.727 141.06 161.022 141.199 161.317 141.363C161.382 141.379 161.432 141.412 161.489 141.444C161.8 141.6 162.103 141.764 162.406 141.936C162.431 141.944 162.455 141.96 162.488 141.977C162.816 142.149 163.127 142.345 163.446 142.542C163.471 142.558 163.487 142.566 163.52 142.583C163.839 142.779 164.151 142.976 164.462 143.189C164.789 143.402 165.109 143.631 165.428 143.86C165.436 143.869 165.445 143.877 165.453 143.877C168.499 146.072 171.3 148.807 173.716 151.575C175.027 153.082 176.304 154.614 177.533 156.17C177.541 156.178 177.549 156.186 177.558 156.203C177.729 156.432 177.918 156.661 178.082 156.891C193.544 176.735 203.38 200.772 218.278 220.977C221.021 224.703 223.937 228.299 227.098 231.714C243.2 249.117 265.19 260.985 288.572 264.899C281.111 269.961 272.151 271.353 262.987 271.353C257.884 271.353 252.716 270.919 247.712 270.452C256.32 276.898 264.928 283.343 273.535 289.797C271.34 289.928 269.145 289.993 266.942 289.993C242.331 289.993 217.754 281.967 197.95 267.34C201.57 276.365 205.198 285.399 208.818 294.424C195.354 289.838 182.93 282.172 172.783 272.188C174.699 280.517 176.624 288.847 178.54 297.176C179.228 300.141 179.515 304.039 176.82 305.439C176.272 305.726 175.723 305.849 175.174 305.849C172.734 305.849 170.35 303.376 168.794 301.148C163.078 292.933 157.369 284.727 151.653 276.513C142.939 287.528 134.241 298.544 125.527 309.559C123.873 311.656 121.784 313.957 119.155 313.957C119.049 313.957 118.942 313.957 118.844 313.949C116.903 313.809 115.625 312.565 114.905 310.845C113.914 308.47 113.954 305.194 114.708 302.622C116.027 298.183 117.828 292.655 114.43 289.518C108.189 293.236 101.956 296.963 95.7238 300.689C94.0203 301.697 92.3168 302.72 90.6051 303.736C87.411 305.636 84.0613 307.593 80.3595 307.798C80.1957 307.806 80.0237 307.814 79.8599 307.814C76.2891 307.814 72.4972 305.677 71.8665 302.18C71.1622 298.306 74.3644 294.973 76.846 291.901C79.3275 288.838 81.1211 283.949 78.1809 281.32C61.7602 291.926 43.1281 299.117 23.8408 302.286C30.3518 295.611 36.871 288.945 43.382 282.262C39.7948 282.893 36.1503 283.204 32.5057 283.204C24.537 283.204 16.5682 281.705 9.16447 278.757C34.4549 269.453 60.458 259.723 80.2448 241.419C85.5846 236.48 90.4413 230.985 94.9212 225.113C95.56 224.277 96.1988 223.426 96.8212 222.574C97.9842 221.001 99.1144 219.388 100.212 217.766C100.548 217.275 100.883 216.784 101.203 216.292C104.348 211.591 107.304 206.702 110.097 201.722C110.531 200.985 110.941 200.24 111.342 199.486C111.375 199.437 111.408 199.388 111.424 199.339C111.858 198.569 112.276 197.791 112.701 197.013C114.02 194.597 115.298 192.148 116.543 189.699C116.87 189.069 117.181 188.43 117.501 187.808C118.017 186.808 118.533 185.793 119.024 184.785C120.728 181.354 122.382 177.931 124.02 174.515C124.479 173.549 124.937 172.583 125.388 171.624C126.305 169.7 127.206 167.775 128.107 165.867C129.9 162.05 131.669 158.283 133.43 154.589C135.83 149.585 139.27 144.647 143.831 141.739C145.559 140.642 147.451 139.839 149.515 139.43C150.031 139.323 150.555 139.241 151.063 139.2C151.587 139.135 152.12 139.102 152.636 139.102ZM152.636 135.826C152.013 135.826 151.382 135.859 150.76 135.916C150.154 135.965 149.515 136.064 148.86 136.195C146.493 136.67 144.208 137.595 142.071 138.955C136.37 142.591 132.619 148.684 130.474 153.156C128.934 156.366 127.37 159.708 125.855 162.935L125.142 164.458C124.249 166.358 123.34 168.283 122.431 170.207C121.972 171.166 121.514 172.132 121.055 173.107C119.491 176.366 117.804 179.872 116.092 183.32C115.625 184.278 115.126 185.269 114.593 186.301L114.258 186.964C114.053 187.374 113.84 187.791 113.627 188.201C112.251 190.903 111.006 193.27 109.827 195.441C109.401 196.227 108.991 196.988 108.566 197.742L108.418 198.012L108.41 198.037C107.976 198.831 107.616 199.478 107.272 200.068L107.255 200.092L107.239 200.117C104.282 205.375 101.416 210.068 98.4756 214.466C98.148 214.965 97.8204 215.44 97.4928 215.924C96.4036 217.537 95.2897 219.118 94.1759 220.625C93.4552 221.607 92.8655 222.394 92.3168 223.114C87.7468 229.109 82.9393 234.457 78.0172 239.011C58.4187 257.152 31.654 266.996 8.03426 275.677L0 278.634L7.95238 281.795C15.6427 284.85 24.1356 286.472 32.5057 286.472C33.2428 286.472 33.98 286.455 34.7253 286.431C30.3191 290.951 25.9047 295.464 21.4985 299.985L14.5289 307.127L24.3732 305.505C42.5385 302.516 60.3515 295.947 76.1663 286.422C75.8141 287.553 75.1261 288.806 74.2989 289.829C74.045 290.141 73.7912 290.452 73.5291 290.771C70.9493 293.892 67.747 297.782 68.6479 302.753C69.6225 308.158 75.1507 311.074 79.8681 311.074C80.0974 311.074 80.3267 311.066 80.556 311.058C85.1178 310.812 89.09 308.445 92.2841 306.537L92.3332 306.512C94.0203 305.505 95.7075 304.489 97.4028 303.49C102.636 300.362 107.869 297.233 113.095 294.113C113.234 296.127 112.415 298.871 111.711 301.213L111.571 301.672C110.539 305.177 110.662 309.166 111.882 312.09C113.152 315.12 115.601 316.979 118.606 317.192C118.795 317.208 118.975 317.208 119.155 317.208C123.643 317.208 126.657 313.4 128.099 311.565C132.439 306.07 136.788 300.575 141.129 295.087C144.585 290.722 148.033 286.357 151.489 281.983L154.298 286.013L166.116 302.991C167.697 305.267 170.981 309.092 175.182 309.092C176.288 309.092 177.345 308.83 178.344 308.314C180.399 307.249 183.577 304.285 181.751 296.406C180.784 292.213 179.818 288.011 178.843 283.81C178.655 282.999 178.467 282.188 178.278 281.369C187.099 288.363 197.14 293.867 207.77 297.495L214.527 299.797L211.873 293.171L204.953 275.923C223.503 287.143 245.149 293.236 266.959 293.236C269.219 293.236 271.496 293.171 273.74 293.04L282.667 292.516L275.509 287.151C269.891 282.942 264.272 278.724 258.646 274.522C260.087 274.58 261.545 274.613 262.995 274.613C274.641 274.613 283.355 272.385 290.415 267.594L297.188 262.999L289.121 261.648C266.353 257.84 245.182 246.415 229.506 229.47C226.574 226.3 223.765 222.877 220.923 219.019C213.97 209.585 207.991 199.044 202.209 188.848C195.698 177.374 188.966 165.506 180.711 154.9C180.588 154.737 180.457 154.565 180.326 154.401L180.211 154.262C180.162 154.196 180.113 154.131 180.064 154.065C178.802 152.468 177.5 150.904 176.198 149.405C173.307 146.088 170.334 143.328 167.377 141.199L166.517 140.585H166.493C166.427 140.535 166.354 140.494 166.288 140.453C165.977 140.241 165.641 140.028 165.273 139.798C165.256 139.79 165.248 139.782 165.232 139.774L165.223 139.766L165.166 139.733C164.863 139.544 164.519 139.34 164.159 139.135C164.101 139.102 164.028 139.061 163.954 139.02C163.618 138.824 163.291 138.66 163.004 138.512L162.906 138.463L162.873 138.447C162.824 138.422 162.767 138.398 162.709 138.365C162.431 138.218 162.128 138.078 161.8 137.931C161.464 137.775 161.104 137.62 160.711 137.464C160.686 137.456 160.662 137.44 160.637 137.431L160.58 137.407L160.408 137.341C160.064 137.218 159.736 137.096 159.409 136.981L159.376 136.965L159.343 136.956L159.22 136.915C158.86 136.801 158.499 136.686 158.131 136.588C156.64 136.178 155.133 135.924 153.659 135.851C153.332 135.843 152.98 135.826 152.636 135.826Z"
        fill="#301709" />
    <path
        d="M247.722 270.445C256.33 276.891 264.937 283.336 273.545 289.79C246.772 291.362 219.532 283.271 197.96 267.325C201.58 276.35 205.2 285.384 208.828 294.409C195.364 289.823 182.94 282.157 172.793 272.173C174.709 280.503 176.634 288.832 178.55 297.161C179.238 300.126 179.525 304.024 176.83 305.425C173.865 306.964 170.704 303.868 168.804 301.133C163.087 292.919 157.379 284.712 151.663 276.498C142.949 287.513 134.251 298.529 125.537 309.544C123.817 311.723 121.622 314.122 118.846 313.934C116.905 313.795 115.627 312.55 114.906 310.83C124.579 295.236 134.259 279.643 143.923 264.041C144.128 267.022 148.182 268.365 150.893 267.12C153.612 265.884 155.25 263.132 156.871 260.626C158.501 258.12 160.54 255.507 163.456 254.909C168.386 253.91 172.268 258.881 174.873 263.173C177.494 267.464 181.646 272.321 186.478 270.978C189.484 270.142 191.375 267.014 191.728 263.918C192.08 260.822 191.204 257.735 190.335 254.745C193.832 252.624 198.468 254.352 201.613 256.973C204.75 259.602 207.198 263.083 210.696 265.204C214.201 267.333 219.516 267.472 221.719 264.016C224.266 260.061 221.015 255.032 217.993 251.42C209.115 240.839 200.843 229.741 193.226 218.226C182.301 201.707 172.727 184.304 164.635 166.229C162.375 161.184 160.18 155.999 157.092 151.454C156.601 150.725 156.085 150.004 155.528 149.308C154.889 148.481 154.21 147.687 153.481 146.925C150.262 143.559 147.15 142.527 143.825 141.733C145.553 140.635 147.445 139.833 149.509 139.423C150.025 139.325 150.541 139.251 151.056 139.194C151.581 139.145 152.105 139.112 152.613 139.112C152.891 139.112 153.178 139.12 153.456 139.136C153.677 139.145 153.89 139.161 154.103 139.177C154.406 139.21 154.701 139.251 154.996 139.284C155.168 139.308 155.348 139.349 155.52 139.374C155.717 139.407 155.905 139.448 156.101 139.489C156.29 139.529 156.478 139.579 156.675 139.62C156.871 139.661 157.052 139.718 157.248 139.767C157.608 139.865 157.961 139.98 158.321 140.095C158.632 140.201 158.935 140.316 159.246 140.43C159.296 140.455 159.361 140.471 159.41 140.504C159.746 140.635 160.082 140.774 160.409 140.938C160.712 141.069 161.007 141.208 161.302 141.372C161.368 141.389 161.417 141.421 161.474 141.454C161.785 141.61 162.088 141.774 162.391 141.945C162.416 141.954 162.441 141.97 162.473 141.986C162.801 142.158 163.112 142.355 163.432 142.552C163.456 142.568 163.472 142.576 163.505 142.593C163.825 142.789 164.136 142.986 164.447 143.199C164.775 143.412 165.094 143.641 165.413 143.87C165.422 143.878 165.43 143.887 165.438 143.887C169.639 147.736 173.579 151.945 177.518 156.188C177.526 156.196 177.535 156.204 177.543 156.221C177.715 156.45 177.903 156.679 178.067 156.908C193.529 176.753 203.366 200.79 218.263 220.995C221.007 224.721 223.922 228.316 227.084 231.732C243.185 249.135 265.175 261.002 288.557 264.917C276.96 272.779 261.702 271.764 247.722 270.445Z"
        fill="#315431" />
    <path
        d="M157.329 144.329C157.296 145.893 157.247 147.466 157.189 149.03C157.165 149.841 157.14 150.651 157.091 151.446C156.01 176.343 152.079 201.101 145.461 225.114C139.114 248.161 130.277 270.535 119.123 291.682C118.77 288.447 118.427 285.204 118.083 281.969C110.433 287.964 102.972 294.204 95.7076 300.674C94.0041 301.682 92.2924 302.705 90.589 303.721C87.3949 305.621 84.0452 307.578 80.3434 307.783C76.6333 307.996 72.5138 305.826 71.8504 302.165C71.1461 298.291 74.3483 294.958 76.8298 291.887C79.3114 288.824 81.105 283.934 78.1648 281.305C61.744 291.911 43.112 299.102 23.8247 302.271C30.3357 295.597 36.8549 288.93 43.3658 282.247C31.9245 284.262 19.9346 283.041 9.14844 278.75C34.4389 269.446 60.4418 259.717 80.2287 241.412C85.5685 236.474 90.4252 230.978 94.9051 225.106C95.5521 224.271 96.1826 223.427 96.8051 222.567C97.968 220.995 99.0983 219.381 100.196 217.76C100.531 217.276 100.867 216.785 101.187 216.285C104.332 211.584 107.288 206.695 110.081 201.716C110.515 200.978 110.925 200.233 111.326 199.48C111.359 199.431 111.391 199.381 111.408 199.332C111.842 198.562 112.268 197.784 112.685 197.006C114.004 194.59 115.282 192.142 116.526 189.693C116.854 189.07 117.173 188.432 117.485 187.801C118.001 186.802 118.517 185.786 119.008 184.779C120.711 181.355 122.374 177.924 124.004 174.509C124.462 173.542 124.921 172.576 125.372 171.618C126.289 169.693 127.19 167.768 128.091 165.86C129.884 162.044 131.653 158.276 133.414 154.583C135.814 149.579 139.253 144.64 143.815 141.733C145.543 140.635 147.435 139.833 149.499 139.423C150.015 139.317 150.539 139.235 151.047 139.194C151.571 139.145 152.103 139.112 152.619 139.112C152.89 139.112 153.176 139.12 153.447 139.136C154.732 139.21 155.994 139.423 157.247 139.767C157.345 141.315 157.37 142.855 157.329 144.329Z"
        fill="#D31717" />
    <path
        d="M218.278 220.978C214.961 223.64 209.916 222.984 205.625 222.124C201.358 221.264 196.976 220.347 193.217 218.226C192.504 217.841 191.808 217.391 191.153 216.899C189.941 216.007 188.811 214.917 187.41 214.385C186.002 213.836 184.159 214.016 183.307 215.253C182.193 216.891 183.373 219.086 183.225 221.052C183.053 223.541 180.629 225.45 178.156 225.736C175.674 226.015 173.225 225.015 171.096 223.705C166.69 220.994 163.184 216.858 161.243 212.067C160.899 211.232 160.433 210.241 159.54 210.134C158.541 210.02 157.861 211.093 157.402 212.002C154.683 217.325 150.49 221.887 145.461 225.122C142.742 226.866 139.794 228.234 136.698 229.127C132.939 230.216 127.845 230.052 126.346 226.424C126.158 225.965 126.051 225.499 125.986 225.007C125.814 223.803 125.896 222.534 125.716 221.322C125.445 219.618 124.151 217.759 122.448 218.013C121.391 218.169 120.638 219.061 119.966 219.889C117.01 223.549 113.848 227.03 110.491 230.314C108.066 232.698 104.979 235.138 101.637 234.483C101.113 234.377 100.63 234.237 100.188 234.074C95.6831 232.329 96.0353 227.341 96.8215 222.567C97.9845 220.994 99.1147 219.381 100.212 217.759C100.548 217.268 100.884 216.776 101.203 216.285C104.348 211.584 107.305 206.695 110.097 201.715C110.532 200.978 110.941 200.233 111.342 199.479C111.375 199.43 111.408 199.381 111.424 199.332C111.858 198.562 112.276 197.784 112.702 197.006C114.02 194.59 115.298 192.141 116.543 189.692C116.87 189.062 117.182 188.423 117.501 187.8C118.017 186.801 118.533 185.786 119.024 184.778C125.462 178.923 129.942 171.085 135.298 164.115C140.49 157.359 147.394 150.995 155.535 149.3C156.084 149.185 156.632 149.087 157.198 149.029C157.951 148.923 158.729 148.874 159.507 148.866C165.568 148.784 171.391 151.486 176.149 155.246C176.821 155.77 177.459 156.318 178.09 156.892C193.553 176.736 203.389 200.773 218.278 220.978Z"
        fill="#182D18" />
    <path
        d="M73.7734 264.8C83.4048 267.568 93.159 261.278 100.792 254.792C115.935 241.925 129.924 225.455 131.897 205.677C132.192 202.753 132.119 199.526 130.259 197.249C124.608 190.353 120.161 200.435 118.269 204.178C114.494 211.672 110.292 218.952 105.706 225.979C96.5332 240.05 85.8126 253.096 73.7734 264.8Z"
        fill="#F9A876" />
    <path
        d="M133.013 228.168C132.775 228.168 132.546 228.152 132.3 228.119C130.327 227.824 128.869 226.464 128.189 224.286C127.509 222.099 127.64 219.175 128.541 216.653L128.672 216.284C129.606 213.713 130.638 210.846 130.015 208.872C125.56 211.264 121.105 213.655 116.65 216.055C115.356 216.743 114.078 217.431 112.792 218.119L112.612 218.217C110.081 219.568 107.215 221.108 103.996 221.108H103.849C100.376 221.067 96.5433 218.643 96.1665 214.663C95.8225 211.125 98.2958 208.381 100.278 206.178C100.491 205.94 100.712 205.695 100.917 205.457C102.08 204.139 103.243 202.009 103.071 200.429C90.3107 207.603 76.052 212.14 61.7361 213.582L56.9368 214.065C56.9368 214.065 68.8531 202.853 73.0545 198.897C72.8661 198.897 72.6778 198.897 72.4894 198.897C65.0939 198.897 57.7149 197.12 51.1302 193.762L47.543 191.928L51.3922 190.74C69.7786 185.056 90.6219 178.611 106.592 165.048C110.614 161.633 114.586 157.571 118.41 152.993C118.943 152.362 119.459 151.723 119.975 151.084C120.925 149.905 121.866 148.693 122.776 147.464C123.054 147.088 123.332 146.719 123.603 146.351C126.101 142.96 128.549 139.332 131.096 135.27C131.465 134.696 131.817 134.131 132.153 133.574L132.235 133.443C132.603 132.854 132.964 132.264 133.324 131.666C134.356 129.971 135.437 128.136 136.633 126.048C136.838 125.696 137.46 124.59 137.46 124.59C137.91 123.812 138.345 123.042 138.77 122.272C140.277 119.578 141.76 116.859 143.127 114.328L144.331 112.092C145.126 110.618 145.912 109.136 146.698 107.67L147.255 106.621C148.648 104.009 150.023 101.421 151.391 98.89C153.209 95.5322 156.28 91.0195 160.605 88.5216C162.21 87.6043 163.897 87.0146 165.625 86.7771C166.1 86.7116 166.559 86.6706 167.001 86.6624C167.124 86.6624 167.263 86.6543 167.411 86.6543C167.722 86.6543 168.033 86.6625 168.344 86.687C168.582 86.7034 168.836 86.728 169.081 86.7689C170.113 86.9081 171.186 87.1784 172.243 87.5716C172.48 87.6617 172.734 87.7599 172.98 87.8664L173.094 87.9155C173.373 88.0384 173.61 88.153 173.848 88.2677L173.93 88.3086C173.93 88.3086 174.012 88.3578 174.036 88.366C174.307 88.5052 174.569 88.6444 174.831 88.8001C175.019 88.9065 175.24 89.0375 175.461 89.1768C175.51 89.2013 175.551 89.2259 175.601 89.2587C175.838 89.4061 176.035 89.5371 176.215 89.6682L176.256 89.6845L176.436 89.8238C176.673 89.9876 176.903 90.1596 177.132 90.3316L177.239 90.4134C177.46 90.5772 177.714 90.782 177.951 90.9867C178.058 91.0768 178.18 91.1751 178.303 91.2734H178.311L178.819 91.7239C180.834 93.5338 182.816 95.8106 184.724 98.5133C185.609 99.7663 186.485 101.069 187.328 102.395L187.427 102.526L187.468 102.625L187.5 102.682C187.599 102.829 187.689 102.977 187.779 103.132C193.34 111.986 197.713 121.838 201.947 131.363C205.731 139.872 209.638 148.677 214.363 156.662C216.304 159.946 218.237 162.861 220.285 165.597C231.235 180.183 246.697 190.601 263.806 194.941L267.557 195.891L264.256 197.923C259.711 200.724 254.289 202.083 247.696 202.083C244.257 202.083 240.784 201.723 237.393 201.223C242.168 205.621 246.951 210.027 251.726 214.433L254.854 217.316L250.596 217.275C231.865 217.087 213.012 210.232 198.057 198.324L204.118 218.741L200.866 217.292C192.398 213.508 184.593 207.98 178.033 201.149L180.162 216.112C180.94 221.542 179.114 223.59 177.443 224.36C176.878 224.622 176.28 224.753 175.674 224.753C172.718 224.753 170.556 221.641 169.524 219.79L159.172 201.166L139.073 224.433C137.485 226.268 135.511 228.168 133.013 228.168Z"
        fill="#508653" />
    <path
        d="M167.402 88.2838C167.673 88.2838 167.943 88.292 168.213 88.3165C168.418 88.3329 168.631 88.3575 168.836 88.3821C169.802 88.5049 170.744 88.7506 171.661 89.0946C171.931 89.1929 172.185 89.2993 172.447 89.414C172.677 89.5123 172.898 89.6269 173.127 89.7334C173.168 89.7579 173.209 89.7743 173.25 89.7989C173.496 89.9217 173.742 90.0528 173.979 90.2002C174.2 90.323 174.413 90.4541 174.634 90.5933C174.683 90.6097 174.716 90.6425 174.765 90.667C174.986 90.8144 175.207 90.9537 175.429 91.1093C175.445 91.1175 175.47 91.1339 175.486 91.1503C175.723 91.3059 175.945 91.4778 176.174 91.6498C176.19 91.6662 176.207 91.6744 176.223 91.6908C176.452 91.8628 176.673 92.043 176.895 92.2313C177.124 92.4197 177.361 92.6162 177.583 92.821C177.591 92.8292 177.599 92.8374 177.599 92.8374C179.769 94.762 181.718 97.1043 183.381 99.4548C184.282 100.732 185.15 102.035 185.994 103.345C186.002 103.353 186.002 103.361 186.01 103.378C186.133 103.574 186.256 103.763 186.37 103.959C196.878 120.699 202.898 140.495 212.955 157.497C214.806 160.634 216.796 163.672 218.983 166.579C230.113 181.403 246.009 192.116 263.413 196.53C258.63 199.47 253.241 200.445 247.713 200.445C242.578 200.445 237.32 199.609 232.283 198.733C238.401 204.368 244.511 210.002 250.628 215.637C230.35 215.432 210.277 207.455 194.929 193.5C197.132 200.928 199.343 208.356 201.546 215.793C191.653 211.378 182.734 204.556 175.666 196.014C176.624 202.787 177.591 209.568 178.557 216.341C178.901 218.749 178.893 221.894 176.78 222.869C176.411 223.041 176.051 223.114 175.699 223.114C173.791 223.114 172.054 220.928 170.981 218.995C167.149 212.107 163.316 205.211 159.483 198.324C152.267 206.669 145.069 215.015 137.853 223.36C136.535 224.883 134.905 226.538 133.021 226.538C132.866 226.538 132.71 226.53 132.554 226.505C131.097 226.284 130.212 225.219 129.762 223.802C129.147 221.845 129.377 219.224 130.097 217.209C131.35 213.729 133.029 209.396 130.646 206.694C125.724 209.331 120.802 211.976 115.888 214.621C114.545 215.334 113.193 216.063 111.85 216.784C109.369 218.11 106.773 219.478 104.013 219.478C103.972 219.478 103.931 219.478 103.89 219.478C101.08 219.445 98.0994 217.48 97.8128 214.515C97.5098 211.37 100.114 208.88 102.162 206.554C104.209 204.237 105.847 200.42 103.783 198.152C90.7776 205.744 76.3141 210.486 61.5805 211.968C66.8794 206.98 72.1865 201.993 77.4853 196.997C75.831 197.185 74.1603 197.275 72.4977 197.275C65.3807 197.275 58.28 195.58 51.8836 192.32C71.4985 186.26 91.6784 179.888 107.657 166.309C111.973 162.648 115.953 158.512 119.672 154.049C120.204 153.418 120.728 152.763 121.252 152.116C122.219 150.92 123.169 149.692 124.094 148.447C124.373 148.07 124.659 147.693 124.93 147.317C127.575 143.721 130.089 139.97 132.489 136.137C132.857 135.572 133.21 134.991 133.562 134.418C133.594 134.377 133.611 134.344 133.627 134.303C133.996 133.705 134.364 133.107 134.725 132.509C135.863 130.642 136.96 128.758 138.05 126.858C138.328 126.367 138.607 125.876 138.885 125.4C139.336 124.622 139.778 123.844 140.212 123.058C141.694 120.405 143.144 117.751 144.577 115.106C144.979 114.352 145.38 113.607 145.781 112.862C146.584 111.371 147.378 109.881 148.164 108.398C149.737 105.442 151.293 102.518 152.841 99.6596C154.946 95.7858 157.82 92.0183 161.432 89.9381C162.8 89.1519 164.274 88.6196 165.855 88.3985C166.256 88.3411 166.649 88.3083 167.034 88.3001C167.149 88.2837 167.28 88.2838 167.402 88.2838ZM167.402 85.0078C167.247 85.0078 167.091 85.0078 166.936 85.016C166.444 85.0242 165.92 85.0733 165.388 85.147C163.463 85.4091 161.579 86.0643 159.794 87.088C155.134 89.7743 151.874 94.5572 149.95 98.0953C148.598 100.593 147.214 103.189 145.879 105.704L145.265 106.859C144.479 108.333 143.684 109.823 142.89 111.314C142.489 112.051 142.087 112.804 141.686 113.558C140.318 116.08 138.844 118.791 137.354 121.453C136.944 122.198 136.51 122.96 136.051 123.746L135.748 124.27C135.568 124.582 135.396 124.901 135.208 125.212C134.012 127.301 132.939 129.119 131.924 130.789C131.563 131.395 131.203 131.977 130.843 132.558L130.687 132.812L130.679 132.837C130.318 133.427 130.024 133.91 129.737 134.344L129.721 134.368L129.704 134.393C127.174 138.431 124.749 142.018 122.284 145.368C122.006 145.744 121.735 146.113 121.465 146.481C120.556 147.702 119.631 148.906 118.705 150.052C118.107 150.797 117.616 151.395 117.165 151.936C113.398 156.457 109.483 160.453 105.536 163.803C89.8194 177.153 69.1481 183.541 50.9173 189.175L43.2188 191.559L50.4013 195.228C56.1916 198.184 62.5797 199.953 69.0661 200.42C65.872 203.426 62.678 206.432 59.4839 209.437L59.3365 209.576L52.3095 216.194L61.9163 215.228C75.0611 213.901 88.1486 210.011 100.114 203.893C99.9912 204.056 99.852 204.22 99.7128 204.384C99.508 204.622 99.2951 204.851 99.0822 205.088C97.0019 207.406 94.1436 210.576 94.5531 214.826C95.0199 219.724 99.6473 222.697 103.849 222.754H104.013C107.641 222.754 110.826 221.042 113.398 219.675L113.456 219.642C114.782 218.929 116.109 218.217 117.428 217.512C121.097 215.539 124.758 213.573 128.41 211.608C128.14 212.967 127.583 214.515 127.141 215.735L127.01 216.096C125.994 218.946 125.847 222.271 126.633 224.777C127.493 227.545 129.475 229.355 132.063 229.74C132.382 229.789 132.702 229.814 133.021 229.814C136.608 229.814 139.123 226.898 140.335 225.498C143.979 221.288 147.616 217.07 151.252 212.852L158.893 204.007L168.107 220.584C170.187 224.327 172.873 226.39 175.691 226.39C176.534 226.39 177.361 226.21 178.148 225.85C180.318 224.851 182.718 222.312 181.8 215.883L180.359 205.76L180.351 205.694C186.272 211.124 193.004 215.58 200.211 218.798L206.714 221.698L204.691 214.875L201.055 202.623C215.584 212.902 233.143 218.749 250.596 218.929L259.105 219.019L252.848 213.246C249.318 209.986 245.78 206.726 242.242 203.475C244.06 203.639 245.878 203.737 247.705 203.737C254.617 203.737 260.309 202.296 265.125 199.331L271.726 195.269L264.215 193.36C247.459 189.11 232.324 178.905 221.595 164.622C219.58 161.944 217.672 159.069 215.772 155.842C211.096 147.939 207.206 139.184 203.446 130.716C199.196 121.15 194.806 111.256 189.171 102.272C189.106 102.157 189.032 102.043 188.958 101.928L188.885 101.74L188.663 101.461C187.82 100.135 186.944 98.8406 186.059 97.5875C184.036 94.7292 181.923 92.3132 179.769 90.4049L178.942 89.6761H178.901C178.696 89.5041 178.475 89.3321 178.238 89.1519L178.23 89.1437L178.189 89.1191L178.18 89.111L178.131 89.07C177.91 88.9062 177.664 88.7178 177.394 88.5295C177.345 88.4967 177.296 88.4557 177.239 88.4148C176.985 88.2346 176.747 88.079 176.526 87.9398L176.428 87.8743L176.395 87.8579C176.362 87.8333 176.321 87.8169 176.28 87.7924C176.067 87.6613 175.846 87.5221 175.609 87.3911C175.355 87.2436 175.085 87.088 174.782 86.9406C174.773 86.9324 174.765 86.9324 174.757 86.9242L174.7 86.8915L174.528 86.8096C174.274 86.6868 174.02 86.5639 173.774 86.4574L173.741 86.441L173.701 86.4247L173.602 86.3837C173.324 86.2691 173.045 86.1544 172.767 86.0479C171.612 85.6138 170.416 85.319 169.245 85.1634C169 85.1307 168.713 85.0979 168.434 85.0815C168.107 85.016 167.755 85.0078 167.402 85.0078Z"
        fill="#301709" />
    <path
        d="M232.283 198.724C238.401 204.359 244.511 209.993 250.629 215.628C230.351 215.423 210.277 207.446 194.929 193.491C197.132 200.919 199.344 208.347 201.547 215.784C191.653 211.369 182.734 204.547 175.667 196.005C176.625 202.778 177.591 209.559 178.558 216.332C178.902 218.74 178.893 221.885 176.78 222.86C174.454 223.933 172.251 221.279 170.974 218.986C167.141 212.098 163.308 205.202 159.475 198.315C152.26 206.66 145.061 215.006 137.845 223.351C136.42 225.005 134.627 226.807 132.547 226.496C131.089 226.275 130.204 225.21 129.754 223.793C137.952 211.828 146.158 199.871 154.365 187.913C154.34 190.313 157.321 191.607 159.442 190.763C161.564 189.92 162.964 187.807 164.332 185.89C165.708 183.974 167.395 181.992 169.631 181.673C173.406 181.14 176.043 185.342 177.763 188.921C179.491 192.5 182.333 196.619 186.06 195.808C188.377 195.301 189.983 192.901 190.425 190.444C190.867 187.987 190.384 185.465 189.909 183.024C192.669 181.517 196.068 183.155 198.287 185.424C200.498 187.7 202.145 190.624 204.659 192.516C207.181 194.416 211.178 194.817 213.045 192.172C215.199 189.142 213.037 184.94 210.965 181.877C204.888 172.909 199.294 163.573 194.217 153.933C186.936 140.101 180.728 125.637 175.683 110.715C174.274 106.546 172.915 102.271 170.851 98.463C170.523 97.8488 170.171 97.2427 169.794 96.6612C169.36 95.9651 168.893 95.2935 168.386 94.6383C166.158 91.7637 163.865 90.7727 161.408 89.9455C162.776 89.1593 164.25 88.6269 165.83 88.4058C166.224 88.3566 166.617 88.3239 167.01 88.3075C167.411 88.2911 167.804 88.2993 168.189 88.3321C168.402 88.3485 168.615 88.3731 168.828 88.3976C168.992 88.414 169.147 88.4385 169.319 88.4713C169.54 88.5123 169.77 88.5614 169.991 88.6024C170.122 88.6351 170.253 88.6679 170.384 88.7007C170.532 88.7416 170.671 88.7743 170.818 88.8235C170.957 88.8726 171.097 88.9135 171.244 88.9627C171.391 89.0118 171.522 89.061 171.67 89.1101C171.932 89.2084 172.194 89.3149 172.456 89.4295C172.685 89.5278 172.907 89.6425 173.136 89.7489C173.177 89.7735 173.218 89.7899 173.259 89.8145C173.504 89.9373 173.75 90.0683 173.988 90.2158C174.209 90.3386 174.422 90.4696 174.643 90.6089C174.692 90.6252 174.725 90.658 174.774 90.6826C174.995 90.83 175.216 90.9692 175.437 91.1248C175.454 91.133 175.478 91.1494 175.495 91.1658C175.732 91.3214 175.953 91.4934 176.183 91.6654C176.199 91.6818 176.215 91.69 176.232 91.7063C176.461 91.8783 176.682 92.0585 176.903 92.2468C177.133 92.4352 177.37 92.6318 177.591 92.8365C177.599 92.8447 177.599 92.8529 177.608 92.8529C180.556 96.1698 183.275 99.757 186.002 103.369C186.01 103.377 186.019 103.385 186.019 103.402C186.141 103.598 186.264 103.786 186.379 103.983C196.887 120.723 202.906 140.518 212.963 157.521C214.814 160.657 216.805 163.696 218.991 166.603C230.121 181.427 246.018 192.139 263.422 196.554C254.2 202.188 242.742 200.542 232.283 198.724Z"
        fill="#315431" />
    <path
        d="M171.447 92.7558C171.333 94.0089 171.202 95.262 171.071 96.515C171.005 97.162 170.94 97.809 170.858 98.4478C168.589 118.333 164.191 137.94 157.795 156.817C151.669 174.934 143.7 192.37 134.06 208.692C133.987 206.08 133.913 203.467 133.848 200.855C127.73 205.236 121.735 209.831 115.887 214.614C114.544 215.326 113.193 216.055 111.849 216.776C109.335 218.119 106.69 219.511 103.889 219.47C101.08 219.438 98.0986 217.472 97.8119 214.507C97.5089 211.362 100.113 208.873 102.161 206.547C104.208 204.229 105.846 200.412 103.782 198.144C90.7767 205.736 76.3133 210.478 61.5796 211.96C66.8785 206.973 72.1856 201.985 77.4845 196.989C68.7377 197.972 59.7697 196.342 51.8828 192.313C71.4977 186.252 91.6776 179.88 107.656 166.301C111.972 162.64 115.953 158.505 119.671 154.041C120.211 153.41 120.727 152.763 121.251 152.108C122.218 150.912 123.168 149.684 124.093 148.439C124.372 148.071 124.65 147.694 124.929 147.309C127.574 143.714 130.088 139.963 132.488 136.13C132.857 135.565 133.209 134.983 133.561 134.41C133.594 134.369 133.61 134.336 133.626 134.295C133.995 133.697 134.364 133.099 134.724 132.502C135.862 130.634 136.96 128.751 138.049 126.85C138.327 126.367 138.614 125.876 138.884 125.393C139.335 124.615 139.777 123.837 140.211 123.05C141.693 120.405 143.151 117.743 144.576 115.098C144.978 114.344 145.379 113.599 145.78 112.854C146.583 111.363 147.377 109.873 148.164 108.39C149.736 105.434 151.292 102.51 152.84 99.6518C154.945 95.778 157.819 92.0106 161.431 89.9304C162.799 89.1441 164.273 88.6118 165.854 88.3907C166.255 88.3333 166.648 88.3006 167.033 88.2924C167.434 88.276 167.836 88.2842 168.221 88.3169C168.425 88.3333 168.638 88.3579 168.843 88.3825C169.81 88.5053 170.751 88.751 171.669 89.095C171.636 90.3398 171.562 91.5683 171.447 92.7558Z"
        fill="#CF391C" />
    <path
        d="M212.952 157.485C210.299 159.434 206.532 158.632 203.346 157.706C200.176 156.781 196.925 155.806 194.214 153.906C193.698 153.554 193.198 153.161 192.732 152.727C191.872 151.941 191.085 151.015 190.053 150.507C189.021 149.991 187.621 150.032 186.909 150.982C185.975 152.227 186.728 154.053 186.507 155.626C186.229 157.608 184.296 159.008 182.412 159.098C180.529 159.189 178.735 158.247 177.203 157.084C174.042 154.676 171.634 151.162 170.447 147.223C170.234 146.535 169.947 145.716 169.276 145.577C168.53 145.429 167.957 146.249 167.556 146.953C165.197 151.072 161.766 154.488 157.785 156.805C155.631 158.05 153.33 158.984 150.938 159.533C148.039 160.196 144.206 159.786 143.289 156.805C143.174 156.429 143.117 156.052 143.101 155.651C143.035 154.676 143.174 153.669 143.109 152.686C143.002 151.302 142.134 149.746 140.832 149.86C140.029 149.926 139.407 150.597 138.85 151.228C136.41 153.996 133.821 156.609 131.094 159.058C129.129 160.835 126.655 162.62 124.174 161.908C123.781 161.793 123.428 161.654 123.101 161.498C119.808 159.86 120.365 155.88 121.234 152.096C122.2 150.9 123.15 149.672 124.075 148.427C124.354 148.05 124.641 147.674 124.911 147.297C127.556 143.701 130.07 139.95 132.47 136.118C132.839 135.552 133.191 134.971 133.543 134.398C133.576 134.357 133.592 134.324 133.609 134.283C133.977 133.685 134.346 133.087 134.706 132.489C135.844 130.622 136.942 128.738 138.031 126.838C138.31 126.347 138.588 125.856 138.866 125.381C139.317 124.603 139.759 123.825 140.193 123.038C145.386 118.698 149.227 112.67 153.666 107.379C157.974 102.252 163.551 97.5349 169.792 96.6258C170.209 96.5603 170.635 96.5193 171.061 96.4947C171.634 96.4538 172.224 96.4538 172.814 96.4865C177.384 96.7568 181.626 99.2384 184.992 102.514C185.467 102.973 185.918 103.448 186.36 103.939C196.876 120.688 202.895 140.483 212.952 157.485Z"
        fill="#182D18" />
    <path
        d="M101.422 184.672C108.523 187.416 116.246 182.911 122.38 178.137C134.55 168.661 146.057 156.237 148.694 140.504C149.087 138.178 149.218 135.59 147.949 133.665C144.091 127.826 140.144 135.664 138.506 138.563C135.222 144.361 131.626 149.963 127.761 155.336C120.021 166.089 111.176 175.958 101.422 184.672Z"
        fill="#F9A876" />
    <path
        d="M141.756 158.635C141.649 158.635 141.551 158.635 141.445 158.627C139.692 158.504 138.316 157.456 137.579 155.679C136.85 153.926 136.777 151.535 137.399 149.422L137.489 149.127C138.136 146.956 138.611 145.122 138.275 143.869C135.114 145.753 131.953 147.644 128.8 149.528L127.89 150.069C126.818 150.707 125.745 151.346 124.68 151.985C122.608 153.222 120.257 154.614 117.497 154.761C117.366 154.77 117.227 154.77 117.096 154.77C114.312 154.77 111.036 153.058 110.47 149.888C109.938 146.956 111.887 144.598 113.452 142.706L113.935 142.116C114.737 141.125 115.335 139.848 115.36 138.873C105.286 145.081 93.8613 149.364 82.1988 151.281L77.2767 152.092C77.2767 152.092 87.3094 141.813 89.8073 139.25C88.9965 139.299 88.1856 139.323 87.3748 139.323C82.1742 139.323 76.8917 138.316 72.117 136.416L68.1367 134.835L72.158 133.361C87.0145 127.899 103.861 121.699 116.228 110.257C119.332 107.383 122.37 104.009 125.245 100.233C125.646 99.717 126.031 99.1847 126.416 98.6605C127.129 97.6941 127.833 96.6949 128.513 95.6958L128.578 95.5975C128.759 95.3272 128.947 95.057 129.127 94.7785C130.978 92.0103 132.788 89.0538 134.655 85.7368C134.917 85.2864 135.163 84.8441 135.401 84.4019L135.491 84.2381C135.761 83.7631 136.015 83.2799 136.277 82.7966C137.022 81.4289 137.8 79.9466 138.668 78.2431L139.266 77.0555C139.594 76.4249 139.905 75.8025 140.208 75.18C141.281 73.0261 142.313 70.8803 143.337 68.7428L144.197 66.9328C144.762 65.737 145.327 64.5413 145.884 63.3538L146.31 62.4529C147.301 60.3562 148.275 58.276 149.25 56.2367C150.576 53.4767 152.886 49.7176 156.375 47.4981C157.669 46.6709 159.061 46.114 160.503 45.8191C160.896 45.7372 161.289 45.6799 161.657 45.6472C162.01 45.6144 162.395 45.5898 162.788 45.5898C162.992 45.5898 163.205 45.598 163.402 45.6062C164.286 45.6554 165.204 45.811 166.121 46.0567C166.326 46.114 166.539 46.1795 166.752 46.245L166.85 46.2778C167.087 46.3597 167.284 46.4334 167.48 46.5071C167.48 46.5071 167.644 46.5726 167.677 46.589C167.906 46.6791 168.136 46.7774 168.365 46.8839C168.521 46.9494 168.693 47.0313 168.873 47.1214L169.045 47.2032C169.25 47.3015 169.421 47.3916 169.585 47.4899L169.643 47.5063L169.798 47.6045C170.011 47.7192 170.216 47.8502 170.421 47.9731L170.47 48.0059C170.691 48.1451 170.912 48.2843 171.125 48.4317C171.19 48.4727 171.264 48.53 171.346 48.5791H171.354L171.78 48.8904C173.615 50.2089 175.449 51.9206 177.243 53.9763C178.054 54.9018 178.856 55.8682 179.626 56.851L179.749 56.9738L179.806 57.0803C179.806 57.0803 179.995 57.326 180.077 57.4324C185.22 64.0335 189.446 71.4782 193.533 78.6771C197.169 85.0898 200.928 91.7155 205.31 97.6532C207.103 100.086 208.872 102.248 210.731 104.254C220.633 114.958 234.007 122.174 248.389 124.582L252.426 125.253L249.044 127.546C244.687 130.503 239.29 131.879 232.066 131.879C230.707 131.879 229.339 131.83 227.996 131.756C231.886 134.672 243.254 143.189 243.254 143.189L238.79 143.451C237.39 143.533 235.965 143.574 234.556 143.574C220.518 143.574 206.587 139.528 194.769 132.1L200.912 147.415L197.537 146.269C190.527 143.877 183.934 140.183 178.209 135.458L180.658 146.08C181.682 150.519 180.183 152.337 178.733 153.091C178.168 153.386 177.57 153.533 176.948 153.533C174.499 153.533 172.55 151.248 171.6 149.88L162.1 136.228L147.071 155.236C146.178 156.35 144.369 158.635 141.756 158.635Z"
        fill="#508653" />
    <path
        d="M162.781 47.2452C162.953 47.2452 163.125 47.2534 163.297 47.2616C164.099 47.3025 164.894 47.4417 165.68 47.6628C165.909 47.7202 166.13 47.7939 166.351 47.8676C166.548 47.9331 166.736 48.0068 166.933 48.0805C166.966 48.0969 167.007 48.1051 167.039 48.1215C167.252 48.2034 167.457 48.2935 167.67 48.3918C167.858 48.4737 168.047 48.5638 168.235 48.662C168.276 48.6702 168.309 48.6948 168.342 48.7112C168.538 48.8095 168.727 48.9077 168.915 49.0224C168.931 49.0306 168.948 49.0388 168.964 49.0469C169.169 49.1534 169.365 49.2763 169.562 49.3991C169.578 49.4073 169.586 49.4155 169.603 49.4237C169.799 49.5466 170.004 49.6694 170.192 49.8005C170.397 49.9315 170.602 50.0789 170.799 50.2181C170.807 50.2263 170.807 50.2263 170.815 50.2263C172.731 51.6022 174.484 53.3221 175.999 55.0584C176.818 56.0002 177.621 56.9666 178.391 57.9412C178.399 57.9494 178.399 57.9494 178.407 57.9658C178.513 58.1132 178.636 58.2525 178.735 58.3999C188.44 70.8567 194.615 85.9508 203.968 98.6287C205.688 100.971 207.522 103.223 209.504 105.369C219.61 116.294 233.419 123.747 248.095 126.204C243.41 129.382 237.784 130.25 232.035 130.25C228.832 130.25 225.589 129.98 222.452 129.685C227.858 133.731 233.255 137.777 238.66 141.822C237.284 141.904 235.9 141.945 234.524 141.945C219.078 141.945 203.648 136.908 191.216 127.728C193.493 133.395 195.761 139.062 198.038 144.73C189.586 141.847 181.789 137.039 175.418 130.774C176.622 135.999 177.826 141.233 179.029 146.458C179.464 148.317 179.644 150.766 177.948 151.642C177.604 151.822 177.26 151.896 176.916 151.896C175.385 151.896 173.886 150.348 172.912 148.948C169.324 143.796 165.737 138.637 162.15 133.485C156.679 140.397 151.216 147.318 145.746 154.23C144.705 155.549 143.395 156.99 141.741 156.99C141.675 156.99 141.61 156.99 141.544 156.982C140.324 156.892 139.521 156.114 139.071 155.033C138.448 153.542 138.473 151.486 138.948 149.873C139.775 147.089 140.905 143.616 138.768 141.642C134.853 143.976 130.938 146.319 127.023 148.653C125.951 149.283 124.886 149.93 123.813 150.569C121.807 151.765 119.71 152.993 117.384 153.116C117.277 153.124 117.179 153.124 117.073 153.124C114.829 153.124 112.454 151.781 112.052 149.586C111.61 147.154 113.617 145.057 115.173 143.133C116.729 141.216 117.851 138.137 116.008 136.491C105.697 143.149 94.0017 147.662 81.897 149.652C85.9838 145.467 90.0787 141.274 94.1655 137.08C91.9133 137.473 89.6283 137.67 87.3433 137.67C82.3393 137.67 77.3352 136.728 72.6915 134.877C88.5718 129.038 104.894 122.928 117.31 111.438C120.66 108.334 123.715 104.886 126.524 101.2C126.925 100.676 127.326 100.144 127.72 99.6034C128.448 98.6124 129.161 97.605 129.849 96.5813C130.062 96.2701 130.267 95.967 130.471 95.6558C132.445 92.7074 134.304 89.6362 136.057 86.5076C136.327 86.0408 136.589 85.574 136.843 85.1072C136.868 85.0744 136.884 85.0499 136.892 85.0171C137.163 84.5339 137.425 84.0425 137.695 83.5511C138.522 82.0359 139.325 80.4963 140.103 78.9565C140.307 78.5552 140.504 78.1621 140.701 77.769C141.028 77.1384 141.348 76.5077 141.659 75.8689C142.732 73.715 143.764 71.561 144.796 69.4235C145.082 68.8174 145.369 68.2114 145.656 67.6053C146.229 66.3932 146.794 65.1893 147.359 63.9935C148.481 61.6021 149.595 59.227 150.701 56.9093C152.207 53.7726 154.361 50.6686 157.228 48.8422C158.317 48.1542 159.505 47.6465 160.799 47.3926C161.126 47.3271 161.454 47.278 161.773 47.2452C162.117 47.2616 162.453 47.2452 162.781 47.2452ZM162.781 43.9692C162.355 43.9692 161.921 43.9938 161.495 44.0347C161.069 44.0757 160.627 44.1412 160.176 44.2313C158.546 44.5589 156.974 45.1977 155.5 46.1231C151.675 48.5637 149.185 52.5932 147.777 55.5415C146.802 57.5726 145.836 59.6365 144.853 61.725L144.419 62.6422C143.862 63.838 143.289 65.0419 142.715 66.2458C142.445 66.8109 142.175 67.3924 141.896 67.9657L141.847 68.064C140.873 70.1033 139.808 72.2981 138.743 74.4521C138.432 75.0909 138.129 75.697 137.81 76.303L137.588 76.7371C137.457 76.991 137.335 77.2448 137.204 77.4987C136.344 79.194 135.566 80.6682 134.828 82.0196C134.566 82.511 134.304 82.986 134.042 83.461L133.887 83.7313L133.878 83.7558C133.674 84.1408 133.461 84.5175 133.24 84.8942L133.223 84.9188L133.207 84.9434C131.364 88.2193 129.587 91.135 127.752 93.8704C127.548 94.1816 127.343 94.4846 127.138 94.7795C126.467 95.7786 125.77 96.7614 125.082 97.6951C124.698 98.2192 124.313 98.7352 123.928 99.2348C121.102 102.945 118.129 106.254 115.091 109.063C102.961 120.283 86.2868 126.417 71.5695 131.831L63.5352 134.787L71.4876 137.949C76.0658 139.767 80.8896 140.774 85.8527 140.946C83.8216 143.026 81.7905 145.107 79.7594 147.187L79.5629 147.392L72.5933 154.533L82.4376 152.912C92.29 151.29 101.979 148.014 110.848 143.329C109.513 145.156 108.326 147.424 108.825 150.201C109.464 153.747 113.01 156.425 117.064 156.425C117.228 156.425 117.4 156.417 117.564 156.409C120.725 156.237 123.363 154.664 125.484 153.403C126.557 152.764 127.621 152.125 128.694 151.495C131.258 149.963 133.821 148.432 136.385 146.9C136.213 147.58 136.024 148.227 135.893 148.669L135.803 148.956C135.082 151.413 135.172 154.23 136.041 156.31C137.015 158.653 138.94 160.086 141.299 160.258C141.454 160.266 141.593 160.274 141.733 160.274C145.14 160.274 147.359 157.465 148.301 156.269L156.565 145.819L161.962 138.989L170.201 150.831C171.577 152.813 173.862 155.188 176.892 155.188C177.785 155.188 178.636 154.975 179.439 154.566C181.044 153.739 183.534 151.486 182.199 145.729L180.774 139.546C185.737 143.067 191.208 145.885 196.957 147.842L203.714 150.143L201.06 143.518L198.022 135.942C209.144 141.978 221.781 145.229 234.508 145.229C235.949 145.229 237.407 145.188 238.84 145.107L247.767 144.582L240.609 139.218C238.079 137.318 235.548 135.426 233.026 133.534C240.102 133.411 245.491 131.937 249.921 128.931L256.695 124.337L248.627 122.986C234.606 120.643 221.56 113.6 211.904 103.158C210.094 101.2 208.358 99.0874 206.605 96.7041C202.281 90.8401 198.546 84.2554 194.934 77.8837C190.831 70.6438 186.581 63.1582 181.347 56.4343C181.298 56.3688 181.241 56.295 181.192 56.2295L181.102 56.0412L180.848 55.7873C180.07 54.8045 179.267 53.8463 178.464 52.9208C176.589 50.7669 174.656 48.9733 172.723 47.581L171.863 46.9667H171.822C171.667 46.8684 171.519 46.7702 171.364 46.6719L171.347 46.6637L171.323 46.6473L171.265 46.6146C171.052 46.4835 170.831 46.3525 170.61 46.2296C170.569 46.205 170.512 46.1723 170.455 46.1395C170.25 46.0249 170.037 45.9102 169.832 45.8038L169.726 45.7546L169.693 45.7382C169.668 45.7219 169.636 45.7137 169.603 45.6973C169.414 45.6072 169.226 45.5089 169.013 45.4188C168.792 45.3124 168.546 45.2141 168.284 45.1076L168.227 45.0831L168.063 45.0175C167.842 44.9356 167.621 44.8537 167.408 44.78L167.375 44.7636L167.342 44.7554L167.261 44.7309C167.015 44.649 166.769 44.5753 166.523 44.5098C165.516 44.2313 164.476 44.0593 163.469 44.002C163.264 43.9774 163.018 43.9692 162.781 43.9692Z"
        fill="#301709" />
    <path
        d="M222.468 129.695C227.873 133.741 233.27 137.787 238.676 141.833C221.87 142.824 204.77 137.738 191.223 127.73C193.5 133.397 195.769 139.064 198.046 144.732C189.594 141.849 181.797 137.042 175.425 130.776C176.629 136.001 177.833 141.235 179.037 146.46C179.471 148.319 179.651 150.768 177.956 151.644C176.097 152.611 174.106 150.67 172.919 148.95C169.332 143.798 165.745 138.639 162.157 133.487C156.686 140.399 151.224 147.32 145.753 154.232C144.672 155.6 143.296 157.107 141.551 156.984C140.331 156.894 139.529 156.116 139.078 155.035C145.147 145.248 151.224 135.453 157.293 125.666C157.424 127.533 159.962 128.385 161.666 127.599C163.369 126.82 164.401 125.092 165.417 123.52C166.441 121.947 167.718 120.31 169.553 119.933C172.649 119.302 175.081 122.431 176.719 125.117C178.365 127.811 180.97 130.858 184 130.015C185.884 129.49 187.071 127.525 187.292 125.584C187.513 123.643 186.965 121.702 186.424 119.826C188.619 118.5 191.526 119.581 193.508 121.219C195.482 122.865 197.014 125.051 199.209 126.386C201.412 127.721 204.745 127.811 206.129 125.641C207.726 123.16 205.687 119.998 203.787 117.73C198.209 111.088 193.017 104.118 188.242 96.8945C181.379 86.5261 175.376 75.6007 170.298 64.2495C168.881 61.08 167.497 57.8286 165.564 54.9703C165.253 54.5117 164.934 54.0612 164.582 53.6272C164.18 53.1112 163.754 52.6116 163.296 52.1284C161.273 50.0154 159.324 49.3684 157.235 48.8688C158.324 48.1809 159.512 47.6731 160.806 47.4192C161.134 47.3619 161.453 47.3127 161.781 47.2718C162.108 47.239 162.436 47.2227 162.755 47.2227C162.935 47.2227 163.107 47.2309 163.288 47.2391C163.427 47.2472 163.558 47.2554 163.697 47.2636C163.885 47.2882 164.074 47.3046 164.262 47.3291C164.369 47.3455 164.483 47.3701 164.59 47.3865C164.713 47.411 164.835 47.4274 164.95 47.4601C165.065 47.4847 165.188 47.5175 165.31 47.5421C165.433 47.5666 165.548 47.5994 165.671 47.6322C165.9 47.6895 166.121 47.7632 166.342 47.8369C166.539 47.9024 166.727 47.9761 166.924 48.0498C166.957 48.0662 166.998 48.0744 167.03 48.0908C167.243 48.1727 167.448 48.2628 167.661 48.3611C167.849 48.443 168.038 48.533 168.226 48.6313C168.267 48.6395 168.3 48.6641 168.333 48.6805C168.529 48.7788 168.717 48.877 168.906 48.9917C168.922 48.9998 168.939 49.0081 168.955 49.0163C169.16 49.1227 169.356 49.2456 169.553 49.3684C169.569 49.3766 169.577 49.3848 169.594 49.393C169.79 49.5159 169.995 49.6387 170.184 49.7697C170.388 49.9007 170.593 50.0482 170.79 50.1874C170.798 50.1956 170.798 50.1956 170.806 50.1956C173.443 52.6116 175.916 55.257 178.39 57.9187C178.398 57.9269 178.398 57.9269 178.406 57.9433C178.513 58.0907 178.635 58.2299 178.734 58.3773C188.439 70.8342 194.614 85.9282 203.967 98.6062C205.687 100.949 207.521 103.201 209.503 105.346C219.61 116.272 233.418 123.725 248.094 126.182C240.822 131.153 231.239 130.522 222.468 129.695Z"
        fill="#315431" />
    <path
        d="M165.72 50.5182C165.696 51.501 165.671 52.492 165.63 53.4666C165.614 53.9744 165.598 54.4821 165.573 54.9817C164.893 70.6081 162.428 86.1526 158.276 101.23C154.287 115.702 148.743 129.747 141.74 143.015C141.519 140.984 141.306 138.945 141.085 136.914C136.286 140.681 131.601 144.596 127.039 148.658C125.966 149.289 124.902 149.936 123.829 150.574C121.822 151.77 119.726 152.999 117.4 153.122C115.074 153.253 112.486 151.893 112.068 149.592C111.626 147.159 113.632 145.063 115.189 143.138C116.745 141.222 117.867 138.142 116.024 136.496C105.713 143.154 94.0176 147.667 81.9129 149.657C85.9997 145.472 90.0946 141.279 94.1814 137.086C86.9988 138.347 79.4723 137.585 72.6992 134.891C88.5795 129.051 104.902 122.942 117.318 111.451C120.668 108.347 123.722 104.899 126.532 101.214C126.941 100.69 127.334 100.157 127.727 99.6168C128.456 98.6258 129.169 97.6184 129.857 96.5947C130.07 96.2917 130.274 95.9804 130.479 95.6692C132.453 92.7208 134.312 89.6496 136.065 86.5211C136.335 86.0543 136.597 85.5875 136.851 85.1206C136.875 85.0879 136.892 85.0633 136.9 85.0305C137.17 84.5473 137.441 84.0559 137.703 83.5645C138.53 82.0494 139.332 80.5097 140.11 78.97C140.315 78.5769 140.52 78.1838 140.708 77.7825C141.036 77.1518 141.355 76.5212 141.667 75.8824C142.739 73.7366 143.779 71.5745 144.803 69.4369C145.09 68.8309 145.377 68.2248 145.663 67.6187C146.236 66.4066 146.802 65.2027 147.367 64.007C148.489 61.6156 149.603 59.2405 150.708 56.9227C152.215 53.786 154.369 50.682 157.236 48.8557C158.325 48.1677 159.512 47.6599 160.806 47.406C161.134 47.3405 161.462 47.2914 161.781 47.2586C162.109 47.2259 162.444 47.2095 162.772 47.2095C162.944 47.2095 163.116 47.2177 163.288 47.2259C164.091 47.2668 164.885 47.406 165.671 47.6272C165.737 48.6263 165.745 49.5928 165.72 50.5182Z"
        fill="#ED2C27" />
    <path
        d="M203.985 98.6368C201.905 100.308 198.735 99.898 196.041 99.3574C193.363 98.8169 190.611 98.2436 188.252 96.9086C187.802 96.663 187.368 96.3845 186.958 96.0733C186.196 95.5082 185.492 94.8284 184.608 94.4926C183.723 94.1486 182.568 94.2633 182.028 95.0414C181.323 96.0651 182.069 97.4492 181.979 98.6859C181.872 100.25 180.349 101.446 178.793 101.626C177.237 101.806 175.697 101.176 174.362 100.348C171.594 98.6449 169.399 96.0487 168.179 93.043C167.966 92.5189 167.671 91.8964 167.106 91.8309C166.475 91.7572 166.049 92.4288 165.763 93.0021C164.059 96.3436 161.422 99.2019 158.269 101.233C156.565 102.322 154.706 103.19 152.765 103.747C150.406 104.435 147.204 104.329 146.262 102.052C146.148 101.765 146.074 101.47 146.033 101.167C145.927 100.414 145.976 99.6195 145.861 98.8579C145.689 97.785 144.878 96.622 143.805 96.7858C143.142 96.8841 142.667 97.441 142.249 97.9652C140.398 100.258 138.408 102.445 136.303 104.509C134.78 106.008 132.847 107.539 130.742 107.122C130.415 107.056 130.112 106.966 129.833 106.859C127.008 105.77 127.229 102.633 127.72 99.6359C128.449 98.6449 129.162 97.6376 129.85 96.6138C130.063 96.3026 130.267 95.9996 130.472 95.6884C132.446 92.74 134.305 89.6688 136.058 86.5402C136.328 86.0734 136.59 85.6066 136.844 85.1397C136.868 85.107 136.885 85.0824 136.893 85.0497C137.163 84.5665 137.425 84.0751 137.696 83.5837C138.523 82.0685 139.325 80.5288 140.103 78.9891C140.308 78.5878 140.505 78.1947 140.701 77.8016C141.029 77.171 141.348 76.5403 141.66 75.9015C145.697 72.2243 148.515 67.3021 151.872 62.9369C155.132 58.6945 159.464 54.706 164.575 53.6413C164.919 53.5676 165.263 53.5103 165.615 53.4693C166.09 53.4038 166.573 53.371 167.065 53.3629C170.865 53.3137 174.526 55.009 177.515 57.3677C177.933 57.6953 178.334 58.0393 178.735 58.3997C188.465 70.8647 194.64 85.9588 203.985 98.6368Z"
        fill="#182D18" />
    <path
        d="M113.273 126.145C119.318 127.882 125.444 123.934 130.235 119.864C139.743 111.788 148.523 101.445 149.76 89.0369C149.94 87.2023 149.899 85.1794 148.728 83.7461C145.181 79.4137 142.389 85.7445 141.201 88.095C138.826 92.796 136.189 97.3742 133.314 101.78C127.557 110.609 120.833 118.799 113.273 126.145Z"
        fill="#F9A876" />
    <path
        d="M149.786 97.392L150.154 95.4755C150.785 92.1913 151.088 88.8581 151.088 85.5166L142.538 94.0669C141.588 95.0169 140.539 95.9751 139.131 96.3354C138.893 96.4009 138.59 96.4583 138.279 96.4747C138.197 96.4747 138.115 96.4829 138.042 96.4829C136.829 96.4829 135.666 95.9505 134.774 94.9841C133.684 93.813 133.095 92.0849 133.218 90.4797C133.39 88.2684 134.561 86.4011 135.585 84.7631L135.92 84.2308C136.281 83.6493 136.657 82.9941 136.944 82.3225C131.555 84.9596 125.568 86.3356 119.467 86.3356C117.149 86.3356 114.831 86.1308 112.579 85.7213C111.858 85.5903 110.179 85.2873 109.287 83.8786C108.787 83.0842 108.656 82.1833 108.902 81.2742C109.459 79.2513 111.711 77.9573 112.391 77.6133L112.907 77.3512C120.286 73.5838 127.927 69.6936 134.52 64.6159C141.964 58.8993 147.239 52.1672 149.786 45.1484C150.752 42.4949 151.358 39.7595 152.005 36.8684C152.505 34.6408 153.013 32.3394 153.701 30.0954C155.019 25.7875 158.074 18.3265 163.782 16.7376C164.241 16.6066 164.724 16.5165 165.216 16.4674C165.461 16.4428 165.699 16.4346 165.936 16.4346C169.564 16.4346 172.783 18.998 175.494 24.0594C176.149 25.2797 176.755 26.6065 177.361 28.1216C178.541 31.0782 179.376 34.1658 180.179 37.1469C180.744 39.2517 181.333 41.4302 182.038 43.5104C188.09 61.5119 204.044 75.4921 222.692 79.1284L222.955 79.1776C224.633 79.497 226.533 79.8655 228.04 81.1841C228.802 81.8557 229.367 82.7893 229.621 83.8131C230.031 85.4756 229.564 87.0481 228.376 88.0063C227.287 88.8744 225.936 88.9645 225.125 89.0218C223.683 89.1201 222.217 89.1693 220.768 89.1693C212.455 89.1693 204.085 87.5476 196.386 84.46L197.435 95.2626L194.773 93.9112C189.99 91.487 185.625 88.1701 181.972 84.2062L181.243 90.7008C181.129 91.7164 180.891 93.8294 179.163 94.894C178.59 95.2462 177.984 95.4182 177.337 95.4182C175.06 95.4182 173.225 93.2069 172.341 91.3151C170.711 87.7852 169.45 84.0997 168.582 80.3159C166.567 82.044 165.166 84.7058 163.791 87.2938C163.545 87.7524 163.307 88.2192 163.062 88.6697C159.958 94.3944 156.092 97.4165 151.882 97.4165L149.786 97.392Z"
        fill="#F5A846" />
    <path
        d="M165.919 18.0811C169.538 18.0811 172.217 21.4554 174.035 24.8378C174.772 26.2055 175.362 27.5815 175.82 28.7362C177.794 33.6911 178.769 38.99 180.464 44.0432C186.664 62.4787 203.265 77.024 222.355 80.7504C223.977 81.0616 225.697 81.3483 226.942 82.4375C227.458 82.888 227.843 83.5432 228.006 84.2229C228.236 85.1648 228.064 86.1558 227.318 86.7536C226.68 87.2696 225.803 87.3515 224.992 87.4088C223.584 87.5071 222.167 87.548 220.75 87.548C211.717 87.548 202.691 85.6152 194.469 81.8806C194.813 85.4105 195.157 88.9403 195.492 92.462C189.751 89.5546 184.682 85.345 180.75 80.259C180.366 83.6824 179.981 87.1058 179.596 90.5374C179.465 91.6594 179.252 92.9289 178.285 93.5185C177.966 93.7151 177.647 93.797 177.319 93.797C175.894 93.797 174.502 92.1262 173.805 90.6439C171.897 86.5079 170.505 82.1345 169.678 77.6546C165.673 79.5547 163.715 84.01 161.602 87.9084C159.506 91.774 156.238 95.8035 151.865 95.8035C151.824 95.8035 151.791 95.8035 151.75 95.8035C152.635 91.1762 152.905 86.426 152.569 81.725L141.357 92.937C140.587 93.7069 139.727 94.5177 138.703 94.7798C138.531 94.8289 138.351 94.8535 138.171 94.8698C138.122 94.8698 138.073 94.878 138.024 94.878C136.066 94.878 134.682 92.6258 134.838 90.6439C135.002 88.6209 136.23 86.8601 137.303 85.1239C138.376 83.3958 139.359 81.3892 138.949 79.3991C133.093 82.8962 126.271 84.7307 119.449 84.7307C117.238 84.7307 115.026 84.5342 112.848 84.1493C112.021 84.0018 111.103 83.7643 110.653 83.0436C109.719 81.5612 111.562 79.9069 113.118 79.1042C120.841 75.1649 128.63 71.2255 135.501 65.9512C142.381 60.6687 148.351 53.8957 151.308 45.7385C153.085 40.8409 153.716 35.5994 155.247 30.6036C156.533 26.4021 159.35 19.6946 164.207 18.3432C164.575 18.2368 164.96 18.163 165.353 18.1303C165.542 18.0893 165.73 18.0811 165.919 18.0811ZM165.919 14.8052C165.632 14.8052 165.337 14.8215 165.05 14.8461C164.453 14.9034 163.871 15.0099 163.314 15.1737C157.196 16.8772 153.847 23.9779 152.119 29.629C151.414 31.9385 150.89 34.2726 150.39 36.5249C149.76 39.3668 149.162 42.0449 148.237 44.6001C145.796 51.324 140.71 57.8023 133.519 63.3304C127.041 68.3099 119.482 72.1674 112.168 75.902L111.644 76.1722C110.579 76.721 108.032 78.2607 107.32 80.8569C106.951 82.2 107.156 83.5923 107.893 84.7717C109.171 86.7946 111.431 87.2041 112.283 87.3597C114.633 87.7856 117.049 87.9985 119.465 87.9985C124.158 87.9985 128.777 87.2123 133.134 85.7053C132.389 87.0567 131.734 88.6046 131.595 90.3818C131.431 92.462 132.176 94.6077 133.577 96.1311C134.78 97.4333 136.369 98.154 138.04 98.154C138.147 98.154 138.261 98.154 138.376 98.1458C138.802 98.1212 139.211 98.0557 139.588 97.9493C141.373 97.4742 142.643 96.3112 143.691 95.2629L149.293 89.6611C149.146 91.5202 148.9 93.3711 148.548 95.2057L147.819 99.0303L151.709 99.0959H151.881C156.729 99.0959 161.095 95.7707 164.502 89.4891C164.747 89.0304 164.993 88.5636 165.239 88.0968C166.066 86.5407 166.86 85.0256 167.761 83.7316C168.58 86.5735 169.612 89.3499 170.849 92.028C171.987 94.4767 174.289 97.0893 177.335 97.0893C178.269 97.0893 179.194 96.8273 180.005 96.3277C182.413 94.8453 182.724 92.0935 182.864 90.9223L183.207 87.8265C186.434 90.8486 190.087 93.4202 194.018 95.4104L199.333 98.1049L198.76 92.1754L198.261 86.9911V86.9666C205.443 89.5219 213.125 90.8568 220.758 90.8568C222.241 90.8568 223.748 90.8076 225.222 90.7093C226.155 90.6438 227.9 90.5292 229.382 89.3416C231.069 87.9821 231.757 85.7381 231.2 83.4695C230.873 82.1263 230.128 80.8979 229.112 80.0052C227.277 78.3999 225.05 77.9658 223.256 77.6219L222.994 77.5727C204.919 74.0429 189.448 60.4886 183.584 43.0441C182.904 41.013 182.348 38.9573 181.758 36.7787C180.939 33.7485 180.095 30.6117 178.875 27.5651C178.261 26.0172 177.606 24.5922 176.934 23.3309C173.896 17.6553 170.194 14.8052 165.919 14.8052Z"
        fill="#301709" />
    <path
        d="M227.325 86.7446C226.687 87.2606 225.81 87.3425 225 87.3998C214.574 88.1041 203.984 86.1877 194.476 81.8798C194.82 85.4096 195.164 88.9395 195.499 92.4612C189.758 89.5537 184.689 85.3441 180.758 80.2582C180.373 83.6816 179.988 87.105 179.603 90.5365C179.48 91.6586 179.259 92.928 178.292 93.5177C176.573 94.566 174.664 92.4694 173.821 90.643C171.912 86.5071 170.52 82.1336 169.693 77.6538C165.688 79.5538 163.731 84.0092 161.618 87.9076C159.505 91.806 156.196 95.8682 151.765 95.8027C152.65 91.1753 152.928 86.4252 152.584 81.7242L141.372 92.9362C140.602 93.706 139.742 94.5168 138.719 94.7789C142.175 89.3899 145.631 84.001 149.079 78.612C150.643 76.1714 152.511 73.5179 155.361 72.9692C157.637 72.5269 160.16 74.6153 160.176 76.63C161.323 73.6489 163.149 70.8316 166.073 69.7014C169.251 68.4811 173.624 70.7005 173.681 73.9192C173.862 71.4786 174.042 69.0462 174.222 66.6138C177.408 70.6596 182.035 73.5424 187.072 74.6153C177.203 61.0856 170.274 45.4101 166.933 28.9975C166.196 25.3939 165.623 21.7166 164.214 18.3342C164.583 18.2277 164.967 18.154 165.361 18.1212C170.774 17.6053 174.165 24.6077 175.827 28.7518C177.801 33.7067 178.776 39.0056 180.471 44.0587C186.671 62.4943 203.272 77.0396 222.362 80.766C223.984 81.0772 225.704 81.3638 226.949 82.4531C228.185 83.5096 228.611 85.7127 227.325 86.7446Z"
        fill="#7D9452" />
    <path
        d="M144.954 68.4433C147.575 65.6096 149.868 61.6293 148.418 58.0503C148.656 58.6318 142.628 63.4721 141.932 64.0781C139.606 66.1174 137.215 68.083 134.766 69.9667C129.983 73.6521 124.234 76.4613 119.672 80.2941C122.858 81.7847 130.261 78.3859 133.259 76.9772C137.649 74.9052 141.654 72.0141 144.954 68.4433Z"
        fill="#FFDFAC" />
    <path
        d="M228.007 84.2154C226.017 85.0344 223.568 85.1245 221.569 84.8214C216.041 84.0025 210.374 81.783 205.239 79.6536C203.15 78.7855 190.489 74.1664 190.259 71.8978C190.636 75.5587 191.013 79.2359 191.381 82.8968C190.661 83.0197 189.94 83.1343 189.219 83.249C190.161 70.3171 181.054 59.0396 177.147 46.681C174.928 39.6541 174.404 32.2258 174.035 24.8467C174.772 26.2144 175.362 27.5903 175.821 28.7451C177.794 33.7 178.769 38.9989 180.464 44.0521C186.664 62.4876 203.265 77.0329 222.356 80.7593C223.977 81.0705 225.697 81.3571 226.942 82.4464C227.458 82.8805 227.843 83.5356 228.007 84.2154Z"
        fill="#315431" />
    <path
        d="M164.116 258.128C164.362 255.95 164.886 253.526 166.737 252.354C168.874 251.003 171.79 252.043 173.633 253.78C175.475 255.516 176.671 257.834 178.399 259.676C179.349 260.692 180.807 261.601 182.052 260.987C183.338 260.356 183.461 258.595 183.371 257.162C183.108 252.658 182.625 248.161 181.929 243.698C188.317 254.599 193.051 266.466 195.926 278.775C196.106 279.545 196.204 280.528 195.549 280.97C194.73 281.527 193.706 280.683 193.059 279.938C189.931 276.318 186.245 273.181 182.167 270.667C180.553 269.676 178.85 268.767 176.982 268.464C169.562 267.26 171.618 277.309 166.892 276.253C161.594 275.073 163.715 261.732 164.116 258.128Z"
        fill="#C5C86B" />
    <path
        d="M231.838 260.934C230.479 259.346 229.127 257.331 229.709 255.324C230.659 252.073 235.507 252.229 238.358 254.055C241.208 255.881 243.763 258.748 247.154 258.821C243.296 252.818 238.161 247.634 232.191 243.719C243.558 251.016 254.926 258.314 266.293 265.611C260.38 265.644 254.475 265.676 248.562 265.717C245.483 265.734 244.05 268.633 243.787 271.155C239.119 269.296 235.114 264.776 231.838 260.934Z"
        fill="#629063" />
    <path
        d="M175.138 35.6332C174.95 35.6332 174.769 35.5841 174.597 35.5022L164.524 30.2033L154.352 35.5022C154.18 35.5923 154 35.6332 153.811 35.6332C153.467 35.6332 153.148 35.4858 152.927 35.2237C152.706 34.9617 152.616 34.6259 152.673 34.2901L154.598 23.0699L146.416 15.0356C146.097 14.7244 145.99 14.274 146.121 13.8563C146.26 13.4386 146.612 13.1355 147.055 13.07L158.316 11.432L163.426 1.17009C163.623 0.776972 164.016 0.53125 164.458 0.53125C164.901 0.53125 165.294 0.776972 165.49 1.17009L170.527 11.3747L181.87 13.07C182.304 13.1355 182.665 13.4386 182.804 13.8563C182.943 14.274 182.828 14.7244 182.509 15.0356L174.36 22.9798L176.26 34.2901C176.317 34.6259 176.227 34.9698 176.006 35.2237C175.801 35.4858 175.482 35.6332 175.138 35.6332Z"
        fill="#DDAC4A" />
    <path
        d="M164.485 1.04828C164.706 1.04828 164.936 1.16294 165.05 1.40044L170.087 11.6051C170.177 11.7935 170.357 11.9163 170.562 11.9491L181.823 13.587C182.339 13.6608 182.544 14.2914 182.167 14.6517L174.018 22.596C173.871 22.7434 173.805 22.9481 173.838 23.1529L175.763 34.3731C175.828 34.7744 175.509 35.1102 175.148 35.1102C175.05 35.1102 174.952 35.0856 174.853 35.0364L164.78 29.7376C164.69 29.6885 164.591 29.6639 164.485 29.6639C164.387 29.6639 164.288 29.6885 164.19 29.7376L154.117 35.0364C154.018 35.0856 153.92 35.1102 153.822 35.1102C153.453 35.1102 153.134 34.7826 153.207 34.3731L155.132 23.1529C155.165 22.9481 155.099 22.7434 154.952 22.596L146.803 14.6517C146.434 14.2914 146.639 13.6608 147.147 13.587L158.408 11.9491C158.613 11.9163 158.785 11.7935 158.883 11.6051L163.92 1.40044C164.035 1.17113 164.256 1.04828 164.485 1.04828ZM164.485 0C163.838 0 163.265 0.360318 162.978 0.933613L158.04 10.9417L147 12.5469C146.361 12.637 145.845 13.0793 145.648 13.6853C145.452 14.2996 145.615 14.9548 146.074 15.4052L154.067 23.1938L152.184 34.1929C152.102 34.6843 152.233 35.1757 152.552 35.5524C152.872 35.9373 153.339 36.1503 153.838 36.1503C154.108 36.1503 154.379 36.0848 154.616 35.9537L164.493 30.7613L174.37 35.9537C174.616 36.0848 174.878 36.1503 175.148 36.1503C175.64 36.1503 176.115 35.9292 176.434 35.5524C176.754 35.1757 176.885 34.6761 176.803 34.1929L174.919 23.1938L182.912 15.4052C183.371 14.9548 183.535 14.2996 183.338 13.6853C183.142 13.0711 182.617 12.637 181.987 12.5469L170.947 10.9417L166.008 0.933613C165.705 0.360318 165.124 0 164.485 0Z"
        fill="#301709" />
    <path
        d="M165.285 8.47657C165.097 9.88523 164.892 11.3103 165.097 12.7107C165.302 14.1112 165.998 15.5199 167.226 16.2324C168.455 16.9449 170.248 16.732 171.026 15.5527C171.411 16.388 170.912 17.3954 170.199 17.9851C169.487 18.5747 168.602 18.8941 167.841 19.4183C167.079 19.9424 166.424 20.8024 166.588 21.7115C166.702 22.383 167.235 22.8908 167.71 23.3822C169.749 25.4625 171.346 27.9686 172.37 30.6958C173.23 27.7147 171.289 24.2585 172.763 21.5231C173.483 20.18 174.876 19.3609 176.129 18.4846C177.382 17.6083 178.643 16.4863 178.856 14.9794C177.054 15.1268 175.228 15.2742 173.459 14.9384C171.682 14.6026 169.937 13.7181 168.963 12.1948C167.865 10.4913 167.865 8.3783 167.251 6.49462C167.054 5.88857 166.678 4.701 165.818 5.29068C165.162 5.73293 165.384 7.74767 165.285 8.47657Z"
        fill="#D1541E" />
    <path
        d="M158.439 16.1647C159.307 16.3204 160.241 16.4678 161.052 16.1156C162.288 15.5833 162.796 14.1254 163.066 12.8068C163.607 10.1861 163.73 7.4752 163.443 4.81348C162.567 6.64802 161.69 8.48259 160.814 10.3171C160.241 11.5129 159.602 12.7823 158.447 13.4293C157.653 13.8715 156.719 13.9616 155.81 14.0435C154.827 14.1336 151.936 13.8716 151.453 14.8707C153.591 15.6324 156.195 15.7634 158.439 16.1647Z"
        fill="#FFDBCF" />
    <path
        d="M157.649 96.8755L159.352 100.323L163.169 100.88L160.409 103.567L161.056 107.367L157.649 105.573L154.242 107.367L154.889 103.567L152.129 100.88L155.945 100.323L157.649 96.8755Z"
        fill="#DDAC4A" stroke="#301709" stroke-width="1.24253" stroke-miterlimit="10" />
    <path
        d="M196.582 117.166L198.286 120.622L202.102 121.17L199.342 123.865L199.989 127.657L196.582 125.863L193.175 127.657L193.822 123.865L191.062 121.17L194.879 120.622L196.582 117.166Z"
        fill="#DDAC4A" stroke="#301709" stroke-width="1.24253" stroke-miterlimit="10" />
    <path
        d="M153.184 136.883L154.887 140.339L158.704 140.896L155.944 143.583L156.599 147.383L153.184 145.589L149.777 147.383L150.424 143.583L147.672 140.896L151.48 140.339L153.184 136.883Z"
        fill="#DDAC4A" stroke="#301709" stroke-width="1.24253" stroke-miterlimit="10" />
    <path
        d="M90.8169 126.311L92.5203 129.759L96.3369 130.316L93.5769 133.002L94.232 136.802L90.8169 135.009L87.4098 136.802L88.0569 133.002L85.2969 130.316L89.1133 129.759L90.8169 126.311Z"
        fill="#DDAC4A" stroke="#301709" stroke-width="1.24253" stroke-miterlimit="10" />
    <path
        d="M123.325 168.769L125.028 172.225L128.836 172.773L126.076 175.468L126.732 179.26L123.325 177.466L119.91 179.26L120.565 175.468L117.805 172.773L121.613 172.225L123.325 168.769Z"
        fill="#DDAC4A" stroke="#301709" stroke-width="1.24253" stroke-miterlimit="10" />
    <path
        d="M174.036 182.289L175.739 185.745L179.547 186.302L176.787 188.988L177.443 192.788L174.036 190.994L170.62 192.788L171.276 188.988L168.516 186.302L172.324 185.745L174.036 182.289Z"
        fill="#DDAC4A" stroke="#301709" stroke-width="1.24253" stroke-miterlimit="10" />
    <path
        d="M225.696 181.242L227.399 184.69L231.208 185.247L228.456 187.933L229.103 191.733L225.696 189.939L222.281 191.733L222.936 187.933L220.176 185.247L223.984 184.69L225.696 181.242Z"
        fill="#DDAC4A" stroke="#301709" stroke-width="1.24253" stroke-miterlimit="10" />
    <path
        d="M81.2271 189.652L82.9306 193.108L86.7471 193.665L83.9871 196.351L84.6341 200.151L81.2271 198.358L77.8201 200.151L78.467 196.351L75.707 193.665L79.5236 193.108L81.2271 189.652Z"
        fill="#DDAC4A" stroke="#301709" stroke-width="1.24253" stroke-miterlimit="10" />
    <path
        d="M101.426 239.25L103.13 242.706L106.946 243.255L104.186 245.949L104.833 249.741L101.426 247.956L98.0111 249.741L98.6662 245.949L95.9062 243.255L99.7228 242.706L101.426 239.25Z"
        fill="#DDAC4A" stroke="#301709" stroke-width="1.24253" stroke-miterlimit="10" />
    <path
        d="M160.415 236.807L162.118 240.263L165.935 240.82L163.175 243.506L163.822 247.307L160.415 245.513L157.007 247.307L157.655 243.506L154.895 240.82L158.711 240.263L160.415 236.807Z"
        fill="#DDAC4A" stroke="#301709" stroke-width="1.24253" stroke-miterlimit="10" />
    <path
        d="M222.781 278.207L224.493 281.663L228.301 282.22L225.541 284.906L226.196 288.706L222.781 286.912L219.374 288.706L220.03 284.906L217.27 282.22L221.078 281.663L222.781 278.207Z"
        fill="#DDAC4A" stroke="#301709" stroke-width="1.24253" stroke-miterlimit="10" />
    <path
        d="M56.5278 262.42L58.2313 265.877L62.0478 266.425L59.2878 269.12L59.9348 272.912L56.5278 271.126L53.1126 272.912L53.7678 269.12L51.0078 266.425L54.8242 265.877L56.5278 262.42Z"
        fill="#DDAC4A" stroke="#301709" stroke-width="1.24253" stroke-miterlimit="10" />
    <path
        d="M99.9262 280.263L101.63 283.719L105.438 284.276L102.686 286.963L103.333 290.763L99.9262 288.969L96.511 290.763L97.1662 286.963L94.4062 284.276L98.2146 283.719L99.9262 280.263Z"
        fill="#DDAC4A" stroke="#301709" stroke-width="1.24253" stroke-miterlimit="10" />
    <path
        d="M167.738 283.457L169.45 286.913L173.258 287.47L170.498 290.156L171.154 293.957L167.738 292.163L164.331 293.957L164.987 290.156L162.227 287.47L166.035 286.913L167.738 283.457Z"
        fill="#DDAC4A" stroke="#301709" stroke-width="1.24253" stroke-miterlimit="10" />
    <path
        d="M239.504 272.911L241.208 276.367L245.024 276.924L242.264 279.61L242.911 283.41L239.504 281.617L236.097 283.41L236.744 279.61L233.984 276.924L237.801 276.367L239.504 272.911Z"
        fill="#DDAC4A" stroke="#301709" stroke-width="1.24253" stroke-miterlimit="10" />
    <path
        d="M223.797 236.807L225.501 240.263L229.317 240.82L226.557 243.506L227.204 247.307L223.797 245.513L220.39 247.307L221.037 243.506L218.277 240.82L222.094 240.263L223.797 236.807Z"
        fill="#DDAC4A" stroke="#301709" stroke-width="1.24253" stroke-miterlimit="10" />
    <path
        d="M169.254 59.9302L170.957 63.3781L174.774 63.935L172.014 66.6213L172.669 70.4215L169.254 68.6279L165.847 70.4215L166.494 66.6213L163.742 63.935L167.55 63.3781L169.254 59.9302Z"
        fill="#DDAC4A" stroke="#301709" stroke-width="1.24253" stroke-miterlimit="10" />
    <path
        d="M212.954 75.77L214.657 79.2262L218.474 79.7831L215.714 82.4694L216.361 86.2695L212.954 84.4759L209.547 86.2695L210.194 82.4694L207.434 79.7831L211.25 79.2262L212.954 75.77Z"
        fill="#DDAC4A" stroke="#301709" stroke-width="1.24253" stroke-miterlimit="10" />
    <path
        d="M125.2 67.5068L126.903 70.9548L130.711 71.5117L127.96 74.2062L128.607 77.9981L125.2 76.2045L121.784 77.9981L122.44 74.2062L119.68 71.5117L123.496 70.9548L125.2 67.5068Z"
        fill="#DDAC4A" stroke="#301709" stroke-width="1.24253" stroke-miterlimit="10" />
    <path
        d="M148.87 51.0298C148.87 51.0298 98.5842 29.1053 105.439 43.0527C112.294 57.0002 161.679 74.7559 203.988 90.8164C246.298 106.877 225.536 132.945 191.065 140.161C156.593 147.376 60.7223 149.645 81.2298 169.259C101.737 188.874 260.188 214.926 251.367 230.176C242.555 245.434 48.0524 222.936 53.5479 242.043C59.0433 261.15 160.443 291.428 239.508 286.646"
        stroke="#DDAC4A" stroke-width="3.72758" stroke-miterlimit="10" />
    <path
        d="M143.178 55.4585C131.802 56.0973 120.533 58.669 110.009 63.0506C105.488 64.9261 100.713 67.555 99.0507 72.1578C96.8476 78.2592 101.475 85.1142 107.413 87.7022C113.359 90.2984 120.132 89.7579 126.593 89.1682C151.753 86.8832 176.912 84.5982 202.072 82.3132C205.217 82.0266 208.46 81.7563 211.457 82.7309C214.455 83.7055 217.174 86.2771 217.305 89.4303C217.477 93.6399 213.316 96.6211 209.508 98.431C183.104 110.953 151.704 106.94 124.005 116.26C115.349 119.176 105.922 125.163 105.775 134.295C105.693 139.159 108.486 143.746 112.237 146.85C115.988 149.946 120.631 151.764 125.275 153.23C162.957 165.13 204.25 156.899 242.89 165.171C247.796 166.219 253.423 168.258 254.782 173.09C255.675 176.293 254.25 179.79 251.94 182.189C249.631 184.581 246.568 186.08 243.537 187.455C217.665 199.175 189.32 205.408 160.909 205.621C137.126 205.801 111.598 202.205 91.0246 214.138C88.5021 215.604 85.8404 217.734 85.7749 220.649C85.6766 224.859 90.7052 227.013 94.8166 227.93C147.658 239.724 202.555 235.366 256.674 237.168C261.26 237.324 267.083 238.528 267.902 243.04C268.435 245.964 266.256 248.839 263.562 250.108C260.867 251.378 257.788 251.411 254.815 251.419"
        stroke="#DDAC4A" stroke-width="3.72758" stroke-miterlimit="10" />
</svg>
