<svg width="256" height="241" viewBox="0 0 256 241" fill="none" xmlns="http://www.w3.org/2000/svg">
    <g clip-path="url(#clip0_2397_56645)">
        <path
            d="M139.211 13.5899C139.211 13.5899 139.211 10.2155 138.091 9.66327C137.094 9.66327 127.186 8.78897 120.268 19.3112C116.97 13.2678 113.32 7.54655 110.758 3.51252C109.961 2.25476 108.749 1.31911 107.322 0.920308C98.9322 -1.44183 91.4624 1.16572 86.7995 4.12606C84.3453 5.69059 84.7287 9.46387 87.4437 10.4915C107 17.9001 116.771 49.252 116.771 49.252C116.771 49.252 126.572 54.7279 128.091 43.408C128.658 39.2666 127.063 33.7448 124.548 27.9928C125.268 24.0355 128.183 14.0501 139.196 13.5899H139.211Z"
            fill="#5B4113" />
        <path
            d="M85.3453 56.8142C85.3453 56.8142 129.121 19.7716 171.21 58.5014C171.21 58.5014 199.832 36.6133 233.515 71.9687C267.184 107.324 267.184 218.452 204.894 233.606C204.894 233.606 186.38 235.293 174.585 230.232C174.585 230.232 129.121 252.12 87.0326 231.919C87.0326 231.919 55.0364 242.027 34.8355 225.185C14.6347 208.343 -12.3151 157.834 6.21386 92.1695C21.8438 36.7361 85.3453 56.8142 85.3453 56.8142Z"
            fill="#FF9D1D" />
        <path
            d="M174.571 230.23C186.351 235.277 204.88 233.605 204.88 233.605C226.093 228.451 240.082 212.146 247.981 191.5C244.1 194.614 239.223 196.9 233.133 197.314C210.678 198.817 204.696 161.391 188.989 158.4C173.267 155.409 176.274 174.122 150.827 180.104C125.38 186.086 98.4458 153.906 74.5024 154.657C50.5589 155.409 50.5589 184.583 27.3517 183.095C15.1269 182.313 7.27362 172.174 2.47266 162.434C8.16325 192.82 22.7042 215.076 34.8369 225.184C55.0378 242.025 87.034 231.917 87.034 231.917C129.123 252.118 174.586 230.23 174.586 230.23H174.571Z"
            fill="#FF871D" />
        <path
            d="M85.1775 58.1896C82.662 62.5918 80.5759 67.5615 78.7966 72.4851L77.4775 76.2277L76.3271 80.0317C75.5142 82.5472 74.916 85.1241 74.2718 87.7009C71.7869 98.0084 70.3758 108.561 69.6702 119.16C69.4862 124.467 69.1794 129.79 69.4095 135.097L69.4862 139.085C69.4862 140.419 69.5322 141.739 69.6549 143.073L70.2531 151.034C70.3911 153.703 70.7593 156.341 71.112 158.979L72.1551 166.909C73.014 172.17 74.1031 177.385 75.054 182.631V182.677C75.1461 183.091 74.87 183.49 74.4405 183.567C74.0264 183.643 73.6276 183.367 73.5509 182.969C72.5079 177.707 71.3268 172.477 70.3758 167.185L69.2101 159.224C68.8113 156.571 68.3971 153.917 68.2131 151.233L67.4922 143.211C67.3388 141.877 67.2928 140.527 67.2621 139.192L67.124 135.158C66.8173 129.79 67.032 124.406 67.124 119.022C67.6762 108.27 68.934 97.5329 71.2961 86.9954C71.9096 84.3725 72.4772 81.7189 73.2748 79.142L74.3792 75.2461L75.6676 71.3961C77.4622 66.2577 79.4102 61.2727 82.1251 56.349C82.6006 55.49 83.6743 55.1833 84.5333 55.6588C85.3922 56.1343 85.699 57.208 85.2235 58.0669C85.2235 58.0669 85.2235 58.0669 85.2235 58.0822L85.1621 58.205L85.1775 58.1896Z"
            fill="#D96113" />
        <path
            d="M173.68 56.1096C176.088 62.3063 177.76 68.4878 179.279 74.8072L180.368 79.5315L181.288 84.2864C181.963 87.4462 182.393 90.6519 182.899 93.827C184.801 106.589 185.721 119.458 185.997 132.342C185.997 138.784 186.074 145.211 185.69 151.638C185.522 154.844 185.506 158.065 185.2 161.271L184.387 170.888C184.233 172.483 184.156 174.094 183.942 175.689L183.328 180.474L182.101 190.046C181.135 196.396 179.954 202.715 178.895 209.05C178.834 209.433 178.466 209.694 178.082 209.633C177.699 209.572 177.438 209.203 177.5 208.82V208.789C178.481 202.454 179.57 196.15 180.429 189.816L181.518 180.275L182.055 175.505C182.239 173.909 182.301 172.314 182.423 170.719L183.098 161.148C183.359 157.957 183.328 154.752 183.451 151.561C183.742 145.165 183.558 138.784 183.482 132.388C183.021 119.626 181.948 106.88 179.892 94.2872C179.34 91.1428 178.865 87.9984 178.159 84.8846L177.177 80.2064L176.042 75.5742C174.493 69.4388 172.699 63.242 170.382 57.5054L170.336 57.4133C169.968 56.5084 170.413 55.4654 171.318 55.0972C172.223 54.7291 173.266 55.1739 173.634 56.0789V56.0942L173.68 56.1096Z"
            fill="#D96113" />
        <path
            d="M37.0743 65.2311C34.1293 68.0227 29.2976 69.0197 26.414 72.6089C22.5794 77.3792 20.5853 84.619 20.2326 90.5089C19.8491 96.8898 18.7907 105.556 27.5337 104.513C33.8225 103.761 35.9545 95.3252 38.332 89.9568C39.8505 86.5209 40.8322 83.0391 42.8109 79.818C44.8509 76.4895 49.3758 73.5292 50.6182 70.0474C53.5478 61.8259 35.8932 60.9056 37.0743 65.2311Z"
            fill="#FFB652" />
        <path
            d="M18.8363 113.488C20.2168 109.208 26.5822 110.236 28.1161 113.764C29.65 117.276 27.3645 121.065 23.8827 121.602C20.999 122.047 19.5725 121.632 18.5909 118.948C18.0234 117.414 17.2411 113.779 18.8363 112.644"
            fill="#FFB652" />
        <path
            d="M101.049 56.2455C94.1931 65.8321 89.7143 74.9279 87.5055 86.5085C86.6466 91.018 83.1954 107.507 92.782 102.982C99.0861 100.006 99.4235 85.5728 101.832 79.8055C103.672 75.3727 106.219 70.8785 108.933 66.9978C110.851 64.2676 114.455 62.2736 114.532 58.5003C114.624 54.4049 111.74 52.9017 107.783 52.8711C102.307 52.8404 99.8837 56.0615 101.049 56.2455Z"
            fill="#FFB652" />
        <path
            d="M188.053 66.9086C190.522 70.2371 191.55 77.4922 194.894 79.701C199.419 82.692 202.21 78.9034 202.072 74.7926C201.75 64.976 185.568 58.2117 188.038 70.8353"
            fill="#FFB652" />
        <path
            d="M209.373 71.9667C213.545 78.2248 219.113 83.6086 223.73 89.652C227.028 93.9621 231.63 108.426 237.121 109.086C249.882 110.589 227.626 81.3692 224.865 77.8874C221.153 73.2091 216.905 64.1287 209.45 65.8773C209.205 69.5892 209.297 72.3962 209.358 71.9667H209.373Z"
            fill="#FFB652" />
    </g>
    <defs>
        <clipPath id="clip0_2397_56645">
            <rect width="256" height="240.477" fill="white" />
        </clipPath>
    </defs>
</svg>
