<svg width="676" height="601" viewBox="0 0 676 601" fill="none" xmlns="http://www.w3.org/2000/svg">
<path d="M240.157 432.246C240.157 432.246 286.118 523.754 396.004 463.619C396.004 463.619 366.669 390.776 240.157 432.246Z" fill="#BBA652"/>
<path d="M304.497 316.113C304.497 316.113 394.986 372.617 367.307 468.138C367.307 468.138 263.409 429.917 304.497 316.113Z" fill="#A2923F"/>
<path d="M377.53 457.467L281.69 441.828" stroke="#6D5B26" stroke-width="3.1851" stroke-linecap="round" stroke-linejoin="round"/>
<path d="M338.416 467.058L357.144 454.158" stroke="#6D5B26" stroke-width="3.1851" stroke-linecap="round" stroke-linejoin="round"/>
<path d="M312.683 461.672L326.92 449.219" stroke="#6D5B26" stroke-width="3.1851" stroke-linecap="round" stroke-linejoin="round"/>
<path d="M343.514 451.921L336.443 439.436" stroke="#6D5B26" stroke-width="3.1851" stroke-linecap="round" stroke-linejoin="round"/>
<path d="M289.876 456.891L302.107 446.094" stroke="#6D5B26" stroke-width="3.1851" stroke-linecap="round" stroke-linejoin="round"/>
<path d="M310.61 446.54L303.762 438.131" stroke="#6D5B26" stroke-width="3.1851" stroke-linecap="round" stroke-linejoin="round"/>
<path d="M369.762 449.756L319.565 366.625" stroke="#6D5B26" stroke-width="3.1851" stroke-linecap="round" stroke-linejoin="round"/>
<path d="M337.113 426.219L359.09 432.111" stroke="#6D5B26" stroke-width="3.1851" stroke-linecap="round" stroke-linejoin="round"/>
<path d="M324.532 403.133L343.229 405.872" stroke="#6D5B26" stroke-width="3.1851" stroke-linecap="round" stroke-linejoin="round"/>
<path d="M351.956 420.258L356.861 406.785" stroke="#6D5B26" stroke-width="3.1851" stroke-linecap="round" stroke-linejoin="round"/>
<path d="M313.384 382.652L329.532 384.977" stroke="#6D5B26" stroke-width="3.1851" stroke-linecap="round" stroke-linejoin="round"/>
<path d="M334.724 391.729L336.699 381.059" stroke="#6D5B26" stroke-width="3.1851" stroke-linecap="round" stroke-linejoin="round"/>
<path d="M674.318 196.35C674.318 196.35 506.336 227.755 483.817 438.13C483.817 438.13 692.441 475.3 674.318 196.35Z" fill="#BBA652"/>
<path d="M534.968 412.71L654.346 244.027" stroke="#6D5B26" stroke-width="3.1851" stroke-linecap="round" stroke-linejoin="round"/>
<path d="M553.124 329.008L560.322 376.88" stroke="#6D5B26" stroke-width="3.1851" stroke-linecap="round" stroke-linejoin="round"/>
<path d="M587.426 284.801L598.001 323.627" stroke="#6D5B26" stroke-width="3.1851" stroke-linecap="round" stroke-linejoin="round"/>
<path d="M577.299 352.858L607.78 350.979" stroke="#6D5B26" stroke-width="3.1851" stroke-linecap="round" stroke-linejoin="round"/>
<path d="M617.843 245.621L627.111 279.096" stroke="#6D5B26" stroke-width="3.1851" stroke-linecap="round" stroke-linejoin="round"/>
<path d="M618.321 294.93L640.808 289.738" stroke="#6D5B26" stroke-width="3.1851" stroke-linecap="round" stroke-linejoin="round"/>
<path d="M609.47 598.375C609.47 598.375 611.508 486.482 494.583 480.494C494.583 480.494 501.559 591.336 609.47 598.375Z" fill="#BBA652"/>
<path d="M507.579 495.111L575.836 564.196" stroke="#6D5B26" stroke-width="3.1851" stroke-linecap="round" stroke-linejoin="round"/>
<path d="M544.843 510.405L522.101 509.768" stroke="#6D5B26" stroke-width="3.1851" stroke-linecap="round" stroke-linejoin="round"/>
<path d="M562.459 529.898L543.635 531.587" stroke="#6D5B26" stroke-width="3.1851" stroke-linecap="round" stroke-linejoin="round"/>
<path d="M531.786 519.611L530.161 533.881" stroke="#6D5B26" stroke-width="3.1851" stroke-linecap="round" stroke-linejoin="round"/>
<path d="M578.098 547.191L561.822 548.72" stroke="#6D5B26" stroke-width="3.1851" stroke-linecap="round" stroke-linejoin="round"/>
<path d="M555.229 543.338L555.802 554.167" stroke="#6D5B26" stroke-width="3.1851" stroke-linecap="round" stroke-linejoin="round"/>
<path d="M498.947 166.027C498.947 166.027 604.087 294.45 483.818 438.162C483.818 438.162 401.77 353.757 498.947 166.027Z" fill="#A2923F"/>
<path d="M488.31 386.049L504.267 231.285" stroke="#6D5B26" stroke-width="3.1851" stroke-linecap="round" stroke-linejoin="round"/>
<path d="M469.678 324.512L491.687 353.146" stroke="#6D5B26" stroke-width="3.1851" stroke-linecap="round" stroke-linejoin="round"/>
<path d="M475.825 282.82L496.751 304.288" stroke="#6D5B26" stroke-width="3.1851" stroke-linecap="round" stroke-linejoin="round"/>
<path d="M493.98 331.139L512.995 318.59" stroke="#6D5B26" stroke-width="3.1851" stroke-linecap="round" stroke-linejoin="round"/>
<path d="M481.27 245.867L499.393 264.341" stroke="#6D5B26" stroke-width="3.1851" stroke-linecap="round" stroke-linejoin="round"/>
<path d="M499.458 277.974L512.103 266.221" stroke="#6D5B26" stroke-width="3.1851" stroke-linecap="round" stroke-linejoin="round"/>
<path d="M506.527 372.523C506.527 372.523 552.679 362.968 566.662 404.119C566.662 404.119 581.059 439.983 536.818 459.062C536.818 459.062 562.107 502.475 526.848 528.943C526.848 528.943 496.208 547.767 474.103 524.643C474.103 524.643 458.942 563.406 409.222 551.366C409.222 551.366 379.06 528.879 391.482 507.221C391.482 507.221 336.921 505.437 334.755 466.579C332.589 427.721 376.416 413.961 376.416 413.961C376.416 413.961 310.962 365.93 358.261 325.766C358.261 325.766 405.146 290.921 437.22 338.888C437.22 338.888 462.573 306.209 492.003 321.307C521.465 336.436 506.495 372.555 506.495 372.555L506.527 372.523Z" fill="white"/>
<path d="M493.15 429.728C493.15 429.728 526.275 432.34 523.09 456.1C519.873 479.861 487.034 466.866 487.034 466.866C487.034 466.866 494.647 502.507 469.421 505.66C444.195 508.846 447.762 481.294 447.762 481.294C447.762 481.294 432.633 509.897 411.579 490.181C390.526 470.497 416.421 457.852 416.421 457.852C416.421 457.852 377.212 473.523 372.307 440.876C372.307 440.876 369.25 417.529 403.298 419.758C403.298 419.758 377.276 405.712 394.093 388.608C410.911 371.536 428.078 389.595 428.078 389.595C428.078 389.595 420.784 358.987 446.138 357.681C471.491 356.375 471.173 380.9 467.924 404.024C467.924 404.024 493.755 365.93 513.662 387.621C533.569 409.279 493.118 429.76 493.118 429.76L493.15 429.728Z" fill="#F5E1A6"/>
<path d="M443.463 442.941C436.934 437.208 436.297 427.239 442.03 420.741C447.763 414.212 457.732 413.575 464.23 419.34C470.759 425.073 471.396 435.01 465.631 441.54C459.866 448.069 449.961 448.706 443.431 442.973L443.463 442.941Z" fill="#E9BC4E"/>
<path d="M579.976 482.306C579.976 482.306 597.048 496.033 604.31 478.452C611.572 460.87 587.078 458.863 587.078 458.863C587.078 458.863 612.336 443.416 594.404 432.873C576.44 422.298 571.344 443.957 571.344 443.957C567.458 432.204 564.146 427.235 560.069 425.897C555.578 423.477 547.965 421.215 545.226 431.471C545.226 431.535 545.194 431.567 545.162 431.631C545.162 431.631 545.162 431.631 545.162 431.663C543.347 438.67 553.348 450.9 553.348 450.9C553.348 450.9 528.855 448.894 533.823 467.495C538.792 486.064 560.005 472.209 560.005 472.209C560.005 472.209 547.933 493.294 560.674 496.288C573.414 499.282 579.976 482.306 579.976 482.306Z" fill="#E25B37"/>
<path d="M569.338 468.574C565.261 468.223 562.235 464.656 562.553 460.579C562.872 456.502 566.471 453.445 570.548 453.795C574.625 454.113 577.651 457.713 577.332 461.79C577.014 465.866 573.414 468.892 569.338 468.574Z" fill="#F5C642"/>
<path d="M108.884 266.236C108.884 266.236 154.845 357.744 264.731 297.609C264.731 297.609 235.396 224.766 108.884 266.236Z" fill="#BBA652"/>
<path d="M173.224 150.104C173.224 150.104 263.712 206.607 236.034 302.128C236.034 302.128 132.136 263.907 173.224 150.104Z" fill="#A2923F"/>
<path d="M246.257 291.457L150.417 275.818" stroke="#6D5B26" stroke-width="3.1851" stroke-linecap="round" stroke-linejoin="round"/>
<path d="M207.142 301.048L225.87 288.148" stroke="#6D5B26" stroke-width="3.1851" stroke-linecap="round" stroke-linejoin="round"/>
<path d="M181.409 295.663L195.647 283.209" stroke="#6D5B26" stroke-width="3.1851" stroke-linecap="round" stroke-linejoin="round"/>
<path d="M212.24 285.911L205.169 273.426" stroke="#6D5B26" stroke-width="3.1851" stroke-linecap="round" stroke-linejoin="round"/>
<path d="M158.603 290.881L170.834 280.084" stroke="#6D5B26" stroke-width="3.1851" stroke-linecap="round" stroke-linejoin="round"/>
<path d="M179.337 280.53L172.489 272.121" stroke="#6D5B26" stroke-width="3.1851" stroke-linecap="round" stroke-linejoin="round"/>
<path d="M238.488 283.746L188.291 200.615" stroke="#6D5B26" stroke-width="3.1851" stroke-linecap="round" stroke-linejoin="round"/>
<path d="M205.838 260.209L227.816 266.101" stroke="#6D5B26" stroke-width="3.1851" stroke-linecap="round" stroke-linejoin="round"/>
<path d="M193.258 237.123L211.954 239.862" stroke="#6D5B26" stroke-width="3.1851" stroke-linecap="round" stroke-linejoin="round"/>
<path d="M220.682 254.248L225.587 240.775" stroke="#6D5B26" stroke-width="3.1851" stroke-linecap="round" stroke-linejoin="round"/>
<path d="M182.109 216.643L198.258 218.968" stroke="#6D5B26" stroke-width="3.1851" stroke-linecap="round" stroke-linejoin="round"/>
<path d="M203.45 225.719L205.424 215.049" stroke="#6D5B26" stroke-width="3.1851" stroke-linecap="round" stroke-linejoin="round"/>
<path d="M543.045 30.3379C543.045 30.3379 375.063 61.743 352.544 272.119C352.544 272.119 561.168 309.289 543.045 30.3379Z" fill="#BBA652"/>
<path d="M403.697 246.7L523.074 78.0176" stroke="#6D5B26" stroke-width="3.1851" stroke-linecap="round" stroke-linejoin="round"/>
<path d="M421.853 162.998L429.051 210.87" stroke="#6D5B26" stroke-width="3.1851" stroke-linecap="round" stroke-linejoin="round"/>
<path d="M456.155 118.791L466.729 157.617" stroke="#6D5B26" stroke-width="3.1851" stroke-linecap="round" stroke-linejoin="round"/>
<path d="M446.027 186.848L476.509 184.969" stroke="#6D5B26" stroke-width="3.1851" stroke-linecap="round" stroke-linejoin="round"/>
<path d="M486.571 79.6113L495.84 113.087" stroke="#6D5B26" stroke-width="3.1851" stroke-linecap="round" stroke-linejoin="round"/>
<path d="M487.05 128.92L509.537 123.729" stroke="#6D5B26" stroke-width="3.1851" stroke-linecap="round" stroke-linejoin="round"/>
<path d="M478.197 432.363C478.197 432.363 480.235 320.47 363.31 314.482C363.31 314.482 370.285 425.324 478.197 432.363Z" fill="#BBA652"/>
<path d="M376.306 329.102L444.562 398.186" stroke="#6D5B26" stroke-width="3.1851" stroke-linecap="round" stroke-linejoin="round"/>
<path d="M413.569 344.395L390.828 343.758" stroke="#6D5B26" stroke-width="3.1851" stroke-linecap="round" stroke-linejoin="round"/>
<path d="M431.186 363.889L412.362 365.577" stroke="#6D5B26" stroke-width="3.1851" stroke-linecap="round" stroke-linejoin="round"/>
<path d="M400.512 353.602L398.888 367.871" stroke="#6D5B26" stroke-width="3.1851" stroke-linecap="round" stroke-linejoin="round"/>
<path d="M446.824 381.182L430.548 382.711" stroke="#6D5B26" stroke-width="3.1851" stroke-linecap="round" stroke-linejoin="round"/>
<path d="M423.955 377.328L424.528 388.157" stroke="#6D5B26" stroke-width="3.1851" stroke-linecap="round" stroke-linejoin="round"/>
<path d="M367.674 0.0175781C367.674 0.0175781 472.814 128.441 352.545 272.152C352.545 272.152 270.497 187.747 367.674 0.0175781Z" fill="#A2923F"/>
<path d="M357.038 220.039L372.995 65.2754" stroke="#6D5B26" stroke-width="3.1851" stroke-linecap="round" stroke-linejoin="round"/>
<path d="M338.406 158.502L360.415 187.136" stroke="#6D5B26" stroke-width="3.1851" stroke-linecap="round" stroke-linejoin="round"/>
<path d="M344.552 116.811L365.478 138.278" stroke="#6D5B26" stroke-width="3.1851" stroke-linecap="round" stroke-linejoin="round"/>
<path d="M362.708 165.129L381.723 152.58" stroke="#6D5B26" stroke-width="3.1851" stroke-linecap="round" stroke-linejoin="round"/>
<path d="M349.998 79.8574L368.121 98.331" stroke="#6D5B26" stroke-width="3.1851" stroke-linecap="round" stroke-linejoin="round"/>
<path d="M368.186 111.964L380.83 100.211" stroke="#6D5B26" stroke-width="3.1851" stroke-linecap="round" stroke-linejoin="round"/>
<path d="M375.255 206.511C375.255 206.511 421.407 196.956 435.389 238.107C435.389 238.107 449.786 273.972 405.545 293.05C405.545 293.05 430.835 336.463 395.576 362.931C395.576 362.931 364.935 381.755 342.83 358.632C342.83 358.632 327.669 397.394 277.95 385.355C277.95 385.355 247.787 362.868 260.209 341.209C260.209 341.209 205.648 339.425 203.482 300.567C201.317 261.709 245.144 247.949 245.144 247.949C245.144 247.949 179.69 199.918 226.989 159.754C226.989 159.754 273.873 124.909 305.947 172.877C305.947 172.877 331.3 140.198 360.731 155.295C390.193 170.424 375.223 206.543 375.223 206.543L375.255 206.511Z" fill="white"/>
<path d="M361.876 263.718C361.876 263.718 395.001 266.33 391.816 290.091C388.599 313.851 355.761 300.856 355.761 300.856C355.761 300.856 363.373 336.497 338.147 339.651C312.921 342.836 316.488 315.285 316.488 315.285C316.488 315.285 301.359 343.887 280.306 324.171C259.252 304.487 285.147 291.842 285.147 291.842C285.147 291.842 245.938 307.513 241.033 274.866C241.033 274.866 237.976 251.519 272.024 253.749C272.024 253.749 246.002 239.702 262.819 222.598C279.637 205.526 296.804 223.586 296.804 223.586C296.804 223.586 289.51 192.977 314.864 191.671C340.217 190.365 339.899 214.89 336.65 238.014C336.65 238.014 362.481 199.92 382.388 221.611C402.295 243.27 361.844 263.75 361.844 263.75L361.876 263.718Z" fill="#F5E1A6"/>
<path d="M312.19 276.93C305.66 271.196 305.023 261.227 310.756 254.73C316.49 248.2 326.459 247.563 332.957 253.328C339.486 259.061 340.123 268.999 334.358 275.528C328.593 282.058 318.687 282.695 312.158 276.961L312.19 276.93Z" fill="#E9BC4E"/>
<path d="M448.702 316.294C448.702 316.294 465.774 330.022 473.036 312.44C480.298 294.858 455.804 292.852 455.804 292.852C455.804 292.852 481.062 277.404 463.13 266.861C445.166 256.287 440.07 277.945 440.07 277.945C436.184 266.192 432.872 261.223 428.795 259.886C424.304 257.465 416.691 255.204 413.952 265.46C413.952 265.523 413.92 265.555 413.889 265.619C413.889 265.619 413.889 265.619 413.889 265.651C412.073 272.658 422.074 284.889 422.074 284.889C422.074 284.889 397.581 282.882 402.55 301.483C407.518 320.052 428.731 306.197 428.731 306.197C428.731 306.197 416.66 327.282 429.4 330.276C442.14 333.27 448.702 316.294 448.702 316.294Z" fill="#E25B37"/>
<path d="M438.063 302.562C433.986 302.212 430.96 298.644 431.279 294.567C431.597 290.491 435.197 287.433 439.273 287.783C443.35 288.102 446.376 291.701 446.058 295.778C445.739 299.855 442.14 302.881 438.063 302.562Z" fill="#F5C642"/>
<path d="M39.5283 596.878C39.5283 596.878 137.279 627.296 170.308 506.453C170.308 506.453 97.5289 476.991 39.5283 596.878Z" fill="#BBA652"/>
<path d="M0.606934 469.949C0.606934 469.949 104.091 444.054 153.619 530.275C153.619 530.275 53.9892 578.529 0.606934 469.949Z" fill="#A2923F"/>
<path d="M153.047 515.521L75.2671 573.618" stroke="#6D5B26" stroke-width="3.1851" stroke-linecap="round" stroke-linejoin="round"/>
<path d="M132.788 550.307L136.515 527.852" stroke="#6D5B26" stroke-width="3.1851" stroke-linecap="round" stroke-linejoin="round"/>
<path d="M111.068 565.077L111.96 546.189" stroke="#6D5B26" stroke-width="3.1851" stroke-linecap="round" stroke-linejoin="round"/>
<path d="M125.463 536.136L111.544 532.568" stroke="#6D5B26" stroke-width="3.1851" stroke-linecap="round" stroke-linejoin="round"/>
<path d="M91.7988 578.198L92.4996 561.891" stroke="#6D5B26" stroke-width="3.1851" stroke-linecap="round" stroke-linejoin="round"/>
<path d="M98.74 556.104L87.9106 555.148" stroke="#6D5B26" stroke-width="3.1851" stroke-linecap="round" stroke-linejoin="round"/>
<path d="M142.122 515.738L47.4287 494.143" stroke="#6D5B26" stroke-width="3.1851" stroke-linecap="round" stroke-linejoin="round"/>
<path d="M102.499 522.872L121.992 511.15" stroke="#6D5B26" stroke-width="3.1851" stroke-linecap="round" stroke-linejoin="round"/>
<path d="M77.1455 515.901L92.1155 504.371" stroke="#6D5B26" stroke-width="3.1851" stroke-linecap="round" stroke-linejoin="round"/>
<path d="M108.519 508.101L102.244 495.201" stroke="#6D5B26" stroke-width="3.1851" stroke-linecap="round" stroke-linejoin="round"/>
<path d="M54.6919 509.724L67.5597 499.691" stroke="#6D5B26" stroke-width="3.1851" stroke-linecap="round" stroke-linejoin="round"/>
<path d="M76.0008 500.678L69.6943 491.855" stroke="#6D5B26" stroke-width="3.1851" stroke-linecap="round" stroke-linejoin="round"/>
<path d="M171.138 120.604C171.138 120.604 77.146 263.328 212.927 425.577C212.927 425.577 384.508 301.199 171.138 120.604Z" fill="#BBA652"/>
<path d="M230.126 371.114L191.555 168.096" stroke="#6D5B26" stroke-width="3.1851" stroke-linecap="round" stroke-linejoin="round"/>
<path d="M182.479 299.93L221.91 327.99" stroke="#6D5B26" stroke-width="3.1851" stroke-linecap="round" stroke-linejoin="round"/>
<path d="M174.485 244.537L209.744 263.871" stroke="#6D5B26" stroke-width="3.1851" stroke-linecap="round" stroke-linejoin="round"/>
<path d="M216.432 299.066L236.243 275.814" stroke="#6D5B26" stroke-width="3.1851" stroke-linecap="round" stroke-linejoin="round"/>
<path d="M167.38 195.453L197.925 212.016" stroke="#6D5B26" stroke-width="3.1851" stroke-linecap="round" stroke-linejoin="round"/>
<path d="M203.182 229.348L215.062 209.537" stroke="#6D5B26" stroke-width="3.1851" stroke-linecap="round" stroke-linejoin="round"/>
<path d="M415.467 446.381C415.467 446.381 336.317 367.263 250.861 447.241C250.861 447.241 335.489 519.192 415.467 446.381Z" fill="#BBA652"/>
<path d="M270.416 448L367.53 446.854" stroke="#6D5B26" stroke-width="3.1851" stroke-linecap="round" stroke-linejoin="round"/>
<path d="M307.269 431.826L291.057 447.752" stroke="#6D5B26" stroke-width="3.1851" stroke-linecap="round" stroke-linejoin="round"/>
<path d="M333.543 432.66L321.695 447.407" stroke="#6D5B26" stroke-width="3.1851" stroke-linecap="round" stroke-linejoin="round"/>
<path d="M304.88 447.592L313.99 458.644" stroke="#6D5B26" stroke-width="3.1851" stroke-linecap="round" stroke-linejoin="round"/>
<path d="M356.829 433.42L346.669 446.16" stroke="#6D5B26" stroke-width="3.1851" stroke-linecap="round" stroke-linejoin="round"/>
<path d="M338.227 447.205L346.413 454.308" stroke="#6D5B26" stroke-width="3.1851" stroke-linecap="round" stroke-linejoin="round"/>
<path d="M27.5522 225.812C27.5522 225.812 192.986 239.285 212.925 425.582C212.925 425.582 95.2037 426.028 27.5522 225.812Z" fill="#A2923F"/>
<path d="M178.526 386.189L78.2275 267.258" stroke="#6D5B26" stroke-width="3.1851" stroke-linecap="round" stroke-linejoin="round"/>
<path d="M121.323 356.887L157.219 360.932" stroke="#6D5B26" stroke-width="3.1851" stroke-linecap="round" stroke-linejoin="round"/>
<path d="M95.5869 323.508L125.559 323.381" stroke="#6D5B26" stroke-width="3.1851" stroke-linecap="round" stroke-linejoin="round"/>
<path d="M142.949 344.015L147.122 321.592" stroke="#6D5B26" stroke-width="3.1851" stroke-linecap="round" stroke-linejoin="round"/>
<path d="M72.75 293.977L98.6448 293.723" stroke="#6D5B26" stroke-width="3.1851" stroke-linecap="round" stroke-linejoin="round"/>
<path d="M108.486 303.158L108.804 285.895" stroke="#6D5B26" stroke-width="3.1851" stroke-linecap="round" stroke-linejoin="round"/>
<path d="M181.458 363.697C181.458 363.697 206.588 323.852 245.924 342.357C245.924 342.357 281.757 356.881 264.748 401.95C264.748 401.95 313.544 413.894 308.129 457.626C308.129 457.626 300.421 492.757 268.411 492.598C268.411 492.598 285.802 530.437 242.612 557.829C242.612 557.829 205.505 563.944 198.53 539.961C198.53 539.961 159.385 577.991 129.891 552.574C100.429 527.157 120.909 486.037 120.909 486.037C120.909 486.037 40.8996 499.797 44.8491 437.878C44.8491 437.878 52.3022 379.941 109.124 390.134C109.124 390.134 103.2 349.205 134.51 338.503C165.819 327.801 181.458 363.634 181.458 363.634V363.697Z" fill="white"/>
<path d="M213.338 413.001C213.338 413.001 238.213 390.96 253.088 409.753C267.962 428.545 235.825 443.196 235.825 443.196C235.825 443.196 266.752 462.434 251.527 482.819C236.302 503.203 218.975 481.481 218.975 481.481C218.975 481.481 229.04 512.217 200.279 513.682C171.486 515.147 180.372 487.756 180.372 487.756C180.372 487.756 164.447 526.869 137.532 507.726C137.532 507.726 118.613 493.712 143.839 470.747C143.839 470.747 115.683 479.729 115.046 455.745C114.409 431.793 139.348 431.953 139.348 431.953C139.348 431.953 112.243 415.932 128.901 396.789C145.559 377.647 162.981 394.878 177.378 413.288C177.378 413.288 167.918 368.251 197.317 368.951C226.715 369.652 213.37 413.001 213.37 413.001H213.338Z" fill="#F5E1A6"/>
<path d="M188.336 457.972C179.673 458.673 172.061 452.239 171.36 443.576C170.659 434.912 177.093 427.332 185.756 426.599C194.42 425.898 202 432.332 202.733 440.996C203.434 449.659 197 457.24 188.336 457.972Z" fill="#E9BC4E"/>
<path d="M311.472 387.008C311.472 387.008 333.194 384.237 325.582 366.815C317.97 349.392 299.528 365.604 299.528 365.604C299.528 365.604 305.962 336.684 285.896 342.289C265.83 347.895 277.869 366.592 277.869 366.592C266.721 361.241 260.829 360.158 257.039 362.164C252.197 363.725 245.254 367.611 250.764 376.72C250.764 376.784 250.796 376.816 250.86 376.88C250.86 376.88 250.86 376.88 250.86 376.911C254.618 383.059 270.384 384.365 270.384 384.365C270.384 384.365 251.943 400.609 268.76 409.941C285.577 419.241 290.323 394.366 290.323 394.366C290.323 394.366 297.107 417.681 308.096 410.61C319.084 403.507 311.44 387.008 311.44 387.008H311.472Z" fill="#E25B37"/>
<path d="M294.176 385.135C291.086 387.842 286.436 387.524 283.729 384.466C281.021 381.408 281.308 376.726 284.398 374.019C287.455 371.312 292.137 371.63 294.845 374.688C297.552 377.746 297.265 382.428 294.176 385.135Z" fill="#F5C642"/>
</svg>
