<svg width="575" height="579" viewBox="0 0 575 579" fill="none" xmlns="http://www.w3.org/2000/svg">
<path d="M117.826 578.254C117.826 578.254 96.6366 555.652 82.3083 531.435C67.9296 507.269 67.1728 484.566 67.1728 484.566C67.1728 484.566 316.606 360.606 364.232 322.817C411.859 285.029 427.751 173.884 437.539 170.857C447.377 167.83 437.539 241.893 437.539 241.893C437.539 241.893 509.332 175.196 521.44 170.756C533.548 166.316 525.224 185.185 516.899 198.05C508.575 210.915 464.732 254.758 464.732 254.758C464.732 254.758 547.12 201.077 559.228 201.834C571.337 202.591 550.904 224.487 541.822 232.055C532.741 239.623 479.061 284.222 479.061 284.222C479.061 284.222 559.178 242.65 569.773 241.136C580.368 239.623 575.423 258.895 543.336 276.654C527.444 285.433 473.814 317.47 477.547 328.064C481.331 338.659 522.903 333.362 531.228 337.902C539.552 342.443 543.336 355.308 538.795 355.308C534.255 355.308 481.331 357.579 463.975 361.363C446.57 365.146 410.295 367.417 410.295 367.417L117.826 578.254Z" fill="#EFEFEF"/>
<path d="M140.006 458.48L142.152 473.784L157.37 471.096L143.479 477.866L150.737 491.508L140.006 480.389L129.274 491.508L136.533 477.866L122.642 471.096L137.86 473.784L140.006 458.48Z" fill="white"/>
<path d="M179.418 428.342L181.565 443.645L196.782 440.957L182.891 447.728L190.15 461.37L179.418 450.251L168.687 461.37L175.946 447.728L162.055 440.957L177.272 443.645L179.418 428.342Z" fill="white"/>
<path d="M248.97 404.578L251.117 419.881L266.334 417.194L252.443 423.964L259.702 437.606L248.97 426.487L238.239 437.606L245.498 423.964L231.607 417.194L246.824 419.881L248.97 404.578Z" fill="white"/>
<path d="M401.984 341.4L402.563 345.53L406.67 344.805L402.921 346.631L404.88 350.313L401.984 347.312L399.089 350.313L401.047 346.631L397.299 344.805L401.405 345.53L401.984 341.4Z" fill="white"/>
<path d="M407.78 268.371L408.496 273.472L413.568 272.576L408.938 274.833L411.357 279.38L407.78 275.674L404.203 279.38L406.623 274.833L401.992 272.576L407.065 273.472L407.78 268.371Z" fill="white"/>
<path d="M430.964 332.707L432.225 341.695L441.162 340.116L433.004 344.092L437.267 352.104L430.964 345.574L424.662 352.104L428.925 344.092L420.766 340.116L429.704 341.695L430.964 332.707Z" fill="white"/>
<path d="M467.189 341.4L467.939 346.744L473.253 345.806L468.402 348.17L470.937 352.934L467.189 349.051L463.442 352.934L465.976 348.17L461.126 345.806L466.44 346.744L467.189 341.4Z" fill="white"/>
<path d="M168.986 464.275L170.246 473.263L179.184 471.685L171.025 475.661L175.288 483.673L168.986 477.142L162.683 483.673L166.946 475.661L158.788 471.685L167.725 473.263L168.986 464.275Z" fill="white"/>
<path d="M208.398 434.137L209.659 443.124L218.596 441.546L210.438 445.522L214.701 453.534L208.398 447.004L202.096 453.534L206.359 445.522L198.201 441.546L207.138 443.124L208.398 434.137Z" fill="white"/>
<path d="M289.542 383.711L290.803 392.699L299.74 391.12L291.582 395.096L295.845 403.108L289.542 396.578L283.24 403.108L287.503 395.096L279.344 391.12L288.282 392.699L289.542 383.711Z" fill="white"/>
<path d="M450.671 317.639L451.386 320.796L456.459 320.242L451.828 321.639L454.248 324.454L450.671 322.16L447.093 324.454L449.513 321.639L444.883 320.242L449.955 320.796L450.671 317.639Z" fill="white"/>
<path d="M264.619 386.609L265.88 395.597L274.817 394.018L266.659 397.995L270.922 406.007L264.619 399.476L258.317 406.007L262.58 397.995L254.422 394.018L263.359 395.597L264.619 386.609Z" fill="white"/>
<path d="M338.228 348.355L339.489 357.343L348.426 355.765L340.268 359.741L344.531 367.753L338.228 361.223L331.926 367.753L336.189 359.741L328.031 355.765L336.968 357.343L338.228 348.355Z" fill="white"/>
<path d="M430.964 268.371L432.225 277.359L441.162 275.78L433.004 279.756L437.267 287.768L430.964 281.238L424.662 287.768L428.925 279.756L420.766 275.78L429.704 277.359L430.964 268.371Z" fill="white"/>
<path d="M149.54 495.633L150.9 505.325L160.537 503.623L151.74 507.91L156.337 516.55L149.54 509.508L142.744 516.55L147.341 507.91L138.543 503.623L148.181 505.325L149.54 495.633Z" fill="white"/>
<path d="M188.953 465.492L190.312 475.184L199.95 473.482L191.152 477.77L195.749 486.41L188.953 479.368L182.156 486.41L186.753 477.77L177.956 473.482L187.594 475.184L188.953 465.492Z" fill="white"/>
<path d="M248.652 430.137L250.011 439.829L259.649 438.127L250.851 442.414L255.448 451.054L248.652 444.012L241.855 451.054L246.452 442.414L237.654 438.127L247.292 439.829L248.652 430.137Z" fill="white"/>
<path d="M329.795 379.713L331.155 389.405L340.792 387.703L331.995 391.991L336.592 400.631L329.795 393.588L322.999 400.631L327.596 391.991L318.798 387.703L328.436 389.405L329.795 379.713Z" fill="white"/>
<path d="M422.531 299.729L423.89 309.421L433.528 307.718L424.731 312.006L429.328 320.646L422.531 313.604L415.735 320.646L420.332 312.006L411.534 307.718L421.172 309.421L422.531 299.729Z" fill="white"/>
<path d="M174.135 485.721L175.494 495.413L185.132 493.711L176.334 497.998L180.931 506.638L174.135 499.596L167.338 506.638L171.935 497.998L163.138 493.711L172.775 495.413L174.135 485.721Z" fill="white"/>
<path d="M213.547 455.584L214.907 465.276L224.544 463.574L215.747 467.862L220.344 476.502L213.547 469.46L206.751 476.502L211.348 467.862L202.55 463.574L212.188 465.276L213.547 455.584Z" fill="white"/>
<path d="M273.246 420.227L274.605 429.919L284.243 428.216L275.445 432.504L280.043 441.144L273.246 434.102L266.449 441.144L271.047 432.504L262.249 428.216L271.887 429.919L273.246 420.227Z" fill="white"/>
<path d="M354.39 369.801L355.749 379.493L365.387 377.791L356.589 382.078L361.186 390.718L354.39 383.676L347.593 390.718L352.19 382.078L343.393 377.791L353.03 379.493L354.39 369.801Z" fill="white"/>
<path d="M447.126 289.816L448.485 299.508L458.123 297.806L449.325 302.094L453.922 310.734L447.126 303.692L440.329 310.734L444.926 302.094L436.128 297.806L445.766 299.508L447.126 289.816Z" fill="white"/>
<path d="M190.697 469.528C190.791 468.863 191.752 468.863 191.845 469.528L192.547 474.533C192.593 474.858 192.899 475.08 193.222 475.023L198.199 474.144C198.86 474.027 199.158 474.942 198.553 475.236L194.011 477.45C193.716 477.594 193.599 477.954 193.753 478.243L196.127 482.705C196.442 483.298 195.665 483.863 195.198 483.38L191.688 479.743C191.46 479.507 191.082 479.507 190.854 479.743L187.345 483.38C186.878 483.863 186.1 483.298 186.416 482.705L188.79 478.243C188.944 477.954 188.827 477.594 188.532 477.45L183.989 475.236C183.385 474.942 183.682 474.027 184.344 474.144L189.321 475.023C189.644 475.08 189.95 474.858 189.995 474.533L190.697 469.528Z" fill="white"/>
<path d="M230.11 439.389C230.203 438.724 231.165 438.724 231.258 439.389L231.96 444.394C232.006 444.719 232.312 444.942 232.635 444.884L237.611 444.005C238.273 443.889 238.57 444.803 237.966 445.097L233.423 447.311C233.128 447.455 233.011 447.815 233.166 448.105L235.539 452.566C235.855 453.159 235.077 453.724 234.611 453.241L231.101 449.605C230.873 449.368 230.495 449.368 230.267 449.605L226.757 453.241C226.291 453.724 225.513 453.159 225.829 452.566L228.203 448.105C228.357 447.815 228.24 447.455 227.945 447.311L223.402 445.097C222.798 444.803 223.095 443.889 223.757 444.005L228.733 444.884C229.056 444.942 229.363 444.719 229.408 444.394L230.11 439.389Z" fill="white"/>
<path d="M308.356 375.634C308.449 374.968 309.41 374.968 309.504 375.634L310.206 380.638C310.251 380.963 310.557 381.186 310.881 381.129L315.857 380.25C316.519 380.133 316.816 381.047 316.212 381.341L311.669 383.556C311.374 383.699 311.257 384.059 311.411 384.349L313.785 388.81C314.101 389.404 313.323 389.969 312.856 389.485L309.347 385.849C309.119 385.613 308.741 385.613 308.513 385.849L305.003 389.485C304.537 389.969 303.759 389.404 304.074 388.81L306.448 384.349C306.602 384.059 306.486 383.699 306.191 383.556L301.648 381.341C301.044 381.047 301.341 380.133 302.002 380.25L306.979 381.129C307.302 381.186 307.608 380.963 307.654 380.638L308.356 375.634Z" fill="white"/>
<path d="M401.092 295.649C401.185 294.984 402.146 294.984 402.24 295.649L402.941 300.654C402.987 300.979 403.293 301.201 403.616 301.144L408.593 300.265C409.255 300.148 409.552 301.063 408.948 301.357L404.405 303.571C404.11 303.715 403.993 304.075 404.147 304.364L406.521 308.826C406.837 309.419 406.059 309.984 405.592 309.501L402.083 305.864C401.855 305.628 401.476 305.628 401.248 305.864L397.739 309.501C397.272 309.984 396.495 309.419 396.81 308.826L399.184 304.364C399.338 304.075 399.221 303.715 398.926 303.571L394.383 301.357C393.779 301.063 394.076 300.148 394.738 300.265L399.715 301.144C400.038 301.201 400.344 300.979 400.39 300.654L401.092 295.649Z" fill="white"/>
<path d="M289.809 404.034C289.902 403.368 290.863 403.368 290.957 404.034L291.659 409.039C291.704 409.364 292.01 409.586 292.333 409.529L297.31 408.65C297.972 408.533 298.269 409.447 297.665 409.742L293.122 411.956C292.827 412.1 292.71 412.459 292.864 412.749L295.238 417.211C295.554 417.804 294.776 418.369 294.309 417.885L290.8 414.249C290.572 414.013 290.193 414.013 289.966 414.249L286.456 417.885C285.989 418.369 285.212 417.804 285.527 417.211L287.901 412.749C288.055 412.459 287.938 412.1 287.643 411.956L283.1 409.742C282.496 409.447 282.793 408.533 283.455 408.65L288.432 409.529C288.755 409.586 289.061 409.364 289.107 409.039L289.809 404.034Z" fill="white"/>
<path d="M382.544 324.05C382.638 323.384 383.599 323.384 383.692 324.05L384.394 329.054C384.44 329.379 384.746 329.602 385.069 329.545L390.046 328.666C390.708 328.549 391.005 329.463 390.401 329.757L385.858 331.972C385.563 332.115 385.446 332.475 385.6 332.765L387.974 337.226C388.289 337.82 387.512 338.385 387.045 337.901L383.535 334.265C383.308 334.029 382.929 334.029 382.701 334.265L379.192 337.901C378.725 338.385 377.947 337.82 378.263 337.226L380.637 332.765C380.791 332.475 380.674 332.115 380.379 331.972L375.836 329.757C375.232 329.463 375.529 328.549 376.191 328.666L381.168 329.545C381.491 329.602 381.797 329.379 381.843 329.054L382.544 324.05Z" fill="white"/>
<path d="M370.952 353.608C371.046 352.943 372.007 352.943 372.1 353.608L372.802 358.613C372.848 358.938 373.154 359.16 373.477 359.103L378.454 358.224C379.116 358.107 379.413 359.022 378.809 359.316L374.266 361.53C373.971 361.674 373.854 362.034 374.008 362.323L376.382 366.785C376.697 367.378 375.92 367.943 375.453 367.46L371.943 363.823C371.716 363.587 371.337 363.587 371.109 363.823L367.6 367.46C367.133 367.943 366.355 367.378 366.671 366.785L369.045 362.323C369.199 362.034 369.082 361.674 368.787 361.53L364.244 359.316C363.64 359.022 363.937 358.107 364.599 358.224L369.576 359.103C369.899 359.16 370.205 358.938 370.251 358.613L370.952 353.608Z" fill="white"/>
<path d="M463.688 273.624C463.782 272.958 464.743 272.958 464.836 273.624L465.538 278.629C465.584 278.954 465.89 279.176 466.213 279.119L471.19 278.24C471.851 278.123 472.148 279.037 471.544 279.332L467.001 281.546C466.706 281.69 466.59 282.049 466.744 282.339L469.118 286.801C469.433 287.394 468.656 287.959 468.189 287.475L464.679 283.839C464.451 283.603 464.073 283.603 463.845 283.839L460.336 287.475C459.869 287.959 459.091 287.394 459.407 286.801L461.781 282.339C461.935 282.049 461.818 281.69 461.523 281.546L456.98 279.332C456.376 279.037 456.673 278.123 457.335 278.24L462.312 279.119C462.635 279.176 462.941 278.954 462.986 278.629L463.688 273.624Z" fill="white"/>
<path d="M198.232 489.813C198.325 489.148 199.287 489.148 199.38 489.813L200.082 494.818C200.128 495.143 200.434 495.365 200.757 495.308L205.734 494.429C206.395 494.312 206.692 495.227 206.088 495.521L201.545 497.735C201.25 497.879 201.133 498.239 201.288 498.528L203.661 502.99C203.977 503.583 203.199 504.148 202.733 503.665L199.223 500.028C198.995 499.792 198.617 499.792 198.389 500.028L194.879 503.665C194.413 504.148 193.635 503.583 193.951 502.99L196.325 498.528C196.479 498.239 196.362 497.879 196.067 497.735L191.524 495.521C190.92 495.227 191.217 494.312 191.879 494.429L196.855 495.308C197.179 495.365 197.485 495.143 197.53 494.818L198.232 489.813Z" fill="white"/>
<path d="M237.645 459.677C237.738 459.011 238.699 459.011 238.793 459.677L239.495 464.681C239.54 465.006 239.846 465.229 240.169 465.172L245.146 464.293C245.808 464.176 246.105 465.09 245.501 465.384L240.958 467.599C240.663 467.742 240.546 468.102 240.7 468.392L243.074 472.853C243.39 473.447 242.612 474.012 242.145 473.528L238.636 469.892C238.408 469.656 238.03 469.656 237.802 469.892L234.292 473.528C233.825 474.012 233.048 473.447 233.363 472.853L235.737 468.392C235.891 468.102 235.775 467.742 235.48 467.599L230.937 465.384C230.333 465.09 230.63 464.176 231.291 464.293L236.268 465.172C236.591 465.229 236.897 465.006 236.943 464.681L237.645 459.677Z" fill="white"/>
<path d="M297.343 424.319C297.437 423.654 298.398 423.654 298.491 424.319L299.193 429.324C299.239 429.649 299.545 429.871 299.868 429.814L304.845 428.935C305.507 428.818 305.804 429.733 305.2 430.027L300.657 432.241C300.362 432.385 300.245 432.745 300.399 433.034L302.773 437.496C303.088 438.089 302.311 438.654 301.844 438.171L298.334 434.534C298.107 434.298 297.728 434.298 297.5 434.534L293.991 438.171C293.524 438.654 292.746 438.089 293.062 437.496L295.436 433.034C295.59 432.745 295.473 432.385 295.178 432.241L290.635 430.027C290.031 429.733 290.328 428.818 290.99 428.935L295.967 429.814C296.29 429.871 296.596 429.649 296.642 429.324L297.343 424.319Z" fill="white"/>
<path d="M324.005 410.989C324.098 410.324 325.06 410.324 325.153 410.989L325.855 415.994C325.9 416.319 326.207 416.541 326.53 416.484L331.506 415.605C332.168 415.488 332.465 416.402 331.861 416.697L327.318 418.911C327.023 419.055 326.906 419.415 327.06 419.704L329.434 424.166C329.75 424.759 328.972 425.324 328.506 424.841L324.996 421.204C324.768 420.968 324.39 420.968 324.162 421.204L320.652 424.841C320.186 425.324 319.408 424.759 319.724 424.166L322.097 419.704C322.252 419.415 322.135 419.055 321.84 418.911L317.297 416.697C316.693 416.402 316.99 415.488 317.652 415.605L322.628 416.484C322.951 416.541 323.257 416.319 323.303 415.994L324.005 410.989Z" fill="white"/>
<path d="M50.6863 408.178C50.6863 408.178 29.4966 385.576 15.1683 361.359C0.789557 337.193 0.0327759 314.489 0.0327759 314.489C0.0327759 314.489 249.466 190.53 297.092 152.741C344.719 114.953 360.611 3.80775 370.399 0.780647C380.237 -2.24646 370.399 71.8167 370.399 71.8167C370.399 71.8167 442.192 5.11949 454.3 0.679742C466.408 -3.76001 458.084 15.1089 449.759 27.9741C441.435 40.8393 397.592 84.6819 397.592 84.6819C397.592 84.6819 479.98 31.0012 492.088 31.758C504.197 32.5148 483.764 54.4108 474.682 61.9786C465.601 69.5463 411.921 114.146 411.921 114.146C411.921 114.146 492.038 72.5734 502.633 71.0599C513.228 69.5463 508.283 88.8189 476.196 106.578C460.304 115.357 406.674 147.393 410.407 157.988C414.191 168.583 455.763 163.286 464.088 167.826C472.412 172.367 476.196 185.232 471.655 185.232C467.115 185.232 414.191 187.502 396.835 191.286C379.43 195.07 343.155 197.341 343.155 197.341L50.6863 408.178Z" fill="#EFEFEF"/>
<path d="M72.8658 288.404L75.012 303.708L90.2295 301.02L76.3385 307.79L83.5972 321.432L72.8658 310.313L62.1343 321.432L69.393 307.79L55.502 301.02L70.7195 303.708L72.8658 288.404Z" fill="white"/>
<path d="M112.278 258.266L114.425 273.569L129.642 270.881L115.751 277.651L123.01 291.293L112.278 280.174L101.547 291.293L108.806 277.651L94.9147 270.881L110.132 273.569L112.278 258.266Z" fill="white"/>
<path d="M181.83 234.502L183.977 249.805L199.194 247.117L185.303 253.888L192.562 267.53L181.83 256.411L171.099 267.53L178.358 253.888L164.467 247.117L179.684 249.805L181.83 234.502Z" fill="white"/>
<path d="M334.844 171.324L335.423 175.454L339.53 174.728L335.781 176.555L337.74 180.236L334.844 177.236L331.949 180.236L333.907 176.555L330.159 174.728L334.265 175.454L334.844 171.324Z" fill="white"/>
<path d="M340.64 98.2949L341.356 103.396L346.428 102.5L341.798 104.757L344.217 109.304L340.64 105.598L337.063 109.304L339.483 104.757L334.852 102.5L339.925 103.396L340.64 98.2949Z" fill="white"/>
<path d="M363.824 162.631L365.085 171.618L374.022 170.04L365.864 174.016L370.127 182.028L363.824 175.498L357.522 182.028L361.785 174.016L353.626 170.04L362.564 171.618L363.824 162.631Z" fill="white"/>
<path d="M400.049 171.324L400.799 176.668L406.113 175.73L401.262 178.094L403.797 182.858L400.049 178.975L396.302 182.858L398.836 178.094L393.986 175.73L399.3 176.668L400.049 171.324Z" fill="white"/>
<path d="M101.846 294.199L103.106 303.187L112.043 301.608L103.885 305.584L108.148 313.597L101.846 307.066L95.5431 313.597L99.8061 305.584L91.6479 301.608L100.585 303.187L101.846 294.199Z" fill="white"/>
<path d="M141.258 264.061L142.519 273.048L151.456 271.47L143.298 275.446L147.561 283.458L141.258 276.928L134.956 283.458L139.219 275.446L131.061 271.47L139.998 273.048L141.258 264.061Z" fill="white"/>
<path d="M222.402 213.635L223.663 222.622L232.6 221.044L224.442 225.02L228.705 233.032L222.402 226.502L216.1 233.032L220.363 225.02L212.204 221.044L221.142 222.622L222.402 213.635Z" fill="white"/>
<path d="M383.531 147.562L384.246 150.72L389.319 150.166L384.688 151.563L387.108 154.378L383.531 152.083L379.953 154.378L382.373 151.563L377.743 150.166L382.815 150.72L383.531 147.562Z" fill="white"/>
<path d="M197.479 216.533L198.74 225.521L207.677 223.942L199.519 227.918L203.782 235.931L197.479 229.4L191.177 235.931L195.44 227.918L187.282 223.942L196.219 225.521L197.479 216.533Z" fill="white"/>
<path d="M271.088 178.279L272.349 187.267L281.286 185.688L273.128 189.665L277.391 197.677L271.088 191.146L264.786 197.677L269.049 189.665L260.891 185.688L269.828 187.267L271.088 178.279Z" fill="white"/>
<path d="M363.824 98.2949L365.085 107.283L374.022 105.704L365.864 109.68L370.127 117.692L363.824 111.162L357.522 117.692L361.785 109.68L353.626 105.704L362.564 107.283L363.824 98.2949Z" fill="white"/>
<path d="M82.4001 325.557L83.7595 335.249L93.3972 333.546L84.5996 337.834L89.1967 346.474L82.4001 339.432L75.6036 346.474L80.2007 337.834L71.4031 333.546L81.0408 335.249L82.4001 325.557Z" fill="white"/>
<path d="M121.813 295.416L123.172 305.108L132.81 303.406L124.012 307.694L128.609 316.334L121.813 309.292L115.016 316.334L119.613 307.694L110.816 303.406L120.454 305.108L121.813 295.416Z" fill="white"/>
<path d="M181.511 260.061L182.871 269.753L192.509 268.05L183.711 272.338L188.308 280.978L181.511 273.936L174.715 280.978L179.312 272.338L170.514 268.05L180.152 269.753L181.511 260.061Z" fill="white"/>
<path d="M262.655 209.637L264.015 219.329L273.652 217.627L264.855 221.914L269.452 230.554L262.655 223.512L255.859 230.554L260.456 221.914L251.658 217.627L261.296 219.329L262.655 209.637Z" fill="white"/>
<path d="M355.391 129.652L356.75 139.344L366.388 137.642L357.59 141.93L362.188 150.57L355.391 143.528L348.594 150.57L353.192 141.93L344.394 137.642L354.032 139.344L355.391 129.652Z" fill="white"/>
<path d="M106.995 315.645L108.354 325.337L117.992 323.634L109.194 327.922L113.791 336.562L106.995 329.52L100.198 336.562L104.795 327.922L95.9976 323.634L105.635 325.337L106.995 315.645Z" fill="white"/>
<path d="M146.407 285.506L147.767 295.198L157.404 293.496L148.607 297.783L153.204 306.424L146.407 299.381L139.611 306.424L144.208 297.783L135.41 293.496L145.048 295.198L146.407 285.506Z" fill="white"/>
<path d="M206.106 250.15L207.465 259.842L217.103 258.14L208.305 262.428L212.903 271.068L206.106 264.026L199.309 271.068L203.907 262.428L195.109 258.14L204.747 259.842L206.106 250.15Z" fill="white"/>
<path d="M287.25 199.725L288.609 209.417L298.247 207.714L289.449 212.002L294.046 220.642L287.25 213.6L280.453 220.642L285.05 212.002L276.253 207.714L285.89 209.417L287.25 199.725Z" fill="white"/>
<path d="M379.985 119.74L381.345 129.432L390.983 127.73L382.185 132.018L386.782 140.658L379.985 133.616L373.189 140.658L377.786 132.018L368.988 127.73L378.626 129.432L379.985 119.74Z" fill="white"/>
<path d="M123.557 299.452C123.651 298.786 124.612 298.786 124.705 299.452L125.407 304.457C125.453 304.782 125.759 305.004 126.082 304.947L131.059 304.068C131.72 303.951 132.017 304.865 131.413 305.16L126.87 307.374C126.575 307.518 126.459 307.877 126.613 308.167L128.987 312.629C129.302 313.222 128.525 313.787 128.058 313.303L124.548 309.667C124.32 309.431 123.942 309.431 123.714 309.667L120.205 313.303C119.738 313.787 118.96 313.222 119.276 312.629L121.65 308.167C121.804 307.877 121.687 307.518 121.392 307.374L116.849 305.16C116.245 304.865 116.542 303.951 117.204 304.068L122.181 304.947C122.504 305.004 122.81 304.782 122.855 304.457L123.557 299.452Z" fill="white"/>
<path d="M162.97 269.313C163.063 268.648 164.025 268.648 164.118 269.313L164.82 274.318C164.865 274.643 165.171 274.865 165.495 274.808L170.471 273.929C171.133 273.812 171.43 274.727 170.826 275.021L166.283 277.235C165.988 277.379 165.871 277.739 166.025 278.028L168.399 282.49C168.715 283.083 167.937 283.648 167.471 283.165L163.961 279.528C163.733 279.292 163.355 279.292 163.127 279.528L159.617 283.165C159.151 283.648 158.373 283.083 158.689 282.49L161.062 278.028C161.217 277.739 161.1 277.379 160.805 277.235L156.262 275.021C155.658 274.727 155.955 273.812 156.617 273.929L161.593 274.808C161.916 274.865 162.222 274.643 162.268 274.318L162.97 269.313Z" fill="white"/>
<path d="M241.216 205.557C241.309 204.892 242.27 204.892 242.364 205.557L243.066 210.562C243.111 210.887 243.417 211.11 243.74 211.052L248.717 210.173C249.379 210.057 249.676 210.971 249.072 211.265L244.529 213.479C244.234 213.623 244.117 213.983 244.271 214.273L246.645 218.734C246.961 219.327 246.183 219.892 245.716 219.409L242.207 215.773C241.979 215.536 241.601 215.536 241.373 215.773L237.863 219.409C237.396 219.892 236.619 219.327 236.934 218.734L239.308 214.273C239.462 213.983 239.345 213.623 239.05 213.479L234.508 211.265C233.904 210.971 234.201 210.057 234.862 210.173L239.839 211.052C240.162 211.11 240.468 210.887 240.514 210.562L241.216 205.557Z" fill="white"/>
<path d="M333.952 125.573C334.045 124.908 335.006 124.908 335.099 125.573L335.801 130.578C335.847 130.903 336.153 131.125 336.476 131.068L341.453 130.189C342.115 130.072 342.412 130.986 341.808 131.281L337.265 133.495C336.97 133.639 336.853 133.999 337.007 134.288L339.381 138.75C339.697 139.343 338.919 139.908 338.452 139.425L334.943 135.788C334.715 135.552 334.336 135.552 334.108 135.788L330.599 139.425C330.132 139.908 329.354 139.343 329.67 138.75L332.044 134.288C332.198 133.999 332.081 133.639 331.786 133.495L327.243 131.281C326.639 130.986 326.936 130.072 327.598 130.189L332.575 131.068C332.898 131.125 333.204 130.903 333.25 130.578L333.952 125.573Z" fill="white"/>
<path d="M222.669 233.958C222.762 233.292 223.723 233.292 223.817 233.958L224.518 238.963C224.564 239.288 224.87 239.51 225.193 239.453L230.17 238.574C230.832 238.457 231.129 239.371 230.525 239.666L225.982 241.88C225.687 242.024 225.57 242.383 225.724 242.673L228.098 247.135C228.414 247.728 227.636 248.293 227.169 247.809L223.66 244.173C223.432 243.937 223.053 243.937 222.826 244.173L219.316 247.809C218.849 248.293 218.072 247.728 218.387 247.135L220.761 242.673C220.915 242.383 220.798 242.024 220.503 241.88L215.96 239.666C215.356 239.371 215.653 238.457 216.315 238.574L221.292 239.453C221.615 239.51 221.921 239.288 221.967 238.963L222.669 233.958Z" fill="white"/>
<path d="M315.404 153.973C315.498 153.308 316.459 153.308 316.552 153.973L317.254 158.978C317.3 159.303 317.606 159.526 317.929 159.468L322.906 158.589C323.568 158.473 323.865 159.387 323.261 159.681L318.718 161.895C318.423 162.039 318.306 162.399 318.46 162.689L320.834 167.15C321.149 167.743 320.372 168.308 319.905 167.825L316.395 164.189C316.168 163.952 315.789 163.952 315.561 164.189L312.052 167.825C311.585 168.308 310.807 167.743 311.123 167.15L313.497 162.689C313.651 162.399 313.534 162.039 313.239 161.895L308.696 159.681C308.092 159.387 308.389 158.473 309.051 158.589L314.028 159.468C314.351 159.526 314.657 159.303 314.702 158.978L315.404 153.973Z" fill="white"/>
<path d="M303.812 183.532C303.906 182.867 304.867 182.867 304.96 183.532L305.662 188.537C305.708 188.862 306.014 189.084 306.337 189.027L311.314 188.148C311.976 188.031 312.273 188.945 311.669 189.24L307.126 191.454C306.831 191.598 306.714 191.958 306.868 192.247L309.242 196.709C309.557 197.302 308.78 197.867 308.313 197.384L304.803 193.747C304.576 193.511 304.197 193.511 303.969 193.747L300.46 197.384C299.993 197.867 299.215 197.302 299.531 196.709L301.905 192.247C302.059 191.958 301.942 191.598 301.647 191.454L297.104 189.24C296.5 188.945 296.797 188.031 297.459 188.148L302.436 189.027C302.759 189.084 303.065 188.862 303.11 188.537L303.812 183.532Z" fill="white"/>
<path d="M396.548 103.548C396.642 102.882 397.603 102.882 397.696 103.548L398.398 108.552C398.444 108.877 398.75 109.1 399.073 109.043L404.05 108.164C404.711 108.047 405.008 108.961 404.404 109.255L399.861 111.47C399.566 111.613 399.45 111.973 399.604 112.263L401.978 116.724C402.293 117.318 401.516 117.883 401.049 117.399L397.539 113.763C397.311 113.527 396.933 113.527 396.705 113.763L393.196 117.399C392.729 117.883 391.951 117.318 392.267 116.724L394.641 112.263C394.795 111.973 394.678 111.613 394.383 111.47L389.84 109.255C389.236 108.961 389.533 108.047 390.195 108.164L395.172 109.043C395.495 109.1 395.801 108.877 395.846 108.552L396.548 103.548Z" fill="white"/>
<path d="M131.092 319.737C131.185 319.072 132.147 319.072 132.24 319.737L132.942 324.742C132.987 325.067 133.294 325.289 133.617 325.232L138.593 324.353C139.255 324.236 139.552 325.151 138.948 325.445L134.405 327.659C134.11 327.803 133.993 328.163 134.148 328.452L136.521 332.914C136.837 333.507 136.059 334.072 135.593 333.589L132.083 329.952C131.855 329.716 131.477 329.716 131.249 329.952L127.739 333.589C127.273 334.072 126.495 333.507 126.811 332.914L129.185 328.452C129.339 328.163 129.222 327.803 128.927 327.659L124.384 325.445C123.78 325.151 124.077 324.236 124.739 324.353L129.715 325.232C130.038 325.289 130.345 325.067 130.39 324.742L131.092 319.737Z" fill="white"/>
<path d="M170.505 289.598C170.598 288.933 171.559 288.933 171.653 289.598L172.355 294.603C172.4 294.928 172.706 295.151 173.029 295.093L178.006 294.214C178.668 294.098 178.965 295.012 178.361 295.306L173.818 297.52C173.523 297.664 173.406 298.024 173.56 298.314L175.934 302.775C176.25 303.368 175.472 303.933 175.005 303.45L171.496 299.814C171.268 299.577 170.89 299.577 170.662 299.814L167.152 303.45C166.685 303.933 165.908 303.368 166.223 302.775L168.597 298.314C168.751 298.024 168.634 297.664 168.339 297.52L163.797 295.306C163.193 295.012 163.49 294.098 164.151 294.214L169.128 295.093C169.451 295.151 169.757 294.928 169.803 294.603L170.505 289.598Z" fill="white"/>
<path d="M230.203 254.243C230.297 253.577 231.258 253.577 231.351 254.243L232.053 259.248C232.099 259.573 232.405 259.795 232.728 259.738L237.705 258.859C238.367 258.742 238.664 259.656 238.06 259.951L233.517 262.165C233.222 262.309 233.105 262.668 233.259 262.958L235.633 267.42C235.948 268.013 235.171 268.578 234.704 268.094L231.194 264.458C230.966 264.222 230.588 264.222 230.36 264.458L226.851 268.094C226.384 268.578 225.606 268.013 225.922 267.42L228.296 262.958C228.45 262.668 228.333 262.309 228.038 262.165L223.495 259.951C222.891 259.656 223.188 258.742 223.85 258.859L228.827 259.738C229.15 259.795 229.456 259.573 229.501 259.248L230.203 254.243Z" fill="white"/>
<path d="M256.865 240.913C256.958 240.247 257.92 240.247 258.013 240.913L258.715 245.918C258.76 246.243 259.066 246.465 259.39 246.408L264.366 245.529C265.028 245.412 265.325 246.326 264.721 246.621L260.178 248.835C259.883 248.979 259.766 249.338 259.92 249.628L262.294 254.09C262.61 254.683 261.832 255.248 261.366 254.764L257.856 251.128C257.628 250.892 257.25 250.892 257.022 251.128L253.512 254.764C253.046 255.248 252.268 254.683 252.584 254.09L254.957 249.628C255.112 249.338 254.995 248.979 254.7 248.835L250.157 246.621C249.553 246.326 249.85 245.412 250.511 245.529L255.488 246.408C255.811 246.465 256.117 246.243 256.163 245.918L256.865 240.913Z" fill="white"/>
</svg>
