<svg width="893" height="702" viewBox="0 0 893 702" fill="none" xmlns="http://www.w3.org/2000/svg">
<g clip-path="url(#clip0_4090_4387)">
<path d="M661.633 1.74554C537.935 -11.2263 425.676 65.3102 388.919 178.998C389.237 179.007 389.449 179.013 389.766 179.022C403.722 180.481 417.118 182.985 430.272 186.542C462.715 93.9393 555.569 32.2246 657.383 42.8745C776.535 55.3983 862.88 162.105 850.465 281.153C838.211 398.298 734.925 483.68 618.219 474.62C616.206 474.562 614.199 474.293 612.189 474.129C600.243 472.834 588.64 470.699 577.487 467.624C476.787 440.251 407.982 343.165 419.104 235.956C419.404 232.89 419.809 229.826 420.324 226.659C409.066 223.581 397.465 221.341 385.519 220.045C383.509 219.881 381.502 219.612 379.489 219.554C378.738 223.563 378.308 227.474 377.875 231.491C364.567 359.528 447.043 475.456 567.536 507.848C580.584 511.402 594.089 513.802 607.936 515.364C608.148 515.37 608.465 515.379 608.677 515.385C750.258 529.717 876.945 426.976 891.809 285.304C906.355 143.623 803.517 16.6155 661.633 1.74554Z" fill="#EFEFEF"/>
<g clip-path="url(#clip1_4090_4387)">
<path d="M203.408 207.229C83.2324 276.612 42.0581 430.277 111.441 550.452C180.825 670.627 334.489 711.802 454.664 642.419C574.84 573.035 616.014 419.371 546.631 299.195C477.248 179.02 323.626 137.821 203.408 207.229ZM436.929 611.7C333.723 671.286 201.746 635.923 142.16 532.717C82.5734 429.511 117.962 297.577 221.168 237.991C324.374 178.405 456.352 213.768 515.938 316.974C575.524 420.18 540.161 552.158 436.954 611.744L436.929 611.7Z" fill="#EBAF3B"/>
<path d="M226.117 252.195L79.9996 207.011C78.0964 206.428 76.9911 204.513 77.3503 202.623L91.3152 131.152C91.5408 130.035 92.2284 129.116 93.1857 128.564L190.475 72.3939C191.432 71.8412 192.597 71.7488 193.651 72.0681L262.505 95.6664C264.365 96.2751 265.451 98.2582 264.98 100.155L231.008 249.313C230.532 251.502 228.269 252.809 226.135 252.126L226.117 252.195Z" fill="#6DC9BB"/>
<path d="M229.813 251.453L229.857 251.428L211.435 125.268L161.109 89.3479L122.516 111.63L128.461 173.173L228.551 252.182L228.595 252.157L229.813 251.453Z" fill="#C8E4E8"/>
<path d="M210.43 247.328L79.9577 207.035C78.0544 206.451 76.9491 204.537 77.3083 202.647L91.3167 131.15C91.5423 130.034 92.2299 129.115 93.1872 128.562L117.335 114.62C119.772 113.213 122.839 114.807 123.094 117.561L128.458 173.174L213.921 240.613C217.254 243.272 214.442 248.55 210.405 247.284L210.43 247.328Z" fill="#81BFC9"/>
<path d="M262.557 95.7528L211.389 125.295L161.107 89.3496L190.433 72.4183C191.39 71.8656 192.555 71.7732 193.61 72.0926L262.557 95.7528Z" fill="#A5E8DE"/>
<path d="M179.093 152.352L108.345 193.198C104.865 195.208 100.404 194.012 98.394 190.532C96.3843 187.051 97.5796 182.59 101.06 180.58L171.808 139.734C175.289 137.724 179.75 138.92 181.76 142.4C183.769 145.881 182.574 150.342 179.093 152.352Z" fill="white"/>
</g>
</g>
<defs>
<clipPath id="clip0_4090_4387">
<rect width="892.299" height="701.501" fill="white" transform="translate(0.701172 0.349609)"/>
</clipPath>
<clipPath id="clip1_4090_4387">
<rect width="502.564" height="625.806" fill="white" transform="translate(-75.8057 226.129) rotate(-30)"/>
</clipPath>
</defs>
</svg>
