<svg width="911" height="790" viewBox="0 0 911 790" fill="none" xmlns="http://www.w3.org/2000/svg">
<g clip-path="url(#clip0_4090_4909)">
<path d="M363.192 27.1328L208.502 105.999L0 666.983C0 666.983 6.5446 684.766 44.8867 699.111C91.9549 716.696 118.53 709.953 118.53 709.953L252.992 302.138L236.796 777.514C236.796 777.514 299.333 794.636 461.494 788.488C623.72 782.34 684.01 747.237 684.01 747.237L681.167 305.774L806.771 670.553C806.771 670.553 831.891 665.661 864.747 651.448C897.536 637.235 910.427 615.023 910.427 615.023C910.427 615.023 735.441 127.88 705.891 104.676C676.342 81.4728 588.617 51.4602 588.617 51.4602L455.081 456.3L363.192 27.1328Z" fill="#2C2C2C"/>
<path d="M588.686 51.3789L578.638 29.9602L483.907 73.2603L369.277 0.0136719L363.195 27.1176L455.15 456.219L588.686 51.3789Z" fill="white"/>
<path d="M426.129 78.4146L364.054 23.2812L363.195 27.1155L365.178 36.3043L420.179 85.0914L426.129 78.4146Z" fill="#E6E6E6"/>
<path d="M586.7 47.2188L523.898 95.6091L529.385 102.749L586.171 58.9858L588.683 51.3835L586.7 47.2188Z" fill="#E6E6E6"/>
<path d="M483.968 108.554L474.978 107.959L452.369 443.122L455.146 456.211L461.889 435.916L483.968 108.554Z" fill="#E6E6E6"/>
<path d="M465.66 76.5653C465.66 76.5653 437.035 51.7751 426.656 57.7248C416.278 63.6744 408.279 121.055 423.153 124.162C438.027 127.269 461.958 112.131 461.958 112.131L465.66 76.5653Z" fill="#1E1E1E"/>
<path d="M499.306 80.0135C499.306 80.0135 526.212 69.172 534.74 69.4364C543.267 69.7008 548.159 83.385 546.837 97.1353C545.449 110.886 542.606 129.528 533.484 131.114C524.361 132.701 495.009 114.059 495.009 114.059L499.306 80.0135Z" fill="#1E1E1E"/>
<path d="M483.904 73.2723C483.904 73.2723 466.848 69.6364 463.609 75.3877C460.37 81.139 456.998 111.35 460.568 113.664C464.138 115.977 493.952 122.125 498.844 116.705C503.736 111.284 505.19 80.0152 501.092 78.032C494.217 74.7266 483.904 73.3384 483.904 73.3384V73.2723Z" fill="#1E1E1E"/>
<path d="M452.172 442.271L436.901 789.135C439.876 789.069 442.851 789.003 445.891 788.871L461.294 439.627H460.633L455.146 456.154L452.172 442.271Z" fill="#8CCAD9"/>
<path d="M363.193 27.1328L288.624 225.983L357.442 274.043L334.238 370.493L455.148 456.234L363.193 27.1328Z" fill="#1E1E1E"/>
<path d="M455.145 456.221L576.584 342.45L583.459 254.264L638.923 216.12L588.681 51.3809L455.145 456.221Z" fill="#1E1E1E"/>
</g>
<defs>
<clipPath id="clip0_4090_4909">
<rect width="910.493" height="789.715" fill="white" transform="translate(0 0.0136719)"/>
</clipPath>
</defs>
</svg>
