<svg width="1339" height="723" viewBox="0 0 1339 723" fill="none" xmlns="http://www.w3.org/2000/svg">
<g clip-path="url(#clip0_4090_4629)">
<path d="M1257.67 0.591797C1257.67 0.591797 683.108 266.189 85.6787 0.591797C85.6787 0.591797 190.237 382.803 673.865 382.803C1157.49 382.803 1257.67 0.591797 1257.67 0.591797Z" fill="#F8A9B7"/>
<path d="M1314.62 654.866C1319.48 684.019 1288.32 722.014 1288.32 722.014L1273.49 638.682L1314.59 654.866H1314.62Z" fill="#F8A9B7"/>
<path d="M1235.89 638.676C1246.89 684.379 1314.62 654.86 1314.62 654.86L1261.72 535.031C1261.72 535.031 1220.3 573.903 1235.89 638.676Z" fill="white"/>
<path d="M1314.62 497.043C1314.62 497.043 1235.9 575.517 1235.9 638.683L1208.86 480.859C1208.86 480.859 1280.61 457.404 1314.62 497.043Z" fill="#F8A9B7"/>
<path d="M1173.72 480.859C1183.43 405.637 1262.93 361.724 1262.93 361.724C1262.93 361.724 1275.75 322.853 1282.37 373.049C1288.98 423.246 1314.62 497.007 1314.62 497.007C1314.62 497.007 1169.04 517.21 1173.72 480.823V480.859Z" fill="white"/>
<path d="M1257.67 0.591797C1257.67 0.591797 1235.9 128.531 1262.93 250.443C1271.66 289.753 1338.92 382.803 1338.92 382.803C1338.92 382.803 1173.72 405.637 1173.72 480.859C1173.72 480.859 1137.58 86.4085 1257.67 0.591797Z" fill="#F8A9B7"/>
<path d="M24.3408 654.866C19.4818 684.019 50.6447 722.014 50.6447 722.014L65.4772 638.682L24.3772 654.866H24.3408Z" fill="#F8A9B7"/>
<path d="M103.071 638.676C92.0749 684.379 24.3422 654.86 24.3422 654.86L77.2424 535.031C77.2424 535.031 118.671 573.903 103.071 638.676Z" fill="white"/>
<path d="M24.3381 497.043C24.3381 497.043 103.067 575.517 103.067 638.683L130.102 480.859C130.102 480.859 58.3506 457.404 24.3381 497.043Z" fill="#F8A9B7"/>
<path d="M165.213 480.859C155.495 405.637 75.9985 361.724 75.9985 361.724C75.9985 361.724 63.1752 322.853 56.5627 373.049C49.9502 423.246 24.3039 497.007 24.3039 497.007C24.3039 497.007 169.889 517.21 165.213 480.823V480.859Z" fill="white"/>
<path d="M85.6772 0.591797C85.6772 0.591797 103.067 128.531 76.0325 250.443C67.301 289.753 0.0431478 382.803 0.0431478 382.803C0.0431478 382.803 165.247 405.637 165.247 480.859C165.247 480.859 205.799 86.4085 85.7138 0.591797H85.6772Z" fill="#F8A9B7"/>
<g filter="url(#filter0_d_4090_4629)">
<path d="M476.21 186.575C476.21 185.62 476.503 184.813 477.091 184.152C477.678 183.491 478.449 183.087 479.403 182.941C480.725 182.72 482.377 182.5 484.359 182.28C486.415 181.986 488.654 181.839 491.076 181.839C492.985 181.839 494.49 182.353 495.592 183.381C496.693 184.409 497.5 185.694 498.014 187.235C498.528 188.777 498.822 190.466 498.895 192.301C499.042 194.136 499.115 195.862 499.115 197.477C499.115 198.064 499.005 199.349 498.785 201.331C498.565 203.24 498.271 205.589 497.904 208.379C497.61 211.169 497.243 214.252 496.803 217.63C496.436 221.007 496.069 224.42 495.702 227.871C495.408 231.322 495.151 234.699 494.931 238.002C494.711 241.233 494.6 244.133 494.6 246.702C494.6 249.492 494.747 251.731 495.041 253.42C495.335 255.035 495.885 255.842 496.693 255.842C497.5 255.842 498.345 254.925 499.226 253.089C500.107 251.254 500.951 248.905 501.758 246.041C502.639 243.105 503.447 239.875 504.181 236.351C504.989 232.753 505.686 229.229 506.274 225.779C506.934 222.255 507.485 219.024 507.925 216.088C508.439 213.078 508.843 210.692 509.137 208.93C509.43 207.021 510.422 205.406 512.11 204.084C512.918 203.497 513.835 202.983 514.863 202.543C515.891 202.029 517.029 201.772 518.277 201.772C519.525 201.772 520.7 202.065 521.801 202.653C522.609 203.093 523.269 204.672 523.783 207.388C524.371 210.104 524.848 213.371 525.215 217.189C525.582 221.007 525.912 225.118 526.206 229.523C526.573 233.854 526.94 237.856 527.307 241.526C527.674 245.197 528.115 248.244 528.629 250.667C529.143 253.089 529.803 254.301 530.611 254.301C530.905 254.301 531.345 253.31 531.932 251.327C532.593 249.345 533.291 246.739 534.025 243.509C534.759 240.205 535.493 236.497 536.227 232.386C537.035 228.275 537.769 224.09 538.43 219.832C539.09 215.5 539.641 211.316 540.081 207.278C540.522 203.24 540.779 199.679 540.852 196.596C540.926 194.614 541.146 193.109 541.513 192.081C541.88 190.98 542.321 190.172 542.835 189.658C543.422 189.144 544.009 188.851 544.597 188.777C545.257 188.63 545.845 188.557 546.359 188.557C546.872 188.557 547.423 188.667 548.01 188.887C548.598 189.107 549.148 189.511 549.662 190.099C550.176 190.686 550.617 191.493 550.984 192.521C551.351 193.549 551.534 194.871 551.534 196.486C551.534 200.01 551.351 204.121 550.984 208.82C550.617 213.518 550.066 218.4 549.332 223.466C548.598 228.458 547.717 233.414 546.689 238.333C545.661 243.178 544.486 247.51 543.165 251.327C541.843 255.145 540.375 258.265 538.76 260.688C537.218 263.037 535.566 264.212 533.804 264.212C530.648 264.212 527.968 263.478 525.765 262.009C523.563 260.468 521.691 258.559 520.149 256.283C518.607 254.007 517.396 251.511 516.515 248.795C515.634 246.078 514.937 243.545 514.423 241.196C513.982 238.773 513.689 236.681 513.542 234.919C513.395 233.157 513.321 232.092 513.321 231.725C513.248 232.313 513.064 233.744 512.771 236.02C512.551 238.223 512.147 240.829 511.559 243.839C510.972 246.849 510.128 250.043 509.027 253.42C507.999 256.723 506.677 259.807 505.062 262.67C503.447 265.46 501.501 267.773 499.226 269.608C497.023 271.443 494.38 272.361 491.297 272.361C487.773 272.361 484.873 271.186 482.597 268.837C480.394 266.414 478.632 263.221 477.311 259.256C475.989 255.292 475.072 250.777 474.558 245.711C474.117 240.572 473.897 235.286 473.897 229.853C473.897 225.669 473.971 221.521 474.117 217.409C474.338 213.298 474.595 209.37 474.888 205.626C475.182 201.808 475.439 198.284 475.659 195.054C475.879 191.75 476.063 188.924 476.21 186.575ZM577.641 224.567C577.641 222.879 577.127 222.034 576.099 222.034C575.512 222.034 574.924 222.255 574.337 222.695C573.75 223.136 573.309 223.65 573.015 224.237C572.428 225.632 572.098 227.247 572.024 229.082C572.024 230.844 571.914 232.68 571.694 234.589C571.914 234.515 572.355 234.368 573.015 234.148C573.676 233.928 574.337 233.487 574.998 232.827C575.658 232.092 576.246 231.101 576.76 229.853C577.347 228.532 577.641 226.77 577.641 224.567ZM607.704 234.258C608.659 234.258 609.136 234.809 609.136 235.91C609.136 237.745 608.365 240.462 606.823 244.059C605.502 247.143 603.703 250.593 601.427 254.411C599.225 258.155 596.655 261.679 593.719 264.983C590.782 268.213 587.552 270.929 584.028 273.132C580.504 275.408 576.87 276.546 573.125 276.546C571.951 276.546 570.409 276.325 568.5 275.885C566.591 275.444 564.719 274.343 562.884 272.581C561.049 270.819 559.433 268.176 558.039 264.652C556.717 261.128 556.056 256.283 556.056 250.116C556.056 248.354 556.166 246.298 556.387 243.949C556.607 241.526 556.974 239.067 557.488 236.571C558.002 234.001 558.699 231.505 559.58 229.082C560.461 226.66 561.599 224.494 562.994 222.585C564.389 220.603 566.041 219.024 567.95 217.85C569.932 216.675 572.208 216.088 574.777 216.088C575.291 216.088 576.062 216.161 577.09 216.308C578.118 216.381 579.146 216.712 580.173 217.299C581.201 217.813 582.119 218.621 582.927 219.722C583.734 220.75 584.138 222.218 584.138 224.127C584.138 227.137 583.697 229.743 582.816 231.946C582.009 234.075 580.944 235.837 579.623 237.232C578.301 238.626 576.87 239.654 575.328 240.315C573.786 240.976 572.355 241.306 571.033 241.306C570.886 242.921 570.776 244.536 570.703 246.152C570.629 247.693 570.593 249.198 570.593 250.667C570.593 254.558 570.886 257.825 571.474 260.468C572.134 263.111 573.272 264.432 574.887 264.432C576.649 264.432 578.705 263.771 581.054 262.45C583.404 261.128 585.826 259.366 588.323 257.164C590.892 254.961 593.352 252.392 595.701 249.455C598.124 246.519 600.289 243.435 602.198 240.205C603.079 238.663 603.997 237.305 604.951 236.13C605.979 234.882 606.897 234.258 607.704 234.258ZM615.092 259.036C616.414 258.816 617.662 258.045 618.836 256.723C620.084 255.329 621.186 253.64 622.14 251.658C623.094 249.602 623.865 247.4 624.453 245.05C625.04 242.701 625.334 240.462 625.334 238.333C625.334 236.497 625.077 234.882 624.563 233.487C624.122 232.019 623.351 230.881 622.25 230.073C621.81 229.78 621.443 229.633 621.149 229.633C620.121 229.633 619.057 230.477 617.955 232.166C616.927 233.854 615.973 235.91 615.092 238.333C614.285 240.755 613.587 243.325 613 246.041C612.486 248.758 612.229 251.181 612.229 253.31C612.229 254.998 612.412 256.393 612.779 257.494C613.22 258.522 613.881 259.036 614.762 259.036H615.092ZM631.941 182.5C633.189 181.986 634.474 181.729 635.795 181.729C637.337 181.729 638.769 182.243 640.09 183.271C641.485 184.225 642.66 185.804 643.614 188.006C644.569 190.209 645.303 193.072 645.817 196.596C646.404 200.12 646.698 204.451 646.698 209.59C646.698 214.216 646.477 219.428 646.037 225.228C645.67 229.046 645.413 232.68 645.266 236.13C645.193 239.581 645.156 242.885 645.156 246.041C645.156 251.548 645.266 256.54 645.486 261.018C645.706 265.497 645.817 269.498 645.817 273.022C645.817 274.563 645.743 276.362 645.596 278.418C645.45 280.547 645.046 282.529 644.385 284.364C643.798 286.273 642.88 287.852 641.632 289.1C640.384 290.421 638.622 291.082 636.346 291.082C635.024 291.082 633.923 290.495 633.042 289.32C632.161 288.145 631.39 286.273 630.73 283.704C630.142 281.208 629.665 277.941 629.298 273.903C629.004 269.865 628.784 264.983 628.637 259.256C626.508 262.78 624.086 265.423 621.369 267.185C618.726 268.874 616.487 269.718 614.652 269.718C613.771 269.718 612.486 269.645 610.797 269.498C609.182 269.351 607.567 268.874 605.952 268.066C604.41 267.185 603.015 265.827 601.767 263.992C600.592 262.156 600.005 259.513 600.005 256.063C600.005 252.612 600.042 249.712 600.115 247.363C600.262 244.94 600.482 242.811 600.776 240.976C601.143 239.14 601.584 237.415 602.097 235.8C602.685 234.185 603.456 232.423 604.41 230.514C605.218 228.899 606.319 227.577 607.714 226.55C609.109 225.522 610.614 224.751 612.229 224.237C613.844 223.65 615.496 223.246 617.184 223.026C618.946 222.805 620.598 222.695 622.14 222.695C623.535 222.695 624.746 222.732 625.774 222.805C626.875 222.879 627.72 222.989 628.307 223.136C628.38 218.29 628.454 214.032 628.527 210.361C628.674 206.617 628.821 203.35 628.968 200.56C629.188 197.771 629.408 195.385 629.628 193.402C629.849 191.347 630.069 189.658 630.289 188.337C630.803 185.253 631.354 183.308 631.941 182.5ZM671.767 259.036C673.089 258.816 674.337 258.045 675.511 256.723C676.759 255.329 677.861 253.64 678.815 251.658C679.769 249.602 680.54 247.4 681.128 245.05C681.715 242.701 682.009 240.462 682.009 238.333C682.009 236.497 681.752 234.882 681.238 233.487C680.797 232.019 680.026 230.881 678.925 230.073C678.485 229.78 678.118 229.633 677.824 229.633C676.796 229.633 675.732 230.477 674.63 232.166C673.602 233.854 672.648 235.91 671.767 238.333C670.96 240.755 670.262 243.325 669.675 246.041C669.161 248.758 668.904 251.181 668.904 253.31C668.904 254.998 669.087 256.393 669.454 257.494C669.895 258.522 670.556 259.036 671.437 259.036H671.767ZM688.616 182.5C689.864 181.986 691.149 181.729 692.47 181.729C694.012 181.729 695.444 182.243 696.765 183.271C698.16 184.225 699.335 185.804 700.289 188.006C701.244 190.209 701.978 193.072 702.492 196.596C703.079 200.12 703.373 204.451 703.373 209.59C703.373 214.216 703.152 219.428 702.712 225.228C702.345 229.046 702.088 232.68 701.941 236.13C701.868 239.581 701.831 242.885 701.831 246.041C701.831 251.548 701.941 256.54 702.161 261.018C702.381 265.497 702.492 269.498 702.492 273.022C702.492 274.563 702.418 276.362 702.271 278.418C702.125 280.547 701.721 282.529 701.06 284.364C700.473 286.273 699.555 287.852 698.307 289.1C697.059 290.421 695.297 291.082 693.021 291.082C691.699 291.082 690.598 290.495 689.717 289.32C688.836 288.145 688.065 286.273 687.405 283.704C686.817 281.208 686.34 277.941 685.973 273.903C685.679 269.865 685.459 264.983 685.312 259.256C683.183 262.78 680.761 265.423 678.044 267.185C675.401 268.874 673.162 269.718 671.327 269.718C670.446 269.718 669.161 269.645 667.472 269.498C665.857 269.351 664.242 268.874 662.627 268.066C661.085 267.185 659.69 265.827 658.442 263.992C657.267 262.156 656.68 259.513 656.68 256.063C656.68 252.612 656.717 249.712 656.79 247.363C656.937 244.94 657.157 242.811 657.451 240.976C657.818 239.14 658.259 237.415 658.772 235.8C659.36 234.185 660.131 232.423 661.085 230.514C661.893 228.899 662.994 227.577 664.389 226.55C665.784 225.522 667.289 224.751 668.904 224.237C670.519 223.65 672.171 223.246 673.859 223.026C675.621 222.805 677.273 222.695 678.815 222.695C680.21 222.695 681.421 222.732 682.449 222.805C683.55 222.879 684.395 222.989 684.982 223.136C685.055 218.29 685.129 214.032 685.202 210.361C685.349 206.617 685.496 203.35 685.643 200.56C685.863 197.771 686.083 195.385 686.303 193.402C686.524 191.347 686.744 189.658 686.964 188.337C687.478 185.253 688.029 183.308 688.616 182.5ZM731.085 201.001C731.893 201.001 732.517 201.368 732.957 202.102C733.398 202.763 733.618 203.497 733.618 204.305C733.618 205.259 733.398 206.287 732.957 207.388C732.517 208.416 731.929 209.37 731.195 210.251C730.534 211.132 729.764 211.866 728.883 212.454C728.002 213.041 727.157 213.335 726.35 213.335C722.165 213.335 720.073 211.83 720.073 208.82C720.073 208.232 720.476 207.498 721.284 206.617C722.092 205.736 723.046 204.892 724.147 204.084C725.322 203.203 726.533 202.469 727.781 201.882C729.029 201.294 730.131 201.001 731.085 201.001ZM718.311 223.907C718.458 222.438 719.339 221.227 720.954 220.272C722.569 219.245 724.221 218.731 725.909 218.731C727.304 218.731 728.516 219.135 729.543 219.942C730.571 220.676 731.085 221.998 731.085 223.907V238.883C731.085 241.526 731.085 244.169 731.085 246.812C731.158 249.455 731.269 251.841 731.415 253.97C731.562 256.026 731.746 257.715 731.966 259.036C732.186 260.358 732.517 261.018 732.957 261.018C733.251 261.018 733.765 260.688 734.499 260.027C735.306 259.293 736.224 258.375 737.252 257.274C738.28 256.173 739.381 254.925 740.556 253.53C741.73 252.062 742.942 250.593 744.19 249.125C747.053 245.601 750.136 241.636 753.44 237.232C753.954 236.571 754.505 235.947 755.092 235.359C755.606 234.919 756.12 234.515 756.634 234.148C757.221 233.708 757.808 233.487 758.396 233.487C759.13 233.487 759.607 233.744 759.827 234.258C760.048 234.699 760.158 235.139 760.158 235.58C760.158 236.167 760.048 236.791 759.827 237.452C759.681 238.039 759.534 238.626 759.387 239.214C759.093 239.875 758.836 240.535 758.616 241.196C755.679 247.73 752.412 253.567 748.815 258.706C747.273 260.908 745.585 263.037 743.749 265.093C741.914 267.148 739.932 269.021 737.803 270.709C735.747 272.324 733.544 273.609 731.195 274.563C728.919 275.591 726.57 276.105 724.147 276.105C722.385 276.105 720.917 275.518 719.742 274.343C718.568 273.169 717.613 271.627 716.879 269.718C716.218 267.736 715.741 265.46 715.447 262.89C715.154 260.321 715.007 257.641 715.007 254.851C715.007 251.254 715.154 247.62 715.447 243.949C715.815 240.278 716.218 236.938 716.659 233.928C717.099 230.404 717.65 227.063 718.311 223.907ZM756.952 219.722C757.319 218.474 757.943 217.556 758.824 216.969C759.779 216.308 760.843 215.978 762.018 215.978C763.633 215.978 765.138 216.675 766.533 218.07C768.001 219.391 768.735 221.521 768.735 224.457L767.964 234.478C769.139 232.496 770.387 230.587 771.709 228.752C773.104 226.843 774.535 225.191 776.003 223.796C777.472 222.328 778.977 221.19 780.519 220.383C782.06 219.502 783.602 219.061 785.144 219.061C787.053 219.061 788.594 219.465 789.769 220.272C790.944 221.08 791.825 222.328 792.412 224.017C793.073 225.705 793.513 227.834 793.733 230.404C793.954 232.973 794.064 236.057 794.064 239.654C794.064 242.738 794.027 246.115 793.954 249.786C793.88 253.456 793.844 257.531 793.844 262.009C793.844 264.359 793.623 266.341 793.183 267.956C792.742 269.571 792.155 270.856 791.421 271.81C790.687 272.765 789.806 273.426 788.778 273.793C787.823 274.233 786.759 274.453 785.584 274.453C784.336 274.453 783.198 273.499 782.17 271.59C781.143 269.755 780.629 267.442 780.629 264.652C780.629 262.009 780.739 259.146 780.959 256.063C781.179 252.979 781.4 249.969 781.62 247.033C781.84 244.023 782.06 241.196 782.281 238.553C782.501 235.91 782.611 233.671 782.611 231.835C782.611 230.367 782.538 229.229 782.391 228.422C782.244 227.614 781.95 227.21 781.51 227.21C781.143 227.21 780.555 227.761 779.748 228.862C778.94 229.89 777.839 231.615 776.444 234.038C775.123 236.461 773.471 239.654 771.488 243.619C769.506 247.51 767.194 252.318 764.551 258.045C764.037 260.321 763.449 262.45 762.789 264.432C762.201 266.414 761.541 268.176 760.806 269.718C760.072 271.186 759.228 272.324 758.274 273.132C757.393 274.013 756.438 274.453 755.41 274.453C752.474 274.453 750.381 273.939 749.133 272.912C747.885 271.957 747.261 270.195 747.261 267.626C747.261 265.79 747.555 263.514 748.142 260.798C748.656 258.008 749.354 254.668 750.235 250.777C751.116 246.886 752.143 242.371 753.318 237.232C754.493 232.092 755.704 226.256 756.952 219.722ZM820.924 316.631C820.924 318.466 821.181 319.567 821.694 319.934C822.208 320.375 823.089 320.595 824.337 320.595C824.998 320.595 825.659 319.934 826.32 318.613C826.98 317.291 827.641 315.456 828.302 313.107C828.963 310.831 829.587 308.078 830.174 304.847C830.761 301.691 831.349 298.24 831.936 294.496C828.632 297.579 825.953 300.883 823.897 304.407C821.915 307.931 820.924 312.006 820.924 316.631ZM822.355 264.212C823.163 264.212 824.154 263.184 825.329 261.128C826.503 259.073 827.641 256.577 828.742 253.64C829.844 250.703 830.761 247.657 831.496 244.5C832.303 241.269 832.707 238.516 832.707 236.24C832.707 234.772 832.523 233.597 832.156 232.716C831.789 231.835 831.128 231.395 830.174 231.395C828.779 231.395 827.348 232.276 825.879 234.038C824.484 235.8 823.2 238.002 822.025 240.645C820.85 243.215 819.896 246.005 819.162 249.015C818.427 251.951 818.06 254.631 818.06 257.054C818.06 259.183 818.391 260.908 819.052 262.23C819.712 263.551 820.813 264.212 822.355 264.212ZM842.838 213.225C844.086 211.756 845.701 211.022 847.684 211.022C848.638 211.022 849.592 211.242 850.547 211.683C851.501 212.05 852.346 212.674 853.08 213.555C853.887 214.436 854.511 215.537 854.952 216.859C855.466 218.18 855.723 219.759 855.723 221.594C855.723 222.695 855.686 224.641 855.613 227.431C855.539 230.22 855.392 233.561 855.172 237.452C854.952 241.343 854.658 245.674 854.291 250.446C853.924 255.218 853.484 260.174 852.97 265.313C855.686 262.89 858.292 260.431 860.788 257.935C863.358 255.365 865.707 252.796 867.836 250.226C870.039 247.583 871.984 244.94 873.673 242.297C875.361 239.581 876.756 236.791 877.858 233.928C878.004 233.414 878.188 232.973 878.408 232.606C878.555 232.239 878.739 231.946 878.959 231.725C879.252 231.432 879.546 231.285 879.84 231.285C880.207 231.285 880.501 231.468 880.721 231.835C881.014 232.129 881.235 232.496 881.382 232.937C881.528 233.377 881.602 233.854 881.602 234.368C881.675 234.809 881.712 235.139 881.712 235.359C881.712 236.461 881.602 237.488 881.382 238.443C881.161 239.397 881.014 239.911 880.941 239.985C879.473 244.61 877.637 248.831 875.435 252.649C873.306 256.466 870.92 259.954 868.277 263.111C865.707 266.267 862.954 269.131 860.018 271.7C857.154 274.343 854.254 276.803 851.318 279.079C850.363 285.686 849.225 292.11 847.904 298.35C846.582 304.591 845.004 310.097 843.169 314.869C841.333 319.714 839.204 323.605 836.781 326.542C834.432 329.479 831.752 330.947 828.742 330.947C825.512 330.947 822.686 330.506 820.263 329.625C817.84 328.744 815.821 327.606 814.206 326.211C812.591 324.817 811.38 323.238 810.572 321.476C809.764 319.788 809.361 318.099 809.361 316.41C809.361 313.547 809.985 310.684 811.233 307.821C812.554 304.958 814.316 302.094 816.519 299.231C818.721 296.368 821.291 293.505 824.227 290.642C827.237 287.778 830.394 284.915 833.698 282.052L835.9 263.771C833.478 267.516 830.798 270.195 827.861 271.81C824.998 273.499 822.208 274.343 819.492 274.343H819.272C818.464 274.343 817.216 274.16 815.528 273.793C813.839 273.499 812.114 272.765 810.352 271.59C808.663 270.415 807.158 268.69 805.837 266.414C804.515 264.065 803.854 260.945 803.854 257.054C803.854 250.373 804.625 244.683 806.167 239.985C807.782 235.213 809.948 231.358 812.664 228.422C815.454 225.412 818.684 223.246 822.355 221.924C826.026 220.529 829.917 219.832 834.028 219.832C835.497 219.832 836.781 219.979 837.883 220.272C838.984 220.566 840.012 220.933 840.966 221.374C841.333 219.171 841.664 217.373 841.957 215.978C842.251 214.509 842.545 213.592 842.838 213.225Z" fill="white"/>
</g>
<path d="M927.404 219.089C931.303 198.445 957.086 202.92 950.751 224.76C946.232 240.221 927.404 252.359 927.404 252.359C927.404 252.359 908.577 240.221 904.058 224.76C897.723 202.92 923.506 198.49 927.404 219.089Z" fill="white"/>
<path d="M424.892 207.498C428.791 186.854 454.574 191.328 448.239 213.168C443.72 228.629 424.892 240.767 424.892 240.767C424.892 240.767 406.065 228.629 401.546 213.168C395.211 191.328 420.994 186.898 424.892 207.498Z" fill="white"/>
</g>
<defs>
<filter id="filter0_d_4090_4629" x="471.579" y="181.729" width="412.452" height="153.856" filterUnits="userSpaceOnUse" color-interpolation-filters="sRGB">
<feFlood flood-opacity="0" result="BackgroundImageFix"/>
<feColorMatrix in="SourceAlpha" type="matrix" values="0 0 0 0 0 0 0 0 0 0 0 0 0 0 0 0 0 0 127 0" result="hardAlpha"/>
<feOffset dy="2.31839"/>
<feGaussianBlur stdDeviation="1.1592"/>
<feComposite in2="hardAlpha" operator="out"/>
<feColorMatrix type="matrix" values="0 0 0 0 0 0 0 0 0 0 0 0 0 0 0 0 0 0 0.25 0"/>
<feBlend mode="normal" in2="BackgroundImageFix" result="effect1_dropShadow_4090_4629"/>
<feBlend mode="normal" in="SourceGraphic" in2="effect1_dropShadow_4090_4629" result="shape"/>
</filter>
<clipPath id="clip0_4090_4629">
<rect width="1338.87" height="721.423" fill="white" transform="matrix(-1 0 0 1 1338.92 0.591797)"/>
</clipPath>
</defs>
</svg>
