<svg width="886" height="597" viewBox="0 0 886 597" fill="none" xmlns="http://www.w3.org/2000/svg">
<g clip-path="url(#clip0_4090_4603)">
<path d="M885.627 61.7363H0V596.659H885.627V61.7363Z" fill="#F6DFEB"/>
<path d="M288.56 472.506C288.56 502.11 264.672 525.998 235.068 525.998C205.464 525.998 181.576 502.11 181.576 472.506C181.576 442.902 205.464 419.014 235.068 419.014C264.672 419.014 288.56 442.902 288.56 472.506Z" fill="#FF8399"/>
<path d="M442.886 558.941C316.117 558.941 213.089 455.767 213.089 329.144C213.089 202.522 316.263 99.3477 442.886 99.3477C569.509 99.3477 672.683 202.522 672.683 329.144C672.683 455.767 569.509 558.941 442.886 558.941ZM442.886 143.167C340.445 143.167 257.056 226.557 257.056 328.998C257.056 431.439 340.445 514.829 442.886 514.829C545.327 514.829 628.717 431.439 628.717 328.998C628.717 226.557 545.327 143.167 442.886 143.167Z" fill="#2A3945"/>
<path d="M442.892 476.169C524.075 476.169 589.886 410.358 589.886 329.175C589.886 247.993 524.075 182.182 442.892 182.182C361.71 182.182 295.899 247.993 295.899 329.175C295.899 410.358 361.71 476.169 442.892 476.169Z" fill="#2A3945"/>
<path d="M828.178 119.148H697.305V193.305H828.178V119.148Z" fill="#FF8399"/>
<path d="M529.497 0.591797H356.123L312.157 61.7048H573.463L529.497 0.591797Z" fill="#FF8399"/>
</g>
<defs>
<clipPath id="clip0_4090_4603">
<rect width="885.627" height="596.036" fill="white" transform="translate(0 0.591797)"/>
</clipPath>
</defs>
</svg>
