<svg width="612" height="831" viewBox="0 0 612 831" fill="none" xmlns="http://www.w3.org/2000/svg">
<path d="M482.141 462.833C467.478 456.989 460.326 440.377 466.145 425.714L546.203 224.48C571.017 162.11 540.461 91.2042 478.117 66.3896C415.747 41.575 344.841 72.1318 320.026 134.476L239.968 335.71C234.124 350.373 217.512 357.525 202.849 351.706C188.186 345.861 181.034 329.25 186.878 314.587L266.936 113.353C303.389 21.7592 407.595 -23.1275 499.24 13.3253C590.885 49.7781 635.771 153.984 599.293 245.629L519.235 446.863C513.39 461.526 496.779 468.678 482.116 462.859L482.141 462.833Z" fill="#FFCFD4"/>
<path d="M367.501 826.419L36.3754 694.681C6.79269 682.915 -7.63976 649.384 4.12666 619.801L127.482 309.773C139.248 280.19 172.779 265.758 202.361 277.524L533.487 409.262C563.07 421.028 577.503 454.559 565.736 484.141L442.381 794.17C430.615 823.753 397.084 838.185 367.501 826.419Z" fill="#FF7694"/>
<g style="mix-blend-mode:multiply" opacity="0.5">
<path d="M533.462 409.253L514.492 401.717L393.008 707.054C381.242 736.637 347.711 751.069 318.129 739.303L5.99801 615.102L4.12666 619.793C-7.63976 649.376 6.79269 682.906 36.3754 694.673L367.501 826.41C397.084 838.177 430.615 823.744 442.381 794.162L565.736 484.133C577.503 454.55 563.07 421.02 533.487 409.253H533.462Z" fill="#FF7694"/>
</g>
<path d="M241.327 661.534C241.327 661.534 254.324 618.467 202.695 563.865C151.066 509.288 134.788 449.739 198.26 425.949C247.761 407.39 306.491 454.276 297.672 519.901C336.33 466.145 411.235 472.451 434.435 519.901C464.197 580.81 411.466 612.879 336.458 617.083C261.45 621.287 241.301 661.508 241.301 661.508L241.327 661.534Z" fill="white"/>
</svg>
