<svg width="1503" height="452" viewBox="0 0 1503 452" fill="none" xmlns="http://www.w3.org/2000/svg">
<g clip-path="url(#clip0_4090_4644)">
<path d="M310.325 80.5996L258.057 393.662L156.054 293.399L0.458984 340.069L63.3172 33.7207C121.505 48.4141 204.994 66.3412 310.325 80.5996Z" fill="#F24970"/>
<path d="M691.88 451.262L544.322 330.784L392.699 418.774L421.461 93.3066C500.62 100.701 588.875 105.523 685.262 105.75L691.899 451.262H691.88Z" fill="#F9D2DB"/>
<path d="M1131.85 421.48L953.279 326.398L850.217 434.244L806.458 103.633C886.26 100.702 970.714 94.5185 1059.33 84.1367L1131.85 421.461V421.48Z" fill="#F24970"/>
<path d="M149.832 247.389C151.307 247.899 152.706 248.07 154.049 247.918C155.391 247.767 156.734 247.559 158.058 247.313C160.138 246.916 162.142 246.462 164.034 245.914C165.943 245.384 167.816 244.666 169.688 243.758C175.928 241.054 182.32 239.106 188.844 237.915C189.96 237.782 191.056 237.669 192.172 237.574C193.269 237.48 194.404 237.612 195.557 237.934C196.881 238.312 197.751 238.936 198.186 239.825C198.602 240.713 198.45 241.678 197.694 242.718C196.975 243.682 196.238 244.514 195.5 245.252C194.763 245.989 193.78 246.538 192.607 246.916C188.447 248.334 184.343 249.772 180.353 251.228C176.344 252.684 172.26 254.121 168.099 255.539C164.733 256.655 161.348 257.6 157.925 258.433C154.503 259.246 150.985 259.548 147.373 259.34C145.842 259.34 144.329 259.227 142.835 258.981C141.341 258.735 139.809 258.47 138.278 258.225C136.576 257.922 134.987 257.355 133.512 256.542C132.037 255.709 130.619 254.745 129.219 253.648C128.936 253.383 128.69 253.1 128.463 252.759C128.236 252.419 128.104 252.079 128.028 251.7C127.82 250.206 127.612 248.75 127.385 247.351C127.158 245.933 127.12 244.533 127.234 243.134C127.612 236.78 128.35 230.559 129.465 224.469C130.562 218.38 131.772 212.272 133.058 206.183C134.269 200.34 135.422 194.553 136.519 188.804C137.616 183.056 138.561 177.212 139.355 171.256C139.904 167.114 140.566 162.973 141.341 158.831C142.116 154.709 142.948 150.568 143.856 146.426C144.953 140.999 146.163 135.609 147.525 130.258C148.867 124.906 150.229 119.498 151.59 114.07C152.385 110.988 153.292 107.943 154.314 104.956C155.335 101.968 156.45 99.0366 157.623 96.1433C158.266 94.536 159.079 92.9853 160.081 91.5292C161.083 90.0731 162.067 88.5792 163.031 87.0663C163.599 86.3288 164.279 85.9885 165.074 86.0263C165.868 86.0641 166.586 86.1965 167.267 86.3856C169.858 87.0285 171.862 88.4279 173.262 90.5837C174.661 92.7395 175.399 95.1222 175.455 97.7318C175.455 99.8876 175.418 102.024 175.304 104.142C175.191 106.26 174.926 108.378 174.491 110.496C174.283 111.877 174.056 113.201 173.829 114.486C173.602 115.772 173.356 117.039 173.073 118.306C172.6 120.595 172.089 122.883 171.522 125.19C170.955 127.497 170.387 129.823 169.801 132.168C169.253 134.437 168.648 136.687 168.005 138.919C167.362 141.15 166.738 143.4 166.095 145.632C165.962 146.124 165.811 146.634 165.679 147.126C165.546 147.617 165.49 148.109 165.546 148.563C165.49 150.341 165.225 152.043 164.771 153.65C164.317 155.276 163.882 156.921 163.504 158.604C163.277 160.061 162.993 161.554 162.691 163.086C162.388 164.618 162.124 166.112 161.878 167.568C161.726 168.419 161.537 169.213 161.329 169.97C161.121 170.707 160.932 171.52 160.781 172.371C160.27 175.094 159.779 177.836 159.325 180.559C158.852 183.301 158.587 186.081 158.493 188.937C158.493 190.469 158.323 191.944 157.982 193.362C157.623 194.78 157.32 196.217 157.093 197.673C156.885 199.319 156.696 200.964 156.488 202.609C156.28 204.254 156.091 205.899 155.883 207.545C155.618 210.06 155.335 212.613 155.051 215.184C154.767 217.756 154.314 220.29 153.69 222.805C152.857 226.342 152.196 229.821 151.723 233.282C151.231 236.723 150.664 240.203 150.04 243.701C149.945 244.306 149.907 244.893 149.87 245.46C149.832 246.046 149.813 246.67 149.794 247.389H149.832Z" fill="white"/>
<path d="M601.867 190.62C601.981 199.848 601.073 208.849 599.125 217.605C597.177 226.36 594.814 235.097 592.015 243.833C590.256 249.053 588.422 254.215 586.531 259.302C584.64 264.389 582.257 269.268 579.383 273.939C576.149 279.29 572.575 284.34 568.66 289.086C564.746 293.814 560.151 297.974 554.894 301.567C551.206 303.987 547.386 305.652 543.453 306.597C539.501 307.543 535.34 307.77 530.953 307.316C526.396 306.937 522.368 305.633 518.888 303.401C515.409 301.17 512.062 298.485 508.866 295.383C504.819 291.393 501.831 286.987 499.864 282.165C497.917 277.324 496.479 272.18 495.591 266.715C495.288 264.975 495.042 263.254 494.872 261.515C494.702 259.794 494.551 257.884 494.437 255.804C494.305 254.083 494.191 252.721 494.078 251.719C493.964 250.736 493.889 249.62 493.832 248.41C493.832 244.268 493.832 240.165 493.737 236.118C493.662 232.071 494.021 227.968 494.815 223.845C495.402 220.933 495.874 218.021 496.252 215.146C496.631 212.272 497.141 209.454 497.822 206.712C498.484 203.97 499.259 201.304 500.091 198.751C500.923 196.179 501.812 193.57 502.739 190.922C503.476 188.861 504.233 186.837 505.027 184.833C505.802 182.828 506.653 180.843 507.561 178.876C508.469 177.08 509.376 175.321 510.284 173.581C511.192 171.841 512.232 170.121 513.385 168.419C514.898 166.131 516.43 163.88 517.943 161.668C519.456 159.455 521.101 157.337 522.878 155.314C528.287 148.979 534.773 143.835 542.28 139.864C546.819 137.387 551.755 135.515 557.049 134.266C567.904 131.676 577.681 134.077 586.38 141.452C588.989 143.665 591.202 146.161 592.998 148.922C594.776 151.683 596.232 154.671 597.366 157.904C598.993 162.084 600.203 166.301 600.997 170.537C601.792 174.791 602.151 179.16 602.037 183.642C601.924 184.852 601.867 186.005 601.886 187.14C601.886 188.256 601.886 189.428 601.867 190.638V190.62ZM577.586 151.721C576.281 152.118 574.995 152.458 573.747 152.723C572.48 152.988 571.251 153.366 570.041 153.858C564.122 155.957 558.733 158.755 553.854 162.254C548.975 165.752 544.625 170.045 540.787 175.132C535.624 181.996 531.653 189.296 528.93 197.03C526.188 204.783 524.126 212.82 522.708 221.141C521.895 226.303 521.403 231.428 521.233 236.515C521.063 241.602 521.176 246.746 521.574 251.927C521.819 255.652 522.273 259.302 522.916 262.895C523.559 266.488 524.75 269.987 526.471 273.409C528.117 276.643 530.121 279.404 532.485 281.711C534.849 284.018 537.723 285.815 541.146 287.1C548.502 289.786 554.969 288.443 560.529 283.054C562.288 281.276 563.971 279.404 565.521 277.418C567.072 275.433 568.528 273.334 569.89 271.121C573.388 265.429 576.357 259.548 578.796 253.478C581.236 247.407 583.259 241.11 584.886 234.605C586.606 227.4 588.063 220.233 589.235 213.104C590.407 205.975 590.956 198.694 590.88 191.281C590.805 187.405 590.578 183.547 590.199 179.746C589.821 175.945 588.932 172.201 587.571 168.551C586.436 165.506 585.131 162.519 583.656 159.588C582.181 156.656 580.177 154.047 577.643 151.74L577.586 151.721Z" fill="white"/>
<path d="M968.521 275.266C968.955 273.526 969.372 271.9 969.769 270.406C970.166 268.912 970.544 267.437 970.903 265.943C971.792 261.405 972.605 256.829 973.324 252.214C973.778 249.264 974.213 246.314 974.629 243.402C975.045 240.49 975.404 237.559 975.688 234.609C976.349 228.784 976.917 222.998 977.408 217.23C977.9 211.462 978.467 205.676 979.129 199.852C979.489 196.807 979.905 193.838 980.358 190.907C980.812 187.995 981.323 185.007 981.852 181.962C982.817 176.913 983.706 171.883 984.538 166.872C985.37 161.86 986.259 156.83 987.223 151.781C988.036 147.243 989.114 142.837 990.457 138.544C991.062 136.615 991.742 134.686 992.499 132.738C993.255 130.791 994.125 128.937 995.071 127.179C995.619 126.195 996.338 125.326 997.208 124.55C998.078 123.775 998.966 122.981 999.874 122.149C1000.44 121.6 1001.03 121.449 1001.59 121.676C1002.16 121.903 1002.71 122.092 1003.24 122.243C1003.86 122.47 1004.2 122.848 1004.26 123.359C1004.32 123.869 1004.3 124.437 1004.15 125.042C1003.64 127.046 1003.16 129.07 1002.69 131.074C1002.24 133.079 1001.84 135.083 1001.5 137.088C1000.76 141.362 1000.03 145.616 999.288 149.89C998.55 154.164 997.813 158.476 997.075 162.825C996.111 169.349 995.109 175.816 994.087 182.208C993.066 188.6 992.121 195.067 991.232 201.591C990.74 205.581 990.343 209.609 990.022 213.637C989.7 217.665 989.303 221.693 988.811 225.683C988.566 227.688 988.301 229.711 988.017 231.753C987.733 233.796 987.412 235.819 987.091 237.824C986.353 242.097 985.634 246.352 984.935 250.626C984.235 254.9 983.479 259.117 982.647 263.315C982.174 265.849 981.625 268.326 981.001 270.784C980.396 273.224 979.716 275.682 978.978 278.141C978.392 280.164 977.446 281.923 976.141 283.454C974.837 284.986 973.494 286.518 972.095 288.069C970.79 289.525 969.334 290.716 967.745 291.662C966.157 292.607 964.568 293.59 962.98 294.612C962.564 294.971 962.11 295.33 961.599 295.652C961.089 295.973 960.635 296.332 960.219 296.692C958.536 297.732 956.891 298.394 955.264 298.696C953.638 298.999 951.936 298.658 950.159 297.713C948.211 296.767 946.433 295.671 944.807 294.423C943.199 293.156 941.687 291.699 940.306 290.054C936.902 285.818 933.877 281.374 931.229 276.703C928.582 272.051 926.142 267.229 923.911 262.237C920.715 255.221 917.519 248.281 914.323 241.398C911.127 234.514 907.969 227.536 904.868 220.426C901.559 213.07 898.287 205.77 895.035 198.509C891.782 191.247 888.548 183.891 885.315 176.459C883.651 172.564 882.251 168.63 881.098 164.621C879.944 160.631 879.188 156.471 878.791 152.178C878.393 147.791 879.282 143.725 881.419 140C883.008 137.069 885.031 135.405 887.508 134.97C889.986 134.535 892.671 135.386 895.545 137.485C896.699 138.298 897.701 139.281 898.533 140.454C899.365 141.626 900.159 142.799 900.916 143.971C903.469 148.51 906.003 153.01 908.518 157.454C911.033 161.917 913.51 166.456 915.987 171.07C918.181 175.192 920.261 179.315 922.247 183.456C924.213 187.598 926.218 191.758 928.241 195.975C930.927 201.535 933.612 207.019 936.24 212.408C938.888 217.797 941.516 223.282 944.126 228.86C946.339 233.588 948.551 238.296 950.726 242.967C952.901 247.657 955.151 252.309 957.439 256.942C958.876 259.892 960.465 262.748 962.204 265.508C963.944 268.269 965.608 271.125 967.235 274.075C967.329 274.245 967.462 274.396 967.651 274.51C967.821 274.623 968.105 274.907 968.464 275.304L968.521 275.266Z" fill="white"/>
<path d="M1502.78 346.918L1332.21 282.037L1238.79 393.041L1169.27 69.3889C1251.19 57.0215 1336.29 41.0233 1424.21 20.7324L1502.78 346.899V346.918Z" fill="#F9D2DB"/>
<path d="M1265.81 144.062C1264.79 138.465 1263.77 133.245 1262.75 128.442C1261.73 123.639 1260.61 118.836 1259.42 114.07C1258.12 108.359 1258.65 102.781 1261.01 97.3345C1261.6 95.973 1262.48 94.9707 1263.68 94.3088C1264.87 93.6659 1266.11 93.1175 1267.42 92.6447C1270.84 91.737 1274.27 90.9617 1277.71 90.3187C1281.15 89.6758 1284.61 89.0707 1288.09 88.5033C1290.83 88.1062 1293.53 87.6902 1296.24 87.2931C1298.92 86.896 1301.65 86.4988 1304.39 86.0828C1310.31 85.2697 1316.21 84.5132 1322.09 83.8325C1327.99 83.1517 1333.95 82.868 1339.96 83.0004C1344.31 83.1328 1348.41 83.9648 1352.27 85.5344C1352.67 85.7235 1353.03 85.8748 1353.37 86.0261C1353.71 86.1774 1353.99 86.4043 1354.24 86.7069C1355.03 87.5011 1355.3 88.2953 1355.07 89.0517C1354.84 89.8082 1354.22 90.3377 1353.22 90.6402C1351.27 91.0562 1349.36 91.4723 1347.47 91.8694C1345.58 92.2665 1343.65 92.6447 1341.68 92.9662C1337.77 93.6281 1333.85 94.2899 1329.94 94.9518C1326.02 95.6137 1322.03 96.1621 1317.99 96.5781C1313.62 97.1643 1309.31 97.8073 1305.05 98.5448C1300.8 99.2823 1296.48 99.9252 1292.12 100.511C1291.1 100.644 1290.07 100.814 1289.05 101.041C1288.05 101.249 1287.03 101.476 1286.01 101.684C1285.1 101.968 1284.57 102.27 1284.42 102.611C1284.27 102.951 1284.38 103.575 1284.74 104.464C1285.06 105.182 1285.4 105.939 1285.74 106.695C1286.08 107.47 1286.42 108.208 1286.75 108.927C1287.33 110.042 1287.82 110.704 1288.24 110.931C1288.64 111.158 1289.47 111.139 1290.74 110.855C1293.8 110.288 1296.81 109.645 1299.79 108.927C1302.76 108.208 1305.79 107.603 1308.87 107.111C1315.23 105.939 1321.69 105.22 1328.25 104.955C1330.9 104.918 1333.68 105.201 1336.63 105.806C1338.75 106.241 1340.58 107.073 1342.13 108.34C1343.69 109.607 1345.22 110.95 1346.77 112.387C1347.11 112.765 1347.41 113.163 1347.68 113.579C1347.94 114.013 1347.9 114.486 1347.58 114.997C1347.34 115.489 1346.99 115.734 1346.56 115.753C1346.12 115.753 1345.67 115.753 1345.24 115.753C1340.75 115.829 1336.39 116.264 1332.17 117.096C1327.93 117.909 1323.68 118.817 1319.39 119.819C1311.8 121.445 1304.11 122.807 1296.31 123.941L1293.78 124.49C1292.76 124.698 1292.32 125.322 1292.46 126.362C1292.51 126.608 1292.53 126.854 1292.53 127.081C1292.53 127.308 1292.55 127.497 1292.59 127.667C1294.12 136.952 1295.8 146.161 1297.62 155.295C1299.43 164.429 1301.5 173.562 1303.8 182.677C1305.64 190.052 1307.34 197.333 1308.93 204.538C1310.52 211.743 1312.09 219.004 1313.66 226.341C1313.94 227.684 1314.19 229.027 1314.37 230.35C1314.56 231.674 1314.73 233.036 1314.85 234.416C1315.09 237.196 1316.21 239.314 1318.19 240.789C1320.18 242.264 1322.56 242.831 1325.3 242.51C1327.44 242.226 1329.54 241.886 1331.56 241.508C1333.61 241.11 1335.69 240.732 1337.8 240.373C1342.97 239.352 1348.11 238.387 1353.25 237.48C1358.4 236.553 1363.56 235.626 1368.74 234.7C1370.35 234.359 1371.96 234.208 1373.6 234.265C1375.25 234.303 1376.87 234.378 1378.48 234.473C1381 234.643 1382.85 235.74 1384.08 237.782C1384.66 238.898 1384.87 239.73 1384.68 240.297C1384.49 240.865 1383.83 241.356 1382.68 241.772C1380.54 242.491 1378.35 243.209 1376.12 243.909C1373.89 244.609 1371.63 245.233 1369.38 245.819C1364.62 247.01 1359.89 248.183 1355.24 249.299C1350.59 250.433 1345.88 251.587 1341.09 252.778C1339.49 253.119 1337.94 253.497 1336.44 253.913C1334.95 254.329 1333.44 254.688 1331.92 255.01C1330.09 255.482 1328.37 256.144 1326.78 256.976C1325.19 257.808 1323.49 258.489 1321.67 259.056C1318.76 259.851 1315.83 260.267 1312.88 260.267C1309.93 260.267 1307.02 259.756 1304.14 258.697C1302.21 257.96 1300.53 256.844 1299.06 255.35C1297.6 253.856 1296.31 252.211 1295.22 250.414C1294.14 248.712 1293.42 246.916 1293.02 245.063C1292.65 243.285 1292.12 241.545 1291.45 239.843C1290.77 238.141 1290.09 236.421 1289.37 234.738C1288.41 232.298 1287.58 229.821 1286.88 227.344C1286.16 224.847 1285.5 222.351 1284.87 219.836C1283.53 214.39 1282.09 209.001 1280.56 203.687C1279.03 198.373 1277.56 193.002 1276.14 187.575C1274.85 182.829 1273.58 178.063 1272.3 173.317C1271.01 168.57 1269.92 163.767 1268.97 158.945C1268.48 156.222 1267.93 153.574 1267.33 150.964C1266.72 148.355 1266.23 146.086 1265.81 144.138V144.062Z" fill="white"/>
<path d="M692.561 111.027C690.121 111.027 687.663 111.027 685.224 111.027C596.156 110.819 507.239 106.621 420.951 98.5655C383.602 95.086 346.141 90.7933 309.606 85.8388C221.502 73.9063 138.202 58.0972 62.0119 38.8464C40.4729 33.4002 24.9475 29.3155 15.8516 26.6681C6.8124 24.0395 2.68993 22.8482 3.50307 17.7802C3.88128 15.3596 6.01816 13.0526 9.44094 13.2795C10.6512 13.374 11.748 13.8468 12.5801 14.6032C15.8516 15.7378 26.952 19.085 64.6026 28.5969C140.396 47.7532 223.299 63.4866 311.024 75.3624C347.427 80.298 384.737 84.5718 421.934 88.0324C507.92 96.0504 596.496 100.23 685.243 100.457C725.37 100.551 766.085 99.8514 806.25 98.3575C889.645 95.294 974.572 88.732 1058.7 78.8986C1094.9 74.6816 1131.83 69.7271 1168.48 64.1863C1252.93 51.4218 1338.58 35.0832 1423.01 15.6055C1442.93 11.0291 1463.75 6.0368 1484.91 0.741881C1487.74 0.0421958 1490.6 1.76304 1491.3 4.5807C1492 7.39835 1490.28 10.2727 1487.46 10.9724C1466.22 16.2673 1445.35 21.2786 1425.38 25.8738C1340.68 45.4083 1254.79 61.8036 1170.05 74.606C1133.29 80.1656 1096.24 85.1391 1059.91 89.375C975.517 99.2462 890.307 105.827 806.629 108.909C768.77 110.309 730.439 111.027 692.542 111.027H692.561Z" fill="#F47F90"/>
</g>
<defs>
<clipPath id="clip0_4090_4644">
<rect width="1502.32" height="450.673" fill="white" transform="translate(0.458984 0.591797)"/>
</clipPath>
</defs>
</svg>
