<svg width="636" height="722" viewBox="0 0 636 722" fill="none" xmlns="http://www.w3.org/2000/svg">
<g clip-path="url(#clip0_4090_4756)">
<path d="M165.646 248.26C165.646 248.26 176.358 381.557 176.358 425.59C176.358 469.622 158.505 483.904 158.505 483.904C158.505 483.904 13.3111 586.267 3.78421 592.207C-5.74267 598.164 7.35482 627.913 41.8759 629.098C76.3971 630.283 81.1526 633.854 81.1526 633.854C81.1526 633.854 66.8702 658.848 104.962 675.516C143.054 692.184 168.048 667.19 184.7 689.799C201.368 712.407 197.798 723.119 225.162 720.749C252.542 718.363 259.683 683.858 278.721 698.141C297.759 712.423 302.53 725.52 325.139 717.178C347.747 708.852 283.476 587.452 290.618 536.278C297.759 485.105 472.719 368.46 472.719 368.46C472.719 368.46 275.15 366.074 165.646 248.244V248.26Z" fill="#F9E8EB"/>
<path d="M604.547 260.771C602.241 251.56 595.652 244.245 590.802 236.345C589.68 234.512 588.685 232.648 587.737 230.721C587.705 230.642 587.674 230.594 587.642 230.531C587.626 230.468 587.611 230.42 587.579 230.341C587.421 229.899 587.263 229.457 587.105 229.014C586.726 227.861 586.473 226.692 586.204 225.507C586.204 225.475 586.204 225.444 586.189 225.412C586.189 225.349 586.189 225.286 586.189 225.191C586.189 224.559 586.125 223.927 586.141 223.279C586.141 223.342 586.252 221.747 586.22 221.715C586.283 221.32 586.362 220.909 586.441 220.514C587.137 217.149 588.385 213.91 589.427 210.64C591.497 204.194 592.24 197.795 591.007 191.112C589.87 184.966 586.836 179.042 583.139 174.049C575.192 163.337 564.133 156.37 553.421 148.739C548.745 145.405 544.305 141.914 540.166 137.316C538.001 134.899 536.832 133.351 535.047 130.507C534.336 129.385 533.672 128.232 533.04 127.062C532.661 126.367 532.298 125.656 531.95 124.945C531.713 124.471 531.492 123.982 531.271 123.508C530.923 122.702 530.844 122.528 531.034 123.018C526.057 111.406 525.978 98.15 519.011 87.296C512.802 77.6112 502.627 71.5127 491.568 68.9058C479.671 66.0936 468.027 67.1521 456.083 68.9058C450.316 69.7432 443.491 70.5015 437.787 68.9848C431.673 67.3575 426.001 63.6763 420.045 60.8325C407.437 54.813 394.276 50.1997 380.326 48.7145C373.501 47.9878 366.675 48.288 359.913 49.4887C353.357 50.6578 347.242 53.2805 340.875 55.1448C327.778 58.984 315.265 54.892 302.12 51.2424C288.454 47.4506 274.029 44.4962 259.794 45.9181C247.139 47.182 235.021 51.5268 225.257 59.8529C220.201 64.1661 216.789 69.6484 213.171 75.1307C210.043 79.8546 207.167 82.2719 202.048 84.9262C197.23 87.4224 192.616 88.8602 186.928 91.23C180.988 93.6947 175.537 96.6175 170.766 101.025C161.46 109.62 157.163 123.207 164.794 134.362C167.622 138.485 171.224 141.803 174.7 145.342C175.522 146.179 176.311 147.017 177.07 147.902C177.165 148.012 177.259 148.123 177.354 148.233C177.354 148.233 177.907 148.976 178.018 149.134C178.113 149.276 178.192 149.418 178.286 149.56C168.254 153.684 158.569 158.645 149.453 164.554C138.71 171.505 127.081 179.753 121.552 191.713C118.787 197.7 117.539 204.462 119.561 210.893C121.283 216.407 124.854 220.941 129.341 224.48C133.259 227.577 137.54 230.152 141.569 233.091C141.79 233.264 142.375 233.707 142.47 233.786C142.944 234.181 143.402 234.576 143.844 235.002C144.587 235.697 145.266 236.44 145.961 237.183C146.04 237.262 146.104 237.34 146.167 237.388C146.198 237.451 146.262 237.53 146.309 237.625C146.609 238.115 146.941 238.573 147.225 239.078C147.51 239.568 147.747 240.074 148.015 240.564C148.047 240.627 148.063 240.674 148.094 240.737C148.173 240.958 148.268 241.195 148.347 241.432C148.647 242.301 148.884 243.186 149.09 244.087C149.216 244.624 149.295 245.177 149.406 245.714C149.042 243.866 149.406 245.667 149.421 246.03C149.627 248.321 149.595 250.628 149.421 252.934C149.358 253.898 149.248 254.846 149.137 255.794C149.105 255.983 149.011 256.821 148.979 256.995C148.916 257.39 148.853 257.8 148.789 258.195C148.363 260.834 147.857 263.472 147.352 266.111C145.503 275.906 143.433 286.381 146.309 296.192C149.658 307.599 159.106 315.056 170.308 318.058C181.383 321.013 192.711 319.828 203.992 320.381C205.192 320.444 206.409 320.523 207.61 320.634C208.178 320.681 208.747 320.744 209.332 320.823C209.569 320.871 210.643 321.029 210.69 321.029C213.266 321.487 215.888 322.119 218.321 323.114C218.495 323.225 219.475 323.683 219.522 323.699C220.138 324.015 220.723 324.346 221.307 324.71C221.781 325.01 222.255 325.326 222.714 325.658C222.872 325.8 223.725 326.511 223.741 326.527C226.126 328.723 227.201 330.334 229.033 333.146C232.304 338.155 235.527 343.147 239.777 347.397C243.805 351.426 248.514 354.918 253.49 357.683C263.523 363.228 274.867 366.151 286.289 366.672C292.04 366.941 297.807 366.451 303.479 365.456C310.02 364.318 316.355 362.138 322.928 361.237C323.386 361.174 325.756 360.985 326.925 360.969C327.62 360.969 328.315 360.969 329.01 361C329.152 361 330.148 361.079 330.258 361.064C331.791 361.269 333.292 361.743 334.761 362.233C334.935 362.296 335.061 362.327 335.172 362.359C335.267 362.422 335.393 362.486 335.567 362.596C336.357 363.038 337.163 363.433 337.937 363.923C338.316 364.16 338.695 364.413 339.074 364.666C339.106 364.697 339.959 365.298 340.149 365.424C341.128 366.182 342.06 367.02 342.977 367.841C345.046 369.737 347.005 371.728 349.012 373.703C353.357 378 357.986 382.155 363.437 385.015C369.345 388.112 375.649 389.85 382.269 390.482C388.984 391.114 395.683 389.944 402.081 387.938C408.101 386.058 413.014 384.273 419.081 384.762C419.16 384.762 420.25 384.904 420.44 384.92C420.977 385.015 421.514 385.094 422.051 385.205C423.22 385.442 424.374 385.71 425.527 386.026C428.561 386.832 431.547 387.843 434.501 388.87C439.667 390.655 444.834 392.583 450.221 393.578C456.367 394.7 462.813 394.905 468.785 392.804C474.141 390.908 478.739 387.748 482.894 383.925C486.701 380.418 490.019 376.452 493.653 372.787C495.17 371.254 496.765 369.753 498.456 368.394C498.614 368.3 499.372 367.731 499.467 367.683C499.988 367.336 500.526 366.988 501.063 366.656C501.521 366.388 501.979 366.135 502.437 365.882C502.611 365.788 503.954 365.187 503.922 365.187C509.926 362.833 514.824 362.928 521.349 362.406C527.542 361.917 533.799 361.206 539.581 358.852C551.115 354.144 560.104 345.091 564.812 333.573C567.214 327.68 567.751 321.408 568.43 315.135C568.509 314.488 568.573 313.824 568.652 313.176C568.699 312.971 568.889 311.675 568.889 311.707C569.11 310.475 569.362 309.242 569.71 308.026C569.884 307.41 570.089 306.809 570.295 306.209C570.374 306.098 570.911 304.834 570.895 304.866C571.227 304.25 571.622 303.697 571.954 303.097C572.001 303.018 572.033 302.939 572.064 302.891C572.096 302.86 572.127 302.828 572.159 302.781C572.902 301.959 573.644 301.153 574.466 300.395C574.876 300.016 575.303 299.668 575.73 299.305C575.777 299.257 575.809 299.242 575.856 299.194C575.919 299.147 575.998 299.099 576.077 299.052C577.989 297.772 579.901 296.524 581.907 295.371C585.778 293.143 589.743 291.073 593.346 288.403C597.406 285.386 601.056 281.815 603.109 277.107C605.4 271.877 605.874 266.316 604.468 260.755L604.547 260.771Z" fill="#F9B2A3"/>
<path d="M279.196 87.6447C278.359 83.2999 277.411 78.9551 276.384 74.6578C275.42 70.6132 274.504 66.3474 272.071 62.8716C270.965 61.2917 268.942 60.5649 267.189 61.5919C265.625 62.5082 264.787 64.8939 265.909 66.4738C268.058 69.523 268.721 73.2674 269.574 76.8222C270.586 81.0406 271.502 85.2748 272.323 89.5406C273.935 97.8351 275.183 106.193 276.068 114.598C276.273 116.51 277.569 118.169 279.638 118.169C281.408 118.169 283.414 116.525 283.209 114.598C282.245 105.561 280.934 96.5712 279.212 87.6447H279.196Z" fill="#3E8729"/>
<path d="M296.733 164.809C296.417 159.548 294.6 154.635 292.656 149.784C291.155 146.024 286.052 146.609 285.642 150.732C285.326 153.955 281.55 156.973 279.464 159.595C276.51 163.308 274.282 167.432 272.576 171.84C270.19 163.024 267.014 154.429 263.017 146.182C260.742 141.458 258.198 136.892 253.759 133.89C252.163 132.816 249.809 133.59 248.877 135.17C247.85 136.924 248.561 138.978 250.157 140.052C253.237 142.137 254.928 145.834 256.508 149.057C258.435 152.976 260.157 156.989 261.69 161.065C264.866 169.565 267.22 178.365 268.721 187.323C268.926 188.555 269.116 189.803 269.289 191.036C269.353 194.006 269.653 196.976 270.19 199.915C270.206 200.215 270.237 200.515 270.253 200.815C270.111 201.037 269.953 201.258 269.811 201.479C268.752 203.09 269.495 205.429 271.091 206.361C272.828 207.388 274.914 206.693 275.972 205.081C275.988 205.05 276.02 205.018 276.036 204.986C276.731 204.465 277.268 203.722 277.442 202.869C279.875 199.204 282.292 195.523 284.725 191.857C287.522 187.623 290.539 183.452 293.02 179.013C295.453 174.652 297.048 169.865 296.748 164.809H296.733Z" fill="#3E8729"/>
<path d="M411.418 151.049C408.242 153.813 403.692 154.667 399.774 155.788C394.797 157.226 389.82 158.664 384.828 160.101L369.882 164.415C367.085 165.22 364.273 166.01 361.571 167.053C363.689 162.076 366.485 157.305 368.807 152.534C371.114 147.778 372.71 142.675 375.348 138.093C377.797 133.827 380.989 130.146 384.749 127.002C386.234 125.77 386.029 123.226 384.749 121.947C383.279 120.477 381.178 120.698 379.693 121.947C375.554 125.407 372.015 129.609 369.297 134.27C366.501 139.057 364.858 144.413 362.409 149.374C358.585 157.179 354.004 164.825 352.139 173.31C350.97 174.716 350.038 176.327 349.438 178.144C348.837 179.977 350.133 182.046 351.934 182.536C352.266 182.631 352.598 182.647 352.914 182.647C353.561 182.994 354.32 183.137 355.078 183.073C359.755 184.211 364.478 185.064 369.25 185.633C374.732 186.281 380.388 186.739 385.871 185.98C388.62 185.601 391.242 184.811 393.691 183.484C396.045 182.204 398.162 180.467 400.232 178.792C403.85 175.869 407.342 172.725 410.264 169.075C413.693 164.81 416.426 159.975 417.358 154.524C417.959 151.001 414.183 148.615 411.386 151.049H411.418Z" fill="#3E8729"/>
<path d="M387.939 60.7719C387.608 58.876 385.285 57.8017 383.547 58.2756C381.541 58.8286 380.719 60.7561 381.051 62.6678C382.157 68.8611 380.972 75.2123 379.155 81.1528C377.275 87.3303 374.763 93.3497 371.982 99.1638C369.17 105.025 365.978 110.681 362.518 116.179C360.149 119.955 357.7 123.7 355.519 127.586C354.208 113.004 347.367 98.99 338.109 87.4725C334.522 83.0013 330.415 78.6407 324.695 77.0766C321.488 76.2077 319.387 79.6045 320.667 82.3219C322.863 87.0143 324 92.1174 324.221 97.2995C324.458 102.987 323.937 108.691 324.553 114.347C325.675 124.695 330.604 133.59 336.955 141.648C340.368 145.961 344.128 149.974 347.92 153.939C348.773 154.84 349.753 155.109 350.685 154.998C352.786 155.693 355.504 154.619 355.44 151.759C355.156 139.783 362.582 129.482 368.68 119.782C375.774 108.501 381.904 96.32 385.87 83.5701C388.176 76.1603 389.298 68.4503 387.924 60.7561L387.939 60.7719Z" fill="#3E8729"/>
<path d="M489.844 236.425C488.596 229.284 485.768 222.364 480.459 217.277C475.198 212.237 468.357 208.951 461.469 206.786C453.917 204.401 446.207 203.848 438.339 204.069C432.872 204.227 425.542 204.258 422.176 199.55C422.113 199.282 422.05 199.013 421.987 198.744C421.987 198.713 422.003 198.681 422.018 198.65C423.472 188.001 428.338 179.043 434.721 170.985C436.664 169.326 438.75 167.826 440.835 166.325C447.518 161.506 453.601 156.229 459.004 150.004C463.175 145.201 466.999 140.114 470.727 134.963C473.966 131.393 477.015 127.632 479.733 123.635C480.823 122.04 480.033 119.67 478.453 118.753C476.683 117.726 474.661 118.437 473.571 120.033C472.339 121.85 471.012 123.588 469.637 125.278C468.958 125.579 468.357 126.084 467.883 126.716C467.014 127.917 466.161 129.133 465.292 130.334C459.557 136.591 453.174 142.278 446.965 148.029C440.788 153.733 434.705 159.689 429.444 166.277C427.248 168.22 425.178 170.322 423.393 172.755C421.228 175.678 419.396 178.885 417.689 182.092C415.857 185.536 414.293 189.154 413.819 193.057C413.408 196.39 414.04 199.424 415.462 201.999C416.694 207.007 418.306 211.953 420.928 216.392C422.619 219.268 424.767 221.938 427.359 224.055C430.629 226.709 434.373 228.384 438.26 229.948C444.39 232.397 450.267 235.272 455.26 239.49C460.347 243.788 464.534 248.78 467.82 254.547C471.328 260.693 473.729 267.803 474.456 274.675C474.835 278.23 478.99 279.494 481.107 276.476C489.212 264.927 492.277 250.265 489.86 236.425H489.844Z" fill="#3E8729"/>
<path d="M291.329 214.747C290.334 211.635 285.12 211.066 284.441 214.747C282.229 226.692 271.185 233.596 262.085 240.216C258.862 242.57 255.765 245.082 252.89 247.799C250.109 249.284 247.408 250.896 244.974 252.966C241.688 255.778 239.303 259.522 237.833 263.567C236.585 260.265 235.1 257.042 233.362 253.929C227.643 243.597 220.976 233.722 213.882 224.29C212.728 222.758 210.801 221.952 209 223.01C207.483 223.895 206.551 226.344 207.72 227.892C214.593 237.04 221.023 246.583 226.663 256.552C232.13 266.205 235.211 276.696 235.163 287.85C235.147 292.116 241.309 292.416 242.194 288.751C242.826 288.213 243.189 287.471 243.331 286.633C243.568 286.302 243.742 285.907 243.805 285.433C244.706 279.824 245.638 274.073 247.803 268.78C249.841 263.772 253.206 259.901 257.756 257.01C263.033 253.661 268.673 251.006 273.745 247.309C278.879 243.565 283.682 239.394 287.332 234.149C291.25 228.54 293.462 221.462 291.313 214.732L291.329 214.747Z" fill="#3E8729"/>
<path d="M340.163 302.987C334.191 294.977 327.24 287.662 320.651 280.157C317.349 276.397 312.404 270.188 306.764 273.79C305.137 274.833 304.489 276.966 305.484 278.672C306.432 280.283 308.723 280.994 310.35 279.967C310.524 280.078 311.188 280.426 311.425 280.615C312.199 281.231 312.847 282.069 313.51 282.827C315.422 285.007 317.334 287.188 319.245 289.352C323.021 293.65 326.861 297.915 330.542 302.292C337.067 310.033 343.165 319.165 342.517 329.735C342.407 331.662 344.24 333.305 346.088 333.305C348.11 333.305 349.548 331.662 349.659 329.735C350.243 319.955 345.883 310.681 340.163 303.003V302.987Z" fill="#3E8729"/>
<path d="M440.078 268.481C439.588 266.68 437.518 265.384 435.685 265.985C425.937 269.176 418.306 276.159 412.066 284.075C405.051 292.97 398.842 302.623 392.743 312.15C391.306 314.409 389.9 316.684 388.509 318.991C388.256 314.567 387.403 310.159 385.887 305.956C384.512 302.117 382.711 298.42 380.388 295.055C378.003 291.595 374.985 287.266 370.672 286.192C368.286 285.607 366.327 287.298 366.153 289.636C365.537 298.009 368.571 306.162 371.114 314.014C373.626 321.756 376.391 329.45 380.246 336.638C382.016 339.94 386.424 338.171 386.835 335.201C387.451 334.9 387.972 334.442 388.304 333.826C393.849 323.288 400.374 313.319 407.026 303.46C412.445 295.434 417.753 287.108 424.942 280.536C428.607 277.17 432.873 274.406 437.581 272.873C439.414 272.273 440.599 270.408 440.078 268.481Z" fill="#3E8729"/>
<path d="M586.252 348.708C580.818 346.307 575.193 343.858 570.532 340.114C568.147 338.186 566.14 335.958 564.45 333.415C562.68 330.761 560.99 328.091 558.904 325.657C554.781 320.839 549.709 316.921 544.622 313.16C539.487 309.353 534.305 305.529 528.554 302.701C524.604 300.758 520.465 299.352 516.183 298.909C516.594 297.756 517.036 296.619 517.526 295.481C519.754 290.283 522.361 285.212 525.078 280.267C527.811 275.29 530.734 270.424 533.847 265.684C535.348 263.393 536.896 261.118 538.492 258.89C539.124 258.021 539.74 257.152 540.577 256.426C541.225 255.841 541.62 255.636 542.236 255.62C546.834 255.588 546.834 248.447 542.236 248.479C537.149 248.51 534.179 252.65 531.54 256.41C528.744 260.375 526.089 264.436 523.577 268.591C518.506 276.949 513.782 285.686 510.148 294.77C510.037 295.055 509.927 295.355 509.816 295.655C497.999 307.804 497.288 328.075 506.056 342.199C515.82 357.919 535.474 365.503 553.453 364.144C565.287 363.244 576.757 358.946 586.252 351.837C587.185 351.126 587.611 349.356 586.252 348.756V348.708Z" fill="#3E8729"/>
<path d="M625.986 178.205C625.781 175.471 623.126 173.813 620.614 175.124C605.479 183.008 587.642 182.028 570.926 182.234C562.189 182.344 553.389 182.676 544.81 184.445C541.698 185.093 538.648 185.962 535.71 187.052C539.091 183.798 543.009 181.365 547.796 181.175C549.724 181.096 551.367 179.595 551.367 177.604C551.367 175.74 549.739 173.955 547.796 174.034C535.836 174.539 528.316 184.098 521.759 192.93C520.574 194.525 519.389 196.105 518.22 197.701C511.237 204.084 505.897 212.141 500.715 219.978C500.32 220.562 500.178 221.257 500.225 221.937C499.672 223.011 499.672 224.386 500.272 225.428C500.667 226.108 501.236 226.566 501.868 226.85C503.401 227.735 505.091 227.308 506.244 226.139C513.907 222.19 522.012 218.098 530.717 217.545C535.504 217.229 540.149 218.161 544.826 219.014C549.755 219.914 554.748 220.531 559.756 220.704C569.599 221.036 579.568 219.82 589.048 217.134C597.958 214.606 606.727 210.862 613.837 204.795C621.452 198.301 626.776 188.395 625.986 178.189V178.205Z" fill="#3E8729"/>
<path d="M592.414 96.005C592.05 94.2355 589.744 92.861 588.021 93.5087C577.483 97.4427 566.44 100.144 555.238 101.266C549.551 101.835 543.642 101.724 538.128 103.446C533.641 104.853 529.549 107.254 526.041 110.382C523.83 112.357 521.949 114.616 520.385 117.097C519.216 117.413 518.316 118.377 517.81 119.593C513.055 130.858 513.75 143.908 519.121 154.825C520.117 156.863 523.245 157.148 524.73 155.552C528.87 151.081 533.056 146.467 538.159 143.071C543.626 139.421 549.867 137.004 555.839 134.334C567.056 129.31 580.122 124.996 587.784 114.79C591.829 109.403 593.772 102.656 592.414 96.005Z" fill="#3E8729"/>
<path d="M493.858 1.11267C492.531 0.338509 490.603 0.5123 489.529 1.66564C476.415 15.7111 456.714 19.9926 439.667 27.3234C431.151 30.9888 422.841 35.5232 416.078 41.9692C408.969 48.7313 404.371 57.5156 402.286 67.0583C400.09 77.1539 400.279 87.534 400.817 97.8034C400.437 98.2142 400.058 98.625 399.711 99.0673C398.478 100.552 398.257 102.67 399.711 104.123C400.848 105.261 403.013 105.545 404.34 104.518C404.419 104.518 404.498 104.55 404.577 104.55C406.425 104.55 408.258 102.907 408.147 100.979C408.147 100.9 408.147 100.821 408.147 100.742C413.551 96.1761 420.471 93.7904 427.343 92.0683C437.202 89.6037 447.361 88.0711 456.366 83.047C472.655 73.9783 482.688 56.9626 488.17 39.6626C491.725 28.4294 493.636 16.7538 495.517 5.14145C495.769 3.54574 495.343 1.96582 493.873 1.11267H493.858Z" fill="#3E8729"/>
<path d="M256.206 110.094C251.735 102.795 247.138 95.4005 244.088 87.3588C241.213 79.7436 240.455 71.7018 238.48 63.8497C236.536 56.0923 232.855 49.1407 226.52 44.1007C220.421 39.2504 213.248 36.2959 206.06 33.4363C195.98 29.4233 185.9 25.4261 175.82 21.429C173.371 20.4494 170.512 23.4038 171.428 25.8211C174.414 33.7207 177.416 41.6361 179.375 49.8674C180.307 53.7856 180.971 57.7354 181.287 61.7484C181.634 65.9509 181.745 70.1693 182.235 74.3719C183.104 81.8449 185.237 88.9071 189.644 95.0688C193.626 100.63 198.713 105.164 204.274 109.098C209.899 113.08 215.966 116.366 222.096 119.494C222.096 119.526 222.096 119.557 222.096 119.605C222.096 121.39 223.739 123.349 225.667 123.175C235.873 122.212 245.7 119.478 254.911 114.96C256.617 114.123 257.138 111.626 256.19 110.078L256.206 110.094Z" fill="#3E8729"/>
<path d="M198.557 163.622C195.286 162.547 191.81 161.931 188.666 160.525C185.649 159.166 183.5 156.97 181.683 154.253C179.661 151.235 177.891 148.091 175.585 145.279C173.294 142.482 170.482 140.128 167.464 138.138C161.429 134.156 154.366 131.865 147.241 130.886C137.446 129.543 127.666 130.554 117.934 131.929C115.09 132.339 114.742 136.147 116.354 137.901C124.206 146.448 132.911 154.126 141.237 162.2C145.361 166.197 149.374 170.289 153.134 174.618C156.752 178.82 159.88 183.307 163.04 187.858C166.168 192.376 169.502 196.705 173.831 200.07C174.732 203.135 179.313 203.341 180.514 200.639C180.609 200.513 180.704 200.402 180.783 200.276C181.351 199.312 181.367 198.253 181.02 197.305C181.083 197.084 181.083 197.1 181.32 196.689C181.873 195.773 182.394 195.188 183.389 194.304C184.1 193.672 185.396 192.866 186.455 192.266C187.608 191.618 188.809 191.049 190.009 190.512C196.787 187.526 203.597 184.603 210.39 181.649C211.512 181.159 212.144 179.705 212.16 178.568C212.223 170.795 205.24 165.786 198.541 163.59L198.557 163.622Z" fill="#3E8729"/>
<path d="M314.918 309.732C315.692 306.856 317.478 304.297 317.272 301.216C317.067 298.23 315.329 295.718 313.038 293.885C304.285 286.854 291.678 286.333 283.826 278.37C282.183 276.696 280.065 277.201 278.817 278.512C268.801 285.148 261.422 295.386 258.326 307.014C256.635 313.381 256.73 319.748 256.841 326.273C256.888 329.575 256.856 332.893 256.003 336.1C255.166 339.213 253.539 341.978 251.738 344.616C247.156 351.378 242.179 357.903 237.392 364.539C236.096 366.34 237.392 369.357 239.525 369.784C261.233 374.113 284.584 368.631 301.726 354.506C305.739 351.204 309.42 347.207 311.838 342.562C314.539 337.412 315.313 331.882 314.982 326.131C314.681 320.759 313.481 315.04 314.903 309.747L314.918 309.732Z" fill="#3E8729"/>
<path d="M200.356 250.233C199.693 246.9 199.029 243.566 198.555 240.185C198.097 236.962 198.018 233.692 197.607 230.469C196.738 223.801 193.768 218.035 187.875 214.496C185.442 213.026 183.151 214.828 182.661 216.96C182.55 217.292 182.487 217.64 182.519 218.003C183.34 232.396 174.54 245.715 162.628 253.567C156.024 257.928 148.361 259.902 141.473 263.71C137.618 265.843 134.331 268.639 131.74 272.194C129.181 275.702 127.506 279.825 126.084 283.901C122.514 294.092 119.844 304.614 117.885 315.231C117.569 316.937 118.343 319.339 120.381 319.623C132.799 321.361 145.043 318.881 157.13 316.147C166.23 314.094 175.457 311.581 183.625 306.968C192.299 302.07 199.155 294.566 201.841 284.834C205.001 273.411 202.631 261.561 200.372 250.218L200.356 250.233Z" fill="#3E8729"/>
<path d="M496.23 376.151C493.117 368.377 487.351 362.326 481.379 356.639C478.329 353.732 475.264 350.761 471.71 348.439C468.534 346.369 464.932 344.963 461.33 343.889C453.635 341.582 445.293 340.776 438.405 336.353C437.473 335.768 436.335 335.752 435.34 336.131C434.977 336.005 434.613 335.926 434.234 335.926C432.228 335.926 430.758 337.569 430.663 339.497C430.474 343.336 430.3 347.159 430.11 350.998C429.937 354.806 429.368 358.819 430.126 362.595C431.485 369.278 438.073 372.485 443.208 375.961C452.972 382.581 461.914 391.018 467.712 401.366C470.809 406.896 472.974 413.152 473.574 419.361C473.906 422.9 478.156 424.212 480.225 421.162C482.737 417.45 485.265 413.737 487.777 410.024C490.068 406.659 492.47 403.325 494.413 399.754C496.42 396.089 497.826 392.187 498.189 388C498.537 384.003 497.699 379.863 496.214 376.151H496.23Z" fill="#3E8729"/>
<path d="M634.549 264.435C629.336 258.621 623.79 253.123 617.913 248.004C615.022 245.492 612.02 243.043 608.481 241.511C604.689 239.868 600.66 239.346 596.584 238.825C588.811 237.845 580.864 237.15 573.486 240.326C570.405 241.653 567.608 243.644 565.523 246.282C563.248 249.173 561.889 252.57 560.894 256.077C559.93 259.474 559.345 263.045 557.939 266.315C556.739 269.08 555.064 271.403 552.299 272.682C549.692 273.899 550.277 277.485 552.299 278.844C553.421 279.602 554.669 280.092 555.949 280.377C556.66 280.787 557.528 280.945 558.54 280.677C558.603 280.661 558.666 280.629 558.729 280.614C559.646 280.582 560.562 280.44 561.462 280.187C562.41 279.903 563.042 279.365 563.453 278.718C566.028 277.375 568.43 275.684 570.942 274.167C574.908 271.75 579.252 270.312 583.802 269.507C593.614 267.769 603.741 269.238 613.552 270.139C619.698 270.692 625.876 271.071 632.037 270.518C635.15 270.249 636.714 266.821 634.565 264.419L634.549 264.435Z" fill="#3E8729"/>
<path d="M587.31 253.802C587.2 253.297 587.089 252.776 586.979 252.27C586.915 251.938 586.852 251.622 586.789 251.29C586.789 251.148 586.663 250.263 586.647 250.121C586.599 249.616 586.568 249.11 586.536 248.589C586.046 239.852 587.184 230.483 580.896 223.421C579.063 221.351 576.456 219.661 573.707 219.25C572.175 219.029 570.848 219.06 569.331 219.218C568.746 219.281 568.099 219.218 567.53 219.329C567.356 219.266 567.151 219.218 567.008 219.202C566.882 219.123 566.771 219.06 566.724 219.029C566.566 218.934 566.424 218.823 566.329 218.744C565.665 218.112 565.002 217.496 564.402 216.817C563.169 215.426 562.016 213.925 560.657 212.646C554.022 206.373 543.784 205.489 535.805 209.612C533.925 210.576 532.14 211.935 530.718 213.483C530.133 214.131 529.564 214.81 529.027 215.474C528.853 215.474 528.648 215.458 528.474 215.442C523.213 215.221 518.695 218.823 515.582 222.757C509.91 229.914 507.619 238.935 509.231 247.941C509.294 248.273 509.373 248.589 509.452 248.921C506.103 251.701 504.191 256.299 504.144 260.612C504.065 267.548 508.631 273.235 512.912 278.196C513.528 278.907 514.366 279.35 515.282 279.571C515.314 279.681 515.361 279.792 515.393 279.918C515.756 281.072 516.151 282.194 516.625 283.299C517.683 285.812 519.232 287.834 521.459 289.414C523.577 290.93 526.136 291.468 528.68 291.768C530.718 292.005 532.756 291.91 534.794 291.91C535.742 291.91 536.69 291.91 537.638 292.005C537.764 292.005 537.891 292.036 538.017 292.036C538.096 292.052 538.191 292.084 538.333 292.115C538.902 292.258 539.455 292.368 540.023 292.526C544.779 293.885 549.108 296.16 554.164 296.271C558.635 296.365 563.264 294.801 566.803 292.1C570.895 288.971 573.407 285.006 574.797 280.061C574.955 279.508 575.129 278.955 575.287 278.402C575.287 278.386 575.319 278.291 575.366 278.196C575.445 278.023 575.587 277.738 575.635 277.659C575.635 277.659 575.73 277.501 575.809 277.359C576.125 277.059 576.425 276.711 576.756 276.411C576.788 276.379 576.835 276.332 576.883 276.3C576.93 276.269 576.962 276.253 577.025 276.206C577.341 276 577.657 275.779 577.989 275.558C578.81 275.037 579.648 274.547 580.469 274.01C584.972 271.118 588.084 267.342 588.416 261.813C588.574 259.127 587.926 256.378 587.342 253.771L587.31 253.802Z" fill="white"/>
<path d="M428.703 108.514C427.629 103.806 424.248 100.062 420.425 97.3126C416.633 94.5793 412.067 93.0784 407.627 91.7829C405.321 91.1035 402.982 90.4874 400.723 89.6816C400.186 89.492 399.633 89.2866 399.096 89.0654C398.969 89.0022 398.401 88.7495 398.274 88.6863C397.2 88.1649 396.141 87.6119 395.099 87.0431C390.88 84.7207 386.709 82.1928 382.033 80.8815C377.182 79.507 372.016 79.3332 367.008 79.5386C357.165 79.9493 345.963 80.3759 339.849 89.334C339.738 89.492 339.644 89.65 339.549 89.808C335.125 89.887 331.602 93.584 330.433 97.6918C329.106 102.384 330.701 107.092 334.098 110.473C337.116 113.475 341.145 115.324 344.715 117.551C344.842 117.662 344.968 117.757 345.079 117.851C345.474 118.199 345.869 118.562 346.232 118.957C346.343 119.068 346.437 119.194 346.532 119.305C346.706 119.637 347.132 120.569 347.069 120.206C347.117 120.364 347.164 120.522 347.196 120.68C347.148 120.553 347.196 120.948 347.196 121.343C347.085 121.943 347.006 122.56 346.943 123.176C346.848 124.092 346.927 124.945 347.085 125.862C348.065 131.439 354.163 133.192 358.618 135.12C363.548 137.253 368.461 139.496 373.438 141.503C376.171 142.609 378.936 142.925 381.843 142.403C382.854 142.214 383.834 141.898 384.813 141.566C385.335 141.392 385.856 141.203 386.393 141.045C386.615 140.981 386.836 140.918 387.073 140.855C387.104 140.855 387.199 140.823 387.31 140.792C387.42 140.792 387.847 140.76 387.989 140.713C388.131 140.792 388.258 140.871 388.273 140.887C388.574 141.155 388.321 140.902 388.115 140.744C388.147 140.744 388.179 140.76 388.21 140.76C388.479 140.981 388.747 141.329 388.937 141.519C390.438 143.02 391.749 144.552 393.471 145.8C397.911 149.023 403.472 147.759 408.307 146.369C413.236 144.963 417.944 142.767 420.883 138.39C422.273 136.321 423.047 133.793 423.126 131.312C423.205 129.195 422.558 127.331 421.625 125.53C423.679 124.535 425.338 122.955 426.634 121.075C429.114 117.504 429.604 112.701 428.64 108.53L428.703 108.514Z" fill="white"/>
<path d="M536.626 105.797C533.656 101.879 530.101 98.5609 526.404 95.3379C522.691 92.0991 518.757 88.876 514.286 86.7431C509.625 84.5313 504.917 83.6465 499.782 83.7097C497.76 83.7413 495.738 83.8203 493.716 83.6781C493.51 83.6781 493.321 83.6465 493.115 83.6307C493.02 83.6307 492.957 83.6307 492.91 83.6307C492.657 83.5675 492.404 83.4885 492.23 83.4411C492.088 83.4095 491.646 83.3305 491.298 83.2357C491.283 83.2199 491.267 83.2041 491.235 83.1725C491.061 82.9987 490.651 82.8408 490.445 82.7144C490.398 82.6828 490.398 82.667 490.366 82.6196C490.271 82.509 490.161 82.3984 490.05 82.272C489.592 81.2924 489.055 80.3603 488.612 79.3649C487.522 76.8529 486.037 74.641 483.699 73.1243C478.738 69.9171 471.739 71.5918 467.979 75.8891C467.331 76.6317 466.778 77.4216 466.272 78.2274C465.656 78.5434 465.056 78.891 464.487 79.3175C462.465 80.8027 460.443 82.3352 458.594 84.0415C454.723 87.6437 451.848 92.1938 451.516 97.5814C451.326 100.583 452.211 103.601 453.175 106.397C453.965 108.736 454.771 111.058 455.655 113.365C457.488 118.183 459.558 123.002 462.544 127.236C464.045 129.369 465.72 131.313 467.489 133.208C467.868 133.619 468.247 134.03 468.627 134.441C468.753 134.583 469.195 135.12 469.306 135.247C469.574 135.61 469.843 135.989 470.064 136.384C470.222 136.653 470.349 136.953 470.522 137.221C471.233 139.749 471.944 142.356 473.082 144.679C474.267 147.096 476.289 149.087 478.596 150.461C482.814 152.957 487.791 153.368 492.531 154.016C498.234 154.806 503.922 155.596 509.625 156.37C514.381 157.018 518.994 157.444 523.766 156.607C528.426 155.785 532.787 153.068 535.173 148.913C537.843 144.252 537.495 138.928 537.922 133.777C537.937 133.524 537.969 133.287 538.001 133.05C538.127 132.497 538.206 131.929 538.364 131.376C538.68 130.128 539.122 128.911 539.549 127.71C540.497 125.056 541.271 122.465 541.461 119.621C541.792 114.613 539.66 109.652 536.673 105.734L536.626 105.797Z" fill="white"/>
<path d="M508.126 173.417C505.693 168.804 501.19 165.692 496.087 164.791C493.543 164.333 490.984 164.206 488.409 163.97C488.172 163.954 487.919 163.922 487.682 163.891C487.603 163.891 487.287 163.843 487.097 163.812C487.018 163.812 486.955 163.78 486.939 163.78C486.702 163.733 486.465 163.685 486.228 163.638C485.723 163.527 485.217 163.401 484.712 163.243C484.506 163.18 483.811 162.895 483.637 162.832C482.057 162.058 480.556 161.173 479.119 160.146C478.818 159.941 478.534 159.72 478.234 159.498C478.234 159.498 477.855 159.214 477.633 159.04C476.844 158.408 476.069 157.776 475.279 157.128C471.63 154.174 468.012 151.425 463.62 149.671C458.912 147.791 453.65 147.649 448.642 147.633C443.349 147.617 438.009 148.076 433.87 151.757C432.827 152.689 432.006 153.747 431.279 154.901C427.977 156.781 425.623 160.241 424.596 163.875C423.269 165.17 422.558 166.987 423.19 168.946C423.348 169.436 423.585 169.91 423.885 170.352C423.932 173.417 424.264 176.514 423.995 179.579C423.964 179.721 423.853 180.59 423.822 180.764C423.727 181.285 423.616 181.807 423.506 182.328C423.221 183.624 422.874 184.919 422.526 186.199C421.894 188.506 421.246 190.828 420.836 193.182C420.077 197.59 419.998 202.188 421.578 206.438C423.316 211.13 426.507 214.811 431.279 216.549C436.366 218.398 441.785 216.707 446.699 215.143C447.852 214.78 449.005 214.416 450.19 214.148C450.696 214.037 451.186 213.926 451.691 213.832C451.707 213.832 451.818 213.816 451.928 213.8C452.165 213.784 452.734 213.721 452.813 213.721C453.919 213.642 455.041 213.642 456.147 213.721C456.336 213.721 457.221 213.832 457.316 213.832C457.806 213.911 458.295 214.005 458.785 214.1C459.875 214.337 460.934 214.669 461.992 215.032C462.119 215.08 462.214 215.111 462.293 215.143C462.466 215.222 462.656 215.301 462.83 215.396C463.446 215.68 464.046 215.996 464.662 216.328C466.906 217.513 469.213 218.777 471.693 219.377C477.302 220.704 483.416 218.872 486.054 213.421C486.513 212.489 486.923 211.541 487.397 210.624C487.445 210.545 487.461 210.482 487.492 210.435C487.571 210.34 487.666 210.245 487.745 210.15C487.887 209.992 488.061 209.85 488.203 209.692C488.251 209.645 488.282 209.613 488.314 209.566C488.677 209.36 489.088 209.139 489.435 208.886C489.625 208.823 489.799 208.744 489.988 208.697C490.194 208.634 490.415 208.618 490.605 208.539C491.158 208.539 491.711 208.507 492.264 208.539C494.965 208.697 497.635 209.123 500.258 208.144C502.896 207.164 504.95 205.442 506.451 203.057C508.884 199.202 509.548 194.13 510.164 189.722C510.938 184.113 510.748 178.505 508.047 173.402L508.126 173.417Z" fill="white"/>
<path d="M481.882 252.16C480.349 247.484 477.379 242.918 472.876 240.643C470.016 239.205 467.094 238.873 463.934 238.778C463.302 238.762 462.654 238.747 462.022 238.683C461.975 238.652 461.248 238.51 461.027 238.447C460.521 238.304 460.031 238.131 459.542 237.957C459.526 237.957 459.51 237.957 459.494 237.957C459.178 237.815 458.862 237.657 458.546 237.514C453.68 235.097 449.304 232.127 443.711 231.779C440.851 231.59 437.913 232.19 435.132 232.838C433.9 233.122 432.667 233.438 431.435 233.707C430.866 233.833 430.282 233.944 429.713 234.039C429.665 234.039 429.634 234.039 429.586 234.054C429.207 234.086 428.812 234.133 428.433 234.149C427.864 234.181 427.296 234.149 426.711 234.133C426.679 234.133 426.648 234.133 426.616 234.133C426.3 234.07 425.984 234.007 425.668 233.912C424.341 233.565 423.077 233.043 421.782 232.617C419.159 231.748 416.331 231.368 413.566 231.684C407.578 232.395 402.602 235.318 397.957 238.984C397.656 239.221 397.388 239.473 397.088 239.71C395.618 240.69 394.275 241.891 393.09 243.265C392.822 243.518 392.537 243.771 392.269 244.039C391.716 244.577 391.321 245.256 391.068 245.983C390.405 247.025 389.804 248.116 389.299 249.253C388.414 251.228 387.671 253.25 386.96 255.288C386.945 255.336 386.929 255.383 386.913 255.431C386.297 255.936 385.681 256.442 385.08 256.979C380.799 260.834 378.429 265.558 377.907 271.309C377.449 276.428 378.381 282.052 380.325 286.808C382.458 292.006 385.949 296.651 391.068 299.21C395.887 301.627 401.306 302.338 406.646 302.101C412.081 301.848 417.674 301.011 422.982 299.81C425.984 299.131 428.812 298.041 431.593 296.73C432.162 296.461 432.73 296.192 433.299 295.924C433.362 295.892 433.726 295.734 433.915 295.639C434.058 295.576 434.231 295.513 434.231 295.513C434.911 295.276 435.59 295.039 436.285 294.881C436.538 294.818 436.807 294.77 437.059 294.723C437.17 294.723 437.565 294.66 437.77 294.644C439.113 294.549 440.456 294.612 441.783 294.739C441.783 294.739 441.957 294.755 442.099 294.77C442.305 294.802 442.7 294.865 442.779 294.881C443.6 295.023 444.406 295.181 445.212 295.355C447.929 295.924 450.599 296.635 453.348 297.077C458.009 297.82 463.065 297.899 467.536 296.177C472.845 294.123 476.731 290.22 478.042 284.564C478.674 281.863 479.069 279.113 479.78 276.428C480.491 273.71 481.313 271.009 481.913 268.259C483.082 262.967 483.572 257.421 481.866 252.176L481.882 252.16Z" fill="white"/>
<path d="M249.413 72.2266C249.413 72.2266 249.444 72.2898 249.46 72.3214C249.523 72.353 249.539 72.3688 249.571 72.3688C249.523 72.3214 249.46 72.274 249.397 72.2266H249.413Z" fill="white"/>
<path d="M263.333 69.7441C263.57 69.8547 263.901 69.9969 263.333 69.7441V69.7441Z" fill="white"/>
<path d="M304.175 50.8336C304.096 50.723 304.032 50.6282 303.969 50.5176C304.206 50.9284 304.238 50.9442 304.175 50.8336Z" fill="white"/>
<path d="M250.094 72.4955C249.921 72.4481 249.763 72.4165 249.589 72.3691C249.62 72.4007 249.636 72.4165 249.652 72.4481C249.763 72.4481 250 72.4797 250.094 72.4955Z" fill="white"/>
<path d="M244.484 34.6234C244.484 34.6234 244.484 34.6076 244.499 34.5918C244.452 34.6392 244.405 34.6866 244.373 34.734C244.42 34.6866 244.452 34.655 244.468 34.6234H244.484Z" fill="white"/>
<path d="M305.547 55.6523C305.515 55.7945 305.484 55.9051 305.484 55.9367C305.5 55.8419 305.531 55.7471 305.547 55.6523Z" fill="white"/>
<path d="M243.236 35.1292C242.888 35.0502 242.699 35.1608 242.778 35.2082C242.904 35.1924 243.046 35.1608 243.173 35.145C243.188 35.145 243.22 35.145 243.236 35.1292Z" fill="white"/>
<path d="M226.68 69.8125C226.759 69.9073 226.806 69.9547 226.853 70.0021C226.79 69.9389 226.727 69.8757 226.68 69.8125Z" fill="white"/>
<path d="M321.363 43.9628C319.23 39.4916 315.454 35.5418 310.936 33.4564C305.864 31.1181 300.54 30.8337 295.263 32.698C294.157 33.093 293.067 33.5354 291.961 33.8987C291.487 34.0567 291.013 34.2147 290.539 34.3411C290.223 34.4359 289.891 34.4991 289.575 34.5781C289.512 34.5781 289.481 34.5939 289.433 34.6097C288.912 34.6097 288.406 34.6097 287.885 34.6097C287.664 34.5623 287.427 34.5149 287.206 34.4675C286.747 34.3569 286.305 34.1989 285.863 34.0567C285.784 34.0409 285.626 33.9777 285.515 33.9303C285.325 33.8513 285.136 33.7565 284.962 33.6775C280.443 31.4973 276.431 28.6534 271.58 27.1525C266.319 25.5252 260.71 25.225 255.291 26.0782C252.59 26.5047 250.078 27.5633 247.992 29.3486C246.981 30.2017 246.144 31.3709 245.543 32.5558C245.338 32.9666 245.164 33.3932 244.959 33.8039C244.816 34.0725 244.674 34.3411 244.532 34.6097C244.564 34.5781 244.595 34.5465 244.627 34.5149C244.595 34.5465 244.548 34.5939 244.5 34.6413C244.5 34.6571 244.485 34.6729 244.469 34.6887C244.453 34.6887 244.453 34.7045 244.421 34.7361C244.406 34.7519 244.39 34.7677 244.374 34.7835C244.358 34.7835 244.248 34.8467 244.137 34.9099C243.837 34.9889 243.537 35.0679 243.237 35.1469C243.284 35.1469 243.316 35.1627 243.363 35.1785C243.316 35.1627 243.252 35.1627 243.173 35.1627C243.142 35.1627 243.126 35.1627 243.094 35.1785C242.921 35.2259 242.826 35.2259 242.778 35.2101C242.684 35.2259 242.605 35.2417 242.557 35.2417C240.598 35.3839 238.639 35.2417 236.696 35.1943C231.34 35.0679 226.189 36.395 222.018 39.8708C221.844 40.0288 221.671 40.1868 221.497 40.3448C215.177 43.1886 212.428 51.5938 215.604 57.787C216.331 59.209 217.31 60.4097 218.463 61.3892C218.621 61.5788 218.795 61.7368 218.969 61.9264C219.427 62.985 220.028 64.0277 220.77 65.0072C222.366 67.0611 224.483 68.3567 226.632 69.7786C226.647 69.7786 226.679 69.8102 226.695 69.826C226.884 69.984 227.09 70.2368 226.869 70.0156C226.963 70.1262 227.074 70.2368 227.185 70.3C227.248 70.379 227.295 70.4737 227.358 70.5685C227.611 70.9951 227.832 71.4375 228.054 71.8799C228.133 72.0695 228.322 72.496 228.354 72.575C229.349 75.0081 230.281 77.2358 232.003 79.2581C233.33 80.8222 235.147 81.9597 237.027 82.7655C238.181 83.2553 239.318 83.6976 240.503 84.1084C240.867 84.2348 241.246 84.3612 241.609 84.5034C241.799 84.5666 241.973 84.6456 242.162 84.7088C242.336 84.772 242.447 84.8036 242.526 84.8194C242.747 84.9458 243 85.1038 243.126 85.1828C243.331 85.2933 243.521 85.4355 243.726 85.5461C243.758 85.5777 243.774 85.6093 243.805 85.6409C243.868 85.7041 243.916 85.7357 243.947 85.7673C243.916 85.7357 243.884 85.6883 243.837 85.6093C243.979 85.7199 244.026 85.8305 243.963 85.7673C244.011 85.7989 244.026 85.8305 244.042 85.8305C244.232 86.1781 244.437 86.6205 244.5 86.7153C245.986 89.3379 248.245 91.3918 251.278 91.9606C253.964 92.4504 256.745 92.5294 259.462 92.7347C264.55 93.1455 269.7 93.8091 274.803 93.8881C277.505 93.9197 280.127 93.4773 282.576 92.3398C285.12 91.1548 286.842 88.8955 288.248 86.5415C288.485 86.1307 288.738 85.7199 288.991 85.3249C289.007 85.2933 289.07 85.2144 289.133 85.1354C289.212 85.0564 289.307 84.9774 289.338 84.9458C289.481 84.8194 289.607 84.693 289.733 84.5666C289.765 84.5508 289.812 84.535 289.828 84.5192C290.097 84.377 290.35 84.2032 290.634 84.061C290.792 83.9662 290.966 83.903 291.124 83.8082C291.203 83.7608 291.25 83.7292 291.298 83.6976C291.534 83.6186 291.787 83.5712 291.961 83.508C292.83 83.2079 293.699 82.9709 294.584 82.7339C299.007 81.5331 303.668 80.2534 306.844 76.6828C307.539 75.9087 308.171 75.0713 308.787 74.2181C310.114 73.4914 311.378 72.654 312.547 71.6903C313.606 71.5639 314.664 71.4059 315.644 71.0267C326.609 66.9505 325.534 52.6365 321.411 43.9786L321.363 43.9628Z" fill="white"/>
<path d="M450.175 61.53C449.922 60.9454 449.669 60.3767 449.369 59.8237C449.258 59.6183 449.148 59.3971 449.037 59.1917C449.021 59.1443 448.99 59.1127 448.958 59.0653C448.942 59.0022 448.911 58.939 448.895 58.8758C448.879 58.7336 448.848 58.544 448.848 58.5124C448.848 58.2438 448.895 57.9594 448.879 57.6908C448.879 57.6276 448.879 57.596 448.879 57.5644C448.879 57.5328 448.879 57.517 448.879 57.4696C449.195 54.6732 449.416 52.3191 449.006 49.5227C448.374 45.2411 446.225 41.3229 443.444 38.0683C440.632 34.7821 436.698 32.2858 432.527 31.1325C430.189 30.4847 427.708 30.3267 425.291 30.4057C424.043 30.4373 422.795 30.5321 421.547 30.5479C420.978 30.5479 420.393 30.5479 419.825 30.5321C419.524 30.5321 419.208 30.4847 418.908 30.4689C418.861 30.4689 418.845 30.4689 418.782 30.4531C414.579 29.6157 410.772 27.7514 406.806 26.2031C402.493 24.5284 397.911 23.5331 393.282 24.1176C388.305 24.7496 383.787 26.5349 379.047 28.0358C378.067 28.3518 377.072 28.652 376.061 28.9048C375.476 29.047 374.892 29.1892 374.307 29.2998C374.102 29.3472 373.012 29.4894 373.138 29.4894C370.737 29.7421 368.304 29.8053 365.902 30.0423C360.862 30.5479 356.012 31.7802 352.11 35.1928C348.397 38.4317 346.785 43.5822 347.844 48.3693C348.239 50.1704 349.155 51.9715 350.435 53.3619C350.435 53.4567 350.435 53.5515 350.435 53.6304C350.451 54.3098 350.435 54.9892 350.435 55.6685C350.387 58.5124 350.751 61.135 351.936 63.7419C353.926 68.0867 358.129 71.0411 362.521 72.5894C367.387 74.3115 372.743 73.9165 377.783 73.49C382.965 73.0476 388.147 72.621 393.314 72.1786C398.306 71.7521 403.362 71.0569 408.37 71.3571C408.37 71.3571 408.56 71.3729 408.718 71.3887C408.86 71.4045 409.034 71.4361 409.05 71.4361C409.571 71.5467 410.077 71.6415 410.582 71.7837C410.93 71.8785 411.262 71.989 411.593 72.0996C411.625 72.0996 411.751 72.1628 411.878 72.2102C411.957 72.2418 412.036 72.2892 412.051 72.305C412.32 72.4472 412.589 72.5894 412.857 72.7316C414.658 73.727 416.317 74.9751 418.008 76.1442C422.037 78.9091 426.571 80.7892 431.548 80.2678C440.553 79.3357 455.041 73.0318 450.191 61.53H450.175Z" fill="white"/>
<path d="M303.985 117.285C303.985 117.285 303.985 117.285 304.001 117.301C304.001 117.301 304.001 117.301 303.985 117.285Z" fill="white"/>
<path d="M223.694 114.5C223.694 114.5 223.599 114.579 223.536 114.627C223.567 114.595 223.615 114.563 223.709 114.484C223.709 114.484 223.709 114.484 223.694 114.484V114.5Z" fill="white"/>
<path d="M304.221 105.908C298.549 104.723 293.067 106.334 287.38 106.018C287.174 106.018 286.953 105.987 286.748 105.971C286.621 105.971 286.432 105.939 286.337 105.908C285.815 105.797 285.294 105.671 284.773 105.513C284.251 105.355 283.761 105.149 283.24 104.976C284.346 105.355 283.035 104.881 282.64 104.691C280.617 103.712 278.722 102.527 276.81 101.358C272.576 98.7506 268.199 96.3018 263.144 95.9068C260.237 95.6856 257.44 96.4598 254.833 97.6763C253.68 98.2135 252.59 98.877 251.468 99.4616C251.294 99.5564 249.983 100.109 250.204 100.046C249.572 100.267 248.924 100.457 248.261 100.615C247.929 100.694 247.597 100.726 247.281 100.82C247.25 100.82 247.234 100.82 247.202 100.836C246.618 100.884 246.033 100.947 245.449 100.978C243.995 101.042 242.542 101.026 241.088 100.978C238.323 100.884 235.558 100.662 232.793 100.757C226.774 100.963 221.386 102.732 216.663 106.461C212.634 109.636 209.664 114.076 208.068 118.942C207.246 121.422 206.914 124.092 206.914 126.684C206.914 127.916 206.993 129.132 206.962 130.365C206.962 130.681 206.914 131.012 206.914 131.328C206.82 131.613 206.725 131.929 206.693 132.229C206.693 132.245 206.693 132.261 206.693 132.276C206.662 132.324 206.63 132.371 206.583 132.45C206.535 132.545 206.409 132.671 206.346 132.766C206.219 132.908 206.093 133.035 205.967 133.177C205.493 133.683 205.066 134.204 204.639 134.757C203.296 136.495 202.586 138.501 202.443 140.697C202.27 143.573 203.217 146.669 204.734 149.103C207.546 153.637 212.128 156.339 216.915 158.361C218.606 159.072 220.344 159.656 222.082 160.209C224.404 161.505 226.995 162.374 229.555 162.958C231.703 163.448 233.884 163.796 236.032 164.238C237.107 164.459 238.181 164.696 239.24 164.996C239.761 165.139 240.282 165.297 240.788 165.486C241.041 165.581 241.293 165.676 241.546 165.755C244.074 167.224 246.649 168.741 249.383 169.752C252.653 170.953 256.239 170.732 259.589 170.1C262.543 169.547 265.403 168.535 268.263 167.651C271.249 166.734 274.235 165.818 277.221 164.902C282.656 163.227 288.264 161.821 293.573 159.751C298.36 157.887 303.194 155.343 305.943 150.793C307.334 148.502 308.029 145.69 307.824 143.02C307.713 141.487 307.397 139.986 307.097 138.485C307.049 138.201 306.986 137.917 306.939 137.648C306.939 137.617 306.939 137.617 306.939 137.569C306.939 137.474 306.939 137.364 306.939 137.237C307.034 137.158 307.081 137.111 306.939 137.222C306.955 137.19 306.986 137.19 306.986 137.174C307.223 137.016 307.476 136.89 307.729 136.748C308.993 136.021 310.162 135.294 311.284 134.362C313.195 132.766 314.459 130.633 315.376 128.358C319.057 119.29 313.938 107.962 304.111 105.908H304.221Z" fill="white"/>
<path d="M269.825 209.362C268.576 203.453 267.202 197.181 263.6 192.189C260.187 187.465 255.368 183.989 249.444 183.499C246.884 183.294 243.898 184.005 241.702 182.488C241.228 182.156 240.422 181.319 239.806 180.608C239 179.676 238.258 178.696 237.452 177.78C234.024 173.877 229.394 172.124 224.291 173.293C220.01 174.272 216.265 176.879 212.41 178.87C210.436 179.881 209.266 180.371 206.944 180.908C206.897 180.908 206.77 180.94 206.691 180.955C206.517 180.971 206.344 180.987 206.17 181.003C205.712 181.019 205.238 181.019 204.779 180.987C204.037 180.924 204.479 180.94 204.606 180.955C204.337 180.908 204.053 180.845 203.8 180.766C203.152 180.592 202.773 180.434 202.331 180.213C197.512 177.859 193.688 173.956 188.001 173.767C182.155 173.577 176.862 177.369 173.734 182.061C170.369 187.085 169.437 193.31 168.568 199.156C167.004 209.71 165.993 221.796 173.529 230.438C176.736 234.119 181.855 236.142 184.509 239.981C185.805 241.861 186.105 243.172 186.942 245.432C187.701 247.501 188.491 249.65 189.833 251.419C191.271 253.331 193.23 254.848 195.648 255.211C196.074 255.274 196.501 255.274 196.911 255.227C198.318 255.812 199.819 256.222 201.319 256.444C207.892 257.423 214.796 256.444 221.4 256.112C227.04 255.812 234.039 256.349 238.89 252.936C241.528 251.088 242.808 248.465 244.451 245.795C245.162 244.642 245.146 244.689 246.078 243.741C246.916 242.888 247.453 242.477 248.069 242.035C254.957 237.169 264.469 235.399 268.94 227.547C272.163 221.891 271.136 215.382 269.856 209.331L269.825 209.362Z" fill="white"/>
<path d="M347.162 268.908C347.162 268.908 347.036 268.829 346.957 268.781C347.004 268.813 347.068 268.86 347.162 268.908Z" fill="white"/>
<path d="M291.944 299.844C291.944 299.844 292.07 299.923 292.149 299.97C292.07 299.923 292.007 299.891 291.944 299.844Z" fill="white"/>
<path d="M359.706 269.24C358.221 263.884 354.098 259.95 349.089 257.833C346.467 256.727 343.797 256.174 340.969 255.874C340.447 255.826 339.926 255.763 339.404 255.732C339.215 255.684 339.025 255.637 338.82 255.605C338.788 255.558 338.772 255.51 338.741 255.447C337.793 253.709 337.035 251.94 335.818 250.376C333.701 247.627 330.699 246.568 327.35 246.205C318.218 245.225 307.569 245.747 300.934 252.951C300.554 253.362 300.033 253.788 299.717 254.231C299.685 254.278 299.685 254.294 299.67 254.31C299.512 254.389 299.385 254.468 299.259 254.547C299.211 254.547 299.164 254.563 299.101 254.594C299.069 254.594 298.99 254.626 298.911 254.642C298.864 254.642 298.816 254.642 298.785 254.642C298.421 254.642 298.026 254.594 297.663 254.61C297.426 254.578 297.221 254.531 297 254.499C296.447 254.389 295.894 254.247 295.341 254.104C294.14 253.788 292.971 253.425 291.77 253.109C287.014 251.861 281.943 251.845 277.345 253.694C272.542 255.621 268.371 258.813 265.765 263.347C264.88 264.895 264.216 266.538 263.742 268.229C263.031 269.114 262.605 270.204 262.636 271.436C262.81 276.792 262.81 282.179 263.158 287.535C263.363 290.632 264.043 293.744 266.254 296.067C268.514 298.453 271.721 299.243 274.881 299.401C277.567 299.543 280.237 299.148 282.891 298.879C284.155 298.753 285.435 298.642 286.714 298.642C287.236 298.642 287.757 298.642 288.278 298.69C288.484 298.69 288.689 298.737 288.895 298.753C288.942 298.753 288.989 298.784 289.068 298.8C289.574 298.927 290.08 299.021 290.569 299.179C290.727 299.227 290.901 299.29 291.059 299.337C291.075 299.337 291.091 299.353 291.122 299.369C291.391 299.527 291.659 299.685 291.928 299.843C291.644 299.653 291.928 299.78 292.133 299.969C292.165 299.985 292.197 300.017 292.244 300.032C292.197 300.017 292.181 300.001 292.149 299.969C292.149 299.969 292.165 299.985 292.181 300.001C292.228 300.048 292.544 300.38 292.702 300.522C292.75 300.585 292.797 300.633 292.797 300.649C292.955 300.917 293.129 301.17 293.271 301.454C293.508 301.865 293.713 302.292 293.903 302.703C294.408 303.777 294.851 304.867 295.404 305.91C300.317 315.294 311.993 317.838 321.583 315.452C326.67 314.188 331.41 311.676 335.913 309.054C336.276 308.848 336.64 308.611 337.019 308.422C337.335 308.501 337.635 308.564 337.935 308.627C338.804 308.801 339.705 308.943 340.589 308.991C342.943 309.117 345.392 308.406 347.446 307.268C351.57 304.993 354.382 300.601 355.662 296.162C356.278 293.997 356.515 291.675 356.404 289.415C356.341 288.215 356.215 287.014 356.183 285.797C356.183 285.244 356.199 284.691 356.215 284.123C356.262 283.949 356.373 283.538 356.404 283.364C356.436 283.27 356.483 283.191 356.483 283.175C356.641 282.906 356.815 282.622 356.989 282.369C357.289 281.895 357.637 281.453 357.937 280.994C358.711 279.825 359.343 278.482 359.722 277.124C360.433 274.596 360.338 271.768 359.643 269.256L359.706 269.24Z" fill="white"/>
<path d="M576.615 166.338C575.462 163.21 573.945 160.24 572.255 157.364C570.406 154.204 568.384 151.155 564.592 150.239C562.933 149.844 561.29 149.891 559.615 150.018C558.952 150.065 558.288 150.049 557.625 150.081C556.171 149.038 554.828 148.011 553.011 147.695C550.547 147.269 548.082 147.806 546.012 149.228C544.859 150.018 543.721 150.918 542.615 151.85C541.257 152.672 540.056 153.762 538.966 155.073C538.397 155.595 537.828 156.132 537.291 156.638C535.411 158.391 534.036 160.477 533.499 162.736C533.167 163.21 532.836 163.684 532.504 164.158C530.513 167.002 528.064 169.846 527.464 173.369C526.879 176.781 527.164 180.368 527.243 183.812C527.274 185.36 527.369 186.956 527.891 188.425C528.665 190.621 530.055 192.122 531.872 193.481C532.362 193.844 532.867 194.176 533.373 194.492C533.547 194.603 533.736 194.729 533.91 194.856C534.084 195.077 534.479 195.63 534.179 195.156C534.258 195.266 534.337 195.393 534.4 195.503C534.905 196.262 535.427 197.036 536.059 197.699C539.203 201.017 543.769 200.607 547.466 198.6C548.034 198.284 548.587 197.936 549.156 197.605C549.377 197.478 550.594 196.989 550.294 197.052C550.594 196.957 550.894 196.862 551.21 196.799C551.273 196.799 551.479 196.736 551.652 196.704C551.842 196.673 552.126 196.641 552.19 196.641C552.6 196.609 553.011 196.578 553.422 196.562C556.566 196.404 559.805 196.467 562.838 195.503C568.305 193.765 573.139 189.8 575.746 184.665C578.669 178.914 578.811 172.389 576.583 166.354L576.615 166.338Z" fill="white"/>
<path d="M473.856 325.388C473.746 325.278 473.667 325.183 473.572 325.072C473.588 325.104 473.682 325.199 473.856 325.388Z" fill="white"/>
<path d="M482.625 319.323C480.144 315.958 476.716 313.746 472.735 312.498C464.93 310.065 455.75 311.455 448.23 314.22C446.034 315.025 443.917 316.005 441.705 316.763C440.82 317.064 439.92 317.301 439.019 317.506C438.94 317.506 438.119 317.632 438.024 317.632C437.739 317.632 435.891 317.38 436.87 317.617C436.554 317.538 436.238 317.474 435.922 317.38C435.67 317.301 435.417 317.206 435.164 317.111C435.101 317.079 435.038 317.048 434.943 317.016C433.932 316.495 432.921 315.958 431.894 315.436C429.461 314.172 427.059 313.272 424.342 312.956C414.846 311.897 407.042 319.449 403.661 327.602C403.345 328.376 403.313 329.229 403.503 330.05C402.823 332.452 402.634 335.027 403.029 337.65C403.613 341.536 405.588 345.36 408.479 348.03C409.348 348.836 410.328 349.578 411.323 350.226C411.386 350.258 411.465 350.337 411.544 350.4C411.576 350.542 411.592 350.637 411.592 350.653C411.687 351.332 411.734 352.027 411.876 352.706C412.113 353.844 412.556 354.95 413.077 355.993C417.359 364.587 427.565 365.52 436.017 365.314C440.109 365.219 444.391 365.03 448.325 363.75C450.331 363.086 452.275 362.186 454.028 361.017C454.787 360.511 455.529 359.958 456.303 359.468C456.651 359.247 457.03 359.058 457.378 358.837C457.504 358.773 457.599 358.726 457.678 358.694C457.883 358.615 458.089 358.552 458.31 358.489C458.61 358.41 458.91 358.347 459.195 358.299C459.368 358.299 459.969 358.205 460.079 358.205C460.869 358.157 461.659 358.173 462.449 358.189C464.345 358.236 466.257 358.394 468.153 358.315C472.497 358.141 476.826 356.846 479.828 353.528C482.514 350.558 483.999 346.75 484.742 342.864C485.453 339.119 485.99 335.154 485.99 331.346C485.99 327.159 485.105 322.799 482.577 319.386L482.625 319.323Z" fill="white"/>
<path d="M304.477 189.355C304.413 189.466 304.35 189.592 304.287 189.703C304.414 189.513 304.477 189.387 304.477 189.355Z" fill="white"/>
<path d="M325.094 229.107C325.094 229.107 325.125 229.107 325.426 229.139C325.41 229.139 325.394 229.139 325.378 229.139C325.283 229.139 325.189 229.123 325.094 229.107Z" fill="white"/>
<path d="M377.278 175.47C374.671 174.333 372.033 173.337 369.284 172.674C367.119 172.136 364.908 171.82 362.775 171.173C362.506 171.094 362.238 170.999 361.953 170.904C361.953 170.904 361.922 170.904 361.89 170.888C361.748 170.825 361.558 170.746 361.495 170.699C361.305 170.604 361.132 170.509 360.942 170.399C360.784 170.304 360.626 170.193 360.468 170.098C360.436 170.067 360.421 170.051 360.389 170.004C360.263 169.861 360.152 169.735 360.026 169.609C359.994 169.561 359.962 169.482 359.915 169.387C358.746 167.049 357.924 164.663 356.155 162.673C352.379 158.423 345.727 157.633 340.372 158.012C334.842 158.407 329.375 160.018 324.636 162.957C323.34 163.763 322.171 164.727 320.939 165.643C321.697 165.074 320.417 165.912 320.259 166.07C320.228 166.07 320.196 166.07 320.18 166.07C319.88 165.991 319.548 165.943 319.248 165.896C318.442 165.769 317.621 165.627 316.799 165.596C315.44 165.548 314.003 165.754 312.707 166.133C307.715 167.634 303.702 171.773 302.185 176.75C301.616 177.208 301.047 177.65 300.479 178.108C295.992 181.774 292.579 186.83 293.764 192.849C294.285 195.519 295.834 197.731 297.445 199.832C297.793 200.275 298.14 200.717 298.488 201.159C298.409 201.08 299.104 202.013 299.199 202.171C299.468 202.566 299.705 202.976 299.942 203.403C300.036 203.577 300.131 203.75 300.21 203.924C300.21 203.956 300.4 204.382 300.479 204.556C300.494 204.604 300.51 204.651 300.526 204.667C300.621 204.92 300.7 205.172 300.795 205.425C300.937 205.868 301.079 206.326 301.221 206.784C301.521 207.827 301.774 208.901 302.043 209.96C302.517 211.919 302.959 213.894 303.623 215.789C305.455 220.987 308.568 225.032 313.75 227.165C316.183 228.176 318.806 228.492 321.413 228.761C322.582 228.887 323.767 228.966 324.936 229.092C324.999 229.092 325.062 229.092 325.125 229.108C325.173 229.108 325.283 229.124 325.41 229.14C325.489 229.14 325.568 229.156 325.647 229.171C325.568 229.171 325.52 229.171 325.473 229.156C325.536 229.156 325.584 229.156 325.631 229.171C326.247 229.282 326.847 229.393 327.464 229.551C328.064 229.708 328.649 229.914 329.249 230.103C329.328 230.135 329.502 230.198 329.612 230.246C329.707 230.293 329.818 230.34 329.913 230.388C331.05 230.925 332.156 231.541 333.262 232.142C335.6 233.437 337.923 234.685 340.419 235.649C345.648 237.687 351.241 236.976 356.471 235.365C358.951 234.606 361.384 233.706 363.896 233.074C364.465 232.932 365.018 232.805 365.603 232.695C365.729 232.663 365.871 232.647 365.998 232.631C366.124 232.616 366.298 232.584 366.377 232.584C367.862 232.521 369.316 232.537 370.801 232.6C373.755 232.742 376.836 232.805 379.664 231.857C382.192 231.004 384.388 229.677 386.363 227.876C389.918 224.637 392.035 220.166 393.804 215.789C395.827 210.813 397.754 205.409 397.817 199.975C397.959 188.252 387.153 179.72 377.31 175.438L377.278 175.47Z" fill="white"/>
<path d="M252.005 198.491C249.161 192.14 243.047 190.133 236.506 190.749C226.142 191.713 216.599 195.568 206.014 193.23C199.631 191.824 192.189 186.373 186.644 192.408C185.649 193.498 187.229 195.11 188.271 194.035C192.553 189.627 197.972 193.64 202.364 195.205C205.303 196.247 208.384 196.8 211.496 197.006C218.337 197.48 224.957 196.074 231.624 194.778C235.163 194.083 239.302 193.214 242.857 194.446C247.739 196.152 249.604 201.098 249.446 205.869C249.209 213.105 244.927 224.101 237.817 226.913C231.529 229.394 223.977 228.683 217.342 228.636C210.959 228.588 195.428 231.132 193.058 223.453C191.32 217.813 199.362 215.538 196.882 209.677C195.096 205.474 190.325 204.637 186.265 204.589C184.653 204.573 184.195 207.196 185.87 207.48C187.086 207.686 188.303 207.907 189.519 208.128C194.022 211.035 194.891 213.421 192.126 215.285C191.636 216.344 190.704 217.039 190.246 218.208C189.33 220.546 189.393 223.295 190.294 225.618C192.948 232.427 200.421 231.843 206.503 232.001C221.813 232.396 241.53 236.851 249.256 220.025C252.321 213.358 255.212 205.648 252.005 198.491Z" fill="#FFE6B3"/>
<path d="M239.949 207.276C233.393 205.965 230.186 215.065 224.34 216.724C219.853 217.988 215.35 217.198 212.949 212.348C212.459 211.352 212.412 210.057 211.985 209.03C210.926 206.486 209.741 205.112 206.992 204.685C205.792 204.496 205.302 206.123 206.487 206.518C211.069 208.035 209.868 214.828 213.28 217.641C215.287 219.299 218.115 219.963 220.659 220.026C223.645 220.121 226.71 219.299 229.269 217.767C233.314 215.35 235.099 210.642 239.965 209.457C241.024 209.204 241.071 207.482 239.965 207.26L239.949 207.276Z" fill="#FFE6B3"/>
<path d="M241.531 233.818C238.64 236.061 235.827 238.652 232.762 240.659C228.812 243.266 224.468 242.902 219.902 242.839C216.189 242.792 212.46 242.618 208.795 241.97C206.235 241.528 199.015 240.643 198.067 237.752C197.751 236.788 196.266 236.93 196.266 238.005C196.219 244.672 212.065 245.193 216.758 245.399C221.008 245.588 226.427 246.283 230.566 245.004C235.116 243.598 239.651 238.463 243.284 235.54C244.517 234.545 242.779 232.87 241.562 233.818H241.531Z" fill="#FFE6B3"/>
<path d="M229.017 184.557C219.19 186.058 211.448 186.8 201.921 183.245C195.744 180.939 189.835 180.007 183.499 182.503C178.317 184.541 175.995 187.069 175.821 192.583C175.695 196.469 175.616 200.64 175.947 204.527C176.121 206.565 176.026 207.402 177.78 208.429C178.902 209.077 179.787 207.465 178.775 206.723C177.306 205.649 178.207 198.665 178.222 196.927C178.254 192.993 177.685 189.091 181.256 186.405C187.576 181.665 195.602 183.609 202.206 186.105C210.658 189.281 221.402 190.481 229.712 186.247C230.723 185.742 229.949 184.415 229.001 184.572L229.017 184.557Z" fill="#FFE6B3"/>
<path d="M379.045 184.997C370.987 180.446 362.108 182.911 353.576 180.873C347.81 179.483 347.905 175.707 344.887 171.694C343.307 169.592 340.937 168.392 338.425 167.839C328.867 165.722 320.888 174.411 311.108 172.531C309.955 172.31 309.544 173.858 310.634 174.269C317.807 177.002 323.795 172.815 330.636 171.062C333.132 170.43 335.881 170.035 338.393 170.841C341.538 171.852 342.406 173.842 343.797 176.702C344.792 178.756 345.408 180.225 347.352 181.663C351.602 184.791 357.337 184.728 362.361 184.933C373.199 185.376 381.336 187.746 384.796 198.789C385.175 199.99 387.244 200.227 387.481 198.789C388.398 192.928 383.942 187.761 379.076 185.012L379.045 184.997Z" fill="#FFE6B3"/>
<path d="M364.588 194.762C357.795 193.751 351.965 197.242 345.803 199.533C341.853 200.987 337.603 202.109 333.464 200.639C326.054 198.032 323.511 190.212 325.707 183.134C326.165 181.649 324.016 181.175 323.447 182.518C319.75 191.302 324.016 201.366 333.401 204.052C344.034 207.085 353.719 198.001 364.193 197.637C365.742 197.59 366.279 195.031 364.573 194.778L364.588 194.762Z" fill="#FFE6B3"/>
<path d="M349.218 192.409C347.575 192.077 345.885 191.951 344.242 191.635C343.562 191.508 339.644 190.039 339.518 190.134C340.513 189.359 339.233 187.732 338.175 188.396C337.322 188.933 336.721 189.786 336.958 190.86C337.243 192.156 338.728 192.662 339.802 193.135C342.788 194.463 346.327 194.905 349.361 193.499C349.819 193.278 349.708 192.504 349.218 192.393V192.409Z" fill="#FFE6B3"/>
<path d="M361.524 221.621C356.879 219.868 351.475 215.507 346.278 215.981C342.928 216.297 340.621 218.509 337.841 220.105C333.701 222.49 329.72 223.012 325.265 220.989C317.365 217.403 319.119 210.53 315.848 204.084C314.411 201.256 312.404 200.767 310.066 198.823C304.789 194.431 306.48 188.206 308.217 182.471C308.644 181.081 306.527 180.528 306.053 181.871C303.525 188.965 302.277 195.648 308.186 201.225C311.061 203.926 313.147 204.716 314.095 208.824C314.553 210.831 314.663 212.9 315.327 214.875C316.275 217.703 317.965 220.089 320.272 221.969C324.759 225.65 331.253 226.851 336.656 224.592C338.868 223.66 340.527 222.048 342.549 220.831C346.578 218.383 349.327 219.457 353.134 221.495C355.931 222.996 358.269 224.607 361.508 223.77C362.661 223.47 362.487 221.969 361.508 221.606L361.524 221.621Z" fill="#FFE6B3"/>
<path d="M385.193 206.546C382.381 209.753 380.674 213.735 376.756 215.931C370.595 219.375 366.266 215.978 362.174 211.554C361.352 210.67 359.804 211.839 360.499 212.85C363.817 217.7 368.209 221.271 374.418 219.833C380.169 218.506 385.304 213.087 386.647 207.383C386.836 206.593 385.793 205.851 385.193 206.53V206.546Z" fill="#FFE6B3"/>
<path d="M306.511 119.005C305.468 118.926 305.216 120.38 306.005 120.869C312.799 125.104 303.414 129.764 301.266 131.17C299.781 132.134 298.264 133.082 297.126 134.472C294.978 137.079 295.215 140.239 294.03 143.225C290.064 153.21 274.439 151.33 266.381 149.703C261.215 148.644 256.27 146.417 251.024 145.8C247.296 145.358 243.82 146.116 240.202 147.017C233.709 148.628 228.558 149.671 223.013 145.074C218.936 141.693 209.694 131.755 216.44 127.142C217.372 126.51 216.567 125.151 215.555 125.641C204.401 131.044 218.636 147.333 225.145 150.556C231.465 153.684 237.643 151.109 244.057 149.877C253.157 148.139 262.1 153.242 271.121 154.269C277.298 154.964 283.934 155.074 289.701 152.436C295.262 149.892 296.605 146.338 298.248 140.824C299.828 135.547 303.288 134.551 307.143 131.518C308.707 130.286 310.334 128.801 310.982 126.841C312.215 123.176 310.398 119.321 306.479 119.005H306.511Z" fill="#FFE6B3"/>
<path d="M296.036 113.742C291.707 113.727 287.489 115.006 283.144 114.137C277.757 113.063 276.793 108.939 272.764 106.206C271.2 105.148 269.778 104.8 267.882 104.974C264.643 105.258 262.068 107.249 258.687 107.328C256.238 107.391 253.742 106.696 251.404 106.111C243.931 104.263 238.101 103.473 230.786 106.601C226.157 108.592 218.936 111.736 220.2 117.882C220.374 118.735 221.859 118.561 221.749 117.676C221.101 112.289 230.991 108.766 234.593 107.723C239.586 106.285 243.836 106.901 248.718 108.292C251.372 109.05 254.011 109.966 256.791 110.251C260.346 110.614 262.431 109.398 265.828 108.829C269.13 108.276 271.295 109.161 273.412 111.688C274.028 112.415 274.581 113.158 275.276 113.821C276.825 115.291 278.689 116.333 280.727 116.981C285.546 118.514 291.723 118.292 296.431 116.555C297.901 116.017 297.758 113.742 296.052 113.727L296.036 113.742Z" fill="#FFE6B3"/>
<path d="M274.234 132.53C270.616 128.344 265.055 128.043 259.889 128.628C256.255 129.039 252.732 130.097 249.051 130.145C242.067 130.255 239.081 126.448 236.759 120.397C236.285 119.133 234.294 119.622 234.689 120.965C236.554 127.222 239.255 132.167 246.254 133.226C254.817 134.521 264.518 128.091 271.817 134.932C273.429 136.449 275.656 134.174 274.234 132.515V132.53Z" fill="#FFE6B3"/>
<path d="M293.447 126.794C289.213 131.629 283.984 127.221 279.75 125.104C276.4 123.429 273.114 122.371 269.986 120.206C265.704 117.236 261.201 115.877 256.241 118.089C255.277 118.516 256.019 119.827 256.904 119.685C263.65 118.563 266.368 121.691 271.692 124.725C275.342 126.81 279.544 128.643 283.336 130.476C287.475 132.482 292.974 133.019 295.58 128.469C296.339 127.158 294.474 125.609 293.432 126.81L293.447 126.794Z" fill="#FFE6B3"/>
<path d="M236.254 135.769C231.799 134.126 224.61 134.347 224.121 127.996C224.026 126.653 221.94 126.621 222.019 127.996C222.351 134.837 230.219 138.139 236.254 137.222C237.06 137.096 236.87 135.99 236.254 135.769Z" fill="#FFE6B3"/>
<path d="M417.611 107.566C416.758 106.476 415.178 107.866 415.778 108.988C419.381 115.813 414.325 118.641 410.723 123.16C407.942 126.636 405.967 129.811 401.37 131.123C392.206 133.745 388.999 125.277 381.004 123.903C373.974 122.702 364.7 126.889 359.992 119.621C358.064 116.651 356.816 113.617 354.478 110.9C350.686 106.492 344.84 101.278 348.664 94.9269C349.406 93.7104 347.51 92.6203 346.752 93.8052C344.398 97.518 344.809 101.673 346.862 105.481C348.047 107.677 349.801 109.478 351.397 111.374C354.035 114.486 355.599 117.52 357.558 121.027C363.704 132.008 376.897 123.192 385.444 129.543C389.252 132.387 391.637 134.962 396.756 135.152C400.911 135.31 405.067 133.919 408.353 131.376C410.644 129.59 411.86 127.331 413.63 125.103C415.494 122.765 418.196 121.122 419.365 118.278C420.992 114.344 420.155 110.773 417.627 107.566H417.611Z" fill="#FFE6B3"/>
<path d="M404.229 95.5937C399.347 95.6727 395.065 96.2889 390.784 93.3818C387.545 91.1858 385.886 87.5204 382.41 85.5771C376.091 82.0223 368.349 83.2072 361.666 84.9135C360.323 85.2611 360.923 87.1412 362.219 86.9516C367.527 86.1932 373.026 84.9767 378.302 86.6514C383.374 88.2787 385.08 92.6709 389.125 95.5305C393.375 98.5482 400.01 100.239 404.734 97.4738C405.588 96.984 405.24 95.5779 404.229 95.6095V95.5937Z" fill="#FFE6B3"/>
<path d="M387.767 110.317C382.348 107.789 364.479 107.267 367.592 97.2507C368.018 95.8919 365.901 95.3232 365.459 96.6661C363.91 101.358 366.833 105.166 370.783 107.425C375.317 110.001 382.38 112.892 387.562 111.833C388.225 111.691 388.383 110.633 387.751 110.332L387.767 110.317Z" fill="#FFE6B3"/>
<path d="M400.628 108.533C399.538 105.404 396.757 99.4008 392.523 102.482C391.67 103.098 392.159 104.472 393.265 104.22C396.583 103.493 397.673 108.501 398.179 110.808C398.763 113.43 398.384 115.879 396.567 117.949C396.03 118.565 396.567 119.402 397.326 119.26C402.381 118.328 401.907 112.198 400.628 108.533Z" fill="#FFE6B3"/>
<path d="M374.022 115.798C372.884 114.866 371.462 114.423 370.088 113.902C368.476 113.302 366.865 112.686 365.269 112.085C363.926 111.58 363.389 113.697 364.685 114.218C366.185 114.818 367.671 115.435 369.171 116.035C370.546 116.588 371.905 117.252 373.39 117.346C374.132 117.394 374.638 116.304 374.022 115.798Z" fill="#FFE6B3"/>
<path d="M341.667 105.244C339.708 104.028 338.286 103.064 337.417 100.805C336.421 98.2137 336.832 95.4804 336.832 92.7788C336.832 91.6886 335.063 91.3727 334.857 92.5102C334.288 95.7648 334.099 99.4934 335.521 102.558C336.532 104.723 338.681 106.966 341.208 106.935C342.109 106.935 342.425 105.718 341.667 105.244Z" fill="#FFE6B3"/>
<path d="M432.842 43.5174C430.219 38.9199 425.827 37.9561 420.835 38.2089C419.207 38.2879 419.223 40.6104 420.835 40.721C425.48 41.0212 429.524 41.8585 431.278 46.8194C431.91 48.5889 432.273 50.5322 432.605 52.3965C433.142 55.509 433.727 59.443 431.167 61.9708C428.339 64.7673 423.41 63.9299 419.997 63.2347C414.815 62.1762 410.044 60.1697 405.367 57.7208C402.239 56.0935 399.016 54.1344 395.445 53.6921C385.65 52.5071 380.752 63.3611 370.388 61.3073C366.059 60.4541 363.958 59.7589 363.468 54.64C363.294 52.8231 363.831 50.9114 363.563 49.0313C363.073 45.5239 361.635 42.4747 359.313 39.8362C358.586 39.0147 357.275 40.0732 357.812 40.9896C360.608 45.7451 361.398 49.5211 360.798 55.035C360.624 56.6149 360.198 58.1 361.082 59.6009C363.184 63.1716 370.198 64.4039 373.911 64.4513C380.452 64.5303 383.659 60.2171 389.142 57.6577C397.247 53.8817 405.81 62.034 413.346 64.6567C421.482 67.4689 435.228 69.7124 436.207 57.6103C436.586 53.0443 435.101 47.4672 432.842 43.5016V43.5174Z" fill="#FFE6B3"/>
<path d="M395.242 30.8295C392.003 31.9829 388.89 33.2626 385.446 33.6102C382.002 33.9736 378.842 32.9624 375.445 32.8044C371.101 32.6148 367.009 33.9578 364.07 37.2124C363.47 37.8917 364.228 38.9977 365.065 38.5079C368.02 36.77 370.974 35.2059 374.529 35.2217C377.262 35.2375 379.948 36.1538 382.666 36.3908C387.484 36.8174 391.94 35.2533 396.3 33.3258C397.706 32.6938 396.711 30.2924 395.242 30.8137V30.8295Z" fill="#FFE6B3"/>
<path d="M408.069 45.6817C401.481 47.5934 396.567 41.1947 389.995 41.4633C385.413 41.6371 381.432 44.2282 378.256 47.309C377.434 48.099 378.556 49.6789 379.52 48.9363C382.206 46.8666 385.065 45.0339 388.478 44.481C392.997 43.7542 396.062 46.0451 400.011 47.7356C403.124 49.0627 405.968 49.5051 409.001 47.8146C410.155 47.1668 409.38 45.3025 408.101 45.6659L408.069 45.6817Z" fill="#FFE6B3"/>
<path d="M400.549 63.4712C399.648 62.8392 398.59 62.9814 397.547 62.9972C396.378 63.0288 395.209 63.0446 394.039 63.0762C392.57 63.1078 392.57 65.3197 394.039 65.3513C395.209 65.3829 396.378 65.3987 397.547 65.4303C398.59 65.4461 399.648 65.5883 400.549 64.9563C401.102 64.5771 401.102 63.8662 400.549 63.487V63.4712Z" fill="#FFE6B3"/>
<path d="M439.843 47.3727C439.179 46.5827 437.962 47.4359 438.199 48.3364C439.495 53.2974 440.759 57.8159 438.057 62.6505C435.672 66.9162 431.659 68.7805 427.219 70.2025C426.097 70.5658 426.255 72.3037 427.503 72.3037C438.974 72.2721 447.584 56.5362 439.843 47.3727Z" fill="#FFE6B3"/>
<path d="M304.505 39.6793C303.02 38.6997 301.788 40.7694 302.736 41.9702C304.49 44.182 306.891 45.9831 308.202 48.5426C310.556 53.1717 308.487 57.4059 304.49 60.076C300.097 62.9988 294.789 62.667 290.112 64.6735C287.553 65.7637 285.799 67.2962 284.725 69.8714C282.323 75.6855 281.265 80.2831 274.424 82.4318C269.052 84.1223 261.168 83.4745 256.034 81.073C250.283 78.3714 251.246 73.1577 246.823 69.7766C244.2 67.7701 240.866 67.0118 237.88 65.7321C231.387 62.9514 227.39 57.3427 226.695 50.3279C226.631 49.7275 226.173 49.0008 225.446 49.0798C223.503 49.3326 221.576 49.5695 219.632 49.8223C218.195 50.0119 218.131 52.2712 219.632 52.129C221.212 51.971 222.776 51.813 224.356 51.6708C224.973 56.7108 227.058 61.2609 230.866 64.7999C235.89 69.4765 244.437 69.5081 247.344 76.1437C249.746 81.626 251.736 83.6009 257.756 85.2598C264.012 86.9819 270.98 87.8667 277.173 85.3388C281.77 83.4587 285.483 79.9987 287.126 75.2431C287.964 72.8259 287.679 70.5034 290.239 68.7023C291.645 67.7228 293.794 67.4226 295.437 67.0434C298.596 66.3166 301.82 65.6689 304.727 64.1521C315.786 58.4013 314.111 46.0305 304.505 39.6793Z" fill="#FFE6B3"/>
<path d="M292.923 42.3003C288.768 44.5912 284.834 45.3812 280.126 45.16C275.75 44.9546 275.102 44.5912 272.511 39.7725C271.958 38.7455 272.353 38.1451 271.436 37.1182C268.055 33.2948 258.386 35.6489 254.421 37.0234C253.188 37.45 253.694 39.1563 254.958 38.9667C258.054 38.4769 262.589 37.0392 265.733 38.0504C274.565 40.8942 268.15 40.3412 270.378 43.5169C272.1 45.9815 273.459 47.0717 276.539 47.7036C282.417 48.9202 290.553 49.0308 294.487 43.8486C295.214 42.8849 293.84 41.7948 292.923 42.2845V42.3003Z" fill="#FFE6B3"/>
<path d="M249.699 57.2001C246.887 56.6314 241.626 56.3786 241.294 52.571C241.073 50.1221 243.142 47.9734 242.874 45.4614C242.431 41.3536 237.771 42.9019 236.159 45.3666C235.385 46.5515 237.233 47.5626 238.039 46.4567C238.64 45.6352 239.382 45.2718 240.267 45.3034C240.567 47.3573 238.94 49.3796 238.592 51.4018C238.339 52.808 238.561 54.2141 239.24 55.478C241.183 59.096 245.575 60.0598 249.336 59.965C250.868 59.9334 251.311 57.5319 249.715 57.2001H249.699Z" fill="#FFE6B3"/>
<path d="M287.727 57.6575C285.262 56.4568 283.271 56.8676 281.091 58.5897C279.432 59.9168 278.326 61.8443 276.762 63.282C273.239 66.4893 265.008 69.3963 264.139 61.5599C263.759 58.1631 266.319 54.7979 263.949 51.5749C262.322 49.3788 260.031 49.2208 257.803 50.3741C256.508 51.0377 257.645 52.823 258.925 52.2858C263.633 50.2635 260.9 60.5014 260.9 61.5599C260.9 62.9503 261.01 64.1826 261.626 65.4465C262.811 67.848 265.308 69.4437 267.883 69.9651C271.09 70.6128 274.155 69.5543 276.794 67.7532C280.143 65.4781 282.45 59.7746 287.016 60.3434C288.438 60.5172 288.975 58.2579 287.742 57.6575H287.727Z" fill="#FFE6B3"/>
<path d="M285.199 39.5225C283.999 38.5113 282.45 38.0848 280.965 37.6108C279.907 34.5616 276.684 32.6657 273.492 33.6294C272.544 33.9138 272.671 35.5411 273.729 35.4305C274.803 35.3199 275.941 35.4937 276.889 36.0625C278.169 36.8366 278.184 37.8952 278.895 39.0011C279.764 40.3598 283.019 41.0866 284.567 41.055C285.294 41.0392 285.831 40.0439 285.199 39.5067V39.5225Z" fill="#FFE6B3"/>
<path d="M501.979 143.355C495.028 141.206 487.318 140.953 482.831 134.27C479.355 129.088 481.756 123.164 479.355 117.745C477.585 113.763 473.857 111.235 471.108 108.012C465.736 101.724 468.137 88.7373 474.741 83.7448C475.958 82.8284 474.789 80.7429 473.525 81.6593C468.216 85.4985 465.61 93.0505 465.057 99.3859C464.409 106.764 469.449 110.272 473.746 115.359C479.323 121.947 475.326 130.826 481.045 137.699C485.801 143.418 494.285 146.594 501.568 146.341C503.291 146.278 503.638 143.861 501.979 143.355Z" fill="#FFE6B3"/>
<path d="M504.538 126.336C501.678 125.404 498.502 126.257 495.532 125.372C492.025 124.314 488.849 121.249 489.987 117.315C490.429 115.798 488.122 115.182 487.633 116.667C484.599 125.704 497.349 131.597 504.538 128.658C505.612 128.216 505.754 126.731 504.538 126.336Z" fill="#FFE6B3"/>
<path d="M526.878 121.69C526.089 120.758 524.114 120.094 523.561 119.241C522.423 117.487 523.766 115.67 524.098 113.853C525.536 106.112 518.521 98.1333 512.533 94.2783C505.55 89.7914 496.623 88.4326 488.755 91.0869C487.428 91.5293 487.965 93.4568 489.34 93.1882C498.266 91.4187 507.43 93.6148 514.144 99.9186C515.55 101.246 516.846 102.731 517.889 104.374C520.622 108.624 520.891 111.31 519.247 116.05C518.679 117.677 517.92 119.051 519.026 120.726C519.548 121.516 520.369 121.721 521.033 122.227C524.698 125.039 526.088 126.509 525.235 131.296C524.445 135.735 522.423 141.739 518.11 143.84C516.214 144.772 513.67 144.298 513.102 146.968C512.77 148.548 513.607 149.702 514.95 150.334C516.435 151.029 517.778 149.354 516.688 148.074C517.02 148.469 520.812 146.889 521.475 146.494C522.707 145.768 523.687 144.741 524.524 143.587C526.973 140.27 528.569 135.451 529.138 131.438C529.627 127.994 529.185 124.423 526.878 121.69Z" fill="#FFE6B3"/>
<path d="M511.16 110.726C509.343 110.062 507.099 110.442 505.488 109.257C503.813 108.008 503.403 106.081 504.129 104.185C504.493 103.237 503.466 102.621 502.676 102.732C501.807 102.858 500.954 102.984 500.085 103.111C498.868 103.285 499.137 105.386 500.385 105.275C500.717 105.244 501.048 105.212 501.396 105.18C501.064 107.171 501.491 109.32 502.865 110.868C503.908 112.053 505.235 112.669 506.752 113.048C507.889 113.333 509.153 113.333 510.212 113.902C511.286 114.47 511.381 115.45 511.981 116.366C512.408 117.03 513.245 117.125 513.814 116.603C516.152 114.518 513.324 111.468 511.16 110.694V110.726Z" fill="#FFE6B3"/>
<path d="M529.547 105.593C528.205 105.34 527.304 106.81 528.236 107.852C530.29 110.175 532.439 111.786 533.229 114.978C533.924 117.822 533.039 120.413 532.849 123.209C532.77 124.252 534.034 124.489 534.714 123.983C540.401 119.56 536.246 106.841 529.579 105.577L529.547 105.593Z" fill="#FFE6B3"/>
<path d="M467.142 121.535C462.371 113.841 458.863 107.442 460.459 97.9944C460.68 96.6831 458.737 96.0828 458.421 97.4257C456.43 106.005 458.231 117.348 465.689 122.957C466.558 123.605 467.663 122.357 467.126 121.519L467.142 121.535Z" fill="#FFE6B3"/>
<path d="M474.395 202.299C470.571 203.073 466.732 204.858 462.798 205.048C458.406 205.269 458.011 202.741 454.377 201.651C451.976 200.94 449.322 201.367 446.952 201.967C445.309 202.378 443.113 203.61 441.406 203.658C435.15 201.936 433.286 200.103 435.798 198.144C436.351 197.638 436.919 197.148 437.504 196.675C441.296 192.946 442.496 188.175 441.28 182.977C440.506 179.659 438.562 177.02 437.425 173.876C436.145 170.353 436.54 167.083 437.946 163.686C438.341 162.738 442.56 156.134 442.907 157.493C443.223 158.725 445.008 158.188 444.771 156.971C443.397 149.435 434.818 163.496 434.154 165.345C432.195 170.701 433.759 174.098 435.987 178.932C438.025 183.356 439.384 188.807 435.924 192.978C434.565 194.621 432.464 195.537 431.342 197.433C429.62 200.356 430.552 203.626 433.064 205.712C436.398 208.476 440.379 207.923 444.266 206.833C448.99 205.506 451.802 204.337 456.147 207.45C457.537 208.445 458.201 208.998 459.954 209.219C464.757 209.804 471.519 207.576 475.675 205.38C477.444 204.448 476.164 201.92 474.379 202.283L474.395 202.299Z" fill="#FFE6B3"/>
<path d="M493.699 177.54C492.23 172.2 488.849 166.986 483.714 164.537C476.921 161.299 464.755 166.56 461.485 157.523C461.011 156.227 459.257 156.748 459.447 158.076C460.11 162.784 464.645 165.138 469.021 165.738C472.955 166.275 477.126 165.296 480.981 166.512C486.432 168.234 488.975 173.401 490.998 178.283C491.661 179.878 494.173 179.325 493.684 177.54H493.699Z" fill="#FFE6B3"/>
<path d="M457.804 174.951C457.993 173.735 456.176 173.166 455.892 174.43C454.976 178.632 456.54 182.503 460 185.11C461.975 186.595 464.439 187.48 466.825 188.017C470.759 188.902 478.753 187.638 479.196 193.563C479.306 195.032 481.581 195.553 481.929 193.926C484.931 179.944 455.355 191.335 457.819 174.935L457.804 174.951Z" fill="#FFE6B3"/>
<path d="M505.708 180.07C505.139 179.185 503.448 179.754 503.907 180.828C506.292 186.532 504.033 194.368 496.797 194.7C489.845 195.016 488.344 188.981 486.259 183.735C484.174 178.49 479.355 175.204 473.683 175.472C472.466 175.536 472.024 177.558 473.383 177.747C478.723 178.474 481.993 181.271 483.668 186.469C484.426 188.807 484.869 191.129 486.354 193.152C488.913 196.596 493.321 198.365 497.555 197.955C506.087 197.117 510.131 186.99 505.724 180.07H505.708Z" fill="#FFE6B3"/>
<path d="M465.403 196.155C462.954 195.555 460.442 195.413 458.04 194.544C455.765 193.722 450.852 191.621 450.82 188.714C450.82 187.719 449.414 187.292 448.924 188.193C447.187 191.352 451.12 194.165 453.475 195.587C456.887 197.64 461.469 199.189 465.403 198.083C466.335 197.814 466.382 196.392 465.403 196.14V196.155Z" fill="#FFE6B3"/>
<path d="M442.181 243.139C435.087 245.256 428.167 248.179 420.599 248.084C417.076 248.053 413.916 247.184 410.993 245.209C409.192 243.993 407.96 242.792 405.732 242.476C395.115 241.006 392.682 255.368 390.707 262.541C390.296 264.026 392.555 264.642 392.998 263.173C394.53 258.038 395.763 248.78 401.292 246.268C406.348 243.977 411.783 250.028 416.712 250.865C425.165 252.303 435.861 249.664 443.239 245.636C444.598 244.893 443.681 242.681 442.181 243.124V243.139Z" fill="#FFE6B3"/>
<path d="M450.836 260.565C443.632 261.987 438.055 266.805 430.408 266.948C423.994 267.074 411.639 265.052 408.163 258.811C407.562 257.737 405.809 258.464 406.172 259.648C408.273 266.489 418.89 268.78 424.989 269.728C428.891 270.329 432.873 270.344 436.728 269.476C442.068 268.259 446.397 264.831 451.484 262.966C452.985 262.413 452.4 260.265 450.82 260.581L450.836 260.565Z" fill="#FFE6B3"/>
<path d="M459.668 276.589C456.066 274.835 454.707 271.659 450.346 271.47C445.622 271.264 441.199 273.824 437.201 275.988C430.739 279.48 424.783 280.475 417.516 279.685C410.011 278.864 397.656 277.505 398.478 267.125C398.572 265.877 396.487 265.577 396.282 266.825C394.006 280.633 411.733 282.798 421.592 283.256C428.828 283.588 434.215 281.234 440.472 277.916C445.843 275.056 449.477 273.555 454.96 277.189C456.887 278.469 457.108 279.069 459.431 278.658C460.363 278.485 460.537 277.015 459.699 276.604L459.668 276.589Z" fill="#FFE6B3"/>
<path d="M451.121 245.446C449.715 245.178 449.257 247.026 450.537 247.548C454.85 249.317 459.463 250.613 463.302 253.362C470.049 258.212 469.97 265.385 468.39 272.858C467.205 278.482 465.846 284.818 460.411 287.867C455.972 290.363 450.521 290.269 445.592 290.111C435.038 289.763 425.179 289.4 415.194 293.349C409.791 295.482 404.482 297.994 398.589 295.846C392.08 293.476 389.631 288.199 387.719 282.085C387.356 280.931 385.823 281.231 385.713 282.353C384.591 293.223 397.23 301.233 406.978 299.385C410.754 298.674 414.199 296.873 417.769 295.546C422.367 293.839 427.154 293.018 432.052 292.844C439.288 292.591 446.555 293.918 453.776 293.033C467.3 291.359 471.929 279.573 472.529 267.075C473.145 254.247 462.512 247.69 451.137 245.462L451.121 245.446Z" fill="#FFE6B3"/>
<path d="M441.704 233.313C438.291 232.744 435.274 234.372 432.303 235.936C430.155 237.073 427.99 238.432 425.652 239.096C422.176 240.075 419.064 239.033 415.746 238.006C414.735 237.69 414.087 239.222 415.019 239.712C424.672 244.878 432.572 238.322 441.704 235.083C442.478 234.814 442.683 233.471 441.704 233.313Z" fill="#FFE6B3"/>
<path d="M452.213 253.424C449.717 250.896 446.193 250.375 442.797 251.323C440.948 251.844 439.447 252.934 437.772 253.851C433.586 256.142 429.51 256.995 424.77 256.205C423.458 255.984 422.858 257.943 424.217 258.243C428.182 259.128 432.069 259.096 435.892 257.595C437.709 256.884 439.242 255.715 440.98 254.894C444.787 253.077 447.694 253.614 451.549 254.546C452.197 254.704 452.687 253.914 452.197 253.424H452.213Z" fill="#FFE6B3"/>
<path d="M344.335 287.504C343.94 285.734 340.939 286.082 341.112 287.946C341.823 295.293 333.323 292.307 329.832 295.64C326.23 299.069 327.778 304.63 321.79 306.415C316.245 308.074 305.406 304.946 302.025 300.08C299.94 297.094 299.592 293.681 296.496 291.374C290.129 286.619 281.96 291.327 275.119 288.689C268.168 286.003 268.168 277.361 271.486 271.91C274.108 267.597 281.502 260.013 287 261.04C287.664 261.166 288.233 260.171 287.506 259.839C282.482 257.612 277.552 261.514 273.761 264.753C269.242 268.639 265.814 274.027 266.051 280.157C266.256 285.213 268.91 290.047 273.713 292.022C279.511 294.392 285.894 291.422 291.661 293.286C296.796 294.945 296.622 299.859 299.529 303.429C300.983 305.214 302.815 306.32 304.869 307.284C310.699 310.033 318.63 312.514 324.839 309.528C327.02 308.485 328.805 306.826 329.958 304.693C330.717 303.287 330.78 301.549 331.57 300.19C333.197 297.362 335.646 298.373 338.19 297.504C342.803 295.925 345.473 292.528 344.367 287.504H344.335Z" fill="#FFE6B3"/>
<path d="M341.016 270.945C339.768 264.152 333.227 263.725 328.693 268.07C327.523 269.191 329.009 270.898 330.351 270.218C335.075 267.88 338.093 269.413 338.077 274.152C338.046 280.14 334.396 283.648 328.598 283.79C325.691 283.869 320.84 283.869 319.703 280.63C319.324 279.556 319.782 278.181 319.339 276.98C315.848 267.564 300.886 274.69 298.169 265.637C297.742 264.215 295.704 264.815 295.973 266.237C297.916 276.759 312.53 270.519 315.611 278.513C316.748 281.467 315.753 284.122 319.008 285.702C322.436 287.345 328.298 287.661 331.916 286.934C339.752 285.338 342.375 278.339 341.016 270.929V270.945Z" fill="#FFE6B3"/>
<path d="M331.647 259.775C328.724 251.781 317.396 252.729 312.752 258.306C311.883 259.348 313.336 260.865 314.268 259.822C316.322 257.532 319.134 256.078 322.278 256.362C325.612 256.678 327.382 258.827 329.688 260.913C330.494 261.639 332.074 260.944 331.647 259.775Z" fill="#FFE6B3"/>
<path d="M344.036 261.608C343.009 261.277 342.235 262.683 342.994 263.394C344.937 265.258 346.77 267.375 347.623 269.966C348.413 272.336 347.955 274.738 348.365 277.139C348.508 277.945 349.724 278.245 350.245 277.629C354.574 272.51 349.582 263.425 344.036 261.593V261.608Z" fill="#FFE6B3"/>
<path d="M311.536 286.444C308.566 282.7 303.495 280.693 299.024 279.303C293.446 277.565 282.055 277.691 284.473 268.749C284.741 267.738 283.382 267.217 282.814 268.054C279.922 272.446 282.103 277.518 286.669 279.571C289.971 281.057 293.81 281.183 297.27 282.194C302.041 283.6 305.912 286.507 310.509 288.198C311.615 288.609 312.105 287.155 311.536 286.428V286.444Z" fill="#FFE6B3"/>
<path d="M461.045 318.201C451.502 319.26 446.731 329.813 436.556 329.482C429.068 329.245 426.287 320.05 418.182 321.93C412.526 323.241 409.966 328.992 411.467 334.253C411.815 335.454 413.916 335.28 413.742 333.953C413.205 329.861 415.401 325.247 420.125 325.074C424.012 324.931 425.592 328.328 428.151 330.398C430.963 332.673 434.787 333.305 438.342 333.084C442.528 332.831 446.241 331.141 449.622 328.739C452.024 327.017 454.188 324.947 456.779 323.525C461.077 321.171 467.143 321.25 468.218 327.128C468.55 328.944 471.093 328.328 471.235 326.717C471.757 321.061 466.243 317.616 461.029 318.201H461.045Z" fill="#FFE6B3"/>
<path d="M479.528 335.581C479.259 334.269 477.284 334.617 477.252 335.881C477.158 340.178 475.072 345.755 470.016 345.155C468.421 344.965 467.188 343.828 465.34 343.923C460.079 344.207 456.429 349.279 451.516 350.716C445.433 352.502 438.355 352.265 432.067 352.533C421.624 352.976 419.017 345.645 419.601 336.497C419.696 334.996 417.437 335.044 417.295 336.497C416.694 342.801 416.9 350.669 423.204 354.161C426.205 355.819 429.713 355.661 433.015 355.535C438.023 355.345 443.253 355.219 448.214 354.398C452.606 353.671 455.671 352.028 459.352 349.674C463.602 346.956 463.365 347.383 469.053 347.872C469.953 347.951 470.174 348.568 471.091 348.457C477.158 347.651 480.681 341.284 479.528 335.565V335.581Z" fill="#FFE6B3"/>
<path d="M459.243 331.328C456.841 333.919 454.914 337.585 452.228 339.844C449.384 342.245 448.026 339.891 444.945 339.291C440.316 338.39 435.481 340.002 431.373 341.993C430.22 342.546 431.041 344.315 432.226 344.015C435.671 343.146 439.415 341.756 443.017 342.119C445.908 342.403 448.152 345.421 450.933 344.963C452.876 344.631 453.998 342.735 455.135 341.329C457.315 338.627 459.527 335.926 461.518 333.066C462.45 331.723 460.365 330.127 459.259 331.328H459.243Z" fill="#FFE6B3"/>
<path d="M549.312 246.724C545.978 241.81 540.686 239.125 535.298 237.008C529.042 234.527 526.15 228.113 530.59 222.693C534.192 218.301 542.123 215.552 547.432 218.175C548.775 218.838 549.928 216.927 548.617 216.153C542.976 212.819 535.977 215.078 530.653 218.222C525.708 221.145 524.381 226.928 525.155 232.442C526.087 239.046 532.897 239.662 537.936 242.19C543.182 244.812 546.626 248.367 548.554 253.976C549.138 255.65 549.738 257.578 550.07 259.332C551.018 264.466 549.28 266.741 545.409 269.269C544.651 269.759 544.667 271.149 545.678 271.355C559.629 274.072 553.025 252.222 549.296 246.74L549.312 246.724Z" fill="#FFE6B3"/>
<path d="M574.688 245.476C574.245 244.781 573.297 245.113 573.218 245.871C572.855 249.268 574.624 251.97 575.414 255.193C576.789 260.801 574.925 262.887 570.264 266.157C565.508 269.491 565.872 275.684 560.263 278.97C553.138 283.157 540.277 280.14 536.311 272.825C532.219 265.241 538.508 258.037 536.975 250.39C536.659 248.794 534.021 249.142 534.115 250.785C534.589 258.874 526.358 270.581 534.305 277.517C540.893 283.252 551.336 287.028 559.615 283.205C562.886 281.704 565.856 279.286 567.878 276.285C569.253 274.231 569.727 271.908 571.401 270.091C572.855 268.511 574.514 268.274 576.062 266.884C581.939 261.67 578.163 250.848 574.672 245.46L574.688 245.476Z" fill="#FFE6B3"/>
<path d="M518.33 243.771C509.467 250.77 507.113 266.443 516.545 274.137C517.603 275.006 519.389 273.916 518.567 272.573C512.658 262.952 511.426 254.009 519.72 245.162C520.605 244.214 519.294 242.997 518.33 243.771Z" fill="#FFE6B3"/>
<path d="M534.476 282.717C532.47 279.273 528.805 277.14 526.64 273.68C523.638 268.877 523.117 263.743 523.559 258.213C523.67 256.933 521.616 256.68 521.316 257.913C519.167 266.887 523.78 280.916 533.386 284.123C534.192 284.392 534.871 283.412 534.461 282.717H534.476Z" fill="#FFE6B3"/>
<path d="M566.756 227.12C560.373 224.671 553.106 226.204 548.966 231.781C548.287 232.697 549.741 233.74 550.515 232.982C555.128 228.479 561.953 227.752 567.562 230.896C572.333 233.582 573.724 237.721 575.872 242.335C576.489 243.662 578.353 242.872 578.432 241.639C578.858 235.083 572.412 229.269 566.772 227.104L566.756 227.12Z" fill="#FFE6B3"/>
<path d="M564.83 246.409C564.466 243.392 563.582 240.58 560.627 239.284C559.095 238.605 557.768 240.69 559.269 241.591C562.523 243.534 561.875 248.969 561.954 252.224C562.033 255.494 561.733 258.843 562.444 262.035C562.697 263.172 564.372 263.093 564.672 262.035C565.999 257.279 565.414 251.276 564.814 246.409H564.83Z" fill="#FFE6B3"/>
<path d="M561.18 221.087C560.058 221.166 558.983 221.513 557.862 221.624C556.74 221.734 555.618 221.782 554.497 221.719C553.296 221.655 552.98 223.678 554.212 223.851C556.629 224.215 559.536 224.389 561.78 223.235C562.791 222.73 562.333 221.008 561.195 221.087H561.18Z" fill="#FFE6B3"/>
<path d="M516.482 226.55C515.486 228.541 514.159 232.048 515.597 234.134C515.865 234.513 516.592 234.671 516.813 234.134C517.193 233.217 517.177 232.238 517.272 231.258C517.382 229.978 517.714 228.762 518.251 227.593C518.788 226.408 517.082 225.365 516.482 226.566V226.55Z" fill="#FFE6B3"/>
<path d="M551.35 185.645C549.107 190.148 544.873 194.224 540.07 190.006C536.215 186.625 536.562 180.621 536.973 175.976C537.068 174.918 535.377 174.712 535.125 175.724C533.624 182.138 533.545 189.974 540.086 193.64C546.468 197.21 551.066 192.55 553.467 186.894C554.068 185.472 552.046 184.192 551.335 185.645H551.35Z" fill="#FFE6B3"/>
<path d="M563.675 181.16C562.08 178.205 561.068 175.678 561.305 172.233C561.463 169.8 562.111 167.383 562.095 164.934C562.095 161.98 561.132 159.167 557.877 158.662C550.688 157.524 545.617 166.403 545.554 172.376C545.554 173.687 547.56 173.687 547.592 172.376C547.687 168.41 549.519 164.555 552.948 162.422C555.602 160.763 558.446 160.337 559.346 164.381C559.726 166.103 558.857 168.631 558.62 170.416C558.098 174.587 557.988 180.307 562.111 182.724C563.107 183.309 564.165 182.155 563.644 181.191L563.675 181.16Z" fill="#FFE6B3"/>
<path d="M552.949 177.464C552.712 175.963 553.075 174.636 553.47 173.198C553.754 172.171 552.348 171.618 551.795 172.487C550.484 174.525 549.757 179.834 552.475 181.145C552.838 181.319 553.438 181.208 553.502 180.719C553.675 179.565 553.138 178.57 552.964 177.448L552.949 177.464Z" fill="#FFE6B3"/>
<path d="M568.795 171.112C568.479 167.984 569.127 164.824 568.716 161.712C566.931 147.966 551.748 151.031 543.564 156.735C542.521 157.462 543.406 158.994 544.559 158.441C548.809 156.387 553.028 153.828 557.941 154.476C564.15 155.281 565.667 160.147 565.509 165.709C565.446 168.284 565.209 170.796 565.667 173.34C565.999 175.236 567.279 177.795 567.105 179.691C566.963 181.271 565.509 183.151 564.735 184.573C564.593 184.826 564.672 185.158 564.925 185.3C567.895 186.99 570.043 183.909 570.502 181.113C571.055 177.7 569.127 174.461 568.795 171.144V171.112Z" fill="#FFE6B3"/>
<path d="M564.748 187.479C563.627 186.721 562.015 187.163 560.846 187.605C559.55 188.095 558.397 188.964 557.402 189.912C556.375 190.892 557.749 192.756 558.95 191.903C559.914 191.223 560.925 190.749 562.015 190.354C563.026 189.991 564.18 189.88 564.97 189.106C565.475 188.617 565.301 187.842 564.764 187.479H564.748Z" fill="#FFE6B3"/>
<path d="M538.948 162.391C538.205 165.899 537.304 169.39 536.988 172.961C536.894 174.035 538.489 174.146 538.79 173.198C539.88 169.88 540.417 166.404 541.096 162.976C541.381 161.57 539.232 160.969 538.932 162.375L538.948 162.391Z" fill="#FFE6B3"/>
<path d="M195.903 425.306C195.824 424.026 193.849 424.01 193.897 425.306C194.608 445.513 195.287 467.41 185.586 485.832C180.61 495.296 172.821 502.769 165.458 510.352C157.574 518.473 149.706 526.594 141.838 534.715C140.006 536.611 142.897 539.502 144.73 537.606C153.087 528.916 161.461 520.211 169.819 511.506C177.339 503.669 184.891 495.833 189.52 485.864C198.273 467.015 197.135 445.528 195.919 425.306H195.903Z" fill="#933B4F"/>
<path d="M212.285 450.742C212.253 449.367 210.184 449.367 210.136 450.742C209.805 460.474 208.73 469.922 207.166 479.528C206.913 481.045 209.173 481.74 209.52 480.176C211.622 470.57 212.475 460.553 212.269 450.742H212.285Z" fill="#933B4F"/>
<path d="M264.47 420.121C255.086 431.607 247.17 444.088 240.756 457.47C237.738 463.758 235.037 470.204 232.73 476.793C230.423 483.381 227.2 490.87 227.279 497.916C227.279 498.959 228.796 499.449 229.302 498.469C232.303 492.734 233.299 485.782 235.368 479.652C237.849 472.353 240.693 465.164 243.947 458.165C249.998 445.163 257.456 432.824 265.829 421.18C266.398 420.39 265.087 419.363 264.455 420.121H264.47Z" fill="#933B4F"/>
<path d="M314.443 391.304C300.524 407.214 286.858 426.378 281.502 447.154C281.265 448.054 282.56 448.655 283.034 447.802C288.011 438.654 292.024 429.032 297.254 420.011C302.767 410.468 308.866 401.21 315.66 392.521C316.323 391.683 315.186 390.467 314.459 391.32L314.443 391.304Z" fill="#933B4F"/>
<path d="M311.284 450.55C312.137 449.634 310.81 448.306 309.909 449.175C292.641 465.796 276.715 483.491 273.287 508.122C271.454 521.219 271.833 534.57 272.007 547.762C272.181 561.539 271.628 576.343 274.882 589.804C275.246 591.32 277.521 590.957 277.552 589.44C277.789 576.374 276.178 563.166 275.988 550.069C275.814 537.619 275.167 524.964 276.162 512.546C278.2 486.888 294.552 468.561 311.299 450.534L311.284 450.55Z" fill="#933B4F"/>
<path d="M262.116 611.497C258.403 593.85 252.526 577.308 252.921 558.981C253.11 550.181 254.185 541.412 254.927 532.66C255.686 523.67 255.496 514.08 257.487 505.28C257.771 504.048 255.923 503.526 255.575 504.758C253.268 512.942 253.142 521.932 252.241 530.353C251.23 539.864 250.029 549.423 249.729 558.981C249.176 576.755 253.395 595.604 259.62 612.193C260.204 613.741 262.448 613.156 262.1 611.513L262.116 611.497Z" fill="#933B4F"/>
<path d="M232.966 512.735C232.951 511.187 230.565 511.187 230.549 512.735C230.454 522.42 229.57 532.532 230.913 542.138C231.023 542.975 232.477 542.975 232.587 542.138C233.946 532.532 233.061 522.42 232.951 512.735H232.966Z" fill="#933B4F"/>
<path d="M211.64 498.866C206.189 520.874 198.526 541.887 190.974 563.216C190.358 564.953 193.202 566.186 193.976 564.479C203.235 543.909 209.254 521.522 213.994 499.513C214.326 497.981 212.019 497.333 211.64 498.866Z" fill="#933B4F"/>
<path d="M194.481 497.901C192.948 504.6 190.026 510.73 188.256 517.303C187.988 518.314 189.362 518.851 189.915 517.998C193.58 512.373 195.208 504.964 196.598 498.486C196.898 497.127 194.813 496.543 194.497 497.901H194.481Z" fill="#933B4F"/>
<path d="M179.739 471.391C168.048 485.026 156.182 498.029 141.837 508.962C127.87 519.626 112.703 527.336 97.141 535.299C95.8139 535.978 96.7302 538.19 98.1522 537.716C114.662 532.155 130.177 522.217 143.843 511.569C157.952 500.572 171.429 487.617 181.366 472.655C182.014 471.692 180.513 470.507 179.739 471.391Z" fill="#933B4F"/>
<path d="M187.008 382.615C186.897 381.493 185.143 381.462 185.238 382.615C185.696 388.318 185.744 394.29 187.008 399.899C187.181 400.673 188.319 400.468 188.351 399.71C188.588 394.053 187.576 388.239 187.008 382.615Z" fill="#933B4F"/>
<path d="M219.379 384.827C219.032 383.611 217.278 384.132 217.515 385.349C219.379 395.065 219.49 404.465 220.122 414.261C220.169 414.925 221.18 415.146 221.338 414.419C223.519 404.86 222.113 394.164 219.395 384.827H219.379Z" fill="#933B4F"/>
<path d="M349.422 440.817C335.961 452.193 322.69 464.516 310.73 477.471C301.345 487.63 292.292 499.764 291.265 514.015C291.155 515.468 293.382 515.705 293.761 514.347C302.53 483.522 330.305 465.006 350.97 442.35C351.918 441.307 350.496 439.917 349.438 440.817H349.422Z" fill="#933B4F"/>
<path d="M413.915 597.546C406.316 584.117 391.654 580.546 377.545 577.986C362.726 575.301 349.676 569.739 339.77 557.969C330.322 546.752 326.688 531.584 314.744 522.342C307.666 516.86 300.209 515.232 292.957 516.686C292.562 516.433 292.135 516.228 291.709 516.101C281.376 513.115 270.601 511.551 260.205 508.628C249.683 505.674 239.635 501.519 229.997 496.368C210.485 485.941 191.668 472.606 174.558 458.608C171.098 455.78 166.753 456.949 165.142 461.089C163.973 464.106 162.661 467.061 161.334 469.999C159.675 470.963 158.648 472.891 158.459 474.865C158.395 475.466 158.38 476.066 158.38 476.667C157.811 477.978 157.242 479.289 156.705 480.616C155.631 483.302 158.237 485.719 160.765 485.83C164.478 493.192 171.793 499.544 177.512 504.252C187.15 512.183 197.972 518.455 209.427 523.385C220.865 528.314 232.841 531.916 244.833 535.218C257.124 538.599 269.068 541.49 281.629 541.269C284.599 545.251 288.296 548.695 291.582 552.423C296.654 558.174 300.809 564.21 303.005 571.619C307.397 586.392 310.336 601.29 315.866 615.762C317.998 621.323 320.258 626.853 322.675 632.304C331.649 653.838 344.652 674.33 358.618 692.53C358.65 692.578 358.665 692.609 358.697 692.657C359.013 693.162 359.361 693.605 359.74 694C359.819 694.11 359.913 694.221 359.992 694.331L360.024 694.3C366.296 700.43 378.225 692.736 372.964 684.33C356.406 657.851 336.752 633.9 327.462 603.518C323.449 590.389 322.533 574.874 319.294 560.607C321.616 566.011 323.86 571.43 327.604 576.091C335.772 586.249 349.439 588.698 361.256 592.506C376.345 597.356 391.496 602.033 406.458 607.215C412.066 609.158 416.585 602.286 413.899 597.546H413.915Z" fill="#F2BD3D"/>
</g>
<defs>
<clipPath id="clip0_4090_4756">
<rect width="634.778" height="720.441" fill="white" transform="translate(0.766602 0.638672)"/>
</clipPath>
</defs>
</svg>
