<svg width="794" height="492" viewBox="0 0 794 492" fill="none" xmlns="http://www.w3.org/2000/svg">
<g clip-path="url(#clip0_4227_10)">
<path d="M346.256 1.38586C346.256 1.38586 358.348 -19.4297 466.762 100.055C542.116 183.113 580.89 265.661 669.968 279.487C669.968 279.487 705.681 294.793 701.446 316.884C697.212 338.975 587.879 356.933 533.953 300.711C323.91 81.995 346.256 1.38586 346.256 1.38586Z" fill="#FFE8D1"/>
<path d="M346.257 1.39258C346.257 1.39258 293.3 19.3 298.606 142.561C299.218 157.05 315.136 193.018 320.492 224.241C328.808 272.709 329.217 339.798 329.217 416.376H368.093C368.093 416.376 360.542 213.374 382.531 205.109C387.633 203.17 413.142 222.353 443.243 275.872C479.109 339.645 475.64 416.376 527.933 416.376C527.933 416.376 738.027 419.846 749.864 412.805C788.127 390.051 805.321 338.216 783.025 317.35C770.016 305.207 724.354 295.667 669.918 279.494C669.918 279.494 701.498 301.177 664 315.666C640.99 324.543 564.718 330.104 523.903 265.056C459.926 162.866 325.645 10.6779 349.624 1.39258" fill="#EFEFEF"/>
</g>
<g clip-path="url(#clip1_4227_10)">
<path d="M48.9222 76.1554C48.9222 76.1554 61.0136 55.3399 169.428 174.825C244.782 257.883 283.556 340.431 372.634 354.257C372.634 354.257 408.347 369.562 404.112 391.653C399.878 413.744 290.545 431.703 236.619 375.48C26.5762 156.765 48.9222 76.1554 48.9222 76.1554Z" fill="#FFE8D1"/>
<path d="M48.9228 76.1602C48.9228 76.1602 -4.03432 94.0676 1.2716 217.328C1.88382 231.817 17.8016 267.785 23.1585 299.009C31.4745 347.476 31.8827 414.565 31.8827 491.144H70.7587C70.7587 491.144 63.208 288.142 85.1969 279.877C90.2988 277.938 115.808 297.121 145.909 350.639C181.775 414.412 178.306 491.144 230.599 491.144C230.599 491.144 440.693 494.613 452.53 487.573C490.793 464.819 507.987 412.984 485.691 392.117C472.682 379.975 427.02 370.434 372.584 354.262C372.584 354.262 404.164 375.944 366.666 390.434C343.656 399.311 267.384 404.872 226.569 339.823C162.592 237.633 28.3114 85.4455 52.29 76.1602" fill="#EFEFEF"/>
</g>
<defs>
<clipPath id="clip0_4227_10">
<rect width="494.777" height="417.178" fill="white" transform="translate(298.247 0.015625)"/>
</clipPath>
<clipPath id="clip1_4227_10">
<rect width="494.777" height="417.178" fill="white" transform="translate(0.91272 74.7852)"/>
</clipPath>
</defs>
</svg>
