<svg width="794" height="1144" viewBox="0 0 794 1144" fill="none" xmlns="http://www.w3.org/2000/svg">
<g clip-path="url(#clip0_4090_4370)">
<path d="M401.051 603.082H392.476V923.386H401.051V603.082Z" fill="#F6ECF1"/>
<path d="M93.4046 335.39L85.2212 337.953L268.965 924.64L277.149 922.077L93.4046 335.39Z" fill="#F6ECF1"/>
<path d="M34.0061 338.559C25.0538 338.559 16.1015 336.297 7.99731 328.947C1.40088 323.01 -2.65121 311.891 2.72017 303.032C6.67802 296.53 15.2534 289.934 33.8176 295.023C51.9107 300.017 73.1135 314.152 85.7409 322.633C88.568 324.518 91.0181 326.214 92.8085 327.251L88.2853 334.507C80.558 329.795 69.6268 332.245 57.9417 334.884C50.2145 336.674 42.1103 338.465 34.0061 338.465V338.559ZM21.7556 301.807C13.5572 301.807 11.1071 305.954 10.0705 307.556C7.24343 312.173 9.78777 319.052 13.8399 322.633C25.9019 333.565 40.5083 330.172 56.1512 326.591C61.3341 325.366 66.7055 324.235 71.7942 323.67C59.9206 315.943 44.6546 306.896 31.6502 303.315C27.6924 302.184 24.4884 301.807 21.8498 301.807H21.7556Z" fill="#F6ECF1"/>
<path d="M48.3286 387.38C43.3342 387.38 38.3398 385.306 34.1934 381.443C28.1624 375.789 25.0527 367.496 26.1835 359.863C28.1624 345.634 41.1668 335.739 53.0404 332.346C65.1024 328.86 77.9183 330.085 89.2265 331.31C92.6189 330.65 96.1056 330.933 99.4039 332.535L95.9172 340.356C90.7343 338.001 84.0436 341.864 80.5569 346.859C77.7299 350.816 76.1279 355.528 74.3374 360.617C73.4893 363.161 72.547 365.611 71.5104 368.061C67.0813 378.521 60.2022 385.212 52.1923 386.908C50.9672 387.191 49.6479 387.285 48.4229 387.285L48.3286 387.38ZM70.945 338.66C65.6678 338.66 60.3907 339.131 55.3962 340.639C46.1612 343.278 36.0781 350.628 34.6646 361.088C34.005 365.988 36.0781 371.454 40.036 375.223C41.8265 376.919 45.5958 379.652 50.3076 378.616C57.3752 377.108 61.6157 369.286 63.5947 364.763C64.537 362.502 65.3851 360.146 66.2332 357.79C68.1179 352.418 70.0969 346.953 73.5835 342.053C74.3374 340.922 75.1855 339.885 76.1279 338.943C74.4317 338.943 72.7354 338.754 71.0392 338.754L70.945 338.66Z" fill="#F6ECF1"/>
<path d="M89.9816 454.098L84.6102 447.407C98.0858 436.664 104.494 418.1 100.63 401.232C99.1224 394.542 96.1069 388.322 92.9029 381.726C90.7355 377.108 88.4739 372.396 86.6834 367.496C85.3641 363.821 84.1391 359.863 83.291 355.811C83.1025 357.507 83.0082 359.204 83.1025 360.806C83.291 366.177 84.2333 371.548 85.2699 377.108C86.2122 382.291 87.2488 387.757 87.5315 393.222C88.1912 404.719 84.7045 419.325 73.1136 425.827L68.873 418.383C77.0715 413.765 79.4273 402.552 78.9562 393.693C78.6735 388.699 77.8253 383.893 76.7888 378.71C75.7522 372.962 74.6214 367.119 74.4329 361.088C74.056 349.969 78.108 334.985 90.547 329.237L112.598 318.871L95.353 336.116C89.6047 341.864 89.322 350.157 94.5991 364.669C96.2011 369.192 98.2743 373.527 100.442 378.145C103.646 384.835 107.038 391.809 108.734 399.442C113.352 419.42 105.719 441.376 89.6989 454.192L89.9816 454.098Z" fill="#F6ECF1"/>
<path d="M700.209 335.402L516.158 921.992L524.34 924.559L708.391 337.969L700.209 335.402Z" fill="#F6ECF1"/>
<path d="M759.426 338.558C751.322 338.558 743.218 336.674 735.491 334.978C723.9 332.339 712.875 329.795 705.147 334.601L700.624 327.345C702.414 326.214 704.77 324.612 707.692 322.727C720.319 314.246 741.522 300.111 759.615 295.116C778.085 290.028 786.66 296.624 790.618 303.126C795.99 311.89 791.937 323.01 785.341 329.041C777.237 336.391 768.379 338.653 759.332 338.653L759.426 338.558ZM721.733 323.669C726.915 324.235 732.193 325.46 737.376 326.591C752.924 330.172 767.625 333.47 779.687 322.633C783.739 318.958 786.283 312.173 783.456 307.555C782.137 305.388 778.179 298.886 761.971 303.315C748.872 306.896 733.7 315.942 721.827 323.669H721.733Z" fill="#F6ECF1"/>
<path d="M745.104 387.379C743.879 387.379 742.559 387.285 741.334 387.002C733.324 385.306 726.445 378.615 722.016 368.155C720.979 365.705 720.037 363.161 719.189 360.711C717.399 355.716 715.702 350.91 712.969 346.952C709.483 341.958 702.698 338.094 697.609 340.45L694.123 332.629C697.515 331.121 701.002 330.838 704.394 331.404C715.702 330.179 728.424 328.954 740.58 332.44C752.548 335.833 765.458 345.633 767.437 359.957C768.568 367.59 765.458 375.882 759.427 381.536C755.281 385.4 750.286 387.473 745.292 387.473L745.104 387.379ZM717.304 338.848C718.247 339.885 719.095 340.921 719.849 341.958C723.335 346.858 725.314 352.418 727.199 357.695C728.047 360.051 728.895 362.407 729.838 364.668C731.722 369.192 736.057 377.013 743.125 378.521C747.836 379.558 751.606 376.825 753.396 375.128C757.354 371.453 759.521 365.893 758.768 360.993C757.26 350.533 747.271 343.183 738.036 340.544C731.345 338.66 724.372 338.377 717.304 338.754V338.848Z" fill="#F6ECF1"/>
<path d="M703.453 454.083C687.433 441.267 679.8 419.31 684.417 399.332C686.208 391.699 689.506 384.726 692.71 378.035C694.877 373.418 696.951 369.083 698.647 364.56C703.83 350.048 703.641 341.755 697.893 336.007L680.648 318.762L702.699 329.128C715.138 334.97 719.096 349.953 718.813 360.979C718.625 367.01 717.494 372.947 716.457 378.601C715.515 383.784 714.572 388.684 714.29 393.584C713.819 402.536 716.174 413.656 724.373 418.274L720.132 425.718C708.541 419.216 705.055 404.515 705.714 393.113C705.997 387.647 707.034 382.182 707.976 376.999C709.013 371.345 710.049 366.068 710.143 360.696C710.143 359.094 710.143 357.398 709.955 355.607C709.201 359.66 707.882 363.617 706.562 367.293C704.772 372.193 702.51 376.999 700.343 381.522C697.139 388.118 694.218 394.338 692.616 401.029C688.752 417.897 695.16 436.367 708.636 447.204L703.264 453.894L703.453 454.083Z" fill="#F6ECF1"/>
<path d="M396.716 190.423C452.22 -103.872 820.207 -40.3579 729.647 271.088C665.473 491.691 396.716 664.8 396.716 664.8C396.716 664.8 127.959 491.785 63.7847 271.088C-26.7748 -40.3579 341.212 -103.966 396.716 190.423Z" fill="#FF83A2"/>
<path d="M541.554 897.568H251.877C241.832 897.568 233.689 905.711 233.689 915.756V930.927C233.689 940.972 241.832 949.115 251.877 949.115H541.554C551.599 949.115 559.741 940.972 559.741 930.927V915.756C559.741 905.711 551.599 897.568 541.554 897.568Z" fill="#F6ECF1"/>
<path d="M255.269 923.373H538.162V1115.99C538.162 1130.97 526.005 1143.22 510.928 1143.22H282.503C267.52 1143.22 255.269 1131.07 255.269 1115.99V923.373Z" fill="#F6ECF1"/>
<path d="M396.715 1012.06C405.008 968.145 459.853 977.663 446.377 1024.12C436.765 1057.01 396.715 1082.83 396.715 1082.83C396.715 1082.83 356.666 1057.01 347.054 1024.12C333.578 977.663 388.423 968.239 396.715 1012.06Z" fill="#FF83A2"/>
</g>
<defs>
<clipPath id="clip0_4090_4370">
<rect width="792.891" height="1142.78" fill="white" transform="translate(0.270508 0.349609)"/>
</clipPath>
</defs>
</svg>
