<svg width="434" height="595" viewBox="0 0 434 595" fill="none" xmlns="http://www.w3.org/2000/svg">
<path d="M66.7921 33.4603L0.0644531 168.547L176.545 216.296L199.56 200.408L216.65 18.3457L66.7921 33.4603Z" fill="#EFEFEF"/>
<path d="M15.8307 369.491C7.07111 484.74 93.379 585.218 208.628 593.978C323.877 602.737 424.355 516.429 433.114 401.18C441.874 285.931 355.566 185.454 240.317 176.694C125.068 167.934 24.5903 254.242 15.8307 369.491ZM399.708 398.69C392.322 495.475 307.989 567.871 211.204 560.571C114.419 553.185 42.0237 468.853 49.3233 372.068C56.7089 275.283 141.042 202.887 237.827 210.187C334.612 217.572 407.007 301.905 399.708 398.69Z" fill="#FF83B0"/>
</svg>
