<svg width="671" height="816" viewBox="0 0 671 816" fill="none" xmlns="http://www.w3.org/2000/svg">
<g clip-path="url(#clip0_4090_4461)">
<path d="M608.264 306.93C615.636 306.93 621.693 312.915 621.693 320.359V785.937C621.693 786.375 621.693 786.886 621.693 787.324C620.891 803.089 606.658 815.715 589.215 815.715H32.6234C14.6688 815.715 0.144592 802.359 0.144592 785.937V320.359C0.144592 312.988 6.12945 306.93 13.574 306.93H608.264Z" fill="#F0608A"/>
<path d="M357.996 307.215H263.771V815.635H357.996V307.215Z" fill="#81C7C9"/>
<path d="M621.622 497.942V591.875C618.63 592.459 615.492 592.824 612.353 592.824C585.932 592.824 564.474 571.366 564.474 544.945C564.474 518.524 585.932 497.066 612.353 497.066C615.492 497.066 618.63 497.358 621.622 498.015V497.942Z" fill="#FF9EB3"/>
<path d="M531.266 404.289C531.266 426.039 513.676 443.628 491.927 443.628C470.177 443.628 452.587 426.039 452.587 404.289C452.587 382.539 470.177 364.949 491.927 364.949C513.676 364.949 531.266 382.539 531.266 404.289Z" fill="#FF9EB3"/>
<path d="M514.985 720.682C514.985 744.84 495.425 764.4 471.267 764.4C447.108 764.4 427.548 744.84 427.548 720.682C427.548 696.523 447.108 676.963 471.267 676.963C495.425 676.963 514.985 696.523 514.985 720.682Z" fill="#FF9EB3"/>
<path d="M452.146 543.696C452.146 560.264 438.716 573.694 422.149 573.694C405.581 573.694 392.151 560.264 392.151 543.696C392.151 527.129 405.581 513.699 422.149 513.699C438.716 513.699 452.146 527.129 452.146 543.696Z" fill="#FF9EB3"/>
<path d="M621.62 720.686V785.935C621.62 786.373 621.62 786.884 621.62 787.322C603.227 787.322 588.338 772.36 588.338 754.04C588.338 735.721 603.227 720.758 621.62 720.758V720.686Z" fill="#FF9EB3"/>
<path d="M61.1609 539.167C61.1609 565.588 39.703 587.046 13.2821 587.046C8.75694 587.046 4.30479 586.389 0.144592 585.221V493.186C4.30479 491.945 8.75694 491.361 13.2821 491.361C39.703 491.361 61.1609 512.819 61.1609 539.24V539.167Z" fill="#FF9EB3"/>
<path d="M95.9034 397.648C95.9034 421.807 115.464 441.367 139.622 441.367C163.78 441.367 183.341 421.807 183.341 397.648C183.341 373.49 163.78 353.93 139.622 353.93C115.464 353.93 95.9034 373.49 95.9034 397.648Z" fill="#FF9EB3"/>
<path d="M92.1822 714.05C92.1822 735.8 109.772 753.39 131.522 753.39C153.271 753.39 170.861 735.8 170.861 714.05C170.861 692.301 153.271 674.711 131.522 674.711C109.772 674.711 92.1822 692.301 92.1822 714.05Z" fill="#FF9EB3"/>
<path d="M157.719 552.45C157.719 569.018 171.149 582.448 187.717 582.448C204.284 582.448 217.714 569.018 217.714 552.45C217.714 535.883 204.284 522.453 187.717 522.453C171.149 522.453 157.719 535.883 157.719 552.45Z" fill="#FF9EB3"/>
<path d="M37.3656 748.278C37.3656 766.67 22.4765 781.559 4.08402 781.559C2.77027 781.559 1.45652 781.486 0.215759 781.34V715.215C1.45652 715.069 2.77027 714.996 4.08402 714.996C22.4765 714.996 37.3656 729.885 37.3656 748.278Z" fill="#FF9EB3"/>
<g style="mix-blend-mode:multiply" opacity="0.5">
<path d="M621.62 306.93V424.51L25.6896 306.93H621.62Z" fill="#B6BABD"/>
</g>
<path d="M99.5985 91.548L649.307 285.994C666.096 291.933 674.901 310.376 668.962 327.165L640.728 406.983C638.027 414.62 629.644 418.622 622.006 415.921L39.2009 209.768C31.5632 207.066 27.561 198.683 30.2627 191.045L58.4962 111.228C64.4349 94.4385 82.8781 85.6336 99.6673 91.5724L99.5985 91.548Z" fill="#F0608A"/>
<path d="M329.976 173.094L286.044 297.293L374.875 328.715L418.808 204.516L329.976 173.094Z" fill="#81C7C9"/>
<path d="M383.1 164.238C455.283 -138.362 35.1758 46.8035 331.061 178.251C333.616 179.419 336.17 180.514 338.871 181.609C348.578 185.696 359.015 189.783 370.182 193.724L374.561 195.257C385.728 199.198 396.457 202.629 406.529 205.475C409.302 206.278 412.003 207.008 414.703 207.738C421.272 209.489 427.549 211.022 433.606 212.336C457.911 217.664 478.566 219.707 496.155 219.269C684.459 214.014 503.308 -87.2718 383.1 164.092V164.238ZM441.197 202.337C424.045 201.461 403.244 197.155 378.356 188.323C378.356 188.323 378.429 188.177 378.502 188.104C386.02 175.551 393.537 164.895 400.836 155.845C400.836 155.772 400.982 155.699 400.982 155.626C485.864 51.1097 548.851 170.442 479.15 197.374C469.297 201.169 456.67 203.14 441.197 202.337ZM374.634 146.356C374.634 146.356 374.634 146.575 374.634 146.648C374.634 158.253 373.758 171.245 371.714 185.769C371.714 185.842 371.714 185.915 371.714 185.988C165.237 113.44 374.342 -28.5181 374.634 146.356Z" fill="#81C7C9"/>
<path d="M534.772 247.729C526.743 270.5 501.709 282.397 479.01 274.369C456.239 266.34 444.342 241.306 452.37 218.607C452.589 217.95 452.881 217.294 453.1 216.637L535.428 245.758C535.209 246.415 535.063 247.072 534.772 247.729Z" fill="#FF9EB3"/>
<path d="M273.625 221.605C267.495 238.975 248.445 248.025 231.148 241.895C213.777 235.764 204.727 216.714 210.857 199.417C216.988 182.046 236.038 172.996 253.335 179.127C270.706 185.257 279.756 204.307 273.625 221.605Z" fill="#FF9EB3"/>
<path d="M608.705 340.206C602.574 357.577 583.525 366.627 566.227 360.496C548.856 354.365 539.806 335.316 545.937 318.018C552.068 300.648 571.117 291.597 588.415 297.728C605.785 303.859 614.836 322.908 608.705 340.206Z" fill="#FF9EB3"/>
<path d="M188.013 125.045C179.181 149.933 151.812 163.071 126.924 154.24C101.962 145.408 88.9708 118.039 97.7291 93.1503C97.9481 92.4934 98.24 91.8366 98.459 91.1797L188.597 123.075C188.378 123.731 188.232 124.388 187.94 125.045H188.013Z" fill="#FF9EB3"/>
</g>
<defs>
<clipPath id="clip0_4090_4461">
<rect width="670.595" height="815.108" fill="white" transform="translate(0.144653 0.597656)"/>
</clipPath>
</defs>
</svg>
