<svg width="754" height="728" viewBox="0 0 754 728" fill="none" xmlns="http://www.w3.org/2000/svg">
<g clip-path="url(#clip0_4090_4896)">
<path d="M551.872 727.152C551.872 727.152 338.547 643.588 304.779 519.161C271.012 394.708 383.009 344.938 443.449 366.276C503.888 387.613 521.678 442.718 521.678 442.718C521.678 442.718 564.801 292.539 692.328 360.941C887.889 465.817 551.898 727.152 551.898 727.152H551.872Z" fill="#FFBCC9"/>
<path d="M246.1 343.145C246.1 343.145 -28.584 261.578 2.55549 142.276C45.2048 -21.2788 189.209 72.928 189.209 72.928C189.209 72.928 230.807 -46.2166 343.881 21.3705C498.554 113.817 246.1 343.145 246.1 343.145Z" fill="#FFBCC9"/>
<path d="M157.201 545.805C157.201 545.805 61.2074 549.352 43.4172 483.578C25.6269 417.804 98.5222 414.257 123.408 435.568C123.408 435.568 123.145 388.609 169.631 400.014C263.837 423.112 157.175 545.778 157.175 545.778L157.201 545.805Z" fill="#FFBCC9"/>
<path d="M517.5 295.771C517.5 295.771 446.602 285.812 442.187 235.227C437.773 184.641 491.695 191.579 507.173 210.499C507.173 210.499 513.138 176.022 545.749 190.475C611.838 219.775 517.526 295.798 517.526 295.798L517.5 295.771Z" fill="#FFBCC9"/>
<path d="M171.576 77.1571C164.665 63.4399 141.593 59.9187 127.876 59.5508C111.11 59.104 91.3493 62.1523 75.6875 68.1962C59.6579 74.3716 48.2533 87.4055 38.5567 101.123C27.3885 116.889 19.4262 133.97 14.6962 152.601C13.5137 157.253 20.1095 158.882 21.765 154.546C27.3097 139.988 34.5624 125.561 43.4444 112.685C52.7205 99.2306 64.3617 84.9616 80.3388 79.5746C94.0296 74.976 109.402 73.8723 123.698 74.9497C130.793 75.4753 137.861 76.395 144.746 78.3659C151.605 80.3367 157.623 85.1193 164.639 86.1967C169.973 87.0113 174.178 82.2287 171.602 77.1308L171.576 77.1571Z" fill="#F6F6F6"/>
<path d="M320.309 31.5385C316.052 21.3426 300.311 18.9776 290.483 17.5848C277.581 15.7454 265.414 17.4797 253.563 22.9193C233.434 32.1691 210.256 50.6426 205.08 73.1892C203.818 78.655 211.728 82.5967 214.513 77.1834C223.921 58.9727 238.689 44.257 257.504 35.5064C268.515 30.3822 279.709 29.7253 291.508 32.1691C299.97 33.9298 310.533 39.8686 318.758 35.2962C319.915 34.6655 320.834 32.8524 320.282 31.5385H320.309Z" fill="#F6F6F6"/>
<path d="M396.673 382.901C380.092 380.588 364.43 393.806 353.288 404.607C340.78 416.747 331.136 431.726 324.75 447.887C317.865 465.309 316.21 484.282 318.233 502.808C320.204 520.729 325.092 541.962 338.047 555.364C341.936 559.411 349.136 555.259 347.507 549.845C342.751 533.947 335.629 519.731 334.473 502.808C333.343 486.331 336.496 469.382 342.856 454.167C348.453 440.765 357.046 428.835 367.426 418.744C377.464 409.021 392.18 403.056 400.221 391.573C402.218 388.708 400.326 383.4 396.673 382.875V382.901Z" fill="#F6F6F6"/>
<path d="M653.936 356.652C645.211 348.847 627.973 356.494 618.644 360.121C605.453 365.245 594.626 373.05 584.851 383.193C565.142 403.637 546.826 427.471 542.569 456.272C541.755 461.685 548.718 463.656 550.768 458.532C555.603 446.47 561.095 434.566 569.031 424.187C576.81 414.043 586.138 404.609 595.073 395.465C604.007 386.32 613.73 379.12 625.897 374.836C634.359 371.867 650.546 371.499 654.698 362.328C655.512 360.515 655.618 358.15 653.962 356.678L653.936 356.652Z" fill="#F6F6F6"/>
<path d="M93.1877 438.092C85.6722 429.999 68.6966 442.901 63.3359 448.893C53.8495 459.535 51.1691 473.62 54.3751 487.311C55.7415 493.198 64.5709 490.675 63.3621 484.841C60.9708 473.252 64.2819 461.138 73.1376 453.071C76.764 449.76 81.2838 447.369 85.9875 446.002C89.8767 444.872 91.6111 445.056 93.5819 441.403C94.1863 440.3 94.0024 438.986 93.1615 438.066L93.1877 438.092Z" fill="#F6F6F6"/>
<path d="M162.851 404.687C144.666 407.919 135.495 424.527 129.241 440.215C127.612 444.314 134.129 446.863 136.257 443.158C143.195 430.991 150.316 416.854 165.61 414.646C172.101 413.7 169.446 403.505 162.851 404.687Z" fill="#F6F6F6"/>
<path d="M477.925 207.945C467.966 205.397 457.244 215.277 453.408 223.765C448.704 234.145 451.384 245.655 458.164 254.326C461.606 258.715 468.964 252.986 465.89 248.361C461.843 242.238 460.871 235.012 464.155 228.285C467.545 221.347 473.642 221.058 479.081 216.933C482.235 214.541 482.392 209.102 477.899 207.945H477.925Z" fill="#F6F6F6"/>
<path d="M540.257 197.119C533.214 195.884 526.487 201.771 522.072 206.737C517.184 212.256 513.768 218.825 512.244 226.052C510.904 232.306 520.338 234.986 521.888 228.706C523.281 223.003 525.935 217.905 530.087 213.675C533.976 209.733 539.705 207.999 542.858 203.479C544.356 201.324 542.911 197.566 540.257 197.119Z" fill="#F6F6F6"/>
</g>
<defs>
<clipPath id="clip0_4090_4896">
<rect width="753.365" height="726.509" fill="white" transform="translate(0.0849609 0.638672)"/>
</clipPath>
</defs>
</svg>
