<svg width="288" height="851" viewBox="0 0 288 851" fill="none" xmlns="http://www.w3.org/2000/svg">
<g clip-path="url(#clip0_4090_4429)">
<path d="M287.041 850.651L143.906 696.749L0.719727 850.651V0.589844H287.041V850.651Z" fill="#F8A9B7"/>
<path d="M242.833 116.698C243.04 123.635 242.47 130.572 241.28 137.612C239.934 145.843 237.966 153.97 235.482 161.735C230.357 177.628 222.799 192.019 213.688 204.391C195.621 229.032 174.293 247.616 150.74 261.593C148.099 263.146 143.906 262.836 141.214 261.231C119.421 248.134 99.387 231.258 82.3557 208.791C64.7033 185.548 52.1757 158.836 50.4674 124.722C49.225 100.029 60.096 52.7146 94.1585 57.8395C107.514 59.8584 118.541 69.3317 127.186 79.7368C135.624 89.9348 142.509 101.375 147.582 113.592C152.448 100.754 159.385 88.7442 168.081 78.132C175.225 69.3834 183.922 61.4114 194.586 57.6842C224.559 47.1755 236.258 78.8567 241.176 102.514C242.16 107.277 242.677 111.987 242.833 116.75V116.698Z" fill="white"/>
<path d="M124.558 523.389L0.719727 400.804V335.019L124.558 457.604L287.041 296.766V362.55L124.558 523.389Z" fill="white"/>
</g>
<defs>
<clipPath id="clip0_4090_4429">
<rect width="286.322" height="850.061" fill="white" transform="translate(0.719727 0.589844)"/>
</clipPath>
</defs>
</svg>
