<svg width="569" height="1093" viewBox="0 0 569 1093" fill="none" xmlns="http://www.w3.org/2000/svg">
<g clip-path="url(#clip0_4090_4999)">
<path d="M325.318 418.961C325.318 418.961 377.312 390.107 414.483 392.653C451.711 395.199 453.634 397.575 449.108 418.961C439.49 464.506 456.18 486.967 437.567 494.039C418.953 501.111 344.554 496.811 325.262 479.725C306.025 462.639 325.262 418.961 325.262 418.961H325.318Z" fill="#F39CB3"/>
<g clip-path="url(#clip1_4090_4999)">
<g opacity="0.26" filter="url(#filter0_d_4090_4999)">
<path d="M271.303 195.447C253.077 167.39 205.207 118.811 195.114 235.482C185.022 352.153 207.072 618.496 189.741 769.475C172.411 920.453 107.732 1160.75 229.179 1004.65C350.626 848.537 429.296 1065.39 452.261 1055.37C475.226 1045.35 486.27 495.203 416.871 295.814C347.455 96.3683 271.303 195.447 271.303 195.447Z" fill="#FFCFD9"/>
</g>
<g opacity="0.26" filter="url(#filter1_d_4090_4999)">
<path d="M271.304 195.447C289.53 167.39 337.4 118.811 347.492 235.482C357.604 352.153 335.534 618.496 352.865 769.475C370.196 920.453 434.874 1160.75 313.428 1004.65C191.981 848.537 113.311 1065.39 90.3458 1055.37C67.381 1045.31 56.3556 495.184 125.754 295.776C195.152 96.3683 271.304 195.447 271.304 195.447Z" fill="#FFCFD9"/>
</g>
</g>
<path d="M404.528 422.526C429.479 418.848 444.019 412.116 450.525 403.459C448.658 396.048 439.606 394.351 414.542 392.653C377.315 390.107 325.377 418.961 325.377 418.961C325.377 418.961 367.301 428.07 404.528 422.526Z" fill="#D98CA1"/>
<path d="M198.528 418.961C198.528 418.961 146.534 390.107 109.363 392.653C72.1354 395.199 70.2118 397.575 74.738 418.961C84.356 464.506 67.6658 486.967 86.2796 494.039C104.893 501.111 179.292 496.811 198.585 479.725C217.821 462.639 198.585 418.961 198.585 418.961H198.528Z" fill="#F39CB3"/>
<path d="M109.364 392.653C77.0019 394.86 71.3442 396.953 73.3244 411.493C81.4715 415.51 95.7854 418.848 122.32 421.055C174.767 425.411 198.529 418.961 198.529 418.961C198.529 418.961 146.535 390.107 109.364 392.653Z" fill="#D98CA1"/>
<path d="M194.06 392.662L169.053 479.281C169.053 479.281 166.507 521.035 248.6 518.772C330.749 516.509 348.062 470.964 348.062 470.964L333.918 392.662H194.06Z" fill="#F5B0C3"/>
<g filter="url(#filter2_d_4090_4999)">
<path d="M194.063 392.654C194.063 392.654 149.141 292.569 154.289 255.342C159.438 218.114 203.059 214.267 220.994 225.809C238.985 237.35 262.068 248.892 280.003 238.652C297.938 228.411 353.157 204.196 368.546 249.628C383.935 295.115 333.921 392.597 333.921 392.597C333.921 392.597 253.073 425.978 194.063 392.597V392.654Z" fill="#EFEFEF"/>
</g>
<path d="M171.43 470.961L0.341034 558.203C0.341034 558.203 27.2151 561.427 36.2108 581.965C45.2065 602.502 31.0623 633.959 31.0623 633.959L171.43 557.58V470.961Z" fill="#F5B0C3"/>
<path d="M348.063 470.961L531.315 528.556C531.315 528.556 505.346 536.194 499.915 557.92C494.484 579.645 513.607 608.33 513.607 608.33L362.49 556.392L348.063 470.961Z" fill="#F5B0C3"/>
<g filter="url(#filter3_d_4090_4999)">
<path d="M171.427 470.961C171.427 470.961 112.531 544.737 52.8988 692.969C-6.78985 841.2 7.2978 1062.53 7.2978 1062.53C7.2978 1062.53 24.6103 1116.45 69.8718 1079.84C105.063 1051.38 142.573 1031.35 164.751 1053.65C188.91 1077.92 216.18 1089.46 247.919 1069.26C279.659 1049.06 284.355 1037.52 313.379 1044.25C346.193 1051.89 345.401 1073.79 385.571 1078.99C417.367 1083.12 435.641 1050.99 467.381 1044.25C499.121 1037.52 504.382 1072.49 526.674 1075.37C568.371 1080.8 568.371 1047.14 568.371 1047.14C568.371 1047.14 526.674 748.64 473.774 639.051C419.856 527.368 348.004 470.961 348.004 470.961C348.004 470.961 269.588 508.811 171.371 470.961H171.427Z" fill="#EFEFEF"/>
</g>
<path d="M214.711 483.344C209.392 482.325 204.018 481.137 198.586 479.723C198.586 479.723 147.893 563.343 120.963 642.947C94.0321 722.494 85.9416 813.639 85.9416 813.639C85.9416 813.639 106.988 680.514 153.89 591.009C186.875 528.039 206.167 496.583 214.711 483.4V483.344Z" fill="#F6DFEB"/>
<path d="M269.137 487.59C264.724 487.76 260.142 487.76 255.446 487.703C252.73 516.501 246.507 592.087 247.016 669.202C247.638 767.363 266.252 837.97 266.252 837.97C266.252 837.97 254.654 722.497 256.634 656.698C258.218 602.441 266.365 516.218 269.137 487.59Z" fill="#F6DFEB"/>
<path d="M323.905 479.396C320.171 480.415 315.984 481.433 311.514 482.395C322.321 504.686 352.533 567.996 371.542 617.84C395.022 679.452 410.637 808.391 410.637 808.391C410.637 808.391 416.408 710.23 387.95 626.496C365.262 559.736 335.163 500.556 323.905 479.34V479.396Z" fill="#F6DFEB"/>
<path d="M345.009 454.218C329.224 459.819 298.107 468.193 255.221 467.061C217.994 466.156 189.592 455.519 177.372 450.145L175.222 457.669C188.461 463.497 217.089 473.85 255.052 474.756C257.654 474.812 260.257 474.869 262.803 474.869C302.18 474.869 330.695 467.4 346.423 461.913L345.009 454.218Z" fill="#D98CA1"/>
<path d="M342.35 439.328L340.992 431.691C326.508 435.99 296.466 443.232 258.107 443.232C228.177 443.232 197.4 434.01 183.538 429.258L181.388 436.669C195.872 441.648 226.933 450.927 258.107 450.927C297.088 450.927 327.187 443.855 342.406 439.385L342.35 439.328Z" fill="#D98CA1"/>
<path d="M187.896 413.988C198.023 418.457 223.992 428.245 257.146 428.245C259.013 428.245 260.88 428.245 262.804 428.132C295.336 427 324.077 418.74 337.768 414.101L336.41 406.406C323.624 410.763 294.713 419.362 262.578 420.437C227.556 421.625 199.268 410.536 190.046 406.463L187.896 413.931V413.988Z" fill="#D98CA1"/>
</g>
<defs>
<filter id="filter0_d_4090_4999" x="153.008" y="153.145" width="320.817" height="902.562" filterUnits="userSpaceOnUse" color-interpolation-filters="sRGB">
<feFlood flood-opacity="0" result="BackgroundImageFix"/>
<feColorMatrix in="SourceAlpha" type="matrix" values="0 0 0 0 0 0 0 0 0 0 0 0 0 0 0 0 0 0 127 0" result="hardAlpha"/>
<feOffset dy="-4"/>
<feGaussianBlur stdDeviation="2"/>
<feComposite in2="hardAlpha" operator="out"/>
<feColorMatrix type="matrix" values="0 0 0 0 0 0 0 0 0 0 0 0 0 0 0 0 0 0 0.25 0"/>
<feBlend mode="normal" in2="BackgroundImageFix" result="effect1_dropShadow_4090_4999"/>
<feBlend mode="normal" in="SourceGraphic" in2="effect1_dropShadow_4090_4999" result="shape"/>
</filter>
<filter id="filter1_d_4090_4999" x="68.789" y="153.145" width="320.81" height="902.562" filterUnits="userSpaceOnUse" color-interpolation-filters="sRGB">
<feFlood flood-opacity="0" result="BackgroundImageFix"/>
<feColorMatrix in="SourceAlpha" type="matrix" values="0 0 0 0 0 0 0 0 0 0 0 0 0 0 0 0 0 0 127 0" result="hardAlpha"/>
<feOffset dy="-4"/>
<feGaussianBlur stdDeviation="2"/>
<feComposite in2="hardAlpha" operator="out"/>
<feColorMatrix type="matrix" values="0 0 0 0 0 0 0 0 0 0 0 0 0 0 0 0 0 0 0.25 0"/>
<feBlend mode="normal" in2="BackgroundImageFix" result="effect1_dropShadow_4090_4999"/>
<feBlend mode="normal" in="SourceGraphic" in2="effect1_dropShadow_4090_4999" result="shape"/>
</filter>
<filter id="filter2_d_4090_4999" x="149.878" y="216.045" width="225.609" height="195.389" filterUnits="userSpaceOnUse" color-interpolation-filters="sRGB">
<feFlood flood-opacity="0" result="BackgroundImageFix"/>
<feColorMatrix in="SourceAlpha" type="matrix" values="0 0 0 0 0 0 0 0 0 0 0 0 0 0 0 0 0 0 127 0" result="hardAlpha"/>
<feOffset/>
<feGaussianBlur stdDeviation="2"/>
<feComposite in2="hardAlpha" operator="out"/>
<feColorMatrix type="matrix" values="0 0 0 0 0 0 0 0 0 0 0 0 0 0 0 0 0 0 0.25 0"/>
<feBlend mode="normal" in2="BackgroundImageFix" result="effect1_dropShadow_4090_4999"/>
<feBlend mode="normal" in="SourceGraphic" in2="effect1_dropShadow_4090_4999" result="shape"/>
</filter>
<filter id="filter3_d_4090_4999" x="1.84918" y="468.961" width="570.522" height="629.619" filterUnits="userSpaceOnUse" color-interpolation-filters="sRGB">
<feFlood flood-opacity="0" result="BackgroundImageFix"/>
<feColorMatrix in="SourceAlpha" type="matrix" values="0 0 0 0 0 0 0 0 0 0 0 0 0 0 0 0 0 0 127 0" result="hardAlpha"/>
<feOffset dy="2"/>
<feGaussianBlur stdDeviation="2"/>
<feComposite in2="hardAlpha" operator="out"/>
<feColorMatrix type="matrix" values="0 0 0 0 0 0 0 0 0 0 0 0 0 0 0 0 0 0 0.25 0"/>
<feBlend mode="normal" in2="BackgroundImageFix" result="effect1_dropShadow_4090_4999"/>
<feBlend mode="normal" in="SourceGraphic" in2="effect1_dropShadow_4090_4999" result="shape"/>
</filter>
<clipPath id="clip0_4090_4999">
<rect width="568.032" height="1092.61" fill="white" transform="translate(0.341034 0.0136719)"/>
</clipPath>
<clipPath id="clip1_4090_4999">
<rect width="397.025" height="894.528" fill="white" transform="translate(72.7908 161.143)"/>
</clipPath>
</defs>
</svg>
