<svg width="1344" height="709" viewBox="0 0 1344 709" fill="none" xmlns="http://www.w3.org/2000/svg">
<g clip-path="url(#clip0_4090_4417)">
<path d="M1342.25 689.971C1314.24 672.745 1286.05 655.867 1258.32 638.235C1223.64 616.138 1187.8 600.188 1144.88 602.624C1125.16 603.726 1105.09 598.216 1081.02 595.142L1104.45 674.833C1115.59 683.997 1126.14 692.581 1136.7 701.223C1135.37 703.195 1134.09 705.167 1132.76 707.139C1122.61 701.339 1112.4 695.539 1100.86 688.985C1091.87 694.669 1082.06 700.875 1070.52 708.183C1068.14 689.681 1087.05 689.159 1092.45 674.369C1084.85 649.081 1076.32 620.662 1067.39 591.14L978.884 567.65V610.512L906.965 667.815C911.895 677.037 916.187 684.983 920.479 692.929C918.623 694.437 916.709 695.945 914.853 697.453C910.329 689.333 905.747 681.155 901.977 674.427C883.881 679.937 871.585 683.649 854.533 688.811C864.915 669.265 882.257 671.411 893.335 663.581C906.153 654.533 918.507 644.847 930.918 635.22C942.692 626.056 954.234 616.66 965.892 607.38V564.576C956.902 561.212 948.086 557.617 939.096 554.601C896.409 540.217 853.895 524.673 818.574 496.311C797.926 479.724 777.974 460.12 763.939 437.964C735.055 392.319 740.101 343.889 762.953 296.62C780.874 259.558 776.408 246.161 739.521 227.311C734.939 224.991 730.357 222.613 725.775 220.003C720.671 217.103 722.005 209.389 727.805 208.345C758.139 202.893 780.41 183.985 802.276 162.352C831.682 133.352 879.241 134.454 907.197 164.846C918.796 177.432 928.25 192.859 935.384 208.461C968.676 281.366 1013.34 346.615 1068.32 404.499C1150.27 490.801 1233.33 576.06 1315.86 661.783C1324.68 670.889 1333.14 680.343 1341.73 689.623L1342.19 689.971H1342.25Z" fill="#FFABC1"/>
<path d="M1341.79 689.57C1342.25 689.86 1342.71 690.092 1343.18 690.382C1342.89 690.208 1342.6 690.092 1342.25 689.918L1341.79 689.57Z" fill="black"/>
<path d="M796.131 212.056C799.611 217.102 803.845 221.162 808.717 224.816C817.417 231.37 828.089 233.748 838.76 231.834C846.532 230.442 853.434 225.802 859.292 220.698C864.338 216.29 864.106 207.126 859.292 202.66C853.898 197.73 846.648 197.962 841.254 202.66C840.5 203.298 837.716 205.154 841.022 202.95C840.442 203.298 839.92 203.762 839.34 204.11C838.122 204.922 836.846 205.676 835.57 206.314C833.018 207.59 836.498 206.024 836.498 205.966C836.498 206.082 834.642 206.604 834.41 206.662C833.251 207.01 832.09 207.242 830.931 207.416L834.294 206.952C832.264 207.184 830.235 207.184 828.205 206.952L831.568 207.416C830.061 207.184 828.553 206.836 827.103 206.314C826.755 206.198 826.407 206.082 826.117 205.966C824.435 205.386 829.074 207.3 827.798 206.662C827.103 206.314 826.407 206.024 825.769 205.618C824.609 204.98 823.507 204.226 822.405 203.472C820.317 202.022 825.073 205.676 823.217 204.11C822.695 203.704 822.231 203.298 821.767 202.834C820.317 201.5 818.925 200.108 817.707 198.6C817.475 198.368 817.301 198.078 817.069 197.846C815.909 196.454 819.563 200.862 818.519 199.702C818.345 199.528 818.229 199.354 818.113 199.122C816.199 196.338 813.821 194.192 810.515 193.264C807.441 192.453 803.381 192.8 800.713 194.54C795.261 198.078 792.129 206.082 796.131 211.94V212.056Z" fill="#35353C"/>
<path d="M1.65421 690.369C10.2961 681.089 18.764 671.635 27.5219 662.529C110.055 576.806 193.11 491.49 275.063 405.245C330.046 347.361 374.705 282.17 407.997 209.207C415.131 193.547 424.643 178.178 436.185 165.592C464.14 135.2 511.7 134.098 541.105 163.098C563.783 185.486 586.809 204.973 618.882 209.613C623.638 210.309 624.972 216.457 620.796 218.893C615.112 222.257 609.486 225.157 603.802 228.057C566.915 246.907 562.449 260.305 580.371 297.366C603.222 344.635 608.268 393.065 579.385 438.71C565.349 460.924 545.397 480.47 524.749 497.057C489.428 525.419 446.856 540.963 404.227 555.347C395.237 558.363 386.421 561.959 377.431 565.323V608.126C389.089 617.406 400.631 626.802 412.405 635.966C424.817 645.594 437.17 655.279 449.988 664.327C461.066 672.157 478.466 670.011 488.79 689.557C471.738 684.395 459.442 680.683 441.346 675.173C437.576 681.901 433.053 690.021 428.471 698.199C426.615 696.691 424.701 695.183 422.845 693.675C427.137 685.729 431.371 677.783 436.359 668.561L364.439 611.258V568.397L275.933 591.886C267.059 621.408 258.533 649.827 250.877 675.115C256.271 689.847 275.179 690.427 272.801 708.929C261.259 701.621 251.457 695.415 242.467 689.731C230.925 696.285 220.717 702.085 210.567 707.885C209.233 705.913 207.958 703.941 206.624 701.969C217.179 693.327 227.677 684.685 238.871 675.579L262.303 595.888C238.175 598.962 218.107 604.472 198.446 603.37C155.584 600.992 119.683 616.942 84.9991 638.982C57.2755 656.613 29.0299 673.491 1.07422 690.717L1.53821 690.369H1.65421Z" fill="#FFABC1"/>
<path d="M1.65639 690.371C1.19239 690.661 0.728398 690.893 0.264404 691.183C0.5544 691.009 0.844397 690.893 1.19239 690.719L1.65639 690.371Z" fill="black"/>
<path d="M482.473 219.014C488.447 225.394 496.625 230.266 504.86 233.05C522.202 238.907 539.892 231.542 551.26 217.97C553.464 215.302 554.972 212.518 554.972 208.98C554.972 205.848 553.58 202.136 551.26 199.99C546.562 195.64 537.804 194.538 533.222 199.99C531.83 201.614 530.438 203.18 528.872 204.688C528.466 205.036 526.436 206.37 526.378 206.834C527.828 205.732 528.176 205.442 527.422 206.022C527.132 206.254 526.784 206.486 526.494 206.66C525.102 207.588 523.652 208.284 522.202 209.038C525.624 207.124 523.304 208.574 522.202 208.922C521.622 209.096 520.984 209.27 520.404 209.444C519.186 209.734 516.576 209.676 520.81 209.502C520.23 209.502 519.65 209.618 519.07 209.676C517.736 209.734 516.46 209.676 515.126 209.56C512.864 209.386 518.722 210.256 516.054 209.676C515.416 209.56 514.836 209.444 514.198 209.27C512.98 208.98 511.82 208.574 510.66 208.168C508.514 207.356 511.124 208.516 511.82 208.69C511.24 208.574 510.544 208.11 510.022 207.82C509.036 207.298 508.05 206.776 507.122 206.196C506.252 205.674 505.382 205.094 504.57 204.514C504.222 204.282 503.932 204.05 503.584 203.818C501.496 202.31 506.078 205.848 504.686 204.688C503.294 203.528 501.844 202.368 500.626 201.034C496.103 196.162 487.171 196.104 482.589 201.034C477.775 206.254 477.717 213.852 482.589 219.072L482.473 219.014Z" fill="#35353C"/>
<path d="M609.719 272.49C607.631 272.49 605.601 271.446 604.383 269.59C602.469 266.632 603.281 262.688 606.239 260.774C621.203 250.972 639.936 236.936 659.076 220.696C645.04 209.908 631.468 198.541 618.419 186.651C570.859 143.441 547.602 102.668 547.196 61.9523C547.08 49.3665 549.342 31.4447 560.825 17.3509C572.251 3.3151 590.927 -2.83282 606.297 2.38711C621.783 7.66504 631.004 22.5708 637.326 34.9827C643.3 46.7565 648.52 58.9364 652.928 71.3482C656.756 53.3684 663.484 38.6946 673.112 26.9208C689.7 6.67905 721.947 -7.12477 748.975 7.14305C766.897 16.5969 778.728 37.0127 779.772 60.4443C780.584 78.0181 775.887 96.6359 765.041 118.966C749.265 151.329 714.755 188.681 679.492 220C695.5 231.716 712.087 242.678 729.139 252.828C732.155 254.626 733.141 258.512 731.343 261.528C729.545 264.544 725.659 265.53 722.585 263.732C704.373 252.886 686.684 241.112 669.632 228.526C649.39 245.81 629.496 260.774 613.257 271.388C612.213 272.084 610.995 272.432 609.777 272.432L609.719 272.49ZM594.929 13.291C586.229 13.291 576.891 17.7569 570.685 25.3548C561.579 36.5487 559.781 51.3385 559.897 61.8363C560.245 99.3038 581.589 135.959 626.945 177.197C640.4 189.435 654.436 201.092 668.878 212.17C703.735 181.431 738.361 144.485 753.441 113.398C763.359 93.0399 767.593 76.3941 766.955 61.0243C766.143 42.4066 756.689 25.6448 742.943 18.3949C722.643 7.72304 696.428 18.3949 682.856 34.9827C670.038 50.6425 663.136 72.7402 661.86 102.61C661.744 105.8 659.25 108.352 656.118 108.642C652.928 108.932 650.086 106.902 649.332 103.828C643.996 82.0201 636.108 60.7343 625.901 40.6666C620.391 29.7627 613.257 18.1049 602.179 14.335C599.859 13.523 597.423 13.175 594.929 13.175V13.291Z" fill="#EFE4DD"/>
</g>
<defs>
<clipPath id="clip0_4090_4417">
<rect width="1342.91" height="708.345" fill="white" transform="translate(0.265503 0.589844)"/>
</clipPath>
</defs>
</svg>
