<svg width="799" height="695" viewBox="0 0 799 695" fill="none" xmlns="http://www.w3.org/2000/svg">
<g clip-path="url(#clip0_4090_4727)">
<path d="M798.362 108.899V418.346C798.362 423.496 798.019 428.531 797.332 433.452C790.008 485.98 744.804 526.492 690.101 526.492H296.77C299.745 588.176 323.32 647.57 364.519 694.376C330.53 691.515 296.655 682.36 264.383 666.224C203.387 635.554 158.869 585.086 134.722 526.492H108.515C53.813 526.492 8.60903 485.98 1.28485 433.452C0.598204 428.531 0.254883 423.496 0.254883 418.346V108.899C0.254883 49.1614 48.6632 0.638672 108.515 0.638672H690.101C749.954 0.638672 798.362 49.1614 798.362 108.899Z" fill="#FC688F"/>
<path d="M798.362 108.899V418.346C798.362 423.496 798.019 428.531 797.332 433.452C781.654 452.564 757.85 464.809 731.185 464.809H67.4314C40.7668 464.809 16.9632 452.564 1.28485 433.452C0.598204 428.531 0.254883 423.496 0.254883 418.346V108.899C0.254883 49.1614 48.6632 0.638672 108.515 0.638672H690.101C749.954 0.638672 798.362 49.1614 798.362 108.899Z" fill="#FDA9BF"/>
<path d="M60.2246 139.364C53.9303 139.364 48.7805 134.214 48.7805 127.92V88.0943C48.7805 59.942 71.6686 36.9395 99.9354 36.9395H183.019C189.313 36.9395 194.463 42.0893 194.463 48.3835C194.463 54.6777 189.313 59.8275 183.019 59.8275H99.9354C84.3715 59.8275 71.6686 72.5304 71.6686 88.0943V127.92C71.6686 134.214 66.5188 139.364 60.2246 139.364Z" fill="white"/>
<path d="M737.855 296.232C744.149 296.232 749.299 301.382 749.299 307.676V347.501C749.299 375.654 726.411 398.656 698.144 398.656H615.061C608.767 398.656 603.617 393.506 603.617 387.212C603.617 380.918 608.767 375.768 615.061 375.768H698.144C713.708 375.768 726.411 363.065 726.411 347.501V307.676C726.411 301.382 731.561 296.232 737.855 296.232Z" fill="white"/>
<path d="M401.021 381.714C401.021 381.714 227.415 311.447 227.415 182.588C227.415 53.7277 401.021 67.9183 397.931 169.084C397.931 65.9728 574.513 53.7277 574.513 176.866C574.513 300.003 400.907 381.714 400.907 381.714H401.021Z" fill="white"/>
<path d="M116.814 328.09C116.814 328.09 83.717 314.694 83.717 290.128C83.717 265.562 116.814 268.267 116.225 287.554C116.225 267.896 149.888 265.562 149.888 289.037C149.888 312.512 116.792 328.09 116.792 328.09H116.814Z" fill="white" fill-opacity="0.5"/>
<path d="M232.107 430.678C232.107 430.678 194.421 415.424 194.421 387.452C194.421 359.479 232.107 362.559 231.436 384.52C231.436 362.137 269.768 359.479 269.768 386.209C269.768 412.94 232.082 430.678 232.082 430.678H232.107Z" fill="white" fill-opacity="0.3"/>
<path d="M692.887 100.887C692.887 100.887 655.201 85.6334 655.201 57.6606C655.201 29.6878 692.887 32.7683 692.217 54.7292C692.217 32.3459 730.549 29.6878 730.549 56.4185C730.549 83.1492 692.863 100.887 692.863 100.887H692.887Z" fill="white" fill-opacity="0.3"/>
<path d="M636.713 234.547C636.713 234.547 603.617 221.151 603.617 196.585C603.617 172.019 636.713 174.724 636.124 194.011C636.124 174.353 669.788 172.019 669.788 195.494C669.788 218.969 636.692 234.547 636.692 234.547H636.713Z" fill="white" fill-opacity="0.5"/>
</g>
<defs>
<clipPath id="clip0_4090_4727">
<rect width="798.107" height="693.737" fill="white" transform="translate(0.254883 0.638672)"/>
</clipPath>
</defs>
</svg>
