<svg width="494" height="380" viewBox="0 0 494 380" fill="none" xmlns="http://www.w3.org/2000/svg">
<g clip-path="url(#clip0_4090_5022)">
<path d="M264.483 242.795C251.572 248.341 210.842 234.704 200.841 220.157C190.84 205.61 214.024 149.787 228.207 142.969C242.39 136.15 284.666 150.333 291.848 165.516C299.122 180.699 277.393 237.158 264.483 242.704V242.795Z" fill="#231F20"/>
<path d="M415.948 379.167C393.947 389.077 259.935 272.34 256.39 244.156C252.935 215.972 261.208 183.606 286.119 158.694C310.94 133.783 477.863 111.963 491.864 143.875C498.046 157.967 480.227 201.698 465.407 249.247C464.134 253.248 479.226 261.521 477.863 265.521C459.588 321.435 427.404 374.076 415.858 379.258L415.948 379.167Z" fill="#231F20"/>
<path d="M2.00785 232.333C12.9179 253.88 190.478 247.788 211.025 228.059C231.482 208.33 245.483 177.964 241.846 142.961C238.209 107.868 122.382 -14.2336 91.4699 1.76778C77.7415 8.85928 64.013 54.0449 45.5569 100.231C44.0114 104.14 27.1009 101.049 25.6462 105.049C4.55352 159.872 -3.62898 221.059 2.00785 232.333Z" fill="#231F20"/>
</g>
<defs>
<clipPath id="clip0_4090_5022">
<rect width="492.859" height="379.486" fill="white" transform="translate(0.275635 0.330078)"/>
</clipPath>
</defs>
</svg>
