<svg width="803" height="754" viewBox="0 0 803 754" fill="none" xmlns="http://www.w3.org/2000/svg">
<g clip-path="url(#clip0_4090_5658)">
<path d="M192.766 226.366C187.106 191.186 168.066 158.182 140.109 136.034C132.642 130.12 123.809 123.585 123.347 114.075C122.858 103.848 132.312 96.2588 140.787 90.5147C155.825 80.3261 170.872 70.1281 185.911 59.9395C199.046 63.1222 207.069 78.6217 212.013 92.0967C221.429 117.728 230.159 144.311 229.594 171.609C229.029 198.917 217.569 227.43 194.376 241.856C194.131 236.668 193.594 231.489 192.766 226.366Z" fill="#FC5E82"/>
<path d="M451.239 297.947C464.516 264.876 490.345 236.881 522.503 221.428C531.09 217.304 541.147 212.878 543.69 203.697C546.42 193.829 538.878 184.346 531.872 176.879C519.442 163.621 507.022 150.362 494.592 137.113C481.08 137.32 469.836 150.673 462.049 162.726C447.218 185.655 432.848 209.658 427.387 236.419C421.925 263.181 426.822 293.511 446.257 312.702C447.642 307.693 449.308 302.768 451.239 297.947Z" fill="#FC5E82"/>
<path d="M188.282 167.36C202.087 134.506 203.386 96.4351 191.371 62.8372C188.16 53.8727 184.12 43.6464 188.762 35.3317C193.753 26.3954 205.787 24.9547 216.014 24.5592C234.169 23.8624 252.324 23.1656 270.488 22.4688C279.952 32.1206 278.558 49.5129 275.639 63.5717C270.074 90.305 263.426 117.481 248.51 140.354C233.594 163.226 208.782 181.362 181.474 181.353C184.017 176.814 186.286 172.144 188.301 167.36H188.282Z" fill="#FC5E82"/>
<path d="M392.631 411.105C392.715 411.058 392.8 411.02 392.876 410.973C420.72 396.199 445.749 372.272 452.623 341.508C456.795 322.854 453.998 303.343 456.23 284.359C459.629 255.394 474.441 229.207 488.65 203.745C502.869 178.283 517.098 151.634 519.169 122.537C521.241 93.4498 507.728 61.1607 480.581 50.5201C450.156 38.5894 413.592 59.6258 384.504 44.7384C372.734 38.7118 363.647 24.9732 353.157 16.9221C329.088 -1.54358 294.492 -5.04651 267.156 8.0518C255.734 9.55844 244.858 16.4231 237.212 25.331C227.023 37.2146 221.439 52.2621 216.138 66.9801C201.542 107.49 187.53 148.216 174.103 189.131C162.68 223.934 151.541 260.018 154.818 296.497C159.46 348.335 194.951 395.511 242.278 417.15C289.52 438.752 346.688 435.371 392.621 411.096L392.631 411.105Z" fill="#FC5E82"/>
<path d="M130.655 116.491C133.706 120.7 138.471 124.344 141.117 125.785C144.563 127.621 148.33 129.288 151.71 131.501C164.752 140.041 181.542 151.803 187.079 167.133C192.352 181.756 192.145 200.439 192.587 215.769C193.52 247.898 197.437 280.573 207.804 311.12C218.633 343.032 233.897 361.62 264.529 376.668C291.714 390.02 322.111 395.021 352.215 394.258C367.63 393.862 382.988 391.988 398.13 389.088C407.443 387.308 433.263 385.162 439.44 378.598C439.431 378.608 416.483 402.968 416.483 402.968C412.01 407.714 406.906 411.697 401.407 415.068C392.565 420.37 382.442 423.948 372.188 424.635L371.302 421.547C374.683 419.692 377.875 417.667 380.879 415.492C384.617 412.789 388.007 409.786 391.152 406.537C395.315 402.186 399.147 397.158 402.038 391.941L413.074 405.708C403.545 411.49 393.403 416.208 382.894 419.927C334.795 436.811 277.778 434.052 235.282 403.985C223.746 395.802 213.445 386 203.774 375.707C184.376 355.076 168.867 329.99 162.52 302.165C157.906 281.929 155.355 260.732 159.008 240.12C162.342 221.296 173.51 203.113 172.154 183.734C170.788 164.119 158.857 151.963 145.674 138.883C136.889 130.163 119.045 119.287 129.101 105.285C126.634 108.713 128 112.809 130.665 116.481L130.655 116.491Z" fill="#F23A6D"/>
<path d="M466.7 174.609C474.939 169.101 482.143 161.85 486.945 153.14C488.141 150.974 492.897 142.819 490.674 141.19C488.725 139.759 476.39 144.458 473.781 144.976C448.988 149.854 423.271 150.051 398.412 145.494C365.087 139.382 329.521 131.501 299.859 113.459C276.129 99.0234 231.175 55.444 258.04 26.978C255.008 23.0136 247.861 21.7424 243.294 24.7745C237.315 28.7577 235.3 36.5639 234.631 43.7205C231.326 78.9098 249.66 113.704 276.318 136.896C302.976 160.089 337.063 173.084 371.386 181.521C394.231 187.133 418.252 190.919 441.162 185.617C450.155 183.536 458.96 179.779 466.691 174.609H466.7Z" fill="#CA284D"/>
<path d="M164.15 53.0996C164.508 48.608 165.506 44.2481 167.549 40.1896C172.728 29.8692 187.54 23.7108 196.194 31.3476C190.478 100.982 264.36 143.272 316.631 170.58C339.353 182.444 358.534 195.891 374.542 216.014C389.232 234.47 409.232 251.006 416.361 274.387C417.453 277.974 420.984 292.419 414.901 292.071C411.05 291.845 404.543 278.869 402.179 275.884C393.262 264.603 382.81 254.829 370.578 247.211C350.238 234.536 327.582 225.939 304.945 218.368C259.925 203.321 210.3 186.898 185.93 146.163C173.048 124.627 169.178 99.052 165.572 74.2114C164.564 67.2808 163.604 60.0396 164.159 53.109L164.15 53.0996Z" fill="#F23A6D"/>
<path d="M347.412 33.5624C337.572 28.1385 326.178 26.0858 314.954 25.2571C302.449 24.3437 288.945 25.1629 278.955 32.7338C269.133 40.1822 264.538 53.8738 267.881 65.7385C271.064 77.0571 281.271 86.0216 292.844 87.8955C281.836 76.3321 287.655 58.1488 299.718 50.1072C309.85 43.3556 323.118 42.8 334.907 45.8321C346.697 48.8642 357.366 55.1167 367.855 61.2939C366.509 49.7776 358.335 39.8432 348.297 34.0521C348.006 33.8826 347.704 33.7131 347.412 33.553V33.5624Z" fill="#CA284D"/>
<path d="M479.29 115.946C477.284 123.329 472.086 129.949 464.93 132.538C452.924 87.923 426.313 87.0096 403.177 68.2331C427.16 55.7846 460.626 64.7773 474.365 88.3185C478.697 95.7481 481.211 104.515 479.911 113.027C479.761 114.007 479.554 114.986 479.29 115.946Z" fill="#CA284D"/>
<path d="M355.482 101.774C353.918 96.8305 352.355 91.8963 350.783 86.9526C337.072 85.0317 323.051 94.3446 318.268 107.123C329.906 115.984 345.688 119.355 359.879 115.682C358.41 111.049 356.941 106.407 355.472 101.774H355.482Z" fill="#CA284D"/>
<path d="M320.631 65.5504C339.991 56.8025 363.711 58.3656 381.715 69.6654C393.985 77.3587 425.154 113.753 408.449 128.594C400.737 135.439 387.356 129.535 383.109 121.625C380.604 116.964 379.597 111.672 377.939 106.644C369.954 82.5095 344.982 65.1267 319.576 66.0306C319.924 65.8611 320.273 65.7011 320.621 65.5504H320.631Z" fill="#CA284D"/>
<path d="M363.278 404.844C372.375 400.503 381.104 395.352 389.334 389.646C416.557 370.737 439.062 345.944 461.313 321.376C456.53 361.189 433.553 398.459 400.134 420.626C417.875 409.288 438.817 403.036 459.863 402.8C414.777 438.988 354.719 455.9 297.372 448.555C287.57 447.303 276.986 445.495 268.294 450.203C258.435 455.533 254.396 467.322 250.968 477.982C225.082 558.445 186.691 634.86 137.584 703.657C126.652 705.483 117.603 693.195 118.224 682.121C118.846 671.047 125.767 661.49 132.236 652.488C156.116 619.247 177.256 584.049 195.392 547.362C204.47 529.009 212.69 510.28 220.327 491.287C226.674 475.496 233.614 457.133 227.606 440.061C222.182 424.628 204.743 415.4 192.369 405.898C159.063 380.352 144.421 343.298 136.614 302.054C128.808 260.809 143.94 224.537 172.567 193.83C148.084 265.179 162.5 302.185 183.367 354.786C177.218 328.843 182.463 300.406 197.473 278.371C205.618 317.497 207.907 359.4 232.983 392.706C237.145 398.233 238.821 405.851 244.866 409.213C255.742 415.268 269.123 407.085 277.4 397.791C290.79 382.762 299.435 364.193 310.734 347.535C322.034 330.877 337.421 315.293 357.176 311.423C332.882 365.963 329.916 389.627 296.28 418.761C319.341 420.541 342.27 414.863 363.269 404.844H363.278Z" fill="#6C7A07"/>
<path d="M9.41757 407.863C42.121 411.677 75.3894 415.82 105.24 429.662C135.551 443.721 162.275 469.767 168.302 502.63C171.758 521.491 168.245 540.852 168.273 560.024C168.302 579.196 173.01 600.175 188.312 611.729C185.722 615.421 180.581 616.023 176.475 614.385C161.983 607.775 166.522 581.55 151.314 579.487C141.738 578.188 132.858 584.007 123.903 587.642C97.2733 598.462 65.2667 589.441 44.1549 569.949C23.0338 550.456 11.7246 522.16 7.52486 493.722C3.32511 465.284 5.61332 436.348 7.90152 407.693C8.41001 407.75 8.90908 407.816 9.41757 407.872V407.863Z" fill="#6C7A07"/>
<path d="M13.7973 418.42C22.7053 421.085 30.6057 426.575 37.0936 433.185C56.5951 452.715 63.3468 481.247 80.3152 502.34C85.7862 509.091 92.4342 514.873 99.4966 520.193C113.904 531.05 129.224 541.22 142.398 553.97C149.065 560.467 155.204 567.765 159.489 576.042L158.632 576.683C151.965 570.374 144.931 564.893 137.577 559.789C122.661 549.375 106.615 540.646 92.7826 528.376C78.4602 516.144 67.1322 500.268 59.8156 483.036C52.4142 466.5 46.3877 449.353 34.6171 435.445C28.8731 428.618 21.8013 422.78 13.4395 419.427L13.7973 418.42Z" fill="#506105"/>
<path d="M119.175 531.431C118.167 526.13 117.913 520.904 117.715 515.602C117.583 512.297 117.461 508.822 117.649 505.526C117.706 502.636 118.271 498.417 118.497 495.488C118.826 490.808 118.581 484.97 118.242 480.271L117.819 475.177L117.197 470.092C116.303 463.294 114.853 456.542 113.045 449.8L114.033 449.404C120.813 461.721 125.211 475.836 127.198 489.792C127.847 494.942 128.949 500.752 128.779 505.969C128.638 509.538 127.97 513.239 127.094 516.704C125.606 522.034 123.535 527.213 120.21 531.685L119.165 531.441L119.175 531.431Z" fill="#506105"/>
<path d="M87.1035 507.906C79.9941 499.873 78.205 486.888 79.8434 476.662C81.6514 466.643 83.0356 456.605 82.32 446.454C81.8586 439.862 80.2295 433.29 76.6418 427.442L77.4799 426.773C78.0826 427.414 78.6852 428.063 79.2879 428.723C85.7476 436.359 88.4219 446.435 89.4859 456.2C90.1733 463.215 89.985 470.334 90.4087 477.302C90.776 483.253 89.646 491.257 89.081 497.171C88.7326 500.495 88.4784 503.838 88.1111 507.557L87.0941 507.906H87.1035Z" fill="#506105"/>
<path d="M60.4738 494.81C54.532 497.701 47.4885 497.776 41.2454 495.845C37.6106 494.565 34.4749 492.22 31.1886 490.29L28.0058 488.237L24.9549 486.024C19.1732 481.485 13.7681 475.901 9.84143 469.752L10.6324 469.027C16.2729 473.387 22.2806 477.012 28.6744 479.96C31.5747 481.269 35.1812 482.841 38.2509 483.642L41.5655 484.414C46.0572 485.337 50.1063 487.371 54.1271 489.574C56.3588 490.808 58.4869 492.06 60.5774 493.755L60.4832 494.819L60.4738 494.81Z" fill="#506105"/>
<path d="M107.838 549.474C102.404 552.685 96.1613 554.182 89.9087 554.596C85.5113 554.954 81.0102 554.502 76.7539 553.372C71.8668 551.922 66.5653 550.076 61.7912 548.249L56.9888 546.178L52.337 543.814C44.8321 539.737 37.5814 534.605 31.5925 528.644L32.2423 527.797C38.0522 531.196 44.0223 534.134 50.1901 536.441L54.823 538.098L59.5124 539.52L64.2206 540.792L68.9665 541.837C71.7255 542.374 75.737 542.75 78.5713 542.939C85.0216 543.278 91.3212 544.586 97.6491 545.895C101.03 546.583 104.335 547.28 107.715 548.419L107.847 549.483L107.838 549.474Z" fill="#506105"/>
<path d="M415.305 579.997C400.427 603.293 385.106 626.759 364.164 644.754C342.61 663.276 313.833 675.49 285.819 670.706C263.379 666.873 244 652.843 222.145 646.449C204.206 641.204 185.194 641.27 166.503 641.383C167.567 636.185 168.64 630.997 169.704 625.799C187.605 626.383 205.506 626.966 223.406 627.55C223.425 627.531 223.444 627.513 223.463 627.494C229.461 621.797 229.668 612.531 230.751 604.32C235.789 566.051 269.773 535.212 307.703 527.999C345.623 520.786 385.567 534.61 415.502 558.989C417.31 560.458 419.137 562.04 420.06 564.177C422.009 568.707 419.269 573.773 416.614 577.935C416.18 578.622 415.738 579.3 415.305 579.988V579.997Z" fill="#6C7A07"/>
<path d="M404.409 572.033C364.728 566.854 328.183 589.152 296.403 610.254C276.345 623.174 253.727 634.492 229.527 636.244L229.263 635.208C236.533 631.799 243.51 628.315 250.347 624.567C264.113 617.081 277.099 608.55 290.988 601.149C297.975 597.429 305.019 593.709 312.09 589.999C338.475 576.195 368.523 564.801 398.731 569.763L404.598 570.988L404.391 572.033H404.409Z" fill="#506105"/>
<path d="M333.409 541.928C331.536 554.16 326.969 566.373 320.707 577.089C318.334 581.007 315.98 585.668 312.966 589.171C307.524 595.131 300.414 599.84 292.448 601.563L291.798 600.715C293.182 597.73 294.858 595.113 296.619 592.476C299.906 587.551 303.314 582.758 307.59 578.671C309.463 576.854 312.025 574.246 313.644 572.24L316.366 568.746C318.748 565.564 321.827 561.072 323.918 557.682C327.082 552.588 329.85 547.202 332.383 541.627L333.409 541.928Z" fill="#506105"/>
<path d="M309.322 604.843C316.356 600.135 324.869 597.969 333.269 597.715C338.061 597.715 343.354 598.911 348.071 599.579C360.878 601.576 373.806 605.531 385.37 611.312L385.021 612.32C378.722 611.02 372.441 609.937 366.151 609.269C363.797 609.015 359.088 608.61 356.734 608.468C352.375 608.224 347.007 607.96 342.666 608.233C339.935 608.412 336.056 608.883 333.363 608.855C328.664 608.92 324.003 608.459 319.323 607.838C316.018 607.395 312.797 606.886 309.501 605.888L309.322 604.834V604.843Z" fill="#506105"/>
<path d="M269.981 605.791C268.503 597.401 270.245 588.643 273.842 581.007C276.036 576.694 279.595 572.532 282.477 568.681C290.424 558.388 300.613 549.217 311.903 542.842L312.543 543.699C307.967 548.19 303.701 552.88 299.897 557.88C298.447 559.782 295.782 563.52 294.464 565.507C292.11 569.123 289.294 573.643 287.514 577.551C286.413 580.009 285.047 583.625 283.823 585.969C281.78 590.131 279.35 594.058 276.827 597.975C275.047 600.753 273.258 603.456 271.017 606.045L269.981 605.781V605.791Z" fill="#506105"/>
<path d="M278.014 626.816C281.329 627.56 284.351 628.643 287.421 629.773C291.753 631.336 296.018 632.927 300.143 634.914C302.516 635.978 305.811 637.946 308.175 639.142C309.55 639.792 310.943 640.432 312.347 641.016L316.659 642.579L321.047 643.973L325.511 645.206L330.04 646.252C336.123 647.551 342.385 648.239 348.76 648.474L348.864 649.538C336.264 652.448 322.488 652.118 309.851 649.199C304.992 647.994 299.983 647.09 295.387 644.99C292.346 643.54 289.54 641.628 286.931 639.519C283.033 636.176 279.558 632.325 277.336 627.635L278.014 626.807V626.816Z" fill="#506105"/>
<path d="M513.311 163.385C529.508 169.392 542.615 183.828 536.033 202.237C531.956 213.151 522.163 220.74 512.52 225.807C507.332 228.509 501.823 230.976 496.729 233.858C483.499 241.334 471.643 251.561 463.074 264.141C455.07 275.996 450.682 290.582 451.822 304.924C452.302 309.82 453.376 314.679 455.174 319.34L453.281 320.329C449.289 314.142 446.596 306.845 445.522 299.519C442.81 282.126 447.631 264.075 456.954 249.301C462.227 240.948 468.847 233.462 476.116 226.824C483.367 220.27 490.825 213.97 498.876 208.546C500.505 207.444 504.441 204.893 506.108 203.791C509.14 201.804 511.927 199.921 514.178 198.075C516.07 196.531 517.897 194.742 519.074 192.698C522.031 187.293 520.167 181.888 517.558 176.012C515.826 172.236 513.782 168.762 511.899 164.976L513.33 163.385H513.311Z" fill="#F23A6D"/>
<path d="M176.626 69.703C172.295 113.819 203.539 152.822 239.067 175.149C257.42 186.787 277.223 195.827 297.327 204.142C312.77 210.489 328.599 216.186 343.759 223.408C346.208 224.576 351.18 226.967 353.609 228.163C374.062 238.465 396.416 250.038 408.573 270.509C413.611 278.928 416.841 288.401 418.121 298.062L416.125 298.834C413.931 295.755 411.812 292.742 409.59 289.87C391.209 265.556 369.787 260.584 343.854 248.23C332.328 242.589 321.141 236.356 309.644 230.517C276.432 213.267 241.045 197.955 213.765 171.57C186.853 145.666 166.457 107.491 174.508 69.3828L176.617 69.7218L176.626 69.703Z" fill="#CA284D"/>
<path d="M691.053 583.156C710.047 583.447 728.908 590.952 742.741 604.004C746.432 607.488 750.556 611.65 755.613 611.16C761.046 610.633 764.323 605.068 766.696 600.162C770.915 591.442 775.143 582.732 779.361 574.012C776.677 567.326 767.882 564.285 760.396 562.712C746.149 559.709 731.469 557.147 717.109 559.539C702.749 561.931 688.596 570.161 682.758 583.504C685.517 583.231 688.285 583.127 691.053 583.165V583.156Z" fill="#F7D8AC"/>
<path d="M633.472 452.322C649.894 442.783 662.681 427.01 668.36 408.865C669.876 404.024 671.439 398.375 676.081 396.331C681.072 394.128 686.656 397.386 691.129 400.503C699.076 406.04 707.014 411.576 714.962 417.113C715.885 424.26 709.707 431.21 703.944 436.248C692.984 445.834 681.43 455.25 667.738 460.184C654.047 465.119 637.671 464.864 626.061 456.079C628.594 454.968 631.07 453.706 633.462 452.322H633.472Z" fill="#F7D8AC"/>
<path d="M722.514 580.988C738.785 571.185 758.767 567.579 777.402 571.345C782.374 572.353 788.081 573.699 792.111 570.611C796.442 567.296 796.282 560.837 795.698 555.413C794.672 545.78 793.646 536.156 792.619 526.523C786.8 522.267 777.732 524.338 770.547 526.956C756.874 531.947 743.051 537.531 732.128 547.154C721.205 556.778 713.549 571.251 715.649 585.658C717.843 583.973 720.141 582.41 722.504 580.988H722.514Z" fill="#F7D8AC"/>
<path d="M578.291 491.909C578.291 491.909 578.329 491.815 578.338 491.768C583.998 475.948 594.695 460.91 610.392 454.931C619.912 451.296 630.412 451.277 640.261 448.641C655.28 444.62 667.955 434.808 680.291 425.354C692.626 415.9 705.593 406.351 720.781 403.027C735.961 399.703 754.031 404.355 761.724 417.858C770.35 432.991 762.063 453.886 772.148 468.086C776.226 473.83 784.173 477.568 789.22 482.483C800.803 493.764 805.304 511.74 800.492 527.155C800.577 533.295 797.789 539.557 793.674 544.274C788.194 550.565 780.68 554.661 773.325 558.587C753.08 569.388 732.674 579.906 712.128 590.123C694.651 598.815 676.468 607.459 656.975 608.532C629.282 610.058 601.673 594.963 586.634 571.657C571.615 548.399 569.016 517.984 578.291 491.9V491.909Z" fill="#F7D8AC"/>
<path d="M753.805 607.401C751.263 606.845 749.587 604.717 748.061 602.674C746.828 600.998 745.66 599.143 744.229 597.523C737.166 589.773 726.347 580.47 715.603 578.982C711.422 578.37 706.977 579.123 703.145 580.809C697.74 583.201 693.464 586.139 688.229 588.417C676.496 593.747 663.219 595.517 650.638 592.702C634.856 589.227 620.845 579.811 609.903 568.05C606.965 564.886 604.403 561.42 602.191 557.71C589.337 535.619 584.949 508.886 588.847 483.461L591.832 464.723L580.74 478.697C578.583 481.418 576.87 484.413 575.514 487.576C573.395 492.652 572.284 498.255 572.708 503.726L574.403 503.961C575.118 502.031 575.947 500.195 576.86 498.443C578 496.268 579.318 494.243 580.796 492.341C582.774 489.808 585.128 487.407 587.661 485.477L579.553 480.712C577.237 486.183 575.523 491.889 574.374 497.718C569.158 524.385 574.986 554.245 594.102 574.349C599.309 579.801 605.26 584.481 611.428 588.804C627.351 599.981 647.051 607.175 666.722 604.614C678.775 603.164 690.093 598.239 699.566 591.657C701.902 590.056 704.086 588.483 706.233 587.306C709.181 585.668 712.203 584.858 715.48 585.093C724.991 586.045 734.888 593.484 741.893 599.802C744.991 602.655 747.223 606.714 751.263 608.512C751.988 608.823 752.769 609.03 753.551 609.105L753.786 607.41L753.805 607.401Z" fill="#F7BB97"/>
<path d="M697.334 434.702C699.603 429.938 702.88 425.578 707.108 422.376C708.163 421.576 712.099 418.45 713.125 419.495C714.029 420.408 712.494 427.282 712.428 428.695C711.76 442.151 713.624 455.729 717.937 468.489C721.591 479.308 726.939 489.469 731.28 500.034C734.642 508.217 737.448 516.739 742.382 524.083C745.009 527.982 748.305 531.494 752.232 534.103C756.356 536.843 760.707 537.568 765.33 538.867C774.097 541.334 785.058 541.193 791.197 533.434C793.523 534.724 794.738 538.397 793.485 541.043C791.847 544.498 787.882 546.165 784.163 547.06C765.857 551.504 746.102 544.508 731.817 532.219C717.541 519.931 708.068 502.953 700.987 485.504C696.27 473.884 692.437 461.511 693.473 449.015C693.878 444.109 695.187 439.175 697.324 434.702H697.334Z" fill="#F7BB97"/>
<path d="M784.635 584.95C786.98 584.413 789.202 583.556 791.189 582.172C796.236 578.65 798.345 570.364 793.656 566.381C772.808 571.183 751.32 559.573 736.441 544.196C721.563 528.809 711.158 509.684 697.25 493.412C684.208 478.148 666.675 465.135 645.977 463.977C644.49 463.892 642.974 463.873 641.542 464.297C638.906 465.078 637.041 468.016 635.836 470.333C660.385 476.453 675.282 500.767 686.675 523.357C698.069 545.947 710.537 570.863 733.89 580.59C746.235 585.732 760.02 585.807 773.401 585.807C777.13 585.807 781.028 585.76 784.635 584.931V584.95Z" fill="#F7BB97"/>
<path d="M780.877 486.804C784.493 491.578 786.452 497.426 787.742 503.283C789.182 509.808 789.785 516.993 786.555 522.841C783.382 528.594 776.508 532.069 769.992 531.212C763.777 530.402 758.268 525.703 756.385 519.743C763.325 524.658 772.468 520.195 775.783 513.217C778.57 507.36 777.845 500.316 775.34 494.328C772.835 488.339 768.72 483.197 764.662 478.141C770.839 477.971 776.706 481.512 780.529 486.371C780.642 486.512 780.755 486.653 780.858 486.804H780.877Z" fill="#F7BB97"/>
<path d="M727.315 423.568C723.577 425.197 720.488 428.436 719.669 432.41C744.123 435.32 746.647 449.284 758.323 460.047C763.05 446.441 755.734 429.482 742.268 424.048C738.012 422.334 733.2 421.675 728.812 423.022C728.304 423.173 727.805 423.361 727.315 423.577V423.568Z" fill="#F7BB97"/>
<path d="M744.285 487.772L752.459 489.109C754.521 496.19 750.688 504.307 744.313 507.8C738.748 502.339 735.754 494.278 736.611 486.51C739.172 486.924 741.724 487.348 744.285 487.772Z" fill="#F7BB97"/>
<path d="M766.065 503.378C769.191 492.492 766.545 480.11 759.21 471.475C754.21 465.589 732.627 451.945 726.073 461.898C723.05 466.493 727.194 473.094 731.685 474.723C734.341 475.684 737.203 475.806 739.981 476.305C753.324 478.669 764.408 490.505 765.877 503.971C765.933 503.773 765.999 503.575 766.056 503.378H766.065Z" fill="#F7BB97"/>
<path d="M572.688 488.68C581.813 469.357 599.704 454.375 620.345 448.801C609.093 462.417 597.746 476.193 589.864 492.004C587.482 496.778 585.438 501.787 583.847 506.91C580.175 518.756 578.941 531.28 581.643 543.305C594.431 523.323 606.682 519.952 633.585 502.955C633.057 513.671 626.023 522.984 618.104 530.216C610.185 537.457 601.06 543.436 594.158 551.657C589.892 556.732 586.606 564.416 590.627 569.689C592.868 572.618 597.011 572.919 600.25 574.69C619.733 585.358 642.012 583.353 663.275 584.652C652.804 594.257 638.208 599.201 624.055 597.948C653.632 606.244 674.028 609.681 709.773 591.3C695.781 608.749 677.805 619.521 655.45 618.561C633.095 617.61 612.435 612.723 596.409 597.12C590.448 591.319 584.242 582.825 575.692 581.149C566.229 579.294 557.076 584.36 549.232 588.918C539.797 594.398 530.55 600.171 521.566 606.367C518.101 608.758 514.674 611.197 511.284 613.702C493.392 626.904 477.704 642.968 459.229 655.295C441.272 667.272 421.121 675.926 401.77 684.956C378.238 695.927 353.821 705.786 328.613 714.374C306.08 722.048 282.906 728.705 259.195 734.261C238.818 739.035 218.036 742.99 196.915 746.032C179.042 748.612 160.925 750.533 142.6 751.757C127.412 752.765 112.082 753.292 96.648 753.282C84.529 753.282 72.3536 752.943 60.1216 752.237C51.11 751.719 42.0796 751.004 33.0304 750.053C27.3051 749.45 21.5705 748.753 15.8359 747.934C13.3782 747.585 10.9016 747.256 8.45337 746.785C8.3592 746.766 8.25562 746.747 8.16145 746.738C4.03704 746.013 0.684775 742.727 0.929604 739.082C1.1556 735.655 4.85627 732.896 8.94302 733.63C10.5627 733.922 12.1823 734.176 13.8113 734.421C18.6702 735.165 23.5386 735.796 28.3975 736.37C36.4956 737.312 44.575 738.056 52.6449 738.63C63.9352 739.44 75.1973 739.911 86.4029 740.099C100.81 740.335 115.142 740.099 129.351 739.412C146.734 738.574 163.948 737.086 180.944 734.996C201.171 732.51 221.106 729.167 240.673 725.052C245.993 723.931 251.285 722.754 256.549 721.521C256.738 721.474 256.85 721.445 256.926 721.436C257.001 721.417 257.114 721.389 257.274 721.351C257.924 721.201 258.564 721.05 259.214 720.89C260.626 720.551 262.03 720.212 263.442 719.863C266.182 719.195 268.913 718.507 271.634 717.801C283.113 714.844 294.45 711.624 305.647 708.149C330.129 700.55 353.897 691.736 376.863 681.849C391.111 675.719 405.169 669.118 418.983 662.065C429.407 656.745 439.182 650.257 448.673 643.43C457.459 637.111 465.162 629.333 473.684 622.544C491.528 608.325 510.474 595.509 530.314 584.228C538.045 579.831 545.917 575.669 553.912 571.752C559.27 569.124 565.183 566.092 567.236 560.48C569.044 555.537 567.283 550.094 565.871 545.018C557.594 515.338 561.907 482.361 577.538 455.807C579.026 466.927 577.331 478.453 572.717 488.68H572.688Z" fill="#6C7A07"/>
<path d="M609.385 693.781C604.865 676.831 600.128 659.599 590.533 644.919C580.796 630.012 565.005 617.912 547.208 617.253C537 616.876 527.056 620.219 516.943 621.669C506.83 623.119 495.398 622.253 488.138 615.068C486.387 616.716 486.471 619.475 487.648 621.509C494.344 624.786 505.728 624.24 507.988 632.103C509.41 637.056 507.018 642.178 505.794 647.188C502.131 662.066 509.344 678.253 521.246 687.895C533.149 697.538 548.94 701.333 564.261 701.37C579.581 701.399 594.667 697.98 609.611 694.572C609.545 694.308 609.469 694.044 609.403 693.79L609.385 693.781Z" fill="#6C7A07"/>
<path d="M603.49 692.271C601.4 687.779 597.897 684.031 593.914 681.112C582.115 672.327 566.549 670.952 554.129 663.616C550.146 661.253 546.587 658.183 543.244 654.869C536.417 648.098 529.872 640.8 522.141 634.83C518.205 631.808 513.883 629.133 509.194 627.514L508.921 628.013C512.763 631.045 516.19 634.331 519.439 637.825C526.077 644.896 531.916 652.684 539.439 659.04C546.991 665.66 556.229 670.415 565.881 672.948C575.175 675.585 584.676 677.449 592.916 682.591C596.955 685.095 600.581 688.382 602.991 692.534L603.5 692.271H603.49Z" fill="#506105"/>
<path d="M535.804 645.361C538.676 645.484 541.454 645.22 544.27 644.919C546.021 644.74 547.867 644.532 549.59 644.184C551.115 643.93 553.29 643.308 554.816 642.969C557.264 642.442 560.353 642.122 562.858 641.934L565.579 641.764L568.31 641.698C571.963 641.651 575.636 641.896 579.327 642.329L579.459 641.773C572.444 639.146 564.666 637.903 557.151 637.922C554.383 637.979 551.238 637.837 548.498 638.327C546.624 638.675 544.731 639.316 542.97 640.041C540.268 641.237 537.697 642.725 535.597 644.824L535.804 645.352V645.361Z" fill="#506105"/>
<path d="M550.672 660.482C555.456 663.617 562.443 663.561 567.706 661.913C572.848 660.19 578.046 658.693 583.451 658.288C586.963 658.024 590.551 658.382 593.913 659.823L594.204 659.333C593.818 659.06 593.432 658.796 593.037 658.533C588.517 655.708 582.989 655.077 577.763 655.265C574.006 655.444 570.268 656.084 566.567 656.395C563.403 656.659 559.269 657.864 556.19 658.617C554.467 659.06 552.715 659.446 550.785 659.926L550.682 660.491L550.672 660.482Z" fill="#506105"/>
<path d="M559.618 673.518C558.554 676.87 559.053 680.599 560.55 683.735C561.501 685.552 562.98 687.031 564.251 688.613L565.579 690.129L566.982 691.57C569.825 694.272 573.178 696.692 576.728 698.293L577.048 697.822C574.317 695.176 571.944 692.285 569.901 689.14C568.987 687.709 567.876 685.929 567.226 684.375L566.567 682.68C565.739 680.383 564.354 678.396 562.885 676.456C562.066 675.373 561.238 674.347 560.192 673.377L559.637 673.509L559.618 673.518Z" fill="#506105"/>
<path d="M527.152 652.732C525.881 655.839 525.561 659.248 525.824 662.582C525.975 664.926 526.559 667.271 527.482 669.427C528.621 671.895 530.005 674.55 531.333 676.923L532.792 679.296L534.393 681.565C537.124 685.209 540.382 688.637 543.989 691.34L544.384 690.935C542.143 688.129 540.137 685.209 538.452 682.13L537.218 679.814L536.107 677.45L535.071 675.068L534.158 672.648C533.659 671.235 533.16 669.145 532.84 667.667C532.162 664.295 530.994 661.066 529.817 657.836C529.195 656.103 528.574 654.418 527.717 652.723L527.143 652.732H527.152Z" fill="#506105"/>
<path d="M696.43 408.327C692.023 400.248 683.398 394.438 674.198 399.325C668.755 402.31 665.507 408.063 663.567 413.534C662.54 416.472 661.655 419.58 660.535 422.48C657.606 430.032 653.124 437.066 647.145 442.556C641.504 447.688 634.15 451.125 626.504 451.615C623.886 451.737 621.24 451.549 618.641 450.955L618.264 452.029C621.833 453.658 625.892 454.524 629.837 454.524C639.216 454.618 648.369 450.692 655.45 444.646C659.452 441.219 662.889 437.16 665.836 432.819C668.736 428.488 671.486 424.081 673.727 419.41C674.189 418.469 675.224 416.199 675.676 415.229C676.496 413.478 677.277 411.858 678.068 410.54C678.737 409.429 679.537 408.327 680.526 407.545C683.153 405.568 686.138 406.142 689.443 407.065C691.571 407.687 693.558 408.497 695.696 409.203L696.421 408.327H696.43Z" fill="#F7BB97"/>
<path d="M476.498 552.481C490.583 549.362 505.837 551.596 518.349 558.81C521.689 560.737 525.467 563.088 529.117 561.838C533.039 560.495 534.483 555.807 535.375 551.766C536.961 544.582 538.556 537.404 540.142 530.221C536.985 525.752 529.953 525.049 524.145 525.201C513.091 525.483 501.794 526.168 491.604 530.457C481.413 534.745 472.401 543.311 470.43 554.195C472.421 553.509 474.448 552.946 476.5 552.488L476.498 552.481Z" fill="#F7D8AC"/>
<path d="M410.981 465.923C421.44 455.991 428.12 442.092 429.129 427.688C429.4 423.845 429.562 419.396 432.634 417.071C435.935 414.567 440.632 415.994 444.485 417.512C451.329 420.207 458.166 422.905 465.011 425.6C466.948 430.719 463.603 436.938 460.23 441.673C453.814 450.68 446.931 459.666 437.68 465.716C428.43 471.766 416.286 474.453 406.165 470C407.842 468.734 409.45 467.367 410.974 465.924L410.981 465.923Z" fill="#F7D8AC"/>
<path d="M499.365 545.362C509.667 535.262 523.798 529.089 538.228 528.6C542.079 528.471 546.532 528.465 548.967 525.475C551.586 522.265 550.333 517.52 548.95 513.615C546.5 506.678 544.052 499.747 541.602 492.81C536.555 490.687 530.219 493.81 525.37 497.005C516.143 503.093 506.91 509.646 500.529 518.675C494.147 527.703 491.032 539.742 495.113 550.018C496.438 548.387 497.862 546.829 499.358 545.363L499.365 545.362Z" fill="#F7D8AC"/>
<path d="M377.159 504.856C377.159 504.856 377.171 504.78 377.169 504.743C378.573 492.061 383.837 479.071 394.386 471.897C400.782 467.54 408.536 465.683 415.351 462.005C425.742 456.397 433.385 446.922 440.839 437.771C448.294 428.619 456.198 419.288 466.837 414.165C477.469 409.044 491.638 409.308 499.693 417.934C508.723 427.601 506.269 444.495 516.214 453.216C520.235 456.745 526.763 458.111 531.356 460.857C541.894 467.159 548.376 479.651 547.527 491.885C548.668 496.407 547.708 501.523 545.496 505.731C542.551 511.341 537.718 515.687 532.973 519.88C519.911 531.415 506.68 542.769 493.293 553.926C481.905 563.416 469.988 572.996 455.774 577.211C435.579 583.201 412.529 576.895 397.326 562.315C382.145 547.767 374.884 525.75 377.158 504.849L377.159 504.856Z" fill="#F7D8AC"/>
<path d="M527.124 559.384C525.148 559.42 523.535 558.142 522.049 556.9C520.844 555.878 519.655 554.712 518.313 553.767C511.734 549.281 502.107 544.306 493.907 545.093C490.71 545.375 487.558 546.712 485.023 548.631C481.449 551.347 478.806 554.268 475.337 556.871C467.604 562.869 458.105 566.508 448.315 566.637C436.044 566.84 424.037 562.343 413.888 555.574C411.161 553.752 408.66 551.641 406.374 549.289C392.998 535.223 385.062 516.24 383.479 496.77L382.394 482.4L376.652 494.673C375.536 497.063 374.796 499.576 374.349 502.152C373.675 506.274 373.838 510.609 375.111 514.577L376.405 514.453C376.595 512.901 376.885 511.399 377.252 509.945C377.712 508.137 378.331 506.41 379.089 504.745C380.105 502.526 381.423 500.339 382.956 498.468L376.129 496.37C375.378 500.82 375.113 505.337 375.288 509.845C376.116 530.465 385.665 551.505 403.319 563.003C408.124 566.117 413.343 568.53 418.659 570.641C432.387 576.104 448.205 577.961 462.29 572.614C470.941 569.427 478.44 563.801 484.283 557.274C485.728 555.681 487.066 554.136 488.445 552.889C490.336 551.161 492.427 550.032 494.889 549.63C502.083 548.663 510.702 552.422 516.988 555.861C519.778 557.425 522.14 560.032 525.44 560.652C526.03 560.754 526.644 560.77 527.235 560.688L527.111 559.394L527.124 559.384Z" fill="#F7BB97"/>
<path d="M455.074 441.695C455.915 437.776 457.57 433.979 460.132 430.871C460.771 430.095 463.13 427.094 464.072 427.686C464.901 428.202 464.973 433.55 465.173 434.606C467.041 444.666 470.803 454.371 476.23 463.041C480.829 470.394 486.565 476.963 491.627 484.007C495.548 489.463 499.118 495.267 504.053 499.827C506.679 502.247 509.731 504.263 513.09 505.501C516.618 506.802 519.96 506.573 523.605 506.722C530.515 507.005 538.589 504.977 541.763 498.166C543.708 498.71 545.251 501.211 544.79 503.386C544.186 506.227 541.549 508.154 538.958 509.468C526.213 515.966 510.387 514.266 497.675 507.694C484.97 501.121 474.989 490.239 466.694 478.59C461.168 470.832 456.163 462.363 454.735 452.948C454.173 449.252 454.273 445.377 455.068 441.697L455.074 441.695Z" fill="#F7BB97"/>
<path d="M545.96 537.383C547.598 536.575 549.09 535.552 550.315 534.18C553.426 530.692 553.529 524.199 549.365 522.079C534.804 529.288 516.888 524.482 503.195 515.732C489.501 506.976 478.455 494.672 465.321 485.091C453.005 476.102 437.765 469.565 422.269 472.343C421.154 472.542 420.031 472.794 419.048 473.359C417.237 474.399 416.375 476.897 415.891 478.82C435.104 479.033 450.38 494.382 462.765 509.073C475.15 523.764 488.737 539.984 507.7 543.072C517.724 544.703 527.923 542.338 537.81 539.989C540.565 539.334 543.437 538.615 545.957 537.369L545.96 537.383Z" fill="#F7BB97"/>
<path d="M525.951 465.523C529.461 468.416 531.935 472.393 533.917 476.494C536.127 481.062 537.834 486.265 536.474 491.153C535.139 495.961 530.67 499.736 525.705 500.247C520.971 500.739 516.076 498.235 513.638 494.161C519.628 496.575 525.601 491.671 526.825 485.934C527.856 481.117 526.083 476.04 523.181 472.054C520.279 468.069 516.336 464.993 512.449 461.969C516.984 460.759 521.94 462.345 525.618 465.264C525.726 465.349 525.834 465.433 525.937 465.526L525.951 465.523Z" fill="#F7BB97"/>
<path d="M475.271 428.196C472.795 430.056 471.081 432.992 471.174 436.072C489.753 433.928 494.07 443.803 504.587 449.706C505.691 438.822 497.307 427.576 486.404 425.925C482.958 425.406 479.287 425.764 476.281 427.53C475.932 427.73 475.596 427.957 475.272 428.203L475.271 428.196Z" fill="#F7BB97"/>
<path d="M499.083 472.665L505.357 472.218C508.124 477.088 506.717 483.758 502.62 487.459C497.549 484.401 493.922 478.971 493.191 473.08C495.156 472.936 497.116 472.801 499.083 472.665Z" fill="#F7BB97"/>
<path d="M517.917 480.369C518.316 471.777 514.187 463.092 507.251 458C502.523 454.529 484.18 448.237 481.085 456.742C479.659 460.668 483.879 464.818 487.484 465.233C489.615 465.476 491.751 465.064 493.891 464.945C504.165 464.349 514.433 471.149 517.882 480.84C517.889 480.684 517.903 480.527 517.91 480.371L517.917 480.369Z" fill="#F7BB97"/>
<path d="M372.454 503.463C375.804 487.584 386.393 473.373 400.665 465.63C394.742 477.666 388.776 489.838 385.729 502.903C384.807 506.849 384.176 510.909 383.9 514.974C383.266 524.371 384.554 533.841 388.662 542.252C394.602 525.243 403.062 520.601 419.956 503.319C421.448 511.329 417.885 519.445 413.304 526.179C408.724 532.92 403.032 538.94 399.375 546.226C397.114 550.725 396.035 556.98 399.932 560.17C402.102 561.94 405.216 561.435 407.921 562.175C424.189 566.637 440.299 561.243 456.237 558.47C450.187 567.406 440.271 573.621 429.593 575.181C452.904 576.117 468.578 575.076 491.761 555.218C484.486 570.568 473.095 581.683 456.409 584.899C439.725 588.121 423.602 588.137 409.02 579.422C403.598 576.183 397.521 570.997 390.909 571.259C383.591 571.55 377.718 576.901 372.722 581.645C366.713 587.351 360.894 593.24 355.344 599.395C353.204 601.771 351.099 604.175 349.035 606.621C338.133 619.517 329.362 634.141 317.875 646.492C306.71 658.495 293.34 668.427 280.628 678.497C265.167 690.734 248.856 702.306 231.739 713.077C216.436 722.704 200.483 731.692 183.939 739.96C169.721 747.065 155.059 753.637 139.987 759.592C127.235 764.637 114.186 769.237 100.861 773.359C89.8152 776.77 78.5807 779.851 67.1755 782.554C58.221 784.682 49.1652 786.569 40.0033 788.195C33.2539 789.395 26.4558 790.451 19.6026 791.337C15.2665 791.897 10.9069 792.389 6.5259 792.791C4.64878 792.965 2.76105 793.156 0.869392 793.238C0.796509 793.241 0.71667 793.245 0.64544 793.255C-2.52931 793.443 -5.58324 791.603 -6.04217 788.868C-6.47699 786.296 -4.22706 783.607 -1.07848 783.432C0.169488 783.364 1.41084 783.267 2.6575 783.162C6.37825 782.859 10.0861 782.47 13.7771 782.041C19.926 781.315 26.0263 780.446 32.0899 779.454C40.5743 778.07 48.9783 776.44 57.2909 774.612C67.9775 772.257 78.5257 769.566 88.9041 766.564C101.601 762.892 114.058 758.771 126.25 754.242C140.758 748.854 154.901 742.884 168.636 736.408C172.37 734.646 176.074 732.847 179.747 731.011C179.878 730.943 179.956 730.903 180.01 730.882C180.062 730.855 180.141 730.815 180.253 730.759C180.706 730.533 181.153 730.309 181.605 730.077C182.589 729.579 183.566 729.082 184.549 728.576C186.456 727.601 188.353 726.614 190.24 725.614C198.202 721.414 206.014 717.044 213.676 712.511C230.432 702.597 246.445 691.912 261.679 680.574C271.13 673.543 280.359 666.198 289.327 658.561C296.095 652.8 302.178 646.29 307.993 639.579C313.375 633.368 317.7 626.268 322.805 619.756C333.493 606.117 345.242 593.321 357.921 581.502C362.861 576.895 367.947 572.438 373.166 568.14C376.664 565.258 380.501 561.979 381.032 557.472C381.5 553.502 379.244 549.79 377.309 546.287C365.982 525.81 363.378 500.687 370.266 478.322C373.318 486.278 374.089 495.092 372.475 503.458L372.454 503.463Z" fill="#6C7A07"/>
<path d="M435.578 648.56C429.262 636.83 422.737 624.929 413.069 615.767C403.258 606.462 389.466 600.294 376.2 602.932C368.592 604.446 361.831 608.662 354.613 611.509C347.396 614.356 338.797 615.723 332.171 611.689C331.166 613.214 331.713 615.238 332.94 616.534C338.462 617.78 346.778 615.377 349.829 620.79C351.749 624.2 350.881 628.405 350.856 632.322C350.762 643.958 358.933 654.652 369.421 659.686C379.908 664.721 392.243 664.753 403.569 662.091C414.894 659.421 425.44 654.247 435.884 649.105C435.789 648.922 435.687 648.74 435.593 648.564L435.578 648.56Z" fill="#6C7A07"/>
<path d="M430.957 648.482C428.624 645.53 425.378 643.376 421.922 641.918C411.662 637.499 399.919 639.216 389.454 635.976C386.096 634.929 382.927 633.286 379.875 631.424C373.642 627.62 367.526 623.377 360.765 620.323C357.326 618.781 353.663 617.564 349.914 617.19L349.8 617.607C353.171 619.173 356.28 620.999 359.294 623.01C365.441 627.07 371.122 631.799 377.797 635.174C384.539 638.739 392.2 640.631 399.776 640.808C407.106 641.124 414.454 640.834 421.444 643.186C424.869 644.327 428.125 646.119 430.635 648.764L430.964 648.48L430.957 648.482Z" fill="#506105"/>
<path d="M372.709 625.703C374.853 625.289 376.859 624.606 378.886 623.889C380.149 623.449 381.476 622.972 382.689 622.412C383.771 621.957 385.269 621.116 386.337 620.597C388.053 619.778 390.279 618.999 392.097 618.42L394.078 617.817L396.084 617.289C398.775 616.612 401.532 616.149 404.335 615.821L404.335 615.387C398.69 614.677 392.725 615.125 387.176 616.458C385.14 616.986 382.792 617.434 380.853 618.276C379.53 618.863 378.244 619.668 377.07 620.513C375.283 621.871 373.645 623.422 372.462 625.342L372.708 625.696L372.709 625.703Z" fill="#506105"/>
<path d="M386.351 634.266C390.436 635.743 395.588 634.474 399.188 632.333C402.685 630.157 406.263 628.138 410.185 626.89C412.734 626.078 415.448 625.713 418.185 626.187L418.314 625.774C417.981 625.64 417.649 625.513 417.311 625.387C413.475 624.094 409.28 624.598 405.452 625.655C402.707 626.447 400.058 627.576 397.378 628.455C395.086 629.206 392.243 630.822 390.101 631.919C388.905 632.549 387.679 633.142 386.337 633.836L386.359 634.271L386.351 634.266Z" fill="#506105"/>
<path d="M395.248 642.325C395.05 644.989 396.074 647.656 397.731 649.71C398.753 650.886 400.104 651.719 401.322 652.665L402.569 653.552L403.858 654.37C406.434 655.867 409.336 657.067 412.24 657.626L412.394 657.222C409.912 655.747 407.651 654.027 405.589 652.062C404.662 651.165 403.529 650.045 402.776 649.011L401.992 647.875C400.976 646.322 399.604 645.097 398.178 643.922C397.383 643.266 396.59 642.653 395.648 642.12L395.26 642.315L395.248 642.325Z" fill="#506105"/>
<path d="M367.609 632.665C367.215 635.184 367.577 637.759 368.357 640.176C368.88 641.882 369.723 643.512 370.783 644.943C372.058 646.566 373.547 648.285 374.945 649.805L376.44 651.302L378.021 652.698C380.679 654.911 383.688 656.872 386.827 658.235L387.049 657.867C384.9 656.187 382.905 654.382 381.119 652.403L379.801 650.908L378.565 649.357L377.382 647.778L376.282 646.15C375.665 645.194 374.929 643.737 374.433 642.701C373.34 640.33 371.91 638.148 370.474 635.968C369.71 634.797 368.955 633.661 368.024 632.559L367.602 632.667L367.609 632.665Z" fill="#506105"/>
<path d="M449.776 422.361C445.101 417.165 437.708 414.386 431.768 419.613C428.271 422.774 426.88 427.595 426.408 431.978C426.165 434.329 426.057 436.781 425.738 439.12C424.9 445.215 422.823 451.199 419.369 456.305C416.102 461.087 411.272 464.918 405.708 466.622C403.796 467.172 401.807 467.498 399.783 467.516L399.693 468.375C402.616 468.952 405.767 468.88 408.682 468.187C415.629 466.61 421.702 462.102 425.873 456.391C428.228 453.156 430.055 449.554 431.47 445.829C432.853 442.119 434.111 438.38 434.947 434.536C435.122 433.759 435.489 431.9 435.653 431.104C435.951 429.667 436.244 428.333 436.597 427.22C436.896 426.281 437.294 425.327 437.887 424.576C439.481 422.653 441.787 422.554 444.391 422.655C446.073 422.741 447.683 422.99 449.387 423.137L449.769 422.362L449.776 422.361Z" fill="#F7BB97"/>
</g>
<defs>
<clipPath id="clip0_4090_5658">
<rect width="801.483" height="753.101" fill="white" transform="translate(0.912964 0.197266)"/>
</clipPath>
</defs>
</svg>
