<svg width="421" height="423" viewBox="0 0 421 423" fill="none" xmlns="http://www.w3.org/2000/svg">
<path d="M382.068 267.578C374.509 265.259 368.583 260.191 364.46 254.437C360.423 248.596 358.963 242.326 359.564 235.712C360.767 229.184 364.202 223.516 369.527 219.049C374.853 214.669 382.154 211.491 390.142 211.319C398.129 211.147 405.258 214.411 410.24 220.338C415.394 226.178 418.228 234.767 416.682 243.872C415.737 252.976 410.326 260.449 403.97 264.658C397.7 269.038 389.712 269.983 381.982 267.578H382.068Z" fill="#BCCBD3"/>
<g style="mix-blend-mode:multiply">
<path d="M402.679 214.238C398.986 212.262 394.691 211.232 390.139 211.317C382.151 211.489 374.764 214.667 369.439 219.048C364.2 223.514 360.678 229.183 359.476 235.711C358.96 241.38 360.077 246.877 362.911 252.03C363.77 245.416 366.691 236.999 373.476 229.612C379.574 222.226 389.108 215.44 402.679 214.324V214.238Z" fill="#E4E5E6"/>
</g>
<g style="mix-blend-mode:soft-light">
<path d="M395.979 263.728C387.476 261.323 383.954 251.188 385.071 240.451C386.96 229.801 393.66 221.212 402.163 221.383C410.58 221.555 417.538 232.12 415.39 244.918C413.93 257.801 403.795 265.961 395.979 263.642V263.728Z" fill="white"/>
</g>
<g style="mix-blend-mode:soft-light">
<path d="M399.673 260.449C392.802 258.645 389.881 250.314 390.74 241.295C392.286 232.363 398.127 225.319 404.913 225.577C411.87 225.921 417.109 234.596 415.391 244.903C414.275 255.296 406.201 262.081 399.673 260.363V260.449Z" fill="white"/>
</g>
<g style="mix-blend-mode:soft-light">
<path d="M404.743 255.992C400.191 254.961 397.7 248.949 398.387 242.507C399.246 236.065 403.798 231.083 408.522 231.427C413.246 231.77 416.338 237.869 415.307 244.998C414.534 252.213 409.381 257.023 404.657 255.992H404.743Z" fill="white"/>
</g>
<path d="M356.897 318.607C344.185 309.159 339.89 292.839 345.559 281.33C351.485 269.906 366.431 263.207 382.063 267.587C397.18 271.71 405.855 290.091 397.438 306.84C389.106 323.674 369.78 328.227 356.897 318.521V318.607Z" fill="#BCCBD3"/>
<g style="mix-blend-mode:multiply">
<path d="M393.057 274.3C390.051 271.294 386.358 268.975 382.063 267.687C366.345 263.306 351.4 270.006 345.559 281.429C343.412 286.669 342.295 292.08 343.755 298.006C349.424 286.325 366.603 268.975 393.143 274.386L393.057 274.3Z" fill="#E4E5E6"/>
</g>
<g style="mix-blend-mode:soft-light">
<path d="M371.5 319.307C364.371 314.497 363.512 303.331 368.322 293.797C370.641 288.902 374.249 285.122 378.371 282.803C382.151 280.398 386.531 279.539 390.482 280.914C394.433 282.374 397.268 285.981 398.47 290.963C399.329 295.687 398.47 301.699 395.807 307.54C389.967 319.05 378.371 324.031 371.5 319.307Z" fill="white"/>
</g>
<g style="mix-blend-mode:soft-light">
<path d="M376.049 317.3C370.122 313.52 369.607 304.416 373.558 296.342C377.337 288.182 385.669 283.458 391.939 285.777C398.553 288.268 400.356 297.974 395.89 307.422C391.252 316.784 381.804 320.907 376.135 317.214L376.049 317.3Z" fill="white"/>
</g>
<g style="mix-blend-mode:soft-light">
<path d="M382.148 314.572C377.939 312.081 377.767 305.811 380.43 299.885C383.179 293.958 388.933 290.694 393.314 292.498C397.694 294.302 398.811 301.087 395.805 307.615C392.798 314.143 386.099 316.977 382.148 314.658V314.572Z" fill="white"/>
</g>
<path d="M317.301 359.401C308.111 346.432 308.97 329.597 318.074 320.578C326.835 311.216 343.67 309.842 356.897 318.603C370.21 327.449 372.444 347.119 359.56 360.861C346.247 374.089 326.492 372.543 317.301 359.401Z" fill="#BCCBD3"/>
<g style="mix-blend-mode:multiply">
<path d="M365.401 328.388C363.511 324.523 360.591 321.259 356.898 318.596C343.67 309.836 326.835 311.124 318.074 320.572C313.866 324.437 311.804 329.762 311.203 335.775C319.621 325.897 342.124 315.333 365.401 328.474V328.388Z" fill="#E4E5E6"/>
</g>
<g style="mix-blend-mode:soft-light">
<path d="M330.871 364.448C325.803 358.006 328.037 346.754 335.853 339.367C343.068 331.379 354.405 329.06 360.933 334.042C367.89 339.282 366.516 351.392 357.755 360.926C348.393 369.945 336.282 371.405 330.871 364.534V364.448Z" fill="white"/>
</g>
<g style="mix-blend-mode:soft-light">
<path d="M336.025 364.214C331.644 358.888 333.448 349.612 340.062 343.428C346.16 336.814 355.265 334.667 360.676 339.047C366.001 343.256 364.885 353.305 357.756 360.864C350.197 368.079 340.405 369.453 336.025 364.214Z" fill="white"/>
</g>
<g style="mix-blend-mode:soft-light">
<path d="M342.553 363.336C339.375 359.814 340.749 353.286 345.473 348.82C349.94 344.096 356.296 342.55 359.903 345.642C363.511 348.648 362.652 355.691 357.756 360.845C352.516 365.827 345.731 366.857 342.553 363.336Z" fill="white"/>
</g>
<path d="M267.057 386.009C262.247 370.463 268.431 355.346 279.683 349.076C291.02 343.063 307.426 346.929 317.217 359.297C327.267 371.923 323.23 391.335 306.739 400.181C290.247 409.114 271.609 400.954 267.057 386.009Z" fill="#BCCBD3"/>
<g style="mix-blend-mode:multiply">
<path d="M322.456 371.336C321.769 367.041 320.051 363.004 317.302 359.397C307.425 347.028 291.019 343.163 279.767 349.175C274.614 351.666 271.178 356.476 268.602 361.458C274.356 358.108 283.117 355.789 292.909 356.648C302.529 357.421 313.781 361.286 322.542 371.336H322.456Z" fill="#E4E5E6"/>
</g>
<g style="mix-blend-mode:soft-light">
<path d="M278.393 394.936C275.473 386.948 281.399 377.672 290.847 372.518C300.467 367.794 311.375 368.052 316.357 375.267C321.081 381.966 316.615 393.991 305.019 399.746C293.596 405.93 281.313 402.924 278.393 394.936Z" fill="white"/>
</g>
<g style="mix-blend-mode:soft-light">
<path d="M283.292 396.154C280.887 389.884 285.525 381.896 293.513 377.687C301.673 373.908 310.605 373.908 314.471 379.834C318.164 385.331 314.471 395.209 304.937 399.675C295.66 404.571 285.783 402.682 283.206 396.068L283.292 396.154Z" fill="white"/>
</g>
<g style="mix-blend-mode:soft-light">
<path d="M289.903 397.677C288.013 393.297 291.191 387.456 297.032 384.536C302.958 381.787 309.314 381.959 311.805 386.082C314.296 390.033 311.461 396.732 304.934 399.738C298.492 403.002 291.706 401.972 289.817 397.677H289.903Z" fill="white"/>
</g>
<path d="M211.055 395.836C210.969 387.848 213.975 380.376 218.184 374.879C222.479 369.467 228.062 365.86 234.503 364.486C241.117 363.713 247.473 365.001 253.4 368.866C259.326 372.817 264.48 378.572 267.056 386.13C269.719 393.775 268.86 401.763 264.737 408.205C260.7 414.732 253.4 420.315 244.295 421.518C235.276 423.321 226.601 420.745 220.589 415.763C214.491 410.953 211.141 403.91 211.055 395.922V395.836Z" fill="#BCCBD3"/>
<g style="mix-blend-mode:multiply">
<path d="M268.258 399C268.945 394.792 268.516 390.325 267.055 386.031C264.479 378.558 259.239 372.718 253.399 368.766C247.472 364.901 241.116 363.613 234.503 364.386C228.92 365.503 224.024 368.509 219.987 372.632C226.6 371.429 235.447 371.515 244.638 375.81C253.485 379.245 262.933 386.374 268.258 398.914V399Z" fill="#E4E5E6"/>
</g>
<g style="mix-blend-mode:soft-light">
<path d="M219.045 407.686C218.701 398.926 227.29 392.398 237.769 390.165C248.42 388.79 258.641 392.312 261.217 400.643C263.622 408.545 255.72 418.681 242.837 420.484C230.125 423.061 219.302 415.932 219.045 407.686Z" fill="white"/>
</g>
<g style="mix-blend-mode:soft-light">
<path d="M223.339 410.34C222.91 403.383 229.953 397.8 238.799 395.996C247.732 394.794 256.236 397.972 258.039 404.585C259.843 411.199 253.229 419.101 242.836 420.475C232.529 422.537 223.683 417.126 223.339 410.34Z" fill="white"/>
</g>
<g style="mix-blend-mode:soft-light">
<path d="M229.176 413.766C228.747 409.213 233.643 404.661 240.084 403.544C246.526 402.514 252.625 405.262 253.655 409.729C254.772 414.453 249.962 419.263 242.833 420.465C235.704 421.754 229.606 418.661 229.176 413.766Z" fill="white"/>
</g>
<path d="M154.796 387.751C157.115 380.192 162.183 374.266 167.937 370.143C173.778 366.106 180.048 364.646 186.662 365.247C193.19 366.364 198.858 369.885 203.325 375.125C207.705 380.536 210.883 387.837 211.055 395.825C211.227 403.813 207.963 410.942 202.036 415.923C196.196 421.077 187.521 423.911 178.502 422.365C169.398 421.42 161.925 416.009 157.63 409.653C153.336 403.297 152.305 395.395 154.71 387.665L154.796 387.751Z" fill="#BCCBD3"/>
<g style="mix-blend-mode:multiply">
<path d="M208.134 408.357C210.109 404.577 211.14 400.369 211.054 395.816C210.882 387.828 207.704 380.442 203.324 375.116C198.857 369.877 193.189 366.356 186.661 365.239C180.992 364.724 175.495 365.84 170.341 368.675C176.955 369.448 185.372 372.454 192.759 379.239C200.146 385.338 207.017 394.872 208.134 408.442V408.357Z" fill="#E4E5E6"/>
</g>
<g style="mix-blend-mode:soft-light">
<path d="M158.66 401.594C161.065 393.09 171.2 389.569 181.937 390.685C192.502 392.575 201.177 399.275 201.005 407.864C200.833 416.281 190.268 423.238 177.385 421.091C164.501 419.631 156.341 409.496 158.66 401.594Z" fill="white"/>
</g>
<g style="mix-blend-mode:soft-light">
<path d="M161.923 405.368C163.727 398.497 172.059 395.576 181.077 396.435C190.01 397.895 197.053 403.822 196.795 410.607C196.538 417.65 187.777 422.804 177.47 421.086C167.077 419.97 160.291 411.896 162.009 405.368H161.923Z" fill="white"/>
</g>
<g style="mix-blend-mode:soft-light">
<path d="M166.478 410.438C167.508 405.885 173.521 403.394 179.963 404.082C186.405 404.941 191.386 409.493 191.043 414.217C190.699 418.941 184.601 422.033 177.472 421.088C170.343 420.315 165.447 415.162 166.478 410.438Z" fill="white"/>
</g>
<path d="M103.777 362.479C113.225 349.853 129.545 345.473 141.054 351.142C152.478 357.068 159.177 372.013 154.797 387.646C150.674 402.763 132.293 411.438 115.544 403.02C98.7096 394.689 94.1574 375.363 103.863 362.479H103.777Z" fill="#BCCBD3"/>
<g style="mix-blend-mode:multiply">
<path d="M148.095 398.731C151.187 395.724 153.421 392.031 154.709 387.736C159.089 372.018 152.39 357.073 140.966 351.232C135.641 349.085 130.316 347.969 124.389 349.429C135.985 355.098 153.421 372.19 148.009 398.816L148.095 398.731Z" fill="#E4E5E6"/>
</g>
<g style="mix-blend-mode:soft-light">
<path d="M103.089 377.077C107.899 369.948 119.065 369.003 128.599 373.899C133.494 376.218 137.274 379.825 139.593 383.948C141.998 387.727 142.943 392.108 141.482 396.059C140.022 400.01 136.415 402.844 131.519 404.047C126.795 404.906 120.782 404.047 114.942 401.384C103.432 395.543 98.4506 384.034 103.175 377.077H103.089Z" fill="white"/>
</g>
<g style="mix-blend-mode:soft-light">
<path d="M105.064 381.614C108.843 375.687 117.862 375.172 126.021 379.123C134.181 382.988 138.905 391.234 136.586 397.418C134.095 404.032 124.389 405.749 114.941 401.369C105.579 396.731 101.456 387.283 105.15 381.614H105.064Z" fill="white"/>
</g>
<g style="mix-blend-mode:soft-light">
<path d="M107.813 387.719C110.304 383.51 116.574 383.339 122.501 386.001C128.427 388.75 131.691 394.505 129.887 398.885C128.083 403.266 121.298 404.382 114.77 401.376C108.242 398.37 105.322 391.67 107.727 387.719H107.813Z" fill="white"/>
</g>
<path d="M62.9742 322.888C75.9438 313.698 92.7786 314.557 101.797 323.661C111.159 332.422 112.534 349.171 103.773 362.484C94.9259 375.883 75.1708 378.031 61.514 365.147C48.2867 351.834 49.8327 332.164 62.9742 322.888Z" fill="#BCCBD3"/>
<g style="mix-blend-mode:multiply">
<path d="M94.0669 371C97.932 369.111 101.196 366.19 103.859 362.497C112.619 349.27 111.331 332.435 101.883 323.674C98.0179 319.465 92.6926 317.404 86.6802 316.803C96.5577 325.22 107.122 347.724 94.0669 371Z" fill="#E4E5E6"/>
</g>
<g style="mix-blend-mode:soft-light">
<path d="M57.9048 336.529C64.3466 331.462 75.5985 333.695 83.071 341.511C90.9731 348.726 93.3781 360.064 88.3963 366.591C83.1569 373.549 71.0462 372.174 61.5122 363.413C52.4936 354.051 51.0334 341.94 57.9048 336.529Z" fill="white"/>
</g>
<g style="mix-blend-mode:soft-light">
<path d="M58.1656 341.607C63.4909 337.226 72.7672 339.03 78.9514 345.644C85.565 351.742 87.7123 360.847 83.3318 366.258C79.1231 371.583 69.0738 370.552 61.5153 363.423C54.3004 355.779 52.8403 346.073 58.1656 341.693V341.607Z" fill="white"/>
</g>
<g style="mix-blend-mode:soft-light">
<path d="M59.0252 348.206C62.5467 345.114 69.0745 346.403 73.5409 351.127C78.2649 355.593 79.811 361.949 76.7189 365.557C73.7127 369.164 66.6695 368.305 61.516 363.409C56.5343 358.17 55.5036 351.384 59.0252 348.206Z" fill="white"/>
</g>
<path d="M36.3466 272.75C51.893 267.94 67.0099 274.124 73.28 285.376C79.2066 296.714 75.4273 313.119 62.973 322.911C50.3469 332.96 30.9354 328.923 22.0886 312.432C13.1558 295.941 21.3155 277.302 36.2607 272.75H36.3466Z" fill="#BCCBD3"/>
<g style="mix-blend-mode:multiply">
<path d="M51.0356 328.079C55.3302 327.392 59.3671 325.674 62.9746 322.925C75.343 313.048 79.2081 296.728 73.2816 285.391C70.7907 280.237 65.9808 276.801 60.9991 274.225C64.4348 279.979 66.6679 288.74 65.809 298.532C65.1219 308.152 61.1709 319.404 51.1215 328.165L51.0356 328.079Z" fill="#E4E5E6"/>
</g>
<g style="mix-blend-mode:soft-light">
<path d="M27.4133 283.997C35.4012 281.077 44.6775 287.003 49.831 296.451C54.555 306.071 54.2974 316.979 47.0825 321.961C40.3829 326.685 28.3581 322.219 22.6033 310.623C16.505 299.2 19.4253 286.917 27.4133 283.997Z" fill="white"/>
</g>
<g style="mix-blend-mode:soft-light">
<path d="M26.2116 288.882C32.3958 286.477 40.4697 291.115 44.6784 299.103C48.4576 307.263 48.4576 316.195 42.4452 320.06C36.9481 323.754 27.0706 320.06 22.6042 310.526C17.7084 301.25 19.598 291.373 26.2116 288.796V288.882Z" fill="white"/>
</g>
<g style="mix-blend-mode:soft-light">
<path d="M24.7507 295.608C29.1312 293.718 34.9718 296.896 37.8921 302.737C40.6407 308.663 40.4689 315.019 36.3461 317.51C32.3951 320.001 25.6955 317.166 22.6893 310.639C19.4254 304.197 20.4561 297.411 24.7507 295.522V295.608Z" fill="white"/>
</g>
<path d="M26.5585 216.715C34.5465 216.629 42.019 219.549 47.5161 223.844C52.9273 228.138 56.5347 233.721 57.909 240.163C58.682 246.777 57.3937 253.133 53.5285 259.059C49.5775 264.986 43.8228 270.139 36.3502 272.716C28.7058 275.379 20.7179 274.52 14.276 270.397C7.74825 266.36 2.16529 259.059 0.962806 249.955C-0.84092 240.936 1.73583 232.261 6.71755 226.249C11.5275 220.15 18.5706 216.801 26.5585 216.715Z" fill="#BCCBD3"/>
<g style="mix-blend-mode:multiply">
<path d="M23.3828 273.843C27.5915 274.531 32.0579 274.101 36.3525 272.641C43.825 270.064 49.5798 264.825 53.5308 258.984C57.3959 253.058 58.6843 246.702 57.9113 240.088C56.7947 234.505 53.7885 229.609 49.6657 225.572C50.8682 232.186 50.7823 241.033 46.4877 250.223C43.052 259.07 35.923 268.518 23.3828 273.843Z" fill="#E4E5E6"/>
</g>
<g style="mix-blend-mode:soft-light">
<path d="M14.7056 224.61C23.4665 224.266 29.9943 232.855 32.1416 243.334C33.5159 253.985 29.9943 264.206 21.6628 266.782C13.7608 269.187 3.62556 261.285 1.90772 248.402C-0.66903 235.69 6.54587 224.953 14.7056 224.61Z" fill="white"/>
</g>
<g style="mix-blend-mode:soft-light">
<path d="M12.0441 228.909C19.0013 228.48 24.5843 235.523 26.388 244.37C27.5905 253.303 24.4125 261.806 17.7988 263.61C11.1852 265.413 3.28314 258.8 1.90887 248.407C-0.152531 238.186 5.25865 229.339 12.0441 228.909Z" fill="white"/>
</g>
<g style="mix-blend-mode:soft-light">
<path d="M8.60874 234.757C13.161 234.327 17.7133 239.223 18.8299 245.665C19.8606 252.107 17.0261 258.205 12.6457 259.236C7.92161 260.352 3.02578 255.542 1.90919 248.413C0.620813 241.284 3.71292 235.186 8.60874 234.757Z" fill="white"/>
</g>
<path d="M384.235 155.706C376.711 158.132 370.857 163.283 366.816 169.096C362.863 174.993 361.492 181.284 362.187 187.888C363.482 194.398 366.998 200.017 372.386 204.408C377.773 208.712 385.118 211.786 393.108 211.844C401.098 211.902 408.18 208.538 413.077 202.541C418.146 196.628 420.859 187.999 419.183 178.917C418.109 169.827 412.592 162.432 406.177 158.314C399.845 154.023 391.845 153.192 384.15 155.707L384.235 155.706Z" fill="#BCCBD3"/>
<g style="mix-blend-mode:multiply">
<path d="M405.603 208.748C401.938 210.776 397.658 211.868 393.105 211.847C385.116 211.788 377.684 208.716 372.297 204.411C366.995 200.02 363.393 194.402 362.098 187.892C361.502 182.231 362.541 176.718 365.302 171.525C366.254 178.126 369.294 186.501 376.184 193.79C382.386 201.09 392.016 207.739 405.601 208.662L405.603 208.748Z" fill="#E4E5E6"/>
</g>
<g style="mix-blend-mode:soft-light">
<path d="M398.2 159.359C389.732 161.884 386.355 172.068 387.624 182.788C389.665 193.411 396.486 201.904 404.986 201.611C413.4 201.32 420.206 190.657 417.877 177.891C416.234 165.029 405.984 157.015 398.201 159.444L398.2 159.359Z" fill="white"/>
</g>
<g style="mix-blend-mode:soft-light">
<path d="M401.941 162.583C395.096 164.485 392.295 172.857 393.282 181.862C394.954 190.772 400.895 197.732 407.676 197.378C414.627 196.935 419.743 188.186 417.879 177.905C416.615 167.529 408.445 160.859 401.942 162.669L401.941 162.583Z" fill="white"/>
</g>
<g style="mix-blend-mode:soft-light">
<path d="M407.072 166.969C402.535 168.065 400.13 174.112 400.909 180.543C401.859 186.972 406.482 191.889 411.2 191.478C415.919 191.068 418.924 184.926 417.792 177.812C416.917 170.609 411.696 165.873 406.987 166.971L407.072 166.969Z" fill="white"/>
</g>
<path d="M358.341 105.04C345.764 114.668 341.702 131.047 347.534 142.475C353.622 153.813 368.661 160.299 384.23 155.697C399.286 151.36 407.699 132.858 399.045 116.23C390.475 99.5155 371.087 95.2384 358.342 105.126L358.341 105.04Z" fill="#BCCBD3"/>
<g style="mix-blend-mode:multiply">
<path d="M395.128 148.828C392.165 151.877 388.505 154.248 384.229 155.598C368.575 160.201 353.536 153.714 347.533 142.375C345.312 137.167 344.118 131.772 345.494 125.825C351.328 137.425 368.752 154.529 395.213 148.741L395.128 148.828Z" fill="#E4E5E6"/>
</g>
<g style="mix-blend-mode:soft-light">
<path d="M372.933 104.134C365.873 109.045 365.173 120.222 370.118 129.686C372.506 134.549 376.167 138.276 380.322 140.537C384.135 142.888 388.527 143.684 392.459 142.254C396.388 140.738 399.171 137.09 400.303 132.092C401.095 127.356 400.15 121.357 397.405 115.555C391.401 104.129 379.736 99.3128 372.933 104.134Z" fill="white"/>
</g>
<g style="mix-blend-mode:soft-light">
<path d="M377.51 106.073C371.638 109.936 371.252 119.047 375.317 127.064C379.212 135.169 387.61 139.775 393.846 137.367C400.424 134.782 402.09 125.052 397.489 115.668C392.719 106.373 383.213 102.385 377.597 106.158L377.51 106.073Z" fill="white"/>
</g>
<g style="mix-blend-mode:soft-light">
<path d="M383.647 108.713C379.474 111.263 379.392 117.535 382.138 123.423C384.971 129.31 390.771 132.492 395.126 130.626C399.48 128.76 400.5 121.959 397.401 115.475C394.303 108.991 387.564 106.252 383.646 108.627L383.647 108.713Z" fill="white"/>
</g>
<path d="M318.17 64.8082C309.165 77.9072 310.263 94.728 319.495 103.616C328.388 112.853 345.24 113.988 358.342 105.04C371.528 96.0048 373.482 76.3058 360.404 62.7476C346.904 49.7108 327.173 51.5375 318.17 64.8082Z" fill="#BCCBD3"/>
<g style="mix-blend-mode:multiply">
<path d="M366.706 95.1342C364.872 99.0258 361.998 102.331 358.343 105.046C345.241 113.994 328.39 112.945 319.496 103.622C315.232 99.8172 313.096 94.5218 312.409 88.5185C320.966 98.2754 343.617 108.519 366.705 95.0483L366.706 95.1342Z" fill="#E4E5E6"/>
</g>
<g style="mix-blend-mode:soft-light">
<path d="M331.666 59.5697C326.69 66.0829 329.083 77.3019 337.004 84.5767C344.331 92.4613 355.701 94.619 362.157 89.5451C369.039 84.2073 367.493 72.1173 358.597 62.7088C349.108 53.8242 336.978 52.5363 331.665 59.4838L331.666 59.5697Z" fill="white"/>
</g>
<g style="mix-blend-mode:soft-light">
<path d="M336.823 59.7298C332.519 65.1169 334.454 74.3666 341.155 80.4562C347.347 86.9825 356.481 89.0002 361.83 84.5432C367.094 80.2593 365.835 70.2268 358.599 62.7704C350.939 55.6637 341.129 54.4287 336.823 59.7298Z" fill="white"/>
</g>
<g style="mix-blend-mode:soft-light">
<path d="M343.363 60.5168C340.236 64.0832 341.703 70.5908 346.49 74.9895C351.023 79.6496 357.4 81.1052 360.963 77.9621C364.528 74.905 363.569 67.8748 358.6 62.7914C353.291 57.8846 346.491 56.9504 343.363 60.5168Z" fill="white"/>
</g>
<path d="M267.552 38.9225C262.963 54.5357 269.362 69.5632 280.701 75.6728C292.123 81.5234 308.472 77.4256 318.087 64.9192C327.956 52.1516 323.643 32.7994 307.028 24.1878C290.412 15.4904 271.891 23.9141 267.552 38.9225Z" fill="#BCCBD3"/>
<g style="mix-blend-mode:multiply">
<path d="M323.154 52.8079C322.528 57.1118 320.868 61.1727 318.171 64.8189C308.47 77.3264 292.121 81.4243 280.785 75.5724C275.596 73.155 272.093 68.3944 269.446 63.4498C275.247 66.7175 284.04 68.9118 293.819 67.9138C303.427 67.0041 314.622 62.9795 323.24 52.8067L323.154 52.8079Z" fill="#E4E5E6"/>
</g>
<g style="mix-blend-mode:soft-light">
<path d="M278.76 29.8374C275.953 37.866 282.011 47.0572 291.531 52.0759C301.217 56.6627 312.121 56.25 317 48.9651C321.628 42.1991 316.991 30.2389 305.315 24.6495C293.805 18.6283 281.566 21.8088 278.76 29.8374Z" fill="white"/>
</g>
<g style="mix-blend-mode:soft-light">
<path d="M283.641 28.5483C281.325 34.8519 286.076 42.7731 294.123 46.8679C302.336 50.5307 311.268 50.4038 315.048 44.4229C318.663 38.8739 314.83 29.0499 305.233 24.7194C295.888 19.9559 286.039 21.9858 283.556 28.6354L283.641 28.5483Z" fill="white"/>
</g>
<g style="mix-blend-mode:soft-light">
<path d="M290.229 26.93C288.402 31.3368 291.663 37.1317 297.544 39.9688C303.509 42.6328 309.862 42.3707 312.294 38.2129C314.729 34.2269 311.799 27.5683 305.229 24.6551C298.742 21.4831 291.972 22.6102 290.143 26.9312L290.229 26.93Z" fill="white"/>
</g>
<path d="M211.416 29.8936C211.444 37.882 214.556 45.3111 218.842 50.7478C223.213 56.0974 228.847 59.6251 235.308 60.9077C241.932 61.5866 248.269 60.2081 254.14 56.2591C260.009 52.2243 265.081 46.3968 267.55 38.8025C270.103 31.1211 269.131 23.1462 264.917 16.7635C260.788 10.2938 253.408 4.81516 244.288 3.74219C235.244 2.06682 226.607 4.7666 220.666 9.83327C214.636 14.7294 211.387 21.8194 211.415 29.8077L211.416 29.8936Z" fill="#BCCBD3"/>
<g style="mix-blend-mode:multiply">
<path d="M268.568 25.9167C269.315 30.1152 268.949 34.5872 267.55 38.9022C265.08 46.4106 259.924 52.3251 254.14 56.3587C248.269 60.3077 241.932 61.6863 235.308 61.0073C229.71 59.9702 224.772 57.0339 220.677 52.9688C227.307 54.0772 236.151 53.8656 245.28 49.4408C254.077 45.8798 263.423 38.6172 268.569 26.0026L268.568 25.9167Z" fill="#E4E5E6"/>
</g>
<g style="mix-blend-mode:soft-light">
<path d="M219.237 17.9304C219.018 26.6954 227.699 33.1004 238.208 35.1845C248.877 36.4072 259.047 32.7407 261.505 24.3735C263.798 16.438 255.753 6.41615 242.845 4.79571C230.097 2.39988 219.377 9.68198 219.237 17.9304Z" fill="white"/>
</g>
<g style="mix-blend-mode:soft-light">
<path d="M223.493 15.2158C223.162 22.1784 230.284 27.6607 239.156 29.3386C248.105 30.414 256.562 27.1154 258.271 20.4768C259.981 13.8382 253.256 6.03094 242.844 4.80452C232.509 2.88981 223.74 8.42617 223.493 15.2158Z" fill="white"/>
</g>
<g style="mix-blend-mode:soft-light">
<path d="M229.281 11.7077C228.916 16.2656 233.876 20.7479 240.333 21.7728C246.789 22.7118 252.848 19.8769 253.815 15.3963C254.864 10.6569 249.986 5.9158 242.841 4.81475C235.694 3.62782 229.641 6.80629 229.281 11.7077Z" fill="white"/>
</g>
<path d="M155.278 38.7791C157.704 46.3038 162.855 52.1578 168.668 56.1984C174.566 60.1519 180.856 61.5228 187.46 60.8276C193.971 59.6183 199.59 56.0166 203.981 50.7142C208.284 45.2413 211.358 37.8961 211.416 29.9065C211.475 21.917 208.11 14.8351 202.113 9.93808C196.2 4.8681 187.485 2.15725 178.49 3.83132C169.399 4.90543 162.004 10.4223 157.801 16.8386C153.597 23.255 152.679 31.1709 155.193 38.8662L155.278 38.7791Z" fill="#BCCBD3"/>
<g style="mix-blend-mode:multiply">
<path d="M208.318 17.4173C210.347 21.1681 211.437 25.3617 211.416 29.9148C211.358 37.9043 208.285 45.3354 203.981 50.7225C199.59 56.0248 193.971 59.6266 187.46 60.8358C181.799 61.4317 176.287 60.3933 171.093 57.6324C177.695 56.7655 186.069 53.64 193.359 46.7502C200.658 40.5475 207.393 30.9168 208.317 17.3315L208.318 17.4173Z" fill="#E4E5E6"/>
</g>
<g style="mix-blend-mode:soft-light">
<path d="M158.945 24.8824C161.47 33.3506 171.654 36.7278 182.374 35.4587C192.911 33.4191 201.49 26.597 201.196 18.0111C200.904 9.59701 190.242 2.79062 177.39 5.1208C164.528 6.76391 156.514 17.0141 158.945 24.8824Z" fill="white"/>
</g>
<g style="mix-blend-mode:soft-light">
<path d="M162.154 21.062C164.055 27.907 172.428 30.7087 181.433 29.7217C190.344 28.1347 197.302 22.1087 196.948 15.3276C196.59 8.28882 187.757 3.26035 177.476 5.1245C167.1 6.38868 160.43 14.5581 162.24 21.0608L162.154 21.062Z" fill="white"/>
</g>
<g style="mix-blend-mode:soft-light">
<path d="M166.636 15.9263C167.731 20.4635 173.778 22.8686 180.21 22.09C186.639 21.1396 191.555 16.517 191.145 11.7983C190.734 7.07966 184.592 4.07455 177.478 5.12058C170.36 5.99485 165.538 11.2174 166.636 15.9263Z" fill="white"/>
</g>
<path d="M104.624 64.7681C114.25 77.2586 130.631 81.4068 142.058 75.5749C153.396 69.4866 159.883 54.4477 155.281 38.8793C150.944 23.8225 132.441 15.4095 115.814 24.0641C99.099 32.634 94.8219 52.0224 104.71 64.7669L104.624 64.7681Z" fill="#BCCBD3"/>
<g style="mix-blend-mode:multiply">
<path d="M148.423 27.8907C151.557 30.8526 153.843 34.5138 155.192 38.7897C159.796 54.444 153.309 69.4829 141.97 75.4853C136.675 77.7081 131.366 78.9002 125.42 77.5244C136.933 71.6914 154.125 54.3528 148.336 27.806L148.423 27.8907Z" fill="#E4E5E6"/>
</g>
<g style="mix-blend-mode:soft-light">
<path d="M103.729 50.1792C108.64 57.2391 119.818 58.0251 129.281 52.9943C134.144 50.6059 137.871 46.9451 140.132 42.7898C142.483 38.9767 143.365 34.5833 141.849 30.6534C140.333 26.7235 136.685 23.9406 131.773 22.8079C127.037 22.0162 121.038 22.9605 115.235 25.7058C103.81 31.7095 98.9925 43.2886 103.815 50.178L103.729 50.1792Z" fill="white"/>
</g>
<g style="mix-blend-mode:soft-light">
<path d="M105.639 45.6149C109.502 51.4871 118.527 51.8742 126.629 47.8076C134.733 43.8269 139.34 35.515 136.933 29.3644C134.348 22.7868 124.619 21.2071 115.234 25.7214C105.939 30.4921 101.951 39.9979 105.725 45.6137L105.639 45.6149Z" fill="white"/>
</g>
<g style="mix-blend-mode:soft-light">
<path d="M108.301 39.4751C110.851 43.648 117.123 43.7307 123.011 40.9841C128.898 38.1516 132.08 32.351 130.214 27.9966C128.348 23.6422 121.548 22.6222 115.063 25.7209C108.579 28.8195 105.754 35.5599 108.215 39.4763L108.301 39.4751Z" fill="white"/>
</g>
<path d="M64.3877 104.938C77.4867 113.943 94.3075 112.845 103.196 103.613C112.433 94.7199 113.569 77.9532 104.619 64.7658C95.583 51.4938 75.7994 49.6275 62.3271 62.704C49.2903 76.2039 51.1158 95.8491 64.3877 104.938Z" fill="#BCCBD3"/>
<g style="mix-blend-mode:multiply">
<path d="M94.7939 56.3884C98.6855 58.2229 101.991 61.0965 104.705 64.7516C113.653 77.8531 112.604 94.7045 103.282 103.599C99.4769 107.862 94.1815 109.999 88.1782 110.686C97.9351 102.129 108.179 79.4771 94.7939 56.3884Z" fill="#E4E5E6"/>
</g>
<g style="mix-blend-mode:soft-light">
<path d="M59.125 91.3708C65.6383 96.3464 76.8572 93.9535 84.218 86.0319C92.0167 78.7055 94.2603 67.3347 89.1863 60.8784C83.8485 53.9963 71.7586 55.5426 62.35 64.4382C53.4654 73.9276 52.1775 86.0578 59.125 91.3708Z" fill="white"/>
</g>
<g style="mix-blend-mode:soft-light">
<path d="M59.3134 86.2892C64.7004 90.5936 73.9501 88.6582 80.0397 81.9573C86.566 75.7656 88.5837 66.6315 84.1268 61.2831C79.8428 56.0182 69.8091 57.1916 62.3528 64.4273C55.2472 72.1735 53.9252 81.899 59.3122 86.2033L59.3134 86.2892Z" fill="white"/>
</g>
<g style="mix-blend-mode:soft-light">
<path d="M60.0792 79.6762C63.6443 82.718 70.1531 81.3369 74.5519 76.5499C79.212 72.0168 80.6676 65.6395 77.5245 62.0764C74.4673 58.512 67.4371 59.471 62.3537 64.4395C57.447 69.7492 56.5128 76.5486 60.0792 79.6762Z" fill="white"/>
</g>
<path d="M38.4757 155.446C54.0889 160.034 69.1164 153.636 75.226 142.296C80.9908 130.875 76.9787 114.525 64.3865 104.912C51.6189 95.0429 32.2667 99.3553 23.6551 115.971C14.9577 132.587 23.3814 151.108 38.3898 155.447L38.4757 155.446Z" fill="#BCCBD3"/>
<g style="mix-blend-mode:multiply">
<path d="M52.3767 99.9131C56.6806 100.539 60.7416 102.199 64.3877 104.896C76.8952 114.597 80.9919 130.86 75.2271 142.281C72.8097 147.469 68.0491 150.973 63.1045 153.62C66.4581 147.817 68.5665 139.025 67.5685 129.247C66.7447 119.638 62.6342 108.443 52.4614 99.8259L52.3767 99.9131Z" fill="#E4E5E6"/>
</g>
<g style="mix-blend-mode:soft-light">
<path d="M29.3827 144.328C37.4114 147.134 46.6025 141.077 51.6212 131.556C56.2081 121.87 55.7954 110.967 48.5104 106.088C41.7444 101.46 29.7843 106.096 24.1949 117.772C18.2595 129.282 21.3541 141.521 29.3827 144.328Z" fill="white"/>
</g>
<g style="mix-blend-mode:soft-light">
<path d="M28.1131 139.46C34.3309 141.776 42.3379 137.024 46.4327 128.977C50.0956 120.764 49.9686 111.833 43.9019 108.053C38.3529 104.438 28.5288 108.272 24.1984 117.868C19.4349 127.213 21.4647 137.063 28.1143 139.545L28.1131 139.46Z" fill="white"/>
</g>
<g style="mix-blend-mode:soft-light">
<path d="M26.5565 132.758C30.9634 134.585 36.7583 131.324 39.5953 125.443C42.2593 119.478 41.9972 113.125 37.8395 110.693C33.8534 108.258 27.1948 111.188 24.2817 117.757C21.1097 124.245 22.2367 131.015 26.5577 132.844L26.5565 132.758Z" fill="white"/>
</g>
<path d="M29.4846 211.614C37.4729 211.587 44.9032 208.561 50.3387 204.188C55.6883 199.817 59.2161 194.184 60.4986 187.723C61.1776 181.099 59.799 174.762 55.8501 168.891C51.8152 163.021 45.9878 157.95 38.4794 155.48C30.7979 152.926 22.823 153.898 16.4404 158.112C9.97063 162.241 4.49199 169.621 3.41902 178.742C1.74365 187.785 4.44343 196.422 9.5101 202.363C14.4062 208.393 21.4962 211.642 29.4846 211.614Z" fill="#BCCBD3"/>
<g style="mix-blend-mode:multiply">
<path d="M25.4971 154.538C29.6956 153.792 34.1676 154.157 38.4825 155.556C45.991 158.027 51.8196 163.184 55.8532 168.968C59.8022 174.839 61.1807 181.176 60.5018 187.8C59.4647 193.398 56.5283 198.336 52.4633 202.431C53.5717 195.801 53.3601 186.956 48.9353 177.828C45.3743 169.031 38.1117 159.685 25.4971 154.538Z" fill="#E4E5E6"/>
</g>
<g style="mix-blend-mode:soft-light">
<path d="M17.521 203.889C26.2859 204.108 32.691 195.426 34.6891 184.918C35.9119 174.249 32.2454 164.079 23.8782 161.621C15.9427 159.329 5.92085 167.374 4.38629 180.281C1.99046 193.028 9.35722 203.661 17.521 203.889Z" fill="white"/>
</g>
<g style="mix-blend-mode:soft-light">
<path d="M14.7981 199.628C21.7608 199.958 27.2431 192.837 28.9209 183.965C29.9963 175.016 26.6978 166.559 20.0591 164.849C13.4205 163.14 5.61326 169.865 4.38683 180.276C2.4709 190.526 8.00727 199.295 14.7981 199.628Z" fill="white"/>
</g>
<g style="mix-blend-mode:soft-light">
<path d="M11.2795 193.831C15.8374 194.196 20.3197 189.236 21.3446 182.779C22.2836 176.323 19.3628 170.266 14.9681 169.297C10.2287 168.248 5.40173 173.127 4.38657 180.271C3.19964 187.418 6.3781 193.472 11.2795 193.831Z" fill="white"/>
</g>
</svg>
