<svg width="1349" height="566" viewBox="0 0 1349 566" fill="none" xmlns="http://www.w3.org/2000/svg">
<g clip-path="url(#clip0_4090_4398)">
<path d="M913.651 362.309C927.316 371.786 931.359 371.657 938.091 357.7C949.341 334.375 960.153 310.74 969.482 286.593C978.611 262.994 985.068 238.316 999.831 217.242C1005.89 208.589 1011.87 199.827 1018.51 191.631C1054.18 147.599 1096.37 111.597 1147.79 86.8092C1182.57 70.0524 1219.39 59.5702 1257.18 53.8626C1277.22 50.8442 1298.42 50.332 1318.65 56.6615C1324.87 78.01 1316.36 97.2914 1309.39 116.463C1303.32 133.183 1293.24 148.056 1283.93 163.185C1281.46 167.209 1278.61 171.051 1276.96 175.533C1275.73 178.917 1274.78 182.503 1277.69 185.503C1280.84 188.741 1284.24 186.984 1287.42 185.43C1290.62 183.875 1293.42 181.588 1296.64 180.088C1303.56 176.832 1310.95 171.837 1317.74 179.191C1324.87 186.911 1320.46 194.924 1315.65 201.802C1303.43 219.273 1291.1 236.706 1274.67 250.664C1273.32 251.817 1271.93 252.933 1270.61 254.122C1264.85 259.28 1256.76 265.39 1262.47 273.147C1268.16 280.867 1274.97 272.159 1280.86 269.507C1286.8 266.817 1292.47 263.707 1299.02 262.537C1303.56 261.713 1308.41 258.787 1311.99 263.854C1315.16 268.336 1312.87 273.037 1310.89 277.3C1303.7 292.812 1290.08 302.892 1278.61 314.746C1269.77 323.875 1260.42 331.869 1268.31 346.833C1272.13 354.096 1264.68 358.523 1259.84 362.584C1240.74 378.646 1219.44 391.524 1198.35 404.714C1189.37 410.33 1173.77 414.117 1178.82 427.764C1183.17 439.508 1197.15 434.624 1207.59 433.362C1239.9 429.447 1269.17 416.769 1297.91 402.445C1303.49 399.665 1309.69 393.811 1315.56 399.628C1320.77 404.769 1318.38 412.214 1315.23 417.977C1269.62 501.23 1234.79 545.043 1124.78 548.94C1012.36 552.928 900.004 556.568 787.499 555.562C760.571 555.324 734.466 551.409 709.769 540.177C684.963 523.53 669.012 485.004 676.073 456.302C682.951 428.294 697.403 404.311 716.447 382.634C741.344 354.279 769.04 328.448 791.56 297.916C800.597 285.66 811.463 274.94 820.427 262.281C843.001 230.358 849.093 195.089 844.648 157.916C842.471 139.751 834.403 122.719 815.286 114.158C806.158 110.079 797.34 108.249 787.919 112.109C772.644 118.384 757.424 124.823 742.186 131.189C733.185 112.457 719.191 97.2548 706.568 81.0834C711.763 71.9366 715.605 61.5825 722.429 53.8809C742.277 31.5262 766.26 14.495 794.56 4.04938C810.878 -1.96919 827.946 0.610197 842.727 6.18972C890.345 24.1905 923.73 58.1433 944.091 104.773C944.786 106.347 944.713 108.249 945.006 109.987C942.463 113.573 942.335 117.085 945.225 120.542L945.152 120.451C962.677 179.009 946.378 232.407 920.035 284.233C915.736 292.684 910.98 300.862 907.906 309.899C901.65 328.302 902.144 345.882 913.669 362.291L913.651 362.309Z" fill="#F6DFEC"/>
<path d="M709.733 540.176C725.959 542.884 742.149 545.719 758.393 548.28C765.345 549.378 772.37 550.622 779.376 550.64C844.007 550.823 908.693 552.561 973.214 550.037C1009.23 548.628 1045.4 549.506 1081.22 546.488C1102.48 544.695 1123.73 545.372 1144.83 543.433C1183.59 539.884 1221.38 530.975 1250.16 502.913C1276.01 477.686 1295.47 447.117 1311.7 414.774C1313.67 410.823 1314.24 406.176 1316.16 399.39C1311.04 400.945 1308.2 401.219 1306.03 402.573C1272.93 423.226 1236.57 434.44 1198.33 440.385C1197.75 440.477 1197.14 440.44 1196.56 440.477C1184.43 441.3 1173.66 436.599 1170.71 429.171C1168 422.366 1172.34 414.317 1184.14 406.762C1197.57 398.182 1211.8 390.847 1225.08 382.047C1239.27 372.644 1252.74 362.162 1267.23 351.625C1265.07 348.808 1263.11 346.814 1261.81 344.454C1256.27 334.32 1256.53 330.643 1264.43 322.392C1274.67 311.691 1285.25 301.3 1295.82 290.927C1303.12 283.775 1308.17 275.524 1311.13 262.829C1303.36 265.39 1297.27 266.853 1291.67 269.414C1285.8 272.103 1280.54 276.11 1274.78 279.073C1269.26 281.927 1263.57 287.305 1257.26 280.701C1252.76 275.982 1253.2 262.847 1258.37 257.633C1262.49 253.499 1268.36 250.993 1272.15 246.657C1286.47 230.211 1300.34 213.381 1314.19 196.533C1316 194.338 1317.17 191.338 1317.83 188.502C1319.44 181.66 1313.95 176.794 1307.45 179.776C1301.09 182.703 1294.98 186.508 1289.38 190.752C1284.19 194.703 1278.84 197.759 1273.63 192.655C1268.82 187.935 1266.7 181.239 1270.52 174.727C1276.48 164.538 1282.98 154.677 1289.29 144.689C1302.99 122.975 1313.53 100.144 1315.19 73.9663C1315.56 68.1673 1317.41 62.4414 1318.56 56.6973C1329.88 58.4351 1332.02 67.2343 1332.64 76.2713C1333.83 93.2111 1328.64 109.017 1321.8 124.127C1317.19 134.317 1310.97 143.756 1305.77 153.708C1303.61 157.824 1302.28 162.379 1300.58 166.733L1300.85 167.007C1309.21 164.409 1317.48 161.446 1325.95 159.342C1330.8 158.153 1339.36 156.507 1340.35 158.318C1342.85 162.855 1343.88 169.897 1342.16 174.745C1336.07 191.886 1329.44 208.991 1317.28 223.132C1310 231.583 1302.59 239.943 1295.6 248.651C1293.15 251.706 1291.78 255.639 1289.91 259.17L1290.17 259.426C1301.84 255.84 1313.51 252.273 1325.73 248.523C1331.29 256.261 1330.6 263.908 1326.7 270.548C1320.19 281.671 1313.24 292.72 1305.02 302.617C1296.79 312.532 1286.76 320.947 1275.55 331.996C1280.42 333.112 1282.94 333.387 1285.21 334.283C1293.33 337.521 1294.37 339.808 1290.15 347.491C1282.98 360.571 1274.03 372.388 1261.06 380.2C1244.91 389.95 1228.35 399.042 1212.02 408.481C1205.96 411.976 1199.98 415.653 1193.98 419.238L1194.04 419.293C1198.17 419.201 1202.56 419.988 1206.4 418.89C1249.19 406.689 1290.95 392.31 1324.89 361.723C1328.36 358.595 1332.21 355.43 1336.45 353.784C1339.85 352.467 1344.41 352.65 1347.88 353.82C1348.98 354.186 1348.72 360.004 1348.29 363.205C1343.18 400.103 1328.97 433.233 1307.84 463.874C1291.36 487.784 1274.62 510.87 1250.58 528.267C1223.43 547.933 1193.34 558.177 1160.45 561.287C1106.81 566.336 1053.01 564.982 999.264 564.671C979.855 564.562 960.134 559.86 941.127 562.11C902.125 566.739 863.197 564.452 824.25 564.598C800.706 564.69 777.034 563.61 753.674 560.903C737.301 559 721.806 552.506 709.696 540.213L709.733 540.176Z" fill="#E2CEDA"/>
<path d="M913.651 362.31C894.772 352.377 897.425 334.925 900.096 318.881C901.779 308.802 907.852 299.454 911.84 289.74C922.542 263.653 935.75 238.225 943.012 211.206C948.958 189.052 952.763 165.252 945.866 141.617C943.963 135.068 945.281 127.568 945.134 120.488C955.013 131.483 954.318 145.605 955.58 158.758C960.098 205.718 949.982 250.244 931.524 293.216C927.335 302.966 924.444 313.357 919.523 322.705C912.81 335.455 912.06 348.608 913.651 362.328V362.31Z" fill="#E2CEDA"/>
<path d="M706.532 81.084C721.752 90.3405 732.527 103.53 739.753 119.592C741.326 123.104 741.381 127.312 742.149 131.19C734.155 136.074 726.197 141.032 718.166 145.843C703.696 154.496 690.433 164.576 679.64 181.149C676.274 165.124 679 152.648 681.799 140.355C686.61 119.226 693.854 99.0116 706.55 81.1023L706.532 81.084Z" fill="#EDA1C6"/>
<path d="M945.207 120.561C940.469 117.14 940.414 113.628 944.988 110.006C945.061 113.518 945.134 117.049 945.207 120.561Z" fill="#E2CEDA"/>
<path d="M994.874 433.562C991.069 437.659 986.861 437.915 981.3 434.312C987.227 426.354 995.642 422.384 1003.84 418.287C1018.6 410.914 1034.41 405.188 1048.14 396.279C1072.82 380.236 1096.35 362.418 1120.17 345.112C1122.67 343.301 1124.01 339.881 1127.52 334.905C1115.45 334.191 1105.88 333.624 1094.96 332.966C1097.28 322.922 1104.89 318.989 1110.64 313.593C1123.11 301.885 1135.81 290.397 1147.88 278.286C1151.21 274.957 1152.67 269.78 1156.31 262.956C1136.7 265.023 1124.39 274.847 1110.29 285.951C1109.63 274.152 1115.06 268.902 1120.5 263.871C1138.66 247.078 1149.64 225.436 1161.16 204.161C1162.57 201.563 1164 198.874 1164.67 196.057C1165.92 190.935 1163.39 187.715 1158.24 188.154C1153.66 188.538 1149.03 189.819 1144.73 191.52C1140.62 193.148 1136.92 195.837 1131.97 198.691C1137.45 181.312 1156.92 157.97 1172.6 148.951C1190.19 152.372 1195.92 161.72 1192.35 181.038C1189.13 198.472 1180.55 214.296 1176.46 231.583C1183.32 235.059 1186.85 229.296 1191.49 227.76C1196.58 226.077 1201.55 223.442 1206.49 227.705C1211.98 232.443 1210.98 238.534 1208.69 244.096C1201.88 260.596 1192.39 275.579 1181.91 289.994C1175.27 299.123 1164.27 307.19 1184.03 316.026C1194.64 320.764 1187.52 330.715 1181.28 336.35C1166.28 349.905 1149.16 360.625 1131.33 370.028C1086.91 393.481 1042.33 416.622 994.856 433.562H994.874Z" fill="#EDA1C6"/>
<path d="M994.874 433.562C1002.03 423.007 1014.05 420.555 1024.69 416.019C1039.25 409.799 1054.36 404.786 1068.67 398.054C1083.58 391.03 1097.98 382.889 1112.3 374.694C1131.71 363.589 1150.83 351.973 1170.07 340.576C1171.08 339.973 1172.27 339.46 1172.98 338.582C1177.3 333.259 1184.76 327.954 1184.98 322.392C1185.33 314.014 1174.53 317.673 1169.39 314.362C1167.93 313.41 1166.39 312.569 1163.52 310.886C1174.88 293.068 1186.35 275.579 1197.22 257.725C1201.15 251.267 1204.3 244.169 1206.62 236.98C1208.67 230.651 1203.71 226.553 1197.64 229.297C1192.32 231.712 1187.76 235.791 1182.4 238.114C1179.07 239.559 1174.9 239.066 1171.11 239.431C1171.24 236.139 1170.66 232.608 1171.61 229.571C1176.58 213.894 1182.6 198.527 1186.99 182.703C1192.1 164.318 1189.04 158.391 1172.63 148.952C1178.76 143.061 1184.5 145.183 1189.75 150.104C1198.57 158.336 1202.65 168.416 1199.41 180.38C1196.65 190.606 1193.1 200.594 1189.97 210.711C1188.97 213.949 1188.14 217.223 1187.3 220.278C1189.08 221.266 1190.29 222.492 1191 222.254C1199.72 219.235 1208.12 220.351 1213.13 227.961C1218 235.352 1216.06 243.529 1211.25 251.212C1200.36 268.573 1189.97 286.226 1179.09 304.282C1180.79 304.684 1183.04 304.904 1185.05 305.709C1197.79 310.758 1200.84 319.154 1193.61 330.698C1190.83 335.125 1187.25 339.479 1183.06 342.534C1167.8 353.601 1153.08 365.949 1136.45 374.456C1102.29 391.926 1067.26 407.713 1032.12 423.135C1020.43 428.257 1007.35 430.178 994.892 433.58L994.874 433.562Z" fill="#DB9ABA"/>
<path d="M742.973 77.4989C734.32 71.0596 735.893 64.602 739.918 58.1078C743.174 52.8759 748.022 47.4793 754.113 50.1135C760.095 52.6929 764.852 58.4188 769.644 63.2666C770.449 64.0715 769.388 68.1875 768.016 69.2851C766.663 70.3645 763.553 70.2364 761.65 69.5047C749.558 64.8398 749.595 64.7301 742.991 77.5172L742.973 77.4989Z" fill="#EDA1C6"/>
<path d="M435.074 362.309C421.409 371.786 417.366 371.657 410.634 357.7C399.383 334.375 388.572 310.74 379.242 286.593C370.114 262.994 363.656 238.316 348.893 217.242C342.838 208.589 336.856 199.827 330.216 191.631C294.543 147.599 252.359 111.597 200.936 86.8092C166.16 70.0524 129.335 59.5702 91.5403 53.8626C71.5089 50.8442 50.3068 50.332 30.0741 56.6615C23.8543 78.01 32.3608 97.2914 39.3307 116.463C45.4041 133.183 55.4838 148.056 64.7952 163.185C67.2648 167.209 70.1186 171.051 71.765 175.533C72.9907 178.917 73.942 182.503 71.0333 185.503C67.8868 188.741 64.4842 186.984 61.3012 185.43C58.0998 183.875 55.3009 181.588 52.0812 180.088C45.1663 176.832 37.7757 171.837 30.9888 179.191C23.8543 186.911 28.2631 194.924 33.0743 201.802C45.2943 219.273 57.6242 236.706 74.0517 250.664C75.4055 251.817 76.7958 252.933 78.1129 254.122C83.8753 259.28 91.9611 265.39 86.2535 273.147C80.5642 280.867 73.759 272.159 67.8685 269.507C61.9231 266.817 56.2521 263.707 49.7031 262.537C45.1663 261.713 40.3185 258.787 36.733 263.854C33.5682 268.336 35.8549 273.037 37.8306 277.3C45.0199 292.812 58.6486 302.892 70.1186 314.746C78.9544 323.875 88.3024 331.869 80.4179 346.833C76.5945 354.096 84.04 358.523 88.8878 362.584C107.986 378.646 129.28 391.524 150.372 404.714C159.354 410.33 174.959 414.117 169.91 427.764C165.556 439.508 151.58 434.624 141.134 433.362C108.828 429.447 79.5581 416.769 50.819 402.445C45.2395 399.665 39.038 393.811 33.1657 399.628C27.9521 404.769 30.3485 412.214 33.495 417.977C79.1007 501.23 113.932 545.043 223.949 548.94C336.362 552.928 448.721 556.568 561.226 555.562C588.154 555.324 614.259 551.409 638.955 540.177C663.761 523.53 679.713 485.004 672.652 456.302C665.774 428.294 651.322 404.311 632.278 382.634C607.381 354.279 579.684 328.448 557.165 297.916C548.128 285.66 537.262 274.94 528.298 262.281C505.724 230.358 499.632 195.089 504.077 157.916C506.254 139.751 514.322 122.719 533.438 114.158C542.567 110.079 551.384 108.249 560.805 112.109C576.08 118.384 591.301 124.823 606.539 131.189C615.54 112.457 629.534 97.2548 642.157 81.0834C636.961 71.9366 633.12 61.5825 626.296 53.8809C606.448 31.5262 582.465 14.495 554.183 4.04938C537.865 -1.96919 520.797 0.610197 506.016 6.18972C458.398 24.1905 425.013 58.1433 404.652 104.773C403.957 106.347 404.03 108.249 403.737 109.987C406.28 113.573 406.408 117.085 403.518 120.542L403.591 120.451C386.066 179.009 402.365 232.407 428.708 284.233C433.007 292.684 437.763 300.862 440.837 309.899C447.093 328.302 446.599 345.882 435.074 362.291V362.309Z" fill="#F6DFEC"/>
<path d="M638.992 540.176C622.766 542.884 606.576 545.719 590.331 548.28C583.38 549.378 576.355 550.622 569.349 550.64C504.718 550.823 440.032 552.561 375.511 550.037C339.491 548.628 303.324 549.506 267.506 546.488C246.249 544.695 224.992 545.372 203.899 543.433C165.135 539.884 127.341 530.975 98.5652 502.913C72.7165 477.686 53.2522 447.117 37.0259 414.774C35.0502 410.823 34.4831 406.176 32.5622 399.39C37.6844 400.945 40.5199 401.219 42.6968 402.573C75.7898 423.226 112.157 434.44 150.391 440.385C150.976 440.477 151.58 440.44 152.165 440.477C164.294 441.3 175.069 436.599 178.014 429.171C180.721 422.366 176.386 414.317 164.586 406.762C151.159 398.182 136.927 390.847 123.646 382.047C109.45 372.644 95.9858 362.162 81.4974 351.625C83.656 348.808 85.6134 346.814 86.9123 344.454C92.4552 334.32 92.1991 330.643 84.2963 322.392C74.0519 311.691 63.4783 301.3 52.9046 290.927C45.6055 283.775 40.5565 275.524 37.593 262.829C45.3677 265.39 51.4594 266.853 57.0573 269.414C62.9295 272.103 68.1797 276.11 73.9422 279.073C79.4668 281.927 85.1561 287.305 91.4673 280.701C95.9675 275.982 95.5285 262.847 90.3514 257.633C86.2354 253.499 80.3632 250.993 76.5764 246.657C62.2526 230.211 48.3861 213.381 34.5379 196.533C32.7269 194.338 31.5561 191.338 30.8975 188.502C29.2877 181.66 34.7758 176.794 41.27 179.776C47.6361 182.703 53.7461 186.508 59.3439 190.752C64.5393 194.703 69.881 197.759 75.0947 192.655C79.9058 187.935 82.0279 181.239 78.2046 174.727C72.2409 164.538 65.7467 154.677 59.4354 144.689C45.7336 122.975 35.1965 100.144 33.5318 73.9663C33.1659 68.1673 31.3183 62.4414 30.1658 56.6973C18.8421 58.4351 16.7018 67.2343 16.0798 76.2713C14.8907 93.2111 20.0861 109.017 26.9278 124.127C31.5378 134.317 37.7576 143.756 42.953 153.708C45.1116 157.824 46.447 162.379 48.1483 166.733L47.8739 167.007C39.5138 164.409 31.2451 161.446 22.7752 159.342C17.9274 158.153 9.36607 156.507 8.37822 158.318C5.87201 162.855 4.84758 169.897 6.56717 174.745C12.6589 191.886 19.2812 208.991 31.4463 223.132C38.7272 231.583 46.136 239.943 53.1241 248.651C55.5755 251.706 56.9475 255.639 58.8134 259.17L58.5573 259.426C46.8861 255.84 35.2148 252.273 22.9947 248.523C17.4335 256.261 18.1287 263.908 22.0252 270.548C28.5377 281.671 35.4892 292.72 43.703 302.617C51.9351 312.532 61.9599 320.947 73.1738 331.996C68.3078 333.112 65.7833 333.387 63.5149 334.283C55.3925 337.521 54.3498 339.808 58.5756 347.491C65.7467 360.571 74.6922 372.388 87.6623 380.2C103.815 389.95 120.371 399.042 136.707 408.481C142.762 411.976 148.744 415.653 154.745 419.238L154.69 419.293C150.555 419.201 146.165 419.988 142.323 418.89C99.5348 406.689 57.7707 392.31 23.8362 361.723C20.3605 358.595 16.5188 355.43 12.2747 353.784C8.87215 352.467 4.31706 352.65 0.841297 353.82C-0.256313 354.186 -0.000204348 360.004 0.43884 363.205C5.54273 400.103 19.7568 433.233 40.8858 463.874C57.3682 487.784 74.1068 510.87 98.1445 528.267C125.292 547.933 155.385 558.177 188.277 561.287C241.913 566.336 295.714 564.982 349.461 564.671C368.87 564.562 388.591 559.86 407.597 562.11C446.599 566.739 485.528 564.452 524.475 564.598C548.018 564.69 571.69 563.61 595.051 560.903C611.424 559 626.918 552.506 639.029 540.213L638.992 540.176Z" fill="#E2CEDA"/>
<path d="M435.075 362.31C453.954 352.377 451.301 334.925 448.63 318.881C446.947 308.802 440.874 299.454 436.886 289.74C426.184 263.653 412.976 238.225 405.714 211.206C399.768 189.052 395.963 165.252 402.86 141.617C404.762 135.068 403.445 127.568 403.591 120.488C393.713 131.483 394.408 145.605 393.146 158.758C388.627 205.718 398.744 250.244 417.202 293.216C421.391 302.966 424.281 313.357 429.202 322.705C435.916 335.455 436.666 348.608 435.075 362.328V362.31Z" fill="#E2CEDA"/>
<path d="M642.194 81.084C626.974 90.3405 616.199 103.53 608.973 119.592C607.4 123.104 607.345 127.312 606.576 131.19C614.571 136.074 622.528 141.032 630.559 145.843C645.029 154.496 658.292 164.576 669.085 181.149C672.451 165.124 669.726 152.648 666.927 140.355C662.116 119.226 654.871 99.0116 642.176 81.1023L642.194 81.084Z" fill="#EDA1C6"/>
<path d="M403.536 120.561C408.274 117.14 408.329 113.628 403.756 110.006C403.682 113.518 403.609 117.049 403.536 120.561Z" fill="#E2CEDA"/>
<path d="M353.852 433.562C357.657 437.659 361.864 437.915 367.426 434.312C361.498 426.354 353.083 422.384 344.888 418.287C330.125 410.914 314.319 405.188 300.581 396.279C275.903 380.236 252.378 362.418 228.559 345.112C226.053 343.301 224.718 339.881 221.205 334.905C233.279 334.191 242.847 333.624 253.768 332.966C251.445 322.922 243.835 318.989 238.09 313.593C225.614 301.885 212.919 290.397 200.845 278.286C197.515 274.957 196.052 269.78 192.411 262.956C212.022 265.023 224.334 274.847 238.438 285.951C239.097 274.152 233.663 268.902 228.23 263.871C210.065 247.078 199.089 225.436 187.564 204.161C186.155 201.563 184.728 198.874 184.051 196.057C182.807 190.935 185.332 187.715 190.491 188.154C195.064 188.538 199.692 189.819 203.991 191.52C208.107 193.148 211.803 195.837 216.76 198.691C211.272 181.312 191.808 157.97 176.13 148.951C158.532 152.372 152.806 161.72 156.373 181.038C159.593 198.472 168.173 214.296 172.27 231.583C165.41 235.059 161.88 229.296 157.233 227.76C152.147 226.077 147.172 223.442 142.232 227.705C136.744 232.443 137.75 238.534 140.037 244.096C146.842 260.596 156.337 275.579 166.819 289.994C173.459 299.123 184.454 307.19 164.697 316.026C154.087 320.764 161.203 330.715 167.441 336.35C182.442 349.905 199.564 360.625 217.4 370.028C261.817 393.481 306.398 416.622 353.87 433.562H353.852Z" fill="#EDA1C6"/>
<path d="M353.851 433.562C346.698 423.007 334.68 420.555 324.033 416.019C309.471 409.799 294.361 404.786 280.055 398.054C265.146 391.03 250.749 382.889 236.425 374.694C217.016 363.589 197.899 351.973 178.654 340.576C177.648 339.973 176.459 339.46 175.746 338.582C171.428 333.259 163.964 327.954 163.745 322.392C163.397 314.014 174.191 317.673 179.331 314.362C180.795 313.41 182.331 312.569 185.203 310.886C173.843 293.068 162.373 275.579 151.507 257.725C147.573 251.267 144.427 244.169 142.104 236.98C140.055 230.651 145.012 226.553 151.086 229.297C156.409 231.712 160.983 235.791 166.324 238.114C169.654 239.559 173.825 239.066 177.611 239.431C177.483 236.139 178.069 232.608 177.118 229.571C172.142 213.894 166.123 198.527 161.733 182.703C156.629 164.318 159.684 158.391 176.093 148.952C169.965 143.061 164.221 145.183 158.97 150.104C150.153 158.336 146.073 168.416 149.311 180.38C152.074 190.606 155.623 200.594 158.751 210.711C159.757 213.949 160.58 217.223 161.422 220.278C159.647 221.266 158.44 222.492 157.726 222.254C149 219.235 140.604 220.351 135.591 227.961C130.725 235.352 132.664 243.529 137.475 251.212C148.36 268.573 158.751 286.226 169.635 304.282C167.934 304.684 165.684 304.904 163.672 305.709C150.94 310.758 147.884 319.154 155.11 330.698C157.891 335.125 161.477 339.479 165.666 342.534C180.923 353.601 195.649 365.949 212.278 374.456C246.432 391.926 281.464 407.713 316.606 423.135C328.295 428.257 341.375 430.178 353.833 433.58L353.851 433.562Z" fill="#DB9ABA"/>
<path d="M605.753 77.4989C614.406 71.0596 612.832 64.602 608.808 58.1078C605.552 52.8759 600.704 47.4793 594.612 50.1135C588.63 52.6929 583.874 58.4188 579.081 63.2666C578.276 64.0715 579.337 68.1875 580.709 69.2851C582.063 70.3645 585.173 70.2364 587.075 69.5047C599.167 64.8398 599.131 64.7301 605.734 77.5172L605.753 77.4989Z" fill="#EDA1C6"/>
</g>
<defs>
<clipPath id="clip0_4090_4398">
<rect width="1348.73" height="564.446" fill="white" transform="translate(0 0.589844)"/>
</clipPath>
</defs>
</svg>
