<svg width="830" height="831" viewBox="0 0 830 831" fill="none" xmlns="http://www.w3.org/2000/svg">
<g clip-path="url(#clip0_4090_4487)">
<path d="M618.959 699.752L270.459 561.021L269.074 559.223L130.631 211.406L137.357 208.727L275.243 555.14L621.638 693.026L618.959 699.752Z" fill="#FFAEAB"/>
<g style="mix-blend-mode:multiply" opacity="0.5">
<path d="M137.357 208.727L130.631 211.406L138.742 231.8L142.662 232.286L267.132 543.738L263.859 546.094L269.074 559.223L270.459 561.021L283.39 566.165L286.411 562.676L598.511 687.307V691.605L618.959 699.752L621.638 693.026L275.243 555.14L137.357 208.727Z" fill="#FFAEAB"/>
</g>
<path d="M736.792 726.857C696.777 714.628 683.27 680.997 713.574 649.363C743.841 622.224 790.205 645.91 807.758 676.717C850.83 748.007 764.973 841.831 688.774 816.868C637.608 802.301 607.916 749.661 602.934 699.647C597.773 651.467 609.013 605.427 626.152 564.225C667.606 474.465 663.362 386.702 603.96 306.132C590.202 286.799 571.66 270.074 555.06 253.168C498.374 195.187 413.56 163.948 333.512 181.591C309.431 187.022 289.954 194.432 266.25 204.359C225.03 221.48 178.99 232.774 130.775 227.577C80.7242 222.595 28.0302 192.867 13.4629 141.666C-2.52511 89.9968 32.3285 36.2596 80.1847 17.1963C115.47 2.10745 159.298 15.5957 180.177 47.4998C198.917 73.5591 198.629 111.848 166.869 127.458C137.285 144.921 111.675 122.279 103.564 93.6476C119.714 123.34 145.432 136.396 169.153 106.974C183.451 84.5835 161.636 56.3841 140.522 47.356C95.9749 26.71 41.0149 83.5044 58.6395 126.99C90.9034 192.381 184.997 173.012 240.515 146.018C268.912 132.206 303.514 118.034 335.634 112.873C439.349 91.5974 546.949 137.116 617.25 213.189C650.251 244.59 678.001 281.566 696.759 323.289C728.447 393.608 730.533 472.325 704.06 544.838C698.665 559.279 690.104 577.353 684.331 589.871C668.307 623.843 657.859 660.243 659.387 694.755C661.222 772.537 735.82 808.65 780.925 735.705C798.766 706.607 778.533 665.387 746.179 657.527C733.303 653.913 721.469 660.207 714.149 670.638C695.572 692.777 715.462 715.815 736.792 726.875V726.857Z" fill="#EBAF3B"/>
<g style="mix-blend-mode:multiply" opacity="0.5">
<path d="M165.106 49.6393C183.846 75.6986 183.558 113.987 151.798 129.598C149.046 131.216 146.349 132.493 143.687 133.446C150.935 134.004 158.758 132.241 166.887 127.439C198.647 111.829 198.935 73.5405 180.195 47.4812C161.599 19.084 124.803 5.29006 92.072 13.2571C120.469 11.9622 149.334 25.5404 165.106 49.6393Z" fill="#EBAF3B"/>
</g>
<g style="mix-blend-mode:multiply" opacity="0.5">
<path d="M43.568 129.128C64.7535 172.038 112.574 178.458 158.632 170.15C117.555 174.466 77.5224 165.222 58.6568 126.969C45.5103 94.5797 72.6846 54.8164 105.812 45.1588C66.5879 44.961 28.4792 91.9 43.568 129.128Z" fill="#EBAF3B"/>
</g>
<g style="mix-blend-mode:multiply" opacity="0.5">
<path d="M807.757 676.733C793.244 651.25 759.038 630.675 730.515 639.65C755.135 640.045 780.655 657.796 792.668 678.891C827.09 735.866 779.18 807.209 719.652 820.841C785.708 817.047 845.039 738.455 807.757 676.733Z" fill="#EBAF3B"/>
</g>
<g style="mix-blend-mode:multiply" opacity="0.5">
<path d="M659.405 694.754C657.876 660.224 668.325 623.842 684.349 589.87C690.122 577.335 698.683 559.279 704.078 544.837C730.569 472.324 728.465 393.607 696.777 323.288C681.148 288.561 659.297 257.142 633.382 229.464C630.972 226.893 628.526 224.357 626.044 221.839C625.685 221.479 625.343 221.12 624.983 220.76C622.429 218.206 619.858 215.67 617.25 213.171C614.498 210.185 611.657 207.272 608.797 204.394C608.42 204.017 608.042 203.639 607.664 203.261C539.162 134.993 439.943 94.6361 343.169 111.469C434.134 101.182 525.746 139.867 590.579 203.405L547.849 246.136C550.294 248.438 552.704 250.776 555.042 253.168C563.909 262.196 573.314 271.188 582.27 280.558L624.48 238.349C647.697 264.354 667.318 293.488 681.688 325.429C713.376 395.747 715.462 474.465 688.989 546.977C683.594 561.419 675.034 579.493 669.261 592.01C653.237 625.982 642.788 662.383 644.316 696.894C645.629 752.34 683.9 786.6 722.134 775.288C689.511 775.018 660.538 742.862 659.405 694.754Z" fill="#EBAF3B"/>
</g>
<path d="M242.583 587.856L125.397 705.042L0.280029 702.704L117.466 585.5L242.583 587.856Z" fill="#EA3283"/>
<g style="mix-blend-mode:multiply" opacity="0.5">
<path d="M211.056 587.262L114.66 687.308L8.17514 694.808L0.280029 702.703L125.397 705.041L242.583 587.855L211.056 587.262Z" fill="#EA3283"/>
</g>
<path d="M242.583 587.855L125.397 705.041L127.735 830.158L244.921 712.954L242.583 587.855Z" fill="#EA3283"/>
<g style="mix-blend-mode:multiply" opacity="0.5">
<path d="M140.864 716.965L243.105 616.019L242.583 587.855L125.397 705.041L127.735 830.158L244.921 712.954L244.651 697.829L143.831 797.013L140.864 716.965Z" fill="#EA3283"/>
</g>
<path d="M720.695 125.08L110.775 735C106.531 739.244 99.661 739.244 95.4347 735C91.2084 730.756 91.1904 723.886 95.4347 719.659L705.336 109.74C709.581 105.496 716.451 105.496 720.677 109.74C724.903 113.984 724.921 120.854 720.677 125.08H720.695Z" fill="#D4E4F3"/>
<g style="mix-blend-mode:multiply" opacity="0.5">
<path d="M720.695 109.74C716.45 105.496 709.58 105.496 705.354 109.74L661.365 153.729L677.748 155.186L96.8914 736.205C101.118 739.172 106.981 738.795 110.775 735L720.695 125.08C724.939 120.836 724.939 113.966 720.695 109.74Z" fill="#D4E4F3"/>
</g>
<path d="M819.07 11.3677C838.817 78.647 829.339 168.784 807.38 204.375C783.443 243.167 738.878 251.116 706.956 219.176C675.034 187.236 683.091 147.347 683.091 147.347C683.091 147.347 643.202 155.404 611.261 123.482C579.321 91.5417 587.27 46.9946 626.063 23.0575C661.635 1.09869 751.773 -8.37903 819.07 11.3677Z" fill="#EA3283"/>
<g style="mix-blend-mode:multiply" opacity="0.5">
<path d="M765.062 200.993C706.253 204.446 699.078 129.092 699.078 129.092C699.078 129.092 638.111 147.58 603.671 114.669C605.883 117.69 608.401 120.639 611.26 123.499C643.2 155.439 683.09 147.364 683.09 147.364C683.09 147.364 675.033 187.253 706.955 219.193C738.895 251.134 783.442 243.184 807.379 204.392C829.338 168.819 838.816 78.682 819.069 11.3848C819.069 11.3848 823.871 197.558 765.062 201.011V200.993Z" fill="#EA3283"/>
</g>
</g>
<defs>
<clipPath id="clip0_4090_4487">
<rect width="829.562" height="829.562" fill="white" transform="translate(0.279907 0.597656)"/>
</clipPath>
</defs>
</svg>
