<svg width="1085" height="1219" viewBox="0 0 1085 1219" fill="none" xmlns="http://www.w3.org/2000/svg">
<g clip-path="url(#clip0_4090_3969)">
<path d="M323.81 403.97C322.985 462.615 332.919 519.33 357.795 572.792C397.724 658.592 470.402 711.815 487.904 810.367C508.53 926.595 500.657 1062.75 480.508 1178.72C480.053 1181.33 483.068 1186.6 484.065 1181.82C504.995 1083.34 505.689 972.466 498.77 872.287C494.888 815.876 486.386 757.317 457.258 707.716C431.905 664.534 393.798 631.85 369.55 587.454C338.731 530.999 325.523 468.016 325.371 403.97C325.371 401.953 323.853 401.953 323.831 403.97H323.81Z" fill="#755179"/>
<path d="M189.927 562.209C194.742 655.339 275.879 695.159 342.657 745.042C492.004 856.629 476.475 1047.64 474.805 1214.81C474.761 1219.65 478.73 1219.65 478.795 1214.81C479.988 1096.22 491.505 969.343 441.947 857.865C423.381 816.115 396.358 780.242 360.55 751.744C293.099 698.043 197.649 662.279 191.641 562.252C191.511 560.105 189.819 560.04 189.927 562.252V562.209Z" fill="#755179"/>
<path d="M346.887 675.184C334.915 743.416 379.072 788.181 414.381 841.881C488.642 954.9 488.946 1077.94 477.082 1207.46C476.779 1210.84 479.902 1214.6 480.531 1209.46C490.052 1131.53 494.563 1055.08 476.562 977.868C467.192 937.679 452.77 899.095 432.252 863.223C397.529 802.474 337.496 753.501 348.015 675.857C348.166 674.685 347.19 673.428 346.887 675.163V675.184Z" fill="#755179"/>
<path d="M651.391 750.809C647.509 911.434 490.897 1017.53 481.18 1179.11C481.05 1181.39 482.916 1184.06 483.545 1180.48C500.852 1081.8 547.439 1007.36 598.081 923.362C630.679 869.293 653.885 814.595 652.454 750.788C652.41 749.248 651.413 749.248 651.369 750.788L651.391 750.809Z" fill="#755179"/>
<path d="M666.791 319.449C645.514 388.396 644.343 451.401 649.028 522.691C656.944 643.517 611.377 735.476 562.665 841.358C513.107 949.085 474.74 1077.98 475.109 1197.18C475.109 1201.88 478.991 1201.86 479.121 1197.18C482.743 1050.69 536.226 913.19 596.997 782.301C624.52 723.005 649.917 660.477 654.667 594.566C661.369 501.696 641.654 415.68 669.719 323.266C670.456 320.837 668.265 314.764 666.812 319.449H666.791Z" fill="#755179"/>
<path d="M809.695 505.104C788.007 582.683 820.518 671.367 773.302 741.876C735.282 798.678 674.078 829.757 621.114 869.881C538.005 932.842 496.862 1033.41 480.075 1133.87C479.749 1135.8 481.918 1139.73 482.786 1136.17C500.722 1062.69 521.153 989.731 569.062 929.415C611.506 875.975 674.099 847.759 724.698 803.623C752.806 779.115 779.028 749.857 792.735 714.7C818.761 647.878 792.54 574.81 810.367 506.014L809.695 505.104Z" fill="#755179"/>
<path d="M882.829 704.681C831.428 839.214 722.899 888.881 615.129 969.995C537.918 1028.12 484.608 1107.89 477.928 1205.92C477.776 1208.05 479.707 1210.37 480.227 1207.16C504.041 1058.22 597.171 990.252 713.681 912.152C793.364 858.734 850.405 798.071 883.87 707.088C884.174 706.264 883.48 703.033 882.851 704.703L882.829 704.681Z" fill="#755179"/>
<path d="M300.343 434.007C298.391 434.007 296.57 433.595 294.9 432.749C292.817 431.686 291.256 430.016 290.497 428.043C289.673 425.874 289.955 423.271 291.408 420.126C296.613 408.718 316.284 391.519 322.574 389.242C323.68 388.83 324.916 388.635 326.239 388.635C334.329 388.635 344.089 396.074 349.728 402.992C354.998 409.434 357.297 415.854 356.234 421.059C355.085 426.72 349.901 430.016 345.368 430.32H345.195C340.467 430.32 337.062 428.802 333.592 427.132C330.447 425.613 327.606 424.225 324.808 424.225C321.186 424.291 317.737 426.459 314.072 428.758L312.077 430.016C307.631 432.727 303.792 434.05 300.343 434.05V434.007Z" fill="#FF8EA9"/>
<path d="M326.239 391.456C337.018 391.456 355.735 409.067 353.415 420.432C352.59 424.531 348.773 427.156 345.173 427.416H344.392C341.074 427.437 337.907 425.984 334.849 424.51C331.639 422.948 328.321 421.321 324.808 421.321H324.591C319.581 421.408 315.048 424.792 310.558 427.524C307.392 429.455 303.77 431.124 300.321 431.124C298.89 431.124 297.502 430.843 296.179 430.17C294.899 429.52 293.728 428.479 293.164 427.004C289.976 418.654 316.653 394.428 323.528 391.89L326.217 391.456M326.217 385.709C324.547 385.709 322.986 385.969 321.554 386.49C314.028 389.244 294.01 407.397 288.783 418.914C287.048 422.753 286.701 426.18 287.807 429.064C288.826 431.71 290.865 433.922 293.598 435.31C295.658 436.351 297.936 436.894 300.343 436.894C304.334 436.894 308.65 435.44 313.573 432.447L315.59 431.19C318.908 429.107 322.031 427.134 324.721 427.09C326.976 427.09 329.536 428.327 332.247 429.65C336.172 431.558 339.968 433.228 344.414 433.228L345.585 433.185C352.113 432.729 357.796 427.871 359.075 421.625C360.311 415.552 357.796 408.287 351.983 401.151C345.932 393.712 335.283 385.731 326.261 385.731L326.217 385.709Z" fill="#FF8EA9"/>
<path d="M324.612 396.683C316.501 396.683 307.76 394.796 298.63 391.109C251.414 372.002 214.088 330.208 196.217 276.464C183.985 239.681 181.577 200.034 189.407 164.834C203.179 103.022 263.147 75.3477 316.457 75.3477C350.183 75.3477 381.566 85.8448 404.859 104.909C450.882 142.582 456.283 205.348 421.386 296.83C407.072 334.329 370.136 389.895 332.745 396.032C330.056 396.488 327.323 396.683 324.612 396.683Z" fill="#F7BBD2"/>
<path d="M316.457 78.2316C347.905 78.2316 379.31 87.7311 403.016 107.142C460.924 154.553 441.816 235.169 418.675 295.81C404.165 333.873 367.273 387.443 332.268 393.212C329.73 393.624 327.171 393.82 324.612 393.82C316.11 393.82 307.63 391.651 299.692 388.462C249.7 368.227 215.324 324.872 198.928 275.574C186.977 239.658 184.375 200.598 192.204 165.484C204.979 108.097 260.74 78.2533 316.457 78.2533M316.457 72.5059C261.976 72.5059 200.706 100.874 186.587 164.248C178.627 199.947 181.078 240.114 193.484 277.396C211.615 331.943 249.548 374.387 297.545 393.82C307.023 397.658 316.132 399.61 324.612 399.61C327.54 399.61 330.424 399.393 333.201 398.916C371.697 392.583 409.5 336.02 424.053 297.892C459.449 205.109 453.745 141.28 406.659 102.718C382.867 83.2416 350.833 72.5059 316.457 72.5059Z" fill="#FF8EA9"/>
<path d="M409.891 113.322C433.51 163.553 423.294 231.069 403.081 279.239C389.265 312.183 367.36 342.677 332.962 355.799C305.7 366.209 275.206 365.233 248.247 354.974C262.909 368.985 280.086 380.523 299.692 388.461C309.994 392.625 321.229 395.033 332.268 393.211C367.295 387.442 404.165 333.872 418.675 295.808C440.84 237.727 459.254 161.34 409.891 113.322Z" fill="#FF8EA9"/>
<path d="M296.959 93.653C240.656 89.7491 205.933 169.996 211.095 216.344C211.898 223.48 218.144 227.644 220.79 218.925C227.839 195.74 230.333 173.488 246.035 153.773C260.176 136.032 279.283 127.595 298.326 116.578C303.206 113.758 303.965 94.1084 296.938 93.6313L296.959 93.653Z" fill="#FFD9C2"/>
<path d="M214.197 247.488C212.375 257.855 212.224 273.037 219.554 281.473C224.911 287.633 227.08 273.167 226.56 270.304C225.714 278.676 225.714 280.411 226.56 275.552C226.777 273.796 226.777 272.061 226.56 270.304C226.191 267.137 225.215 264.101 224.174 261.108C222.439 256.141 220.66 251.11 219.533 245.948C218.34 240.526 214.826 243.887 214.197 247.466V247.488Z" fill="#FFD9C2"/>
<path d="M679.457 360.269C675.271 359.944 671.801 357.753 668.309 355.368C665.381 353.351 662.735 351.551 659.894 351.16H659.569C655.405 351.16 652.151 352.57 648.724 354.088L646.599 354.999C642.76 356.604 639.485 357.406 636.579 357.406C633.673 357.406 631.265 356.669 629.205 355.194C627.296 353.85 625.995 351.963 625.54 349.881C625.041 347.603 625.713 345.087 627.622 342.181C634.454 331.684 656.489 317.587 663.017 316.264L665.012 316.068C672.278 316.068 680.758 323.551 685.942 330.968C691.624 339.08 693.663 347.018 691.581 352.743C689.954 357.211 685.335 360.334 680.368 360.334L679.457 360.291V360.269Z" fill="#FF8EA9"/>
<path d="M665.012 318.931C675.596 318.931 693.034 340.381 688.891 351.746C687.547 355.433 683.794 357.45 680.368 357.45H679.695C676.095 357.146 672.95 355.064 669.936 353.004C666.921 350.943 663.841 348.796 660.262 348.319L658.701 348.21C654.255 348.21 649.809 350.531 645.471 352.353C642.63 353.546 639.485 354.522 636.557 354.522C634.518 354.522 632.566 354.045 630.853 352.83C629.682 352.006 628.684 350.791 628.337 349.251C626.429 340.533 656.402 320.514 663.581 319.061L664.991 318.931M664.991 313.184L662.431 313.444C654.58 315.049 632.089 330.014 625.192 340.619C622.893 344.155 622.069 347.495 622.72 350.509C623.327 353.285 625.041 355.78 627.513 357.536C630.072 359.358 633.109 360.291 636.535 360.291C639.962 360.291 643.476 359.445 647.662 357.666L649.852 356.712C653.084 355.302 656.142 353.979 658.658 353.979L659.46 354.023C661.629 354.305 663.993 355.931 666.509 357.666C669.675 359.835 673.883 362.72 679.175 363.154L680.303 363.197C686.549 363.197 692.144 359.402 694.227 353.741C696.656 347.126 694.487 338.234 688.262 329.341C683.057 321.902 673.839 313.205 664.969 313.205L664.991 313.184Z" fill="#FF8EA9"/>
<path d="M671.432 324.527C661.13 324.527 650.243 321.187 639.073 314.572C595.219 288.632 564.53 241.764 554.857 185.959C548.242 147.766 551.734 108.206 564.725 74.5677C581.729 30.562 625.93 3.21289 680.108 3.21289C721.836 3.21289 761.678 19.7178 786.684 47.3488C826.591 91.4413 822.6 154.338 774.474 239.595C754.759 274.535 709.951 323.984 672.061 324.505H671.411L671.432 324.527Z" fill="#F7BBD2"/>
<path d="M680.107 6.09683C719.146 6.09683 758.923 20.9751 784.558 49.3001C834.767 104.801 803.883 181.686 771.979 238.206C751.961 273.688 707.521 321.186 672.039 321.663H671.432C660.479 321.663 649.939 317.672 640.547 312.12C594.113 284.663 566.568 236.688 557.698 185.482C551.235 148.178 554.466 109.182 567.414 75.6298C585.654 28.4142 632.328 6.11852 680.107 6.11852M680.107 0.371094C624.693 0.371094 579.451 28.4142 562.036 73.5694C548.871 107.685 545.292 147.787 552.015 186.479C561.84 243.129 593.028 290.735 637.598 317.087C649.223 323.962 660.588 327.432 671.41 327.432H672.104C711.122 326.89 756.927 276.595 776.989 241.047C825.788 154.576 829.649 90.5948 788.831 45.4613C763.282 17.223 722.638 0.371094 680.129 0.371094H680.107Z" fill="#FF8EA9"/>
<path d="M790.436 56.4336C806.334 109.614 786.185 174.852 759.031 219.487C740.466 250.024 714.288 276.896 678.307 284.769C649.808 291.015 619.792 285.506 594.655 271.344C607.06 287.372 622.329 301.339 640.526 312.096C650.09 317.757 660.848 321.791 672.017 321.639C707.499 321.141 751.939 273.665 771.957 238.182C802.516 184.048 832.099 111.24 790.393 56.4336H790.436Z" fill="#FF8EA9"/>
<path d="M679.933 20.0429C625.756 8.20104 579.343 80.1415 578.692 126.598C578.627 131.651 582.965 142.778 587.78 134.341C599.057 114.561 603.33 93.5015 619.792 76.3243C637.077 58.3012 658.983 52.0767 681.322 42.9892C687.134 40.6252 686.288 21.431 679.933 20.0429Z" fill="#FFD9C2"/>
<path d="M577.434 157.613C573.595 168.24 571.622 183.01 577.478 193.312C581.772 200.859 585.806 190.774 585.632 186.306C585.329 178.13 582.856 170.235 582.423 162.059C582.314 159.933 579.43 152.104 577.413 157.634L577.434 157.613Z" fill="#FFD9C2"/>
<path d="M840.905 546.68C836.372 546.311 832.555 543.687 829.735 541.778C826.829 539.783 824.183 537.939 821.32 537.571H820.995C816.852 537.571 813.621 538.98 810.194 540.477L808.025 541.409C804.186 543.014 800.911 543.795 798.005 543.795C795.099 543.795 792.691 543.058 790.631 541.583C788.701 540.195 787.421 538.351 786.966 536.269C786.467 533.992 787.139 531.476 789.048 528.57C795.88 518.073 817.915 503.975 824.443 502.652L826.417 502.457C833.682 502.457 842.163 509.94 847.346 517.357C853.029 525.468 855.067 533.406 852.985 539.132C851.337 543.6 846.739 546.701 841.772 546.701H840.883L840.905 546.68Z" fill="#FF8EA9"/>
<path d="M826.461 505.341C837.044 505.341 854.482 526.791 850.34 538.156C848.995 541.843 845.243 543.838 841.816 543.838H841.144C837.543 543.535 834.399 541.453 831.384 539.392C828.391 537.332 825.289 535.185 821.711 534.708L820.149 534.599C815.703 534.599 811.257 536.92 806.919 538.742C804.078 539.934 800.955 540.91 798.005 540.91C795.967 540.91 793.993 540.433 792.301 539.219C791.13 538.395 790.132 537.18 789.785 535.64C787.877 526.921 817.85 506.903 825.029 505.45L826.439 505.32M826.439 499.572L823.88 499.833C816.028 501.437 793.538 516.402 786.641 527.008C784.342 530.543 783.496 533.883 784.168 536.898C784.775 539.674 786.489 542.168 788.961 543.947C791.521 545.769 794.579 546.701 798.005 546.701C801.432 546.701 804.946 545.834 809.132 544.077L811.322 543.144C814.554 541.735 817.612 540.39 820.128 540.39L820.952 540.433C823.121 540.715 825.506 542.363 828.022 544.077C831.189 546.246 835.396 549.13 840.688 549.542L841.816 549.586C848.062 549.586 853.658 545.769 855.74 540.108C858.169 533.493 855.978 524.601 849.776 515.708C844.57 508.269 835.353 499.572 826.482 499.572H826.439Z" fill="#FF8EA9"/>
<path d="M832.881 510.937C822.557 510.937 811.669 507.597 800.522 500.982C756.668 475.064 725.978 428.174 716.305 372.37C709.69 334.198 713.182 294.638 726.174 260.978C743.177 216.95 787.378 189.623 841.578 189.623C883.306 189.623 923.148 206.128 948.154 233.781C988.039 277.873 984.049 340.748 935.944 426.005C916.229 460.967 871.399 510.416 833.531 510.937H832.881Z" fill="#F7BBD2"/>
<path d="M841.555 192.505C880.595 192.505 920.371 207.383 946.007 235.709C996.215 291.209 965.331 368.073 933.428 424.593C913.409 460.075 868.97 507.573 833.487 508.05H832.88C821.927 508.05 811.387 504.059 801.996 498.507C755.583 471.049 728.017 423.075 719.146 371.868C712.683 334.564 715.915 295.569 728.863 262.017C747.081 214.801 793.776 192.505 841.555 192.505ZM841.555 186.758C786.142 186.758 740.9 214.801 723.484 259.956C710.319 294.072 706.762 334.174 713.464 372.866C723.289 429.516 754.477 477.1 799.046 503.474C810.65 510.349 822.036 513.819 832.858 513.819H833.552C872.57 513.277 918.376 462.981 938.416 427.434C987.215 340.962 991.097 276.982 950.258 231.848C924.709 203.61 884.065 186.758 841.555 186.758Z" fill="#FF8EA9"/>
<path d="M951.884 242.848C967.782 296.028 947.612 361.266 920.479 405.901C901.914 436.438 875.715 463.31 839.755 471.183C811.257 477.408 781.218 471.921 756.103 457.758C768.509 473.786 783.777 487.753 801.996 498.511C811.56 504.171 822.318 508.205 833.487 508.053C868.97 507.576 913.409 460.079 933.427 424.596C963.965 370.462 993.569 297.654 951.884 242.848Z" fill="#FF8EA9"/>
<path d="M841.382 206.453C787.204 194.611 740.791 266.552 740.14 313.008C740.075 318.062 744.413 329.188 749.206 320.751C760.484 300.949 764.757 279.912 781.218 262.734C798.504 244.711 820.409 238.487 842.748 229.399C848.561 227.035 847.736 207.841 841.36 206.453H841.382Z" fill="#FFD9C2"/>
<path d="M738.86 344.021C735.022 354.648 733.026 369.418 738.904 379.72C743.198 387.268 747.232 377.183 747.059 372.715C746.755 364.538 744.304 356.622 743.849 348.445C743.719 346.32 740.834 338.49 738.839 344.021H738.86Z" fill="#FFD9C2"/>
<path d="M899.658 717.844C898.466 717.844 897.294 717.671 896.21 717.345C891.872 716.022 888.684 712.639 886.363 710.167C883.934 707.586 881.744 705.243 879.054 704.267C877.948 703.877 876.69 703.682 875.237 703.682C872.721 703.682 870.119 704.224 867.538 704.744L865.261 705.2C863.265 705.569 861.183 705.807 859.188 705.807C854.438 705.807 850.751 704.397 848.235 701.643C846.652 699.886 845.806 697.826 845.806 695.679C845.806 683.924 882.286 670.867 889.487 670.867C895.364 670.932 901.762 676.463 906.707 685.615C910.98 693.532 914.341 705.352 909.7 712.617C907.575 715.914 903.844 717.888 899.702 717.888L899.658 717.844Z" fill="#FF8EA9"/>
<path d="M889.443 673.689H889.53C900.114 673.841 914.016 700.344 907.228 711.015C905.536 713.682 902.522 714.962 899.659 714.962L897.034 714.571C893.586 713.53 890.94 710.819 888.446 708.173C885.952 705.527 883.392 702.751 880.009 701.537C878.469 700.995 876.864 700.778 875.216 700.778C871.789 700.778 868.189 701.689 864.697 702.318C862.875 702.643 860.967 702.881 859.145 702.881C855.74 702.881 852.53 702.101 850.339 699.65C849.385 698.587 848.648 697.199 848.648 695.616C848.648 686.724 881.961 673.689 889.465 673.689M889.465 667.941C882.677 667.941 842.9 680.824 842.9 695.637C842.9 698.479 844.028 701.277 846.088 703.554C849.168 706.937 853.549 708.672 859.167 708.672C861.184 708.672 863.331 708.455 865.76 708L868.102 707.544C870.683 707.024 873.112 706.547 875.216 706.547L878.057 706.959C880.117 707.696 882.091 709.8 884.173 712.034C886.798 714.832 890.289 718.54 895.364 720.102C896.731 720.514 898.184 720.731 899.659 720.731C904.799 720.731 909.44 718.259 912.064 714.116C917.356 705.809 914.038 693.23 909.18 684.208C903.736 674.123 896.405 668.028 889.595 667.941H889.422H889.465Z" fill="#FF8EA9"/>
<path d="M906.49 681.777C903.042 681.777 899.723 681.452 896.644 680.823C886.363 678.719 876.235 673.08 866.54 664.036C829.258 629.313 809.326 576.957 811.842 520.372C813.555 481.636 825.462 443.747 845.351 413.687C866.041 382.412 900.092 365.191 941.235 365.191C993.287 365.191 1044.23 393.126 1068 434.681C1097.52 486.299 1080.15 546.875 1014.89 619.835C988.017 649.873 940.91 681.777 906.512 681.777H906.49Z" fill="#F7BBD2"/>
<path d="M941.236 368.056C990.143 368.056 1041.37 393.887 1065.51 436.114C1102.66 501.071 1056.01 569.541 1012.74 617.928C987.909 645.711 940.954 678.916 906.513 678.916C903.303 678.916 900.201 678.634 897.252 678.027C886.299 675.793 876.648 669.525 868.515 661.956C829.063 625.194 812.428 572.426 814.727 520.504C816.397 482.679 827.914 445.288 847.759 415.272C869.447 382.479 904.712 368.056 941.236 368.056ZM941.236 362.309C899.095 362.309 864.199 380.006 842.944 412.105C822.774 442.599 810.693 481.009 808.958 520.244C806.399 577.674 826.678 630.854 864.567 666.163C874.652 675.554 885.236 681.453 896.059 683.666C899.334 684.338 902.847 684.685 906.491 684.685C941.735 684.685 989.731 652.283 1017.02 621.767C1083.21 547.766 1100.71 486.106 1070.5 433.273C1046.23 390.829 994.286 362.33 941.236 362.33V362.309Z" fill="#FF8EA9"/>
<path d="M1069.7 444.336C1073.82 499.685 1040.16 559.089 1004.07 596.87C979.386 622.701 948.046 643.349 911.241 643.327C882.07 643.327 853.918 631.507 832.403 612.291C841.079 630.618 853.007 647.513 868.471 661.936C876.604 669.505 886.256 675.773 897.186 678.007C931.953 685.142 985.523 648.272 1012.7 617.908C1054.15 571.582 1098.65 506.799 1069.67 444.336H1069.7Z" fill="#FF8EA9"/>
<path d="M968.346 385.253C918.311 363.565 859.73 416.658 848.431 463.049C847.628 466.281 848.691 485.519 855.74 478.08C871.442 461.51 880.421 441.643 900.114 428.348C920.935 414.294 943.404 412.863 967.153 408.2C973.659 406.942 973.985 387.682 968.346 385.232V385.253Z" fill="#FFD9C2"/>
<path d="M839.539 496.863C832.62 506.601 830.082 519.658 833.01 531.283C833.553 533.473 835.179 536.51 837.804 535.968C840.58 535.404 841.339 531.066 841.772 528.875C843.334 520.764 842.575 512.175 843.855 503.955C844.115 502.285 842.466 492.743 839.539 496.863Z" fill="#FFD9C2"/>
<path d="M160.149 599.533L156.896 599.078C154.662 598.427 152.797 597.083 151.691 595.261C150.476 593.287 150.281 590.685 151.127 587.323C154.12 575.156 170.3 554.617 176.047 551.19C177.739 550.171 179.843 549.672 182.272 549.672C190.036 549.672 200.902 554.986 208.081 562.295C212.679 566.979 215.064 571.816 214.999 576.284C214.913 582.053 210.423 586.239 206.02 587.388C204.828 587.692 203.548 587.865 202.225 587.865C199.384 587.865 196.673 587.171 193.875 586.412C191.186 585.675 188.778 585.024 186.501 585.024L184.549 585.219C181.144 585.935 178.151 588.711 174.963 591.639L173.228 593.222C168.478 597.473 164.205 599.555 160.106 599.555L160.149 599.533Z" fill="#C477A0"/>
<path d="M182.293 552.556C193.397 552.556 212.331 565.374 212.158 576.24C212.093 580.426 208.818 583.701 205.326 584.612L202.246 584.98C199.709 584.98 197.149 584.308 194.655 583.636C191.987 582.898 189.233 582.139 186.522 582.139L183.984 582.399C179.083 583.419 175.244 587.561 171.34 591.075C168.087 594.003 164.183 596.67 160.149 596.67L157.698 596.323C156.332 595.933 154.965 595.109 154.141 593.764C149.478 586.152 171.232 557.414 177.521 553.662C178.801 552.903 180.428 552.535 182.271 552.535M182.271 546.787C179.321 546.787 176.719 547.438 174.593 548.717C167.718 552.816 151.365 574.331 148.329 586.629C147.309 590.728 147.635 594.133 149.24 596.779C150.714 599.208 153.144 601.008 156.072 601.854C157.373 602.244 158.739 602.44 160.127 602.44C164.942 602.44 169.865 600.119 175.157 595.369L176.914 593.764C179.799 591.096 182.51 588.602 185.112 588.06L186.479 587.93C188.387 587.93 190.599 588.537 192.963 589.188C196.065 590.034 198.993 590.771 202.181 590.771C203.764 590.771 205.282 590.576 206.714 590.207C213.047 588.559 217.732 582.725 217.84 576.37C217.927 571.121 215.237 565.569 210.097 560.321C202.42 552.513 190.686 546.83 182.228 546.83L182.271 546.787Z" fill="#C06E9A"/>
<path d="M168.587 559.15C163.642 559.15 158.371 558.586 152.884 557.48C102.958 547.395 58.5831 513.192 31.1039 463.656C12.3218 429.735 2.64873 391.216 3.86328 355.192C6.29238 283.815 75.5 241.154 140.977 241.154C164.097 241.154 186.111 246.511 204.589 256.618C256.75 285.16 273.624 345.866 256.186 442.206C249.029 481.7 222.938 543.122 187.325 556.048C181.643 558.109 175.332 559.15 168.587 559.15Z" fill="#CD83A8"/>
<path d="M140.998 244.017C162.839 244.017 184.44 248.853 203.222 259.134C268.873 295.071 264.926 377.834 253.366 441.685C246.1 481.765 219.727 541.213 186.371 553.337C180.666 555.397 174.659 556.265 168.608 556.265C163.533 556.265 158.458 555.658 153.491 554.66C100.615 543.968 58.8427 507.705 33.6625 462.246C15.3141 429.127 5.55434 391.238 6.76889 355.278C9.11124 286.526 76.1718 244.017 141.02 244.017M141.02 238.27C74.1331 238.27 3.47226 281.972 0.999778 355.105C-0.236461 391.65 9.5667 430.689 28.6091 465.043C56.4787 515.317 101.591 550.04 152.341 560.299C158.002 561.448 163.468 562.012 168.608 562.012C175.7 562.012 182.336 560.906 188.344 558.737C225.019 545.421 251.761 482.871 259.048 442.726C276.746 345.02 259.395 283.316 206.02 254.102C187.108 243.757 164.639 238.291 141.042 238.291L141.02 238.27Z" fill="#C06E9A"/>
<path d="M211.117 263.947C243.585 308.972 245.97 377.204 234.996 428.259C227.47 463.199 211.572 497.184 180.189 516.422C155.313 531.669 125.144 536.332 96.7758 531.213C113.779 542.275 132.757 550.451 153.491 554.659C164.379 556.871 175.873 557.153 186.371 553.336C219.727 541.212 246.1 481.786 253.366 441.684C264.449 380.522 268.483 302.032 211.117 263.947Z" fill="#C477A0"/>
<path d="M98.6194 265.209C43.314 271.911 20.7581 358.817 34.5952 403.56C37.1979 411.997 43.7478 408.266 44.2683 400.892C45.9383 377.273 44.7671 354.761 56.262 333.072C66.6724 313.444 83.3508 301.885 99.9858 288.134C103.608 285.141 105.993 264.299 98.5977 265.188L98.6194 265.209Z" fill="#E09CBE"/>
<path d="M43.6398 432.986C43.835 443.267 45.3748 458.492 54.549 464.977C60.2964 469.054 60.7085 452.766 59.9061 450.445C60.6001 456.301 60.7519 457.082 60.4049 452.809C60.1663 451.183 59.7326 449.6 59.0819 448.103C58.1493 445.609 56.8697 443.375 55.525 441.076C53.1393 436.955 50.6234 432.834 48.6064 428.518C46.199 423.378 43.5964 430.535 43.6398 432.986Z" fill="#E09CBE"/>
<path d="M362.719 700.536C358.511 700.276 354.998 698.172 351.463 695.83C348.491 693.878 345.824 692.121 342.982 691.796H342.766C338.688 691.796 335.37 693.314 331.878 694.919L329.752 695.895C325.827 697.63 322.465 698.476 319.472 698.476C316.783 698.476 314.375 697.782 312.358 696.394C310.428 695.071 309.105 693.206 308.606 691.145C308.064 688.89 308.693 686.352 310.537 683.403C317.173 672.775 338.927 658.287 345.455 656.834L347.624 656.596C354.998 656.596 363.63 664.078 368.9 671.496C374.517 679.369 376.621 687.133 374.669 692.794C373.086 697.37 368.445 700.58 363.391 700.58H362.697L362.719 700.536Z" fill="#C477A0"/>
<path d="M347.646 659.482C358.251 659.482 375.906 680.476 371.98 691.841C370.679 695.593 366.862 697.697 363.391 697.697H362.893C359.292 697.458 356.104 695.441 353.068 693.446C350.031 691.429 346.887 689.347 343.308 688.956L341.985 688.891C337.474 688.891 332.984 691.342 328.603 693.272C325.697 694.552 322.487 695.615 319.494 695.615C317.521 695.615 315.655 695.159 314.007 694.031C312.836 693.229 311.795 692.036 311.426 690.496C309.366 681.821 338.97 661.26 346.106 659.655L347.646 659.482ZM347.646 653.734L344.826 654.038C337.018 655.795 314.788 671.172 308.086 681.886C305.852 685.464 305.071 688.805 305.787 691.819C306.438 694.574 308.195 697.046 310.71 698.759C313.226 700.473 316.154 701.34 319.451 701.34C322.747 701.34 326.565 700.408 330.881 698.521L333.049 697.545C336.303 696.048 339.382 694.639 341.92 694.639L342.614 694.682C344.783 694.921 347.19 696.526 349.728 698.196C352.938 700.321 357.189 703.119 362.481 703.444H363.348C369.616 703.466 375.385 699.475 377.359 693.749C379.614 687.2 377.359 678.481 371.221 669.827C365.929 662.41 356.581 653.734 347.602 653.734H347.646Z" fill="#C06E9A"/>
<path d="M353.154 664.969C343.112 664.969 332.463 661.824 321.511 655.6C277.201 630.485 245.645 584.18 234.931 528.549C227.6 490.464 230.398 450.861 242.76 417.006C259.308 371.677 304.117 343.525 359.704 343.525C400.326 343.525 439.387 359.293 464.199 385.731C504.908 429.086 502.067 492.026 455.523 578.172C436.438 613.481 392.54 663.733 354.694 664.947H353.154V664.969Z" fill="#CD83A8"/>
<path d="M359.704 346.388C397.832 346.388 436.589 360.507 462.095 387.683C513.323 442.251 483.827 519.679 452.986 576.784C433.618 612.613 390.068 660.913 354.586 662.063H353.132C342.483 662.063 332.16 658.333 322.899 653.084C275.965 626.494 247.553 579.018 237.728 528.007C230.571 490.833 233.087 451.772 245.428 417.982C263.126 369.508 310.883 346.388 359.661 346.388M359.661 340.641C302.837 340.641 256.988 369.53 240.006 416.008C227.47 450.362 224.65 490.529 232.068 529.091C242.912 585.546 274.989 632.567 320.036 658.094C331.444 664.557 342.549 667.832 353.111 667.832H354.737C393.733 666.552 438.606 615.433 458.018 579.517C505.212 492.156 507.901 428.132 466.259 383.736C440.905 356.734 401.064 340.619 359.682 340.619L359.661 340.641Z" fill="#C06E9A"/>
<path d="M468.081 394.73C484.955 447.607 465.999 513.214 439.669 558.326C421.668 589.189 395.967 616.559 360.16 625.083C331.791 631.85 301.666 626.883 276.291 613.198C289 629.009 304.507 642.672 322.921 653.104C332.594 658.592 343.416 662.43 354.586 662.083C390.046 660.934 433.618 612.634 452.986 576.805C482.526 522.106 510.786 448.778 468.103 394.73H468.081Z" fill="#C477A0"/>
<path d="M357.166 360.379C303.032 349.535 257.465 422.365 257.682 468.669C257.682 473.506 262.084 485.087 266.747 476.412C277.548 456.394 281.517 435.269 297.567 417.832C314.505 399.44 336.324 392.803 358.511 383.325C364.215 380.896 363.586 361.68 357.123 360.379H357.166Z" fill="#E09CBE"/>
<path d="M256.598 501.028C253.171 511.135 251.827 525.883 257.531 535.426C261.933 542.735 265.967 533.062 265.685 528.399C265.187 519.658 262.562 511.243 261.933 502.503C261.608 498.23 258.181 496.278 256.576 501.028H256.598Z" fill="#E09CBE"/>
<path d="M665.446 772.063C661.26 771.803 657.66 769.439 655.035 767.704C652.303 765.904 649.809 764.255 647.163 763.952H646.946C643.172 763.952 640.114 765.361 636.861 766.836L634.887 767.725C631.243 769.33 628.12 770.111 625.366 770.111C622.872 770.111 620.638 769.46 618.773 768.181C616.994 766.966 615.758 765.231 615.302 763.323C614.804 761.219 615.389 758.877 617.102 756.144C623.262 746.297 643.432 732.872 649.462 731.527L651.479 731.311C658.31 731.311 666.313 738.229 671.193 745.104C676.399 752.413 678.351 759.614 676.529 764.841C675.076 769.092 670.76 772.063 666.075 772.063H665.424H665.446Z" fill="#C477A0"/>
<path d="M651.478 733.982C661.303 733.982 677.678 753.436 674.034 763.998C672.82 767.49 669.306 769.42 666.075 769.42H665.597C662.257 769.204 659.286 767.338 656.466 765.473C653.647 763.608 650.741 761.678 647.422 761.309L646.186 761.244C642 761.244 637.836 763.521 633.78 765.321C631.091 766.514 628.12 767.49 625.344 767.49C623.522 767.49 621.787 767.078 620.247 766.015C619.162 765.278 618.208 764.172 617.861 762.74C615.953 754.694 643.388 735.63 650.025 734.155L651.456 734.003M651.456 728.668L648.854 728.95C641.61 730.577 621.006 744.826 614.803 754.781C612.743 758.099 612.027 761.201 612.678 763.977C613.285 766.536 614.912 768.813 617.254 770.418C619.575 772.001 622.307 772.826 625.365 772.826C628.423 772.826 631.959 771.98 635.949 770.201L637.966 769.29C640.981 767.902 643.844 766.601 646.186 766.601C648.832 766.861 651.066 768.336 653.43 769.898C656.401 771.85 660.327 774.452 665.25 774.756H666.053C671.865 774.778 677.201 771.069 679.044 765.755C681.148 759.682 679.044 751.614 673.34 743.59C668.438 736.714 659.763 728.69 651.456 728.69V728.668Z" fill="#C06E9A"/>
<path d="M656.597 739.078C647.292 739.078 637.402 736.151 627.252 730.403C586.174 707.11 556.917 664.188 547.005 612.635C540.217 577.348 542.797 540.63 554.249 509.225C569.604 467.214 611.116 441.102 662.648 441.102C700.299 441.102 736.518 455.72 759.508 480.227C797.246 520.416 794.6 578.758 751.462 658.593C733.786 691.321 693.098 737.907 658.006 739.035H656.597V739.078Z" fill="#CD83A8"/>
<path d="M662.648 443.769C698 443.769 733.916 456.869 757.556 482.049C805.054 532.626 777.727 604.393 749.12 657.334C731.162 690.561 690.8 735.326 657.92 736.389H656.575C646.707 736.389 637.142 732.94 628.554 728.082C585.047 703.422 558.717 659.416 549.608 612.136C542.971 577.673 545.314 541.475 556.744 510.157C573.162 465.219 617.428 443.79 662.626 443.79M662.626 438.455C609.967 438.455 567.458 465.24 551.712 508.335C540.087 540.174 537.463 577.391 544.338 613.155C554.401 665.489 584.114 709.083 625.886 732.745C636.448 738.731 646.772 741.767 656.532 741.767H658.05C694.205 740.574 735.781 693.185 753.783 659.894C797.528 578.931 800.044 519.57 761.417 478.427C737.928 453.398 700.993 438.455 662.626 438.455Z" fill="#C06E9A"/>
<path d="M763.13 488.576C778.768 537.592 761.2 598.406 736.8 640.221C720.122 668.828 696.308 694.182 663.103 702.098C636.795 708.366 608.882 703.769 585.35 691.081C597.127 705.742 611.507 718.408 628.575 728.081C637.533 733.156 647.574 736.713 657.941 736.388C690.821 735.325 731.205 690.56 749.141 657.334C776.534 606.648 802.712 538.655 763.152 488.576H763.13Z" fill="#C477A0"/>
<path d="M660.284 456.737C610.097 446.674 567.869 514.19 568.086 557.133C568.086 561.601 572.164 572.337 576.501 564.312C586.5 545.747 590.187 526.184 605.087 510.004C620.789 492.957 641.003 486.798 661.585 478.014C666.877 475.758 666.291 457.952 660.305 456.737H660.284Z" fill="#E09CBE"/>
<path d="M567.088 587.105C563.77 596.995 563.25 609.358 567.848 618.944C569.04 621.438 571.274 622.501 573.356 620.375C575.807 617.859 575.72 613.023 575.395 609.835C574.658 602.677 572.576 595.694 572.033 588.472C571.751 584.524 568.563 582.681 567.088 587.105Z" fill="#E09CBE"/>
</g>
<defs>
<clipPath id="clip0_4090_3969">
<rect width="1083.92" height="1218.11" fill="white" transform="translate(0.891357 0.349609)"/>
</clipPath>
</defs>
</svg>
