<svg width="1943" height="479" viewBox="0 0 1943 479" fill="none" xmlns="http://www.w3.org/2000/svg">
<path d="M1455.63 118.82C1489.09 98.2505 1517.33 66.4759 1555.56 57.4193C1587.79 49.7443 1622.33 59.8754 1650.42 77.5279C1698.77 108.075 1734.38 148.752 1786.88 174.54C1803 182.522 1931.79 231.336 1942.38 205.087C1924.11 250.216 1879.9 279.074 1835.23 259.58C1830.02 283.372 1812.98 313.459 1789.8 321.134C1766.62 328.809 1739.6 323.129 1721.34 306.858C1714.58 329.73 1693.25 356.899 1669.45 357.206C1645.66 357.513 1622.33 340.935 1614.96 318.217C1599.92 352.141 1547.27 372.249 1522.09 344.926C1515.19 362.886 1479.57 372.863 1460.39 371.789C1441.2 370.714 1423.7 355.978 1419.09 337.405C1395.76 343.698 1357.23 329.73 1346.33 308.24L1264.37 123.425C1335.28 135.244 1385.32 162.107 1455.63 118.82Z" fill="#F6ECF1"/>
<path d="M487.591 118.82C454.127 98.2505 425.883 66.4759 387.662 57.4193C355.427 49.7443 320.889 59.8754 292.798 77.5279C244.445 108.075 208.833 148.752 156.336 174.54C140.219 182.522 11.4314 231.336 0.839889 205.087C19.1065 250.216 63.3146 279.074 107.983 259.58C113.202 283.372 130.241 313.459 153.42 321.134C176.598 328.809 203.614 323.129 221.881 306.858C228.635 329.73 249.972 356.899 273.764 357.206C297.557 357.513 320.889 340.935 328.257 318.217C343.3 352.141 395.951 372.249 421.125 344.926C428.032 362.886 463.644 372.863 482.832 371.789C502.02 370.714 519.519 355.978 524.124 337.405C547.456 343.698 585.985 329.73 596.883 308.24L678.853 123.425C607.935 135.244 557.894 162.107 487.591 118.82Z" fill="#F6ECF1"/>
<path d="M1354.56 0.476562H590.266C582.703 0.476562 576.572 6.60746 576.572 14.1703V464.334C576.572 471.897 582.703 478.027 590.266 478.027H1354.56C1362.12 478.027 1368.25 471.897 1368.25 464.334V14.1703C1368.25 6.60746 1362.12 0.476562 1354.56 0.476562Z" fill="#F9C0C9"/>
<path d="M1368.21 14.1395L1368.21 29.462L981.583 265.098C975.891 268.556 968.762 268.556 963.069 265.098L576.443 29.462L576.443 14.1395C576.443 6.58473 582.561 0.466386 590.116 0.466363H1354.54C1362.09 0.466386 1368.21 6.58473 1368.21 14.1395Z" fill="#FF9CAE"/>
<path d="M985.041 318.036C977.699 324.101 967.059 324.101 959.77 317.982L891.191 261.108C817.824 202.425 884.328 103.149 972.06 174.92H972.698C1060.43 103.149 1126.93 202.425 1053.57 261.108L984.988 317.982L985.041 318.036Z" fill="#DC3551"/>
</svg>
