<svg width="1318" height="625" viewBox="0 0 1318 625" fill="none" xmlns="http://www.w3.org/2000/svg">
<path d="M738.392 274.534C733.016 274.534 727.967 271.113 726.257 265.657C724.139 258.978 727.804 251.811 734.564 249.694L1185.68 106.107C1192.36 103.989 1199.53 107.654 1201.65 114.414C1203.77 121.093 1200.1 128.26 1193.34 130.377L742.22 273.964C740.917 274.371 739.613 274.534 738.392 274.534Z" fill="#EBBE3B"/>
<path d="M1036.4 162.215L1148.63 213.769C1152.54 215.561 1156.94 215.805 1161.09 214.502L1311.19 166.857C1319.17 164.332 1319.91 153.256 1312.25 149.672L1215.58 105.285L1036.4 162.133V162.215Z" fill="#FED92E"/>
<path d="M1036.4 162.213L1098.54 55.1947C1100.66 51.6111 1104 48.9235 1107.91 47.6204L1254.43 1.11558C1263.79 -1.81642 1271.85 8.28269 1266.97 16.7529L1215.58 105.364L1036.4 162.213Z" fill="#EBBE3B"/>
<path d="M502.025 620.219C495.428 626.409 485.248 626.409 478.651 620.219L270.56 424.915C71.9174 245.249 251.991 -58.9463 489.402 160.872H491.193C728.604 -59.0278 908.678 245.167 710.116 424.915L502.025 620.219Z" fill="#EA3273"/>
<path d="M37.7094 508.735C32.3341 508.735 27.2846 505.233 25.5742 499.776C23.4567 493.098 27.2031 485.931 33.8816 483.813L431.901 358.877C438.579 356.76 445.746 360.506 447.864 367.185C449.981 373.863 446.235 381.03 439.556 383.148L41.5373 508.165C40.2342 508.572 39.0126 508.735 37.7094 508.735Z" fill="#EBBE3B"/>
<path d="M167.207 524.542L3.66611 511.999C0.0825555 511.755 -1.302 507.275 1.46711 504.995L127.217 400.99C131.127 397.733 136.991 401.316 135.85 406.284L122.168 467.531L171.36 515.257C174.944 518.759 172.256 524.867 167.207 524.46V524.542Z" fill="#FED92E"/>
<path d="M686.902 335.502C684.051 335.502 681.201 334.525 678.839 332.652C673.382 328.172 672.568 320.191 677.047 314.734C703.761 281.912 707.589 246.076 687.146 218.792C669.717 195.499 633.311 179.862 591.205 197.535C584.689 200.223 577.278 197.209 574.509 190.694C571.821 184.178 574.834 176.767 581.35 173.998C628.751 154.125 679.572 165.935 707.589 203.481C729.09 232.231 737.56 280.853 696.838 330.778C694.313 333.873 690.648 335.502 686.983 335.502H686.902Z" fill="#FF9EA0"/>
</svg>
