<svg width="837" height="609" viewBox="0 0 837 609" fill="none" xmlns="http://www.w3.org/2000/svg">
<g clip-path="url(#clip0_4090_5733)">
<path d="M609.867 252.11C602.107 249.125 593.352 248.131 586.388 243.753C581.414 240.769 577.833 235.994 574.848 231.02C569.874 236.79 562.91 240.968 555.151 240.968H554.952C552.763 240.968 550.773 240.769 548.784 240.57C548.784 240.57 548.585 240.57 548.386 240.57C544.407 240.172 541.422 239.973 538.04 241.565C534.458 243.355 530.678 246.738 527.096 250.12C524.908 252.11 522.719 254.1 520.531 255.89C512.174 262.456 502.027 267.032 491.481 268.823C489.293 269.221 487.303 269.42 485.115 269.818C480.339 270.415 475.763 271.012 471.784 272.802C466.412 275.19 461.835 278.573 456.861 282.154C454.872 283.547 452.683 284.939 450.693 286.531C448.306 288.123 445.918 289.516 443.332 290.908L604.096 402.728L605.091 403.325C610.264 406.906 616.631 408.896 623.794 407.901C617.825 405.513 613.249 400.141 611.856 393.774C609.866 384.821 614.642 375.867 618.621 367.511C624.789 355.175 629.962 342.441 634.339 329.508C638.916 315.58 642.696 300.658 639.513 286.332C636.13 271.012 624.789 257.88 610.264 252.11H609.867Z" fill="#FFDEB3"/>
<path d="M433.585 210.505C436.37 211.5 439.156 212.694 441.941 214.087C447.513 216.673 452.885 219.061 458.257 219.459C466.016 219.857 472.98 216.474 480.74 212.893C489.097 208.913 497.254 204.934 507.6 205.133C509.988 205.133 512.376 205.531 514.763 205.929C517.549 206.327 520.135 206.725 522.523 206.526C525.905 206.327 529.288 204.735 532.67 202.546C534.461 201.353 536.451 200.159 538.241 198.766C539.634 197.771 541.027 196.776 542.619 195.782C547.792 192.399 553.363 190.608 558.536 190.41C556.944 184.043 556.347 177.477 558.138 171.11C560.526 163.151 566.097 156.585 569.877 149.024C576.841 135.097 576.443 117.588 568.484 104.058C561.122 91.3242 548.389 82.7686 535.655 75.6059C523.717 68.841 511.182 63.071 498.448 58.0968C489.892 54.7144 480.541 51.133 475.766 43.3733C472.582 37.8022 472.383 30.6394 475.169 25.0684C468.404 29.6446 464.823 36.4095 464.027 43.5722C463.629 43.9702 463.231 44.1691 463.231 44.766L425.825 208.317C428.213 208.913 430.6 209.51 432.988 210.505C432.988 210.505 433.187 210.505 433.386 210.505H433.585Z" fill="#FFDEB3"/>
<path d="M624.785 159.149C612.847 163.726 614.438 175.863 628.167 181.633L577.829 201.131C579.022 203.32 579.818 205.708 580.415 208.493L630.953 188.994C624.586 202.524 631.749 212.472 643.687 207.896C657.216 202.723 675.919 167.506 675.919 167.506C675.919 167.506 638.314 153.976 624.785 159.149Z" fill="#FFDEB3"/>
<path d="M467.6 405.318C458.845 396.961 448.3 389.003 445.713 377.065C444.321 370.499 445.713 363.734 446.509 356.969C449.096 333.69 443.724 309.814 431.587 289.917C433.775 289.32 435.765 288.127 437.755 287.132C440.341 285.938 442.928 284.545 445.514 282.954C453.473 277.78 460.636 271.811 469.191 267.832C475.757 264.848 483.119 264.848 490.083 263.455C499.832 261.664 509.184 257.486 516.943 251.517C522.713 246.941 528.682 239.778 535.447 236.594C538.631 235.003 541.615 234.804 544.6 234.804C547.783 234.804 550.967 235.401 554.747 235.401C561.711 235.401 568.078 231.421 572.057 225.85C573.649 223.463 575.041 220.677 575.439 217.693C575.837 214.907 575.837 212.32 575.439 209.933C575.041 206.948 574.246 204.561 572.853 202.571C570.067 197.995 565.292 195.607 559.92 195.408C555.344 195.408 550.37 196.602 545.395 199.786C541.615 202.372 537.636 205.158 533.656 207.346C530.274 209.336 526.693 210.729 522.912 211.127C517.739 211.525 512.566 209.933 507.194 209.734C489.884 209.137 474.961 225.054 457.651 224.059C448.499 223.463 440.54 218.488 432.184 215.106C431.786 215.106 431.587 214.907 431.189 214.708C429 213.912 426.811 213.713 424.623 213.315C416.863 211.525 408.904 210.729 401.145 212.32C394.977 213.514 388.809 215.703 382.641 216.499C376.473 217.295 367.917 218.289 365.132 212.718C362.346 207.346 359.76 201.775 359.561 195.806C359.561 191.031 361.55 185.261 365.729 182.674C370.106 179.889 375.279 181.879 380.253 181.282C384.432 180.884 389.207 178.496 390.003 174.318C390.799 170.537 388.212 166.16 390.003 162.778C391.594 159.992 396.171 158.798 396.37 155.416C396.37 154.023 395.773 152.63 395.176 151.238C394.579 149.845 394.38 148.253 395.375 147.059C396.171 146.264 397.165 146.264 397.961 145.667C401.742 142.881 396.569 138.703 396.966 135.519C397.364 131.938 401.344 130.346 403.93 128.754C407.711 126.367 410.098 120.796 406.915 117.612C405.92 116.419 404.328 115.822 402.935 115.026C393.385 109.256 391.793 91.9457 394.181 81.9973C396.569 72.6459 397.563 62.6976 395.176 53.3462C394.579 51.3565 388.013 34.2454 384.631 35.0412C388.809 33.8474 392.589 31.8578 395.773 29.0722C396.966 27.8784 398.16 26.6847 399.155 25.2919C401.543 21.7105 401.742 16.9353 400.548 12.757C399.354 8.5787 396.768 4.9973 393.783 1.81384C392.589 0.62004 391.196 -0.374793 389.605 0.222107C390.202 3.00764 388.212 5.99214 385.824 7.58387C381.646 10.1704 373.488 11.3642 368.713 9.7725C363.739 7.9818 360.357 3.60454 355.78 1.41591C348.817 -1.96652 339.664 -0.175826 334.69 5.79317C327.726 -1.36963 314.196 -0.374792 308.625 7.78283C299.274 0.222108 282.959 4.59937 278.581 15.9405C268.235 11.1653 254.506 18.925 253.114 30.266C247.543 29.4702 241.375 32.2557 238.191 36.8319C235.008 41.6071 234.61 48.173 237.395 53.1472C232.421 52.1524 228.84 57.1265 227.845 61.9017C226.85 66.8759 228.84 71.85 231.227 76.2273C224.463 81.9973 223.269 93.1395 228.641 100.103C222.672 107.266 225.258 120 233.814 123.979C230.829 134.127 239.385 145.866 249.93 146.065C250.527 150.442 251.92 155.018 255.103 158.4C258.287 161.584 263.46 163.375 267.439 161.186C267.24 167.155 273.607 172.527 279.377 171.134C280.77 170.736 282.163 170.14 283.755 170.338C285.744 170.736 286.938 172.726 288.331 174.318C292.509 179.292 300.269 180.884 306.039 178.098C308.426 176.904 312.804 197 312.605 198.99C311.809 207.943 305.442 209.734 297.085 208.142C275.995 204.163 254.904 195.806 241.176 179.292C230.233 166.16 225.258 149.049 218.295 133.331C217.3 131.142 216.305 128.754 214.315 126.964C211.331 124.178 206.754 123.581 202.576 123.183C160.793 118.607 120.005 106.271 82.5994 87.1705C70.2635 80.8035 57.9276 73.6407 44.1989 72.049C41.2144 71.6511 38.0309 71.6511 35.6433 73.4418C32.6588 75.6304 31.664 79.8087 32.4599 83.3901C33.2557 86.9715 35.6433 90.155 38.0309 92.9405C49.173 106.271 62.9017 117.413 78.4211 125.173C71.0594 121.393 63.4986 119.204 55.341 119.005C52.5555 119.005 49.372 119.005 47.3823 120.995C42.8061 124.974 46.5865 132.535 50.5658 136.912C57.5296 144.274 65.8862 150.641 75.0387 155.217C69.2687 153.426 61.31 152.63 58.7234 158.003C56.1369 163.375 61.509 168.946 66.6821 171.93C75.8345 177.501 85.9818 181.68 96.5271 184.067C91.3539 183.072 84.5891 183.072 82.7984 188.046C81.4056 192.225 85.3849 196.204 88.9663 198.592C96.1291 203.168 104.287 205.953 112.842 207.147C107.868 205.556 102.894 211.525 103.889 216.698C104.287 219.085 105.68 221.075 107.47 222.866C111.45 223.661 115.628 224.457 119.607 225.253C121.796 225.651 124.183 226.248 126.372 226.646C180.292 236.395 235.207 238.783 235.207 238.783C235.207 238.783 180.292 238.385 125.775 230.426C123.586 230.028 121.398 229.631 119.209 229.432C110.256 228.039 101.302 226.646 92.7467 224.855C63.8966 222.269 36.6382 210.729 7.19111 215.305C5.40041 215.504 3.60971 215.902 2.21695 217.295C-0.767548 219.881 0.625218 224.855 2.61488 228.238C13.1601 246.344 35.4443 253.308 55.54 258.68C50.1679 258.481 44.1989 258.282 39.6227 261.067C35.0464 263.853 32.4599 271.016 36.2402 274.995C37.633 276.388 39.4237 277.183 41.2144 277.979C53.5503 282.755 66.8811 284.943 80.2118 284.545C76.4314 285.938 72.4521 287.53 69.6666 290.514C66.8811 293.499 65.4883 298.274 67.6769 301.656C69.0697 304.044 71.4573 305.437 74.0438 306.432C82.4004 310.013 91.9508 310.809 100.705 308.62C95.5322 309.416 93.9405 317.176 97.5219 321.155C101.103 325.134 107.072 325.731 112.245 324.537C117.419 323.543 122.393 321.155 127.566 320.16C122.393 321.951 120.801 329.114 123.785 333.69C126.571 338.266 132.54 340.256 137.912 339.858C143.284 339.46 148.258 337.271 153.233 334.884C147.065 336.873 146.269 346.424 150.845 351C155.62 355.576 162.982 355.775 169.349 354.184C175.716 352.592 181.486 349.408 187.853 347.817C185.266 352.393 182.68 358.362 186.062 362.341C188.649 365.525 193.623 365.724 197.801 364.928C207.152 363.137 216.106 358.959 223.269 352.592C219.886 357.367 220.881 364.729 225.457 368.111C236.401 362.739 246.349 354.979 254.506 345.827C253.114 350.602 257.491 355.576 262.266 356.372C267.24 357.168 272.016 354.979 275.995 352.194C281.765 348.016 286.341 342.246 289.127 335.879C288.53 339.659 288.53 343.638 289.127 347.22C297.682 349.607 304.049 342.246 309.421 335.083C311.411 340.853 314.395 347.817 318.773 351.995C312.804 356.372 308.824 362.739 305.641 369.305C299.871 381.044 296.09 394.972 301.463 406.91C303.85 412.282 306.437 418.052 308.625 423.623C289.922 435.959 277.189 456.85 274.403 478.936C259.282 467.395 243.563 457.248 223.866 458.84C218.494 459.238 213.32 460.432 207.948 459.636C202.775 459.039 200.189 459.636 196.408 455.855C197.204 456.651 198 457.646 198.796 458.641C192.23 456.253 191.832 445.509 185.067 443.917C182.083 443.32 179.297 444.713 176.512 446.106C173.129 447.897 169.747 449.886 167.359 453.07C165.568 455.457 164.773 458.442 162.783 460.631C159.997 463.814 155.819 464.809 152.039 466.202C142.09 469.783 132.739 477.344 128.76 487.292C122.393 503.01 132.341 500.822 143.085 496.047C150.248 493.062 157.61 490.675 164.972 488.884C176.114 486.297 188.251 486.894 198.597 492.067C205.163 495.251 210.933 499.827 217.101 503.806C232.023 513.755 248.935 521.713 267.041 523.504C284.948 525.494 305.442 515.744 321.757 508.78C351.204 496.047 381.049 481.124 401.543 456.452C410.297 463.217 420.047 469.186 429.995 474.16C426.215 476.349 423.628 480.129 421.041 483.711C417.46 488.685 413.879 493.858 411.889 499.628C410.098 505 409.7 510.77 408.507 516.341C406.915 524.3 407.313 533.651 401.344 539.222C392.788 546.982 371.101 557.328 388.212 570.659C392.788 574.24 398.359 575.633 403.731 577.822C409.899 580.408 415.669 583.99 420.643 588.367C425.419 592.545 428.204 599.111 432.78 603.091C440.142 609.656 456.06 609.06 460.835 599.509C461.233 598.713 461.631 597.917 461.432 596.923C461.233 593.938 457.253 593.341 454.468 592.744C446.907 591.153 440.938 583.99 440.54 576.23C440.54 573.246 441.137 570.261 440.54 567.476C439.346 560.114 431.388 553.349 434.77 546.783C435.765 544.793 437.954 543.401 439.744 542.008C462.625 526.29 482.721 500.623 492.072 474.558C494.46 467.793 496.649 460.432 496.052 453.269C495.455 446.902 493.067 440.734 490.083 435.163C484.114 423.623 476.155 413.078 466.605 404.124L467.6 405.318Z" fill="#FFDEB3"/>
</g>
<path d="M824.62 119.805C825.017 139.031 788.418 173.868 788.418 173.868C788.418 173.868 750.223 140.636 749.826 121.41C749.429 102.183 770.723 99.1236 787.235 120.402C802.347 98.4549 824.223 100.578 824.662 119.793L824.62 119.805Z" fill="#F24970"/>
<defs>
<clipPath id="clip0_4090_5733">
<rect width="675.292" height="608.241" fill="white" transform="translate(0.630859 0.197266)"/>
</clipPath>
</defs>
</svg>
