<svg width="1660" height="964" viewBox="0 0 1660 964" fill="none" xmlns="http://www.w3.org/2000/svg">
<g clip-path="url(#clip0_4090_7843)">
<path d="M621.35 418.908C757.691 335.724 902.001 351.467 1036.5 436.789C1135.33 499.469 1169.44 596.939 1201.7 714.331L1514.52 724.243C1513.45 473.911 1382.55 229.508 1181 101.621C979.452 -26.2654 714.253 -33.2622 505.416 83.9348C296.483 201.035 151.299 438.15 135.361 687.995L432.63 697.227C472.57 576.24 510.761 486.35 621.35 418.811V418.908Z" fill="#74A8E8"/>
<path d="M1181 101.621C979.452 -26.2654 714.253 -33.2622 505.416 83.9348C296.483 201.035 151.299 438.15 135.361 687.995L257.514 691.785C271.605 487.225 390.649 293.548 561.683 197.633C733.591 101.233 951.853 106.966 1117.74 212.21C1282.45 316.774 1389.74 515.795 1392.07 720.258L1514.52 724.146C1513.45 473.814 1382.55 229.411 1181 101.524V101.621Z" fill="#74A8E8"/>
<path d="M618.535 311.527C753.224 236.019 924.161 240.49 1054.09 322.994C1181.88 404.138 1265.45 557.874 1268.85 716.469L1392.07 720.356C1389.74 515.893 1282.46 316.775 1117.74 212.308C951.857 107.064 733.594 101.33 561.686 197.731C390.652 293.646 271.608 487.42 257.518 691.883L380.448 695.673C392.401 536.592 485.304 386.257 618.438 311.527H618.535Z" fill="#F9F206"/>
<path d="M617.67 439.124C733.118 363.617 891.421 350.595 1025.92 435.917C1124.75 498.597 1184.22 627.164 1207.06 747.179L1268.86 716.471C1265.46 557.876 1181.98 404.14 1054.1 322.996C924.17 240.492 753.136 236.022 618.544 311.529C485.41 386.162 392.508 536.594 380.555 695.675L432.739 697.327C472.68 576.34 509.316 510.064 617.767 439.124H617.67Z" fill="#F79184"/>
<path d="M392.114 867.002C420.587 876.428 451.004 880.899 480.546 876.137C510.089 871.375 538.562 856.41 556.443 832.407C574.323 808.404 580.251 774.877 568.201 747.473C556.151 720.068 524.471 707.338 495.026 712.78C494.734 688 479.186 663.997 456.738 653.599C434.289 643.2 407.371 649.226 388.227 665.066C361.892 611.909 301.252 577.897 242.071 583.047C182.986 588.198 129.15 632.316 112.435 689.166C81.0464 682.266 41.0089 694.802 20.3099 719.485C-0.389067 744.072 -6.02541 780.319 6.21906 810.056C18.4635 839.792 47.9086 861.56 79.8802 864.573C74.2439 896.35 90.2783 922.199 117.78 939.206C145.281 956.212 181.043 957.184 210.974 945.133C240.905 933.083 265.199 909.08 281.039 880.899C292.701 902.764 319.813 916.369 344.4 913.453C368.986 910.441 385.895 890.908 391.92 866.905L392.114 867.002Z" fill="#5CEACB"/>
<path d="M1477.59 876.904C1506.06 886.331 1536.48 890.801 1566.02 886.039C1595.56 881.18 1624.03 866.312 1641.92 842.309C1659.8 818.306 1665.72 784.779 1653.67 757.375C1641.62 729.971 1609.94 717.24 1580.5 722.682C1580.21 697.902 1564.66 673.899 1542.21 663.501C1519.76 653.103 1492.84 659.128 1473.7 674.968C1447.36 621.811 1386.73 587.799 1327.54 592.949C1268.36 598.1 1214.62 642.219 1197.91 699.068C1166.52 692.168 1126.48 704.704 1105.78 729.388C1085.08 753.974 1079.45 790.221 1091.69 819.958C1103.94 849.694 1133.38 871.462 1165.35 874.475C1159.72 906.252 1175.75 932.102 1203.25 949.108C1230.75 966.017 1266.52 967.086 1296.45 955.036C1326.38 942.986 1350.67 918.983 1366.51 890.801C1378.17 912.666 1405.29 926.271 1429.87 923.356C1454.46 920.343 1471.37 900.81 1477.39 876.807L1477.59 876.904Z" fill="#5CEACB"/>
<path d="M1129.13 114.637C1134.48 117.261 1139.53 121.051 1144.78 123.577C1150.12 126.104 1155.47 129.019 1160.52 132.226L1167.62 136.988L1169.75 138.543C1168.2 137.377 1171.31 139.709 1169.75 138.543L1173.06 141.167C1179.08 145.928 1185.59 148.163 1191.62 150.69C1194.92 152.148 1198.13 150.884 1196.48 147.192C1193.76 140.875 1189.87 133.781 1183.16 128.728C1177.82 124.744 1171.99 121.245 1166.16 118.038C1159.94 114.637 1153.52 111.819 1147.01 109.292C1140.7 106.863 1134.09 106.668 1128.06 106.182C1125.54 105.988 1123.98 107.543 1124.18 109.389C1124.37 111.43 1126.41 113.276 1128.84 114.54L1129.13 114.637Z" fill="#FFFFEE"/>
<path d="M1222.2 189.179C1226.09 191.9 1229.49 195.69 1233.28 198.411C1237.17 201.229 1240.86 204.436 1244.26 207.934C1245.91 209.586 1247.37 211.336 1248.83 213.085L1250.19 214.834C1249.32 213.571 1251.16 216 1250.19 214.834L1252.23 217.652C1255.73 222.706 1260.59 225.815 1264.86 229.314C1267.2 231.257 1270.5 230.966 1270.5 227.467C1270.5 221.442 1269.63 214.348 1265.35 208.712C1261.95 204.144 1257.87 199.966 1253.59 196.176C1249.02 192.192 1244.17 188.693 1239.01 185.778C1234.06 182.862 1228.23 182.182 1223.27 181.405C1221.13 181.113 1219.48 182.474 1219.29 184.223C1219 186.166 1220.36 188.013 1222.11 189.276L1222.2 189.179Z" fill="#FFFFEE"/>
<path d="M1292.94 264.503C1294.98 266.641 1296.44 269.556 1298.87 271.402C1301.3 273.249 1303.63 275.29 1305.77 277.427C1306.84 278.399 1307.81 279.468 1308.78 280.537C1309.07 280.829 1309.36 281.217 1309.66 281.509C1309.07 280.732 1310.34 282.189 1309.66 281.509C1310.14 282.092 1310.53 282.578 1311.02 283.161C1313.45 286.174 1317.53 286.951 1321.03 287.923C1323.07 288.506 1325.79 287.048 1325.88 284.619C1326.08 280.44 1325.98 275.873 1323.36 272.957C1321.22 270.625 1318.6 268.584 1316.07 266.544C1313.35 264.406 1310.43 262.559 1307.42 260.81C1304.51 259.061 1300.33 258.866 1296.83 258.283C1295.37 257.992 1293.52 259.158 1292.65 260.518C1291.68 262.073 1291.97 263.531 1292.94 264.6V264.503Z" fill="#FFFFEE"/>
<path d="M1165.85 194.819C1167.89 196.86 1169.45 199.581 1171.78 201.233C1174.21 202.885 1176.54 204.731 1178.68 206.772C1179.75 207.744 1180.72 208.618 1181.69 209.687C1181.98 209.979 1182.27 210.27 1182.57 210.659C1181.98 209.979 1183.25 211.339 1182.57 210.659C1183.05 211.145 1183.44 211.728 1183.93 212.214C1186.36 215.032 1190.34 215.615 1193.84 216.392C1195.78 216.781 1198.5 215.323 1198.6 212.894C1198.7 208.812 1198.6 204.342 1195.88 201.621C1193.74 199.483 1191.12 197.54 1188.59 195.791C1185.87 193.847 1182.95 192.195 1179.94 190.543C1177.03 188.988 1172.94 188.988 1169.45 188.599C1167.99 188.405 1166.24 189.571 1165.36 190.932C1164.49 192.487 1164.78 193.944 1165.75 194.916L1165.85 194.819Z" fill="#FFFFEE"/>
<path d="M1250.38 264.114C1251.74 265.474 1252.52 267.515 1254.27 268.487C1256.02 269.556 1257.67 270.722 1259.13 271.985C1259.81 272.568 1260.49 273.249 1261.17 273.929C1261.36 274.123 1261.56 274.318 1261.75 274.609C1261.36 274.123 1262.14 275.095 1261.75 274.609C1262.04 274.998 1262.34 275.289 1262.63 275.678C1264.18 277.622 1267.49 277.525 1270.3 277.719C1271.86 277.719 1274.48 276.164 1275.07 274.22C1275.94 270.916 1276.72 267.224 1274.87 265.474C1273.41 264.017 1271.66 262.851 1269.82 261.684C1267.87 260.518 1265.74 259.547 1263.4 258.672C1261.27 257.797 1257.77 258.38 1254.85 258.478C1253.69 258.478 1251.84 259.741 1250.87 261.004C1249.8 262.365 1249.8 263.531 1250.38 264.114Z" fill="#FFFFEE"/>
<path d="M1360.1 352.156C1362.24 355.557 1363.5 359.541 1365.74 362.845C1367.97 366.246 1369.82 369.842 1371.28 373.729C1371.96 375.478 1372.54 377.422 1373.12 379.268L1373.61 381.017C1373.32 379.754 1373.9 382.281 1373.61 381.017L1374.19 383.836C1375.16 388.889 1378.27 392.873 1380.7 397.052C1382.06 399.287 1385.17 400.259 1386.63 397.538C1389.16 392.873 1391.39 386.848 1389.93 380.92C1388.77 376.061 1386.92 371.397 1384.69 367.024C1382.35 362.359 1379.54 357.986 1376.33 354.002C1373.22 350.115 1368.46 347.88 1364.47 345.839C1362.82 344.964 1360.78 345.742 1359.81 347.102C1358.74 348.657 1359.13 350.503 1360.1 352.156Z" fill="#FFFFEE"/>
<path d="M1007.84 78.4958C1011.14 80.245 1014.06 82.966 1017.56 84.2294C1021.05 85.5898 1024.55 87.1447 1027.86 88.7967C1029.41 89.5742 1030.97 90.4488 1032.52 91.3234C1033.01 91.6149 1033.49 91.9064 1033.98 92.198C1033.01 91.5177 1035.05 92.781 1033.98 92.198C1034.76 92.6839 1035.44 93.1698 1036.21 93.5585C1040.29 96.0851 1045.06 95.9879 1049.33 96.1823C1051.76 96.1823 1054.09 94.1415 1053.03 91.6149C1051.28 87.2419 1048.94 82.4801 1044.67 80.0507C1041.17 78.1071 1037.48 76.5523 1033.78 75.0946C1029.8 73.5397 1025.72 72.2764 1021.64 71.1103C1017.65 70.0413 1013.09 70.7216 1008.91 70.9159C1007.16 70.9159 1005.7 72.568 1005.51 74.22C1005.21 76.0664 1006.28 77.524 1007.74 78.3986L1007.84 78.4958Z" fill="#FFFFEE"/>
<path d="M1302.66 333.106C1303.92 334.272 1304.51 336.118 1306.06 336.993C1307.71 337.867 1309.17 338.839 1310.53 340.005C1311.12 340.588 1311.8 341.074 1312.38 341.657C1312.57 341.852 1312.77 342.046 1312.86 342.24C1312.57 341.852 1313.25 342.629 1312.86 342.24C1313.16 342.532 1313.35 342.921 1313.64 343.212C1315 344.961 1318.11 344.67 1320.83 344.67C1322.39 344.67 1324.92 343.018 1325.6 341.171C1326.66 337.965 1327.54 334.563 1325.89 333.008C1324.62 331.745 1322.97 330.676 1321.22 329.802C1319.38 328.83 1317.43 328.052 1315.29 327.275C1313.25 326.595 1309.85 327.275 1307.13 327.566C1305.97 327.664 1304.22 328.927 1303.24 330.093C1302.18 331.454 1302.08 332.523 1302.66 333.106Z" fill="#FFFFEE"/>
<path d="M1374.88 663.806C1378.38 664.291 1381.49 666.138 1384.89 667.207C1388.29 668.276 1391.7 669.928 1394.61 672.163C1396.07 673.232 1397.33 674.398 1398.59 675.661L1399.66 676.925C1398.89 675.953 1400.44 677.799 1399.66 676.925C1400.25 677.605 1400.73 678.285 1401.22 679.063C1403.84 682.852 1407.83 685.282 1411.13 688.586C1412.88 690.335 1416.18 690.821 1416.96 687.711C1418.42 682.464 1418.42 675.37 1414.34 670.025C1411.03 665.749 1406.85 662.154 1402.48 659.53C1397.72 656.614 1392.57 654.671 1387.32 653.796C1382.27 652.824 1377.12 654.768 1373.23 656.614C1371.58 657.392 1371 659.433 1371.48 660.987C1371.97 662.834 1373.43 663.611 1374.98 663.903L1374.88 663.806Z" fill="#FFFFEE"/>
<path d="M1490.53 712.783C1492.76 711.714 1495.48 711.714 1497.82 710.645C1500.24 709.576 1502.87 708.993 1505.49 708.896C1506.76 708.896 1508.02 708.896 1509.28 709.09L1510.45 709.284C1509.57 709.09 1511.32 709.382 1510.45 709.284L1512.29 709.77C1515.5 710.645 1519.1 709.479 1522.79 709.09C1524.83 708.896 1527.26 706.855 1526.29 704.328C1524.83 700.15 1521.62 695.485 1516.57 694.319C1512.59 693.444 1508.41 693.444 1504.52 694.027C1500.34 694.611 1496.36 696.068 1492.76 698.012C1489.26 699.858 1487.22 703.94 1485.76 707.147C1485.08 708.507 1485.76 710.548 1486.93 711.714C1488.19 713.074 1489.46 713.172 1490.43 712.783H1490.53Z" fill="#FFFFEE"/>
<path d="M1424.45 739.024C1426.68 738.927 1428.92 739.801 1431.25 739.607C1433.58 739.315 1435.91 739.51 1438.25 739.995C1439.32 740.19 1440.38 740.579 1441.45 740.967L1442.43 741.356C1441.74 741.064 1443.11 741.647 1442.43 741.356L1443.88 742.133C1446.51 743.494 1449.91 742.716 1453.31 742.619C1455.16 742.619 1457.68 740.676 1457.29 738.343C1456.71 734.359 1455.06 729.695 1451.27 727.945C1448.16 726.585 1444.76 725.807 1441.55 725.516C1438.05 725.127 1434.46 725.516 1431.15 726.099C1427.85 726.779 1424.93 729.695 1422.7 732.027C1421.73 732.999 1421.53 735.137 1422.02 736.691C1422.5 738.441 1423.48 739.121 1424.54 739.024H1424.45Z" fill="#FFFFEE"/>
<path d="M1526.67 787.801C1528.32 788.87 1529.29 790.813 1531.14 791.785C1532.98 792.757 1534.63 794.117 1535.99 795.672C1536.67 796.353 1537.26 797.227 1537.84 798.005L1538.33 798.782C1538.04 798.199 1538.72 799.365 1538.33 798.782L1539.01 800.143C1540.08 802.475 1543.28 803.641 1546 805.293C1547.46 806.168 1550.57 806.07 1551.74 804.127C1553.78 800.823 1555.24 796.547 1553.39 793.146C1551.93 790.522 1549.79 788.19 1547.56 786.149C1545.13 784.011 1542.41 782.359 1539.49 781.096C1536.67 779.832 1532.79 780.61 1529.78 781.193C1528.51 781.484 1527.05 783.039 1526.47 784.497C1525.79 786.149 1526.08 787.218 1526.76 787.704L1526.67 787.801Z" fill="#FFFFEE"/>
<path d="M418.334 698.883C420.763 698.202 423.29 698.883 425.914 698.494C428.538 698.202 431.356 698.494 433.98 699.563C435.243 699.952 436.409 700.632 437.575 701.312L438.644 701.992C437.964 701.409 439.422 702.478 438.644 701.992C439.227 702.381 439.713 702.77 440.102 703.256C442.628 705.588 446.321 706.365 449.722 708.406C451.472 709.475 454.776 709.378 455.359 706.56C456.428 701.798 455.553 695.287 450.889 691.4C447.196 688.29 442.823 686.347 438.353 685.181C433.591 684.014 428.732 684.014 424.262 684.889C419.889 685.764 416.487 689.456 414.447 692.566C413.572 693.829 414.058 695.87 415.03 697.231C416.099 698.688 417.265 698.98 418.334 698.785V698.883Z" fill="#FFFFEE"/>
<path d="M493.939 761.474C496.077 762.446 497.729 764.39 499.867 765.459C502.102 766.528 504.143 768.083 505.892 769.929C506.766 770.804 507.447 771.775 508.127 772.747L508.71 773.719C508.321 773.039 509.099 774.399 508.71 773.719L509.487 775.371C510.751 778.286 513.958 780.035 516.581 782.465C518.039 783.825 521.149 784.311 522.509 782.076C524.744 778.383 526.299 773.039 524.064 768.666C522.218 765.167 519.691 762.155 516.776 759.628C513.666 756.907 510.168 754.866 506.572 753.506C503.074 752.145 498.701 753.214 495.396 754.186C494.036 754.575 492.87 756.421 492.676 757.976C492.384 759.725 493.064 760.794 494.036 761.28L493.939 761.474Z" fill="#FFFFEE"/>
<path d="M443.217 771.856C445.16 773.023 446.424 775.161 448.367 776.327C450.408 777.493 452.157 779.145 453.712 780.991C454.489 781.866 455.073 782.838 455.656 783.712L456.141 784.684C455.85 784.004 456.53 785.364 456.141 784.684L456.822 786.239C457.988 788.96 461.098 790.612 463.721 792.847C465.179 794.013 468.289 794.305 469.552 792.264C471.787 788.765 473.439 784.004 471.496 780.019C469.941 776.813 467.706 773.994 465.179 771.662C462.555 769.135 459.446 767.095 456.239 765.54C453.129 763.985 448.95 764.665 445.646 765.248C444.286 765.443 442.925 767.095 442.439 768.65C441.856 770.302 442.245 771.468 443.12 772.051L443.217 771.856Z" fill="#FFFFEE"/>
</g>
<defs>
<clipPath id="clip0_4090_7843">
<rect width="1660" height="962.551" fill="white" transform="translate(0 0.65625)"/>
</clipPath>
</defs>
</svg>
