<svg width="1294" height="1295" viewBox="0 0 1294 1295" fill="none" xmlns="http://www.w3.org/2000/svg">
<path d="M573.757 100.631C609.947 50.9459 684.053 50.9458 720.243 100.631L785.237 189.864C805.252 217.343 838.965 231.307 872.548 226.029L981.603 208.89C1042.33 199.347 1094.73 251.749 1085.18 312.471L1068.05 421.526C1062.77 455.11 1076.73 488.822 1104.21 508.837L1193.44 573.831C1243.13 610.021 1243.13 684.128 1193.44 720.317L1104.21 785.312C1076.73 805.327 1062.77 839.039 1068.05 872.622L1085.18 981.677C1094.73 1042.4 1042.33 1094.8 981.603 1085.26L872.548 1068.12C838.965 1062.84 805.252 1076.81 785.237 1104.28L720.243 1193.52C684.053 1243.2 609.947 1243.2 573.757 1193.52L508.763 1104.28C488.748 1076.81 455.035 1062.84 421.452 1068.12L312.397 1085.26C251.674 1094.8 199.273 1042.4 208.816 981.677L225.955 872.622C231.233 839.039 217.269 805.327 189.79 785.312L100.557 720.317C50.8716 684.128 50.8716 610.021 100.557 573.831L189.79 508.837C217.269 488.822 231.233 455.11 225.955 421.526L208.816 312.471C199.273 251.749 251.674 199.347 312.397 208.89L421.452 226.029C455.035 231.307 488.748 217.343 508.763 189.864L573.757 100.631Z" fill="#FFC2BA"/>
<path d="M431.562 531.935C434.582 530.346 437.126 529.551 439.192 529.551C440.464 529.551 441.497 529.789 442.292 530.266C443.246 530.584 444.041 530.902 444.677 531.22C445.313 531.856 445.949 532.412 446.584 532.889C447.22 532.889 448.572 534.956 450.638 539.089C452.705 543.222 455.169 548.707 458.03 555.542C460.892 562.378 463.991 570.167 467.33 578.91C470.827 587.495 474.324 596.317 477.822 605.379C485.929 626.68 494.911 650.764 504.767 677.63C504.608 676.676 504.528 675.722 504.528 674.768C504.528 673.655 504.528 672.463 504.528 671.191C504.528 663.084 505.164 653.546 506.436 642.577C507.867 631.449 509.377 620.004 510.967 608.24C512.556 596.317 513.987 584.792 515.259 573.664C516.689 562.378 517.405 552.601 517.405 544.335C517.405 537.181 518.915 532.333 521.935 529.789C524.956 527.087 528.215 525.736 531.712 525.736C534.732 525.736 537.435 526.451 539.819 527.882C542.204 529.153 543.396 530.505 543.396 531.935C543.396 562.934 542.363 591.469 540.296 617.54C538.23 643.61 535.766 666.263 532.904 685.499C530.202 704.734 527.34 719.915 524.32 731.043C521.458 742.171 519.153 748.291 517.405 749.404C515.974 750.357 514.384 750.993 512.636 751.311C511.046 751.629 509.377 751.788 507.628 751.788C505.562 751.788 503.654 751.55 501.905 751.073C500.157 750.755 498.885 750.278 498.09 749.642C496.341 748.529 494.195 746.065 491.652 742.25C489.108 738.594 486.247 734.143 483.068 728.897C480.047 723.492 476.868 717.531 473.53 711.013C470.191 704.495 466.932 697.898 463.753 691.221C456.123 675.643 448.095 658.315 439.669 639.239C439.669 656.089 439.51 671.032 439.192 684.068C439.033 697.103 438.477 708.231 437.523 717.451C436.569 726.671 435.059 733.984 432.993 739.389C430.926 744.794 428.065 748.291 424.408 749.881C422.024 750.834 419.798 751.311 417.732 751.311C413.281 751.311 410.896 749.96 410.578 747.258C409.624 741.058 409.147 732.474 409.147 721.505C409.147 711.013 409.465 699.17 410.101 685.975C410.896 672.781 411.929 659.269 413.201 645.439C414.473 631.608 415.904 618.017 417.493 604.663C419.083 591.31 420.673 579.387 422.262 568.895C423.852 558.245 425.442 549.581 427.031 542.904C428.78 536.228 430.29 532.571 431.562 531.935ZM601.338 752.265C600.861 752.583 600.305 752.901 599.669 753.219C598.715 753.696 597.205 753.934 595.138 753.934C593.231 753.934 590.926 753.457 588.223 752.504C585.68 751.55 582.818 749.563 579.639 746.542C577.89 744.953 576.539 741.694 575.585 736.766C574.631 731.997 573.837 726.035 573.201 718.882C572.565 711.728 572.167 703.7 572.008 694.798C571.849 685.896 571.77 676.676 571.77 667.138C571.77 658.077 571.77 648.936 571.77 639.716C571.929 630.337 572.008 621.355 572.008 612.771C572.008 606.253 571.849 600.451 571.531 595.364C571.373 590.118 571.134 585.269 570.816 580.818C570.498 576.208 570.18 571.757 569.862 567.465C569.703 563.014 569.624 558.324 569.624 553.396C569.624 549.581 569.783 545.925 570.101 542.427C570.578 538.771 571.452 535.592 572.724 532.889C574.154 530.028 576.221 527.802 578.923 526.213C581.626 524.464 585.282 523.59 589.892 523.59C591.959 523.59 594.343 524.225 597.046 525.497C599.748 526.61 602.292 529.551 604.676 534.32C607.061 538.93 609.048 545.845 610.638 555.065C612.386 564.126 613.261 576.526 613.261 592.264C613.261 612.135 612.625 631.608 611.353 650.685C610.081 669.761 608.73 686.85 607.299 701.952C605.551 719.597 603.564 736.368 601.338 752.265ZM694.437 743.204C686.647 743.204 679.891 741.535 674.168 738.196C668.604 735.017 663.756 730.725 659.623 725.32C655.649 719.756 652.39 713.397 649.846 706.244C647.303 698.931 645.316 691.301 643.885 683.352C642.454 675.245 641.421 667.058 640.785 658.792C640.308 650.367 640.07 642.339 640.07 634.708C640.07 627.078 640.308 619.288 640.785 611.34C641.421 603.392 642.613 595.761 644.362 588.449C646.269 580.977 648.813 573.982 651.992 567.465C655.172 560.947 659.384 555.224 664.63 550.296C670.035 545.368 676.553 541.553 684.183 538.85C691.973 535.989 701.193 534.558 711.844 534.558C720.11 534.558 726.548 535.91 731.158 538.612C735.768 541.314 739.186 544.494 741.412 548.15C743.796 551.647 745.227 555.145 745.704 558.642C746.34 561.98 746.658 564.444 746.658 566.034C746.658 567.942 746.101 569.531 744.989 570.803C744.035 572.075 742.763 573.108 741.173 573.903C739.743 574.539 738.153 575.016 736.404 575.334C734.815 575.652 733.463 575.811 732.351 575.811C729.648 575.811 727.82 574.698 726.866 572.472C725.912 570.088 724.879 567.465 723.766 564.603C722.654 561.742 720.984 559.198 718.759 556.973C716.692 554.588 713.116 553.396 708.029 553.396C704.849 553.396 702.147 555.304 699.921 559.119C697.696 562.934 695.867 568.101 694.437 574.618C693.006 580.977 691.973 588.369 691.337 596.794C690.701 605.22 690.383 614.042 690.383 623.263C690.383 635.344 690.86 647.585 691.814 659.984C692.927 672.225 694.516 683.352 696.583 693.367C698.649 703.223 701.113 711.331 703.975 717.69C706.995 723.889 710.334 726.989 713.99 726.989C717.964 726.989 720.984 726.274 723.051 724.843C725.118 723.253 726.946 721.505 728.535 719.597C730.284 717.69 732.033 716.02 733.781 714.59C735.689 713 738.391 712.205 741.889 712.205C746.34 712.205 748.565 714.192 748.565 718.166C748.565 720.392 747.532 723.015 745.466 726.035C743.399 728.897 740.14 731.599 735.689 734.143C731.397 736.686 725.833 738.832 718.997 740.581C712.162 742.33 703.975 743.204 694.437 743.204ZM861.806 639.716C852.268 643.213 843.922 645.28 836.768 645.915C829.774 646.551 824.448 646.869 820.792 646.869H818.646C819.123 656.566 819.997 665.945 821.269 675.007C822.541 683.909 824.21 691.778 826.277 698.613C828.502 705.449 831.046 710.933 833.907 715.067C836.927 719.041 840.345 721.028 844.16 721.028C849.565 721.028 853.619 720.471 856.322 719.359C859.183 718.246 861.488 717.054 863.237 715.782C864.985 714.51 866.654 713.318 868.244 712.205C869.834 711.092 872.139 710.536 875.159 710.536C878.498 710.536 880.882 711.49 882.313 713.397C883.902 715.146 884.697 717.292 884.697 719.836C884.697 723.015 883.823 725.956 882.074 728.658C879.849 731.997 876.113 734.699 870.867 736.766C865.621 738.832 857.911 739.866 847.737 739.866C835.974 739.866 825.8 738.435 817.215 735.573C808.631 732.871 801.319 729.056 795.278 724.128C789.396 719.2 784.627 713.477 780.971 706.959C777.473 700.442 774.691 693.526 772.625 686.214C770.717 678.742 769.445 671.032 768.81 663.084C768.174 655.136 767.856 647.346 767.856 639.716C767.856 634.629 768.253 627.714 769.048 618.97C769.843 610.068 771.274 600.928 773.34 591.548C775.407 582.01 778.109 573.029 781.448 564.603C784.945 556.178 789.237 549.819 794.324 545.527C794.324 542.348 794.721 540.281 795.516 539.327C796.47 538.374 798.06 537.897 800.285 537.897C812.049 537.897 823.892 538.692 835.815 540.281C847.737 541.712 860.455 543.302 873.967 545.05C878.577 545.686 881.518 546.719 882.79 548.15C884.22 549.581 885.015 551.409 885.174 553.635V553.873C885.174 556.257 884.618 558.245 883.505 559.834C882.551 561.265 881.438 562.457 880.167 563.411C878.736 564.524 877.146 565.398 875.398 566.034C872.377 567.147 868.483 568.021 863.714 568.657C859.58 569.452 854.334 570.088 847.976 570.565C841.617 571.042 833.907 571.439 824.846 571.757C822.779 578.751 821.19 586.7 820.077 595.602C819.123 604.504 818.567 613.724 818.408 623.263H819.6C823.097 623.263 826.912 623.342 831.046 623.501C835.338 623.501 839.471 623.66 843.445 623.978C847.419 624.296 850.996 624.693 854.175 625.17C857.514 625.647 860.137 626.203 862.044 626.839C863.157 627.157 863.952 627.952 864.429 629.224C865.065 630.337 865.383 631.608 865.383 633.039C865.383 634.47 865.065 635.821 864.429 637.093C863.952 638.364 863.078 639.239 861.806 639.716Z" fill="white"/>
</svg>
