<svg width="2051" height="1500" viewBox="0 0 2051 1500" fill="none" xmlns="http://www.w3.org/2000/svg">
<rect width="2051" height="1500" fill="white"/>
<path d="M1007.77 96.3316C1009.04 89.4101 1018.96 89.4101 1020.23 96.3316L1035.83 181.003C1036.44 184.325 1039.55 186.584 1042.9 186.139L1128.25 174.808C1135.22 173.881 1138.29 183.315 1132.1 186.667L1056.39 227.665C1053.42 229.273 1052.24 232.928 1053.69 235.975L1090.84 313.643C1093.88 319.992 1085.86 325.823 1080.76 320.973L1018.37 261.64C1015.92 259.312 1012.08 259.312 1009.63 261.64L947.244 320.973C942.145 325.823 934.119 319.992 937.156 313.643L974.307 235.975C975.765 232.928 974.577 229.273 971.607 227.665L895.899 186.667C889.71 183.315 892.776 173.881 899.752 174.808L985.099 186.139C988.448 186.584 991.557 184.325 992.169 181.003L1007.77 96.3316Z" fill="#EFE6E6"/>
<path d="M1302.2 377.521C1303.18 372.196 1310.82 372.196 1311.8 377.521L1323.79 442.653C1324.26 445.208 1326.66 446.945 1329.23 446.603L1394.88 437.887C1400.25 437.174 1402.61 444.431 1397.85 447.009L1339.61 478.546C1337.33 479.784 1336.41 482.595 1337.53 484.939L1366.11 544.684C1368.45 549.567 1362.27 554.053 1358.35 550.322L1310.36 504.681C1308.48 502.89 1305.52 502.89 1303.64 504.681L1255.65 550.322C1251.73 554.053 1245.55 549.567 1247.89 544.684L1276.47 484.939C1277.59 482.595 1276.67 479.784 1274.39 478.546L1216.15 447.009C1211.39 444.431 1213.75 437.174 1219.12 437.887L1284.77 446.603C1287.34 446.945 1289.74 445.208 1290.21 442.653L1302.2 377.521Z" fill="#EFE6E6"/>
<path d="M1026 1029.48L1049.66 1157.92L1179.12 1140.73L1064.28 1202.92L1120.63 1320.74L1026 1230.73L931.367 1320.74L987.72 1202.92L872.88 1140.73L1002.34 1157.92L1026 1029.48Z" fill="#FFE67C"/>
<path d="M1326.5 173.484L1336.71 228.928L1392.6 221.508L1343.02 248.354L1367.35 299.211L1326.5 260.359L1285.65 299.211L1309.98 248.354L1260.4 221.508L1316.29 228.928L1326.5 173.484Z" fill="#FFE67C"/>
<path d="M684.996 149.764C700.263 102.777 766.737 102.777 782.004 149.764L850.809 361.523C857.636 382.536 877.218 396.763 899.312 396.763H1121.97C1171.37 396.763 1191.92 459.984 1151.95 489.023L971.813 619.897C953.938 632.884 946.459 655.904 953.286 676.917L1022.09 888.676C1037.36 935.663 983.579 974.735 943.61 945.696L763.477 814.821C745.602 801.835 721.398 801.835 703.523 814.821L523.39 945.696C483.421 974.735 429.642 935.663 444.909 888.676L513.714 676.917C520.541 655.904 513.062 632.884 495.187 619.897L315.054 489.023C275.085 459.984 295.626 396.763 345.031 396.763H567.688C589.782 396.763 609.364 382.536 616.191 361.523L684.996 149.764Z" fill="#FFDB43"/>
<path d="M1460.5 434.764C1475.76 387.777 1542.24 387.777 1557.5 434.764L1608.68 592.281C1615.51 613.294 1635.09 627.521 1657.19 627.521L1822.81 627.521C1872.22 627.521 1892.76 690.741 1852.79 719.781L1718.8 817.132C1700.92 830.118 1693.44 853.138 1700.27 874.151L1751.45 1031.67C1766.72 1078.66 1712.94 1117.73 1672.97 1088.69L1538.98 991.337C1521.1 978.35 1496.9 978.35 1479.02 991.337L1345.03 1088.69C1305.06 1117.73 1251.28 1078.66 1266.55 1031.67L1317.73 874.151C1324.56 853.138 1317.08 830.118 1299.2 817.132L1165.21 719.781C1125.24 690.741 1145.78 627.521 1195.19 627.521L1360.81 627.521C1382.91 627.521 1402.49 613.294 1409.32 592.281L1460.5 434.764Z" fill="#FFDB43"/>
</svg>
