<svg width="1639" height="803" viewBox="0 0 1639 803" fill="none" xmlns="http://www.w3.org/2000/svg">
<path d="M474.656 314.099C533.914 287.092 589.111 251.726 648.497 224.702C704.531 199.188 766.139 177.954 826.763 161.182C961.377 123.959 1100.51 110.301 1239.84 108.735C1281.45 108.261 1323.06 108.862 1364.64 110.21C1407 111.594 1450.59 117.239 1492.88 114.89C1519.43 113.415 1542.38 95.6047 1545.64 68.3248C1548.51 44.0862 1533.84 13.9654 1507.16 9.39448C1466.27 2.3833 1423.86 2.45615 1382.47 1.32707C1344.44 0.289053 1306.38 -0.148008 1268.34 0.23442C1191.2 1.01749 1114.02 5.18777 1037.41 14.5846C894.653 32.1034 754.156 65.1562 624.003 127.656C555.421 160.599 482.323 200.973 433.19 260.395C408.04 290.807 438.708 330.434 474.601 314.08L474.656 314.099Z" fill="#945E80"/>
<path d="M499.367 395.997C560.082 370.575 617.246 336.538 677.87 311.298C737.456 286.495 800.465 266.736 863.347 251.384C999.674 218.095 1138.57 209.208 1279.63 212.085C1321.24 212.941 1362.82 214.835 1404.34 217.512C1446.62 220.226 1490 227.273 1532.34 226.253C1558.87 225.616 1581.93 206.331 1585.1 179.688C1588.05 154.812 1573.21 126.203 1546.62 120.758C1507.27 112.709 1465.73 111.816 1425.7 109.413C1386.55 107.063 1347.36 105.352 1308.13 104.496C1231.01 102.838 1153.76 104.568 1076.91 111.525C933.441 124.509 792.07 154.066 659.95 212.468C590.53 243.153 516.959 281.123 466.114 338.851C456.007 350.342 452.765 366.586 460.778 380.263C467.735 392.154 485.654 401.715 499.385 395.979L499.367 395.997Z" fill="#F65733"/>
<path d="M531.658 481.567C592.027 457.729 648.626 425.204 709.104 401.494C770.493 377.419 834.395 358.407 898.734 344.039C1034.19 313.772 1174.21 307.508 1315.78 313.208C1357.37 314.883 1398.91 317.596 1440.38 321.075C1482.59 324.626 1525.83 332.511 1568.17 332.329C1627.39 332.092 1642.83 240.437 1582.44 226.833C1543.36 218.019 1501.59 216.581 1461.7 213.394C1422.61 210.28 1383.45 207.785 1344.26 206.182C1267.19 203.014 1189.93 203.232 1112.97 208.659C970.813 218.711 829.041 245.008 697.322 300.606C626.245 330.599 551.253 366.693 498.387 424.439C477.408 447.349 497.622 495.007 531.64 481.567H531.658Z" fill="#B5CC57"/>
<path d="M529.724 580.2C590.093 556.362 646.693 523.837 707.171 500.127C768.56 476.052 832.462 457.04 896.801 442.671C1032.25 412.405 1172.28 406.14 1313.85 411.84C1355.44 413.516 1396.98 416.229 1438.45 419.707C1480.66 423.259 1523.89 431.144 1566.23 430.962C1625.45 430.725 1640.9 339.07 1580.51 325.466C1541.43 316.652 1499.65 315.214 1459.77 312.027C1420.67 308.913 1381.52 306.418 1342.33 304.815C1265.26 301.646 1187.99 301.865 1111.03 307.292C968.879 317.344 827.108 343.641 695.388 399.238C624.311 429.232 549.319 465.326 496.453 523.072C475.474 545.982 495.688 593.639 529.706 580.2H529.724Z" fill="#FB828D"/>
<path d="M529.724 660.438C590.093 636.6 646.693 604.075 707.171 580.365C768.56 556.29 832.462 537.278 896.801 522.91C1032.25 492.643 1172.28 486.379 1313.85 492.079C1355.44 493.754 1396.98 496.467 1438.45 499.946C1480.66 503.497 1523.89 511.382 1566.23 511.2C1625.45 510.963 1640.9 419.308 1580.51 405.705C1541.43 396.89 1499.65 395.452 1459.77 392.265C1420.67 389.151 1381.52 386.656 1342.33 385.053C1265.26 381.885 1187.99 382.103 1111.03 387.53C968.879 397.582 827.108 423.879 695.388 479.477C624.311 509.47 549.319 545.564 496.453 603.311C475.474 626.22 495.688 673.878 529.706 660.438H529.724Z" fill="#FEBE3C"/>
<path d="M356.176 86.8838L451.091 199.609C464.531 215.562 484.945 223.884 505.724 221.863L652.394 207.585C704.678 202.486 740.098 259.559 712.344 304.158L634.475 429.248C623.457 446.949 621.855 468.948 630.177 488.069L689.089 623.139C710.086 671.289 666.763 722.625 615.772 709.987L472.726 674.585C452.475 669.577 431.059 674.84 415.453 688.68L305.204 786.436C265.905 821.292 203.697 795.942 199.945 743.549L189.419 596.569C187.926 575.754 176.289 557.015 158.315 546.453L31.2764 471.807C-14.0141 445.201 -9.13354 378.203 39.5441 358.444L176.071 303.01C195.393 295.161 209.634 278.316 214.113 257.938L245.855 114.036C257.164 62.7362 322.395 46.6742 356.231 86.8656L356.176 86.8838Z" fill="#EBEAEA"/>
<path d="M342.315 433.521C350.758 421.347 347.733 404.635 335.559 396.192C323.385 387.75 306.672 390.775 298.229 402.949C289.787 415.123 292.812 431.836 304.986 440.278C317.16 448.721 333.873 445.695 342.315 433.521Z" fill="#3F1C1C"/>
<path d="M446.403 409.236C454.28 396.689 450.494 380.132 437.947 372.255C425.4 364.378 408.843 368.164 400.966 380.711C393.089 393.258 396.875 409.815 409.422 417.692C421.969 425.569 438.526 421.783 446.403 409.236Z" fill="#3F1C1C"/>
<path d="M338.037 452.122C338.657 472.864 364.17 481.004 381.525 479.401C402.012 477.489 428.582 464.232 432.752 442.16C434.391 433.51 421.68 426.462 417.419 435.695C410.48 450.738 396.822 459.624 380.323 461.773C364.443 463.831 356.685 456.456 344.338 448.498C341.68 446.786 337.928 449.008 338.019 452.122H338.037Z" fill="#3F1C1C"/>
<path d="M492.123 412.857C493.198 417.646 486.787 423.164 477.791 425.186C468.795 427.207 460.655 424.949 459.58 420.16C458.506 415.37 464.916 409.852 473.912 407.831C482.909 405.809 491.049 408.068 492.123 412.857Z" fill="#FB828D"/>
<path d="M301.201 455.691C302.276 460.48 295.866 465.998 286.869 468.02C277.891 470.041 269.733 467.783 268.659 462.994C267.584 458.204 273.994 452.686 282.991 450.665C291.968 448.643 300.127 450.902 301.201 455.691Z" fill="#FB828D"/>
</svg>
