<svg width="1629" height="706" viewBox="0 0 1629 706" fill="none" xmlns="http://www.w3.org/2000/svg">
<path d="M432.851 129.249C228.661 4.46698 15.974 205 72.8044 269.822C176.52 388.122 21.2305 348.833 0.973582 508.458C-19.2833 668.082 282.139 626.758 385.855 564.367C489.57 501.976 432.851 603.26 622.455 689.149C812.06 775.039 865.538 390.158 942.514 564.367C1019.49 738.576 1167.77 742.628 1265 626.758C1362.24 510.889 1424.63 656.738 1570.48 508.458C1716.33 360.177 1555.08 348.833 1460.28 309.94C1365.48 271.047 1454.61 129.249 1286.07 25.5333C1117.53 -78.1829 1060.81 177.055 962.771 191.64C864.728 206.225 850.953 111.423 752.91 129.249C654.866 147.076 637.04 254.032 432.851 129.249Z" fill="#86DBB7"/>
<g filter="url(#filter0_d_4239_1564)">
<mask id="path-2-outside-1_4239_1564" maskUnits="userSpaceOnUse" x="176" y="290.588" width="1267" height="191" fill="black">
<rect fill="white" x="176" y="290.588" width="1267" height="191"/>
<path d="M177.843 307.583C177.843 303.345 181.583 299.772 189.061 296.864C195.044 294.454 200.569 293.249 205.638 293.249C213.116 293.249 217.479 295.451 218.725 299.855C220.885 302.763 222.921 307.79 224.832 314.936C226.993 323.163 228.696 328.439 229.943 330.766C232.518 335.917 236.258 338.41 241.16 338.244C251.381 337.662 258.36 325.157 262.1 300.727C263.263 295.908 268.705 293.498 278.427 293.498C284.576 293.498 290.434 294.703 296.001 297.113C302.981 300.187 306.471 304.425 306.471 309.826C303.729 337.745 300.946 356.067 298.12 364.792C292.47 381.577 282.083 391.756 266.96 395.329C266.13 397.24 265.714 400.148 265.714 404.054C265.714 409.87 266.503 418.553 268.082 430.103C269.661 441.653 270.45 450.336 270.45 456.153C270.45 460.391 270.201 463.631 269.703 465.875C268.041 473.685 259.274 477.591 243.404 477.591C237.836 477.591 231.895 476.718 225.58 474.973C217.105 472.813 212.659 469.78 212.244 465.875C211.911 460.224 212.618 450.336 214.363 436.21C216.191 421.088 217.105 411.2 217.105 406.546C217.105 401.644 216.523 398.071 215.36 395.827C199.572 390.094 188.936 378.461 183.452 360.928C179.713 349.046 177.843 331.264 177.843 307.583ZM366.547 293.249C394.633 293.249 415.572 301.683 429.366 318.551C440.583 332.677 448.228 354.779 452.299 384.859C452.632 408.873 451.261 426.156 448.186 436.709C444.613 448.841 437.052 459.809 425.502 469.614C409.714 474.932 395.838 477.591 383.872 477.591C371.159 477.591 359.526 474.683 348.973 468.866C339.584 458.313 332.978 447.885 329.156 437.582C325.333 427.278 323.422 414.98 323.422 400.688C323.422 393.044 323.921 384.36 324.918 374.639C330.07 352.536 334.515 336.914 338.254 327.774C345.566 309.909 354.997 298.401 366.547 293.249ZM370.162 390.717C369.414 402.35 375.771 408.167 389.232 408.167C397.624 408.167 403.316 405.175 406.307 399.193C408.717 394.789 409.922 387.975 409.922 378.752C409.922 372.437 407.097 367.326 401.446 363.421C395.879 359.516 389.855 357.812 383.374 358.311C380.299 358.643 377.225 363.421 374.15 372.644C371.658 380.123 370.328 386.147 370.162 390.717ZM532.692 311.197C531.695 322.249 530.24 334.38 528.329 347.592C526.169 363.13 525.089 374.722 525.089 382.366C525.089 397.988 529.659 405.965 538.799 406.297C548.022 406.712 552.634 398.237 552.634 380.871C552.634 372.312 551.512 360.471 549.269 345.348C546.693 327.816 545.239 316.681 544.906 311.945C544.408 305.63 547.067 300.769 552.883 297.362C557.62 294.62 563.311 293.249 569.959 293.249C577.271 293.249 583.752 294.952 589.403 298.359C595.635 302.098 599.54 307.375 601.119 314.189C603.861 326.819 605.232 341.443 605.232 358.062C605.232 375.594 603.279 394.913 599.374 416.019C594.222 444.437 587.159 461.305 578.185 466.623C573.864 474.433 560.403 478.339 537.802 478.339C513.622 478.339 499.912 474.184 496.671 465.875C486.284 456.984 478.723 441.404 473.987 419.135C470.414 402.766 468.627 384.984 468.627 365.789C468.627 348.921 470.33 332.22 473.737 315.684C475.399 307.873 479.221 302.098 485.204 298.359C491.187 294.62 498.084 292.751 505.894 292.751C511.877 292.751 517.486 293.872 522.721 296.116C529.534 298.941 532.941 303.013 532.941 308.33C532.941 308.829 532.858 309.785 532.692 311.197ZM707.561 360.928C707.561 331.846 708.433 314.646 710.178 309.328C712.006 303.927 718.28 299.855 728.999 297.113C736.893 295.036 744.911 293.997 753.054 293.997C774.825 293.997 793.188 299.356 808.145 310.075C814.294 314.562 820.276 324.949 826.093 341.235C832.574 359.433 835.815 377.838 835.815 396.451C835.815 421.295 829.583 441.944 817.119 458.396C812.05 465.21 802.952 470.486 789.823 474.226C779.436 477.134 768.8 478.588 757.915 478.588C738.305 478.588 724.595 474.599 716.784 466.623C710.635 457.898 707.561 422.666 707.561 360.928ZM757.167 386.729C757.167 394.207 757.666 399.234 758.663 401.81C760.408 406.214 764.313 408.416 770.379 408.416C776.196 408.416 780.641 406.006 783.716 401.187C786.208 397.115 787.455 392.047 787.455 385.981C787.455 368.947 779.395 360.43 763.275 360.43C758.538 360.43 756.17 363.047 756.17 368.282C756.17 370.359 756.336 373.434 756.669 377.505C757.001 381.577 757.167 384.651 757.167 386.729ZM859.122 303.719C862.197 298.152 869.717 295.368 881.682 295.368C894.561 295.368 902.788 298.484 906.361 304.716C909.103 309.701 910.474 338.369 910.474 390.717C910.474 437.083 909.352 463.839 907.109 470.985C904.782 476.552 896.556 479.336 882.43 479.336C869.467 479.336 861.864 476.801 859.621 471.733C855.882 463.174 854.012 432.887 854.012 380.871C854.012 334.006 855.716 308.289 859.122 303.719ZM936.648 360.928C936.648 331.846 937.521 314.646 939.265 309.328C941.094 303.927 947.367 299.855 958.086 297.113C965.98 295.036 973.998 293.997 982.141 293.997C1003.91 293.997 1022.28 299.356 1037.23 310.075C1043.38 314.562 1049.36 324.949 1055.18 341.235C1061.66 359.433 1064.9 377.838 1064.9 396.451C1064.9 421.295 1058.67 441.944 1046.21 458.396C1041.14 465.21 1032.04 470.486 1018.91 474.226C1008.52 477.134 997.888 478.588 987.002 478.588C967.392 478.588 953.682 474.599 945.871 466.623C939.722 457.898 936.648 422.666 936.648 360.928ZM986.255 386.729C986.255 394.207 986.753 399.234 987.75 401.81C989.495 406.214 993.401 408.416 999.466 408.416C1005.28 408.416 1009.73 406.006 1012.8 401.187C1015.3 397.115 1016.54 392.047 1016.54 385.981C1016.54 368.947 1008.48 360.43 992.362 360.43C987.626 360.43 985.257 363.047 985.257 368.282C985.257 370.359 985.424 373.434 985.756 377.505C986.088 381.577 986.255 384.651 986.255 386.729ZM1164.99 303.719C1168.06 298.152 1175.58 295.368 1187.55 295.368C1200.43 295.368 1208.65 298.484 1212.23 304.716C1214.97 309.701 1216.34 338.369 1216.34 390.717C1216.34 437.083 1215.22 463.839 1212.97 470.985C1210.65 476.552 1202.42 479.336 1188.3 479.336C1175.33 479.336 1167.73 476.801 1165.49 471.733C1161.75 463.174 1159.88 432.887 1159.88 380.871C1159.88 334.006 1161.58 308.289 1164.99 303.719ZM1243.63 296.864C1257.76 294.288 1277.33 293 1302.34 293C1325.27 293 1345.76 294.288 1363.79 296.864C1369.77 299.606 1372.76 308.04 1372.76 322.165C1372.76 334.879 1370.31 342.523 1365.41 345.099C1362.17 349.171 1357.97 351.206 1352.82 351.206C1350.24 351.206 1346.5 350.459 1341.6 348.963C1336.7 347.384 1333.13 346.595 1330.88 346.595C1328.31 346.595 1326.44 347.55 1325.27 349.461C1324.61 350.459 1324.28 352.744 1324.28 356.317C1324.28 367.202 1325.65 383.53 1328.39 405.3C1331.21 427.07 1332.63 443.398 1332.63 454.283C1332.63 463.507 1331.63 468.866 1329.64 470.362C1322.99 475.513 1313.52 478.089 1301.22 478.089C1289.5 478.089 1282.11 474.766 1279.03 468.118C1277.2 466.29 1276.29 461.263 1276.29 453.037C1276.29 442.318 1277.95 426.281 1281.28 404.926C1284.6 383.571 1286.26 367.534 1286.26 356.815C1286.26 353.408 1285.89 351.456 1285.14 350.957C1283.98 348.381 1281.86 347.093 1278.78 347.093C1276.46 347.093 1272.55 347.841 1267.07 349.337C1261.67 350.749 1257.51 351.456 1254.6 351.456C1250.53 351.456 1246.88 350.625 1243.63 348.963C1237.98 346.055 1235.16 337.455 1235.16 323.163C1235.16 309.037 1237.98 300.27 1243.63 296.864ZM1391.33 304.716C1395.07 296.573 1403.26 292.501 1415.89 292.501C1421.29 292.501 1426.23 293.54 1430.72 295.617C1436.29 298.276 1439.32 302.015 1439.82 306.835C1440.9 308.663 1441.44 312.568 1441.44 318.551C1441.44 328.938 1439.98 344.268 1437.08 364.543C1433.83 386.978 1430.55 401.561 1427.23 408.291C1423.91 415.022 1419.71 418.387 1414.64 418.387C1409.65 418.387 1405.5 414.648 1402.18 407.17C1398.85 399.608 1395.78 385.399 1392.95 364.543C1390.38 345.93 1389.09 331.098 1389.09 320.047C1389.09 311.903 1389.84 306.793 1391.33 304.716ZM1390.09 453.037C1391.08 438.08 1399.93 430.685 1416.63 430.851C1422.95 431.017 1427.64 432.471 1430.72 435.213C1433.79 437.955 1436.08 442.359 1437.57 448.425C1438.07 450.669 1438.32 452.829 1438.32 454.906C1438.32 462.219 1435.87 467.91 1430.97 471.982C1426.15 476.054 1420 478.089 1412.52 478.089C1405.87 478.089 1400.35 475.597 1395.94 470.611C1391.54 465.542 1389.59 459.684 1390.09 453.037Z"/>
</mask>
<path d="M177.843 307.583C177.843 303.345 181.583 299.772 189.061 296.864C195.044 294.454 200.569 293.249 205.638 293.249C213.116 293.249 217.479 295.451 218.725 299.855C220.885 302.763 222.921 307.79 224.832 314.936C226.993 323.163 228.696 328.439 229.943 330.766C232.518 335.917 236.258 338.41 241.16 338.244C251.381 337.662 258.36 325.157 262.1 300.727C263.263 295.908 268.705 293.498 278.427 293.498C284.576 293.498 290.434 294.703 296.001 297.113C302.981 300.187 306.471 304.425 306.471 309.826C303.729 337.745 300.946 356.067 298.12 364.792C292.47 381.577 282.083 391.756 266.96 395.329C266.13 397.24 265.714 400.148 265.714 404.054C265.714 409.87 266.503 418.553 268.082 430.103C269.661 441.653 270.45 450.336 270.45 456.153C270.45 460.391 270.201 463.631 269.703 465.875C268.041 473.685 259.274 477.591 243.404 477.591C237.836 477.591 231.895 476.718 225.58 474.973C217.105 472.813 212.659 469.78 212.244 465.875C211.911 460.224 212.618 450.336 214.363 436.21C216.191 421.088 217.105 411.2 217.105 406.546C217.105 401.644 216.523 398.071 215.36 395.827C199.572 390.094 188.936 378.461 183.452 360.928C179.713 349.046 177.843 331.264 177.843 307.583ZM366.547 293.249C394.633 293.249 415.572 301.683 429.366 318.551C440.583 332.677 448.228 354.779 452.299 384.859C452.632 408.873 451.261 426.156 448.186 436.709C444.613 448.841 437.052 459.809 425.502 469.614C409.714 474.932 395.838 477.591 383.872 477.591C371.159 477.591 359.526 474.683 348.973 468.866C339.584 458.313 332.978 447.885 329.156 437.582C325.333 427.278 323.422 414.98 323.422 400.688C323.422 393.044 323.921 384.36 324.918 374.639C330.07 352.536 334.515 336.914 338.254 327.774C345.566 309.909 354.997 298.401 366.547 293.249ZM370.162 390.717C369.414 402.35 375.771 408.167 389.232 408.167C397.624 408.167 403.316 405.175 406.307 399.193C408.717 394.789 409.922 387.975 409.922 378.752C409.922 372.437 407.097 367.326 401.446 363.421C395.879 359.516 389.855 357.812 383.374 358.311C380.299 358.643 377.225 363.421 374.15 372.644C371.658 380.123 370.328 386.147 370.162 390.717ZM532.692 311.197C531.695 322.249 530.24 334.38 528.329 347.592C526.169 363.13 525.089 374.722 525.089 382.366C525.089 397.988 529.659 405.965 538.799 406.297C548.022 406.712 552.634 398.237 552.634 380.871C552.634 372.312 551.512 360.471 549.269 345.348C546.693 327.816 545.239 316.681 544.906 311.945C544.408 305.63 547.067 300.769 552.883 297.362C557.62 294.62 563.311 293.249 569.959 293.249C577.271 293.249 583.752 294.952 589.403 298.359C595.635 302.098 599.54 307.375 601.119 314.189C603.861 326.819 605.232 341.443 605.232 358.062C605.232 375.594 603.279 394.913 599.374 416.019C594.222 444.437 587.159 461.305 578.185 466.623C573.864 474.433 560.403 478.339 537.802 478.339C513.622 478.339 499.912 474.184 496.671 465.875C486.284 456.984 478.723 441.404 473.987 419.135C470.414 402.766 468.627 384.984 468.627 365.789C468.627 348.921 470.33 332.22 473.737 315.684C475.399 307.873 479.221 302.098 485.204 298.359C491.187 294.62 498.084 292.751 505.894 292.751C511.877 292.751 517.486 293.872 522.721 296.116C529.534 298.941 532.941 303.013 532.941 308.33C532.941 308.829 532.858 309.785 532.692 311.197ZM707.561 360.928C707.561 331.846 708.433 314.646 710.178 309.328C712.006 303.927 718.28 299.855 728.999 297.113C736.893 295.036 744.911 293.997 753.054 293.997C774.825 293.997 793.188 299.356 808.145 310.075C814.294 314.562 820.276 324.949 826.093 341.235C832.574 359.433 835.815 377.838 835.815 396.451C835.815 421.295 829.583 441.944 817.119 458.396C812.05 465.21 802.952 470.486 789.823 474.226C779.436 477.134 768.8 478.588 757.915 478.588C738.305 478.588 724.595 474.599 716.784 466.623C710.635 457.898 707.561 422.666 707.561 360.928ZM757.167 386.729C757.167 394.207 757.666 399.234 758.663 401.81C760.408 406.214 764.313 408.416 770.379 408.416C776.196 408.416 780.641 406.006 783.716 401.187C786.208 397.115 787.455 392.047 787.455 385.981C787.455 368.947 779.395 360.43 763.275 360.43C758.538 360.43 756.17 363.047 756.17 368.282C756.17 370.359 756.336 373.434 756.669 377.505C757.001 381.577 757.167 384.651 757.167 386.729ZM859.122 303.719C862.197 298.152 869.717 295.368 881.682 295.368C894.561 295.368 902.788 298.484 906.361 304.716C909.103 309.701 910.474 338.369 910.474 390.717C910.474 437.083 909.352 463.839 907.109 470.985C904.782 476.552 896.556 479.336 882.43 479.336C869.467 479.336 861.864 476.801 859.621 471.733C855.882 463.174 854.012 432.887 854.012 380.871C854.012 334.006 855.716 308.289 859.122 303.719ZM936.648 360.928C936.648 331.846 937.521 314.646 939.265 309.328C941.094 303.927 947.367 299.855 958.086 297.113C965.98 295.036 973.998 293.997 982.141 293.997C1003.91 293.997 1022.28 299.356 1037.23 310.075C1043.38 314.562 1049.36 324.949 1055.18 341.235C1061.66 359.433 1064.9 377.838 1064.9 396.451C1064.9 421.295 1058.67 441.944 1046.21 458.396C1041.14 465.21 1032.04 470.486 1018.91 474.226C1008.52 477.134 997.888 478.588 987.002 478.588C967.392 478.588 953.682 474.599 945.871 466.623C939.722 457.898 936.648 422.666 936.648 360.928ZM986.255 386.729C986.255 394.207 986.753 399.234 987.75 401.81C989.495 406.214 993.401 408.416 999.466 408.416C1005.28 408.416 1009.73 406.006 1012.8 401.187C1015.3 397.115 1016.54 392.047 1016.54 385.981C1016.54 368.947 1008.48 360.43 992.362 360.43C987.626 360.43 985.257 363.047 985.257 368.282C985.257 370.359 985.424 373.434 985.756 377.505C986.088 381.577 986.255 384.651 986.255 386.729ZM1164.99 303.719C1168.06 298.152 1175.58 295.368 1187.55 295.368C1200.43 295.368 1208.65 298.484 1212.23 304.716C1214.97 309.701 1216.34 338.369 1216.34 390.717C1216.34 437.083 1215.22 463.839 1212.97 470.985C1210.65 476.552 1202.42 479.336 1188.3 479.336C1175.33 479.336 1167.73 476.801 1165.49 471.733C1161.75 463.174 1159.88 432.887 1159.88 380.871C1159.88 334.006 1161.58 308.289 1164.99 303.719ZM1243.63 296.864C1257.76 294.288 1277.33 293 1302.34 293C1325.27 293 1345.76 294.288 1363.79 296.864C1369.77 299.606 1372.76 308.04 1372.76 322.165C1372.76 334.879 1370.31 342.523 1365.41 345.099C1362.17 349.171 1357.97 351.206 1352.82 351.206C1350.24 351.206 1346.5 350.459 1341.6 348.963C1336.7 347.384 1333.13 346.595 1330.88 346.595C1328.31 346.595 1326.44 347.55 1325.27 349.461C1324.61 350.459 1324.28 352.744 1324.28 356.317C1324.28 367.202 1325.65 383.53 1328.39 405.3C1331.21 427.07 1332.63 443.398 1332.63 454.283C1332.63 463.507 1331.63 468.866 1329.64 470.362C1322.99 475.513 1313.52 478.089 1301.22 478.089C1289.5 478.089 1282.11 474.766 1279.03 468.118C1277.2 466.29 1276.29 461.263 1276.29 453.037C1276.29 442.318 1277.95 426.281 1281.28 404.926C1284.6 383.571 1286.26 367.534 1286.26 356.815C1286.26 353.408 1285.89 351.456 1285.14 350.957C1283.98 348.381 1281.86 347.093 1278.78 347.093C1276.46 347.093 1272.55 347.841 1267.07 349.337C1261.67 350.749 1257.51 351.456 1254.6 351.456C1250.53 351.456 1246.88 350.625 1243.63 348.963C1237.98 346.055 1235.16 337.455 1235.16 323.163C1235.16 309.037 1237.98 300.27 1243.63 296.864ZM1391.33 304.716C1395.07 296.573 1403.26 292.501 1415.89 292.501C1421.29 292.501 1426.23 293.54 1430.72 295.617C1436.29 298.276 1439.32 302.015 1439.82 306.835C1440.9 308.663 1441.44 312.568 1441.44 318.551C1441.44 328.938 1439.98 344.268 1437.08 364.543C1433.83 386.978 1430.55 401.561 1427.23 408.291C1423.91 415.022 1419.71 418.387 1414.64 418.387C1409.65 418.387 1405.5 414.648 1402.18 407.17C1398.85 399.608 1395.78 385.399 1392.95 364.543C1390.38 345.93 1389.09 331.098 1389.09 320.047C1389.09 311.903 1389.84 306.793 1391.33 304.716ZM1390.09 453.037C1391.08 438.08 1399.93 430.685 1416.63 430.851C1422.95 431.017 1427.64 432.471 1430.72 435.213C1433.79 437.955 1436.08 442.359 1437.57 448.425C1438.07 450.669 1438.32 452.829 1438.32 454.906C1438.32 462.219 1435.87 467.91 1430.97 471.982C1426.15 476.054 1420 478.089 1412.52 478.089C1405.87 478.089 1400.35 475.597 1395.94 470.611C1391.54 465.542 1389.59 459.684 1390.09 453.037Z" fill="white"/>
<path d="M189.061 296.864L189.597 298.241L189.605 298.238L189.613 298.234L189.061 296.864ZM218.725 299.855L217.303 300.257L217.377 300.518L217.539 300.736L218.725 299.855ZM224.832 314.936L226.262 314.561L226.26 314.555L224.832 314.936ZM229.943 330.766L231.264 330.105L231.255 330.086L231.245 330.068L229.943 330.766ZM241.16 338.244L241.21 339.721L241.227 339.72L241.244 339.719L241.16 338.244ZM262.1 300.727L260.663 300.381L260.648 300.442L260.639 300.504L262.1 300.727ZM296.001 297.113L296.597 295.76L296.589 295.757L296.001 297.113ZM306.471 309.826L307.942 309.971L307.949 309.899V309.826H306.471ZM298.12 364.792L299.521 365.264L299.524 365.256L299.526 365.247L298.12 364.792ZM266.96 395.329L266.621 393.89L265.9 394.061L265.605 394.74L266.96 395.329ZM269.703 465.875L268.26 465.554L268.257 465.567L269.703 465.875ZM225.58 474.973L225.974 473.549L225.96 473.545L225.945 473.541L225.58 474.973ZM212.244 465.875L210.768 465.961L210.771 465.996L210.774 466.031L212.244 465.875ZM214.363 436.21L215.829 436.392L215.83 436.388L214.363 436.21ZM215.36 395.827L216.672 395.147L216.406 394.635L215.864 394.438L215.36 395.827ZM183.452 360.928L184.863 360.487L184.862 360.485L183.452 360.928ZM179.321 307.583C179.321 305.954 180.022 304.367 181.669 302.793C183.343 301.193 185.949 299.66 189.597 298.241L188.525 295.486C184.694 296.976 181.692 298.683 179.627 300.656C177.534 302.656 176.365 304.974 176.365 307.583H179.321ZM189.613 298.234C195.466 295.877 200.802 294.727 205.638 294.727V291.771C200.336 291.771 194.621 293.031 188.509 295.493L189.613 298.234ZM205.638 294.727C209.257 294.727 211.959 295.264 213.853 296.22C215.693 297.149 216.801 298.483 217.303 300.257L220.147 299.453C219.403 296.823 217.707 294.854 215.184 293.581C212.716 292.335 209.497 291.771 205.638 291.771V294.727ZM217.539 300.736C219.523 303.408 221.502 308.204 223.405 315.318L226.26 314.555C224.34 307.377 222.248 302.119 219.911 298.974L217.539 300.736ZM223.403 315.312C225.553 323.5 227.296 328.955 228.64 331.463L231.245 330.068C230.096 327.923 228.432 322.825 226.262 314.561L223.403 315.312ZM228.621 331.426C229.992 334.169 231.723 336.305 233.859 337.729C236.009 339.162 238.48 339.813 241.21 339.721L241.11 336.767C238.938 336.841 237.088 336.329 235.499 335.269C233.895 334.2 232.469 332.514 231.264 330.105L228.621 331.426ZM241.244 339.719C247.047 339.389 251.722 335.65 255.351 329.149C258.967 322.669 261.681 313.232 263.56 300.951L260.639 300.504C258.779 312.652 256.133 321.682 252.77 327.708C249.418 333.713 245.494 336.517 241.076 336.768L241.244 339.719ZM263.536 301.074C263.988 299.203 265.257 297.717 267.652 296.657C270.103 295.572 273.658 294.976 278.427 294.976V292.021C273.475 292.021 269.448 292.63 266.456 293.954C263.408 295.304 261.375 297.432 260.663 300.381L263.536 301.074ZM278.427 294.976C284.377 294.976 290.035 296.141 295.414 298.469L296.589 295.757C290.833 293.266 284.775 292.021 278.427 292.021V294.976ZM295.406 298.465C302.108 301.418 304.993 305.249 304.993 309.826H307.949C307.949 303.601 303.854 298.957 296.597 295.76L295.406 298.465ZM305 309.682C302.255 337.631 299.482 355.79 296.714 364.337L299.526 365.247C302.409 356.345 305.203 337.86 307.942 309.971L305 309.682ZM296.72 364.321C291.205 380.701 281.17 390.453 266.621 393.89L267.3 396.767C282.997 393.058 293.735 382.452 299.521 365.264L296.72 364.321ZM265.605 394.74C264.65 396.935 264.236 400.092 264.236 404.054H267.192C267.192 400.205 267.609 397.544 268.316 395.918L265.605 394.74ZM264.236 404.054C264.236 409.974 265.037 418.739 266.618 430.303L269.547 429.903C267.97 418.368 267.192 409.766 267.192 404.054H264.236ZM266.618 430.303C268.195 441.839 268.973 450.441 268.973 456.153H271.928C271.928 450.232 271.127 441.467 269.547 429.903L266.618 430.303ZM268.973 456.153C268.973 460.357 268.723 463.469 268.26 465.554L271.145 466.195C271.679 463.793 271.928 460.424 271.928 456.153H268.973ZM268.257 465.567C267.545 468.914 265.33 471.508 261.28 473.312C257.171 475.143 251.25 476.113 243.404 476.113V479.069C251.428 479.069 257.826 478.086 262.483 476.012C267.199 473.91 270.198 470.646 271.148 466.182L268.257 465.567ZM243.404 476.113C237.99 476.113 232.183 475.264 225.974 473.549L225.187 476.398C231.608 478.172 237.682 479.069 243.404 479.069V476.113ZM225.945 473.541C221.784 472.48 218.742 471.235 216.722 469.858C214.718 468.49 213.86 467.097 213.713 465.718L210.774 466.031C211.043 468.558 212.615 470.633 215.057 472.299C217.483 473.954 220.901 475.306 225.215 476.405L225.945 473.541ZM213.719 465.788C213.396 460.288 214.084 450.522 215.829 436.392L212.896 436.029C211.152 450.15 210.427 460.161 210.768 465.961L213.719 465.788ZM215.83 436.388C217.655 421.286 218.583 411.305 218.583 406.546H215.627C215.627 411.094 214.726 420.89 212.895 436.033L215.83 436.388ZM218.583 406.546C218.583 401.59 218.005 397.718 216.672 395.147L214.048 396.508C215.041 398.423 215.627 401.698 215.627 406.546H218.583ZM215.864 394.438C200.555 388.878 190.224 377.627 184.863 360.487L182.042 361.369C187.649 379.295 198.59 391.309 214.855 397.216L215.864 394.438ZM184.862 360.485C181.192 348.822 179.321 331.223 179.321 307.583H176.365C176.365 331.305 178.234 349.27 182.042 361.372L184.862 360.485ZM366.547 293.249V291.771H366.233L365.945 291.899L366.547 293.249ZM429.366 318.551L430.523 317.632L430.516 317.624L430.51 317.615L429.366 318.551ZM452.299 384.859L453.777 384.839L453.776 384.749L453.764 384.661L452.299 384.859ZM448.186 436.709L449.604 437.127L449.605 437.122L448.186 436.709ZM425.502 469.614L425.974 471.014L426.242 470.924L426.458 470.74L425.502 469.614ZM348.973 468.866L347.869 469.848L348.038 470.038L348.26 470.16L348.973 468.866ZM329.156 437.582L327.77 438.096L329.156 437.582ZM324.918 374.639L323.479 374.303L323.457 374.395L323.448 374.488L324.918 374.639ZM338.254 327.774L336.886 327.214L336.886 327.215L338.254 327.774ZM370.162 390.717L371.637 390.812L371.638 390.791L371.639 390.771L370.162 390.717ZM406.307 399.193L405.011 398.483L404.998 398.507L404.986 398.532L406.307 399.193ZM401.446 363.421L400.598 364.631L400.606 364.637L401.446 363.421ZM383.374 358.311L383.26 356.837L383.238 356.839L383.215 356.842L383.374 358.311ZM374.15 372.644L372.748 372.177L374.15 372.644ZM366.547 294.727C394.328 294.727 414.786 303.056 428.222 319.486L430.51 317.615C416.358 300.31 394.938 291.771 366.547 291.771V294.727ZM428.208 319.47C439.183 333.29 446.777 355.082 450.835 385.057L453.764 384.661C449.678 354.477 441.983 332.063 430.523 317.632L428.208 319.47ZM450.822 384.88C451.154 408.878 449.775 425.97 446.767 436.296L449.605 437.122C452.746 426.342 454.11 408.868 453.777 384.839L450.822 384.88ZM446.769 436.292C443.292 448.096 435.92 458.831 424.545 468.487L426.458 470.74C438.184 460.787 445.935 449.585 449.604 437.127L446.769 436.292ZM425.03 468.213C409.339 473.499 395.628 476.113 383.872 476.113V479.069C396.047 479.069 410.089 476.365 425.974 471.014L425.03 468.213ZM383.872 476.113C371.394 476.113 360.009 473.261 349.687 467.572L348.26 470.16C359.043 476.104 370.924 479.069 383.872 479.069V476.113ZM350.077 467.884C340.777 457.431 334.284 447.157 330.541 437.068L327.77 438.096C331.671 448.613 338.391 459.196 347.869 469.848L350.077 467.884ZM330.541 437.068C326.795 426.97 324.9 414.855 324.9 400.688H321.944C321.944 415.106 323.871 427.586 327.77 438.096L330.541 437.068ZM324.9 400.688C324.9 393.106 325.395 384.474 326.388 374.789L323.448 374.488C322.447 384.247 321.944 392.982 321.944 400.688H324.9ZM326.357 374.974C331.508 352.875 335.932 337.355 339.622 328.334L336.886 327.215C333.099 336.474 328.631 352.196 323.479 374.303L326.357 374.974ZM339.622 328.334C346.864 310.64 356.091 299.531 367.149 294.599L365.945 291.899C353.903 297.271 344.269 309.178 336.886 327.214L339.622 328.334ZM368.687 390.622C368.295 396.718 369.755 401.586 373.371 404.895C376.94 408.16 382.331 409.644 389.232 409.644V406.689C382.671 406.689 378.154 405.265 375.366 402.714C372.625 400.206 371.281 396.35 371.637 390.812L368.687 390.622ZM389.232 409.644C398.013 409.644 404.319 406.473 407.629 399.854L404.986 398.532C402.313 403.878 397.235 406.689 389.232 406.689V409.644ZM407.604 399.902C410.195 395.166 411.4 388.047 411.4 378.752H408.444C408.444 387.903 407.239 394.411 405.011 398.483L407.604 399.902ZM411.4 378.752C411.4 371.903 408.295 366.358 402.287 362.205L400.606 364.637C405.898 368.295 408.444 372.97 408.444 378.752H411.4ZM402.295 362.211C396.461 358.119 390.1 356.311 383.26 356.837L383.487 359.784C389.61 359.313 395.297 360.912 400.598 364.631L402.295 362.211ZM383.215 356.842C380.975 357.084 379.109 358.873 377.519 361.344C375.885 363.884 374.301 367.519 372.748 372.177L375.552 373.112C377.074 368.547 378.565 365.181 380.005 362.943C381.49 360.636 382.698 359.87 383.533 359.78L383.215 356.842ZM372.748 372.177C370.238 379.707 368.859 385.887 368.685 390.663L371.639 390.771C371.797 386.407 373.077 380.538 375.552 373.112L372.748 372.177ZM532.692 311.197L531.224 311.024L531.222 311.044L531.22 311.064L532.692 311.197ZM528.329 347.592L526.867 347.38L526.866 347.388L528.329 347.592ZM538.799 406.297L538.866 404.821L538.853 404.82L538.799 406.297ZM549.269 345.348L547.807 345.563L547.807 345.565L549.269 345.348ZM544.906 311.945L546.381 311.842L546.38 311.829L544.906 311.945ZM552.883 297.362L552.143 296.083L552.136 296.087L552.883 297.362ZM589.403 298.359L588.64 299.625L588.642 299.627L589.403 298.359ZM601.119 314.189L602.563 313.875L602.561 313.865L602.558 313.855L601.119 314.189ZM599.374 416.019L597.921 415.75L597.92 415.755L599.374 416.019ZM578.185 466.623L577.432 465.351L577.086 465.556L576.892 465.907L578.185 466.623ZM496.671 465.875L498.048 465.338L497.913 464.993L497.632 464.752L496.671 465.875ZM473.987 419.135L475.432 418.827L475.43 418.82L473.987 419.135ZM473.737 315.684L472.292 315.377L472.29 315.386L473.737 315.684ZM522.721 296.116L522.138 297.474L522.146 297.478L522.155 297.481L522.721 296.116ZM531.22 311.064C530.226 322.085 528.775 334.19 526.867 347.38L529.792 347.803C531.706 334.571 533.164 322.412 534.164 311.33L531.22 311.064ZM526.866 347.388C524.703 362.939 523.611 374.615 523.611 382.366H526.567C526.567 374.829 527.634 363.321 529.793 347.795L526.866 347.388ZM523.611 382.366C523.611 390.276 524.76 396.482 527.234 400.8C529.771 405.228 533.662 407.589 538.745 407.774L538.853 404.82C534.796 404.673 531.831 402.879 529.799 399.33C527.702 395.672 526.567 390.078 526.567 382.366H523.611ZM538.733 407.773C541.278 407.888 543.585 407.39 545.596 406.219C547.602 405.05 549.218 403.266 550.473 400.958C552.958 396.393 554.112 389.632 554.112 380.871H551.156C551.156 389.475 550.005 395.636 547.877 399.546C546.827 401.476 545.56 402.819 544.108 403.665C542.66 404.508 540.932 404.914 538.866 404.821L538.733 407.773ZM554.112 380.871C554.112 372.204 552.978 360.28 550.731 345.131L547.807 345.565C550.047 360.663 551.156 372.42 551.156 380.871H554.112ZM550.731 345.134C548.152 327.583 546.708 316.51 546.381 311.842L543.432 312.048C543.769 316.853 545.233 328.049 547.807 345.563L550.731 345.134ZM546.38 311.829C546.15 308.915 546.651 306.416 547.823 304.272C548.999 302.123 550.903 300.235 553.63 298.637L552.136 296.087C549.047 297.896 546.713 300.142 545.23 302.854C543.744 305.571 543.165 308.659 543.433 312.061L546.38 311.829ZM553.624 298.641C558.091 296.055 563.516 294.727 569.959 294.727V291.771C563.107 291.771 557.148 293.186 552.143 296.083L553.624 298.641ZM569.959 294.727C577.032 294.727 583.244 296.372 588.64 299.625L590.166 297.094C584.261 293.533 577.51 291.771 569.959 291.771V294.727ZM588.642 299.627C594.546 303.169 598.195 308.116 599.679 314.522L602.558 313.855C600.885 306.634 596.724 301.028 590.163 297.092L588.642 299.627ZM599.675 314.502C602.389 327.005 603.754 341.52 603.754 358.062H606.71C606.71 341.366 605.333 326.632 602.563 313.875L599.675 314.502ZM603.754 358.062C603.754 375.487 601.813 394.714 597.921 415.75L600.827 416.288C604.745 395.112 606.71 375.702 606.71 358.062H603.754ZM597.92 415.755C595.353 429.912 592.323 441.117 588.85 449.412C585.359 457.749 581.506 462.936 577.432 465.351L578.939 467.894C583.838 464.991 588.004 459.085 591.576 450.554C595.165 441.981 598.243 430.544 600.828 416.283L597.92 415.755ZM576.892 465.907C575.004 469.319 571 472.086 564.437 473.99C557.896 475.888 549.037 476.861 537.802 476.861V479.816C549.168 479.816 558.34 478.837 565.26 476.829C572.159 474.828 577.045 471.737 579.478 467.338L576.892 465.907ZM537.802 476.861C525.772 476.861 516.466 475.824 509.813 473.808C503.129 471.783 499.424 468.867 498.048 465.338L495.294 466.412C497.158 471.191 501.929 474.508 508.956 476.637C516.013 478.776 525.652 479.816 537.802 479.816V476.861ZM497.632 464.752C487.609 456.172 480.142 440.972 475.432 418.827L472.541 419.442C477.304 441.836 484.96 457.796 495.71 466.997L497.632 464.752ZM475.43 418.82C471.883 402.568 470.105 384.893 470.105 365.789H467.149C467.149 385.075 468.944 402.964 472.543 419.45L475.43 418.82ZM470.105 365.789C470.105 349.022 471.798 332.42 475.185 315.982L472.29 315.386C468.863 332.019 467.149 348.821 467.149 365.789H470.105ZM475.183 315.992C476.773 308.516 480.391 303.11 485.987 299.613L484.421 297.106C478.052 301.087 474.025 307.231 472.292 315.377L475.183 315.992ZM485.987 299.613C491.711 296.036 498.33 294.228 505.894 294.228V291.273C497.837 291.273 490.663 293.205 484.421 297.106L485.987 299.613ZM505.894 294.228C511.687 294.228 517.097 295.313 522.138 297.474L523.303 294.757C517.875 292.431 512.067 291.273 505.894 291.273V294.228ZM522.155 297.481C528.671 300.183 531.463 303.845 531.463 308.33H534.419C534.419 302.18 530.398 297.699 523.287 294.751L522.155 297.481ZM531.463 308.33C531.463 308.729 531.391 309.601 531.224 311.024L534.159 311.37C534.324 309.968 534.419 308.929 534.419 308.33H531.463ZM710.178 309.328L708.778 308.854L708.774 308.867L710.178 309.328ZM728.999 297.113L729.365 298.545L729.375 298.542L728.999 297.113ZM808.145 310.075L809.016 308.882L809.006 308.874L808.145 310.075ZM826.093 341.235L827.485 340.739L827.485 340.738L826.093 341.235ZM817.119 458.396L815.941 457.504L815.933 457.514L817.119 458.396ZM789.823 474.226L790.221 475.649L790.228 475.647L789.823 474.226ZM716.784 466.623L715.576 467.474L715.645 467.571L715.728 467.656L716.784 466.623ZM758.663 401.81L757.285 402.344L757.289 402.354L758.663 401.81ZM783.716 401.187L784.961 401.982L784.969 401.97L784.976 401.958L783.716 401.187ZM709.039 360.928C709.039 346.398 709.257 334.855 709.691 326.291C710.129 317.653 710.782 312.227 711.582 309.788L708.774 308.867C707.829 311.747 707.174 317.58 706.739 326.141C706.301 334.778 706.083 346.376 706.083 360.928H709.039ZM711.578 309.801C713.143 305.179 718.7 301.273 729.365 298.545L728.633 295.681C717.859 298.437 710.87 302.674 708.778 308.854L711.578 309.801ZM729.375 298.542C737.146 296.497 745.038 295.475 753.054 295.475V292.519C744.784 292.519 736.639 293.574 728.623 295.684L729.375 298.542ZM753.054 295.475C774.574 295.475 792.622 300.769 807.284 311.277L809.006 308.874C793.755 297.944 775.075 292.519 753.054 292.519V295.475ZM807.274 311.269C810.113 313.341 813.022 316.862 815.963 321.968C818.895 327.059 821.811 333.639 824.701 341.732L827.485 340.738C824.558 332.545 821.574 325.788 818.524 320.493C815.482 315.212 812.326 311.297 809.016 308.882L807.274 311.269ZM824.701 341.731C831.127 359.775 834.337 378.013 834.337 396.451H837.293C837.293 377.662 834.021 359.09 827.485 340.739L824.701 341.731ZM834.337 396.451C834.337 421.041 828.173 441.357 815.941 457.504L818.297 459.289C830.993 442.53 837.293 421.55 837.293 396.451H834.337ZM815.933 457.514C811.145 463.951 802.41 469.104 789.418 472.804L790.228 475.647C803.493 471.869 812.956 466.469 818.305 459.278L815.933 457.514ZM789.424 472.802C779.169 475.674 768.667 477.11 757.915 477.11V480.066C768.934 480.066 779.704 478.594 790.221 475.649L789.424 472.802ZM757.915 477.11C738.424 477.11 725.225 473.13 717.84 465.589L715.728 467.656C723.965 476.068 738.186 480.066 757.915 480.066V477.11ZM717.992 465.771C716.641 463.853 715.343 460.273 714.195 454.805C713.059 449.392 712.105 442.305 711.339 433.527C709.807 415.974 709.039 391.781 709.039 360.928H706.083C706.083 391.814 706.852 416.105 708.394 433.784C709.166 442.621 710.133 449.837 711.303 455.412C712.461 460.934 713.853 465.029 715.576 467.474L717.992 465.771ZM755.689 386.729C755.689 390.496 755.815 393.675 756.071 396.254C756.324 398.81 756.714 400.868 757.285 402.344L760.041 401.277C759.615 400.176 759.257 398.433 759.012 395.962C758.769 393.514 758.645 390.44 758.645 386.729H755.689ZM757.289 402.354C758.279 404.852 759.91 406.775 762.175 408.052C764.414 409.314 767.178 409.894 770.379 409.894V406.938C767.514 406.938 765.293 406.417 763.627 405.477C761.986 404.552 760.792 403.172 760.037 401.266L757.289 402.354ZM770.379 409.894C776.69 409.894 781.61 407.235 784.961 401.982L782.47 400.392C779.672 404.777 775.702 406.938 770.379 406.938V409.894ZM784.976 401.958C787.645 397.6 788.933 392.246 788.933 385.981H785.977C785.977 391.847 784.772 396.631 782.455 400.415L784.976 401.958ZM788.933 385.981C788.933 377.256 786.87 370.437 782.483 365.802C778.082 361.151 771.584 358.952 763.275 358.952V361.908C771.085 361.908 776.677 363.967 780.336 367.833C784.01 371.715 785.977 377.672 785.977 385.981H788.933ZM763.275 358.952C760.638 358.952 758.401 359.687 756.85 361.401C755.325 363.087 754.692 365.471 754.692 368.282H757.648C757.648 365.858 758.2 364.316 759.042 363.384C759.859 362.481 761.175 361.908 763.275 361.908V358.952ZM754.692 368.282C754.692 370.421 754.863 373.544 755.196 377.626L758.142 377.385C757.81 373.323 757.648 370.297 757.648 368.282H754.692ZM755.196 377.626C755.527 381.687 755.689 384.713 755.689 386.729H758.645C758.645 384.589 758.475 381.466 758.142 377.385L755.196 377.626ZM859.122 303.719L860.307 304.602L860.367 304.521L860.416 304.433L859.122 303.719ZM906.361 304.716L907.656 304.004L907.649 303.992L907.643 303.981L906.361 304.716ZM907.109 470.985L908.472 471.555L908.498 471.492L908.519 471.428L907.109 470.985ZM859.621 471.733L858.267 472.324L858.269 472.331L859.621 471.733ZM860.416 304.433C863.064 299.639 869.787 296.846 881.682 296.846V293.89C869.647 293.89 861.33 296.664 857.829 303.004L860.416 304.433ZM881.682 296.846C894.454 296.846 901.927 299.954 905.079 305.451L907.643 303.981C903.648 297.014 894.669 293.89 881.682 293.89V296.846ZM905.066 305.428C905.303 305.859 905.589 306.682 905.881 308.013C906.167 309.314 906.439 310.997 906.693 313.075C907.201 317.229 907.627 322.874 907.969 330.026C908.653 344.324 908.996 364.551 908.996 390.717H911.952C911.952 364.535 911.609 344.254 910.922 329.885C910.578 322.703 910.148 316.975 909.627 312.716C909.367 310.587 909.082 308.804 908.768 307.378C908.461 305.983 908.104 304.819 907.656 304.004L905.066 305.428ZM908.996 390.717C908.996 413.892 908.715 432.149 908.156 445.497C907.876 452.171 907.527 457.604 907.11 461.803C906.69 466.034 906.21 468.913 905.698 470.542L908.519 471.428C909.129 469.484 909.63 466.339 910.051 462.095C910.476 457.818 910.828 452.324 911.109 445.62C911.671 432.212 911.952 413.908 911.952 390.717H908.996ZM905.745 470.415C904.807 472.66 902.612 474.531 898.72 475.848C894.825 477.166 889.419 477.858 882.43 477.858V480.814C889.566 480.814 895.337 480.113 899.668 478.648C904.002 477.181 907.084 474.877 908.472 471.555L905.745 470.415ZM882.43 477.858C876.022 477.858 871.06 477.229 867.473 476.033C863.887 474.838 861.862 473.145 860.972 471.135L858.269 472.331C859.623 475.389 862.521 477.498 866.538 478.837C870.555 480.176 875.875 480.814 882.43 480.814V477.858ZM860.975 471.141C860.125 469.195 859.328 465.864 858.63 461.028C857.937 456.228 857.355 450.058 856.889 442.507C855.957 427.408 855.49 406.866 855.49 380.871H852.534C852.534 406.891 853.002 427.501 853.939 442.689C854.408 450.282 854.995 456.54 855.704 461.451C856.408 466.327 857.247 469.992 858.267 472.324L860.975 471.141ZM855.49 380.871C855.49 357.449 855.916 339.342 856.764 326.532C857.189 320.124 857.717 315.072 858.344 311.357C858.657 309.499 858.991 308.003 859.339 306.852C859.696 305.673 860.035 304.967 860.307 304.602L857.937 302.836C857.358 303.613 856.899 304.71 856.51 305.996C856.113 307.309 855.755 308.938 855.429 310.866C854.779 314.722 854.242 319.886 853.815 326.337C852.96 339.244 852.534 357.427 852.534 380.871H855.49ZM939.265 309.328L937.866 308.854L937.861 308.867L939.265 309.328ZM958.086 297.113L958.452 298.545L958.462 298.542L958.086 297.113ZM1037.23 310.075L1038.1 308.882L1038.09 308.874L1037.23 310.075ZM1055.18 341.235L1056.57 340.739L1056.57 340.738L1055.18 341.235ZM1046.21 458.396L1045.03 457.504L1045.02 457.514L1046.21 458.396ZM1018.91 474.226L1019.31 475.649L1019.31 475.647L1018.91 474.226ZM945.871 466.623L944.663 467.474L944.732 467.571L944.815 467.656L945.871 466.623ZM987.75 401.81L986.372 402.344L986.376 402.354L987.75 401.81ZM1012.8 401.187L1014.05 401.982L1014.06 401.97L1014.06 401.958L1012.8 401.187ZM938.126 360.928C938.126 346.398 938.344 334.855 938.778 326.291C939.217 317.653 939.87 312.227 940.67 309.788L937.861 308.867C936.916 311.747 936.261 317.58 935.826 326.141C935.388 334.778 935.17 346.376 935.17 360.928H938.126ZM940.665 309.801C942.23 305.179 947.788 301.273 958.452 298.545L957.72 295.681C946.946 298.437 939.957 302.674 937.866 308.854L940.665 309.801ZM958.462 298.542C966.234 296.497 974.126 295.475 982.141 295.475V292.519C973.871 292.519 965.726 293.574 957.71 295.684L958.462 298.542ZM982.141 295.475C1003.66 295.475 1021.71 300.769 1036.37 311.277L1038.09 308.874C1022.84 297.944 1004.16 292.519 982.141 292.519V295.475ZM1036.36 311.269C1039.2 313.341 1042.11 316.862 1045.05 321.968C1047.98 327.059 1050.9 333.639 1053.79 341.732L1056.57 340.738C1053.65 332.545 1050.66 325.788 1047.61 320.493C1044.57 315.212 1041.41 311.297 1038.1 308.882L1036.36 311.269ZM1053.79 341.731C1060.21 359.775 1063.42 378.013 1063.42 396.451H1066.38C1066.38 377.662 1063.11 359.09 1056.57 340.739L1053.79 341.731ZM1063.42 396.451C1063.42 421.041 1057.26 441.357 1045.03 457.504L1047.38 459.289C1060.08 442.53 1066.38 421.55 1066.38 396.451H1063.42ZM1045.02 457.514C1040.23 463.951 1031.5 469.104 1018.51 472.804L1019.31 475.647C1032.58 471.869 1042.04 466.469 1047.39 459.278L1045.02 457.514ZM1018.51 472.802C1008.26 475.674 997.754 477.11 987.002 477.11V480.066C998.021 480.066 1008.79 478.594 1019.31 475.649L1018.51 472.802ZM987.002 477.11C967.511 477.11 954.312 473.13 946.927 465.589L944.815 467.656C953.052 476.068 967.274 480.066 987.002 480.066V477.11ZM947.079 465.771C945.728 463.853 944.43 460.273 943.283 454.805C942.147 449.392 941.192 442.305 940.426 433.527C938.894 415.974 938.126 391.781 938.126 360.928H935.17C935.17 391.814 935.939 416.105 937.482 433.784C938.253 442.621 939.22 449.837 940.39 455.412C941.548 460.934 942.94 465.029 944.663 467.474L947.079 465.771ZM984.777 386.729C984.777 390.496 984.902 393.675 985.158 396.254C985.411 398.81 985.801 400.868 986.372 402.344L989.128 401.277C988.702 400.176 988.344 398.433 988.099 395.962C987.856 393.514 987.732 390.44 987.732 386.729H984.777ZM986.376 402.354C987.366 404.852 988.997 406.775 991.262 408.052C993.501 409.314 996.265 409.894 999.466 409.894V406.938C996.602 406.938 994.38 406.417 992.714 405.477C991.073 404.552 989.88 403.172 989.124 401.266L986.376 402.354ZM999.466 409.894C1005.78 409.894 1010.7 407.235 1014.05 401.982L1011.56 400.392C1008.76 404.777 1004.79 406.938 999.466 406.938V409.894ZM1014.06 401.958C1016.73 397.6 1018.02 392.246 1018.02 385.981H1015.06C1015.06 391.847 1013.86 396.631 1011.54 400.415L1014.06 401.958ZM1018.02 385.981C1018.02 377.256 1015.96 370.437 1011.57 365.802C1007.17 361.151 1000.67 358.952 992.362 358.952V361.908C1000.17 361.908 1005.76 363.967 1009.42 367.833C1013.1 371.715 1015.06 377.672 1015.06 385.981H1018.02ZM992.362 358.952C989.726 358.952 987.489 359.687 985.938 361.401C984.412 363.087 983.78 365.471 983.78 368.282H986.735C986.735 365.858 987.287 364.316 988.129 363.384C988.947 362.481 990.262 361.908 992.362 361.908V358.952ZM983.78 368.282C983.78 370.421 983.95 373.544 984.283 377.626L987.229 377.385C986.897 373.323 986.735 370.297 986.735 368.282H983.78ZM984.283 377.626C984.615 381.687 984.777 384.713 984.777 386.729H987.732C987.732 384.589 987.562 381.466 987.229 377.385L984.283 377.626ZM1164.99 303.719L1166.17 304.602L1166.23 304.521L1166.28 304.433L1164.99 303.719ZM1212.23 304.716L1213.52 304.004L1213.51 303.992L1213.51 303.981L1212.23 304.716ZM1212.97 470.985L1214.34 471.555L1214.36 471.492L1214.38 471.428L1212.97 470.985ZM1165.49 471.733L1164.13 472.324L1164.13 472.331L1165.49 471.733ZM1166.28 304.433C1168.93 299.639 1175.65 296.846 1187.55 296.846V293.89C1175.51 293.89 1167.19 296.664 1163.69 303.004L1166.28 304.433ZM1187.55 296.846C1200.32 296.846 1207.79 299.954 1210.94 305.451L1213.51 303.981C1209.51 297.014 1200.53 293.89 1187.55 293.89V296.846ZM1210.93 305.428C1211.17 305.859 1211.45 306.682 1211.75 308.013C1212.03 309.314 1212.3 310.997 1212.56 313.075C1213.07 317.229 1213.49 322.874 1213.83 330.026C1214.52 344.324 1214.86 364.551 1214.86 390.717H1217.82C1217.82 364.535 1217.47 344.254 1216.79 329.885C1216.44 322.703 1216.01 316.975 1215.49 312.716C1215.23 310.587 1214.95 308.804 1214.63 307.378C1214.33 305.983 1213.97 304.819 1213.52 304.004L1210.93 305.428ZM1214.86 390.717C1214.86 413.892 1214.58 432.149 1214.02 445.497C1213.74 452.171 1213.39 457.604 1212.98 461.803C1212.56 466.034 1212.08 468.913 1211.56 470.542L1214.38 471.428C1214.99 469.484 1215.5 466.339 1215.92 462.095C1216.34 457.818 1216.69 452.324 1216.97 445.62C1217.54 432.212 1217.82 413.908 1217.82 390.717H1214.86ZM1211.61 470.415C1210.67 472.66 1208.48 474.531 1204.59 475.848C1200.69 477.166 1195.28 477.858 1188.3 477.858V480.814C1195.43 480.814 1201.2 480.113 1205.53 478.648C1209.87 477.181 1212.95 474.877 1214.34 471.555L1211.61 470.415ZM1188.3 477.858C1181.89 477.858 1176.93 477.229 1173.34 476.033C1169.75 474.838 1167.73 473.145 1166.84 471.135L1164.13 472.331C1165.49 475.389 1168.39 477.498 1172.4 478.837C1176.42 480.176 1181.74 480.814 1188.3 480.814V477.858ZM1166.84 471.141C1165.99 469.195 1165.19 465.864 1164.49 461.028C1163.8 456.228 1163.22 450.058 1162.75 442.507C1161.82 427.408 1161.36 406.866 1161.36 380.871H1158.4C1158.4 406.891 1158.87 427.501 1159.8 442.689C1160.27 450.282 1160.86 456.54 1161.57 461.451C1162.27 466.327 1163.11 469.992 1164.13 472.324L1166.84 471.141ZM1161.36 380.871C1161.36 357.449 1161.78 339.342 1162.63 326.532C1163.05 320.124 1163.58 315.072 1164.21 311.357C1164.52 309.499 1164.86 308.003 1165.2 306.852C1165.56 305.673 1165.9 304.967 1166.17 304.602L1163.8 302.836C1163.22 303.613 1162.76 304.71 1162.38 305.996C1161.98 307.309 1161.62 308.938 1161.29 310.866C1160.64 314.722 1160.11 319.886 1159.68 326.337C1158.83 339.244 1158.4 357.427 1158.4 380.871H1161.36ZM1243.63 296.864L1243.37 295.41L1243.1 295.458L1242.87 295.598L1243.63 296.864ZM1363.79 296.864L1364.4 295.52L1364.21 295.431L1364 295.401L1363.79 296.864ZM1365.41 345.099L1364.72 343.791L1364.44 343.935L1364.25 344.179L1365.41 345.099ZM1341.6 348.963L1341.15 350.37L1341.16 350.373L1341.17 350.376L1341.6 348.963ZM1325.27 349.461L1326.5 350.281L1326.52 350.256L1326.54 350.23L1325.27 349.461ZM1328.39 405.3L1326.92 405.485L1326.92 405.49L1328.39 405.3ZM1329.64 470.362L1328.75 469.179L1328.74 469.186L1328.73 469.194L1329.64 470.362ZM1279.03 468.118L1280.37 467.498L1280.26 467.259L1280.08 467.073L1279.03 468.118ZM1285.14 350.957L1283.79 351.565L1283.97 351.952L1284.32 352.187L1285.14 350.957ZM1267.07 349.337L1267.44 350.767L1267.45 350.765L1267.46 350.763L1267.07 349.337ZM1243.63 348.963L1242.96 350.277L1242.96 350.278L1243.63 348.963ZM1243.9 298.318C1257.9 295.765 1277.36 294.478 1302.34 294.478V291.522C1277.3 291.522 1257.62 292.81 1243.37 295.41L1243.9 298.318ZM1302.34 294.478C1325.22 294.478 1345.63 295.763 1363.58 298.327L1364 295.401C1345.88 292.813 1325.33 291.522 1302.34 291.522V294.478ZM1363.17 298.207C1365.68 299.359 1367.71 301.76 1369.12 305.74C1370.54 309.733 1371.28 315.185 1371.28 322.165H1374.24C1374.24 315.02 1373.49 309.192 1371.91 304.752C1370.33 300.298 1367.87 297.111 1364.4 295.52L1363.17 298.207ZM1371.28 322.165C1371.28 328.447 1370.68 333.366 1369.52 336.983C1368.36 340.602 1366.7 342.75 1364.72 343.791L1366.1 346.407C1369.02 344.872 1371.04 341.911 1372.33 337.885C1373.62 333.857 1374.24 328.597 1374.24 322.165H1371.28ZM1364.25 344.179C1361.29 347.902 1357.52 349.729 1352.82 349.729V352.684C1358.43 352.684 1363.05 350.439 1366.56 346.019L1364.25 344.179ZM1352.82 349.729C1350.47 349.729 1346.9 349.036 1342.03 347.549L1341.17 350.376C1346.1 351.881 1350.02 352.684 1352.82 352.684V349.729ZM1342.05 347.556C1337.15 345.975 1333.38 345.117 1330.88 345.117V348.073C1332.87 348.073 1336.25 348.793 1341.15 350.37L1342.05 347.556ZM1330.88 345.117C1327.88 345.117 1325.49 346.268 1324.01 348.693L1326.54 350.23C1327.39 348.833 1328.73 348.073 1330.88 348.073V345.117ZM1324.04 348.642C1323.52 349.424 1323.24 350.516 1323.06 351.71C1322.88 352.95 1322.8 354.493 1322.8 356.317H1325.75C1325.75 354.567 1325.84 353.181 1325.99 352.136C1326.15 351.046 1326.36 350.496 1326.5 350.281L1324.04 348.642ZM1322.8 356.317C1322.8 367.298 1324.18 383.701 1326.92 405.485L1329.86 405.115C1327.12 383.358 1325.75 367.105 1325.75 356.317H1322.8ZM1326.92 405.49C1329.75 427.247 1331.15 443.497 1331.15 454.283H1334.11C1334.11 443.299 1332.68 426.893 1329.86 405.11L1326.92 405.49ZM1331.15 454.283C1331.15 458.857 1330.9 462.4 1330.43 464.95C1330.19 466.225 1329.9 467.205 1329.59 467.924C1329.27 468.655 1328.97 469.017 1328.75 469.179L1330.52 471.544C1331.3 470.959 1331.87 470.089 1332.3 469.107C1332.73 468.112 1333.07 466.895 1333.33 465.491C1333.86 462.682 1334.11 458.933 1334.11 454.283H1331.15ZM1328.73 469.194C1322.44 474.07 1313.33 476.611 1301.22 476.611V479.567C1313.7 479.567 1323.54 476.956 1330.54 471.53L1328.73 469.194ZM1301.22 476.611C1289.7 476.611 1283.08 473.348 1280.37 467.498L1277.69 468.739C1281.13 476.183 1289.31 479.567 1301.22 479.567V476.611ZM1280.08 467.073C1279.5 466.496 1278.88 465.171 1278.43 462.712C1278 460.322 1277.77 457.108 1277.77 453.037H1274.81C1274.81 457.192 1275.04 460.604 1275.52 463.241C1275.99 465.81 1276.74 467.912 1277.99 469.163L1280.08 467.073ZM1277.77 453.037C1277.77 442.437 1279.42 426.492 1282.74 405.153L1279.82 404.699C1276.49 426.069 1274.81 442.199 1274.81 453.037H1277.77ZM1282.74 405.153C1286.06 383.783 1287.74 367.653 1287.74 356.815H1284.78C1284.78 367.415 1283.14 383.36 1279.82 404.699L1282.74 405.153ZM1287.74 356.815C1287.74 355.074 1287.65 353.628 1287.43 352.518C1287.33 351.963 1287.18 351.441 1286.97 350.989C1286.77 350.549 1286.46 350.062 1285.96 349.727L1284.32 352.187C1284.19 352.101 1284.21 352.046 1284.29 352.219C1284.36 352.38 1284.45 352.652 1284.53 353.074C1284.69 353.916 1284.78 355.149 1284.78 356.815H1287.74ZM1286.49 350.349C1285.8 348.829 1284.79 347.616 1283.45 346.796C1282.11 345.982 1280.53 345.615 1278.78 345.615V348.571C1280.11 348.571 1281.13 348.849 1281.91 349.322C1282.68 349.79 1283.32 350.51 1283.79 351.565L1286.49 350.349ZM1278.78 345.615C1276.24 345.615 1272.16 346.416 1266.68 347.911L1267.46 350.763C1272.94 349.266 1276.68 348.571 1278.78 348.571V345.615ZM1266.69 347.907C1261.32 349.311 1257.32 349.978 1254.6 349.978V352.934C1257.71 352.934 1262.01 352.188 1267.44 350.767L1266.69 347.907ZM1254.6 349.978C1250.74 349.978 1247.32 349.191 1244.31 347.648L1242.96 350.278C1246.43 352.059 1250.33 352.934 1254.6 352.934V349.978ZM1244.31 347.649C1241.95 346.436 1240.03 343.959 1238.68 339.87C1237.34 335.78 1236.64 330.232 1236.64 323.163H1233.68C1233.68 330.386 1234.39 336.284 1235.87 340.793C1237.36 345.304 1239.66 348.581 1242.96 350.277L1244.31 347.649ZM1236.64 323.163C1236.64 316.181 1237.34 310.627 1238.68 306.447C1240.03 302.269 1241.98 299.587 1244.4 298.129L1242.87 295.598C1239.64 297.547 1237.35 300.951 1235.87 305.54C1234.39 310.126 1233.68 316.019 1233.68 323.163H1236.64ZM1391.33 304.716L1392.53 305.579L1392.62 305.463L1392.68 305.333L1391.33 304.716ZM1430.72 295.617L1431.36 294.284L1431.35 294.28L1431.34 294.276L1430.72 295.617ZM1439.82 306.835L1438.35 306.987L1438.38 307.308L1438.55 307.587L1439.82 306.835ZM1437.08 364.543L1438.54 364.754L1438.54 364.753L1437.08 364.543ZM1402.18 407.17L1400.82 407.764L1400.83 407.77L1402.18 407.17ZM1392.95 364.543L1394.42 364.344L1394.42 364.34L1392.95 364.543ZM1390.09 453.037L1391.56 453.147L1391.56 453.135L1390.09 453.037ZM1416.63 430.851L1416.67 429.374L1416.66 429.373L1416.65 429.373L1416.63 430.851ZM1437.57 448.425L1439.02 448.105L1439.01 448.088L1439.01 448.071L1437.57 448.425ZM1430.97 471.982L1430.02 470.845L1430.01 470.853L1430.97 471.982ZM1395.94 470.611L1394.83 471.58L1394.84 471.589L1395.94 470.611ZM1392.68 305.333C1396.08 297.925 1403.56 293.979 1415.89 293.979V291.023C1402.95 291.023 1394.07 295.22 1389.99 304.099L1392.68 305.333ZM1415.89 293.979C1421.09 293.979 1425.82 294.979 1430.1 296.958L1431.34 294.276C1426.64 292.101 1421.48 291.023 1415.89 291.023V293.979ZM1430.08 296.951C1435.33 299.457 1437.92 302.822 1438.35 306.987L1441.29 306.683C1440.72 301.209 1437.24 297.095 1431.36 294.284L1430.08 296.951ZM1438.55 307.587C1438.93 308.244 1439.31 309.441 1439.57 311.337C1439.83 313.198 1439.96 315.596 1439.96 318.551H1442.92C1442.92 315.523 1442.78 312.977 1442.5 310.932C1442.22 308.923 1441.78 307.254 1441.09 306.083L1438.55 307.587ZM1439.96 318.551C1439.96 328.829 1438.52 344.075 1435.61 364.333L1438.54 364.753C1441.45 344.462 1442.92 329.046 1442.92 318.551H1439.96ZM1435.61 364.332C1434 375.528 1432.37 384.742 1430.74 391.982C1429.11 399.248 1427.48 404.435 1425.9 407.637L1428.55 408.946C1430.3 405.417 1431.98 399.947 1433.63 392.631C1435.28 385.288 1436.91 375.992 1438.54 364.754L1435.61 364.332ZM1425.9 407.637C1422.69 414.136 1418.9 416.909 1414.64 416.909V419.865C1420.52 419.865 1425.12 415.908 1428.55 408.946L1425.9 407.637ZM1414.64 416.909C1410.56 416.909 1406.78 413.889 1403.53 406.569L1400.83 407.77C1404.22 415.407 1408.75 419.865 1414.64 419.865V416.909ZM1403.53 406.575C1400.3 399.227 1397.24 385.211 1394.42 364.344L1391.49 364.741C1394.31 385.587 1397.41 399.989 1400.82 407.764L1403.53 406.575ZM1394.42 364.34C1391.84 345.755 1390.57 330.999 1390.57 320.047H1387.61C1387.61 331.196 1388.91 346.105 1391.49 364.745L1394.42 364.34ZM1390.57 320.047C1390.57 316.011 1390.75 312.777 1391.11 310.321C1391.48 307.808 1392 306.314 1392.53 305.579L1390.13 303.852C1389.17 305.196 1388.57 307.295 1388.19 309.893C1387.8 312.547 1387.61 315.939 1387.61 320.047H1390.57ZM1391.56 453.135C1392.04 445.933 1394.39 440.774 1398.42 437.407C1402.48 434.017 1408.47 432.248 1416.62 432.329L1416.65 429.373C1408.1 429.288 1401.32 431.133 1396.52 435.139C1391.7 439.167 1389.13 445.184 1388.61 452.939L1391.56 453.135ZM1416.6 432.328C1422.74 432.49 1427.03 433.903 1429.74 436.316L1431.7 434.11C1428.26 431.04 1423.16 429.544 1416.67 429.374L1416.6 432.328ZM1429.74 436.316C1432.5 438.782 1434.68 442.863 1436.14 448.779L1439.01 448.071C1437.48 441.856 1435.09 437.129 1431.7 434.11L1429.74 436.316ZM1436.13 448.746C1436.61 450.895 1436.84 452.948 1436.84 454.906H1439.8C1439.8 452.711 1439.54 450.442 1439.02 448.105L1436.13 448.746ZM1436.84 454.906C1436.84 461.852 1434.54 467.098 1430.02 470.845L1431.91 473.119C1437.2 468.723 1439.8 462.586 1439.8 454.906H1436.84ZM1430.01 470.853C1425.51 474.659 1419.72 476.611 1412.52 476.611V479.567C1420.28 479.567 1426.79 477.448 1431.92 473.111L1430.01 470.853ZM1412.52 476.611C1406.3 476.611 1401.18 474.301 1397.05 469.633L1394.84 471.589C1399.52 476.892 1405.45 479.567 1412.52 479.567V476.611ZM1397.06 469.642C1392.91 464.868 1391.09 459.398 1391.56 453.147L1388.61 452.926C1388.08 459.97 1390.17 466.216 1394.83 471.58L1397.06 469.642Z" fill="black" mask="url(#path-2-outside-1_4239_1564)"/>
</g>
<defs>
<filter id="filter0_d_4239_1564" x="171.932" y="292.502" width="1275.42" height="198.657" filterUnits="userSpaceOnUse" color-interpolation-filters="sRGB">
<feFlood flood-opacity="0" result="BackgroundImageFix"/>
<feColorMatrix in="SourceAlpha" type="matrix" values="0 0 0 0 0 0 0 0 0 0 0 0 0 0 0 0 0 0 127 0" result="hardAlpha"/>
<feOffset dy="5.91147"/>
<feGaussianBlur stdDeviation="2.95573"/>
<feComposite in2="hardAlpha" operator="out"/>
<feColorMatrix type="matrix" values="0 0 0 0 0 0 0 0 0 0 0 0 0 0 0 0 0 0 0.25 0"/>
<feBlend mode="normal" in2="BackgroundImageFix" result="effect1_dropShadow_4239_1564"/>
<feBlend mode="normal" in="SourceGraphic" in2="effect1_dropShadow_4239_1564" result="shape"/>
</filter>
</defs>
</svg>
