<svg width="903" height="866" viewBox="0 0 903 866" fill="none" xmlns="http://www.w3.org/2000/svg">
<path fill-rule="evenodd" clip-rule="evenodd" d="M487.634 692.57C487.634 692.57 639.012 925.419 763.131 814.351H763.105C887.224 703.284 692.195 521.615 692.195 521.615C692.195 521.615 956.388 437.421 893.159 297.245C829.931 157.068 592.843 274.225 592.843 274.225C592.843 274.225 630.251 -1.04133 441.542 13.7831C252.859 28.5817 326.852 292.286 326.852 292.286C326.852 292.286 85.1402 183.737 32.3942 355.695C-20.3519 527.652 261.825 550.852 261.825 550.852C261.825 550.852 101.069 773.526 231.123 850.475C361.177 927.397 487.634 692.57 487.634 692.57Z" fill="white"/>
<path fill-rule="evenodd" clip-rule="evenodd" d="M486.92 671.048C486.92 671.048 633.505 896.524 753.694 788.973H753.669C873.858 681.423 685.004 505.505 685.004 505.505C685.004 505.505 940.832 423.978 879.605 288.24C818.379 152.502 588.798 265.948 588.798 265.948C588.798 265.948 625.022 -0.601976 442.288 13.753C259.578 28.0832 331.229 283.438 331.229 283.438C331.229 283.438 97.1703 178.326 46.0943 344.839C-4.98162 511.352 268.261 533.817 268.261 533.817C268.261 533.817 112.595 749.441 238.531 823.953C364.467 898.44 486.92 671.048 486.92 671.048Z" fill="#FFDB43"/>
<g clip-path="url(#clip0_4093_57)">
<path d="M738.112 801.351C613.993 912.419 462.614 679.57 462.614 679.57C462.614 679.57 336.157 914.397 206.104 837.475C76.0498 760.527 236.806 537.852 236.806 537.852C236.806 537.852 -45.3714 514.652 7.37463 342.695C60.1207 170.737 301.833 279.286 301.833 279.286C301.833 279.286 227.839 15.5817 416.523 0.783054C605.232 -14.0413 567.824 261.225 567.824 261.225C567.824 261.225 804.911 144.068 868.14 284.245C931.368 424.421 667.175 508.615 667.175 508.615C667.175 508.615 862.205 690.284 738.086 801.351H738.112Z" fill="#9982FB"/>
<path d="M364.549 384.573C364.549 405.949 350.469 423.266 333.102 423.266C315.734 423.266 301.654 405.949 301.654 384.573C301.654 363.197 315.734 345.881 333.102 345.881C350.469 345.881 364.549 363.197 364.549 384.573Z" fill="#261C3F"/>
<path d="M588.992 384.573C588.992 405.949 574.913 423.266 557.545 423.266C540.177 423.266 526.098 405.949 526.098 384.573C526.098 363.197 540.177 345.881 557.545 345.881C574.913 345.881 588.992 363.197 588.992 384.573Z" fill="#261C3F"/>
<path d="M394.196 439.81C405.269 459.079 419.271 483.358 445.041 481.971C467.29 480.763 488.589 457.871 500.382 441.017C507.678 430.612 491.081 417.74 482.705 427.375C473.61 437.832 462.897 450.678 449.819 456.201C431.45 463.986 415.007 444.28 403.985 432.256C399.154 426.964 390.727 433.747 394.196 439.81Z" fill="#261C3F"/>
</g>
<defs>
<clipPath id="clip0_4093_57">
<rect width="877.105" height="852.749" fill="white" transform="translate(0.824219 0.193359)"/>
</clipPath>
</defs>
</svg>
