<svg width="1388" height="532" viewBox="0 0 1388 532" fill="none" xmlns="http://www.w3.org/2000/svg">
<path d="M0.0664062 0.824219H1387.07L1163.57 266.324L1387.07 531.824H0.0664062V266.324V0.824219Z" fill="#FF948E"/>
<path d="M332.666 170.924C332.666 171.924 332.566 172.624 332.366 173.024C332.366 173.424 332.266 173.824 332.066 174.224C332.466 175.224 332.666 176.124 332.666 176.924C332.666 177.524 332.566 178.124 332.366 178.724C332.366 179.324 332.366 180.124 332.366 181.124C332.366 181.924 332.566 183.024 332.966 184.424C333.966 187.224 334.966 189.124 335.966 190.124C336.966 190.924 338.166 191.824 339.566 192.824C337.566 194.624 336.566 196.224 336.566 197.624C336.566 198.824 336.966 199.824 337.766 200.624C338.566 201.424 339.766 202.124 341.366 202.724C341.766 203.124 342.666 203.924 344.066 205.124C345.466 206.124 346.866 206.424 348.266 206.024L368.066 238.424L402.266 282.224C404.666 282.424 405.966 281.124 406.166 278.324C406.566 275.324 406.466 272.124 405.866 268.724C405.466 265.124 404.866 261.924 404.066 259.124C403.266 256.324 402.866 255.124 402.866 255.524C402.266 249.724 401.666 245.224 401.066 242.024C400.466 238.824 400.666 235.324 401.666 231.524C402.666 230.524 402.866 228.524 402.266 225.524C401.666 222.324 400.866 219.124 399.866 215.924C399.466 214.124 399.266 212.124 399.266 209.924C399.266 207.724 399.366 205.524 399.566 203.324C399.766 201.124 399.866 199.124 399.866 197.324C400.066 195.524 400.066 194.124 399.866 193.124C399.866 191.124 399.666 189.224 399.266 187.424C398.866 185.624 398.966 183.924 399.566 182.324C399.766 181.524 399.866 181.024 399.866 180.824C400.066 180.424 400.166 180.024 400.166 179.624C400.166 179.224 400.066 178.624 399.866 177.824C399.866 177.024 399.866 175.824 399.866 174.224L404.066 170.024C404.666 169.224 405.666 168.624 407.066 168.224C408.466 167.824 409.866 167.624 411.266 167.624C412.866 167.424 414.266 167.324 415.466 167.324C416.866 167.324 417.866 167.424 418.466 167.624C419.866 168.024 421.466 168.324 423.266 168.524C425.266 168.524 426.966 168.424 428.366 168.224L433.766 169.724L437.066 184.424C434.266 187.424 432.666 190.324 432.266 193.124C431.866 195.924 431.766 198.724 431.966 201.524C431.966 206.324 432.066 209.924 432.266 212.324C432.666 214.524 433.066 216.124 433.466 217.124C434.066 218.124 434.566 218.724 434.966 218.924C435.566 219.124 436.066 219.424 436.466 219.824C436.066 221.424 435.366 223.024 434.366 224.624C433.566 226.024 432.566 227.524 431.366 229.124C430.766 229.924 430.466 230.924 430.466 232.124C430.666 233.124 431.066 234.124 431.666 235.124C432.266 236.124 432.966 237.024 433.766 237.824C434.566 238.424 435.366 238.624 436.166 238.424C436.566 239.024 436.566 240.724 436.166 243.524C435.766 246.124 436.166 251.624 437.366 260.024C437.766 264.224 437.666 267.824 437.066 270.824C436.666 273.624 436.166 276.124 435.566 278.324C434.966 280.324 434.366 282.224 433.766 284.024C433.366 285.624 433.266 287.324 433.466 289.124C433.666 289.124 433.866 290.024 434.066 291.824C434.266 293.624 434.466 295.624 434.666 297.824C434.866 299.824 435.066 301.724 435.266 303.524C435.666 305.124 436.066 305.824 436.466 305.624C436.066 312.824 436.166 319.124 436.766 324.524C437.566 329.924 437.666 332.924 437.066 333.524L438.266 337.424L425.966 341.924C424.766 341.924 423.566 341.924 422.366 341.924C421.166 341.924 420.066 342.024 419.066 342.224C417.066 342.424 415.066 342.624 413.066 342.824C411.066 343.024 409.466 343.224 408.266 343.424L402.266 340.124C402.466 338.124 402.866 336.724 403.466 335.924C404.866 335.124 405.366 332.124 404.966 326.924C404.766 325.124 404.266 324.024 403.466 323.624C402.866 323.224 402.266 322.524 401.666 321.524L359.366 265.124C358.766 264.524 358.266 263.924 357.866 263.324C357.066 262.324 356.266 260.524 355.466 257.924C354.666 255.324 353.466 252.624 351.866 249.824C350.466 246.824 348.066 244.224 344.666 242.024L342.866 225.224C342.266 222.224 339.066 221.524 333.266 223.124C332.266 223.924 331.666 224.724 331.466 225.524C331.266 226.324 331.166 227.124 331.166 227.924C331.366 228.724 331.566 229.524 331.766 230.324C331.966 231.124 331.966 231.824 331.766 232.424C331.566 233.224 331.366 233.924 331.166 234.524C330.966 234.924 330.766 235.624 330.566 236.624C330.566 237.624 330.466 239.124 330.266 241.124C330.066 242.924 329.866 245.624 329.666 249.224C329.466 252.824 329.166 256.524 328.766 260.324C328.566 263.924 328.366 267.424 328.166 270.824C328.166 274.024 328.366 276.824 328.766 279.224C329.366 281.624 330.266 283.224 331.466 284.024C331.466 286.424 330.566 296.324 328.766 313.724C328.166 320.124 327.666 325.524 327.266 329.924C327.066 334.124 326.866 337.524 326.666 340.124L322.766 344.924C320.166 345.324 316.766 345.724 312.566 346.124C308.566 346.524 304.466 346.924 300.266 347.324C296.266 347.724 292.466 348.024 288.866 348.224C285.466 348.424 283.066 348.524 281.666 348.524C280.466 348.524 279.166 348.124 277.766 347.324C276.366 346.524 275.166 345.024 274.166 342.824C275.366 341.224 276.066 340.524 276.266 340.724C276.466 340.724 276.166 340.724 275.366 340.724V307.724L279.266 301.124L274.766 290.024L275.366 281.624C275.366 280.624 275.566 279.024 275.966 276.824C276.366 274.424 276.766 271.824 277.166 269.024C277.566 266.224 277.866 263.424 278.066 260.624C278.466 257.624 278.566 254.924 278.366 252.524C277.966 247.924 277.666 244.424 277.466 242.024C277.266 239.424 277.166 237.924 277.166 237.524C277.166 236.724 277.666 235.324 278.666 233.324C279.866 231.124 280.866 229.324 281.666 227.924C282.266 226.924 282.466 225.924 282.266 224.924C282.066 223.724 282.066 222.724 282.266 221.924C282.666 221.124 283.166 220.524 283.766 220.124C284.366 219.524 284.466 219.724 284.066 220.724C285.266 221.324 285.466 219.824 284.666 216.224C284.066 212.624 283.666 208.224 283.466 203.024L283.166 187.124C282.966 186.124 282.766 185.224 282.566 184.424C282.566 183.624 282.066 182.424 281.066 180.824C283.866 179.424 285.466 178.124 285.866 176.924C286.266 175.724 286.466 173.924 286.466 171.524C288.066 170.924 290.566 170.524 293.966 170.324C297.566 169.924 301.366 169.624 305.366 169.424C309.366 169.024 313.266 168.624 317.066 168.224C320.866 167.624 323.966 166.924 326.366 166.124L332.666 170.924ZM548.022 161.024V184.424C545.622 193.824 543.622 202.124 542.022 209.324C540.622 216.324 539.522 222.824 538.722 228.824C537.922 234.824 537.422 240.524 537.222 245.924C537.222 251.324 537.422 257.024 537.822 263.024C538.222 270.224 538.022 276.724 537.222 282.524C536.422 288.324 535.622 293.624 534.822 298.424C534.222 303.224 533.822 307.824 533.622 312.224C533.422 316.424 534.022 320.724 535.422 325.124L536.922 332.624L531.822 341.324L491.922 349.124L481.122 342.224C481.322 341.424 482.422 340.324 484.422 338.924C486.622 337.324 487.722 335.724 487.722 334.124C487.722 331.724 487.722 330.024 487.722 329.024C487.722 328.024 487.522 326.424 487.122 324.224C486.722 323.224 487.222 320.024 488.622 314.624C490.222 309.024 490.922 301.424 490.722 291.824C490.722 287.024 490.722 283.524 490.722 281.324C490.922 278.924 491.022 277.424 491.022 276.824C491.222 276.024 491.222 275.724 491.022 275.924C491.022 276.124 490.822 276.224 490.422 276.224C490.622 274.624 490.922 272.824 491.322 270.824C491.722 268.624 492.122 266.424 492.522 264.224C492.922 263.024 493.222 261.824 493.422 260.624C493.622 259.424 493.822 258.124 494.022 256.724C494.622 256.124 494.522 254.924 493.722 253.124C493.122 251.324 492.422 249.924 491.622 248.924C491.022 247.924 490.722 247.524 490.722 247.724C490.722 247.724 490.922 247.724 491.322 247.724C491.722 247.724 492.322 247.324 493.122 246.524C493.922 245.524 494.722 243.624 495.522 240.824L493.422 227.624C493.822 227.624 494.122 227.724 494.322 227.924C494.722 228.124 494.922 228.024 494.922 227.624C494.922 227.024 494.822 225.924 494.622 224.324C494.422 222.724 494.022 220.224 493.422 216.824C492.622 210.224 492.522 206.324 493.122 205.124C493.722 203.724 494.622 203.124 495.822 203.324C496.822 202.524 497.622 201.724 498.222 200.924C499.022 200.124 499.522 199.124 499.722 197.924C499.922 196.724 499.822 195.124 499.422 193.124C499.222 190.924 498.622 188.124 497.622 184.724C496.622 181.724 496.722 178.724 497.922 175.724C499.122 172.724 499.822 169.724 500.022 166.724L506.322 160.424C509.122 160.424 512.822 160.424 517.422 160.424C522.022 160.224 526.022 160.024 529.422 159.824C536.622 159.224 541.822 158.924 545.022 158.924L548.022 161.024ZM701.35 180.224L680.95 179.924L664.15 185.624C663.55 185.624 661.55 188.824 658.15 195.224C656.75 198.424 655.05 201.924 653.05 205.724C651.25 209.524 649.95 211.924 649.15 212.924L642.25 257.924C641.85 257.924 640.45 261.324 638.05 268.124C637.05 271.524 636.05 274.324 635.05 276.524C634.05 278.524 633.25 280.124 632.65 281.324C632.65 282.724 634.55 286.524 638.35 292.724L645.55 288.524L652.15 301.424L648.25 308.924C648.85 309.924 649.35 310.824 649.75 311.624C650.15 312.224 650.55 312.824 650.95 313.424L651.85 315.224C651.85 315.824 653.05 317.424 655.45 320.024C657.65 322.824 659.45 324.224 660.85 324.224C663.05 324.224 664.65 323.824 665.65 323.024C666.85 322.224 667.75 321.824 668.35 321.824C668.95 321.824 669.65 322.224 670.45 323.024C671.25 323.624 671.95 324.024 672.55 324.224C681.95 325.424 690.15 323.324 697.15 317.924C699.35 317.524 702.25 317.124 705.85 316.724C709.45 316.324 712.45 314.824 714.85 312.224C715.65 312.024 716.65 311.424 717.85 310.424C719.05 309.424 720.35 308.324 721.75 307.124C723.15 305.724 724.65 304.324 726.25 302.924C727.85 301.524 729.55 300.324 731.35 299.324C732.35 298.724 733.15 299.224 733.75 300.824C734.55 302.424 735.35 303.024 736.15 302.624L739.15 306.224L734.05 321.524L722.65 330.524L706.45 335.024C701.45 336.624 696.05 338.324 690.25 340.124C684.65 341.924 680.55 343.024 677.95 343.424C675.75 343.624 673.35 344.124 670.75 344.924C668.15 345.524 665.65 346.224 663.25 347.024C660.85 347.624 658.75 348.224 656.95 348.824C655.15 349.224 654.05 349.424 653.65 349.424C646.05 349.424 640.55 349.524 637.15 349.724C633.75 349.724 631.25 349.724 629.65 349.724L602.65 329.924C602.25 326.124 599.25 320.124 593.65 311.924C588.25 304.524 585.55 299.924 585.55 298.124L588.25 273.524C588.85 269.324 589.35 265.024 589.75 260.624C590.15 256.024 590.45 251.824 590.65 248.024C590.85 244.224 590.95 240.924 590.95 238.124C591.15 235.324 591.25 233.624 591.25 233.024C592.85 232.224 595.15 230.324 598.15 227.324C601.15 224.124 603.85 219.724 606.25 214.124C611.25 203.724 613.05 194.524 611.65 186.524C612.65 186.124 615.45 185.424 620.05 184.424C624.65 183.424 629.35 181.924 634.15 179.924C638.95 178.124 642.65 176.724 645.25 175.724C647.85 174.724 649.35 174.124 649.75 173.924C649.95 173.724 650.75 173.424 652.15 173.024C653.75 172.624 655.45 172.324 657.25 172.124C659.25 171.724 661.15 171.424 662.95 171.224C664.75 170.824 666.05 170.624 666.85 170.624L676.15 161.624L703.15 161.324L709.75 165.524L707.95 175.124L701.35 180.224ZM908.491 244.424C908.491 245.024 908.291 246.024 907.891 247.424C907.691 248.624 907.391 249.924 906.991 251.324C906.591 252.724 906.191 254.024 905.791 255.224C905.591 256.424 905.491 257.324 905.491 257.924C898.491 258.524 893.891 259.124 891.691 259.724C889.691 260.124 888.491 260.324 888.091 260.324H867.991C864.991 260.324 862.691 260.324 861.091 260.324C859.491 260.124 858.191 260.024 857.191 260.024C856.391 260.024 855.791 260.124 855.391 260.324C854.991 260.324 854.391 260.424 853.591 260.624L847.291 264.524L837.991 260.324C837.791 259.324 836.791 258.224 834.991 257.024C833.391 255.824 832.291 254.424 831.691 252.824L841.291 239.624C845.291 239.624 847.391 239.724 847.591 239.924C847.991 239.924 848.091 239.824 847.891 239.624C847.891 239.424 848.491 239.224 849.691 239.024C850.891 238.624 852.291 238.324 853.891 238.124L858.391 237.224C859.791 237.024 866.291 237.324 877.891 238.124C878.091 238.124 879.491 238.624 882.091 239.624C883.091 240.024 885.591 239.924 889.591 239.324C893.791 238.524 898.491 238.124 903.691 238.124L908.491 244.424ZM909.691 326.024C909.291 327.224 908.991 328.624 908.791 330.224C908.791 331.824 908.991 332.924 909.391 333.524C908.991 333.924 907.791 334.424 905.791 335.024C903.791 335.624 900.991 336.624 897.391 338.024C893.591 339.024 889.991 339.224 886.591 338.624C883.191 338.024 879.891 338.124 876.691 338.924C866.891 338.924 856.791 340.424 846.391 343.424C843.591 344.224 841.191 344.924 839.191 345.524C837.191 346.124 835.491 346.624 834.091 347.024C833.291 347.424 832.491 347.724 831.691 347.924C831.091 347.924 830.491 348.024 829.891 348.224L806.491 349.124C804.691 349.724 802.791 349.924 800.791 349.724C798.791 349.324 796.791 348.924 794.791 348.524C792.791 347.924 790.991 347.324 789.391 346.724C787.791 346.124 786.491 345.824 785.491 345.824C784.491 345.824 782.791 345.924 780.391 346.124C777.991 346.124 775.791 346.124 773.791 346.124C771.791 344.724 769.991 343.324 768.391 341.924C766.791 340.324 766.691 337.624 768.091 333.824C768.491 331.824 769.191 329.824 770.191 327.824C771.391 325.624 771.791 323.424 771.391 321.224C771.191 320.424 770.691 319.124 769.891 317.324C769.291 315.524 768.791 313.624 768.391 311.624C768.191 309.624 768.191 307.624 768.391 305.624C768.791 303.624 769.891 301.924 771.691 300.524C773.291 297.924 773.991 295.524 773.791 293.324C773.591 290.924 772.691 288.424 771.091 285.824C772.291 284.424 772.991 282.824 773.191 281.024C773.591 279.024 773.691 277.124 773.491 275.324C773.291 273.524 772.891 271.924 772.291 270.524C771.891 269.124 771.491 268.124 771.091 267.524C771.691 264.724 772.291 261.024 772.891 256.424C773.491 251.624 773.991 246.824 774.391 242.024C774.991 237.024 775.391 232.424 775.591 228.224C775.791 224.024 775.791 220.924 775.591 218.924C775.391 216.324 775.591 213.624 776.191 210.824C776.791 208.024 777.491 205.224 778.291 202.424C779.091 199.424 779.691 196.524 780.091 193.724C780.491 190.924 780.391 188.324 779.791 185.924L780.391 184.124C780.791 183.724 780.091 180.624 778.291 174.824L783.091 164.324H783.391C787.391 164.124 791.491 163.924 795.691 163.724C799.891 163.524 803.691 163.324 807.091 163.124C810.691 162.924 813.591 162.824 815.791 162.824C818.191 162.624 819.491 162.524 819.691 162.524H861.091C862.491 162.524 864.291 163.224 866.491 164.624C868.891 165.824 876.891 166.424 890.491 166.424C890.691 167.224 890.891 168.024 891.091 168.824C891.291 169.624 891.491 170.424 891.691 171.224C892.291 174.824 892.991 177.624 893.791 179.624L891.991 182.624C888.991 182.824 886.691 182.924 885.091 182.924C883.491 182.924 882.291 182.924 881.491 182.924C880.891 182.724 880.491 182.624 880.291 182.624C880.091 182.424 879.891 182.324 879.691 182.324L856.291 179.324C850.491 178.124 843.291 178.824 834.691 181.424C830.891 182.424 827.791 182.724 825.391 182.324C822.991 181.724 821.391 181.624 820.591 182.024C818.191 181.224 816.191 181.224 814.591 182.024C812.991 182.824 812.491 184.324 813.091 186.524C813.691 188.524 814.391 189.724 815.191 190.124C815.991 190.524 816.591 191.324 816.991 192.524C816.591 193.124 816.691 194.024 817.291 195.224C818.091 196.224 818.991 197.224 819.991 198.224C821.191 199.424 822.391 200.224 823.591 200.624C824.791 200.824 825.391 201.024 825.391 201.224C825.391 201.624 824.891 203.724 823.891 207.524C822.891 211.124 822.091 215.524 821.491 220.724C820.891 225.924 820.691 231.524 820.891 237.524C821.291 243.524 822.791 249.124 825.391 254.324C824.391 256.524 823.491 260.724 822.691 266.924C821.891 272.924 821.191 279.124 820.591 285.524C820.191 291.924 819.891 297.724 819.691 302.924C819.491 307.924 819.391 310.624 819.391 311.024C819.191 311.024 818.891 311.424 818.491 312.224C818.291 312.824 817.991 313.524 817.591 314.324C817.191 315.124 816.691 315.824 816.091 316.424C815.491 316.824 814.791 316.824 813.991 316.424V319.124C813.991 319.124 814.591 319.124 815.791 319.124H816.991C816.791 320.124 816.691 321.524 816.691 323.324C816.691 325.124 816.591 326.624 816.391 327.824L839.191 324.824C843.191 325.224 847.791 325.324 852.991 325.124C858.391 324.924 864.391 324.224 870.991 323.024C877.591 322.024 882.991 321.724 887.191 322.124C891.391 322.524 894.491 321.824 896.491 320.024L903.991 319.724L909.691 326.024Z" fill="white"/>
<path d="M904.066 295.824L908.075 321.307L933.549 317.245L910.553 328.932L922.288 351.904L904.066 333.644L885.845 351.904L897.58 328.932L874.584 317.245L900.058 321.307L904.066 295.824Z" fill="white"/>
<path d="M539.96 136.832L529.435 160.383L553.008 170.859L527.357 168.127L524.679 193.783L519.351 168.544L494.122 173.925L516.48 161.058L503.566 138.727L522.712 156.014L539.96 136.832Z" fill="white"/>
</svg>
