<svg width="1186" height="1186" viewBox="0 0 1186 1186" fill="none" xmlns="http://www.w3.org/2000/svg">
<path d="M593.254 0.414062L609.774 367.203L679.523 6.72809L642.462 372.014L763.953 25.5357L674.101 381.532L844.745 56.436L704.016 395.556L920.176 98.7704L731.572 413.787L988.64 151.637L756.179 435.835L1048.68 213.908L777.313 461.231L1099.01 284.257L794.525 489.433L1138.56 361.185L807.447 519.841L1166.49 443.051L815.804 551.807L1182.2 528.112L819.418 584.649L1185.36 614.553L818.211 617.666L1175.9 700.534L812.21 650.157L1154.02 784.221L801.542 681.427L1120.19 863.83L786.435 710.811L1075.13 937.665L767.21 737.682L1019.8 1004.15L744.278 761.467L955.374 1061.88L718.127 781.66L883.234 1109.6L689.315 797.83L804.913 1146.32L658.455 809.633L722.081 1171.24L626.206 816.817L636.504 1183.83L593.254 819.229L550.004 1183.83L560.302 816.817L464.427 1171.24L528.053 809.633L381.595 1146.32L497.193 797.83L303.274 1109.6L468.381 781.66L231.133 1061.88L442.23 761.467L166.711 1004.15L419.298 737.682L111.38 937.665L400.073 710.811L66.3187 863.83L384.966 681.427L32.4883 784.221L374.298 650.157L10.6097 700.534L368.297 617.666L1.14917 614.553L367.09 584.649L4.30835 528.112L370.704 551.807L20.0198 443.051L379.061 519.841L47.9488 361.185L391.983 489.433L87.5 284.257L409.194 461.231L137.83 213.908L430.329 435.835L197.868 151.637L454.936 413.787L266.332 98.7704L482.491 395.556L341.763 56.436L512.407 381.532L422.555 25.5357L544.046 372.014L506.985 6.72809L576.734 367.203L593.254 0.414062Z" fill="#FFDB43"/>
</svg>
