<svg width="1090" height="1010" viewBox="0 0 1090 1010" fill="none" xmlns="http://www.w3.org/2000/svg">
<g clip-path="url(#clip0_4090_7706)">
<path d="M1074.07 464.282L1072.99 462.739C1043.44 419.69 981.26 414.752 945.849 453.172C923.784 477.166 901.334 496.53 879.655 512.114C816.624 552.232 782.061 565.193 752.436 572.367C743.641 574.528 737.932 563.418 744.721 557.478C784.453 522.375 819.864 480.02 850.57 436.431C887.833 383.584 918.229 328.962 940.911 283.29C947.006 271.024 952.561 259.374 957.575 248.573C976.94 206.604 961.896 156.92 922.164 132.387C922.164 132.387 921.47 131.924 920.235 131.23C902.877 120.506 883.512 116.494 864.842 118.423C833.983 121.432 805.206 140.565 791.782 171.656C772.032 217.251 752.05 257.137 733.303 291.005C699.358 352.493 669.424 394.616 652.374 416.989C649.905 420.307 644.813 417.452 646.279 413.595C662.789 368.694 670.504 321.788 672.51 276.347C676.213 197.115 662.866 122.28 649.519 69.279C638.256 24.6869 595.592 -4.55261 549.843 0.539227L546.371 1.00212C489.589 7.40549 453.098 62.9528 467.911 118.114C471.845 132.695 475.24 147.199 478.171 161.395C498.925 261.611 497.15 349.407 493.524 397.239C493.061 404.106 483.34 405.031 481.489 398.397C474.777 374.943 465.442 354.576 454.41 336.986C409.046 264.62 324.259 226.894 240.553 236.538C236.695 237.001 232.915 237.541 228.98 238.158C151.677 251.196 21.4494 334.286 88.5691 425.322C115.417 461.736 165.024 476.626 204.987 452.324C205.604 451.938 206.144 451.629 206.761 451.244C222.885 441.831 240.784 437.743 257.834 438.9C286.07 440.751 311.838 456.953 322.948 487.041C335.214 520.138 328.58 559.098 317.239 591.423C303.043 632.235 244.641 731.603 192.72 675.516C186.625 668.881 181.996 661.012 178.525 652.294C170.656 632.852 168.341 609.785 166.952 590.652C164.175 552 134.164 520.755 95.8211 515.123C89.4948 514.197 83.2458 513.966 77.2282 514.429C34.7962 517.746 -0.306577 553.157 0.0020193 597.672C0.464913 662.092 18.6721 726.974 58.8667 777.121C66.5816 786.765 75.1451 795.868 84.4802 804.354C93.198 812.224 102.224 819.63 111.405 826.728C113.102 828.039 114.8 829.274 116.497 830.508C159.469 862.602 207.224 887.29 255.134 911.746C275.115 922.007 295.097 932.19 314.77 942.837C394.079 985.809 487.584 1033.64 578.311 994.758C636.095 969.993 686.782 912.44 717.256 857.973C719.416 854.116 721.499 850.258 723.428 846.401C739.552 815.078 755.059 781.055 781.29 758.451C792.245 748.961 805.206 741.478 820.79 737.081C849.027 729.134 874.717 719.259 898.093 707.995C909.743 702.518 920.93 696.577 931.499 690.405C950.709 679.296 968.068 667.261 983.729 654.917C1025 622.437 1054.17 587.952 1073.45 560.564C1093.82 531.787 1094.21 493.676 1073.99 464.205L1074.07 464.282Z" fill="#FFE1C2"/>
<path d="M649.678 69.2831C663.025 122.284 676.294 197.196 672.668 276.351C598.991 253.361 532.643 213.629 478.33 161.476C475.398 147.281 472.004 132.777 468.069 118.196C453.257 62.9569 489.748 7.40964 546.53 1.08343L550.002 0.620534C595.751 -4.4713 638.414 24.691 649.678 69.3603V69.2831Z" fill="#FFDEB3"/>
<path d="M957.727 248.57C952.712 259.371 947.158 270.943 941.063 283.287C902.103 293.239 861.291 298.485 819.245 298.485C790.005 298.485 761.306 295.939 733.455 291.079C752.202 257.211 772.184 217.325 791.934 171.652C805.435 140.561 834.135 121.428 864.994 118.42C883.587 116.491 903.029 120.503 920.387 131.226C921.621 131.998 922.316 132.383 922.316 132.383C962.048 156.917 977.014 206.601 957.727 248.57Z" fill="#FFDEB3"/>
<path d="M167.182 590.732C168.571 609.865 170.885 632.932 178.754 652.374C146.429 700.669 105.771 743.024 58.9419 777.124C18.6701 726.977 0.540109 662.095 6.61584e-05 597.675C-0.30853 553.083 34.7943 517.749 77.3805 514.509C83.3981 514.046 89.6472 514.277 95.9734 515.203C134.394 520.835 164.327 552.08 167.105 590.732H167.182Z" fill="#FFDEB3"/>
<path d="M261.528 378.954C261.528 399.321 260.294 419.303 257.902 439.053C240.852 437.896 222.953 441.985 206.829 451.397C206.212 451.783 205.672 452.091 205.055 452.477C165.092 476.779 115.485 461.889 88.637 425.475C21.5174 334.439 151.822 251.35 229.048 238.312C232.906 237.694 236.763 237.154 240.621 236.691C254.199 281.746 261.528 329.502 261.528 379.031V378.954Z" fill="#FFDEB3"/>
<path d="M1073.52 560.644C1054.23 588.032 1024.99 622.595 983.797 654.997C941.056 614.34 905.645 565.967 879.723 512.117C901.402 496.533 923.775 477.092 945.916 453.175C981.328 414.755 1043.43 419.693 1073.06 462.742L1074.14 464.285C1094.35 493.756 1093.89 531.867 1073.6 560.644H1073.52Z" fill="#FFDEB3"/>
<path d="M781.289 758.529C755.058 781.133 739.551 815.156 723.427 846.479C721.498 850.259 719.415 854.194 717.255 858.051C686.781 912.518 636.095 970.071 578.31 994.836C487.66 1033.72 394.155 985.887 314.769 942.915C295.096 932.268 275.114 922.085 255.133 911.824C296.639 777.97 421.389 680.686 568.975 680.686C649.904 680.686 724.044 709.925 781.212 758.529H781.289Z" fill="#FFDEB3"/>
</g>
<defs>
<clipPath id="clip0_4090_7706">
<rect width="1089.04" height="1009.19" fill="white" transform="translate(0 -0.00390625)"/>
</clipPath>
</defs>
</svg>
