<svg width="940" height="949" viewBox="0 0 940 949" fill="none" xmlns="http://www.w3.org/2000/svg">
<g clip-path="url(#clip0_4090_8125)">
<path d="M122.607 402.445L360.7 361.48C376.85 356.906 389.673 344.429 394.664 328.348L429.736 230.893C434.866 197.346 432.024 163.035 421.349 130.804L394.525 49.5688C388.425 31.1314 400.209 11.5849 419.409 8.39651L455.729 2.36622C503.209 -5.53554 550.619 16.4369 575.295 57.7479L606.694 110.426C627.488 157.352 631.093 181.958 632.548 238.726L632.202 314.07L843.47 292.236C864.056 289.256 896.703 311.089 897.396 331.883L910.981 716.436C912.367 756.291 883.949 790.948 844.579 797.394L354.947 877.105L182.702 905.385L122.607 402.445Z" fill="#FFDEB3"/>
<path d="M228.456 361.82L322.584 895.536L97.869 948.977L-0.00195312 390.724L228.456 361.82Z" fill="#FF948E"/>
<path d="M229.288 841.822C232.962 867.121 215.495 890.688 190.126 894.431C164.827 898.174 141.26 880.637 137.517 855.269C133.774 829.969 151.31 806.403 176.679 802.66C201.979 798.917 225.545 816.453 229.288 841.822Z" fill="white"/>
<path d="M589.025 413.6L596.858 458.654C600.115 477.3 616.473 490.885 635.396 490.538L761.131 488.598C794.471 488.043 827.256 479.795 856.853 464.338L897.263 443.267C919.028 431.899 931.643 408.332 929.009 383.934L926.306 358.704C921.176 311.155 873.142 280.726 827.949 296.46L614.325 370.695C596.511 376.864 585.767 395.093 589.025 413.67V413.6Z" fill="#FFDEB3"/>
<path d="M635.402 490.611L623.55 497.612C607.677 507.039 599.082 525.06 601.785 543.29L606.36 574.55C609.479 595.968 627.293 612.188 648.988 613.366L758.989 619.119C775.763 620.02 792.606 619.465 809.31 617.455L881.189 608.999C916.123 604.91 941.769 574.204 939.689 539.131L936.501 486.175C934.976 460.183 918.133 437.517 893.734 428.506L880.911 423.793L635.472 490.611H635.402Z" fill="#FFDEB3"/>
<path d="M665.629 589.859L636.101 618.694C626.813 627.774 621.129 639.904 620.159 652.865L618.287 677.333C617.04 693.76 625.496 709.356 639.983 717.188L646.637 720.793C652.667 724.05 659.46 725.714 666.391 725.506L850.211 720.446C861.509 720.169 872.669 718.159 883.343 714.554L903.167 707.9C924.515 700.692 938.932 680.591 938.794 658.064L938.655 616.268C938.655 598.593 924.099 584.453 906.424 584.799L665.629 589.859Z" fill="#FFDEB3"/>
<path d="M677.402 701.039C660.004 702.91 645.725 715.803 642.26 732.992L637.754 755.242C631.308 776.313 646.141 797.87 668.114 799.326L816.168 809.307C823.931 809.861 831.763 809.723 839.526 808.891L869.747 805.772C905.79 802.029 932.961 771.323 932.268 735.141C931.644 702.286 903.018 677.056 870.371 680.522L677.332 700.969L677.402 701.039Z" fill="#FFDEB3"/>
</g>
<defs>
<clipPath id="clip0_4090_8125">
<rect width="939.755" height="948.142" fill="white" transform="translate(-0.00195312 0.839844)"/>
</clipPath>
</defs>
</svg>
