<svg width="1065" height="1584" viewBox="0 0 1065 1584" fill="none" xmlns="http://www.w3.org/2000/svg">
<g clip-path="url(#clip0_4090_7750)">
<path d="M681.536 787.598L383.213 1583.8L228.991 1416.03L0 1423.55L328.265 653.699L681.536 787.598Z" fill="#5765C1"/>
<g style="mix-blend-mode:multiply" opacity="0.4">
<path d="M681.536 787.596L383.213 1583.79L228.991 1416.02L0 1423.55C0 1423.55 438.913 1218.73 681.536 787.596Z" fill="#C1C1C1"/>
</g>
<path d="M1041.58 1456.67L814.263 1428.4L669.659 1559.46L645.489 1581.37L425.279 775.889L789.34 674.691L1041.58 1456.67Z" fill="#5F68CE"/>
<g style="mix-blend-mode:multiply" opacity="0.4">
<path d="M1041.59 1456.67L814.268 1428.4L669.664 1559.46C711.983 1462.19 824.388 1152.75 789.345 674.691L1041.59 1456.67Z" fill="#C1C1C1"/>
</g>
<path d="M1012.31 733.906C989.062 778.483 909.358 781.661 874.148 815.951C838.52 850.827 833.502 930.196 788.924 952.359C744.849 974.271 678.611 930.53 628.932 937.807C580.926 944.832 530.243 1006.55 479.812 997.94C429.297 989.409 401.865 914.556 358.877 892.059C314.299 868.725 237.356 888.295 202.898 853.085C197.462 847.565 193.448 840.958 190.437 833.849C173.71 794.541 186.088 733.906 167.354 696.271C145.525 652.195 71.258 622.923 63.8982 573.244C56.8729 525.238 119.013 475.894 127.46 425.462C136.075 375.115 93.5884 308.123 116.086 265.135C139.42 220.475 219.124 217.38 254.334 182.923C289.878 148.215 294.98 68.6782 339.473 46.5151C383.549 24.6029 449.871 68.4273 499.55 61.1511C547.556 54.1258 598.238 -7.59634 648.586 0.934366C699.018 9.54871 726.533 84.3178 769.521 106.899C771.863 108.154 774.288 109.241 776.797 110.161C822.127 128.226 892.798 112.419 925.416 145.705C960.291 181.334 938.797 258.026 960.96 302.52C982.873 346.679 1057.14 375.867 1064.42 425.63C1071.44 473.636 1009.47 522.813 1000.85 573.328C992.323 623.843 1034.81 690.751 1012.23 733.822L1012.31 733.906Z" fill="#F94B46"/>
<path d="M768.167 844.851C958.864 732.208 1022.14 486.302 909.496 295.605C796.853 104.908 550.947 41.6328 360.25 154.276C169.553 266.919 106.278 512.825 218.921 703.522C331.564 894.219 577.47 957.494 768.167 844.851Z" fill="#E82D2D"/>
<path d="M257.929 394.847C266.126 404.8 274.154 415.171 282.769 425.039C315.135 461.922 347.753 498.721 380.286 535.52C387.312 543.549 394.672 551.327 401.362 559.607C403.119 561.782 404.206 565.796 403.537 568.472C388.483 629.525 373.094 690.411 357.789 751.381C355.447 760.831 353.189 770.366 350.429 781.573C369.079 773.544 385.89 766.268 402.7 758.992C451.877 737.665 501.222 716.422 550.315 694.928C554.831 692.92 558.177 693.088 562.358 695.764C621.572 733.065 680.868 770.115 740.081 807.249C741.838 808.336 743.594 809.339 746.103 810.761C746.27 808.252 746.772 806.245 746.521 804.405C741.085 747.032 735.649 689.659 730.129 632.369C728.874 619.238 727.787 606.191 726.282 593.061C725.78 588.712 727.62 586.203 730.714 583.61C785.579 537.862 840.443 492.031 895.307 446.115C896.06 445.53 896.645 444.694 897.983 443.355C883.598 440.094 870.049 437.083 856.417 433.988C812.007 424.036 767.597 414.083 723.187 404.131C710.809 401.371 698.348 398.276 685.886 396.018C680.701 395.015 678.108 392.757 676.185 387.906C650.174 322.755 623.913 257.687 597.736 192.703C597.15 191.281 596.481 189.943 595.645 188.187C595.394 187.601 595.059 186.932 594.725 186.18C590.125 193.874 585.943 200.732 581.845 207.674C548.893 263.374 516.109 319.158 482.906 374.692C481.484 377.033 477.971 379.291 475.211 379.542C404.373 384.644 333.535 389.411 262.78 394.262C260.94 394.429 259.1 394.764 257.846 394.931L257.929 394.847Z" fill="#F6F14B"/>
<g style="mix-blend-mode:multiply" opacity="0.4">
<path d="M1012.31 733.907C989.056 778.484 909.353 781.662 874.143 815.953C838.514 850.828 833.496 930.197 788.919 952.36C744.844 974.272 678.605 930.532 628.927 937.808C580.921 944.833 530.238 1006.56 479.807 997.941C429.291 989.41 401.859 914.557 358.871 892.06C314.294 868.726 237.351 888.296 202.893 853.086C197.457 847.566 193.442 840.959 190.432 833.85C226.729 822.058 260.601 808.844 292.549 794.458C314.21 784.757 334.952 774.386 354.773 763.597C534.754 665.662 638.712 527.916 698.761 398.533C740.829 308.041 761.236 221.647 771.189 155.91C773.698 139.183 775.621 123.878 776.876 110.162C822.206 128.227 892.877 112.42 925.494 145.707C960.37 181.335 938.876 258.028 961.039 302.521C982.951 346.68 1057.22 375.868 1064.49 425.631C1071.52 473.637 1009.55 522.814 1000.93 573.329C992.402 623.844 1034.89 690.752 1012.31 733.824V733.907Z" fill="#C1C1C1"/>
</g>
</g>
<defs>
<clipPath id="clip0_4090_7750">
<rect width="1065" height="1583.62" fill="white" transform="translate(0 0.175781)"/>
</clipPath>
</defs>
</svg>
