<svg width="1353" height="991" viewBox="0 0 1353 991" fill="none" xmlns="http://www.w3.org/2000/svg">
<path d="M250.238 326.33C249.483 332.309 242.768 335.333 237.868 331.858C117.568 246.769 -45.7984 308.481 16.6788 454.514C69.146 577.136 252.812 704.401 384.146 734.484C401.979 738.598 420.615 731.099 430.692 715.87C505.063 603.488 550.154 384.614 503.604 259.667C448.104 110.877 267.3 183.971 250.239 326.242L250.238 326.33Z" fill="#F79384"/>
<path d="M330.413 245.149C334.659 242.632 339.514 241.002 343.76 238.573C348.006 236.145 352.601 234.072 357.28 232.352C359.487 231.578 361.782 230.894 364.076 230.209L366.281 229.7C364.694 230.038 367.781 229.273 366.281 229.7L369.72 229.025C375.891 227.846 380.934 224.896 385.97 222.651C388.798 221.355 389.966 218.548 386.72 217.288C381.194 215.04 374.256 213.22 367.201 214.832C361.468 216.104 355.906 218.08 350.693 220.412C345.038 222.917 339.819 225.953 334.861 229.343C330.079 232.647 326.869 237.461 323.929 241.66C322.682 243.41 323.193 245.351 324.595 246.067C326.172 246.961 328.378 246.364 330.412 245.237L330.413 245.149Z" fill="#FFFFEE"/>
<path d="M423.733 232.66C431.035 233.075 438.407 235.603 445.251 238.214C452.27 240.826 458.925 244.844 464.866 250C467.662 252.401 470.368 255.065 472.721 257.901L474.986 260.561C473.507 258.524 476.466 262.511 474.986 260.561L478.204 265.078C483.679 273.399 489.253 280.224 493.592 287.567C495.933 291.636 499.178 293.072 499.137 287.614C499.215 278.461 497.198 267.265 490.417 257.349C484.94 249.38 477.959 242.367 470.348 236.844C462.125 230.876 452.832 226.572 443.257 224.289C434.12 222.363 424.782 223.251 418.152 226.539C415.585 228.19 416.448 230.221 417.673 231.112C418.984 232.18 420.479 232.368 423.735 232.484L423.733 232.66Z" fill="#FFFFEE"/>
<path d="M391.939 205.112C394.139 205.131 396.331 206.118 398.533 205.961C400.823 205.804 403.111 205.912 405.309 206.195C406.363 206.38 407.418 206.565 408.472 206.838L409.438 207.11C408.736 206.84 410.141 207.292 409.438 207.11L410.93 207.651C413.562 208.642 416.74 207.525 419.651 206.845C421.327 206.42 423.105 204.322 422.418 202.292C421.303 198.85 419.399 195.137 415.974 194.139C413.253 193.324 410.351 192.947 407.624 192.835C404.631 192.81 401.636 193.048 398.639 193.551C395.818 194.055 393.068 196.584 390.763 198.5C389.788 199.284 389.42 201.217 389.672 202.628C390.01 204.215 390.884 204.927 391.94 205.024L391.939 205.112Z" fill="#FFFFEE"/>
<path d="M370.196 258.081C372.49 257.484 374.951 257.857 377.158 257.172C379.452 256.488 381.832 256.068 384.297 256.089C385.441 256.099 386.585 256.109 387.728 256.206L388.783 256.391C387.992 256.209 389.574 256.486 388.783 256.391L390.452 256.758C393.439 257.4 396.532 256.018 399.708 255.165C401.473 254.652 403.165 252.378 402.125 250.432C400.394 246.985 397.609 243.352 393.565 242.701C390.313 242.145 387.055 242.293 383.884 242.618C380.447 243.029 377.182 244.057 374.09 245.351C371.086 246.646 368.859 249.795 366.989 252.332C366.187 253.381 366.347 255.319 367.129 256.558C367.909 257.973 369.049 258.423 370.107 258.168L370.196 258.081Z" fill="#FFFFEE"/>
<path d="M438.645 261.491C440.136 262.12 441.268 263.538 442.937 263.993C444.605 264.447 446.272 265.078 447.761 265.971C448.461 266.417 449.161 266.863 449.774 267.308L450.385 267.841L451.258 268.729C452.741 270.238 455.647 270.087 458.374 270.286C459.87 270.387 462.345 269.088 462.713 267.243C463.445 264.08 463.652 260.385 461.468 258.518C459.72 257.007 457.617 255.933 455.512 255.034C453.232 254.047 450.772 253.497 448.398 253.213C446.024 252.929 443.019 254.399 440.544 255.522C439.485 255.953 438.502 257.617 438.138 259.023C437.773 260.516 438.117 261.487 438.731 261.756L438.645 261.491Z" fill="#FFFFEE"/>
<path d="M475.328 304.675C477.511 306.807 478.982 309.724 481.164 311.855C483.346 314.074 485.349 316.556 486.91 319.298C487.692 320.537 488.384 321.951 488.989 323.277L489.505 324.601C489.161 323.63 489.938 325.485 489.505 324.601L490.191 326.72C491.391 330.515 494.448 333.27 496.887 336.283C498.193 337.967 501.093 338.52 502.257 336.153C504.228 332.209 505.768 327.029 503.961 322.26C502.497 318.463 500.415 314.836 497.978 311.647C495.455 308.192 492.4 305.174 489.166 302.593C486.019 300.014 481.624 299.272 478.021 298.625C476.527 298.348 474.933 299.479 474.305 300.794C473.676 302.373 474.105 303.697 475.152 304.762L475.328 304.675Z" fill="#FFFFEE"/>
<path d="M1039.88 254.972C1036.25 259.828 1028.88 259.148 1026.32 253.682C963.211 119.684 789.745 92.7831 772.095 251.464C757.28 384.709 854.936 586.976 954.929 678.318C968.492 690.746 988.508 693.414 1004.86 685.081C1125.56 623.594 1273.38 454.453 1294.52 322.103C1319.64 164.465 1125.29 138.886 1039.92 254.895L1039.88 254.972Z" fill="#F79384"/>
<path d="M1150.21 223.649C1155.17 223.55 1160.22 224.528 1165.14 224.506C1170.05 224.484 1175.1 224.945 1180.05 225.757C1182.36 226.173 1184.7 226.711 1187.05 227.248L1189.23 227.894C1187.68 227.404 1190.76 228.263 1189.23 227.894L1192.57 229.006C1198.56 231.03 1204.43 230.947 1209.95 231.476C1213.06 231.742 1215.47 229.865 1213.26 227.156C1209.54 222.454 1204.37 217.426 1197.4 215.343C1191.75 213.617 1185.91 212.593 1180.19 212.051C1174.01 211.442 1167.94 211.514 1161.92 212.025C1156.1 212.548 1150.91 215.169 1146.26 217.387C1144.3 218.3 1143.79 220.251 1144.66 221.572C1145.6 223.135 1147.82 223.704 1150.16 223.726L1150.21 223.649Z" fill="#FFFFEE"/>
<path d="M1238.02 258.933C1244.21 262.911 1249.4 268.772 1254.1 274.445C1258.94 280.206 1262.78 287.015 1265.42 294.468C1266.68 297.952 1267.73 301.622 1268.38 305.268L1269.04 308.717C1268.76 306.203 1269.37 311.154 1269.04 308.717L1269.62 314.261C1270.29 324.25 1271.79 332.981 1271.95 341.553C1271.98 346.272 1274.11 349.134 1276.78 344.34C1281.38 336.371 1285.16 325.579 1284.13 313.547C1283.29 303.864 1280.65 294.272 1276.73 285.673C1272.49 276.381 1266.49 268.014 1259.25 261.277C1252.21 255.067 1243.6 251.221 1236.17 250.815C1233.11 250.988 1232.86 253.192 1233.49 254.578C1234.11 256.161 1235.32 257.066 1238.11 258.78L1238.02 258.933Z" fill="#FFFFEE"/>
<path d="M1223.85 219.09C1225.77 220.196 1227.19 222.145 1229.2 223.097C1231.28 224.094 1233.23 225.321 1235.01 226.657C1235.84 227.341 1236.67 228.025 1237.46 228.786L1238.17 229.502C1237.69 228.918 1238.69 230.009 1238.17 229.502L1239.21 230.714C1241.02 232.884 1244.35 233.48 1247.23 234.327C1248.91 234.785 1251.5 233.83 1251.91 231.714C1252.64 228.151 1252.81 223.96 1250.31 221.392C1248.33 219.331 1245.98 217.564 1243.65 216.116C1241.04 214.612 1238.31 213.338 1235.44 212.294C1232.72 211.338 1229.06 212.189 1226.1 212.724C1224.85 212.927 1223.57 214.436 1223.1 215.795C1222.61 217.351 1223.02 218.406 1223.89 219.013L1223.85 219.09Z" fill="#FFFFEE"/>
<path d="M1178.6 254.661C1180.91 255.275 1182.87 256.82 1185.14 257.313C1187.49 257.85 1189.78 258.661 1191.93 259.9C1192.92 260.475 1193.92 261.05 1194.87 261.702L1195.7 262.386C1195.1 261.834 1196.35 262.86 1195.7 262.386L1196.98 263.533C1199.27 265.573 1202.66 265.895 1205.87 266.722C1207.66 267.147 1210.27 265.995 1210.32 263.779C1210.52 259.906 1209.88 255.349 1206.66 252.777C1204.09 250.681 1201.17 249.197 1198.23 247.911C1195.02 246.569 1191.66 245.852 1188.31 245.453C1185.05 245.098 1181.54 246.751 1178.65 248.044C1177.42 248.565 1176.6 250.339 1176.68 251.81C1176.66 253.434 1177.43 254.392 1178.48 254.693L1178.6 254.661Z" fill="#FFFFEE"/>
<path d="M1236.79 291.536C1237.79 292.824 1238.07 294.625 1239.31 295.849C1240.54 297.072 1241.69 298.449 1242.55 299.968C1242.94 300.705 1243.33 301.441 1243.65 302.134L1243.92 302.904L1244.24 304.112C1244.79 306.167 1247.41 307.473 1249.7 308.998C1250.96 309.827 1253.76 309.916 1255 308.484C1257.21 306.079 1259.22 302.95 1258.23 300.235C1257.45 298.048 1256.14 296.066 1254.75 294.239C1253.24 292.246 1251.36 290.547 1249.42 289.123C1247.49 287.699 1244.13 287.497 1241.41 287.255C1240.27 287.107 1238.59 288.076 1237.57 289.125C1236.51 290.251 1236.33 291.27 1236.74 291.81L1236.79 291.536Z" fill="#FFFFEE"/>
<path d="M1247.5 347.475C1248.36 350.42 1248.2 353.7 1249.05 356.645C1249.86 359.666 1250.38 362.829 1250.39 366.001C1250.46 367.472 1250.37 369.051 1250.24 370.51L1250.04 371.925C1250.22 370.905 1249.98 372.912 1250.04 371.925L1249.59 374.118C1248.76 378.032 1250.07 381.955 1250.71 385.799C1251.02 387.918 1253.28 389.838 1255.47 388.344C1259.15 385.87 1263.06 382.101 1263.84 377.035C1264.44 372.988 1264.42 368.785 1263.86 364.788C1263.37 360.517 1262.19 356.363 1260.64 352.505C1259.16 348.69 1255.68 345.865 1252.85 343.515C1251.68 342.533 1249.73 342.733 1248.53 343.573C1247.2 344.642 1246.92 346.013 1247.3 347.463L1247.5 347.475Z" fill="#FFFFEE"/>
<path d="M635.91 536.338C635.475 539.779 631.61 541.52 628.79 539.52C559.547 490.544 465.517 526.065 501.477 610.118C531.677 680.697 637.391 753.948 712.984 771.263C723.249 773.631 733.975 769.315 739.775 760.549C782.582 695.865 808.535 569.885 781.742 497.968C749.798 412.327 645.73 454.399 635.91 536.287L635.91 536.338Z" fill="#F79384"/>
<path d="M682.057 489.611C684.501 488.163 687.295 487.224 689.739 485.826C692.183 484.429 694.828 483.235 697.521 482.245C698.792 481.8 700.112 481.406 701.433 481.012L702.702 480.719C701.788 480.914 703.565 480.473 702.702 480.719L704.681 480.331C708.233 479.652 711.136 477.954 714.035 476.662C715.662 475.916 716.335 474.3 714.466 473.575C711.286 472.281 707.292 471.234 703.231 472.162C699.932 472.893 696.73 474.031 693.73 475.373C690.475 476.815 687.471 478.562 684.617 480.514C681.865 482.415 680.017 485.186 678.325 487.603C677.607 488.61 677.901 489.727 678.708 490.14C679.616 490.654 680.885 490.31 682.056 489.662L682.057 489.611Z" fill="#FFFFEE"/>
<path d="M735.771 482.424C739.974 482.663 744.217 484.118 748.156 485.621C752.196 487.124 756.027 489.437 759.446 492.405C761.056 493.786 762.613 495.32 763.967 496.952L765.271 498.483C764.42 497.311 766.123 499.605 765.271 498.483L767.123 501.083C770.274 505.872 773.483 509.801 775.98 514.027C777.328 516.369 779.195 517.196 779.172 514.055C779.217 508.786 778.056 502.342 774.153 496.634C771 492.048 766.982 488.011 762.602 484.832C757.869 481.397 752.52 478.92 747.008 477.606C741.749 476.497 736.374 477.008 732.558 478.901C731.081 479.851 731.578 481.02 732.283 481.533C733.037 482.147 733.898 482.256 735.772 482.323L735.771 482.424Z" fill="#FFFFEE"/>
<path d="M717.469 466.567C718.735 466.578 719.997 467.146 721.264 467.055C722.582 466.965 723.899 467.027 725.164 467.19C725.771 467.296 726.378 467.403 726.985 467.56L727.541 467.717C727.137 467.561 727.945 467.822 727.541 467.717L728.4 468.028C729.915 468.598 731.744 467.956 733.419 467.565C734.384 467.319 735.408 466.112 735.012 464.944C734.371 462.962 733.274 460.825 731.303 460.251C729.737 459.782 728.067 459.565 726.497 459.501C724.774 459.486 723.051 459.623 721.326 459.912C719.702 460.202 718.119 461.658 716.792 462.761C716.231 463.212 716.019 464.325 716.164 465.137C716.359 466.051 716.862 466.46 717.469 466.516L717.469 466.567Z" fill="#FFFFEE"/>
<path d="M704.955 497.054C706.275 496.711 707.692 496.925 708.962 496.531C710.282 496.137 711.652 495.895 713.071 495.908C713.729 495.913 714.388 495.919 715.046 495.975L715.653 496.082C715.198 495.976 716.108 496.136 715.653 496.082L716.614 496.293C718.333 496.662 720.113 495.867 721.941 495.376C722.957 495.08 723.931 493.771 723.332 492.652C722.336 490.667 720.733 488.576 718.406 488.202C716.534 487.882 714.659 487.967 712.833 488.154C710.855 488.391 708.976 488.982 707.196 489.727C705.467 490.472 704.185 492.285 703.109 493.745C702.647 494.349 702.739 495.465 703.189 496.178C703.638 496.992 704.294 497.251 704.904 497.104L704.955 497.054Z" fill="#FFFFEE"/>
<path d="M744.353 499.019C745.211 499.381 745.863 500.197 746.823 500.459C747.783 500.72 748.743 501.083 749.6 501.597C750.003 501.854 750.406 502.111 750.758 502.367L751.11 502.674L751.613 503.185C752.467 504.054 754.139 503.967 755.709 504.081C756.569 504.139 757.994 503.392 758.206 502.329C758.627 500.509 758.747 498.382 757.489 497.308C756.483 496.438 755.273 495.819 754.061 495.302C752.749 494.734 751.333 494.418 749.967 494.254C748.6 494.09 746.87 494.937 745.446 495.583C744.836 495.831 744.271 496.789 744.061 497.598C743.851 498.458 744.049 499.017 744.402 499.172L744.353 499.019Z" fill="#FFFFEE"/>
<path d="M765.466 523.874C766.723 525.1 767.569 526.779 768.826 528.006C770.081 529.283 771.234 530.712 772.133 532.29C772.582 533.003 772.981 533.817 773.329 534.58L773.626 535.343C773.428 534.784 773.875 535.851 773.626 535.343L774.021 536.562C774.712 538.746 776.471 540.332 777.875 542.067C778.627 543.036 780.296 543.354 780.966 541.992C782.1 539.722 782.987 536.74 781.947 533.995C781.104 531.81 779.906 529.722 778.503 527.886C777.051 525.898 775.293 524.16 773.431 522.675C771.62 521.191 769.09 520.764 767.016 520.391C766.156 520.232 765.239 520.883 764.878 521.639C764.515 522.548 764.762 523.31 765.365 523.923L765.466 523.874Z" fill="#FFFFEE"/>
<path d="M676.502 133.973C676.067 137.414 672.202 139.154 669.382 137.154C600.139 88.1787 506.109 123.699 542.069 207.753C572.268 278.332 677.983 351.583 753.576 368.898C763.84 371.266 774.567 366.95 780.367 358.184C823.174 293.499 849.127 167.52 822.334 95.6025C790.389 9.96199 686.322 52.0336 676.502 133.922L676.502 133.973Z" fill="#F79384"/>
<path d="M722.648 87.2458C725.093 85.7975 727.887 84.8588 730.331 83.4612C732.775 82.0635 735.419 80.8702 738.113 79.88C739.383 79.4349 740.704 79.0409 742.025 78.6469L743.294 78.3538C742.38 78.5486 744.157 78.1079 743.294 78.3538L745.273 77.9655C748.825 77.2866 751.727 75.5889 754.626 74.2964C756.254 73.5504 756.926 71.935 755.058 71.2097C751.877 69.9159 747.884 68.8685 743.823 69.7963C740.524 70.528 737.322 71.6659 734.321 73.0081C731.067 74.4495 728.063 76.197 725.209 78.1484C722.457 80.05 720.609 82.8207 718.917 85.238C718.199 86.2451 718.493 87.3622 719.3 87.7744C720.208 88.2888 721.477 87.9451 722.648 87.2965L722.648 87.2458Z" fill="#FFFFEE"/>
<path d="M776.363 80.0589C780.566 80.2975 784.809 81.7524 788.748 83.2553C792.788 84.7591 796.618 87.0718 800.038 90.0395C801.647 91.4211 803.205 92.9544 804.559 94.5872L805.863 96.1182C805.012 94.9457 806.715 97.2401 805.863 96.1182L807.715 98.7179C810.866 103.507 814.075 107.436 816.572 111.662C817.92 114.004 819.787 114.831 819.763 111.689C819.808 106.421 818.648 99.9767 814.745 94.269C811.592 89.6824 807.574 85.6456 803.193 82.467C798.46 79.0321 793.111 76.5545 787.6 75.2408C782.341 74.1318 776.966 74.6431 773.15 76.5356C771.673 77.4856 772.17 78.6551 772.874 79.1678C773.629 79.7822 774.489 79.8909 776.363 79.9576L776.363 80.0589Z" fill="#FFFFEE"/>
<path d="M758.061 64.2015C759.327 64.2124 760.589 64.7805 761.856 64.69C763.174 64.5999 764.491 64.6619 765.756 64.8247C766.363 64.9312 766.97 65.0377 767.577 65.1949L768.133 65.3517C767.729 65.1962 768.537 65.4564 768.133 65.3517L768.991 65.663C770.506 66.2332 772.336 65.5903 774.011 65.1993C774.976 64.9542 775.999 63.7471 775.604 62.5785C774.962 60.5971 773.866 58.4599 771.895 57.8857C770.329 57.4163 768.659 57.1994 767.089 57.1353C765.366 57.1206 763.642 57.2578 761.917 57.547C760.294 57.8371 758.711 59.2928 757.384 60.396C756.823 60.8472 756.611 61.9599 756.756 62.7718C756.951 63.6854 757.454 64.095 758.061 64.1509L758.061 64.2015Z" fill="#FFFFEE"/>
<path d="M745.547 94.6888C746.867 94.3455 748.283 94.5602 749.553 94.1658C750.874 93.7718 752.244 93.5302 753.662 93.5424C754.321 93.548 754.98 93.5536 755.638 93.6099L756.245 93.7165C755.79 93.6112 756.7 93.771 756.245 93.7165L757.206 93.9273C758.925 94.2967 760.705 93.5013 762.533 93.0103C763.549 92.715 764.523 91.4061 763.924 90.2864C762.928 88.3021 761.325 86.2111 758.997 85.8366C757.126 85.5166 755.25 85.6019 753.425 85.7889C751.447 86.0253 749.567 86.6171 747.788 87.3619C746.059 88.107 744.777 89.9199 743.7 91.3799C743.239 91.9839 743.331 93.0993 743.781 93.8124C744.23 94.6269 744.886 94.8858 745.495 94.7391L745.547 94.6888Z" fill="#FFFFEE"/>
<path d="M784.945 96.6539C785.803 97.0159 786.454 97.8321 787.415 98.0936C788.375 98.3551 789.335 98.718 790.192 99.2319C790.595 99.4887 790.998 99.7455 791.35 100.002L791.702 100.309L792.204 100.82C793.058 101.688 794.731 101.601 796.301 101.716C797.161 101.774 798.586 101.026 798.798 99.9642C799.219 98.144 799.338 96.0171 798.081 94.9424C797.075 94.0726 795.865 93.4542 794.653 92.9372C793.341 92.3687 791.925 92.0526 790.558 91.8889C789.192 91.7253 787.462 92.5717 786.038 93.2182C785.428 93.4663 784.862 94.424 784.653 95.2328C784.443 96.0923 784.641 96.6513 784.994 96.8063L784.945 96.6539Z" fill="#FFFFEE"/>
<path d="M806.058 121.508C807.314 122.735 808.161 124.414 809.417 125.641C810.673 126.918 811.826 128.347 812.724 129.925C813.174 130.638 813.573 131.452 813.921 132.215L814.218 132.977C814.02 132.418 814.467 133.486 814.218 132.977L814.613 134.197C815.304 136.381 817.063 137.967 818.467 139.701C819.219 140.67 820.888 140.989 821.558 139.626C822.692 137.356 823.579 134.375 822.538 131.63C821.696 129.444 820.498 127.357 819.095 125.521C817.643 123.533 815.884 121.795 814.023 120.31C812.211 118.825 809.682 118.398 807.608 118.026C806.748 117.867 805.831 118.517 805.469 119.274C805.107 120.183 805.354 120.945 805.957 121.558L806.058 121.508Z" fill="#FFFFEE"/>
<path d="M492.775 817.933C492.458 820.447 489.634 821.719 487.574 820.257C436.991 784.48 368.3 810.428 394.57 871.831C416.631 923.39 493.858 976.901 549.079 989.55C556.578 991.28 564.414 988.127 568.651 981.723C599.922 934.47 618.881 842.44 599.308 789.903C575.972 727.341 499.949 758.075 492.776 817.896L492.775 817.933Z" fill="#FFE6B3"/>
<path d="M526.487 783.799C528.272 782.741 530.314 782.055 532.099 781.034C533.884 780.013 535.816 779.141 537.784 778.418C538.712 778.093 539.677 777.805 540.641 777.517L541.568 777.303C540.901 777.445 542.199 777.123 541.568 777.303L543.014 777.019C545.609 776.523 547.729 775.283 549.847 774.339C551.036 773.794 551.527 772.614 550.162 772.084C547.839 771.139 544.922 770.374 541.955 771.051C539.545 771.586 537.206 772.417 535.014 773.398C532.636 774.451 530.442 775.727 528.357 777.153C526.347 778.542 524.997 780.566 523.76 782.332C523.236 783.068 523.451 783.884 524.041 784.185C524.704 784.561 525.631 784.309 526.486 783.836L526.487 783.799Z" fill="#FFFFEE"/>
<path d="M565.725 778.548C568.795 778.723 571.895 779.785 574.772 780.883C577.724 781.982 580.522 783.671 583.02 785.839C584.196 786.848 585.334 787.969 586.323 789.161L587.275 790.28C586.654 789.423 587.898 791.099 587.275 790.28L588.629 792.179C590.93 795.678 593.274 798.547 595.098 801.635C596.083 803.346 597.447 803.95 597.43 801.655C597.463 797.806 596.615 793.098 593.764 788.929C591.461 785.578 588.525 782.629 585.325 780.307C581.868 777.798 577.96 775.988 573.934 775.028C570.092 774.218 566.166 774.592 563.378 775.974C562.299 776.668 562.662 777.523 563.177 777.897C563.728 778.346 564.357 778.425 565.726 778.474L565.725 778.548Z" fill="#FFFFEE"/>
<path d="M552.356 766.965C553.281 766.973 554.202 767.388 555.128 767.322C556.091 767.256 557.053 767.301 557.977 767.42C558.421 767.498 558.864 767.576 559.307 767.691L559.713 767.805C559.418 767.692 560.009 767.882 559.713 767.805L560.341 768.032C561.447 768.449 562.784 767.979 564.008 767.694C564.712 767.515 565.46 766.633 565.171 765.779C564.702 764.332 563.902 762.771 562.462 762.351C561.317 762.008 560.097 761.85 558.951 761.803C557.692 761.792 556.433 761.892 555.173 762.104C553.987 762.316 552.83 763.379 551.861 764.185C551.451 764.514 551.296 765.327 551.402 765.92C551.545 766.588 551.912 766.887 552.356 766.928L552.356 766.965Z" fill="#FFFFEE"/>
<path d="M543.213 789.237C544.178 788.986 545.213 789.143 546.14 788.855C547.105 788.567 548.106 788.391 549.142 788.4C549.623 788.404 550.104 788.408 550.585 788.449L551.029 788.527C550.696 788.45 551.361 788.567 551.029 788.527L551.73 788.681C552.987 788.951 554.287 788.37 555.622 788.011C556.364 787.795 557.076 786.839 556.639 786.021C555.911 784.572 554.74 783.044 553.039 782.771C551.672 782.537 550.302 782.599 548.969 782.736C547.524 782.908 546.151 783.341 544.851 783.885C543.588 784.429 542.651 785.753 541.865 786.82C541.528 787.261 541.595 788.076 541.924 788.597C542.252 789.192 542.731 789.381 543.176 789.274L543.213 789.237Z" fill="#FFFFEE"/>
<path d="M571.995 790.67C572.622 790.934 573.098 791.53 573.799 791.721C574.501 791.912 575.202 792.178 575.828 792.553C576.122 792.741 576.417 792.928 576.674 793.115L576.931 793.34L577.298 793.713C577.922 794.347 579.144 794.284 580.29 794.368C580.919 794.41 581.96 793.864 582.115 793.088C582.422 791.758 582.51 790.205 581.591 789.419C580.856 788.784 579.972 788.332 579.087 787.955C578.128 787.539 577.094 787.308 576.096 787.189C575.097 787.069 573.834 787.688 572.793 788.16C572.348 788.341 571.935 789.041 571.782 789.632C571.628 790.259 571.773 790.668 572.031 790.781L571.995 790.67Z" fill="#FFFFEE"/>
<path d="M587.417 808.828C588.335 809.724 588.954 810.951 589.871 811.847C590.789 812.78 591.631 813.824 592.287 814.977C592.616 815.498 592.907 816.092 593.161 816.65L593.378 817.207C593.234 816.798 593.56 817.578 593.378 817.207L593.667 818.097C594.171 819.693 595.457 820.851 596.482 822.119C597.031 822.826 598.251 823.059 598.74 822.064C599.569 820.405 600.217 818.227 599.457 816.222C598.841 814.626 597.966 813.101 596.941 811.76C595.88 810.307 594.596 809.038 593.236 807.953C591.912 806.868 590.065 806.556 588.55 806.284C587.921 806.168 587.251 806.643 586.987 807.196C586.723 807.86 586.903 808.417 587.343 808.865L587.417 808.828Z" fill="#FFFFEE"/>
<path d="M896.908 630.562C896.591 633.076 893.767 634.347 891.707 632.886C841.124 597.109 772.433 623.057 798.703 684.46C820.764 736.019 897.99 789.53 953.212 802.179C960.71 803.909 968.547 800.756 972.784 794.352C1004.05 747.099 1023.01 655.069 1003.44 602.532C980.105 539.97 904.082 570.704 896.908 630.525L896.908 630.562Z" fill="#FFE6B3"/>
<path d="M930.62 596.427C932.405 595.369 934.446 594.684 936.232 593.663C938.017 592.642 939.949 591.77 941.917 591.047C942.845 590.722 943.809 590.434 944.774 590.146L945.701 589.932C945.034 590.074 946.332 589.752 945.701 589.932L947.147 589.648C949.742 589.152 951.862 587.912 953.98 586.968C955.169 586.423 955.66 585.243 954.295 584.713C951.972 583.768 949.054 583.003 946.088 583.68C943.678 584.215 941.339 585.046 939.147 586.027C936.769 587.08 934.575 588.356 932.49 589.782C930.479 591.171 929.13 593.195 927.893 594.961C927.369 595.696 927.584 596.513 928.174 596.814C928.836 597.189 929.764 596.938 930.619 596.464L930.62 596.427Z" fill="#FFFFEE"/>
<path d="M969.858 591.177C972.928 591.351 976.028 592.414 978.905 593.512C981.857 594.611 984.655 596.3 987.153 598.468C988.329 599.477 989.466 600.597 990.456 601.79L991.408 602.909C990.786 602.052 992.03 603.728 991.408 602.909L992.761 604.808C995.063 608.306 997.407 611.176 999.231 614.264C1000.22 615.975 1001.58 616.578 1001.56 614.284C1001.6 610.435 1000.75 605.727 997.897 601.558C995.594 598.207 992.658 595.258 989.458 592.936C986.001 590.427 982.093 588.617 978.067 587.657C974.225 586.847 970.299 587.221 967.511 588.603C966.432 589.297 966.795 590.152 967.31 590.526C967.861 590.975 968.489 591.054 969.858 591.103L969.858 591.177Z" fill="#FFFFEE"/>
<path d="M956.488 579.594C957.414 579.602 958.335 580.017 959.261 579.951C960.224 579.885 961.186 579.93 962.11 580.049C962.553 580.127 962.997 580.205 963.44 580.319L963.846 580.434C963.551 580.32 964.142 580.511 963.846 580.434L964.473 580.661C965.58 581.078 966.917 580.608 968.14 580.323C968.845 580.144 969.593 579.262 969.304 578.408C968.835 576.961 968.034 575.399 966.595 574.98C965.45 574.637 964.23 574.479 963.083 574.432C961.825 574.421 960.566 574.521 959.306 574.733C958.12 574.944 956.963 576.008 955.994 576.814C955.584 577.143 955.429 577.956 955.535 578.549C955.677 579.217 956.045 579.516 956.489 579.557L956.488 579.594Z" fill="#FFFFEE"/>
<path d="M947.346 601.866C948.311 601.615 949.346 601.772 950.273 601.484C951.238 601.196 952.239 601.02 953.275 601.029C953.756 601.033 954.237 601.037 954.718 601.078L955.161 601.156C954.829 601.079 955.494 601.196 955.161 601.156L955.863 601.31C957.119 601.58 958.42 600.999 959.755 600.64C960.497 600.424 961.209 599.468 960.771 598.65C960.044 597.2 958.872 595.673 957.172 595.399C955.805 595.166 954.435 595.228 953.101 595.365C951.657 595.537 950.283 595.97 948.983 596.514C947.72 597.058 946.784 598.382 945.998 599.449C945.661 599.89 945.728 600.705 946.056 601.226C946.384 601.821 946.864 602.01 947.309 601.903L947.346 601.866Z" fill="#FFFFEE"/>
<path d="M976.128 603.299C976.755 603.563 977.231 604.159 977.932 604.35C978.634 604.541 979.335 604.806 979.961 605.182C980.255 605.369 980.549 605.557 980.807 605.744L981.064 605.969L981.431 606.342C982.055 606.976 983.277 606.913 984.423 606.997C985.052 607.039 986.093 606.493 986.248 605.717C986.555 604.387 986.642 602.833 985.724 602.048C984.989 601.413 984.105 600.961 983.22 600.584C982.261 600.168 981.227 599.937 980.228 599.818C979.23 599.698 977.967 600.316 976.926 600.789C976.481 600.97 976.068 601.67 975.914 602.26C975.761 602.888 975.906 603.297 976.164 603.41L976.128 603.299Z" fill="#FFFFEE"/>
<path d="M991.55 621.457C992.468 622.353 993.087 623.58 994.004 624.476C994.921 625.409 995.764 626.453 996.42 627.606C996.749 628.127 997.04 628.721 997.294 629.278L997.511 629.835C997.367 629.427 997.693 630.207 997.511 629.835L997.8 630.726C998.304 632.322 999.59 633.48 1000.62 634.747C1001.16 635.455 1002.38 635.688 1002.87 634.693C1003.7 633.034 1004.35 630.856 1003.59 628.851C1002.97 627.255 1002.1 625.73 1001.07 624.388C1000.01 622.936 998.728 621.667 997.368 620.582C996.045 619.497 994.197 619.185 992.682 618.913C992.054 618.797 991.384 619.272 991.12 619.825C990.855 620.489 991.036 621.046 991.476 621.494L991.55 621.457Z" fill="#FFFFEE"/>
</svg>
