<svg width="1254" height="1206" viewBox="0 0 1254 1206" fill="none" xmlns="http://www.w3.org/2000/svg">
<path d="M691.072 191.361C812.406 89.8607 1207.07 -20.6351 1049.57 424.863C1254.24 553.363 1408.07 843.363 984.572 843.363C1019.07 999.03 1072.87 1261.66 838.072 1174.86C702.674 1124.81 631.154 1098.06 606.37 1084.39C482.231 1195.81 249.327 1340.49 278.57 951.86C110.07 928.36 -194.528 848.564 175.072 631.364C32.0717 472.03 -96.4299 213.358 332.57 310.86C332.57 137.363 473.573 -221.633 691.072 191.361Z" fill="#FFDB43"/>
<circle cx="634.572" cy="663.863" r="343.5" fill="white"/>
<path d="M528.907 590.55C518.182 563.718 492.551 546.363 463.672 546.363C434.792 546.363 410.006 563.184 398.97 589.26C396.879 594.244 398.525 599.895 403.02 602.966C407.514 606.036 413.344 605.546 417.259 601.764C438.307 581.339 471.592 564.964 510.573 602.876C512.754 605.012 515.601 606.125 518.449 606.125C520.63 606.125 522.81 605.502 524.768 604.167C529.263 601.186 530.954 595.579 528.951 590.55H528.907Z" fill="#303030"/>
<path d="M854.771 590.55C844.047 563.718 818.415 546.363 789.536 546.363C760.656 546.363 735.87 563.184 724.835 589.215C722.699 594.199 724.39 599.851 728.84 602.921C733.334 605.991 739.163 605.502 743.079 601.72C764.127 581.295 797.368 564.919 836.393 602.832C838.573 604.968 841.421 606.08 844.269 606.08C846.45 606.08 848.63 605.457 850.588 604.122C855.082 601.141 856.773 595.534 854.771 590.506V590.55Z" fill="#303030"/>
<path d="M534.541 707.206C534.541 707.206 736.41 702.087 740.525 708.912C744.64 715.737 726.674 787.733 648.69 805.531C570.706 823.329 507.174 709.949 534.541 707.206Z" fill="#261D2A"/>
<path d="M559.666 769.936C559.666 769.936 596.065 741.265 638.687 743.607C681.309 745.915 711.653 771.441 709.412 774.319C706.367 778.233 667.559 815.535 624.971 807.774C582.382 800.012 564.45 782.515 559.666 769.936Z" fill="#FF6248"/>
</svg>
