<svg width="1141" height="1140" viewBox="0 0 1141 1140" fill="none" xmlns="http://www.w3.org/2000/svg">
<path d="M570.5 1139.87C885.068 1139.87 1140.07 884.861 1140.07 570.293C1140.07 255.726 885.068 0.71875 570.5 0.71875C255.933 0.71875 0.925781 255.726 0.925781 570.293C0.925781 884.861 255.933 1139.87 570.5 1139.87Z" fill="#FFDB43"/>
<path d="M868.517 84.1898C925.248 172.726 958.123 278.035 958.123 390.961C958.123 705.483 703.138 960.536 388.548 960.536C279.298 960.536 177.263 929.732 90.5977 876.409C191.83 1034.44 368.97 1139.15 570.567 1139.15C885.089 1139.15 1140.14 884.16 1140.14 569.571C1140.14 364.233 1031.49 184.353 868.584 84.123L868.517 84.1898Z" fill="#FFDB43"/>
<path d="M78.3688 630.379C78.3688 338.309 315.112 101.565 607.183 101.565C777.908 101.565 929.657 182.484 1026.35 308.039C935.003 149.542 763.876 42.8301 567.826 42.8301C275.755 42.8301 39.0117 279.574 39.0117 571.645C39.0117 692.99 79.9056 804.78 148.664 893.985C103.961 816.407 78.3688 726.4 78.3688 630.446V630.379Z" fill="#FFE98A"/>
<path d="M337.031 656.44C322.331 642.207 298.877 657.977 306.428 676.954C348.524 782.128 451.294 856.366 571.503 856.366C691.712 856.366 791.074 784.534 834.373 682.165C842.258 663.523 818.604 647.352 804.037 661.451C720.712 742.237 543.706 857.234 337.031 656.44Z" fill="#5E4939"/>
<path d="M423.493 488.655C407.389 448.363 368.901 422.303 325.535 422.303C282.168 422.303 244.949 447.561 228.378 486.717C225.237 494.201 227.71 502.687 234.459 507.298C241.208 511.909 249.961 511.173 255.841 505.494C287.447 474.823 337.429 450.233 395.963 507.164C399.237 510.372 403.514 512.042 407.79 512.042C411.064 512.042 414.339 511.107 417.279 509.102C424.027 504.625 426.567 496.206 423.56 488.655H423.493Z" fill="#303030"/>
<path d="M912.817 488.655C896.713 448.363 858.225 422.303 814.858 422.303C771.492 422.303 734.273 447.561 717.702 486.651C714.495 494.134 717.034 502.62 723.716 507.231C730.465 511.842 739.218 511.107 745.098 505.427C776.704 474.757 826.619 450.167 885.22 507.097C888.494 510.305 892.771 511.975 897.047 511.975C900.321 511.975 903.596 511.04 906.536 509.035C913.284 504.558 915.824 496.139 912.817 488.588V488.655Z" fill="#303030"/>
<path d="M151.739 753.396C206.652 753.396 251.167 708.88 251.167 653.967C251.167 599.055 206.652 554.539 151.739 554.539C96.8261 554.539 52.3105 599.055 52.3105 653.967C52.3105 708.88 96.8261 753.396 151.739 753.396Z" fill="#F5A6AC"/>
<path d="M989.26 753.396C1044.17 753.396 1088.69 708.88 1088.69 653.967C1088.69 599.055 1044.17 554.539 989.26 554.539C934.347 554.539 889.832 599.055 889.832 653.967C889.832 708.88 934.347 753.396 989.26 753.396Z" fill="#F5A6AC"/>
</svg>
