<svg width="1042" height="820" viewBox="0 0 1042 820" fill="none" xmlns="http://www.w3.org/2000/svg">
<rect x="0.0664062" y="0.824219" width="1041" height="615" rx="149" fill="#F6F6F6"/>
<path d="M399.066 819.824L285.617 536.324H512.516L399.066 819.824Z" fill="#F6F6F6"/>
<path d="M680.066 253.921C680.066 253.921 680.066 253.436 680.066 253.133C680.066 205.481 645.614 161.824 593.783 161.824C552.609 161.824 528.692 191.433 520.578 219.104C512.404 191.373 488.547 161.824 447.373 161.824C395.543 161.824 361.09 205.481 361.09 253.133C361.09 253.376 361.09 253.618 361.09 253.921C360.787 264.275 361.09 369.813 520.518 455.794C680.006 369.752 680.248 264.275 679.945 253.86L680.066 253.921Z" fill="#FF948E"/>
</svg>
