<svg width="874" height="875" viewBox="0 0 874 875" fill="none" xmlns="http://www.w3.org/2000/svg">
<circle cx="437.107" cy="437.492" r="431.932" stroke="#FFDB43" stroke-width="9.54547" stroke-dasharray="22.67 22.67"/>
<circle cx="436.511" cy="436.896" r="353.779" fill="#FFDB43"/>
<circle cx="279.608" cy="301.469" r="25.0568" fill="#6D5B26"/>
<circle cx="588.641" cy="301.469" r="25.0568" fill="#6D5B26"/>
<path d="M598.01 446.483C594.925 437.727 586.544 432.114 577.585 432.574C577.272 432.526 576.95 432.512 576.644 432.575C576.38 432.613 576.107 432.685 575.868 432.766C575.801 432.748 575.724 432.763 575.647 432.779C566.862 434.082 559.801 441.242 558.488 450.196C558.173 452.32 559.641 454.271 561.766 454.587C563.89 454.902 565.84 453.434 566.147 451.343C566.808 446.849 569.773 443.081 573.679 441.34C576.217 473.087 566.415 503.991 545.721 528.789C524.75 553.948 494.53 569.567 462.766 571.629C398.939 575.781 343.204 527.571 336.443 463.48C340.592 464.483 344.179 467.581 345.702 471.899C346.292 473.614 347.972 474.644 349.722 474.461C350.02 474.432 350.326 474.369 350.642 474.273C352.639 473.577 353.702 471.363 353.016 469.333C349.955 460.619 341.642 455.024 332.735 455.426C332.465 455.353 332.201 455.391 331.913 455.386C331.582 455.406 331.232 455.494 330.917 455.59C330.849 455.572 330.73 455.612 330.653 455.628C321.867 456.931 314.807 464.092 313.494 473.045C313.178 475.17 314.647 477.12 316.771 477.436C318.896 477.752 320.846 476.283 321.153 474.192C321.823 469.665 324.788 465.897 328.762 464.174C332.139 496.436 347.363 525.97 372 547.671C397.657 570.296 430.088 581.557 463.297 579.375C464.401 579.309 465.548 579.218 466.661 579.118C499.265 576.086 530.092 559.688 551.704 533.76C573.74 507.329 584.186 474.426 581.437 440.631C585.629 441.609 589.25 444.716 590.763 449.068C591.354 450.783 593.033 451.812 594.784 451.63C595.082 451.601 595.388 451.538 595.704 451.442C597.701 450.746 598.764 448.532 598.077 446.502L598.01 446.483Z" fill="#6D5B26"/>
</svg>
