<svg width="1076" height="1076" viewBox="0 0 1076 1076" fill="none" xmlns="http://www.w3.org/2000/svg">
<g clip-path="url(#clip0_4090_7900)">
<path d="M1043.13 350.892L1005.04 437.543L1075.5 500.705L1014.52 573.052L1064.13 653.605L985.237 705.776L1010.23 797.019L919.816 825.024L918.16 919.579L823.604 920.935L795.147 1011.12L704.055 985.678L651.508 1064.35L571.181 1014.36L498.533 1075.04L435.671 1004.35L348.87 1041.99L308.368 956.468L214.565 968.288L199.734 874.861L106.308 859.729L118.579 765.852L33.2838 724.973L71.3017 638.322L0.912109 575.16L61.8913 502.813L12.2798 422.26L91.1764 370.089L66.1824 278.846L156.597 250.841L158.254 156.285L252.809 154.93L281.191 64.6661L372.358 90.187L424.906 11.5164L505.233 61.429L577.806 0.826172L640.742 71.5169L727.468 33.8754L767.97 119.397L861.848 107.577L876.679 201.004L970.105 216.135L957.834 309.938L1043.13 350.892Z" fill="#F4D306"/>
<path d="M601.296 399.828L657.533 378.974C681.096 442.589 675.074 504.321 644.208 515.688C613.342 527.131 568.548 484.22 545.06 420.606C521.496 356.992 527.519 295.26 558.385 283.892C585.487 273.879 623.881 305.574 649.101 358.799L601.372 399.828H601.296Z" fill="#303030"/>
<path d="M406.46 472.019L462.697 451.166C486.26 514.78 480.238 576.512 449.372 587.88C418.506 599.323 373.712 556.411 350.224 492.797C326.66 429.183 332.683 367.451 363.549 356.083C390.651 346.071 429.045 377.765 454.265 430.99L406.536 472.019H406.46Z" fill="#303030"/>
<path d="M820.451 413.757C809.158 397.27 788.606 390.268 770.237 396.216C769.559 396.291 768.882 396.442 768.28 396.743C767.753 396.969 767.226 397.27 766.774 397.571C766.623 397.571 766.473 397.646 766.322 397.721C748.781 405.325 738.091 424.146 740.35 443.493C740.877 448.086 745.017 451.323 749.609 450.796C754.202 450.269 757.439 446.128 756.912 441.611C755.783 431.9 759.848 422.414 767 416.617C789.961 481.21 786.799 550.922 757.589 614.009C728.003 678 673.875 727.31 608.981 749.293C478.591 793.484 335.854 724.299 286.092 594.812C295.277 594.586 304.461 599.028 310.032 607.159C312.215 610.396 316.281 611.6 319.819 610.245C320.421 610.019 321.023 609.718 321.626 609.342C325.39 606.782 326.369 601.588 323.809 597.748C312.592 581.337 292.19 574.335 273.896 580.132C273.294 580.132 272.767 580.358 272.165 580.508C271.487 580.734 270.81 581.111 270.207 581.487C270.057 581.487 269.831 581.638 269.68 581.713C252.14 589.317 241.449 608.137 243.708 627.485C244.235 632.077 248.375 635.314 252.968 634.787C257.56 634.261 260.797 630.12 260.27 625.603C259.141 615.816 263.206 606.331 270.509 600.534C295.503 665.729 343.608 718.653 406.921 750.046C472.869 782.794 546.571 788.139 614.401 765.102C616.66 764.349 618.993 763.521 621.252 762.693C687.35 738.226 742.307 686.959 772.797 621.011C803.888 553.783 807.276 479.554 782.734 410.821C791.994 410.52 801.253 414.961 806.824 423.167C809.008 426.404 813.073 427.609 816.611 426.254C817.213 426.028 817.816 425.727 818.418 425.35C822.182 422.791 823.161 417.596 820.601 413.757H820.451Z" fill="#303030"/>
</g>
<defs>
<clipPath id="clip0_4090_7900">
<rect width="1074.59" height="1074.21" fill="white" transform="translate(0.914062 0.826172)"/>
</clipPath>
</defs>
</svg>
