<svg width="726" height="1272" viewBox="0 0 726 1272" fill="none" xmlns="http://www.w3.org/2000/svg">
<path d="M363.5 415.414C363.5 415.816 363.372 416.464 363.127 417.347C345.287 510.332 318.531 730.47 392 862.414C465.5 994.414 427.667 1192.25 404.5 1271.41H242C299.833 1189.41 396.9 992.814 322.5 862.414C232.374 704.45 355.436 445.058 363.127 417.347C363.252 416.697 363.376 416.052 363.5 415.414Z" fill="#459C3A"/>
<path d="M533.639 100.022C533.639 100.022 533.639 99.4979 533.639 99.1705C533.639 47.6311 496.376 0.414062 440.318 0.414062C395.786 0.414062 369.918 32.4378 361.143 62.366C352.302 32.3723 326.499 0.414062 281.967 0.414062C225.909 0.414062 188.646 47.6311 188.646 99.1705C188.646 99.4324 188.646 99.6944 188.646 100.022C188.319 111.22 188.646 248.797 361.077 341.791C533.574 248.732 533.835 111.221 533.508 99.9565L533.639 100.022Z" fill="#54BB47"/>
<path d="M555.553 543.253C555.553 543.253 556.065 543.364 556.385 543.433C606.754 554.354 660.795 527.941 672.672 473.156C682.107 429.635 656.292 397.569 628.902 382.651C660.088 380.366 696.788 361.921 706.223 318.4C718.101 263.614 679.851 217.193 629.482 206.273C629.226 206.218 628.97 206.162 628.65 206.093C617.775 203.4 477.645 179.532 350.228 328.344C404.626 516.642 544.567 541.072 555.645 543.139L555.553 543.253Z" fill="#54BB47"/>
<path d="M99.5753 156.924C99.5753 156.924 99.0515 156.938 98.7242 156.946C47.2021 158.281 0.965834 196.754 2.41751 252.793C3.57071 297.31 36.2536 322.341 66.399 330.338C36.6443 339.953 5.36495 366.574 6.51815 411.091C7.96983 467.13 56.136 503.158 107.658 501.823C107.92 501.817 108.182 501.81 108.509 501.801C119.712 501.839 265.055 498.559 353.552 323.778C256.058 153.749 110.765 156.438 99.5133 157.057L99.5753 156.924Z" fill="#54BB47"/>
<path d="M159.499 559.451C159.499 559.451 159.458 559.973 159.432 560.299C155.378 611.679 188.811 661.681 244.695 666.091C289.089 669.594 317.396 639.705 328.499 610.56C334.953 641.156 358.161 675.045 402.555 678.548C458.44 682.958 499.301 638.819 503.356 587.439C503.376 587.178 503.397 586.917 503.423 586.59C504.63 575.452 513.275 430.524 348.694 324.254C169.411 403.455 160.184 548.271 159.625 559.526L159.499 559.451Z" fill="#54BB47"/>
</svg>
