<svg width="1010" height="916" viewBox="0 0 1010 916" fill="none" xmlns="http://www.w3.org/2000/svg">
<path d="M543.832 105.484C556.512 80.6382 592.014 80.6382 604.693 105.484L696.78 285.929C701.744 295.656 711.06 302.424 721.845 304.139L921.914 335.958C949.462 340.34 960.433 374.103 940.721 393.84L797.564 537.181C789.847 544.908 786.289 555.858 787.991 566.646L819.553 766.755C823.899 794.309 795.178 815.176 770.316 802.529L589.754 710.673C580.02 705.722 568.506 705.722 558.772 710.673L378.21 802.529C353.348 815.176 324.626 794.309 328.972 766.755L360.535 566.646C362.237 555.858 358.679 544.908 350.961 537.181L207.805 393.84C188.093 374.104 199.064 340.34 226.612 335.958L426.681 304.139C437.466 302.424 446.782 295.656 451.746 285.929L543.832 105.484Z" fill="#FFDB43"/>
<path d="M404.625 60.2262C417.305 35.3804 452.807 35.3804 465.486 60.2262L557.573 240.671C562.537 250.398 571.852 257.166 582.638 258.881L782.707 290.7C810.255 295.082 821.226 328.846 801.514 348.583L658.357 491.923C650.64 499.65 647.082 510.6 648.784 521.388L680.346 721.498C684.692 749.051 655.971 769.919 631.109 757.271L450.547 665.415C440.813 660.464 429.299 660.464 419.565 665.415L239.003 757.271C214.141 769.919 185.419 749.051 189.765 721.498L221.328 521.388C223.03 510.6 219.472 499.65 211.754 491.923L68.5979 348.583C48.8863 328.846 59.8569 295.082 87.4049 290.7L287.474 258.881C298.259 257.166 307.575 250.398 312.539 240.671L404.625 60.2262Z" fill="#6AA8E3"/>
<path d="M519.933 406.954C519.933 406.954 519.933 406.698 519.933 406.538C519.933 381.339 501.715 358.254 474.307 358.254C452.534 358.254 439.887 373.911 435.597 388.543C431.274 373.879 418.659 358.254 396.887 358.254C369.479 358.254 351.26 381.339 351.26 406.538C351.26 406.666 351.26 406.794 351.26 406.954C351.1 412.429 351.26 468.237 435.565 513.703C519.901 468.205 520.029 412.429 519.869 406.922L519.933 406.954Z" fill="white"/>
</svg>
