<svg width="431" height="528" viewBox="0 0 431 528" fill="none" xmlns="http://www.w3.org/2000/svg">
    <path
        d="M6.73083 450.575C8.17064 467.611 8.84923 491.499 9.4225 509.524C9.54906 513.503 12.4892 517.525 15.9654 515.585C16.2452 515.429 16.4793 515.272 16.6596 515.131C21.0217 511.742 25.3943 513.145 30.342 514.543C34.3238 515.668 38.2426 514.284 42.0265 516.189C48.7101 519.555 54.187 519.433 61.4603 518.129C71.4949 516.33 80.3573 513.654 90.7623 514.19C97.7059 514.548 105.023 514.536 111.891 515.425C120.131 516.492 126.785 520.331 134.594 522.48C140.734 524.169 146.241 520.843 151.909 519.129C155.602 518.012 159.505 518.146 163.291 517.483C178.176 514.874 191.192 514.568 202.401 526.066C206.077 529.838 209.783 527.075 214.812 526.243C220.633 525.279 226.077 525.665 231.884 525.42C238.036 525.16 243.408 521.723 249.381 520.657C252.211 520.153 255.087 521.293 257.978 521.128C266.508 520.641 275.276 520.572 283.708 519.188C290.287 518.108 298.8 515.455 305.442 517.777C308.28 518.769 308.994 521.272 311.254 522.774C314.137 524.69 320.642 523.411 323.726 523.009C331.954 521.936 339.94 517.698 346.429 512.897C348.155 511.619 353.603 506.753 356.176 508.076C361.448 510.786 366.331 513.413 372.038 515.484C385.357 520.316 399.3 524.08 413.63 522.245C416.648 521.858 421.808 521.394 422.529 517.718C423.085 514.884 421.68 511.225 423.982 508.899C427.87 504.972 427.856 509.466 424.406 501.961C420.231 492.879 423.908 483.65 424.588 474.328C425.162 466.454 424.373 458.767 423.982 451.046C423.627 444.022 428.84 437.786 428.463 430.644C428.15 424.734 423.082 422.047 421.561 416.828C419.504 409.77 424.222 401.489 426.041 394.839C427.129 390.86 426.907 386.901 427.252 382.845C428.298 370.534 431.925 360.571 429.189 348.216C426.408 335.658 427.01 323.066 427.01 310.294C427.01 300.317 424.737 290.773 424.83 280.779C424.889 274.448 425.585 267.947 425.98 261.613C426.493 253.398 427.063 245.472 427.01 237.154C426.909 221.492 429.174 201.793 422.651 186.945C419.116 178.901 416.134 171.125 413.206 162.722C410.342 154.5 408.774 145.881 405.759 137.734C404.138 133.353 401.97 129.474 400.977 124.859C399.624 118.572 399.161 113.703 395.649 108.161C393.521 104.802 392.688 101.843 391.895 98.0486C390.899 93.2722 387.203 90.0953 384.509 86.1723C380.53 80.376 376.66 75.1437 371.977 69.8276C365.576 62.5609 361.549 54.7376 358.113 45.8398C356.116 40.6685 355.578 34.3931 353.028 29.4952C349.733 23.1661 338.06 16.6436 330.93 15.3847C321.104 13.6497 314.466 4.65276 303.989 2.80285C294.988 1.21341 285.91 7.03687 276.685 5.0958C272.096 4.1302 271.49 2.9894 266.393 4.39028C262.682 5.41023 258.969 6.67252 255.072 6.80082C250.187 6.96163 247.109 4.20984 242.661 3.80234C234.722 3.07506 227.313 6.10393 219.231 4.56666C215.022 3.76599 210.955 4.71191 206.76 4.2139C202.073 3.65766 198.96 0.427551 193.925 0.333515C189.95 0.259283 185.917 1.02952 182.059 1.86215C176.57 3.04677 170.354 5.4313 165.349 1.74456C162.423 -0.411176 162.389 -0.399299 158.754 0.857291L158.569 0.921452C152.34 3.07338 146.611 3.46986 140.164 3.86114C132.63 4.31845 128.105 6.40303 124.242 12.3862C121.123 17.216 116.683 28.2274 109.409 27.849C103.664 27.55 98.8574 24.3763 92.8208 24.9093C81.0445 25.9489 76.8228 37.2921 69.0885 44.6639C57.4929 55.7163 54.1268 73.1657 41.5422 83.3502C34.3824 89.1444 21.0923 92.3233 17.7494 101.341C16.0349 105.966 16.2964 112.877 16.2964 117.627C16.2964 127.225 17.9975 136.307 15.0855 145.789C13.3668 151.385 13.1428 157.288 12.9666 163.192C12.779 169.476 12.0157 176.679 13.6325 182.829C14.5441 186.296 16.2427 188.713 15.9331 192.471C15.0616 203.051 8.62143 213.522 14.5407 223.808C19.6198 232.635 13.064 240.121 10.3633 249.148C8.24109 256.242 8.62844 263.365 6.36758 270.432C3.78798 278.495 6.24649 283.113 6.24649 290.774C6.24649 295.385 4.977 299.892 5.52 304.532C5.8814 307.62 7.89283 309.299 8.91032 312.058C11.7556 319.771 7.41258 328.412 10.666 336.574C13.071 342.608 8.56621 346.713 7.63895 352.566C6.3074 360.972 8.67432 370.203 8.54707 378.73C8.44623 385.487 6.91447 391.959 8.0022 398.719C9.34529 407.067 1.00667 413.271 0.0712663 421.649C-0.365471 425.56 1.28946 426.709 2.73509 429.88C5.49973 435.944 6.1538 443.718 6.68008 449.973L6.73083 450.575Z"
        fill="#E8E8E8" />
</svg>
