<svg width="702" height="586" viewBox="0 0 702 586" fill="none" xmlns="http://www.w3.org/2000/svg">
    <path
        d="M287.079 23.5135C323.917 -7.83791 378.058 -7.8379 414.897 23.5135L439.074 44.0896C457.604 59.8593 481.31 68.2214 505.633 67.5675L547.793 66.4343C597.06 65.1099 637.103 106.5 635.011 155.741C633.842 183.245 646.355 209.876 668.449 226.3C713.151 259.532 713.151 326.468 668.449 359.7C646.355 376.124 633.842 402.755 635.011 430.259C637.103 479.5 597.06 520.89 547.793 519.566L505.633 518.432C481.31 517.779 457.604 526.141 439.074 541.91L414.897 562.486C378.058 593.838 323.917 593.838 287.079 562.486L262.902 541.91C244.372 526.141 220.666 517.779 196.343 518.432L154.183 519.566C104.915 520.89 64.8723 479.5 66.9645 430.259C68.1331 402.755 55.6203 376.124 33.5269 359.7C-11.1752 326.468 -11.1752 259.532 33.5269 226.3C55.6203 209.876 68.1331 183.245 66.9645 155.741C64.8723 106.5 104.915 65.1099 154.183 66.4343L196.343 67.5675C220.666 68.2214 244.372 59.8593 262.902 44.0896L287.079 23.5135Z"
        fill="#E8E8E8" />
</svg>
