<svg width="263" height="199" viewBox="0 0 263 199" fill="none" xmlns="http://www.w3.org/2000/svg">
<mask id="mask0_4_674" style="mask-type:alpha" maskUnits="userSpaceOnUse" x="6" y="0" width="251" height="199">
<path d="M87.4458 198.215C82.407 198.215 77.8786 195.139 76.0209 190.455L7.39279 17.4248C4.19261 9.35631 10.1377 0.602661 18.8177 0.602661H96.4565C101.969 0.602661 106.807 4.27291 108.293 9.58149L119.471 49.5315C122.814 61.4769 139.736 61.5129 143.129 49.5818L154.52 9.53122C156.023 4.24764 160.849 0.602661 166.342 0.602661H244.022C252.702 0.602661 258.647 9.35631 255.447 17.4248L186.819 190.455C184.961 195.139 180.432 198.215 175.394 198.215H87.4458Z" fill="white"/>
</mask>
<g mask="url(#mask0_4_674)">
<rect x="6" y="1" width="250" height="197" fill="#D9D9D9"/>
</g>
</svg>
