<svg width="776" height="775" viewBox="0 0 776 775" fill="none" xmlns="http://www.w3.org/2000/svg">
<mask id="mask0_5_4145" style="mask-type:alpha" maskUnits="userSpaceOnUse" x="0" y="0" width="776" height="775">
<path d="M454.99 138.252C504.376 -46.0489 272.089 -46.0489 321.476 138.252C272.089 -46.0489 70.9202 70.0946 205.85 205.009C70.9202 70.0794 -45.2233 271.249 139.093 320.635C-45.2081 271.249 -45.2081 503.536 139.093 454.149C-45.2081 503.536 70.9354 704.705 205.85 569.775C70.9354 704.69 272.105 820.833 321.476 636.532C272.089 820.833 504.376 820.833 454.99 636.532C504.376 820.833 705.546 704.69 570.616 569.775C705.531 704.69 821.674 503.52 637.373 454.149C821.674 503.536 821.674 271.249 637.373 320.635C821.674 271.249 705.531 70.0794 570.616 205.009C705.531 70.0946 504.361 -46.0489 454.99 138.252Z" fill="#E1E1E1"/>
</mask>
<g mask="url(#mask0_5_4145)">
<path d="M968.138 0.0273438H-193.959V774.759H968.138V0.0273438Z" fill="#F1F9D2"/>
</g>
</svg>
