<svg width="1130" height="968" viewBox="0 0 1130 968" fill="none"
    xmlns="http://www.w3.org/2000/svg">
    <path
        d="M1271.35 -245.183C1262.22 -292.827 1252.15 -282.277 1242.62 -254.882C1236.56 -223.403 1230.52 -241.269 1224.45 -254.882C1218.3 -225.955 1212.11 -304.058 1205.96 -254.882C1199.81 -226.806 1193.63 -253.01 1187.47 -254.882C1181.46 -233.782 1174.37 -249.607 1168.53 -256.583C1164.05 -330.262 1161.81 -232.931 1157.08 -274.45C1152.4 -297.932 1147.72 -271.898 1143.04 -274.28C1135.41 -291.466 1127.76 -283.468 1120.13 -274.28C1116.24 -279.385 1112.13 -251.989 1108.3 -272.238C1103.26 -317.5 1100.99 -239.057 1096.25 -275.981C1092.37 -284.149 1089.79 -314.607 1085.02 -304.058C1081.48 -295.72 1078.61 -282.958 1075.16 -294.018C1069.65 -269.005 1064.47 -299.974 1058.94 -274.62C1054.82 -250.968 1052.81 -266.112 1049.75 -242.12C1048.95 -245.863 1047.82 -245.693 1046.29 -225.444C1045.89 -214.214 1045.47 -193.965 1045.07 -227.486C1042.49 -224.083 1040.02 -219.999 1037.36 -199.24C1031.83 -188.35 1025.7 -168.271 1019.46 -176.098C1013.23 -176.779 1006.9 -180.693 1001 -177.46C997.12 -158.402 988.925 -185.117 985.522 -176.439C983.424 -151.766 982.829 -127.603 980.447 -148.192C979.369 -125.902 976.052 -143.598 975.002 -148.873C969.161 -174.397 963.348 -148.533 957.734 -141.726C950.219 -126.242 943.641 -94.082 935.474 -89.8281C928.754 -94.2522 921.495 -81.15 914.746 -91.0192C910.152 -90.5087 905.531 -91.3595 900.937 -91.1894C897.761 -106.504 894.613 -71.1107 891.494 -89.3176C890.303 -74.1735 890.417 -83.8725 889.226 -68.8986C886.305 -59.0294 880.974 -68.218 877.458 -73.4929C867.704 -129.135 858.885 -90.849 849.102 -120.116C842.439 -118.755 837.278 -127.093 830.841 -132.198C825.794 -84.8935 820.066 -116.373 814.31 -143.258C808.553 -123.349 802.712 -132.708 797.495 -139.514C792.22 -100.718 787.599 -107.184 782.126 -129.475C776.738 -109.566 772.031 -136.622 766.842 -138.834C763.014 -181.033 759.384 -172.355 755.585 -164.358C751.36 -169.122 749.828 -180.693 745.689 -158.062C743.675 -166.059 741.35 -140.025 739.28 -158.572C734.346 -160.614 729.866 -165.549 724.989 -168.611C722.692 -141.556 720.197 -154.829 717.928 -167.931C713.079 -165.038 714.412 -164.187 711.264 -177.8C702.106 -206.897 697.71 -172.355 688.835 -159.593C680.045 -182.735 669.525 -161.125 660.593 -158.402C657.473 -166.74 653.73 -157.891 650.696 -160.104C648.768 -153.127 646.358 -171.504 644.458 -179.842C639.496 -212.512 636.32 -213.874 630.847 -206.557C627.36 -212.002 624.269 -206.557 621.065 -212.172C618.626 -203.664 617.548 -204.515 614.741 -226.465C610.318 -224.423 605.469 -216.596 600.989 -225.785C597.076 -226.976 592.709 -209.62 588.881 -225.104C583.692 -211.491 580.913 -261.688 575.298 -254.882C572.973 -241.269 569.967 -283.298 567.67 -255.733C563.389 -221.19 561.12 -219.149 556.328 -234.463C550.94 -255.903 546.46 -252.329 542.008 -222.041C539.655 -238.376 538.209 -192.434 535.005 -185.797C533.388 -167.25 530.014 -186.308 528.454 -187.159C519.976 -191.413 511.299 -156.53 502.991 -175.758C503.161 -190.392 503.047 -150.234 502.65 -159.933C496.185 -162.826 489.493 -194.305 483 -158.232C480.902 -152.617 477.867 -175.248 475.883 -159.253C472.934 -145.47 470.353 -175.077 467.489 -136.281C464.682 -135.09 463.463 -105.142 461.109 -114.161C451.837 -95.9538 442.961 -147.852 434.058 -139.685C429.719 -113.82 426.146 -135.26 421.836 -148.533C418.66 -132.878 416.165 -156.7 412.961 -178.311C408.991 -178.821 404.681 -174.227 400.91 -182.564C396.344 -211.491 392.204 -169.292 387.441 -235.314C378.707 -285 367.591 -285.17 357.951 -297.251C351.599 -313.416 345.417 -345.746 338.782 -333.155C335.549 -313.757 331.891 -307.631 328.971 -310.864C323.668 -265.432 321.315 -280.746 315.19 -274.11C311.589 -284.83 308.158 -261.178 304.556 -255.562C295.766 -264.921 286.437 -242.971 277.42 -245.183C270.444 -268.324 259.868 -261.008 253.714 -240.759C245.69 -201.622 239.593 -148.703 230.378 -167.42C225.727 -168.782 220.396 -189.881 215.859 -168.441C212.457 -169.122 209.536 -173.546 205.821 -158.232C197.485 -175.248 189.176 -170.653 180.84 -158.402C180.046 -152.787 175.707 -154.488 174.885 -159.423C173.354 -159.763 173.042 -136.452 171.482 -140.705C167.314 -145.47 160.055 -133.389 155.206 -136.962C144.998 -103.781 134.365 -114.501 124.355 -88.8071C118.967 -98.6763 115.621 -92.8909 109.922 -71.6211C102.039 -68.0478 95.2618 -108.205 87.5774 -89.3176C81.0839 -78.2573 75.356 -86.7652 69.1178 -83.5322C63.9003 -117.564 58.2007 -53.5843 52.9549 -83.5322C47.7374 -103.951 42.208 -68.5583 37.0189 -93.4014C34.24 -110.587 31.0358 -82.0008 28.1719 -101.909C24.2588 -86.7652 22.7559 -82.3411 19.1547 -70.7704C16.0356 -83.1919 9.03167 -83.7024 5.77074 -71.2808C0.354774 -106.504 -4.43736 -118.925 -10.0235 -91.87C-15.723 -106.504 -17.1124 -68.218 -21.139 -51.7126C-24.7685 -21.9349 -30.7516 -19.7228 -35.09 -17.851C-38.9181 -9.68344 -49.5799 -29.2516 -53.7482 -14.9583C-58.2001 -19.7228 -60.6387 -71.7913 -62.8788 -90.849C-62.8788 -107.354 -64.4384 -17.851 -66.5367 146.692C-68.635 271.418 -71.2438 435.281 -73.3421 587.913C-75.4404 720.467 -77 828.858 -77 825.454C-72.8317 908.492 -68.0679 886.031 -62.6803 862.379C-60.9789 864.931 -60.8655 843.321 -59.1075 843.661C-57.7464 826.135 -53.7766 845.193 -52.1886 844.682C-46.9995 827.496 -40.8179 811.331 -34.8632 846.894C-28.8801 892.156 -23.0955 833.112 -18.6153 819.669C-17.1691 806.397 -17.4527 847.745 -15.7797 798.059C-13.8515 757.731 -8.94595 819.839 -6.50734 789.381C-3.30313 773.386 -1.23315 794.996 2.1412 775.598C11.1867 741.056 19.5801 721.658 28.0301 725.912C36.4801 697.495 44.9869 689.498 54.2309 706.684C60.3558 742.587 66.3105 737.482 72.5771 728.974C76.3485 707.705 80.2899 773.896 84.0329 728.124C90.2712 724.55 93.8724 760.964 99.4585 765.729C103.825 770.323 108.646 764.878 112.587 785.807C117.635 811.331 120.016 842.64 125.121 855.572C128.75 858.805 131.813 842.981 135.442 865.101C140.971 855.232 143.637 906.28 149.592 920.573C154.072 923.466 159.318 923.636 163.94 921.764C166.548 900.324 169.101 939.801 171.681 923.296C173.723 913.256 175.679 906.96 177.692 939.29C183.817 956.476 191.728 932.995 198.08 940.992C208.175 948.819 218.411 940.992 228.506 941.162C234.603 959.88 241.578 917.51 246.937 907.13C250.17 896.24 251.361 897.432 254.962 878.203C264.206 848.936 277.023 883.819 286.239 883.138C292.76 918.361 298.375 881.947 305.152 893.007C309.632 916.489 312.553 890.625 316.126 902.026C319.188 937.419 321.428 907.641 324.859 944.055C331.211 985.063 339.207 966.176 345.956 940.992C352.251 979.278 358.518 949.33 364.813 940.992C368.357 987.956 373.121 921.254 376.325 936.908C377.998 955.966 378.991 918.871 381.032 916.149C383.244 933.335 385.229 922.785 387.554 911.895C389.681 917.85 391.751 942.523 393.877 912.916C403.263 883.819 412.28 935.377 421.78 921.934C430.201 921.934 438.623 943.714 447.045 921.764C449.398 907.301 455.013 901.685 457.366 922.615C460.258 906.28 458.869 934.526 461.081 904.578C463.292 873.439 461.931 881.266 465.901 892.667C467.092 872.248 468.312 887.222 469.502 893.518C474.72 903.217 480.845 877.353 486.828 879.395C492.811 884.499 498.624 850.808 503.246 841.96C505.656 869.185 506.11 820.52 508.945 817.117C511.526 792.784 517.254 806.567 519.551 815.585C524.059 809.97 529.589 802.994 533.927 813.714C538.946 787.849 542.292 776.789 547.481 817.967C553.889 825.795 560.071 869.526 567.047 833.452C571.073 833.962 574.873 807.418 579.126 813.543C583.493 839.748 587.945 798.059 592.34 797.038C597.756 775.087 603.37 833.282 608.843 796.527C613.493 778.831 620.894 760.964 625.233 798.229C626.537 810.31 627.501 792.273 628.721 814.224C630.479 807.247 632.464 788.87 634.307 820.35C637.256 817.797 640.687 830.049 643.466 846.554C645.536 845.873 646.471 853.701 648.371 866.633C650.98 893.858 652.88 889.434 655.659 890.455C656.963 922.104 658.182 894.879 659.402 908.492C662.663 924.487 666.831 937.078 670.319 912.576C675.479 927.039 680.13 893.007 685.234 920.062C691.671 897.602 698.448 961.411 705.253 926.188C712.058 918.191 718.892 936.568 725.414 922.104C731.879 960.901 738.344 919.892 744.81 922.104C751.275 986.084 757.74 930.102 764.205 922.104C768.231 889.774 772.286 937.078 776.313 922.615C782.268 942.183 784.593 882.287 789.47 893.348C791.738 866.973 796.502 867.824 798.175 858.465C799.565 822.562 799.196 822.902 800.67 820.009C801.776 794.315 803.109 864.421 804.017 797.038C804.725 772.025 804.754 769.642 805.803 767.43C808.213 748.543 811.531 722.679 814.877 747.011C819.414 704.302 822.93 739.694 827.864 728.634C830.586 767.941 833.422 711.618 836.144 729.825C842.07 786.999 847.599 674.354 853.271 685.244C857.099 661.592 856.532 653.084 859.225 663.804C860.615 613.097 863.45 658.869 865.067 659.55C874.679 644.406 883.243 614.628 892.288 613.607C895.606 694.773 898.583 577.874 901.986 606.12C903.262 584.51 906.75 607.481 907.884 614.288C911.23 632.154 912.931 581.447 916.192 654.615C924.671 710.257 934.595 702.6 940.522 759.093C943.414 809.459 946.278 834.813 949.709 825.965C953.962 810.48 960.087 851.659 965.333 854.041C970.607 880.075 975.144 873.439 980.362 882.117C985.182 887.392 990.541 903.047 995.504 893.858C1001.74 892.667 1005.12 896.07 1010.39 914.617C1017.99 953.924 1026.21 933.845 1035.51 961.241C1044.02 965.495 1049.46 945.246 1056.7 927.379C1059.98 887.562 1062.91 895.73 1065.94 890.965C1073.06 881.777 1082.13 867.654 1090.52 853.871C1098.58 868.675 1105.86 845.193 1113.89 845.193C1119.62 843.321 1125.37 847.405 1131.1 844.172C1141.65 849.617 1150.58 845.023 1160.79 881.437C1164.96 868.845 1171.31 904.068 1175.54 882.117C1182.17 866.973 1185.29 826.305 1191.13 817.797C1199.5 772.875 1208.8 808.268 1218.21 792.784C1227.62 792.784 1237.15 793.805 1245.97 796.868C1255.33 803.844 1264.71 787.169 1274.07 796.868C1282.38 786.148 1286.41 752.116 1291 738.844C1291 739.524 1289.78 694.092 1287.94 585.02C1286.09 480.373 1283.66 353.265 1281.19 246.745C1278.75 132.229 1276.28 -31.804 1274.44 -91.5297C1272.6 -218.128 1271.38 -282.448 1271.38 -245.353L1271.35 -245.183Z"
        fill="#F3F4F7" />
    <path
        d="M1271.35 -182.363C1262.22 -203.279 1252.15 -200.559 1242.62 -190.866C1236.56 -206.51 1230.52 -179.473 1224.45 -190.866C1218.3 -240.18 1212.11 -206 1205.96 -190.866C1199.81 -238.989 1193.63 -271.128 1187.47 -190.866C1181.46 -176.072 1174.37 -159.237 1168.53 -192.396C1164.05 -238.309 1161.81 -142.232 1157.08 -208.211C1152.4 -214.162 1147.72 -204.3 1143.04 -208.211C1135.41 -196.477 1127.76 -210.591 1120.13 -208.211C1116.24 -212.632 1112.13 -212.632 1108.3 -206.34C1103.26 -214.162 1100.99 -170.12 1096.25 -209.741C1092.37 -203.619 1089.79 -225.386 1085.02 -234.738C1081.48 -208.551 1078.61 -209.231 1075.16 -225.896C1069.65 -232.017 1064.47 -230.147 1058.94 -208.721C1054.82 -232.017 1052.81 -146.483 1049.75 -179.813C1048.95 -189.846 1047.82 -186.275 1046.29 -165.019C1045.89 -187.125 1045.47 -191.376 1045.07 -166.889C1042.49 -161.958 1040.02 -143.082 1037.36 -141.722C1031.83 -122.167 1025.7 -118.596 1019.46 -121.146C1013.23 -121.997 1006.9 -158.047 1001 -122.337C997.12 -130.839 988.925 -97.8497 985.522 -121.316C983.424 -126.588 982.829 -127.778 980.447 -96.3193C979.369 -93.9386 976.052 -120.636 975.002 -96.9995C969.161 -115.365 963.348 -36.9726 957.734 -90.7077C950.219 -82.0353 943.641 0.607971 935.474 -44.6247C928.754 -24.219 921.495 -18.4374 914.746 -45.6451C910.152 -37.6528 905.531 -37.8228 900.937 -45.6451C897.761 -88.8372 894.613 -74.2131 891.494 -43.9446C890.303 -13.1659 890.417 -5.68381 889.226 -25.7495C886.305 -29.8306 880.974 -14.1862 877.458 -29.8306C867.704 -38.503 858.885 -53.9774 849.102 -71.1522C842.439 -77.1039 837.278 -71.4923 830.841 -81.8652C825.794 -81.8652 820.066 -83.2256 814.31 -91.558C808.553 -80.8449 802.712 -136.621 797.495 -88.157C792.22 -114.514 787.599 -47.0054 782.126 -79.3145C776.738 -77.7841 772.031 -98.3599 766.842 -87.6469C763.014 -111.624 759.384 -142.572 755.585 -110.263C751.36 -126.588 749.828 -83.3957 745.689 -104.652C743.675 -111.113 741.35 -70.302 739.28 -105.162C734.346 -94.4488 729.866 -85.9464 724.989 -114.174C722.692 -122.337 720.197 -120.636 717.928 -113.494C713.079 -94.1087 714.412 -129.819 711.264 -122.167C702.106 -156.006 697.71 -121.486 688.835 -106.012C680.045 -105.842 669.525 -106.692 660.593 -104.992C657.473 -107.542 653.73 -118.085 650.696 -106.522C648.768 -107.032 646.358 -137.981 644.458 -124.037C639.496 -152.945 636.32 -148.354 630.847 -147.844C627.36 -146.143 624.269 -134.92 621.065 -152.775C618.626 -165.359 617.548 -183.044 614.741 -165.529C610.318 -177.432 605.469 -178.792 600.989 -164.849C597.076 -152.605 592.709 -165.869 588.881 -164.168C583.692 -136.961 580.913 -180.153 575.298 -190.696C572.973 -195.117 569.967 -206.51 567.67 -191.376C563.389 -207.361 561.12 -175.051 556.328 -172.501C550.94 -168.59 546.46 -176.582 542.008 -161.448C539.655 -152.605 538.209 -170.29 535.005 -129.309C533.388 -112.304 530.014 -129.309 528.454 -130.499C519.976 -85.6063 511.299 -126.758 502.991 -120.296C503.161 -89.6874 503.047 -83.0556 502.65 -106.352C496.185 -98.1898 489.493 -133.73 483 -104.822C480.902 -91.558 477.867 -90.7077 475.883 -105.672C472.934 -103.291 470.353 -67.7513 467.489 -85.2662C464.682 -52.7871 463.463 -76.4237 461.109 -65.5406C451.837 -51.7668 442.961 -77.9541 434.058 -88.327C429.719 -107.883 426.146 -58.3986 421.836 -96.1492C418.66 -123.017 416.165 -120.976 412.961 -122.507C408.991 -100.911 404.681 -110.263 400.91 -126.248C396.344 -123.527 392.204 -129.139 387.441 -173.011C378.707 -191.546 367.591 -208.041 357.951 -227.936C351.599 -250.723 345.417 -276.23 338.782 -259.735C335.549 -254.804 331.891 -202.599 328.971 -240.01C323.668 -231.167 321.315 -219.264 315.19 -207.361C311.589 -210.591 308.158 -215.693 304.556 -190.866C295.766 -163.658 286.437 -188.485 277.42 -181.683C270.444 -206.17 259.868 -208.211 253.714 -177.772C245.69 -177.432 239.593 -123.017 230.378 -112.644C225.727 -118.596 220.396 -112.304 215.859 -113.494C212.457 -69.4518 209.536 -82.5454 205.821 -104.482C197.485 -110.433 189.176 -84.4159 180.84 -104.652C180.046 -99.8903 175.707 -118.766 174.885 -105.502C173.354 -76.4237 173.042 -99.8903 171.482 -89.0072C167.314 -85.7763 160.055 -81.015 155.206 -85.6063C144.998 -83.7357 134.365 -50.0663 124.355 -42.9243C118.967 -63.33 115.621 -18.6074 109.922 -27.62C102.039 -37.6528 95.2618 -32.5513 87.5774 -43.2644C81.0839 -75.5734 75.356 -72.0025 69.1178 -37.9929C63.9003 -44.9648 58.2007 -18.2673 52.9549 -37.9929C47.7374 -34.932 42.208 -52.447 37.0189 -46.6653C34.24 -30.3407 31.0358 -42.9243 28.1719 -54.1474C24.2588 -44.4547 22.7559 -46.1552 19.1547 -26.5997C16.0356 -37.9929 9.03167 -59.759 5.77074 -27.1098C0.354774 -2.62296 -4.43736 -51.5967 -10.0235 -45.475C-15.723 -73.7029 -17.1124 -30.1707 -21.139 -9.76495C-24.7685 32.9171 -30.7516 33.9373 -35.09 20.1635C-38.9181 9.45044 -49.5799 29.6861 -53.7482 22.7142C-58.2001 -29.6606 -60.6387 -44.4547 -62.8788 -44.6247C-62.8788 -42.074 -64.4384 85.8019 -66.5367 166.235C-68.635 345.975 -71.2438 435.76 -73.3421 557.855C-75.4404 648.66 -77 778.577 -77 768.714C-72.8317 766.503 -68.0679 794.561 -62.6803 801.533C-60.9789 795.581 -60.8655 871.083 -59.1075 784.869C-57.7464 805.104 -53.7766 819.898 -52.1886 785.719C-46.9995 740.656 -40.8179 764.123 -34.8632 787.589C-28.8801 818.028 -23.0955 831.972 -18.6153 763.443C-17.1691 755.96 -17.4527 736.235 -15.7797 744.397C-13.8515 756.3 -8.94595 761.232 -6.50734 736.745C-3.30313 773.475 -1.23315 684.88 2.1412 724.501C11.1867 700.695 19.5801 713.108 28.0301 680.459C36.4801 681.99 44.9869 661.924 54.2309 663.284C60.3558 644.579 66.3105 681.99 72.5771 683.18C76.3485 677.908 80.2899 670.766 84.0329 682.33C90.2712 706.306 93.8724 684.2 99.4585 715.659C103.825 712.938 108.646 680.969 112.587 733.514C117.635 756.641 120.016 776.026 125.121 795.411C128.75 817.348 131.813 788.61 135.442 803.744C140.971 811.226 143.637 830.101 149.592 852.888C154.072 890.128 159.318 841.495 163.94 854.078C166.548 845.406 169.101 868.532 171.681 855.438C173.723 858.839 175.679 842.345 177.692 869.552C183.817 879.755 191.728 877.205 198.08 871.083C208.175 877.205 218.411 879.245 228.506 871.083C234.603 873.634 241.578 841.835 246.937 840.814C250.17 838.774 251.361 793.371 254.962 815.137C264.206 820.408 277.023 807.485 286.239 819.558C292.76 841.494 298.375 821.599 305.152 828.401C309.632 832.652 312.553 801.873 316.126 836.393C319.188 847.276 321.428 906.283 324.859 873.803C331.211 963.249 339.207 880.605 345.956 871.083C352.251 893.359 358.518 863.601 364.813 871.083C368.357 910.704 373.121 871.593 376.325 867.512C377.998 849.317 378.991 880.095 381.032 849.147C383.244 768.034 385.229 869.382 387.554 845.406C389.681 828.401 391.751 843.705 393.877 846.256C403.263 871.593 412.28 825 421.78 854.248C430.201 815.647 438.623 853.568 447.045 854.078C449.398 804.254 455.013 894.549 457.366 854.758C460.258 902.882 458.869 849.147 461.081 838.774C463.292 812.076 461.931 841.495 465.901 828.061C467.092 804.424 468.312 782.148 469.502 828.911C474.72 820.919 480.845 835.373 486.828 816.327C492.811 793.711 498.624 788.78 503.246 783.168C505.656 775.006 506.11 781.978 508.945 761.062C511.526 744.737 517.254 777.386 519.551 759.701C524.059 697.804 529.589 764.633 533.927 758.001C538.946 759.701 542.292 762.762 547.481 761.742C553.889 780.957 560.071 783.848 567.047 775.516C571.073 782.998 574.873 764.973 579.126 757.831C583.493 790.82 587.945 790.14 592.34 743.207C597.756 756.3 603.37 740.486 608.843 742.697C613.493 729.093 620.894 720.93 625.233 744.227C626.537 797.282 627.501 749.499 628.721 758.511C630.479 747.458 632.464 759.021 634.307 763.953C637.256 790.31 640.687 807.825 643.466 787.079C645.536 786.399 646.471 796.262 648.371 804.764C650.98 802.553 652.88 811.056 655.659 825.85C656.963 848.977 658.182 882.986 659.402 841.835C662.663 864.451 666.831 840.644 670.319 845.406C675.479 852.718 680.13 819.898 685.234 852.208C691.671 868.192 698.448 863.601 705.253 857.649C712.058 861.9 718.892 866.151 725.414 854.078C731.879 873.464 738.344 843.875 744.81 854.078C751.275 890.808 757.74 851.357 764.205 854.078C768.231 824.15 772.286 857.819 776.313 854.588C782.268 795.241 784.593 840.984 789.47 828.571C791.738 846.086 796.502 770.244 798.175 797.622C799.565 777.216 799.196 792.861 800.67 763.613C801.776 716.509 803.109 752.219 804.017 743.207C804.725 689.132 804.754 737.425 805.803 716.849C808.213 702.395 811.531 761.912 814.877 698.654C819.414 728.413 822.93 712.428 827.864 682.33C830.586 652.571 833.422 666.855 836.144 683.35C842.07 690.152 847.599 658.013 853.271 643.729C857.099 603.427 856.532 618.222 859.225 624.683C860.615 604.278 863.45 594.415 865.067 620.942C874.679 628.254 883.243 602.067 892.288 580.301C895.606 558.195 898.583 574.689 901.986 573.669C903.262 617.882 906.75 596.115 907.884 580.811C911.23 584.212 912.931 589.824 916.192 616.691C924.671 690.152 934.595 640.328 940.522 709.367C943.414 720.08 946.278 781.978 949.709 768.714C953.962 818.368 960.087 847.276 965.333 793.711C970.607 843.705 975.144 770.584 980.362 818.538C985.182 794.051 990.541 848.807 995.504 828.911C1001.74 839.284 1005.12 819.558 1010.39 847.276C1017.99 898.801 1026.21 888.938 1035.51 888.768C1044.02 914.785 1049.46 879.755 1056.7 858.669C1059.98 828.571 1062.91 836.563 1065.94 826.36C1073.06 811.056 1082.13 833.332 1090.52 793.371C1098.58 823.639 1105.86 819.558 1113.89 785.549C1119.62 768.034 1125.37 753.24 1131.1 784.698C1141.65 804.934 1150.58 811.906 1160.79 817.858C1164.96 803.574 1171.31 798.982 1175.54 818.538C1182.17 795.241 1185.29 770.074 1191.13 761.402C1199.5 708.857 1208.8 742.527 1218.21 739.126C1227.62 732.324 1237.15 746.948 1245.97 742.697C1255.33 741.846 1264.71 759.531 1274.07 742.697C1282.38 733.854 1286.41 737.935 1291 691.342C1291 675.868 1288.82 609.039 1285.92 465.009C1283.03 337.303 1279.37 147.869 1276.48 44.6504C1273.59 -63.8402 1271.41 -151.075 1271.41 -181.683L1271.35 -182.363Z"
        fill="#E8E8E8" />
</svg>
