<svg width="194" height="165" viewBox="0 0 194 165" fill="none" xmlns="http://www.w3.org/2000/svg">
<mask id="mask0_5_4215" style="mask-type:alpha" maskUnits="userSpaceOnUse" x="15" y="7" width="164" height="152">
<path d="M105.135 158.025C88.1116 158.025 72.8105 155.187 59.2321 149.513C45.8564 143.838 35.2166 135.529 27.3128 124.585C19.409 113.439 15.457 99.759 15.457 83.546C15.457 60.6451 22.2462 42.3042 35.8246 28.5231C49.6057 14.7421 70.0746 7.85156 97.2314 7.85156C121.956 7.85156 141.716 13.9314 156.51 26.0912C171.305 38.2509 178.702 55.5786 178.702 78.0741V93.7355C178.702 98.6852 174.689 102.698 169.74 102.698H100.355C93.1826 102.698 90.7107 109.609 97.5354 111.817V111.817C104.629 113.844 113.748 114.857 124.895 114.857C134.015 114.857 142.83 114.148 151.342 112.729C154.079 112.208 156.628 111.676 158.987 111.134C165.086 109.733 171.406 114.236 171.406 120.494V141.441C171.406 144.888 169.446 148.067 166.235 149.319C151.35 155.123 130.983 158.025 105.135 158.025ZM85.1104 57.4401C82.3447 61.5449 86.6521 65.9144 91.6018 65.9144H113.039C114.55 65.9144 115.775 64.6895 115.775 63.1784V63.1784C115.775 60.3412 114.66 57.7066 112.431 55.2746C110.202 52.64 105.946 51.3227 99.6633 51.3227C93.5835 51.3227 89.2262 52.7413 86.5916 55.5786C86.0401 56.1725 85.5464 56.793 85.1104 57.4401Z" fill="white"/>
</mask>
<g mask="url(#mask0_5_4215)">
<rect x="15" y="4" width="169" height="161" fill="#D9D9D9"/>
</g>
</svg>
