<svg width="782" height="697" viewBox="0 0 782 697" fill="none" xmlns="http://www.w3.org/2000/svg">
<mask id="mask0_2_2" style="mask-type:alpha" maskUnits="userSpaceOnUse" x="0" y="0" width="782" height="697">
<path d="M182.299 0.183864C148.006 0.183864 114.546 10.8901 85.5295 31.2046C57.415 50.9014 34.7152 78.5593 19.8596 111.296C1.81086 151.307 -3.46494 196.328 4.5876 241.418C13.6814 291.998 38.5332 340.039 78.5876 384.306C219.368 539.821 380.627 687.307 382.224 688.817L391.109 696.915L399.995 688.817C401.591 687.376 562.85 539.89 703.631 384.306C743.685 340.039 768.607 291.998 777.631 241.418C785.753 196.26 780.477 151.307 762.359 111.296C747.573 78.5593 724.873 50.8328 696.689 31.136C667.672 10.8215 634.213 0.115234 599.92 0.115234C560.143 0.115234 520.019 14.7334 483.852 42.3913C449.004 69.0883 417.835 107.384 391.04 156.523C364.244 107.384 333.076 69.0883 298.227 42.4599C262.199 14.802 222.075 0.183864 182.299 0.183864Z" fill="white"/>
</mask>
<g mask="url(#mask0_2_2)">
<path d="M781.342 0.114746H0.925781V696.915H781.342V0.114746Z" fill="white"/>
</g>
</svg>
