<svg width="1094" height="595" viewBox="0 0 1094 595" fill="none"
    xmlns="http://www.w3.org/2000/svg">
    <path
        d="M1073.59 194.823C1076.29 193.971 1078.05 193.562 1079.46 192.914C1081.33 192.073 1084.52 190.848 1084.27 190.091C1083.72 188.338 1081.84 186.548 1079.71 185.215C1078.83 184.662 1075.92 185.215 1075.02 185.227C1073.81 180.206 1072.77 175.811 1071.68 171.271C1076.02 171.751 1079.89 172.183 1083.76 172.616C1082.31 170.322 1078.91 169.169 1077.54 167.451C1076.15 165.698 1076.78 163.392 1076.47 160.821C1068.28 163.812 1063.82 160.713 1059.75 157.074C1059.13 156.521 1058.56 155.945 1057.93 155.392C1053.46 151.585 1053.38 151.621 1046.01 153.867C1044.43 154.348 1042.49 154.54 1040.69 154.612C1032.7 154.936 1032.68 154.924 1031.66 160.341C1045.21 164.004 1047.97 166.899 1044.88 174.189C1042.67 174.345 1040.46 174.501 1036.49 174.778C1042.45 177.552 1046.93 179.654 1052.01 182.032C1049 183.449 1047.05 184.374 1046.17 184.783C1046.58 189.034 1046.91 192.625 1047.2 195.592C1050.31 196.709 1053.69 197.478 1055.92 198.859C1058.4 200.408 1059.83 202.522 1061.82 204.504C1051.91 206.618 1045.7 211.11 1040.81 216.443C1039.6 217.752 1037.64 219.818 1036.04 219.818C1030.53 219.794 1029.88 221.727 1029.73 224.033C1029.59 226.363 1028.11 228.958 1033.64 230.243C1038.29 231.324 1037.74 233.414 1035.24 237.077C1032.5 234.278 1030.96 232.429 1028.97 230.747C1024.76 227.168 1021.48 222.58 1015.65 220.43C1014.54 220.022 1013.5 219.589 1012.47 219.145C1015.79 216.07 1018.88 212.647 1023.08 208.468C1014.15 208.78 1007.87 209.008 1000.62 209.26C1001.77 205.165 1006.76 201.201 996.422 199.868C994.64 199.64 993.883 196.277 992.961 194.307C989.768 187.533 986.717 180.735 983.277 173.204C974.617 172.7 966.161 172.207 959.466 171.811C954.348 168.316 951.256 164.472 946.24 163.139C942.063 162.034 937.662 161.206 933.116 160.449C932.932 160.245 932.727 160.029 932.543 159.764C925.684 158.827 919.952 154.275 910.964 157.014C909.776 157.374 907.319 156.569 905.661 156.065C899.949 154.287 894.359 152.618 887.705 152.053C886.068 151.369 884.532 150.552 883.713 149.615C881.952 147.586 881.133 145.219 880.458 142.937C879.782 140.607 878.492 137.953 879.721 135.911C882.055 132.056 886.006 128.549 889.077 125.126C892.64 125.51 895.915 125.822 899.027 126.086C898.434 127.3 898.188 128.609 898.29 130.002C898.454 131.984 899.908 132.572 901.812 132.62C901.996 134.878 902.201 137.028 902.385 139.19C898.536 138.722 894.83 138.277 890.961 137.809C883.877 142.565 881.925 146.004 885.105 148.126C887.746 146.541 890.387 144.943 893.295 143.202C899.969 149.531 903.593 150.78 908.466 148.546C910.718 147.513 913.032 145.868 913.462 144.319C913.871 142.889 911.803 141.22 911.189 140.259C910.738 140.199 910.329 140.151 909.879 140.103C913.666 139.166 913.564 138.289 913.052 134.806C914.792 134.025 916.574 133.233 917.433 132.836C917.27 130.783 917.106 128.885 916.942 126.999C922.613 126.999 926.79 126.591 929.288 125.75C925.07 125.39 920.893 124.993 916.737 124.621C916.655 123.696 916.574 122.759 916.492 121.799C915.099 121.258 913.236 120.525 911.025 119.673C908.138 120.598 904.596 121.198 902.406 122.543C902.017 122.784 901.73 123.072 901.402 123.336C898.864 123.156 896.325 122.988 893.766 122.856C889.753 122.663 887.542 121.895 885.576 120.201C881.584 116.778 882.321 113.992 888.299 110.196C893.172 107.086 899.212 104.491 901.976 100.083H887.767C889.589 100.972 890.776 101.549 892.762 102.522C887.849 103.903 884.266 104.107 881.584 102.005C878.492 99.5909 876.547 96.5042 880.028 94.018C887.357 88.7573 887.664 82.3076 891.432 75.5456C886.006 75.0291 881.522 74.5967 877.346 74.2004C871.715 68.7715 880.54 64.2315 878.247 59.4873C889.521 55.1875 895.069 51.9606 894.892 49.8067C888.156 52.1488 881.359 53.7462 876.363 56.4726C870.139 59.8596 862.482 60.8445 855.132 62.1056C851.426 62.7422 846.266 61.6973 842.642 60.5082C841.598 60.1719 843.4 56.857 844.014 54.8031C838.036 55.6199 832.119 56.869 826.079 57.0972C819.671 57.3374 817.746 55.6679 817.419 51.7524C817.009 46.9121 821.759 43.9455 828.106 41.6635C834.31 39.4295 840.431 37.2195 845.079 33.8565C844.117 33.3281 843.768 33.0278 843.584 33.0518C842.212 33.256 840.616 33.3401 839.551 33.8085C822.537 41.3752 806.035 49.3023 791.192 58.3583C786.012 61.5171 780.177 64.3156 774.587 67.2462C770.943 69.1679 766.725 71.8703 761.955 69.7804C758.945 68.4713 758.311 65.2764 756.673 62.9224C756.407 62.526 756.448 62.0456 756.427 61.6132C756.366 57.998 758.741 56.4006 764.862 55.9802C768.322 55.74 771.803 55.5838 775.263 55.3797C775.263 54.9833 775.222 54.5749 775.202 54.1786C770.452 53.6381 765.702 53.0976 760.665 52.5331C761.894 48.5096 762.856 45.3027 763.798 42.216C763.183 41.9397 762.651 41.7355 762.119 41.5554C762.385 40.8227 761.771 40.4744 760.215 39.6697C760.03 40.1381 759.867 40.5825 759.744 41.0269C756.878 40.7867 755.485 42.3481 754.666 44.2338C753.069 47.921 751.902 51.6684 750.756 55.4037C750.162 57.3614 749.527 58.6706 748.381 59.5353C748.893 57.6136 749.302 55.6799 749.834 53.7462C751.616 47.3926 753.213 41.0029 755.649 34.7213C756.529 32.4513 756.836 30.3975 755.997 28.2115C756.018 28.1875 756.038 28.1515 756.058 28.1275C756.018 28.1034 755.977 28.0794 755.956 28.0554C755.956 28.0554 755.956 28.1034 755.956 28.1515V28.2476C754.851 29.0403 753.725 29.821 752.517 30.6857C752.25 30.5896 751.964 30.4936 751.698 30.4095C753.131 29.7009 754.318 28.776 754.912 27.4549C750.285 27.1306 746.313 26.8663 742.484 26.6021C743.119 23.059 743.672 19.9602 744.225 16.8494C740.949 17.3659 739.045 18.2187 738.799 19.2276C736.813 27.0585 734.766 34.8895 733.496 42.7685C733.394 43.333 733.251 43.8854 733.087 44.4379C732.841 42.6123 732.616 40.9789 732.37 39.1653C729.791 41.8436 729.791 43.9695 732.514 45.9633C731.715 47.7889 730.507 49.5064 729.053 51.1399C728.787 50.5874 728.378 50.0469 727.682 49.5305C727.579 50.9117 727.416 51.9206 727.395 52.8574C726.31 53.9144 725.122 54.9473 723.874 55.9682C722.359 57.2053 718.571 58.5505 716.421 58.2742C707.433 57.0852 701.332 59.6795 695.313 62.8022C690.993 65.0482 685.055 65.2764 681.984 63.0665C676.866 59.3672 670.457 61.2048 664.766 60.4842C663.537 60.3281 662.452 60.4001 661.449 60.6163C660.466 59.4873 659.524 58.3583 658.583 57.2293C663.865 56.2084 668.717 55.2716 673.528 54.3467C667.12 53.9624 662.206 54.3948 657.395 55.8361C652.256 49.7947 646.687 44.1497 635.549 40.8468C630.41 42.6363 623.593 44.1977 618.699 46.9482C614.994 49.038 612.312 51.7524 609.548 54.4668C605.617 53.7222 601.706 52.8334 597.734 52.1848C591.633 51.1879 586.985 48.4975 581.417 46.8881C581.887 45.4228 580.29 43.2729 576.974 39.8379C575.622 40.4384 574.312 41.0029 573.002 41.5794C569.419 40.3663 565.795 39.1292 561.884 37.796C563.031 36.7151 563.727 35.478 565.201 34.8294C566.819 34.1088 569.132 33.9286 571.159 33.5082C566.941 33.4722 563.031 33.0999 559.264 32.4033C559.08 32.2231 558.793 32.079 558.302 32.0309C558.035 32.0069 557.749 32.0309 557.462 32.0309C555.435 31.5865 553.449 31.0581 551.504 30.3614C550.337 29.9411 548.147 30.5176 546.406 30.6137C544.42 30.7218 542.291 31.1181 540.489 30.8299C533.672 29.7129 527.079 28.0434 520.179 27.1666C510.884 25.9896 503.022 23.5754 495.959 19.8761C491.045 17.3059 485.722 14.9638 478.74 14.3993C474.973 14.087 473.089 12.6938 473.11 10.4838C473.151 8.74225 473.826 7.0007 474.277 5.27117C474.727 3.60168 475.28 1.93221 475.751 0.370824C470.469 -0.866275 467.991 1.2596 466.763 2.82099C464.019 6.34011 458.819 8.26182 454.274 10.6279C448.889 13.4144 439.43 13.5465 433.964 10.748C429.623 8.51405 425.344 8.5621 420.594 9.97935C418.956 10.4718 417.319 11.0243 415.578 11.2765C414.698 11.3966 412.732 10.9042 412.712 10.6519C412.651 9.96734 413.04 9.03051 413.879 8.63416C415.292 7.94955 417.196 7.60123 418.875 7.1088C418.608 6.79652 418.322 6.48425 418.056 6.15996C410.787 6.95267 404.911 9.39082 399.732 12.3454C396.927 11.5047 394.101 11.5287 392.545 9.45088C391.788 8.42997 387.242 8.18976 386.076 6.98869C387.427 6.19599 388.88 5.75159 389.024 5.18709C389.515 3.34946 390.15 1.33167 385.543 0.382828C384.888 2.88105 381.326 2.89306 378.254 3.39751C376.023 3.76984 372.665 4.55053 373.873 5.79964C375.593 7.56521 372.338 8.09367 372.706 9.27072C373.177 10.736 374.037 12.1773 374.16 13.6426C374.242 14.7956 373.893 16.1168 372.993 17.1257C370.454 19.9362 366.339 21.966 361.323 22.9869C358.17 23.6235 356.839 24.6083 356.286 26.3619C356.286 26.4099 356.266 26.47 356.245 26.518C353.932 25.7253 351.188 25.2929 349.407 24.4042C344.514 22.002 337.737 23.8156 333.519 26.1457C327.684 24.5363 322.627 23.131 315.645 21.1973C317.959 24.176 319.208 25.7974 320.477 27.4428C317.59 29.7489 314.908 31.8868 312.226 34.0247C314.089 35.1417 315.891 36.2947 317.857 37.3637C324.163 40.7987 328.278 46.9842 340.214 43.5251C340.89 43.333 342.466 44.1377 343.592 44.522C348.445 46.1435 353.297 47.7649 360.217 50.083C360.012 50.3352 358.722 52.0527 356.818 54.5269C363.022 54.2987 366.421 54.1666 371.744 53.9744C371.682 53.8783 371.621 53.7822 371.56 53.6862C371.56 53.6862 371.539 53.6621 371.519 53.6501C370.863 52.6292 370.229 51.6563 369.614 50.6835C369.717 49.5064 371.252 48.7858 374.078 48.7618C377.456 48.7378 380.834 49.2662 384.212 49.4704C386.198 49.5905 388.696 50.0229 390.088 49.4944C396.579 47.0683 402.127 49.4104 408.105 49.9989C406.508 52.7373 403.294 52.9295 399.302 52.8934C401.165 53.482 403.028 54.0705 405.075 54.7191C412.036 49.9869 417.851 54.0585 423.911 55.5598C424.403 54.9593 424.771 54.5149 424.873 54.3828C426.02 54.2507 427.146 54.1786 428.252 54.1065C427.535 55.8601 426.839 57.6016 425.713 59.2471C424.587 60.8565 421.065 62.2137 421.045 63.691C421.045 66.0211 420.103 67.9788 418.568 69.6964C416.049 70.9335 413.592 72.1465 411.033 73.4077C411.811 73.6359 412.384 73.9001 412.548 73.828C413.347 73.4917 414.084 73.0954 414.841 72.723C412.589 74.1523 409.866 75.4134 406.979 76.6145C406.447 76.8307 405.362 76.6145 403.765 76.5785C403.683 76.3503 403.581 76.1101 403.499 75.8819C405.751 74.9931 407.307 74.3685 408.863 73.744C407.266 74.2724 404.318 73.5157 403.376 75.5576C402.762 73.9842 402.107 72.3147 401.329 70.2969C396.968 70.5731 393.078 70.8134 387.754 71.1497C393.61 73.9962 396.435 76.8067 396.169 79.8694C395.023 79.6652 393.856 79.4971 392.709 79.2929C389.515 78.7284 386.587 77.6474 383.434 76.7827C383.762 76.1221 384.028 75.5696 384.315 75.0171C384.806 74.6688 385.277 74.3205 385.768 73.9601C385.461 73.9121 385.195 73.8761 384.888 73.828C385.052 73.5038 385.216 73.1674 385.359 72.8552C385.031 72.7951 384.704 72.7351 384.376 72.663C384.049 72.9753 383.742 73.2996 383.414 73.6118C380.322 73.1674 377.415 72.7471 374.692 72.3627C375.859 71.9784 376.903 71.498 377.743 70.8013C373.709 70.393 370.065 70.2969 366.789 69.5883C363.595 68.9036 360.811 67.5825 356.921 66.2253C357.862 67.4984 358.231 67.9909 358.6 68.4953C355.733 67.6065 353.727 66.3334 351.536 65.1803C350.226 64.4837 348.772 63.7391 347.134 63.3908C342.036 62.2618 336.815 61.3129 331.635 60.28C334.666 56.0643 332.68 54.2146 322.729 52.5571C324.592 54.0345 325.944 55.1274 327.357 56.2564C325.596 56.7729 322.934 55.8481 320.948 56.0643C311.776 52.0047 301.58 49.2542 288.395 53.9384C287.821 53.4339 287.187 52.9775 286.532 52.5571C285.119 48.5936 283.686 44.6301 282.232 40.6666C282.089 40.2943 281.823 39.9339 281.536 39.5856C283.686 37.8921 284.73 36.3668 284.976 34.9735C285.119 35.1057 285.283 35.2378 285.426 35.3699C294.435 36.0905 302.542 37.0153 307.046 42.1559C309.442 44.8823 314.11 45.615 318.798 46.2275C317.693 45.3868 316.239 44.8823 314.888 44.2938C313.25 43.5732 310.957 42.9726 310.24 41.9998C307.272 37.8801 300.966 36.583 294.68 35.2978C290.933 34.5291 287.207 33.8445 284.464 32.2231C282.846 29.0403 278.137 26.3499 276.581 23.143C270.808 23.5154 265.914 23.8397 261.553 24.1279C255.555 28.9562 259.834 33.244 261.103 37.8201C267.778 38.5167 273.961 39.1653 280.758 39.8859C280.164 43.5371 280.881 47.0443 281.986 50.5273C277.359 49.1341 271.647 49.1101 265.177 50.4433C267.368 52.9895 269.579 55.5238 272.138 58.5024C262.516 60.244 254.06 61.7693 245.359 63.3427C245.318 62.4539 245.727 61.5772 246.648 60.7004C249.392 58.0941 249.351 58.082 245.133 55.3436C245.031 56.5807 245.748 58.2022 244.683 58.9588C243.721 59.6434 243.25 60.328 242.984 61.0126C242.369 60.304 241.817 59.7155 241.121 59.199C239.36 57.8779 236.842 55.5958 235.286 55.764C231.641 56.1603 227.956 57.5056 225.192 59.0189C224.045 59.6555 225.192 61.7213 225.233 62.3579C214.853 63.2106 205.742 63.9673 196.344 64.736C197.347 61.6372 198.248 58.8868 199.149 56.1363C194.399 57.1692 192.004 59.5954 188.462 60.5683C184.838 61.5531 180.068 61.0967 174.744 61.3249C180.948 67.1621 174.519 70.3449 166.985 73.2395C165.838 73.6839 164.63 74.0803 163.504 74.5367C155.622 77.7195 155.683 77.7795 160.351 83.0162C161.354 84.1332 161.743 85.5264 161.907 86.7995C162.419 91.0513 162.521 92.1323 167.251 92.7208C166.248 92.961 166.35 93.8979 165.797 94.9188C169.073 94.7146 171.469 94.5584 174.11 94.4023C176.874 96.288 180.252 97.3809 184.756 98.1016C190.816 99.0624 196.467 101.152 201.913 103.122C206.295 104.707 206.417 106.341 204.083 109.296C203.572 109.932 203.264 110.917 203.756 111.469C205.332 113.247 204.452 114.712 202.282 115.865C195.791 119.276 189.158 122.591 182.504 125.87C181.746 126.243 179.842 126.495 179.371 126.243C175.563 124.129 173.966 126.567 171.919 127.624C171.264 127.36 170.711 127.131 170.097 126.891C170.936 125.954 171.694 125.005 172.349 124.021C179.781 122.651 183.343 118.063 189.567 115.673C183.978 117.223 178.532 118.904 173.884 121.27C174.683 119.469 175.154 117.583 175.072 115.529C174.99 113.547 177.201 110.665 179.904 109.668C183.548 108.335 184.347 107.23 183.876 106.185C184.777 106.305 185.677 106.425 186.599 106.545C185.493 105.981 184.347 105.56 183.118 105.224C182.299 104.479 181.071 103.723 179.965 102.894C178.389 103.254 176.894 103.59 175.4 103.939C174.11 103.783 172.82 103.614 171.55 103.398C171.387 103.759 171.202 104.131 171.039 104.491C171.448 104.551 171.858 104.599 172.267 104.659C170.568 105.044 168.786 105.452 166.76 105.921C166.35 102.233 166.022 99.2666 165.654 95.8796C160.208 96.0357 155.028 96.1919 147.76 96.4081C153.636 101.921 150.503 105.224 144.73 108.635C143.324 104.327 140.239 102.289 135.475 102.522C137.38 105.332 139.14 107.938 141.065 110.785C137.093 113.283 133.162 115.733 128.269 118.808C126.262 116.574 124.952 115.109 123.969 114.016C127.347 111.782 130.05 110.004 132.732 108.227C131.79 107.83 130.869 107.434 129.927 107.038C123.662 110.713 116.66 114.112 117.991 121.174C114.613 119.829 112.463 118.976 107.201 116.886C112.422 124.489 109.76 129.906 106.444 135.371C104.765 138.133 103.905 141.088 102.922 143.982C101.182 149.075 104.56 152.858 109.31 156.173C106.792 155.861 104.294 155.633 101.857 155.981C102.083 156.63 102.287 157.29 102.554 158.047C105.727 158.059 108.962 158.083 112.279 158.095C113.425 158.803 114.613 159.5 115.8 160.185C113.118 163.199 113.139 163.56 113.466 165.493C115.677 164.34 117.888 163.199 120.079 162.058C120.53 162.299 120.98 162.551 121.43 162.791C115.084 165.373 115.309 170.742 108.02 173.06C106.894 172.4 106.055 171.907 104.683 171.102C104.048 172.7 103.946 173.973 103.024 174.994C100.813 177.432 99.0525 179.822 100.117 182.705C100.342 183.293 99.3801 184.434 98.4383 184.698C93.975 185.996 93.0537 188.422 91.7843 190.896C90.2078 193.971 88.099 196.937 86.154 199.952C83.9633 203.363 81.7111 206.762 79.5204 210.161C76.8384 214.317 74.0949 218.46 71.5766 222.652C70.5938 224.298 69.8568 226.027 69.5702 227.757C69.1197 230.387 70.2458 231.588 74.5863 232.273C77.6573 232.753 78.9677 233.774 79.1724 235.311C79.7047 239.239 79.9094 243.19 80.278 247.358C73.8492 247.022 67.5023 246.685 61.0121 246.349C68.8945 250.072 69.1197 250.301 68.6898 253.928C64.247 254.216 59.7427 253.916 57.1221 252.427C55.4227 251.466 54.8699 249.796 53.6824 248.319C51.4099 248.151 48.564 248.367 46.6599 247.682C44.0597 246.758 42.299 247.094 40.5178 248.079C38.5727 249.148 36.7096 249.208 34.2323 248.691C27.7625 247.346 21.2109 246.097 14.6183 244.98C9.82745 244.163 5.22083 242.746 0 243.142C6.87922 244.632 13.697 246.277 20.6991 247.526C31.4069 249.448 42.3195 251.009 53.0682 252.859C61.8515 254.372 70.5938 255.97 79.2543 257.723C83.9019 258.66 88.3037 260.017 93.2994 261.314C97.3941 259.525 102.042 261.507 106.669 262.119C111.214 262.72 117.151 261.807 119.506 265.314C113.998 267.32 108.225 266.491 102.124 266.011C103.413 267.284 104.314 268.173 105.236 269.073C108.143 267.56 109.617 267.98 110.006 270.37C106.628 270.539 103.413 270.707 99.8919 270.887C101.796 274.274 105.727 272.196 108.859 272.364C109.617 273.481 110.334 274.514 111.153 275.715C109.637 276.016 108.614 276.208 107.59 276.412C108.225 276.772 108.839 277.289 109.515 277.313C113.466 277.457 115.493 278.874 117.192 280.748C118.482 282.177 120.202 283.474 122.024 285.084C123.437 281.492 123.273 279.535 121.656 278.189C121.226 279.006 120.775 279.823 120.059 281.168C115.862 278.105 116.107 274.202 109.064 272.064C115.493 270.587 120.386 269.554 125.136 268.341C129.784 267.164 134.308 265.831 138.854 264.497C143.276 263.2 147.637 261.831 151.425 260.666C152.776 262.78 153.574 264.545 154.987 266.119C156.789 268.125 156.83 268.569 152.899 269.025C150.544 269.302 149.684 269.746 149.991 270.947C152.796 271.812 155.847 272.4 158.386 273.397C155.745 274.598 153.984 276.003 154.066 278.358C154.803 276.304 158.693 276.196 161.702 275.283C161.989 275.535 162.276 275.787 162.521 276.076C159.43 278.346 160.536 281.925 155.274 283.498C154.66 283.678 154.7 284.963 154.885 285.684C155.478 287.978 155.028 290.068 153.104 292.158C150.319 295.185 147.903 298.319 145.323 301.418C145.897 301.418 146.47 301.418 147.043 301.418C148.661 303.268 150.565 305.057 151.834 306.991C153.533 309.561 154.086 309.934 158.898 309.922C161.682 309.922 162.501 310.594 161.805 312.108C161.764 312.204 161.723 312.312 161.682 312.408C158.979 313.813 156.216 314.053 151.855 313.441C151.65 312.756 151.732 311.999 152.305 311.135C153.144 309.826 150.012 308.961 147.105 309.633C146.716 309.717 146.675 310.282 146.347 310.798C147.494 310.75 148.313 310.726 149.009 310.702C149.132 311.483 149.234 312.264 149.357 313.032C147.821 312.756 146.142 312.408 144.218 311.987C144.054 306.679 143.972 301.622 143.747 296.638C144.525 295.701 145.303 294.764 146.122 293.767C144.934 292.542 144.545 292.158 143.481 292.11C143.481 292.098 143.481 292.074 143.481 292.062C143.419 291.245 141.659 290.464 140.533 289.66C136.663 292.242 133.305 295.545 130.848 298.944C129.845 296.229 133.756 292.987 127.614 290.693C123.355 294.212 127.716 296.578 130.705 299.148C127.675 303.388 126.017 307.712 126.467 310.906C125.976 311.531 125.382 312.144 124.542 312.708C120.939 311.123 117.622 309.657 112.995 307.616C113.323 310.006 113.548 311.567 113.855 313.753C112.053 313.008 111.153 312.696 110.375 312.3C105.338 309.777 99.4415 308.132 92.9513 308.072C86.6454 308.012 80.3189 308.769 72.3956 309.273C75.7533 310.378 77.8211 311.123 79.9913 311.747C82.8577 312.576 83.0829 313.585 80.8717 314.858C79.9095 315.398 78.8858 315.891 78.0054 316.347C72.1089 314.63 66.581 313.032 61.0326 311.423C71.249 316.864 94.0774 323.89 103.823 325.019C97.1075 320.587 86.8091 320.515 78.9472 317.164C87.9352 314.654 96.0838 316.539 104.13 317.248C104.847 320.047 105.42 322.809 106.3 325.535C107.119 328.058 109.453 328.586 113.098 327.241C107.385 324.743 106.403 321.5 108.614 317.668C110.784 317.512 112.77 317.368 114.633 317.236C116.844 318.533 118.83 319.71 120.284 320.551C118.585 324.034 117.049 327.217 115.493 330.4C117.397 330.136 119.24 329.907 120.734 331.12C122.229 332.334 123.437 331.781 125.095 330.748C125.136 332.249 125.239 333.739 125.361 335.216C125.136 335.192 124.931 335.18 124.686 335.156C125.034 336.069 125.28 336.705 125.546 337.402C125.566 337.69 125.587 337.979 125.607 338.267C125.669 339.156 125.709 340.02 125.75 340.897C123.478 339.564 121.164 338.207 118.503 336.645C120.161 340.657 122.249 342.17 125.832 342.038C125.996 344.945 126.058 347.827 125.976 350.662C124.461 351.19 122.946 351.719 121.43 352.235C121.574 352.391 121.697 352.535 121.84 352.692C123.191 352.451 124.542 352.199 125.894 351.959C125.873 352.415 125.853 352.872 125.812 353.328C124.481 353.821 123.13 354.313 121.799 354.817C123.191 354.673 124.502 354.481 125.75 354.217C125.546 356.367 125.239 358.505 124.686 360.619C127.347 361.652 129.804 362.6 132.486 363.633C132.118 364.654 131.77 365.663 131.381 366.684C130.93 367.849 129.456 368.87 128.903 369.458C122.127 367.489 116.414 365.495 110.313 364.138C104.048 362.733 98.9911 360.655 95.0601 357.508C94.3845 356.967 93.545 356.499 92.3371 355.718C91.3134 360.102 93.2584 363.357 97.8241 366.108C98.7863 366.684 99.81 367.261 100.527 367.945C101.223 368.594 101.55 369.374 101.898 369.891C95.6948 370.575 97.4146 367.14 93.6474 366.864C95.2239 369.182 96.6775 371.368 98.1926 373.53C99.9124 376.004 102.062 378.202 107.59 377.554C108.204 378.394 108.737 378.995 109.085 379.631C110.907 382.946 112.75 386.261 114.49 389.588C116.292 393.023 119.035 396.326 117.254 400.182C116.578 401.635 117.274 403.449 118.073 404.962C118.769 406.283 119.997 407.977 123.457 406.583C121.314 404.838 121.621 402.916 124.379 400.818C126.385 402.848 130.07 404.277 128.003 407.052C131.504 407.184 132.957 408.829 134.779 410.199C137.912 412.565 138.178 412.637 143.051 411.604C146.224 410.931 149.172 410.931 152.018 412.228C151.138 413.634 150.401 414.823 149.664 416.012C150.053 416.12 150.462 416.24 150.851 416.348C151.936 415.183 153.042 414.03 154.475 412.505C159.205 413.79 163.811 414.955 168.254 416.3C169.257 416.6 170.609 417.729 170.322 418.102C168.582 420.408 172.431 421.092 174.069 422.606C173.168 423.134 172.247 423.53 171.632 424.059C169.053 426.293 165.859 427.158 161.068 426.617C155.171 425.957 149.705 427.326 144.566 428.935C143.604 429.236 143.276 430.22 142.007 431.602C145.344 430.641 147.187 430.112 148.538 429.728C150.954 432.142 153.001 434.172 155.049 436.214C150.524 436.778 147.678 435.097 144.382 433.019C144.914 434.016 145.446 435.013 145.897 435.865C139.12 436.814 134.493 436.226 131.217 433.403C126.651 434.46 122.311 435.469 117.295 436.634C122.556 438.063 125.914 435.938 129.784 435.205C132.998 436.802 136.397 437.715 140.942 437.751C149.766 437.823 158.611 438.34 166.473 441.198C167.271 441.498 168.623 441.246 169.708 441.318C173.414 441.534 176.751 442.207 178.982 444.069C178.02 445.318 177.16 446.423 176.321 447.54C176.669 447.66 177.017 447.78 177.345 447.888C178.901 446.663 180.457 445.45 181.951 444.261C185.009 444.853 187.697 445.086 190.018 444.957C191.881 439.925 193.703 434.965 195.669 429.608C197.45 430.328 199.313 430.725 200.193 431.506C201.565 432.707 202.486 434.124 203.203 435.529C204.329 437.679 205.619 439.529 210.41 439.18C211.167 439.12 212.048 439.565 212.846 439.817C216.02 440.802 219.05 442.003 222.367 442.76C229.839 444.465 232.87 448.188 236.473 452.188C233.279 453.005 230.843 453.617 228.406 454.242C230.986 454.866 233.218 454.746 235.47 454.71C242.656 454.614 244.069 455.407 245.584 459.502C245.809 460.091 246.096 460.691 246.423 461.28C238.172 460.667 229.901 460.523 221.629 460.535C220.155 460.535 218.681 461.292 217.228 461.796C227.116 463.106 237.005 462.841 246.894 462.085C247.611 463.274 248.45 464.535 249.31 466.012C250.252 464.475 250.436 463.106 250.252 461.808C250.723 461.772 251.194 461.736 251.644 461.688C251.173 461.64 250.702 461.616 250.211 461.568C249.72 459.082 247.713 456.896 246.198 454.518C248.082 454.434 250.313 454.278 250.334 454.35C251.194 457.232 256.804 458.037 258.298 460.607C258.36 460.728 259.076 460.715 259.936 460.812C259.895 459.947 259.875 459.142 259.834 458.253C262.495 458.886 263.191 460.419 261.922 462.853C256.599 465.051 251.767 467.033 246.812 469.075C248.553 469.315 250.109 469.531 251.685 469.736C249.597 471.657 247.816 473.303 245.748 475.188C248 475.489 249.576 475.705 251.91 476.017C247.611 479.452 243.782 482.503 239.257 486.106C241.366 485.674 242.308 485.59 243.045 485.313C248 483.392 252.75 481.278 257.889 479.536C260.755 478.563 264.195 478.155 267.409 477.578C267.737 477.518 268.351 477.999 269.108 478.371C267.839 479.26 266.713 480.065 265.382 481.001C267.102 481.53 268.658 482.01 270.357 482.527C270.173 483.788 269.989 484.965 269.804 486.094C271.299 486.418 272.568 486.707 274.534 487.139C270.767 489.061 266.242 490.322 268.556 493.649C263.826 494.477 262.843 496.519 263.396 498.813C259.383 499.882 255.657 500.663 252.299 501.828C248.86 503.029 244.233 500.879 241.223 503.173C247.918 504.386 254.101 504.098 259.977 502.056C261.349 501.576 262.987 501.384 264.543 501.095C274.882 499.21 285.201 497.312 295.561 495.486C297.014 495.234 298.693 495.402 300.74 495.366C300.863 497.816 302.726 498.933 306.944 499.102C309.667 499.21 311.735 500.603 311.858 502.537C311.919 503.341 311.96 504.206 312.451 504.939C315.482 509.455 315.482 514.187 315.666 518.931C315.727 520.348 315.666 521.766 315.564 523.183C315.338 524.468 315.093 525.765 314.867 527.05C315.093 527.05 315.318 527.074 315.543 527.074C315.604 528.131 315.789 529.176 316.075 530.233C313.516 529.969 311.018 529.717 308.541 529.477C310.957 531.482 314.335 533.932 316.71 533.632C316.812 533.62 316.894 533.62 316.997 533.608C317.017 534.857 316.505 536.214 315.83 537.367C314.13 540.262 311.694 543 309.688 545.823C307.149 549.366 307.21 549.378 300.822 549.222C300.106 548.297 299.84 547.168 298.734 546.664C290.606 542.964 282.621 539.097 272.671 537.127C271.606 536.923 270.132 537.44 268.699 537.644C267.266 536.983 265.464 536.166 263.662 535.35C263.314 535.53 262.966 535.71 262.618 535.902C267.655 538.1 264.338 542.292 269.702 544.37C268.515 544.862 267.061 545.235 267.122 545.475C267.839 548.622 264.031 549.402 260.284 550.507C257.889 551.216 256.087 552.609 254.019 553.702C254.326 554.002 254.633 554.291 254.92 554.591C259.342 553.642 264.133 553.041 268.105 551.636C271.176 550.543 272.855 550.663 275.291 551.924C277.462 553.053 279.837 554.242 282.498 554.783C286.204 555.528 287.33 556.993 288.006 558.963C288.722 561.053 286.327 561.749 284.402 562.037C287.514 563.863 290.79 565.448 293.329 567.37C295.806 569.244 293.595 571.766 289.459 572.174C287.883 572.331 286.224 572.319 284.628 572.271C278.444 572.114 272.261 571.886 266.058 571.754C264.911 571.73 263.744 571.994 262.577 572.114C263.601 572.847 264.604 573.039 265.628 573.087C270.644 573.327 275.701 573.436 280.697 573.76C285.098 574.048 289.091 575.633 294.025 574.649C295.909 574.276 298.775 575.333 301.027 575.946C303.996 576.75 306.821 577.759 310.65 578.984C310.486 580.918 310.261 583.356 309.974 586.647C312.144 587.728 315.277 589.446 318.717 590.947C321.89 592.34 323.61 595.139 329.179 594.995C328.585 592.749 326.66 590.431 327.807 588.893C331.226 584.317 323.917 579.897 328.073 575.501C328.155 575.417 327.971 575.249 327.889 575.117C323.917 568.367 319.228 561.809 311.284 556.272C309.626 555.107 308.5 554.014 309.606 552.669C310.773 551.228 312.922 550.339 315.83 550.795C319.044 551.288 321.788 550.639 324.326 549.714C329.342 547.901 334.236 545.967 339.293 544.045C342.036 545.343 344.984 545.102 345.803 542.977C346.172 542.016 346.848 541.259 347.687 540.598C349.059 541.091 350.451 541.679 351.905 542.076C351.29 540.947 350.615 540.034 349.775 539.277C350.267 539.025 350.779 538.773 351.311 538.533C361.589 533.981 371.539 529.272 377.517 522.306C378.5 521.165 380.445 520.12 382.37 519.484C386.956 517.958 391.788 516.661 396.579 515.352C397.868 515.004 399.383 514.932 401.369 514.655C401.103 515.748 401.267 516.517 400.714 517.021C398.687 518.871 397.049 520.697 393.569 522.138C393.262 522.27 392.975 522.414 392.668 522.546C389.617 521.634 386.587 520.733 383.578 519.844C382.574 521.898 382.882 524.204 384.294 526.258C381.756 529.38 372.358 526.294 371.478 531.014C372.256 531.302 372.931 531.771 373.423 531.723C375.491 531.506 377.558 531.266 379.626 531.038C378.439 532.011 377.272 532.996 376.105 533.956C375.327 534.593 375.142 535.458 374.18 537.055C377.456 536.166 379.196 535.518 381.1 535.206C385.031 534.581 387.447 533.368 388.123 530.858C388.205 530.546 388.512 530.245 388.88 529.957C390.232 529.789 391.562 529.645 392.914 529.464C397.561 528.864 400.059 527.218 399.179 524.492C399.076 524.456 398.974 524.432 398.872 524.408C403.724 521.814 409.641 520.252 415.763 518.919C417.38 518.571 419.448 518.379 421.045 518.667C430.381 520.312 439.328 519.808 447.579 516.841C451.899 515.28 455.543 515.388 459.781 516.769C464.224 518.211 468.217 518.199 471.759 515.376C472.127 515.076 472.557 514.824 472.967 514.607C471.615 517.538 466.149 518.427 461.645 519.628C462.279 521.021 462.873 522.342 463.569 523.844C461.788 524.636 459.966 525.417 458.123 526.162C451.53 528.828 444.426 531.074 437.608 533.572C430.668 536.106 423.829 538.713 416.93 541.283C423.952 540.731 447.845 531.975 463.938 524.648C464.245 525.309 464.552 526.005 464.9 526.774C466.599 525.021 468.012 523.543 469.466 522.03C470.592 521.477 471.615 520.937 472.578 520.432C472.967 521.501 473.335 522.222 472.864 522.63C469.588 525.597 466.169 528.492 462.689 531.386C453.332 533.704 443.402 535.614 437.219 542.088C440.249 541.199 443.177 540.346 445.962 539.469C441.293 542.676 435.397 543.949 428.354 544.25C424.996 544.394 421.7 544.982 418.383 545.367L418.322 545.331C418.322 545.331 418.301 545.355 418.281 545.379C418.301 545.379 418.322 545.379 418.363 545.379C421.229 549.883 424.914 551.048 432.531 549.534C436.81 548.682 440.823 547.348 445.081 546.448C457.386 543.817 457.406 543.865 465.575 549.378C468.114 551.096 470.714 552.789 473.294 554.483C474.113 554.086 474.952 553.69 475.771 553.294C472.741 551 469.425 548.814 466.783 546.376C465.105 544.826 462.914 542.676 463.61 541.223C464.654 539.001 468.36 538.028 472.844 539.121C474.154 539.445 476.201 538.989 477.757 538.653C480.726 538.016 483.511 537.079 486.5 536.515C489.673 535.914 493.215 535.914 496.204 535.122C504.373 532.972 512.379 531.662 521.776 535.854C519.913 533.332 518.889 531.927 518.132 530.894C524.315 528.275 529.311 525.405 535.289 523.844C536.906 523.423 538.217 522.703 539.466 521.922C542.045 521.441 544.605 520.973 547.205 520.577C548.822 520.324 550.46 520.18 552.118 520.048C551.689 521.081 551.238 522.114 550.87 523.111C549.375 523.759 547.88 524.408 546.365 525.045C546.631 525.249 546.898 525.465 547.143 525.669C548.249 525.201 549.354 524.732 550.46 524.264C550.051 525.633 549.866 526.966 550.317 528.203C551.852 532.503 547.86 534.557 544.031 537.055C539.404 537.836 534.757 538.605 530.109 539.385C537.521 542.316 538.135 542.328 544.85 539.626C545.26 540.803 545.997 541.98 545.997 543.169C545.997 544.586 546.222 546.496 544.85 547.312C539.404 550.555 533.364 553.462 528.246 556.128C529.003 555.011 530.191 553.246 532.197 550.267C525.871 551.276 521.449 551.768 517.333 552.681C507.731 554.831 504.906 560.608 499.439 564.896C495.385 568.067 496.982 569.544 503.964 570.781C505.868 571.118 507.588 571.862 509.533 572.475C502.449 577.699 500.606 577.711 495.57 572.943C491.229 568.847 490.799 568.799 483.347 571.286C482.036 571.718 480.665 572.09 479.313 572.499C475.157 573.772 470.653 575.141 473.069 578.516C475.874 582.396 480.583 580.089 484.575 579.261C495.836 576.943 500.872 578.54 504.844 585.674C502.736 588.593 493.707 585.494 493.256 590.719C517.026 588.665 538.073 583.921 557.094 574.384C554.514 581.05 558.67 583.825 577.076 589.037C584.529 584.63 592.739 582.828 600.232 587.596C601.092 585.734 601.665 583.825 602.894 582.071C603.815 580.75 606.722 579.621 606.743 578.408C606.784 573.303 612.025 570.385 618.331 567.767C618.781 567.586 619.662 567.766 620.972 567.802C621.566 569.34 622.2 570.949 622.978 572.967C626.561 572.739 629.776 572.547 634.157 572.271C626.705 568.655 625.108 565.1 629.919 560.74C631.721 559.107 632.724 557.077 633.461 555.143C635.406 550.027 641.569 548.826 649.308 548.609C652.072 553.57 644.107 556.14 641.917 560.632C645.193 560.272 647.219 560.056 650.004 559.743C644.947 563.383 640.688 566.445 635.816 569.952C643.186 571.009 648.919 571.838 654.549 572.643C652.829 569.7 651.273 567.058 649.635 564.235C655.02 562.59 658.48 559.599 664.663 562.086C665.359 562.362 667.57 561.173 669.188 560.896C671.481 560.512 673.876 560.344 676.231 560.08C676.333 561.713 677.5 564.404 676.354 564.812C669.7 567.154 672.484 569.292 675.842 571.634C678.033 571.454 680.244 571.274 682.435 571.094C682.23 572.571 682.046 574.048 681.841 575.537C681.923 577.423 682.005 579.309 682.107 581.279C691.586 585.939 701.639 591.524 715.991 586.431C720.188 590.106 726.945 591.007 735.114 589.326C733.312 587.236 731.49 585.134 729.381 582.696C737.386 581.254 744.409 579.981 751.657 578.672C753.11 580.258 753.806 581.291 754.912 582.119C756.345 583.212 758.433 585.086 759.723 584.942C762.712 584.617 765.763 583.513 768.036 582.263C768.978 581.747 768.036 580.041 768.015 579.513C776.573 578.804 784.067 578.192 791.806 577.555C790.987 580.101 790.25 582.371 789.513 584.641C793.423 583.789 795.389 581.795 798.317 580.99C801.306 580.174 805.237 580.546 809.618 580.366C804.52 575.561 809.802 572.943 816.006 570.553C816.948 570.193 817.93 569.856 818.872 569.484C825.362 566.866 825.301 566.818 821.473 562.494C820.654 561.569 820.326 560.428 820.203 559.371C819.65 554.687 819.671 554.675 810.437 554.074C804.193 562.025 799.258 563.647 786.831 561.833C786.565 560.536 786.298 559.239 785.828 556.909C781.098 560.404 777.515 563.034 773.461 566.013C771.045 564.247 769.469 563.106 768.773 562.59C761.525 562.83 755.403 563.022 750.346 563.19C748.442 565.016 747.132 566.998 744.777 568.307C742.136 569.76 738.533 570.601 735.155 571.766C731.551 565.953 723.894 562.314 714.824 559.443C712.593 558.735 709.071 557.581 709.071 556.645C709.112 553.414 705.816 553.029 701.885 552.945C697.913 552.861 693.49 551.997 691.3 555.239C689.457 557.966 685.895 557.641 679.65 556.176C684.421 554.567 687.573 553.666 690.44 552.501C696.541 550.027 704.362 548.105 708.027 544.682C712.9 540.118 719.656 536.995 725.982 532.671C732.473 536.767 738.594 533.68 744.736 532.515C750.981 531.326 753.97 527.146 751.984 523.483C751.227 522.09 749.527 520.24 750.428 519.315C751.657 518.054 754.932 517.466 757.348 516.601C756.516 512.678 753.213 509.535 747.439 507.173C746.497 503.257 750.838 501.107 755.997 500.303C773.216 497.576 790.025 492.267 808.738 496.579C809.229 496.699 810.089 496.267 811.42 495.931C813.017 491.907 820.776 488.544 816.108 483.272C815.494 482.575 816.866 481.134 817.726 480.161C820.899 476.654 823.929 473.243 824.728 469.111C825.301 466.18 828.311 463.478 834.842 463.454C832.569 460.691 828.188 459.13 831.157 455.815C832.549 454.278 833.511 452.716 834.166 451.119C852.408 448.092 868.214 444.465 883.693 437.715C880.232 437.451 879.106 437.151 878.247 437.331C870.978 438.784 863.28 438.676 856.401 441.955C850.812 444.621 842.581 445.366 835.19 446.723C835.477 443.288 834.678 439.793 833.573 436.286C832.508 432.899 832.569 429.38 832.037 425.32C823.725 424.359 826.161 419.171 824.093 415.099C816.354 415.183 812.014 412.517 810.396 408.721C810.621 408.589 810.826 408.469 811.051 408.325C810.744 408.325 810.499 408.325 810.212 408.325C810.212 408.277 810.171 408.229 810.15 408.169C808.676 403.929 806.813 399.701 809.925 395.654C810.908 395.882 811.911 396.122 812.873 396.35C813.467 395.75 814.286 395.185 814.122 395.053C813.713 394.729 813.303 394.417 812.914 394.092C813.017 394.092 813.119 394.092 813.222 394.092C814.041 394.092 814.839 393.492 816.313 392.903C815.351 392.735 814.47 392.591 813.611 392.435C813.795 392.315 813.918 392.195 814.122 392.075C817.808 389.877 820.858 386.562 817.583 383.163C819.405 382.886 821.698 382.478 824.728 381.95C823.11 380.088 828.147 376.761 820.387 376.341V379.944H814.696C814.737 378.863 815.392 377.494 816.252 376.713C816.334 376.629 816.415 376.569 816.497 376.497C816.559 376.665 816.62 376.821 816.702 376.989C817.787 376.737 818.934 376.461 820.101 376.196C820.101 375.404 820.101 374.599 820.101 373.794C822.906 372.221 825.711 372.185 831.095 373.218C832.303 374.143 833.552 375.055 834.821 375.92C834.821 375.932 834.821 375.944 834.821 375.968C833.634 375.416 832.303 374.779 830.706 374.035C828.741 378.406 828.693 381.321 830.563 382.778C831.935 380.616 833.286 378.442 834.821 376.028C834.924 379.559 835.026 382.994 835.19 386.369C826.673 391.438 818.238 396.446 809.843 401.443C815.863 401.443 820.06 399.545 823.95 397.263C827.758 395.029 831.75 392.891 835.497 390.621C835.784 391.222 836.971 391.798 837.811 392.387C842.09 389.528 845.591 385.601 847.618 381.866C850.382 379.644 858.448 380.004 855.398 375.38C853.166 376.377 851.139 377.277 849.133 378.166C849.645 376.244 849.604 374.515 848.907 373.23C847.024 373.794 845.099 374.359 843.195 374.935C844.157 374.179 844.956 373.41 845.693 372.629C849.01 372.665 851.549 372.173 851.794 369.891C853.391 369.302 855.009 368.75 856.626 368.269H870.876C870.876 367.789 870.855 367.309 870.835 366.816C869.299 366.612 867.764 366.456 866.228 366.324C877.714 364.45 883.037 358.505 892.148 355.214C895.015 354.181 898.004 352.728 900.461 350.902C896.878 356.091 893.295 361.423 889.302 366.912C892.189 368.005 895.731 369.326 899.335 370.684C889.139 372.221 878.943 373.77 868.747 375.308C868.808 376.232 868.869 377.145 868.931 378.07C871.081 377.746 873.251 377.458 875.38 377.109C884.593 375.56 893.827 374.011 902.999 372.401C904.637 375.68 906.296 379.007 907.954 382.346C909.264 382.25 910.575 382.166 911.885 382.07C913.236 378.046 914.096 373.914 915.366 369.867C915.98 369.735 916.594 369.591 917.208 369.458C916.942 369.002 916.676 368.558 916.41 368.101C916.246 368.125 916.082 368.149 915.918 368.173C916.84 365.579 917.966 363.045 919.624 360.631C920.32 359.598 921.18 358.613 922.081 357.628C922.327 362.744 922.327 367.873 922.511 372.99C922.716 378.466 915.284 382.826 916 388.447C916.123 389.432 913.851 391.21 912.131 391.486C903.614 392.891 903.163 397.852 899.171 401.479C902.508 400.674 905.845 399.869 909.182 399.065C909.612 399.545 910.042 400.038 910.452 400.518C906.255 402.043 902.058 403.581 899.191 404.614C895.731 409.478 892.721 413.922 889.425 418.282C886.989 421.489 881.952 422.75 876.793 424.299C864.242 428.07 852.224 432.454 840.042 436.634C838.323 437.223 836.828 438.015 835.21 438.712C835.62 439.144 836.029 439.565 836.418 439.997C851.63 435.637 866.843 431.289 883.119 426.617C884.859 430.004 886.293 432.803 888.238 436.598C891.595 434.268 893.868 432.623 896.263 431.037C898.208 429.752 900.072 428.371 902.344 427.302C909.94 423.735 917.884 420.468 923.187 415.411C924.374 414.294 928.428 414.21 930.291 413.826C932.482 411.184 934.345 408.385 936.986 405.863C939.709 403.256 943.087 400.89 946.302 398.464C950.192 395.522 954.266 392.663 958.156 389.72C959.917 388.375 962.558 386.982 962.804 385.493C963.561 380.893 963.377 376.245 963.541 371.849C960.06 370.539 957.214 369.446 954.327 368.39C948.287 366.168 945.974 363.693 948.287 360.306C949.7 358.228 952.997 356.595 955.802 354.493C957.337 356.247 958.545 358.229 959.118 358.168C968.413 357.148 970.113 361.471 972.754 364.846C976.541 364.258 979.858 363.729 984.936 362.937C980.145 361.351 976.644 360.198 971.996 358.649C975.026 358.421 976.93 357.904 977.872 358.253C984.792 360.883 991.569 363.657 998.264 366.492C999.39 366.972 999.943 367.933 1000.68 368.702C1002.26 370.323 1003.16 372.449 1005.47 373.482C1011.78 376.293 1014.15 379.956 1014.73 384.364C1014.97 386.333 1015.97 388.267 1016.63 390.213L1016.57 390.249C1016.57 390.249 1016.61 390.261 1016.65 390.273C1016.65 390.261 1016.65 390.249 1016.65 390.225C1024.33 388.543 1026.31 386.382 1023.73 381.914C1022.28 379.403 1020.01 377.049 1018.47 374.551C1013.99 367.333 1014.07 367.321 1023.47 362.528C1026.4 361.039 1029.28 359.514 1032.17 358C1031.49 357.508 1030.82 357.027 1030.14 356.547C1026.23 358.325 1022.51 360.27 1018.35 361.82C1015.71 362.805 1012.04 364.09 1009.57 363.681C1005.78 363.069 1004.12 360.895 1005.98 358.265C1006.54 357.496 1005.76 356.295 1005.18 355.382C1004.1 353.64 1002.5 352.007 1001.54 350.253C1000.52 348.392 1000.52 346.314 999.165 344.56C995.5 339.768 993.269 335.072 1000.41 329.559C996.114 330.652 993.719 331.253 991.958 331.697C988.867 329.175 985.591 326.989 982.991 324.719C986.41 323.758 990.423 322.881 989.563 320.839C987.413 315.747 998.489 318.113 1001.54 315.951C1001.87 316.131 1002.2 316.299 1002.52 316.479C1003.98 316.323 1005.45 316.155 1006.9 315.999C1008.91 315.759 1010.92 315.326 1012.94 315.326C1015.36 315.326 1018.62 315.194 1020.01 315.999C1025.54 319.194 1030.49 322.737 1035.04 325.74C1033.13 325.295 1030.12 324.599 1025.04 323.422C1026.76 327.133 1027.6 329.727 1029.16 332.141C1032.82 337.774 1042.67 339.432 1049.98 342.639C1055.39 345.017 1057.9 344.08 1060.01 339.984C1060.59 338.855 1061.86 337.858 1062.9 336.717C1071.81 340.873 1071.83 341.954 1063.7 344.909C1056.72 347.455 1056.64 347.707 1060.87 352.079C1061.61 352.848 1062.24 353.652 1062.94 354.445C1065.11 356.883 1067.45 359.526 1073.2 358.108C1079.81 356.463 1075.88 353.701 1074.47 351.358C1070.52 344.753 1073.24 341.798 1085.4 339.468C1090.38 340.705 1085.09 346.002 1094 346.266C1090.5 332.322 1082.41 319.975 1066.16 308.817C1077.52 310.33 1082.23 307.892 1091.13 297.094C1083.6 292.722 1080.55 287.906 1088.68 283.51C1085.5 283.006 1082.25 282.669 1079.26 281.949C1077.01 281.408 1075.1 279.703 1073.01 279.691C1064.31 279.667 1059.34 276.592 1054.87 272.893C1054.57 272.629 1054.87 272.112 1054.94 271.343C1057.56 270.995 1060.3 270.623 1063.74 270.166C1063.35 268.064 1063.02 266.179 1062.55 263.608C1056.39 267.98 1050.33 268.917 1042.9 266.095C1040.11 265.038 1036.65 264.449 1033.36 264.017C1026.97 263.176 1024.18 261.002 1023 258.132C1024.82 258.072 1026.66 258.048 1028.55 258.036C1030.29 258.024 1032.01 256.931 1033.54 256.09C1036.39 257.171 1039.21 258.48 1042.73 259.068C1042.12 257.147 1041.75 255.958 1041.22 254.324C1047.42 257.291 1052.64 259.789 1058.62 262.648C1060.42 258.324 1061.84 254.961 1063.21 251.658C1058.19 252.667 1053.69 253.58 1048.88 254.54C1046.07 251.382 1040.97 249.352 1045.21 245.725C1045.68 245.316 1043.65 244.019 1043.18 243.07C1042.53 241.725 1042.24 240.32 1041.79 238.939C1044.58 238.879 1049.16 238.194 1049.86 238.867C1053.85 242.77 1057.5 241.137 1061.49 239.167C1061.18 237.882 1060.87 236.585 1060.57 235.299C1063.08 235.42 1065.6 235.528 1068.14 235.648C1071.36 235.6 1074.57 235.552 1077.93 235.492C1085.87 229.931 1095.39 224.033 1086.71 215.614C1092.98 213.152 1094.51 209.188 1091.65 204.396C1088.08 205.453 1084.5 206.522 1080.34 207.759C1077.89 203.063 1075.72 198.943 1073.49 194.691L1073.59 194.823ZM381.121 45.1466L374.446 41.2311C382.288 40.4504 380.036 43.7533 381.121 45.1466ZM170.854 435.721C169.708 436.238 168.602 436.778 167.394 437.259C167.067 437.379 166.473 437.343 166.043 437.271C164.528 437.018 162.747 436.946 161.6 436.406C154.905 433.283 154.967 433.235 153.329 430.34C158.365 432.466 162.276 434.34 167.845 434.028C168.746 433.98 169.851 435.133 170.854 435.721ZM456.772 535.602C457.693 535.182 458.614 534.737 459.474 534.281C459.331 534.401 459.188 534.521 459.044 534.629C458.532 535.049 457.652 535.338 456.751 535.602H456.772ZM744.982 571.826C747.541 573.195 749.937 574.468 751.964 575.549C751.534 578.612 740.703 579.573 729.647 577.111C735.83 574.973 740.171 573.484 744.962 571.826H744.982ZM211.659 404.578C214.484 406.812 216.777 409.262 219.766 412.06C218.62 412.853 217.289 413.742 215.917 414.691C217.453 415.675 218.784 416.552 220.442 417.621C219.295 418.294 218.558 419.026 217.473 419.315C212.498 420.672 207.462 421.969 202.364 423.158C199.886 423.735 197.736 423.206 196.61 421.753C195.669 420.528 194.911 419.255 194.235 417.97C191.656 413.105 189.199 408.217 186.517 403.377C190.038 403.473 193.683 403.341 197.532 402.872C200.767 402.488 203.797 401.971 206.54 401.335C208.301 402.392 210.144 403.389 211.638 404.578H211.659ZM329.363 469.88C329.117 473.627 324.04 473.038 320.498 474.408C321.999 471.549 324.954 470.04 329.363 469.88ZM149.951 392.519C150.053 392.063 150.032 391.654 149.951 391.294C150.196 391.642 150.421 391.99 150.647 392.339C150.421 392.399 150.237 392.459 149.951 392.519ZM146.531 240.596C145.242 239.719 142.457 239.599 140.123 239.083C140.041 238.35 139.959 237.702 139.877 237.053C139.795 236.404 139.734 235.756 139.652 234.879C141.577 234.555 143.337 234.11 144.955 233.57C145.201 234.483 145.467 235.407 145.753 236.32C146.204 237.75 146.47 239.215 146.675 240.704C146.613 240.668 146.572 240.656 146.511 240.608L146.531 240.596ZM246.546 65.5767C248.123 64.6519 250.846 64.0514 254.306 63.8352C252.75 65.4926 251.194 67.1621 249.535 68.9157C248.43 67.6906 247.508 66.6337 246.546 65.5887V65.5767ZM253.589 75.9899C256.783 74.2244 261.185 73.2035 265.28 71.7862C267.307 75.0531 270.419 77.7315 274.227 80.0376C273.101 81.2626 271.954 82.5358 270.767 83.929C268.74 83.953 265.689 83.9891 262.639 84.0371C262.639 83.7488 262.639 83.4606 262.639 83.1723C264.727 81.9713 265.157 80.59 261.82 78.6323C261.328 79.8454 260.898 80.8663 260.53 81.7911C255.575 83.5326 253.855 82.7399 252.729 78.6563C252.525 77.8996 252.791 77.0109 253.282 76.2061C253.405 76.1341 253.487 76.05 253.61 75.9779L253.589 75.9899ZM363.022 82.9201C364.25 82.4877 365.438 82.0914 366.625 81.8151C365.499 82.2475 364.414 82.6919 363.37 83.1003C363.247 83.0282 363.145 82.9922 363.022 82.9201ZM358.907 78.2239C361.404 77.131 363.513 76.038 365.704 75.1252C366.543 76.5544 367.383 78.0077 368.222 79.437C365.11 79.437 361.916 79.389 358.907 78.2239ZM377.415 84.3974C378.951 82.1995 380.015 80.6741 381.53 78.5122C382.37 80.3979 382.984 81.7671 383.782 83.5807C381.755 83.8449 380.015 84.0611 377.415 84.3974ZM554.882 69.1799C552.692 70.369 550.603 71.6661 548.658 73.1554C548.515 73.2635 548.372 73.3476 548.228 73.4437C547.532 73.2876 546.816 73.1314 545.976 72.9873C543.642 72.5669 541.574 71.6661 539.22 70.9335C547.184 65.0603 549.703 64.6159 554.882 69.1799ZM554.023 62.2618C555.681 62.7902 557.319 63.3427 558.977 63.8712C555.353 63.7751 552.528 62.9224 550.173 61.2168C551.484 61.5291 552.794 61.8654 554.023 62.2618ZM565.426 59.9797C568.498 60.316 571.794 60.6163 574.128 61.5411C572.592 61.9134 571.036 62.3819 569.583 62.6821C568.109 61.8534 566.716 60.9646 565.447 59.9797H565.426ZM596.362 67.006C602.832 70.8134 602.914 70.6812 610.326 71.3899C610.367 71.3899 610.408 71.4019 610.469 71.4139C612.721 72.3988 615.628 72.8311 618.454 72.7471C618.781 72.8191 619.109 72.8912 619.437 72.9633C621.463 74.5607 623.081 76.3022 623.797 78.344C617.819 76.5184 611.677 74.897 604.777 74.3445C602.587 74.1643 600.662 74.0923 599.065 74.6568C596.956 73.5878 594.725 72.627 592.411 71.7262C593.68 70.1768 594.991 68.6034 596.26 66.994C596.301 66.994 596.342 67.006 596.362 67.006ZM780.832 379.571C780.914 379.788 780.811 380.028 780.566 380.304C779.849 380.16 779.112 380.004 778.293 379.8C778.232 380.58 778.191 381.349 778.129 382.154C777.658 382.466 777.167 382.79 776.573 383.175C775.406 381.745 774.219 380.304 773.011 378.839C769.162 379.499 765.62 380.112 761.013 380.905C762.344 382.046 763.593 383.115 765.067 384.376C764.617 384.364 764.146 384.364 763.695 384.328C761.238 384.172 758.167 383.211 756.857 382.034C756.263 381.505 755.751 380.941 755.26 380.364C755.158 379.571 755.055 378.767 754.953 377.914C754.544 378.118 754.216 378.286 753.888 378.454C753.254 377.434 752.701 376.389 752.209 375.356C752.066 375.067 752.209 374.647 752.476 374.227C754.523 374.01 756.55 373.794 758.638 373.578C758.167 372.966 757.778 372.437 757.389 371.957C759.867 371.368 762.426 370.888 765.006 370.72C771.127 370.311 777.351 370.311 783.514 370.347C783.678 370.347 783.842 370.359 783.985 370.359C784.251 370.852 784.312 371.38 784.312 371.945C780.893 373.722 779.644 376.184 780.832 379.571ZM584.999 81.2987C585.286 81.3227 585.573 81.3467 585.839 81.3587C585.962 80.9143 586.085 80.4699 586.187 80.0255C586.617 79.485 587.067 78.8725 587.538 78.1399C588.767 76.2542 590.2 74.4165 591.694 72.5549C593.844 73.3956 596.076 74.1884 598.307 74.9691C597.652 75.3174 597.059 75.7978 596.526 76.4704C599.945 76.9628 602.791 77.6714 605.698 77.7435C611.923 77.8996 617.348 78.8845 622.241 80.4459C620.112 80.7822 617.942 81.1065 615.772 81.4428C618.126 86.9557 618.024 87.34 613.663 92.4325C603.61 91.6999 593.762 90.9913 582.788 90.1986C582.481 89.7662 581.539 88.457 579.922 86.175C578.878 91.1714 577.997 95.4833 576.994 100.288C575.213 99.7831 573.411 99.2666 571.63 98.7622C571.425 98.9904 571.221 99.2186 570.995 99.4468C572.92 100.059 574.844 100.684 576.769 101.296C576.667 101.789 576.564 102.257 576.462 102.762C578.571 103.026 583.177 104.527 586.003 103.771C587.825 103.278 589.586 103.026 591.305 102.858C593.332 104.719 595.81 107.242 594.991 108.959C594.213 110.617 592.206 111.698 589.504 111.974C584.385 109.524 579.676 106.737 575.049 103.975C570.238 101.092 566.471 97.5851 560.677 95.3271C563.666 95.0028 566.655 94.6785 569.644 94.3543C569.48 93.8018 569.337 93.2493 569.173 92.6968C565.078 93.0811 560.984 93.4655 556.889 93.8498C556.807 93.7537 556.725 93.6576 556.623 93.5856C556.193 93.2853 555.824 93.0211 555.497 92.7929C557.565 92.0602 559.755 91.2795 562.314 90.3787C558.322 89.8983 556.295 89.6581 554.841 90.1505C555.23 89.7782 555.824 89.3218 556.541 88.7453C554.452 88.5651 553.163 87.9285 552.118 87.1358C552.733 86.7875 553.306 86.3431 553.838 85.6946C552.589 85.7306 551.463 85.7186 550.44 85.7546C550.071 85.4423 549.682 85.1301 549.252 84.8418C549.744 84.4575 550.276 84.1092 550.931 83.881C554.719 84.3254 557.769 86.2711 562.13 85.3222C559.264 84.3253 556.479 83.6047 553.674 83.1963C555.353 82.8721 557.196 82.6439 558.445 82.5838C559.202 82.8721 559.96 83.1603 560.697 83.4486C561.925 84.5536 563.256 84.9619 564.71 84.9979C564.833 85.046 564.935 85.082 565.058 85.1301C565.099 85.094 565.16 85.058 565.201 85.022C567.126 84.9739 569.276 84.4455 571.651 84.2533C579.676 83.6287 582.645 83.3044 584.918 81.2987H584.999ZM741.543 371.68C741.85 372.497 742.034 373.374 742.034 374.371C739.393 372.341 736.301 370.888 734.07 369.098C733.783 367.957 733.599 366.816 733.906 365.675C736.076 366.444 737.857 367.321 739.188 368.414C739.638 369.567 740.478 370.648 741.543 371.68ZM777.658 385.817C778.477 387.354 779.092 388.471 779.644 389.516C777.228 388.976 773.973 388.664 776.635 385.865C776.983 385.853 777.31 385.829 777.658 385.817ZM722.645 397.792C721.806 397.684 721.11 397.527 720.577 397.323C721.908 396.362 722.481 395.365 722.666 394.333C722.666 395.341 722.666 396.555 722.666 397.792H722.645ZM715.684 398.837C715.418 398.885 715.131 398.933 714.865 398.981C714.927 399.161 714.988 399.329 715.049 399.509C714.783 399.749 714.578 399.99 714.21 400.218C713.964 400.374 713.841 400.518 713.616 400.674C711.999 400.938 710.361 401.179 708.662 401.383C707.433 398.32 706 395.786 705.447 393.18C705.038 391.258 705.427 389.252 704.812 387.39C705.058 386.406 704.976 385.517 704.628 384.7C706.553 385.313 707.085 385.18 708.58 384.76C706.88 383.667 705.14 382.538 702.97 381.145C702.704 381.337 702.356 381.565 702.048 381.793C701.475 381.373 700.841 380.965 700.144 380.58C701.823 379.511 703.338 379.307 705.795 380.28C707.761 381.061 709.235 382.358 710.545 383.571C712.081 385.012 712.941 385.661 714.906 386.129C714.681 387.414 714.108 388.712 713.8 389.997C713.207 389.937 712.633 389.865 712.04 389.805C711.569 388.832 711.118 387.859 710.586 386.742C709.46 388.579 708.436 390.249 707.413 391.906C713.739 393.011 717.588 396.074 715.664 398.825L715.684 398.837ZM762.61 355.646C762.303 355.574 761.975 355.502 761.668 355.43C758.106 354.553 754.543 353.676 751.001 352.788C750.183 352.583 749.445 352.295 748.667 352.055C748.627 352.343 748.565 352.632 748.524 352.92C746.661 352.86 744.859 353.112 744.163 355.67C746.866 355.25 748.975 354.914 751.001 354.589C753.213 355.658 755.67 356.487 758.638 357.015C759.314 357.136 759.969 357.304 760.645 357.436C759.253 358.685 757.881 359.922 756.284 361.339C754.953 358.985 754.073 357.424 753.172 355.874C752.353 355.85 751.534 355.838 750.715 355.814C749.937 358.445 749.179 361.051 748.422 363.573C747.726 363.321 746.866 363.165 745.76 363.129C745.371 363.117 745.044 363.081 744.757 363.033C745.965 359.874 746.845 356.631 740.089 353.905C738.942 352.187 738.553 350.434 738.86 348.764C739.045 348.404 739.249 348.043 739.454 347.659C744.286 349.761 747.93 353.112 755.731 351.503C758.884 350.842 762.938 351.659 766.889 351.815C767.77 350.998 768.896 349.953 770.206 348.74C771.516 348.992 772.765 349.245 774.014 349.485C774.301 349.629 774.567 349.761 774.854 349.905C774.792 349.809 774.71 349.713 774.628 349.605C776.102 349.893 777.597 350.181 779.173 350.494C779.173 350.614 779.173 350.722 779.173 350.83C778.743 351.034 778.314 351.226 777.904 351.43C777.843 351.406 777.802 351.382 777.74 351.358C777.536 351.515 777.331 351.659 777.126 351.815C775.795 352.463 774.567 353.112 773.441 353.737C773.277 353.7 773.134 353.664 772.97 353.616C772.479 353.869 771.967 354.109 771.475 354.361C771.598 354.469 771.701 354.577 771.823 354.685C770.554 355.466 769.51 356.199 768.834 356.835C769.346 356.967 769.858 357.112 770.349 357.244C769.448 357.568 768.404 357.292 766.05 356.535C765.743 356.439 765.415 356.367 765.087 356.283C764.76 355.694 764.35 355.13 763.859 354.589C763.429 354.974 763.04 355.322 762.631 355.682L762.61 355.646ZM762.835 362.817C762.18 363.105 761.525 363.405 760.87 363.705C761.157 363.225 761.423 362.757 761.709 362.288C762.098 362.492 762.467 362.636 762.856 362.817H762.835ZM743.16 397.828C744.409 397.011 745.658 396.182 746.907 395.365C747.5 395.63 748.115 395.906 748.688 396.17C747.357 397.095 746.026 398.008 744.695 398.933C744.347 398.752 743.979 398.572 743.631 398.392C743.508 398.2 743.344 398.008 743.139 397.84L743.16 397.828ZM743.508 388.615C745.514 388.916 747.009 389.144 748.442 389.36C748.401 389.36 748.36 389.36 748.319 389.372C746.989 389.612 745.678 389.961 744.409 390.357C744.061 389.841 743.774 389.264 743.508 388.615ZM748.77 389.3C748.586 388.724 748.524 388.087 748.34 387.499C749.261 387.787 749.875 388.291 750.244 389.048C749.753 389.132 749.261 389.216 748.77 389.288V389.3ZM744.491 378.298C746.559 380.004 747.93 382.058 748.156 384.712C747.48 384.904 746.886 385.084 746.231 385.277C743.754 383.031 743.815 380.688 744.491 378.298ZM734.315 373.518C734.356 373.41 734.377 373.29 734.397 373.182C735.155 373.47 735.912 373.758 736.649 374.059C735.912 373.974 735.175 373.89 734.418 373.806C733.885 374.791 733.373 375.788 732.862 376.725C724.979 376.629 720.659 376.569 718.018 375.932C718.346 374.539 718.939 373.158 719.513 371.536C720.864 372.005 722.154 372.449 723.894 373.062C724.017 372.029 724.119 371.092 724.304 369.41C725.163 369.771 726.064 370.119 726.945 370.455C726.945 371.5 726.945 372.533 726.945 373.554C729.402 374.527 731.981 371.224 734.295 373.542L734.315 373.518ZM694.637 349.22C695.681 349.533 696.725 349.833 697.769 350.145C697.462 350.422 697.176 350.71 696.869 350.986C696.48 350.818 696.07 350.65 695.681 350.482C695.272 350.073 694.944 349.653 694.657 349.233L694.637 349.22ZM794.631 338.615C794.938 338.867 795.245 339.083 795.532 339.288C795.041 339.348 794.529 339.42 794.017 339.492C794.201 339.228 794.406 338.939 794.631 338.615ZM768.056 331.721C767.974 331.601 767.892 331.469 767.872 331.349C767.831 331.048 767.749 330.784 767.688 330.496C768.67 330.424 769.653 330.4 770.595 330.412C769.919 330.904 769.264 331.409 768.589 331.901C768.404 331.841 768.24 331.781 768.056 331.733V331.721ZM776.409 336.225C777.433 336.765 778.232 337.198 778.928 337.57C778.805 337.702 778.682 337.846 778.539 337.979C779.89 338.399 781.221 338.807 782.572 339.228C782.756 339.047 782.92 338.867 783.104 338.699C782.511 338.447 781.896 338.207 781.303 337.954C781.262 336.874 780.73 336.081 779.747 335.66C778.744 335.24 777.658 334.904 776.532 334.568C777.024 333.739 777.29 332.814 777.761 331.973C776.819 332.682 775.898 333.39 774.956 334.099C773.953 333.811 772.97 333.511 772.049 333.15C772.008 333.126 771.946 333.114 771.905 333.102C771.905 332.309 771.864 331.421 771.803 330.436C774.649 330.556 777.372 330.976 780.177 331.817C782.245 332.43 784.701 332.598 787.117 332.814C784.64 333.21 782.183 333.595 779.706 333.991C779.911 334.579 780.095 335.168 780.299 335.769C784.271 335.12 788.223 334.459 792.195 333.811C792.952 334.075 793.689 334.363 794.406 334.712C793.997 335.012 793.628 335.324 793.3 335.66C792.707 335.444 791.908 335.252 790.844 335.096C791.478 335.733 791.97 336.237 792.4 336.681C791.212 338.207 790.475 339.96 789.902 341.798H775.488C775.775 339.936 776.041 338.363 776.369 336.237L776.409 336.225ZM793.034 341.329C792.993 340.981 793.239 340.609 793.587 340.116C794.897 340.405 796.228 340.681 797.518 340.957C797.518 340.957 797.518 340.957 797.518 340.969C797.518 341.041 797.498 341.113 797.498 341.197C797.416 341.341 797.272 341.474 797.068 341.606C796.269 341.894 795.45 342.182 794.611 342.483C793.956 342.098 793.075 341.726 793.034 341.329ZM686.529 349.148C686.447 348.836 686.386 348.56 686.304 348.224C687.225 348.608 688.085 348.956 688.884 349.293C688.085 349.172 687.307 349.136 686.529 349.136V349.148ZM608.524 104.407C604.142 105.044 601.829 104.671 598.615 102.906C602.136 103.242 605.412 103.903 608.524 104.407ZM613.356 116.73C613.335 117.691 613.192 118.652 612.987 119.613C612.701 119.529 612.434 119.433 612.148 119.348C608.77 118.328 605.228 117.451 601.768 116.502C602.832 116.034 604.245 115.709 605.432 115.313C607.787 114.52 610.653 113.968 612.905 113.127C613.172 114.34 613.376 115.529 613.356 116.718V116.73ZM241.346 224.009C241.919 224.814 241.796 224.862 237.64 226.327C236.903 224.502 237.927 223.697 240.343 223.517C240.65 223.493 241.182 223.793 241.325 224.009H241.346ZM719.615 389.961C719.595 392.399 720.045 394.849 720.352 397.287C718.407 396.482 718.223 395.077 718.305 393.444C718.428 391.27 718.428 389.084 718.407 386.742C718.632 386.766 718.817 386.802 719.062 386.826C718.817 386.622 718.612 386.454 718.407 386.261C718.407 385.036 718.387 383.763 718.387 382.406C718.571 382.19 718.694 381.962 718.776 381.721C721.458 381.241 725 380.448 728.705 380.112C730.507 379.944 733.025 380.496 734.356 381.241C735.175 381.697 735.011 383.691 734.172 384.039C732.35 384.784 729.811 385.072 727.518 385.228C726.433 385.301 725.204 384.664 723.669 384.244C723.771 386.526 723.833 387.258 726.433 388.543C726.228 388.591 726.023 388.639 725.819 388.688C726.31 388.784 726.801 388.868 727.272 388.952C728.46 389.492 730.077 390.141 732.227 391.006C728.726 392.231 725.88 393.216 722.666 394.345C723.034 392.339 722.051 390.249 722.727 388.219C721.314 388.7 719.656 389.324 719.636 389.949L719.615 389.961ZM738.84 391.786C739.127 391.918 739.393 392.026 739.679 392.159C739.045 392.447 738.41 392.747 737.816 393.059C737.98 392.675 738.287 392.255 738.84 391.786ZM753.458 386.922C758.065 386.718 762.487 386.514 766.848 386.321C762.037 387.114 757.328 387.895 752.619 388.676C752.701 388.063 752.926 387.462 753.479 386.922H753.458ZM750.387 366.996C750.469 366.228 750.387 365.591 750.142 365.051C752.496 365.435 754.851 365.831 757.226 366.216C754.953 366.48 752.66 366.732 750.367 366.984L750.387 366.996ZM759.621 365.807C759.908 365.819 760.174 365.831 760.419 365.843C760.133 365.879 759.826 365.915 759.539 365.951C759.56 365.903 759.6 365.855 759.621 365.807ZM763.941 365.363C764.576 365.063 764.944 364.582 765.087 363.91C765.865 364.246 766.603 364.534 767.36 364.822C766.214 365.015 765.087 365.195 763.941 365.363ZM769.858 364.366C767.606 362.732 766.889 360.667 766.091 358.601C768.548 359.177 771.004 359.778 773.441 360.39C774.874 360.751 776.082 361.483 777.884 362.3C777.863 362.372 777.843 362.432 777.822 362.504C775.161 363.261 772.52 363.861 769.878 364.366H769.858ZM292.674 212.431C292.428 214.965 292.469 217.524 292.674 220.07C290.094 220.214 287.514 220.406 285.16 220.55C283.153 217.656 286.143 216.01 287.924 214.497C289.644 213.02 291.2 211.482 292.674 209.933C292.756 210.69 292.776 211.494 292.674 212.419V212.431ZM284.361 193.911C283.829 196.925 283.317 199.832 282.826 202.654C285.487 203.411 287.412 204.144 288.886 204.924C287.658 205.789 286.511 206.678 285.631 207.639C283.092 210.449 277.83 209.969 274.124 211.314C273.224 211.638 270.152 210.954 269.477 210.257C267.614 208.347 265.259 206.318 267.9 203.891C270.03 201.946 270.193 199.207 274.698 198.21C275.23 198.09 275.619 197.598 275.885 197.238C276.745 196.073 277.646 194.92 278.629 193.803C280.348 193.983 282.191 193.995 284.382 193.911H284.361ZM720.454 399.377C721.192 398.933 721.908 398.5 722.625 398.068V398.092C723.976 397.371 725.327 396.651 727.354 395.582C727.538 396.266 727.846 396.771 728.234 397.167C725.737 398.02 723.157 398.764 720.454 399.389V399.377ZM760.112 393.732C758.986 393.612 757.819 393.48 756.489 393.348C757.574 392.267 758.904 390.765 759.089 390.813C761.586 391.438 763.92 392.279 766.316 393.071C766.275 393.18 766.214 393.288 766.173 393.384C764.146 393.504 762.139 393.612 760.112 393.732ZM267.409 198.114C263.58 196.973 264.44 195.592 265.771 194.523C267.225 193.358 268.719 192.145 270.46 191.112C270.644 191.208 270.849 191.292 271.033 191.388C272.384 192.109 273.654 192.625 274.902 193.022C272.364 194.751 269.866 196.445 267.409 198.126V198.114ZM165.347 263.02C164.405 263.164 163.381 263.284 162.214 263.32C162.358 263.032 162.481 262.732 162.603 262.431C163.586 262.588 164.487 262.78 165.347 263.02ZM271.708 344.296C270.009 344.548 268.801 344.717 267.593 344.897C268.433 345.918 269.272 346.95 270.071 347.911C267.9 349.449 265.239 349.749 263.048 348.884C260.018 347.695 257.295 346.83 253.548 348.956C253.384 348.56 253.2 348.176 253.036 347.779C254.695 346.05 256.353 344.308 258.012 342.579C257.684 342.458 257.356 342.338 257.049 342.23C256.23 342.951 255.391 343.672 254.429 344.524C252.668 344.176 251.009 343.864 252.033 342.374C252.627 341.51 252.934 340.477 253.917 339.804C256.23 338.231 258.892 336.814 261.635 335.216C264.932 338.171 268.207 341.113 271.749 344.296H271.708ZM486.889 51.5963C489.448 54.4789 489.714 55.1875 489.53 57.8178C489.387 59.9557 488.834 62.0456 488.179 64.1354C487.974 64.6999 487.749 65.2524 487.503 65.8049C485.476 66.7177 483.449 67.6185 481.443 68.6154C484.207 61.4691 480.583 57.998 464.286 52.9175C471.779 51.9206 479.682 52.7133 486.889 51.5963ZM147.555 248.631C147.35 248.499 147.166 248.355 146.941 248.223C147.125 248.127 147.289 248.055 147.473 247.959C147.494 248.187 147.514 248.403 147.535 248.631H147.555ZM149.111 249.844C152.121 250.421 153.718 251.55 154.639 252.991C151.875 252.559 150.606 251.189 149.111 249.844ZM160.576 262.155C160.126 262.804 159.655 263.488 159.143 264.245C157.956 263.548 156.093 262.768 156.277 262.516C156.543 262.167 156.809 261.807 157.075 261.459C157.157 261.651 157.239 261.855 157.321 262.035C158.468 262.023 159.553 262.071 160.576 262.155ZM141.597 363.201C141.679 362.889 141.802 362.576 141.945 362.252C141.863 362.564 141.761 362.877 141.597 363.201ZM742.218 441.198C743.467 442.459 744.716 443.72 746.395 445.402C740.253 445.342 743.488 442.339 742.218 441.198ZM781.938 425.26C782.04 425.212 782.163 425.164 782.265 425.116C782.224 425.224 782.183 425.332 782.142 425.44C782.081 425.38 781.999 425.32 781.938 425.26ZM978.978 192.085C979.244 192.914 979.408 193.779 979.551 194.643C977.176 195.088 974.044 196.073 972.488 195.556C970.338 194.835 969.335 192.914 967.86 191.496C967.512 191.52 967.185 191.545 966.857 191.569C966.038 190.56 965.158 189.563 964.134 188.614C966.776 187.005 969.089 186.296 971.28 186.128C971.362 186.74 971.669 187.245 972.221 187.653C972.958 188.206 974.637 188.314 975.907 188.626C976.48 188.302 977.053 187.965 977.627 187.641C976.91 187.233 976.214 186.812 975.497 186.404C978.794 187.017 982.09 188.41 986.082 189.238C981.742 190.98 979.49 191.893 978.978 192.097V192.085ZM855.602 108.827C853.637 102.317 845.877 97.5371 839.223 92.6608C830.194 86.0669 819.998 80.0255 810.109 73.8521C807.837 72.4348 804.52 71.6061 802.022 70.2969C794.345 66.2853 794.427 62.8623 802.534 57.8178C818.729 61.7453 835.108 65.7809 851.589 69.6603C856.176 70.7413 858.223 72.4228 860.086 75.1612C863.341 79.9174 868.44 84.2413 873.415 89.4299C873.189 89.8623 873.026 91.2795 871.818 92.2764C867.17 96.1799 868.808 99.663 871.265 103.939C873.927 108.575 873.742 113.872 873.763 118.892C873.763 122.579 872.35 126.291 871.04 129.93C870.118 132.5 867.211 134.062 861.253 133.965C860.864 131.659 860.618 129.546 860.148 127.444C858.714 121.222 857.486 114.977 855.623 108.803L855.602 108.827ZM735.278 46.744C736.69 44.0176 737.53 41.159 738.144 38.3245C738.758 35.49 740.478 33.5803 745.412 32.4153C746.804 32.091 748.278 31.7427 749.671 31.2863C749.609 34.385 749.671 37.5678 749.241 40.7387C748.811 44.0296 747.316 47.2845 746.886 50.5754C746.456 54.0465 745.617 57.4575 744.368 60.8085C742.546 60.9886 740.212 60.9886 736.997 60.8445C733.926 56.2804 732.759 51.6564 735.298 46.732L735.278 46.744ZM636.184 47.6088C639.235 48.3174 642.285 49.038 645.356 49.7466C645.09 50.2991 644.824 50.8396 644.558 51.3921C641.446 50.5994 638.354 49.8067 635.242 49.014C635.57 48.5456 635.877 48.0772 636.205 47.6088H636.184ZM497.392 54.647C497.126 55.1274 496.716 55.5598 496.225 55.9682C496.47 55.4157 496.859 54.9833 497.392 54.647ZM408.699 17.51C411.565 17.9905 414.309 18.4469 417.257 18.9513C415.633 19.9442 411.279 20.3486 404.195 20.1644C405.894 19.1675 407.327 18.3268 408.699 17.522V17.51ZM390.477 11.5527C393.18 12.4535 395.514 13.2222 398.298 14.147C396.66 15.4202 395.125 16.6092 393.262 18.0385C389.945 15.9847 388.717 14.051 390.477 11.5527ZM407.675 35.3459C408.658 35.7062 409.641 36.0665 410.624 36.4268C410.46 36.643 410.296 36.8592 410.132 37.0754C409.006 36.8112 407.901 36.5469 406.775 36.2707C407.082 35.9584 407.368 35.6581 407.675 35.3459ZM448.111 54.8752C442.665 56.4726 437.117 56.4846 431.794 54.0345C437.465 53.9624 442.87 54.4788 448.111 54.8752ZM374.794 82.3916C374.078 83.1723 373.668 84.4695 372.522 84.7337C371.887 84.8898 371.252 84.9259 370.638 84.9739C371.928 84.0491 373.177 83.1483 374.405 82.2595C374.528 82.3075 374.651 82.3316 374.774 82.3916H374.794ZM329.936 65.4086C330.632 65.4086 331.41 65.3365 332.25 65.2524C331.656 64.1354 330.878 63.655 329.854 63.5469C329.813 62.5981 329.772 61.6612 329.731 60.6763C335.321 62.0456 340.91 63.4268 346.438 64.8681C348.056 65.2884 349.468 66.0571 350.799 66.7658C351.782 67.2822 352.724 67.8347 353.706 68.3512C352.662 68.207 351.618 68.0509 350.574 67.9068C350.41 68.6514 350.226 69.3841 350.062 70.1288C352.335 70.1648 354.607 70.2368 356.859 70.1768C356.921 70.1768 357.003 69.9846 357.064 69.7684C358.579 70.2248 360.278 70.4771 362.367 70.3569C362.612 70.3449 362.879 70.5131 363.165 70.7293C363.431 71.1977 363.677 71.6181 363.943 72.0745C360.586 73.3716 357.248 74.0562 353.931 72.9152C350.676 71.8102 347.462 71.7622 343.981 71.7982C342.814 71.7982 340.808 71.4259 340.603 71.0055C340.357 70.465 339.989 70.0927 339.559 69.8045C339.948 68.4352 338.249 67.2222 336.037 66.2733C335.096 65.865 332.536 66.7658 330.53 67.2102C331.533 67.8828 332.536 68.5433 333.54 69.2159C333.478 69.2159 333.417 69.2159 333.355 69.2159C333.499 69.264 333.642 69.324 333.785 69.3721C335.014 70.1888 336.222 70.9935 337.45 71.8102C337.45 71.8102 337.45 71.8102 337.471 71.7982C337.471 71.7982 337.471 71.8102 337.471 71.8222C337.409 71.8583 337.368 71.8943 337.286 71.9304C337.286 71.9304 337.327 71.9544 337.327 71.9664C337.348 71.9664 337.389 71.9664 337.409 71.9664C337.409 71.9784 337.409 72.0024 337.389 72.0144C337.368 72.0024 337.348 71.9784 337.327 71.9664C334.666 72.1826 331.984 72.3988 329.322 72.615C329.568 70.8134 329.793 69.0238 330.039 67.2222C330.018 66.6337 329.977 66.0091 329.957 65.4206L329.936 65.4086ZM258.871 70.0206C260.694 68.123 262.516 66.2253 264.338 64.3276C259.69 65.7449 258.401 68.5433 256.189 70.9455C255.329 71.2457 254.47 71.534 253.61 71.8343C252.422 71.1977 251.296 70.5972 250.191 70.0086C250.416 69.7444 250.682 69.4682 251.03 69.1799C253.18 67.4624 255.329 65.7449 256.496 63.7391C261.103 63.655 266.631 64.1715 272.22 65.4206C267 67.2222 262.864 68.6514 258.871 70.0327V70.0206ZM245.666 82.2235C247.816 84.2413 246.403 87.0157 246.915 89.2497C245.666 89.8503 244.54 90.3787 243.557 90.8471C243.188 90.8471 242.84 90.8111 242.492 90.7991C242.738 90.0905 242.615 89.3218 242.697 88.1327C241.591 89.1536 240.609 89.9463 239.687 90.6069C236.698 90.3547 234.016 90.1025 231.887 90.6309C231.211 90.7991 230.617 91.0033 230.024 91.2195C230.925 90.4868 231.948 89.7902 232.747 88.9975C233.422 88.3129 233.832 87.5202 234.364 86.7755C234.057 86.6674 233.73 86.5593 233.422 86.4632C231.395 87.9886 229.348 89.5019 226.994 91.2675C223.779 90.1865 220.872 89.2257 217.924 88.2288C218.763 87.0277 219.459 86.0789 220.073 85.106C220.114 85.034 219.521 84.8298 218.886 84.5295C218.006 85.4423 217.146 86.3311 216.081 87.4241C214.238 87.2439 212.355 87.0638 210.287 86.8716C211.085 85.5384 211.679 84.5295 212.273 83.5206C214.423 81.9352 216.531 80.3858 218.743 78.7524C221.691 80.9023 223.595 82.2835 224.434 82.9081C232.706 82.6439 239.728 82.4156 245.645 82.2235H245.666ZM202.753 84.9019C200.971 84.3494 199.211 83.7729 197.429 83.2444C199.006 83.3765 200.705 83.5807 202.548 83.8569C202.609 84.2052 202.691 84.5535 202.753 84.9019ZM181.194 95.7715C180.436 95.7355 179.679 95.195 179.085 94.7986C177.672 93.8858 176.3 92.937 174.929 92.0002C179.924 85.9948 184.449 83.3765 191.697 83.0762C195.484 84.3494 199.129 85.8507 203.142 86.7155C203.326 87.5802 203.51 88.5651 203.776 89.8142C204.411 89.3458 204.984 88.9254 205.578 88.481C205.721 88.8654 206.028 89.2377 207.032 89.4899C212.703 90.9312 218.947 92.1803 223.329 95.4112C220.094 96.7083 216.798 97.6932 214.218 99.1225C210.082 101.405 205.885 101.38 200.869 100.36C194.195 98.9904 188.544 96.1438 181.194 95.7595V95.7715ZM234.18 158.84C234.958 157.951 236.514 157.206 237.988 156.642C243.025 154.672 246.853 152.438 246.444 148.57C247.57 149.051 248.88 149.591 250.416 150.216C251.562 154.972 246.28 157.578 240.015 158.563C237.763 158.924 235.531 159.32 233.279 159.728C233.586 159.44 233.893 159.152 234.159 158.84H234.18ZM107.918 248.379C103.68 249.46 99.6872 250.289 95.5105 248.559C96.5137 247.13 97.3122 245.761 98.4178 244.5C98.9911 243.851 100.138 242.866 100.977 242.89C105.85 243.022 105.031 239.996 107.59 238.879C107.836 238.77 106.71 237.545 106.198 236.837C105.522 235.924 103.884 234.819 104.294 234.122C106.341 230.615 107.897 227.096 108.184 223.385C108.225 222.88 108.655 222.112 109.269 221.956C111.521 221.367 113.896 220.815 116.312 220.586C118.073 220.418 119.977 220.754 122.516 220.911C119.895 225.583 117.602 229.666 115.288 233.75C114.633 234.903 113.302 236.032 113.282 237.185C113.241 240.2 110.682 241.929 105.707 242.722C106.505 244.752 107.222 246.553 107.938 248.391L107.918 248.379ZM135.619 259.537C135.537 258.12 136.26 256.943 137.789 256.006C136.274 254.144 134.779 252.306 133.653 250.925C136.213 248.967 138.035 247.574 140.43 245.761C144.873 248.992 149.5 252.33 154.127 255.693C146.593 258.912 142.416 259.753 135.619 259.537ZM129.702 312.18C131.176 311.735 132.671 311.303 134.145 310.858C132.609 312.048 131.36 313.273 130.296 314.498C129.804 314.39 129.354 314.257 128.801 314.173C129.108 313.441 129.395 312.792 129.681 312.18H129.702ZM128.658 315.29C128.903 315.41 129.149 315.519 129.395 315.627C128.76 316.479 128.207 317.344 127.757 318.209C126.774 317.38 126.815 316.431 128.678 315.278L128.658 315.29ZM118.81 312.624C120.591 313.297 122.372 313.969 124.87 314.906C122.113 315.226 120.093 314.466 118.81 312.624ZM122.208 322.076C122.802 321.524 125.832 321.116 126.098 321.344C126.16 321.404 126.242 321.452 126.324 321.5C125.976 322.569 125.73 323.65 125.546 324.731C125.116 324.623 124.686 324.491 124.235 324.406C121.86 323.986 121.062 323.133 122.208 322.076ZM118.83 328.838C119.833 327.721 120.755 326.676 121.84 325.463C123.109 325.776 124.256 326.148 125.32 326.532C125.218 327.793 125.177 329.055 125.218 330.304C122.823 329.751 120.837 329.307 118.83 328.838ZM138.321 369.927C138.219 370.455 138.137 370.996 138.117 371.512C137.891 371.368 137.666 371.224 137.441 371.08C137.728 370.696 138.035 370.311 138.342 369.927H138.321ZM123.642 379.307C124.297 379.86 124.972 380.412 125.587 380.989C125.587 381.013 124.727 381.421 124.665 381.385C123.785 380.941 122.986 380.448 122.167 379.968C122.659 379.752 123.15 379.523 123.642 379.307ZM127.532 379.896C132.63 379.764 137.318 380.316 141.884 381.193C143.993 384.075 146.613 386.898 148.824 389.781C146.818 388.339 142.928 387.907 141.577 386.033C140.225 387.03 139.222 387.631 138.096 386.454C137.195 386.802 136.274 387.162 134.943 387.679C132.118 385.228 127.327 383.499 127.511 379.896H127.532ZM168.111 406.055C170.772 406.992 172.84 407.304 171.714 409.526C170.404 408.265 169.564 407.46 168.111 406.055ZM195.853 426.533C197.409 426.101 198.514 425.8 199.6 425.5C199.804 426.545 200.03 427.578 200.296 428.899C199.538 428.767 198.924 428.755 198.637 428.575C197.757 428.01 196.999 427.386 195.853 426.533ZM209.099 433.932C208.915 434.124 208.424 434.664 207.728 435.433C205.394 433.271 202.732 431.542 202.896 428.803C202.957 427.722 200.787 426.605 199.62 425.5C201.586 425.632 203.633 426.017 205.537 425.873C213.46 425.248 220.565 427.206 227.976 428.179C228.591 428.263 229.369 428.551 229.635 428.863C232.87 432.887 239.278 432.995 245.502 433.331C246.198 433.367 246.894 433.379 247.549 433.499C247.938 433.571 248.205 433.848 248.634 434.112C249.146 435.517 247.324 436.286 245.604 436.034C241.162 435.385 237.804 436.418 234.221 438.063C237.865 439.156 241.53 440.261 245.482 441.438C240.854 442.303 236.923 443.036 231.928 443.961C226.257 439.829 219.029 435.841 209.14 433.92L209.099 433.932ZM234.508 446.026C237.251 443.901 240.834 443.768 244.867 444.093C251.398 444.609 252.934 446.087 250.743 450.506C243.659 450.723 238.07 449.642 234.508 446.038V446.026ZM388.962 507.605C388.389 507.365 387.754 507.125 387.017 506.884C387.058 506.848 387.12 506.836 387.14 506.8C388.02 505.828 387.304 504.35 387.222 503.077C387.222 503.077 387.243 503.077 387.243 503.065C388.287 503.293 389.31 503.558 390.662 503.894C390.15 505.155 389.597 506.392 388.942 507.617L388.962 507.605ZM373.791 498.789C374.078 498.897 374.385 498.993 374.712 499.114C374.569 499.15 374.446 499.186 374.303 499.222C374.139 499.078 373.975 498.933 373.812 498.789H373.791ZM386.915 503.209C385.625 504.182 384.294 505.179 382.615 506.44C381.346 503.401 385.236 503.966 386.915 503.209ZM372.87 496.375C372.44 496.423 372.03 496.603 371.539 496.832C371.375 496.675 371.211 496.555 371.048 496.399C369.778 497.816 368.836 498.873 368.161 499.702C364.291 499.246 360.442 498.693 356.573 498.201C354.689 497.961 352.765 497.792 350.246 498.285C351.188 498.933 352.15 499.582 353.747 500.687C350.676 500.807 348.363 500.903 345.844 500.999C347.38 503.209 350.205 503.918 353.604 503.918C358.743 503.93 361.65 505.395 363.001 508.266C364.537 511.545 366.298 514.787 368.079 518.211C367.71 518.811 367.383 519.628 366.81 520.481C369.901 520.445 372.112 520.625 374.037 520.276C374.61 520.168 374.958 517.946 374.385 517.766C373.013 517.322 371.027 517.082 369.553 517.286C369.942 516.409 369.717 515.508 369 514.643C367.117 512.325 367.342 510.235 368.468 508.218C368.918 508.17 369.348 508.122 369.922 508.074C369.696 507.605 369.615 507.137 369.43 506.788C370.229 505.755 371.171 504.723 372.174 503.666C379.196 505.047 378.992 508.998 382.165 511.917C382.083 510.848 382.001 509.779 381.919 508.674C383.578 508.122 385.994 507.749 386.976 506.908C387.386 507.713 387.734 508.41 388.061 509.07C387.304 510.199 386.424 511.304 385.216 512.373C379.995 516.949 375.654 521.862 370.331 526.402C367.956 528.432 364.496 530.209 360.913 531.554C355.774 533.476 350.533 535.338 345.21 537.067C342.466 536.443 338.74 536.19 333.273 536.154C334.584 537.283 335.853 538.364 337.225 539.542C337.163 539.565 337.102 539.577 337.041 539.602C331.635 541.163 325.759 542.412 318.389 542.1C319.392 539.193 319.924 536.311 321.173 533.608C325.616 534.161 327.254 536.839 330.12 538.569C328.994 536.022 327.868 533.488 326.906 531.338C325.473 531.194 324.122 531.062 322.77 530.918C324.06 529.116 325.862 527.423 328.667 525.909C328.483 522.054 328.79 517.874 327.95 513.779C327.234 510.32 325.145 506.957 323.651 503.546C321.726 499.138 319.781 494.73 317.713 490.009C321.931 488.64 326.108 487.271 330.325 485.95C333.744 484.881 337.409 484.028 340.644 482.791C345.189 481.05 349.673 479.26 354.157 477.458C354.628 477.747 355.078 478.035 355.488 478.347C356.757 479.284 358.026 480.221 359.275 481.158C356.736 482.167 354.894 483.716 353.113 485.397C355.774 484.521 358.456 483.644 361.282 482.719C361.364 482.755 361.466 482.779 361.568 482.815C362.264 483.308 362.96 483.8 363.677 484.28C358.907 486.454 354.423 488.508 349.939 490.55C350.062 490.658 350.205 490.766 350.328 490.886C354.095 490.178 358.272 489.841 361.527 488.664C363.39 487.992 365.028 487.103 366.605 486.166C369.328 487.812 372.276 489.325 375.757 490.574C377.661 491.271 377.804 493.649 378.459 494.742C379.299 494.982 380.159 495.21 380.998 495.438C378.316 495.751 375.634 496.027 372.952 496.363L372.87 496.375ZM471.226 520.481C471.636 520.06 472.025 519.652 472.455 519.207C472.496 519.436 472.578 519.616 472.639 519.82C472.168 520.036 471.697 520.252 471.226 520.469V520.481ZM750.817 469.591C746.702 475.849 739.024 477.879 730.65 473.411C727.047 471.489 724.222 471.177 719.656 471.357C720.065 469.015 720.475 466.769 720.864 464.559C721.069 464.595 721.273 464.631 721.478 464.679C722.195 464.138 722.911 463.586 723.628 463.046C723.198 462.577 722.727 462.097 721.97 461.292C721.478 462.433 721.11 463.274 720.762 464.103C714.312 462.241 712.736 460.535 712.777 457.172C713.862 457.328 714.988 457.497 716.237 457.689C716.175 454.938 716.135 452.704 716.073 450.47C715.049 451.155 714.005 451.84 712.961 452.548C712.961 451.707 712.92 450.867 712.859 450.026C713.944 450.11 715.029 450.194 716.094 450.278C716.831 449.534 717.65 448.14 718.284 448.164C724.119 448.405 728.05 445.882 732.595 444.921C736.629 446.411 740.417 447.792 744.716 449.377C744.88 451.191 743.692 453.689 747.5 455.527C747.889 454.098 747.46 452.752 747.193 451.383C746.743 449.101 747.787 448.489 751.82 448.669C752.865 448.717 753.909 448.909 756.12 449.161C755.178 447.996 754.973 447.131 754.195 446.891C750.92 445.834 751.902 443.84 751.022 442.279C750.879 442.039 752.25 441.51 753.028 441.09C753.069 441.102 753.09 441.126 753.131 441.138C753.131 441.102 753.131 441.066 753.172 441.03H752.926C751.186 439.445 749.445 437.871 747.419 436.022C750.776 435.361 753.806 434.76 757.185 434.088C752.373 431.181 747.234 434.592 742.464 433.631C749.896 433.307 757 432.226 763.798 430.425C764.76 430.917 766.029 431.289 766.807 431.842C764.473 434.256 763.265 436.898 763.757 439.913C762.487 441.33 762.283 442.82 762.569 444.357C755.281 452.212 756.243 461.388 750.858 469.567L750.817 469.591ZM785.991 424.587C786.032 424.203 786.073 423.831 786.114 423.47C788.612 422.389 791.13 421.297 793.628 420.216C794.406 420.276 795.184 420.336 795.962 420.396C792.645 421.801 789.329 423.194 786.012 424.599L785.991 424.587ZM980.677 321.007C980.411 321.164 980.124 321.32 979.858 321.476C977.954 319.314 973.573 318.089 971.259 315.819C972.529 314.774 973.859 313.741 975.252 312.768C975.723 312.444 977.565 312.804 979.121 312.864C979.694 315.879 980.268 318.918 980.677 321.007ZM1070.8 207.855C1067.16 204.228 1064.62 201.682 1061.79 198.871C1064.13 197.37 1066.3 195.964 1068.14 194.775C1073.36 195.028 1075 201.381 1070.8 207.867V207.855Z"
        fill="#E8E8E8" />
</svg>
