<svg width="611" height="755" viewBox="0 0 611 755" fill="none" xmlns="http://www.w3.org/2000/svg">
    <path
        d="M461.769 674.08L607.782 129.154C607.782 129.154 558.938 106.393 554.829 103.68C550.72 100.967 530.212 96.278 522.234 98.9768C514.256 101.676 494.191 104.36 487.368 105.756C480.546 107.152 449.79 116.645 443.92 117.49C438.051 118.336 410.102 129.387 406.691 130.085C403.279 130.783 387.446 117.674 380.623 119.07C373.801 120.466 351.519 131.423 341.083 134.269C330.648 137.116 304.915 139.894 301.907 139.088C298.898 138.282 294.695 129.901 289.114 126.664C283.533 123.427 263.9 130.516 259.333 132.517C254.767 134.517 237.508 138.76 233.748 137.752C229.988 136.745 214.086 138.932 211.078 138.126C208.069 137.32 188.544 107.906 184.233 105.945C179.922 103.984 146.971 88.5769 146.971 88.5769L4.17482 621.5C4.17482 621.5 39.8369 629.798 46.2912 632.785C52.7456 635.772 75.927 627.474 80.99 629.637C86.053 631.8 101.328 643.985 109.45 649.773C117.572 655.56 134.305 671.329 143.128 674.499C151.952 677.67 151.75 678.422 163.434 679.94C175.118 681.459 176.77 684.32 190.819 680.023C204.867 675.727 215.008 667.965 223.59 663.01C232.172 658.055 255.393 658.634 261.464 657.037C267.535 655.439 298.866 667.865 306.938 670.834C315.009 673.802 328.035 685.353 333.501 686.012C338.968 686.671 351.325 670.636 357.597 668.286C363.869 665.936 384.927 671.579 397.27 667.631C409.613 663.684 417.281 668.157 424.654 667.714C432.028 667.272 461.769 674.08 461.769 674.08Z"
        fill="#E8E8E8" />
</svg>
