<svg width="528" height="884" viewBox="0 0 528 884" fill="none" xmlns="http://www.w3.org/2000/svg">
    <g clip-path="url(#clip0_2397_52083)">
        <path
            d="M404.249 163.819L399.027 157.744C399.576 157.124 399.982 156.362 400.173 155.491C400.78 152.762 399.059 150.064 396.331 149.457C393.602 148.85 390.904 150.57 390.297 153.299C389.69 156.027 391.41 158.726 394.139 159.333C395.389 159.61 396.633 159.393 397.677 158.82L402.938 164.943L404.249 163.819Z"
            fill="#40403F" />
        <path
            d="M419.294 147.422L414.072 141.348C414.621 140.727 415.027 139.965 415.218 139.094C415.825 136.366 414.104 133.667 411.376 133.06C408.647 132.453 405.948 134.174 405.342 136.902C404.735 139.631 406.455 142.33 409.184 142.937C410.434 143.213 411.678 142.997 412.722 142.424L417.983 148.546L419.294 147.422Z"
            fill="#40403F" />
        <path
            d="M434.335 131.025L429.113 124.95C429.662 124.33 430.068 123.568 430.259 122.697C430.866 119.968 429.145 117.27 426.417 116.663C423.688 116.056 420.989 117.776 420.383 120.505C419.776 123.233 421.496 125.932 424.225 126.539C425.475 126.816 426.719 126.599 427.763 126.026L433.024 132.149L434.335 131.025Z"
            fill="#40403F" />
        <path
            d="M449.382 114.625L444.16 108.551C444.709 107.93 445.115 107.168 445.306 106.297C445.913 103.569 444.192 100.87 441.464 100.263C438.735 99.6563 436.036 101.377 435.429 104.105C434.822 106.834 436.543 109.533 439.272 110.14C440.522 110.416 441.766 110.2 442.81 109.627L448.071 115.749L449.382 114.625Z"
            fill="#40403F" />
        <path
            d="M464.421 98.2278L459.199 92.1535C459.748 91.5329 460.154 90.7709 460.345 89.9C460.952 87.1715 459.231 84.4728 456.503 83.8658C453.774 83.2588 451.075 84.9795 450.468 87.708C449.861 90.4365 451.582 93.1353 454.311 93.7422C455.561 94.0188 456.805 93.8025 457.849 93.2296L463.11 99.3518L464.421 98.2278Z"
            fill="#40403F" />
        <path
            d="M173.534 848.796C146.868 840.884 126.393 829.829 126.187 829.718L125.851 829.546C120.376 827.179 101.107 818.418 80.6616 804.121C54.5855 785.888 37.4673 766.388 29.779 746.169C22.9455 728.198 23.7934 709.831 32.3004 691.586C36.9645 681.587 42.3477 672.306 48.3002 664.005C66.4597 638.691 87.1283 625.679 105.361 614.2C125.679 601.412 141.726 591.307 145.258 568.946C147.859 552.487 147.008 540.244 146.256 529.44C144.749 507.84 143.665 492.237 170.263 461.336C180.382 449.583 187.056 444.693 191.273 445.944C197.629 447.83 196.073 462.209 194.424 477.433C193.366 487.205 192.276 497.313 193.93 501.239C196.51 507.368 199.244 508.291 201.887 509.188C204.823 510.185 207.864 511.214 209.429 518.715C210.562 524.139 218.132 529.672 228.722 532.814C239.837 536.112 255.957 537.109 267.873 530.014L268.365 529.723L269.23 527.913L269.409 529.101L270.902 528.211L269.669 530.835L269.755 531.396C272.326 548.526 290.18 565.228 304.594 569.505C309.117 570.847 312.897 570.838 315.517 569.473C319.277 567.513 322.047 566.966 324.496 567.693C325.705 568.052 326.699 568.675 327.669 569.278C328.649 569.889 329.667 570.524 330.946 570.903C333.061 571.531 335.579 571.373 338.866 570.403C342.956 569.199 350.086 561.95 356.978 554.944C366.982 544.779 376.427 535.177 382.121 536.867C386.913 538.288 387.722 546.489 384.738 563.451C377.672 603.606 364.904 612.65 347.231 625.168C338.395 631.43 328.38 638.521 317.288 650.957C302.221 667.851 304.567 686.666 307.535 710.486C310.946 737.838 315.188 771.875 293.916 816.04C281.155 842.538 258.153 856.281 225.548 856.881C210.05 857.154 192.549 854.438 173.534 848.796Z"
            fill="#FABD3E" />
        <path
            d="M292.94 815.558C278.569 845.405 252.669 855.289 225.523 855.789C219.972 843.026 215.929 829.413 211.392 818.179C196.227 780.595 188.324 796.472 162.262 788.739C136.199 781.006 70.8074 752.409 72.5884 705.116C73.3862 683.975 62.0038 671.715 49.1767 664.626C87.8185 610.752 139.558 611.947 146.326 569.106C147.483 561.791 147.959 555.3 148.07 549.403C148.692 515.729 137.272 501.305 171.082 462.03C210.819 415.873 187.275 488.212 192.938 501.649C196.021 508.966 199.489 509.432 202.466 510.522C204.952 511.431 207.096 512.779 208.378 518.927C211.197 532.433 247.417 543.441 268.432 530.933L235.08 601.911L268.691 531.546C272.321 555.73 303.781 576.789 316.018 570.419C328.25 564.049 325.184 575.552 339.168 571.426C353.153 567.3 394.223 503.268 383.671 563.248C373.114 623.227 349.553 613.134 316.477 650.223C283.401 687.311 332.471 733.483 292.94 815.558Z"
            fill="#E98924" />
        <path
            d="M232.451 559.42C232.451 559.42 202.269 561.959 190.61 547.005C178.955 532.052 160.95 564.828 172.33 594.67C183.71 624.508 126.985 646.763 104.998 665.07C86.7893 680.23 91.068 707.191 103.916 724.209C122.595 748.95 154.663 763.103 185.086 765.565C197.858 766.599 219.294 765.22 221.009 782.383C222.489 797.199 222.169 819.112 238.542 826.073C254.426 832.825 265.983 819.172 271.1 805.571C276.33 791.675 274.208 776.187 273.549 761.7C272.081 729.545 264.183 692.537 281.655 663.227C300.94 630.781 347.699 609.64 356.437 594.105C365.175 578.571 378.287 557.63 331.011 591.423C283.734 625.217 262.703 567.477 254.675 565.095C246.647 562.713 232.451 559.42 232.451 559.42Z"
            fill="#E8E6DE" />
        <path
            d="M460.952 183.366C459.772 191.985 452.903 202.36 437.967 206.204L266.865 606.185L264.813 611.205L264.614 611.691C264.438 612.12 264.351 612.337 264.351 612.337C264.351 612.337 246.455 621.512 226.69 609.096C206.922 596.675 207.08 585.687 207.08 585.687L396.404 202.152C396.404 202.152 396.725 192.936 392.748 186.583C388.771 180.23 388.771 180.23 388.771 180.23L443.827 120.383L484.476 76.1943C484.476 76.1943 491.169 69.9046 491.492 82.7606C491.815 95.6166 497.696 102.535 497.696 102.535L464.351 166.099C464.351 166.099 462.13 174.751 460.952 183.366Z"
            fill="#999791" />
        <path
            d="M179.451 786.662C178.884 786.494 178.328 786.274 177.794 786.012L131.45 763.171C126.238 760.602 124.087 754.269 126.656 749.056L134.663 732.814C136.939 728.194 142.179 725.904 147.12 727.37C147.687 727.538 148.244 727.757 148.778 728.02L195.121 750.861C197.635 752.102 199.522 754.255 200.43 756.929C201.339 759.603 201.153 762.461 199.916 764.976L191.909 781.218C189.633 785.838 184.392 788.128 179.451 786.662Z"
            fill="#FABD3E" />
        <path
            d="M146.815 728.405C147.32 728.555 147.816 728.747 148.304 728.986L194.647 751.828C199.314 754.126 201.251 759.829 198.952 764.496L190.945 780.738C188.885 784.918 184.094 786.909 179.761 785.623C179.256 785.474 178.759 785.281 178.272 785.042L131.929 762.201C127.262 759.902 125.325 754.199 127.624 749.532L135.631 733.29C137.695 729.112 142.486 727.121 146.815 728.405ZM147.429 726.336C141.983 724.72 136.205 727.243 133.694 732.337L125.687 748.579C122.856 754.327 125.225 761.306 130.972 764.137L177.315 786.978C177.904 787.27 178.517 787.51 179.142 787.695C184.588 789.311 190.365 786.789 192.872 781.693L200.879 765.451C203.71 759.704 201.342 752.724 195.594 749.894L149.251 727.052C148.667 726.762 148.053 726.521 147.429 726.336Z"
            fill="white" />
        <path
            d="M210.231 722.764L162.946 701.944C158.184 699.846 156.004 694.233 158.101 689.471C160.199 684.708 165.812 682.528 170.575 684.626L217.86 705.446C222.622 707.543 224.802 713.156 222.704 717.919C220.607 722.682 214.994 724.861 210.231 722.764Z"
            fill="#40403F" />
        <path
            d="M224.625 689.867L177.34 669.047C172.578 666.949 170.398 661.336 172.496 656.574L176.9 646.57C178.998 641.808 184.61 639.628 189.373 641.726L236.658 662.545C241.421 664.643 243.601 670.256 241.503 675.019L237.099 685.022C235.001 689.785 229.388 691.964 224.625 689.867Z"
            fill="#40403F" />
        <path
            d="M415.897 218.571C418.056 219.212 420.327 217.981 420.967 215.821C421.608 213.661 420.377 211.391 418.217 210.75C416.057 210.109 413.787 211.341 413.146 213.5C412.505 215.66 413.737 217.93 415.897 218.571Z"
            fill="#40403F" />
        <path
            d="M411.643 181.843C413.802 182.484 416.073 181.252 416.714 179.093C417.354 176.933 416.123 174.662 413.963 174.022C411.804 173.381 409.533 174.612 408.892 176.772C408.252 178.932 409.483 181.202 411.643 181.843Z"
            fill="#40403F" />
        <path
            d="M428.93 160.304C431.09 160.945 433.36 159.713 434.001 157.553C434.642 155.394 433.41 153.123 431.25 152.483C429.091 151.842 426.82 153.073 426.18 155.233C425.539 157.393 426.77 159.663 428.93 160.304Z"
            fill="#40403F" />
        <path
            d="M397.848 257.003C400.008 257.644 402.278 256.412 402.919 254.253C403.559 252.093 402.328 249.823 400.168 249.182C398.009 248.541 395.738 249.772 395.097 251.932C394.457 254.092 395.688 256.362 397.848 257.003Z"
            fill="#40403F" />
        <path
            d="M379.799 295.435C381.959 296.075 384.229 294.844 384.87 292.684C385.511 290.525 384.279 288.254 382.12 287.613C379.96 286.973 377.689 288.204 377.049 290.364C376.408 292.523 377.639 294.794 379.799 295.435Z"
            fill="#40403F" />
        <path
            d="M361.754 333.867C363.914 334.508 366.184 333.277 366.825 331.117C367.466 328.957 366.234 326.687 364.075 326.046C361.915 325.405 359.645 326.637 359.004 328.796C358.363 330.956 359.594 333.226 361.754 333.867Z"
            fill="#40403F" />
        <path
            d="M343.705 372.298C345.865 372.939 348.135 371.707 348.776 369.548C349.417 367.388 348.186 365.118 346.026 364.477C343.866 363.836 341.596 365.067 340.955 367.227C340.314 369.387 341.545 371.657 343.705 372.298Z"
            fill="#40403F" />
        <path
            d="M325.656 410.73C327.816 411.37 330.086 410.139 330.727 407.979C331.368 405.82 330.137 403.549 327.977 402.908C325.817 402.268 323.547 403.499 322.906 405.659C322.265 407.818 323.497 410.089 325.656 410.73Z"
            fill="#40403F" />
        <path
            d="M307.608 449.161C309.767 449.802 312.038 448.571 312.678 446.411C313.319 444.251 312.088 441.981 309.928 441.34C307.768 440.699 305.498 441.931 304.857 444.09C304.216 446.25 305.448 448.52 307.608 449.161Z"
            fill="#40403F" />
        <path
            d="M289.563 487.594C291.722 488.235 293.993 487.003 294.633 484.843C295.274 482.684 294.043 480.413 291.883 479.773C289.723 479.132 287.453 480.363 286.812 482.523C286.172 484.683 287.403 486.953 289.563 487.594Z"
            fill="#40403F" />
        <path
            d="M271.512 526.029C273.672 526.67 275.942 525.439 276.583 523.279C277.224 521.119 275.992 518.849 273.832 518.208C271.673 517.567 269.402 518.799 268.762 520.958C268.121 523.118 269.352 525.389 271.512 526.029Z"
            fill="#40403F" />
        <path
            d="M253.465 564.461C255.625 565.102 257.895 563.87 258.536 561.711C259.177 559.551 257.945 557.281 255.786 556.64C253.626 555.999 251.356 557.23 250.715 559.39C250.074 561.55 251.305 563.82 253.465 564.461Z"
            fill="#40403F" />
        <path d="M264.615 611.691C264.67 611.55 264.736 611.389 264.813 611.205L264.615 611.691Z"
            fill="#777570" />
        <path
            d="M460.951 183.366C459.772 191.985 452.902 202.36 437.966 206.204L266.864 606.185L264.812 611.205C274.248 587.993 425.372 216.403 432.779 201.563C440.43 186.246 449.068 194.325 447.638 182.865C446.211 171.406 443.03 167.013 451.597 150.933C460.159 134.851 463.662 130.028 441.269 139.246C431.19 143.396 435.754 133.035 443.826 120.383L484.475 76.1942C484.475 76.1942 491.168 69.9045 491.491 82.7605C491.814 95.6165 497.695 102.535 497.695 102.535L464.35 166.099C464.35 166.099 462.13 174.751 460.951 183.366Z"
            fill="#777570" />
        <path
            d="M463.508 117.223C465.668 117.864 467.938 116.632 468.579 114.472C469.22 112.313 467.988 110.042 465.829 109.402C463.669 108.761 461.398 109.992 460.758 112.152C460.117 114.312 461.348 116.582 463.508 117.223Z"
            fill="#40403F" />
        <path
            d="M447.174 139.045C449.334 139.686 451.604 138.454 452.245 136.295C452.886 134.135 451.654 131.865 449.495 131.224C447.335 130.583 445.064 131.814 444.424 133.974C443.783 136.134 445.014 138.404 447.174 139.045Z"
            fill="#40403F" />
        <path
            d="M463.508 117.223C465.668 117.864 467.938 116.632 468.579 114.472C469.22 112.313 467.988 110.042 465.829 109.402C463.669 108.761 461.398 109.992 460.758 112.152C460.117 114.312 461.348 116.582 463.508 117.223Z"
            fill="#40403F" />
        <path
            d="M480.799 95.6846C482.959 96.3254 485.229 95.0941 485.87 92.9343C486.511 90.7746 485.279 88.5043 483.12 87.8634C480.96 87.2226 478.689 88.454 478.049 90.6137C477.408 92.7735 478.639 95.0438 480.799 95.6846Z"
            fill="#40403F" />
        <path d="M413.817 173.929L148.18 728.952L148.569 729.139L414.206 174.115L413.817 173.929Z"
            fill="white" />
        <path d="M430.073 156.368L158.766 732.037L159.156 732.221L430.464 156.552L430.073 156.368Z"
            fill="white" />
        <path d="M448.727 135.257L169.838 739.304L170.23 739.485L449.118 135.438L448.727 135.257Z"
            fill="white" />
        <path d="M465.568 114.589L182.207 744.638L182.601 744.815L465.962 114.766L465.568 114.589Z"
            fill="white" />
        <path d="M483.683 92.258L193.762 749.073L194.157 749.248L484.078 92.4323L483.683 92.258Z"
            fill="white" />
        <g opacity="0.39">
            <path
                d="M35.1993 729.673C37.3637 739.95 42.0731 749.754 49.1759 757.485C56.2787 765.216 65.8308 770.792 76.1717 772.618C78.1527 772.967 80.3235 773.147 82.0469 772.119C83.6177 771.18 84.5082 769.378 84.814 767.573C85.6635 762.571 82.6493 757.736 79.2526 753.964C71.1048 744.914 59.8623 738.449 54.04 727.753C51.5667 723.205 50.2218 718.133 48.0965 713.414C47.0213 711.028 45.6211 708.6 43.3103 707.374C38.3899 704.762 36.0444 709.131 35.0304 713.049C33.6229 718.476 34.0595 724.242 35.1993 729.673Z"
                fill="#FFE8AD" />
        </g>
        <g opacity="0.39">
            <path
                d="M202.468 510.523C199.97 512.69 196.359 513.753 193.434 512.304C190.9 511.043 189.484 508.287 188.602 505.598C187.721 502.91 187.165 500.048 185.599 497.692C184.035 495.332 181.043 493.594 178.383 494.561C176.108 495.385 174.881 497.821 174.098 500.11C169.624 513.218 172.599 528.018 167.9 541.045C165.956 546.429 161.907 551.851 156.204 552.271C153.202 552.492 150.454 551.285 148.072 549.403C148.694 515.729 137.274 501.305 171.084 462.03C210.822 415.873 187.277 488.213 192.94 501.649C196.023 508.966 199.491 509.432 202.468 510.523Z"
                fill="#FFE8AD" />
        </g>
    </g>
    <defs>
        <clipPath id="clip0_2397_52083">
            <rect width="303.501" height="831.663" fill="white"
                transform="translate(236.57) rotate(16.5263)" />
        </clipPath>
    </defs>
</svg>
