<svg width="335" height="463" viewBox="0 0 335 463" fill="none" xmlns="http://www.w3.org/2000/svg">
    <path d="M29.671 123.653L0.0195312 134.609L32.6719 222.975L62.3234 212.018L29.671 123.653Z"
        fill="#6158F6" />
    <path d="M29.6553 123.663L0.00390625 134.62L19.0415 186.141L48.6929 175.184L29.6553 123.663Z"
        fill="#6158F6" />
    <path d="M29.667 123.653L0.015625 134.609L2.42251 141.123L32.0739 130.166L29.667 123.653Z"
        fill="#6158F6" />
    <path d="M34.2452 136.049L4.59375 147.006L5.25105 148.785L34.9025 137.828L34.2452 136.049Z"
        fill="#18243D" />
    <path d="M36.0655 140.984L6.41406 151.94L7.07136 153.719L36.7228 142.763L36.0655 140.984Z"
        fill="#18243D" />
    <path d="M37.8604 145.832L8.20898 156.789L8.86629 158.568L38.5177 147.611L37.8604 145.832Z"
        fill="#18243D" />
    <g style="mix-blend-mode:soft-light" opacity="0.3">
        <path d="M39.5909 150.495L9.93945 161.451L10.5968 163.23L40.2482 152.273L39.5909 150.495Z"
            fill="black" />
    </g>
    <path
        d="M174.124 431.536L90.5163 462.436L18.0773 266.44C9.5436 243.348 21.3402 217.719 44.4314 209.186C67.5226 200.652 93.1517 212.449 101.685 235.54L174.124 431.536Z"
        fill="#E2E26D" />
    <path d="M116.029 274.839L32.5684 305.679L63.4084 389.14L146.869 358.3L116.029 274.839Z"
        fill="white" />
    <path d="M41.6445 308.873L109.552 283.788" stroke="#18243D" stroke-width="0.962134"
        stroke-linecap="round" stroke-linejoin="round" />
    <path d="M72.252 372.166L129.143 351.139" stroke="#18243D" stroke-width="0.962134"
        stroke-linecap="round" stroke-linejoin="round" />
    <path d="M19.0547 186.126L48.7135 175.166" stroke="#18243D" stroke-width="0.962134"
        stroke-linecap="round" stroke-linejoin="round" />
    <path opacity="0.05"
        d="M77.1174 233.105C79.9201 233.997 82.9042 234.625 85.3025 236.326C90.42 239.937 91.3263 246.979 93.2366 252.947C93.7944 254.718 94.5334 256.503 95.872 257.772C97.2246 259.041 99.3302 259.668 100.976 258.818C103.555 257.479 103.458 253.784 102.816 250.953C101.673 245.975 99.9437 241.053 97.0573 236.828C94.1848 232.603 90.0853 229.075 85.2189 227.513C81.6492 226.37 77.7309 226.286 74.3844 224.571C71.2609 222.982 68.9881 220.165 66.4642 217.753C64.6236 215.996 62.1555 214.322 59.7293 215.047C54.8628 216.498 62.7691 224.432 64.3447 225.882C67.9841 229.187 72.4183 231.599 77.1035 233.077L77.1174 233.105Z"
        fill="white" />
    <path opacity="0.05"
        d="M148.72 403.038C149.25 407.473 149.501 412.367 152.625 415.574C153.489 416.466 154.661 417.192 155.888 417.08C157.505 416.927 158.69 415.323 158.913 413.706C159.137 412.088 158.635 410.471 158.147 408.923C154.396 397.126 150.645 385.33 146.88 373.533C146.475 372.264 146.057 370.953 145.248 369.894C144.44 368.834 143.157 368.025 141.832 368.151C135.976 368.708 142.655 380.254 143.547 382.75C145.89 389.331 147.87 396.094 148.706 403.038H148.72Z"
        fill="white" />
    <g style="mix-blend-mode:overlay" opacity="0.1">
        <path
            d="M27.0352 246.143C63.15 181.987 141.39 157.362 202.158 191.162C262.925 224.948 283.27 304.415 247.824 368.934L27.0352 246.143Z"
            fill="#A51E00" />
        <g style="mix-blend-mode:screen" opacity="0.2">
            <path
                d="M30.2007 247.898L27.0215 246.128C32.2784 236.785 38.4555 228.307 45.3299 220.694L30.2007 247.898Z"
                fill="#A51E00" />
        </g>
        <g style="mix-blend-mode:screen" opacity="0.2">
            <path
                d="M43.4202 255.249L38.4004 252.46L66.8182 201.369C70.1787 198.929 73.6368 196.67 77.1786 194.579L43.4342 255.263L43.4202 255.249Z"
                fill="#A51E00" />
        </g>
        <g style="mix-blend-mode:screen" opacity="0.2">
            <path
                d="M56.6253 262.595L51.6055 259.806L92.1685 186.879C94.9433 185.666 97.76 184.564 100.591 183.56L56.6253 262.595Z"
                fill="#A51E00" />
        </g>
        <g style="mix-blend-mode:screen" opacity="0.2">
            <path
                d="M96.2383 284.627L64.8086 267.141L113.445 179.685C127.459 176.254 141.933 175.209 156.267 176.701L96.2383 284.627Z"
                fill="#A51E00" />
        </g>
        <g style="mix-blend-mode:screen" opacity="0.2">
            <path
                d="M110.545 292.591L104.424 289.188L166.182 178.153C168.566 178.599 170.937 179.157 173.307 179.742L110.545 292.591Z"
                fill="#A51E00" />
        </g>
        <g style="mix-blend-mode:screen" opacity="0.2">
            <path
                d="M131.461 304.22L118.73 297.136L182.51 182.461C187.098 184.023 191.63 185.877 196.078 188.025L131.461 304.22Z"
                fill="#A51E00" />
        </g>
        <g style="mix-blend-mode:screen" opacity="0.2">
            <path
                d="M161.176 320.745L139.646 308.767L204.347 192.447C211.639 196.7 218.318 201.636 224.37 207.116L161.176 320.745Z"
                fill="#A51E00" />
        </g>
        <g style="mix-blend-mode:screen" opacity="0.2">
            <path
                d="M178.787 330.544L169.361 325.301L231.286 213.958C233.922 216.775 236.404 219.703 238.747 222.743L178.787 330.544Z"
                fill="#A51E00" />
        </g>
        <g style="mix-blend-mode:screen" opacity="0.2">
            <path
                d="M258.741 343.374C255.994 352.047 252.382 360.609 247.809 368.934L245.299 367.539L258.741 343.374Z"
                fill="#A51E00" />
        </g>
        <g style="mix-blend-mode:screen" opacity="0.2">
            <path
                d="M237.129 362.98L227.703 357.738L264.766 291.099C265.352 298.462 265.324 305.936 264.683 313.424L237.129 362.98Z"
                fill="#A51E00" />
        </g>
        <g style="mix-blend-mode:screen" opacity="0.2">
            <path
                d="M219.518 353.192L217.803 352.23L262.019 272.736C262.242 273.726 262.41 274.716 262.619 275.72L219.532 353.192H219.518Z"
                fill="#A51E00" />
        </g>
        <g style="mix-blend-mode:screen" opacity="0.2">
            <path
                d="M209.606 347.686L186.975 335.094L244.745 231.225C250.503 240.136 255.077 249.771 258.437 259.88L209.606 347.686Z"
                fill="#A51E00" />
        </g>
        <path
            d="M197.599 199.331C140.596 167.622 66.9574 189.737 31.2051 248.455L243.642 366.603C274.681 305.263 254.601 231.025 197.612 199.331H197.599Z"
            fill="#98A2FF" />
        <path
            d="M193.052 207.52C166.642 192.837 135.547 189.658 105.498 198.568C76.9404 207.046 52.2735 225.522 35.5547 250.872L239.304 364.194C252.007 336.613 254.698 305.909 246.834 277.184C238.551 246.953 219.448 222.203 193.038 207.52H193.052Z"
            fill="#53DDE0" />
        <g style="mix-blend-mode:screen" opacity="0.4">
            <path
                d="M42.9453 248.68C57.3912 248.346 68.0165 249.377 81.2912 251.581C108.231 256.071 129.272 263.405 151.917 277.851C172.457 290.958 191.853 310.327 210.12 329.472C220.215 340.055 230.032 351.071 240.587 361.264C240.169 362.24 239.764 363.23 239.304 364.206L35.541 250.869C36.0151 250.158 36.5031 249.475 36.9912 248.778C38.9712 248.75 40.9513 248.708 42.9453 248.666V248.68Z"
                fill="#53DDE0" />
        </g>
        <g style="mix-blend-mode:multiply" opacity="0.4">
            <path
                d="M217.344 256.726C193.583 236.967 164.859 224.027 134.042 220.834C106.921 218.031 75.6869 220.931 49.793 232.909C65.0756 216.762 84.2067 204.882 105.485 198.565C135.534 189.641 166.63 192.82 193.039 207.517C219.449 222.2 238.553 246.951 246.835 277.181C248.536 283.387 249.708 289.675 250.419 296.006C241.564 281.281 230.702 267.853 217.344 256.726Z"
                fill="#53DDE0" />
        </g>
        <path
            d="M162.542 278.434C165.582 272.968 166.126 267.46 163.755 266.136C161.385 264.811 156.992 268.186 153.953 273.652C150.913 279.118 152.74 285.95 152.74 285.95C152.74 285.95 159.502 283.9 162.542 278.434Z"
            fill="#18243D" />
        <path
            d="M191.099 303.885C196.16 300.204 198.977 295.449 197.387 293.246C195.798 291.057 190.401 292.256 185.326 295.937C180.25 299.618 179.037 306.576 179.037 306.576C179.037 306.576 186.023 307.566 191.099 303.885Z"
            fill="#18243D" />
        <path
            d="M216.005 330.825C221.067 327.144 223.883 322.389 222.294 320.186C220.704 317.997 215.308 319.196 210.232 322.877C205.156 326.559 203.943 333.517 203.943 333.517C203.943 333.517 210.929 334.507 216.005 330.825Z"
            fill="#18243D" />
        <path
            d="M129.063 262.442C130.457 256.335 129.453 250.897 126.804 250.297C124.155 249.698 120.878 254.146 119.483 260.253C118.089 266.361 121.742 272.398 121.742 272.398C121.742 272.398 127.668 268.55 129.063 262.442Z"
            fill="#18243D" />
        <path
            d="M89.8107 255.763C87.4821 249.948 83.5638 246.058 81.04 247.062C78.5161 248.066 78.3627 253.602 80.6774 259.416C82.9921 265.231 89.4482 268.117 89.4482 268.117C89.4482 268.117 92.1254 261.577 89.8107 255.763Z"
            fill="#18243D" />
        <path opacity="0.26"
            d="M66.6651 268.521C66.4978 264.477 66.2747 260.419 65.9958 256.389C65.8703 254.367 65.703 252.346 65.5635 250.324L65.0755 244.272L64.5456 238.22C64.3504 236.198 64.1691 234.19 63.96 232.169C63.5696 228.139 63.1094 224.109 62.6074 220.093C62.7747 224.137 62.9979 228.195 63.2767 232.224C63.4022 234.246 63.5696 236.268 63.709 238.29L64.197 244.342L64.7269 250.393C64.9221 252.415 65.1034 254.423 65.3126 256.445C65.703 260.475 66.1631 264.505 66.6651 268.521Z"
            fill="#F9F9FD" />
        <path opacity="0.26"
            d="M96.2402 284.627C97.3 280.932 98.3039 277.223 99.3358 273.528L102.348 262.4C104.356 254.982 106.294 247.55 108.218 240.104C110.128 232.658 112.053 225.212 113.893 217.752L116.668 206.555C117.561 202.818 118.481 199.081 119.345 195.344C118.286 199.039 117.282 202.748 116.25 206.443L113.238 217.57C111.23 224.989 109.292 232.435 107.368 239.867C105.457 247.313 103.533 254.759 101.692 262.219L98.9175 273.416C98.0251 277.153 97.1048 280.89 96.2402 284.627Z"
            fill="#F9F9FD" />
        <path opacity="0.26"
            d="M124.004 300.02C126.472 295.962 128.884 291.876 131.324 287.805L138.561 275.548C140.988 271.462 143.358 267.363 145.743 263.263L152.91 250.965L160.007 238.624C162.364 234.511 164.748 230.411 167.077 226.284L174.105 213.902C176.419 209.76 178.762 205.633 181.049 201.477C178.581 205.535 176.168 209.621 173.728 213.678L166.491 225.935C164.065 230.007 161.708 234.12 159.31 238.22L152.143 250.518L145.045 262.859C142.689 266.972 140.304 271.072 137.976 275.199L130.948 287.582C128.633 291.723 126.291 295.85 124.004 300.006V300.02Z"
            fill="#F9F9FD" />
        <path opacity="0.26"
            d="M155.209 316.447C157.984 312.975 160.703 309.461 163.464 305.961L171.635 295.42C174.368 291.92 177.059 288.378 179.764 284.85L187.88 274.267L195.925 263.627C198.603 260.072 201.308 256.544 203.957 252.974L211.933 242.293C214.568 238.71 217.232 235.154 219.839 231.556C217.064 235.028 214.345 238.542 211.584 242.042L203.413 252.584C200.68 256.084 197.989 259.64 195.284 263.153L187.169 273.737L179.123 284.376C176.446 287.918 173.741 291.46 171.091 295.029L163.115 305.71C160.48 309.294 157.817 312.85 155.209 316.447Z"
            fill="#F9F9FD" />
        <path opacity="0.26"
            d="M178.789 330.546C181.703 328.9 184.576 327.213 187.476 325.554L196.107 320.478C201.866 317.104 207.583 313.659 213.314 310.215C219.031 306.757 224.734 303.299 230.41 299.785L238.915 294.5C241.732 292.716 244.577 290.945 247.379 289.146C244.465 290.791 241.593 292.479 238.692 294.138L230.061 299.214C224.302 302.602 218.585 306.032 212.868 309.476C207.165 312.934 201.448 316.392 195.773 319.92L187.267 325.205C184.45 326.99 181.606 328.761 178.803 330.56L178.789 330.546Z"
            fill="#F9F9FD" />
        <path opacity="0.26"
            d="M217.791 352.228C220.44 350.931 223.034 349.55 225.628 348.142C226.924 347.445 228.207 346.72 229.49 346.009L233.339 343.833L237.159 341.616C238.428 340.863 239.697 340.124 240.952 339.357C243.476 337.837 245.986 336.304 248.44 334.672C245.791 335.969 243.197 337.349 240.603 338.758C239.307 339.455 238.024 340.18 236.741 340.891L232.892 343.066L229.072 345.283C227.803 346.036 226.534 346.775 225.279 347.542C222.755 349.062 220.245 350.596 217.791 352.228Z"
            fill="#F9F9FD" />
        <g style="mix-blend-mode:multiply" opacity="0.28">
            <path
                d="M246.722 302.809C245.648 301.889 244.031 302.001 243.11 303.074C242.19 304.148 242.301 305.765 243.375 306.686C244.449 307.606 246.066 307.494 246.987 306.421C247.907 305.347 247.795 303.73 246.722 302.809Z"
                fill="#61C8FD" />
        </g>
        <g style="mix-blend-mode:multiply" opacity="0.28">
            <path
                d="M242.902 297.483C242.33 296.995 241.48 297.051 240.978 297.623C240.49 298.194 240.545 299.045 241.117 299.547C241.689 300.035 242.539 299.979 243.041 299.407C243.529 298.836 243.473 297.985 242.902 297.483Z"
                fill="#61C8FD" />
        </g>
        <path opacity="0.26"
            d="M237.728 307.636C237.156 307.148 236.306 307.204 235.804 307.776C235.316 308.348 235.371 309.198 235.943 309.7C236.515 310.188 237.365 310.132 237.867 309.561C238.369 308.989 238.3 308.138 237.728 307.636Z"
            fill="#F9F9FD" />
        <g style="mix-blend-mode:multiply" opacity="0.28">
            <path
                d="M86.2549 223.437C85.1812 222.517 83.5637 222.628 82.6434 223.702C81.7231 224.776 81.8347 226.393 82.9084 227.314C83.982 228.234 85.5995 228.122 86.5198 227.049C87.4401 225.975 87.3286 224.357 86.2549 223.437Z"
                fill="#61C8FD" />
        </g>
        <g style="mix-blend-mode:multiply" opacity="0.28">
            <path
                d="M82.435 218.1C81.8633 217.612 81.0127 217.668 80.5107 218.24C80.0227 218.812 80.0785 219.662 80.6502 220.164C81.2219 220.652 82.0725 220.596 82.5744 220.025C83.0764 219.453 83.0067 218.602 82.435 218.1Z"
                fill="#61C8FD" />
        </g>
        <path opacity="0.26"
            d="M77.261 228.264C76.6893 227.776 75.8387 227.832 75.3367 228.404C74.8347 228.976 74.9045 229.826 75.4762 230.328C76.0479 230.816 76.8985 230.76 77.4004 230.189C77.9024 229.617 77.8327 228.766 77.261 228.264Z"
            fill="#F9F9FD" />
        <g style="mix-blend-mode:multiply" opacity="0.28">
            <path
                d="M159.964 299.393C158.89 298.473 157.273 298.584 156.352 299.658C155.432 300.732 155.544 302.349 156.617 303.27C157.691 304.19 159.309 304.078 160.229 303.005C161.149 301.931 161.038 300.314 159.964 299.393Z"
                fill="#61C8FD" />
        </g>
        <g style="mix-blend-mode:multiply" opacity="0.28">
            <path
                d="M156.146 294.067C155.574 293.579 154.723 293.635 154.221 294.207C153.72 294.778 153.789 295.629 154.361 296.131C154.933 296.633 155.783 296.563 156.285 295.992C156.773 295.42 156.717 294.569 156.146 294.067Z"
                fill="#61C8FD" />
        </g>
        <path opacity="0.26"
            d="M150.957 304.22C150.385 303.732 149.534 303.788 149.032 304.36C148.544 304.932 148.6 305.782 149.172 306.284C149.743 306.772 150.594 306.716 151.096 306.145C151.584 305.573 151.528 304.722 150.957 304.22Z"
            fill="#F9F9FD" />
        <g style="mix-blend-mode:multiply" opacity="0.28">
            <path
                d="M202.925 224.319C201.851 223.399 200.234 223.51 199.313 224.584C198.393 225.658 198.505 227.275 199.578 228.195C200.652 229.116 202.269 229.004 203.19 227.931C204.11 226.857 203.999 225.239 202.925 224.319Z"
                fill="#61C8FD" />
        </g>
        <g style="mix-blend-mode:multiply" opacity="0.28">
            <path
                d="M199.119 218.993C198.547 218.505 197.696 218.561 197.194 219.132C196.706 219.704 196.762 220.555 197.334 221.057C197.905 221.545 198.756 221.489 199.258 220.917C199.746 220.346 199.69 219.495 199.119 218.993Z"
                fill="#61C8FD" />
        </g>
        <path opacity="0.26"
            d="M193.931 229.146C193.359 228.658 192.509 228.714 192.007 229.286C191.519 229.857 191.575 230.708 192.146 231.21C192.718 231.698 193.569 231.642 194.071 231.071C194.559 230.499 194.503 229.648 193.931 229.146Z"
            fill="#F9F9FD" />
    </g>
    <path
        d="M95.8145 122.791C131.929 186.947 210.169 211.572 270.937 177.772C331.705 143.985 352.049 64.5188 316.603 0L95.8145 122.791Z"
        fill="#A51E00" />
    <g style="mix-blend-mode:screen" opacity="0.2">
        <path
            d="M98.98 121.035L95.8008 122.806C101.058 132.148 107.235 140.626 114.109 148.24L98.98 121.035Z"
            fill="#A51E00" />
    </g>
    <g style="mix-blend-mode:screen" opacity="0.2">
        <path
            d="M112.2 113.685L107.18 116.474L135.598 167.564C138.958 170.005 142.416 172.263 145.958 174.355L112.213 113.671L112.2 113.685Z"
            fill="#A51E00" />
    </g>
    <g style="mix-blend-mode:screen" opacity="0.2">
        <path
            d="M125.405 106.339L120.385 109.128L160.948 182.055C163.723 183.268 166.539 184.369 169.37 185.373L125.405 106.339Z"
            fill="#A51E00" />
    </g>
    <g style="mix-blend-mode:screen" opacity="0.2">
        <path
            d="M165.018 84.3066L133.588 101.792L182.224 189.249C196.238 192.679 210.712 193.725 225.046 192.233L165.018 84.3066Z"
            fill="#A51E00" />
    </g>
    <g style="mix-blend-mode:screen" opacity="0.2">
        <path
            d="M179.325 76.3428L173.203 79.7451L234.961 190.781C237.345 190.335 239.716 189.777 242.086 189.191L179.325 76.3428Z"
            fill="#A51E00" />
    </g>
    <g style="mix-blend-mode:screen" opacity="0.2">
        <path
            d="M200.241 64.7139L187.51 71.7974L251.289 186.473C255.877 184.911 260.409 183.056 264.857 180.909L200.241 64.7139Z"
            fill="#A51E00" />
    </g>
    <g style="mix-blend-mode:screen" opacity="0.2">
        <path
            d="M229.955 48.1885L208.426 60.1664L273.126 176.487C280.419 172.234 287.098 167.298 293.149 161.818L229.955 48.1885Z"
            fill="#A51E00" />
    </g>
    <g style="mix-blend-mode:screen" opacity="0.2">
        <path
            d="M247.567 38.3896L238.141 43.6326L300.066 154.975C302.701 152.159 305.183 149.23 307.526 146.191L247.567 38.3896Z"
            fill="#A51E00" />
    </g>
    <g style="mix-blend-mode:screen" opacity="0.2">
        <path
            d="M327.52 25.5593C324.773 16.8862 321.162 8.32455 316.588 0L314.078 1.3944L327.52 25.5593Z"
            fill="#A51E00" />
    </g>
    <g style="mix-blend-mode:screen" opacity="0.2">
        <path
            d="M305.909 5.95312L296.482 11.1961L333.546 77.8343C334.131 70.4719 334.103 62.9979 333.462 55.51L305.909 5.95312Z"
            fill="#A51E00" />
    </g>
    <g style="mix-blend-mode:screen" opacity="0.2">
        <path
            d="M288.297 15.7412L286.582 16.7033L330.798 96.1979C331.021 95.2079 331.189 94.2179 331.398 93.2139L288.311 15.7412H288.297Z"
            fill="#A51E00" />
    </g>
    <g style="mix-blend-mode:screen" opacity="0.2">
        <path
            d="M278.385 21.248L255.754 33.8395L313.524 137.708C319.283 128.798 323.856 119.163 327.217 109.053L278.385 21.248Z"
            fill="#A51E00" />
    </g>
    <path
        d="M266.378 169.603C209.375 201.312 135.737 179.196 99.9844 120.478L312.421 2.33105C343.46 63.6706 323.381 137.908 266.392 169.603H266.378Z"
        fill="#98A2FF" />
    <path
        d="M261.831 161.414C235.421 176.097 204.326 179.276 174.277 170.366C145.72 161.888 121.053 143.412 104.334 118.062L308.083 4.73926C320.786 32.3204 323.477 63.0251 315.613 91.7497C307.33 121.98 288.227 146.731 261.817 161.414H261.831Z"
        fill="#53DDE0" />
    <g style="mix-blend-mode:screen" opacity="0.4">
        <path
            d="M111.725 120.253C126.171 120.588 136.796 119.556 150.07 117.353C177.01 112.863 198.052 105.529 220.697 91.0826C241.236 77.9752 260.632 58.6071 278.899 39.462C288.994 28.8785 298.811 17.8628 309.366 7.66972C308.948 6.69364 308.544 5.70362 308.084 4.72754L104.32 118.064C104.794 118.775 105.282 119.459 105.77 120.156C107.751 120.184 109.731 120.225 111.725 120.267V120.253Z"
            fill="#53DDE0" />
    </g>
    <g style="mix-blend-mode:multiply" opacity="0.4">
        <path
            d="M286.123 112.208C262.363 131.967 233.638 144.907 202.822 148.1C175.701 150.902 144.466 148.002 118.572 136.024C133.855 152.171 152.986 164.052 174.264 170.368C204.314 179.292 235.409 176.113 261.819 161.416C288.229 146.733 307.332 121.983 315.615 91.7521C317.316 85.547 318.487 79.2583 319.198 72.9277C310.344 87.6526 299.481 101.081 286.123 112.208Z"
            fill="#53DDE0" />
    </g>
    <path
        d="M231.321 90.4992C234.361 95.9652 234.905 101.473 232.535 102.798C230.164 104.122 225.772 100.748 222.732 95.282C219.692 89.816 221.519 82.9834 221.519 82.9834C221.519 82.9834 228.282 85.0332 231.321 90.4992Z"
        fill="#18243D" />
    <path
        d="M259.878 65.0486C264.94 68.7298 267.756 73.4847 266.167 75.6879C264.577 77.8771 259.181 76.6779 254.105 72.9967C249.03 69.3155 247.816 62.3574 247.816 62.3574C247.816 62.3574 254.802 61.3674 259.878 65.0486Z"
        fill="#18243D" />
    <path
        d="M284.784 38.1082C289.846 41.7894 292.663 46.5443 291.073 48.7474C289.483 50.9366 284.087 49.7375 279.011 46.0563C273.936 42.375 272.723 35.417 272.723 35.417C272.723 35.417 279.709 34.427 284.784 38.1082Z"
        fill="#18243D" />
    <path
        d="M197.842 106.491C199.236 112.599 198.233 118.037 195.583 118.636C192.934 119.236 189.657 114.788 188.263 108.68C186.868 102.573 190.522 96.5352 190.522 96.5352C190.522 96.5352 196.448 100.384 197.842 106.491Z"
        fill="#18243D" />
    <path
        d="M158.59 113.171C156.261 118.985 152.343 122.876 149.819 121.872C147.295 120.868 147.142 115.332 149.457 109.517C151.771 103.703 158.227 100.816 158.227 100.816C158.227 100.816 160.905 107.356 158.59 113.171Z"
        fill="#18243D" />
    <path opacity="0.26"
        d="M135.444 100.413C135.277 104.457 135.054 108.515 134.775 112.544C134.65 114.566 134.482 116.588 134.343 118.61L133.855 124.662L133.325 130.713C133.13 132.735 132.948 134.743 132.739 136.765C132.349 140.795 131.889 144.825 131.387 148.84C131.554 144.797 131.777 140.739 132.056 136.709C132.182 134.687 132.349 132.665 132.488 130.644L132.976 124.592L133.506 118.54C133.701 116.518 133.883 114.51 134.092 112.489C134.482 108.459 134.942 104.429 135.444 100.413Z"
        fill="#F9F9FD" />
    <path opacity="0.26"
        d="M165.02 84.3066C166.079 88.0018 167.083 91.7109 168.115 95.406L171.127 106.533C173.135 113.952 175.073 121.384 176.997 128.83C178.908 136.276 180.832 143.722 182.673 151.182L185.447 162.379C186.34 166.116 187.26 169.853 188.125 173.59C187.065 169.895 186.061 166.186 185.029 162.491L182.017 151.363C180.009 143.945 178.071 136.499 176.147 129.067C174.236 121.621 172.312 114.175 170.472 106.715L167.697 95.5176C166.804 91.7806 165.884 88.0436 165.02 84.3066Z"
        fill="#F9F9FD" />
    <path opacity="0.26"
        d="M192.783 68.9141C195.251 72.9718 197.664 77.0573 200.104 81.129L207.341 93.3857C209.767 97.4713 212.137 101.571 214.522 105.67L221.689 117.969L228.787 130.309C231.143 134.423 233.527 138.522 235.856 142.65L242.884 155.032C245.199 159.173 247.541 163.301 249.828 167.456C247.36 163.398 244.948 159.313 242.507 155.255L235.27 142.998C232.844 138.927 230.488 134.813 228.089 130.714L220.922 118.415L213.825 106.075C211.468 101.961 209.084 97.8618 206.755 93.7343L199.727 81.3521C197.413 77.2107 195.07 73.0833 192.783 68.928V68.9141Z"
        fill="#F9F9FD" />
    <path opacity="0.26"
        d="M223.988 52.4863C226.763 55.9584 229.482 59.4723 232.243 62.9722L240.414 73.5138C243.147 77.0138 245.838 80.5555 248.544 84.0834L256.659 94.6668L264.705 105.306C267.382 108.862 270.087 112.39 272.736 115.959L280.712 126.64C283.348 130.224 286.011 133.78 288.619 137.377C285.844 133.905 283.125 130.391 280.364 126.891L272.193 116.35C269.46 112.85 266.768 109.294 264.063 105.78L255.948 95.1967L247.902 84.5575C245.225 81.0157 242.52 77.4739 239.87 73.9043L231.895 63.2232C229.259 59.6396 226.596 56.0839 223.988 52.4863Z"
        fill="#F9F9FD" />
    <path opacity="0.26"
        d="M247.568 38.388C250.483 40.0334 253.355 41.7206 256.255 43.3799L264.887 48.4555C270.646 51.83 276.363 55.2741 282.094 58.7183C287.811 62.1764 293.514 65.6345 299.189 69.1484L307.695 74.4331C310.511 76.218 313.356 77.9889 316.159 79.7876C313.244 78.1422 310.372 76.455 307.472 74.7957L298.84 69.7201C293.081 66.3317 287.364 62.9015 281.647 59.4573C275.944 55.9992 270.227 52.5411 264.552 49.0133L256.046 43.7285C253.23 41.9437 250.385 40.1728 247.582 38.374L247.568 38.388Z"
        fill="#F9F9FD" />
    <path opacity="0.26"
        d="M286.57 16.7061C289.22 18.0028 291.813 19.3833 294.407 20.7916C295.704 21.4888 296.986 22.2139 298.269 22.9251L302.118 25.1003L305.938 27.3174C307.207 28.0704 308.476 28.8094 309.731 29.5763C312.255 31.0962 314.765 32.6301 317.219 34.2615C314.57 32.9647 311.976 31.5843 309.383 30.1759C308.086 29.4787 306.803 28.7536 305.52 28.0425L301.672 25.8672L297.851 23.6502C296.582 22.8972 295.313 22.1581 294.058 21.3912C291.534 19.8713 289.024 18.3375 286.57 16.7061Z"
        fill="#F9F9FD" />
    <g style="mix-blend-mode:multiply" opacity="0.28">
        <path
            d="M315.501 66.1243C314.427 67.0446 312.81 66.9331 311.89 65.8594C310.969 64.7857 311.081 63.1682 312.154 62.2479C313.228 61.3276 314.846 61.4392 315.766 62.5128C316.686 63.5865 316.575 65.204 315.501 66.1243Z"
            fill="#61C8FD" />
    </g>
    <g style="mix-blend-mode:multiply" opacity="0.28">
        <path
            d="M311.681 71.4504C311.109 71.9385 310.259 71.8827 309.757 71.311C309.269 70.7393 309.325 69.8887 309.896 69.3867C310.468 68.8987 311.319 68.9545 311.821 69.5262C312.309 70.0979 312.253 70.9484 311.681 71.4504Z"
            fill="#61C8FD" />
    </g>
    <path opacity="0.26"
        d="M306.507 61.2971C305.936 61.7851 305.085 61.7294 304.583 61.1577C304.095 60.586 304.151 59.7354 304.722 59.2334C305.294 58.7454 306.145 58.8011 306.647 59.3728C307.149 59.9445 307.079 60.7951 306.507 61.2971Z"
        fill="#F9F9FD" />
    <g style="mix-blend-mode:multiply" opacity="0.28">
        <path
            d="M155.034 145.496C153.961 146.417 152.343 146.305 151.423 145.231C150.502 144.158 150.614 142.54 151.688 141.62C152.761 140.7 154.379 140.811 155.299 141.885C156.219 142.959 156.108 144.576 155.034 145.496Z"
            fill="#61C8FD" />
    </g>
    <g style="mix-blend-mode:multiply" opacity="0.28">
        <path
            d="M151.214 150.833C150.643 151.321 149.792 151.265 149.29 150.694C148.802 150.122 148.858 149.272 149.429 148.77C150.001 148.281 150.852 148.337 151.354 148.909C151.856 149.481 151.786 150.331 151.214 150.833Z"
            fill="#61C8FD" />
    </g>
    <path opacity="0.26"
        d="M146.04 140.669C145.469 141.157 144.618 141.101 144.116 140.53C143.614 139.958 143.684 139.107 144.255 138.605C144.827 138.117 145.678 138.173 146.18 138.745C146.682 139.317 146.612 140.167 146.04 140.669Z"
        fill="#F9F9FD" />
    <g style="mix-blend-mode:multiply" opacity="0.28">
        <path
            d="M228.743 69.5404C227.669 70.4607 226.052 70.3491 225.132 69.2754C224.211 68.2017 224.323 66.5842 225.397 65.6639C226.47 64.7436 228.088 64.8552 229.008 65.9289C229.928 67.0025 229.817 68.62 228.743 69.5404Z"
            fill="#61C8FD" />
    </g>
    <g style="mix-blend-mode:multiply" opacity="0.28">
        <path
            d="M224.925 74.8663C224.353 75.3543 223.503 75.2985 223.001 74.7268C222.499 74.1551 222.569 73.3045 223.14 72.8025C223.712 72.3006 224.563 72.3703 225.064 72.942C225.553 73.5137 225.497 74.3643 224.925 74.8663Z"
            fill="#61C8FD" />
    </g>
    <path opacity="0.26"
        d="M219.736 64.7131C219.164 65.2012 218.314 65.1454 217.812 64.5737C217.323 64.002 217.379 63.1514 217.951 62.6494C218.523 62.1614 219.373 62.2171 219.875 62.7888C220.363 63.3606 220.308 64.2111 219.736 64.7131Z"
        fill="#F9F9FD" />
    <g style="mix-blend-mode:multiply" opacity="0.28">
        <path
            d="M271.704 144.615C270.63 145.535 269.013 145.423 268.093 144.35C267.172 143.276 267.284 141.658 268.358 140.738C269.431 139.818 271.049 139.929 271.969 141.003C272.889 142.077 272.778 143.694 271.704 144.615Z"
            fill="#61C8FD" />
    </g>
    <g style="mix-blend-mode:multiply" opacity="0.28">
        <path
            d="M267.898 149.941C267.326 150.429 266.476 150.373 265.974 149.801C265.486 149.23 265.541 148.379 266.113 147.877C266.685 147.389 267.535 147.445 268.037 148.016C268.525 148.588 268.47 149.439 267.898 149.941Z"
            fill="#61C8FD" />
    </g>
    <path opacity="0.26"
        d="M262.71 139.787C262.139 140.275 261.288 140.22 260.786 139.648C260.298 139.076 260.354 138.226 260.926 137.724C261.497 137.236 262.348 137.291 262.85 137.863C263.338 138.435 263.282 139.285 262.71 139.787Z"
        fill="#F9F9FD" />
</svg>
