<svg width="630" height="562" viewBox="0 0 630 562" fill="none" xmlns="http://www.w3.org/2000/svg">
    <path
        d="M347.02 256.379C348.631 245.911 352.556 235.927 354.59 225.537C357.958 208.304 355.947 190.061 348.895 173.981C346.85 169.311 344.284 164.693 340.276 161.542C336.268 158.392 330.543 157.001 325.963 159.241C321.382 161.482 319.039 167.969 322.072 172.064C325.105 176.16 333.136 174.758 333.75 169.7C338.261 172.855 340.018 179.395 337.703 184.383C335.385 189.377 329.266 192.259 323.939 190.857C316.248 188.837 312.594 179.641 313.155 171.71C313.716 163.78 317.232 156.372 318.782 148.568C322.984 127.436 310.68 104.185 290.848 95.7733C287.483 94.3429 283.796 93.2997 280.195 93.9347C276.595 94.5697 273.17 97.289 272.704 100.917C271.884 107.273 279.399 111.047 285.443 113.179C291.489 115.306 298.684 120.289 296.543 126.335C294.962 130.797 288.756 132.001 284.502 129.929C280.248 127.857 277.535 123.638 275.033 119.615C265.652 104.527 256.271 89.4393 246.884 74.3482C242.779 67.749 238.595 61.0515 232.78 55.8853C226.971 50.7223 219.2 47.2228 211.501 48.2962C203.803 49.3697 196.7 55.966 196.766 63.7383C196.832 71.5106 206.021 68.5992 212.843 74.8671C207.04 73.0622 200.952 71.2431 194.983 72.3883C189.015 73.5334 183.349 78.7125 183.895 84.7646C184.608 92.6694 194.542 96.1583 202.426 95.3124C210.313 94.4609 218.259 91.2086 225.941 93.179C236.279 95.8381 242.075 107.002 243.996 117.503C245.916 128.005 245.306 139.036 248.969 149.066C252.631 159.095 262.779 168.128 273.108 165.422C263.145 167.872 252.162 165.783 243.791 159.849C236.522 154.695 231.442 147.043 227.121 139.249C222.801 131.455 219.041 123.291 213.628 116.216C208.215 109.14 200.807 103.092 192.038 101.527C183.27 99.9626 173.184 103.917 169.623 112.083C166.056 120.246 174.463 126.132 180.542 132.054C174.753 127.302 164.314 131.633 163.597 139.089C162.881 146.545 172.346 142.934 178.892 149.223C167.311 145.583 155.536 142.554 143.635 140.161C137.448 138.918 129.446 138.663 126.568 144.275C124.405 148.492 126.849 153.921 130.779 156.566C134.709 159.212 139.665 159.729 144.399 159.937C159.476 160.591 174.643 158.892 189.64 160.585C204.636 162.278 220.105 168.035 228.948 180.257C235.802 189.732 238.849 202.995 249.377 208.093C252.6 209.652 256.233 210.242 259.439 211.844C262.645 213.446 265.541 216.603 265.143 220.165C264.66 224.448 259.513 226.888 255.278 226.102C251.043 225.315 247.611 222.316 244.402 219.438C236.612 212.445 228.825 205.447 221.035 198.454C217.044 194.868 211.042 191.162 206.849 194.508C204.333 196.515 203.965 200.366 205.175 203.349C206.38 206.328 208.819 208.619 211.262 210.707C224.798 222.307 240.766 231.051 257.833 236.208C271.567 240.361 286.445 242.43 297.977 250.958C304.491 255.774 309.462 262.337 315.152 268.11C323.172 276.246 341.051 291.8 353.224 290.536C353.344 286.059 349.755 281.869 348.336 277.628C346.052 270.813 345.929 263.453 347.02 256.379Z"
        fill="#FFCABC" stroke="black" stroke-width="0.16321" stroke-miterlimit="10" />
    <path d="M240.172 165.164C247.688 169.578 256.769 171.241 265.364 169.788" stroke="black"
        stroke-width="0.16321" stroke-miterlimit="10" />
    <path d="M232.514 158.775C230.454 155.814 228.4 152.857 226.34 149.896" stroke="black"
        stroke-width="0.16321" stroke-miterlimit="10" />
    <path
        d="M347.936 237.451C348.544 235.458 349.149 233.47 349.757 231.477C350.941 227.585 352.136 223.661 352.549 219.618C352.961 215.574 352.539 211.343 350.647 207.74"
        stroke="black" stroke-width="0.16321" stroke-miterlimit="10" />
    <path d="M348.356 223.33C349.614 221.139 349.972 218.443 349.332 216" stroke="black"
        stroke-width="0.16321" stroke-miterlimit="10" />
    <path
        d="M349.739 191.346C348.642 185.006 346.618 178.824 343.759 173.057C342.443 170.413 340.932 167.822 338.84 165.74C336.747 163.657 334.013 162.101 331.071 161.895C329.483 161.785 327.821 162.092 326.526 163.017C325.236 163.946 324.389 165.568 324.634 167.142C324.879 168.716 326.383 170.066 327.966 169.91"
        stroke="black" stroke-width="0.16321" stroke-miterlimit="10" />
    <path
        d="M312.913 186.612C313.137 188.339 314.57 189.657 316.047 190.585C319.263 192.6 323.156 193.521 326.933 193.169"
        stroke="black" stroke-width="0.16321" stroke-miterlimit="10" />
    <path d="M310.898 182.563C309.731 180.434 309.487 177.813 310.246 175.507" stroke="black"
        stroke-width="0.16321" stroke-miterlimit="10" />
    <path
        d="M278.164 131.099C280.773 133.646 284.173 135.368 287.767 135.972C290.063 136.356 292.516 136.272 294.583 135.212C296.656 134.154 298.247 131.974 298.149 129.649"
        stroke="black" stroke-width="0.16321" stroke-miterlimit="10" />
    <path
        d="M275.41 127.566C275.392 127.676 275.371 127.792 275.347 127.899C274.143 125.832 272.937 123.756 271.733 121.689"
        stroke="black" stroke-width="0.16321" stroke-miterlimit="10" />
    <path
        d="M277.685 105.988C276.372 104.762 276.136 102.613 276.969 101.013C277.799 99.4193 279.544 98.4068 281.333 98.2334C283.377 98.0344 285.499 98.89 286.836 100.453"
        stroke="black" stroke-width="0.16321" stroke-miterlimit="10" />
    <path d="M289.271 100.374C291.777 102.183 294.56 103.616 297.491 104.6" stroke="black"
        stroke-width="0.16321" stroke-miterlimit="10" />
    <path
        d="M200.633 65.1903C203.402 66.8044 206.757 67.3918 209.912 66.8236C210.719 66.679 211.611 66.3875 211.977 65.649C212.227 65.1375 212.162 64.5194 211.906 64.0097C211.647 63.5057 211.223 63.103 210.766 62.7714C208.601 61.1819 205.52 60.956 203.146 62.2087C202.786 62.4006 202.421 62.6419 202.264 63.0185C202.107 63.3952 202.262 63.9222 202.657 64.022"
        stroke="black" stroke-width="0.16321" stroke-miterlimit="10" />
    <path d="M203.945 58.1562C206.892 57.1134 210.308 57.5027 212.942 59.1818" stroke="black"
        stroke-width="0.16321" stroke-miterlimit="10" />
    <path
        d="M206.402 53.5605C210.293 51.2085 215.217 50.9454 219.577 52.2191C223.935 53.4985 227.771 56.2032 230.991 59.412C234.212 62.6208 236.873 66.3284 239.521 70.0206"
        stroke="black" stroke-width="0.16321" stroke-miterlimit="10" />
    <path
        d="M187.78 85.9453C187.634 86.8257 188.092 87.716 188.762 88.3061C189.431 88.8961 190.28 89.2279 191.136 89.4956C195.639 90.9271 200.591 90.9144 205.086 89.4614"
        stroke="black" stroke-width="0.16321" stroke-miterlimit="10" />
    <path
        d="M211.64 78.4952C212.376 79.2442 213.574 79.2577 214.619 79.1449C215.47 79.0556 216.381 78.888 217.007 78.2996C217.769 77.5791 217.903 76.3821 217.618 75.3735C217.334 74.3649 216.692 73.5045 216.064 72.6595"
        stroke="black" stroke-width="0.16321" stroke-miterlimit="10" />
    <path
        d="M170.964 150.053C174.647 152.918 179.582 154.124 184.172 153.277C185.512 153.032 187.039 152.384 187.283 151.047C187.49 149.945 186.703 148.918 185.921 148.12C183.721 145.885 181.077 144.079 178.197 142.839"
        stroke="black" stroke-width="0.16321" stroke-miterlimit="10" />
    <path
        d="M178.254 124.333C176.356 123.102 174.639 121.492 173.662 119.451C172.685 117.409 172.546 114.894 173.648 112.922C174.749 110.949 177.226 109.726 179.389 110.394"
        stroke="black" stroke-width="0.16321" stroke-miterlimit="10" />
    <path
        d="M182.998 107.458C184.944 106.086 187.414 105.567 189.786 105.768C192.157 105.969 194.434 106.831 196.504 108.011C202.18 111.25 206.556 116.883 212.86 118.63"
        stroke="black" stroke-width="0.16321" stroke-miterlimit="10" />
    <path
        d="M188.936 110.241C191.22 110.15 193.45 111.053 195.332 112.351C197.214 113.648 198.783 115.33 200.344 117.001"
        stroke="black" stroke-width="0.16321" stroke-miterlimit="10" />
    <path
        d="M129.572 150.159C129.74 151.591 131.083 152.569 132.375 153.203C135.822 154.898 139.829 155.426 143.595 154.675"
        stroke="black" stroke-width="0.16321" stroke-miterlimit="10" />
    <path
        d="M141.419 149.197C142.027 148.953 142.555 148.405 142.588 147.746C142.637 146.892 141.874 146.203 141.1 145.832C139.5 145.066 135.625 144.766 135.232 147.261C134.891 149.446 140.059 149.738 141.419 149.197Z"
        stroke="black" stroke-width="0.16321" stroke-miterlimit="10" />
    <path d="M208.754 203.013C213.803 211.19 221.432 217.743 230.271 221.497" stroke="black"
        stroke-width="0.16321" stroke-miterlimit="10" />
    <path d="M213.456 203.796C216.044 207.461 219.454 210.538 223.367 212.744" stroke="black"
        stroke-width="0.16321" stroke-miterlimit="10" />
    <path
        d="M261.719 230.021C263.412 230.81 265.466 230.504 267.1 229.593C270.572 227.654 272.165 223.222 271.497 219.301C270.82 215.382 268.227 212 265.073 209.576C261.919 207.152 258.218 205.558 254.552 204.022"
        stroke="black" stroke-width="0.16321" stroke-miterlimit="10" />
    <path
        d="M252.631 201.139C256.751 201.301 260.738 202.713 264.367 204.666C267.997 206.618 271.298 209.112 274.592 211.594"
        stroke="black" stroke-width="0.16321" stroke-miterlimit="10" />
    <path
        d="M334.201 274.609C328.721 273.277 324.074 269.561 320.517 265.185C316.959 260.81 314.358 255.758 311.624 250.832C308.893 245.9 305.956 240.986 301.893 237.08C297.831 233.174 292.466 230.325 286.833 230.367"
        stroke="black" stroke-width="0.16321" stroke-miterlimit="10" />
    <path d="M321.312 254.294C317.81 251.586 315.229 247.699 314.106 243.417" stroke="black"
        stroke-width="0.16321" stroke-miterlimit="10" />
    <path
        d="M315.655 231.163C313.565 225.199 309.316 220.024 303.878 216.817C301.488 215.407 298.892 214.368 296.534 212.902C294.177 211.435 292.01 209.43 291.112 206.808C290.217 204.181 290.933 200.878 293.299 199.417C294.939 198.404 297.075 198.439 298.883 199.12C300.687 199.808 302.214 201.066 303.59 202.418C310.577 209.287 314.509 219.163 314.146 228.957"
        stroke="black" stroke-width="0.16321" stroke-miterlimit="10" />
    <path
        d="M252.506 188.845C248.699 188.049 244.762 186.982 241.896 184.347C241.136 183.652 240.463 182.834 240.126 181.863C239.789 180.892 239.855 179.747 240.472 178.927C241.089 178.107 242.17 177.736 243.199 177.742C244.225 177.754 245.219 178.095 246.176 178.474C249.45 179.776 252.521 181.572 255.274 183.764C257.649 185.656 261.406 188.654 262.442 191.574C260.858 191.262 259.247 190.37 257.637 189.96C255.946 189.519 254.222 189.203 252.506 188.845Z"
        stroke="black" stroke-width="0.16321" stroke-miterlimit="10" />
    <path
        d="M245.931 100.908C244.574 99.0163 242.757 97.515 241.165 95.8196C239.573 94.1241 238.141 92.1136 237.867 89.807C237.593 87.5004 238.812 84.8798 241.047 84.233C243.265 83.5911 245.583 85.0201 247.047 86.8072C249.393 89.6769 250.329 93.4214 250.935 97.0728C251.362 99.6489 251.662 102.25 251.827 104.863C251.91 106.169 252.783 110.729 251.705 111.72C251.055 112.324 250.791 111.215 250.464 110.566C249.931 109.505 249.488 108.405 249.045 107.305C248.163 105.099 247.321 102.849 245.931 100.908Z"
        stroke="black" stroke-width="0.16321" stroke-miterlimit="10" />
    <path
        d="M253.024 144.977C252.486 148.625 254.776 152.231 257.813 154.323C260.852 156.41 264.546 157.284 268.149 158.082C271.751 158.88 275.444 159.678 278.563 161.652C284.371 165.329 287.162 173.16 284.992 179.687"
        stroke="black" stroke-width="0.16321" stroke-miterlimit="10" />
    <path d="M259.977 148.75C264.09 153.612 270.79 156.146 277.087 155.229" stroke="black"
        stroke-width="0.16321" stroke-miterlimit="10" />
    <path
        d="M330.973 228.862C330.703 226.497 330.176 224.157 330.155 221.778C330.125 219.402 330.655 216.903 332.228 215.12C333.8 213.337 336.594 212.507 338.658 213.684C341.107 215.083 341.537 218.595 340.473 221.207C339.41 223.82 337.275 225.806 335.422 227.932C333.556 230.081 331.919 232.446 330.612 234.97C331.214 232.988 331.207 230.911 330.973 228.862Z"
        fill="#FEF2F0" stroke="black" stroke-width="0.16321" stroke-miterlimit="10" />
    <path
        d="M267.445 261.706C264.918 261.748 262.334 261.967 259.898 261.277C257.462 260.587 255.158 258.729 254.82 256.219C254.524 253.99 255.909 251.76 257.842 250.606C259.774 249.453 262.144 249.239 264.38 249.504C269.951 250.158 277.443 254.272 280.408 259.217C284.325 265.738 271.084 261.644 267.445 261.706Z"
        fill="#FEF2F0" stroke="black" stroke-width="0.16321" stroke-miterlimit="10" />
    <path
        d="M184.019 179.866C182.227 180.203 180.416 180.65 178.607 180.427C176.798 180.205 174.956 179.126 174.449 177.379C173.917 175.533 175.075 173.526 176.715 172.528C178.354 171.53 180.351 171.348 182.269 171.355C188.457 171.37 202.637 174.189 205.1 180.971C198.019 179.446 191.252 178.516 184.019 179.866Z"
        fill="#FEF2F0" stroke="black" stroke-width="0.16321" stroke-miterlimit="10" />
    <path
        d="M155.673 89.1648C152.544 87.9006 149.409 86.4753 146.866 84.246C144.324 82.0168 142.425 78.8552 142.424 75.4768C142.422 72.0985 144.699 68.6494 148.008 67.9588C151.254 67.285 154.525 69.3094 156.553 71.9347C158.574 74.5568 159.696 77.745 161.255 80.6727C164.619 87.0021 169.655 90.279 175.049 94.5016C171.935 96.8271 159.223 90.6034 155.673 89.1648Z"
        fill="#FEF2F0" stroke="black" stroke-width="0.16321" stroke-miterlimit="10" />
    <path
        d="M163.876 51.3462C164.286 49.6159 164.901 47.8979 166.011 46.5109C167.121 45.1239 168.799 44.1103 170.574 44.1319C173.497 44.1611 175.796 47.0339 176.069 49.9429C176.342 52.852 175.051 55.6876 173.468 58.1431C171.878 60.6098 168.552 68.6553 165.822 67.1022C162.016 64.9345 163.083 54.7031 163.876 51.3462Z"
        fill="#FEF2F0" stroke="black" stroke-width="0.16321" stroke-miterlimit="10" />
    <path
        d="M115.59 124.77C113.154 124.577 110.649 124.45 108.409 123.473C106.165 122.502 104.199 120.462 104.086 118.022C103.939 114.907 106.943 112.329 110.034 111.95C113.13 111.574 116.179 112.874 118.869 114.443C121.288 115.854 130.572 121.396 129.977 124.791C129.397 128.067 118.49 124.996 115.59 124.77Z"
        fill="#FEF2F0" stroke="black" stroke-width="0.16321" stroke-miterlimit="10" />
    <path
        d="M252.091 64.7411C251.689 61.3359 251.801 57.6309 253.754 54.8087C255.708 51.9865 260.036 50.626 262.69 52.8063C264.658 54.4249 265.055 57.3531 264.494 59.8406C263.932 62.3281 262.61 64.5652 261.646 66.9262C259.637 71.8568 260.238 76.3124 260.091 81.384C254.737 81.8962 252.528 68.4614 252.091 64.7411Z"
        fill="#FEF2F0" stroke="black" stroke-width="0.16321" stroke-miterlimit="10" />
    <path
        d="M466.632 452.295L488.123 502.018C488.123 502.018 490.676 512.101 479.259 519.93C469.73 526.46 460.534 531.327 457.754 532.76L457.778 532.811C457.778 532.811 457.622 532.872 457.326 532.98C457.057 533.119 456.895 533.191 456.895 533.191L456.872 533.14C453.928 534.177 444.081 537.538 432.795 540.007C419.268 542.963 413.676 534.186 413.676 534.186L392.186 484.464C392.186 484.464 375.193 448.495 372.074 437.927C369.201 428.202 366.886 394.843 364.891 369.953C364.721 367.819 364.552 365.761 364.387 363.774C364.114 360.526 363.654 357.223 363.049 353.91C358.973 331.528 348.439 309.088 346.633 305.151C344.562 300.63 343.215 304.217 340.908 302.207C338.595 300.193 338.424 296.182 340.043 294.644C341.663 293.092 339.714 290.813 337.628 285.704C335.537 280.592 340.377 278.984 340.377 278.984L352.472 273.755C352.472 273.755 356.961 271.333 359.254 276.358C361.547 281.384 361.873 284.369 364.106 284.249C366.343 284.122 369.145 286.999 369.028 290.06C368.897 293.12 365.38 291.64 367.244 296.244C369.114 300.852 380.869 330.54 397.769 349.343C403.318 355.517 409.886 362.694 416.392 369.888C422.04 376.126 427.643 382.377 432.509 387.998C439.121 395.622 444.366 402.088 446.512 405.761C452.071 415.273 466.632 452.295 466.632 452.295Z"
        fill="#404D43" stroke="black" stroke-width="0.16321" stroke-miterlimit="10" />
    <path d="M389.462 457.743L406.635 497.479L466.464 471.624L449.292 431.887L389.462 457.743Z"
        fill="#C6947E" stroke="black" stroke-width="0.16321" stroke-miterlimit="10" />
    <path d="M392.606 458.304L408.377 494.799L463.323 471.054L447.551 434.559L392.606 458.304Z"
        fill="#EBB9AE" stroke="black" stroke-width="0.16321" stroke-miterlimit="10" />
    <path d="M410.631 500.024L415.143 510.463L470.088 486.718L465.577 476.279L410.631 500.024Z"
        fill="#EBB9AE" stroke="black" stroke-width="0.16321" stroke-miterlimit="10" />
    <path
        d="M438.371 370.847C438.371 370.847 437.988 379.136 428.435 380.013C428.435 380.013 431.271 383.784 432.525 387.998C433.09 389.878 433.338 391.852 432.878 393.614C432.878 393.614 416.836 383.222 406.019 381.575C395.208 379.932 371.649 367.596 364.906 369.953C364.736 367.819 364.567 365.762 364.402 363.774C364.129 360.526 363.67 357.223 363.064 353.911C363.064 353.911 385.441 364.847 398.064 366.067C403.034 366.547 409.817 368.299 416.417 369.886C426.555 372.316 436.285 374.369 438.371 370.847Z"
        fill="#C6947E" stroke="black" stroke-width="0.16321" stroke-miterlimit="10" />
    <path
        d="M353.078 409.005C353.078 409.005 359.375 414.405 366.56 408.045C366.56 408.045 367.357 412.697 369.575 416.494C370.557 418.2 371.826 419.724 373.426 420.595C373.426 420.595 376.851 401.789 383.065 392.788C389.277 383.793 396.436 358.18 402.773 354.881C401.335 353.297 399.953 351.76 398.624 350.276C396.444 347.85 394.354 345.256 392.355 342.541C392.355 342.541 384.984 366.328 377.231 376.363C374.174 380.312 370.805 386.448 367.433 392.341C362.244 401.407 357.069 409.9 353.078 409.005Z"
        fill="#C6947E" stroke="black" stroke-width="0.16321" stroke-miterlimit="10" />
    <path
        d="M395.864 372.264C399.203 366.482 397.221 359.087 391.438 355.748C385.655 352.41 378.261 354.391 374.922 360.174C371.584 365.957 373.565 373.351 379.348 376.69C385.131 380.029 392.525 378.047 395.864 372.264Z"
        fill="#FDE2DC" stroke="black" stroke-width="0.16321" stroke-miterlimit="10" />
    <path
        d="M394.693 371.591C397.659 366.455 395.899 359.887 390.762 356.921C385.626 353.956 379.058 355.715 376.092 360.852C373.127 365.988 374.887 372.556 380.023 375.522C385.16 378.488 391.728 376.728 394.693 371.591Z"
        fill="#C6947E" stroke="black" stroke-width="0.16321" stroke-miterlimit="10" />
    <path
        d="M393.07 370.657C395.518 366.416 394.065 360.994 389.825 358.546C385.584 356.098 380.162 357.551 377.714 361.791C375.266 366.031 376.719 371.453 380.959 373.902C385.199 376.35 390.622 374.897 393.07 370.657Z"
        fill="#EBB9AE" stroke="black" stroke-width="0.16321" stroke-miterlimit="10" />
    <path
        d="M359.527 287.977L346.438 293.634C345.35 294.107 344.088 293.604 343.615 292.517L340.158 284.521C339.685 283.434 340.188 282.171 341.275 281.698L354.364 276.04C355.451 275.567 356.714 276.07 357.187 277.157L360.644 285.154C361.117 286.241 360.614 287.504 359.527 287.977Z"
        fill="#C6947E" stroke="black" stroke-width="0.16321" stroke-miterlimit="10" />
    <path d="M400.824 368.599C403.792 369.294 406.76 369.99 409.728 370.686" stroke="black"
        stroke-width="0.16321" stroke-miterlimit="10" />
    <path d="M422.457 378.547C426.151 379.278 430.162 378.141 432.922 375.58" stroke="black"
        stroke-width="0.16321" stroke-miterlimit="10" />
    <path d="M418.596 378.019C419.507 378.138 420.424 378.26 421.335 378.379" stroke="black"
        stroke-width="0.16321" stroke-miterlimit="10" />
    <path d="M430.553 390.405C427.9 387.819 424.58 385.917 421.01 384.934" stroke="black"
        stroke-width="0.16321" stroke-miterlimit="10" />
    <path d="M431.196 388.734C430.493 386.112 428.83 383.757 426.588 382.221" stroke="black"
        stroke-width="0.16321" stroke-miterlimit="10" />
    <path
        d="M380.773 371.615C382.386 372.621 384.424 372.916 386.254 372.412C388.088 371.911 389.687 370.617 390.563 368.93"
        stroke="black" stroke-width="0.16321" stroke-miterlimit="10" />
    <path
        d="M382.162 361.412C383.225 360.277 384.884 359.727 386.411 360.006C387.939 360.285 389.301 361.373 389.905 362.807"
        stroke="black" stroke-width="0.16321" stroke-miterlimit="10" />
    <path d="M380.176 363.715C380.608 363.384 381.043 363.062 381.475 362.731" stroke="black"
        stroke-width="0.16321" stroke-miterlimit="10" />
    <path d="M373.065 414.625C373.883 411.29 374.694 407.952 375.512 404.617" stroke="black"
        stroke-width="0.16321" stroke-miterlimit="10" />
    <path d="M375.98 403.01C376.415 401.082 377.36 399.276 378.682 397.808" stroke="black"
        stroke-width="0.16321" stroke-miterlimit="10" />
    <path
        d="M362.404 407.866C364.249 407.597 365.733 407.285 367.052 405.966C367.373 407.433 367.979 408.838 368.82 410.085"
        stroke="black" stroke-width="0.16321" stroke-miterlimit="10" />
    <path d="M363.235 404.354C365.598 402.115 367.251 399.134 367.902 395.944" stroke="black"
        stroke-width="0.16321" stroke-miterlimit="10" />
    <path d="M377.98 379.111C380.997 380.793 384.878 380.809 387.916 379.164" stroke="black"
        stroke-width="0.16321" stroke-miterlimit="10" />
    <path d="M378.447 381.752C380.171 382.279 382.027 382.341 383.783 381.938" stroke="black"
        stroke-width="0.16321" stroke-miterlimit="10" />
    <path d="M366.191 368.494C368.319 368.139 370.57 368.497 372.478 369.5" stroke="black"
        stroke-width="0.16321" stroke-miterlimit="10" />
    <path
        d="M397.247 358.93C397.182 358.991 397.119 359.06 397.054 359.121C397.619 356.771 399.322 354.723 401.525 353.726"
        stroke="black" stroke-width="0.16321" stroke-miterlimit="10" />
    <path d="M399.988 353.501C399.031 352.352 398.073 351.204 397.115 350.056" stroke="black"
        stroke-width="0.16321" stroke-miterlimit="10" />
    <path d="M410.426 491.908C413.562 490.523 416.699 489.138 419.836 487.752" stroke="black"
        stroke-width="0.16321" stroke-miterlimit="10" />
    <path d="M409.049 488.733C407.674 485.814 406.299 482.894 404.929 479.978" stroke="black"
        stroke-width="0.16321" stroke-miterlimit="10" />
    <path
        d="M409.869 485.251C409.907 485.341 409.951 485.435 409.99 485.525C408.597 482.466 407.213 479.406 405.82 476.348"
        stroke="black" stroke-width="0.16321" stroke-miterlimit="10" />
    <path d="M400.459 469.039C399.155 466.258 397.845 463.474 396.544 460.688" stroke="black"
        stroke-width="0.16321" stroke-miterlimit="10" />
    <path d="M449.506 475.38C452.774 473.897 456.042 472.415 459.311 470.932" stroke="black"
        stroke-width="0.16321" stroke-miterlimit="10" />
    <path d="M458.184 468.779C457.265 466.794 456.346 464.808 455.421 462.819" stroke="black"
        stroke-width="0.16321" stroke-miterlimit="10" />
    <path d="M455.522 468.259C454.318 466.102 453.12 463.947 451.919 461.784" stroke="black"
        stroke-width="0.16321" stroke-miterlimit="10" />
    <path
        d="M436.199 443.233C439.292 441.611 443.133 440.625 446.225 439.003C446.634 441.35 447.599 443.596 449.011 445.512"
        stroke="black" stroke-width="0.16321" stroke-miterlimit="10" />
    <path
        d="M430.854 447.961C433.494 446.756 435.126 446.123 437.772 444.922C439.753 444.023 441.744 443.122 443.725 442.223"
        stroke="black" stroke-width="0.16321" stroke-miterlimit="10" />
    <path d="M430.631 483.338C433.531 481.944 436.426 480.547 439.326 479.154" stroke="black"
        stroke-width="0.16321" stroke-miterlimit="10" />
    <path d="M426.408 502.8C423.644 503.97 420.88 505.141 418.125 506.31" stroke="black"
        stroke-width="0.16321" stroke-miterlimit="10" />
    <path d="M427.838 494.564C432.99 492.195 438.149 489.828 443.304 487.452" stroke="black"
        stroke-width="0.16321" stroke-miterlimit="10" />
    <path d="M446.07 486.595C448.443 485.553 450.811 484.507 453.184 483.465" stroke="black"
        stroke-width="0.16321" stroke-miterlimit="10" />
    <path d="M450.96 491.674C449.699 492.175 448.437 492.675 447.176 493.176" stroke="black"
        stroke-width="0.16321" stroke-miterlimit="10" />
    <path d="M453.809 490.33C456.919 488.794 460.03 487.258 463.146 485.725" stroke="black"
        stroke-width="0.16321" stroke-miterlimit="10" />
    <path d="M466.53 483.953C466.021 482.46 465.513 480.976 465.003 479.483" stroke="black"
        stroke-width="0.16321" stroke-miterlimit="10" />
    <path
        d="M344.489 291.163C344.572 291.633 345.046 291.96 345.522 292.023C345.998 292.087 346.475 291.94 346.927 291.771C348.138 291.332 349.296 290.749 350.371 290.036"
        stroke="black" stroke-width="0.16321" stroke-miterlimit="10" />
    <path d="M346.551 290.945C347.715 290.404 348.877 289.854 350.042 289.312" stroke="black"
        stroke-width="0.16321" stroke-miterlimit="10" />
    <path d="M355.053 287.89C356.211 287.36 357.369 286.829 358.526 286.299" stroke="black"
        stroke-width="0.16321" stroke-miterlimit="10" />
    <path d="M358.024 283.033C357.493 281.942 356.959 280.843 356.428 279.752" stroke="black"
        stroke-width="0.16321" stroke-miterlimit="10" />
    <path d="M356.89 282.163C356.108 280.761 355.332 279.364 354.55 277.962" stroke="black"
        stroke-width="0.16321" stroke-miterlimit="10" />
    <path d="M341.602 283.245C343.535 282.364 345.474 281.486 347.408 280.604" stroke="black"
        stroke-width="0.16321" stroke-miterlimit="10" />
    <path
        d="M341.58 301.628C342.318 301.76 343.058 301.456 343.759 301.182C344.46 300.909 345.23 300.659 345.95 300.887C346.604 301.099 347.067 301.668 347.457 302.232C348.381 303.557 349.131 305 349.686 306.519"
        stroke="black" stroke-width="0.16321" stroke-miterlimit="10" />
    <path
        d="M341.906 300.307C342.43 300.104 342.958 299.896 343.482 299.693C343.97 299.5 344.473 299.308 344.998 299.273C345.524 299.237 346.083 299.379 346.44 299.766"
        stroke="black" stroke-width="0.16321" stroke-miterlimit="10" />
    <path d="M382.275 332.857C376.711 324.202 372.069 314.955 368.459 305.318" stroke="black"
        stroke-width="0.16321" stroke-miterlimit="10" />
    <path d="M372.142 323.108C369.741 318.557 367.345 313.999 364.95 309.451" stroke="black"
        stroke-width="0.16321" stroke-miterlimit="10" />
    <path d="M429.441 397.348C436.109 402.902 441.638 409.818 445.587 417.548" stroke="black"
        stroke-width="0.16321" stroke-miterlimit="10" />
    <path d="M427.952 404.381C431.667 407.686 434.73 411.717 436.925 416.18" stroke="black"
        stroke-width="0.16321" stroke-miterlimit="10" />
    <path d="M381.295 347.858C378.685 348.108 376.187 349.38 374.443 351.343" stroke="black"
        stroke-width="0.16321" stroke-miterlimit="10" />
</svg>
