<svg width="127" height="159" viewBox="0 0 127 159" fill="none" xmlns="http://www.w3.org/2000/svg">
    <path
        d="M119.387 44.7821C104.477 74.2121 86.4272 102.042 65.6272 127.642C57.5672 137.562 49.0372 147.212 39.0272 155.172C37.2072 156.622 35.2072 158.072 32.8872 158.292C28.4772 158.712 24.9972 154.682 22.7872 150.842C16.9672 140.722 14.1372 129.182 12.0072 117.702C9.36722 103.452 7.69722 89.0421 6.02722 74.6521C4.29722 59.7121 2.56722 44.7721 0.837218 29.8321C0.617218 27.9621 0.417218 25.9821 1.22722 24.2721C2.50722 21.5621 5.79722 20.5421 8.75722 20.0721C17.0372 18.7621 25.4872 19.5121 33.8272 20.3321C48.6472 21.7921 63.5072 23.5021 77.9272 27.2021C92.3472 30.9021 106.407 36.6921 119.387 44.7721V44.7821Z"
        fill="#D95228" />
    <path
        d="M126.467 31.8817C124.597 37.7417 121.857 43.3317 118.377 48.4017C117.717 49.3617 116.937 50.3617 115.817 50.6517C114.867 50.8917 113.877 50.5817 112.947 50.2517C106.017 47.8217 99.2774 44.8917 92.3874 42.3417C64.7274 32.0717 34.7874 27.9817 5.38743 30.4617C4.34743 30.5517 3.16743 30.6017 2.38743 29.9117C1.80743 29.3917 1.59743 28.5917 1.42743 27.8317C0.627426 24.1417 0.147426 20.3817 0.0274265 16.6017C-0.0925735 13.0217 0.187427 9.21173 2.26743 6.30173C4.28743 3.48173 7.68743 1.98172 11.0474 1.15173C16.0874 -0.078275 21.3474 -0.0782749 26.5274 0.0617251C58.1974 0.921725 90.3374 6.89172 117.897 22.5017C121.347 24.4617 125.127 27.2417 126.467 31.8717V31.8817Z"
        fill="#5BAC5F" />
    <path
        d="M39.9783 136.682C41.3583 136.042 42.6983 135.232 43.9183 134.322C45.5583 133.102 47.7183 131.192 47.2283 128.892C46.8383 127.072 44.4583 125.182 42.6483 126.342C41.8883 126.832 41.3783 127.642 40.9883 128.432C40.5183 129.402 40.1883 130.442 39.9183 131.482C39.5283 133.012 39.2383 134.592 39.0783 136.162C38.9983 136.932 40.1983 136.922 40.2783 136.162C40.2783 136.072 40.2983 135.982 40.3083 135.892C40.3183 135.792 40.3383 135.682 40.3483 135.582C40.3683 135.452 40.3283 135.692 40.3483 135.612C40.3483 135.582 40.3483 135.542 40.3583 135.512C40.3683 135.432 40.3783 135.352 40.3983 135.262C40.5183 134.442 40.6583 133.632 40.8383 132.832C41.0483 131.872 41.2983 130.922 41.6283 130.002C41.7883 129.562 41.9283 129.212 42.1483 128.802C42.3183 128.472 42.5883 128.042 42.7583 127.842C43.0283 127.522 43.1383 127.422 43.4683 127.252C43.3883 127.282 43.6083 127.182 43.4683 127.252C43.5083 127.242 43.5383 127.222 43.5783 127.212C43.6183 127.202 43.8583 127.162 43.6983 127.182C43.7683 127.182 43.8383 127.182 43.9083 127.182C44.0883 127.182 43.9083 127.162 44.0683 127.202C44.7683 127.362 45.6083 128.052 45.9483 128.832C46.2483 129.522 46.0483 130.262 45.6183 130.972C45.0883 131.832 44.2883 132.552 43.4783 133.172C42.2183 134.152 40.8083 134.992 39.3683 135.662C38.6683 135.992 39.2783 137.022 39.9783 136.702V136.682Z"
        fill="#363C31" />
    <path
        d="M31.1365 135.118C31.8365 133.838 32.4165 132.458 32.8665 131.068C33.4765 129.178 34.1165 126.538 32.7265 124.838C31.5565 123.398 28.4665 122.978 27.3865 124.748C26.8965 125.548 26.9165 126.558 27.0365 127.458C27.1865 128.518 27.5165 129.548 27.9065 130.548C28.5165 132.118 29.2465 133.658 30.0965 135.118C30.4865 135.778 31.5265 135.178 31.1365 134.508C30.5365 133.478 30.0065 132.408 29.5265 131.328C29.1165 130.408 28.7565 129.468 28.4965 128.508C28.2765 127.718 28.0865 126.808 28.1965 126.028C28.2865 125.398 28.5665 125.008 29.1865 124.868C29.9465 124.688 30.9965 124.848 31.6165 125.388C32.9265 126.528 32.2665 128.968 31.8365 130.388C31.4065 131.808 30.8265 133.208 30.1065 134.518C29.7365 135.198 30.7665 135.798 31.1465 135.128L31.1365 135.118Z"
        fill="#363C31" />
    <path
        d="M62.8075 115.257C64.2275 114.777 65.6175 114.137 66.9175 113.397C68.6375 112.407 70.9275 110.847 70.9675 108.627C70.9975 106.767 68.9075 104.387 66.9275 105.127C66.0275 105.467 65.3875 106.237 64.8775 107.017C64.2875 107.917 63.8575 108.917 63.4675 109.917C62.8875 111.407 62.4175 112.957 62.0875 114.527C61.9275 115.277 63.0775 115.597 63.2475 114.847C63.4975 113.687 63.8275 112.537 64.2075 111.407C64.5375 110.437 64.8775 109.557 65.3275 108.657C65.7375 107.847 66.1475 107.177 66.7875 106.597C66.9775 106.417 67.2475 106.287 67.5175 106.207C67.6775 106.157 67.4475 106.197 67.6175 106.187C67.6875 106.187 67.7675 106.187 67.8375 106.187C67.9875 106.187 67.7075 106.157 67.8575 106.187C67.9075 106.197 67.9475 106.207 67.9975 106.217C68.0275 106.217 68.0575 106.237 68.0875 106.247C68.2375 106.297 68.0875 106.247 68.1775 106.287C68.9075 106.647 69.5775 107.467 69.7475 108.257C69.8175 108.567 69.7775 108.907 69.6375 109.297C69.5375 109.577 69.2475 110.027 69.0175 110.287C68.3575 111.047 67.5575 111.617 66.6975 112.137C66.1975 112.437 65.6775 112.717 65.1575 112.977C64.9175 113.097 64.6675 113.217 64.4175 113.327C64.3075 113.377 64.1975 113.427 64.0875 113.477C64.0275 113.497 63.7775 113.607 63.8675 113.577C63.4175 113.767 62.9575 113.947 62.4975 114.107C61.7675 114.357 62.0875 115.507 62.8175 115.267L62.8075 115.257Z"
        fill="#363C31" />
    <path
        d="M93.2469 67.3583C94.6669 66.8783 96.0569 66.2383 97.3569 65.4983C99.0769 64.5083 101.367 62.9483 101.407 60.7283C101.437 58.8683 99.3469 56.4883 97.3669 57.2283C96.4669 57.5683 95.8269 58.3383 95.3169 59.1183C94.7269 60.0183 94.2969 61.0183 93.9069 62.0183C93.3269 63.5083 92.8569 65.0583 92.5269 66.6283C92.3669 67.3783 93.5169 67.6983 93.6869 66.9483C93.9369 65.7883 94.2669 64.6383 94.6469 63.5083C94.9769 62.5383 95.3169 61.6583 95.7669 60.7583C96.1769 59.9483 96.5869 59.2783 97.2269 58.6983C97.4169 58.5183 97.6869 58.3883 97.9569 58.3083C98.1169 58.2583 97.8869 58.2983 98.0569 58.2883C98.1269 58.2883 98.2069 58.2883 98.2769 58.2883C98.4269 58.2883 98.1469 58.2583 98.2969 58.2883C98.3469 58.2983 98.3869 58.3083 98.4369 58.3183C98.4669 58.3183 98.4969 58.3383 98.5269 58.3483C98.6769 58.3983 98.5269 58.3483 98.6169 58.3883C99.3469 58.7483 100.017 59.5683 100.187 60.3583C100.257 60.6683 100.217 61.0083 100.077 61.3983C99.9769 61.6783 99.6869 62.1283 99.4569 62.3883C98.7969 63.1483 97.9969 63.7183 97.1369 64.2383C96.6369 64.5383 96.1169 64.8183 95.5969 65.0783C95.3569 65.1983 95.1069 65.3183 94.8569 65.4283C94.7469 65.4783 94.6369 65.5283 94.5269 65.5783C94.4669 65.5983 94.2169 65.7083 94.3069 65.6783C93.8569 65.8683 93.3969 66.0483 92.9369 66.2083C92.2069 66.4583 92.5269 67.6083 93.2569 67.3683L93.2469 67.3583Z"
        fill="#363C31" />
    <path
        d="M43.3269 107.067C44.5169 106.077 45.6069 104.937 46.5669 103.727C47.8369 102.117 49.4269 99.6867 48.2969 97.6067C47.4069 95.9767 44.6669 94.8267 43.2369 96.4167C41.9469 97.8467 41.9269 100.267 41.9469 102.087C41.9569 103.667 42.0869 105.257 42.3369 106.817C42.4569 107.577 43.6169 107.257 43.4969 106.497C43.4869 106.407 43.4669 106.317 43.4569 106.227C43.4369 106.107 43.4469 106.137 43.4569 106.227C43.4569 106.167 43.4369 106.107 43.4369 106.047C43.4169 105.907 43.3969 105.767 43.3869 105.627C43.2969 104.827 43.2269 104.027 43.1869 103.227C43.1069 101.517 43.0469 99.4267 43.7169 97.9067C43.8769 97.5567 43.9969 97.3567 44.2269 97.1367C44.3369 97.0267 44.3269 97.0367 44.5169 96.9467C44.5869 96.9067 44.4869 96.9467 44.6169 96.9067C44.6569 96.8967 44.8969 96.8467 44.7769 96.8667C45.5169 96.7767 46.4969 97.2667 47.0369 97.8867C48.2569 99.2967 46.8069 101.487 45.8669 102.727C44.9269 103.967 43.7369 105.207 42.4969 106.247C41.9069 106.737 42.7569 107.587 43.3469 107.097L43.3269 107.067Z"
        fill="#363C31" />
    <path
        d="M56.5359 63.9378C57.7259 62.9478 58.8159 61.8078 59.7759 60.5978C61.0459 58.9878 62.6359 56.5578 61.5059 54.4778C60.6159 52.8478 57.8759 51.6978 56.4459 53.2878C55.1559 54.7178 55.1359 57.1378 55.1559 58.9578C55.1659 60.5378 55.2959 62.1278 55.5459 63.6878C55.6659 64.4478 56.8259 64.1278 56.7059 63.3678C56.6959 63.2778 56.6759 63.1878 56.6659 63.0978C56.6459 62.9778 56.6559 63.0078 56.6659 63.0978C56.6659 63.0378 56.6459 62.9778 56.6459 62.9178C56.6259 62.7778 56.6059 62.6378 56.5959 62.4978C56.5059 61.6978 56.4359 60.8978 56.3959 60.0978C56.3159 58.3878 56.2559 56.2978 56.9259 54.7778C57.0859 54.4278 57.2059 54.2278 57.4359 54.0078C57.5459 53.8978 57.5359 53.9078 57.7259 53.8178C57.7959 53.7778 57.6959 53.8178 57.8259 53.7778C57.8659 53.7678 58.1059 53.7178 57.9859 53.7378C58.7259 53.6478 59.7059 54.1378 60.2459 54.7578C61.4659 56.1678 60.0159 58.3578 59.0759 59.5978C58.1359 60.8378 56.9459 62.0778 55.7059 63.1178C55.1159 63.6078 55.9659 64.4578 56.5559 63.9678L56.5359 63.9378Z"
        fill="#363C31" />
    <path
        d="M69.5168 85.9876C70.9268 85.4776 72.3168 84.8176 73.5968 84.0476C75.2968 83.0276 77.6268 81.3876 77.5568 79.1476C77.4968 77.2876 75.4068 75.0076 73.4368 75.7976C72.5568 76.1476 71.9268 76.9276 71.4368 77.7176C70.8568 78.6376 70.4368 79.6576 70.0668 80.6776C69.5268 82.1676 69.0868 83.7076 68.7868 85.2576C68.6368 86.0076 69.7968 86.3376 69.9468 85.5776C70.1768 84.4076 70.4868 83.2576 70.8468 82.1176C71.1368 81.1876 71.4668 80.2876 71.8768 79.4376C72.2868 78.5876 72.6768 77.8676 73.2968 77.2976C73.5168 77.0876 73.7568 76.9376 73.9968 76.8676C74.0468 76.8576 74.2868 76.8276 74.1268 76.8376C74.2068 76.8376 74.2768 76.8376 74.3568 76.8376C74.5168 76.8376 74.3168 76.8076 74.4768 76.8576C74.5768 76.8776 74.6668 76.9076 74.7568 76.9476C74.6468 76.8976 74.8668 77.0076 74.9068 77.0276C74.9968 77.0776 75.0768 77.1276 75.1568 77.1876C75.2668 77.2676 75.4968 77.4876 75.6568 77.6476C75.9868 78.0076 76.2268 78.3876 76.3268 78.8176C76.4168 79.1576 76.3968 79.4876 76.2668 79.8676C76.1768 80.1476 75.9168 80.5976 75.7068 80.8476C75.0668 81.6476 74.2468 82.2576 73.3868 82.7976C72.4568 83.3876 71.4768 83.8876 70.4768 84.3276C70.3768 84.3676 70.2768 84.4176 70.1768 84.4576C70.1468 84.4676 70.1168 84.4876 70.0868 84.4976C69.9868 84.5376 70.1668 84.4676 70.0168 84.5276C69.8768 84.5876 69.7268 84.6476 69.5868 84.6976C69.4568 84.7476 69.3368 84.7976 69.2068 84.8376C68.4868 85.0976 68.7968 86.2576 69.5268 85.9976L69.5168 85.9876Z"
        fill="#363C31" />
    <path
        d="M26.757 105.766C27.117 104.426 27.327 103.036 27.447 101.656C27.607 99.7257 27.657 97.1757 26.177 95.6957C24.827 94.3457 21.667 94.4157 20.767 96.2757C19.867 98.1357 21.397 100.466 22.407 101.936C23.417 103.406 24.527 104.776 25.757 106.036C26.297 106.586 27.147 105.746 26.607 105.186C25.727 104.286 24.907 103.316 24.147 102.316C23.517 101.486 22.927 100.626 22.447 99.7057C22.067 98.9857 21.707 98.1357 21.717 97.3857C21.717 97.1057 21.807 96.8157 21.927 96.6757C22.137 96.4057 22.417 96.2557 22.777 96.1557C23.577 95.9157 24.557 95.9157 25.147 96.3757C26.467 97.3957 26.387 99.7357 26.287 101.286C26.197 102.686 25.977 104.096 25.607 105.456C25.407 106.206 26.567 106.516 26.767 105.776L26.757 105.766Z"
        fill="#363C31" />
    <path
        d="M24.2668 52.9961C24.6268 51.6561 24.8368 50.2661 24.9568 48.8861C25.1168 46.9561 25.1668 44.4061 23.6868 42.9261C22.3368 41.5761 19.1768 41.6461 18.2768 43.5061C17.3768 45.3661 18.9068 47.6961 19.9168 49.1661C20.9268 50.6361 22.0368 52.0061 23.2668 53.2661C23.8068 53.8161 24.6568 52.9761 24.1168 52.4161C23.2368 51.5161 22.4168 50.5461 21.6568 49.5461C21.0268 48.7161 20.4368 47.8561 19.9568 46.9361C19.5768 46.2161 19.2168 45.3661 19.2268 44.6161C19.2268 44.3361 19.3168 44.0461 19.4368 43.9061C19.6568 43.6261 19.9268 43.4961 20.2868 43.3861C21.0868 43.1461 22.0668 43.1461 22.6568 43.6061C23.9768 44.6261 23.8968 46.9661 23.7968 48.5161C23.7068 49.9161 23.4868 51.3261 23.1168 52.6861C22.9168 53.4361 24.0768 53.7461 24.2768 53.0061L24.2668 52.9961Z"
        fill="#363C31" />
    <path
        d="M35.6066 76.8672C35.9666 75.5272 36.1766 74.1372 36.2966 72.7572C36.4566 70.8272 36.5066 68.2772 35.0266 66.7972C33.6766 65.4472 30.5166 65.5172 29.6166 67.3772C28.7166 69.2372 30.2466 71.5672 31.2566 73.0372C32.2666 74.5072 33.3766 75.8772 34.6066 77.1372C35.1466 77.6872 35.9966 76.8472 35.4566 76.2872C34.5766 75.3872 33.7566 74.4172 32.9966 73.4172C32.3666 72.5872 31.7766 71.7272 31.2966 70.8072C30.9166 70.0872 30.5566 69.2372 30.5666 68.4872C30.5666 68.2072 30.6566 67.9172 30.7766 67.7772C30.9966 67.4972 31.2666 67.3672 31.6266 67.2572C32.4266 67.0172 33.4066 67.0172 33.9966 67.4772C35.3166 68.4972 35.2366 70.8372 35.1366 72.3872C35.0466 73.7872 34.8266 75.1972 34.4566 76.5572C34.2566 77.3072 35.4166 77.6172 35.6166 76.8772L35.6066 76.8672Z"
        fill="#363C31" />
</svg>
