<svg width="793" height="720" viewBox="0 0 793 720" fill="none" xmlns="http://www.w3.org/2000/svg">
    <path
        d="M558.846 237.059C555.536 214.445 547.115 192.162 533.844 170.835C516.74 143.362 492.734 119.38 463.909 100.467L469.382 85.5284L482.351 90.2766C484.122 90.9305 485.973 91.2524 487.854 91.2524C494.585 91.2524 500.662 87.0172 502.966 80.7198L508.138 66.6059C511.186 58.2865 506.9 49.0415 498.58 45.9934L375.732 0.975801C373.961 0.321915 372.11 0 370.229 0C363.498 0 357.421 4.23517 355.117 10.5326L349.945 24.6465C346.897 32.9659 351.183 42.2109 359.504 45.259L366.104 47.6834L361.546 60.1073C347.038 57.5823 332.459 56.3047 317.92 56.3047H317.91C279.165 56.3047 242.954 65.439 213.213 82.7217C182.436 100.608 160.191 126.361 148.882 157.214C147.483 161.037 146.246 164.96 145.21 168.854C144.696 169.829 144.224 170.856 143.831 171.932C142.493 175.594 141.96 179.547 142.262 183.682C143.077 194.898 149.727 206.357 158.973 217.09C163.903 222.814 169.578 228.337 175.494 233.508C176.973 234.796 178.472 236.073 179.971 237.321C185.233 241.687 190.586 245.751 195.717 249.423C200.798 253.064 206.181 256.696 211.805 260.277C242.22 279.662 280.161 298.031 320.697 312.89C333.314 317.517 345.931 321.702 358.407 325.434C374.434 330.223 390.22 334.257 405.423 337.446C420.625 340.635 435.244 342.989 448.968 344.437C450.487 344.598 452.006 344.749 453.505 344.89C461.011 345.584 468.225 345.997 475.087 346.117C476.455 346.137 477.823 346.157 479.162 346.157C485.379 346.157 491.225 345.896 496.688 345.393C516.197 343.582 530.755 338.572 539.287 330.655C542.759 327.426 545.274 323.704 546.783 319.6C547.326 318.111 547.739 316.552 548.01 314.982C549.5 311.743 550.888 308.393 552.136 305.003C560.044 283.455 562.297 260.599 558.846 237.059ZM547.598 302.76C546.843 299.389 545.576 295.909 543.815 292.317C543.845 292.317 543.865 292.328 543.895 292.328C543.936 292.328 543.976 292.328 544.016 292.328C545.314 292.328 546.552 291.825 547.487 290.929L548.151 290.295C550.164 288.374 550.234 285.195 548.312 283.183C546.863 281.664 545.405 280.155 543.946 278.666C544.851 277.791 545.435 276.564 545.485 275.206C545.646 270.166 545.747 264.734 545.364 259.221C545.294 257.34 545.133 255.499 544.972 253.718C544.902 252.923 544.831 252.119 544.771 251.324C544.761 251.253 544.761 251.193 544.751 251.123L544.288 247.25L544.056 245.298C544.046 245.248 544.046 245.187 544.036 245.137L543.745 243.206C542.919 237.522 541.662 232.049 540.535 227.462C539.378 222.855 537.869 217.955 535.786 212.03C535.776 212.01 535.776 212 535.766 211.98C533.965 207.02 531.892 202.011 529.598 197.091C527.335 192.323 524.829 187.545 522.123 182.837C516.79 173.733 510.633 164.88 503.781 156.46C497.322 148.563 489.967 140.737 481.898 133.172C473.799 125.697 465.529 118.897 457.298 112.921C457.138 112.8 456.966 112.69 456.806 112.569C458.938 111.342 460.639 109.39 461.514 106.986L462.118 105.326C535.444 154.015 572.59 233.709 547.598 302.76ZM499.666 245.59C499.214 245.248 498.741 244.906 498.278 244.574C419.338 179.135 341.484 154.891 286.318 146.481C264.777 143.201 245.198 142.054 228.356 142.054C223.536 142.054 218.948 142.145 214.592 142.316C215.538 142.014 216.453 141.692 217.328 141.31C220.86 141.199 224.542 141.139 228.366 141.139C245.248 141.139 264.848 142.286 286.419 145.565C328.414 151.953 369.514 165.061 408.592 184.517C457.429 208.841 503.218 243.206 544.69 286.664L544.026 287.298C540.364 283.455 536.681 279.723 533.009 276.081C524.86 266.273 513.682 256.032 499.666 245.59ZM194.369 133.011C193.654 130.144 195.174 127.206 196.965 124.852C200.456 120.265 209.662 113.303 216.644 113.303C220.478 113.303 223.637 115.406 224.804 121.16C225.78 125.959 223.375 131.039 219.572 134.127C218.506 134.992 217.339 135.707 216.101 136.32C209.491 136.542 203.404 136.914 197.89 137.387C196.22 136.401 194.832 134.882 194.369 133.011ZM196.944 142.507C196.995 142.527 197.045 142.557 197.105 142.577C197.759 142.839 198.444 143.05 199.148 143.231C177.587 145.022 164.93 148.201 164.688 148.271L164.457 147.376C164.688 147.316 176.591 144.328 196.944 142.507ZM441.885 210.089C419.79 198.661 395.442 187.997 369.937 178.642C326.141 162.596 282.314 151.752 244.916 147.456C258.439 148.06 272.051 149.388 285.564 151.44C327.579 157.848 382.946 173.572 441.885 210.089ZM446.11 101.373L447.871 96.574C451.242 98.5055 454.552 100.497 457.792 102.56L456.785 105.296C455.981 107.499 453.928 108.897 451.704 108.998C449.833 107.7 447.952 106.433 446.07 105.185C445.658 103.988 445.638 102.65 446.11 101.373ZM442.126 108.595C443.374 110.819 445.346 112.499 447.75 113.384C448.485 113.656 449.239 113.827 450.004 113.927C451.453 114.943 452.902 115.969 454.331 117.005C462.752 123.122 470.781 129.781 478.447 136.853C486.053 143.986 493.257 151.561 499.867 159.649C506.458 167.747 512.464 176.328 517.746 185.352C520.342 189.889 522.777 194.516 525.021 199.234C527.234 203.972 529.236 208.791 531.017 213.71C532.748 218.64 534.347 223.609 535.625 228.669C536.863 233.739 538 238.83 538.744 243.98L539.036 245.912L539.267 247.853L539.73 251.726C539.931 254.322 540.233 256.907 540.324 259.502C540.686 264.683 540.605 269.884 540.444 275.055C539.851 254.342 535.816 233.85 528.331 214.716C526.439 209.938 524.346 205.25 522.113 200.633C519.829 196.035 517.364 191.528 514.738 187.122C509.466 178.32 503.54 169.9 497.01 161.973C484.041 146.028 468.899 131.894 452.6 119.299C444.43 113.012 435.969 107.097 427.236 101.584C418.523 96.0308 409.528 90.9104 400.221 86.3432C414.87 92.359 428.855 99.9239 442.126 108.595ZM459.562 97.6907C456.312 95.6485 452.992 93.6768 449.622 91.7554L453.968 79.8848L464.643 83.7981L459.562 97.6907ZM445.175 89.2907C433.564 82.9832 421.32 77.4403 408.562 72.7625C399.99 69.6238 391.367 66.9479 382.705 64.6945L386.236 55.0673L449.26 78.1646L445.175 89.2907ZM468.316 73.8288L466.394 79.08L455.719 75.1668L457.641 69.9156C458.486 67.6219 460.669 66.1834 462.993 66.1834C463.637 66.1834 464.291 66.294 464.935 66.5254C467.863 67.6119 469.392 70.8914 468.316 73.8288ZM451.131 38.7302C461.414 42.8447 471.646 47.0899 481.737 51.6872C471.103 48.5184 460.599 45.0277 450.135 41.4263C444.893 39.6557 439.691 37.7645 434.47 35.9336L418.865 30.28L403.32 24.4855C398.159 22.5038 392.967 20.5924 387.816 18.5804C385.24 17.6046 382.644 16.6288 380.069 15.6933C378.378 15.0394 376.648 14.6269 374.937 14.6269C374.132 14.6269 373.338 14.7175 372.543 14.9187C370.078 15.5022 368.005 17.323 366.526 19.5562C365.772 20.6729 365.158 21.8901 364.645 23.1577C364.122 24.4252 363.699 25.743 363.407 27.1011C363.639 24.3346 364.333 21.5783 365.651 19.0432C366.939 16.5283 369.102 14.2044 372.01 13.2085C373.227 12.786 374.505 12.6049 375.783 12.6049C377.513 12.6049 379.234 12.9369 380.793 13.4198C383.489 14.1843 386.115 15.0595 388.761 15.8945C394.044 17.5845 399.265 19.4255 404.497 21.2262C409.719 23.0571 414.921 24.9584 420.132 26.8396L435.677 32.6843C440.828 34.6862 446.01 36.6378 451.131 38.7302ZM361.244 40.551C355.539 38.4586 352.591 32.0908 354.674 26.3868L359.846 12.273C361.475 7.81647 365.731 5.03997 370.239 5.03997C371.496 5.03997 372.764 5.25124 374.012 5.71399L380.763 8.18869C379.062 7.77623 377.402 7.56498 375.793 7.56498C373.881 7.56498 372.05 7.86675 370.37 8.45022C366.516 9.77811 363.246 12.7256 361.194 16.7495C359.664 19.6971 358.719 23.047 358.417 26.6786C358.196 29.3243 360.067 31.6884 362.703 32.0706C362.954 32.1109 363.196 32.1209 363.437 32.1209C365.782 32.1209 367.854 30.4812 368.357 28.1272C368.559 27.1615 368.891 26.1253 369.323 25.0589C369.746 24.0027 370.219 23.1073 370.722 22.3529C371.637 20.9747 372.744 20.0291 373.72 19.7977C373.75 19.7876 373.78 19.7876 373.811 19.7776C374.163 19.687 374.545 19.6367 374.958 19.6367C375.913 19.6367 377.02 19.8782 378.258 20.361C378.288 20.3711 378.318 20.3811 378.358 20.4013C380.944 21.3469 383.53 22.3126 386.045 23.2683C388.943 24.395 391.921 25.5217 394.798 26.6082C397.042 27.4532 399.286 28.2982 401.529 29.1634C401.549 29.1734 401.559 29.1734 401.579 29.1835L417.124 34.9779L432.769 40.6516C432.789 40.6617 432.81 40.6617 432.82 40.6718C434.651 41.3156 436.472 41.9594 438.303 42.6032C441.643 43.7903 445.104 45.0176 448.545 46.1744C461.222 50.5404 471.032 53.7294 480.329 56.4958C480.802 56.6366 481.294 56.707 481.767 56.707C483.81 56.707 485.721 55.4496 486.476 53.4376C487.402 50.9629 486.255 48.1965 483.85 47.1C478.679 44.746 473.155 42.3417 467.038 39.7764L496.879 50.7114C502.584 52.8039 505.532 59.1717 503.449 64.8756L498.278 78.9895C496.648 83.446 492.392 86.2225 487.885 86.2225C486.627 86.2225 485.359 86.0112 484.112 85.5485L471.143 80.8003L473.064 75.549C475.097 70.0061 472.239 63.8294 466.686 61.7973C465.508 61.3648 464.271 61.1434 463.013 61.1434C458.526 61.1434 454.481 63.9702 452.932 68.1652L451.01 73.4164L387.987 50.3191L389.908 45.0679C390.894 42.3819 390.764 39.4746 389.566 36.8792C388.369 34.2838 386.216 32.302 383.54 31.3262C382.352 30.8936 381.125 30.6723 379.867 30.6723C375.38 30.6723 371.335 33.4991 369.796 37.694L367.874 42.9453L361.244 40.551ZM383.248 48.6089L372.573 44.6957L374.495 39.4445C375.34 37.1508 377.523 35.7123 379.847 35.7123C380.491 35.7123 381.145 35.8229 381.789 36.0543C384.727 37.1307 386.246 40.4102 385.17 43.3476L383.248 48.6089ZM370.832 49.4238L381.507 53.337L377.795 63.4773C374.062 62.582 370.319 61.7772 366.577 61.0428L370.832 49.4238ZM362.965 70.9014L364.816 65.8414C368.559 66.5556 372.301 67.3503 376.044 68.2356L373.629 74.8147C372.784 77.1083 370.601 78.5469 368.277 78.5469C367.633 78.5469 366.979 78.4362 366.335 78.2048C363.407 77.1285 361.888 73.8389 362.965 70.9014ZM327.036 65.1573C336.091 65.1573 349.754 72.6518 348.265 83.2649C347.319 90.0352 336.825 91.8862 331.543 93.9887C324.239 96.896 316.924 99.7932 309.6 102.67C294.961 108.424 280.292 114.118 265.592 119.732C260.803 121.563 255.903 123.403 250.782 123.524C250.631 123.524 250.48 123.534 250.329 123.534C245.339 123.534 240.107 121.593 237.401 117.418C234.543 113.012 235.117 107.036 237.642 102.429C240.157 97.8215 244.313 94.3508 248.569 91.2826C260.873 82.3998 274.889 75.9313 289.598 72.1891C301.068 69.2717 314.107 66.0526 325.929 65.1875C326.291 65.1674 326.654 65.1573 327.036 65.1573ZM315.596 61.3647C306.773 62.7429 297.657 64.9561 288.351 67.3302C272.796 71.2837 258.429 77.9835 245.621 87.2285C241.214 90.4074 236.294 94.4212 233.225 100.045C229.583 106.704 229.573 114.611 233.185 120.184C236.596 125.446 243.015 128.594 250.329 128.594C250.52 128.594 250.712 128.594 250.903 128.584C256.97 128.443 262.503 126.321 267.393 124.46C282.032 118.856 296.852 113.112 311.441 107.378C318.715 104.521 326.11 101.594 333.405 98.6866C334.29 98.3345 335.457 97.9522 336.695 97.5498C342.812 95.558 352.048 92.5401 353.255 83.9892C353.95 79.0197 352.4 74.191 348.768 70.0162C345.84 66.6461 341.605 63.8797 337.047 62.1394C344.573 62.7329 352.159 63.6684 359.795 64.9662L358.246 69.2013C357.26 71.8873 357.391 74.7946 358.588 77.39C359.795 79.9955 361.938 81.9672 364.615 82.943C365.792 83.3756 367.029 83.5969 368.287 83.5969C372.774 83.5969 376.819 80.7701 378.368 76.5751L380.964 69.483C389.587 71.6962 398.229 74.352 406.842 77.5107C419.71 82.2288 431.924 87.8019 443.424 94.1094L441.382 99.6724C441.12 100.377 440.949 101.101 440.838 101.835C428.051 93.7774 415.092 87.0474 402.143 81.7358C401.519 81.4843 400.875 81.3535 400.231 81.3535C398.31 81.3535 396.478 82.4601 395.643 84.3212C394.527 86.7959 395.583 89.7032 398.018 90.9003C406.821 95.216 415.746 100.256 424.539 105.859C433.101 111.261 441.502 117.136 449.541 123.323C466.555 136.481 481.224 150.565 493.116 165.192C499.445 172.878 505.26 181.127 510.432 189.748C513.018 194.084 515.432 198.51 517.605 202.876C519.92 207.674 521.902 212.161 523.662 216.607C530.252 233.468 534.126 251.384 535.192 269.924C496.849 232.281 455.085 202.091 410.816 180.05C371.275 160.363 329.672 147.094 287.163 140.626C267.594 137.648 247.814 136.139 228.366 136.139C227.158 136.139 225.971 136.149 224.794 136.159C228.939 131.723 230.861 125.717 229.744 120.194C228.205 112.64 223.436 108.304 216.654 108.304C207.539 108.304 197.136 116.382 192.97 121.834C189.69 126.14 188.523 130.315 189.499 134.248C189.831 135.606 190.435 136.884 191.26 138.04C173.572 139.912 163.36 142.497 163.199 142.537C161.911 142.869 160.805 143.704 160.12 144.851C159.436 145.998 159.255 147.376 159.587 148.664L159.819 149.559C160.151 150.847 160.986 151.953 162.133 152.637C162.575 152.899 163.068 153.08 163.561 153.201C159.758 154.881 156.438 156.822 153.611 159.025C153.611 159.015 153.621 159.005 153.621 158.995C175.937 98.0729 240.65 62.089 315.596 61.3647ZM479.182 341.128C476.626 341.128 474.01 341.087 471.334 340.997C444.581 340.122 412.104 334.911 376.909 325.475C375.149 325.002 373.388 324.519 371.607 324.026C362.743 321.561 353.718 318.835 344.583 315.847C337.268 313.453 329.893 310.898 322.458 308.182C223.335 271.866 149.858 218.559 147.302 183.33C147.966 179.084 148.852 174.869 149.948 170.685C157.434 157.094 179.84 150.424 211.473 150.424H211.483C252.402 150.424 308.755 161.59 368.206 183.37C419.488 202.162 463.889 225.49 495.169 248.517C506.538 257.953 517.938 268.254 529.287 279.491C539.579 291.955 544.61 303.595 543.181 313.483C540.998 318.151 538.563 322.648 535.877 326.973C525.664 336.46 505.643 341.128 479.182 341.128Z"
        fill="#0D1437" />
    <path
        d="M366.344 78.2011C363.406 77.1247 361.887 73.8453 362.963 70.9078L374.493 39.4508C375.57 36.5134 378.85 34.9943 381.788 36.0707C384.726 37.1471 386.245 40.4266 385.168 43.3641L373.638 74.821C372.562 77.7585 369.282 79.2775 366.344 78.2011Z"
        fill="#5DB483" />
    <path
        d="M449.487 108.674C446.549 107.597 445.029 104.318 446.106 101.38L457.636 69.9235C458.713 66.986 461.993 65.467 464.93 66.5434C467.868 67.6198 469.388 70.8993 468.311 73.8367L456.781 105.294C455.704 108.231 452.424 109.75 449.487 108.674Z"
        fill="#5DB483" />
    <path
        d="M547.43 303.276C546.152 306.766 544.733 310.177 543.184 313.496C541 318.164 538.566 322.661 535.879 326.987C509.871 351.15 420.346 344.068 322.451 308.195C223.328 271.879 149.85 218.572 147.295 183.343C147.959 179.098 148.844 174.883 149.941 170.698C150.977 166.754 152.195 162.851 153.623 158.978C184.723 74.1337 298.092 37.6469 406.834 77.4937C515.586 117.341 578.529 218.431 547.43 303.276Z"
        fill="#EE212E" />
    <path
        d="M542.076 317.875C540.828 321.285 538.736 324.324 535.878 326.979C509.87 351.143 420.345 344.061 322.45 308.188C223.327 271.872 149.85 218.565 147.294 183.336C147.053 179.945 147.455 176.716 148.572 173.678C148.954 172.642 149.407 171.646 149.94 170.68C167.105 139.505 262.787 144.746 368.198 183.376C472.382 221.553 548.244 278.481 543.183 313.489C542.961 314.998 542.599 316.457 542.076 317.875Z"
        fill="#14112A" />
    <path
        d="M248.572 91.292C244.316 94.3602 240.161 97.8308 237.645 102.438C235.13 107.046 234.556 113.021 237.404 117.427C240.191 121.723 245.664 123.654 250.785 123.534C255.906 123.413 260.806 121.562 265.595 119.741C280.295 114.118 294.954 108.434 309.603 102.68C316.928 99.8026 324.242 96.9054 331.547 93.9981C336.839 91.8956 347.323 90.0446 348.268 83.2743C349.818 72.2186 334.927 64.543 325.932 65.207C314.11 66.0721 301.071 69.2912 289.601 72.2086C274.892 75.9407 260.877 82.4092 248.572 91.292Z"
        fill="#FBF7C1" />
    <path
        d="M196.962 124.853C195.171 127.207 193.662 130.144 194.366 133.011C194.93 135.275 196.831 137.045 198.994 137.93C201.158 138.816 203.562 138.926 205.896 138.795C210.786 138.534 215.777 137.216 219.58 134.128C223.383 131.039 225.777 125.959 224.811 121.161C221.501 104.914 202.375 117.75 196.962 124.853Z"
        fill="#FBF7C1" />
    <path
        d="M400.242 86.3555C419.429 94.2222 437.519 104.785 454.341 117.018C462.763 123.134 470.791 129.794 478.458 136.866C486.064 143.998 493.268 151.573 499.878 159.661C506.468 167.759 512.475 176.34 517.757 185.364C520.353 189.901 522.788 194.528 525.031 199.246C527.245 203.985 529.247 208.803 531.028 213.722C532.758 218.652 534.358 223.621 535.636 228.681C536.873 233.752 538.01 238.842 538.755 243.992L539.047 245.924L539.278 247.865L539.741 251.738C539.942 254.334 540.244 256.919 540.335 259.515C540.697 264.695 540.616 269.896 540.455 275.067C539.862 254.354 535.827 233.862 528.342 214.728C526.45 209.95 524.357 205.262 522.124 200.645C519.84 196.047 517.375 191.541 514.749 187.134C509.477 178.332 503.551 169.912 497.021 161.985C484.052 146.04 468.91 131.906 452.611 119.311C444.441 113.024 435.98 107.109 427.246 101.596C418.544 96.033 409.539 90.9226 400.242 86.3555Z"
        fill="#FBF7C1" />
    <path
        d="M544.009 287.32C450.289 189.086 352.142 156.523 286.311 146.493C214.977 135.628 165.174 148.153 164.671 148.284L164.439 147.388C164.932 147.257 214.896 134.683 286.401 145.567C328.397 151.955 369.497 165.063 408.575 184.519C457.412 208.843 503.201 243.208 544.673 286.666L544.009 287.32Z"
        fill="#FBF7C1" />
    <path
        d="M484.086 85.5643L361.238 40.5467C355.534 38.4543 352.586 32.0864 354.668 26.3825L359.84 12.2686C361.933 6.5647 368.301 3.61718 374.006 5.69956L496.853 50.7171C502.558 52.8096 505.506 59.1774 503.423 64.8813L498.252 78.9952C496.159 84.6991 489.79 87.6567 484.086 85.5643Z"
        fill="#F04B27" />
    <path
        d="M363.42 27.0917C363.651 24.3252 364.346 21.5688 365.664 19.0338C366.951 16.5188 369.115 14.195 372.022 13.1991C374.91 12.1931 378.089 12.5653 380.796 13.4103C383.492 14.1749 386.118 15.0501 388.764 15.885C394.046 17.5751 399.268 19.416 404.5 21.2167C409.722 23.0476 414.923 24.9489 420.135 26.8301L435.68 32.6748C440.831 34.6969 446.012 36.6485 451.144 38.7409C461.426 42.8553 471.659 47.1006 481.75 51.6979C471.115 48.5291 460.611 45.0383 450.148 41.4369C444.906 39.6664 439.704 37.7752 434.482 35.9443L418.877 30.2907L403.333 24.4962C398.171 22.5144 392.98 20.6031 387.828 18.5911C385.253 17.6153 382.657 16.6395 380.081 15.704C377.596 14.7382 375.021 14.2956 372.566 14.9293C370.101 15.5128 368.028 17.3337 366.549 19.5669C365.794 20.6836 365.181 21.9008 364.668 23.1683C364.134 24.4157 363.712 25.7336 363.42 27.0917Z"
        fill="#FEDF5A" />
    <path
        d="M370.152 333.319C430.379 333.319 487.194 342.574 530.125 359.394C531.715 360.018 533.265 360.651 534.804 361.285C535.005 361.366 535.206 361.446 535.398 361.537C540.75 363.78 545.811 366.124 550.56 368.558C550.67 368.619 550.781 368.669 550.882 368.729C551.596 369.102 552.3 369.474 553.005 369.846C553.186 369.947 553.377 370.047 553.558 370.148C554.212 370.5 554.856 370.852 555.5 371.204C555.721 371.325 555.942 371.446 556.164 371.576C556.778 371.918 557.381 372.26 557.985 372.602C558.226 372.743 558.458 372.874 558.689 373.015C559.273 373.357 559.846 373.689 560.42 374.031C560.661 374.172 560.893 374.323 561.134 374.463C561.698 374.806 562.261 375.148 562.814 375.49C563.026 375.62 563.227 375.751 563.438 375.882C564.012 376.244 564.585 376.606 565.149 376.978C565.179 376.999 565.199 377.019 565.229 377.029C566.507 377.864 567.744 378.699 568.962 379.544C569.133 379.664 569.314 379.785 569.485 379.906C569.907 380.208 570.32 380.499 570.732 380.801C571.044 381.023 571.356 381.244 571.658 381.475C572.03 381.757 572.403 382.028 572.775 382.31C573.107 382.562 573.439 382.813 573.761 383.065C574.113 383.336 574.455 383.608 574.797 383.879C575.129 384.141 575.461 384.413 575.793 384.674C576.115 384.936 576.437 385.197 576.759 385.469C577.091 385.751 577.433 386.022 577.765 386.304C578.067 386.565 578.369 386.817 578.671 387.078C579.003 387.37 579.335 387.662 579.667 387.954C579.949 388.205 580.23 388.457 580.502 388.708C580.844 389.02 581.176 389.332 581.518 389.644C581.77 389.885 582.021 390.117 582.273 390.358C582.635 390.7 582.977 391.042 583.329 391.384C583.54 391.595 583.762 391.807 583.973 392.018C584.396 392.45 584.818 392.883 585.231 393.316C585.351 393.446 585.482 393.567 585.603 393.698C586.136 394.271 586.659 394.845 587.172 395.418C587.273 395.529 587.364 395.639 587.454 395.74C587.867 396.203 588.269 396.676 588.662 397.138C588.812 397.319 588.963 397.51 589.114 397.702C589.436 398.094 589.758 398.486 590.07 398.879C590.241 399.09 590.402 399.311 590.563 399.522C590.845 399.895 591.137 400.267 591.408 400.639C591.569 400.86 591.73 401.092 591.901 401.313C592.163 401.675 592.424 402.047 592.676 402.42C592.837 402.651 592.988 402.882 593.149 403.114C593.4 403.486 593.642 403.848 593.873 404.22C594.024 404.452 594.165 404.683 594.316 404.914C594.547 405.287 594.779 405.669 595 406.041C595.131 406.273 595.272 406.494 595.403 406.725C595.624 407.118 595.845 407.51 596.057 407.892C596.177 408.103 596.298 408.325 596.409 408.536C596.64 408.969 596.851 409.391 597.063 409.824C597.153 410.005 597.244 410.186 597.334 410.367C597.626 410.981 597.918 411.594 598.19 412.208C599.92 416.141 601.117 420.155 601.781 424.239H642.479V423.807C642.479 417.167 647.912 411.735 654.552 411.735H723.23C729.871 411.735 735.304 417.167 735.304 423.807V458.734C735.304 465.374 729.871 470.806 723.23 470.806H654.552C649.17 470.806 644.582 467.235 643.042 462.356H599.518C598.29 462.356 597.093 462.165 595.976 461.823C592.656 483.431 586.317 504.044 577.393 523.218C541.002 601.432 461.699 655.655 369.74 655.655C259.348 655.655 167.207 577.53 145.606 473.562C144.147 474.196 142.537 474.548 140.857 474.548H97.3322C95.7828 479.437 91.1948 482.999 85.8222 482.999H17.1443C10.5039 482.999 5.07086 477.566 5.07086 470.927V435.999C5.07086 429.36 10.5039 423.928 17.1443 423.928H85.8222C92.4626 423.928 97.8956 429.36 97.8956 435.999V436.432H138.201C138.05 434.893 137.969 433.343 137.969 431.794C137.969 425.99 139.036 420.296 141.139 414.753C149.318 393.165 173.143 373.92 210.219 359.394C253.11 342.574 309.916 333.319 370.152 333.319ZM370.152 328.289C309.302 328.289 251.832 337.675 208.348 354.706C170.035 369.715 145.153 389.865 136.4 412.962C134.126 418.948 132.949 425.155 132.909 431.392H102.262C100.25 424.189 93.6196 418.888 85.7819 418.888H17.1041C7.67671 418.888 0 426.563 0 435.989V470.917C0 480.343 7.67671 488.018 17.1041 488.018H85.7819C91.9696 488.018 97.5133 484.739 100.532 479.568H140.817C141.119 479.568 141.43 479.558 141.732 479.548C153.262 529.445 181.323 574.714 221.145 607.478C241.64 624.339 264.61 637.487 289.421 646.551C315.107 655.936 342.112 660.685 369.699 660.685C415.136 660.685 459.194 647.647 497.105 622.981C534.039 598.948 563.368 565.187 581.911 525.34C590.493 506.921 596.61 487.455 600.121 467.396H639.773C642.791 472.567 648.345 475.846 654.522 475.846H723.2C732.628 475.846 740.304 468.17 740.304 458.744V423.817C740.304 414.391 732.628 406.715 723.2 406.715H654.522C646.685 406.715 640.064 412.017 638.052 419.219H605.856C605.102 416.171 604.065 413.143 602.767 410.196C602.486 409.552 602.184 408.898 601.842 408.184C601.771 408.043 601.701 407.902 601.63 407.771L601.54 407.59C601.309 407.118 601.067 406.655 600.826 406.192C600.735 406.021 600.645 405.85 600.554 405.689L600.443 405.488C600.212 405.065 599.98 404.643 599.739 404.22C599.618 404.019 599.508 403.818 599.387 403.617L599.306 403.476C599.065 403.074 598.823 402.661 598.572 402.259C598.411 402.007 598.26 401.756 598.099 401.514C597.847 401.112 597.586 400.72 597.314 400.317C597.143 400.066 596.982 399.824 596.811 399.573C596.539 399.17 596.258 398.778 595.976 398.386L595.926 398.315C595.775 398.094 595.614 397.883 595.453 397.671C595.161 397.269 594.859 396.877 594.547 396.474L594.406 396.293C594.276 396.122 594.145 395.961 594.014 395.79C593.682 395.368 593.34 394.945 592.998 394.523L592.847 394.332C592.736 394.191 592.626 394.06 592.515 393.919C592.102 393.416 591.67 392.923 591.237 392.43L591.147 392.33C591.076 392.249 591.006 392.169 590.935 392.088C590.392 391.475 589.839 390.861 589.275 390.267C589.185 390.177 589.094 390.086 589.014 389.986L588.883 389.855C588.45 389.392 588.008 388.94 587.555 388.487C587.404 388.336 587.243 388.175 587.092 388.024L586.881 387.813C586.508 387.451 586.146 387.089 585.764 386.726C585.563 386.535 585.361 386.344 585.16 386.153L584.969 385.982C584.617 385.65 584.265 385.318 583.903 384.996C583.611 384.735 583.319 384.473 583.027 384.211C582.685 383.9 582.333 383.598 581.981 383.286C581.669 383.014 581.347 382.743 581.035 382.471C580.693 382.179 580.341 381.888 579.989 381.596C579.657 381.324 579.315 381.043 578.983 380.771C578.641 380.489 578.288 380.218 577.936 379.936C577.564 379.644 577.212 379.363 576.86 379.091C576.568 378.87 576.276 378.648 575.974 378.417L575.823 378.306L575.632 378.165C575.31 377.924 574.988 377.683 574.666 377.441C574.435 377.27 574.204 377.099 573.972 376.938L573.701 376.747L573.449 376.566C573.107 376.314 572.765 376.063 572.413 375.822C572.302 375.741 572.181 375.661 572.071 375.58L571.869 375.439C570.572 374.534 569.274 373.659 568.006 372.834L567.976 372.814L567.915 372.773C567.342 372.401 566.758 372.029 566.175 371.657L565.913 371.486L565.511 371.224C564.937 370.872 564.354 370.51 563.77 370.158L563.529 370.007L563.036 369.705C562.452 369.353 561.848 369.001 561.255 368.659L561.094 368.558L560.53 368.226C559.917 367.874 559.293 367.522 558.659 367.17L557.975 366.788C557.321 366.426 556.657 366.064 555.983 365.701L555.5 365.44L555.419 365.4C554.695 365.017 553.971 364.635 553.236 364.253L553.035 364.152L552.904 364.092C548.044 361.597 542.823 359.173 537.39 356.899L536.997 356.738L536.796 356.658C534.995 355.913 533.476 355.3 532.017 354.726C488.472 337.675 431.002 328.289 370.152 328.289Z"
        fill="#3C1221" />
    <path
        d="M598.656 426.818C598.656 435.942 598.123 444.936 597.086 453.778C594.209 478.334 587.438 501.713 577.397 523.261C541.005 601.476 461.703 655.698 369.743 655.698C254.019 655.698 158.357 569.848 142.973 458.376C142.651 456.022 142.36 453.648 142.108 451.273C142.018 450.459 141.937 449.644 141.867 448.829C141.182 441.586 140.82 434.242 140.82 426.818C140.82 422.784 140.921 418.77 141.132 414.787C149.312 393.198 173.137 373.954 210.213 359.428C253.144 342.608 309.949 333.353 370.186 333.353C430.412 333.353 487.228 342.608 530.159 359.428C533.55 360.755 536.84 362.134 540.009 363.542C570.102 376.891 590.033 393.651 598.203 412.251C598.505 417.07 598.656 421.929 598.656 426.818Z"
        fill="#DB1F27" />
    <path
        d="M572.839 497.856C543.47 510.029 514.102 522.191 484.743 534.363C480.708 536.033 476.453 537.874 473.937 541.446C471.422 545.017 471.593 550.851 475.426 552.944C478.384 554.564 482.358 553.457 485.155 555.328C488.194 557.36 488.244 562.149 486.081 565.096C483.918 568.044 480.276 569.502 476.734 570.408C471.221 571.816 465.476 572.229 460.043 573.909C454.61 575.589 449.257 578.838 446.983 584.059C444.709 589.27 446.802 596.523 452.215 598.263C449.317 597.328 436.328 606.311 433.32 607.83C426.167 611.452 419.003 615.083 411.849 618.705C398.015 625.716 383.326 632.034 370.105 640.072C375.901 652.556 405.35 637.969 414.013 635.142C430.624 629.73 446.681 622.648 461.924 614.107C492.208 597.137 519.273 574.401 541.126 547.421C553.501 532.15 564.206 515.511 572.839 497.856Z"
        fill="#7B1127" />
    <path
        d="M232.297 550.062C235.859 550.354 239.581 550.233 242.791 548.654C246 547.074 248.546 543.735 248.264 540.173C247.892 535.526 243.284 532.558 239.189 530.335C226.622 523.504 214.046 516.684 201.479 509.853C181.679 499.099 188.269 519.883 195.402 529.339C204.126 540.908 217.769 548.895 232.297 550.062Z"
        fill="#FBF7C1" />
    <g opacity="0.6">
        <path
            d="M598.658 426.821C598.658 435.945 598.125 444.939 597.088 453.781C594.211 478.337 587.44 501.716 577.398 523.264C292.465 622.454 168.299 490.821 142.975 458.379C139.585 454.043 137.965 451.478 137.965 451.478L141.869 448.832L218.314 396.893H358.879L540.011 363.545C570.104 376.894 590.035 393.654 598.205 412.254C598.507 417.073 598.658 421.932 598.658 426.821Z"
            fill="#7B1127" />
    </g>
    <path
        d="M598.205 412.251C589.17 391.688 565.778 373.379 530.161 359.427C487.23 342.607 430.414 333.352 370.188 333.352C309.951 333.352 253.146 342.607 210.214 359.427C173.139 373.953 149.314 393.197 141.134 414.786C139.031 420.329 137.965 426.022 137.965 431.827C137.965 438.476 139.363 444.975 142.11 451.272C151.115 471.885 174.517 490.244 210.214 504.227C253.146 521.037 309.951 530.302 370.188 530.302C430.414 530.302 487.23 521.037 530.161 504.227C564.399 490.817 587.339 473.374 597.088 453.777C600.61 446.715 602.411 439.362 602.411 431.827C602.411 425.127 600.992 418.588 598.205 412.251ZM370.188 505.585C247.904 505.585 162.685 466.714 162.685 431.827C162.685 396.939 247.904 358.068 370.188 358.068C492.472 358.068 577.69 396.939 577.69 431.827C577.69 466.714 492.472 505.585 370.188 505.585Z"
        fill="#86D0CC" />
    <path
        d="M370.51 515.953C489.117 515.953 585.267 478.291 585.267 431.833C585.267 385.375 489.117 347.713 370.51 347.713C251.904 347.713 155.754 385.375 155.754 431.833C155.754 478.291 251.904 515.953 370.51 515.953Z"
        fill="#0C132C" />
    <path
        d="M493.51 379.595H247.523C245.662 379.595 244.133 378.066 244.133 376.205C244.133 374.344 245.662 372.814 247.523 372.814H493.51C495.371 372.814 496.901 374.344 496.901 376.205C496.901 378.066 495.371 379.595 493.51 379.595Z"
        fill="#DEF1F2" />
    <path
        d="M501.979 489.832H255.992C254.131 489.832 252.602 488.303 252.602 486.442C252.602 484.581 254.131 483.052 255.992 483.052H501.979C503.84 483.052 505.37 484.581 505.37 486.442C505.37 488.303 503.85 489.832 501.979 489.832Z"
        fill="#DEF1F2" />
    <path
        d="M538.463 396.884H201.02C199.158 396.884 197.629 395.355 197.629 393.494C197.629 391.633 199.158 390.104 201.02 390.104H538.453C540.314 390.104 541.843 391.633 541.843 393.494C541.853 395.365 540.324 396.884 538.463 396.884Z"
        fill="#DEF1F2" />
    <path
        d="M533.831 441.319H196.398C194.537 441.319 193.008 439.79 193.008 437.929C193.008 436.068 194.537 434.539 196.398 434.539H533.831C535.693 434.539 537.222 436.068 537.222 437.929C537.222 439.79 535.703 441.319 533.831 441.319Z"
        fill="#DEF1F2" />
    <path
        d="M533.831 465.583H196.398C194.537 465.583 193.008 464.054 193.008 462.193C193.008 460.332 194.537 458.803 196.398 458.803H533.831C535.693 458.803 537.222 460.332 537.222 462.193C537.222 464.054 535.703 465.583 533.831 465.583Z"
        fill="#DEF1F2" />
    <path
        d="M564.409 419.117H175.08C173.219 419.117 171.689 417.588 171.689 415.727C171.689 413.866 173.219 412.337 175.08 412.337H564.409C566.27 412.337 567.8 413.866 567.8 415.727C567.8 417.588 566.27 419.117 564.409 419.117Z"
        fill="#DEF1F2" />
    <path
        d="M184.717 483.052C195.774 487.438 207.012 491.291 218.341 494.792C229.66 498.333 241.09 501.491 252.59 504.338C264.1 507.125 275.67 509.67 287.321 511.722C298.962 513.805 310.653 515.676 322.415 516.893C325.342 517.285 328.29 517.517 331.228 517.818C334.166 518.11 337.114 518.412 340.062 518.583L348.906 519.197L357.76 519.589C369.571 520.042 381.403 520.102 393.215 519.569L397.652 519.408C399.131 519.337 400.6 519.207 402.079 519.116L410.933 518.513L419.767 517.627L424.184 517.175L428.581 516.571L437.394 515.404L446.168 513.925L450.564 513.191L454.921 512.296L463.674 510.555L455.102 513.03L450.796 514.237L446.449 515.283L437.736 517.315L428.953 519.005L424.556 519.82L420.129 520.474L411.265 521.772L402.361 522.718C400.872 522.868 399.393 523.039 397.904 523.16L393.437 523.472C390.459 523.663 387.48 523.925 384.492 524.055L375.528 524.337C372.54 524.468 369.551 524.398 366.563 524.418C363.575 524.408 360.587 524.458 357.599 524.337L348.634 524.025L339.69 523.462C336.702 523.301 333.733 523.019 330.755 522.748C327.777 522.456 324.799 522.255 321.831 521.872C298.087 519.136 274.563 514.529 251.574 508.101C240.074 504.912 228.725 501.21 217.526 497.105C206.389 492.951 195.321 488.454 184.717 483.052Z"
        fill="#F1F9FB" />
    <path
        d="M140.86 474.599H93.009C86.3686 474.599 80.9355 469.167 80.9355 462.527V448.554C80.9355 441.915 86.3686 436.482 93.009 436.482H140.86C147.501 436.482 152.934 441.915 152.934 448.554V462.527C152.934 469.167 147.501 474.599 140.86 474.599Z"
        fill="#1A1239" />
    <path
        d="M143.226 450.196H94.6704C92.7587 450.196 91.1992 448.637 91.1992 446.726C91.1992 444.814 92.7587 443.255 94.6704 443.255H143.226C145.137 443.255 146.697 444.814 146.697 446.726C146.697 448.627 145.137 450.196 143.226 450.196Z"
        fill="#DEF1F2" />
    <path
        d="M85.8158 483.047H17.1379C10.4975 483.047 5.06445 477.614 5.06445 470.975V436.047C5.06445 429.408 10.4975 423.976 17.1379 423.976H85.8158C92.4562 423.976 97.8892 429.408 97.8892 436.047V470.975C97.8892 477.614 92.4562 483.047 85.8158 483.047Z"
        fill="#E78F2B" />
    <path
        d="M11.4035 462.189C11.4035 462.189 9.69306 476.484 20.6497 477.339C31.6064 478.195 86.5809 477.339 86.5809 477.339C86.5809 477.339 93.6036 477.008 94.4588 462.189C94.4588 462.189 11.9669 462.743 11.4035 462.189Z"
        fill="#3C1221" />
    <path
        d="M91.176 457.043H12.125V445.374C12.125 442.305 14.6202 439.82 17.6788 439.82H80.9337V442.838H17.6788C16.2803 442.838 15.1434 443.975 15.1434 445.374V454.025H88.1576V434.781C88.1576 432.92 86.6484 431.411 84.7871 431.411H13.6342V428.393H84.7871C88.3085 428.393 91.176 431.26 91.176 434.781V457.043Z"
        fill="#3C1221" />
    <path
        d="M599.525 462.417H647.376C654.016 462.417 659.449 456.985 659.449 450.346V436.373C659.449 429.733 654.016 424.301 647.376 424.301H599.525C592.884 424.301 587.451 429.733 587.451 436.373V450.346C587.451 456.985 592.884 462.417 599.525 462.417Z"
        fill="#1A1239" />
    <path
        d="M597.159 438.022H645.714C647.626 438.022 649.185 436.463 649.185 434.552C649.185 432.64 647.626 431.081 645.714 431.081H597.159C595.247 431.081 593.688 432.64 593.688 434.552C593.688 436.463 595.247 438.022 597.159 438.022Z"
        fill="#DEF1F2" />
    <path
        d="M654.568 470.864H723.245C729.886 470.864 735.319 465.432 735.319 458.792V423.865C735.319 417.225 729.886 411.793 723.245 411.793H654.568C647.927 411.793 642.494 417.225 642.494 423.865V458.792C642.494 465.432 647.927 470.864 654.568 470.864Z"
        fill="#E78F2B" />
    <path
        d="M728.981 450.008C728.981 450.008 730.692 464.303 719.735 465.158C708.778 466.013 653.804 465.158 653.804 465.158C653.804 465.158 646.781 464.826 645.926 450.008C645.926 450.008 728.418 450.561 728.981 450.008Z"
        fill="#3C1221" />
    <path
        d="M728.266 444.863H649.215V422.611C649.215 419.09 652.082 416.223 655.604 416.223H726.757V419.241H655.604C653.742 419.241 652.233 420.75 652.233 422.611V441.855H725.247V433.204C725.247 431.805 724.11 430.669 722.712 430.669H659.457V427.651H722.712C725.781 427.651 728.266 430.145 728.266 433.204V444.863Z"
        fill="#3C1221" />
    <path
        d="M372.886 564.479C344.966 564.479 321.202 542.378 307.005 529.169C303.524 525.93 300.768 523.375 298.735 521.866C293.634 518.104 289.107 517.55 284.73 517.027C279.287 516.363 274.146 515.74 268.974 509.251C259.718 497.632 266.237 476.567 266.519 475.682L266.63 475.339L266.912 475.128C267.847 474.424 276.168 468.237 278.904 467.453C279.397 467.312 279.971 467.121 280.605 466.899C282.798 466.155 285.817 465.129 288.905 465.129C289.791 465.129 290.646 465.219 291.451 465.38C296.019 466.346 297.095 466.688 307.297 470.088C312.479 471.819 315.558 473.458 319.813 475.732C324.079 478.005 329.402 480.842 339.211 485.097C355.752 492.27 357.583 492.361 369.486 492.964C371.759 493.075 374.345 493.206 377.474 493.407C387.163 494.021 392.133 494.252 395.796 494.252C399.73 494.252 402.265 493.98 406.461 493.538L407.648 493.407C416.693 492.451 429.44 488.478 432.398 487.059C433.093 486.566 436.01 482.16 438.828 477.905C449.774 461.356 460.157 446.498 466.848 446.498C467.894 446.498 469.394 446.87 470.54 448.651C477.925 460.159 477.845 463.278 474.827 488.176C471.738 513.728 425.013 552.83 385.553 562.88C381.408 563.946 377.152 564.479 372.886 564.479Z"
        fill="#D62027" />
    <path
        d="M466.85 447.603C467.947 447.603 468.882 448.116 469.607 449.253C476.73 460.349 476.73 463.266 473.732 488.054C470.734 512.841 425.005 551.702 385.284 561.822C381.088 562.888 376.953 563.371 372.898 563.371C338.529 563.371 309.845 528.685 299.401 520.969C287.72 512.348 278.846 519.843 269.851 508.555C260.857 497.268 267.578 476.002 267.578 476.002C267.578 476.002 276.592 469.252 279.218 468.507C281.402 467.884 285.124 466.234 288.917 466.234C289.692 466.234 290.467 466.304 291.242 466.465C295.759 467.421 296.846 467.763 306.967 471.133C317.089 474.503 318.96 477.501 338.801 486.112C358.642 494.713 357.565 493.244 377.436 494.512C386.773 495.106 391.964 495.357 395.828 495.357C400.184 495.357 402.831 495.035 407.801 494.512C417.168 493.526 429.915 489.502 432.914 488.064C435.57 486.766 457.272 447.603 466.85 447.603ZM466.84 445.41C459.586 445.41 449.444 459.856 437.904 477.31C435.429 481.062 432.622 485.297 431.746 486.162C428.547 487.621 416.302 491.404 407.529 492.329L406.342 492.46C402.177 492.902 399.671 493.164 395.788 493.164C392.146 493.164 387.205 492.933 377.537 492.319C374.408 492.118 371.822 491.987 369.538 491.876C357.545 491.273 355.996 491.192 339.646 484.1C329.867 479.855 324.574 477.038 320.329 474.765C316.022 472.471 312.903 470.811 307.641 469.051C297.389 465.63 296.312 465.288 291.674 464.312C290.799 464.131 289.863 464.031 288.897 464.031C285.627 464.031 282.518 465.087 280.245 465.862C279.601 466.083 279.057 466.264 278.595 466.395C275.727 467.21 267.799 473.075 266.239 474.241L265.676 474.664L265.465 475.338C265.173 476.253 258.492 497.852 268.111 509.924C273.564 516.764 279.168 517.448 284.601 518.102C288.837 518.615 293.214 519.148 298.083 522.74C300.075 524.209 302.943 526.874 306.263 529.963C320.58 543.282 344.546 565.564 372.888 565.564C377.245 565.564 381.601 565.021 385.817 563.945C404.933 559.076 426.394 547.477 444.685 532.116C463.027 516.724 474.406 500.759 475.905 488.305C478.913 463.447 479.004 459.826 471.448 448.056C470.049 445.873 468.168 445.41 466.84 445.41Z"
        fill="#0C1339" />
    <path
        d="M374.397 541.261C369.065 541.261 363.38 540.808 357.012 539.883C335.712 536.794 330.279 526.916 325.49 518.194C323.699 514.934 322.009 511.866 319.604 509.22C316.475 505.77 310.297 505.619 303.144 505.428C291 505.116 275.878 504.724 269.308 486.807C259.327 459.595 278.896 442.162 280.144 441.075C284.893 436.066 305.689 425.644 327.23 424.245C328.649 424.155 330.028 424.104 331.325 424.104C342.473 424.104 348.409 427.424 357.404 432.454C362.797 435.472 369.498 439.224 379.166 443.148C383.513 444.918 388.101 445.773 393.182 445.773C401.372 445.773 409.783 443.49 417.922 441.287C426.142 439.063 434.634 436.76 443.005 436.76C449.444 436.76 455.189 438.108 460.562 440.884C468.923 445.21 473.661 450.954 474.637 457.966C476.619 472.19 462.795 487.572 454.374 495.479C445.238 504.06 438.497 509.1 431.364 514.431C426.696 517.922 421.876 521.534 416.202 526.292C403.726 536.794 391.22 541.261 374.397 541.261Z"
        fill="white" />
    <path
        d="M331.323 425.22C348.971 425.22 353.468 433.901 378.752 444.182C383.551 446.134 388.36 446.889 393.18 446.889C409.811 446.889 426.523 437.875 443.003 437.875C448.718 437.875 454.412 438.961 460.057 441.879C486.699 455.661 468.78 480.458 453.627 494.693C438.465 508.927 429.742 513.525 415.505 525.466C404.438 534.751 392.536 540.143 374.395 540.143C369.204 540.143 363.499 539.7 357.171 538.785C328.687 534.65 329.613 518.575 320.427 508.475C311.241 498.375 280.464 513.987 270.362 486.434C260.261 458.88 280.927 441.879 280.927 441.879C285.525 436.959 306.19 426.719 327.319 425.34C328.717 425.27 330.056 425.22 331.323 425.22ZM331.323 423.017C330.005 423.017 328.597 423.067 327.158 423.157C315.004 423.952 304.098 427.453 297.085 430.25C289.117 433.428 282.204 437.352 279.387 440.289C278.552 441.003 273.652 445.369 269.869 452.834C266.107 460.238 262.776 472.219 268.27 487.198C275.091 505.809 290.626 506.211 303.102 506.533C309.993 506.714 315.96 506.865 318.767 509.963C321.081 512.509 322.741 515.526 324.502 518.725C329.422 527.669 334.986 537.799 356.828 540.968C363.248 541.903 368.992 542.356 374.375 542.356C391.479 542.356 404.197 537.809 416.894 527.156C422.548 522.417 427.358 518.816 432.006 515.335C439.159 509.984 445.931 504.923 455.106 496.302C463.679 488.254 477.754 472.551 475.702 457.834C474.676 450.45 469.735 444.424 461.043 439.927C455.509 437.07 449.603 435.682 442.983 435.672C434.471 435.672 425.899 437.996 417.608 440.239C409.539 442.422 401.198 444.685 393.16 444.685C388.219 444.685 383.772 443.85 379.557 442.14C369.958 438.237 363.278 434.505 357.915 431.507C349.132 426.578 342.763 423.017 331.323 423.017Z"
        fill="#0C1339" />
    <path
        d="M301.505 451.265C301.505 451.265 285.578 464.363 293.365 485.589C301.153 506.815 324.867 494.794 331.94 502.58C339.023 510.366 338.309 522.75 360.252 525.939C382.196 529.128 394.229 524.873 405.206 515.678C416.182 506.473 422.903 502.942 434.584 491.967C446.265 480.992 460.069 461.888 439.535 451.265C419 440.642 397.77 461.526 376.883 453.036C355.996 444.545 353.521 437.463 337.242 438.529C320.973 439.586 305.046 447.473 301.505 451.265Z"
        fill="#D62027" />
    <path
        d="M300.431 495.547L298.338 493.485C305.522 486.212 313.872 477.5 321.398 467.953C329.528 457.672 335.635 447.823 340.072 437.834L342.758 439.021C338.221 449.242 331.993 459.302 323.702 469.774C316.096 479.431 307.675 488.223 300.431 495.547Z"
        fill="#E4F4F3" />
    <path
        d="M324.121 501.061H323.618V499.592L322.713 498.445C340.068 484.814 354.979 467.33 365.815 447.854L368.381 449.283C357.354 469.091 342.191 486.887 324.524 500.749L324.121 501.061Z"
        fill="#E4F4F3" />
    <path
        d="M342.492 518.233L340.49 516.09C351.055 506.211 363.148 494.572 373.018 481.333C379.578 472.521 384.709 463.508 388.281 454.534L391.008 455.621C387.345 464.825 382.083 474.07 375.372 483.084C365.362 496.514 353.157 508.264 342.492 518.233Z"
        fill="#E4F4F3" />
    <path
        d="M370.591 527.818L368.357 525.917C388.017 502.82 403.873 476.845 415.494 448.708L418.211 449.825C406.469 478.244 390.442 504.49 370.591 527.818Z"
        fill="#E4F4F3" />
    <path
        d="M415.481 509.249L412.885 507.881C422.564 489.522 430.945 470.248 437.796 450.591L440.573 451.557C433.671 471.344 425.23 490.76 415.481 509.249Z"
        fill="#E4F4F3" />
    <path
        d="M98.339 267.201C107.177 267.201 114.342 260.037 114.342 251.198C114.342 242.36 107.177 235.195 98.339 235.195C89.5008 235.195 82.3359 242.36 82.3359 251.198C82.3359 260.037 89.5008 267.201 98.339 267.201Z"
        fill="#0DB4A8" />
    <path
        d="M214.605 324.022C223.443 324.022 230.608 316.857 230.608 308.019C230.608 299.18 223.443 292.016 214.605 292.016C205.766 292.016 198.602 299.18 198.602 308.019C198.602 316.857 205.766 324.022 214.605 324.022Z"
        fill="#0DB4A8" />
    <path
        d="M468.042 719.858C476.88 719.858 484.045 712.693 484.045 703.855C484.045 695.016 476.88 687.852 468.042 687.852C459.204 687.852 452.039 695.016 452.039 703.855C452.039 712.693 459.204 719.858 468.042 719.858Z"
        fill="#0DB4A8" />
    <path
        d="M776.999 480.139C785.837 480.139 793.002 472.974 793.002 464.136C793.002 455.298 785.837 448.133 776.999 448.133C768.161 448.133 760.996 455.298 760.996 464.136C760.996 472.974 768.161 480.139 776.999 480.139Z"
        fill="#0DB4A8" />
    <path
        d="M623.788 306.612C622.834 297.779 625.927 287.263 634.295 284.284C644.87 280.524 656.194 290.993 667.116 288.436C673.379 286.971 677.927 281.48 680.821 275.738C683.721 269.99 685.469 263.681 688.805 258.178C694.613 248.595 705.293 242.143 716.478 241.458C727.662 240.773 739.048 245.877 745.98 254.678C735.448 251.022 723.977 258.561 718.045 268.005C712.113 277.443 709.766 288.683 704.772 298.651C699.778 308.618 690.509 317.945 679.369 317.435C670.067 317.014 660.841 309.829 652.236 313.393C646.052 315.956 643.209 323.105 642.045 329.694C640.999 335.587 633.092 365.919 626.463 349.124C624.58 344.356 628.887 334.574 628.487 329.134C627.935 321.504 624.616 314.247 623.788 306.612Z"
        fill="#ED1C24" />
    <path
        d="M696.747 261.582C693.186 266.998 692.319 273.676 690.759 279.967C689.198 286.257 686.453 292.873 680.771 295.991C675.695 298.772 669.466 298.117 663.821 296.849C658.176 295.582 652.464 293.773 646.721 294.504C640.978 295.235 635.148 299.501 634.996 305.289C641.202 302.776 648.144 302.134 654.708 303.462C662.918 305.13 670.692 309.803 679.045 309.11C686.4 308.497 692.885 303.67 697.238 297.701C701.591 291.738 704.135 284.678 706.627 277.727C708.219 273.289 715.652 260.137 712.246 256.063C708.026 251.032 699.179 257.87 696.747 261.582Z"
        fill="#EBB020" />
    <path
        d="M600.025 170.329C596.596 165.025 595.2 157.358 599.562 152.792C605.077 147.026 615.614 150.056 621.733 144.942C625.242 142.01 626.375 137.07 626.378 132.498C626.383 127.921 625.477 123.356 625.837 118.796C626.463 110.854 631.184 103.344 638.068 99.3354C644.952 95.3266 653.814 94.9298 661.028 98.3038C653.172 99.3474 648.296 107.801 647.546 115.693C646.795 123.582 648.897 131.47 648.91 139.396C648.923 147.322 646.018 156.206 638.78 159.442C632.738 162.147 624.583 160.532 620.258 165.546C617.149 169.149 617.628 174.597 618.995 179.154C620.213 183.23 624.884 205.019 615.308 196.472C612.588 194.046 612.198 186.457 610.206 183.13C607.417 178.462 602.99 174.913 600.025 170.329Z"
        fill="#ED1C24" />
    <path
        d="M631.969 118.423C631.439 123 633.021 127.518 634.041 132.011C635.06 136.505 635.431 141.583 632.818 145.379C630.484 148.767 626.318 150.341 622.328 151.34C618.338 152.339 614.133 153.016 610.72 155.315C607.306 157.614 604.967 162.186 606.72 165.91C609.858 162.332 614.061 159.705 618.654 158.452C624.401 156.887 630.831 157.371 635.914 154.261C640.389 151.522 642.965 146.384 643.822 141.203C644.681 136.025 644.041 130.729 643.402 125.518C642.995 122.191 643.513 111.464 640.048 109.965C635.761 108.118 632.327 115.288 631.969 118.423Z"
        fill="#EBB020" />
    <path
        d="M565.889 315.295C561.704 310.565 559.174 303.194 562.802 298.026C567.389 291.497 578.261 292.912 583.544 286.938C586.573 283.514 586.953 278.459 586.27 273.939C585.589 269.413 584.008 265.036 583.68 260.473C583.108 252.527 586.649 244.394 592.854 239.398C599.059 234.402 607.76 232.68 615.399 234.934C607.789 237.144 604.236 246.233 604.678 254.149C605.119 262.062 608.38 269.545 609.582 277.379C610.784 285.213 609.243 294.433 602.573 298.718C597.005 302.299 588.7 301.925 585.176 307.531C582.643 311.56 583.933 316.874 585.968 321.175C587.784 325.022 595.671 345.864 584.921 338.849C581.868 336.859 580.344 329.414 577.875 326.424C574.417 322.226 569.509 319.382 565.889 315.295Z"
        fill="#ED1C24" />
    <path
        d="M589.686 259.184C589.848 263.789 592.091 268.019 593.773 272.308C595.454 276.598 596.583 281.563 594.569 285.708C592.769 289.408 588.887 291.589 585.092 293.175C581.297 294.761 577.241 296.061 574.211 298.846C571.181 301.631 569.554 306.503 571.846 309.922C574.411 305.913 578.173 302.686 582.526 300.757C587.973 298.349 594.403 297.862 598.963 294.026C602.976 290.646 604.752 285.18 604.822 279.929C604.895 274.681 603.467 269.541 602.054 264.485C601.153 261.256 600.056 250.573 596.406 249.61C591.889 248.427 589.57 256.031 589.686 259.184Z"
        fill="#EBB020" />
</svg>
