<svg width="206" height="202" viewBox="0 0 206 202" fill="none" xmlns="http://www.w3.org/2000/svg">
    <g opacity="0.9">
        <path
            d="M186.878 146.963C186.723 144.392 183.021 143.306 180.902 144.77C178.782 146.24 178.127 149.107 178.234 151.683C178.335 154.259 179.019 156.81 178.855 159.381C178.791 160.347 178.563 161.346 178.175 162.253C177.535 163.757 176.439 165.013 174.901 165.479C173.227 165.988 171.399 165.46 169.677 165.707C169.507 165.731 169.337 165.76 169.172 165.804C163.414 167.206 164.127 177.126 158.617 179.314C155.682 180.478 152.364 178.751 150.142 176.515C147.925 174.274 146.257 171.465 143.71 169.607C141.163 167.749 137.176 167.206 135.109 169.588C133.183 171.809 133.93 175.287 135.4 177.834C136.865 180.381 138.966 182.651 139.635 185.513C140.848 190.704 136.521 196.03 131.35 197.306C126.174 198.581 120.678 196.646 116.254 193.672C111.835 190.694 108.187 186.726 104.117 183.287C101.124 180.75 96.0208 178.741 93.8136 181.986C91.3979 185.532 96.045 189.782 96.467 194.055C96.9036 198.523 92.1207 202.2 87.6336 201.992C83.1465 201.788 79.2561 198.8 76.3019 195.414C73.3477 192.033 70.995 188.123 67.7207 185.047C63.0056 180.609 56.7771 178.251 50.9948 175.346C45.2077 172.44 39.4109 168.525 37 162.52C33.9585 154.957 37.0873 146.522 38.465 138.493C40.0803 129.097 39.2314 119.609 37.3299 110.218C35.9571 103.465 34.0458 96.7613 32.1103 90.1786C31.8532 89.3054 31.5961 88.4323 31.339 87.5543C26.9684 72.6475 22.7675 57.2799 24.7903 41.9317C25.6829 35.1502 28.0841 28.5141 31.7805 22.7561C37.2765 14.1943 47.2742 7.37398 56.3114 2.91116C63.1851 -0.484458 71.4559 -0.668792 79.193 1.12119C84.0488 2.23689 88.6959 4.13844 92.6543 6.50567C103.928 13.2533 112.15 24.1532 118.039 35.9457C118.461 36.7752 118.864 37.6144 119.257 38.4536C125.558 51.9197 129.492 66.807 138.917 78.2988C145.311 86.0893 153.819 91.7891 162.032 97.6296C170.244 103.465 178.462 109.742 183.875 118.236C189.289 126.735 191.438 137.979 186.878 146.963Z"
            fill="#CEC0B6" />
        <path
            d="M169.674 165.697C169.504 165.721 169.334 165.75 169.169 165.794C163.411 167.195 164.124 177.116 158.614 179.303C155.679 180.468 152.361 178.741 150.139 176.504C147.922 174.263 146.253 171.455 143.707 169.597C141.16 167.739 137.173 167.196 135.106 169.577C133.18 171.799 133.927 175.277 135.397 177.824C136.862 180.371 138.963 182.641 139.632 185.503C140.845 190.693 136.518 196.019 131.347 197.295C126.171 198.571 120.675 196.636 116.251 193.662C111.832 190.683 108.184 186.715 104.114 183.276C101.121 180.739 96.0177 178.731 93.8105 181.976C91.3948 185.522 96.0419 189.772 96.464 194.045C96.9005 198.513 92.1176 202.19 87.6305 201.981C83.1434 201.777 79.253 198.789 76.2988 195.403C73.3446 192.022 70.9919 188.113 67.7176 185.037C63.0025 180.598 56.774 178.241 50.9917 175.335C45.2046 172.43 39.4078 168.515 36.9969 162.51C33.9554 154.947 37.0842 146.511 38.4619 138.483C41.2414 122.325 36.7301 105.895 32.1072 90.1683C31.8501 89.2951 31.593 88.422 31.3359 87.5439C34.2416 87.8496 36.638 91.056 37.9574 93.9714C42.7113 104.488 44.3557 116.091 46.7666 127.379C49.1775 138.667 52.6119 150.169 60.1551 158.905C62.0372 157.62 63.1675 155.306 63.0219 153.026C64.6082 152.114 66.728 152.779 68.0135 154.084C69.299 155.384 69.9442 157.174 70.5214 158.91C73.8685 168.966 77.3951 180.545 87.0435 184.93C82.9154 173.604 80.9751 161.491 81.3535 149.446C83.614 155.156 85.8745 160.865 88.135 166.575C88.9645 168.66 90.1141 171.033 92.3164 171.484C94.6255 171.959 96.8181 169.839 97.3129 167.535C97.8076 165.231 97.0849 162.864 96.3621 160.618C104.148 170.698 113.68 179.415 124.415 186.269C120.975 177.285 117.541 168.302 114.102 159.318C117.769 161.011 120.845 163.941 122.717 167.516C122.416 164.828 122.125 162.078 122.751 159.449C123.377 156.815 125.113 154.282 127.689 153.463C130.406 152.599 133.413 153.822 135.548 155.713C137.677 157.605 139.161 160.103 140.85 162.398C145.031 168.093 150.653 172.721 157.042 175.733C158.002 173.177 158.992 170.567 160.738 168.466C162.489 166.366 165.167 164.838 167.879 165.182C168.514 165.265 169.111 165.439 169.674 165.697Z"
            fill="#A0968D" />
        <path
            d="M186.878 146.959C186.723 144.388 183.022 143.301 180.902 144.766C178.782 146.236 178.127 149.103 178.234 151.679C178.336 154.255 179.02 156.806 178.855 159.377C178.792 160.342 178.564 161.342 178.176 162.249C178.045 162.084 177.914 161.924 177.783 161.764C175.163 158.562 171.249 155.433 167.29 156.641C163.846 157.689 161.217 161.841 157.725 160.968C155.241 160.347 154.086 157.209 154.809 154.754C155.527 152.3 157.574 150.471 159.675 149.016C161.775 147.555 164.069 146.289 165.738 144.349C169.779 139.649 169.008 132.634 168.008 126.517C167.193 121.55 166.252 116.301 162.93 112.522C159.607 108.748 153.034 107.371 149.633 111.077C147.242 113.682 146.281 118.47 142.75 118.557C140.13 118.62 138.476 115.821 137.535 113.381C134.523 105.605 132.733 97.3536 132.253 89.0295C132.107 86.5216 131.083 83.1017 128.6 83.4752C126.645 83.7663 126.053 86.216 125.597 88.1418C125.141 90.0628 123.448 92.333 121.682 91.4501C114.314 82.1461 115.546 68.9226 117.147 57.1592C118.03 50.6541 118.51 44.2801 118.117 37.7168C118.083 37.1347 118.054 36.5429 118.039 35.9414C118.461 36.7709 118.864 37.6101 119.257 38.4493C125.558 51.9154 129.492 66.8027 138.918 78.2945C145.311 86.085 153.82 91.7848 162.032 97.6253C170.245 103.461 178.462 109.738 183.876 118.232C189.289 126.731 191.438 137.975 186.878 146.959Z"
            fill="#A0968D" />
        <path
            d="M78.3053 5.13772C78.7273 3.36715 75.8799 2.45033 74.444 3.56603C73.0082 4.68659 72.6007 6.63664 71.8391 8.2908C71.0775 9.9401 69.3312 11.5554 67.6431 10.886C65.6542 10.105 65.3535 6.75792 63.2288 6.51537C61.206 6.28738 60.3959 9.03783 60.3376 11.0704C60.1388 18.2206 59.935 25.3659 59.7361 32.5161C56.5443 26.1372 53.3572 19.7583 50.1653 13.3842C51.1306 15.5962 49.9859 18.2012 48.3608 19.9911C46.7406 21.7811 44.6499 23.1248 43.1606 25.0264C36.6847 33.2874 44.645 46.2781 39.8669 55.6258C38.1254 53.0257 36.3791 50.4256 34.6377 47.8255C32.7167 67.5347 46.6339 86.0796 45.329 105.837C45.1932 107.923 44.6935 110.295 42.8793 111.333C41.0699 112.367 39.052 111.586 37.3299 110.218C35.9571 103.465 34.0458 96.7613 32.1103 90.1786C31.8532 89.3055 31.5961 88.4323 31.339 87.5543C26.9684 72.6475 22.7675 57.2799 24.7903 41.9317C25.6829 35.1502 28.0841 28.5141 31.7805 22.7561C37.2765 14.1943 47.2742 7.37398 56.3114 2.91116C63.1851 -0.484458 71.4559 -0.668792 79.193 1.12119C79.1542 2.49884 78.868 3.86194 78.3053 5.13772Z"
            fill="#EDE4DC" />
        <path
            d="M47.2488 54.7539C47.0112 54.8364 46.7686 54.8994 46.5212 54.9382C43.2808 55.5252 39.6523 52.7553 38.1437 48.3944C36.6351 44.0431 37.7653 39.6337 40.6516 38.0717C40.8748 37.9504 41.1125 37.8486 41.3599 37.7612C44.7652 36.5825 48.8448 39.4299 50.4698 44.1208C52.0949 48.8164 50.6542 53.5751 47.2488 54.7539Z"
            fill="#22112D" />
        <path
            d="M46.5212 54.9376C43.2808 55.5245 39.6523 52.7547 38.1437 48.3937C36.6351 44.0425 37.7653 39.633 40.6516 38.0711C43.8872 37.4938 47.5156 40.2588 49.0291 44.6198C50.5377 48.971 49.4075 53.3805 46.5212 54.9376Z"
            fill="#462156" />
        <path
            d="M80.8074 40.1416C80.5697 40.2241 80.3272 40.2871 80.0798 40.3259C76.8394 40.9129 73.2109 38.143 71.7023 33.7821C70.1937 29.4308 71.3239 25.0214 74.2102 23.4594C74.4334 23.3381 74.6711 23.2363 74.9185 23.1489C78.3238 21.9702 82.4034 24.8176 84.0284 29.5084C85.6535 34.2041 84.2128 38.9628 80.8074 40.1416Z"
            fill="#22112D" />
        <path
            d="M80.0798 40.3253C76.8394 40.9122 73.2109 38.1424 71.7023 33.7814C70.1937 29.4302 71.3239 25.0207 74.2102 23.4588C77.4458 22.8815 81.0742 25.6465 82.5877 30.0075C84.0963 34.3587 82.9661 38.7682 80.0798 40.3253Z"
            fill="#462156" />
        <path
            d="M116.297 70.9585C116.098 74.1989 115.739 77.4296 115.215 80.6312C114.701 83.7794 114.012 86.9616 112.435 89.7363C110.859 92.5158 108.268 94.8637 105.135 95.4652C100.832 96.2947 96.3934 93.5733 94.2105 89.7751C92.0276 85.972 91.7559 81.3491 92.2992 76.9979C92.8474 72.6515 94.1425 68.436 94.9187 64.1187C95.3844 61.5235 95.3359 58.9089 95.5639 56.3428C96.3352 57.0025 96.8057 58.0115 97.0822 59.1805C97.7419 61.9941 97.2714 65.7486 97.1744 67.9364C96.9658 72.7388 96.4079 77.58 97.1113 82.3678C97.4751 84.8805 99.0516 87.9366 101.555 87.5291C103.398 87.2284 104.344 85.2056 104.945 83.4398C106.343 79.3457 107.55 75.1836 108.569 70.9779C108.918 69.5178 109.272 68.0043 110.17 66.8013C110.747 66.0348 111.615 65.4285 112.537 65.2296C113.056 65.1132 113.59 65.1277 114.099 65.3169C116.136 66.0688 116.428 68.795 116.297 70.9585Z"
            fill="#462156" />
        <path
            d="M68.9511 60.5674C71.1097 60.8633 73.3217 59.8058 74.7285 58.1419C76.1352 56.4781 76.8095 54.2855 76.9647 52.1123C77.0181 51.3264 76.8871 50.3417 76.1449 50.0701C75.6889 49.9051 75.165 50.1089 74.8206 50.4436C74.4714 50.7831 74.2676 51.2343 74.0736 51.6805C73.5109 52.9612 72.9676 54.2612 72.1624 55.406C70.7022 57.4919 69.1354 57.9236 66.7536 58.0643C63.7946 58.2341 67.7238 60.4024 68.9511 60.5674Z"
            fill="#462156" />
        <path
            d="M112.535 65.2405C112.535 65.5655 112.505 65.9293 112.438 66.3368C111.657 71.047 111.312 75.8833 109.988 80.5013C109.144 83.4458 107.916 86.4388 105.554 88.3889C103.192 90.339 99.4323 90.8725 97.1232 88.8643C95.0083 87.0209 94.7803 83.863 94.853 81.0641C94.9889 75.6602 95.6728 70.2902 96.352 64.9252C96.5897 63.0139 96.8322 61.1027 97.0796 59.1914C97.7393 62.0049 97.2688 65.7595 97.1718 67.9473C96.9632 72.7496 96.4053 77.5908 97.1087 82.3786C97.4725 84.8914 99.0491 87.9475 101.552 87.54C103.395 87.2392 104.341 85.2164 104.943 83.4507C106.34 79.3565 107.548 75.1945 108.567 70.9888C108.916 69.5286 109.27 68.0152 110.167 66.8121C110.745 66.0457 111.613 65.4394 112.535 65.2405Z"
            fill="#22112D" />
        <path
            d="M55.109 90.6128C54.9102 93.8532 54.5512 97.0839 54.0273 100.285C53.5131 103.434 52.8243 106.616 51.2478 109.391C49.6712 112.17 47.0808 114.518 43.9472 115.119C39.6444 115.949 35.2059 113.228 33.023 109.429C30.8401 105.626 30.5684 101.003 31.1117 96.6521C31.6599 92.3058 32.955 88.0903 33.7312 83.773C34.1969 81.1778 34.1484 78.5632 34.3764 75.9971C35.1477 76.6568 35.6182 77.6658 35.8947 78.8348C36.5544 81.6484 36.0839 85.4029 35.9869 87.5907C35.7783 92.3931 35.2204 97.2343 35.9238 102.022C36.2876 104.535 37.8641 107.591 40.3672 107.183C42.2105 106.883 43.1565 104.86 43.758 103.094C45.155 99 46.3629 94.8379 47.3816 90.6322C47.7309 89.1721 48.085 87.6586 48.9824 86.4556C49.5596 85.6891 50.4279 85.0828 51.3496 84.8839C51.8687 84.7675 52.4023 84.782 52.9116 84.9712C54.949 85.7231 55.24 88.4493 55.109 90.6128Z"
            fill="#462156" />
        <path
            d="M51.3529 84.8713C51.3529 85.1963 51.3238 85.5601 51.2559 85.9676C50.4749 90.6778 50.1305 95.5142 48.8062 100.132C47.9621 103.077 46.7348 106.07 44.3724 108.02C42.0101 109.97 38.2507 110.503 35.9416 108.495C33.8266 106.652 33.5986 103.494 33.6714 100.695C33.8072 95.291 34.4912 89.9211 35.1703 84.556C35.408 82.6448 35.6506 80.7335 35.898 78.8223C36.5577 81.6358 36.0871 85.3904 35.9901 87.5781C35.7815 92.3805 35.2237 97.2217 35.9271 102.01C36.2909 104.522 37.8674 107.578 40.3705 107.171C42.2138 106.87 43.1598 104.847 43.7613 103.082C45.1583 98.9874 46.3662 94.8253 47.3849 90.6196C47.7341 89.1595 48.0882 87.646 48.9856 86.443C49.5629 85.6766 50.4312 85.0702 51.3529 84.8713Z"
            fill="#22112D" />
        <path
            d="M139.73 84.1046C140.065 88.7954 143.063 93.0836 147.084 95.5187C151.106 97.9539 156.029 98.6573 160.696 98.0557C164.693 97.5367 168.525 96.1105 172.508 95.5042C176.491 94.8978 180.91 95.2325 184.009 97.8132C183.068 92.7004 179.362 88.1842 174.536 86.2584C170.325 84.58 165.372 84.7304 161.671 82.1109C159.692 80.709 158.29 78.6522 156.83 76.7167C154.322 73.3987 149.898 69.4792 145.518 72.1569C141.884 74.3786 139.439 80.0298 139.73 84.1046Z"
            fill="#462156" />
        <path
            d="M130.503 22.9766C130.706 25.8678 132.56 28.5115 135.038 30.0153C137.517 31.519 140.554 31.9508 143.43 31.5773C145.895 31.2571 148.257 30.3791 150.716 30.0056C153.171 29.6321 155.897 29.8406 157.808 31.4269C157.226 28.2738 154.946 25.4894 151.968 24.3009C149.373 23.2628 146.317 23.3599 144.037 21.7445C142.814 20.8811 141.951 19.615 141.049 18.4168C139.501 16.3697 136.775 13.954 134.073 15.6081C131.832 16.9809 130.323 20.4639 130.503 22.9766Z"
            fill="#462156" />
        <path
            d="M178.434 62.0557C178.638 64.9469 180.491 67.5906 182.97 69.0944C185.449 70.5981 188.485 71.0299 191.362 70.6564C193.826 70.3362 196.189 69.4582 198.648 69.0847C201.107 68.7112 203.829 68.9197 205.74 70.506C205.158 67.3529 202.878 64.5685 199.9 63.38C197.304 62.3419 194.248 62.439 191.968 60.8236C190.746 59.9602 189.882 58.6941 188.98 57.4959C187.433 55.4488 184.707 53.0331 182.005 54.6872C179.764 56.06 178.255 59.543 178.434 62.0557Z"
            fill="#462156" />
        <path
            d="M0.0234198 134.177C0.358131 138.868 3.35597 143.156 7.38221 145.591C11.4036 148.026 16.3272 148.73 20.9938 148.128C24.9909 147.609 28.8231 146.183 32.8057 145.576C36.7883 144.97 41.2075 145.305 44.3072 147.885C43.3661 142.773 39.66 138.256 34.8334 136.331C30.6228 134.652 25.6701 134.803 21.9688 132.183C19.9897 130.781 18.5878 128.724 17.1276 126.789C14.6197 123.471 10.1957 119.551 5.81538 122.229C2.18207 124.456 -0.267633 130.102 0.0234198 134.177Z"
            fill="#462156" />
        <path
            d="M132.858 18.4137C132.47 19.0589 132.412 19.869 132.591 20.6015C132.771 21.3339 133.173 21.9937 133.654 22.5758C135.094 24.3221 137.316 25.4038 139.577 25.4572C140.047 25.4669 140.556 25.4281 140.92 25.1273C141.425 24.7102 141.478 23.9534 141.357 23.3131C141.139 22.1634 140.489 21.0963 139.567 20.3783C138.694 19.6992 137.607 19.3305 136.753 18.632C136.428 18.3652 136.142 18.0547 135.793 17.8171C134.774 17.1234 133.503 17.3271 132.858 18.4137Z"
            fill="#F3E5F0" />
        <path
            d="M139.38 29.0742C139.899 29.0111 140.461 28.7298 140.568 28.2204C140.665 27.7548 140.335 27.2988 139.952 27.0126C139.36 26.5711 138.633 26.382 137.915 26.251C137.308 26.1394 136.392 25.8387 135.79 26.0278C134.024 26.576 136.479 28.201 137.1 28.5406C137.793 28.9238 138.579 29.1712 139.38 29.0742Z"
            fill="#F3E5F0" />
        <path
            d="M143.014 78.5357C142.185 80.3014 142.393 82.4601 143.364 84.153C144.334 85.846 145.993 87.0781 147.826 87.7427C149.369 88.3005 151.081 88.5043 152.411 89.4648C153.109 89.9693 153.652 90.6532 154.239 91.2838C154.826 91.9145 155.491 92.516 156.316 92.7731C157.135 93.035 158.144 92.8701 158.668 92.1861C159.299 91.3663 159.022 90.1778 158.586 89.2416C157.776 87.4953 156.51 85.977 155.049 84.7206C153.745 83.5952 152.178 82.5037 151.838 80.8156C151.702 80.1414 151.785 79.4331 151.664 78.754C151.305 76.8088 149.388 76.0181 147.647 75.7173C145.75 75.3875 143.776 76.9058 143.014 78.5357Z"
            fill="#F3E5F0" />
        <path
            d="M163.673 90.2966C164.183 90.4421 164.813 90.4906 165.163 90.0929C165.386 89.8358 165.424 89.4525 165.327 89.1275C165.23 88.8025 165.022 88.5163 164.804 88.2592C164.115 87.454 163.246 86.7846 162.267 86.3771C161.65 86.12 159.904 85.4797 159.521 86.3868C159.22 87.1047 160.35 88.0797 160.777 88.5115C161.602 89.3313 162.548 89.9716 163.673 90.2966Z"
            fill="#F3E5F0" />
        <path
            d="M168.757 93.654C168.99 93.7122 169.232 93.7607 169.465 93.7074C169.698 93.654 169.921 93.4697 169.94 93.232C170.008 92.4461 168.344 92.092 167.825 92.3879C166.768 92.9943 168.194 93.5133 168.757 93.654Z"
            fill="#F3E5F0" />
        <path
            d="M163.368 93.52C163.562 93.486 163.756 93.3599 163.809 93.1658C163.906 92.8408 163.596 92.5401 163.295 92.3849C162.815 92.1375 161.481 91.5796 161.432 92.4673C161.394 93.2435 162.805 93.6218 163.368 93.52Z"
            fill="#F3E5F0" />
        <path
            d="M167.219 88.8112C167.811 89.34 168.606 89.6359 169.397 89.6262C169.634 89.6213 169.877 89.5922 170.081 89.471C170.285 89.3545 170.445 89.1314 170.435 88.8986C170.425 88.6415 170.212 88.4232 169.974 88.3213C169.736 88.2243 169.47 88.2146 169.208 88.2146C168.296 88.2 167.389 88.1903 166.477 88.1758"
            fill="#F3E5F0" />
        <path
            d="M8.63481 140.5C9.82813 142.126 11.9092 143.513 13.7622 142.732C15.2078 142.126 15.8917 140.433 15.9985 138.871C16.2361 135.373 13.2577 129.295 8.89678 130.027C4.29329 130.794 6.87879 138.109 8.63481 140.5Z"
            fill="#F3E5F0" />
        <path
            d="M21.1519 140.132C21.4915 140.728 22.0396 141.17 22.6023 141.563C23.3445 142.077 24.1304 142.533 24.9502 142.911C25.6438 143.231 26.4588 143.503 27.1525 143.188C28.0159 142.795 28.2779 141.602 27.9092 140.723C27.5405 139.845 26.7207 139.249 25.8767 138.807C24.9502 138.322 23.9509 137.973 22.9274 137.779C21.3266 137.478 20.2836 138.613 21.1519 140.132Z"
            fill="#F3E5F0" />
        <path
            d="M184.625 57.2904C183.47 56.199 181.345 56.8199 180.623 58.2363C179.9 59.6528 180.37 61.4525 181.384 62.6749C182.398 63.8973 183.863 64.6541 185.318 65.2847C186.109 65.6291 187.05 65.9396 187.802 65.5224C188.714 65.013 188.825 63.7373 188.622 62.7137C188.137 60.2543 186.448 58.0617 184.193 56.9606"
            fill="#F3E5F0" />
    </g>
</svg>
