<svg width="203" height="165" viewBox="0 0 203 165" fill="none" xmlns="http://www.w3.org/2000/svg">
<mask id="mask0_5_4220" style="mask-type:alpha" maskUnits="userSpaceOnUse" x="11" y="10" width="183" height="145">
<path d="M70.0715 154.932C66.3973 154.932 63.0954 152.689 61.7408 149.274L11.6991 23.1051C9.3656 17.2218 13.7006 10.8389 20.0298 10.8389H76.6419C80.6614 10.8389 84.1893 13.5151 85.2724 17.386L93.4236 46.5164C95.8609 55.2267 108.2 55.2529 110.674 46.5531L118.98 17.3493C120.076 13.4967 123.595 10.8389 127.6 10.8389H184.242C190.571 10.8389 194.907 17.2218 192.573 23.1051L142.531 149.274C141.177 152.689 137.875 154.932 134.201 154.932H70.0715Z" fill="white"/>
</mask>
<g mask="url(#mask0_5_4220)">
<rect x="7" y="10.999" width="190" height="144" fill="#D9D9D9"/>
</g>
</svg>
