<svg width="1045" height="679" viewBox="0 0 1045 679" fill="none" xmlns="http://www.w3.org/2000/svg">
<mask id="mask0_4_599" style="mask-type:alpha" maskUnits="userSpaceOnUse" x="0" y="0" width="1045" height="679">
<path d="M879.402 199.012C873.396 199.012 867.479 199.342 861.639 199.95C831.748 121.861 755.457 66.3475 666.052 66.3475C642.411 66.3475 619.678 70.2368 598.483 77.3945C554.978 29.8749 492.122 0.0151367 422.209 0.0151367C305.385 0.0151367 208.244 83.3613 188.24 193.223C181.017 192.273 173.653 191.766 166.174 191.766C74.9373 191.766 0.977539 264.939 0.977539 355.19C0.977539 445.44 70.6342 514.256 158.131 518.411C189.457 593.548 264.223 646.439 351.489 646.439C400.156 646.439 444.928 629.996 480.455 602.416C518.786 649.138 577.3 678.997 642.872 678.997C740.819 678.997 823.026 612.374 845.733 522.44C856.606 524.669 867.863 525.835 879.402 525.835C970.639 525.835 1044.6 452.674 1044.6 362.424C1044.6 272.173 970.639 199.012 879.402 199.012Z" fill="#EBEBEB"/>
</mask>
<g mask="url(#mask0_4_599)">
<path d="M1079.18 59.74H35.5557V756.828H1079.18V59.74Z" fill="#F1F9D2"/>
<rect x="1" y="0.00012207" width="1044" height="679" fill="#080808"/>
</g>
</svg>
