<svg width="673" height="1506" viewBox="0 0 673 1506" fill="none"
    xmlns="http://www.w3.org/2000/svg">
    <path
        d="M632.505 0H0V1506H571.225C571.225 1506 606.789 1448.58 606.789 1426.61C606.789 1404.63 583.809 1376.67 583.809 1359.19C583.809 1341.72 632.505 1323.24 632.505 1303.27C632.505 1283.3 606.789 1291.29 606.789 1270.81V1214.89C606.789 1196.41 632.505 1144.98 632.505 1144.98C632.505 1144.98 643.448 1105.03 632.505 1091.05C621.562 1077.07 589.828 1128 583.809 1114.52C577.79 1101.04 566.847 1062.09 571.225 1047.11C575.602 1032.13 632.505 1069.08 632.505 1056.1V1005.17C632.505 986.19 583.809 997.675 583.809 981.696C583.809 965.718 632.505 981.696 632.505 967.715V895.81C632.505 873.84 583.809 880.83 583.809 860.857C583.809 840.883 632.505 743.013 632.505 723.04V644.145C632.505 625.17 583.809 637.653 583.809 620.676C583.809 603.698 627.034 559.757 632.505 543.778C637.977 527.799 672.447 506.328 672.995 490.349C673.542 474.37 632.505 490.349 632.505 473.871C632.505 457.393 657.674 414.45 657.674 392.479C657.674 370.508 607.337 354.529 606.789 336.553C606.242 318.577 657.674 300.601 657.674 285.121C657.674 269.642 632.505 258.656 632.505 243.177C632.505 227.698 657.674 220.707 657.674 203.729C657.674 186.752 582.715 195.74 583.809 178.263C584.903 160.786 625.393 120.84 632.505 110.353C639.618 99.8674 657.674 85.3866 657.674 70.9058C657.674 56.4251 606.789 58.4224 606.789 42.943C606.789 27.4635 632.505 0 632.505 0Z"
        fill="#E8E8E8" />
</svg>
