<svg width="706" height="795" viewBox="0 0 706 795" fill="none" xmlns="http://www.w3.org/2000/svg">
    <path
        d="M667.855 512.686L410.982 10.355C410.982 10.355 359.473 26.1997 354.604 26.9403C349.735 27.6808 331.371 37.9462 327.258 45.2967C323.146 52.6471 310.052 68.0886 305.924 73.698C301.796 79.3073 285.33 106.968 281.54 111.53C277.751 116.091 264.413 143.027 262.349 145.832C260.285 148.636 239.746 149.519 235.618 155.128C231.489 160.737 222.295 183.805 216.458 192.912C210.62 202.02 193.382 221.329 190.609 222.748C187.836 224.166 179.099 220.762 172.786 222.101C166.474 223.44 156.653 241.86 154.605 246.406C152.556 250.952 142.59 265.668 139.124 267.441C135.657 269.214 125.321 281.496 122.548 282.914C119.775 284.332 85.5672 275.587 81.0529 277.021C76.5386 278.455 41.7543 289.106 41.7543 289.106L292.969 780.372C292.969 780.372 325.001 762.628 331.794 760.519C338.586 758.41 350.23 736.713 355.438 734.925C360.646 733.136 380.151 731.943 390.058 730.794C399.966 729.646 422.955 730.135 431.629 726.574C440.303 723.013 440.658 723.706 450.348 717.002C460.038 710.297 463.182 711.313 470.729 698.708C478.277 686.103 480.601 673.545 483.65 664.114C486.699 654.684 504.322 639.55 507.757 634.295C511.192 629.04 542.777 617.262 550.757 614.056C558.738 610.849 576.149 610.692 580.648 607.517C585.146 604.342 583.57 584.158 586.651 578.21C589.731 572.261 609.143 562.335 615.659 551.132C622.174 539.929 630.864 538.109 636.04 532.838C641.216 527.568 667.855 512.686 667.855 512.686Z"
        fill="#E8E8E8" />
</svg>
