<svg width="1130" height="658" viewBox="0 0 1130 658" fill="none"
    xmlns="http://www.w3.org/2000/svg">
    <path
        d="M32.6245 590.111C32.6245 590.602 50.6025 610.551 50.6025 600.595C50.6025 606.063 69.7429 590.3 69.7429 603.838C69.7429 610.815 87.5316 618.621 87.5316 611.154C87.5316 607.496 105.753 616.471 105.753 605.988C105.753 608.741 123.596 602.104 123.596 596.786C123.596 601.538 142.087 593.694 142.087 585.699C142.087 581.362 163.823 595.768 163.823 592.072C163.823 603.122 182.639 591.092 182.639 585.133C182.639 586.491 201.698 584.832 201.698 575.14C201.698 575.743 222.11 566.957 222.11 567.371C222.11 570.275 242.25 574.31 242.25 574.046C242.25 566.617 258.822 584.945 258.822 582.72C258.822 585.36 276.07 591.733 276.07 587.472C276.07 589.998 290.129 603.273 290.129 603.763C290.129 602.556 309.35 614.36 309.35 612.059C309.35 613.077 327.247 624.579 327.247 627.973C327.247 619.865 347.063 632.235 347.063 634.271C347.063 640.154 368.285 631.33 368.285 629.595C368.285 621.148 387.291 653.202 387.291 640.871C387.291 640.682 408.026 633.894 408.026 638.08C408.026 642.643 427.707 639.325 427.707 642.04C427.707 643.548 446.496 662.819 446.496 656.86C446.496 657.501 466.934 654.937 466.934 653.579C466.934 640.456 486.913 642.832 486.913 644.943C486.913 640.116 507.838 657.501 507.838 655.729C507.838 659.048 527.302 641.248 527.302 645.849C527.302 642.379 547.632 643.85 547.632 642.907C547.632 646.188 566.8 631.933 566.8 633.479C566.8 629.18 584.129 612.059 584.129 617.678C584.129 620.28 601.62 602.895 601.62 603.725C601.62 605.422 620.463 601.349 620.463 594.26C620.463 597.05 641.686 588.641 641.686 591.054C641.686 590.903 654.284 567.371 654.284 563.977C654.284 571.142 673.451 561.338 673.451 554.814C673.451 558.434 690.807 544.368 690.807 540.86C690.807 535.505 710.083 544.858 710.083 542.935C710.083 546.442 723.519 522.231 723.519 530.867C723.519 522.495 738.821 528.34 738.821 528.981C738.821 529.358 758.853 519.742 758.853 515.632C758.853 514.651 775.182 537.089 775.182 537.127C775.182 540.785 794.566 546.215 794.566 543.236C794.566 537.58 814.734 532.79 814.734 537.504C814.734 535.015 834.198 539.88 834.198 537.353C834.198 530.188 852.501 534.487 852.501 532.715C852.501 538.673 868.235 532.036 868.235 537.881C868.235 542.784 875.237 561.413 875.237 560.169C875.237 557.944 897.973 552.098 897.973 559.98C897.973 563.864 916.924 580.231 916.924 579.25C916.924 576.648 938.227 567.635 938.227 574.537C938.227 576.648 958.909 566.466 958.909 568.39C958.909 573.368 979.779 570.728 979.779 562.959C979.779 565.26 999.785 550.929 999.785 559.113C999.785 552.023 1017.65 576.988 1017.65 577.252C1017.65 579.967 1035.88 572.726 1035.88 585.775C1035.88 578.383 1056.85 586.378 1056.85 580.08C1056.85 582.494 1073.75 601.613 1073.75 596.296C1073.75 606.742 1094.95 585.36 1094.95 590.224C1094.95 569.068 1112.9 591.356 1112.9 600.444C1112.9 597.767 1130.33 610.061 1130.33 618.697C1130.33 617.791 1150.5 613.756 1150.5 612.323C1150.5 616.547 1171.7 620.582 1171.7 615.152C1171.7 609.721 1176.08 585.925 1176.08 586.303C1176.08 582.003 1182.67 564.543 1182.67 560.47C1182.67 566.768 1177.54 530.829 1177.54 531.81C1177.54 532.488 1180.65 503.941 1180.65 505.336C1180.65 502.131 1188.89 481.465 1188.89 479.429C1188.89 483.275 1183.59 451.786 1183.59 451.786L1187.05 425.087L1184.51 398.161L1186.3 371.273L1185.05 344.422L1183.48 317.61L1190 289.364L1178.75 264.248L1177.7 237.171L1171.54 211.452L1171.62 183.697L1162.72 159.071L1162.34 130.976L1156.64 104.993L1142.88 83.3471L1144.1 53.3666L1126.31 35.9063L1122.6 5.4733L1105.25 -5.08586L1087.67 -9.49808L1070.67 -14.7777L1050.66 -13.8726L1030.77 -11.723L1011.3 -18.3225L991.512 -17.7191L971.804 -27.2978L951.988 -16.7764L932.145 -26.3927L912.734 -22.5839L893.296 -23.1873L873.912 -13.6463L854.447 -24.8843L835.01 -26.6944L815.599 -19.4916L796.161 -22.5085L776.777 -14.5514L757.339 -15.2679L737.928 -12.3641L718.464 -21.3394L699.026 -22.0937L679.642 -13.2692L660.231 -13.1184L640.766 -25.45L621.356 -22.9233L601.918 -25.4877L582.534 -13.1184L563.096 -14.0611L543.658 -21.9428L524.248 -16.9272L504.837 -11.7608L485.642 -20.5852L466.475 -24.5072L447.307 -16.6632L428.167 -23.2627L408.891 -11.1574L389.751 -15.1925L370.718 -21.6788L351.632 -23.9792L332.059 -15.3433L313.73 -32.5774L294.103 -25.9779L275.557 -34.5007L256.47 -35.8583L237.519 -39.3654L218.135 -36.7256L199.671 -50L180.26 -46.1912L161.011 -49.4343L141.79 -45.9649L120.325 -41.2133L98.9132 -36.8011L77.5559 -32.1249L57.2529 -20.6606L39.4642 -16.6632L21.6214 -13.0052L2.91353 -14.9285L-14.4156 -7.83878L-32.1503 -3.46428L-53.1561 24.8569L-63.9969 52.7255L-66.4571 80.5565L-62.6723 108.878L-63.7266 136.784L-66.9707 164.577L-71.0259 192.408L-62.2397 220.729L-74.216 248.372L-66.5652 276.504L-66.8356 304.448L-75 332.468L-62.1316 360.789L-63.8077 389.299L-71.107 418.072L-70.9989 446.62L-59.9958 474.526C-59.9958 474.526 -62.9426 506.505 -62.9426 502.697C-62.9426 503.526 -61.5368 528.491 -61.5368 530.339C-61.5368 531.885 -71.107 557.303 -71.107 558.358C-71.107 557.265 -68.5117 593.166 -68.5117 586.416C-68.5117 589.659 -58.9145 614.02 -58.9145 612.399C-58.9145 607.345 -39.4496 598.182 -39.4496 598.898C-39.4496 598.332 -18.7411 589.395 -18.7411 583.286C-18.7411 581.626 -1.00648 590.149 -1.00648 586.981C-1.00648 586.189 15.9171 578.685 15.9171 585.473C15.9171 582.758 32.5975 582.418 32.5975 589.998L32.6245 590.111Z"
        fill="#E8E8E8" />
</svg>
