<svg width="740" height="722" viewBox="0 0 740 722" fill="none" xmlns="http://www.w3.org/2000/svg">
    <path
        d="M391.41 14.5485L452.986 170.397C457.395 181.561 469.649 187.458 481.147 183.934L641.51 134.873C661.483 128.761 678.614 150.226 668.213 168.33L584.649 313.607C578.657 324.017 581.698 337.266 591.594 344.044L729.969 438.714C747.189 450.508 741.089 477.276 720.432 480.423L554.653 505.735C542.776 507.551 534.301 518.176 535.165 530.149L547.365 697.27C548.876 718.07 524.117 729.989 508.786 715.841L385.616 602.078C376.799 593.934 363.196 593.934 354.379 602.078L231.209 715.805C215.878 729.971 191.101 718.052 192.63 697.234L204.83 530.113C205.712 518.14 197.218 507.515 185.342 505.699L19.5632 480.387C-1.076 477.241 -7.19396 450.454 10.0264 438.678L148.401 344.008C158.315 337.23 161.338 323.981 155.346 313.572L71.8 168.33C61.3994 150.244 78.5298 128.779 98.5032 134.873L258.866 183.934C270.346 187.44 282.6 181.543 287.027 170.397L348.603 14.5485C356.25 -4.84948 383.745 -4.84948 391.41 14.5485Z"
        fill="#E8E8E8" />
</svg>
