<svg width="556" height="622" viewBox="0 0 556 622" fill="none" xmlns="http://www.w3.org/2000/svg">
    <path
        d="M55.1197 613.268C60.3575 613.072 65.1548 609.841 69.9031 607.981C76.071 605.582 80.7704 600.589 86.9873 598.582C91.7846 597.016 97.414 598.044 102.26 598.876C108.281 599.904 114.351 600.736 120.421 600.785C122.575 600.785 123.603 600.638 125.61 599.806C127.911 598.827 130.261 598.974 132.659 598.386C135.547 597.701 137.554 596.869 140.589 597.799C142.841 598.484 144.75 600.051 147.1 600.54C150.527 601.275 154.492 600.687 157.967 600.736C162.96 600.785 167.807 600.491 172.555 598.827C175.149 597.897 177.597 596.477 180.436 596.869C184.059 597.358 185.821 601.617 188.513 603.771C191.499 606.17 193.898 606.512 197.618 606.512C200.555 606.512 203.199 606.855 205.891 605.582C208.388 604.407 210.59 602.89 213.479 603.037C218.276 603.233 223.073 605.974 227.919 606.561C229.388 606.708 231.101 606.561 232.57 606.561C236.584 606.561 237.906 605.876 240.892 603.233C245.493 599.17 250.095 595.596 256.458 595.156C261.892 594.764 266.836 601.128 271.486 603.233C276.969 605.68 284.214 605.582 290.137 605.582C297.48 605.582 304.186 605.876 311.137 602.939C313.83 601.813 316.277 600.834 319.165 600.296C322.054 599.757 324.795 600.198 327.438 598.876C330.082 597.505 331.697 595.449 334.977 596.037C338.11 596.575 340.019 599.268 341.83 601.617C344.18 604.75 347.46 607.296 350.397 609.841C351.278 610.575 353.579 613.219 354.655 613.121C355.684 613.023 356.222 611.701 357.054 611.114C357.935 610.478 359.012 609.988 360.089 609.694C364.348 608.519 369.635 608.764 373.943 608.324C380.257 607.638 386.474 606.512 392.691 605.338C396.656 604.603 400.376 604.652 404.391 604.652C406.251 604.652 408.502 604.946 410.363 604.701C412.663 604.408 413.691 602.939 415.649 601.96C422.013 598.631 425.538 611.065 430.776 606.268C435.573 601.911 437.286 594.372 445.118 595.645C450.895 596.575 451.972 603.282 453.734 607.785C455.007 610.967 456.084 611.31 458.776 609.547C461.762 607.54 462.3 604.75 466.07 603.918C470.231 602.988 474.196 602.743 478.455 602.792C483.399 602.792 487.804 602.694 492.602 603.82C497.742 604.995 502.245 603.526 507.14 602.156C511.203 601.03 512.329 598.484 514.434 595.205C518.203 589.477 526.036 595.449 529.169 600.002C529.169 598.68 529.266 597.358 529.218 596.184C529.12 593.442 529.854 592.414 531.518 590.407C532.742 588.939 534.162 587.47 533.966 585.463C533.721 583.162 531.273 580.47 530.197 578.414C526.525 571.463 526.819 565.442 529.56 558.05C530.931 554.33 530.588 549.728 529.266 546.008C527.749 541.651 527.896 536.169 528.385 531.518C528.63 529.218 529.707 527.504 530.148 525.35C530.49 523.686 530.245 521.973 530.001 520.357C529.071 514.043 526.672 508.119 525.644 501.854C525.35 500.042 525.008 497.203 525.546 495.441C526.378 492.797 528.63 492.21 530.833 491.182C533.427 489.958 534.847 488.734 535.826 486.091C537.05 482.811 535.777 481 534.553 477.965C533.525 475.42 532.84 472.825 531.812 470.28C531.078 468.517 530.392 466.657 530.197 464.748C529.805 460.832 531.322 459.51 532.889 456.279C534.749 452.461 534.113 447.566 534.064 443.503C534.064 440.615 533.672 437.727 535.092 435.132C537.344 430.971 541.455 428.377 545.127 425.685C548.407 423.335 550.952 419.125 554.819 417.754C557.071 412.174 554.721 406.887 551.442 402.188C548.602 398.125 551.197 395.579 553.889 392.202C556.19 389.264 556.533 388.383 555.113 384.908C554.134 382.607 554.085 381.677 553.742 379.131C553.351 376.047 551.442 373.208 550.561 370.222C550.071 368.558 550.169 367.089 550.071 365.572C549.337 364.593 548.553 363.565 547.868 362.586C546.008 360.04 543.56 357.201 542.777 354.019C542.141 351.376 542.875 348.928 543.365 346.334C543.707 344.571 544.148 341.488 543.609 339.725C542.532 336.103 536.903 333.655 534.162 331.452C530.441 328.515 523.441 326.019 523.637 320.438C523.735 317.55 526.378 313.781 527.308 310.942C529.12 305.459 530.539 299.83 531.518 294.102C531.959 291.606 533.232 288.326 532.938 285.78C532.644 283.235 530.05 279.808 528.043 278.536C526.085 277.263 523.099 276.186 522.511 273.542C522.217 272.27 523.148 270.752 523.539 269.675C524.665 266.738 526.28 263.997 527.406 261.011C530.099 253.962 531.959 243.927 529.56 236.633C528.728 234.136 525.693 231.444 525.399 228.801C525.155 226.304 527.259 223.367 527.798 220.821C528.287 218.423 528.238 216.171 528.238 213.723C528.238 211.618 527.504 208.535 528.385 206.625C530.197 202.66 536.756 201.975 537.833 197.422C538.469 194.828 536.756 192.674 534.749 191.206C531.91 189.15 528.63 188.66 526.672 185.429C525.203 183.031 523.294 179.751 523.245 176.912C523.245 173.338 525.644 169.618 526.966 166.387C527.896 164.135 529.12 161.981 530.001 159.73C531.225 156.646 531.078 153.464 531.225 150.184C531.469 144.457 532.742 138.68 531.91 132.953C531.127 127.862 529.413 122.918 528.434 117.827C527.651 113.715 527.064 110.827 524.91 107.155C522.707 103.288 521.336 100.008 520.259 95.7007C519.525 92.7146 519.77 91.0013 521.679 88.4069C524.812 84.1481 529.022 81.162 525.057 75.7773C522.462 72.2528 519.036 69.6584 515.609 66.966C513.749 65.4975 509.49 62.903 509.294 60.1617C509.147 58.3505 510.959 56.7351 512.084 55.7071C515.413 52.77 519.133 50.4693 522.609 47.8259C527.798 43.9097 525.791 40.1894 523.931 34.7558C522.805 31.5249 521.728 27.9515 521.532 24.4759C521.189 18.7975 521.434 13.1191 521.581 7.39172C519.036 6.60849 515.952 5.09098 513.945 4.01404C513.504 3.76928 513.063 3.47557 512.672 3.18186C510.371 3.67138 508.168 3.72033 505.623 3.62243C501.658 3.47557 498.965 0.979036 495.343 0.0489529C491.769 0.489519 488.734 1.37065 485.161 2.34969C482.371 3.08396 478.552 4.30775 475.517 4.01404C475.273 4.1609 475.077 4.25881 474.832 4.35671C471.259 6.02107 467.245 5.43365 463.426 5.4826C457.161 5.5805 452.657 2.88815 447.37 0C445.412 1.17484 443.601 2.20283 440.957 2.69235C438.461 3.13291 435.867 2.93711 433.419 2.30073C433.419 2.30073 433.419 2.30074 433.419 2.34969C430.824 6.07002 429.454 12.9233 425.342 15.4688C422.894 16.9863 419.957 16.9373 417.167 16.9373C415.209 16.9373 413.496 16.9863 411.537 16.4967C409.237 15.9093 407.67 14.6366 405.614 13.6575C401.6 11.8463 397.195 11.5037 393.229 13.5107C390.88 14.6855 388.971 16.3988 387.013 18.1122C385.25 19.6786 383.145 23.0563 380.6 22.6157C378.593 22.2731 376.929 20.315 375.362 19.287C373.845 18.3569 371.152 17.231 369.39 17.0352C366.355 16.6926 364.789 18.6996 362.733 20.7066C359.698 23.6437 356.369 26.2381 352.795 28.5389C349.565 30.5949 345.257 32.6998 341.439 33.2872C338.893 33.6788 335.907 33.2383 333.362 33.2872C330.669 33.2872 326.264 34.1683 323.914 32.7977C322.739 32.1124 321.858 29.8606 320.585 29.5179C319.068 29.0774 317.061 32.0634 315.935 32.8466C311.137 36.1264 303.99 39.2104 298.312 40.581C287.151 43.2734 275.011 36.1264 268.109 27.5598C264.535 23.1052 259.836 23.2031 254.549 22.322C250.437 21.6367 245.591 21.0982 242.018 23.7416C240.843 24.5738 240.108 25.8465 238.64 26.2871C235.507 27.2172 232.276 25.406 229.682 23.7416C226.157 21.4898 222.388 19.1891 218.08 18.9443C212.598 18.6506 208.583 21.3919 203.737 23.5948C200.017 25.2591 196.248 26.2382 192.772 28.441C190.178 30.0564 187.436 31.8187 185.185 33.8746C180.289 38.3782 172.261 37.1544 166.436 34.8537C163.156 33.5809 161.002 31.427 158.065 29.5669C154.198 27.1682 152.338 29.8606 150.429 33.3362C148.911 36.1264 147.492 38.9656 144.163 39.9446C140.785 40.8747 135.645 40.3363 132.17 40.1405C126.981 39.8467 120.079 38.8677 116.211 35.3432C112.834 32.2592 109.652 28.8815 106.274 25.8465C102.799 22.7626 99.7147 22.8115 95.407 24.2801C90.9034 25.8465 88.8964 28.6368 85.6166 31.5739C81.9453 34.8047 75.8752 32.2592 71.8612 30.5459C64.3716 27.364 57.4694 21.294 48.9518 21.0003C46.2105 20.9024 44.5461 23.301 42.0985 24.329C39.7978 25.2591 37.2033 25.7976 34.7068 25.8955C28.3431 26.1402 22.4689 24.5738 16.6926 21.9793C14.6855 21.0982 12.6785 20.0213 10.6715 19.1401C7.73438 17.9163 4.94413 18.1122 1.95807 18.4059L5.6784 37.2523C8.51761 39.4062 8.4197 42.8817 9.30083 45.8678C10.182 49.0986 13.1191 51.1056 14.1471 54.4344C15.0771 57.5183 14.1471 61.5813 14.2939 64.7632C14.5387 69.3157 19.238 72.3018 20.0213 77.0501C20.315 78.9103 19.7765 80.4278 20.6087 82.19C21.4898 84.0502 23.1542 84.9803 23.9864 86.9383C25.6018 90.8545 25.3081 93.7916 22.0772 96.5329C17.8184 100.155 12.8743 103.386 11.3568 109.065C10.5736 112.051 12.0911 113.323 14.1471 115.526C15.3219 116.799 18.1122 119.1 18.0632 121.009C18.0632 122.33 16.6436 123.505 16.203 124.778C15.2729 127.47 16.5946 128.596 18.6506 130.603C20.7555 132.659 22.8605 133.54 21.0493 136.331C19.4339 138.876 17.4758 140.687 16.203 143.576C13.9512 148.667 15.6156 153.415 18.259 157.967C19.1891 159.632 20.8045 161.786 20.7066 163.842C20.5597 166.632 17.7205 168.198 19.0422 171.086C20.5597 174.366 24.4759 175.198 25.2102 179.017C25.8465 182.443 24.2801 186.213 23.6437 189.541C23.1052 192.429 22.8605 195.22 22.9584 198.157C23.1052 202.513 26.336 205.402 23.4968 209.416C21.7835 211.863 18.6996 212.598 16.8884 214.8C15.4688 216.514 15.3709 218.863 15.3219 221.017C15.3219 223.367 14.8813 225.521 16.3988 227.479C18.2101 229.78 20.3639 231.738 22.0283 234.234C23.4479 236.339 25.7486 238.346 26.6298 240.696C27.5109 242.997 27.7556 245.297 27.7067 247.696C27.7067 250.927 27.9515 254.255 27.7557 257.486C27.5109 261.696 24.8185 266.053 22.9094 269.626C20.8045 273.591 17.5247 277.752 20.0213 282.158C21.2451 284.312 22.9094 285.878 22.322 288.522C21.4898 292.242 19.238 294.494 19.0912 298.606C19.0912 300.025 18.7485 302.032 19.0912 303.403C19.5807 305.557 21.6856 306.34 22.8115 308.102C23.9374 309.914 23.5948 311.872 23.8395 313.781C24.5248 318.872 28.6857 325.138 31.7697 329.103C33.7767 331.648 36.3222 334.096 35.539 337.669C34.8537 340.9 31.0844 342.369 28.8815 344.474C25.7976 347.362 22.1751 351.621 20.9514 355.635C19.1891 361.46 23.2031 366.257 25.9444 371.201C28.2941 375.411 24.4759 377.32 22.7136 380.894C20.7555 384.908 22.8115 389.313 23.9374 393.278C24.8185 396.313 25.5528 399.251 26.5808 402.237C27.4619 404.782 28.0004 406.985 27.1682 409.677C26.385 412.223 24.0843 413.251 23.1052 415.356C22.1262 417.412 24.2801 421.279 25.0144 423.139C26.2381 426.272 27.8536 428.915 29.7627 431.706C31.1823 433.762 33.1403 435.818 32.504 438.461C32.1613 439.881 30.9865 440.86 30.399 442.181C29.5179 444.188 29.469 446.293 29.2242 448.447C28.9794 450.601 28.5389 452.706 28.2452 454.811C28.0004 456.475 28.2452 458.629 27.7067 460.196C26.2871 464.063 21.8814 466.461 21.9304 470.965C21.9304 473.706 23.301 476.888 23.9864 479.58C25.9444 487.217 25.2591 496.224 24.9164 504.007C24.6227 510.812 22.7626 517.665 21.8325 524.42C21.2451 528.777 19.4338 532.987 19.1401 537.393C18.8954 540.574 18.7975 544.344 19.287 547.477C19.9234 551.686 20.4618 555.015 17.9653 559.029C13.5596 565.98 0.587422 569.162 2.88815 579.099C3.57348 582.183 6.85325 584.582 8.90922 586.981C11.0631 589.477 12.7275 591.827 13.2659 595.107C14.196 600.638 8.86027 605.631 4.74832 608.568C1.86016 610.673 1.95807 612.974 1.02799 616.499C0.685325 617.869 0.342662 619.191 0 620.562C1.86017 620.562 3.76928 620.562 5.62945 620.562C11.161 620.464 13.5596 618.701 17.8674 615.715C20.9514 613.562 24.7206 613.806 27.4619 616.303C29.1753 617.869 29.6648 619.876 31.8676 620.953C34.1194 622.079 37.0565 622.079 39.5041 621.932C41.1195 621.834 42.5391 621.345 43.9587 620.757C44.1545 614.149 49.8818 613.757 55.0707 613.561L55.1197 613.268Z"
        fill="#E8E8E8" />
</svg>
