<svg width="225" height="207" viewBox="0 0 225 207" fill="none" xmlns="http://www.w3.org/2000/svg">
<mask id="mask0_4_670" style="mask-type:alpha" maskUnits="userSpaceOnUse" x="0" y="0" width="225" height="207">
<path d="M123.449 206.457C100.103 206.457 79.1186 202.566 60.4969 194.783C42.1532 187.001 27.5616 175.606 16.7221 160.597C5.88264 145.311 0.462891 126.55 0.462891 104.316C0.462891 72.9088 9.77371 47.7557 28.3954 28.8561C47.295 9.95649 75.3664 0.506714 112.61 0.506714C146.518 0.506714 173.617 8.84476 193.906 25.5209C214.195 42.197 224.34 65.9605 224.34 96.8113V118.29C224.34 125.078 218.837 130.58 212.049 130.58H116.894C107.057 130.58 103.667 140.059 113.027 143.087V143.087C122.754 145.867 135.261 147.257 150.548 147.257C163.055 147.257 175.145 146.284 186.818 144.338C190.572 143.623 194.067 142.894 197.303 142.15C205.667 140.228 214.334 146.405 214.334 154.986V183.714C214.334 188.441 211.647 192.8 207.243 194.518C186.829 202.477 158.898 206.457 123.449 206.457ZM95.9868 68.5134C92.1939 74.1428 98.1012 80.1352 104.889 80.1352H134.289C136.361 80.1352 138.041 78.4553 138.041 76.383V76.383C138.041 72.4919 136.512 68.8788 133.455 65.5436C130.398 61.9304 124.561 60.1238 115.945 60.1238C107.607 60.1238 101.631 62.0694 98.0182 65.9604C97.2619 66.7749 96.5848 67.6259 95.9868 68.5134Z" fill="white"/>
</mask>
<g mask="url(#mask0_4_670)">
<rect x="-28.2178" y="-69.1414" width="282.688" height="344.141" fill="#D9D9D9"/>
</g>
</svg>
