<svg width="640" height="638" viewBox="0 0 640 638" fill="none" xmlns="http://www.w3.org/2000/svg">
    <path
        d="M310.75 4.60957C315.485 -1.33309 324.515 -1.3331 329.25 4.60956L348.476 28.7412C352.471 33.7559 359.735 34.6735 364.852 30.81L389.475 12.2179C395.539 7.63936 404.285 9.88501 407.393 16.8184L420.014 44.9733C422.637 50.8241 429.444 53.5192 435.361 51.0496L463.835 39.1652C470.847 36.2386 478.76 40.5888 480.046 48.0773L485.269 78.4863C486.354 84.8055 492.277 89.1089 498.622 88.1884L529.157 83.7585C536.676 82.6676 543.259 88.849 542.642 96.4221L540.138 127.175C539.618 133.565 544.285 139.206 550.66 139.893L581.337 143.196C588.891 144.009 593.73 151.633 591.249 158.815L581.176 187.979C579.083 194.039 582.2 200.664 588.204 202.914L617.096 213.742C624.211 216.409 627.001 224.997 622.812 231.336L605.803 257.078C602.268 262.428 603.64 269.619 608.896 273.292L634.187 290.965C640.416 295.317 640.983 304.329 635.349 309.428L612.472 330.131C607.718 334.434 607.258 341.741 611.436 346.605L631.537 370.012C636.487 375.777 634.795 384.647 628.071 388.184L600.764 402.548C595.089 405.533 592.827 412.496 595.663 418.246L609.312 445.917C612.673 452.732 608.828 460.902 601.435 462.656L571.414 469.778C565.176 471.258 561.253 477.439 562.57 483.714L568.908 513.91C570.469 521.347 564.713 528.304 557.117 528.164L526.268 527.596C519.857 527.478 514.52 532.49 514.235 538.896L512.865 569.719C512.528 577.31 505.222 582.618 497.899 580.593L468.16 572.371C461.98 570.662 455.564 574.19 453.696 580.323L444.703 609.838C442.489 617.106 434.093 620.43 427.503 616.648L400.743 601.288C395.182 598.096 388.091 599.917 384.756 605.393L368.706 631.744C364.753 638.233 355.794 639.365 350.352 634.063L328.253 612.531C323.661 608.057 316.339 608.057 311.747 612.531L289.648 634.063C284.206 639.365 275.247 638.233 271.294 631.744L255.244 605.393C251.909 599.917 244.818 598.097 239.257 601.288L212.497 616.648C205.907 620.43 197.511 617.106 195.297 609.838L186.304 580.323C184.436 574.19 178.02 570.662 171.84 572.371L142.101 580.593C134.778 582.618 127.472 577.31 127.135 569.719L125.765 538.896C125.48 532.49 120.143 527.478 113.732 527.596L82.8834 528.164C75.2865 528.304 69.5307 521.347 71.0916 513.91L77.43 483.714C78.7472 477.439 74.8242 471.258 68.5856 469.778L38.5645 462.656C31.1715 460.902 27.3267 452.732 30.6879 445.917L44.3367 418.246C47.173 412.496 44.9106 405.533 39.236 402.548L11.9292 388.184C5.20463 384.647 3.51259 375.777 8.4628 370.012L28.5643 346.605C32.7416 341.741 32.2819 334.434 27.5279 330.131L4.65113 309.428C-0.982505 304.329 -0.415515 295.317 5.81271 290.965L31.1039 273.292C36.3596 269.619 37.7315 262.428 34.1969 257.078L17.1876 231.336C12.9989 224.997 15.7893 216.409 22.9042 213.742L51.7959 202.914C57.7999 200.664 60.9172 194.039 58.8239 187.979L48.7508 158.815C46.2702 151.633 51.1087 144.009 58.6632 143.196L89.3402 139.893C95.7151 139.206 100.382 133.565 99.8616 127.175L97.3577 96.4221C96.7411 88.849 103.324 82.6675 110.843 83.7585L141.378 88.1884C147.723 89.1089 153.646 84.8055 154.731 78.4863L159.954 48.0773C161.24 40.5888 169.153 36.2386 176.165 39.1652L204.639 51.0496C210.556 53.5192 217.363 50.8241 219.986 44.9733L232.607 16.8184C235.715 9.88501 244.461 7.63936 250.525 12.2179L275.148 30.81C280.265 34.6735 287.529 33.7559 291.524 28.7412L310.75 4.60957Z"
        fill="#E8E8E8" />
</svg>
