<svg width="835" height="754" viewBox="0 0 835 754" fill="none" xmlns="http://www.w3.org/2000/svg">
    <path
        d="M803.416 109.116L803.418 109.12C851.255 207.126 831.884 317.912 743.682 439.277L743.677 439.283L743.672 439.29C674.234 535.457 574.579 631.328 430.095 743.581L430.086 743.588C426.443 746.43 421.955 747.974 417.335 747.974C412.715 747.974 408.228 746.43 404.585 743.588L404.577 743.582C259.851 631.083 160.437 534.421 90.9843 439.271C2.52433 317.908 -16.8441 207.125 30.9916 109.12L30.9936 109.116C64.762 39.7843 162.444 -17.2674 277.316 15.6761C332.081 31.5038 379.863 65.4439 412.855 111.952L417.205 118.084L421.554 111.952C454.548 65.4417 502.333 31.5006 557.101 15.6738L557.108 15.6718L557.115 15.6698C671.693 -17.774 769.638 39.7649 803.416 109.116Z"
        stroke="#B68F6E" stroke-width="10.6658" />
</svg>
