<svg width="713" height="632" viewBox="0 0 713 632" fill="none" xmlns="http://www.w3.org/2000/svg">
    <path
        d="M104.46 393.84L104.418 393.801L104.376 393.763C-9.41222 290.807 -13.9497 153.139 42.1972 73.1307C70.2242 33.1926 113.388 7.45222 166.215 6.9888C219.164 6.52431 282.748 31.4632 351.207 94.8733L352.998 96.5317H355.438H357.528H359.969L361.76 94.8725C430.22 31.4385 493.804 6.4823 546.754 6.93535C599.582 7.38735 642.749 33.1217 670.782 73.0599C726.941 153.069 722.426 290.762 608.684 393.764L608.642 393.802L608.602 393.84L365.901 621.712C365.901 621.712 365.9 621.712 365.9 621.713C360.602 626.685 352.46 626.685 347.161 621.713C347.161 621.712 347.161 621.712 347.161 621.712L104.46 393.84Z"
        stroke="#8BA4C8" stroke-width="12.4523" />
</svg>
