<svg width="655" height="669" viewBox="0 0 655 669" fill="none" xmlns="http://www.w3.org/2000/svg">
    <path fill-rule="evenodd" clip-rule="evenodd"
        d="M654.651 0H0V669H654.651V0ZM632.232 25.1099H32.284V591.877H632.232V25.1099Z"
        fill="white" />
    <path
        d="M177.557 641.577C177.043 641.577 176.646 641.425 176.365 641.122C176.085 640.841 175.945 640.129 175.945 638.984C175.945 637.932 176.132 636.565 176.505 634.883C176.879 633.177 177.382 631.285 178.012 629.205C178.643 627.125 179.356 624.976 180.15 622.756C180.945 620.513 181.774 618.316 182.639 616.167C183.527 613.994 184.38 612.008 185.197 610.209C185.501 609.554 185.817 609.099 186.144 608.842C186.471 608.585 186.856 608.456 187.3 608.456C187.604 608.456 187.861 608.55 188.071 608.736C188.305 608.9 188.422 609.18 188.422 609.578C188.422 609.718 188.27 610.173 187.966 610.945C187.686 611.716 187.289 612.732 186.775 613.994C186.284 615.256 185.735 616.669 185.127 618.235C184.52 619.8 183.901 621.448 183.27 623.177C182.639 624.906 182.043 626.646 181.482 628.399C180.922 630.128 180.443 631.787 180.045 633.376C179.648 634.965 179.379 636.39 179.239 637.652C179.8 636.974 180.443 636.11 181.167 635.058C181.891 634.007 182.662 632.873 183.48 631.658C184.298 630.443 185.127 629.24 185.969 628.048C186.81 626.857 187.639 625.77 188.457 624.789C189.275 623.807 190.034 623.025 190.735 622.441C191.46 621.833 192.09 621.529 192.628 621.529C193.516 621.529 194.228 621.81 194.766 622.37C195.327 622.908 195.607 623.796 195.607 625.034C195.607 625.735 195.467 626.576 195.186 627.558C194.929 628.539 194.626 629.567 194.275 630.642C193.925 631.717 193.609 632.745 193.329 633.726C193.072 634.708 192.943 635.549 192.943 636.25C192.943 637.208 193.305 637.687 194.03 637.687C195.151 637.687 196.273 637.441 197.394 636.951C198.539 636.46 199.626 635.853 200.654 635.128C201.682 634.381 202.628 633.633 203.493 632.885C204.357 632.114 205.093 631.46 205.701 630.922C206.355 630.338 206.904 630.046 207.348 630.046C207.909 630.046 208.189 630.338 208.189 630.922C208.189 631.086 208.154 631.273 208.084 631.483C208.014 631.693 207.827 631.962 207.524 632.289C207.15 632.71 206.612 633.259 205.911 633.937C205.234 634.614 204.439 635.339 203.528 636.11C202.64 636.881 201.67 637.605 200.619 638.283C199.591 638.96 198.528 639.521 197.429 639.965C196.355 640.386 195.303 640.596 194.275 640.596C192.873 640.596 191.787 640.199 191.016 639.404C190.268 638.586 189.894 637.465 189.894 636.039C189.894 635.152 190.034 634.077 190.315 632.815C190.595 631.553 190.945 630.221 191.366 628.819C191.81 627.394 192.254 626.004 192.698 624.649C191.95 625.163 191.132 625.934 190.244 626.962C189.38 627.967 188.469 629.112 187.511 630.397C186.553 631.658 185.595 632.944 184.637 634.252C183.702 635.56 182.791 636.776 181.903 637.897C181.038 638.995 180.232 639.883 179.485 640.561C178.737 641.238 178.094 641.577 177.557 641.577ZM207.337 640.911C206.449 640.911 205.713 640.502 205.128 639.685C204.568 638.843 204.287 637.757 204.287 636.425C204.287 635.187 204.591 633.96 205.199 632.745C205.829 631.53 206.659 630.362 207.687 629.24C208.715 628.118 209.837 627.09 211.052 626.156C212.267 625.198 213.482 624.368 214.697 623.667C215.935 622.966 217.068 622.417 218.097 622.02C219.125 621.623 219.942 621.424 220.55 621.424C220.877 621.424 221.146 621.494 221.356 621.634C221.566 621.751 221.671 621.973 221.671 622.3C221.671 622.511 221.59 622.709 221.426 622.896C221.45 622.896 221.473 622.896 221.496 622.896C222.01 622.896 222.267 623.2 222.267 623.807C222.267 624.018 222.186 624.45 222.022 625.104C221.858 625.735 221.671 626.53 221.461 627.488C221.251 628.446 221.064 629.509 220.9 630.677C220.737 631.822 220.655 632.99 220.655 634.182C220.655 635.187 221.041 635.689 221.812 635.689C222.676 635.689 223.552 635.49 224.44 635.093C225.328 634.696 226.193 634.217 227.034 633.656C227.875 633.072 228.646 632.5 229.347 631.939C230.048 631.355 230.644 630.864 231.135 630.467C231.625 630.07 231.976 629.871 232.186 629.871C232.373 629.871 232.537 629.929 232.677 630.046C232.817 630.163 232.887 630.35 232.887 630.607C232.887 630.841 232.653 631.261 232.186 631.869C231.719 632.476 231.1 633.165 230.329 633.937C229.557 634.708 228.693 635.455 227.735 636.18C226.777 636.904 225.796 637.5 224.791 637.967C223.786 638.434 222.828 638.668 221.917 638.668C221.216 638.668 220.573 638.458 219.989 638.037C219.428 637.593 218.973 636.846 218.622 635.794C218.295 634.743 218.132 633.294 218.132 631.448V630.572C216.987 632.465 215.783 634.194 214.522 635.759C213.283 637.325 212.045 638.575 210.806 639.509C209.591 640.444 208.435 640.911 207.337 640.911ZM219.884 623.948C219.767 623.994 219.604 624.064 219.393 624.158C218.318 624.649 217.197 625.256 216.029 625.98C214.884 626.705 213.762 627.511 212.664 628.399C211.589 629.287 210.619 630.21 209.755 631.168C208.89 632.126 208.201 633.095 207.687 634.077C207.173 635.058 206.916 636.016 206.916 636.951C206.916 637.255 206.974 637.488 207.091 637.652C207.231 637.815 207.465 637.897 207.792 637.897C208.259 637.897 208.867 637.605 209.615 637.021C210.362 636.413 211.18 635.619 212.068 634.638C212.979 633.656 213.891 632.57 214.802 631.378C215.713 630.186 216.578 628.983 217.396 627.768C218.237 626.553 218.961 625.431 219.569 624.403C219.662 624.24 219.767 624.088 219.884 623.948ZM234.014 639.124C233.663 639.124 233.313 638.867 232.962 638.353C232.635 637.839 232.39 637.114 232.226 636.18C232.063 635.198 231.911 634.077 231.771 632.815C231.631 631.553 231.514 630.315 231.42 629.1C231.327 627.885 231.257 626.81 231.21 625.875C231.163 624.941 231.14 624.31 231.14 623.983C231.14 622.768 231.327 621.868 231.701 621.284C232.098 620.676 232.6 620.373 233.208 620.373C233.628 620.373 233.932 620.49 234.119 620.723C234.306 620.933 234.399 621.424 234.399 622.195C234.399 622.709 234.411 623.375 234.434 624.193C234.458 625.011 234.493 625.899 234.54 626.857C234.586 628.002 234.633 629.217 234.68 630.502C234.727 631.764 234.762 633.014 234.785 634.252C235.346 633.317 235.988 632.278 236.713 631.133C237.46 629.988 238.22 628.819 238.991 627.628C239.762 626.413 240.51 625.256 241.234 624.158C241.958 623.06 242.601 622.102 243.162 621.284C243.722 620.466 244.155 619.87 244.458 619.496C244.856 619.029 245.218 618.702 245.545 618.515C245.895 618.328 246.199 618.235 246.456 618.235C246.807 618.235 247.087 618.363 247.297 618.62C247.531 618.877 247.648 619.239 247.648 619.707C247.648 619.987 247.589 620.303 247.473 620.653C247.379 620.98 247.204 621.319 246.947 621.669C246.316 622.627 245.557 623.749 244.669 625.034C243.781 626.319 242.858 627.651 241.9 629.03C240.942 630.408 240.007 631.752 239.096 633.06C238.185 634.345 237.39 635.479 236.713 636.46C235.521 638.236 234.621 639.124 234.014 639.124ZM262.325 624.894C262.325 625.642 262.091 626.378 261.624 627.102C261.157 627.803 260.538 628.481 259.767 629.135C258.995 629.766 258.143 630.362 257.208 630.922C256.273 631.483 255.339 631.974 254.404 632.394C253.469 632.815 252.617 633.154 251.845 633.411C251.659 634.322 251.565 635.128 251.565 635.829C251.565 636.273 251.67 636.589 251.881 636.776C252.091 636.962 252.418 637.056 252.862 637.056C253.843 637.056 254.883 636.881 255.981 636.53C257.079 636.18 258.201 635.724 259.346 635.163C260.491 634.602 261.589 634.007 262.641 633.376C263.692 632.745 264.65 632.149 265.515 631.588C266.402 631.028 267.138 630.572 267.723 630.221C268.307 629.871 268.692 629.696 268.879 629.696C269.16 629.696 269.37 629.789 269.51 629.976C269.674 630.14 269.755 630.338 269.755 630.572C269.755 630.759 269.463 631.121 268.879 631.658C268.318 632.196 267.559 632.827 266.601 633.551C265.643 634.252 264.568 634.976 263.377 635.724C262.185 636.472 260.946 637.173 259.661 637.827C258.4 638.481 257.173 639.007 255.981 639.404C254.813 639.801 253.761 640 252.827 640C251.612 640 250.666 639.544 249.988 638.633C249.31 637.722 248.971 636.308 248.971 634.392C248.971 633.107 249.135 631.81 249.462 630.502C249.813 629.193 250.28 627.943 250.864 626.752C251.472 625.537 252.138 624.462 252.862 623.527C253.61 622.569 254.392 621.821 255.21 621.284C256.028 620.723 256.822 620.443 257.593 620.443C259.066 620.443 260.222 620.852 261.063 621.669C261.904 622.487 262.325 623.562 262.325 624.894ZM252.582 630.712C253.306 630.268 254.054 629.801 254.825 629.31C255.596 628.819 256.308 628.317 256.963 627.803C257.617 627.289 258.143 626.752 258.54 626.191C258.96 625.607 259.171 625.011 259.171 624.403C259.171 623.539 258.703 623.106 257.769 623.106C257.185 623.106 256.565 623.48 255.911 624.228C255.28 624.952 254.673 625.899 254.089 627.067C253.504 628.235 253.002 629.45 252.582 630.712ZM285.546 640.911C284.658 640.911 283.922 640.502 283.338 639.685C282.777 638.843 282.497 637.757 282.497 636.425C282.497 635.187 282.801 633.96 283.408 632.745C284.039 631.53 284.868 630.362 285.896 629.24C286.925 628.118 288.046 627.09 289.261 626.156C290.476 625.198 291.691 624.368 292.906 623.667C294.145 622.966 295.278 622.417 296.306 622.02C297.334 621.623 298.152 621.424 298.759 621.424C299.087 621.424 299.355 621.494 299.566 621.634C299.776 621.751 299.881 621.973 299.881 622.3C299.881 622.511 299.799 622.709 299.636 622.896C299.659 622.896 299.682 622.896 299.706 622.896C300.22 622.896 300.477 623.2 300.477 623.807C300.477 624.018 300.395 624.45 300.231 625.104C300.068 625.735 299.881 626.53 299.671 627.488C299.46 628.446 299.273 629.509 299.11 630.677C298.946 631.822 298.865 632.99 298.865 634.182C298.865 635.187 299.25 635.689 300.021 635.689C300.886 635.689 301.762 635.49 302.65 635.093C303.538 634.696 304.402 634.217 305.243 633.656C306.085 633.072 306.856 632.5 307.557 631.939C308.258 631.355 308.853 630.864 309.344 630.467C309.835 630.07 310.185 629.871 310.396 629.871C310.583 629.871 310.746 629.929 310.886 630.046C311.026 630.163 311.097 630.35 311.097 630.607C311.097 630.841 310.863 631.261 310.396 631.869C309.928 632.476 309.309 633.165 308.538 633.937C307.767 634.708 306.902 635.455 305.944 636.18C304.986 636.904 304.005 637.5 303 637.967C301.996 638.434 301.038 638.668 300.126 638.668C299.425 638.668 298.783 638.458 298.199 638.037C297.638 637.593 297.182 636.846 296.832 635.794C296.505 634.743 296.341 633.294 296.341 631.448V630.572C295.196 632.465 293.993 634.194 292.731 635.759C291.493 637.325 290.254 638.575 289.016 639.509C287.801 640.444 286.644 640.911 285.546 640.911ZM298.093 623.948C297.977 623.994 297.813 624.064 297.603 624.158C296.528 624.649 295.406 625.256 294.238 625.98C293.093 626.705 291.972 627.511 290.873 628.399C289.799 629.287 288.829 630.21 287.964 631.168C287.1 632.126 286.411 633.095 285.896 634.077C285.382 635.058 285.125 636.016 285.125 636.951C285.125 637.255 285.184 637.488 285.301 637.652C285.441 637.815 285.675 637.897 286.002 637.897C286.469 637.897 287.076 637.605 287.824 637.021C288.572 636.413 289.39 635.619 290.278 634.638C291.189 633.656 292.1 632.57 293.011 631.378C293.923 630.186 294.787 628.983 295.605 627.768C296.446 626.553 297.171 625.431 297.778 624.403C297.871 624.24 297.977 624.088 298.093 623.948ZM327.311 639.194C326.633 639.194 326.026 638.808 325.488 638.037C324.951 637.266 324.682 636.273 324.682 635.058C324.682 633.726 324.857 632.301 325.208 630.782C325.582 629.263 326.037 627.721 326.575 626.156C327.112 624.567 327.638 623.036 328.152 621.564C328.269 621.261 328.432 621.039 328.643 620.898C328.876 620.735 329.227 620.653 329.694 620.653C330.535 620.653 330.956 621.062 330.956 621.88C330.956 622.067 330.862 622.487 330.675 623.142C330.489 623.796 330.243 624.602 329.939 625.56C329.659 626.518 329.367 627.558 329.063 628.679C328.759 629.777 328.491 630.887 328.257 632.009C328.023 633.13 327.86 634.17 327.766 635.128C328.14 634.731 328.561 634.123 329.028 633.306C329.519 632.488 330.045 631.565 330.605 630.537C331.166 629.485 331.75 628.434 332.358 627.382C332.965 626.308 333.573 625.326 334.18 624.438C334.811 623.527 335.419 622.803 336.003 622.265C336.61 621.705 337.171 621.424 337.685 621.424C338.433 621.424 339.064 621.658 339.578 622.125C340.115 622.569 340.524 623.364 340.805 624.508C341.108 625.63 341.26 627.219 341.26 629.275C341.26 630.373 341.365 631.401 341.576 632.359C341.809 633.317 342.171 634.088 342.662 634.673C343.176 635.233 343.83 635.514 344.625 635.514C345.817 635.514 346.88 635.303 347.814 634.883C348.749 634.439 349.555 633.948 350.233 633.411C350.934 632.85 351.518 632.359 351.985 631.939C352.452 631.495 352.815 631.273 353.072 631.273C353.609 631.273 353.878 631.553 353.878 632.114C353.878 632.348 353.703 632.722 353.352 633.236C353.025 633.726 352.558 634.287 351.95 634.918C351.366 635.525 350.688 636.121 349.917 636.705C349.17 637.266 348.363 637.734 347.499 638.107C346.658 638.481 345.805 638.668 344.94 638.668C343.328 638.668 342.008 638.353 340.98 637.722C339.975 637.091 339.227 636.051 338.737 634.602C338.269 633.154 338.036 631.214 338.036 628.784C338.036 627.453 337.954 626.483 337.79 625.875C337.65 625.244 337.381 624.824 336.984 624.614C336.704 625.104 336.342 625.805 335.898 626.717C335.454 627.604 334.94 628.597 334.356 629.696C333.795 630.794 333.199 631.904 332.568 633.025C331.961 634.123 331.341 635.14 330.71 636.075C330.08 637.009 329.472 637.769 328.888 638.353C328.304 638.913 327.778 639.194 327.311 639.194ZM352.735 640.175C352.291 640.175 351.894 640.012 351.543 639.685C351.193 639.334 351.017 638.797 351.017 638.072C351.017 637.558 351.088 636.846 351.228 635.934C351.368 635 351.555 633.983 351.788 632.885C352.022 631.787 352.267 630.7 352.525 629.626C352.805 628.527 353.085 627.546 353.366 626.681C353.646 625.817 353.891 625.174 354.102 624.754C354.289 624.427 354.464 624.216 354.627 624.123C354.814 624.029 354.99 623.983 355.153 623.983C355.48 623.983 355.761 624.088 355.994 624.298C356.251 624.508 356.38 624.917 356.38 625.525C356.38 625.875 356.31 626.459 356.17 627.277C356.053 628.072 355.889 629.006 355.679 630.081C355.492 631.133 355.282 632.219 355.048 633.341C354.838 634.439 354.627 635.49 354.417 636.495C354.207 637.5 354.043 638.341 353.926 639.019C353.833 639.392 353.669 639.685 353.436 639.895C353.225 640.082 352.992 640.175 352.735 640.175ZM356.17 620.793C355.632 620.793 355.118 620.63 354.627 620.303C354.16 619.975 353.926 619.45 353.926 618.725C353.926 618.118 354.067 617.627 354.347 617.253C354.651 616.879 355.001 616.611 355.399 616.447C355.819 616.26 356.181 616.167 356.485 616.167C356.789 616.167 357.128 616.237 357.501 616.377C357.899 616.494 358.237 616.728 358.518 617.078C358.798 617.405 358.938 617.896 358.938 618.55C358.938 618.994 358.787 619.391 358.483 619.742C358.179 620.069 357.805 620.326 357.361 620.513C356.941 620.7 356.543 620.793 356.17 620.793ZM366.768 640.491C365.623 640.491 364.63 640.234 363.789 639.72C362.971 639.182 362.34 638.493 361.897 637.652C361.453 636.811 361.231 635.946 361.231 635.058C361.231 633.189 361.558 631.483 362.212 629.941C362.866 628.375 363.684 626.997 364.665 625.805C365.67 624.59 366.698 623.562 367.75 622.721C368.825 621.88 369.794 621.249 370.659 620.828C371.547 620.384 372.178 620.162 372.551 620.162C373.299 620.162 373.673 620.536 373.673 621.284C373.673 621.634 373.439 622.043 372.972 622.511C372.505 622.955 371.909 623.48 371.184 624.088C370.46 624.695 369.689 625.385 368.871 626.156C368.053 626.903 367.282 627.756 366.558 628.714C365.834 629.649 365.238 630.7 364.771 631.869C364.303 633.014 364.07 634.275 364.07 635.654C364.07 637.056 364.642 637.757 365.787 637.757C366.838 637.757 367.913 637.558 369.011 637.161C370.133 636.764 371.231 636.25 372.306 635.619C373.404 634.965 374.456 634.287 375.46 633.586C376.465 632.885 377.376 632.219 378.194 631.588C379.012 630.934 379.701 630.408 380.262 630.011C380.823 629.614 381.22 629.415 381.454 629.415C381.921 629.415 382.155 629.672 382.155 630.186C382.155 630.584 381.886 631.109 381.349 631.764C380.811 632.418 380.087 633.13 379.176 633.902C378.264 634.673 377.248 635.455 376.126 636.25C375.005 637.021 373.872 637.734 372.727 638.388C371.582 639.019 370.483 639.533 369.432 639.93C368.404 640.304 367.516 640.491 366.768 640.491ZM394.819 624.894C394.819 625.642 394.585 626.378 394.118 627.102C393.651 627.803 393.032 628.481 392.261 629.135C391.489 629.766 390.637 630.362 389.702 630.922C388.767 631.483 387.833 631.974 386.898 632.394C385.963 632.815 385.111 633.154 384.34 633.411C384.153 634.322 384.059 635.128 384.059 635.829C384.059 636.273 384.164 636.589 384.375 636.776C384.585 636.962 384.912 637.056 385.356 637.056C386.337 637.056 387.377 636.881 388.475 636.53C389.573 636.18 390.695 635.724 391.84 635.163C392.985 634.602 394.083 634.007 395.135 633.376C396.186 632.745 397.144 632.149 398.009 631.588C398.896 631.028 399.632 630.572 400.217 630.221C400.801 629.871 401.186 629.696 401.373 629.696C401.654 629.696 401.864 629.789 402.004 629.976C402.168 630.14 402.249 630.338 402.249 630.572C402.249 630.759 401.957 631.121 401.373 631.658C400.812 632.196 400.053 632.827 399.095 633.551C398.137 634.252 397.062 634.976 395.871 635.724C394.679 636.472 393.441 637.173 392.155 637.827C390.894 638.481 389.667 639.007 388.475 639.404C387.307 639.801 386.256 640 385.321 640C384.106 640 383.16 639.544 382.482 638.633C381.804 637.722 381.466 636.308 381.466 634.392C381.466 633.107 381.629 631.81 381.956 630.502C382.307 629.193 382.774 627.943 383.358 626.752C383.966 625.537 384.632 624.462 385.356 623.527C386.104 622.569 386.886 621.821 387.704 621.284C388.522 620.723 389.316 620.443 390.088 620.443C391.56 620.443 392.716 620.852 393.557 621.669C394.399 622.487 394.819 623.562 394.819 624.894ZM385.076 630.712C385.8 630.268 386.548 629.801 387.319 629.31C388.09 628.819 388.802 628.317 389.457 627.803C390.111 627.289 390.637 626.752 391.034 626.191C391.454 625.607 391.665 625.011 391.665 624.403C391.665 623.539 391.197 623.106 390.263 623.106C389.679 623.106 389.059 623.48 388.405 624.228C387.774 624.952 387.167 625.899 386.583 627.067C385.999 628.235 385.496 629.45 385.076 630.712ZM429.501 622.37C430.132 620.852 430.728 619.286 431.288 617.674C431.873 616.062 432.398 614.414 432.866 612.732C433.006 612.265 433.216 611.891 433.497 611.61C433.8 611.307 434.151 611.155 434.548 611.155C434.828 611.155 435.062 611.26 435.249 611.47C435.459 611.681 435.564 611.961 435.564 612.311C435.564 612.755 435.389 613.526 435.039 614.625C434.712 615.723 434.291 617.113 433.777 618.795C433.286 620.478 432.784 622.417 432.27 624.614C431.779 626.787 431.359 629.193 431.008 631.834C430.681 634.474 430.517 637.29 430.517 640.28C430.517 640.935 430.377 641.472 430.097 641.893C429.816 642.337 429.478 642.559 429.08 642.559C428.847 642.559 428.625 642.5 428.414 642.383C428.204 642.266 428.017 641.986 427.854 641.542C427.714 641.122 427.597 640.456 427.503 639.544C427.41 638.61 427.363 637.348 427.363 635.759C427.363 634.544 427.433 633.224 427.573 631.799C426.498 633.738 425.33 635.432 424.068 636.881C422.83 638.306 421.627 639.404 420.458 640.175C419.313 640.946 418.332 641.332 417.514 641.332C416.51 641.332 415.692 640.993 415.061 640.315C414.453 639.661 414.15 638.68 414.15 637.371C414.15 636.226 414.418 635.046 414.956 633.831C415.493 632.616 416.206 631.425 417.094 630.256C417.982 629.065 418.963 627.943 420.038 626.892C421.113 625.84 422.187 624.917 423.262 624.123C424.361 623.305 425.377 622.674 426.312 622.23C427.246 621.763 428.006 621.529 428.59 621.529C428.823 621.529 429.034 621.611 429.221 621.775C429.408 621.938 429.501 622.137 429.501 622.37ZM429.045 623.457C428.882 623.621 428.683 623.784 428.45 623.948C428.216 624.111 427.959 624.286 427.678 624.473C426.65 625.198 425.517 626.039 424.279 626.997C423.064 627.932 421.895 628.96 420.774 630.081C419.676 631.179 418.776 632.336 418.075 633.551C417.374 634.766 417.024 636.016 417.024 637.301C417.024 637.862 417.304 638.142 417.865 638.142C418.636 638.142 419.477 637.78 420.388 637.056C421.323 636.308 422.281 635.28 423.262 633.972C424.244 632.64 425.225 631.086 426.206 629.31C427.188 627.511 428.134 625.56 429.045 623.457ZM439.398 640.911C438.51 640.911 437.774 640.502 437.19 639.685C436.629 638.843 436.349 637.757 436.349 636.425C436.349 635.187 436.652 633.96 437.26 632.745C437.891 631.53 438.72 630.362 439.748 629.24C440.776 628.118 441.898 627.09 443.113 626.156C444.328 625.198 445.543 624.368 446.758 623.667C447.997 622.966 449.13 622.417 450.158 622.02C451.186 621.623 452.004 621.424 452.611 621.424C452.938 621.424 453.207 621.494 453.417 621.634C453.628 621.751 453.733 621.973 453.733 622.3C453.733 622.511 453.651 622.709 453.488 622.896C453.511 622.896 453.534 622.896 453.558 622.896C454.072 622.896 454.329 623.2 454.329 623.807C454.329 624.018 454.247 624.45 454.083 625.104C453.92 625.735 453.733 626.53 453.523 627.488C453.312 628.446 453.125 629.509 452.962 630.677C452.798 631.822 452.716 632.99 452.716 634.182C452.716 635.187 453.102 635.689 453.873 635.689C454.738 635.689 455.614 635.49 456.502 635.093C457.39 634.696 458.254 634.217 459.095 633.656C459.936 633.072 460.708 632.5 461.409 631.939C462.11 631.355 462.705 630.864 463.196 630.467C463.687 630.07 464.037 629.871 464.247 629.871C464.434 629.871 464.598 629.929 464.738 630.046C464.878 630.163 464.948 630.35 464.948 630.607C464.948 630.841 464.715 631.261 464.247 631.869C463.78 632.476 463.161 633.165 462.39 633.937C461.619 634.708 460.754 635.455 459.796 636.18C458.838 636.904 457.857 637.5 456.852 637.967C455.847 638.434 454.889 638.668 453.978 638.668C453.277 638.668 452.635 638.458 452.051 638.037C451.49 637.593 451.034 636.846 450.684 635.794C450.356 634.743 450.193 633.294 450.193 631.448V630.572C449.048 632.465 447.845 634.194 446.583 635.759C445.345 637.325 444.106 638.575 442.868 639.509C441.653 640.444 440.496 640.911 439.398 640.911ZM451.945 623.948C451.829 623.994 451.665 624.064 451.455 624.158C450.38 624.649 449.258 625.256 448.09 625.98C446.945 626.705 445.824 627.511 444.725 628.399C443.65 629.287 442.681 630.21 441.816 631.168C440.952 632.126 440.262 633.095 439.748 634.077C439.234 635.058 438.977 636.016 438.977 636.951C438.977 637.255 439.036 637.488 439.153 637.652C439.293 637.815 439.526 637.897 439.854 637.897C440.321 637.897 440.928 637.605 441.676 637.021C442.424 636.413 443.242 635.619 444.129 634.638C445.041 633.656 445.952 632.57 446.863 631.378C447.775 630.186 448.639 628.983 449.457 627.768C450.298 626.553 451.022 625.431 451.63 624.403C451.723 624.24 451.829 624.088 451.945 623.948ZM466.947 649.008C465.779 649.008 464.704 648.926 463.723 648.762C462.765 648.622 461.819 648.388 460.884 648.061C459.949 647.757 458.933 647.36 457.835 646.87C457.508 646.706 457.215 646.507 456.958 646.274C456.701 646.063 456.573 645.818 456.573 645.538C456.573 645.187 456.795 644.813 457.239 644.416C457.659 644.042 458.057 643.855 458.43 643.855C458.828 643.855 459.318 643.996 459.903 644.276C460.51 644.556 461.211 644.883 462.005 645.257C462.8 645.655 463.676 645.993 464.634 646.274C465.616 646.554 466.667 646.694 467.789 646.694C469.004 646.694 470.148 646.192 471.223 645.187C472.298 644.182 473.174 642.734 473.852 640.841C474.53 638.972 474.868 636.717 474.868 634.077C474.868 633.282 474.845 632.406 474.798 631.448C474.775 630.467 474.728 629.439 474.658 628.364C474.097 629.579 473.466 630.782 472.765 631.974C472.088 633.165 471.375 634.24 470.627 635.198C469.903 636.156 469.144 636.927 468.349 637.512C467.578 638.072 466.795 638.353 466.001 638.353C464.996 638.353 464.272 638.096 463.828 637.582C463.384 637.068 463.162 636.273 463.162 635.198C463.162 634.077 463.244 632.862 463.407 631.553C463.571 630.245 463.781 628.925 464.038 627.593C464.319 626.238 464.646 624.952 465.02 623.737C465.394 622.522 465.791 621.471 466.211 620.583C466.445 620.116 466.795 619.882 467.263 619.882C467.59 619.882 467.905 620.057 468.209 620.408C468.536 620.735 468.7 621.167 468.7 621.705C468.7 622.125 468.606 622.721 468.419 623.492C468.232 624.263 467.999 625.139 467.718 626.121C467.438 627.102 467.158 628.13 466.877 629.205C466.597 630.256 466.363 631.296 466.176 632.324C465.989 633.329 465.896 634.252 465.896 635.093C465.896 635.444 466.13 635.619 466.597 635.619C466.854 635.619 467.216 635.385 467.683 634.918C468.174 634.427 468.711 633.796 469.296 633.025C469.903 632.231 470.511 631.366 471.118 630.432C471.749 629.474 472.357 628.527 472.941 627.593C473.525 626.635 474.027 625.759 474.448 624.964C474.424 624.777 474.413 624.602 474.413 624.438C474.413 624.275 474.413 624.123 474.413 623.983C474.413 622.838 474.53 622.125 474.763 621.845C475.02 621.541 475.347 621.389 475.745 621.389C476.422 621.389 476.901 621.541 477.182 621.845C477.462 622.148 477.602 622.674 477.602 623.422C477.602 623.702 477.567 624.006 477.497 624.333C477.427 624.637 477.31 625.081 477.147 625.665C477.333 627.511 477.485 629.17 477.602 630.642C477.742 632.114 477.812 633.598 477.812 635.093C477.812 637.92 477.357 640.374 476.446 642.453C475.558 644.533 474.296 646.145 472.66 647.29C471.048 648.435 469.144 649.008 466.947 649.008Z"
        fill="black" />
    <path
        d="M502.771 611.996C507.011 608.128 509.657 607.169 515.444 607C523 607.003 526.573 608.016 531.536 610.077C536.164 611.999 540.704 615.868 543.263 620.2C546.149 625.085 544.076 631.982 541.948 636.791C540.581 639.882 538.2 643.406 535.27 645.205C529.502 648.747 520.585 646.866 514.498 645.495C508.294 644.097 502.704 641.551 499.116 636.108C497.604 633.815 496.685 630.898 496.434 628.167C495.858 621.907 498.154 616.208 502.771 611.996Z"
        stroke="black" stroke-width="3" stroke-linecap="round" />
    <path
        d="M505.814 622.423C506.466 621.946 508.082 620.255 509.044 620.339C509.561 620.384 510.089 620.528 510.597 620.63"
        stroke="black" stroke-width="3" stroke-linecap="round" />
    <path
        d="M526.437 622.277C527.595 621.88 529.904 620.559 531.077 621.547C531.745 622.109 532.393 622.471 533.161 622.875"
        stroke="black" stroke-width="3" stroke-linecap="round" />
    <path
        d="M512.24 630.789C513.846 631.589 515.607 632.719 517.421 633.006C518.735 633.214 520.204 632.594 521.439 632.217C523.137 631.698 524.198 630.861 525.391 629.594"
        stroke="black" stroke-width="3" stroke-linecap="round" />
    <path
        d="M114.157 628.798C116.124 639.309 127.894 639.891 136.45 640.425C137.194 639.31 139.668 637.993 140.781 637.178C143.558 635.141 145.903 632.777 148.339 630.341C151.657 627.023 154.705 623.571 155.155 618.694C155.317 616.933 155.355 613 152.91 613C149.606 613 146.102 613.48 143.066 614.844C139.029 616.658 136.845 620.012 134.365 623.465C132.743 625.724 132.307 625.083 130.235 623.625C127.915 621.993 125.204 619.761 122.256 619.455C117.384 618.95 113.328 624.364 114.157 628.798Z"
        stroke="black" stroke-width="3" stroke-linecap="round" />
</svg>
