<svg width="528" height="591" viewBox="0 0 528 591" fill="none" xmlns="http://www.w3.org/2000/svg">
    <path fill-rule="evenodd" clip-rule="evenodd"
        d="M62.3966 579.192C59.1684 580.726 55.8625 582.296 52.3478 582.427L52.3013 582.706C47.3734 582.892 41.934 583.264 41.7481 589.54C40.3999 590.098 39.0516 590.563 37.5175 590.656C35.193 590.796 32.4036 590.796 30.265 589.726C28.9952 589.105 28.3248 588.159 27.6301 587.179C27.1804 586.544 26.7204 585.894 26.0809 585.31C23.4775 582.939 19.8977 582.706 16.9689 584.752L16.6588 584.967C12.7594 587.672 10.4655 589.264 5.34635 589.354H0C0.162715 588.703 0.325431 588.064 0.488146 587.425C0.650861 586.786 0.813576 586.147 0.976291 585.496C1.15302 584.826 1.29067 584.203 1.41977 583.618C1.93592 581.282 2.31541 579.563 4.50953 577.964C8.4147 575.175 13.4821 570.433 12.5988 565.18C12.0874 562.065 10.5067 559.833 8.46119 557.462C7.93028 556.843 7.31344 556.223 6.68358 555.591C4.99692 553.897 3.2168 552.11 2.74291 549.977C1.34208 543.927 5.90296 540.513 10.4597 537.103C13.0106 535.194 15.5602 533.286 17.0618 530.916C19.4064 527.147 18.9325 524.013 18.3372 520.078L18.3171 519.945C17.8522 516.969 17.9452 513.39 18.1776 510.368C18.3322 508.049 18.9293 505.788 19.526 503.528C20.006 501.71 20.4858 499.893 20.7346 498.048C21.0607 495.679 21.5074 493.297 21.9551 490.91C22.7197 486.832 23.4875 482.737 23.6634 478.662C23.6958 477.927 23.7313 477.182 23.7673 476.427C24.0934 469.583 24.455 461.995 22.7801 455.463C22.584 454.692 22.3287 453.88 22.0678 453.049C21.4629 451.123 20.8275 449.1 20.8275 447.281C20.7998 444.732 22.2749 442.893 23.7567 441.045C24.7612 439.793 25.7687 438.537 26.3134 437.053C26.6272 436.14 26.6609 435.017 26.6938 433.92C26.7145 433.23 26.735 432.55 26.8248 431.939C26.9415 431.102 27.0826 430.266 27.2244 429.426C27.4213 428.259 27.6194 427.085 27.7546 425.895C27.7976 425.517 27.8342 425.14 27.8706 424.765C28.0313 423.113 28.1883 421.498 28.8703 419.945C29.1049 419.417 29.4381 418.947 29.7697 418.479C30.2267 417.834 30.6808 417.193 30.8694 416.411C31.3824 414.28 30.1201 412.551 28.9022 410.883C28.6853 410.586 28.4698 410.291 28.266 409.996C26.4528 407.346 24.9187 404.835 23.7564 401.86C23.6282 401.535 23.4545 401.146 23.262 400.715C22.4075 398.801 21.1844 396.062 21.9433 394.468C22.3542 393.585 23.0103 392.901 23.6789 392.204C24.523 391.325 25.3869 390.424 25.802 389.075C26.5923 386.518 26.0809 384.426 25.2441 382.009C24.5599 380.021 24.0127 378.057 23.4586 376.067C23.2219 375.218 22.984 374.364 22.7336 373.501C22.5531 372.865 22.3474 372.218 22.1391 371.562C21.1137 368.333 20.0258 364.908 21.5714 361.739C22.0667 360.735 22.733 359.869 23.3678 359.044C24.8783 357.081 26.2109 355.349 24.6397 352.534C24.1829 351.71 23.6888 350.89 23.1937 350.069C20.8673 346.209 18.5178 342.312 19.8977 337.75C21.06 333.938 24.5003 329.893 27.4291 327.151C28.0709 326.537 28.8528 325.981 29.6471 325.416C31.4419 324.138 33.3006 322.815 33.7518 320.688C34.4011 317.726 32.6413 315.578 30.9157 313.472C30.6646 313.165 30.4142 312.86 30.172 312.553C27.2432 308.787 23.2915 302.836 22.6407 298.001C22.5743 297.483 22.5534 296.962 22.5325 296.441C22.4803 295.137 22.4283 293.837 21.6644 292.608C21.2399 291.944 20.6688 291.426 20.1054 290.915C19.2496 290.139 18.4115 289.379 18.1311 288.145C17.9099 287.261 17.9894 286.097 18.063 285.019C18.0977 284.51 18.1311 284.021 18.1311 283.589C18.2128 281.302 18.9801 279.621 19.7608 277.911C20.3131 276.701 20.872 275.476 21.1995 274.012C21.6357 272.049 20.7642 270.711 19.8076 269.243C19.541 268.834 19.2678 268.415 19.0144 267.969C17.0045 264.422 18.9368 261.042 20.7897 257.801C21.1226 257.219 21.4529 256.641 21.7573 256.067C21.9936 255.625 22.2425 255.17 22.4972 254.705C24.1973 251.598 26.1577 248.015 26.3599 244.538C26.4796 242.562 26.4259 240.547 26.3724 238.544C26.3428 237.436 26.3134 236.332 26.3134 235.24C26.3599 232.962 26.1274 230.777 25.2906 228.592C24.7556 227.165 23.6696 225.871 22.6036 224.601C22.002 223.885 21.4068 223.176 20.9205 222.455C19.9731 221.034 18.8586 219.796 17.7473 218.562C17.0046 217.738 16.2632 216.915 15.5742 216.039C14.4019 214.527 14.46 212.891 14.5225 211.132C14.5368 210.729 14.5514 210.319 14.5514 209.903C14.5979 207.857 14.6909 205.625 16.0391 203.998C16.8448 203.018 17.9156 202.345 18.9937 201.666C20.2173 200.896 21.4502 200.12 22.3152 198.884C24.0511 196.43 23.3978 194.419 22.6749 192.194C22.2748 190.963 21.8535 189.666 21.8038 188.192C21.7109 185.402 21.9433 182.752 22.4547 180.009C22.623 179.129 22.8598 178.216 23.1008 177.287C23.7254 174.88 24.3785 172.362 23.9424 170.014C23.5524 167.986 22.2176 166.845 20.8645 165.689C19.7979 164.777 18.7199 163.856 18.0846 162.483C17.341 160.858 17.9842 159.673 18.661 158.427C19.1268 157.569 19.6084 156.682 19.6653 155.602C19.7405 154.022 18.7502 152.381 17.9015 150.975C17.7014 150.643 17.5093 150.325 17.3408 150.023C14.8303 145.7 13.2497 141.19 15.3882 136.355C16.1439 134.64 17.1541 133.325 18.1801 131.99C18.7951 131.189 19.4157 130.381 19.9907 129.475C21.4007 127.303 20.3118 126.349 18.7724 125C18.4337 124.703 18.0732 124.388 17.7127 124.035C17.6297 123.954 17.5479 123.875 17.4675 123.797C15.6572 122.036 14.5425 120.951 15.3882 118.503C15.5588 118.01 15.8838 117.533 16.2091 117.056C16.6817 116.362 17.1548 115.667 17.1548 114.923C17.1924 113.457 15.4658 111.747 14.2139 110.507C13.9181 110.214 13.6489 109.948 13.4356 109.717C13.2793 109.549 13.1263 109.387 12.9775 109.23C11.2663 107.421 10.1014 106.189 10.7857 103.58C12.0057 99.0148 15.5575 96.1154 19.0726 93.2461C19.71 92.7258 20.3462 92.2065 20.967 91.6784C24.0354 89.0749 24.3143 86.2855 22.7801 82.5663C22.3689 81.5988 21.7439 80.8956 21.1209 80.1948C20.5464 79.5485 19.9738 78.9043 19.5723 78.0568C19.0811 77.0165 19.0927 76.0661 19.1049 75.0715C19.1124 74.4659 19.12 73.8439 19.0144 73.1753C18.6566 71.0063 17.4384 69.2244 16.2443 67.4779C14.9559 65.5935 13.6957 63.7503 13.5751 61.5063C13.5246 60.4132 13.608 59.2105 13.6932 57.982C13.8435 55.8144 13.9994 53.5663 13.4356 51.6969C12.9537 50.1365 12.0301 48.8819 11.1176 47.6424C10.1814 46.3708 9.25688 45.115 8.83311 43.5612C8.62244 42.8472 8.4707 42.1038 8.31855 41.3584C7.86632 39.1429 7.41045 36.9095 5.39285 35.3789L1.8596 17.4803C4.69549 17.2013 7.34542 17.0154 10.1348 18.1776C11.0879 18.596 12.0409 19.0609 12.994 19.5258C13.947 19.9907 14.9001 20.4556 15.8531 20.874C21.3389 23.338 26.9177 24.8257 32.9614 24.5932C35.3324 24.5003 37.7964 23.9889 39.9814 23.1056C40.8449 22.7429 41.6056 22.2007 42.3543 21.6671C43.6213 20.7641 44.8536 19.8858 46.4901 19.9442C51.9506 20.1325 56.712 22.8206 61.4179 25.4772C63.6834 26.7561 65.9359 28.0278 68.2474 29.0098C72.0596 30.6369 77.8243 33.0544 81.3111 29.9861C82.0274 29.3446 82.6798 28.7105 83.3119 28.0962C85.428 26.0393 87.3156 24.2046 90.6091 23.0591C94.7002 21.6644 97.6291 21.6179 100.93 24.5467C102.611 26.057 104.24 27.6567 105.873 29.2587C107.356 30.7142 108.84 32.1716 110.367 33.5658C114.04 36.9131 120.595 37.8429 125.523 38.1218C126.008 38.1491 126.526 38.1834 127.068 38.2193C130.221 38.4279 134.176 38.6896 136.913 37.9359C139.945 37.0441 141.309 34.5273 142.687 31.985C142.746 31.8766 142.805 31.7681 142.864 31.6597C144.677 28.3589 146.444 25.802 150.116 28.08C151.057 28.6755 151.913 29.3028 152.753 29.919C154.406 31.1307 156.001 32.2997 158.066 33.1009C163.598 35.2859 171.223 36.4482 175.872 32.1711C178.01 30.2185 180.614 28.5449 183.078 27.0107C185.239 25.6407 187.521 24.769 189.83 23.8867C191.047 23.4217 192.272 22.9537 193.492 22.4082C194.42 21.9864 195.315 21.5439 196.197 21.1083C199.688 19.3836 202.956 17.7689 207.113 17.9916C211.204 18.2241 214.784 20.4091 218.131 22.5477C220.595 24.1283 223.664 25.8485 226.639 24.9652C227.532 24.6973 228.139 24.1055 228.753 23.507C229.098 23.1706 229.445 22.832 229.847 22.5477C233.241 20.0372 237.843 20.5486 241.748 21.1995C242.552 21.3334 243.341 21.4434 244.113 21.5513C248.17 22.1172 251.775 22.6202 254.626 26.1739C261.181 34.3097 272.711 41.0972 283.31 38.5403C288.703 37.2385 295.491 34.3097 300.047 31.1948C300.374 30.9675 300.778 30.5449 301.224 30.0794C302.238 29.0217 303.463 27.7429 304.463 28.0335C305.133 28.2138 305.688 28.9502 306.24 29.6821C306.685 30.2715 307.127 30.858 307.625 31.1483C309.266 32.106 311.965 31.9062 314.295 31.7337C315.132 31.6717 315.921 31.6132 316.597 31.6132C317.482 31.5962 318.423 31.6415 319.379 31.6875C321.035 31.7672 322.736 31.849 324.268 31.6132C327.894 31.0554 331.985 29.0563 335.054 27.1037C338.448 24.9187 341.609 22.4547 344.491 19.6653C344.714 19.4483 344.93 19.2313 345.143 19.0176C346.801 17.3541 348.26 15.8902 350.814 16.1785C352.488 16.3645 355.045 17.4338 356.486 18.3171C356.946 18.6189 357.415 19.0053 357.899 19.4046C358.982 20.2967 360.143 21.2536 361.46 21.4784C363.272 21.792 364.849 20.0683 366.23 18.5588C366.692 18.0544 367.131 17.5739 367.55 17.2013L367.797 16.9849C369.571 15.4309 371.322 13.8975 373.455 12.8313C377.22 10.9252 381.404 11.2506 385.217 12.9707C385.884 13.2884 386.497 13.6386 387.101 13.9844C388.267 14.6505 389.403 15.2999 390.842 15.6671C392.545 16.093 394.053 16.0898 395.724 16.0862C395.877 16.0859 396.032 16.0856 396.188 16.0856L396.429 16.0856C399.007 16.087 401.698 16.0884 403.952 14.6909C406.452 13.1431 407.885 9.91829 409.24 6.87107C410 5.15882 410.736 3.50263 411.623 2.23152V2.18503C413.947 2.7894 416.411 2.97536 418.782 2.55695C421.293 2.09205 423.013 1.11576 424.873 0C425.167 0.160851 425.459 0.321063 425.749 0.480138C430.401 3.03369 434.52 5.29441 440.121 5.20689C440.919 5.19666 441.725 5.21566 442.534 5.23472C445.404 5.30234 448.306 5.37072 450.953 4.13762C451.186 4.04464 451.372 3.95165 451.604 3.81218C454.089 4.05267 457.127 3.22193 459.616 2.54144C460.014 2.43263 460.398 2.32766 460.763 2.23152C461.03 2.15843 461.293 2.0859 461.554 2.01411C464.613 1.17273 467.306 0.432007 470.433 0.0464911C471.825 0.404001 473.073 1.00521 474.315 1.60354C476.141 2.48351 477.954 3.35724 480.196 3.44026C482.613 3.53324 484.705 3.48675 486.89 3.02185C487.262 3.30079 487.681 3.57973 488.099 3.81218C490.005 4.83496 492.934 6.27616 495.351 7.02C495.331 7.80608 495.309 8.59118 495.287 9.37546C495.156 14.0181 495.027 18.6315 495.305 23.245C495.491 26.5458 496.514 29.9396 497.583 33.0079C497.749 33.4942 497.917 33.966 498.08 34.4248C499.648 38.8358 500.791 42.052 496.328 45.4208C495.137 46.3268 493.915 47.1904 492.692 48.0554C490.525 49.5871 488.353 51.123 486.332 52.9057L486.272 52.9612C485.199 53.9396 483.546 55.4484 483.683 57.1363C483.837 59.3021 486.662 61.3714 488.625 62.8089C489.021 63.0993 489.383 63.364 489.68 63.5984C489.869 63.7473 490.059 63.896 490.248 64.0445C493.31 66.4454 496.332 68.8143 498.652 71.9666C501.766 76.1956 499.571 78.8668 497.035 81.952C496.505 82.5975 495.959 83.2612 495.444 83.961C493.631 86.425 493.399 88.0522 494.096 90.888C495.119 94.9792 496.421 98.094 498.513 101.767C500.558 105.253 501.116 107.996 501.86 111.902C502.273 114.047 502.823 116.165 503.372 118.28C504.06 120.931 504.747 123.578 505.161 126.267C505.692 129.925 505.32 133.603 504.948 137.274C504.767 139.063 504.586 140.85 504.51 142.631C504.486 143.176 504.47 143.717 504.454 144.256C504.38 146.8 504.307 149.28 503.348 151.697C502.901 152.838 502.362 153.952 501.822 155.069C501.35 156.045 500.877 157.022 500.465 158.02C500.132 158.835 499.726 159.683 499.31 160.553C498.16 162.956 496.932 165.523 496.932 168.015C496.979 170.711 498.792 173.826 500.186 176.104C501.406 178.117 503.166 179.009 504.993 179.936C505.952 180.422 506.929 180.918 507.857 181.59C509.763 182.985 511.391 185.03 510.786 187.494C510.235 189.823 508.173 191.087 506.12 192.345C504.36 193.423 502.607 194.497 501.814 196.235C501.227 197.505 501.394 199.322 501.546 200.984C501.612 201.695 501.674 202.377 501.674 202.976C501.674 203.171 501.674 203.364 501.675 203.557C501.678 205.66 501.682 207.63 501.256 209.717C501.055 210.667 500.624 211.674 500.189 212.691C499.518 214.262 498.837 215.855 498.978 217.294C499.136 218.718 500.131 220.156 501.107 221.567C501.853 222.645 502.587 223.706 502.929 224.733C505.207 231.66 503.441 241.19 500.884 247.885C500.339 249.331 499.673 250.716 499.009 252.097C498.371 253.424 497.735 254.747 497.211 256.114C497.123 256.355 497.007 256.62 496.884 256.899C496.487 257.804 496.022 258.863 496.235 259.786C496.675 261.769 498.537 262.824 500.217 263.776C500.664 264.029 501.097 264.274 501.488 264.528C503.394 265.737 505.858 268.991 506.137 271.409C506.328 273.067 505.82 275.052 505.347 276.901C505.13 277.749 504.92 278.567 504.789 279.312C503.859 284.752 502.511 290.098 500.791 295.305C500.461 296.31 499.906 297.438 499.334 298.6C498.372 300.554 497.362 302.604 497.304 304.324C497.164 308.314 500.897 310.643 504.258 312.742C505.362 313.431 506.426 314.095 507.299 314.784C508.033 315.373 508.983 315.981 509.994 316.627C512.571 318.274 515.537 320.169 516.272 322.641C516.783 324.315 516.365 327.243 516.04 328.917C515.964 329.319 515.882 329.717 515.8 330.113C515.382 332.144 514.976 334.115 515.482 336.216C516.107 338.755 517.847 341.064 519.435 343.17C519.737 343.571 520.034 343.965 520.317 344.352C520.86 345.128 521.468 345.937 522.06 346.723C522.177 346.879 522.293 347.034 522.409 347.188C522.432 347.549 522.444 347.907 522.455 348.265C522.49 349.339 522.525 350.419 522.874 351.604C523.21 352.744 523.704 353.862 524.199 354.981C524.935 356.646 525.673 358.314 525.895 360.065C525.927 360.302 525.956 360.523 525.984 360.733C526.238 362.668 526.358 363.58 527.197 365.551C528.545 368.852 528.22 369.689 526.035 372.478C525.831 372.734 525.628 372.984 525.428 373.231C523.118 376.08 521.229 378.411 523.71 381.962C526.825 386.425 529.057 391.446 526.918 396.746C524.655 397.548 522.869 399.374 521.103 401.179C520.002 402.304 518.909 403.421 517.713 404.277C517.277 404.597 516.835 404.915 516.391 405.235C513.278 407.473 510.054 409.792 508.183 413.25C507.075 415.275 507.129 417.487 507.183 419.734C507.195 420.221 507.206 420.711 507.206 421.2C507.215 421.912 507.243 422.652 507.271 423.407C507.395 426.741 507.531 430.377 506.091 433.334C505.745 434.047 505.402 434.662 505.083 435.233C504.031 437.119 503.248 438.522 503.534 441.377C503.72 443.19 504.371 444.956 505.068 446.63C505.556 447.839 505.963 449.059 506.37 450.28C506.776 451.5 507.183 452.72 507.671 453.929C507.853 454.378 508.035 454.8 508.209 455.202C509.153 457.382 509.861 459.017 508.88 461.646C507.95 464.157 506.602 465.319 504.138 466.481C503.83 466.625 503.521 466.76 503.215 466.893C501.445 467.664 499.791 468.385 499.117 470.526C498.606 472.199 498.931 474.896 499.21 476.616C499.68 479.482 500.453 482.273 501.226 485.066C502.057 488.072 502.89 491.081 503.348 494.189C503.58 495.723 503.813 497.351 503.487 498.931C503.306 499.816 503.012 500.622 502.718 501.429C502.332 502.488 501.946 503.549 501.814 504.789C501.349 509.206 501.209 514.412 502.65 518.55C503.906 522.083 504.231 526.453 502.929 529.987C500.326 537.007 500.047 542.725 503.534 549.326C503.868 549.965 504.342 550.668 504.836 551.401C505.853 552.911 506.957 554.55 507.113 556.021C507.283 557.762 506.173 559.077 505.093 560.355C504.991 560.475 504.889 560.596 504.789 560.716C503.208 562.623 502.511 563.599 502.604 566.202C502.631 566.864 502.61 567.574 502.588 568.304C502.573 568.806 502.557 569.317 502.557 569.829C499.582 565.505 492.144 559.833 488.564 565.273C488.324 565.647 488.097 566.011 487.877 566.364C486.268 568.949 485.032 570.933 481.637 571.874C481.317 571.964 480.999 572.054 480.682 572.143C476.396 573.356 472.375 574.494 467.829 573.455C463.613 572.465 459.715 572.471 455.436 572.477C455.091 572.478 454.744 572.478 454.394 572.478C450.349 572.432 446.583 572.664 442.632 573.548C440.44 574.032 439.398 575.213 438.269 576.494C437.554 577.305 436.804 578.155 435.705 578.894C433.148 580.568 432.125 580.242 430.916 577.22C430.621 576.465 430.345 575.644 430.062 574.799C428.742 570.864 427.251 566.418 422.734 565.691C417.536 564.846 415.175 568.089 412.67 571.53C411.591 573.013 410.484 574.533 409.112 575.779C406.595 578.085 404.494 576.199 402.249 574.183C400.059 572.216 397.732 570.127 394.747 571.688C394.085 572.019 393.535 572.409 393.002 572.787C392.039 573.47 391.133 574.112 389.726 574.292C388.57 574.444 387.255 574.377 385.988 574.312C385.32 574.278 384.665 574.245 384.054 574.245C383.829 574.245 383.605 574.245 383.382 574.245C379.824 574.242 376.486 574.24 372.943 574.896C367.039 576.012 361.135 577.081 355.137 577.732C353.778 577.871 352.315 577.938 350.82 578.007C347.817 578.145 344.681 578.289 341.981 579.034C340.958 579.313 339.935 579.777 339.098 580.382C338.802 580.591 338.545 580.898 338.288 581.206C337.859 581.718 337.431 582.23 336.82 582.288C336.055 582.357 334.637 580.967 333.622 579.972C333.281 579.638 332.986 579.348 332.776 579.173C332.289 578.751 331.793 578.33 331.293 577.905C328.927 575.895 326.482 573.819 324.64 571.363C324.547 571.242 324.453 571.12 324.359 570.997C322.72 568.86 320.945 566.547 318.131 566.063C315.848 565.654 314.414 566.594 312.822 567.638C312.242 568.018 311.642 568.412 310.972 568.759C309.35 569.57 307.689 569.683 305.977 569.798C305.039 569.862 304.086 569.926 303.115 570.107C300.372 570.619 298.048 571.549 295.491 572.618C289.443 575.173 283.59 575.154 277.289 575.132C276.712 575.13 276.131 575.128 275.547 575.128C275.34 575.128 275.131 575.129 274.921 575.129C269.417 575.132 262.849 575.136 257.834 572.897C256.238 572.175 254.606 570.924 252.928 569.639C249.963 567.368 246.857 564.988 243.561 565.226C237.518 565.644 233.148 569.038 228.778 572.897C225.942 575.407 224.686 576.058 220.874 576.058C220.418 576.058 219.936 576.073 219.446 576.088C218.439 576.12 217.396 576.152 216.458 576.058C214.34 575.801 212.232 575.112 210.129 574.423C207.662 573.616 205.203 572.811 202.743 572.711C200.539 572.599 198.755 573.507 196.909 574.448C196.458 574.677 196.003 574.909 195.537 575.128C193.434 576.123 191.362 576.079 189.141 576.032C188.662 576.022 188.175 576.012 187.68 576.012C184.147 576.012 181.869 575.686 179.033 573.408C178.14 572.694 177.355 571.736 176.565 570.772C175.092 568.975 173.601 567.156 171.362 566.853C169.254 566.562 167.372 567.323 165.474 568.092C164.945 568.306 164.414 568.52 163.877 568.713C159.368 570.293 154.765 570.572 150.023 570.526C148.962 570.511 147.853 570.558 146.728 570.607C144.354 570.708 141.911 570.813 139.703 570.34C138.471 570.083 137.366 569.515 136.264 568.948C135.37 568.487 134.477 568.028 133.519 567.737C131.086 566.991 129.348 567.438 127.215 567.987C126.822 568.088 126.415 568.193 125.988 568.294C125.096 568.513 124.212 568.624 123.334 568.735C121.97 568.907 120.623 569.077 119.293 569.643C117.387 570.433 116.411 570.572 114.366 570.572C108.601 570.526 102.836 569.736 97.1177 568.759L96.7806 568.701C92.2556 567.923 87.058 567.029 82.6128 568.48C79.495 569.487 76.7791 571.284 74.0475 573.092C71.6062 574.708 69.1523 576.331 66.3878 577.406C65.0645 577.925 63.7373 578.555 62.3966 579.192ZM80.5192 554.897C77.5694 556.299 74.5485 557.734 71.3368 557.854L71.2943 558.109C66.7912 558.279 61.8208 558.618 61.6509 564.353C60.4189 564.863 59.1869 565.288 57.785 565.373C55.6609 565.5 53.1119 565.5 51.1578 564.523C49.9974 563.956 49.3848 563.091 48.75 562.195C48.339 561.615 47.9187 561.022 47.3344 560.488C44.9554 558.321 41.6842 558.109 39.0078 559.978L38.7242 560.175C35.1612 562.646 33.065 564.101 28.3873 564.184H23.5018C23.6504 563.589 23.799 563.006 23.9475 562.422C24.0963 561.837 24.2451 561.253 24.3939 560.657C24.5554 560.045 24.6812 559.476 24.7992 558.942C25.2708 556.807 25.6176 555.237 27.6226 553.775C31.1911 551.226 35.8217 546.893 35.0145 542.093C34.5472 539.246 33.1028 537.207 31.2336 535.041C30.7484 534.475 30.1847 533.909 29.6091 533.331C28.0679 531.783 26.4413 530.15 26.0083 528.201C24.7282 522.672 28.8959 519.553 33.0598 516.437C35.3908 514.692 37.7206 512.948 39.0928 510.783C41.2353 507.339 40.8022 504.475 40.2583 500.879L40.2398 500.757C39.815 498.039 39.9 494.768 40.1124 492.006C40.2536 489.887 40.7993 487.821 41.3445 485.756C41.7832 484.095 42.2216 482.434 42.4489 480.748C42.747 478.584 43.1551 476.407 43.5642 474.225C44.2629 470.499 44.9645 466.758 45.1253 463.033C45.1548 462.362 45.1873 461.681 45.2202 460.991C45.5182 454.737 45.8486 447.804 44.3181 441.835C44.1389 441.13 43.9056 440.388 43.6672 439.628C43.1144 437.868 42.5339 436.02 42.5339 434.358C42.5085 432.028 43.8565 430.348 45.2105 428.66C46.1284 427.515 47.0491 426.368 47.5468 425.012C47.8335 424.177 47.8643 423.151 47.8944 422.149C47.9134 421.518 47.932 420.897 48.0141 420.339C48.1208 419.574 48.2497 418.81 48.3793 418.042C48.5592 416.975 48.7402 415.903 48.8637 414.816C48.903 414.47 48.9365 414.126 48.9698 413.783C49.1166 412.274 49.2601 410.798 49.8833 409.378C50.0976 408.896 50.4021 408.466 50.7051 408.039C51.1228 407.449 51.5377 406.864 51.71 406.15C52.1788 404.202 51.0254 402.622 49.9124 401.098C49.7142 400.827 49.5173 400.557 49.331 400.287C47.6742 397.866 46.2723 395.571 45.2102 392.853C45.0931 392.556 44.9343 392.2 44.7584 391.806C43.9776 390.057 42.86 387.554 43.5534 386.098C43.9289 385.291 44.5285 384.666 45.1394 384.029C45.9107 383.225 46.7002 382.403 47.0795 381.17C47.8017 378.833 47.3344 376.922 46.5697 374.713C45.9445 372.897 45.4445 371.101 44.9381 369.283C44.7218 368.507 44.5044 367.727 44.2756 366.938C44.1107 366.357 43.9227 365.766 43.7323 365.166C42.7953 362.216 41.8012 359.086 43.2136 356.19C43.6662 355.273 44.275 354.481 44.8552 353.727C46.2354 351.934 47.4531 350.351 46.0174 347.779C45.5999 347.026 45.1484 346.277 44.696 345.526C42.5702 342 40.4232 338.438 41.6842 334.27C42.7463 330.786 45.89 327.09 48.5663 324.584C49.1528 324.023 49.8672 323.515 50.593 322.998C52.2332 321.831 53.9316 320.622 54.3439 318.679C54.9373 315.971 53.3292 314.009 51.7524 312.084C51.5229 311.804 51.2941 311.525 51.0728 311.244C48.3964 307.803 44.7854 302.365 44.1907 297.947C44.13 297.474 44.1109 296.997 44.0919 296.521C44.0442 295.33 43.9966 294.142 43.2985 293.019C42.9106 292.412 42.3888 291.939 41.874 291.472C41.092 290.763 40.3261 290.068 40.0699 288.941C39.8678 288.133 39.9404 287.069 40.0077 286.084C40.0394 285.619 40.0699 285.172 40.0699 284.778C40.1445 282.688 40.8457 281.152 41.5591 279.589C42.0637 278.483 42.5745 277.364 42.8737 276.026C43.2724 274.232 42.476 273.01 41.6019 271.668C41.3583 271.294 41.1086 270.911 40.8771 270.504C39.0404 267.263 40.8061 264.174 42.4993 261.212C42.8035 260.68 43.1053 260.152 43.3835 259.628C43.5994 259.224 43.8268 258.809 44.0596 258.383C45.6132 255.544 47.4045 252.27 47.5893 249.093C47.6987 247.287 47.6496 245.446 47.6007 243.616C47.5737 242.604 47.5468 241.595 47.5468 240.596C47.5893 238.515 47.3768 236.518 46.6122 234.521C46.1233 233.218 45.131 232.036 44.1568 230.875C43.6071 230.22 43.0632 229.573 42.6188 228.914C41.7531 227.615 40.7347 226.484 39.7191 225.357C39.0404 224.603 38.363 223.851 37.7334 223.051C36.6621 221.669 36.7152 220.174 36.7724 218.567C36.7855 218.198 36.7988 217.824 36.7988 217.443C36.8412 215.574 36.9262 213.535 38.1582 212.048C38.8944 211.153 39.873 210.537 40.8581 209.917C41.9762 209.213 43.1029 208.504 43.8933 207.375C45.4796 205.132 44.8825 203.295 44.2219 201.261C43.8564 200.136 43.4714 198.951 43.426 197.604C43.341 195.055 43.5534 192.634 44.0207 190.127C44.1745 189.323 44.3909 188.489 44.6111 187.64C45.1819 185.44 45.7787 183.139 45.3802 180.994C45.0238 179.141 43.804 178.098 42.5676 177.041C41.5929 176.208 40.6079 175.366 40.0274 174.112C39.3479 172.627 39.9356 171.544 40.5541 170.405C40.9797 169.622 41.4199 168.811 41.4718 167.824C41.5406 166.38 40.6356 164.881 39.8601 163.596C39.6773 163.293 39.5017 163.002 39.3477 162.726C37.0537 158.775 35.6093 154.655 37.5634 150.236C38.254 148.669 39.1771 147.468 40.1146 146.247C40.6766 145.515 41.2438 144.777 41.7692 143.949C43.0576 141.964 42.0626 141.093 40.6559 139.86C40.3464 139.589 40.017 139.3 39.6876 138.979C39.6117 138.905 39.5369 138.832 39.4635 138.76C37.8093 137.151 36.7906 136.16 37.5634 133.923C37.7193 133.473 38.0163 133.037 38.3135 132.601C38.7455 131.966 39.1778 131.332 39.1778 130.652C39.2121 129.312 37.6343 127.749 36.4904 126.617C36.2201 126.349 35.974 126.105 35.7792 125.894C35.6364 125.741 35.4966 125.593 35.3605 125.449C33.7969 123.796 32.7324 122.671 33.3577 120.287C34.4725 116.115 37.7182 113.466 40.9302 110.844C41.5126 110.368 42.094 109.894 42.6613 109.411C45.4651 107.032 45.72 104.483 44.3181 101.085C43.9424 100.2 43.3712 99.5579 42.8019 98.9174C42.277 98.3269 41.7537 97.7382 41.3868 96.9638C40.938 96.0132 40.9486 95.1447 40.9598 94.2358C40.9666 93.6824 40.9735 93.1141 40.8771 92.5031C40.5501 90.521 39.4369 88.8928 38.3458 87.2969C37.1684 85.5749 36.0169 83.8906 35.9066 81.8401C35.8605 80.8412 35.9367 79.7422 36.0146 78.6195C36.1519 76.6388 36.2944 74.5845 35.7792 72.8763C35.3388 71.4504 34.4948 70.304 33.661 69.1713C32.8055 68.0093 31.9607 66.8618 31.5734 65.4419C31.3809 64.7895 31.2423 64.1102 31.1032 63.4291C30.69 61.4045 30.2734 59.3637 28.4298 57.965L25.2011 41.6094C27.7925 41.3545 30.214 41.1846 32.7629 42.2466C33.6338 42.629 34.5047 43.0538 35.3756 43.4786C36.2465 43.9034 37.1174 44.3283 37.9883 44.7106C43.0012 46.9621 48.099 48.3216 53.6217 48.1092C55.7883 48.0242 58.0399 47.5569 60.0366 46.7497C60.8255 46.4184 61.5207 45.9229 62.2049 45.4353C63.3626 44.6101 64.4887 43.8075 65.9841 43.8609C70.9739 44.033 75.3248 46.4893 79.625 48.9169C81.6952 50.0856 83.7535 51.2476 85.8658 52.145C89.3493 53.6319 94.6171 55.8409 97.8033 53.0371C98.4578 52.4509 99.054 51.8715 99.6315 51.3101C101.565 49.4306 103.29 47.754 106.3 46.7073C110.038 45.4328 112.715 45.3903 115.731 48.0667C117.267 49.4468 118.756 50.9085 120.247 52.3725C121.602 53.7025 122.959 55.0342 124.355 56.3082C127.711 59.367 133.701 60.2166 138.204 60.4715C138.647 60.4964 139.12 60.5278 139.616 60.5606C142.496 60.7511 146.111 60.9903 148.612 60.3016C151.383 59.4867 152.629 57.1868 153.888 54.8637C153.942 54.7646 153.996 54.6655 154.05 54.5665C155.707 51.5502 157.321 49.2137 160.677 51.2953C161.536 51.8396 162.318 52.4127 163.087 52.9758C164.597 54.083 166.055 55.1512 167.941 55.8834C172.997 57.8801 179.964 58.9421 184.212 55.0338C186.166 53.2495 188.545 51.7202 190.797 50.3182C192.772 49.0663 194.857 48.2698 196.967 47.4635C198.079 47.0386 199.199 46.611 200.313 46.1125C201.161 45.7271 201.979 45.3227 202.785 44.9247C205.975 43.3486 208.961 41.8732 212.76 42.0767C216.499 42.2891 219.77 44.2858 222.828 46.24C225.08 47.6843 227.884 49.2562 230.603 48.449C231.419 48.2043 231.973 47.6635 232.534 47.1166C232.85 46.8092 233.167 46.4998 233.534 46.24C236.635 43.9459 240.841 44.4132 244.409 45.008C245.144 45.1303 245.865 45.2309 246.571 45.3294C250.278 45.8466 253.572 46.3062 256.177 49.5536C262.167 56.988 272.703 63.1904 282.389 60.8538C287.317 59.6643 293.519 56.988 297.682 54.1416C297.981 53.9339 298.351 53.5477 298.758 53.1224C299.684 52.1559 300.804 50.9873 301.718 51.2529C302.33 51.4176 302.837 52.0906 303.342 52.7593C303.748 53.298 304.152 53.8338 304.607 54.0992C306.107 54.9743 308.573 54.7917 310.702 54.634C311.467 54.5774 312.188 54.524 312.806 54.524C313.615 54.5084 314.475 54.5498 315.348 54.5919C316.861 54.6647 318.415 54.7394 319.815 54.524C323.129 54.0142 326.868 52.1875 329.671 50.4032C332.773 48.4065 335.661 46.155 338.295 43.6061C338.498 43.4078 338.696 43.2095 338.891 43.0142C340.406 41.4941 341.739 40.1564 344.073 40.4199C345.602 40.5898 347.939 41.5669 349.256 42.3741C349.676 42.6499 350.104 43.0029 350.547 43.3678C351.537 44.183 352.598 45.0574 353.801 45.2629C355.457 45.5494 356.898 43.9744 358.16 42.5949C358.582 42.134 358.983 41.695 359.366 41.3545C359.442 41.2886 359.517 41.2227 359.592 41.1569C361.213 39.7368 362.813 38.3356 364.762 37.3612C368.203 35.6194 372.026 35.9168 375.51 37.4886C376.119 37.7789 376.679 38.099 377.232 38.4149C378.297 39.0236 379.336 39.617 380.65 39.9526C382.206 40.3417 383.585 40.3388 385.111 40.3355C385.251 40.3352 385.393 40.3349 385.536 40.3349L385.756 40.335C388.111 40.3362 390.57 40.3375 392.63 39.0604C394.915 37.6461 396.224 34.6994 397.462 31.9149C398.157 30.3502 398.83 28.8368 399.64 27.6752V27.6327C401.764 28.185 404.015 28.3549 406.182 27.9726C408.476 27.5478 410.048 26.6556 411.747 25.6361C412.016 25.7831 412.283 25.9295 412.548 26.0748C416.799 28.4082 420.562 30.4741 425.681 30.3941C426.41 30.3847 427.147 30.4021 427.886 30.4195C430.508 30.4813 433.16 30.5438 435.58 29.417C435.792 29.332 435.962 29.247 436.174 29.1196C438.445 29.3394 441.221 28.5802 443.495 27.9584C443.859 27.859 444.21 27.7631 444.543 27.6752C444.787 27.6084 445.028 27.5421 445.267 27.4765C448.062 26.7077 450.522 26.0308 453.38 25.6785C454.652 26.0052 455.792 26.5546 456.927 27.1014C458.596 27.9055 460.253 28.7039 462.301 28.7797C464.51 28.8647 466.422 28.8222 468.418 28.3974C468.758 28.6523 469.141 28.9072 469.523 29.1196C471.265 30.0542 473.941 31.3712 476.15 32.0509C476.132 32.7693 476.111 33.4868 476.091 34.2035C475.972 38.4458 475.853 42.6615 476.108 46.8772C476.278 49.8934 477.212 52.9946 478.189 55.7985C478.341 56.2428 478.495 56.6739 478.644 57.0932C480.076 61.1239 481.121 64.0629 477.042 67.1412C475.954 67.9691 474.837 68.7583 473.719 69.5488C471.74 70.9484 469.755 72.3519 467.909 73.9809L467.853 74.0315C466.873 74.9256 465.362 76.3043 465.487 77.8467C465.628 79.8259 468.21 81.7168 470.003 83.0303C470.366 83.2957 470.696 83.5375 470.967 83.7518C471.14 83.8879 471.314 84.0237 471.487 84.1594C474.285 86.3533 477.046 88.518 479.166 91.3986C482.012 95.263 480.006 97.7039 477.689 100.523C477.204 101.113 476.706 101.719 476.235 102.359C474.578 104.611 474.366 106.097 475.003 108.689C475.938 112.427 477.127 115.274 479.039 118.63C480.908 121.816 481.418 124.322 482.098 127.891C482.475 129.851 482.977 131.787 483.479 133.719C484.108 136.142 484.736 138.56 485.114 141.018C485.599 144.36 485.259 147.721 484.919 151.076C484.754 152.711 484.589 154.343 484.519 155.972C484.497 156.469 484.482 156.964 484.468 157.456C484.4 159.78 484.334 162.047 483.457 164.256C483.049 165.298 482.556 166.317 482.063 167.337C481.632 168.229 481.2 169.122 480.823 170.033C480.518 170.778 480.147 171.554 479.767 172.348C478.717 174.544 477.595 176.89 477.595 179.167C477.637 181.631 479.294 184.477 480.568 186.559C481.683 188.398 483.291 189.213 484.961 190.06C485.837 190.505 486.73 190.958 487.578 191.572C489.32 192.846 490.806 194.715 490.254 196.967C489.751 199.095 487.867 200.25 485.99 201.399C484.382 202.384 482.78 203.366 482.055 204.954C481.519 206.114 481.672 207.775 481.811 209.294C481.871 209.943 481.928 210.567 481.928 211.114C481.928 211.292 481.928 211.469 481.928 211.644C481.932 213.566 481.935 215.366 481.545 217.273C481.362 218.142 480.968 219.062 480.571 219.991C479.957 221.427 479.335 222.883 479.464 224.198C479.608 225.499 480.518 226.813 481.41 228.103C482.091 229.087 482.762 230.057 483.075 230.995C485.156 237.325 483.542 246.034 481.205 252.151C480.707 253.473 480.099 254.739 479.492 256C478.909 257.213 478.328 258.421 477.849 259.671C477.769 259.891 477.663 260.133 477.551 260.389C477.188 261.215 476.763 262.183 476.957 263.027C477.36 264.839 479.061 265.803 480.596 266.672C481.004 266.903 481.401 267.128 481.758 267.36C483.5 268.465 485.751 271.438 486.006 273.647C486.181 275.162 485.716 276.977 485.284 278.666C485.086 279.441 484.894 280.189 484.774 280.869C483.924 285.84 482.692 290.725 481.121 295.483C480.82 296.402 480.312 297.433 479.789 298.494C478.91 300.28 477.988 302.153 477.934 303.725C477.806 307.371 481.217 309.5 484.289 311.417C485.298 312.046 486.27 312.653 487.068 313.283C487.738 313.822 488.607 314.377 489.53 314.967C491.885 316.472 494.596 318.204 495.267 320.463C495.734 321.992 495.352 324.669 495.055 326.198C494.985 326.565 494.91 326.929 494.836 327.291C494.454 329.147 494.083 330.948 494.545 332.868C495.116 335.187 496.706 337.297 498.157 339.222C498.434 339.589 498.705 339.949 498.963 340.302C499.459 341.011 500.015 341.749 500.555 342.468C500.662 342.611 500.769 342.753 500.875 342.893C500.896 343.223 500.907 343.551 500.917 343.878C500.949 344.86 500.981 345.847 501.3 346.929C501.607 347.971 502.059 348.992 502.511 350.015C503.184 351.536 503.858 353.061 504.061 354.661C504.09 354.877 504.117 355.08 504.142 355.271C504.374 357.039 504.484 357.873 505.25 359.674C506.482 362.69 506.185 363.455 504.188 366.004C504.002 366.237 503.817 366.466 503.634 366.692C501.523 369.295 499.797 371.425 502.064 374.67C504.911 378.748 506.95 383.337 504.996 388.18C502.928 388.912 501.295 390.581 499.681 392.23C498.675 393.258 497.677 394.279 496.584 395.062C496.186 395.354 495.782 395.644 495.376 395.936C492.531 397.982 489.585 400.101 487.875 403.261C486.863 405.111 486.912 407.133 486.961 409.186C486.972 409.631 486.983 410.078 486.983 410.525C486.991 411.176 487.016 411.852 487.042 412.542C487.156 415.588 487.28 418.911 485.964 421.613C485.648 422.265 485.334 422.827 485.043 423.349C484.081 425.072 483.366 426.354 483.627 428.963C483.797 430.619 484.392 432.234 485.029 433.763C485.475 434.868 485.847 435.983 486.218 437.098C486.59 438.213 486.962 439.328 487.408 440.433C487.574 440.844 487.74 441.228 487.9 441.596C488.762 443.588 489.409 445.082 488.512 447.485C487.663 449.779 486.431 450.841 484.179 451.903C483.898 452.034 483.615 452.157 483.336 452.279C481.719 452.984 480.207 453.643 479.591 455.599C479.124 457.128 479.421 459.592 479.676 461.164C480.106 463.783 480.812 466.334 481.518 468.886C482.278 471.633 483.039 474.382 483.457 477.222C483.669 478.624 483.882 480.111 483.585 481.556C483.419 482.364 483.151 483.1 482.882 483.838C482.529 484.806 482.176 485.775 482.055 486.908C481.63 490.944 481.503 495.702 482.82 499.483C483.967 502.712 484.264 506.705 483.075 509.934C480.696 516.349 480.441 521.574 483.627 527.606C483.933 528.19 484.365 528.832 484.817 529.502C485.746 530.882 486.755 532.38 486.898 533.724C487.053 535.315 486.039 536.516 485.052 537.684C484.959 537.794 484.866 537.904 484.774 538.014C483.33 539.756 482.692 540.648 482.777 543.027C482.803 543.632 482.783 544.281 482.763 544.948C482.749 545.406 482.735 545.874 482.735 546.341C480.016 542.39 473.219 537.207 469.948 542.178C469.728 542.52 469.521 542.852 469.32 543.175C467.849 545.537 466.72 547.35 463.618 548.21C463.325 548.292 463.035 548.374 462.745 548.456C458.829 549.564 455.154 550.604 451.001 549.655C447.148 548.75 443.586 548.756 439.676 548.761C439.361 548.762 439.043 548.762 438.723 548.762C435.027 548.72 431.586 548.932 427.975 549.74C425.972 550.182 425.02 551.261 423.989 552.432C423.335 553.172 422.65 553.95 421.645 554.625C419.309 556.154 418.374 555.857 417.27 553.096C416.999 552.405 416.748 551.655 416.489 550.883C415.283 547.287 413.92 543.225 409.793 542.56C405.043 541.788 402.886 544.751 400.597 547.896C399.61 549.251 398.599 550.64 397.346 551.779C395.045 553.886 393.125 552.162 391.073 550.32C389.072 548.523 386.946 546.614 384.219 548.04C383.613 548.343 383.111 548.699 382.624 549.044C381.744 549.668 380.916 550.255 379.63 550.419C378.574 550.558 377.372 550.497 376.215 550.438C375.604 550.407 375.005 550.377 374.448 550.377C374.242 550.377 374.037 550.377 373.833 550.377C370.582 550.374 367.532 550.372 364.294 550.972C358.899 551.991 353.504 552.968 348.024 553.563C346.781 553.69 345.445 553.751 344.078 553.814C341.334 553.94 338.469 554.072 336.001 554.752C335.067 555.007 334.132 555.432 333.367 555.984C333.096 556.176 332.861 556.456 332.626 556.737C332.235 557.205 331.843 557.673 331.286 557.726C330.586 557.79 329.29 556.52 328.363 555.61C328.052 555.305 327.782 555.04 327.59 554.88C327.145 554.494 326.691 554.109 326.234 553.721C324.072 551.884 321.839 549.987 320.155 547.743C320.07 547.632 319.984 547.521 319.899 547.409C318.401 545.456 316.779 543.342 314.208 542.9C312.121 542.526 310.811 543.385 309.356 544.339C308.826 544.687 308.278 545.046 307.666 545.364C306.183 546.105 304.666 546.208 303.101 546.313C302.244 546.371 301.373 546.43 300.486 546.596C297.98 547.063 295.855 547.913 293.519 548.89C287.993 551.225 282.644 551.207 276.887 551.187C276.359 551.186 275.829 551.184 275.294 551.184C275.105 551.184 274.914 551.184 274.722 551.184C269.693 551.187 263.691 551.191 259.108 549.145C257.65 548.485 256.159 547.342 254.626 546.168C251.916 544.093 249.078 541.918 246.066 542.135C240.544 542.518 236.55 545.619 232.557 549.145C229.966 551.439 228.819 552.034 225.335 552.034C224.918 552.034 224.478 552.047 224.03 552.061C223.11 552.09 222.156 552.119 221.299 552.034C219.364 551.799 217.437 551.169 215.516 550.54C213.262 549.802 211.014 549.067 208.767 548.975C206.753 548.872 205.123 549.703 203.436 550.562C203.024 550.772 202.608 550.984 202.182 551.184C200.26 552.092 198.367 552.053 196.338 552.01C195.9 552 195.455 551.991 195.003 551.991C191.774 551.991 189.692 551.694 187.101 549.612C186.285 548.959 185.568 548.084 184.846 547.203C183.5 545.561 182.137 543.899 180.091 543.622C178.164 543.356 176.445 544.052 174.711 544.754C174.227 544.949 173.742 545.145 173.252 545.321C169.131 546.766 164.925 547.021 160.592 546.978C159.622 546.965 158.609 547.008 157.581 547.052C155.411 547.145 153.179 547.241 151.161 546.808C150.035 546.574 149.026 546.054 148.019 545.536C147.202 545.115 146.386 544.696 145.511 544.429C143.287 543.748 141.699 544.157 139.75 544.658C139.391 544.751 139.019 544.846 138.629 544.939C137.814 545.139 137.006 545.241 136.204 545.342C134.957 545.499 133.726 545.654 132.511 546.171C130.769 546.893 129.877 547.021 128.008 547.021C122.74 546.978 117.473 546.256 112.247 545.364L111.939 545.311C107.804 544.6 103.055 543.783 98.9928 545.109C96.1438 546.029 93.662 547.671 91.1659 549.323C88.935 550.799 86.6927 552.283 84.1665 553.266C82.9572 553.739 81.7443 554.315 80.5192 554.897Z"
        fill="white" />
</svg>
