<svg width="288" height="200" viewBox="0 0 288 200" fill="none" xmlns="http://www.w3.org/2000/svg">
<path
    d="M288 108.902C287.719 107.714 286.864 107.758 286.188 107.748C284.529 107.709 282.86 107.617 281.196 107.544L279.708 107.427L275.89 107.364L274.901 107.398C273.898 106.137 273.584 108.503 272.633 107.505C272.585 107.49 272.538 107.486 272.49 107.495L272.604 106.687C275.129 105.563 277.63 104.356 280.131 103.187C280.664 102.842 281.106 102.452 280.179 101.42L280.107 101.114C280.107 99.4342 282.371 99.7166 281.206 97.3411C280.645 96.1972 279.275 95.2577 278.4 96.4113H278.072C277.63 93.4955 276.85 94.4642 275.795 94.7417C274.074 95.1895 271.958 93.3593 270.294 94.435L269.718 94.7758L267.436 94.9851L267.983 96.3529L269.861 96.7326C270.47 97.5504 271.045 97.3752 271.625 97.2291C271.05 97.3752 270.47 97.5504 269.861 96.7326L267.983 96.3529L267.436 94.9851H266.908C265.225 93.6805 264.564 96.5428 263.019 95.7931L262.382 96.056L261.222 96.4162L260.894 96.5038C258.84 96.5136 256.624 95.944 254.789 96.645C252.83 97.4044 250.709 97.4238 248.613 97.5261C246.52 97.6332 244.457 97.8327 242.584 98.9377L242.26 98.4753C243.007 97.0831 243.691 95.5984 244.533 94.3961C244.68 94.1819 245.508 95.1214 246.021 95.5254C245.769 94.2549 245.598 92.9504 245.227 91.7334C245.094 91.2953 244.443 90.755 244.119 90.7793C242.921 90.8523 241.766 91.1444 240.596 91.3489C240.877 91.7334 241.153 92.118 241.39 92.5123C241.148 92.118 240.872 91.7334 240.596 91.3489L239.003 91.8405C237.135 92.376 234.834 91.5484 233.878 94.9072C233.716 95.4719 232.68 95.8223 232.394 95.4573C231.8 94.6881 232.799 94.9121 232.77 94.3231C232.761 94.1576 232.694 93.8509 232.646 93.8314C232.366 93.7049 232.062 93.5394 231.81 93.588C231.239 93.6951 230.711 94.0359 230.126 94.0456C227.507 94.0894 224.882 94.0505 222.267 94.0407C221.116 93.4371 220.341 94.0456 219.771 95.3307L218.82 95.6422L217.251 97.4433L216.59 97.4969L216.433 96.9079L215.91 95.8564C215.249 95.1409 214.512 94.4983 213.989 95.3307C212.976 96.9468 211.474 96.4357 210.166 96.7424L209.682 95.4183L209.334 95.6617C208.16 95.91 206.838 95.613 206.039 97.2145L205.978 97.2291L205.959 97.122C205.379 97.7938 205.255 95.1263 204.623 96.2215L204.161 96.5866L203.619 97.2827C203.462 96.4405 201.717 97.0393 202.749 95.1263L202.759 94.9461L202.882 94.9169L203.329 95.0678L203.586 95.0192C204.237 94.8293 204.884 94.6297 205.531 94.4204L206.12 94.6492L210.675 93.5588L212.016 93.1353C213.989 92.965 215.43 91.0373 217.55 91.198C218.963 91.3148 220.242 90.3899 221.578 89.9226L222.719 89.9421L224.164 89.1778C225.015 89.0805 225.866 88.9977 226.713 88.8858L228.786 87.6542C229.789 87.6396 230.63 87.1236 231.458 86.6076C231.81 86.5054 232.166 86.3983 232.518 86.2912C233.236 86.0673 233.921 85.7363 234.601 85.3664C236.365 84.9623 238.11 84.5388 239.598 83.3219L240.221 82.9763C240.606 82.9471 241 82.9568 241.414 83.0152C244.272 83.1564 246.711 81.6523 249.292 80.7322L251.465 78.9993C253.947 80.2114 255.036 76.7991 257.142 76.7699L262.41 75.1732C263.323 73.7811 265.572 73.8784 264.141 69.8722C264.593 68.8841 265.487 67.0149 264.474 66.4648C263.152 65.7395 261.674 65.1116 260.347 65.3549C260.347 65.3452 260.352 65.3403 260.356 65.3306C260.685 64.4982 262.097 63.3105 261.117 62.8432C259.776 62.2055 257.993 62.0887 256.924 63.3884C255.046 61.5045 253.738 62.8675 252.996 63.7827C252.644 64.2208 252.083 64.5518 251.413 64.7465C250.752 64.9266 249.977 64.9899 249.202 64.9022C248.432 64.8098 247.647 64.581 246.948 64.211C246.254 63.8362 245.631 63.3251 245.165 62.6777C246.078 61.9475 247.005 61.1979 247.928 60.4336C247.305 59.7959 246.696 59.1437 246.093 58.4914C246.701 59.1388 247.305 59.7959 247.928 60.4336L248.403 59.9907C249.478 60.5553 250.144 59.9712 250.8 59.3238C251.456 58.6812 252.112 57.9365 253.258 58.1555C254.76 58.4086 256.073 56.5491 257.29 55.3371C257.979 54.6604 257.661 53.8281 257.223 52.9616C256.786 52.0951 256.234 51.1995 256.401 50.4206C256.106 50.2454 255.607 49.8414 255.559 49.9241C254.946 50.9317 254 51.326 253.011 51.5305C252.022 51.7593 250.985 51.8031 250.125 52.2412C249.33 52.3434 248.541 52.4602 247.757 52.5381C246.625 53.0005 245.489 53.4338 244.362 53.8427C243.986 53.8524 243.611 53.8427 243.245 53.8816C242.926 53.9059 242.631 54.0276 242.308 54.0179C242.023 54.0082 241.362 54.4511 241.756 53.2391L241.899 53.132L242.37 52.431L244.329 51.3601C245.47 50.3865 246.597 49.4081 247.685 48.381L247.952 48.0597L247.681 47.4464C248.56 47.7141 248.698 46.9742 248.57 45.9374C248.874 45.4555 248.964 44.6426 249.202 44.0876C249.44 43.5278 249.834 43.2553 250.776 43.781C250.643 43.2991 250.481 42.4618 250.362 42.3985C249.112 41.717 247.861 40.8846 247.015 41.7122L246.506 42.1746L246.083 42.4667C244.452 39.95 244.153 42.3839 243.116 42.1308C242.103 41.8047 241.081 41.4493 240.083 41.0891L239.698 40.4222C240.344 40.6656 240.834 40.3638 240.682 39.4097C240.501 38.2999 239.864 38.4751 239.389 38.1344C237.848 37.0245 236.883 37.7498 235.818 38.3631L233.578 36.9418L233.883 36.0315L234.201 35.5982V35.5885L234.415 35.2575C235.979 35.35 236.921 34.0357 237.834 32.9356C239.878 32.2736 240.596 29.5135 241.566 27.8341C241.775 27.4934 241.495 26.442 241.414 25.7264C241.029 25.6485 240.649 25.5852 240.235 25.483C239.788 25.3711 239.436 25.3224 239.821 26.5393C239.897 26.7827 239.764 26.9677 239.721 27.1819C239.503 26.8849 239.222 26.6075 239.084 26.2862C238.119 24.0908 237.815 24.5679 237.487 25.3467C236.536 24.4851 235.737 24.4316 234.924 24.3001C234.506 24.232 234.082 24.1444 233.645 23.9156C233.193 23.6868 232.713 23.3217 232.204 22.7035C231.472 21.9247 230.949 21.6083 230.583 21.6034C230.217 21.6034 230.027 21.9101 229.87 22.3871C229.575 23.3363 229.608 24.9281 229.28 25.9308C228.733 27.031 228.125 28.1262 227.521 29.2312C228.125 28.1311 228.733 27.031 229.28 25.9308C227.863 24.4024 227.721 26.9531 226.67 26.6902L224.597 26.6123L224.369 27.2938C224.369 27.362 224.364 27.4253 224.354 27.4934C222.353 28.0678 220.456 28.7882 219.671 32.0156L219.438 32.3563C218.43 32.7798 218.278 31.3876 218.05 30.1804C217.313 30.6575 217.118 32.1567 216.072 31.9279C214.289 31.5531 212.287 30.4433 211.493 33.4954C211.426 33.7582 211.056 33.9578 210.908 33.802C208.902 31.6651 208.179 32.8041 207.732 35.5009C207.442 37.2679 206.097 37.1219 205.16 36.2311C204.252 35.3695 205.326 34.8194 205.331 33.9919C205.331 33.6706 205.231 33.0086 205.179 32.9842C204.903 32.8431 204.532 32.6484 204.371 32.8382C203.548 33.8166 202.859 35.3256 201.366 33.3396C201.28 33.2276 201.09 33.2617 201 33.3542C199.73 34.5857 198.565 36.2116 197.129 37.005C195.689 37.8228 194.091 38.8499 192.227 36.4647C191.894 36.0412 191.671 34.98 191.243 35.2721C190.939 35.4814 190.73 36.0899 190.573 36.6399C190.026 38.5822 190.069 41.8679 187.805 39.9938L187.202 39.1371C186.531 38.0467 186.265 38.3777 186.255 39.6336L186.022 39.6628C185.1 38.7039 184.891 40.6851 184.125 40.3638L183.802 40.3103C183.265 40.1691 182.727 40.1107 182.195 39.877C181.277 39.4779 180.612 40.6607 179.87 41.4006C179.128 42.1308 178.315 42.4423 177.16 40.3249L176.798 41.0842C176.128 42.4326 174.987 40.8019 174.207 41.4639C173.342 41.9117 172.567 42.934 171.459 41.9702C169.899 40.6023 168.521 40.5293 167.356 42.306L166.557 42.9583L162.706 43.3331C161.702 43.4694 160.699 43.5911 159.696 43.6934L159.073 43.7615L163.029 41.9166C163.343 41.6781 163.604 41.3812 163.029 40.208L162.981 39.8965C162.958 38.2609 164.322 38.9473 163.595 36.4258C163.243 35.2088 162.406 34.0503 161.893 35.019L161.693 34.9557C161.389 32.0448 160.927 32.848 160.295 32.9258C159.263 33.0573 157.941 30.8765 156.953 31.6602L156.61 31.8939L155.231 31.7186L155.593 33.1449L156.739 33.8312C156.786 33.9432 156.834 34.0357 156.876 34.1184C156.829 34.0357 156.781 33.9383 156.739 33.8312L155.593 33.1449L155.231 31.7186L154.913 31.6261C153.862 30.0782 153.524 32.7652 152.569 31.777L152.188 31.9279L151.494 32.0983L151.294 32.1324C150.054 31.8306 148.689 30.9349 147.591 31.3438C145.251 32.2103 142.441 30.2194 140.249 31.8598L140.354 32.4585L140.977 35.3549L141.319 36.124C141.353 36.1434 141.381 36.1386 141.405 36.1094L141.495 34.9411V34.9119C141.419 33.8118 141.59 33.7728 141.814 33.9481C141.59 33.7728 141.419 33.8118 141.49 34.9119V34.9411L141.4 36.1094C141.376 36.1337 141.348 36.1386 141.314 36.124L140.972 35.3549L140.349 32.4585L140.245 31.8598L140.026 31.3633C140.425 30.1025 140.787 28.7444 141.253 27.6784C141.338 27.4885 141.876 28.5205 142.204 28.9927C142.004 27.7125 141.852 26.4128 141.581 25.1666C141.486 24.7188 141.063 24.1006 140.868 24.0762C140.135 23.9837 139.436 24.1103 138.723 24.1492L137.768 24.4316C136.645 24.7285 135.191 23.6284 134.758 26.807C134.687 27.3425 134.064 27.5567 133.873 27.1673C133.474 26.3397 134.097 26.6805 134.049 26.1012C134.035 25.9406 133.978 25.629 133.95 25.5998C133.774 25.4441 133.579 25.2445 133.422 25.2591C133.075 25.2883 132.77 25.5706 132.414 25.5122C130.811 25.2688 129.2 24.9427 127.593 24.6458C126.851 23.9205 126.413 24.4559 126.133 25.6631L125.567 25.8773L125.905 26.6415C125.967 26.6659 126.033 26.7 126.1 26.7389C126.033 26.7 125.971 26.6659 125.905 26.6415L125.567 25.8773L124.711 27.4983L124.307 27.4837L124.179 26.8898L124.383 26.1986L123.794 25.8043C123.347 25.0352 122.852 24.3342 122.581 25.1033C122.058 26.5929 121.107 25.9454 120.323 26.1499L119.942 24.8064L119.743 25.0157C119.039 25.1617 118.207 24.7626 117.827 26.2765H117.789L117.769 26.1791C117.46 26.7924 117.204 24.1541 116.885 25.1812L116.628 25.5025L116.343 26.145L115.792 26.6367L114.784 26.7C114.708 26.9287 114.655 27.2354 114.574 27.435C114.655 27.2354 114.712 26.9336 114.784 26.7L115.792 26.6367L116.343 26.145C116.191 25.3029 115.159 25.7507 115.658 23.9497L115.63 23.3558L116.148 22.8593H116.362L119.895 21.3892L120.323 21.5109L120.87 21.0339L121.34 20.7613L123.385 20.8148L125.529 20.1187L126.879 19.6465C126.78 19.1646 126.708 18.7217 126.684 18.3566C126.708 18.7265 126.78 19.1695 126.879 19.6465C129.095 19.1744 131.335 18.8336 133.517 18.1813C135.338 17.6362 136.76 15.139 138.899 16.0931C140.677 16.6285 142.137 15.4603 143.716 14.9491L145.023 13.5813C146.597 15.139 147.191 11.9603 148.499 12.2524C148.48 12.1648 148.461 12.0723 148.446 11.9798C148.465 12.0723 148.484 12.1599 148.499 12.2524L151.751 11.5514C152.298 10.3394 153.7 10.8018 152.754 6.65933C153.02 5.76366 153.572 4.10861 152.925 3.39305C151.832 2.17124 150.562 1.09546 149.583 1.91812L148.304 2.24913C147.438 0.413975 142.85 -0.788365 142.037 0.608686L141.895 0.623289L141.866 0.550272V0.623289H141.842C141.804 0.569743 141.771 0.540537 141.733 0.540537L140.758 0.24847L140.497 0.64276L140.23 0.667099L140.135 2.04955C140.097 2.57527 139.898 2.71643 139.712 2.89167C139.898 2.71643 140.093 2.57527 140.135 2.04955L140.23 0.667099C140.035 0.783925 139.855 1.09546 139.641 0.978636C138.913 0.584347 138.776 2.95495 138.286 2.38542C137.487 1.46055 136.764 0.141379 136.232 1.47028C135.314 -0.116613 135.076 1.96193 134.43 1.8305C134.092 1.02245 133.997 1.70393 133.816 1.85484L133.574 1.61145C132.366 0.564876 131.439 1.18795 130.507 1.79155L130.327 1.87917L130.027 1.91812C129.456 1.70393 129.342 2.63368 129.319 3.79221C129.399 4.0502 129.456 4.27899 129.499 4.47857C129.461 4.27899 129.399 4.0502 129.319 3.79221L129.147 4.45423L129.19 5.29148C129.19 5.29148 129.157 5.30122 129.143 5.30122C129.157 5.30122 129.176 5.29148 129.19 5.29148L129.147 4.45423C128.016 3.21781 127.098 4.17676 125.89 2.78945C125.405 2.23452 125.011 4.71222 123.989 2.2686C123.618 1.37779 123.266 2.18584 122.943 2.55093C122.434 3.12532 121.863 4.12809 121.264 3.64131C118.706 1.53843 117.08 5.69551 114.436 2.77484L114.242 2.78458C114.042 2.78458 113.766 2.58987 113.652 2.82839C112.268 5.63223 109.682 3.26162 108.313 6.16768C108.16 6.48896 107.694 6.49869 107.523 6.11901C106.049 2.83326 105.065 4.73656 103.867 4.24978C101.851 3.43686 100.058 4.04533 98.2232 4.35687C97.006 4.56619 95.8506 5.13572 94.6667 5.54461C94.6382 5.56408 94.6096 5.57381 94.5763 5.58355C94.272 5.41805 93.9297 5.0481 93.673 5.11624C92.1182 5.5154 90.592 6.07033 89.0324 6.45975C87.7011 6.79076 86.3461 6.97087 85.0005 7.21425L82.5614 7.35542L82.1525 7.97363C81.0684 9.80391 79.3377 7.37976 77.9779 8.24136C76.0427 9.4729 73.7035 9.26846 71.5829 10.057C70.4608 10.4757 69.0201 9.1857 68.1215 10.758C68.1263 10.8456 68.1405 10.9332 68.1643 11.016L66.7094 11.0793C65.2735 10.87 64.4509 13.5472 62.725 12.121L61.4317 12.4228L60.9705 12.3449L60.6805 13.0069L60.4475 13.4109C59.3777 12.1696 58.693 13.1189 57.8752 13.2941L56.3347 14.1265C55.6976 14.3115 55.9686 17.8017 54.5327 14.9638C53.52 12.968 53.1634 14.4478 52.8401 15.027C52.5168 15.6063 53.287 15.4797 53.3964 16.1174C53.4439 16.3851 53.558 16.8135 53.52 16.8817C53.4059 17.0861 53.249 17.2808 53.0731 17.2419C51.5563 16.8865 50.0158 16.4825 48.4468 16.1271L48.1853 16.3803C47.3342 16.6431 46.4974 16.8865 45.6368 17.164C45.8935 17.164 46.1455 17.164 46.3975 17.164C46.1455 17.164 45.8935 17.1689 45.6368 17.164L45.0805 17.3344L45.1518 17.641C45.2564 18.2057 45.3563 18.6681 45.4609 19.0381C45.361 18.6681 45.2564 18.2057 45.1518 17.641L45.0805 17.3392L44.4481 17.3733L44.2152 17.4317L43.0883 17.4804L42.8553 17.5485C42.551 18.4053 41.8759 18.1083 41.3386 18.2738C40.5683 18.5075 39.8076 18.8093 39.0469 19.1403L36.7789 20.1431L36.5364 20.2453L36.1893 20.1139L36.0134 20.1723L34.7201 20.8051L34.2494 20.5958L31.1304 21.8127L30.227 22.2898C28.7911 22.5234 28.1159 24.4364 26.4946 24.4072C25.4153 24.3732 24.6403 25.3272 23.7274 25.8627L22.8525 25.9114L21.9254 26.7389L20.033 27.2159C19.5909 27.654 19.1534 28.0873 18.7208 28.5448C17.3419 28.7347 16.7571 30.3557 15.616 30.8911C14.841 31.2513 14.0374 31.5434 13.3005 31.9718C12.5635 32.405 11.8931 32.955 11.3843 33.7631C10.7282 34.391 10.0816 35.0774 9.43969 35.7345C8.79781 36.3966 8.16069 37.0586 7.53783 37.7547L6.72954 38.8694L6.56788 39.0836C5.90223 39.8916 5.19854 40.6948 4.6375 41.6197C3.91955 42.7928 3.55819 44.3651 2.70711 45.3289C2.15557 45.9471 1.1048 46.0007 1.77996 47.7531C1.86078 49.155 1.92735 50.518 2.09852 51.915C2.18886 52.6452 1.64207 53.609 2.50266 54.0179C3.68181 54.5728 4.97032 54.6556 5.23183 53.5263C7.25731 55.1034 7.65194 53.8524 7.82786 53.0151C7.99428 52.2071 8.92619 51.7447 10.0863 51.7641C11.2465 51.7836 12.6443 52.319 13.7617 53.3851C13.3765 54.1299 12.9867 54.8503 12.6301 55.6097L12.4636 56.0332C11.5032 55.6243 11.2512 56.1695 11.0325 56.7731C10.809 57.3669 10.6426 58.0484 9.75825 57.9073C8.60762 57.7369 8.38416 59.353 7.9705 60.3703C7.49979 61.4948 10.0863 63.2083 10.3954 64.5128C10.6711 64.6637 11.1751 65.0142 11.1799 64.9461C11.2512 64.0991 11.7837 63.7681 12.3971 63.5636C13.0247 63.3689 13.7284 63.2861 14.1658 62.8773C14.6793 62.7458 15.1833 62.6144 15.7016 62.5073L17.5559 61.1492C17.8126 61.1151 18.0741 61.0956 18.3166 61.047C18.5258 61.0032 18.6827 60.8717 18.9109 60.8571C19.1106 60.8474 19.4007 60.4044 19.5766 61.5045L19.5195 61.6116L19.4577 62.2639C19.1392 62.6193 18.8206 62.9697 18.5163 63.3397C18.1264 64.2305 17.7318 65.0921 17.3799 65.978C15.6825 66.9175 16.1675 68.3632 17.8079 70.2276C17.7033 70.4223 17.437 70.4466 16.8474 70.1497C17.1137 70.5537 17.5273 71.2547 17.6367 71.318C17.4845 71.7463 17.5511 72.3937 17.2183 72.6517L16.2246 71.9654C14.0517 69.9939 12.844 69.9745 12.031 70.6998C11.2179 71.4251 10.8471 72.9097 10.229 73.9417L10.1244 74.19C9.05932 73.6837 8.62664 74.4139 8.01805 74.7936L7.9182 75.4069C7.22402 77.023 4.85621 77.2128 5.60744 80.0264C5.01787 79.3887 4.75161 79.4374 4.60421 80.0702C4.29992 81.3991 3.89102 82.6453 3.65804 83.9937C3.53442 84.7336 2.57398 85.5854 3.8197 86.3886C5.03689 87.1772 5.23658 85.7704 5.55514 84.9331C6.62494 85.5659 7.05286 85.0938 7.45225 84.5632C7.85639 84.0326 8.24627 83.4485 9.18294 83.872H9.18769L10.267 83.9693L10.5618 83.7941L11.7932 83.5409C11.7029 82.7232 11.6221 81.9005 11.546 81.0779C11.6268 81.9005 11.7077 82.7232 11.7932 83.5409L12.1403 84.0131C12.3828 84.4171 12.5682 84.7774 12.7109 85.1132C12.573 84.7822 12.3828 84.4171 12.1403 84.0131L11.7932 83.5409L10.5618 83.7941C11.4129 85.8483 9.28754 85.2495 9.15441 86.4227L8.45548 86.7196L7.64719 87.4498C7.59489 87.479 7.55685 87.5228 7.52832 87.5812L6.35392 88.9929C5.38873 89.8496 4.46158 90.716 3.53442 91.5874C2.61202 92.4587 1.66584 93.33 0.771971 94.2208C0.372581 94.62 -0.421444 95.0532 0.277488 95.9148C1.03823 96.8592 1.78946 96.4357 2.39806 96.1436C3.89577 95.4281 5.4553 94.7758 6.97678 94.1089L8.36514 93.5588L11.8788 91.9817L12.7632 91.5241C14.1706 92.2348 13.5239 89.9518 14.7982 90.4629C14.8505 90.4532 14.8933 90.4386 14.9313 90.4094L15.15 91.1931C14.2086 92.2397 13.3242 93.3106 12.4208 94.3766C11.5222 95.4427 10.6188 96.499 9.763 97.5796C9.43018 98.1248 9.20195 98.6651 10.4667 99.1908L10.6616 99.4342C11.3748 100.948 9.23999 101.673 11.2892 103.299C12.2782 104.083 13.8853 104.346 14.1658 102.934L14.4558 102.803C16.0819 105.237 16.3529 104.029 17.1707 103.343C18.5163 102.233 21.1599 103.036 22.1774 101.381L22.5482 100.846L24.4929 99.7555L23.4564 98.7284L21.6258 99.1324C20.9697 98.7576 20.5513 98.8842 20.1947 99.1324C20.5513 98.889 20.9697 98.7625 21.6258 99.1324L23.4564 98.7284L24.4929 99.7555L24.9636 99.5511C26.9653 100.067 26.4375 97.2194 28.1254 97.3216L28.5961 96.8446L29.4948 96.0706L29.7563 95.8662C31.6011 95.0922 33.8025 94.8293 35.2003 93.5345C35.9611 92.8579 36.8217 92.337 37.7203 91.8794C38.1672 91.6507 38.6284 91.4413 39.0896 91.2369C39.5556 91.0373 40.0311 90.8572 40.497 90.6674C41.4337 90.2877 42.3561 89.8885 43.2072 89.3871C44.0583 88.876 44.8761 88.3162 45.5702 87.5228L46.0077 87.8684L47.0251 88.3065L46.0029 87.8684C45.7414 89.4017 45.5702 90.9643 45.2041 92.3516C45.1423 92.5999 44.101 91.9622 43.502 91.7383C44.1438 92.8579 44.7287 94.0261 45.4609 95.0581C45.7271 95.4281 46.4784 95.7396 46.7541 95.6276C47.7716 95.1895 48.7226 94.6541 49.6925 94.1478L50.943 93.2522C51.6752 92.7264 52.6356 92.5853 53.3726 92.0888C54.1143 91.602 54.6516 90.8134 54.6278 89.0853C54.6183 88.5061 55.4742 87.9609 55.826 88.253C56.563 88.8663 55.6025 88.8566 55.7832 89.4164C55.8355 89.5721 55.9781 89.8496 56.0257 89.8642C56.311 89.9275 56.6248 90.0248 56.8387 89.9323C57.3237 89.7182 57.7041 89.2801 58.2176 89.1486C58.7976 89.0075 59.3682 88.8468 59.953 88.73L61.7027 88.399C62.8676 88.1994 64.0135 87.9414 65.1784 87.8149C66.3195 88.2627 66.8615 87.5617 67.1421 86.228L67.9266 85.7899C68.2879 85.1424 68.6635 84.5145 69.0439 83.872L69.6335 83.7551L69.8569 84.3198L70.4751 85.308C71.1645 85.9505 71.8919 86.52 72.2343 85.6487C72.9142 83.9791 74.3263 84.4415 75.4294 84.0423L75.9809 85.3274L76.2567 85.0646C76.7512 84.8991 77.298 84.8991 77.7877 84.7384C78.2774 84.5729 78.7149 84.2419 79.0191 83.4387L79.0715 83.4241L79.0952 83.5312C79.5659 82.8546 79.8179 85.4978 80.3172 84.4172L80.707 84.0618L81.154 83.3754C81.3299 84.2127 82.8276 83.648 82.0003 85.5319V86.1306L81.2491 86.6904L80.9495 86.7099C79.2949 87.3719 77.6688 88.0193 76.095 88.7981L76.2329 89.3531L75.5055 88.7641L74.7828 89.3579L74.1552 89.7328C73.2328 89.8837 72.3151 90.0784 71.3879 90.2439L71.3499 90.2585C71.0266 90.3169 70.7033 90.3704 70.38 90.4337L68.9013 90.8085C67.8315 90.8377 66.8615 91.3294 65.8726 91.7918C64.8836 92.2543 63.8899 92.6583 62.725 92.5609C61.1797 92.4441 59.7058 93.3154 58.1938 93.773L56.9243 93.7487L55.2697 94.5129C54.3188 94.5957 53.3583 94.7222 52.3931 94.8342L49.9873 96.0901C48.9793 96.129 48.0902 96.572 47.2344 97.0539C46.3738 97.5407 45.5465 98.0567 44.6288 98.3C43.3878 98.6213 42.1374 98.8793 40.9249 99.2736C39.7125 99.6874 38.5429 100.223 37.4778 101.055C35.091 102.379 32.7232 103.713 30.3791 105.164L28.7626 106.337L28.4392 106.566C27.1555 107.466 25.8242 108.289 24.6213 109.296C23.1045 110.635 21.8541 112.324 20.2517 113.429C19.2152 114.145 17.7793 114.188 17.8364 116.175C17.2611 117.771 16.6905 119.373 16.2198 120.994C15.9726 121.821 14.7554 122.955 15.7016 123.423C16.9948 124.06 18.7065 124.158 19.6289 122.809C21.5688 124.581 22.7717 123.169 23.4326 122.201C23.7512 121.734 24.2837 121.359 24.9398 121.106C25.596 120.862 26.3805 120.75 27.1793 120.765C28.7816 120.794 30.4647 121.364 31.5107 122.59C30.5788 123.403 29.6802 124.284 28.7768 125.126L28.3204 125.608C27.1745 125.131 26.5517 125.783 25.9383 126.484C25.325 127.19 24.7259 127.959 23.5705 127.808C22.0823 127.658 20.9317 129.566 19.8238 130.768C18.5924 132.146 21.2027 134.073 20.9317 135.636C21.2265 135.806 21.7304 136.201 21.778 136.113C22.0585 135.597 22.4246 135.222 22.843 134.959C23.2662 134.701 23.7417 134.536 24.2314 134.404C25.2108 134.146 26.2331 133.991 27.0842 133.499L29.471 133.017C30.5883 132.433 31.7342 131.922 32.8753 131.391C33.2605 131.342 33.6503 131.308 34.026 131.24C34.354 131.177 34.6488 131.021 34.9911 131.007C35.2859 130.992 35.9563 130.491 35.6092 131.737L35.4666 131.858C35.3145 132.107 35.1623 132.35 35.0149 132.608L33.0608 133.888C31.9339 134.945 30.8594 136.084 29.7896 137.184L29.5328 137.529L29.8466 138.123C28.9242 137.924 28.8244 138.678 29.005 139.72C28.425 140.757 28.7816 143.03 26.7941 142.052C26.9463 142.529 27.127 143.371 27.2506 143.429C28.5676 144.038 29.9227 144.787 30.788 143.862L31.3015 143.342L31.7342 143.001C33.5505 145.391 33.7835 142.913 34.8628 143.049C35.9373 143.264 37.0261 143.527 38.0912 143.789L38.5334 144.417C37.8487 144.237 37.3494 144.583 37.5587 145.527C37.8059 146.622 38.4668 146.389 38.985 146.681C40.6682 147.65 41.5906 146.793 42.6461 146.111C43.4354 146.52 44.2199 146.939 44.9902 147.357L44.7524 148.292L44.4672 148.75V148.759L44.2817 149.11C42.6842 149.12 41.8378 150.565 40.9059 151.758C39.8409 152.191 39.1419 153.179 38.5286 154.241C37.9105 155.302 37.4541 156.548 36.8169 157.507C36.5602 157.901 36.8074 158.957 36.8455 159.722C37.3209 159.722 37.8059 159.736 38.2861 159.77C38.8186 159.809 39.2656 159.795 38.8377 158.583C38.7521 158.339 38.9137 158.125 38.9613 157.891C39.2085 158.164 39.5318 158.407 39.6887 158.719C40.768 160.851 41.1627 160.291 41.5335 159.449C42.6461 160.199 43.5257 160.135 44.4149 160.155C45.3277 160.204 46.2549 160.335 47.3817 161.474C49.0031 162.881 49.5404 162.564 49.7401 161.605C49.935 160.651 49.7924 159.069 49.9968 158.052C50.4295 156.942 50.8907 155.847 51.3661 154.727C50.8954 155.847 50.4295 156.942 49.9968 158.052C51.466 159.507 51.3614 156.996 52.3456 157.215C52.9732 157.215 53.6103 157.229 54.257 157.254L54.4234 156.582C54.4234 156.519 54.4234 156.455 54.4234 156.387C55.3363 156.105 56.2064 155.759 56.9576 155.117C57.7041 154.469 58.2746 153.462 58.617 151.87L58.8357 151.539C59.7961 151.135 59.9673 152.517 60.2098 153.72C60.8992 153.262 61.0514 151.773 62.0593 152.006C63.7853 152.41 65.6634 153.544 66.4764 150.551C66.5477 150.293 66.9091 150.108 67.0517 150.268C68.9536 152.435 69.681 151.349 70.1898 148.667C70.5178 146.905 71.8587 147.119 72.7573 148.058C73.6274 148.969 72.5386 149.455 72.5053 150.278C72.491 150.599 72.5718 151.261 72.6194 151.286C72.8429 151.417 73.1329 151.588 73.3183 151.529C73.2755 151.661 73.2232 151.787 73.1852 151.923C72.9855 152.571 72.0441 153.131 73.0568 154.202C74.041 155.238 74.3739 154.002 74.7495 153.306C76.4707 155.073 76.4944 151.987 78.0302 153.306H78.0349L78.9526 153.705L79.2236 153.627L80.3029 153.744C80.3504 151.899 80.4265 150.049 80.5311 148.214L80.8877 147.951C80.8687 147.849 80.8497 147.752 80.8402 147.659C80.8544 147.752 80.8687 147.849 80.8877 147.951L80.5311 148.214C80.4265 150.049 80.3457 151.899 80.3029 153.744L80.5454 154.279C80.921 155.307 81.0636 156.056 81.0494 156.626C81.0589 156.056 80.9162 155.307 80.5454 154.279L80.3029 153.744L79.2236 153.627C79.7228 155.764 77.9731 154.606 77.7306 155.672L77.0888 155.754L76.2995 156.207C76.2519 156.222 76.2092 156.251 76.1806 156.295C75.786 156.626 75.3914 156.942 75.0015 157.283L72.2485 158.972C71.3356 159.546 70.437 160.165 69.5431 160.773C69.1438 161.046 68.383 161.265 68.9441 162.233C69.5527 163.28 70.2611 163.061 70.8364 162.944C72.2438 162.652 73.6464 162.379 75.0538 162.19C74.8731 161.722 74.7114 161.26 74.6021 160.827C74.7114 161.255 74.8731 161.717 75.0538 162.19L76.3233 162.053L77.9066 161.781L79.4899 161.552L80.2934 161.382C81.4298 162.448 81.0874 160.131 82.1144 160.977C82.1572 160.987 82.2 160.982 82.2333 160.973L82.3426 161.756C80.5834 163.168 78.8622 164.609 77.1839 166.113C76.851 166.522 76.6133 166.95 77.6688 167.773L77.8162 168.05C78.3155 169.603 76.4564 169.735 78.111 171.75C78.9193 172.728 80.2411 173.371 80.5692 172.193L80.8259 172.154C82.0479 174.807 82.3522 173.809 83.0701 173.42C84.2445 172.762 86.3841 174.33 87.316 173.127L87.6536 172.748L89.313 172.363L89.7076 172.324C91.2766 173.42 91.0817 170.674 92.4272 171.292L92.8457 171.005L93.6302 170.586L93.8584 170.489C95.3941 170.377 97.1391 170.81 98.3658 170.105C99.6686 169.316 101.247 169.267 102.759 169.121C104.29 169.009 105.75 168.79 106.976 167.753L106.791 167.179L105.759 164.404L105.27 163.703C105.227 163.694 105.193 163.703 105.165 163.738V164.93L105.174 164.959C105.445 166.41 104.989 166.059 104.575 165.831C104.989 166.064 105.445 166.41 105.174 164.959V164.93L105.165 163.738C105.193 163.703 105.227 163.694 105.27 163.703L105.759 164.404L106.791 167.179L106.976 167.753L107.281 168.206C106.934 169.545 106.658 170.976 106.249 172.154C106.178 172.363 105.431 171.448 104.994 171.054C105.384 172.285 105.726 173.551 106.192 174.734C106.358 175.162 106.915 175.683 107.138 175.668C107.97 175.6 108.74 175.337 109.544 175.167L110.595 174.705C111.84 174.203 113.566 175.079 113.823 171.823C113.871 171.273 114.574 170.966 114.817 171.331C115.335 172.105 114.593 171.852 114.684 172.426C114.708 172.587 114.798 172.889 114.831 172.913C115.045 173.045 115.283 173.215 115.454 173.181C115.849 173.098 116.181 172.777 116.59 172.777C118.445 172.811 120.304 172.942 122.158 173.079C123.028 173.726 123.513 173.152 123.808 171.915L124.455 171.648L125.42 169.939L125.89 169.92L126.047 170.509L125.814 171.219L126.504 171.57C127.032 172.31 127.607 172.977 127.911 172.183C128.505 170.64 129.618 171.229 130.531 170.976L130.968 172.305L131.197 172.081L131.43 171.433C131.43 171.433 131.415 171.39 131.406 171.37C131.415 171.39 131.42 171.409 131.43 171.433L131.197 172.081C132.01 171.886 132.975 172.246 133.441 170.703L133.484 170.694L133.503 170.801C133.873 170.168 134.13 172.811 134.515 171.76L134.824 171.419L135.167 170.757L135.823 170.241L137.002 170.134C137.126 169.822 137.211 169.379 137.382 169.219C137.211 169.379 137.126 169.817 137.002 170.134L135.823 170.241L135.167 170.757C135.328 171.594 136.546 171.107 135.923 172.938L135.942 173.531L135.328 174.057L135.081 174.067C133.712 174.617 132.347 175.167 131.002 175.737L131.106 176.296L130.507 175.639L129.884 176.15L129.352 176.462L127.027 176.55L124.621 177.426C124.117 177.616 123.622 177.825 123.123 178.024C120.656 178.701 118.207 179.324 115.868 180.268C114.902 180.682 114.089 181.554 113.238 182.259C112.397 182.98 111.489 183.486 110.305 183.218C108.336 183.009 106.976 184.469 105.441 185.321L104.366 186.962C103.401 186.368 102.945 186.923 102.555 187.594C102.165 188.276 101.851 189.079 101.181 189.118L99.6686 189.897C99.1646 190.155 98.6844 190.437 98.1899 190.705C98.0948 191.367 97.6764 191.683 97.5528 192.302C97.4339 192.925 97.6098 193.835 98.6796 195.66C98.7129 196.595 98.7652 198.299 99.5592 198.795C100.234 199.219 100.919 199.603 101.509 199.754C102.108 199.91 102.612 199.842 102.911 199.331C103.254 199.126 103.577 198.907 103.929 198.712C104.575 199.496 105.954 199.915 107.233 199.988C107.88 200.027 108.488 199.973 108.964 199.813C109.444 199.657 109.805 199.404 109.91 199.029L110.034 198.99L110.072 199.058L110.057 198.985H110.076C110.119 199.024 110.157 199.048 110.191 199.043L111.127 199.16C111.18 199.019 111.227 198.868 111.279 198.727L111.522 198.664C111.679 198.523 111.783 198.187 112.007 198.27C112.749 198.542 112.444 196.191 113.005 196.668C113.928 197.461 114.807 198.659 115.097 197.267C116.196 198.698 116.115 196.629 116.757 196.673C117.194 197.427 117.185 196.741 117.342 196.571L117.603 196.78C118.887 197.656 119.724 196.96 120.556 196.249L120.722 196.147L121.017 196.079C121.602 196.235 121.626 195.3 121.54 194.147L121.649 193.47L121.53 192.638C121.53 192.638 121.564 192.628 121.578 192.623C121.564 192.628 121.549 192.638 121.53 192.638L121.649 193.47C122.885 194.58 123.756 193.558 125.077 194.833C125.591 195.344 125.857 192.842 127.051 195.208C127.483 196.074 127.792 195.237 128.101 194.847C128.596 194.239 129.157 193.197 129.799 193.65C131.163 194.614 132.266 194.059 133.374 193.587C134.496 193.124 135.647 192.769 137.083 194.181L137.292 194.166C137.511 194.156 137.806 194.346 137.934 194.103C138.68 192.672 139.774 192.526 140.877 192.38C141.966 192.229 143.083 192.073 143.882 190.598C144.058 190.272 144.586 190.247 144.766 190.627C146.354 193.898 147.505 191.971 148.874 192.433C151.157 193.217 153.258 192.584 155.441 192.238C156.886 192.01 158.293 191.421 159.739 190.987C159.772 190.968 159.81 190.958 159.848 190.948C160.205 191.109 160.595 191.474 160.913 191.401C161.869 191.187 162.815 190.929 163.771 190.676C164.731 190.418 165.696 190.16 166.666 189.946C168.345 189.571 170.037 189.352 171.763 189.045L174.878 188.792L175.434 188.149C176.898 186.256 179.076 188.558 180.811 187.614C183.322 186.266 186.194 186.28 188.828 185.346C190.202 184.864 191.928 186.027 193.031 184.387C193.026 184.299 193.007 184.211 192.988 184.129L194.728 183.963C196.445 184.085 197.453 181.315 199.454 182.629L200.971 182.24C201.066 181.534 201.404 181.203 201.684 180.789C201.404 181.208 201.066 181.534 200.971 182.24L201.508 182.289L201.855 181.602L202.131 181.179C203.353 182.376 204.147 181.364 205.093 181.13L206.857 180.195C207.58 179.976 207.337 176.457 208.916 179.256C210.029 181.223 210.452 179.709 210.823 179.1C211.198 178.492 210.328 178.667 210.214 178.034C210.167 177.766 210.043 177.343 210.09 177.265C210.224 177.051 210.399 176.842 210.599 176.876C212.297 177.153 214.008 177.489 215.725 177.801L216.019 177.538L218.82 176.657C218.544 176.657 218.268 176.671 217.993 176.681C218.268 176.666 218.544 176.657 218.82 176.657L219.429 176.472L219.362 176.165C219.291 175.741 219.215 175.372 219.139 175.06C219.215 175.372 219.286 175.737 219.362 176.165L219.429 176.472L220.113 176.423L220.37 176.36L221.592 176.287L221.844 176.218C222.196 175.357 222.914 175.659 223.489 175.479C225.153 174.967 226.751 174.237 228.377 173.59L228.634 173.493L228.99 173.634L229.176 173.58C229.637 173.381 230.093 173.166 230.55 172.962L231.025 173.176L234.296 172.057L235.247 171.633C236.721 171.482 237.525 169.579 239.151 169.735C240.23 169.832 241.076 168.961 242.023 168.523L242.893 168.552L243.877 167.817L245.769 167.554L247.181 166.4C248.536 166.42 249.283 164.867 250.438 164.526C252.012 164.069 253.652 163.84 254.846 162.457L259.078 159.391L260.028 158.51L260.219 158.344C260.984 157.706 261.788 157.142 262.491 156.392C263.385 155.438 264.065 154.065 265.068 153.394C265.724 152.96 266.69 153.228 266.495 151.369C266.766 150.02 267.056 148.701 267.284 147.319C267.403 146.608 268.192 145.878 267.507 145.211C266.566 144.296 265.349 143.814 264.778 144.836C263.29 142.728 262.529 143.823 262.135 144.593C261.364 146.068 258.06 145.367 256.344 142.757L258.089 140.825L258.379 140.45C260.1 141.73 259.986 138.586 261.655 139.321C262.743 139.798 263.466 138.284 264.232 137.447C265.087 136.507 263.114 134.064 263.276 132.701C263.052 132.472 262.667 131.98 262.634 132.048C261.84 133.674 259.986 132.691 258.778 133.285H257.033L254.608 134.219C254.328 134.205 254.038 134.171 253.762 134.176C253.524 134.18 253.315 134.283 253.063 134.249C252.844 134.224 252.392 134.609 252.545 133.47L252.64 133.372L252.915 132.725L254.294 131.829C255.06 130.987 255.83 130.164 256.581 129.303L256.61 129.254C257.903 130.836 258.612 130.822 259.601 129.785C260.071 129.293 260.742 129.021 261.374 129.006C263.751 128.952 263.618 127.03 262.344 123.963C263.371 124.727 263.357 123.077 263.994 122.892L264.64 123.914C267.175 129.244 268.767 125.92 270.546 124.537L270.722 124.352C271.478 125.253 272.1 124.761 272.761 124.669L273.061 124.148C274.25 122.97 276.399 123.817 276.779 120.95C277.06 121.782 277.312 121.85 277.678 121.339C278.443 120.273 279.299 119.343 280.026 118.214C280.426 117.601 281.61 117.245 280.825 115.975C280.06 114.734 279.323 115.921 278.714 116.544C277.316 114.481 276.418 117.503 275.072 115.941H275.067L274.14 115.396L273.812 115.43L272.619 115.143L270.969 120.658L270.508 120.872C270.498 122.055 270.051 122.42 269.523 122.59C270.056 122.42 270.503 122.05 270.508 120.872L270.969 120.658L272.619 115.143L272.49 114.568C272.424 114.091 272.395 113.677 272.4 113.312C272.4 113.677 272.424 114.091 272.49 114.568L272.619 115.143L273.812 115.43C273.836 113.205 275.5 114.641 276.071 113.638L276.817 113.677L277.835 113.366C277.892 113.361 277.949 113.337 277.996 113.298L279.608 112.524C282 111.784 284.396 111.063 286.778 110.289C287.311 110.109 288.204 110.075 287.948 108.985L288 108.902ZM263.485 84.091C263.485 83.906 263.499 83.7357 263.514 83.575C263.495 83.7357 263.485 83.906 263.485 84.091Z"
    fill="#E8E8E8" />
</svg>
