<svg width="308" height="200" viewBox="0 0 308 200" fill="none" xmlns="http://www.w3.org/2000/svg">
<path
    d="M259.246 58.6163C257.474 58.6163 255.727 58.7133 254.004 58.8925C245.182 35.8907 222.667 19.5388 196.281 19.5388C189.304 19.5388 182.595 20.6844 176.34 22.7927C163.5 8.79543 144.95 0 124.317 0C89.8385 0 61.1699 24.5503 55.2661 56.911C53.1343 56.6311 50.961 56.4818 48.7537 56.4818C21.8275 56.4818 0 78.0357 0 104.62C0 131.204 20.5575 151.474 46.3801 152.698C55.6251 174.83 77.6907 190.41 103.445 190.41C117.808 190.41 131.022 185.566 141.506 177.442C152.819 191.205 170.088 200 189.44 200C218.347 200 242.608 180.375 249.31 153.885C252.518 154.541 255.841 154.885 259.246 154.885C286.173 154.885 308 133.335 308 106.75C308 80.1664 286.173 58.6163 259.246 58.6163Z"
    fill="#EBEBEB" />
</svg>
