<svg width="224" height="200" viewBox="0 0 224 200" fill="none" xmlns="http://www.w3.org/2000/svg">
<path
    d="M219.82 65.4869C220.374 65.2002 220.734 65.063 221.024 64.845C221.405 64.5624 222.059 64.1506 222.009 63.8962C221.896 63.3068 221.51 62.7052 221.074 62.2571C220.894 62.0714 220.298 62.2571 220.114 62.2612C219.867 60.5736 219.653 59.096 219.431 57.5699C220.319 57.7314 221.112 57.8768 221.904 58.0221C221.606 57.251 220.91 56.8634 220.63 56.2861C220.344 55.6967 220.474 54.9215 220.412 54.0576C218.735 55.0628 217.821 54.0212 216.987 52.798C216.861 52.6123 216.744 52.4185 216.614 52.2328C215.7 50.953 215.683 50.9651 214.174 51.72C213.851 51.8815 213.453 51.9461 213.084 51.9703C211.449 52.0793 211.445 52.0753 211.235 53.8961C214.01 55.1274 214.576 56.1004 213.943 58.551C213.49 58.6035 213.038 58.6559 212.224 58.7488C213.444 59.6814 214.362 60.3879 215.402 61.1873C214.786 61.6637 214.388 61.9745 214.207 62.1118C214.291 63.5409 214.358 64.7481 214.417 65.7453C215.054 66.1207 215.746 66.3791 216.203 66.8434C216.71 67.3642 217.003 68.0747 217.41 68.7409C215.381 69.4514 214.111 70.9613 213.109 72.7538C212.862 73.1939 212.459 73.8883 212.132 73.8883C211.005 73.8802 210.87 74.5302 210.841 75.3053C210.812 76.0886 210.51 76.9606 211.642 77.3926C212.593 77.7559 212.48 78.4584 211.969 79.6897C211.407 78.7491 211.093 78.1273 210.686 77.5621C209.822 76.359 209.152 74.8168 207.957 74.0942C207.731 73.9569 207.517 73.8116 207.307 73.6622C207.986 72.6287 208.619 71.4781 209.479 70.0731C207.651 70.1781 206.364 70.2548 204.88 70.3396C205.115 68.9629 206.138 67.6306 204.021 67.1825C203.656 67.1058 203.501 65.9754 203.312 65.3133C202.658 63.0363 202.033 60.7512 201.329 58.2199C199.556 58.0504 197.825 57.8848 196.454 57.7516C195.406 56.5768 194.773 55.2849 193.746 54.8367C192.891 54.4653 191.989 54.1868 191.059 53.9324C191.021 53.8638 190.979 53.7911 190.941 53.7023C189.537 53.3874 188.363 51.8573 186.523 52.7778C186.28 52.8989 185.777 52.6284 185.437 52.4588C184.267 51.8613 183.123 51.3002 181.761 51.1104C181.425 50.8803 181.111 50.6058 180.943 50.2909C180.583 49.6086 180.415 48.8132 180.277 48.0462C180.138 47.263 179.874 46.3707 180.126 45.6844C180.603 44.3885 181.413 43.2096 182.041 42.059C182.771 42.1882 183.442 42.2932 184.079 42.382C183.957 42.7898 183.907 43.2298 183.928 43.6981C183.961 44.3643 184.259 44.5621 184.649 44.5782C184.687 45.3372 184.729 46.0599 184.766 46.7866C183.978 46.6291 183.219 46.4797 182.427 46.3223C180.977 47.921 180.577 49.077 181.228 49.7902C181.769 49.2573 182.31 48.7204 182.905 48.135C184.272 50.2626 185.014 50.6825 186.011 49.9316C186.472 49.5844 186.946 49.0313 187.034 48.5105C187.118 48.03 186.695 47.4689 186.569 47.1459C186.477 47.1257 186.393 47.1095 186.301 47.0934C187.076 46.7785 187.055 46.4838 186.95 45.313C187.307 45.0506 187.671 44.7841 187.847 44.6509C187.814 43.9605 187.78 43.3227 187.747 42.6888C188.908 42.6888 189.763 42.5516 190.275 42.2689C189.411 42.1478 188.556 42.0146 187.705 41.8895C187.688 41.5786 187.671 41.2637 187.655 40.9407C187.37 40.759 186.988 40.5128 186.535 40.2261C185.944 40.537 185.219 40.7389 184.77 41.191C184.691 41.2718 184.632 41.3687 184.565 41.4575C184.045 41.3969 183.525 41.3404 183.001 41.296C182.18 41.2314 181.727 40.973 181.325 40.4038C180.507 39.2532 180.658 38.3165 181.882 37.0408C182.88 35.9951 184.116 35.1231 184.682 33.6415H181.773C182.146 33.9402 182.389 34.134 182.796 34.461C181.79 34.9253 181.056 34.9939 180.507 34.2874C179.874 33.4759 179.476 32.4384 180.188 31.6027C181.689 29.8344 181.752 27.6664 182.523 25.3935C181.413 25.2199 180.495 25.0745 179.639 24.9413C178.486 23.1165 180.293 21.5904 179.824 19.9957C182.132 18.5504 183.268 17.4658 183.232 16.7418C181.853 17.529 180.461 18.0659 179.438 18.9824C178.164 20.1209 176.596 20.4519 175.091 20.8758C174.332 21.0898 173.276 20.7386 172.534 20.3389C172.32 20.2259 172.689 19.1116 172.815 18.4212C171.591 18.6958 170.379 19.1156 169.142 19.1923C167.83 19.2731 167.436 18.7119 167.369 17.3958C167.285 15.7688 168.258 14.7716 169.557 14.0045C170.828 13.2536 172.081 12.5108 173.033 11.3804C172.836 11.2027 172.764 11.1018 172.727 11.1099C172.446 11.1785 172.119 11.2068 171.901 11.3642C168.417 13.9076 165.038 16.5722 161.999 19.6162C160.938 20.678 159.744 21.6187 158.599 22.6038C157.853 23.2497 156.989 24.1581 156.013 23.4556C155.396 23.0156 155.267 21.9417 154.931 21.1504C154.877 21.0171 154.885 20.8557 154.881 20.7103C154.868 19.4951 155.355 18.9582 156.608 18.8169C157.316 18.7361 158.029 18.6836 158.738 18.615C158.738 18.4818 158.729 18.3445 158.725 18.2113C157.752 18.0296 156.78 17.8479 155.749 17.6582C156 16.3057 156.197 15.2278 156.39 14.1902C156.264 14.0974 156.155 14.0288 156.046 13.9682C156.101 13.7219 155.975 13.6048 155.656 13.3344C155.619 13.4918 155.585 13.6412 155.56 13.7906C154.973 13.7098 154.688 14.2347 154.52 14.8685C154.193 16.1079 153.954 17.3675 153.72 18.6231C153.598 19.2811 153.468 19.7212 153.233 20.0119C153.338 19.3659 153.422 18.7159 153.531 18.066C153.896 15.9303 154.223 13.7825 154.722 11.671C154.902 10.908 154.965 10.2176 154.793 9.48287C154.797 9.47479 154.801 9.46268 154.805 9.45461C154.797 9.44653 154.789 9.43846 154.784 9.43038C154.784 9.43038 154.784 9.44653 154.784 9.46268V9.49498C154.558 9.76144 154.328 10.0239 154.08 10.3145C154.026 10.2822 153.967 10.2499 153.912 10.2217C154.206 9.98348 154.449 9.67262 154.571 9.22853C153.623 9.11952 152.81 9.0307 152.026 8.94188C152.156 7.75091 152.269 6.70931 152.382 5.66368C151.712 5.83728 151.322 6.12392 151.271 6.46304C150.865 9.0953 150.446 11.7276 150.186 14.376C150.165 14.5657 150.135 14.7514 150.102 14.9371C150.052 14.3235 150.005 13.7744 149.955 13.1648C149.427 14.0651 149.427 14.7797 149.984 15.4498C149.821 16.0635 149.574 16.6408 149.276 17.1899C149.222 17.0042 149.138 16.8225 148.995 16.6489C148.974 17.1132 148.941 17.4523 148.936 17.7672C148.714 18.1225 148.471 18.4697 148.215 18.8128C147.905 19.2287 147.13 19.6808 146.69 19.588C144.849 19.1883 143.6 20.0603 142.367 21.11C141.483 21.865 140.267 21.9417 139.638 21.1988C138.59 19.9554 137.278 20.5731 136.113 20.3308C135.861 20.2783 135.639 20.3026 135.434 20.3752C135.233 19.9957 135.04 19.6162 134.847 19.2367C135.928 18.8936 136.922 18.5787 137.907 18.2678C136.595 18.1386 135.589 18.284 134.604 18.7684C133.552 16.7377 132.411 14.8402 130.131 13.73C129.079 14.3315 127.683 14.8564 126.681 15.7809C125.922 16.4834 125.373 17.3958 124.807 18.3082C124.002 18.0579 123.201 17.7591 122.388 17.5411C121.139 17.206 120.187 16.3017 119.047 15.7607C119.143 15.2682 118.816 14.5455 118.137 13.3909C117.861 13.5927 117.592 13.7825 117.324 13.9763C116.59 13.5685 115.848 13.1527 115.048 12.7046C115.282 12.3412 115.425 11.9254 115.727 11.7074C116.058 11.4651 116.532 11.4046 116.947 11.2633C116.083 11.2512 115.282 11.126 114.511 10.8919C114.473 10.8313 114.415 10.7828 114.314 10.7667C114.26 10.7586 114.201 10.7667 114.142 10.7667C113.727 10.6173 113.321 10.4397 112.922 10.2055C112.683 10.0642 112.235 10.258 111.878 10.2903C111.472 10.3266 111.036 10.4599 110.667 10.363C109.271 9.98752 107.921 9.42635 106.508 9.13163C104.605 8.73599 102.995 7.92451 101.549 6.68105C100.543 5.81709 99.4531 5.02984 98.0236 4.84009C97.2522 4.73512 96.8666 4.26681 96.8708 3.52397C96.8791 2.93857 97.0175 2.35318 97.1097 1.77182C97.2019 1.21065 97.3151 0.649482 97.4115 0.124647C96.33 -0.291185 95.8227 0.423397 95.5712 0.948232C95.0095 2.13113 93.9447 2.77708 93.014 3.57241C91.9115 4.50904 89.9748 4.55345 88.8555 3.61279C87.9668 2.86187 87.0906 2.87802 86.118 3.3544C85.7827 3.51993 85.4473 3.70564 85.091 3.79042C84.9107 3.83079 84.5083 3.66527 84.5041 3.58049C84.4915 3.35037 84.5712 3.03546 84.743 2.90224C85.0323 2.67212 85.4222 2.55504 85.7659 2.38951C85.7114 2.28454 85.6527 2.17958 85.5982 2.07058C84.11 2.33703 82.9069 3.15658 81.8463 4.14973C81.272 3.86713 80.6935 3.8752 80.3749 3.17677C80.2198 2.83361 79.2891 2.75286 79.0502 2.34914C79.3269 2.08269 79.6245 1.93331 79.6539 1.74356C79.7545 1.12587 79.8844 0.44762 78.9412 0.128682C78.807 0.968419 78.0776 0.972457 77.4488 1.14202C76.9919 1.26717 76.3044 1.52959 76.5517 1.94946C76.9038 2.54293 76.2373 2.72056 76.3128 3.11621C76.4092 3.60875 76.5852 4.09321 76.6104 4.58575C76.6272 4.97332 76.5559 5.41741 76.3714 5.75654C75.8516 6.70124 75.009 7.38352 73.982 7.72669C73.3364 7.94066 73.0639 8.27171 72.9507 8.86114C72.9507 8.87729 72.9465 8.89748 72.9423 8.91362C72.4686 8.64717 71.9069 8.50183 71.5422 8.20308C70.5403 7.39564 69.1527 8.00526 68.2891 8.78847C67.0944 8.24749 66.0589 7.77513 64.6294 7.12515C65.1031 8.12637 65.3588 8.67139 65.6187 9.22449C65.0277 9.99963 64.4785 10.7183 63.9293 11.4369C64.3108 11.8123 64.6797 12.1999 65.0822 12.5592C66.3733 13.7139 67.2159 15.793 69.6599 14.6303C69.7983 14.5657 70.121 14.8362 70.3516 14.9654C71.3451 15.5104 72.3387 16.0554 73.7556 16.8346C73.7137 16.9194 73.4496 17.4967 73.0597 18.3284C74.3299 18.2517 75.0258 18.2073 76.1157 18.1427C76.1032 18.1104 76.0906 18.0781 76.078 18.0458C76.078 18.0458 76.0738 18.0377 76.0696 18.0337C75.9355 17.6905 75.8055 17.3635 75.6797 17.0365C75.7007 16.6408 76.0151 16.3986 76.5936 16.3905C77.2853 16.3824 77.977 16.5601 78.6687 16.6287C79.0753 16.6691 79.5868 16.8144 79.8718 16.6368C81.2007 15.8213 82.3368 16.6085 83.5609 16.8063C83.2339 17.7268 82.5757 17.7914 81.7583 17.7793C82.1398 17.9771 82.5212 18.175 82.9404 18.393C84.3658 16.8023 85.5563 18.1709 86.7972 18.6756C86.8978 18.4737 86.9732 18.3243 86.9942 18.2799C87.229 18.2355 87.4595 18.2113 87.6859 18.1871C87.5392 18.7765 87.3966 19.3619 87.1661 19.915C86.9355 20.456 86.2145 20.9122 86.2103 21.4088C86.2103 22.192 86.0174 22.85 85.703 23.4274C85.1874 23.8432 84.6844 24.2509 84.1603 24.6748C84.3196 24.7515 84.437 24.8404 84.4706 24.8161C84.634 24.7031 84.785 24.5699 84.9401 24.4447C84.4789 24.9251 83.9214 25.3491 83.3303 25.7528C83.2213 25.8254 82.9991 25.7528 82.6722 25.7407C82.6554 25.664 82.6344 25.5832 82.6177 25.5065C83.0788 25.2078 83.3974 24.9978 83.716 24.7879C83.389 24.9655 82.7853 24.7112 82.5925 25.3975C82.4667 24.8686 82.3326 24.3075 82.1733 23.6292C81.2804 23.7221 80.4839 23.8028 79.3939 23.9159C80.5929 24.8727 81.1714 25.8174 81.1169 26.8469C80.8821 26.7782 80.6432 26.7217 80.4084 26.6531C79.7545 26.4633 79.155 26.1 78.5094 25.8093C78.5765 25.5872 78.631 25.4015 78.6897 25.2158C78.7903 25.0987 78.8867 24.9817 78.9873 24.8606C78.9244 24.8444 78.8699 24.8323 78.8071 24.8161C78.8406 24.7071 78.8741 24.5941 78.9035 24.4891C78.8364 24.4689 78.7693 24.4488 78.7023 24.4245C78.6352 24.5295 78.5723 24.6385 78.5052 24.7435C77.8722 24.5941 77.2769 24.4528 76.7194 24.3236C76.9583 24.1944 77.1721 24.0329 77.344 23.7988C76.5182 23.6615 75.772 23.6292 75.1012 23.391C74.4473 23.1609 73.8771 22.7168 73.0806 22.2606C73.2735 22.6885 73.3489 22.8541 73.4244 23.0236C72.8375 22.7249 72.4267 22.2969 71.9781 21.9094C71.7098 21.6752 71.4122 21.4249 71.0768 21.3078C70.033 20.9283 68.964 20.6094 67.9034 20.2622C68.5239 18.8451 68.1172 18.2234 66.0799 17.6663C66.4614 18.1628 66.738 18.5302 67.0273 18.9097C66.6668 19.0833 66.1218 18.7725 65.7152 18.8451C63.8371 17.4806 61.7494 16.556 59.0497 18.1305C58.9324 17.961 58.8024 17.8076 58.6683 17.6663C58.379 16.334 58.0856 15.0017 57.7879 13.6694C57.7586 13.5443 57.7041 13.4232 57.6454 13.3061C58.0856 12.7368 58.2994 12.2241 58.3497 11.7558C58.379 11.8002 58.4125 11.8446 58.4419 11.889C60.2864 12.1313 61.9465 12.4421 62.8687 14.1701C63.3592 15.0865 64.315 15.3328 65.275 15.5387C65.0486 15.2561 64.751 15.0865 64.4743 14.8887C64.1389 14.6464 63.6694 14.4446 63.5227 14.1176C62.9148 12.7328 61.6237 12.2968 60.3367 11.8648C59.5696 11.6064 58.8066 11.3763 58.2449 10.8313C57.9137 9.76144 56.9495 8.8571 56.6309 7.77917C55.4487 7.90433 54.4468 8.01333 53.5539 8.11022C52.3256 9.73318 53.2018 11.1745 53.4617 12.7126C54.8283 12.9468 56.0943 13.1648 57.4861 13.407C57.3645 14.6343 57.5112 15.8132 57.7376 16.984C56.7902 16.5157 55.6206 16.5076 54.2959 16.9557C54.7445 17.8116 55.1972 18.6635 55.7212 19.6647C53.7509 20.2501 52.0196 20.7628 50.238 21.2917C50.2296 20.9929 50.3134 20.6982 50.5021 20.4035C51.0638 19.5274 51.0554 19.5234 50.1919 18.6029C50.1709 19.0187 50.3176 19.5638 50.0996 19.8181C49.9026 20.0482 49.8062 20.2783 49.7517 20.5085C49.6259 20.2703 49.5127 20.0724 49.3702 19.8988C49.0097 19.4547 48.4941 18.6877 48.1755 18.7442C47.4293 18.8774 46.6747 19.3296 46.1088 19.8383C45.874 20.0523 46.1088 20.7467 46.1172 20.9606C43.9918 21.2473 42.1263 21.5016 40.2021 21.76C40.4075 20.7184 40.592 19.7939 40.7764 18.8694C39.8039 19.2166 39.3134 20.0321 38.5882 20.3591C37.8462 20.6901 36.8694 20.5367 35.7795 20.6134C37.0497 22.5755 35.7334 23.6454 34.1907 24.6183C33.9559 24.7677 33.7086 24.9009 33.478 25.0543C31.8641 26.1242 31.8766 26.1444 32.8324 27.9046C33.0378 28.2801 33.1175 28.7484 33.151 29.1763C33.2558 30.6055 33.2768 30.9688 34.2452 31.1667C34.0397 31.2474 34.0607 31.5623 33.9475 31.9055C34.6183 31.8368 35.1087 31.7843 35.6495 31.7319C36.2154 32.3657 36.9071 32.7331 37.8294 32.9753C39.0703 33.2983 40.2273 34.0008 41.3424 34.6629C42.2395 35.1958 42.2646 35.7448 41.7867 36.738C41.6819 36.952 41.619 37.283 41.7196 37.4687C42.0424 38.0662 41.8622 38.5588 41.4178 38.9463C40.0889 40.0929 38.7307 41.2072 37.3683 42.3093C37.2132 42.4345 36.8233 42.5193 36.7269 42.4345C35.9471 41.7239 35.6202 42.5435 35.201 42.8988C35.0668 42.8099 34.9536 42.7332 34.8279 42.6525C34.9997 42.3376 35.1548 42.0186 35.289 41.6876C36.8107 41.2274 37.5401 39.6851 38.8145 38.8817C37.6701 39.4025 36.555 39.9677 35.6034 40.7631C35.7669 40.1575 35.8633 39.5237 35.8465 38.8333C35.8298 38.1672 36.2825 37.1982 36.8359 36.8631C37.5821 36.415 37.7456 36.0436 37.6491 35.6924C37.8336 35.7327 38.018 35.7731 38.2067 35.8135C37.9803 35.6237 37.7456 35.4824 37.494 35.3694C37.3263 35.1191 37.0748 34.8647 36.8484 34.5862C36.5257 34.7073 36.2196 34.8203 35.9136 34.9374C35.6495 34.8849 35.3854 34.8284 35.1255 34.7557C35.092 34.8768 35.0542 35.002 35.0207 35.1231C35.1045 35.1433 35.1884 35.1594 35.2722 35.1796C34.9243 35.3088 34.5596 35.4461 34.1446 35.6035C34.0607 34.3641 33.9936 33.3669 33.9182 32.2284C32.8031 32.2809 31.7425 32.3334 30.2543 32.4061C31.4574 34.2591 30.816 35.3694 29.6339 36.5159C29.346 35.0679 28.7144 34.383 27.739 34.461C28.1289 35.4057 28.4894 36.2818 28.8835 37.2386C28.0702 38.0783 27.2653 38.9019 26.2634 39.9355C25.8526 39.1845 25.5843 38.692 25.3831 38.3246C26.0748 37.5737 26.6281 36.9762 27.1773 36.3787C26.9845 36.2455 26.7958 36.1122 26.603 35.979C25.3202 37.2144 23.8865 38.3569 24.159 40.7308C23.4673 40.2786 23.0271 39.992 21.9498 39.2895C23.0187 41.845 22.4738 43.6658 21.7947 45.5027C21.4509 46.4313 21.2748 47.4245 21.0736 48.3974C20.7173 50.1092 21.409 51.3809 22.3816 52.4952C21.8659 52.3902 21.3545 52.3135 20.8556 52.4306C20.9017 52.6486 20.9437 52.8706 20.9982 53.125C21.6479 53.129 22.3103 53.1371 22.9894 53.1411C23.2242 53.3793 23.4673 53.6135 23.7104 53.8436C23.1613 54.8569 23.1655 54.978 23.2325 55.628C23.6853 55.2405 24.138 54.8569 24.5866 54.4734C24.6788 54.5541 24.771 54.6389 24.8633 54.7197C23.5637 55.5877 23.6098 57.3923 22.1175 58.1715C21.8869 57.9494 21.715 57.7839 21.4341 57.5134C21.3042 58.0504 21.2832 58.4783 21.0946 58.8215C20.6418 59.641 20.2813 60.4444 20.4993 61.4133C20.5454 61.6112 20.3484 61.9947 20.1556 62.0835C19.2417 62.5195 19.053 63.335 18.7931 64.1667C18.4703 65.2002 18.0386 66.1974 17.6403 67.2108C17.1918 68.3573 16.7306 69.4998 16.2821 70.6424C15.7329 72.0392 15.1712 73.4321 14.6555 74.8411C14.4543 75.3942 14.3034 75.9755 14.2447 76.5569C14.1525 77.441 14.3831 77.8447 15.2718 78.0748C15.9006 78.2363 16.1689 78.5795 16.2108 79.0963C16.3198 80.4164 16.3617 81.7447 16.4372 83.1456C15.1209 83.0325 13.8213 82.9195 12.4924 82.8064C14.1064 84.058 14.1525 84.1347 14.0645 85.3539C13.1548 85.4508 12.2325 85.3499 11.6959 84.8493C11.348 84.5263 11.2348 83.9651 10.9917 83.4686C10.5263 83.412 9.94363 83.4847 9.55377 83.2546C9.02137 82.9437 8.66085 83.0568 8.29614 83.3878C7.89789 83.7471 7.51641 83.7673 7.00917 83.5937C5.68447 83.1415 4.343 82.7217 2.99315 82.3462C2.0122 82.0717 1.06898 81.5953 0 81.7285C1.40854 82.2291 2.80451 82.7822 4.2382 83.2021C6.43066 83.848 8.66504 84.3729 10.8659 84.9946C12.6643 85.5033 14.4543 86.0402 16.2276 86.6297C17.1792 86.9446 18.0805 87.4008 19.1033 87.8368C19.9418 87.2353 20.8934 87.9014 21.8408 88.1073C22.7714 88.3092 23.9871 88.0023 24.4692 89.1812C23.3415 89.8554 22.1594 89.5768 20.9101 89.4153C21.1742 89.8433 21.3587 90.142 21.5473 90.4448C22.1426 89.9361 22.4444 90.0774 22.5241 90.8808C21.8324 90.9374 21.1742 90.9939 20.4532 91.0544C20.8431 92.1929 21.6479 91.4945 22.2893 91.551C22.4444 91.9265 22.5912 92.2737 22.7588 92.6774C22.4486 92.7783 22.239 92.8429 22.0294 92.9115C22.1594 93.0327 22.2851 93.2063 22.4235 93.2143C23.2325 93.2628 23.6476 93.7392 23.9955 94.369C24.2596 94.8494 24.6117 95.2854 24.9848 95.8264C25.2741 94.6193 25.2406 93.9612 24.9094 93.5091C24.8213 93.7836 24.7291 94.0581 24.5824 94.5103C23.723 93.4808 23.7733 92.1687 22.3312 91.4501C23.6476 90.9535 24.6495 90.6063 25.622 90.1986C26.5736 89.8029 27.5001 89.3548 28.4307 88.9067C29.3362 88.4706 30.2291 88.0104 31.0047 87.6188C31.2814 88.3293 31.4448 88.9228 31.7341 89.4517C32.103 90.1259 32.1114 90.2753 31.3065 90.4287C30.8244 90.5215 30.6484 90.6709 30.7112 91.0746C31.2855 91.3653 31.9102 91.5631 32.43 91.8982C31.8892 92.3019 31.5287 92.7743 31.5455 93.5656C31.6964 92.8752 32.4929 92.8389 33.1091 92.5321C33.1678 92.6168 33.2265 92.7016 33.2768 92.7985C32.6438 93.5615 32.8702 94.7646 31.7928 95.2935C31.667 95.3541 31.6754 95.786 31.7131 96.0283C31.8347 96.7994 31.7425 97.5019 31.3484 98.2043C30.7783 99.2217 30.2836 100.275 29.7554 101.317C29.8728 101.317 29.9902 101.317 30.1076 101.317C30.4387 101.939 30.8286 102.54 31.0885 103.19C31.4365 104.054 31.5496 104.179 32.5348 104.175C33.1049 104.175 33.2726 104.401 33.1301 104.91C33.1217 104.942 33.1133 104.979 33.1049 105.011C32.5516 105.483 31.9856 105.564 31.0927 105.358C31.0508 105.128 31.0676 104.874 31.1849 104.583C31.3568 104.143 30.7154 103.852 30.1201 104.078C30.0405 104.107 30.0321 104.296 29.965 104.47C30.1998 104.454 30.3675 104.446 30.51 104.438C30.5352 104.7 30.5561 104.963 30.5813 105.221C30.2669 105.128 29.9231 105.011 29.5291 104.87C29.4955 103.085 29.4788 101.386 29.4326 99.7102C29.5919 99.3953 29.7512 99.0804 29.9189 98.7453C29.6758 98.3335 29.5961 98.2043 29.3781 98.1882C29.3781 98.1841 29.3781 98.1761 29.3781 98.172C29.3656 97.8975 29.0051 97.6351 28.7745 97.3646C27.9822 98.2326 27.2947 99.3428 26.7916 100.485C26.5862 99.5729 27.3869 98.4829 26.1293 97.7118C25.2573 98.8947 26.1502 99.69 26.7623 100.554C26.1419 101.979 25.8023 103.432 25.8945 104.506C25.7939 104.716 25.6723 104.922 25.5005 105.112C24.7627 104.579 24.0835 104.087 23.1361 103.4C23.2032 104.204 23.2493 104.728 23.3122 105.463C22.9433 105.213 22.7588 105.108 22.5995 104.975C21.5683 104.127 20.361 103.574 19.0321 103.554C17.7409 103.533 16.4456 103.788 14.8232 103.957C15.5107 104.329 15.9341 104.579 16.3785 104.789C16.9654 105.068 17.0115 105.407 16.5587 105.835C16.3617 106.016 16.1521 106.182 15.9719 106.335C14.7645 105.758 13.6327 105.221 12.4966 104.68C14.5885 106.509 19.2626 108.871 21.2581 109.25C19.8831 107.76 17.7744 107.736 16.1647 106.61C18.005 105.766 19.6735 106.4 21.321 106.638C21.4677 107.579 21.5851 108.507 21.7653 109.424C21.933 110.272 22.4109 110.449 23.1571 109.997C21.9875 109.157 21.7863 108.067 22.239 106.779C22.6834 106.727 23.09 106.678 23.4715 106.634C23.9242 107.07 24.3309 107.466 24.6285 107.748C24.2806 108.919 23.9662 109.989 23.6476 111.059C24.0374 110.97 24.4147 110.893 24.7207 111.301C25.0268 111.709 25.2741 111.523 25.6137 111.176C25.622 111.68 25.643 112.181 25.6682 112.678C25.622 112.67 25.5801 112.666 25.5298 112.657C25.6011 112.964 25.6514 113.178 25.7059 113.412C25.7101 113.509 25.7143 113.606 25.7185 113.703C25.731 114.002 25.7394 114.293 25.7478 114.587C25.2825 114.139 24.8088 113.683 24.2638 113.158C24.6034 114.507 25.031 115.015 25.7646 114.971C25.7981 115.948 25.8107 116.917 25.7939 117.87C25.4837 118.047 25.1735 118.225 24.8633 118.398C24.8926 118.451 24.9178 118.499 24.9471 118.552C25.2238 118.471 25.5005 118.386 25.7771 118.306C25.773 118.459 25.7688 118.612 25.7604 118.766C25.4879 118.931 25.2112 119.097 24.9387 119.266C25.2238 119.218 25.4921 119.153 25.7478 119.065C25.7059 119.787 25.643 120.506 25.5298 121.216C26.0748 121.564 26.5778 121.882 27.127 122.23C27.0515 122.573 26.9803 122.912 26.9006 123.255C26.8084 123.647 26.5066 123.99 26.3934 124.188C25.0058 123.526 23.8362 122.855 22.587 122.399C21.3042 121.927 20.2687 121.228 19.4639 120.171C19.3255 119.989 19.1536 119.832 18.9063 119.569C18.6967 121.043 19.095 122.137 20.0298 123.061C20.2268 123.255 20.4364 123.449 20.5831 123.679C20.7257 123.897 20.7928 124.159 20.864 124.333C19.5938 124.563 19.946 123.409 19.1746 123.316C19.4974 124.095 19.795 124.83 20.1053 125.556C20.4574 126.388 20.8976 127.127 22.0294 126.909C22.1552 127.191 22.2642 127.393 22.3354 127.607C22.7085 128.721 23.0858 129.836 23.4422 130.954C23.8111 132.109 24.3728 133.219 24.0081 134.515C23.8697 135.003 24.0123 135.613 24.1758 136.122C24.3183 136.566 24.5698 137.135 25.2783 136.667C24.8395 136.08 24.9024 135.434 25.4669 134.729C25.8778 135.411 26.6323 135.892 26.2089 136.824C26.9258 136.869 27.2234 137.422 27.5965 137.882C28.2379 138.677 28.2924 138.701 29.2901 138.354C29.9399 138.128 30.5435 138.128 31.1262 138.564C30.946 139.037 30.7951 139.436 30.6442 139.836C30.7238 139.872 30.8076 139.913 30.8873 139.949C31.1095 139.557 31.3359 139.17 31.6293 138.657C32.5977 139.089 33.5409 139.481 34.4506 139.933C34.656 140.034 34.9327 140.413 34.874 140.538C34.5176 141.314 35.3058 141.544 35.6411 142.052C35.4567 142.23 35.268 142.363 35.1423 142.541C34.6141 143.292 33.9601 143.582 32.9792 143.401C31.7718 143.179 30.6525 143.639 29.6003 144.18C29.4033 144.281 29.3362 144.612 29.0763 145.076C29.7596 144.753 30.1369 144.576 30.4136 144.446C30.9083 145.258 31.3275 145.94 31.7467 146.626C30.8202 146.816 30.2375 146.251 29.5626 145.553C29.6716 145.888 29.7806 146.223 29.8728 146.509C28.4852 146.828 27.5378 146.631 26.8671 145.682C25.9323 146.037 25.0435 146.376 24.0165 146.768C25.0938 147.248 25.7813 146.534 26.5736 146.287C27.2318 146.824 27.9277 147.131 28.8583 147.143C30.6651 147.167 32.4761 147.341 34.0859 148.302C34.2494 148.403 34.526 148.318 34.7482 148.342C35.507 148.415 36.1903 148.641 36.6472 149.267C36.4502 149.687 36.2741 150.058 36.1023 150.434C36.1735 150.474 36.2448 150.514 36.3119 150.551C36.6305 150.139 36.9491 149.731 37.2551 149.331C37.8811 149.531 38.4317 149.609 38.9068 149.566C39.2882 147.874 39.6613 146.207 40.0638 144.406C40.4285 144.648 40.81 144.781 40.9902 145.044C41.2711 145.448 41.4597 145.924 41.6065 146.396C41.837 147.119 42.1011 147.741 43.0821 147.624C43.2372 147.603 43.4174 147.753 43.5809 147.838C44.2307 148.169 44.8511 148.572 45.5303 148.827C47.0604 149.4 47.6808 150.652 48.4186 151.996C47.7646 152.27 47.2658 152.476 46.7669 152.686C47.2951 152.896 47.7521 152.856 48.2132 152.844C49.6846 152.811 49.9739 153.078 50.2841 154.455C50.3302 154.652 50.3889 154.854 50.456 155.052C48.7665 154.846 47.0729 154.798 45.3793 154.802C45.0775 154.802 44.7757 155.056 44.478 155.226C46.5028 155.666 48.5276 155.577 50.5524 155.323C50.6991 155.722 50.871 156.146 51.047 156.643C51.2399 156.126 51.2776 155.666 51.2399 155.23C51.3363 155.218 51.4327 155.206 51.5249 155.189C51.4285 155.173 51.3321 155.165 51.2315 155.149C51.1309 154.313 50.7201 153.579 50.4098 152.779C50.7955 152.751 51.2525 152.698 51.2566 152.723C51.4327 153.692 52.5813 153.962 52.8874 154.826C52.8999 154.866 53.0467 154.862 53.2227 154.895C53.2144 154.604 53.2102 154.333 53.2018 154.035C53.7467 154.247 53.8893 154.763 53.6294 155.581C52.5394 156.32 51.5501 156.986 50.5356 157.672C50.8919 157.753 51.2105 157.826 51.5333 157.894C51.1057 158.54 50.741 159.093 50.3176 159.727C50.7788 159.828 51.1015 159.901 51.5794 160.006C50.6991 161.16 49.9152 162.186 48.9887 163.397C49.4205 163.252 49.6134 163.223 49.7643 163.131C50.7788 162.485 51.7513 161.774 52.8035 161.189C53.3904 160.862 54.0947 160.724 54.7528 160.531C54.8199 160.51 54.9457 160.672 55.1008 160.797C54.8409 161.096 54.6103 161.366 54.3378 161.681C54.69 161.859 55.0086 162.02 55.3565 162.194C55.3188 162.618 55.2811 163.013 55.2433 163.393C55.5493 163.502 55.8093 163.599 56.2117 163.744C55.4404 164.39 54.5139 164.814 54.9876 165.932C54.0192 166.211 53.818 166.897 53.9312 167.668C53.1095 168.028 52.3466 168.29 51.6591 168.682C50.9548 169.085 50.0074 168.363 49.3912 169.134C50.762 169.542 52.028 169.445 53.2311 168.758C53.512 168.597 53.8474 168.532 54.166 168.435C56.283 167.802 58.3958 167.164 60.517 166.55C60.8146 166.465 61.1584 166.522 61.5776 166.51C61.6027 167.333 61.9842 167.709 62.8478 167.765C63.4053 167.802 63.8287 168.27 63.8539 168.92C63.8664 169.19 63.8748 169.481 63.9754 169.727C64.5959 171.245 64.5959 172.836 64.6336 174.431C64.6462 174.907 64.6336 175.383 64.6126 175.86C64.5665 176.292 64.5162 176.728 64.4701 177.16C64.5162 177.16 64.5623 177.168 64.6084 177.168C64.621 177.523 64.6588 177.874 64.7174 178.23C64.1934 178.141 63.682 178.056 63.1748 177.975C63.6694 178.65 64.3611 179.473 64.8474 179.372C64.8684 179.368 64.8851 179.368 64.9061 179.364C64.9103 179.784 64.8055 180.24 64.6671 180.628C64.3192 181.601 63.8203 182.521 63.4095 183.47C62.8897 184.661 62.9023 184.665 61.5943 184.612C61.4476 184.302 61.3931 183.922 61.1667 183.753C59.5025 182.509 57.8676 181.209 55.8302 180.547C55.6122 180.478 55.3104 180.652 55.0169 180.721C54.7235 180.499 54.3546 180.224 53.9857 179.949C53.9144 180.01 53.8432 180.071 53.7719 180.135C54.8032 180.874 54.124 182.283 55.2224 182.981C54.9792 183.147 54.6816 183.272 54.6942 183.353C54.8409 184.411 54.0612 184.673 53.294 185.044C52.8035 185.283 52.4346 185.751 52.0112 186.118C52.0741 186.219 52.137 186.316 52.1957 186.417C53.1012 186.098 54.0821 185.896 54.8954 185.424C55.5242 185.057 55.8679 185.097 56.3668 185.521C56.8112 185.9 57.2975 186.3 57.8424 186.482C58.6012 186.732 58.8318 187.225 58.9701 187.887C59.1168 188.589 58.6263 188.823 58.2323 188.92C58.8695 189.534 59.5402 190.067 60.06 190.713C60.5673 191.342 60.1145 192.19 59.2677 192.328C58.9449 192.38 58.6054 192.376 58.2784 192.36C57.0124 192.307 55.7464 192.231 54.4762 192.186C54.2414 192.178 54.0025 192.267 53.7635 192.307C53.9731 192.554 54.1785 192.618 54.3881 192.634C55.4152 192.715 56.4506 192.751 57.4735 192.86C58.3748 192.957 59.1923 193.49 60.2026 193.159C60.5882 193.034 61.1751 193.389 61.6363 193.595C62.2441 193.866 62.8226 194.205 63.6065 194.617C63.573 195.267 63.5269 196.086 63.4682 197.192C63.9126 197.556 64.554 198.133 65.2582 198.638C65.908 199.106 66.2601 200.047 67.4004 199.998C67.2788 199.243 66.8847 198.464 67.1195 197.947C67.8196 196.409 66.323 194.923 67.174 193.446C67.1908 193.418 67.153 193.361 67.1363 193.317C66.323 191.048 65.363 188.843 63.7365 186.982C63.3969 186.591 63.1664 186.223 63.3927 185.771C63.6317 185.287 64.0719 184.988 64.6671 185.141C65.3253 185.307 65.887 185.089 66.4069 184.778C67.4339 184.168 68.4358 183.518 69.4713 182.872C70.033 183.308 70.6367 183.228 70.8043 182.513C70.8798 182.19 71.0182 181.936 71.19 181.714C71.4709 181.879 71.756 182.077 72.0536 182.21C71.9278 181.831 71.7895 181.524 71.6176 181.27C71.7182 181.185 71.823 181.1 71.932 181.019C74.0365 179.489 76.0738 177.907 77.2979 175.565C77.4991 175.182 77.8974 174.83 78.2914 174.616C79.2304 174.104 80.2198 173.668 81.2007 173.228C81.4648 173.11 81.775 173.086 82.1817 172.993C82.1272 173.361 82.1607 173.619 82.0475 173.789C81.6325 174.41 81.2972 175.024 80.5845 175.509C80.5216 175.553 80.4629 175.601 80.4 175.646C79.7754 175.339 79.155 175.036 78.5388 174.737C78.3333 175.428 78.3962 176.203 78.6855 176.893C78.1657 177.943 76.2415 176.905 76.0612 178.492C76.2205 178.589 76.3589 178.746 76.4595 178.73C76.8829 178.658 77.3063 178.577 77.7297 178.5C77.4865 178.827 77.2476 179.158 77.0086 179.481C76.8493 179.695 76.8116 179.986 76.6146 180.523C77.2853 180.224 77.6417 180.006 78.0315 179.901C78.8364 179.691 79.3311 179.283 79.4694 178.44C79.4862 178.335 79.549 178.234 79.6245 178.137C79.9012 178.08 80.1737 178.032 80.4503 177.971C81.402 177.769 81.9134 177.216 81.7331 176.3C81.7122 176.288 81.6912 176.28 81.6702 176.272C82.6638 175.4 83.8753 174.875 85.1287 174.427C85.4599 174.31 85.8833 174.245 86.2103 174.342C88.1219 174.895 89.9538 174.725 91.6432 173.728C92.5278 173.203 93.2739 173.24 94.1417 173.704C95.0514 174.188 95.8689 174.184 96.5941 173.236C96.6695 173.135 96.7576 173.05 96.8414 172.977C96.5647 173.962 95.4454 174.261 94.5232 174.665C94.6531 175.133 94.7747 175.577 94.9172 176.082C94.5525 176.348 94.1794 176.611 93.8021 176.861C92.4523 177.757 90.9976 178.512 89.6017 179.352C88.1806 180.204 86.7804 181.08 85.3677 181.944C86.8056 181.758 91.6977 178.815 94.9927 176.352C95.0556 176.574 95.1185 176.809 95.1897 177.067C95.5377 176.478 95.8269 175.981 96.1246 175.472C96.3551 175.287 96.5647 175.105 96.7618 174.935C96.8414 175.295 96.9169 175.537 96.8205 175.674C96.1497 176.671 95.4496 177.644 94.737 178.617C92.8212 179.396 90.788 180.038 89.522 182.214C90.1425 181.916 90.7419 181.629 91.312 181.334C90.3563 182.412 89.1489 182.84 87.7069 182.941C87.0194 182.99 86.3444 183.187 85.6653 183.317L85.6527 183.304C85.6527 183.304 85.6485 183.312 85.6443 183.321C85.6485 183.321 85.6527 183.321 85.6611 183.321C86.248 184.834 87.0026 185.226 88.562 184.717C89.4382 184.431 90.2598 183.983 91.1318 183.68C93.6512 182.796 93.6554 182.812 95.3281 184.665C95.8479 185.242 96.3803 185.812 96.9085 186.381C97.0762 186.248 97.248 186.114 97.4157 185.981C96.7953 185.21 96.1162 184.475 95.5754 183.656C95.2317 183.135 94.7831 182.412 94.9256 181.924C95.1394 181.177 95.8982 180.85 96.8163 181.217C97.0845 181.326 97.5038 181.173 97.8224 181.06C98.4302 180.846 99.0003 180.531 99.6124 180.341C100.262 180.139 100.987 180.139 101.599 179.873C103.272 179.15 104.911 178.71 106.835 180.119C106.454 179.271 106.244 178.799 106.089 178.452C107.355 177.572 108.378 176.607 109.602 176.082C109.933 175.941 110.202 175.698 110.457 175.436C110.986 175.274 111.51 175.117 112.042 174.984C112.373 174.899 112.708 174.851 113.048 174.806C112.96 175.153 112.868 175.501 112.792 175.836C112.486 176.054 112.18 176.272 111.87 176.486C111.925 176.554 111.979 176.627 112.029 176.696C112.256 176.538 112.482 176.381 112.708 176.223C112.625 176.683 112.587 177.132 112.679 177.547C112.994 178.993 112.176 179.683 111.392 180.523C110.445 180.785 109.493 181.044 108.542 181.306C110.059 182.291 110.185 182.295 111.56 181.387C111.644 181.782 111.795 182.178 111.795 182.578C111.795 183.054 111.841 183.696 111.56 183.971C110.445 185.061 109.208 186.038 108.16 186.934C108.315 186.558 108.558 185.965 108.969 184.964C107.674 185.303 106.768 185.468 105.926 185.775C103.96 186.498 103.381 188.44 102.262 189.881C101.432 190.947 101.759 191.443 103.188 191.859C103.578 191.972 103.93 192.223 104.328 192.428C102.878 194.185 102.501 194.189 101.469 192.586C100.581 191.209 100.493 191.193 98.9668 192.029C98.6985 192.174 98.4176 192.299 98.141 192.437C97.29 192.864 96.3677 193.325 96.8624 194.459C97.4367 195.763 98.4009 194.988 99.2183 194.709C101.524 193.93 102.555 194.467 103.368 196.865C102.937 197.846 101.088 196.805 100.996 198.561C105.863 197.871 110.172 196.276 114.067 193.07C113.538 195.311 114.389 196.244 118.158 197.996C119.684 196.514 121.365 195.909 122.899 197.511C123.075 196.886 123.193 196.244 123.444 195.654C123.633 195.21 124.228 194.831 124.233 194.423C124.241 192.707 125.314 191.726 126.605 190.846C126.697 190.785 126.878 190.846 127.146 190.858C127.268 191.375 127.398 191.916 127.557 192.594C128.29 192.517 128.949 192.453 129.846 192.36C128.32 191.145 127.993 189.95 128.978 188.484C129.347 187.935 129.552 187.253 129.703 186.603C130.101 184.883 131.363 184.479 132.948 184.407C133.514 186.074 131.883 186.938 131.435 188.448C132.105 188.327 132.52 188.254 133.09 188.149C132.055 189.372 131.183 190.402 130.185 191.581C131.694 191.936 132.868 192.214 134.021 192.485C133.669 191.496 133.35 190.608 133.015 189.659C134.117 189.106 134.826 188.101 136.092 188.936C136.234 189.029 136.687 188.629 137.018 188.537C137.488 188.407 137.978 188.351 138.46 188.262C138.481 188.811 138.72 189.715 138.486 189.853C137.123 190.64 137.693 191.359 138.381 192.146C138.829 192.085 139.282 192.025 139.731 191.964C139.689 192.461 139.651 192.957 139.609 193.458C139.626 194.092 139.643 194.726 139.664 195.388C141.605 196.954 143.663 198.831 146.601 197.12C147.461 198.355 148.844 198.658 150.517 198.093C150.148 197.39 149.775 196.684 149.343 195.864C150.982 195.38 152.42 194.952 153.904 194.512C154.202 195.045 154.344 195.392 154.571 195.67C154.864 196.038 155.292 196.668 155.556 196.619C156.168 196.51 156.792 196.139 157.258 195.719C157.451 195.545 157.258 194.972 157.254 194.794C159.006 194.556 160.54 194.35 162.125 194.136C161.957 194.992 161.806 195.755 161.655 196.518C162.456 196.232 162.858 195.561 163.458 195.291C164.07 195.016 164.875 195.141 165.772 195.081C164.728 193.466 165.81 192.586 167.08 191.783C167.273 191.661 167.474 191.548 167.667 191.423C168.996 190.543 168.983 190.527 168.199 189.074C168.031 188.763 167.964 188.379 167.939 188.024C167.826 186.449 167.83 186.445 165.94 186.243C164.661 188.916 163.651 189.461 161.106 188.852C161.052 188.416 160.997 187.979 160.901 187.196C159.932 188.371 159.199 189.255 158.369 190.256C157.874 189.663 157.551 189.279 157.409 189.106C155.925 189.187 154.671 189.251 153.636 189.308C153.246 189.921 152.978 190.588 152.496 191.028C151.955 191.516 151.217 191.799 150.525 192.19C149.787 190.236 148.22 189.013 146.363 188.048C145.906 187.81 145.185 187.422 145.185 187.107C145.193 186.021 144.518 185.892 143.713 185.864C142.9 185.836 141.994 185.545 141.546 186.635C141.169 187.552 140.439 187.443 139.161 186.95C140.137 186.409 140.783 186.106 141.37 185.715C142.619 184.883 144.22 184.237 144.971 183.086C145.968 181.552 147.352 180.503 148.647 179.049C149.976 180.426 151.23 179.388 152.487 178.997C153.766 178.597 154.378 177.192 153.971 175.961C153.816 175.492 153.468 174.871 153.653 174.56C153.904 174.136 154.575 173.938 155.07 173.647C154.899 172.329 154.223 171.272 153.041 170.478C152.848 169.162 153.736 168.439 154.793 168.169C158.318 167.253 161.76 165.468 165.592 166.917C165.692 166.958 165.868 166.812 166.141 166.699C166.468 165.347 168.057 164.217 167.101 162.444C166.975 162.21 167.256 161.726 167.432 161.399C168.082 160.22 168.702 159.073 168.866 157.684C168.983 156.699 169.599 155.791 170.937 155.783C170.471 154.854 169.574 154.329 170.182 153.215C170.467 152.698 170.664 152.174 170.798 151.637C174.533 150.619 177.77 149.4 180.939 147.131C180.23 147.042 180 146.941 179.824 147.002C178.336 147.49 176.759 147.454 175.351 148.556C174.206 149.453 172.521 149.703 171.008 150.159C171.066 149.004 170.903 147.83 170.677 146.651C170.459 145.512 170.471 144.329 170.362 142.965C168.66 142.642 169.159 140.898 168.736 139.529C167.151 139.557 166.262 138.661 165.931 137.385C165.977 137.341 166.019 137.301 166.065 137.252C166.002 137.252 165.952 137.252 165.893 137.252C165.893 137.236 165.885 137.22 165.881 137.2C165.579 135.774 165.198 134.353 165.835 132.993C166.036 133.07 166.241 133.15 166.438 133.227C166.56 133.025 166.728 132.835 166.694 132.791C166.61 132.682 166.526 132.577 166.447 132.468C166.468 132.468 166.489 132.468 166.51 132.468C166.677 132.468 166.841 132.266 167.143 132.068C166.946 132.012 166.765 131.963 166.589 131.911C166.627 131.871 166.652 131.83 166.694 131.79C167.449 131.051 168.073 129.937 167.403 128.794C167.776 128.701 168.245 128.564 168.866 128.386C168.534 127.761 169.566 126.642 167.977 126.501V127.712H166.812C166.82 127.349 166.954 126.889 167.13 126.626C167.147 126.598 167.164 126.578 167.18 126.554C167.193 126.61 167.206 126.663 167.222 126.719C167.445 126.634 167.679 126.541 167.918 126.453C167.918 126.186 167.918 125.916 167.918 125.645C168.493 125.116 169.067 125.104 170.169 125.451C170.417 125.762 170.672 126.069 170.932 126.36C170.932 126.364 170.932 126.368 170.932 126.376C170.689 126.19 170.417 125.976 170.09 125.726C169.687 127.195 169.678 128.175 170.06 128.665C170.341 127.938 170.618 127.208 170.932 126.396C170.953 127.583 170.974 128.738 171.008 129.872C169.264 131.576 167.537 133.259 165.818 134.939C167.05 134.939 167.91 134.301 168.706 133.534C169.486 132.783 170.304 132.064 171.071 131.301C171.129 131.503 171.373 131.697 171.544 131.895C172.421 130.934 173.137 129.614 173.552 128.358C174.118 127.611 175.77 127.732 175.145 126.178C174.688 126.513 174.273 126.816 173.863 127.115C173.967 126.469 173.959 125.887 173.817 125.455C173.431 125.645 173.037 125.835 172.647 126.029C172.844 125.774 173.007 125.516 173.158 125.254C173.837 125.266 174.357 125.1 174.408 124.333C174.735 124.135 175.066 123.95 175.397 123.788H178.315C178.315 123.627 178.31 123.465 178.306 123.3C177.992 123.231 177.677 123.178 177.363 123.134C179.715 122.504 180.805 120.506 182.67 119.4C183.257 119.052 183.869 118.564 184.372 117.95C183.639 119.694 182.905 121.487 182.087 123.332C182.679 123.699 183.404 124.143 184.142 124.6C182.054 125.116 179.966 125.637 177.879 126.154C177.891 126.465 177.904 126.772 177.916 127.082C178.357 126.973 178.801 126.876 179.237 126.759C181.123 126.239 183.014 125.718 184.892 125.177C185.227 126.279 185.567 127.397 185.907 128.52C186.175 128.487 186.443 128.459 186.711 128.427C186.988 127.074 187.164 125.686 187.424 124.325C187.55 124.281 187.676 124.232 187.801 124.188C187.747 124.034 187.692 123.885 187.638 123.732C187.604 123.74 187.571 123.748 187.537 123.756C187.726 122.884 187.956 122.032 188.296 121.22C188.439 120.873 188.615 120.542 188.799 120.211C188.849 121.931 188.849 123.655 188.887 125.375C188.929 127.216 187.407 128.681 187.554 130.571C187.579 130.902 187.114 131.499 186.762 131.592C185.018 132.064 184.926 133.732 184.108 134.951C184.791 134.68 185.475 134.41 186.158 134.139C186.246 134.301 186.334 134.466 186.418 134.628C185.559 135.141 184.699 135.657 184.112 136.005C183.404 137.64 182.788 139.133 182.113 140.599C181.614 141.677 180.583 142.101 179.526 142.622C176.956 143.889 174.496 145.363 172.001 146.768C171.649 146.966 171.343 147.232 171.012 147.466C171.096 147.612 171.18 147.753 171.259 147.898C174.374 146.433 177.489 144.971 180.821 143.401C181.178 144.539 181.471 145.48 181.87 146.756C182.557 145.972 183.022 145.419 183.513 144.886C183.911 144.454 184.293 143.99 184.758 143.631C186.313 142.432 187.94 141.334 189.025 139.634C189.269 139.259 190.099 139.23 190.48 139.101C190.929 138.213 191.31 137.272 191.851 136.424C192.408 135.548 193.1 134.753 193.758 133.938C194.555 132.948 195.389 131.988 196.185 130.998C196.546 130.546 197.087 130.078 197.137 129.577C197.292 128.031 197.254 126.469 197.288 124.991C196.575 124.551 195.993 124.184 195.402 123.828C194.165 123.082 193.691 122.25 194.165 121.111C194.454 120.413 195.129 119.864 195.703 119.157C196.018 119.747 196.265 120.413 196.383 120.393C198.286 120.05 198.634 121.503 199.174 122.637C199.95 122.44 200.629 122.262 201.669 121.996C200.688 121.463 199.971 121.075 199.019 120.554C199.64 120.478 200.03 120.304 200.222 120.421C201.639 121.305 203.027 122.238 204.398 123.191C204.628 123.352 204.742 123.675 204.892 123.933C205.215 124.478 205.4 125.193 205.873 125.54C207.165 126.485 207.651 127.716 207.768 129.198C207.819 129.86 208.024 130.51 208.158 131.164L208.146 131.176C208.146 131.176 208.154 131.18 208.162 131.184C208.162 131.18 208.162 131.176 208.162 131.168C209.734 130.603 210.141 129.876 209.613 128.374C209.315 127.531 208.85 126.739 208.535 125.9C207.617 123.473 207.634 123.469 209.558 121.858C210.158 121.358 210.749 120.845 211.34 120.336C211.202 120.171 211.063 120.009 210.925 119.848C210.124 120.445 209.361 121.099 208.51 121.62C207.969 121.951 207.219 122.383 206.712 122.246C205.936 122.04 205.597 121.309 205.978 120.425C206.091 120.167 205.932 119.763 205.815 119.456C205.593 118.871 205.266 118.322 205.069 117.732C204.859 117.106 204.859 116.408 204.582 115.819C203.832 114.208 203.375 112.629 204.838 110.776C203.958 111.144 203.467 111.345 203.107 111.495C202.474 110.647 201.803 109.912 201.27 109.149C201.971 108.826 202.792 108.531 202.616 107.845C202.176 106.133 204.444 106.929 205.069 106.202C205.136 106.263 205.203 106.319 205.27 106.38C205.567 106.327 205.869 106.271 206.167 106.218C206.578 106.137 206.989 105.992 207.404 105.992C207.898 105.992 208.565 105.948 208.85 106.218C209.982 107.292 210.996 108.483 211.927 109.492C211.537 109.343 210.921 109.109 209.881 108.713C210.233 109.961 210.405 110.833 210.724 111.644C211.474 113.538 213.49 114.095 214.987 115.173C216.094 115.972 216.609 115.657 217.041 114.28C217.159 113.901 217.418 113.566 217.632 113.182C219.456 114.579 219.46 114.943 217.796 115.936C216.366 116.792 216.349 116.876 217.217 118.346C217.368 118.604 217.498 118.875 217.641 119.141C218.085 119.961 218.563 120.849 219.741 120.373C221.095 119.819 220.29 118.891 220.001 118.104C219.192 115.883 219.749 114.89 222.239 114.107C223.258 114.523 222.176 116.303 224 116.392C223.283 111.705 221.627 107.554 218.299 103.804C220.625 104.313 221.59 103.493 223.413 99.8636C221.87 98.3941 221.246 96.7752 222.91 95.2975C222.26 95.128 221.594 95.0149 220.982 94.7727C220.521 94.591 220.131 94.0177 219.703 94.0137C217.921 94.0056 216.903 92.9721 215.989 91.7287C215.926 91.6398 215.989 91.4662 216.001 91.2079C216.538 91.0908 217.1 90.9656 217.804 90.8122C217.724 90.1057 217.657 89.4719 217.561 88.6079C216.299 90.0774 215.058 90.3923 213.537 89.4436C212.966 89.0883 212.258 88.8905 211.583 88.7452C210.275 88.4626 209.705 87.7318 209.462 86.7669C209.835 86.7468 210.212 86.7387 210.598 86.7346C210.954 86.7306 211.306 86.3632 211.621 86.0806C212.203 86.444 212.782 86.884 213.503 87.0818C213.377 86.4359 213.302 86.0362 213.193 85.4872C214.463 86.4843 215.532 87.3241 216.756 88.2849C217.125 86.8315 217.414 85.7011 217.695 84.5909C216.668 84.93 215.746 85.2368 214.761 85.5598C214.186 84.498 213.142 83.8158 214.01 82.5965C214.107 82.4593 213.692 82.0232 213.595 81.7043C213.461 81.2521 213.402 80.7798 213.31 80.3155C213.88 80.2953 214.819 80.0652 214.962 80.2913C215.779 81.6034 216.526 81.0543 217.343 80.3922C217.28 79.9602 217.217 79.5242 217.154 79.0922C217.67 79.1326 218.186 79.1689 218.705 79.2093C219.364 79.1932 220.022 79.177 220.709 79.1568C222.336 77.2876 224.285 75.3053 222.508 72.4753C223.79 71.6476 224.105 70.3154 223.518 68.7045C222.788 69.0598 222.055 69.4191 221.204 69.8349C220.701 68.2564 220.256 66.8716 219.8 65.4425L219.82 65.4869ZM78.0357 15.1753L76.6691 13.8592C78.2747 13.5968 77.8135 14.707 78.0357 15.1753ZM34.983 146.461C34.7482 146.635 34.5218 146.816 34.2745 146.978C34.2074 147.018 34.0859 147.006 33.9978 146.982C33.6876 146.897 33.3229 146.873 33.0881 146.691C31.7173 145.641 31.7299 145.625 31.3945 144.652C32.4258 145.367 33.2265 145.997 34.3667 145.892C34.5512 145.876 34.7776 146.263 34.983 146.461ZM93.5255 180.034C93.7141 179.893 93.9028 179.744 94.0788 179.59C94.0495 179.631 94.0201 179.671 93.9908 179.707C93.886 179.849 93.7057 179.945 93.5213 180.034H93.5255ZM152.537 192.21C153.061 192.671 153.552 193.099 153.967 193.462C153.879 194.491 151.661 194.814 149.398 193.987C150.664 193.268 151.552 192.768 152.533 192.21H152.537ZM43.3378 135.993C43.9163 136.743 44.3858 137.567 44.9979 138.508C44.7631 138.774 44.4906 139.073 44.2098 139.392C44.5242 139.723 44.7966 140.018 45.1362 140.377C44.9015 140.603 44.7505 140.849 44.5283 140.946C43.5097 141.402 42.4784 141.838 41.4346 142.238C40.9274 142.432 40.4872 142.254 40.2566 141.766C40.0638 141.354 39.9087 140.926 39.7703 140.494C39.2421 138.859 38.7391 137.216 38.1899 135.589C38.911 135.621 39.6571 135.577 40.4453 135.419C41.1076 135.29 41.728 135.116 42.2898 134.902C42.6503 135.258 43.0276 135.593 43.3336 135.993H43.3378ZM67.4381 157.943C67.3878 159.202 66.3482 159.005 65.6229 159.465C65.9304 158.504 66.5354 157.997 67.4381 157.943ZM30.7028 131.939C30.7238 131.786 30.7196 131.648 30.7028 131.527C30.7532 131.644 30.7993 131.762 30.8454 131.879C30.7993 131.899 30.7615 131.919 30.7028 131.939ZM30.0028 80.8726C29.7387 80.5779 29.1685 80.5375 28.6906 80.364C28.6739 80.1177 28.6571 79.8997 28.6403 79.6817C28.6236 79.4637 28.611 79.2456 28.5942 78.9509C28.9883 78.8419 29.3488 78.6925 29.68 78.5109C29.7303 78.8177 29.7848 79.1286 29.8435 79.4354C29.9357 79.9158 29.9902 80.4084 30.0321 80.909C30.0195 80.8969 30.0112 80.8928 29.9986 80.8767L30.0028 80.8726ZM50.4811 22.0426C50.8039 21.7317 51.3615 21.5299 52.0699 21.4572C51.7513 22.0143 51.4327 22.5755 51.0932 23.1649C50.8668 22.7531 50.6781 22.3979 50.4811 22.0466V22.0426ZM51.9232 25.5428C52.5772 24.9494 53.4785 24.6062 54.3169 24.1298C54.7319 25.2279 55.3691 26.1282 56.1488 26.9034C55.9183 27.3152 55.6835 27.7431 55.4404 28.2114C55.0253 28.2195 54.4007 28.2316 53.7761 28.2478C53.7761 28.1509 53.7761 28.054 53.7761 27.9571C54.2037 27.5534 54.2917 27.0891 53.6084 26.431C53.5078 26.8388 53.4198 27.1819 53.3443 27.4928C52.3298 28.0782 51.9777 27.8117 51.7471 26.4391C51.7052 26.1848 51.7597 25.886 51.8603 25.6155C51.8855 25.5913 51.9022 25.563 51.9274 25.5388L51.9232 25.5428ZM74.3299 27.8723C74.5814 27.727 74.8246 27.5937 75.0677 27.5009C74.8371 27.6462 74.615 27.7956 74.4012 27.9329C74.376 27.9086 74.3551 27.8965 74.3299 27.8723ZM73.4873 26.2938C73.9987 25.9264 74.4305 25.559 74.8791 25.2522C75.0509 25.7326 75.2228 26.2211 75.3947 26.7015C74.7575 26.7015 74.1035 26.6854 73.4873 26.2938ZM77.2769 28.3689C77.5913 27.6301 77.8093 27.1173 78.1195 26.3907C78.2914 27.0245 78.4172 27.4847 78.5807 28.0944C78.1657 28.1832 77.8093 28.2558 77.2769 28.3689ZM113.614 23.2537C113.165 23.6534 112.738 24.0894 112.34 24.5901C112.31 24.6264 112.281 24.6547 112.252 24.687C112.109 24.6345 111.962 24.582 111.79 24.5335C111.312 24.3922 110.889 24.0895 110.407 23.8432C112.038 21.869 112.553 21.7196 113.614 23.2537ZM113.438 20.9283C113.777 21.106 114.113 21.2917 114.452 21.4693C113.71 21.437 113.132 21.1504 112.65 20.5771C112.918 20.6821 113.186 20.7951 113.438 20.9283ZM115.773 20.1613C116.402 20.2743 117.077 20.3752 117.555 20.6861C117.24 20.8112 116.922 20.9687 116.624 21.0696C116.322 20.7911 116.037 20.4923 115.777 20.1613H115.773ZM122.107 22.523C123.432 23.8028 123.449 23.7584 124.966 23.9966C124.975 23.9966 124.983 24.0006 124.995 24.0047C125.457 24.3357 126.052 24.4811 126.63 24.4528C126.697 24.477 126.765 24.5012 126.832 24.5255C127.247 25.0624 127.578 25.6478 127.725 26.3341C126.5 25.7205 125.243 25.1755 123.83 24.9897C123.382 24.9292 122.987 24.905 122.66 25.0947C122.229 24.7354 121.772 24.4124 121.298 24.1096C121.558 23.5888 121.826 23.06 122.086 22.519C122.095 22.519 122.103 22.523 122.107 22.523ZM159.878 127.587C159.895 127.66 159.874 127.74 159.823 127.833C159.677 127.785 159.526 127.732 159.358 127.664C159.345 127.926 159.337 128.185 159.324 128.455C159.228 128.56 159.127 128.669 159.006 128.798C158.767 128.318 158.524 127.833 158.276 127.341C157.488 127.563 156.763 127.769 155.82 128.035C156.092 128.419 156.348 128.778 156.65 129.202C156.558 129.198 156.461 129.198 156.369 129.186C155.866 129.133 155.237 128.81 154.969 128.415C154.847 128.237 154.743 128.047 154.642 127.854C154.621 127.587 154.6 127.317 154.579 127.03C154.495 127.099 154.428 127.155 154.361 127.212C154.231 126.868 154.118 126.517 154.017 126.17C153.988 126.073 154.017 125.932 154.072 125.79C154.491 125.718 154.906 125.645 155.334 125.572C155.237 125.367 155.158 125.189 155.078 125.027C155.585 124.83 156.109 124.668 156.637 124.612C157.891 124.474 159.165 124.474 160.427 124.486C160.461 124.486 160.494 124.491 160.523 124.491C160.578 124.656 160.59 124.834 160.59 125.023C159.89 125.621 159.635 126.449 159.878 127.587ZM119.781 27.3273C119.839 27.3354 119.898 27.3434 119.952 27.3475C119.978 27.1981 120.003 27.0487 120.024 26.8993C120.112 26.7177 120.204 26.5118 120.3 26.2655C120.552 25.6317 120.845 25.014 121.151 24.3882C121.591 24.6708 122.048 24.9373 122.505 25.1997C122.371 25.3168 122.25 25.4782 122.141 25.7043C122.841 25.8699 123.423 26.108 124.019 26.1323C125.293 26.1848 126.404 26.5158 127.406 27.0406C126.97 27.1537 126.526 27.2627 126.081 27.3757C126.563 29.2288 126.542 29.358 125.649 31.0698C123.591 30.8235 121.575 30.5853 119.328 30.3188C119.265 30.1735 119.072 29.7335 118.741 28.9664C118.527 30.6459 118.347 32.0952 118.141 33.7101C117.777 33.5405 117.408 33.3669 117.043 33.1974C117.001 33.2741 116.959 33.3508 116.913 33.4275C117.307 33.6334 117.701 33.8433 118.095 34.0492C118.074 34.2147 118.053 34.3722 118.032 34.5418C118.464 34.6306 119.407 35.1352 119.986 34.8809C120.359 34.7154 120.72 34.6306 121.072 34.5741C121.487 35.1998 121.994 36.0476 121.826 36.625C121.667 37.1821 121.256 37.5454 120.703 37.6383C119.655 36.8147 118.691 35.8781 117.743 34.9495C116.758 33.9806 115.987 32.8017 114.8 32.0427C115.412 31.9337 116.024 31.8247 116.636 31.7157C116.603 31.53 116.574 31.3443 116.54 31.1586C115.702 31.2878 114.863 31.417 114.025 31.5462C114.008 31.5139 113.991 31.4816 113.97 31.4573C113.882 31.3564 113.807 31.2676 113.74 31.1909C114.163 30.9446 114.612 30.6822 115.136 30.3794C114.318 30.2179 113.903 30.1372 113.606 30.3027C113.685 30.1775 113.807 30.0241 113.954 29.8303C113.526 29.7698 113.262 29.5558 113.048 29.2894C113.174 29.1723 113.291 29.0229 113.4 28.8049C113.144 28.817 112.914 28.813 112.704 28.8251C112.629 28.7201 112.549 28.6152 112.461 28.5183C112.562 28.3891 112.671 28.272 112.805 28.1953C113.58 28.3447 114.205 28.9987 115.098 28.6797C114.511 28.3447 113.941 28.1024 113.367 27.9652C113.71 27.8562 114.088 27.7794 114.343 27.7593C114.498 27.8562 114.654 27.953 114.805 28.0499C115.056 28.4214 115.329 28.5586 115.626 28.5707C115.651 28.5869 115.672 28.599 115.697 28.6151C115.706 28.603 115.718 28.5909 115.727 28.5788C116.121 28.5627 116.561 28.385 117.047 28.3204C118.691 28.1105 119.298 28.0015 119.764 27.3273H119.781ZM151.833 124.935C151.896 125.209 151.934 125.504 151.934 125.839C151.393 125.157 150.76 124.668 150.303 124.067C150.244 123.683 150.207 123.3 150.27 122.916C150.714 123.174 151.079 123.469 151.351 123.836C151.443 124.224 151.615 124.587 151.833 124.935ZM159.228 129.686C159.396 130.203 159.521 130.579 159.635 130.93C159.14 130.748 158.473 130.643 159.018 129.703C159.09 129.699 159.157 129.69 159.228 129.686ZM147.964 133.711C147.792 133.675 147.65 133.623 147.541 133.554C147.813 133.231 147.93 132.896 147.968 132.549C147.968 132.888 147.968 133.296 147.968 133.711H147.964ZM146.539 134.063C146.484 134.079 146.425 134.095 146.371 134.111C146.383 134.172 146.396 134.228 146.409 134.289C146.354 134.37 146.312 134.45 146.237 134.527C146.186 134.579 146.161 134.628 146.115 134.68C145.784 134.769 145.449 134.85 145.101 134.919C144.849 133.889 144.556 133.037 144.443 132.161C144.359 131.515 144.438 130.841 144.313 130.215C144.363 129.884 144.346 129.585 144.275 129.311C144.669 129.517 144.778 129.472 145.084 129.331C144.736 128.964 144.38 128.584 143.935 128.116C143.881 128.181 143.81 128.257 143.747 128.334C143.629 128.193 143.499 128.055 143.357 127.926C143.701 127.567 144.011 127.498 144.514 127.825C144.916 128.088 145.218 128.524 145.486 128.931C145.801 129.416 145.977 129.634 146.379 129.791C146.333 130.223 146.216 130.659 146.153 131.091C146.031 131.071 145.914 131.047 145.792 131.027C145.696 130.7 145.604 130.373 145.495 129.997C145.264 130.615 145.055 131.176 144.845 131.733C146.14 132.105 146.928 133.134 146.534 134.059L146.539 134.063ZM156.147 119.545C156.084 119.521 156.017 119.497 155.954 119.472C155.225 119.178 154.495 118.883 153.77 118.584C153.602 118.515 153.451 118.419 153.292 118.338C153.284 118.435 153.271 118.532 153.263 118.629C152.881 118.608 152.512 118.693 152.37 119.553C152.923 119.412 153.355 119.299 153.77 119.19C154.223 119.549 154.726 119.828 155.334 120.005C155.472 120.046 155.606 120.102 155.744 120.146C155.459 120.566 155.179 120.982 154.852 121.459C154.579 120.667 154.399 120.142 154.214 119.622C154.047 119.614 153.879 119.61 153.711 119.601C153.552 120.486 153.397 121.362 153.242 122.209C153.099 122.125 152.923 122.072 152.697 122.06C152.617 122.056 152.55 122.044 152.491 122.028C152.739 120.966 152.919 119.876 151.536 118.96C151.301 118.382 151.221 117.793 151.284 117.232C151.322 117.111 151.364 116.989 151.406 116.86C152.395 117.567 153.141 118.693 154.738 118.152C155.384 117.93 156.214 118.205 157.023 118.257C157.203 117.983 157.434 117.631 157.702 117.224C157.97 117.308 158.226 117.393 158.482 117.474C158.541 117.522 158.595 117.567 158.654 117.615C158.641 117.583 158.624 117.551 158.608 117.514C158.909 117.611 159.215 117.708 159.538 117.813C159.538 117.853 159.538 117.89 159.538 117.926C159.45 117.995 159.362 118.059 159.278 118.128C159.266 118.12 159.257 118.112 159.245 118.104C159.203 118.156 159.161 118.205 159.119 118.257C158.847 118.475 158.595 118.693 158.364 118.903C158.331 118.891 158.302 118.879 158.268 118.863C158.167 118.947 158.063 119.028 157.962 119.113C157.987 119.149 158.008 119.186 158.033 119.222C157.773 119.484 157.56 119.731 157.421 119.945C157.526 119.989 157.631 120.037 157.731 120.082C157.547 120.191 157.333 120.098 156.851 119.844C156.788 119.811 156.721 119.787 156.654 119.759C156.587 119.561 156.503 119.371 156.403 119.19C156.315 119.319 156.235 119.436 156.151 119.557L156.147 119.545ZM156.193 121.955C156.059 122.052 155.925 122.153 155.791 122.254C155.849 122.092 155.904 121.935 155.962 121.778C156.042 121.846 156.118 121.895 156.197 121.955H156.193ZM152.164 133.724C152.42 133.449 152.676 133.17 152.932 132.896C153.053 132.985 153.179 133.078 153.296 133.166C153.024 133.477 152.751 133.784 152.479 134.095C152.408 134.034 152.332 133.974 152.261 133.913C152.236 133.849 152.202 133.784 152.16 133.728L152.164 133.724ZM152.236 130.627C152.646 130.728 152.952 130.805 153.246 130.877C153.238 130.877 153.229 130.877 153.221 130.881C152.948 130.962 152.68 131.079 152.42 131.212C152.349 131.039 152.29 130.845 152.236 130.627ZM153.313 130.857C153.275 130.663 153.263 130.449 153.225 130.252C153.414 130.348 153.539 130.518 153.615 130.772C153.514 130.801 153.414 130.829 153.313 130.853V130.857ZM152.437 127.159C152.86 127.732 153.141 128.423 153.187 129.315C153.049 129.38 152.927 129.44 152.793 129.505C152.286 128.75 152.299 127.963 152.437 127.159ZM150.353 125.552C150.362 125.516 150.366 125.476 150.37 125.439C150.525 125.536 150.68 125.633 150.831 125.734C150.68 125.706 150.529 125.677 150.374 125.649C150.265 125.98 150.161 126.315 150.056 126.63C148.442 126.598 147.557 126.578 147.017 126.364C147.084 125.895 147.205 125.431 147.323 124.886C147.599 125.044 147.863 125.193 148.22 125.399C148.245 125.052 148.266 124.737 148.303 124.172C148.48 124.293 148.664 124.41 148.844 124.523C148.844 124.874 148.844 125.221 148.844 125.564C149.347 125.891 149.875 124.781 150.349 125.56L150.353 125.552ZM142.229 117.385C142.443 117.49 142.657 117.591 142.871 117.696C142.808 117.789 142.749 117.886 142.686 117.979C142.606 117.922 142.523 117.865 142.443 117.809C142.359 117.672 142.292 117.53 142.233 117.389L142.229 117.385ZM162.703 113.82C162.766 113.905 162.829 113.978 162.888 114.046C162.787 114.066 162.682 114.091 162.578 114.115C162.615 114.026 162.657 113.929 162.703 113.82ZM157.262 111.503C157.245 111.462 157.228 111.418 157.224 111.378C157.216 111.277 157.199 111.188 157.187 111.091C157.388 111.067 157.589 111.059 157.782 111.063C157.643 111.228 157.509 111.398 157.371 111.563C157.333 111.543 157.3 111.523 157.262 111.507V111.503ZM158.972 113.017C159.182 113.198 159.345 113.344 159.488 113.469C159.463 113.513 159.438 113.562 159.408 113.606C159.685 113.748 159.957 113.885 160.234 114.026C160.272 113.966 160.305 113.905 160.343 113.848C160.222 113.764 160.096 113.683 159.974 113.598C159.966 113.235 159.857 112.968 159.656 112.827C159.45 112.686 159.228 112.573 158.997 112.46C159.098 112.181 159.153 111.87 159.249 111.588C159.056 111.826 158.868 112.064 158.675 112.302C158.469 112.205 158.268 112.104 158.079 111.983C158.071 111.975 158.058 111.971 158.05 111.967C158.05 111.701 158.042 111.402 158.029 111.071C158.612 111.111 159.169 111.253 159.744 111.535C160.167 111.741 160.67 111.798 161.165 111.87C160.658 112.003 160.155 112.133 159.647 112.266C159.689 112.464 159.727 112.662 159.769 112.863C160.582 112.645 161.391 112.423 162.204 112.205C162.36 112.294 162.51 112.391 162.657 112.508C162.573 112.609 162.498 112.714 162.431 112.827C162.309 112.754 162.146 112.69 161.928 112.637C162.058 112.851 162.158 113.021 162.246 113.17C162.003 113.683 161.852 114.272 161.735 114.89H158.784C158.842 114.264 158.897 113.735 158.964 113.021L158.972 113.017ZM162.376 114.733C162.368 114.616 162.418 114.49 162.489 114.325C162.758 114.422 163.03 114.515 163.294 114.607C163.294 114.607 163.294 114.607 163.294 114.611C163.294 114.636 163.29 114.66 163.29 114.688C163.273 114.737 163.244 114.781 163.202 114.825C163.039 114.922 162.871 115.019 162.699 115.12C162.565 114.991 162.385 114.866 162.376 114.733ZM140.569 117.361C140.552 117.256 140.54 117.163 140.523 117.05C140.712 117.179 140.888 117.296 141.051 117.409C140.888 117.369 140.728 117.357 140.569 117.357V117.361ZM124.597 35.0948C123.7 35.3088 123.226 35.1837 122.568 34.5902C123.289 34.7032 123.96 34.9253 124.597 35.0948ZM125.587 39.237C125.582 39.56 125.553 39.883 125.511 40.2059C125.452 40.1777 125.398 40.1454 125.339 40.1171C124.648 39.774 123.922 39.4792 123.214 39.1603C123.432 39.0029 123.721 38.8939 123.964 38.7606C124.446 38.4942 125.033 38.3085 125.494 38.0259C125.549 38.4336 125.591 38.8333 125.587 39.233V39.237ZM49.4163 75.2973C49.5337 75.5678 49.5085 75.5839 48.6576 76.0764C48.5066 75.4628 48.7162 75.1923 49.2109 75.1317C49.2738 75.1237 49.3828 75.2246 49.4121 75.2973H49.4163ZM147.343 131.079C147.339 131.899 147.432 132.722 147.494 133.542C147.096 133.271 147.058 132.799 147.075 132.25C147.1 131.519 147.1 130.785 147.096 129.997C147.142 130.005 147.18 130.017 147.23 130.026C147.18 129.957 147.138 129.9 147.096 129.836C147.096 129.424 147.092 128.996 147.092 128.54C147.13 128.467 147.155 128.39 147.172 128.31C147.721 128.148 148.446 127.882 149.205 127.769C149.574 127.712 150.089 127.898 150.362 128.148C150.529 128.302 150.496 128.972 150.324 129.089C149.951 129.339 149.431 129.436 148.962 129.489C148.739 129.513 148.488 129.299 148.174 129.158C148.194 129.925 148.207 130.171 148.739 130.603C148.698 130.619 148.656 130.635 148.614 130.651C148.714 130.684 148.815 130.712 148.911 130.74C149.154 130.922 149.486 131.14 149.926 131.43C149.209 131.842 148.626 132.173 147.968 132.553C148.044 131.879 147.842 131.176 147.981 130.494C147.691 130.655 147.352 130.865 147.348 131.075L147.343 131.079ZM151.28 131.693C151.339 131.737 151.393 131.774 151.452 131.818C151.322 131.915 151.192 132.016 151.07 132.121C151.104 131.992 151.167 131.85 151.28 131.693ZM154.273 130.058C155.216 129.989 156.122 129.921 157.015 129.856C156.029 130.122 155.065 130.385 154.101 130.647C154.118 130.441 154.164 130.239 154.277 130.058H154.273ZM153.644 123.36C153.661 123.102 153.644 122.888 153.594 122.706C154.076 122.835 154.558 122.968 155.044 123.098C154.579 123.187 154.11 123.271 153.64 123.356L153.644 123.36ZM155.535 122.96C155.594 122.964 155.648 122.968 155.698 122.973C155.64 122.985 155.577 122.997 155.518 123.009C155.522 122.993 155.531 122.977 155.535 122.96ZM156.419 122.811C156.549 122.71 156.625 122.549 156.654 122.323C156.813 122.436 156.964 122.532 157.119 122.629C156.885 122.694 156.654 122.755 156.419 122.811ZM157.631 122.476C157.17 121.927 157.023 121.233 156.86 120.538C157.363 120.732 157.866 120.934 158.364 121.14C158.658 121.261 158.905 121.507 159.274 121.782C159.27 121.806 159.266 121.826 159.262 121.85C158.717 122.105 158.176 122.306 157.635 122.476H157.631ZM59.9259 71.4054C59.8756 72.2573 59.884 73.1172 59.9259 73.9731C59.3977 74.0215 58.8695 74.0861 58.3874 74.1346C57.9766 73.1616 58.5886 72.6085 58.9533 72.0998C59.3055 71.6032 59.6241 71.0865 59.9259 70.5657C59.9427 70.82 59.9469 71.0905 59.9259 71.4014V71.4054ZM58.2239 65.18C58.1149 66.1934 58.0101 67.1704 57.9095 68.1191C58.4545 68.3735 58.8485 68.6197 59.1504 68.8822C58.8988 69.1728 58.6641 69.4716 58.4838 69.7946C57.964 70.7393 56.8866 70.5778 56.1279 71.03C55.9434 71.139 55.3146 70.9088 55.1762 70.6747C54.7948 70.0328 54.3127 69.3505 54.8535 68.535C55.2894 67.8809 55.323 66.9605 56.2452 66.6254C56.3542 66.585 56.4339 66.4195 56.4884 66.2984C56.6644 65.9067 56.8489 65.5192 57.0501 65.1437C57.4022 65.2043 57.7795 65.2083 58.2281 65.18H58.2239ZM147.515 134.244C147.666 134.095 147.813 133.95 147.96 133.804V133.812C148.236 133.57 148.513 133.328 148.928 132.969C148.966 133.199 149.029 133.368 149.108 133.502C148.597 133.788 148.069 134.038 147.515 134.248V134.244ZM155.635 132.347C155.405 132.307 155.166 132.262 154.893 132.218C155.116 131.854 155.388 131.35 155.426 131.366C155.937 131.576 156.415 131.858 156.906 132.125C156.897 132.161 156.885 132.198 156.876 132.23C156.461 132.27 156.05 132.307 155.635 132.347ZM54.7528 66.5931C53.9689 66.2095 54.145 65.7453 54.4175 65.3859C54.7151 64.9943 55.0211 64.5866 55.3775 64.2394C55.4152 64.2717 55.4571 64.2999 55.4949 64.3322C55.7715 64.5745 56.0314 64.7481 56.2872 64.8813C55.7673 65.4626 55.2559 66.0319 54.7528 66.5971V66.5931ZM33.8553 88.4101C33.6625 88.4585 33.4529 88.4989 33.2139 88.511C33.2433 88.4141 33.2684 88.3132 33.2936 88.2123C33.4948 88.2647 33.6792 88.3293 33.8553 88.4101ZM55.6332 115.73C55.2852 115.815 55.0379 115.871 54.7906 115.932C54.9625 116.275 55.1343 116.622 55.2978 116.945C54.8535 117.462 54.3085 117.563 53.8599 117.272C53.2395 116.872 52.682 116.582 51.9148 117.296C51.8813 117.163 51.8435 117.034 51.81 116.901C52.1496 116.319 52.4891 115.734 52.8287 115.152C52.7616 115.112 52.6945 115.072 52.6317 115.035C52.464 115.278 52.2921 115.52 52.0951 115.807C51.7345 115.689 51.395 115.584 51.6046 115.084C51.7262 114.793 51.789 114.446 51.9903 114.22C52.464 113.691 53.0089 113.215 53.5707 112.678C54.2456 113.671 54.9163 114.66 55.6416 115.73H55.6332ZM99.692 17.3433C100.216 18.3122 100.271 18.5504 100.233 19.4346C100.203 20.1532 100.09 20.8557 99.9561 21.5581C99.9142 21.7479 99.8681 21.9336 99.8178 22.1193C99.4028 22.4261 98.9878 22.7289 98.5769 23.064C99.1429 20.6619 98.4009 19.4951 95.064 17.7874C96.5983 17.4523 98.2164 17.7188 99.692 17.3433ZM30.2124 83.5735C30.1705 83.5291 30.1327 83.4807 30.0866 83.4362C30.1243 83.4039 30.1579 83.3797 30.1956 83.3474C30.1998 83.4241 30.204 83.4968 30.2082 83.5735H30.2124ZM30.531 83.9813C31.1472 84.1751 31.4742 84.5545 31.6628 85.039C31.0969 84.8937 30.837 84.4334 30.531 83.9813ZM32.8785 88.1194C32.7863 88.3374 32.6899 88.5675 32.5851 88.8219C32.342 88.5877 31.9605 88.3253 31.9982 88.2405C32.0527 88.1234 32.1072 88.0023 32.1617 87.8852C32.1785 87.9498 32.1952 88.0185 32.212 88.079C32.4468 88.075 32.6689 88.0911 32.8785 88.1194ZM28.9925 122.084C29.0092 121.979 29.0344 121.874 29.0637 121.765C29.047 121.87 29.026 121.975 28.9925 122.084ZM151.972 148.302C152.227 148.726 152.483 149.15 152.827 149.715C151.569 149.695 152.231 148.685 151.972 148.302ZM160.104 142.945C160.125 142.928 160.15 142.912 160.171 142.896C160.163 142.932 160.155 142.969 160.146 143.005C160.134 142.985 160.117 142.965 160.104 142.945ZM200.449 64.5664C200.503 64.845 200.537 65.1356 200.566 65.4263C200.08 65.5757 199.439 65.9067 199.12 65.7331C198.68 65.4909 198.474 64.845 198.173 64.3686C198.101 64.3766 198.034 64.3847 197.967 64.3928C197.799 64.0537 197.619 63.7186 197.41 63.3996C197.95 62.8587 198.424 62.6205 198.873 62.5639C198.889 62.7698 198.952 62.9394 199.065 63.0767C199.216 63.2624 199.56 63.2987 199.82 63.4037C199.937 63.2947 200.055 63.1816 200.172 63.0726C200.025 62.9354 199.883 62.7941 199.736 62.6568C200.411 62.8627 201.086 63.331 201.903 63.6096C201.015 64.195 200.554 64.5018 200.449 64.5704V64.5664ZM175.187 36.5805C174.785 34.3924 173.196 32.7856 171.834 31.1465C169.985 28.9301 167.897 26.8993 165.873 24.8242C165.407 24.3478 164.728 24.0693 164.217 23.6292C162.645 22.2808 162.661 21.1302 164.321 19.4346C167.637 20.7547 170.991 22.1112 174.366 23.4152C175.305 23.7786 175.724 24.3438 176.105 25.2643C176.772 26.863 177.816 28.3164 178.834 30.0605C178.788 30.2058 178.755 30.6822 178.507 31.0173C177.556 32.3294 177.891 33.5002 178.394 34.9374C178.939 36.4958 178.902 38.2762 178.906 39.9637C178.906 41.2031 178.616 42.4506 178.348 43.6739C178.16 44.5379 177.564 45.0627 176.344 45.0304C176.265 44.2553 176.214 43.5447 176.118 42.8382C175.825 40.7469 175.573 38.6476 175.192 36.5725L175.187 36.5805ZM150.55 15.7123C150.84 14.7958 151.012 13.835 151.137 12.8822C151.263 11.9294 151.615 11.2875 152.626 10.8959C152.911 10.7869 153.212 10.6698 153.497 10.5164C153.485 11.558 153.497 12.6278 153.409 13.6937C153.321 14.7999 153.015 15.8939 152.927 17.0001C152.839 18.1669 152.667 19.3134 152.412 20.4398C152.039 20.5004 151.561 20.5004 150.903 20.4519C150.274 18.9178 150.035 17.3635 150.555 15.7082L150.55 15.7123ZM130.261 16.0029C130.885 16.2411 131.51 16.4834 132.139 16.7216C132.084 16.9073 132.03 17.0889 131.975 17.2747C131.338 17.0082 130.705 16.7418 130.068 16.4753C130.135 16.3178 130.198 16.1604 130.265 16.0029H130.261ZM101.843 18.3687C101.788 18.5302 101.704 18.6756 101.604 18.8128C101.654 18.6271 101.734 18.4818 101.843 18.3687ZM83.6824 5.88573C84.2693 6.04721 84.8311 6.20063 85.4347 6.37019C85.1022 6.70393 84.2106 6.83985 82.7602 6.77795C83.1081 6.44286 83.4016 6.16026 83.6824 5.88976V5.88573ZM79.9515 3.88328C80.5048 4.18607 80.9827 4.44445 81.5529 4.75531C81.2175 5.18325 80.9031 5.58294 80.5216 6.06336C79.8425 5.373 79.591 4.72301 79.9515 3.88328ZM83.4728 11.881C83.6741 12.0021 83.8753 12.1232 84.0765 12.2443C84.043 12.317 84.0094 12.3897 83.9759 12.4623C83.7453 12.3735 83.519 12.2847 83.2884 12.1918C83.3513 12.0869 83.41 11.9859 83.4728 11.881ZM91.7522 18.4454C90.6371 18.9824 89.5011 18.9864 88.4111 18.1628C89.5723 18.1386 90.679 18.3122 91.7522 18.4454ZM76.7403 27.6947C76.5936 27.9571 76.5098 28.3931 76.275 28.4819C76.1451 28.5344 76.0151 28.5465 75.8894 28.5627C76.1535 28.2518 76.4092 27.949 76.6607 27.6503C76.6858 27.6664 76.711 27.6745 76.7362 27.6947H76.7403ZM67.5555 21.9861C67.698 21.9861 67.8573 21.9618 68.0292 21.9336C67.9076 21.5581 67.7483 21.3966 67.5387 21.3603C67.5303 21.0414 67.5219 20.7265 67.5136 20.3954C68.658 20.8557 69.8024 21.3199 70.9343 21.8044C71.2655 21.9457 71.5547 22.2041 71.8272 22.4423C72.0284 22.6159 72.2213 22.8016 72.4225 22.9752C72.2087 22.9267 71.9949 22.8743 71.7811 22.8258C71.7476 23.0761 71.7098 23.3224 71.6763 23.5727C72.1416 23.5848 72.6069 23.609 73.0681 23.5888C73.0807 23.5888 73.0974 23.5242 73.11 23.4516C73.4202 23.605 73.7682 23.6898 74.1957 23.6494C74.2461 23.6454 74.3006 23.7019 74.3592 23.7746C74.4137 23.932 74.464 24.0733 74.5185 24.2267C73.831 24.6627 73.1477 24.8929 72.4686 24.5093C71.8021 24.1379 71.1439 24.1218 70.4313 24.1339C70.1923 24.1339 69.7815 24.0087 69.7396 23.8674C69.6893 23.6857 69.6138 23.5606 69.5258 23.4637C69.6054 23.0034 69.2575 22.5957 68.8047 22.2767C68.6119 22.1395 68.0879 22.4423 67.6771 22.5916C67.8825 22.8177 68.0879 23.0398 68.2933 23.2659C68.2807 23.2659 68.2681 23.2659 68.2556 23.2659C68.2849 23.282 68.3143 23.3022 68.3436 23.3183C68.5951 23.5929 68.8425 23.8634 69.094 24.1379C69.094 24.1379 69.094 24.1379 69.0982 24.1339C69.0982 24.1339 69.0982 24.1379 69.0982 24.1419C69.0856 24.154 69.0772 24.1662 69.0604 24.1783C69.0604 24.1783 69.0688 24.1863 69.0688 24.1904C69.073 24.1904 69.0814 24.1904 69.0856 24.1904C69.0856 24.1944 69.0856 24.2025 69.0814 24.2065C69.0772 24.2025 69.073 24.1944 69.0688 24.1904C68.5239 24.2631 67.9747 24.3357 67.4297 24.4084C67.48 23.8028 67.5261 23.2013 67.5765 22.5957C67.5723 22.3979 67.5639 22.1879 67.5597 21.9901L67.5555 21.9861ZM53.0047 23.5364C53.3778 22.8985 53.7509 22.2606 54.124 21.6227C53.1724 22.0991 52.9083 23.0398 52.4556 23.8472C52.2795 23.9481 52.1035 24.045 51.9274 24.146C51.6842 23.932 51.4537 23.7301 51.2273 23.5323C51.2734 23.4435 51.3279 23.3506 51.3992 23.2537C51.8393 22.6764 52.2795 22.0991 52.5185 21.4249C53.4617 21.3966 54.5935 21.5702 55.738 21.9901C54.669 22.5957 53.8222 23.0761 53.0047 23.5404V23.5364ZM50.3009 27.6381C50.741 28.3164 50.4518 29.249 50.5566 29.9999C50.3009 30.2018 50.0703 30.3794 49.8691 30.5369C49.7936 30.5369 49.7223 30.5247 49.6511 30.5207C49.7014 30.2825 49.6762 30.0241 49.693 29.6244C49.4666 29.9676 49.2654 30.2341 49.0768 30.4561C48.4647 30.3713 47.9156 30.2865 47.4796 30.4642C47.3412 30.5207 47.2197 30.5893 47.0981 30.662C47.2826 30.4157 47.4922 30.1816 47.6556 29.9151C47.794 29.685 47.8778 29.4186 47.9868 29.1682C47.9239 29.1319 47.8569 29.0956 47.794 29.0633C47.379 29.576 46.9598 30.0847 46.4777 30.6782C45.8195 30.3148 45.2242 29.9918 44.6206 29.6567C44.7924 29.253 44.935 28.9341 45.0607 28.6071C45.0691 28.5829 44.9476 28.5142 44.8176 28.4133C44.6373 28.7201 44.4613 29.0189 44.2433 29.3863C43.866 29.3257 43.4803 29.2651 43.0569 29.2005C43.2204 28.7524 43.342 28.4133 43.4636 28.0742C43.9037 27.5413 44.3355 27.0205 44.7883 26.4714C45.3919 27.1941 45.7818 27.6583 45.9537 27.8683C47.6473 27.7795 49.0851 27.7027 50.2967 27.6381H50.3009ZM41.5142 28.5384C41.1495 28.3527 40.789 28.1589 40.4243 27.9813C40.7471 28.0257 41.095 28.0943 41.4723 28.1872C41.4849 28.3043 41.5017 28.4214 41.5142 28.5384ZM37.1 32.1921C36.9449 32.18 36.7898 31.9983 36.6682 31.8651C36.3789 31.5583 36.0981 31.2393 35.8172 30.9244C36.8401 28.9058 37.7665 28.0257 39.2505 27.9248C40.026 28.3527 40.7722 28.8574 41.5939 29.1481C41.6316 29.4387 41.6693 29.7698 41.7238 30.1897C41.8538 30.0322 41.9712 29.8909 42.0927 29.7415C42.1221 29.8707 42.185 29.9959 42.3904 30.0807C43.5516 30.5651 44.8302 30.985 45.7273 32.071C45.0649 32.507 44.39 32.8381 43.8618 33.3185C43.015 34.0856 42.1556 34.0775 41.1286 33.7343C39.7619 33.2741 38.6049 32.3173 37.1 32.1881V32.1921ZM47.9491 53.3914C48.1084 53.0927 48.427 52.8424 48.7288 52.6526C49.7601 51.9905 50.544 51.2396 50.4602 49.9396C50.6907 50.1011 50.959 50.2828 51.2734 50.4927C51.5082 52.0915 50.4266 52.9675 49.1438 53.2986C48.6827 53.4197 48.2258 53.5529 47.7646 53.6902C47.8275 53.5933 47.8904 53.4964 47.9449 53.3914H47.9491ZM22.0965 83.4887C21.2287 83.8521 20.4113 84.1306 19.5561 83.5493C19.7615 83.0689 19.925 82.6086 20.1514 82.1847C20.2687 81.9667 20.5035 81.6357 20.6754 81.6437C21.6731 81.6881 21.5054 80.6708 22.0294 80.2953C22.0797 80.259 21.8492 79.8472 21.7444 79.609C21.606 79.3022 21.2706 78.9307 21.3545 78.6966C21.7737 77.5177 22.0923 76.3348 22.151 75.0873C22.1594 74.9178 22.2474 74.6594 22.3732 74.6069C22.8343 74.4091 23.3206 74.2234 23.8152 74.1467C24.1758 74.0901 24.5656 74.2032 25.0855 74.2557C24.5489 75.8261 24.0794 77.1988 23.6056 78.5714C23.4715 78.959 23.199 79.3385 23.1948 79.7261C23.1864 80.7394 22.6624 81.3208 21.6437 81.5872C21.8072 82.2695 21.954 82.8751 22.1007 83.4928L22.0965 83.4887ZM27.7684 87.2393C27.7516 86.7629 27.8997 86.3673 28.2127 86.0524C27.9025 85.4266 27.5965 84.8089 27.3659 84.3446C27.89 83.6866 28.2631 83.2182 28.7535 82.6086C29.6632 83.6946 30.6106 84.817 31.558 85.9474C30.0153 87.0294 29.1602 87.312 27.7684 87.2393ZM26.5569 104.934C26.8587 104.785 27.1647 104.64 27.4666 104.49C27.1521 104.89 26.8964 105.302 26.6784 105.714C26.5778 105.677 26.4856 105.633 26.3724 105.604C26.4353 105.358 26.494 105.14 26.5527 104.934H26.5569ZM26.3431 105.98C26.3934 106.02 26.4437 106.057 26.494 106.093C26.364 106.38 26.2509 106.67 26.1586 106.961C25.9574 106.682 25.9658 106.364 26.3473 105.976L26.3431 105.98ZM24.3267 105.084C24.6914 105.31 25.0561 105.536 25.5675 105.851C25.003 105.958 24.5894 105.703 24.3267 105.084ZM25.0226 108.261C25.1441 108.075 25.7646 107.938 25.8191 108.015C25.8316 108.035 25.8484 108.051 25.8652 108.067C25.7939 108.427 25.7436 108.79 25.7059 109.153C25.6178 109.117 25.5298 109.072 25.4376 109.044C24.9513 108.903 24.7878 108.616 25.0226 108.261ZM24.3309 110.534C24.5363 110.158 24.7249 109.807 24.9471 109.399C25.207 109.504 25.4418 109.63 25.6598 109.759C25.6388 110.183 25.6304 110.607 25.6388 111.026C25.1483 110.841 24.7417 110.691 24.3309 110.534ZM28.3217 124.345C28.3008 124.523 28.284 124.704 28.2798 124.878C28.2337 124.83 28.1876 124.781 28.1415 124.733C28.2002 124.604 28.2631 124.474 28.3259 124.345H28.3217ZM25.316 127.498C25.4502 127.684 25.5885 127.87 25.7143 128.063C25.7143 128.072 25.5382 128.209 25.5256 128.197C25.3454 128.047 25.1819 127.882 25.0142 127.72C25.1148 127.648 25.2154 127.571 25.316 127.498ZM26.1125 127.696C27.1563 127.652 28.1163 127.837 29.0512 128.132C29.4829 129.101 30.0195 130.05 30.4723 131.019C30.0615 130.534 29.265 130.389 28.9883 129.759C28.7116 130.094 28.5062 130.296 28.2756 129.9C28.0912 130.017 27.9025 130.139 27.63 130.312C27.0515 129.489 26.0706 128.907 26.1083 127.696H26.1125ZM34.4212 136.489C34.9662 136.804 35.3896 136.909 35.159 137.656C34.8907 137.232 34.7189 136.961 34.4212 136.489ZM40.1015 143.372C40.4201 143.227 40.6465 143.126 40.8687 143.025C40.9106 143.377 40.9567 143.724 41.0112 144.168C40.8561 144.123 40.7303 144.119 40.6716 144.059C40.4914 143.869 40.3363 143.659 40.1015 143.372ZM42.8138 145.859C42.7761 145.924 42.6754 146.106 42.5329 146.364C42.055 145.637 41.51 145.056 41.5436 144.136C41.5562 143.772 41.1118 143.397 40.8728 143.025C41.2753 143.07 41.6945 143.199 42.0844 143.15C43.7067 142.941 45.1614 143.599 46.6789 143.926C46.8047 143.954 46.964 144.051 47.0184 144.156C47.6808 145.508 48.9929 145.545 50.2673 145.658C50.4098 145.67 50.5524 145.674 50.6865 145.714C50.7662 145.738 50.8207 145.831 50.9087 145.92C51.0135 146.392 50.6404 146.651 50.2883 146.566C49.3786 146.348 48.6911 146.695 47.9575 147.248C48.7037 147.616 49.4541 147.987 50.2631 148.383C49.3157 148.673 48.5108 148.92 47.488 149.23C46.3268 147.842 44.847 146.501 42.8222 145.855L42.8138 145.859ZM48.0162 149.925C48.5779 149.21 49.3115 149.166 50.1374 149.275C51.4746 149.448 51.789 149.945 51.3405 151.431C49.89 151.503 48.7456 151.14 48.0162 149.929V149.925ZM79.6413 170.624C79.5239 170.543 79.3939 170.462 79.243 170.381C79.2514 170.369 79.264 170.365 79.2682 170.353C79.4484 170.026 79.3017 169.529 79.2849 169.102C79.2849 169.102 79.2891 169.102 79.2891 169.098C79.5029 169.174 79.7125 169.263 79.9892 169.376C79.8844 169.8 79.7712 170.216 79.6371 170.628L79.6413 170.624ZM76.5349 167.66C76.5936 167.697 76.6565 167.729 76.7236 167.769C76.6942 167.781 76.6691 167.793 76.6397 167.806C76.6062 167.757 76.5727 167.709 76.5391 167.66H76.5349ZM79.2221 169.146C78.958 169.473 78.6855 169.808 78.3417 170.232C78.0818 169.211 78.8783 169.4 79.2221 169.146ZM76.3463 166.849C76.2583 166.865 76.1744 166.926 76.0738 167.002C76.0403 166.95 76.0067 166.909 75.9732 166.857C75.7133 167.333 75.5205 167.689 75.3821 167.967C74.5898 167.814 73.8017 167.628 73.0094 167.462C72.6237 167.382 72.2297 167.325 71.714 167.491C71.9069 167.709 72.1039 167.927 72.4309 168.298C71.8021 168.339 71.3284 168.371 70.8127 168.403C71.1271 169.146 71.7056 169.384 72.4015 169.384C73.4537 169.388 74.049 169.881 74.3257 170.846C74.6401 171.948 75.0006 173.038 75.3653 174.188C75.2899 174.39 75.2228 174.665 75.1054 174.951C75.7384 174.939 76.1912 175 76.5852 174.883C76.7026 174.846 76.7739 174.1 76.6565 174.039C76.3756 173.89 75.969 173.809 75.6672 173.878C75.7468 173.583 75.7007 173.28 75.554 172.989C75.1683 172.21 75.2144 171.508 75.445 170.829C75.5372 170.813 75.6253 170.797 75.7426 170.781C75.6965 170.624 75.6798 170.466 75.642 170.349C75.8055 170.002 75.9984 169.655 76.2038 169.299C77.6416 169.764 77.5997 171.092 78.2495 172.073C78.2327 171.714 78.216 171.354 78.1992 170.983C78.5388 170.797 79.0334 170.672 79.2346 170.389C79.3185 170.66 79.3898 170.894 79.4568 171.116C79.3017 171.496 79.1215 171.867 78.8741 172.226C77.8051 173.765 76.9164 175.416 75.8265 176.942C75.3402 177.624 74.6317 178.222 73.8981 178.674C72.8459 179.32 71.7727 179.945 70.6828 180.527C70.121 180.317 69.3581 180.232 68.2388 180.22C68.5071 180.599 68.767 180.963 69.0479 181.358C69.0353 181.367 69.0227 181.371 69.0101 181.379C67.9034 181.903 66.7003 182.323 65.1912 182.218C65.3966 181.241 65.5056 180.272 65.7613 179.364C66.671 179.55 67.0063 180.45 67.5932 181.031C67.3626 180.176 67.1321 179.324 66.9351 178.601C66.6416 178.553 66.3649 178.508 66.0883 178.46C66.3524 177.854 66.7213 177.285 67.2956 176.776C67.2578 175.48 67.3207 174.075 67.1488 172.699C67.0021 171.536 66.5745 170.406 66.2685 169.259C65.8745 167.777 65.4762 166.296 65.0528 164.709C65.9164 164.249 66.7716 163.789 67.6351 163.345C68.3352 162.985 69.0856 162.699 69.7479 162.283C70.6786 161.697 71.5967 161.096 72.5147 160.49C72.6111 160.587 72.7034 160.684 72.7872 160.789C73.0471 161.104 73.307 161.419 73.5628 161.734C73.0429 162.073 72.6656 162.594 72.3009 163.159C72.8459 162.864 73.3951 162.569 73.9736 162.259C73.9903 162.271 74.0113 162.279 74.0323 162.291C74.1748 162.456 74.3173 162.622 74.464 162.783C73.4873 163.514 72.5692 164.204 71.6512 164.891C71.6763 164.927 71.7056 164.963 71.7308 165.004C72.5021 164.766 73.3573 164.653 74.0239 164.257C74.4054 164.031 74.7407 163.732 75.0635 163.417C75.6211 163.97 76.2247 164.479 76.9374 164.899C77.3272 165.133 77.3566 165.932 77.4907 166.3C77.6626 166.38 77.8387 166.457 78.0105 166.534C77.4614 166.639 76.9122 166.732 76.3631 166.845L76.3463 166.849ZM96.4851 174.951C96.5689 174.81 96.6486 174.673 96.7366 174.524C96.745 174.6 96.7618 174.661 96.7743 174.729C96.6779 174.802 96.5815 174.875 96.4851 174.947V174.951ZM153.732 157.846C152.89 159.949 151.318 160.632 149.603 159.13C148.865 158.484 148.287 158.379 147.352 158.439C147.436 157.652 147.52 156.897 147.599 156.154C147.641 156.166 147.683 156.178 147.725 156.195C147.872 156.013 148.018 155.827 148.165 155.646C148.077 155.488 147.981 155.327 147.826 155.056C147.725 155.44 147.65 155.722 147.578 156.001C146.258 155.375 145.935 154.802 145.943 153.671C146.166 153.724 146.396 153.78 146.652 153.845C146.639 152.92 146.631 152.17 146.618 151.419C146.409 151.649 146.195 151.879 145.981 152.117C145.981 151.834 145.973 151.552 145.96 151.269C146.182 151.298 146.404 151.326 146.622 151.354C146.773 151.104 146.941 150.635 147.071 150.643C148.266 150.724 149.071 149.876 150.001 149.553C150.827 150.054 151.603 150.518 152.483 151.051C152.517 151.661 152.273 152.501 153.053 153.118C153.133 152.638 153.045 152.186 152.99 151.725C152.898 150.958 153.112 150.752 153.938 150.813C154.151 150.829 154.365 150.894 154.818 150.979C154.625 150.587 154.583 150.296 154.424 150.216C153.753 149.86 153.954 149.19 153.774 148.665C153.745 148.585 154.026 148.407 154.185 148.266C154.193 148.27 154.198 148.278 154.206 148.282C154.206 148.27 154.206 148.257 154.214 148.245H154.164C153.808 147.712 153.451 147.184 153.036 146.562C153.724 146.34 154.344 146.138 155.036 145.912C154.051 144.935 152.999 146.081 152.022 145.758C153.544 145.649 154.998 145.286 156.39 144.681C156.587 144.846 156.847 144.971 157.006 145.157C156.528 145.968 156.281 146.857 156.382 147.87C156.122 148.346 156.08 148.847 156.138 149.364C154.646 152.004 154.843 155.088 153.741 157.838L153.732 157.846ZM160.934 142.718C160.943 142.589 160.951 142.464 160.959 142.343C161.471 141.98 161.986 141.612 162.498 141.249C162.657 141.269 162.816 141.289 162.976 141.309C162.297 141.782 161.618 142.25 160.938 142.722L160.934 142.718ZM200.797 107.902C200.742 107.954 200.684 108.007 200.629 108.059C200.239 107.332 199.342 106.921 198.868 106.158C199.128 105.806 199.401 105.459 199.686 105.132C199.782 105.023 200.16 105.144 200.478 105.164C200.596 106.178 200.713 107.199 200.797 107.902ZM219.25 69.8672C218.504 68.648 217.984 67.7921 217.406 66.8474C217.884 66.3428 218.328 65.8704 218.705 65.4707C219.774 65.5555 220.11 67.6912 219.25 69.8713V69.8672Z"
    fill="#EBEBEB" />
</svg>
