<svg width="208" height="200" viewBox="0 0 208 200" fill="none" xmlns="http://www.w3.org/2000/svg">
<path
    d="M208 100C208 110.631 194.84 119.046 191.735 128.639C188.522 138.583 194.137 153.141 188.139 161.416C182.085 169.774 166.527 168.88 158.207 174.965C149.969 180.991 146.042 196.164 136.144 199.391C126.595 202.506 114.584 192.653 103.998 192.653C93.4119 192.653 81.4052 202.506 71.8524 199.391C61.9539 196.164 58.0268 180.991 49.7894 174.965C41.4692 168.883 25.9112 169.778 19.8571 161.416C13.8594 153.141 19.4738 138.583 16.2607 128.639C13.1604 119.046 0 110.631 0 100C0 89.3689 13.1604 80.9538 16.2645 71.3608C19.4776 61.4168 13.8632 46.8594 19.8609 38.584C25.915 30.2256 41.473 31.1203 49.7931 25.0346C58.0306 19.0092 61.9577 3.83645 71.8562 0.608597C81.4052 -2.506 93.4157 7.34744 104.002 7.34744C114.588 7.34744 126.595 -2.506 136.144 0.608597C146.042 3.83645 149.969 19.0092 158.207 25.0346C166.527 31.1165 182.085 30.2218 188.139 38.584C194.137 46.8594 188.522 61.4168 191.735 71.3608C194.836 80.9538 208 89.3689 208 100Z"
    fill="#EBEBEB" />
</svg>
