<svg width="224" height="200" viewBox="0 0 224 200" fill="none" xmlns="http://www.w3.org/2000/svg">
<path
    d="M52.0595 0.0196986C42.2166 0.0196986 32.6128 3.09268 24.2842 8.92347C16.2146 14.577 9.69915 22.5155 5.43522 31.9118C0.254743 43.396 -1.25955 56.3183 1.05174 69.2603C3.6619 83.7782 10.795 97.5672 22.2917 110.273C62.6994 154.91 108.985 197.242 109.443 197.676L111.994 200L114.544 197.676C115.002 197.262 161.288 154.93 201.696 110.273C213.192 97.5672 220.345 83.7782 222.936 69.2603C225.267 56.2986 223.753 43.396 218.552 31.9118C214.308 22.5155 207.793 14.5573 199.703 8.90377C191.375 3.07298 181.771 0 171.928 0C160.511 0 148.994 4.1958 138.613 12.1343C128.611 19.7971 119.665 30.7889 111.974 44.8931C104.283 30.7889 95.3364 19.7971 85.3341 12.154C74.9931 4.2155 63.4765 0.0196986 52.0595 0.0196986Z"
    fill="#EBEBEB" />
</svg>
