<svg width="311" height="450" viewBox="0 0 311 450" fill="none" xmlns="http://www.w3.org/2000/svg">
    <path
        d="M191.691 120.204C184.21 121.958 168.407 122.578 153.824 122.784C140.17 122.956 127.583 122.75 123.851 122.75C116.164 122.75 112.742 120.204 112.742 120.204L149.233 16.9233L150.729 12.6758L201.922 109.973C201.922 109.955 206.204 116.782 191.691 120.204Z"
        fill="#71CAC3" />
    <path
        d="M191.69 120.204C184.21 121.959 168.406 122.578 153.824 122.784C154.907 121.494 156.317 120.411 157.727 119.517C161.889 116.972 166.566 115.441 170.865 113.154C175.164 110.884 179.274 107.582 180.822 102.974C182.163 99.0186 181.424 94.6851 180.358 90.644C178.122 82.0974 174.528 73.9807 170.951 65.9156C165.878 54.4629 160.806 43.0273 155.75 31.5746C153.566 26.6908 151.416 21.7898 149.232 16.9233L150.729 12.6758L201.922 109.973C201.922 109.955 206.204 116.782 191.69 120.204Z"
        fill="#55A8A0" />
    <path
        d="M135.789 56.0439V54.9605L134.74 54.9261V54.3758L135.187 54.0491C142.823 48.5635 150.991 43.8173 159.469 39.9653C161.033 39.2431 162.598 38.5552 164.146 37.9189L164.954 39.9137C163.424 40.5328 161.893 41.2206 160.346 41.9257C152.16 45.6401 144.284 50.1971 136.873 55.4764V55.9923L135.789 56.0439Z"
        fill="white" />
    <path
        d="M126.596 83.6319L125.443 81.8091C132.872 77.0629 141.333 73.1765 151.272 69.9436C156.999 68.0692 163.361 66.4012 170.704 64.8019C172.922 64.3032 175.192 63.8561 177.445 63.4262L177.755 63.3574L178.167 65.4726L177.858 65.5242C175.622 65.9541 173.387 66.4012 171.168 66.8999C163.877 68.4819 157.583 70.1328 151.943 71.9728C142.158 75.1885 133.87 78.9889 126.596 83.6319Z"
        fill="white" />
    <path
        d="M144.172 33.7903L143.037 31.9675C146.27 29.9555 149.726 28.0467 153.355 26.2927C154.61 25.708 155.848 25.1577 157.087 24.6074L157.946 26.5678C156.725 27.1009 155.487 27.6512 154.266 28.2187C150.741 29.9383 147.336 31.8127 144.172 33.7903Z"
        fill="white" />
    <path
        d="M115.595 114.477L114.58 112.586C135.198 101.614 157.365 94.2715 180.459 90.7634C184.088 90.1959 187.802 89.7316 191.499 89.3877L191.62 91.5372C188.043 91.8812 184.363 92.3283 180.769 92.8958C157.949 96.3522 136.007 103.626 115.595 114.477Z"
        fill="white" />
    <path
        d="M141.673 123.828L140.744 121.885C151.973 116.554 163.667 112.134 175.532 108.798L175.704 108.764C183.271 106.58 191.043 104.792 198.851 103.45L199.212 105.565C191.439 106.907 183.683 108.695 176.151 110.879L175.859 110.913C164.372 114.181 152.782 118.531 141.673 123.828Z"
        fill="white" />
    <path
        d="M151.066 22.9399C157.4 22.9399 162.536 17.8046 162.536 11.47C162.536 5.13527 157.4 0 151.066 0C144.731 0 139.596 5.13527 139.596 11.47C139.596 17.8046 144.731 22.9399 151.066 22.9399Z"
        fill="#FDE5E6" />
    <path
        d="M310.289 180.342V182.491C310.289 188.201 309.979 193.841 309.343 199.361C305.216 200.754 300.538 201.132 297.546 204.245C301.037 206.343 304.717 208.802 307.365 211.794C305.078 223.453 301.346 234.613 296.394 245.138C288.982 244.828 281.553 243.624 274.4 241.526C278.578 248.439 282.774 255.352 286.953 262.265C286.644 262.833 286.248 263.4 285.87 263.985C280.229 260.047 273.884 256.951 267.418 258.654C269.946 265.24 272.491 271.775 275.088 278.378C274.142 279.462 273.179 280.528 272.233 281.611C265.836 275.781 259.748 269.556 254.039 262.97C257.84 271.912 260.952 281.112 263.428 290.553C236.929 315.471 201.35 330.621 162.176 330.621C159.649 330.621 157.104 330.552 154.576 330.431C152.925 330.363 151.274 330.242 149.692 330.053C143.604 329.606 137.586 328.729 131.687 327.525C130.673 313.579 129.658 299.684 128.644 285.738C123.192 297.793 117.741 309.899 112.29 321.936C111.086 321.558 109.814 321.111 108.679 320.612C107.922 316.743 106.082 313.012 103.606 309.899C98.2749 303.244 90.3474 299.186 82.3683 296.331C80.5971 298.807 78.7571 301.146 76.9858 303.622C75.9025 302.917 74.8879 302.229 73.8733 301.404C78.8259 291.069 83.83 280.734 88.7653 270.399C79.2558 276.744 69.6086 283.141 61.1136 290.759C59.2048 288.988 57.3132 287.148 55.542 285.239C57.8291 279.461 60.099 273.701 62.3862 267.923C57.0037 269.952 51.7416 272.428 46.6687 275.214C43.7453 271.603 41.0283 267.854 38.4832 263.933V263.864C40.2545 257.846 42.0945 251.879 43.8657 245.86C38.4145 245.344 32.9632 244.914 27.5636 244.398C26.9961 243.263 26.4802 242.059 25.9815 240.856C30.6761 238.259 35.8694 236.539 41.2003 235.714C38.9819 226.892 36.8324 218.157 34.6141 209.404C28.5266 209.025 22.4391 208.647 16.3516 208.269C15.7153 204.847 15.2166 201.287 14.8211 197.813C14.7007 196.231 14.5631 194.701 14.5116 193.119C14.202 189.628 14.0645 186.085 14.0645 182.526C14.0645 120.395 52.2919 67.1899 106.581 45.2474C108.094 46.4511 109.504 47.6549 110.708 48.9274C118.068 56.7345 125.479 64.5245 132.891 72.3316C133.785 60.8617 132.633 49.1853 129.4 38.0937V38.0249C135.557 36.632 141.833 35.6862 148.23 35.1016C149.744 38.7128 151.205 42.324 152.667 45.8836C152.099 41.7565 155.9 37.0619 160.336 36.0473C165.719 34.8436 171.308 36.9931 176.69 38.5236C186.647 41.2578 197.051 41.6878 207.386 41.447C209.982 42.2724 212.527 43.1666 214.986 44.1124C215.055 48.807 215.107 53.3641 215.176 57.9899C217.514 54.1895 220.369 50.6986 223.671 47.7237C225.769 48.6695 227.849 49.6841 229.878 50.7674C228.417 58.179 226.456 65.4703 224.049 72.6412C231.22 68.4625 238.373 64.2665 245.544 60.0878C276.996 81.5833 299.816 114.927 307.486 153.67C304.253 155.39 302.034 158.864 303.118 162.234C304.958 161.34 307.296 161.667 308.947 162.87C309.326 165.536 309.652 168.253 309.841 171.056C309.274 171.881 308.569 172.707 308.122 173.584C307.107 175.871 307.864 178.777 309.893 180.17C310.031 180.221 310.151 180.342 310.289 180.342Z"
        fill="#88261B" />
    <path
        d="M269.452 201.402C268.696 219.785 261.404 234.935 249.676 246.611C228.697 267.728 193.307 277.737 156.214 276.223C128.374 275.088 103.336 269.31 85.0732 257.84C65.4865 245.476 53.7586 226.646 54.8248 199.958C55.6502 179.219 64.1452 156.898 77.7819 137.759C71.574 132.754 67.4469 125.205 67.4469 116.573C67.4469 101.543 79.6907 89.3164 94.7031 89.3164C104.144 89.3164 112.398 94.0798 117.333 101.302C131.538 93.306 147.324 88.7489 163.815 89.3852C177.641 89.9527 191.02 93.8219 203.384 99.9094C208.336 93.5123 216.006 89.3164 224.759 89.3164C239.857 89.3164 252.015 101.56 252.015 116.573C252.015 123.417 249.419 129.573 245.291 134.319C260.957 154.353 270.346 178.514 269.452 201.402Z"
        fill="#FFCC47" />
    <path
        d="M249.67 246.595C228.69 267.713 193.3 277.721 156.208 276.208C128.367 275.073 103.329 269.295 85.0664 257.825C88.0414 257.257 91.1539 257.257 92.8048 256.81C99.7865 255.09 106.441 251.737 112.271 247.558C122.228 240.388 130.276 230.878 138.323 221.626C145.168 213.768 152.837 205.651 162.931 203.175C177.514 199.684 191.976 209.073 202.947 219.219C213.987 229.365 224.701 241.351 239.335 244.704C242.688 245.46 246.299 245.839 249.67 246.595Z"
        fill="#FFF2DA" />
    <path
        d="M115.159 206.514C121.702 206.514 127.007 201.209 127.007 194.666C127.007 188.122 121.702 182.817 115.159 182.817C108.615 182.817 103.311 188.122 103.311 194.666C103.311 201.209 108.615 206.514 115.159 206.514Z"
        fill="#2A1A2C" />
    <path
        d="M110.419 188.727C112.208 187.376 113.087 185.525 112.383 184.593C111.679 183.661 109.658 184 107.869 185.351C106.081 186.702 105.202 188.553 105.906 189.485C106.61 190.417 108.63 190.078 110.419 188.727Z"
        fill="#FEF1D9" />
    <path
        d="M219.84 204.662C226.384 204.662 231.689 199.358 231.689 192.814C231.689 186.27 226.384 180.966 219.84 180.966C213.297 180.966 207.992 186.27 207.992 192.814C207.992 199.358 213.297 204.662 219.84 204.662Z"
        fill="#2A1A2C" />
    <path
        d="M215.126 186.883C216.915 185.532 217.794 183.681 217.09 182.749C216.386 181.817 214.365 182.156 212.576 183.507C210.788 184.858 209.909 186.709 210.613 187.641C211.317 188.573 213.337 188.234 215.126 186.883Z"
        fill="#FEF1D9" />
    <path
        d="M112.802 224.669C122.584 224.669 130.514 220.558 130.514 215.487C130.514 210.415 122.584 206.304 112.802 206.304C103.02 206.304 95.0898 210.415 95.0898 215.487C95.0898 220.558 103.02 224.669 112.802 224.669Z"
        fill="#F37A84" />
    <path
        d="M223.622 223.906C233.405 223.906 241.335 219.794 241.335 214.723C241.335 209.651 233.405 205.54 223.622 205.54C213.84 205.54 205.91 209.651 205.91 214.723C205.91 219.794 213.84 223.906 223.622 223.906Z"
        fill="#F37A84" />
    <path
        d="M157.293 213.502C157.31 215.119 158.463 216.46 159.546 217.664C161.231 219.521 162.934 221.395 165.032 222.771C167.13 224.147 169.675 224.989 172.151 224.542C174.232 224.164 176.106 222.891 177.447 221.258C178.789 219.624 179.666 217.629 180.25 215.6C180.715 214.001 181.007 212.212 180.336 210.699C178.496 206.589 172.374 207.191 168.798 207.965C165.41 208.687 157.242 208.292 157.293 213.502Z"
        fill="#2A1A2C" />
    <path
        d="M168.422 227.215C168.113 230.07 166.754 232.959 164.278 234.403C161.802 235.848 158.156 235.366 156.66 232.907C156.97 235.366 159.291 237.275 161.75 237.516C164.209 237.739 166.668 236.484 168.25 234.593C169.833 232.701 170.641 230.242 170.933 227.8C171.225 225.341 171.036 222.865 170.847 220.406C171.019 223.226 171.363 226.097 172.55 228.66C173.736 231.222 175.92 233.458 178.671 234.111C181.423 234.747 184.69 233.406 185.67 230.758C185.069 232.133 183.418 232.821 181.922 232.632C180.443 232.443 179.119 231.566 178.018 230.551C175.714 228.402 174.132 225.53 173.547 222.435C173.341 221.334 173.255 220.216 172.842 219.185C172.016 217.052 168.749 215.814 167.821 218.583C167.477 219.632 168.061 221.128 168.216 222.16C168.474 223.828 168.612 225.53 168.422 227.215Z"
        fill="#2A1A2C" />
    <path
        d="M88.8384 122.083C94.8977 122.083 99.8097 117.171 99.8097 111.112C99.8097 105.053 94.8977 100.141 88.8384 100.141C82.7792 100.141 77.8672 105.053 77.8672 111.112C77.8672 117.171 82.7792 122.083 88.8384 122.083Z"
        fill="#F37A84" />
    <path
        d="M229.42 119.391C235.48 119.391 240.392 114.479 240.392 108.419C240.392 102.36 235.48 97.4482 229.42 97.4482C223.361 97.4482 218.449 102.36 218.449 108.419C218.449 114.479 223.361 119.391 229.42 119.391Z"
        fill="#F37A84" />
    <path
        d="M98.2466 153.886C97.5587 151.444 99.1752 148.521 101.772 147.609C104.351 146.681 107.464 147.902 108.478 150.223C106.638 148.607 104.214 148.108 102.202 148.813C100.19 149.535 98.6249 151.461 98.2466 153.886Z"
        fill="#2A1A2C" />
    <path
        d="M217.791 154.835C218.032 152.307 220.594 150.157 223.328 150.226C226.062 150.278 228.522 152.548 228.659 155.076C227.524 152.909 225.443 151.568 223.311 151.516C221.161 151.464 219.012 152.702 217.791 154.835Z"
        fill="#2A1A2C" />
    <path
        d="M149.92 257.643C149.92 257.643 80.8418 263.49 73.241 313.841C65.6231 364.192 66.2249 404.569 82.613 427.405C99.0012 450.242 128.854 467.215 133.549 419.203L135.887 405.153L200.872 406.323C200.872 406.323 205.55 444.963 227.802 443.209C250.054 441.455 255.901 436.193 255.901 395.799C255.901 355.404 269.95 262.922 215.506 257.643C161.063 252.364 149.92 257.643 149.92 257.643Z"
        fill="#FEBE29" />
    <path
        d="M264.739 348.731C271.325 351.07 280.25 351.568 283.707 345.481C285.375 342.558 285.134 338.946 284.687 335.61C281.987 315.903 272.873 297.125 259.047 282.818C253.905 277.504 247.354 272.517 239.959 272.895C233.614 273.222 227.991 277.624 224.706 283.075C209.247 308.646 242.178 340.718 264.739 348.731Z"
        fill="#FAA41C" />
    <path
        d="M114.566 342.336C118.865 360.186 128.667 377.486 144.487 386.806C155.252 393.151 168.39 395.387 180.651 392.945C192.912 390.503 204.193 383.436 211.742 373.462C226.032 354.529 225.619 328.682 224.467 304.986C224.175 298.864 223.642 292.209 219.498 287.704C215.921 283.834 210.47 282.442 205.311 281.393C182.405 276.681 158.932 274.72 135.562 275.529C123.129 275.958 109.527 277.455 110.524 292.089C111.659 308.941 110.559 325.742 114.566 342.336Z"
        fill="#FAECD4" />
    <path
        d="M112.184 351.583C118.771 353.921 127.696 354.42 131.152 348.333C132.82 345.409 132.579 341.798 132.132 338.462C129.432 318.755 120.318 299.976 106.492 285.669C101.351 280.355 94.799 275.368 87.4045 275.747C81.0591 276.074 75.4359 280.476 72.1514 285.927C56.6919 311.498 89.6229 343.586 112.184 351.583Z"
        fill="#FAA41C" />
    <path
        d="M34.19 346.012C32.3499 342.848 30.6819 339.477 27.8961 337.121C25.1103 334.748 20.8112 333.699 17.8018 335.78C13.348 338.858 14.8097 345.771 17.2516 350.603C30.0628 375.968 56.3732 392.94 84.2313 398.512C88.2896 399.32 92.5543 399.905 96.5095 398.701C100.465 397.497 104.007 394.007 104.024 389.879C104.059 381.918 93.9644 383.534 88.8227 382.777C81.2735 381.66 73.9479 379.39 67.0693 376.088C53.5014 369.536 41.7735 359.064 34.19 346.012Z"
        fill="#F8951D" />
</svg>
