<svg width="258" height="288" viewBox="0 0 258 288" fill="none" xmlns="http://www.w3.org/2000/svg">
    <g opacity="0.89">
        <path
            d="M186.062 144.427C186.062 144.427 204.024 146.555 215.958 137.297C227.892 128.038 228.604 116.83 231.047 116.542C233.49 116.255 234.208 117.261 234.783 118.698C234.783 118.698 241.968 113.525 249.728 120.279C257.488 127.032 257.631 135.798 255.907 143.558C254.182 151.318 251.021 155.622 251.021 155.622L250.446 153.049C250.446 153.049 248.434 162.102 245.992 165.551C243.549 169 243.692 166.413 243.692 166.413C243.692 166.413 235.645 175.323 234.783 175.897C233.921 176.472 238.95 175.897 238.95 175.897C238.95 175.897 238.519 178.628 234.208 179.346C229.897 180.065 232.196 181.933 232.196 181.933C232.196 181.933 229.61 183.226 225.73 183.657C221.85 184.088 227.598 184.951 227.598 184.951C227.598 184.951 221.85 187.968 218.545 188.112L219.729 188.906C219.729 188.906 208.876 191.349 205.899 190.774L207.733 191.568C207.733 191.568 201.807 192.793 199.323 192.177C196.846 191.568 188.217 192.286 181.826 185.17C175.435 178.053 171.767 179.134 167.675 167.063C163.576 154.992 168.749 148.957 168.749 148.957L186.062 144.427Z"
            fill="#C1927D" />
        <path
            d="M230.101 137.41C230.039 136.685 229.971 135.966 229.909 135.241C230.901 137 231.9 138.758 232.893 140.517C232.674 138.895 232.455 137.273 232.236 135.651C235.418 142.015 243.444 145.505 250.273 143.493C246.64 154.1 241.289 164.125 234.494 173.041C235 171.474 235.507 169.907 236.006 168.347C233.844 172.76 230.326 176.497 226.05 178.919C226.317 178.488 226.59 178.057 226.857 177.626C225.229 179.261 223.593 180.89 221.964 182.525C222.231 182.197 222.491 181.868 222.758 181.54C217.893 185.242 212.213 187.863 206.24 189.17C206.582 188.773 206.931 188.376 207.273 187.979C202.093 189.676 196.762 190.928 191.37 191.715C192.143 191.195 192.91 190.668 193.683 190.148C189.933 191.421 185.937 189.279 182.693 187.014C177.397 183.319 172.429 178.994 168.884 173.602C165.333 168.21 163.287 161.641 164.17 155.243C164.457 153.149 165.121 150.98 166.695 149.563C167.926 148.455 169.562 147.941 171.156 147.49C180.462 144.855 190.111 143.439 199.773 143.295C197.227 146.231 193.902 148.482 190.227 149.755C190.898 149.543 191.562 149.33 192.232 149.118C190.953 152.102 189.002 154.791 186.573 156.947C187.47 156.591 188.366 156.235 189.262 155.879C187.853 158.295 186.45 160.71 185.04 163.126C185.793 162.961 186.553 162.797 187.305 162.64C187.75 165.363 187.353 168.224 186.176 170.721C186.902 170.276 187.634 169.825 188.359 169.38C188.859 171.611 189.358 173.842 189.858 176.072C190.385 174.622 190.911 173.171 191.438 171.713C191.897 175.046 192.355 178.385 192.821 181.718C196.454 182.279 200.32 181.027 202.934 178.44C202.264 179.302 201.593 180.164 200.923 181.027C207.068 177.585 212.952 173.664 218.495 169.312C217.304 170.872 216.121 172.432 214.93 173.992C220.117 171.166 224.777 167.375 228.602 162.879C228.014 164.2 227.432 165.521 226.843 166.841C228.554 163.851 230.265 160.861 231.976 157.863C231.627 158.472 231.278 159.081 230.929 159.69C233.139 158.212 234.911 156.077 235.958 153.635C235.5 154.086 235.041 154.538 234.583 154.989C234.891 152.177 235.199 149.365 235.513 146.552C235.212 147.798 234.918 149.036 234.617 150.282C234.822 148.037 234.466 145.745 233.591 143.671C233.577 144.999 233.556 146.32 233.543 147.647C231.442 145.088 229.348 142.529 227.247 139.962C227.596 141.057 227.945 142.152 228.294 143.24C227.925 140.879 226.57 138.799 225.27 136.794C223.969 134.782 222.662 132.661 222.416 130.287C222.293 129.11 222.546 126.277 223.833 125.647C225.571 124.799 224.948 127.686 225.078 128.699C225.516 132.121 227.316 135.378 230.101 137.41Z"
            fill="#966455" />
        <path
            d="M217.267 167.143C218.204 165.418 219.142 163.694 220.079 161.97C218.061 163.598 216.035 165.227 214.016 166.855C214.338 165.733 214.66 164.611 214.981 163.489C210.054 168.956 203.622 173.055 196.581 175.217C196.937 171.255 196.328 167.273 196.293 163.297C196.259 159.321 196.875 155.127 199.311 151.986C200.803 150.063 202.863 148.681 204.881 147.326C208.638 144.815 212.395 142.31 216.145 139.799C216.856 139.32 217.623 138.827 218.478 138.786C220.066 138.711 221.256 140.161 222.166 141.462C223.323 143.111 224.479 144.76 225.643 146.409C226.149 147.127 226.731 147.901 227.586 148.092C228.441 148.284 229.502 147.442 229.146 146.642C229.7 147.819 229.714 149.071 229.516 150.316C229.789 150.268 230.193 150.446 230.467 150.398C230.754 153.416 227.456 156.372 225.834 158.603C224.63 160.259 223.289 161.819 221.838 163.263C220.695 164.399 217.992 165.809 217.267 167.143Z"
            fill="#DDB59B" />
        <path
            d="M187.603 37.1455C187.891 38.651 188.575 40.0401 189.253 41.4155C194.658 52.3983 200.057 63.388 205.463 74.3708C207.023 77.5459 208.851 80.9741 212.128 82.3085C215.728 83.7797 219.779 82.2059 223.33 80.6594C222.078 80.3993 220.832 80.1325 219.58 79.8724C221.79 79.3661 223.994 78.8597 226.211 78.3533C226.279 78.3396 226.355 78.3191 226.423 78.3054C226.361 78.2986 226.293 78.2781 226.238 78.2712C224.822 78.0043 223.419 77.7375 222.003 77.4706C223.542 77.6074 225.096 77.4638 226.58 77.0463C227.942 76.6631 229.242 76.0746 230.406 75.2809C229.324 75.1782 228.25 75.0893 227.169 74.9866C231.186 74.576 234.847 71.661 236.133 67.8358C235.593 68.2943 235.059 68.7391 234.518 69.1976C233.793 67.87 233.978 66.2277 234.504 64.8181C235.031 63.4016 235.866 62.122 236.448 60.7397C238.022 57.0172 237.632 52.5215 235.442 49.1274C236.229 49.5516 237.016 49.9691 237.789 50.4002C236.858 46.2944 234.621 42.4966 231.48 39.7048C232.855 39.4995 234.32 39.8758 235.421 40.7107C231.747 34.4426 225.397 29.8031 218.307 28.2087C219.272 26.4775 220.764 25.0405 222.529 24.1441C216.672 22.0638 210.171 21.8654 204.184 23.5624C204.485 22.1801 205.162 20.8663 206.12 19.8125C202.268 20.1273 198.573 21.9543 195.979 24.8215C196.164 23.884 196.349 22.9466 196.533 22.0091C194.734 23.1245 193.132 24.5615 191.832 26.2106C191.182 26.9975 190.614 27.8392 190.128 28.7151C188.774 31.1101 187.076 34.3605 187.603 37.1455Z"
            fill="#C4997C" />
        <path
            d="M210.854 33.5942C216.896 35.4896 221.666 40.9708 222.706 47.2252C223.438 51.6388 222.398 56.2714 220.092 60.1103C217.786 63.9423 214.262 66.9805 210.259 68.9787C209.054 69.5808 207.686 70.1009 206.386 69.7588C205.058 69.4098 204.114 68.2533 203.334 67.1243C199.317 61.301 197.086 54.4923 195.444 47.67C194.814 45.056 193.275 41.2855 193.72 38.5758C194.144 36.0028 197.928 34.5316 200.07 33.7994C203.525 32.6293 207.357 32.4993 210.854 33.5942Z"
            fill="#7F4E49" />
        <path
            d="M226.233 78.2793C226.226 78.3067 226.22 78.3409 226.206 78.3614C226.274 78.3477 226.35 78.3272 226.418 78.3135C226.356 78.2998 226.295 78.2861 226.233 78.2793Z"
            fill="#F3D6BE" />
        <path
            d="M191.824 26.2106C197.264 26.0669 213.208 26.3817 224.142 33.902C235.036 41.3881 229.131 67.6032 226.565 77.0463C227.927 76.6631 229.227 76.0746 230.39 75.2809C229.309 75.1782 228.234 75.0893 227.153 74.9866C231.17 74.576 234.831 71.661 236.117 67.8358C235.577 68.2943 235.043 68.7391 234.503 69.1976C233.777 67.87 233.962 66.2277 234.489 64.8181C235.016 63.4016 235.851 62.122 236.432 60.7397C238.006 57.0172 237.616 52.5215 235.426 49.1274C236.213 49.5516 237 49.9691 237.773 50.4002C236.843 46.2944 234.605 42.4966 231.464 39.7048C232.84 39.4995 234.304 39.8758 235.406 40.7107C231.731 34.4426 225.381 29.8031 218.292 28.2087C219.257 26.4775 220.748 25.0405 222.514 24.1441C216.656 22.0638 210.156 21.8654 204.168 23.5624C204.469 22.1801 205.147 20.8663 206.105 19.8125C202.252 20.1273 198.557 21.9543 195.963 24.8215C196.148 23.884 196.333 22.9466 196.518 22.0091C194.725 23.1245 193.124 24.5546 191.824 26.2106Z"
            fill="#F3D6BE" />
        <path
            d="M47.9868 62.833C49.1706 61.8613 50.067 60.5954 50.9566 59.35C58.0321 49.3594 65.1077 39.3687 72.1832 29.3781C74.2292 26.4904 76.371 23.2538 75.981 19.7365C75.5567 15.8771 72.2448 13.0647 69.186 10.6766C69.5555 11.9014 69.9182 13.1195 70.2877 14.3443C68.7891 12.6405 67.2906 10.9434 65.792 9.2464C65.7441 9.1985 65.6961 9.13692 65.6482 9.08218C65.6688 9.13692 65.6893 9.20534 65.7098 9.26009C66.1478 10.6355 66.5857 11.9904 67.0305 13.3658C66.4147 11.9493 65.5456 10.656 64.4781 9.5475C63.4927 8.53475 62.3568 7.67254 61.1046 7.02931C61.5288 8.02837 61.96 9.01375 62.3911 10.0128C60.1124 6.68033 55.8082 4.85328 51.8257 5.54441C52.4826 5.80444 53.1326 6.05762 53.7896 6.31081C52.9684 7.58358 51.4356 8.20629 49.9439 8.41842C48.4453 8.63739 46.9262 8.50737 45.4344 8.65791C41.4108 9.0548 37.6472 11.5388 35.7107 15.0765C35.7038 14.187 35.7038 13.2905 35.7107 12.4078C32.5493 15.1792 30.2774 18.9633 29.3194 23.0553C28.4846 21.9399 28.1151 20.4824 28.3204 19.1138C24.5636 25.334 23.5167 33.128 25.4943 40.1215C23.5167 40.1009 21.5391 39.4714 19.9105 38.3492C20.8821 44.4872 23.8041 50.3037 28.1493 54.7515C26.7876 55.1484 25.3163 55.1758 23.9341 54.8405C26.0485 58.0772 29.4221 60.4517 33.172 61.3618C32.2619 61.6423 31.3449 61.9297 30.4348 62.2103C32.2755 63.2572 34.301 63.9826 36.3744 64.3384C37.3735 64.5368 38.3862 64.6326 39.3921 64.6395C42.1224 64.6805 45.7902 64.6258 47.9868 62.833Z"
            fill="#C4997C" stroke="#623127" stroke-width="0.171072" stroke-miterlimit="10" />
        <path
            d="M33.7727 44.0936C32.5546 37.8734 35.1002 31.0716 40.0955 27.1712C43.6264 24.4204 48.1974 23.127 52.6658 23.3255C57.1342 23.5239 61.4863 25.1731 65.1541 27.7391C66.2558 28.5124 67.3644 29.4635 67.6928 30.7705C68.0213 32.1049 67.4533 33.4872 66.8306 34.712C63.6281 41.0212 58.7149 46.2286 53.5007 50.9228C51.5026 52.7225 48.9228 55.8702 46.3293 56.7735C43.8659 57.6288 40.7661 55.008 39.1033 53.4684C36.414 50.9981 34.4706 47.693 33.7727 44.0936Z"
            fill="#7F4E49" />
        <path
            d="M65.7001 9.2541C65.7275 9.24725 65.7617 9.24041 65.7891 9.23357C65.7412 9.18567 65.6932 9.12408 65.6453 9.06934C65.659 9.13092 65.6796 9.19935 65.7001 9.2541Z"
            fill="#F3D6BE" />
        <path
            d="M36.3602 64.3364C33.6367 59.6285 26.308 45.4569 27.6971 32.2639C29.0794 19.1187 54.9317 11.8037 64.457 9.55237C63.4717 8.53962 62.3357 7.67743 61.0835 7.0342C61.5078 8.03326 61.9389 9.01864 62.37 10.0177C60.0913 6.68522 55.7871 4.85816 51.8046 5.54929C52.4615 5.80932 53.1115 6.0625 53.7685 6.31569C52.9473 7.58847 51.4145 8.21117 49.9228 8.4233C48.4242 8.64227 46.905 8.51226 45.4133 8.6628C41.3897 9.05969 37.6261 11.5437 35.6896 15.0814C35.6827 14.1919 35.6827 13.2954 35.6896 12.4127C32.5282 15.1841 30.2563 18.9682 29.2983 23.0602C28.4635 21.9448 28.094 20.4873 28.2993 19.1187C24.5425 25.3389 23.4956 33.1329 25.4732 40.1264C23.4956 40.1058 21.518 39.4763 19.8894 38.354C20.8611 44.4921 23.783 50.3085 28.1282 54.7564C26.7665 55.1533 25.2952 55.1807 23.913 54.8454C26.0274 58.0821 29.401 60.4565 33.1509 61.3666C32.2408 61.6472 31.3238 61.9346 30.4137 62.2152C32.2613 63.2621 34.2868 63.9875 36.3602 64.3364Z"
            fill="#F3D6BE" />
        <path
            d="M15.8767 175.73C19.0039 177.379 22.1174 179.028 25.2377 180.684C24.2934 180.759 23.3491 180.828 22.398 180.903C25.4294 183.387 29.1861 184.954 33.0865 185.371C31.4306 185.556 29.7746 185.741 28.1186 185.939C32.6759 187.732 37.5755 188.649 42.475 188.622C41.4691 188.889 40.4632 189.155 39.4504 189.422C43.7819 194.301 54.4226 187.794 57.4951 193.549C58.4668 195.376 57.9878 197.6 57.4882 199.611C56.3044 204.34 55.1274 209.061 53.9436 213.79C53.9436 213.79 53.9436 213.79 53.9436 213.797C53.4441 215.781 52.9445 217.766 52.4519 219.75C53.0677 218.224 53.6836 216.691 54.2995 215.165C53.013 219.346 52.7393 223.821 53.4783 228.126C54.2584 225.717 55.0316 223.315 55.8117 220.913C56.3112 225.998 56.8176 231.082 57.3172 236.159C57.7825 234.36 58.2478 232.553 58.7131 230.746C61.1218 240.696 63.5237 250.646 65.9323 260.595C66.035 259.664 66.1376 258.741 66.2334 257.817C68.6147 263.113 71.8651 268.02 75.8066 272.283C75.7245 271.263 75.6355 270.25 75.5534 269.224C79.2075 273.952 83.6896 278.031 88.7396 281.22C88.3291 280.268 87.9048 279.304 87.4806 278.339C96.2121 283.943 106.606 289.759 116.385 287.474C117.274 287.262 118.157 286.981 119.033 286.639C123.433 284.894 126.937 281.507 130.762 278.708C141.012 271.229 154.041 269.19 166.694 268.266C168.199 268.157 169.711 268.109 171.21 268.095C175.904 268.068 180.605 268.553 185.211 269.505C185.648 269.6 186.086 269.689 186.524 269.792C194.024 271.489 201.243 274.445 207.737 278.571C211.85 281.179 215.853 284.313 220.636 285.243C225.885 286.263 231.4 284.408 235.677 281.199C239.96 277.997 243.149 273.556 245.859 268.957C245.921 268.854 245.975 268.766 246.03 268.663C252.305 257.933 256.349 245.924 257.848 233.586C257.163 233.771 256.479 233.956 255.802 234.134C257.547 227.168 254.727 219.291 249.007 214.939C243.279 210.594 235.006 209.965 228.649 213.325C226.015 212.264 223.1 214.009 221.074 215.993C219.049 217.985 217.146 220.4 214.402 221.112C210.201 222.186 206.204 218.758 203.741 215.193C197.979 206.899 195.742 196.751 193.696 186.849C191.273 181.225 188.03 175.956 184.116 171.248C185.033 172.069 185.956 172.883 186.867 173.704C183.295 164.603 177.218 156.494 169.472 150.521C174.857 150.172 178.498 145.395 180.126 140.256C175.131 148.345 164.319 150.185 154.835 150.808C120.012 153.094 84.8324 149.754 51.0765 140.947C51.9729 142.022 52.8761 143.089 53.7725 144.164C47.7166 141.283 42.2628 137.15 37.8492 132.106C38.0408 133.667 38.2461 135.24 38.4377 136.801C35.2147 130.307 31.7659 123.56 25.8878 119.317C20.0098 115.068 10.9293 114.322 6.00926 119.646C3.11473 122.273 1.17136 125.927 0.603394 129.794C-1.67529 146.353 4.13432 163.83 15.8767 175.73Z"
            fill="#AC7A6A" />
        <path
            d="M170.723 163.928C174.11 166.447 176.943 169.717 178.962 173.426C174.316 169.43 168.876 166.358 163.052 164.448C165.304 168.287 167.555 172.126 169.813 175.965C161.533 168.643 151.214 163.648 140.334 161.704C143.174 164.14 145.507 167.172 147.122 170.545C141.949 167.897 136.769 165.242 131.596 162.594C135.072 166.241 138.555 169.895 142.031 173.543C132.383 171.859 123.199 167.582 115.706 161.28C117.417 163.189 118.533 165.632 118.854 168.178C113.708 165.598 108.556 163.018 103.41 160.445C104.778 162.751 106.147 165.064 107.509 167.37C103.369 165.263 99.2288 163.162 95.0889 161.054C95.7732 162.382 96.4575 163.709 97.1418 165.037C88.4513 161.581 80.103 157.263 72.2611 152.172C74.006 154.027 75.7509 155.881 77.489 157.736C63.7964 154.465 51.7051 145.021 45.2112 132.533C63.5569 136.954 82.0601 141.395 100.926 142.004C123.665 142.736 146.253 137.877 169.006 137.727C173.016 137.7 177.108 137.836 180.871 139.212C188.522 142.011 190.848 148.737 188.453 156.148C187.728 158.392 186.585 160.438 186.667 162.868C186.79 166.659 189.397 170.053 190.383 173.638C184.772 168.534 178.38 164.873 170.723 163.928Z"
            fill="#704142" />
        <path
            d="M68.6914 162.171C66.967 160.132 64.7773 158.49 62.3344 157.402C63.655 159.653 64.9826 161.898 66.3032 164.149C65.7763 163.91 65.2426 163.67 64.7157 163.431C66.4127 166.086 67.4597 169.144 67.7471 172.278C66.9054 171.546 66.0569 170.807 65.2152 170.075C66.2553 176.076 65.8858 182.317 64.134 188.147C63.0118 186.313 61.8827 184.486 60.7605 182.652C60.5894 189.981 58.4887 197.248 54.7182 203.537C48.676 196.885 38.7949 195.859 30.4603 192.492C19.1421 187.914 10.0206 178.204 6.16119 166.619C10.9991 169.322 16.1313 171.498 21.4413 173.086C19.6622 171.697 17.883 170.314 16.1039 168.925C23.8227 172.525 32.5063 174.023 40.9846 173.209C39.5818 173.1 38.1722 172.99 36.7694 172.874C39.8282 172.545 42.7979 171.45 45.3298 169.712C44.1049 169.336 42.8801 168.966 41.6552 168.59C45.2682 168.898 48.9771 167.81 51.8579 165.607C51.3173 164.888 50.7767 164.17 50.2293 163.451C51.4063 163.239 52.5764 163.027 53.7534 162.815C52.3985 161.357 51.0368 159.9 49.6819 158.435C52.0837 158.442 54.4856 158.449 56.8874 158.456C55.3752 153.337 52.3369 148.684 48.2586 145.242C57.5307 146.2 63.2034 155.678 68.6914 162.171Z"
            fill="#946358" />
        <path
            d="M171.219 268.1C175.913 268.073 180.614 268.559 185.22 269.51C191.207 259.246 196.189 248.277 197.852 236.548C195.641 240.435 193.417 244.314 191.2 248.201C191.631 246.408 192.062 244.616 192.494 242.823C190.01 249.529 186.007 255.667 180.874 260.642C181.128 259.677 181.388 258.719 181.654 257.754C181.032 260.053 176.105 263.776 174.326 265.418C173.361 266.294 172.198 267.129 171.219 268.1Z"
            fill="#946358" />
        <path
            d="M54.3013 215.165C53.0148 219.346 52.7411 223.821 53.4801 228.125C54.2602 225.717 55.0335 223.315 55.8136 220.913C56.3131 225.997 56.8195 231.081 57.319 236.159C57.7843 234.359 58.2496 232.553 58.7149 230.746C61.1236 240.696 63.5255 250.645 65.9342 260.595C66.0368 259.664 66.1395 258.74 66.2353 257.817C68.6166 263.113 71.867 268.019 75.8085 272.282C75.7263 271.263 75.6374 270.25 75.5553 269.224C79.2094 273.952 83.6914 278.03 88.7415 281.219C88.3309 280.268 87.9067 279.303 87.4824 278.338C96.2139 283.943 106.608 289.759 116.387 287.474C114.806 285.927 112.911 284.545 111.761 282.957C109.304 279.57 107.833 275.444 107.833 271.235C107.758 273.726 107.676 276.21 107.594 278.701C105.89 275.752 104.193 272.802 102.482 269.846C102.489 272.31 102.489 274.78 102.496 277.25C99.3137 272.734 97.083 267.554 95.9881 262.155C95.9128 266.062 95.8307 269.976 95.7486 273.884C86.5313 262.333 81.1254 247.785 80.5916 233.011C79.8594 238.472 79.1341 243.926 78.3951 249.393C74.8641 239.067 72.1817 228.454 70.3684 217.697C69.4651 223.445 68.555 229.206 67.6517 234.961C65.3799 225.19 63.1081 215.432 60.8362 205.674C59.9261 209.964 58.1744 214.077 55.7178 217.704C55.6767 215.644 55.622 213.577 55.5809 211.518C54.9993 212.25 54.4518 213.009 53.9318 213.789C53.9318 213.789 53.9318 213.789 53.9318 213.796C53.4323 215.781 52.9327 217.765 52.44 219.75C53.0696 218.217 53.6854 216.691 54.3013 215.165Z"
            fill="#7C4C4E" />
        <path
            d="M186.533 269.799C194.033 271.496 201.252 274.452 207.746 278.578C211.859 281.185 215.862 284.32 220.645 285.25C225.894 286.27 231.409 284.415 235.686 281.206C239.969 278.004 243.158 273.563 245.868 268.964C245.93 268.861 245.984 268.773 246.039 268.67C244.52 268.875 243.295 270.429 241.913 271.626C242.323 270.497 242.878 269.395 243.281 268.266C240.962 270.182 238.772 272.303 236.541 274.329C236.541 273.398 236.534 272.481 236.534 271.551C234.7 273.234 232.88 274.911 231.053 276.601C231.06 275.547 231.067 274.493 231.081 273.433C229.644 274.698 228.22 275.964 226.783 277.23C226.715 276.573 226.653 275.916 226.592 275.253C225.88 275.999 225.175 276.738 224.463 277.484C224.238 276.827 224.019 276.17 223.8 275.506C223.156 276.053 222.527 276.601 221.884 277.155C221.74 276.334 221.589 275.506 221.446 274.692C220.864 275.335 219.776 275.444 219.085 274.917C218.394 274.391 218.195 273.323 218.661 272.584C217.97 273.097 217.278 273.617 216.594 274.13C215.048 270.271 214.651 265.974 215.39 261.889C214.411 264.345 213.104 266.685 211.503 268.807C209.334 259.309 209.382 249.311 211.647 239.834C208.143 247.224 205.351 254.936 203.305 262.853C203.066 260.096 202.833 257.331 202.607 254.574C201.69 257.454 200.767 260.335 199.856 263.209C198.762 261.704 198.173 259.843 198.242 257.981C197.708 260.445 196.654 262.792 195.169 264.831C194.978 263.668 194.779 262.511 194.594 261.341C194.382 263.531 192.685 265.481 190.557 265.994C188.511 265.871 186.848 267.78 186.533 269.799Z"
            fill="#946358" />
        <path
            d="M105.129 204.16C104.65 205.432 104.165 206.712 103.686 207.978C104.774 204.071 106.382 200.293 108.441 196.797C108.517 196.927 108.592 197.057 108.66 197.194C109.673 192.547 111.753 188.134 114.689 184.391C117.652 181.537 121.285 179.395 125.22 178.17C125.145 179.758 125.07 181.339 124.981 182.913C126.63 181.756 128.272 180.6 129.921 179.443C130.222 180.299 130.53 181.154 130.831 182.009C131.084 180.901 131.331 179.799 131.584 178.69C132.987 179.135 134.123 180.34 134.506 181.756C134.294 180.504 134.075 179.258 133.856 178.013C136.059 178.985 138.256 179.95 140.459 180.914C140.302 180.34 140.144 179.765 139.987 179.19C143.012 179.833 145.92 181.031 148.513 182.7C147.384 180.716 146.248 178.732 145.119 176.747C150.354 179.306 155.589 181.866 160.824 184.425C160.31 183.638 159.804 182.844 159.284 182.05C166.113 185.869 172.066 191.227 176.569 197.632C176.028 195.804 175.488 193.977 174.94 192.15C177.438 195.134 179.936 198.104 182.44 201.08V197.638C185.143 204.331 186.183 211.694 185.431 218.879L185.91 216.374C186.176 219.652 186.45 222.916 186.71 226.194C187.716 229.937 187.798 233.919 186.97 237.703C187.449 236.8 187.935 235.89 188.414 234.987C187.545 238.155 186.676 241.316 185.807 244.485C184.794 245.285 183.781 246.086 182.769 246.893C183.131 245.908 183.494 244.916 183.857 243.93C183.385 244.964 182.892 246.038 182.379 247.147V247.153C178.779 254.941 174.106 264.199 167.844 269.427C164.19 272.472 159.12 273.793 154.521 274.381C152.386 274.662 138.557 275.654 136.805 273.327C143.374 256.692 140.589 236.609 129.538 222.499C128.06 220.596 126.37 218.755 124.173 217.77C121.977 216.792 119.157 216.853 117.399 218.489C114.107 215.409 109.037 214.527 104.808 215.984C104.835 215.149 104.856 214.314 104.883 213.48C104.664 214.383 104.445 215.293 104.226 216.196C104.124 216.6 104.035 216.997 103.932 217.401C103.966 217.031 104 216.648 104.035 216.278C104.404 212.241 104.767 208.204 105.129 204.16ZM109.091 200.355C110.008 197.426 110.925 194.477 111.842 191.548C110.795 193.464 109.755 195.401 108.715 197.317C109.146 198.261 109.276 199.335 109.091 200.355ZM137.311 275.127C136.983 274.915 136.661 274.703 136.333 274.491C136.483 274.135 136.627 273.772 136.771 273.41C136.962 273.978 137.127 274.552 137.311 275.127Z"
            fill="#EBD3BA" />
        <g opacity="0.7">
            <path
                d="M121.122 261.717C120.404 261.094 119.638 260.519 118.837 260.013C120.144 262.114 121.444 264.215 122.758 266.322C122.642 265.85 122.518 265.371 122.409 264.885C125.728 268.669 129.614 271.961 133.884 274.609C133.624 273.877 133.358 273.131 133.097 272.399C134.507 273.309 135.91 274.226 137.32 275.136C137.101 274.445 136.888 273.754 136.669 273.069C137.504 275.752 152.305 274.691 154.529 274.404C159.128 273.815 164.198 272.494 167.852 269.449C174.107 264.221 178.787 254.963 182.387 247.176C179.164 251.514 175.927 255.853 172.704 260.205C173.922 256.475 175.133 252.739 176.358 249.01C174.442 253.861 171.637 258.371 168.126 262.23C168.585 259.945 169.036 257.645 169.488 255.346C166.929 259.247 163.665 262.689 159.908 265.46C159.894 262.538 159.867 259.623 159.846 256.701C157.759 260.088 155.665 263.476 153.578 266.856C153.311 264.05 152.196 261.334 150.43 259.137C149.384 261.813 148.337 264.481 147.29 267.157C145.853 265.125 143.937 263.428 141.74 262.244C141.733 264.926 141.713 267.622 141.706 270.305C139.01 268.895 136.32 267.485 133.624 266.083C134.097 267.479 134.569 268.868 135.041 270.264C130.018 265.884 125.002 261.498 119.987 257.112C120.363 258.651 120.746 260.184 121.122 261.717Z"
                fill="#996462" />
        </g>
        <path
            d="M37.0227 106.059C38.9661 121.791 53.4046 139.261 55.348 140.76C57.2914 142.272 64.8322 145.502 67.4188 147.226C70.0054 148.95 77.9842 153.049 78.4153 152.399C78.8464 151.749 85.0939 153.049 88.1185 154.986C91.1362 156.929 98.8892 158.01 98.8892 158.01C98.8892 158.01 96.0973 156.067 99.9704 157.36C103.611 158.565 110.467 160.358 111.309 160.57C110.632 160.323 106.088 158.619 109.893 158.223C113.985 157.791 121.525 160.597 121.525 160.597L120.663 158.873L126.055 160.597L128.211 158.442V160.597L131.318 159.406L133.815 158.442L133.069 159.584L132.412 160.597C132.412 160.597 135.492 160.426 139.632 160.139C145.003 159.769 152.154 159.167 156.664 158.442C164.642 157.148 171.752 153.487 171.752 153.487L171.54 155.643C174.469 153.973 183.919 151.886 195.517 142.279C195.853 141.998 196.195 141.711 196.537 141.416C208.608 131.063 208.834 122.236 208.834 122.236H210.777C219.296 90.6902 207.814 65.3374 207.554 64.7557L209.443 66.2132C209.443 66.2132 208.799 62.1965 206.316 59.2814C203.832 56.38 199.13 48.8939 199.527 48.8939C199.917 48.8939 204.263 51.3437 204.263 51.3437C204.263 51.3437 205.2 48.8939 201.361 45.7051C197.509 42.5027 195.682 40.6756 195.682 40.6756C183.474 22.063 162.247 14.3716 149.704 11.3334C143.648 9.86215 139.632 9.48578 139.632 9.48578C139.803 8.84255 140.467 8.18565 141.288 7.59716C142.909 6.41335 145.127 5.50323 145.127 5.50323C143.211 5.15425 139.775 5.89328 137.757 6.39281C136.785 6.63915 136.142 6.83075 136.142 6.83075C136.244 6.57072 136.388 6.29701 136.552 6.03014C138.078 3.58723 141.924 1.23329 141.924 1.23329C140.432 1.00747 138.318 2.14338 136.463 3.46406C134.26 5.02424 132.412 6.83075 132.412 6.83075C132.412 6.83075 131.283 7.28923 130.147 7.38503C129.018 7.49451 130.681 0.384766 130.681 0.384766C126.158 2.48553 125.727 6.04383 125.727 6.04383C121.744 0.330025 116.674 1.4591 116.674 1.4591L119.479 6.50914C116.729 4.05255 110.194 3.11508 111.371 4.01149C112.561 4.91475 115.483 9.06154 115.483 9.06154C104.918 7.76824 92.4227 12.5172 83.1506 17.4714C79.8934 19.2095 76.554 21.1597 73.3721 23.3426C67.4941 27.3457 62.1429 32.0741 58.7899 37.521C53.6167 45.9309 49.9489 48.7365 44.5567 58.864C39.1782 68.9778 35.0862 90.3207 37.0227 106.059Z"
            fill="#D2A78A" />
        <path
            d="M121.956 160.979L121.08 159.227L126.123 160.835L128.005 158.953V160.903L133.288 158.878L132.015 160.835L132.432 160.814C132.467 160.814 135.566 160.643 139.652 160.356C143.901 160.062 151.777 159.453 156.704 158.659C163.636 157.537 169.993 154.594 171.512 153.848L171.3 156.031L171.656 155.826C172.354 155.429 173.462 154.991 174.858 154.444C179.347 152.678 186.861 149.736 195.667 142.441C196.003 142.161 196.345 141.873 196.694 141.579C207.69 132.15 208.915 123.842 209.045 122.446H210.954L210.996 122.289C218.721 93.6927 209.942 69.9342 208.08 65.4111L209.75 66.7044L209.668 66.1775C209.641 66.0132 208.991 62.0649 206.493 59.143C204.31 56.5906 200.56 50.6989 199.848 49.2208C200.601 49.5561 202.49 50.5757 204.173 51.5269L204.385 51.65L204.474 51.4242C204.515 51.3147 205.419 48.7966 201.504 45.5462C197.707 42.3916 195.852 40.5441 195.839 40.5304C183.473 21.6782 161.665 14.021 149.765 11.1334C144.647 9.89479 140.938 9.42265 139.932 9.30632C140.151 8.84784 140.658 8.32094 141.417 7.76667C142.998 6.61022 145.194 5.70696 145.215 5.69328L145.886 5.41956L145.174 5.28954C143.333 4.95424 140.103 5.59063 137.715 6.17912C137.229 6.30229 136.826 6.41178 136.538 6.49389C136.6 6.37756 136.668 6.26124 136.743 6.13122C138.228 3.76359 142.006 1.43016 142.047 1.40279L142.539 1.1017L141.971 1.01274C140.651 0.807456 138.762 1.57386 136.353 3.27773C134.314 4.72158 132.562 6.39124 132.309 6.63759C132.104 6.71286 131.119 7.07554 130.147 7.16449C129.688 6.65812 130.318 2.92191 130.906 0.424255L131.002 0L130.612 0.184761C126.979 1.87495 125.925 4.45472 125.637 5.52221C121.662 0.191606 116.701 1.22487 116.646 1.23856L116.372 1.30014L118.822 5.71381C116.235 4.00309 112.027 3.24353 111.281 3.5104C111.096 3.57883 111.048 3.70199 111.042 3.77042C111.007 3.97571 111.199 4.11941 111.261 4.16731C112.198 4.87897 114.299 7.73929 115.052 8.78625C103.343 7.55453 90.0272 13.5557 83.0679 17.2714C79.3865 19.2353 76.1772 21.165 73.269 23.1494C66.5561 27.7205 61.6292 32.5105 58.6252 37.3895C56.4697 40.8862 54.5605 43.4386 52.7129 45.9089C50.0511 49.4672 47.5329 52.827 44.3783 58.7461C39.123 68.6272 34.8325 90.0112 36.8169 106.085C38.7672 121.865 53.3356 139.472 55.2174 140.929C56.2576 141.743 58.7826 142.989 61.4581 144.309C63.7368 145.439 66.0908 146.602 67.3088 147.402C69.5943 148.928 77.142 152.897 78.3532 152.671C78.4901 152.644 78.5585 152.576 78.5927 152.521C79.0375 152.117 84.9018 153.185 88.0017 155.169C91.0194 157.112 98.5397 158.18 98.8613 158.221L99.7372 158.344L99.0118 157.838C98.656 157.591 98.3139 157.29 98.1839 157.126C98.3618 157.126 98.8134 157.195 99.9083 157.564C103.576 158.782 110.419 160.568 111.261 160.773L111.384 160.37C109.605 159.726 108.571 159.076 108.606 158.823C108.606 158.823 108.653 158.57 109.913 158.433C113.916 158.009 121.374 160.767 121.45 160.794L121.956 160.979ZM172.005 153.123L171.663 153.301C171.594 153.335 164.491 156.962 156.636 158.235C151.723 159.028 143.867 159.637 139.624 159.932C136.408 160.158 133.801 160.308 132.822 160.363L134.355 158.016L128.429 160.294V157.94L126.007 160.363L120.259 158.529L121.107 160.226C119.342 159.61 113.416 157.653 109.871 158.023C108.756 158.139 108.236 158.372 108.188 158.782C108.147 159.104 108.476 159.432 108.982 159.754C106.443 159.076 102.515 157.995 100.038 157.174C98.3002 156.592 97.8759 156.64 97.7391 156.921C97.698 157.003 97.5954 157.208 98.1291 157.694C96.0762 157.359 90.6088 156.36 88.2343 154.827C85.4766 153.061 78.8527 151.385 78.2437 152.302C77.58 152.507 70.3676 148.949 67.5415 147.067C66.3029 146.246 63.9353 145.076 61.6497 143.947C59.111 142.695 56.4902 141.394 55.4843 140.614C53.6162 139.17 39.1777 121.714 37.2412 106.051C35.2705 90.0523 39.5336 68.7846 44.7615 58.9582C47.9024 53.0665 50.4069 49.7203 53.0619 46.1757C54.9164 43.6986 56.8324 41.1394 58.9947 37.629C61.9645 32.8047 66.8503 28.0558 73.5153 23.519C76.4098 21.5345 79.6054 19.6185 83.2732 17.6615C90.2803 13.9184 103.781 7.84878 115.476 9.2721L115.948 9.32684L115.674 8.9368C115.558 8.76572 112.807 4.87897 111.575 3.88675C112.588 3.78411 117.152 4.70106 119.356 6.66497L120.286 7.49295L117.022 1.62176C118.138 1.49174 122.25 1.40279 125.569 6.16543L125.884 6.61706L125.952 6.06963C125.959 6.03541 126.404 2.81243 130.393 0.773248C130.031 2.38817 129.148 6.69234 129.805 7.44505C129.907 7.56138 130.044 7.61612 130.188 7.60244C131.338 7.49979 132.46 7.04817 132.508 7.02764L132.576 6.97973C132.597 6.9592 134.437 5.16637 136.607 3.63357C138.502 2.29236 140.09 1.53964 141.253 1.43016C140.11 2.19656 137.592 4.01676 136.394 5.91908C136.21 6.22017 136.059 6.50073 135.963 6.75392L135.806 7.15765L136.223 7.03448C136.23 7.03448 136.873 6.83603 137.825 6.59653C140.637 5.9054 142.868 5.5701 144.332 5.63168C143.538 6.0012 142.238 6.65128 141.178 7.42453C140.192 8.13618 139.604 8.81363 139.44 9.43633L139.378 9.67584L139.624 9.69637C139.665 9.69637 143.703 10.0932 149.67 11.5371C161.508 14.4042 183.207 22.0272 195.517 40.7904C195.565 40.8451 197.426 42.6996 201.238 45.8678C204.207 48.3381 204.235 50.343 204.132 51.0205C202.702 50.2199 199.917 48.6871 199.541 48.6871H199.404L199.328 48.8239C199.055 49.4124 204.317 57.2612 206.164 59.4235C208.046 61.6269 208.861 64.5146 209.127 65.7053L207.02 64.0767L207.362 64.8431C207.841 65.9106 218.906 91.0992 210.619 122.029H208.635L208.628 122.234C208.628 122.323 208.258 131.103 196.406 141.264C196.064 141.559 195.722 141.846 195.387 142.12C186.628 149.373 179.156 152.302 174.694 154.061C173.49 154.533 172.504 154.923 171.793 155.279L172.005 153.123Z"
            fill="#623127" />
        <path
            d="M166.681 111.149C163.219 111.149 160.413 108.343 160.413 104.881C160.413 101.42 163.219 98.6133 166.681 98.6133C170.143 98.6133 172.949 101.42 172.949 104.881C172.949 108.343 170.143 111.149 166.681 111.149Z"
            fill="#060707" />
        <path
            d="M168.41 102.52C167.379 101.924 166.821 100.962 167.163 100.369C167.505 99.7769 168.618 99.7792 169.649 100.374C170.68 100.97 171.238 101.932 170.896 102.525C170.554 103.117 169.441 103.115 168.41 102.52Z"
            fill="#E6E7E8" />
        <path
            d="M87.2436 102.847C83.7819 102.847 80.9756 100.04 80.9756 96.5786C80.9756 93.1169 83.7819 90.3105 87.2436 90.3105C90.7054 90.3105 93.5117 93.1169 93.5117 96.5786C93.5117 100.04 90.7054 102.847 87.2436 102.847Z"
            fill="#060707" />
        <path
            d="M88.5597 93.9579C87.4425 93.5471 86.7281 92.6936 86.9642 92.0516C87.2002 91.4096 88.2973 91.2223 89.4146 91.6331C90.5318 92.0439 91.2461 92.8974 91.0101 93.5393C90.774 94.1813 89.6769 94.3687 88.5597 93.9579Z"
            fill="#E6E7E8" />
        <path
            d="M78.5837 60.9622C78.5837 60.9622 85.8371 57.0412 89.8265 58.3619C93.8159 59.6826 95.3692 59.0941 93.1795 57.7392C91.0035 56.3775 85.4676 53.9277 78.5837 60.9622Z"
            fill="#623127" />
        <path
            d="M182.973 76.4359C182.973 76.4359 177.225 70.5305 173.016 70.5989C168.815 70.6674 167.508 69.6409 169.999 68.9977C172.489 68.3545 178.504 67.6702 182.973 76.4359Z"
            fill="#623127" />
        <path
            d="M151.121 23.056C147.166 20.2368 142.896 17.8486 138.414 15.9463L138.311 16.1858C142.424 18.1908 145.852 21.5985 147.795 25.7384L148.083 25.5058C146.181 24.0551 143.991 22.9671 141.685 22.3307L141.144 22.1802L141.452 22.6523C142.492 24.2467 143.532 25.8548 144.189 27.6202C144.839 29.3652 145.093 31.3154 144.538 33.0809L145.004 33.0603C143.272 28.8109 140.145 25.1431 136.21 22.7686L135.259 22.1938L135.807 23.1587C137.127 25.4784 137.996 28.0582 138.373 30.7064C138.756 33.3477 138.674 36.0643 138.065 38.6715L138.633 38.6441C137.552 35.599 135.903 32.7592 133.795 30.3163L133.138 29.5499L133.336 30.5353C134.294 35.3458 134.712 40.259 134.575 45.1654L135.013 45.138C134.527 42.353 133.802 39.6158 132.844 36.9608L132.467 37.0634C133.316 41.306 133.528 45.6717 133.131 49.9896L133.412 49.9554C131.571 44.8232 129.032 39.9511 125.891 35.5101C128.95 40.0058 131.393 44.9122 133.138 50.0512L133.35 50.6739L133.419 50.017C133.877 45.6786 133.672 41.2786 132.844 36.9881L132.467 37.0908C133.405 39.7321 134.103 42.4487 134.568 45.2133L135.006 45.1859C135.177 40.2522 134.787 35.2911 133.85 30.4395L133.391 30.6653C135.437 33.074 137.038 35.8591 138.072 38.8425L138.4 39.7937L138.633 38.8083C139.269 36.1328 139.386 33.3409 138.982 30.6174C138.578 27.9008 137.675 25.2526 136.299 22.8713L135.903 23.2613C139.741 25.5537 142.821 29.112 144.538 33.2519L144.805 33.8883L145.004 33.2314C145.592 31.3154 145.298 29.2694 144.614 27.4629C143.922 25.6427 142.855 24.0209 141.801 22.4265L141.568 22.7481C143.833 23.3571 145.975 24.4041 147.85 25.8206L148.48 26.2927L148.138 25.5879C146.119 21.3932 142.643 17.9102 138.414 15.9668L138.311 16.2063C142.807 17.9923 147.111 20.3052 151.121 23.056Z"
            fill="#623127" />
        <path
            d="M149.712 11.3213C163.624 18.5337 175.305 30.0845 182.455 44.0371C182.134 42.1142 181.805 40.1846 181.484 38.2617C193.294 52.9602 200.178 71.566 200.774 90.4181C202.156 88.8785 203.531 87.3456 204.921 85.806C205.475 96.5014 203.833 107.313 200.096 117.352C201.444 115.381 202.806 113.417 204.161 111.453C201.28 121.717 198.399 131.995 195.525 142.273C195.861 141.993 196.203 141.705 196.545 141.411C208.616 131.058 208.842 122.231 208.842 122.231H210.785C219.304 90.685 207.822 65.3321 207.562 64.7505L209.451 66.208C209.451 66.208 208.807 62.1912 206.323 59.2762C203.839 56.3748 199.138 48.8887 199.535 48.8887C199.925 48.8887 204.27 51.3384 204.27 51.3384C204.27 51.3384 205.208 48.8887 201.369 45.6999C197.517 42.4974 195.689 40.6704 195.689 40.6704C183.475 22.0509 162.248 14.3595 149.712 11.3213Z"
            fill="#EFDABF" />
        <path
            d="M133.074 159.581L132.417 160.594C132.417 160.594 135.497 160.423 139.637 160.135C137.55 159.992 135.353 159.807 133.074 159.581Z"
            fill="#9B6961" />
        <path
            d="M131.324 159.402C130.305 159.285 129.265 159.162 128.218 159.032V160.592L131.324 159.402Z"
            fill="#9B6961" />
        <path
            d="M37.0253 106.059C38.9686 121.79 53.4071 139.26 55.3505 140.759C57.2939 142.271 64.8347 145.501 67.4213 147.225C70.0079 148.95 77.9867 153.049 78.4178 152.398C78.8489 151.748 85.0965 153.049 88.121 154.985C91.1387 156.928 98.8917 158.01 98.8917 158.01C98.8917 158.01 96.0998 156.066 99.9729 157.36C103.613 158.564 110.47 160.357 111.312 160.569C110.634 160.323 106.09 158.619 109.895 158.222C113.987 157.791 121.528 160.596 121.528 160.596L120.666 158.872L126.058 160.596L127.68 158.975C93.698 154.677 45.9415 140.047 49.6709 91.5379C51.9769 61.573 62.0907 39.2789 73.3815 23.3213C67.5034 27.3244 62.1523 32.0528 58.7993 37.4997C53.6261 45.9096 49.9583 48.7152 44.5661 58.8427C39.1808 68.977 35.0887 90.3199 37.0253 106.059Z"
            fill="#9B6961" />
        <path
            d="M125.149 155.629C104.212 155.629 87.2395 142.118 87.2395 125.451C87.2395 108.785 104.212 95.2744 125.149 95.2744C146.086 95.2744 163.059 108.785 163.059 125.451C163.059 142.118 146.086 155.629 125.149 155.629Z"
            fill="#F1D9C0" />
        <path
            d="M135.149 101.4C136.279 102.152 137.38 103.131 137.668 104.458C137.859 105.355 137.647 106.306 137.202 107.107C136.758 107.907 136.101 108.571 135.389 109.153C133.589 110.61 131.42 111.555 129.196 112.218C127.78 112.649 126.315 112.971 124.837 112.95C122.038 112.916 119.39 111.637 117.091 110.035C115.586 108.988 114.142 107.729 113.355 106.073C112.568 104.417 112.595 102.262 113.82 100.893C114.826 99.7711 116.393 99.3674 117.878 99.0868C122.333 98.2383 127.355 97.992 131.666 99.6137C132.884 100.079 134.061 100.674 135.149 101.4Z"
            fill="#151012" />
        <path
            d="M125.848 112.902L125.151 123.297C125.151 123.297 125.766 129.551 131.302 130.557C136.838 131.563 140.574 130.051 142.367 124.734C142.367 124.734 142.148 131.707 134.607 132.138C127.06 132.569 123.974 126.602 123.974 126.602C123.974 126.602 108.522 136.449 106.367 123.221C106.367 123.221 110.103 134.711 122.461 125.445C122.461 125.445 123.111 125.233 123.542 122.216C123.974 119.198 123.59 112.841 123.59 112.841L125.848 112.902Z"
            fill="#151012" />
        <path
            d="M130.379 131.669C130.379 131.669 128.497 137.965 121.812 137.246C115.126 136.528 115.023 130.034 115.023 130.034C115.023 130.034 117.35 130.027 123.967 126.612C123.974 126.612 126.273 130.28 130.379 131.669Z"
            fill="#D7A390" />
        <path
            d="M188.024 119.019C189.872 120.264 191.617 121.811 192.513 123.843C193.409 125.882 193.279 128.496 191.719 130.084C190.618 131.206 189.01 131.672 187.456 131.904C183.665 132.486 179.799 132 175.994 131.514C173.374 131.179 170.664 130.816 168.406 129.441C166.277 128.147 164.69 125.985 164.101 123.563C163.595 121.462 163.903 119.231 164.635 117.213C165.237 115.557 166.407 115.262 168.063 114.954C172.429 114.14 177 114.434 181.236 115.762C183.638 116.521 185.937 117.609 188.024 119.019Z"
            fill="#D89180" />
        <path
            d="M79.5184 105.776C81.6603 106.385 83.8021 107.309 85.287 108.965C86.7719 110.621 87.463 113.146 86.4776 115.144C85.7797 116.554 84.3974 117.491 82.9946 118.203C79.5732 119.934 75.748 120.673 71.9776 121.398C69.3841 121.898 66.6949 122.391 64.1151 121.795C61.6859 121.227 59.5099 119.667 58.196 117.546C57.0601 115.705 56.6564 113.488 56.7316 111.346C56.7932 109.588 57.806 108.944 59.284 108.13C63.1845 105.995 67.6118 104.852 72.0529 104.798C74.5779 104.77 77.0961 105.085 79.5184 105.776Z"
            fill="#D89180" />
        <path
            d="M193.593 186.325C193.627 186.503 193.668 186.688 193.702 186.866C194.092 187.755 194.455 188.659 194.797 189.562C194.393 188.481 193.989 187.4 193.593 186.325Z"
            fill="#AC7A6A" />
        <path
            d="M216.898 256.859C216.18 258.474 215.667 260.158 215.359 261.889C216.023 260.26 216.536 258.57 216.898 256.859Z"
            fill="#946358" />
        <path
            d="M116.321 258.65C116.43 258.965 116.54 259.273 116.649 259.588C116.697 259.348 116.745 259.109 116.793 258.863C116.642 258.794 116.485 258.719 116.321 258.65Z"
            fill="#996462" />
        <path
            d="M96.3608 284.125C96.2719 282.434 95.7655 280.792 95.0333 279.266C94.2874 277.747 93.3294 276.344 92.3304 274.983C91.3313 273.621 90.2775 272.307 89.2921 270.938C88.2999 269.577 87.4309 268.147 86.6713 266.648C83.6467 260.626 82.5724 253.852 82.1208 247.173C81.9018 243.82 81.7513 240.447 82.2645 237.155C82.5314 235.52 82.9625 233.912 83.6467 232.406C84.3173 230.894 85.1932 229.471 86.1649 228.116C87.1366 226.761 88.2041 225.468 89.2921 224.174C90.3801 222.888 91.4476 221.588 92.6588 220.465C93.8632 219.343 95.2249 218.392 96.7714 217.913C98.2974 217.427 99.9944 217.393 101.411 218.07L101.637 218.18L101.842 218.029C102.95 217.194 104.182 216.592 105.523 216.216C106.851 215.819 108.24 215.689 109.622 215.744C112.38 215.874 115.117 216.914 117.136 218.789L117.41 219.042L117.683 218.789C118.641 217.899 119.989 217.496 121.33 217.53C122.679 217.55 123.992 217.995 125.142 218.727C127.469 220.205 129.145 222.559 130.787 224.831C134.051 229.43 136.412 234.637 138.02 240.043C139.594 245.469 140.224 251.156 140.08 256.808C139.875 262.46 138.766 268.099 136.761 273.395V273.402C136.46 274.182 136.138 274.955 135.796 275.722C136.152 274.962 136.494 274.196 136.809 273.416V273.422C138.93 268.14 140.148 262.515 140.47 256.822C140.716 251.128 140.114 245.387 138.595 239.885C137.035 234.404 134.715 229.087 131.396 224.414C129.74 222.108 128.064 219.699 125.559 218.084C124.328 217.29 122.85 216.77 121.358 216.75C119.873 216.702 118.299 217.147 117.149 218.207H117.69C115.514 216.182 112.606 215.066 109.67 214.916C108.206 214.854 106.714 214.984 105.304 215.408C103.895 215.799 102.526 216.476 101.356 217.366L101.787 217.324C100.124 216.538 98.2152 216.613 96.5456 217.147C94.8485 217.674 93.3842 218.72 92.1388 219.891C90.8797 221.068 89.8053 222.395 88.7242 223.682C87.643 224.975 86.5618 226.289 85.5764 227.678C84.5911 229.067 83.6878 230.531 82.9967 232.105C82.2919 233.679 81.8402 235.355 81.5802 237.046C81.0601 240.44 81.2791 243.854 81.5255 247.221C82.0592 253.934 83.202 260.777 86.3497 266.833C87.1503 268.331 88.0604 269.768 89.08 271.116C90.0927 272.471 91.1739 273.765 92.1935 275.106C93.2131 276.44 94.1916 277.816 94.9649 279.314C95.7039 280.806 96.2376 282.434 96.3608 284.125Z"
            fill="#623127" />
        <path
            d="M128.395 223.27C126.479 220.916 123.475 219.212 120.478 219.663C119.759 219.773 119.034 219.999 118.315 219.855C117.727 219.739 117.22 219.376 116.714 219.061C112.875 216.687 107.75 216.577 103.808 218.774C106.915 218.09 110.247 218.473 113.121 219.828C114.907 220.669 116.604 221.908 118.575 222.024C119.91 222.106 121.223 221.655 122.558 221.648C126.944 221.614 128.484 225.268 131.043 227.978C130.53 226.315 129.496 224.625 128.395 223.27Z"
            fill="#EBD3BA" />
        <path
            d="M125.882 234.301C126.203 234.301 126.525 234.246 126.812 234.137C127.551 233.849 128.16 233.199 128.489 232.351C128.735 231.694 128.824 230.927 128.762 229.997C128.66 228.525 128.208 227.047 127.449 225.727C126.84 224.659 125.882 223.263 124.773 222.634C124.308 222.367 123.842 222.312 123.404 222.469C122.583 222.764 122.07 223.701 121.783 224.44C120.784 226.986 121.105 229.962 122.611 232.207C123.138 232.987 123.706 233.541 124.349 233.897C124.821 234.164 125.361 234.301 125.882 234.301ZM123.897 223.024C124.075 223.024 124.26 223.078 124.458 223.188C125.444 223.742 126.326 225.049 126.894 226.041C127.599 227.28 128.03 228.662 128.126 230.044C128.188 230.879 128.112 231.564 127.893 232.132C127.64 232.802 127.147 233.336 126.586 233.548C126.012 233.774 125.279 233.692 124.643 233.343C124.089 233.042 123.596 232.556 123.131 231.858C121.742 229.784 121.447 227.027 122.364 224.673C122.7 223.817 123.151 223.236 123.61 223.072C123.699 223.037 123.794 223.024 123.897 223.024Z"
            fill="#623127" />
        <path
            d="M113.662 230.264C114.244 230.264 114.812 230.107 115.291 229.717C116.105 229.06 116.447 227.89 116.31 226.255C116.208 224.982 115.962 224.003 115.544 223.162C114.839 221.745 112.656 219.439 110.809 219.891C109.762 220.144 108.886 221.074 108.564 222.272C108.318 223.196 108.38 224.25 108.742 225.488C109.132 226.822 109.96 228.629 111.65 229.669C112.225 230.025 112.951 230.264 113.662 230.264ZM111.281 220.472C112.656 220.472 114.408 222.313 114.976 223.449C115.359 224.208 115.578 225.119 115.681 226.309C115.797 227.726 115.537 228.711 114.894 229.231C114.08 229.895 112.814 229.642 111.979 229.135C110.46 228.205 109.714 226.542 109.351 225.317C109.023 224.188 108.961 223.25 109.18 222.436C109.44 221.465 110.138 220.712 110.959 220.513C111.062 220.479 111.171 220.472 111.281 220.472Z"
            fill="#623127" />
        <path
            d="M101.318 234.167C101.879 234.167 102.399 234.044 102.843 233.798C103.863 233.236 104.541 232.039 104.794 230.328C105.129 228.084 104.801 225.887 103.877 224.142C103.24 222.945 101.639 221.022 99.8463 220.652C99.0046 220.475 98.2314 220.666 97.5608 221.207C95.1179 223.171 95.2274 227.461 96.0827 229.883C96.7533 231.786 98.163 233.284 99.8463 233.893C100.339 234.078 100.845 234.167 101.318 234.167ZM99.2578 221.234C99.4084 221.234 99.5589 221.248 99.7163 221.282C101.112 221.569 102.611 223.13 103.316 224.45C104.178 226.079 104.479 228.132 104.171 230.246C104.014 231.293 103.603 232.669 102.542 233.25C101.872 233.613 100.969 233.64 100.058 233.312C98.553 232.771 97.2871 231.416 96.6781 229.685C95.9117 227.502 95.7816 223.465 97.9577 221.713C98.3477 221.391 98.7857 221.234 99.2578 221.234Z"
            fill="#623127" />
        <path
            d="M94.7218 242.234C95.1802 242.234 95.6592 242.131 96.0903 241.858C97.062 241.242 97.3426 240.044 97.4042 239.148C97.5821 236.595 96.4119 234.002 94.2701 232.202C93.4216 231.491 92.3267 231.279 91.2661 231.628C90.0344 232.031 89.0422 233.113 88.7342 234.385C88.4879 235.398 88.5905 236.534 89.0148 237.67C89.7128 239.517 91.1498 241.037 92.9631 241.83C93.3942 242.015 94.0375 242.234 94.7218 242.234ZM96.7746 239.1C96.7336 239.716 96.5419 240.818 95.755 241.324C94.8928 241.878 93.7022 241.461 93.23 241.249C91.5945 240.537 90.2465 239.114 89.6238 237.444C89.3569 236.732 89.0969 235.658 89.3638 234.536C89.6238 233.468 90.4518 232.565 91.4714 232.23C92.3336 231.949 93.1821 232.113 93.8732 232.688C95.8577 234.358 96.9389 236.753 96.7746 239.1Z"
            fill="#623127" />
        <path
            d="M125.256 242.902C127.924 245.83 129.149 249.786 129.827 253.686C130.99 260.392 130.655 267.598 127.391 273.571C126.344 275.494 124.941 277.308 123.011 278.341C121.198 279.306 119.029 279.504 117.01 279.114C114.991 278.724 113.11 277.787 111.419 276.617C106.034 272.88 102.64 266.934 99.9096 260.981C98.8969 258.777 97.9457 256.519 97.4599 254.145C96.9741 251.763 96.9877 249.238 97.8636 246.973C98.9243 244.243 101.203 242.087 103.831 240.78C106.581 239.412 109.729 238.926 112.761 238.618C115.566 238.331 118.502 238.659 121.075 239.857C122.642 240.582 124.079 241.615 125.256 242.902Z"
            fill="#D78F8A" />
        <path
            d="M249.746 240.018C250.397 240.018 251.06 239.751 251.615 239.266C252.1 238.841 252.504 238.246 252.853 237.459C253.401 236.214 253.667 234.818 253.62 233.415C253.578 232.286 253.401 230.732 252.764 229.74C252.49 229.316 252.135 229.076 251.704 229.008C250.896 228.892 250.075 229.439 249.521 229.918C247.618 231.567 246.592 234.127 246.859 236.604C246.948 237.466 247.174 238.164 247.55 238.732C248.015 239.437 248.734 239.909 249.473 239.998C249.562 240.018 249.651 240.018 249.746 240.018ZM251.485 229.638C251.526 229.638 251.567 229.638 251.608 229.644C251.854 229.679 252.059 229.829 252.23 230.089C252.792 230.958 252.949 232.388 252.983 233.442C253.031 234.749 252.785 236.049 252.271 237.206C251.964 237.911 251.608 238.431 251.197 238.793C250.704 239.224 250.089 239.443 249.548 239.375C248.987 239.307 248.439 238.937 248.077 238.39C247.762 237.911 247.57 237.308 247.488 236.549C247.249 234.27 248.186 231.923 249.938 230.411C250.506 229.911 251.06 229.638 251.485 229.638Z"
            fill="#623127" />
        <path
            d="M241.586 231.53C241.73 231.53 241.867 231.516 242.011 231.489C242.962 231.297 243.742 230.497 244.337 229.094C244.796 228.013 245.021 227.103 245.042 226.247C245.076 224.79 244.276 221.971 242.578 221.539C241.614 221.293 240.485 221.676 239.711 222.518C239.116 223.168 238.705 224.051 238.473 225.221C238.22 226.48 238.11 228.307 239.048 229.881C239.561 230.743 240.512 231.53 241.586 231.53ZM241.976 222.094C242.127 222.094 242.277 222.114 242.421 222.148C243.701 222.477 244.44 224.975 244.412 226.234C244.399 227.014 244.187 227.842 243.762 228.848C243.256 230.038 242.626 230.723 241.894 230.866C240.964 231.051 240.047 230.319 239.595 229.552C238.767 228.15 238.863 226.487 239.095 225.344C239.308 224.29 239.663 223.503 240.183 222.942C240.676 222.402 241.347 222.094 241.976 222.094Z"
            fill="#623127" />
        <path
            d="M230.108 229.478C230.122 229.478 230.135 229.478 230.149 229.478C231.224 229.464 232.298 228.773 233.235 227.486C234.474 225.796 235.151 223.866 235.144 222.053C235.138 220.801 234.659 218.543 233.358 217.475C232.743 216.969 232.031 216.791 231.237 216.941C228.404 217.496 226.646 221.04 226.297 223.374C226.03 225.214 226.529 227.041 227.645 228.266C228.356 229.04 229.253 229.478 230.108 229.478ZM231.764 217.516C232.202 217.516 232.599 217.667 232.955 217.961C233.961 218.789 234.508 220.684 234.515 222.053C234.522 223.736 233.885 225.536 232.729 227.11C232.154 227.89 231.244 228.827 230.142 228.841C229.465 228.848 228.712 228.485 228.117 227.835C227.131 226.754 226.687 225.119 226.926 223.463C227.234 221.369 228.856 218.043 231.36 217.557C231.497 217.53 231.634 217.516 231.764 217.516Z"
            fill="#623127" />
        <path
            d="M221.032 233.136C221.093 233.136 221.148 233.136 221.21 233.13C222.277 233.041 223.023 232.185 223.454 231.474C224.699 229.469 224.857 226.855 223.885 224.466C223.495 223.515 222.688 222.865 221.668 222.694C220.491 222.496 219.211 222.954 218.411 223.864C217.774 224.583 217.371 225.554 217.227 226.663C217.001 228.47 217.521 230.331 218.657 231.754C219.081 232.288 219.93 233.136 221.032 233.136ZM221.114 223.289C221.264 223.289 221.415 223.303 221.565 223.331C222.373 223.467 222.989 223.96 223.303 224.713C224.2 226.909 224.056 229.318 222.92 231.145C222.626 231.624 222.003 232.432 221.155 232.5C220.217 232.589 219.444 231.734 219.157 231.371C218.144 230.098 217.658 228.374 217.857 226.752C217.946 226.068 218.192 225.082 218.89 224.289C219.451 223.659 220.286 223.289 221.114 223.289Z"
            fill="#623127" />
        <path
            d="M244.457 246.445C245.367 249.962 244.669 253.705 243.546 257.168C241.617 263.114 238.264 268.828 233.049 272.284C231.373 273.392 229.457 274.275 227.445 274.282C225.556 274.289 223.709 273.522 222.238 272.339C220.76 271.155 219.637 269.588 218.762 267.911C215.99 262.574 215.778 256.285 216.113 250.277C216.236 248.053 216.428 245.809 217.051 243.674C217.673 241.539 218.768 239.486 220.452 238.022C222.484 236.256 225.255 235.483 227.951 235.544C230.771 235.606 233.535 236.564 236.129 237.611C238.537 238.576 240.775 240.102 242.356 242.175C243.327 243.441 244.053 244.899 244.457 246.445Z"
            fill="#D78F8A" />
    </g>
</svg>
