<svg width="452" height="734" viewBox="0 0 452 734" fill="none" xmlns="http://www.w3.org/2000/svg">
    <g filter="url(#filter0_f_2397_55021)">
        <ellipse cx="226.769" cy="694.589" rx="152.945" ry="29.4125" fill="#D2CCCC" />
    </g>
    <path
        d="M227.944 485.996V694.078C226.166 694.838 224.289 695.417 222.351 695.826C204.313 699.662 180.103 689.634 161.986 686.258C141.931 682.513 126.2 692.54 114.475 692.8C105.296 693 104.227 699.751 85.1608 704.146C83.1333 704.615 80.896 705.055 78.4291 705.464C74.444 706.114 69.8397 706.673 64.4863 707.082C24.7055 710.139 4.56045 657.094 1.76391 637.718C-1.04262 618.342 11.9613 621.139 11.9613 621.139C8.13603 611.451 15.0175 609.154 15.0175 609.154C27.7717 604.569 34.4035 616.804 34.4035 616.804C34.4035 610.432 37.9691 609.154 37.9691 609.154C45.4099 603.201 53.9893 605.878 60.8508 610.182C64.2566 612.33 67.2329 614.886 69.4402 616.984C71.9171 619.341 73.4153 621.139 73.4153 621.139C71.6275 604.569 78.7687 595.131 78.7687 595.131C74.9434 597.168 71.3778 600.235 71.3778 600.235C71.5576 599.446 71.8073 598.676 72.1069 597.937C75.4628 589.348 85.4005 584.164 85.4005 584.164C78.479 585.403 74.1943 591.186 73.9347 591.545C77.2605 582.387 87.438 579.071 87.438 579.071C78.519 575.495 83.1033 576.774 83.1033 576.774C92.282 569.123 101.461 574.736 101.461 574.736L92.7913 565.557C92.7913 565.557 100.951 568.104 112.677 571.16C121.885 573.568 128.597 578.811 130.794 580.189C131.394 580.579 131.663 580.669 131.553 580.339C131.513 580.229 131.374 580.04 131.154 579.78C128.347 576.554 112.217 562.052 112.687 537.502C112.876 527.465 118.979 515.909 126.5 505.412C138.844 488.143 155.014 473.751 155.014 473.751C159.978 475.519 165.122 477.027 170.285 478.325C198.9 485.496 227.944 485.996 227.944 485.996Z"
        fill="#CAB8A8" />
    <path
        d="M227.945 485.996V504.163C221.063 510.176 211.645 514.68 210.097 523.489C210.716 517.866 211.325 512.253 211.944 506.63C208.668 508.508 205.392 510.376 202.116 512.253C202.786 508.488 203.445 504.733 204.104 500.967C201.078 502.695 198.062 504.413 195.035 506.131C194.546 504.882 194.046 503.644 193.557 502.406C191.25 503.564 188.943 504.733 186.636 505.901C187.924 503.434 189.212 500.957 190.501 498.48C180.184 503.125 169.866 507.779 159.539 512.423C163.554 508.878 166.241 503.854 166.96 498.55L151.829 506.011C152.378 503.364 153.746 500.897 155.704 499.04C149.721 501.127 143.739 503.215 137.756 505.302C139.324 502.356 140.882 499.399 142.45 496.453C138.835 501.287 132.642 505.172 126.5 505.412C138.845 488.143 155.015 473.751 155.015 473.751C187.485 485.307 227.945 485.996 227.945 485.996Z"
        fill="#997D78" />
    <path
        d="M78.4291 705.467C74.444 706.116 69.8397 706.675 64.4863 707.085C24.7055 710.141 4.56045 657.097 1.76391 637.721C-1.04262 618.345 11.9613 621.141 11.9613 621.141C8.13603 611.453 15.0175 609.156 15.0175 609.156C27.7717 604.572 34.4035 616.807 34.4035 616.807C34.4035 610.434 37.9691 609.156 37.9691 609.156C45.4099 603.203 53.9893 605.88 60.8508 610.185L60.8808 610.215C78.2793 629.721 72.7361 645.801 72.7361 645.801C90.654 680.797 85.1807 697.687 78.4291 705.467Z"
        fill="#FEF2F0" />
    <path
        d="M83.8036 613.644C81.9659 610.278 80.1282 606.912 78.2805 603.546C82.0258 614.033 83.4541 625.349 82.4353 636.446C80.8373 633.629 79.2293 630.813 77.6313 627.996C79.6088 633.11 79.9384 638.833 78.5501 644.136C76.8223 635.177 74.9746 625.849 70.0806 617.989C69.8609 617.629 69.6412 617.299 69.4414 616.99C71.9183 619.347 73.4165 621.145 73.4165 621.145C71.6287 604.575 78.7699 595.137 78.7699 595.137C74.9446 597.174 71.379 600.24 71.379 600.24C71.5588 599.451 71.8085 598.682 72.1081 597.943C72.6474 597.134 73.2267 596.355 73.816 595.606C74.8048 594.348 76.0332 593.049 77.6213 592.92C80.4378 592.69 82.0958 595.986 82.705 598.742C83.7937 603.626 84.1732 608.66 83.8036 613.644Z"
        fill="#997D78" />
    <path opacity="0.59"
        d="M227.944 656.095V694.078C209.586 701.898 182.05 689.993 161.985 686.257C141.93 682.512 126.199 692.54 114.474 692.799C105.295 692.999 104.227 699.751 85.1602 704.145C87.7569 695.736 94.139 683.251 95.5173 679.775C97.9943 673.543 100.521 667.041 99.9618 660.359C99.1828 651.161 92.7807 643.54 86.6783 636.599C93.2202 633.772 100.971 636.569 106.544 641.023C112.117 645.478 116.292 651.43 121.525 656.274C126.769 661.108 133.8 664.924 140.801 663.555C148.422 662.057 153.745 654.936 161.086 652.409C173.101 648.284 185.626 657.453 198.34 657.523C207.769 657.573 217.317 652.589 226.296 655.465C226.865 655.645 227.414 655.855 227.944 656.095Z"
        fill="#997D78" />
    <path
        d="M171.562 477.13C172.292 473.814 174.409 470.738 177.635 469.529C176.237 472.236 174.019 474.753 171.562 477.13Z"
        fill="#FBF7FA" />
    <path
        d="M227.944 486.005V694.088C226.166 694.847 224.289 695.426 222.351 695.836C221.712 694.538 221.113 693.199 220.453 691.991C216.598 684.84 208.428 680.235 200.318 680.655C201.507 683.281 202.695 685.918 203.884 688.555C195.344 680.954 183.489 678.677 172.353 676.13C164.073 674.233 155.414 671.726 148.702 666.812C146.375 665.114 144.288 663.126 142.53 660.779C142.66 665.783 142.799 670.797 142.929 675.801C139.334 664.355 131.763 654.617 126.54 643.82C121.316 633.014 118.639 619.58 124.942 609.373C122.814 612.149 120.687 614.926 118.569 617.703C120.267 611.141 121.965 604.589 123.663 598.027C121.686 600.134 119.708 602.242 117.73 604.349C118.12 594.861 124.342 587.58 130.794 580.199C130.914 580.059 131.034 579.929 131.154 579.789C135.778 574.516 140.452 569.173 143.129 562.92C149.281 548.578 143.958 532.029 145.876 516.558C147.444 503.943 154.016 493.676 162.955 484.997C165.132 482.879 167.779 480.672 170.285 478.335C198.9 485.506 227.944 486.005 227.944 486.005Z"
        fill="#FBF7FA" />
    <path
        d="M184.19 498.027C184.011 498.027 183.821 497.997 183.621 497.927C183.811 497.967 184.001 497.997 184.19 498.027Z"
        fill="#DCCEC8" />
    <path
        d="M227.944 486.005V496.552C223 499.529 215.969 501.147 212.583 501.466C214.611 501.037 216.169 498.979 216.029 496.902C212.403 497.072 208.778 497.242 205.152 497.401C205.032 496.213 204.903 495.024 204.773 493.826C198.76 497.701 191.27 499.229 184.208 498.031C186.186 498.001 187.095 494.355 185.327 492.927C183.379 491.359 180.533 491.928 178.156 492.697C175.779 493.456 173.102 494.315 170.895 493.137C171.074 492.208 171.264 491.279 171.444 490.34C166.061 495.534 160.538 500.927 157.611 507.809C154.685 514.69 154.994 523.519 160.368 528.723C163.234 531.499 167.119 532.907 170.635 534.805C181.012 540.388 188.793 551.484 188.433 563.26C188.083 575.035 178.246 586.361 166.46 586.551C161.966 586.621 157.561 585.203 153.057 585.003C148.562 584.803 143.469 586.261 141.431 590.277C139.693 593.702 140.702 597.837 141.97 601.463C143.239 605.078 144.747 608.904 143.888 612.649C143.039 616.394 138.515 619.49 135.309 617.383C140.622 628.499 144.657 640.215 147.324 652.24C148.393 657.024 149.241 661.958 148.702 666.812C146.375 665.114 144.288 663.126 142.53 660.779C142.66 665.783 142.799 670.797 142.929 675.801C139.334 664.355 131.763 654.617 126.54 643.82C121.316 633.014 118.639 619.58 124.942 609.373C122.814 612.149 120.687 614.926 118.569 617.703C120.267 611.141 121.965 604.589 123.663 598.027C121.686 600.134 119.708 602.242 117.73 604.349C118.12 594.861 124.342 587.58 130.794 580.199C130.914 580.059 131.034 579.929 131.154 579.789C135.778 574.516 140.452 569.173 143.129 562.92C149.281 548.578 143.958 532.029 145.876 516.558C147.444 503.943 154.016 493.676 162.955 484.997C165.132 482.879 167.779 480.672 170.285 478.335C198.9 485.506 227.944 486.005 227.944 486.005Z"
        fill="#DCCEC8" />
    <path
        d="M156.465 577.754C153.368 577.774 149.913 577.654 146.057 577.394C108.054 574.847 99.6448 555.98 100.154 534.048C100.484 519.685 117.443 499.311 129.118 486.956C135.261 480.444 139.935 476.159 139.935 476.159C172.315 470.296 171.556 480.494 171.556 480.494C168.4 482.072 165.094 484.659 161.958 487.845C151.84 498.112 143.451 514.642 147.416 523.83C148.584 526.547 150.841 528.624 154.467 529.713C174.103 535.576 182.013 546.542 182.522 557.509C182.982 567.356 183.851 577.624 156.465 577.754Z"
        fill="#D2C0B2" />
    <path opacity="0.48"
        d="M156.465 577.757C157.104 576.629 157.993 575.61 159.002 574.821C161.668 572.743 165.034 571.865 168.31 571.026C165.763 569.887 163.836 567.49 163.256 564.763C166.522 564.414 169.868 564.903 172.894 566.172C169.888 562.346 165.494 559.63 160.729 558.651C162.597 557.392 164.984 556.953 167.181 557.452C164.065 556.454 161.269 554.456 159.321 551.819C162.168 552.199 165.014 552.578 167.861 552.948C156.305 543.779 145.059 534.211 134.152 524.273C134.941 524.993 141.393 524.233 147.416 523.834C148.584 526.551 150.842 528.628 154.467 529.717C174.103 535.579 182.013 546.546 182.523 557.512C182.982 567.36 183.851 577.627 156.465 577.757Z"
        fill="#9A8283" />
    <path
        d="M171.555 480.494C168.399 482.072 165.093 484.659 161.957 487.845C154.666 488.604 147.365 489.233 140.064 489.762C140.623 488.544 141.172 487.325 141.732 486.107C137.856 487.285 134.191 489.163 130.975 491.63C132.363 490.242 133.282 488.394 133.552 486.446C131.964 486.446 130.495 486.626 129.117 486.956C135.26 480.444 139.934 476.159 139.934 476.159C172.314 470.296 171.555 480.494 171.555 480.494Z"
        fill="#9A8283" />
    <path
        d="M59.8565 638.981C64.92 636.058 65.7717 628.054 61.7588 621.103C57.7459 614.153 50.388 610.889 45.3245 613.812C40.261 616.736 39.4093 624.74 43.4223 631.69C47.4352 638.641 54.793 641.905 59.8565 638.981Z"
        fill="#F1A0A1" />
    <path
        d="M32.5534 636.33C36.1265 634.267 36.7246 628.614 33.8894 623.703C31.0542 618.792 25.8592 616.484 22.2861 618.547C18.713 620.61 18.1148 626.263 20.95 631.174C23.7853 636.084 28.9803 638.393 32.5534 636.33Z"
        fill="#F1A0A1" />
    <path
        d="M17.2565 645.975C20.8296 643.912 21.4278 638.259 18.5926 633.348C15.7573 628.438 10.5623 626.129 6.98921 628.192C3.4161 630.255 2.81796 635.909 5.6532 640.819C8.48843 645.73 13.6834 648.038 17.2565 645.975Z"
        fill="#F1A0A1" />
    <path
        d="M66.3228 701.417C77.152 695.165 78.9684 678.037 70.38 663.162C61.7915 648.287 46.0504 641.297 35.2213 647.549C24.3921 653.802 22.5756 670.929 31.1641 685.804C39.7525 700.679 55.4936 707.669 66.3228 701.417Z"
        fill="#F1A0A1" />
    <path
        d="M223.879 487.343V695.426C225.657 696.185 227.534 696.764 229.472 697.174C247.51 701.009 271.72 690.982 289.837 687.606C309.893 683.86 325.623 693.888 337.349 694.148C346.527 694.347 347.596 701.099 366.662 705.494C368.69 705.963 370.927 706.403 373.394 706.812C377.379 707.461 381.983 708.021 387.337 708.43C427.118 711.486 447.263 658.442 450.059 639.066C452.866 619.69 439.862 622.486 439.862 622.486C443.687 612.798 436.806 610.501 436.806 610.501C424.051 605.917 417.42 618.152 417.42 618.152C417.42 611.78 413.854 610.501 413.854 610.501C406.413 604.549 397.834 607.225 390.972 611.53C387.566 613.677 384.59 616.234 382.383 618.331C379.906 620.689 378.408 622.486 378.408 622.486C380.196 605.917 373.054 596.478 373.054 596.478C376.88 598.516 380.445 601.582 380.445 601.582C380.265 600.793 380.016 600.024 379.716 599.285C376.36 590.696 366.423 585.512 366.423 585.512C373.344 586.751 377.629 592.533 377.888 592.893C374.563 583.734 364.385 580.418 364.385 580.418C373.304 576.843 368.72 578.121 368.72 578.121C359.541 570.471 350.362 576.084 350.362 576.084L359.032 566.905C359.032 566.905 350.872 569.452 339.146 572.508C329.938 574.915 323.226 580.159 321.029 581.537C320.429 581.927 320.16 582.016 320.27 581.687C320.31 581.577 320.449 581.387 320.669 581.127C323.476 577.901 339.606 563.399 339.136 538.85C338.947 528.812 332.844 517.257 325.323 506.759C312.979 489.491 296.809 475.099 296.809 475.099C291.845 476.866 286.701 478.375 281.538 479.673C252.923 486.844 223.879 487.343 223.879 487.343Z"
        fill="#CAB8A8" />
    <path
        d="M223.879 487.344V505.511C230.76 511.524 240.179 516.028 241.727 524.837C241.108 519.214 240.498 513.601 239.879 507.978C243.155 509.856 246.431 511.723 249.707 513.601C249.038 509.836 248.379 506.08 247.719 502.315C250.746 504.043 253.762 505.761 256.788 507.479C257.278 506.23 257.777 504.992 258.266 503.753C260.574 504.912 262.881 506.08 265.188 507.249C263.899 504.782 262.611 502.305 261.323 499.828C271.64 504.472 281.957 509.127 292.284 513.771C288.269 510.225 285.583 505.201 284.863 499.898L299.995 507.359C299.445 504.712 298.077 502.245 296.12 500.387C302.102 502.475 308.085 504.562 314.067 506.65C312.499 503.703 310.941 500.747 309.373 497.801C312.989 502.635 319.181 506.52 325.323 506.759C312.979 489.491 296.809 475.099 296.809 475.099C264.339 486.654 223.879 487.344 223.879 487.344Z"
        fill="#997D78" />
    <path
        d="M373.393 706.815C377.378 707.464 381.982 708.023 387.336 708.433C427.117 711.489 447.262 658.444 450.058 639.068C452.865 619.692 439.861 622.489 439.861 622.489C443.686 612.801 436.805 610.504 436.805 610.504C424.05 605.919 417.419 618.154 417.419 618.154C417.419 611.782 413.853 610.504 413.853 610.504C406.412 604.551 397.833 607.228 390.971 611.532L390.941 611.562C373.543 631.068 379.086 647.148 379.086 647.148C361.168 682.145 366.641 699.034 373.393 706.815Z"
        fill="#FEF2F0" />
    <path
        d="M368.02 614.992C369.858 611.626 371.696 608.26 373.543 604.894C369.798 615.381 368.37 626.697 369.388 637.793C370.987 634.977 372.595 632.16 374.193 629.344C372.215 634.458 371.885 640.18 373.274 645.484C375.002 636.525 376.849 627.196 381.743 619.336C381.963 618.977 382.183 618.647 382.382 618.337C379.905 620.695 378.407 622.492 378.407 622.492C380.195 605.923 373.054 596.484 373.054 596.484C376.879 598.522 380.445 601.588 380.445 601.588C380.265 600.799 380.015 600.03 379.716 599.291C379.176 598.482 378.597 597.703 378.008 596.954C377.019 595.695 375.791 594.397 374.203 594.267C371.386 594.038 369.728 597.333 369.119 600.09C368.03 604.974 367.651 610.008 368.02 614.992Z"
        fill="#997D78" />
    <path opacity="0.59"
        d="M223.879 657.442V695.425C242.236 703.246 269.772 691.34 289.837 687.605C309.893 683.86 325.623 693.887 337.349 694.147C346.527 694.347 347.596 701.098 366.662 705.493C364.066 697.083 357.683 684.599 356.305 681.123C353.828 674.891 351.301 668.389 351.861 661.707C352.64 652.508 359.042 644.888 365.144 637.946C358.602 635.12 350.852 637.916 345.279 642.371C339.706 646.825 335.531 652.778 330.297 657.622C325.054 662.456 318.022 666.271 311.021 664.903C303.401 663.405 298.077 656.284 290.736 653.757C278.721 649.632 266.197 658.801 253.482 658.871C244.054 658.92 234.506 653.937 225.527 656.813C224.958 656.993 224.408 657.203 223.879 657.442Z"
        fill="#997D78" />
    <path
        d="M280.26 478.478C279.531 475.162 277.414 472.085 274.188 470.877C275.586 473.584 277.803 476.101 280.26 478.478Z"
        fill="#FBF7FA" />
    <path
        d="M223.879 487.353V695.436C225.657 696.195 227.534 696.774 229.472 697.184C230.111 695.885 230.71 694.547 231.37 693.338C235.225 686.187 243.395 681.583 251.505 682.002C250.316 684.629 249.128 687.266 247.939 689.903C256.479 682.302 268.334 680.025 279.47 677.478C287.75 675.58 296.409 673.073 303.121 668.16C305.448 666.462 307.535 664.474 309.293 662.127C309.163 667.131 309.024 672.145 308.894 677.148C312.489 665.703 320.06 655.965 325.283 645.168C330.507 634.361 333.184 620.928 326.882 610.721C329.009 613.497 331.136 616.274 333.254 619.05C331.556 612.488 329.858 605.936 328.16 599.375C330.137 601.482 332.115 603.589 334.093 605.697C333.703 596.209 327.481 588.928 321.029 581.547C320.909 581.407 320.789 581.277 320.669 581.137C316.045 575.864 311.371 570.52 308.694 564.268C302.542 549.926 307.865 533.376 305.947 517.905C304.379 505.291 297.807 495.024 288.869 486.344C286.691 484.227 284.044 482.02 281.538 479.683C252.923 486.854 223.879 487.353 223.879 487.353Z"
        fill="#FBF7FA" />
    <path
        d="M267.637 499.374C267.816 499.374 268.006 499.344 268.206 499.274C268.016 499.314 267.826 499.344 267.637 499.374Z"
        fill="#DCCEC8" />
    <path
        d="M223.879 487.913V498.46C228.823 501.436 235.854 503.054 239.24 503.374C237.212 502.944 235.654 500.887 235.794 498.809C239.42 498.979 243.045 499.149 246.671 499.309C246.791 498.12 246.92 496.932 247.05 495.733C253.063 499.608 260.554 501.136 267.615 499.938C265.637 499.908 264.728 496.262 266.496 494.834C268.444 493.266 271.29 493.835 273.667 494.604C276.044 495.363 278.721 496.222 280.928 495.044C280.749 494.115 280.559 493.186 280.379 492.247C285.762 497.441 291.286 502.834 294.212 509.716C297.138 516.597 296.829 525.426 291.455 530.63C288.589 533.406 284.704 534.815 281.188 536.712C270.811 542.295 263.03 553.392 263.39 565.167C263.74 576.943 273.577 588.269 285.363 588.458C289.857 588.528 294.262 587.11 298.766 586.91C303.261 586.711 308.354 588.169 310.392 592.184C312.13 595.61 311.121 599.744 309.853 603.37C308.584 606.985 307.076 610.811 307.935 614.556C308.784 618.301 313.308 621.398 316.514 619.29C311.201 630.406 307.166 642.122 304.499 654.147C303.431 658.931 302.582 663.865 303.121 668.719C305.448 667.021 307.535 665.034 309.293 662.687C309.163 667.69 309.024 672.704 308.894 677.708C312.489 666.262 320.06 656.524 325.283 645.728C330.507 634.921 333.184 621.488 326.882 611.28C329.009 614.057 331.136 616.833 333.254 619.61C331.556 613.048 329.858 606.496 328.16 599.934C330.137 602.042 332.115 604.149 334.093 606.256C333.703 596.768 327.481 589.487 321.029 582.106C320.909 581.966 320.789 581.837 320.669 581.697C316.045 576.423 311.371 571.08 308.694 564.828C302.542 550.485 307.865 533.936 305.947 518.465C304.379 505.851 297.807 495.583 288.869 486.904C286.691 484.787 284.044 482.579 281.538 480.242C252.923 487.413 223.879 487.913 223.879 487.913Z"
        fill="#DCCEC8" />
    <path
        d="M295.349 579.095C298.445 579.115 301.9 578.995 305.756 578.736C343.759 576.189 352.168 557.322 351.659 535.389C351.329 521.027 334.37 500.652 322.695 488.298C316.552 481.786 311.878 477.501 311.878 477.501C279.498 471.638 280.257 481.836 280.257 481.836C283.413 483.414 286.719 486 289.855 489.187C299.973 499.454 308.362 515.983 304.397 525.172C303.229 527.889 300.972 529.966 297.346 531.055C277.71 536.918 269.8 547.884 269.291 558.85C268.831 568.698 267.962 578.966 295.349 579.095Z"
        fill="#D2C0B2" />
    <path opacity="0.48"
        d="M295.349 579.099C294.709 577.97 293.82 576.952 292.812 576.163C290.145 574.085 286.779 573.206 283.503 572.367C286.05 571.229 287.978 568.832 288.557 566.105C285.291 565.756 281.945 566.245 278.919 567.513C281.925 563.688 286.32 560.971 291.084 559.993C289.216 558.734 286.829 558.295 284.632 558.794C287.748 557.795 290.544 555.798 292.492 553.161C289.646 553.541 286.799 553.92 283.953 554.29C295.508 545.121 306.754 535.553 317.661 525.615C316.872 526.334 310.42 525.575 304.397 525.176C303.229 527.892 300.972 529.97 297.346 531.059C277.71 536.921 269.8 547.888 269.291 558.854C268.831 568.702 267.962 578.969 295.349 579.099Z"
        fill="#9A8283" />
    <path
        d="M280.255 481.836C283.412 483.414 286.717 486 289.854 489.187C297.145 489.946 304.446 490.575 311.746 491.104C311.187 489.886 310.638 488.667 310.079 487.449C313.954 488.627 317.619 490.505 320.835 492.972C319.447 491.584 318.528 489.736 318.258 487.788C319.846 487.788 321.315 487.968 322.693 488.298C316.551 481.786 311.876 477.501 311.876 477.501C279.496 471.638 280.255 481.836 280.255 481.836Z"
        fill="#9A8283" />
    <path
        d="M408.384 633.068C412.397 626.117 411.545 618.113 406.482 615.189C401.418 612.266 394.06 615.53 390.047 622.481C386.034 629.431 386.886 637.435 391.949 640.359C397.013 643.282 404.371 640.018 408.384 633.068Z"
        fill="#F1A0A1" />
    <path
        d="M430.846 632.545C433.682 627.634 433.084 621.981 429.51 619.918C425.937 617.855 420.742 620.164 417.907 625.074C415.072 629.985 415.67 635.638 419.243 637.701C422.816 639.764 428.011 637.456 430.846 632.545Z"
        fill="#F1A0A1" />
    <path
        d="M446.151 642.197C448.986 637.287 448.388 631.634 444.815 629.571C441.242 627.508 436.047 629.816 433.212 634.727C430.377 639.637 430.975 645.291 434.548 647.354C438.121 649.417 443.316 647.108 446.151 642.197Z"
        fill="#F1A0A1" />
    <path
        d="M420.638 687.186C429.226 672.31 427.41 655.183 416.581 648.931C405.751 642.678 390.01 649.668 381.422 664.544C372.833 679.419 374.65 696.546 385.479 702.799C396.308 709.051 412.049 702.061 420.638 687.186Z"
        fill="#F1A0A1" />
    <path
        d="M361.638 424.557C364.015 426.645 372.395 433.995 373.024 439.139C373.024 439.139 365.633 435.823 361.558 438.2C361.558 438.2 374.033 440.198 376.25 445.761C375.87 445.561 367.641 441.127 364.235 444.452C360.749 447.848 359.301 449.376 357.603 449.716C357.603 449.716 359.041 453.801 358.452 456.268C358.452 456.268 355.136 453.292 352.08 454.39C349.014 455.499 346.037 459.244 341.283 463.149C336.519 467.065 299.075 487.08 264.648 488.348C242.266 489.177 233.586 488.938 230.241 488.658C226.895 488.938 218.215 489.177 195.823 488.348C161.406 487.08 123.962 467.065 119.198 463.149C114.444 459.244 111.467 455.499 108.401 454.39C105.345 453.292 102.029 456.268 102.029 456.268C101.43 453.801 102.878 449.716 102.878 449.716C101.18 449.376 99.7319 447.848 96.2462 444.452C92.8404 441.127 84.6106 445.561 84.2311 445.761C86.4484 440.198 98.9229 438.2 98.9229 438.2C94.848 435.823 87.4471 439.139 87.4471 439.139C88.0863 433.995 96.466 426.645 98.843 424.557C101.22 422.48 97.4847 421.751 90.763 421.501C84.0513 421.241 83.8516 419.413 83.8516 419.413L88.6856 418.265C82.9027 417.246 83.9215 416.567 83.9215 416.567C83.9215 416.567 83.9215 416.567 96.1663 410.445C108.401 404.332 114.184 387.333 116.901 375.767C119.627 364.212 122.893 344.656 127.108 334.708C131.313 324.771 133.73 318.518 133.73 318.518C128.636 319.537 119.967 328.596 119.967 328.596C122.134 317.629 138.454 310.868 138.454 310.868C132.841 312.016 133.99 309.34 133.99 309.34C136.496 309.03 139.283 306.463 141.051 304.536C141.051 304.536 141.051 304.536 141.061 304.536C142.189 303.307 142.919 302.328 142.919 302.328C160.956 268.2 224.677 269.429 230.241 269.609C235.804 269.429 299.525 268.2 317.563 302.328C317.563 302.328 318.002 302.918 318.731 303.757C320.409 305.694 323.635 308.98 326.491 309.34C326.491 309.34 327.64 312.016 322.027 310.868C322.027 310.868 338.347 317.629 340.514 328.596C340.514 328.596 331.845 319.537 326.741 318.518C326.741 318.518 329.168 324.771 333.373 334.708C337.588 344.656 340.854 364.212 343.58 375.767C346.297 387.333 352.08 404.332 364.315 410.445C376.56 416.567 376.56 416.567 376.56 416.567C376.56 416.567 377.578 417.246 371.795 418.265L376.629 419.413C376.629 419.413 376.43 421.241 369.718 421.501C362.996 421.751 359.261 422.48 361.638 424.557Z"
        fill="#CFBCAE" />
    <path
        d="M361.638 424.551C364.015 426.638 372.395 433.989 373.024 439.133C373.024 439.133 365.633 435.817 361.558 438.194C361.558 438.194 374.033 440.192 376.25 445.755C375.87 445.555 367.641 441.121 364.235 444.446C360.749 447.842 359.301 449.37 357.603 449.71C357.603 449.71 359.041 453.795 358.452 456.262C358.452 456.262 355.136 453.285 352.08 454.384C349.014 455.493 346.037 459.238 341.283 463.143C336.519 467.058 299.075 487.074 264.648 488.342C242.266 489.171 233.586 488.931 230.241 488.652C226.895 488.931 218.215 489.171 195.823 488.342C161.406 487.074 123.962 467.058 119.198 463.143C114.444 459.238 111.467 455.493 108.401 454.384C105.345 453.285 102.029 456.262 102.029 456.262C101.43 453.795 102.878 449.71 102.878 449.71C101.18 449.37 99.7319 447.842 96.2462 444.446C92.8404 441.121 84.6106 445.555 84.2311 445.755C86.4484 440.192 98.9229 438.194 98.9229 438.194C94.848 435.817 87.4471 439.133 87.4471 439.133C88.0863 433.989 96.466 426.638 98.843 424.551C101.22 422.474 97.4847 421.744 90.763 421.495C84.0513 421.235 83.8516 419.407 83.8516 419.407L88.6856 418.259C82.9027 417.24 83.9215 416.561 83.9215 416.561C83.9215 416.561 83.9215 416.561 96.1663 410.438C108.401 404.326 114.184 387.327 116.901 375.761C119.627 364.206 122.893 344.65 127.108 334.702C131.313 324.764 133.73 318.512 133.73 318.512C128.636 319.531 119.967 328.59 119.967 328.59C122.134 317.623 138.454 310.862 138.454 310.862C132.841 312.01 133.99 309.333 133.99 309.333C136.496 309.024 139.283 306.457 141.051 304.529C141.051 304.529 141.051 304.529 141.061 304.529C141.35 304.47 147.043 303.311 149.031 302.322C151.078 301.303 151.588 305.378 146.993 310.482C140.382 317.833 133.151 324.794 130.364 334.273C127.568 343.761 126.739 353.699 124.781 363.387C120.656 383.811 111.028 403.637 95.0677 417.03C98.5334 415.642 102.538 415.662 105.984 417.07C104.526 418.349 103.058 419.627 101.59 420.916C104.316 422.783 107.043 424.651 109.76 426.519C106.613 427.387 103.817 429.515 102.139 432.311C104.696 431.962 107.382 432.501 109.6 433.84C106.673 433.76 103.867 436.047 103.347 438.933C106.464 438.773 109.58 438.614 112.696 438.464C109.52 439.243 106.803 441.74 105.764 444.856C112.966 445.865 120.456 444.766 127.058 441.71C124.801 446.154 120.876 449.72 116.242 451.538C129.925 454.824 144.347 449.45 156.042 441.63C167.748 433.81 177.656 423.582 189.131 415.432C200.607 407.282 214.55 401.13 228.463 403.237C228.463 403.237 228.563 403.237 228.692 403.237C228.822 403.237 228.912 403.237 228.912 403.237C242.835 401.13 256.768 407.282 268.244 415.432C279.719 423.582 289.637 433.81 301.333 441.63C313.038 449.45 327.45 454.824 341.143 451.538C336.509 449.72 332.584 446.154 330.327 441.71C336.929 444.766 344.419 445.865 351.62 444.856C350.572 441.74 347.865 439.243 344.679 438.464C347.795 438.614 350.911 438.773 354.037 438.933C353.508 436.047 350.702 433.76 347.775 433.84C350.002 432.501 352.679 431.962 355.246 432.311C353.558 429.515 350.771 427.387 347.615 426.519C350.342 424.651 353.059 422.783 355.785 420.916C354.317 419.627 352.859 418.349 351.391 417.07C354.846 415.662 358.851 415.642 362.307 417.03C346.347 403.637 336.719 383.811 332.594 363.387C330.636 353.699 329.807 343.761 327.021 334.273C324.224 324.794 316.993 317.833 310.381 310.482C305.797 305.378 306.306 301.303 308.344 302.322C310.381 303.341 316.324 304.529 316.324 304.529L318.731 303.75C320.409 305.688 323.635 308.974 326.491 309.333C326.491 309.333 327.64 312.01 322.027 310.862C322.027 310.862 338.347 317.623 340.514 328.59C340.514 328.59 331.845 319.531 326.741 318.512C326.741 318.512 329.168 324.764 333.373 334.702C337.588 344.65 340.854 364.206 343.58 375.761C346.297 387.327 352.08 404.326 364.315 410.438C376.56 416.561 376.56 416.561 376.56 416.561C376.56 416.561 377.578 417.24 371.795 418.259L376.629 419.407C376.629 419.407 376.43 421.235 369.718 421.495C362.996 421.744 359.261 422.474 361.638 424.551Z"
        fill="white" />
    <path
        d="M142.581 403.473C142.581 403.473 136.629 360.636 165.363 360.976C194.097 361.315 186.277 413.341 186.277 413.341C186.277 413.341 159.241 401.266 142.581 403.473Z"
        fill="white" stroke="#34312E" stroke-width="0.998765" stroke-miterlimit="10" />
    <path
        d="M166.799 405.455C176.65 405.455 184.637 395.613 184.637 383.472C184.637 371.331 176.65 361.489 166.799 361.489C156.947 361.489 148.961 371.331 148.961 383.472C148.961 395.613 156.947 405.455 166.799 405.455Z"
        fill="#51403D" />
    <path
        d="M166.07 395.028C173.589 395.028 179.683 387.52 179.683 378.259C179.683 368.997 173.589 361.489 166.07 361.489C158.552 361.489 152.457 368.997 152.457 378.259C152.457 387.52 158.552 395.028 166.07 395.028Z"
        fill="#2D1A19" />
    <path
        d="M173.314 368.21C173.915 367.168 172.896 365.454 171.038 364.381C169.18 363.309 167.186 363.283 166.585 364.324C165.984 365.366 167.002 367.08 168.861 368.153C170.719 369.225 172.713 369.251 173.314 368.21Z"
        fill="white" />
    <path
        d="M138.245 367.849C140.323 369.058 142.979 369.217 145.187 368.259C142.22 366.89 139.703 364.563 138.105 361.707C140.632 363.734 143.738 365.033 146.965 365.412C143.529 362.965 141.292 358.91 141.052 354.695C144.138 359.31 149.382 362.406 154.905 362.885C154.076 362.815 152.038 364.993 151.459 365.532C150.35 366.561 149.352 367.689 148.463 368.908C147.813 369.797 147.374 371.664 146.345 372.194C145.157 372.803 142.949 371.544 141.971 371.025C140.493 370.276 139.204 369.187 138.245 367.849Z"
        fill="#2E221E" />
    <path
        d="M159.249 339.926C163.754 338.099 168.907 337.909 173.542 339.407C171.644 336.041 167.699 334.084 163.834 334.163C159.978 334.243 156.283 336.181 153.656 339.018C152.338 340.446 151.219 342.064 150.34 343.802C149.771 344.92 148.113 347.976 148.722 349.175C149.042 348.865 149.062 348.376 149.322 347.996C149.611 347.567 150.031 347.237 150.33 346.828C151.089 345.819 151.928 344.88 152.847 344.031C154.715 342.283 156.892 340.885 159.249 339.926Z"
        fill="#2E221E" />
    <path
        d="M127.418 403.237C127.418 403.237 150.589 396.376 185.936 413.265C185.936 413.265 158.12 404.636 127.418 403.237Z"
        fill="#2E221E" />
    <path
        d="M310.8 402.114C310.8 402.114 316.753 359.277 288.018 359.616C259.284 359.956 267.104 411.982 267.104 411.982C267.104 411.982 294.141 399.906 310.8 402.114Z"
        fill="white" stroke="#34312E" stroke-width="0.998765" stroke-miterlimit="10" />
    <path
        d="M286.58 404.076C296.432 404.076 304.418 394.234 304.418 382.093C304.418 369.952 296.432 360.11 286.58 360.11C276.729 360.11 268.742 369.952 268.742 382.093C268.742 394.234 276.729 404.076 286.58 404.076Z"
        fill="#51403D" />
    <path
        d="M287.308 393.656C294.827 393.656 300.922 386.148 300.922 376.886C300.922 367.625 294.827 360.117 287.308 360.117C279.79 360.117 273.695 367.625 273.695 376.886C273.695 386.148 279.79 393.656 287.308 393.656Z"
        fill="#2D1A19" />
    <path
        d="M284.503 366.762C286.361 365.689 287.38 363.975 286.779 362.934C286.177 361.893 284.184 361.918 282.326 362.991C280.467 364.064 279.448 365.778 280.05 366.819C280.651 367.86 282.645 367.835 284.503 366.762Z"
        fill="white" />
    <path
        d="M315.136 366.49C313.059 367.698 310.402 367.858 308.195 366.899C311.161 365.531 313.678 363.204 315.276 360.347C312.749 362.375 309.643 363.673 306.417 364.053C309.852 361.606 312.09 357.551 312.329 353.336C309.243 357.95 304 361.046 298.477 361.526C299.306 361.456 301.343 363.633 301.922 364.173C303.031 365.201 304.03 366.33 304.919 367.548C305.568 368.437 306.007 370.305 307.036 370.834C308.224 371.444 310.432 370.185 311.411 369.666C312.889 368.917 314.177 367.828 315.136 366.49Z"
        fill="#2E221E" />
    <path
        d="M294.14 338.567C289.636 336.739 284.482 336.549 279.848 338.048C281.745 334.682 285.69 332.724 289.556 332.804C293.411 332.884 297.106 334.822 299.733 337.658C301.051 339.086 302.17 340.704 303.049 342.442C303.618 343.561 305.276 346.617 304.667 347.816C304.347 347.506 304.327 347.017 304.068 346.637C303.778 346.208 303.359 345.878 303.059 345.468C302.3 344.46 301.461 343.521 300.542 342.672C298.664 340.924 296.487 339.526 294.14 338.567Z"
        fill="#2E221E" />
    <path
        d="M325.963 401.871C325.963 401.871 302.792 395.01 267.445 411.899C267.445 411.909 295.261 403.279 325.963 401.871Z"
        fill="#2E221E" />
    <path
        d="M218.365 413.358C217.087 414.117 215.848 415.196 215.568 416.664C215.259 418.322 216.268 419.93 217.366 421.219C219.613 423.855 222.37 426.013 225.216 427.98C226.725 429.029 228.383 430.058 230.22 430.088C231.958 430.118 233.566 429.239 234.994 428.25C237.332 426.632 239.419 424.664 241.167 422.427C242.355 420.909 243.434 419.071 243.164 417.164C242.965 415.725 242.016 414.467 240.817 413.638C239.629 412.809 238.21 412.36 236.792 412.05C235.314 411.72 233.806 411.62 232.298 411.581C227.584 411.451 222.66 410.821 218.365 413.358Z"
        fill="#F6C8C2" />
    <path
        d="M227.701 419.111C231.716 419.111 234.972 417.895 234.972 416.394C234.972 414.894 231.716 413.678 227.701 413.678C223.685 413.678 220.43 414.894 220.43 416.394C220.43 417.895 223.685 419.111 227.701 419.111Z"
        fill="#FDE7E5" />
    <path
        d="M261.361 442.968C257.107 446.793 252.223 451.328 251.793 452.396C251.454 453.245 250.295 457.829 248.018 462.634C245.142 468.696 240.477 475.118 233.436 474.838C225.086 474.499 221.051 470.514 218.724 464.321C217.526 461.145 216.777 457.39 216.137 453.245C216.137 453.245 201.376 446.364 194.055 439.143C196.582 441.37 229.711 469.835 230.47 430.094C230.47 430.094 236.292 462.234 261.361 442.968Z"
        fill="#E18D89" />
    <path
        d="M248.016 462.635C245.14 468.698 240.476 475.12 233.434 474.84C225.085 474.5 221.05 470.515 218.723 464.323C219.262 463.654 219.841 463.045 220.421 462.515C222.398 460.668 225.045 459.409 227.751 459.529C230.468 459.639 233.165 461.307 234.084 463.854C234.004 461.467 236.441 459.689 238.808 459.309C241.494 458.89 244.311 459.719 246.508 461.327C247.048 461.716 247.547 462.156 248.016 462.635Z"
        fill="#F6C5C1" />
    <path
        d="M380.574 245.21L392.819 241.125C392.819 241.125 368.769 265.714 342.212 281.095C329.398 288.536 315.984 293.81 304.419 293.15L287.31 282.434C287.31 282.434 277.232 238.068 311.31 173.808C345.118 110.047 411.157 84.4485 412.185 84.0589L407.102 91.6995C407.102 91.6995 421.893 77.9265 429.534 80.4734C437.184 83.0202 438.723 102.916 432.091 138.611C425.459 174.317 410.667 221.749 380.574 245.21Z"
        fill="#CFBCAE" />
    <path
        d="M423.672 94.2451C423.672 94.2951 423.662 94.335 423.662 94.3849C423.443 96.802 423.213 99.179 422.963 101.526C412.296 202.242 372.436 242.622 341.134 258.792C318.852 270.307 300.914 269.558 300.914 269.558C314.327 147.24 420.566 95.7233 423.602 94.2851C423.652 94.2551 423.672 94.2451 423.672 94.2451Z"
        fill="#F9CBC4" />
    <path
        d="M423.313 100.868C423.203 101.088 423.083 101.307 422.963 101.527C418.459 109.617 408.311 117.038 401.949 123.57C394.658 131.071 387.367 138.581 380.276 146.282C372.525 154.691 365.005 163.331 357.993 172.37C339.127 196.709 323.766 224.665 319.301 255.127C327.741 251.422 336.18 247.706 344.62 243.991C344.85 249.135 343.521 254.198 341.134 258.793C318.852 270.308 300.914 269.559 300.914 269.559C314.327 147.241 420.566 95.7244 423.602 94.2861C423.622 94.3161 423.642 94.356 423.662 94.386C424.691 96.014 424.711 98.1414 423.313 100.868Z"
        fill="#E29591" />
    <path
        d="M289.018 256.817C289.668 256.368 290.696 257.187 290.397 257.916C293.493 243.524 299.805 229.821 308.744 218.115C301.913 236.333 298.676 255.889 299.276 275.334C299.336 277.182 299.416 279.08 298.876 280.848C296.829 287.579 290.696 284.433 289.817 279.379C288.519 271.999 288.15 264.278 289.018 256.817Z"
        fill="#998079" />
    <path
        d="M380.573 245.21L392.818 241.125C392.818 241.125 368.768 265.715 342.211 281.096C345.647 272.276 355.614 259.802 356.264 259.153C357.622 257.784 395.026 217.664 411.006 181.908C426.986 146.152 429.533 80.4736 429.533 80.4736C437.184 83.0205 438.722 102.916 432.09 138.612C425.458 174.318 410.666 221.749 380.573 245.21Z"
        fill="#F1EFEE" />
    <path opacity="0.42"
        d="M320.168 186.248C334.151 169.588 346.236 151.331 356.113 131.955C356.883 130.437 351.289 132.444 350.9 132.764C348.942 134.362 346.975 137.068 345.207 139.016C341.202 143.441 337.576 148.185 334.35 153.209C327.838 163.336 323.004 174.542 320.168 186.248Z"
        fill="#F1EFEE" />
    <path
        d="M75.3007 254.174L63.0559 250.089C63.0559 250.089 87.1061 274.678 113.663 290.059C126.477 297.5 139.891 302.773 151.457 302.114L168.565 291.397C168.565 291.397 178.643 247.032 144.565 182.772C110.757 119.011 44.7185 93.4123 43.6898 93.0228L48.7735 100.663C48.7735 100.663 33.9818 86.8904 26.3413 89.4372C18.6907 91.9841 17.1526 111.879 23.7844 147.575C30.4162 183.281 45.2079 230.713 75.3007 254.174Z"
        fill="#CFBCAE" />
    <path
        d="M32.2031 103.209C32.2031 103.259 32.2131 103.299 32.2131 103.349C32.4328 105.766 32.6626 108.143 32.9122 110.49C43.5791 211.205 83.4398 251.585 114.741 267.755C137.023 279.271 154.961 278.522 154.961 278.522C141.548 156.203 35.3093 104.687 32.273 103.249C32.2231 103.219 32.2031 103.209 32.2031 103.209Z"
        fill="#F9CBC4" />
    <path
        d="M32.5618 109.832C32.6716 110.052 32.7915 110.271 32.9113 110.491C37.4158 118.581 47.5632 126.002 53.9254 132.534C61.2163 140.035 68.5073 147.545 75.5985 155.246C83.349 163.655 90.8697 172.295 97.881 181.333C116.748 205.673 132.109 233.629 136.573 264.091C128.134 260.386 119.694 256.67 111.254 252.955C111.025 258.098 112.353 263.162 114.74 267.757C137.023 279.272 154.96 278.523 154.96 278.523C141.547 156.204 35.3084 104.688 32.2721 103.25C32.2522 103.28 32.2322 103.32 32.2122 103.35C31.1835 104.978 31.1635 107.105 32.5618 109.832Z"
        fill="#E29591" />
    <path
        d="M166.858 265.781C166.209 265.332 165.181 266.151 165.48 266.88C162.384 252.488 156.072 238.785 147.133 227.079C153.964 245.297 157.2 264.852 156.601 284.298C156.541 286.146 156.461 288.044 157.001 289.812C159.048 296.543 165.18 293.397 166.059 288.343C167.358 280.952 167.737 273.242 166.858 265.781Z"
        fill="#998079" />
    <path
        d="M75.3007 254.174L63.0559 250.089C63.0559 250.089 87.1061 274.678 113.663 290.059C110.228 281.24 100.26 268.766 99.6106 268.117C98.2523 266.748 60.8486 226.628 44.8684 190.872C28.8881 155.116 26.3413 89.4375 26.3413 89.4375C18.6907 91.9844 17.1526 111.88 23.7844 147.576C30.4162 183.281 45.2079 230.713 75.3007 254.174Z"
        fill="#F1EFEE" />
    <path opacity="0.42"
        d="M135.706 195.212C121.723 178.552 109.638 160.295 99.76 140.919C98.991 139.401 104.584 141.408 104.974 141.728C106.931 143.326 108.899 146.032 110.667 147.98C114.672 152.404 118.297 157.149 121.523 162.172C128.035 172.29 132.879 183.506 135.706 195.212Z"
        fill="#F1EFEE" />
    <path
        d="M294.225 268.9C294.225 268.9 281.99 313.105 213.644 314.344C198.283 314.623 180.086 312.726 158.562 307.672L158.812 299.942L159.302 284.69L160.44 249.174L160.94 233.893L162.078 198.327L162.578 183.006L163.716 147.38L164.216 132.009L165.364 96.3433L165.634 87.9237L165.863 80.9224L167.232 38.375L187.746 75.6189L195.187 89.1222L212.026 119.694L219.387 133.048L235.837 162.911L243.138 176.165L259.148 205.229L266.409 218.402L281.93 246.578L289.161 259.701L294.225 268.9Z"
        fill="#93D3C9" />
    <path
        d="M294.224 268.9C294.224 268.9 281.989 313.105 213.643 314.344C226.408 305.614 238.403 293.839 242.807 279.367C243.536 276.97 244.066 274.503 244.345 271.956C244.685 268.91 244.675 265.884 244.365 262.887C243.307 251.901 238.503 241.224 233.679 231.057C233.539 230.757 233.399 230.467 233.259 230.168C231.242 225.923 229.214 221.668 227.207 217.424C222.283 207.096 217.379 196.779 212.475 186.452C210.817 182.976 209.169 179.49 207.511 176.015C206.992 174.926 206.482 173.847 205.963 172.759C200.979 162.262 195.985 151.765 190.991 141.268C190.192 139.57 189.383 137.862 188.564 136.164C187.196 133.268 185.818 130.371 184.43 127.475C180.484 119.145 176.519 110.825 172.564 102.496C172.564 102.496 172.554 102.496 172.564 102.486L169.238 95.5143C168.04 92.9874 166.831 90.4506 165.633 87.9237L165.863 80.9224L167.231 38.375L187.745 75.6189L195.186 89.1222L212.025 119.694L219.386 133.048L235.836 162.911L243.137 176.165L259.147 205.229L266.408 218.402L281.929 246.577L289.16 259.701L294.224 268.9Z"
        fill="#4FA799" />
    <path
        d="M195.186 89.1215C191.071 90.2601 186.987 91.3287 182.952 92.3275C179.835 93.0965 176.759 93.8256 173.703 94.5248C172.205 94.8644 170.717 95.194 169.238 95.5136C167.94 95.7932 166.652 96.0729 165.363 96.3425L165.633 87.9229L165.863 80.9216C172.974 79.3735 180.295 77.6257 187.746 75.6182L195.186 89.1215Z"
        fill="#FFD39A" />
    <path
        d="M219.386 133.052C209.778 136.188 200.27 138.904 190.991 141.272C190.322 141.441 189.653 141.601 188.984 141.771C183.6 143.119 178.307 144.338 173.123 145.446C169.947 146.136 166.811 146.775 163.715 147.384L164.214 132.013C166.941 131.464 169.707 130.884 172.504 130.265C176.429 129.406 180.404 128.477 184.429 127.479C185.528 127.209 186.626 126.929 187.725 126.64C195.685 124.622 203.815 122.315 212.025 119.698L219.386 133.052Z"
        fill="#FFD39A" />
    <path
        d="M243.138 176.175C232.841 180.091 222.573 183.496 212.476 186.463C205.005 188.66 197.644 190.618 190.433 192.355C185.269 193.604 180.186 194.743 175.212 195.771C170.747 196.71 166.363 197.559 162.078 198.338L162.578 183.017C166.463 182.288 170.438 181.499 174.473 180.64C179.676 179.521 185 178.303 190.403 176.945C195.517 175.676 200.72 174.288 205.964 172.77C215.792 169.943 225.799 166.677 235.837 162.922L243.138 176.175Z"
        fill="#FFD39A" />
    <path
        d="M266.406 218.408C255.51 223.212 244.543 227.407 233.677 231.062C207.839 239.772 182.6 245.465 160.438 249.18L160.937 233.899C181.192 230.383 203.944 225.17 227.205 217.429C237.802 213.914 248.519 209.879 259.145 205.234L266.406 218.408Z"
        fill="#FFD39A" />
    <path
        d="M289.157 259.699C273.876 267.499 258.256 273.971 242.805 279.365C212.892 289.782 183.638 296.104 158.809 299.939L159.298 284.688C184.567 280.653 214.31 273.961 244.363 262.885C256.927 258.261 269.562 252.867 281.926 246.575L289.157 259.699Z"
        fill="#FFD39A" />
    <path
        d="M176.127 211.925C176.357 215.72 177.186 220.325 180.771 221.593C183.638 222.602 186.874 220.664 188.352 218.018C189.83 215.361 189.98 212.205 190.08 209.168C191.189 174.631 189.98 139.634 185.246 105.377C184.707 101.492 184.527 89.3167 179.273 89.0271C173.231 88.6975 172.731 99.2844 172.542 102.75C171.603 119.849 172.931 137.437 173.47 154.546C174.07 173.682 174.959 192.819 176.127 211.925Z"
        fill="#CCEAE9" />
    <path
        d="M182.411 31.7208L189.732 50.6474L182.84 48.6299L170.256 44.9444L166.181 48.2603L154.515 57.7586L154.485 56.8397L153.916 37.4737L138.156 27.2962L136.867 26.4573L151.429 21.2537L155.974 19.6257L159.319 7.02132L161.187 0L173.592 16.0701L193.857 14.9515L182.411 31.7208Z"
        fill="#F3AF2D" />
    <path
        d="M177.488 34.7781L182.841 48.631L170.257 44.9456L166.182 48.2615L165.333 48.0118L154.486 56.8408L153.917 37.4748L138.156 27.2974L151.05 22.6831L151.43 21.2549L155.974 19.6269L159.32 7.02246L168.669 19.1275L188.933 18.0189L177.488 34.7781Z"
        fill="#FED768" />
    <path
        d="M308.365 284.378C301.373 302.555 277.523 314.71 260.594 321.142C253.403 323.869 245.972 325.916 238.411 327.284C224.089 329.871 209.307 330.021 194.935 327.814C183.839 326.106 172.942 322.99 162.675 318.435C154.735 314.92 143.948 310.805 142.68 301.676C142.5 300.338 142.52 298.88 142.79 297.302C144.487 287.284 156.722 294.775 156.722 294.775C156.722 294.775 184.038 305.641 224.109 297.481C225.088 297.282 226.057 297.082 227.005 296.872C227.025 296.862 227.035 296.862 227.045 296.862C256.399 290.48 276.924 280.003 287.481 273.201C290.707 271.134 293.004 269.406 294.342 268.247C300.205 263.144 315.506 265.84 308.365 284.378Z"
        fill="#4A9F90" />
    <path
        d="M288.829 289.555C281.828 307.732 257.987 319.887 241.048 326.319C240.169 326.649 239.29 326.969 238.411 327.288C224.089 329.875 209.307 330.025 194.935 327.818C183.839 326.11 172.942 322.994 162.675 318.439C154.735 314.923 143.948 310.809 142.68 301.68C152.577 304.377 175.13 308.651 204.563 302.659C212.703 301.001 220.194 299.023 227.005 296.876C227.025 296.866 227.035 296.866 227.045 296.866C256.399 290.484 276.924 280.007 287.481 273.205C290.637 275.792 292.135 280.975 288.829 289.555Z"
        fill="#9BD3B4" />
    <path
        d="M191.66 316.51C190.342 316.799 188.794 317.279 188.394 318.567C187.815 320.425 190.042 321.853 191.89 322.462C202.307 325.918 213.473 327.066 224.38 325.818C231.012 325.059 237.753 323.321 242.997 319.186C244.795 317.778 246.433 316.01 247.082 313.823C247.731 311.636 247.152 308.969 245.254 307.69C243.526 306.532 241.249 306.762 239.181 307.041C223.121 309.249 207.501 313.094 191.66 316.51Z"
        fill="#E6F3EB" />
    <path
        d="M222.763 694.981C222.763 694.981 223.272 693.533 225.309 694.552C227.347 695.57 228.705 694.981 228.705 694.981L227.936 504.157H216.68C216.68 504.157 213.154 523.603 211.626 527.398C210.098 531.194 203.466 587.075 203.466 587.075C203.466 587.075 211.656 619.385 204.995 638.451C198.333 657.518 203.466 675.865 203.466 675.865L220.435 685.213L222.763 694.981Z"
        fill="#FBF7FA" />
    <defs>
        <filter id="filter0_f_2397_55021" x="64.7742" y="656.127" width="323.991" height="76.9252"
            filterUnits="userSpaceOnUse" color-interpolation-filters="sRGB">
            <feFlood flood-opacity="0" result="BackgroundImageFix" />
            <feBlend mode="normal" in="SourceGraphic" in2="BackgroundImageFix" result="shape" />
            <feGaussianBlur stdDeviation="4.525" result="effect1_foregroundBlur_2397_55021" />
        </filter>
    </defs>
</svg>
