<svg width="235" height="394" viewBox="0 0 235 394" fill="none" xmlns="http://www.w3.org/2000/svg">
    <path
        d="M121.45 45.1358C133.333 31.1343 148.845 17.2001 167.202 18.1365C164.232 55.405 161.258 92.6736 158.288 129.938C157.732 136.936 156.893 144.571 151.909 149.522C146.284 155.118 137.416 155.342 129.48 155.216C108.769 154.885 56.7917 162.86 70.931 128.217C83.2087 98.1398 100.385 69.8904 121.45 45.1358Z"
        fill="#A2D06C" />
    <path
        d="M140.637 18.7444C139.538 19.4165 138.43 20.1424 137.659 21.1773C136.887 22.2078 136.501 23.6192 136.986 24.811C137.869 26.9751 140.79 27.226 143.127 27.1274C146.612 26.9795 150.093 26.8362 153.579 26.6883C155.113 26.6256 156.714 26.5718 158.118 27.1901C159.85 27.9563 161.012 29.632 161.734 31.3749C162.456 33.1223 162.829 34.9906 163.501 36.7559C164.21 38.6153 165.305 40.3941 166.955 41.5052C168.606 42.6164 170.89 42.9256 172.599 41.904C174.537 40.748 175.259 38.2703 175.254 36.0167C175.25 33.763 174.689 31.5317 174.797 29.278C174.855 28.0594 175.205 26.7107 176.259 26.0969C177.282 25.501 178.574 25.8236 179.709 26.1686C182.068 26.8944 184.54 27.6875 186.962 27.2081C189.385 26.7286 191.646 24.4481 191.139 22.0331C190.748 20.1692 188.972 18.9864 187.406 17.8932C185.845 16.7999 184.208 15.281 184.334 13.3813C184.468 11.3741 186.478 10.0747 187.456 8.31391C188.411 6.59789 188.304 4.34421 187.187 2.72676C186.07 1.10931 183.997 0.208736 182.055 0.491006C179.781 0.822561 178.009 2.54306 176.282 4.06194C174.555 5.58082 172.433 7.04594 170.158 6.70542C167.095 6.24394 165.48 2.85669 162.9 1.14067C159.819 -0.911383 155.18 -0.109374 152.973 2.86118C151.883 4.32629 151.47 6.20809 151.672 8.00476C151.856 9.68045 153.108 11.1411 152.058 12.6958C151.147 14.0489 148.312 14.6538 146.917 15.3258C144.764 16.3608 142.669 17.4989 140.637 18.7444Z"
        fill="#F5C242" />
    <path
        d="M79.0946 109.728C88.1964 115.75 97.7467 121.086 107.647 125.683C117.623 130.312 127.941 134.21 138.501 137.297C144.408 139.026 150.392 140.496 156.426 141.715C157.206 141.871 158.018 141.49 158.243 140.684C158.445 139.958 157.996 139.031 157.211 138.869C146.553 136.719 136.06 133.766 125.846 130.043C115.668 126.333 105.781 121.844 96.2799 116.651C90.9193 113.721 85.6843 110.557 80.5884 107.188C78.9959 106.131 77.5156 108.684 79.0946 109.728Z"
        fill="#FEE9E1" />
    <path
        d="M91.8067 86.4873C95.7767 89.1531 100.101 91.2365 104.363 93.3916C108.62 95.5423 112.886 97.6839 117.179 99.7674C125.868 103.983 134.682 107.971 143.739 111.336C148.781 113.209 153.9 114.88 159.099 116.282C160.933 116.78 161.718 113.935 159.884 113.437C150.751 110.973 141.864 107.675 133.189 103.921C124.428 100.126 115.864 95.8962 107.341 91.595C102.586 89.1979 97.7281 86.9129 93.2961 83.9379C91.7126 82.876 90.2322 85.4299 91.8067 86.4873Z"
        fill="#FEE9E1" />
    <path
        d="M108.581 61.6031C121.33 70.0667 134.98 77.1279 149.232 82.6971C153.251 84.2698 157.32 85.717 161.429 87.0432C163.241 87.6301 164.017 84.7806 162.214 84.1981C147.85 79.5563 134.002 73.3957 120.949 65.8147C117.257 63.6731 113.628 61.4149 110.07 59.0537C108.482 58.0053 107.002 60.5546 108.581 61.6031Z"
        fill="#FEE9E1" />
    <path
        d="M125.6 40.9035C135.173 46.1905 145.037 50.9308 155.135 55.1245C157.975 56.3029 160.832 57.4364 163.708 58.5297C164.452 58.8119 165.327 58.216 165.524 57.4992C165.753 56.6703 165.242 55.9713 164.493 55.6846C154.507 51.8941 144.737 47.557 135.231 42.6912C132.495 41.2888 129.781 39.8416 127.09 38.3586C125.425 37.4356 123.936 39.9805 125.6 40.9035Z"
        fill="#FEE9E1" />
    <path
        d="M1.84214 312.452C-2.42389 264.511 6.94702 215.432 28.5867 172.428C30.9328 167.76 33.4987 162.732 32.6374 157.58C31.8479 152.853 28.3489 149.13 25.33 145.406C17.1882 135.375 11.5674 123.327 9.10917 110.647C7.55259 102.609 7.71854 93.1418 13.8013 87.6577C20.9562 81.2058 33.0815 83.9747 39.6622 91.0091C46.2429 98.0434 48.6339 107.918 50.491 117.368C52.3481 126.817 54.0797 136.692 59.7767 144.457C73.7277 132.086 93.9543 128.833 112.409 131.557C130.864 134.281 148.062 142.27 164.961 150.165C165.05 132.758 171.833 115.463 183.604 102.627C191.88 93.5988 205.665 86.6361 216.05 93.1328C222.752 97.3265 225.542 106.126 224.295 113.927C223.048 121.727 218.423 128.609 213.035 134.393C207.877 139.931 201.628 145.232 200.067 152.633C198.663 159.296 201.439 166.039 203.987 172.356C220.531 213.411 229.503 257.499 230.324 301.748C230.508 311.636 230.028 322.313 223.949 330.118C217.745 338.085 207.235 341.122 197.384 343.367C135.879 357.378 69.0579 357.767 12.1102 330.656"
        fill="#C6D4DC" />
    <path
        d="M83.7836 197.412C83.0748 195.225 82.8012 192.927 82.541 190.705C82.4737 190.131 82.4064 189.558 82.3302 188.984C81.9982 186.471 81.4599 183.585 79.9661 181.255C78.4275 178.858 75.9199 177.402 73.5918 177.545C69.6891 177.783 67.3385 181.905 66.5086 183.666C64.7457 187.398 63.9741 191.551 64.2702 195.669L62.9289 195.768C62.6149 191.417 63.4314 187.035 65.293 183.092C66.226 181.116 68.8951 176.484 73.5111 176.201C76.3192 176.022 79.3067 177.729 81.1011 180.529C82.7384 183.079 83.317 186.144 83.6669 188.809C83.7432 189.387 83.8105 189.97 83.8823 190.548C84.138 192.703 84.4026 194.934 85.071 197L83.7836 197.412Z"
        fill="#8E5F30" />
    <path
        d="M170.612 199.688C169.904 197.501 169.63 195.203 169.37 192.98C169.302 192.407 169.235 191.833 169.159 191.26C168.827 188.742 168.289 185.856 166.795 183.531C165.256 181.134 162.762 179.682 160.416 179.821C156.518 180.059 154.163 184.181 153.333 185.942C151.57 189.678 150.798 193.827 151.094 197.945L149.753 198.043C149.439 193.697 150.256 189.315 152.113 185.368C153.046 183.392 155.715 178.759 160.331 178.477C163.157 178.302 166.126 180.005 167.921 182.801C169.558 185.35 170.137 188.415 170.487 191.081C170.563 191.659 170.63 192.241 170.702 192.819C170.958 194.974 171.222 197.205 171.891 199.266L170.612 199.688Z"
        fill="#8E5F30" />
    <path
        d="M49.7239 224.192C47.1042 225.76 45.6732 228.946 45.8392 231.992C46.0051 235.039 47.62 237.898 49.8764 239.959C52.1328 242.02 54.9813 243.337 57.924 244.166C61.9344 245.299 66.3304 245.55 70.2107 244.031C74.0909 242.512 77.3297 238.986 77.7334 234.842C78.0519 231.553 76.5402 228.206 74.0416 226.033C70.4395 222.897 65.2718 222.198 60.8488 223.757C57.0313 225.106 53.5055 221.925 49.7239 224.192Z"
        fill="#F49C7F" />
    <path
        d="M157.304 220.746C154.684 222.314 153.253 225.499 153.419 228.546C153.585 231.593 155.2 234.451 157.456 236.512C159.713 238.573 162.561 239.891 165.504 240.719C169.514 241.853 173.911 242.104 177.791 240.585C181.671 239.066 184.91 235.54 185.314 231.396C185.632 228.107 184.12 224.76 181.622 222.587C178.02 219.451 172.852 218.752 168.429 220.311C164.611 221.66 161.085 218.478 157.304 220.746Z"
        fill="#F49C7F" />
    <path
        d="M0.706855 315.969C-2.02053 335.719 3.05742 357.293 17.4614 371.093C30.4973 383.584 49.0911 388.226 66.9761 390.766C96.2462 394.92 126.135 394.718 155.347 390.17C177.556 386.711 200.497 380.121 216.247 364.099C230.48 349.613 237.133 328.076 233.54 308.097C229.947 288.119 216.197 270.242 197.805 261.617C203.211 249.905 194.253 234.156 181.414 232.803C168.571 231.45 156.518 244.981 159.357 257.562C129.576 251.097 98.2917 251.657 68.7659 259.184C68.3398 246.491 55.7121 235.581 43.0755 236.988C25.666 238.928 25.7872 253.888 21.0097 266.366C14.3797 283.674 3.35798 296.748 0.706855 315.969Z"
        fill="#A8C3D0" />
    <path
        d="M24.2152 103.246C26.0589 102.251 28.4229 102.601 30.1903 103.725C31.9577 104.85 33.2092 106.629 34.1647 108.497C36.78 113.614 43.4594 136.688 31.1906 129.52C25.4801 126.177 15.876 107.744 24.2152 103.246Z"
        fill="#4F6672" />
    <path
        d="M185.824 128.642C184.981 131.613 184.685 135.443 187.255 137.164C189.48 138.651 192.495 137.567 194.778 136.165C201.834 131.828 215.242 115.913 208.087 107.199C199.021 96.1676 187.484 122.8 185.824 128.642Z"
        fill="#4F6672" />
    <path
        d="M39.1955 248.561C38.092 249.43 37.455 250.761 36.9795 252.087C36.0643 254.627 35.5978 257.414 36.2617 260.031C37.4908 264.888 42.9815 268.221 47.8621 267.07C52.7427 265.923 56.1654 260.492 55.0933 255.6C53.909 250.196 44.1837 244.631 39.1955 248.561Z"
        fill="#4F6672" />
    <path
        d="M167.057 254.553C167.084 257.17 168.273 259.818 170.404 261.337C172.099 262.542 174.226 262.923 176.302 262.667C177.639 262.502 178.958 262.076 180.129 261.44C186.405 258.03 188.993 247.125 180.851 244.401C174.284 242.201 166.985 247.774 167.057 254.553Z"
        fill="#4F6672" />
    <path
        d="M115.596 345.172C113.442 345.172 111.321 344.585 109.76 343.021L110.711 342.071C113.039 344.401 117.013 344.092 119.956 343.021C123.733 341.655 126.635 339.28 128.129 336.336C129.816 333.012 129.47 328.957 127.29 326.466C126.124 325.14 124.303 324.302 122.41 324.23C121.346 324.19 120.351 324.387 119.494 324.804C119.041 325.167 118.561 325.507 118.058 325.816L112.81 329.087L117.233 324.768C117.686 324.324 118.202 323.957 118.763 323.666C120.772 322.026 122.217 319.88 122.809 317.599C123.594 314.579 122.818 311.295 120.831 309.23C118.736 307.056 115.259 306.393 112.752 307.684C110.154 309.019 108.88 312.514 110.078 315.014L108.862 315.596C107.342 312.424 108.871 308.172 112.133 306.492C115.205 304.91 119.269 305.672 121.799 308.298C124.105 310.69 125.011 314.476 124.114 317.935C123.652 319.718 122.728 321.421 121.459 322.908C121.786 322.882 122.118 322.873 122.459 322.886C124.711 322.971 126.895 323.979 128.299 325.579C130.834 328.469 131.26 333.142 129.327 336.941C127.676 340.19 124.509 342.797 120.413 344.285C118.96 344.818 117.269 345.172 115.596 345.172Z"
        fill="#4F6672" />
    <path
        d="M21.4766 139.785C13.3752 139.727 4.6278 145.439 4.41248 153.527C4.25996 159.23 8.2075 164.208 12.487 167.99C17.4977 172.416 23.2664 175.983 29.4659 178.496C32.6104 179.769 36.217 180.759 39.3212 179.392C44.2242 177.233 45.0676 170.772 45.2605 165.422C45.6462 154.799 46.2429 144.185 47.0548 133.584C47.454 128.373 48.1898 122.593 52.2046 119.247C55.9547 116.115 61.6069 116.186 66.0837 118.153C70.5606 120.12 74.1224 123.655 77.5451 127.146C80.7031 130.367 83.906 133.714 85.6554 137.867C87.4049 142.021 87.4049 147.223 84.4846 150.659C81.8514 153.764 77.5226 154.79 73.4629 155.126C64.24 155.888 54.9095 153.921 46.7184 149.656C38.6169 145.439 31.0225 139.852 21.4766 139.785Z"
        fill="#D78E7C" />
    <path
        d="M36.7596 148.644C36.3604 150.826 37.1813 153.035 38.1278 155.042C39.1372 157.189 40.3887 159.348 42.3894 160.63C45.0854 162.354 48.8176 162.068 51.4239 160.213C54.0301 158.358 55.497 155.132 55.5328 151.937C55.5777 147.927 52.9221 140.66 48.0236 140.974C43.771 141.247 37.5985 144.047 36.7596 148.644Z"
        fill="#F5C242" />
</svg>
