<svg width="604" height="621" viewBox="0 0 604 621" fill="none" xmlns="http://www.w3.org/2000/svg">
    <path
        d="M212.309 215.928C212.309 215.928 204.494 202.598 191.477 199.074C175.89 194.849 155.128 199.832 140.317 204.789C111.58 214.392 90.4497 251.422 103.343 280.628C112.551 301.487 126.291 314.714 130.824 325.412C135.344 336.11 144.816 351.57 163.213 354.456C181.61 357.328 200.112 365.604 214.986 353.448C229.86 341.291 207.015 303.972 211.366 278.538C215.716 253.104 212.309 215.928 212.309 215.928Z"
        fill="#B3B4B5" />
    <path
        d="M232.272 292.837C232.533 302.994 231.538 313.939 225.038 321.736C220.961 326.623 215.217 329.52 208.994 330.634C201.82 331.931 194.003 330.913 187.306 327.952C174.784 322.409 165.467 311.601 157.266 300.644C149.587 290.376 142.365 279.388 139.349 266.918C136.346 254.46 138.243 240.178 147.015 230.824C155.489 221.806 168.863 218.875 181.196 219.907C181.259 219.905 181.336 219.917 181.4 219.915C195.911 221.172 217.533 228.306 224.175 242.804C230.658 257 231.873 277.594 232.272 292.837Z"
        fill="#F05253" />
    <path
        d="M232.273 292.849C232.535 303.007 231.539 313.952 225.039 321.748C220.962 326.635 215.219 329.533 208.995 330.646C205.424 330.156 201.882 329.182 198.636 327.744C186.114 322.201 176.797 311.393 168.596 300.436C160.917 290.168 153.682 279.18 150.679 266.71C147.676 254.252 149.573 239.97 158.346 230.616C164.265 224.319 172.531 221.004 181.197 219.919C181.261 219.918 181.337 219.929 181.401 219.928C195.913 221.184 217.534 228.319 224.176 242.817C230.66 257.012 231.875 277.606 232.273 292.849Z"
        fill="#F69691" />
    <path
        d="M355.188 200.199C355.188 200.199 362.478 186.575 375.348 182.547C390.758 177.719 411.699 181.89 426.691 186.266C455.78 194.743 478.336 230.923 466.589 260.609C458.2 281.81 444.986 295.563 440.873 306.429C436.772 317.294 427.91 333.112 409.639 336.711C391.367 340.297 373.201 349.287 357.865 337.719C342.53 326.15 363.905 287.971 358.568 262.725C353.23 237.48 355.188 200.199 355.188 200.199Z"
        fill="#B3B4B5" />
    <path
        d="M338.232 277.811C338.366 287.971 339.787 298.87 346.586 306.407C350.85 311.132 356.702 313.803 362.964 314.674C370.183 315.69 377.954 314.369 384.531 311.15C396.827 305.123 405.717 293.961 413.485 282.693C420.759 272.134 427.548 260.873 430.076 248.295C432.591 235.73 430.14 221.533 421.01 212.527C412.192 203.846 398.713 201.437 386.43 202.949C386.367 202.95 386.291 202.964 386.227 202.965C371.775 204.786 350.448 212.756 344.375 227.501C338.449 241.939 338.024 262.565 338.232 277.811Z"
        fill="#F05253" />
    <path
        d="M338.23 277.816C338.364 287.976 339.785 298.874 346.584 306.412C350.848 311.137 356.7 313.808 362.962 314.678C366.511 314.05 370.013 312.939 373.2 311.376C385.497 305.349 394.386 294.186 402.155 282.919C409.428 272.36 416.23 261.098 418.745 248.521C421.26 235.956 418.809 221.758 409.679 212.752C403.52 206.691 395.13 203.7 386.429 202.953C386.365 202.955 386.289 202.969 386.225 202.97C371.774 204.791 350.446 212.761 344.373 227.506C338.447 241.944 338.022 262.57 338.23 277.816Z"
        fill="#F69691" />
    <path
        d="M245.776 356.073C245.776 356.073 207.755 398.354 205.584 425.374C205.584 425.374 182.574 431.215 189.717 509.3C189.717 509.3 190.334 529.244 204.894 528.426C219.442 527.609 240.053 533.16 241.563 527.725C243.072 522.29 241.158 493.2 241.105 490.505C241.053 487.809 243.685 505.425 244.538 514.579C245.39 523.733 246.332 530.329 255.886 529.736C265.452 529.142 283.831 531.074 289.978 527.991C296.125 524.908 297.67 528.515 299.14 520.397C299.14 520.397 305.12 522.443 309.655 520.192C309.655 520.192 310.113 530.015 333.555 528.694C356.996 527.373 367.731 524.734 368.041 512.581C368.041 512.581 368.016 524.996 373.673 524.886C379.331 524.776 397.189 527.392 396.639 512.839C396.088 498.286 366.003 380.455 345.856 356.974C345.868 356.948 290.433 377.589 245.776 356.073Z"
        fill="#BEBDC2" />
    <path
        d="M299.16 520.39C299.16 520.39 292.719 466.573 287.332 453.183C281.946 439.806 282.422 436.82 282.422 436.82C282.422 436.82 289.591 458.799 305.204 457.147C320.816 455.495 321.252 436.064 321.252 436.064C321.252 436.064 310.298 496.694 309.951 506.952C309.617 517.21 309.674 520.173 309.674 520.173C309.674 520.173 303.24 522.193 299.16 520.39Z"
        fill="#5B5064" />
    <path
        d="M250.6 518.499C251.535 517.514 253.153 517.025 254.275 517.779C255.202 518.397 255.519 519.612 255.68 520.715C255.899 522.174 255.979 523.648 255.931 525.111C255.909 525.938 255.812 526.831 255.252 527.452C254.716 528.048 253.855 528.255 253.053 528.207C251.742 528.131 250.482 527.443 249.711 526.39C248.038 524.107 248.743 520.469 250.6 518.499Z"
        fill="#FBF7E0" />
    <path
        d="M260.266 515.874C259.735 516.66 259.666 517.679 259.684 518.633C259.72 520.451 260.035 522.264 260.59 523.983C261.009 525.285 261.633 526.608 262.742 527.413C263.671 528.095 264.872 528.326 266.017 528.342C267.162 528.357 268.316 528.182 269.472 528.109C271.009 528.015 272.651 528.085 273.984 527.296C275.241 526.547 276.002 525.12 276.177 523.654C276.352 522.2 275.993 520.719 275.445 519.356C274.763 517.652 273.739 516.044 272.281 514.941C271.313 514.209 270.055 513.636 268.821 513.609C267.968 513.587 267.353 514.006 266.556 514.213C264.454 514.737 261.725 513.709 260.266 515.874Z"
        fill="#FBF7E0" />
    <path
        d="M282.707 513.19C281.423 513.215 280.003 513.446 279.17 514.429C278.523 515.179 278.365 516.225 278.296 517.219C278.186 518.76 278.229 520.311 278.386 521.86C278.513 523.167 278.756 524.549 279.64 525.524C280.42 526.386 281.586 526.796 282.732 526.888C283.879 526.98 285.032 526.78 286.173 526.579C287.466 526.351 288.784 526.109 289.969 525.552C291.154 524.994 292.229 524.058 292.663 522.803C293 521.829 292.915 520.75 292.692 519.749C292.218 517.596 291.046 515.546 289.302 514.168C288.566 513.585 287.496 512.842 286.516 512.836C285.969 512.834 285.401 513.074 284.856 513.135C284.145 513.2 283.419 513.176 282.707 513.19Z"
        fill="#FBF7E0" />
    <path
        d="M200.922 514.059C201.925 513.328 203.448 513.158 204.343 514.018C205.081 514.729 205.155 515.872 205.124 516.89C205.073 518.227 204.909 519.566 204.629 520.881C204.465 521.622 204.239 522.415 203.637 522.872C203.061 523.316 202.248 523.357 201.532 523.18C200.369 522.897 199.348 522.065 198.831 520.994C197.705 518.676 198.928 515.523 200.922 514.059Z"
        fill="#FBF7E0" />
    <path
        d="M210.005 513.294C209.394 513.917 209.169 514.811 209.034 515.679C208.773 517.312 208.755 518.991 208.965 520.628C209.129 521.871 209.459 523.15 210.329 524.061C211.056 524.823 212.081 525.223 213.115 525.432C214.15 525.64 215.206 525.658 216.251 525.79C217.654 525.954 219.11 526.294 220.436 525.811C221.687 525.354 222.605 524.191 223 522.911C223.395 521.632 223.317 520.247 223.05 518.942C222.713 517.308 222.058 515.693 220.928 514.455C220.174 513.643 219.143 512.926 218.044 512.693C217.278 512.53 216.66 512.809 215.911 512.861C213.967 512.963 211.676 511.583 210.005 513.294Z"
        fill="#FBF7E0" />
    <path
        d="M230.596 514.574C229.435 514.38 228.124 514.355 227.21 515.098C226.509 515.671 226.196 516.58 225.972 517.462C225.617 518.83 225.402 520.233 225.29 521.635C225.186 522.832 225.185 524.117 225.816 525.135C226.367 526.027 227.345 526.593 228.368 526.866C229.391 527.139 230.459 527.143 231.515 527.148C232.711 527.15 233.932 527.165 235.096 526.849C236.26 526.534 237.367 525.877 237.957 524.835C238.424 524.012 238.52 523.043 238.489 522.103C238.411 520.095 237.698 518.061 236.358 516.548C235.786 515.897 234.956 515.061 234.075 514.888C233.589 514.796 233.032 514.921 232.535 514.88C231.886 514.829 231.247 514.676 230.596 514.574Z"
        fill="#FBF7E0" />
    <path
        d="M319.166 510.937C317.603 510.967 315.996 511.431 314.86 512.509C313.386 513.911 312.97 516.069 312.781 518.082C312.611 519.828 312.623 521.774 313.781 523.099C314.497 523.925 315.561 524.375 316.611 524.698C318.249 525.213 319.946 525.523 321.652 525.605C323.18 525.689 324.844 525.542 326.02 524.566C326.846 523.875 327.335 522.836 327.53 521.776C327.726 520.717 327.641 519.624 327.493 518.546C327.285 517.011 326.95 515.491 326.502 514.012C326.311 513.38 326.083 512.748 325.653 512.248C324.938 511.422 324.001 511.644 323.043 511.434C321.753 511.166 320.476 510.899 319.166 510.937Z"
        fill="#FBF7E0" />
    <path
        d="M332.617 515.254C330.931 516.838 330.688 519.4 330.632 521.716C330.604 522.925 330.63 524.247 331.424 525.16C332.191 526.048 333.443 526.291 334.614 526.357C336.601 526.484 338.606 526.279 340.517 525.746C341.402 525.5 342.336 525.138 342.856 524.378C343.276 523.759 343.363 522.981 343.387 522.243C343.445 520.678 343.287 519.104 342.939 517.571C342.717 516.596 342.405 515.623 341.805 514.821C340.59 513.191 339.236 513.548 337.495 513.633C335.767 513.717 333.916 514.033 332.617 515.254Z"
        fill="#FBF7E0" />
    <path
        d="M348.646 515.127C348.009 517.022 348.329 519.101 348.888 521.024C349.079 521.669 349.321 522.351 349.863 522.735C350.494 523.167 351.332 523.087 352.094 522.984C353.705 522.761 355.328 522.539 356.856 521.975C358.384 521.411 359.829 520.48 360.705 519.115C361.582 517.749 361.826 515.9 361.035 514.478C359.729 512.1 356.467 511.782 354.058 511.498C351.75 511.212 349.38 512.963 348.646 515.127Z"
        fill="#FBF7E0" />
    <path
        d="M374.271 513.186C373.586 513.301 372.905 513.594 372.47 514.136C371.912 514.847 371.854 515.815 371.897 516.717C371.938 517.492 372.056 518.355 372.651 518.864C373.026 519.188 373.512 519.318 373.997 519.398C374.75 519.523 375.514 519.546 376.276 519.481C376.948 519.417 377.67 519.263 378.131 518.758C378.455 518.408 378.598 517.909 378.614 517.438C378.63 516.955 378.532 516.486 378.396 516.018C378.205 515.36 377.963 514.704 377.671 514.086C377.552 513.821 377.407 513.557 377.187 513.358C376.824 513.034 376.42 513.195 375.987 513.165C375.427 513.125 374.841 513.085 374.271 513.186Z"
        fill="#FBF7E0" />
    <path
        d="M380.456 514.266C379.81 515.067 379.871 516.211 379.98 517.239C380.041 517.772 380.141 518.355 380.542 518.703C380.931 519.039 381.504 519.079 382.024 519.031C382.901 518.963 383.774 518.742 384.581 518.396C384.96 518.236 385.35 518.012 385.521 517.653C385.668 517.357 385.661 517.014 385.616 516.684C385.539 515.986 385.373 515.302 385.132 514.658C384.971 514.242 384.772 513.839 384.461 513.514C383.825 512.878 383.245 513.118 382.484 513.26C381.749 513.389 380.953 513.646 380.456 514.266Z"
        fill="#FBF7E0" />
    <path
        d="M387.506 513.201C387.344 514.069 387.616 514.967 387.976 515.787C388.095 516.064 388.241 516.341 388.511 516.476C388.819 516.623 389.186 516.539 389.502 516.444C390.198 516.252 390.906 516.048 391.535 515.705C392.177 515.362 392.753 514.867 393.058 514.2C393.363 513.545 393.347 512.719 392.916 512.142C392.198 511.177 390.736 511.231 389.656 511.264C388.626 511.284 387.689 512.193 387.506 513.201Z"
        fill="#FBF7E0" />
    <path
        d="M277.496 184.443C277.496 184.443 223.516 181.856 194.516 230.156C165.515 278.469 179.647 339.284 201.383 354.239C223.119 369.193 235.54 383.922 288.487 380.461C341.433 377.001 362.652 366.069 378.562 351.603C394.459 337.137 413.26 305.202 393.69 255.825C374.121 206.448 339.883 182.427 277.496 184.443Z"
        fill="#4C4058" />
    <path
        d="M277.399 179.59C277.399 179.59 223.419 177.003 194.418 225.303C165.418 273.616 179.55 334.432 201.286 349.386C223.021 364.34 235.442 379.069 288.389 375.609C341.335 372.149 362.555 361.217 378.464 346.75C394.362 332.284 413.162 300.349 393.593 250.972C374.023 201.596 339.785 177.561 277.399 179.59Z"
        fill="#BEBDC2" />
    <path
        d="M322.598 312.568C322.598 312.568 302.171 301.468 288.513 307.483C274.855 313.498 277.341 324.261 278.543 332.429C279.745 340.596 283.867 358.285 278.286 361.014C272.704 363.743 264.599 359.016 261.149 352.291C257.711 345.566 248.343 347.835 247.587 354.12C246.832 360.405 250.334 388.052 277.757 391.347C305.18 394.641 317.688 383.777 323.79 375.111C329.917 366.445 338.527 334.39 322.598 312.568Z"
        fill="#493F57" />
    <path
        d="M319.496 312.624C319.496 312.624 299.069 301.524 285.411 307.539C271.766 313.553 274.24 324.317 275.442 332.484C276.644 340.652 280.766 358.341 275.184 361.07C269.603 363.798 261.498 359.072 258.047 352.347C254.609 345.622 245.241 347.89 244.486 354.176C243.73 360.461 247.232 388.108 274.656 391.403C302.079 394.697 314.587 383.833 320.688 375.167C326.816 366.5 335.426 334.445 319.496 312.624Z"
        fill="#C3C9C1" />
    <path
        d="M280.099 372.403C285.707 371.022 290.356 366.772 292.964 361.621C295.586 356.482 296.323 350.528 295.931 344.773C295.434 337.571 293.185 330.492 289.453 324.32C288.73 323.113 287.918 321.92 286.783 321.103C285.647 320.286 284.101 319.883 282.801 320.417C281.539 320.938 280.725 322.226 280.42 323.567C280.128 324.896 280.257 326.292 280.398 327.651C281.339 336.777 282.28 345.917 283.221 355.044C283.551 358.281 283.847 361.747 282.3 364.614C280.778 367.442 277.645 369.169 274.46 369.574C271.872 369.905 268.712 368.338 266.385 369.007C268.749 372.853 276.162 373.37 280.099 372.403Z"
        fill="#FEF1D9" />
    <path
        d="M300.01 385.056C294.465 384.401 288.809 382.031 283.21 377.98C278.269 374.414 273.949 370.033 269.783 365.79L270.919 364.674C275.045 368.867 279.314 373.21 284.139 376.69C289.519 380.58 294.93 382.853 300.196 383.475L300.01 385.056Z"
        fill="#493F57" />
    <path
        d="M309.199 366.203C299.689 366.388 290.157 362.847 283.186 356.28L284.27 355.127C292.549 362.915 304.584 366.268 315.692 363.864L316.027 365.409C313.772 365.898 311.488 366.159 309.199 366.203Z"
        fill="#493F57" />
    <path
        d="M306.865 347.087C299.974 347.222 293.03 345.309 287.295 341.427L288.185 340.112C297.375 346.318 309.781 347.247 319.788 342.511L320.465 343.948C316.205 345.964 311.544 346.996 306.865 347.087Z"
        fill="#493F57" />
    <path
        d="M306.764 332.919C302.124 333.01 297.467 332.286 293.088 330.769L293.605 329.271C300.841 331.788 308.884 332.013 316.246 329.924L316.682 331.441C313.457 332.369 310.121 332.854 306.764 332.919Z"
        fill="#493F57" />
    <path
        d="M318.062 196.179C310.506 198.106 294.485 199.054 279.715 199.545C265.872 199.993 253.09 200.038 249.314 200.112C241.52 200.264 237.999 197.737 237.999 197.737L272.971 92.2497L274.4 87.9101L328.26 185.588C328.247 185.589 332.718 192.434 318.062 196.179Z"
        fill="#F69690" />
    <path
        d="M318.062 196.173C310.506 198.101 294.486 199.049 279.716 199.54C280.796 198.209 282.199 197.075 283.605 196.145C287.776 193.469 292.488 191.838 296.804 189.426C301.12 187.04 305.213 183.615 306.698 178.906C307.993 174.861 307.145 170.489 305.984 166.404C303.552 157.777 299.743 149.621 295.948 141.517C290.572 130.009 285.197 118.501 279.847 106.992C277.538 102.089 275.255 97.1606 272.959 92.2575L274.388 87.9178L328.248 185.596C328.248 185.583 332.718 192.428 318.062 196.173Z"
        fill="#F37373" />
    <path
        d="M260.094 132.192L260.072 131.099L259.004 131.094L258.993 130.535L259.444 130.195C267.092 124.475 275.275 119.508 283.794 115.438C285.357 114.682 286.932 113.939 288.509 113.26L289.375 115.265C287.836 115.931 286.285 116.648 284.748 117.403C276.519 121.341 268.612 126.112 261.214 131.611L261.225 132.145L260.094 132.192Z"
        fill="white" />
    <path
        d="M251.304 160.362L250.099 158.541C257.545 153.588 266.038 149.48 276.069 145.99C281.842 143.982 288.255 142.153 295.687 140.393C297.928 139.841 300.221 139.351 302.501 138.861L302.817 138.792L303.278 140.92L302.962 140.989C300.694 141.479 298.44 141.968 296.199 142.507C288.843 144.253 282.493 146.056 276.796 148.036C266.929 151.485 258.6 155.514 251.304 160.362Z"
        fill="white" />
    <path
        d="M268.186 109.441L266.993 107.607C270.221 105.496 273.705 103.495 277.345 101.644C278.605 101.034 279.853 100.45 281.101 99.8661L282.017 101.845C280.781 102.416 279.546 102.987 278.311 103.596C274.76 105.408 271.351 107.382 268.186 109.441Z"
        fill="white" />
    <path
        d="M240.787 191.858L239.72 189.946C260.418 178.4 282.765 170.512 306.116 166.509C309.779 165.852 313.546 165.308 317.29 164.892L317.46 167.064C313.83 167.478 310.114 168.021 306.489 168.664C283.379 172.624 261.272 180.432 240.787 191.858Z"
        fill="white" />
    <path
        d="M267.402 200.813L266.423 198.86C277.709 193.222 289.485 188.528 301.46 184.899L301.624 184.858C309.248 182.496 317.108 180.524 324.99 179.01L325.401 181.151C317.544 182.665 309.709 184.637 302.111 186.998L301.807 187.042C290.237 190.587 278.563 195.228 267.402 200.813Z"
        fill="white" />
    <path
        d="M274.946 98.288C281.371 98.1629 286.478 92.8529 286.353 86.4278C286.228 80.0026 280.918 74.8955 274.493 75.0206C268.068 75.1457 262.961 80.4557 263.086 86.8808C263.211 93.3059 268.521 98.4131 274.946 98.288Z"
        fill="#FDE5E6" />
    <path
        d="M243.891 301.261C250.204 301.138 255.222 295.921 255.099 289.608C254.976 283.295 249.759 278.278 243.446 278.4C237.133 278.523 232.115 283.741 232.238 290.053C232.361 296.366 237.578 301.384 243.891 301.261Z"
        fill="#2A1A2C" />
    <path
        d="M238.999 284.208C240.705 282.867 241.521 281.059 240.823 280.17C240.124 279.281 238.174 279.648 236.468 280.989C234.762 282.331 233.946 284.139 234.644 285.027C235.343 285.916 237.293 285.55 238.999 284.208Z"
        fill="#FEF1D9" />
    <path
        d="M344.934 297.487C351.247 297.364 356.265 292.147 356.142 285.834C356.019 279.521 350.802 274.503 344.489 274.626C338.176 274.749 333.158 279.966 333.281 286.279C333.404 292.592 338.621 297.61 344.934 297.487Z"
        fill="#2A1A2C" />
    <path
        d="M340.058 280.44C341.764 279.099 342.58 277.291 341.881 276.402C341.182 275.513 339.233 275.88 337.527 277.221C335.821 278.563 335.004 280.371 335.703 281.26C336.402 282.149 338.352 281.782 340.058 280.44Z"
        fill="#FEF1D9" />
    <path
        d="M241.966 318.827C251.41 318.643 258.989 314.526 258.894 309.632C258.799 304.737 251.065 300.919 241.62 301.103C232.176 301.286 224.597 305.403 224.692 310.298C224.787 315.192 232.521 319.01 241.966 318.827Z"
        fill="#F37A84" />
    <path
        d="M348.942 315.99C358.387 315.806 365.966 311.689 365.87 306.795C365.775 301.9 358.042 298.082 348.597 298.266C339.152 298.45 331.573 302.566 331.669 307.461C331.764 312.355 339.498 316.173 348.942 315.99Z"
        fill="#F37A84" />
</svg>
