<svg width="378" height="452" viewBox="0 0 378 452" fill="none" xmlns="http://www.w3.org/2000/svg">
    <path
        d="M264.046 360.208C269.262 376.461 295.322 371.906 307.133 367.134C321.85 361.173 333.806 348.716 339.181 333.78C339.292 333.517 339.372 333.266 339.467 333.009C341.822 326.183 342.857 318.877 346.004 312.346C349.136 305.821 355.151 299.93 362.394 299.893C354.091 285.184 335.007 278.657 318.481 282.175C308.978 284.195 300.37 289.022 293.041 295.44C287.624 300.191 282.937 305.824 279.065 311.864C271.556 323.602 259.419 345.675 264.046 360.208Z"
        fill="#E69434" />
    <path
        d="M187.842 281.739C187.842 281.739 240.06 267.698 259.009 302.598C277.958 337.499 288.245 367.287 282.294 388.387C276.343 409.488 258.934 429.858 242.758 395.904L237.318 386.218L189.964 404.335C189.964 404.335 196.789 433.921 180.011 438.54C163.233 443.159 157.539 440.856 146.813 411.227C136.088 381.599 101.227 317.492 139.763 299.178C178.289 280.833 187.842 281.739 187.842 281.739Z"
        fill="#F28823" />
    <path
        d="M236.269 334.485C237.859 348.713 235.252 364.016 226.122 375.057C219.91 382.577 210.863 387.701 201.228 389.169C191.593 390.637 181.437 388.443 173.253 383.139C157.738 373.044 151.177 353.974 145.736 336.296C144.321 331.725 142.951 326.71 144.792 322.295C146.381 318.503 150.024 316.037 153.527 313.896C169.075 304.366 185.769 296.679 203.133 291.078C212.357 288.099 222.739 285.573 225.902 296.58C229.539 309.229 234.8 321.256 236.269 334.485Z"
        fill="#FAECD4" />
    <path
        d="M240.459 340.626C236.25 344.084 229.83 346.819 225.692 343.285C223.704 341.574 222.917 338.881 222.363 336.309C219.114 321.14 220.812 304.934 227.154 290.777C229.509 285.509 232.995 280.105 238.517 278.432C243.265 276.987 248.548 278.72 252.4 281.844C270.505 296.495 254.873 328.768 240.459 340.626Z"
        fill="#F2A55F" />
    <path
        d="M42.3506 268.969C48.7899 284.677 59.1067 296.346 72.0002 304.258C74.5511 305.868 77.2452 307.306 80.0276 308.609C109.858 322.696 150.509 319.773 188.586 304.209C213.912 293.843 235.593 280.501 250.43 264.467C252.333 262.444 254.122 260.341 255.783 258.217C271.535 237.95 276.636 213.888 265.449 186.481C256.77 165.2 239.498 145.146 218.079 130.325C222.651 122.765 224.12 113.351 220.867 104.362C215.197 88.7007 197.823 80.562 182.162 86.2314C172.326 89.7919 165.528 97.8666 163.105 107.25C145.288 104.269 127.125 105.487 110.17 112.36C95.9782 118.165 83.5041 127.25 72.9068 138.258C65.3517 133.462 55.779 131.981 46.6544 135.284C30.9171 140.981 22.8541 158.328 28.5235 173.989C31.1035 181.116 36.1443 186.531 42.2234 189.944C33.4703 216.731 32.8098 245.45 42.3506 268.969Z"
        fill="#E69434" />
    <path
        d="M69.5567 300.43C70.3276 301.708 71.1548 303 72.0013 304.251C74.5521 305.861 77.2463 307.299 80.0286 308.602C109.859 322.689 150.51 319.766 188.587 304.202C213.913 293.836 235.594 280.494 250.431 264.46C252.015 250.349 250.218 235.836 245.82 222.315C241.593 209.315 234.303 196.362 222.115 190.163C209.71 183.837 193.977 185.904 182.415 193.632C170.823 201.371 163.161 214.105 159.581 227.57C158.606 231.26 157.884 235.082 156.107 238.446C154.32 241.831 151.209 244.772 147.412 245.205C142.122 245.768 137.742 241.517 133.56 238.239C124.382 231.087 112.421 227.595 100.843 228.706C89.2642 229.816 78.1893 235.486 70.5073 244.24C64.3002 251.347 60.3395 260.5 60.0206 269.926C59.6406 280.743 63.9701 291.19 69.5567 300.43Z"
        fill="#FFF2D7" />
    <path
        d="M209.041 225.215C202.23 227.681 194.71 224.158 192.244 217.347C189.779 210.536 193.302 203.016 200.113 200.55C206.924 198.085 214.444 201.607 216.91 208.419C219.375 215.23 215.853 222.75 209.041 225.215Z"
        fill="#2A1A2C" />
    <path
        d="M207.241 204.956C204.864 204.222 203.246 202.621 203.629 201.382C204.012 200.142 206.25 199.732 208.628 200.466C211.006 201.201 212.623 202.801 212.24 204.041C211.857 205.281 209.619 205.691 207.241 204.956Z"
        fill="#FEF1D9" />
    <path
        d="M97.9827 265.419C91.1716 267.884 83.6513 264.361 81.1857 257.55C78.7202 250.739 82.243 243.219 89.0541 240.753C95.8652 238.288 103.385 241.811 105.851 248.622C108.317 255.433 104.794 262.953 97.9827 265.419Z"
        fill="#2A1A2C" />
    <path
        d="M96.1907 245.181C93.8128 244.446 92.1956 242.846 92.5785 241.606C92.9615 240.366 95.1995 239.956 97.5773 240.691C99.9552 241.425 101.572 243.026 101.189 244.266C100.807 245.505 98.5685 245.915 96.1907 245.181Z"
        fill="#FEF1D9" />
    <path
        d="M219.431 253.935C209.236 257.625 199.42 256.336 197.508 251.054C195.597 245.772 202.312 238.499 212.508 234.808C222.703 231.117 232.519 232.407 234.431 237.688C236.343 242.97 229.627 250.244 219.431 253.935Z"
        fill="#F37A84" />
    <path
        d="M105.803 295.067C95.6068 298.758 85.7915 297.469 83.8795 292.187C81.9676 286.905 88.683 279.631 98.8787 275.941C109.075 272.25 118.89 273.54 120.802 278.821C122.714 284.103 115.998 291.377 105.803 295.067Z"
        fill="#F37A84" />
    <path
        d="M162.093 237.766C162.686 239.451 162 241.291 161.315 242.943C160.26 245.515 159.196 248.108 157.517 250.325C155.859 252.551 153.508 254.378 150.771 254.855C148.449 255.25 146.03 254.62 144.019 253.414C141.993 252.213 140.35 250.464 138.963 248.57C137.87 247.065 136.899 245.329 137.035 243.482C137.407 238.504 144.002 236.819 148.036 236.283C151.831 235.799 160.187 232.312 162.093 237.766Z"
        fill="#2A1A2C" />
    <path
        d="M157.174 260.394C158.565 263.245 161.063 265.746 164.198 266.323C167.318 266.905 170.945 265.01 171.578 261.889C172.186 264.561 170.488 267.435 168.018 268.603C165.549 269.77 162.515 269.38 160.148 267.994C157.781 266.609 156.028 264.368 154.8 261.921C153.572 259.473 152.832 256.814 152.103 254.185C152.984 257.187 153.705 260.314 153.434 263.442C153.163 266.57 151.736 269.722 149.102 271.428C146.468 273.135 142.575 272.969 140.543 270.573C141.684 271.786 143.682 271.867 145.154 271.112C146.626 270.356 147.675 268.95 148.426 267.48C150.006 264.375 150.586 260.776 150.025 257.334C149.826 256.122 149.489 254.909 149.524 253.681C149.581 251.145 152.52 248.626 154.535 251.166C155.293 252.124 155.242 253.922 155.474 255.036C155.847 256.869 156.351 258.689 157.174 260.394Z"
        fill="#2A1A2C" />
    <path
        d="M200.635 118.2C194.317 120.488 187.342 117.22 185.054 110.902C182.767 104.584 186.035 97.6079 192.353 95.3208C198.671 93.0337 205.647 96.3015 207.934 102.619C210.221 108.938 206.953 115.913 200.635 118.2Z"
        fill="#FAC4CC" />
    <path
        d="M53.1432 168.404C46.8252 170.691 39.8494 167.423 37.5623 161.105C35.2752 154.787 38.5429 147.811 44.861 145.524C51.179 143.237 58.1548 146.505 60.4419 152.823C62.729 159.141 59.4613 166.116 53.1432 168.404Z"
        fill="#FAC4CC" />
    <path
        d="M205.776 161.32C205.567 158.521 202.786 156.087 199.742 156.094C196.713 156.095 193.92 158.544 193.737 161.348C195.03 158.963 197.386 157.528 199.743 157.514C202.11 157.53 204.467 158.936 205.776 161.32Z"
        fill="#2A1A2C" />
    <path
        d="M82.3934 204.666C81.183 202.126 77.7091 200.851 74.8916 201.956C72.0536 203.052 70.3508 206.338 71.1677 209.02C71.5264 206.323 73.2069 204.158 75.4094 203.292C77.6023 202.447 80.3225 202.917 82.3934 204.666Z"
        fill="#2A1A2C" />
    <path
        d="M92.779 155.046C101.229 154.041 117.949 148.742 133.203 143.459C147.493 138.492 160.536 133.531 164.425 132.123C172.43 129.225 175.022 125.275 175.022 125.275L98.0527 31.4158L94.8945 27.5615L78.2395 148.26C78.2491 148.24 76.3748 156.962 92.779 155.046Z"
        fill="#FECE35" />
    <path
        d="M92.7813 155.043C101.232 154.038 117.951 148.739 133.205 143.457C131.583 142.521 129.704 141.917 127.902 141.525C122.611 140.429 117.168 140.619 111.809 139.855C106.475 139.116 100.949 137.231 97.6035 133C94.7009 129.378 93.8553 124.584 93.4371 119.977C92.5411 110.221 93.2168 100.409 93.9142 90.6578C94.894 76.8166 95.8587 62.9808 96.8082 49.1506C97.2375 43.2446 97.6256 37.3192 98.0604 31.4283L94.9023 27.574L78.2472 148.273C78.2514 148.237 76.3771 156.96 92.7813 155.043Z"
        fill="#ED9130" />
    <path
        d="M126.829 67.0927L126.424 65.9729L127.503 65.5482L127.294 64.9732L126.705 64.8101C116.675 61.9715 106.37 60.1224 96.0962 59.3059C94.2032 59.1354 92.3115 59.0158 90.4362 58.9415L90.3393 61.3214C92.1788 61.3914 94.0251 61.5275 95.8975 61.6883C105.819 62.4782 115.771 64.2498 125.462 66.9545L125.659 67.4993L126.829 67.0927Z"
        fill="white" />
    <path
        d="M146.807 92.3545L147.333 90.0248C137.8 87.8963 127.525 87.029 115.933 87.3916C109.264 87.5978 102.006 88.2568 93.7317 89.3695C91.2303 89.6931 88.6999 90.0785 86.1901 90.4736L85.8504 90.5281L86.221 92.8756L86.5607 92.8211C89.0553 92.4315 91.55 92.0419 94.0514 91.7183C102.239 90.6028 109.421 89.9711 116.003 89.7621C127.398 89.4198 137.479 90.2717 146.807 92.3545Z"
        fill="white" />
    <path
        d="M109.67 47.064L110.176 44.7247C106.055 43.8374 101.721 43.1642 97.2901 42.6972C95.7697 42.563 94.2602 42.4591 92.7658 42.3496L92.5974 44.7211C94.0712 44.8209 95.5655 44.9303 97.0502 45.0603C101.379 45.53 105.642 46.1947 109.67 47.064Z"
        fill="white" />
    <path
        d="M169.892 120.364L170.234 117.998C144.605 114.337 118.727 115.044 93.3468 120.107C89.3502 120.886 85.301 121.805 81.3109 122.838L81.9855 125.127C85.8491 124.122 89.8527 123.22 93.804 122.458C118.931 117.452 144.534 116.742 169.892 120.364Z"
        fill="white" />
    <path
        d="M146.277 139.951L146.511 137.573C132.798 136.239 118.942 136.069 105.32 137.064L105.122 137.084C96.4161 137.668 87.6261 138.728 78.9963 140.277L79.4177 142.623C88.0228 141.1 96.7716 140.021 105.452 139.463L105.786 139.393C118.973 138.471 132.692 138.639 146.277 139.951Z"
        fill="white" />
    <path
        d="M98.4075 38.359C91.8053 40.749 84.5158 37.3343 82.1258 30.7321C79.7359 24.1299 83.1506 16.8403 89.7528 14.4504C96.355 12.0605 103.644 15.4752 106.034 22.0774C108.424 28.6795 105.01 35.9691 98.4075 38.359Z"
        fill="#FDE5E6" />
    <path
        d="M160.468 367.208C165.914 367.171 172.598 365.162 173.514 359.799C173.947 357.212 172.827 354.639 171.607 352.308C164.394 338.575 152.715 327.21 138.781 320.394C133.6 317.854 127.462 315.934 122.149 318.182C117.576 320.112 114.627 324.825 113.667 329.69C109.135 352.536 141.803 367.324 160.468 367.208Z"
        fill="#F2A55F" />
    <path
        d="M293.048 295.41C295.133 297.342 297.902 298.514 300.751 298.252C302.311 298.116 303.957 297.605 305.359 298.262C308.564 299.789 306.907 305.044 309.075 307.819C311.058 310.319 314.976 309.653 317.972 308.569C320.974 307.499 324.626 306.383 327.061 308.428C328.262 309.431 328.842 310.984 328.993 312.538C329.449 316.634 327.329 320.517 326.091 324.473C324.863 328.409 324.871 333.489 328.305 335.789C331.154 337.702 335.136 336.739 337.93 334.718C338.365 334.407 338.779 334.086 339.169 333.791C339.279 333.528 339.359 333.277 339.454 333.02C341.81 326.194 342.845 318.888 345.992 312.357C349.124 305.832 355.138 299.941 362.381 299.904C354.079 285.195 334.995 278.668 318.469 282.186C308.984 284.165 300.372 288.977 293.048 295.41Z"
        fill="#FAECD4" />
</svg>
