<svg width="899" height="804" viewBox="0 0 899 804" fill="none" xmlns="http://www.w3.org/2000/svg">
    <path
        d="M589.368 727.707C595.243 733.472 602.921 738.988 610.986 737.436C617.222 736.244 622.045 730.922 624.262 724.963C626.48 719.004 626.507 712.491 626.147 706.144C623.902 664.403 606.662 623.605 578.309 592.867C571.685 585.689 563.979 578.76 554.445 576.57C516.945 567.95 505.997 619.087 516.695 645.029C522.128 658.195 534.6 665.235 544.55 674.686C561.457 690.706 572.849 711.41 589.368 727.707Z"
        fill="#9BBBBC" />
    <path
        d="M269.249 769.224C267.087 774.352 264.704 779.562 264.482 785.106C264.26 790.649 266.81 796.747 271.965 798.853C278.091 801.32 284.798 797.412 290.036 793.393C317.919 771.996 339.427 742.423 351.262 709.357C355.253 698.215 357.997 685.327 352.176 675.017C346.301 664.623 333.08 660.244 321.19 661.408C313.207 662.184 296.772 665.815 291.007 672.051C284.299 679.313 286.988 691.563 286.045 701.846C283.967 724.989 278.285 747.8 269.249 769.224Z"
        fill="#9BBBBC" />
    <path
        d="M674.713 82.055C674.713 82.055 789.348 171.218 811.992 179.699C834.636 188.181 826.155 287.959 817.646 312.738C809.165 337.516 725.655 350.238 654.175 343.17C654.175 343.17 644.973 353.065 645.694 382.084C646.415 411.103 644.28 425.238 638.626 440.815C632.972 456.391 611.021 544.834 628.732 556.17C646.415 567.506 694.53 561.131 724.242 580.228C753.982 599.324 821.193 654.535 769.53 653.814C717.867 653.094 611.714 617.007 566.425 632.584C521.137 648.16 425.599 731.642 282.666 708.997C282.666 708.997 223.215 812.324 167.311 803.122C111.407 793.92 182.167 745.805 185.715 718.92C189.262 692.035 190.676 645.333 187.849 604.285C185.022 563.237 163.07 472.661 229.589 458.498C296.108 444.335 332.195 433.719 393.06 433.026C453.925 432.306 492.839 374.989 511.242 290.094C529.646 205.171 514.069 170.498 526.819 134.411C539.568 98.3245 573.521 69.3055 602.54 72.8532C631.531 76.4009 657.695 68.9452 674.713 82.055Z"
        fill="#D5DFE1" />
    <path
        d="M794.311 336.576C794.311 336.576 793.508 244.031 799.3 219.835C805.121 195.666 820.559 158.139 850.16 168.56C879.761 178.981 898.525 188.571 898.94 241.509C899.356 294.447 893.508 305.7 885.193 308.638C876.85 311.548 811.828 336.576 806.396 336.576C800.963 336.576 794.311 336.576 794.311 336.576Z"
        fill="#EDA799" />
    <path
        d="M484.336 488.294C483.255 491.731 482.839 496.055 485.583 498.383C487.634 500.129 490.6 500.018 493.261 499.769C500.162 499.104 507.202 498.023 513.216 494.614C524.414 488.267 529.68 468.228 514.048 463.322C500.411 459.026 487.745 477.541 484.336 488.294Z"
        fill="#9BBBBC" />
    <path
        d="M562.407 480.088C559.636 485.187 559.248 491.479 563.682 495.72C565.151 497.133 567.008 497.992 569.004 498.38C570.611 498.713 572.302 498.713 573.909 498.464C585.911 496.607 590.733 483.829 581.892 474.849C575.101 468.031 566.343 472.854 562.407 480.088Z"
        fill="#9BBBBC" />
    <path
        d="M518.223 390.648C511.488 400.57 508.744 413.153 510.795 424.96C511.516 429.173 513.151 433.719 516.948 435.742C519.83 437.294 523.323 437.017 526.51 436.435C545.413 432.943 561.959 418.863 568.445 400.764C572.713 388.818 570.385 367.144 553.367 367.283C541.117 367.394 524.653 381.224 518.223 390.648Z"
        fill="#9BBBBC" />
    <path
        d="M591.204 380.369C593.449 382.614 596.47 384.416 599.602 384.083C602.374 383.806 604.757 381.894 606.226 379.538C607.695 377.182 608.36 374.41 608.804 371.666C610.19 363.102 605.422 342.925 592.285 350.075C581.891 355.73 584.164 373.274 591.204 380.369Z"
        fill="#9BBBBC" />
    <path
        d="M628.257 350.432C634.992 346.662 636.655 326.845 624.82 330.808C612.486 334.938 617.06 356.723 628.257 350.432Z"
        fill="#9BBBBC" />
    <path
        d="M602.927 315.73C602.483 319.305 603.176 323.491 606.225 325.431C608.886 327.149 612.655 326.401 614.983 324.239C618.891 320.608 620.443 310.02 615.842 306.196C609.579 301.013 603.592 310.381 602.927 315.73Z"
        fill="#9BBBBC" />
    <path
        d="M635.576 307.717C633.802 309.684 633.469 312.927 635.077 315.089C636.407 316.863 638.708 317.667 640.925 317.639C642.421 317.639 644.001 317.251 645.082 316.17C646.44 314.812 646.634 312.622 646.08 310.793C645.498 308.881 644.14 305.971 642.006 305.583C639.705 305.139 637.128 305.97 635.576 307.717Z"
        fill="#9BBBBC" />
    <path
        d="M634.106 290.062C633.69 291.254 633.856 292.667 634.688 293.582C635.325 294.302 636.268 294.663 637.21 294.857C637.903 294.995 638.651 295.051 639.316 294.774C640.397 294.302 640.896 293.055 641.035 291.891C641.201 290.644 641.063 289.314 640.37 288.26C638.346 285.35 635.02 287.457 634.106 290.062Z"
        fill="#9BBBBC" />
    <path
        d="M559.694 263.21C556.34 264.928 554.123 268.227 552.211 271.469C546.39 281.364 541.956 292.534 542.621 304.008C542.981 309.995 545.004 316.287 549.855 319.834C554.483 323.216 560.969 323.382 566.235 321.109C571.501 318.836 575.603 314.43 578.513 309.496C582.865 302.068 584.75 293.199 583.752 284.662C582.948 277.761 580.315 270.86 576.074 265.316C572.638 260.771 564.517 260.715 559.694 263.21Z"
        fill="#9BBBBC" />
    <path
        d="M440.067 445.084C435.355 447.912 431.558 452.041 427.872 456.143C424.185 460.245 420.499 464.43 415.871 467.452C408.055 472.551 398.16 473.854 390.51 479.203C387.461 481.337 384.745 484.248 383.831 487.851C382.445 493.338 385.743 499.214 390.51 502.235C395.305 505.257 401.209 505.866 406.863 505.561C420.305 504.841 433.415 499.131 443.282 489.957C453.149 480.783 459.773 468.228 462.018 454.951C462.794 450.295 462.766 442.95 456.974 441.648C451.708 440.484 444.585 442.396 440.067 445.084Z"
        fill="#9BBBBC" />
    <path
        d="M451.93 528.122C451.653 529.923 452.18 531.946 453.649 533.027C455.811 534.579 458.887 533.471 461.049 531.946C464.846 529.286 470.085 520.777 463.266 518.116C458.056 516.065 452.596 523.853 451.93 528.122Z"
        fill="#9BBBBC" />
    <path
        d="M294.606 566.37C292.777 572.606 292.805 579.979 297.045 584.912C299.928 588.266 304.39 589.984 308.797 590.289C313.204 590.566 317.611 589.569 321.796 588.183C329.557 585.633 337.04 581.642 342.445 575.516C347.849 569.391 350.898 560.854 349.207 552.872C347.905 546.858 343.553 541.37 337.844 539.014C332.633 536.88 326.175 539.097 320.992 540.622C308.714 544.141 298.237 554.009 294.606 566.37Z"
        fill="#9BBBBC" />
    <path
        d="M361.707 582.082C360.1 584.244 358.769 586.96 359.49 589.538C360.405 592.919 364.257 594.554 367.694 595.192C372.295 596.051 377.117 595.996 381.524 594.444C385.931 592.892 389.839 589.704 391.724 585.436C393.082 582.332 393.719 576.844 391.391 573.961C389.313 571.384 385.044 571.495 381.829 571.661C374.041 572.021 366.391 575.818 361.707 582.082Z"
        fill="#9BBBBC" />
    <path
        d="M234.773 498.213C227.76 506.611 223.825 517.504 223.797 528.451C223.797 532.664 224.545 537.237 227.622 540.12C230.754 543.03 235.465 543.446 239.706 543.058C250.654 542.032 261.158 536.655 268.337 528.341C275.543 520.026 279.368 508.884 278.814 497.88C278.592 493.668 277.677 489.316 275.1 485.99C265.066 472.991 242.006 489.538 234.773 498.213Z"
        fill="#9BBBBC" />
    <path
        d="M204.482 550.072C202.625 554.562 202.541 559.773 204.204 564.318C204.537 565.26 204.98 566.203 205.757 566.813C207.53 568.226 210.108 567.422 212.214 566.563C214.349 565.704 216.566 564.734 217.896 562.877C219.504 560.604 219.365 557.583 219.033 554.811C218.617 551.458 218.257 541.757 213.905 540.87C209.859 540.066 205.729 547.051 204.482 550.072Z"
        fill="#9BBBBC" />
    <path
        d="M222.6 580.779C219.385 586.211 217.611 592.614 218.221 598.905C218.858 605.197 222.018 611.322 227.201 614.925C234.379 619.942 244.801 619.332 251.757 613.983C258.714 608.634 261.957 599.155 260.405 590.535C258.964 582.664 252.423 572.436 244.329 569.887C235.931 567.226 226.646 573.933 222.6 580.779Z"
        fill="#9BBBBC" />
    <path
        d="M218.202 651.873C216.151 655.254 214.821 659.19 215.015 663.181C215.209 667.172 217.066 671.108 220.336 673.381C223.607 675.653 228.291 675.903 231.506 673.575C234.915 671.108 236.051 666.535 236.051 662.322C236.051 659.024 235.469 655.642 233.806 652.788C229.982 646.163 222.387 644.972 218.202 651.873Z"
        fill="#9BBBBC" />
    <path
        d="M327.283 461.101C318.94 464.343 311.54 471.328 310.182 480.197C309.738 483.135 310.016 486.322 311.817 488.706C314.09 491.699 318.164 492.669 321.906 492.947C331.163 493.584 340.947 491.006 347.599 484.549C353.114 479.172 357.438 468.473 353.752 460.934C350.398 453.977 333.02 458.883 327.283 461.101Z"
        fill="#9BBBBC" />
    <path
        d="M771.939 148.544C771.939 150.873 771.496 153.09 770.692 155.141C768.059 161.959 761.435 166.782 753.702 166.782C745.969 166.782 739.345 161.959 736.712 155.141C735.908 153.09 735.465 150.873 735.465 148.544C735.465 138.483 743.641 130.307 753.674 130.307C763.763 130.335 771.939 138.483 771.939 148.544Z"
        fill="white" />
    <path
        d="M753.674 168.167C745.636 168.167 738.291 163.122 735.409 155.639C734.522 153.422 734.078 151.01 734.078 148.571C734.078 137.762 742.864 128.948 753.701 128.948C764.538 128.948 773.324 137.734 773.324 148.571C773.324 151.038 772.881 153.422 771.994 155.667C769.084 163.122 761.739 168.167 753.674 168.167ZM753.674 131.72C744.389 131.72 736.822 139.286 736.822 148.571C736.822 150.678 737.21 152.729 737.958 154.641C740.453 161.099 746.745 165.395 753.646 165.395C760.575 165.395 766.867 161.071 769.361 154.641C770.137 152.701 770.525 150.678 770.525 148.544C770.553 139.259 762.986 131.72 753.674 131.72Z"
        fill="#381C15" />
    <path
        d="M770.687 155.141C768.054 161.96 761.43 166.782 753.697 166.782C745.964 166.782 739.34 161.96 736.707 155.141C739.34 148.323 745.964 143.5 753.697 143.5C761.43 143.5 768.054 148.323 770.687 155.141Z"
        fill="#381C15" />
    <path
        d="M753.674 168.169C745.636 168.169 738.291 163.124 735.409 155.641L735.215 155.142L735.409 154.643C738.291 147.16 745.636 142.115 753.674 142.115C761.739 142.115 769.084 147.16 771.967 154.643L772.161 155.142L771.967 155.641C769.084 163.124 761.739 168.169 753.674 168.169ZM738.208 155.142C740.814 161.295 746.967 165.397 753.702 165.397C760.437 165.397 766.59 161.295 769.195 155.142C766.59 148.989 760.437 144.887 753.702 144.887C746.967 144.887 740.814 148.989 738.208 155.142Z"
        fill="#381C15" />
    <path
        d="M729.591 227.455C729.591 230.864 728.954 234.134 727.762 237.128C723.909 247.133 714.181 254.229 702.79 254.229C691.426 254.229 681.697 247.133 677.845 237.128C676.653 234.134 676.016 230.864 676.016 227.455C676.016 212.682 688.017 200.681 702.79 200.681C717.59 200.681 729.591 212.682 729.591 227.455Z"
        fill="white" />
    <path
        d="M702.789 255.614C691.231 255.614 680.699 248.38 676.541 237.627C675.266 234.439 674.629 231.002 674.629 227.455C674.629 211.934 687.268 199.295 702.789 199.295C718.338 199.295 730.976 211.934 730.976 227.455C730.976 231.002 730.339 234.439 729.064 237.627C724.906 248.408 714.374 255.614 702.789 255.614ZM702.789 202.067C688.792 202.067 677.401 213.458 677.401 227.455C677.401 230.642 677.983 233.719 679.119 236.601C682.861 246.302 692.367 252.815 702.789 252.815C713.21 252.815 722.744 246.302 726.458 236.601C727.622 233.691 728.204 230.614 728.204 227.427C728.204 213.458 716.813 202.067 702.789 202.067Z"
        fill="#381C15" />
    <path
        d="M727.761 237.131C723.908 247.137 714.18 254.232 702.788 254.232C691.425 254.232 681.696 247.137 677.844 237.131C681.696 227.126 691.425 220.03 702.788 220.03C714.18 220.03 723.908 227.126 727.761 237.131Z"
        fill="#381C15" />
    <path
        d="M702.793 255.619C691.235 255.619 680.703 248.385 676.546 237.631L676.352 237.132L676.546 236.633C680.703 225.879 691.235 218.645 702.793 218.645C714.351 218.645 724.91 225.879 729.068 236.633L729.262 237.132L729.068 237.631C724.91 248.412 714.378 255.619 702.793 255.619ZM679.345 237.132C683.197 246.555 692.566 252.847 702.793 252.847C713.048 252.847 722.416 246.555 726.269 237.132C722.416 227.708 713.02 221.417 702.793 221.417C692.566 221.417 683.197 227.708 679.345 237.132Z"
        fill="#381C15" />
    <path
        d="M685.018 124.323C682.524 121.801 681.637 117.865 682.829 114.511C684.021 111.158 687.18 108.663 690.7 108.275C694.193 107.887 697.851 109.633 699.763 112.627L695.079 115.592C694.303 114.373 692.807 113.652 691.338 113.791C689.924 113.957 688.566 115.038 688.095 116.368C687.624 117.727 687.984 119.389 689.01 120.415L685.018 124.323Z"
        fill="#381C15" />
    <path
        d="M636.485 208.47C633.021 195.526 634.462 181.225 640.421 169.224L645.382 171.69C640.005 182.5 638.73 195.388 641.835 207.029L636.485 208.47Z"
        fill="#381C15" />
    <path
        d="M635.057 69.5562C646.421 58.83 667.541 61.7402 675.606 75.1272C683.672 88.5141 676.355 108.525 661.554 113.57C651.327 136.158 628.627 152.594 603.96 155.227C613.411 162.239 616.571 176.513 611 186.879C605.401 197.245 591.737 202.428 580.678 198.381C591.598 219.28 577.796 248.77 554.763 253.786C565.711 287.877 548.25 328.703 516.071 344.363C508.366 414.153 452.767 476.016 384.197 491.121C383.366 484.386 382.534 477.651 381.703 470.916C364.463 488.71 337.745 506.171 316.985 492.673C297.695 480.145 301.353 448.493 318.205 432.806C335.056 417.118 359.336 413.127 382.119 409.829C365.766 412.628 356.952 387.434 366.986 374.241C377.019 361.048 395.422 358.166 411.969 356.974C408.615 324.989 426.991 291.869 455.872 277.733C448.943 291.508 427.213 292.894 416.57 281.724C405.927 270.555 406.592 251.597 415.628 239.097C424.663 226.597 440.24 220.083 455.594 218.781C435.14 195.998 450.134 152.733 480.317 147.494C470.672 158.415 450.218 153.453 444.314 140.122C438.41 126.818 445.783 110.105 458.394 102.788C470.977 95.4709 487.108 96.3579 500.523 102.012C482.535 95.4155 470.617 74.3788 475.883 55.9475C481.121 37.5439 504.153 25.9585 521.448 34.1625C538.743 42.3943 543.566 69.4453 529.209 82.084C546.227 67.1172 544.702 41.1747 578.627 48.9076C560.445 14.4839 606.898 4.97728 630.595 14.4285C651.493 22.7989 669.148 63.8744 635.057 69.5562Z"
        fill="#F19987" />
    <path
        d="M103.813 488.262C94.2788 505.28 94.9717 525.9 93.9185 545.385C92.8653 564.87 88.7078 586.294 73.1867 598.129C60.16 608.079 42.5048 608.661 26.9559 613.872C11.4071 619.055 -4.19717 634.105 1.0412 649.626C4.14543 658.8 13.8184 664.454 23.436 665.674C33.0535 666.893 42.6988 664.51 52.0946 662.126C54.1733 672.52 47.8817 682.775 40.5369 690.452C33.2198 698.129 24.4338 704.754 19.4725 714.122C14.5113 723.49 15.0379 737.071 24.1012 742.614C33.6356 748.434 45.8862 742.198 54.6445 735.214C85.1879 710.851 106.834 675.513 114.623 637.237C120.776 637.348 123.769 645.358 122.328 651.344C120.886 657.331 116.895 662.486 115.62 668.528C114.373 674.571 117.893 682.497 124.018 682.082C129.562 681.694 132.222 675.263 133.691 669.914C140.62 644.277 147.55 618.611 154.479 592.974C156.807 603.284 159.135 613.622 161.463 623.933C172.439 612.68 172.854 594.72 169.168 579.421C165.482 564.121 158.442 549.598 156.834 533.938C156.114 526.843 157.306 516.311 163.348 511.488C172.494 504.226 178.342 513.788 186.879 511.765C198.936 508.91 195.526 496.299 191.147 486.765C174.573 450.568 121.746 456.277 103.813 488.262Z"
        fill="#F19987" />
    <path
        d="M828.261 223.075C837.186 223.075 837.186 209.217 828.261 209.217C819.364 209.217 819.337 223.075 828.261 223.075Z"
        fill="#AE5C4E" />
    <path
        d="M856.636 190.62C856.248 191.978 856.054 193.419 855.971 194.833C855.888 196.246 856.11 197.688 856.331 199.073C856.498 200.237 856.886 201.263 857.329 202.316C857.8 203.453 858.271 204.229 859.131 205.199C859.436 205.531 859.74 205.753 860.128 206.03C860.295 206.141 860.655 206.474 860.96 206.64C861.431 206.917 862.29 207.277 862.817 207.416C864.23 207.804 865.616 207.804 867.03 207.471C867.446 207.388 867.778 207.194 868.166 207.028C869.136 206.612 869.164 206.585 869.995 205.947C870.91 205.226 871.603 204.506 872.24 203.48C872.684 202.76 873.017 201.9 873.294 201.097C873.571 200.265 873.626 199.323 873.709 198.464C873.737 198.048 873.765 197.632 873.765 197.189C873.737 195.831 873.543 194.445 873.238 193.142C872.933 191.756 872.324 190.426 871.742 189.123C871.104 187.765 870.189 186.629 869.247 185.465C868.388 184.605 867.362 184.023 866.198 183.691C864.979 183.358 863.732 183.358 862.512 183.691C860.322 184.301 858.133 186.213 857.662 188.541C856.747 193.17 856.775 197.826 857.994 202.399C858.438 204.062 859.685 205.67 861.182 206.529C861.985 207.028 862.845 207.305 863.759 207.361C864.674 207.555 865.589 207.527 866.531 207.25C868.194 206.695 869.829 205.67 870.661 204.062C871.548 202.399 871.852 200.57 871.354 198.713C871.104 197.771 870.91 196.828 870.771 195.858C870.855 196.468 870.938 197.078 871.021 197.688C870.771 195.775 870.771 193.835 871.021 191.895C870.938 192.505 870.855 193.114 870.771 193.724C870.827 193.225 870.938 192.699 871.021 192.2C867.168 193.225 863.288 194.251 859.436 195.249C859.463 195.304 859.519 195.332 859.546 195.387C859.186 194.916 858.826 194.445 858.465 193.974C859.047 194.75 859.546 195.581 859.934 196.496C859.713 195.941 859.463 195.387 859.241 194.833C859.63 195.803 859.907 196.773 860.045 197.798C859.962 197.189 859.879 196.579 859.796 195.969C859.907 196.801 859.934 197.66 859.824 198.491C859.907 197.882 859.99 197.272 860.073 196.662C860.018 197.022 859.934 197.383 859.768 197.715C859.99 197.161 860.239 196.607 860.461 196.052C860.378 196.246 860.267 196.44 860.128 196.634C860.489 196.163 860.849 195.692 861.209 195.221C861.099 195.359 860.988 195.47 860.877 195.581C861.348 195.221 861.819 194.86 862.29 194.5C862.207 194.583 862.096 194.639 861.985 194.694C862.54 194.472 863.094 194.223 863.648 194.001C863.538 194.057 863.454 194.084 863.316 194.084C863.926 194.001 864.535 193.918 865.145 193.835C865.062 193.835 864.979 193.835 864.923 193.835C865.533 193.918 866.143 194.001 866.753 194.084C866.614 194.057 866.503 194.029 866.365 194.001C866.919 194.223 867.473 194.472 868.028 194.694C867.944 194.667 867.861 194.611 867.778 194.556C868.249 194.916 868.72 195.276 869.192 195.637C869.081 195.553 868.998 195.443 868.887 195.332C869.247 195.803 869.607 196.274 869.968 196.745C869.829 196.551 869.718 196.33 869.607 196.108C869.829 196.662 870.079 197.216 870.3 197.771C869.968 196.939 869.746 196.052 869.607 195.165C869.691 195.775 869.774 196.385 869.857 196.995C869.746 195.997 869.746 195.027 869.857 194.029C869.774 194.639 869.691 195.249 869.607 195.858C869.691 195.304 869.801 194.75 869.94 194.223C870.411 192.505 870.134 190.426 869.247 188.874C868.416 187.433 866.753 186.074 865.117 185.686C863.344 185.271 861.348 185.382 859.768 186.379C858.299 187.46 857.135 188.846 856.636 190.62Z"
        fill="#AE5C4E" />
    <path
        d="M869.581 255.031C863.151 262.265 853.644 266.367 843.943 265.674C834.464 264.981 825.651 259.577 820.44 251.678C819.22 249.821 816.227 251.567 817.447 253.424C823.212 262.182 832.663 268.058 843.14 269.083C853.921 270.137 864.869 265.563 872.02 257.498C873.517 255.835 871.078 253.368 869.581 255.031Z"
        fill="#AE5C4E" />
    <path
        d="M314.68 65.4805C313.793 79.893 324.547 94.638 338.876 96.6059C349.603 98.0748 360.855 92.2267 366.232 82.8309C371.609 73.4351 371.055 61.0459 365.262 51.8995C360.162 43.8618 346.36 33.9671 336.216 35.9349C324.27 38.2631 315.345 54.5048 314.68 65.4805Z"
        fill="#9BBBBC" />
    <path
        d="M585.247 99.7691C583.086 102.208 580.924 104.619 578.762 107.059C571.583 115.124 564.433 123.217 557.282 131.255C552.154 137.02 546.583 143.228 539.931 147.358C535.774 149.936 531.201 151.737 526.073 152.097C514.294 152.929 511.106 146.499 504.066 138.766C503.706 138.378 503.374 138.018 502.958 137.63C497.803 132.086 492.065 127.153 485.857 122.691H485.829C476.794 116.205 466.899 110.8 456.672 106.227C449.881 103.178 442.952 100.462 436.051 98.0784C435.219 97.7736 434.415 97.4964 433.584 97.2192C426.599 94.8356 419.56 92.6738 412.464 90.6505C405.369 88.5718 398.246 86.6316 391.123 84.6638C374.077 79.952 357.087 75.1016 340.734 68.422C347.054 52.8455 362.492 43.2002 377.403 35.4119C383.39 32.28 389.487 29.2866 395.64 26.4596C402.542 23.2445 409.554 20.2788 416.649 17.5626C425.269 14.2089 434 11.271 442.841 8.80425C449.964 6.78096 457.171 5.09029 464.46 3.75991C467.564 3.12244 470.696 2.62354 473.856 2.15236C481.256 1.07143 488.739 0.406248 496.25 0.129085C504.039 -0.148078 511.827 0.0182265 519.56 0.655701H519.588C530.951 1.59805 542.176 3.59362 553.097 6.75328C560.303 8.832 567.37 11.4096 574.216 14.5415C575.796 15.2622 577.376 16.0382 578.928 16.8697C592.759 24.0759 605.591 35.0516 608.086 50.2124C611.162 68.81 597.748 85.6893 585.247 99.7691Z"
        fill="#EBBC87" />
    <path
        d="M412.463 90.647C405.367 88.5682 398.244 86.6281 391.121 84.6602C396.831 65.8963 398.41 45.8851 395.639 26.456C402.54 23.2409 409.552 20.2753 416.648 17.5591C421.027 41.8108 419.53 67.0327 412.463 90.647Z"
        fill="#FCD4CF" />
    <path
        d="M456.676 106.23C449.885 103.182 442.956 100.465 436.055 98.0817C448.361 70.2268 450.883 38.2145 442.845 8.80753C449.968 6.78424 457.174 5.09357 464.464 3.76318C473.472 37.5493 470.589 74.1903 456.676 106.23Z"
        fill="#FCD4CF" />
    <path
        d="M502.956 137.63C497.801 132.086 492.064 127.153 485.855 122.691C505.423 85.3567 509.359 40.29 496.249 0.129085C504.037 -0.148078 511.826 0.0182265 519.558 0.655701H519.586C532.197 46.2213 526.155 96.4155 502.956 137.63Z"
        fill="#FCD4CF" />
    <path
        d="M578.764 107.062C571.586 115.127 564.435 123.22 557.284 131.258C552.157 137.023 546.586 143.231 539.934 147.361C563.382 104.9 568.371 52.8762 553.099 6.75635C560.305 8.83507 567.373 11.4127 574.219 14.5446C575.798 15.2652 577.378 16.0413 578.93 16.8728C585.776 46.4738 585.61 77.5437 578.764 107.062Z"
        fill="#FCD4CF" />
</svg>
