<svg width="2789" height="1381" viewBox="0 0 2789 1381" fill="none" xmlns="http://www.w3.org/2000/svg">
<g clip-path="url(#clip0_4090_340)">
<path d="M1914.21 1097.83C1914 1048.49 1931.92 1045.73 1922.48 906.872C1910.56 731.624 1846.81 552.035 1725.32 389.88C1715.74 377.062 1691.69 359.489 1697.68 340.952C1705.81 315.729 1768.8 314.971 1789.75 315.385C1878.51 317.039 1967.34 395.945 1989.39 481.949C2034.12 656.646 2007.93 893.158 1948.18 1058.76C1943.01 1073.02 1937.16 1103.35 1925.86 1113.68C1915.24 1123.4 1914.28 1111.96 1914.21 1097.76V1097.83Z" fill="#7B96F9"/>
<path d="M1958.45 1157.38C2073.26 1081.44 2375.93 912.734 2723.33 973.792C2725.81 974.205 2728.08 975.515 2729.53 977.582C2741.59 993.983 2792.24 1075.37 2735.8 1223.54C2733.39 1229.81 2725.53 1231.94 2720.43 1227.53C2673.09 1186.8 2454.01 1033.4 1966.79 1174.61C1956.11 1177.71 1949.15 1163.51 1958.45 1157.31V1157.38Z" fill="#7B96F9"/>
<path d="M1972.65 1079.02C2057.34 938.094 2246.58 660.647 2471.72 566.166C2474.2 565.132 2476.96 565.063 2479.44 566.097C2499.36 574.229 2588.6 616.542 2588.74 723.91C2588.74 728.458 2585.64 732.524 2581.23 733.696C2531.06 746.858 2233.9 833.276 1988.5 1090.81C1980.23 1099.49 1966.38 1089.22 1972.58 1078.95L1972.65 1079.02Z" fill="#FD7053"/>
<path d="M2107.17 644.729C2102.41 645.143 2098.07 641.835 2097.25 637.011C2090.77 597.179 2086.43 557.347 2112.68 526.611C2096.69 444.19 2160.99 371.762 2240.86 373.209C2252.92 373.416 2252.78 391.678 2240.52 391.609C2176.98 390.437 2122.67 444.604 2129.22 512.69C2165.06 492.223 2211.85 515.102 2203.23 557.347C2195.31 596.421 2141.01 601.52 2119.37 549.284C2105.86 574.92 2110.75 605.379 2115.37 633.979C2116.2 639.009 2112.75 643.696 2107.79 644.523C2107.58 644.523 2107.38 644.523 2107.17 644.591V644.729ZM2133.01 532.4C2146.11 577.607 2180.56 577.056 2185.25 553.763C2191.04 525.508 2155.62 514.206 2133.01 532.4Z" fill="#A6E470"/>
<path d="M2436.3 923.345C2450.22 865.595 2511.62 823.833 2570.54 832.24C2603.76 836.996 2635.25 856.291 2665.09 854.844C2715.75 852.294 2744.9 800.678 2767.02 759.674C2774.12 746.443 2794.17 757.193 2787 770.494C2698.31 934.922 2630.77 863.872 2567.31 854.775C2519.62 848.022 2469.65 881.789 2458.35 928.651C2454.84 943.261 2432.72 937.954 2436.23 923.345H2436.3Z" fill="#FF4582"/>
<path d="M2574.06 1373.9C2565.17 1320.98 2524.24 1277.29 2478.2 1263.99C2485.3 1289.07 2471.65 1315.81 2444.71 1317.12C2402.46 1319.19 2400.19 1256.41 2445.95 1246C2421.55 1227.12 2382.69 1223.12 2352.36 1239.32C2342.79 1244.41 2335 1229.94 2344.65 1224.77C2389.58 1200.86 2444.57 1214.85 2468.42 1245.17C2519.48 1251.51 2578.68 1302.03 2590.32 1371.22C2592.12 1381.97 2575.92 1384.65 2574.06 1373.97V1373.9ZM2459.25 1261.02C2423.14 1261.02 2420.04 1301.82 2443.95 1300.65C2462.49 1299.75 2468.55 1277.77 2459.25 1261.02Z" fill="#A6E470"/>
<path d="M1765.08 952.222C1799.88 911.356 1806.98 851.884 1787.55 808.054C1772.87 829.624 1743.65 836.447 1725.32 816.6C1696.58 785.52 1743.17 743.482 1780.52 771.806C1779.28 741.001 1757.29 708.681 1725.46 695.863C1715.39 691.797 1721.46 676.498 1731.59 680.564C1778.8 699.515 1803.47 750.649 1795.61 788.414C1823.66 831.623 1823.04 909.427 1777.55 962.835C1770.53 971.104 1757.98 960.423 1765.01 952.153L1765.08 952.222ZM1777.62 791.653C1754.4 764.018 1721.18 787.932 1737.45 805.436C1750.06 819.081 1770.8 809.502 1777.62 791.653Z" fill="#A6E470"/>
<path d="M752.047 759.953C786.849 719.087 793.947 659.615 774.513 615.785C759.834 637.355 730.615 644.178 712.284 624.331C683.547 593.251 730.132 551.213 767.484 579.468C766.243 548.663 744.26 516.343 712.422 503.525C702.36 499.459 708.425 484.16 718.555 488.226C765.761 507.177 790.432 558.311 782.576 596.076C810.624 639.285 810.004 717.089 764.52 770.497C757.491 778.767 744.949 768.085 751.978 759.815L752.047 759.953ZM764.589 599.384C741.365 571.681 708.149 595.663 724.413 613.167C737.024 626.812 757.767 617.233 764.589 599.384Z" fill="#A6E470"/>
<path d="M2433.06 611.095C2445.33 605.03 2458.28 599.517 2471.93 599.448C2509.14 599.241 2531.68 633.698 2549.39 663.745C2542.5 669.051 2532.78 668.913 2524.51 666.295C2508.66 661.264 2475.1 631.08 2409.7 654.924C2384.41 664.158 2362.7 685.866 2338.51 693.722C2329.28 658.163 2408.12 623.361 2432.99 611.095H2433.06Z" fill="white"/>
<path d="M2642.42 989.365C2698.17 996.187 2714.37 1016.52 2722.91 1057.59C2726.98 1077.3 2729.18 1097.35 2729.53 1117.48C2729.8 1136.29 2713.61 1140.08 2711.47 1116.86C2707.41 1073.85 2671.23 1039.26 2630.77 1024.03C2589.29 1008.38 2547.46 1015.55 2505.63 1008.32C2517.89 973.79 2614.17 985.919 2642.49 989.365H2642.42Z" fill="white"/>
<path d="M830.196 1095.56C715.386 1019.62 412.716 850.918 65.3218 911.975C62.8409 912.389 60.5668 913.698 59.1196 915.766C47.0597 932.167 -3.59199 1013.55 52.9174 1161.72C55.3293 1167.99 63.1855 1170.13 68.2851 1165.72C115.629 1124.99 334.706 971.586 821.927 1112.79C832.608 1115.89 839.569 1101.7 830.265 1095.49L830.196 1095.56Z" fill="#7B96F9"/>
<path d="M816.001 1017.21C731.306 876.278 542.068 598.831 316.927 504.35C314.446 503.316 311.689 503.247 309.208 504.281C289.292 512.413 200.049 554.726 199.911 662.093C199.911 666.642 203.012 670.708 207.423 671.879C257.592 685.042 554.748 771.46 800.082 1028.99C808.351 1037.67 822.203 1027.41 816.001 1017.14V1017.21Z" fill="#FD7053"/>
<path d="M352.414 861.53C338.494 803.78 277.091 762.019 218.17 770.426C149.463 780.281 101.292 845.335 21.6967 697.86C14.5985 684.628 -5.45538 695.379 1.71166 708.679C90.5416 873.383 158.077 802.057 221.409 792.961C269.097 786.207 319.06 819.975 330.362 866.836C333.876 881.446 355.998 876.14 352.483 861.53H352.414Z" fill="#FF4582"/>
<path d="M198.465 1309.4C210.18 1239.8 269.997 1189.56 320.373 1183.36C344.08 1153.17 398.935 1138.91 444.143 1162.96C453.791 1168.13 446.003 1182.6 436.424 1177.5C406.171 1161.37 367.304 1165.3 342.839 1184.18C388.598 1194.59 386.531 1257.37 344.08 1255.3C317.203 1253.99 303.558 1227.32 310.588 1202.17C264.622 1215.47 223.618 1259.09 214.728 1312.09C212.937 1322.77 196.673 1320.08 198.465 1309.33V1309.4ZM344.838 1238.9C368.337 1240.07 366.063 1199.21 329.539 1199.28C320.304 1215.88 326.231 1238.01 344.838 1238.9Z" fill="#A6E470"/>
<path d="M355.654 549.284C343.387 543.22 330.431 537.707 316.786 537.638C279.573 537.431 257.038 571.888 239.327 601.934C246.219 607.241 255.935 607.103 264.205 604.484C280.055 599.453 313.616 569.269 379.015 593.113C404.307 602.348 426.015 624.056 450.203 631.912C459.438 596.352 380.6 561.551 355.723 549.284H355.654Z" fill="white"/>
<path d="M146.292 927.617C90.5409 934.439 74.3462 954.769 65.8008 995.841C61.7349 1015.55 59.4608 1035.6 59.1851 1055.73C58.9095 1074.54 75.1042 1078.33 77.2405 1055.11C81.3065 1012.1 117.486 977.51 157.939 962.28C199.425 946.637 241.255 953.804 283.086 946.568C270.819 912.042 174.547 924.171 146.223 927.617H146.292Z" fill="white"/>
<path d="M1728.42 347.845C1729.11 343.297 1735.1 342.125 1739.79 342.194C1772.39 342.608 1804.84 348.465 1835.51 359.423C1840.4 361.146 1845.57 363.282 1848.6 367.486C1851.64 371.689 1851.5 378.65 1847.02 381.199C1842.88 383.543 1841.3 382.371 1787.13 372.241C1811.87 413.589 1836.61 454.937 1861.28 496.286C1866.18 504.486 1835.23 500.972 1832.34 499.111C1820.56 491.599 1808.5 464.585 1800.23 452.87C1725.32 346.605 1727.8 351.773 1728.42 347.776V347.845Z" fill="white"/>
<path d="M1558.41 979.787C1403.77 1165.72 1170.56 1215.2 951.691 1149.31C936.461 1144.49 926.606 1129.47 929.225 1113.55C929.57 1111.07 1062.78 217.944 1062.37 220.425C1064.09 222.906 1560.82 939.472 1561.65 942.022C1568.81 953.806 1567.3 968.829 1558.41 979.718V979.787Z" fill="#A6E470"/>
<g opacity="0.1">
<path d="M1558.48 979.785C1539.39 1002.6 1519.75 1022.72 1499.83 1040.84L1062.5 220.492C1124.8 310.563 1427.33 747.821 1561.72 942.02C1568.81 953.873 1567.44 968.896 1558.48 979.716V979.785Z" fill="black"/>
</g>
<path d="M1045.14 283.136C1060.85 294.093 1081.73 289.545 1092.07 273.419C1111.37 243.304 1142.51 220.631 1177.52 213.051C1207.78 206.504 1238.72 210.501 1267.52 197.614C1285.58 189.551 1284.61 164.053 1266.28 156.61C1241.34 146.48 1210.74 147.996 1185.17 158.126C1148.58 172.667 1119.64 201.197 1091.79 229.039C1125.91 83.9749 1180.14 50.6895 1166.84 18.2311C1160.78 3.34573 1141.34 -2.51195 1125.91 1.96745C1086.35 13.545 1032.46 104.304 1056.03 198.441C1038.45 132.697 972.711 86.5247 944.801 88.1787C933.361 88.8678 921.646 96.9307 920.336 108.301C916.96 137.452 973.124 148.272 1035.28 255.915C960.582 175.079 849.217 185.003 805.044 258.189C794.569 275.555 809.247 297.263 829.163 293.473H829.577C842.671 290.854 854.041 283.205 865.895 277.071C921.715 248.334 995.452 248.265 1045.21 283.067L1045.14 283.136Z" fill="#FD7053"/>
<path d="M1145.75 21.5414C1150.09 27.1923 1148.78 35.1863 1147.13 42.0777C1145.61 48.2799 1139.14 89.2148 1127.35 83.9084C1116.4 79.0155 1134.52 57.032 1129.21 50.1406C1127.21 47.5908 1123.15 47.9354 1120.19 49.2447C1102.54 56.7563 1099.37 39.5279 1109.64 28.7084C1117.36 20.5766 1136.79 9.89493 1145.75 21.5414Z" fill="white"/>
<path d="M1271.17 171.909C1270.21 167.912 1265.11 160.401 1260.08 163.226C1255.6 165.707 1258.08 172.805 1257.39 176.802C1256.5 181.833 1253.46 186.726 1248.71 188.449C1244.44 189.965 1239.68 188.724 1235.13 188.38C1224.38 187.553 1220.87 194.926 1232.86 196.305C1262.42 199.544 1274.14 184.383 1271.17 171.978V171.909Z" fill="white"/>
<path d="M929.365 106.576C930.95 100.925 936.118 96.6527 941.769 95.1366C950.728 92.7936 961.065 96.7906 962.581 99.4093C963.96 101.821 962.099 105.06 959.549 106.163C954.381 108.368 948.109 104.509 943.01 107.059C939.909 108.644 938.324 112.365 938.875 115.811C939.771 122.082 960.996 132.419 948.454 132.281C937.083 132.143 926.471 116.707 929.296 106.507L929.365 106.576Z" fill="white"/>
<path d="M833.435 283.138C838.742 282.174 853.903 275.558 852.18 270.527C851.629 269.011 849.906 268.184 848.321 268.115C844.117 268.115 840.258 272.112 834.4 271.561C821.996 270.32 832.677 260.81 832.54 255.848C832.333 249.026 826.82 250.611 822.547 253.574C809.04 262.947 816.069 286.308 833.504 283.138H833.435Z" fill="white"/>
<path d="M1267.25 516.413C1185.72 541.705 1098.75 553.213 1013.58 548.045C1013.99 545.495 1036.11 398.571 1035.35 403.326C1083.32 401.81 1131.21 396.779 1178.35 388.096L1267.25 516.482V516.413Z" fill="#FF5ED6"/>
<path d="M1446.01 774.701C1316.79 816.807 1139 836.516 973.742 816.118C974.086 813.637 996.277 665.265 994.898 674.707C1118.05 680.84 1241.82 672.501 1360.14 650.725L1446.01 774.701Z" fill="#FF5ED6"/>
<path d="M1558.41 979.785C1542.28 999.149 1525.74 1016.58 1508.93 1032.3C1373.93 1071.65 1147.54 1096.18 935.359 1072.82C935.703 1070.34 957.894 922.173 956.515 931.614C1149.82 940.779 1344.64 925.756 1524.02 887.371C1533.05 900.327 1560.89 939.539 1561.72 942.089C1568.88 953.873 1567.37 968.896 1558.48 979.785H1558.41Z" fill="#FF5ED6"/>
<path d="M976.088 1074.89C978.638 1083.5 991.801 1084.4 998.485 1078.4C1005.17 1072.41 1007.1 1062.76 1008.62 1053.94C1040.32 868.076 1041.83 869.799 1037.22 853.88C1028.39 823.42 1013.37 835.273 1008.68 857.739C1007.72 862.494 987.39 999.564 986.701 1004.46C984.082 1021.89 971.196 1058.28 976.157 1074.89H976.088Z" fill="white"/>
</g>
<defs>
<clipPath id="clip0_4090_340">
<rect width="2788.46" height="1380.21" fill="white" transform="translate(0.129883 0.519531)"/>
</clipPath>
</defs>
</svg>
