<svg width="2328" height="2205" viewBox="0 0 2328 2205" fill="none" xmlns="http://www.w3.org/2000/svg">
<g clip-path="url(#clip0_4604_4903)">
<path d="M457.913 1226.47C422.075 1214.26 414.251 1169.23 412.535 1150.4C409.91 1121.48 411.828 1090.19 397.443 1066.01C378.262 1033.85 331.117 1013.87 331.319 973.182C331.47 949.357 348.38 931.388 351.207 910.036C356.961 867.232 305.93 837.653 286.547 795.405C253.889 724.183 319.558 637.566 287.96 570.231C274.281 540.955 244.652 521.875 222.694 496.536C198.769 468.875 186.705 425.667 211.59 400.026C215.83 395.685 222.291 402.045 218.101 406.335C197.759 427.333 207.955 465.644 229.559 490.58C251.314 515.717 281.499 535.049 296.188 566.395C329.401 637.263 263.832 724.133 294.825 791.619C313.602 832.606 366.703 863.245 360.242 911.197C357.213 933.609 340.506 952.688 340.405 973.232C340.253 1008.16 385.783 1028.71 405.267 1061.31C421.015 1087.86 418.895 1120.27 421.621 1149.55C423.186 1166.56 430.05 1207.34 460.891 1217.79C466.494 1219.76 463.718 1228.24 457.964 1226.42L457.913 1226.47Z" fill="black"/>
<path d="M964.495 1175.39L903.368 1985.93C901.551 2009.81 917.653 2031.31 941.074 2036.31L1723.3 2203.33C1747.63 2208.53 1771.86 2194.2 1779.08 2170.37L2046.15 1285.17L964.545 1175.39H964.495Z" fill="#FF5EB3"/>
<path d="M188.271 374.889C187.564 392.858 184.99 410.727 180.699 428.191C178.731 436.217 186.656 442.779 194.126 439.347C222.443 426.324 241.069 435.662 250.861 434.804C255.404 434.4 260.149 432.078 261.815 427.838C264.035 422.134 260.048 416.027 256.06 411.433C242.482 395.836 225.876 382.864 207.452 373.425" fill="#FF455A"/>
<path d="M367.411 154.107C384.22 254.504 322.942 388.266 222.444 405.125C121.845 421.984 20.3373 315.58 3.47827 215.082C-13.4817 113.979 55.0144 19.3359 155.008 2.57784C255.506 -14.2812 350.552 53.5082 367.411 154.107Z" fill="#8DE470"/>
<path d="M187.162 49.3174C181.105 43.2603 178.379 32.8622 183.528 25.9975C189.635 17.9213 202.002 19.1327 211.744 22.0099C257.072 35.386 296.342 67.4888 319.864 108.526C325.517 118.318 337.278 136.843 335.612 148.099C325.467 145.424 320.621 132.3 314.917 124.628C274.789 70.7698 203.365 65.5203 187.213 49.3679L187.162 49.3174Z" fill="white"/>
<path d="M2102.38 1189.07L2073.05 1336.96C2070.27 1351.1 2057.05 1360.69 2042.76 1358.97C1923.84 1344.89 817.002 1214.76 911.594 1225.87L914.168 1033.3C2143.01 1177.46 2098.69 1168.83 2101.06 1177.41C2102.78 1180.64 2103.03 1184.83 2102.38 1189.07Z" fill="#8DE470"/>
<path d="M1827.84 1066.21C1822.39 1035.57 1790.08 1027.24 1761.86 1021.54C1721.63 1013.46 1684.38 1013.01 1647.99 1022.29C1688.27 1000.79 1722.69 968.183 1745.76 928.862C1760 904.785 1770.14 875.963 1762.87 848.958C1744.6 781.017 1612.35 745.684 1470.26 859.861C1418.83 901.201 1379.26 957.28 1338.22 1009.07C1365.17 820.187 1234.09 660.682 1158.93 639.129C1138.38 633.274 1114.56 635.343 1098.15 649.073C1069.38 673.2 1075.19 718.73 1086.9 754.366C1116.73 845.021 1162.66 928.509 1230.91 995.339C1184.06 967.426 1130.31 956.674 1077.61 942.238C1025.06 927.852 967.774 925.632 916.743 944.611C899.631 950.92 882.47 960.511 874.04 976.663C863.844 996.349 869.548 1021.38 882.924 1039.05C896.401 1056.77 916.188 1068.28 936.075 1078.07C1038.04 1128.29 1157.06 1142.63 1268.31 1119.41C1286.28 1115.67 1299.91 1109.26 1313.49 1108.71L1277.6 1279.72L1098.86 2070.03L1278.86 2108.44C1284.71 2049.99 1251.35 2383.58 1375.47 1141.57C1466.48 1201.13 1611.09 1246.76 1711.59 1220.36C1798.51 1197.55 1838.69 1127.18 1827.79 1066.21H1827.84ZM1168.92 1071.1C1100.93 1072.32 1028.65 1072.47 970.904 1036.43C960.657 1030.02 949.855 1017.85 955.912 1007.4C960.152 1000.13 969.844 998.872 978.122 998.569C1042.93 996.248 1108.15 1003.67 1170.94 1020.32C1183.26 1023.61 1251.35 1037.44 1246.81 1054.24C1241.96 1071.96 1181.94 1070.9 1168.92 1071.1ZM1294.25 987.768C1276.54 983.528 1262.05 950.87 1252.56 936.837C1211.12 876.014 1159.18 809.991 1151.15 729.835C1150.19 719.941 1162.16 713.935 1169.58 720.749C1185.17 735.084 1205.31 752.196 1209.5 757.395C1227.68 779.655 1243.32 803.984 1256.19 829.676C1275.78 869.098 1308.03 943.45 1294.3 987.768H1294.25ZM1438.67 1064.79C1427.01 1069.29 1398.79 1078.73 1387.89 1067.72C1376.78 1056.57 1391.98 1040.16 1399.5 1028.05C1455.63 937.493 1549.31 871.874 1652.53 850.775C1696.55 841.993 1715.07 868.493 1681.66 903.321C1613.72 974.038 1530.13 1029.51 1438.67 1064.79ZM1618.46 1180.59C1571.22 1179.12 1524.88 1166.45 1481.52 1148.53C1439.27 1131.07 1459.01 1104.67 1494.69 1094.78C1579.49 1071.31 1671.87 1067.47 1758.84 1078.98C1844.29 1089.98 1747.53 1184.27 1618.46 1180.59Z" fill="#FD9E59"/>
<path d="M959.951 1982.5C910.939 2041.05 853.043 2090.02 785.607 2125.3C642.204 2200.46 471.746 2204.39 324.103 2160.18C308.002 2155.23 297.906 2139.28 300.531 2122.62C339.196 1863.63 352.421 1775.15 440.148 1186.9C970.147 1952.52 962.828 1941.16 963.282 1942.98C970.702 1955.4 969.289 1971.14 959.901 1982.5H959.951Z" fill="#46BDFF"/>
<path d="M616.913 1442.31C541.754 1456.39 463.466 1448.11 404.51 1426L414.605 1357.96C463.163 1371.24 514.699 1374.06 564.317 1366.09L616.913 1442.26V1442.31Z" fill="#FD9E59"/>
<path d="M761.277 1650.83C632.108 1674.4 494.662 1650.63 380.586 1585.26L392.801 1504.14C481.488 1573.65 597.179 1601.61 709.892 1576.78L761.277 1650.83Z" fill="#FD9E59"/>
<path d="M962.171 1941.01C750.828 1970.44 531.509 1924.2 345.656 1819.31L356.811 1745.27C487.746 1833.65 645.585 1882.21 803.777 1881.85C839.918 1881.65 877.119 1878.83 911.14 1867.67L962.171 1941.01Z" fill="#FD9E59"/>
<path d="M785.556 2125.25C737.907 2150.24 689.904 2166.34 643.466 2175.93C523.888 2151.3 411.023 2091.78 316.986 2012.23L329.05 1931.62C438.634 2035.65 636.853 2126.16 785.556 2125.25Z" fill="#FD9E59"/>
<path d="M421.976 1252.52C438.432 1264.02 460.338 1259.23 471.14 1242.37C491.381 1210.82 523.989 1187.05 560.685 1179.12C592.384 1172.26 624.789 1176.5 654.974 1162.97C673.903 1154.49 672.893 1127.84 653.662 1120.02C627.515 1109.42 595.513 1110.98 568.66 1121.63C530.298 1136.82 500.013 1166.76 470.837 1195.93C506.574 1043.95 563.411 1009.02 549.479 974.997C543.119 959.4 522.777 953.242 506.625 957.987C465.134 970.101 408.701 1065.25 433.384 1163.88C414.96 1095.03 346.06 1046.62 316.835 1048.34C304.821 1049.05 292.556 1057.53 291.193 1069.44C287.609 1099.98 346.515 1111.28 411.679 1224.1C333.391 1139.4 216.69 1149.8 170.403 1226.47C159.4 1244.69 174.795 1267.41 195.692 1263.42L196.096 1263.32C209.775 1260.64 221.738 1252.62 234.155 1246.21C292.657 1216.07 369.885 1216.02 422.027 1252.46L421.976 1252.52Z" fill="#8DE470"/>
<g opacity="0.1">
<path d="M2024.49 1356.8L1986.99 1481.02L954.145 1230.86L2024.49 1356.8Z" fill="black"/>
</g>
</g>
<defs>
<clipPath id="clip0_4604_4903">
<rect width="2327.05" height="2204.34" fill="white" transform="translate(0.902344)"/>
</clipPath>
</defs>
</svg>
