<svg width="2160" height="584" viewBox="0 0 2160 584" fill="none" xmlns="http://www.w3.org/2000/svg">
<g clip-path="url(#clip0_4090_501)">
<path d="M344.314 208.615C0.21391 479.912 118.92 386.322 93.2082 406.566C64.0866 -40.7047 74.1546 113.564 71.9895 80.1662C153.941 131.697 245.637 174.189 344.369 208.615H344.314Z" fill="#FFB85E"/>
<path d="M770.908 301.175C530.249 642.352 613.23 524.675 595.259 550.116C443.426 139.274 495.823 281.039 484.456 250.347C576.313 273.785 672.501 290.674 770.854 301.121L770.908 301.175Z" fill="#CBA9FF"/>
<path d="M1238.86 305.342C1066.3 685.763 1125.84 554.553 1112.95 582.917C899.198 228.262 967.834 342.096 950.675 313.624C1046.48 316.33 1143.05 313.624 1238.91 305.342H1238.86Z" fill="#ABFD59"/>
<path d="M2083.87 51.3691L2070.72 362.992L1823.02 176.733C1916.67 141.44 2004.41 99.6525 2083.87 51.3691Z" fill="#70E4D1"/>
<path d="M1705.23 216.736C1596.11 640.082 1633.78 494.095 1625.61 525.653C1341.05 198.819 1433.72 305.238 1414.67 283.37C1514.48 267.347 1612.08 244.992 1705.23 216.736Z" fill="#F97BEE"/>
<path d="M2.81516 39.2444C-2.38126 35.4012 3.46471 27.5524 8.607 31.3956C521.591 409.598 1517.19 390.111 2081.38 47.2014C2153.43 3.41073 2153.65 -4.49216 2158.52 2.4364C2160.09 4.65571 2159.55 7.68695 2157.33 9.20258C1607.37 397.743 541.402 436.283 2.81516 39.2444Z" fill="black"/>
<g opacity="0.1">
<path d="M730.208 358.824L595.263 550.117L559.971 454.633C599.756 450.14 638.134 433.035 666.768 404.725C686.85 384.86 702.006 362.288 730.154 358.77L730.208 358.824Z" fill="black"/>
</g>
<g opacity="0.1">
<path d="M302.365 241.741L93.2087 406.565L86.5508 303.503C132.128 309.999 180.195 300.093 217.869 273.407C244.609 254.408 268.804 228.859 302.365 241.687V241.741Z" fill="black"/>
</g>
<g opacity="0.1">
<path d="M1215.8 356.333L1112.96 582.919L1067.38 507.246C1107.71 491.061 1142.67 461.128 1162.49 422.209C1175.31 396.93 1185.55 363.154 1215.8 356.279V356.333Z" fill="black"/>
</g>
<g opacity="0.1">
<path d="M1689.38 278.498L1625.62 525.653L1574.46 466.922C1605.26 440.616 1627.78 404.403 1635.36 364.239C1641.91 329.759 1641.31 285.914 1689.38 278.498Z" fill="black"/>
</g>
<g opacity="0.1">
<path d="M2081.65 104.416L2070.72 362.938L2005.82 313.951C2030.34 281.69 2044.63 241.526 2043.49 200.658C2042.84 175.542 2037.43 148.153 2050.64 126.826C2057.13 116.758 2070.56 108.638 2081.6 104.416H2081.65Z" fill="black"/>
</g>
<path d="M102.195 252.352L95.1036 137.327C94.7247 131.048 104.414 130.02 104.847 136.732L111.938 251.757C112.317 258.252 102.628 258.847 102.195 252.352Z" fill="white"/>
<path d="M557.419 395.525L522.559 299.067C520.34 293.004 529.542 289.702 531.761 295.765L566.621 392.169C568.84 398.286 559.638 401.534 557.473 395.471L557.419 395.525Z" fill="white"/>
<path d="M1054.01 454.797C1038.63 422.373 1020.61 390.924 1000.42 361.369C996.792 356.011 1004.91 350.598 1008.48 355.902C1028.95 385.89 1047.19 417.772 1062.83 450.683C1065.59 456.529 1056.77 460.643 1054.01 454.851V454.797Z" fill="white"/>
<path d="M1551.08 408.247C1526.66 377.935 1500.2 348.705 1472.43 321.37C1467.83 316.877 1474.65 309.894 1479.25 314.441C1507.29 342.047 1534.03 371.548 1558.66 402.185C1562.77 407.273 1555.03 413.281 1551.08 408.301V408.247Z" fill="white"/>
<path d="M1970.79 276.925C1945.62 252.513 1919.04 229.021 1891.76 207.153C1886.73 203.093 1892.85 195.515 1897.88 199.575C1925.38 221.659 1952.23 245.368 1977.61 269.943C1982.27 274.436 1975.39 281.364 1970.85 276.925H1970.79Z" fill="white"/>
</g>
<defs>
<clipPath id="clip0_4090_501">
<rect width="2158.63" height="582.811" fill="white" transform="translate(0.757812 0.216797)"/>
</clipPath>
</defs>
</svg>
