<svg width="1949" height="2234" viewBox="0 0 1949 2234" fill="none" xmlns="http://www.w3.org/2000/svg">
<g clip-path="url(#clip0_4604_2628)">
<path d="M1945.56 1993.03C1929.57 2019.08 1849.22 1995.94 1824.78 1991.01C1735.7 1973.41 1650.24 1936.89 1575.97 1884.38C1574.54 1883.37 1573.29 1882.6 1572.04 1881.59C1584.35 1986.43 1613.02 2089.25 1656.37 2185.41C1668.86 2213 1640.97 2242.5 1613.08 2230.61C1489.5 2177.92 1399.11 2051.9 1366.7 1918.4C1287.55 1591.02 1483.85 1278.46 1506.92 951.681C1526.49 674.201 1419.27 397.614 1249.9 177.046L1257.81 172.705C1546.17 349.564 1712.51 669.622 1697.88 976.42C1690.21 1135.68 1637.46 1291.72 1644.06 1450.92C1651.55 1627.95 1738.43 1799.04 1873.07 1913.58C1891.86 1929.64 1964 1963.24 1945.56 1993.03Z" fill="#E4BA70"/>
<g opacity="0.5">
<path d="M1945.57 1993.03C1929.57 2019.07 1849.23 1995.94 1824.79 1991C1735.7 1973.4 1650.25 1936.89 1575.97 1884.38C1537.02 1802.13 1518.47 1709.48 1515.2 1618.14C1500.63 1224.93 1731.6 874.248 1495.45 450.655C1392.87 267.255 1319.19 254.41 1270.19 186.081C1271.61 184.951 1273.04 184.059 1274.47 183.107C1539.52 351.76 1712.87 662.779 1697.88 976.474C1690.21 1135.73 1637.46 1291.78 1644.06 1450.97C1651.56 1628.01 1738.44 1799.1 1873.08 1913.64C1891.87 1929.69 1964 1963.29 1945.57 1993.09V1993.03Z" fill="white"/>
</g>
<path d="M1309.49 1396.8L569.767 1104.57L372.986 1026.84L1292.78 180.432C1292.78 182.573 1294.03 275.7 1293.97 269.753L1298.91 631.023V631.202L1309.55 1396.68L1309.49 1396.8Z" fill="#46FF72"/>
<path d="M203.084 1463.93V1465.18C200.467 1477.67 156.223 1488.38 101.869 1489.21C47.5146 1490.04 2.97286 1480.58 0.0589155 1468.22L-0.0600212 1466.97C-0.238426 1453.82 45.017 1442.58 101.155 1441.75C157.293 1440.92 202.846 1450.85 203.084 1463.99V1463.93Z" fill="#FD59CC"/>
<path d="M72.6688 1424.45C86.6439 1433.25 106.328 1432.77 122.444 1415.88C162.466 1373.96 150.394 1323.11 103.176 1291.48C93.0664 1284.7 89.2605 1287.49 81.5296 1294.33C57.0881 1316.15 44.7187 1342.68 45.6702 1368.84C46.5622 1394.24 60.8346 1417.07 72.6093 1424.45H72.6688Z" fill="#D545FF"/>
<path d="M98.8944 1467.74C90.9257 1453.41 88.6659 1440.27 92.1745 1428.67C93.9586 1422.67 103.117 1425.4 101.273 1431.41C98.4782 1440.63 100.441 1450.97 107.22 1463.17C108.469 1465.48 107.636 1468.34 105.376 1469.65C102.998 1470.96 100.143 1470.06 98.8944 1467.8V1467.74Z" fill="black"/>
<path d="M22.2973 1499.97C17.8966 1503.36 19.2644 1503.24 25.687 1601.24C25.9248 1604.63 26.1627 1608.08 27.7683 1611.12C29.374 1614.15 32.7042 1616.41 36.0344 1615.76C36.6291 1542.19 35.856 1542.43 39.0079 1536.84C41.8029 1531.79 47.4524 1528.99 53.0424 1527.56C59.1082 1526.02 94.7297 1519.89 80.933 1506.75C77.0676 1503.06 66.7796 1503.72 61.8437 1503.06C29.6713 1499.08 25.8654 1497.29 22.2973 1500.03V1499.97Z" fill="white"/>
<path d="M76.9504 1411.54C55.2445 1386.21 58.3963 1347.97 83.9677 1326.56C88.7846 1322.52 94.8504 1329.83 90.0335 1333.87C68.5654 1351.83 65.8893 1384.13 84.1461 1405.41C88.2494 1410.17 80.9943 1416.36 76.9504 1411.6V1411.54Z" fill="white"/>
<path d="M1322.31 1440.41C1365.56 1304.89 1170.84 1121.71 887.396 1031.25C603.951 940.793 339.116 977.315 295.868 1112.83C252.621 1248.34 447.339 1431.52 730.784 1521.98C1014.23 1612.44 1279.06 1575.92 1322.31 1440.41Z" fill="#985EFF"/>
<path d="M1257.46 1419.69C1243.3 1464.17 1187.58 1490.93 1107.48 1499.38C796.042 1472.68 437.151 1271.32 481.098 1133.53C495.252 1089.05 550.736 1062.29 630.839 1053.84C702.083 1060.15 782.186 1076.08 864.609 1102.43C1112.35 1181.34 1288.08 1323.41 1257.4 1419.63L1257.46 1419.69Z" fill="#0E963A"/>
<path d="M853.129 171.102L845.042 121.148L881.615 86.181L831.602 78.3906L809.598 32.8379L786.763 77.9744L736.631 84.8132L772.55 120.494L763.511 170.269L808.528 147.136L853.129 171.102Z" fill="#FD59CC"/>
<path d="M408.964 727.481C421.868 740.623 396.773 754.063 386.841 756.501C371.082 760.367 325.53 764.589 264.099 796.702C260.293 798.664 256.427 800.746 252.146 801.043C245.723 801.459 239.657 797.177 242.75 790.874C245.723 784.749 252.146 778.921 256.903 774.223C284.972 746.51 322.735 733.368 361.032 724.864C374.353 721.891 399.449 717.847 408.964 727.481Z" fill="white"/>
<path d="M1375.56 261.189C1364.03 257.799 1353.8 251.198 1345.05 245.311C1339.88 241.802 1345.17 233.952 1350.41 237.461C1358.55 242.991 1368.07 249.117 1378.24 252.149C1403.93 259.702 1421.65 243.467 1418.08 227.827C1416.65 221.761 1425.87 219.501 1427.3 225.686C1432.59 248.403 1408.33 270.941 1375.56 261.248V261.189Z" fill="white"/>
<path d="M1192.1 188.877C1175.99 175.378 1172.12 150.461 1183.72 134.523C1187.4 129.468 1195.08 134.999 1191.39 140.113C1182.82 151.947 1185.98 171.334 1198.23 181.622C1209.7 191.256 1228.02 193.397 1243.78 186.855C1249.55 184.477 1253.24 193.219 1247.41 195.657C1227.54 203.863 1206.02 200.593 1192.1 188.877Z" fill="white"/>
<path d="M1432.23 104.847C1441.39 98.2459 1452.63 95.0346 1463.87 95.6888C1470.35 96.1051 1469.22 105.917 1463.28 105.144C1454.18 104.55 1445.02 107.285 1437.77 112.518C1432.71 116.205 1427.12 108.534 1432.18 104.847H1432.23Z" fill="white"/>
<path d="M1245.8 31.9962C1241.16 27.7145 1247.65 20.7567 1252.22 24.9789C1263.58 35.3859 1271.79 48.7663 1275.95 63.5739C1276.67 66.0715 1275.18 68.7476 1272.68 69.4018C1262.99 72.1373 1269.41 53.5832 1245.86 31.9367L1245.8 31.9962Z" fill="white"/>
<path d="M1285.88 190.373C1337.71 140.873 1442.88 77.4735 1448.88 219.873C1454.88 362.273 1342.71 259.54 1285.88 190.373Z" fill="#985EFF"/>
<path d="M1289.11 190.129C1237.27 140.629 1132.11 77.2294 1126.11 219.629C1120.11 362.029 1232.27 259.296 1289.11 190.129Z" fill="#985EFF"/>
</g>
<defs>
<clipPath id="clip0_4604_2628">
<rect width="1948.54" height="2233.27" fill="white"/>
</clipPath>
</defs>
</svg>
