<svg width="2733" height="1578" viewBox="0 0 2733 1578" fill="none" xmlns="http://www.w3.org/2000/svg">
<g clip-path="url(#clip0_4090_1107)">
<path d="M1192.52 1146.04L1078.96 465.259C1071.51 419.987 1034.44 392.345 998.754 405.394L854.097 458.708C826.668 468.668 808.079 500.358 808.612 535.83L809.198 585.682C810.636 697.477 672.85 688.689 682.597 578.599L688.349 511.437C691.811 470 668.962 432.184 636.153 424.941L522.601 400.174C487.502 392.505 454.32 422.065 448.728 465.792L370.061 1089.05C365.641 1124.95 381.193 1159.84 407.877 1174.22L542.147 1245.75C581.667 1266.84 626.193 1234.03 630.401 1180.71L641.16 1047.03C644.622 1003.09 676.259 971.239 711.358 976.245L758.334 982.743C790.184 987.164 814.364 1020.56 814.737 1060.45L816.282 1194.72C816.654 1241.17 849.09 1277.01 886.107 1272.43L1136.65 1240.95C1174.25 1236.16 1200.13 1192.06 1192.46 1145.99L1192.52 1146.04Z" fill="black"/>
<path d="M1789.52 740.725C1896.31 635.428 1906.9 519.639 1802.57 391.387C1690.82 255.571 1500.04 297.488 1339.09 366.46C1283.75 389.895 1251.05 456.578 1251.05 515.698L1247.59 667.065L1236.83 1129C1235.07 1229.02 1299.57 1294.85 1364.6 1296.45C1570.35 1304.23 1865.09 1281.16 1941.84 1089.27C2011.46 918.723 1955.58 803.946 1789.52 740.725ZM1595.59 566.349C1595.59 600.862 1554.37 627.546 1471.5 646.72L1467.29 552.714C1609.5 505.312 1593.73 565.657 1595.65 566.349H1595.59ZM1497.17 1038.24C1497.11 1036.32 1491.04 884.423 1491.42 894.01C1556.07 894.596 1699.93 892.679 1699.93 958.669C1698.55 1024.29 1562.68 1034.67 1497.17 1038.29V1038.24Z" fill="black"/>
<path d="M2122.35 335.57C2046.18 330.191 1983.07 408.271 1986.53 503.235L2009.54 1132.83C2012.79 1222.21 2073.98 1290.91 2145.73 1285.91C2536.88 1258.26 2732.34 1099.81 2732.34 810.551C2732.34 521.291 2528.99 364.171 2122.35 335.57ZM2274.09 888.792H2270.46L2240.53 618.705C2389.02 618.705 2463.06 663.977 2463.06 754.308C2463.06 844.638 2400.16 888.792 2274.09 888.792Z" fill="black"/>
<path d="M276.427 1291.82C271.421 1290 268.864 1284.52 270.675 1279.51C277.919 1259.54 257.839 1237.12 236.055 1224.65C210.49 1210.11 179.865 1197.65 167.935 1168.46C145.512 1113.39 212.301 1056.99 193.287 1012.3C182.475 986.79 148.548 978.694 122.024 976.404C87.6703 973.794 52.8377 972.942 26.9528 951.531C5.48864 933.742 -4.52443 903.543 2.02667 876.433C8.57777 849.323 31.3202 827.06 58.5366 821.095C70.8399 818.325 75.1007 837.073 62.6377 839.843C42.7181 844.21 25.4615 861.147 20.6148 880.96C15.8213 900.773 23.4376 923.729 39.1496 936.724C60.4007 954.3 93.5823 954.993 123.675 957.283C169.213 961.224 199.412 977.682 210.916 1004.79C234.245 1059.6 167.295 1116.16 185.671 1161.22C194.831 1183.75 222.048 1194.61 245.536 1208.04C306.2 1242.66 296.081 1299.01 276.374 1291.82H276.427Z" fill="#46A8FF"/>
<path d="M280.263 2.26148C332.992 -8.71028 396.319 30.117 395.307 96.7464C469.18 125.88 491.869 202.043 510.937 278.047C513.972 290.457 495.384 294.931 492.348 282.734C475.784 216.637 456.61 144.948 393.123 116.453C383.27 163.269 344.443 190.432 312.06 185.905C288.359 182.603 270.517 161.352 272.7 139.568C275.789 110.701 317.759 77.3062 376.133 90.7812C373.31 41.1952 324.683 12.5941 284.205 21.0626C271.795 23.6724 267.747 4.92453 280.263 2.26148ZM374.961 109.955C327.293 97.4388 293.685 123.643 291.768 141.592C290.276 153.842 302.793 165.187 314.723 166.891C337.572 170.087 368.144 148.09 374.961 110.008V109.955Z" fill="#7FE470"/>
<path d="M2398.24 254.185C2386.84 204.014 2422.9 142.977 2486.44 142.817C2513.02 71.8199 2585.29 48.8644 2657.51 29.4241C2669.28 26.335 2673.92 43.9644 2662.25 47.1068C2599.46 64.0438 2531.39 83.5373 2505.24 144.574C2550.09 153.203 2576.66 189.793 2572.88 220.738C2568.57 256.156 2525.32 277.301 2495.6 237.834C2478.77 215.411 2475.41 187.716 2481.06 161.192C2433.76 164.76 2407.35 211.577 2416.08 250.138C2418.74 261.962 2400.9 266.009 2398.24 254.185ZM2499.43 161.991C2488.3 207.689 2513.87 239.326 2531.02 240.87C2542.74 242.095 2553.39 229.952 2554.77 218.554C2557.44 196.717 2535.92 167.903 2499.43 162.044V161.991Z" fill="#8A7BF9"/>
<path d="M2218.48 166.357C2177.9 166.357 2143.91 199.219 2143.91 240.923C2143.91 199.752 2110.57 166.357 2069.35 166.357C2110.57 166.357 2143.91 133.069 2143.91 91.792C2143.91 133.549 2177.95 166.357 2218.48 166.357Z" fill="#FDB159"/>
<path d="M2675.62 1262.41C2635.03 1262.41 2601.05 1295.28 2601.05 1336.98C2601.05 1295.81 2567.71 1262.41 2526.49 1262.41C2567.71 1262.41 2601.05 1229.13 2601.05 1187.85C2601.05 1208.46 2609.42 1227.1 2622.94 1240.58C2636.42 1254.05 2655.11 1262.36 2675.62 1262.36V1262.41Z" fill="#7FE470"/>
<path d="M738.252 1275.68C697.667 1275.68 663.687 1308.54 663.687 1350.24C663.687 1309.07 630.346 1275.68 589.122 1275.68C630.346 1275.68 663.687 1242.39 663.687 1201.11C663.687 1242.87 697.721 1275.68 738.252 1275.68Z" fill="#FDB159"/>
<path d="M1416.53 1451.07C1381.75 1451.07 1350.01 1465.24 1327.16 1488.08C1304.15 1510.93 1289.98 1542.62 1289.98 1577.62C1289.98 1507.74 1233.37 1451.07 1163.43 1451.07C1198.37 1451.07 1230.06 1436.9 1252.97 1414.05C1275.81 1391.2 1289.98 1359.51 1289.98 1324.52C1289.98 1359.46 1304.15 1391.15 1327.16 1414.05C1350.01 1436.9 1381.7 1451.07 1416.53 1451.07Z" fill="#8A7BF9"/>
<path d="M1147.83 1135.6L1034.28 454.819C1026.83 409.547 989.756 381.905 954.124 394.954L809.467 448.268C782.038 458.228 763.45 489.918 763.982 525.39L764.568 575.242C766.006 687.037 628.22 678.249 637.967 568.158L643.719 500.996C647.181 459.559 624.332 421.744 591.523 414.5L477.971 389.734C442.872 382.064 409.69 411.624 404.098 455.351L325.432 1078.61C321.011 1114.51 336.563 1149.4 363.247 1163.78L497.518 1235.31C537.037 1256.4 581.564 1223.59 585.771 1170.27L596.53 1036.59C599.992 992.648 631.629 960.798 666.728 965.805L713.704 972.302C745.554 976.723 769.735 1010.12 770.107 1050.01L771.652 1184.28C772.025 1230.72 804.461 1266.57 841.477 1261.99L1092.02 1230.51C1129.62 1225.72 1155.5 1181.62 1147.83 1135.55V1135.6Z" fill="#7FE470"/>
<path d="M1744.83 730.286C1851.62 624.989 1862.22 509.2 1757.88 380.947C1646.14 245.132 1455.36 287.048 1294.41 356.021C1239.07 379.456 1206.37 446.139 1206.37 505.258L1202.9 656.626C1192.94 1120.05 1189.91 1132.09 1194.06 1150.41C1205.19 1234.72 1263.78 1284.68 1319.92 1286.01C1525.66 1293.79 1820.41 1270.72 1897.16 1078.83C1967.52 906.42 1909.04 792.814 1744.83 730.286ZM1550.91 555.91C1550.91 590.423 1509.69 617.106 1426.81 636.28L1422.6 542.275C1564.81 494.872 1549.05 555.217 1550.96 555.91H1550.91ZM1452.48 1027.8C1452.43 1025.88 1446.36 873.984 1446.73 883.571C1511.39 884.157 1655.25 882.24 1655.25 948.23C1653.86 1013.85 1518 1024.23 1452.48 1027.85V1027.8Z" fill="#FF5EA0"/>
<path d="M2077.66 325.13C2001.5 319.751 1938.39 397.832 1941.85 492.796L1964.86 1122.39C1968.11 1211.77 2029.3 1280.47 2101.05 1275.47C2492.19 1247.82 2687.66 1089.37 2687.66 800.112C2687.66 510.851 2484.31 353.732 2077.66 325.13ZM2229.4 878.352H2225.78L2195.85 608.266C2344.34 608.266 2418.37 653.538 2418.37 743.868C2418.37 834.199 2355.47 878.352 2229.4 878.352Z" fill="#7FE470"/>
<path d="M1312.83 580.036C1312.83 638.676 1253.02 676.598 1202.9 656.572C1206.42 500.358 1206.2 503.873 1206.52 501.955C1260.74 485.711 1312.78 525.923 1312.78 580.036H1312.83Z" fill="#FDB159"/>
<path d="M1480.84 185.155C1491.21 141.21 1463.99 97.1773 1420.05 86.8053C1376.1 76.4334 1332.07 103.65 1321.7 147.595C1311.33 191.54 1338.54 235.572 1382.49 245.944C1426.43 256.316 1470.46 229.1 1480.84 185.155Z" fill="#FDB159"/>
<path d="M1828.45 772.842C1779.29 827.701 1686.3 793.081 1686.3 717.983C1686.3 654.443 1755.38 616.574 1807.73 646.614C1793.51 675.002 1772.42 703.017 1744.83 730.233C1777.05 742.483 1804.86 756.704 1828.45 772.842Z" fill="#FDB159"/>
<path d="M1527.1 885.435C1493.71 882.878 1461.59 883.677 1446.73 883.517L1449.4 952.597C1448.44 952.81 1447.69 952.81 1446.73 952.81C1401.67 952.81 1365.03 916.166 1365.03 871.108C1365.03 826.049 1401.67 789.405 1446.73 789.405C1498.93 789.405 1536.96 838.192 1527.1 885.488V885.435Z" fill="#FDB159"/>
<path d="M1568.75 1135.6C1511.71 1135.6 1471.98 1078.24 1492.43 1024.92C1553.25 1019.39 1597.19 1008.79 1623.82 993.447C1678.31 1042.82 1644.01 1135.6 1568.75 1135.6Z" fill="#FDB159"/>
<path d="M1343.88 1206.38C1338.13 1242.66 1309.53 1269.71 1275.02 1274.67C1233 1254.16 1201.57 1207.13 1194.06 1150.35V1150.14C1210.73 1123.46 1242.42 1107.96 1275.6 1113.12C1320.29 1120.05 1350.81 1161.86 1343.88 1206.33V1206.38Z" fill="#FDB159"/>
<path d="M1926.5 947.43C1926.08 949.347 1928.74 1012.94 1892.15 1090.17C1838.09 1103.17 1784.56 1056.14 1793.56 998.081C1803.68 934.488 1878.57 907.91 1926.5 947.43Z" fill="#FDB159"/>
<path d="M2024.93 500.092C2029.35 583.445 2032.01 666.798 2033.03 750.258C2033.45 787.275 2091.03 787.381 2090.6 750.258C2089.59 666.798 2086.93 583.445 2082.51 500.092C2080.59 463.235 2023.01 463.022 2024.93 500.092Z" fill="white"/>
<path d="M2043.89 872.653C2045.44 890.175 2047.03 907.645 2048.58 925.168C2049.96 940.667 2060.83 953.929 2077.34 953.929C2091.83 953.929 2107.49 940.72 2106.1 925.168C2104.56 907.645 2102.96 890.175 2101.41 872.653C2100.03 857.154 2089.16 843.892 2072.65 843.892C2058.17 843.892 2042.51 857.1 2043.89 872.653Z" fill="white"/>
<path d="M2517.54 717.874C2557.76 835.102 2525.8 956.057 2425.93 1031.63C2396.8 1053.68 2425.4 1103.7 2454.96 1081.33C2575.01 990.464 2622.25 846.286 2572.99 702.588C2561.06 667.756 2505.45 682.722 2517.49 717.874H2517.54Z" fill="white"/>
<path d="M942.244 563.792C944.587 573.112 946.931 582.433 949.221 591.754C953.002 606.826 969.886 615.881 984.639 611.833C999.978 607.625 1008.5 591.541 1004.72 576.414C1002.38 567.094 1000.09 557.773 997.742 548.452C993.96 533.38 977.076 524.325 962.323 528.373C946.984 532.581 938.462 548.665 942.244 563.792Z" fill="white"/>
<path d="M980.004 715.798C992.201 803.146 1006.9 890.067 1024.16 976.563C1031.4 1012.83 1086.9 997.495 1079.66 961.277C1062.4 874.782 1047.65 787.86 1035.5 700.512C1030.39 663.975 974.945 679.527 980.004 715.798Z" fill="white"/>
<path d="M424.921 762.454C414.002 846.447 403.084 930.386 392.165 1014.38C387.425 1051.02 445 1050.65 449.74 1014.38C460.659 930.386 471.577 846.447 482.496 762.454C487.236 725.811 429.661 726.184 424.921 762.454Z" fill="white"/>
</g>
<defs>
<clipPath id="clip0_4090_1107">
<rect width="2732.29" height="1577.16" fill="white" transform="translate(0.0571289 0.397461)"/>
</clipPath>
</defs>
</svg>
