<svg width="1426" height="2709" viewBox="0 0 1426 2709" fill="none" xmlns="http://www.w3.org/2000/svg">
<g clip-path="url(#clip0_4090_623)">
<path d="M1089.14 646.569C1063.41 626.489 1019.24 603.962 964.895 583.067C957.93 580.369 961.946 569.827 968.974 572.525C1024.32 593.797 1069.5 616.951 1096.1 637.658C1102.06 642.302 1094.91 651.149 1089.2 646.569H1089.14Z" fill="white"/>
<g opacity="0.3">
<path d="M1117.44 679.825C1107.15 853.201 1094.6 1020.49 1084.49 1193.49C1077.34 1318.49 1070 1444.05 1036.68 1564.46C1003.36 1684.69 941.237 1801.15 842.282 1877.71C751.421 1947.73 650.458 1966.37 523.642 1941.96L342.925 2496.66L523.078 2672.05C539.33 2687.29 524.082 2714.09 502.621 2707.75L15.1237 2562.55C-5.8972 2556.4 -4.70497 2526.22 16.6925 2521.89L255.139 2475.45L437.676 1915.61C208.265 1816.71 151.917 1577.33 216.674 1334.3C256.645 1185.9 309.982 1094.28 599.945 530.984C590.596 563.112 699.151 622.661 841.968 663.51C984.785 704.799 1108.02 711.89 1117.31 679.762L1117.44 679.825Z" fill="#6C46FF"/>
</g>
<g opacity="0.5">
<path d="M841.968 663.576C699.214 622.601 590.658 563.052 599.945 530.925C609.232 498.734 732.596 506.264 875.413 547.24C1018.42 588.466 1126.47 647.952 1117.44 679.891C1108.15 712.081 984.973 704.865 842.031 663.576H841.968Z" fill="#6C46FF"/>
</g>
<path d="M771.497 1746.69C708.56 1808.87 614.687 1838.17 527.529 1822.8C440.37 1807.43 362.185 1747.82 324.285 1667.87C267.12 1547.27 301.193 1410.85 339.658 1288.24C362.499 1215.39 385.214 1143.35 423.491 1077.78C458.63 1017.54 468.168 949.648 535.059 912.312C631.065 858.724 760.328 922.665 857.903 872.027C952.152 823.145 969.094 702.981 1036.05 626.427C1075.96 580.871 1135.44 551.065 1195.99 553.826C1256.48 556.587 1315.78 594.801 1336.93 651.589C1346.47 677.065 1344.02 712.77 1318.73 722.81C1286.35 735.673 1256.74 697.396 1238.66 683.591C1207.29 659.621 1162.8 654.099 1126.53 669.661C1057.26 699.404 1053.74 783.049 1041.19 847.178C997.206 1072.51 923.287 1596.97 771.497 1746.81V1746.69Z" fill="#FF925E"/>
<path d="M466.977 1074.08C488.249 1055.69 518.432 974.245 542.214 917.52C631.443 704.8 637.279 699.09 633.2 678.759C620.336 615.257 578.169 712.895 571.078 727.704C522.008 830.863 477.08 935.466 431.838 1040.44C427.822 1049.79 423.743 1060.59 427.948 1069.87C434.222 1083.74 455.494 1083.93 466.915 1074.02L466.977 1074.08Z" fill="white"/>
<path d="M826.467 1760.93C864.242 1718.51 887.459 1665.18 906.033 1611.46C921.093 1567.85 952.718 1580.78 947.949 1619.62C933.329 1738.28 841.088 1841.82 726.759 1876.89C681.391 1890.82 641.232 1850.73 696.074 1831.71C747.529 1813.89 788.065 1803.98 826.467 1760.87V1760.93Z" fill="white"/>
<path d="M594.548 529.354C596.682 522.075 607.474 525.338 605.404 532.491C604.588 535.315 605.278 538.829 607.537 542.845C625.609 575.6 724.941 624.105 843.599 658.178C985.726 699.153 1092.59 702.416 1110.09 681.834C1115.05 676.124 1123.52 683.528 1118.69 689.176C1063.1 754.56 570.892 611.555 594.548 529.417V529.354Z" fill="white"/>
<path d="M1210.5 428.642C1184.77 454.683 1146.55 453.867 1080.35 504.631C1077.97 506.451 1070.13 514.357 1068.87 506.953C1068.68 505.949 1068.81 504.945 1068.87 503.941C1070.69 486.936 1068.93 494.089 1074.08 477.775C1108.47 368.027 1193.24 340.982 1218.84 373.109C1231.52 389.173 1224.99 414.147 1210.5 428.642Z" fill="#FF925E"/>
<path d="M1396.54 462.588C1377.72 471.059 1356.63 470.557 1336.05 471.499C1278.76 474.197 1242.87 488.566 1240.61 488.692C1238.85 488.817 1236.91 486.998 1236.03 485.617C1233.58 481.664 1236.03 479.656 1237.66 477.397C1241.93 471.624 1246.26 465.788 1250.71 460.204C1322.81 369.092 1412.1 374.488 1424.34 413.832C1430.36 433.41 1415.24 454.368 1396.48 462.588H1396.54Z" fill="#FF925E"/>
<path d="M1063.6 2236.32L1054.62 2180.54L1095.41 2141.51L1039.63 2132.85L1015.09 2082.02L989.615 2132.41L933.643 2140L973.739 2179.78L963.637 2235.38L1013.9 2209.53L1063.6 2236.32Z" fill="#70E4B6"/>
<path d="M874.405 155.121L865.431 99.4001L906.218 60.3702L850.434 51.7108L825.899 0.821289L800.423 51.2088L744.451 58.8014L784.548 98.6471L774.445 154.18L824.707 128.39L874.405 155.121Z" fill="#6C46FF"/>
</g>
<defs>
<clipPath id="clip0_4090_623">
<rect width="1425.72" height="2707.94" fill="white" transform="translate(0 0.821289)"/>
</clipPath>
</defs>
</svg>
