<svg width="2534" height="1957" viewBox="0 0 2534 1957" fill="none" xmlns="http://www.w3.org/2000/svg">
<path d="M2192.85 1495.24C2145.52 1488.53 2102.91 1521.6 2096.38 1567.84C2102.97 1521.11 2070.27 1477.9 2023.61 1471.31C2070.39 1477.9 2113.73 1445.14 2120.31 1398.53C2113.79 1444.77 2145.64 1488.53 2192.91 1495.24H2192.85Z" fill="#DFFF46"/>
<path d="M2076.37 1913.21C2066.82 1833.24 2132.88 1744.03 2231.89 1754.12C2284.84 1647.92 2401.13 1623.93 2516.76 1605.43C2535.62 1602.53 2539.91 1630.76 2521.29 1633.72C2420.71 1649.86 2311.55 1669.14 2260.9 1759.92C2329.32 1780.6 2364.8 1841.95 2353.86 1889.58C2345.89 1924.39 2311.92 1948.27 2279.82 1942.22C2237.21 1933.88 2192.96 1867.09 2220.53 1781.93C2146.3 1779.75 2097.52 1848.41 2104.84 1909.82C2107.07 1928.68 2078.6 1932.01 2076.37 1913.21ZM2249 1786.1C2224.21 1855.49 2258.85 1908.86 2285.32 1914.05C2303.33 1917.86 2321.89 1900.7 2325.94 1883.17C2333.62 1849.56 2304.84 1801.21 2249 1786.1Z" fill="#7F59FD"/>
<path d="M2026.93 1212.3C1967.75 1146.18 2001.84 1026.86 2104.66 1018.7C2116.08 950.825 2166.43 897.695 2237.51 887.48C2227.84 806.607 2332.47 724.041 2406.81 692.55C2459.94 669.944 2462.06 731.052 2433.47 729.36C2421.93 728.574 2420.6 712.254 2431.72 709.595C2431.72 709.051 2431.54 708.507 2431.29 708.205C2427.49 705.908 2419.99 708.749 2414.61 711.046C2349.39 738.668 2248.82 815.129 2257.52 885.848C2290.28 885.123 2323.28 894.008 2350.66 912.745C2354.83 915.586 2356.22 921.087 2353.93 925.62C2334.22 964.243 2263.93 967.87 2242.17 907.487C2180.27 915.465 2136.87 959.166 2125.33 1018.82C2179.79 1023.54 2216.6 1062.22 2219.68 1097.28C2221.8 1120.73 2208.14 1143.76 2187.89 1150.77C2149.93 1163.95 2099.16 1120.13 2102.48 1039.37C2017.44 1049.11 1996.04 1147.87 2041.86 1199.01C2050.68 1208.92 2035.75 1222.28 2026.93 1212.42V1212.3ZM2122.85 1038.89C2119.35 1104.71 2157.36 1140.01 2181.36 1131.67C2192.97 1127.68 2201.01 1113.3 2199.74 1098.91C2197.5 1073.59 2168.43 1042.34 2122.85 1038.83V1038.89ZM2263.2 906.157C2278.61 939.099 2314.7 939.038 2330.54 923.746C2310.23 912.262 2286.77 906.399 2263.2 906.157Z" fill="#FB45FF"/>
<path d="M1896.07 709.596C1939.35 603.095 2041.01 525.123 2155.07 510.919C2168.19 509.226 2170.79 529.173 2157.55 530.805C2052.26 543.921 1954.64 618.81 1914.69 717.091C1909.73 729.361 1891.11 721.866 1896.07 709.536V709.596Z" fill="#DFFF46"/>
<path d="M570.066 1448.76C612.166 1431.22 670.918 1453.47 680.71 1508.98C746.74 1521.44 777.739 1581.14 805.649 1641.25C810.1 1651.09 795.438 1657.74 790.935 1648.11C766.638 1595.8 739.305 1539.3 682.019 1525.68C681.286 1566.16 653.324 1594.91 625.728 1596.32C605.516 1597.32 587.293 1582.55 585.618 1564.12C583.575 1539.61 613.161 1505.21 663.796 1507.09C653.533 1466.35 608.605 1450.33 576.297 1463.79C566.348 1467.93 560.169 1452.95 570.066 1448.81V1448.76ZM665.943 1523.22C624.314 1520.45 600.594 1547.52 601.85 1562.76C602.531 1573.18 614.784 1580.61 624.943 1580.14C644.422 1579.15 666.362 1556 665.943 1523.27V1523.22Z" fill="#FFADCD"/>
<path d="M165.612 721.905C119.375 721.905 82.9826 759.345 82.9826 804.535C82.9826 758.874 45.8045 721.905 0.195801 721.905C45.9092 721.905 82.9826 684.675 82.9826 639.119C82.9826 684.308 119.428 721.905 165.612 721.905Z" fill="#92F97B"/>
<path d="M323.749 1860.81C277.512 1860.81 241.12 1898.25 241.12 1943.44C241.12 1897.78 203.942 1860.81 158.333 1860.81C204.046 1860.81 241.12 1823.58 241.12 1778.03C241.12 1823.22 277.565 1860.81 323.749 1860.81Z" fill="#FD9B12"/>
<path d="M836.754 1802.48C804.183 1802.48 778.525 1828.82 778.525 1860.71C778.525 1828.55 752.344 1802.48 720.192 1802.48C752.396 1802.48 778.525 1776.24 778.525 1744.14C778.525 1775.98 804.183 1802.48 836.754 1802.48Z" fill="#FD9B12"/>
<path d="M634.841 822.706C633.584 801.237 605.831 788.46 580.644 785.632C551.059 782.386 517.546 783.119 494.768 760.76C451.83 718.607 491.26 639.381 455.6 605.449C435.283 586.127 400.514 592.201 374.96 600.737C342.076 612.099 309.296 625.347 276.569 615.817C249.445 607.91 228.028 583.875 223.263 556.07C218.446 528.213 230.646 498.471 253.529 481.924C263.845 474.383 275.365 490.145 264.892 497.685C248.136 509.781 238.868 532.402 242.376 552.771C245.884 573.141 262.169 591.363 282.015 597.176C308.773 604.978 339.824 592.306 368.834 582.305C412.767 567.695 447.379 570.837 469.005 591.416C512.677 632.94 473.247 712.428 508.383 746.936C525.977 764.163 555.615 763.378 582.791 766.362C616.985 770.185 652.33 788.722 654.215 821.554C655.001 834.383 635.574 835.482 634.841 822.706Z" fill="#D62B49"/>
<path d="M245.468 970.21C291.391 940.73 365.276 954.606 388.42 1017.91C468.798 1018.75 517.811 1082.58 563.315 1147.51C570.645 1158.14 554.727 1169.14 547.396 1158.67C507.809 1102.17 463.771 1041.32 393.447 1037.29C401.04 1085.1 374.177 1124.84 341.921 1132.28C318.305 1137.72 293.747 1124.11 287.935 1102.74C280.394 1074.31 308.042 1027.6 368.103 1019.17C347.472 973.3 291.181 963.874 255.94 986.495C245.101 993.46 234.681 977.07 245.415 970.158L245.468 970.21ZM373.968 1037.81C324.38 1043.26 302.073 1080.12 306.733 1097.82C309.77 1109.92 325.689 1116.15 337.575 1113.42C360.353 1108.19 381.299 1076.35 373.968 1037.81Z" fill="#FFDB43"/>
<path d="M50.0473 1321.26C159.068 1327.33 260.496 1394.62 308.409 1492.8C313.96 1504.06 296.837 1512.54 291.286 1501.18C247.039 1410.59 149.643 1345.92 48.9477 1340.32C36.3804 1339.64 37.3753 1320.58 49.995 1321.26H50.0473Z" fill="#457CFF"/>
<path d="M1988.53 1418.25C1988.53 1598.12 1922.92 1735.6 1791.56 1830.4C1675.35 1914.63 1523.56 1956.75 1336.04 1956.75C1137.96 1956.75 976.439 1896.84 851.613 1776.88C726.648 1656.92 664.235 1498.32 664.235 1300.93C664.235 1040.57 767.098 837.071 972.825 690.561C1154.23 561.564 1380.11 496.927 1650.33 496.927C1666.18 496.927 1678.83 508.326 1687.86 531.122C1765.29 726.98 1803.93 836.654 1803.93 860.146C1803.93 875.298 1798.1 890.449 1786.28 905.601C1774.46 920.891 1760.98 928.397 1745.83 928.397C1726.09 928.397 1696.2 927.007 1656.45 924.366C1616.56 921.725 1586.39 920.335 1565.96 920.335C1523.42 920.335 1477.83 926.729 1429.32 939.657C1364.82 957.171 1329.09 980.385 1322.28 1009.16C1324.51 1010.69 1328.4 1011.38 1333.68 1011.38C1337.43 1011.38 1344.25 1009.85 1354.25 1006.8C1400.54 994.703 1458.23 988.586 1527.31 988.586C1660.2 988.586 1769.04 1026.26 1854.11 1101.32C1943.77 1180.27 1988.53 1285.78 1988.53 1417.83V1418.25ZM1454.48 1425.06C1454.48 1393.92 1444.05 1367.51 1423.2 1345.97C1402.35 1324.28 1376.36 1313.58 1345.22 1313.58C1314.08 1313.58 1288.09 1324.42 1267.24 1345.97C1246.39 1367.65 1235.96 1393.92 1235.96 1425.06C1235.96 1456.2 1246.53 1481.64 1267.93 1503.6C1289.2 1525.56 1314.92 1536.68 1345.36 1536.68C1375.8 1536.68 1402.49 1525.84 1423.34 1504.15C1444.19 1482.61 1454.61 1456.2 1454.61 1425.06H1454.48Z" fill="#FD9B12"/>
<path d="M1508.71 472.067C1439.32 414.918 1314.96 319.979 1416.87 203.977C1526.05 79.922 1493.84 0.470703 1493.84 0.470703C1493.84 0.470703 1663.43 151.165 1625.33 305.731C1590.64 447.287 1508.71 472.067 1508.71 472.067Z" fill="#FFCA0D"/>
<path d="M1506.69 460.914C1470.76 431.333 1406.18 382.083 1459.15 321.991C1515.83 257.718 1499.1 216.521 1499.1 216.521C1499.1 216.521 1587.07 294.578 1567.25 374.804C1549.28 448.215 1506.85 461.069 1506.85 461.069L1506.69 460.914Z" fill="#FFEEA6"/>
<path d="M1509.78 371.397C1548.04 415.072 1502.66 506.294 1500.65 510.166C1499.25 512.798 1496.62 514.347 1493.83 514.347C1492.59 514.347 1491.51 514.038 1490.42 513.573C1486.71 511.714 1485.16 507.068 1487.02 503.351C1487.48 502.577 1529.76 417.24 1498.17 381.309C1498.17 381.309 1493.68 374.03 1498.01 370.313C1503.9 365.202 1509.63 371.242 1509.63 371.242L1509.78 371.397Z" fill="#231F20"/>
</svg>
