<svg width="566" height="739" viewBox="0 0 566 739" fill="none" xmlns="http://www.w3.org/2000/svg">
    <path style="mix-blend-mode:multiply" opacity="0.77"
        d="M479.225 449.641C526.962 401.904 526.962 324.508 479.225 276.771C431.488 229.034 354.092 229.034 306.355 276.771C258.618 324.508 258.618 401.904 306.355 449.641C354.092 497.378 431.488 497.378 479.225 449.641Z"
        fill="url(#paint0_radial_2397_50333)" />
    <path
        d="M227.304 383.194C225.895 384.457 223.465 386.308 220.012 387.57C216.756 388.759 213.893 388.998 212.066 388.998C212.578 384.616 211.982 381.299 211.292 378.95C210.177 375.242 208.715 373.748 207.11 369.602C205.663 365.826 205.143 362.429 204.926 360.012C207.742 358.941 210.559 357.87 213.339 356.809C212.748 362.508 214.089 366.037 215.449 368.246C217.063 370.818 218.771 371.616 221.72 374.989C224.491 378.134 226.224 381.146 227.291 383.217L227.304 383.194Z"
        fill="url(#paint1_linear_2397_50333)" />
    <path
        d="M221.152 388.344C216.282 390.183 211.522 390.381 211.209 390.387C210.487 390.404 209.907 389.853 209.889 389.131C209.872 388.408 210.424 387.828 211.146 387.811C211.266 387.818 222.387 387.384 227.053 381.277C227.471 380.713 228.306 380.606 228.857 381.048C229.422 381.466 229.528 382.302 229.087 382.852C227.053 385.521 224.078 387.244 221.138 388.367L221.152 388.344Z"
        fill="url(#paint2_linear_2397_50333)" />
    <mask id="mask0_2397_50333" style="mask-type:luminance" maskUnits="userSpaceOnUse" x="52"
        y="109" width="214" height="261">
        <path
            d="M254.449 193.294C230.311 130.074 167.778 95.2056 114.509 115.138C61.5227 135.759 38.094 203.43 62.232 266.65C86.3565 329.894 144.366 372.716 211.327 368.791C263.87 327.07 278.587 256.514 254.462 193.271L254.449 193.294Z"
            fill="white" />
    </mask>
    <g mask="url(#mask0_2397_50333)">
        <path
            d="M254.449 193.292C230.311 130.072 167.778 95.2036 114.509 115.136C61.5227 135.758 38.094 203.428 62.232 266.648C86.3565 329.892 144.366 372.714 211.327 368.789C263.87 327.068 278.587 256.512 254.462 193.269L254.449 193.292Z"
            fill="url(#paint3_radial_2397_50333)" />
        <path style="mix-blend-mode:overlay" opacity="0.5"
            d="M251.925 184.346C268.917 252.924 231.86 321.133 169.125 336.692C106.39 352.252 41.7315 309.252 24.7394 240.673C7.74722 172.095 44.8037 103.886 107.539 88.3267C170.274 72.767 234.933 115.768 251.925 184.346Z"
            fill="url(#paint4_radial_2397_50333)" />
        <g style="mix-blend-mode:overlay">
            <path
                d="M217.668 194.662C226.228 188.57 228.907 186.77 234.517 182.787C222.54 160.366 204.893 141.12 182.825 127.284C177.168 134.089 171.512 140.894 165.855 147.699C165.855 147.699 197.157 165.34 217.658 194.625L217.668 194.662Z"
                fill="url(#paint5_radial_2397_50333)" />
            <path
                d="M239.716 265.805C243.843 264.716 247.948 263.613 252.076 262.523C253.543 235.96 248.079 210.139 236.836 187.305C231.263 191.062 225.715 194.832 220.142 198.588C232.169 218.559 239.108 241.607 239.729 265.782L239.716 265.805Z"
                fill="url(#paint6_radial_2397_50333)" />
        </g>
    </g>
    <path style="mix-blend-mode:multiply" opacity="0.77"
        d="M378.946 301.377C441.966 280.59 476.204 212.651 455.417 149.63C434.63 86.6093 366.691 52.372 303.67 73.1589C240.649 93.9458 206.412 161.885 227.199 224.906C247.985 287.927 315.925 322.164 378.946 301.377Z"
        fill="url(#paint7_radial_2397_50333)" />
    <path
        d="M223.083 383.821C230.484 411.135 240.846 483.736 223.083 555.633C205.32 627.53 202.29 707.181 202.994 738.019"
        stroke="#25687F" stroke-width="3.17193" />
    <path
        d="M263.739 265.095C262.069 264.904 259.384 264.405 256.479 262.867C253.729 261.426 251.887 259.661 250.77 258.448C253.969 256.157 255.832 253.787 256.973 251.928C258.771 248.986 258.866 247.101 260.696 243.581C262.354 240.365 264.262 237.981 265.766 236.397C268.145 237.615 270.553 238.847 272.932 240.064C268.788 243.087 267.25 246.066 266.605 248.306C265.861 250.924 266.361 252.514 265.874 256.506C265.439 260.208 264.487 263.167 263.746 265.117L263.739 265.095Z"
        fill="url(#paint8_linear_2397_50333)" />
    <path
        d="M256.654 264.066C252.519 261.945 249.552 258.87 249.367 258.684C248.923 258.237 248.948 257.488 249.402 257.066C249.849 256.622 250.598 256.647 251.02 257.101C251.094 257.175 258.019 264.308 264.879 263.751C265.503 263.693 266.058 264.177 266.116 264.801C266.173 265.425 265.689 265.98 265.065 266.037C262.081 266.28 259.152 265.343 256.654 264.066Z"
        fill="url(#paint9_linear_2397_50333)" />
    <mask id="mask1_2397_50333" style="mask-type:luminance" maskUnits="userSpaceOnUse" x="225"
        y="21" width="196" height="227">
        <path
            d="M406.059 169.539C433.611 115.715 419.362 53.334 374.284 29.8922C328.906 7.04336 269.973 31.9691 242.436 85.764C214.884 139.589 221.126 203.696 263.763 245.813C322.876 255.753 378.522 223.334 406.074 169.51L406.059 169.539Z"
            fill="white" />
    </mask>
    <g mask="url(#mask1_2397_50333)">
        <path
            d="M406.059 169.547C433.611 115.722 419.362 53.3413 374.284 29.8995C328.906 7.05068 269.973 31.9764 242.436 85.7713C214.884 139.596 221.126 203.703 263.763 245.82C322.876 255.76 378.522 223.342 406.074 169.517L406.059 169.547Z"
            fill="url(#paint10_radial_2397_50333)" />
        <path style="mix-blend-mode:overlay" opacity="0.5"
            d="M410.497 162.535C375.127 214.835 307.67 231.005 259.843 198.633C212.002 166.29 201.893 97.6498 237.27 45.3715C272.641 -6.92913 340.098 -23.0989 387.924 9.2736C435.766 41.6165 445.875 110.257 410.497 162.535Z"
            fill="url(#paint11_radial_2397_50333)" />
        <g style="mix-blend-mode:overlay">
            <path
                d="M383.159 145.985C392.312 148.033 395.131 148.709 401.094 150.079C408.807 128.726 411.062 105.515 407.03 82.5733C399.123 82.8824 391.225 83.2139 383.341 83.5157C383.341 83.5157 390.361 114.839 383.152 145.962L383.159 145.985Z"
                fill="url(#paint12_radial_2397_50333)" />
            <path
                d="M349.095 203.14C352.28 205.228 355.465 207.316 358.643 209.382C377.158 194.476 391.032 175.392 399.471 154.293C393.656 152.85 387.811 151.391 381.997 149.948C375.936 169.866 364.774 188.254 349.088 203.117L349.095 203.14Z"
                fill="url(#paint13_radial_2397_50333)" />
        </g>
    </g>
    <path
        d="M282.434 424.126C280.849 423.776 278.378 423.053 275.744 421.305C273.273 419.674 271.688 417.809 270.756 416.55C274.019 414.685 276.024 412.611 277.283 410.956C279.287 408.322 279.567 406.55 281.618 403.38C283.506 400.489 285.558 398.415 287.119 397.04C289.264 398.438 291.432 399.837 293.576 401.235C289.357 403.706 287.586 406.387 286.77 408.438C285.814 410.839 286.117 412.424 285.278 416.154C284.509 419.65 283.32 422.354 282.411 424.126H282.434Z"
        fill="url(#paint14_linear_2397_50333)" />
    <path
        d="M275.791 422.489C272.061 420.065 269.544 416.871 269.381 416.662C269.008 416.172 269.101 415.496 269.567 415.123C270.057 414.75 270.733 414.843 271.105 415.31C271.175 415.38 277.05 422.839 283.623 422.979C284.229 422.979 284.718 423.492 284.695 424.098C284.695 424.704 284.182 425.193 283.576 425.17C280.709 425.1 278.029 423.934 275.791 422.466V422.489Z"
        fill="url(#paint15_linear_2397_50333)" />
    <mask id="mask2_2397_50333" style="mask-type:luminance" maskUnits="userSpaceOnUse" x="256"
        y="199" width="191" height="212">
        <path
            d="M426.933 347.206C458.332 298.745 450.873 238.115 410.313 211.449C369.428 185.318 311.013 203.267 279.614 251.728C248.193 300.19 247.913 361.705 284.3 405.877C339.474 421.075 395.512 395.691 426.91 347.206H426.933Z"
            fill="white" />
    </mask>
    <g mask="url(#mask2_2397_50333)">
        <path
            d="M426.933 347.213C458.332 298.752 450.873 238.122 410.313 211.456C369.428 185.325 311.013 203.274 279.614 251.735C248.193 300.197 247.913 361.712 284.3 405.884C339.474 421.082 395.512 395.698 426.91 347.213H426.933Z"
            fill="url(#paint16_radial_2397_50333)" />
        <path style="mix-blend-mode:overlay" opacity="0.5"
            d="M431.828 340.984C393.134 387.231 327.493 396.019 285.185 360.635C242.878 325.25 239.964 259.073 278.635 212.826C317.33 166.579 382.971 157.791 425.278 193.176C467.586 228.56 470.499 294.737 431.828 340.984Z"
            fill="url(#paint17_radial_2397_50333)" />
        <g style="mix-blend-mode:overlay">
            <path
                d="M407.447 322.591C415.955 325.434 418.543 326.343 424.091 328.232C433.485 308.698 437.89 286.856 436.305 264.689C428.776 264.222 421.223 263.756 413.694 263.29C413.694 263.29 417.307 293.733 407.447 322.614V322.591Z"
                fill="url(#paint18_radial_2397_50333)" />
            <path
                d="M369.545 373.602C372.365 375.886 375.186 378.171 378.03 380.455C397.074 368.101 412.109 351.318 422.179 332.11C416.794 330.175 411.386 328.241 406.002 326.283C398.309 344.604 385.909 361.015 369.568 373.602H369.545Z"
                fill="url(#paint19_radial_2397_50333)" />
        </g>
    </g>
    <path d="M275.43 420.808C262.742 486.36 158.36 579.066 172.437 712.345" stroke="#25687F"
        stroke-width="3.17193" />
    <mask id="mask3_2397_50333" style="mask-type:luminance" maskUnits="userSpaceOnUse" x="256"
        y="199" width="191" height="212">
        <path
            d="M426.933 347.21C458.332 298.748 450.873 238.119 410.313 211.452C369.428 185.322 311.013 203.27 279.614 251.732C248.193 300.193 247.913 361.708 284.3 405.881C339.474 421.079 395.512 395.694 426.91 347.21H426.933Z"
            fill="white" />
    </mask>
    <g mask="url(#mask3_2397_50333)">
        <g style="mix-blend-mode:overlay" opacity="0.72">
            <path
                d="M487.516 273.822C420.36 262.121 361.479 222.121 325.838 164.009C328.682 159.813 331.526 155.641 334.369 151.445C370.01 209.557 428.891 249.556 496.047 261.258C493.204 265.454 490.36 269.626 487.516 273.822Z"
                fill="#DFFCFF" />
        </g>
        <g style="mix-blend-mode:overlay" opacity="0.72">
            <path
                d="M470.151 299.39C402.995 287.688 344.114 247.688 308.473 189.576C311.316 185.38 314.16 181.208 317.004 177.012C352.645 235.124 411.526 275.124 478.682 286.825C475.838 291.021 472.994 295.194 470.151 299.39Z"
                fill="#DFFCFF" />
        </g>
        <g style="mix-blend-mode:overlay" opacity="0.72">
            <path
                d="M452.785 324.941C385.629 313.24 326.748 273.24 291.107 215.128C293.951 210.932 296.795 206.76 299.639 202.564C335.28 260.676 394.161 300.676 461.317 312.377C458.473 316.573 455.629 320.746 452.785 324.941Z"
                fill="#DFFCFF" />
        </g>
        <g style="mix-blend-mode:overlay" opacity="0.72">
            <path
                d="M435.418 350.493C368.262 338.791 309.381 298.792 273.74 240.68C276.584 236.484 279.428 232.312 282.272 228.116C317.913 286.227 376.794 326.227 443.95 337.929C441.106 342.125 438.262 346.297 435.418 350.493Z"
                fill="#DFFCFF" />
        </g>
        <g style="mix-blend-mode:overlay" opacity="0.72">
            <path
                d="M418.076 376.061C350.92 364.359 292.039 324.359 256.398 266.248C259.242 262.052 262.086 257.879 264.93 253.684C300.571 311.795 359.452 351.795 426.608 363.497C423.764 367.693 420.92 371.865 418.076 376.061Z"
                fill="#DFFCFF" />
        </g>
        <g style="mix-blend-mode:overlay" opacity="0.72">
            <path
                d="M400.709 401.613C333.553 389.911 274.672 349.911 239.031 291.799C241.875 287.604 244.719 283.431 247.563 279.235C283.204 337.347 342.085 377.347 409.241 389.049C406.397 393.244 403.553 397.417 400.709 401.613Z"
                fill="#DFFCFF" />
        </g>
        <g style="mix-blend-mode:overlay" opacity="0.72">
            <path
                d="M383.344 427.18C316.188 415.478 257.307 375.479 221.666 317.367C224.51 313.171 227.354 308.999 230.197 304.803C265.838 362.914 324.719 402.914 391.875 414.616C389.032 418.812 386.188 422.984 383.344 427.18Z"
                fill="#DFFCFF" />
        </g>
    </g>
    <defs>
        <radialGradient id="paint0_radial_2397_50333" cx="0" cy="0" r="1"
            gradientUnits="userSpaceOnUse"
            gradientTransform="translate(392.79 363.216) scale(122.238)">
            <stop stop-color="#7E999E" stop-opacity="0.99" />
            <stop offset="0.13" stop-color="#859FA3" stop-opacity="0.93" />
            <stop offset="0.32" stop-color="#9AAFB3" stop-opacity="0.77" />
            <stop offset="0.57" stop-color="#BBCACC" stop-opacity="0.51" />
            <stop offset="0.85" stop-color="#E9EEEF" stop-opacity="0.16" />
            <stop offset="0.97" stop-color="white" stop-opacity="0" />
        </radialGradient>
        <linearGradient id="paint1_linear_2397_50333" x1="212.449" y1="362.559" x2="221.805"
            y2="392.526" gradientUnits="userSpaceOnUse">
            <stop stop-color="#0B0B0B" />
            <stop offset="0.72" stop-color="#2D7695" />
            <stop offset="0.81" stop-color="#3684A6" />
            <stop offset="1" stop-color="#499FC7" />
        </linearGradient>
        <linearGradient id="paint2_linear_2397_50333" x1="210.233" y1="390.153" x2="229.742"
            y2="382.723" gradientUnits="userSpaceOnUse">
            <stop stop-color="#0B0B0B" />
            <stop offset="0.72" stop-color="#2D7695" />
            <stop offset="0.81" stop-color="#3684A6" />
            <stop offset="1" stop-color="#499FC7" />
        </linearGradient>
        <radialGradient id="paint3_radial_2397_50333" cx="0" cy="0" r="1"
            gradientUnits="userSpaceOnUse"
            gradientTransform="translate(160.791 212.479) rotate(-22.5596) scale(152.678 200.008)">
            <stop stop-color="#499FC7" />
            <stop offset="0.19" stop-color="#3684A6" />
            <stop offset="0.28" stop-color="#2D7695" />
            <stop offset="0.96" stop-color="#1F5E7A" />
            <stop offset="1" stop-color="#2D7695" />
        </radialGradient>
        <radialGradient id="paint4_radial_2397_50333" cx="0" cy="0" r="1"
            gradientUnits="userSpaceOnUse"
            gradientTransform="translate(133.467 210.187) rotate(-13.9196) scale(81.7816 90.3401)">
            <stop stop-color="white" />
            <stop offset="0.1" stop-color="white" stop-opacity="0.93" />
            <stop offset="0.31" stop-color="white" stop-opacity="0.74" />
            <stop offset="0.6" stop-color="white" stop-opacity="0.44" />
            <stop offset="0.97" stop-color="white" stop-opacity="0.04" />
            <stop offset="1" stop-color="white" stop-opacity="0" />
        </radialGradient>
        <radialGradient id="paint5_radial_2397_50333" cx="0" cy="0" r="1"
            gradientUnits="userSpaceOnUse"
            gradientTransform="translate(184.636 97.7578) rotate(-15.3796) scale(191.988 191.987)">
            <stop stop-color="white" />
            <stop offset="0.04" stop-color="white" stop-opacity="0.94" />
            <stop offset="0.19" stop-color="white" stop-opacity="0.69" />
            <stop offset="0.35" stop-color="white" stop-opacity="0.48" />
            <stop offset="0.5" stop-color="white" stop-opacity="0.31" />
            <stop offset="0.64" stop-color="white" stop-opacity="0.17" />
            <stop offset="0.77" stop-color="white" stop-opacity="0.08" />
            <stop offset="0.9" stop-color="white" stop-opacity="0.02" />
            <stop offset="1" stop-color="white" stop-opacity="0" />
        </radialGradient>
        <radialGradient id="paint6_radial_2397_50333" cx="0" cy="0" r="1"
            gradientUnits="userSpaceOnUse"
            gradientTransform="translate(184.639 97.7509) rotate(-15.3796) scale(191.988 191.988)">
            <stop stop-color="white" />
            <stop offset="0.04" stop-color="white" stop-opacity="0.94" />
            <stop offset="0.19" stop-color="white" stop-opacity="0.69" />
            <stop offset="0.35" stop-color="white" stop-opacity="0.48" />
            <stop offset="0.5" stop-color="white" stop-opacity="0.31" />
            <stop offset="0.64" stop-color="white" stop-opacity="0.17" />
            <stop offset="0.77" stop-color="white" stop-opacity="0.08" />
            <stop offset="0.9" stop-color="white" stop-opacity="0.02" />
            <stop offset="1" stop-color="white" stop-opacity="0" />
        </radialGradient>
        <radialGradient id="paint7_radial_2397_50333" cx="0" cy="0" r="1"
            gradientUnits="userSpaceOnUse"
            gradientTransform="translate(341.329 187.284) rotate(54.6653) scale(120.156)">
            <stop stop-color="#7E8D9E" stop-opacity="0.99" />
            <stop offset="0.13" stop-color="#8593A3" stop-opacity="0.93" />
            <stop offset="0.32" stop-color="#9AA5B3" stop-opacity="0.77" />
            <stop offset="0.57" stop-color="#BBC3CC" stop-opacity="0.51" />
            <stop offset="0.85" stop-color="#E9ECEF" stop-opacity="0.16" />
            <stop offset="0.97" stop-color="white" stop-opacity="0" />
        </radialGradient>
        <linearGradient id="paint8_linear_2397_50333" x1="255.914" y1="270.19" x2="262.939"
            y2="245.54" gradientUnits="userSpaceOnUse">
            <stop stop-color="white" />
            <stop offset="0.17" stop-color="#F4F4F4" />
            <stop offset="0.47" stop-color="#D7D7D7" />
            <stop offset="0.5" stop-color="#D4D4D4" />
            <stop offset="0.69" stop-color="#CFCFCF" />
            <stop offset="0.91" stop-color="#C1C1C1" />
            <stop offset="1" stop-color="#BABABA" />
        </linearGradient>
        <linearGradient id="paint9_linear_2397_50333" x1="248.806" y1="257.805" x2="265.41"
            y2="266.321" gradientUnits="userSpaceOnUse">
            <stop stop-color="#D4D4D4" />
            <stop offset="0.38" stop-color="#CFCFCF" />
            <stop offset="0.83" stop-color="#C1C1C1" />
            <stop offset="1" stop-color="#BABABA" />
        </linearGradient>
        <radialGradient id="paint10_radial_2397_50333" cx="0" cy="0" r="1"
            gradientUnits="userSpaceOnUse"
            gradientTransform="translate(320.516 132.169) rotate(117.715) scale(113.349 92.9463)">
            <stop stop-color="white" />
            <stop offset="0.25" stop-color="#F4F4F4" />
            <stop offset="0.7" stop-color="#D7D7D7" />
            <stop offset="0.74" stop-color="#D4D4D4" />
            <stop offset="0.84" stop-color="#CFCFCF" />
            <stop offset="0.95" stop-color="#C1C1C1" />
            <stop offset="1" stop-color="#BABABA" />
        </radialGradient>
        <radialGradient id="paint11_radial_2397_50333" cx="0" cy="0" r="1"
            gradientUnits="userSpaceOnUse"
            gradientTransform="translate(322.758 99.5214) rotate(34.0753) scale(73.0547 80.7)">
            <stop stop-color="white" />
            <stop offset="0.1" stop-color="white" stop-opacity="0.93" />
            <stop offset="0.31" stop-color="white" stop-opacity="0.74" />
            <stop offset="0.6" stop-color="white" stop-opacity="0.44" />
            <stop offset="0.97" stop-color="white" stop-opacity="0.04" />
            <stop offset="1" stop-color="white" stop-opacity="0" />
        </radialGradient>
        <radialGradient id="paint12_radial_2397_50333" cx="0" cy="0" r="1"
            gradientUnits="userSpaceOnUse"
            gradientTransform="translate(426.963 65.28) rotate(32.6153) scale(171.561 171.561)">
            <stop stop-color="white" />
            <stop offset="0.04" stop-color="white" stop-opacity="0.94" />
            <stop offset="0.19" stop-color="white" stop-opacity="0.69" />
            <stop offset="0.35" stop-color="white" stop-opacity="0.48" />
            <stop offset="0.5" stop-color="white" stop-opacity="0.31" />
            <stop offset="0.64" stop-color="white" stop-opacity="0.17" />
            <stop offset="0.77" stop-color="white" stop-opacity="0.08" />
            <stop offset="0.9" stop-color="white" stop-opacity="0.02" />
            <stop offset="1" stop-color="white" stop-opacity="0" />
        </radialGradient>
        <radialGradient id="paint13_radial_2397_50333" cx="0" cy="0" r="1"
            gradientUnits="userSpaceOnUse"
            gradientTransform="translate(426.964 65.2757) rotate(32.6153) scale(171.561 171.561)">
            <stop stop-color="white" />
            <stop offset="0.04" stop-color="white" stop-opacity="0.94" />
            <stop offset="0.19" stop-color="white" stop-opacity="0.69" />
            <stop offset="0.35" stop-color="white" stop-opacity="0.48" />
            <stop offset="0.5" stop-color="white" stop-opacity="0.31" />
            <stop offset="0.64" stop-color="white" stop-opacity="0.17" />
            <stop offset="0.77" stop-color="white" stop-opacity="0.08" />
            <stop offset="0.9" stop-color="white" stop-opacity="0.02" />
            <stop offset="1" stop-color="white" stop-opacity="0" />
        </radialGradient>
        <linearGradient id="paint14_linear_2397_50333" x1="289.038" y1="403.189" x2="273.104"
            y2="424.716" gradientUnits="userSpaceOnUse">
            <stop stop-color="#0B0B0B" />
            <stop offset="0.72" stop-color="#2F7A93" />
            <stop offset="0.81" stop-color="#3888A4" />
            <stop offset="1" stop-color="#4BA4C5" />
        </linearGradient>
        <linearGradient id="paint15_linear_2397_50333" x1="269.043" y1="415.624" x2="283.979"
            y2="425.324" gradientUnits="userSpaceOnUse">
            <stop stop-color="#0B0B0B" />
            <stop offset="0.72" stop-color="#2F7A93" />
            <stop offset="0.81" stop-color="#3888A4" />
            <stop offset="1" stop-color="#4BA4C5" />
        </linearGradient>
        <radialGradient id="paint16_radial_2397_50333" cx="0" cy="0" r="1"
            gradientUnits="userSpaceOnUse"
            gradientTransform="translate(366.067 293.387) rotate(31.28) scale(130.279 170.666)">
            <stop stop-color="#4BA4C5" />
            <stop offset="0.19" stop-color="#3888A4" />
            <stop offset="0.28" stop-color="#2F7A93" />
            <stop offset="0.96" stop-color="#216178" />
            <stop offset="1" stop-color="#2F7A93" />
        </radialGradient>
        <radialGradient id="paint17_radial_2397_50333" cx="0" cy="0" r="1"
            gradientUnits="userSpaceOnUse"
            gradientTransform="translate(353.391 272.121) rotate(39.91) scale(69.7821 77.0849)">
            <stop stop-color="white" />
            <stop offset="0.1" stop-color="white" stop-opacity="0.93" />
            <stop offset="0.31" stop-color="white" stop-opacity="0.74" />
            <stop offset="0.6" stop-color="white" stop-opacity="0.44" />
            <stop offset="0.97" stop-color="white" stop-opacity="0.04" />
            <stop offset="1" stop-color="white" stop-opacity="0" />
        </radialGradient>
        <radialGradient id="paint18_radial_2397_50333" cx="0" cy="0" r="1"
            gradientUnits="userSpaceOnUse"
            gradientTransform="translate(457.219 250.808) rotate(38.46) scale(163.822 163.822)">
            <stop stop-color="white" />
            <stop offset="0.04" stop-color="white" stop-opacity="0.94" />
            <stop offset="0.19" stop-color="white" stop-opacity="0.69" />
            <stop offset="0.35" stop-color="white" stop-opacity="0.48" />
            <stop offset="0.5" stop-color="white" stop-opacity="0.31" />
            <stop offset="0.64" stop-color="white" stop-opacity="0.17" />
            <stop offset="0.77" stop-color="white" stop-opacity="0.08" />
            <stop offset="0.9" stop-color="white" stop-opacity="0.02" />
            <stop offset="1" stop-color="white" stop-opacity="0" />
        </radialGradient>
        <radialGradient id="paint19_radial_2397_50333" cx="0" cy="0" r="1"
            gradientUnits="userSpaceOnUse"
            gradientTransform="translate(457.219 250.817) rotate(38.46) scale(163.823 163.823)">
            <stop stop-color="white" />
            <stop offset="0.04" stop-color="white" stop-opacity="0.94" />
            <stop offset="0.19" stop-color="white" stop-opacity="0.69" />
            <stop offset="0.35" stop-color="white" stop-opacity="0.48" />
            <stop offset="0.5" stop-color="white" stop-opacity="0.31" />
            <stop offset="0.64" stop-color="white" stop-opacity="0.17" />
            <stop offset="0.77" stop-color="white" stop-opacity="0.08" />
            <stop offset="0.9" stop-color="white" stop-opacity="0.02" />
            <stop offset="1" stop-color="white" stop-opacity="0" />
        </radialGradient>
    </defs>
</svg>
