<svg width="624" height="426" viewBox="0 0 624 426" fill="none" xmlns="http://www.w3.org/2000/svg">
    <mask id="mask0_2397_50312" style="mask-type:luminance" maskUnits="userSpaceOnUse" x="92" y="0"
        width="371" height="426">
        <path d="M462.402 425.142H92.7754L99.4598 30.3905L454.439 0L462.402 425.142Z"
            fill="white" />
    </mask>
    <g mask="url(#mask0_2397_50312)">
        <path d="M462.402 425.142H92.7754L99.4598 30.3905L454.439 0L462.402 425.142Z"
            fill="#8F76C9" />
        <path opacity="0.37"
            d="M348.879 351.496C316.458 332.027 284.816 308.061 253.146 284.16C198.521 242.932 139.464 193.165 103.02 96.9872C101.768 93.6867 100.711 90.2657 99.8121 86.8076L92.7754 425.145H462.402L460.474 410.367C423.056 392.474 385.74 373.644 348.888 351.496H348.879Z"
            fill="#5562A6" stroke="#5562A6" stroke-width="1.27013" stroke-miterlimit="10" />
        <path d="M280.096 429.861L265.234 3.07812" stroke="#343444" stroke-width="1.39066"
            stroke-linecap="round" stroke-linejoin="round" />
        <path d="M481.519 161.149L63.8125 200.496" stroke="#343444" stroke-width="1.39066"
            stroke-linecap="round" stroke-linejoin="round" />
        <path
            d="M270.835 181.673C254.88 158.81 226.455 128.253 199.726 117.016C192.949 114.17 184.587 111.908 178.672 115.82C175.696 117.786 173.962 121.021 173.109 124.341C170.078 136.17 177.476 148.872 187.952 156.622C198.428 164.373 211.51 168.202 224.248 171.864C240.945 176.666 264.837 184.194 281.534 177.566C299.64 170.38 315.698 156.381 326.712 141.566C330.559 136.393 333.98 130.738 335.019 124.48C336.057 118.212 334.333 111.203 329.215 106.818C322.558 101.107 311.86 101.33 304.109 105.279C296.358 109.229 290.981 116.126 286.29 123.061C276.602 137.348 274.368 161.425 271.327 178.113"
            stroke="#343444" stroke-width="1.39066" stroke-linecap="round"
            stroke-linejoin="round" />
        <path
            d="M261.35 182.9C252.691 191.838 250.086 204.52 249.446 216.647C248.816 228.773 249.798 241.132 246.915 252.925C241.621 274.572 224.182 291.372 207.43 307.03"
            stroke="#343444" stroke-width="1.39066" stroke-linecap="round"
            stroke-linejoin="round" />
        <path
            d="M337.548 258.488C319.099 255.521 302.828 242.041 297.572 225.371C294.8 216.583 294.902 207.228 291.777 198.532C288.653 189.836 280.643 181.334 270.834 181.686"
            stroke="#343444" stroke-width="1.39066" stroke-linecap="round"
            stroke-linejoin="round" />
    </g>
    <mask id="mask1_2397_50312" style="mask-type:luminance" maskUnits="userSpaceOnUse" x="382"
        y="151" width="242" height="162">
        <path
            d="M623.189 311.756L382.541 312.386L402.9 151.487C402.9 151.487 616.7 155.057 617.664 158.181C618.628 161.305 623.189 311.746 623.189 311.746V311.756Z"
            fill="white" />
    </mask>
    <g mask="url(#mask1_2397_50312)">
        <path
            d="M623.189 311.756L382.541 312.386L402.9 151.487C402.9 151.487 616.7 155.057 617.664 158.181C618.628 161.305 623.189 311.746 623.189 311.746V311.756Z"
            fill="#AFDCF3" />
        <path d="M391.182 240.199L618.47 247.662" stroke="#343444" stroke-width="1.39066"
            stroke-linecap="round" stroke-linejoin="round" />
        <path d="M521.217 151.089L516.795 312.794" stroke="#343444" stroke-width="1.39066"
            stroke-linecap="round" stroke-linejoin="round" />
    </g>
    <path
        d="M190.436 112.069L171.765 111.587L140.994 110.799L122.563 110.317L76.4026 109.13L58.0089 108.657L3.68987 107.248L0 250.245L53.8647 251.635L72.0916 252.108L137.703 253.795L156.134 254.277L198.011 255.353L190.436 112.069Z"
        fill="#FE7879" />
    <mask id="mask2_2397_50312" style="mask-type:luminance" maskUnits="userSpaceOnUse" x="0" y="107"
        width="199" height="149">
        <path
            d="M190.436 112.077L171.765 111.595L140.994 110.807L122.563 110.325L76.4026 109.138L58.0089 108.665L3.68987 107.256L0 250.252L53.8647 251.643L72.0916 252.116L137.703 253.803L156.134 254.285L198.011 255.361L190.436 112.077Z"
            fill="white" />
    </mask>
    <g mask="url(#mask2_2397_50312)">
        <path d="M28.9823 111.077L-5.61719 149.737" stroke="white" stroke-width="1.85421"
            stroke-linecap="round" stroke-linejoin="round" />
        <path d="M57.5746 111.62C55.8038 112.705 -2.24219 180.597 -2.24219 180.597" stroke="white"
            stroke-width="1.85421" stroke-linecap="round" stroke-linejoin="round" />
        <path d="M85.7121 109.81C83.6818 111.988 1.30859 209.279 1.30859 209.279" stroke="white"
            stroke-width="1.85421" stroke-linecap="round" stroke-linejoin="round" />
        <path d="M113.09 107.26C109.798 111.979 -2.24219 251.378 -2.24219 251.378" stroke="white"
            stroke-width="1.85421" stroke-linecap="round" stroke-linejoin="round" />
        <path d="M142.951 109.81L28.1758 254.289" stroke="white" stroke-width="1.85421"
            stroke-linecap="round" stroke-linejoin="round" />
        <path d="M169.707 109.81C168.697 111.265 61.6348 253.928 61.6348 253.928" stroke="white"
            stroke-width="1.85421" stroke-linecap="round" stroke-linejoin="round" />
        <path d="M206.672 109.81C205.662 111.265 98.5996 253.928 98.5996 253.928" stroke="white"
            stroke-width="1.85421" stroke-linecap="round" stroke-linejoin="round" />
        <path d="M243.645 109.81C242.634 111.265 135.572 253.928 135.572 253.928" stroke="white"
            stroke-width="1.85421" stroke-linecap="round" stroke-linejoin="round" />
    </g>
    <path d="M194.506 94.3555V140.674H0V95.6441L194.506 94.3555Z" fill="#FFBC51" />
    <g style="mix-blend-mode:overlay" opacity="0.26">
        <path d="M2.78169 140.588L192.17 140.885V148.607L2.7168 149.432L2.78169 140.588Z"
            fill="#343444" />
    </g>
    <path d="M166.379 101.482H186.757V135.739" stroke="white" stroke-width="1.39066"
        stroke-linecap="round" stroke-linejoin="round" />
    <path d="M104.01 95.2178C104.01 95.2178 99.8755 190.153 94.9062 248.913" stroke="#343444"
        stroke-width="1.39066" stroke-linecap="round" stroke-linejoin="round" />
    <path d="M2.46484 154.589C2.46484 154.589 141.799 155.766 192.938 159.512" stroke="#343444"
        stroke-width="1.39066" stroke-linecap="round" stroke-linejoin="round" />
    <path
        d="M103.585 95.2178C100.451 95.6164 99.6722 99.0004 99.3569 101.633C98.8656 105.805 98.2908 109.894 96.5293 113.76C95.2962 116.458 93.5255 119.109 91.115 120.936C88.5284 122.892 85.2928 123.198 82.1406 122.706"
        stroke="#343444" stroke-width="1.39066" stroke-linecap="round" stroke-linejoin="round" />
    <path
        d="M103.668 95.2256C106.764 95.856 107.293 99.2863 107.413 101.938C107.599 106.128 107.877 110.254 109.351 114.231C110.38 117.013 111.956 119.785 114.228 121.778C116.666 123.91 119.864 124.457 123.044 124.188"
        stroke="#343444" stroke-width="1.39066" stroke-linecap="round" stroke-linejoin="round" />
    <path
        d="M98.6796 87.2279C96.6678 80.868 96.4453 73.9981 97.5764 67.3971C98.0307 64.7549 98.726 62.1126 100.033 59.7671C102.212 55.8547 106.949 56.1977 109.156 59.9896C110.37 62.0756 110.658 64.6436 110.834 67.0078C111.196 72.1439 110.732 77.3357 109.601 82.3606C109.045 84.8452 108.322 87.2928 107.441 89.6847C106.847 91.2979 106.087 94.9229 104.01 95.2103C102.601 95.4049 101.693 94.0977 101.118 93.013C100.126 91.1495 99.3193 89.2026 98.6889 87.2186L98.6796 87.2279Z"
        stroke="#343444" stroke-width="1.39066" stroke-linecap="round" stroke-linejoin="round" />
    <path
        d="M119.651 66.1817C119.902 65.9314 120.17 65.6903 120.449 65.4678C121.635 64.5222 123.072 63.8547 124.583 63.7805C128.347 63.5858 131.518 66.9605 131.88 70.5298C132.334 75.017 131.138 79.189 128.283 82.7212C125.798 85.7992 122.442 88.0892 118.91 89.8043C114.738 91.8254 110.584 93.8928 106.282 95.6543C110.158 94.8292 114.024 93.9948 117.899 93.1697C121.589 92.3816 125.381 91.3248 129.191 91.5102C134.068 91.7512 138.527 94.4491 139.825 99.3535C140.122 100.475 140.242 101.681 139.899 102.793C139.204 105.064 136.812 106.39 134.503 106.965C130.999 107.836 127.272 107.503 123.805 106.52C120.337 105.528 117.083 103.896 113.931 102.135C111.891 100.994 109.889 99.8077 107.951 98.5098C106.097 97.2768 104.641 95.9417 105.837 93.624C107.766 89.897 110.019 86.3462 111.632 82.4616C113.523 77.891 114.756 73.0979 117.491 68.8981C118.122 67.9339 118.817 66.9975 119.642 66.191L119.651 66.1817Z"
        stroke="#343444" stroke-width="1.39066" stroke-linecap="round" stroke-linejoin="round" />
    <path
        d="M89.3713 65.0863C89.1395 64.8174 88.8892 64.5579 88.6296 64.3168C87.5171 63.2877 86.1264 62.5182 84.6338 62.3328C80.8976 61.8693 77.4858 65.0029 76.8647 68.5351C76.0859 72.976 76.9759 77.2221 79.5625 80.9583C81.8247 84.2032 84.9954 86.7342 88.3978 88.6996C92.4122 91.0267 96.408 93.3815 100.561 95.449C96.7603 94.3457 92.9592 93.2332 89.1581 92.1299C85.5331 91.073 81.8339 89.7473 78.0143 89.6546C73.1377 89.5433 68.4929 91.9074 66.8334 96.7005C66.4533 97.7945 66.2493 98.9905 66.5089 100.122C67.0374 102.439 69.3273 103.932 71.5802 104.674C75.0105 105.795 78.7467 105.74 82.2789 104.998C85.8112 104.266 89.1766 102.866 92.4493 101.345C94.5631 100.363 96.6491 99.315 98.6794 98.1654C100.617 97.0714 102.165 95.8383 101.136 93.4464C99.4767 89.5897 97.4927 85.8905 96.167 81.8947C94.6094 77.1943 93.7287 72.327 91.3089 67.9418C90.7527 66.9312 90.1222 65.9485 89.362 65.0863H89.3713Z"
        stroke="#343444" stroke-width="1.39066" stroke-linecap="round" stroke-linejoin="round" />
    <path
        d="M425.932 44.4909L584.967 44.0645L574.602 156.327C574.602 156.327 433.237 153.824 432.542 151.636C431.847 149.458 425.941 44.4816 425.941 44.4816L425.932 44.4909Z"
        fill="#ACC38B" />
    <path d="M508.369 156.835L508.647 44.0254" stroke="#343444" stroke-width="1.39066"
        stroke-linecap="round" stroke-linejoin="round" />
    <path d="M579.154 102.894L426.691 95.8203" stroke="#343444" stroke-width="1.39066"
        stroke-linecap="round" stroke-linejoin="round" />
    <path
        d="M507.729 42.8862C509.963 34.7462 509.954 26.2632 508.841 17.9564C508.341 14.2387 507.451 10.2429 504.104 7.6748C502.769 6.65499 500.729 5.92258 499.144 6.67353C498.476 6.98875 498.013 7.51719 497.614 8.05491C495.037 11.5408 494.666 15.8148 494.925 19.8755C495.482 28.5717 499.162 37.7315 507.71 42.8862"
        stroke="#343444" stroke-width="1.39066" stroke-linecap="round" stroke-linejoin="round" />
    <path
        d="M506.737 46.6387C499.988 39.0086 491.125 30.4885 480.352 27.1138C477.589 26.2516 474.196 25.6212 471.878 27.1324C470.71 27.8926 470.07 29.0793 469.783 30.266C468.754 34.5214 471.925 38.8695 476.254 41.4005C480.584 43.9315 485.896 45.0069 491.069 46.036C497.856 47.3896 507.562 49.5498 514.163 46.8519C521.321 43.9222 527.551 38.6285 531.732 33.14C533.197 31.2209 534.476 29.1535 534.801 26.9099C535.116 24.6663 534.319 22.2187 532.196 20.7725C529.433 18.8904 525.14 19.1871 522.09 20.7539C519.04 22.3207 516.991 24.8702 515.211 27.4291C511.836 32.2871 508.962 41.0111 507.794 46.4903"
        stroke="#343444" stroke-width="1.39066" stroke-linecap="round" stroke-linejoin="round" />
    <ellipse cx="181.666" cy="60" rx="4.88889" ry="4" fill="#FFBC51" />
    <path
        d="M399.378 30.7437C395.535 34.4791 400.626 39.0535 406.024 40.3151C410.66 39.0666 419.633 35.1253 416.672 29.9569C413.653 24.6873 408.961 30.1842 406.819 33.5042C407.49 32.3152 403.172 27.0547 399.378 30.7437Z"
        fill="#FFBC51" />
    <path
        d="M356.773 139.204C354.1 141.803 357.642 144.986 361.398 145.864C364.624 144.995 370.867 142.253 368.806 138.657C366.706 134.991 363.441 138.815 361.951 141.125C362.417 140.298 359.414 136.638 356.773 139.204Z"
        fill="#FFBC51" />
    <path
        d="M214.654 148.994C211.981 151.593 215.523 154.775 219.279 155.653C222.505 154.784 228.747 152.042 226.687 148.446C224.586 144.78 221.322 148.604 219.832 150.914C220.298 150.087 217.294 146.427 214.654 148.994Z"
        fill="#FFBC51" />
    <path
        d="M344.8 225.761C340.275 230.159 346.27 235.546 352.627 237.032C358.086 235.561 368.651 230.92 365.164 224.834C361.609 218.629 356.085 225.102 353.562 229.011C354.352 227.611 349.268 221.417 344.8 225.761Z"
        fill="#FFBC51" />
    <path
        d="M311.904 88.1489C311.57 87.8615 307.268 84.1067 307.268 84.1067L315 79.9162L305.117 81.6035L300.797 73L300.936 82.577C300.936 82.577 291.544 83.8935 292.017 84.218C292.49 84.5424 298.813 87.2125 298.813 87.2125L296.783 93.1738L303.105 88.2045L305.942 95.7419L305.896 88.1489H311.894H311.904Z"
        fill="#FFBC51" />
    <path
        d="M428.884 106.2C428.333 105.725 421.225 99.522 421.225 99.522L434 92.5985L417.672 95.3863L410.534 81.1719L410.764 96.9946C410.764 96.9946 395.247 99.1697 396.029 99.7058C396.81 100.242 407.256 104.653 407.256 104.653L403.902 114.502L414.348 106.292L419.035 118.745L418.958 106.2H428.869H428.884Z"
        fill="#FFBC51" />
    <path
        d="M245.884 59.0284C245.333 58.5536 238.225 52.3501 238.225 52.3501L251 45.4267L234.672 48.2144L227.534 34L227.764 49.8227C227.764 49.8227 212.247 51.9978 213.029 52.5339C213.81 53.07 224.256 57.4813 224.256 57.4813L220.902 67.3304L231.348 59.1203L236.035 71.5732L235.958 59.0284H245.869H245.884Z"
        fill="#FFBC51" />
    <path
        d="M283.884 181.028C283.333 180.554 276.225 174.35 276.225 174.35L289 167.427L272.672 170.214L265.534 156L265.764 171.823C265.764 171.823 250.247 173.998 251.029 174.534C251.81 175.07 262.256 179.481 262.256 179.481L258.902 189.33L269.348 181.12L274.035 193.573L273.958 181.028H283.869H283.884Z"
        fill="#FFBC51" />
    <path
        d="M225.006 221.704C224.704 221.444 220.812 218.048 220.812 218.048L227.807 214.257L218.866 215.783L214.958 208L215.084 216.664C215.084 216.664 206.588 217.855 207.016 218.148C207.443 218.442 213.163 220.857 213.163 220.857L211.327 226.25L217.046 221.755L219.613 228.573L219.571 221.704H224.997H225.006Z"
        fill="#FFBC51" />
    <path
        d="M301.725 245.96C301.725 245.144 301.845 234.538 301.845 234.538L316.123 240.397L302.726 228.484L309.253 212L296.718 223.756C296.718 223.756 284.369 212.093 284.48 213.14C284.582 214.188 288.189 226.352 288.189 226.352L278 230.672L291.721 233.611L284.944 246.711L294.947 237.495L301.734 245.96H301.725Z"
        fill="#FFBC51" />
</svg>
