<svg width="3010" height="2232" viewBox="0 0 3010 2232" fill="none" xmlns="http://www.w3.org/2000/svg">
<path d="M2669.22 1489.72C2621.9 1483.01 2579.28 1516.07 2572.76 1562.31C2579.34 1515.59 2546.64 1472.37 2499.98 1465.78C2546.77 1472.37 2590.1 1439.61 2596.69 1393.01C2590.16 1439.25 2622.02 1483.01 2669.28 1489.72H2669.22Z" fill="#DFFF46"/>
<path d="M2552.75 1907.68C2543.2 1827.72 2609.26 1738.5 2708.27 1748.6C2761.22 1642.4 2877.51 1618.4 2993.14 1599.91C3012 1597.01 3016.29 1625.23 2997.67 1628.19C2897.09 1644.33 2787.93 1663.61 2737.28 1754.4C2805.7 1775.07 2841.18 1836.42 2830.24 1884.05C2822.26 1918.87 2788.29 1942.74 2756.2 1936.7C2713.59 1928.36 2669.34 1861.57 2696.9 1776.4C2622.68 1774.23 2573.9 1842.89 2581.22 1904.3C2583.45 1923.16 2554.98 1926.48 2552.75 1907.68ZM2725.37 1780.57C2700.59 1849.96 2735.23 1903.33 2761.7 1908.53C2779.71 1912.34 2798.27 1895.17 2802.32 1877.64C2809.99 1844.04 2781.22 1795.68 2725.37 1780.57Z" fill="#7F59FD"/>
<path d="M2503.31 1206.78C2444.13 1140.65 2478.22 1021.34 2581.04 1013.18C2592.46 945.301 2642.81 892.171 2713.89 881.956C2704.22 801.083 2808.85 718.517 2883.19 687.026C2936.32 664.42 2938.44 725.528 2909.85 723.836C2898.3 723.05 2896.97 706.731 2908.1 704.071C2908.1 703.527 2907.91 702.983 2907.67 702.681C2903.87 700.384 2896.37 703.225 2890.99 705.522C2825.77 733.144 2725.19 809.605 2733.9 880.324C2766.66 879.599 2799.66 888.484 2827.04 907.221C2831.21 910.062 2832.6 915.563 2830.31 920.096C2810.6 958.719 2740.3 962.346 2718.55 901.963C2656.65 909.941 2613.25 953.642 2601.71 1013.3C2656.17 1018.01 2692.98 1056.7 2696.06 1091.76C2698.18 1115.21 2684.52 1138.24 2664.27 1145.25C2626.31 1158.42 2575.54 1114.6 2578.86 1033.85C2493.82 1043.58 2472.42 1142.35 2518.24 1193.48C2527.06 1203.39 2512.13 1216.75 2503.31 1206.9V1206.78ZM2599.23 1033.37C2595.72 1099.19 2633.74 1134.49 2657.74 1126.15C2669.34 1122.16 2677.38 1107.77 2676.11 1093.39C2673.88 1068.06 2644.8 1036.81 2599.23 1033.31V1033.37ZM2739.58 900.633C2754.99 933.575 2791.08 933.514 2806.91 918.222C2786.6 906.738 2763.15 900.875 2739.58 900.633Z" fill="#FB45FF"/>
<path d="M2372.45 704.072C2415.73 597.571 2517.39 519.599 2631.45 505.395C2644.56 503.702 2647.16 523.649 2633.93 525.281C2528.63 538.397 2431.02 613.286 2391.06 711.567C2386.11 723.837 2367.49 716.342 2372.45 704.012V704.072Z" fill="#DFFF46"/>
<path d="M569.924 1525.6C612.024 1508.06 670.776 1530.31 680.568 1585.82C746.599 1598.28 777.598 1657.97 805.508 1718.09C809.959 1727.93 795.297 1734.58 790.793 1724.95C766.497 1672.63 739.163 1616.13 681.877 1602.52C681.144 1643 653.182 1671.74 625.586 1673.16C605.374 1674.15 587.152 1659.39 585.476 1640.95C583.434 1616.45 613.019 1582.05 663.655 1583.93C653.391 1543.19 608.464 1527.17 576.155 1540.63C566.206 1544.76 560.027 1529.79 569.924 1525.65V1525.6ZM665.802 1600.06C624.173 1597.28 600.452 1624.35 601.709 1639.59C602.389 1650.01 614.642 1657.45 624.801 1656.98C644.28 1655.98 666.221 1632.84 665.802 1600.11V1600.06Z" fill="#FFADCD"/>
<path d="M165.47 798.742C119.233 798.742 82.84 836.182 82.84 881.372C82.84 835.711 45.6619 798.742 0.0532227 798.742C45.7666 798.742 82.84 761.511 82.84 715.955C82.84 761.145 119.285 798.742 165.47 798.742Z" fill="#92F97B"/>
<path d="M323.607 1937.65C277.37 1937.65 240.977 1975.09 240.977 2020.28C240.977 1974.62 203.799 1937.65 158.19 1937.65C203.904 1937.65 240.977 1900.42 240.977 1854.86C240.977 1900.05 277.422 1937.65 323.607 1937.65Z" fill="#FD9B12"/>
<path d="M836.612 1879.31C804.041 1879.31 778.383 1905.65 778.383 1937.54C778.383 1905.39 752.202 1879.31 720.05 1879.31C752.254 1879.31 778.383 1853.08 778.383 1820.98C778.383 1852.82 804.041 1879.31 836.612 1879.31Z" fill="#FD9B12"/>
<path d="M634.699 899.543C633.442 878.073 605.689 865.297 580.502 862.469C550.917 859.223 517.404 859.956 494.626 837.596C451.688 795.444 491.118 716.218 455.458 682.286C435.141 662.964 400.372 669.038 374.818 677.573C341.934 688.936 309.154 702.184 276.427 692.654C249.303 684.747 227.886 660.712 223.121 632.907C218.304 605.05 230.504 575.307 253.387 558.761C263.703 551.22 275.223 566.982 264.75 574.522C247.994 586.618 238.725 609.239 242.234 629.608C245.742 649.978 262.027 668.2 281.873 674.013C308.631 681.815 339.682 669.143 368.692 659.141C412.625 644.532 447.237 647.674 468.863 668.253C512.534 709.777 473.105 789.265 508.241 823.772C525.835 841 555.473 840.215 582.649 843.199C616.843 847.022 652.188 865.559 654.073 898.391C654.859 911.22 635.432 912.319 634.699 899.543Z" fill="#D62B49"/>
<path d="M245.326 1047.05C291.248 1017.57 365.133 1031.44 388.278 1094.75C468.656 1095.59 517.668 1159.42 563.172 1224.35C570.503 1234.98 554.585 1245.98 547.254 1235.5C507.667 1179 463.629 1118.16 393.305 1114.12C400.898 1161.93 374.035 1201.68 341.779 1209.11C318.163 1214.56 293.605 1200.94 287.792 1179.58C280.252 1151.15 307.9 1104.44 367.961 1096.01C347.33 1050.14 291.039 1040.71 255.798 1063.33C244.959 1070.3 234.539 1053.91 245.273 1046.99L245.326 1047.05ZM373.826 1114.65C324.237 1120.09 301.931 1156.96 306.591 1174.66C309.628 1186.75 325.547 1192.98 337.433 1190.26C360.211 1185.02 381.157 1153.19 373.826 1114.65Z" fill="#FFDB43"/>
<path d="M49.9047 1398.09C158.926 1404.17 260.354 1471.46 308.267 1569.64C313.817 1580.9 296.694 1589.38 291.144 1578.02C246.896 1487.43 149.5 1422.76 48.8051 1417.15C36.2379 1416.47 37.2328 1397.41 49.8524 1398.09H49.9047Z" fill="#457CFF"/>
<path d="M2278.47 1665.03C2278.47 1692.44 2275.38 1733.64 2269.22 1788.62C2263.06 1843.61 2269.22 1867.77 2269.22 1895.18C2269.22 1927.13 2259.49 1991.04 2258.68 2053.16C2257.7 2115.12 2257.38 2161.67 2257.38 2192.64C2257.38 2218.27 2241.81 2231.08 2210.83 2231.08C2209.05 2231.08 2166.55 2220.86 2083.19 2200.59C1976.95 2175.78 1816.22 2163.45 1600.99 2163.45C1530.92 2163.45 1426.15 2167.5 1286.82 2175.45C1147.34 2183.4 1042.56 2187.45 972.657 2187.45C932.757 2187.45 912.808 2172.86 912.808 2143.5C912.808 2062.89 890.263 1961.36 845.011 1808.09C839.659 1789.43 837.064 1777.43 837.064 1772.24C837.064 1750.18 874.206 1733.32 948.652 1721.8C995.526 1717.42 1042.56 1697.63 1089.43 1693.09C1145.23 1685.14 1226.33 1617.83 1332.56 1491.16C1438.8 1364.65 1492 1272.04 1492 1213.49C1492 1117.8 1441.55 1069.95 1340.51 1069.95C1247.57 1069.95 1158.04 1092.49 1072.08 1137.75C986.119 1182.84 945.895 1205.54 951.247 1205.54C914.916 1205.54 894.156 1178.94 888.803 1125.74C890.587 1139.04 891.398 1100.12 891.398 1008.8C891.398 962.741 882.316 904.027 864.15 832.663C845.985 761.46 836.902 719.939 836.902 708.424C836.902 695.124 846.633 681.824 866.096 668.524C1011.42 572.831 1227.46 525.146 1514.38 525.146C1688.9 525.146 1836.82 561.478 1958.14 633.977C2104.27 722.534 2177.42 848.72 2177.42 1012.7C2177.42 1150.07 2146.93 1266.04 2085.78 1360.76C2044.1 1425.48 1960.41 1513.06 1834.71 1623.84C2078.32 1613.13 2211.64 1607.94 2234.51 1607.94C2263.71 1607.94 2278.47 1627.08 2278.47 1665.03Z" fill="#FD9512"/>
<path d="M1561.52 471.69C1492.13 414.541 1367.77 319.602 1469.68 203.6C1578.86 79.5451 1546.65 0.09375 1546.65 0.09375C1546.65 0.09375 1716.24 150.788 1678.14 305.354C1643.45 446.91 1561.52 471.69 1561.52 471.69Z" fill="#FFCA0D"/>
<path d="M1559.5 460.538C1523.57 430.957 1458.99 381.706 1511.95 321.615C1568.64 257.341 1551.91 216.145 1551.91 216.145C1551.91 216.145 1639.88 294.202 1620.06 374.427C1602.09 447.838 1559.66 460.693 1559.66 460.693L1559.5 460.538Z" fill="#FFEEA6"/>
<path d="M1562.59 371.021C1600.85 414.696 1555.47 505.918 1553.45 509.79C1552.06 512.423 1549.43 513.971 1546.64 513.971C1545.4 513.971 1544.32 513.662 1543.23 513.197C1539.52 511.338 1537.97 506.692 1539.83 502.975C1540.29 502.201 1582.57 416.864 1550.98 380.933C1550.98 380.933 1546.49 373.654 1550.82 369.937C1556.71 364.826 1562.44 370.866 1562.44 370.866L1562.59 371.021Z" fill="#231F20"/>
</svg>
