<svg width="1502" height="1605" viewBox="0 0 1502 1605" fill="none" xmlns="http://www.w3.org/2000/svg">
<g clip-path="url(#clip0_4604_2772)">
<path d="M1428.47 345.929C1381.39 354.488 1344.4 389.457 1331.67 433.402C1330.87 436.151 1329.37 450.765 1327.53 451.495C1324.64 452.609 1324.26 443.353 1323.87 441.509C1321.2 429.47 1316.74 417.849 1310.69 407.063C1277.91 348.851 1220.4 346.102 1219.11 344.606C1216.92 342.101 1223.84 342.136 1225.44 341.858C1275.65 332.567 1315.18 292.902 1324.64 243.041C1324.85 241.893 1325.23 235.978 1326.48 235.664C1328.57 235.143 1329.2 244.12 1329.55 245.72C1339.85 294.085 1378.64 332.672 1428.33 341.858C1429.82 342.136 1432.99 342.066 1434.07 343.284C1436.54 346.033 1430.83 345.546 1428.54 345.929H1428.47Z" fill="#BD5EFF"/>
<path d="M1498.17 788.031C1474.92 792.276 1456.76 809.534 1450.53 831.072C1450.15 832.429 1449.42 839.631 1448.48 839.979C1447.05 840.536 1446.88 835.978 1446.67 835.073C1441.45 811.483 1422.66 792.38 1397.75 787.961C1397.09 787.857 1395.59 787.927 1395.1 787.37C1394.02 786.152 1397.43 786.152 1398.23 786.013C1423.04 781.42 1442.42 761.831 1447.05 737.37C1447.16 736.813 1447.33 733.891 1447.96 733.751C1450.08 733.229 1447.96 751.079 1466.01 769.138C1482.72 785.839 1499.73 785.456 1500.88 786.709C1502.1 788.066 1499.42 787.787 1498.17 788.031Z" fill="#B5F1F7"/>
<path d="M160.45 788.795C124.681 795.301 96.5669 821.884 86.8593 855.287C86.2678 857.375 85.1195 868.474 83.693 869.031C81.5009 869.901 81.2225 862.838 80.9094 861.446C72.7327 824.564 43.4008 795.44 5.33553 788.69C4.29169 788.516 1.99525 788.621 1.26456 787.786C-0.405576 785.907 4.8832 785.907 6.06622 785.698C44.6534 778.565 74.368 748.085 81.4661 710.576C81.6401 709.707 81.9184 705.218 82.8579 704.974C84.4236 704.592 84.9108 711.411 85.1891 712.629C92.8439 748.572 121.689 778.565 160.276 785.698C161.424 785.907 163.825 785.872 164.625 786.777C166.504 788.864 162.155 788.482 160.415 788.795H160.45Z" fill="#E4D570"/>
<path d="M412.431 246.903C389.431 251.078 371.095 268.197 364.797 289.944C364.414 291.301 363.683 298.503 362.744 298.851C361.317 299.408 361.143 294.85 360.935 293.945C355.611 269.902 336.474 251.183 312.013 246.833C311.352 246.729 309.856 246.799 309.369 246.242C308.29 245.024 311.7 245.024 312.501 244.885C337.309 240.292 356.69 220.668 361.317 196.242C361.422 195.685 361.596 192.763 362.222 192.623C364.031 192.171 362.152 196.868 367.337 208.942C375.096 226.966 391.589 241.057 412.326 244.885C413.057 245.024 414.623 244.989 415.145 245.581C416.362 246.903 413.683 246.659 412.431 246.903Z" fill="#46FF9D"/>
<path d="M477.323 1476.47V1477.31C478.402 1490.29 498.06 1496.76 507.977 1500.34C513.266 1502.26 533.968 1504.62 535.952 1510.36C540.44 1523.34 507.594 1515.65 494.477 1513.49C478.993 1510.95 463.509 1507.96 448.478 1503.47C437.901 1500.31 408.047 1492.72 408.047 1477.31C409.369 1476.61 397.748 1443.52 517.789 1428.18C522.173 1427.62 564.623 1422.16 552.201 1438.51C549.313 1442.34 536.439 1441.82 532.055 1442.86C521.86 1445.3 511.387 1449.19 501.888 1453.65C492.459 1458.07 478.506 1464.47 477.323 1476.47Z" fill="white"/>
<path d="M954.809 1507.69C946.701 1509.11 925.999 1516.7 918.831 1510.85C904.913 1499.44 945.066 1494.22 952.303 1491.78C1009.12 1472.79 1005.71 1453.27 969.074 1439.18C965.351 1437.75 950.494 1435.59 948.58 1432.77C935.88 1413.95 983.932 1425.4 989.325 1426.41C1108.98 1448.47 1079.83 1485.66 954.809 1507.72V1507.69Z" fill="white"/>
<path d="M1140.41 1463.15C1139.85 1467.12 1137.94 1471.08 1134.8 1474.88C1137.14 1471.61 1139.05 1467.78 1140.41 1463.15Z" fill="#FC2BA8"/>
<path d="M1063.22 737.13C1071.08 694.994 1078.25 649.969 1061.62 610.443C1041.34 562.183 990.918 534.417 942.38 514.792C803.828 458.704 650.801 438.836 502.541 457.729C395.2 471.404 368.965 516.95 380.134 623.7C410.684 915.661 510.927 1194.5 615.519 1468.79C630.446 1507.97 765.867 1504.94 807.516 1503.06C879.958 1499.79 885.212 1447.18 904.732 1383.27C968.476 1174.46 1021.82 958.702 1063.22 737.13Z" fill="#FFC2E1"/>
<path d="M1075.72 632.533C1054.56 584.273 1001.99 556.507 951.397 536.882C806.964 480.793 647.431 460.926 492.839 479.819C323.354 500.522 360.167 601.531 381.183 756.332C384.593 781.384 391.447 810.994 415.177 819.762C439.847 828.879 465.282 808.767 481.879 788.378C498.476 767.988 515.908 743.701 542.038 740.779C562.706 738.482 582.435 751.043 596.214 766.631C609.992 782.219 619.665 801.043 632.678 817.257C648.475 836.881 675.893 853.27 697.883 840.952C721.822 827.522 721.231 790.431 742.977 773.66C755.086 764.335 772.448 763.5 786.575 769.415C826.415 786.116 828.989 837.542 826.484 874.633C824.744 900.242 821.021 926.06 825.232 951.39C829.477 976.686 843.499 1002.16 867.229 1011.93C911.453 1030.2 914.515 977.869 928.954 951.982C939.88 932.427 964.619 916.909 984.312 927.521C995.273 933.436 1002.54 946.31 1014.83 948.189C1024.29 949.651 1033.65 943.631 1038.94 935.663C1044.23 927.695 1046.35 918.092 1048.33 908.732C1058.67 860.159 1073.98 810.124 1079.37 760.786C1084.1 717.536 1093.43 672.999 1075.68 632.533H1075.72Z" fill="#FC2BA8"/>
<path d="M1076.55 592.761C1055.4 544.501 1002.82 516.735 952.233 497.111C807.8 441.022 648.267 421.154 493.675 440.048C324.19 460.75 361.003 561.759 382.019 716.56C385.429 741.612 392.283 771.223 416.013 779.991C440.683 789.107 466.117 768.996 482.715 748.606C499.312 728.216 516.744 703.93 542.874 701.007C563.542 698.711 583.271 711.272 597.05 726.859C610.828 742.447 620.466 761.271 633.514 777.486C649.311 797.11 676.729 813.498 698.719 801.181C722.658 787.75 722.066 750.659 743.813 733.888C755.922 724.563 773.284 723.728 787.411 729.643C864.272 761.898 820.118 883.714 854.425 942.308C861.21 953.894 871.474 964.472 884.662 967.047C916.533 973.275 919.039 931.452 929.79 912.21C940.716 892.656 965.455 877.137 985.148 887.75C996.109 893.665 1003.38 906.539 1015.66 908.418C1025.13 909.879 1034.49 903.86 1039.78 895.892C1045.1 887.924 1047.19 878.32 1049.17 868.961C1059.5 820.387 1074.81 770.353 1080.21 721.014C1084.94 677.764 1094.26 633.227 1076.52 592.761H1076.55Z" fill="#FC2BA8"/>
<path d="M751.749 535.943C748.374 541.267 741.763 545.094 735.743 543.215C727.254 540.606 725.305 529.645 724.888 520.773C722.904 479.506 720.921 438.24 718.938 396.974C718.242 382.29 717.963 366.18 727.08 354.663C734.734 344.99 751.958 340.293 763.266 346.243C781.464 355.812 774.574 370.008 772.452 388.275C756.516 527.453 756.133 529.089 751.749 535.943Z" fill="black"/>
<path d="M857.976 358.073C890.231 321.4 903.94 267.712 888.108 221.539C857.35 131.839 733.829 96.4526 719.598 0.00195312C680.593 43.7388 643.12 90.0156 619.529 143.669C560.935 277.106 619.529 392.102 717.998 414.023C767.023 424.914 826.104 394.329 857.976 358.073Z" fill="#FC2BA8"/>
<path d="M797.259 389.492C812.116 372.617 818.414 347.912 811.142 326.653C796.981 285.352 740.126 269.068 733.585 224.67C715.631 244.816 698.373 266.11 687.517 290.814C660.551 352.227 687.517 405.184 732.819 415.24C755.366 420.25 782.576 406.159 797.259 389.492Z" fill="#FF45FE"/>
<path d="M402.446 502.678C399.489 499.755 403.908 495.301 406.865 498.224C578.507 667.326 834.63 721.223 1060.17 635.036C1064 633.54 1066.29 639.386 1062.4 640.882C838.318 726.511 578.368 675.955 402.446 502.678Z" fill="white"/>
<path d="M398.098 721.364C406.379 749.165 432.858 759.881 456.831 740.536C462.92 735.63 476.734 725.609 470.297 716.736C460.172 702.818 441.243 724.147 430.631 723.626C424.055 723.312 418.488 718.232 415.634 712.283C412.816 706.367 411.598 674.287 398.202 681.35C390.165 685.595 396.289 715.24 398.098 721.399V721.364Z" fill="white"/>
<path d="M876.589 933.403C886.679 945.616 902.267 945.372 910.2 930.549C912.219 926.792 917.055 918.824 911.905 915.727C903.868 910.89 898.857 925.609 893.429 927.627C890.054 928.879 886.157 927.488 883.478 925.121C880.799 922.755 873.388 906.854 868.134 913.257C864.967 917.084 874.362 930.723 876.589 933.403Z" fill="white"/>
<path d="M1026.7 892.725C1033.59 889.107 1036.82 881.139 1039.02 873.693C1039.88 870.665 1040.72 867.464 1039.99 864.402C1038.35 857.548 1030.53 856.469 1027.6 864.402C1026.63 867.047 1026.35 869.9 1025.2 872.44C1022.45 878.599 1014.31 881.661 1008.19 878.842C1005.13 877.45 998.514 870.7 994.756 873.449C991.66 875.711 994.687 880.373 996.322 882.67C1002.55 891.507 1016.4 898.118 1026.7 892.69V892.725Z" fill="white"/>
<path d="M685.532 787.055C707.174 787.264 717.23 765.065 708.218 758.802C704.147 755.949 698.44 758.489 694.752 761.829C691.064 765.169 687.863 769.518 683.061 770.841C677.529 772.372 671.649 769.345 667.717 765.169C663.437 760.611 637.411 727.034 642.63 752.678C646.179 770.075 668.448 786.881 685.532 787.055Z" fill="white"/>
<path d="M621.476 199.202C633.968 147.254 659.542 98.8892 695.345 59.2582C698.164 56.1963 702.756 60.4064 700.008 63.4683C664.865 102.334 639.813 149.759 627.565 200.698C626.591 204.7 620.502 203.273 621.476 199.237V199.202Z" fill="white"/>
<path d="M220.122 1241.86C198.166 1233.54 180.073 1215.48 171.757 1193.53C170.261 1189.66 176.141 1187.44 177.603 1191.3C185.327 1211.62 202.029 1228.32 222.349 1236.01C226.176 1237.47 224.054 1243.32 220.122 1241.86Z" fill="white"/>
<path d="M88.0797 1272.96C84.8091 1270.46 88.5669 1265.48 91.8724 1267.95C106.138 1278.77 125.623 1282.11 142.707 1276.69C146.778 1275.5 148.483 1281.42 144.621 1282.67C125.727 1288.69 104.016 1285.04 88.0797 1272.96Z" fill="white"/>
<path d="M80.3886 1399.54C93.8889 1378.18 120.611 1365.93 145.733 1369.86C149.804 1370.49 148.899 1376.68 144.759 1376.06C122.281 1372.51 97.8903 1383.57 85.7122 1402.88C83.4854 1406.4 78.1966 1403.06 80.3886 1399.54Z" fill="white"/>
<path d="M207.039 1439.42C203.037 1411.72 214.798 1382.81 236.997 1365.76C240.302 1363.25 244.095 1368.23 240.824 1370.73C220.713 1386.18 209.648 1413.43 213.267 1438.55C213.893 1442.65 207.665 1443.52 207.074 1439.45L207.039 1439.42Z" fill="white"/>
</g>
<defs>
<clipPath id="clip0_4604_2772">
<rect width="1500.24" height="1604.1" fill="white" transform="translate(0.949219)"/>
</clipPath>
</defs>
</svg>
