<svg width="1786" height="1532" viewBox="0 0 1786 1532" fill="none" xmlns="http://www.w3.org/2000/svg">
<g clip-path="url(#clip0_4630_211)">
<path d="M708.085 1525.46C733.343 1495.7 723.426 1449.53 715.252 1424.69C703.978 1390.37 686.468 1355.39 688.56 1318.24C690.613 1281.59 711.533 1243.51 695.494 1212.25C681.858 1185.63 644.823 1174.55 630.411 1145.77C617.666 1120.32 626.731 1090.68 625.918 1063.64C624.91 1030.21 607.981 995.767 578.229 966.635C551.344 940.331 518.027 921.309 485.835 902.869C481.845 900.584 485.254 894.54 489.283 896.787C521.901 915.421 555.605 934.675 583.11 961.599C614.18 992.01 631.845 1028.15 632.891 1063.37C633.704 1090.6 624.988 1119.31 636.649 1142.59C649.859 1168.93 687.204 1180.75 701.693 1208.99C719.164 1243.08 697.548 1282.17 695.494 1318.55C693.519 1353.99 710.642 1388.32 721.837 1422.41C730.438 1448.67 740.82 1497.52 713.353 1529.87C710.37 1533.4 705.063 1528.87 708.046 1525.38L708.085 1525.46Z" fill="black"/>
<path d="M766.233 1489.47H766.156C764.219 1489.43 762.708 1487.84 762.747 1485.9C764.955 1390.22 791.569 1295.92 839.723 1213.21L844.217 1205.58C879.082 1146.58 878.269 1128.88 852.972 1074.56C827.171 1019.21 824.033 997.163 863.78 922.085C868.003 914.143 872.187 906.24 875.983 898.338C894.888 859.094 899.963 808.887 868.661 785.179C864.981 782.389 869.204 776.85 872.884 779.6C907.324 805.711 902.442 859.559 882.298 901.359C878.424 909.34 874.201 917.359 869.979 925.339C831.045 998.867 834.648 1018.7 859.325 1071.62C885.668 1128.14 886.172 1148.33 850.26 1209.15C847.974 1214.49 773.478 1324.51 769.759 1486.1C769.72 1488 768.17 1489.51 766.272 1489.51L766.233 1489.47Z" fill="black"/>
<path d="M897.446 1519.95C889.93 1511.97 925.648 1509.49 925.261 1427.72C925.106 1395.37 921.038 1361.47 931.382 1330.13C939.749 1304.72 956.795 1283.45 968.417 1260.24C987.864 1221.39 992.784 1176.14 1005.22 1133.99C1042.45 1007.78 1147.67 909.958 1232.2 831.394C1235.57 828.256 1240.33 833.37 1236.96 836.508C1153.05 914.491 1048.61 1011.57 1011.92 1135.97C999.525 1178 994.644 1223.52 974.693 1263.34C962.993 1286.66 946.064 1307.97 938.045 1332.3C928.166 1362.24 932.118 1395.56 932.273 1427.68C932.466 1470.83 922.704 1501.05 902.404 1520.11C901.048 1521.43 898.802 1521.39 897.484 1519.95H897.446Z" fill="black"/>
<path d="M421.142 1196.98L392.862 1180.59L390.383 1148.01L366.054 1169.82L334.288 1162.15L347.498 1192.02L330.375 1219.84L362.878 1216.5L384.068 1241.38L390.925 1209.45L421.142 1196.98Z" fill="#70C8E4"/>
<path d="M727.497 835.847L713.357 827.635L712.117 811.325L699.953 822.25L684.069 818.415L690.655 833.329L682.094 847.276L698.364 845.571L708.94 858.045L712.388 842.046L727.497 835.847Z" fill="#FA45FF"/>
<path d="M480.564 141.825L452.284 125.399L449.805 92.8193L425.476 114.63L393.71 106.959L406.92 136.828L389.797 164.682L422.3 161.311L443.49 186.221L450.347 154.261L480.564 141.825Z" fill="#FD59AB"/>
<path d="M264.864 1343.61C269.241 1332.11 257.735 1318.97 245.261 1311.57C230.579 1302.94 212.952 1295.5 206.289 1278.49C193.737 1246.45 232.865 1214.34 222.211 1188.3C216.129 1173.47 196.565 1168.51 181.224 1166.96C161.157 1165.18 141.168 1164.4 126.369 1151.81C99.0961 1128.57 110.641 1083.78 145.7 1076.58C152.828 1075.07 155.191 1085.95 147.947 1087.46C121.991 1092.81 113.391 1126.13 133.575 1143.37C144.344 1152.55 160.111 1153.94 175.413 1155.3C178.203 1156.03 220.855 1155.69 232.477 1184.12C245.532 1216 206.367 1248.23 216.633 1274.46C221.785 1287.56 237.436 1294.06 250.917 1302.04C267.847 1312.04 281.948 1329.98 275.285 1347.56C272.689 1354.46 262.307 1350.47 264.902 1343.61H264.864Z" fill="#7BEEF9"/>
<path d="M134.93 115.406C172.624 107.541 217.872 135.318 217.174 182.929C269.977 203.771 286.209 258.2 299.806 312.513C301.976 321.385 288.688 324.6 286.518 315.845C274.664 268.582 260.989 217.369 215.586 196.991C208.535 230.424 180.798 249.871 157.67 246.656C140.741 244.293 127.957 229.107 129.506 213.533C131.714 192.885 161.738 169.021 203.46 178.668C201.446 143.221 166.696 122.805 137.719 128.848C134 129.623 130.358 127.221 129.622 123.541C128.848 119.822 131.25 116.219 134.93 115.406ZM202.647 192.42C168.556 183.471 144.537 202.183 143.181 215.005C142.097 223.761 151.046 231.896 159.607 233.097C175.955 235.383 197.804 219.654 202.686 192.42H202.647Z" fill="#FA45FF"/>
<path d="M1704.43 206.559L1676.19 190.172L1673.67 157.592L1649.34 179.402L1617.58 171.732L1630.83 201.6L1613.7 229.415L1646.21 226.084L1667.36 250.955L1674.25 219.033L1704.43 206.559Z" fill="#7BEEF9"/>
<path d="M1369.53 277.919C1336.71 250.259 1345.27 190.987 1393.58 180.179C1394.44 146.979 1414.93 118.195 1448.21 108.549C1438.13 70.5843 1482.53 24.0578 1515.92 3.99062C1539.79 -10.4206 1544.9 18.6342 1531.15 19.7577C1525.57 20.1838 1523.87 12.4359 1528.98 10.4214C1528.9 10.1502 1528.82 9.9178 1528.71 9.80158C1520.22 6.23752 1446.35 64.2309 1457.7 106.38C1473.31 103.823 1489.66 105.837 1503.99 112.927C1506.2 114.012 1507.21 116.53 1506.43 118.854C1499.61 138.65 1466.26 145.081 1451.81 117.731C1422.79 125.711 1405.01 149.497 1403.5 178.823C1429.84 177.39 1450.03 193.389 1453.86 209.931C1456.46 221.011 1451.46 232.904 1442.28 237.63C1425.04 246.502 1397.84 228.991 1393.97 190.174C1353.99 200.556 1350.47 249.175 1375.76 270.52C1380.64 274.665 1374.41 282.065 1369.53 277.919ZM1403.66 188.624C1406.41 220.313 1426.98 234.608 1437.86 228.991C1443.13 226.279 1446 218.88 1444.41 212.101C1441.62 200.169 1425.62 187.191 1403.66 188.586V188.624ZM1461.73 115.755C1471.26 130.398 1488.5 128.074 1495.08 119.629C1484.62 115.522 1473 114.321 1461.73 115.755Z" fill="#FA45FF"/>
<path d="M1492.6 1295.61C1459.79 1267.95 1468.35 1208.68 1516.66 1197.87C1517.51 1164.67 1538.01 1135.89 1571.28 1126.24C1561.25 1088.47 1605.14 1042.06 1639 1021.68C1643.57 1018.93 1649.58 1016.1 1655.62 1018.66C1664.07 1022.23 1663.87 1036.68 1654.19 1037.49C1648.61 1037.92 1646.9 1030.17 1652.02 1028.15C1651.94 1027.88 1651.86 1027.65 1651.75 1027.53C1643.84 1024.2 1569.23 1081.34 1580.74 1124.11C1596.35 1121.55 1612.7 1123.57 1627.03 1130.66C1629.24 1131.74 1630.25 1134.26 1629.47 1136.59C1622.65 1156.38 1589.34 1162.85 1574.85 1135.46C1545.83 1143.44 1528.05 1167.23 1526.58 1196.55C1537.97 1195.93 1549.47 1198.57 1559.28 1204.77C1583.84 1220.34 1581.63 1247.03 1565.4 1255.36C1548.16 1264.23 1520.96 1246.72 1517.09 1207.91C1477.11 1218.29 1473.58 1266.91 1498.88 1288.25C1503.76 1292.4 1497.52 1299.8 1492.64 1295.65L1492.6 1295.61ZM1526.73 1206.32C1529.48 1238.01 1550.06 1252.3 1560.94 1246.68C1566.21 1243.97 1569.08 1236.57 1567.49 1229.79C1564.7 1217.86 1548.7 1204.88 1526.73 1206.28V1206.32ZM1584.8 1133.45C1594.33 1148.09 1611.57 1145.77 1618.16 1137.32C1607.7 1133.21 1596.08 1132.01 1584.8 1133.45Z" fill="#FA45FF"/>
<path d="M1589.49 1515C1606.23 1448.13 1660.08 1393.31 1726.59 1375.3C1734.23 1373.21 1737.44 1384.83 1729.73 1386.92C1668.29 1403.54 1616.61 1456.19 1601.15 1517.9C1599.22 1525.61 1587.56 1522.7 1589.49 1514.96V1515Z" fill="#70C8E4"/>
<path d="M1083.17 1211.55C1080.42 1142.67 1116.6 1074.91 1175.37 1038.88C1182.11 1034.7 1188.46 1044.97 1181.64 1049.15C1127.37 1082.39 1092.62 1147.47 1095.18 1211.04C1095.49 1218.98 1083.48 1219.49 1083.17 1211.51V1211.55Z" fill="#70C8E4"/>
<path d="M1182.33 806.64C1177.3 806.02 1171.99 805.555 1167.26 807.376C1162.54 809.197 1158.59 814.078 1159.48 819.114C1160.41 824.189 1165.6 827.211 1170.36 829.148C1186.6 835.695 1204.65 837.67 1221.89 834.688C1202.52 844.682 1186.13 860.372 1175.28 879.277C1173.31 882.686 1171.53 886.792 1173.08 890.434C1174.55 893.843 1178.65 895.47 1182.33 895.122C1186.01 894.773 1189.35 892.836 1192.45 890.783C1201.48 884.791 1212.58 873.092 1225.72 855.684C1216.43 870.096 1211.74 887.451 1212.55 904.613C1213.48 924.215 1230.33 929.677 1236.69 907.906C1240.56 894.54 1242.57 880.594 1242.65 866.648C1242.42 873.853 1242.19 881.175 1244.09 888.11C1245.98 895.044 1250.44 901.669 1257.1 904.419C1263.77 907.17 1272.6 904.845 1275.7 898.376C1278.1 893.378 1276.7 887.451 1275.19 882.105C1257.8 821.593 1261.32 816.48 1182.37 806.64H1182.33Z" fill="#53BCDD"/>
<path d="M442.136 941.027C439.735 945.521 437.41 950.286 437.41 955.361C437.41 960.436 440.548 965.898 445.546 966.828C450.62 967.797 455.308 964.039 458.833 960.281C470.804 947.497 479.094 931.381 482.542 914.22C484.905 935.875 493.66 956.833 507.413 973.763C509.892 976.823 513.069 980 517.02 979.845C520.739 979.69 523.722 976.436 524.73 972.872C525.737 969.307 525.117 965.511 524.342 961.869C520.856 945.986 513.689 930.916 503.578 918.21C513.689 932.079 528.216 942.655 544.487 948.078C563.082 954.238 574.278 940.485 556.225 926.771C545.145 918.326 532.865 911.43 519.887 906.394C526.512 909.222 533.252 912.05 540.419 912.747C547.586 913.445 555.334 911.701 560.293 906.472C565.251 901.242 566.297 892.138 561.339 886.908C557.503 882.879 551.499 882.027 545.959 881.523C483.239 875.983 479.753 870.87 442.175 941.027H442.136Z" fill="#9032EA"/>
<path d="M615.768 741.594C586.519 799.394 548.903 846.618 502.416 888.186C492.227 897.212 478.513 901.628 464.993 899.536C312.668 874.975 91.038 788.934 21.9263 650.44C-11.8935 582.878 -8.52319 492.304 45.9837 439.967C82.3215 405.178 135.279 392.007 185.447 394.409C235.692 396.655 284.156 412.849 331.496 429.662C331.186 356.637 388.327 294.46 459.259 277.027C529.65 259.788 607.013 281.405 654.004 337.771C740.859 442.059 676.822 621.191 615.768 741.594Z" fill="#B85EFF"/>
<path d="M1774.63 775.568L1517.67 817.756C1513.33 818.453 1509.57 821.242 1507.6 825.31L1396.72 1061.04C1391.96 1070.96 1377.74 1071.23 1372.7 1061.47C1360.7 1038.18 1416.64 1146.58 1253.15 829.92C1251.06 826.007 1247.42 823.373 1242.97 822.792L984.494 789.979C973.608 788.585 968.998 775.181 976.668 767.355C1227.74 513.61 1141.16 601.123 1159.87 582.179C1162.93 578.964 1164.32 574.509 1163.51 570.17L1114.93 314.332C1112.84 303.292 1124.15 294.769 1134.07 299.805L1366.7 416.838C1370.61 418.775 1375.34 418.659 1379.25 416.683C1402.61 403.86 1294.68 463.132 1607.58 291.282C1617.23 285.975 1628.81 294.072 1627.26 304.957L1587.75 562.461C1587.21 566.799 1588.72 571.255 1591.93 574.199C1847.93 814.928 1764.6 736.557 1781.72 752.673C1789.82 760.227 1785.63 773.747 1774.59 775.568H1774.63Z" fill="#70C8E4"/>
<path d="M1305.14 386.466C1304.4 593.104 1136 760.266 929.016 759.53C722.106 758.794 555.216 590.199 555.952 383.755C556.881 132.798 799.315 -44.9396 1036.09 25.4892C1036.09 25.4892 1036.44 25.4892 1036.44 25.8379C1192.17 71.3959 1305.76 215.818 1305.14 386.466Z" fill="#FC2BAF"/>
<path d="M828.834 795.171C820.195 815.896 825.618 824.342 844.252 827.789C855.951 829.959 867.728 831.702 879.583 832.981C888.493 833.949 898.333 834.414 905.422 828.913C911.233 824.38 913.751 816.632 913.674 809.272C913.596 801.911 911.272 794.783 908.909 787.81C904.221 773.903 888.996 707.735 872.958 710.292C855.641 713.042 835.032 780.333 828.834 795.209V795.171Z" fill="#FC2BAF"/>
<path d="M1379 516L1406.17 599.609H1494.08L1422.96 651.282L1450.12 734.891L1379 683.218L1307.88 734.891L1335.04 651.282L1263.92 599.609H1351.83L1379 516Z" fill="#47A5C3"/>
<path d="M312.773 559.233C292.114 634.981 391.47 719.422 459.116 698.607C459.116 655.798 472.278 614.592 470.658 571.646C469.842 550.024 463.596 524.009 439.516 516.985C405.862 507.169 395.483 573.444 395.091 593.859C394.869 605.4 398.039 605.937 391.606 598.432C383.586 589.075 372.907 581.258 364.167 572.517C351.242 559.592 321.747 526.327 312.773 559.233Z" fill="#983FDD"/>
<circle cx="930.5" cy="385.5" r="124.5" fill="#FB50BC"/>
</g>
<defs>
<clipPath id="clip0_4630_211">
<rect width="1785.98" height="1531.23" fill="white"/>
</clipPath>
</defs>
</svg>
