<svg width="2225" height="1553" viewBox="0 0 2225 1553" fill="none" xmlns="http://www.w3.org/2000/svg">
<path d="M1302.72 555.788C1296.45 619.632 1217.2 1424.19 1223.42 1361.31C1222.98 1365.46 1220.02 1393.42 1220.21 1391.64C1219.43 1414.55 1075.56 1420.62 1052.38 1397.62C1050.97 1396.56 1049.9 1395.16 1049.9 1393.38C1049.66 1391.35 988.873 891.547 989.115 893.379H988.775C986.686 878.72 949.903 573.485 948.251 559.935C962.099 573.678 980.223 578.644 1027.89 588.53C1031.44 589.253 1034.98 590.314 1038.92 590.989C1101.6 601.935 1259.08 601.935 1302.72 555.691V555.788Z" fill="#A9D5FF"/>
<path d="M948.057 557.861L948.252 559.983C953.305 581.489 1031 598.029 1125.95 596.92C1220.89 595.811 1298.2 577.487 1302.72 555.884L1302.86 553.762C1302.57 530.954 1223.03 513.547 1124.97 514.656C1026.97 515.813 947.814 535.053 948.057 557.861Z" fill="#FFE4C2"/>
<path d="M1191.5 477.623C1176.63 487.46 1155.49 494.596 1133.58 494.162C1099.32 493.487 1073.76 475.646 1055.98 458.093C944.123 347.91 974.2 210.289 1099.17 122.238C1126.05 103.336 1136.59 110.472 1157.97 128.458C1225.7 185.455 1261.18 255.809 1260.49 326.211C1259.86 394.491 1222.84 456.888 1191.45 477.623H1191.5Z" fill="#FDBC59"/>
<path d="M1194.9 461.278C1167.35 503.567 1119.68 503.471 1086.64 470.922C1014.82 400.182 1033.48 311.505 1114.48 254.46C1131.78 242.26 1138.58 246.89 1152.38 258.462C1217.49 313.289 1240.04 391.937 1194.9 461.278Z" fill="#FF5245"/>
<path d="M1119 553.859C1130.81 531.485 1133.82 512.438 1128.18 495.561C1126.39 490.16 1134.65 487.315 1136.49 492.812C1142.81 511.763 1139.55 533.655 1126.78 557.862C1124.05 562.925 1116.33 558.922 1119 553.811V553.859Z" fill="black"/>
<path d="M1156.03 453.368C1188.29 413.972 1181.97 355.77 1141.84 324.186C1137.27 320.617 1142.76 313.818 1147.28 317.387C1191.2 351.961 1198.2 415.66 1162.83 458.817C1159.18 463.302 1152.38 457.756 1156.03 453.32V453.368Z" fill="white"/>
<path d="M1287.07 711.395C1286.93 713.131 1272.3 866.424 1273.22 856.78C1171.18 864.543 1067.01 843.375 976.677 795.395C976.483 793.659 955.443 618.764 956.755 629.903C1054.57 696.013 1175.7 723.065 1287.07 711.395Z" fill="#469CFF"/>
<path d="M1262.92 961.564C1262.73 963.348 1248.15 1109.02 1248.35 1107.29C1168.37 1114.33 1086.59 1103.04 1011.18 1074.5C1010.93 1072.71 991.79 915.755 991.984 917.491C1075.9 956.646 1170.8 972.173 1262.92 961.613V961.564Z" fill="#469CFF"/>
<path d="M1236.93 1223.02C1235.52 1237.19 1222.54 1369.8 1222.69 1368.01C1162.24 1370.47 1101.46 1362.37 1043.83 1344.72C1043.63 1342.94 1039.26 1305.33 1039.55 1307.69C1039.31 1305.91 1024.78 1188.78 1024.98 1190.56C1092.18 1216.31 1165.06 1227.6 1236.88 1223.02H1236.93Z" fill="#469CFF"/>
<path d="M1265.4 612.011C1270.41 615.627 1270.65 622.812 1270.41 628.984C1263.6 802.24 1264.87 797.226 1261.03 804.844C1258.36 810.1 1252.62 814.247 1246.84 813.235C1242.37 685.74 1243.73 686.222 1238 676.674C1232.85 668.091 1222.88 663.462 1213.07 661.244C1202.38 658.833 1139.94 649.816 1163.41 626.429C1169.97 619.871 1188 620.498 1196.55 619.196C1252.57 610.757 1259.08 607.526 1265.4 612.107V612.011Z" fill="white"/>
<path d="M2038.04 742.309C2037.45 744.045 1802.81 1421.64 1817.78 1378.34L1816.17 1382.48L1815.88 1383.64L1809.27 1402.25C1804.17 1420.63 1686.73 1398.06 1672.44 1375.06C1670.3 1372.55 1665.25 1420.72 1750.62 678.031C1778.81 723.503 1981.82 779.149 2037.99 742.261L2038.04 742.309Z" fill="#FDBC59"/>
<path d="M1750.91 676.294L1750.62 678.078C1750.53 696.45 1810.15 724.611 1887.11 741.874C1964.08 759.089 2030.11 759.041 2037.99 742.453L2038.52 740.765C2042.7 722.297 1981.77 693.027 1902.32 675.233C1822.88 657.44 1755.14 657.922 1750.96 676.391L1750.91 676.294Z" fill="#FFE4C2"/>
<path d="M1996.2 636.176C1948.92 681.069 1889.15 666.844 1857.52 616.213C1788.47 505.788 1839.45 400.281 1957.57 352.977C1982.93 342.803 1990.08 350.614 2003.88 369.228C2069.08 457.23 2073.65 562.543 1996.2 636.176Z" fill="#FDBC59"/>
<path d="M1969.18 645.29C1938.72 674.222 1900.19 665.06 1879.78 632.415C1835.46 561.483 1867.73 493.396 1944.26 462.727C1960.63 456.169 1965.2 461.184 1974.09 473.191C2016.12 529.947 2019.09 597.793 1969.14 645.242L1969.18 645.29Z" fill="#FF5245"/>
<path d="M1889.35 705.18C1919.62 670.606 1900.91 656.573 1911.85 655.657C1914.08 655.464 1916.37 657.2 1916.56 659.611C1918.02 676.344 1911.07 693.607 1895.91 710.87C1892.12 715.209 1885.51 709.471 1889.3 705.18H1889.35Z" fill="black"/>
<path d="M1938.86 630.92C1972.25 605.507 1978.37 557.721 1952.27 524.835C1948.68 520.302 1955.58 514.949 1959.13 519.482C1988.18 556.081 1981.48 609.461 1944.16 637.815C1939.64 641.335 1934.2 634.44 1938.86 630.92Z" fill="white"/>
<path d="M1995.23 865.077C1994.59 866.909 1955.29 981.674 1955.82 979.938C1871.81 966.726 1791.73 929.741 1728.03 873.708C1728.22 871.973 1745.08 726.925 1744.01 736.136C1810.24 808.225 1902.95 853.215 1995.23 865.077Z" fill="#FC8D2B"/>
<path d="M1927.2 1062.69C1926.57 1064.52 1886.53 1179.52 1887.16 1177.69C1821.13 1168.14 1757.23 1143.41 1701.84 1105.89C1702.03 1104.15 1717.73 966.726 1716.76 975.31C1777.01 1023 1850.72 1053.67 1927.2 1062.69Z" fill="#FC8D2B"/>
<path d="M1855.53 1269.07C1854.9 1270.9 1815.3 1385.43 1815.93 1383.59C1766.61 1374.05 1719.04 1355.87 1675.89 1330.65C1676.08 1328.86 1690.76 1200.64 1690.56 1202.43C1739.88 1236.09 1796.64 1259.14 1855.58 1269.12L1855.53 1269.07Z" fill="#FC8D2B"/>
<path d="M1996.98 780.597C2000.33 784.454 1999.12 790.337 1997.76 795.256C1958.69 934.034 1960.68 930.177 1956.06 935.625C1952.91 939.338 1947.46 941.653 1942.95 939.676C1964.03 835.761 1965.05 836.388 1962.28 827.563C1959.76 819.655 1952.61 814.014 1945.13 810.301C1936.97 806.298 1888.23 787.107 1911.75 772.689C1918.36 768.638 1932.79 772.592 1939.98 773.171C1986.92 777.028 1992.8 775.678 1997.03 780.597H1996.98Z" fill="white"/>
<path d="M527.362 710.285C527.654 712.359 622.162 1403.5 621.919 1401.72C625.66 1420.23 510.696 1452.69 487.421 1438.46C484.02 1437.02 497.382 1469.32 241.651 781.073C287.423 809.137 493.932 768.343 527.411 710.333L527.362 710.285Z" fill="#927BF9"/>
<path d="M241.02 779.385L241.555 781.072C249.766 797.515 315.801 796.117 392.331 777.166C468.86 758.264 527.849 728.753 527.315 710.381L527.023 708.645C522.407 690.273 454.721 691.286 375.664 710.815C296.656 730.344 236.355 760.964 240.972 779.336L241.02 779.385Z" fill="#FFE4C2"/>
<path d="M441.893 634.194C420.027 695.386 360.164 709.321 308.998 678.219C197.338 610.373 195.103 493.438 279.164 398.492C297.24 378.095 307.152 381.856 327.851 392.368C425.907 441.891 477.704 533.895 441.893 634.242V634.194Z" fill="#FDBC59"/>
<path d="M421.922 654.35C407.831 693.794 369.25 702.763 336.257 682.752C264.295 639.016 262.837 563.648 317.015 502.456C328.677 489.292 335.042 491.751 348.405 498.502C411.621 530.424 445.002 589.735 421.873 654.398L421.922 654.35Z" fill="#FF5245"/>
<path d="M377.705 743.46C389.124 699.098 366.044 694.951 375.373 689.212C377.414 687.959 380.135 688.586 381.398 690.611C390.29 704.932 391.894 723.401 386.16 745.63C384.751 751.176 376.247 749.054 377.705 743.46Z" fill="black"/>
<path d="M388.299 655.024C406.617 617.46 390.437 572.037 352.293 554.291C347.045 551.832 350.738 543.972 355.986 546.432C398.503 566.202 416.675 616.833 396.17 658.833C393.692 663.993 385.772 660.232 388.299 655.072V655.024Z" fill="white"/>
<path d="M544.709 839.034C544.952 840.77 562.591 966.963 561.473 958.91V959.2C480.521 984.853 392.233 987.553 309.969 965.902C309.338 964.118 258.755 827.172 261.962 835.9C353.798 870.763 456.907 869.606 544.709 839.034Z" fill="#0E4296"/>
<path d="M573.428 1045.9C573.671 1047.68 589.997 1168.23 589.754 1166.45C526.441 1187.38 458.171 1193.74 391.7 1184.97C391.02 1183.18 342.866 1053.57 345.879 1061.67C421.243 1077.39 501.028 1071.89 573.428 1045.85V1045.9Z" fill="#0E4296"/>
<path d="M602.873 1262.21C603.116 1264 619.588 1383.92 618.568 1376.3V1376.59L619.102 1381.03L619.394 1382.19C570.998 1395.69 520.269 1400.66 470.319 1397.33C469.638 1395.5 459.046 1366.37 459.726 1368.2C459.046 1366.42 424.012 1272.82 426.247 1278.75L425.324 1276.25C484.604 1284.3 545.731 1279.57 602.922 1262.21H602.873Z" fill="#0E4296"/>
<path d="M508.026 762.847C515.46 765.933 513.516 766.222 540.921 905.049C541.844 909.823 542.816 914.79 541.65 919.515C540.532 924.241 536.694 928.725 531.786 928.966C503.555 826.739 504.77 826.884 498.259 820.229C492.428 814.25 483.487 812.418 475.13 812.466C466.043 812.514 413.809 817.095 428.289 793.756C432.322 787.198 447.045 784.257 453.702 781.605C497.384 764.149 502 760.291 508.026 762.799V762.847Z" fill="white"/>
<path d="M252.584 1268.05C248.017 1266.41 245.684 1261.44 247.336 1256.91C253.945 1238.83 235.626 1218.53 215.753 1207.25C192.429 1194.08 164.49 1182.8 153.606 1156.37C133.149 1106.51 194.081 1055.45 176.735 1014.99C166.871 991.893 135.919 984.563 111.721 982.49C80.38 980.127 48.6019 979.355 24.987 959.971C5.40505 943.865 -3.72994 916.524 2.24667 891.98C8.22329 867.436 28.9714 847.28 53.801 841.879C65.0254 839.371 68.9126 856.345 57.5425 858.853C39.3697 862.807 23.6264 878.141 19.2047 896.079C14.8316 914.017 21.78 934.8 36.1142 946.566C55.5017 962.478 85.7735 963.105 113.227 965.179C154.772 968.747 182.323 983.647 192.818 1008.19C214.101 1057.81 153.023 1109.02 169.786 1149.81C178.144 1170.21 202.973 1180.05 224.402 1192.2C279.746 1223.54 270.514 1274.56 252.536 1268.05H252.584Z" fill="#469CFF"/>
<path d="M1472.83 798.725C1407.43 757.689 1407.63 650.302 1491.93 619.2C1485.32 559.985 1514.96 503.857 1572.1 478.541C1544.75 413.492 1612.82 320.04 1667.63 276.256C1706.65 245.009 1723.27 295.207 1698.73 300.607C1688.87 302.681 1683.86 289.42 1692.56 284.55C1692.37 284.116 1692.12 283.682 1691.88 283.489C1688.14 282.477 1682.5 286.624 1678.57 289.758C1630.46 328.19 1564.28 415.565 1588.43 472.417C1615.74 464.075 1645.52 463.689 1672.98 472.754C1677.16 474.153 1679.63 478.396 1678.81 482.688C1671.47 519.48 1613.36 539.154 1580.7 494.02C1530.71 515.285 1504.71 561.914 1509.23 614.33C1556.02 605.361 1596.11 628.844 1607.09 657.294C1614.43 676.341 1608.45 698.715 1593.14 709.324C1564.43 729.287 1511.41 704.791 1494.94 636.8C1425.9 665.009 1431.53 752.288 1482.11 784.017C1491.88 790.19 1482.55 804.849 1472.74 798.676L1472.83 798.725ZM1512 631.737C1524.73 687.335 1565.06 707.781 1583.18 695.147C1591.93 689.071 1595.28 675.184 1590.76 663.563C1582.84 643.021 1551.02 623.877 1512 631.737ZM1598.1 488.04C1618.85 511.813 1649.12 503.23 1658.79 486.787C1639.01 482.013 1617.97 482.688 1598.1 488.04Z" fill="#FF5245"/>
<path d="M117.744 11.3304C165.848 1.34873 223.622 36.5496 222.699 96.8734C290.094 123.25 310.793 192.205 328.189 261.016C330.958 272.251 314 276.302 311.231 265.259C296.119 205.418 278.627 140.513 220.707 114.715C211.718 157.101 176.295 181.693 146.752 177.594C125.13 174.605 108.852 155.365 110.844 135.643C113.662 109.507 151.951 79.273 205.207 91.4727C202.631 46.5795 158.268 20.6851 121.34 28.3522C110.018 30.715 106.325 13.7414 117.744 11.3304ZM204.138 108.832C160.649 97.5003 129.989 121.225 128.239 137.475C126.879 148.566 138.298 158.837 149.182 160.38C170.027 163.273 197.918 143.358 204.138 108.88V108.832Z" fill="#78E470"/>
<path d="M1977.3 204.503C1966.9 159.08 1999.79 103.819 2057.76 103.674C2082.01 39.3964 2147.95 18.6134 2213.83 1.01295C2224.57 -1.78384 2228.8 14.1771 2218.16 17.0221C2160.87 32.3562 2098.77 50.0049 2074.92 105.266C2115.83 113.077 2140.07 146.205 2136.62 174.221C2132.69 206.287 2093.23 225.431 2066.12 189.7C2050.77 169.399 2047.7 144.324 2052.86 120.31C2009.71 123.541 1985.61 165.927 1993.57 200.838C1996 211.543 1979.73 215.208 1977.3 204.503ZM2069.62 121.034C2059.46 162.407 2082.79 191.05 2098.43 192.448C2109.12 193.557 2118.84 182.563 2120.1 172.244C2122.53 152.473 2102.9 126.386 2069.62 121.082V121.034Z" fill="#927BF9"/>
<path d="M1983.86 1256.96C2008.2 1160.47 2086.48 1081.39 2183.23 1055.4C2194.35 1052.36 2199.02 1069.14 2187.79 1072.18C2098.48 1096.15 2023.31 1172.14 2000.82 1261.2C1998 1272.34 1981.04 1268.15 1983.86 1256.96Z" fill="#469CFF"/>
<path d="M790.53 759.086C719.102 745.729 678.092 663.899 720.366 597.306C635.284 531.437 611.912 399.506 670.366 310.829C676.683 301.184 691.357 310.732 684.992 320.328C631.445 401.628 653.359 523.24 730.861 583.419C751.075 560.948 776.244 556.56 793.202 562.78C833.63 577.632 804.913 650.397 734.748 607.384C699.423 664.959 736.255 731.263 793.737 742.016C805.107 744.137 801.9 761.207 790.53 759.086ZM745.341 593.449C760.744 602.996 780.423 610.326 791.453 596.052C804.913 578.693 770.997 566.156 745.341 593.449Z" fill="#FDBC59"/>
<path d="M1561.37 192.495C1498.05 192.495 1445.09 243.368 1445.09 307.887C1445.09 244.139 1393.05 192.495 1328.81 192.495C1393.1 192.495 1445.09 140.996 1445.09 77.1035C1445.09 141.719 1498.15 192.495 1561.37 192.495Z" fill="#78E470"/>
<path d="M2222.53 1349.55C2185.51 1349.55 2154.51 1379.3 2154.51 1417.05C2154.51 1379.78 2124.09 1349.55 2086.48 1349.55C2124.09 1349.55 2154.51 1319.41 2154.51 1282.04C2154.51 1319.84 2185.56 1349.55 2222.53 1349.55Z" fill="#FDBC59"/>
<path d="M1553.45 1125.03C1516.42 1125.03 1485.42 1154.78 1485.42 1192.54C1485.42 1155.27 1455 1125.03 1417.39 1125.03C1455 1125.03 1485.42 1094.89 1485.42 1057.52C1485.42 1095.33 1516.47 1125.03 1553.45 1125.03Z" fill="#FF5245"/>
<path d="M927.163 1010.51C895.434 1010.51 866.474 1023.33 845.629 1044.02C824.638 1064.71 811.713 1093.4 811.713 1125.08C811.713 1061.81 760.061 1010.51 696.262 1010.51C728.137 1010.51 757.048 997.681 777.942 976.994C798.788 956.308 811.713 927.616 811.713 895.936C811.713 927.568 824.638 956.259 845.629 976.994C866.474 997.681 895.385 1010.51 927.163 1010.51Z" fill="#927BF9"/>
<path d="M545.826 167.856C508.8 167.856 477.799 197.608 477.799 235.365C477.799 198.09 447.382 167.856 409.773 167.856C447.382 167.856 477.799 137.719 477.799 100.348C477.799 138.152 508.849 167.856 545.826 167.856Z" fill="#469CFF"/>
<path d="M1309.54 1415.22C1319 1375.44 1294.17 1335.57 1254.08 1326.18C1213.99 1316.79 1173.82 1341.43 1164.35 1381.22C1154.89 1421 1179.72 1460.87 1219.81 1470.26C1259.9 1479.65 1300.07 1455.01 1309.54 1415.22Z" fill="#FDBC59"/>
<path d="M608.217 1508.19C610.355 1516.63 612.493 1525.07 614.583 1533.51C618.033 1547.15 633.436 1555.35 646.895 1551.69C660.889 1547.88 668.664 1533.31 665.214 1519.62C663.076 1511.18 660.986 1502.74 658.848 1494.3C655.398 1480.66 639.995 1472.46 626.536 1476.12C612.542 1479.93 604.767 1494.5 608.217 1508.19Z" fill="white"/>
</svg>
