<svg width="1381" height="1503" viewBox="0 0 1381 1503" fill="none" xmlns="http://www.w3.org/2000/svg">
<g clip-path="url(#clip0_4629_127)">
<path d="M858.822 1206.04L858.61 1207.66C853.512 1224.95 761.255 1241.48 647.699 1245.25C534.143 1249.03 440.981 1238.65 434.766 1221.75L434.435 1220.15C433.831 1202.38 528.351 1184.86 645.557 1180.96C762.764 1177.07 858.248 1188.33 858.822 1206.07V1206.04Z" fill="#F1FC2B"/>
<path d="M889.11 1233.37C872.095 1226.58 863.225 1207.15 850.433 1206.79C846.18 1206.67 842.68 1203.26 842.318 1198.85C833.328 1089.13 845.606 975.574 877.827 870.405C879.245 865.85 883.891 863.285 888.295 864.824C892.67 866.272 895.114 871.129 893.726 875.715C862.833 976.57 850.675 1085.33 858.428 1190.74C875.624 1195.93 883.106 1212.43 895.053 1217.2C899.488 1218.95 905.039 1217.89 906.427 1214.96C908.448 1210.68 913.456 1208.9 917.589 1211.07C921.723 1213.18 923.412 1218.37 921.391 1222.66C915.719 1234.6 900.846 1238.04 889.11 1233.34V1233.37Z" fill="#FFBF45"/>
<path d="M373.1 1240.79C370.777 1236.63 372.135 1231.32 376.117 1228.9C380.099 1226.52 385.198 1227.91 387.521 1232.07C389.12 1234.94 394.701 1235.63 399.015 1233.55C410.389 1228.12 417.358 1210.77 433.83 1204.56C434.554 1098.15 415.186 989.722 377.625 890.466C375.936 885.971 378.048 880.933 382.302 879.183C386.586 877.373 391.413 879.636 393.132 884.101C432.261 987.55 452.083 1100.83 450.423 1211.65C450.363 1216.08 447.105 1219.76 442.851 1220.15C429.999 1221.36 422.638 1241.42 406.014 1249.42C402.515 1251.11 379.617 1252.52 373.13 1240.82L373.1 1240.79Z" fill="#FFBF45"/>
<path d="M858.609 1207.67C858.428 1208.9 844.852 1307.71 845.697 1301.58C845.697 1301.58 845.656 1301.67 845.576 1301.85L840.568 1338C823.402 1456.89 825.996 1452.09 822.074 1462.96C815.377 1480.69 798.693 1493.24 779.053 1493.88L533.9 1502.02C510.761 1502.78 490.427 1486.76 485.75 1464.16C485.509 1462.96 483.096 1451.73 483.367 1452.94C483.126 1451.73 457.09 1328.28 458.749 1336.15C458.206 1333.5 453.47 1310.48 453.771 1311.93C453.5 1310.72 434.493 1220.55 434.735 1221.75C441.643 1240.64 543.041 1244.38 560.539 1245.32C602.323 1246.76 630.622 1245.65 631.798 1245.65C637.048 1245.62 642.297 1245.44 647.667 1245.26C683.176 1244.08 705.652 1242.24 737.179 1239.31C806.326 1232.04 854.958 1220.03 858.579 1207.67H858.609Z" fill="#DFFD59"/>
<path d="M513.147 1242.45C515.439 1242.63 517.732 1242.84 520.176 1243.02C505.303 1280.76 484.969 1314.49 460.653 1344.54L458.752 1336.12V1336C479.237 1310.63 498.967 1277.78 513.147 1242.45Z" fill="#F1FC2B"/>
<path d="M631.799 1245.65C605.552 1323.15 555.23 1400.75 484.966 1460.39L483.367 1452.91C552.152 1393.54 600.302 1317.51 624.679 1245.89L631.799 1245.65Z" fill="#F1FC2B"/>
<path d="M737.21 1239.31C715.247 1321.37 665.438 1422.47 602.536 1499.73L593.666 1500.03C654.185 1427.08 702.697 1334.92 730.12 1239.97C732.534 1239.76 734.947 1239.55 737.24 1239.34L737.21 1239.31Z" fill="#F1FC2B"/>
<path d="M850.586 1266.13L845.699 1301.58C845.699 1301.58 845.578 1301.73 845.578 1301.85C817.913 1375.8 779.87 1440.42 734.797 1495.32L725.928 1495.63C784.094 1425.91 826.843 1344.06 850.586 1266.13Z" fill="#F1FC2B"/>
<path d="M840.569 1337.99L839.573 1344.9C781.347 1320.5 733.409 1281.07 705.08 1242.15C707.765 1241.94 710.329 1241.7 712.864 1241.48C716.816 1246.46 720.858 1251.47 725.203 1256.15C751.661 1287.1 794.682 1319.14 840.539 1337.99H840.569Z" fill="#F1FC2B"/>
<path d="M824.035 1456.53C823.582 1458.7 822.828 1460.87 822.104 1462.92C707.884 1422.71 625.854 1337.45 551.367 1244.92C554.324 1245.1 557.431 1245.13 560.539 1245.28C632.793 1335.46 715.004 1418.18 824.035 1456.53Z" fill="#F1FC2B"/>
<path d="M678.14 1497.23L664.021 1497.71C583.681 1457.01 509.375 1382.34 453.773 1311.93L450.605 1297.36C513.659 1376.67 587.15 1453.72 678.17 1497.26L678.14 1497.23Z" fill="#F1FC2B"/>
<path d="M563.045 1200.78C558.429 1200.94 554.597 1197.35 554.447 1192.73L548.141 986.253C547.99 981.637 551.581 977.806 556.196 977.655C560.812 977.504 564.644 981.094 564.795 985.71L571.1 1192.19C571.251 1196.8 567.661 1200.63 563.045 1200.78Z" fill="#FFBF45"/>
<path d="M721.401 1232.85L688.155 985.68C687.552 981.125 690.75 976.931 695.305 976.328C700.042 975.815 704.084 978.922 704.688 983.478L737.934 1230.65C738.537 1235.21 735.339 1239.4 730.784 1240C726.379 1240.67 722.035 1237.53 721.401 1232.85Z" fill="#FFBF45"/>
<path d="M1277.11 538.787C1226.52 620.907 1155.38 688.214 1081.14 749.789C955.331 854.174 818.455 945.013 673.432 1020.5C645.496 1035.01 612.008 1032.56 585.55 1015.58C498.905 959.826 403.36 918.585 319.55 857.764C222.104 787.229 130.24 704.626 69.2986 601.479C8.20636 497.788 -19.6094 370.143 15.2357 255.048C45.6461 154.857 123.542 70.4139 220.807 32.1294C318.163 -6.2757 432.775 2.44314 523.251 54.8768C613.728 107.431 650.414 202.826 665.317 306.366C676.63 201.981 760.229 101.91 849.831 47.6061C933.791 -3.22864 1040.74 -14.18 1132.97 18.674C1139.36 20.8764 1145.76 23.3502 1152.03 26.0655C1248.3 67.7892 1321.67 159.382 1339.74 262.771C1356.37 357.683 1327.68 456.637 1277.08 538.757L1277.11 538.787Z" fill="#B0A9FF"/>
<path d="M328.3 666.582C184.032 883.316 233.781 808.557 223.041 824.728C127.586 575.079 160.501 661.182 153.381 642.537C208.288 657.109 267.057 664.772 328.3 666.552V666.582Z" fill="#DFFD59"/>
<path d="M583.046 642.356L570.496 682.542L528.953 815.919C371.38 609.201 425.775 680.55 414.009 665.104C469.49 661.876 526.238 654.153 583.046 642.356Z" fill="#FFBF45"/>
<path d="M845.276 560.237C816.193 808.166 826.209 722.667 824.037 741.161C641.846 577.645 700.314 630.109 685.682 616.985C739.714 601.237 793.174 582.261 845.276 560.237Z" fill="#DFFD59"/>
<path d="M1272.5 262.923L1320.31 442.911L1148.95 381.487C1195.05 344.47 1236.65 304.797 1272.5 262.953V262.923Z" fill="#DFFD59"/>
<path d="M1090.19 425.532C1104.15 686.494 1099.33 596.5 1100.38 615.959C883.528 481.073 954.154 524.999 939.643 515.949C992.559 488.797 1043.18 458.446 1090.22 425.502L1090.19 425.532Z" fill="#FFBF45"/>
<path d="M152.597 645.435C137.663 641.543 96.1508 626.821 79.7389 621.058C78.1701 620.515 77.3555 618.826 77.8986 617.257C78.4416 615.688 80.1612 614.904 81.6999 615.417C96.5128 620.606 139.504 635.871 154.136 639.672C237.311 661.726 328.271 667.398 413.83 662.118C468.617 658.92 525.335 651.288 582.445 639.431C783.219 598.371 990.148 504.968 1147.09 379.133C1193.79 341.603 1235.24 301.87 1270.24 260.991C1281.37 247.989 1314.31 207.17 1324.03 194.077C1325.02 192.749 1326.89 192.478 1328.19 193.473C1329.52 194.469 1329.79 196.339 1328.8 197.637C1319.02 210.79 1285.92 251.82 1274.73 264.853C1110.7 456.396 835.049 593.846 583.591 645.254C526.21 657.171 469.19 664.833 414.132 668.062C327.577 673.401 236.044 667.549 152.567 645.435H152.597Z" fill="black"/>
<g opacity="0.1">
<path d="M570.496 682.543L528.953 815.92L492.328 767.891C513.778 758.146 532.181 741.463 543.193 720.164C550.041 706.889 555.08 691.02 567.992 683.81C568.837 683.297 569.712 682.905 570.496 682.543Z" fill="black"/>
</g>
<g opacity="0.1">
<path d="M310.709 693.042L223.008 824.73L201.045 767.198C227.654 762.672 252.785 748.342 269.106 726.349C280.601 710.812 289.621 691.775 310.709 693.042Z" fill="black"/>
</g>
<g opacity="0.1">
<path d="M841.415 593.454L824.037 741.161L785.18 706.286C804.85 689.753 819.09 666.403 823.283 640.669C825.968 624.015 825.697 602.867 841.415 593.484V593.454Z" fill="black"/>
</g>
<g opacity="0.1">
<path d="M1092.27 463.604L1100.38 615.958L1061.41 591.732C1073.96 571.187 1080.14 546.479 1077.24 522.223C1075.5 507.319 1070.85 491.3 1077.43 477.874C1080.65 471.509 1086.02 466.742 1092.27 463.604Z" fill="black"/>
</g>
<g opacity="0.1">
<path d="M1280.61 293.604L1320.29 442.91L1275.36 426.679C1283.36 403.871 1284.23 378.409 1276.36 355.329C1271.53 341.15 1263.66 326.518 1267.31 311.976C1269.15 305.068 1275.21 298.008 1280.64 293.604H1280.61Z" fill="black"/>
</g>
<path d="M200.595 735.247L176.248 670.987C175.675 669.448 176.429 667.729 177.968 667.125C179.506 666.522 181.256 667.306 181.829 668.875L206.176 733.135C206.749 734.674 205.995 736.393 204.456 736.997C202.827 737.6 201.168 736.725 200.595 735.247Z" fill="white"/>
<path d="M480.322 734.675L443.788 686.012C442.792 684.685 443.064 682.814 444.391 681.819C445.718 680.853 447.589 681.095 448.585 682.422L485.119 731.085C486.115 732.412 485.843 734.283 484.516 735.248C483.249 736.213 481.378 736.032 480.322 734.645V734.675Z" fill="white"/>
<path d="M768.313 678.801C753.983 663.113 738.355 648.421 721.853 635.237C720.556 634.211 720.344 632.31 721.4 631.043C722.456 629.746 724.327 629.565 725.594 630.591C742.337 643.986 758.206 658.859 772.748 674.818C773.864 676.025 773.774 677.926 772.567 679.042C771.3 680.189 769.399 680.038 768.343 678.861L768.313 678.801Z" fill="white"/>
<path d="M978.533 527.232C977.085 526.478 976.512 524.668 977.266 523.19C978.02 521.741 979.831 521.168 981.279 521.922C1001.82 532.572 1021.98 544.579 1041.19 557.582C1042.55 558.517 1042.91 560.358 1041.98 561.746C1038.36 567.025 1034.44 556.255 978.503 527.232H978.533Z" fill="white"/>
<path d="M1249.15 411.957C1230.81 402.634 1211.8 394.036 1192.64 386.464C1188.96 385.016 1191.16 379.465 1194.84 380.913C1214.18 388.576 1233.37 397.234 1251.86 406.647C1253.34 407.401 1253.91 409.181 1253.16 410.659C1252.41 412.138 1250.6 412.711 1249.15 411.957Z" fill="white"/>
<path d="M1299.62 263.888C1298.62 262.561 1298.92 260.691 1300.22 259.725C1317.72 246.722 1324.66 224.277 1325.23 202.525C1324.54 202.133 1323.84 201.74 1323.18 201.348C1317.42 204.938 1311.54 207.774 1306.32 210.067C1300.61 212.571 1294.52 215.015 1287.94 214.924C1281.49 214.834 1273.64 211.545 1270.69 204.395C1264.92 190.668 1280.91 171.602 1305.86 183.548C1312.11 186.565 1317.72 190.819 1323.12 194.289C1323.81 193.836 1324.48 193.323 1325.17 192.841C1324.48 177.122 1321.58 169.369 1325.11 160.771C1328.13 153.44 1336.91 148.613 1343.79 152.535C1350.42 156.396 1350.91 165.387 1348.46 172.597C1345.2 182.221 1338.75 189.733 1331.24 195.707C1331.27 196.793 1331.3 197.879 1331.3 198.935C1345.54 205.994 1361.68 208.649 1377.42 206.386C1378.99 206.145 1380.56 207.291 1380.8 208.921C1381.04 210.55 1379.9 212.058 1378.27 212.3C1362.22 214.592 1345.84 212.179 1331.14 205.481C1329.79 234.202 1318.14 253.903 1303.84 264.522C1302.51 265.487 1300.67 265.246 1299.65 263.888H1299.62ZM1283.57 187.048C1278.2 189.341 1273.82 196.4 1276.21 202.042C1278.14 206.688 1283.54 208.83 1288.06 208.89C1293.68 208.951 1298.83 206.779 1303.93 204.546C1308.16 202.676 1312.86 200.443 1317.54 197.728C1313.01 194.711 1308.43 191.362 1303.27 188.888C1297.17 185.962 1289.78 184.363 1283.57 187.018V187.048ZM1330.63 163.034C1328.1 169.188 1329.97 175.644 1330.87 188.164C1336.09 183.337 1340.44 177.605 1342.79 170.696C1344.45 165.809 1344.3 159.775 1340.74 157.724C1337.27 155.672 1332.23 159.081 1330.63 163.034Z" fill="black"/>
<path d="M129.607 667.006C112.199 663.959 93.2832 651.65 79.496 626.429C69.2385 639.04 55.572 648.603 40.2159 653.762C38.6472 654.305 36.9577 653.461 36.4448 651.892C35.9319 650.323 36.7767 648.634 38.3455 648.121C53.4601 643.052 66.7948 633.368 76.5092 620.607C76.0567 619.641 75.6042 618.706 75.1516 617.71C65.8596 615.749 56.7787 611.888 49.689 604.738C38.8885 593.817 42.901 581.206 53.2489 579.848C57.5933 579.335 62.2393 580.753 65.5277 583.68C72.3761 589.774 73.1303 597.95 79.3753 612.461C80.1898 612.582 80.9742 612.733 81.7888 612.823C84.9264 607.634 88.245 600.997 92.6195 595.385C109.876 573.302 132.443 583.65 133.257 598.251C133.679 605.975 128.068 612.431 122.336 615.418C116.513 618.465 109.967 619.038 103.752 619.37C98.1102 619.671 91.5937 619.762 84.866 619.158C84.4135 619.852 83.961 620.516 83.4783 621.21C96.5716 646.522 114.522 658.348 130.663 661.184C132.292 661.455 133.378 663.024 133.076 664.653C132.774 666.343 131.145 667.369 129.607 667.067V667.006ZM88.3355 613.366C95.6665 613.819 112.259 613.879 119.56 610.078C127.012 606.186 130.27 597.588 123.784 591.825C115.427 584.374 104.295 590.045 97.2957 599.006C94.4598 602.626 92.1669 606.638 89.7534 610.892C89.3009 611.737 88.8182 612.552 88.3355 613.396V613.366ZM54.0032 585.701C44.1379 586.968 49.327 604.195 72.1951 610.772C67.7602 599.76 66.5233 592.519 61.5152 588.084C59.4939 586.274 56.5072 585.369 53.973 585.701H54.0032Z" fill="black"/>
</g>
<defs>
<clipPath id="clip0_4629_127">
<rect width="1380.77" height="1502.02" fill="white"/>
</clipPath>
</defs>
</svg>
