<svg width="1620" height="1748" viewBox="0 0 1620 1748" fill="none" xmlns="http://www.w3.org/2000/svg">
<g clip-path="url(#clip0_4090_777)">
<path d="M810.156 1048.43L672.814 334.94C671.999 330.569 678.555 329.421 679.333 333.681L816.675 1047.17C817.49 1051.51 810.971 1052.73 810.156 1048.43Z" fill="black"/>
<path d="M858.306 104.257C865.158 201.412 736.928 326.716 685.85 397.091C626.772 352.57 560.176 319.309 505.987 268.935C475.244 240.377 443.946 208.561 434.427 167.706C415.018 84.0339 494.356 10.1402 576.473 35.7345C602.326 43.8091 624.772 61.9584 638.847 85.1451C656.774 13.5849 734.446 -18.4542 795.672 11.3255C830.86 28.4377 855.676 65.1809 858.306 104.22V104.257Z" fill="#4680FF"/>
<path d="M434.796 741.522L461.909 687.778C468.428 674.814 478.836 675.369 485.17 689.222L501.43 724.743C503.282 728.78 497.171 731.447 495.393 727.521L479.133 692C474.947 682.777 471.576 683.407 467.835 690.778L440.76 744.522C438.797 748.448 432.833 745.448 434.833 741.522H434.796Z" fill="white"/>
<path d="M533.806 968.205L490.841 945.314C486.951 943.24 490.1 937.388 493.989 939.425L536.955 962.316C542.325 965.205 544.289 964.538 543.288 957.241L535.807 901.237C535.214 896.941 541.77 895.904 542.4 900.349L549.882 956.352C551.4 967.908 545.215 974.242 533.806 968.168V968.205Z" fill="white"/>
<path d="M354.422 952.757L378.312 885.086C379.794 880.937 386.054 883.16 384.572 887.308L360.681 954.979C359.237 959.128 352.94 956.905 354.422 952.757Z" fill="white"/>
<path d="M832.971 127.074C839.749 95.2568 824.674 59.6249 797.08 42.3275C769.523 25.03 730.853 26.9931 705.185 46.9574C701.703 49.6613 697.629 44.4017 701.111 41.6978C728.927 20.0668 770.782 17.9555 800.636 36.6975C830.49 55.4024 846.824 93.9975 839.49 128.444C838.564 132.741 832.045 131.37 832.971 127.037V127.074Z" fill="white"/>
<path d="M793.044 87.9984C789.97 74.1456 775.006 64.182 761.005 66.6266C756.746 67.4415 755.486 60.8485 759.857 60.0706C787.6 55.1073 806.638 88.3688 797.008 90.5171C796.785 90.5541 793.452 89.7763 793.044 87.9984Z" fill="white"/>
<path d="M675.555 357.609L597.772 309.643C594.069 307.346 597.476 301.679 601.254 303.976L679.037 351.942C682.778 354.238 679.296 359.905 675.555 357.609Z" fill="white"/>
<path d="M661.702 920.607C666.74 906.791 652.776 891.198 637.701 882.568C619.959 872.456 598.735 863.826 590.476 843.602C574.919 805.414 621.255 766.338 608.069 735.336C600.55 717.668 577.067 712.038 558.659 710.445C534.879 708.63 510.693 708.075 492.728 693.185C477.839 680.851 470.912 659.924 475.468 641.145C480.024 622.329 495.766 606.92 514.656 602.772C523.175 600.846 526.175 613.883 517.508 615.773C503.692 618.81 491.728 630.551 488.395 644.293C485.061 658.035 490.358 673.924 501.248 682.962C515.952 695.148 538.917 695.63 559.844 697.222C591.439 699.963 612.329 711.371 620.329 730.15C636.479 768.153 590.105 807.378 602.81 838.602C609.18 854.232 628.034 861.751 644.331 871.048C664.777 882.716 681.963 903.976 674.259 925.163C671.259 933.423 658.739 928.904 661.776 920.607H661.702Z" fill="#4680FF"/>
<path d="M639.775 559.546C603.365 513.357 630.849 435.871 699.187 434.723C709.558 390.275 745.041 357.236 792.489 353.421C789.452 299.825 861.308 249.488 912.497 231.487C948.425 218.783 947.536 259.23 928.609 256.933C921.016 255.933 920.831 245.081 928.275 243.784C928.275 243.414 928.201 243.043 928.053 242.858C918.275 236.154 802.119 292.417 805.786 353.162C827.491 354.014 848.937 361.273 866.271 374.793C868.901 376.867 869.605 380.534 867.901 383.423C853.271 408.165 806.601 407.647 794.711 366.829C753.449 369.57 722.966 396.646 712.854 435.649C748.671 440.982 771.413 468.095 772.043 491.43C772.451 507.061 762.487 521.691 748.819 525.506C723.151 532.655 691.408 501.579 696.927 448.316C640.257 451.242 622.07 515.691 650.22 551.397C655.665 558.323 645.22 566.546 639.775 559.62V559.546ZM710.41 448.835C705.372 492.208 729.077 517.135 745.264 512.617C753.079 510.431 759.005 501.282 758.746 491.726C758.302 474.873 740.374 453.02 710.372 448.835H710.41ZM808.712 366.829C817.528 389.238 841.381 390.72 852.53 381.275C839.566 372.83 824.306 368.015 808.712 366.829Z" fill="#FF6E45"/>
<path d="M1364.9 454.836C1355.3 418.723 1379.86 373.461 1426.01 371.646C1443.42 319.42 1495.31 300.863 1547.2 284.862C1555.69 282.306 1559.5 295.011 1551.13 297.567C1505.98 311.494 1457.09 327.458 1439.72 372.46C1472.5 377.535 1492.76 403.388 1490.83 425.982C1489.42 442.502 1475.39 455.688 1460.24 454.984C1440.12 453.91 1415.46 426.094 1422.6 385.202C1388.38 389.017 1370.42 423.723 1377.75 451.466C1380.01 459.985 1367.16 463.355 1364.9 454.873V454.836ZM1435.94 385.239C1429.05 418.723 1448.42 441.02 1460.94 441.65C1469.46 442.243 1476.87 433.131 1477.61 424.834C1478.98 408.907 1462.61 388.536 1435.98 385.239H1435.94Z" fill="#FDD459"/>
<path d="M1459.53 1319.56C1478.05 1245.67 1537.54 1185.07 1611.06 1165.22C1619.51 1162.88 1623.06 1175.77 1614.54 1178.03C1546.65 1196.4 1489.53 1254.59 1472.46 1322.78C1470.35 1331.3 1457.42 1328.08 1459.57 1319.56H1459.53Z" fill="#4680FF"/>
<path d="M487.654 545.288C433.354 535.066 402.204 472.395 434.317 421.392C369.646 370.944 351.904 269.937 396.314 201.97C401.093 194.599 412.278 201.896 407.463 209.23C366.757 271.493 383.425 364.61 442.317 410.724C444.688 408.057 447.244 405.576 449.948 403.242C460.726 394.093 477.838 390.501 489.691 394.908C520.434 406.316 498.58 461.987 445.281 429.059C418.427 473.173 446.429 523.917 490.135 532.177C498.766 533.806 496.321 546.881 487.691 545.251L487.654 545.288ZM453.281 418.465C464.986 425.799 479.95 431.355 488.32 420.428C489.506 418.873 490.839 416.428 490.395 413.576C488.654 402.538 467.875 405.465 458.578 413.391C456.726 414.984 454.985 416.65 453.318 418.428L453.281 418.465Z" fill="#FDD459"/>
<path d="M1530.98 1695.62C1502.83 1695.62 1479.27 1718.4 1479.27 1747.33C1479.27 1718.77 1456.12 1695.62 1427.57 1695.62C1456.12 1695.62 1479.27 1672.54 1479.27 1643.91C1479.27 1672.84 1502.87 1695.62 1530.98 1695.62Z" fill="#70E47A"/>
<path d="M103.889 238.156C75.7392 238.156 52.1822 260.936 52.1822 289.863C52.1822 261.306 29.0325 238.156 0.475098 238.156C29.0325 238.156 52.1822 215.081 52.1822 186.449C52.1822 200.709 57.9603 213.673 67.3683 223.007C76.7023 232.341 89.6661 238.119 103.889 238.119V238.156Z" fill="#FF6E45"/>
<path d="M1323.82 265.046C1295.67 265.046 1272.11 287.825 1272.11 316.753C1272.11 288.196 1248.96 265.046 1220.4 265.046C1248.96 265.046 1272.11 241.97 1272.11 213.339C1272.11 242.267 1295.71 265.046 1323.82 265.046Z" fill="#70E47A"/>
<path d="M650.147 1178.29C602.366 1178.29 562.438 1216.96 562.438 1266C562.438 1217.55 523.176 1178.29 474.729 1178.29C523.213 1178.29 562.438 1139.14 562.438 1090.58C562.438 1139.7 602.478 1178.29 650.147 1178.29Z" fill="#A57BF9"/>
<path d="M1535.91 941.83C1469.5 1084.43 1408.49 1347.41 1387.42 1503.39C1217.48 1587.06 996.724 1592.58 817.379 1493.79C808.823 1356.82 755.375 1161.7 693.778 1038.91C727.595 1023.47 762.042 1009.69 796.933 997.982C802.785 996.093 808.415 994.019 814.268 992.352C938.128 952.535 1074.62 934.793 1211.18 941.83C1219.11 942.238 1227.04 942.645 1235.18 943.275C1318.26 948.757 1376.34 961.498 1395.97 964.795C1434.2 972.721 1497.9 930.57 1535.91 941.83Z" fill="#4680FF"/>
<path d="M933.053 1542.02C915.311 1536.79 897.569 1530.76 880.419 1523.65C892.124 1366.01 852.232 1146.03 796.896 997.982C802.748 996.093 808.378 994.018 814.23 992.352C879.049 1171.66 943.609 1368.3 933.015 1542.02H933.053Z" fill="#0E2D96"/>
<path d="M1007.61 1558.95C1022.43 1378.12 994.688 1134.99 958.537 957.092C966.056 955.61 973.797 954.388 981.502 953.351C1007.17 1137.73 1049.77 1381.9 1075.43 1566.28C1052.69 1565.02 1030.13 1562.72 1007.58 1558.98L1007.61 1558.95Z" fill="#0E2D96"/>
<path d="M1346.71 1519.68L1344.82 1522.2C1328.11 1528.87 1311 1534.72 1293.85 1539.76C1285.3 1455.83 1294.08 1370.19 1312.22 1287.52C1332.08 1196.7 1346.04 1048.76 1377.38 961.277C1383.45 962.537 1389.71 963.796 1395.97 964.833C1336.45 1121.84 1330.41 1352.67 1346.67 1519.72L1346.71 1519.68Z" fill="#0E2D96"/>
<path d="M1217.67 1557.91C1195.11 1561.69 1172.55 1564.39 1149.59 1565.65C1175.7 1377.71 1185.11 1129.77 1211.18 941.868C1219.11 942.276 1227.04 942.683 1235.19 943.313C1196.96 1125.18 1202.41 1372.71 1217.63 1557.91H1217.67Z" fill="#0E2D96"/>
<path d="M1477.13 1055.24C1448.94 1087.43 1410.64 1110.32 1369.12 1120.55C1227.22 1155.7 1083.91 1154.4 930.052 1144.21C891.42 1141.25 862.937 1138.32 810.23 1122.14C781.635 1113.21 742.262 1104.84 720.187 1084.36C675.11 1042.58 644.515 983.388 643.034 921.421C641.441 857.714 676.962 776.967 740.262 752.633C728.706 714.445 717.002 682.147 736.151 643.44C754.523 606.734 789.895 578.918 829.935 569.88C819.304 539.285 828.342 514.024 852.677 492.727C901.31 450.205 976.537 451.983 1027.73 412.277C1053.13 392.313 1071.21 359.348 1063.91 327.827C1066.02 328.235 1068.17 328.642 1070.28 329.161C1086.4 355.347 1087.58 390.609 1071.47 417.092C1050.28 452.243 1006.5 467.429 983.278 501.024C971.574 517.765 965.87 540.248 974.092 558.879C982.352 577.621 1007.35 588.659 1024.65 577.621C981.019 602.882 945.387 640.255 922.904 685.221C914.274 702.518 907.607 723.001 915.051 740.817C922.089 757.188 939.905 766.893 957.61 769.152C975.315 771.412 993.131 767.411 1010.54 763.448C956.684 794.302 934.719 876.752 958.128 934.237C981.685 991.685 1038.73 1030.8 1099.25 1045.17C1159.62 1059.39 1223.22 1051.84 1283.74 1037.58C1385.49 1013.58 1482.24 969.387 1535.91 880.641C1551.06 939.571 1513.94 1012.98 1477.13 1055.28V1055.24Z" fill="#FCAC2B"/>
<path d="M1535.91 880.643C1482.2 969.427 1385.42 1013.58 1283.74 1037.58C1223.22 1051.8 1159.66 1059.4 1099.25 1045.17C1038.73 1030.8 981.685 991.688 958.128 934.239C934.719 876.791 956.684 794.304 1010.54 763.451C993.131 767.451 975.277 771.414 957.61 769.155C939.905 766.895 922.089 757.191 915.051 740.819C907.606 723.003 914.237 702.521 922.904 685.223C945.387 640.257 981.019 602.885 1024.65 577.624C1007.35 588.661 982.352 577.624 974.092 558.882C965.832 540.251 971.574 517.768 983.278 501.026C1006.46 467.431 1050.28 452.245 1071.47 417.095C1087.54 390.612 1086.36 355.387 1070.28 329.163C1203.03 357.239 1311.97 464.172 1342.67 596.514C1390.01 593.328 1431.38 622.701 1451.75 665.555C1471.98 708.521 1463.31 763.451 1430.75 798.045C1495.79 812.009 1526.39 843.382 1535.94 880.643H1535.91Z" fill="#FDD459"/>
<path d="M1216.78 440.429C1212.81 416.057 1183.77 400.204 1162.4 393.871C1143.03 388.13 1130.21 385.981 1137.66 406.835C1143.07 421.947 1164.11 446.615 1175.85 457.393C1192.77 472.95 1221.41 468.542 1216.81 440.429H1216.78Z" fill="white"/>
<path d="M1330.26 657.295C1333.97 667.184 1341.71 676.185 1352 678.555C1362.3 680.926 1374.64 674.481 1376.19 664.036C1377.9 652.739 1367.82 643.479 1358.75 636.553C1333.37 617.181 1318.82 626.663 1330.3 657.295H1330.26Z" fill="white"/>
<path d="M1363.6 707.408C1364.08 714.89 1375.01 725.854 1384.12 726.743C1389.75 727.298 1396.05 723.742 1396.82 718.112C1397.64 712.334 1392.64 707.408 1387.64 704.371C1381.31 700.556 1362.67 692.259 1363.6 707.371V707.408Z" fill="white"/>
<path d="M1006.32 655.923C1022.5 673.48 1005.32 714.557 990.465 733.817C976.761 751.596 964.834 752.004 947.833 741.04C930.165 729.632 898.274 703.445 905.312 682.407C908.349 673.295 918.09 667.924 927.35 667.813C937.351 667.702 958.648 681.888 958.648 681.888C958.648 681.888 967.464 654.701 979.242 650.516C988.317 647.293 999.614 648.553 1006.36 655.886L1006.32 655.923Z" fill="#FF5E7D"/>
<path d="M1482.27 903.163C1502.16 924.794 1470.79 992.428 1445.83 995.502C1437.97 996.465 1430.42 992.576 1423.75 988.279C1406.08 976.871 1374.19 950.684 1381.23 929.646C1384.27 920.534 1394.01 915.164 1403.27 915.052C1413.27 914.941 1434.57 929.127 1434.57 929.127C1434.57 929.127 1443.38 901.94 1455.16 897.755C1464.24 894.533 1475.53 895.792 1482.27 903.126V903.163Z" fill="#FF5E7D"/>
<path d="M976.204 1042.73C965.055 1063.84 920.644 1061.47 897.495 1053.91C876.16 1046.95 871.752 1035.87 876.382 1016.17C881.198 995.686 895.198 956.906 917.348 956.424C926.941 956.239 935.275 963.61 938.46 972.277C941.942 981.648 935.683 1006.5 935.683 1006.5C935.683 1006.5 964.277 1005.72 972.129 1015.39C978.204 1022.84 980.834 1033.91 976.167 1042.76L976.204 1042.73Z" fill="#FF5E7D"/>
<path d="M1312.49 516.359C1327.45 541.657 1282.67 601.29 1257.63 599.105C1249.74 598.438 1243.15 593.03 1237.56 587.438C1222.63 572.622 1196.92 540.36 1208.15 521.248C1213 512.988 1223.67 509.766 1232.74 511.581C1242.56 513.544 1260.41 531.878 1260.41 531.878C1260.41 531.878 1274.71 507.136 1287.08 505.469C1296.6 504.21 1307.41 507.766 1312.49 516.359Z" fill="#FF5E7D"/>
<path d="M1441.9 1365.82L1418.05 1331.71L1404.82 1397.57C1419.19 1387.68 1431.53 1377.08 1441.9 1365.82Z" fill="#EA325E"/>
<path d="M1032.73 510.285C1009.21 495.358 1010.21 495.321 1007.8 496.358L984.39 506.322C981.575 507.507 978.612 504.951 979.353 501.988C986.279 475.023 986.613 475.949 984.909 473.986L968.204 454.8C966.204 452.503 967.686 448.873 970.76 448.688C998.54 446.947 997.762 447.54 999.095 445.318L1012.17 423.501C1013.76 420.872 1017.65 421.205 1018.76 424.057C1029.02 449.948 1028.17 449.392 1030.73 449.985L1055.54 455.689C1058.54 456.392 1059.43 460.17 1057.06 462.133C1035.58 479.875 1035.88 478.912 1036.1 481.542L1038.32 506.914C1038.58 509.951 1035.25 511.989 1032.65 510.359L1032.73 510.285Z" fill="#FF5E7D"/>
<path d="M788.413 919.125L755.411 898.16C753.818 897.16 751.855 897.012 750.151 897.716L714.186 913.013C709.853 914.865 705.297 910.939 706.482 906.383L716.223 868.529C716.705 866.714 716.223 864.788 715.001 863.38L689.333 833.897C686.258 830.341 688.555 824.785 693.259 824.489L732.261 822.044C734.113 821.933 735.817 820.896 736.78 819.303L756.893 785.783C759.3 781.746 765.301 782.227 767.041 786.598L781.413 822.933C782.117 824.674 783.598 825.971 785.413 826.378L823.49 835.119C828.082 836.156 829.453 842.009 825.823 845.009L795.71 869.899C794.265 871.085 793.525 872.9 793.673 874.789L797.118 913.717C797.525 918.421 792.376 921.532 788.413 919.014V919.125Z" fill="#FF5E7D"/>
<path d="M1207.48 1089.36L1174.48 1068.39C1172.88 1067.39 1170.92 1067.25 1169.22 1067.95L1133.25 1083.25C1128.92 1085.1 1124.36 1081.17 1125.55 1076.62L1135.29 1038.76C1135.77 1036.95 1135.29 1035.02 1134.07 1033.61L1108.4 1004.13C1105.32 1000.58 1107.62 995.02 1112.32 994.723L1151.33 992.279C1153.18 992.168 1154.88 991.131 1155.85 989.538L1175.96 956.017C1178.37 951.98 1184.37 952.461 1186.11 956.832L1200.48 993.168C1201.18 994.909 1202.66 996.205 1204.48 996.612L1242.55 1005.35C1247.15 1006.39 1248.52 1012.24 1244.89 1015.24L1214.77 1040.13C1213.33 1041.32 1212.59 1043.13 1212.74 1045.02L1216.18 1083.95C1216.59 1088.62 1211.44 1091.77 1207.48 1089.25V1089.36Z" fill="#FF5E7D"/>
<path d="M1291 810.599L1258 789.635C1256.41 788.635 1254.44 788.487 1252.74 789.191L1216.78 804.488C1212.44 806.34 1207.89 802.414 1209.07 797.858L1218.81 760.004C1219.29 758.189 1218.81 756.263 1217.59 754.855L1191.92 725.372C1188.85 721.816 1191.14 716.26 1195.85 715.964L1234.85 713.519C1236.7 713.408 1238.41 712.371 1239.37 710.778L1259.48 677.257C1261.89 673.22 1267.89 673.702 1269.63 678.072L1284 714.408C1284.71 716.149 1286.19 717.445 1288 717.853L1326.08 726.594C1330.67 727.631 1332.04 733.483 1328.41 736.483L1298.3 761.374C1296.85 762.559 1296.11 764.374 1296.26 766.263L1299.71 805.192C1300.11 809.896 1294.97 813.007 1291 810.488V810.599Z" fill="#FF5E7D"/>
<path d="M543.656 994.872L460.725 942.202C456.762 939.683 451.799 939.276 447.502 941.128L357.089 979.612C346.199 984.242 334.754 974.389 337.68 962.944L362.126 867.79C363.311 863.234 362.126 858.419 359.052 854.863L294.529 780.784C286.751 771.858 292.603 757.931 304.382 757.19L402.425 751.041C407.129 750.745 411.351 748.152 413.759 744.152L464.281 659.887C470.355 649.739 485.43 650.998 489.801 661.962L525.951 753.301C527.692 757.671 531.433 760.894 536.026 761.968L631.773 783.969C643.292 786.636 646.774 801.341 637.662 808.86L561.954 871.457C558.324 874.457 556.435 879.013 556.842 883.717L565.473 981.575C566.51 993.353 553.583 1001.21 543.619 994.872H543.656Z" fill="#70E47A"/>
</g>
<defs>
<clipPath id="clip0_4090_777">
<rect width="1618.92" height="1747" fill="white" transform="translate(0.512695 0.289062)"/>
</clipPath>
</defs>
</svg>
