<svg width="930" height="193" viewBox="0 0 930 193" fill="none" xmlns="http://www.w3.org/2000/svg">
    <g clip-path="url(#clip0_2397_45696)">
        <path
            d="M44.1465 41.0719C247.753 109.39 467.023 126.543 679.011 92.8717C749.464 81.6822 818.952 64.5486 886.625 42.0101C889.238 41.1403 888.117 36.9964 885.485 37.8738C678.377 106.853 455.07 122.934 239.997 86.1223C187.528 77.1396 135.641 64.8448 84.6809 49.4811C71.4859 45.5044 58.3518 41.3226 45.2898 36.9357C42.6576 36.0545 41.541 40.1983 44.1503 41.0719H44.1465Z"
            fill="#F255AC" />
        <path
            d="M41.6988 42.3608C51.669 59.0576 35.1431 66.4261 27.5961 78.9906C23.0002 86.6401 24.6069 96.223 29.2901 103.307C30.8093 105.605 34.524 103.459 32.9933 101.142C22.6356 85.4665 36.2218 76.5597 44.7639 65.2791C51.3652 56.5584 50.9018 49.4026 45.4058 40.1958C43.9891 37.8219 40.2782 39.9793 41.7026 42.3608H41.6988Z"
            fill="#F255AC" />
        <path
            d="M40.9514 40.0657C40.3209 48.9649 37.043 57.5944 26.636 57.4045C22.025 57.3209 18.5952 57.1994 14.2159 58.7756C7.07907 61.347 2.15281 67.7773 0.0941868 74.8382C-0.680645 77.5007 3.45939 78.6288 4.23042 75.9776C6.20549 69.1865 10.8089 64.5489 17.4406 62.1598C23.0657 60.1316 28.82 62.7333 34.4679 60.481C42.4973 57.2791 44.704 47.6963 45.2434 40.0619C45.4409 37.3006 41.1489 37.3196 40.9514 40.0619V40.0657Z"
            fill="#F255AC" />
        <path
            d="M47.481 39.4542C49.4447 30.4183 48.2711 21.8078 44.2602 13.4935C41.0849 6.91507 35.2926 -0.024238 27.4266 1.20638C18.3906 2.61931 18.7021 14.4393 21 20.6152C24.4754 29.9625 33.8569 36.1346 42.3801 40.3126C44.8527 41.5242 47.029 37.8248 44.545 36.6094C39.4213 34.0988 34.7989 31.2197 30.6398 27.2658C28.6989 25.4199 27.2176 23.1865 25.8617 20.8962C22.9523 15.9814 22.8725 1.63557 32.3718 5.81359C37.5677 8.10011 41.0203 16.0004 42.7181 20.9304C44.6476 26.5328 44.5868 32.5909 43.3448 38.3148C42.7599 41.0115 46.8961 42.1585 47.481 39.4542Z"
            fill="#F255AC" />
        <path
            d="M44.1307 37.7593C34.62 35.6475 24.9042 34.6562 15.5606 38.0062C11.018 39.6318 5.40805 43.7225 6.89694 49.1045C8.43141 54.6537 19.3057 53.7877 23.2368 53.2332C31.9005 52.0178 39.4247 48.3259 45.6348 42.1614C47.5984 40.2092 44.5675 37.1782 42.6 39.1267C35.5126 46.1647 26.5336 49.5223 16.5861 49.1539C12.6398 49.0058 10.1254 46.4268 13.9654 43.6731C16.1304 42.1197 18.7093 41.398 21.2503 40.7561C28.3036 38.9747 36.0633 40.3573 42.995 41.8956C45.6917 42.4957 46.835 38.3594 44.1345 37.7593H44.1307Z"
            fill="#F255AC" />
        <path
            d="M723.838 128.377L722 127.663C722.023 127.595 724.4 120.751 716.724 102.686C712.018 91.6108 717.955 83.946 718.209 83.627L719.755 84.8538C719.531 85.1386 714.309 91.9564 718.54 101.915C726.611 120.91 723.956 128.081 723.838 128.377Z"
            fill="#F255AC" />
        <path
            d="M748.313 127.6C745.799 136.462 730.112 156.315 727.222 156.41C723.01 157.082 691.405 135.793 697.941 121.592C704.964 106.327 723.37 122.758 723.629 122.936C723.796 122.568 730.484 109.187 739.638 111.132C746.855 112.666 750.14 121.174 748.317 127.6H748.313Z"
            fill="#9F8EDD" />
        <g style="mix-blend-mode:overlay" opacity="0.2">
            <path
                d="M718.038 136.38C720.054 134.08 718.525 129.443 714.623 126.021C710.721 122.6 705.923 121.691 703.906 123.991C701.89 126.291 703.419 130.929 707.322 134.35C711.224 137.771 716.022 138.68 718.038 136.38Z"
                fill="white" />
        </g>
        <path
            d="M521.746 152.88L519.995 151.972L520.872 152.428L519.991 151.984C520.025 151.919 523.177 145.17 517.609 125.617C514.21 113.686 520.975 106.565 521.263 106.269L522.676 107.644C522.422 107.909 516.432 114.283 519.508 125.077C525.346 145.58 521.897 152.595 521.746 152.884V152.88Z"
            fill="#F255AC" />
        <path
            d="M545.922 155.053C542.382 163.557 524.473 181.427 521.591 181.184C517.329 181.355 488.444 156.503 496.602 143.168C505.372 128.834 521.72 147.316 521.951 147.521C522.16 147.175 530.372 134.675 539.233 137.68C546.222 140.05 548.486 148.888 545.918 155.053H545.922Z"
            fill="#9F8EDD" />
        <g style="mix-blend-mode:overlay" opacity="0.2">
            <path
                d="M509.982 160.723C512.394 159.33 512.353 154.742 509.889 150.475C507.425 146.207 503.472 143.877 501.06 145.27C498.647 146.663 498.689 151.251 501.152 155.519C503.616 159.786 507.569 162.116 509.982 160.723Z"
                fill="white" />
        </g>
        <path
            d="M323.39 143.785L321.749 142.688C321.787 142.631 325.479 136.614 321.609 118.022C319.224 106.574 326.6 100.452 326.915 100.197L328.157 101.732C327.883 101.956 321.408 107.387 323.538 117.62C327.621 137.226 323.565 143.523 323.39 143.782V143.785Z"
            fill="#F255AC" />
        <path
            d="M347.447 148.137C343.197 156.307 323.834 172.594 320.981 172.104C316.72 171.914 290.053 144.692 299.316 132.097C309.271 118.561 323.989 138.364 324.206 138.592C324.441 138.266 333.69 126.506 342.263 130.255C349.023 133.21 350.527 142.208 347.447 148.133V148.137Z"
            fill="#9F8EDD" />
        <g style="mix-blend-mode:overlay" opacity="0.2">
            <path
                d="M314.362 139.657C316.553 143.889 316.185 148.427 313.545 149.795C310.905 151.162 306.989 148.838 304.798 144.603C302.606 140.371 302.975 135.833 305.614 134.465C308.254 133.098 312.17 135.422 314.362 139.657Z"
                fill="white" />
        </g>
        <path
            d="M260.681 85.8128L259.416 92.5622L243.494 177.608L210.613 142.843L168.385 163.547L174.883 128.827L184.303 78.5088L185.568 71.748L260.681 85.8128Z"
            fill="#F78DBE" />
        <path
            d="M203.104 111.455C202.823 110.482 202.553 108.606 202.674 106.68C202.735 105.719 202.914 104.789 203.282 103.9C204.205 101.663 206.078 100.645 208.478 101.051C209.428 101.211 210.309 101.56 211.152 102.02C212.907 102.97 214.384 104.261 215.733 105.712C216.12 106.13 216.477 106.582 216.861 107.003C217.324 107.52 217.434 107.539 217.97 107.189C218.661 106.737 219.322 106.232 220.036 105.822C222.026 104.679 224.066 103.634 226.428 103.528C226.934 103.505 227.446 103.49 227.948 103.558C230.337 103.877 231.791 105.469 231.981 107.892C232.076 109.115 231.917 110.3 231.594 111.474C231.077 113.327 230.246 115.04 229.216 116.654C226.539 120.859 223.09 124.262 218.695 126.659C217.974 127.054 217.187 127.327 216.451 127.7C215.288 128.285 214.255 128.057 213.245 127.324C211.953 126.385 210.761 125.333 209.716 124.133C206.712 120.681 204.524 116.776 203.104 111.455Z"
            fill="white" />
        <g style="mix-blend-mode:multiply">
            <path
                d="M260.677 85.8119L259.416 92.5613C239.962 89.8494 197.285 81.1743 184.303 78.508L185.568 71.751L260.677 85.8119Z"
                fill="#F78DBE" />
        </g>
        <g style="mix-blend-mode:multiply" opacity="0.3">
            <path
                d="M259.416 92.5625L243.494 177.608L210.613 142.843L168.385 163.547L174.883 128.828C180.767 133.811 195.61 142.782 218.282 132.436C248.246 118.762 259.416 92.5625 259.416 92.5625Z"
                fill="#F78DBE" />
        </g>
        <path
            d="M455.757 99.3492L455.407 106.209L450.952 192.618L413.734 162.544L374.639 188.69L376.652 149.618L379.09 102.289L379.443 95.4219L455.757 99.3492Z"
            fill="#F78DBE" />
        <path
            d="M402.11 132.436C401.7 131.509 401.187 129.686 401.047 127.761C400.979 126.8 401.032 125.854 401.279 124.923C401.894 122.584 403.615 121.327 406.049 121.406C407.014 121.44 407.929 121.668 408.829 122.01C410.694 122.72 412.331 123.799 413.862 125.06C414.303 125.425 414.717 125.82 415.153 126.192C415.681 126.64 415.795 126.644 416.278 126.226C416.904 125.687 417.489 125.098 418.143 124.597C419.962 123.195 421.846 121.892 424.174 121.475C424.672 121.383 425.181 121.304 425.682 121.304C428.094 121.304 429.746 122.686 430.259 125.06C430.517 126.257 430.517 127.453 430.35 128.661C430.088 130.568 429.492 132.372 428.686 134.111C426.594 138.635 423.627 142.467 419.594 145.426C418.929 145.912 418.188 146.292 417.508 146.755C416.433 147.488 415.381 147.401 414.284 146.809C412.878 146.049 411.557 145.168 410.36 144.116C406.923 141.092 404.234 137.514 402.114 132.432L402.11 132.436Z"
            fill="white" />
        <g style="mix-blend-mode:multiply">
            <path
                d="M455.756 99.3521L455.403 106.212C435.759 106.117 392.311 103.204 379.086 102.292L379.439 95.4248L455.753 99.3559L455.756 99.3521Z"
                fill="#F78DBE" />
        </g>
        <path
            d="M666.871 179.055L624.494 156.835L591.26 190.111L584.978 147.131L578.745 104.508L577.75 97.7012L653.361 86.6484L654.356 93.4434L666.871 179.055Z"
            fill="#F78DBE" />
        <path
            d="M607.213 129.573C606.632 128.745 605.77 127.059 605.257 125.197C605.003 124.267 604.87 123.329 604.931 122.372C605.079 119.956 606.518 118.387 608.922 117.992C609.872 117.836 610.818 117.882 611.767 118.042C613.735 118.372 615.55 119.113 617.298 120.051C617.803 120.321 618.285 120.632 618.783 120.909C619.39 121.247 619.5 121.228 619.892 120.723C620.401 120.074 620.86 119.379 621.403 118.759C622.915 117.031 624.507 115.387 626.709 114.517C627.18 114.331 627.663 114.152 628.157 114.053C630.519 113.583 632.414 114.612 633.379 116.841C633.865 117.966 634.101 119.139 634.173 120.355C634.287 122.277 634.055 124.164 633.607 126.025C632.437 130.872 630.276 135.206 626.899 138.901C626.345 139.509 625.692 140.026 625.114 140.614C624.206 141.545 623.154 141.666 621.962 141.298C620.435 140.827 618.969 140.223 617.59 139.425C613.628 137.131 610.294 134.15 607.221 129.577L607.213 129.573Z"
            fill="white" />
        <g style="mix-blend-mode:multiply">
            <path
                d="M653.363 86.6484L654.358 93.4434C635.074 97.1884 591.893 102.821 578.743 104.508L577.748 97.705L653.359 86.6484H653.363Z"
                fill="#F78DBE" />
        </g>
        <g style="mix-blend-mode:multiply" opacity="0.3">
            <path
                d="M455.407 106.209L450.952 192.618L413.734 162.544L374.639 188.691L376.652 149.619C381.973 155.601 398.841 166.536 423.966 151.635C450.067 136.162 455.407 106.209 455.407 106.209Z"
                fill="#F78DBE" />
        </g>
        <g style="mix-blend-mode:multiply" opacity="0.3">
            <path
                d="M666.871 179.056L624.495 156.836L591.261 190.112L584.979 147.132C592.062 152.168 614.999 157.246 630.234 145.529C650.406 130.01 654.356 93.4443 654.356 93.4443L666.871 179.056Z"
                fill="#F78DBE" />
        </g>
        <path
            d="M169.026 68.3042L163.618 74.5561L162.182 76.2159L136.525 105.868L104.18 143.74L98.2924 112.056L95.0449 94.584L87.6688 54.5206L86.0508 45.7354L127.538 57.0198L169.026 68.3042Z"
            fill="#9F8EDD" />
        <g style="mix-blend-mode:multiply" opacity="0.75">
            <path
                d="M169.022 68.3033L163.614 74.5551C160.07 73.6131 154.984 72.2952 147.73 70.4644C129.552 65.8724 100.093 57.9038 87.6688 54.5196L86.0508 45.7344L127.538 57.0188L169.026 68.3033H169.022Z"
                fill="#958DCC" />
        </g>
        <g style="mix-blend-mode:multiply" opacity="0.25">
            <path
                d="M162.182 76.2158L136.526 105.868L104.18 143.74L98.293 112.056C102.304 113.67 108.392 113.138 117.622 107.999C142.933 93.9078 159.117 79.1138 162.182 76.2158Z"
                fill="#9F8EDD" />
        </g>
        <path
            d="M836.469 47.2852L834.836 55.3905L826.65 95.9781L817.121 144.861L796.466 120.245L784.984 106.56L758.856 75.3045L753.125 68.4525L794.799 57.8669L836.469 47.2852Z"
            fill="#9F8EDD" />
        <g style="mix-blend-mode:multiply" opacity="0.75">
            <path
                d="M836.465 47.2852L834.832 55.3905C831.284 56.3135 826.206 57.6656 818.989 59.6407C800.906 64.5821 771.333 72.1368 758.853 75.3045L753.121 68.4487L794.791 57.8669L836.461 47.2852H836.465Z"
                fill="#958DCC" />
        </g>
        <g style="mix-blend-mode:multiply" opacity="0.25">
            <path
                d="M834.836 55.3896L826.651 95.9772L817.121 144.86L796.467 120.244C800.827 119.207 807.212 115.071 812.488 107.159C828.562 83.0595 833.435 59.3664 834.836 55.3896Z"
                fill="#9F8EDD" />
        </g>
        <path
            d="M888.296 41.2973C878.326 57.9942 894.852 65.3627 902.399 77.9271C906.994 85.5767 905.388 95.1595 900.705 102.243C899.185 104.541 895.471 102.395 897.001 100.078C907.359 84.403 893.773 75.4963 885.231 64.2156C878.629 55.4949 879.093 48.3391 884.589 39.1323C886.006 36.7584 889.716 38.9158 888.292 41.2973H888.296Z"
            fill="#F255AC" />
        <path
            d="M889.045 39.0012C889.675 47.9004 892.953 56.5299 903.36 56.34C907.971 56.2565 911.401 56.1349 915.78 57.7112C922.917 60.2825 927.843 66.7129 929.902 73.7737C930.677 76.4363 926.537 77.5643 925.766 74.9132C923.791 68.122 919.187 63.4844 912.556 61.0954C906.93 59.0671 901.176 61.6689 895.528 59.4166C887.499 56.2147 885.292 46.6318 884.753 38.9974C884.555 36.2362 888.847 36.2551 889.045 38.9974V39.0012Z"
            fill="#F255AC" />
        <path
            d="M882.515 38.3898C880.552 29.3539 881.725 20.7433 885.736 12.4291C888.911 5.85062 894.707 -1.08869 902.57 0.141925C911.606 1.55485 911.294 13.3748 908.996 19.5507C905.521 28.8981 896.139 35.0701 887.616 39.2482C885.144 40.4598 882.967 36.7603 885.451 35.5449C890.575 33.0343 895.197 30.1553 899.356 26.2014C901.297 24.3554 902.779 22.1221 904.135 19.8318C907.044 14.9169 907.124 0.571121 897.624 4.74914C892.429 7.03565 888.976 14.9359 887.278 19.866C885.349 25.4683 885.409 31.5264 886.651 37.2503C887.236 39.947 883.1 41.0941 882.515 38.3898Z"
            fill="#F255AC" />
        <path
            d="M885.869 36.6998C895.379 34.588 905.095 33.5966 914.439 36.9466C918.981 38.5723 924.591 42.6629 923.102 48.045C921.568 53.5941 910.694 52.7281 906.763 52.1736C898.099 50.9582 890.575 47.2663 884.365 41.1019C882.401 39.1496 885.432 36.1186 887.399 38.0671C894.487 45.1052 903.466 48.4628 913.413 48.0943C917.36 47.9462 919.874 45.3672 916.034 42.6135C913.869 41.0601 911.29 40.3384 908.749 39.6965C901.696 37.9152 893.936 39.2977 887.004 40.836C884.308 41.4361 883.164 37.2999 885.865 36.6998H885.869Z"
            fill="#F255AC" />
    </g>
    <defs>
        <clipPath id="clip0_2397_45696">
            <rect width="930" height="192.618" fill="white" />
        </clipPath>
    </defs>
</svg>
