<svg width="1741" height="2230" viewBox="0 0 1741 2230" fill="none" xmlns="http://www.w3.org/2000/svg">
<g clip-path="url(#clip0_4090_1645)">
<path d="M585.838 1941.4C603.346 1897.42 584.825 1852.42 565.147 1804.67C524.561 1706.06 524.272 1676.55 568.62 1579.82C609.351 1490.76 612.317 1463.49 576.578 1357.64C563.483 1318.87 550.244 1278.57 552.125 1235.45C520.076 1203.04 505.968 1158.11 499.746 1113.33C478.043 956.051 548.363 801.375 603.057 698.715C607.108 691.119 618.683 697.196 614.632 704.865C560.734 805.932 491.499 958.076 512.696 1111.59C519.063 1157.53 532.519 1192.41 553.789 1217.94C568.909 1119.26 675.041 1104 709.188 1153.34C735.45 1191.18 711.793 1248.98 668.819 1265.76C636.336 1278.43 596.184 1270.54 565.075 1246.81C565.798 1284.79 577.88 1320.6 588.949 1353.45C625.701 1462.4 622.735 1493 580.485 1585.32C538.235 1677.63 537.583 1703.31 577.229 1799.68C596.98 1847.72 617.381 1897.27 597.992 1946.18C594.809 1954.21 582.655 1949.44 585.838 1941.33V1941.4ZM565.509 1230.24C594.013 1256.07 633.153 1265.69 664.044 1253.61C699.06 1239.94 719.896 1191.83 698.409 1160.79C669.109 1118.61 573.105 1135.61 565.509 1230.24Z" fill="black"/>
<path d="M1324.63 2222.54C1330.85 2151.72 1291.72 2078.14 1229.5 2043.7C1203.67 2029.38 1174.44 2021.2 1147.82 2005.72C1132.19 1996.61 1095.8 1971.14 1094.07 1930.48C1092.55 1894.31 1119.02 1865.88 1137.4 1837.08C1170.61 1785.21 1180.23 1718 1163.52 1658.68C1068.96 1721.91 992.781 1662.37 1003.92 1605.14C1015.5 1545.75 1125.39 1519.19 1170.32 1637.41C1222.7 1595.16 1257.28 1523.46 1262.78 1442.65C1268.56 1357.28 1245.85 1274.09 1219.95 1189.37C1217.42 1180.98 1230 1177.36 1232.46 1185.53C1257.64 1268.08 1281.8 1355.98 1275.8 1443.52C1269.94 1529.83 1232.03 1606.37 1174.8 1650.5C1194.26 1714.38 1184.43 1787.82 1148.4 1844.03C1130.96 1871.23 1105.79 1898.79 1107.16 1929.76C1108.17 1953.49 1125.83 1977.58 1154.47 1994.29C1179.58 2008.91 1209.67 2017.59 1235.94 2032.13C1302.57 2069.02 1344.38 2147.74 1337.73 2223.56C1336.93 2232.24 1323.98 2231.08 1324.7 2222.4L1324.63 2222.54ZM1016.73 1607.67C1011.3 1635.38 1034.74 1662.15 1059.92 1669.75C1093.27 1679.8 1130.89 1665.55 1159.32 1645.65C1120.47 1536.34 1025.84 1560.43 1016.66 1607.67H1016.73Z" fill="black"/>
<path d="M1717.62 1312.5L1653.09 1288.34L1596.51 1327.77L1599.63 1258.89L1544.64 1217.36L1611.06 1198.99L1633.56 1133.88L1671.61 1191.39L1740.48 1192.69L1697.51 1246.59L1717.62 1312.5Z" fill="#8AFD59"/>
<path d="M335.3 1222.28L294.641 1207.09L259.119 1231.91L261 1188.57L226.419 1162.45L268.235 1150.88L282.414 1109.86L306.289 1146.1L349.696 1146.9L322.639 1180.83L335.3 1222.28Z" fill="#DFFF45"/>
<path d="M173.104 178.764L108.571 154.601L52.0688 194.029L55.1073 125.156L0.124268 83.629L66.538 65.2531L89.11 0.141602L127.092 57.6568L195.965 58.959L152.992 112.857L173.104 178.764Z" fill="#8AFD59"/>
<path d="M1207.29 383.866L1142.75 359.702L1086.25 399.131L1089.29 330.257L1034.31 288.731L1100.72 270.355L1123.29 205.243L1161.27 262.758L1230.15 264.061L1187.25 317.958L1207.29 383.866Z" fill="#F97BD5"/>
<path d="M516.683 757.533C512.414 760.354 508.001 763.393 505.541 767.878C503.082 772.364 503.226 778.658 507.133 781.914C511.112 785.241 517.044 784.156 522.036 782.565C538.748 777.139 553.941 766.866 565.227 753.481C556.835 773.738 554.375 796.383 558.282 818.014C559.005 821.921 560.235 826.262 563.78 827.998C567.108 829.662 571.376 828.287 573.981 825.611C576.585 822.934 577.887 819.317 578.973 815.699C583.603 800 584.543 783.288 581.794 767.155C583.965 784.301 591.633 800.651 603.353 813.312C608.635 819.027 617.75 824.091 623.61 818.955C634.824 809.26 611.311 775.909 601.906 764.623C606.392 770.338 610.95 776.126 616.954 780.177C634.1 791.897 651.246 780.322 647.918 767.589C646.544 762.163 641.624 758.546 636.994 755.362C584.399 720.058 583.82 713.908 516.683 757.461V757.533Z" fill="#EAB532"/>
<path d="M766.339 665.871C712.513 702.622 656.517 725.99 595.385 740.098C582.001 743.136 567.821 740.387 556.897 731.923C434.559 636.426 280.969 453.173 287.19 297.629C290.156 221.665 336.964 143.531 410.396 123.853C459.229 110.831 512.331 124.866 555.377 151.272C598.568 177.606 633.439 215.371 667.008 253.136C702.095 188.675 782.617 161.546 853.588 180.573C923.981 199.455 981.641 256.03 995.748 328.52C1021.72 462.505 878.475 589.328 766.339 665.871Z" fill="#FFD85E"/>
<g opacity="0.5">
<path d="M930.277 521.324C883.686 577.32 836.444 618.05 766.413 665.871C712.587 702.623 656.591 725.991 595.459 740.098C582.075 743.137 567.895 740.388 556.971 731.923C506.184 692.278 459.81 646.916 419.079 596.998C456.048 605.969 506.69 632.013 529.841 634.256C707.016 651.113 842.883 514.378 902.713 343.424C914.867 308.771 925.574 268.184 951.981 241.055C1012.61 308.554 1023.6 409.115 930.277 521.251V521.324Z" fill="#EAB532"/>
</g>
<path d="M404.826 166.754C414.304 161.98 426.241 161.039 435.356 166.537C444.472 172.036 448.885 185.058 443.242 194.029C439.914 199.238 434.199 202.204 428.918 205.387C378.058 236.279 358.67 308.119 369.666 350.514C371.837 358.761 375.526 374.967 361.708 376.269C355.197 376.848 350.277 370.698 347.239 364.91C310.849 295.241 367.785 185.275 404.826 166.754Z" fill="white"/>
<path d="M1178.43 1265.77C1175.32 1269.82 1172.28 1274.16 1171.41 1279.22C1170.62 1284.29 1172.86 1290.15 1177.64 1291.88C1182.48 1293.62 1187.76 1290.65 1191.89 1287.47C1205.78 1276.69 1216.63 1262 1222.78 1245.51C1221.69 1267.43 1226.98 1289.57 1237.97 1308.59C1239.93 1311.99 1242.6 1315.68 1246.51 1316.19C1250.2 1316.62 1253.74 1313.88 1255.26 1310.55C1256.85 1307.15 1256.85 1303.31 1256.64 1299.55C1255.7 1283.2 1250.99 1267.14 1242.96 1252.89C1250.78 1268.3 1263.51 1281.1 1278.85 1289.06C1296.36 1298.18 1309.67 1286.31 1293.9 1269.74C1284.2 1259.62 1273.13 1250.79 1261.05 1243.7C1273.21 1251.3 1288.61 1259.83 1301.2 1250.28C1306.92 1245.87 1309.45 1237.04 1305.4 1231.04C1302.22 1226.41 1296.43 1224.6 1291 1223.23C1229.58 1207.67 1226.98 1202.03 1178.43 1265.69V1265.77Z" fill="#EAB532"/>
<path d="M1382.66 1095.46C1344.38 1148.2 1299.46 1189.08 1246.64 1222.86C1235.07 1230.24 1220.74 1232.41 1207.65 1228.15C1059.85 1179.24 853.733 1057.63 807.504 909.967C784.715 837.476 802.512 748.056 865.019 704.866C906.618 676.144 961.311 671.514 1010.8 681.932C1060.35 692.205 1105.86 716.007 1150.21 740.315C1167.21 631.724 1302.35 571.676 1414.42 633.098C1443.28 648.725 1467.88 671.659 1485.1 700.67C1554.69 818.087 1462.45 985.713 1382.58 1095.53L1382.66 1095.46Z" fill="#A9B4FF"/>
<g opacity="0.5">
<path d="M1382.66 1095.46C1344.39 1148.2 1299.46 1189.08 1246.65 1222.86C1235.07 1230.24 1220.75 1232.41 1207.65 1228.14C1146.52 1207.89 1087.56 1180.83 1032.43 1147.55C1070.27 1143.57 1126.7 1151.1 1149.27 1145.31C1321.81 1101.61 1403.71 927.112 1402.55 745.958C1402.33 709.278 1398.79 667.39 1414.49 633.025C1443.35 648.652 1467.95 671.586 1485.17 700.597C1554.77 818.014 1462.53 985.64 1382.66 1095.46Z" fill="#9099FF"/>
</g>
<path d="M874.287 747.115C881.594 739.446 892.519 734.527 902.937 736.697C913.354 738.868 921.964 749.575 919.576 759.92C918.202 765.925 913.788 770.628 909.954 775.402C872.479 821.632 878.339 895.786 903.009 931.959C907.784 939.049 916.755 953.085 904.239 958.872C898.306 961.621 891.578 957.498 886.803 953.085C829.071 899.765 845.711 776.994 874.36 747.043L874.287 747.115Z" fill="white"/>
</g>
<defs>
<clipPath id="clip0_4090_1645">
<rect width="1740.36" height="2229.56" fill="white" transform="translate(0.125977 0.141602)"/>
</clipPath>
</defs>
</svg>
