<svg width="1682" height="1624" viewBox="0 0 1682 1624" fill="none" xmlns="http://www.w3.org/2000/svg">
<g clip-path="url(#clip0_4630_171)">
<path d="M1270.76 547.621C1261.46 533.074 1251.8 518.056 1247.5 500.686C1242.54 480.928 1246.3 461.64 1257.49 449.119C1274.52 430.085 1308.43 425.163 1311.35 402.546C1314.12 381.232 1285.13 364.911 1283.74 340.485C1282.83 324.417 1294.03 311.245 1301.03 298.037C1316.09 269.521 1312.22 232.212 1291.66 207.351C1290.53 205.94 1290.71 203.913 1292.09 202.755C1293.52 201.597 1295.56 201.814 1296.72 203.19C1318.89 230.041 1323.05 270.281 1306.82 301.04C1299.71 314.43 1289.5 326.408 1290.27 340.087C1291.51 362.233 1321.05 378.445 1317.84 403.342C1314.34 430.193 1278.64 435.187 1262.38 453.426C1252.64 464.318 1249.43 481.398 1253.84 499.094C1257.93 515.415 1267.26 529.998 1276.3 544.075C1278.64 547.694 1273.1 551.204 1270.76 547.585V547.621Z" fill="black"/>
<path d="M1408.19 532.929L1407.28 536.584V536.729L1405.71 549.286C1322.72 1216.18 1356.82 941.558 1318.13 1252.23L1188.39 1234.57C1188.28 1233.23 1148.79 688.861 1148.86 690.2C1148.75 688.897 1141.28 585.546 1141.75 592.023L1137.67 534.883C1137.41 534.232 1137.41 533.581 1137.41 532.929C1137.41 513.171 1127.93 496.995 1227.77 496.995C1308.65 496.995 1377.02 507.707 1400.06 522.218H1400.21C1405.35 525.619 1408.23 529.274 1408.23 532.929H1408.19Z" fill="#46FFA0"/>
<path d="M1522.8 1352.5V1564.67C1522.8 1597.24 1496.18 1623.62 1463.4 1623.62H299.661C266.844 1623.62 240.262 1597.2 240.262 1564.67V1352.5H1522.8Z" fill="#FC2BA4"/>
<g opacity="0.3">
<path d="M1522.8 1352.5V1439.97L240.26 1352.5H1522.8Z" fill="#FFC2E0"/>
</g>
<path d="M1312.55 276.398L1414.35 403.669C1416.36 406.166 1420.33 404.212 1419.6 401.136L1378.55 234.637C1378.04 232.575 1379.82 230.657 1381.94 231.019C1400.02 233.95 1452.6 242.418 1470.62 245.313C1477.29 246.398 1497.78 252.985 1503 249.149C1500.26 245.059 1504.89 247.991 1384.16 192.986C1382.41 192.19 1381.86 190.018 1383.03 188.499L1488.78 51.2397C1490.78 48.598 1487.61 45.1602 1484.8 46.9334L1331.47 143.264C1329.98 144.205 1328.01 143.662 1327.21 142.106L1290.67 1.62672C1289.47 -0.72546 1286 -0.43596 1285.2 2.02478L1266.42 142.902C1265.91 144.422 1264.31 145.255 1262.77 144.82L1125.56 105.448C1122.32 104.508 1120.24 108.814 1123.05 110.732L1247.02 195.627C1248.81 196.858 1248.85 199.427 1247.02 200.513C1221.75 215.458 1081 298.798 1083.96 298.002C1086.91 297.206 1238.6 265.252 1266.57 259.354C1268.68 258.919 1270.47 260.692 1269.99 262.791C1265.73 281.79 1249.03 356.444 1249.68 357.096C1250.34 357.747 1297.12 291.777 1307.95 276.47C1309.08 274.842 1311.42 274.878 1312.66 276.47L1312.55 276.398Z" fill="#FD59A3"/>
<path d="M1315.17 217.52L1351.6 263.044C1352.33 263.948 1353.75 263.225 1353.46 262.139L1338.77 202.575C1338.58 201.851 1339.2 201.163 1339.97 201.272L1387.48 208.944C1341.98 187.557 1338.77 188.136 1340.37 186.073L1378.22 136.967C1378.95 136.026 1377.82 134.796 1376.8 135.411C1317.36 172.756 1321.19 170.947 1320.43 169.463L1307.37 119.199C1306.93 118.366 1305.69 118.439 1305.4 119.343C1298.11 169.354 1299.68 171.091 1297.38 170.44L1248.3 156.363C1247.13 156.038 1246.4 157.557 1247.39 158.245L1291.76 188.606C1292.42 189.04 1292.42 189.981 1291.76 190.343C1282.72 195.699 1232.37 225.517 1233.42 225.228C1234.48 224.938 1288.74 213.503 1298.77 211.404C1299.53 211.26 1300.15 211.875 1300.01 212.635C1298.47 219.438 1292.49 246.144 1292.75 246.361C1292.97 246.578 1309.7 222.984 1313.61 217.52C1314.01 216.941 1314.85 216.941 1315.28 217.52H1315.17Z" fill="#FF45FB"/>
<path d="M1661.44 965.333L1658.19 935.587L1681.05 916.082L1651.56 909.966L1639.92 882.355L1624.94 908.302L1594.89 910.763L1615.13 932.945L1608.16 962.04L1635.69 949.809L1661.44 965.333Z" fill="#FD59A3"/>
<path d="M740.177 658.356L736.931 628.61L759.794 609.105L730.258 602.953L718.627 575.342L703.64 601.324L673.594 603.749L693.831 625.932L686.903 655.063L714.397 642.795L740.177 658.356Z" fill="#FD59A3"/>
<path d="M1553.94 455.31L1552.33 440.437L1563.74 430.702L1549.01 427.626L1543.18 413.803L1535.67 426.794L1520.64 428.024L1530.78 439.098L1527.32 453.681L1541.06 447.529L1553.94 455.31Z" fill="#7BE8F9"/>
<path d="M124.997 1579.62L122.664 1558.01L139.255 1543.83L117.814 1539.38L109.391 1519.33L98.4883 1538.18L76.6465 1539.95L91.3414 1556.06L86.3094 1577.23L106.292 1568.33L124.997 1579.62Z" fill="#7BE8F9"/>
<path d="M1606.85 1598.94L1604.92 1581.24L1618.52 1569.63L1600.98 1565.97L1594.05 1549.58L1585.12 1564.99L1567.25 1566.48L1579.28 1579.65L1575.16 1596.98L1591.53 1589.67L1606.85 1598.94Z" fill="#E4D770"/>
<path d="M1523.42 936.963L1499.68 918.507L1501.5 888.652L1476.49 905.371L1448.45 894.406L1456.73 923.175L1437.55 946.263L1467.7 947.312L1483.89 972.571L1494.21 944.453L1523.42 936.963Z" fill="#FD59A3"/>
<path d="M134.77 917.71L148.371 897.409L139.218 874.828L162.847 881.378L181.698 865.781L182.719 890.099L203.504 903.054L180.495 911.558L174.515 935.153L159.273 916.082L134.77 917.71Z" fill="#FD59A3"/>
<path d="M0 944.094L34.677 938.991L50.1012 907.762L65.7077 938.919L100.385 943.804L75.3706 968.159L81.3871 1002.43L50.32 986.325L19.3623 1002.61L25.16 968.303L0 944.094Z" fill="#FD59A3"/>
<path d="M1470.55 1093.65C1485.72 1032.35 1532.57 979.663 1592.01 957.119C1597.51 947.674 1591.1 933.742 1580.16 932.548C1569.22 931.39 1558.97 937.541 1550.08 943.983C1504.97 976.479 1468.03 1024.75 1463.26 1079.9C1462.89 1084.21 1462.85 1088.99 1465.7 1092.24C1468.54 1095.5 1469.45 1097.85 1470.51 1093.65H1470.55Z" fill="#E4D770"/>
<path d="M293.423 1068.83C287.589 1019.25 256.084 973.366 211.708 949.881C207.478 939.965 218.636 918.361 245.875 943.656C278.036 973.547 302.211 1015.02 300.497 1058.73C300.351 1062.13 299.914 1065.9 297.361 1068.18C294.809 1070.46 293.861 1072.19 293.46 1068.83H293.423Z" fill="#E4D770"/>
<path d="M1438.39 1088.44C1428.18 1048.71 1438.79 1004.27 1465.92 973.331C1466.17 966.238 1458.19 960.195 1451.55 962.837C1444.91 965.478 1440.94 972.137 1437.84 978.506C1409.36 1036.66 1426.72 1085.84 1435.21 1089.09C1437.84 1090.11 1439.12 1091.16 1438.42 1088.44H1438.39Z" fill="#C05EFF"/>
<path d="M251.454 1075.67C222.247 1028.99 169.119 997.902 113.804 995.152C104.907 987.263 105.818 960.484 144.944 973.041C191.143 987.878 234.827 1017.95 253.752 1062.32C255.21 1065.79 256.559 1069.73 255.064 1073.21C253.606 1076.68 253.46 1078.85 251.454 1075.67Z" fill="#C05EFF"/>
<path d="M1572.06 1182.82V1314.47C1572.06 1335.39 1554.92 1352.5 1533.74 1352.5H229.319C208.243 1352.5 190.996 1335.39 190.996 1314.47V1182.82C190.996 1161.76 208.243 1144.79 229.319 1144.79H1533.74C1554.96 1144.79 1572.06 1161.8 1572.06 1182.82Z" fill="#FD59A3"/>
<path d="M764.026 1105.2C761.145 1107.04 736.496 1125.97 733.214 1125.97C840.855 1173.45 929.134 1254.47 986.528 1353.84C992.07 1363.4 1017.74 1400.13 1010.12 1410.19C1003.26 1419.09 956.117 1388.08 946.235 1383.52C939.927 1380.66 876.954 1358.55 876.954 1356.7C876.444 1399.84 861.129 1458.93 827.145 1488.75C820.946 1478.15 825.942 1454.88 826.233 1442.32C826.598 1393.68 825.942 1344.29 813.179 1292.25C802.24 1246.55 780.325 1200.37 747.69 1166.1C738.538 1156.33 731.428 1141.53 715.967 1149.71C704.627 1155.72 706.596 1164.69 706.377 1175.29C705.611 1210.36 709.075 1232.8 709.075 1254.72V1623.66H606.721V1162.16C518.552 1242.17 504.331 1364.92 494.085 1480.5C447.448 1444.42 419.918 1385.33 422.543 1326.74C384.985 1364.66 347.574 1402.7 310.052 1440.62C344.802 1302.24 447.521 1189.95 530.95 1148.04C551.041 1134.73 573.138 1123.04 595.491 1111.97C561.762 1076.03 499.591 1054.57 457.694 1027.9C391.549 985.816 328.467 929.074 309.615 853.37C293.935 790.766 313.845 719.368 363.107 677.282C412.37 635.051 489.709 626.801 544.514 661.577C596.402 694.507 620.906 756.352 636.841 815.446C657.406 891.91 668.856 970.617 670.825 1049.72C675.565 970.617 693.469 891.801 714.18 815.446C730.005 756.352 754.618 694.507 806.506 661.577C861.311 626.801 938.651 635.051 987.913 677.282C1037.18 719.368 1057.09 790.766 1041.41 853.37C1008.77 984.549 854.201 1046.61 763.99 1105.16L764.026 1105.2Z" fill="#C05EFF"/>
<path d="M944.559 778.029C988.388 751.829 1022.26 777.703 1019.38 826.592C1016.14 882.285 976.939 929.328 934.641 966.095C884.138 1010.03 819.306 1056.38 753.926 1075.06C749.915 1064.52 772.778 1036.59 778.539 1026.67C893.437 829.451 904.959 801.659 944.522 778.029H944.559Z" fill="#9932EA"/>
<path d="M496.162 853.767C474.466 824.13 452.077 792.791 447.519 756.459C441.211 706.086 478.769 685.858 522.635 708.33C572.59 733.914 600.011 788.557 616.675 841.825C636.584 905.479 652.956 983.101 643.585 1049.94C632.281 1049.29 615.836 1017.19 609.054 1007.96C571.423 956.576 533.792 905.153 496.162 853.767Z" fill="#9932EA"/>
<path d="M626.921 1053.63C630.313 1076.25 636.366 1098.47 644.935 1119.71C646.539 1106.25 650.586 1093.08 656.785 1080.99C663.203 1095.43 669.584 1109.87 676.002 1124.27C695.838 1111.39 693.468 1077.01 716.695 1068.68C710.606 1097.02 706.048 1125.68 703.021 1154.49C698.099 1148.15 693.213 1141.78 688.29 1135.45C686.722 1143.67 677.606 1149.64 669.402 1147.86C661.161 1146.05 655.4 1136.86 657.478 1128.76C651.826 1141.82 646.247 1154.96 640.45 1167.95C628.891 1144.75 609.091 1127.78 615.508 1086.13C617.04 1076.25 626.958 1062.46 626.958 1053.63H626.921Z" fill="white"/>
</g>
<defs>
<clipPath id="clip0_4630_171">
<rect width="1681.05" height="1623.69" fill="white"/>
</clipPath>
</defs>
</svg>
