<svg width="223" height="399" viewBox="0 0 223 399" fill="none" xmlns="http://www.w3.org/2000/svg">
    <path
        d="M95.6264 98.1539L97.9935 104.171C97.9935 104.171 92.2232 108.544 86.3496 102.144L91.0581 96.5801C91.0581 96.5801 95.1934 95.461 95.6264 98.1547V98.1539Z"
        fill="#F25C80" />
    <g style="mix-blend-mode:multiply" opacity="0.5">
        <path
            d="M86.3496 102.142L91.0581 96.5781C91.0581 96.5781 95.1934 95.4591 95.6264 98.1527L95.8376 98.6897C94.9152 99.03 93.5229 99.4113 91.7725 99.4919C88.6523 99.6338 89.8391 106.068 97.8153 103.715L97.9943 104.17C97.9943 104.17 92.224 108.543 86.3504 102.143L86.3496 102.142Z"
            fill="#F25C80" />
    </g>
    <path
        d="M66.1092 35.2759C60.6025 62.5201 79.618 94.6976 93.4646 97.4962C106.454 100.12 137.363 76.4094 142.869 49.1645C148.375 21.9195 133.254 5.30666 111.505 0.910963C89.7574 -3.48393 71.6143 8.0318 66.1092 35.2751V35.2759Z"
        fill="#F25C80" />
    <g style="mix-blend-mode:screen" opacity="0.5">
        <path
            d="M117.452 32.7653C118.76 31.4769 120.055 30.1748 121.324 28.8493C124.326 25.7122 127.393 22.5082 130.311 19.1719C134.723 24.5681 137.205 31.6543 136.877 40.3393C136.851 40.3667 136.823 40.3933 136.797 40.4215C132.431 44.8188 127.764 48.9259 122.77 52.5984C120.847 54.0117 118.885 55.3759 116.885 56.682C117.369 55.1985 117.774 53.6981 118.08 52.1831C119.584 44.7406 119.232 38.2567 117.451 32.7653H117.452Z"
            fill="#F25C80" />
    </g>
    <g style="mix-blend-mode:screen" opacity="0.5">
        <path
            d="M109.838 7.63586C117.269 9.1371 123.766 12.3557 128.532 17.1916C125.551 20.6174 122.401 23.8924 119.326 27.0698C118.364 28.0647 117.391 29.0483 116.41 30.0231C112.164 20.3569 103.109 14.2367 91.9516 11.9824C90.2649 11.6413 88.6032 11.4164 86.9746 11.3051C93.3988 7.13759 101.283 5.90725 109.839 7.63586H109.838Z"
            fill="#F25C80" />
    </g>
    <g style="mix-blend-mode:screen" opacity="0.5">
        <path
            d="M124.389 53.0963C128.743 49.7753 132.847 46.1851 136.752 42.3594C136.602 44.1243 136.349 45.9472 135.967 47.8363C131.38 70.5331 105.63 90.2863 94.8086 88.1006C94.0483 87.9466 93.2686 87.6846 92.4785 87.3258C101.679 81.328 111.508 70.8129 116.114 58.8594C118.964 57.0558 121.728 55.1264 124.389 53.0963Z"
            fill="#F25C80" />
    </g>
    <g style="mix-blend-mode:screen">
        <path
            d="M138.551 51.6656C143.776 25.8131 129.584 10.0815 109.141 5.95022C95.3571 3.16461 83.1093 7.24748 74.9863 18.119C82.9957 4.81098 96.2456 -0.365973 111.332 2.68328C131.776 6.81533 145.967 22.5478 140.742 48.3987C139.213 55.9662 135.634 63.2491 131.035 69.7048C134.568 64.0997 137.273 57.9826 138.55 51.6648L138.551 51.6656Z"
            fill="#F25C80" />
    </g>
    <g style="mix-blend-mode:multiply" opacity="0.5">
        <path
            d="M83.3684 5.78418C79.6491 10.3395 76.8869 16.3211 75.3864 23.7475C70.8247 46.3194 88.3752 73.3394 100.86 75.863C112.151 78.1431 138.053 60.3168 143.991 38.8116C143.96 42.0721 143.603 45.5196 142.867 49.1647C137.361 76.4096 106.452 100.12 93.4626 97.4964C79.616 94.6979 60.6005 62.5211 66.1073 35.2761C68.9348 21.2852 75.1002 11.4546 83.3684 5.78418Z"
            fill="#F25C80" />
    </g>
    <g style="mix-blend-mode:screen" opacity="0.5">
        <path
            d="M71.1051 27.7916C70.7035 29.2308 70.3431 30.7232 70.0295 32.2744C65.0307 57.0119 82.2959 86.2257 94.8678 88.7678C105.245 90.8641 128.215 74.4479 136.99 53.624C130.671 77.2698 104.121 97.2585 92.7336 94.959C80.1617 92.4177 62.8974 63.2023 67.8962 38.4656C68.6879 34.548 69.7699 30.9924 71.1051 27.7924V27.7916ZM83.5681 11.6875C82.6385 12.3252 81.7387 13.0219 80.8688 13.7749C80.1811 15.4495 79.5756 17.2297 79.0773 19.1373C80.3197 16.3098 81.8258 13.8233 83.5681 11.6875Z"
            fill="#F25C80" />
    </g>
    <g style="mix-blend-mode:screen" opacity="0.5">
        <path
            d="M80.0403 16.0193C80.4443 15.1018 80.8845 14.2335 81.3432 13.3877C82.0672 12.7846 82.8066 12.2106 83.5709 11.6865C81.8286 13.8215 80.3217 16.3088 79.0801 19.1363C79.3792 17.9938 79.7194 16.9038 80.0903 15.8484C80.0734 15.9065 80.0565 15.9613 80.0411 16.0201L80.0403 16.0193Z"
            fill="#F25C80" />
    </g>
    <g style="mix-blend-mode:screen" opacity="0.5">
        <path
            d="M69.9303 30.9326C69.5345 32.3548 69.1668 33.815 68.8572 35.3469C63.8576 60.0843 81.1228 89.299 93.6947 91.8403C104.564 94.0357 129.232 75.9224 136.952 53.7093C136.964 53.6811 136.978 53.652 136.99 53.623C130.671 77.2688 104.121 97.2575 92.7336 94.9581C80.1617 92.4167 62.8974 63.2013 67.8962 38.4646C68.438 35.7814 69.1273 33.2796 69.9295 30.9334L69.9303 30.9326Z"
            fill="#F25C80" />
    </g>
    <g style="mix-blend-mode:screen" opacity="0.5">
        <path
            d="M97.0536 46.8183C107.924 58.0188 119.033 64.2794 128.799 54.8019C138.565 45.3243 137.671 28.5615 126.802 17.3602C115.932 6.15894 99.2023 4.76251 89.4369 14.2392C79.6708 23.7167 86.1845 35.6162 97.0544 46.8175L97.0536 46.8183Z"
            fill="#F25C80" />
    </g>
    <g style="mix-blend-mode:screen" opacity="0.5">
        <path
            d="M110.42 39.3993C114.67 47.1079 122.402 50.9924 127.691 48.077C132.979 45.1616 133.82 36.5492 129.57 28.8414C125.32 21.1336 117.588 17.2483 112.3 20.1629C107.013 23.0799 106.17 31.6899 110.421 39.3993H110.42Z"
            fill="#F25C80" />
    </g>
    <g style="mix-blend-mode:screen" opacity="0.5">
        <path
            d="M102.208 20.9071C106.116 22.0802 109.937 20.8571 110.742 18.1755C111.546 15.4939 109.029 12.3696 105.121 11.1965C101.213 10.0234 97.3912 11.2465 96.5873 13.9289C95.7827 16.6097 98.299 19.734 102.207 20.9071H102.208Z"
            fill="#F25C80" />
    </g>
    <g style="mix-blend-mode:screen" opacity="0.5">
        <path
            d="M81.0247 66.34C79.8976 64.2187 78.0706 62.9843 76.9418 63.5842C75.8131 64.1832 75.8107 66.3883 76.937 68.5104C78.0625 70.6308 79.8895 71.8652 81.0191 71.2654C82.1478 70.6663 82.1502 68.462 81.0247 66.3408V66.34Z"
            fill="#F25C80" />
    </g>
    <g style="mix-blend-mode:screen" opacity="0.5">
        <path
            d="M85.4592 73.9117C84.6022 72.7596 83.2646 72.3032 82.4737 72.8918C81.6843 73.4804 81.7392 74.8913 82.5986 76.0443C83.4557 77.1964 84.7925 77.6536 85.5834 77.065C86.3735 76.4764 86.3187 75.0639 85.46 73.9117H85.4592Z"
            fill="#F25C80" />
    </g>
    <path
        d="M90.0911 97.8099C89.9831 98.2276 89.8291 98.85 89.6396 99.67C89.2606 101.309 88.7124 103.73 88.1593 106.883C87.886 108.459 87.6094 110.217 87.403 112.157C87.1942 114.095 87.0346 116.213 87.0564 118.498C87.0838 120.788 87.291 123.217 87.9715 125.777C88.4068 127.052 89.1365 128.202 89.9508 129.311C90.7724 130.417 91.7044 131.477 92.7163 132.503C93.0468 132.832 93.3975 133.156 93.7426 133.481C93.4338 133.605 93.1258 133.729 92.8211 133.864C91.161 134.594 89.5469 135.475 87.9731 136.469C87.1862 136.966 86.4162 137.503 85.6623 138.079C84.9125 138.661 84.1748 139.269 83.5088 140.027C83.146 140.445 82.9695 140.873 82.7187 141.297C82.4865 141.724 82.2333 142.144 82.0181 142.583C81.8318 143.036 81.6456 143.491 81.4585 143.947C81.3715 144.178 81.2586 144.399 81.1925 144.637L80.9974 145.356C80.4096 147.257 80.2717 149.309 80.4539 151.323C80.5112 152.34 80.7506 153.33 80.957 154.332C81.2497 155.308 81.5238 156.297 81.9254 157.242C82.6792 159.149 83.6225 160.992 84.6948 162.763C86.7895 166.346 89.4171 169.634 91.444 173.311C93.5177 176.976 95.2406 180.916 96.4395 185.067C97.116 187.397 97.5981 189.76 97.9279 192.129C98.2181 191.908 98.5189 191.701 98.8115 191.484C98.4769 189.242 97.9996 187.006 97.3595 184.8C96.1372 180.571 94.3828 176.563 92.2736 172.843C90.1895 169.078 87.5611 165.799 85.5011 162.282C84.4417 160.54 83.5209 158.743 82.788 156.901C82.397 155.987 82.1342 155.039 81.8496 154.103C81.6536 153.148 81.4198 152.202 81.3658 151.24C81.1901 149.33 81.3118 147.399 81.8649 145.599L82.0463 144.919C82.1068 144.692 82.2156 144.482 82.297 144.262C82.4736 143.828 82.6494 143.395 82.8243 142.963C83.0283 142.545 83.2686 142.147 83.4879 141.739C83.7169 141.345 83.9176 140.891 84.1845 140.595C84.7634 139.931 85.4761 139.33 86.1961 138.77C86.9217 138.211 87.6715 137.685 88.4383 137.196C89.971 136.219 91.5504 135.35 93.1629 134.633C93.5773 134.448 93.995 134.273 94.415 134.109C96.0251 135.559 97.8045 136.929 99.8444 138.066C100.549 138.439 101.284 138.79 102.112 138.997C102.524 139.097 102.97 139.164 103.456 139.082C103.697 139.035 103.951 138.948 104.169 138.781C104.388 138.613 104.548 138.382 104.65 138.147C105.006 137.17 104.745 136.323 104.574 135.479C104.326 134.636 103.879 133.794 103.159 133.192C102.445 132.584 101.533 132.269 100.638 132.156C99.7363 132.041 98.8301 132.093 97.9497 132.243C96.758 132.44 95.5954 132.784 94.4553 133.206C94.0264 132.815 93.6007 132.422 93.196 132.024C92.1946 131.024 91.2731 129.993 90.466 128.924C89.6654 127.857 88.9559 126.744 88.5479 125.581C87.8852 123.171 87.6377 120.727 87.5909 118.486C87.5441 116.232 87.6764 114.129 87.8562 112.202C88.0343 110.272 88.2811 108.517 88.5262 106.942C89.0212 103.792 89.5098 101.36 89.8275 99.7087C89.9839 98.8847 90.104 98.2558 90.1854 97.8293C90.262 97.4052 90.2935 97.1859 90.2773 97.1827C90.2612 97.1786 90.1983 97.3915 90.0903 97.8083L90.0911 97.8099ZM95.1697 133.837C96.134 133.496 97.1063 133.218 98.0827 133.052C98.9099 132.905 99.7444 132.859 100.537 132.958C101.328 133.055 102.078 133.319 102.649 133.801C103.227 134.278 103.601 134.959 103.824 135.692C103.996 136.433 104.179 137.273 103.945 137.849C103.76 138.407 103.005 138.444 102.289 138.265C101.57 138.091 100.866 137.767 100.193 137.415C98.3447 136.401 96.6871 135.156 95.1697 133.837Z"
        fill="#37474F" />
    <g style="mix-blend-mode:multiply" opacity="0.4">
        <path
            d="M90.2801 97.1846C90.2801 97.1846 90.243 97.3136 90.2075 97.4579C90.1712 97.6022 90.1309 97.7602 90.1148 97.8215C89.5698 100.389 88.9861 103.161 88.4902 106.14C88.0008 109.119 87.555 112.303 87.4243 115.681C87.3486 117.368 87.3598 119.103 87.5146 120.868C87.5727 121.753 87.7114 122.639 87.8541 123.532C88.0556 124.416 88.1548 125.337 88.537 126.174C89.2803 127.862 90.4526 129.377 91.7233 130.814C92.636 131.833 93.6462 132.794 94.6968 133.725C93.9953 133.986 93.2987 134.267 92.6142 134.579C90.5865 135.529 88.6144 136.669 86.7527 138.003C85.832 138.677 84.9104 139.385 84.1364 140.223C83.7341 140.621 83.4906 141.147 83.206 141.654C82.9416 142.168 82.6054 142.649 82.4159 143.203C81.425 145.311 80.9445 147.672 80.9937 150.037C81.0364 152.407 81.6153 154.766 82.503 157.009C83.2326 158.857 84.1413 160.622 85.1555 162.308C86.1561 164.003 87.2381 165.636 88.337 167.241C90.6082 170.401 92.5336 173.763 94.1251 177.183C95.7118 180.61 96.9406 184.132 97.7621 187.674C98.0653 189.026 98.2935 190.376 98.4845 191.724C98.5926 191.644 98.703 191.566 98.8119 191.486C98.4773 189.243 98 187.008 97.3598 184.802C96.1375 180.573 94.3831 176.565 92.274 172.845C90.1898 169.08 87.5614 165.801 85.5014 162.284C84.442 160.542 83.5213 158.745 82.7884 156.903C82.3973 155.989 82.1345 155.041 81.8499 154.104C81.654 153.15 81.4202 152.204 81.3661 151.241C81.1904 149.331 81.3121 147.4 81.8652 145.601L82.0466 144.92C82.1071 144.694 82.2159 144.483 82.2974 144.264C82.4739 143.83 82.6497 143.397 82.8247 142.965C83.0286 142.547 83.2689 142.149 83.4882 141.741C83.7172 141.347 83.9179 140.893 84.1848 140.597C84.7637 139.933 85.4764 139.332 86.1964 138.772C86.922 138.213 87.6719 137.687 88.4386 137.198C89.9713 136.221 91.5507 135.352 93.1633 134.635C93.7446 134.375 94.3339 134.142 94.9257 133.926C95.2813 134.237 95.6207 134.559 95.9908 134.858C97.5469 136.101 99.2158 137.301 101.095 138.128C101.566 138.327 102.054 138.493 102.553 138.578C103.041 138.654 103.59 138.641 103.934 138.314C104.274 137.987 104.341 137.442 104.305 136.938C104.292 136.682 104.25 136.422 104.191 136.169C104.126 135.917 104.106 135.649 103.999 135.411C103.685 134.421 103.002 133.547 102.05 133.096C101.09 132.661 99.9898 132.586 98.9167 132.677C97.5654 132.805 96.2375 133.169 94.933 133.639C94.3323 133.109 93.751 132.57 93.1963 132.026C92.1949 131.026 91.2734 129.995 90.4663 128.926C89.6657 127.858 88.9562 126.746 88.5483 125.582C87.8855 123.173 87.638 120.729 87.5912 118.488C87.5445 116.234 87.6767 114.131 87.8565 112.203C88.0347 110.274 88.2814 108.519 88.5265 106.943C89.0215 103.793 89.5101 101.362 89.8278 99.7106C89.9842 98.8866 90.1043 98.2577 90.1858 97.8312C90.2624 97.4071 90.2938 97.1878 90.2777 97.1846H90.2801ZM95.1708 133.837C96.1351 133.497 97.1075 133.218 98.0838 133.052C98.911 132.906 99.7455 132.86 100.538 132.958C101.329 133.055 102.08 133.319 102.65 133.801C103.228 134.279 103.602 134.959 103.825 135.692C103.997 136.433 104.18 137.273 103.946 137.85C103.761 138.408 103.006 138.445 102.29 138.265C101.571 138.091 100.867 137.767 100.195 137.415C98.3459 136.402 96.6882 135.156 95.1708 133.837Z"
            fill="#37474F" />
    </g>
    <path
        d="M89.6594 169.713C89.6594 169.713 89.6328 169.658 89.5691 169.559C89.5046 169.46 89.4086 169.312 89.2837 169.119C89.0273 168.736 88.6508 168.17 88.1646 167.442C87.2003 165.981 85.7482 163.895 84.2349 161.147C82.7667 158.407 81.1066 154.935 80.8277 150.765C80.714 148.694 80.9978 146.502 81.7436 144.372C81.9564 143.85 82.1717 143.324 82.3886 142.793C82.6377 142.277 82.9393 141.782 83.215 141.27C83.7052 140.193 84.6727 139.429 85.5781 138.669C87.4535 137.194 89.4498 135.97 91.4549 134.951C93.4641 133.946 95.4926 133.115 97.526 132.704C98.5403 132.502 99.5586 132.402 100.538 132.514C101.512 132.621 102.456 132.978 103.128 133.63C103.809 134.277 104.161 135.151 104.334 135.984C104.435 136.402 104.498 136.821 104.491 137.238C104.487 137.65 104.393 138.079 104.114 138.391C103.827 138.701 103.404 138.799 103.029 138.8C102.647 138.802 102.284 138.724 101.94 138.63C101.256 138.431 100.646 138.148 100.091 137.864C98.9821 137.287 98.0904 136.682 97.372 136.177C96.6561 135.669 96.1175 135.249 95.7539 134.963C95.5725 134.82 95.4346 134.712 95.3403 134.637C95.2467 134.564 95.1975 134.529 95.1943 134.532C95.1911 134.536 95.2346 134.578 95.3225 134.658C95.4128 134.737 95.5458 134.852 95.72 135.003C96.0739 135.303 96.602 135.736 97.3115 136.26C98.0227 136.779 98.9095 137.398 100.022 137.993C100.58 138.287 101.193 138.579 101.893 138.79C102.245 138.89 102.619 138.974 103.028 138.977C103.427 138.978 103.909 138.878 104.249 138.518C104.576 138.155 104.675 137.677 104.683 137.243C104.694 136.801 104.63 136.372 104.53 135.941C104.357 135.085 103.996 134.165 103.277 133.475C102.568 132.778 101.569 132.398 100.563 132.285C99.5489 132.165 98.508 132.265 97.476 132.467C95.408 132.878 93.3625 133.713 91.3364 134.721C89.3151 135.745 87.3084 136.972 85.4129 138.464C84.9452 138.848 84.4808 139.231 84.0567 139.666C83.8447 139.886 83.6351 140.101 83.448 140.362C83.2505 140.613 83.1449 140.879 82.9892 141.135C82.7095 141.655 82.4047 142.158 82.1515 142.681C81.9331 143.22 81.7146 143.755 81.4993 144.285C80.7446 146.449 80.4616 148.679 80.5842 150.779C80.6874 152.889 81.2647 154.822 81.8815 156.569C82.0508 157.002 82.2177 157.427 82.3813 157.845C82.57 158.25 82.7546 158.649 82.936 159.039C83.2835 159.829 83.7084 160.538 84.0712 161.237C85.6112 163.984 87.0882 166.056 88.0791 167.5C88.5822 168.215 88.9725 168.771 89.2385 169.148C89.3732 169.335 89.4764 169.476 89.5457 169.573C89.6159 169.668 89.6545 169.715 89.6578 169.713H89.6594Z"
        fill="#37474F" />
    <path
        d="M98.0353 192.049C97.683 189.5 97.1815 187.229 96.655 185.406C96.468 184.584 96.1818 183.875 95.9923 183.233C95.7827 182.599 95.6206 182.045 95.4577 181.603C95.2892 181.164 95.1578 180.822 95.0699 180.591C94.9821 180.358 94.9434 180.233 94.9434 180.233C94.9434 180.233 95.0006 180.351 95.0965 180.58C95.1909 180.81 95.3304 181.148 95.5102 181.585C95.6803 182.024 95.8512 182.576 96.0673 183.209C96.2648 183.849 96.5583 184.558 96.7518 185.38C97.288 187.185 97.7983 189.435 98.1579 191.96C98.1176 191.991 98.0757 192.019 98.0353 192.05V192.049Z"
        fill="#37474F" />
    <g opacity="0.5">
        <path
            d="M122.212 253.34L125.486 258.366C125.486 258.366 121.059 263.415 114.527 258.696L117.767 252.762C117.767 252.762 121.315 250.973 122.212 253.34Z"
            fill="white" />
    </g>
    <g opacity="0.5">
        <path
            d="M118.96 255.275C120.536 254.876 121.73 254.268 122.505 253.787L122.213 253.339L125.487 258.364L125.239 257.985C118.431 261.61 116.151 255.987 118.96 255.275Z"
            fill="white" />
    </g>
    <g opacity="0.5">
        <path
            d="M83.6527 201.717C83.7349 227.501 107.018 253.188 120.122 253.147C132.414 253.106 156.073 225.793 155.991 200.01C155.909 174.228 139.068 161.954 118.487 162.02C97.9065 162.086 83.5713 175.935 83.6527 201.717Z"
            fill="white" />
    </g>
    <path
        d="M100.289 217.968C100.291 218.377 100.624 218.708 101.032 218.706C101.441 218.705 101.772 218.372 101.771 217.963C101.769 217.554 101.437 217.224 101.028 217.225C100.62 217.226 100.289 217.559 100.29 217.967L100.289 217.968Z"
        fill="white" />
    <path
        d="M97.6094 214.126C97.611 214.699 98.0762 215.162 98.6494 215.161C99.2219 215.159 99.6847 214.692 99.6823 214.121C99.6807 213.548 99.2154 213.085 98.6422 213.088C98.0698 213.089 97.6078 213.555 97.6094 214.127V214.126Z"
        fill="white" />
    <path
        d="M94.3633 217.986C94.3649 218.395 94.6971 218.726 95.1058 218.724C95.5154 218.722 95.8452 218.39 95.8444 217.981C95.8444 217.571 95.5114 217.241 95.1018 217.242C94.693 217.244 94.3625 217.576 94.3641 217.985L94.3633 217.986Z"
        fill="white" />
    <path
        d="M141.149 213.246C141.152 213.737 141.551 214.134 142.041 214.132C142.533 214.131 142.929 213.732 142.927 213.241C142.925 212.751 142.526 212.354 142.035 212.355C141.544 212.357 141.148 212.756 141.148 213.246L141.149 213.246Z"
        fill="white" />
    <path
        d="M137.9 215.924C137.902 216.415 138.301 216.811 138.792 216.809C139.282 216.807 139.679 216.408 139.677 215.917C139.676 215.426 139.277 215.03 138.786 215.031C138.295 215.033 137.899 215.432 137.9 215.923V215.924Z"
        fill="white" />
    <path
        d="M89.623 217.412C89.6239 217.658 89.8238 217.856 90.0689 217.854C90.314 217.854 90.5132 217.654 90.5123 217.408C90.5115 217.163 90.3116 216.965 90.0665 216.966C89.8214 216.966 89.6222 217.166 89.623 217.412Z"
        fill="white" />
    <path
        d="M143.834 219.015C143.836 219.261 144.035 219.459 144.281 219.458C144.525 219.457 144.724 219.258 144.723 219.012C144.723 218.768 144.523 218.569 144.277 218.569C144.032 218.569 143.834 218.77 143.835 219.015H143.834Z"
        fill="white" />
    <path
        d="M114.424 222.909C114.425 223.182 114.646 223.403 114.919 223.402C115.191 223.401 115.411 223.179 115.411 222.907C115.411 222.634 115.189 222.413 114.916 222.414C114.643 222.415 114.423 222.637 114.424 222.909Z"
        fill="white" />
    <path
        d="M110.859 220.452C110.86 220.671 111.038 220.847 111.255 220.846C111.474 220.846 111.649 220.668 111.65 220.449C111.649 220.231 111.471 220.055 111.253 220.056C111.035 220.056 110.859 220.235 110.859 220.452V220.452Z"
        fill="white" />
    <path
        d="M112.257 224.497C112.258 224.661 112.391 224.793 112.554 224.792C112.718 224.792 112.851 224.659 112.849 224.495C112.848 224.331 112.716 224.199 112.552 224.199C112.388 224.199 112.256 224.332 112.256 224.497H112.257Z"
        fill="white" />
    <path
        d="M113.67 234.168C113.67 234.44 113.892 234.66 114.166 234.66C114.437 234.659 114.658 234.437 114.657 234.165C114.657 233.892 114.435 233.671 114.163 233.672C113.89 233.673 113.669 233.894 113.671 234.168H113.67Z"
        fill="white" />
    <path
        d="M116.253 239.294C116.254 239.567 116.475 239.787 116.749 239.786C117.021 239.786 117.241 239.564 117.24 239.291C117.24 239.018 117.018 238.798 116.745 238.799C116.473 238.8 116.251 239.021 116.252 239.294H116.253Z"
        fill="white" />
    <path
        d="M124.744 238.773C124.747 239.319 125.19 239.759 125.735 239.758C126.28 239.756 126.721 239.313 126.719 238.768C126.718 238.223 126.274 237.782 125.729 237.783C125.184 237.785 124.743 238.229 124.744 238.774V238.773Z"
        fill="white" />
    <path
        d="M121.957 231.969C121.959 232.35 122.269 232.659 122.65 232.658C123.032 232.657 123.341 232.346 123.34 231.965C123.338 231.584 123.028 231.275 122.646 231.276C122.265 231.277 121.956 231.588 121.958 231.97L121.957 231.969Z"
        fill="white" />
    <path
        d="M129.256 229.972C129.257 230.244 129.478 230.465 129.751 230.464C130.023 230.464 130.244 230.242 130.243 229.969C130.243 229.696 130.022 229.476 129.748 229.477C129.476 229.477 129.255 229.699 129.257 229.972H129.256Z"
        fill="white" />
    <path
        d="M126.266 221.489C126.267 221.763 126.488 221.983 126.761 221.982C127.035 221.981 127.255 221.759 127.254 221.487C127.254 221.214 127.032 220.994 126.758 220.995C126.486 220.996 126.266 221.218 126.266 221.49V221.489Z"
        fill="white" />
    <path
        d="M141.504 231.414C141.504 231.741 141.771 232.005 142.099 232.004C142.425 232.004 142.69 231.738 142.688 231.41C142.688 231.083 142.422 230.819 142.094 230.819C141.767 230.82 141.503 231.086 141.504 231.414Z"
        fill="white" />
    <path
        d="M141.092 225.986C141.093 226.368 141.404 226.676 141.785 226.675C142.167 226.675 142.475 226.363 142.475 225.982C142.473 225.6 142.163 225.291 141.781 225.293C141.399 225.295 141.09 225.605 141.092 225.986Z"
        fill="white" />
    <path
        d="M139.521 228.952C139.521 229.116 139.655 229.247 139.818 229.247C139.982 229.247 140.114 229.114 140.114 228.95C140.113 228.787 139.98 228.654 139.817 228.655C139.653 228.655 139.52 228.788 139.521 228.952Z"
        fill="white" />
    <path
        d="M135.365 225.707C135.366 225.925 135.543 226.101 135.762 226.101C135.98 226.101 136.156 225.922 136.155 225.704C136.155 225.486 135.977 225.31 135.759 225.311C135.542 225.311 135.364 225.49 135.365 225.707Z"
        fill="white" />
    <path
        d="M132.824 234.404C132.824 234.512 132.914 234.601 133.022 234.6C133.131 234.6 133.22 234.511 133.219 234.402C133.219 234.293 133.13 234.205 133.021 234.205C132.912 234.205 132.824 234.294 132.824 234.404Z"
        fill="white" />
    <path
        d="M124.951 242.031C124.953 242.414 125.263 242.722 125.645 242.72C126.026 242.718 126.335 242.408 126.333 242.027C126.332 241.646 126.022 241.337 125.64 241.339C125.259 241.34 124.95 241.65 124.951 242.031Z"
        fill="white" />
    <path
        d="M100.799 223.645C100.8 223.973 101.067 224.237 101.394 224.236C101.72 224.235 101.985 223.969 101.985 223.642C101.983 223.314 101.717 223.05 101.39 223.051C101.063 223.052 100.799 223.318 100.799 223.645Z"
        fill="white" />
    <path
        d="M96.8516 223.756C96.8516 224.138 97.1636 224.446 97.5449 224.444C97.9263 224.444 98.2343 224.133 98.2335 223.751C98.2327 223.37 97.9223 223.062 97.5409 223.063C97.1595 223.063 96.8507 223.374 96.8524 223.755L96.8516 223.756Z"
        fill="white" />
    <path
        d="M99.2344 227.995C99.2344 228.213 99.4126 228.389 99.6303 228.388C99.8479 228.387 100.024 228.21 100.024 227.992C100.023 227.773 99.8455 227.598 99.6278 227.598C99.4093 227.598 99.2328 227.777 99.2344 227.994V227.995Z"
        fill="white" />
    <path
        d="M95.8797 228.596C95.8797 228.814 96.0579 228.99 96.2748 228.99C96.4933 228.989 96.6698 228.811 96.6682 228.594C96.6682 228.375 96.49 228.199 96.2724 228.2C96.0547 228.2 95.8781 228.378 95.8789 228.596H95.8797Z"
        fill="white" />
    <path
        d="M102.826 239.535C102.828 239.808 103.05 240.029 103.321 240.027C103.594 240.026 103.815 239.804 103.813 239.532C103.813 239.26 103.591 239.039 103.318 239.04C103.045 239.041 102.825 239.263 102.826 239.535Z"
        fill="white" />
    <path
        d="M125.852 245.954C125.852 246.077 125.952 246.176 126.074 246.176C126.197 246.176 126.297 246.075 126.296 245.952C126.296 245.83 126.195 245.731 126.073 245.731C125.95 245.731 125.851 245.831 125.852 245.954Z"
        fill="white" />
    <path
        d="M126.009 248.84C126.01 249.249 126.342 249.58 126.751 249.579C127.16 249.577 127.491 249.244 127.489 248.836C127.488 248.427 127.155 248.096 126.746 248.098C126.337 248.098 126.007 248.432 126.008 248.841L126.009 248.84Z"
        fill="white" />
    <path
        d="M119.498 249.972C119.498 250.176 119.666 250.343 119.87 250.342C120.075 250.342 120.24 250.174 120.239 249.971C120.238 249.766 120.071 249.601 119.867 249.602C119.664 249.602 119.498 249.768 119.499 249.973L119.498 249.972Z"
        fill="white" />
    <path
        d="M133.545 242.67C133.545 242.874 133.712 243.038 133.917 243.038C134.121 243.038 134.286 242.871 134.286 242.667C134.284 242.462 134.118 242.298 133.914 242.298C133.709 242.298 133.544 242.465 133.545 242.67Z"
        fill="white" />
    <path
        d="M118.252 231.018C118.252 231.304 118.486 231.536 118.772 231.535C119.058 231.533 119.29 231.301 119.289 231.015C119.287 230.728 119.055 230.497 118.769 230.499C118.483 230.499 118.251 230.732 118.252 231.018Z"
        fill="white" />
    <path
        d="M106.135 239.944C106.135 240.067 106.234 240.167 106.357 240.165C106.479 240.165 106.579 240.065 106.578 239.942C106.578 239.82 106.478 239.72 106.356 239.721C106.233 239.721 106.133 239.821 106.135 239.944Z"
        fill="white" />
    <path
        d="M112.67 245.403C112.67 245.607 112.837 245.772 113.041 245.772C113.246 245.772 113.41 245.605 113.41 245.401C113.409 245.198 113.243 245.032 113.038 245.032C112.834 245.032 112.668 245.199 112.67 245.403Z"
        fill="white" />
    <path
        d="M98.2676 234.34C98.2684 234.708 98.5675 235.005 98.936 235.005C99.3044 235.004 99.6019 234.704 99.5995 234.336C99.5995 233.968 99.2996 233.671 98.9319 233.672C98.5643 233.673 98.266 233.973 98.2676 234.34Z"
        fill="white" />
    <path
        d="M103.581 228.622C103.582 228.867 103.782 229.065 104.028 229.065C104.273 229.063 104.471 228.864 104.47 228.618C104.469 228.373 104.27 228.175 104.024 228.176C103.778 228.177 103.581 228.377 103.58 228.622H103.581Z"
        fill="white" />
    <path
        d="M93.3582 227.469C93.359 227.633 93.4921 227.765 93.6557 227.764C93.8194 227.764 93.9516 227.631 93.9508 227.468C93.9508 227.304 93.8178 227.171 93.6533 227.172C93.4888 227.172 93.3566 227.306 93.3574 227.469H93.3582Z"
        fill="white" />
    <path
        d="M120.579 217.976C120.581 218.262 120.813 218.494 121.099 218.493C121.385 218.491 121.617 218.259 121.615 217.973C121.615 217.687 121.382 217.455 121.096 217.456C120.81 217.456 120.577 217.69 120.578 217.976H120.579Z"
        fill="white" />
    <path
        d="M118.96 221.389C118.961 221.593 119.127 221.759 119.331 221.759C119.535 221.757 119.701 221.591 119.701 221.387C119.7 221.183 119.533 221.017 119.329 221.019C119.125 221.019 118.959 221.185 118.959 221.39L118.96 221.389Z"
        fill="white" />
    <g opacity="0.5">
        <path
            d="M129.836 189.853C130.784 188.438 131.718 187.014 132.623 185.572C134.766 182.161 136.954 178.677 138.983 175.101C143.999 179.18 147.576 185.156 148.901 193.108C148.881 193.137 148.862 193.167 148.843 193.197C145.697 198.007 142.222 202.611 138.37 206.879C136.887 208.521 135.359 210.128 133.786 211.688C133.949 210.25 134.037 208.811 134.032 207.377C134.009 200.335 132.478 194.51 129.836 189.852V189.853Z"
            fill="white" />
    </g>
    <g opacity="0.5">
        <path
            d="M118.229 168.439C125.26 168.416 131.763 170.128 136.998 173.632C134.929 177.301 132.677 180.865 130.477 184.326C129.788 185.41 129.088 186.485 128.379 187.553C122.716 179.563 113.346 175.693 102.788 175.726C101.191 175.732 99.6391 175.838 98.1387 176.04C103.199 171.055 110.133 168.464 118.23 168.439H118.229Z"
            fill="white" />
    </g>
    <g opacity="0.5">
        <path
            d="M139.935 207.029C143.271 203.199 146.33 199.171 149.163 194.967C149.357 196.599 149.468 198.301 149.473 200.09C149.542 221.568 129.832 244.322 119.592 244.355C118.872 244.358 118.115 244.265 117.33 244.087C124.571 236.92 131.538 225.532 133.491 213.811C135.744 211.64 137.896 209.371 139.935 207.029Z"
            fill="white" />
    </g>
    <g opacity="0.5">
        <path
            d="M152.537 203.087C152.459 178.622 136.629 166.977 117.283 167.038C104.238 167.08 93.8714 173.075 88.5195 184.47C93.3143 170.883 104.387 163.706 118.664 163.66C138.01 163.598 153.841 175.245 153.919 199.71C153.942 206.872 152.05 214.156 149.076 220.88C151.24 215.128 152.557 209.065 152.537 203.087Z"
            fill="white" />
    </g>
    <g opacity="0.5">
        <path
            d="M86.7985 193.985C86.7025 195.367 86.6534 196.79 86.6582 198.258C86.7332 221.668 107.874 244.991 119.77 244.953C129.591 244.922 147.398 225.718 151.485 205.159C150.156 227.824 129.764 250.941 118.988 250.977C107.091 251.016 85.9495 227.691 85.8753 204.281C85.8632 200.575 86.1833 197.141 86.7993 193.985H86.7985ZM95.1166 177.026C94.3902 177.779 93.7033 178.58 93.0542 179.427C92.7414 181.077 92.5245 182.807 92.427 184.634C93.0284 181.832 93.933 179.292 95.1174 177.027L95.1166 177.026Z"
            fill="white" />
    </g>
    <g opacity="0.5">
        <path
            d="M92.7176 181.616C92.9136 180.707 93.1506 179.835 93.4094 178.981C93.9552 178.297 94.5196 177.639 95.1163 177.02C93.9319 179.284 93.0272 181.826 92.4258 184.627C92.4846 183.532 92.5903 182.478 92.7297 181.451C92.7249 181.506 92.7193 181.56 92.7168 181.616H92.7176Z"
            fill="white" />
    </g>
    <g opacity="0.5">
        <path
            d="M86.3179 197.055C86.2236 198.42 86.1623 199.816 86.1672 201.266C86.2421 224.676 107.382 247.999 119.279 247.961C129.565 247.928 148.598 226.865 151.466 205.24C151.471 205.212 151.479 205.184 151.485 205.154C150.156 227.819 129.764 250.936 118.988 250.972C107.091 251.011 85.9495 227.686 85.8753 204.276C85.8672 201.737 86.0269 199.335 86.3179 197.054V197.055Z"
            fill="white" />
    </g>
    <g opacity="0.5">
        <path
            d="M113.926 206.43C125.893 214.578 137.156 218.194 144.261 207.759C151.366 197.325 147.424 182.261 135.457 174.112C123.491 165.963 108.029 167.817 100.924 178.251C93.8196 188.685 101.96 198.281 113.926 206.43Z"
            fill="white" />
    </g>
    <g opacity="0.5">
        <path
            d="M124.686 197.194C129.986 203.405 137.737 205.492 141.998 201.855C146.259 198.219 145.416 190.237 140.116 184.026C134.815 177.816 127.066 175.729 122.804 179.364C118.544 183.001 119.387 190.983 124.686 197.193V197.194Z"
            fill="white" />
    </g>
    <g opacity="0.5">
        <path
            d="M113.773 181.923C117.543 182.259 120.786 180.434 121.018 177.848C121.248 175.261 118.379 172.893 114.609 172.557C110.838 172.22 107.595 174.044 107.364 176.631C107.135 179.218 110.004 181.587 113.774 181.923H113.773Z"
            fill="white" />
    </g>
    <g opacity="0.5">
        <path
            d="M103.008 227.157C101.589 225.44 99.6982 224.66 98.7839 225.415C97.8704 226.171 98.2792 228.174 99.699 229.892C101.117 231.608 103.008 232.389 103.922 231.633C104.836 230.878 104.427 228.874 103.008 227.157Z"
            fill="white" />
    </g>
    <g opacity="0.5">
        <path
            d="M108.451 233.209C107.457 232.323 106.157 232.157 105.548 232.84C104.941 233.523 105.254 234.795 106.249 235.68C107.243 236.567 108.544 236.733 109.152 236.051C109.76 235.369 109.446 234.096 108.452 233.209H108.451Z"
            fill="white" />
    </g>
    <g opacity="0.5">
        <path
            d="M92.6851 296.028L98.6829 296.091C98.6829 296.091 100.428 302.575 92.8786 305.393L89.7383 299.405C89.7383 299.405 90.2188 295.46 92.6851 296.028Z"
            fill="white" />
    </g>
    <g opacity="0.5">
        <path
            d="M92.4907 299.808C93.0334 298.275 93.1898 296.946 93.2196 296.034L92.6843 296.028L98.682 296.092L98.2281 296.088C97.4686 303.764 91.5241 302.54 92.4907 299.808Z"
            fill="white" />
    </g>
    <g opacity="0.5">
        <path
            d="M28.3493 299.467C49.8464 313.702 84.1356 308.58 91.3709 297.655C98.1563 287.405 88.5563 252.568 67.0591 238.334C45.562 224.099 26.0079 231.302 14.6446 248.462C3.28202 265.622 6.85292 285.232 28.3493 299.467Z"
            fill="white" />
    </g>
    <path
        d="M51.0995 294.643C51.4405 294.868 51.9009 294.775 52.1259 294.435C52.3508 294.094 52.2581 293.634 51.917 293.408C51.576 293.182 51.1164 293.276 50.8907 293.617C50.6649 293.958 50.7584 294.418 51.0995 294.643V294.643Z"
        fill="white" />
    <path
        d="M46.4178 294.739C46.8951 295.055 47.5385 294.926 47.8553 294.447C48.1714 293.97 48.04 293.326 47.5627 293.011C47.0854 292.694 46.442 292.825 46.1259 293.303C45.8091 293.78 45.9405 294.423 46.4178 294.739Z"
        fill="white" />
    <path
        d="M47.83 299.582C48.171 299.807 48.6306 299.715 48.8563 299.374C49.0821 299.032 48.9885 298.573 48.6475 298.347C48.3065 298.121 47.8477 298.214 47.6211 298.556C47.3954 298.897 47.4889 299.357 47.83 299.582Z"
        fill="white" />
    <path
        d="M69.8383 258.027C70.2479 258.297 70.7994 258.185 71.0703 257.777C71.342 257.367 71.2299 256.816 70.8203 256.545C70.4108 256.275 69.8593 256.387 69.5892 256.796C69.3183 257.204 69.4304 257.756 69.8391 258.027L69.8383 258.027Z"
        fill="white" />
    <path
        d="M70.2645 262.215C70.6733 262.486 71.2248 262.373 71.4957 261.964C71.7666 261.555 71.6545 261.004 71.2449 260.733C70.8354 260.462 70.2847 260.574 70.013 260.983C69.7421 261.392 69.8541 261.944 70.2637 262.215H70.2645Z"
        fill="white" />
    <path
        d="M44.7185 303.207C44.9233 303.342 45.199 303.286 45.3345 303.082C45.4699 302.877 45.4143 302.601 45.2095 302.466C45.0047 302.33 44.729 302.386 44.5935 302.591C44.4581 302.795 44.5137 303.071 44.7185 303.207Z"
        fill="white" />
    <path
        d="M76.1292 258.992C76.3348 259.127 76.6089 259.071 76.7452 258.867C76.8798 258.663 76.8242 258.387 76.6194 258.252C76.4154 258.116 76.1389 258.173 76.0034 258.376C75.868 258.58 75.9244 258.857 76.1292 258.992Z"
        fill="white" />
    <path
        d="M63.0546 285.625C63.282 285.775 63.5884 285.713 63.7392 285.486C63.8891 285.259 63.8278 284.953 63.6005 284.802C63.3731 284.652 63.0667 284.713 62.916 284.941C62.766 285.168 62.8273 285.474 63.0546 285.625Z"
        fill="white" />
    <path
        d="M59.0322 287.225C59.2144 287.345 59.4595 287.295 59.5796 287.114C59.7006 286.931 59.6498 286.687 59.4684 286.565C59.287 286.445 59.0418 286.495 58.9209 286.677C58.8008 286.859 58.8508 287.105 59.0322 287.225Z"
        fill="white" />
    <path
        d="M63.1723 288.307C63.3093 288.398 63.4931 288.36 63.5826 288.223C63.6729 288.087 63.6367 287.903 63.4996 287.813C63.3625 287.723 63.1795 287.76 63.0884 287.896C62.9981 288.032 63.0352 288.216 63.1714 288.307H63.1723Z"
        fill="white" />
    <path
        d="M72.003 292.497C72.2304 292.647 72.536 292.584 72.6875 292.357C72.8367 292.131 72.7746 291.824 72.5473 291.673C72.3199 291.523 72.0135 291.584 71.8636 291.812C71.7128 292.039 71.7749 292.346 72.003 292.497Z"
        fill="white" />
    <path
        d="M77.6998 293.192C77.928 293.343 78.2335 293.281 78.3851 293.052C78.5351 292.825 78.473 292.519 78.2448 292.368C78.0174 292.218 77.7119 292.28 77.5603 292.507C77.4103 292.735 77.4724 293.041 77.699 293.192H77.6998Z"
        fill="white" />
    <path
        d="M81.9764 285.839C82.432 286.14 83.0439 286.015 83.3454 285.56C83.647 285.106 83.5228 284.494 83.0665 284.193C82.6126 283.891 81.9998 284.016 81.6991 284.47C81.3983 284.925 81.5233 285.538 81.9764 285.839Z"
        fill="white" />
    <path
        d="M74.771 284.383C75.0895 284.594 75.5184 284.506 75.7289 284.189C75.9393 283.87 75.8522 283.441 75.5338 283.231C75.2153 283.021 74.7872 283.108 74.5759 283.426C74.3655 283.744 74.4518 284.173 74.7702 284.384L74.771 284.383Z"
        fill="white" />
    <path
        d="M77.1581 277.201C77.3847 277.351 77.6911 277.289 77.8418 277.062C77.9926 276.834 77.9305 276.528 77.7032 276.378C77.4758 276.226 77.1694 276.288 77.0195 276.517C76.8695 276.744 76.9308 277.05 77.1589 277.201H77.1581Z"
        fill="white" />
    <path
        d="M68.4422 274.982C68.6703 275.133 68.9759 275.071 69.1267 274.843C69.2775 274.615 69.2154 274.309 68.9872 274.158C68.7598 274.008 68.4535 274.07 68.3027 274.298C68.1527 274.525 68.214 274.831 68.4414 274.982H68.4422Z"
        fill="white" />
    <path
        d="M85.1521 267.809C85.4246 267.991 85.7922 267.916 85.9728 267.642C86.1534 267.37 86.0792 267.002 85.8059 266.822C85.5334 266.642 85.1666 266.716 84.9852 266.989C84.8046 267.262 84.8795 267.629 85.1521 267.81V267.809Z"
        fill="white" />
    <path
        d="M80.4069 265.141C80.7254 265.351 81.1535 265.264 81.3647 264.946C81.576 264.628 81.4881 264.198 81.1704 263.988C80.852 263.777 80.423 263.864 80.2126 264.183C80.0022 264.501 80.0884 264.93 80.4077 265.141H80.4069Z"
        fill="white" />
    <path
        d="M82.004 268.093C82.1403 268.183 82.3233 268.146 82.4144 268.01C82.5047 267.873 82.4676 267.69 82.3314 267.599C82.1951 267.509 82.0113 267.546 81.921 267.682C81.8299 267.819 81.867 268.003 82.004 268.093Z"
        fill="white" />
    <path
        d="M76.997 269.753C77.1784 269.873 77.4235 269.823 77.5445 269.641C77.6646 269.46 77.6146 269.214 77.4324 269.094C77.251 268.974 77.0059 269.024 76.8858 269.204C76.7656 269.386 76.8156 269.632 76.997 269.753Z"
        fill="white" />
    <path
        d="M82.8242 276.689C82.9145 276.749 83.0379 276.724 83.0967 276.634C83.1572 276.543 83.133 276.419 83.0411 276.36C82.95 276.3 82.8274 276.325 82.767 276.416C82.7073 276.507 82.7315 276.629 82.8234 276.69L82.8242 276.689Z"
        fill="white" />
    <path
        d="M84.8013 287.473C85.1198 287.684 85.5479 287.597 85.7591 287.279C85.9695 286.961 85.8825 286.532 85.5648 286.322C85.2471 286.112 84.8182 286.198 84.607 286.516C84.3965 286.834 84.4836 287.263 84.8013 287.473Z"
        fill="white" />
    <path
        d="M56.1052 297.366C56.3793 297.547 56.7453 297.472 56.9268 297.199C57.1065 296.927 57.0332 296.559 56.7599 296.378C56.4865 296.199 56.1181 296.273 55.9383 296.545C55.7577 296.818 55.8327 297.185 56.1052 297.366Z"
        fill="white" />
    <path
        d="M54.0079 300.711C54.3263 300.923 54.7553 300.835 54.9657 300.517C55.1761 300.199 55.0899 299.771 54.7714 299.56C54.4537 299.35 54.0248 299.437 53.8144 299.754C53.6031 300.072 53.691 300.502 54.0087 300.711H54.0079Z"
        fill="white" />
    <path
        d="M58.8572 301.081C59.0386 301.201 59.2837 301.151 59.4038 300.97C59.5239 300.788 59.4739 300.543 59.2925 300.423C59.1103 300.303 58.866 300.352 58.7451 300.534C58.625 300.716 58.6749 300.962 58.8572 301.081Z"
        fill="white" />
    <path
        d="M57.4982 304.207C57.6796 304.327 57.9247 304.277 58.0448 304.097C58.1649 303.915 58.115 303.669 57.9336 303.549C57.7521 303.428 57.507 303.478 57.3861 303.661C57.2652 303.842 57.316 304.088 57.4974 304.207H57.4982Z"
        fill="white" />
    <path
        d="M70.4517 304.497C70.6791 304.647 70.9862 304.585 71.1354 304.359C71.2862 304.131 71.2241 303.825 70.9959 303.674C70.7694 303.523 70.463 303.585 70.3122 303.813C70.1622 304.039 70.2243 304.347 70.4517 304.497Z"
        fill="white" />
    <path
        d="M88.5661 288.9C88.6685 288.968 88.8064 288.939 88.8741 288.838C88.9419 288.735 88.9136 288.598 88.8121 288.529C88.7097 288.461 88.5718 288.49 88.5041 288.591C88.4355 288.694 88.4646 288.831 88.5661 288.899V288.9Z"
        fill="white" />
    <path
        d="M91.0546 290.369C91.3956 290.595 91.8552 290.501 92.0809 290.16C92.3067 289.819 92.2132 289.359 91.8721 289.134C91.5311 288.908 91.0707 289.001 90.8457 289.342C90.62 289.684 90.7135 290.143 91.0546 290.369Z"
        fill="white" />
    <path
        d="M88.3828 296.416C88.5529 296.528 88.7835 296.482 88.8956 296.312C89.0092 296.141 88.9617 295.911 88.7916 295.799C88.6206 295.686 88.3908 295.733 88.278 295.904C88.1659 296.073 88.2119 296.304 88.3828 296.416V296.416Z"
        fill="white" />
    <path
        d="M90.0999 280.679C90.2701 280.791 90.499 280.745 90.6127 280.574C90.7256 280.403 90.6788 280.174 90.5087 280.061C90.3378 279.949 90.108 279.996 89.9951 280.165C89.8822 280.336 89.929 280.566 90.0999 280.679Z"
        fill="white" />
    <path
        d="M71.9214 286.939C72.1601 287.097 72.4818 287.031 72.6406 286.793C72.7978 286.554 72.7333 286.232 72.4947 286.074C72.2552 285.916 71.9343 285.982 71.7763 286.221C71.6174 286.46 71.6827 286.782 71.9214 286.94V286.939Z"
        fill="white" />
    <path
        d="M72.6273 301.97C72.7289 302.038 72.8676 302.01 72.9345 301.908C73.0022 301.806 72.9748 301.667 72.8724 301.6C72.77 301.532 72.6322 301.559 72.5644 301.662C72.4967 301.764 72.5241 301.903 72.6273 301.969V301.97Z"
        fill="white" />
    <path
        d="M80.7925 299.562C80.9626 299.675 81.1924 299.628 81.3053 299.458C81.4182 299.287 81.3714 299.058 81.2013 298.945C81.0312 298.833 80.8014 298.879 80.6885 299.049C80.5756 299.219 80.6224 299.45 80.7925 299.562Z"
        fill="white" />
    <path
        d="M63.6007 305.406C63.907 305.609 64.3206 305.525 64.5246 305.219C64.7278 304.911 64.6431 304.498 64.3368 304.296C64.0304 304.092 63.6168 304.177 63.4136 304.483C63.2104 304.789 63.2943 305.204 63.6015 305.406H63.6007Z"
        fill="white" />
    <path
        d="M61.7886 297.815C61.9934 297.95 62.2691 297.894 62.4054 297.689C62.54 297.485 62.4844 297.209 62.2796 297.073C62.0748 296.939 61.7999 296.994 61.6636 297.199C61.5282 297.404 61.5846 297.679 61.7886 297.815Z"
        fill="white" />
    <path
        d="M55.1605 305.68C55.2968 305.769 55.4814 305.732 55.5709 305.596C55.6612 305.459 55.6241 305.276 55.4879 305.185C55.3508 305.095 55.167 305.131 55.0767 305.268C54.9864 305.405 55.0235 305.589 55.1597 305.68H55.1605Z"
        fill="white" />
    <path
        d="M62.363 277.766C62.6025 277.923 62.9234 277.859 63.0814 277.62C63.2394 277.382 63.1741 277.06 62.9346 276.902C62.696 276.744 62.3751 276.808 62.2171 277.047C62.0591 277.286 62.1244 277.607 62.363 277.766Z"
        fill="white" />
    <path
        d="M64.3042 281.007C64.4744 281.12 64.7041 281.072 64.8178 280.902C64.9299 280.732 64.8831 280.502 64.713 280.388C64.5429 280.276 64.3123 280.322 64.2002 280.492C64.0874 280.662 64.1341 280.893 64.3042 281.006V281.007Z"
        fill="white" />
    <g opacity="0.5">
        <path
            d="M44.0975 254.46C43.446 252.886 42.7793 251.32 42.0827 249.767C40.4331 246.092 38.748 242.339 36.8984 238.666C43.076 236.756 50.0323 237.096 57.3829 240.404C57.3958 240.437 57.4103 240.469 57.4249 240.502C59.6824 245.788 61.5851 251.232 62.9993 256.805C63.5435 258.95 64.0329 261.113 64.4578 263.288C63.3516 262.354 62.2035 261.482 61.007 260.691C55.1351 256.803 49.4389 254.845 44.0983 254.46H44.0975Z"
            fill="white" />
    </g>
    <g opacity="0.5">
        <path
            d="M19.843 252.239C23.7252 246.375 28.757 241.914 34.5757 239.503C36.4809 243.259 38.1974 247.111 39.8559 250.861C40.3759 252.035 40.8814 253.214 41.3773 254.398C31.5877 254.677 23.1696 260.325 17.3396 269.13C16.4584 270.461 15.686 271.81 15.0216 273.171C13.6808 266.196 15.3724 258.989 19.8422 252.239H19.843Z"
            fill="white" />
    </g>
    <g opacity="0.5">
        <path
            d="M63.9927 255.588C62.6576 250.687 61.0023 245.908 59.0762 241.218C60.5411 241.962 62.019 242.814 63.5106 243.802C81.4191 255.66 89.4171 284.681 83.7637 293.22C83.3662 293.821 82.8695 294.398 82.2858 294.953C80.3395 284.953 74.7296 272.838 66.0607 264.71C65.5044 261.632 64.8102 258.583 63.9927 255.587V255.588Z"
            fill="white" />
    </g>
    <g opacity="0.5">
        <path
            d="M67.7027 242.919C47.3044 229.412 28.8332 236.122 18.1519 252.253C10.9505 263.129 10.1869 275.08 16.699 285.854C8.05439 274.328 8.22612 261.134 16.1081 249.23C26.7893 233.099 45.2614 226.388 65.6596 239.896C71.6307 243.85 76.6424 249.465 80.5874 255.67C77.002 250.679 72.6877 246.22 67.7027 242.92V242.919Z"
            fill="white" />
    </g>
    <g opacity="0.5">
        <path
            d="M23.6613 292.56C24.7578 293.406 25.9147 294.237 27.1386 295.047C46.6572 307.971 77.7899 303.321 84.3585 293.402C89.7805 285.213 83.6804 259.745 68.8421 244.938C86.9627 258.617 94.8841 288.409 88.9356 297.394C82.367 307.314 51.2327 311.965 31.7141 299.041C28.6238 296.994 25.9446 294.823 23.6605 292.561L23.6613 292.56ZM14.166 276.231C14.3893 277.252 14.6748 278.268 15.019 279.278C16.2179 280.454 17.537 281.594 19.0027 282.689C17.0056 280.635 15.3931 278.472 14.166 276.231Z"
            fill="white" />
    </g>
    <g opacity="0.5">
        <path
            d="M16.6598 280.777C16.0123 280.11 15.4189 279.429 14.8513 278.74C14.5853 277.907 14.3498 277.072 14.166 276.231C15.3939 278.474 17.0056 280.635 19.0027 282.69C18.1255 282.033 17.3064 281.361 16.5291 280.675C16.5727 280.709 16.6138 280.743 16.6598 280.777Z"
            fill="white" />
    </g>
    <g opacity="0.5">
        <path
            d="M25.9492 294.665C27.0328 295.502 28.1608 296.326 29.3702 297.127C48.8888 310.052 80.0223 305.402 86.5908 295.482C92.2684 286.905 85.3024 259.385 68.9024 245.002C68.8814 244.982 68.8629 244.96 68.8419 244.938C86.9625 258.617 94.8839 288.409 88.9354 297.394C82.3668 307.314 51.2325 311.965 31.7139 299.041C29.5967 297.638 27.6875 296.174 25.95 294.666L25.9492 294.665Z"
            fill="white" />
    </g>
    <g opacity="0.5">
        <path
            d="M49.0643 276.895C62.4819 271.457 71.7386 264.092 66.9986 252.393C62.2586 240.693 47.538 235.615 34.1195 241.052C20.7011 246.488 13.6657 260.38 18.4065 272.08C23.1464 283.779 35.6458 282.331 49.0651 276.895H49.0643Z"
            fill="white" />
    </g>
    <g opacity="0.5">
        <path
            d="M47.347 262.819C55.4547 261.856 61.4911 256.564 60.8292 251.001C60.1681 245.439 53.0585 241.712 44.9516 242.678C36.8439 243.643 30.8083 248.932 31.4694 254.495C32.1314 260.056 39.2393 263.784 47.347 262.819Z"
            fill="white" />
    </g>
    <g opacity="0.5">
        <path
            d="M28.5912 263.426C30.9624 260.476 31.2438 256.766 29.2201 255.138C27.1956 253.511 23.6327 254.585 21.2616 257.535C18.8896 260.486 18.609 264.196 20.6335 265.824C22.658 267.45 26.2208 266.377 28.592 263.427L28.5912 263.426Z"
            fill="white" />
    </g>
    <g opacity="0.5">
        <path
            d="M60.2499 297.477C58.0343 297.705 56.3363 298.845 56.4573 300.026C56.579 301.205 58.4729 301.976 60.6901 301.748C62.9057 301.52 64.6028 300.38 64.4819 299.2C64.361 298.021 62.4663 297.25 60.2507 297.477H60.2499Z"
            fill="white" />
    </g>
    <g opacity="0.5">
        <path
            d="M68.3068 296.305C67.0176 296.641 66.159 297.631 66.3888 298.516C66.6202 299.4 67.8521 299.845 69.1413 299.508C70.4305 299.174 71.2908 298.183 71.0602 297.299C70.8304 296.415 69.5968 295.97 68.3068 296.305Z"
            fill="white" />
    </g>
    <path
        d="M70.8119 275.753C70.7885 275.762 70.6765 275.463 70.4854 274.894C70.3798 274.613 70.2854 274.255 70.1943 273.829C70.1484 273.614 70.0863 273.387 70.0452 273.14C70.0121 272.893 69.9791 272.629 69.9428 272.348C69.8267 271.231 69.8259 269.832 70.2306 268.296C70.6281 266.766 71.4263 265.132 72.5873 263.584C73.7306 262.015 75.1883 260.512 76.7339 258.962C78.2811 257.412 79.9331 255.809 81.4198 253.98C82.1664 253.071 82.8412 252.086 83.4322 251.045C84.0272 250.006 84.5142 248.891 84.8278 247.72C84.9214 247.428 84.9907 247.134 85.0447 246.835C85.0971 246.538 85.185 246.24 85.2076 245.939L85.3148 245.039C85.318 244.736 85.2963 244.424 85.2906 244.115C85.256 243.498 85.2697 242.881 85.2052 242.262L84.9528 240.406C84.5061 237.949 83.8015 235.53 82.8662 233.233C81.9342 230.934 80.9006 228.713 79.8283 226.582C77.699 222.328 75.6704 218.303 74.4159 214.626C73.1227 210.95 72.6703 207.697 72.6953 205.338C72.7502 204.181 72.8784 203.293 72.9687 202.687C73.0606 202.082 73.1251 201.762 73.1251 201.762C73.1251 201.762 73.1839 201.443 73.3178 200.847C73.4524 200.254 73.6572 199.385 73.995 198.296C74.3361 197.21 74.7916 195.901 75.4858 194.46C76.1856 193.029 77.0975 191.424 78.5649 189.993C79.3018 189.292 80.1991 188.638 81.2827 188.247C81.8278 188.07 82.4026 187.917 83.0001 187.901L83.229 187.886C83.3258 187.869 83.4467 187.901 83.5056 187.905L83.9361 187.964C84.2248 187.99 84.5158 188.085 84.8061 188.149C85.9558 188.458 87.174 189.211 87.8134 190.415C88.4471 191.609 88.5116 192.985 88.2923 194.235C88.0787 195.503 87.5973 196.699 86.9733 197.823C86.3388 198.939 85.5462 199.981 84.5844 200.882C83.6241 201.776 82.4752 202.544 81.1392 202.927L80.1725 203.145L79.6904 203.253L79.1937 203.308C78.8616 203.34 78.5326 203.382 78.1988 203.403L77.1975 203.384C75.8671 203.288 74.532 202.982 73.3436 202.377C72.1608 201.776 71.0869 200.998 70.1621 200.095C68.3279 198.273 66.9661 196.131 65.8623 193.993C63.6782 189.69 62.3535 185.402 61.2554 181.746C60.2097 178.077 59.3389 175.021 58.7294 172.879C58.4109 171.815 58.1408 170.985 57.9546 170.42C57.7571 169.859 57.6643 169.554 57.6869 169.543C57.7095 169.534 57.849 169.82 58.0957 170.367C58.3303 170.918 58.6464 171.735 59.0108 172.789C59.7453 174.895 60.6459 177.949 61.802 181.578C62.9784 185.194 64.3821 189.433 66.5896 193.611C67.703 195.684 69.0607 197.731 70.8111 199.418C71.6916 200.252 72.6905 200.955 73.7717 201.485C74.8569 202.021 76.0542 202.271 77.2507 202.345L78.1553 202.35C78.456 202.326 78.7559 202.283 79.0575 202.251L79.5082 202.196L79.9508 202.091L80.8385 201.88C81.9431 201.55 82.9469 200.873 83.8039 200.056C85.5067 198.411 86.7209 196.218 87.0886 194.039C87.2708 192.953 87.1708 191.861 86.7104 191.02C86.2477 190.178 85.4035 189.646 84.4618 189.397C84.2159 189.35 83.9893 189.269 83.7386 189.251L83.3709 189.206C83.296 189.196 83.2871 189.19 83.25 189.196L83.0831 189.211C82.6147 189.223 82.1688 189.354 81.7383 189.495C80.8836 189.811 80.1419 190.356 79.5074 190.97C78.244 192.223 77.395 193.715 76.7556 195.066C76.1171 196.423 75.6922 197.679 75.3761 198.717C75.0633 199.76 74.873 200.594 74.7497 201.162C74.6255 201.732 74.5739 202.038 74.5739 202.038C74.5739 202.038 74.5094 202.342 74.4159 202.917C74.3248 203.49 74.195 204.338 74.1369 205.405C74.099 207.489 74.486 210.643 75.7019 214.193C76.8822 217.766 78.8333 221.747 80.9288 226.049C81.9785 228.197 83.0065 230.464 83.9273 232.82C84.852 235.181 85.5535 237.685 85.9824 240.241L86.2186 242.173C86.2783 242.82 86.2606 243.474 86.2823 244.123C86.2847 244.45 86.3025 244.773 86.292 245.098L86.1622 246.08C86.1324 246.409 86.0356 246.719 85.9727 247.04C85.9106 247.36 85.8349 247.676 85.7284 247.981C85.3761 249.227 84.8407 250.401 84.1998 251.484C83.5628 252.569 82.8396 253.58 82.0559 254.503C80.4983 256.361 78.8003 257.947 77.2289 259.463C75.6575 260.98 74.1925 262.428 73.0509 263.93C71.8834 265.408 71.082 266.956 70.6579 268.417C70.2217 269.879 70.1758 271.229 70.2419 272.327C70.2653 272.599 70.2863 272.861 70.3072 273.104C70.337 273.348 70.3862 273.574 70.4185 273.785C70.4854 274.211 70.5531 274.571 70.6362 274.855C70.7765 275.433 70.8418 275.75 70.8168 275.756L70.8119 275.753Z"
        fill="#37474F" />
    <path
        d="M57.0247 167.526C57.0247 167.526 56.2007 174.854 57.1827 176.288C58.1647 177.721 64.9623 177.716 67.3754 173.635C67.3754 173.635 61.7002 160.425 57.0247 167.526Z"
        fill="#FFC727" />
    <g style="mix-blend-mode:multiply">
        <path
            d="M57.1827 176.287C56.2007 174.852 57.0247 167.524 57.0247 167.524C60.6795 161.972 64.9461 168.834 66.6328 172.093C65.2259 171.73 63.7166 171.717 62.2452 172.148C60.0046 172.807 58.2373 174.368 57.2126 176.323C57.2037 176.311 57.1908 176.299 57.1819 176.287H57.1827Z"
            fill="#FFC727" />
    </g>
    <path
        d="M37.9881 90.3055C46.2111 87.927 62.9449 110.771 62.9449 110.771C62.9449 110.771 90.2051 103.822 95.008 110.908C99.8149 117.994 84.3525 141.536 84.3525 141.536C84.3525 141.536 98.2911 164.744 93.0375 171.503C87.7799 178.262 60.4874 166.706 60.4874 166.706C60.4874 166.706 42.8506 191.262 34.7961 188.352C26.7425 185.445 25.1509 158.211 25.1509 158.211C25.1509 158.211 0.495663 146.728 0.77382 138.17C1.05359 129.614 27.6898 120.072 27.6898 120.072C27.6898 120.072 29.7635 92.6847 37.9873 90.3055H37.9881Z"
        fill="#FFC727" />
    <g style="mix-blend-mode:screen">
        <path style="mix-blend-mode:screen" opacity="0.5"
            d="M40.3188 96.2044C47.4058 94.1541 61.8248 113.841 61.8248 113.841C61.8248 113.841 85.3151 107.852 89.4552 113.957C94.1774 120.922 86.5172 132.493 81.8457 137.53C76.1326 143.69 68.2233 147.183 59.9318 148.055C50.5324 149.041 39.2175 147.719 30.7139 143.489C26.3755 141.33 23.2754 138.564 21.9403 133.843C19.6852 125.878 24.7243 124.262 31.4468 121.854C31.4468 121.854 33.2326 98.2547 40.3196 96.2036L40.3188 96.2044Z"
            fill="url(#paint0_linear_2397_50299)" />
    </g>
    <g style="mix-blend-mode:multiply" opacity="0.5">
        <path
            d="M0.773014 138.171C0.889115 134.609 5.57426 130.877 11.0044 127.734C20.0997 150.02 45.4911 162.413 68.8636 155.215C75.5555 153.154 81.4782 149.67 86.4109 145.198C90.0729 152.014 96.9922 166.418 93.0375 171.505C87.7799 178.264 60.4874 166.708 60.4874 166.708C60.4874 166.708 42.8506 191.264 34.7961 188.354C26.7425 185.447 25.1509 158.213 25.1509 158.213C25.1509 158.213 0.495663 146.73 0.77382 138.171H0.773014Z"
            fill="#FFC727" />
    </g>
    <path style="mix-blend-mode:screen"
        d="M4.00999 139.089C4.04385 138.055 4.49051 137.006 5.24355 135.963C6.80607 143.788 27.838 153.586 27.838 153.586C27.838 153.586 29.3191 178.931 36.8157 181.637C44.3106 184.345 60.7259 161.49 60.7259 161.49C60.7259 161.49 85.9899 172.187 90.979 166.005C90.9927 167.671 90.671 169.093 89.8785 170.113C84.9861 176.404 59.5843 165.648 59.5843 165.648C59.5843 165.648 43.1689 188.502 35.674 185.795C28.1791 183.088 26.6972 157.742 26.6972 157.742C26.6972 157.742 3.75118 147.053 4.00999 139.089Z"
        fill="url(#paint1_linear_2397_50299)" />
    <g style="mix-blend-mode:screen">
        <path
            d="M82.3644 110.821C85.0807 110.509 87.3995 111.247 87.543 112.482C87.6841 113.71 85.5991 114.966 82.8788 115.282C80.1618 115.597 77.8414 114.854 77.7003 113.623C77.5576 112.393 79.6441 111.139 82.3652 110.822L82.3644 110.821Z"
            fill="white" />
    </g>
    <g style="mix-blend-mode:screen">
        <path
            d="M44.835 167.331C46.5499 165.199 48.7179 164.095 49.6862 164.872C50.6505 165.648 50.049 168.007 48.3357 170.142C46.624 172.277 44.4504 173.378 43.4845 172.601C42.5202 171.826 43.1241 169.467 44.8358 167.332L44.835 167.331Z"
            fill="#8DFF3F" />
    </g>
    <g style="mix-blend-mode:screen">
        <path
            d="M38.5924 175.429C39.801 174.184 41.2337 173.615 41.7989 174.164C42.3625 174.709 41.8433 176.165 40.6347 177.41C39.4277 178.656 37.9926 179.223 37.4274 178.675C36.8654 178.13 37.3863 176.677 38.5924 175.43V175.429Z"
            fill="#8DFF3F" />
    </g>
    <g style="mix-blend-mode:screen">
        <path
            d="M45.9423 98.4639C47.9007 99.9482 48.9448 101.873 48.2707 102.759C47.5999 103.647 45.4674 103.162 43.5082 101.678C41.549 100.193 40.5033 98.2728 41.1773 97.3827C41.8497 96.4967 43.9823 96.9804 45.9423 98.4639Z"
            fill="white" />
    </g>
    <g style="mix-blend-mode:screen">
        <path
            d="M51.877 106.49C52.7808 107.496 53.1436 108.639 52.6889 109.047C52.235 109.456 51.1361 108.976 50.2322 107.973C49.3292 106.97 48.9648 105.826 49.422 105.418C49.8743 105.008 50.974 105.489 51.877 106.49Z"
            fill="white" />
    </g>
    <path
        d="M157.899 336.925L163.496 339.388C163.496 339.388 162.534 346.167 154.327 345.782L153.783 338.91C153.783 338.91 155.814 335.405 157.899 336.925Z"
        fill="#5F73FF" />
    <g style="mix-blend-mode:multiply" opacity="0.5">
        <path
            d="M154.327 345.782L153.783 338.91C153.783 338.91 155.814 335.405 157.899 336.925L158.398 337.145C158.006 337.989 157.324 339.172 156.203 340.391C154.202 342.565 159.283 346.094 163.073 339.203L163.496 339.389C163.496 339.389 162.534 346.168 154.327 345.783V345.782Z"
            fill="#5F73FF" />
    </g>
    <path
        d="M96.202 314.367C110.65 336.328 144.849 345.269 156.01 337.925C166.479 331.036 171.441 294.53 156.992 272.57C142.543 250.609 121.326 249.525 103.795 261.059C86.2658 272.592 81.7532 292.407 96.202 314.367Z"
        fill="#5F73FF" />
    <g style="mix-blend-mode:screen" opacity="0.5">
        <path
            d="M129.003 278.484C129.023 276.748 129.026 275.011 128.995 273.276C128.922 269.17 128.847 264.976 128.584 260.792C135.14 261.477 141.526 264.582 147.091 270.631C147.091 270.668 147.091 270.704 147.091 270.74C147.088 276.6 146.69 282.467 145.782 288.259C145.432 290.488 145.024 292.711 144.551 294.92C143.888 293.602 143.161 292.325 142.357 291.103C138.411 285.104 133.855 280.985 129.002 278.484L129.003 278.484Z"
            fill="#5F73FF" />
    </g>
    <g style="mix-blend-mode:screen" opacity="0.5">
        <path
            d="M107.156 266.682C113.145 262.741 119.651 260.576 126.072 260.648C126.352 264.933 126.418 269.232 126.47 273.412C126.487 274.721 126.489 276.03 126.479 277.338C117.19 273.676 107.034 275.598 98.0407 281.514C96.6813 282.408 95.4155 283.364 94.248 284.374C95.7864 277.297 100.26 271.22 107.157 266.682H107.156Z"
            fill="#5F73FF" />
    </g>
    <g style="mix-blend-mode:screen" opacity="0.5">
        <path
            d="M147.202 287.516C147.914 282.387 148.278 277.242 148.352 272.074C149.428 273.359 150.472 274.751 151.473 276.274C163.51 294.569 159.376 324.982 150.655 330.721C150.042 331.124 149.344 331.467 148.574 331.753C150.757 321.598 150.353 307.992 145.484 296.898C146.197 293.789 146.768 290.652 147.202 287.516Z"
            fill="#5F73FF" />
    </g>
    <g style="mix-blend-mode:screen">
        <path
            d="M155.758 277.124C142.049 256.286 122.042 255.175 105.564 266.016C94.4538 273.325 88.9495 284.225 90.7362 296.934C87.2507 282.664 92.6994 270.363 104.859 262.363C121.338 251.521 141.345 252.634 155.054 273.47C159.068 279.571 161.516 286.844 162.727 294.241C161.366 288.125 159.109 282.216 155.758 277.124V277.124Z"
            fill="#5F73FF" />
    </g>
    <g style="mix-blend-mode:multiply" opacity="0.5">
        <path
            d="M88.1485 283.07C88.6846 288.605 90.8147 294.461 94.7533 300.447C106.724 318.641 136.504 325.094 146.567 318.473C155.667 312.484 161.186 283.263 150.851 264.869C153.001 267.079 155.058 269.632 156.991 272.57C171.44 294.53 166.478 331.036 156.009 337.925C144.848 345.269 110.649 336.328 96.2013 314.368C88.7814 303.09 86.3739 292.383 88.1493 283.07H88.1485Z"
            fill="#5F73FF" />
    </g>
    <g style="mix-blend-mode:screen" opacity="0.5">
        <path
            d="M94.5729 306.013C95.2615 307.247 96.0137 308.489 96.8361 309.739C109.955 329.678 141.005 337.795 151.14 331.129C159.504 325.624 163.993 299.303 156.015 279.478C167.521 299.563 163.007 330.667 153.829 336.707C143.696 343.374 112.645 335.256 99.5266 315.317C97.4488 312.16 95.8073 309.052 94.5721 306.014L94.5729 306.013ZM92.2154 286.899C92.0163 287.946 91.8752 289.014 91.793 290.098C92.446 291.681 93.2257 293.279 94.1609 294.892C93.112 292.166 92.467 289.494 92.2146 286.899H92.2154Z"
            fill="#5F73FF" />
    </g>
    <g style="mix-blend-mode:screen" opacity="0.5">
        <path
            d="M92.7335 292.159C92.394 291.275 92.1111 290.398 91.8555 289.525C91.9401 288.639 92.0538 287.76 92.2183 286.899C92.4706 289.494 93.1156 292.167 94.1646 294.893C93.6042 293.927 93.1068 292.968 92.6529 292.012C92.6803 292.062 92.7053 292.11 92.7343 292.159H92.7335Z"
            fill="#5F73FF" />
    </g>
    <g style="mix-blend-mode:screen" opacity="0.5">
        <path
            d="M95.8778 308.906C96.559 310.124 97.2847 311.35 98.0974 312.585C111.216 332.524 142.266 340.642 152.4 333.974C161.161 328.209 165.66 299.617 156.049 279.561C156.037 279.533 156.028 279.505 156.016 279.478C167.522 299.563 163.008 330.667 153.83 336.707C143.697 343.374 112.646 335.256 99.5277 315.317C98.1046 313.155 96.9009 311.016 95.877 308.907L95.8778 308.906Z"
            fill="#5F73FF" />
    </g>
    <g style="mix-blend-mode:screen" opacity="0.5">
        <path
            d="M124.666 301.506C139.424 301.786 151.053 298.591 151.298 285.723C151.543 272.856 139.778 262.195 125.021 261.914C110.262 261.633 98.0983 271.836 97.8532 284.704C97.6081 297.573 109.908 301.224 124.666 301.506Z"
            fill="#5F73FF" />
    </g>
    <g style="mix-blend-mode:screen" opacity="0.5">
        <path
            d="M128.702 287.624C136.689 289.969 144.468 287.428 146.078 281.948C147.687 276.468 142.515 270.125 134.528 267.78C126.54 265.436 118.762 267.976 117.152 273.455C115.545 278.936 120.714 285.278 128.702 287.624Z"
            fill="#5F73FF" />
    </g>
    <g style="mix-blend-mode:screen" opacity="0.5">
        <path
            d="M110.872 280.676C114.277 278.861 116.028 275.494 114.783 273.158C113.536 270.821 109.766 270.4 106.361 272.216C102.955 274.031 101.205 277.398 102.45 279.734C103.696 282.07 107.466 282.492 110.871 280.676H110.872Z"
            fill="#5F73FF" />
    </g>
    <g style="mix-blend-mode:screen" opacity="0.5">
        <path
            d="M126.906 325.29C124.737 324.616 122.688 325.004 122.329 326.159C121.971 327.313 123.438 328.795 125.607 329.469C127.775 330.143 129.824 329.755 130.182 328.6C130.541 327.447 129.074 325.965 126.906 325.29H126.906Z"
            fill="#5F73FF" />
    </g>
    <g style="mix-blend-mode:screen" opacity="0.5">
        <path
            d="M134.926 327.419C133.583 327.217 132.381 327.8 132.241 328.723C132.104 329.643 133.08 330.555 134.425 330.756C135.767 330.958 136.97 330.376 137.109 329.454C137.247 328.532 136.27 327.621 134.926 327.419Z"
            fill="#5F73FF" />
    </g>
    <path
        d="M153.956 340.38C154.162 340.732 154.474 341.253 154.892 341.93C155.73 343.283 156.974 345.273 158.702 347.758C159.568 348.999 160.554 350.363 161.707 351.803C162.857 353.243 164.161 354.772 165.697 356.291C167.241 357.81 168.998 359.303 171.159 360.57C172.3 361.136 173.557 361.423 174.842 361.624C176.131 361.82 177.463 361.91 178.825 361.926C179.266 361.926 179.717 361.91 180.166 361.898C180.042 362.187 179.918 362.476 179.802 362.77C179.174 364.365 178.676 366.032 178.283 367.748C178.086 368.605 177.926 369.479 177.803 370.368C177.687 371.258 177.596 372.158 177.654 373.11C177.689 373.632 177.855 374.036 177.969 374.489C178.098 374.93 178.208 375.38 178.355 375.819C178.532 376.247 178.71 376.677 178.888 377.107C178.983 377.32 179.054 377.544 179.169 377.748L179.517 378.36C180.388 380.028 181.662 381.498 183.127 382.729C183.842 383.374 184.662 383.88 185.468 384.414C186.314 384.875 187.158 385.357 188.056 385.724C189.832 386.502 191.693 387.111 193.592 387.586C197.386 388.597 201.34 389.055 205.15 390.174C208.984 391.253 212.764 392.751 216.334 394.739C218.34 395.854 220.238 397.119 222.036 398.489C222.084 398.147 222.148 397.809 222.2 397.468C220.482 396.185 218.673 395.002 216.773 393.948C213.136 391.922 209.289 390.399 205.395 389.307C201.488 388.167 197.539 387.716 193.814 386.727C191.943 386.262 190.128 385.669 188.408 384.921C187.537 384.568 186.729 384.106 185.915 383.667C185.147 383.157 184.36 382.677 183.682 382.067C182.291 380.902 181.088 379.524 180.26 377.947L179.929 377.369C179.818 377.177 179.752 376.962 179.66 376.761C179.49 376.351 179.319 375.944 179.149 375.538C179.007 375.122 178.904 374.693 178.779 374.273C178.67 373.857 178.503 373.418 178.486 373.041C178.432 372.209 178.511 371.332 178.621 370.476C178.736 369.617 178.889 368.765 179.078 367.927C179.456 366.25 179.939 364.614 180.544 363.058C180.699 362.658 180.863 362.263 181.035 361.872C183.082 361.773 185.189 361.509 187.317 360.913C188.038 360.694 188.765 360.44 189.459 360.028C189.802 359.82 190.147 359.568 190.418 359.19C190.549 358.998 190.662 358.771 190.697 358.512C190.732 358.254 190.687 357.992 190.598 357.766C190.186 356.874 189.447 356.479 188.769 356.025C188.042 355.625 187.18 355.357 186.297 355.433C185.413 355.5 184.59 355.896 183.913 356.416C183.231 356.94 182.657 357.578 182.166 358.265C181.498 359.192 180.946 360.197 180.462 361.24C179.914 361.263 179.366 361.281 178.829 361.285C177.492 361.28 176.185 361.202 174.932 361.022C173.683 360.838 172.465 360.564 171.417 360.054C169.368 358.878 167.574 357.402 166.05 355.928C164.517 354.446 163.206 352.946 162.042 351.531C160.876 350.117 159.873 348.774 158.989 347.553C157.223 345.109 155.932 343.15 155.045 341.831C154.602 341.173 154.263 340.67 154.034 340.33C153.803 339.994 153.678 339.826 153.665 339.834C153.652 339.842 153.751 340.027 153.956 340.379V340.38ZM181.36 361.187C181.781 360.316 182.248 359.482 182.794 358.72C183.251 358.071 183.78 357.484 184.379 357.022C184.974 356.56 185.654 356.238 186.359 356.181C187.064 356.117 187.768 356.325 188.407 356.669C189.016 357.052 189.698 357.494 189.925 358.037C190.172 358.535 189.69 359.063 189.09 359.418C188.491 359.781 187.803 360.032 187.117 360.243C185.2 360.794 183.258 361.062 181.36 361.187Z"
        fill="#37474F" />
    <g style="mix-blend-mode:multiply" opacity="0.4">
        <path
            d="M153.666 340C153.666 340 153.727 340.111 153.799 340.232C153.871 340.353 153.949 340.486 153.979 340.538C155.324 342.625 156.777 344.875 158.429 347.205C160.084 349.531 161.905 351.966 164.067 354.321C165.14 355.503 166.302 356.662 167.583 357.743C168.211 358.298 168.894 358.801 169.585 359.306C170.309 359.764 170.988 360.317 171.803 360.625C173.426 361.262 175.221 361.499 177.033 361.618C178.324 361.694 179.642 361.666 180.968 361.592C180.671 362.235 180.391 362.888 180.139 363.553C179.41 365.541 178.845 367.621 178.483 369.756C178.314 370.822 178.166 371.911 178.206 372.989C178.201 373.525 178.388 374.04 178.535 374.571C178.699 375.092 178.795 375.639 179.036 376.137C179.774 378.213 181.025 380.118 182.632 381.672C184.24 383.235 186.199 384.433 188.289 385.348C190.01 386.102 191.795 386.683 193.6 387.139C195.4 387.611 197.214 387.986 199.021 388.332C202.651 388.942 206.182 389.917 209.529 391.153C212.877 392.398 216.047 393.943 218.959 395.775C220.063 396.48 221.116 397.235 222.141 398.013C222.16 397.887 222.182 397.761 222.202 397.635C220.484 396.352 218.674 395.17 216.775 394.115C213.138 392.09 209.29 390.567 205.397 389.474C201.49 388.334 197.541 387.883 193.816 386.894C191.945 386.43 190.13 385.836 188.41 385.088C187.538 384.735 186.731 384.273 185.916 383.834C185.149 383.324 184.362 382.844 183.684 382.234C182.293 381.069 181.09 379.691 180.262 378.114L179.931 377.536C179.82 377.344 179.753 377.13 179.662 376.928C179.491 376.518 179.321 376.111 179.151 375.705C179.009 375.289 178.906 374.861 178.781 374.441C178.672 374.024 178.505 373.585 178.487 373.209C178.433 372.377 178.512 371.5 178.623 370.643C178.738 369.785 178.89 368.932 179.08 368.094C179.458 366.417 179.94 364.782 180.546 363.226C180.763 362.664 181.004 362.116 181.257 361.576C181.703 361.547 182.145 361.538 182.593 361.493C184.465 361.291 186.385 360.985 188.198 360.289C188.646 360.109 189.085 359.896 189.477 359.62C189.855 359.345 190.214 358.972 190.227 358.523C190.238 358.077 189.919 357.666 189.56 357.352C189.381 357.189 189.179 357.043 188.971 356.911C188.76 356.785 188.568 356.619 188.337 356.531C187.467 356.075 186.426 355.943 185.486 356.274C184.553 356.621 183.763 357.304 183.104 358.079C182.282 359.065 181.633 360.194 181.071 361.379C180.314 361.422 179.565 361.448 178.83 361.452C177.492 361.447 176.186 361.369 174.933 361.189C173.684 361.005 172.466 360.731 171.418 360.222C169.369 359.045 167.575 357.569 166.051 356.095C164.518 354.613 163.206 353.113 162.043 351.699C160.877 350.285 159.874 348.941 158.99 347.721C157.224 345.276 155.932 343.318 155.046 341.998C154.603 341.34 154.264 340.838 154.035 340.497C153.804 340.161 153.679 339.994 153.666 340.002V340ZM181.362 361.353C181.783 360.482 182.25 359.648 182.795 358.886C183.253 358.237 183.782 357.65 184.38 357.188C184.975 356.726 185.656 356.404 186.36 356.347C187.066 356.283 187.77 356.49 188.408 356.835C189.018 357.218 189.7 357.66 189.926 358.203C190.174 358.7 189.692 359.228 189.091 359.584C188.492 359.947 187.804 360.197 187.118 360.409C185.202 360.959 183.26 361.228 181.362 361.353Z"
            fill="#37474F" />
    </g>
    <path
        d="M201.557 388.948C201.557 388.944 201.503 388.929 201.394 388.904C201.284 388.88 201.122 388.845 200.909 388.799C200.482 388.712 199.852 388.584 199.041 388.419C197.42 388.08 195.057 387.646 192.21 386.809C189.399 385.947 185.972 384.721 183.007 382.107C181.552 380.793 180.282 379.132 179.364 377.205C179.16 376.713 178.953 376.215 178.746 375.715C178.57 375.203 178.443 374.669 178.286 374.142C177.899 373.093 178.04 371.935 178.141 370.822C178.418 368.582 178.944 366.431 179.61 364.412C180.29 362.399 181.099 360.49 182.19 358.86C182.737 358.049 183.354 357.304 184.086 356.726C184.811 356.149 185.683 355.761 186.569 355.751C187.457 355.732 188.275 356.084 188.947 356.528C189.293 356.742 189.614 356.981 189.888 357.265C190.159 357.544 190.382 357.896 190.403 358.291C190.417 358.69 190.197 359.036 189.947 359.288C189.691 359.544 189.395 359.733 189.102 359.898C188.51 360.221 187.912 360.437 187.35 360.616C186.221 360.967 185.219 361.155 184.401 361.294C183.582 361.429 182.94 361.506 182.506 361.557C182.29 361.582 182.124 361.6 182.012 361.613C181.901 361.626 181.844 361.635 181.844 361.639C181.844 361.644 181.902 361.643 182.015 361.639C182.127 361.632 182.294 361.621 182.512 361.607C182.949 361.572 183.592 361.512 184.417 361.39C185.24 361.264 186.248 361.09 187.391 360.749C187.962 360.575 188.568 360.363 189.179 360.037C189.482 359.87 189.789 359.677 190.065 359.407C190.334 359.141 190.592 358.753 190.579 358.285C190.557 357.824 190.306 357.436 190.022 357.139C189.734 356.835 189.406 356.589 189.052 356.367C188.365 355.907 187.511 355.53 186.569 355.545C185.629 355.55 184.706 355.96 183.954 356.553C183.194 357.149 182.561 357.909 182.003 358.732C180.888 360.385 180.071 362.307 179.382 364.334C178.707 366.369 178.177 368.529 177.897 370.792C177.84 371.362 177.783 371.928 177.787 372.503C177.791 372.792 177.794 373.076 177.842 373.376C177.877 373.676 177.983 373.925 178.049 374.201C178.208 374.736 178.338 375.277 178.517 375.797C178.729 376.304 178.939 376.809 179.147 377.308C180.081 379.263 181.377 380.949 182.857 382.278C184.332 383.625 186.006 384.539 187.584 385.301C187.986 385.479 188.382 385.653 188.769 385.824C189.166 385.971 189.555 386.115 189.938 386.256C190.696 386.556 191.454 386.747 192.163 386.976C195.027 387.795 197.398 388.202 199.025 388.512C199.839 388.657 200.471 388.77 200.901 388.847C201.116 388.882 201.279 388.909 201.39 388.928C201.501 388.944 201.558 388.951 201.559 388.947L201.557 388.948Z"
        fill="#37474F" />
    <path
        d="M222.055 398.367C220.122 396.89 218.272 395.699 216.704 394.826C216.031 394.399 215.367 394.113 214.812 393.809C214.248 393.522 213.77 393.258 213.367 393.069C212.961 392.886 212.646 392.745 212.432 392.648C212.218 392.55 212.109 392.492 212.109 392.492C212.109 392.492 212.226 392.533 212.443 392.623C212.66 392.715 212.979 392.849 213.39 393.022C213.797 393.203 214.278 393.461 214.846 393.741C215.405 394.039 216.074 394.32 216.751 394.742C218.314 395.597 220.154 396.769 222.078 398.225C222.071 398.272 222.062 398.319 222.055 398.367V398.367Z"
        fill="#37474F" />
    <defs>
        <linearGradient id="paint0_linear_2397_50299" x1="59.9928" y1="110.926" x2="39.7459"
            y2="186.69" gradientUnits="userSpaceOnUse">
            <stop stop-color="#F700FA" />
            <stop offset="1" stop-color="#F700FA" stop-opacity="0" />
        </linearGradient>
        <linearGradient id="paint1_linear_2397_50299" x1="42.5019" y1="189.706" x2="49.7158"
            y2="136.654" gradientUnits="userSpaceOnUse">
            <stop stop-color="#F700FA" />
            <stop offset="1" stop-color="#F700FA" stop-opacity="0" />
        </linearGradient>
    </defs>
</svg>
