<svg width="2187" height="1664" viewBox="0 0 2187 1664" fill="none" xmlns="http://www.w3.org/2000/svg">
<g clip-path="url(#clip0_4604_4854)">
<path d="M2097.84 683.134C2081.58 707.24 2048.57 713.545 2024.46 697.28C2000.36 680.485 1994.05 647.478 2010.32 623.371C2027.11 599.265 2060.12 592.96 2084.23 609.755C2108.33 626.02 2114.64 659.028 2097.84 683.134Z" fill="#FD5977"/>
<path d="M2162.9 524.988C2162.9 543.955 2147.27 559.584 2127.94 559.584C2108.6 559.584 2093.34 543.955 2093.34 524.988C2093.34 506.021 2108.97 490.021 2127.94 490.021C2146.9 490.021 2162.9 505.65 2162.9 524.988Z" fill="#7BC6F9"/>
<path d="M2186.9 653.361C2186.9 663.587 2178.58 671.64 2168.62 671.64C2158.66 671.64 2150.08 663.587 2150.08 653.361C2150.08 643.136 2158.4 635.083 2168.62 635.083C2178.85 635.083 2186.9 643.136 2186.9 653.361Z" fill="#46FFD2"/>
<path d="M398.537 1319.86C382.272 1343.96 349.265 1350.27 325.158 1334C301.052 1317.21 294.747 1284.2 311.012 1260.1C327.807 1235.99 360.814 1229.68 384.921 1246.48C409.027 1262.74 415.332 1295.75 398.537 1319.86Z" fill="#FD5977"/>
<path d="M463.597 1161.71C463.597 1180.68 447.968 1196.31 428.63 1196.31C409.292 1196.31 394.033 1180.68 394.033 1161.71C394.033 1142.74 409.663 1126.74 428.63 1126.74C447.597 1126.74 463.597 1142.37 463.597 1161.71Z" fill="#7BC6F9"/>
<path d="M487.542 1290.08C487.542 1300.3 479.224 1308.36 469.264 1308.36C459.304 1308.36 450.721 1300.3 450.721 1290.08C450.721 1279.85 459.039 1271.8 469.264 1271.8C479.489 1271.8 487.542 1279.85 487.542 1290.08Z" fill="#46FFD2"/>
<path d="M648.923 260.718C634.936 295.473 594.988 312.268 560.233 298.281C525.319 283.605 508.524 243.711 522.511 208.902C537.186 173.988 577.081 157.193 611.995 171.869C646.751 185.856 663.546 225.803 648.923 260.718Z" fill="#D2E470"/>
<path d="M688.392 43.8668C693.479 67.7611 678.008 91.7084 653.637 96.9006C629.743 101.987 605.795 86.5163 600.709 62.569C595.517 38.1978 610.987 14.3035 634.935 9.16432C659.306 3.9722 683.2 19.4426 688.445 43.8138L688.392 43.8668Z" fill="#7BC6F9"/>
<path d="M753.136 199.206C755.891 212.08 747.52 224.53 734.963 227.18C722.089 229.935 709.374 221.987 706.619 209.113C703.864 196.239 712.235 183.788 725.109 181.033C737.665 178.331 750.328 186.278 753.083 199.206H753.136Z" fill="#46FFD2"/>
<path d="M447.013 311.365L447.225 313.008C446.695 330.015 390.906 354.227 319.488 367.737C248.07 381.194 187.301 379.022 180.625 363.339L180.201 361.75C176.916 344.478 234.03 319.312 307.726 305.378C381.422 291.444 443.781 294.094 447.013 311.365Z" fill="#FD5977"/>
<path d="M447.224 312.954C455.913 376.848 520.179 848.537 519.861 845.994V846.099C533.371 949.677 534.96 943.372 531.622 948.3C511.119 981.677 335.382 1008.06 330.242 981.042C329.766 979.081 321.236 944.114 321.766 946.286C314.03 914.286 295.911 839.318 297.076 844.086C296.6 842.126 269.368 729.807 271.063 736.747C270.586 734.787 243.672 623.368 245.314 630.309C244.837 628.348 218.082 517.989 219.777 524.93C219.301 522.97 192.863 413.617 194.559 420.558C194.082 418.597 179.724 359.471 180.625 363.179C187.3 378.862 248.122 381.034 319.487 367.577C340.256 363.656 369.236 356.822 389.051 349.404C424.124 337.484 446.853 323.709 447.224 312.848V312.954Z" fill="#46FFD2"/>
<path d="M222.586 266.173C264.6 309.352 320.124 298.067 350.853 252.186C418.032 151.999 374.588 52.501 267.408 4.76527C244.361 -5.51301 237.527 1.48046 224.229 18.3284C161.34 97.8526 153.605 195.337 222.533 266.173H222.586Z" fill="#FD5977"/>
<path d="M247.118 275.498C274.191 303.366 309.953 296.054 329.821 266.491C373.106 201.908 345.132 137.801 276.045 107.019C261.211 100.396 256.813 104.9 248.23 115.761C207.7 166.993 202.72 229.881 247.118 275.498Z" fill="#FF45C9"/>
<path d="M311.807 339.181C298.297 322.492 292.416 306.068 294.323 290.386C295.118 284.081 304.549 285.3 303.754 291.551C302.164 304.744 307.198 318.36 319.171 333.194C323.145 338.122 315.728 344.055 311.754 339.181H311.807Z" fill="black"/>
<path d="M131.831 1042.29C103.963 1039.06 82.4532 1028.83 67.1947 1011.67C57.4463 995.718 46.4263 954.976 34.1347 889.385C24.1213 825.597 8.17411 788.404 0.438911 632.534C-0.0379159 611.448 4.14757 595.607 13.0483 585.064C37.9493 558.096 60.4662 542.202 80.4399 537.593C131.619 525.884 168.335 571.554 176.706 624.852C186.614 688.005 154.984 750.576 157.209 764.775C158.004 769.967 166.004 773.675 181.209 776.006C249.078 802.603 264.336 888.75 250.19 952.856C234.932 1018.02 198.534 1052.51 131.778 1042.34L131.831 1042.29ZM135.487 989.466C175.594 985.387 181.58 938.393 184.07 898.551C184.865 882.445 184.6 857.12 177.554 842.55C166.269 819.292 113.076 842.391 101.473 864.908C96.97 879.637 110.533 948.512 110.692 959.426C112.97 974.102 115.513 982.95 118.321 986.128C121.129 989.254 126.798 990.42 135.487 989.519V989.466ZM87.7513 769.066C113.606 732.562 121.394 622.521 120.017 613.938C118.957 607.051 114.877 604.349 107.778 605.832C81.8704 611.236 68.1484 625.753 66.453 649.382C69.8968 678.098 79.4333 739.45 87.7513 769.066Z" fill="#FD5977"/>
<path d="M724.686 941.628C720.394 940.092 704.871 950.105 688.553 915.191C660.049 857.124 619.307 669.254 614.804 608.803C611.678 565.676 605.426 567.213 590.909 605.147C584.763 619.558 575.227 618.127 565.16 606.577C555.147 596.14 549.054 583.584 546.723 568.908C544.498 554.762 543.862 549.093 550.22 534.524C562.617 506.02 606.856 466.761 665.771 453.463C776.554 428.456 836.263 527.477 812.422 628.353C800.713 679.055 789.958 693.89 760.66 733.149C757.587 738.288 756.262 742.261 756.739 745.069C758.911 759.056 791.442 768.593 805.323 769.229C819.839 769.705 830.753 774.633 838.012 784.063C855.76 807.216 859.893 838.051 829.376 841.494C792.766 845.574 730.037 798.209 726.381 798.686C725.427 798.792 725.639 803.083 726.964 811.56C734.169 857.442 761.295 894.369 750.275 923.721C745.295 934.476 736.818 940.41 724.792 941.469L724.686 941.628ZM757.481 554.444C754.62 542.524 745.401 534.577 729.931 530.55C717.639 527.371 687.175 521.596 679.016 531.133C677.215 533.252 677.48 541.623 679.758 556.299C689.295 617.174 696.129 653.095 700.209 663.956C715.043 691.506 760.978 595.928 757.534 554.391L757.481 554.444Z" fill="#FD5977"/>
<path d="M977.352 843.397L969.193 844.139C956.69 845.252 946.199 841.119 937.616 831.636C924.583 812.88 893.695 578.864 885.324 543.102C880.874 524.029 866.251 396.716 863.231 391.736C837.377 396.769 817.456 415.1 799.601 418.491C775.972 422.995 763.892 399.259 760.131 375.153C758.065 361.855 762.091 351.47 772.263 343.947C779.681 338.172 799.866 328.477 833.35 314.596C873.722 294.94 1004.53 232.105 1049.88 232.052C1074.84 232.158 1095.66 274.383 1083.84 295.576C1077.43 307.126 1004.8 330.172 999.498 332.08C969.829 338.066 952.928 348.398 948.425 363.073C945.087 382.517 969.988 492.664 974.279 511.79C979.206 543.367 1009.56 780.721 1009.25 778.814C1015.6 819.45 1004.9 841.013 977.352 843.503V843.397Z" fill="#FD5977"/>
<path d="M1398.76 866.975C1393.46 866.339 1375.34 874.869 1354.79 850.445C1339.42 832.908 1328.45 803.133 1321.83 761.066C1321.14 759.106 1322.1 689.012 1268.06 693.569C1246.86 696.324 1225.62 711.264 1229.65 736.642C1235.47 773.782 1268.85 806.471 1220.8 831.16L1214.33 831.796C1169.09 836.299 1146.25 750.576 1135.5 735.9C1133.96 733.834 1128.82 732.986 1120.13 733.41C1111.5 733.887 1103.71 731.291 1096.88 725.675C1084.8 716.933 1077.64 705.278 1075.37 690.761C1070.49 659.714 1099.84 658.495 1106.04 652.35C1107.63 650.813 1107.63 645.25 1106.15 635.714C1100.53 599.899 1053.43 407.207 1064.72 365.882C1070.12 346.068 1085.43 340.505 1105.78 341.882C1132.16 344.054 1147.74 359.472 1152.19 388.081C1161.19 445.619 1177.04 507.5 1187.37 564.402C1197.7 621.197 1189.12 633.171 1266.47 621.674C1307.95 615.528 1305.09 576.852 1303.34 478.149C1301.01 420.506 1302.28 373.035 1307.26 335.789C1314.41 295.842 1335.24 284.133 1368.4 291.921C1390.34 297.749 1402.95 310.729 1406.07 330.756C1407.13 337.697 1406.87 367.313 1405.17 419.446C1389.12 754.55 1425.36 748.245 1438.02 829.094C1439.61 839.319 1437.44 847.531 1431.5 853.571C1423.08 861.253 1412.11 865.65 1398.65 866.816L1398.76 866.975Z" fill="#FD5977"/>
<path d="M840.818 1661.95C818.937 1665.4 800.765 1664.29 786.301 1658.56C765.162 1652.42 760.394 1635.41 760.235 1613.53C759.705 1568.87 731.307 1517.32 709.797 1424.87C702.115 1390 676.313 1261.05 661.849 1166.32C652.631 1106.24 652.048 1065.92 660.101 1045.36C667.412 1030.53 680.817 1021.47 700.313 1018.24C723.731 1014.32 742.486 1019.19 756.579 1032.86C778.99 1053.26 773.268 1064.86 778.884 1068.83L784.553 1066.72L814.805 1036.41C874.196 981.363 989.801 993.708 1047.07 1118.37C1062.81 1152.81 1073.46 1188.04 1079.02 1224.12C1103.29 1382.64 1061.54 1508.31 954.144 1600.76C913.773 1635.99 875.945 1656.39 840.766 1661.95H840.818ZM895.389 1539.2C951.284 1484.57 969.456 1369.29 949.747 1193.45C945.35 1164.84 926.965 1085.15 898.885 1089.81C889.455 1091.35 880.024 1100.57 870.541 1117.36C842.779 1166.9 830.752 1227.41 834.514 1298.93C843.732 1388.57 869.693 1536.81 869.428 1534.91C875.044 1551.97 883.256 1549.69 895.389 1539.2Z" fill="#7BC6F9"/>
<path d="M1522.42 1582.32C1511.19 1572.79 1498.36 1545.34 1484.11 1499.89C1453.54 1405.31 1461.75 1396.89 1449.46 1345.45C1440.72 1309.1 1410.05 1319.64 1377.41 1337.66C1357.06 1348.2 1341.06 1358.06 1329.46 1367.17C1308.38 1383.49 1300.27 1412.57 1305.04 1454.53C1304.3 1471.06 1343.29 1554.88 1256.77 1568.55C1211.69 1575.7 1184.56 1549 1175.29 1488.55C1160.88 1346.82 1170.41 1216.07 1203.95 1096.12C1238.76 973.415 1294.18 905.599 1370.42 892.831C1458.79 878.049 1518.02 949.944 1548.06 1108.62C1560.99 1176.97 1573.44 1250.24 1585.41 1328.49C1617.68 1539.25 1632.3 1545.45 1615.88 1567.65C1591.4 1596.47 1543.13 1599.86 1522.47 1582.32H1522.42ZM1303.98 1280.54C1310.97 1279.43 1409.04 1235.4 1419.69 1223.01C1424.51 1217.34 1423.08 1189.31 1415.34 1138.87L1400.03 1046.79C1360.56 870.844 1290.31 1223.33 1297.73 1271.91C1298.68 1278.21 1300.75 1281.07 1303.93 1280.6L1303.98 1280.54Z" fill="#7BC6F9"/>
<path d="M1859.85 1414.69C1895.72 1398.69 1904.99 1411.14 1931.8 1415.49C1936.67 1377.34 1935.51 1334.38 1928.2 1286.75L1927.03 1271.06C1925.34 1259.94 1920.89 1254.96 1913.63 1256.12C1886.4 1260.52 1813.92 1309 1736.94 1240.76C1682.53 1191.17 1646.5 1108.68 1628.8 993.126C1616.56 913.231 1628.86 870.21 1665.73 864.011C1702.45 857.866 1740.06 873.866 1745.68 910.37C1750.02 938.767 1746.84 987.775 1771.11 1052.46C1800.73 1132.94 1825.36 1172.78 1845.07 1172.04C1853.34 1166.64 1860.06 1143.22 1865.26 1101.68C1872.99 1044.25 1876.38 1001.81 1875.54 974.265C1880.62 923.827 1878.29 831.004 1908.44 800.223C1919.56 790.05 1963.17 783.216 1991.67 799.746C2001.79 806.209 2007.83 815.852 2009.79 828.567C2011.01 836.514 2013.66 875.667 2017.79 945.92C2028.49 1140.04 2112.09 1377.29 2030.45 1459.57C1948.91 1542.91 1775.03 1461.21 1859.96 1414.64L1859.85 1414.69Z" fill="#7BC6F9"/>
<path d="M263.011 262.836C229.316 235.074 224.812 184.901 252.998 151.576C257.077 146.808 264.336 152.953 260.256 157.722C235.461 187.02 239.435 231.1 269.051 255.524C273.978 259.604 267.78 266.809 263.011 262.889V262.836Z" fill="white"/>
</g>
<defs>
<clipPath id="clip0_4604_4854">
<rect width="2186.47" height="1663.92" fill="white" transform="translate(0.4375)"/>
</clipPath>
</defs>
</svg>
