<svg width="2605" height="1786" viewBox="0 0 2605 1786" fill="none" xmlns="http://www.w3.org/2000/svg">
<g clip-path="url(#clip0_4604_5157)">
<path d="M1902.66 685.791L1320.61 826.655L643.184 659.178L1341.4 538.542L1902.66 685.791Z" fill="#FCDA2B"/>
<path d="M1777.05 919.545C1732.35 1067.13 1691.5 1425.54 1670.88 1547.3C1666.86 1570.87 1649.07 1589.34 1625.79 1594.6C1477.63 1627.93 1258.06 1731.79 1258.06 1731.79L1307.67 1046.62L1776.99 919.601L1777.05 919.545Z" fill="#FCDA2B"/>
<path d="M1902.65 685.79L1840.44 902.313C1110.41 1099.96 1362.2 1031.76 1307.73 1046.51C1309.02 1024.02 1302.92 1127.93 1320.61 826.598L1902.65 685.733V685.79Z" fill="#FDF859"/>
<path d="M1320.61 826.652C1302.92 1127.99 1309.03 1024.08 1307.73 1046.56C1176.58 992.829 819.815 900.954 676.521 863.944L643.184 659.23L1320.61 826.708V826.652Z" fill="#FFFBC2"/>
<path d="M1307.73 1046.57L1258.12 1731.73C1219.87 1709.98 932.431 1627.37 830.554 1598.78C805.919 1591.83 788.798 1569.85 787.555 1544.25C772.977 1236.53 740.995 958.703 722.18 876.434C833.379 904.573 1179.01 993.849 1307.67 1046.57H1307.73Z" fill="#FDF859"/>
<path d="M1320.61 696.47C1316.09 703.364 1117.48 776.48 1117.48 776.48L1081.09 1671.9L981.869 1642.68L925.422 729.073L1299.99 642.622L1320.61 696.527V696.47Z" fill="#70E493"/>
<path d="M1320.61 696.467L1515.37 779.528L1445.2 1653.25L1532.1 1620.19L1699.75 718.956L1374.28 620.809L1320.61 696.467Z" fill="#70E493"/>
<path d="M1345.81 679.97C1345.81 679.97 1345.53 680.253 1345.53 680.366C1345.53 680.253 1345.53 680.083 1345.7 679.801C1345.7 679.801 1345.73 679.857 1345.81 679.97Z" fill="#0E1096"/>
<path d="M1345.81 679.97C1345.81 679.97 1345.53 680.253 1345.53 680.366C1345.53 680.253 1345.53 680.083 1345.7 679.801C1345.7 679.801 1345.73 679.857 1345.81 679.97Z" fill="#0E1096"/>
<path d="M1856.77 300.433C1878.64 212.286 1850.9 111.879 1782.08 52.6065C1713.25 -6.83562 1605.28 -18.4189 1528.77 30.5135C1456.27 76.8467 1421.86 163.863 1399.83 247.036C1370.95 354.45 1345.92 465.424 1339.31 576.68C1336.54 465.367 1320.55 354.62 1291.85 247.036C1269.59 163.863 1235.34 76.8467 1162.91 30.5135C1086.4 -18.4189 978.364 -6.83562 909.599 52.6065C840.777 111.823 813.034 212.286 834.901 300.433C861.232 406.942 949.321 486.782 1041.71 546.055C1100.19 583.574 1187.03 613.747 1234.16 664.318C1203.14 679.856 1172 696.412 1144.03 715.115C1128.78 722.856 1113.86 731.105 1100.64 740.711C964.238 838.576 872.194 979.722 835.523 1126.86C887.958 1073.52 940.224 1019.95 992.603 966.614C988.931 1049.05 1027.35 1132.17 1092.5 1182.97C1088.66 1179.97 1096.51 1138.84 1097.08 1132.73C1112.84 971.699 1139.29 855.922 1250.26 732.405C1259.41 722.234 1270.15 711.724 1283.77 710.481C1300.55 708.956 1314.79 721.782 1330.44 727.998C1348.52 735.23 1369.99 733.253 1386.49 722.912C1393.84 718.279 1400.56 712.007 1409.04 710.368C1425.48 707.204 1437.4 730.71 1446.56 740.541C1544.99 844.735 1557.25 989.78 1556.17 1129.29C1555.78 1146.97 1548.83 1179.69 1557.47 1194.61C1604.94 1152.68 1626.29 1069.51 1627.03 1008.82C1627.03 1011.42 1714.95 1042.5 1723.82 1046.51C1737.61 1052.95 1803.49 1096.57 1813.04 1084.03C1823.72 1069.85 1787.84 1018.15 1780.1 1004.75C1699.69 864.568 1576.29 750.769 1426.33 684.094C1430.9 684.094 1465.31 657.424 1469.38 654.825C1595.39 572.442 1811.23 485.087 1856.83 300.489L1856.77 300.433Z" fill="#FF625E"/>
<path d="M1721.51 194.373C1782.7 157.476 1829.99 193.921 1826.04 262.742C1821.46 341.113 1766.77 407.336 1707.72 459.093C1637.15 520.909 1546.63 586.114 1455.37 612.389C1449.78 597.585 1481.7 558.258 1489.78 544.301C1650.25 266.754 1666.36 227.653 1721.56 194.373H1721.51Z" fill="#EA3236"/>
<path d="M1027.35 164.031C1018.54 93.1189 1071.03 64.6974 1132.28 96.2831C1202.06 132.276 1240.32 209.178 1263.6 284.159C1291.4 373.717 1314.22 482.939 1301.17 577.018C1285.35 576.114 1262.41 530.968 1252.92 517.915C1064.48 258.562 1035.32 227.937 1027.35 163.975V164.031Z" fill="#EA3236"/>
<path d="M1500.4 101.198C1535.83 59.4981 1586.06 28.76 1640.53 24.1266C1646.47 23.6181 1653.08 23.6181 1657.6 27.5169C1664.49 33.5063 1662 45.4851 1655.22 51.5875C1633.75 70.7989 1522.16 56.6164 1433.67 240.198C1434.46 193.977 1471.3 135.439 1500.4 101.198Z" fill="white"/>
<path d="M881.971 289.303C863.268 217.882 892.367 156.688 905.589 153.354C912.596 151.603 919.32 158.666 920.167 165.842C922.936 188.613 862.816 254.835 942.034 396.095C912.257 374.511 890.955 323.827 881.914 289.303H881.971Z" fill="white"/>
<path d="M1279.7 605.499C1289.92 592.447 1312.19 588.322 1322.98 600.923C1326.88 605.443 1328.8 611.376 1332.08 616.405C1335.35 621.434 1341.17 625.728 1346.94 624.259C1354.34 622.394 1356.43 613.184 1359.14 606.008C1363.66 594.142 1376.54 583.802 1388.52 588.153C1398.64 591.825 1402.88 603.465 1405.81 613.806C1412.76 637.933 1419.43 664.037 1411.01 687.713C1395.76 730.712 1335.18 745.29 1299.02 719.072C1271.45 699.013 1258.79 632.169 1279.64 605.612L1279.7 605.499Z" fill="#EA3236"/>
<path d="M1298.8 642.902C1300.77 647.196 1300.72 652.112 1301.68 656.745C1304.73 671.436 1317.78 684.545 1320.55 664.769C1321.85 655.672 1329.48 631.997 1338.18 634.709C1343.15 636.291 1342.53 642.167 1344.68 668.95C1345.19 675.505 1346.54 683.302 1352.59 686.014C1356.83 687.935 1362.02 686.24 1365.47 683.076C1368.92 679.912 1370.89 675.505 1372.59 671.154C1383.66 642.393 1379.43 627.702 1382.99 620.922C1384.51 617.984 1388.07 615.836 1391.18 617.08C1394.34 618.323 1395.36 622.221 1395.93 625.555C1399.71 646.744 1403.16 669.854 1392.71 688.614C1376.43 717.826 1335.92 722.12 1310.44 702.57C1294.11 690.083 1284.67 669.798 1283.14 649.287C1281.96 633.409 1294.67 633.918 1298.8 642.845V642.902Z" fill="white"/>
<path d="M2141.61 516.216C2157.96 516.216 2171.22 502.96 2171.22 486.608C2171.22 470.256 2157.96 457 2141.61 457C2125.26 457 2112 470.256 2112 486.608C2112 502.96 2125.26 516.216 2141.61 516.216Z" fill="#FF9745"/>
<path d="M639.285 247.602C639.285 262.519 627.193 274.61 612.276 274.61C597.359 274.61 585.268 262.519 585.268 247.602C585.268 232.685 597.359 220.593 612.276 220.593C627.193 220.593 639.285 232.685 639.285 247.602Z" fill="#70E493"/>
<path d="M1817.46 1691.46C1839.64 1669.29 1839.64 1633.33 1817.46 1611.15C1795.29 1588.98 1759.33 1588.98 1737.15 1611.15C1714.98 1633.33 1714.98 1669.29 1737.15 1691.46C1759.33 1713.64 1795.29 1713.64 1817.46 1691.46Z" fill="#FF625E"/>
<path d="M614.99 1417.5C614.99 1433.77 601.768 1446.99 585.495 1446.99C569.222 1446.99 556 1433.77 556 1417.5C556 1401.22 569.222 1388 585.495 1388C601.768 1388 614.99 1401.22 614.99 1417.5Z" fill="#70E493"/>
<path d="M2111.5 1275.25C2111.5 1290.85 2098.85 1303.5 2083.25 1303.5C2067.66 1303.5 2055 1290.85 2055 1275.25C2055 1259.66 2067.66 1247 2083.25 1247C2098.85 1247 2111.5 1259.66 2111.5 1275.25Z" fill="#C17BF9"/>
<path d="M1902.66 554.475C1902.66 575.551 1885.53 592.672 1864.46 592.672C1843.38 592.672 1826.26 575.551 1826.26 554.475C1826.26 533.399 1843.38 516.278 1864.46 516.278C1885.53 516.278 1902.66 533.399 1902.66 554.475Z" fill="#FDF859"/>
</g>
<defs>
<clipPath id="clip0_4604_5157">
<rect width="2604.94" height="1785.47" fill="white"/>
</clipPath>
</defs>
</svg>
