<svg width="1979" height="1752" viewBox="0 0 1979 1752" fill="none" xmlns="http://www.w3.org/2000/svg">
<path d="M487.411 921.765L425.988 944.771L372.205 907.213L375.124 972.757L322.801 1012.29L386.027 1029.76L407.445 1091.74L443.587 1037.01L509.173 1035.77L468.31 984.475L487.411 921.765Z" fill="#FD6F59"/>
<path d="M501.704 1228.06L475.35 1288.11L410.965 1300.51L459.94 1344.08L451.828 1409.15L508.4 1376.02L567.806 1403.87L553.77 1339.83L598.625 1291.93L533.339 1285.49L501.704 1228.06Z" fill="#FD6F59"/>
<path d="M713.444 965.029L683.312 991.083L644.767 981.039L660.219 1017.74L638.758 1051.3L678.462 1047.96L703.701 1078.73L712.8 1039.93L749.886 1025.42L715.805 1004.82L713.444 965.029Z" fill="#FD6F59"/>
<path d="M728.726 742.603L727.524 799.477L679.965 830.768L733.705 849.439L748.771 904.338L783.152 859.011L839.982 861.672L807.533 814.929L827.578 761.704L773.151 778.144L728.726 742.603Z" fill="#FD6F59"/>
<path d="M862.943 1254.16C724.559 1255.58 587.376 1185.48 507.41 1072.55C484.403 1066.07 458.263 1087.19 461.654 1110.88C465.045 1134.53 483.717 1152.77 502.131 1168.06C595.531 1245.45 717.991 1297 837.618 1276.99C846.933 1275.45 857.105 1272.87 862.514 1265.1C867.879 1257.34 872.386 1254.12 862.9 1254.2L862.943 1254.16Z" fill="#7B9EF9"/>
<path d="M991.026 1189.39C909.429 1190.21 828.518 1148.91 781.346 1082.3C767.782 1078.48 752.373 1090.92 754.39 1104.87C756.407 1118.82 767.396 1129.6 778.255 1138.57C833.326 1184.2 905.565 1214.59 976.088 1202.83C981.582 1201.92 987.592 1200.38 990.768 1195.83C993.944 1191.24 996.563 1189.35 990.983 1189.39H991.026Z" fill="#AEE470"/>
<path d="M869.298 1324.77C790.448 1367.91 690.351 1369.71 609.999 1329.45C594.847 1332.8 586.305 1352.88 595.491 1365.42C604.676 1377.95 620.944 1382.67 636.182 1385.81C713.401 1401.56 799.333 1393.66 861.786 1345.63C866.636 1341.89 871.701 1337.3 872.431 1331.21C873.118 1325.11 874.706 1321.89 869.341 1324.85L869.298 1324.77Z" fill="#FF458E"/>
<path d="M993.562 1120.41C911.836 1082.98 850.542 1003.83 834.789 915.326C823.071 905.153 801.867 910.347 797.317 925.199C792.767 940.05 798.69 955.932 805.301 970.01C838.824 1041.31 896.555 1105.48 972.401 1126.81C978.324 1128.48 985.02 1129.77 990.343 1126.68C995.665 1123.59 999.185 1122.95 993.605 1120.37L993.562 1120.41Z" fill="#46F2FF"/>
<path d="M1718.28 982.466C1700.21 949.458 1667.85 953.063 1665.79 952.463C1650.03 952.291 1634.41 954.737 1619.26 959.03C822.345 1176.39 869.518 1166.18 846.897 1165.36C829.127 1164.76 816.594 1147.76 819.512 1131.37C819.684 1130.89 819.684 1130.59 819.813 1130.29C820.285 1127.85 821.186 1125.53 822.431 1123.25C822.431 1123.08 822.603 1123.08 822.603 1122.95C831.187 1107.03 845.266 1094.92 859.345 1083.64C947.509 1011.7 1045.16 952.162 1142.51 893.057C1264.5 818.542 1325.96 796.78 1470.83 843.008C1533.75 863.054 1604.32 883.871 1662.01 916.192C1691.84 932.89 1703.82 952.162 1718.32 982.466H1718.28Z" fill="#FD6F59"/>
<path d="M1732.96 1365C1730.25 1452.52 1724.97 1484.45 1605 1518.36C1355.49 1588.33 842.86 1639.58 842.86 1639.58C835.949 1628.46 838.438 1614.04 844.233 1605.88C830.111 1563.73 832.73 1515.53 846.208 1481.75C838.868 1459.38 835.82 1435.69 837.194 1412.25C837.494 1405.39 840.113 1397.27 841.314 1389.59V1389.42C843.461 1372.38 835.563 1365.98 831.828 1351C823.33 1318.42 822.471 1283.79 828.91 1250.61C829.382 1247.86 837.322 1221.68 836.85 1221.2C827.665 1214.64 818.093 1198.84 816.204 1184.16C814.659 1171.63 815.603 1144.07 819.424 1131.37C816.505 1147.76 829.081 1164.72 846.809 1165.36C869.601 1166.18 825.647 1175.49 1619.17 959.029C1645.52 951.56 1665.05 952.547 1666.64 952.461C1691.75 952.891 1708.92 963.879 1719.61 985.212C1737.81 1022.25 1731.41 1081.79 1732.49 1116.56C1735.1 1199.36 1735.23 1282.2 1732.96 1365Z" fill="#FFC8C2"/>
<path d="M1659.65 1223.99C1629.47 1255.07 1583.59 1257.04 1540.88 1264.38C1482.42 1274.64 1068.21 1334.35 841.359 1389.46C843.505 1372.42 835.607 1366.03 831.873 1351.05C823.374 1318.47 822.516 1283.83 828.954 1250.65C829.427 1247.9 837.367 1221.72 836.895 1221.25C835.822 1220.47 834.749 1219.57 833.848 1218.63C1072.93 1175.92 1312.18 1133.21 1551.27 1090.5C1591.66 1083.29 1639.3 1078.1 1668.36 1107.2C1698.96 1137.8 1689.95 1193.09 1659.65 1223.99Z" fill="#FF5EE0"/>
<path d="M1639.9 1446.9C1611.14 1471.06 1565.52 1475.53 1523.28 1483.47C1466.02 1494.5 1065.29 1562.45 839.684 1616.61C840.457 1612.79 841.959 1609.1 844.277 1605.88C832.044 1569.31 831.743 1528.28 843.032 1491.24C1070.48 1446.98 1297.93 1402.6 1525.42 1358.22C1565.52 1350.41 1612.69 1343.67 1643.12 1362.64C1675.1 1382.55 1668.53 1422.65 1639.9 1446.81V1446.9Z" fill="#FF5EE0"/>
</svg>
