<svg width="2602" height="1487" viewBox="0 0 2602 1487" fill="none" xmlns="http://www.w3.org/2000/svg">
<g clip-path="url(#clip0_4604_5018)">
<path d="M1245.5 252.449L1237.04 200.63L1275.28 164.375L1223 156.331L1200.09 109.059L1176.25 155.923L1123.86 162.976L1161.39 199.931L1151.93 251.517L1198.98 227.56L1245.5 252.449Z" fill="#E1FD59"/>
<path d="M2572.23 1019.18L2563.77 967.361L2602.01 931.106L2549.73 923.062L2526.83 875.848L2502.98 922.654L2450.59 929.707L2488.06 966.662L2478.66 1018.31L2525.65 994.291L2572.23 1019.18Z" fill="#5946FF"/>
<path d="M176.443 1486.95L167.985 1435.19L206.222 1398.93L153.947 1390.89L131.04 1343.62L107.193 1390.48L54.8008 1397.47L92.2744 1434.49L82.8766 1486.07L129.865 1462.12L176.443 1486.95Z" fill="#E1FD59"/>
<path d="M2403.13 582.13C2409.35 697.542 2410.82 813.187 2407.47 928.716C2404.77 1021.45 2397.37 1119.09 2345.33 1196.2C2304.69 1256.42 2240.02 1297.86 2171.06 1321.7C2025.28 1372.18 1763.9 1363.49 1611.66 1346.47C1546.34 1339.13 1475.86 1325.95 1432.04 1277.28C1384.76 1224.77 1382.65 1162.57 1345.17 916.591C1336.95 862.616 1320.39 810.098 1260.18 794.476C1223.83 785.033 1182.24 797.157 1157.98 825.661C1135.07 852.532 1128.97 889.312 1123.68 924.111C1112.87 995.456 1098.31 1067.33 1091.2 1139.14C1085.74 1194.34 1070 1256.88 1029.41 1297.8C983.242 1344.26 912.23 1354.05 846.622 1358.19C693.732 1367.86 432.298 1363.84 289.099 1306.37C221.376 1279.21 158.823 1234.67 121.231 1172.54C73.0679 1093.03 70.4247 995.107 72.3043 902.369C74.595 786.84 81.7608 671.37 93.6842 556.366C97.972 515.156 101.496 489.917 135.093 465.26C168.69 440.604 211.156 431.628 252.448 425.216C505.6 385.871 765.214 419.97 1014.08 480.707C1164.97 517.545 1134.6 578.516 1149.23 635.173C1170.14 716.311 1304.59 749.361 1343.53 664.55C1363.32 621.475 1350.87 568.14 1378.54 528.504C1408.02 486.303 1498.71 471.381 1544.52 461.938C1743.05 420.902 2001.78 397.412 2197.73 425.974C2254.29 434.251 2314.03 445.908 2357.96 481.29C2396.78 512.474 2400.54 532.584 2403.25 582.071L2403.13 582.13Z" fill="#D3C3B1"/>
<g opacity="0.6">
<path d="M2292 906.214C2290.47 951.388 2288.77 996.795 2278.61 1040.86C2249.24 1168.51 2169.06 1210.25 2040.96 1232.87C1955.97 1247.67 1869.51 1255.07 1782.99 1254.72C1697.41 1254.72 1633.86 1240.5 1573.83 1216.37C1473.81 1174.69 1485.96 1021.28 1497.65 915.773C1504 859.758 1511.22 801.236 1543.58 755.129C1569.78 717.708 1610.37 691.886 1653.6 676.323C1756.5 639.134 1984.46 635.579 2104.46 645.546C2144.45 648.985 2188.74 655.047 2221.93 678.596C2255.7 702.436 2277.02 742.481 2285.66 782.467C2294.64 822.919 2293.29 864.887 2292 906.272V906.214Z" fill="white"/>
</g>
<g opacity="0.6">
<path d="M926.269 1216.31C858.546 1244.58 790.588 1254.32 717.109 1254.67C629.299 1255.13 536.848 1246.68 459.141 1232.81C330.685 1209.61 252.096 1169.39 221.494 1040.81C211.333 996.739 209.63 951.39 208.103 906.158C206.752 864.773 205.636 822.805 214.622 782.352C223.609 741.9 244.108 702.38 278.175 678.481C311.83 654.933 354.708 649.045 395.647 645.432C522.81 634.881 618.727 641.818 730.736 651.902C792.82 659.071 853.788 670.671 905.652 705.819C980.776 756.588 992.288 826.127 1002.51 915.659C1014.73 1022.04 1026 1174.75 926.327 1216.25L926.269 1216.31Z" fill="white"/>
</g>
<path d="M205.34 285.03C174.738 283.34 144.665 295.289 122.111 315.632C92.684 261.249 120.819 191.01 190.068 182.908C169.57 214.443 176.089 260.957 205.399 285.089L205.34 285.03Z" fill="#EA5332"/>
<path d="M1059.95 527.923C1023.18 555.261 961.568 545.76 942.244 504.549C931.142 526.932 903.771 540.047 879.102 534.918C854.609 529.788 834.874 506.997 833.758 481.933C775.962 524.542 692.263 495.806 673.996 426.5C686.448 479.31 630.766 531.537 576.024 527.923C521.458 524.309 476.525 478.552 459.492 426.908C462.546 466.603 425.836 504.782 385.837 503.617C345.661 502.276 306.014 464.68 311.594 425.393C298.555 481.817 236.764 522.619 179.203 512.943C121.642 503.267 77.1784 444.395 83.6981 386.631C90.7464 328.866 146.604 281.769 205.399 285.033C176.384 261.135 168.102 213.105 192.771 178.889C216.97 146.772 267.366 139.952 298.966 161.053C302.02 121.708 330.331 82.3043 373.619 68.9562C414.558 56.9487 461.782 72.2204 487.098 104.862C489.388 92.33 493.97 80.3808 500.489 69.5391C500.489 69.3642 500.666 69.3642 500.901 69.131C524.454 29.8443 572.265 4.37206 618.373 11.425C645.568 15.6218 670.06 27.9208 683.041 47.5059C683.041 47.5059 683.041 47.6807 683.217 47.6807C689.913 58.1144 693.555 70.4717 692.38 84.9273C713.173 73.6776 739.487 56.7738 771.204 50.1871C824.36 38.7042 850.792 65.9834 852.906 66.9161C874.521 85.9183 881.217 122.174 862.304 143.799C880.864 138.845 900.012 135.231 919.16 134.473C993.05 129.868 1041.51 170.904 1051.96 212.93C1061.54 249.011 1041.8 292.319 1005.85 302.928C1044.5 327.234 1079.16 361.392 1093.14 404.525C1107.29 447.834 1096.6 500.819 1060.01 527.981L1059.95 527.923Z" fill="#FF825E"/>
<path d="M2276.9 274.827C2307.51 273.137 2337.58 285.086 2360.13 305.429C2389.56 251.045 2361.43 180.807 2292.18 172.705C2312.67 204.239 2306.16 250.754 2276.85 274.886L2276.9 274.827Z" fill="#EA5332"/>
<path d="M1422.24 517.721C1459 545.058 1520.62 535.557 1539.94 494.347C1551.04 516.73 1578.41 529.845 1603.08 524.716C1627.58 519.586 1647.31 496.795 1648.43 471.731C1706.22 514.34 1789.92 485.604 1808.19 416.298C1795.74 469.108 1851.42 521.335 1906.16 517.721C1960.73 514.107 2005.66 468.35 2022.69 416.706C2019.64 456.401 2056.35 494.58 2096.35 493.414C2136.53 492.074 2176.17 454.478 2170.59 415.191C2183.63 471.614 2245.42 512.417 2302.98 502.741C2387.74 488.518 2438.43 374.447 2360.02 305.433C2337.46 285.09 2307.39 273.141 2276.79 274.831C2305.8 250.933 2314.08 202.903 2289.42 168.687C2265.22 136.57 2214.82 129.75 2183.22 150.851C2181.11 123.863 2167.36 98.2739 2147.04 80.2044C2098.41 37.77 2027.92 52.3423 1995.09 94.66C1992.8 82.1279 1988.22 70.1787 1981.7 59.3369C1981.7 59.1621 1981.52 59.1621 1981.29 58.9289C1957.73 19.6422 1909.92 -5.83009 1863.81 1.22287C1836.62 5.41968 1812.13 17.7186 1799.15 37.3037C1799.15 37.3037 1799.15 37.4786 1798.97 37.4786C1792.27 47.9123 1788.63 60.2695 1789.81 74.7252C1769.01 63.4754 1742.7 46.5717 1710.98 39.985C1657.83 28.5021 1631.39 55.7813 1629.28 56.7139C1607.67 75.7161 1600.97 111.972 1619.88 133.655C1561.79 118.209 1500 117.801 1456.83 158.894C1406.79 206.283 1427.7 278.387 1476.33 292.784C1437.68 317.091 1403.03 351.248 1389.05 394.382C1374.89 437.69 1385.58 490.675 1422.18 517.838L1422.24 517.721Z" fill="#FF825E"/>
<path d="M313.77 273.492C300.613 268.595 308.132 248.952 321.23 253.848C342.081 261.659 365.223 248.486 369.041 226.686C371.449 213.046 392.3 216.543 389.892 230.299C383.842 265.04 347.191 285.907 313.829 273.492H313.77Z" fill="#EA5332"/>
<path d="M598.288 172.299C587.07 163.905 599.933 147.177 611.034 155.512C620.08 162.273 629.419 169.268 639.639 172.357C649.154 175.272 658.845 173.873 664.249 168.86C674.528 159.417 688.918 174.689 678.698 184.19C655.204 206.048 624.015 191.534 598.347 172.299H598.288Z" fill="#EA5332"/>
<path d="M956.341 243.648C940.424 240.617 928.324 229.95 918.633 221.381C908.236 212.172 922.216 196.434 932.729 205.701C942.597 214.445 950.879 221.265 960.335 223.013C967.266 224.296 976.958 220.857 977.897 214.561C979.953 200.805 1000.86 203.895 998.866 217.592C996.047 236.42 974.961 247.145 956.4 243.589L956.341 243.648Z" fill="#EA5332"/>
<path d="M1737.83 128.294C1731.66 115.82 1750.51 106.552 1756.8 118.968C1760.56 126.429 1769.48 131.325 1777.65 130.684C1785.99 130.043 1793.86 123.747 1796.33 115.82C1800.44 102.53 1820.7 108.767 1816.53 121.999C1811.54 138.086 1796.27 150.269 1779.35 151.609C1762.2 152.95 1745.34 143.216 1737.83 128.352V128.294Z" fill="#EA5332"/>
<path d="M2120.43 203.427C2118.55 189.613 2139.58 186.873 2141.4 200.63C2144.81 225.752 2176.88 235.253 2193.68 216.076C2202.78 205.584 2218.87 219.282 2209.65 229.832C2181.16 262.591 2126.3 246.62 2120.43 203.486V203.427Z" fill="#EA5332"/>
<path d="M1508.81 303.568C1503.58 301.062 1501.35 294.766 1503.94 289.52C1506.52 284.274 1512.86 282.176 1518.09 284.682C1533.77 292.26 1551.86 279.436 1549.87 262.416C1549.22 256.645 1553.39 251.458 1559.21 250.816C1564.96 250.175 1570.19 254.314 1570.89 260.084C1572.66 275.414 1565.55 291.152 1552.8 300.071C1540.23 308.872 1522.97 310.446 1508.81 303.626V303.568Z" fill="#EA5332"/>
<path d="M2256.93 446.083C2258.52 443.635 2261.75 442.877 2264.22 444.392C2284.25 456.691 2314.09 450.221 2330.77 430.053C2345.69 411.984 2350.62 384.821 2343.92 357.425C2342.28 350.664 2352.56 348.274 2354.2 354.977C2361.66 385.579 2355.96 416.122 2338.93 436.698C2306.92 475.519 2248.89 459.081 2256.93 446.083Z" fill="white"/>
<path d="M1838.91 442.412C1836.68 435.825 1846.72 432.503 1848.96 439.09C1861.58 476.686 1912.92 484.205 1935.77 451.039C1939.64 445.326 1948.45 451.214 1944.46 456.926C1916.91 497.029 1854.42 488.46 1838.91 442.412Z" fill="white"/>
<path d="M1425.23 488.752C1403.38 455.003 1417.95 415.425 1435.45 381.209C1438.62 375.031 1448.02 379.752 1444.85 385.989C1428.75 417.407 1414.89 453.429 1434.04 483.098C1443.32 497.379 1460.18 505.423 1474.86 502.509C1481.91 501.343 1483.61 511.543 1476.86 512.826C1458.24 516.381 1436.86 506.88 1425.17 488.752H1425.23Z" fill="white"/>
</g>
<defs>
<clipPath id="clip0_4604_5018">
<rect width="2602.01" height="1486.95" fill="white"/>
</clipPath>
</defs>
</svg>
