<svg width="1872" height="2003" viewBox="0 0 1872 2003" fill="none" xmlns="http://www.w3.org/2000/svg">
<g clip-path="url(#clip0_4604_5093)">
<path d="M245.304 591.261C269.914 602.319 297.536 603.778 324.499 603.825C369.156 603.684 493.196 575.685 515.736 548.346H515.877C513.807 544.063 512.724 540.722 511.595 537.711C509.054 535.546 526.182 545.569 358.333 448.069C342.098 438.563 325.629 429.011 307.606 423.176C236.034 399.507 191.001 455.739 196.271 530.888C198.906 557.569 220.646 580.438 245.304 591.308V591.261Z" fill="#965C0E"/>
<path d="M297.677 679.446C352.262 649.095 406.988 618.838 461.762 588.58C473.432 582.181 512.394 568.629 517.523 552.724L517.617 552.535C516.77 551.171 516.3 549.853 515.735 548.347C493.195 575.734 372.59 554.088 327.934 554.229C300.971 554.229 273.302 552.724 248.738 541.665C224.081 530.795 202.341 507.973 199.706 481.245C200.364 491.645 187.894 512.255 194.906 556.912C199.988 589.38 215.658 626.131 228.598 656.294C245.162 695.257 264.078 697.751 297.677 679.446Z" fill="#FFA046"/>
<path d="M509.524 558.181L680.997 440.541C705.56 423.694 711.536 389.437 693.326 365.862C667.445 332.358 627.965 308.971 590.226 301.207C600.813 306.242 608.625 317.959 610.271 330.005C612.577 347.369 605.284 364.498 597.143 380.261C579.356 414.848 505.336 519.642 509.571 558.228L509.524 558.181Z" fill="#FFA046"/>
<path d="M509.525 558.181C505.29 519.595 579.309 414.754 597.096 380.214C605.237 364.45 612.531 347.322 610.225 329.958C608.578 317.912 600.767 306.242 590.179 301.16C590.132 301.019 589.944 301.066 589.944 301.066C567.498 295.043 530.183 292.643 490.138 300.595C461.528 306.289 442.752 334.099 448.587 362.709C467.08 453.104 490.373 506.984 499.737 533.994C504.019 538.135 507.313 542.982 505.666 548.676L505.572 548.864C506.749 551.97 508.066 555.028 509.384 558.087L509.525 558.181Z" fill="#965C0E"/>
<path d="M5.27095 908.751C13.7411 920.186 25.6934 935.385 40.469 952.984C50.8214 965.171 89.7369 1022.39 122.912 1068.84C155.333 1114.06 164.462 1127.7 208.601 1166.1C218.295 1174.67 232.788 1175.23 242.764 1166.95C449.999 997.64 755.677 796.569 1010.53 712.573H1010.67C1046.67 700.198 1082.01 690.175 1118.29 682.128C1136.69 677.893 1150.2 660.953 1147.7 639.307C1146.53 618.179 1115.05 541.901 1088.79 471.128V470.987C1078.67 443.93 1062.34 398.332 1056.27 369.91C1051.75 348.641 1030.16 335.512 1009.17 341.629C724.243 421.343 335.512 612.767 9.92951 872.376C-1.17576 881.317 -3.34034 897.504 5.27095 908.751Z" fill="#59A3FD"/>
<path d="M180.085 1369.71C180.462 1371.45 208.554 1507.54 206.766 1498.98C207.142 1500.72 309.16 1996.08 303.184 1966.86C464.964 1992.41 625.049 2000.45 786.64 2002.43C979.618 2004.03 1141.11 1993.68 1203.04 1988.93C1218.95 1987.66 1232.12 1976.08 1235.27 1960.17C1381.76 1225.2 1273.81 1766.87 1366.14 1302.52C970.865 1196.73 554.888 1208.69 227.424 1303.79H227.094C223.753 1304.73 220.412 1305.86 217.401 1306.8C190.579 1315.03 174.344 1342.23 180.085 1369.67V1369.71Z" fill="#59A3FD"/>
<path d="M462.892 560.205C502.983 578.462 527.688 622.225 530.982 666.128C541.287 803.344 391.507 887.387 333.816 999.333C299.701 1065.49 294.054 1145.77 318.57 1216.07C285.631 1191.13 256.785 1161.35 239.516 1123.8C212.505 1150.05 192.271 1183.23 181.307 1219.32C146.156 1119.61 169.59 982.628 306.053 849.977C351.462 805.885 405.483 763.44 420.353 701.938C431.787 654.693 417.388 605.237 400.636 559.593L462.939 560.205H462.892Z" fill="#FFA046"/>
<path d="M700.95 560.252C810.026 622.319 923.196 689.61 988.134 797.039C950.254 763.017 902.68 739.913 852.518 731.113C827.955 769.37 817.649 816.567 824.143 861.553C818.449 822.167 783.816 774.546 762.217 742.077C711.396 665.658 643.918 600.297 566.087 552.158C555.358 545.524 525.477 536.065 525.43 521.572C525.336 508.584 545.005 500.773 555.217 500.067C602.649 496.773 661.799 537.947 700.997 560.252H700.95Z" fill="#FFA046"/>
<path d="M848.989 733.702C772.146 630.131 682.127 566.605 538.182 514.373C532.818 512.444 535.735 504.256 541.147 506.232C686.786 559.076 777.981 623.496 855.953 728.526C859.388 733.137 852.424 738.314 848.989 733.702Z" fill="white"/>
<path d="M233.351 1124.69C232.222 1005.5 316.217 911.009 390.331 827.719C420.447 793.886 454.61 755.535 469.526 708.526C482.467 667.681 478.279 610.178 438.375 580.392C433.764 576.957 438.987 569.992 443.551 573.427C486.843 605.755 491.643 667.493 477.808 711.114C449.998 798.733 357.438 858.635 291.466 966.253C258.15 1020.56 241.539 1073.82 242.009 1124.55C242.057 1130.29 233.398 1130.43 233.351 1124.64V1124.69Z" fill="white"/>
<path d="M258.149 572.817C228.645 563.97 227.845 550.559 220.175 550.512C210.764 550.465 215.187 561.711 216.41 567.593C218.528 578.087 223.422 589.051 233.115 593.521C240.55 596.956 249.209 595.874 257.208 594.227C265.537 592.533 302.147 587.922 304.735 576.816C307.229 566.182 277.819 578.652 258.102 572.769L258.149 572.817Z" fill="white"/>
<path d="M614.695 392.026C611.542 395.32 607.919 398.473 606.225 402.708C604.531 406.99 605.754 412.825 610.036 414.425C614.083 415.931 618.318 413.061 621.659 410.331C630.976 402.802 640.387 395.179 647.352 385.486C673.139 349.582 639.964 316.313 631.776 342.006C625.847 360.687 630.129 375.745 614.648 391.979L614.695 392.026Z" fill="white"/>
<path d="M1529.66 1683.53C1544.72 1695.58 1566.69 1693.13 1578.74 1678.07C1590.78 1663.01 1588.34 1641.04 1573.28 1628.99C1558.22 1616.95 1536.25 1619.39 1524.2 1634.45C1512.15 1649.51 1514.6 1671.48 1529.66 1683.53Z" fill="#45FBFF"/>
<path d="M1400.96 1962.62C1409.62 1966.76 1419.97 1963.09 1424.11 1954.43C1428.25 1945.78 1424.58 1935.42 1415.92 1931.28C1407.26 1927.14 1396.91 1930.81 1392.77 1939.47C1388.63 1948.13 1392.3 1958.48 1400.96 1962.62Z" fill="#FFA046"/>
<path d="M635.259 62.208C650.317 74.2544 672.292 71.8075 684.339 56.7495C696.385 41.6915 693.938 19.7163 678.88 7.66986C663.822 -4.37654 641.847 -1.92962 629.801 13.1284C617.754 28.1864 620.201 50.1616 635.259 62.208Z" fill="#45FBFF"/>
<path d="M1108.26 288.258C1127.16 263.131 1122.12 227.434 1096.99 208.527C1071.87 189.62 1036.17 194.662 1017.26 219.789C998.357 244.917 1003.4 280.613 1028.53 299.521C1053.65 318.428 1089.35 313.385 1108.26 288.258Z" fill="#59A3FD"/>
<path d="M357.061 373.298C365.719 377.439 376.072 373.769 380.213 365.111C384.354 356.452 380.683 346.1 372.025 341.959C363.366 337.818 353.014 341.488 348.873 350.147C344.732 358.805 348.403 369.158 357.061 373.298Z" fill="#FFA046"/>
<path d="M1281.58 1218C1315.08 1229.63 1342.56 1234.14 1368.02 1232.26C1405.19 1229.49 1441.9 1210.9 1456.44 1176.55C1429.95 1162.95 1390.18 1128.5 1404.35 1102.53C1414.13 1084.36 1444.72 1083.47 1461.05 1113.12C1470.79 1130.76 1471.87 1152.78 1465.19 1173.07C1516.48 1196.5 1572.95 1182.99 1608.57 1148.69C1611.96 1145.44 1616.76 1150.62 1613.42 1153.73C1575.91 1189.82 1516.67 1204.08 1462.7 1179.61C1447.12 1216.26 1408.06 1236.36 1368.54 1239.27C1342.09 1241.25 1313.72 1236.59 1279.27 1224.64C1274.9 1223.09 1277.2 1216.55 1281.58 1218.05V1218ZM1433.95 1097.68C1425.9 1095.33 1414.93 1097.59 1410.46 1105.82C1398.89 1127.04 1437.15 1158.62 1458.84 1169.91C1470.46 1133.59 1452.53 1103.14 1433.95 1097.68Z" fill="#2BA4FC"/>
<path d="M1687.43 1116.41C1675.01 1107.8 1657.93 1110.95 1649.37 1123.37C1640.75 1135.8 1643.91 1152.88 1656.33 1161.44C1668.75 1170.05 1685.83 1166.9 1694.4 1154.48C1703.01 1142.06 1699.86 1124.97 1687.43 1116.41Z" fill="#E8F97B"/>
<path d="M912.937 1132.74C943.147 1114.2 964.087 1095.8 978.769 1074.91C1000.18 1044.41 1009.07 1004.18 991.662 971.193C964.323 983.051 912.514 991.992 901.408 964.558C896.985 953.829 901.832 940.136 912.514 932.842C932.042 919.478 971.757 926.254 994.533 962.205C1045.17 937.407 1070.48 885.174 1066.53 835.812C1066.15 831.154 1073.21 830.73 1073.49 835.248C1077.63 887.151 1051.14 941.971 998.015 968.229C1016.51 1003.52 1007.33 1046.44 984.51 1078.9C969.263 1100.6 947.712 1119.61 916.655 1138.67C912.702 1141.07 909.079 1135.14 912.984 1132.69L912.937 1132.74ZM916.419 938.63C909.502 943.336 904.279 953.265 907.855 961.97C916.937 984.369 965.593 974.769 988.086 965.17C967.334 933.172 932.418 927.713 916.419 938.63Z" fill="#D770E4"/>
<path d="M1091.52 754.406C1076.98 758.594 1068.6 773.746 1072.79 788.286C1076.98 802.827 1092.13 811.203 1106.67 807.015C1121.21 802.827 1129.58 787.675 1125.4 773.134C1121.21 758.594 1106.06 750.218 1091.52 754.406Z" fill="#2BA4FC"/>
<path d="M798.034 1750.9C798.034 1750.9 833.033 1723.45 871.213 1683.03C895.253 1657.69 926.128 1627.99 932.962 1594.29C947.81 1521.7 899.495 1491.53 853.302 1492.01C808.993 1492.36 796.149 1538.08 796.149 1538.08C796.149 1538.08 782.597 1492.59 738.171 1493.07C691.977 1493.54 644.133 1524.41 660.16 1596.88C667.584 1630.35 699.047 1659.58 723.441 1684.44C762.446 1724.15 798.034 1750.9 798.034 1750.9Z" fill="white" fill-opacity="0.71"/>
<path d="M1071.97 1466.9C1071.97 1466.9 1085.61 1456.2 1100.49 1440.45C1109.85 1430.57 1121.89 1419 1124.55 1405.87C1130.34 1377.58 1111.51 1365.82 1093.51 1366C1076.24 1366.14 1071.23 1383.96 1071.23 1383.96C1071.23 1383.96 1065.95 1366.23 1048.63 1366.42C1030.63 1366.6 1011.99 1378.63 1018.23 1406.88C1021.12 1419.92 1033.39 1431.31 1042.89 1441C1058.1 1456.48 1071.97 1466.9 1071.97 1466.9Z" fill="white" fill-opacity="0.62"/>
<path d="M628.104 748.815C628.104 748.815 634.566 732.727 639.576 711.645C642.753 698.409 647.387 682.37 643.126 669.663C633.992 642.269 611.807 641.502 596.307 650.662C581.421 659.416 585.996 677.351 585.996 677.351C585.996 677.351 572.558 664.639 557.655 673.455C542.156 682.616 532.024 702.36 551.556 723.698C560.583 733.547 576.897 737.279 589.976 740.918C610.879 746.721 628.104 748.815 628.104 748.815Z" fill="white" fill-opacity="0.71"/>
<path d="M449.965 1687.9C449.965 1687.9 463.606 1677.2 478.486 1661.45C487.855 1651.57 499.888 1640 502.551 1626.87C508.338 1598.58 489.508 1586.82 471.505 1587C454.237 1587.14 449.231 1604.96 449.231 1604.96C449.231 1604.96 443.949 1587.23 426.635 1587.42C408.632 1587.6 389.985 1599.63 396.231 1627.88C399.125 1640.92 411.387 1652.31 420.894 1662C436.096 1677.48 449.965 1687.9 449.965 1687.9Z" fill="white" fill-opacity="0.71"/>
<path d="M1202.97 1592.9C1202.97 1592.9 1216.61 1582.2 1231.49 1566.45C1240.85 1556.57 1252.89 1545 1255.55 1531.87C1261.34 1503.58 1242.51 1491.82 1224.51 1492C1207.24 1492.14 1202.23 1509.96 1202.23 1509.96C1202.23 1509.96 1196.95 1492.23 1179.63 1492.42C1161.63 1492.6 1142.99 1504.63 1149.23 1532.88C1152.12 1545.92 1164.39 1557.31 1173.89 1567C1189.1 1582.48 1202.97 1592.9 1202.97 1592.9Z" fill="white" fill-opacity="0.62"/>
<path d="M580.965 1813.9C580.965 1813.9 594.606 1803.2 609.486 1787.45C618.855 1777.57 630.888 1766 633.551 1752.87C639.338 1724.58 620.508 1712.82 602.505 1713C585.237 1713.14 580.231 1730.96 580.231 1730.96C580.231 1730.96 574.949 1713.23 557.635 1713.42C539.632 1713.6 520.985 1725.63 527.231 1753.88C530.125 1766.92 542.387 1778.31 551.894 1788C567.096 1803.48 580.965 1813.9 580.965 1813.9Z" fill="white" fill-opacity="0.71"/>
<path d="M1071.97 1693.9C1071.97 1693.9 1085.61 1683.2 1100.49 1667.45C1109.85 1657.57 1121.89 1646 1124.55 1632.87C1130.34 1604.58 1111.51 1592.82 1093.51 1593C1076.24 1593.14 1071.23 1610.96 1071.23 1610.96C1071.23 1610.96 1065.95 1593.23 1048.63 1593.42C1030.63 1593.6 1011.99 1605.63 1018.23 1633.88C1021.12 1646.92 1033.39 1658.31 1042.89 1668C1058.1 1683.48 1071.97 1693.9 1071.97 1693.9Z" fill="white" fill-opacity="0.62"/>
<path d="M449.965 1914.9C449.965 1914.9 463.606 1904.2 478.486 1888.45C487.855 1878.57 499.888 1867 502.551 1853.87C508.338 1825.58 489.508 1813.82 471.505 1814C454.237 1814.14 449.231 1831.96 449.231 1831.96C449.231 1831.96 443.949 1814.23 426.635 1814.42C408.632 1814.6 389.985 1826.63 396.231 1854.88C399.125 1867.92 411.387 1879.31 420.894 1889C436.096 1904.48 449.965 1914.9 449.965 1914.9Z" fill="white" fill-opacity="0.71"/>
</g>
<defs>
<clipPath id="clip0_4604_5093">
<rect width="1871.43" height="2002.62" fill="white"/>
</clipPath>
</defs>
</svg>
