<svg width="3011" height="2252" viewBox="0 0 3011 2252" fill="none" xmlns="http://www.w3.org/2000/svg">
<path d="M2669.8 1509.72C2622.47 1503.01 2579.86 1536.07 2573.33 1582.31C2579.92 1535.59 2547.22 1492.37 2500.56 1485.78C2547.34 1492.37 2590.68 1459.61 2597.27 1413.01C2590.74 1459.25 2622.59 1503.01 2669.86 1509.72H2669.8Z" fill="#DFFF46"/>
<path d="M2553.32 1927.69C2543.77 1847.72 2609.84 1758.5 2708.84 1768.6C2761.79 1662.4 2878.08 1638.4 2993.71 1619.91C3012.57 1617.01 3016.86 1645.23 2998.25 1648.19C2897.67 1664.33 2788.51 1683.61 2737.86 1774.4C2806.28 1795.07 2841.76 1856.42 2830.82 1904.05C2822.84 1938.87 2788.87 1962.74 2756.77 1956.7C2714.16 1948.36 2669.92 1881.57 2697.48 1796.4C2623.25 1794.23 2574.48 1862.89 2581.79 1924.3C2584.03 1943.16 2555.56 1946.48 2553.32 1927.69ZM2725.95 1800.57C2701.17 1869.96 2735.8 1923.33 2762.27 1928.53C2780.29 1932.34 2798.84 1915.17 2802.89 1897.64C2810.57 1864.04 2781.8 1815.68 2725.95 1800.57Z" fill="#7F59FD"/>
<path d="M2503.88 1226.78C2444.71 1160.65 2478.8 1041.34 2581.61 1033.18C2593.03 965.302 2643.38 912.172 2714.47 901.957C2704.79 821.084 2809.42 738.518 2883.77 707.027C2936.9 684.421 2939.01 745.529 2910.42 743.837C2898.88 743.051 2897.55 726.731 2908.67 724.072C2908.67 723.528 2908.49 722.984 2908.25 722.682C2904.44 720.385 2896.94 723.226 2891.56 725.523C2826.35 753.145 2725.77 829.606 2734.47 900.325C2767.23 899.6 2800.23 908.485 2827.62 927.222C2831.79 930.063 2833.18 935.564 2830.88 940.097C2811.17 978.72 2740.88 982.347 2719.12 921.964C2657.23 929.942 2613.83 973.643 2602.28 1033.3C2656.74 1038.02 2693.55 1076.7 2696.63 1111.76C2698.75 1135.21 2685.09 1158.24 2664.84 1165.25C2626.88 1178.43 2576.11 1134.6 2579.43 1053.85C2494.39 1063.58 2472.99 1162.35 2518.81 1213.48C2527.63 1223.4 2512.71 1236.75 2503.88 1226.9V1226.78ZM2599.8 1053.37C2596.3 1119.19 2634.32 1154.49 2658.31 1146.15C2669.92 1142.16 2677.96 1127.77 2676.69 1113.39C2674.45 1088.06 2645.38 1056.81 2599.8 1053.31V1053.37ZM2740.15 920.634C2755.57 953.576 2791.65 953.515 2807.49 938.223C2787.18 926.739 2763.73 920.876 2740.15 920.634Z" fill="#FB45FF"/>
<path d="M2373.02 724.073C2416.3 617.572 2517.97 539.6 2632.02 525.396C2645.14 523.703 2647.74 543.65 2634.5 545.282C2529.21 558.398 2431.59 633.287 2391.64 731.568C2386.68 743.838 2368.07 736.343 2373.02 724.013V724.073Z" fill="#DFFF46"/>
<path d="M570.496 1545.6C612.597 1528.06 671.348 1550.31 681.14 1605.82C747.171 1618.28 778.17 1677.97 806.08 1738.09C810.531 1747.93 795.869 1754.58 791.366 1744.95C767.069 1692.64 739.735 1636.13 682.45 1622.52C681.716 1663 653.754 1691.74 626.159 1693.16C605.946 1694.15 587.724 1679.39 586.048 1660.96C584.006 1636.45 613.591 1602.05 664.227 1603.93C653.964 1563.19 609.036 1547.17 576.727 1560.63C566.778 1564.76 560.6 1549.79 570.496 1545.65V1545.6ZM666.374 1620.06C624.745 1617.28 601.024 1644.36 602.281 1659.59C602.962 1670.01 615.215 1677.45 625.373 1676.98C644.852 1675.98 666.793 1652.84 666.374 1620.11V1620.06Z" fill="#FFADCD"/>
<path d="M166.043 818.743C119.806 818.743 83.4137 856.183 83.4137 901.373C83.4137 855.712 46.2356 818.743 0.626953 818.743C46.3403 818.743 83.4137 781.512 83.4137 735.956C83.4137 781.146 119.859 818.743 166.043 818.743Z" fill="#92F97B"/>
<path d="M324.182 1957.65C277.945 1957.65 241.552 1995.09 241.552 2040.28C241.552 1994.62 204.374 1957.65 158.766 1957.65C204.479 1957.65 241.552 1920.42 241.552 1874.86C241.552 1920.05 277.997 1957.65 324.182 1957.65Z" fill="#FD9B12"/>
<path d="M837.185 1899.32C804.615 1899.32 778.957 1925.65 778.957 1957.54C778.957 1925.39 752.775 1899.32 720.624 1899.32C752.828 1899.32 778.957 1873.08 778.957 1840.98C778.957 1872.82 804.615 1899.32 837.185 1899.32Z" fill="#FD9B12"/>
<path d="M635.272 919.544C634.016 898.074 606.263 885.298 581.076 882.47C551.491 879.224 517.978 879.957 495.2 857.597C452.262 815.445 491.691 736.219 456.032 702.287C435.715 682.965 400.945 689.039 375.392 697.574C342.508 708.937 309.728 722.185 277.001 712.655C249.877 704.748 228.46 680.713 223.695 652.908C218.877 625.051 231.078 595.308 253.961 578.762C264.277 571.221 275.797 586.983 265.324 594.523C248.568 606.619 239.299 629.24 242.808 649.609C246.316 669.979 262.601 688.201 282.447 694.014C309.204 701.816 340.256 689.144 369.265 679.142C413.199 664.533 447.811 667.675 469.437 688.254C513.108 729.778 473.678 809.266 508.814 843.773C526.409 861.001 556.046 860.216 583.223 863.2C617.416 867.023 652.762 885.56 654.647 918.391C655.432 931.221 636.005 932.32 635.272 919.544Z" fill="#D62B49"/>
<path d="M245.899 1067.05C291.822 1037.57 365.707 1051.44 388.851 1114.75C469.229 1115.59 518.242 1179.42 563.746 1244.35C571.077 1254.98 555.158 1265.98 547.827 1255.5C508.24 1199 464.203 1138.16 393.878 1134.13C401.471 1181.93 374.608 1221.68 342.353 1229.11C318.737 1234.56 294.178 1220.94 288.366 1199.58C280.825 1171.15 308.473 1124.44 368.534 1116.01C347.903 1070.14 291.612 1060.71 256.372 1083.33C245.532 1090.3 235.112 1073.91 245.846 1067L245.899 1067.05ZM374.399 1134.65C324.811 1140.09 302.504 1176.96 307.164 1194.66C310.201 1206.75 326.12 1212.98 338.006 1210.26C360.784 1205.03 381.73 1173.19 374.399 1134.65Z" fill="#FFDB43"/>
<path d="M50.478 1418.1C159.499 1424.17 260.927 1491.46 308.84 1589.64C314.39 1600.9 297.267 1609.38 291.717 1598.02C247.47 1507.43 150.073 1442.76 49.3784 1437.16C36.8111 1436.48 37.806 1417.42 50.4256 1418.1H50.478Z" fill="#457CFF"/>
<path d="M2267.19 1831.06C2267.19 1857.34 2249.56 1871.76 2214.63 1874.32C2247 1871.76 2218.96 1870.32 2130.66 1870.32C2113.03 1870.32 2102.3 1882.18 2097.81 1905.73C2094.28 1922.4 2093.48 1946.43 2095.24 1977.84C2098.61 2019.03 2100.53 2037.78 2100.53 2034.25C2100.53 2061.33 2099.25 2077.52 2096.53 2082.81C2091.24 2091.62 2076.5 2095.95 2051.98 2095.95C2027.46 2095.95 1988.36 2092.9 1937.08 2086.81C1885.96 2080.72 1847.18 2077.68 1820.9 2077.68C1772.83 2077.68 1701.68 2082.32 1607.61 2091.46C1513.55 2100.59 1444.16 2105.24 1399.61 2105.24C1389.99 2105.24 1379.9 2103 1369.32 2098.67C1359.71 2088.9 1354.9 2080.24 1354.9 2072.39C1354.9 2068.86 1364.03 2044.99 1382.46 2000.92C1400.89 1956.69 1410.03 1925.92 1410.03 1908.3C1410.03 1877.69 1397.37 1862.3 1372.05 1862.3C1316.92 1862.3 1233.75 1864.07 1122.54 1867.59C1011.49 1871.12 927.84 1872.88 871.914 1872.88C809.737 1872.88 778.649 1840.03 778.649 1774.33V1429.16C778.649 1398.55 790.027 1372.75 812.782 1351.76C984.247 1195.99 1178.15 939.599 1394.32 582.567C1412.75 546.671 1431.5 510.776 1450.73 474.88C1481.34 419.755 1504.09 392.192 1518.99 392.192C1531.17 392.192 1574.92 403.891 1650.24 427.607C1742.06 456.452 1791.09 471.355 1797.18 472.156C1900.38 499.238 1989.32 512.859 2063.68 512.859C2093.48 512.859 2108.38 529.044 2108.38 561.414C2108.38 605.963 2104.38 673.107 2096.53 762.845C2088.67 852.584 2084.67 919.728 2084.67 964.437C2084.67 996.006 2083.87 1048.89 2082.1 1123.24C2081.14 1190.71 2080.82 1243.11 2080.82 1280.77L2082.1 1375.31C2098.77 1375.31 2125.85 1371.31 2163.51 1363.45C2198.44 1356.56 2225.21 1353.04 2243.63 1353.04C2254.21 1353.04 2259.34 1365.38 2259.34 1389.73C2259.34 1412.49 2258.86 1446.46 2258.06 1491.49C2257.25 1536.52 2256.77 1570.33 2256.77 1593.25C2256.77 1619.53 2258.54 1659.11 2262.06 1711.99C2265.59 1765.03 2267.35 1804.62 2267.35 1830.74L2267.19 1831.06ZM1487.42 1042.16C1487.42 1024.69 1481.34 1016.04 1469 1016.04C1460.34 1016.04 1440.63 1050.17 1409.87 1118.44C1360.83 1226.12 1304.42 1315.86 1240.48 1387.49C1217.73 1412.81 1206.35 1428.19 1206.35 1433.48C1206.35 1442.3 1216.93 1446.62 1237.92 1446.62H1442.72C1446.24 1383.65 1450.25 1320.19 1454.57 1256.25C1459.86 1181.89 1469 1119.72 1482.14 1069.88C1485.66 1057.54 1487.42 1048.41 1487.42 1042.32V1042.16Z" fill="#FD9512"/>
<path d="M1886.92 471.836C1817.53 414.687 1693.17 319.749 1795.07 203.747C1904.26 79.6916 1872.05 0.240234 1872.05 0.240234C1872.05 0.240234 2041.64 150.934 2003.54 305.5C1968.84 447.056 1886.92 471.836 1886.92 471.836Z" fill="#FFCA0D"/>
<path d="M1884.9 460.684C1848.97 431.103 1784.39 381.853 1837.35 321.761C1894.04 257.488 1877.31 216.291 1877.31 216.291C1877.31 216.291 1965.28 294.348 1945.46 374.574C1927.49 447.985 1885.05 460.84 1885.05 460.84L1884.9 460.684Z" fill="#FFEEA6"/>
<path d="M1887.99 371.168C1926.25 414.843 1880.87 506.064 1878.85 509.936C1877.46 512.569 1874.83 514.118 1872.04 514.118C1870.8 514.118 1869.72 513.808 1868.63 513.343C1864.92 511.485 1863.37 506.839 1865.23 503.122C1865.69 502.347 1907.97 417.011 1876.38 381.08C1876.38 381.08 1871.88 373.801 1876.22 370.084C1882.11 364.973 1887.84 371.013 1887.84 371.013L1887.99 371.168Z" fill="#231F20"/>
</svg>
