<svg width="2255" height="1765" viewBox="0 0 2255 1765" fill="none" xmlns="http://www.w3.org/2000/svg">
<g clip-path="url(#clip0_4090_223)">
<path d="M1258.21 1722.98L1545.63 850.83C1547.59 844.808 1556.62 847.872 1554.67 853.788L1267.24 1725.94C1265.29 1731.91 1256.25 1728.9 1258.21 1722.98Z" fill="black"/>
<path d="M1702.1 1009.57L1619.58 921.566C1615.62 917.34 1609.86 915.386 1604.16 916.231L1484.88 934.297C1470.51 936.463 1459.89 921.249 1466.92 908.518L1525.13 802.867C1527.93 797.796 1528.04 791.721 1525.45 786.544L1471.41 678.674C1464.91 665.679 1476.11 650.888 1490.37 653.635L1608.86 676.35C1614.51 677.459 1620.38 675.663 1624.44 671.595L1710.34 586.863C1720.69 576.668 1738.23 582.743 1740.03 597.164L1755.03 716.867C1755.77 722.572 1759.26 727.591 1764.38 730.232L1871.51 785.752C1884.4 792.408 1884.03 811.002 1870.88 817.183L1761.63 868.477C1756.4 870.907 1752.76 875.766 1751.81 881.472L1732.1 1000.49C1729.73 1014.8 1711.98 1020.19 1702.05 1009.63L1702.1 1009.57Z" fill="#7BF9AE"/>
<path d="M745.32 1744.17L601.74 998.22C600.578 991.987 609.928 990.296 611.091 996.424L754.67 1742.37C755.833 1748.61 746.535 1750.4 745.32 1744.17Z" fill="black"/>
<path d="M954.614 1763.82H954.456C945 1763.5 950.124 1819.81 983.404 735.355C983.616 729.016 993.124 729.333 992.913 735.672L959.369 1759.17C959.263 1761.76 957.15 1763.76 954.614 1763.76V1763.82Z" fill="black"/>
<path d="M2053.18 801.914C2056.82 723.257 2151.54 685.276 2172.03 736.886C2177.05 749.3 2173.04 763.774 2160.2 773.072C2127.18 797.371 2067.91 765.57 2073.3 705.613C2077.21 662.402 2108.33 632.503 2142.82 606.301C2145.36 604.4 2148.26 608.097 2145.83 610.105C2114.93 635.778 2085.35 665.783 2083.5 706.3C2081.17 755.322 2127.98 778.724 2150.8 760.552C2156.98 755.639 2159.04 749.036 2156.29 743.225C2142.77 712.692 2076.84 745.972 2076.79 802.601C2076.74 820.086 2082.97 837.625 2093.9 850.62C2098.55 856.219 2097.87 864.513 2092.27 869.161C2086.67 873.81 2078.37 873.123 2073.73 867.524C2061.36 852.785 2051.96 827.429 2053.18 801.862V801.914Z" fill="#E48270"/>
<path d="M120.234 754.372C113.261 679.73 20.0767 644.654 2.11603 696.74C-6.12476 720.247 18.9146 743.596 49.0252 736.993C77.8151 730.442 101.692 700.754 96.3569 661.98C90.5989 620.301 59.1149 592.726 24.5141 568.849C21.9785 567.106 19.2844 570.856 21.7672 572.705C37.3507 584.485 52.4588 597.005 64.4502 612.007C105.443 663.09 84.4183 716.391 46.4367 723.364C27.2082 726.586 12.9981 713.485 17.6996 702.128C29.6382 671.331 94.825 701.917 97.4134 756.116C98.2586 773.02 93.0289 790.294 82.992 803.447C72.7439 816.918 93.0817 832.396 103.33 818.925C104.228 816.971 123.879 792.988 120.287 754.372H120.234Z" fill="#E48270"/>
<path d="M96.04 1151.93C121.66 1162.87 156.684 1159.44 171.475 1180.14C177.022 1187.96 177.286 1201.54 169.362 1206.56C160.012 1212.47 168.834 1226.89 178.395 1220.87C194.877 1210.52 196.514 1186.06 185.315 1170.32C165.717 1142.8 126.52 1146.44 102.749 1136.35C78.1321 1125.84 62.2316 1096.94 66.6161 1070.53C68.465 1059.49 51.7193 1056.74 49.9233 1067.78C44.2181 1101.96 63.922 1138.25 96.0928 1151.93H96.04Z" fill="#DF59FD"/>
<path d="M815.684 1113.59C823.661 1140.26 848.647 1165.04 842.15 1189.66C839.667 1198.9 829.419 1207.83 820.491 1204.87C809.979 1201.44 804.485 1217.44 815.209 1220.98C833.698 1227 853.56 1212.69 858.473 1193.99C867.295 1160.81 839.455 1134.14 831.849 1108.73C824.189 1083.05 836.286 1052.42 859.424 1038.89C869.091 1033.24 860.533 1018.61 850.866 1024.26C820.914 1041.75 805.594 1080.04 815.631 1113.54L815.684 1113.59Z" fill="#DF59FD"/>
<path d="M1461.06 0.287109C1501.79 28.7601 1555.14 30.926 1604.58 26.1188C1652.02 21.523 1832.68 -18.6773 1866.07 100.709C1900.78 65.8437 1965.22 78.469 2007.54 103.561C2049.85 128.653 2081.28 168.272 2119.1 199.757C2156.93 231.241 2207.59 255.329 2254.5 240.432C2113.98 363.833 1921.06 408.418 1742.51 352.898C1564.12 297.431 1495.5 182.483 1461.11 0.339935L1461.06 0.287109Z" fill="#5E72FF"/>
<path d="M1488.1 46.7232C1478.33 38.7465 1490.37 24.061 1500.14 31.9848C1691.43 187.82 1942.29 268.485 2188.57 253.588C2201.4 253.113 2202.04 271.813 2189.73 272.553C1939.44 287.819 1683.45 205.834 1488.1 46.7232Z" fill="#3252EA"/>
<path d="M960.27 764.404L894.714 427.166L1061.22 559.811L1184.41 327.695L1284.04 570.482L1468.61 426.955L1371.15 756.269C1365.76 774.389 1348.8 786.538 1329.89 785.799L994.079 772.17C974.956 771.377 958.897 757.59 960.218 764.404H960.27Z" fill="#DF59FD"/>
<path d="M1212.78 322.146C1215.74 337.359 1205.81 352.045 1190.59 355.003C1175.38 357.961 1160.69 348.03 1157.73 332.816C1154.78 317.603 1164.71 302.917 1179.92 299.959C1195.13 297.001 1209.82 306.932 1212.78 322.146Z" fill="#BA2BFC"/>
<path d="M1488.58 428.802C1491.54 444.016 1481.61 458.701 1466.39 461.659C1451.18 464.618 1436.49 454.686 1433.54 439.473C1430.58 424.259 1440.51 409.573 1455.72 406.615C1470.94 403.657 1485.62 413.588 1488.58 428.802Z" fill="#BA2BFC"/>
<path d="M923.398 402.649C926.356 417.863 916.425 432.549 901.211 435.507C885.997 438.465 871.312 428.534 868.353 413.32C865.395 398.106 875.326 383.421 890.54 380.463C905.754 377.504 920.439 387.436 923.398 402.649Z" fill="#BA2BFC"/>
<path d="M1392.65 626.154C703.272 594.089 1044.74 609.989 946.006 605.393C933.38 604.812 934.278 585.478 946.904 586.376L1393.12 607.137C1405.38 607.718 1405.01 626.154 1392.7 626.154H1392.65Z" fill="#BA2BFC"/>
<path d="M1360.32 732.866C749.127 709.464 1051.82 721.033 964.285 717.705C959.056 717.494 954.935 713.109 955.146 707.827C955.358 702.544 960.429 698.53 965.025 698.688L1360.69 713.849C1365.92 714.06 1370.04 718.445 1369.83 723.727C1369.62 728.851 1365.39 732.866 1360.32 732.866Z" fill="#BA2BFC"/>
<path d="M1611.98 1613.69C1603.26 1610.04 1575 1695.83 2162.05 282.218C2164.43 276.46 2173.25 280 2170.82 285.863C1579.96 1696.99 1620.59 1617.23 1611.92 1613.69H1611.98Z" fill="black"/>
<path d="M255.311 1539.1C252.67 1539.1 250.557 1536.98 250.557 1534.34L252.3 357.231C252.3 350.944 261.808 350.892 261.808 357.231L260.065 1534.34C260.065 1536.98 257.952 1539.1 255.311 1539.1Z" fill="black"/>
<path d="M796.928 756.858C804.06 858.389 670.041 989.449 616.634 1063.04C539.351 1004.82 377.018 922.783 353.774 823.207C344.53 783.377 358.106 739.003 388.005 711.164C439.405 663.251 526.831 670.013 567.454 736.89C586.207 662.089 667.4 628.598 731.424 659.712C768.191 677.567 794.181 716.024 796.928 756.858Z" fill="#E48270"/>
<path d="M1654.4 265.736C1644.78 261.51 1635.28 256.544 1626.19 250.945C1620.8 247.67 1625.82 239.535 1631.16 242.863C1639.87 248.198 1648.96 253.005 1658.2 257.02C1663.96 259.555 1660.21 268.272 1654.4 265.736Z" fill="white"/>
<path d="M1589.15 222.894C1562.74 198.541 1541.93 168.484 1528.93 135.943C1526.61 130.079 1535.48 126.646 1537.76 132.404C1550.22 163.677 1570.24 192.519 1595.6 215.921C1600.2 220.2 1593.8 227.173 1589.15 222.947V222.894Z" fill="white"/>
<path d="M2111.18 221.894C2077.95 202.19 2047.42 178.26 2020.37 150.738C2015.94 146.247 2022.75 139.591 2027.14 144.082C2053.6 171.023 2083.45 194.477 2115.99 213.706C2121.38 216.928 2116.57 225.063 2111.13 221.894H2111.18Z" fill="white"/>
<path d="M1649.75 674.501L1698.46 618.876C1710.45 605.194 1723.44 608.997 1726.88 628.015L1735.33 675.241C1736.44 681.474 1727.09 683.059 1725.98 676.931L1717.53 629.705C1715.41 617.872 1711.77 618.136 1705.64 625.109L1656.94 680.735C1652.82 685.489 1645.63 679.203 1649.8 674.448L1649.75 674.501Z" fill="white"/>
<path d="M1698.14 975.342L1654.08 934.93C1649.43 930.651 1655.93 923.678 1660.52 927.904L1704.58 968.316C1715.2 978.089 1710.39 969.372 1720.85 895.733C1721.59 889.5 1731.05 890.609 1730.31 896.843L1722.07 965.727C1720.22 981.311 1709.76 985.801 1698.19 975.289L1698.14 975.342Z" fill="white"/>
<path d="M1489.43 901.12L1538.55 827.956C1542.09 822.727 1549.96 828.062 1546.42 833.239L1497.3 906.402C1493.86 911.579 1485.83 906.402 1489.43 901.12Z" fill="white"/>
<path d="M1473.31 436.261C1474.21 429.023 1467.92 421.364 1460.68 420.835C1454.19 420.36 1455.45 410.534 1461.42 411.38C1474.1 412.331 1484.3 424.85 1482.76 437.476C1482.02 443.815 1472.57 442.547 1473.31 436.313V436.261Z" fill="white"/>
<path d="M1199.99 330.608C1199.3 321.31 1189.32 313.439 1179.92 315.024C1173.79 316.133 1172.04 306.783 1178.28 305.674C1193.07 303.033 1208.34 314.918 1209.5 329.921C1209.97 336.26 1200.52 336.947 1199.99 330.66V330.608Z" fill="white"/>
<path d="M880.502 400.129C884.94 383.7 907.443 381.904 914.733 396.959C917.427 402.559 908.922 406.785 906.175 401.08C902.583 393.631 891.807 394.846 889.694 402.611C888.003 408.739 878.865 406.204 880.502 400.129Z" fill="white"/>
<path d="M620.495 367.322C531.801 358.712 432.436 303.826 404.016 223.478C403.593 303.72 340.414 387.766 268.307 430.554C194.721 473.977 71.8487 450.787 82.2025 359.874C82.7836 388.505 118.864 407.47 153.042 386.287C188.276 364.522 197.415 317.825 198.313 276.304C198.947 234.941 195.249 190.779 215.957 155.069C257.953 81.6413 368.2 91.6782 396.039 175.882C396.092 175.46 396.039 174.773 396.092 174.35C396.779 138.746 418.332 104.515 450.08 88.5615C481.617 72.344 522.134 75.3022 551.241 95.6401C585.102 119.306 600.369 160.933 618.488 197.91C682.671 328.707 780.821 272.817 758.951 224.376C807.551 303.403 704.488 375.563 620.495 367.322Z" fill="#5ADE35"/>
<path d="M219.812 291.087C219.336 262.931 218.808 233.824 226.837 205.879C235.976 173.972 255.469 149.567 280.402 138.949C306.71 127.644 345.061 134.512 360.328 162.562C363.339 168.109 354.887 172.599 351.981 167.105C339.25 143.598 306.604 138.051 284.206 147.665C261.914 157.174 244.375 179.36 236.029 208.467C228.422 235.091 228.898 263.459 229.373 290.875C229.479 297.214 219.97 297.373 219.864 291.034L219.812 291.087Z" fill="white"/>
<path d="M517.273 299.97C512.835 295.533 519.544 288.771 523.981 293.261C572.317 341.649 648.597 349.415 705.649 311.644C710.826 308.158 716.161 316.082 710.931 319.568C650.076 359.821 568.989 351.792 517.273 299.97Z" fill="white"/>
<path d="M769.199 780.417C776.172 747.666 760.641 710.952 732.274 693.202C703.906 675.4 664.129 677.408 637.663 697.957C632.697 701.813 626.886 694.312 631.852 690.455C661.329 667.529 705.702 665.31 737.345 685.12C768.987 704.982 786.314 745.869 778.549 782.425C777.228 788.658 767.931 786.598 769.251 780.417H769.199Z" fill="white"/>
<path d="M727.413 740.11C724.402 726.481 709.136 716.233 695.401 718.716C689.379 719.983 687.424 710.475 693.764 709.365C712.517 706.037 732.59 719.455 736.711 738.05C738.084 744.178 728.787 746.291 727.413 740.11Z" fill="white"/>
<path d="M605.174 1022.83L523.823 972.702C518.488 969.374 523.4 961.344 528.842 964.619L610.193 1014.75C615.528 1018.03 610.563 1026.11 605.174 1022.83Z" fill="white"/>
<path d="M991.7 748.088C967.77 728.701 965.499 696.583 964.231 668.004C963.967 661.665 973.475 661.348 973.74 667.582C974.849 693.466 976.487 723.471 997.67 740.639C1015.95 755.431 1042.73 754.004 1068.61 751.257C1074.8 750.571 1075.9 760.026 1069.62 760.713C1042.41 763.619 1012.94 765.256 991.7 748.035V748.088Z" fill="white"/>
<path d="M1362.69 664.042L1398.25 529.02C1399.83 522.892 1409.02 525.375 1407.44 531.45L1371.89 666.42C1370.3 672.494 1361.11 670.065 1362.69 663.99V664.042Z" fill="white"/>
</g>
<defs>
<clipPath id="clip0_4090_223">
<rect width="2253.96" height="1763.95" fill="white" transform="translate(0.533203 0.287109)"/>
</clipPath>
</defs>
</svg>
