<svg width="306" height="512" viewBox="0 0 306 512" fill="none" xmlns="http://www.w3.org/2000/svg">
    <path
        d="M103.861 237.888C106.078 254.621 116.904 268.713 124.543 283.771C139.015 312.303 142.147 346.398 133.119 377.085"
        stroke="#11141D" stroke-width="1.08784" stroke-miterlimit="10" />
    <path
        d="M108.436 226.365C145.955 216.312 167.303 174.325 156.118 132.585C144.934 90.844 105.452 65.1562 67.9337 75.2093C30.4149 85.2624 9.06671 127.25 20.2511 168.99C31.4354 210.731 70.9171 236.418 108.436 226.365Z"
        fill="#F4B81A" />
    <path d="M102.653 227.63L92.1279 245.86L120.135 238.356L102.653 227.63Z" fill="#F4B81A" />
    <path
        d="M43.076 97.5674L53.4025 101.313C53.4025 101.313 20.6814 148.243 37.7163 190.844C37.7228 190.842 4.25985 133.071 43.076 97.5674Z"
        fill="#FBE8AA" />
    <path
        d="M55.876 210.07C57.1134 210.784 58.4314 211.435 59.8537 211.591C61.2761 211.747 62.8275 211.317 63.7204 210.2C64.6964 208.976 64.6843 207.187 64.0882 205.743C63.492 204.299 62.4133 203.11 61.3581 201.956C57.8232 198.106 54.2818 194.257 50.7468 190.407C48.8779 188.377 44.0393 180.936 41.1028 181.193C34.8138 181.742 44.1548 198.777 45.9048 201.118C48.7746 204.958 52.4002 207.013 55.876 210.07Z"
        fill="#FBE8AA" />
    <path
        d="M199.826 154.455C234.043 163.623 270.05 140.196 280.25 102.129C290.45 64.0613 270.981 25.7693 236.764 16.6009C202.547 7.43245 166.54 30.8596 156.34 68.9268C146.14 106.994 165.609 145.286 199.826 154.455Z"
        fill="#11141D" />
    <path d="M194.685 152.815L178.059 162.414L203.596 169.256L194.685 152.815Z" fill="#11141D" />
    <path
        d="M190.966 161.464C185.087 175.692 187.211 191.759 186.379 207.135C184.798 236.269 171.725 264.626 150.601 284.746"
        stroke="#11141D" stroke-width="0.992108" stroke-miterlimit="10" />
    <path
        d="M206.935 22.9221L213.383 30.5894C213.383 30.5894 166.139 52.7347 160.168 94.1488C160.168 94.1488 160.082 33.2613 206.935 22.9221Z"
        fill="#FBE8AA" />
    <path
        d="M165.741 117.613C166.393 118.742 167.137 119.857 168.189 120.629C169.243 121.394 170.663 121.768 171.878 121.293C173.207 120.771 174.013 119.353 174.2 117.94C174.394 116.53 174.078 115.097 173.771 113.705C172.735 109.052 171.693 104.397 170.656 99.7444C170.106 97.2886 169.677 89.2055 167.241 88.0694C162.024 85.6349 161.633 103.349 161.948 105.996C162.458 110.336 164.384 113.612 165.741 117.613Z"
        fill="#FBE8AA" />
    <path
        d="M169.474 342.266C161.442 358.224 162.513 377.002 160.223 394.725C155.878 428.306 138.3 459.995 112.116 481.457"
        stroke="#11141D" stroke-width="1.15137" stroke-miterlimit="10" />
    <path
        d="M180.337 334.918C219.145 348.483 262.839 324.478 277.929 281.303C293.02 238.128 273.794 192.131 234.985 178.567C196.177 165.003 152.483 189.007 137.392 232.182C122.302 275.357 141.528 321.354 180.337 334.918Z"
        fill="#F04846" />
    <path d="M174.53 332.578L154.458 342.258L183.428 352.384L174.53 332.578Z" fill="#F04846" />
    <path
        d="M199.924 183.305L206.724 192.735C206.724 192.735 150.137 214.286 139.651 261.7C139.658 261.702 144.808 191.226 199.924 183.305Z"
        fill="#FBE8AA" />
    <path
        d="M144.07 289.35C144.727 290.712 145.492 292.067 146.643 293.051C147.797 294.028 149.407 294.583 150.854 294.138C152.437 293.649 153.493 292.077 153.832 290.459C154.171 288.84 153.936 287.157 153.701 285.519C152.903 280.045 152.099 274.568 151.301 269.094C150.876 266.205 151.078 256.813 148.356 255.288C142.528 252.02 140.547 272.487 140.683 275.577C140.898 280.644 142.854 284.598 144.07 289.35Z"
        fill="#FBE8AA" />
</svg>
