<svg width="220" height="54" viewBox="0 0 220 54" fill="none" xmlns="http://www.w3.org/2000/svg">
    <path
        d="M34.0685 54.0002C50.3614 44.2245 80.4583 21.2966 70.502 7.79096C61.0541 -5.02514 43.9294 6.74195 35.3726 15.3131C25.0459 -2.1311 13.7085 -0.510224 10.0803 0.665954C-16.2241 9.19343 15.1123 39.7753 34.0685 54.0002Z"
        fill="#EA3283" />
    <path
        d="M107.545 54.0002C123.838 44.2245 153.935 21.2966 143.979 7.79096C134.531 -5.02514 117.406 6.74195 108.849 15.3131C98.5225 -2.1311 87.1851 -0.510224 83.5568 0.665954C57.2525 9.19343 88.5888 39.7753 107.545 54.0002Z"
        fill="#FFDB43" />
    <path
        d="M181.022 54.0002C197.315 44.2245 227.411 21.2966 217.455 7.79096C208.007 -5.02514 190.882 6.74195 182.326 15.3131C171.999 -2.1311 160.662 -0.510224 157.033 0.665954C130.729 9.19343 162.065 39.7753 181.022 54.0002Z"
        fill="#46A5FF" />
</svg>
