<svg width="1886" height="1882" viewBox="0 0 1886 1882" fill="none" xmlns="http://www.w3.org/2000/svg">
<g clip-path="url(#clip0_4629_86)">
<path d="M459.42 494.046C459.16 501.782 465.222 508.215 472.957 508.475C495.642 509.219 517.992 513.421 539.375 521.008C546.664 523.574 554.659 519.781 557.225 512.492C559.68 505.091 555.998 497.207 548.709 494.641C524.611 486.088 499.398 481.328 473.849 480.51C466.003 480.25 459.643 486.46 459.42 494.046Z" fill="#FD596C"/>
<path d="M423.279 439.305C429.75 443.508 438.414 441.686 442.617 435.215C460.913 407.063 475.454 376.569 485.83 344.624C488.135 337.447 484.193 329.377 476.83 326.997C469.467 324.617 461.583 328.633 459.203 335.996C449.608 365.598 436.146 393.861 419.151 419.968C414.911 426.513 416.845 435.14 423.242 439.305H423.279Z" fill="#FD596C"/>
<path d="M317.329 336.965C337.411 358.162 348.493 388.21 346.968 417.328C346.559 425.026 352.509 431.646 360.207 432.018C367.942 432.427 374.524 426.514 374.896 418.779C376.793 382.111 362.847 344.365 337.597 317.701C332.279 312.086 323.428 311.862 317.812 317.18C312.197 322.498 311.974 331.386 317.292 336.965H317.329Z" fill="#FD596C"/>
<path d="M206.097 484.715C207.696 492.264 215.096 497.098 222.683 495.499L315.728 475.864C323.277 474.265 328.149 466.864 326.512 459.278C324.913 451.729 317.513 446.894 309.926 448.493L216.881 468.129C209.332 469.728 204.498 477.165 206.097 484.715Z" fill="#FD596C"/>
<path d="M294.755 610.67C299.441 616.807 308.218 617.997 314.354 613.311C337.968 595.237 351.244 565.635 348.939 535.959C348.344 528.261 341.613 522.497 333.915 523.092C326.217 523.687 320.49 530.381 321.048 538.116C322.609 558.086 313.312 578.874 297.359 591.035C291.223 595.721 290.033 604.534 294.755 610.633V610.67Z" fill="#FD596C"/>
<path d="M1733.53 394.46C1647.48 394.907 1580.06 464.895 1580.5 549.052C1580.06 464.077 1510.55 395.576 1425.54 396.022C1510.66 395.576 1579.35 325.885 1578.94 241.059C1579.35 325.179 1647.55 394.869 1733.53 394.46Z" fill="#46FFDE"/>
<path d="M1035.43 1456.29C967.604 1456.63 914.499 1511.82 914.833 1578.12C914.499 1511.15 859.683 1457.19 792.744 1457.52C859.832 1457.19 913.941 1402.26 913.606 1335.43C913.941 1401.7 967.678 1456.63 1035.43 1456.29Z" fill="#7BBEF9"/>
<path d="M211.49 180.588C172.666 180.774 142.246 212.384 142.432 250.354C142.246 212.012 110.859 181.109 72.5176 181.295C110.933 181.109 141.948 149.648 141.725 111.381C141.837 130.57 149.683 147.937 162.253 160.395C174.823 173.002 192.301 180.7 211.49 180.588Z" fill="#CBE470"/>
<path d="M1628.97 1502.52C1628.97 1502.52 1628.82 1502.52 1628.74 1502.52C1576.27 1499.36 1525.92 1469.98 1497.32 1425.84C1468.72 1381.74 1462.51 1323.76 1481.03 1274.56C1481.77 1272.66 1483.93 1271.7 1485.79 1272.4C1487.69 1273.11 1488.65 1275.23 1487.95 1277.16C1470.21 1324.21 1476.2 1379.65 1503.53 1421.82C1530.86 1464.03 1579.02 1492.11 1629.23 1495.16C1631.27 1495.27 1632.8 1497.02 1632.68 1499.06C1632.57 1501.04 1630.94 1502.52 1629 1502.52H1628.97Z" fill="black"/>
<path d="M1644.1 1402.93C1633.09 1401.3 1625.5 1391.07 1627.14 1380.06C1631.94 1347.75 1631.71 1314.98 1626.51 1282.74C1624.72 1271.77 1632.16 1261.43 1643.17 1259.65C1654.29 1258.05 1664.51 1265.34 1666.26 1276.31C1672.17 1312.68 1672.4 1349.57 1667 1386.01C1665.37 1397.17 1654.92 1404.61 1644.13 1402.97L1644.1 1402.93Z" fill="#FD596C"/>
<path d="M1712.37 1468.24C1708.09 1457.97 1712.93 1446.18 1723.19 1441.87C1767.78 1423.16 1814.71 1410.45 1862.69 1404.01C1873.43 1402.6 1883.85 1410.26 1885.33 1421.3C1886.82 1432.35 1879.09 1442.46 1868.04 1443.95C1823.6 1449.9 1780.09 1461.73 1738.78 1479.06C1728.4 1483.37 1716.69 1478.43 1712.41 1468.24H1712.37Z" fill="#FD596C"/>
<path d="M1830.07 1644.73C1805.23 1610.81 1765.51 1587.38 1723.82 1581.99C1712.78 1580.58 1704.97 1570.46 1706.42 1559.46C1707.83 1548.41 1717.95 1540.6 1728.96 1542.05C1781.39 1548.78 1831.3 1578.27 1862.54 1620.93C1869.12 1629.89 1867.18 1642.5 1858.19 1649.08C1849.19 1655.66 1836.58 1653.69 1830.03 1644.73H1830.07Z" fill="#FD596C"/>
<path d="M1600.77 1765.74C1586.16 1766.56 1575.41 1751.79 1581.03 1738L1632.83 1611.22C1637.03 1600.92 1648.78 1595.98 1659.08 1600.21C1669.38 1604.42 1674.33 1616.17 1670.09 1626.47L1618.29 1753.24C1615.24 1760.68 1608.25 1765.33 1600.74 1765.74H1600.77Z" fill="#FD596C"/>
<path d="M1436.47 1606.2C1429 1597.99 1429.59 1585.23 1437.81 1577.76C1469.5 1548.93 1514.87 1537.78 1556.29 1548.67C1567.04 1551.5 1573.48 1562.51 1570.65 1573.29C1567.86 1584.04 1556.89 1590.44 1546.03 1587.65C1518.18 1580.28 1486.27 1588.13 1464.92 1607.54C1456.67 1615.06 1443.91 1614.42 1436.47 1606.2Z" fill="#FD596C"/>
<path d="M1240.98 1374.63L1417.03 1851.46C1421.49 1862.91 1415.58 1875.56 1403.97 1879.87C1392.52 1884 1379.88 1878.12 1375.75 1866.67L1199.55 1389.69L1240.98 1374.67V1374.63Z" fill="black"/>
<path d="M1492.85 1295.61C1410.26 1363.4 1316.43 1406.54 1211.19 1424.73C1164.74 1433.32 1116.39 1409.96 1095.42 1364.55C1087.09 1345.51 1125.62 1433.46 1013.9 1178.5C823.165 742.952 906.876 933.84 837.073 774.228L798.955 686.761L735.4 542.321L1162.21 346.265L1263.66 577.873L1279.65 614.02L1296.94 653.291L1370.95 822.126L1403.9 897.953L1472.18 1053.73L1505.64 1129.15L1522.53 1168.13C1542.83 1212.34 1530.19 1264.44 1492.85 1295.61Z" fill="#F65EFF"/>
<path d="M1273.74 402.194C1116.62 563.74 924.317 646.559 701.894 661.471C691.667 662.029 682.63 657.12 677.573 649.348C674.188 644.439 672.515 638.415 673.147 631.907L736.59 23.9893C738.561 3.53574 762.213 -6.98855 778.985 5.20922C826.475 39.6828 601.634 -123.611 1270.09 361.957C1283.07 371.514 1285.12 390.517 1273.74 402.232V402.194Z" fill="#FD596C"/>
<path d="M6.69128 1572.99C-27.4476 1670.02 72.2543 1793.18 229.226 1848.45C327.292 1882.96 424.688 1882.96 491.999 1854.06C527.179 1839 557.115 1815.31 572.288 1780.21L609.588 1674.29C594.415 1709.4 564.479 1733.09 529.299 1748.15C461.988 1777.08 364.591 1777.08 266.526 1742.53C112.12 1688.16 12.9761 1568.05 42.578 1471.8L9.77791 1565C8.58789 1567.67 7.69537 1570.2 6.72847 1572.95L6.69128 1572.99Z" fill="#CBE470"/>
<path d="M842.462 1012.79C824.946 1062.55 916.281 803.085 609.626 1674.22C594.565 1709.1 564.628 1732.9 529.336 1748.11C461.951 1777.05 364.629 1777.05 266.526 1742.46C121.232 1691.4 25.0628 1582.18 38.5993 1489.28C39.4919 1483.33 40.8306 1477.57 42.6157 1471.77L274.559 812.865C238.821 949.867 453.286 1112.42 658.752 1105.65C745.995 1103.27 816.653 1070.47 842.462 1012.75V1012.79Z" fill="#FF45BD"/>
<path d="M280.247 796.278L274.445 812.752C238.93 949.568 452.614 1112.12 658.749 1105.8C746.03 1103.3 816.576 1070.47 842.422 1012.71L848.149 996.425C874.851 900.665 776.301 782.109 623.458 728.298C470.428 674.412 319.517 705.166 280.209 796.278H280.247Z" fill="#FD596C"/>
<path d="M430.336 853.621L427.622 861.393C416.428 904.42 458.6 956.93 525.427 982.999C527.844 984.077 530.336 984.97 532.79 985.825C558.45 994.862 583.887 998.804 606.907 998.097C647.628 996.982 680.577 981.623 692.626 954.699L695.303 947.038C707.761 902.375 661.834 847.039 590.469 821.899C519.031 796.76 448.633 811.152 430.299 853.621H430.336Z" fill="#FC2B5F"/>
<path d="M559.532 892.932C557.71 892.003 557.003 889.771 557.933 887.986C625.876 755.298 516.431 589.401 393.226 505.43C391.553 504.277 391.106 502.009 392.259 500.298C393.412 498.625 395.68 498.179 397.391 499.331C523.311 585.162 634.504 754.666 564.515 891.333C563.623 893.118 561.429 893.862 559.569 892.932H559.532Z" fill="black"/>
<path d="M267.941 1342.24C245.553 1405.87 282.891 1476.97 351.168 1501C419.669 1525.13 493.339 1493.11 515.726 1429.45C538.114 1365.82 500.777 1294.71 432.276 1270.58C363.998 1246.56 290.328 1278.57 267.941 1342.2V1342.24Z" fill="#FD596C"/>
</g>
<defs>
<clipPath id="clip0_4629_86">
<rect width="1885.48" height="1881.17" fill="white"/>
</clipPath>
</defs>
</svg>
