<svg width="2091" height="2193" viewBox="0 0 2091 2193" fill="none" xmlns="http://www.w3.org/2000/svg">
<path d="M1811.63 1278.12C1772.88 1272.63 1737.99 1299.7 1732.65 1337.56C1738.04 1299.31 1711.27 1263.92 1673.06 1258.53C1711.37 1263.92 1746.85 1237.1 1752.24 1198.94C1746.9 1236.8 1772.98 1272.63 1811.68 1278.12H1811.63Z" fill="#DFFF46"/>
<path d="M1716.26 1620.34C1708.44 1554.87 1762.54 1481.82 1843.6 1490.09C1886.95 1403.13 1982.17 1383.49 2076.84 1368.34C2092.28 1365.97 2095.8 1389.08 2080.55 1391.5C1998.2 1404.72 1908.83 1420.5 1867.35 1494.84C1923.38 1511.76 1952.43 1561.99 1943.47 1600.99C1936.94 1629.5 1909.12 1649.04 1882.84 1644.1C1847.95 1637.27 1811.73 1582.58 1834.3 1512.85C1773.52 1511.07 1733.58 1567.29 1739.57 1617.57C1741.4 1633.01 1718.09 1635.73 1716.26 1620.34ZM1857.6 1516.27C1837.31 1573.08 1865.67 1616.78 1887.35 1621.03C1902.1 1624.15 1917.29 1610.1 1920.6 1595.74C1926.89 1568.23 1903.33 1528.64 1857.6 1516.27Z" fill="#7F59FD"/>
<path d="M1675.78 1046.46C1627.33 992.321 1655.24 894.629 1739.43 887.948C1748.78 832.372 1790 788.871 1848.2 780.507C1840.28 714.291 1925.95 646.688 1986.82 620.905C2030.32 602.396 2032.06 652.429 2008.65 651.043C1999.19 650.4 1998.11 637.038 2007.21 634.86C2007.21 634.415 2007.06 633.97 2006.87 633.722C2003.75 631.842 1997.61 634.168 1993.21 636.048C1939.81 658.665 1857.46 721.269 1864.58 779.171C1891.41 778.577 1918.43 785.852 1940.85 801.194C1944.26 803.52 1945.4 808.023 1943.52 811.735C1927.39 843.358 1869.83 846.328 1852.01 796.888C1801.34 803.421 1765.8 839.201 1756.35 888.047C1800.94 891.907 1831.08 923.58 1833.6 952.284C1835.34 971.486 1824.15 990.341 1807.57 996.082C1776.49 1006.87 1734.92 970.991 1737.64 904.873C1668.01 912.841 1650.49 993.707 1688.01 1035.57C1695.23 1043.69 1683.01 1054.63 1675.78 1046.56V1046.46ZM1754.32 904.478C1751.45 958.371 1782.58 987.273 1802.23 980.443C1811.73 977.177 1818.31 965.399 1817.27 953.62C1815.44 932.884 1791.64 907.298 1754.32 904.428V904.478ZM1869.24 795.799C1881.86 822.771 1911.4 822.721 1924.37 810.201C1907.74 800.798 1888.54 795.997 1869.24 795.799Z" fill="#FB45FF"/>
<path d="M1568.64 634.862C1604.07 547.662 1687.31 483.821 1780.7 472.191C1791.44 470.805 1793.57 487.137 1782.73 488.473C1696.52 499.212 1616.59 560.529 1583.88 640.998C1579.82 651.045 1564.58 644.908 1568.64 634.812V634.862Z" fill="#DFFF46"/>
<path d="M538.743 1152.44C578.532 1135.86 634.059 1156.89 643.314 1209.35C705.72 1221.13 735.017 1277.55 761.395 1334.36C765.602 1343.66 751.744 1349.95 747.488 1340.84C724.525 1291.4 698.692 1238 644.551 1225.14C643.858 1263.39 617.431 1290.56 591.35 1291.9C572.247 1292.84 555.025 1278.88 553.441 1261.46C551.511 1238.3 579.473 1205.79 627.329 1207.57C617.629 1169.06 575.167 1153.92 544.632 1166.64C535.229 1170.55 529.39 1156.4 538.743 1152.49V1152.44ZM629.358 1222.81C590.014 1220.19 567.595 1245.77 568.783 1260.17C569.426 1270.02 581.007 1277.05 590.608 1276.61C609.018 1275.66 629.754 1253.79 629.358 1222.86V1222.81Z" fill="#FFADCD"/>
<path d="M156.49 465.481C112.791 465.481 78.3962 500.865 78.3962 543.575C78.3962 500.42 43.2589 465.481 0.153809 465.481C43.3579 465.481 78.3962 430.294 78.3962 387.238C78.3962 429.947 112.841 465.481 156.49 465.481Z" fill="#92F97B"/>
<path d="M305.948 1541.87C262.249 1541.87 227.854 1577.26 227.854 1619.96C227.854 1576.81 192.717 1541.87 149.612 1541.87C192.816 1541.87 227.854 1506.68 227.854 1463.63C227.854 1506.34 262.298 1541.87 305.948 1541.87Z" fill="#FF825E"/>
<path d="M790.792 1486.74C760.01 1486.74 735.76 1511.63 735.76 1541.77C735.76 1511.38 711.015 1486.74 680.629 1486.74C711.065 1486.74 735.76 1461.94 735.76 1431.61C735.76 1461.7 760.01 1486.74 790.792 1486.74Z" fill="#FF825E"/>
<path d="M599.963 560.747C598.775 540.457 572.546 528.381 548.742 525.709C520.78 522.641 489.107 523.334 467.579 502.202C426.998 462.363 464.263 387.486 430.561 355.417C411.36 337.155 378.499 342.896 354.348 350.963C323.269 361.702 292.288 374.223 261.358 365.216C235.722 357.743 215.481 335.027 210.978 308.748C206.425 282.42 217.956 254.31 239.583 238.672C249.332 231.545 260.219 246.441 250.322 253.568C234.485 265 225.726 286.379 229.041 305.631C232.357 324.882 247.748 342.104 266.505 347.597C291.794 354.971 321.141 342.995 348.558 333.542C390.079 319.735 422.792 322.704 443.231 342.154C484.505 381.399 447.239 456.523 480.446 489.137C497.075 505.418 525.086 504.676 550.771 507.497C583.087 511.11 616.492 528.629 618.274 559.659C619.016 571.783 600.656 572.823 599.963 560.747Z" fill="#D62B49"/>
<path d="M231.961 700.155C275.363 672.293 345.192 685.407 367.067 745.24C443.033 746.031 489.355 806.359 532.361 867.725C539.289 877.772 524.244 888.164 517.316 878.267C479.902 824.868 438.282 767.361 371.818 763.551C378.994 808.734 353.606 846.297 323.12 853.324C300.801 858.471 277.59 845.604 272.097 825.412C264.97 798.54 291.101 754.395 347.865 746.427C328.366 703.075 275.165 694.167 241.859 715.546C231.615 722.128 221.766 706.638 231.912 700.106L231.961 700.155ZM353.408 764.046C306.541 769.192 285.459 804.033 289.864 820.76C292.734 832.192 307.779 838.081 319.013 835.508C340.54 830.559 360.336 800.47 353.408 764.046Z" fill="#FFDB43"/>
<path d="M47.2693 1031.93C150.306 1037.67 246.166 1101.27 291.449 1194.06C296.695 1204.7 280.512 1212.72 275.266 1201.98C233.448 1116.36 141.398 1055.24 46.2301 1049.95C34.3527 1049.3 35.293 1031.29 47.2199 1031.93H47.2693Z" fill="#457CFF"/>
<path d="M891.29 968.888L786.619 1023.35C756.872 1038.84 720.391 1031.72 698.62 1006.22L591.726 881.085C567.34 852.514 568.974 809.953 595.583 783.409L865.923 513.069C880.699 498.294 901.162 490.645 922.018 492.148L1433.02 529.153C1473.35 532.095 1503.43 567.66 1499.51 607.934L1351.42 2127.39C1347.7 2165.44 1314.88 2194.01 1276.7 2192.38L966.279 2179.04C927.902 2177.41 897.566 2145.9 897.37 2107.45L891.355 968.757L891.29 968.888Z" fill="#FD9512"/>
<path d="M1228.34 472.331C1158.96 415.182 1034.59 320.244 1136.5 204.242C1245.69 80.1867 1213.48 0.735352 1213.48 0.735352C1213.48 0.735352 1383.06 151.43 1344.96 305.995C1310.27 447.551 1228.34 472.331 1228.34 472.331Z" fill="#FFCA0D"/>
<path d="M1226.33 461.18C1190.4 431.598 1125.81 382.348 1178.78 322.256C1235.47 257.983 1218.74 216.786 1218.74 216.786C1218.74 216.786 1306.71 294.843 1286.88 375.069C1268.92 448.48 1226.48 461.335 1226.48 461.335L1226.33 461.18Z" fill="#FFEEA6"/>
<path d="M1229.42 371.663C1267.67 415.338 1222.29 506.559 1220.28 510.431C1218.89 513.064 1216.25 514.613 1213.47 514.613C1212.23 514.613 1211.14 514.303 1210.06 513.839C1206.34 511.98 1204.79 507.334 1206.65 503.617C1207.12 502.842 1249.4 417.506 1217.8 381.575C1217.8 381.575 1213.31 374.296 1217.65 370.579C1223.53 365.468 1229.26 371.508 1229.26 371.508L1229.42 371.663Z" fill="#231F20"/>
</svg>
