<svg width="2534" height="1944" viewBox="0 0 2534 1944" fill="none" xmlns="http://www.w3.org/2000/svg">
<path d="M2193.01 1494.9C2145.68 1488.19 2103.07 1521.25 2096.54 1567.49C2103.13 1520.77 2070.43 1477.55 2023.77 1470.96C2070.55 1477.55 2113.89 1444.79 2120.48 1398.19C2113.95 1444.43 2145.8 1488.19 2193.07 1494.9H2193.01Z" fill="#DFFF46"/>
<path d="M2076.53 1912.86C2066.98 1832.9 2133.04 1743.68 2232.05 1753.78C2285 1647.58 2401.29 1623.58 2516.92 1605.09C2535.78 1602.19 2540.07 1630.41 2521.45 1633.37C2420.88 1649.51 2311.72 1668.79 2261.06 1759.58C2329.49 1780.25 2364.97 1841.6 2354.03 1889.23C2346.05 1924.05 2312.08 1947.92 2279.98 1941.88C2237.37 1933.54 2193.13 1866.75 2220.69 1781.58C2146.46 1779.41 2097.69 1848.07 2105 1909.48C2107.24 1928.34 2078.77 1931.66 2076.53 1912.86ZM2249.16 1785.75C2224.38 1855.14 2259.01 1908.51 2285.48 1913.71C2303.5 1917.52 2322.05 1900.35 2326.1 1882.82C2333.78 1849.22 2305.01 1800.86 2249.16 1785.75Z" fill="#7F59FD"/>
<path d="M2027.09 1211.96C1967.92 1145.83 2002.01 1026.52 2104.82 1018.36C2116.24 950.48 2166.59 897.351 2237.67 887.136C2228 806.262 2332.63 723.697 2406.98 692.206C2460.11 669.6 2462.22 730.708 2433.63 729.016C2422.09 728.23 2420.76 711.91 2431.88 709.251C2431.88 708.707 2431.7 708.163 2431.46 707.86C2427.65 705.564 2420.15 708.404 2414.77 710.701C2349.56 738.324 2248.98 814.785 2257.68 885.504C2290.44 884.778 2323.44 893.664 2350.82 912.401C2355 915.242 2356.39 920.742 2354.09 925.276C2334.38 963.899 2264.09 967.526 2242.33 907.143C2180.43 915.121 2137.04 958.822 2125.49 1018.48C2179.95 1023.19 2216.76 1061.88 2219.84 1096.93C2221.96 1120.39 2208.3 1143.42 2188.05 1150.43C2150.09 1163.6 2099.32 1119.78 2102.64 1039.03C2017.6 1048.76 1996.2 1147.53 2042.02 1198.66C2050.84 1208.57 2035.91 1221.93 2027.09 1212.08V1211.96ZM2123.01 1038.55C2119.51 1104.37 2157.53 1139.67 2181.52 1131.33C2193.13 1127.34 2201.17 1112.95 2199.9 1098.57C2197.66 1073.24 2168.59 1041.99 2123.01 1038.49V1038.55ZM2263.36 905.813C2278.78 938.754 2314.86 938.694 2330.7 923.402C2310.39 911.918 2286.94 906.055 2263.36 905.813Z" fill="#FB45FF"/>
<path d="M1896.23 709.252C1939.51 602.751 2041.17 524.779 2155.23 510.574C2168.35 508.882 2170.95 528.828 2157.71 530.46C2052.42 543.577 1954.8 618.466 1914.85 716.747C1909.89 729.017 1891.27 721.522 1896.23 709.192V709.252Z" fill="#DFFF46"/>
<path d="M570.227 1448.42C612.327 1430.87 671.079 1453.13 680.871 1508.63C746.901 1521.1 777.901 1580.79 805.81 1640.9C810.261 1650.75 795.599 1657.4 791.096 1647.76C766.799 1595.45 739.466 1538.95 682.18 1525.34C681.447 1565.82 653.485 1594.56 625.889 1595.98C605.677 1596.97 587.454 1582.21 585.779 1563.77C583.736 1539.27 613.322 1504.86 663.957 1506.75C653.694 1466.01 608.766 1449.99 576.458 1463.44C566.509 1467.58 560.33 1452.61 570.227 1448.47V1448.42ZM666.104 1522.88C624.475 1520.1 600.755 1547.17 602.011 1562.41C602.692 1572.83 614.945 1580.27 625.104 1579.8C644.583 1578.8 666.523 1555.66 666.104 1522.93V1522.88Z" fill="#FFADCD"/>
<path d="M165.772 721.561C119.535 721.561 83.1427 759.001 83.1427 804.19C83.1427 758.529 45.9646 721.561 0.355957 721.561C46.0693 721.561 83.1427 684.33 83.1427 638.774C83.1427 683.964 119.588 721.561 165.772 721.561Z" fill="#92F97B"/>
<path d="M323.91 1860.47C277.673 1860.47 241.28 1897.91 241.28 1943.1C241.28 1897.44 204.102 1860.47 158.494 1860.47C204.207 1860.47 241.28 1823.24 241.28 1777.68C241.28 1822.87 277.725 1860.47 323.91 1860.47Z" fill="#FD9B12"/>
<path d="M836.915 1802.13C804.345 1802.13 778.687 1828.47 778.687 1860.36C778.687 1828.21 752.505 1802.13 720.354 1802.13C752.557 1802.13 778.687 1775.9 778.687 1743.8C778.687 1775.64 804.345 1802.13 836.915 1802.13Z" fill="#FD9B12"/>
<path d="M635.002 822.361C633.745 800.892 605.992 788.116 580.806 785.288C551.22 782.041 517.707 782.775 494.929 760.415C451.991 718.263 491.421 639.037 455.761 605.105C435.444 585.783 400.675 591.857 375.122 600.392C342.237 611.755 309.458 625.003 276.73 615.473C249.606 607.566 228.189 583.531 223.424 555.726C218.607 527.869 230.808 498.126 253.69 481.579C264.006 474.039 275.526 489.8 265.053 497.341C248.297 509.437 239.029 532.058 242.537 552.427C246.045 572.797 262.33 591.019 282.176 596.832C308.934 604.634 339.986 591.962 368.995 581.96C412.928 567.351 447.54 570.493 469.166 591.072C512.838 632.596 473.408 712.084 508.544 746.591C526.138 763.819 555.776 763.033 582.952 766.018C617.146 769.841 652.491 788.377 654.376 821.209C655.162 834.038 635.735 835.138 635.002 822.361Z" fill="#D62B49"/>
<path d="M245.628 969.866C291.551 940.385 365.436 954.262 388.58 1017.57C468.958 1018.41 517.971 1082.24 563.475 1147.17C570.806 1157.8 554.887 1168.8 547.556 1158.32C507.969 1101.82 463.932 1040.98 393.607 1036.94C401.2 1084.75 374.337 1124.5 342.082 1131.93C318.466 1137.38 293.907 1123.76 288.095 1102.4C280.554 1073.96 308.202 1027.26 368.263 1018.83C347.632 972.956 291.341 963.53 256.101 986.151C245.261 993.115 234.841 976.726 245.575 969.814L245.628 969.866ZM374.128 1037.47C324.54 1042.91 302.233 1079.78 306.893 1097.48C309.93 1109.57 325.849 1115.8 337.735 1113.08C360.513 1107.84 381.459 1076.01 374.128 1037.47Z" fill="#FFDB43"/>
<path d="M50.2075 1320.91C159.228 1326.99 260.657 1394.28 308.569 1492.46C314.12 1503.72 296.997 1512.2 291.446 1500.84C247.199 1410.25 149.803 1345.58 49.1078 1339.97C36.5406 1339.29 37.5355 1320.23 50.1551 1320.91H50.2075Z" fill="#457CFF"/>
<path d="M1967.97 1075.37C1967.97 1232.09 1922.84 1375.95 1832.45 1506.68C1669.59 1742.7 1385.15 1860.58 978.874 1860.58C963.968 1860.58 952.071 1848.96 943.046 1825.85C870.57 1646.57 834.332 1534.03 834.332 1487.67C834.332 1457.86 854.57 1442.82 894.911 1442.82C914.329 1442.82 944.003 1444.05 983.934 1446.23C1023.86 1448.42 1053.4 1449.52 1072.96 1449.52C1113.16 1449.52 1157.6 1443.23 1206.29 1430.51C1271.92 1414.1 1308.16 1391.67 1315 1363.36C1312.81 1361.86 1308.98 1361.18 1303.79 1361.18C1299.41 1361.18 1292.3 1362.27 1282.59 1364.6C1235.55 1377.31 1178.8 1383.6 1112.2 1383.6C980.788 1383.6 872.484 1346.54 787.427 1272.56C698.541 1194.89 654.098 1091.1 654.098 961.19C654.098 782.734 719.463 646.807 850.194 553.408C965.883 472.043 1116.72 431.292 1302.69 431.292C1498.38 431.292 1657.83 489.547 1781.04 606.056C1905.75 724.753 1968.11 881.192 1968.11 1075.37H1967.97ZM1392.26 954.352C1392.26 925.909 1382.14 901.294 1362.04 880.508C1341.8 859.586 1317.6 849.193 1289.15 849.193C1259.21 849.193 1234.73 859.176 1215.31 879.415C1195.76 899.653 1186.18 924.678 1186.18 954.489C1186.18 984.3 1195.76 1009.46 1215.31 1029.56C1234.73 1049.67 1259.34 1059.78 1289.15 1059.78C1318.97 1059.78 1342.76 1049.67 1362.45 1029.56C1382.28 1009.46 1392.13 984.3 1392.13 954.489L1392.26 954.352Z" fill="#FD9512"/>
<path d="M1304.76 416.523C1243.36 366.064 1133.55 282.237 1223.67 179.813C1320.08 70.2783 1291.63 0.126953 1291.63 0.126953C1291.63 0.126953 1441.37 133.182 1407.73 269.657C1377.1 394.644 1304.76 416.523 1304.76 416.523Z" fill="#FFCA0D"/>
<path d="M1302.98 406.678C1271.25 380.559 1214.23 337.073 1260.86 284.015C1310.91 227.128 1296.14 190.89 1296.14 190.89C1296.14 190.89 1373.68 259.811 1356.31 330.646C1340.45 395.328 1302.98 406.815 1302.98 406.815V406.678Z" fill="#FFEEA6"/>
<path d="M1305.71 327.501C1339.35 366.064 1299.42 446.609 1297.64 450.027C1296.41 452.352 1294.08 453.719 1291.62 453.719C1290.53 453.719 1289.57 453.446 1288.61 453.036C1285.33 451.395 1283.97 447.429 1285.61 444.011C1286.02 443.19 1323.35 367.979 1295.45 336.253C1295.45 336.253 1291.49 329.826 1295.31 326.544C1300.51 322.168 1305.57 327.365 1305.57 327.365L1305.71 327.501Z" fill="#231F20"/>
</svg>
