<svg width="1351" height="1611" viewBox="0 0 1351 1611" fill="none" xmlns="http://www.w3.org/2000/svg">
<g clip-path="url(#clip0_4090_759)">
<path d="M0.803223 614.295L6.92863 484.301C9.16489 436.27 48.5425 398.448 96.6707 398.059L1266.43 388.725C1310.08 388.336 1345.86 423.144 1346.84 466.8L1350.82 652.117C1351.41 680.994 1328.07 704.718 1299.19 704.621L81.6975 699.371C35.4166 699.176 -1.33581 660.479 0.900451 614.295H0.803223Z" fill="#BF70E4"/>
<path d="M50.3898 699.275L41.0559 1507.83C40.3753 1565.29 87.3367 1611.96 144.799 1610.89L1181.65 1592.13C1236.09 1591.15 1280.14 1547.59 1281.69 1493.15L1304.45 704.623L50.4871 699.178L50.3898 699.275Z" fill="#59C3FD"/>
<path d="M721.171 370.452C751.02 379.494 1031.33 275.265 1084.71 158.299C1118.45 84.2103 1074.01 6.52465 985.827 28.9845C959.478 35.6932 932.352 50.9581 900.558 77.0154C827.442 136.811 742.172 241.915 721.852 357.617C720.588 364.715 720.879 368.604 721.171 370.452Z" fill="#45FFDE"/>
<path d="M297.154 160.626C370.27 328.054 538.087 368.112 541.587 370.057C629.287 396.309 642.024 384.155 643.191 382.697C657.872 357.126 598.174 229.853 597.007 226.353C560.352 143.903 478.291 27.9094 394.286 5.15786C310.863 -17.4964 246.595 44.8271 297.251 160.626H297.154Z" fill="#45FFDE"/>
<path d="M653.499 1600.49C637.165 1600.1 624.233 1586.68 624.525 1570.35L649.124 392.908C649.513 376.574 663.027 363.545 679.265 363.934C695.599 364.323 708.53 377.741 708.239 394.075L683.64 1571.51C683.251 1587.95 669.736 1600.78 653.499 1600.49Z" fill="#45FFDE"/>
<path d="M1260.79 1133.69L67.6982 1099.56C51.3638 1099.17 38.4324 1085.56 38.8213 1069.23C39.2102 1052.89 52.8222 1040.06 69.1566 1040.35L1262.25 1074.48C1278.58 1074.87 1291.52 1088.48 1291.13 1104.81C1290.74 1120.95 1277.42 1133.98 1260.79 1133.69Z" fill="#45FFDE"/>
<path d="M1241.93 1451.63C1243.09 1503.65 1235.02 1533.4 1181.35 1547.2C1160.26 1552.65 1138.38 1554.3 1116.7 1552.36C1108.82 1551.68 1095.6 1553.43 1090.45 1545.94C1083.83 1536.32 1092.39 1524.45 1100.07 1519.59C1126.71 1502.77 1163.56 1519.4 1190.3 1496.26C1213.54 1476.23 1214.31 1440.84 1211.01 1410.4C1209.45 1395.72 1204.4 1295.38 1234.54 1316.68C1253.6 1330.19 1241.54 1430.24 1242.03 1451.63H1241.93Z" fill="white"/>
<path d="M1039.4 699.666C967.061 707.055 909.307 659.705 881.305 630.925C828.705 576.672 763.853 457.567 695.696 438.704C615.385 521.835 474.403 454.066 350.437 542.35C304.448 575.019 267.501 638.606 285.683 696.749C290.544 712.306 281.891 728.932 266.237 733.793C250.68 738.752 234.054 730.001 229.193 714.348C205.372 638.12 241.152 547.503 316.115 494.125C422.775 418.189 553.256 435.399 610.135 420.523C666.041 405.841 654.471 375.02 685.681 377.159C793.411 384.354 865.652 529.71 923.794 589.7C958.699 625.772 998.66 644.343 1033.37 640.843C1049.61 639.19 1064.1 651.052 1065.75 667.289C1067.4 683.234 1056.03 697.916 1039.3 699.666H1039.4Z" fill="#45FFDE"/>
</g>
<defs>
<clipPath id="clip0_4090_759">
<rect width="1350.02" height="1610.4" fill="white" transform="translate(0.802246 0.588867)"/>
</clipPath>
</defs>
</svg>
