<svg width="379" height="219" viewBox="0 0 379 219" fill="none" xmlns="http://www.w3.org/2000/svg">
    <g clip-path="url(#clip0_2397_46403)">
        <path
            d="M165.295 158.805L149.555 64.4369C148.521 58.1614 143.383 54.3297 138.436 56.1385L118.384 63.5288C114.582 64.9094 112.006 69.3022 112.079 74.2191L112.161 81.1295C112.36 96.6261 93.2605 95.4079 94.6116 80.1476L95.4089 70.8378C95.8888 65.0939 92.7216 59.8521 88.1737 58.848L72.4335 55.415C67.5682 54.3519 62.9687 58.4494 62.1935 64.5107L51.289 150.905C50.6762 155.881 52.832 160.717 56.5308 162.71L75.143 172.625C80.6211 175.549 86.7931 171.001 87.3764 163.611L88.8677 145.08C89.3476 138.989 93.733 134.574 98.5983 135.268L105.11 136.169C109.525 136.781 112.877 141.41 112.928 146.94L113.143 165.552C113.194 171.99 117.69 176.959 122.821 176.324L157.55 171.961C162.763 171.296 166.351 165.183 165.288 158.797L165.295 158.805Z"
            fill="black" />
        <path
            d="M248.05 102.622C262.853 88.0258 264.322 71.9754 249.859 54.1975C234.37 35.3712 207.925 41.1815 185.614 50.7423C177.943 53.9908 173.41 63.2341 173.41 71.4291L172.93 92.4112L171.438 156.443C171.195 170.308 180.135 179.433 189.15 179.654C217.67 180.732 258.527 177.535 269.165 150.935C278.815 127.295 271.07 111.385 248.05 102.622ZM221.169 78.4502C221.169 83.2343 215.455 86.9331 203.967 89.5909L203.384 76.5602C223.096 69.9894 220.911 78.3542 221.177 78.4502H221.169ZM207.526 143.862C207.518 143.597 206.677 122.541 206.729 123.87C215.691 123.951 235.632 123.685 235.632 132.832C235.44 141.928 216.607 143.368 207.526 143.87V143.862Z"
            fill="black" />
        <path
            d="M294.183 46.4592C283.626 45.7135 274.877 56.5368 275.357 69.7004L278.546 156.973C278.996 169.362 287.479 178.885 297.424 178.191C351.644 174.36 378.739 152.396 378.739 112.3C378.739 72.2032 350.551 50.4238 294.183 46.4592ZM315.217 123.145H314.715L310.566 85.7065C331.149 85.7065 341.411 91.9819 341.411 104.503C341.411 117.025 332.692 123.145 315.217 123.145Z"
            fill="black" />
        <path
            d="M38.3096 179.013C37.6156 178.762 37.2613 178.001 37.5123 177.307C38.5163 174.539 35.733 171.431 32.7134 169.703C29.1697 167.688 24.9245 165.96 23.2708 161.914C20.1626 154.28 29.4207 146.462 26.785 140.268C25.2863 136.731 20.5834 135.609 16.9067 135.292C12.1448 134.93 7.3164 134.812 3.72833 131.844C0.753042 129.378 -0.634935 125.192 0.273157 121.434C1.18125 117.676 4.33373 114.59 8.10637 113.763C9.81181 113.379 10.4024 115.978 8.67485 116.362C5.91366 116.967 3.52161 119.315 2.84977 122.062C2.18532 124.808 3.24106 127.99 5.41901 129.791C8.36477 132.228 12.9643 132.324 17.1356 132.641C23.4479 133.187 27.634 135.469 29.2287 139.227C32.4624 146.824 23.1822 154.664 25.7292 160.91C26.9991 164.033 30.7717 165.539 34.0276 167.4C42.4366 172.199 41.0339 180.01 38.3022 179.013H38.3096Z"
            fill="#46C4FF" />
        <path
            d="M38.841 0.258471C46.1501 -1.2624 54.9283 4.1197 54.788 13.3557C65.028 17.3941 68.1731 27.9516 70.8162 38.4869C71.237 40.2071 68.6604 40.8273 68.2396 39.1366C65.9435 29.9745 63.2857 20.0371 54.4853 16.0873C53.1195 22.5768 47.7374 26.3421 43.2486 25.7146C39.9632 25.2568 37.49 22.3111 37.7927 19.2915C38.2209 15.29 44.0386 10.6609 52.1302 12.5288C51.7389 5.65534 44.9983 1.69075 39.3874 2.86462C37.6672 3.22638 37.1061 0.627614 38.841 0.258471ZM51.9677 15.1866C45.3601 13.4516 40.7015 17.084 40.4357 19.572C40.229 21.2701 41.964 22.8426 43.6177 23.0789C46.785 23.5218 51.0227 20.4727 51.9677 15.194V15.1866Z"
            fill="#91E470" />
        <path
            d="M332.428 35.1794C330.848 28.2248 335.847 19.764 344.654 19.7419C348.338 9.90051 358.357 6.7185 368.368 4.02376C370 3.59555 370.642 6.03928 369.025 6.47487C360.321 8.82262 350.885 11.5247 347.26 19.9855C353.477 21.1815 357.161 26.2535 356.637 30.543C356.039 35.4526 350.044 38.3836 345.924 32.9129C343.591 29.8047 343.126 25.9656 343.909 22.2889C337.353 22.7836 333.691 29.2731 334.902 34.6183C335.271 36.2573 332.797 36.8184 332.428 35.1794ZM346.456 22.3997C344.913 28.7342 348.456 33.1196 350.834 33.3337C352.458 33.5035 353.935 31.8202 354.126 30.2403C354.496 27.2133 351.513 23.2192 346.456 22.4071V22.3997Z"
            fill="#7B7FF9" />
        <path
            d="M307.51 23.0049C301.884 23.0049 297.174 27.5602 297.174 33.3409C297.174 27.634 292.552 23.0049 286.838 23.0049C292.552 23.0049 297.174 18.3907 297.174 12.6689C297.174 18.4571 301.892 23.0049 307.51 23.0049Z"
            fill="#FD9859" />
        <path
            d="M370.877 174.937C365.251 174.937 360.541 179.492 360.541 185.273C360.541 179.566 355.919 174.937 350.205 174.937C355.919 174.937 360.541 170.322 360.541 164.601C360.541 167.458 361.7 170.042 363.575 171.91C365.443 173.777 368.035 174.929 370.877 174.929V174.937Z"
            fill="#91E470" />
        <path
            d="M102.326 176.775C96.7006 176.775 91.9903 181.331 91.9903 187.111C91.9903 181.405 87.3686 176.775 81.6543 176.775C87.3686 176.775 91.9903 172.161 91.9903 166.439C91.9903 172.228 96.7079 176.775 102.326 176.775Z"
            fill="#FD9859" />
        <path
            d="M196.347 201.087C191.526 201.087 187.126 203.05 183.959 206.218C180.769 209.385 178.805 213.778 178.805 218.628C178.805 208.942 170.957 201.087 161.264 201.087C166.107 201.087 170.5 199.123 173.674 195.956C176.842 192.788 178.805 188.395 178.805 183.545C178.805 188.388 180.769 192.781 183.959 195.956C187.126 199.123 191.519 201.087 196.347 201.087Z"
            fill="#7B7FF9" />
        <path
            d="M159.1 157.357L143.36 62.9896C142.326 56.7142 137.188 52.8825 132.249 54.6913L112.197 62.0815C108.395 63.4621 105.818 67.8549 105.892 72.7719L105.973 79.6822C106.172 95.1788 87.073 93.9607 88.4241 78.7003L89.2214 69.3905C89.7013 63.6467 86.5341 58.4048 81.9862 57.4008L66.246 53.9677C61.3807 52.9046 56.7812 57.0021 56.006 63.0634L45.1015 149.458C44.4887 154.434 46.6445 159.269 50.3433 161.263L68.9555 171.178C74.4336 174.102 80.6056 169.554 81.1889 162.163L82.6802 143.633C83.1601 137.542 87.5455 133.127 92.4108 133.821L98.9225 134.721C103.337 135.334 106.689 139.963 106.741 145.493L106.955 164.105C107.007 170.543 111.503 175.512 116.634 174.877L151.363 170.513C156.575 169.849 160.163 163.736 159.1 157.35V157.357Z"
            fill="#91E470" />
        <path
            d="M241.854 101.174C256.657 86.5785 258.126 70.5282 243.663 52.7503C228.174 33.924 201.729 39.7343 179.418 49.2951C171.747 52.5435 167.214 61.7869 167.214 69.9818L166.734 90.9639C165.353 155.202 164.932 156.871 165.508 159.41C167.051 171.097 175.172 178.023 182.954 178.207C211.474 179.285 252.331 176.088 262.969 149.488C272.722 125.59 264.616 109.842 241.854 101.174ZM214.973 77.0029C214.973 81.787 209.259 85.4858 197.771 88.1437L197.188 75.1129C216.9 68.5422 214.715 76.907 214.981 77.0029H214.973ZM201.33 142.415C201.322 142.149 200.481 121.093 200.533 122.422C209.495 122.503 229.436 122.238 229.436 131.385C229.244 140.481 210.411 141.92 201.33 142.422V142.415Z"
            fill="#FF5EB8" />
        <path
            d="M287.99 45.0119C277.432 44.2663 268.683 55.0895 269.163 68.2532L272.353 155.526C272.803 167.914 281.286 177.438 291.231 176.744C345.45 172.913 372.545 150.949 372.545 110.852C372.545 70.756 344.358 48.9765 287.99 45.0119ZM309.023 121.698H308.521L304.372 84.2592C324.956 84.2592 335.218 90.5346 335.218 103.056C335.218 115.577 326.499 121.698 309.023 121.698Z"
            fill="#91E470" />
        <path
            d="M181.973 80.3469C181.973 88.4755 173.682 93.732 166.734 90.9561C167.222 69.3022 167.192 69.7894 167.236 69.5237C174.752 67.2719 181.965 72.846 181.965 80.3469H181.973Z"
            fill="#FD9859" />
        <path
            d="M205.26 25.6104C206.698 19.5189 202.925 13.4153 196.834 11.9775C190.742 10.5398 184.639 14.3125 183.201 20.404C181.763 26.4955 185.536 32.5991 191.627 34.0368C197.719 35.4745 203.822 31.7019 205.26 25.6104Z"
            fill="#FD9859" />
        <path
            d="M253.445 107.073C246.631 114.677 233.74 109.878 233.74 99.4685C233.74 90.6607 243.316 85.4115 250.573 89.5754C248.602 93.5105 245.678 97.3939 241.854 101.167C246.321 102.865 250.174 104.836 253.445 107.073Z"
            fill="#FD9859" />
        <path
            d="M211.675 122.68C207.046 122.326 202.594 122.437 200.534 122.415L200.903 131.99C200.771 132.02 200.667 132.02 200.534 132.02C194.288 132.02 189.209 126.94 189.209 120.694C189.209 114.449 194.288 109.369 200.534 109.369C207.769 109.369 213.041 116.132 211.675 122.688V122.68Z"
            fill="#FD9859" />
        <path
            d="M217.448 157.358C209.541 157.358 204.033 149.407 206.868 142.017C215.299 141.249 221.39 139.78 225.082 137.653C232.634 144.497 227.88 157.358 217.448 157.358Z"
            fill="#FD9859" />
        <path
            d="M186.278 167.169C185.48 172.197 181.516 175.947 176.732 176.634C170.907 173.791 166.551 167.272 165.51 159.402V159.373C167.821 155.674 172.213 153.525 176.813 154.241C183.007 155.201 187.238 160.997 186.278 167.161V167.169Z"
            fill="#FD9859" />
        <path
            d="M267.038 131.275C266.979 131.541 267.348 140.356 262.276 151.061C254.783 152.862 247.363 146.343 248.611 138.296C250.013 129.481 260.394 125.797 267.038 131.275Z"
            fill="#FD9859" />
        <path
            d="M280.682 69.2647C281.295 80.8188 281.664 92.373 281.804 103.942C281.864 109.073 289.844 109.088 289.785 103.942C289.645 92.373 289.276 80.8188 288.663 69.2647C288.397 64.1557 280.416 64.1262 280.682 69.2647Z"
            fill="white" />
        <path
            d="M283.311 120.909C283.525 123.338 283.746 125.759 283.96 128.188C284.152 130.337 285.658 132.175 287.947 132.175C289.955 132.175 292.126 130.344 291.934 128.188C291.72 125.759 291.498 123.338 291.284 120.909C291.092 118.76 289.586 116.922 287.297 116.922C285.289 116.922 283.119 118.753 283.311 120.909Z"
            fill="white" />
        <path
            d="M348.965 99.4542C354.539 115.704 350.11 132.47 336.267 142.947C332.228 146.003 336.193 152.936 340.29 149.835C356.931 137.24 363.48 117.254 356.651 97.3353C354.997 92.507 347.289 94.5815 348.958 99.4542H348.965Z"
            fill="white" />
        <path
            d="M130.602 78.0952C130.927 79.3872 131.252 80.6792 131.569 81.9712C132.094 84.0606 134.434 85.3157 136.479 84.7546C138.605 84.1713 139.787 81.9417 139.262 79.845C138.938 78.553 138.62 77.261 138.295 75.969C137.771 73.8796 135.431 72.6245 133.386 73.1856C131.259 73.7689 130.078 75.9985 130.602 78.0952Z"
            fill="white" />
        <path
            d="M135.838 99.1652C137.529 111.273 139.566 123.322 141.959 135.312C142.963 140.339 150.656 138.213 149.651 133.193C147.259 121.203 145.214 109.154 143.531 97.0463C142.822 91.9817 135.137 94.1375 135.838 99.1652Z"
            fill="white" />
        <path
            d="M58.8933 105.635C57.3798 117.278 55.8664 128.913 54.3529 140.556C53.6958 145.635 61.6767 145.584 62.3337 140.556C63.8472 128.913 65.3607 117.278 66.8742 105.635C67.5313 100.556 59.5504 100.607 58.8933 105.635Z"
            fill="white" />
    </g>
    <defs>
        <clipPath id="clip0_2397_46403">
            <rect width="378.741" height="218.621" fill="white" />
        </clipPath>
    </defs>
</svg>
