<svg width="2688" height="2031" viewBox="0 0 2688 2031" fill="none" xmlns="http://www.w3.org/2000/svg">
<path d="M2347.2 1463.89C2299.88 1457.18 2257.26 1490.24 2250.74 1536.48C2257.32 1489.76 2224.62 1446.54 2177.96 1439.95C2224.75 1446.54 2268.08 1413.78 2274.67 1367.18C2268.14 1413.42 2300 1457.18 2347.26 1463.89H2347.2Z" fill="#DFFF46"/>
<path d="M2230.73 1881.86C2221.18 1801.89 2287.24 1712.67 2386.25 1722.77C2439.2 1616.57 2555.49 1592.57 2671.12 1574.08C2689.98 1571.18 2694.27 1599.4 2675.65 1602.36C2575.07 1618.5 2465.91 1637.78 2415.26 1728.57C2483.68 1749.24 2519.16 1810.59 2508.22 1858.22C2500.24 1893.04 2466.28 1916.91 2434.18 1910.87C2391.57 1902.53 2347.32 1835.74 2374.88 1750.57C2300.66 1748.4 2251.88 1817.06 2259.2 1878.47C2261.43 1897.33 2232.96 1900.65 2230.73 1881.86ZM2403.35 1754.74C2378.57 1824.13 2413.21 1877.5 2439.68 1882.7C2457.69 1886.51 2476.25 1869.34 2480.3 1851.81C2487.97 1818.21 2459.2 1769.85 2403.35 1754.74Z" fill="#7F59FD"/>
<path d="M2181.29 1180.95C2122.11 1114.82 2156.2 995.509 2259.02 987.349C2270.44 919.471 2320.79 866.341 2391.87 856.126C2382.2 775.253 2486.83 692.687 2561.17 661.196C2614.3 638.59 2616.42 699.698 2587.83 698.006C2576.28 697.22 2574.95 680.9 2586.08 678.241C2586.08 677.697 2585.9 677.153 2585.65 676.851C2581.85 674.554 2574.35 677.395 2568.97 679.692C2503.75 707.314 2403.17 783.775 2411.88 854.494C2444.64 853.769 2477.64 862.654 2505.02 881.391C2509.19 884.232 2510.58 889.733 2508.29 894.266C2488.58 932.889 2418.29 936.516 2396.53 876.133C2334.63 884.111 2291.23 927.812 2279.69 987.47C2334.15 992.184 2370.96 1030.87 2374.04 1065.93C2376.16 1089.38 2362.5 1112.41 2342.25 1119.42C2304.29 1132.59 2253.52 1088.77 2256.84 1008.02C2171.8 1017.75 2150.4 1116.52 2196.22 1167.65C2205.04 1177.56 2190.11 1190.92 2181.29 1181.07V1180.95ZM2277.21 1007.54C2273.7 1073.36 2311.72 1108.66 2335.72 1100.32C2347.32 1096.33 2355.36 1081.94 2354.09 1067.56C2351.86 1042.23 2322.78 1010.98 2277.21 1007.48V1007.54ZM2417.56 874.803C2432.97 907.745 2469.06 907.684 2484.89 892.392C2464.59 880.908 2441.13 875.045 2417.56 874.803Z" fill="#FB45FF"/>
<path d="M2050.43 678.242C2093.71 571.741 2195.37 493.769 2309.43 479.565C2322.54 477.872 2325.14 497.819 2311.91 499.451C2206.61 512.567 2109 587.456 2069.04 685.737C2064.09 698.007 2045.47 690.512 2050.43 678.182V678.242Z" fill="#DFFF46"/>
<path d="M569.995 1421.82C612.096 1404.28 670.847 1426.53 680.639 1482.04C746.67 1494.5 777.669 1554.19 805.579 1614.31C810.03 1624.15 795.368 1630.8 790.865 1621.17C766.568 1568.86 739.234 1512.36 681.949 1498.74C681.215 1539.22 653.253 1567.97 625.658 1569.38C605.445 1570.37 587.223 1555.61 585.547 1537.18C583.505 1512.67 613.09 1478.27 663.726 1480.15C653.463 1439.41 608.535 1423.39 576.226 1436.85C566.277 1440.98 560.099 1426.01 569.995 1421.87V1421.82ZM665.873 1496.28C624.244 1493.5 600.523 1520.58 601.78 1535.81C602.461 1546.23 614.714 1553.67 624.872 1553.2C644.351 1552.2 666.292 1529.06 665.873 1496.33V1496.28Z" fill="#FFADCD"/>
<path d="M165.541 694.964C119.304 694.964 82.9118 732.403 82.9118 777.593C82.9118 731.932 45.7337 694.964 0.125 694.964C45.8384 694.964 82.9118 657.733 82.9118 612.177C82.9118 657.367 119.357 694.964 165.541 694.964Z" fill="#92F97B"/>
<path d="M323.679 1833.87C277.442 1833.87 241.049 1871.31 241.049 1916.5C241.049 1870.84 203.871 1833.87 158.263 1833.87C203.976 1833.87 241.049 1796.64 241.049 1751.08C241.049 1796.27 277.495 1833.87 323.679 1833.87Z" fill="#FD9B12"/>
<path d="M836.684 1775.54C804.114 1775.54 778.456 1801.87 778.456 1833.76C778.456 1801.61 752.274 1775.54 720.123 1775.54C752.327 1775.54 778.456 1749.3 778.456 1717.2C778.456 1749.04 804.114 1775.54 836.684 1775.54Z" fill="#FD9B12"/>
<path d="M634.771 795.764C633.515 774.295 605.762 761.518 580.575 758.69C550.99 755.444 517.477 756.177 494.699 733.818C451.761 691.665 491.191 612.439 455.531 578.507C435.214 559.185 400.444 565.259 374.891 573.795C342.007 585.158 309.227 598.405 276.5 588.875C249.376 580.968 227.959 556.934 223.194 529.129C218.376 501.271 230.577 471.529 253.46 454.982C263.776 447.441 275.296 463.203 264.823 470.743C248.067 482.839 238.798 505.46 242.307 525.83C245.815 546.199 262.1 564.422 281.946 570.234C308.704 578.036 339.755 565.364 368.765 555.363C412.698 540.753 447.31 543.895 468.936 564.474C512.607 605.998 473.177 685.486 508.313 719.994C525.908 737.221 555.545 736.436 582.722 739.421C616.915 743.243 652.261 761.78 654.146 794.612C654.931 807.441 635.504 808.54 634.771 795.764Z" fill="#D62B49"/>
<path d="M245.397 943.268C291.32 913.788 365.205 927.664 388.349 990.972C468.727 991.809 517.74 1055.64 563.244 1120.57C570.575 1131.2 554.656 1142.2 547.325 1131.72C507.738 1075.22 463.701 1014.38 393.376 1010.35C400.969 1058.15 374.107 1097.9 341.851 1105.33C318.235 1110.78 293.676 1097.16 287.864 1075.8C280.323 1047.37 307.971 1000.66 368.032 992.228C347.401 946.358 291.11 936.932 255.87 959.553C245.03 966.518 234.61 950.128 245.345 943.216L245.397 943.268ZM373.897 1010.87C324.309 1016.32 302.002 1053.18 306.662 1070.88C309.699 1082.97 325.618 1089.21 337.504 1086.48C360.283 1081.25 381.228 1049.41 373.897 1010.87Z" fill="#FFDB43"/>
<path d="M49.977 1294.32C158.998 1300.39 260.426 1367.68 308.339 1465.86C313.889 1477.12 296.766 1485.6 291.216 1474.24C246.969 1383.65 149.572 1318.98 48.8774 1313.38C36.3101 1312.7 37.305 1293.64 49.9246 1294.32H49.977Z" fill="#457CFF"/>
<path d="M1398.36 456.142C1331.21 400.955 1211.11 309.276 1309.67 197.257C1415.11 77.4612 1384 0.738281 1384 0.738281C1384 0.738281 1547.77 146.258 1510.98 295.517C1477.48 432.213 1398.36 456.142 1398.36 456.142Z" fill="#FFCA0D"/>
<path d="M1396.41 445.373C1361.71 416.808 1299.35 369.248 1350.35 311.22C1405.08 249.004 1388.93 209.371 1388.93 209.371C1388.93 209.371 1473.73 284.748 1454.74 362.219C1437.39 432.96 1396.41 445.523 1396.41 445.523V445.373Z" fill="#FFEEA6"/>
<path d="M1399.4 358.779C1436.19 400.954 1392.52 489.044 1390.57 492.783C1389.23 495.326 1386.68 496.821 1383.99 496.821C1382.8 496.821 1381.75 496.522 1380.7 496.073C1377.11 494.279 1375.62 489.941 1377.41 486.203C1377.86 485.305 1418.69 403.048 1388.18 368.351C1388.18 368.351 1383.84 361.322 1388.03 357.732C1393.71 352.947 1399.25 358.63 1399.25 358.63L1399.4 358.779Z" fill="#231F20"/>
<path d="M2134.91 1253.77C2134.91 1344.78 2124.57 1427.18 2103.88 1500.95C2083.2 1574.04 2054.58 1639.54 2018.04 1697.46C1982.19 1754.69 1940.13 1804.33 1891.86 1846.39C1843.6 1888.45 1791.88 1923.27 1736.73 1950.85C1681.57 1977.74 1624.34 1997.74 1565.04 2010.84C1505.74 2023.94 1447.14 2030.49 1389.22 2030.49C1330.61 2030.49 1271.66 2023.25 1212.36 2008.77C1153.06 1994.98 1096.18 1973.95 1041.71 1945.68C987.241 1916.72 936.218 1880.87 888.642 1838.12C841.756 1795.37 800.731 1745.38 765.567 1688.15C731.092 1630.23 703.857 1565.08 683.861 1492.68C663.866 1420.28 653.868 1340.64 653.868 1253.77C653.868 1162.06 663.866 1079.33 683.861 1005.55C704.546 931.772 732.471 865.925 767.635 808.008C802.8 750.09 844.17 700.446 891.745 659.076C939.32 617.017 990.343 582.542 1044.81 555.651C1099.28 528.761 1155.82 508.765 1214.43 495.665C1273.04 482.564 1331.3 476.014 1389.22 476.014C1451.27 476.014 1512.98 482.564 1574.35 495.665C1635.71 508.765 1693.98 528.761 1749.14 555.651C1804.3 582.542 1855.32 617.017 1902.2 659.076C1949.78 700.446 1990.46 750.09 2024.25 808.008C2058.72 865.925 2085.61 931.772 2104.92 1005.55C2124.91 1079.33 2134.91 1162.06 2134.91 1253.77ZM1727.42 1253.77C1727.42 1208.26 1725 1161.72 1720.18 1114.14C1716.04 1066.57 1708.8 1020.37 1698.46 975.556C1688.8 930.738 1675.36 888.679 1658.12 849.377C1641.57 810.076 1620.54 775.946 1595.03 746.987C1570.21 717.338 1540.56 694.24 1506.09 677.692C1472.3 660.455 1433.35 651.836 1389.22 651.836C1348.54 651.836 1311.99 660.455 1279.59 677.692C1247.87 694.24 1219.6 716.994 1194.78 745.953C1170.65 774.912 1149.96 809.042 1132.72 848.343C1116.18 887.645 1102.39 929.704 1091.35 974.521C1081.01 1018.65 1073.43 1064.85 1068.6 1113.11C1063.77 1160.69 1061.36 1207.57 1061.36 1253.77C1061.36 1299.27 1063.77 1345.82 1068.6 1393.39C1073.43 1440.97 1081.01 1487.16 1091.35 1531.98C1102.39 1576.11 1116.18 1617.82 1132.72 1657.12C1149.96 1696.43 1170.65 1730.9 1194.78 1760.55C1219.6 1789.51 1247.87 1812.61 1279.59 1829.84C1311.99 1847.08 1348.54 1855.7 1389.22 1855.7C1427.83 1855.7 1462.99 1847.08 1494.71 1829.84C1527.12 1811.92 1555.73 1788.13 1580.55 1758.48C1606.07 1728.14 1627.78 1693.32 1645.71 1654.02C1664.33 1614.03 1679.5 1571.97 1691.22 1527.84C1703.63 1483.03 1712.59 1437.17 1718.11 1390.29C1724.31 1343.4 1727.42 1297.9 1727.42 1253.77Z" fill="#FD9512"/>
</svg>
