<svg width="2830" height="2481" viewBox="0 0 2830 2481" fill="none" xmlns="http://www.w3.org/2000/svg">
<g clip-path="url(#clip0_4604_2652)">
<path d="M2095.47 1579.6C1979.03 1829.69 1887.14 2094.8 1850.17 2368.26C1546.2 2517.98 1160.65 2522.25 850.592 2351.43C835.569 2111.25 771.525 1874.3 663.512 1659.05C1116.16 1452.29 1617.11 1437.65 2095.53 1579.6H2095.47Z" fill="#FD6C59"/>
<path d="M96.0545 1172.41L60.3738 1124.36L0.539062 1126.5L35.2484 1077.67L14.6559 1021.46L71.8357 1039.34L118.978 1002.43L119.561 1062.33L169.229 1095.74L112.503 1114.84L96.0545 1172.41Z" fill="#FD6C59"/>
<path d="M258.718 944.533L268.302 885.476L225.045 844.032L284.167 834.901L310.199 780.959L337.203 834.383L396.519 842.413L354.039 884.634L364.724 943.562L311.43 916.17L258.718 944.533Z" fill="#FD6C59"/>
<path d="M290.905 1251.16L280.674 1216.26L246.094 1204.86L276.141 1184.33L276.335 1148L305.087 1170.21L339.731 1159.14L327.492 1193.4L348.732 1222.86L312.404 1221.82L290.905 1251.16Z" fill="#FD6C59"/>
<path d="M192.41 1429.3L219.673 1385.07L198.692 1337.54L249.201 1349.84L287.861 1315.2L291.811 1367L336.752 1393.1L288.703 1412.85L277.759 1463.62L244.086 1424.05L192.41 1429.3Z" fill="#FD6C59"/>
<path d="M2110.69 1724.33C2016.01 1738.19 1913.05 1715.46 1851.21 1642.41C1789.3 1835.45 1642.76 1859.35 1571.27 1798.99C1543.1 1775.29 1526.13 1734.43 1534.81 1698.17C1460.4 1773.35 1370.26 1776.91 1342.03 1756C1327.78 1745.57 1320.66 1724.01 1331.22 1709.7C1287.05 1752.11 1238.1 1791.22 1180.85 1812.27C1123.41 1833.44 1056.13 1834.03 1003.87 1802.23C951.614 1770.44 920.79 1701.99 942.354 1644.74C874.49 1681.01 805.071 1717.6 729.5 1732.1C653.93 1746.54 569.682 1735.99 511.272 1685.67C435.313 1620.53 422.944 1497.49 474.62 1411.69C518.007 1339.74 598.758 1295.45 682.617 1286.97C704.699 1444.84 978.553 1487.06 1120.43 1330.16C1110.98 1398.02 1166.15 1462.59 1231.49 1483.63C1296.83 1504.81 1368.39 1491.34 1433.53 1469.58C1475.56 1455.53 1517 1437.59 1550.35 1408.45C1583.7 1379.31 1608.18 1337.48 1608.18 1293.38C1626.89 1354.51 1682.19 1400.16 1743.91 1417.13C1856 1448.4 2003.45 1391.55 2053.51 1310.73C2110.75 1323.81 2167.28 1340.78 2216.04 1373.42C2378.97 1482.01 2341.22 1690.27 2110.56 1724.52L2110.69 1724.33Z" fill="#FF5EE3"/>
<path d="M2053.63 1310.6C2003.38 1391.74 1855.61 1448.14 1744.03 1416.99C1682.32 1400.02 1627.02 1354.31 1608.3 1293.24C1608.3 1337.41 1583.83 1379.24 1550.48 1408.31C1517.13 1437.45 1475.68 1455.33 1433.66 1469.44C1368.51 1491.2 1296.96 1504.74 1231.62 1483.5C1166.28 1462.45 1111.11 1397.89 1120.56 1330.02C993.185 1470.87 767.315 1447.88 701.782 1341.42C624.528 1214.69 764.207 968.101 996.552 955.279C1001.15 1021.46 1051.59 1077.8 1112.01 1089.65C1166.02 1100.27 1226.5 1072.68 1250.46 1022.95C1362.3 1226.28 1723.7 1174.03 1816.11 974.577C1890.12 988.823 1962.65 1017.77 2014.71 1071.58C2085.04 1144.5 2094.56 1251.02 2053.63 1310.66V1310.6Z" fill="#FF98BA"/>
<path d="M2226.21 1612.17C2288.96 1546.06 2266.81 1468.03 2240.58 1472.88C2228.41 1475.15 2226.34 1491.4 2225.56 1503.77C2220.44 1584.78 2147.4 1645.39 2066.32 1634.84C2051.3 1632.89 2036.54 1628.49 2021.38 1627.78C1987.71 1626.29 1971.59 1643.45 2008.04 1658.02C2032.39 1667.8 2058.75 1672.2 2084.91 1671.81C2137.23 1670.97 2189.88 1650.38 2226.21 1612.17Z" fill="white"/>
<path d="M754.299 1663.78C793.282 1650.11 793.671 1616.44 750.802 1615.66C714.798 1615.02 678.599 1621.04 642.854 1616.63C607.108 1612.23 569.874 1594.23 556.339 1560.81C550.188 1545.66 550.706 1505.77 524.803 1511.86C517.032 1513.67 510.881 1520.02 507.449 1527.21C495.857 1551.88 512.111 1586.98 524.544 1608.93C568.06 1685.99 668.756 1693.69 754.299 1663.78Z" fill="white"/>
<path d="M1636.67 1768.88C1673.64 1779.95 1718.52 1763.5 1744.03 1719.73C1747.08 1714.48 1754.26 1705.29 1747.98 1700.1C1738.79 1692.53 1721.76 1712.73 1714.57 1719.86C1700.45 1733.84 1679.99 1744.33 1661.02 1738.38C1644.18 1733.13 1613.36 1695.51 1596.65 1717.46C1580.07 1739.22 1621.13 1764.21 1636.67 1768.81V1768.88Z" fill="white"/>
<path d="M1040.2 1771.47C1086.05 1799.32 1152.36 1793.1 1202.09 1743.11C1208.05 1737.15 1220.93 1727.24 1214.27 1718.05C1204.55 1704.64 1174.5 1725.82 1162.33 1732.88C1138.44 1746.73 1107.16 1753.6 1083.72 1739.03C1062.87 1726.01 1034.7 1664.56 1004.39 1688.26C974.473 1711.7 1020.9 1759.81 1040.2 1771.54V1771.47Z" fill="white"/>
<path d="M1393.9 1740.52C1418.83 1740.13 1443.63 1733.2 1465.13 1720.51C1473.55 1715.52 1471.47 1709.24 1463.38 1709.24C1440.33 1709.24 1418.25 1731.13 1396.36 1719.73C1387.16 1714.94 1369.87 1698.69 1361.71 1715.26C1352.58 1733.91 1382.11 1740.71 1393.96 1740.58L1393.9 1740.52Z" fill="white"/>
<path d="M1773.37 882.369C1745.85 802.524 1715.09 716.528 1639 672.947C1621.45 662.845 1589.46 648.405 1595.94 622.437C1601.76 599.125 1623.33 605.795 1640.68 612.076C1743.19 649.311 1807.24 768.204 1773.3 882.304L1773.37 882.369Z" fill="white"/>
<path d="M2005.52 1275.25C1977.09 1354.7 1926.19 1343.24 1949.18 1313.71C1974.37 1281.27 1987.84 1239.44 1989.4 1200.52C1989.91 1187.11 1996.58 1140.94 2011.93 1175.07C2022.29 1198.12 2014 1251.68 2005.58 1275.25H2005.52Z" fill="white"/>
<path d="M1418.25 1444.25C1349.6 1460.31 1276.69 1471.39 1218.67 1431.3C1190.37 1411.81 1169.84 1379.43 1169.71 1345.11C1169.65 1330.93 1190.76 1338.05 1201.57 1347.25C1212.39 1356.45 1217.24 1370.63 1224.88 1382.67C1240.49 1407.34 1268.27 1422.56 1296.89 1428.45C1353.42 1440.18 1396.36 1419.06 1415.27 1430.53C1424.4 1436.03 1428.67 1441.79 1418.31 1444.25H1418.25Z" fill="white"/>
<path d="M737.595 1244.42C736.494 1198.63 754.496 1154.34 778.132 1115.16C781.564 1109.53 785.255 1103.77 790.76 1100.01C804.876 1090.43 823.656 1100.14 810.964 1129.47C797.235 1161.14 780.075 1191.83 773.405 1225.7C766.735 1259.57 772.757 1298.62 798.984 1321.02C804.488 1325.69 810.705 1329.57 815.108 1335.33C824.627 1347.77 818.022 1361.43 802.61 1359.04C792.508 1357.42 776.319 1338.9 769.843 1331.38C749.186 1307.62 738.372 1275.69 737.595 1244.42Z" fill="white"/>
<path d="M2562.94 421.752C2564.75 373.638 2535.42 325.913 2491.77 305.709C2448 285.505 2392.7 294.053 2357.21 326.56C2351.58 331.741 2343.61 323.193 2349.31 317.948C2388.23 282.332 2448.77 272.942 2496.63 295.089C2544.48 317.235 2576.54 369.494 2574.6 422.205C2574.34 429.911 2562.68 429.523 2562.94 421.752Z" fill="white"/>
<path d="M2400.73 632.152C2367.57 632.152 2335.06 612.854 2320.17 582.937C2316.74 576.008 2327.16 570.892 2330.6 577.692C2344.97 606.508 2379.94 624.575 2411.74 619.589C2443.6 614.667 2471.38 586.887 2476.36 555.092C2477.59 547.451 2489.05 549.264 2487.89 556.905C2481.54 597.637 2444.31 632.152 2400.73 632.152Z" fill="white"/>
<path d="M1806.78 452.779C1804.78 391.908 1811.71 331.231 1827.38 272.433C1829.32 264.986 1840.65 267.965 1838.64 275.412C1823.3 333.109 1816.5 392.685 1818.5 452.39C1818.76 460.096 1807.11 460.55 1806.85 452.779H1806.78Z" fill="white"/>
<path d="M548.701 1103.44C443.278 1033.83 303.34 1019.65 186.131 1066.66C165.28 1060.25 155.696 1031.11 170.007 1014.6C184.318 998.149 207.695 993.422 229.388 990.832C339.344 977.751 458.755 998.861 540.607 1073.4C547.018 1079.22 553.558 1086.22 553.817 1094.83C554.076 1103.44 555.954 1108.17 548.701 1103.38V1103.44Z" fill="#7BA1F9"/>
<path d="M614.88 1216.51C552.714 1175.45 470.215 1167.1 401.055 1194.82C388.752 1190.99 383.118 1173.83 391.536 1164.12C400.019 1154.41 413.747 1151.62 426.569 1150.07C491.39 1142.36 561.845 1154.8 610.088 1198.77C613.844 1202.2 617.73 1206.34 617.859 1211.39C618.053 1216.51 619.089 1219.23 614.88 1216.44V1216.51Z" fill="#B0E470"/>
<path d="M588.524 1052.42C549.411 980.281 473.582 929.318 391.989 920.382C379.556 907.819 383.247 868.059 439.973 890.14C506.996 916.302 568.968 964.934 593.057 1032.67C594.935 1037.98 596.554 1044 594.028 1048.99C591.503 1053.97 591.179 1057.28 588.459 1052.35L588.524 1052.42Z" fill="#FF4592"/>
<path d="M582.632 1270.71C501.428 1258.92 415.238 1289.29 359.288 1349.39C341.739 1351.85 312.081 1325.1 363.756 1292.85C424.757 1254.78 500.845 1234.12 569.552 1255.36C574.926 1257.04 580.69 1259.31 583.215 1264.3C585.741 1269.28 588.137 1271.55 582.568 1270.71H582.632Z" fill="#46F5FF"/>
<path d="M2733.7 1198.12L2769.38 1150L2829.22 1152.2L2794.57 1103.38L2815.1 1047.17L2757.99 1065.04L2710.85 1028.13L2710.2 1087.97L2660.53 1121.44L2717.26 1140.55L2733.7 1198.12Z" fill="#FD6C59"/>
<path d="M2571.04 970.244L2561.52 911.122L2604.77 869.742L2545.59 860.612L2519.62 806.67L2492.62 860.094L2433.23 868.124L2475.71 910.345L2465.03 969.273L2518.32 941.881L2571.04 970.244Z" fill="#FD6C59"/>
<path d="M2538.92 1276.8L2549.08 1241.9L2583.66 1230.56L2553.62 1210.04L2553.49 1173.71L2524.67 1195.92L2490.02 1184.85L2502.33 1219.04L2481.02 1248.57L2517.42 1247.46L2538.92 1276.8Z" fill="#FD6C59"/>
<path d="M2637.35 1455.01L2610.08 1410.78L2631.07 1363.25L2580.62 1375.49L2541.9 1340.91L2537.95 1392.65L2493.07 1418.81L2541.05 1438.56L2552.06 1489.33L2585.67 1449.7L2637.35 1455.01Z" fill="#FD6C59"/>
<path d="M2281.06 1129.16C2386.48 1059.54 2526.42 1045.36 2643.63 1092.37C2664.48 1085.96 2674.06 1056.82 2659.75 1040.31C2645.44 1023.86 2622.06 1019.13 2600.37 1016.54C2490.41 1003.46 2371 1024.57 2289.15 1099.11C2282.74 1104.94 2276.2 1111.93 2275.94 1120.54C2275.68 1129.16 2273.8 1133.88 2281.06 1129.09V1129.16Z" fill="#B0E470"/>
<path d="M2214.87 1242.22C2277.04 1201.16 2359.54 1192.81 2428.7 1220.52C2441 1216.7 2446.64 1199.54 2438.22 1189.83C2429.74 1180.12 2416.01 1177.33 2403.19 1175.78C2338.36 1168.07 2267.91 1180.51 2219.67 1224.47C2215.91 1227.91 2212.03 1232.05 2211.9 1237.1C2211.7 1242.22 2210.67 1244.94 2214.87 1242.15V1242.22Z" fill="#7BA1F9"/>
<path d="M2241.23 1078.13C2280.35 1005.99 2356.18 955.025 2437.77 946.089C2450.2 933.526 2446.51 893.766 2389.78 915.847C2322.76 942.009 2260.79 990.641 2236.7 1058.38C2234.82 1063.69 2233.2 1069.71 2235.73 1074.69C2238.19 1079.75 2238.58 1082.98 2241.3 1078.06L2241.23 1078.13Z" fill="#46F5FF"/>
<path d="M2247.13 1296.35C2328.33 1284.56 2414.52 1314.94 2470.47 1375.03C2488.02 1377.49 2517.68 1350.75 2466 1318.5C2405 1280.42 2328.91 1259.76 2260.21 1281C2254.83 1282.69 2249.07 1284.95 2246.54 1289.94C2244.02 1294.93 2241.62 1297.19 2247.19 1296.35H2247.13Z" fill="#FF4592"/>
<path d="M940.925 961.024C1133.45 900.715 1592.27 820.382 1887.32 981.515C2256.13 1182.93 667.917 1515.29 940.925 961.024Z" fill="#FF98BA"/>
<path d="M1562.33 478.251C1555.04 513.236 1460.83 963.379 1461.49 960.201C1448.04 1024.38 1450.03 1023.23 1444.07 1025.93C1419.93 1036.96 1336.87 1024.96 1337.41 1010.69C1337.51 1008.3 1337.62 1039.17 1330.93 455.666C1364.07 497.598 1529.4 505.563 1562.39 478.268L1562.33 478.251Z" fill="#46F5FF"/>
<path d="M1562.5 476.885L1562.25 478.295C1557.73 492.168 1506.04 498.696 1444.03 492.674C1382.04 486.589 1332.52 470.236 1330.85 455.71L1330.89 454.313C1332.37 439.289 1385.32 432.295 1449.35 438.524C1513.39 444.753 1563.96 461.925 1562.56 476.902L1562.5 476.885Z" fill="#FD6C59"/>
<path d="M1388.71 385.873C1412.13 430.092 1459.81 436.769 1497.64 405.204C1576.95 338.9 1565.07 246.621 1488.38 181.556C1471.88 167.55 1464.6 171.7 1449.61 182.365C1402.16 216.108 1374.99 260.45 1371.41 306.823C1369.42 333.037 1374.99 360.007 1388.71 385.873Z" fill="#FD6C59"/>
<path d="M1419.06 415.256C1459.82 447.765 1517.4 387.238 1511.31 335.66C1508.14 309.202 1490.59 284.387 1470.91 267.782C1460.25 258.759 1455.57 261.461 1445.91 268.257C1415.27 290.016 1397.76 318.576 1395.52 348.478C1393.3 377.516 1406.64 405.292 1419.06 415.256Z" fill="#FF4592"/>
<path d="M1443 467.992C1435.67 450.543 1434.77 435.15 1440.36 422.3C1443.4 415.204 1454.16 419.831 1451.06 426.91C1446.76 436.953 1447.64 448.922 1453.72 463.491C1456.78 470.611 1445.93 475.078 1443 467.992Z" fill="black"/>
<path d="M1352.04 494.706C1346.6 498.007 1348.14 498.017 1342.89 610.444C1342.73 614.29 1342.52 618.324 1343.96 621.929C1345.41 625.535 1348.94 628.626 1352.8 628.251C1362.95 544.557 1362.02 544.777 1366.3 538.818C1370.16 533.416 1376.93 530.938 1383.48 530.012C1390.58 529.032 1431.93 526.57 1417.9 509.872C1413.99 505.204 1402.16 504.581 1396.62 503.231C1360.46 494.549 1356.38 492.045 1351.98 494.689L1352.04 494.706Z" fill="white"/>
<path d="M1425.33 401.319C1403.69 369.507 1412.3 326.094 1444.26 304.892C1450.64 300.633 1457.16 310.293 1450.71 314.598C1424.39 332.015 1416.86 368.142 1434.95 394.71C1439.27 401.098 1429.61 407.627 1425.35 401.256L1425.33 401.319Z" fill="white"/>
</g>
<defs>
<clipPath id="clip0_4604_2652">
<rect width="2828.68" height="2480.1" fill="white" transform="translate(0.539062)"/>
</clipPath>
</defs>
</svg>
