<svg width="288" height="382" viewBox="0 0 288 382" fill="none" xmlns="http://www.w3.org/2000/svg">
    <path
        d="M165.112 261.422C165.257 261.141 179.37 233.117 160.732 210.628C143.176 189.441 129.678 157.327 130.005 137.512C130.322 118.268 124.957 116.737 124.341 116.627L124.147 118.174L124.241 117.401L124.101 118.163C124.147 118.174 128.635 119.684 128.344 137.372C128.014 157.51 141.678 190.093 159.457 211.547C177.41 233.21 163.754 260.375 163.612 260.65L165.112 261.422Z"
        fill="#CBDAEE" />
    <path
        d="M130.699 115.246C131.171 115.636 131.653 116.04 131.975 116.536C132.296 117.033 132.433 117.654 132.156 118.052C131.748 118.645 130.727 118.477 129.886 118.271C129.044 118.06 128.019 117.914 127.634 118.523C127.3 119.052 127.599 119.992 127.027 120.294C126.435 120.605 125.583 119.909 124.829 119.788C124.087 119.67 123.513 120.129 123.179 120.674C122.851 121.218 122.671 121.861 122.259 122.347C121.847 122.832 121.093 123.117 120.387 122.759C119.786 122.455 119.436 121.78 119.377 121.186C119.318 120.592 119.489 120.054 119.619 119.513C119.933 118.192 120.008 116.791 120.25 115.443C120.493 114.099 120.92 112.777 121.842 111.846C122.635 111.049 124.409 110.159 125.753 111.09C127.461 112.281 129.088 113.91 130.699 115.246Z"
        fill="#B6CCD4" />
    <path
        d="M121.415 123.086C121.835 123 122.202 122.762 122.443 122.474C122.706 122.166 122.878 121.795 123.043 121.436C123.148 121.214 123.255 120.981 123.377 120.778C123.546 120.494 124.034 119.852 124.812 119.979C125.065 120.019 125.347 120.14 125.621 120.256C126.142 120.479 126.684 120.708 127.151 120.466C127.57 120.245 127.616 119.775 127.66 119.36C127.687 119.095 127.71 118.82 127.833 118.632C128.086 118.234 128.727 118.177 129.851 118.46C130.762 118.689 131.875 118.861 132.351 118.168C132.645 117.739 132.569 117.062 132.163 116.437C131.817 115.902 131.297 115.473 130.834 115.092C130.266 114.625 129.687 114.105 129.125 113.604C128.075 112.668 126.987 111.701 125.875 110.929C124.395 109.902 122.512 110.853 121.673 111.696C120.855 112.519 120.329 113.688 120.027 115.385C119.925 115.941 119.852 116.514 119.783 117.069C119.683 117.858 119.581 118.675 119.399 119.443L119.34 119.682C119.22 120.156 119.099 120.641 119.157 121.181C119.212 121.749 119.549 122.55 120.297 122.932C120.684 123.128 121.07 123.157 121.415 123.086ZM124.257 119.595C123.758 119.698 123.311 120.034 122.986 120.555C122.848 120.778 122.738 121.017 122.631 121.25C122.469 121.603 122.317 121.932 122.082 122.208C121.744 122.607 121.099 122.897 120.482 122.58C119.942 122.307 119.651 121.685 119.599 121.193C119.554 120.72 119.663 120.281 119.775 119.82L119.834 119.58C120.021 118.795 120.125 117.967 120.228 117.167C120.298 116.617 120.366 116.046 120.466 115.5C120.756 113.882 121.25 112.768 122.012 112C122.805 111.204 124.452 110.442 125.63 111.255C126.719 112.011 127.793 112.969 128.832 113.892C129.401 114.397 129.986 114.915 130.557 115.393C131.006 115.766 131.478 116.156 131.785 116.628C132.045 117.029 132.205 117.586 131.967 117.933C131.626 118.425 130.695 118.27 129.921 118.072C129.078 117.862 127.902 117.671 127.437 118.411C127.275 118.666 127.244 118.986 127.214 119.29C127.179 119.665 127.143 119.986 126.897 120.113C126.617 120.257 126.203 120.082 125.768 119.896C125.468 119.768 125.153 119.633 124.84 119.584C124.645 119.548 124.448 119.556 124.257 119.595Z"
        fill="#CBDAEE" />
    <path
        d="M63.0323 84.2469C76.9314 110.137 105.172 123.405 129.849 114.038C138.836 110.624 145.706 104.663 150.147 97.2101C157.887 84.2043 158.198 66.6637 149.364 50.2074C135.465 24.3174 105.332 13.0384 80.6608 22.4046C74.4636 24.7549 69.3961 28.1929 65.494 32.432C53.8529 45.0769 52.6233 64.8571 63.0323 84.2469Z"
        fill="#BACED6" />
    <path
        d="M122.988 116.473C125.384 115.979 127.742 115.295 130.05 114.417C138.82 111.091 145.902 105.22 150.534 97.4377C158.646 83.8019 158.355 66.0897 149.749 50.0585C143.041 37.5653 132.189 27.8529 119.181 22.7122C106.381 17.647 92.6284 17.3993 80.4549 22.0222C74.3383 24.3452 69.1865 27.7522 65.1419 32.1496C53.2385 45.0796 52.2787 65.0999 62.639 84.3981C69.4637 97.1142 79.9752 107.176 92.2397 112.727C102.274 117.273 112.955 118.54 122.988 116.473ZM88.4264 20.5839C98.3487 18.5396 108.93 19.5049 118.92 23.4531C131.707 28.5105 142.379 38.0614 148.976 50.3519C157.446 66.1374 157.741 83.5697 149.755 96.9861C145.204 104.628 138.255 110.391 129.644 113.657C117.913 118.109 104.743 117.521 92.557 112.002C80.4924 106.538 70.1473 96.6298 63.4205 84.0976C53.221 65.0989 54.1486 45.4074 65.8393 32.7091C69.8065 28.3974 74.8616 25.0533 80.8588 22.7764C83.3226 21.8447 85.851 21.1145 88.4264 20.5839Z"
        fill="#CBDAEE" />
    <path
        d="M67.9055 78.038C81.7927 103.908 110.021 117.172 134.677 107.811C141.009 105.406 146.289 101.733 150.412 97.1654C158.147 84.1667 158.458 66.6358 149.631 50.1889C135.742 24.3136 105.63 13.0415 80.9742 22.4031C74.781 24.7522 69.7167 28.1884 65.817 32.4252C58.6238 44.8403 59.0696 61.5821 67.9055 78.038Z"
        fill="#F5F2E9" fill-opacity="0.8" />
    <path
        d="M127.825 110.241C130.22 109.748 132.576 109.064 134.879 108.192C141.127 105.821 146.467 102.205 150.76 97.4465C158.911 83.761 158.621 66.0585 150.022 50.0412C143.319 37.5549 132.474 27.8481 119.475 22.7105C106.676 17.6444 92.9273 17.3983 80.7668 22.0179C74.654 24.3397 69.5054 27.745 65.4615 32.1351C57.9671 45.0632 58.7286 61.8209 67.509 78.1816C74.3271 90.8855 84.8314 100.942 97.0895 106.495C107.117 111.038 117.798 112.307 127.825 110.241ZM88.7332 20.5801C98.6492 18.5367 109.224 19.5012 119.207 23.4471C131.985 28.5014 142.65 38.0469 149.243 50.3306C157.705 66.1023 157.999 83.5251 150.02 96.9394C145.851 101.554 140.605 105.102 134.472 107.428C122.748 111.878 109.591 111.289 97.4066 105.769C85.35 100.309 75.0119 90.4064 68.2917 77.8861C59.6424 61.7721 58.8838 45.282 66.2059 32.6362C70.125 28.3898 75.177 25.0473 81.1704 22.7716C83.6327 21.8404 86.1595 21.1104 88.7332 20.5801Z"
        fill="#CBDAEE" />
    <path
        d="M64.9629 81.3513C78.6831 107.065 106.952 120.126 131.845 110.649C138.238 108.214 143.586 104.521 147.777 99.943C155.684 86.9375 156.166 69.4563 147.445 53.1089C133.723 27.3903 103.545 16.3252 78.647 25.8037C72.3941 28.1819 67.2665 31.6374 63.3026 35.8845C55.9464 48.305 56.2332 64.995 64.9629 81.3513Z"
        fill="#B3C6DF" />
    <path
        d="M107.284 38.313C106.199 38.5402 105.037 37.8993 104.688 36.8815C104.34 35.8637 104.936 34.8544 106.021 34.6272C107.105 34.4 108.267 35.0409 108.616 36.0587C108.965 37.0765 108.368 38.0858 107.284 38.313Z"
        fill="#F5F2E9" fill-opacity="0.8" />
    <path
        d="M93.3389 52.5172C92.3366 52.7272 91.2628 52.1349 90.9404 51.1943C90.6181 50.2538 91.1693 49.3211 92.1715 49.1111C93.1738 48.9012 94.2477 49.4934 94.57 50.434C94.8924 51.3746 94.3412 52.3073 93.3389 52.5172Z"
        fill="#F5F2E9" fill-opacity="0.8" />
    <path
        d="M112.014 59.4066C110.306 59.7644 108.477 58.7552 107.928 57.1527C107.378 55.5501 108.317 53.961 110.025 53.6033C111.733 53.2456 113.562 54.2547 114.112 55.8572C114.661 57.4598 113.722 59.0489 112.014 59.4066Z"
        fill="#F5F2E9" fill-opacity="0.8" />
    <path
        d="M95.2767 68.085C94.68 68.21 94.0408 67.8574 93.8489 67.2975C93.657 66.7376 93.9851 66.1824 94.5818 66.0574C95.1784 65.9324 95.8177 66.285 96.0096 66.8449C96.2015 67.4048 95.8734 67.9601 95.2767 68.085Z"
        fill="#F5F2E9" fill-opacity="0.8" />
    <path
        d="M78.7383 56.4214C76.6367 56.8616 74.3851 55.6197 73.7092 53.6476C73.0332 51.6754 74.1889 49.7198 76.2905 49.2795C78.3921 48.8393 80.6437 50.0812 81.3196 52.0533C81.9955 54.0255 80.8398 55.9811 78.7383 56.4214Z"
        fill="#F5F2E9" fill-opacity="0.8" />
    <path
        d="M76.372 79.6159C74.4321 80.0222 72.3537 78.8759 71.7297 77.0554C71.1058 75.235 72.1726 73.4298 74.1125 73.0234C76.0524 72.617 78.1308 73.7634 78.7547 75.5838C79.3787 77.4043 78.3119 79.2095 76.372 79.6159Z"
        fill="#F5F2E9" fill-opacity="0.8" />
    <path
        d="M134.535 59.1038C132.983 59.4289 131.32 58.5118 130.821 57.0555C130.322 55.5991 131.175 54.1549 132.727 53.8299C134.279 53.5048 135.942 54.4218 136.441 55.8782C136.94 57.3346 136.087 58.7787 134.535 59.1038Z"
        fill="#F5F2E9" fill-opacity="0.8" />
    <path
        d="M130.367 40.7078C129.527 40.8839 128.626 40.3871 128.356 39.5983C128.085 38.8094 128.547 38.0272 129.388 37.8511C130.229 37.675 131.129 38.1717 131.4 38.9606C131.67 39.7495 131.208 40.5317 130.367 40.7078Z"
        fill="#F5F2E9" fill-opacity="0.8" />
    <path
        d="M90.4106 38.8723C88.8116 39.2072 87.0985 38.2624 86.5842 36.7619C86.07 35.2614 86.9493 33.7735 88.5482 33.4385C90.1472 33.1036 91.8603 34.0484 92.3745 35.5489C92.8888 37.0494 92.0095 38.5373 90.4106 38.8723Z"
        fill="#F5F2E9" fill-opacity="0.8" />
    <path
        d="M75.3461 39.2343C74.5878 39.3932 73.7753 38.945 73.5314 38.2334C73.2875 37.5218 73.7046 36.8161 74.4629 36.6573C75.2212 36.4984 76.0337 36.9465 76.2776 37.6582C76.5215 38.3698 76.1044 39.0755 75.3461 39.2343Z"
        fill="#F5F2E9" fill-opacity="0.8" />
    <path
        d="M111.921 84.911C109.535 85.411 106.978 84.0006 106.21 81.7609C105.442 79.5212 106.755 77.3002 109.141 76.8003C111.528 76.3003 114.085 77.7107 114.853 79.9504C115.62 82.1901 114.308 84.411 111.921 84.911Z"
        fill="#F5F2E9" fill-opacity="0.8" />
    <path
        d="M130.925 81.876C129.728 82.1266 128.447 81.4197 128.062 80.2971C127.677 79.1745 128.335 78.0613 129.531 77.8107C130.728 77.5601 132.009 78.267 132.394 79.3896C132.779 80.5122 132.121 81.6254 130.925 81.876Z"
        fill="#F5F2E9" fill-opacity="0.8" />
    <path
        d="M103.16 108.161C100.544 108.709 97.7413 107.163 96.8999 104.708C96.0586 102.253 97.4971 99.819 100.113 99.271C102.729 98.723 105.532 100.269 106.373 102.724C107.214 105.179 105.776 107.613 103.16 108.161Z"
        fill="#F5F2E9" fill-opacity="0.8" />
    <path
        d="M85.4267 95.1775C83.9071 95.4958 82.279 94.5978 81.7902 93.1718C81.3015 91.7458 82.1371 90.3317 83.6567 90.0134C85.1763 89.6951 86.8044 90.593 87.2932 92.0191C87.7819 93.4451 86.9462 94.8591 85.4267 95.1775Z"
        fill="#F5F2E9" fill-opacity="0.8" />
    <path
        d="M135.997 102.916C133.957 103.344 131.772 102.138 131.115 100.224C130.459 98.3097 131.581 96.4115 133.621 95.9842C135.661 95.5568 137.846 96.7622 138.502 98.6765C139.158 100.591 138.037 102.489 135.997 102.916Z"
        fill="#F5F2E9" fill-opacity="0.8" />
    <path
        d="M204.65 358.395C204.842 358.147 223.612 333.215 208.588 308.602C194.431 285.414 186.151 252.284 189.728 233.171C193.203 214.61 188.068 212.303 187.466 212.101L187.02 213.567L187.246 212.833L186.982 213.55C187.027 213.571 191.289 215.714 188.095 232.777C184.459 252.201 192.837 285.809 207.169 309.288C221.641 332.998 203.471 357.166 203.283 357.408L204.65 358.395Z"
        fill="#E09B86" />
    <path
        d="M196.288 211.39C196.692 211.833 197.1 212.292 197.34 212.817C197.579 213.343 197.603 213.961 197.259 214.306C196.749 214.819 195.759 214.507 194.957 214.184C194.154 213.86 193.159 213.566 192.666 214.097C192.245 214.56 192.377 215.505 191.753 215.709C191.109 215.922 190.38 215.127 189.65 214.896C188.933 214.673 188.279 215.033 187.857 215.507C187.434 215.981 187.145 216.578 186.654 216.985C186.163 217.392 185.356 217.558 184.714 217.111C184.169 216.729 183.936 216.03 183.976 215.447C184.016 214.864 184.28 214.374 184.506 213.871C185.046 212.647 185.363 211.304 185.835 210.046C186.306 208.788 186.964 207.578 188.044 206.819C188.97 206.166 190.893 205.571 192.071 206.666C193.567 208.055 194.911 209.868 196.288 211.39Z"
        fill="#D4B6BE" />
    <path
        d="M185.969 217.542C186.296 217.475 186.589 217.329 186.813 217.143C187.129 216.884 187.358 216.553 187.587 216.237C187.726 216.036 187.874 215.829 188.038 215.65C188.258 215.406 188.853 214.859 189.606 215.091C189.848 215.17 190.111 215.325 190.362 215.477C190.848 215.769 191.353 216.068 191.848 215.902C192.305 215.754 192.431 215.304 192.542 214.91C192.613 214.659 192.685 214.397 192.839 214.237C193.159 213.892 193.805 213.93 194.882 214.364C195.751 214.716 196.827 215.048 197.42 214.448C197.784 214.083 197.829 213.418 197.53 212.755C197.277 212.189 196.835 211.7 196.441 211.266C195.956 210.732 195.47 210.15 194.997 209.587C194.109 208.53 193.193 207.44 192.214 206.53C190.912 205.322 188.877 205.966 187.896 206.652C186.937 207.322 186.219 208.372 185.626 209.96C185.43 210.484 185.262 211.023 185.094 211.547C184.857 212.294 184.617 213.063 184.301 213.778L184.199 214.003C183.999 214.436 183.797 214.891 183.757 215.41C183.714 215.966 183.909 216.785 184.595 217.262C185.038 217.578 185.532 217.632 185.969 217.542ZM188.848 214.667C188.426 214.754 188.023 214.992 187.686 215.368C187.511 215.565 187.36 215.779 187.212 215.987C186.988 216.301 186.78 216.596 186.499 216.826C186.091 217.163 185.397 217.343 184.837 216.954C184.345 216.61 184.162 215.971 184.201 215.484C184.234 215.027 184.421 214.623 184.611 214.197L184.712 213.967C185.034 213.24 185.282 212.459 185.515 211.702C185.679 211.184 185.847 210.645 186.042 210.132C186.608 208.614 187.29 207.62 188.183 206.99C189.113 206.337 190.881 205.849 191.915 206.807C192.874 207.694 193.782 208.774 194.654 209.819C195.129 210.387 195.621 210.973 196.109 211.512C196.494 211.937 196.897 212.38 197.123 212.882C197.315 213.304 197.375 213.866 197.078 214.164C196.658 214.594 195.754 214.302 195.017 214.003C194.213 213.674 193.072 213.319 192.483 213.961C192.278 214.186 192.19 214.483 192.11 214.773C192.008 215.128 191.923 215.435 191.654 215.523C191.355 215.622 190.97 215.39 190.563 215.146C190.284 214.978 189.998 214.806 189.694 214.713C189.424 214.618 189.132 214.608 188.848 214.667Z"
        fill="#E09B86" />
    <path
        d="M135.206 171.091C144.565 197.948 170.325 214.799 196.423 209.422C205.928 207.464 213.769 202.75 219.455 196.252C229.361 184.912 232.679 168.133 226.731 151.062C217.372 124.205 189.395 108.983 163.302 114.359C156.749 115.71 151.129 118.263 146.529 121.762C132.806 132.186 128.196 150.976 135.206 171.091Z"
        fill="#D6BAC0" />
    <path
        d="M196.559 209.814C205.835 207.903 213.869 203.308 219.799 196.521C230.189 184.63 232.931 167.604 227.137 150.978C222.621 138.02 213.513 127.122 201.481 120.29C189.646 113.562 176.032 111.316 163.16 113.968C156.695 115.3 150.999 117.816 146.226 121.441C132.195 132.104 127.818 151.16 134.793 171.176C139.389 184.367 148.1 195.548 159.319 202.669C170.691 209.881 183.916 212.419 196.559 209.814ZM163.434 114.755C190.136 109.254 217.168 124.899 226.315 151.147C232.02 167.521 229.324 184.278 219.103 195.981C213.28 202.644 205.391 207.156 196.287 209.032C170.651 214.313 145.135 198.324 135.617 171.012C128.749 151.302 133.044 132.555 146.82 122.088C151.499 118.53 157.089 116.062 163.434 114.755Z"
        fill="#E09B86" />
    <path
        d="M141.132 165.767C150.473 192.586 176.202 209.419 202.259 204.048C208.954 202.668 214.822 199.922 219.684 196.144C229.577 184.816 232.893 168.057 226.954 151.006C217.611 124.182 189.675 108.979 163.618 114.35C157.074 115.699 151.461 118.25 146.868 121.745C137.612 132.597 135.189 148.706 141.132 165.767Z"
        fill="#E9F2F5" fill-opacity="0.8" />
    <path
        d="M202.392 204.442C208.993 203.081 214.912 200.399 219.982 196.466C230.408 184.541 233.148 167.534 227.364 150.928C222.856 137.985 213.761 127.1 201.746 120.277C189.927 113.552 176.332 111.31 163.477 113.96C157.021 115.29 151.334 117.803 146.567 121.425C136.918 132.718 134.807 148.891 140.715 165.853C145.302 179.023 154.002 190.196 165.202 197.303C176.565 204.509 189.771 207.044 202.392 204.442ZM163.751 114.746C190.417 109.249 217.409 124.875 226.541 151.092C232.237 167.446 229.543 184.184 219.336 195.873C214.407 199.687 208.6 202.32 202.118 203.656C176.518 208.933 151.044 192.962 141.542 165.682C135.723 148.977 137.795 133.062 147.219 122.016C151.833 118.517 157.415 116.052 163.751 114.746Z"
        fill="#E09B86" />
    <path
        d="M137.733 168.69C146.873 195.379 172.596 212.016 198.863 206.509C205.612 205.094 211.542 202.322 216.47 198.526C226.532 187.173 230.029 170.442 224.219 153.474C215.077 126.78 187.118 111.782 160.851 117.289C154.254 118.672 148.583 121.248 143.928 124.76C134.511 135.635 131.919 151.712 137.733 168.69Z"
        fill="#EBB4A3" />
    <path
        d="M187.602 132.948C186.53 133.173 185.382 132.539 185.037 131.533C184.692 130.527 185.282 129.53 186.354 129.305C187.426 129.08 188.574 129.714 188.919 130.72C189.264 131.726 188.674 132.724 187.602 132.948Z"
        fill="#E9F2F5" fill-opacity="0.8" />
    <path
        d="M171.393 144.905C170.403 145.112 169.341 144.527 169.023 143.597C168.704 142.667 169.249 141.745 170.239 141.538C171.23 141.33 172.292 141.916 172.61 142.845C172.929 143.775 172.384 144.697 171.393 144.905Z"
        fill="#E9F2F5" fill-opacity="0.8" />
    <path
        d="M188.593 154.14C186.905 154.493 185.097 153.496 184.554 151.912C184.011 150.328 184.939 148.757 186.627 148.403C188.315 148.05 190.124 149.047 190.667 150.631C191.209 152.215 190.281 153.786 188.593 154.14Z"
        fill="#E9F2F5" fill-opacity="0.8" />
    <path
        d="M170.34 160.377C169.75 160.501 169.118 160.152 168.928 159.599C168.739 159.045 169.063 158.497 169.653 158.373C170.243 158.25 170.874 158.598 171.064 159.152C171.254 159.705 170.93 160.254 170.34 160.377Z"
        fill="#E9F2F5" fill-opacity="0.8" />
    <path
        d="M156.787 146.648C154.71 147.083 152.484 145.855 151.816 143.906C151.148 141.957 152.291 140.024 154.368 139.589C156.445 139.154 158.671 140.381 159.339 142.33C160.007 144.28 158.864 146.213 156.787 146.648Z"
        fill="#E9F2F5" fill-opacity="0.8" />
    <path
        d="M150.228 168.976C148.311 169.378 146.256 168.244 145.64 166.445C145.023 164.646 146.078 162.861 147.995 162.46C149.912 162.058 151.967 163.191 152.583 164.99C153.2 166.79 152.146 168.574 150.228 168.976Z"
        fill="#E9F2F5" fill-opacity="0.8" />
    <path
        d="M210.579 156.921C209.046 157.242 207.402 156.336 206.909 154.896C206.415 153.457 207.259 152.029 208.793 151.708C210.327 151.386 211.97 152.293 212.464 153.732C212.957 155.172 212.113 156.599 210.579 156.921Z"
        fill="#E9F2F5" fill-opacity="0.8" />
    <path
        d="M209.622 138.444C208.791 138.619 207.9 138.128 207.633 137.348C207.366 136.568 207.823 135.795 208.654 135.621C209.485 135.447 210.375 135.938 210.642 136.717C210.909 137.497 210.452 138.27 209.622 138.444Z"
        fill="#E9F2F5" fill-opacity="0.8" />
    <path
        d="M171.204 131.151C169.623 131.482 167.93 130.548 167.422 129.065C166.913 127.581 167.783 126.111 169.363 125.78C170.943 125.449 172.637 126.382 173.145 127.866C173.653 129.349 172.784 130.819 171.204 131.151Z"
        fill="#E9F2F5" fill-opacity="0.8" />
    <path
        d="M156.17 129.502C155.421 129.659 154.618 129.216 154.376 128.513C154.135 127.809 154.548 127.112 155.297 126.955C156.047 126.798 156.85 127.241 157.091 127.944C157.332 128.647 156.92 129.345 156.17 129.502Z"
        fill="#E9F2F5" fill-opacity="0.8" />
    <path
        d="M184.099 178.976C181.74 179.47 179.213 178.076 178.454 175.862C177.695 173.649 178.993 171.453 181.352 170.959C183.711 170.465 186.238 171.859 186.997 174.073C187.756 176.287 186.458 178.482 184.099 178.976Z"
        fill="#E9F2F5" fill-opacity="0.8" />
    <path
        d="M202.82 178.681C201.638 178.928 200.371 178.23 199.991 177.12C199.61 176.01 200.261 174.91 201.443 174.662C202.625 174.415 203.892 175.113 204.273 176.223C204.653 177.333 204.003 178.433 202.82 178.681Z"
        fill="#E9F2F5" fill-opacity="0.8" />
    <path
        d="M171.41 200.448C168.824 200.99 166.054 199.462 165.222 197.036C164.391 194.609 165.813 192.203 168.398 191.661C170.984 191.12 173.754 192.648 174.586 195.074C175.418 197.501 173.996 199.907 171.41 200.448Z"
        fill="#E9F2F5" fill-opacity="0.8" />
    <path
        d="M156.116 185.421C154.614 185.736 153.005 184.848 152.521 183.439C152.038 182.029 152.864 180.631 154.366 180.317C155.868 180.002 157.478 180.89 157.961 182.299C158.444 183.709 157.618 185.106 156.116 185.421Z"
        fill="#E9F2F5" fill-opacity="0.8" />
    <path
        d="M204.221 199.854C202.205 200.276 200.045 199.085 199.396 197.193C198.748 195.301 199.857 193.424 201.873 193.002C203.889 192.58 206.049 193.771 206.698 195.663C207.346 197.555 206.237 199.432 204.221 199.854Z"
        fill="#E9F2F5" fill-opacity="0.8" />
    <path
        d="M152.631 306.115C152.729 305.88 162.187 282.393 144.582 265.92C127.995 250.4 113.887 225.837 112.456 209.995C111.068 194.61 106.425 193.812 105.896 193.772L105.869 195.022L105.884 194.396L105.834 195.015C105.875 195.023 109.78 195.867 111.056 210.01C112.51 226.11 126.804 251.032 143.597 266.747C160.556 282.616 151.408 305.378 151.311 305.608L152.631 306.115Z"
        fill="#CFBB9F" />
    <path
        d="M111.615 192.014C112.024 192.281 112.44 192.558 112.739 192.922C113.037 193.286 113.187 193.765 112.993 194.104C112.704 194.608 111.865 194.562 111.171 194.469C110.476 194.376 109.637 194.344 109.366 194.859C109.136 195.306 109.44 196.02 108.996 196.304C108.54 196.6 107.802 196.123 107.183 196.088C106.577 196.056 106.143 196.47 105.915 196.925C105.686 197.381 105.587 197.906 105.291 198.323C104.995 198.741 104.401 199.032 103.805 198.81C103.298 198.62 102.968 198.119 102.875 197.654C102.782 197.189 102.884 196.753 102.953 196.314C103.114 195.248 103.076 194.131 103.176 193.052C103.276 191.973 103.532 190.894 104.212 190.082C104.795 189.386 106.169 188.536 107.321 189.158C108.783 189.947 110.217 191.098 111.615 192.014Z"
        fill="#D5A896" />
    <path
        d="M104.878 198.902C105.119 198.784 105.317 198.611 105.451 198.421C105.643 198.155 105.751 197.849 105.863 197.556C105.929 197.371 106 197.179 106.089 197.006C106.209 196.771 106.557 196.223 107.193 196.254C107.399 196.268 107.637 196.337 107.865 196.406C108.307 196.537 108.764 196.67 109.115 196.441C109.44 196.234 109.442 195.856 109.446 195.525C109.447 195.315 109.448 195.095 109.534 194.939C109.71 194.604 110.222 194.505 111.155 194.629C111.907 194.732 112.817 194.776 113.152 194.187C113.359 193.829 113.253 193.299 112.878 192.839C112.56 192.447 112.111 192.152 111.712 191.891C111.219 191.57 110.717 191.211 110.228 190.864C109.31 190.213 108.363 189.543 107.407 189.026C106.134 188.34 104.683 189.252 104.064 189.985C103.459 190.701 103.122 191.668 102.997 193.031C102.956 193.48 102.939 193.937 102.92 194.38C102.894 195.013 102.87 195.663 102.776 196.286L102.744 196.483C102.681 196.862 102.619 197.26 102.699 197.674C102.783 198.118 103.11 198.721 103.746 198.957C104.16 199.117 104.556 199.06 104.878 198.902ZM106.512 196.074C106.201 196.226 105.938 196.494 105.755 196.856C105.661 197.045 105.588 197.243 105.517 197.435C105.409 197.726 105.31 197.999 105.139 198.235C104.893 198.58 104.39 198.861 103.87 198.667C103.413 198.496 103.134 198.032 103.061 197.644C102.989 197.278 103.049 196.925 103.107 196.553L103.137 196.353C103.234 195.718 103.26 195.057 103.281 194.417C103.299 193.979 103.316 193.523 103.358 193.083C103.477 191.78 103.797 190.864 104.36 190.192C104.947 189.494 106.222 188.759 107.232 189.302C108.169 189.806 109.107 190.47 110.01 191.114C110.501 191.464 111.01 191.825 111.505 192.15C111.896 192.406 112.304 192.672 112.587 193.02C112.827 193.312 112.994 193.741 112.825 194.033C112.589 194.455 111.821 194.407 111.183 194.32C110.486 194.223 109.52 194.173 109.197 194.794C109.086 195.011 109.08 195.261 109.08 195.505C109.075 195.803 109.074 196.06 108.883 196.183C108.671 196.32 108.321 196.216 107.952 196.106C107.698 196.03 107.439 195.953 107.182 195.94C106.951 195.92 106.721 195.971 106.512 196.074Z"
        fill="#CFBB9F" />
    <path
        d="M53.7526 172.671C66.8454 191.947 90.6687 200.041 109.999 190.555C117.039 187.1 122.184 181.808 125.255 175.545C130.602 164.618 129.615 150.73 121.293 138.477C108.2 119.2 82.9862 112.835 63.6595 122.32C58.8056 124.703 54.941 127.845 52.0806 131.527C43.542 142.501 43.9462 158.233 53.7526 172.671Z"
        fill="#DB9D83" />
    <path
        d="M110.189 190.842C117.06 187.47 122.381 182.234 125.583 175.694C131.191 164.235 129.698 150.269 121.593 138.335C115.276 129.034 105.795 122.281 94.8904 119.319C84.1627 116.398 72.9982 117.368 63.4638 122.047C58.6755 124.397 54.7443 127.525 51.7745 131.341C43.0456 142.565 43.6885 158.459 53.4468 172.826C59.8774 182.294 69.1069 189.351 79.4347 192.705C89.9029 196.099 100.825 195.438 110.189 190.842ZM63.8475 122.612C83.6256 112.906 108.188 119.794 120.984 138.634C128.966 150.387 130.437 164.131 124.921 175.408C121.777 181.829 116.551 186.971 109.808 190.28C90.8204 199.599 67.3733 192.135 54.0583 172.531C44.4497 158.384 43.8084 142.75 52.3788 131.732C55.2894 127.987 59.1478 124.919 63.8475 122.612Z"
        fill="#CFBB9F" />
    <path
        d="M57.1547 167.366C70.2355 186.626 94.0479 194.716 113.361 185.237C118.323 182.802 122.343 179.456 125.352 175.499C130.695 164.578 129.71 150.7 121.393 138.455C108.31 119.191 83.1145 112.831 63.8014 122.31C58.9509 124.69 55.0891 127.831 52.2306 131.511C47.2856 141.928 48.8336 155.114 57.1547 167.366Z"
        fill="#E9ECF5" fill-opacity="0.8" />
    <path
        d="M113.551 185.526C118.444 183.125 122.517 179.819 125.657 175.698C131.291 164.199 129.8 150.242 121.7 138.317C115.387 129.022 105.913 122.273 95.0165 119.313C84.294 116.391 73.1373 117.36 63.6096 122.037C58.8245 124.385 54.8961 127.511 51.9283 131.325C46.7697 142.169 48.5759 155.342 56.8489 167.523C63.2725 176.981 72.4977 184.037 82.8158 187.385C93.2828 190.778 104.197 190.117 113.551 185.526ZM63.993 122.601C83.7572 112.901 108.302 119.785 121.089 138.612C129.065 150.357 130.535 164.092 125.022 175.361C121.969 179.359 117.972 182.604 113.168 184.962C94.1934 194.274 70.7668 186.813 57.4615 167.223C49.3138 155.226 47.5323 142.264 52.5669 131.66C55.4408 127.973 59.2965 124.906 63.993 122.601Z"
        fill="#CFBB9F" />
    <path
        d="M55.3882 170.044C68.4595 189.297 92.2717 197.375 111.595 187.888C116.559 185.451 120.583 182.104 123.595 178.145C128.946 167.223 127.968 153.347 119.658 141.107C106.585 121.851 81.3877 115.502 62.0647 124.989C57.2118 127.372 53.3472 130.514 50.4858 134.195C45.5332 144.613 47.0732 157.797 55.3882 170.044Z"
        fill="#E2A081" />
    <path
        d="M85.8724 132.373C85.085 132.759 84.0478 132.485 83.5556 131.76C83.0635 131.036 83.3027 130.135 84.0901 129.748C84.8774 129.362 85.9146 129.636 86.4068 130.361C86.8989 131.086 86.6597 131.986 85.8724 132.373Z"
        fill="#E9ECF5" fill-opacity="0.8" />
    <path
        d="M76.0816 144.673C75.354 145.031 74.3955 144.777 73.9407 144.107C73.4859 143.437 73.707 142.605 74.4346 142.248C75.1621 141.891 76.1207 142.144 76.5755 142.814C77.0303 143.484 76.8092 144.316 76.0816 144.673Z"
        fill="#E9ECF5" fill-opacity="0.8" />
    <path
        d="M91.7394 148.77C90.4998 149.379 88.8666 148.947 88.0917 147.806C87.3167 146.665 87.6935 145.246 88.9331 144.638C90.1728 144.029 91.8059 144.461 92.5809 145.602C93.3558 146.743 92.9791 148.162 91.7394 148.77Z"
        fill="#E9ECF5" fill-opacity="0.8" />
    <path
        d="M79.0068 156.964C78.5737 157.177 78.003 157.026 77.7323 156.627C77.4615 156.228 77.5932 155.733 78.0263 155.52C78.4594 155.308 79.03 155.459 79.3008 155.857C79.5716 156.256 79.4399 156.752 79.0068 156.964Z"
        fill="#E9ECF5" fill-opacity="0.8" />
    <path
        d="M65.0428 148.694C63.5172 149.443 61.5074 148.911 60.5537 147.507C59.6001 146.102 60.0637 144.357 61.5893 143.608C63.1148 142.859 65.1247 143.39 66.0783 144.795C67.032 146.199 66.5684 147.945 65.0428 148.694Z"
        fill="#E9ECF5" fill-opacity="0.8" />
    <path
        d="M65.306 167.352C63.8978 168.043 62.0426 167.553 61.1623 166.257C60.282 164.96 60.7099 163.349 62.1182 162.657C63.5264 161.966 65.3816 162.457 66.2619 163.753C67.1422 165.05 66.7142 166.661 65.306 167.352Z"
        fill="#E9ECF5" fill-opacity="0.8" />
    <path
        d="M109.612 146.943C108.485 147.496 107.001 147.103 106.297 146.066C105.593 145.029 105.935 143.74 107.062 143.187C108.188 142.634 109.672 143.026 110.377 144.063C111.081 145.101 110.739 146.39 109.612 146.943Z"
        fill="#E9ECF5" fill-opacity="0.8" />
    <path
        d="M104.425 132.665C103.815 132.964 103.011 132.752 102.629 132.19C102.248 131.628 102.433 130.93 103.044 130.63C103.654 130.331 104.458 130.543 104.839 131.105C105.221 131.667 105.035 132.365 104.425 132.665Z"
        fill="#E9ECF5" fill-opacity="0.8" />
    <path
        d="M72.5923 133.95C71.4316 134.519 69.9025 134.115 69.1769 133.047C68.4513 131.978 68.804 130.65 69.9647 130.08C71.1255 129.51 72.6546 129.915 73.3802 130.983C74.1058 132.052 73.753 133.38 72.5923 133.95Z"
        fill="#E9ECF5" fill-opacity="0.8" />
    <path
        d="M60.4682 135.395C59.9177 135.665 59.1925 135.473 58.8484 134.967C58.5042 134.46 58.6715 133.83 59.222 133.56C59.7725 133.289 60.4977 133.481 60.8418 133.988C61.186 134.495 61.0187 135.125 60.4682 135.395Z"
        fill="#E9ECF5" fill-opacity="0.8" />
    <path
        d="M94.1952 169.007C92.4626 169.858 90.1802 169.254 89.0971 167.659C88.0141 166.064 88.5406 164.082 90.2731 163.231C92.0057 162.381 94.2881 162.984 95.3712 164.579C96.4542 166.174 95.9277 168.157 94.1952 169.007Z"
        fill="#E9ECF5" fill-opacity="0.8" />
    <path
        d="M108.802 165.363C107.933 165.789 106.789 165.487 106.246 164.687C105.704 163.888 105.967 162.894 106.836 162.468C107.704 162.041 108.848 162.344 109.391 163.143C109.934 163.943 109.67 164.936 108.802 165.363Z"
        fill="#E9ECF5" fill-opacity="0.8" />
    <path
        d="M89.4425 188.11C87.5435 189.043 85.0418 188.381 83.8547 186.633C82.6676 184.885 83.2447 182.712 85.1437 181.78C87.0426 180.847 89.5443 181.509 90.7314 183.257C91.9185 185.005 91.3414 187.178 89.4425 188.11Z"
        fill="#E9ECF5" fill-opacity="0.8" />
    <path
        d="M73.8924 179.142C72.7893 179.683 71.336 179.299 70.6465 178.284C69.9569 177.268 70.2921 176.006 71.3952 175.464C72.4983 174.923 73.9516 175.307 74.6412 176.323C75.3307 177.338 74.9955 178.6 73.8924 179.142Z"
        fill="#E9ECF5" fill-opacity="0.8" />
    <path
        d="M114.98 181.673C113.499 182.4 111.548 181.884 110.622 180.521C109.697 179.158 110.147 177.463 111.627 176.737C113.108 176.01 115.059 176.526 115.985 177.889C116.91 179.252 116.46 180.946 114.98 181.673Z"
        fill="#E9ECF5" fill-opacity="0.8" />
</svg>
