<svg width="212" height="143" viewBox="0 0 212 143" fill="none" xmlns="http://www.w3.org/2000/svg">
    <g clip-path="url(#clip0_2397_49432)" filter="url(#filter0_d_2397_49432)">
        <path
            d="M44.8965 34.8801C46.9965 39.1001 49.6465 43.1101 50.9965 47.6301C53.5265 56.1201 50.8265 65.9401 44.3165 71.9401C37.8065 77.9401 27.7965 79.8301 19.5465 76.6201C14.9065 74.8101 10.7965 71.4301 8.58648 66.9601C6.98648 63.7401 6.41648 60.1001 6.30648 56.5001C5.97648 46.4801 9.48649 35.8801 17.4565 29.8001C21.0465 27.0601 25.4565 25.2701 28.3265 21.7801C31.3265 18.1401 32.1665 12.8501 30.4565 8.46011C30.0265 7.36011 29.4465 6.30011 29.3265 5.12011C29.2065 3.95011 29.7065 2.59011 30.8165 2.20011C31.8665 1.83011 33.0665 2.47011 33.6765 3.40011C34.2965 4.33011 34.4665 5.47011 34.6265 6.58011C33.8465 4.30011 36.1565 1.60011 38.5265 2.02011C40.8965 2.43011 42.1565 5.75011 40.6565 7.63011C41.7865 5.91011 44.2065 5.17011 46.1065 5.96011C48.0065 6.75011 49.1865 8.99011 48.7565 11.0101C47.8765 15.1501 42.3665 16.4101 41.7465 20.7001C41.0665 25.4101 42.8565 30.7501 44.9165 34.8701L44.8965 34.8801Z"
            fill="#76B6E7" />
        <path
            d="M27.9863 79.6703C34.3163 79.6703 40.6563 77.3503 45.3363 73.0403C52.2863 66.6403 55.1363 56.2503 52.4363 47.2003C51.4463 43.8703 49.7863 40.8303 48.1863 37.8903C47.5363 36.6903 46.8563 35.4503 46.2463 34.2203C44.8163 31.3403 42.5163 25.7903 43.2263 20.9303C43.4663 19.2803 44.7563 18.1503 46.2563 16.8403C47.8663 15.4403 49.6863 13.8403 50.2163 11.3403C50.7863 8.6303 49.2363 5.6703 46.6763 4.6003C45.3963 4.0703 43.9563 4.0403 42.6563 4.4403C42.5963 4.2103 42.5263 3.9803 42.4463 3.7603C41.7963 2.0403 40.4263 0.840297 38.7863 0.560297C37.2563 0.300297 35.6863 0.850297 34.5063 2.0603C33.5063 0.960297 31.8863 0.250297 30.3163 0.810297C28.4463 1.4703 27.6563 3.5703 27.8363 5.3003C27.9563 6.4103 28.3763 7.3903 28.7463 8.2603C28.8563 8.5203 28.9663 8.7703 29.0663 9.0303C30.5763 12.9003 29.8163 17.6503 27.1763 20.8503C25.4763 22.9103 23.1563 24.3503 20.6963 25.8703C19.3163 26.7303 17.8863 27.6103 16.5563 28.6303C8.82629 34.5303 4.4363 44.9703 4.8163 56.5703C4.9563 61.0003 5.75629 64.6203 7.25629 67.6503C9.52629 72.2303 13.8063 76.0103 19.0163 78.0403C21.8863 79.1603 24.9363 79.7003 27.9963 79.7003L27.9863 79.6703ZM43.5563 35.5403C44.1963 36.8203 44.8863 38.0903 45.5463 39.3103C47.1463 42.2503 48.6563 45.0203 49.5563 48.0503C51.9363 56.0303 49.4263 65.1903 43.2963 70.8303C37.1763 76.4703 27.8463 78.2403 20.0863 75.2203C15.5663 73.4603 11.8563 70.2103 9.92628 66.2903C8.62629 63.6603 7.9263 60.4403 7.7963 56.4503C7.4463 45.8203 11.3963 36.3003 18.3563 30.9903C19.5763 30.0603 20.8763 29.2503 22.2563 28.4003C24.8163 26.8203 27.4563 25.1803 29.4763 22.7303C32.8363 18.6503 33.7663 12.8303 31.8463 7.9103C31.7363 7.6203 31.6163 7.3403 31.4863 7.0503C31.1663 6.3103 30.8763 5.6203 30.8063 4.9603C30.7463 4.3703 30.9863 3.7203 31.3063 3.6103C31.5963 3.5003 32.1363 3.8003 32.4163 4.2303C32.6963 4.6503 32.8463 5.1803 32.9663 5.7403C32.9763 6.1903 33.0563 6.6303 33.2063 7.0603C33.4563 7.7903 34.2263 8.2203 34.9763 8.0303C35.7263 7.8503 36.2163 7.1203 36.1063 6.3603C36.0663 6.0903 36.0263 5.8003 35.9763 5.5003C36.0163 5.0303 36.2563 4.5803 36.5363 4.2603C36.9163 3.8103 37.5763 3.3703 38.2663 3.4903C38.9563 3.6103 39.4263 4.2403 39.6363 4.8003C39.8263 5.3003 39.8963 6.0003 39.5863 6.5303C39.5163 6.6203 39.4563 6.7103 39.3963 6.8003C38.9563 7.4703 39.1163 8.3703 39.7663 8.8403C40.4163 9.3103 41.3163 9.1903 41.8163 8.5603C41.8963 8.4603 41.9663 8.3603 42.0363 8.2503C42.8263 7.2803 44.3563 6.8603 45.5163 7.3403C46.7463 7.8503 47.5563 9.3903 47.2763 10.6903C46.9563 12.2203 45.7163 13.3003 44.2763 14.5503C42.5763 16.0403 40.6463 17.7203 40.2463 20.4703C39.4663 25.8603 41.6163 31.6303 43.5563 35.5303V35.5403Z"
            fill="#76B6E7" />
        <path d="M63.0664 19.8606C51.3364 18.2806 37.8564 15.9706 26.1264 14.3906L61.9364 24.9906"
            fill="#FC9649" />
        <path
            d="M61.9267 26.4902C62.5767 26.4902 63.1667 26.0702 63.3667 25.4202C63.5967 24.6302 63.1467 23.7902 62.3567 23.5602L47.0567 19.0302C52.4067 19.8502 57.8367 20.6802 62.8667 21.3602C63.6767 21.4702 64.4467 20.9002 64.5567 20.0702C64.6667 19.2502 64.0967 18.4902 63.2667 18.3802C57.4167 17.5902 51.0167 16.6002 44.8267 15.6502C38.6167 14.6902 32.2067 13.7002 26.3267 12.9102C25.5567 12.8002 24.8267 13.3202 24.6567 14.0802C24.4967 14.8502 24.9467 15.6102 25.6967 15.8302L61.5067 26.4302C61.6467 26.4702 61.7967 26.4902 61.9367 26.4902H61.9267Z"
            fill="#FC9649" />
        <path
            d="M25.4162 59.6106C25.0262 57.4206 24.0662 55.3306 22.6662 53.6106C21.4562 52.1306 19.9162 50.8906 19.0162 49.2106C17.8662 47.0806 17.9562 44.2806 19.3862 42.3306C20.8162 40.3806 23.5962 39.4606 25.8462 40.3506C28.0962 41.2406 29.1862 43.7606 28.4562 46.0706C28.7162 43.6606 30.7762 41.5506 33.1962 41.6406C35.6162 41.7306 37.7862 43.6806 38.3162 46.0506C38.8462 48.4106 37.7962 51.0106 35.8862 52.5006C34.3862 53.6806 32.4762 54.1906 30.7762 55.0606C28.7962 56.0806 27.0762 57.6006 25.8462 59.4506"
            fill="#FC90B9" />
        <path
            d="M25.4063 61.1107C25.4963 61.1107 25.5862 61.1107 25.6762 61.0907C25.8362 61.0607 25.9962 61.0107 26.1362 60.9307C26.5162 60.8607 26.8663 60.6407 27.0963 60.2907C28.1963 58.6507 29.7063 57.3007 31.4663 56.4007C32.0063 56.1207 32.5862 55.8807 33.1962 55.6207C34.4162 55.1007 35.6863 54.5707 36.8163 53.6807C39.2263 51.7907 40.4262 48.5907 39.7762 45.7207C39.0962 42.6507 36.2863 40.2507 33.2463 40.1407C31.8162 40.0807 30.4362 40.6107 29.3362 41.5107C28.6862 40.3807 27.6662 39.4507 26.3862 38.9507C23.5562 37.8307 20.0262 38.9107 18.1662 41.4407C16.4262 43.8107 16.2363 47.2207 17.6863 49.9207C18.3663 51.1907 19.3162 52.1907 20.2262 53.1507C20.6762 53.6307 21.1063 54.0807 21.4963 54.5507C22.7463 56.0807 23.5863 57.9207 23.9363 59.8707C24.0663 60.6007 24.6963 61.1107 25.4063 61.1107ZM33.0362 43.1407C33.0362 43.1407 33.0963 43.1407 33.1263 43.1407C34.8163 43.2007 36.4462 44.6307 36.8362 46.3807C37.2262 48.1207 36.4462 50.1507 34.9462 51.3207C34.1262 51.9607 33.0962 52.4007 32.0062 52.8607C31.3762 53.1307 30.7163 53.4007 30.0763 53.7307C28.6063 54.4907 27.2662 55.4907 26.1362 56.6807C25.5762 55.2307 24.7962 53.8707 23.8062 52.6607C23.3462 52.1007 22.8662 51.5807 22.3862 51.0907C21.5763 50.2307 20.8062 49.4207 20.3062 48.5007C19.4062 46.8307 19.5163 44.6507 20.5663 43.2207C21.6263 41.7707 23.6963 41.1307 25.2663 41.7507C26.4963 42.2407 27.2362 43.5107 27.1462 44.8507C27.0462 45.1907 26.9763 45.5507 26.9363 45.9207C26.8563 46.6907 27.3662 47.3907 28.1162 47.5507C28.8662 47.7107 29.6263 47.2707 29.8563 46.5307C29.9663 46.1707 30.0463 45.8207 30.0963 45.4607C30.5563 44.1407 31.7563 43.1507 33.0163 43.1507L33.0362 43.1407Z"
            fill="#FC90B9" />
        <path
            d="M136.206 56.3213C117.866 48.5613 100.726 37.9813 85.5561 25.0813C81.7561 21.8413 77.8561 18.3413 72.9861 17.2313C68.1161 16.1213 62.0461 18.4813 61.0361 23.3613C60.4261 26.3413 61.8561 29.4613 64.0361 31.5813C66.2161 33.7013 69.0561 35.0113 71.8661 36.1613C82.0361 40.3313 93.4261 43.5913 100.106 52.3213C104.806 58.4613 106.376 66.3713 109.766 73.3213C115.946 86.0113 127.406 95.8413 140.206 101.791C160.976 111.441 193.756 106.081 202.086 95.3813C199.256 96.7413 195.826 96.7913 192.966 95.5213C198.006 95.7913 203.116 93.6813 206.496 89.9313C200.896 90.8313 195.066 90.2213 189.766 88.1913C193.056 88.7813 196.626 87.1613 198.346 84.3013C185.626 84.1413 173.046 78.8613 164.016 69.9013"
            fill="#EDE7E7" />
        <path
            d="M165.786 108.291C181.976 108.291 197.716 103.451 203.276 96.3109C203.696 95.7709 203.696 95.0109 203.276 94.4709C204.886 93.5309 206.356 92.3509 207.616 90.9509C208.046 90.4809 208.126 89.7909 207.826 89.2309C207.526 88.6709 206.896 88.3609 206.266 88.4609C202.936 89.0009 199.546 88.9809 196.246 88.4209C197.626 87.6109 198.806 86.4709 199.646 85.0809C199.926 84.6209 199.936 84.0509 199.666 83.5809C199.406 83.1109 198.916 82.8209 198.376 82.8109C186.006 82.6509 173.866 77.5609 165.086 68.8509C164.496 68.2709 163.546 68.2709 162.966 68.8509C162.386 69.4409 162.386 70.3909 162.966 70.9709C171.506 79.4509 183.026 84.6909 194.996 85.6509C193.546 86.6009 191.736 87.0309 190.036 86.7209C189.276 86.5809 188.536 87.0509 188.326 87.7909C188.116 88.5409 188.506 89.3209 189.236 89.5909C193.246 91.1309 197.516 91.8809 201.786 91.8309C199.156 93.3709 196.076 94.1709 193.056 94.0109C192.326 93.9709 191.686 94.4509 191.516 95.1609C191.346 95.8609 191.706 96.5909 192.366 96.8809C193.826 97.5309 195.416 97.8809 197.006 97.9309C185.256 105.701 158.126 108.451 140.856 100.421C127.356 94.1409 116.796 84.2809 111.136 72.6509C109.936 70.1809 108.936 67.5209 107.976 64.9409C106.236 60.2909 104.446 55.4809 101.316 51.4009C95.4463 43.7209 86.2463 40.1509 77.3463 36.7009C75.6964 36.0609 74.0563 35.4209 72.4463 34.7609C69.9563 33.7409 67.1363 32.4909 65.0863 30.4909C63.4763 28.9209 61.9563 26.3109 62.5063 23.6409C62.8963 21.7609 64.2063 20.5709 65.2363 19.9109C67.3163 18.5709 70.1663 18.0909 72.6563 18.6609C76.9063 19.6309 80.5063 22.7109 83.9863 25.6809L84.5863 26.1909C99.9163 39.2409 117.086 49.8309 135.626 57.6709C136.386 57.9909 137.266 57.6409 137.596 56.8709C137.916 56.1109 137.566 55.2309 136.796 54.9009C118.536 47.1709 101.626 36.7409 86.5363 23.9009L85.9363 23.3909C82.1863 20.1809 78.2963 16.8709 73.3263 15.7309C70.0763 14.9809 66.3563 15.6209 63.6163 17.3809C61.4463 18.7709 60.0463 20.7309 59.5763 23.0309C58.9163 26.2509 60.2263 29.9309 62.9963 32.6309C65.4263 35.0009 68.5663 36.4009 71.3063 37.5209C72.9363 38.1909 74.5863 38.8309 76.2563 39.4809C84.7663 42.7809 93.5663 46.2009 98.9263 53.2109C101.776 56.9409 103.416 61.3309 105.156 65.9809C106.146 68.6209 107.166 71.3609 108.426 73.9509C114.386 86.2009 125.456 96.5609 139.576 103.121C147.266 106.701 156.596 108.251 165.786 108.261V108.291Z"
            fill="white" />
        <path
            d="M127.396 57.8705C144.126 55.7805 160.066 47.8005 171.766 35.6605C173.916 33.4305 175.956 31.0405 178.576 29.3905C181.196 27.7505 184.586 26.9505 187.406 28.2105C189.826 29.2905 191.526 32.0705 190.916 34.6605C190.306 37.2405 187.096 39.0005 184.756 37.7505C188.176 39.3905 189.776 44.0005 188.116 47.4005C186.456 50.8105 181.836 52.3805 178.446 50.7005C180.316 53.3405 180.046 57.2905 177.826 59.6505C175.606 62.0105 171.686 62.5205 168.926 60.8105C168.836 64.5605 166.736 68.2105 163.526 70.1605C160.316 72.1105 156.106 72.3005 152.736 70.6405"
            fill="#EDE7E7" />
        <path
            d="M157.666 73.2709C159.996 73.2709 162.326 72.6609 164.316 71.4609C167.326 69.6309 169.496 66.4509 170.196 63.0009C173.236 63.8609 176.746 63.0109 178.926 60.6909C180.856 58.6409 181.576 55.6109 180.996 52.8709C182.136 52.9209 183.306 52.7709 184.436 52.3809C186.686 51.6109 188.526 50.0409 189.486 48.0609C190.446 46.0809 190.556 43.6609 189.776 41.4209C189.496 40.6309 189.126 39.8909 188.666 39.2209C188.746 39.1909 188.816 39.1609 188.896 39.1209C190.676 38.3209 191.986 36.7809 192.396 35.0009C193.136 31.8509 191.226 28.2609 188.036 26.8409C185.036 25.5009 181.206 25.9809 177.796 28.1209C175.456 29.5909 173.576 31.5809 171.766 33.5009C171.416 33.8709 171.056 34.2509 170.706 34.6209C159.166 46.6009 143.726 54.3309 127.226 56.3809C126.406 56.4809 125.816 57.2309 125.926 58.0509C126.026 58.8709 126.786 59.4609 127.596 59.3509C144.776 57.2109 160.856 49.1609 172.866 36.6909C173.226 36.3109 173.586 35.9309 173.946 35.5509C175.706 33.6809 177.376 31.9209 179.396 30.6509C181.956 29.0409 184.736 28.6409 186.816 29.5709C188.696 30.4109 189.896 32.5409 189.476 34.3109C189.276 35.1709 188.576 35.9609 187.656 36.3809C186.926 36.7109 186.186 36.7409 185.596 36.4809C185.536 36.4509 185.486 36.4209 185.426 36.4009C184.686 36.0509 183.806 36.3509 183.436 37.0809C183.066 37.8109 183.346 38.7009 184.066 39.0809C184.136 39.1209 184.206 39.1509 184.276 39.1809C185.476 39.8109 186.446 40.9809 186.946 42.4109C187.466 43.9009 187.406 45.4809 186.796 46.7509C186.176 48.0209 184.966 49.0409 183.476 49.5509C181.986 50.0609 180.406 49.9909 179.136 49.3709C178.516 49.0709 177.776 49.2209 177.326 49.7409C176.876 50.2609 176.846 51.0209 177.246 51.5809C178.706 53.6409 178.486 56.8009 176.756 58.6409C175.026 60.4709 171.886 60.8909 169.746 59.5609C169.286 59.2809 168.716 59.2609 168.246 59.5109C167.776 59.7709 167.476 60.2609 167.456 60.8009C167.386 64.0409 165.546 67.2209 162.776 68.9009C160.006 70.5809 156.336 70.7509 153.426 69.3209C152.686 68.9609 151.786 69.2609 151.416 70.0109C151.056 70.7509 151.356 71.6509 152.106 72.0209C153.826 72.8709 155.756 73.2909 157.686 73.2909L157.666 73.2709Z"
            fill="#EDE7E7" />
        <path
            d="M73.397 29.9703C73.397 29.9703 73.447 29.9703 73.477 29.9703C74.307 29.9303 74.937 29.2203 74.897 28.3903C74.867 27.8003 74.897 27.1703 74.917 26.5103C74.937 25.9703 74.957 25.4203 74.957 24.8903C74.927 22.9103 73.667 20.8403 71.617 20.8203H71.587C69.707 20.8203 68.447 22.5603 68.177 24.2903C68.097 24.7803 68.037 25.2303 67.977 25.6903C67.907 26.2303 67.827 26.7803 67.727 27.4403C67.597 28.2603 68.157 29.0303 68.967 29.1603C69.787 29.2903 70.557 28.7303 70.687 27.9203C70.797 27.2403 70.877 26.6703 70.947 26.1103C71.007 25.6603 71.067 25.2303 71.137 24.7603C71.217 24.2503 71.487 23.8703 71.607 23.8203C71.687 23.8903 71.937 24.3703 71.947 24.9303C71.947 25.4103 71.937 25.9003 71.917 26.3903C71.887 27.0903 71.857 27.8203 71.897 28.5503C71.937 29.3503 72.607 29.9703 73.397 29.9703Z"
            fill="#435975" />
        <path
            d="M140.427 117.2C140.787 117.2 141.157 117.07 141.447 116.8C142.057 116.24 142.097 115.29 141.537 114.68C136.927 109.68 133.777 103.4 132.417 96.5103C132.257 95.7003 131.467 95.1703 130.657 95.3303C129.847 95.4903 129.317 96.2803 129.477 97.0903C130.947 104.52 134.347 111.31 139.337 116.71C139.637 117.03 140.037 117.19 140.437 117.19L140.427 117.2Z"
            fill="#435975" />
        <path
            d="M148.806 121.07C147.956 121.16 147.116 120.85 146.316 120.55C147.086 121.49 147.886 122.47 148.146 123.65C148.416 124.83 147.966 126.27 146.836 126.73C145.736 127.18 144.446 126.51 143.796 125.52C143.146 124.53 142.976 123.31 142.816 122.14C142.596 123.13 142.216 124.11 141.506 124.83C140.796 125.55 139.716 125.96 138.746 125.69C134.046 124.38 138.086 116.29 141.356 115.41C143.346 114.87 145.476 115.85 147.246 116.67C148.616 117.3 153.086 120.62 148.796 121.07H148.806Z"
            fill="#FC9649" />
        <path
            d="M146.106 128.38C146.536 128.38 146.986 128.3 147.416 128.12C149.366 127.33 150.006 125.06 149.616 123.32C149.556 123.04 149.466 122.77 149.366 122.51C151.366 122.19 151.956 121.18 152.086 120.36C152.526 117.67 147.916 115.32 147.866 115.3C145.896 114.4 143.466 113.28 140.966 113.96C138.076 114.74 135.116 119.15 135.106 122.69C135.106 124.94 136.276 126.56 138.346 127.13C139.696 127.5 141.246 127.09 142.376 126.07C142.426 126.16 142.486 126.26 142.546 126.35C143.296 127.48 144.646 128.38 146.096 128.38H146.106ZM146.326 119.05C145.856 119.05 145.396 119.27 145.106 119.68C144.706 120.23 144.736 120.98 145.166 121.51C145.826 122.31 146.496 123.13 146.696 123.99C146.826 124.55 146.626 125.22 146.286 125.35C145.966 125.48 145.366 125.17 145.056 124.7C144.586 123.99 144.446 122.95 144.316 121.96C144.226 121.24 143.626 120.69 142.896 120.65C142.176 120.62 141.526 121.12 141.366 121.83C141.176 122.7 140.866 123.36 140.446 123.78C140.066 124.16 139.536 124.36 139.156 124.25C138.616 124.1 138.106 123.81 138.116 122.71C138.116 120.41 140.296 117.26 141.756 116.86C143.216 116.46 145.016 117.29 146.606 118.02C147.216 118.3 148.166 119.01 148.726 119.57C148.706 119.57 148.676 119.57 148.656 119.57C148.136 119.62 147.486 119.38 146.856 119.14C146.686 119.07 146.506 119.04 146.326 119.04V119.05Z"
            fill="#FC9649" />
        <path
            d="M157.666 73.2702C159.996 73.2702 162.326 72.6602 164.316 71.4602C165.026 71.0302 165.246 70.1102 164.816 69.4002C164.386 68.6902 163.466 68.4702 162.756 68.9002C159.986 70.5802 156.316 70.7502 153.406 69.3202C152.666 68.9602 151.766 69.2602 151.396 70.0102C151.036 70.7502 151.336 71.6502 152.086 72.0202C153.806 72.8702 155.736 73.2902 157.666 73.2902V73.2702Z"
            fill="#435975" />
        <path
            d="M50.3765 45.801C50.6065 46.401 50.8165 47.011 50.9965 47.621C53.5265 56.111 50.8265 65.931 44.3165 71.931C37.8065 77.931 27.7965 79.821 19.5465 76.611C14.9065 74.801 10.7965 71.421 8.58648 66.951C7.54648 64.841 6.94648 62.561 6.61648 60.221C32.4965 71.141 44.8965 56.921 50.3765 45.791V45.801Z"
            fill="#63A7DB" />
        <path
            d="M27.9863 79.6707C34.3163 79.6707 40.6563 77.3507 45.3363 73.0407C52.2863 66.6407 55.1363 56.2507 52.4363 47.2007C52.2563 46.6107 52.0463 45.9707 51.7763 45.2707C51.5663 44.7107 51.0463 44.3307 50.4463 44.3007C49.8663 44.2707 49.2963 44.6007 49.0263 45.1407C43.1863 56.9907 31.1963 68.9807 7.18629 58.8507C6.68629 58.6407 6.11629 58.7107 5.68629 59.0407C5.25629 59.3707 5.03629 59.9007 5.11629 60.4407C5.49629 63.1807 6.18629 65.5307 7.22629 67.6307C9.49629 72.2107 13.7763 75.9907 18.9863 78.0207C21.8563 79.1407 24.9063 79.6807 27.9663 79.6807L27.9863 79.6707ZM49.9763 49.6807C51.5863 57.2507 49.0163 65.5707 43.3063 70.8307C37.1863 76.4807 27.8563 78.2407 20.0963 75.2207C15.5763 73.4607 11.8663 70.2107 9.93629 66.2907C9.3863 65.1707 8.94629 63.9607 8.60629 62.6307C14.2963 64.7507 19.3363 65.6407 23.7763 65.6407C37.4463 65.6407 45.5163 57.1707 49.9863 49.6707L49.9763 49.6807Z"
            fill="#63A7DB" />
        <path
            d="M140.216 101.791C127.416 95.8408 115.956 86.0108 109.776 73.3208C106.436 66.4708 104.856 58.6908 100.306 52.5908C111.746 58.5708 112.976 67.5208 136.726 85.9508C158.316 102.701 187.376 99.5008 200.826 96.7708C190.876 106.521 160.056 111.021 140.206 101.801L140.216 101.791Z"
            fill="#F5F7FF" />
        <path
            d="M165.937 108.34C180.897 108.34 195.407 104.18 201.877 97.8304C202.347 97.3704 202.467 96.6404 202.157 96.0604C201.847 95.4704 201.177 95.1604 200.537 95.2904C185.937 98.2504 158.357 100.82 137.657 84.7604C125.337 75.2004 119.267 68.3704 114.387 62.8804C109.927 57.8604 106.707 54.2404 101.017 51.2604C100.397 50.9404 99.6366 51.0804 99.1766 51.6204C98.7266 52.1504 98.6966 52.9304 99.1166 53.4904C101.857 57.1704 103.467 61.4704 105.167 66.0204C106.157 68.6604 107.177 71.3904 108.437 73.9804C114.397 86.2304 125.467 96.5904 139.587 103.15C147.367 106.76 156.737 108.34 165.947 108.34H165.937ZM194.517 99.3804C181.727 106.09 157.077 107.98 140.847 100.43C127.347 94.1504 116.787 84.2904 111.127 72.6604C109.927 70.2004 108.927 67.5304 107.967 64.9604C107.027 62.4604 106.077 59.9104 104.917 57.4604C107.387 59.5304 109.547 61.9504 112.137 64.8704C116.837 70.1604 123.277 77.4104 135.807 87.1304C154.617 101.72 178.627 101.65 194.517 99.3804Z"
            fill="#F5F7FF" />
        <path
            d="M163.185 124.51C163.695 124.51 164.195 124.25 164.475 123.78C164.905 123.07 164.665 122.15 163.955 121.72C154.315 115.94 147.485 105.42 146.135 94.2703C146.035 93.4503 145.285 92.8603 144.465 92.9603C143.645 93.0603 143.055 93.8103 143.155 94.6303C144.615 106.69 151.995 118.05 162.415 124.29C162.655 124.43 162.925 124.5 163.185 124.5V124.51Z"
            fill="#435975" />
        <path
            d="M172.746 125.81C171.956 126.14 171.066 126.08 170.216 126.01C171.226 126.69 172.266 127.41 172.856 128.47C173.446 129.53 173.426 131.04 172.476 131.79C171.546 132.53 170.116 132.25 169.216 131.49C168.306 130.73 167.806 129.61 167.326 128.52C167.396 129.53 167.306 130.58 166.826 131.47C166.346 132.36 165.436 133.06 164.426 133.08C159.546 133.15 161.136 124.25 164.026 122.48C165.786 121.4 168.106 121.74 170.026 122.02C171.526 122.24 176.746 124.16 172.756 125.8L172.746 125.81Z"
            fill="#FC9649" />
        <path
            d="M164.345 134.581C164.345 134.581 164.395 134.581 164.425 134.581C165.825 134.561 167.195 133.721 167.995 132.421C168.075 132.491 168.155 132.571 168.235 132.641C169.585 133.771 171.785 134.251 173.395 132.971C175.045 131.661 175.015 129.301 174.155 127.741C174.015 127.491 173.855 127.251 173.685 127.031C175.515 126.161 175.795 125.021 175.695 124.201C175.365 121.501 170.275 120.551 170.225 120.541C168.085 120.231 165.435 119.841 163.225 121.201C160.675 122.761 159.075 127.821 160.065 131.231C160.685 133.361 162.245 134.581 164.345 134.581ZM167.315 127.021C167.195 127.021 167.075 127.031 166.955 127.061C166.245 127.241 165.765 127.901 165.825 128.621C165.885 129.511 165.775 130.231 165.495 130.751C165.245 131.221 164.785 131.561 164.395 131.561C163.825 131.571 163.265 131.431 162.955 130.381C162.315 128.171 163.505 124.531 164.795 123.741C166.085 122.951 168.045 123.231 169.775 123.481C170.435 123.581 171.555 123.981 172.245 124.371C172.225 124.371 172.205 124.391 172.175 124.401C171.695 124.601 171.005 124.541 170.325 124.491C169.645 124.441 169.015 124.851 168.795 125.491C168.575 126.131 168.805 126.841 169.375 127.231C170.225 127.811 171.115 128.411 171.545 129.181C171.825 129.681 171.825 130.381 171.545 130.601C171.275 130.821 170.605 130.681 170.185 130.321C169.525 129.771 169.105 128.821 168.705 127.901C168.465 127.351 167.915 127.001 167.335 127.001L167.315 127.021Z"
            fill="#FC9649" />
    </g>
    <defs>
        <filter id="filter0_d_2397_49432" x="0.775391" y="0.480469" width="211.221" height="142.1"
            filterUnits="userSpaceOnUse" color-interpolation-filters="sRGB">
            <feFlood flood-opacity="0" result="BackgroundImageFix" />
            <feColorMatrix in="SourceAlpha" type="matrix"
                values="0 0 0 0 0 0 0 0 0 0 0 0 0 0 0 0 0 0 127 0" result="hardAlpha" />
            <feOffset dy="4" />
            <feGaussianBlur stdDeviation="2" />
            <feComposite in2="hardAlpha" operator="out" />
            <feColorMatrix type="matrix" values="0 0 0 0 0 0 0 0 0 0 0 0 0 0 0 0 0 0 0.25 0" />
            <feBlend mode="normal" in2="BackgroundImageFix"
                result="effect1_dropShadow_2397_49432" />
            <feBlend mode="normal" in="SourceGraphic" in2="effect1_dropShadow_2397_49432"
                result="shape" />
        </filter>
        <clipPath id="clip0_2397_49432">
            <rect width="203.22" height="134.1" fill="white"
                transform="matrix(-1 0 0 1 207.996 0.480469)" />
        </clipPath>
    </defs>
</svg>
