<svg width="253" height="193" viewBox="0 0 253 193" fill="none" xmlns="http://www.w3.org/2000/svg">
    <g clip-path="url(#clip0_2397_45747)">
        <path
            d="M242.2 78.8866C240.322 81.6703 236.511 82.3984 233.727 80.5201C230.943 78.5807 230.215 74.7692 232.093 71.9855C234.033 69.2018 237.844 68.4738 240.628 70.4132C243.412 72.2914 244.14 76.1029 242.2 78.8866Z"
            fill="#FDB359" />
        <path
            d="M249.713 60.6238C249.713 62.8141 247.908 64.6189 245.675 64.6189C243.442 64.6189 241.68 62.8141 241.68 60.6238C241.68 58.4336 243.485 56.5859 245.675 56.5859C247.865 56.5859 249.713 58.3908 249.713 60.6238Z"
            fill="#8C7BF9" />
        <path
            d="M252.484 75.4476C252.484 76.6284 251.524 77.5583 250.374 77.5583C249.224 77.5583 248.232 76.6284 248.232 75.4476C248.232 74.2669 249.193 73.3369 250.374 73.3369C251.555 73.3369 252.484 74.2669 252.484 75.4476Z"
            fill="#46A5FF" />
        <path
            d="M45.9698 152.414C44.0916 155.198 40.28 155.926 37.4963 154.047C34.7127 152.108 33.9846 148.297 35.8628 145.513C37.8022 142.729 41.6138 142.001 44.3975 143.941C47.1812 145.819 47.9092 149.63 45.9698 152.414Z"
            fill="#FDB359" />
        <path
            d="M53.4841 134.147C53.4841 136.338 51.6793 138.142 49.4462 138.142C47.2132 138.142 45.4512 136.338 45.4512 134.147C45.4512 131.957 47.256 130.109 49.4462 130.109C51.6365 130.109 53.4841 131.914 53.4841 134.147Z"
            fill="#8C7BF9" />
        <path
            d="M56.2481 148.975C56.2481 150.156 55.2876 151.086 54.1374 151.086C52.9872 151.086 51.9961 150.156 51.9961 148.975C51.9961 147.794 52.9566 146.864 54.1374 146.864C55.3182 146.864 56.2481 147.794 56.2481 148.975Z"
            fill="#46A5FF" />
        <path
            d="M74.8852 30.1072C73.2701 34.1206 68.6571 36.06 64.6437 34.4448C60.6119 32.7502 58.6725 28.1433 60.2877 24.1238C61.9823 20.092 66.5892 18.1526 70.621 19.8473C74.6344 21.4624 76.5738 26.0754 74.8852 30.1072Z"
            fill="#7DE470" />
        <path
            d="M79.4424 5.0665C80.0298 7.82573 78.2433 10.5911 75.429 11.1906C72.6698 11.778 69.9045 9.9915 69.3171 7.22616C68.7176 4.41188 70.504 1.65265 73.2694 1.0592C76.0836 0.459639 78.8429 2.2461 79.4486 5.06038L79.4424 5.0665Z"
            fill="#8C7BF9" />
        <path
            d="M86.9186 23.003C87.2367 24.4897 86.2701 25.9274 84.8201 26.2333C83.3334 26.5515 81.8651 25.6338 81.5469 24.1471C81.2288 22.6604 82.1955 21.2227 83.6821 20.9045C85.1321 20.5925 86.5943 21.5102 86.9124 23.003H86.9186Z"
            fill="#46A5FF" />
        <path
            d="M51.5681 35.9523L51.5926 36.1419C51.5314 38.1058 45.0891 40.9018 36.842 42.4618C28.5949 44.0158 21.5776 43.765 20.8067 41.954L20.7578 41.7705C20.3784 39.776 26.9737 36.87 35.4838 35.2609C43.994 33.6519 51.1949 33.9578 51.5681 35.9523Z"
            fill="#FDB359" />
        <path
            d="M51.5933 36.1372C52.5966 43.5156 60.0178 97.9842 59.9811 97.6906V97.7028C61.5412 109.664 61.7247 108.935 61.3393 109.504C58.9716 113.359 38.6781 116.406 38.0847 113.285C38.0296 113.059 37.0446 109.021 37.1058 109.272C36.2126 105.577 34.1202 96.9197 34.2548 97.4703C34.1998 97.244 31.0551 84.2738 31.2509 85.0752C31.1958 84.8489 28.0879 71.9827 28.2775 72.7841C28.2225 72.5578 25.1329 59.814 25.3286 60.6154C25.2736 60.389 22.2207 47.7615 22.4165 48.5629C22.3614 48.3366 20.7034 41.5089 20.8074 41.9371C21.5783 43.748 28.6018 43.9989 36.8427 42.4449C39.241 41.9922 42.5876 41.203 44.8757 40.3464C48.9258 38.9699 51.5504 37.3792 51.5933 36.125V36.1372Z"
            fill="#46A5FF" />
        <path
            d="M25.6529 30.7342C30.5045 35.7204 36.9162 34.4173 40.4646 29.1191C48.2223 17.5499 43.2055 6.06028 30.8288 0.547949C28.1674 -0.638946 27.3782 0.168632 25.8426 2.11416C18.5805 11.2973 17.6873 22.5544 25.6468 30.7342H25.6529Z"
            fill="#FDB359" />
        <path
            d="M28.4854 31.8099C31.6117 35.028 35.7413 34.1837 38.0356 30.7698C43.034 23.312 39.8037 15.9092 31.8258 12.3546C30.1128 11.5898 29.605 12.1099 28.6138 13.3641C23.9336 19.2802 23.3585 26.5423 28.4854 31.8099Z"
            fill="#FF4945" />
        <path
            d="M35.9559 39.1658C34.3958 37.2386 33.7167 35.342 33.937 33.5311C34.0287 32.8031 35.1177 32.9438 35.026 33.6657C34.8424 35.1891 35.4236 36.7614 36.8063 38.4745C37.2652 39.0434 36.4086 39.7287 35.9498 39.1658H35.9559Z"
            fill="black" />
        <path
            d="M52.7739 44.8316L52.9085 45.7493C50.1064 43.7671 47.0841 42.0663 43.9395 40.6897C44.2637 40.5857 44.5757 40.4695 44.8755 40.3594C47.6347 41.6136 50.29 43.1064 52.7739 44.8316Z"
            fill="#0E4896" />
        <path
            d="M54.5245 57.6966C54.5551 57.9169 54.6958 58.8774 54.6652 58.6572C45.4943 51.7805 33.8517 48.0424 22.4233 48.5808V48.5686L22.252 47.9078C33.6498 47.3388 45.2679 50.9668 54.5245 57.7027V57.6966Z"
            fill="#0E4896" />
        <path
            d="M56.3047 70.6555L56.4332 71.6161C47.6783 64.6599 36.4946 60.6465 25.3354 60.6281L25.1641 59.9551C36.2927 59.9368 47.4765 63.8401 56.3047 70.6555Z"
            fill="#0E4896" />
        <path
            d="M58.0593 83.624C58.0899 83.8442 58.2428 84.8598 58.2061 84.6335C49.8795 77.5977 39.1485 73.3396 28.2768 72.789L28.1055 72.0977C38.9282 72.5932 49.647 76.7351 58.0593 83.6179V83.624Z"
            fill="#0E4896" />
        <path
            d="M59.8465 96.682L59.9811 97.6976C52.0888 90.6068 41.7983 86.1162 31.2509 85.0883L31.0918 84.3848C41.6209 85.3759 51.8747 89.7625 59.8465 96.6881V96.682Z"
            fill="#0E4896" />
        <path
            d="M61.3397 109.51C61.2357 109.682 61.0828 109.847 60.8809 110.024C53.5515 103.356 44.0931 98.914 34.2553 97.4702L34.084 96.7666C44.1359 98.1799 53.8268 102.677 61.3397 109.504V109.51Z"
            fill="#0E4896" />
        <path
            d="M50.4856 113.777C50.094 113.851 49.7147 113.924 49.3476 113.979C45.5116 112.15 41.4431 110.81 37.2829 109.99L37.1055 109.274C41.7307 110.149 46.2641 111.679 50.4856 113.777Z"
            fill="#0E4896" />
        <path
            d="M25.0173 46.2019C24.6441 46.6057 24.7542 47.2359 24.8827 47.7681C28.5229 62.8307 28.3149 62.3657 28.7798 62.9591C29.1041 63.3691 29.6731 63.6321 30.1564 63.4425C28.3088 52.2343 28.1986 52.2954 28.529 51.3655C28.8227 50.5273 29.6058 49.9461 30.4195 49.5852C31.3005 49.1875 36.5558 47.3154 34.1086 45.6819C33.4234 45.223 31.8694 45.5901 31.1108 45.6268C26.1063 45.8654 25.4883 45.6941 25.0173 46.208V46.2019Z"
            fill="white" />
        <path
            d="M15.173 120.361C11.9549 119.988 9.471 118.807 7.70901 116.825C6.5833 114.983 5.31075 110.278 3.89137 102.704C2.73507 95.3382 0.893547 91.0433 0.000316447 73.0441C-0.0547457 70.6092 0.428577 68.7799 1.4564 67.5624C4.33187 64.4483 6.93203 62.6129 9.23852 62.0807C15.1485 60.7286 19.3883 66.0023 20.3549 72.157C21.499 79.4497 17.8466 86.6751 18.1035 88.3147C18.1953 88.9143 19.1191 89.3425 20.875 89.6117C28.7122 92.683 30.4741 102.631 28.8406 110.034C27.0786 117.559 22.8756 121.542 15.1669 120.367L15.173 120.361ZM15.5951 114.261C20.2265 113.79 20.9178 108.363 21.2054 103.763C21.2971 101.903 21.2665 98.9784 20.4528 97.296C19.1497 94.6101 13.0072 97.2776 11.6674 99.8778C11.1473 101.579 12.7135 109.532 12.7319 110.792C12.995 112.487 13.2886 113.509 13.6129 113.876C13.9372 114.237 14.5918 114.371 15.5951 114.267V114.261ZM10.0828 88.8103C13.0684 84.595 13.9677 71.8878 13.8087 70.8967C13.6863 70.1014 13.2152 69.7894 12.3954 69.9607C9.4037 70.5847 7.81914 72.261 7.62336 74.9897C8.02103 78.3056 9.12228 85.3903 10.0828 88.8103Z"
            fill="#FDB359" />
        <path
            d="M83.6332 108.736C83.1377 108.558 81.3451 109.715 79.4608 105.683C76.1693 98.9776 71.4645 77.2831 70.9445 70.3025C70.5835 65.3224 69.8616 65.4998 68.1853 69.8803C67.4756 71.5444 66.3743 71.3792 65.2119 70.0455C64.0556 68.8402 63.352 67.3903 63.0828 65.6956C62.8259 64.0621 62.7525 63.4074 63.4866 61.725C64.9182 58.4335 70.0268 53.9001 76.83 52.3644C89.6228 49.4767 96.5178 60.9113 93.7647 72.56C92.4126 78.4149 91.1706 80.128 87.7874 84.6614C87.4325 85.2549 87.2796 85.7137 87.3346 86.038C87.5855 87.6531 91.3419 88.7544 92.9449 88.8278C94.6212 88.8829 95.8815 89.4518 96.7197 90.5408C98.7692 93.2144 99.2464 96.7751 95.7224 97.1728C91.4949 97.6438 84.2512 92.1743 83.829 92.2294C83.7189 92.2416 83.7434 92.7372 83.8963 93.7161C84.7284 99.0143 87.8608 103.279 86.5882 106.668C86.0131 107.91 85.0343 108.595 83.6455 108.717L83.6332 108.736ZM87.4203 64.0254C87.0899 62.6488 86.0254 61.7311 84.2389 61.2661C82.8195 60.8991 79.3017 60.2322 78.3595 61.3334C78.1515 61.5782 78.1821 62.5448 78.4452 64.2395C79.5464 71.2691 80.3356 75.4171 80.8067 76.6713C82.5198 79.8527 87.8241 68.8158 87.4264 64.0192L87.4203 64.0254Z"
            fill="#FDB359" />
        <path
            d="M112.811 97.3936L111.868 97.4792C110.425 97.6077 109.213 97.1305 108.222 96.0354C106.717 93.8696 103.15 66.8464 102.184 62.7167C101.67 60.5142 99.9811 45.8126 99.6323 45.2375C96.6467 45.8188 94.3464 47.9356 92.2846 48.3271C89.556 48.8472 88.1611 46.1063 87.7267 43.3226C87.4881 41.787 87.953 40.5878 89.1277 39.7191C89.9842 39.0522 92.3152 37.9326 96.1818 36.3297C100.844 34.0599 115.949 26.804 121.186 26.7979C124.068 26.8101 126.472 31.6861 125.108 34.1333C124.367 35.4671 115.98 38.1284 115.368 38.3487C111.942 39.04 109.99 40.233 109.47 41.9277C109.085 44.173 111.96 56.8924 112.456 59.101C113.025 62.7473 116.53 90.156 116.494 89.9357C117.228 94.6283 115.992 97.1183 112.811 97.4058V97.3936Z"
            fill="#FDB359" />
        <path
            d="M161.472 100.117C160.86 100.044 158.768 101.029 156.394 98.2082C154.62 96.1831 153.354 92.7448 152.589 87.8871C152.509 87.6607 152.619 79.5666 146.379 80.0927C143.932 80.4109 141.479 82.1362 141.944 85.0667C142.616 89.3554 146.471 93.1302 140.922 95.9812L140.175 96.0546C134.951 96.5747 132.314 86.6757 131.072 84.981C130.894 84.7424 130.301 84.6445 129.298 84.6935C128.3 84.7485 127.401 84.4488 126.612 83.8003C125.217 82.7908 124.391 81.4448 124.128 79.7685C123.565 76.1833 126.954 76.0426 127.67 75.3329C127.854 75.1555 127.854 74.5131 127.682 73.4119C127.034 69.2761 121.595 47.0249 122.898 42.2528C123.522 39.9647 125.29 39.3223 127.64 39.4814C130.686 39.7322 132.485 41.5126 132.999 44.8163C134.039 51.4604 135.868 58.6063 137.061 65.177C138.254 71.7355 137.263 73.1182 146.196 71.7906C150.986 71.0809 150.656 66.6148 150.454 55.2169C150.184 48.5605 150.331 43.0788 150.906 38.7778C151.732 34.1648 154.137 32.8127 157.967 33.7121C160.499 34.3851 161.956 35.884 162.316 38.1966C162.439 38.9981 162.408 42.418 162.212 48.4381C160.359 87.1346 164.543 86.4065 166.006 95.7426C166.189 96.9234 165.938 97.8717 165.253 98.5691C164.28 99.4563 163.014 99.9641 161.46 100.099L161.472 100.117Z"
            fill="#FDB359" />
        <path
            d="M97.0443 191.917C94.5176 192.315 92.4191 192.186 90.7489 191.526C88.3078 190.816 87.7572 188.852 87.7388 186.325C87.6776 181.168 84.3984 175.215 81.9145 164.539C81.0274 160.514 78.0479 145.622 76.3777 134.683C75.3131 127.745 75.2458 123.09 76.1758 120.716C77.0201 119.003 78.5679 117.957 80.8194 117.583C83.5235 117.131 85.6893 117.694 87.3167 119.272C89.9046 121.627 89.2438 122.967 89.8924 123.426L90.547 123.181L94.0404 119.682C100.899 113.325 114.248 114.751 120.862 129.146C122.679 133.123 123.909 137.192 124.551 141.358C127.353 159.663 122.532 174.175 110.131 184.851C105.469 188.919 101.101 191.275 97.0382 191.917H97.0443ZM103.346 177.742C109.8 171.434 111.899 158.121 109.623 137.816C109.115 134.512 106.992 125.31 103.75 125.849C102.661 126.026 101.572 127.091 100.477 129.03C97.2707 134.751 95.8819 141.737 96.3163 149.997C97.3808 160.348 100.379 177.467 100.348 177.246C100.997 179.216 101.945 178.953 103.346 177.742Z"
            fill="#8C7BF9" />
        <path
            d="M175.752 182.72C174.455 181.619 172.975 178.45 171.329 173.2C167.799 162.28 168.747 161.307 167.328 155.366C166.318 151.169 162.776 152.387 159.007 154.467C156.658 155.684 154.81 156.822 153.47 157.875C151.035 159.759 150.099 163.118 150.65 167.963C150.564 169.872 155.067 179.551 145.076 181.129C139.87 181.955 136.738 178.872 135.667 171.891C134.003 155.525 135.104 140.426 138.977 126.575C142.996 112.406 149.396 104.575 158.2 103.1C168.404 101.393 175.244 109.695 178.713 128.019C180.206 135.911 181.644 144.372 183.026 153.409C186.752 177.746 188.441 178.462 186.544 181.025C183.718 184.353 178.144 184.745 175.758 182.72H175.752ZM150.528 147.872C151.335 147.743 162.66 142.659 163.889 141.228C164.446 140.573 164.281 137.337 163.388 131.512L161.62 120.879C157.062 100.561 148.949 141.264 149.806 146.875C149.916 147.603 150.154 147.933 150.521 147.878L150.528 147.872Z"
            fill="#8C7BF9" />
        <path
            d="M214.717 163.365C218.859 161.517 219.93 162.955 223.025 163.456C223.588 159.051 223.454 154.09 222.609 148.59L222.475 146.779C222.279 145.494 221.765 144.919 220.927 145.053C217.782 145.561 209.413 151.159 200.523 143.279C194.24 137.553 190.08 128.027 188.037 114.684C186.623 105.458 188.043 100.49 192.301 99.774C196.541 99.0643 200.884 100.912 201.533 105.127C202.035 108.407 201.667 114.066 204.47 121.536C207.889 130.829 210.734 135.43 213.01 135.344C213.965 134.72 214.742 132.016 215.341 127.219C216.234 120.588 216.626 115.687 216.528 112.506C217.115 106.681 216.846 95.9625 220.327 92.4079C221.612 91.2333 226.647 90.4441 229.939 92.3529C231.107 93.0993 231.805 94.2128 232.031 95.6811C232.172 96.5988 232.478 101.12 232.955 109.232C234.191 131.649 243.845 159.045 234.417 168.547C225.002 178.17 204.922 168.736 214.729 163.359L214.717 163.365Z"
            fill="#8C7BF9" />
        <path
            d="M93.7655 184.936C87.7637 166.019 84.4539 146.368 83.9338 126.521C83.9155 125.787 85.0167 125.775 85.0351 126.49C85.549 146.227 88.8405 165.78 94.8116 184.599C95.0319 185.291 93.9857 185.627 93.7655 184.93V184.936Z"
            fill="white" />
        <path
            d="M100.848 182.837C107.382 180.677 112.778 174.162 115.642 164.972C118.713 155.11 118.829 144.214 115.966 134.284C112.167 121.137 103.198 119.809 96.6024 126.031C93.8004 128.674 91.9589 132.223 90.3254 135.349C89.995 135.998 89.0161 135.484 89.3526 134.841C91.0228 131.635 92.9133 128.001 95.8499 125.236C103.014 118.469 112.98 119.993 117.024 133.979C119.949 144.11 119.826 155.233 116.694 165.297C113.721 174.835 108.074 181.607 101.197 183.883C100.506 184.116 100.157 183.069 100.848 182.837Z"
            fill="white" />
        <path
            d="M180.078 176.378C180.017 175.998 174.009 137.993 169.182 119.437C167.671 113.631 165.199 110.321 161.822 109.593C156.42 108.431 152.743 113.46 150.314 118.379C141.694 135.815 139.583 156.604 144.52 175.417C144.704 176.115 143.639 176.408 143.456 175.699C138.451 156.635 140.592 135.564 149.329 117.896C152.039 112.414 156.101 107.25 162.054 108.517C165.866 109.336 168.625 112.915 170.246 119.156C175.086 137.767 181.106 175.821 181.167 176.2C181.277 176.922 180.194 177.087 180.078 176.371V176.378Z"
            fill="white" />
        <path
            d="M146.607 156.798C146.068 156.798 145.848 156.095 146.301 155.789C153.141 151.225 160.562 147.603 168.368 145.021C169.048 144.783 169.415 145.835 168.717 146.067C154.682 150.711 147.304 156.798 146.613 156.798H146.607Z"
            fill="white" />
        <path
            d="M203.369 137.982C195.593 131.417 192.962 113.846 192.883 103.629C192.883 103.323 193.121 103.078 193.427 103.072C193.727 103.072 193.978 103.317 193.978 103.617C194.057 113.497 196.621 130.842 204.079 137.137C206.599 139.26 210.815 141.23 215.091 140.374C218.713 139.652 221.68 137.082 223.926 132.732C224.256 132.084 225.235 132.592 224.904 133.234C222.5 137.896 219.276 140.655 215.311 141.451C211.09 142.289 206.538 140.649 203.375 137.976L203.369 137.982Z"
            fill="white" />
        <path
            d="M220.94 167.744C220.383 167.279 221.087 166.435 221.643 166.9C223.723 168.638 227.211 167.457 228.789 165.193C230.294 163.027 230.937 160.023 230.582 156.744C228.306 135.466 224.286 96.2431 224.243 95.8454C224.17 95.1174 225.265 95.0195 225.339 95.7353C225.381 96.1268 229.401 135.356 231.677 156.628C232.252 162.036 230.221 168.056 224.855 168.778C223.448 168.968 222.035 168.656 220.94 167.744Z"
            fill="white" />
        <path
            d="M82.618 82.0302C85.2304 78.9284 87.9285 75.7287 89.4213 71.911C94.8051 58.1271 78.9595 49.5436 66.9682 63.1439C66.4848 63.6884 65.665 62.9604 66.1422 62.4159C78.9717 47.8672 96.2796 57.3746 90.443 72.3087C88.889 76.2915 86.1298 79.5708 83.4562 82.7399C82.9851 83.2966 82.147 82.5869 82.6119 82.0302H82.618Z"
            fill="white" />
        <path
            d="M81.2344 104.441C77.3311 91.722 74.5352 78.5744 72.9384 65.3595C72.8527 64.6376 73.9417 64.503 74.0274 65.2249C75.6181 78.3786 78.3957 91.459 82.2806 104.117C82.4947 104.815 81.4424 105.133 81.2283 104.441H81.2344Z"
            fill="white" />
        <path
            d="M95.1588 94.4088C91.4207 93.0812 87.9823 91.1235 84.9417 88.5784C84.3849 88.1134 85.0885 87.2691 85.6453 87.7341C88.588 90.1935 91.9162 92.0901 95.5259 93.3688C96.2111 93.6135 95.844 94.6474 95.1588 94.4088Z"
            fill="white" />
        <path
            d="M91.5627 42.3917C101.26 37.6992 111.397 33.6919 121.688 30.4799C122.391 30.2658 122.703 31.3119 122.018 31.5322C111.777 34.7258 101.694 38.7147 92.0399 43.3828C91.3853 43.7009 90.9081 42.7098 91.5627 42.3917Z"
            fill="white" />
        <path
            d="M111.355 91.9483C108.412 75.6805 106.112 59.0885 104.527 42.6371C104.454 41.903 105.555 41.8296 105.622 42.5331C107.207 58.9539 109.501 75.5154 112.438 91.7526C112.566 92.4684 111.483 92.6641 111.355 91.9483Z"
            fill="white" />
        <path
            d="M136.921 90.8138C130.858 75.9409 127.402 59.4284 126.918 43.0688C126.9 42.3102 128.001 42.3652 128.019 43.0382C128.497 59.2693 131.929 75.6472 137.943 90.4039C138.218 91.0768 137.196 91.4929 136.927 90.8199L136.921 90.8138Z"
            fill="white" />
        <path
            d="M160.499 97.3571C154.546 78.2261 153.231 57.6757 156.694 37.9451C156.816 37.2232 157.899 37.4251 157.776 38.1348C154.344 57.7002 155.647 78.067 161.551 97.0329C161.765 97.7303 160.719 98.0546 160.499 97.3571Z"
            fill="white" />
        <path
            d="M138.138 77.6251C141.925 75.3125 146.74 74.6211 151.023 75.7836C151.72 75.9732 151.445 77.0316 150.735 76.842C146.74 75.7652 142.243 76.4015 138.713 78.5611C138.095 78.9405 137.52 78.0044 138.138 77.6251Z"
            fill="white" />
        <path
            d="M9.33525 114.137C5.27901 100.708 3.02146 86.7954 2.61156 72.7791C2.5932 72.0327 3.68833 72.0571 3.7128 72.7485C4.11659 86.6669 6.3619 100.488 10.3876 113.825C10.5956 114.516 9.54939 114.84 9.33525 114.143V114.137Z"
            fill="white" />
        <path
            d="M12.1263 92.3373C19.3149 82.6525 17.7548 69.8414 14.188 67.0638C11.6919 65.1183 7.49492 65.7913 4.93759 69.6334C4.53992 70.2391 3.6161 69.6334 4.01988 69.0216C6.93206 64.6472 11.8509 63.8457 14.861 66.195C16.366 67.3697 17.3143 69.2357 17.8405 72.0622C19.1864 79.2754 17.3755 87.1003 13.0011 92.9919C12.579 93.567 11.6796 92.9308 12.1201 92.3373H12.1263Z"
            fill="white" />
        <path
            d="M15.1362 116.898C14.4449 116.66 14.8181 115.619 15.4972 115.858C17.9261 116.708 20.569 115.491 22.0985 113.913C25.2983 110.609 27.2315 102.117 24.5947 97.1798C23.1447 94.4573 19.6085 92.2548 16.4333 93.4539C15.748 93.7109 15.3626 92.683 16.0417 92.4261C19.7798 91.0067 23.8911 93.5273 25.5675 96.6598C28.4246 102.007 26.4179 111.037 22.8878 114.677C20.8321 116.8 17.7242 117.804 15.1362 116.898Z"
            fill="white" />
        <path
            d="M30.32 30.3504C26.429 27.1446 25.9089 21.3508 29.1637 17.5026C29.6348 16.952 30.473 17.6617 30.0019 18.2123C27.1387 21.5956 27.5975 26.6858 31.0175 29.5062C31.5864 29.9772 30.8706 30.8093 30.32 30.3566V30.3504Z"
            fill="white" />
    </g>
    <defs>
        <clipPath id="clip0_2397_45747">
            <rect width="252.484" height="192.142" fill="white" />
        </clipPath>
    </defs>
</svg>
