<svg width="1865" height="1836" viewBox="0 0 1865 1836" fill="none" xmlns="http://www.w3.org/2000/svg">
<path d="M1463.09 622.954C1412.56 622.954 1370.33 663.851 1370.33 715.71C1370.33 664.458 1328.83 622.954 1277.58 622.954C1328.83 622.954 1370.33 581.532 1370.33 530.199C1370.33 582.139 1412.65 622.954 1463.09 622.954Z" fill="#70E48F"/>
<path d="M1864.89 924.599C1837.02 924.599 1813.72 947.171 1813.72 975.77C1813.72 947.494 1790.83 924.599 1762.55 924.599C1790.83 924.599 1813.72 901.744 1813.72 873.428C1813.72 902.067 1837.06 924.599 1864.89 924.599Z" fill="#FF9045"/>
<path d="M1549.77 96.5189C1537.72 96.5189 1526.76 101.414 1518.83 109.342C1510.86 117.271 1505.97 128.233 1505.97 140.328C1505.97 116.138 1486.35 96.5189 1462.16 96.5189C1474.25 96.5189 1485.25 91.6243 1493.14 83.6958C1501.07 75.7673 1505.97 64.805 1505.97 52.71C1505.97 64.805 1510.86 75.8078 1518.83 83.6958C1526.76 91.6243 1537.72 96.5189 1549.77 96.5189Z" fill="#FF5E5F"/>
<path d="M185.51 1449.42C134.987 1449.42 92.7552 1490.31 92.7552 1542.17C92.7552 1490.92 51.252 1449.42 0 1449.42C51.252 1449.42 92.7552 1408 92.7552 1356.66C92.7552 1408.6 135.067 1449.42 185.51 1449.42Z" fill="#70E48F"/>
<path d="M424.456 682.5C385.906 682.5 353.707 713.688 353.707 753.249C353.707 714.173 322.033 682.5 282.957 682.5C322.074 682.5 353.707 650.907 353.707 611.75C353.707 651.352 385.987 682.5 424.456 682.5Z" fill="#FF9045"/>
<path d="M284.292 52.7083C269.81 52.7083 256.582 58.6142 247.076 68.1203C237.489 77.6264 231.583 90.854 231.583 105.417C231.583 76.2915 208 52.7083 178.875 52.7083C193.438 52.7083 206.665 46.8023 216.171 37.2963C225.677 27.7902 231.583 14.5625 231.583 0C231.583 14.5625 237.489 27.7902 247.076 37.2963C256.582 46.8023 269.81 52.7083 284.292 52.7083Z" fill="#BC7BF9"/>
<path d="M1791.76 1674.25C1753.21 1674.25 1721.01 1705.44 1721.01 1745C1721.01 1705.92 1689.33 1674.25 1650.26 1674.25C1689.37 1674.25 1721.01 1642.66 1721.01 1603.5C1721.01 1643.1 1753.29 1674.25 1791.76 1674.25Z" fill="#FF5E5F"/>
<path d="M1656.12 1333.89C1654.7 1339.63 1613.48 1538.7 1589.82 1652.97C1575.66 1721.29 1521.98 1775.13 1453.46 1788.16C1104.85 1854.42 755.063 1851.59 404.146 1781C333.842 1766.88 279.96 1709.93 268.472 1639.14C235.302 1434.33 237.689 1448.77 237.567 1448.08C253.101 1440.2 264.629 1413.98 267.056 1401.24C271.708 1375.8 275.956 1344.33 300.146 1335.63C319.522 1328.55 341.123 1342.71 352.207 1360.26C367.457 1384.37 369.399 1417.06 390.555 1438.98C390.555 1438.98 390.757 1439.18 390.757 1439.39C418.062 1467.99 454.306 1453.06 468.869 1420.94C490.389 1373.53 505.558 1317.59 546.576 1283.37C589.899 1247.04 668.173 1250.84 677.558 1318.07C683.585 1360.26 663.966 1408.56 703.002 1446.06V1446.26C735.687 1478.26 785.32 1475.79 815.012 1447.88C862.583 1403.55 844.784 1320.26 893.528 1274.06C906.796 1261.48 925.121 1254.16 943.203 1256.71C972.57 1260.83 987.092 1285.59 994.616 1313.46C1005.13 1352.7 1000.12 1418.64 1044.25 1439.83C1072.12 1452.94 1106.42 1437.81 1125.6 1413.98C1163.95 1365.97 1157.15 1291.33 1202.7 1249.06C1225.31 1228.27 1263.46 1221.19 1286.27 1241.78C1317.62 1269.85 1299.74 1322.89 1317.74 1360.87C1342.14 1412.08 1443.87 1434.98 1506.65 1315.44C1520.73 1288.46 1531.61 1257.8 1558.91 1241.21C1576.07 1230.78 1598.56 1229.69 1613.73 1242.83C1629.3 1256.34 1627.52 1276.49 1626.75 1298.09C1625.94 1327.38 1636.82 1337.65 1650.17 1335.43C1651.99 1335.22 1654.02 1334.62 1656.04 1333.81L1656.12 1333.89Z" fill="#FFF9C2"/>
<path d="M1347.11 914.488C1345.29 975.772 1342.42 1010.28 1340.44 1034.18C1280.29 1038.15 1176.69 1050.77 1092.59 1061.65C790.178 1096.8 778.164 1100 503.418 1149.27C499.615 1114.68 476.315 909.229 475.951 903.404L475.749 903.202C474.536 891.714 473.12 880.185 471.906 868.697C485.417 882.815 503.984 892.321 523.765 889.691C579.709 882.167 597.306 795.197 674.932 757.698C710.449 740.547 757.291 740.951 785.526 768.377C815.986 798.028 816.957 847.865 846.689 878.365C861.413 893.696 885.239 902.191 904.211 893.089C940.739 875.736 930.464 816.393 960.317 788.724C976.255 774.202 1001.29 772.382 1021.08 781.039C1040.86 789.938 1055.38 807.696 1064.28 827.477C1071.56 843.415 1075.36 860.971 1084.46 875.938C1093.77 890.864 1110.92 903.202 1128.07 899.359C1163.38 891.269 1163.79 828.326 1199.71 823.068C1220.5 820.034 1237.45 840.017 1245.14 859.393C1252.82 878.972 1256.42 901.18 1271.59 915.904C1291.57 935.28 1324.87 931.64 1347.07 914.488H1347.11Z" fill="#FFF9C2"/>
<path d="M1698.92 1236.2C1697.1 1257.8 1695.08 1279.6 1686.62 1299.59C1668.54 1341.78 1625.34 1354.36 1626.87 1298.17C1627.48 1281.71 1628.82 1263.63 1620.6 1250.72C1606.08 1228.11 1570.16 1230.74 1549.57 1248.09C1528.98 1265.45 1519.11 1291.9 1506.77 1315.53C1444.92 1433.24 1342.91 1413.54 1317.87 1360.95C1299.82 1322.97 1317.7 1269.98 1286.39 1241.86C1263.58 1221.27 1225.43 1228.35 1202.82 1249.14C1157.35 1291.34 1163.99 1366.09 1125.72 1414.06C1102.1 1443.39 1058.61 1456.94 1031.06 1430.81C1000.85 1403.51 1004.65 1350.6 994.74 1313.54C988.065 1288.91 975.97 1266.7 952.953 1259.05C925.891 1249.95 895.633 1267.15 879.695 1290.73C847.577 1338.66 858.094 1407.88 815.094 1447.96C785.484 1475.83 735.891 1478.5 703.084 1446.35V1446.14C654.502 1399.5 696.531 1334.74 667.77 1289.51C643.54 1250.56 581.77 1254 546.658 1283.45C479.064 1339.84 482.947 1455.24 422.311 1454.8C410.013 1454.6 399.294 1448.33 390.839 1439.47C390.839 1439.27 390.637 1439.06 390.637 1439.06C369.157 1416.86 367.742 1384.74 352.289 1360.35C341.205 1342.79 319.604 1328.67 300.228 1335.71C275.998 1344.41 271.75 1375.88 267.139 1401.32C262.77 1424.18 241.331 1460.34 219.285 1447.76C199.099 1436.68 195.054 1366.01 194.043 1345.42C192.425 1308.89 200.717 1270.54 224.301 1242.27C252.981 1208.17 298.974 1194.41 342.176 1183.33C395.451 1169.62 449.373 1159.1 503.456 1149.23C920.875 1074.39 848.467 1093.41 1111.6 1059.43C1254.68 1042.72 1406.62 1016.14 1554.26 1043.29C1617.81 1055.14 1678.85 1078.56 1695.76 1140.98C1704.26 1171.03 1701.83 1204.57 1699 1236.24L1698.92 1236.2Z" fill="#FF5E5F"/>
<path d="M1347.11 914.488C1324.91 931.639 1291.62 935.28 1271.63 915.903C1256.5 901.179 1252.86 878.971 1245.18 859.393C1237.49 840.016 1220.54 820.033 1199.75 823.067C1163.83 828.326 1163.42 891.309 1128.11 899.359C1110.96 903.202 1093.81 890.864 1084.5 875.937C1075.4 861.011 1071.6 843.455 1064.32 827.476C1055.42 807.696 1040.9 789.938 1021.12 781.038C1001.34 772.341 976.296 774.161 960.358 788.724C930.505 816.393 940.78 875.735 904.252 893.089C885.28 902.19 861.454 893.696 846.73 878.364C817.039 847.864 815.987 797.987 785.567 768.377C757.292 740.91 710.49 740.506 674.973 757.698C597.711 794.994 579.589 882.167 523.806 889.691C504.025 892.32 485.458 882.814 471.947 868.697C440.152 835.648 432.345 760.327 451.56 726.59C482.424 672.911 543.385 658.753 600.502 653.535C704.058 644.434 808.382 653.737 911.938 663.041C1016.91 672.345 1122.24 681.811 1225.8 701.389C1292.46 713.808 1337.12 731.445 1364.06 797.461C1380.49 837.832 1380.57 889.165 1347.11 914.528V914.488Z" fill="#FFDB43"/>
<path d="M1647.1 1088.19C1648.07 1104.05 1636.02 1117.72 1620.12 1118.69C1604.26 1119.66 1590.59 1107.6 1589.62 1091.71C1588.65 1075.85 1600.7 1062.18 1616.6 1061.21C1632.46 1060.24 1646.13 1072.29 1647.1 1088.19Z" fill="#FF5E5F"/>
<path d="M594.998 656.084C596.414 679.263 578.777 699.246 555.599 700.661C532.42 702.077 512.437 684.44 511.021 661.262C509.605 638.083 527.242 618.1 550.421 616.684C573.599 615.268 593.582 632.905 594.998 656.084Z" fill="#FF5E5F"/>
<path d="M740.26 1166.99C761.528 1166.99 778.77 1149.74 778.77 1128.48C778.77 1107.21 761.528 1089.97 740.26 1089.97C718.991 1089.97 701.75 1107.21 701.75 1128.48C701.75 1149.74 718.991 1166.99 740.26 1166.99Z" fill="#FF5E5F"/>
<path d="M1038.71 1170.38C1040.2 1195.02 1021.48 1216.22 996.881 1217.71C972.246 1219.21 951.049 1200.48 949.553 1175.89C948.056 1151.25 966.785 1130.05 991.379 1128.56C1016.01 1127.06 1037.21 1145.79 1038.71 1170.38Z" fill="#FF5E5F"/>
<path d="M891.344 722.585C892.841 747.22 874.112 768.417 849.517 769.914C824.883 771.41 803.686 752.681 802.189 728.087C800.693 703.452 819.422 682.255 844.016 680.759C868.611 679.262 889.848 697.991 891.344 722.585Z" fill="#FF5E5F"/>
<path d="M323.49 1237.45C325.31 1266.86 302.941 1292.15 273.532 1293.97C244.124 1295.79 218.842 1273.42 217.022 1244.01C215.201 1214.6 237.571 1189.32 266.979 1187.5C296.387 1185.68 321.67 1208.05 323.49 1237.45Z" fill="#FF5E5F"/>
<path d="M1254.03 1033.25C1255.08 1050.24 1242.14 1064.84 1225.15 1065.9C1208.16 1066.95 1193.4 1054 1192.34 1037.05C1191.29 1020.07 1204.36 1005.42 1221.35 1004.41C1238.34 1003.36 1252.94 1016.3 1253.99 1033.29L1254.03 1033.25Z" fill="#FF5E5F"/>
<path d="M1377.97 848.471V848.673C1378.99 864.085 1366.93 879.942 1349.09 880.954C1331.94 882.167 1317.22 869.263 1316.2 852.071C1314.26 819.306 1359.73 806.927 1373.93 835.324C1376.15 839.167 1377.57 843.617 1377.97 848.431V848.471Z" fill="#FF5E5F"/>
<path d="M1376.32 1171.27C1377.37 1188.26 1364.43 1202.87 1347.44 1203.92C1330.45 1204.97 1315.68 1192.02 1314.63 1175.08C1313.58 1158.09 1326.64 1143.44 1343.63 1142.43C1360.62 1141.38 1375.23 1154.32 1376.28 1171.31L1376.32 1171.27Z" fill="#FF5E5F"/>
<path d="M1109.91 678.776C1110.96 695.765 1098.02 710.368 1081.03 711.42C1064.04 712.472 1049.27 699.527 1048.22 682.578C1047.17 665.589 1060.23 650.945 1077.22 649.934C1094.21 648.882 1108.82 661.827 1109.87 678.816L1109.91 678.776Z" fill="#FF5E5F"/>
<path d="M552.967 1231.18C553.736 1243.72 544.19 1254.48 531.69 1255.25C519.15 1256.02 508.269 1246.48 507.5 1233.98C506.731 1221.44 516.359 1210.64 528.899 1209.87C541.439 1209.1 552.199 1218.64 552.967 1231.14V1231.18Z" fill="#FF5E5F"/>
<path d="M1449.58 1029.82C1450.35 1042.36 1440.8 1053.12 1428.3 1053.88C1415.76 1054.65 1404.88 1045.11 1404.11 1032.61C1403.34 1020.07 1412.97 1009.27 1425.51 1008.5C1438.05 1007.73 1448.81 1017.28 1449.58 1029.78V1029.82Z" fill="#FF5E5F"/>
<path d="M1276.85 719.067C1277.61 731.607 1268.07 742.367 1255.57 743.136C1243.03 743.905 1232.15 734.358 1231.38 721.858C1230.61 709.318 1240.24 698.518 1252.78 697.749C1265.32 696.981 1276.08 706.527 1276.85 719.027V719.067Z" fill="#FF5E5F"/>
<path d="M518.017 860.65C518.017 860.65 517.855 860.65 517.775 860.65C484.078 858.345 459.403 827.359 464.702 793.986C465.471 789.213 472.671 790.346 471.903 795.119C467.291 824.285 488.811 851.347 518.3 853.41C522.952 853.733 522.71 860.691 518.058 860.691L518.017 860.65Z" fill="white"/>
<path d="M848.791 825.454C849.034 820.276 856.275 821.247 856.073 825.818C854.778 852.637 878.685 873.915 905.019 869.789C909.752 869.02 910.925 876.22 906.152 876.989C875.044 881.843 847.254 856.925 848.791 825.454Z" fill="white"/>
<path d="M391.367 1417.14C381.295 1403.31 378.746 1385.99 376.481 1370.7C375.753 1365.93 382.994 1364.92 383.681 1369.65C385.825 1384.09 388.293 1400.47 397.273 1412.89C405.283 1423.94 421.665 1431.7 434.084 1424.95C438.331 1422.68 441.81 1429.03 437.563 1431.34C421.746 1439.91 401.682 1431.34 391.408 1417.14H391.367Z" fill="white"/>
<path d="M706.886 1373.25C707.25 1368.39 714.531 1369 714.167 1373.81C712.832 1391.57 721.934 1410.1 736.82 1419.89C751.706 1429.68 772.336 1430.69 788.112 1422.4C792.36 1420.13 795.757 1426.6 791.51 1428.83C751.463 1449.9 703.488 1418.43 706.886 1373.25Z" fill="white"/>
<path d="M1072.2 1411.11C1048.22 1403.67 1039.28 1378.51 1032.48 1356.14C1031.07 1351.53 1038.06 1349.42 1039.44 1354.04C1042.59 1364.39 1045.87 1375.11 1051.41 1384.42C1066.26 1409.21 1090.77 1410.26 1100.84 1397.12C1103.8 1393.27 1109.54 1397.72 1106.63 1401.57C1101.17 1408.69 1085.43 1415.2 1072.2 1411.11Z" fill="white"/>
<path d="M1364.63 1367.95C1344.93 1359.78 1330.81 1340.04 1329.43 1318.76C1329.15 1314.07 1336.39 1313.3 1336.72 1318.32C1337.89 1336.88 1350.23 1354.11 1367.42 1361.23C1384.61 1368.35 1405.52 1364.87 1419.48 1352.58C1423.08 1349.38 1427.93 1354.84 1424.29 1358.04C1408.4 1372.03 1384.41 1376.16 1364.63 1367.95Z" fill="white"/>
<path d="M622.752 278.709C617.008 267.746 611.466 255.975 612.032 243.435C612.639 230.369 622.185 215.969 636.546 215.604H636.627C641.4 215.604 641.481 222.764 636.708 222.886C626.837 223.169 619.718 233.889 619.233 243.799C618.747 254.519 623.642 264.874 629.103 275.392C631.328 279.68 624.896 283.037 622.63 278.749L622.752 278.709Z" fill="white"/>
<path d="M1089.84 326.969C1083.01 316.249 1079.2 307.026 1077.91 298.005C1076.17 286.072 1079.12 274.705 1086 266.898C1099.27 251.891 1122.89 256.947 1119.17 264.471C1118.28 266.251 1116.06 266.979 1114.28 266.13C1107.2 262.61 1097.37 264.997 1091.46 271.712C1086.08 277.82 1083.7 287.286 1085.11 296.954C1088.02 316.896 1101.13 324.097 1094.86 328.101C1094.25 328.465 1090.94 328.708 1089.84 326.969Z" fill="white"/>
<path d="M1270.74 383.519C1284.9 373.487 1283 351.725 1267.26 344.362C1262.86 342.299 1266.05 335.706 1270.34 337.769C1291.05 347.477 1293.68 376.198 1274.95 389.466C1271.03 392.216 1266.82 386.311 1270.74 383.519Z" fill="white"/>
<path d="M790.099 339.629C802.517 330.649 801.546 311.596 788.278 303.87C784.112 301.443 787.793 295.132 791.919 297.56C809.758 307.875 811.093 333.359 794.346 345.495C792.728 346.668 786.175 342.42 790.058 339.589L790.099 339.629Z" fill="white"/>
<path d="M666.844 353.952C657.662 353.022 635.535 352.658 600.099 344.244C598.157 343.799 596.944 341.817 597.389 339.875C599.25 332.109 609.12 343.435 667.046 346.671C671.739 346.954 671.536 353.952 666.844 353.952Z" fill="white"/>
<path d="M1126.74 398.083C1106.71 393.229 1086.12 389.75 1065.57 387.809C1060.96 387.364 1061.24 380.366 1066.26 380.568C1087.17 382.55 1108.09 386.069 1128.47 391.004C1133.01 392.096 1131.63 399.175 1126.74 398.083Z" fill="white"/>
<path d="M991.585 403.33C988.093 420.073 943.008 635.511 943.32 633.99C936.886 664.705 937.835 664.157 934.987 665.447C923.433 670.726 883.678 664.983 883.936 658.153C883.985 657.011 884.038 671.785 880.834 392.52C896.697 412.589 975.826 416.401 991.615 403.338L991.585 403.33Z" fill="#46F5FF"/>
<path d="M991.665 402.676L991.549 403.351C989.385 409.99 964.644 413.115 934.967 410.232C905.298 407.32 881.598 399.494 880.798 392.541L880.817 391.873C881.524 384.682 906.87 381.335 937.515 384.316C968.16 387.298 992.365 395.516 991.695 402.684L991.665 402.676Z" fill="#FD6C59"/>
<path d="M908.492 359.118C919.699 380.281 942.521 383.477 960.623 368.37C998.58 336.637 992.895 292.472 956.191 261.332C948.298 254.629 944.813 256.615 937.638 261.719C914.926 277.869 901.924 299.091 900.213 321.284C899.257 333.831 901.927 346.738 908.492 359.118Z" fill="#FD6C59"/>
<path d="M923.014 373.181C942.524 388.74 970.082 359.771 967.167 335.086C965.651 322.424 957.251 310.547 947.829 302.6C942.73 298.282 940.49 299.575 935.865 302.827C921.203 313.241 912.824 326.91 911.748 341.221C910.688 355.118 917.072 368.412 923.014 373.181Z" fill="#FF4592"/>
<path d="M934.474 398.42C930.968 390.069 930.536 382.702 933.21 376.552C934.666 373.156 939.816 375.37 938.33 378.758C936.272 383.565 936.695 389.293 939.607 396.266C941.068 399.673 935.875 401.811 934.474 398.42Z" fill="black"/>
<path d="M890.944 411.205C888.339 412.785 889.075 412.79 886.561 466.597C886.485 468.438 886.385 470.368 887.078 472.094C887.77 473.82 889.46 475.299 891.304 475.12C896.166 435.064 895.72 435.169 897.768 432.317C899.616 429.732 902.853 428.546 905.988 428.102C909.387 427.633 929.178 426.455 922.464 418.464C920.592 416.229 914.929 415.931 912.278 415.285C894.975 411.13 893.018 409.932 890.914 411.197L890.944 411.205Z" fill="white"/>
<path d="M926.017 366.51C915.658 351.286 919.781 330.508 935.078 320.361C938.127 318.322 941.251 322.946 938.165 325.006C925.567 333.342 921.961 350.632 930.618 363.348C932.687 366.405 928.063 369.529 926.025 366.481L926.017 366.51Z" fill="white"/>
</svg>
