<svg width="820" height="594" viewBox="0 0 820 594" fill="none" xmlns="http://www.w3.org/2000/svg">
    <path
        d="M759.311 360.896C744.726 348.957 730.466 336.572 716.598 324.179C702.678 311.586 689.176 299.043 675.938 286.051C685.444 283.813 694.846 281.218 704.29 278.776C713.671 276.139 723.087 273.595 732.381 270.748C751.008 265.193 769.502 259.167 787.444 252.611C780.237 288.636 770.521 324.828 759.309 360.897L759.311 360.896Z"
        fill="#E6AC4B" />
    <path
        d="M622.242 394.278C595.886 367.19 570.902 339.422 547.338 310.949C586.056 305.692 624.593 298.72 662.647 289.803C656.691 307.286 650.325 324.678 643.612 342.188C636.851 359.469 629.76 377.003 622.244 394.277L622.242 394.278Z"
        fill="#EFC27A" />
    <path
        d="M470.466 412.635C458.937 397.64 447.781 382.393 437.032 367.248C431.658 359.722 426.375 351.959 421.194 344.215C416.012 336.477 410.934 328.736 405.955 320.998C444.884 320.477 483.86 318.02 522.65 313.518C514.725 330.09 506.424 346.723 497.741 363.366C489.036 379.759 479.945 396.186 470.465 412.633L470.466 412.635Z"
        fill="#E6AC4B" />
    <path
        d="M329.046 414.21L321.808 402.134L314.741 389.815C310.082 381.606 305.533 373.402 301.091 365.206C296.65 356.999 292.313 348.85 288.091 340.623C283.883 332.273 279.786 323.934 275.799 315.606C314.384 319.666 353.248 321.917 392.199 321.715C382.5 337.292 372.388 352.878 361.863 368.452C351.345 383.796 340.408 398.973 329.046 414.21Z"
        fill="#EFC27A" />
    <path
        d="M176.381 395.333C172.647 386.641 169.007 378.07 165.517 369.339C162.045 360.519 158.687 351.722 155.445 342.949C152.205 334.178 149.077 325.433 146.067 316.714L141.636 303.66C140.197 299.284 138.816 294.798 137.449 290.385C174.951 299.685 212.942 307.26 251.388 312.267C239.764 326.403 227.688 340.485 215.162 354.494C208.887 361.587 202.563 368.254 196.1 375.063C189.641 381.841 183.069 388.597 176.382 395.33L176.381 395.333Z"
        fill="#E6AC4B" />
    <path
        d="M38.5135 359.852C33.5088 341.436 29.0093 323.063 24.9533 304.922C22.9444 295.8 20.9805 286.908 19.2616 277.723C17.5499 268.523 15.9532 259.372 14.4706 250.267L27.8346 255.818C32.2943 257.655 36.8874 259.16 41.4056 260.85L68.6247 270.716C87.0843 276.395 105.349 282.694 124.125 287.353C97.1802 312.973 68.8637 336.446 38.5135 359.852Z"
        fill="#EFC27A" />
    <g style="mix-blend-mode:overlay" opacity="0.6">
        <path
            d="M759.311 360.896C744.726 348.957 730.466 336.572 716.598 324.179C702.678 311.586 689.176 299.043 675.938 286.051C685.444 283.813 694.846 281.218 704.29 278.776C713.671 276.139 723.087 273.595 732.381 270.748C751.008 265.193 769.502 259.167 787.444 252.611C780.237 288.636 770.521 324.828 759.309 360.897L759.311 360.896Z"
            fill="url(#paint0_linear_2397_50311)" />
        <path
            d="M622.242 394.278C595.886 367.19 570.902 339.422 547.338 310.949C586.056 305.692 624.593 298.72 662.647 289.803C656.691 307.286 650.325 324.678 643.612 342.188C636.851 359.469 629.76 377.003 622.244 394.277L622.242 394.278Z"
            fill="url(#paint1_linear_2397_50311)" />
        <path
            d="M470.466 412.635C458.937 397.64 447.781 382.393 437.032 367.248C431.658 359.722 426.375 351.959 421.194 344.215C416.012 336.477 410.934 328.736 405.955 320.998C444.884 320.477 483.86 318.02 522.65 313.518C514.725 330.09 506.424 346.723 497.741 363.366C489.036 379.759 479.945 396.186 470.465 412.633L470.466 412.635Z"
            fill="url(#paint2_linear_2397_50311)" />
        <path
            d="M329.046 414.21L321.808 402.134L314.741 389.815C310.082 381.606 305.533 373.402 301.091 365.206C296.65 356.999 292.313 348.85 288.091 340.623C283.883 332.273 279.786 323.934 275.799 315.606C314.384 319.666 353.248 321.917 392.199 321.715C382.5 337.292 372.388 352.878 361.863 368.452C351.345 383.796 340.408 398.973 329.046 414.21Z"
            fill="url(#paint3_linear_2397_50311)" />
        <path
            d="M176.381 395.333C172.647 386.641 169.007 378.07 165.517 369.339C162.045 360.519 158.687 351.722 155.445 342.949C152.205 334.178 149.077 325.433 146.067 316.714L141.636 303.66C140.197 299.284 138.816 294.798 137.449 290.385C174.951 299.685 212.942 307.26 251.388 312.267C239.764 326.403 227.688 340.485 215.162 354.494C208.887 361.587 202.563 368.254 196.1 375.063C189.641 381.841 183.069 388.597 176.382 395.33L176.381 395.333Z"
            fill="url(#paint4_linear_2397_50311)" />
        <path
            d="M38.5135 359.852C33.5088 341.436 29.0093 323.063 24.9533 304.922C22.9444 295.8 20.9805 286.908 19.2616 277.723C17.5499 268.523 15.9532 259.372 14.4706 250.267L27.8346 255.818C32.2943 257.655 36.8874 259.16 41.4056 260.85L68.6247 270.716C87.0843 276.395 105.349 282.694 124.125 287.353C97.1802 312.973 68.8637 336.446 38.5135 359.852Z"
            fill="url(#paint5_linear_2397_50311)" />
    </g>
    <path
        d="M776.178 257.99C783.572 255.287 787.569 253.651 787.837 253.538C788.349 253.323 788.592 252.735 788.378 252.22C788.164 251.707 787.596 251.532 787.061 251.676C785.154 252.477 593.979 330.701 334.644 319.293C332.765 319.172 143.192 306.267 14.8778 249.341C14.3685 249.117 13.7722 249.346 13.5494 249.853C13.3236 250.363 13.5516 250.957 14.0609 251.181C142.705 308.254 332.634 321.182 334.535 321.304C557.924 331.13 730.853 274.556 776.179 257.987L776.178 257.99Z"
        fill="white" />
    <defs>
        <linearGradient id="paint0_linear_2397_50311" x1="736.813" y1="409.522" x2="732.404"
            y2="288.779" gradientUnits="userSpaceOnUse">
            <stop />
            <stop offset="1" stop-color="#29275F" stop-opacity="0" />
        </linearGradient>
        <linearGradient id="paint1_linear_2397_50311" x1="609.148" y1="414.183" x2="604.737"
            y2="293.441" gradientUnits="userSpaceOnUse">
            <stop />
            <stop offset="1" stop-color="#29275F" stop-opacity="0" />
        </linearGradient>
        <linearGradient id="paint2_linear_2397_50311" x1="468.03" y1="419.328" x2="463.619"
            y2="298.586" gradientUnits="userSpaceOnUse">
            <stop />
            <stop offset="1" stop-color="#29275F" stop-opacity="0" />
        </linearGradient>
        <linearGradient id="paint3_linear_2397_50311" x1="337.85" y1="424.088" x2="333.438"
            y2="303.344" gradientUnits="userSpaceOnUse">
            <stop />
            <stop offset="1" stop-color="#29275F" stop-opacity="0" />
        </linearGradient>
        <linearGradient id="paint4_linear_2397_50311" x1="199.087" y1="429.171" x2="194.675"
            y2="308.427" gradientUnits="userSpaceOnUse">
            <stop />
            <stop offset="1" stop-color="#29275F" stop-opacity="0" />
        </linearGradient>
        <linearGradient id="paint5_linear_2397_50311" x1="75.3179" y1="433.687" x2="70.9086"
            y2="312.945" gradientUnits="userSpaceOnUse">
            <stop />
            <stop offset="1" stop-color="#29275F" stop-opacity="0" />
        </linearGradient>
    </defs>
</svg>
