<svg width="854" height="1247" viewBox="0 0 854 1247" fill="none" xmlns="http://www.w3.org/2000/svg">
<g clip-path="url(#clip0_4127_264)">
<path d="M173.938 446.292C176.604 444.856 177.287 942.567 177.493 1203.73C177.493 1247.07 234.716 1262.66 256.73 1225.33L665.29 561.559" fill="#EF8500"/>
<path d="M290.163 1132.88C293.239 1140.74 296.316 1148.47 299.324 1156.12L303.289 1149.7C300.623 1142.86 297.957 1136.02 295.29 1129.05C307.733 1119.82 320.518 1110.25 333.508 1100.61L342.669 1085.77C325.714 1098.49 309.032 1111 292.966 1123.03C283.326 1098.29 273.345 1072.65 263.09 1046.26C284.352 1030.47 306.298 1014.13 328.859 997.308C337.951 1020.42 346.839 1042.98 355.453 1064.92L359.624 1058.15C351.42 1037.03 343.011 1015.42 334.328 993.206C355.727 977.276 377.604 960.937 399.96 944.255C403.857 954.168 407.686 963.945 411.514 973.721L415.821 966.679C412.403 957.86 408.985 949.041 405.43 940.085C421.701 927.984 438.177 915.609 454.859 903.166L464.635 887.305C443.715 902.893 423.137 918.344 402.9 933.453C393.192 908.568 383.279 883.203 373.16 857.292C387.791 846.354 402.558 835.347 417.53 824.203C424.641 818.938 431.614 813.674 438.656 808.41C448.501 833.569 458.14 858.181 467.712 882.451L472.156 875.273C463.063 851.96 453.833 828.305 444.399 804.24C466.618 787.626 488.427 771.355 509.826 755.289C514.543 767.39 519.26 779.354 523.909 791.25L528.422 783.935C524.183 772.996 519.876 762.057 515.569 751.05C536.557 735.326 556.999 720.012 577.03 704.971L586.328 689.93C585.645 690.477 584.961 690.956 584.209 691.503C574.022 665.592 564.041 640.091 554.264 615.068C576.894 598.113 598.771 581.705 619.76 565.913C625.229 579.928 630.835 594.217 636.441 608.574L640.885 601.327C635.621 587.995 630.425 574.732 625.298 561.674C628.579 559.213 631.861 556.751 635.074 554.29L627.554 552.513C626.049 553.607 624.546 554.769 623.041 555.863C622.426 554.222 621.742 552.649 621.127 551.009L613.197 549.163C614.632 552.786 616 556.341 617.435 560.033C596.378 575.689 574.433 591.96 551.803 608.847C541.548 582.731 531.498 557.162 521.722 532.345C523.294 531.182 524.798 530.02 526.371 528.858L512.014 525.508C512.629 527.149 513.244 528.721 513.928 530.362C492.666 546.155 470.72 562.494 448.159 579.313C437.972 553.333 427.991 528.037 418.351 503.562L409.395 501.443C388.338 517.167 366.666 533.302 344.515 549.778C335.012 525.645 325.782 502.331 316.894 479.77L309.784 478.13C319.219 502.4 329.064 527.696 339.182 553.812C317.646 569.878 295.701 586.218 273.413 602.899C263.09 576.715 253.108 551.351 243.468 526.944C265.688 510.33 287.565 493.922 308.964 477.924L300.418 475.942C280.933 490.504 261.107 505.271 240.87 520.312C232.051 498.024 223.574 476.557 215.438 455.979L208.738 454.406C217.352 476.625 226.377 499.939 235.811 524.072C223.027 533.643 210.174 543.215 197.116 552.991C190.074 558.256 183.032 563.52 176.059 568.716C176.059 571.519 176.059 574.39 176.059 577.262C184.399 571.04 192.74 564.819 201.218 558.461C213.729 549.094 226.103 539.865 238.409 530.704C247.912 555.247 257.825 580.68 268.08 606.864C262.474 611.035 256.937 615.205 251.262 619.444C234.786 631.75 218.446 643.919 202.38 656.02C193.424 633.254 184.741 611.172 176.195 589.568C176.195 595.31 176.195 601.258 176.264 607.275C182.964 624.571 189.8 642.073 196.842 660.122C190.005 665.25 183.305 670.241 176.606 675.3C176.606 678.103 176.606 680.906 176.606 683.777C184.194 678.103 191.715 672.497 199.44 666.754C209.148 691.571 219.061 717.003 229.18 742.914C211.404 756.178 194.107 769.167 176.947 782.02C176.947 784.755 176.947 787.558 176.947 790.293C194.859 776.961 213.113 763.356 231.709 749.478C241.486 774.432 251.399 799.864 261.517 825.638C239.161 842.32 217.352 858.728 196.09 874.658C193.766 868.778 191.441 862.83 189.117 856.882C185.015 846.49 181.049 836.304 177.016 825.98C177.016 832.27 177.016 838.56 177.016 844.85C178.93 849.704 180.776 854.421 182.69 859.343C185.22 865.907 187.818 872.333 190.347 878.828C185.903 882.178 181.528 885.459 177.152 888.741C177.152 891.407 177.152 894.074 177.152 896.74C182.348 892.843 187.544 889.015 192.808 885.118C202.995 911.029 212.977 936.53 222.753 961.552C207.166 973.243 192.125 984.523 177.289 995.667C177.289 998.197 177.289 1000.79 177.289 1003.32C192.877 991.77 208.738 979.943 225.146 967.705C235.401 993.821 245.451 1019.39 255.227 1044.21C232.461 1061.3 210.516 1077.78 189.595 1093.57C185.562 1083.24 181.46 1072.78 177.358 1062.19C177.358 1068.2 177.358 1074.22 177.358 1080.17C179.614 1085.98 181.938 1091.86 184.194 1097.53C181.87 1099.24 179.682 1100.95 177.358 1102.66C177.358 1105.05 177.358 1107.45 177.358 1109.84C180.366 1107.58 183.305 1105.4 186.382 1103.14C196.842 1129.73 207.029 1155.51 216.737 1180.19C203.337 1190.31 190.347 1200.02 177.905 1209.45C178.178 1211.43 178.588 1213.28 179.067 1215.12C191.851 1205.69 205.115 1195.85 218.925 1185.59C226.445 1204.73 233.76 1223.12 240.802 1240.97C242.443 1240.01 244.015 1238.92 245.588 1237.75C238.614 1219.77 231.436 1201.18 223.915 1181.9C244.972 1166.31 267.055 1149.9 290.095 1132.74L290.163 1132.88ZM397.362 937.829C375.075 954.51 353.129 970.918 331.798 986.916C322.09 962.03 312.177 936.598 301.99 910.619C323.389 894.689 345.198 878.349 367.486 861.736C377.604 887.579 387.586 912.943 397.362 937.829ZM344.72 803.624C351.556 820.99 358.256 838.15 364.888 855.173C342.669 871.786 320.791 888.126 299.461 904.124C289.821 879.512 280.045 854.421 270.063 828.988C269.926 828.647 269.79 828.236 269.653 827.895C291.052 811.897 312.929 795.625 335.148 779.081C338.362 787.216 341.507 795.42 344.72 803.624ZM308.417 692.186C308.417 692.186 309.032 691.708 309.374 691.503C331.251 675.163 352.787 659.028 373.981 643.167C383.689 668.053 393.602 693.417 403.72 719.328C389.09 730.267 374.323 741.274 359.35 752.486C352.24 757.75 345.267 763.014 338.225 768.279C328.107 742.436 318.193 717.14 308.417 692.255V692.186ZM413.428 818.939C399.003 829.74 384.714 840.406 370.631 850.934C364.204 834.458 357.709 817.913 351.146 801.163C347.66 792.344 344.241 783.593 340.823 774.842C348.343 769.236 355.864 763.63 363.452 757.955C377.878 747.153 392.166 736.488 406.318 725.96C412.745 742.436 419.24 758.981 425.803 775.799C429.221 784.618 432.708 793.369 436.126 802.052C428.606 807.658 421.086 813.264 413.497 818.939H413.428ZM441.732 797.813C438.519 789.677 435.374 781.542 432.161 773.269C425.324 755.904 418.624 738.744 411.993 721.721C434.212 705.108 456.089 688.768 477.42 672.77C487.06 697.451 496.836 722.473 506.818 747.905C506.954 748.247 507.091 748.589 507.228 748.999C485.829 764.997 463.952 781.268 441.732 797.813ZM578.398 695.946C557.136 711.808 535.258 728.079 512.902 744.76C502.784 718.918 492.871 693.554 483.026 668.6C505.382 651.85 527.259 635.442 548.453 619.512C558.23 644.535 568.211 670.035 578.329 695.946H578.398ZM516.184 536.652C525.892 561.537 535.874 587.175 546.06 613.223C524.798 629.015 502.921 645.355 480.496 662.036C470.31 636.057 460.328 610.625 450.552 585.807C473.044 568.921 494.99 552.513 516.184 536.583V536.652ZM474.89 666.275C453.491 682.205 431.682 698.544 409.395 715.158C399.277 689.315 389.295 663.951 379.518 639.065C401.806 622.384 423.752 605.976 445.082 589.978C454.79 614.863 464.704 640.296 474.89 666.275ZM412.813 507.117C422.385 531.798 432.366 557.367 442.553 583.551C421.154 599.481 399.277 615.82 376.921 632.502C366.666 606.454 356.684 581.09 346.976 556.41C369.4 539.591 391.414 523.115 412.813 507.117ZM341.643 560.375C351.283 585.055 361.196 610.556 371.383 636.604C349.847 652.67 328.038 668.942 305.819 685.555C295.632 659.575 285.651 634.211 275.943 609.531C298.23 592.849 320.176 576.441 341.712 560.375H341.643ZM204.773 662.652C221.386 650.277 238.204 637.698 255.159 624.982C260.287 621.153 265.346 617.393 270.405 613.564C280.045 638.313 289.958 663.746 300.076 689.725C277.857 706.338 256.048 722.678 234.581 738.676C224.394 712.765 214.412 687.401 204.704 662.652H204.773ZM237.247 745.239C258.714 729.241 280.592 712.901 302.742 696.357C312.451 721.242 322.364 746.606 332.482 772.449C310.263 789.062 288.454 805.333 267.055 821.4C256.937 795.625 247.023 770.193 237.179 745.239H237.247ZM198.483 880.947C219.745 865.086 241.622 848.815 263.978 832.133C274.097 857.976 284.01 883.34 293.855 908.294C271.499 925.044 249.621 941.452 228.428 957.381C218.651 932.359 208.67 906.858 198.551 880.947H198.483ZM230.82 963.603C252.083 947.81 273.96 931.47 296.384 914.789C306.571 940.768 316.553 966.201 326.329 991.018C303.836 1007.9 281.891 1024.31 260.697 1040.24C250.989 1015.36 241.007 989.719 230.82 963.671V963.603ZM191.783 1099.24C212.84 1083.66 234.786 1067.32 257.62 1050.36C268.012 1076.68 278.062 1102.32 287.77 1126.93C264.799 1144.16 242.785 1160.77 221.796 1176.5C212.156 1151.68 202.106 1125.91 191.783 1099.24Z" fill="#FF9D00"/>
<path d="M852.885 624.313C858.012 579.943 831.144 535.299 791.902 522.857C847.962 406.018 859.516 273.249 788.346 166.665C737.208 90.0941 656.125 42.6475 568.889 21.5905C483.704 -6.50834 389.767 -9.03792 305.95 29.0424C189.247 82.0268 129.016 200.917 115.001 329.72C75.143 319.533 28.7219 343.325 9.64749 383.73C-9.42687 424.066 0.964897 476.709 33.1657 503.167C65.3665 529.557 115.958 526.959 147.954 497.219C138.246 543.914 164.704 594.505 206.202 608.589C247.769 622.741 298.976 598.607 319.076 555.399C314.359 602.025 345.397 647.9 387.443 657.403C428.19 671.486 478.781 648.993 499.36 606.879C493.617 654.189 524.382 701.704 567.18 711.617C609.909 721.531 659.065 692.543 675.473 647.763C686.958 689.945 728.525 718.864 769.819 713.395C811.113 707.926 847.689 668.683 852.816 624.381L852.885 624.313Z" fill="#3EE6ED"/>
</g>
<defs>
<clipPath id="clip0_4127_264">
<rect width="853.356" height="1245.85" fill="white" transform="translate(0.148438 0.464844)"/>
</clipPath>
</defs>
</svg>
