<svg width="465" height="1372" viewBox="0 0 465 1372" fill="none" xmlns="http://www.w3.org/2000/svg">
<path d="M464.544 482.926C464.544 482.926 464.544 483.862 464.544 484.049V1344.15C464.544 1359.13 452.374 1371.3 437.396 1371.3H27.3781C12.5874 1371.3 0.417969 1359.13 0.417969 1344.15V483.862C0.417969 483.862 0.417969 483.488 0.417969 482.739C0.417969 482.364 0.417969 481.615 0.417969 481.241C0.792415 407.85 44.7898 331.088 88.9744 255.45C115.747 210.142 124.172 147.048 126.606 103.8C126.981 99.6806 126.981 95.9361 127.168 92.3789H337.794C337.794 95.9361 338.168 99.6806 338.355 103.8C340.789 147.048 349.214 210.142 375.8 255.45C420.172 331.088 464.169 407.85 464.544 481.241C464.544 481.615 464.544 482.364 464.544 482.739V482.926Z" fill="#D5E5E6"/>
<path d="M355.393 0.816406H109.944C93.3999 0.816406 79.9883 14.228 79.9883 30.7721V74.0206C79.9883 90.5647 93.3999 103.976 109.944 103.976H355.393C371.937 103.976 385.349 90.5647 385.349 74.0206V30.7721C385.349 14.228 371.937 0.816406 355.393 0.816406Z" fill="#F19B2C"/>
<path d="M400.17 551.223H65.6021C49.0581 551.223 35.6465 564.634 35.6465 581.178V1290C35.6465 1306.55 49.0581 1319.96 65.6021 1319.96H400.17C416.714 1319.96 430.125 1306.55 430.125 1290V581.178C430.125 564.634 416.714 551.223 400.17 551.223Z" fill="#F19B2C"/>
<path d="M91.3689 910.761C95.3027 910.761 98.8842 911.26 102.113 912.258C105.343 913.198 107.985 914.607 110.04 916.485C113.739 919.832 116.322 923.502 117.79 927.494C119.316 931.428 120.08 936.477 120.08 942.642C120.08 943.934 119.904 945.108 119.551 946.165C119.258 947.222 118.759 948.572 118.054 950.216C117.173 952.036 116.645 953.475 116.469 954.532C115.295 956.587 113.357 958.554 110.656 960.432C108.014 962.311 105.137 963.838 102.025 965.012C98.9135 966.186 96.1834 966.773 93.8348 966.773C82.5032 966.773 74.4301 962.898 69.6156 955.148C68.2652 952.976 67.2083 950.715 66.4451 948.367C65.7405 946.018 65.3882 943.728 65.3882 941.497C65.3882 935.509 66.4451 930.312 68.5587 925.909C70.7311 921.447 73.7255 917.983 77.5419 915.517C79.8317 914.166 82.2096 913.051 84.6755 912.17C87.2002 911.231 89.4313 910.761 91.3689 910.761ZM74.5475 941.762C74.5475 944.932 75.2521 947.545 76.6612 949.6C78.129 951.655 80.3601 953.886 83.3545 956.293C85.8205 957.233 87.4938 957.849 88.3745 958.143C89.2552 958.377 90.2533 958.495 91.3689 958.495C97.2989 958.495 102.025 956.88 105.548 953.651C109.071 950.422 110.832 945.989 110.832 940.352C110.832 935.89 110.333 932.367 109.335 929.784C108.337 927.201 106.546 924.882 103.963 922.827C102.612 921.711 100.88 920.889 98.7667 920.361C96.7118 919.832 94.4807 919.568 92.0734 919.568C88.4332 919.568 85.292 920.654 82.6499 922.827C80.0078 924.94 77.9822 927.7 76.5731 931.105C75.2227 934.51 74.5475 938.063 74.5475 941.762ZM159.501 943.435C161.556 946.899 163.611 949.981 165.665 952.682C167.779 955.324 170.539 958.583 173.944 962.458C174.355 962.869 174.561 963.339 174.561 963.867C174.561 964.689 174.091 965.394 173.151 965.981C172.271 966.568 171.185 966.862 169.893 966.862C168.073 966.862 166.106 966.098 163.992 964.572C162.113 963.221 160.44 961.431 158.972 959.199C157.504 956.968 155.802 954.062 153.864 950.48C152.338 947.721 151.428 946.106 151.134 945.637C148.844 946.576 145.263 947.163 140.389 947.398C140.389 949.394 140.566 952.095 140.918 955.5C141.27 959.023 141.446 961.577 141.446 963.163C141.446 964.219 140.918 965.1 139.861 965.805C138.863 966.509 137.718 966.862 136.426 966.862C134.9 966.862 133.725 966.245 132.903 965.012C132.081 963.368 131.553 961.401 131.318 959.111C131.083 956.822 130.966 954.091 130.966 950.921C130.966 947.574 131.171 943.787 131.582 939.56C131.935 934.863 132.111 931.399 132.111 929.168C132.111 927.347 131.935 924.911 131.582 921.858C131.524 921.329 131.436 920.419 131.318 919.128C131.201 917.836 131.142 916.662 131.142 915.605C131.142 914.783 131.436 914.078 132.023 913.491C132.669 912.845 133.344 912.405 134.048 912.17C138.804 911.407 143.443 911.025 147.963 911.025C155.655 911.025 162.025 912.464 167.075 915.341C172.124 918.218 174.649 922.592 174.649 928.463C174.649 930.283 174.238 932.045 173.416 933.747C172.652 935.391 171.596 936.771 170.245 937.886C166.664 940.646 163.082 942.495 159.501 943.435ZM165.401 928.199C165.401 925.381 163.904 923.091 160.91 921.329C157.915 919.509 153.659 918.599 148.14 918.599C145.674 918.599 143.237 918.893 140.83 919.48L140.918 923.971C140.918 926.555 140.83 929.08 140.654 931.545C140.477 934.011 140.389 936.654 140.389 939.472C141.388 939.237 142.444 939.09 143.56 939.031C144.675 938.914 145.409 938.826 145.762 938.767C148.345 938.532 150.341 938.239 151.75 937.886C154.393 937.065 156.565 936.331 158.268 935.685C160.029 934.98 161.644 934.011 163.111 932.778C164.638 931.487 165.401 929.96 165.401 928.199ZM224.277 965.452C223.514 964.454 222.868 963.368 222.34 962.194C221.811 960.961 221.254 959.493 220.667 957.79C220.549 957.497 220.197 956.616 219.61 955.148C219.081 953.68 218.465 952.418 217.76 951.361C214.061 951.89 211.038 952.154 208.689 952.154C207.397 952.154 205.959 952.124 204.374 952.066C202.847 951.948 201.702 951.89 200.939 951.89C198.003 951.655 195.655 951.537 193.893 951.537C193.189 952.477 192.572 953.475 192.044 954.532C191.574 955.589 190.958 957.174 190.194 959.287C189.138 962.341 188.227 964.513 187.464 965.805C186.936 966.685 185.908 967.126 184.382 967.126C183.09 967.126 181.886 966.862 180.771 966.333C179.714 965.746 179.186 964.953 179.186 963.955C179.655 961.724 180.389 959.376 181.387 956.91C182.444 954.385 183.941 951.038 185.879 946.87L189.402 938.239C191.339 933.307 193.101 929.08 194.686 925.557C196.33 922.034 198.473 917.865 201.115 913.051C201.467 912.346 202.054 911.759 202.876 911.289C203.698 910.761 204.608 910.497 205.607 910.497C206.722 910.497 207.515 910.585 207.984 910.761C208.513 910.878 208.924 911.113 209.217 911.466C209.511 911.759 209.951 912.405 210.538 913.403C212.535 916.515 214.237 919.715 215.647 923.003C217.114 926.291 218.964 930.841 221.195 936.654L223.044 941.321C224.688 945.549 226.098 949.101 227.272 951.978C228.505 954.796 229.855 957.379 231.323 959.728C232.262 961.254 232.732 962.311 232.732 962.898C232.732 964.307 232.292 965.394 231.411 966.157C230.589 966.862 229.503 967.214 228.152 967.214C226.45 967.214 225.158 966.627 224.277 965.452ZM215.206 944.139C214.267 942.143 212.916 938.679 211.155 933.747C209.335 928.463 207.515 924.265 205.695 921.153C204.579 923.971 202.935 927.612 200.763 932.074C199.295 934.833 197.622 938.826 195.743 944.051C199.5 944.521 203.552 944.756 207.896 944.756C211.008 944.756 213.445 944.55 215.206 944.139ZM277.265 917.278C277.265 915.575 277.646 914.108 278.409 912.875C279.231 911.583 280.435 910.937 282.02 910.937C283.371 910.937 284.574 911.201 285.631 911.73C286.688 912.258 287.216 913.139 287.216 914.372C287.216 916.779 287.099 920.155 286.864 924.5C286.629 928.727 286.512 931.868 286.512 933.923C286.512 937.153 286.629 941.468 286.864 946.87C287.099 952.036 287.216 955.823 287.216 958.231C287.216 960.168 287.187 961.607 287.128 962.546C287.128 963.485 286.6 964.425 285.543 965.364C284.545 966.245 282.989 966.685 280.875 966.685C279.76 966.685 278.791 966.509 277.969 966.157C277.206 965.746 276.677 965.306 276.384 964.836C273.624 961.489 269.602 955.794 264.318 947.75C258.388 938.767 253.544 931.898 249.787 927.142C250.256 931.369 250.491 936.536 250.491 942.642C250.491 945.343 250.433 948.866 250.315 953.211C250.256 957.497 250.139 960.315 249.963 961.665C249.728 963.368 249.2 964.689 248.378 965.629C247.614 966.509 246.381 966.95 244.679 966.95C243.387 966.95 242.418 966.597 241.772 965.893C241.185 965.129 240.833 963.838 240.716 962.018C240.657 959.61 240.804 956 241.156 951.185C241.215 950.422 241.303 949.101 241.42 947.222C241.538 945.343 241.596 943.67 241.596 942.202C241.596 938.151 241.391 933.512 240.98 928.287C240.627 922.533 240.451 918.276 240.451 915.517C240.451 914.108 240.95 913.021 241.948 912.258C243.005 911.495 244.209 911.113 245.559 911.113C246.734 911.113 247.967 911.407 249.258 911.994C254.308 918.335 261.148 927.788 269.779 940.352L278.057 953.035C278.116 952.095 278.145 950.774 278.145 949.071C278.145 946.077 278.087 942.848 277.969 939.384C277.852 935.92 277.764 933.571 277.705 932.338C277.411 926.643 277.265 921.623 277.265 917.278ZM339.513 924.412C339.219 924.177 338.28 923.502 336.695 922.386C335.109 921.212 333.583 920.39 332.115 919.92C330.647 919.392 329.091 919.128 327.447 919.128C324.923 919.128 322.515 919.451 320.225 920.096C317.936 920.683 315.969 921.594 314.325 922.827C309.51 926.349 307.103 932.367 307.103 940.881C307.103 944.58 307.984 947.838 309.745 950.657C311.507 953.416 313.767 955.53 316.527 956.998C319.286 958.466 322.134 959.199 325.069 959.199C328.005 959.199 330.559 958.759 332.731 957.878C334.904 956.939 336.636 955.735 337.928 954.268C338.984 952.917 339.689 951.42 340.041 949.776C340.393 948.073 340.57 946.224 340.57 944.228C340.57 943.64 340.1 943.229 339.161 942.995C338.221 942.76 336.871 942.642 335.109 942.642C334.229 942.642 332.673 942.701 330.442 942.818L326.39 942.995C324.688 942.995 323.337 942.672 322.339 942.026C321.341 941.38 320.842 940.529 320.842 939.472C320.842 936.771 322.574 935.421 326.038 935.421C328.856 935.421 331.821 935.509 334.933 935.685C338.808 935.802 341.45 935.861 342.859 935.861C344.914 935.861 346.558 936.507 347.791 937.798C349.083 939.09 349.729 940.969 349.729 943.435C349.729 945.783 349.23 948.484 348.232 951.537C347.234 954.532 345.854 957.233 344.092 959.64C342.331 961.988 339.777 963.779 336.43 965.012C333.084 966.186 329.297 966.773 325.069 966.773C321.605 966.773 318.2 966.216 314.853 965.1C311.565 963.985 308.835 962.429 306.663 960.432C303.962 957.908 301.819 954.913 300.234 951.449C298.707 947.926 297.944 944.433 297.944 940.969C297.944 935.802 299.03 930.87 301.202 926.173C303.375 921.417 306.457 917.718 310.45 915.076C312.211 913.902 314.765 912.933 318.112 912.17C321.517 911.407 324.57 911.025 327.271 911.025C335.315 911.025 341.039 913.462 344.445 918.335C345.149 919.392 345.502 920.331 345.502 921.153C345.502 922.093 345.091 922.973 344.269 923.795C343.447 924.617 342.625 925.028 341.803 925.028C341.45 925.028 341.039 924.97 340.57 924.852C340.1 924.735 339.748 924.588 339.513 924.412ZM397.06 955.589C398.176 955.589 398.998 956.029 399.526 956.91C400.113 957.732 400.407 958.642 400.407 959.64C400.407 960.873 400.201 961.753 399.79 962.282C399.438 962.752 398.704 963.251 397.589 963.779C395.24 964.895 392.598 965.687 389.662 966.157C386.785 966.627 383.175 966.862 378.83 966.862C373.604 966.862 369.582 965.981 366.764 964.219C364.005 962.399 362.185 960.139 361.304 957.438C360.423 954.737 359.983 951.596 359.983 948.015V942.466C359.983 938.65 360.071 934.98 360.247 931.457C360.482 927.935 360.922 923.825 361.568 919.128C361.979 916.309 363.095 914.284 364.915 913.051C366.735 911.759 368.731 911.113 370.904 911.113C373.252 911.113 376.481 911.055 380.591 910.937L388.253 910.849C391.365 910.849 393.655 910.937 395.123 911.113C396.884 911.466 398.176 911.877 398.998 912.346C399.879 912.757 400.319 913.491 400.319 914.548C400.319 915.722 399.908 916.867 399.086 917.983C398.323 919.098 397.148 919.656 395.563 919.656C393.743 919.656 391.13 919.539 387.725 919.304C384.32 919.069 381.765 918.951 380.063 918.951C377.949 918.951 376.246 919.04 374.955 919.216C373.311 919.333 372.137 919.539 371.432 919.832C370.727 920.126 370.316 920.625 370.199 921.329C369.377 927.377 368.966 931.839 368.966 934.716C370.258 934.892 371.637 934.98 373.105 934.98C374.984 934.98 378.125 934.775 382.529 934.364C385.758 934.07 388.429 933.923 390.543 933.923C391.894 933.923 392.892 934.158 393.537 934.628C394.183 935.098 394.506 935.743 394.506 936.565C394.506 937.857 394.183 938.855 393.537 939.56C392.892 940.264 391.717 940.793 390.015 941.145C387.96 941.556 385.288 941.879 382 942.114C378.771 942.349 375.689 942.466 372.753 942.466C371.637 942.466 370.258 942.407 368.614 942.29C368.614 946.165 368.79 949.218 369.142 951.449C369.553 953.68 370.375 955.412 371.608 956.645C372.9 957.878 374.837 958.495 377.421 958.495C383.233 958.495 387.872 957.966 391.336 956.91C393.802 956.029 395.71 955.589 397.06 955.589Z" fill="#D5E5E6"/>
<rect x="74.6484" y="595.918" width="315.794" height="44.035" fill="#D5E5E6"/>
</svg>
