<svg width="1179" height="1751" viewBox="0 0 1179 1751" fill="none" xmlns="http://www.w3.org/2000/svg">
<g clip-path="url(#clip0_4116_590)">
<path d="M491.629 604.411C466.787 542.908 428.121 484.81 372.027 449.35C315.932 413.89 240.405 405.075 183.108 438.531C102.772 485.411 83.7404 590.989 72.9221 683.344C52.688 856.837 32.4538 1030.13 12.2197 1203.62C4.20618 1272.74 -4.00768 1342.26 2.40314 1411.57C7.61193 1468.87 23.8393 1527.37 61.9035 1570.64C128.416 1646.37 259.437 1652.58 332.761 1583.46" fill="#FFDB43"/>
<path d="M750.847 666.307C786.908 581.564 879.865 524.869 971.62 531.48C1063.37 538.091 1147.12 608.009 1170.36 696.959C1182.78 744.439 1179.17 794.323 1173.16 843.006C1138.1 1131.49 1022.51 1409.76 843.203 1638.35C820.164 1667.8 795.322 1696.85 762.467 1714.68C667.106 1766.36 544.7 1699.05 488.004 1606.49" fill="#FFDB43"/>
<path d="M524.863 533.682C626.435 439.323 674.516 290.672 647.27 154.843C642.462 130.402 635.049 105.96 622.027 84.5243C609.206 63.4888 589.973 39.4483 600.791 17.2107C611.009 -4.02508 643.463 -4.82644 661.894 9.99858C680.326 24.8236 688.139 48.6638 695.151 71.302C717.989 145.627 740.828 221.355 741.228 299.287C741.429 344.563 734.016 390.04 739.025 435.116C745.636 495.818 772.681 563.533 737.222 613.216" fill="#D7B420"/>
<path d="M482.811 535.275C454.564 521.652 424.713 511.235 394.062 504.624C367.216 498.814 337.767 496.209 313.125 508.43C288.083 520.851 272.456 546.094 259.835 571.136C199.934 690.537 182.905 826.166 170.084 958.99C155.86 1105.44 145.442 1252.28 138.631 1399.13C136.828 1440.6 135.626 1484.28 154.457 1521.14C182.104 1575.23 244.209 1600.67 301.105 1621.91" fill="#F6D031"/>
<path d="M817.782 592.594C863.659 577.369 915.146 605.616 941.19 646.285C967.234 686.953 973.645 736.838 977.051 785.119C993.478 1018.91 956.015 1259.72 846.63 1467.07C835.812 1487.7 824.193 1507.94 809.969 1526.17C784.526 1558.82 751.47 1584.67 718.815 1609.91C689.966 1632.15 660.717 1654.79 627.06 1668.61C593.403 1682.43 554.137 1686.84 520.881 1672.22" fill="#F6D031"/>
<path d="M350.398 889.685C353.202 1009.29 351.399 1129.09 345.189 1248.69C342.584 1299.98 339.179 1352.47 351.8 1402.35C364.421 1452.23 395.874 1500.32 443.955 1518.75C478.614 1531.97 518.08 1528.36 553.34 1516.94C606.029 1499.71 652.708 1464.66 684.361 1419.18C720.422 1366.89 735.848 1303.58 758.686 1244.28C790.34 1161.34 836.818 1085.01 876.084 1005.28C892.913 971.022 908.339 935.563 920.76 899.301C924.166 876.463 927.772 853.424 930.376 830.586C934.383 794.525 937.388 757.662 930.777 721.802C910.543 613.619 849.84 588.778 743.06 547.708C652.307 492.215 528.498 500.228 442.753 561.932C397.076 614.02 366.024 678.729 355.005 747.245C347.593 794.324 349.396 842.405 350.398 890.086V889.685Z" fill="#FFDB43"/>
<path d="M876.259 1004.93C836.992 1084.66 790.514 1160.99 758.86 1243.93C736.222 1303.23 720.796 1366.54 684.535 1418.83C652.882 1464.5 606.203 1499.36 553.514 1516.59C518.255 1528.21 478.788 1531.82 444.129 1518.39C396.048 1499.96 364.595 1451.88 351.974 1402C339.353 1352.11 342.758 1299.83 345.363 1248.34C351.573 1128.74 353.176 1009.14 350.572 889.333C349.57 841.653 347.767 793.572 355.179 746.492C365.998 677.977 397.25 613.268 442.927 561.18C430.506 569.995 419.087 580.011 408.469 591.23C328.334 675.372 311.506 799.582 298.283 914.977C281.655 1061.82 265.027 1208.47 248.399 1355.32C239.985 1429.85 231.571 1506.37 249.201 1579.3C266.83 1652.22 315.913 1722.34 387.834 1743.57C451.141 1762.21 521.059 1739.77 572.947 1699.5C625.035 1659.03 662.097 1602.74 694.953 1545.64C809.947 1346.71 886.476 1125.93 920.734 898.749C908.313 935.01 892.887 970.47 876.058 1004.73L876.259 1004.93Z" fill="#F6D031"/>
<path opacity="0.11" d="M602.322 962.739C623.133 823.323 620.753 707.431 597.006 703.887C573.26 700.342 537.139 810.487 516.328 949.902C495.517 1089.32 497.897 1205.21 521.643 1208.75C545.39 1212.3 581.511 1102.15 602.322 962.739Z" fill="white"/>
</g>
<defs>
<clipPath id="clip0_4116_590">
<rect width="1178.79" height="1750.55" fill="white"/>
</clipPath>
</defs>
</svg>
