<svg width="827" height="826" viewBox="0 0 827 826" fill="none" xmlns="http://www.w3.org/2000/svg">
<g clip-path="url(#clip0_4132_387)">
<path d="M713.527 129.891C869.841 295.584 862.286 556.89 696.593 713.205C530.899 869.519 269.593 861.964 113.279 696.271C-43.2965 530.577 -35.4808 269.271 130.213 112.957C295.906 -43.3579 557.212 -35.8028 713.527 129.891Z" fill="#A13F17"/>
<path d="M645.594 179.323C770.645 311.67 764.393 520.35 632.046 645.401C499.7 770.453 291.02 764.201 165.968 631.854C41.1771 499.247 47.1691 290.567 179.776 165.776C312.122 40.7245 520.802 46.9771 645.854 179.323H645.594Z" fill="#B14F23"/>
<path d="M173.082 434.451C173.082 391.991 218.813 365.936 252.445 348.781C263.071 343.362 271.446 337.791 279.1 328.681C281.099 326.302 280.816 322.723 283.509 319.899C290.501 312.568 295.305 301.389 300.744 292.969C319.929 263.271 335.728 230.713 353.052 199.883C358.562 190.079 372.391 181.542 376.901 172.758" stroke="#A13E17" stroke-width="35.228" stroke-linecap="round"/>
<path d="M320.285 560.264C321.822 536.355 332.849 509.579 347.985 490.775C359.661 476.27 375.716 465.651 388.68 452.207C396.21 444.399 405.384 438.292 412.789 430.43C419.613 423.184 425.479 415.065 432.111 407.655C444.792 393.486 459.64 380.162 470.754 364.764C482.155 348.968 494.706 331.697 499.993 313.064C501.665 307.171 503.095 298.613 503.412 292.45C503.639 288.04 506.49 287.921 506.49 283.473" stroke="#A13E17" stroke-width="35.228" stroke-linecap="round"/>
<path d="M468.746 650.853C486.024 607.505 503.853 561.774 531.112 524.209C544.538 505.707 565.852 497.473 582.285 482.752C597.793 468.858 613.502 452.982 625.284 435.331C630.294 427.824 639.853 415.333 639.853 405.516" stroke="#A13E17" stroke-width="39.0024" stroke-linecap="round"/>
</g>
<defs>
<clipPath id="clip0_4132_387">
<rect width="825.341" height="825.341" fill="white" transform="translate(0.716797 0.390625)"/>
</clipPath>
</defs>
</svg>
