<svg width="736" height="1545" viewBox="0 0 736 1545" fill="none" xmlns="http://www.w3.org/2000/svg">
<path d="M241.467 863.676C385.021 576.908 509.66 531.798 551.687 551.556C766.847 626.931 547.799 929.679 670.232 1052.11C774.229 1156.11 713.058 1312.84 643.85 1382.05C291.302 1758.58 -34.865 1345.39 16.1843 1119.26C57.0237 938.365 105.45 918.494 241.467 863.676Z" fill="#A6DD8E" stroke="#486105" stroke-width="19.8715"/>
<path d="M663.028 439.4C376.631 383.768 315.117 125.757 320.424 2.34766C331.388 29.7566 463.636 101.934 528.389 134.596C775.07 242.862 716.826 410.399 709.631 433.011C703.875 451.101 682.794 446.031 672.972 441.234C669.628 440.65 666.313 440.038 663.028 439.4Z" fill="#6AB04C" stroke="#486105" stroke-width="10.2784"/>
<path d="M568.131 252.797C616.439 272.783 709.767 338.107 696.61 439.521C642.135 471.041 528.525 553.816 509.887 632.754" stroke="#486105" stroke-width="14.3897" stroke-linecap="round"/>
<path d="M170.35 1001.48C161.875 998.323 176.996 1004.47 165.364 999.652C162.539 998.489 159.548 997.326 156.557 996.495C155.893 995.498 153.566 994.501 152.736 993.836C151.572 993.005 150.409 992.174 149.246 991.343C148.581 989.682 146.586 987.355 144.758 985.361C144.925 986.026 145.091 986.857 144.758 987.521C144.758 987.023 143.595 984.364 143.429 984.032C143.096 983.699 142.764 983.367 142.598 983.201C140.604 981.207 141.601 981.373 142.931 982.536C141.934 980.044 141.103 977.551 140.106 975.058C133.625 957.942 107.701 964.423 112.354 982.702C116.176 997.658 121.328 1009.29 133.126 1019.59C139.773 1025.41 146.753 1029.73 155.394 1032.22C164.201 1034.88 176.332 1032.39 181.816 1025.58C185.14 1021.59 186.635 1015.94 183.644 1011.28C180.653 1006.47 176.165 1003.64 170.515 1001.48H170.35ZM148.913 991.177C148.913 991.177 148.581 990.845 148.249 990.845C144.925 988.685 147.916 990.18 148.913 991.177Z" fill="#486105"/>
<path d="M104.042 1062.49C104.042 1062.49 103.212 1061.5 102.88 1061.16C101.717 1059.5 100.553 1057.84 99.39 1056.01C97.7282 1053.19 96.2322 1050.36 94.7366 1047.54C88.422 1035.74 67.6509 1043.88 72.6361 1056.84C78.2861 1071.47 86.7605 1093.07 103.378 1097.72C112.185 1100.21 121.989 1091.41 118.832 1082.27C116.007 1074.13 109.36 1068.97 104.042 1062.49Z" fill="#486105"/>
<path d="M562.694 1373.2C558.373 1374.7 554.052 1376.03 549.732 1376.86C548.735 1377.02 547.904 1377.19 546.907 1377.36C544.248 1377.02 541.257 1377.36 538.598 1377.36C520.485 1377.69 521.15 1403.45 538.598 1404.94C548.901 1405.94 559.038 1405.94 569.009 1402.62C579.145 1399.29 596.095 1388.16 591.608 1375.36C586.789 1362.23 572 1369.88 562.86 1373.04L562.694 1373.2Z" fill="#486105"/>
<path d="M617.849 1310.61C615.855 1310.11 614.026 1309.94 611.866 1310.27C611.035 1310.44 610.205 1310.94 609.208 1311.27C607.047 1311.6 604.555 1313.1 603.226 1313.76C602.229 1314.26 601.231 1314.93 600.4 1315.59C599.901 1315.92 600.068 1315.92 600.4 1315.59C598.24 1316.59 596.08 1317.59 594.086 1318.75C593.421 1319.08 592.756 1319.25 592.091 1319.58C588.934 1320.74 585.777 1321.24 582.454 1321.91C567.83 1324.9 574.145 1346.33 588.602 1344.01C596.579 1342.68 604.222 1340.85 611.035 1336.36C615.023 1333.71 618.679 1330.05 620.507 1325.56C621.006 1325.56 622.169 1321.74 622.335 1321.41C623 1319.08 622.834 1316.92 622.335 1314.76C621.837 1312.77 620.009 1310.77 617.849 1310.27V1310.61Z" fill="#486105"/>
<path d="M638.942 1205.42C636.117 1207.09 633.459 1209.25 630.8 1211.07C627.643 1213.23 624.485 1215.06 621.161 1216.72C620.164 1217.22 619.002 1217.72 618.005 1218.22C616.177 1218.88 614.183 1219.72 612.355 1220.38C596.236 1226.53 602.384 1249.79 619.5 1246.3C634.456 1243.15 670.516 1233.34 664.201 1211.74C660.711 1199.94 647.749 1200.44 638.942 1205.42Z" fill="#486105"/>
</svg>
