<svg width="1091" height="933" viewBox="0 0 1091 933" fill="none" xmlns="http://www.w3.org/2000/svg">
<g clip-path="url(#clip0_4127_300)">
<path d="M920.256 683.016C920.256 683.016 938.49 775.65 972.352 781.836C1006.21 788.023 938.327 655.991 938.327 655.991L920.256 683.016Z" fill="#A37A5A"/>
<path d="M942.066 651.437C942.066 651.437 1005.4 732.349 1036.82 724.535C1068.24 716.883 943.043 618.551 943.043 618.551L942.066 651.437Z" fill="#A37A5A"/>
<path d="M971.525 585.641C971.525 585.641 1064.97 553.732 1087.76 578.315C1110.56 602.898 956.059 613.969 956.059 613.969L971.525 585.641Z" fill="#A37A5A"/>
<path d="M964.857 615.92C964.857 615.92 1070.19 621.455 1080.93 650.597C1091.68 679.901 936.855 634.968 936.855 634.968L964.857 615.92Z" fill="#A37A5A"/>
<path d="M286.958 114.032C171.044 145.452 98.4342 71.3776 98.4342 71.3776C67.9904 85.5413 56.7572 147.08 54.6408 161.569C43.4075 171.012 -3.15363 212.689 0.753595 246.063C0.753595 246.063 101.853 269.181 135.716 384.607C169.578 499.87 166.322 814.727 383.662 901.012C599.373 986.645 809.712 894.663 957.047 669.997H957.373C957.373 669.997 958.187 668.369 958.675 667.555C959.164 666.741 959.815 665.927 960.303 665.113H959.978C1074.43 421.888 1042.84 194.455 857.087 55.4231C670.029 -84.7487 403.198 82.6109 287.284 114.032H286.958Z" fill="#96486C"/>
</g>
<defs>
<clipPath id="clip0_4127_300">
<rect width="1089.63" height="932.362" fill="white" transform="matrix(1 0 0 -1 0.425781 932.57)"/>
</clipPath>
</defs>
</svg>
