<svg width="606" height="1503" viewBox="0 0 606 1503" fill="none" xmlns="http://www.w3.org/2000/svg">
<path d="M308 1501.9C271.296 1501.9 181.992 1498.15 147.888 1462.02C137.773 1451.33 133.149 1438.9 134.016 1425.03C137.195 1372.72 240.661 1357.69 280.544 1353.64L286.035 1100.76C232.857 1088.62 -7.0213 1020.12 23.3248 769.841C55.983 501.35 97.6005 225.923 98.1785 223.033L99.6236 212.918H526.781L528.226 223.033C528.515 225.923 570.422 501.35 603.08 769.841C633.426 1019.83 393.547 1088.62 340.369 1100.76L345.86 1354.22C385.455 1359.42 489.499 1377.34 492.389 1425.03C493.256 1438.9 488.632 1451.33 478.805 1462.02C444.991 1498.15 355.398 1502.19 318.694 1502.19C315.514 1502.19 313.491 1502.19 312.913 1502.19C312.913 1502.19 310.89 1502.19 307.422 1502.19L308 1501.9ZM77.8459 526.22C70.0426 578.531 76.5027 533.719 47.6017 772.731C16.3885 1029.66 288.925 1077.06 300.486 1079.08L310.89 1080.82L304.532 1376.18L293.55 1377.05C238.349 1381.1 160.027 1399.02 158.293 1426.76C158.004 1433.99 160.316 1440.06 165.518 1445.84C188.061 1469.82 256.267 1478.21 308 1478.21C311.468 1478.21 313.202 1478.21 313.202 1478.21C313.78 1478.21 315.803 1478.21 318.982 1478.21C370.715 1478.21 439.211 1469.82 461.754 1445.84C467.245 1440.06 469.268 1433.99 468.979 1426.76C467.534 1402.48 387.189 1382.83 333.144 1377.05L322.74 1375.9L316.381 1081.11L326.786 1079.37C338.346 1077.35 65.8567 1100.48 34.6436 843.837C5.74252 605.114 34.5434 855.944 26.7401 803.345L21.6798 837.352L77.8459 526.22Z" fill="#F2FDE9"/>
<path d="M347.466 496.163C398.621 461.482 455.845 456.858 509.601 465.817C500.063 377.38 493.994 317.555 493.994 317.555H129.263C129.263 317.555 118.859 419.864 104.119 555.41C163.077 562.346 254.983 558.589 347.466 496.163Z" fill="#EEFDE1"/>
<path d="M348.932 703.096C407.312 663.502 474.363 665.525 533.61 681.71C524.362 602.521 515.98 527.089 509.622 465.53C455.866 456.571 398.642 461.484 347.487 495.876C255.293 558.302 163.388 562.059 104.14 555.123C97.4932 615.815 89.6899 683.155 81.5977 751.072C126.394 762.344 237.374 778.239 348.932 702.807V703.096Z" fill="#E1FDC8"/>
<path d="M348.925 703.178C237.367 778.61 126.387 762.425 81.5908 751.443C80.7238 759.535 79.5678 767.627 78.7007 775.43C51.2448 1002.88 299.216 1043.34 299.216 1043.34H324.36C324.36 1043.34 572.33 1002.88 544.875 775.43C541.117 744.217 537.36 712.715 533.892 681.791C474.645 665.607 407.595 663.583 349.214 703.178H348.925Z" fill="#CEF5AB"/>
<path d="M21.3368 0.195123L0.423828 11.9453L270.82 493.195L291.733 481.444L21.3368 0.195123Z" fill="#C3D272"/>
</svg>
