<svg width="1039" height="845" viewBox="0 0 1039 845" fill="none" xmlns="http://www.w3.org/2000/svg">
<g clip-path="url(#clip0_4127_307)">
<path d="M677.464 318.762C677.464 318.762 647.14 8.13658 456.449 -0.0275433C295.888 -6.63659 122.692 235.177 61.0725 414.01C-0.352814 592.843 -26.5946 651.936 36.7745 741.741C97.6166 828.242 146.99 805.305 396.968 839.322C646.945 873.339 1170.23 748.933 677.464 318.762Z" fill="#CB3462"/>
<path d="M741.812 452.74C744.727 452.934 759.306 466.347 761.056 484.036C762.805 501.725 706.239 519.414 696.326 512.027C686.412 504.64 713.432 450.213 741.812 452.545V452.74Z" fill="#F7BB97"/>
<path d="M849.106 592.826C852.022 593.02 866.601 606.433 868.35 624.122C870.1 641.811 813.534 659.499 803.621 652.113C793.707 644.726 820.726 590.299 849.106 592.631V592.826Z" fill="#F7BB97"/>
<path d="M421.618 453.193C424.534 453.387 439.113 466.8 440.862 484.489C442.612 502.178 386.046 519.867 376.132 512.48C366.219 505.093 393.238 450.666 421.618 452.999V453.193Z" fill="#F7BB97"/>
<path d="M169.847 422.998C172.762 423.192 187.341 436.605 189.091 454.293C190.84 471.982 134.274 489.671 124.361 482.285C114.447 474.898 141.467 420.471 169.847 422.803V422.998Z" fill="#F7BB97"/>
<path d="M762.792 720.564C764.153 718.037 761.043 699.959 747.63 690.629C734.218 681.299 690.092 720.758 690.676 732.421C691.259 744.085 749.574 745.445 762.792 720.564Z" fill="#F7BB97"/>
<path d="M493.831 685.576C495.192 683.049 492.082 664.971 478.669 655.641C465.257 646.31 421.132 685.77 421.715 697.433C422.298 709.096 480.613 710.457 493.831 685.576Z" fill="#F7BB97"/>
<path d="M407.019 204.966C408.379 202.439 405.269 184.362 391.857 175.031C378.444 165.701 334.319 205.161 334.902 216.824C335.485 228.487 393.8 229.848 407.019 204.966Z" fill="#F7BB97"/>
<path d="M335.304 580.931C336.664 578.404 333.554 560.327 320.142 550.996C306.729 541.666 262.604 581.126 263.187 592.789C263.771 604.452 322.086 605.812 335.304 580.931Z" fill="#F7BB97"/>
<path d="M610.187 307.701C613.102 307.895 627.681 321.308 629.431 338.997C631.18 356.686 574.614 374.374 564.701 366.988C554.787 359.601 581.806 305.174 610.187 307.506V307.701Z" fill="#F7BB97"/>
<path d="M731.1 330.869C731.1 330.869 800.301 393.849 893.411 349.724C893.411 349.724 808.854 268.083 722.742 309.487C722.742 309.487 785.528 260.696 786.305 146.204C786.305 146.204 687.753 176.14 713.217 284.606C713.217 284.606 715.938 175.362 632.742 97.4141C632.742 97.4141 592.893 174.001 683.282 302.295C683.282 302.295 635.463 220.848 494.924 242.424C494.924 242.424 529.524 337.284 695.334 338.45C695.334 338.45 605.528 338.45 552.073 458.968C552.073 458.968 657.234 477.629 718.854 351.668C718.854 351.668 689.891 440.501 796.996 527.585C796.996 527.585 839.955 417.175 731.1 330.48V330.869Z" fill="#A3B850"/>
<path d="M700.207 314.175C700.207 314.175 799.926 202.21 1031.05 198.711C1031.05 198.711 1049.13 224.37 1029.69 248.279C1029.69 248.279 862.129 194.629 703.317 333.419" fill="#A3B850"/>
</g>
<defs>
<clipPath id="clip0_4127_307">
<rect width="1038.4" height="844.792" fill="white" transform="translate(0.230469 -0.0078125)"/>
</clipPath>
</defs>
</svg>
