<svg width="1198" height="1225" viewBox="0 0 1198 1225" fill="none" xmlns="http://www.w3.org/2000/svg">
<path d="M1187.6 96.2318C1163.44 22.7979 1097.97 -11.5171 1023.16 4.8168C853.096 42.0142 710.757 199.451 613.166 333.691C529.712 361.28 422.375 426.341 393.413 514.874C283.468 571.562 214.701 663.8 167.621 776.216C152.11 784.589 137.149 794.06 123.011 805.178C58.6364 855.964 14.4391 931.182 3.18382 1012.99C-5.46354 1075.85 3.18345 1176.88 63.715 1209.82C65.6366 1213.25 68.9314 1216 73.7355 1217.09C228.976 1252.64 398.491 1159.03 522.849 1075.03C660.52 981.968 778.151 858.023 880.272 727.763C980.06 600.661 1102.36 464.911 1163.85 313.926C1190.75 247.904 1210.52 165.96 1187.6 96.2318ZM1138.32 314.337C1075.87 452.558 971.825 579.797 875.606 695.782C775.407 816.296 668.207 932.555 538.634 1022.19C401.649 1116.89 248.329 1194.17 78.4018 1183.33C74.1468 1183.05 70.7152 1184.56 67.97 1186.76C24.3214 1138.03 30.9099 1035.22 43.9495 982.106C62.2051 907.711 107.09 844.846 173.249 805.315C298.704 730.509 440.219 753.705 576.38 776.902C585.165 778.412 589.145 765.647 580.086 763.314C458.748 731.469 310.096 712.665 190.543 765.235C240.368 661.33 311.88 570.601 421.414 522.423C480.847 496.344 544.536 487.284 608.773 488.383C642.677 488.932 677.129 492.912 710.071 501.011C735.876 507.325 761.68 524.619 788.583 524.345C797.231 524.345 804.094 511.854 796.27 505.677C751.798 470.264 669.579 463.127 614.675 463.676C553.32 464.362 492.514 473.833 435.277 496.069C455.317 470.264 473.298 442.538 500.613 421.4C540.555 390.517 585.576 368.28 634.303 354.692C684.54 340.691 737.111 335.75 789.133 337.671C817.82 338.77 888.508 361.966 912.254 343.299C914.313 341.652 914.588 337.809 913.215 335.75C895.509 307.474 809.584 311.318 780.897 310.769C733.542 309.945 684.815 314.337 638.696 326.279C731.895 215.922 835.252 123.272 965.786 56.8383C1037.98 20.0527 1135.99 4.40507 1166.73 99.6633C1188.83 168.156 1166.73 251.61 1138.32 314.475V314.337Z" fill="#E09438"/>
<path d="M414.838 1030.84C413.603 1031.39 413.603 1031.53 414.838 1030.84C413.877 1031.12 412.916 1031.53 412.093 1032.08C410.583 1032.9 413.191 1032.08 410.171 1033.04C409.485 1033.17 408.799 1033.31 408.113 1033.45C407.838 1033.45 406.191 1033.45 405.78 1033.45C396.583 1033.59 396.72 1047.04 405.78 1047.59C411.956 1048 419.231 1046.9 423.348 1041.96C428.564 1035.78 422.113 1026.72 414.701 1030.7L414.838 1030.84Z" fill="#C16D21"/>
<path d="M469.32 1001.2C468.085 998.588 464.928 997.078 462.183 997.078C461.633 997.078 460.947 997.078 460.398 997.215C458.065 996.941 455.594 997.215 453.672 998.725C452.437 999.686 450.927 1000.37 449.691 1001.2C449.28 1001.47 447.496 1002.84 446.535 1003.53C445.986 1003.94 445.437 1004.22 445.3 1004.35C431.574 1013.82 444.613 1036.33 458.476 1026.86C464.378 1022.75 468.222 1018.63 470.967 1012.04C472.065 1009.57 471.378 1006.69 470.28 1004.35C470.006 1003.12 469.594 1001.74 469.457 1001.33L469.32 1001.2ZM470.555 1005.18C470.83 1007.1 470.555 1006.27 470.418 1004.76C470.418 1004.76 470.555 1005.04 470.555 1005.18Z" fill="#C16D21"/>
<path d="M313.535 662.416C306.398 665.436 303.241 674.22 307.221 681.083C310.79 687.26 319.026 689.456 325.203 685.75C331.791 681.907 334.81 670.377 327.81 665.024C323.28 661.455 319.163 659.945 313.398 662.279L313.535 662.416Z" fill="#C16D21"/>
<path d="M436.79 664.236C431.025 660.805 424.025 667.668 427.594 673.432C428.692 675.217 430.064 676.589 431.849 677.687C437.614 681.256 444.614 674.119 441.182 668.354C440.084 666.569 438.712 665.197 436.927 664.099L436.79 664.236Z" fill="#C16D21"/>
<path d="M632.938 409.577C628.134 402.302 618.251 402.302 613.584 409.577C613.447 409.852 613.31 409.989 613.173 410.264C608.232 417.813 614.82 427.97 623.33 427.97C631.84 427.97 638.429 417.813 633.487 410.264C633.35 409.989 633.213 409.852 633.076 409.577H632.938Z" fill="#C16D21"/>
<path d="M701.013 367.875C683.032 367.875 683.032 395.876 701.013 395.876C718.994 395.876 718.994 367.875 701.013 367.875Z" fill="#C16D21"/>
<path d="M431.42 580.757C430.871 578.423 429.91 577.05 428.675 575.266C422.635 567.305 411.655 564.285 403.968 572.109C396.282 579.796 399.164 590.914 407.125 596.816C408.772 598.051 410.282 599.012 412.616 599.561C424.283 602.169 434.028 592.424 431.42 580.757Z" fill="#C16D21"/>
<path d="M145.79 887.915C144.829 889.974 144.005 892.033 143.73 894.092C143.73 894.229 143.593 894.504 143.456 894.641C141.534 902.328 148.397 909.053 155.947 907.132C156.221 907.132 156.358 906.994 156.495 906.857C158.554 906.583 160.613 905.896 162.672 904.798C170.084 901.23 170.633 890.523 165.28 885.033C159.927 879.68 149.221 880.229 145.515 887.503L145.79 887.915Z" fill="#C16D21"/>
<path d="M129.193 954.508C117.801 954.508 112.311 968.645 119.997 976.744C120.409 977.156 120.683 977.568 121.095 977.979C125.213 982.372 133.037 982.372 137.292 977.979L138.39 976.744C146.076 968.645 140.723 954.508 129.193 954.508Z" fill="#C16D21"/>
<path d="M922.277 146.905C922.277 146.905 921.178 146.905 920.629 146.905C907.452 147.18 900.315 163.513 909.786 172.984C919.257 182.455 935.591 175.318 935.866 162.141C935.866 161.592 935.866 161.043 935.866 160.494C936.003 153.219 929.414 146.63 922.14 146.768L922.277 146.905Z" fill="#C16D21"/>
<path d="M971.004 103.758C954.67 103.758 954.67 129.151 971.004 129.151C987.338 129.151 987.338 103.758 971.004 103.758Z" fill="#C16D21"/>
<path d="M1069.43 377.216C1065.59 376.941 1061.19 383.118 1059.14 385.589C1055.98 389.295 1052.82 392.863 1048.98 396.02C1040.06 403.295 1035.94 411.256 1028.94 419.492C1027.15 421.551 1029.35 425.119 1032.1 423.472C1041.43 417.707 1050.76 413.315 1057.21 404.256C1060.78 399.177 1074.37 385.726 1071.76 379.138C1071.35 378.039 1070.53 377.49 1069.43 377.353V377.216Z" fill="#C16D21"/>
<path d="M1099.62 307.229C1090.42 310.523 1089.32 320.543 1086.99 328.779C1083.56 341.269 1102.23 346.21 1106.21 334.132C1108.54 327.131 1113.34 317.523 1108.27 310.798C1106.34 308.19 1102.91 305.993 1099.48 307.229H1099.62Z" fill="#C16D21"/>
<path d="M553.241 773.605C119.773 673.593 32.6042 978.052 32.6042 1001.21C22.6427 1141.12 50.999 1176.38 69.677 1187.98C246.832 1285.9 637.279 963.473 762.885 826.314C914.139 678.872 1158.65 351.161 1175.06 207.399C1191.48 63.6379 1129.78 23.4515 1059.88 27.6965C989.982 31.9414 957.437 52.0351 900.272 88.5412C821.486 120.463 694.251 262.018 640.764 325.409C655.48 322.39 693.571 315.447 728.21 311.824C762.849 308.202 813.203 310.315 834.051 311.824C866.596 308.145 914.139 325.408 914.139 337.294C914.139 349.18 893.763 349.746 885.556 351.161C878.991 352.293 837.919 345.784 818.203 342.388C789.903 332.2 708.778 340.314 672.177 345.503C530.905 374.029 456.722 456.437 437.29 494.076C613.314 432.1 741.511 475.964 778.867 494.076C816.222 512.188 793.582 520.395 790.469 522.94C661.14 492.943 620.955 464.077 448.892 513.036C311.243 552.202 219.288 697.266 190.516 764.903L198.44 761.224C292.395 704.172 491.908 737.452 579.92 761.224L591.523 773.605L572.279 778.204C565.86 776.585 559.514 775.053 553.241 773.605Z" fill="#D07D24" stroke="#C16D21" stroke-width="0.565993"/>
</svg>
