<svg width="1025" height="1189" viewBox="0 0 1025 1189" fill="none" xmlns="http://www.w3.org/2000/svg">
<g clip-path="url(#clip0_4115_483)">
<path d="M311.646 1184.89C238.548 1194.79 159.963 1188.22 104.6 1139.43C49.336 1090.63 21.6059 1012.34 33.9522 939.633C40.4193 901.026 57.1749 865.065 69.5212 828.026C95.5856 750.029 102.641 665.76 89.9024 584.432C77.6541 506.14 47.4743 431.769 30.2287 354.457C12.9831 277.146 9.7495 191.898 48.4542 122.719C88.2367 51.3852 172.309 7.48725 253.54 15.5221C306.453 20.8134 355.446 45.8 399.638 75.1959C463.035 117.428 519.181 170.341 564.745 231.386C678.703 384.147 800.01 735.919 654.892 967.657C576.797 1092.2 455.098 1165.39 311.646 1184.79V1184.89Z" fill="#F64548"/>
<path d="M305.372 1168.54C249.422 1176.08 171.914 1175.59 120.765 1130.42C73.0459 1088.29 49.1372 1020.48 59.7198 957.769C63.8352 933.174 72.9479 908.776 82.5506 883.005C86.862 871.345 91.2714 859.587 95.1909 847.73C124.097 761.208 131.936 667.729 117.728 577.581C109.987 528 95.7788 480.281 81.9627 434.129C72.0661 400.716 62.6594 369.164 55.4084 336.829C35.6151 248.249 40.7104 176.425 70.4003 123.218C97.4446 75.2048 149.573 40.3216 206.406 32.3847C219.928 30.5229 233.352 30.229 246.482 31.5028C287.048 35.5202 329.672 53.2558 380.821 87.2571C443.631 129.097 498.013 180.54 542.597 240.312C645.483 378.277 778.059 731.322 634.312 960.807C561.508 1077.02 448.334 1148.74 307.136 1168.24L305.47 1168.44L305.372 1168.54Z" fill="#FFFEFF"/>
<path d="M300.274 1131.29C252.163 1137.76 186.218 1138.05 145.75 1102.29C107.535 1068.58 88.4274 1014.3 96.8543 964.126C100.382 943.059 108.907 920.326 117.823 896.222C122.331 884.071 126.838 872.019 130.856 859.771C161.721 767.468 169.952 667.913 154.862 571.886C146.729 519.758 132.129 470.862 118.019 423.535C108.221 390.514 99.01 359.746 92.1509 328.782C74.4154 249.511 78.1389 186.604 103.223 141.726C124.584 103.511 166.033 75.879 211.498 69.6078C222.081 68.138 232.566 67.942 242.658 68.9219C276.855 72.3514 314.09 88.1273 359.85 118.601C419.034 157.992 470.379 206.593 512.317 262.837C606.776 389.534 734.746 729.449 602.269 940.904C535.54 1047.32 431.674 1113.07 301.842 1131.1L300.176 1131.29H300.274Z" fill="#FF9C78"/>
</g>
<defs>
<clipPath id="clip0_4115_483">
<rect width="1024.06" height="1187.99" fill="white" transform="translate(0.542969 0.835938)"/>
</clipPath>
</defs>
</svg>
