<svg width="1372" height="1426" viewBox="0 0 1372 1426" fill="none" xmlns="http://www.w3.org/2000/svg">
<g clip-path="url(#clip0_4115_7)">
<path d="M833.973 718.32C924.811 827.942 1018.44 935.215 1114.7 1040.14C1134.81 1012.55 1169.44 998.023 1203.49 997.29C1237.53 996.556 1270.84 1008.3 1300.49 1025.17C1339.38 1047.48 1375.92 1086.22 1371.07 1130.98C1366.52 1172.65 1326.17 1202.88 1284.93 1210.08C1243.7 1217.12 1201.73 1206.26 1161.22 1195.55C1162.98 1245.88 1164.45 1297.98 1145.08 1344.64C1125.71 1391.31 1079.63 1430.64 1029.59 1425.36C975.439 1419.63 937.725 1363.87 933.469 1309.72C929.067 1255.42 949.758 1202.74 970.009 1152.26C893.994 1072.87 819.005 992.594 744.604 911.588" fill="#F4F4F4"/>
<path d="M998.78 746.944C989.534 521.392 884.903 301.415 715.701 152.025C633.082 78.9443 533.44 21.5656 424.405 4.68951C315.371 -12.1866 196.651 15.6957 117.554 92.592C61.4957 146.889 28.4773 221.437 10.7207 297.453C-6.59565 371.708 -2.78019 449.485 20.2594 522.125C151.453 936.25 552.81 976.459 687.672 1004.19C699.266 1000.67 914.546 826.776 998.78 746.944Z" fill="#DCAF2D"/>
</g>
<defs>
<clipPath id="clip0_4115_7">
<rect width="1371.37" height="1425.66" fill="white"/>
</clipPath>
</defs>
</svg>
