<svg width="914" height="1085" viewBox="0 0 914 1085" fill="none" xmlns="http://www.w3.org/2000/svg">
<g clip-path="url(#clip0_4115_512)">
<path d="M85.6891 986.917C60.2777 956.647 43.4613 920.212 30.3818 883.029C-10.9118 766.622 -15.9567 628.728 54.2985 527.082C81.2047 488.03 117.64 456.266 143.612 416.654C169.584 377.042 183.411 323.79 160.055 282.497C146.976 259.514 124.18 243.445 110.353 220.836C85.876 181.224 94.471 127.225 122.125 89.8554C149.965 52.4856 193.501 29.6901 238.158 16.6106C318.316 -7.11916 416.785 -11.4167 479.94 43.33C621.011 165.342 546.645 371.623 634.091 512.134C711.072 635.828 871.949 593.226 909.132 731.494C919.409 769.985 912.495 815.576 888.392 847.341C819.632 937.962 742.276 853.32 553.372 998.128C341.672 1160.31 145.481 1058.67 85.6891 987.104V986.917Z" fill="#F4F4F4"/>
<path d="M196.897 862.897C208.669 888.869 231.09 912.598 256.315 925.678C311.062 954.079 383.372 957.816 430.832 918.204C466.894 888.308 482.215 838.98 482.028 792.268C482.028 763.306 476.236 733.597 460.915 708.933C448.769 689.501 431.206 673.992 411.026 663.155C354.598 632.512 278.924 642.041 231.838 685.951C184.752 729.86 169.991 804.6 196.71 863.083" fill="#F2D578"/>
</g>
<defs>
<clipPath id="clip0_4115_512">
<rect width="913.504" height="1084.84" fill="white" transform="translate(0.318359)"/>
</clipPath>
</defs>
</svg>
