<svg width="917" height="1398" viewBox="0 0 917 1398" fill="none" xmlns="http://www.w3.org/2000/svg">
<g clip-path="url(#clip0_4136_542)">
<path d="M903.943 219.84H317.02L434.656 1325.75C568.522 1427.91 725.287 1368.31 786.936 1325.75L903.943 219.84Z" fill="#F2FDE9"/>
<path d="M609.245 1397.49C517.735 1397.49 420.952 1369.57 420.952 1318.08V1316.53C420.952 1316.53 420.952 1315.6 420.952 1315.29C420.952 1267.83 304.316 234.539 303.385 224.302L301.834 211.273H916.967L915.416 224.302C914.175 234.849 797.849 1267.83 797.849 1315.29V1316.53C797.849 1316.53 797.849 1317.46 797.849 1317.77C797.849 1369.26 700.755 1397.18 609.556 1397.18L609.245 1397.49ZM444.217 1318.7C445.458 1344.76 515.564 1373.91 609.245 1373.91C702.927 1373.91 773.033 1345.07 774.273 1318.7C774.273 1318.39 774.273 1317.77 774.273 1317.46V1316.84V1314.67C774.273 1269.07 876.33 361.102 890.6 235.159H328.201C342.471 361.412 444.527 1269.38 444.527 1315.6C444.527 1315.6 444.527 1315.91 444.527 1316.53V1317.15V1319.01L444.217 1318.7Z" fill="#F2FDE9"/>
<path d="M548.414 1130.1C547.174 1122.04 417.509 305.893 371.288 152.032C330.342 14.9222 247.828 36.9466 244.415 38.1875L10.212 105.191L0.595703 71.3792L234.489 4.0651C234.489 4.0651 274.505 -7.72262 317.313 15.2324C357.019 36.3262 386.799 79.1343 405.411 141.795C452.251 298.138 578.194 1091.02 583.467 1124.52L548.725 1130.1H548.414Z" fill="#F2FDE9"/>
<path d="M858.026 316.715H362.941C362.941 316.715 461.896 1194.28 461.896 1235.23C461.896 1235.54 461.896 1236.16 461.896 1236.47C461.896 1236.78 461.896 1237.09 461.896 1237.4C461.896 1268.73 528.28 1294.17 610.484 1294.17C692.687 1294.17 759.071 1268.73 759.071 1237.4C759.071 1237.09 759.071 1236.78 759.071 1236.47C759.071 1236.16 759.071 1235.54 759.071 1235.23C759.071 1194.28 858.026 316.715 858.026 316.715Z" fill="#00D9D4"/>
</g>
<defs>
<clipPath id="clip0_4136_542">
<rect width="916.34" height="1396.53" fill="white" transform="translate(0.597656 0.921875)"/>
</clipPath>
</defs>
</svg>
