<svg width="943" height="954" viewBox="0 0 943 954" fill="none" xmlns="http://www.w3.org/2000/svg">
<g clip-path="url(#clip0_4124_809)">
<path d="M455.584 953.56C424.862 953.56 348.439 951.114 301.974 927.882C248.784 901.287 118.712 826.239 58.1848 702.587C1.9375 587.8 -15.1812 445.806 15.3879 348.902C44.123 257.958 170.068 98.3873 185.2 84.4783C203.541 67.6652 330.709 17.5318 404.381 4.5399C419.054 1.94152 430.823 0.71875 440.758 0.71875C456.654 0.71875 464.908 4.08136 471.48 7.29112C471.939 7.59681 472.55 7.74966 473.009 8.05535C486.917 10.1952 630.593 41.0701 680.573 66.7482C697.845 75.6132 709.155 80.81 718.479 85.2425C734.681 92.732 743.698 96.8588 759.9 109.086C784.05 127.122 846.717 183.828 869.185 213.633C891.653 243.591 934.909 341.412 939.953 380.082C945.761 423.185 950.346 623.413 864.752 743.55C818.746 808.203 757.455 854.21 714.046 881.417C664.83 912.292 623.409 929.257 610.723 930.939C594.062 933.231 582.14 935.371 544.693 945.459C526.199 950.503 492.114 953.56 455.431 953.56H455.584Z" fill="#635D2F"/>
<path d="M455.564 920.992C395.496 920.992 344.904 912.891 316.475 898.676C266.341 873.609 143.453 802.842 87.3586 688.055C35.391 581.979 18.5779 446.558 46.3959 358.519C72.9911 274.301 193.434 120.996 207.19 108.31C218.195 98.8336 335.886 49.6172 410.169 36.3196C422.702 34.027 432.943 32.957 440.891 32.957C450.673 32.957 454.036 34.6383 457.551 36.3196C460.455 37.6953 463.971 39.3766 469.015 39.9879C477.88 41.0579 620.791 72.2384 666.033 95.3181C683.763 104.336 695.991 110.144 705.009 114.271C720.599 121.455 727.019 124.512 740.622 134.6C763.09 151.565 823.617 206.437 843.334 232.727C862.44 258.252 903.556 351.335 907.988 383.891C912.421 417.517 918.382 612.09 838.596 724.279C754.531 842.123 617.122 896.689 606.882 898.37C588.082 900.816 574.173 903.567 536.725 913.808C521.135 918.088 489.496 920.839 456.023 920.839L455.564 920.992Z" fill="#B1CF5C"/>
<path d="M412.786 371.226C406.672 373.519 385.732 332.25 372.893 319.411C364.028 310.546 396.737 359.916 393.069 381.314C388.789 406.075 326.581 291.593 293.566 292.663C268.041 293.428 393.375 401.031 386.344 408.062C379.313 415.093 341.713 390.638 326.581 377.34C311.449 364.042 269.111 322.316 253.521 326.901C237.93 331.486 312.672 375.659 336.974 393.542C361.277 411.578 385.121 422.582 372.282 428.391C359.596 434.199 302.126 414.482 274.919 400.573C247.712 386.664 212.864 356.553 187.338 346.618C161.813 336.683 168.844 362.82 206.444 380.855C244.197 398.891 327.039 426.098 350.272 440.618C373.505 455.139 350.272 459.113 321.231 452.235C292.191 445.204 233.651 425.486 183.212 426.098C132.772 426.709 158.909 449.942 173.888 449.33C189.02 448.719 273.085 450.553 308.392 455.75C343.7 460.947 362.958 465.532 354.857 473.786C346.757 481.887 269.569 488.306 244.044 488.306C218.519 488.306 187.186 487.083 151.267 499.922C115.348 512.609 140.262 528.352 180.307 515.513C220.353 502.826 346.757 480.205 356.539 485.402C366.321 490.599 339.114 510.316 306.711 518.417C274.308 526.518 204.61 549.139 172.207 565.952C139.803 582.765 172.818 601.259 193.605 585.669C214.545 570.079 276.6 534.618 313.131 522.391C349.661 510.163 367.697 499.158 373.505 503.896C379.313 508.635 379.466 517.5 360.513 525.753C335.752 536.605 309.921 558.615 244.656 588.573C215.921 601.718 211.182 623.269 220.812 629.689C230.135 635.802 248.018 614.251 261.927 601.871C274.155 591.019 298.304 567.327 330.096 557.392C362.041 547.457 379.007 530.492 385.885 534.007C392.916 537.522 394.597 546.693 378.396 557.24C362.194 567.633 255.966 644.82 232.275 669.123C208.431 693.425 241.599 694.648 252.604 680.739C263.608 666.83 302.431 624.492 316.34 615.168C330.249 605.845 371.365 576.345 380.688 568.245C390.012 560.144 402.087 560.755 393.986 571.76C385.885 582.765 337.127 632.134 316.34 648.336C295.4 664.537 254.896 702.29 262.997 716.199C271.098 730.108 319.244 682.573 332.542 659.952C345.84 637.331 385.885 592.088 398.113 579.861C410.341 567.633 420.734 572.83 414.314 586.28C407.895 599.731 377.784 647.724 360.971 668.053C344.158 688.381 303.501 743.406 303.501 763.734C303.501 784.063 329.026 769.543 331.319 760.219C333.612 750.895 366.168 681.35 381.758 658.729C397.349 636.108 419.511 586.892 428.682 587.35C438.006 587.962 436.171 597.132 434.49 611.194C432.809 625.103 414.162 673.861 399.641 708.557C385.121 743.253 364.792 782.84 368.919 801.946C373.046 821.052 397.96 810.047 402.545 777.032C407.131 744.017 415.232 695.871 424.555 673.861C433.879 651.851 437.853 633.204 441.98 607.679C446.106 582.153 450.692 584.446 450.692 596.674C450.692 608.902 440.91 665.149 438.464 692.967C436.171 720.785 432.656 793.845 444.884 802.557C457.111 811.269 468.116 782.229 459.404 744.629C450.692 706.876 455.889 591.019 460.627 588.115C465.365 585.21 462.308 603.246 466.435 603.705C470.562 604.316 470.562 588.573 473.466 591.019C476.37 593.311 483.859 676.918 483.859 697.094C483.859 717.269 484.012 757.773 488.75 768.473C497.463 788.343 517.18 772.599 506.786 750.437C496.393 728.427 498.533 712.225 498.991 688.993C499.602 665.76 482.178 620.059 484.471 603.093C486.763 586.28 491.96 583.376 497.768 594.381C503.577 605.386 523.294 663.926 528.49 687.159C533.687 710.391 549.889 777.643 565.021 795.526C580.152 813.562 604.455 798.43 595.131 782.229C585.808 766.027 556.92 733.012 550.5 705.042C544.081 677.224 529.102 655.214 523.294 638.859C517.485 622.505 503.576 586.739 514.581 580.319C525.586 573.9 535.521 599.425 544.081 621.435C552.793 643.445 565.479 672.485 579.999 687.617C594.52 702.749 610.11 761.289 631.05 772.294C651.99 783.299 658.868 762.97 639.151 739.89C619.434 716.658 591.616 684.866 587.489 664.537C583.362 644.209 560.282 632.593 548.666 607.067C537.05 581.542 532.464 569.926 538.884 569.926C545.303 569.926 552.181 573.441 559.824 579.249C567.313 585.058 599.258 631.981 618.975 650.628C638.692 669.123 667.122 728.274 681.642 746.921C696.162 765.569 709.46 746.921 699.066 730.72C688.673 714.518 658.409 681.503 649.239 664.079C639.915 646.654 631.814 633.357 617.294 621.129C602.773 608.902 561.047 575.275 559.365 567.786C557.684 560.297 573.274 565.493 579.694 571.301C586.113 577.11 656.269 647.266 668.956 651.393C681.642 655.52 699.678 678.141 716.491 694.954C733.304 711.767 733.304 699.081 729.788 693.731C726.273 688.534 683.323 653.685 679.349 649.711C675.222 645.585 676.292 635.802 663.148 626.479C616.682 594.075 581.986 563.201 579.082 554.641C579.082 554.641 574.803 540.732 593.756 549.597C612.708 558.462 683.782 599.425 691.883 605.997C699.983 612.57 720.465 614.098 745.226 625.715C769.987 637.331 776.559 648.489 786.188 643.903C795.818 639.318 793.984 634.274 768 621.893C742.169 609.513 720.77 612.57 711.905 602.941C703.04 593.311 704.569 592.547 690.201 582.459C675.834 572.371 588.1 545.012 584.738 536.911C581.222 528.81 583.515 523.308 597.118 525.295C610.721 527.282 648.933 542.261 672.93 548.833C696.926 555.405 695.398 550.362 733.304 566.563C771.21 582.765 765.707 568.092 761.122 564.271C756.536 560.449 715.115 554.641 705.486 549.903C695.857 545.318 683.018 536.3 661.772 531.409C640.526 526.518 589.934 515.513 589.476 507.106C589.017 498.547 591.769 492.739 614.543 493.197C637.317 493.656 656.728 495.184 666.357 500.534C675.987 505.883 708.848 510.163 726.273 505.119C743.697 500.075 766.166 504.661 766.166 497.018C766.166 489.376 742.933 495.49 731.317 490.905C719.701 486.319 712.364 483.109 694.634 482.039C676.904 480.97 674.458 487.848 652.448 485.096C630.439 482.345 596.812 483.874 591.004 475.467C585.196 466.908 598.035 452.693 618.058 450.706C638.234 448.719 664.523 450.247 690.354 452.693C716.185 454.986 716.185 441.841 737.889 441.841C759.593 441.841 782.367 444.134 785.883 440.313C789.398 436.491 784.354 427.932 767.694 429.155C751.034 430.378 731.775 436.491 724.439 434.504C717.102 432.517 711.753 425.181 694.328 424.875C676.904 424.417 643.278 440.007 619.281 441.841C595.284 443.828 603.385 427.932 618.517 423.347C633.648 418.761 672.318 405.617 693.564 395.529C714.809 385.441 724.897 382.384 758.523 376.576C792.149 370.768 799.486 358.387 795.665 353.343C791.844 348.299 770.14 353.343 753.938 364.96C737.736 376.576 731.928 375.812 707.931 380.397C683.935 384.982 627.076 416.774 616.682 417.538C606.289 418.303 592.686 417.997 615.46 399.808C638.234 381.62 667.58 360.374 678.432 351.051C689.284 341.727 703.957 321.246 724.439 312.839C744.92 304.28 745.379 293.122 740.335 286.091C735.291 279.06 722.146 291.135 713.587 301.528C705.027 311.922 686.074 318.953 672.93 329.041C659.785 339.129 608.429 404.088 594.52 406.686C580.611 409.438 587.947 382.69 610.416 355.636C632.884 328.582 655.964 307.642 661.772 297.707C667.58 287.772 697.385 250.478 712.822 242.377C728.26 234.276 727.19 214.865 720.159 207.987C713.128 200.956 696.926 213.031 684.546 228.927C672.165 244.823 663.606 273.711 638.539 296.637C613.473 319.411 580.152 393.236 565.479 397.21C552.334 400.725 543.775 390.179 562.728 351.203C581.681 312.228 607.512 277.379 607.97 267.291C608.429 257.203 616.071 237.945 628.146 229.08C640.221 220.214 661.008 183.837 649.391 172.679C637.775 161.522 613.014 195.912 604.913 214.865C596.812 233.818 597.882 247.727 582.139 264.387C566.396 281.047 541.177 381.161 531.089 386.969C521.001 392.777 510.455 395.07 502.048 381.925C495.934 372.296 528.337 317.424 533.381 305.044C538.425 292.663 539.19 261.789 553.557 246.657C567.925 231.525 583.362 191.785 573.733 181.697C564.103 171.609 543.622 172.374 533.076 202.179C522.682 231.984 533.534 238.097 520.695 274.016C507.856 309.935 509.843 312.228 502.507 338.517C495.17 364.807 489.362 380.244 482.025 378.41C476.981 377.034 484.012 313.909 492.419 280.283C500.978 246.657 507.55 229.997 502.812 213.795C498.074 197.593 524.822 157.395 517.485 132.939C510.149 108.637 480.802 118.266 477.287 141.499C473.772 164.731 485.082 202.943 482.331 214.253C479.58 225.411 476.217 232.442 473.466 272.946C470.715 313.603 463.378 369.545 458.793 372.296C454.207 375.047 453.749 281.811 448.399 260.107C443.661 241.001 451.15 217.158 452.679 206C454.207 194.842 455.43 170.387 441.063 166.566C426.695 162.744 419.053 189.798 422.568 211.349C426.084 233.054 438.617 250.325 435.254 264.387C430.669 284.563 446.565 361.75 436.019 364.195C432.503 364.96 421.651 353.038 415.843 325.525C410.035 298.013 410.035 268.361 403.462 253.688C396.89 239.014 403.462 214.253 399.947 192.244C396.432 170.234 368.308 173.749 365.557 191.021C362.805 208.445 386.649 241.154 387.261 256.745C388.484 288.078 418.594 370.003 412.328 372.296L412.786 371.226Z" fill="#CBDE92"/>
<path d="M745.661 511.71C734.962 508.501 724.11 512.933 721.664 521.492C719.219 530.052 725.944 539.375 736.643 542.585C747.342 545.795 758.195 541.362 760.64 532.803C763.086 524.244 756.36 514.92 745.661 511.71Z" fill="#261E1C"/>
<path d="M677.204 509.56C670.173 506.35 662.378 508.184 659.933 513.687C657.487 519.189 661.003 526.373 667.881 529.583C674.912 532.792 682.707 530.958 685.152 525.456C687.598 519.953 684.082 512.77 677.204 509.56Z" fill="#261E1C"/>
<path d="M653.366 457.589C645.877 459.576 641.139 465.995 642.667 471.956C644.196 477.917 651.532 480.974 659.022 478.987C666.511 477 671.249 470.581 669.721 464.62C668.192 458.659 660.856 455.602 653.366 457.589Z" fill="#261E1C"/>
<path d="M720.6 452.402C710.36 452.096 701.8 458.21 701.495 466.311C701.189 474.411 709.29 481.289 719.531 481.595C729.771 481.901 738.331 475.787 738.636 467.686C738.942 459.585 730.841 452.707 720.6 452.402Z" fill="#261E1C"/>
<path d="M723.673 395.24C714.044 398.602 708.388 407.467 710.987 415.11C713.585 422.752 723.673 426.114 733.302 422.752C742.932 419.389 748.587 410.524 745.988 402.882C743.39 395.24 733.302 391.877 723.673 395.24Z" fill="#261E1C"/>
<path d="M681.166 353.025C672.606 358.527 669.091 368.462 673.371 375.34C677.65 382.219 688.197 383.288 696.909 377.786C705.468 372.284 708.984 362.349 704.704 355.47C700.424 348.592 689.878 347.523 681.166 353.025Z" fill="#261E1C"/>
<path d="M681.645 280.565C674.767 289.277 674.92 300.893 681.798 306.243C688.676 311.592 699.834 308.841 706.712 300.129C713.59 291.417 713.437 279.8 706.559 274.451C699.681 269.101 688.523 271.852 681.645 280.565Z" fill="#261E1C"/>
<path d="M619.721 262.721C614.218 271.586 615.288 282.133 622.013 286.26C628.739 290.386 638.521 286.565 644.023 277.7C649.526 268.835 648.456 258.289 641.731 254.162C635.005 250.035 625.223 253.856 619.721 262.721Z" fill="#261E1C"/>
<path d="M499.755 262.084C498.838 269.573 502.812 276.298 508.467 276.91C514.122 277.521 519.472 272.019 520.389 264.376C521.306 256.887 517.332 250.162 511.677 249.55C506.022 248.939 500.672 254.441 499.755 262.084Z" fill="#261E1C"/>
<path d="M454.336 223.425C453.113 233.666 457.393 242.683 463.812 243.448C470.232 244.212 476.498 236.417 477.721 226.176C478.944 215.935 474.664 206.918 468.245 206.153C461.825 205.389 455.558 213.184 454.336 223.425Z" fill="#261E1C"/>
<path d="M410.162 260.089C411.691 268.802 418.263 274.916 424.683 273.693C431.102 272.47 434.923 264.522 433.395 255.81C431.866 247.098 425.294 240.984 418.874 242.206C412.455 243.429 408.634 251.377 410.162 260.089Z" fill="#261E1C"/>
<path d="M367.676 294.472C370.581 302.114 377.611 306.547 383.267 304.254C389.075 302.114 391.368 294.166 388.464 286.524C385.559 278.881 378.529 274.449 372.873 276.742C367.065 278.881 364.772 286.829 367.676 294.472Z" fill="#261E1C"/>
<path d="M323.658 305.496C329.313 313.138 338.484 315.889 344.292 311.61C350.1 307.33 350.253 297.701 344.751 290.058C339.095 282.416 329.925 279.665 324.116 283.945C318.308 288.224 318.155 297.853 323.658 305.496Z" fill="#261E1C"/>
<path d="M280.579 400.115C292.195 406.993 305.493 405.77 310.384 397.516C315.275 389.263 309.772 377.035 298.156 370.157C286.54 363.279 273.242 364.502 268.351 372.755C263.46 381.009 268.962 393.237 280.579 400.115Z" fill="#261E1C"/>
<path d="M285.161 519.934C294.637 517.642 301.057 510.152 299.375 503.427C297.694 496.702 288.676 493.033 279.047 495.479C269.57 497.772 263.151 505.261 264.832 511.986C266.513 518.712 275.531 522.38 285.161 519.934Z" fill="#261E1C"/>
<path d="M344.314 530.158C351.345 528.477 356.236 523.586 355.166 519.306C354.096 515.026 347.524 513.039 340.493 514.721C333.462 516.402 328.571 521.293 329.641 525.573C330.711 529.852 337.283 531.839 344.314 530.158Z" fill="#261E1C"/>
<path d="M295.708 560.27C306.255 555.226 312.215 545.597 309.006 538.872C305.796 532.146 294.638 530.924 283.939 535.968C273.24 541.012 267.432 550.641 270.641 557.366C273.851 564.091 285.009 565.314 295.708 560.27Z" fill="#261E1C"/>
<path d="M314.189 600.923C326.111 592.517 332.072 580.442 327.487 573.87C322.902 567.297 309.451 568.826 297.529 577.079C285.607 585.486 279.646 597.561 284.232 604.133C288.817 610.705 302.267 609.177 314.189 600.923Z" fill="#261E1C"/>
<path d="M411.852 674.792C418.271 661.8 417.507 648.044 410.017 644.376C402.528 640.708 391.065 648.197 384.645 661.342C378.225 674.334 378.99 688.09 386.479 691.758C393.969 695.426 405.432 687.937 411.852 674.792Z" fill="#261E1C"/>
<path d="M482.325 683.333C481.255 670.647 474.53 661.018 467.346 661.629C460.162 662.241 455.271 672.94 456.494 685.626C457.717 698.312 464.289 707.941 471.473 707.33C478.657 706.719 483.548 696.019 482.325 683.333Z" fill="#261E1C"/>
<path d="M531.833 708.422C529.999 694.665 521.898 684.425 513.491 685.495C505.085 686.565 499.735 698.64 501.569 712.396C503.403 726.152 511.504 736.392 519.911 735.323C528.317 734.253 533.667 722.178 531.833 708.422Z" fill="#261E1C"/>
<path d="M547.732 636.232C544.37 627.214 537.186 621.559 531.684 623.546C526.181 625.686 524.5 634.551 527.862 643.722C531.225 652.739 538.409 658.395 543.911 656.408C549.414 654.268 551.095 645.403 547.732 636.232Z" fill="#261E1C"/>
<path d="M630.131 668.359C622.183 656.437 610.414 650.323 603.841 654.603C597.269 659.035 598.492 672.18 606.44 684.102C614.388 696.024 626.157 702.138 632.729 697.858C639.302 693.426 638.079 680.281 630.131 668.359Z" fill="#261E1C"/>
<path d="M687.122 606.149C676.576 596.519 663.737 593.31 658.387 599.118C653.037 604.926 657.317 617.459 667.863 627.241C678.41 636.871 691.249 640.081 696.598 634.272C701.948 628.464 697.668 615.931 687.122 606.149Z" fill="#261E1C"/>
<path d="M235.78 302.109C227.985 291.869 214.687 288.965 206.281 295.537C197.874 302.109 197.263 315.56 205.058 325.801C212.853 336.041 226.151 338.945 234.557 332.373C243.117 325.801 243.575 312.35 235.78 302.109Z" fill="#261E1C"/>
<path d="M577.393 325.83C573.419 335.001 576.17 345.089 583.507 348.146C590.843 351.355 600.014 346.464 603.988 337.294C607.962 328.123 605.211 318.035 597.874 314.978C590.538 311.768 581.367 316.659 577.393 325.83Z" fill="#261E1C"/>
</g>
<defs>
<clipPath id="clip0_4124_809">
<rect width="942.142" height="952.841" fill="white" transform="translate(0.396484 0.71875)"/>
</clipPath>
</defs>
</svg>
