<svg width="783" height="1339" viewBox="0 0 783 1339" fill="none" xmlns="http://www.w3.org/2000/svg">
<path d="M465.257 481.766V196.781H472.64C484.453 196.781 494.051 187.183 494.051 175.37V94.8952C494.051 83.0823 484.453 73.4844 472.64 73.4844H311.69C299.877 73.4844 290.279 83.0823 290.279 94.8952V175.37C290.279 187.183 299.877 196.781 311.69 196.781H319.073V481.766C111.61 514.252 38.5176 636.81 38.5176 854.609C38.5176 975.691 116.778 1199.4 167.721 1306.45H617.348C668.291 1199.4 746.551 975.691 746.551 854.609C746.551 637.548 673.459 514.99 465.995 481.766H465.257Z" fill="#C19D67"/>
<circle cx="393.104" cy="894.774" r="190.668" fill="#FFEDD8"/>
<path d="M366.071 758.745C378.339 737.497 409.008 737.497 421.276 758.745L525.772 939.738C538.04 960.986 522.705 987.547 498.169 987.547H289.178C264.642 987.547 249.307 960.986 261.575 939.738L366.071 758.745Z" fill="#FFEDD8" stroke="#9F4D2C" stroke-width="4.55327"/>
<path d="M308.868 894.841C310.433 895.03 311.856 895.173 313.136 895.268C314.37 895.362 315.437 895.457 316.338 895.552C317.381 895.647 318.306 895.718 319.113 895.766C319.966 895.766 321.057 895.742 322.385 895.694C323.524 895.647 324.97 895.576 326.725 895.481C328.48 895.386 330.638 895.22 333.199 894.983C331.966 895.694 330.946 896.406 330.14 897.117C329.381 897.829 328.788 898.469 328.361 899.038C327.84 899.702 327.46 900.366 327.223 901.03C327.081 901.931 327.128 903.686 327.365 906.295C327.46 907.386 327.603 908.738 327.792 910.35C328.029 911.915 328.314 913.789 328.646 915.971C329.026 918.105 329.476 920.571 329.998 923.37C330.567 926.168 331.207 929.346 331.919 932.903C332.867 930.2 333.65 927.804 334.267 925.718C334.883 923.583 335.405 921.757 335.832 920.239C336.306 918.532 336.709 917.014 337.041 915.686C337.373 914.311 337.776 912.532 338.251 910.35C338.63 908.5 339.128 906.105 339.745 903.165C340.361 900.224 341.12 896.596 342.021 892.279L344.583 892.635C344.82 896.003 345.057 898.967 345.294 901.528C345.579 904.089 345.816 906.271 346.005 908.074C346.195 910.161 346.385 911.963 346.575 913.481C346.764 914.856 347.049 916.445 347.428 918.247C347.76 919.765 348.187 921.639 348.709 923.868C349.231 926.05 349.918 928.516 350.772 931.267C351.626 927.899 352.385 924.887 353.049 922.231C353.76 919.575 354.353 917.228 354.827 915.188C355.349 913.149 355.776 911.394 356.108 909.923C356.487 908.453 356.796 907.22 357.033 906.224C357.555 903.852 357.863 902.263 357.958 901.457C357.91 900.556 357.697 899.679 357.317 898.825C356.985 898.066 356.464 897.236 355.752 896.335C355.041 895.434 353.997 894.556 352.622 893.702C355.515 893.797 357.863 893.868 359.665 893.916C361.515 893.916 362.985 893.916 364.076 893.916H366.922H369.483C370.432 893.916 371.665 893.916 373.183 893.916C374.748 893.868 376.74 893.797 379.159 893.702C377.072 894.793 375.388 895.789 374.108 896.69C372.827 897.592 371.831 898.35 371.12 898.967C370.266 899.726 369.649 900.366 369.27 900.888C368.89 901.837 368.274 903.971 367.42 907.291C367.041 908.714 366.614 910.493 366.139 912.627C365.665 914.714 365.096 917.228 364.432 920.168C363.815 923.109 363.104 926.548 362.298 930.484C361.491 934.373 360.59 938.832 359.594 943.859L347.286 942.579L342.021 920.453C341.215 924.484 340.575 927.757 340.1 930.271C339.626 932.737 339.27 934.658 339.033 936.034C338.749 937.694 338.583 938.903 338.535 939.662C338.488 940.326 338.44 940.966 338.393 941.583C338.345 942.105 338.274 942.674 338.179 943.29C338.132 943.907 338.061 944.476 337.966 944.998H325.373C324.14 939.591 323.026 934.824 322.03 930.698C321.081 926.524 320.227 922.872 319.468 919.741C318.71 916.611 318.045 913.955 317.476 911.773C316.955 909.591 316.48 907.765 316.053 906.295C315.105 902.88 314.417 900.769 313.99 899.963C313.658 899.584 313.231 899.133 312.71 898.611C312.283 898.184 311.761 897.663 311.144 897.046C310.48 896.382 309.722 895.647 308.868 894.841ZM371.475 913.054L384.566 913.196C383.807 916.089 383.238 918.556 382.858 920.595C382.526 922.635 382.313 924.342 382.218 925.718C382.028 927.283 381.981 928.611 382.076 929.702C382.218 930.698 382.455 931.765 382.787 932.903C383.072 933.852 383.499 934.943 384.068 936.176C384.637 937.409 385.396 938.642 386.345 939.875C385.775 939.686 385.159 939.543 384.495 939.448C383.831 939.354 383.214 939.282 382.645 939.235C381.981 939.188 381.317 939.188 380.653 939.235C379.989 939.282 379.254 939.354 378.447 939.448C377.783 939.543 376.977 939.662 376.029 939.804C375.08 939.946 374.084 940.136 373.04 940.373C373.752 938.239 374.297 936.389 374.677 934.824C375.104 933.259 375.412 931.955 375.602 930.911C375.791 929.678 375.91 928.682 375.957 927.923C375.957 926.974 375.957 925.907 375.957 924.721C375.957 923.488 375.957 922.303 375.957 921.164C375.957 920.026 375.934 919.03 375.886 918.176C375.839 917.275 375.744 916.706 375.602 916.469L374.89 915.757C374.606 915.52 374.179 915.188 373.61 914.761C373.088 914.287 372.376 913.718 371.475 913.054ZM376.527 902.097C377.523 901.576 378.519 901.433 379.515 901.671C380.558 901.908 381.364 902.358 381.934 903.022C382.503 903.686 382.692 904.469 382.503 905.37C382.36 906.271 381.602 907.149 380.226 908.002C378.851 908.809 377.641 909.093 376.598 908.856C375.554 908.619 374.819 908.121 374.392 907.362C373.965 906.603 373.894 905.726 374.179 904.73C374.463 903.686 375.246 902.809 376.527 902.097ZM391.111 937.03C391.443 935.464 391.68 934.089 391.823 932.903C392.012 931.67 392.155 930.65 392.25 929.844C392.344 928.895 392.392 928.089 392.392 927.425C392.344 926.619 392.297 925.67 392.25 924.579C392.25 923.441 392.202 922.326 392.107 921.235C392.06 920.097 391.989 919.101 391.894 918.247C391.799 917.346 391.68 916.706 391.538 916.326C391.348 915.947 391.087 915.544 390.755 915.117C390.091 914.311 389.119 913.528 387.839 912.769C388.929 912.532 389.854 912.342 390.613 912.2C391.42 912.01 392.084 911.844 392.605 911.702C393.174 911.512 393.672 911.346 394.099 911.204C394.479 911.062 394.929 910.919 395.451 910.777C395.878 910.682 396.4 910.564 397.016 910.421C397.633 910.279 398.344 910.113 399.151 909.923L398.937 916.398C400.455 914.595 401.996 913.243 403.562 912.342C405.127 911.441 406.597 910.801 407.973 910.421C409.538 909.947 411.079 909.71 412.597 909.71C414.494 909.805 416.249 910.113 417.862 910.635C419.522 911.157 420.945 911.773 422.13 912.485C423.364 913.149 424.36 913.86 425.118 914.619C425.877 915.378 426.328 916.042 426.47 916.611C427.039 918.461 427.182 920.168 426.897 921.733C426.612 923.251 426.233 924.745 425.759 926.216C425.332 927.638 424.952 929.061 424.62 930.484C424.336 931.907 424.454 933.449 424.976 935.109C425.166 935.535 425.356 935.962 425.545 936.389C425.735 936.769 425.972 937.148 426.257 937.528C426.541 937.907 426.873 938.215 427.253 938.452C426.731 938.405 426.209 938.381 425.688 938.381C425.166 938.334 424.692 938.286 424.265 938.239C423.743 938.192 423.269 938.144 422.842 938.097C422.367 938.049 421.727 938.026 420.921 938.026C419.545 938.026 417.411 938.097 414.518 938.239C414.945 937.243 415.277 936.413 415.514 935.749C415.798 935.037 416.036 934.468 416.225 934.041C416.415 933.52 416.557 933.117 416.652 932.832C417.221 931.457 417.553 929.891 417.648 928.136C417.791 926.382 417.672 924.603 417.292 922.801C417.15 922.184 416.913 921.449 416.581 920.595C416.249 919.741 415.798 918.911 415.229 918.105C414.708 917.299 414.067 916.611 413.308 916.042C412.597 915.473 411.767 915.141 410.818 915.046C409.87 914.951 408.803 915.188 407.617 915.757C406.478 916.326 405.245 917.37 403.917 918.888C402.921 920.168 402.139 921.733 401.569 923.583C401.048 925.148 400.692 927.117 400.502 929.488C400.313 931.812 400.597 934.539 401.356 937.67C400.692 937.575 400.075 937.528 399.506 937.528C398.937 937.48 398.463 937.433 398.083 937.385C397.609 937.338 397.182 937.29 396.803 937.243C396.376 937.243 395.902 937.219 395.38 937.172C394.906 937.172 394.313 937.172 393.601 937.172C392.89 937.124 392.06 937.077 391.111 937.03ZM450.09 933.401C451.418 933.401 452.651 933.259 453.79 932.974C454.738 932.737 455.64 932.358 456.493 931.836C457.394 931.267 457.987 930.437 458.272 929.346C459.22 929.536 460.027 929.702 460.691 929.844C461.355 929.939 461.924 930.034 462.398 930.128C462.92 930.271 463.371 930.366 463.75 930.413C464.129 930.508 464.58 930.603 465.102 930.698C465.576 930.793 466.145 930.911 466.809 931.053C467.521 931.148 468.351 931.291 469.299 931.48C468.588 931.385 467.853 931.457 467.094 931.694C466.382 931.931 465.695 932.192 465.031 932.476C464.272 932.808 463.56 933.211 462.896 933.686C462.469 933.97 461.971 934.397 461.402 934.966C460.881 935.535 460.122 936.081 459.126 936.603C458.13 937.124 456.802 937.575 455.142 937.954C453.529 938.286 451.442 938.405 448.881 938.31C445.798 938.215 443.213 937.67 441.126 936.674C439.039 935.63 437.355 934.373 436.075 932.903C434.794 931.385 433.869 929.749 433.3 927.994C432.731 926.239 432.423 924.603 432.375 923.085C432.328 921.567 432.778 919.979 433.727 918.318C434.676 916.658 436.004 915.141 437.711 913.765C439.466 912.39 441.577 911.275 444.043 910.421C446.509 909.52 449.213 909.07 452.153 909.07C453.861 909.07 455.426 909.283 456.849 909.71C458.319 910.089 459.647 910.611 460.833 911.275C462.066 911.939 463.133 912.698 464.035 913.552C464.936 914.358 465.695 915.188 466.311 916.042C466.928 916.943 467.45 917.892 467.876 918.888C468.256 919.741 468.564 920.714 468.801 921.805C469.038 922.895 469.11 924.01 469.015 925.148C465.41 925.243 462.493 925.314 460.264 925.362C458.082 925.409 456.375 925.433 455.142 925.433H451.94H449.521C448.667 925.433 447.553 925.457 446.177 925.504C444.802 925.552 443.118 925.623 441.126 925.718C441.363 927.615 441.956 929.085 442.905 930.128C443.901 931.125 444.944 931.883 446.035 932.405C447.268 932.974 448.62 933.306 450.09 933.401ZM443.687 920.595C445.205 920.69 446.462 920.761 447.458 920.809C448.501 920.856 449.355 920.903 450.019 920.951C450.731 920.998 451.3 921.022 451.727 921.022H453.505C454.691 921.022 456.896 920.951 460.122 920.809C459.979 918.722 459.529 917.133 458.77 916.042C458.058 914.951 457.3 914.145 456.493 913.623C455.545 913.054 454.501 912.722 453.363 912.627C450.28 912.674 447.98 913.315 446.462 914.548C444.992 915.781 444.067 917.797 443.687 920.595Z" fill="black"/>
</svg>
