<svg width="1357" height="1043" viewBox="0 0 1357 1043" fill="none" xmlns="http://www.w3.org/2000/svg">
<g clip-path="url(#clip0_4121_766)">
<path d="M925.252 237.773C844.149 310.354 779.38 398.984 704.669 478.24C581.666 608.772 431.534 713.736 266.63 784.328C245.751 793.277 224.161 801.941 208.111 817.849C170.898 854.494 176.721 920.683 210.81 960.169C244.898 999.797 299.44 1016.27 351.71 1018.4C493.746 1024.23 622.573 939.716 732.793 850.091C848.41 755.921 956.073 651.951 1054.22 539.742C1122.26 462.048 1197.25 363.191 1189.86 253.823C1179.21 94.6008 998.258 172.153 925.252 237.631V237.773Z" fill="#DF005F"/>
<path d="M1200.56 21.3082C1206.95 11.9338 1220.16 -4.68445 1231.8 1.28107C1239.47 5.25808 1241.18 14.3484 1241.46 22.1604C1241.75 39.9149 1235.64 58.3796 1229.1 74.8558C1226.41 81.6735 1223.28 88.3492 1220.01 95.0249C1204.96 126.699 1189.9 158.515 1169.17 186.922C1160.79 198.427 1152.69 192.178 1150.13 180.957C1148.43 173.145 1149.56 164.481 1150.7 156.669C1156.24 121.302 1171.3 87.497 1184.36 54.4026C1188.62 43.6078 1193.03 32.9551 1199.42 23.2967C1199.7 22.7285 1200.13 22.1604 1200.56 21.5922V21.3082Z" fill="#DF005F"/>
<path d="M1272.69 58.9303C1282.63 53.3909 1301.95 44.5846 1309.62 55.2373C1314.73 62.1971 1312.04 71.1454 1308.63 78.2472C1300.82 94.2973 1286.9 107.933 1273.69 119.438C1268.15 124.267 1262.32 128.812 1256.5 133.215C1228.8 154.521 1200.82 176.11 1169.43 191.876C1156.65 198.268 1152.39 189.035 1155.23 177.957C1157.22 170.145 1162.19 163.043 1166.87 156.509C1187.9 127.534 1216.59 104.24 1243.29 80.6618C1251.95 72.9918 1260.76 65.4639 1270.85 59.7825C1271.41 59.4984 1271.98 59.0723 1272.69 58.7882V58.9303Z" fill="#DF005F"/>
<path d="M1322.97 126.123C1334.33 126.549 1355.49 128.963 1356.49 142.031C1357.2 150.695 1350.38 156.945 1343.7 161.206C1328.79 170.864 1309.9 175.409 1292.43 178.534C1285.18 179.812 1277.8 180.665 1270.55 181.517C1235.75 185.494 1200.67 189.471 1165.73 186.914C1151.39 185.92 1152.52 175.693 1160.76 167.597C1166.58 161.916 1174.4 158.365 1181.78 155.24C1214.73 141.321 1251.38 136.207 1286.46 129.816C1297.82 127.685 1309.33 125.839 1320.83 126.123C1321.4 126.123 1322.11 126.123 1322.82 126.123H1322.97Z" fill="#DF005F"/>
<path d="M1186.76 218.56L1122.56 159.046C1113.89 150.95 1113.32 137.457 1121.42 128.651C1129.52 119.987 1143.01 119.418 1151.82 127.514L1216.02 187.028C1224.68 195.124 1225.25 208.617 1217.15 217.423C1209.06 226.088 1195.56 226.656 1186.76 218.56Z" fill="#B73F54"/>
<path d="M76.7446 1035.3C66.376 1040.13 46.4909 1047.51 39.6732 1036.29C35.1281 1028.91 38.3949 1020.24 42.2299 1013.42C51.1781 997.943 65.9499 985.443 80.0115 974.791C85.835 970.388 92.0845 966.269 98.1921 962.292C127.452 942.975 156.853 923.516 189.095 909.88C202.305 904.341 205.998 913.857 202.305 924.794C199.748 932.464 194.351 939.282 189.237 945.247C166.227 972.66 135.832 993.824 107.566 1015.41C98.3341 1022.37 88.9598 1029.33 78.5911 1034.3C78.023 1034.59 77.4548 1034.87 76.7446 1035.16V1035.3Z" fill="#DF005F"/>
<path d="M34.4134 965.841C23.0505 965.415 1.88713 963.001 0.892881 949.933C0.1827 941.269 7.00044 935.02 13.6761 930.758C28.5899 921.1 47.4807 916.555 64.9512 913.572C72.195 912.294 79.5809 911.442 86.8248 910.589C121.624 906.612 156.707 902.777 191.647 905.334C205.993 906.47 204.857 916.555 196.619 924.651C190.795 930.332 182.983 933.883 175.597 937.008C142.645 950.928 106 956.041 70.9167 962.433C59.5538 964.563 48.0489 966.409 36.544 966.125C35.9758 966.125 35.2656 966.125 34.5555 966.125L34.4134 965.841Z" fill="#DF005F"/>
<path d="M26.1904 882.462C16.674 876.213 -0.0862956 863.287 5.73719 851.498C9.57216 843.686 18.6625 841.84 26.6165 841.698C44.371 841.13 62.9778 847.095 79.454 853.345C86.2717 856.043 93.0894 859.026 99.7651 862.151C131.581 876.781 163.681 891.552 192.231 911.722C203.878 919.96 197.628 928.198 186.549 930.754C178.737 932.601 170.073 931.607 162.261 930.47C126.752 925.357 92.8054 910.869 59.5689 898.228C48.7741 894.109 37.9794 889.848 28.1789 883.598C27.6108 883.314 27.0426 882.888 26.4745 882.462H26.1904Z" fill="#DF005F"/>
<path d="M190.661 873.647L214.808 957.875C218.074 969.238 211.541 981.169 200.036 984.436C188.673 987.702 176.742 981.169 173.475 969.664L149.329 885.436C146.062 874.074 152.596 862.143 164.101 858.876C175.464 855.609 187.395 862.143 190.661 873.647Z" fill="#B73F54"/>
</g>
<defs>
<clipPath id="clip0_4121_766">
<rect width="1355.74" height="1042.26" fill="white" transform="translate(0.867188 0.0117188)"/>
</clipPath>
</defs>
</svg>
