<svg width="861" height="1203" viewBox="0 0 861 1203" fill="none" xmlns="http://www.w3.org/2000/svg">
<g clip-path="url(#clip0_4136_558)">
<path d="M76.8594 1191.57L139.137 328.484H629.184L689.575 1191.57H76.8594Z" fill="#F1FDE9" stroke="black" stroke-width="1.25814"/>
<path d="M114.821 1085.88L114.801 1086.15V1086.42C114.801 1099.78 125.046 1111.31 138.668 1111.31H375.603V1194.71H85.6335C79.2923 1194.71 73.4938 1189.24 73.3693 1181.67L137.378 309.525H375.603V347.025H175.384H168.363L167.855 354.029L114.821 1085.88Z" stroke="#F1FDE9" stroke-width="15.0977"/>
<path d="M590.91 347.025H390.691V309.525H628.916L692.782 1179.71V1181.42C692.782 1189.12 686.926 1194.71 680.515 1194.71H390.691V1111.31H627.626C641.249 1111.31 651.494 1099.78 651.494 1086.42V1086.15L651.474 1085.88L598.439 354.029L597.932 347.025H590.91Z" stroke="#F1FDE9" stroke-width="15.0977"/>
<path d="M800.291 542.365C793.245 541.359 702.995 552.43 658.75 558.092V598.981C676.154 597.304 718.889 592.69 750.594 587.658C782.3 582.625 796.936 597.304 800.291 605.272C804.694 678.034 814.634 829.598 819.163 853.755C824.825 883.95 809.098 909.742 800.291 912.258C793.245 914.271 717.254 924.84 680.138 929.872L687.687 971.391L837.406 953.777C861.059 930.627 847.262 803.219 837.406 742.409C839.922 548.027 809.098 543.623 800.291 542.365L800.291 542.365Z" fill="#F1FDE9"/>
<path d="M758.522 585.684L758.518 585.685L655.444 596.259L652.361 555.363L787.005 541.512L787.122 541.649L791.06 541.253C808.942 539.456 826.669 555.129 828.431 579.317L828.432 579.33L852.996 908.341C852.996 908.345 852.997 908.349 852.997 908.353C854.763 932.667 839.507 952.089 821.434 953.905L821.426 953.906L821.417 953.907L683.234 968.122L680.151 927.23L783.628 916.614C805.861 914.343 820.382 891.961 818.676 868.912L818.676 868.909L800.562 625.86C798.848 602.701 780.97 583.392 758.522 585.684Z" stroke="#F1FDE9" stroke-width="15.0977"/>
<path d="M123.556 1115.64C123.556 1125.65 130.83 1133.69 139.851 1133.69H383.846V353.645H176.37L123.41 1115.64H123.556Z" fill="#FFEB67"/>
<path d="M629.165 1133.69C638.229 1133.69 645.539 1125.65 645.539 1115.64L592.323 353.645H383.846V1133.69H629.165Z" fill="#FBD743"/>
<g clip-path="url(#clip1_4136_558)">
<path d="M477.537 376.283C490.429 376.283 501.979 370.374 509.768 361.376C514.199 378.834 529.24 391.995 547.773 393.472C550.325 413.616 567.38 429.195 588.196 429.195C610.757 429.195 629.155 410.931 629.155 388.235V321.222C629.155 321.222 668.906 284.828 650.508 235.676C604.848 113.066 454.304 162.083 429.728 186.39C404.749 148.385 361.775 123.406 312.892 123.406C247.088 123.406 192.027 168.798 176.986 230.036C137.235 248.166 109.57 288.185 109.57 334.786C109.57 381.386 135.355 418.585 172.823 437.521V593.034C172.823 654.272 242.253 639.768 242.253 597.331V356.273C249.774 368.225 263.069 376.283 278.378 376.283C294.762 376.283 308.729 367.016 315.981 353.453C324.307 371.851 334.245 383.4 357.075 383.4C394.677 383.4 402.332 350.901 402.332 350.901V472.706C402.332 500.102 410.121 515.412 426.908 515.412C443.695 515.412 454.438 503.325 454.438 474.586V369.434C461.153 373.731 469.076 376.417 477.671 376.417L477.537 376.283Z" fill="#FFFED4"/>
</g>
</g>
<defs>
<clipPath id="clip0_4136_558">
<rect width="859.919" height="1202.17" fill="white" transform="translate(0.113281 0.109375)"/>
</clipPath>
<clipPath id="clip1_4136_558">
<rect width="545.773" height="510.856" fill="white" transform="translate(109.57 123.406)"/>
</clipPath>
</defs>
</svg>
