<svg width="876" height="990" viewBox="0 0 876 990" fill="none" xmlns="http://www.w3.org/2000/svg">
<g clip-path="url(#clip0_4121_794)">
<path d="M867.757 568.293C821.841 838.392 592.257 1024.76 354.956 984.631C117.656 944.116 -37.072 692.153 8.84471 422.054C54.7614 151.956 284.345 -34.4117 521.646 5.71719C758.946 46.2319 913.674 297.809 867.757 568.293Z" fill="#FBCA19"/>
<path d="M435.256 114.472C524.388 122.575 601.559 181.225 644.775 257.624C667.54 297.753 681.817 342.512 688.762 388.429C695.708 434.346 699.18 488.751 672.17 529.652C653.649 557.434 698.409 583.672 717.315 555.89C748.956 508.43 748.57 447.851 742.01 393.059C735.451 338.268 718.473 281.162 690.306 231.386C637.058 138.009 543.295 72.4141 435.642 62.3819C402.458 59.2951 402.458 111.385 435.642 114.472H435.256Z" fill="#FFFEFF"/>
<path d="M622.371 751.962C643.978 732.669 659.798 704.502 663.657 675.563C664.815 668.232 664.815 662.058 660.956 655.498C657.869 650.096 651.695 645.08 645.522 643.537C638.962 641.993 631.245 642.379 625.457 646.238C620.055 649.71 614.268 655.112 613.496 661.672C612.338 670.547 609.637 679.421 606.165 687.524L608.866 681.351C605.007 689.839 600.377 697.942 594.589 705.659L598.833 700.257C594.589 705.659 590.345 710.29 585.328 714.534C580.312 718.778 577.611 726.496 577.611 733.055C577.611 739.615 580.312 746.946 585.328 751.576C596.132 761.608 611.181 761.222 621.985 751.576L622.371 751.962Z" fill="#FFFEFF"/>
</g>
<defs>
<clipPath id="clip0_4121_794">
<rect width="875.119" height="989.717" fill="white" transform="translate(0.777344 0.28125)"/>
</clipPath>
</defs>
</svg>
