<svg width="1189" height="1031" viewBox="0 0 1189 1031" fill="none" xmlns="http://www.w3.org/2000/svg">
<g clip-path="url(#clip0_4127_281)">
<path d="M1047.05 141.97C1047.05 141.97 643.597 534.638 24.0137 899.917C24.0137 899.917 154.43 1074.33 372.547 992.301C590.664 910.276 962.755 604.6 1037.4 496.18C1112.05 387.76 1047.19 141.828 1047.19 141.828L1047.05 141.97Z" fill="#9C923C"/>
<path d="M0.457031 894.946L15.6415 886.006C626.427 525.836 1031.87 134.02 1035.84 130.188L1055.42 111.172L1062.52 138.277C1065.22 148.636 1128.37 392.723 1050.6 505.826C978.366 610.841 606.275 922.052 378.508 1007.62C151.734 1092.77 12.8033 911.408 11.3842 909.563L0.457031 894.946ZM1037.97 173.045C948.99 255.921 576.616 590.831 48.7068 904.313C84.1845 942.629 196.578 1040.97 366.729 977.113C581.866 896.366 953.248 589.838 1024.2 486.668C1079.69 406.063 1051.88 238.75 1037.97 172.903V173.045Z" fill="#CAAB47"/>
<path d="M1002.06 164.813C1002.06 164.813 1088.34 79.3821 1102.25 35.1059C1116.16 -9.17037 1170.23 -12.1505 1186.69 34.1125C1203.15 80.3755 1084.09 121.672 1088.91 296.08C1093.74 470.489 1068.33 266.563 1068.33 266.563L1062.66 138.417L1002.06 164.954V164.813Z" fill="#CAAB47"/>
<path d="M1009.59 449.183C970.703 477.566 915.5 468.199 886.266 428.039C857.032 388.02 864.838 332.391 903.721 304.008C942.605 275.626 997.808 284.992 1027.04 325.153C1056.28 365.172 1048.47 420.801 1009.59 449.183Z" fill="#C6B342"/>
<path d="M893.637 492.908C887.251 505.538 862.133 504.97 837.582 491.773C813.031 478.575 798.414 457.43 804.8 444.8C811.186 432.17 836.305 432.738 860.855 445.935C885.406 459.133 900.023 480.278 893.637 492.908Z" fill="#D5C56F"/>
<path d="M885.835 580.015C846.951 608.398 791.748 599.031 762.514 558.871C733.281 518.852 741.086 463.223 779.969 434.84C818.853 406.458 874.056 415.824 903.29 455.985C932.524 496.004 924.718 551.633 885.835 580.015Z" fill="#C6B342"/>
<path d="M741.927 691.984C703.043 720.366 647.84 711 618.606 670.839C589.372 630.821 597.177 575.191 636.061 546.809C674.945 518.427 730.148 527.793 759.382 567.954C788.615 607.973 780.81 663.602 741.927 691.984Z" fill="#C6B342"/>
<path d="M603.868 802.961C564.984 831.343 509.781 821.977 480.547 781.816C451.314 741.797 459.119 686.168 498.002 657.786C536.886 629.404 592.089 638.77 621.323 678.93C650.557 718.949 642.752 774.578 603.868 802.961Z" fill="#C6B342"/>
<path d="M450.868 898.031C411.984 926.413 356.781 917.047 327.547 876.886C298.314 836.867 306.119 781.238 345.002 752.856C383.886 724.474 439.089 733.84 468.323 774.001C497.557 814.02 489.752 869.649 450.868 898.031Z" fill="#C6B342"/>
<path d="M288.253 979.801C249.369 1008.18 194.166 998.817 164.932 958.656C135.698 918.637 143.504 863.008 182.387 834.626C221.271 806.243 276.474 815.61 305.708 855.77C334.942 895.789 327.136 951.418 288.253 979.801Z" fill="#C6B342"/>
<path d="M1019.08 356.803C1012.69 369.433 990.552 370.568 969.691 359.215C948.83 348.005 937.194 328.563 943.58 315.933C949.966 303.303 972.104 302.167 992.965 313.52C1013.83 324.873 1025.46 344.173 1019.08 356.803Z" fill="#D5C56F"/>
<path d="M899.33 502.958C891.242 514.595 869.103 512.608 849.945 498.559C830.787 484.51 821.705 463.791 829.794 452.296C837.883 440.659 860.021 442.646 879.179 456.695C898.337 470.744 907.419 491.463 899.33 502.958Z" fill="#D5C56F"/>
<path d="M750.014 604.45C741.925 616.087 719.787 614.1 700.629 600.051C681.471 586.002 672.389 565.283 680.478 553.788C688.567 542.293 710.705 544.138 729.863 558.187C749.021 572.236 758.103 592.955 750.014 604.45Z" fill="#D5C56F"/>
<path d="M609.545 716.099C601.456 727.735 579.318 725.749 560.16 711.7C541.002 697.65 531.92 676.931 540.009 665.437C548.098 653.8 570.236 655.787 589.394 669.836C608.552 683.885 617.634 704.604 609.545 716.099Z" fill="#D5C56F"/>
<path d="M455.86 810.774C447.771 822.411 425.633 820.424 406.475 806.375C387.317 792.326 378.234 771.607 386.323 760.112C394.412 748.617 416.55 750.462 435.708 764.511C454.866 778.56 463.949 799.279 455.86 810.774Z" fill="#D5C56F"/>
<path d="M295.069 893.38C286.98 905.017 264.842 903.03 245.684 888.981C226.526 874.932 217.443 854.213 225.532 842.718C233.621 831.081 255.759 833.068 274.917 847.117C294.075 861.166 303.158 881.885 295.069 893.38Z" fill="#D5C56F"/>
</g>
<defs>
<clipPath id="clip0_4127_281">
<rect width="1187.8" height="1029.85" fill="white" transform="translate(0.453125 0.464844)"/>
</clipPath>
</defs>
</svg>
