<svg width="1067" height="1031" viewBox="0 0 1067 1031" fill="none" xmlns="http://www.w3.org/2000/svg">
<g clip-path="url(#clip0_4115_502)">
<path d="M1064.04 581.541C1068.25 495.842 1068.6 408.39 1041.26 327.072C963.271 93.9848 686.546 -43.4142 447.675 13.5433C208.629 70.5008 28.4681 298.506 3.75729 542.985C-2.90236 609.231 0.602717 677.755 24.4372 739.97C64.2198 844.597 157.981 920.657 259.978 966.748C519.003 1083.99 1039.33 1084.34 1064.04 581.365V581.541Z" fill="#FF9042"/>
<path d="M935.769 556.11C938.924 494.07 931.914 382.784 899.842 308.476C829.215 145.14 689.188 101.502 435.07 116.573C257.538 127.089 140.994 326.703 123.118 503.709C118.211 551.728 132.056 648.644 149.231 693.684C177.972 769.569 263.671 871.742 337.453 905.215C524.975 990.213 917.718 920.462 935.594 556.11H935.769Z" fill="#FFD2B3"/>
<path d="M584.553 508.618C661.84 467.433 766.992 442.022 854.268 449.908C882.659 452.537 914.03 459.722 929.978 483.381C945.4 506.515 940.668 537.535 931.38 563.823C917.359 603.255 887.216 643.563 845.505 643.914C828.331 643.914 812.032 637.254 796.434 630.069C731.591 600.451 654.304 571.184 597.521 527.896" fill="#FFAB70"/>
<path d="M550.531 537.887C632.901 567.68 741.383 668.276 793.959 738.202C811.134 760.985 826.731 789.201 819.721 816.891C812.886 843.88 786.773 861.23 761.011 871.92C722.455 887.868 672.158 892.6 643.942 861.756C632.375 849.137 626.416 832.488 621.334 816.014C599.778 748.016 550.707 631.297 544.748 560.319" fill="#FFAB70"/>
<path d="M522.843 546.512C543.523 649.386 533.709 758.218 494.803 855.835C482.184 887.556 463.082 921.204 430.309 931.194C398.413 941.008 364.414 925.06 337.425 905.256C296.941 875.814 261.014 827.268 274.859 779.073C280.643 759.27 293.962 742.796 307.456 727.374C363.538 662.88 426.98 604.871 496.205 554.573" fill="#FFAB70"/>
<path d="M529.175 544.217C435.064 590.484 327.107 608.885 223.006 596.092C189.007 591.886 151.678 582.071 133.627 552.979C115.926 524.588 122.761 487.61 134.854 456.59C153.08 409.972 190.76 362.829 240.882 363.881C261.387 364.406 280.84 373.169 299.242 382.282C375.828 420.137 448.208 466.579 514.629 520.557" fill="#FFAB70"/>
<path d="M509.898 496.228C432.611 425.25 376.355 331.489 350.417 229.667C342.005 196.544 332.892 173.585 353.397 146.246C373.376 119.607 410.354 112.422 443.652 112.422C493.775 112.422 551.433 130.473 568.433 177.616C575.443 196.894 578.948 202.678 577.196 223.182C569.66 308.356 552.66 392.653 526.372 473.97" fill="#FFAB70"/>
<path d="M543.549 477.633C561.425 374.234 609.97 276.267 681.474 199.33C704.782 174.269 734.751 149.909 768.75 152.362C802.048 154.816 827.986 181.98 846.037 210.021C873.026 252.082 889.149 310.441 858.655 350.224C846.212 366.522 827.81 377.038 809.584 386.677C733.874 426.459 653.783 457.654 571.239 479.561" fill="#FFAB70"/>
<path d="M576.125 511.81C593.3 519.696 608.196 532.49 618.712 548.263C619.763 549.84 620.815 551.768 620.114 553.696C619.237 555.974 616.433 556.324 613.98 556.5C597.856 556.5 582.434 549.665 566.311 547.912C564.208 547.737 561.929 547.562 559.826 548.438C556.847 549.84 555.62 553.17 554.569 556.149C550.187 569.293 547.033 585.066 534.765 591.55C533.889 592.076 533.012 592.427 531.961 592.251C530.734 592.076 530.033 591.025 529.332 589.973C523.724 581.386 521.446 570.695 523.198 560.53C523.724 557.201 524.425 553.52 522.147 551.067C519.167 547.912 513.91 550.015 510.23 552.294C500.065 558.427 488.849 564.211 476.931 563.159C472.375 562.809 467.643 561.056 465.365 557.025C463.086 552.995 464.313 547.562 466.942 543.706C469.571 539.85 473.601 537.222 477.457 534.242C482.715 530.212 487.622 525.83 492.178 521.098C494.106 519.171 496.034 516.542 495.158 513.913C494.632 512.16 492.879 511.109 491.477 510.233C478.333 502.521 462.035 494.986 458.88 479.914C458.354 477.46 458.354 474.481 459.756 472.378C460.633 471.151 462.035 470.275 463.437 469.749C472.199 465.893 482.364 468.522 490.952 472.728C499.539 476.934 507.25 482.718 516.188 485.872C517.24 486.223 518.466 486.573 519.343 486.048C520.745 485.522 521.095 483.769 521.446 482.367C524.776 466.244 532.487 451.172 543.352 438.904C545.456 436.626 548.785 434.348 551.064 436.276C552.115 437.152 552.466 438.554 552.641 439.956C554.569 451.172 550.012 462.388 548.61 473.78C548.435 475.708 548.26 477.635 549.136 479.213C550.538 482.017 554.393 482.718 557.373 481.666C560.352 480.615 562.806 478.512 565.259 476.759C575.95 468.697 589.795 465.192 602.939 466.945C604.691 467.12 606.444 467.471 607.671 468.697C611.701 472.203 607.671 478.687 603.64 482.192C593.3 491.305 582.259 499.717 570.692 507.078C568.414 508.655 565.785 511.81 567.888 513.738" fill="#F7F6F5"/>
</g>
<defs>
<clipPath id="clip0_4115_502">
<rect width="1065.37" height="1030.14" fill="white" transform="translate(0.775391 0.761719)"/>
</clipPath>
</defs>
</svg>
