<svg width="653" height="1118" viewBox="0 0 653 1118" fill="none" xmlns="http://www.w3.org/2000/svg">
<g clip-path="url(#clip0_4121_759)">
<path d="M198.639 163.011C221.713 188.344 252.371 205.126 280.608 224.811C325.304 255.953 364.191 294.84 400.98 334.856C461.489 400.69 517.964 471.687 556.528 552.365C595.093 633.205 614.778 724.856 599.449 813.118C594.609 841.033 586.379 868.302 578.15 895.41C555.399 970.28 532.164 1045.96 498.279 1116.15C519.094 1124.05 539.425 1099.36 549.267 1078.07C632.043 897.669 689.809 689.841 624.782 502.345C576.214 362.448 466.007 254.017 357.414 153.33C343.699 140.744 329.983 127.997 314.332 117.993C272.056 91.0464 216.872 87.8192 170.24 106.053C173.467 126.868 184.278 147.037 198.639 162.85V163.011Z" fill="#E84D0A"/>
<path d="M122.463 135.544L138.115 166.847C118.913 185.242 125.851 217.191 137.146 241.233C205.884 388.39 372.082 466.81 456.794 605.254C512.946 696.905 528.759 809.693 514.399 916.188C507.783 965.402 495.036 1013.49 484.063 1061.89C479.707 1081.1 478.093 1106.11 495.52 1115.46C496.488 1115.95 497.456 1115.95 498.424 1116.43C532.309 1046.08 555.545 970.566 578.296 895.696C586.525 868.588 594.754 841.319 599.595 813.404C614.924 725.303 595.077 633.491 556.674 552.652C518.11 471.812 461.635 400.976 401.126 335.143C364.337 294.965 325.45 256.239 280.754 225.097C252.678 205.412 221.859 188.631 198.785 163.298C184.424 147.485 173.613 127.315 170.386 106.5C152.959 113.277 136.501 122.958 122.624 135.706L122.463 135.544Z" fill="#FF6C1E"/>
<g opacity="0.11">
<path d="M504.751 604.81C459.732 468.302 368.243 347.607 249.162 267.09C238.351 259.829 225.926 252.568 213.179 255.472C208.661 256.602 203.982 259.506 203.175 264.185C202.529 268.542 205.434 272.415 208.338 275.803C266.911 344.057 342.587 396.498 398.578 466.688C432.786 509.609 520.402 657.896 504.428 604.81" fill="white"/>
</g>
<path d="M128.924 127.821C113.272 141.536 103.268 161.545 101.655 182.36C99.0729 216.406 117.79 252.55 103.752 283.53C131.99 260.456 149.094 224.474 149.578 188.007C149.578 185.103 150.223 181.23 152.966 180.746C155.871 180.101 157.968 183.489 159.098 186.394C172.49 216.245 207.182 228.669 238.969 237.382C240.744 237.866 242.358 236.253 242.035 234.478C235.742 206.24 221.059 179.778 200.405 159.447C197.985 157.027 198.63 152.831 201.857 151.541C222.511 143.634 244.778 140.407 266.723 142.182C254.137 123.142 228.804 121.044 205.084 123.142C201.05 123.464 198.953 118.301 202.019 115.881C223.479 99.2609 247.36 85.8683 273.016 76.671C268.175 73.6052 256.234 72.637 251.716 72.153C218.961 68.6031 197.016 62.3102 168.779 79.0913C148.609 91.0317 134.41 112.815 131.506 136.05" fill="#04897C"/>
<path d="M156.363 130.582C126.351 128.485 97.952 114.124 77.4597 92.3407C52.9334 66.5236 46.3178 29.4115 21.3075 3.91716C10.0125 -7.37782 -6.60721 10.8555 4.52641 22.3118C18.5645 36.5112 25.8255 55.7127 34.8615 73.3006C42.9293 89.1135 52.9334 103.636 65.842 115.737C90.6909 139.296 123.124 152.849 157.17 155.27C163.786 155.754 169.433 148.654 169.11 142.523C168.949 135.262 162.979 131.066 156.363 130.582Z" fill="#04897C"/>
</g>
<defs>
<clipPath id="clip0_4121_759">
<rect width="651.881" height="1117.56" fill="white" transform="translate(0.808594 0.363281)"/>
</clipPath>
</defs>
</svg>
