<svg width="1384" height="1302" viewBox="0 0 1384 1302" fill="none" xmlns="http://www.w3.org/2000/svg">
<path d="M15 628.954C140.388 429.596 415.519 28.7162 512.943 20.0563C634.722 9.23147 1005.09 -4.29959 1227 236.553C1301.48 292.61 1428.11 517.69 1338.72 969.55C971.581 1031.92 211.239 1179.94 107.011 1273.03L15 628.954Z" fill="#FFDB43"/>
<path d="M15 628.954C140.388 429.596 415.519 28.7162 512.943 20.0563C634.722 9.23147 1005.09 -4.29959 1227 236.553M15 628.954C190.363 507.716 896.065 316.838 1227 236.553M15 628.954L107.011 1273.03C211.239 1179.94 971.581 1031.92 1338.72 969.55C1428.11 517.69 1301.48 292.61 1227 236.553" stroke="#9D8167" stroke-width="28.6085"/>
<path d="M1240.16 695.312C1345.54 609.057 1279.72 401.108 1142.84 389.107C1068.77 382.732 1000.7 428.484 973.89 496.926C912.199 653.309 1107.59 803.693 1240.34 695.312H1240.16ZM1104.59 429.61C1197.59 410.859 1271.47 513.614 1253.84 599.306C1246.91 632.871 1224.78 661.935 1194.03 677.498C1124.84 712.563 1039.33 677.498 1011.58 605.682C983.641 533.303 1026.58 445.173 1104.77 429.61H1104.59Z" fill="#9D8167"/>
<path d="M895.69 823.934C887.252 855.061 894.377 884.5 923.817 900.063C952.693 915.251 989.632 921.064 1018.32 903.063C1036.13 891.813 1046.82 876.624 1052.26 856.56C1057.32 837.622 1050.76 819.246 1043.07 801.62C1043.07 801.433 1042.7 801.245 1042.7 801.058C1042.7 800.87 1042.7 800.682 1042.51 800.307C1024.7 771.993 998.446 753.805 963.756 758.493C930.192 762.993 904.316 792.244 895.69 824.121V823.934ZM929.254 828.246C938.254 807.62 960.943 789.807 979.694 789.244C1046.64 786.619 1026.76 903.626 949.505 876.062C941.255 873.061 933.005 868.561 929.067 860.686C923.817 850.373 924.754 838.935 929.254 828.246Z" fill="#9D8167"/>
<path d="M582.541 943.178C657.921 936.99 714.924 876.986 732.925 806.295C763.114 687.226 632.419 580.907 518.976 640.348C457.285 672.6 431.971 749.292 435.159 815.858C438.909 891.424 507.162 949.553 582.541 943.365V943.178ZM506.037 703.539C535.477 663.225 594.729 654.599 639.732 672.788C705.173 699.227 710.799 765.793 684.735 824.671C655.483 890.674 569.229 931.364 508.1 880.549C459.723 840.234 471.911 750.417 506.037 703.539Z" fill="#9D8167"/>
<path d="M281.405 914.468C236.027 924.593 197.4 963.97 224.026 1025.29C256.841 1100.48 372.535 1056.04 377.785 985.534C382.285 924.968 328.282 903.967 281.405 914.655V914.468ZM342.533 952.907C350.034 964.158 353.034 978.784 349.471 992.472C341.783 1021.16 307.469 1045.35 275.779 1035.04C260.591 1029.97 257.966 1018.16 256.466 1005.41C253.653 979.721 269.779 945.407 294.905 935.844C314.406 928.344 332.408 937.719 342.533 953.095V952.907Z" fill="#9D8167"/>
<path d="M232.101 661.331C205.849 669.581 186.536 694.895 190.473 722.834C195.536 759.399 238.476 777.212 270.352 762.399C298.854 749.086 310.48 716.646 295.292 689.082C281.978 664.893 259.477 652.893 232.101 661.518V661.331ZM256.289 746.836C221.225 764.086 207.349 702.021 230.226 683.27C233.038 682.707 235.85 681.394 238.663 680.269C240.163 680.269 243.914 679.707 245.226 679.707C247.289 679.707 249.351 679.707 251.601 679.707C288.541 679.707 288.541 721.896 264.727 741.398C261.915 743.648 259.102 745.523 256.289 746.836Z" fill="#9D8167"/>
<path d="M324.701 392.512C302.012 386.137 279.699 379.011 257.385 371.699C241.634 366.448 235.634 390.45 250.635 396.263C272.573 404.701 294.7 412.951 317.014 420.451C334.827 426.452 361.828 439.765 380.017 429.827C384.142 427.577 385.455 421.764 383.205 417.826C372.704 400.388 342.514 397.575 324.701 392.512Z" fill="#9D8167"/>
<path d="M431.77 128.077C416.206 126.202 412.268 153.391 428.019 155.641C480.71 163.516 532.275 172.892 583.653 187.143C629.968 199.893 679.659 224.27 727.286 228.583C734.224 229.145 738.724 218.832 733.287 214.332C654.157 151.891 528.15 140.265 431.77 128.077Z" fill="#9D8167"/>
<path d="M327.25 249.628C311.687 247.753 307.749 274.942 323.5 277.192C376.19 285.067 427.756 294.443 479.134 308.693C525.449 321.444 575.139 345.821 622.767 350.133C629.705 350.696 634.205 340.383 628.767 335.882C549.638 273.441 423.631 261.816 327.25 249.628Z" fill="#9D8167"/>
<path d="M874.14 118.138C767.072 89.261 657.754 72.1975 547.873 57.1967C532.497 55.1341 525.559 78.198 541.31 81.0106C642.94 98.0741 743.446 118.513 843.577 143.076C888.579 154.14 934.519 162.953 978.959 176.078C1014.96 186.766 1047.96 212.08 1083.03 220.518C1088.09 221.643 1092.96 216.206 1089.96 211.518C1054.53 155.452 931.519 133.888 873.953 118.325L874.14 118.138Z" fill="#9D8167"/>
<path d="M854.983 246.428C843.92 240.803 831.544 235.927 819.356 232.927C808.855 230.302 800.229 243.615 808.48 251.678C817.48 260.304 827.982 268.179 838.482 274.554C849.358 281.305 863.046 289.743 876.172 285.242C881.61 283.367 884.61 278.305 883.297 272.492C880.297 259.179 866.234 252.241 854.983 246.428Z" fill="#9D8167"/>
</svg>
