<svg width="995" height="1020" viewBox="0 0 995 1020" fill="none" xmlns="http://www.w3.org/2000/svg">
<path d="M497.875 0.660156C223.388 0.660156 0.945312 223.103 0.945312 497.59C0.945312 772.078 223.388 994.52 497.875 994.52C772.363 994.52 994.806 772.078 994.806 497.59C994.806 223.103 772.17 0.660156 497.875 0.660156ZM497.875 721.575C374.125 721.575 273.698 621.148 273.698 497.398C273.698 373.647 373.932 273.22 497.875 273.22C621.819 273.22 722.053 373.647 722.053 497.398C722.053 621.148 621.819 721.575 497.875 721.575Z" fill="#F7CE22"/>
<path d="M944.69 437.825C936.209 408.333 900.356 349.927 886.67 315.809C872.984 281.498 923.487 283.811 902.476 258.56C887.248 240.248 814.386 195.142 774.678 171.24C689.864 64.4523 610.062 54.0433 539.127 68.8857C522.55 60.5971 497.492 54.0433 489.203 54.0433C476.481 54.0433 461.831 51.923 430.219 54.0433C398.607 56.1637 385.885 19.7324 329.021 67.5364C294.517 96.4501 278.133 112.835 270.23 127.099C163.057 151.193 103.687 221.936 81.5199 354.36C63.9789 384.045 47.4017 414.308 46.4379 425.103C44.3176 448.426 44.3176 503.169 46.4379 536.902C48.5582 570.635 64.1716 650.822 71.1109 667.592C78.0502 684.555 103.88 704.794 123.734 708.264C123.734 708.264 123.927 708.264 124.119 708.264C126.047 711.541 127.782 715.011 129.902 718.287C133.179 735.443 136.649 754.14 138.576 765.899C142.817 792.499 135.685 791.15 155.346 827.774C175.008 864.398 182.718 893.89 200.066 895.239C217.221 896.589 206.042 862.278 229.944 853.025C240.931 848.785 255.58 850.712 268.302 852.447C302.228 872.108 338.852 886.951 376.632 896.974C377.211 906.998 381.451 915.672 388.776 921.84C404.197 934.562 402.847 931.671 416.919 945.742C430.99 959.813 432.725 964.632 439.471 978.125C446.218 991.426 460.675 1014.75 470.313 1018.8C480.143 1023.04 501.347 1006.08 497.684 994.124C494.215 982.366 476.674 970.993 498.07 954.223C519.466 937.453 545.874 933.213 546.067 921.84C546.067 918.756 547.994 914.708 550.115 910.082C538.742 943.236 640.904 905.07 666.155 906.419C691.406 907.961 746.342 901.6 758.872 895.239C771.594 888.878 843.299 848.785 843.299 821.413C843.299 794.041 885.513 747.201 885.513 747.201L888.598 674.724C896.886 657.183 940.45 650.629 940.45 642.148C940.45 633.667 940.45 621.137 934.089 608.415C927.728 595.886 920.403 557.72 922.716 536.902C924.836 516.084 951.051 517.819 955.292 497.387C959.533 476.954 953.172 467.124 944.69 437.632V437.825ZM497.877 216.731C643.024 216.731 789.52 303.472 789.52 497.387C789.52 691.301 643.024 778.042 497.877 778.042C352.73 778.042 206.234 691.301 206.234 497.387C206.234 303.472 352.73 216.731 497.877 216.731ZM550.693 909.696C550.693 909.696 550.693 909.696 550.693 910.082C550.693 910.082 550.693 910.082 550.693 909.696Z" fill="#FF417C"/>
<path d="M135.114 401.964C135.114 412.373 127.982 420.855 119.308 420.855C110.634 420.855 103.502 412.373 103.502 401.964C103.502 391.556 110.634 383.074 119.308 383.074C127.982 383.074 135.114 391.556 135.114 401.964Z" fill="#FFA931"/>
<path d="M396.089 113.972C396.089 124.574 389.15 133.055 380.283 133.055C371.416 133.055 364.477 124.574 364.477 113.972C364.477 103.371 371.609 95.082 380.283 95.082C388.957 95.082 396.089 103.563 396.089 113.972Z" fill="#FFA931"/>
<path d="M179.647 666.224C179.647 676.633 172.708 685.114 163.841 685.114C154.974 685.114 148.035 676.633 148.035 666.224C148.035 655.815 154.974 647.141 163.841 647.141C172.708 647.141 179.647 655.622 179.647 666.224Z" fill="#FFA931"/>
<path d="M700.856 162.592C700.856 186.108 685.05 205.191 665.581 205.191C646.113 205.191 630.307 186.108 630.307 162.592C630.307 139.075 646.113 119.992 665.581 119.992C685.05 119.992 700.856 139.075 700.856 162.592Z" fill="#FFA931"/>
<path d="M138.768 497.584C138.768 521.1 122.962 540.183 103.493 540.183C84.0249 540.183 68.2188 521.1 68.2188 497.584C68.2188 474.067 84.0249 454.984 103.493 454.984C122.962 454.984 138.768 474.067 138.768 497.584Z" fill="#FFA931"/>
<path d="M591.929 834.892C591.929 845.301 584.797 853.782 576.123 853.782C567.448 853.782 560.316 845.301 560.316 834.892C560.316 824.483 567.448 815.809 576.123 815.809C584.797 815.809 591.929 824.29 591.929 834.892Z" fill="#FFA931"/>
<path d="M289.319 778.07C289.319 788.672 282.187 797.153 273.513 797.153C264.839 797.153 257.707 788.672 257.707 778.07C257.707 767.468 264.839 759.18 273.513 759.18C282.187 759.18 289.319 767.661 289.319 778.07Z" fill="#FFA931"/>
<path d="M888.979 478.488C888.979 488.897 881.847 497.378 873.173 497.378C864.499 497.378 857.367 488.897 857.367 478.488C857.367 468.079 864.306 459.598 873.173 459.598C882.04 459.598 888.979 468.079 888.979 478.488Z" fill="#FFA931"/>
<path d="M472.429 911.054C472.429 921.463 465.297 929.945 456.623 929.945C447.948 929.945 440.816 921.463 440.816 911.054C440.816 900.645 447.948 892.164 456.623 892.164C465.297 892.164 472.429 900.645 472.429 911.054Z" fill="#FFA931"/>
<path d="M156.12 596.274C156.12 606.683 148.988 615.165 140.314 615.165C131.64 615.165 124.508 606.683 124.508 596.274C124.508 585.866 131.64 577.191 140.314 577.191C148.988 577.191 156.12 585.673 156.12 596.274Z" fill="#FF6796"/>
<path d="M821.694 634.228C821.694 644.637 814.755 653.311 805.888 653.311C797.021 653.311 790.082 644.829 790.082 634.228C790.082 623.626 797.214 615.145 805.888 615.145C814.562 615.145 821.694 623.626 821.694 634.228Z" fill="#FF6796"/>
<path d="M529.472 133.071C529.472 143.48 522.34 152.154 513.666 152.154C504.991 152.154 497.859 143.673 497.859 133.071C497.859 122.47 504.991 113.988 513.666 113.988C522.34 113.988 529.472 122.47 529.472 133.071Z" fill="#FF6796"/>
<path d="M204.687 281.73C204.687 292.139 197.554 300.62 188.88 300.62C180.206 300.62 173.074 292.139 173.074 281.73C173.074 271.321 180.206 262.84 188.88 262.84C197.554 262.84 204.687 271.321 204.687 281.73Z" fill="#FF6796"/>
<path d="M716.655 844.707C716.655 855.116 709.523 863.597 700.849 863.597C692.175 863.597 685.043 855.116 685.043 844.707C685.043 834.298 692.175 825.816 700.849 825.816C709.523 825.816 716.655 834.298 716.655 844.707Z" fill="#FF6796"/>
<path d="M273.499 205.16C273.499 215.569 266.367 224.05 257.693 224.05C249.019 224.05 241.887 215.569 241.887 205.16C241.887 194.751 249.019 186.27 257.693 186.27C266.367 186.27 273.499 194.751 273.499 205.16Z" fill="#BF3420"/>
<path d="M396.089 825.626C396.089 836.035 389.15 844.516 380.283 844.516C371.416 844.516 364.477 836.035 364.477 825.626C364.477 815.217 371.609 806.543 380.283 806.543C388.957 806.543 396.089 815.024 396.089 825.626Z" fill="#BF3420"/>
<path d="M862.579 401.964C862.579 412.373 855.447 420.855 846.773 420.855C838.099 420.855 830.967 412.373 830.967 401.964C830.967 391.556 838.099 383.074 846.773 383.074C855.447 383.074 862.579 391.556 862.579 401.964Z" fill="#BF3420"/>
<path d="M204.687 740.103C204.687 750.512 197.554 758.993 188.88 758.993C180.206 758.993 173.074 750.512 173.074 740.103C173.074 729.694 180.206 721.02 188.88 721.02C197.554 721.02 204.687 729.501 204.687 740.103Z" fill="#BF3420"/>
<path d="M764.474 224.043C764.474 234.452 757.342 242.933 748.667 242.933C739.993 242.933 732.861 234.452 732.861 224.043C732.861 213.634 739.801 205.152 748.667 205.152C757.534 205.152 764.474 213.634 764.474 224.043Z" fill="#BF3420"/>
<path d="M748.657 758.953C748.657 769.554 741.525 777.843 732.851 777.843C724.177 777.843 717.045 769.362 717.045 758.953C717.045 748.544 723.984 740.062 732.851 740.062C741.718 740.062 748.657 748.544 748.657 758.953Z" fill="#BF3420"/>
</svg>
