<svg width="940" height="1512" viewBox="0 0 940 1512" fill="none" xmlns="http://www.w3.org/2000/svg">
<path d="M502.896 336.253C608.567 237.052 699.139 118.635 794.785 10.3945" stroke="#F2FDE9" stroke-width="20.1303" stroke-linecap="round"/>
<g clip-path="url(#clip0_4134_527)">
<path d="M819.955 335.021C817.385 332.13 817.577 276.733 807.231 265.294C796.948 253.855 753.312 270.628 734.868 257.839C734.868 257.839 747.85 253.084 742.709 247.364C737.567 241.645 719.059 230.655 726.514 227.442C733.969 224.164 745.344 232.969 739.56 220.823C733.84 208.677 708.905 181.043 717.131 180.529C725.357 180.079 733.84 191.389 729.984 177.572C726.193 163.755 718.031 145.119 726.064 148.268C734.097 151.417 764.88 187.598 768.35 174.102C771.756 160.671 765.78 136.7 773.813 139.849C781.846 142.998 788.401 156.044 788.208 142.419C788.015 128.795 786.602 104.182 793.735 106.367C800.868 108.552 804.596 124.232 810.637 113.629C816.678 103.025 823.104 66.137 830.944 72.8848C838.785 79.6326 837.628 101.418 842.127 102.575C846.625 103.732 864.748 87.4087 866.097 96.5343C867.447 105.724 863.334 114.593 865.905 117.42C868.475 120.248 883.063 119.22 880.686 130.016C878.308 140.813 870.275 154.951 870.275 154.951C870.275 154.951 887.562 154.951 882.613 162.856C877.665 170.76 869.76 183.099 869.76 183.099C869.76 183.099 913.653 160.863 915.196 166.39C916.738 171.917 907.291 178.729 912.497 182.585C917.766 186.505 934.09 187.341 937.624 189.333C941.159 191.325 914.617 211.761 918.088 215.553C921.494 219.345 942.894 227.763 938.974 233.033C935.054 238.303 904.592 246.657 904.592 246.657C904.592 246.657 910.055 264.202 898.937 267.286C887.883 270.371 858.064 266.065 858.064 266.065C858.064 266.065 861.599 285.345 853.694 280.396C845.79 275.448 816.678 241.195 821.755 266.001C826.831 290.807 835.507 333.094 829.016 335.471C822.526 337.849 819.955 335.021 819.955 335.021Z" fill="#17C9AB"/>
<path d="M918.019 215.607C914.613 211.815 941.09 191.379 937.556 189.386C934.021 187.394 917.698 186.559 912.428 182.639C907.158 178.719 916.605 171.971 915.127 166.444C913.585 160.917 869.692 183.153 869.692 183.153C869.692 183.153 877.596 170.814 882.545 162.909C887.493 155.005 870.206 155.005 870.206 155.005C870.206 155.005 878.239 140.866 880.617 130.07C882.995 119.273 868.407 120.366 865.836 117.474C863.265 114.582 867.378 105.714 866.029 96.5879C864.679 87.398 846.556 103.721 842.058 102.629C837.559 101.472 838.716 79.7505 830.876 72.9384C829.783 71.9744 828.691 72.0387 827.663 72.6171C830.233 79.5577 833.125 89.9686 833.189 101.986C833.318 123.258 813.332 157.961 818.601 153.205C823.871 148.45 847.006 113.361 850.926 121.716C854.847 130.07 846.492 147.164 850.991 144.272C855.554 141.381 864.165 132.448 860.952 144.787C857.803 157.125 849.256 176.726 842.701 182.639C836.146 188.551 854.847 177.626 854.654 181.418C854.461 185.145 829.333 198.255 844.886 200.954C860.373 203.653 893.663 190.35 888.843 198.255C884.023 206.16 843.215 220.298 853.69 223.961C864.165 227.624 904.652 243.562 886.336 245.683C868.085 247.868 829.141 237.649 833.703 246.711C838.266 255.708 853.947 266.569 841.222 258.985C828.498 251.402 818.023 235.85 814.874 248.189C811.725 260.528 820.144 279.165 822.521 305.578C823.357 315.153 822.2 325.949 820.915 335.782C822.2 336.425 824.642 337.196 828.884 335.589C835.374 333.211 826.699 290.925 821.622 266.119C816.545 241.313 845.657 275.566 853.561 280.514C861.466 285.463 857.931 266.183 857.931 266.183C857.931 266.183 887.686 270.489 898.804 267.404C909.857 264.319 904.459 246.775 904.459 246.775C904.459 246.775 934.921 238.356 938.841 233.151C942.761 227.881 921.361 219.527 917.955 215.671L918.019 215.607Z" fill="#00B28E"/>
</g>
<g clip-path="url(#clip1_4134_527)">
<path d="M850.772 237.488H17.8822C-8.79044 389.975 143.487 448.646 222.959 458.921C237.847 495.617 268.127 576.558 270.14 606.753C272.656 644.497 348.144 715.582 387.776 757.101C419.481 790.316 417.762 1034.73 412.939 1152.79L404.132 1332.7L136.777 1436.5C159.423 1477.39 162.568 1457.89 387.776 1492.48C567.942 1520.16 695.601 1466.69 736.91 1436.5L482.766 1332.7C480.459 1341.51 471.568 1317.85 454.457 1152.79C437.347 987.718 475.846 812.249 497.234 745.149C557.122 727.535 637.517 539.023 670.229 446.969C673.584 454.098 699.544 456.405 776.542 408.596C853.54 360.786 858.111 274.603 850.772 237.488Z" fill="#F2FDE9"/>
<path d="M435.228 1511.99C287.359 1511.99 125.889 1483.63 121.259 1441.38C118.944 1419.1 149.907 1412.15 160.324 1410.13C241.059 1392.47 360.86 1330.84 388.639 1316.08C403.687 1106.29 406.291 769.166 349.285 736.467C264.209 687.852 226.591 533.617 214.148 482.687L212.122 474.874C209.807 465.325 193.892 460.116 166.112 452.014C138.621 443.911 101.003 433.204 62.2271 408.318C-21.9803 355.363 4.64196 238.746 5.79945 233.827L8.11443 224.277H862.632L864.947 233.827C866.104 238.746 892.727 355.653 808.23 408.897C769.164 433.494 731.546 444.49 704.345 452.592C676.565 460.695 660.65 465.614 658.335 475.453L656.309 483.266C643.866 533.906 606.248 688.431 521.172 737.046C464.166 769.745 466.481 1106.86 481.817 1316.66C509.597 1331.42 629.398 1393.05 710.132 1410.71C720.26 1413.02 751.513 1419.68 749.198 1441.96C744.568 1484.21 583.387 1512.56 435.228 1512.56V1511.99ZM147.303 1439.93C163.508 1455.85 269.129 1487.39 435.228 1487.39C601.328 1487.39 706.66 1455.85 723.154 1439.93C720.55 1438.48 715.341 1436.17 704.924 1433.85C610.01 1413.31 470.243 1337.49 464.166 1334.31L458.378 1331.13L457.799 1324.47C453.459 1267.47 419.024 766.562 509.018 715.053C559.369 686.405 600.75 606.249 632.291 476.9L634.317 468.797C640.394 445.069 665.569 437.834 697.4 428.574C724.89 420.472 759.036 410.633 795.208 387.773C852.214 351.601 846.716 275.496 842.665 248.585H28.0811C24.0299 275.207 18.5318 351.601 75.5383 387.773C111.71 410.633 145.856 420.472 173.346 428.574C205.177 437.834 230.353 445.069 236.429 468.797L238.455 476.9C269.997 606.249 311.377 686.405 361.728 715.053C451.723 766.562 417.287 1267.47 412.947 1324.47L412.368 1331.13L406.581 1334.31C400.793 1337.49 260.737 1413.31 165.823 1433.85C155.405 1436.17 150.196 1438.48 147.592 1439.93H147.303Z" fill="#F2FDE9"/>
<path d="M827.484 284.668H42.416C42.416 284.668 52.5441 335.308 101.159 370.612C169.161 419.805 235.138 407.941 242.662 437.746C250.186 467.551 285.778 628.443 361.015 677.925C412.234 711.493 471.556 703.101 508.306 681.108C585.568 634.809 619.136 467.841 626.659 438.035C634.183 408.23 694.373 410.545 768.163 370.901C813.883 346.594 826.905 284.957 826.905 284.957L827.484 284.668Z" fill="#EBDF1A"/>
</g>
<defs>
<clipPath id="clip0_4134_527">
<rect width="223.899" height="264.386" fill="white" transform="translate(715.523 72.043)"/>
</clipPath>
<clipPath id="clip1_4134_527">
<rect width="868.986" height="1287.71" fill="white" transform="translate(0.898438 224.277)"/>
</clipPath>
</defs>
</svg>
