<svg width="1451" height="1179" viewBox="0 0 1451 1179" fill="none" xmlns="http://www.w3.org/2000/svg">
<path d="M1014.74 164.611C961.627 149.158 824.378 38.7315 725.4 18.1271C646.98 1.80203 338.58 72.9698 189.927 111.661C240.077 139.184 357.534 228.697 374.03 261.838C407.682 329.447 571.337 426.365 686.481 388.375C796.138 352.196 849.735 375.692 879.208 397.691C1021.08 570.898 845.493 691.313 757.073 772.443C686.337 837.347 697.027 1057.69 711.213 1159.74L1269.54 908.304C1221.5 668.519 1289.56 574.232 1329.59 557.062C1516.65 414.118 1431.44 138.534 1261.86 164.611C1092.28 190.689 1067.86 180.065 1014.74 164.611Z" fill="#F9DD8F"/>
<path d="M78.1088 159.562C-25.1653 268.985 25.0658 390.977 63.0906 438.295C127.765 503.484 128.169 555.35 120.287 573.134C68.139 681.005 60.4277 912.55 63.0906 1014.84C293.796 1190.74 709.512 1162.29 704.08 1150.65C699.734 1141.34 694.814 1068.52 692.896 1033.27C679.092 876.248 730.602 774.046 758.082 742.572C826.037 695.47 953.382 576.561 919.128 477.743C876.31 354.221 835.41 383.647 645.925 388.497C456.44 393.347 401.479 295.371 397.964 286.641C394.449 277.91 207.202 22.7818 78.1088 159.562Z" fill="#FFF3D0" stroke="black" stroke-width="0.639468"/>
<path d="M1244.12 143.387C1194.18 145.558 1145.18 159.515 1094.93 155.328C1038.64 150.676 991.186 125.863 946.213 93.917C884.182 49.8749 829.129 5.52273 750.349 1.02547C658.543 -4.0921 560.379 22.8914 471.054 40.2602C368.548 60.1102 263.095 80.4253 164.62 116.248C149.112 117.334 133.449 120.746 117.786 127.104C51.8781 153.777 7.83616 220.616 1.16781 290.246C-2.86422 331.962 5.97515 374.298 22.4134 412.447C44.1243 462.538 115.615 520.382 113.599 574.969C56.3756 702.443 40.0924 876.441 46.7608 1015.08C45.6752 1018.18 45.8303 1021.9 47.6912 1024.85C48.9318 1030.12 53.1192 1032.76 57.6164 1032.91C239.988 1162.25 494.781 1188.77 710.494 1174.81C715.147 1174.5 718.713 1172.48 721.195 1169.69C900.93 1094.33 1082.37 1022.52 1259.47 940.178C1269.86 943.9 1283.97 938.627 1283.66 924.515C1281.03 799.832 1271.57 676.545 1349.88 573.108C1394.39 514.489 1436.26 460.056 1447.89 384.999C1468.21 254.113 1379.81 137.494 1244.27 143.387H1244.12ZM365.136 1112.62C260.303 1090.91 168.652 1048.42 68.9368 1013.53C74.3645 931.959 77.3109 851.008 90.1824 769.902C99.7972 709.267 117.631 649.872 126.781 589.236C129.417 588.306 131.588 586.29 132.519 583.188C148.957 516.35 84.91 474.324 56.996 419.736C-5.50045 297.535 60.5626 97.3289 227.892 152.227C325.746 184.328 362.034 275.979 434.611 337.855C483.305 379.416 546.732 398.025 609.849 401.437C706.773 406.71 850.84 343.438 905.893 456.955C957.689 563.803 864.177 657.161 787.878 718.416C732.361 762.924 716.543 805.88 706.928 875.976C694.832 964.835 687.233 1054.47 702.74 1143.17C589.533 1148.91 476.017 1135.73 365.136 1112.62ZM1351.59 507.51C1311.27 562.098 1269.86 600.712 1259.32 670.807C1247.53 748.656 1250.79 831.468 1248.93 910.403C1072.14 982.824 902.171 1068.12 732.36 1154.34C732.826 1152.48 732.981 1150.62 732.671 1148.45C722.281 1075.41 723.986 1004.38 731.275 931.183C737.013 873.494 743.371 827.902 768.183 786.806C768.959 787.736 770.199 788.357 771.595 787.736C845.102 751.448 926.208 723.689 996.613 681.973C999.56 680.267 997.699 675.305 994.287 676.39C916.903 699.807 843.086 744.78 771.285 781.843C783.536 763.079 799.819 745.245 821.995 727.721C881.235 680.888 939.389 623.508 950.865 545.194C960.015 483.163 936.908 412.602 880.305 380.346C794.392 331.341 680.409 385.309 588.758 375.384C520.369 368.095 463.92 339.716 418.793 287.92C381.574 245.118 352.73 199.68 306.206 165.253C279.533 145.558 250.068 129.74 219.363 121.521C379.093 90.9705 536.652 43.2068 699.329 30.1802C864.487 16.8435 948.074 180.451 1107.65 186.654C1202.71 190.376 1309.41 139.51 1377.79 232.867C1441.07 319.091 1410.67 427.49 1351.74 507.355L1351.59 507.51Z" fill="#9D8167"/>
<path d="M1258.38 568.291C1236.36 566.74 1213.56 580.231 1193.87 589.226C1167.81 601.167 1143 614.659 1116.48 625.824C1111.83 627.841 1115.24 636.06 1120.05 634.199C1146.88 623.654 1174.02 615.899 1201 606.285C1221.47 598.996 1246.75 592.793 1261.48 576.045C1264.12 572.943 1262.26 568.601 1258.22 568.291H1258.38Z" fill="#9D8167"/>
<path d="M182.603 180.776C151.742 155.653 104.909 215.668 87.695 237.534C61.1767 271.186 48.7701 332.132 79.6307 366.559C76.2189 368.265 73.7376 371.832 75.1333 376.795C79.7856 393.388 83.1974 410.136 96.5341 422.388C97.9298 423.783 100.566 423.318 101.031 421.147C105.064 403.623 98.5504 388.115 92.9676 371.832C91.8821 368.73 89.711 366.87 87.2298 366.094C88.3153 364.854 88.9354 363.458 88.4702 361.597C76.8394 322.362 69.0857 290.261 91.1067 252.267C109.096 221.251 144.763 197.835 179.966 190.546C183.998 189.77 185.859 183.567 182.603 180.776Z" fill="#9D8167"/>
<path d="M103.05 428.254C99.7933 428.254 99.7933 433.371 103.05 433.371C106.307 433.371 106.307 428.254 103.05 428.254Z" fill="#734B26"/>
<path d="M114.212 458.494C118.399 463.146 121.965 467.644 128.014 469.66C129.409 470.125 131.426 468.729 131.27 467.178C130.495 460.82 127.083 456.478 123.361 451.36C118.399 444.692 108.629 451.98 114.212 458.339V458.494Z" fill="#9D8167"/>
<path d="M157.948 538.859C159.033 540.255 161.825 539.945 162.445 538.239C167.252 527.229 161.36 512.186 157.018 501.796C151.28 488.614 144.921 478.689 132.825 470.625C132.205 470.16 131.274 470.935 131.429 471.71C136.082 483.807 142.44 495.438 146.782 507.689C150.349 517.614 151.124 530.64 157.793 539.014L157.948 538.859Z" fill="#9D8167"/>
<path d="M157.169 547.997C158.1 552.494 158.565 557.147 160.736 561.179C161.822 563.195 164.613 562.109 164.769 560.093C165.079 555.441 163.683 550.944 162.752 546.447C161.977 542.725 156.394 544.275 157.169 547.997Z" fill="#9D8167"/>
<path d="M154.846 597.3C156.241 597.3 156.241 595.129 154.846 595.129C153.45 595.129 153.45 597.3 154.846 597.3Z" fill="#734B26"/>
<path d="M120.42 964.378C119.179 851.016 131.585 730.83 152.211 620.26C152.831 616.848 147.869 615.297 146.938 618.864C116.853 736.568 106.618 842.177 108.634 962.052C95.7623 961.897 89.5592 980.816 101.81 988.105C136.238 1008.89 180.28 980.351 212.071 1008.27C218.584 1014 227.423 1005.16 221.531 998.805C197.338 972.597 154.227 972.752 120.42 964.533V964.378Z" fill="#9D8167"/>
<path d="M255.35 210.065C257.211 200.14 249.612 190.68 241.238 186.183C231.468 181.065 219.527 180.29 209.292 184.322C198.747 188.509 203.399 205.877 214.1 201.535C220.768 198.744 226.816 199.054 233.484 201.846C239.687 204.482 244.185 208.979 249.923 212.391C251.939 213.631 255.04 212.546 255.505 210.065H255.35Z" fill="#9D8167"/>
<path d="M494.316 456.653C610.004 493.872 870.224 358.799 839.984 574.823C839.674 576.994 842.31 579.475 844.171 577.304C911.165 500.54 809.124 434.942 737.478 432.926C650.479 430.445 549.368 474.797 470.123 423.622C396.151 375.858 341.563 285.913 286.976 218.764C279.842 210.079 267.746 222.486 274.57 231.17C333.5 305.142 398.787 426.103 494.16 456.653H494.316Z" fill="#9D8167"/>
<path d="M764.165 649.885C760.753 652.832 756.876 655.468 754.705 659.5C753.464 661.826 755.48 664.307 757.962 663.842C762.459 662.912 766.026 659.81 769.902 657.329C775.64 653.607 769.437 645.388 764.165 649.885Z" fill="#9D8167"/>
<path d="M736.402 671.913C673.751 771.628 645.681 882.354 650.024 999.593C650.334 1007.19 661.189 1007.04 661.654 999.593C669.253 886.851 699.339 781.553 750.204 679.977C754.857 670.827 741.985 663.074 736.402 671.913Z" fill="#9D8167"/>
<path d="M663.665 1058.18C662.89 1048.1 661.029 1041.12 657.307 1031.81C655.756 1027.93 649.863 1027.16 648.623 1031.81C645.986 1041.43 644.746 1047.78 644.901 1058.18C645.056 1068.1 645.366 1078.02 645.521 1087.95C645.521 1088.73 645.986 1089.5 646.141 1090.43C570.153 1081.13 489.048 1080.35 416.006 1059.26C357.852 1042.51 306.055 1011.19 244.8 1007.93C241.698 1007.77 241.233 1012.43 244.024 1013.36C314.43 1036 380.183 1067.79 452.759 1082.99C519.908 1097.1 587.677 1104.39 655.911 1110.9C665.216 1111.83 667.387 1101.44 662.735 1095.55C664.751 1093.69 666.302 1090.9 666.147 1088.11C665.371 1078.18 664.441 1068.25 663.665 1058.33V1058.18Z" fill="#9D8167"/>
<path d="M647.532 550.432C642.88 561.597 642.88 568.886 647.532 580.052C650.013 586.1 659.008 592.148 665.056 593.543C673.12 595.404 680.254 594.164 687.697 590.597C692.35 588.271 697.157 585.014 700.414 580.982C708.478 570.747 708.633 560.047 700.414 549.656C697.157 545.624 692.35 542.213 687.697 540.042C674.826 533.839 654.045 535.079 647.532 550.587V550.432Z" fill="#9D8167"/>
<path d="M490.912 590.981C517.74 590.981 517.895 549.109 490.912 549.109C463.928 549.109 463.928 590.981 490.912 590.981Z" fill="#9D8167"/>
<path d="M534.784 705.853C559.286 705.853 559.441 667.703 534.784 667.703C510.127 667.703 510.127 705.853 534.784 705.853Z" fill="#9D8167"/>
<path d="M584.89 805.278C575.585 810.706 571.708 826.679 581.167 834.123C587.37 838.93 593.419 841.101 601.173 837.844C611.253 833.657 615.595 821.251 610.012 811.791C605.05 803.262 593.419 800.161 584.89 805.278Z" fill="#9D8167"/>
</svg>
