<svg width="1136" height="1139" viewBox="0 0 1136 1139" fill="none" xmlns="http://www.w3.org/2000/svg">
<path d="M481.287 208.828C481.287 208.828 437.626 220.221 422.968 213.496C422.968 213.496 346.744 113.187 248.134 138.63C149.555 164.187 113.08 262.49 75.6406 265.113C75.6406 265.113 110.143 272.093 140.264 291.511C177.781 315.682 254.525 313.057 297.159 299.43C339.792 285.802 408.121 225.494 423.262 224.192C438.361 222.963 467.381 219.534 473.557 220.879C479.734 222.224 487.903 214.096 481.402 208.797L481.287 208.828Z" fill="#22B869"/>
<path d="M422.926 213.568C422.926 213.568 346.702 113.259 248.092 138.702C149.555 164.187 113.08 262.49 75.6406 265.113C75.6406 265.113 263.46 186.686 422.968 213.496L422.926 213.568Z" fill="#52C889"/>
<path d="M422.061 109.176C411.474 108.279 394.224 126.615 401.396 135.101C468.552 214.82 491.669 283.502 504.075 339.626C504.787 342.741 505.427 345.814 505.953 348.918C508.311 362.062 547.724 349.665 545.365 336.521C539.471 304.244 524.499 274.644 510.491 245.214C480.894 182.738 427.578 109.657 422.061 109.176Z" fill="#565A2C"/>
<path d="M903.44 293.042C793.403 175.529 623.688 202.024 518.827 322.263C518.306 322.832 517.929 323.484 517.522 324.021C516.943 323.687 516.333 323.238 515.639 322.934C372.121 253.207 194.033 326.824 148.532 481.238C98.0384 652.663 204.466 800.347 328.015 907.506C415.84 983.706 518.48 987.244 636.243 907.384C764.783 939.492 851.577 867.44 908.781 798.971C1012.01 675.374 1013.08 410.232 903.368 293L903.44 293.042Z" fill="#FFBB2A"/>
<path d="M255.061 415.851C230.279 436.695 185.092 490.374 193.385 556.967C200.727 615.673 276.014 760.925 343.973 716.145C436.289 664.471 428.184 462.4 377.29 397.671C356.402 371.126 301.355 376.815 255.103 415.779L255.061 415.851Z" fill="#FFC954"/>
</svg>
