<svg width="1427" height="1404" viewBox="0 0 1427 1404" fill="none" xmlns="http://www.w3.org/2000/svg">
<g clip-path="url(#clip0_4124_858)">
<path d="M36.0612 1201.63C36.0612 1201.63 -56.0708 1077.27 54.5122 860.536C165.095 643.798 365.35 610.709 420.58 502.341C475.81 393.972 470.767 174.405 555.026 107.858C639.286 41.4346 708.662 -37.5357 736.953 21.3845C765.245 80.3047 728.958 138.487 741.628 162.719C754.297 187.074 822.689 220.286 825.272 286.71C827.732 353.134 843.108 396.309 799.195 476.14C755.281 556.095 447.888 981.206 328.079 1041.11C208.271 1101.01 36.0612 1201.63 36.0612 1201.63Z" fill="#16B238"/>
<path d="M40.8533 1198.79C29.2906 1171.86 -15.2378 1055 27.9376 954.873C77.1402 840.969 141.35 748.714 197.441 725.834C253.655 702.955 411.472 672.326 397.204 667.775C382.935 663.224 211.341 706.645 211.341 706.645C211.341 706.645 235.45 662.855 312.698 638.254C390.069 613.652 429.185 621.771 467.317 589.051C505.45 556.331 523.409 535.912 523.409 535.912C523.409 535.912 458.461 580.809 418.484 592.372C378.507 603.935 337.668 605.042 337.668 605.042C337.668 605.042 430.292 558.668 453.91 527.917C477.527 497.288 458.707 439.844 505.081 398.268C551.454 356.691 653.55 305.274 641.741 302.199C630.055 299.124 549.609 335.411 527.96 350.418C506.311 365.425 470.27 412.659 465.718 426.928C461.167 441.197 483.8 369.73 490.074 309.334C493.272 278.828 498.807 229.871 503.604 188.91C469.04 283.748 460.798 422.746 420.329 502.208C365.099 610.577 164.844 643.666 54.261 860.404C-46.2355 1057.71 20.6802 1178.01 33.5959 1198.18C34.949 1199.16 36.179 1199.9 37.2861 1200.64C38.0241 1200.27 39.2542 1199.53 40.6073 1198.67L40.8533 1198.79Z" fill="#44E069"/>
<path d="M119.546 1308.46C40.9446 1258.65 2.5665 1165.65 27.6599 1075.98C43.1587 1020.38 77.3546 953.343 147.468 881.876C303.072 722.951 486.721 687.772 522.516 622.824C558.188 557.876 567.413 448.77 616.616 420.847C665.819 392.925 717.112 438.068 751.554 406.209C785.996 374.351 826.711 307.927 885.263 293.658C943.814 279.389 980.47 320.597 1032.26 311.002C1084.04 301.408 1157.72 198.082 1227.22 287.139C1296.72 376.196 1244.44 440.405 1294.26 480.505C1344.08 520.605 1365.6 650.87 1302.13 704.746C1238.66 758.623 1159.57 787.038 1137.18 850.878C1114.79 914.719 1106.67 952.482 1053.04 965.398C999.413 978.19 906.051 948.054 792.515 1054.7C691.035 1149.91 384.871 1476.61 119.546 1308.59V1308.46Z" fill="#32D660"/>
<path d="M811.088 783.105C873.576 783.351 936.063 798.358 998.182 791.1C1060.18 783.843 1119.1 753.706 1161.41 707.825C1076.29 773.264 1040 775.724 932.619 777.077C905.434 777.446 799.649 768.59 786.241 749.893C824.25 715.82 852.911 690.727 866.933 681.009C867.671 680.517 868.778 679.779 869.639 679.041C901.375 675.597 946.273 673.26 957.097 674.244C1012.2 679.041 1021.8 684.453 1077.15 682.485C1132.5 680.517 1182.32 657.884 1202.74 636.727C1144.93 667.478 1077.03 678.672 1012.45 667.97C972.965 661.451 926.961 660.59 886.491 666.74C959.926 612.74 1171.13 450.618 1171.13 450.618C1171.13 450.618 1035.45 528.235 869.639 652.841C863.366 657.638 856.847 662.066 850.451 666.617C844.3 658.253 833.353 633.652 829.293 561.324C823.389 458.736 927.945 360.577 930.528 356.026C932.988 351.597 851.189 411.748 822.036 514.458C798.665 596.75 823.635 655.793 828.801 681.747C787.717 709.547 744.419 734.763 699.275 758.995C702.843 729.351 725.107 666.248 721.909 636.604C717.357 595.15 705.918 577.192 714.528 533.278C723.139 489.365 775.293 422.695 775.293 422.695C775.293 422.695 726.337 483.46 702.104 538.198C677.872 592.936 698.168 580.759 699.029 657.146C699.89 733.533 663.357 767.975 632.729 791.961C630.638 793.56 628.423 795.282 625.963 797.127C582.173 819.146 536.784 841.41 490.287 864.781C482.046 842.271 510.337 752.599 527.066 722.216C546.747 686.298 565.444 677.073 589.799 622.335C614.032 567.597 608.496 513.843 608.496 513.843C608.496 513.843 597.549 597.365 574.547 639.31C551.544 681.255 523.745 689.251 502.096 735.747C485.859 770.558 468.146 841.779 455.599 882.494C397.909 912.139 338.62 944.367 277.854 981.761C277.485 975.364 278.592 967.861 281.914 959.25C296.305 922.348 343.417 850.881 359.039 822.467C374.661 794.052 402.952 735.624 402.952 735.624C402.952 735.624 379.704 763.793 355.841 807.091C331.977 850.512 309.713 873.269 241.198 966.016C220.287 994.43 209.586 1014.73 204.665 1029.49C96.4196 1104.89 53.1212 1159.38 36.7613 1186.57C29.3809 1198.74 26.9208 1213.63 30.98 1227.28C39.0985 1254.22 62.5927 1272.55 80.7977 1274.52C121.882 1279.19 207.618 1228.39 305.408 1156.8C331.485 1160.37 357.686 1167.13 383.886 1167.75C458.182 1169.35 523.13 1121.62 583.895 1078.81C660.528 1024.94 744.173 974.134 837.412 965.032C781.567 951.87 722.893 972.043 673.321 1000.83C623.626 1029.61 579.221 1067.13 528.296 1093.33C488.073 1113.99 438.501 1127.15 398.524 1106C394.342 1103.78 390.037 1100.83 388.929 1096.28C388.683 1095.3 388.929 1094.19 388.929 1093.2C425.954 1064.05 463.472 1033.55 499.759 1003.04C533.216 974.995 566.551 946.212 598.779 917.92C662.988 896.271 733.102 897.747 801.125 895.902C874.806 893.934 952.546 885.692 1011.71 841.779C930.159 890.121 828.801 884.216 734.332 876.959C709.362 874.991 683.53 872.777 660.774 862.936C688.697 837.966 715.143 814.102 739.253 792.207C762.624 785.688 787.348 782.859 811.211 782.982L811.088 783.105Z" fill="#78FD9C"/>
<path d="M35.0585 1224.32C45.6371 1259.13 197.673 1109.93 260.653 1059C323.755 1007.95 608.393 837.344 608.393 837.344C608.393 837.344 514.785 887.161 329.291 983.722C143.796 1080.28 43.546 1204.64 43.546 1204.64C43.546 1204.64 33.2134 1218.05 35.0585 1224.2V1224.32Z" fill="#A2FFB9"/>
<path d="M80.207 1274.71C80.207 1274.71 195.956 1339.42 320.439 1320.47C444.922 1301.65 548.247 1217.52 589.332 1142.73C630.416 1067.94 720.457 953.052 799.304 956.127C878.151 959.202 908.534 989.339 955.523 934.601C1002.39 879.863 1030.43 804.583 1100.06 805.936C1169.8 807.289 1230.2 843.945 1284.2 843.453C1338.2 842.961 1428.11 832.013 1426.76 901.635C1425.41 971.38 1363.78 997.949 1334.51 1038.91C1305.23 1079.87 1272.63 1139.16 1207.56 1153.8C1142.49 1168.31 1010.01 1122.43 938.794 1160.44C867.573 1198.45 648.129 1389.97 477.888 1400.55C307.646 1411.01 147.738 1401.66 80.084 1274.84L80.207 1274.71Z" fill="#23C94B"/>
<path d="M1261.44 1127.82C1253.81 1130.52 1245.82 1133.48 1237.33 1136.43C1174.6 1158.94 1060.08 1122.9 1080.37 1110.6C1100.55 1098.17 1177.3 989.312 1177.3 989.312C1177.3 989.312 1109.65 1069.64 1063.52 1104.69C1017.4 1139.75 998.698 1112.69 931.044 1125.85C863.391 1139.01 779.131 1206.79 786.265 1193.87C793.4 1180.96 819.354 1121.42 833.5 1095.71C847.646 1069.88 888.238 1008.38 888.238 1008.38C888.238 1008.38 860.931 1033.59 830.302 1077.26C799.673 1120.81 795.737 1152.3 770.767 1185.51C745.796 1218.72 706.68 1240.98 706.68 1240.98C706.68 1240.98 719.842 1174.31 726.238 1144.3C732.635 1114.29 752.685 1041.34 752.685 1041.34C752.685 1041.34 717.505 1099.16 693.887 1197.07C670.27 1294.86 656.247 1283.79 612.703 1320.32C569.159 1356.86 457.1 1359.07 317.979 1349.6C248.972 1344.92 193.619 1324.63 155.241 1305.32C124.367 1295.85 100.995 1285.27 89.0636 1279.36C88.2026 1281.21 87.4645 1283.05 86.4805 1285.14C157.209 1401.88 312.567 1410.61 477.888 1400.52C648.129 1390.07 867.573 1198.55 938.794 1160.41C1010.01 1122.28 1142.49 1168.41 1207.56 1153.77C1228.47 1149.1 1246.06 1139.75 1261.32 1127.82H1261.44Z" fill="#44E069"/>
</g>
<defs>
<clipPath id="clip0_4124_858">
<rect width="1427" height="1402.89" fill="white" transform="translate(0 0.746094)"/>
</clipPath>
</defs>
</svg>
