<svg width="481" height="377" viewBox="0 0 481 377" fill="none" xmlns="http://www.w3.org/2000/svg">
    <g clip-path="url(#clip0_2397_55343)">
        <path
            d="M250.761 309.292C247.177 309.674 242.859 307.503 239.473 306.417C215.043 298.651 191.098 288.958 168.303 277.204C168.015 280.676 167.702 284.131 167.415 287.603C167.192 290.17 166.961 292.805 166.776 295.453C171.988 308.449 188.353 315.061 200.585 319.421C214.547 324.394 228.835 326.2 243.629 325.627C270.14 324.608 310.178 318.918 317.343 288.917C317.274 285.673 317.253 282.441 317.231 279.209C299.622 288.468 281.511 296.779 263.121 304.364C259.49 305.849 254.709 308.837 250.735 309.275L250.761 309.292Z"
            fill="#5B6389" />
        <path
            d="M317.654 299.045C305.733 321.45 273.411 327.56 249.167 329.197C230.557 330.443 212.793 328.44 195.423 321.604C185.298 317.627 173.152 312.134 166.499 302.864C166.418 313.727 168.393 324.268 177.69 331.357C197.37 346.39 226.568 350.212 250.473 347.772C269.28 345.839 292.018 342.807 307.348 330.746C317.896 322.453 318.2 312.706 317.693 300.242C317.68 299.843 317.667 299.444 317.654 299.045Z"
            fill="#B1B6CE" />
        <path
            d="M387.81 227.046C390.055 224.879 394.608 221.758 395.681 218.754C396.311 216.998 395.766 215.724 395.565 215.05C394.831 215.174 394.062 215.239 393.294 215.303C372.412 236.309 346.288 251.87 320.087 265.258C300.895 275.079 281.102 283.794 260.943 291.465C257.978 292.594 254.54 294.487 251.377 294.963C241.454 296.458 227.917 291.377 218.745 288.258C178.718 274.596 146.012 249.225 111.113 226.502C109.41 235.949 120.342 241.952 127.278 247.282C135.347 253.479 143.854 259.075 152.614 264.263C169.044 273.987 186.337 282.222 204.011 289.465C216.068 294.395 228.304 298.888 240.721 302.831C243.558 303.737 246.7 305.161 249.657 305.552C249.721 305.539 249.773 305.573 249.82 305.586C250.043 305.474 250.416 305.333 251.004 305.148C270.652 298.829 289.879 288.844 308.222 279.572C336.414 265.317 364.906 249.104 387.814 227.068L387.81 227.046Z"
            fill="#B1B6CE" />
        <path
            d="M398.523 211.322C399.081 210.206 398.669 208.592 397.059 208.58C368.287 208.333 339.29 194.919 313.812 182.698C301.442 176.759 289.266 170.335 277.445 163.349C273.346 160.933 269.26 158.47 265.333 155.796C264.277 155.092 263.007 153.762 261.826 153.328C261.247 153.11 260.779 152.444 260.286 152.097C260.474 152.483 260.41 153.054 259.114 153.603C259.071 153.612 259.032 153.642 258.972 153.676C259.015 153.668 259.028 153.621 259.088 153.586C259.753 153.118 260.002 152.466 259.968 151.848C259.753 151.668 259.813 151.633 259.946 151.741C259.792 150.633 258.667 149.698 257.264 150.269C256.848 150.419 256.577 150.629 256.35 150.831C246.865 156.746 237.213 162.828 227.377 168.881C227.046 167.005 226.965 165.035 227.303 162.936C231.567 135.837 277.362 145.198 295.701 138.806C305.967 135.235 319.112 122.74 312.54 110.753C309.625 105.444 303.501 103.947 298.054 102.716C290.973 101.12 287.822 102.107 284.693 95.0559C282.092 89.1934 284.015 89.5451 284.263 86.5494C289.675 85.9352 295.096 81.57 297.718 77.3852C298.477 76.1619 298.975 74.9687 299.267 73.8614C313.661 72.0748 326.987 63.4943 333.428 50.1761C337.754 41.2315 336.658 32.1886 326.697 28.5799C325.782 28.2495 324.504 28.7732 324.255 29.7604C323.285 33.6146 322.444 37.5546 320.08 40.6835C321.285 33.0997 320.143 26.3873 312.503 21.5553C305.374 17.0451 295.133 13.3806 286.528 14.2097C262.794 16.5035 272.187 48.2797 275.184 62.7002C275.197 62.7646 275.253 62.8204 275.266 62.8847C274.669 63.5844 274.146 64.4256 273.768 65.4385C271.97 70.2842 272.318 78.0482 275.653 82.7818C271.426 85.5247 268.903 91.2073 269.959 96.1515C270.955 100.795 274.737 104.413 278.574 106.859C280.823 108.284 283.248 109.249 285.763 110.107C287.325 110.554 288.888 111 290.454 111.468C296.012 112.587 297.553 117.167 295.073 125.184C272.049 139.946 236.154 122.622 219.551 150.293C214.093 159.375 214.518 167.302 217.673 174.706C183.632 195.198 147.556 214.111 109.26 221.371C108.123 221.599 107.578 222.779 107.823 223.779C103.926 235.539 111.365 239.363 120.404 246.727C134.006 257.82 149.028 267.089 164.527 275.281C163.682 285.449 162.498 295.595 162.808 305.844C163.152 316.488 164.986 325.428 173.244 332.68C192.228 349.37 223.722 353.848 247.933 351.816C268.499 350.089 294.293 346.713 310.717 332.871C317.36 327.256 321.514 319.908 321.921 311.123C322.294 302.724 322.147 294.183 321.859 285.604C322.018 284.389 322.151 283.157 322.228 281.87C322.258 281.239 322.026 280.749 321.67 280.419C321.614 279.247 321.584 278.093 321.528 276.921C325.721 274.676 329.905 272.388 334.051 270.019C348.771 261.605 363.144 252.458 376.461 241.938C383.225 236.59 389.713 230.872 395.597 224.584C399.695 220.193 399.481 219.12 399.502 213.202C399.497 212.511 399.137 211.713 398.484 211.352L398.523 211.322ZM317.349 288.939C310.184 318.939 270.149 324.651 243.634 325.649C228.84 326.221 214.552 324.415 200.591 319.442C188.333 315.065 171.993 308.47 166.782 295.474C166.962 292.805 167.193 290.17 167.42 287.625C167.708 284.152 168.016 280.676 168.308 277.225C191.103 288.979 215.048 298.672 239.478 306.439C242.865 307.524 247.182 309.696 250.766 309.313C254.719 308.879 259.5 305.892 263.152 304.402C281.525 296.843 299.653 288.507 317.262 279.248C317.284 282.479 317.331 285.728 317.374 288.956L317.349 288.939ZM307.318 330.717C291.988 342.778 269.25 345.81 250.443 347.743C226.537 350.182 197.318 346.365 177.66 331.328C168.385 324.234 166.405 313.672 166.469 302.835C173.122 312.105 185.268 317.598 195.393 321.575C212.763 328.411 230.532 330.435 249.137 329.168C273.381 327.53 305.703 321.42 317.624 299.016C317.637 299.415 317.65 299.814 317.663 300.213C318.166 312.655 317.866 322.424 307.318 330.717ZM308.215 279.54C289.872 288.812 270.624 298.801 250.997 305.116C250.409 305.3 250.036 305.442 249.813 305.554C249.77 305.562 249.719 305.528 249.65 305.519C246.693 305.129 243.551 303.704 240.714 302.799C228.297 298.856 216.061 294.363 204.004 289.433C186.334 282.211 169.037 273.955 152.607 264.231C143.847 259.043 135.34 253.447 127.271 247.25C120.313 241.924 109.399 235.895 111.106 226.47C146.005 249.193 178.69 274.568 218.738 288.226C227.915 291.367 241.469 296.421 251.37 294.931C254.533 294.454 257.971 292.561 260.936 291.433C281.099 283.783 300.888 275.047 320.081 265.226C346.281 251.837 372.405 236.277 393.287 215.271C394.056 215.207 394.824 215.142 395.558 215.018C395.759 215.691 396.305 216.966 395.674 218.722C394.601 221.726 390.048 224.846 387.803 227.014C364.895 249.05 336.403 265.263 308.21 279.519L308.215 279.54ZM263.183 158.994C274.707 166.843 287.176 173.498 299.589 179.875C327.225 194.075 359.162 210.136 390.952 212.19C357.418 246.15 310.789 267.643 267.017 285.016C262.159 286.947 256.782 289.853 251.627 290.862C243.893 292.365 233.756 288.881 226.305 286.667C200.78 279.12 177.002 265.8 154.585 251.694C140.876 243.077 128.029 233.194 114.587 224.234C151.548 216.325 186.383 198.017 219.373 178.182C226.529 191.413 241.122 203.223 244.308 217.472C243.505 217.811 242.703 218.15 241.982 218.562C239.248 220.069 236.021 223.46 239.24 226.275C241.214 228 244.476 228.463 246.978 228.588C250.317 228.768 253.614 228.064 256.631 226.634C259.017 225.398 262.012 223.303 262.27 220.35C262.548 217.058 259.188 215.767 256.484 215.527C255.917 215.484 255.329 215.445 254.75 215.45C253.882 208.995 251.916 202.961 248.113 197.227C242.718 189.111 232.236 182.013 228.489 172.653C238.33 166.622 247.999 160.514 257.526 154.591C259.518 156.625 262.707 158.62 263.273 158.998L263.183 158.994ZM220.024 159.572C223.216 144.962 237.447 138.455 250.975 136.685C266.113 134.706 283.821 137.211 297.207 128.373C297.25 128.364 297.241 128.321 297.28 128.291C297.4 128.222 297.503 128.18 297.619 128.089C303.545 122.574 304.12 114.29 296.669 109.845C291.729 106.905 285.638 106.807 280.707 103.687C278.659 102.378 274.878 99.5417 274.337 97.1726C274.401 97.4945 277.877 84.4126 278.989 85.9533C279.791 87.0648 278.045 90.9405 278.006 93.2023C277.84 103.747 289.226 104.661 297.192 106.437C300.741 107.222 305.763 108.114 308.137 111.166C312.725 117.032 308.438 125.277 303.846 129.544C296.546 136.338 285.988 137.447 276.482 138.344C258.061 140.088 214.465 141.268 224.154 172.293C228.816 187.228 251.787 196.737 250.698 213.828C250.004 224.635 246.359 209.094 244.809 206.257C241.023 199.27 234.937 193.949 229.911 187.902C223.369 180.083 217.712 170.1 220.003 159.577L220.024 159.572ZM276.876 68.5885C278.098 62.0948 284.742 63.8453 289.438 65.6733C291.399 66.4414 294.451 67.6386 295.442 69.6943C296.511 71.9131 295.052 74.5484 293.709 76.3125C290.958 79.9651 285.207 84.1287 280.435 82.2493C276.64 79.683 276.103 72.6487 276.854 68.5928L276.876 68.5885ZM281.764 19.2916C286.605 16.6045 293.502 18.1705 298.434 19.6165C310.739 23.2249 319.104 30.3445 315.179 45.1904C314.788 46.6969 316.29 48.4049 317.857 47.5335C320.685 45.941 322.591 44.31 324.264 41.5201C325.234 39.8977 325.491 37.5028 326.513 36.0263C326.744 35.1765 326.993 34.301 327.225 33.4511C331.59 36.4165 333.032 39.8327 331.582 43.7384C329.193 58.2323 312.644 67.9933 299.288 69.9515C298.502 66.694 295.605 64.1492 291.6 62.4285C287.841 60.815 282.63 59.4249 278.665 60.687C275.895 48.5198 268.348 26.752 281.79 19.3088L281.764 19.2916ZM258.381 220.102C258.21 220.471 258.051 220.793 257.759 221.119C257.034 221.956 256.038 222.557 255.072 223.085C255.167 222.887 255.231 222.651 255.244 222.381C255.205 221.295 255.145 220.214 255.068 219.158C256.467 219.123 257.707 219.299 258.364 219.904C258.497 220.012 258.48 219.926 258.407 220.119L258.381 220.102ZM242.021 223.107C242.596 222.747 243.059 222.275 243.66 221.931C244.042 221.721 244.45 221.528 244.862 221.356C244.875 221.42 244.888 221.485 244.901 221.549C244.944 222.322 245.296 223.3 246.184 223.502C249.759 224.304 249.278 224.356 252.017 224.21C250.472 224.63 248.862 224.841 247.236 224.742C246.175 224.686 242.643 224.545 241.772 223.425C241.802 223.352 241.845 223.232 242.042 223.103L242.021 223.107Z"
            fill="#21090B" />
        <path
            d="M248.048 197.231C251.851 202.964 253.817 208.999 254.685 215.454C255.268 215.471 255.852 215.488 256.419 215.531C259.122 215.771 262.483 217.062 262.204 220.354C261.969 223.303 258.952 225.402 256.565 226.638C253.548 228.068 250.252 228.772 246.913 228.592C244.407 228.446 241.149 228.004 239.175 226.279C235.956 223.464 239.204 220.069 241.917 218.566C242.659 218.15 243.44 217.815 244.243 217.476C241.053 203.206 226.459 191.396 219.308 178.186C186.318 198.021 151.482 216.329 114.521 224.238C127.964 233.198 140.811 243.081 154.52 251.698C176.954 265.778 200.715 279.124 226.24 286.671C233.712 288.881 243.828 292.369 251.562 290.866C256.716 289.857 262.094 286.951 266.952 285.02C310.724 267.647 357.375 246.149 390.887 212.194C359.076 210.145 327.16 194.079 299.523 179.879C287.136 173.519 274.668 166.864 263.118 158.998C262.547 158.599 259.362 156.625 257.371 154.59C247.865 160.51 238.196 166.618 228.333 172.653C232.081 182.013 242.562 189.111 247.958 197.227L248.048 197.231Z"
            fill="#5B6389" />
        <path
            d="M258.923 153.65C258.923 153.65 259.004 153.611 259.064 153.577C259.064 153.577 259.06 153.556 259.034 153.539C258.992 153.547 258.979 153.594 258.919 153.628L258.923 153.65Z"
            fill="white" />
        <path
            d="M259.9 151.836C259.9 151.836 260.085 151.977 260.244 152.102C260.141 151.922 260.003 151.793 259.9 151.724C259.909 151.767 259.918 151.81 259.922 151.832L259.9 151.836Z"
            fill="#21090B" />
        <path
            d="M247.217 224.75C248.84 224.827 250.453 224.638 251.998 224.217C249.282 224.359 249.741 224.312 246.166 223.509C245.277 223.308 244.925 222.329 244.882 221.557C244.869 221.492 244.857 221.428 244.844 221.364C244.436 221.557 244.045 221.724 243.642 221.939C243.041 222.282 242.552 222.737 242.003 223.115C241.805 223.244 241.762 223.364 241.732 223.437C242.582 224.561 246.11 224.681 247.196 224.754L247.217 224.75Z"
            fill="#B1B6CE" />
        <path
            d="M255.072 219.164C255.149 220.22 255.209 221.301 255.248 222.387C255.257 222.653 255.192 222.889 255.076 223.091C256.046 222.585 257.042 221.984 257.763 221.125C258.033 220.803 258.218 220.499 258.385 220.108C258.48 219.911 258.501 220.018 258.342 219.894C257.686 219.288 256.445 219.113 255.046 219.147L255.072 219.164Z"
            fill="#B1B6CE" />
        <path
            d="M291.578 62.425C295.583 64.1457 298.484 66.712 299.266 69.948C312.622 67.9899 329.17 58.2288 331.56 43.735C333.01 39.8292 331.568 36.413 327.203 33.4477C326.971 34.2975 326.722 35.1731 326.49 36.0229C325.469 37.4994 325.212 39.8942 324.242 41.5166C322.568 44.3065 320.641 45.9419 317.835 47.5301C316.268 48.4015 314.766 46.6934 315.156 45.1869C319.082 30.341 310.717 23.2215 298.412 19.613C293.502 18.1628 286.583 16.6011 281.742 19.2882C268.3 26.7314 275.869 48.4949 278.617 60.6664C282.582 59.4043 287.771 60.7987 291.552 62.4078L291.578 62.425Z"
            fill="#EAB6B3" />
        <path
            d="M229.935 187.903C234.983 193.946 241.047 199.271 244.833 206.258C246.383 209.095 250.028 224.636 250.722 213.829C251.811 196.738 228.84 187.229 224.178 172.294C214.489 141.269 258.086 140.089 276.506 138.345C286.013 137.448 296.549 136.344 303.871 129.545C308.463 125.278 312.749 117.033 308.161 111.167C305.787 108.115 300.766 107.223 297.216 106.438C289.25 104.662 277.864 103.749 278.031 93.2034C278.069 90.9416 279.811 87.0444 279.013 85.9543C277.901 84.4137 274.421 97.4741 274.361 97.1737C274.902 99.5428 278.662 102.384 280.731 103.688C285.663 106.808 291.748 106.885 296.693 109.846C304.144 114.292 303.574 122.596 297.643 128.09C297.531 128.202 297.424 128.224 297.304 128.292C297.261 128.301 297.27 128.344 297.231 128.374C283.867 137.208 266.137 134.707 251 136.687C237.472 138.456 223.24 144.964 220.048 159.573C217.757 170.097 223.415 180.08 229.956 187.899L229.935 187.903Z"
            fill="#E38E89" />
        <path
            d="M293.732 76.3146C295.054 74.5548 296.534 71.9152 295.465 69.6964C294.474 67.6406 291.426 66.4649 289.461 65.6754C284.765 63.8474 278.095 62.0797 276.899 68.5906C276.148 72.6464 276.685 79.6808 280.479 82.247C285.235 84.1522 291.003 79.9629 293.753 76.3103L293.732 76.3146Z"
            fill="#E38E89" />
    </g>
    <g clip-path="url(#clip1_2397_55343)">
        <path
            d="M416.3 305.779C414.951 305.923 413.325 305.106 412.05 304.697C402.853 301.773 393.839 298.124 385.257 293.699C385.149 295.006 385.031 296.307 384.923 297.614C384.839 298.58 384.752 299.572 384.682 300.569C386.644 305.462 392.805 307.951 397.41 309.592C402.667 311.465 408.045 312.144 413.615 311.929C423.595 311.545 438.668 309.403 441.366 298.109C441.34 296.887 441.332 295.671 441.324 294.454C434.694 297.94 427.876 301.068 420.953 303.924C419.586 304.483 417.786 305.608 416.29 305.773L416.3 305.779Z"
            fill="#5B6389" />
        <path
            d="M441.482 301.923C436.994 310.357 424.826 312.657 415.699 313.274C408.693 313.743 402.005 312.989 395.466 310.415C391.655 308.918 387.082 306.85 384.577 303.36C384.547 307.45 385.29 311.418 388.79 314.087C396.199 319.746 407.191 321.185 416.191 320.267C423.271 319.539 431.831 318.397 437.602 313.857C441.573 310.735 441.688 307.065 441.497 302.373C441.492 302.223 441.487 302.073 441.482 301.923Z"
            fill="#B1B6CE" />
        <path
            d="M467.893 274.819C468.738 274.003 470.452 272.828 470.856 271.697C471.094 271.036 470.888 270.556 470.813 270.302C470.536 270.349 470.247 270.374 469.958 270.398C462.096 278.306 452.262 284.164 442.398 289.204C435.173 292.901 427.721 296.182 420.132 299.07C419.016 299.495 417.722 300.208 416.531 300.387C412.795 300.95 407.699 299.037 404.246 297.863C389.177 292.719 376.864 283.168 363.726 274.614C363.085 278.17 367.2 280.43 369.812 282.437C372.849 284.77 376.052 286.876 379.35 288.829C385.535 292.49 392.045 295.59 398.699 298.317C403.238 300.173 407.845 301.865 412.519 303.349C413.587 303.69 414.77 304.226 415.883 304.373C415.907 304.368 415.927 304.381 415.945 304.386C416.029 304.344 416.169 304.291 416.39 304.221C423.787 301.842 431.025 298.083 437.931 294.593C448.544 289.226 459.271 283.123 467.895 274.827L467.893 274.819Z"
            fill="#B1B6CE" />
        <path
            d="M471.924 268.897C472.135 268.477 471.979 267.87 471.373 267.865C460.541 267.772 449.625 262.722 440.034 258.121C435.377 255.885 430.793 253.467 426.343 250.837C424.8 249.927 423.261 249 421.783 247.993C421.385 247.728 420.907 247.228 420.463 247.064C420.245 246.982 420.069 246.732 419.883 246.601C419.954 246.746 419.93 246.961 419.442 247.168C419.426 247.171 419.411 247.183 419.388 247.195C419.405 247.192 419.409 247.174 419.432 247.161C419.682 246.985 419.776 246.74 419.763 246.507C419.682 246.439 419.705 246.426 419.755 246.467C419.697 246.05 419.274 245.698 418.745 245.913C418.588 245.969 418.487 246.048 418.401 246.124C414.83 248.351 411.197 250.641 407.494 252.919C407.369 252.213 407.338 251.472 407.466 250.682C409.071 240.48 426.312 244.004 433.215 241.597C437.08 240.253 442.029 235.549 439.555 231.036C438.458 229.038 436.152 228.474 434.101 228.01C431.435 227.41 430.249 227.781 429.071 225.127C428.092 222.92 428.816 223.052 428.91 221.924C430.947 221.693 432.988 220.05 433.975 218.474C434.261 218.014 434.448 217.565 434.558 217.148C439.977 216.475 444.994 213.245 447.418 208.231C449.047 204.864 448.635 201.459 444.884 200.101C444.54 199.976 444.059 200.174 443.965 200.545C443.6 201.996 443.283 203.479 442.393 204.657C442.847 201.802 442.417 199.275 439.541 197.456C436.857 195.758 433.002 194.379 429.762 194.691C420.827 195.554 424.363 207.517 425.491 212.946C425.496 212.97 425.517 212.991 425.522 213.015C425.298 213.279 425.101 213.596 424.958 213.977C424.282 215.801 424.413 218.724 425.668 220.506C424.077 221.539 423.127 223.678 423.525 225.539C423.9 227.287 425.323 228.649 426.768 229.57C427.614 230.107 428.527 230.47 429.474 230.793C430.062 230.961 430.65 231.129 431.24 231.305C433.333 231.727 433.913 233.451 432.979 236.469C424.311 242.026 410.798 235.505 404.548 245.922C402.493 249.341 402.653 252.325 403.841 255.112C391.025 262.827 377.444 269.947 363.027 272.68C362.599 272.766 362.393 273.21 362.486 273.587C361.019 278.014 363.819 279.453 367.222 282.226C372.343 286.402 377.998 289.892 383.833 292.976C383.515 296.803 383.069 300.623 383.186 304.481C383.315 308.488 384.006 311.854 387.114 314.584C394.261 320.867 406.118 322.553 415.232 321.788C422.975 321.138 432.685 319.867 438.868 314.656C441.369 312.543 442.933 309.776 443.086 306.469C443.227 303.307 443.172 300.091 443.063 296.862C443.123 296.404 443.173 295.941 443.202 295.456C443.213 295.218 443.126 295.034 442.992 294.91C442.971 294.469 442.959 294.034 442.938 293.593C444.517 292.748 446.092 291.886 447.653 290.994C453.195 287.827 458.606 284.384 463.619 280.423C466.165 278.409 468.608 276.257 470.823 273.89C472.366 272.237 472.285 271.833 472.293 269.605C472.291 269.345 472.156 269.044 471.91 268.908L471.924 268.897ZM441.365 298.117C438.668 309.411 423.596 311.562 413.614 311.937C408.045 312.153 402.666 311.473 397.41 309.601C392.795 307.953 386.643 305.47 384.682 300.578C384.749 299.573 384.837 298.581 384.922 297.622C385.03 296.315 385.146 295.007 385.256 293.707C393.838 298.132 402.852 301.782 412.049 304.705C413.324 305.114 414.95 305.931 416.299 305.787C417.787 305.624 419.587 304.499 420.962 303.939C427.879 301.093 434.703 297.954 441.332 294.469C441.341 295.685 441.358 296.909 441.375 298.124L441.365 298.117ZM437.589 313.845C431.818 318.386 423.257 319.527 416.177 320.255C407.178 321.173 396.178 319.736 388.777 314.075C385.285 311.405 384.54 307.428 384.564 303.349C387.069 306.838 391.641 308.906 395.453 310.404C401.992 312.977 408.681 313.739 415.686 313.262C424.813 312.646 436.981 310.345 441.469 301.911C441.474 302.061 441.478 302.211 441.483 302.362C441.673 307.046 441.56 310.723 437.589 313.845ZM437.926 294.579C431.021 298.07 423.775 301.83 416.386 304.207C416.165 304.277 416.024 304.33 415.94 304.372C415.924 304.375 415.905 304.362 415.879 304.359C414.765 304.212 413.583 303.676 412.515 303.335C407.84 301.851 403.234 300.159 398.695 298.303C392.043 295.584 385.531 292.476 379.345 288.815C376.048 286.862 372.845 284.756 369.807 282.423C367.188 280.418 363.079 278.148 363.722 274.6C376.86 283.154 389.165 292.707 404.242 297.849C407.696 299.031 412.799 300.934 416.526 300.373C417.717 300.194 419.011 299.481 420.128 299.056C427.718 296.176 435.168 292.887 442.394 289.19C452.257 284.15 462.092 278.292 469.953 270.384C470.243 270.36 470.532 270.335 470.808 270.288C470.884 270.542 471.089 271.022 470.852 271.683C470.448 272.814 468.734 273.989 467.889 274.805C459.265 283.101 448.538 289.204 437.925 294.571L437.926 294.579ZM420.974 249.197C425.312 252.152 430.006 254.658 434.679 257.058C445.083 262.404 457.106 268.451 469.074 269.224C456.45 282.009 438.896 290.1 422.417 296.64C420.588 297.367 418.564 298.462 416.623 298.841C413.712 299.407 409.895 298.095 407.09 297.262C397.481 294.421 388.529 289.406 380.09 284.096C374.929 280.852 370.093 277.131 365.032 273.758C378.947 270.781 392.061 263.888 404.481 256.421C407.174 261.402 412.668 265.848 413.868 271.212C413.566 271.34 413.263 271.468 412.992 271.623C411.963 272.19 410.748 273.467 411.96 274.526C412.703 275.176 413.931 275.35 414.873 275.397C416.13 275.465 417.371 275.2 418.507 274.662C419.405 274.196 420.533 273.408 420.63 272.296C420.735 271.057 419.469 270.57 418.451 270.48C418.238 270.464 418.017 270.449 417.799 270.451C417.472 268.021 416.732 265.749 415.3 263.591C413.269 260.536 409.323 257.863 407.912 254.34C411.617 252.069 415.257 249.77 418.844 247.54C419.594 248.305 420.794 249.057 421.007 249.199L420.974 249.197ZM404.726 249.415C405.927 243.915 411.285 241.465 416.378 240.799C422.076 240.054 428.743 240.997 433.782 237.669C433.798 237.666 433.795 237.65 433.81 237.639C433.855 237.613 433.894 237.597 433.937 237.563C436.169 235.486 436.385 232.368 433.58 230.694C431.72 229.588 429.427 229.551 427.571 228.376C426.8 227.883 425.376 226.816 425.173 225.924C425.197 226.045 426.505 221.12 426.924 221.7C427.226 222.118 426.568 223.577 426.554 224.429C426.491 228.399 430.778 228.743 433.777 229.411C435.113 229.707 437.003 230.043 437.897 231.192C439.624 233.4 438.011 236.504 436.282 238.11C433.534 240.668 429.559 241.085 425.98 241.423C419.045 242.08 402.633 242.524 406.28 254.204C408.036 259.827 416.683 263.406 416.273 269.84C416.012 273.909 414.64 268.058 414.056 266.99C412.631 264.36 410.34 262.357 408.448 260.08C405.985 257.137 403.855 253.379 404.718 249.417L404.726 249.415ZM426.128 215.163C426.589 212.718 429.09 213.377 430.857 214.065C431.596 214.354 432.745 214.805 433.118 215.579C433.52 216.414 432.971 217.406 432.465 218.071C431.43 219.446 429.265 221.013 427.468 220.306C426.04 219.339 425.838 216.691 426.12 215.164L426.128 215.163ZM427.969 196.604C429.791 195.592 432.388 196.182 434.244 196.726C438.877 198.085 442.026 200.765 440.548 206.354C440.401 206.921 440.967 207.564 441.556 207.236C442.621 206.637 443.338 206.023 443.969 204.972C444.334 204.362 444.431 203.46 444.815 202.904C444.902 202.584 444.996 202.255 445.083 201.935C446.726 203.051 447.269 204.337 446.723 205.807C445.824 211.264 439.594 214.939 434.566 215.676C434.27 214.45 433.179 213.491 431.672 212.844C430.256 212.236 428.295 211.713 426.802 212.188C425.759 207.608 422.918 199.413 427.978 196.611L427.969 196.604ZM419.166 272.202C419.101 272.341 419.041 272.463 418.932 272.585C418.659 272.9 418.284 273.127 417.92 273.325C417.956 273.251 417.98 273.162 417.985 273.06C417.97 272.652 417.948 272.244 417.918 271.847C418.445 271.834 418.912 271.9 419.159 272.128C419.209 272.168 419.203 272.136 419.175 272.209L419.166 272.202ZM413.007 273.334C413.223 273.198 413.398 273.02 413.624 272.891C413.768 272.812 413.921 272.739 414.076 272.675C414.081 272.699 414.086 272.723 414.091 272.747C414.107 273.038 414.239 273.406 414.574 273.482C415.92 273.784 415.739 273.804 416.77 273.749C416.188 273.907 415.582 273.986 414.97 273.949C414.571 273.928 413.241 273.875 412.913 273.453C412.924 273.426 412.94 273.381 413.015 273.332L413.007 273.334Z"
            fill="#21090B" />
        <path
            d="M415.278 263.597C416.709 265.755 417.45 268.027 417.776 270.457C417.996 270.464 418.216 270.47 418.429 270.486C419.447 270.577 420.712 271.063 420.607 272.302C420.518 273.412 419.382 274.202 418.484 274.668C417.348 275.206 416.107 275.471 414.85 275.403C413.907 275.348 412.68 275.182 411.937 274.533C410.725 273.473 411.948 272.195 412.969 271.629C413.249 271.472 413.543 271.346 413.845 271.219C412.644 265.846 407.15 261.4 404.458 256.427C392.038 263.894 378.924 270.787 365.009 273.764C370.07 277.137 374.906 280.858 380.067 284.102C388.513 289.403 397.458 294.427 407.067 297.268C409.881 298.1 413.689 299.413 416.601 298.848C418.541 298.468 420.565 297.374 422.394 296.646C438.873 290.106 456.435 282.013 469.052 269.23C457.076 268.459 445.061 262.41 434.656 257.065C429.993 254.67 425.299 252.165 420.951 249.203C420.736 249.053 419.537 248.31 418.787 247.544C415.209 249.773 411.569 252.072 407.856 254.344C409.267 257.868 413.212 260.54 415.244 263.595L415.278 263.597Z"
            fill="#5B6389" />
        <path
            d="M419.37 247.186C419.37 247.186 419.4 247.172 419.423 247.159C419.423 247.159 419.421 247.151 419.411 247.145C419.395 247.148 419.391 247.166 419.368 247.178L419.37 247.186Z"
            fill="white" />
        <path
            d="M419.739 246.505C419.739 246.505 419.808 246.559 419.868 246.605C419.829 246.538 419.777 246.489 419.739 246.463C419.742 246.479 419.745 246.496 419.747 246.504L419.739 246.505Z"
            fill="#21090B" />
        <path
            d="M414.963 273.954C415.574 273.983 416.181 273.912 416.763 273.753C415.74 273.807 415.913 273.789 414.567 273.487C414.233 273.411 414.1 273.043 414.084 272.752C414.079 272.728 414.074 272.703 414.069 272.679C413.916 272.752 413.769 272.815 413.617 272.896C413.391 273.025 413.207 273.196 413 273.338C412.925 273.387 412.909 273.432 412.898 273.46C413.218 273.883 414.546 273.928 414.955 273.956L414.963 273.954Z"
            fill="#B1B6CE" />
        <path
            d="M417.921 271.851C417.95 272.248 417.973 272.656 417.987 273.064C417.991 273.165 417.966 273.253 417.923 273.329C418.288 273.139 418.663 272.912 418.934 272.589C419.036 272.468 419.105 272.353 419.168 272.206C419.204 272.132 419.212 272.172 419.152 272.126C418.905 271.898 418.438 271.831 417.911 271.844L417.921 271.851Z"
            fill="#B1B6CE" />
        <path
            d="M431.663 212.841C433.171 213.489 434.263 214.455 434.557 215.674C439.585 214.936 445.815 211.262 446.715 205.805C447.261 204.335 446.718 203.049 445.075 201.932C444.987 202.252 444.894 202.582 444.807 202.902C444.422 203.458 444.325 204.359 443.96 204.97C443.33 206.02 442.605 206.636 441.548 207.234C440.958 207.562 440.393 206.919 440.54 206.352C442.018 200.763 438.868 198.083 434.236 196.724C432.387 196.178 429.783 195.59 427.96 196.602C422.9 199.404 425.749 207.597 426.784 212.179C428.277 211.704 430.23 212.229 431.654 212.835L431.663 212.841Z"
            fill="#EAB6B3" />
        <path
            d="M408.459 260.079C410.359 262.354 412.643 264.359 414.068 266.989C414.651 268.057 416.023 273.908 416.285 269.839C416.695 263.405 408.047 259.825 406.292 254.203C402.644 242.523 419.057 242.079 425.992 241.422C429.57 241.084 433.537 240.669 436.293 238.109C438.022 236.503 439.636 233.399 437.909 231.19C437.015 230.042 435.125 229.706 433.788 229.41C430.789 228.741 426.503 228.398 426.565 224.428C426.58 223.576 427.236 222.109 426.935 221.699C426.517 221.119 425.207 226.036 425.184 225.922C425.388 226.814 426.803 227.884 427.582 228.375C429.439 229.549 431.73 229.578 433.591 230.693C436.396 232.367 436.182 235.493 433.949 237.562C433.907 237.604 433.866 237.612 433.821 237.638C433.805 237.641 433.808 237.657 433.794 237.668C428.763 240.994 422.088 240.052 416.389 240.798C411.296 241.464 405.939 243.914 404.737 249.414C403.875 253.376 406.005 257.134 408.467 260.077L408.459 260.079Z"
            fill="#E38E89" />
        <path
            d="M432.474 218.074C432.971 217.412 433.528 216.418 433.126 215.583C432.753 214.809 431.606 214.366 430.866 214.069C429.098 213.381 426.587 212.715 426.136 215.166C425.854 216.693 426.056 219.341 427.484 220.307C429.275 221.025 431.446 219.448 432.482 218.073L432.474 218.074Z"
            fill="#E38E89" />
    </g>
    <g clip-path="url(#clip2_2397_55343)">
        <path
            d="M67.2997 300.779C65.9506 300.923 64.3251 300.106 63.0502 299.697C53.8532 296.773 44.8386 293.124 36.257 288.699C36.1489 290.006 36.0311 291.307 35.9229 292.614C35.839 293.58 35.7518 294.572 35.6824 295.569C37.6443 300.462 43.8054 302.951 48.4104 304.592C53.6665 306.465 59.0454 307.144 64.6149 306.929C74.5953 306.545 89.6684 304.403 92.3658 293.109C92.3399 291.887 92.3317 290.671 92.3235 289.454C85.6944 292.94 78.8762 296.068 71.9529 298.924C70.5861 299.483 68.7862 300.608 67.29 300.773L67.2997 300.779Z"
            fill="#5B6389" />
        <path
            d="M92.482 296.923C87.9942 305.357 75.8261 307.657 66.6988 308.274C59.693 308.743 53.0054 307.989 46.4662 305.415C42.6546 303.918 38.0818 301.85 35.5772 298.36C35.5468 302.45 36.2903 306.418 39.7903 309.087C47.1989 314.746 58.191 316.185 67.1906 315.267C74.2707 314.539 82.8309 313.397 88.602 308.857C92.5732 305.735 92.6876 302.065 92.4966 297.373C92.4917 297.223 92.4869 297.073 92.482 296.923Z"
            fill="#B1B6CE" />
        <path
            d="M118.893 269.819C119.738 269.003 121.452 267.828 121.856 266.697C122.094 266.036 121.888 265.556 121.813 265.302C121.536 265.349 121.247 265.374 120.958 265.398C113.096 273.306 103.262 279.164 93.3979 284.204C86.1726 287.901 78.7211 291.182 71.1321 294.07C70.0157 294.495 68.7215 295.208 67.5307 295.387C63.7952 295.95 58.699 294.037 55.246 292.863C40.1771 287.719 27.8644 278.168 14.7261 269.614C14.0849 273.17 18.2004 275.43 20.8116 277.437C23.8494 279.77 27.052 281.876 30.3499 283.829C36.5352 287.49 43.0453 290.59 49.6992 293.317C54.238 295.173 58.8446 296.865 63.5191 298.349C64.5871 298.69 65.7699 299.226 66.8831 299.373C66.9074 299.368 66.9268 299.381 66.9445 299.386C67.0286 299.344 67.1691 299.291 67.3905 299.221C74.7872 296.842 82.0254 293.083 88.9308 289.593C99.5442 284.226 110.271 278.123 118.895 269.827L118.893 269.819Z"
            fill="#B1B6CE" />
        <path
            d="M122.924 263.897C123.135 263.477 122.979 262.87 122.373 262.865C111.541 262.772 100.625 257.722 91.0336 253.121C86.3769 250.885 81.7928 248.467 77.3428 245.837C75.7997 244.927 74.2615 244 72.783 242.993C72.3855 242.728 71.9072 242.228 71.4628 242.064C71.2447 241.982 71.0685 241.732 70.8827 241.601C70.9538 241.746 70.9296 241.961 70.4417 242.168C70.4255 242.171 70.411 242.183 70.3884 242.195C70.4045 242.192 70.4094 242.174 70.432 242.161C70.6824 241.985 70.7761 241.74 70.7632 241.507C70.6824 241.439 70.705 241.426 70.7551 241.467C70.6969 241.05 70.2735 240.698 69.7452 240.913C69.5885 240.969 69.4867 241.048 69.4011 241.124C65.8304 243.351 62.1968 245.641 58.4937 247.919C58.3692 247.213 58.3385 246.472 58.466 245.682C60.0713 235.48 77.3116 239.004 84.2155 236.597C88.0802 235.253 93.0289 230.549 90.5548 226.036C89.4576 224.038 87.1518 223.474 85.1014 223.01C82.4354 222.41 81.2495 222.781 80.0714 220.127C79.092 217.92 79.8159 218.052 79.9095 216.924C81.947 216.693 83.9875 215.05 84.9746 213.474C85.2606 213.014 85.448 212.565 85.5578 212.148C90.977 211.475 95.9936 208.245 98.4184 203.231C100.047 199.864 99.6345 196.459 95.8843 195.101C95.5401 194.976 95.0586 195.174 94.9649 195.545C94.5999 196.996 94.2833 198.479 93.3932 199.657C93.847 196.802 93.417 194.275 90.5408 192.456C87.8569 190.758 84.0016 189.379 80.7621 189.691C71.827 190.554 75.3633 202.517 76.4915 207.946C76.4963 207.97 76.5174 207.991 76.5222 208.015C76.2976 208.279 76.1005 208.596 75.9584 208.977C75.2815 210.801 75.4126 213.724 76.6682 215.506C75.0768 216.539 74.1269 218.678 74.5245 220.539C74.8995 222.287 76.3231 223.649 77.7677 224.57C78.6144 225.107 79.5273 225.47 80.4741 225.793C81.0623 225.961 81.6504 226.129 82.2402 226.305C84.3326 226.727 84.9128 228.451 83.9791 231.469C75.3111 237.026 61.7981 230.505 55.5476 240.922C53.4927 244.341 53.6529 247.325 54.8407 250.112C42.0252 257.827 28.4438 264.947 14.0267 267.68C13.5985 267.766 13.3934 268.21 13.4855 268.587C12.0188 273.014 14.819 274.453 18.222 277.226C23.3426 281.402 28.998 284.892 34.8327 287.976C34.5147 291.803 34.0691 295.623 34.1857 299.481C34.3153 303.488 35.0055 306.854 38.1144 309.584C45.2614 315.867 57.1179 317.553 66.2322 316.788C73.9748 316.138 83.6854 314.867 89.8684 309.656C92.3694 307.543 93.9332 304.776 94.0865 301.469C94.2268 298.307 94.1716 295.091 94.0631 291.862C94.1228 291.404 94.1729 290.941 94.2019 290.456C94.2132 290.218 94.1259 290.034 93.9918 289.91C93.9708 289.469 93.9594 289.034 93.9384 288.593C95.5169 287.748 97.0922 286.886 98.6529 285.994C104.195 282.827 109.606 279.384 114.619 275.423C117.165 273.409 119.608 271.257 121.823 268.89C123.366 267.237 123.285 266.833 123.293 264.605C123.291 264.345 123.156 264.044 122.91 263.908L122.924 263.897ZM92.365 293.117C89.6676 304.411 74.5961 306.562 64.6141 306.937C59.0446 307.153 53.6657 306.473 48.4096 304.601C43.7948 302.953 37.6435 300.47 35.6816 295.578C35.7494 294.573 35.8365 293.581 35.9221 292.622C36.0302 291.315 36.1465 290.007 36.2562 288.707C44.8378 293.132 53.8524 296.782 63.0494 299.705C64.3243 300.114 65.9498 300.931 67.2989 300.787C68.787 300.624 70.5869 299.499 71.9618 298.939C78.8786 296.093 85.7033 292.954 92.3324 289.469C92.3406 290.685 92.3585 291.909 92.3747 293.124L92.365 293.117ZM88.5887 308.845C82.8176 313.386 74.2575 314.527 67.1773 315.255C58.1777 316.173 47.1776 314.736 39.777 309.075C36.2851 306.405 35.54 302.428 35.5639 298.349C38.0686 301.838 42.6413 303.906 46.4529 305.404C52.9921 307.977 59.6813 308.739 66.6856 308.262C75.8129 307.646 87.9809 305.345 92.4687 296.911C92.4736 297.061 92.4784 297.211 92.4833 297.362C92.6727 302.046 92.5599 305.723 88.5887 308.845ZM88.9264 289.579C82.021 293.07 74.7747 296.83 67.3861 299.207C67.1647 299.277 67.0241 299.33 66.9401 299.372C66.924 299.375 66.9046 299.362 66.8787 299.359C65.7655 299.212 64.5827 298.676 63.5147 298.335C58.8402 296.851 54.2336 295.159 49.6948 293.303C43.0425 290.584 36.5308 287.476 30.3454 283.815C27.0475 281.862 23.845 279.756 20.8072 277.423C18.1879 275.418 14.0789 273.148 14.7216 269.6C27.86 278.154 40.1647 287.707 55.2416 292.849C58.6962 294.031 63.7988 295.934 67.5263 295.373C68.7171 295.194 70.0113 294.481 71.1277 294.056C78.7183 291.176 86.1682 287.887 93.3935 284.19C103.257 279.15 113.092 273.292 120.953 265.384C121.243 265.36 121.532 265.335 121.808 265.288C121.884 265.542 122.089 266.022 121.852 266.683C121.448 267.814 119.734 268.989 118.889 269.805C110.265 278.101 99.5382 284.204 88.9248 289.571L88.9264 289.579ZM71.9736 244.197C76.3121 247.152 81.006 249.658 85.679 252.058C96.0832 257.404 108.106 263.451 120.074 264.224C107.45 277.009 89.8955 285.1 73.417 291.64C71.5881 292.367 69.5636 293.462 67.6231 293.841C64.7116 294.407 60.8951 293.095 58.0901 292.262C48.481 289.421 39.5294 284.406 31.0899 279.096C25.929 275.852 21.0927 272.131 16.0319 268.758C29.9465 265.781 43.061 258.888 55.4806 251.421C58.1745 256.402 63.6684 260.848 64.8677 266.212C64.5655 266.34 64.2634 266.468 63.992 266.623C62.9628 267.19 61.7479 268.467 62.9597 269.526C63.703 270.176 64.931 270.35 65.873 270.397C67.1301 270.465 68.3709 270.2 69.5068 269.662C70.4051 269.196 71.5328 268.408 71.6297 267.296C71.7346 266.057 70.4694 265.57 69.4515 265.48C69.2382 265.464 69.0169 265.449 68.7987 265.451C68.4722 263.021 67.732 260.749 66.3002 258.591C64.269 255.536 60.3231 252.863 58.9123 249.34C62.617 247.069 66.2571 244.77 69.8439 242.54C70.5936 243.305 71.7942 244.057 72.0075 244.199L71.9736 244.197ZM55.7256 244.415C56.9273 238.915 62.2849 236.465 67.3777 235.799C73.0764 235.054 79.743 235.997 84.7823 232.669C84.7984 232.666 84.7952 232.65 84.8097 232.639C84.855 232.613 84.8938 232.597 84.9374 232.563C87.1686 230.486 87.3848 227.368 84.5797 225.694C82.7199 224.588 80.4272 224.551 78.5706 223.376C77.7998 222.883 76.3763 221.816 76.1726 220.924C76.1969 221.045 77.5052 216.12 77.9238 216.7C78.2259 217.118 77.5684 218.577 77.554 219.429C77.4913 223.399 81.7779 223.743 84.7768 224.411C86.113 224.707 88.0035 225.043 88.8971 226.192C90.6245 228.4 89.0106 231.504 87.2819 233.11C84.5337 235.668 80.559 236.085 76.9801 236.423C70.0454 237.08 53.6327 237.524 57.2804 249.204C59.0355 254.827 67.6833 258.406 67.2734 264.84C67.012 268.909 65.6398 263.058 65.0564 261.99C63.6311 259.36 61.3398 257.357 59.4476 255.08C56.9849 252.137 54.8551 248.379 55.7176 244.417L55.7256 244.415ZM77.1283 210.163C77.5886 207.718 80.0898 208.377 81.8575 209.065C82.5959 209.354 83.7447 209.805 84.118 210.579C84.5204 211.414 83.9712 212.406 83.4655 213.071C82.4299 214.446 80.2649 216.013 78.4682 215.306C77.0398 214.339 76.8376 211.691 77.1202 210.164L77.1283 210.163ZM78.9687 191.604C80.7912 190.592 83.3878 191.182 85.2443 191.726C89.8768 193.085 93.0261 195.765 91.5481 201.354C91.4011 201.921 91.9667 202.564 92.5564 202.236C93.6211 201.637 94.3385 201.023 94.9685 199.972C95.3336 199.362 95.4305 198.46 95.815 197.904C95.9022 197.584 95.9959 197.255 96.0832 196.935C97.7265 198.051 98.2695 199.337 97.7235 200.807C96.8239 206.264 90.5939 209.939 85.5658 210.676C85.27 209.45 84.1793 208.491 82.6717 207.844C81.2563 207.236 79.2947 206.713 77.8018 207.188C76.7593 202.608 73.9181 194.413 78.9784 191.611L78.9687 191.604ZM70.1658 267.202C70.1012 267.341 70.0414 267.463 69.9315 267.585C69.6585 267.9 69.2837 268.127 68.9201 268.325C68.9557 268.251 68.9799 268.162 68.9848 268.06C68.9702 267.652 68.9475 267.244 68.9184 266.847C69.4451 266.834 69.9121 266.9 70.1593 267.128C70.2094 267.168 70.2029 267.136 70.1755 267.209L70.1658 267.202ZM64.0067 268.334C64.2232 268.198 64.3976 268.02 64.6238 267.891C64.7676 267.812 64.9211 267.739 65.0762 267.675C65.0811 267.699 65.0859 267.723 65.0908 267.747C65.107 268.038 65.2395 268.406 65.5739 268.482C66.9199 268.784 66.7389 268.804 67.7698 268.749C67.1881 268.907 66.5822 268.986 65.9698 268.949C65.5707 268.928 64.241 268.875 63.913 268.453C63.9243 268.426 63.9404 268.381 64.0147 268.332L64.0067 268.334Z"
            fill="#21090B" />
        <path
            d="M66.2776 258.597C67.7093 260.755 68.4495 263.027 68.7761 265.457C68.9959 265.464 69.2156 265.47 69.4289 265.486C70.4468 265.577 71.712 266.063 71.6071 267.302C71.5183 268.412 70.3825 269.202 69.4841 269.668C68.3483 270.206 67.1075 270.471 65.8504 270.403C64.9068 270.348 63.6804 270.182 62.9371 269.533C61.7252 268.473 62.9483 267.195 63.9694 266.629C64.2489 266.472 64.5429 266.346 64.8451 266.219C63.6441 260.846 58.1502 256.4 55.458 251.427C43.0384 258.894 29.9239 265.787 16.0093 268.764C21.0701 272.137 25.9064 275.858 31.0673 279.102C39.5132 284.403 48.4584 289.427 58.0675 292.268C60.8806 293.1 64.689 294.413 67.6005 293.848C69.541 293.468 71.5655 292.374 73.3944 291.646C89.8729 285.106 107.435 277.013 120.052 264.23C108.076 263.459 96.0606 257.41 85.6564 252.065C80.9931 249.67 76.2992 247.165 71.951 244.203C71.736 244.053 70.5371 243.31 69.7873 242.544C66.2086 244.773 62.5685 247.072 58.8557 249.344C60.2666 252.868 64.2124 255.54 66.2437 258.595L66.2776 258.597Z"
            fill="#5B6389" />
        <path
            d="M70.3697 242.186C70.3697 242.186 70.4002 242.172 70.4227 242.159C70.4227 242.159 70.4211 242.151 70.4115 242.145C70.3954 242.148 70.3906 242.166 70.3681 242.178L70.3697 242.186Z"
            fill="white" />
        <path
            d="M70.7386 241.505C70.7386 241.505 70.808 241.559 70.8678 241.605C70.829 241.538 70.7773 241.489 70.7385 241.463C70.7418 241.479 70.745 241.496 70.7466 241.504L70.7386 241.505Z"
            fill="#21090B" />
        <path
            d="M65.963 268.954C66.5738 268.983 67.1813 268.912 67.7629 268.753C66.7402 268.807 66.913 268.789 65.5671 268.487C65.2326 268.411 65.1001 268.043 65.0839 267.752C65.0791 267.728 65.0742 267.703 65.0694 267.679C64.9159 267.752 64.7689 267.815 64.617 267.896C64.3908 268.025 64.2066 268.196 63.9998 268.338C63.9255 268.387 63.9093 268.432 63.898 268.46C64.218 268.883 65.5461 268.928 65.9549 268.956L65.963 268.954Z"
            fill="#B1B6CE" />
        <path
            d="M68.9211 266.851C68.9502 267.248 68.9729 267.656 68.9874 268.064C68.9907 268.165 68.9664 268.253 68.9228 268.329C69.288 268.139 69.6628 267.912 69.9342 267.589C70.036 267.468 70.1055 267.353 70.1685 267.206C70.204 267.132 70.2121 267.172 70.1523 267.126C69.9051 266.898 69.4381 266.831 68.9114 266.844L68.9211 266.851Z"
            fill="#B1B6CE" />
        <path
            d="M82.6632 207.841C84.1708 208.489 85.2631 209.455 85.5572 210.674C90.5854 209.936 96.8154 206.262 97.7149 200.805C98.2609 199.335 97.7179 198.049 96.0746 196.932C95.9874 197.252 95.8937 197.582 95.8065 197.902C95.422 198.458 95.3251 199.359 94.96 199.97C94.33 201.02 93.6045 201.636 92.5479 202.234C91.9582 202.562 91.3926 201.919 91.5396 201.352C93.0176 195.763 89.8683 193.083 85.2358 191.724C83.3873 191.178 80.7827 190.59 78.9602 191.602C73.8999 194.404 76.7492 202.597 77.7836 207.179C79.2765 206.704 81.23 207.229 82.6535 207.835L82.6632 207.841Z"
            fill="#EAB6B3" />
        <path
            d="M59.4591 255.079C61.3594 257.354 63.6426 259.359 65.0679 261.989C65.6512 263.057 67.0235 268.908 67.2849 264.839C67.6948 258.405 59.047 254.825 57.2919 249.203C53.6442 237.523 70.0569 237.079 76.9916 236.422C80.5705 236.084 84.5371 235.669 87.2934 233.109C89.0221 231.503 90.636 228.399 88.9086 226.19C88.015 225.042 86.1245 224.706 84.7883 224.41C81.7894 223.741 77.5028 223.398 77.5655 219.428C77.5799 218.576 78.2358 217.109 77.9353 216.699C77.5167 216.119 76.2068 221.036 76.1841 220.922C76.3878 221.814 77.8033 222.884 78.5821 223.375C80.4387 224.549 82.7298 224.578 84.5912 225.693C87.3963 227.367 87.1817 230.493 84.9489 232.562C84.9069 232.604 84.8665 232.612 84.8212 232.638C84.8051 232.641 84.8083 232.657 84.7938 232.668C79.7626 235.994 73.0879 235.052 67.3892 235.798C62.2964 236.464 56.9388 238.914 55.7371 244.414C54.8746 248.376 57.0045 252.134 59.4671 255.077L59.4591 255.079Z"
            fill="#E38E89" />
        <path
            d="M83.4735 213.074C83.9711 212.412 84.5285 211.418 84.1261 210.583C83.7528 209.809 82.6056 209.366 81.8656 209.069C80.0979 208.381 77.5869 207.715 77.1363 210.166C76.8537 211.693 77.0559 214.341 78.4843 215.307C80.2746 216.025 82.446 214.448 83.4816 213.073L83.4735 213.074Z"
            fill="#E38E89" />
    </g>
    <defs>
        <clipPath id="clip0_2397_55343">
            <rect width="290.559" height="325.398" fill="white"
                transform="translate(72 57.0059) rotate(-11.3146)" />
        </clipPath>
        <clipPath id="clip1_2397_55343">
            <rect width="109.386" height="122.502" fill="white"
                transform="translate(349 210.803) rotate(-11.3146)" />
        </clipPath>
        <clipPath id="clip2_2397_55343">
            <rect width="109.386" height="122.502" fill="white"
                transform="translate(0 205.803) rotate(-11.3146)" />
        </clipPath>
    </defs>
</svg>
