<svg width="149" height="162" viewBox="0 0 149 162" fill="none" xmlns="http://www.w3.org/2000/svg">
    <path
        d="M86.0498 91.1469C111.487 70.0514 107.447 42.54 107.447 42.54L130.796 57.4406C130.796 57.4406 124.802 81.6648 101.49 97.9448L86.0397 91.137L86.0498 91.1469Z"
        fill="#093D7B" />
    <path
        d="M102.197 17.6973L56.6885 1.58778L28.6333 40.8628L0.568198 80.1379L46.0765 96.2474L91.5748 112.347L119.64 73.0719L147.695 33.7969L102.197 17.6973Z"
        fill="#1F2A51" />
    <path
        d="M55.9976 144.356C55.9262 137.297 55.1282 132.062 53.4143 127.415C52.9042 126.028 52.3339 124.612 51.774 123.246C49.1671 116.805 46.4786 110.145 48.5263 102.949C50.1546 97.2075 54.0773 92.0688 57.8713 87.1011C59.7534 84.6274 61.5364 82.2943 63.0491 79.9033C63.5928 79.0293 64.1665 78.1651 64.7402 77.3009C66.6097 74.4672 68.5383 71.5231 69.7353 68.3544C70.3337 66.76 70.7425 65.2169 71.1317 63.7341C71.7545 61.3595 72.3382 59.1152 73.6608 56.7155L74.6146 57.2386C73.3511 59.5178 72.7869 61.692 72.1837 64.0064C71.7847 65.5194 71.3761 67.0824 70.7581 68.7369C69.522 72.026 67.5536 75.0104 65.6546 77.8943C65.0908 78.7584 64.5171 79.6226 63.9734 80.4866C62.441 82.9178 60.6481 85.2709 58.7461 87.7648C55.0116 92.6521 51.1583 97.7102 49.5785 103.252C47.6382 110.096 50.2554 116.577 52.7911 122.849C53.3511 124.225 53.9215 125.651 54.4417 127.057C56.2065 131.834 57.0153 137.169 57.0877 144.368L55.9977 144.376L55.9976 144.356Z"
        fill="#093D7B" />
    <path
        d="M58.2499 148.44C59.4136 147.562 59.6515 145.9 58.763 144.737C57.8845 143.573 56.2228 143.335 55.0592 144.223C53.8955 145.102 53.6576 146.764 54.5461 147.927C55.4246 149.091 57.0864 149.329 58.2499 148.44Z"
        fill="#FFB800" />
    <path
        d="M61.8112 155.695C61.4583 149.797 57.113 146.339 57.113 146.339C57.113 146.339 51.9884 148.476 50.0289 154.041L48.2029 158.734L55.2502 159.713L62.2975 160.692L61.8211 155.675L61.8112 155.695Z"
        fill="#FFB800" />
    <path
        d="M77.2093 51.36C75.0707 50.1855 71.962 51.7482 70.2545 54.8507C68.557 57.9531 68.9022 61.4107 71.0408 62.5852C73.1794 63.7596 76.2881 62.197 77.9956 59.0945C79.6931 55.9921 79.3479 52.5345 77.2093 51.36Z"
        fill="#FFB800" />
    <path d="M59.3312 100.942L91.575 112.347L119.64 73.0723L147.695 33.7973" stroke="white"
        stroke-linecap="round" stroke-linejoin="round" />
</svg>
