<svg width="100" height="119" viewBox="0 0 100 119" fill="none" xmlns="http://www.w3.org/2000/svg">
    <path
        d="M49.7763 33.7129L58.6073 53.5876L45.461 59.43L36.63 39.5553L45.1795 41.0792L49.7763 33.7129Z"
        fill="#F45F1C" />
    <path d="M36.63 39.5553L45.1795 41.0792L49.7763 33.7129L58.6073 53.5876" stroke="#0F173E"
        stroke-width="0.91465" stroke-linecap="round" stroke-linejoin="round" />
    <path
        d="M27.6222 46.1389L46.9247 56.1592L40.2935 68.927L20.991 58.9067L28.6241 54.7686L27.6222 46.1389Z"
        fill="#F45F1C" />
    <path d="M20.991 58.9067L28.6241 54.7686L27.6222 46.1389L46.9247 56.1592" stroke="#0F173E"
        stroke-width="0.91465" stroke-linecap="round" stroke-linejoin="round" />
    <path
        d="M3.98173 84.5275C2.94825 85.5573 6.74717 91.0636 12.483 96.8332C18.2123 102.592 23.6989 106.429 24.7412 105.402L56.0882 65.7355L95.9245 34.6033L85.548 24.1718L75.1715 13.7404L43.8245 53.4064L3.98173 84.5275Z"
        fill="#EBEBEB" />
    <path d="M50.4509 73.5295L36.1581 59.1606L50.1388 45.2563L64.4292 59.634" stroke="#0F173E"
        stroke-width="0.91465" stroke-linecap="round" stroke-linejoin="round" />
    <path
        d="M75.1771 13.7292C76.2106 12.6994 81.6971 16.5368 87.4353 22.2976C93.1735 28.0584 96.97 33.5735 95.9365 34.6033C94.9031 35.6331 89.4165 31.7957 83.6783 26.0349C77.949 20.2765 74.1436 14.759 75.1771 13.7292Z"
        fill="#EBEBEB" />
    <path d="M64.4405 59.6387L50.1484 45.2666L36.172 59.1652L50.464 73.5373L64.4405 59.6387Z"
        fill="#F45F1C" />
    <path
        d="M42.1117 50.7292C40.8842 51.9532 38.514 52.3881 37.8853 53.8863C37.2312 55.4439 38.6151 57.4528 38.6049 59.1167C38.6035 60.7829 37.2077 62.7761 37.8492 64.34C38.4672 65.8502 40.8381 66.2961 42.0533 67.5213C43.2773 68.7488 43.7123 71.119 45.2104 71.7477C46.768 72.4018 48.777 71.0179 50.4408 71.0281C52.107 71.0295 54.1003 72.4253 55.6641 71.7838C57.1743 71.1658 57.6202 68.7949 58.8454 67.5797C60.073 66.3557 62.4432 65.9208 63.0718 64.4226C63.7259 62.865 62.342 60.8561 62.3522 59.1922C62.3536 57.526 63.7494 55.5327 63.1079 53.9689C62.4899 52.4587 60.119 52.0128 58.9038 50.7876C57.6798 49.5601 57.2449 47.1899 55.7468 46.5612C54.1892 45.9071 52.1802 47.291 50.5163 47.2808C48.8501 47.2794 46.8569 45.8836 45.293 46.5251C43.7828 47.1431 43.3369 49.514 42.1117 50.7292Z"
        fill="#FFB800" />
    <path
        d="M43.838 52.4587C40.1441 56.1372 40.1258 62.1073 43.8019 65.81C47.4781 69.5127 53.4506 69.5222 57.1533 65.846C60.8559 62.1699 60.8655 56.1974 57.1893 52.4947C53.5108 48.8009 47.5406 48.7825 43.838 52.4587Z"
        stroke="#0F173E" stroke-width="0.91465" stroke-linecap="round" stroke-linejoin="round" />
</svg>
