<svg width="418" height="238" viewBox="0 0 418 238" fill="none" xmlns="http://www.w3.org/2000/svg">
    <g clip-path="url(#clip0_2397_55048)">
        <path
            d="M105.855 172.979L82.7966 177.831L106.297 176.029C103.429 181.81 90.7774 199.948 50.25 182.49C84.2476 154.388 101.479 168.218 105.866 172.979H105.855Z"
            fill="url(#paint0_linear_2397_55048)" />
        <path
            d="M108.905 167.89L102.047 145.342L105.912 168.593C99.8927 166.246 80.7229 155.239 94.5419 113.328C125.524 144.718 113.258 163.095 108.905 167.89Z"
            fill="url(#paint1_linear_2397_55048)" />
        <path
            d="M72.0718 154.861L50.5442 152.118L71.5277 157.65C67.2879 161.822 50.7936 173.77 20.8203 146.336C58.8877 132.166 69.6912 149.397 72.0718 154.861Z"
            fill="url(#paint2_linear_2397_55048)" />
        <path
            d="M76.265 151.354L77.1038 129.667L73.4422 151.059C68.919 147.205 55.5648 131.821 80.244 99.5469C97.7133 136.22 81.491 148.497 76.2536 151.354H76.265Z"
            fill="url(#paint3_linear_2397_55048)" />
        <path
            d="M34.8557 98.0449L19.8804 87.3321L33.3366 99.9041C28.496 101.31 11.3668 103.611 0.0078125 71.0645C34.1415 75.7804 35.2865 93.0116 34.867 98.0449H34.8557Z"
            fill="url(#paint4_linear_2397_55048)" />
        <path
            d="M39.391 97.1042L48.7435 81.2447L37.4071 95.7552C35.582 91.0506 31.7843 74.1935 63.2086 60.0117C61.5082 94.4288 44.4583 97.0815 39.4023 97.1042H39.391Z"
            fill="url(#paint5_linear_2397_55048)" />
        <path
            d="M31.2753 67.1125L22.535 55.7195L29.7222 68.1441C25.7885 68.0987 12.491 65.9222 11.4141 39.0664C35.7985 50.3347 32.749 63.4395 31.2866 67.1011L31.2753 67.1125Z"
            fill="url(#paint6_linear_2397_55048)" />
        <path
            d="M34.8663 67.4388L45.443 57.7349L33.6986 65.9877C33.4039 62.0653 34.4015 48.6318 61.0532 45.1855C51.9728 70.4655 38.6526 68.5724 34.8776 67.4501L34.8663 67.4388Z"
            fill="url(#paint7_linear_2397_55048)" />
        <path
            d="M43.7212 29.191L50.8291 16.7211L42.1568 28.1594C40.6831 24.5205 37.5202 11.4157 61.848 0C60.9298 26.8444 47.6662 29.1117 43.7212 29.191Z"
            fill="url(#paint8_linear_2397_55048)" />
        <path
            d="M48.1314 126.322L29.6306 117.604L46.8391 128.657C41.8284 131.162 23.5656 137.08 4.66797 103.785C42.9167 102.141 47.5986 120.733 48.1314 126.322Z"
            fill="url(#paint9_linear_2397_55048)" />
        <path
            d="M52.9035 124.395L59.9547 105.191L50.4548 123.307C47.5187 118.534 40.0141 100.872 71.5291 79.1064C76.5284 117.06 58.4243 123.352 52.9035 124.395Z"
            fill="url(#paint10_linear_2397_55048)" />
        <path
            d="M34.9928 42.2507L31.2291 31.3678L33.5417 42.6475C30.5602 41.6159 20.9924 36.5826 26.978 15.8711C42.6788 30.631 37.0333 39.8247 34.9928 42.2394V42.2507Z"
            fill="url(#paint11_linear_2397_55048)" />
        <path
            d="M37.6465 43.4162L48.1552 38.7116L37.125 42.0105C37.8959 38.9497 42.0563 28.985 63.2099 33.1228C49.8897 50.0593 40.2312 45.2413 37.6465 43.4275V43.4162Z"
            fill="url(#paint12_linear_2397_55048)" />
        <path
            d="M311.833 172.979L334.891 177.831L311.391 176.029C314.259 181.81 326.91 199.948 367.437 182.49C333.44 154.388 316.209 168.218 311.821 172.979H311.833Z"
            fill="url(#paint13_linear_2397_55048)" />
        <path
            d="M308.796 167.89L315.654 145.342L311.789 168.593C317.808 166.246 336.978 155.239 323.159 113.328C292.177 144.718 304.443 163.095 308.796 167.89Z"
            fill="url(#paint14_linear_2397_55048)" />
        <path
            d="M345.617 154.861L367.145 152.118L346.161 157.65C350.401 161.822 366.895 173.77 396.869 146.336C358.801 132.166 347.998 149.397 345.617 154.861Z"
            fill="url(#paint15_linear_2397_55048)" />
        <path
            d="M341.435 151.354L340.596 129.667L344.258 151.059C348.781 147.205 362.135 131.821 337.456 99.5469C319.987 136.22 336.209 148.497 341.446 151.354H341.435Z"
            fill="url(#paint16_linear_2397_55048)" />
        <path
            d="M382.843 98.0449L397.819 87.3321L384.362 99.9041C389.203 101.31 406.332 103.611 417.691 71.0645C383.558 75.7804 382.413 93.0116 382.832 98.0449H382.843Z"
            fill="url(#paint17_linear_2397_55048)" />
        <path
            d="M378.298 97.1042L368.946 81.2447L380.282 95.7552C382.107 91.0506 385.905 74.1935 354.48 60.0117C356.181 94.4288 373.231 97.0815 378.287 97.1042H378.298Z"
            fill="url(#paint18_linear_2397_55048)" />
        <path
            d="M386.426 67.1125L395.166 55.7195L387.979 68.1441C391.913 68.0987 405.21 65.9222 406.287 39.0664C381.903 50.3347 384.952 63.4395 386.414 67.1011L386.426 67.1125Z"
            fill="url(#paint19_linear_2397_55048)" />
        <path
            d="M382.824 67.4388L372.247 57.7349L383.991 65.9877C384.286 62.0653 383.288 48.6318 356.637 45.1855C365.717 70.4655 379.037 68.5724 382.812 67.4501L382.824 67.4388Z"
            fill="url(#paint20_linear_2397_55048)" />
        <path
            d="M373.982 29.191L366.874 16.7211L375.547 28.1594C377.02 24.5205 380.183 11.4157 355.855 0C356.774 26.8444 370.037 29.1117 373.982 29.191Z"
            fill="url(#paint21_linear_2397_55048)" />
        <path
            d="M369.57 126.322L388.071 117.604L370.863 128.657C375.873 131.162 394.136 137.08 413.034 103.785C374.796 102.141 370.103 120.733 369.57 126.322Z"
            fill="url(#paint22_linear_2397_55048)" />
        <path
            d="M364.786 124.395L357.735 105.191L367.235 123.307C370.171 118.534 377.675 100.872 346.16 79.1064C341.161 117.06 359.265 123.352 364.786 124.395Z"
            fill="url(#paint23_linear_2397_55048)" />
        <path
            d="M382.708 42.2507L386.471 31.3678L384.159 42.6475C387.14 41.6159 396.708 36.5826 390.722 15.8711C375.022 30.631 380.667 39.8247 382.708 42.2394V42.2507Z"
            fill="url(#paint24_linear_2397_55048)" />
        <path
            d="M380.044 43.4162L369.535 38.7116L380.565 42.0105C379.794 38.9497 375.634 28.985 354.48 33.1228C367.801 50.0593 377.459 45.2413 380.044 43.4275V43.4162Z"
            fill="url(#paint25_linear_2397_55048)" />
        <path
            d="M296.034 183.97C289.233 180.15 250.428 160.923 203.915 191.407C157.414 160.923 118.587 180.15 111.785 183.97L114.245 156.151L116.852 126.812C145.873 106.248 203.915 105.817 203.915 105.817C203.915 105.817 261.946 106.248 290.967 126.812L293.574 156.151L296.034 183.97Z"
            fill="#29275F" />
        <path
            d="M372.349 130.038L293.573 156.146L290.966 126.808C261.945 106.243 203.914 105.813 203.914 105.813C203.914 105.813 145.861 106.243 116.851 126.808L114.244 156.146L35.4789 130.038C33.461 129.37 33.3363 126.592 35.2748 125.742L202.996 46.9658C203.585 46.6937 204.254 46.6937 204.844 46.9658L372.564 125.742C374.492 126.592 374.367 129.37 372.36 130.038H372.349Z"
            fill="#29275F" />
        <path style="mix-blend-mode:overlay"
            d="M372.349 130.038L293.573 156.146L290.966 126.808C261.945 106.243 203.914 105.813 203.914 105.813C203.914 105.813 145.861 106.243 116.851 126.808L114.244 156.146L35.4789 130.038C33.461 129.37 33.3363 126.592 35.2748 125.742L202.996 46.9658C203.585 46.6937 204.254 46.6937 204.844 46.9658L372.564 125.742C374.492 126.592 374.367 129.37 372.36 130.038H372.349Z"
            fill="url(#paint26_linear_2397_55048)" />
        <path
            d="M297.088 195.772C297.088 195.772 255.167 168.995 203.915 202.596C203.292 202.2 202.691 201.803 202.067 201.417C201.478 201.055 200.888 200.68 200.276 200.318C150.691 170.242 110.73 195.783 110.73 195.783L111.785 183.982C118.587 180.162 157.413 160.935 203.915 191.419C250.417 160.935 289.232 180.162 296.034 183.982L297.088 195.783V195.772Z"
            fill="url(#paint27_linear_2397_55048)" />
        <path
            d="M297.085 195.771C297.085 195.771 278.596 218.749 205.85 219.146C205.216 219.157 204.569 219.157 203.923 219.157H203.844C203.22 219.157 202.597 219.157 201.996 219.146C201.361 219.146 200.738 219.135 200.114 219.135C128.922 218.364 110.75 195.771 110.75 195.771C110.75 195.771 150.711 170.23 200.296 200.305C200.908 200.668 201.497 201.042 202.087 201.405C202.71 201.79 203.311 202.187 203.935 202.584C255.186 168.983 297.108 195.759 297.108 195.759L297.085 195.771Z"
            fill="#29275F" />
        <path style="mix-blend-mode:overlay"
            d="M297.085 195.771C297.085 195.771 278.596 218.749 205.85 219.146C205.216 219.157 204.569 219.157 203.923 219.157H203.844C203.22 219.157 202.597 219.157 201.996 219.146C201.361 219.146 200.738 219.135 200.114 219.135C128.922 218.364 110.75 195.771 110.75 195.771C110.75 195.771 150.711 170.23 200.296 200.305C200.908 200.668 201.497 201.042 202.087 201.405C202.71 201.79 203.311 202.187 203.935 202.584C255.186 168.983 297.108 195.759 297.108 195.759L297.085 195.771Z"
            fill="url(#paint28_linear_2397_55048)" />
        <path
            d="M116.852 126.812C128.709 117.119 143.696 111.916 158.422 108.345C173.352 104.819 188.463 103.085 203.915 102.62C219.23 103.04 234.5 104.819 249.407 108.345C264.133 111.916 279.131 117.119 290.977 126.823C277.691 119.443 263.09 115.85 248.41 113.231C226.315 109.592 203.96 107.755 181.65 110.34C159.408 112.63 136.849 115.963 116.863 126.823L116.852 126.812Z"
            fill="#111137" />
        <path
            d="M114.245 156.155C105.845 153.445 43.654 133.403 36.6141 131.068L35.5939 130.739C35.2878 130.648 34.8003 130.467 34.4489 130.206C33.7007 129.662 33.2586 128.755 33.2699 127.848C33.2472 126.442 34.2448 125.377 35.5145 124.912L36.4894 124.447L40.3664 122.599C90.0876 98.9404 151.757 69.8628 201.456 46.4306C202.192 46.1132 203.043 45.569 203.938 45.6144C204.845 45.5577 205.661 46.1132 206.41 46.4306C207.6 47.0087 210.989 48.5845 212.236 49.174C217.156 51.4866 230.443 57.7669 235.533 60.1589C279.88 81.0517 327.141 103.339 371.376 124.436L372.351 124.901L372.838 125.127C373.031 125.241 373.235 125.32 373.416 125.467C374.176 126 374.607 126.941 374.595 127.848C374.641 129.197 373.507 130.467 372.249 130.728L371.228 131.056C364.574 133.324 301.895 153.411 293.597 156.132C301.963 153.298 363.792 132.201 370.843 129.877C371.489 129.639 372.305 129.446 372.657 129.174C373.507 128.574 373.552 127.1 372.657 126.51C372.26 126.25 371.308 125.853 370.854 125.626C368.632 124.572 361.547 121.318 359.167 120.207C308.119 96.6959 254.929 71.3818 203.95 47.8703C153.548 71.0984 91.4819 100.528 40.9446 123.824L37.0449 125.637L36.07 126.091L35.5825 126.318C35.4578 126.397 35.3218 126.431 35.2311 126.522C34.8116 126.816 34.5509 127.315 34.5623 127.837C34.6189 129.276 35.7412 129.458 37.0222 129.889C43.688 132.133 106.004 153.309 114.268 156.144L114.245 156.155Z"
            fill="#5E5E95" />
        <path
            d="M114.244 156.153C88.3404 147.98 62.3915 139.659 36.5334 131.315C35.8532 131.043 35.2297 131.009 34.2888 130.42C33.4726 129.83 32.9851 128.833 32.9965 127.858C32.9738 126.361 34.0167 125.182 35.3998 124.684L36.3633 124.219L40.2404 122.371L47.9944 118.675C93.5098 96.8529 142.041 74.0102 187.658 52.4598C190.197 51.2808 196.84 48.1067 199.3 46.9617C199.878 46.7123 201.636 45.8394 202.214 45.59C203.098 45.0799 204.742 45.0685 205.626 45.59C213.981 49.535 227.244 55.7927 235.713 59.7944C280.752 81.1067 328.738 103.587 373.551 125.284C375.251 126.486 375.251 129.252 373.517 130.442C372.191 131.213 368.665 132.109 367.191 132.653C342.682 140.532 318.116 148.433 293.562 156.164C315.18 148.615 336.867 141.257 358.519 133.798L366.647 131.043L370.717 129.672C371.907 129.241 372.973 129.161 373.018 127.869C373.041 126.645 371.646 126.429 370.694 125.919L366.795 124.117C362.317 122.008 333.069 108.563 327.82 106.115L203.903 48.3787C175.199 61.7556 67.969 111.771 41.0112 124.117L37.1115 125.919L36.1366 126.373L35.6492 126.599C35.1277 126.815 34.7763 127.291 34.7763 127.88C34.8556 129.161 35.8305 129.263 37.0662 129.683C62.7883 138.434 88.5671 147.265 114.233 156.176L114.244 156.153Z"
            fill="#5E5E95" />
        <path
            d="M161.596 64.7567L154.557 68.0783C144.014 66.7633 133.222 70.969 125.127 77.8729C104.416 95.5462 103.078 125.939 99.6661 150.89C96.3785 175.025 89.1233 202.391 65.9858 214.884C63.2765 216.357 60.8392 212.22 63.5599 210.746C75.5877 204.262 83.5685 192.472 88.2504 179.911C98.0563 153.543 94.6894 124.17 105.527 98.0629C110.322 86.5112 117.713 76.0931 128.551 69.5407C138.368 63.6004 150.509 61.0724 161.596 64.7681V64.7567Z"
            fill="#E6AC4B" />
        <path
            d="M66.8127 217.471C63.9106 215.328 61.802 212.777 60.2149 209.535C59.2854 213.378 62.8676 217.686 66.8127 217.471Z"
            fill="#D99735" />
        <path
            d="M59.5815 205.133C59.9286 204.327 61.0714 204.327 61.4185 205.133L64.1857 211.558C64.3304 211.895 64.6473 212.125 65.0118 212.159L71.9781 212.805C72.8519 212.886 73.205 213.973 72.5458 214.552L67.2896 219.169C67.0147 219.411 66.8936 219.783 66.9741 220.14L68.5123 226.965C68.7053 227.822 67.7808 228.493 67.0262 228.045L61.0106 224.473C60.6958 224.286 60.3042 224.286 59.9894 224.473L53.9738 228.045C53.2192 228.493 52.2947 227.822 52.4877 226.965L54.0259 220.14C54.1064 219.783 53.9853 219.411 53.7104 219.169L48.4542 214.552C47.795 213.973 48.1481 212.886 49.0219 212.805L55.9882 212.159C56.3527 212.125 56.6696 211.895 56.8143 211.558L59.5815 205.133Z"
            fill="#E6AC4B" />
    </g>
    <defs>
        <linearGradient id="paint0_linear_2397_55048" x1="78.2167" y1="181.924" x2="82.7399"
            y2="-38.2051" gradientUnits="userSpaceOnUse">
            <stop stop-color="#E6AC4B" />
            <stop offset="0.54" stop-color="#EDCB7B" />
            <stop offset="1" stop-color="#E79B33" />
        </linearGradient>
        <linearGradient id="paint1_linear_2397_55048" x1="101.548" y1="182.4" x2="106.071"
            y2="-37.7171" gradientUnits="userSpaceOnUse">
            <stop stop-color="#E6AC4B" />
            <stop offset="0.54" stop-color="#EDCB7B" />
            <stop offset="1" stop-color="#E79B33" />
        </linearGradient>
        <linearGradient id="paint2_linear_2397_55048" x1="45.8169" y1="181.252" x2="50.3401"
            y2="-38.8766" gradientUnits="userSpaceOnUse">
            <stop stop-color="#E6AC4B" />
            <stop offset="0.54" stop-color="#EDCB7B" />
            <stop offset="1" stop-color="#E79B33" />
        </linearGradient>
        <linearGradient id="paint3_linear_2397_55048" x1="75.9022" y1="181.883" x2="80.4254"
            y2="-38.2461" gradientUnits="userSpaceOnUse">
            <stop stop-color="#E6AC4B" />
            <stop offset="0.54" stop-color="#EDCB7B" />
            <stop offset="1" stop-color="#E79B33" />
        </linearGradient>
        <linearGradient id="paint4_linear_2397_55048" x1="15.4706" y1="180.63" x2="19.9824"
            y2="-39.4987" gradientUnits="userSpaceOnUse">
            <stop stop-color="#E6AC4B" />
            <stop offset="0.54" stop-color="#EDCB7B" />
            <stop offset="1" stop-color="#E79B33" />
        </linearGradient>
        <linearGradient id="paint5_linear_2397_55048" x1="47.5191" y1="181.288" x2="52.0423"
            y2="-38.8297" gradientUnits="userSpaceOnUse">
            <stop stop-color="#E6AC4B" />
            <stop offset="0.54" stop-color="#EDCB7B" />
            <stop offset="1" stop-color="#E79B33" />
        </linearGradient>
        <linearGradient id="paint6_linear_2397_55048" x1="19.1454" y1="180.714" x2="23.6686"
            y2="-39.415" gradientUnits="userSpaceOnUse">
            <stop stop-color="#E6AC4B" />
            <stop offset="0.54" stop-color="#EDCB7B" />
            <stop offset="1" stop-color="#E79B33" />
        </linearGradient>
        <linearGradient id="paint7_linear_2397_55048" x1="44.7629" y1="181.233" x2="49.2861"
            y2="-38.8846" gradientUnits="userSpaceOnUse">
            <stop stop-color="#E6AC4B" />
            <stop offset="0.54" stop-color="#EDCB7B" />
            <stop offset="1" stop-color="#E79B33" />
        </linearGradient>
        <linearGradient id="paint8_linear_2397_55048" x1="48.0063" y1="181.302" x2="52.5295"
            y2="-38.8269" gradientUnits="userSpaceOnUse">
            <stop stop-color="#E6AC4B" />
            <stop offset="0.54" stop-color="#EDCB7B" />
            <stop offset="1" stop-color="#E79B33" />
        </linearGradient>
        <linearGradient id="paint9_linear_2397_55048" x1="25.0393" y1="180.838" x2="29.5625"
            y2="-39.2906" gradientUnits="userSpaceOnUse">
            <stop stop-color="#E6AC4B" />
            <stop offset="0.54" stop-color="#EDCB7B" />
            <stop offset="1" stop-color="#E79B33" />
        </linearGradient>
        <linearGradient id="paint10_linear_2397_55048" x1="58.3336" y1="181.519" x2="62.8568"
            y2="-38.61" gradientUnits="userSpaceOnUse">
            <stop stop-color="#E6AC4B" />
            <stop offset="0.54" stop-color="#EDCB7B" />
            <stop offset="1" stop-color="#E79B33" />
        </linearGradient>
        <linearGradient id="paint11_linear_2397_55048" x1="28.2816" y1="180.894" x2="32.8048"
            y2="-39.2234" gradientUnits="userSpaceOnUse">
            <stop stop-color="#E6AC4B" />
            <stop offset="0.54" stop-color="#EDCB7B" />
            <stop offset="1" stop-color="#E79B33" />
        </linearGradient>
        <linearGradient id="paint12_linear_2397_55048" x1="47.2143" y1="181.289" x2="51.7375"
            y2="-38.8402" gradientUnits="userSpaceOnUse">
            <stop stop-color="#E6AC4B" />
            <stop offset="0.54" stop-color="#EDCB7B" />
            <stop offset="1" stop-color="#E79B33" />
        </linearGradient>
        <linearGradient id="paint13_linear_2397_55048" x1="339.233" y1="188.261" x2="343.756"
            y2="-31.8681" gradientUnits="userSpaceOnUse">
            <stop stop-color="#E6AC4B" />
            <stop offset="0.54" stop-color="#EDCB7B" />
            <stop offset="1" stop-color="#E79B33" />
        </linearGradient>
        <linearGradient id="paint14_linear_2397_55048" x1="314.521" y1="187.751" x2="319.044"
            y2="-32.3776" gradientUnits="userSpaceOnUse">
            <stop stop-color="#E6AC4B" />
            <stop offset="0.54" stop-color="#EDCB7B" />
            <stop offset="1" stop-color="#E79B33" />
        </linearGradient>
        <linearGradient id="paint15_linear_2397_55048" x1="370.455" y1="188.893" x2="374.978"
            y2="-31.236" gradientUnits="userSpaceOnUse">
            <stop stop-color="#E6AC4B" />
            <stop offset="0.54" stop-color="#EDCB7B" />
            <stop offset="1" stop-color="#E79B33" />
        </linearGradient>
        <linearGradient id="paint16_linear_2397_55048" x1="339.565" y1="188.265" x2="344.088"
            y2="-31.8525" gradientUnits="userSpaceOnUse">
            <stop stop-color="#E6AC4B" />
            <stop offset="0.54" stop-color="#EDCB7B" />
            <stop offset="1" stop-color="#E79B33" />
        </linearGradient>
        <linearGradient id="paint17_linear_2397_55048" x1="398.068" y1="189.461" x2="402.591"
            y2="-30.6564" gradientUnits="userSpaceOnUse">
            <stop stop-color="#E6AC4B" />
            <stop offset="0.54" stop-color="#EDCB7B" />
            <stop offset="1" stop-color="#E79B33" />
        </linearGradient>
        <linearGradient id="paint18_linear_2397_55048" x1="365.635" y1="188.804" x2="370.159"
            y2="-31.325" gradientUnits="userSpaceOnUse">
            <stop stop-color="#E6AC4B" />
            <stop offset="0.54" stop-color="#EDCB7B" />
            <stop offset="1" stop-color="#E79B33" />
        </linearGradient>
        <linearGradient id="paint19_linear_2397_55048" x1="393.024" y1="189.363" x2="397.547"
            y2="-30.7654" gradientUnits="userSpaceOnUse">
            <stop stop-color="#E6AC4B" />
            <stop offset="0.54" stop-color="#EDCB7B" />
            <stop offset="1" stop-color="#E79B33" />
        </linearGradient>
        <linearGradient id="paint20_linear_2397_55048" x1="367.599" y1="188.839" x2="372.122"
            y2="-31.2893" gradientUnits="userSpaceOnUse">
            <stop stop-color="#E6AC4B" />
            <stop offset="0.54" stop-color="#EDCB7B" />
            <stop offset="1" stop-color="#E79B33" />
        </linearGradient>
        <linearGradient id="paint21_linear_2397_55048" x1="362.555" y1="188.738" x2="367.078"
            y2="-31.3903" gradientUnits="userSpaceOnUse">
            <stop stop-color="#E6AC4B" />
            <stop offset="0.54" stop-color="#EDCB7B" />
            <stop offset="1" stop-color="#E79B33" />
        </linearGradient>
        <linearGradient id="paint22_linear_2397_55048" x1="389.772" y1="189.295" x2="394.295"
            y2="-30.8224" gradientUnits="userSpaceOnUse">
            <stop stop-color="#E6AC4B" />
            <stop offset="0.54" stop-color="#EDCB7B" />
            <stop offset="1" stop-color="#E79B33" />
        </linearGradient>
        <linearGradient id="paint23_linear_2397_55048" x1="355.944" y1="188.604" x2="360.467"
            y2="-31.5248" gradientUnits="userSpaceOnUse">
            <stop stop-color="#E6AC4B" />
            <stop offset="0.54" stop-color="#EDCB7B" />
            <stop offset="1" stop-color="#E79B33" />
        </linearGradient>
        <linearGradient id="paint24_linear_2397_55048" x1="383.093" y1="189.158" x2="387.616"
            y2="-30.9706" gradientUnits="userSpaceOnUse">
            <stop stop-color="#E6AC4B" />
            <stop offset="0.54" stop-color="#EDCB7B" />
            <stop offset="1" stop-color="#E79B33" />
        </linearGradient>
        <linearGradient id="paint25_linear_2397_55048" x1="364.422" y1="188.771" x2="368.946"
            y2="-31.3469" gradientUnits="userSpaceOnUse">
            <stop stop-color="#E6AC4B" />
            <stop offset="0.54" stop-color="#EDCB7B" />
            <stop offset="1" stop-color="#E79B33" />
        </linearGradient>
        <linearGradient id="paint26_linear_2397_55048" x1="203.914" y1="162.154" x2="203.914"
            y2="58.4721" gradientUnits="userSpaceOnUse">
            <stop />
            <stop offset="1" stop-color="#29275F" stop-opacity="0" />
        </linearGradient>
        <linearGradient id="paint27_linear_2397_55048" x1="110.73" y1="188.539" x2="297.088"
            y2="188.539" gradientUnits="userSpaceOnUse">
            <stop stop-color="#E6AC4B" />
            <stop offset="0.54" stop-color="#EDCB7B" />
            <stop offset="1" stop-color="#E79B33" />
        </linearGradient>
        <linearGradient id="paint28_linear_2397_55048" x1="203.912" y1="183.641" x2="203.912"
            y2="240.47" gradientUnits="userSpaceOnUse">
            <stop />
            <stop offset="1" stop-color="#29275F" stop-opacity="0" />
        </linearGradient>
        <clipPath id="clip0_2397_55048">
            <rect width="417.698" height="237.53" fill="white" />
        </clipPath>
    </defs>
</svg>
