<svg width="694" height="377" viewBox="0 0 694 377" fill="none" xmlns="http://www.w3.org/2000/svg">
    <ellipse cx="246.504" cy="246.958" rx="214.786" ry="48.4853" fill="#DED5D0" />
    <path d="M0 92.705L240.451 9.96777L487.796 92.705L243.892 175.677L0 92.705Z" fill="#181E25" />
    <path d="M0 89.2483L240.451 0L487.796 89.2483L243.892 162.219L0 89.2483Z" fill="#2B313D" />
    <path
        d="M0.00390625 92.7041C20.5521 98.9676 41.0012 105.503 61.4627 112.014C81.8995 118.587 102.336 125.197 122.723 131.907C143.135 138.554 163.486 145.411 183.86 152.158L244.886 172.743H242.893L303.919 152.158C324.293 145.411 344.643 138.541 365.055 131.907C385.443 125.185 405.879 118.587 426.316 112.014C446.778 105.503 467.239 98.9676 487.775 92.7041C467.672 100.267 447.483 107.571 427.294 114.886C407.08 122.14 386.866 129.369 366.603 136.474C346.376 143.666 326.064 150.623 305.8 157.703L244.874 178.598L243.871 178.944L242.881 178.598L181.966 157.691C161.691 150.623 141.39 143.641 121.164 136.462C100.9 129.357 80.6865 122.128 60.4725 114.874C40.3081 107.558 20.1064 100.267 0.00390625 92.7041Z"
        fill="#2B313D" />
    <path
        d="M117.014 143.448C117.014 143.448 102.841 207.42 103.992 236.137C103.992 236.137 174.091 271.762 219.669 280.564C265.246 289.377 357.18 256.438 385.514 234.602C385.514 234.602 380.922 166.039 369.806 141.529L253.746 187.49C253.746 187.49 243.027 192.85 229.621 185.955C216.215 179.061 117.014 143.448 117.014 143.448Z"
        fill="#141925" />
    <path
        d="M112.074 167.931C121.68 171.063 131.236 174.331 140.767 177.66C145.545 179.307 150.299 181.003 155.052 182.698C159.805 184.407 164.571 186.065 169.3 187.811C178.769 191.289 188.276 194.706 197.708 198.271C207.153 201.811 216.622 205.326 226.03 208.978L226.166 209.027L226.451 209.176C226.971 209.448 227.726 209.82 228.419 210.104C229.124 210.414 229.867 210.674 230.597 210.946C231.34 211.206 232.095 211.429 232.85 211.664C233.618 211.862 234.373 212.085 235.14 212.246C238.223 212.964 241.379 213.31 244.536 213.31C250.861 213.471 257.162 212.011 263.004 209.51L272.313 205.438C275.432 204.101 278.576 202.826 281.72 201.538L300.585 193.975C313.211 189.061 325.849 184.209 338.562 179.542C351.275 174.863 364.012 170.271 376.861 165.963C364.581 171.706 352.203 177.19 339.812 182.649L302.578 198.828C290.125 204.138 277.747 209.473 265.43 215.043C263.784 215.736 262.15 216.479 260.417 216.974C259.563 217.247 258.709 217.544 257.842 217.779L255.218 218.385L253.906 218.683L252.569 218.881L249.895 219.264C248.1 219.363 246.293 219.574 244.486 219.487C240.884 219.45 237.27 219.029 233.766 218.187C232.888 217.989 232.021 217.729 231.154 217.494C230.288 217.222 229.434 216.95 228.58 216.652C227.726 216.331 226.884 216.021 226.042 215.637C225.176 215.266 224.408 214.907 223.443 214.375L223.864 214.573C214.456 210.909 205.11 207.121 195.752 203.346C186.382 199.607 177.061 195.721 167.727 191.883C163.061 189.977 158.419 187.984 153.765 186.028C149.11 184.072 144.456 182.117 139.827 180.099C130.53 176.15 121.284 172.103 112.074 167.931Z"
        fill="#F3B11C" />
    <path opacity="0.29"
        d="M113.476 200.973C112.547 208.585 113.476 216.569 117.165 223.291C120.866 230 127.562 235.261 135.175 236.177C137.787 236.486 140.931 236.003 142.119 233.664C143.481 230.953 141.228 227.722 138.567 226.262C135.906 224.801 132.761 224.256 130.36 222.4C126.287 219.243 125.669 213.425 125.384 208.288C125.111 203.386 127.005 190.265 121.658 187.814C115.035 184.769 113.476 196.801 113.476 200.973Z"
        fill="#FCFBE7" />
    <path opacity="0.39"
        d="M173.707 127.752L246.863 148.82L460.985 87.5342L250.701 134.188L173.707 127.752Z"
        fill="#FCFBE7" />
    <path
        d="M282.156 326.627C263.866 304.186 266.224 252.774 269.463 240.248C270.91 234.672 274.012 230.542 278.677 227.974C282.722 225.752 287.743 225.574 292.103 227.502L313.8 237.104C316.012 238.079 317.983 239.588 319.502 241.464C320.551 242.743 321.379 244.179 321.966 245.73L331.032 269.66C331.829 271.756 332.164 274.062 331.976 276.305L329.586 307.121C329.198 312.037 326.462 316.512 322.249 319.07L302.826 330.904C296.694 334.646 288.728 333.681 283.917 328.619C283.32 328 282.733 327.329 282.156 326.627Z"
        fill="#11141D" />
    <path
        d="M318.651 242.166C319.616 243.36 320.402 244.692 320.936 246.128L330.003 270.057C330.736 272.007 331.051 274.145 330.883 276.22L328.493 307.036C328.137 311.606 325.59 315.746 321.68 318.126L302.258 329.96C296.566 333.429 289.187 332.549 284.733 327.863C284.146 327.255 283.58 326.605 283.024 325.924C264.975 303.787 267.344 252.93 270.541 240.53C271.903 235.269 274.817 231.37 279.23 228.948C282.982 226.894 287.626 226.737 291.672 228.518L313.368 238.12C315.412 239.032 317.236 240.436 318.651 242.166ZM320.37 240.761C318.746 238.759 316.66 237.155 314.259 236.097L292.562 226.496C287.94 224.452 282.584 224.567 278.15 227.009C274.23 229.168 270.184 233.026 268.392 239.975C265.048 252.92 262.679 304.468 281.305 327.329C281.892 328.041 282.5 328.733 283.129 329.404C288.391 334.938 296.902 335.84 303.421 331.857L322.844 320.023C327.372 317.256 330.307 312.497 330.715 307.204L333.105 276.388C333.284 273.967 332.948 271.535 332.078 269.261L323.012 245.331C322.383 243.675 321.481 242.124 320.37 240.761Z"
        fill="#FFD04E" />
    <path
        d="M287.842 225.204C287.842 225.204 312.536 245.392 315.765 283.084C318.993 320.776 295.001 334.831 295.001 334.831C295.001 334.831 310.304 329.695 331.707 328.731C353.121 327.777 434.416 312.83 488.302 309.235C542.188 305.64 618.411 305.829 626.555 300.095C634.72 294.362 646.564 267.298 644.908 243.903C643.252 220.508 633.295 199.294 633.295 199.294C633.295 199.294 581.295 214.188 564.441 216.012C547.597 217.825 469.645 234.627 430.151 235.654C390.677 236.682 287.842 225.204 287.842 225.204Z"
        fill="#FBE8AA" />
    <path
        d="M455.616 315.609C454.148 313.806 453.226 311.626 452.964 309.33L444.316 233.663C443.551 226.987 448.373 220.928 455.05 220.163L472.973 218.109C477.113 217.637 481.17 219.304 483.811 222.553C485.279 224.356 486.201 226.536 486.463 228.831L495.11 304.498C495.477 307.716 494.555 310.902 492.521 313.46C490.488 316.017 487.595 317.632 484.377 317.998L466.454 320.053C462.313 320.524 458.267 318.868 455.616 315.609Z"
        fill="#11141D" />
    <path
        d="M482.945 223.262C484.286 224.897 485.114 226.878 485.355 228.964L494.003 304.63C494.338 307.565 493.51 310.448 491.644 312.775C489.8 315.102 487.169 316.559 484.244 316.904L466.321 318.959C462.558 319.389 458.868 317.879 456.458 314.923C455.116 313.288 454.288 311.307 454.047 309.221L445.399 233.555C445.064 230.62 445.892 227.737 447.747 225.421C449.592 223.094 452.223 221.637 455.147 221.291L473.071 219.237C476.855 218.786 480.544 220.295 482.945 223.262ZM484.664 221.857C481.886 218.451 477.494 216.47 472.84 217.015L454.917 219.069C447.653 219.897 442.381 226.532 443.209 233.796L451.856 309.462C452.16 312.072 453.198 314.41 454.749 316.317C457.527 319.724 461.918 321.705 466.572 321.16L484.496 319.106C491.76 318.277 497.032 311.643 496.204 304.379L487.556 228.712C487.263 226.113 486.215 223.765 484.664 221.857Z"
        fill="#FFD04E" />
    <path
        d="M636.744 199.242C636.744 199.242 656.879 239.439 644.332 274.521C644.332 274.521 639.563 288.996 633.693 297.863C632.907 299.048 630.738 302.538 633.431 302.947C636.733 303.439 640.182 301.018 642.875 299.414C646.795 297.088 650.191 293.88 652.759 290.117C653.462 289.08 654.07 287.969 654.604 286.826C656.522 282.686 658.032 278.346 659.3 273.955C660.83 268.651 662.004 263.242 662.79 257.782C663.618 252.006 664.038 246.157 663.849 240.309C663.671 234.659 662.916 228.978 661.25 223.559C659.688 218.476 657.267 213.602 653.776 209.545C650.139 205.321 645.422 202.198 640.192 200.3C639.07 199.913 637.907 199.546 636.744 199.242Z"
        fill="#11141D" stroke="#FFD04E" stroke-width="0.79805" stroke-miterlimit="10" />
    <path
        d="M494.079 240.809C499.855 232.728 504.079 223.221 504.33 213.284C504.771 195.696 491.69 179.093 474.877 173.894C458.065 168.695 438.81 174.282 426.18 186.556C421.18 191.409 417.071 197.342 415.321 204.081C413.381 211.513 414.472 219.563 417.522 226.617C420.572 233.671 425.509 239.803 431.169 245.002C440.644 253.701 452.31 260.001 464.804 263.124C458.222 254.613 452.321 245.568 447.195 236.103C443.086 228.535 439.397 220.213 440.193 211.639C441.346 199.48 452.834 189.229 465.035 189.439C477.246 189.659 488.356 200.329 489.069 212.509C489.656 222.382 484.363 231.197 479.751 239.499C477.393 243.744 474.961 248.041 473.336 252.643C471.523 257.768 474.877 260.41 479.447 257.118C485.034 253.104 490.117 246.364 494.079 240.809Z"
        fill="#F04846" />
    <path
        d="M499.017 276.745C507.371 282.123 514.803 289.407 518.702 298.547C525.609 314.741 519.582 334.981 505.872 346.029C492.163 357.077 472.206 358.984 455.949 352.245C449.513 349.582 443.496 345.578 439.377 339.971C434.828 333.765 432.868 325.894 433.099 318.221C433.329 310.528 435.646 303.012 438.979 296.095C444.566 284.512 453.098 274.345 463.537 266.84C460.56 277.175 458.422 287.762 457.143 298.453C456.127 306.995 455.76 316.104 459.67 323.766C465.235 334.635 479.689 339.929 490.957 335.222C502.225 330.516 508.608 316.502 504.782 304.899C501.68 295.508 493.515 289.271 486.157 283.255C482.394 280.183 478.557 277.081 475.35 273.412C471.776 269.314 473.914 265.625 479.385 267.008C486.083 268.675 493.295 273.056 499.017 276.745Z"
        fill="#F04846" />
    <path
        d="M416.683 249.002C407.931 240.774 401.202 230.669 393.267 221.666C385.343 212.652 375.616 204.434 363.877 201.918C372.975 208.857 379.536 219.024 382.115 230.177C374.652 227.368 365.69 229.034 359.736 234.338C368.038 234.443 376.297 236.77 383.446 240.983C390.689 245.27 396.653 251.36 402.889 257.01C409.126 262.659 415.949 268.036 424.02 270.405C428.003 271.579 449.574 271.852 441.388 262.806C439.156 260.343 431.525 259.4 428.338 257.639C424.093 255.28 420.194 252.303 416.683 249.002Z"
        fill="#F04846" />
    <path
        d="M421.555 298.557C414.867 308.535 410.57 319.876 404.857 330.452C399.145 341.028 391.514 351.195 380.645 356.279C387.951 347.485 392.08 336.102 392.08 324.656C385.435 329.058 376.326 329.446 369.325 325.61C377.385 323.65 384.932 319.541 390.938 313.829C397.038 308.043 401.482 300.768 406.293 293.861C411.115 286.964 416.555 280.183 423.892 276.074C427.508 274.051 448.482 268.946 442.528 279.596C440.904 282.499 433.692 285.119 430.967 287.551C427.382 290.779 424.248 294.542 421.555 298.557Z"
        fill="#F04846" />
</svg>
