<svg width="206" height="204" viewBox="0 0 206 204" fill="none" xmlns="http://www.w3.org/2000/svg">
    <g style="mix-blend-mode:overlay">
        <path
            d="M187.976 146.825L183.96 144.717L190.905 130.902L196.508 130.485L198.103 127.415L81.1042 55.7944L15.5264 55.1611L6.28698 76.9781L124.254 157.436L186.412 149.806L187.976 146.825Z"
            fill="#1B1B1B" />
    </g>
    <path
        d="M17.4014 55.1611L8.16198 76.9781L126.136 157.443L188.294 149.813L189.851 146.825L185.835 144.732L126.546 152.548L134.333 135.298L198.383 130.485L199.985 127.423L131.524 133.309L17.4014 55.1611Z"
        fill="#BC8636" />
    <path d="M199.985 127.423L82.9792 55.7944L17.4014 55.1611L131.524 133.309L199.985 127.423Z"
        fill="#BC8636" />
    <path d="M17.4035 17.9871L131.526 96.1351C130.08 96.9696 120.818 116.648 120.818 116.648"
        stroke="#3D362B" stroke-width="1.58063" stroke-linecap="round" stroke-linejoin="round" />
</svg>
